{
  "version": "MACHINE-II-SESSION-v1",
  "date": "2026-04-05T15:40:18.744Z",
  "duration": 2721.8,
  "totalMidiEvents": 36519,
  "totalSnapshots": 2705,
  "totalPhaseChanges": 6,
  "totalDecisions": 168,
  "totalScreenshots": 48,
  "midi": [
    {
      "t": 7.6,
      "ch": 4,
      "note": 64,
      "vel": 4,
      "dur": 12257
    },
    {
      "t": 7.6,
      "ch": 4,
      "note": 66,
      "vel": 4,
      "dur": 12257
    },
    {
      "t": 7.6,
      "ch": 4,
      "note": 69,
      "vel": 4,
      "dur": 12257
    },
    {
      "t": 7.6,
      "ch": 3,
      "note": 52,
      "vel": 4,
      "dur": 12307
    },
    {
      "t": 7.6,
      "ch": 1,
      "note": 36,
      "vel": 15,
      "dur": 25
    },
    {
      "t": 13.8,
      "ch": 1,
      "note": 38,
      "vel": 15,
      "dur": 25
    },
    {
      "t": 18.3,
      "ch": 2,
      "note": 57,
      "vel": 42,
      "dur": 23076
    },
    {
      "t": 18.3,
      "ch": 4,
      "note": 64,
      "vel": 4,
      "dur": 12257
    },
    {
      "t": 18.3,
      "ch": 4,
      "note": 66,
      "vel": 4,
      "dur": 12257
    },
    {
      "t": 18.3,
      "ch": 4,
      "note": 69,
      "vel": 4,
      "dur": 12257
    },
    {
      "t": 18.3,
      "ch": 3,
      "note": 45,
      "vel": 5,
      "dur": 12307
    },
    {
      "t": 19.9,
      "ch": 1,
      "note": 40,
      "vel": 34,
      "dur": 25
    },
    {
      "t": 26.1,
      "ch": 1,
      "note": 42,
      "vel": 15,
      "dur": 25
    },
    {
      "t": 30.6,
      "ch": 2,
      "note": 57,
      "vel": 42,
      "dur": 23076
    },
    {
      "t": 30.6,
      "ch": 4,
      "note": 64,
      "vel": 4,
      "dur": 12257
    },
    {
      "t": 30.6,
      "ch": 4,
      "note": 69,
      "vel": 3,
      "dur": 3076
    },
    {
      "t": 30.6,
      "ch": 4,
      "note": 68,
      "vel": 4,
      "dur": 9180
    },
    {
      "t": 30.6,
      "ch": 4,
      "note": 61,
      "vel": 4,
      "dur": 12257
    },
    {
      "t": 30.6,
      "ch": 3,
      "note": 45,
      "vel": 5,
      "dur": 12307
    },
    {
      "t": 32.2,
      "ch": 1,
      "note": 36,
      "vel": 33,
      "dur": 25
    },
    {
      "t": 38.4,
      "ch": 1,
      "note": 38,
      "vel": 58,
      "dur": 25
    },
    {
      "t": 42.9,
      "ch": 2,
      "note": 57,
      "vel": 42,
      "dur": 23076
    },
    {
      "t": 42.9,
      "ch": 2,
      "note": 68,
      "vel": 29,
      "dur": 23076
    },
    {
      "t": 44.6,
      "ch": 1,
      "note": 40,
      "vel": 21,
      "dur": 25
    },
    {
      "t": 50.7,
      "ch": 1,
      "note": 42,
      "vel": 56,
      "dur": 25
    },
    {
      "t": 55.2,
      "ch": 2,
      "note": 57,
      "vel": 43,
      "dur": 23076
    },
    {
      "t": 55.2,
      "ch": 2,
      "note": 68,
      "vel": 30,
      "dur": 23076
    },
    {
      "t": 55.2,
      "ch": 4,
      "note": 64,
      "vel": 5,
      "dur": 12257
    },
    {
      "t": 55.2,
      "ch": 4,
      "note": 69,
      "vel": 5,
      "dur": 12257
    },
    {
      "t": 55.2,
      "ch": 4,
      "note": 66,
      "vel": 5,
      "dur": 12257
    },
    {
      "t": 55.2,
      "ch": 3,
      "note": 45,
      "vel": 6,
      "dur": 12307
    },
    {
      "t": 56.9,
      "ch": 1,
      "note": 36,
      "vel": 31,
      "dur": 25
    },
    {
      "t": 62.4,
      "ch": 5,
      "note": 59,
      "vel": 1,
      "dur": 1139
    },
    {
      "t": 63,
      "ch": 1,
      "note": 38,
      "vel": 36,
      "dur": 25
    },
    {
      "t": 67.5,
      "ch": 2,
      "note": 68,
      "vel": 0,
      "dur": 0
    },
    {
      "t": 67.5,
      "ch": 4,
      "note": 64,
      "vel": 3,
      "dur": 12257
    },
    {
      "t": 67.5,
      "ch": 4,
      "note": 69,
      "vel": 3,
      "dur": 12257
    },
    {
      "t": 67.5,
      "ch": 4,
      "note": 66,
      "vel": 3,
      "dur": 12257
    },
    {
      "t": 67.5,
      "ch": 3,
      "note": 52,
      "vel": 4,
      "dur": 12307
    },
    {
      "t": 69.2,
      "ch": 1,
      "note": 40,
      "vel": 15,
      "dur": 25
    },
    {
      "t": 75.3,
      "ch": 1,
      "note": 42,
      "vel": 55,
      "dur": 25
    },
    {
      "t": 79.9,
      "ch": 4,
      "note": 64,
      "vel": 6,
      "dur": 12257
    },
    {
      "t": 79.9,
      "ch": 4,
      "note": 69,
      "vel": 6,
      "dur": 12257
    },
    {
      "t": 79.9,
      "ch": 4,
      "note": 66,
      "vel": 6,
      "dur": 12257
    },
    {
      "t": 79.9,
      "ch": 3,
      "note": 45,
      "vel": 7,
      "dur": 12307
    },
    {
      "t": 81.5,
      "ch": 1,
      "note": 36,
      "vel": 24,
      "dur": 25
    },
    {
      "t": 81.5,
      "ch": 5,
      "note": 59,
      "vel": 10,
      "dur": 1128
    },
    {
      "t": 87.1,
      "ch": 6,
      "note": 68,
      "vel": 2,
      "dur": 762
    },
    {
      "t": 87.6,
      "ch": 1,
      "note": 38,
      "vel": 37,
      "dur": 25
    },
    {
      "t": 88.8,
      "ch": 5,
      "note": 61,
      "vel": 12,
      "dur": 1152
    },
    {
      "t": 92.2,
      "ch": 2,
      "note": 57,
      "vel": 42,
      "dur": 23076
    },
    {
      "t": 92.2,
      "ch": 2,
      "note": 69,
      "vel": 29,
      "dur": 23076
    },
    {
      "t": 92.2,
      "ch": 4,
      "note": 64,
      "vel": 3,
      "dur": 12257
    },
    {
      "t": 92.2,
      "ch": 4,
      "note": 68,
      "vel": 3,
      "dur": 12257
    },
    {
      "t": 92.2,
      "ch": 4,
      "note": 61,
      "vel": 4,
      "dur": 12257
    },
    {
      "t": 92.2,
      "ch": 3,
      "note": 45,
      "vel": 4,
      "dur": 12307
    },
    {
      "t": 93.8,
      "ch": 1,
      "note": 40,
      "vel": 15,
      "dur": 25
    },
    {
      "t": 98.8,
      "ch": 6,
      "note": 63,
      "vel": 1,
      "dur": 764
    },
    {
      "t": 99.9,
      "ch": 1,
      "note": 42,
      "vel": 33,
      "dur": 25
    },
    {
      "t": 104.5,
      "ch": 2,
      "note": 69,
      "vel": 0,
      "dur": 0
    },
    {
      "t": 104.5,
      "ch": 4,
      "note": 64,
      "vel": 7,
      "dur": 12257
    },
    {
      "t": 104.5,
      "ch": 4,
      "note": 69,
      "vel": 7,
      "dur": 12257
    },
    {
      "t": 104.5,
      "ch": 4,
      "note": 66,
      "vel": 7,
      "dur": 12257
    },
    {
      "t": 104.5,
      "ch": 3,
      "note": 45,
      "vel": 8,
      "dur": 12307
    },
    {
      "t": 106.1,
      "ch": 1,
      "note": 36,
      "vel": 49,
      "dur": 25
    },
    {
      "t": 112.3,
      "ch": 1,
      "note": 38,
      "vel": 28,
      "dur": 25
    },
    {
      "t": 116.8,
      "ch": 2,
      "note": 57,
      "vel": 42,
      "dur": 23076
    },
    {
      "t": 116.8,
      "ch": 4,
      "note": 64,
      "vel": 4,
      "dur": 12257
    },
    {
      "t": 116.8,
      "ch": 4,
      "note": 69,
      "vel": 4,
      "dur": 12257
    },
    {
      "t": 116.8,
      "ch": 4,
      "note": 66,
      "vel": 4,
      "dur": 12257
    },
    {
      "t": 116.8,
      "ch": 3,
      "note": 52,
      "vel": 5,
      "dur": 12307
    },
    {
      "t": 118.4,
      "ch": 1,
      "note": 40,
      "vel": 29,
      "dur": 25
    },
    {
      "t": 124.6,
      "ch": 1,
      "note": 42,
      "vel": 44,
      "dur": 25
    },
    {
      "t": 125.9,
      "ch": 6,
      "note": 64,
      "vel": 5,
      "dur": 740
    },
    {
      "t": 129.1,
      "ch": 2,
      "note": 57,
      "vel": 44,
      "dur": 23076
    },
    {
      "t": 129.1,
      "ch": 2,
      "note": 69,
      "vel": 31,
      "dur": 23076
    },
    {
      "t": 129.1,
      "ch": 4,
      "note": 64,
      "vel": 8,
      "dur": 12257
    },
    {
      "t": 129.1,
      "ch": 4,
      "note": 69,
      "vel": 8,
      "dur": 12257
    },
    {
      "t": 129.1,
      "ch": 4,
      "note": 66,
      "vel": 8,
      "dur": 12257
    },
    {
      "t": 129.1,
      "ch": 3,
      "note": 45,
      "vel": 9,
      "dur": 12307
    },
    {
      "t": 130.7,
      "ch": 1,
      "note": 36,
      "vel": 15,
      "dur": 25
    },
    {
      "t": 130.9,
      "ch": 5,
      "note": 57,
      "vel": 9,
      "dur": 1112
    },
    {
      "t": 136.5,
      "ch": 6,
      "note": 59,
      "vel": 1,
      "dur": 762
    },
    {
      "t": 136.9,
      "ch": 1,
      "note": 38,
      "vel": 38,
      "dur": 25
    },
    {
      "t": 141.4,
      "ch": 2,
      "note": 57,
      "vel": 43,
      "dur": 23076
    },
    {
      "t": 141.4,
      "ch": 4,
      "note": 64,
      "vel": 5,
      "dur": 12257
    },
    {
      "t": 141.4,
      "ch": 4,
      "note": 68,
      "vel": 5,
      "dur": 12257
    },
    {
      "t": 141.4,
      "ch": 4,
      "note": 61,
      "vel": 5,
      "dur": 12257
    },
    {
      "t": 141.4,
      "ch": 3,
      "note": 45,
      "vel": 6,
      "dur": 12307
    },
    {
      "t": 143,
      "ch": 1,
      "note": 40,
      "vel": 38,
      "dur": 25
    },
    {
      "t": 149.2,
      "ch": 1,
      "note": 42,
      "vel": 17,
      "dur": 25
    },
    {
      "t": 153.7,
      "ch": 2,
      "note": 69,
      "vel": 0,
      "dur": 0
    },
    {
      "t": 153.7,
      "ch": 2,
      "note": 57,
      "vel": 44,
      "dur": 23076
    },
    {
      "t": 153.7,
      "ch": 2,
      "note": 68,
      "vel": 31,
      "dur": 23076
    },
    {
      "t": 153.7,
      "ch": 4,
      "note": 64,
      "vel": 8,
      "dur": 12257
    },
    {
      "t": 153.7,
      "ch": 4,
      "note": 69,
      "vel": 8,
      "dur": 12257
    },
    {
      "t": 153.7,
      "ch": 4,
      "note": 66,
      "vel": 8,
      "dur": 12257
    },
    {
      "t": 153.7,
      "ch": 3,
      "note": 45,
      "vel": 10,
      "dur": 12307
    },
    {
      "t": 155.3,
      "ch": 1,
      "note": 36,
      "vel": 15,
      "dur": 25
    },
    {
      "t": 161.5,
      "ch": 1,
      "note": 38,
      "vel": 52,
      "dur": 25
    },
    {
      "t": 166,
      "ch": 2,
      "note": 68,
      "vel": 0,
      "dur": 0
    },
    {
      "t": 166,
      "ch": 2,
      "note": 57,
      "vel": 43,
      "dur": 23076
    },
    {
      "t": 166,
      "ch": 4,
      "note": 65,
      "vel": 6,
      "dur": 3076
    },
    {
      "t": 166,
      "ch": 4,
      "note": 64,
      "vel": 7,
      "dur": 9180
    },
    {
      "t": 166,
      "ch": 4,
      "note": 69,
      "vel": 7,
      "dur": 12257
    },
    {
      "t": 166,
      "ch": 4,
      "note": 66,
      "vel": 7,
      "dur": 12257
    },
    {
      "t": 166,
      "ch": 3,
      "note": 52,
      "vel": 8,
      "dur": 12307
    },
    {
      "t": 167.3,
      "ch": 6,
      "note": 80,
      "vel": 3,
      "dur": 749
    },
    {
      "t": 167.5,
      "ch": 6,
      "note": 76,
      "vel": 1,
      "dur": 749
    },
    {
      "t": 167.6,
      "ch": 1,
      "note": 40,
      "vel": 36,
      "dur": 25
    },
    {
      "t": 167.6,
      "ch": 5,
      "note": 59,
      "vel": 3,
      "dur": 1122
    },
    {
      "t": 168.6,
      "ch": 5,
      "note": 61,
      "vel": 7,
      "dur": 1115
    },
    {
      "t": 173.8,
      "ch": 1,
      "note": 42,
      "vel": 25,
      "dur": 25
    },
    {
      "t": 176.7,
      "ch": 5,
      "note": 57,
      "vel": 11,
      "dur": 1096
    },
    {
      "t": 178.3,
      "ch": 4,
      "note": 64,
      "vel": 9,
      "dur": 12257
    },
    {
      "t": 178.3,
      "ch": 4,
      "note": 69,
      "vel": 9,
      "dur": 12257
    },
    {
      "t": 178.3,
      "ch": 4,
      "note": 66,
      "vel": 9,
      "dur": 12257
    },
    {
      "t": 178.3,
      "ch": 3,
      "note": 45,
      "vel": 11,
      "dur": 12307
    },
    {
      "t": 179.9,
      "ch": 1,
      "note": 36,
      "vel": 19,
      "dur": 25
    },
    {
      "t": 186.1,
      "ch": 1,
      "note": 38,
      "vel": 15,
      "dur": 25
    },
    {
      "t": 186.1,
      "ch": 5,
      "note": 59,
      "vel": 5,
      "dur": 1133
    },
    {
      "t": 186.3,
      "ch": 5,
      "note": 61,
      "vel": 3,
      "dur": 1133
    },
    {
      "t": 189.2,
      "ch": 6,
      "note": 78,
      "vel": 1,
      "dur": 749
    },
    {
      "t": 190.6,
      "ch": 2,
      "note": 57,
      "vel": 44,
      "dur": 23076
    },
    {
      "t": 190.6,
      "ch": 2,
      "note": 69,
      "vel": 31,
      "dur": 23076
    },
    {
      "t": 190.6,
      "ch": 4,
      "note": 65,
      "vel": 7,
      "dur": 3076
    },
    {
      "t": 190.6,
      "ch": 4,
      "note": 64,
      "vel": 9,
      "dur": 9180
    },
    {
      "t": 190.6,
      "ch": 4,
      "note": 68,
      "vel": 8,
      "dur": 12257
    },
    {
      "t": 190.6,
      "ch": 4,
      "note": 61,
      "vel": 9,
      "dur": 12257
    },
    {
      "t": 190.6,
      "ch": 3,
      "note": 45,
      "vel": 10,
      "dur": 12307
    },
    {
      "t": 192.2,
      "ch": 1,
      "note": 40,
      "vel": 51,
      "dur": 25
    },
    {
      "t": 198.4,
      "ch": 1,
      "note": 42,
      "vel": 22,
      "dur": 25
    },
    {
      "t": 202.9,
      "ch": 2,
      "note": 69,
      "vel": 0,
      "dur": 0
    },
    {
      "t": 202.9,
      "ch": 2,
      "note": 57,
      "vel": 45,
      "dur": 23076
    },
    {
      "t": 202.9,
      "ch": 2,
      "note": 68,
      "vel": 31,
      "dur": 23076
    },
    {
      "t": 202.9,
      "ch": 4,
      "note": 64,
      "vel": 9,
      "dur": 12257
    },
    {
      "t": 202.9,
      "ch": 4,
      "note": 69,
      "vel": 9,
      "dur": 12257
    },
    {
      "t": 202.9,
      "ch": 4,
      "note": 66,
      "vel": 9,
      "dur": 12257
    },
    {
      "t": 202.9,
      "ch": 3,
      "note": 45,
      "vel": 10,
      "dur": 12307
    },
    {
      "t": 204.6,
      "ch": 1,
      "note": 36,
      "vel": 45,
      "dur": 25
    },
    {
      "t": 210.7,
      "ch": 1,
      "note": 38,
      "vel": 16,
      "dur": 25
    },
    {
      "t": 215.2,
      "ch": 2,
      "note": 68,
      "vel": 0,
      "dur": 0
    },
    {
      "t": 215.2,
      "ch": 2,
      "note": 57,
      "vel": 45,
      "dur": 23076
    },
    {
      "t": 215.2,
      "ch": 2,
      "note": 69,
      "vel": 31,
      "dur": 23076
    },
    {
      "t": 215.2,
      "ch": 4,
      "note": 64,
      "vel": 9,
      "dur": 12257
    },
    {
      "t": 215.2,
      "ch": 4,
      "note": 69,
      "vel": 10,
      "dur": 12257
    },
    {
      "t": 215.2,
      "ch": 4,
      "note": 66,
      "vel": 10,
      "dur": 12257
    },
    {
      "t": 215.2,
      "ch": 3,
      "note": 52,
      "vel": 11,
      "dur": 12307
    },
    {
      "t": 216.9,
      "ch": 1,
      "note": 40,
      "vel": 27,
      "dur": 25
    },
    {
      "t": 219.2,
      "ch": 5,
      "note": 57,
      "vel": 20,
      "dur": 1083
    },
    {
      "t": 222.3,
      "ch": 5,
      "note": 59,
      "vel": 20,
      "dur": 1084
    },
    {
      "t": 223,
      "ch": 1,
      "note": 42,
      "vel": 15,
      "dur": 25
    },
    {
      "t": 227.5,
      "ch": 2,
      "note": 57,
      "vel": 45,
      "dur": 23076
    },
    {
      "t": 227.5,
      "ch": 2,
      "note": 69,
      "vel": 31,
      "dur": 23076
    },
    {
      "t": 227.5,
      "ch": 4,
      "note": 65,
      "vel": 8,
      "dur": 3076
    },
    {
      "t": 227.5,
      "ch": 4,
      "note": 64,
      "vel": 10,
      "dur": 9180
    },
    {
      "t": 227.5,
      "ch": 4,
      "note": 69,
      "vel": 9,
      "dur": 12257
    },
    {
      "t": 227.5,
      "ch": 4,
      "note": 66,
      "vel": 9,
      "dur": 12257
    },
    {
      "t": 227.5,
      "ch": 3,
      "note": 45,
      "vel": 11,
      "dur": 12307
    },
    {
      "t": 229.2,
      "ch": 1,
      "note": 36,
      "vel": 19,
      "dur": 25
    },
    {
      "t": 235.3,
      "ch": 1,
      "note": 38,
      "vel": 17,
      "dur": 25
    },
    {
      "t": 236.9,
      "ch": 5,
      "note": 61,
      "vel": 4,
      "dur": 1100
    },
    {
      "t": 238.6,
      "ch": 6,
      "note": 69,
      "vel": 1,
      "dur": 726
    },
    {
      "t": 239.8,
      "ch": 5,
      "note": 57,
      "vel": 21,
      "dur": 1082
    },
    {
      "t": 239.9,
      "ch": 2,
      "note": 57,
      "vel": 46,
      "dur": 23076
    },
    {
      "t": 239.9,
      "ch": 2,
      "note": 69,
      "vel": 32,
      "dur": 23076
    },
    {
      "t": 239.9,
      "ch": 4,
      "note": 64,
      "vel": 12,
      "dur": 12257
    },
    {
      "t": 239.9,
      "ch": 4,
      "note": 69,
      "vel": 11,
      "dur": 3076
    },
    {
      "t": 239.9,
      "ch": 4,
      "note": 68,
      "vel": 13,
      "dur": 9180
    },
    {
      "t": 239.9,
      "ch": 4,
      "note": 61,
      "vel": 12,
      "dur": 12257
    },
    {
      "t": 239.9,
      "ch": 3,
      "note": 45,
      "vel": 14,
      "dur": 12307
    },
    {
      "t": 239.9,
      "ch": 7,
      "note": 48,
      "vel": 74,
      "dur": 80
    },
    {
      "t": 240.7,
      "ch": 7,
      "note": 48,
      "vel": 69,
      "dur": 80
    },
    {
      "t": 241.5,
      "ch": 1,
      "note": 40,
      "vel": 25,
      "dur": 25
    },
    {
      "t": 241.5,
      "ch": 7,
      "note": 48,
      "vel": 77,
      "dur": 80
    },
    {
      "t": 242.2,
      "ch": 7,
      "note": 48,
      "vel": 63,
      "dur": 80
    },
    {
      "t": 243,
      "ch": 7,
      "note": 48,
      "vel": 76,
      "dur": 80
    },
    {
      "t": 243.8,
      "ch": 7,
      "note": 48,
      "vel": 75,
      "dur": 80
    },
    {
      "t": 244.6,
      "ch": 7,
      "note": 48,
      "vel": 68,
      "dur": 80
    },
    {
      "t": 245.3,
      "ch": 7,
      "note": 48,
      "vel": 70,
      "dur": 80
    },
    {
      "t": 245.5,
      "ch": 6,
      "note": 75,
      "vel": 1,
      "dur": 716
    },
    {
      "t": 246.1,
      "ch": 7,
      "note": 48,
      "vel": 76,
      "dur": 80
    },
    {
      "t": 246.9,
      "ch": 7,
      "note": 48,
      "vel": 71,
      "dur": 80
    },
    {
      "t": 247.6,
      "ch": 1,
      "note": 42,
      "vel": 19,
      "dur": 25
    },
    {
      "t": 247.6,
      "ch": 7,
      "note": 48,
      "vel": 74,
      "dur": 80
    },
    {
      "t": 248.4,
      "ch": 7,
      "note": 48,
      "vel": 68,
      "dur": 80
    },
    {
      "t": 249.2,
      "ch": 7,
      "note": 48,
      "vel": 55,
      "dur": 80
    },
    {
      "t": 249.9,
      "ch": 7,
      "note": 48,
      "vel": 64,
      "dur": 80
    },
    {
      "t": 250.7,
      "ch": 7,
      "note": 48,
      "vel": 86,
      "dur": 80
    },
    {
      "t": 252.2,
      "ch": 2,
      "note": 69,
      "vel": 0,
      "dur": 0
    },
    {
      "t": 252.2,
      "ch": 2,
      "note": 57,
      "vel": 45,
      "dur": 23076
    },
    {
      "t": 252.2,
      "ch": 4,
      "note": 64,
      "vel": 10,
      "dur": 12257
    },
    {
      "t": 252.2,
      "ch": 4,
      "note": 69,
      "vel": 10,
      "dur": 12257
    },
    {
      "t": 252.2,
      "ch": 4,
      "note": 66,
      "vel": 10,
      "dur": 12257
    },
    {
      "t": 252.2,
      "ch": 3,
      "note": 45,
      "vel": 12,
      "dur": 12307
    },
    {
      "t": 253.6,
      "ch": 5,
      "note": 59,
      "vel": 2,
      "dur": 1110
    },
    {
      "t": 253.8,
      "ch": 1,
      "note": 36,
      "vel": 34,
      "dur": 25
    },
    {
      "t": 257.6,
      "ch": 7,
      "note": 48,
      "vel": 68,
      "dur": 80
    },
    {
      "t": 258.4,
      "ch": 7,
      "note": 48,
      "vel": 79,
      "dur": 80
    },
    {
      "t": 259.2,
      "ch": 7,
      "note": 48,
      "vel": 72,
      "dur": 80
    },
    {
      "t": 259.9,
      "ch": 1,
      "note": 38,
      "vel": 20,
      "dur": 25
    },
    {
      "t": 259.9,
      "ch": 7,
      "note": 48,
      "vel": 65,
      "dur": 80
    },
    {
      "t": 260.7,
      "ch": 7,
      "note": 48,
      "vel": 71,
      "dur": 80
    },
    {
      "t": 261.3,
      "ch": 4,
      "note": 64,
      "vel": 13,
      "dur": 6103
    },
    {
      "t": 261.3,
      "ch": 4,
      "note": 70,
      "vel": 12,
      "dur": 3076
    },
    {
      "t": 261.3,
      "ch": 4,
      "note": 69,
      "vel": 13,
      "dur": 3026
    },
    {
      "t": 261.3,
      "ch": 4,
      "note": 66,
      "vel": 13,
      "dur": 6103
    },
    {
      "t": 261.3,
      "ch": 3,
      "note": 52,
      "vel": 15,
      "dur": 6153
    },
    {
      "t": 261.5,
      "ch": 7,
      "note": 48,
      "vel": 64,
      "dur": 80
    },
    {
      "t": 262.1,
      "ch": 5,
      "note": 61,
      "vel": 9,
      "dur": 1074
    },
    {
      "t": 262.2,
      "ch": 7,
      "note": 48,
      "vel": 67,
      "dur": 80
    },
    {
      "t": 263,
      "ch": 7,
      "note": 48,
      "vel": 64,
      "dur": 80
    },
    {
      "t": 263.4,
      "ch": 5,
      "note": 66,
      "vel": 7,
      "dur": 1066
    },
    {
      "t": 263.8,
      "ch": 7,
      "note": 48,
      "vel": 72,
      "dur": 80
    },
    {
      "t": 264.5,
      "ch": 4,
      "note": 65,
      "vel": 14,
      "dur": 3076
    },
    {
      "t": 264.5,
      "ch": 4,
      "note": 64,
      "vel": 15,
      "dur": 3026
    },
    {
      "t": 264.5,
      "ch": 4,
      "note": 66,
      "vel": 15,
      "dur": 6103
    },
    {
      "t": 264.5,
      "ch": 4,
      "note": 59,
      "vel": 14,
      "dur": 6103
    },
    {
      "t": 264.5,
      "ch": 3,
      "note": 47,
      "vel": 17,
      "dur": 6153
    },
    {
      "t": 264.6,
      "ch": 7,
      "note": 48,
      "vel": 75,
      "dur": 80
    },
    {
      "t": 265.3,
      "ch": 7,
      "note": 48,
      "vel": 74,
      "dur": 80
    },
    {
      "t": 266.1,
      "ch": 1,
      "note": 40,
      "vel": 24,
      "dur": 25
    },
    {
      "t": 266.1,
      "ch": 7,
      "note": 48,
      "vel": 71,
      "dur": 80
    },
    {
      "t": 266.9,
      "ch": 7,
      "note": 48,
      "vel": 81,
      "dur": 80
    },
    {
      "t": 267.6,
      "ch": 7,
      "note": 48,
      "vel": 68,
      "dur": 80
    },
    {
      "t": 267.8,
      "ch": 5,
      "note": 69,
      "vel": 1,
      "dur": 1060
    },
    {
      "t": 268.4,
      "ch": 7,
      "note": 48,
      "vel": 75,
      "dur": 80
    },
    {
      "t": 269.2,
      "ch": 7,
      "note": 48,
      "vel": 74,
      "dur": 80
    },
    {
      "t": 269.2,
      "ch": 5,
      "note": 66,
      "vel": 1,
      "dur": 1064
    },
    {
      "t": 269.9,
      "ch": 7,
      "note": 48,
      "vel": 64,
      "dur": 80
    },
    {
      "t": 270.6,
      "ch": 4,
      "note": 64,
      "vel": 15,
      "dur": 6103
    },
    {
      "t": 270.6,
      "ch": 4,
      "note": 67,
      "vel": 13,
      "dur": 3076
    },
    {
      "t": 270.6,
      "ch": 4,
      "note": 66,
      "vel": 13,
      "dur": 3026
    },
    {
      "t": 270.6,
      "ch": 4,
      "note": 69,
      "vel": 15,
      "dur": 6103
    },
    {
      "t": 270.6,
      "ch": 3,
      "note": 52,
      "vel": 16,
      "dur": 6153
    },
    {
      "t": 270.7,
      "ch": 7,
      "note": 48,
      "vel": 74,
      "dur": 80
    },
    {
      "t": 271.5,
      "ch": 7,
      "note": 48,
      "vel": 73,
      "dur": 80
    },
    {
      "t": 272.2,
      "ch": 1,
      "note": 42,
      "vel": 35,
      "dur": 25
    },
    {
      "t": 272.2,
      "ch": 7,
      "note": 48,
      "vel": 66,
      "dur": 80
    },
    {
      "t": 273,
      "ch": 7,
      "note": 48,
      "vel": 73,
      "dur": 80
    },
    {
      "t": 273.8,
      "ch": 7,
      "note": 48,
      "vel": 62,
      "dur": 80
    },
    {
      "t": 274.6,
      "ch": 7,
      "note": 48,
      "vel": 66,
      "dur": 80
    },
    {
      "t": 275.3,
      "ch": 7,
      "note": 48,
      "vel": 62,
      "dur": 80
    },
    {
      "t": 275.5,
      "ch": 5,
      "note": 66,
      "vel": 7,
      "dur": 1096
    },
    {
      "t": 276.1,
      "ch": 7,
      "note": 48,
      "vel": 71,
      "dur": 80
    },
    {
      "t": 276.3,
      "ch": 5,
      "note": 69,
      "vel": 4,
      "dur": 1098
    },
    {
      "t": 276.8,
      "ch": 2,
      "note": 57,
      "vel": 46,
      "dur": 23076
    },
    {
      "t": 276.8,
      "ch": 2,
      "note": 69,
      "vel": 32,
      "dur": 23076
    },
    {
      "t": 276.9,
      "ch": 7,
      "note": 48,
      "vel": 65,
      "dur": 80
    },
    {
      "t": 277.6,
      "ch": 7,
      "note": 48,
      "vel": 68,
      "dur": 80
    },
    {
      "t": 278.4,
      "ch": 1,
      "note": 36,
      "vel": 20,
      "dur": 25
    },
    {
      "t": 278.4,
      "ch": 7,
      "note": 48,
      "vel": 76,
      "dur": 80
    },
    {
      "t": 279.2,
      "ch": 7,
      "note": 48,
      "vel": 57,
      "dur": 80
    },
    {
      "t": 279.9,
      "ch": 7,
      "note": 48,
      "vel": 68,
      "dur": 80
    },
    {
      "t": 280.7,
      "ch": 7,
      "note": 48,
      "vel": 68,
      "dur": 80
    },
    {
      "t": 281.5,
      "ch": 7,
      "note": 48,
      "vel": 57,
      "dur": 80
    },
    {
      "t": 281.7,
      "ch": 4,
      "note": 64,
      "vel": 13,
      "dur": 6103
    },
    {
      "t": 281.7,
      "ch": 4,
      "note": 66,
      "vel": 13,
      "dur": 6103
    },
    {
      "t": 281.7,
      "ch": 4,
      "note": 70,
      "vel": 12,
      "dur": 3076
    },
    {
      "t": 281.7,
      "ch": 4,
      "note": 69,
      "vel": 14,
      "dur": 3026
    },
    {
      "t": 281.7,
      "ch": 3,
      "note": 45,
      "vel": 15,
      "dur": 6153
    },
    {
      "t": 282.1,
      "ch": 5,
      "note": 66,
      "vel": 4,
      "dur": 1083
    },
    {
      "t": 282.2,
      "ch": 7,
      "note": 48,
      "vel": 66,
      "dur": 80
    },
    {
      "t": 282.6,
      "ch": 5,
      "note": 66,
      "vel": 9,
      "dur": 1079
    },
    {
      "t": 283,
      "ch": 7,
      "note": 48,
      "vel": 73,
      "dur": 80
    },
    {
      "t": 283,
      "ch": 5,
      "note": 69,
      "vel": 3,
      "dur": 1076
    },
    {
      "t": 283.8,
      "ch": 7,
      "note": 48,
      "vel": 67,
      "dur": 80
    },
    {
      "t": 284,
      "ch": 5,
      "note": 66,
      "vel": 1,
      "dur": 1070
    },
    {
      "t": 284.6,
      "ch": 1,
      "note": 38,
      "vel": 36,
      "dur": 25
    },
    {
      "t": 284.6,
      "ch": 7,
      "note": 48,
      "vel": 65,
      "dur": 80
    },
    {
      "t": 284.9,
      "ch": 1,
      "note": 40,
      "vel": 57,
      "dur": 25
    },
    {
      "t": 284.9,
      "ch": 1,
      "note": 42,
      "vel": 19,
      "dur": 25
    },
    {
      "t": 284.9,
      "ch": 1,
      "note": 36,
      "vel": 64,
      "dur": 25
    },
    {
      "t": 284.9,
      "ch": 1,
      "note": 38,
      "vel": 40,
      "dur": 25
    },
    {
      "t": 284.9,
      "ch": 1,
      "note": 40,
      "vel": 43,
      "dur": 25
    },
    {
      "t": 284.9,
      "ch": 1,
      "note": 42,
      "vel": 54,
      "dur": 25
    },
    {
      "t": 284.9,
      "ch": 1,
      "note": 36,
      "vel": 48,
      "dur": 25
    },
    {
      "t": 284.9,
      "ch": 1,
      "note": 38,
      "vel": 44,
      "dur": 25
    },
    {
      "t": 284.9,
      "ch": 1,
      "note": 40,
      "vel": 22,
      "dur": 25
    },
    {
      "t": 284.9,
      "ch": 1,
      "note": 42,
      "vel": 37,
      "dur": 25
    },
    {
      "t": 284.9,
      "ch": 1,
      "note": 36,
      "vel": 55,
      "dur": 25
    },
    {
      "t": 284.9,
      "ch": 1,
      "note": 38,
      "vel": 36,
      "dur": 25
    },
    {
      "t": 284.9,
      "ch": 1,
      "note": 40,
      "vel": 44,
      "dur": 25
    },
    {
      "t": 284.9,
      "ch": 1,
      "note": 42,
      "vel": 35,
      "dur": 25
    },
    {
      "t": 284.9,
      "ch": 1,
      "note": 36,
      "vel": 24,
      "dur": 25
    },
    {
      "t": 284.9,
      "ch": 1,
      "note": 38,
      "vel": 28,
      "dur": 25
    },
    {
      "t": 284.9,
      "ch": 1,
      "note": 40,
      "vel": 32,
      "dur": 25
    },
    {
      "t": 284.9,
      "ch": 1,
      "note": 42,
      "vel": 41,
      "dur": 25
    },
    {
      "t": 284.9,
      "ch": 1,
      "note": 36,
      "vel": 37,
      "dur": 25
    },
    {
      "t": 284.9,
      "ch": 1,
      "note": 38,
      "vel": 33,
      "dur": 25
    },
    {
      "t": 284.9,
      "ch": 1,
      "note": 40,
      "vel": 17,
      "dur": 25
    },
    {
      "t": 284.9,
      "ch": 1,
      "note": 42,
      "vel": 46,
      "dur": 25
    },
    {
      "t": 284.9,
      "ch": 1,
      "note": 36,
      "vel": 24,
      "dur": 25
    },
    {
      "t": 284.9,
      "ch": 1,
      "note": 38,
      "vel": 32,
      "dur": 25
    },
    {
      "t": 284.9,
      "ch": 1,
      "note": 40,
      "vel": 35,
      "dur": 25
    },
    {
      "t": 284.9,
      "ch": 1,
      "note": 42,
      "vel": 53,
      "dur": 25
    },
    {
      "t": 284.9,
      "ch": 1,
      "note": 36,
      "vel": 28,
      "dur": 25
    },
    {
      "t": 284.9,
      "ch": 1,
      "note": 38,
      "vel": 42,
      "dur": 25
    },
    {
      "t": 284.9,
      "ch": 1,
      "note": 40,
      "vel": 56,
      "dur": 25
    },
    {
      "t": 284.9,
      "ch": 1,
      "note": 42,
      "vel": 33,
      "dur": 25
    },
    {
      "t": 284.9,
      "ch": 1,
      "note": 36,
      "vel": 50,
      "dur": 25
    },
    {
      "t": 284.9,
      "ch": 1,
      "note": 38,
      "vel": 43,
      "dur": 25
    },
    {
      "t": 284.9,
      "ch": 1,
      "note": 40,
      "vel": 44,
      "dur": 25
    },
    {
      "t": 284.9,
      "ch": 1,
      "note": 42,
      "vel": 38,
      "dur": 25
    },
    {
      "t": 284.9,
      "ch": 1,
      "note": 36,
      "vel": 54,
      "dur": 25
    },
    {
      "t": 284.9,
      "ch": 1,
      "note": 38,
      "vel": 34,
      "dur": 25
    },
    {
      "t": 284.9,
      "ch": 1,
      "note": 40,
      "vel": 37,
      "dur": 25
    },
    {
      "t": 284.9,
      "ch": 1,
      "note": 42,
      "vel": 27,
      "dur": 25
    },
    {
      "t": 284.9,
      "ch": 1,
      "note": 36,
      "vel": 37,
      "dur": 25
    },
    {
      "t": 284.9,
      "ch": 1,
      "note": 38,
      "vel": 48,
      "dur": 25
    },
    {
      "t": 284.9,
      "ch": 1,
      "note": 40,
      "vel": 58,
      "dur": 25
    },
    {
      "t": 284.9,
      "ch": 1,
      "note": 42,
      "vel": 58,
      "dur": 25
    },
    {
      "t": 284.9,
      "ch": 1,
      "note": 36,
      "vel": 36,
      "dur": 25
    },
    {
      "t": 284.9,
      "ch": 1,
      "note": 38,
      "vel": 62,
      "dur": 25
    },
    {
      "t": 284.9,
      "ch": 1,
      "note": 40,
      "vel": 30,
      "dur": 25
    },
    {
      "t": 284.9,
      "ch": 1,
      "note": 42,
      "vel": 20,
      "dur": 25
    },
    {
      "t": 284.9,
      "ch": 1,
      "note": 36,
      "vel": 67,
      "dur": 25
    },
    {
      "t": 284.9,
      "ch": 1,
      "note": 38,
      "vel": 37,
      "dur": 25
    },
    {
      "t": 284.9,
      "ch": 1,
      "note": 40,
      "vel": 41,
      "dur": 25
    },
    {
      "t": 284.9,
      "ch": 1,
      "note": 42,
      "vel": 49,
      "dur": 25
    },
    {
      "t": 284.9,
      "ch": 1,
      "note": 36,
      "vel": 35,
      "dur": 25
    },
    {
      "t": 284.9,
      "ch": 1,
      "note": 38,
      "vel": 23,
      "dur": 25
    },
    {
      "t": 284.9,
      "ch": 1,
      "note": 40,
      "vel": 17,
      "dur": 25
    },
    {
      "t": 284.9,
      "ch": 1,
      "note": 42,
      "vel": 27,
      "dur": 25
    },
    {
      "t": 284.9,
      "ch": 1,
      "note": 36,
      "vel": 34,
      "dur": 25
    },
    {
      "t": 284.9,
      "ch": 1,
      "note": 38,
      "vel": 24,
      "dur": 25
    },
    {
      "t": 284.9,
      "ch": 1,
      "note": 40,
      "vel": 46,
      "dur": 25
    },
    {
      "t": 284.9,
      "ch": 1,
      "note": 42,
      "vel": 38,
      "dur": 25
    },
    {
      "t": 284.9,
      "ch": 1,
      "note": 36,
      "vel": 50,
      "dur": 25
    },
    {
      "t": 284.9,
      "ch": 1,
      "note": 38,
      "vel": 27,
      "dur": 25
    },
    {
      "t": 284.9,
      "ch": 1,
      "note": 40,
      "vel": 27,
      "dur": 25
    },
    {
      "t": 284.9,
      "ch": 1,
      "note": 42,
      "vel": 34,
      "dur": 25
    },
    {
      "t": 284.9,
      "ch": 1,
      "note": 36,
      "vel": 65,
      "dur": 25
    },
    {
      "t": 284.9,
      "ch": 1,
      "note": 38,
      "vel": 40,
      "dur": 25
    },
    {
      "t": 284.9,
      "ch": 1,
      "note": 40,
      "vel": 28,
      "dur": 25
    },
    {
      "t": 284.9,
      "ch": 1,
      "note": 42,
      "vel": 55,
      "dur": 25
    },
    {
      "t": 284.9,
      "ch": 1,
      "note": 36,
      "vel": 27,
      "dur": 25
    },
    {
      "t": 284.9,
      "ch": 1,
      "note": 38,
      "vel": 38,
      "dur": 25
    },
    {
      "t": 284.9,
      "ch": 1,
      "note": 40,
      "vel": 49,
      "dur": 25
    },
    {
      "t": 284.9,
      "ch": 1,
      "note": 42,
      "vel": 41,
      "dur": 25
    },
    {
      "t": 284.9,
      "ch": 1,
      "note": 36,
      "vel": 44,
      "dur": 25
    },
    {
      "t": 284.9,
      "ch": 1,
      "note": 38,
      "vel": 31,
      "dur": 25
    },
    {
      "t": 284.9,
      "ch": 1,
      "note": 40,
      "vel": 36,
      "dur": 25
    },
    {
      "t": 284.9,
      "ch": 1,
      "note": 42,
      "vel": 30,
      "dur": 25
    },
    {
      "t": 284.9,
      "ch": 1,
      "note": 36,
      "vel": 62,
      "dur": 25
    },
    {
      "t": 284.9,
      "ch": 1,
      "note": 38,
      "vel": 39,
      "dur": 25
    },
    {
      "t": 284.9,
      "ch": 1,
      "note": 40,
      "vel": 51,
      "dur": 25
    },
    {
      "t": 284.9,
      "ch": 1,
      "note": 42,
      "vel": 42,
      "dur": 25
    },
    {
      "t": 284.9,
      "ch": 1,
      "note": 36,
      "vel": 57,
      "dur": 25
    },
    {
      "t": 284.9,
      "ch": 1,
      "note": 38,
      "vel": 57,
      "dur": 25
    },
    {
      "t": 284.9,
      "ch": 1,
      "note": 40,
      "vel": 43,
      "dur": 25
    },
    {
      "t": 284.9,
      "ch": 1,
      "note": 42,
      "vel": 50,
      "dur": 25
    },
    {
      "t": 284.9,
      "ch": 1,
      "note": 36,
      "vel": 47,
      "dur": 25
    },
    {
      "t": 284.9,
      "ch": 1,
      "note": 38,
      "vel": 37,
      "dur": 25
    },
    {
      "t": 284.9,
      "ch": 1,
      "note": 40,
      "vel": 42,
      "dur": 25
    },
    {
      "t": 284.9,
      "ch": 1,
      "note": 42,
      "vel": 36,
      "dur": 25
    },
    {
      "t": 284.9,
      "ch": 1,
      "note": 36,
      "vel": 54,
      "dur": 25
    },
    {
      "t": 284.9,
      "ch": 1,
      "note": 38,
      "vel": 67,
      "dur": 25
    },
    {
      "t": 284.9,
      "ch": 1,
      "note": 40,
      "vel": 22,
      "dur": 25
    },
    {
      "t": 284.9,
      "ch": 1,
      "note": 42,
      "vel": 46,
      "dur": 25
    },
    {
      "t": 284.9,
      "ch": 1,
      "note": 36,
      "vel": 62,
      "dur": 25
    },
    {
      "t": 284.9,
      "ch": 1,
      "note": 38,
      "vel": 55,
      "dur": 25
    },
    {
      "t": 284.9,
      "ch": 1,
      "note": 40,
      "vel": 40,
      "dur": 25
    },
    {
      "t": 284.9,
      "ch": 1,
      "note": 42,
      "vel": 42,
      "dur": 25
    },
    {
      "t": 284.9,
      "ch": 1,
      "note": 36,
      "vel": 34,
      "dur": 25
    },
    {
      "t": 284.9,
      "ch": 1,
      "note": 38,
      "vel": 37,
      "dur": 25
    },
    {
      "t": 284.9,
      "ch": 1,
      "note": 40,
      "vel": 49,
      "dur": 25
    },
    {
      "t": 284.9,
      "ch": 1,
      "note": 42,
      "vel": 19,
      "dur": 25
    },
    {
      "t": 284.9,
      "ch": 1,
      "note": 36,
      "vel": 50,
      "dur": 25
    },
    {
      "t": 284.9,
      "ch": 1,
      "note": 38,
      "vel": 40,
      "dur": 25
    },
    {
      "t": 284.9,
      "ch": 1,
      "note": 40,
      "vel": 50,
      "dur": 25
    },
    {
      "t": 284.9,
      "ch": 1,
      "note": 42,
      "vel": 52,
      "dur": 25
    },
    {
      "t": 284.9,
      "ch": 1,
      "note": 36,
      "vel": 20,
      "dur": 25
    },
    {
      "t": 284.9,
      "ch": 1,
      "note": 38,
      "vel": 59,
      "dur": 25
    },
    {
      "t": 284.9,
      "ch": 1,
      "note": 40,
      "vel": 18,
      "dur": 25
    },
    {
      "t": 284.9,
      "ch": 1,
      "note": 42,
      "vel": 44,
      "dur": 25
    },
    {
      "t": 284.9,
      "ch": 1,
      "note": 36,
      "vel": 66,
      "dur": 25
    },
    {
      "t": 284.9,
      "ch": 1,
      "note": 38,
      "vel": 49,
      "dur": 25
    },
    {
      "t": 284.9,
      "ch": 1,
      "note": 40,
      "vel": 21,
      "dur": 25
    },
    {
      "t": 284.9,
      "ch": 1,
      "note": 42,
      "vel": 19,
      "dur": 25
    },
    {
      "t": 284.9,
      "ch": 1,
      "note": 36,
      "vel": 40,
      "dur": 25
    },
    {
      "t": 284.9,
      "ch": 1,
      "note": 38,
      "vel": 47,
      "dur": 25
    },
    {
      "t": 284.9,
      "ch": 1,
      "note": 40,
      "vel": 48,
      "dur": 25
    },
    {
      "t": 284.9,
      "ch": 1,
      "note": 42,
      "vel": 52,
      "dur": 25
    },
    {
      "t": 284.9,
      "ch": 1,
      "note": 36,
      "vel": 66,
      "dur": 25
    },
    {
      "t": 284.9,
      "ch": 1,
      "note": 38,
      "vel": 48,
      "dur": 25
    },
    {
      "t": 284.9,
      "ch": 1,
      "note": 40,
      "vel": 61,
      "dur": 25
    },
    {
      "t": 284.9,
      "ch": 1,
      "note": 42,
      "vel": 44,
      "dur": 25
    },
    {
      "t": 284.9,
      "ch": 1,
      "note": 36,
      "vel": 46,
      "dur": 25
    },
    {
      "t": 284.9,
      "ch": 1,
      "note": 38,
      "vel": 50,
      "dur": 25
    },
    {
      "t": 284.9,
      "ch": 1,
      "note": 40,
      "vel": 64,
      "dur": 25
    },
    {
      "t": 284.9,
      "ch": 1,
      "note": 42,
      "vel": 50,
      "dur": 25
    },
    {
      "t": 284.9,
      "ch": 1,
      "note": 36,
      "vel": 37,
      "dur": 25
    },
    {
      "t": 284.9,
      "ch": 1,
      "note": 38,
      "vel": 43,
      "dur": 25
    },
    {
      "t": 284.9,
      "ch": 1,
      "note": 40,
      "vel": 28,
      "dur": 25
    },
    {
      "t": 284.9,
      "ch": 1,
      "note": 42,
      "vel": 40,
      "dur": 25
    },
    {
      "t": 284.9,
      "ch": 1,
      "note": 36,
      "vel": 45,
      "dur": 25
    },
    {
      "t": 284.9,
      "ch": 1,
      "note": 38,
      "vel": 48,
      "dur": 25
    },
    {
      "t": 284.9,
      "ch": 1,
      "note": 40,
      "vel": 35,
      "dur": 25
    },
    {
      "t": 284.9,
      "ch": 1,
      "note": 42,
      "vel": 52,
      "dur": 25
    },
    {
      "t": 284.9,
      "ch": 1,
      "note": 36,
      "vel": 48,
      "dur": 25
    },
    {
      "t": 284.9,
      "ch": 1,
      "note": 38,
      "vel": 48,
      "dur": 25
    },
    {
      "t": 284.9,
      "ch": 1,
      "note": 40,
      "vel": 31,
      "dur": 25
    },
    {
      "t": 284.9,
      "ch": 1,
      "note": 42,
      "vel": 37,
      "dur": 25
    },
    {
      "t": 284.9,
      "ch": 1,
      "note": 36,
      "vel": 48,
      "dur": 25
    },
    {
      "t": 284.9,
      "ch": 1,
      "note": 38,
      "vel": 53,
      "dur": 25
    },
    {
      "t": 284.9,
      "ch": 1,
      "note": 40,
      "vel": 41,
      "dur": 25
    },
    {
      "t": 284.9,
      "ch": 1,
      "note": 42,
      "vel": 64,
      "dur": 25
    },
    {
      "t": 284.9,
      "ch": 1,
      "note": 36,
      "vel": 49,
      "dur": 25
    },
    {
      "t": 284.9,
      "ch": 1,
      "note": 38,
      "vel": 42,
      "dur": 25
    },
    {
      "t": 284.9,
      "ch": 1,
      "note": 40,
      "vel": 48,
      "dur": 25
    },
    {
      "t": 284.9,
      "ch": 1,
      "note": 42,
      "vel": 70,
      "dur": 25
    },
    {
      "t": 284.9,
      "ch": 1,
      "note": 36,
      "vel": 36,
      "dur": 25
    },
    {
      "t": 284.9,
      "ch": 1,
      "note": 38,
      "vel": 40,
      "dur": 25
    },
    {
      "t": 284.9,
      "ch": 1,
      "note": 40,
      "vel": 34,
      "dur": 25
    },
    {
      "t": 284.9,
      "ch": 1,
      "note": 42,
      "vel": 48,
      "dur": 25
    },
    {
      "t": 284.9,
      "ch": 1,
      "note": 36,
      "vel": 44,
      "dur": 25
    },
    {
      "t": 284.9,
      "ch": 1,
      "note": 38,
      "vel": 37,
      "dur": 25
    },
    {
      "t": 284.9,
      "ch": 1,
      "note": 40,
      "vel": 47,
      "dur": 25
    },
    {
      "t": 284.9,
      "ch": 1,
      "note": 42,
      "vel": 67,
      "dur": 25
    },
    {
      "t": 284.9,
      "ch": 1,
      "note": 36,
      "vel": 50,
      "dur": 25
    },
    {
      "t": 284.9,
      "ch": 1,
      "note": 38,
      "vel": 35,
      "dur": 25
    },
    {
      "t": 284.9,
      "ch": 1,
      "note": 40,
      "vel": 38,
      "dur": 25
    },
    {
      "t": 284.9,
      "ch": 1,
      "note": 42,
      "vel": 54,
      "dur": 25
    },
    {
      "t": 284.9,
      "ch": 1,
      "note": 36,
      "vel": 31,
      "dur": 25
    },
    {
      "t": 284.9,
      "ch": 1,
      "note": 38,
      "vel": 51,
      "dur": 25
    },
    {
      "t": 284.9,
      "ch": 1,
      "note": 40,
      "vel": 52,
      "dur": 25
    },
    {
      "t": 284.9,
      "ch": 1,
      "note": 42,
      "vel": 32,
      "dur": 25
    },
    {
      "t": 284.9,
      "ch": 1,
      "note": 36,
      "vel": 36,
      "dur": 25
    },
    {
      "t": 284.9,
      "ch": 1,
      "note": 38,
      "vel": 44,
      "dur": 25
    },
    {
      "t": 284.9,
      "ch": 1,
      "note": 40,
      "vel": 34,
      "dur": 25
    },
    {
      "t": 284.9,
      "ch": 1,
      "note": 42,
      "vel": 44,
      "dur": 25
    },
    {
      "t": 284.9,
      "ch": 1,
      "note": 36,
      "vel": 48,
      "dur": 25
    },
    {
      "t": 284.9,
      "ch": 1,
      "note": 38,
      "vel": 57,
      "dur": 25
    },
    {
      "t": 284.9,
      "ch": 1,
      "note": 40,
      "vel": 38,
      "dur": 25
    },
    {
      "t": 284.9,
      "ch": 1,
      "note": 42,
      "vel": 46,
      "dur": 25
    },
    {
      "t": 284.9,
      "ch": 1,
      "note": 36,
      "vel": 45,
      "dur": 25
    },
    {
      "t": 284.9,
      "ch": 1,
      "note": 38,
      "vel": 29,
      "dur": 25
    },
    {
      "t": 284.9,
      "ch": 1,
      "note": 40,
      "vel": 45,
      "dur": 25
    },
    {
      "t": 284.9,
      "ch": 1,
      "note": 42,
      "vel": 39,
      "dur": 25
    },
    {
      "t": 284.9,
      "ch": 1,
      "note": 36,
      "vel": 39,
      "dur": 25
    },
    {
      "t": 284.9,
      "ch": 1,
      "note": 38,
      "vel": 33,
      "dur": 25
    },
    {
      "t": 284.9,
      "ch": 1,
      "note": 40,
      "vel": 36,
      "dur": 25
    },
    {
      "t": 284.9,
      "ch": 1,
      "note": 42,
      "vel": 48,
      "dur": 25
    },
    {
      "t": 284.9,
      "ch": 1,
      "note": 36,
      "vel": 48,
      "dur": 25
    },
    {
      "t": 284.9,
      "ch": 1,
      "note": 38,
      "vel": 62,
      "dur": 25
    },
    {
      "t": 284.9,
      "ch": 1,
      "note": 40,
      "vel": 50,
      "dur": 25
    },
    {
      "t": 284.9,
      "ch": 1,
      "note": 42,
      "vel": 37,
      "dur": 25
    },
    {
      "t": 284.9,
      "ch": 1,
      "note": 36,
      "vel": 34,
      "dur": 25
    },
    {
      "t": 284.9,
      "ch": 1,
      "note": 38,
      "vel": 30,
      "dur": 25
    },
    {
      "t": 284.9,
      "ch": 1,
      "note": 40,
      "vel": 38,
      "dur": 25
    },
    {
      "t": 284.9,
      "ch": 1,
      "note": 42,
      "vel": 56,
      "dur": 25
    },
    {
      "t": 284.9,
      "ch": 1,
      "note": 36,
      "vel": 65,
      "dur": 25
    },
    {
      "t": 284.9,
      "ch": 1,
      "note": 38,
      "vel": 45,
      "dur": 25
    },
    {
      "t": 284.9,
      "ch": 1,
      "note": 40,
      "vel": 48,
      "dur": 25
    },
    {
      "t": 284.9,
      "ch": 1,
      "note": 42,
      "vel": 56,
      "dur": 25
    },
    {
      "t": 284.9,
      "ch": 1,
      "note": 36,
      "vel": 29,
      "dur": 25
    },
    {
      "t": 284.9,
      "ch": 1,
      "note": 38,
      "vel": 56,
      "dur": 25
    },
    {
      "t": 284.9,
      "ch": 1,
      "note": 40,
      "vel": 28,
      "dur": 25
    },
    {
      "t": 284.9,
      "ch": 1,
      "note": 42,
      "vel": 44,
      "dur": 25
    },
    {
      "t": 284.9,
      "ch": 1,
      "note": 36,
      "vel": 37,
      "dur": 25
    },
    {
      "t": 284.9,
      "ch": 1,
      "note": 38,
      "vel": 33,
      "dur": 25
    },
    {
      "t": 284.9,
      "ch": 1,
      "note": 40,
      "vel": 39,
      "dur": 25
    },
    {
      "t": 284.9,
      "ch": 1,
      "note": 42,
      "vel": 51,
      "dur": 25
    },
    {
      "t": 284.9,
      "ch": 1,
      "note": 36,
      "vel": 34,
      "dur": 25
    },
    {
      "t": 284.9,
      "ch": 1,
      "note": 38,
      "vel": 33,
      "dur": 25
    },
    {
      "t": 284.9,
      "ch": 1,
      "note": 40,
      "vel": 46,
      "dur": 25
    },
    {
      "t": 284.9,
      "ch": 1,
      "note": 42,
      "vel": 31,
      "dur": 25
    },
    {
      "t": 284.9,
      "ch": 1,
      "note": 36,
      "vel": 60,
      "dur": 25
    },
    {
      "t": 284.9,
      "ch": 1,
      "note": 38,
      "vel": 51,
      "dur": 25
    },
    {
      "t": 284.9,
      "ch": 1,
      "note": 40,
      "vel": 60,
      "dur": 25
    },
    {
      "t": 284.9,
      "ch": 1,
      "note": 42,
      "vel": 47,
      "dur": 25
    },
    {
      "t": 284.9,
      "ch": 1,
      "note": 36,
      "vel": 36,
      "dur": 25
    },
    {
      "t": 284.9,
      "ch": 1,
      "note": 38,
      "vel": 39,
      "dur": 25
    },
    {
      "t": 284.9,
      "ch": 1,
      "note": 40,
      "vel": 63,
      "dur": 25
    },
    {
      "t": 284.9,
      "ch": 1,
      "note": 42,
      "vel": 53,
      "dur": 25
    },
    {
      "t": 284.9,
      "ch": 1,
      "note": 36,
      "vel": 36,
      "dur": 25
    },
    {
      "t": 284.9,
      "ch": 1,
      "note": 38,
      "vel": 32,
      "dur": 25
    },
    {
      "t": 284.9,
      "ch": 1,
      "note": 40,
      "vel": 32,
      "dur": 25
    },
    {
      "t": 284.9,
      "ch": 1,
      "note": 42,
      "vel": 53,
      "dur": 25
    },
    {
      "t": 284.9,
      "ch": 1,
      "note": 36,
      "vel": 49,
      "dur": 25
    },
    {
      "t": 284.9,
      "ch": 1,
      "note": 38,
      "vel": 49,
      "dur": 25
    },
    {
      "t": 284.9,
      "ch": 1,
      "note": 40,
      "vel": 49,
      "dur": 25
    },
    {
      "t": 284.9,
      "ch": 1,
      "note": 42,
      "vel": 30,
      "dur": 25
    },
    {
      "t": 284.9,
      "ch": 1,
      "note": 36,
      "vel": 57,
      "dur": 25
    },
    {
      "t": 284.9,
      "ch": 1,
      "note": 38,
      "vel": 46,
      "dur": 25
    },
    {
      "t": 284.9,
      "ch": 1,
      "note": 40,
      "vel": 42,
      "dur": 25
    },
    {
      "t": 284.9,
      "ch": 1,
      "note": 42,
      "vel": 36,
      "dur": 25
    },
    {
      "t": 284.9,
      "ch": 1,
      "note": 36,
      "vel": 44,
      "dur": 25
    },
    {
      "t": 284.9,
      "ch": 1,
      "note": 38,
      "vel": 47,
      "dur": 25
    },
    {
      "t": 284.9,
      "ch": 1,
      "note": 40,
      "vel": 53,
      "dur": 25
    },
    {
      "t": 284.9,
      "ch": 1,
      "note": 42,
      "vel": 38,
      "dur": 25
    },
    {
      "t": 284.9,
      "ch": 1,
      "note": 36,
      "vel": 56,
      "dur": 25
    },
    {
      "t": 284.9,
      "ch": 1,
      "note": 38,
      "vel": 45,
      "dur": 25
    },
    {
      "t": 284.9,
      "ch": 1,
      "note": 40,
      "vel": 70,
      "dur": 25
    },
    {
      "t": 284.9,
      "ch": 1,
      "note": 42,
      "vel": 56,
      "dur": 25
    },
    {
      "t": 284.9,
      "ch": 1,
      "note": 36,
      "vel": 40,
      "dur": 25
    },
    {
      "t": 284.9,
      "ch": 1,
      "note": 38,
      "vel": 21,
      "dur": 25
    },
    {
      "t": 284.9,
      "ch": 1,
      "note": 40,
      "vel": 55,
      "dur": 25
    },
    {
      "t": 284.9,
      "ch": 1,
      "note": 42,
      "vel": 43,
      "dur": 25
    },
    {
      "t": 284.9,
      "ch": 1,
      "note": 36,
      "vel": 32,
      "dur": 25
    },
    {
      "t": 284.9,
      "ch": 1,
      "note": 38,
      "vel": 34,
      "dur": 25
    },
    {
      "t": 284.9,
      "ch": 1,
      "note": 40,
      "vel": 40,
      "dur": 25
    },
    {
      "t": 284.9,
      "ch": 1,
      "note": 42,
      "vel": 49,
      "dur": 25
    },
    {
      "t": 284.9,
      "ch": 1,
      "note": 36,
      "vel": 45,
      "dur": 25
    },
    {
      "t": 284.9,
      "ch": 1,
      "note": 38,
      "vel": 38,
      "dur": 25
    },
    {
      "t": 284.9,
      "ch": 1,
      "note": 40,
      "vel": 45,
      "dur": 25
    },
    {
      "t": 284.9,
      "ch": 1,
      "note": 42,
      "vel": 53,
      "dur": 25
    },
    {
      "t": 284.9,
      "ch": 1,
      "note": 36,
      "vel": 39,
      "dur": 25
    },
    {
      "t": 284.9,
      "ch": 1,
      "note": 38,
      "vel": 41,
      "dur": 25
    },
    {
      "t": 284.9,
      "ch": 1,
      "note": 40,
      "vel": 41,
      "dur": 25
    },
    {
      "t": 284.9,
      "ch": 1,
      "note": 42,
      "vel": 58,
      "dur": 25
    },
    {
      "t": 284.9,
      "ch": 1,
      "note": 36,
      "vel": 55,
      "dur": 25
    },
    {
      "t": 284.9,
      "ch": 1,
      "note": 38,
      "vel": 32,
      "dur": 25
    },
    {
      "t": 284.9,
      "ch": 1,
      "note": 40,
      "vel": 23,
      "dur": 25
    },
    {
      "t": 284.9,
      "ch": 1,
      "note": 42,
      "vel": 54,
      "dur": 25
    },
    {
      "t": 284.9,
      "ch": 1,
      "note": 36,
      "vel": 20,
      "dur": 25
    },
    {
      "t": 284.9,
      "ch": 1,
      "note": 38,
      "vel": 52,
      "dur": 25
    },
    {
      "t": 284.9,
      "ch": 1,
      "note": 40,
      "vel": 50,
      "dur": 25
    },
    {
      "t": 284.9,
      "ch": 1,
      "note": 42,
      "vel": 55,
      "dur": 25
    },
    {
      "t": 284.9,
      "ch": 1,
      "note": 36,
      "vel": 41,
      "dur": 25
    },
    {
      "t": 284.9,
      "ch": 1,
      "note": 38,
      "vel": 37,
      "dur": 25
    },
    {
      "t": 284.9,
      "ch": 1,
      "note": 40,
      "vel": 36,
      "dur": 25
    },
    {
      "t": 284.9,
      "ch": 1,
      "note": 42,
      "vel": 18,
      "dur": 25
    },
    {
      "t": 284.9,
      "ch": 1,
      "note": 36,
      "vel": 30,
      "dur": 25
    },
    {
      "t": 284.9,
      "ch": 1,
      "note": 38,
      "vel": 33,
      "dur": 25
    },
    {
      "t": 284.9,
      "ch": 1,
      "note": 40,
      "vel": 36,
      "dur": 25
    },
    {
      "t": 284.9,
      "ch": 1,
      "note": 42,
      "vel": 27,
      "dur": 25
    },
    {
      "t": 284.9,
      "ch": 1,
      "note": 36,
      "vel": 28,
      "dur": 25
    },
    {
      "t": 284.9,
      "ch": 1,
      "note": 38,
      "vel": 39,
      "dur": 25
    },
    {
      "t": 284.9,
      "ch": 1,
      "note": 40,
      "vel": 32,
      "dur": 25
    },
    {
      "t": 284.9,
      "ch": 1,
      "note": 42,
      "vel": 56,
      "dur": 25
    },
    {
      "t": 284.9,
      "ch": 1,
      "note": 36,
      "vel": 44,
      "dur": 25
    },
    {
      "t": 284.9,
      "ch": 1,
      "note": 38,
      "vel": 16,
      "dur": 25
    },
    {
      "t": 284.9,
      "ch": 1,
      "note": 40,
      "vel": 53,
      "dur": 25
    },
    {
      "t": 284.9,
      "ch": 1,
      "note": 42,
      "vel": 38,
      "dur": 25
    },
    {
      "t": 284.9,
      "ch": 1,
      "note": 36,
      "vel": 51,
      "dur": 25
    },
    {
      "t": 284.9,
      "ch": 1,
      "note": 38,
      "vel": 45,
      "dur": 25
    },
    {
      "t": 284.9,
      "ch": 1,
      "note": 40,
      "vel": 57,
      "dur": 25
    },
    {
      "t": 284.9,
      "ch": 1,
      "note": 42,
      "vel": 31,
      "dur": 25
    },
    {
      "t": 284.9,
      "ch": 1,
      "note": 36,
      "vel": 51,
      "dur": 25
    },
    {
      "t": 284.9,
      "ch": 1,
      "note": 38,
      "vel": 47,
      "dur": 25
    },
    {
      "t": 284.9,
      "ch": 1,
      "note": 40,
      "vel": 34,
      "dur": 25
    },
    {
      "t": 284.9,
      "ch": 1,
      "note": 42,
      "vel": 24,
      "dur": 25
    },
    {
      "t": 284.9,
      "ch": 1,
      "note": 36,
      "vel": 30,
      "dur": 25
    },
    {
      "t": 284.9,
      "ch": 1,
      "note": 38,
      "vel": 23,
      "dur": 25
    },
    {
      "t": 284.9,
      "ch": 1,
      "note": 40,
      "vel": 61,
      "dur": 25
    },
    {
      "t": 284.9,
      "ch": 1,
      "note": 42,
      "vel": 43,
      "dur": 25
    },
    {
      "t": 284.9,
      "ch": 1,
      "note": 36,
      "vel": 49,
      "dur": 25
    },
    {
      "t": 284.9,
      "ch": 1,
      "note": 38,
      "vel": 57,
      "dur": 25
    },
    {
      "t": 284.9,
      "ch": 1,
      "note": 40,
      "vel": 60,
      "dur": 25
    },
    {
      "t": 284.9,
      "ch": 1,
      "note": 42,
      "vel": 52,
      "dur": 25
    },
    {
      "t": 284.9,
      "ch": 1,
      "note": 36,
      "vel": 40,
      "dur": 25
    },
    {
      "t": 284.9,
      "ch": 1,
      "note": 38,
      "vel": 38,
      "dur": 25
    },
    {
      "t": 284.9,
      "ch": 1,
      "note": 40,
      "vel": 23,
      "dur": 25
    },
    {
      "t": 284.9,
      "ch": 1,
      "note": 42,
      "vel": 33,
      "dur": 25
    },
    {
      "t": 284.9,
      "ch": 1,
      "note": 36,
      "vel": 38,
      "dur": 25
    },
    {
      "t": 284.9,
      "ch": 1,
      "note": 38,
      "vel": 35,
      "dur": 25
    },
    {
      "t": 284.9,
      "ch": 1,
      "note": 40,
      "vel": 68,
      "dur": 25
    },
    {
      "t": 284.9,
      "ch": 1,
      "note": 42,
      "vel": 44,
      "dur": 25
    },
    {
      "t": 284.9,
      "ch": 1,
      "note": 36,
      "vel": 36,
      "dur": 25
    },
    {
      "t": 284.9,
      "ch": 1,
      "note": 38,
      "vel": 50,
      "dur": 25
    },
    {
      "t": 284.9,
      "ch": 1,
      "note": 40,
      "vel": 58,
      "dur": 25
    },
    {
      "t": 284.9,
      "ch": 1,
      "note": 42,
      "vel": 16,
      "dur": 25
    },
    {
      "t": 284.9,
      "ch": 1,
      "note": 36,
      "vel": 44,
      "dur": 25
    },
    {
      "t": 284.9,
      "ch": 1,
      "note": 38,
      "vel": 30,
      "dur": 25
    },
    {
      "t": 284.9,
      "ch": 1,
      "note": 40,
      "vel": 59,
      "dur": 25
    },
    {
      "t": 284.9,
      "ch": 1,
      "note": 42,
      "vel": 46,
      "dur": 25
    },
    {
      "t": 284.9,
      "ch": 1,
      "note": 36,
      "vel": 28,
      "dur": 25
    },
    {
      "t": 284.9,
      "ch": 1,
      "note": 38,
      "vel": 30,
      "dur": 25
    },
    {
      "t": 284.9,
      "ch": 1,
      "note": 40,
      "vel": 56,
      "dur": 25
    },
    {
      "t": 284.9,
      "ch": 1,
      "note": 42,
      "vel": 37,
      "dur": 25
    },
    {
      "t": 284.9,
      "ch": 1,
      "note": 36,
      "vel": 51,
      "dur": 25
    },
    {
      "t": 284.9,
      "ch": 1,
      "note": 38,
      "vel": 38,
      "dur": 25
    },
    {
      "t": 284.9,
      "ch": 1,
      "note": 40,
      "vel": 40,
      "dur": 25
    },
    {
      "t": 284.9,
      "ch": 1,
      "note": 42,
      "vel": 35,
      "dur": 25
    },
    {
      "t": 284.9,
      "ch": 1,
      "note": 36,
      "vel": 41,
      "dur": 25
    },
    {
      "t": 284.9,
      "ch": 1,
      "note": 38,
      "vel": 41,
      "dur": 25
    },
    {
      "t": 284.9,
      "ch": 1,
      "note": 40,
      "vel": 39,
      "dur": 25
    },
    {
      "t": 284.9,
      "ch": 1,
      "note": 42,
      "vel": 43,
      "dur": 25
    },
    {
      "t": 284.9,
      "ch": 1,
      "note": 36,
      "vel": 57,
      "dur": 25
    },
    {
      "t": 284.9,
      "ch": 1,
      "note": 38,
      "vel": 56,
      "dur": 25
    },
    {
      "t": 284.9,
      "ch": 1,
      "note": 40,
      "vel": 46,
      "dur": 25
    },
    {
      "t": 284.9,
      "ch": 1,
      "note": 42,
      "vel": 37,
      "dur": 25
    },
    {
      "t": 284.9,
      "ch": 1,
      "note": 36,
      "vel": 40,
      "dur": 25
    },
    {
      "t": 284.9,
      "ch": 1,
      "note": 38,
      "vel": 21,
      "dur": 25
    },
    {
      "t": 284.9,
      "ch": 1,
      "note": 40,
      "vel": 43,
      "dur": 25
    },
    {
      "t": 284.9,
      "ch": 1,
      "note": 42,
      "vel": 50,
      "dur": 25
    },
    {
      "t": 284.9,
      "ch": 1,
      "note": 36,
      "vel": 31,
      "dur": 25
    },
    {
      "t": 284.9,
      "ch": 1,
      "note": 38,
      "vel": 30,
      "dur": 25
    },
    {
      "t": 284.9,
      "ch": 1,
      "note": 40,
      "vel": 36,
      "dur": 25
    },
    {
      "t": 284.9,
      "ch": 1,
      "note": 42,
      "vel": 45,
      "dur": 25
    },
    {
      "t": 284.9,
      "ch": 1,
      "note": 36,
      "vel": 26,
      "dur": 25
    },
    {
      "t": 284.9,
      "ch": 1,
      "note": 38,
      "vel": 55,
      "dur": 25
    },
    {
      "t": 284.9,
      "ch": 1,
      "note": 40,
      "vel": 38,
      "dur": 25
    },
    {
      "t": 284.9,
      "ch": 1,
      "note": 42,
      "vel": 34,
      "dur": 25
    },
    {
      "t": 284.9,
      "ch": 1,
      "note": 36,
      "vel": 44,
      "dur": 25
    },
    {
      "t": 284.9,
      "ch": 1,
      "note": 38,
      "vel": 45,
      "dur": 25
    },
    {
      "t": 284.9,
      "ch": 1,
      "note": 40,
      "vel": 49,
      "dur": 25
    },
    {
      "t": 284.9,
      "ch": 1,
      "note": 42,
      "vel": 19,
      "dur": 25
    },
    {
      "t": 284.9,
      "ch": 1,
      "note": 36,
      "vel": 44,
      "dur": 25
    },
    {
      "t": 284.9,
      "ch": 1,
      "note": 38,
      "vel": 52,
      "dur": 25
    },
    {
      "t": 284.9,
      "ch": 1,
      "note": 40,
      "vel": 44,
      "dur": 25
    },
    {
      "t": 284.9,
      "ch": 1,
      "note": 42,
      "vel": 50,
      "dur": 25
    },
    {
      "t": 284.9,
      "ch": 1,
      "note": 36,
      "vel": 35,
      "dur": 25
    },
    {
      "t": 284.9,
      "ch": 1,
      "note": 38,
      "vel": 46,
      "dur": 25
    },
    {
      "t": 284.9,
      "ch": 1,
      "note": 40,
      "vel": 20,
      "dur": 25
    },
    {
      "t": 284.9,
      "ch": 1,
      "note": 42,
      "vel": 31,
      "dur": 25
    },
    {
      "t": 284.9,
      "ch": 1,
      "note": 36,
      "vel": 38,
      "dur": 25
    },
    {
      "t": 284.9,
      "ch": 1,
      "note": 38,
      "vel": 37,
      "dur": 25
    },
    {
      "t": 284.9,
      "ch": 1,
      "note": 40,
      "vel": 43,
      "dur": 25
    },
    {
      "t": 284.9,
      "ch": 1,
      "note": 42,
      "vel": 33,
      "dur": 25
    },
    {
      "t": 284.9,
      "ch": 1,
      "note": 36,
      "vel": 59,
      "dur": 25
    },
    {
      "t": 284.9,
      "ch": 1,
      "note": 38,
      "vel": 54,
      "dur": 25
    },
    {
      "t": 284.9,
      "ch": 1,
      "note": 40,
      "vel": 38,
      "dur": 25
    },
    {
      "t": 284.9,
      "ch": 1,
      "note": 42,
      "vel": 49,
      "dur": 25
    },
    {
      "t": 284.9,
      "ch": 1,
      "note": 36,
      "vel": 30,
      "dur": 25
    },
    {
      "t": 284.9,
      "ch": 1,
      "note": 38,
      "vel": 62,
      "dur": 25
    },
    {
      "t": 284.9,
      "ch": 1,
      "note": 40,
      "vel": 45,
      "dur": 25
    },
    {
      "t": 284.9,
      "ch": 1,
      "note": 42,
      "vel": 42,
      "dur": 25
    },
    {
      "t": 284.9,
      "ch": 1,
      "note": 36,
      "vel": 40,
      "dur": 25
    },
    {
      "t": 284.9,
      "ch": 1,
      "note": 38,
      "vel": 36,
      "dur": 25
    },
    {
      "t": 284.9,
      "ch": 1,
      "note": 40,
      "vel": 49,
      "dur": 25
    },
    {
      "t": 284.9,
      "ch": 1,
      "note": 42,
      "vel": 35,
      "dur": 25
    },
    {
      "t": 284.9,
      "ch": 1,
      "note": 36,
      "vel": 32,
      "dur": 25
    },
    {
      "t": 284.9,
      "ch": 1,
      "note": 38,
      "vel": 36,
      "dur": 25
    },
    {
      "t": 284.9,
      "ch": 1,
      "note": 40,
      "vel": 38,
      "dur": 25
    },
    {
      "t": 284.9,
      "ch": 1,
      "note": 42,
      "vel": 58,
      "dur": 25
    },
    {
      "t": 284.9,
      "ch": 1,
      "note": 36,
      "vel": 56,
      "dur": 25
    },
    {
      "t": 284.9,
      "ch": 1,
      "note": 38,
      "vel": 30,
      "dur": 25
    },
    {
      "t": 284.9,
      "ch": 1,
      "note": 40,
      "vel": 54,
      "dur": 25
    },
    {
      "t": 284.9,
      "ch": 1,
      "note": 42,
      "vel": 49,
      "dur": 25
    },
    {
      "t": 285.3,
      "ch": 1,
      "note": 36,
      "vel": 63,
      "dur": 25
    },
    {
      "t": 285.3,
      "ch": 1,
      "note": 38,
      "vel": 27,
      "dur": 25
    },
    {
      "t": 285.3,
      "ch": 7,
      "note": 48,
      "vel": 64,
      "dur": 80
    },
    {
      "t": 285.5,
      "ch": 7,
      "note": 45,
      "vel": 56,
      "dur": 80
    },
    {
      "t": 285.7,
      "ch": 1,
      "note": 40,
      "vel": 20,
      "dur": 25
    },
    {
      "t": 285.7,
      "ch": 1,
      "note": 42,
      "vel": 40,
      "dur": 25
    },
    {
      "t": 286,
      "ch": 4,
      "note": 67,
      "vel": 14,
      "dur": 3076
    },
    {
      "t": 286,
      "ch": 4,
      "note": 66,
      "vel": 16,
      "dur": 3026
    },
    {
      "t": 286,
      "ch": 4,
      "note": 69,
      "vel": 16,
      "dur": 6103
    },
    {
      "t": 286,
      "ch": 4,
      "note": 74,
      "vel": 14,
      "dur": 3076
    },
    {
      "t": 286,
      "ch": 4,
      "note": 73,
      "vel": 16,
      "dur": 3026
    },
    {
      "t": 286,
      "ch": 3,
      "note": 49,
      "vel": 18,
      "dur": 6153
    },
    {
      "t": 286.1,
      "ch": 1,
      "note": 36,
      "vel": 44,
      "dur": 25
    },
    {
      "t": 286.1,
      "ch": 0,
      "note": 36,
      "vel": 91,
      "dur": 55
    },
    {
      "t": 286.1,
      "ch": 1,
      "note": 38,
      "vel": 78,
      "dur": 25
    },
    {
      "t": 286.1,
      "ch": 7,
      "note": 48,
      "vel": 63,
      "dur": 80
    },
    {
      "t": 286.4,
      "ch": 1,
      "note": 40,
      "vel": 55,
      "dur": 25
    },
    {
      "t": 286.5,
      "ch": 1,
      "note": 42,
      "vel": 61,
      "dur": 25
    },
    {
      "t": 286.5,
      "ch": 7,
      "note": 45,
      "vel": 60,
      "dur": 80
    },
    {
      "t": 286.8,
      "ch": 1,
      "note": 36,
      "vel": 40,
      "dur": 25
    },
    {
      "t": 286.9,
      "ch": 1,
      "note": 38,
      "vel": 71,
      "dur": 25
    },
    {
      "t": 286.9,
      "ch": 7,
      "note": 48,
      "vel": 74,
      "dur": 80
    },
    {
      "t": 287.2,
      "ch": 1,
      "note": 40,
      "vel": 31,
      "dur": 25
    },
    {
      "t": 287.3,
      "ch": 1,
      "note": 42,
      "vel": 36,
      "dur": 25
    },
    {
      "t": 287.6,
      "ch": 1,
      "note": 36,
      "vel": 68,
      "dur": 25
    },
    {
      "t": 287.6,
      "ch": 1,
      "note": 38,
      "vel": 50,
      "dur": 25
    },
    {
      "t": 287.6,
      "ch": 7,
      "note": 48,
      "vel": 84,
      "dur": 80
    },
    {
      "t": 287.6,
      "ch": 7,
      "note": 45,
      "vel": 58,
      "dur": 80
    },
    {
      "t": 288,
      "ch": 1,
      "note": 40,
      "vel": 46,
      "dur": 25
    },
    {
      "t": 288,
      "ch": 1,
      "note": 42,
      "vel": 41,
      "dur": 25
    },
    {
      "t": 288.4,
      "ch": 1,
      "note": 36,
      "vel": 54,
      "dur": 25
    },
    {
      "t": 288.4,
      "ch": 1,
      "note": 38,
      "vel": 48,
      "dur": 25
    },
    {
      "t": 288.4,
      "ch": 7,
      "note": 48,
      "vel": 63,
      "dur": 80
    },
    {
      "t": 288.6,
      "ch": 7,
      "note": 45,
      "vel": 61,
      "dur": 80
    },
    {
      "t": 288.8,
      "ch": 1,
      "note": 40,
      "vel": 42,
      "dur": 25
    },
    {
      "t": 288.8,
      "ch": 1,
      "note": 42,
      "vel": 40,
      "dur": 25
    },
    {
      "t": 289.1,
      "ch": 2,
      "note": 57,
      "vel": 48,
      "dur": 23076
    },
    {
      "t": 289.1,
      "ch": 2,
      "note": 69,
      "vel": 34,
      "dur": 23076
    },
    {
      "t": 289.1,
      "ch": 1,
      "note": 36,
      "vel": 38,
      "dur": 25
    },
    {
      "t": 289.2,
      "ch": 1,
      "note": 38,
      "vel": 31,
      "dur": 25
    },
    {
      "t": 289.2,
      "ch": 7,
      "note": 48,
      "vel": 76,
      "dur": 80
    },
    {
      "t": 289.5,
      "ch": 1,
      "note": 40,
      "vel": 38,
      "dur": 25
    },
    {
      "t": 289.6,
      "ch": 1,
      "note": 42,
      "vel": 47,
      "dur": 25
    },
    {
      "t": 289.6,
      "ch": 7,
      "note": 45,
      "vel": 64,
      "dur": 80
    },
    {
      "t": 289.9,
      "ch": 1,
      "note": 36,
      "vel": 25,
      "dur": 25
    },
    {
      "t": 289.9,
      "ch": 1,
      "note": 38,
      "vel": 31,
      "dur": 25
    },
    {
      "t": 289.9,
      "ch": 7,
      "note": 48,
      "vel": 71,
      "dur": 80
    },
    {
      "t": 290.3,
      "ch": 1,
      "note": 40,
      "vel": 36,
      "dur": 25
    },
    {
      "t": 290.3,
      "ch": 1,
      "note": 42,
      "vel": 36,
      "dur": 25
    },
    {
      "t": 290.7,
      "ch": 1,
      "note": 36,
      "vel": 35,
      "dur": 25
    },
    {
      "t": 290.7,
      "ch": 0,
      "note": 36,
      "vel": 116,
      "dur": 55
    },
    {
      "t": 290.7,
      "ch": 1,
      "note": 38,
      "vel": 41,
      "dur": 25
    },
    {
      "t": 290.7,
      "ch": 7,
      "note": 48,
      "vel": 64,
      "dur": 80
    },
    {
      "t": 290.7,
      "ch": 7,
      "note": 45,
      "vel": 67,
      "dur": 80
    },
    {
      "t": 291.1,
      "ch": 1,
      "note": 40,
      "vel": 50,
      "dur": 25
    },
    {
      "t": 291.1,
      "ch": 1,
      "note": 42,
      "vel": 37,
      "dur": 25
    },
    {
      "t": 291.4,
      "ch": 1,
      "note": 36,
      "vel": 51,
      "dur": 25
    },
    {
      "t": 291.5,
      "ch": 1,
      "note": 38,
      "vel": 38,
      "dur": 25
    },
    {
      "t": 291.5,
      "ch": 7,
      "note": 48,
      "vel": 58,
      "dur": 80
    },
    {
      "t": 291.7,
      "ch": 7,
      "note": 45,
      "vel": 65,
      "dur": 80
    },
    {
      "t": 291.8,
      "ch": 1,
      "note": 40,
      "vel": 35,
      "dur": 25
    },
    {
      "t": 291.9,
      "ch": 1,
      "note": 42,
      "vel": 37,
      "dur": 25
    },
    {
      "t": 292.2,
      "ch": 4,
      "note": 64,
      "vel": 15,
      "dur": 6103
    },
    {
      "t": 292.2,
      "ch": 4,
      "note": 68,
      "vel": 15,
      "dur": 6103
    },
    {
      "t": 292.2,
      "ch": 4,
      "note": 61,
      "vel": 15,
      "dur": 6103
    },
    {
      "t": 292.2,
      "ch": 3,
      "note": 40,
      "vel": 18,
      "dur": 6153
    },
    {
      "t": 292.2,
      "ch": 1,
      "note": 36,
      "vel": 44,
      "dur": 25
    },
    {
      "t": 292.3,
      "ch": 0,
      "note": 36,
      "vel": 91,
      "dur": 55
    },
    {
      "t": 292.3,
      "ch": 1,
      "note": 38,
      "vel": 39,
      "dur": 25
    },
    {
      "t": 292.3,
      "ch": 7,
      "note": 48,
      "vel": 76,
      "dur": 80
    },
    {
      "t": 292.6,
      "ch": 1,
      "note": 40,
      "vel": 41,
      "dur": 25
    },
    {
      "t": 292.6,
      "ch": 1,
      "note": 42,
      "vel": 53,
      "dur": 25
    },
    {
      "t": 292.6,
      "ch": 7,
      "note": 45,
      "vel": 66,
      "dur": 80
    },
    {
      "t": 293,
      "ch": 1,
      "note": 36,
      "vel": 51,
      "dur": 25
    },
    {
      "t": 293,
      "ch": 1,
      "note": 38,
      "vel": 56,
      "dur": 25
    },
    {
      "t": 293,
      "ch": 7,
      "note": 48,
      "vel": 82,
      "dur": 80
    },
    {
      "t": 293.4,
      "ch": 1,
      "note": 40,
      "vel": 51,
      "dur": 25
    },
    {
      "t": 293.4,
      "ch": 1,
      "note": 42,
      "vel": 41,
      "dur": 25
    },
    {
      "t": 293.6,
      "ch": 5,
      "note": 66,
      "vel": 3,
      "dur": 1062
    },
    {
      "t": 293.7,
      "ch": 1,
      "note": 36,
      "vel": 45,
      "dur": 25
    },
    {
      "t": 293.8,
      "ch": 1,
      "note": 38,
      "vel": 44,
      "dur": 25
    },
    {
      "t": 293.8,
      "ch": 7,
      "note": 48,
      "vel": 67,
      "dur": 80
    },
    {
      "t": 293.8,
      "ch": 7,
      "note": 45,
      "vel": 72,
      "dur": 80
    },
    {
      "t": 294.1,
      "ch": 1,
      "note": 40,
      "vel": 51,
      "dur": 25
    },
    {
      "t": 294.2,
      "ch": 1,
      "note": 42,
      "vel": 42,
      "dur": 25
    },
    {
      "t": 294.6,
      "ch": 7,
      "note": 48,
      "vel": 78,
      "dur": 80
    },
    {
      "t": 294.7,
      "ch": 7,
      "note": 45,
      "vel": 67,
      "dur": 80
    },
    {
      "t": 295.3,
      "ch": 7,
      "note": 48,
      "vel": 69,
      "dur": 80
    },
    {
      "t": 295.7,
      "ch": 7,
      "note": 45,
      "vel": 70,
      "dur": 80
    },
    {
      "t": 296.1,
      "ch": 7,
      "note": 48,
      "vel": 72,
      "dur": 80
    },
    {
      "t": 296.9,
      "ch": 7,
      "note": 48,
      "vel": 67,
      "dur": 80
    },
    {
      "t": 296.9,
      "ch": 7,
      "note": 45,
      "vel": 82,
      "dur": 80
    },
    {
      "t": 297.6,
      "ch": 7,
      "note": 48,
      "vel": 73,
      "dur": 80
    },
    {
      "t": 297.8,
      "ch": 7,
      "note": 45,
      "vel": 63,
      "dur": 80
    },
    {
      "t": 298.3,
      "ch": 4,
      "note": 64,
      "vel": 14,
      "dur": 6103
    },
    {
      "t": 298.3,
      "ch": 4,
      "note": 69,
      "vel": 13,
      "dur": 6103
    },
    {
      "t": 298.3,
      "ch": 4,
      "note": 66,
      "vel": 13,
      "dur": 6103
    },
    {
      "t": 298.3,
      "ch": 3,
      "note": 52,
      "vel": 15,
      "dur": 6153
    },
    {
      "t": 298.4,
      "ch": 7,
      "note": 48,
      "vel": 74,
      "dur": 80
    },
    {
      "t": 298.8,
      "ch": 7,
      "note": 45,
      "vel": 63,
      "dur": 80
    },
    {
      "t": 299.2,
      "ch": 7,
      "note": 48,
      "vel": 70,
      "dur": 80
    },
    {
      "t": 299.9,
      "ch": 7,
      "note": 48,
      "vel": 75,
      "dur": 80
    },
    {
      "t": 300.7,
      "ch": 7,
      "note": 48,
      "vel": 68,
      "dur": 80
    },
    {
      "t": 301.5,
      "ch": 7,
      "note": 48,
      "vel": 84,
      "dur": 80
    },
    {
      "t": 302.3,
      "ch": 7,
      "note": 48,
      "vel": 71,
      "dur": 80
    },
    {
      "t": 303,
      "ch": 7,
      "note": 48,
      "vel": 80,
      "dur": 80
    },
    {
      "t": 303.8,
      "ch": 7,
      "note": 48,
      "vel": 70,
      "dur": 80
    },
    {
      "t": 304,
      "ch": 6,
      "note": 77,
      "vel": 9,
      "dur": 722
    },
    {
      "t": 304.4,
      "ch": 5,
      "note": 69,
      "vel": 12,
      "dur": 1081
    },
    {
      "t": 304.5,
      "ch": 4,
      "note": 66,
      "vel": 14,
      "dur": 6103
    },
    {
      "t": 304.5,
      "ch": 4,
      "note": 69,
      "vel": 14,
      "dur": 6103
    },
    {
      "t": 304.5,
      "ch": 4,
      "note": 61,
      "vel": 14,
      "dur": 6103
    },
    {
      "t": 304.5,
      "ch": 3,
      "note": 44,
      "vel": 16,
      "dur": 6153
    },
    {
      "t": 304.6,
      "ch": 7,
      "note": 48,
      "vel": 63,
      "dur": 80
    },
    {
      "t": 305.3,
      "ch": 7,
      "note": 48,
      "vel": 77,
      "dur": 80
    },
    {
      "t": 305.5,
      "ch": 5,
      "note": 66,
      "vel": 1,
      "dur": 1074
    },
    {
      "t": 305.9,
      "ch": 6,
      "note": 76,
      "vel": 1,
      "dur": 714
    },
    {
      "t": 306.1,
      "ch": 7,
      "note": 48,
      "vel": 69,
      "dur": 80
    },
    {
      "t": 306.5,
      "ch": 1,
      "note": 36,
      "vel": 48,
      "dur": 25
    },
    {
      "t": 306.5,
      "ch": 1,
      "note": 38,
      "vel": 55,
      "dur": 25
    },
    {
      "t": 306.5,
      "ch": 1,
      "note": 40,
      "vel": 70,
      "dur": 25
    },
    {
      "t": 306.5,
      "ch": 1,
      "note": 42,
      "vel": 31,
      "dur": 25
    },
    {
      "t": 306.5,
      "ch": 1,
      "note": 36,
      "vel": 38,
      "dur": 25
    },
    {
      "t": 306.5,
      "ch": 1,
      "note": 38,
      "vel": 43,
      "dur": 25
    },
    {
      "t": 306.5,
      "ch": 1,
      "note": 40,
      "vel": 46,
      "dur": 25
    },
    {
      "t": 306.5,
      "ch": 1,
      "note": 42,
      "vel": 30,
      "dur": 25
    },
    {
      "t": 306.5,
      "ch": 1,
      "note": 36,
      "vel": 30,
      "dur": 25
    },
    {
      "t": 306.5,
      "ch": 1,
      "note": 38,
      "vel": 52,
      "dur": 25
    },
    {
      "t": 306.5,
      "ch": 1,
      "note": 40,
      "vel": 62,
      "dur": 25
    },
    {
      "t": 306.5,
      "ch": 1,
      "note": 42,
      "vel": 29,
      "dur": 25
    },
    {
      "t": 306.5,
      "ch": 1,
      "note": 36,
      "vel": 42,
      "dur": 25
    },
    {
      "t": 306.5,
      "ch": 1,
      "note": 38,
      "vel": 67,
      "dur": 25
    },
    {
      "t": 306.5,
      "ch": 1,
      "note": 40,
      "vel": 52,
      "dur": 25
    },
    {
      "t": 306.5,
      "ch": 1,
      "note": 42,
      "vel": 59,
      "dur": 25
    },
    {
      "t": 306.5,
      "ch": 1,
      "note": 36,
      "vel": 15,
      "dur": 25
    },
    {
      "t": 306.5,
      "ch": 1,
      "note": 38,
      "vel": 32,
      "dur": 25
    },
    {
      "t": 306.5,
      "ch": 1,
      "note": 40,
      "vel": 26,
      "dur": 25
    },
    {
      "t": 306.5,
      "ch": 1,
      "note": 42,
      "vel": 27,
      "dur": 25
    },
    {
      "t": 306.5,
      "ch": 1,
      "note": 36,
      "vel": 35,
      "dur": 25
    },
    {
      "t": 306.5,
      "ch": 1,
      "note": 38,
      "vel": 52,
      "dur": 25
    },
    {
      "t": 306.5,
      "ch": 1,
      "note": 40,
      "vel": 22,
      "dur": 25
    },
    {
      "t": 306.5,
      "ch": 1,
      "note": 42,
      "vel": 44,
      "dur": 25
    },
    {
      "t": 306.5,
      "ch": 1,
      "note": 36,
      "vel": 51,
      "dur": 25
    },
    {
      "t": 306.5,
      "ch": 1,
      "note": 38,
      "vel": 44,
      "dur": 25
    },
    {
      "t": 306.5,
      "ch": 1,
      "note": 40,
      "vel": 30,
      "dur": 25
    },
    {
      "t": 306.5,
      "ch": 1,
      "note": 42,
      "vel": 52,
      "dur": 25
    },
    {
      "t": 306.5,
      "ch": 1,
      "note": 36,
      "vel": 56,
      "dur": 25
    },
    {
      "t": 306.5,
      "ch": 1,
      "note": 38,
      "vel": 39,
      "dur": 25
    },
    {
      "t": 306.5,
      "ch": 1,
      "note": 40,
      "vel": 51,
      "dur": 25
    },
    {
      "t": 306.5,
      "ch": 1,
      "note": 42,
      "vel": 47,
      "dur": 25
    },
    {
      "t": 306.8,
      "ch": 1,
      "note": 36,
      "vel": 37,
      "dur": 25
    },
    {
      "t": 306.9,
      "ch": 1,
      "note": 38,
      "vel": 50,
      "dur": 25
    },
    {
      "t": 306.9,
      "ch": 7,
      "note": 48,
      "vel": 65,
      "dur": 80
    },
    {
      "t": 307.1,
      "ch": 7,
      "note": 45,
      "vel": 71,
      "dur": 80
    },
    {
      "t": 307.1,
      "ch": 1,
      "note": 40,
      "vel": 31,
      "dur": 25
    },
    {
      "t": 307.2,
      "ch": 1,
      "note": 42,
      "vel": 43,
      "dur": 25
    },
    {
      "t": 307.5,
      "ch": 1,
      "note": 36,
      "vel": 42,
      "dur": 25
    },
    {
      "t": 307.6,
      "ch": 1,
      "note": 38,
      "vel": 54,
      "dur": 25
    },
    {
      "t": 307.6,
      "ch": 7,
      "note": 48,
      "vel": 72,
      "dur": 80
    },
    {
      "t": 307.9,
      "ch": 1,
      "note": 40,
      "vel": 57,
      "dur": 25
    },
    {
      "t": 308,
      "ch": 1,
      "note": 42,
      "vel": 43,
      "dur": 25
    },
    {
      "t": 308,
      "ch": 7,
      "note": 45,
      "vel": 51,
      "dur": 80
    },
    {
      "t": 308.3,
      "ch": 1,
      "note": 36,
      "vel": 34,
      "dur": 25
    },
    {
      "t": 308.3,
      "ch": 1,
      "note": 38,
      "vel": 40,
      "dur": 25
    },
    {
      "t": 308.3,
      "ch": 7,
      "note": 48,
      "vel": 71,
      "dur": 80
    },
    {
      "t": 308.6,
      "ch": 1,
      "note": 40,
      "vel": 30,
      "dur": 25
    },
    {
      "t": 308.7,
      "ch": 1,
      "note": 42,
      "vel": 32,
      "dur": 25
    },
    {
      "t": 309,
      "ch": 1,
      "note": 36,
      "vel": 50,
      "dur": 25
    },
    {
      "t": 309.1,
      "ch": 1,
      "note": 38,
      "vel": 25,
      "dur": 25
    },
    {
      "t": 309.1,
      "ch": 7,
      "note": 48,
      "vel": 64,
      "dur": 80
    },
    {
      "t": 309.1,
      "ch": 7,
      "note": 45,
      "vel": 68,
      "dur": 80
    },
    {
      "t": 309.3,
      "ch": 1,
      "note": 40,
      "vel": 27,
      "dur": 25
    },
    {
      "t": 309.4,
      "ch": 1,
      "note": 42,
      "vel": 55,
      "dur": 25
    },
    {
      "t": 309.7,
      "ch": 1,
      "note": 36,
      "vel": 46,
      "dur": 25
    },
    {
      "t": 309.8,
      "ch": 1,
      "note": 38,
      "vel": 80,
      "dur": 25
    },
    {
      "t": 309.8,
      "ch": 7,
      "note": 48,
      "vel": 60,
      "dur": 80
    },
    {
      "t": 310,
      "ch": 7,
      "note": 45,
      "vel": 70,
      "dur": 80
    },
    {
      "t": 310,
      "ch": 1,
      "note": 40,
      "vel": 50,
      "dur": 25
    },
    {
      "t": 310.1,
      "ch": 1,
      "note": 42,
      "vel": 48,
      "dur": 25
    },
    {
      "t": 310.4,
      "ch": 1,
      "note": 36,
      "vel": 45,
      "dur": 25
    },
    {
      "t": 310.4,
      "ch": 4,
      "note": 65,
      "vel": 17,
      "dur": 5578
    },
    {
      "t": 310.4,
      "ch": 4,
      "note": 70,
      "vel": 17,
      "dur": 5578
    },
    {
      "t": 310.4,
      "ch": 3,
      "note": 53,
      "vel": 19,
      "dur": 5628
    },
    {
      "t": 310.5,
      "ch": 1,
      "note": 38,
      "vel": 40,
      "dur": 25
    },
    {
      "t": 310.5,
      "ch": 7,
      "note": 48,
      "vel": 64,
      "dur": 80
    },
    {
      "t": 310.7,
      "ch": 1,
      "note": 40,
      "vel": 64,
      "dur": 25
    },
    {
      "t": 310.8,
      "ch": 1,
      "note": 42,
      "vel": 38,
      "dur": 25
    },
    {
      "t": 310.9,
      "ch": 7,
      "note": 45,
      "vel": 67,
      "dur": 80
    },
    {
      "t": 311.1,
      "ch": 1,
      "note": 36,
      "vel": 51,
      "dur": 25
    },
    {
      "t": 311.2,
      "ch": 1,
      "note": 38,
      "vel": 36,
      "dur": 25
    },
    {
      "t": 311.2,
      "ch": 7,
      "note": 48,
      "vel": 67,
      "dur": 80
    },
    {
      "t": 311.4,
      "ch": 1,
      "note": 40,
      "vel": 46,
      "dur": 25
    },
    {
      "t": 311.5,
      "ch": 1,
      "note": 42,
      "vel": 29,
      "dur": 25
    },
    {
      "t": 311.8,
      "ch": 1,
      "note": 36,
      "vel": 35,
      "dur": 25
    },
    {
      "t": 311.9,
      "ch": 1,
      "note": 38,
      "vel": 35,
      "dur": 25
    },
    {
      "t": 311.9,
      "ch": 7,
      "note": 48,
      "vel": 66,
      "dur": 80
    },
    {
      "t": 311.9,
      "ch": 7,
      "note": 45,
      "vel": 69,
      "dur": 80
    },
    {
      "t": 312.1,
      "ch": 1,
      "note": 40,
      "vel": 34,
      "dur": 25
    },
    {
      "t": 312.2,
      "ch": 1,
      "note": 42,
      "vel": 16,
      "dur": 25
    },
    {
      "t": 312.5,
      "ch": 1,
      "note": 36,
      "vel": 51,
      "dur": 25
    },
    {
      "t": 312.6,
      "ch": 1,
      "note": 38,
      "vel": 52,
      "dur": 25
    },
    {
      "t": 312.6,
      "ch": 7,
      "note": 48,
      "vel": 62,
      "dur": 80
    },
    {
      "t": 312.8,
      "ch": 7,
      "note": 45,
      "vel": 51,
      "dur": 80
    },
    {
      "t": 312.8,
      "ch": 1,
      "note": 40,
      "vel": 30,
      "dur": 25
    },
    {
      "t": 312.9,
      "ch": 1,
      "note": 42,
      "vel": 51,
      "dur": 25
    },
    {
      "t": 313.2,
      "ch": 1,
      "note": 36,
      "vel": 31,
      "dur": 25
    },
    {
      "t": 313.2,
      "ch": 2,
      "note": 57,
      "vel": 0,
      "dur": 0
    },
    {
      "t": 313.2,
      "ch": 2,
      "note": 69,
      "vel": 0,
      "dur": 0
    },
    {
      "t": 313.2,
      "ch": 2,
      "note": 58,
      "vel": 48,
      "dur": 20953
    },
    {
      "t": 313.2,
      "ch": 2,
      "note": 70,
      "vel": 34,
      "dur": 20953
    },
    {
      "t": 313.3,
      "ch": 1,
      "note": 38,
      "vel": 63,
      "dur": 25
    },
    {
      "t": 313.3,
      "ch": 7,
      "note": 48,
      "vel": 64,
      "dur": 80
    },
    {
      "t": 313.5,
      "ch": 1,
      "note": 40,
      "vel": 67,
      "dur": 25
    },
    {
      "t": 313.6,
      "ch": 1,
      "note": 42,
      "vel": 57,
      "dur": 25
    },
    {
      "t": 313.7,
      "ch": 7,
      "note": 45,
      "vel": 62,
      "dur": 80
    },
    {
      "t": 313.9,
      "ch": 1,
      "note": 36,
      "vel": 31,
      "dur": 25
    },
    {
      "t": 314,
      "ch": 1,
      "note": 38,
      "vel": 54,
      "dur": 25
    },
    {
      "t": 314,
      "ch": 7,
      "note": 48,
      "vel": 72,
      "dur": 80
    },
    {
      "t": 314.2,
      "ch": 1,
      "note": 40,
      "vel": 37,
      "dur": 25
    },
    {
      "t": 314.3,
      "ch": 1,
      "note": 42,
      "vel": 21,
      "dur": 25
    },
    {
      "t": 314.6,
      "ch": 1,
      "note": 36,
      "vel": 39,
      "dur": 25
    },
    {
      "t": 314.7,
      "ch": 0,
      "note": 36,
      "vel": 121,
      "dur": 55
    },
    {
      "t": 314.7,
      "ch": 1,
      "note": 38,
      "vel": 26,
      "dur": 25
    },
    {
      "t": 314.7,
      "ch": 7,
      "note": 48,
      "vel": 65,
      "dur": 80
    },
    {
      "t": 314.7,
      "ch": 7,
      "note": 45,
      "vel": 74,
      "dur": 80
    },
    {
      "t": 314.9,
      "ch": 1,
      "note": 40,
      "vel": 19,
      "dur": 25
    },
    {
      "t": 315,
      "ch": 1,
      "note": 42,
      "vel": 40,
      "dur": 25
    },
    {
      "t": 315.3,
      "ch": 1,
      "note": 36,
      "vel": 35,
      "dur": 25
    },
    {
      "t": 315.4,
      "ch": 1,
      "note": 38,
      "vel": 36,
      "dur": 25
    },
    {
      "t": 315.4,
      "ch": 7,
      "note": 48,
      "vel": 72,
      "dur": 80
    },
    {
      "t": 315.6,
      "ch": 7,
      "note": 45,
      "vel": 54,
      "dur": 80
    },
    {
      "t": 315.6,
      "ch": 1,
      "note": 40,
      "vel": 41,
      "dur": 25
    },
    {
      "t": 315.7,
      "ch": 1,
      "note": 42,
      "vel": 51,
      "dur": 25
    },
    {
      "t": 316,
      "ch": 1,
      "note": 36,
      "vel": 40,
      "dur": 25
    },
    {
      "t": 316,
      "ch": 4,
      "note": 65,
      "vel": 16,
      "dur": 5532
    },
    {
      "t": 316,
      "ch": 4,
      "note": 70,
      "vel": 17,
      "dur": 5532
    },
    {
      "t": 316,
      "ch": 3,
      "note": 39,
      "vel": 18,
      "dur": 5582
    },
    {
      "t": 316.1,
      "ch": 0,
      "note": 36,
      "vel": 97,
      "dur": 55
    },
    {
      "t": 316.1,
      "ch": 1,
      "note": 38,
      "vel": 31,
      "dur": 25
    },
    {
      "t": 316.1,
      "ch": 7,
      "note": 48,
      "vel": 62,
      "dur": 80
    },
    {
      "t": 316.1,
      "ch": 5,
      "note": 66,
      "vel": 20,
      "dur": 1057
    },
    {
      "t": 316.3,
      "ch": 1,
      "note": 40,
      "vel": 45,
      "dur": 25
    },
    {
      "t": 316.4,
      "ch": 1,
      "note": 42,
      "vel": 49,
      "dur": 25
    },
    {
      "t": 316.4,
      "ch": 7,
      "note": 45,
      "vel": 70,
      "dur": 80
    },
    {
      "t": 316.7,
      "ch": 1,
      "note": 36,
      "vel": 21,
      "dur": 25
    },
    {
      "t": 316.8,
      "ch": 1,
      "note": 38,
      "vel": 38,
      "dur": 25
    },
    {
      "t": 316.8,
      "ch": 7,
      "note": 48,
      "vel": 59,
      "dur": 80
    },
    {
      "t": 317,
      "ch": 1,
      "note": 40,
      "vel": 30,
      "dur": 25
    },
    {
      "t": 317.1,
      "ch": 1,
      "note": 42,
      "vel": 39,
      "dur": 25
    },
    {
      "t": 317.2,
      "ch": 5,
      "note": 58,
      "vel": 55,
      "dur": 800
    },
    {
      "t": 317.4,
      "ch": 1,
      "note": 36,
      "vel": 41,
      "dur": 25
    },
    {
      "t": 317.5,
      "ch": 1,
      "note": 38,
      "vel": 54,
      "dur": 25
    },
    {
      "t": 317.5,
      "ch": 7,
      "note": 48,
      "vel": 68,
      "dur": 80
    },
    {
      "t": 317.5,
      "ch": 7,
      "note": 45,
      "vel": 66,
      "dur": 80
    },
    {
      "t": 317.7,
      "ch": 1,
      "note": 40,
      "vel": 34,
      "dur": 25
    },
    {
      "t": 317.8,
      "ch": 1,
      "note": 42,
      "vel": 54,
      "dur": 25
    },
    {
      "t": 318,
      "ch": 5,
      "note": 68,
      "vel": 15,
      "dur": 1068
    },
    {
      "t": 318.2,
      "ch": 7,
      "note": 48,
      "vel": 68,
      "dur": 80
    },
    {
      "t": 318.3,
      "ch": 7,
      "note": 45,
      "vel": 57,
      "dur": 80
    },
    {
      "t": 318.6,
      "ch": 5,
      "note": 59,
      "vel": 55,
      "dur": 800
    },
    {
      "t": 318.9,
      "ch": 7,
      "note": 48,
      "vel": 73,
      "dur": 80
    },
    {
      "t": 319.2,
      "ch": 7,
      "note": 45,
      "vel": 65,
      "dur": 80
    },
    {
      "t": 319.4,
      "ch": 5,
      "note": 65,
      "vel": 6,
      "dur": 1076
    },
    {
      "t": 319.6,
      "ch": 7,
      "note": 48,
      "vel": 66,
      "dur": 80
    },
    {
      "t": 320,
      "ch": 5,
      "note": 58,
      "vel": 55,
      "dur": 800
    },
    {
      "t": 320.3,
      "ch": 7,
      "note": 48,
      "vel": 81,
      "dur": 80
    },
    {
      "t": 320.3,
      "ch": 7,
      "note": 45,
      "vel": 81,
      "dur": 80
    },
    {
      "t": 320.5,
      "ch": 5,
      "note": 70,
      "vel": 19,
      "dur": 1082
    },
    {
      "t": 321,
      "ch": 7,
      "note": 48,
      "vel": 60,
      "dur": 80
    },
    {
      "t": 321.1,
      "ch": 7,
      "note": 45,
      "vel": 51,
      "dur": 80
    },
    {
      "t": 321.4,
      "ch": 5,
      "note": 63,
      "vel": 55,
      "dur": 800
    },
    {
      "t": 321.6,
      "ch": 4,
      "note": 63,
      "vel": 13,
      "dur": 5531
    },
    {
      "t": 321.6,
      "ch": 4,
      "note": 68,
      "vel": 28,
      "dur": 5531
    },
    {
      "t": 321.6,
      "ch": 3,
      "note": 39,
      "vel": 15,
      "dur": 5581
    },
    {
      "t": 321.7,
      "ch": 7,
      "note": 48,
      "vel": 74,
      "dur": 80
    },
    {
      "t": 322,
      "ch": 7,
      "note": 45,
      "vel": 63,
      "dur": 80
    },
    {
      "t": 322.4,
      "ch": 7,
      "note": 48,
      "vel": 67,
      "dur": 80
    },
    {
      "t": 322.8,
      "ch": 5,
      "note": 58,
      "vel": 55,
      "dur": 800
    },
    {
      "t": 323.1,
      "ch": 7,
      "note": 48,
      "vel": 80,
      "dur": 80
    },
    {
      "t": 323.1,
      "ch": 7,
      "note": 45,
      "vel": 74,
      "dur": 80
    },
    {
      "t": 323.8,
      "ch": 7,
      "note": 48,
      "vel": 69,
      "dur": 80
    },
    {
      "t": 323.9,
      "ch": 7,
      "note": 45,
      "vel": 60,
      "dur": 80
    },
    {
      "t": 324.4,
      "ch": 2,
      "note": 58,
      "vel": 0,
      "dur": 0
    },
    {
      "t": 324.4,
      "ch": 2,
      "note": 70,
      "vel": 0,
      "dur": 0
    },
    {
      "t": 324.4,
      "ch": 2,
      "note": 56,
      "vel": 46,
      "dur": 20930
    },
    {
      "t": 324.5,
      "ch": 7,
      "note": 48,
      "vel": 71,
      "dur": 80
    },
    {
      "t": 324.8,
      "ch": 7,
      "note": 45,
      "vel": 67,
      "dur": 80
    },
    {
      "t": 325.2,
      "ch": 7,
      "note": 48,
      "vel": 73,
      "dur": 80
    },
    {
      "t": 325.9,
      "ch": 7,
      "note": 48,
      "vel": 65,
      "dur": 80
    },
    {
      "t": 325.9,
      "ch": 7,
      "note": 45,
      "vel": 74,
      "dur": 80
    },
    {
      "t": 326.5,
      "ch": 7,
      "note": 48,
      "vel": 88,
      "dur": 80
    },
    {
      "t": 326.7,
      "ch": 7,
      "note": 45,
      "vel": 63,
      "dur": 80
    },
    {
      "t": 327.2,
      "ch": 4,
      "note": 63,
      "vel": 13,
      "dur": 5531
    },
    {
      "t": 327.2,
      "ch": 4,
      "note": 70,
      "vel": 15,
      "dur": 5531
    },
    {
      "t": 327.2,
      "ch": 3,
      "note": 46,
      "vel": 16,
      "dur": 5581
    },
    {
      "t": 327.2,
      "ch": 7,
      "note": 48,
      "vel": 75,
      "dur": 80
    },
    {
      "t": 327.6,
      "ch": 7,
      "note": 45,
      "vel": 52,
      "dur": 80
    },
    {
      "t": 327.9,
      "ch": 7,
      "note": 48,
      "vel": 83,
      "dur": 80
    },
    {
      "t": 328.6,
      "ch": 7,
      "note": 48,
      "vel": 70,
      "dur": 80
    },
    {
      "t": 328.6,
      "ch": 7,
      "note": 45,
      "vel": 77,
      "dur": 80
    },
    {
      "t": 329.1,
      "ch": 1,
      "note": 36,
      "vel": 47,
      "dur": 25
    },
    {
      "t": 329.1,
      "ch": 1,
      "note": 38,
      "vel": 33,
      "dur": 25
    },
    {
      "t": 329.1,
      "ch": 1,
      "note": 40,
      "vel": 43,
      "dur": 25
    },
    {
      "t": 329.1,
      "ch": 1,
      "note": 42,
      "vel": 61,
      "dur": 25
    },
    {
      "t": 329.1,
      "ch": 1,
      "note": 36,
      "vel": 34,
      "dur": 25
    },
    {
      "t": 329.1,
      "ch": 1,
      "note": 38,
      "vel": 41,
      "dur": 25
    },
    {
      "t": 329.1,
      "ch": 1,
      "note": 40,
      "vel": 37,
      "dur": 25
    },
    {
      "t": 329.1,
      "ch": 1,
      "note": 42,
      "vel": 36,
      "dur": 25
    },
    {
      "t": 329.1,
      "ch": 1,
      "note": 36,
      "vel": 27,
      "dur": 25
    },
    {
      "t": 329.1,
      "ch": 1,
      "note": 38,
      "vel": 30,
      "dur": 25
    },
    {
      "t": 329.1,
      "ch": 1,
      "note": 40,
      "vel": 39,
      "dur": 25
    },
    {
      "t": 329.1,
      "ch": 1,
      "note": 42,
      "vel": 50,
      "dur": 25
    },
    {
      "t": 329.1,
      "ch": 1,
      "note": 36,
      "vel": 43,
      "dur": 25
    },
    {
      "t": 329.1,
      "ch": 1,
      "note": 38,
      "vel": 32,
      "dur": 25
    },
    {
      "t": 329.1,
      "ch": 1,
      "note": 40,
      "vel": 36,
      "dur": 25
    },
    {
      "t": 329.1,
      "ch": 1,
      "note": 42,
      "vel": 49,
      "dur": 25
    },
    {
      "t": 329.1,
      "ch": 1,
      "note": 36,
      "vel": 40,
      "dur": 25
    },
    {
      "t": 329.1,
      "ch": 1,
      "note": 38,
      "vel": 57,
      "dur": 25
    },
    {
      "t": 329.1,
      "ch": 1,
      "note": 40,
      "vel": 33,
      "dur": 25
    },
    {
      "t": 329.1,
      "ch": 1,
      "note": 42,
      "vel": 29,
      "dur": 25
    },
    {
      "t": 329.1,
      "ch": 1,
      "note": 36,
      "vel": 60,
      "dur": 25
    },
    {
      "t": 329.1,
      "ch": 1,
      "note": 38,
      "vel": 34,
      "dur": 25
    },
    {
      "t": 329.1,
      "ch": 1,
      "note": 40,
      "vel": 49,
      "dur": 25
    },
    {
      "t": 329.1,
      "ch": 1,
      "note": 42,
      "vel": 49,
      "dur": 25
    },
    {
      "t": 329.1,
      "ch": 1,
      "note": 36,
      "vel": 45,
      "dur": 25
    },
    {
      "t": 329.1,
      "ch": 1,
      "note": 38,
      "vel": 33,
      "dur": 25
    },
    {
      "t": 329.1,
      "ch": 1,
      "note": 40,
      "vel": 35,
      "dur": 25
    },
    {
      "t": 329.1,
      "ch": 1,
      "note": 42,
      "vel": 33,
      "dur": 25
    },
    {
      "t": 329.1,
      "ch": 1,
      "note": 36,
      "vel": 61,
      "dur": 25
    },
    {
      "t": 329.1,
      "ch": 1,
      "note": 38,
      "vel": 53,
      "dur": 25
    },
    {
      "t": 329.1,
      "ch": 1,
      "note": 40,
      "vel": 45,
      "dur": 25
    },
    {
      "t": 329.1,
      "ch": 1,
      "note": 42,
      "vel": 36,
      "dur": 25
    },
    {
      "t": 329.2,
      "ch": 1,
      "note": 36,
      "vel": 30,
      "dur": 25
    },
    {
      "t": 329.3,
      "ch": 1,
      "note": 38,
      "vel": 38,
      "dur": 25
    },
    {
      "t": 329.3,
      "ch": 7,
      "note": 48,
      "vel": 80,
      "dur": 80
    },
    {
      "t": 329.5,
      "ch": 7,
      "note": 45,
      "vel": 61,
      "dur": 80
    },
    {
      "t": 329.5,
      "ch": 1,
      "note": 40,
      "vel": 48,
      "dur": 25
    },
    {
      "t": 329.7,
      "ch": 1,
      "note": 42,
      "vel": 57,
      "dur": 25
    },
    {
      "t": 329.9,
      "ch": 1,
      "note": 36,
      "vel": 51,
      "dur": 25
    },
    {
      "t": 330,
      "ch": 1,
      "note": 38,
      "vel": 70,
      "dur": 25
    },
    {
      "t": 330,
      "ch": 7,
      "note": 48,
      "vel": 79,
      "dur": 80
    },
    {
      "t": 330.2,
      "ch": 1,
      "note": 40,
      "vel": 47,
      "dur": 25
    },
    {
      "t": 330.4,
      "ch": 1,
      "note": 42,
      "vel": 61,
      "dur": 25
    },
    {
      "t": 330.4,
      "ch": 7,
      "note": 45,
      "vel": 69,
      "dur": 80
    },
    {
      "t": 330.6,
      "ch": 1,
      "note": 36,
      "vel": 63,
      "dur": 25
    },
    {
      "t": 330.7,
      "ch": 1,
      "note": 38,
      "vel": 63,
      "dur": 25
    },
    {
      "t": 330.7,
      "ch": 7,
      "note": 48,
      "vel": 61,
      "dur": 80
    },
    {
      "t": 330.9,
      "ch": 1,
      "note": 40,
      "vel": 62,
      "dur": 25
    },
    {
      "t": 331.1,
      "ch": 1,
      "note": 42,
      "vel": 45,
      "dur": 25
    },
    {
      "t": 331.3,
      "ch": 1,
      "note": 36,
      "vel": 72,
      "dur": 25
    },
    {
      "t": 331.4,
      "ch": 1,
      "note": 38,
      "vel": 58,
      "dur": 25
    },
    {
      "t": 331.4,
      "ch": 7,
      "note": 48,
      "vel": 62,
      "dur": 80
    },
    {
      "t": 331.4,
      "ch": 7,
      "note": 45,
      "vel": 72,
      "dur": 80
    },
    {
      "t": 331.6,
      "ch": 1,
      "note": 40,
      "vel": 52,
      "dur": 25
    },
    {
      "t": 331.8,
      "ch": 1,
      "note": 42,
      "vel": 53,
      "dur": 25
    },
    {
      "t": 332,
      "ch": 1,
      "note": 36,
      "vel": 34,
      "dur": 25
    },
    {
      "t": 332.1,
      "ch": 1,
      "note": 38,
      "vel": 33,
      "dur": 25
    },
    {
      "t": 332.1,
      "ch": 7,
      "note": 48,
      "vel": 81,
      "dur": 80
    },
    {
      "t": 332.3,
      "ch": 7,
      "note": 45,
      "vel": 72,
      "dur": 80
    },
    {
      "t": 332.3,
      "ch": 1,
      "note": 40,
      "vel": 66,
      "dur": 25
    },
    {
      "t": 332.5,
      "ch": 1,
      "note": 42,
      "vel": 27,
      "dur": 25
    },
    {
      "t": 332.7,
      "ch": 1,
      "note": 36,
      "vel": 31,
      "dur": 25
    },
    {
      "t": 332.7,
      "ch": 4,
      "note": 63,
      "vel": 18,
      "dur": 5531
    },
    {
      "t": 332.7,
      "ch": 4,
      "note": 70,
      "vel": 18,
      "dur": 5531
    },
    {
      "t": 332.7,
      "ch": 3,
      "note": 46,
      "vel": 20,
      "dur": 5581
    },
    {
      "t": 332.8,
      "ch": 1,
      "note": 38,
      "vel": 59,
      "dur": 25
    },
    {
      "t": 332.8,
      "ch": 7,
      "note": 48,
      "vel": 72,
      "dur": 80
    },
    {
      "t": 333,
      "ch": 1,
      "note": 40,
      "vel": 55,
      "dur": 25
    },
    {
      "t": 333,
      "ch": 5,
      "note": 61,
      "vel": 1,
      "dur": 1046
    },
    {
      "t": 333.2,
      "ch": 1,
      "note": 42,
      "vel": 51,
      "dur": 25
    },
    {
      "t": 333.2,
      "ch": 7,
      "note": 45,
      "vel": 62,
      "dur": 80
    },
    {
      "t": 333.2,
      "ch": 5,
      "note": 66,
      "vel": 7,
      "dur": 1045
    },
    {
      "t": 333.4,
      "ch": 1,
      "note": 36,
      "vel": 28,
      "dur": 25
    },
    {
      "t": 333.5,
      "ch": 1,
      "note": 38,
      "vel": 54,
      "dur": 25
    },
    {
      "t": 333.5,
      "ch": 7,
      "note": 48,
      "vel": 73,
      "dur": 80
    },
    {
      "t": 333.7,
      "ch": 1,
      "note": 40,
      "vel": 61,
      "dur": 25
    },
    {
      "t": 333.9,
      "ch": 1,
      "note": 42,
      "vel": 39,
      "dur": 25
    },
    {
      "t": 334.1,
      "ch": 1,
      "note": 36,
      "vel": 44,
      "dur": 25
    },
    {
      "t": 334.2,
      "ch": 1,
      "note": 38,
      "vel": 45,
      "dur": 25
    },
    {
      "t": 334.2,
      "ch": 7,
      "note": 48,
      "vel": 68,
      "dur": 80
    },
    {
      "t": 334.2,
      "ch": 7,
      "note": 45,
      "vel": 54,
      "dur": 80
    },
    {
      "t": 334.4,
      "ch": 1,
      "note": 40,
      "vel": 32,
      "dur": 25
    },
    {
      "t": 334.6,
      "ch": 1,
      "note": 42,
      "vel": 27,
      "dur": 25
    },
    {
      "t": 334.8,
      "ch": 1,
      "note": 36,
      "vel": 28,
      "dur": 25
    },
    {
      "t": 334.9,
      "ch": 1,
      "note": 38,
      "vel": 21,
      "dur": 25
    },
    {
      "t": 334.9,
      "ch": 7,
      "note": 48,
      "vel": 71,
      "dur": 80
    },
    {
      "t": 335.1,
      "ch": 1,
      "note": 40,
      "vel": 61,
      "dur": 25
    },
    {
      "t": 335.1,
      "ch": 7,
      "note": 45,
      "vel": 57,
      "dur": 80
    },
    {
      "t": 335.3,
      "ch": 1,
      "note": 42,
      "vel": 37,
      "dur": 25
    },
    {
      "t": 335.4,
      "ch": 1,
      "note": 36,
      "vel": 31,
      "dur": 25
    },
    {
      "t": 335.5,
      "ch": 2,
      "note": 56,
      "vel": 0,
      "dur": 0
    },
    {
      "t": 335.5,
      "ch": 2,
      "note": 58,
      "vel": 48,
      "dur": 20930
    },
    {
      "t": 335.5,
      "ch": 2,
      "note": 70,
      "vel": 34,
      "dur": 20930
    },
    {
      "t": 335.6,
      "ch": 1,
      "note": 38,
      "vel": 18,
      "dur": 25
    },
    {
      "t": 335.6,
      "ch": 7,
      "note": 48,
      "vel": 79,
      "dur": 80
    },
    {
      "t": 335.8,
      "ch": 1,
      "note": 40,
      "vel": 69,
      "dur": 25
    },
    {
      "t": 336,
      "ch": 1,
      "note": 42,
      "vel": 63,
      "dur": 25
    },
    {
      "t": 336,
      "ch": 7,
      "note": 45,
      "vel": 60,
      "dur": 80
    },
    {
      "t": 336.1,
      "ch": 1,
      "note": 36,
      "vel": 41,
      "dur": 25
    },
    {
      "t": 336.3,
      "ch": 1,
      "note": 38,
      "vel": 51,
      "dur": 25
    },
    {
      "t": 336.3,
      "ch": 7,
      "note": 48,
      "vel": 68,
      "dur": 80
    },
    {
      "t": 336.5,
      "ch": 1,
      "note": 40,
      "vel": 50,
      "dur": 25
    },
    {
      "t": 336.7,
      "ch": 1,
      "note": 42,
      "vel": 70,
      "dur": 25
    },
    {
      "t": 336.9,
      "ch": 1,
      "note": 36,
      "vel": 49,
      "dur": 25
    },
    {
      "t": 337,
      "ch": 0,
      "note": 36,
      "vel": 113,
      "dur": 55
    },
    {
      "t": 337,
      "ch": 1,
      "note": 38,
      "vel": 56,
      "dur": 25
    },
    {
      "t": 337,
      "ch": 7,
      "note": 48,
      "vel": 72,
      "dur": 80
    },
    {
      "t": 337,
      "ch": 7,
      "note": 45,
      "vel": 82,
      "dur": 80
    },
    {
      "t": 337.2,
      "ch": 1,
      "note": 40,
      "vel": 50,
      "dur": 25
    },
    {
      "t": 337.4,
      "ch": 1,
      "note": 42,
      "vel": 19,
      "dur": 25
    },
    {
      "t": 337.5,
      "ch": 1,
      "note": 36,
      "vel": 46,
      "dur": 25
    },
    {
      "t": 337.7,
      "ch": 1,
      "note": 38,
      "vel": 58,
      "dur": 25
    },
    {
      "t": 337.7,
      "ch": 7,
      "note": 48,
      "vel": 55,
      "dur": 80
    },
    {
      "t": 337.9,
      "ch": 7,
      "note": 45,
      "vel": 71,
      "dur": 80
    },
    {
      "t": 337.9,
      "ch": 1,
      "note": 40,
      "vel": 39,
      "dur": 25
    },
    {
      "t": 338.1,
      "ch": 1,
      "note": 42,
      "vel": 62,
      "dur": 25
    },
    {
      "t": 338.2,
      "ch": 1,
      "note": 36,
      "vel": 54,
      "dur": 25
    },
    {
      "t": 338.3,
      "ch": 4,
      "note": 63,
      "vel": 17,
      "dur": 5531
    },
    {
      "t": 338.3,
      "ch": 4,
      "note": 65,
      "vel": 18,
      "dur": 5531
    },
    {
      "t": 338.3,
      "ch": 3,
      "note": 39,
      "vel": 20,
      "dur": 5581
    },
    {
      "t": 338.4,
      "ch": 0,
      "note": 36,
      "vel": 94,
      "dur": 55
    },
    {
      "t": 338.4,
      "ch": 1,
      "note": 38,
      "vel": 37,
      "dur": 25
    },
    {
      "t": 338.4,
      "ch": 7,
      "note": 48,
      "vel": 75,
      "dur": 80
    },
    {
      "t": 338.6,
      "ch": 1,
      "note": 40,
      "vel": 39,
      "dur": 25
    },
    {
      "t": 338.8,
      "ch": 1,
      "note": 42,
      "vel": 45,
      "dur": 25
    },
    {
      "t": 338.8,
      "ch": 7,
      "note": 45,
      "vel": 61,
      "dur": 80
    },
    {
      "t": 338.9,
      "ch": 1,
      "note": 36,
      "vel": 43,
      "dur": 25
    },
    {
      "t": 339.1,
      "ch": 1,
      "note": 38,
      "vel": 52,
      "dur": 25
    },
    {
      "t": 339.1,
      "ch": 7,
      "note": 48,
      "vel": 79,
      "dur": 80
    },
    {
      "t": 339.3,
      "ch": 1,
      "note": 40,
      "vel": 34,
      "dur": 25
    },
    {
      "t": 339.5,
      "ch": 1,
      "note": 42,
      "vel": 43,
      "dur": 25
    },
    {
      "t": 339.6,
      "ch": 1,
      "note": 36,
      "vel": 46,
      "dur": 25
    },
    {
      "t": 339.8,
      "ch": 1,
      "note": 38,
      "vel": 51,
      "dur": 25
    },
    {
      "t": 339.8,
      "ch": 7,
      "note": 48,
      "vel": 67,
      "dur": 80
    },
    {
      "t": 339.8,
      "ch": 7,
      "note": 45,
      "vel": 58,
      "dur": 80
    },
    {
      "t": 340,
      "ch": 1,
      "note": 40,
      "vel": 43,
      "dur": 25
    },
    {
      "t": 340.1,
      "ch": 1,
      "note": 42,
      "vel": 36,
      "dur": 25
    },
    {
      "t": 340.3,
      "ch": 1,
      "note": 36,
      "vel": 59,
      "dur": 25
    },
    {
      "t": 340.5,
      "ch": 1,
      "note": 38,
      "vel": 62,
      "dur": 25
    },
    {
      "t": 340.5,
      "ch": 7,
      "note": 48,
      "vel": 71,
      "dur": 80
    },
    {
      "t": 340.7,
      "ch": 7,
      "note": 45,
      "vel": 58,
      "dur": 80
    },
    {
      "t": 340.7,
      "ch": 1,
      "note": 40,
      "vel": 36,
      "dur": 25
    },
    {
      "t": 340.8,
      "ch": 1,
      "note": 42,
      "vel": 29,
      "dur": 25
    },
    {
      "t": 341,
      "ch": 1,
      "note": 36,
      "vel": 66,
      "dur": 25
    },
    {
      "t": 341.2,
      "ch": 1,
      "note": 38,
      "vel": 65,
      "dur": 25
    },
    {
      "t": 341.2,
      "ch": 7,
      "note": 48,
      "vel": 82,
      "dur": 80
    },
    {
      "t": 341.4,
      "ch": 1,
      "note": 40,
      "vel": 16,
      "dur": 25
    },
    {
      "t": 341.5,
      "ch": 1,
      "note": 42,
      "vel": 73,
      "dur": 25
    },
    {
      "t": 341.6,
      "ch": 7,
      "note": 45,
      "vel": 64,
      "dur": 80
    },
    {
      "t": 341.7,
      "ch": 1,
      "note": 36,
      "vel": 55,
      "dur": 25
    },
    {
      "t": 341.9,
      "ch": 7,
      "note": 48,
      "vel": 73,
      "dur": 80
    },
    {
      "t": 342.6,
      "ch": 7,
      "note": 48,
      "vel": 60,
      "dur": 80
    },
    {
      "t": 342.6,
      "ch": 7,
      "note": 45,
      "vel": 68,
      "dur": 80
    },
    {
      "t": 343.3,
      "ch": 7,
      "note": 48,
      "vel": 65,
      "dur": 80
    },
    {
      "t": 343.5,
      "ch": 7,
      "note": 45,
      "vel": 68,
      "dur": 80
    },
    {
      "t": 343.9,
      "ch": 4,
      "note": 63,
      "vel": 15,
      "dur": 5531
    },
    {
      "t": 343.9,
      "ch": 4,
      "note": 66,
      "vel": 13,
      "dur": 2790
    },
    {
      "t": 343.9,
      "ch": 4,
      "note": 65,
      "vel": 15,
      "dur": 2740
    },
    {
      "t": 343.9,
      "ch": 3,
      "note": 53,
      "vel": 17,
      "dur": 5581
    },
    {
      "t": 344,
      "ch": 7,
      "note": 48,
      "vel": 80,
      "dur": 80
    },
    {
      "t": 344.3,
      "ch": 7,
      "note": 45,
      "vel": 59,
      "dur": 80
    },
    {
      "t": 344.7,
      "ch": 7,
      "note": 48,
      "vel": 65,
      "dur": 80
    },
    {
      "t": 345.4,
      "ch": 7,
      "note": 48,
      "vel": 66,
      "dur": 80
    },
    {
      "t": 345.4,
      "ch": 7,
      "note": 45,
      "vel": 62,
      "dur": 80
    },
    {
      "t": 346.1,
      "ch": 7,
      "note": 48,
      "vel": 75,
      "dur": 80
    },
    {
      "t": 346.3,
      "ch": 7,
      "note": 45,
      "vel": 66,
      "dur": 80
    },
    {
      "t": 346.7,
      "ch": 2,
      "note": 58,
      "vel": 47,
      "dur": 20930
    },
    {
      "t": 346.8,
      "ch": 7,
      "note": 48,
      "vel": 63,
      "dur": 80
    },
    {
      "t": 347.1,
      "ch": 7,
      "note": 45,
      "vel": 67,
      "dur": 80
    },
    {
      "t": 347.5,
      "ch": 7,
      "note": 48,
      "vel": 82,
      "dur": 80
    },
    {
      "t": 348.2,
      "ch": 7,
      "note": 48,
      "vel": 58,
      "dur": 80
    },
    {
      "t": 348.2,
      "ch": 7,
      "note": 45,
      "vel": 74,
      "dur": 80
    },
    {
      "t": 348.4,
      "ch": 5,
      "note": 68,
      "vel": 23,
      "dur": 1080
    },
    {
      "t": 348.9,
      "ch": 7,
      "note": 48,
      "vel": 66,
      "dur": 80
    },
    {
      "t": 349,
      "ch": 7,
      "note": 45,
      "vel": 61,
      "dur": 80
    },
    {
      "t": 349.5,
      "ch": 4,
      "note": 63,
      "vel": 15,
      "dur": 5531
    },
    {
      "t": 349.5,
      "ch": 4,
      "note": 65,
      "vel": 15,
      "dur": 5531
    },
    {
      "t": 349.5,
      "ch": 3,
      "note": 46,
      "vel": 17,
      "dur": 5581
    },
    {
      "t": 349.6,
      "ch": 7,
      "note": 48,
      "vel": 68,
      "dur": 80
    },
    {
      "t": 349.9,
      "ch": 7,
      "note": 45,
      "vel": 61,
      "dur": 80
    },
    {
      "t": 350.3,
      "ch": 7,
      "note": 48,
      "vel": 68,
      "dur": 80
    },
    {
      "t": 350.8,
      "ch": 5,
      "note": 65,
      "vel": 6,
      "dur": 1069
    },
    {
      "t": 351,
      "ch": 7,
      "note": 48,
      "vel": 72,
      "dur": 80
    },
    {
      "t": 351,
      "ch": 7,
      "note": 45,
      "vel": 62,
      "dur": 80
    },
    {
      "t": 351,
      "ch": 1,
      "note": 38,
      "vel": 40,
      "dur": 25
    },
    {
      "t": 351,
      "ch": 1,
      "note": 40,
      "vel": 54,
      "dur": 25
    },
    {
      "t": 351,
      "ch": 1,
      "note": 42,
      "vel": 32,
      "dur": 25
    },
    {
      "t": 351,
      "ch": 1,
      "note": 36,
      "vel": 42,
      "dur": 25
    },
    {
      "t": 351,
      "ch": 1,
      "note": 38,
      "vel": 36,
      "dur": 25
    },
    {
      "t": 351,
      "ch": 1,
      "note": 40,
      "vel": 32,
      "dur": 25
    },
    {
      "t": 351,
      "ch": 1,
      "note": 42,
      "vel": 76,
      "dur": 25
    },
    {
      "t": 351,
      "ch": 1,
      "note": 36,
      "vel": 25,
      "dur": 25
    },
    {
      "t": 351,
      "ch": 1,
      "note": 38,
      "vel": 61,
      "dur": 25
    },
    {
      "t": 351,
      "ch": 1,
      "note": 40,
      "vel": 70,
      "dur": 25
    },
    {
      "t": 351,
      "ch": 1,
      "note": 42,
      "vel": 66,
      "dur": 25
    },
    {
      "t": 351,
      "ch": 1,
      "note": 36,
      "vel": 36,
      "dur": 25
    },
    {
      "t": 351,
      "ch": 1,
      "note": 38,
      "vel": 59,
      "dur": 25
    },
    {
      "t": 351,
      "ch": 1,
      "note": 40,
      "vel": 27,
      "dur": 25
    },
    {
      "t": 351,
      "ch": 1,
      "note": 42,
      "vel": 52,
      "dur": 25
    },
    {
      "t": 351,
      "ch": 1,
      "note": 36,
      "vel": 20,
      "dur": 25
    },
    {
      "t": 351,
      "ch": 1,
      "note": 38,
      "vel": 26,
      "dur": 25
    },
    {
      "t": 351,
      "ch": 1,
      "note": 40,
      "vel": 40,
      "dur": 25
    },
    {
      "t": 351,
      "ch": 1,
      "note": 42,
      "vel": 54,
      "dur": 25
    },
    {
      "t": 351,
      "ch": 1,
      "note": 36,
      "vel": 58,
      "dur": 25
    },
    {
      "t": 351,
      "ch": 1,
      "note": 38,
      "vel": 34,
      "dur": 25
    },
    {
      "t": 351,
      "ch": 1,
      "note": 40,
      "vel": 60,
      "dur": 25
    },
    {
      "t": 351,
      "ch": 1,
      "note": 42,
      "vel": 40,
      "dur": 25
    },
    {
      "t": 351,
      "ch": 1,
      "note": 36,
      "vel": 42,
      "dur": 25
    },
    {
      "t": 351,
      "ch": 1,
      "note": 38,
      "vel": 69,
      "dur": 25
    },
    {
      "t": 351,
      "ch": 1,
      "note": 40,
      "vel": 39,
      "dur": 25
    },
    {
      "t": 351,
      "ch": 1,
      "note": 42,
      "vel": 36,
      "dur": 25
    },
    {
      "t": 351.3,
      "ch": 1,
      "note": 36,
      "vel": 33,
      "dur": 25
    },
    {
      "t": 351.3,
      "ch": 1,
      "note": 38,
      "vel": 38,
      "dur": 25
    },
    {
      "t": 351.6,
      "ch": 1,
      "note": 40,
      "vel": 48,
      "dur": 25
    },
    {
      "t": 351.7,
      "ch": 1,
      "note": 42,
      "vel": 36,
      "dur": 25
    },
    {
      "t": 351.7,
      "ch": 7,
      "note": 48,
      "vel": 66,
      "dur": 80
    },
    {
      "t": 351.9,
      "ch": 7,
      "note": 45,
      "vel": 75,
      "dur": 80
    },
    {
      "t": 352,
      "ch": 1,
      "note": 36,
      "vel": 42,
      "dur": 25
    },
    {
      "t": 352,
      "ch": 1,
      "note": 38,
      "vel": 47,
      "dur": 25
    },
    {
      "t": 352.3,
      "ch": 1,
      "note": 40,
      "vel": 49,
      "dur": 25
    },
    {
      "t": 352.4,
      "ch": 1,
      "note": 42,
      "vel": 63,
      "dur": 25
    },
    {
      "t": 352.4,
      "ch": 7,
      "note": 48,
      "vel": 68,
      "dur": 80
    },
    {
      "t": 352.7,
      "ch": 1,
      "note": 36,
      "vel": 28,
      "dur": 25
    },
    {
      "t": 352.7,
      "ch": 1,
      "note": 38,
      "vel": 45,
      "dur": 25
    },
    {
      "t": 352.7,
      "ch": 7,
      "note": 45,
      "vel": 63,
      "dur": 80
    },
    {
      "t": 353,
      "ch": 1,
      "note": 40,
      "vel": 17,
      "dur": 25
    },
    {
      "t": 353.1,
      "ch": 1,
      "note": 42,
      "vel": 50,
      "dur": 25
    },
    {
      "t": 353.1,
      "ch": 7,
      "note": 48,
      "vel": 71,
      "dur": 80
    },
    {
      "t": 353.3,
      "ch": 1,
      "note": 36,
      "vel": 53,
      "dur": 25
    },
    {
      "t": 353.4,
      "ch": 1,
      "note": 38,
      "vel": 49,
      "dur": 25
    },
    {
      "t": 353.7,
      "ch": 1,
      "note": 40,
      "vel": 55,
      "dur": 25
    },
    {
      "t": 353.8,
      "ch": 1,
      "note": 42,
      "vel": 29,
      "dur": 25
    },
    {
      "t": 353.8,
      "ch": 7,
      "note": 48,
      "vel": 75,
      "dur": 80
    },
    {
      "t": 353.8,
      "ch": 7,
      "note": 45,
      "vel": 67,
      "dur": 80
    },
    {
      "t": 354,
      "ch": 1,
      "note": 36,
      "vel": 45,
      "dur": 25
    },
    {
      "t": 354.1,
      "ch": 1,
      "note": 38,
      "vel": 36,
      "dur": 25
    },
    {
      "t": 354.3,
      "ch": 5,
      "note": 70,
      "vel": 1,
      "dur": 1046
    },
    {
      "t": 354.4,
      "ch": 1,
      "note": 40,
      "vel": 26,
      "dur": 25
    },
    {
      "t": 354.5,
      "ch": 1,
      "note": 42,
      "vel": 60,
      "dur": 25
    },
    {
      "t": 354.5,
      "ch": 7,
      "note": 48,
      "vel": 80,
      "dur": 80
    },
    {
      "t": 354.6,
      "ch": 7,
      "note": 45,
      "vel": 66,
      "dur": 80
    },
    {
      "t": 354.8,
      "ch": 1,
      "note": 36,
      "vel": 46,
      "dur": 25
    },
    {
      "t": 354.8,
      "ch": 1,
      "note": 38,
      "vel": 50,
      "dur": 25
    },
    {
      "t": 355.1,
      "ch": 4,
      "note": 65,
      "vel": 19,
      "dur": 5531
    },
    {
      "t": 355.1,
      "ch": 4,
      "note": 68,
      "vel": 34,
      "dur": 5531
    },
    {
      "t": 355.1,
      "ch": 3,
      "note": 46,
      "vel": 21,
      "dur": 5581
    },
    {
      "t": 355.1,
      "ch": 1,
      "note": 40,
      "vel": 44,
      "dur": 25
    },
    {
      "t": 355.1,
      "ch": 1,
      "note": 42,
      "vel": 72,
      "dur": 25
    },
    {
      "t": 355.1,
      "ch": 7,
      "note": 48,
      "vel": 72,
      "dur": 80
    },
    {
      "t": 355.4,
      "ch": 1,
      "note": 36,
      "vel": 43,
      "dur": 25
    },
    {
      "t": 355.5,
      "ch": 1,
      "note": 38,
      "vel": 44,
      "dur": 25
    },
    {
      "t": 355.5,
      "ch": 7,
      "note": 45,
      "vel": 60,
      "dur": 80
    },
    {
      "t": 355.8,
      "ch": 1,
      "note": 40,
      "vel": 57,
      "dur": 25
    },
    {
      "t": 355.8,
      "ch": 1,
      "note": 42,
      "vel": 36,
      "dur": 25
    },
    {
      "t": 355.8,
      "ch": 7,
      "note": 48,
      "vel": 70,
      "dur": 80
    },
    {
      "t": 356.1,
      "ch": 1,
      "note": 36,
      "vel": 47,
      "dur": 25
    },
    {
      "t": 356.2,
      "ch": 1,
      "note": 38,
      "vel": 58,
      "dur": 25
    },
    {
      "t": 356.5,
      "ch": 1,
      "note": 40,
      "vel": 31,
      "dur": 25
    },
    {
      "t": 356.6,
      "ch": 1,
      "note": 42,
      "vel": 57,
      "dur": 25
    },
    {
      "t": 356.6,
      "ch": 7,
      "note": 48,
      "vel": 80,
      "dur": 80
    },
    {
      "t": 356.6,
      "ch": 7,
      "note": 45,
      "vel": 65,
      "dur": 80
    },
    {
      "t": 356.9,
      "ch": 1,
      "note": 36,
      "vel": 46,
      "dur": 25
    },
    {
      "t": 356.9,
      "ch": 1,
      "note": 38,
      "vel": 40,
      "dur": 25
    },
    {
      "t": 357.2,
      "ch": 1,
      "note": 40,
      "vel": 28,
      "dur": 25
    },
    {
      "t": 357.2,
      "ch": 1,
      "note": 42,
      "vel": 44,
      "dur": 25
    },
    {
      "t": 357.2,
      "ch": 7,
      "note": 48,
      "vel": 70,
      "dur": 80
    },
    {
      "t": 357.4,
      "ch": 7,
      "note": 45,
      "vel": 65,
      "dur": 80
    },
    {
      "t": 357.5,
      "ch": 1,
      "note": 36,
      "vel": 56,
      "dur": 25
    },
    {
      "t": 357.6,
      "ch": 1,
      "note": 38,
      "vel": 40,
      "dur": 25
    },
    {
      "t": 357.9,
      "ch": 2,
      "note": 58,
      "vel": 49,
      "dur": 20930
    },
    {
      "t": 357.9,
      "ch": 2,
      "note": 70,
      "vel": 34,
      "dur": 20930
    },
    {
      "t": 357.9,
      "ch": 1,
      "note": 40,
      "vel": 53,
      "dur": 25
    },
    {
      "t": 357.9,
      "ch": 1,
      "note": 42,
      "vel": 56,
      "dur": 25
    },
    {
      "t": 357.9,
      "ch": 7,
      "note": 48,
      "vel": 65,
      "dur": 80
    },
    {
      "t": 358.2,
      "ch": 1,
      "note": 36,
      "vel": 51,
      "dur": 25
    },
    {
      "t": 358.3,
      "ch": 1,
      "note": 38,
      "vel": 66,
      "dur": 25
    },
    {
      "t": 358.3,
      "ch": 7,
      "note": 45,
      "vel": 65,
      "dur": 80
    },
    {
      "t": 358.6,
      "ch": 1,
      "note": 40,
      "vel": 60,
      "dur": 25
    },
    {
      "t": 358.6,
      "ch": 1,
      "note": 42,
      "vel": 25,
      "dur": 25
    },
    {
      "t": 358.6,
      "ch": 7,
      "note": 48,
      "vel": 73,
      "dur": 80
    },
    {
      "t": 358.9,
      "ch": 1,
      "note": 36,
      "vel": 30,
      "dur": 25
    },
    {
      "t": 359,
      "ch": 1,
      "note": 38,
      "vel": 29,
      "dur": 25
    },
    {
      "t": 359.3,
      "ch": 1,
      "note": 40,
      "vel": 50,
      "dur": 25
    },
    {
      "t": 359.3,
      "ch": 0,
      "note": 36,
      "vel": 113,
      "dur": 55
    },
    {
      "t": 359.3,
      "ch": 1,
      "note": 42,
      "vel": 44,
      "dur": 25
    },
    {
      "t": 359.3,
      "ch": 7,
      "note": 48,
      "vel": 72,
      "dur": 80
    },
    {
      "t": 359.3,
      "ch": 7,
      "note": 45,
      "vel": 62,
      "dur": 80
    },
    {
      "t": 359.6,
      "ch": 1,
      "note": 36,
      "vel": 44,
      "dur": 25
    },
    {
      "t": 359.7,
      "ch": 1,
      "note": 38,
      "vel": 41,
      "dur": 25
    },
    {
      "t": 360,
      "ch": 1,
      "note": 40,
      "vel": 36,
      "dur": 25
    },
    {
      "t": 360,
      "ch": 1,
      "note": 42,
      "vel": 23,
      "dur": 25
    },
    {
      "t": 360,
      "ch": 7,
      "note": 48,
      "vel": 62,
      "dur": 80
    },
    {
      "t": 360.2,
      "ch": 7,
      "note": 45,
      "vel": 58,
      "dur": 80
    },
    {
      "t": 360.3,
      "ch": 1,
      "note": 36,
      "vel": 34,
      "dur": 25
    },
    {
      "t": 360.4,
      "ch": 1,
      "note": 38,
      "vel": 70,
      "dur": 25
    },
    {
      "t": 360.6,
      "ch": 4,
      "note": 66,
      "vel": 18,
      "dur": 2790
    },
    {
      "t": 360.6,
      "ch": 4,
      "note": 65,
      "vel": 20,
      "dur": 2740
    },
    {
      "t": 360.6,
      "ch": 4,
      "note": 70,
      "vel": 18,
      "dur": 5531
    },
    {
      "t": 360.6,
      "ch": 3,
      "note": 46,
      "vel": 22,
      "dur": 5581
    },
    {
      "t": 360.7,
      "ch": 1,
      "note": 40,
      "vel": 50,
      "dur": 25
    },
    {
      "t": 360.7,
      "ch": 0,
      "note": 36,
      "vel": 85,
      "dur": 55
    },
    {
      "t": 360.7,
      "ch": 1,
      "note": 42,
      "vel": 64,
      "dur": 25
    },
    {
      "t": 360.7,
      "ch": 7,
      "note": 48,
      "vel": 67,
      "dur": 80
    },
    {
      "t": 361,
      "ch": 1,
      "note": 36,
      "vel": 68,
      "dur": 25
    },
    {
      "t": 361.1,
      "ch": 1,
      "note": 38,
      "vel": 41,
      "dur": 25
    },
    {
      "t": 361.1,
      "ch": 7,
      "note": 45,
      "vel": 53,
      "dur": 80
    },
    {
      "t": 361.4,
      "ch": 1,
      "note": 40,
      "vel": 35,
      "dur": 25
    },
    {
      "t": 361.4,
      "ch": 1,
      "note": 42,
      "vel": 63,
      "dur": 25
    },
    {
      "t": 361.4,
      "ch": 7,
      "note": 48,
      "vel": 63,
      "dur": 80
    },
    {
      "t": 361.7,
      "ch": 1,
      "note": 36,
      "vel": 31,
      "dur": 25
    },
    {
      "t": 361.8,
      "ch": 1,
      "note": 38,
      "vel": 33,
      "dur": 25
    },
    {
      "t": 362.1,
      "ch": 1,
      "note": 40,
      "vel": 23,
      "dur": 25
    },
    {
      "t": 362.1,
      "ch": 1,
      "note": 42,
      "vel": 39,
      "dur": 25
    },
    {
      "t": 362.1,
      "ch": 7,
      "note": 48,
      "vel": 61,
      "dur": 80
    },
    {
      "t": 362.1,
      "ch": 7,
      "note": 45,
      "vel": 63,
      "dur": 80
    },
    {
      "t": 362.4,
      "ch": 1,
      "note": 36,
      "vel": 31,
      "dur": 25
    },
    {
      "t": 362.5,
      "ch": 1,
      "note": 38,
      "vel": 44,
      "dur": 25
    },
    {
      "t": 362.8,
      "ch": 1,
      "note": 40,
      "vel": 23,
      "dur": 25
    },
    {
      "t": 362.8,
      "ch": 1,
      "note": 42,
      "vel": 73,
      "dur": 25
    },
    {
      "t": 362.8,
      "ch": 7,
      "note": 48,
      "vel": 67,
      "dur": 80
    },
    {
      "t": 363,
      "ch": 7,
      "note": 45,
      "vel": 54,
      "dur": 80
    },
    {
      "t": 363.1,
      "ch": 1,
      "note": 36,
      "vel": 39,
      "dur": 25
    },
    {
      "t": 363.2,
      "ch": 1,
      "note": 38,
      "vel": 17,
      "dur": 25
    },
    {
      "t": 363.5,
      "ch": 1,
      "note": 40,
      "vel": 35,
      "dur": 25
    },
    {
      "t": 363.5,
      "ch": 1,
      "note": 42,
      "vel": 49,
      "dur": 25
    },
    {
      "t": 363.5,
      "ch": 7,
      "note": 48,
      "vel": 80,
      "dur": 80
    },
    {
      "t": 363.8,
      "ch": 1,
      "note": 36,
      "vel": 51,
      "dur": 25
    },
    {
      "t": 363.9,
      "ch": 1,
      "note": 38,
      "vel": 42,
      "dur": 25
    },
    {
      "t": 363.9,
      "ch": 7,
      "note": 45,
      "vel": 56,
      "dur": 80
    },
    {
      "t": 364.2,
      "ch": 1,
      "note": 40,
      "vel": 58,
      "dur": 25
    },
    {
      "t": 364.2,
      "ch": 1,
      "note": 42,
      "vel": 41,
      "dur": 25
    },
    {
      "t": 364.2,
      "ch": 7,
      "note": 48,
      "vel": 59,
      "dur": 80
    },
    {
      "t": 364.5,
      "ch": 1,
      "note": 36,
      "vel": 48,
      "dur": 25
    },
    {
      "t": 364.6,
      "ch": 1,
      "note": 38,
      "vel": 69,
      "dur": 25
    },
    {
      "t": 364.9,
      "ch": 1,
      "note": 40,
      "vel": 42,
      "dur": 25
    },
    {
      "t": 364.9,
      "ch": 1,
      "note": 42,
      "vel": 38,
      "dur": 25
    },
    {
      "t": 364.9,
      "ch": 7,
      "note": 48,
      "vel": 68,
      "dur": 80
    },
    {
      "t": 364.9,
      "ch": 7,
      "note": 45,
      "vel": 68,
      "dur": 80
    },
    {
      "t": 365.2,
      "ch": 1,
      "note": 36,
      "vel": 42,
      "dur": 25
    },
    {
      "t": 365.3,
      "ch": 1,
      "note": 38,
      "vel": 37,
      "dur": 25
    },
    {
      "t": 365.5,
      "ch": 5,
      "note": 61,
      "vel": 2,
      "dur": 1062
    },
    {
      "t": 365.6,
      "ch": 1,
      "note": 40,
      "vel": 35,
      "dur": 25
    },
    {
      "t": 365.6,
      "ch": 1,
      "note": 42,
      "vel": 42,
      "dur": 25
    },
    {
      "t": 365.6,
      "ch": 7,
      "note": 48,
      "vel": 59,
      "dur": 80
    },
    {
      "t": 365.8,
      "ch": 7,
      "note": 45,
      "vel": 57,
      "dur": 80
    },
    {
      "t": 365.9,
      "ch": 1,
      "note": 36,
      "vel": 59,
      "dur": 25
    },
    {
      "t": 366,
      "ch": 1,
      "note": 38,
      "vel": 42,
      "dur": 25
    },
    {
      "t": 366.2,
      "ch": 4,
      "note": 65,
      "vel": 17,
      "dur": 5531
    },
    {
      "t": 366.2,
      "ch": 4,
      "note": 63,
      "vel": 17,
      "dur": 5531
    },
    {
      "t": 366.2,
      "ch": 3,
      "note": 41,
      "vel": 19,
      "dur": 5581
    },
    {
      "t": 366.3,
      "ch": 1,
      "note": 40,
      "vel": 44,
      "dur": 25
    },
    {
      "t": 366.3,
      "ch": 1,
      "note": 42,
      "vel": 36,
      "dur": 25
    },
    {
      "t": 366.3,
      "ch": 7,
      "note": 48,
      "vel": 72,
      "dur": 80
    },
    {
      "t": 366.7,
      "ch": 7,
      "note": 45,
      "vel": 59,
      "dur": 80
    },
    {
      "t": 367,
      "ch": 7,
      "note": 48,
      "vel": 61,
      "dur": 80
    },
    {
      "t": 367.7,
      "ch": 7,
      "note": 48,
      "vel": 66,
      "dur": 80
    },
    {
      "t": 367.7,
      "ch": 7,
      "note": 45,
      "vel": 77,
      "dur": 80
    },
    {
      "t": 368.4,
      "ch": 7,
      "note": 48,
      "vel": 72,
      "dur": 80
    },
    {
      "t": 368.6,
      "ch": 7,
      "note": 45,
      "vel": 65,
      "dur": 80
    },
    {
      "t": 369.1,
      "ch": 7,
      "note": 48,
      "vel": 78,
      "dur": 80
    },
    {
      "t": 369.5,
      "ch": 7,
      "note": 45,
      "vel": 72,
      "dur": 80
    },
    {
      "t": 369.8,
      "ch": 7,
      "note": 48,
      "vel": 75,
      "dur": 80
    },
    {
      "t": 370.5,
      "ch": 7,
      "note": 48,
      "vel": 76,
      "dur": 80
    },
    {
      "t": 370.5,
      "ch": 7,
      "note": 45,
      "vel": 73,
      "dur": 80
    },
    {
      "t": 371.2,
      "ch": 7,
      "note": 48,
      "vel": 67,
      "dur": 80
    },
    {
      "t": 371.4,
      "ch": 7,
      "note": 45,
      "vel": 61,
      "dur": 80
    },
    {
      "t": 371.8,
      "ch": 4,
      "note": 66,
      "vel": 16,
      "dur": 5531
    },
    {
      "t": 371.8,
      "ch": 4,
      "note": 63,
      "vel": 17,
      "dur": 5531
    },
    {
      "t": 371.8,
      "ch": 3,
      "note": 41,
      "vel": 19,
      "dur": 5581
    },
    {
      "t": 371.9,
      "ch": 7,
      "note": 48,
      "vel": 76,
      "dur": 80
    },
    {
      "t": 372.2,
      "ch": 7,
      "note": 45,
      "vel": 57,
      "dur": 80
    },
    {
      "t": 372.3,
      "ch": 1,
      "note": 36,
      "vel": 63,
      "dur": 25
    },
    {
      "t": 372.3,
      "ch": 1,
      "note": 38,
      "vel": 61,
      "dur": 25
    },
    {
      "t": 372.3,
      "ch": 1,
      "note": 40,
      "vel": 42,
      "dur": 25
    },
    {
      "t": 372.3,
      "ch": 1,
      "note": 42,
      "vel": 53,
      "dur": 25
    },
    {
      "t": 372.3,
      "ch": 1,
      "note": 36,
      "vel": 51,
      "dur": 25
    },
    {
      "t": 372.3,
      "ch": 1,
      "note": 38,
      "vel": 48,
      "dur": 25
    },
    {
      "t": 372.3,
      "ch": 1,
      "note": 40,
      "vel": 32,
      "dur": 25
    },
    {
      "t": 372.3,
      "ch": 1,
      "note": 42,
      "vel": 46,
      "dur": 25
    },
    {
      "t": 372.3,
      "ch": 1,
      "note": 36,
      "vel": 43,
      "dur": 25
    },
    {
      "t": 372.3,
      "ch": 1,
      "note": 38,
      "vel": 63,
      "dur": 25
    },
    {
      "t": 372.3,
      "ch": 1,
      "note": 40,
      "vel": 50,
      "dur": 25
    },
    {
      "t": 372.3,
      "ch": 1,
      "note": 42,
      "vel": 60,
      "dur": 25
    },
    {
      "t": 372.3,
      "ch": 1,
      "note": 36,
      "vel": 48,
      "dur": 25
    },
    {
      "t": 372.3,
      "ch": 1,
      "note": 38,
      "vel": 41,
      "dur": 25
    },
    {
      "t": 372.3,
      "ch": 1,
      "note": 40,
      "vel": 31,
      "dur": 25
    },
    {
      "t": 372.3,
      "ch": 1,
      "note": 42,
      "vel": 40,
      "dur": 25
    },
    {
      "t": 372.3,
      "ch": 1,
      "note": 36,
      "vel": 44,
      "dur": 25
    },
    {
      "t": 372.4,
      "ch": 1,
      "note": 38,
      "vel": 31,
      "dur": 25
    },
    {
      "t": 372.6,
      "ch": 1,
      "note": 40,
      "vel": 50,
      "dur": 25
    },
    {
      "t": 372.6,
      "ch": 7,
      "note": 48,
      "vel": 71,
      "dur": 80
    },
    {
      "t": 372.7,
      "ch": 1,
      "note": 42,
      "vel": 28,
      "dur": 25
    },
    {
      "t": 372.9,
      "ch": 1,
      "note": 36,
      "vel": 58,
      "dur": 25
    },
    {
      "t": 373.1,
      "ch": 1,
      "note": 38,
      "vel": 29,
      "dur": 25
    },
    {
      "t": 373.3,
      "ch": 1,
      "note": 40,
      "vel": 42,
      "dur": 25
    },
    {
      "t": 373.3,
      "ch": 7,
      "note": 48,
      "vel": 63,
      "dur": 80
    },
    {
      "t": 373.3,
      "ch": 7,
      "note": 45,
      "vel": 67,
      "dur": 80
    },
    {
      "t": 373.4,
      "ch": 1,
      "note": 42,
      "vel": 60,
      "dur": 25
    },
    {
      "t": 373.6,
      "ch": 1,
      "note": 36,
      "vel": 55,
      "dur": 25
    },
    {
      "t": 373.8,
      "ch": 1,
      "note": 38,
      "vel": 25,
      "dur": 25
    },
    {
      "t": 374,
      "ch": 1,
      "note": 40,
      "vel": 37,
      "dur": 25
    },
    {
      "t": 374,
      "ch": 7,
      "note": 48,
      "vel": 72,
      "dur": 80
    },
    {
      "t": 374.2,
      "ch": 1,
      "note": 42,
      "vel": 38,
      "dur": 25
    },
    {
      "t": 374.2,
      "ch": 7,
      "note": 45,
      "vel": 64,
      "dur": 80
    },
    {
      "t": 374.3,
      "ch": 1,
      "note": 36,
      "vel": 45,
      "dur": 25
    },
    {
      "t": 374.5,
      "ch": 1,
      "note": 38,
      "vel": 25,
      "dur": 25
    },
    {
      "t": 374.7,
      "ch": 1,
      "note": 40,
      "vel": 44,
      "dur": 25
    },
    {
      "t": 374.7,
      "ch": 7,
      "note": 48,
      "vel": 61,
      "dur": 80
    },
    {
      "t": 374.8,
      "ch": 1,
      "note": 42,
      "vel": 53,
      "dur": 25
    },
    {
      "t": 375,
      "ch": 1,
      "note": 36,
      "vel": 35,
      "dur": 25
    },
    {
      "t": 375,
      "ch": 7,
      "note": 45,
      "vel": 74,
      "dur": 80
    },
    {
      "t": 375.2,
      "ch": 1,
      "note": 38,
      "vel": 58,
      "dur": 25
    },
    {
      "t": 375.4,
      "ch": 1,
      "note": 40,
      "vel": 50,
      "dur": 25
    },
    {
      "t": 375.4,
      "ch": 7,
      "note": 48,
      "vel": 81,
      "dur": 80
    },
    {
      "t": 375.5,
      "ch": 1,
      "note": 42,
      "vel": 43,
      "dur": 25
    },
    {
      "t": 375.7,
      "ch": 1,
      "note": 36,
      "vel": 28,
      "dur": 25
    },
    {
      "t": 375.9,
      "ch": 1,
      "note": 38,
      "vel": 59,
      "dur": 25
    },
    {
      "t": 376.1,
      "ch": 1,
      "note": 40,
      "vel": 45,
      "dur": 25
    },
    {
      "t": 376.1,
      "ch": 7,
      "note": 48,
      "vel": 81,
      "dur": 80
    },
    {
      "t": 376.1,
      "ch": 7,
      "note": 45,
      "vel": 65,
      "dur": 80
    },
    {
      "t": 376.2,
      "ch": 1,
      "note": 42,
      "vel": 58,
      "dur": 25
    },
    {
      "t": 376.4,
      "ch": 1,
      "note": 36,
      "vel": 42,
      "dur": 25
    },
    {
      "t": 376.6,
      "ch": 1,
      "note": 38,
      "vel": 18,
      "dur": 25
    },
    {
      "t": 376.8,
      "ch": 1,
      "note": 40,
      "vel": 47,
      "dur": 25
    },
    {
      "t": 376.8,
      "ch": 7,
      "note": 48,
      "vel": 75,
      "dur": 80
    },
    {
      "t": 376.9,
      "ch": 1,
      "note": 42,
      "vel": 51,
      "dur": 25
    },
    {
      "t": 377,
      "ch": 7,
      "note": 45,
      "vel": 70,
      "dur": 80
    },
    {
      "t": 377.1,
      "ch": 1,
      "note": 36,
      "vel": 43,
      "dur": 25
    },
    {
      "t": 377.3,
      "ch": 1,
      "note": 38,
      "vel": 48,
      "dur": 25
    },
    {
      "t": 377.4,
      "ch": 4,
      "note": 68,
      "vel": 36,
      "dur": 5531
    },
    {
      "t": 377.4,
      "ch": 4,
      "note": 63,
      "vel": 20,
      "dur": 5531
    },
    {
      "t": 377.4,
      "ch": 3,
      "note": 39,
      "vel": 23,
      "dur": 5581
    },
    {
      "t": 377.5,
      "ch": 1,
      "note": 40,
      "vel": 60,
      "dur": 25
    },
    {
      "t": 377.5,
      "ch": 7,
      "note": 48,
      "vel": 81,
      "dur": 80
    },
    {
      "t": 377.6,
      "ch": 1,
      "note": 42,
      "vel": 38,
      "dur": 25
    },
    {
      "t": 377.8,
      "ch": 1,
      "note": 36,
      "vel": 45,
      "dur": 25
    },
    {
      "t": 377.8,
      "ch": 7,
      "note": 45,
      "vel": 62,
      "dur": 80
    },
    {
      "t": 378,
      "ch": 1,
      "note": 38,
      "vel": 48,
      "dur": 25
    },
    {
      "t": 378.2,
      "ch": 1,
      "note": 40,
      "vel": 47,
      "dur": 25
    },
    {
      "t": 378.2,
      "ch": 7,
      "note": 48,
      "vel": 68,
      "dur": 80
    },
    {
      "t": 378.3,
      "ch": 1,
      "note": 42,
      "vel": 30,
      "dur": 25
    },
    {
      "t": 378.5,
      "ch": 1,
      "note": 36,
      "vel": 35,
      "dur": 25
    },
    {
      "t": 378.7,
      "ch": 1,
      "note": 38,
      "vel": 44,
      "dur": 25
    },
    {
      "t": 378.9,
      "ch": 1,
      "note": 40,
      "vel": 66,
      "dur": 25
    },
    {
      "t": 378.9,
      "ch": 7,
      "note": 48,
      "vel": 71,
      "dur": 80
    },
    {
      "t": 378.9,
      "ch": 7,
      "note": 45,
      "vel": 73,
      "dur": 80
    },
    {
      "t": 379,
      "ch": 1,
      "note": 42,
      "vel": 66,
      "dur": 25
    },
    {
      "t": 379.2,
      "ch": 1,
      "note": 36,
      "vel": 19,
      "dur": 25
    },
    {
      "t": 379.4,
      "ch": 1,
      "note": 38,
      "vel": 27,
      "dur": 25
    },
    {
      "t": 379.6,
      "ch": 1,
      "note": 40,
      "vel": 58,
      "dur": 25
    },
    {
      "t": 379.6,
      "ch": 7,
      "note": 48,
      "vel": 70,
      "dur": 80
    },
    {
      "t": 379.7,
      "ch": 1,
      "note": 42,
      "vel": 39,
      "dur": 25
    },
    {
      "t": 379.8,
      "ch": 7,
      "note": 45,
      "vel": 63,
      "dur": 80
    },
    {
      "t": 379.9,
      "ch": 1,
      "note": 36,
      "vel": 47,
      "dur": 25
    },
    {
      "t": 380.1,
      "ch": 1,
      "note": 38,
      "vel": 34,
      "dur": 25
    },
    {
      "t": 380.2,
      "ch": 2,
      "note": 58,
      "vel": 0,
      "dur": 0
    },
    {
      "t": 380.2,
      "ch": 2,
      "note": 70,
      "vel": 0,
      "dur": 0
    },
    {
      "t": 380.2,
      "ch": 2,
      "note": 56,
      "vel": 49,
      "dur": 20930
    },
    {
      "t": 380.2,
      "ch": 2,
      "note": 68,
      "vel": 34,
      "dur": 20930
    },
    {
      "t": 380.3,
      "ch": 1,
      "note": 40,
      "vel": 23,
      "dur": 25
    },
    {
      "t": 380.3,
      "ch": 7,
      "note": 48,
      "vel": 76,
      "dur": 80
    },
    {
      "t": 380.4,
      "ch": 1,
      "note": 42,
      "vel": 49,
      "dur": 25
    },
    {
      "t": 380.5,
      "ch": 6,
      "note": 80,
      "vel": 21,
      "dur": 683
    },
    {
      "t": 380.6,
      "ch": 1,
      "note": 36,
      "vel": 60,
      "dur": 25
    },
    {
      "t": 380.6,
      "ch": 7,
      "note": 45,
      "vel": 60,
      "dur": 80
    },
    {
      "t": 380.8,
      "ch": 1,
      "note": 38,
      "vel": 34,
      "dur": 25
    },
    {
      "t": 381,
      "ch": 1,
      "note": 40,
      "vel": 49,
      "dur": 25
    },
    {
      "t": 381,
      "ch": 7,
      "note": 48,
      "vel": 63,
      "dur": 80
    },
    {
      "t": 381.1,
      "ch": 1,
      "note": 42,
      "vel": 57,
      "dur": 25
    },
    {
      "t": 381.3,
      "ch": 1,
      "note": 36,
      "vel": 57,
      "dur": 25
    },
    {
      "t": 381.5,
      "ch": 1,
      "note": 38,
      "vel": 46,
      "dur": 25
    },
    {
      "t": 381.5,
      "ch": 6,
      "note": 68,
      "vel": 37,
      "dur": 682
    },
    {
      "t": 381.7,
      "ch": 0,
      "note": 36,
      "vel": 115,
      "dur": 55
    },
    {
      "t": 381.7,
      "ch": 1,
      "note": 40,
      "vel": 27,
      "dur": 25
    },
    {
      "t": 381.7,
      "ch": 7,
      "note": 48,
      "vel": 71,
      "dur": 80
    },
    {
      "t": 381.7,
      "ch": 7,
      "note": 45,
      "vel": 69,
      "dur": 80
    },
    {
      "t": 381.8,
      "ch": 1,
      "note": 42,
      "vel": 32,
      "dur": 25
    },
    {
      "t": 382,
      "ch": 1,
      "note": 36,
      "vel": 41,
      "dur": 25
    },
    {
      "t": 382.2,
      "ch": 1,
      "note": 38,
      "vel": 45,
      "dur": 25
    },
    {
      "t": 382.4,
      "ch": 1,
      "note": 40,
      "vel": 32,
      "dur": 25
    },
    {
      "t": 382.4,
      "ch": 7,
      "note": 48,
      "vel": 70,
      "dur": 80
    },
    {
      "t": 382.5,
      "ch": 1,
      "note": 42,
      "vel": 29,
      "dur": 25
    },
    {
      "t": 382.5,
      "ch": 7,
      "note": 45,
      "vel": 69,
      "dur": 80
    },
    {
      "t": 382.7,
      "ch": 1,
      "note": 36,
      "vel": 37,
      "dur": 25
    },
    {
      "t": 382.9,
      "ch": 1,
      "note": 38,
      "vel": 37,
      "dur": 25
    },
    {
      "t": 383,
      "ch": 4,
      "note": 70,
      "vel": 23,
      "dur": 5531
    },
    {
      "t": 383,
      "ch": 4,
      "note": 63,
      "vel": 22,
      "dur": 5531
    },
    {
      "t": 383,
      "ch": 3,
      "note": 46,
      "vel": 24,
      "dur": 5581
    },
    {
      "t": 383.1,
      "ch": 0,
      "note": 36,
      "vel": 90,
      "dur": 55
    },
    {
      "t": 383.1,
      "ch": 1,
      "note": 40,
      "vel": 74,
      "dur": 25
    },
    {
      "t": 383.1,
      "ch": 7,
      "note": 48,
      "vel": 74,
      "dur": 80
    },
    {
      "t": 383.2,
      "ch": 1,
      "note": 42,
      "vel": 67,
      "dur": 25
    },
    {
      "t": 383.2,
      "ch": 6,
      "note": 71,
      "vel": 10,
      "dur": 684
    },
    {
      "t": 383.4,
      "ch": 1,
      "note": 36,
      "vel": 36,
      "dur": 25
    },
    {
      "t": 383.4,
      "ch": 7,
      "note": 45,
      "vel": 54,
      "dur": 80
    },
    {
      "t": 383.6,
      "ch": 1,
      "note": 38,
      "vel": 46,
      "dur": 25
    },
    {
      "t": 383.8,
      "ch": 1,
      "note": 40,
      "vel": 34,
      "dur": 25
    },
    {
      "t": 383.8,
      "ch": 7,
      "note": 48,
      "vel": 77,
      "dur": 80
    },
    {
      "t": 383.9,
      "ch": 1,
      "note": 42,
      "vel": 54,
      "dur": 25
    },
    {
      "t": 384.1,
      "ch": 1,
      "note": 36,
      "vel": 23,
      "dur": 25
    },
    {
      "t": 384.3,
      "ch": 1,
      "note": 38,
      "vel": 43,
      "dur": 25
    },
    {
      "t": 384.5,
      "ch": 1,
      "note": 40,
      "vel": 20,
      "dur": 25
    },
    {
      "t": 384.5,
      "ch": 7,
      "note": 48,
      "vel": 76,
      "dur": 80
    },
    {
      "t": 384.5,
      "ch": 7,
      "note": 45,
      "vel": 70,
      "dur": 80
    },
    {
      "t": 384.6,
      "ch": 1,
      "note": 42,
      "vel": 71,
      "dur": 25
    },
    {
      "t": 384.8,
      "ch": 1,
      "note": 36,
      "vel": 38,
      "dur": 25
    },
    {
      "t": 384.8,
      "ch": 5,
      "note": 66,
      "vel": 9,
      "dur": 1032
    },
    {
      "t": 385,
      "ch": 1,
      "note": 38,
      "vel": 33,
      "dur": 25
    },
    {
      "t": 385.2,
      "ch": 1,
      "note": 40,
      "vel": 33,
      "dur": 25
    },
    {
      "t": 385.2,
      "ch": 7,
      "note": 48,
      "vel": 60,
      "dur": 80
    },
    {
      "t": 385.3,
      "ch": 1,
      "note": 42,
      "vel": 59,
      "dur": 25
    },
    {
      "t": 385.3,
      "ch": 7,
      "note": 45,
      "vel": 59,
      "dur": 80
    },
    {
      "t": 385.5,
      "ch": 1,
      "note": 36,
      "vel": 45,
      "dur": 25
    },
    {
      "t": 385.7,
      "ch": 1,
      "note": 38,
      "vel": 40,
      "dur": 25
    },
    {
      "t": 385.9,
      "ch": 1,
      "note": 40,
      "vel": 66,
      "dur": 25
    },
    {
      "t": 385.9,
      "ch": 7,
      "note": 48,
      "vel": 74,
      "dur": 80
    },
    {
      "t": 386,
      "ch": 1,
      "note": 42,
      "vel": 58,
      "dur": 25
    },
    {
      "t": 386.2,
      "ch": 1,
      "note": 36,
      "vel": 54,
      "dur": 25
    },
    {
      "t": 386.2,
      "ch": 7,
      "note": 45,
      "vel": 56,
      "dur": 80
    },
    {
      "t": 386.3,
      "ch": 1,
      "note": 38,
      "vel": 58,
      "dur": 25
    },
    {
      "t": 386.5,
      "ch": 1,
      "note": 40,
      "vel": 50,
      "dur": 25
    },
    {
      "t": 386.5,
      "ch": 7,
      "note": 48,
      "vel": 71,
      "dur": 80
    },
    {
      "t": 386.7,
      "ch": 1,
      "note": 42,
      "vel": 60,
      "dur": 25
    },
    {
      "t": 386.9,
      "ch": 1,
      "note": 36,
      "vel": 45,
      "dur": 25
    },
    {
      "t": 387,
      "ch": 1,
      "note": 38,
      "vel": 36,
      "dur": 25
    },
    {
      "t": 387.2,
      "ch": 1,
      "note": 40,
      "vel": 42,
      "dur": 25
    },
    {
      "t": 387.2,
      "ch": 7,
      "note": 48,
      "vel": 75,
      "dur": 80
    },
    {
      "t": 387.2,
      "ch": 7,
      "note": 45,
      "vel": 77,
      "dur": 80
    },
    {
      "t": 387.4,
      "ch": 1,
      "note": 42,
      "vel": 30,
      "dur": 25
    },
    {
      "t": 387.6,
      "ch": 1,
      "note": 36,
      "vel": 45,
      "dur": 25
    },
    {
      "t": 387.7,
      "ch": 1,
      "note": 38,
      "vel": 44,
      "dur": 25
    },
    {
      "t": 387.9,
      "ch": 1,
      "note": 40,
      "vel": 46,
      "dur": 25
    },
    {
      "t": 387.9,
      "ch": 7,
      "note": 48,
      "vel": 75,
      "dur": 80
    },
    {
      "t": 388,
      "ch": 5,
      "note": 68,
      "vel": 17,
      "dur": 1049
    },
    {
      "t": 388.1,
      "ch": 1,
      "note": 42,
      "vel": 28,
      "dur": 25
    },
    {
      "t": 388.1,
      "ch": 7,
      "note": 45,
      "vel": 49,
      "dur": 80
    },
    {
      "t": 388.3,
      "ch": 1,
      "note": 36,
      "vel": 39,
      "dur": 25
    },
    {
      "t": 388.4,
      "ch": 1,
      "note": 38,
      "vel": 54,
      "dur": 25
    },
    {
      "t": 388.5,
      "ch": 5,
      "note": 65,
      "vel": 13,
      "dur": 1052
    },
    {
      "t": 388.6,
      "ch": 4,
      "note": 70,
      "vel": 19,
      "dur": 5531
    },
    {
      "t": 388.6,
      "ch": 4,
      "note": 65,
      "vel": 19,
      "dur": 5531
    },
    {
      "t": 388.6,
      "ch": 3,
      "note": 46,
      "vel": 21,
      "dur": 5581
    },
    {
      "t": 388.6,
      "ch": 1,
      "note": 40,
      "vel": 25,
      "dur": 25
    },
    {
      "t": 388.6,
      "ch": 7,
      "note": 48,
      "vel": 63,
      "dur": 80
    },
    {
      "t": 388.8,
      "ch": 1,
      "note": 42,
      "vel": 59,
      "dur": 25
    },
    {
      "t": 389,
      "ch": 1,
      "note": 36,
      "vel": 34,
      "dur": 25
    },
    {
      "t": 389,
      "ch": 7,
      "note": 45,
      "vel": 57,
      "dur": 80
    },
    {
      "t": 389.2,
      "ch": 1,
      "note": 38,
      "vel": 35,
      "dur": 25
    },
    {
      "t": 389.3,
      "ch": 1,
      "note": 40,
      "vel": 45,
      "dur": 25
    },
    {
      "t": 389.3,
      "ch": 7,
      "note": 48,
      "vel": 67,
      "dur": 80
    },
    {
      "t": 389.5,
      "ch": 1,
      "note": 42,
      "vel": 59,
      "dur": 25
    },
    {
      "t": 389.7,
      "ch": 1,
      "note": 36,
      "vel": 61,
      "dur": 25
    },
    {
      "t": 389.8,
      "ch": 1,
      "note": 38,
      "vel": 43,
      "dur": 25
    },
    {
      "t": 390,
      "ch": 1,
      "note": 40,
      "vel": 40,
      "dur": 25
    },
    {
      "t": 390,
      "ch": 7,
      "note": 48,
      "vel": 66,
      "dur": 80
    },
    {
      "t": 390,
      "ch": 7,
      "note": 45,
      "vel": 72,
      "dur": 80
    },
    {
      "t": 390.2,
      "ch": 1,
      "note": 42,
      "vel": 56,
      "dur": 25
    },
    {
      "t": 390.4,
      "ch": 1,
      "note": 36,
      "vel": 61,
      "dur": 25
    },
    {
      "t": 390.5,
      "ch": 1,
      "note": 38,
      "vel": 50,
      "dur": 25
    },
    {
      "t": 390.7,
      "ch": 1,
      "note": 40,
      "vel": 34,
      "dur": 25
    },
    {
      "t": 390.7,
      "ch": 7,
      "note": 48,
      "vel": 73,
      "dur": 80
    },
    {
      "t": 390.9,
      "ch": 1,
      "note": 42,
      "vel": 30,
      "dur": 25
    },
    {
      "t": 390.9,
      "ch": 7,
      "note": 45,
      "vel": 53,
      "dur": 80
    },
    {
      "t": 391.1,
      "ch": 1,
      "note": 36,
      "vel": 40,
      "dur": 25
    },
    {
      "t": 391.2,
      "ch": 1,
      "note": 38,
      "vel": 29,
      "dur": 25
    },
    {
      "t": 391.3,
      "ch": 2,
      "note": 56,
      "vel": 0,
      "dur": 0
    },
    {
      "t": 391.3,
      "ch": 2,
      "note": 68,
      "vel": 0,
      "dur": 0
    },
    {
      "t": 391.3,
      "ch": 2,
      "note": 58,
      "vel": 48,
      "dur": 20930
    },
    {
      "t": 391.4,
      "ch": 1,
      "note": 40,
      "vel": 47,
      "dur": 25
    },
    {
      "t": 391.4,
      "ch": 7,
      "note": 48,
      "vel": 78,
      "dur": 80
    },
    {
      "t": 391.6,
      "ch": 1,
      "note": 42,
      "vel": 61,
      "dur": 25
    },
    {
      "t": 391.8,
      "ch": 1,
      "note": 36,
      "vel": 55,
      "dur": 25
    },
    {
      "t": 391.8,
      "ch": 7,
      "note": 45,
      "vel": 59,
      "dur": 80
    },
    {
      "t": 391.9,
      "ch": 1,
      "note": 38,
      "vel": 24,
      "dur": 25
    },
    {
      "t": 392.1,
      "ch": 1,
      "note": 40,
      "vel": 30,
      "dur": 25
    },
    {
      "t": 392.1,
      "ch": 7,
      "note": 48,
      "vel": 71,
      "dur": 80
    },
    {
      "t": 392.3,
      "ch": 1,
      "note": 42,
      "vel": 45,
      "dur": 25
    },
    {
      "t": 392.5,
      "ch": 1,
      "note": 36,
      "vel": 26,
      "dur": 25
    },
    {
      "t": 392.6,
      "ch": 1,
      "note": 38,
      "vel": 47,
      "dur": 25
    },
    {
      "t": 392.8,
      "ch": 0,
      "note": 36,
      "vel": 114,
      "dur": 55
    },
    {
      "t": 392.8,
      "ch": 1,
      "note": 40,
      "vel": 34,
      "dur": 25
    },
    {
      "t": 392.8,
      "ch": 7,
      "note": 48,
      "vel": 63,
      "dur": 80
    },
    {
      "t": 392.8,
      "ch": 7,
      "note": 45,
      "vel": 78,
      "dur": 80
    },
    {
      "t": 393,
      "ch": 1,
      "note": 42,
      "vel": 39,
      "dur": 25
    },
    {
      "t": 393.2,
      "ch": 1,
      "note": 36,
      "vel": 63,
      "dur": 25
    },
    {
      "t": 393.3,
      "ch": 1,
      "note": 38,
      "vel": 20,
      "dur": 25
    },
    {
      "t": 393.5,
      "ch": 1,
      "note": 40,
      "vel": 41,
      "dur": 25
    },
    {
      "t": 393.5,
      "ch": 7,
      "note": 48,
      "vel": 77,
      "dur": 80
    },
    {
      "t": 393.7,
      "ch": 1,
      "note": 42,
      "vel": 36,
      "dur": 25
    },
    {
      "t": 393.7,
      "ch": 7,
      "note": 45,
      "vel": 64,
      "dur": 80
    },
    {
      "t": 393.9,
      "ch": 1,
      "note": 36,
      "vel": 27,
      "dur": 25
    },
    {
      "t": 393.9,
      "ch": 5,
      "note": 70,
      "vel": 6,
      "dur": 1062
    },
    {
      "t": 394,
      "ch": 1,
      "note": 38,
      "vel": 55,
      "dur": 25
    },
    {
      "t": 394.1,
      "ch": 5,
      "note": 61,
      "vel": 8,
      "dur": 1062
    },
    {
      "t": 394.1,
      "ch": 4,
      "note": 66,
      "vel": 17,
      "dur": 2790
    },
    {
      "t": 394.1,
      "ch": 4,
      "note": 65,
      "vel": 18,
      "dur": 2740
    },
    {
      "t": 394.1,
      "ch": 4,
      "note": 63,
      "vel": 19,
      "dur": 5531
    },
    {
      "t": 394.1,
      "ch": 3,
      "note": 39,
      "vel": 21,
      "dur": 5581
    },
    {
      "t": 394.2,
      "ch": 0,
      "note": 36,
      "vel": 101,
      "dur": 55
    },
    {
      "t": 394.2,
      "ch": 1,
      "note": 40,
      "vel": 39,
      "dur": 25
    },
    {
      "t": 394.2,
      "ch": 7,
      "note": 48,
      "vel": 68,
      "dur": 80
    },
    {
      "t": 394.4,
      "ch": 1,
      "note": 42,
      "vel": 40,
      "dur": 25
    },
    {
      "t": 394.6,
      "ch": 1,
      "note": 36,
      "vel": 50,
      "dur": 25
    },
    {
      "t": 394.6,
      "ch": 7,
      "note": 45,
      "vel": 67,
      "dur": 80
    },
    {
      "t": 394.7,
      "ch": 1,
      "note": 38,
      "vel": 43,
      "dur": 25
    },
    {
      "t": 394.9,
      "ch": 1,
      "note": 40,
      "vel": 37,
      "dur": 25
    },
    {
      "t": 394.9,
      "ch": 7,
      "note": 48,
      "vel": 59,
      "dur": 80
    },
    {
      "t": 395.1,
      "ch": 1,
      "note": 42,
      "vel": 61,
      "dur": 25
    },
    {
      "t": 395.3,
      "ch": 1,
      "note": 36,
      "vel": 38,
      "dur": 25
    },
    {
      "t": 395.4,
      "ch": 1,
      "note": 38,
      "vel": 31,
      "dur": 25
    },
    {
      "t": 395.6,
      "ch": 1,
      "note": 40,
      "vel": 54,
      "dur": 25
    },
    {
      "t": 395.6,
      "ch": 7,
      "note": 48,
      "vel": 75,
      "dur": 80
    },
    {
      "t": 395.6,
      "ch": 7,
      "note": 45,
      "vel": 73,
      "dur": 80
    },
    {
      "t": 395.8,
      "ch": 1,
      "note": 42,
      "vel": 37,
      "dur": 25
    },
    {
      "t": 396,
      "ch": 1,
      "note": 36,
      "vel": 69,
      "dur": 25
    },
    {
      "t": 396.1,
      "ch": 1,
      "note": 38,
      "vel": 47,
      "dur": 25
    },
    {
      "t": 396.3,
      "ch": 1,
      "note": 40,
      "vel": 47,
      "dur": 25
    },
    {
      "t": 396.3,
      "ch": 7,
      "note": 48,
      "vel": 70,
      "dur": 80
    },
    {
      "t": 396.5,
      "ch": 1,
      "note": 42,
      "vel": 56,
      "dur": 25
    },
    {
      "t": 396.5,
      "ch": 7,
      "note": 45,
      "vel": 62,
      "dur": 80
    },
    {
      "t": 396.7,
      "ch": 1,
      "note": 36,
      "vel": 16,
      "dur": 25
    },
    {
      "t": 396.8,
      "ch": 1,
      "note": 38,
      "vel": 39,
      "dur": 25
    },
    {
      "t": 397,
      "ch": 1,
      "note": 40,
      "vel": 45,
      "dur": 25
    },
    {
      "t": 397,
      "ch": 7,
      "note": 48,
      "vel": 66,
      "dur": 80
    },
    {
      "t": 397.2,
      "ch": 1,
      "note": 42,
      "vel": 52,
      "dur": 25
    },
    {
      "t": 397.4,
      "ch": 1,
      "note": 36,
      "vel": 40,
      "dur": 25
    },
    {
      "t": 397.4,
      "ch": 7,
      "note": 45,
      "vel": 52,
      "dur": 80
    },
    {
      "t": 397.5,
      "ch": 1,
      "note": 38,
      "vel": 60,
      "dur": 25
    },
    {
      "t": 397.7,
      "ch": 1,
      "note": 40,
      "vel": 40,
      "dur": 25
    },
    {
      "t": 397.7,
      "ch": 7,
      "note": 48,
      "vel": 80,
      "dur": 80
    },
    {
      "t": 397.7,
      "ch": 5,
      "note": 65,
      "vel": 7,
      "dur": 1044
    },
    {
      "t": 397.9,
      "ch": 1,
      "note": 42,
      "vel": 45,
      "dur": 25
    },
    {
      "t": 398.1,
      "ch": 1,
      "note": 36,
      "vel": 45,
      "dur": 25
    },
    {
      "t": 398.2,
      "ch": 1,
      "note": 38,
      "vel": 36,
      "dur": 25
    },
    {
      "t": 398.4,
      "ch": 1,
      "note": 40,
      "vel": 27,
      "dur": 25
    },
    {
      "t": 398.4,
      "ch": 7,
      "note": 48,
      "vel": 69,
      "dur": 80
    },
    {
      "t": 398.4,
      "ch": 7,
      "note": 45,
      "vel": 77,
      "dur": 80
    },
    {
      "t": 398.6,
      "ch": 1,
      "note": 42,
      "vel": 51,
      "dur": 25
    },
    {
      "t": 398.8,
      "ch": 1,
      "note": 36,
      "vel": 25,
      "dur": 25
    },
    {
      "t": 398.9,
      "ch": 1,
      "note": 38,
      "vel": 39,
      "dur": 25
    },
    {
      "t": 399.1,
      "ch": 1,
      "note": 40,
      "vel": 54,
      "dur": 25
    },
    {
      "t": 399.1,
      "ch": 7,
      "note": 48,
      "vel": 63,
      "dur": 80
    },
    {
      "t": 399.3,
      "ch": 1,
      "note": 42,
      "vel": 52,
      "dur": 25
    },
    {
      "t": 399.3,
      "ch": 7,
      "note": 45,
      "vel": 61,
      "dur": 80
    },
    {
      "t": 399.5,
      "ch": 1,
      "note": 36,
      "vel": 28,
      "dur": 25
    },
    {
      "t": 399.6,
      "ch": 1,
      "note": 38,
      "vel": 38,
      "dur": 25
    },
    {
      "t": 399.7,
      "ch": 4,
      "note": 65,
      "vel": 22,
      "dur": 5531
    },
    {
      "t": 399.7,
      "ch": 4,
      "note": 63,
      "vel": 22,
      "dur": 5531
    },
    {
      "t": 399.7,
      "ch": 3,
      "note": 53,
      "vel": 24,
      "dur": 5581
    },
    {
      "t": 399.8,
      "ch": 1,
      "note": 40,
      "vel": 59,
      "dur": 25
    },
    {
      "t": 399.8,
      "ch": 7,
      "note": 48,
      "vel": 63,
      "dur": 80
    },
    {
      "t": 400,
      "ch": 1,
      "note": 42,
      "vel": 55,
      "dur": 25
    },
    {
      "t": 400.1,
      "ch": 1,
      "note": 36,
      "vel": 47,
      "dur": 25
    },
    {
      "t": 400.2,
      "ch": 7,
      "note": 45,
      "vel": 52,
      "dur": 80
    },
    {
      "t": 400.3,
      "ch": 1,
      "note": 38,
      "vel": 41,
      "dur": 25
    },
    {
      "t": 400.5,
      "ch": 1,
      "note": 40,
      "vel": 38,
      "dur": 25
    },
    {
      "t": 400.5,
      "ch": 7,
      "note": 48,
      "vel": 65,
      "dur": 80
    },
    {
      "t": 400.7,
      "ch": 1,
      "note": 42,
      "vel": 48,
      "dur": 25
    },
    {
      "t": 400.9,
      "ch": 1,
      "note": 36,
      "vel": 42,
      "dur": 25
    },
    {
      "t": 401,
      "ch": 1,
      "note": 38,
      "vel": 49,
      "dur": 25
    },
    {
      "t": 401.2,
      "ch": 1,
      "note": 40,
      "vel": 78,
      "dur": 25
    },
    {
      "t": 401.2,
      "ch": 7,
      "note": 48,
      "vel": 64,
      "dur": 80
    },
    {
      "t": 401.2,
      "ch": 7,
      "note": 45,
      "vel": 66,
      "dur": 80
    },
    {
      "t": 401.4,
      "ch": 1,
      "note": 42,
      "vel": 61,
      "dur": 25
    },
    {
      "t": 401.6,
      "ch": 1,
      "note": 36,
      "vel": 31,
      "dur": 25
    },
    {
      "t": 401.7,
      "ch": 1,
      "note": 38,
      "vel": 53,
      "dur": 25
    },
    {
      "t": 401.8,
      "ch": 5,
      "note": 68,
      "vel": 28,
      "dur": 1020
    },
    {
      "t": 401.9,
      "ch": 1,
      "note": 40,
      "vel": 68,
      "dur": 25
    },
    {
      "t": 401.9,
      "ch": 7,
      "note": 48,
      "vel": 75,
      "dur": 80
    },
    {
      "t": 402.1,
      "ch": 1,
      "note": 42,
      "vel": 69,
      "dur": 25
    },
    {
      "t": 402.1,
      "ch": 7,
      "note": 45,
      "vel": 59,
      "dur": 80
    },
    {
      "t": 402.2,
      "ch": 1,
      "note": 36,
      "vel": 39,
      "dur": 25
    },
    {
      "t": 402.4,
      "ch": 1,
      "note": 38,
      "vel": 65,
      "dur": 25
    },
    {
      "t": 402.5,
      "ch": 2,
      "note": 58,
      "vel": 50,
      "dur": 20930
    },
    {
      "t": 402.5,
      "ch": 2,
      "note": 70,
      "vel": 35,
      "dur": 20930
    },
    {
      "t": 402.6,
      "ch": 1,
      "note": 40,
      "vel": 74,
      "dur": 25
    },
    {
      "t": 402.6,
      "ch": 7,
      "note": 48,
      "vel": 77,
      "dur": 80
    },
    {
      "t": 402.6,
      "ch": 7,
      "note": 36,
      "vel": 61,
      "dur": 80
    },
    {
      "t": 402.7,
      "ch": 1,
      "note": 42,
      "vel": 34,
      "dur": 25
    },
    {
      "t": 402.9,
      "ch": 1,
      "note": 36,
      "vel": 54,
      "dur": 25
    },
    {
      "t": 403,
      "ch": 7,
      "note": 45,
      "vel": 55,
      "dur": 80
    },
    {
      "t": 403,
      "ch": 7,
      "note": 36,
      "vel": 56,
      "dur": 80
    },
    {
      "t": 403.1,
      "ch": 1,
      "note": 38,
      "vel": 60,
      "dur": 25
    },
    {
      "t": 403.1,
      "ch": 6,
      "note": 70,
      "vel": 16,
      "dur": 677
    },
    {
      "t": 403.3,
      "ch": 1,
      "note": 40,
      "vel": 40,
      "dur": 25
    },
    {
      "t": 403.3,
      "ch": 7,
      "note": 48,
      "vel": 83,
      "dur": 80
    },
    {
      "t": 403.3,
      "ch": 7,
      "note": 36,
      "vel": 74,
      "dur": 80
    },
    {
      "t": 403.4,
      "ch": 1,
      "note": 42,
      "vel": 40,
      "dur": 25
    },
    {
      "t": 403.6,
      "ch": 1,
      "note": 36,
      "vel": 47,
      "dur": 25
    },
    {
      "t": 403.8,
      "ch": 1,
      "note": 38,
      "vel": 37,
      "dur": 25
    },
    {
      "t": 404,
      "ch": 0,
      "note": 36,
      "vel": 119,
      "dur": 55
    },
    {
      "t": 404,
      "ch": 1,
      "note": 40,
      "vel": 70,
      "dur": 25
    },
    {
      "t": 404,
      "ch": 7,
      "note": 48,
      "vel": 70,
      "dur": 80
    },
    {
      "t": 404,
      "ch": 7,
      "note": 45,
      "vel": 78,
      "dur": 80
    },
    {
      "t": 404,
      "ch": 7,
      "note": 36,
      "vel": 69,
      "dur": 80
    },
    {
      "t": 404.1,
      "ch": 1,
      "note": 42,
      "vel": 54,
      "dur": 25
    },
    {
      "t": 404.3,
      "ch": 1,
      "note": 36,
      "vel": 30,
      "dur": 25
    },
    {
      "t": 404.4,
      "ch": 7,
      "note": 36,
      "vel": 54,
      "dur": 80
    },
    {
      "t": 404.5,
      "ch": 1,
      "note": 38,
      "vel": 46,
      "dur": 25
    },
    {
      "t": 404.7,
      "ch": 1,
      "note": 40,
      "vel": 68,
      "dur": 25
    },
    {
      "t": 404.7,
      "ch": 7,
      "note": 48,
      "vel": 82,
      "dur": 80
    },
    {
      "t": 404.7,
      "ch": 7,
      "note": 36,
      "vel": 80,
      "dur": 80
    },
    {
      "t": 404.8,
      "ch": 1,
      "note": 42,
      "vel": 65,
      "dur": 25
    },
    {
      "t": 404.9,
      "ch": 7,
      "note": 45,
      "vel": 49,
      "dur": 80
    },
    {
      "t": 405,
      "ch": 1,
      "note": 36,
      "vel": 56,
      "dur": 25
    },
    {
      "t": 405.2,
      "ch": 1,
      "note": 38,
      "vel": 44,
      "dur": 25
    },
    {
      "t": 405.3,
      "ch": 4,
      "note": 65,
      "vel": 24,
      "dur": 5531
    },
    {
      "t": 405.3,
      "ch": 4,
      "note": 68,
      "vel": 39,
      "dur": 5531
    },
    {
      "t": 405.3,
      "ch": 3,
      "note": 39,
      "vel": 26,
      "dur": 5581
    },
    {
      "t": 405.4,
      "ch": 0,
      "note": 36,
      "vel": 86,
      "dur": 55
    },
    {
      "t": 405.4,
      "ch": 1,
      "note": 40,
      "vel": 33,
      "dur": 25
    },
    {
      "t": 405.4,
      "ch": 7,
      "note": 48,
      "vel": 70,
      "dur": 80
    },
    {
      "t": 405.4,
      "ch": 7,
      "note": 36,
      "vel": 72,
      "dur": 80
    },
    {
      "t": 405.5,
      "ch": 1,
      "note": 42,
      "vel": 52,
      "dur": 25
    },
    {
      "t": 405.7,
      "ch": 1,
      "note": 36,
      "vel": 44,
      "dur": 25
    },
    {
      "t": 405.7,
      "ch": 7,
      "note": 45,
      "vel": 79,
      "dur": 80
    },
    {
      "t": 405.7,
      "ch": 7,
      "note": 36,
      "vel": 61,
      "dur": 80
    },
    {
      "t": 405.9,
      "ch": 1,
      "note": 38,
      "vel": 53,
      "dur": 25
    },
    {
      "t": 406.1,
      "ch": 1,
      "note": 40,
      "vel": 41,
      "dur": 25
    },
    {
      "t": 406.1,
      "ch": 7,
      "note": 48,
      "vel": 78,
      "dur": 80
    },
    {
      "t": 406.1,
      "ch": 7,
      "note": 36,
      "vel": 78,
      "dur": 80
    },
    {
      "t": 406.2,
      "ch": 1,
      "note": 42,
      "vel": 59,
      "dur": 25
    },
    {
      "t": 406.4,
      "ch": 1,
      "note": 36,
      "vel": 23,
      "dur": 25
    },
    {
      "t": 406.6,
      "ch": 1,
      "note": 38,
      "vel": 43,
      "dur": 25
    },
    {
      "t": 406.8,
      "ch": 1,
      "note": 40,
      "vel": 29,
      "dur": 25
    },
    {
      "t": 406.8,
      "ch": 7,
      "note": 48,
      "vel": 77,
      "dur": 80
    },
    {
      "t": 406.8,
      "ch": 7,
      "note": 45,
      "vel": 78,
      "dur": 80
    },
    {
      "t": 406.8,
      "ch": 7,
      "note": 36,
      "vel": 87,
      "dur": 80
    },
    {
      "t": 406.9,
      "ch": 1,
      "note": 42,
      "vel": 43,
      "dur": 25
    },
    {
      "t": 407.1,
      "ch": 1,
      "note": 36,
      "vel": 40,
      "dur": 25
    },
    {
      "t": 407.1,
      "ch": 7,
      "note": 36,
      "vel": 61,
      "dur": 80
    },
    {
      "t": 407.3,
      "ch": 1,
      "note": 38,
      "vel": 26,
      "dur": 25
    },
    {
      "t": 407.5,
      "ch": 1,
      "note": 40,
      "vel": 53,
      "dur": 25
    },
    {
      "t": 407.5,
      "ch": 7,
      "note": 48,
      "vel": 63,
      "dur": 80
    },
    {
      "t": 407.5,
      "ch": 7,
      "note": 36,
      "vel": 64,
      "dur": 80
    },
    {
      "t": 407.6,
      "ch": 1,
      "note": 42,
      "vel": 67,
      "dur": 25
    },
    {
      "t": 407.7,
      "ch": 7,
      "note": 45,
      "vel": 68,
      "dur": 80
    },
    {
      "t": 407.8,
      "ch": 1,
      "note": 36,
      "vel": 35,
      "dur": 25
    },
    {
      "t": 408,
      "ch": 1,
      "note": 38,
      "vel": 48,
      "dur": 25
    },
    {
      "t": 408.2,
      "ch": 1,
      "note": 40,
      "vel": 33,
      "dur": 25
    },
    {
      "t": 408.2,
      "ch": 7,
      "note": 48,
      "vel": 63,
      "dur": 80
    },
    {
      "t": 408.2,
      "ch": 7,
      "note": 36,
      "vel": 71,
      "dur": 80
    },
    {
      "t": 408.3,
      "ch": 1,
      "note": 42,
      "vel": 54,
      "dur": 25
    },
    {
      "t": 408.5,
      "ch": 1,
      "note": 36,
      "vel": 45,
      "dur": 25
    },
    {
      "t": 408.5,
      "ch": 7,
      "note": 45,
      "vel": 71,
      "dur": 80
    },
    {
      "t": 408.5,
      "ch": 7,
      "note": 36,
      "vel": 61,
      "dur": 80
    },
    {
      "t": 408.7,
      "ch": 1,
      "note": 38,
      "vel": 41,
      "dur": 25
    },
    {
      "t": 408.9,
      "ch": 1,
      "note": 40,
      "vel": 39,
      "dur": 25
    },
    {
      "t": 408.9,
      "ch": 7,
      "note": 48,
      "vel": 69,
      "dur": 80
    },
    {
      "t": 408.9,
      "ch": 7,
      "note": 36,
      "vel": 68,
      "dur": 80
    },
    {
      "t": 409,
      "ch": 1,
      "note": 42,
      "vel": 49,
      "dur": 25
    },
    {
      "t": 409.2,
      "ch": 1,
      "note": 36,
      "vel": 49,
      "dur": 25
    },
    {
      "t": 409.2,
      "ch": 5,
      "note": 74,
      "vel": 14,
      "dur": 1031
    },
    {
      "t": 409.4,
      "ch": 1,
      "note": 38,
      "vel": 43,
      "dur": 25
    },
    {
      "t": 409.6,
      "ch": 1,
      "note": 40,
      "vel": 40,
      "dur": 25
    },
    {
      "t": 409.6,
      "ch": 7,
      "note": 48,
      "vel": 85,
      "dur": 80
    },
    {
      "t": 409.6,
      "ch": 7,
      "note": 45,
      "vel": 84,
      "dur": 80
    },
    {
      "t": 409.6,
      "ch": 7,
      "note": 36,
      "vel": 70,
      "dur": 80
    },
    {
      "t": 409.7,
      "ch": 1,
      "note": 42,
      "vel": 34,
      "dur": 25
    },
    {
      "t": 409.9,
      "ch": 1,
      "note": 36,
      "vel": 58,
      "dur": 25
    },
    {
      "t": 409.9,
      "ch": 7,
      "note": 36,
      "vel": 69,
      "dur": 80
    },
    {
      "t": 410.1,
      "ch": 1,
      "note": 38,
      "vel": 46,
      "dur": 25
    },
    {
      "t": 410.3,
      "ch": 1,
      "note": 40,
      "vel": 24,
      "dur": 25
    },
    {
      "t": 410.3,
      "ch": 7,
      "note": 48,
      "vel": 73,
      "dur": 80
    },
    {
      "t": 410.3,
      "ch": 7,
      "note": 36,
      "vel": 67,
      "dur": 80
    },
    {
      "t": 410.4,
      "ch": 1,
      "note": 42,
      "vel": 40,
      "dur": 25
    },
    {
      "t": 410.5,
      "ch": 7,
      "note": 45,
      "vel": 62,
      "dur": 80
    },
    {
      "t": 410.6,
      "ch": 1,
      "note": 36,
      "vel": 58,
      "dur": 25
    },
    {
      "t": 410.8,
      "ch": 1,
      "note": 38,
      "vel": 38,
      "dur": 25
    },
    {
      "t": 410.9,
      "ch": 4,
      "note": 63,
      "vel": 20,
      "dur": 5531
    },
    {
      "t": 410.9,
      "ch": 4,
      "note": 68,
      "vel": 36,
      "dur": 5531
    },
    {
      "t": 410.9,
      "ch": 3,
      "note": 39,
      "vel": 24,
      "dur": 5581
    },
    {
      "t": 411,
      "ch": 1,
      "note": 40,
      "vel": 54,
      "dur": 25
    },
    {
      "t": 411,
      "ch": 7,
      "note": 48,
      "vel": 77,
      "dur": 80
    },
    {
      "t": 411,
      "ch": 7,
      "note": 36,
      "vel": 70,
      "dur": 80
    },
    {
      "t": 411.1,
      "ch": 1,
      "note": 42,
      "vel": 44,
      "dur": 25
    },
    {
      "t": 411.3,
      "ch": 1,
      "note": 36,
      "vel": 42,
      "dur": 25
    },
    {
      "t": 411.3,
      "ch": 7,
      "note": 45,
      "vel": 63,
      "dur": 80
    },
    {
      "t": 411.5,
      "ch": 1,
      "note": 38,
      "vel": 26,
      "dur": 25
    },
    {
      "t": 411.7,
      "ch": 1,
      "note": 40,
      "vel": 77,
      "dur": 25
    },
    {
      "t": 411.7,
      "ch": 7,
      "note": 48,
      "vel": 56,
      "dur": 80
    },
    {
      "t": 411.8,
      "ch": 1,
      "note": 42,
      "vel": 60,
      "dur": 25
    },
    {
      "t": 412,
      "ch": 1,
      "note": 36,
      "vel": 55,
      "dur": 25
    },
    {
      "t": 412.2,
      "ch": 1,
      "note": 38,
      "vel": 40,
      "dur": 25
    },
    {
      "t": 412.4,
      "ch": 1,
      "note": 40,
      "vel": 51,
      "dur": 25
    },
    {
      "t": 412.4,
      "ch": 7,
      "note": 48,
      "vel": 84,
      "dur": 80
    },
    {
      "t": 412.4,
      "ch": 7,
      "note": 45,
      "vel": 78,
      "dur": 80
    },
    {
      "t": 412.5,
      "ch": 1,
      "note": 42,
      "vel": 55,
      "dur": 25
    },
    {
      "t": 412.7,
      "ch": 1,
      "note": 36,
      "vel": 47,
      "dur": 25
    },
    {
      "t": 412.9,
      "ch": 1,
      "note": 38,
      "vel": 67,
      "dur": 25
    },
    {
      "t": 413.1,
      "ch": 1,
      "note": 40,
      "vel": 48,
      "dur": 25
    },
    {
      "t": 413.1,
      "ch": 7,
      "note": 48,
      "vel": 65,
      "dur": 80
    },
    {
      "t": 413.2,
      "ch": 1,
      "note": 42,
      "vel": 64,
      "dur": 25
    },
    {
      "t": 413.3,
      "ch": 7,
      "note": 45,
      "vel": 67,
      "dur": 80
    },
    {
      "t": 413.4,
      "ch": 1,
      "note": 36,
      "vel": 49,
      "dur": 25
    },
    {
      "t": 413.6,
      "ch": 1,
      "note": 38,
      "vel": 63,
      "dur": 25
    },
    {
      "t": 413.7,
      "ch": 2,
      "note": 58,
      "vel": 0,
      "dur": 0
    },
    {
      "t": 413.7,
      "ch": 2,
      "note": 70,
      "vel": 0,
      "dur": 0
    },
    {
      "t": 413.7,
      "ch": 2,
      "note": 56,
      "vel": 49,
      "dur": 20930
    },
    {
      "t": 413.8,
      "ch": 1,
      "note": 40,
      "vel": 69,
      "dur": 25
    },
    {
      "t": 413.8,
      "ch": 7,
      "note": 48,
      "vel": 68,
      "dur": 80
    },
    {
      "t": 413.9,
      "ch": 1,
      "note": 42,
      "vel": 57,
      "dur": 25
    },
    {
      "t": 414.1,
      "ch": 1,
      "note": 36,
      "vel": 71,
      "dur": 25
    },
    {
      "t": 414.1,
      "ch": 7,
      "note": 45,
      "vel": 53,
      "dur": 80
    },
    {
      "t": 414.3,
      "ch": 1,
      "note": 38,
      "vel": 28,
      "dur": 25
    },
    {
      "t": 414.5,
      "ch": 1,
      "note": 40,
      "vel": 51,
      "dur": 25
    },
    {
      "t": 414.5,
      "ch": 7,
      "note": 48,
      "vel": 88,
      "dur": 80
    },
    {
      "t": 414.6,
      "ch": 1,
      "note": 42,
      "vel": 49,
      "dur": 25
    },
    {
      "t": 414.8,
      "ch": 1,
      "note": 36,
      "vel": 47,
      "dur": 25
    },
    {
      "t": 415,
      "ch": 1,
      "note": 38,
      "vel": 49,
      "dur": 25
    },
    {
      "t": 415.2,
      "ch": 0,
      "note": 36,
      "vel": 107,
      "dur": 55
    },
    {
      "t": 415.2,
      "ch": 1,
      "note": 40,
      "vel": 43,
      "dur": 25
    },
    {
      "t": 415.2,
      "ch": 7,
      "note": 48,
      "vel": 68,
      "dur": 80
    },
    {
      "t": 415.2,
      "ch": 7,
      "note": 45,
      "vel": 67,
      "dur": 80
    },
    {
      "t": 415.3,
      "ch": 1,
      "note": 42,
      "vel": 42,
      "dur": 25
    },
    {
      "t": 415.5,
      "ch": 1,
      "note": 36,
      "vel": 52,
      "dur": 25
    },
    {
      "t": 415.7,
      "ch": 1,
      "note": 38,
      "vel": 35,
      "dur": 25
    },
    {
      "t": 415.8,
      "ch": 1,
      "note": 40,
      "vel": 88,
      "dur": 25
    },
    {
      "t": 415.8,
      "ch": 7,
      "note": 48,
      "vel": 71,
      "dur": 80
    },
    {
      "t": 416,
      "ch": 1,
      "note": 42,
      "vel": 71,
      "dur": 25
    },
    {
      "t": 416,
      "ch": 7,
      "note": 45,
      "vel": 65,
      "dur": 80
    },
    {
      "t": 416.2,
      "ch": 1,
      "note": 36,
      "vel": 48,
      "dur": 25
    },
    {
      "t": 416.4,
      "ch": 1,
      "note": 38,
      "vel": 47,
      "dur": 25
    },
    {
      "t": 416.5,
      "ch": 0,
      "note": 36,
      "vel": 92,
      "dur": 55
    },
    {
      "t": 416.5,
      "ch": 1,
      "note": 40,
      "vel": 67,
      "dur": 25
    },
    {
      "t": 416.5,
      "ch": 7,
      "note": 48,
      "vel": 71,
      "dur": 80
    },
    {
      "t": 416.7,
      "ch": 1,
      "note": 42,
      "vel": 34,
      "dur": 25
    },
    {
      "t": 416.9,
      "ch": 1,
      "note": 36,
      "vel": 54,
      "dur": 25
    },
    {
      "t": 416.9,
      "ch": 7,
      "note": 45,
      "vel": 54,
      "dur": 80
    },
    {
      "t": 417,
      "ch": 1,
      "note": 38,
      "vel": 70,
      "dur": 25
    },
    {
      "t": 417.2,
      "ch": 1,
      "note": 40,
      "vel": 55,
      "dur": 25
    },
    {
      "t": 417.2,
      "ch": 7,
      "note": 48,
      "vel": 70,
      "dur": 80
    },
    {
      "t": 417.4,
      "ch": 1,
      "note": 42,
      "vel": 54,
      "dur": 25
    },
    {
      "t": 417.6,
      "ch": 1,
      "note": 36,
      "vel": 58,
      "dur": 25
    },
    {
      "t": 417.7,
      "ch": 1,
      "note": 38,
      "vel": 42,
      "dur": 25
    },
    {
      "t": 417.9,
      "ch": 1,
      "note": 40,
      "vel": 46,
      "dur": 25
    },
    {
      "t": 417.9,
      "ch": 7,
      "note": 48,
      "vel": 65,
      "dur": 80
    },
    {
      "t": 417.9,
      "ch": 7,
      "note": 45,
      "vel": 71,
      "dur": 80
    },
    {
      "t": 418.1,
      "ch": 1,
      "note": 42,
      "vel": 77,
      "dur": 25
    },
    {
      "t": 418.3,
      "ch": 1,
      "note": 36,
      "vel": 32,
      "dur": 25
    },
    {
      "t": 418.4,
      "ch": 1,
      "note": 38,
      "vel": 40,
      "dur": 25
    },
    {
      "t": 418.6,
      "ch": 1,
      "note": 40,
      "vel": 60,
      "dur": 25
    },
    {
      "t": 418.6,
      "ch": 7,
      "note": 48,
      "vel": 64,
      "dur": 80
    },
    {
      "t": 418.8,
      "ch": 1,
      "note": 42,
      "vel": 37,
      "dur": 25
    },
    {
      "t": 418.8,
      "ch": 7,
      "note": 45,
      "vel": 67,
      "dur": 80
    },
    {
      "t": 419,
      "ch": 1,
      "note": 36,
      "vel": 42,
      "dur": 25
    },
    {
      "t": 419.1,
      "ch": 1,
      "note": 38,
      "vel": 42,
      "dur": 25
    },
    {
      "t": 419.3,
      "ch": 1,
      "note": 40,
      "vel": 68,
      "dur": 25
    },
    {
      "t": 419.3,
      "ch": 7,
      "note": 48,
      "vel": 69,
      "dur": 80
    },
    {
      "t": 419.5,
      "ch": 1,
      "note": 42,
      "vel": 49,
      "dur": 25
    },
    {
      "t": 419.7,
      "ch": 1,
      "note": 36,
      "vel": 60,
      "dur": 25
    },
    {
      "t": 419.7,
      "ch": 7,
      "note": 45,
      "vel": 57,
      "dur": 80
    },
    {
      "t": 419.8,
      "ch": 1,
      "note": 38,
      "vel": 35,
      "dur": 25
    },
    {
      "t": 420,
      "ch": 1,
      "note": 40,
      "vel": 67,
      "dur": 25
    },
    {
      "t": 420,
      "ch": 7,
      "note": 48,
      "vel": 80,
      "dur": 80
    },
    {
      "t": 420.2,
      "ch": 1,
      "note": 42,
      "vel": 48,
      "dur": 25
    },
    {
      "t": 420.4,
      "ch": 1,
      "note": 36,
      "vel": 31,
      "dur": 25
    },
    {
      "t": 420.5,
      "ch": 1,
      "note": 38,
      "vel": 59,
      "dur": 25
    },
    {
      "t": 420.7,
      "ch": 1,
      "note": 40,
      "vel": 45,
      "dur": 25
    },
    {
      "t": 420.7,
      "ch": 7,
      "note": 48,
      "vel": 67,
      "dur": 80
    },
    {
      "t": 420.7,
      "ch": 7,
      "note": 45,
      "vel": 77,
      "dur": 80
    },
    {
      "t": 420.9,
      "ch": 1,
      "note": 42,
      "vel": 49,
      "dur": 25
    },
    {
      "t": 421.1,
      "ch": 1,
      "note": 36,
      "vel": 40,
      "dur": 25
    },
    {
      "t": 421.2,
      "ch": 1,
      "note": 38,
      "vel": 30,
      "dur": 25
    },
    {
      "t": 421.4,
      "ch": 1,
      "note": 40,
      "vel": 62,
      "dur": 25
    },
    {
      "t": 421.4,
      "ch": 7,
      "note": 48,
      "vel": 76,
      "dur": 80
    },
    {
      "t": 421.6,
      "ch": 1,
      "note": 42,
      "vel": 64,
      "dur": 25
    },
    {
      "t": 421.6,
      "ch": 7,
      "note": 45,
      "vel": 50,
      "dur": 80
    },
    {
      "t": 421.8,
      "ch": 1,
      "note": 36,
      "vel": 64,
      "dur": 25
    },
    {
      "t": 421.9,
      "ch": 1,
      "note": 38,
      "vel": 31,
      "dur": 25
    },
    {
      "t": 422.1,
      "ch": 1,
      "note": 40,
      "vel": 48,
      "dur": 25
    },
    {
      "t": 422.1,
      "ch": 7,
      "note": 48,
      "vel": 79,
      "dur": 80
    },
    {
      "t": 422.3,
      "ch": 1,
      "note": 42,
      "vel": 55,
      "dur": 25
    },
    {
      "t": 422.5,
      "ch": 1,
      "note": 36,
      "vel": 27,
      "dur": 25
    },
    {
      "t": 422.5,
      "ch": 7,
      "note": 45,
      "vel": 56,
      "dur": 80
    },
    {
      "t": 422.6,
      "ch": 1,
      "note": 38,
      "vel": 45,
      "dur": 25
    },
    {
      "t": 422.8,
      "ch": 1,
      "note": 40,
      "vel": 49,
      "dur": 25
    },
    {
      "t": 422.8,
      "ch": 7,
      "note": 48,
      "vel": 60,
      "dur": 80
    },
    {
      "t": 423,
      "ch": 1,
      "note": 42,
      "vel": 41,
      "dur": 25
    },
    {
      "t": 423.2,
      "ch": 1,
      "note": 36,
      "vel": 58,
      "dur": 25
    },
    {
      "t": 423.3,
      "ch": 1,
      "note": 38,
      "vel": 58,
      "dur": 25
    },
    {
      "t": 423.5,
      "ch": 1,
      "note": 40,
      "vel": 59,
      "dur": 25
    },
    {
      "t": 423.5,
      "ch": 7,
      "note": 48,
      "vel": 74,
      "dur": 80
    },
    {
      "t": 423.5,
      "ch": 7,
      "note": 45,
      "vel": 63,
      "dur": 80
    },
    {
      "t": 423.5,
      "ch": 5,
      "note": 63,
      "vel": 1,
      "dur": 1020
    },
    {
      "t": 423.7,
      "ch": 1,
      "note": 42,
      "vel": 60,
      "dur": 25
    },
    {
      "t": 423.7,
      "ch": 5,
      "note": 58,
      "vel": 16,
      "dur": 1019
    },
    {
      "t": 423.9,
      "ch": 1,
      "note": 36,
      "vel": 52,
      "dur": 25
    },
    {
      "t": 424,
      "ch": 1,
      "note": 38,
      "vel": 62,
      "dur": 25
    },
    {
      "t": 424.2,
      "ch": 1,
      "note": 40,
      "vel": 54,
      "dur": 25
    },
    {
      "t": 424.2,
      "ch": 7,
      "note": 48,
      "vel": 73,
      "dur": 80
    },
    {
      "t": 424.2,
      "ch": 7,
      "note": 36,
      "vel": 62,
      "dur": 80
    },
    {
      "t": 424.4,
      "ch": 1,
      "note": 42,
      "vel": 54,
      "dur": 25
    },
    {
      "t": 424.4,
      "ch": 7,
      "note": 45,
      "vel": 68,
      "dur": 80
    },
    {
      "t": 424.6,
      "ch": 1,
      "note": 36,
      "vel": 27,
      "dur": 25
    },
    {
      "t": 424.7,
      "ch": 1,
      "note": 38,
      "vel": 32,
      "dur": 25
    },
    {
      "t": 424.9,
      "ch": 1,
      "note": 40,
      "vel": 39,
      "dur": 25
    },
    {
      "t": 424.9,
      "ch": 7,
      "note": 48,
      "vel": 70,
      "dur": 80
    },
    {
      "t": 424.9,
      "ch": 7,
      "note": 36,
      "vel": 72,
      "dur": 80
    },
    {
      "t": 425.1,
      "ch": 1,
      "note": 42,
      "vel": 42,
      "dur": 25
    },
    {
      "t": 425.3,
      "ch": 1,
      "note": 36,
      "vel": 43,
      "dur": 25
    },
    {
      "t": 425.3,
      "ch": 7,
      "note": 45,
      "vel": 63,
      "dur": 80
    },
    {
      "t": 425.3,
      "ch": 7,
      "note": 36,
      "vel": 60,
      "dur": 80
    },
    {
      "t": 425.4,
      "ch": 1,
      "note": 38,
      "vel": 23,
      "dur": 25
    },
    {
      "t": 425.6,
      "ch": 1,
      "note": 40,
      "vel": 51,
      "dur": 25
    },
    {
      "t": 425.6,
      "ch": 7,
      "note": 48,
      "vel": 67,
      "dur": 80
    },
    {
      "t": 425.6,
      "ch": 7,
      "note": 36,
      "vel": 70,
      "dur": 80
    },
    {
      "t": 425.8,
      "ch": 1,
      "note": 42,
      "vel": 66,
      "dur": 25
    },
    {
      "t": 426,
      "ch": 1,
      "note": 36,
      "vel": 35,
      "dur": 25
    },
    {
      "t": 426.1,
      "ch": 1,
      "note": 38,
      "vel": 42,
      "dur": 25
    },
    {
      "t": 426.3,
      "ch": 1,
      "note": 40,
      "vel": 46,
      "dur": 25
    },
    {
      "t": 426.3,
      "ch": 7,
      "note": 48,
      "vel": 65,
      "dur": 80
    },
    {
      "t": 426.3,
      "ch": 7,
      "note": 45,
      "vel": 56,
      "dur": 80
    },
    {
      "t": 426.3,
      "ch": 7,
      "note": 36,
      "vel": 72,
      "dur": 80
    },
    {
      "t": 426.5,
      "ch": 1,
      "note": 42,
      "vel": 34,
      "dur": 25
    },
    {
      "t": 426.7,
      "ch": 1,
      "note": 36,
      "vel": 24,
      "dur": 25
    },
    {
      "t": 426.7,
      "ch": 7,
      "note": 36,
      "vel": 61,
      "dur": 80
    },
    {
      "t": 426.8,
      "ch": 1,
      "note": 38,
      "vel": 37,
      "dur": 25
    },
    {
      "t": 427,
      "ch": 1,
      "note": 40,
      "vel": 57,
      "dur": 25
    },
    {
      "t": 427,
      "ch": 7,
      "note": 48,
      "vel": 65,
      "dur": 80
    },
    {
      "t": 427,
      "ch": 7,
      "note": 36,
      "vel": 72,
      "dur": 80
    },
    {
      "t": 427.2,
      "ch": 1,
      "note": 42,
      "vel": 71,
      "dur": 25
    },
    {
      "t": 427.2,
      "ch": 7,
      "note": 45,
      "vel": 59,
      "dur": 80
    },
    {
      "t": 427.4,
      "ch": 1,
      "note": 36,
      "vel": 47,
      "dur": 25
    },
    {
      "t": 427.5,
      "ch": 1,
      "note": 38,
      "vel": 47,
      "dur": 25
    },
    {
      "t": 427.6,
      "ch": 4,
      "note": 64,
      "vel": 22,
      "dur": 2790
    },
    {
      "t": 427.6,
      "ch": 4,
      "note": 63,
      "vel": 25,
      "dur": 2740
    },
    {
      "t": 427.6,
      "ch": 4,
      "note": 70,
      "vel": 26,
      "dur": 5531
    },
    {
      "t": 427.7,
      "ch": 1,
      "note": 40,
      "vel": 56,
      "dur": 25
    },
    {
      "t": 427.7,
      "ch": 7,
      "note": 48,
      "vel": 85,
      "dur": 80
    },
    {
      "t": 427.7,
      "ch": 7,
      "note": 36,
      "vel": 73,
      "dur": 80
    },
    {
      "t": 427.9,
      "ch": 1,
      "note": 42,
      "vel": 56,
      "dur": 25
    },
    {
      "t": 428.1,
      "ch": 1,
      "note": 36,
      "vel": 38,
      "dur": 25
    },
    {
      "t": 428.1,
      "ch": 7,
      "note": 45,
      "vel": 66,
      "dur": 80
    },
    {
      "t": 428.1,
      "ch": 7,
      "note": 36,
      "vel": 58,
      "dur": 80
    },
    {
      "t": 428.2,
      "ch": 1,
      "note": 38,
      "vel": 41,
      "dur": 25
    },
    {
      "t": 428.4,
      "ch": 1,
      "note": 40,
      "vel": 27,
      "dur": 25
    },
    {
      "t": 428.4,
      "ch": 7,
      "note": 48,
      "vel": 66,
      "dur": 80
    },
    {
      "t": 428.4,
      "ch": 7,
      "note": 36,
      "vel": 63,
      "dur": 80
    },
    {
      "t": 428.6,
      "ch": 1,
      "note": 42,
      "vel": 67,
      "dur": 25
    },
    {
      "t": 428.8,
      "ch": 1,
      "note": 36,
      "vel": 30,
      "dur": 25
    },
    {
      "t": 428.9,
      "ch": 1,
      "note": 38,
      "vel": 24,
      "dur": 25
    },
    {
      "t": 429.1,
      "ch": 1,
      "note": 40,
      "vel": 50,
      "dur": 25
    },
    {
      "t": 429.1,
      "ch": 7,
      "note": 48,
      "vel": 73,
      "dur": 80
    },
    {
      "t": 429.1,
      "ch": 7,
      "note": 45,
      "vel": 67,
      "dur": 80
    },
    {
      "t": 429.1,
      "ch": 7,
      "note": 36,
      "vel": 69,
      "dur": 80
    },
    {
      "t": 429.3,
      "ch": 1,
      "note": 42,
      "vel": 40,
      "dur": 25
    },
    {
      "t": 429.3,
      "ch": 5,
      "note": 65,
      "vel": 1,
      "dur": 1013
    },
    {
      "t": 429.5,
      "ch": 1,
      "note": 36,
      "vel": 58,
      "dur": 25
    },
    {
      "t": 429.5,
      "ch": 7,
      "note": 36,
      "vel": 52,
      "dur": 80
    },
    {
      "t": 429.5,
      "ch": 5,
      "note": 68,
      "vel": 21,
      "dur": 1014
    },
    {
      "t": 429.6,
      "ch": 1,
      "note": 38,
      "vel": 42,
      "dur": 25
    },
    {
      "t": 429.8,
      "ch": 1,
      "note": 40,
      "vel": 23,
      "dur": 25
    },
    {
      "t": 429.8,
      "ch": 7,
      "note": 48,
      "vel": 68,
      "dur": 80
    },
    {
      "t": 429.8,
      "ch": 7,
      "note": 36,
      "vel": 53,
      "dur": 80
    },
    {
      "t": 430,
      "ch": 1,
      "note": 42,
      "vel": 24,
      "dur": 25
    },
    {
      "t": 430,
      "ch": 7,
      "note": 45,
      "vel": 64,
      "dur": 80
    },
    {
      "t": 430.2,
      "ch": 1,
      "note": 36,
      "vel": 53,
      "dur": 25
    },
    {
      "t": 430.3,
      "ch": 1,
      "note": 38,
      "vel": 38,
      "dur": 25
    },
    {
      "t": 430.5,
      "ch": 1,
      "note": 40,
      "vel": 64,
      "dur": 25
    },
    {
      "t": 430.5,
      "ch": 7,
      "note": 48,
      "vel": 74,
      "dur": 80
    },
    {
      "t": 430.5,
      "ch": 7,
      "note": 36,
      "vel": 86,
      "dur": 80
    },
    {
      "t": 430.7,
      "ch": 1,
      "note": 42,
      "vel": 27,
      "dur": 25
    },
    {
      "t": 430.9,
      "ch": 1,
      "note": 36,
      "vel": 28,
      "dur": 25
    },
    {
      "t": 430.9,
      "ch": 7,
      "note": 45,
      "vel": 56,
      "dur": 80
    },
    {
      "t": 430.9,
      "ch": 7,
      "note": 36,
      "vel": 63,
      "dur": 80
    },
    {
      "t": 431,
      "ch": 1,
      "note": 38,
      "vel": 34,
      "dur": 25
    },
    {
      "t": 431,
      "ch": 5,
      "note": 75,
      "vel": 18,
      "dur": 1021
    },
    {
      "t": 431.2,
      "ch": 1,
      "note": 40,
      "vel": 51,
      "dur": 25
    },
    {
      "t": 431.2,
      "ch": 7,
      "note": 48,
      "vel": 70,
      "dur": 80
    },
    {
      "t": 431.2,
      "ch": 7,
      "note": 36,
      "vel": 60,
      "dur": 80
    },
    {
      "t": 431.4,
      "ch": 1,
      "note": 42,
      "vel": 62,
      "dur": 25
    },
    {
      "t": 431.6,
      "ch": 1,
      "note": 36,
      "vel": 55,
      "dur": 25
    },
    {
      "t": 431.7,
      "ch": 1,
      "note": 38,
      "vel": 29,
      "dur": 25
    },
    {
      "t": 431.9,
      "ch": 1,
      "note": 40,
      "vel": 75,
      "dur": 25
    },
    {
      "t": 431.9,
      "ch": 7,
      "note": 48,
      "vel": 67,
      "dur": 80
    },
    {
      "t": 431.9,
      "ch": 7,
      "note": 45,
      "vel": 81,
      "dur": 80
    },
    {
      "t": 431.9,
      "ch": 7,
      "note": 36,
      "vel": 73,
      "dur": 80
    },
    {
      "t": 432.1,
      "ch": 1,
      "note": 42,
      "vel": 30,
      "dur": 25
    },
    {
      "t": 432.2,
      "ch": 1,
      "note": 36,
      "vel": 41,
      "dur": 25
    },
    {
      "t": 432.3,
      "ch": 7,
      "note": 36,
      "vel": 63,
      "dur": 80
    },
    {
      "t": 432.4,
      "ch": 1,
      "note": 38,
      "vel": 17,
      "dur": 25
    },
    {
      "t": 432.6,
      "ch": 1,
      "note": 40,
      "vel": 53,
      "dur": 25
    },
    {
      "t": 432.6,
      "ch": 7,
      "note": 48,
      "vel": 73,
      "dur": 80
    },
    {
      "t": 432.6,
      "ch": 7,
      "note": 36,
      "vel": 72,
      "dur": 80
    },
    {
      "t": 432.7,
      "ch": 1,
      "note": 42,
      "vel": 33,
      "dur": 25
    },
    {
      "t": 432.8,
      "ch": 7,
      "note": 45,
      "vel": 51,
      "dur": 80
    },
    {
      "t": 432.9,
      "ch": 1,
      "note": 36,
      "vel": 36,
      "dur": 25
    },
    {
      "t": 433.1,
      "ch": 1,
      "note": 38,
      "vel": 52,
      "dur": 25
    },
    {
      "t": 433.2,
      "ch": 4,
      "note": 63,
      "vel": 22,
      "dur": 5531
    },
    {
      "t": 433.2,
      "ch": 4,
      "note": 70,
      "vel": 23,
      "dur": 5531
    },
    {
      "t": 433.2,
      "ch": 3,
      "note": 46,
      "vel": 25,
      "dur": 5581
    },
    {
      "t": 433.3,
      "ch": 1,
      "note": 40,
      "vel": 55,
      "dur": 25
    },
    {
      "t": 433.3,
      "ch": 7,
      "note": 48,
      "vel": 76,
      "dur": 80
    },
    {
      "t": 433.3,
      "ch": 7,
      "note": 36,
      "vel": 87,
      "dur": 80
    },
    {
      "t": 433.5,
      "ch": 1,
      "note": 42,
      "vel": 55,
      "dur": 25
    },
    {
      "t": 433.6,
      "ch": 1,
      "note": 36,
      "vel": 53,
      "dur": 25
    },
    {
      "t": 433.7,
      "ch": 7,
      "note": 45,
      "vel": 65,
      "dur": 80
    },
    {
      "t": 433.7,
      "ch": 7,
      "note": 36,
      "vel": 54,
      "dur": 80
    },
    {
      "t": 433.8,
      "ch": 1,
      "note": 38,
      "vel": 50,
      "dur": 25
    },
    {
      "t": 434,
      "ch": 1,
      "note": 40,
      "vel": 74,
      "dur": 25
    },
    {
      "t": 434,
      "ch": 7,
      "note": 48,
      "vel": 64,
      "dur": 80
    },
    {
      "t": 434,
      "ch": 7,
      "note": 36,
      "vel": 73,
      "dur": 80
    },
    {
      "t": 434.2,
      "ch": 1,
      "note": 42,
      "vel": 43,
      "dur": 25
    },
    {
      "t": 434.3,
      "ch": 1,
      "note": 36,
      "vel": 34,
      "dur": 25
    },
    {
      "t": 434.3,
      "ch": 6,
      "note": 71,
      "vel": 14,
      "dur": 694
    },
    {
      "t": 434.5,
      "ch": 1,
      "note": 38,
      "vel": 38,
      "dur": 25
    },
    {
      "t": 434.7,
      "ch": 1,
      "note": 40,
      "vel": 38,
      "dur": 25
    },
    {
      "t": 434.7,
      "ch": 7,
      "note": 48,
      "vel": 61,
      "dur": 80
    },
    {
      "t": 434.7,
      "ch": 7,
      "note": 45,
      "vel": 72,
      "dur": 80
    },
    {
      "t": 434.8,
      "ch": 1,
      "note": 42,
      "vel": 35,
      "dur": 25
    },
    {
      "t": 435,
      "ch": 1,
      "note": 36,
      "vel": 38,
      "dur": 25
    },
    {
      "t": 435.2,
      "ch": 1,
      "note": 38,
      "vel": 37,
      "dur": 25
    },
    {
      "t": 435.4,
      "ch": 1,
      "note": 40,
      "vel": 63,
      "dur": 25
    },
    {
      "t": 435.4,
      "ch": 7,
      "note": 48,
      "vel": 70,
      "dur": 80
    },
    {
      "t": 435.5,
      "ch": 1,
      "note": 42,
      "vel": 65,
      "dur": 25
    },
    {
      "t": 435.6,
      "ch": 7,
      "note": 45,
      "vel": 61,
      "dur": 80
    },
    {
      "t": 435.7,
      "ch": 1,
      "note": 36,
      "vel": 58,
      "dur": 25
    },
    {
      "t": 435.9,
      "ch": 1,
      "note": 38,
      "vel": 25,
      "dur": 25
    },
    {
      "t": 436,
      "ch": 2,
      "note": 56,
      "vel": 0,
      "dur": 0
    },
    {
      "t": 436,
      "ch": 2,
      "note": 58,
      "vel": 49,
      "dur": 20930
    },
    {
      "t": 436.1,
      "ch": 1,
      "note": 40,
      "vel": 70,
      "dur": 25
    },
    {
      "t": 436.1,
      "ch": 7,
      "note": 48,
      "vel": 63,
      "dur": 80
    },
    {
      "t": 436.2,
      "ch": 1,
      "note": 42,
      "vel": 48,
      "dur": 25
    },
    {
      "t": 436.4,
      "ch": 1,
      "note": 36,
      "vel": 32,
      "dur": 25
    },
    {
      "t": 436.5,
      "ch": 7,
      "note": 45,
      "vel": 67,
      "dur": 80
    },
    {
      "t": 436.6,
      "ch": 1,
      "note": 38,
      "vel": 44,
      "dur": 25
    },
    {
      "t": 436.6,
      "ch": 5,
      "note": 63,
      "vel": 1,
      "dur": 1051
    },
    {
      "t": 436.8,
      "ch": 1,
      "note": 40,
      "vel": 32,
      "dur": 25
    },
    {
      "t": 436.8,
      "ch": 7,
      "note": 48,
      "vel": 72,
      "dur": 80
    },
    {
      "t": 436.9,
      "ch": 1,
      "note": 42,
      "vel": 53,
      "dur": 25
    },
    {
      "t": 437.1,
      "ch": 1,
      "note": 36,
      "vel": 61,
      "dur": 25
    },
    {
      "t": 437.3,
      "ch": 1,
      "note": 38,
      "vel": 47,
      "dur": 25
    },
    {
      "t": 437.5,
      "ch": 0,
      "note": 36,
      "vel": 127,
      "dur": 55
    },
    {
      "t": 437.5,
      "ch": 1,
      "note": 40,
      "vel": 76,
      "dur": 25
    },
    {
      "t": 437.5,
      "ch": 7,
      "note": 48,
      "vel": 55,
      "dur": 80
    },
    {
      "t": 437.5,
      "ch": 7,
      "note": 45,
      "vel": 73,
      "dur": 80
    },
    {
      "t": 437.6,
      "ch": 1,
      "note": 42,
      "vel": 65,
      "dur": 25
    },
    {
      "t": 437.8,
      "ch": 1,
      "note": 36,
      "vel": 58,
      "dur": 25
    },
    {
      "t": 438,
      "ch": 1,
      "note": 38,
      "vel": 43,
      "dur": 25
    },
    {
      "t": 438.2,
      "ch": 1,
      "note": 40,
      "vel": 48,
      "dur": 25
    },
    {
      "t": 438.2,
      "ch": 7,
      "note": 48,
      "vel": 73,
      "dur": 80
    },
    {
      "t": 438.3,
      "ch": 1,
      "note": 42,
      "vel": 59,
      "dur": 25
    },
    {
      "t": 438.4,
      "ch": 7,
      "note": 45,
      "vel": 53,
      "dur": 80
    },
    {
      "t": 438.5,
      "ch": 1,
      "note": 36,
      "vel": 51,
      "dur": 25
    },
    {
      "t": 438.7,
      "ch": 1,
      "note": 38,
      "vel": 41,
      "dur": 25
    },
    {
      "t": 438.8,
      "ch": 4,
      "note": 63,
      "vel": 20,
      "dur": 5531
    },
    {
      "t": 438.8,
      "ch": 4,
      "note": 65,
      "vel": 20,
      "dur": 5531
    },
    {
      "t": 438.8,
      "ch": 3,
      "note": 39,
      "vel": 22,
      "dur": 5581
    },
    {
      "t": 438.9,
      "ch": 0,
      "note": 36,
      "vel": 90,
      "dur": 55
    },
    {
      "t": 438.9,
      "ch": 1,
      "note": 40,
      "vel": 35,
      "dur": 25
    },
    {
      "t": 438.9,
      "ch": 7,
      "note": 48,
      "vel": 58,
      "dur": 80
    },
    {
      "t": 439,
      "ch": 1,
      "note": 42,
      "vel": 30,
      "dur": 25
    },
    {
      "t": 439.2,
      "ch": 1,
      "note": 36,
      "vel": 37,
      "dur": 25
    },
    {
      "t": 439.2,
      "ch": 7,
      "note": 45,
      "vel": 62,
      "dur": 80
    },
    {
      "t": 439.4,
      "ch": 1,
      "note": 38,
      "vel": 21,
      "dur": 25
    },
    {
      "t": 439.6,
      "ch": 1,
      "note": 40,
      "vel": 47,
      "dur": 25
    },
    {
      "t": 439.6,
      "ch": 7,
      "note": 48,
      "vel": 76,
      "dur": 80
    },
    {
      "t": 439.7,
      "ch": 1,
      "note": 42,
      "vel": 61,
      "dur": 25
    },
    {
      "t": 439.9,
      "ch": 1,
      "note": 36,
      "vel": 43,
      "dur": 25
    },
    {
      "t": 440.1,
      "ch": 1,
      "note": 38,
      "vel": 44,
      "dur": 25
    },
    {
      "t": 440.3,
      "ch": 1,
      "note": 40,
      "vel": 61,
      "dur": 25
    },
    {
      "t": 440.3,
      "ch": 7,
      "note": 48,
      "vel": 76,
      "dur": 80
    },
    {
      "t": 440.3,
      "ch": 7,
      "note": 45,
      "vel": 68,
      "dur": 80
    },
    {
      "t": 440.4,
      "ch": 1,
      "note": 42,
      "vel": 67,
      "dur": 25
    },
    {
      "t": 440.6,
      "ch": 1,
      "note": 36,
      "vel": 52,
      "dur": 25
    },
    {
      "t": 440.8,
      "ch": 1,
      "note": 38,
      "vel": 42,
      "dur": 25
    },
    {
      "t": 441,
      "ch": 1,
      "note": 40,
      "vel": 64,
      "dur": 25
    },
    {
      "t": 441,
      "ch": 7,
      "note": 48,
      "vel": 68,
      "dur": 80
    },
    {
      "t": 441.1,
      "ch": 1,
      "note": 42,
      "vel": 30,
      "dur": 25
    },
    {
      "t": 441.2,
      "ch": 7,
      "note": 45,
      "vel": 53,
      "dur": 80
    },
    {
      "t": 441.3,
      "ch": 1,
      "note": 36,
      "vel": 31,
      "dur": 25
    },
    {
      "t": 441.5,
      "ch": 1,
      "note": 38,
      "vel": 27,
      "dur": 25
    },
    {
      "t": 441.7,
      "ch": 1,
      "note": 40,
      "vel": 30,
      "dur": 25
    },
    {
      "t": 441.7,
      "ch": 7,
      "note": 48,
      "vel": 70,
      "dur": 80
    },
    {
      "t": 441.8,
      "ch": 1,
      "note": 42,
      "vel": 43,
      "dur": 25
    },
    {
      "t": 442,
      "ch": 1,
      "note": 36,
      "vel": 52,
      "dur": 25
    },
    {
      "t": 442,
      "ch": 7,
      "note": 45,
      "vel": 63,
      "dur": 80
    },
    {
      "t": 442.2,
      "ch": 1,
      "note": 38,
      "vel": 27,
      "dur": 25
    },
    {
      "t": 442.4,
      "ch": 1,
      "note": 40,
      "vel": 46,
      "dur": 25
    },
    {
      "t": 442.4,
      "ch": 7,
      "note": 48,
      "vel": 69,
      "dur": 80
    },
    {
      "t": 442.5,
      "ch": 1,
      "note": 42,
      "vel": 39,
      "dur": 25
    },
    {
      "t": 442.7,
      "ch": 1,
      "note": 36,
      "vel": 52,
      "dur": 25
    },
    {
      "t": 442.9,
      "ch": 1,
      "note": 38,
      "vel": 33,
      "dur": 25
    },
    {
      "t": 443.1,
      "ch": 1,
      "note": 40,
      "vel": 76,
      "dur": 25
    },
    {
      "t": 443.1,
      "ch": 7,
      "note": 48,
      "vel": 72,
      "dur": 80
    },
    {
      "t": 443.1,
      "ch": 7,
      "note": 45,
      "vel": 69,
      "dur": 80
    },
    {
      "t": 443.2,
      "ch": 1,
      "note": 42,
      "vel": 41,
      "dur": 25
    },
    {
      "t": 443.4,
      "ch": 1,
      "note": 36,
      "vel": 41,
      "dur": 25
    },
    {
      "t": 443.6,
      "ch": 1,
      "note": 38,
      "vel": 37,
      "dur": 25
    },
    {
      "t": 443.8,
      "ch": 1,
      "note": 40,
      "vel": 49,
      "dur": 25
    },
    {
      "t": 443.8,
      "ch": 7,
      "note": 48,
      "vel": 80,
      "dur": 80
    },
    {
      "t": 443.9,
      "ch": 1,
      "note": 42,
      "vel": 20,
      "dur": 25
    },
    {
      "t": 444,
      "ch": 7,
      "note": 45,
      "vel": 62,
      "dur": 80
    },
    {
      "t": 444.1,
      "ch": 1,
      "note": 36,
      "vel": 36,
      "dur": 25
    },
    {
      "t": 444.3,
      "ch": 1,
      "note": 38,
      "vel": 44,
      "dur": 25
    },
    {
      "t": 444.4,
      "ch": 4,
      "note": 64,
      "vel": 21,
      "dur": 2790
    },
    {
      "t": 444.4,
      "ch": 4,
      "note": 63,
      "vel": 23,
      "dur": 2740
    },
    {
      "t": 444.4,
      "ch": 4,
      "note": 65,
      "vel": 24,
      "dur": 5531
    },
    {
      "t": 444.4,
      "ch": 3,
      "note": 53,
      "vel": 26,
      "dur": 5581
    },
    {
      "t": 444.5,
      "ch": 1,
      "note": 40,
      "vel": 43,
      "dur": 25
    },
    {
      "t": 444.5,
      "ch": 7,
      "note": 48,
      "vel": 66,
      "dur": 80
    },
    {
      "t": 444.6,
      "ch": 1,
      "note": 42,
      "vel": 36,
      "dur": 25
    },
    {
      "t": 444.8,
      "ch": 1,
      "note": 36,
      "vel": 41,
      "dur": 25
    },
    {
      "t": 444.8,
      "ch": 7,
      "note": 45,
      "vel": 62,
      "dur": 80
    },
    {
      "t": 445,
      "ch": 1,
      "note": 38,
      "vel": 41,
      "dur": 25
    },
    {
      "t": 445.1,
      "ch": 1,
      "note": 40,
      "vel": 45,
      "dur": 25
    },
    {
      "t": 445.1,
      "ch": 7,
      "note": 48,
      "vel": 65,
      "dur": 80
    },
    {
      "t": 445.3,
      "ch": 1,
      "note": 42,
      "vel": 49,
      "dur": 25
    },
    {
      "t": 445.5,
      "ch": 1,
      "note": 36,
      "vel": 50,
      "dur": 25
    },
    {
      "t": 445.7,
      "ch": 1,
      "note": 38,
      "vel": 39,
      "dur": 25
    },
    {
      "t": 445.7,
      "ch": 5,
      "note": 58,
      "vel": 14,
      "dur": 1021
    },
    {
      "t": 445.9,
      "ch": 1,
      "note": 40,
      "vel": 54,
      "dur": 25
    },
    {
      "t": 445.9,
      "ch": 7,
      "note": 48,
      "vel": 74,
      "dur": 80
    },
    {
      "t": 445.9,
      "ch": 7,
      "note": 45,
      "vel": 66,
      "dur": 80
    },
    {
      "t": 445.9,
      "ch": 7,
      "note": 36,
      "vel": 67,
      "dur": 80
    },
    {
      "t": 446,
      "ch": 1,
      "note": 42,
      "vel": 50,
      "dur": 25
    },
    {
      "t": 446.2,
      "ch": 1,
      "note": 36,
      "vel": 25,
      "dur": 25
    },
    {
      "t": 446.2,
      "ch": 7,
      "note": 36,
      "vel": 69,
      "dur": 80
    },
    {
      "t": 446.2,
      "ch": 5,
      "note": 65,
      "vel": 5,
      "dur": 1018
    },
    {
      "t": 446.4,
      "ch": 1,
      "note": 38,
      "vel": 35,
      "dur": 25
    },
    {
      "t": 446.5,
      "ch": 1,
      "note": 40,
      "vel": 52,
      "dur": 25
    },
    {
      "t": 446.5,
      "ch": 7,
      "note": 48,
      "vel": 75,
      "dur": 80
    },
    {
      "t": 446.5,
      "ch": 7,
      "note": 36,
      "vel": 79,
      "dur": 80
    },
    {
      "t": 446.7,
      "ch": 1,
      "note": 42,
      "vel": 46,
      "dur": 25
    },
    {
      "t": 446.7,
      "ch": 7,
      "note": 45,
      "vel": 49,
      "dur": 80
    },
    {
      "t": 446.9,
      "ch": 1,
      "note": 36,
      "vel": 42,
      "dur": 25
    },
    {
      "t": 447.1,
      "ch": 1,
      "note": 38,
      "vel": 47,
      "dur": 25
    },
    {
      "t": 447.2,
      "ch": 2,
      "note": 58,
      "vel": 50,
      "dur": 20930
    },
    {
      "t": 447.2,
      "ch": 1,
      "note": 40,
      "vel": 55,
      "dur": 25
    },
    {
      "t": 447.2,
      "ch": 7,
      "note": 48,
      "vel": 62,
      "dur": 80
    },
    {
      "t": 447.2,
      "ch": 7,
      "note": 36,
      "vel": 63,
      "dur": 80
    },
    {
      "t": 447.4,
      "ch": 1,
      "note": 42,
      "vel": 54,
      "dur": 25
    },
    {
      "t": 447.6,
      "ch": 1,
      "note": 36,
      "vel": 35,
      "dur": 25
    },
    {
      "t": 447.6,
      "ch": 7,
      "note": 45,
      "vel": 64,
      "dur": 80
    },
    {
      "t": 447.6,
      "ch": 7,
      "note": 36,
      "vel": 52,
      "dur": 80
    },
    {
      "t": 447.7,
      "ch": 1,
      "note": 38,
      "vel": 33,
      "dur": 25
    },
    {
      "t": 447.9,
      "ch": 1,
      "note": 40,
      "vel": 37,
      "dur": 25
    },
    {
      "t": 447.9,
      "ch": 7,
      "note": 48,
      "vel": 62,
      "dur": 80
    },
    {
      "t": 447.9,
      "ch": 7,
      "note": 36,
      "vel": 74,
      "dur": 80
    },
    {
      "t": 448.1,
      "ch": 1,
      "note": 42,
      "vel": 59,
      "dur": 25
    },
    {
      "t": 448.3,
      "ch": 1,
      "note": 36,
      "vel": 50,
      "dur": 25
    },
    {
      "t": 448.4,
      "ch": 1,
      "note": 38,
      "vel": 67,
      "dur": 25
    },
    {
      "t": 448.6,
      "ch": 0,
      "note": 36,
      "vel": 118,
      "dur": 55
    },
    {
      "t": 448.6,
      "ch": 1,
      "note": 40,
      "vel": 53,
      "dur": 25
    },
    {
      "t": 448.6,
      "ch": 7,
      "note": 48,
      "vel": 56,
      "dur": 80
    },
    {
      "t": 448.6,
      "ch": 7,
      "note": 45,
      "vel": 78,
      "dur": 80
    },
    {
      "t": 448.6,
      "ch": 7,
      "note": 36,
      "vel": 72,
      "dur": 80
    },
    {
      "t": 448.8,
      "ch": 1,
      "note": 42,
      "vel": 46,
      "dur": 25
    },
    {
      "t": 449,
      "ch": 1,
      "note": 36,
      "vel": 52,
      "dur": 25
    },
    {
      "t": 449,
      "ch": 7,
      "note": 36,
      "vel": 57,
      "dur": 80
    },
    {
      "t": 449.1,
      "ch": 1,
      "note": 38,
      "vel": 50,
      "dur": 25
    },
    {
      "t": 449.3,
      "ch": 1,
      "note": 40,
      "vel": 37,
      "dur": 25
    },
    {
      "t": 449.3,
      "ch": 7,
      "note": 48,
      "vel": 72,
      "dur": 80
    },
    {
      "t": 449.3,
      "ch": 7,
      "note": 36,
      "vel": 76,
      "dur": 80
    },
    {
      "t": 449.5,
      "ch": 1,
      "note": 42,
      "vel": 37,
      "dur": 25
    },
    {
      "t": 449.5,
      "ch": 7,
      "note": 45,
      "vel": 60,
      "dur": 80
    },
    {
      "t": 449.7,
      "ch": 1,
      "note": 36,
      "vel": 44,
      "dur": 25
    },
    {
      "t": 449.8,
      "ch": 1,
      "note": 38,
      "vel": 31,
      "dur": 25
    },
    {
      "t": 450,
      "ch": 4,
      "note": 63,
      "vel": 27,
      "dur": 5531
    },
    {
      "t": 450,
      "ch": 4,
      "note": 69,
      "vel": 25,
      "dur": 2790
    },
    {
      "t": 450,
      "ch": 4,
      "note": 68,
      "vel": 42,
      "dur": 2740
    },
    {
      "t": 450,
      "ch": 3,
      "note": 44,
      "vel": 44,
      "dur": 5581
    },
    {
      "t": 450,
      "ch": 0,
      "note": 36,
      "vel": 89,
      "dur": 55
    },
    {
      "t": 450,
      "ch": 1,
      "note": 40,
      "vel": 56,
      "dur": 25
    },
    {
      "t": 450,
      "ch": 7,
      "note": 48,
      "vel": 76,
      "dur": 80
    },
    {
      "t": 450,
      "ch": 7,
      "note": 36,
      "vel": 66,
      "dur": 80
    },
    {
      "t": 450.2,
      "ch": 1,
      "note": 42,
      "vel": 35,
      "dur": 25
    },
    {
      "t": 450.4,
      "ch": 1,
      "note": 36,
      "vel": 30,
      "dur": 25
    },
    {
      "t": 450.4,
      "ch": 7,
      "note": 45,
      "vel": 64,
      "dur": 80
    },
    {
      "t": 450.4,
      "ch": 7,
      "note": 36,
      "vel": 68,
      "dur": 80
    },
    {
      "t": 450.5,
      "ch": 1,
      "note": 38,
      "vel": 50,
      "dur": 25
    },
    {
      "t": 450.7,
      "ch": 1,
      "note": 40,
      "vel": 41,
      "dur": 25
    },
    {
      "t": 450.7,
      "ch": 7,
      "note": 48,
      "vel": 82,
      "dur": 80
    },
    {
      "t": 450.7,
      "ch": 7,
      "note": 36,
      "vel": 73,
      "dur": 80
    },
    {
      "t": 450.9,
      "ch": 1,
      "note": 42,
      "vel": 51,
      "dur": 25
    },
    {
      "t": 451.1,
      "ch": 1,
      "note": 36,
      "vel": 54,
      "dur": 25
    },
    {
      "t": 451.2,
      "ch": 1,
      "note": 38,
      "vel": 58,
      "dur": 25
    },
    {
      "t": 451.4,
      "ch": 1,
      "note": 40,
      "vel": 54,
      "dur": 25
    },
    {
      "t": 451.4,
      "ch": 7,
      "note": 48,
      "vel": 77,
      "dur": 80
    },
    {
      "t": 451.4,
      "ch": 7,
      "note": 45,
      "vel": 70,
      "dur": 80
    },
    {
      "t": 451.4,
      "ch": 7,
      "note": 36,
      "vel": 67,
      "dur": 80
    },
    {
      "t": 451.6,
      "ch": 1,
      "note": 42,
      "vel": 47,
      "dur": 25
    },
    {
      "t": 451.8,
      "ch": 1,
      "note": 36,
      "vel": 23,
      "dur": 25
    },
    {
      "t": 451.8,
      "ch": 7,
      "note": 36,
      "vel": 56,
      "dur": 80
    },
    {
      "t": 451.9,
      "ch": 1,
      "note": 38,
      "vel": 58,
      "dur": 25
    },
    {
      "t": 452.1,
      "ch": 1,
      "note": 40,
      "vel": 48,
      "dur": 25
    },
    {
      "t": 452.1,
      "ch": 7,
      "note": 48,
      "vel": 59,
      "dur": 80
    },
    {
      "t": 452.1,
      "ch": 7,
      "note": 36,
      "vel": 69,
      "dur": 80
    },
    {
      "t": 452.3,
      "ch": 1,
      "note": 42,
      "vel": 52,
      "dur": 25
    },
    {
      "t": 452.3,
      "ch": 7,
      "note": 45,
      "vel": 73,
      "dur": 80
    },
    {
      "t": 452.5,
      "ch": 1,
      "note": 36,
      "vel": 47,
      "dur": 25
    },
    {
      "t": 452.6,
      "ch": 1,
      "note": 38,
      "vel": 35,
      "dur": 25
    },
    {
      "t": 452.8,
      "ch": 1,
      "note": 40,
      "vel": 50,
      "dur": 25
    },
    {
      "t": 452.8,
      "ch": 7,
      "note": 48,
      "vel": 65,
      "dur": 80
    },
    {
      "t": 452.8,
      "ch": 7,
      "note": 36,
      "vel": 71,
      "dur": 80
    },
    {
      "t": 453,
      "ch": 1,
      "note": 42,
      "vel": 65,
      "dur": 25
    },
    {
      "t": 453.2,
      "ch": 1,
      "note": 36,
      "vel": 41,
      "dur": 25
    },
    {
      "t": 453.2,
      "ch": 7,
      "note": 45,
      "vel": 50,
      "dur": 80
    },
    {
      "t": 453.2,
      "ch": 7,
      "note": 36,
      "vel": 69,
      "dur": 80
    },
    {
      "t": 453.3,
      "ch": 1,
      "note": 38,
      "vel": 63,
      "dur": 25
    },
    {
      "t": 453.5,
      "ch": 1,
      "note": 40,
      "vel": 53,
      "dur": 25
    },
    {
      "t": 453.5,
      "ch": 7,
      "note": 48,
      "vel": 90,
      "dur": 80
    },
    {
      "t": 453.5,
      "ch": 7,
      "note": 36,
      "vel": 77,
      "dur": 80
    },
    {
      "t": 453.7,
      "ch": 1,
      "note": 42,
      "vel": 37,
      "dur": 25
    },
    {
      "t": 453.9,
      "ch": 1,
      "note": 36,
      "vel": 67,
      "dur": 25
    },
    {
      "t": 454,
      "ch": 1,
      "note": 38,
      "vel": 38,
      "dur": 25
    },
    {
      "t": 454.2,
      "ch": 1,
      "note": 40,
      "vel": 17,
      "dur": 25
    },
    {
      "t": 454.2,
      "ch": 7,
      "note": 48,
      "vel": 71,
      "dur": 80
    },
    {
      "t": 454.2,
      "ch": 7,
      "note": 45,
      "vel": 54,
      "dur": 80
    },
    {
      "t": 454.2,
      "ch": 7,
      "note": 36,
      "vel": 70,
      "dur": 80
    },
    {
      "t": 454.4,
      "ch": 1,
      "note": 42,
      "vel": 37,
      "dur": 25
    },
    {
      "t": 454.6,
      "ch": 1,
      "note": 36,
      "vel": 56,
      "dur": 25
    },
    {
      "t": 454.6,
      "ch": 7,
      "note": 36,
      "vel": 68,
      "dur": 80
    },
    {
      "t": 454.7,
      "ch": 1,
      "note": 38,
      "vel": 72,
      "dur": 25
    },
    {
      "t": 454.9,
      "ch": 1,
      "note": 40,
      "vel": 50,
      "dur": 25
    },
    {
      "t": 454.9,
      "ch": 7,
      "note": 48,
      "vel": 68,
      "dur": 80
    },
    {
      "t": 454.9,
      "ch": 7,
      "note": 36,
      "vel": 70,
      "dur": 80
    },
    {
      "t": 455.1,
      "ch": 1,
      "note": 42,
      "vel": 50,
      "dur": 25
    },
    {
      "t": 455.1,
      "ch": 7,
      "note": 45,
      "vel": 72,
      "dur": 80
    },
    {
      "t": 455.3,
      "ch": 1,
      "note": 36,
      "vel": 34,
      "dur": 25
    },
    {
      "t": 455.4,
      "ch": 1,
      "note": 38,
      "vel": 45,
      "dur": 25
    },
    {
      "t": 455.5,
      "ch": 4,
      "note": 65,
      "vel": 26,
      "dur": 5531
    },
    {
      "t": 455.5,
      "ch": 4,
      "note": 69,
      "vel": 23,
      "dur": 2790
    },
    {
      "t": 455.5,
      "ch": 4,
      "note": 68,
      "vel": 41,
      "dur": 2740
    },
    {
      "t": 455.5,
      "ch": 3,
      "note": 46,
      "vel": 28,
      "dur": 5581
    },
    {
      "t": 455.6,
      "ch": 1,
      "note": 40,
      "vel": 35,
      "dur": 25
    },
    {
      "t": 455.6,
      "ch": 7,
      "note": 48,
      "vel": 64,
      "dur": 80
    },
    {
      "t": 455.6,
      "ch": 7,
      "note": 36,
      "vel": 67,
      "dur": 80
    },
    {
      "t": 455.8,
      "ch": 1,
      "note": 42,
      "vel": 46,
      "dur": 25
    },
    {
      "t": 456,
      "ch": 1,
      "note": 36,
      "vel": 44,
      "dur": 25
    },
    {
      "t": 456,
      "ch": 7,
      "note": 45,
      "vel": 65,
      "dur": 80
    },
    {
      "t": 456,
      "ch": 7,
      "note": 36,
      "vel": 62,
      "dur": 80
    },
    {
      "t": 456.1,
      "ch": 1,
      "note": 38,
      "vel": 39,
      "dur": 25
    },
    {
      "t": 456.3,
      "ch": 1,
      "note": 40,
      "vel": 75,
      "dur": 25
    },
    {
      "t": 456.3,
      "ch": 7,
      "note": 48,
      "vel": 68,
      "dur": 80
    },
    {
      "t": 456.3,
      "ch": 7,
      "note": 36,
      "vel": 67,
      "dur": 80
    },
    {
      "t": 456.5,
      "ch": 1,
      "note": 42,
      "vel": 38,
      "dur": 25
    },
    {
      "t": 456.7,
      "ch": 1,
      "note": 36,
      "vel": 25,
      "dur": 25
    },
    {
      "t": 456.8,
      "ch": 1,
      "note": 38,
      "vel": 39,
      "dur": 25
    },
    {
      "t": 457,
      "ch": 1,
      "note": 40,
      "vel": 40,
      "dur": 25
    },
    {
      "t": 457,
      "ch": 7,
      "note": 48,
      "vel": 74,
      "dur": 80
    },
    {
      "t": 457,
      "ch": 7,
      "note": 45,
      "vel": 71,
      "dur": 80
    },
    {
      "t": 457,
      "ch": 7,
      "note": 36,
      "vel": 73,
      "dur": 80
    },
    {
      "t": 457.2,
      "ch": 1,
      "note": 42,
      "vel": 47,
      "dur": 25
    },
    {
      "t": 457.4,
      "ch": 1,
      "note": 36,
      "vel": 40,
      "dur": 25
    },
    {
      "t": 457.4,
      "ch": 7,
      "note": 36,
      "vel": 66,
      "dur": 80
    },
    {
      "t": 457.5,
      "ch": 1,
      "note": 38,
      "vel": 57,
      "dur": 25
    },
    {
      "t": 457.7,
      "ch": 1,
      "note": 40,
      "vel": 43,
      "dur": 25
    },
    {
      "t": 457.7,
      "ch": 7,
      "note": 48,
      "vel": 79,
      "dur": 80
    },
    {
      "t": 457.7,
      "ch": 7,
      "note": 36,
      "vel": 79,
      "dur": 80
    },
    {
      "t": 457.9,
      "ch": 1,
      "note": 42,
      "vel": 29,
      "dur": 25
    },
    {
      "t": 457.9,
      "ch": 7,
      "note": 45,
      "vel": 69,
      "dur": 80
    },
    {
      "t": 458.1,
      "ch": 1,
      "note": 36,
      "vel": 45,
      "dur": 25
    },
    {
      "t": 458.2,
      "ch": 1,
      "note": 38,
      "vel": 41,
      "dur": 25
    },
    {
      "t": 458.3,
      "ch": 2,
      "note": 58,
      "vel": 50,
      "dur": 20930
    },
    {
      "t": 458.4,
      "ch": 1,
      "note": 40,
      "vel": 34,
      "dur": 25
    },
    {
      "t": 458.4,
      "ch": 7,
      "note": 48,
      "vel": 75,
      "dur": 80
    },
    {
      "t": 458.4,
      "ch": 7,
      "note": 36,
      "vel": 59,
      "dur": 80
    },
    {
      "t": 458.6,
      "ch": 1,
      "note": 42,
      "vel": 53,
      "dur": 25
    },
    {
      "t": 458.8,
      "ch": 1,
      "note": 36,
      "vel": 46,
      "dur": 25
    },
    {
      "t": 458.8,
      "ch": 7,
      "note": 45,
      "vel": 74,
      "dur": 80
    },
    {
      "t": 458.8,
      "ch": 7,
      "note": 36,
      "vel": 52,
      "dur": 80
    },
    {
      "t": 458.9,
      "ch": 1,
      "note": 38,
      "vel": 38,
      "dur": 25
    },
    {
      "t": 459.1,
      "ch": 1,
      "note": 40,
      "vel": 48,
      "dur": 25
    },
    {
      "t": 459.1,
      "ch": 7,
      "note": 48,
      "vel": 80,
      "dur": 80
    },
    {
      "t": 459.1,
      "ch": 7,
      "note": 36,
      "vel": 77,
      "dur": 80
    },
    {
      "t": 459.3,
      "ch": 1,
      "note": 42,
      "vel": 47,
      "dur": 25
    },
    {
      "t": 459.5,
      "ch": 1,
      "note": 36,
      "vel": 42,
      "dur": 25
    },
    {
      "t": 459.6,
      "ch": 1,
      "note": 38,
      "vel": 50,
      "dur": 25
    },
    {
      "t": 459.8,
      "ch": 0,
      "note": 36,
      "vel": 111,
      "dur": 55
    },
    {
      "t": 459.8,
      "ch": 1,
      "note": 40,
      "vel": 22,
      "dur": 25
    },
    {
      "t": 459.8,
      "ch": 7,
      "note": 48,
      "vel": 78,
      "dur": 80
    },
    {
      "t": 459.8,
      "ch": 7,
      "note": 45,
      "vel": 78,
      "dur": 80
    },
    {
      "t": 459.8,
      "ch": 7,
      "note": 36,
      "vel": 75,
      "dur": 80
    },
    {
      "t": 459.8,
      "ch": 5,
      "note": 68,
      "vel": 32,
      "dur": 1041
    },
    {
      "t": 460,
      "ch": 1,
      "note": 42,
      "vel": 51,
      "dur": 25
    },
    {
      "t": 460.1,
      "ch": 1,
      "note": 36,
      "vel": 55,
      "dur": 25
    },
    {
      "t": 460.2,
      "ch": 7,
      "note": 36,
      "vel": 70,
      "dur": 80
    },
    {
      "t": 460.3,
      "ch": 1,
      "note": 38,
      "vel": 47,
      "dur": 25
    },
    {
      "t": 460.5,
      "ch": 1,
      "note": 40,
      "vel": 33,
      "dur": 25
    },
    {
      "t": 460.5,
      "ch": 7,
      "note": 48,
      "vel": 74,
      "dur": 80
    },
    {
      "t": 460.5,
      "ch": 7,
      "note": 36,
      "vel": 74,
      "dur": 80
    },
    {
      "t": 460.6,
      "ch": 1,
      "note": 42,
      "vel": 36,
      "dur": 25
    },
    {
      "t": 460.7,
      "ch": 7,
      "note": 45,
      "vel": 58,
      "dur": 80
    },
    {
      "t": 460.8,
      "ch": 1,
      "note": 36,
      "vel": 45,
      "dur": 25
    },
    {
      "t": 461,
      "ch": 1,
      "note": 38,
      "vel": 63,
      "dur": 25
    },
    {
      "t": 461.1,
      "ch": 4,
      "note": 65,
      "vel": 23,
      "dur": 5531
    },
    {
      "t": 461.1,
      "ch": 4,
      "note": 70,
      "vel": 23,
      "dur": 5531
    },
    {
      "t": 461.1,
      "ch": 3,
      "note": 46,
      "vel": 26,
      "dur": 5581
    },
    {
      "t": 461.2,
      "ch": 0,
      "note": 36,
      "vel": 92,
      "dur": 55
    },
    {
      "t": 461.2,
      "ch": 1,
      "note": 40,
      "vel": 40,
      "dur": 25
    },
    {
      "t": 461.2,
      "ch": 7,
      "note": 48,
      "vel": 63,
      "dur": 80
    },
    {
      "t": 461.2,
      "ch": 7,
      "note": 36,
      "vel": 67,
      "dur": 80
    },
    {
      "t": 461.4,
      "ch": 1,
      "note": 42,
      "vel": 45,
      "dur": 25
    },
    {
      "t": 461.5,
      "ch": 1,
      "note": 36,
      "vel": 36,
      "dur": 25
    },
    {
      "t": 461.6,
      "ch": 7,
      "note": 45,
      "vel": 76,
      "dur": 80
    },
    {
      "t": 461.6,
      "ch": 7,
      "note": 36,
      "vel": 52,
      "dur": 80
    },
    {
      "t": 461.7,
      "ch": 1,
      "note": 38,
      "vel": 45,
      "dur": 25
    },
    {
      "t": 461.9,
      "ch": 1,
      "note": 40,
      "vel": 61,
      "dur": 25
    },
    {
      "t": 461.9,
      "ch": 7,
      "note": 48,
      "vel": 83,
      "dur": 80
    },
    {
      "t": 461.9,
      "ch": 7,
      "note": 36,
      "vel": 63,
      "dur": 80
    },
    {
      "t": 462.1,
      "ch": 1,
      "note": 42,
      "vel": 36,
      "dur": 25
    },
    {
      "t": 462.2,
      "ch": 1,
      "note": 36,
      "vel": 43,
      "dur": 25
    },
    {
      "t": 462.4,
      "ch": 1,
      "note": 38,
      "vel": 55,
      "dur": 25
    },
    {
      "t": 462.6,
      "ch": 1,
      "note": 40,
      "vel": 51,
      "dur": 25
    },
    {
      "t": 462.6,
      "ch": 7,
      "note": 48,
      "vel": 70,
      "dur": 80
    },
    {
      "t": 462.6,
      "ch": 7,
      "note": 45,
      "vel": 67,
      "dur": 80
    },
    {
      "t": 462.6,
      "ch": 7,
      "note": 36,
      "vel": 68,
      "dur": 80
    },
    {
      "t": 462.7,
      "ch": 1,
      "note": 42,
      "vel": 53,
      "dur": 25
    },
    {
      "t": 462.9,
      "ch": 1,
      "note": 36,
      "vel": 37,
      "dur": 25
    },
    {
      "t": 463,
      "ch": 7,
      "note": 36,
      "vel": 69,
      "dur": 80
    },
    {
      "t": 463.1,
      "ch": 1,
      "note": 38,
      "vel": 52,
      "dur": 25
    },
    {
      "t": 463.3,
      "ch": 1,
      "note": 40,
      "vel": 32,
      "dur": 25
    },
    {
      "t": 463.3,
      "ch": 7,
      "note": 48,
      "vel": 66,
      "dur": 80
    },
    {
      "t": 463.3,
      "ch": 7,
      "note": 36,
      "vel": 71,
      "dur": 80
    },
    {
      "t": 463.4,
      "ch": 1,
      "note": 42,
      "vel": 54,
      "dur": 25
    },
    {
      "t": 463.5,
      "ch": 7,
      "note": 45,
      "vel": 66,
      "dur": 80
    },
    {
      "t": 463.6,
      "ch": 1,
      "note": 36,
      "vel": 62,
      "dur": 25
    },
    {
      "t": 463.8,
      "ch": 1,
      "note": 38,
      "vel": 34,
      "dur": 25
    },
    {
      "t": 464,
      "ch": 1,
      "note": 40,
      "vel": 66,
      "dur": 25
    },
    {
      "t": 464,
      "ch": 7,
      "note": 48,
      "vel": 72,
      "dur": 80
    },
    {
      "t": 464,
      "ch": 7,
      "note": 36,
      "vel": 68,
      "dur": 80
    },
    {
      "t": 464.1,
      "ch": 1,
      "note": 42,
      "vel": 54,
      "dur": 25
    },
    {
      "t": 464.3,
      "ch": 1,
      "note": 36,
      "vel": 20,
      "dur": 25
    },
    {
      "t": 464.4,
      "ch": 7,
      "note": 45,
      "vel": 74,
      "dur": 80
    },
    {
      "t": 464.4,
      "ch": 7,
      "note": 36,
      "vel": 55,
      "dur": 80
    },
    {
      "t": 464.5,
      "ch": 1,
      "note": 38,
      "vel": 58,
      "dur": 25
    },
    {
      "t": 464.7,
      "ch": 1,
      "note": 40,
      "vel": 73,
      "dur": 25
    },
    {
      "t": 464.7,
      "ch": 7,
      "note": 48,
      "vel": 62,
      "dur": 80
    },
    {
      "t": 464.7,
      "ch": 7,
      "note": 36,
      "vel": 74,
      "dur": 80
    },
    {
      "t": 464.8,
      "ch": 1,
      "note": 42,
      "vel": 69,
      "dur": 25
    },
    {
      "t": 465,
      "ch": 1,
      "note": 36,
      "vel": 46,
      "dur": 25
    },
    {
      "t": 465.1,
      "ch": 5,
      "note": 75,
      "vel": 10,
      "dur": 1032
    },
    {
      "t": 465.2,
      "ch": 1,
      "note": 38,
      "vel": 46,
      "dur": 25
    },
    {
      "t": 465.4,
      "ch": 1,
      "note": 40,
      "vel": 49,
      "dur": 25
    },
    {
      "t": 465.4,
      "ch": 7,
      "note": 48,
      "vel": 65,
      "dur": 80
    },
    {
      "t": 465.4,
      "ch": 7,
      "note": 45,
      "vel": 85,
      "dur": 80
    },
    {
      "t": 465.4,
      "ch": 7,
      "note": 36,
      "vel": 58,
      "dur": 80
    },
    {
      "t": 465.5,
      "ch": 1,
      "note": 42,
      "vel": 65,
      "dur": 25
    },
    {
      "t": 465.7,
      "ch": 1,
      "note": 36,
      "vel": 62,
      "dur": 25
    },
    {
      "t": 465.8,
      "ch": 7,
      "note": 36,
      "vel": 52,
      "dur": 80
    },
    {
      "t": 465.9,
      "ch": 1,
      "note": 38,
      "vel": 36,
      "dur": 25
    },
    {
      "t": 466.1,
      "ch": 1,
      "note": 40,
      "vel": 59,
      "dur": 25
    },
    {
      "t": 466.1,
      "ch": 7,
      "note": 48,
      "vel": 72,
      "dur": 80
    },
    {
      "t": 466.1,
      "ch": 7,
      "note": 36,
      "vel": 60,
      "dur": 80
    },
    {
      "t": 466.2,
      "ch": 1,
      "note": 42,
      "vel": 54,
      "dur": 25
    },
    {
      "t": 466.3,
      "ch": 7,
      "note": 45,
      "vel": 66,
      "dur": 80
    },
    {
      "t": 466.4,
      "ch": 1,
      "note": 36,
      "vel": 63,
      "dur": 25
    },
    {
      "t": 466.6,
      "ch": 1,
      "note": 38,
      "vel": 58,
      "dur": 25
    },
    {
      "t": 466.8,
      "ch": 1,
      "note": 40,
      "vel": 56,
      "dur": 25
    },
    {
      "t": 466.8,
      "ch": 7,
      "note": 48,
      "vel": 68,
      "dur": 80
    },
    {
      "t": 466.8,
      "ch": 7,
      "note": 36,
      "vel": 68,
      "dur": 80
    },
    {
      "t": 466.9,
      "ch": 1,
      "note": 42,
      "vel": 69,
      "dur": 25
    },
    {
      "t": 467.1,
      "ch": 1,
      "note": 36,
      "vel": 67,
      "dur": 25
    },
    {
      "t": 467.1,
      "ch": 7,
      "note": 45,
      "vel": 59,
      "dur": 80
    },
    {
      "t": 467.1,
      "ch": 7,
      "note": 36,
      "vel": 76,
      "dur": 80
    },
    {
      "t": 467.3,
      "ch": 1,
      "note": 38,
      "vel": 39,
      "dur": 25
    },
    {
      "t": 467.5,
      "ch": 1,
      "note": 40,
      "vel": 47,
      "dur": 25
    },
    {
      "t": 467.5,
      "ch": 7,
      "note": 48,
      "vel": 78,
      "dur": 80
    },
    {
      "t": 467.5,
      "ch": 7,
      "note": 36,
      "vel": 69,
      "dur": 80
    },
    {
      "t": 467.6,
      "ch": 1,
      "note": 42,
      "vel": 32,
      "dur": 25
    },
    {
      "t": 467.8,
      "ch": 1,
      "note": 36,
      "vel": 38,
      "dur": 25
    },
    {
      "t": 468,
      "ch": 1,
      "note": 38,
      "vel": 50,
      "dur": 25
    },
    {
      "t": 468.2,
      "ch": 1,
      "note": 40,
      "vel": 46,
      "dur": 25
    },
    {
      "t": 468.2,
      "ch": 7,
      "note": 48,
      "vel": 64,
      "dur": 80
    },
    {
      "t": 468.2,
      "ch": 7,
      "note": 45,
      "vel": 73,
      "dur": 80
    },
    {
      "t": 468.2,
      "ch": 7,
      "note": 36,
      "vel": 79,
      "dur": 80
    },
    {
      "t": 468.3,
      "ch": 1,
      "note": 42,
      "vel": 70,
      "dur": 25
    },
    {
      "t": 468.5,
      "ch": 1,
      "note": 36,
      "vel": 70,
      "dur": 25
    },
    {
      "t": 468.5,
      "ch": 7,
      "note": 36,
      "vel": 61,
      "dur": 80
    },
    {
      "t": 468.7,
      "ch": 1,
      "note": 38,
      "vel": 61,
      "dur": 25
    },
    {
      "t": 468.9,
      "ch": 1,
      "note": 40,
      "vel": 40,
      "dur": 25
    },
    {
      "t": 468.9,
      "ch": 7,
      "note": 48,
      "vel": 66,
      "dur": 80
    },
    {
      "t": 468.9,
      "ch": 7,
      "note": 36,
      "vel": 86,
      "dur": 80
    },
    {
      "t": 469,
      "ch": 1,
      "note": 42,
      "vel": 84,
      "dur": 25
    },
    {
      "t": 469.1,
      "ch": 7,
      "note": 45,
      "vel": 61,
      "dur": 80
    },
    {
      "t": 469.2,
      "ch": 1,
      "note": 36,
      "vel": 51,
      "dur": 25
    },
    {
      "t": 469.4,
      "ch": 1,
      "note": 38,
      "vel": 60,
      "dur": 25
    },
    {
      "t": 469.5,
      "ch": 2,
      "note": 58,
      "vel": 52,
      "dur": 20930
    },
    {
      "t": 469.5,
      "ch": 2,
      "note": 70,
      "vel": 36,
      "dur": 20930
    },
    {
      "t": 469.6,
      "ch": 1,
      "note": 40,
      "vel": 56,
      "dur": 25
    },
    {
      "t": 469.6,
      "ch": 7,
      "note": 48,
      "vel": 61,
      "dur": 80
    },
    {
      "t": 469.6,
      "ch": 7,
      "note": 36,
      "vel": 71,
      "dur": 80
    },
    {
      "t": 469.7,
      "ch": 1,
      "note": 42,
      "vel": 68,
      "dur": 25
    },
    {
      "t": 469.9,
      "ch": 1,
      "note": 36,
      "vel": 20,
      "dur": 25
    },
    {
      "t": 469.9,
      "ch": 7,
      "note": 45,
      "vel": 63,
      "dur": 80
    },
    {
      "t": 469.9,
      "ch": 7,
      "note": 36,
      "vel": 58,
      "dur": 80
    },
    {
      "t": 470.1,
      "ch": 1,
      "note": 38,
      "vel": 40,
      "dur": 25
    },
    {
      "t": 470.3,
      "ch": 1,
      "note": 40,
      "vel": 77,
      "dur": 25
    },
    {
      "t": 470.3,
      "ch": 7,
      "note": 48,
      "vel": 81,
      "dur": 80
    },
    {
      "t": 470.3,
      "ch": 7,
      "note": 36,
      "vel": 78,
      "dur": 80
    },
    {
      "t": 470.4,
      "ch": 1,
      "note": 42,
      "vel": 63,
      "dur": 25
    },
    {
      "t": 470.6,
      "ch": 1,
      "note": 36,
      "vel": 27,
      "dur": 25
    },
    {
      "t": 470.8,
      "ch": 1,
      "note": 38,
      "vel": 44,
      "dur": 25
    },
    {
      "t": 471,
      "ch": 0,
      "note": 36,
      "vel": 118,
      "dur": 55
    },
    {
      "t": 471,
      "ch": 1,
      "note": 40,
      "vel": 48,
      "dur": 25
    },
    {
      "t": 471,
      "ch": 7,
      "note": 48,
      "vel": 82,
      "dur": 80
    },
    {
      "t": 471,
      "ch": 7,
      "note": 45,
      "vel": 68,
      "dur": 80
    },
    {
      "t": 471,
      "ch": 7,
      "note": 36,
      "vel": 64,
      "dur": 80
    },
    {
      "t": 471.1,
      "ch": 1,
      "note": 42,
      "vel": 73,
      "dur": 25
    },
    {
      "t": 471.3,
      "ch": 1,
      "note": 36,
      "vel": 50,
      "dur": 25
    },
    {
      "t": 471.3,
      "ch": 7,
      "note": 36,
      "vel": 63,
      "dur": 80
    },
    {
      "t": 471.5,
      "ch": 1,
      "note": 38,
      "vel": 54,
      "dur": 25
    },
    {
      "t": 471.7,
      "ch": 1,
      "note": 40,
      "vel": 53,
      "dur": 25
    },
    {
      "t": 471.7,
      "ch": 7,
      "note": 48,
      "vel": 81,
      "dur": 80
    },
    {
      "t": 471.7,
      "ch": 7,
      "note": 36,
      "vel": 77,
      "dur": 80
    },
    {
      "t": 471.8,
      "ch": 1,
      "note": 42,
      "vel": 65,
      "dur": 25
    },
    {
      "t": 471.8,
      "ch": 7,
      "note": 45,
      "vel": 62,
      "dur": 80
    },
    {
      "t": 471.8,
      "ch": 5,
      "note": 63,
      "vel": 15,
      "dur": 993
    },
    {
      "t": 472,
      "ch": 1,
      "note": 36,
      "vel": 60,
      "dur": 25
    },
    {
      "t": 472.2,
      "ch": 1,
      "note": 38,
      "vel": 36,
      "dur": 25
    },
    {
      "t": 472.4,
      "ch": 0,
      "note": 36,
      "vel": 96,
      "dur": 55
    },
    {
      "t": 472.4,
      "ch": 1,
      "note": 40,
      "vel": 45,
      "dur": 25
    },
    {
      "t": 472.4,
      "ch": 7,
      "note": 48,
      "vel": 71,
      "dur": 80
    },
    {
      "t": 472.4,
      "ch": 7,
      "note": 36,
      "vel": 68,
      "dur": 80
    },
    {
      "t": 472.5,
      "ch": 1,
      "note": 42,
      "vel": 74,
      "dur": 25
    },
    {
      "t": 472.5,
      "ch": 5,
      "note": 58,
      "vel": 18,
      "dur": 992
    },
    {
      "t": 472.7,
      "ch": 1,
      "note": 36,
      "vel": 75,
      "dur": 25
    },
    {
      "t": 472.7,
      "ch": 7,
      "note": 45,
      "vel": 65,
      "dur": 80
    },
    {
      "t": 472.7,
      "ch": 7,
      "note": 36,
      "vel": 67,
      "dur": 80
    },
    {
      "t": 472.9,
      "ch": 1,
      "note": 38,
      "vel": 40,
      "dur": 25
    },
    {
      "t": 473.1,
      "ch": 1,
      "note": 40,
      "vel": 57,
      "dur": 25
    },
    {
      "t": 473.1,
      "ch": 7,
      "note": 48,
      "vel": 78,
      "dur": 80
    },
    {
      "t": 473.1,
      "ch": 7,
      "note": 36,
      "vel": 71,
      "dur": 80
    },
    {
      "t": 473.2,
      "ch": 1,
      "note": 42,
      "vel": 65,
      "dur": 25
    },
    {
      "t": 473.4,
      "ch": 1,
      "note": 36,
      "vel": 42,
      "dur": 25
    },
    {
      "t": 473.4,
      "ch": 5,
      "note": 58,
      "vel": 7,
      "dur": 991
    },
    {
      "t": 473.6,
      "ch": 1,
      "note": 38,
      "vel": 46,
      "dur": 25
    },
    {
      "t": 473.8,
      "ch": 1,
      "note": 40,
      "vel": 43,
      "dur": 25
    },
    {
      "t": 473.8,
      "ch": 7,
      "note": 48,
      "vel": 68,
      "dur": 80
    },
    {
      "t": 473.8,
      "ch": 7,
      "note": 45,
      "vel": 73,
      "dur": 80
    },
    {
      "t": 473.8,
      "ch": 7,
      "note": 36,
      "vel": 68,
      "dur": 80
    },
    {
      "t": 473.9,
      "ch": 1,
      "note": 42,
      "vel": 44,
      "dur": 25
    },
    {
      "t": 473.9,
      "ch": 5,
      "note": 73,
      "vel": 14,
      "dur": 991
    },
    {
      "t": 474.1,
      "ch": 1,
      "note": 36,
      "vel": 36,
      "dur": 25
    },
    {
      "t": 474.1,
      "ch": 7,
      "note": 36,
      "vel": 58,
      "dur": 80
    },
    {
      "t": 474.3,
      "ch": 1,
      "note": 38,
      "vel": 29,
      "dur": 25
    },
    {
      "t": 474.5,
      "ch": 1,
      "note": 40,
      "vel": 51,
      "dur": 25
    },
    {
      "t": 474.5,
      "ch": 7,
      "note": 48,
      "vel": 58,
      "dur": 80
    },
    {
      "t": 474.5,
      "ch": 7,
      "note": 36,
      "vel": 71,
      "dur": 80
    },
    {
      "t": 474.6,
      "ch": 1,
      "note": 42,
      "vel": 65,
      "dur": 25
    },
    {
      "t": 474.7,
      "ch": 7,
      "note": 45,
      "vel": 61,
      "dur": 80
    },
    {
      "t": 474.8,
      "ch": 1,
      "note": 36,
      "vel": 34,
      "dur": 25
    },
    {
      "t": 475,
      "ch": 1,
      "note": 38,
      "vel": 48,
      "dur": 25
    },
    {
      "t": 475,
      "ch": 5,
      "note": 71,
      "vel": 10,
      "dur": 993
    },
    {
      "t": 475.2,
      "ch": 1,
      "note": 40,
      "vel": 35,
      "dur": 25
    },
    {
      "t": 475.2,
      "ch": 7,
      "note": 48,
      "vel": 59,
      "dur": 80
    },
    {
      "t": 475.2,
      "ch": 7,
      "note": 36,
      "vel": 72,
      "dur": 80
    },
    {
      "t": 475.3,
      "ch": 1,
      "note": 42,
      "vel": 22,
      "dur": 25
    },
    {
      "t": 475.5,
      "ch": 1,
      "note": 36,
      "vel": 62,
      "dur": 25
    },
    {
      "t": 475.5,
      "ch": 7,
      "note": 45,
      "vel": 58,
      "dur": 80
    },
    {
      "t": 475.5,
      "ch": 7,
      "note": 36,
      "vel": 63,
      "dur": 80
    },
    {
      "t": 475.5,
      "ch": 6,
      "note": 68,
      "vel": 27,
      "dur": 663
    },
    {
      "t": 475.7,
      "ch": 1,
      "note": 38,
      "vel": 31,
      "dur": 25
    },
    {
      "t": 475.9,
      "ch": 1,
      "note": 40,
      "vel": 43,
      "dur": 25
    },
    {
      "t": 475.9,
      "ch": 7,
      "note": 48,
      "vel": 71,
      "dur": 80
    },
    {
      "t": 475.9,
      "ch": 7,
      "note": 36,
      "vel": 82,
      "dur": 80
    },
    {
      "t": 476,
      "ch": 1,
      "note": 42,
      "vel": 38,
      "dur": 25
    },
    {
      "t": 476.2,
      "ch": 1,
      "note": 36,
      "vel": 47,
      "dur": 25
    },
    {
      "t": 476.4,
      "ch": 1,
      "note": 38,
      "vel": 62,
      "dur": 25
    },
    {
      "t": 476.5,
      "ch": 1,
      "note": 40,
      "vel": 42,
      "dur": 25
    },
    {
      "t": 476.5,
      "ch": 7,
      "note": 48,
      "vel": 67,
      "dur": 80
    },
    {
      "t": 476.5,
      "ch": 7,
      "note": 45,
      "vel": 74,
      "dur": 80
    },
    {
      "t": 476.5,
      "ch": 7,
      "note": 36,
      "vel": 70,
      "dur": 80
    },
    {
      "t": 476.7,
      "ch": 1,
      "note": 42,
      "vel": 42,
      "dur": 25
    },
    {
      "t": 476.9,
      "ch": 1,
      "note": 36,
      "vel": 23,
      "dur": 25
    },
    {
      "t": 476.9,
      "ch": 7,
      "note": 36,
      "vel": 68,
      "dur": 80
    },
    {
      "t": 477.1,
      "ch": 1,
      "note": 38,
      "vel": 52,
      "dur": 25
    },
    {
      "t": 477.3,
      "ch": 1,
      "note": 40,
      "vel": 26,
      "dur": 25
    },
    {
      "t": 477.3,
      "ch": 7,
      "note": 48,
      "vel": 64,
      "dur": 80
    },
    {
      "t": 477.3,
      "ch": 7,
      "note": 36,
      "vel": 78,
      "dur": 80
    },
    {
      "t": 477.4,
      "ch": 1,
      "note": 42,
      "vel": 58,
      "dur": 25
    },
    {
      "t": 477.4,
      "ch": 7,
      "note": 45,
      "vel": 64,
      "dur": 80
    },
    {
      "t": 477.6,
      "ch": 1,
      "note": 36,
      "vel": 37,
      "dur": 25
    },
    {
      "t": 477.7,
      "ch": 1,
      "note": 38,
      "vel": 48,
      "dur": 25
    },
    {
      "t": 477.9,
      "ch": 4,
      "note": 65,
      "vel": 29,
      "dur": 5531
    },
    {
      "t": 477.9,
      "ch": 4,
      "note": 63,
      "vel": 31,
      "dur": 5531
    },
    {
      "t": 477.9,
      "ch": 1,
      "note": 40,
      "vel": 43,
      "dur": 25
    },
    {
      "t": 477.9,
      "ch": 7,
      "note": 48,
      "vel": 77,
      "dur": 80
    },
    {
      "t": 477.9,
      "ch": 7,
      "note": 36,
      "vel": 69,
      "dur": 80
    },
    {
      "t": 478.1,
      "ch": 1,
      "note": 42,
      "vel": 31,
      "dur": 25
    },
    {
      "t": 478.3,
      "ch": 1,
      "note": 36,
      "vel": 48,
      "dur": 25
    },
    {
      "t": 478.3,
      "ch": 7,
      "note": 45,
      "vel": 70,
      "dur": 80
    },
    {
      "t": 478.3,
      "ch": 7,
      "note": 36,
      "vel": 59,
      "dur": 80
    },
    {
      "t": 478.4,
      "ch": 1,
      "note": 38,
      "vel": 61,
      "dur": 25
    },
    {
      "t": 478.6,
      "ch": 1,
      "note": 40,
      "vel": 37,
      "dur": 25
    },
    {
      "t": 478.6,
      "ch": 7,
      "note": 48,
      "vel": 72,
      "dur": 80
    },
    {
      "t": 478.6,
      "ch": 7,
      "note": 36,
      "vel": 66,
      "dur": 80
    },
    {
      "t": 478.8,
      "ch": 1,
      "note": 42,
      "vel": 52,
      "dur": 25
    },
    {
      "t": 479,
      "ch": 1,
      "note": 36,
      "vel": 25,
      "dur": 25
    },
    {
      "t": 479.1,
      "ch": 1,
      "note": 38,
      "vel": 16,
      "dur": 25
    },
    {
      "t": 479.3,
      "ch": 1,
      "note": 40,
      "vel": 64,
      "dur": 25
    },
    {
      "t": 479.3,
      "ch": 7,
      "note": 48,
      "vel": 63,
      "dur": 80
    },
    {
      "t": 479.3,
      "ch": 7,
      "note": 45,
      "vel": 69,
      "dur": 80
    },
    {
      "t": 479.3,
      "ch": 7,
      "note": 36,
      "vel": 74,
      "dur": 80
    },
    {
      "t": 479.5,
      "ch": 1,
      "note": 42,
      "vel": 59,
      "dur": 25
    },
    {
      "t": 479.5,
      "ch": 5,
      "note": 65,
      "vel": 17,
      "dur": 1014
    },
    {
      "t": 479.7,
      "ch": 1,
      "note": 36,
      "vel": 38,
      "dur": 25
    },
    {
      "t": 479.7,
      "ch": 7,
      "note": 36,
      "vel": 68,
      "dur": 80
    },
    {
      "t": 479.8,
      "ch": 1,
      "note": 38,
      "vel": 42,
      "dur": 25
    },
    {
      "t": 480,
      "ch": 1,
      "note": 40,
      "vel": 29,
      "dur": 25
    },
    {
      "t": 480,
      "ch": 7,
      "note": 48,
      "vel": 78,
      "dur": 80
    },
    {
      "t": 480,
      "ch": 7,
      "note": 36,
      "vel": 65,
      "dur": 80
    },
    {
      "t": 480.2,
      "ch": 1,
      "note": 42,
      "vel": 55,
      "dur": 25
    },
    {
      "t": 480.2,
      "ch": 7,
      "note": 45,
      "vel": 64,
      "dur": 80
    },
    {
      "t": 480.4,
      "ch": 1,
      "note": 36,
      "vel": 57,
      "dur": 25
    },
    {
      "t": 480.5,
      "ch": 1,
      "note": 38,
      "vel": 42,
      "dur": 25
    },
    {
      "t": 480.7,
      "ch": 2,
      "note": 58,
      "vel": 51,
      "dur": 20930
    },
    {
      "t": 480.7,
      "ch": 2,
      "note": 70,
      "vel": 36,
      "dur": 20930
    },
    {
      "t": 480.7,
      "ch": 1,
      "note": 40,
      "vel": 45,
      "dur": 25
    },
    {
      "t": 480.7,
      "ch": 7,
      "note": 48,
      "vel": 72,
      "dur": 80
    },
    {
      "t": 480.7,
      "ch": 7,
      "note": 36,
      "vel": 71,
      "dur": 80
    },
    {
      "t": 480.9,
      "ch": 1,
      "note": 42,
      "vel": 56,
      "dur": 25
    },
    {
      "t": 481.1,
      "ch": 1,
      "note": 36,
      "vel": 21,
      "dur": 25
    },
    {
      "t": 481.1,
      "ch": 7,
      "note": 45,
      "vel": 66,
      "dur": 80
    },
    {
      "t": 481.1,
      "ch": 7,
      "note": 36,
      "vel": 60,
      "dur": 80
    },
    {
      "t": 481.2,
      "ch": 1,
      "note": 38,
      "vel": 32,
      "dur": 25
    },
    {
      "t": 481.4,
      "ch": 1,
      "note": 40,
      "vel": 52,
      "dur": 25
    },
    {
      "t": 481.4,
      "ch": 7,
      "note": 48,
      "vel": 66,
      "dur": 80
    },
    {
      "t": 481.4,
      "ch": 7,
      "note": 36,
      "vel": 73,
      "dur": 80
    },
    {
      "t": 481.6,
      "ch": 1,
      "note": 42,
      "vel": 26,
      "dur": 25
    },
    {
      "t": 481.8,
      "ch": 1,
      "note": 36,
      "vel": 42,
      "dur": 25
    },
    {
      "t": 481.9,
      "ch": 1,
      "note": 38,
      "vel": 42,
      "dur": 25
    },
    {
      "t": 482.1,
      "ch": 1,
      "note": 40,
      "vel": 43,
      "dur": 25
    },
    {
      "t": 482.1,
      "ch": 7,
      "note": 48,
      "vel": 71,
      "dur": 80
    },
    {
      "t": 482.1,
      "ch": 7,
      "note": 45,
      "vel": 65,
      "dur": 80
    },
    {
      "t": 482.1,
      "ch": 7,
      "note": 36,
      "vel": 85,
      "dur": 80
    },
    {
      "t": 482.3,
      "ch": 1,
      "note": 42,
      "vel": 54,
      "dur": 25
    },
    {
      "t": 482.5,
      "ch": 1,
      "note": 36,
      "vel": 47,
      "dur": 25
    },
    {
      "t": 482.5,
      "ch": 7,
      "note": 36,
      "vel": 56,
      "dur": 80
    },
    {
      "t": 482.6,
      "ch": 1,
      "note": 38,
      "vel": 50,
      "dur": 25
    },
    {
      "t": 482.8,
      "ch": 1,
      "note": 40,
      "vel": 30,
      "dur": 25
    },
    {
      "t": 482.8,
      "ch": 7,
      "note": 48,
      "vel": 80,
      "dur": 80
    },
    {
      "t": 482.8,
      "ch": 7,
      "note": 36,
      "vel": 66,
      "dur": 80
    },
    {
      "t": 483,
      "ch": 1,
      "note": 42,
      "vel": 57,
      "dur": 25
    },
    {
      "t": 483,
      "ch": 7,
      "note": 45,
      "vel": 65,
      "dur": 80
    },
    {
      "t": 483.2,
      "ch": 1,
      "note": 36,
      "vel": 50,
      "dur": 25
    },
    {
      "t": 483.3,
      "ch": 1,
      "note": 38,
      "vel": 51,
      "dur": 25
    },
    {
      "t": 483.4,
      "ch": 4,
      "note": 66,
      "vel": 27,
      "dur": 5531
    },
    {
      "t": 483.4,
      "ch": 4,
      "note": 64,
      "vel": 24,
      "dur": 2790
    },
    {
      "t": 483.4,
      "ch": 4,
      "note": 63,
      "vel": 28,
      "dur": 2740
    },
    {
      "t": 483.5,
      "ch": 1,
      "note": 40,
      "vel": 66,
      "dur": 25
    },
    {
      "t": 483.5,
      "ch": 7,
      "note": 48,
      "vel": 70,
      "dur": 80
    },
    {
      "t": 483.5,
      "ch": 7,
      "note": 36,
      "vel": 54,
      "dur": 80
    },
    {
      "t": 483.7,
      "ch": 1,
      "note": 42,
      "vel": 56,
      "dur": 25
    },
    {
      "t": 483.9,
      "ch": 1,
      "note": 36,
      "vel": 50,
      "dur": 25
    },
    {
      "t": 483.9,
      "ch": 7,
      "note": 45,
      "vel": 67,
      "dur": 80
    },
    {
      "t": 483.9,
      "ch": 7,
      "note": 36,
      "vel": 64,
      "dur": 80
    },
    {
      "t": 484,
      "ch": 1,
      "note": 38,
      "vel": 44,
      "dur": 25
    },
    {
      "t": 484.2,
      "ch": 1,
      "note": 40,
      "vel": 68,
      "dur": 25
    },
    {
      "t": 484.2,
      "ch": 7,
      "note": 48,
      "vel": 70,
      "dur": 80
    },
    {
      "t": 484.2,
      "ch": 7,
      "note": 36,
      "vel": 74,
      "dur": 80
    },
    {
      "t": 484.4,
      "ch": 1,
      "note": 42,
      "vel": 41,
      "dur": 25
    },
    {
      "t": 484.6,
      "ch": 1,
      "note": 36,
      "vel": 35,
      "dur": 25
    },
    {
      "t": 484.7,
      "ch": 1,
      "note": 38,
      "vel": 27,
      "dur": 25
    },
    {
      "t": 484.8,
      "ch": 5,
      "note": 70,
      "vel": 21,
      "dur": 1032
    },
    {
      "t": 484.9,
      "ch": 1,
      "note": 40,
      "vel": 34,
      "dur": 25
    },
    {
      "t": 484.9,
      "ch": 7,
      "note": 48,
      "vel": 76,
      "dur": 80
    },
    {
      "t": 484.9,
      "ch": 7,
      "note": 45,
      "vel": 73,
      "dur": 80
    },
    {
      "t": 484.9,
      "ch": 7,
      "note": 36,
      "vel": 71,
      "dur": 80
    },
    {
      "t": 485.1,
      "ch": 1,
      "note": 42,
      "vel": 67,
      "dur": 25
    },
    {
      "t": 485.3,
      "ch": 1,
      "note": 36,
      "vel": 28,
      "dur": 25
    },
    {
      "t": 485.3,
      "ch": 7,
      "note": 36,
      "vel": 60,
      "dur": 80
    },
    {
      "t": 485.4,
      "ch": 1,
      "note": 38,
      "vel": 69,
      "dur": 25
    },
    {
      "t": 485.6,
      "ch": 1,
      "note": 40,
      "vel": 48,
      "dur": 25
    },
    {
      "t": 485.6,
      "ch": 7,
      "note": 48,
      "vel": 68,
      "dur": 80
    },
    {
      "t": 485.6,
      "ch": 7,
      "note": 36,
      "vel": 69,
      "dur": 80
    },
    {
      "t": 485.8,
      "ch": 1,
      "note": 42,
      "vel": 48,
      "dur": 25
    },
    {
      "t": 485.8,
      "ch": 7,
      "note": 45,
      "vel": 74,
      "dur": 80
    },
    {
      "t": 486,
      "ch": 1,
      "note": 36,
      "vel": 34,
      "dur": 25
    },
    {
      "t": 486,
      "ch": 6,
      "note": 68,
      "vel": 14,
      "dur": 687
    },
    {
      "t": 486.1,
      "ch": 1,
      "note": 38,
      "vel": 61,
      "dur": 25
    },
    {
      "t": 486.3,
      "ch": 1,
      "note": 40,
      "vel": 54,
      "dur": 25
    },
    {
      "t": 486.3,
      "ch": 7,
      "note": 48,
      "vel": 67,
      "dur": 80
    },
    {
      "t": 486.3,
      "ch": 7,
      "note": 36,
      "vel": 60,
      "dur": 80
    },
    {
      "t": 486.5,
      "ch": 1,
      "note": 42,
      "vel": 59,
      "dur": 25
    },
    {
      "t": 486.7,
      "ch": 1,
      "note": 36,
      "vel": 34,
      "dur": 25
    },
    {
      "t": 486.7,
      "ch": 7,
      "note": 45,
      "vel": 58,
      "dur": 80
    },
    {
      "t": 486.7,
      "ch": 7,
      "note": 36,
      "vel": 66,
      "dur": 80
    },
    {
      "t": 486.8,
      "ch": 1,
      "note": 38,
      "vel": 33,
      "dur": 25
    },
    {
      "t": 487,
      "ch": 1,
      "note": 40,
      "vel": 30,
      "dur": 25
    },
    {
      "t": 487,
      "ch": 7,
      "note": 48,
      "vel": 70,
      "dur": 80
    },
    {
      "t": 487,
      "ch": 7,
      "note": 36,
      "vel": 73,
      "dur": 80
    },
    {
      "t": 487.2,
      "ch": 1,
      "note": 42,
      "vel": 46,
      "dur": 25
    },
    {
      "t": 487.4,
      "ch": 1,
      "note": 36,
      "vel": 24,
      "dur": 25
    },
    {
      "t": 487.5,
      "ch": 1,
      "note": 38,
      "vel": 61,
      "dur": 25
    },
    {
      "t": 487.7,
      "ch": 1,
      "note": 40,
      "vel": 60,
      "dur": 25
    },
    {
      "t": 487.7,
      "ch": 7,
      "note": 48,
      "vel": 76,
      "dur": 80
    },
    {
      "t": 487.7,
      "ch": 7,
      "note": 45,
      "vel": 70,
      "dur": 80
    },
    {
      "t": 487.7,
      "ch": 7,
      "note": 36,
      "vel": 74,
      "dur": 80
    },
    {
      "t": 487.9,
      "ch": 1,
      "note": 42,
      "vel": 35,
      "dur": 25
    },
    {
      "t": 488.1,
      "ch": 1,
      "note": 36,
      "vel": 45,
      "dur": 25
    },
    {
      "t": 488.1,
      "ch": 7,
      "note": 36,
      "vel": 48,
      "dur": 80
    },
    {
      "t": 488.2,
      "ch": 1,
      "note": 38,
      "vel": 50,
      "dur": 25
    },
    {
      "t": 488.4,
      "ch": 1,
      "note": 40,
      "vel": 50,
      "dur": 25
    },
    {
      "t": 488.4,
      "ch": 7,
      "note": 48,
      "vel": 74,
      "dur": 80
    },
    {
      "t": 488.4,
      "ch": 7,
      "note": 36,
      "vel": 64,
      "dur": 80
    },
    {
      "t": 488.6,
      "ch": 1,
      "note": 42,
      "vel": 65,
      "dur": 25
    },
    {
      "t": 488.6,
      "ch": 7,
      "note": 45,
      "vel": 65,
      "dur": 80
    },
    {
      "t": 488.8,
      "ch": 1,
      "note": 36,
      "vel": 35,
      "dur": 25
    },
    {
      "t": 488.9,
      "ch": 1,
      "note": 38,
      "vel": 44,
      "dur": 25
    },
    {
      "t": 489,
      "ch": 4,
      "note": 68,
      "vel": 43,
      "dur": 5531
    },
    {
      "t": 489,
      "ch": 4,
      "note": 64,
      "vel": 27,
      "dur": 2790
    },
    {
      "t": 489,
      "ch": 4,
      "note": 63,
      "vel": 30,
      "dur": 2740
    },
    {
      "t": 489,
      "ch": 3,
      "note": 39,
      "vel": 32,
      "dur": 5581
    },
    {
      "t": 489.1,
      "ch": 1,
      "note": 40,
      "vel": 74,
      "dur": 25
    },
    {
      "t": 489.1,
      "ch": 7,
      "note": 48,
      "vel": 55,
      "dur": 80
    },
    {
      "t": 489.1,
      "ch": 7,
      "note": 36,
      "vel": 74,
      "dur": 80
    },
    {
      "t": 489.3,
      "ch": 1,
      "note": 42,
      "vel": 47,
      "dur": 25
    },
    {
      "t": 489.5,
      "ch": 1,
      "note": 36,
      "vel": 50,
      "dur": 25
    },
    {
      "t": 489.5,
      "ch": 7,
      "note": 45,
      "vel": 58,
      "dur": 80
    },
    {
      "t": 489.5,
      "ch": 7,
      "note": 36,
      "vel": 63,
      "dur": 80
    },
    {
      "t": 489.6,
      "ch": 1,
      "note": 38,
      "vel": 53,
      "dur": 25
    },
    {
      "t": 489.8,
      "ch": 1,
      "note": 40,
      "vel": 75,
      "dur": 25
    },
    {
      "t": 489.8,
      "ch": 7,
      "note": 48,
      "vel": 68,
      "dur": 80
    },
    {
      "t": 489.8,
      "ch": 7,
      "note": 36,
      "vel": 71,
      "dur": 80
    },
    {
      "t": 490,
      "ch": 1,
      "note": 42,
      "vel": 46,
      "dur": 25
    },
    {
      "t": 490.1,
      "ch": 1,
      "note": 36,
      "vel": 51,
      "dur": 25
    },
    {
      "t": 490.3,
      "ch": 1,
      "note": 38,
      "vel": 50,
      "dur": 25
    },
    {
      "t": 490.5,
      "ch": 1,
      "note": 40,
      "vel": 44,
      "dur": 25
    },
    {
      "t": 490.5,
      "ch": 7,
      "note": 48,
      "vel": 67,
      "dur": 80
    },
    {
      "t": 490.5,
      "ch": 7,
      "note": 45,
      "vel": 69,
      "dur": 80
    },
    {
      "t": 490.5,
      "ch": 7,
      "note": 36,
      "vel": 72,
      "dur": 80
    },
    {
      "t": 490.7,
      "ch": 1,
      "note": 42,
      "vel": 37,
      "dur": 25
    },
    {
      "t": 490.9,
      "ch": 1,
      "note": 36,
      "vel": 25,
      "dur": 25
    },
    {
      "t": 490.9,
      "ch": 7,
      "note": 36,
      "vel": 54,
      "dur": 80
    },
    {
      "t": 491,
      "ch": 1,
      "note": 38,
      "vel": 67,
      "dur": 25
    },
    {
      "t": 491.2,
      "ch": 1,
      "note": 40,
      "vel": 55,
      "dur": 25
    },
    {
      "t": 491.2,
      "ch": 7,
      "note": 48,
      "vel": 57,
      "dur": 80
    },
    {
      "t": 491.2,
      "ch": 7,
      "note": 36,
      "vel": 80,
      "dur": 80
    },
    {
      "t": 491.4,
      "ch": 1,
      "note": 42,
      "vel": 47,
      "dur": 25
    },
    {
      "t": 491.4,
      "ch": 7,
      "note": 45,
      "vel": 70,
      "dur": 80
    },
    {
      "t": 491.6,
      "ch": 1,
      "note": 36,
      "vel": 27,
      "dur": 25
    },
    {
      "t": 491.7,
      "ch": 1,
      "note": 38,
      "vel": 42,
      "dur": 25
    },
    {
      "t": 491.8,
      "ch": 2,
      "note": 58,
      "vel": 0,
      "dur": 0
    },
    {
      "t": 491.8,
      "ch": 2,
      "note": 70,
      "vel": 0,
      "dur": 0
    },
    {
      "t": 491.8,
      "ch": 2,
      "note": 56,
      "vel": 52,
      "dur": 20930
    },
    {
      "t": 491.8,
      "ch": 2,
      "note": 68,
      "vel": 36,
      "dur": 20930
    },
    {
      "t": 491.9,
      "ch": 1,
      "note": 40,
      "vel": 28,
      "dur": 25
    },
    {
      "t": 491.9,
      "ch": 7,
      "note": 48,
      "vel": 56,
      "dur": 80
    },
    {
      "t": 491.9,
      "ch": 7,
      "note": 36,
      "vel": 74,
      "dur": 80
    },
    {
      "t": 491.9,
      "ch": 5,
      "note": 58,
      "vel": 23,
      "dur": 999
    },
    {
      "t": 492,
      "ch": 1,
      "note": 42,
      "vel": 37,
      "dur": 25
    },
    {
      "t": 492.2,
      "ch": 1,
      "note": 36,
      "vel": 15,
      "dur": 25
    },
    {
      "t": 492.3,
      "ch": 7,
      "note": 45,
      "vel": 72,
      "dur": 80
    },
    {
      "t": 492.3,
      "ch": 7,
      "note": 36,
      "vel": 63,
      "dur": 80
    },
    {
      "t": 492.4,
      "ch": 1,
      "note": 38,
      "vel": 33,
      "dur": 25
    },
    {
      "t": 492.6,
      "ch": 1,
      "note": 40,
      "vel": 20,
      "dur": 25
    },
    {
      "t": 492.6,
      "ch": 7,
      "note": 48,
      "vel": 64,
      "dur": 80
    },
    {
      "t": 492.6,
      "ch": 7,
      "note": 36,
      "vel": 73,
      "dur": 80
    },
    {
      "t": 492.7,
      "ch": 1,
      "note": 42,
      "vel": 59,
      "dur": 25
    },
    {
      "t": 492.9,
      "ch": 1,
      "note": 36,
      "vel": 18,
      "dur": 25
    },
    {
      "t": 493.1,
      "ch": 1,
      "note": 38,
      "vel": 40,
      "dur": 25
    },
    {
      "t": 493.3,
      "ch": 0,
      "note": 36,
      "vel": 127,
      "dur": 55
    },
    {
      "t": 493.3,
      "ch": 1,
      "note": 40,
      "vel": 30,
      "dur": 25
    },
    {
      "t": 493.3,
      "ch": 7,
      "note": 48,
      "vel": 76,
      "dur": 80
    },
    {
      "t": 493.3,
      "ch": 7,
      "note": 45,
      "vel": 70,
      "dur": 80
    },
    {
      "t": 493.3,
      "ch": 7,
      "note": 36,
      "vel": 74,
      "dur": 80
    },
    {
      "t": 493.5,
      "ch": 1,
      "note": 42,
      "vel": 60,
      "dur": 25
    },
    {
      "t": 493.6,
      "ch": 1,
      "note": 36,
      "vel": 46,
      "dur": 25
    },
    {
      "t": 493.7,
      "ch": 7,
      "note": 36,
      "vel": 58,
      "dur": 80
    },
    {
      "t": 493.8,
      "ch": 1,
      "note": 38,
      "vel": 54,
      "dur": 25
    },
    {
      "t": 494,
      "ch": 1,
      "note": 40,
      "vel": 46,
      "dur": 25
    },
    {
      "t": 494,
      "ch": 7,
      "note": 48,
      "vel": 78,
      "dur": 80
    },
    {
      "t": 494,
      "ch": 7,
      "note": 36,
      "vel": 63,
      "dur": 80
    },
    {
      "t": 494.1,
      "ch": 1,
      "note": 42,
      "vel": 52,
      "dur": 25
    },
    {
      "t": 494.2,
      "ch": 7,
      "note": 45,
      "vel": 43,
      "dur": 80
    },
    {
      "t": 494.3,
      "ch": 1,
      "note": 36,
      "vel": 48,
      "dur": 25
    },
    {
      "t": 494.5,
      "ch": 1,
      "note": 38,
      "vel": 23,
      "dur": 25
    },
    {
      "t": 494.5,
      "ch": 5,
      "note": 73,
      "vel": 29,
      "dur": 988
    },
    {
      "t": 494.6,
      "ch": 4,
      "note": 70,
      "vel": 34,
      "dur": 5531
    },
    {
      "t": 494.6,
      "ch": 4,
      "note": 63,
      "vel": 32,
      "dur": 5531
    },
    {
      "t": 494.6,
      "ch": 3,
      "note": 46,
      "vel": 36,
      "dur": 5581
    },
    {
      "t": 494.7,
      "ch": 0,
      "note": 36,
      "vel": 90,
      "dur": 55
    },
    {
      "t": 494.7,
      "ch": 1,
      "note": 40,
      "vel": 49,
      "dur": 25
    },
    {
      "t": 494.7,
      "ch": 7,
      "note": 48,
      "vel": 63,
      "dur": 80
    },
    {
      "t": 494.7,
      "ch": 7,
      "note": 36,
      "vel": 79,
      "dur": 80
    },
    {
      "t": 494.8,
      "ch": 1,
      "note": 42,
      "vel": 39,
      "dur": 25
    },
    {
      "t": 495,
      "ch": 1,
      "note": 36,
      "vel": 38,
      "dur": 25
    },
    {
      "t": 495,
      "ch": 7,
      "note": 45,
      "vel": 56,
      "dur": 80
    },
    {
      "t": 495,
      "ch": 7,
      "note": 36,
      "vel": 72,
      "dur": 80
    },
    {
      "t": 495.2,
      "ch": 1,
      "note": 38,
      "vel": 50,
      "dur": 25
    },
    {
      "t": 495.4,
      "ch": 1,
      "note": 40,
      "vel": 37,
      "dur": 25
    },
    {
      "t": 495.4,
      "ch": 7,
      "note": 48,
      "vel": 77,
      "dur": 80
    },
    {
      "t": 495.4,
      "ch": 7,
      "note": 36,
      "vel": 74,
      "dur": 80
    },
    {
      "t": 495.5,
      "ch": 1,
      "note": 42,
      "vel": 74,
      "dur": 25
    },
    {
      "t": 495.7,
      "ch": 1,
      "note": 36,
      "vel": 25,
      "dur": 25
    },
    {
      "t": 495.8,
      "ch": 6,
      "note": 63,
      "vel": 17,
      "dur": 657
    },
    {
      "t": 495.9,
      "ch": 1,
      "note": 38,
      "vel": 50,
      "dur": 25
    },
    {
      "t": 496.1,
      "ch": 1,
      "note": 40,
      "vel": 55,
      "dur": 25
    },
    {
      "t": 496.1,
      "ch": 7,
      "note": 48,
      "vel": 68,
      "dur": 80
    },
    {
      "t": 496.1,
      "ch": 7,
      "note": 45,
      "vel": 68,
      "dur": 80
    },
    {
      "t": 496.1,
      "ch": 7,
      "note": 36,
      "vel": 67,
      "dur": 80
    },
    {
      "t": 496.1,
      "ch": 5,
      "note": 71,
      "vel": 8,
      "dur": 985
    },
    {
      "t": 496.2,
      "ch": 1,
      "note": 42,
      "vel": 52,
      "dur": 25
    },
    {
      "t": 496.4,
      "ch": 1,
      "note": 36,
      "vel": 51,
      "dur": 25
    },
    {
      "t": 496.4,
      "ch": 7,
      "note": 36,
      "vel": 61,
      "dur": 80
    },
    {
      "t": 496.6,
      "ch": 1,
      "note": 38,
      "vel": 29,
      "dur": 25
    },
    {
      "t": 496.8,
      "ch": 1,
      "note": 40,
      "vel": 63,
      "dur": 25
    },
    {
      "t": 496.8,
      "ch": 7,
      "note": 48,
      "vel": 56,
      "dur": 80
    },
    {
      "t": 496.8,
      "ch": 7,
      "note": 36,
      "vel": 71,
      "dur": 80
    },
    {
      "t": 496.9,
      "ch": 1,
      "note": 42,
      "vel": 46,
      "dur": 25
    },
    {
      "t": 497,
      "ch": 7,
      "note": 45,
      "vel": 62,
      "dur": 80
    },
    {
      "t": 497.1,
      "ch": 1,
      "note": 36,
      "vel": 33,
      "dur": 25
    },
    {
      "t": 497.3,
      "ch": 1,
      "note": 38,
      "vel": 33,
      "dur": 25
    },
    {
      "t": 497.5,
      "ch": 1,
      "note": 40,
      "vel": 78,
      "dur": 25
    },
    {
      "t": 497.5,
      "ch": 7,
      "note": 48,
      "vel": 81,
      "dur": 80
    },
    {
      "t": 497.5,
      "ch": 7,
      "note": 36,
      "vel": 61,
      "dur": 80
    },
    {
      "t": 497.6,
      "ch": 1,
      "note": 42,
      "vel": 63,
      "dur": 25
    },
    {
      "t": 497.8,
      "ch": 1,
      "note": 36,
      "vel": 51,
      "dur": 25
    },
    {
      "t": 497.9,
      "ch": 7,
      "note": 45,
      "vel": 53,
      "dur": 80
    },
    {
      "t": 497.9,
      "ch": 7,
      "note": 36,
      "vel": 56,
      "dur": 80
    },
    {
      "t": 498,
      "ch": 1,
      "note": 38,
      "vel": 27,
      "dur": 25
    },
    {
      "t": 498.2,
      "ch": 1,
      "note": 40,
      "vel": 49,
      "dur": 25
    },
    {
      "t": 498.2,
      "ch": 7,
      "note": 48,
      "vel": 85,
      "dur": 80
    },
    {
      "t": 498.2,
      "ch": 7,
      "note": 36,
      "vel": 79,
      "dur": 80
    },
    {
      "t": 498.3,
      "ch": 1,
      "note": 42,
      "vel": 46,
      "dur": 25
    },
    {
      "t": 498.5,
      "ch": 1,
      "note": 36,
      "vel": 52,
      "dur": 25
    },
    {
      "t": 498.7,
      "ch": 1,
      "note": 38,
      "vel": 45,
      "dur": 25
    },
    {
      "t": 498.9,
      "ch": 1,
      "note": 40,
      "vel": 37,
      "dur": 25
    },
    {
      "t": 498.9,
      "ch": 7,
      "note": 48,
      "vel": 80,
      "dur": 80
    },
    {
      "t": 498.9,
      "ch": 7,
      "note": 45,
      "vel": 72,
      "dur": 80
    },
    {
      "t": 498.9,
      "ch": 7,
      "note": 36,
      "vel": 69,
      "dur": 80
    },
    {
      "t": 499,
      "ch": 1,
      "note": 42,
      "vel": 53,
      "dur": 25
    },
    {
      "t": 499.2,
      "ch": 1,
      "note": 36,
      "vel": 38,
      "dur": 25
    },
    {
      "t": 499.3,
      "ch": 7,
      "note": 36,
      "vel": 62,
      "dur": 80
    },
    {
      "t": 499.4,
      "ch": 1,
      "note": 38,
      "vel": 33,
      "dur": 25
    },
    {
      "t": 499.6,
      "ch": 1,
      "note": 40,
      "vel": 54,
      "dur": 25
    },
    {
      "t": 499.6,
      "ch": 7,
      "note": 48,
      "vel": 77,
      "dur": 80
    },
    {
      "t": 499.6,
      "ch": 7,
      "note": 36,
      "vel": 71,
      "dur": 80
    },
    {
      "t": 499.7,
      "ch": 1,
      "note": 42,
      "vel": 54,
      "dur": 25
    },
    {
      "t": 499.8,
      "ch": 7,
      "note": 45,
      "vel": 62,
      "dur": 80
    },
    {
      "t": 499.9,
      "ch": 1,
      "note": 36,
      "vel": 20,
      "dur": 25
    },
    {
      "t": 500.1,
      "ch": 1,
      "note": 38,
      "vel": 25,
      "dur": 25
    },
    {
      "t": 500.2,
      "ch": 4,
      "note": 70,
      "vel": 33,
      "dur": 5531
    },
    {
      "t": 500.2,
      "ch": 4,
      "note": 65,
      "vel": 33,
      "dur": 5531
    },
    {
      "t": 500.2,
      "ch": 3,
      "note": 46,
      "vel": 35,
      "dur": 5581
    },
    {
      "t": 500.3,
      "ch": 1,
      "note": 40,
      "vel": 46,
      "dur": 25
    },
    {
      "t": 500.3,
      "ch": 7,
      "note": 48,
      "vel": 61,
      "dur": 80
    },
    {
      "t": 500.3,
      "ch": 7,
      "note": 36,
      "vel": 69,
      "dur": 80
    },
    {
      "t": 500.4,
      "ch": 1,
      "note": 42,
      "vel": 58,
      "dur": 25
    },
    {
      "t": 500.6,
      "ch": 1,
      "note": 36,
      "vel": 62,
      "dur": 25
    },
    {
      "t": 500.6,
      "ch": 7,
      "note": 45,
      "vel": 60,
      "dur": 80
    },
    {
      "t": 500.6,
      "ch": 7,
      "note": 36,
      "vel": 66,
      "dur": 80
    },
    {
      "t": 500.8,
      "ch": 1,
      "note": 38,
      "vel": 55,
      "dur": 25
    },
    {
      "t": 501,
      "ch": 1,
      "note": 40,
      "vel": 61,
      "dur": 25
    },
    {
      "t": 501,
      "ch": 7,
      "note": 48,
      "vel": 73,
      "dur": 80
    },
    {
      "t": 501,
      "ch": 7,
      "note": 36,
      "vel": 77,
      "dur": 80
    },
    {
      "t": 501.1,
      "ch": 1,
      "note": 42,
      "vel": 66,
      "dur": 25
    },
    {
      "t": 501.3,
      "ch": 1,
      "note": 36,
      "vel": 57,
      "dur": 25
    },
    {
      "t": 501.5,
      "ch": 1,
      "note": 38,
      "vel": 37,
      "dur": 25
    },
    {
      "t": 501.7,
      "ch": 1,
      "note": 40,
      "vel": 56,
      "dur": 25
    },
    {
      "t": 501.7,
      "ch": 7,
      "note": 48,
      "vel": 71,
      "dur": 80
    },
    {
      "t": 501.7,
      "ch": 7,
      "note": 45,
      "vel": 67,
      "dur": 80
    },
    {
      "t": 501.7,
      "ch": 7,
      "note": 36,
      "vel": 70,
      "dur": 80
    },
    {
      "t": 501.8,
      "ch": 1,
      "note": 42,
      "vel": 48,
      "dur": 25
    },
    {
      "t": 502,
      "ch": 1,
      "note": 36,
      "vel": 43,
      "dur": 25
    },
    {
      "t": 502,
      "ch": 7,
      "note": 36,
      "vel": 56,
      "dur": 80
    },
    {
      "t": 502.2,
      "ch": 1,
      "note": 38,
      "vel": 56,
      "dur": 25
    },
    {
      "t": 502.4,
      "ch": 1,
      "note": 40,
      "vel": 39,
      "dur": 25
    },
    {
      "t": 502.4,
      "ch": 7,
      "note": 48,
      "vel": 73,
      "dur": 80
    },
    {
      "t": 502.4,
      "ch": 7,
      "note": 36,
      "vel": 68,
      "dur": 80
    },
    {
      "t": 502.5,
      "ch": 1,
      "note": 42,
      "vel": 27,
      "dur": 25
    },
    {
      "t": 502.5,
      "ch": 7,
      "note": 45,
      "vel": 58,
      "dur": 80
    },
    {
      "t": 502.7,
      "ch": 1,
      "note": 36,
      "vel": 52,
      "dur": 25
    },
    {
      "t": 502.9,
      "ch": 1,
      "note": 38,
      "vel": 43,
      "dur": 25
    },
    {
      "t": 503,
      "ch": 2,
      "note": 56,
      "vel": 0,
      "dur": 0
    },
    {
      "t": 503,
      "ch": 2,
      "note": 68,
      "vel": 0,
      "dur": 0
    },
    {
      "t": 503,
      "ch": 2,
      "note": 58,
      "vel": 52,
      "dur": 20930
    },
    {
      "t": 503.1,
      "ch": 1,
      "note": 40,
      "vel": 43,
      "dur": 25
    },
    {
      "t": 503.1,
      "ch": 7,
      "note": 48,
      "vel": 75,
      "dur": 80
    },
    {
      "t": 503.1,
      "ch": 7,
      "note": 36,
      "vel": 83,
      "dur": 80
    },
    {
      "t": 503.2,
      "ch": 1,
      "note": 42,
      "vel": 42,
      "dur": 25
    },
    {
      "t": 503.4,
      "ch": 1,
      "note": 36,
      "vel": 29,
      "dur": 25
    },
    {
      "t": 503.4,
      "ch": 7,
      "note": 45,
      "vel": 54,
      "dur": 80
    },
    {
      "t": 503.4,
      "ch": 7,
      "note": 36,
      "vel": 67,
      "dur": 80
    },
    {
      "t": 503.6,
      "ch": 1,
      "note": 38,
      "vel": 32,
      "dur": 25
    },
    {
      "t": 503.8,
      "ch": 1,
      "note": 40,
      "vel": 48,
      "dur": 25
    },
    {
      "t": 503.8,
      "ch": 7,
      "note": 48,
      "vel": 70,
      "dur": 80
    },
    {
      "t": 503.8,
      "ch": 7,
      "note": 36,
      "vel": 82,
      "dur": 80
    },
    {
      "t": 503.9,
      "ch": 1,
      "note": 42,
      "vel": 40,
      "dur": 25
    },
    {
      "t": 504.1,
      "ch": 1,
      "note": 36,
      "vel": 36,
      "dur": 25
    },
    {
      "t": 504.3,
      "ch": 1,
      "note": 38,
      "vel": 56,
      "dur": 25
    },
    {
      "t": 504.5,
      "ch": 0,
      "note": 36,
      "vel": 113,
      "dur": 55
    },
    {
      "t": 504.5,
      "ch": 1,
      "note": 40,
      "vel": 31,
      "dur": 25
    },
    {
      "t": 504.5,
      "ch": 7,
      "note": 48,
      "vel": 76,
      "dur": 80
    },
    {
      "t": 504.5,
      "ch": 7,
      "note": 45,
      "vel": 75,
      "dur": 80
    },
    {
      "t": 504.5,
      "ch": 7,
      "note": 36,
      "vel": 68,
      "dur": 80
    },
    {
      "t": 504.6,
      "ch": 1,
      "note": 42,
      "vel": 70,
      "dur": 25
    },
    {
      "t": 504.8,
      "ch": 1,
      "note": 36,
      "vel": 67,
      "dur": 25
    },
    {
      "t": 504.8,
      "ch": 7,
      "note": 36,
      "vel": 76,
      "dur": 80
    },
    {
      "t": 505,
      "ch": 1,
      "note": 38,
      "vel": 29,
      "dur": 25
    },
    {
      "t": 505.1,
      "ch": 1,
      "note": 40,
      "vel": 67,
      "dur": 25
    },
    {
      "t": 505.1,
      "ch": 7,
      "note": 48,
      "vel": 68,
      "dur": 80
    },
    {
      "t": 505.1,
      "ch": 7,
      "note": 36,
      "vel": 66,
      "dur": 80
    },
    {
      "t": 505.3,
      "ch": 1,
      "note": 42,
      "vel": 47,
      "dur": 25
    },
    {
      "t": 505.3,
      "ch": 7,
      "note": 45,
      "vel": 51,
      "dur": 80
    },
    {
      "t": 505.5,
      "ch": 1,
      "note": 36,
      "vel": 43,
      "dur": 25
    },
    {
      "t": 505.7,
      "ch": 1,
      "note": 38,
      "vel": 38,
      "dur": 25
    },
    {
      "t": 505.8,
      "ch": 4,
      "note": 70,
      "vel": 29,
      "dur": 5531
    },
    {
      "t": 505.8,
      "ch": 4,
      "note": 65,
      "vel": 28,
      "dur": 5531
    },
    {
      "t": 505.8,
      "ch": 3,
      "note": 46,
      "vel": 31,
      "dur": 5581
    },
    {
      "t": 505.8,
      "ch": 0,
      "note": 36,
      "vel": 83,
      "dur": 55
    },
    {
      "t": 505.8,
      "ch": 1,
      "note": 40,
      "vel": 36,
      "dur": 25
    },
    {
      "t": 505.8,
      "ch": 7,
      "note": 48,
      "vel": 67,
      "dur": 80
    },
    {
      "t": 505.8,
      "ch": 7,
      "note": 36,
      "vel": 67,
      "dur": 80
    },
    {
      "t": 506,
      "ch": 1,
      "note": 42,
      "vel": 52,
      "dur": 25
    },
    {
      "t": 506.2,
      "ch": 1,
      "note": 36,
      "vel": 29,
      "dur": 25
    },
    {
      "t": 506.2,
      "ch": 7,
      "note": 45,
      "vel": 80,
      "dur": 80
    },
    {
      "t": 506.2,
      "ch": 7,
      "note": 36,
      "vel": 65,
      "dur": 80
    },
    {
      "t": 506.4,
      "ch": 1,
      "note": 38,
      "vel": 54,
      "dur": 25
    },
    {
      "t": 506.5,
      "ch": 1,
      "note": 40,
      "vel": 45,
      "dur": 25
    },
    {
      "t": 506.5,
      "ch": 7,
      "note": 48,
      "vel": 75,
      "dur": 80
    },
    {
      "t": 506.5,
      "ch": 7,
      "note": 36,
      "vel": 79,
      "dur": 80
    },
    {
      "t": 506.7,
      "ch": 1,
      "note": 42,
      "vel": 63,
      "dur": 25
    },
    {
      "t": 506.9,
      "ch": 1,
      "note": 36,
      "vel": 35,
      "dur": 25
    },
    {
      "t": 506.9,
      "ch": 6,
      "note": 70,
      "vel": 9,
      "dur": 686
    },
    {
      "t": 507.1,
      "ch": 1,
      "note": 38,
      "vel": 39,
      "dur": 25
    },
    {
      "t": 507.2,
      "ch": 1,
      "note": 40,
      "vel": 48,
      "dur": 25
    },
    {
      "t": 507.2,
      "ch": 7,
      "note": 48,
      "vel": 69,
      "dur": 80
    },
    {
      "t": 507.2,
      "ch": 7,
      "note": 45,
      "vel": 77,
      "dur": 80
    },
    {
      "t": 507.2,
      "ch": 7,
      "note": 36,
      "vel": 74,
      "dur": 80
    },
    {
      "t": 507.4,
      "ch": 1,
      "note": 42,
      "vel": 42,
      "dur": 25
    },
    {
      "t": 507.6,
      "ch": 1,
      "note": 36,
      "vel": 62,
      "dur": 25
    },
    {
      "t": 507.6,
      "ch": 7,
      "note": 36,
      "vel": 66,
      "dur": 80
    },
    {
      "t": 507.7,
      "ch": 1,
      "note": 38,
      "vel": 58,
      "dur": 25
    },
    {
      "t": 507.9,
      "ch": 1,
      "note": 40,
      "vel": 61,
      "dur": 25
    },
    {
      "t": 507.9,
      "ch": 7,
      "note": 48,
      "vel": 77,
      "dur": 80
    },
    {
      "t": 507.9,
      "ch": 7,
      "note": 36,
      "vel": 69,
      "dur": 80
    },
    {
      "t": 508.1,
      "ch": 1,
      "note": 42,
      "vel": 47,
      "dur": 25
    },
    {
      "t": 508.1,
      "ch": 7,
      "note": 45,
      "vel": 68,
      "dur": 80
    },
    {
      "t": 508.3,
      "ch": 1,
      "note": 36,
      "vel": 64,
      "dur": 25
    },
    {
      "t": 508.5,
      "ch": 1,
      "note": 38,
      "vel": 35,
      "dur": 25
    },
    {
      "t": 508.6,
      "ch": 1,
      "note": 40,
      "vel": 56,
      "dur": 25
    },
    {
      "t": 508.6,
      "ch": 7,
      "note": 48,
      "vel": 82,
      "dur": 80
    },
    {
      "t": 508.6,
      "ch": 7,
      "note": 36,
      "vel": 77,
      "dur": 80
    },
    {
      "t": 508.8,
      "ch": 1,
      "note": 42,
      "vel": 63,
      "dur": 25
    },
    {
      "t": 509,
      "ch": 1,
      "note": 36,
      "vel": 34,
      "dur": 25
    },
    {
      "t": 509,
      "ch": 7,
      "note": 45,
      "vel": 49,
      "dur": 80
    },
    {
      "t": 509,
      "ch": 7,
      "note": 36,
      "vel": 61,
      "dur": 80
    },
    {
      "t": 509.1,
      "ch": 1,
      "note": 38,
      "vel": 56,
      "dur": 25
    },
    {
      "t": 509.3,
      "ch": 1,
      "note": 40,
      "vel": 69,
      "dur": 25
    },
    {
      "t": 509.3,
      "ch": 7,
      "note": 48,
      "vel": 65,
      "dur": 80
    },
    {
      "t": 509.3,
      "ch": 7,
      "note": 36,
      "vel": 63,
      "dur": 80
    },
    {
      "t": 509.5,
      "ch": 1,
      "note": 42,
      "vel": 51,
      "dur": 25
    },
    {
      "t": 509.7,
      "ch": 1,
      "note": 36,
      "vel": 54,
      "dur": 25
    },
    {
      "t": 509.8,
      "ch": 1,
      "note": 38,
      "vel": 66,
      "dur": 25
    },
    {
      "t": 509.9,
      "ch": 5,
      "note": 65,
      "vel": 1,
      "dur": 1026
    },
    {
      "t": 510,
      "ch": 1,
      "note": 40,
      "vel": 33,
      "dur": 25
    },
    {
      "t": 510,
      "ch": 7,
      "note": 48,
      "vel": 76,
      "dur": 80
    },
    {
      "t": 510,
      "ch": 7,
      "note": 45,
      "vel": 74,
      "dur": 80
    },
    {
      "t": 510,
      "ch": 7,
      "note": 36,
      "vel": 80,
      "dur": 80
    },
    {
      "t": 510.2,
      "ch": 1,
      "note": 42,
      "vel": 33,
      "dur": 25
    },
    {
      "t": 510.4,
      "ch": 1,
      "note": 36,
      "vel": 63,
      "dur": 25
    },
    {
      "t": 510.4,
      "ch": 7,
      "note": 36,
      "vel": 52,
      "dur": 80
    },
    {
      "t": 510.5,
      "ch": 1,
      "note": 38,
      "vel": 27,
      "dur": 25
    },
    {
      "t": 510.7,
      "ch": 1,
      "note": 40,
      "vel": 45,
      "dur": 25
    },
    {
      "t": 510.7,
      "ch": 7,
      "note": 48,
      "vel": 60,
      "dur": 80
    },
    {
      "t": 510.7,
      "ch": 7,
      "note": 36,
      "vel": 72,
      "dur": 80
    },
    {
      "t": 510.9,
      "ch": 1,
      "note": 42,
      "vel": 66,
      "dur": 25
    },
    {
      "t": 510.9,
      "ch": 7,
      "note": 45,
      "vel": 67,
      "dur": 80
    },
    {
      "t": 511.1,
      "ch": 1,
      "note": 36,
      "vel": 46,
      "dur": 25
    },
    {
      "t": 511.2,
      "ch": 1,
      "note": 38,
      "vel": 45,
      "dur": 25
    },
    {
      "t": 511.3,
      "ch": 4,
      "note": 70,
      "vel": 29,
      "dur": 5531
    },
    {
      "t": 511.3,
      "ch": 4,
      "note": 65,
      "vel": 29,
      "dur": 5531
    },
    {
      "t": 511.3,
      "ch": 3,
      "note": 53,
      "vel": 32,
      "dur": 5581
    },
    {
      "t": 511.4,
      "ch": 1,
      "note": 40,
      "vel": 57,
      "dur": 25
    },
    {
      "t": 511.4,
      "ch": 7,
      "note": 48,
      "vel": 75,
      "dur": 80
    },
    {
      "t": 511.4,
      "ch": 7,
      "note": 36,
      "vel": 70,
      "dur": 80
    },
    {
      "t": 511.6,
      "ch": 1,
      "note": 42,
      "vel": 56,
      "dur": 25
    },
    {
      "t": 511.8,
      "ch": 1,
      "note": 36,
      "vel": 55,
      "dur": 25
    },
    {
      "t": 511.8,
      "ch": 7,
      "note": 45,
      "vel": 67,
      "dur": 80
    },
    {
      "t": 511.8,
      "ch": 7,
      "note": 36,
      "vel": 68,
      "dur": 80
    },
    {
      "t": 511.9,
      "ch": 1,
      "note": 38,
      "vel": 40,
      "dur": 25
    },
    {
      "t": 512.1,
      "ch": 1,
      "note": 40,
      "vel": 68,
      "dur": 25
    },
    {
      "t": 512.1,
      "ch": 7,
      "note": 48,
      "vel": 65,
      "dur": 80
    },
    {
      "t": 512.1,
      "ch": 7,
      "note": 36,
      "vel": 67,
      "dur": 80
    },
    {
      "t": 512.3,
      "ch": 1,
      "note": 42,
      "vel": 48,
      "dur": 25
    },
    {
      "t": 512.5,
      "ch": 1,
      "note": 36,
      "vel": 33,
      "dur": 25
    },
    {
      "t": 512.6,
      "ch": 1,
      "note": 38,
      "vel": 55,
      "dur": 25
    },
    {
      "t": 512.8,
      "ch": 1,
      "note": 40,
      "vel": 51,
      "dur": 25
    },
    {
      "t": 512.8,
      "ch": 7,
      "note": 48,
      "vel": 68,
      "dur": 80
    },
    {
      "t": 512.8,
      "ch": 7,
      "note": 45,
      "vel": 75,
      "dur": 80
    },
    {
      "t": 512.8,
      "ch": 7,
      "note": 36,
      "vel": 74,
      "dur": 80
    },
    {
      "t": 513,
      "ch": 1,
      "note": 42,
      "vel": 40,
      "dur": 25
    },
    {
      "t": 513.2,
      "ch": 1,
      "note": 36,
      "vel": 36,
      "dur": 25
    },
    {
      "t": 513.2,
      "ch": 7,
      "note": 36,
      "vel": 75,
      "dur": 80
    },
    {
      "t": 513.3,
      "ch": 1,
      "note": 38,
      "vel": 51,
      "dur": 25
    },
    {
      "t": 513.5,
      "ch": 1,
      "note": 40,
      "vel": 43,
      "dur": 25
    },
    {
      "t": 513.5,
      "ch": 7,
      "note": 48,
      "vel": 63,
      "dur": 80
    },
    {
      "t": 513.5,
      "ch": 7,
      "note": 36,
      "vel": 87,
      "dur": 80
    },
    {
      "t": 513.7,
      "ch": 1,
      "note": 42,
      "vel": 43,
      "dur": 25
    },
    {
      "t": 513.7,
      "ch": 7,
      "note": 45,
      "vel": 72,
      "dur": 80
    },
    {
      "t": 513.9,
      "ch": 1,
      "note": 36,
      "vel": 62,
      "dur": 25
    },
    {
      "t": 514,
      "ch": 1,
      "note": 38,
      "vel": 41,
      "dur": 25
    },
    {
      "t": 514.1,
      "ch": 2,
      "note": 58,
      "vel": 52,
      "dur": 20930
    },
    {
      "t": 514.2,
      "ch": 1,
      "note": 40,
      "vel": 48,
      "dur": 25
    },
    {
      "t": 514.2,
      "ch": 7,
      "note": 48,
      "vel": 74,
      "dur": 80
    },
    {
      "t": 514.2,
      "ch": 7,
      "note": 36,
      "vel": 67,
      "dur": 80
    },
    {
      "t": 514.2,
      "ch": 6,
      "note": 61,
      "vel": 1,
      "dur": 668
    },
    {
      "t": 514.4,
      "ch": 1,
      "note": 42,
      "vel": 59,
      "dur": 25
    },
    {
      "t": 514.6,
      "ch": 1,
      "note": 36,
      "vel": 35,
      "dur": 25
    },
    {
      "t": 514.6,
      "ch": 7,
      "note": 45,
      "vel": 67,
      "dur": 80
    },
    {
      "t": 514.6,
      "ch": 7,
      "note": 36,
      "vel": 69,
      "dur": 80
    },
    {
      "t": 514.7,
      "ch": 1,
      "note": 38,
      "vel": 39,
      "dur": 25
    },
    {
      "t": 514.9,
      "ch": 1,
      "note": 40,
      "vel": 48,
      "dur": 25
    },
    {
      "t": 514.9,
      "ch": 7,
      "note": 48,
      "vel": 71,
      "dur": 80
    },
    {
      "t": 514.9,
      "ch": 7,
      "note": 36,
      "vel": 66,
      "dur": 80
    },
    {
      "t": 515.1,
      "ch": 1,
      "note": 42,
      "vel": 56,
      "dur": 25
    },
    {
      "t": 515.3,
      "ch": 1,
      "note": 36,
      "vel": 62,
      "dur": 25
    },
    {
      "t": 515.4,
      "ch": 1,
      "note": 38,
      "vel": 61,
      "dur": 25
    },
    {
      "t": 515.6,
      "ch": 0,
      "note": 36,
      "vel": 115,
      "dur": 55
    },
    {
      "t": 515.6,
      "ch": 1,
      "note": 40,
      "vel": 59,
      "dur": 25
    },
    {
      "t": 515.6,
      "ch": 7,
      "note": 48,
      "vel": 76,
      "dur": 80
    },
    {
      "t": 515.6,
      "ch": 7,
      "note": 45,
      "vel": 62,
      "dur": 80
    },
    {
      "t": 515.6,
      "ch": 7,
      "note": 36,
      "vel": 77,
      "dur": 80
    },
    {
      "t": 515.8,
      "ch": 1,
      "note": 42,
      "vel": 43,
      "dur": 25
    },
    {
      "t": 516,
      "ch": 1,
      "note": 36,
      "vel": 68,
      "dur": 25
    },
    {
      "t": 516,
      "ch": 7,
      "note": 36,
      "vel": 62,
      "dur": 80
    },
    {
      "t": 516.1,
      "ch": 1,
      "note": 38,
      "vel": 53,
      "dur": 25
    },
    {
      "t": 516.3,
      "ch": 1,
      "note": 40,
      "vel": 47,
      "dur": 25
    },
    {
      "t": 516.3,
      "ch": 7,
      "note": 48,
      "vel": 76,
      "dur": 80
    },
    {
      "t": 516.3,
      "ch": 7,
      "note": 36,
      "vel": 80,
      "dur": 80
    },
    {
      "t": 516.5,
      "ch": 1,
      "note": 42,
      "vel": 26,
      "dur": 25
    },
    {
      "t": 516.5,
      "ch": 7,
      "note": 45,
      "vel": 56,
      "dur": 80
    },
    {
      "t": 516.7,
      "ch": 1,
      "note": 36,
      "vel": 35,
      "dur": 25
    },
    {
      "t": 516.8,
      "ch": 1,
      "note": 38,
      "vel": 32,
      "dur": 25
    },
    {
      "t": 516.9,
      "ch": 4,
      "note": 70,
      "vel": 33,
      "dur": 5531
    },
    {
      "t": 516.9,
      "ch": 4,
      "note": 65,
      "vel": 33,
      "dur": 5531
    },
    {
      "t": 516.9,
      "ch": 3,
      "note": 39,
      "vel": 36,
      "dur": 5581
    },
    {
      "t": 517,
      "ch": 0,
      "note": 36,
      "vel": 89,
      "dur": 55
    },
    {
      "t": 517,
      "ch": 1,
      "note": 40,
      "vel": 38,
      "dur": 25
    },
    {
      "t": 517,
      "ch": 7,
      "note": 48,
      "vel": 65,
      "dur": 80
    },
    {
      "t": 517,
      "ch": 7,
      "note": 36,
      "vel": 67,
      "dur": 80
    },
    {
      "t": 517.2,
      "ch": 1,
      "note": 42,
      "vel": 39,
      "dur": 25
    },
    {
      "t": 517.4,
      "ch": 1,
      "note": 36,
      "vel": 35,
      "dur": 25
    },
    {
      "t": 517.4,
      "ch": 7,
      "note": 45,
      "vel": 61,
      "dur": 80
    },
    {
      "t": 517.4,
      "ch": 7,
      "note": 36,
      "vel": 64,
      "dur": 80
    },
    {
      "t": 517.5,
      "ch": 1,
      "note": 38,
      "vel": 17,
      "dur": 25
    },
    {
      "t": 517.7,
      "ch": 1,
      "note": 40,
      "vel": 48,
      "dur": 25
    },
    {
      "t": 517.7,
      "ch": 7,
      "note": 48,
      "vel": 69,
      "dur": 80
    },
    {
      "t": 517.7,
      "ch": 7,
      "note": 36,
      "vel": 64,
      "dur": 80
    },
    {
      "t": 517.9,
      "ch": 1,
      "note": 42,
      "vel": 56,
      "dur": 25
    },
    {
      "t": 518.1,
      "ch": 1,
      "note": 36,
      "vel": 37,
      "dur": 25
    },
    {
      "t": 518.2,
      "ch": 1,
      "note": 38,
      "vel": 32,
      "dur": 25
    },
    {
      "t": 518.4,
      "ch": 1,
      "note": 40,
      "vel": 46,
      "dur": 25
    },
    {
      "t": 518.4,
      "ch": 7,
      "note": 48,
      "vel": 70,
      "dur": 80
    },
    {
      "t": 518.4,
      "ch": 7,
      "note": 45,
      "vel": 62,
      "dur": 80
    },
    {
      "t": 518.4,
      "ch": 7,
      "note": 36,
      "vel": 75,
      "dur": 80
    },
    {
      "t": 518.6,
      "ch": 1,
      "note": 42,
      "vel": 54,
      "dur": 25
    },
    {
      "t": 518.7,
      "ch": 1,
      "note": 36,
      "vel": 30,
      "dur": 25
    },
    {
      "t": 518.8,
      "ch": 7,
      "note": 36,
      "vel": 67,
      "dur": 80
    },
    {
      "t": 518.9,
      "ch": 1,
      "note": 38,
      "vel": 57,
      "dur": 25
    },
    {
      "t": 519.1,
      "ch": 1,
      "note": 40,
      "vel": 58,
      "dur": 25
    },
    {
      "t": 519.1,
      "ch": 7,
      "note": 48,
      "vel": 73,
      "dur": 80
    },
    {
      "t": 519.1,
      "ch": 7,
      "note": 36,
      "vel": 71,
      "dur": 80
    },
    {
      "t": 519.3,
      "ch": 1,
      "note": 42,
      "vel": 46,
      "dur": 25
    },
    {
      "t": 519.3,
      "ch": 7,
      "note": 45,
      "vel": 55,
      "dur": 80
    },
    {
      "t": 519.4,
      "ch": 1,
      "note": 36,
      "vel": 60,
      "dur": 25
    },
    {
      "t": 519.6,
      "ch": 1,
      "note": 38,
      "vel": 43,
      "dur": 25
    },
    {
      "t": 519.8,
      "ch": 1,
      "note": 40,
      "vel": 56,
      "dur": 25
    },
    {
      "t": 519.8,
      "ch": 7,
      "note": 48,
      "vel": 79,
      "dur": 80
    },
    {
      "t": 519.8,
      "ch": 7,
      "note": 36,
      "vel": 64,
      "dur": 80
    },
    {
      "t": 520,
      "ch": 1,
      "note": 42,
      "vel": 57,
      "dur": 25
    },
    {
      "t": 520.2,
      "ch": 1,
      "note": 36,
      "vel": 46,
      "dur": 25
    },
    {
      "t": 520.2,
      "ch": 7,
      "note": 45,
      "vel": 66,
      "dur": 80
    },
    {
      "t": 520.2,
      "ch": 7,
      "note": 36,
      "vel": 75,
      "dur": 80
    },
    {
      "t": 520.3,
      "ch": 1,
      "note": 38,
      "vel": 33,
      "dur": 25
    },
    {
      "t": 520.5,
      "ch": 1,
      "note": 40,
      "vel": 55,
      "dur": 25
    },
    {
      "t": 520.5,
      "ch": 7,
      "note": 48,
      "vel": 66,
      "dur": 80
    },
    {
      "t": 520.5,
      "ch": 7,
      "note": 36,
      "vel": 73,
      "dur": 80
    },
    {
      "t": 520.7,
      "ch": 1,
      "note": 42,
      "vel": 38,
      "dur": 25
    },
    {
      "t": 520.8,
      "ch": 1,
      "note": 36,
      "vel": 49,
      "dur": 25
    },
    {
      "t": 521,
      "ch": 1,
      "note": 38,
      "vel": 30,
      "dur": 25
    },
    {
      "t": 521.2,
      "ch": 1,
      "note": 40,
      "vel": 62,
      "dur": 25
    },
    {
      "t": 521.2,
      "ch": 7,
      "note": 48,
      "vel": 68,
      "dur": 80
    },
    {
      "t": 521.2,
      "ch": 7,
      "note": 45,
      "vel": 69,
      "dur": 80
    },
    {
      "t": 521.2,
      "ch": 7,
      "note": 36,
      "vel": 69,
      "dur": 80
    },
    {
      "t": 521.4,
      "ch": 1,
      "note": 42,
      "vel": 69,
      "dur": 25
    },
    {
      "t": 521.6,
      "ch": 1,
      "note": 36,
      "vel": 39,
      "dur": 25
    },
    {
      "t": 521.6,
      "ch": 7,
      "note": 36,
      "vel": 62,
      "dur": 80
    },
    {
      "t": 521.7,
      "ch": 1,
      "note": 38,
      "vel": 44,
      "dur": 25
    },
    {
      "t": 521.9,
      "ch": 1,
      "note": 40,
      "vel": 72,
      "dur": 25
    },
    {
      "t": 521.9,
      "ch": 7,
      "note": 48,
      "vel": 79,
      "dur": 80
    },
    {
      "t": 521.9,
      "ch": 7,
      "note": 36,
      "vel": 68,
      "dur": 80
    },
    {
      "t": 522.1,
      "ch": 1,
      "note": 42,
      "vel": 22,
      "dur": 25
    },
    {
      "t": 522.1,
      "ch": 7,
      "note": 45,
      "vel": 60,
      "dur": 80
    },
    {
      "t": 522.2,
      "ch": 1,
      "note": 36,
      "vel": 27,
      "dur": 25
    },
    {
      "t": 522.3,
      "ch": 5,
      "note": 70,
      "vel": 1,
      "dur": 991
    },
    {
      "t": 522.4,
      "ch": 1,
      "note": 38,
      "vel": 37,
      "dur": 25
    },
    {
      "t": 522.5,
      "ch": 4,
      "note": 68,
      "vel": 48,
      "dur": 5531
    },
    {
      "t": 522.5,
      "ch": 4,
      "note": 63,
      "vel": 31,
      "dur": 5531
    },
    {
      "t": 522.5,
      "ch": 3,
      "note": 39,
      "vel": 35,
      "dur": 5581
    },
    {
      "t": 522.6,
      "ch": 1,
      "note": 40,
      "vel": 30,
      "dur": 25
    },
    {
      "t": 522.6,
      "ch": 7,
      "note": 48,
      "vel": 73,
      "dur": 80
    },
    {
      "t": 522.6,
      "ch": 7,
      "note": 36,
      "vel": 77,
      "dur": 80
    },
    {
      "t": 522.7,
      "ch": 1,
      "note": 42,
      "vel": 24,
      "dur": 25
    },
    {
      "t": 522.9,
      "ch": 1,
      "note": 36,
      "vel": 37,
      "dur": 25
    },
    {
      "t": 523,
      "ch": 7,
      "note": 45,
      "vel": 58,
      "dur": 80
    },
    {
      "t": 523,
      "ch": 7,
      "note": 36,
      "vel": 50,
      "dur": 80
    },
    {
      "t": 523.1,
      "ch": 1,
      "note": 38,
      "vel": 40,
      "dur": 25
    },
    {
      "t": 523.1,
      "ch": 6,
      "note": 63,
      "vel": 18,
      "dur": 663
    },
    {
      "t": 523.3,
      "ch": 1,
      "note": 40,
      "vel": 52,
      "dur": 25
    },
    {
      "t": 523.3,
      "ch": 7,
      "note": 48,
      "vel": 84,
      "dur": 80
    },
    {
      "t": 523.3,
      "ch": 7,
      "note": 36,
      "vel": 74,
      "dur": 80
    },
    {
      "t": 523.5,
      "ch": 1,
      "note": 42,
      "vel": 39,
      "dur": 25
    },
    {
      "t": 523.6,
      "ch": 1,
      "note": 36,
      "vel": 36,
      "dur": 25
    },
    {
      "t": 523.8,
      "ch": 1,
      "note": 38,
      "vel": 31,
      "dur": 25
    },
    {
      "t": 524,
      "ch": 1,
      "note": 40,
      "vel": 38,
      "dur": 25
    },
    {
      "t": 524,
      "ch": 7,
      "note": 48,
      "vel": 79,
      "dur": 80
    },
    {
      "t": 524,
      "ch": 7,
      "note": 45,
      "vel": 75,
      "dur": 80
    },
    {
      "t": 524,
      "ch": 7,
      "note": 36,
      "vel": 65,
      "dur": 80
    },
    {
      "t": 524.2,
      "ch": 1,
      "note": 42,
      "vel": 52,
      "dur": 25
    },
    {
      "t": 524.2,
      "ch": 5,
      "note": 58,
      "vel": 22,
      "dur": 1001
    },
    {
      "t": 524.3,
      "ch": 1,
      "note": 36,
      "vel": 37,
      "dur": 25
    },
    {
      "t": 524.4,
      "ch": 7,
      "note": 36,
      "vel": 58,
      "dur": 80
    },
    {
      "t": 524.5,
      "ch": 1,
      "note": 38,
      "vel": 32,
      "dur": 25
    },
    {
      "t": 524.7,
      "ch": 1,
      "note": 40,
      "vel": 56,
      "dur": 25
    },
    {
      "t": 524.7,
      "ch": 7,
      "note": 48,
      "vel": 73,
      "dur": 80
    },
    {
      "t": 524.7,
      "ch": 7,
      "note": 36,
      "vel": 65,
      "dur": 80
    },
    {
      "t": 524.8,
      "ch": 1,
      "note": 42,
      "vel": 55,
      "dur": 25
    },
    {
      "t": 524.9,
      "ch": 7,
      "note": 45,
      "vel": 72,
      "dur": 80
    },
    {
      "t": 525,
      "ch": 1,
      "note": 36,
      "vel": 35,
      "dur": 25
    },
    {
      "t": 525.2,
      "ch": 1,
      "note": 38,
      "vel": 49,
      "dur": 25
    },
    {
      "t": 525.3,
      "ch": 2,
      "note": 58,
      "vel": 0,
      "dur": 0
    },
    {
      "t": 525.3,
      "ch": 2,
      "note": 56,
      "vel": 52,
      "dur": 20930
    },
    {
      "t": 525.4,
      "ch": 1,
      "note": 40,
      "vel": 69,
      "dur": 25
    },
    {
      "t": 525.4,
      "ch": 7,
      "note": 48,
      "vel": 71,
      "dur": 80
    },
    {
      "t": 525.4,
      "ch": 7,
      "note": 36,
      "vel": 76,
      "dur": 80
    },
    {
      "t": 525.5,
      "ch": 1,
      "note": 42,
      "vel": 65,
      "dur": 25
    },
    {
      "t": 525.7,
      "ch": 1,
      "note": 36,
      "vel": 48,
      "dur": 25
    },
    {
      "t": 525.8,
      "ch": 7,
      "note": 45,
      "vel": 78,
      "dur": 80
    },
    {
      "t": 525.8,
      "ch": 7,
      "note": 36,
      "vel": 56,
      "dur": 80
    },
    {
      "t": 525.9,
      "ch": 1,
      "note": 38,
      "vel": 57,
      "dur": 25
    },
    {
      "t": 526.1,
      "ch": 1,
      "note": 40,
      "vel": 46,
      "dur": 25
    },
    {
      "t": 526.1,
      "ch": 7,
      "note": 48,
      "vel": 72,
      "dur": 80
    },
    {
      "t": 526.1,
      "ch": 7,
      "note": 36,
      "vel": 65,
      "dur": 80
    },
    {
      "t": 526.2,
      "ch": 1,
      "note": 42,
      "vel": 29,
      "dur": 25
    },
    {
      "t": 526.3,
      "ch": 5,
      "note": 73,
      "vel": 7,
      "dur": 1013
    },
    {
      "t": 526.4,
      "ch": 1,
      "note": 36,
      "vel": 53,
      "dur": 25
    },
    {
      "t": 526.6,
      "ch": 1,
      "note": 38,
      "vel": 39,
      "dur": 25
    },
    {
      "t": 526.8,
      "ch": 0,
      "note": 36,
      "vel": 122,
      "dur": 55
    },
    {
      "t": 526.8,
      "ch": 1,
      "note": 40,
      "vel": 23,
      "dur": 25
    },
    {
      "t": 526.8,
      "ch": 7,
      "note": 48,
      "vel": 70,
      "dur": 80
    },
    {
      "t": 526.8,
      "ch": 7,
      "note": 45,
      "vel": 71,
      "dur": 80
    },
    {
      "t": 526.8,
      "ch": 7,
      "note": 36,
      "vel": 72,
      "dur": 80
    },
    {
      "t": 526.9,
      "ch": 1,
      "note": 42,
      "vel": 40,
      "dur": 25
    },
    {
      "t": 527.1,
      "ch": 1,
      "note": 36,
      "vel": 63,
      "dur": 25
    },
    {
      "t": 527.2,
      "ch": 7,
      "note": 36,
      "vel": 55,
      "dur": 80
    },
    {
      "t": 527.3,
      "ch": 1,
      "note": 38,
      "vel": 55,
      "dur": 25
    },
    {
      "t": 527.5,
      "ch": 1,
      "note": 40,
      "vel": 47,
      "dur": 25
    },
    {
      "t": 527.5,
      "ch": 7,
      "note": 48,
      "vel": 67,
      "dur": 80
    },
    {
      "t": 527.5,
      "ch": 7,
      "note": 36,
      "vel": 71,
      "dur": 80
    },
    {
      "t": 527.6,
      "ch": 1,
      "note": 42,
      "vel": 44,
      "dur": 25
    },
    {
      "t": 527.7,
      "ch": 7,
      "note": 45,
      "vel": 69,
      "dur": 80
    },
    {
      "t": 527.8,
      "ch": 1,
      "note": 36,
      "vel": 35,
      "dur": 25
    },
    {
      "t": 528,
      "ch": 1,
      "note": 38,
      "vel": 33,
      "dur": 25
    },
    {
      "t": 528.1,
      "ch": 4,
      "note": 70,
      "vel": 30,
      "dur": 5531
    },
    {
      "t": 528.1,
      "ch": 4,
      "note": 63,
      "vel": 29,
      "dur": 5531
    },
    {
      "t": 528.1,
      "ch": 3,
      "note": 46,
      "vel": 31,
      "dur": 5581
    },
    {
      "t": 528.2,
      "ch": 0,
      "note": 36,
      "vel": 89,
      "dur": 55
    },
    {
      "t": 528.2,
      "ch": 1,
      "note": 40,
      "vel": 46,
      "dur": 25
    },
    {
      "t": 528.2,
      "ch": 7,
      "note": 48,
      "vel": 82,
      "dur": 80
    },
    {
      "t": 528.2,
      "ch": 7,
      "note": 36,
      "vel": 71,
      "dur": 80
    },
    {
      "t": 528.3,
      "ch": 1,
      "note": 42,
      "vel": 53,
      "dur": 25
    },
    {
      "t": 528.5,
      "ch": 1,
      "note": 36,
      "vel": 39,
      "dur": 25
    },
    {
      "t": 528.5,
      "ch": 7,
      "note": 45,
      "vel": 63,
      "dur": 80
    },
    {
      "t": 528.5,
      "ch": 7,
      "note": 36,
      "vel": 63,
      "dur": 80
    },
    {
      "t": 528.7,
      "ch": 1,
      "note": 38,
      "vel": 65,
      "dur": 25
    },
    {
      "t": 528.9,
      "ch": 1,
      "note": 40,
      "vel": 39,
      "dur": 25
    },
    {
      "t": 528.9,
      "ch": 7,
      "note": 48,
      "vel": 82,
      "dur": 80
    },
    {
      "t": 528.9,
      "ch": 7,
      "note": 36,
      "vel": 64,
      "dur": 80
    },
    {
      "t": 529,
      "ch": 1,
      "note": 42,
      "vel": 53,
      "dur": 25
    },
    {
      "t": 529.2,
      "ch": 1,
      "note": 36,
      "vel": 49,
      "dur": 25
    },
    {
      "t": 529.4,
      "ch": 1,
      "note": 38,
      "vel": 42,
      "dur": 25
    },
    {
      "t": 529.6,
      "ch": 1,
      "note": 40,
      "vel": 52,
      "dur": 25
    },
    {
      "t": 529.6,
      "ch": 7,
      "note": 48,
      "vel": 68,
      "dur": 80
    },
    {
      "t": 529.6,
      "ch": 7,
      "note": 45,
      "vel": 74,
      "dur": 80
    },
    {
      "t": 529.6,
      "ch": 7,
      "note": 36,
      "vel": 74,
      "dur": 80
    },
    {
      "t": 529.7,
      "ch": 1,
      "note": 42,
      "vel": 38,
      "dur": 25
    },
    {
      "t": 529.9,
      "ch": 1,
      "note": 36,
      "vel": 46,
      "dur": 25
    },
    {
      "t": 529.9,
      "ch": 7,
      "note": 36,
      "vel": 59,
      "dur": 80
    },
    {
      "t": 530.1,
      "ch": 1,
      "note": 38,
      "vel": 33,
      "dur": 25
    },
    {
      "t": 530.3,
      "ch": 1,
      "note": 40,
      "vel": 79,
      "dur": 25
    },
    {
      "t": 530.3,
      "ch": 7,
      "note": 48,
      "vel": 80,
      "dur": 80
    },
    {
      "t": 530.3,
      "ch": 7,
      "note": 36,
      "vel": 71,
      "dur": 80
    },
    {
      "t": 530.4,
      "ch": 1,
      "note": 42,
      "vel": 48,
      "dur": 25
    },
    {
      "t": 530.5,
      "ch": 7,
      "note": 45,
      "vel": 64,
      "dur": 80
    },
    {
      "t": 530.6,
      "ch": 1,
      "note": 36,
      "vel": 56,
      "dur": 25
    },
    {
      "t": 530.8,
      "ch": 1,
      "note": 38,
      "vel": 38,
      "dur": 25
    },
    {
      "t": 531,
      "ch": 1,
      "note": 40,
      "vel": 34,
      "dur": 25
    },
    {
      "t": 531,
      "ch": 7,
      "note": 48,
      "vel": 61,
      "dur": 80
    },
    {
      "t": 531,
      "ch": 7,
      "note": 36,
      "vel": 71,
      "dur": 80
    },
    {
      "t": 531.1,
      "ch": 1,
      "note": 42,
      "vel": 68,
      "dur": 25
    },
    {
      "t": 531.3,
      "ch": 1,
      "note": 36,
      "vel": 63,
      "dur": 25
    },
    {
      "t": 531.3,
      "ch": 7,
      "note": 45,
      "vel": 63,
      "dur": 80
    },
    {
      "t": 531.3,
      "ch": 7,
      "note": 36,
      "vel": 63,
      "dur": 80
    },
    {
      "t": 531.5,
      "ch": 1,
      "note": 38,
      "vel": 51,
      "dur": 25
    },
    {
      "t": 531.7,
      "ch": 1,
      "note": 40,
      "vel": 37,
      "dur": 25
    },
    {
      "t": 531.7,
      "ch": 7,
      "note": 48,
      "vel": 61,
      "dur": 80
    },
    {
      "t": 531.7,
      "ch": 7,
      "note": 36,
      "vel": 74,
      "dur": 80
    },
    {
      "t": 531.8,
      "ch": 1,
      "note": 42,
      "vel": 50,
      "dur": 25
    },
    {
      "t": 532,
      "ch": 1,
      "note": 36,
      "vel": 46,
      "dur": 25
    },
    {
      "t": 532.2,
      "ch": 1,
      "note": 38,
      "vel": 57,
      "dur": 25
    },
    {
      "t": 532.4,
      "ch": 1,
      "note": 40,
      "vel": 45,
      "dur": 25
    },
    {
      "t": 532.4,
      "ch": 7,
      "note": 48,
      "vel": 70,
      "dur": 80
    },
    {
      "t": 532.4,
      "ch": 7,
      "note": 45,
      "vel": 73,
      "dur": 80
    },
    {
      "t": 532.4,
      "ch": 7,
      "note": 36,
      "vel": 64,
      "dur": 80
    },
    {
      "t": 532.4,
      "ch": 6,
      "note": 61,
      "vel": 16,
      "dur": 683
    },
    {
      "t": 532.5,
      "ch": 1,
      "note": 42,
      "vel": 58,
      "dur": 25
    },
    {
      "t": 532.7,
      "ch": 1,
      "note": 36,
      "vel": 39,
      "dur": 25
    },
    {
      "t": 532.7,
      "ch": 7,
      "note": 36,
      "vel": 59,
      "dur": 80
    },
    {
      "t": 532.9,
      "ch": 1,
      "note": 38,
      "vel": 52,
      "dur": 25
    },
    {
      "t": 533.1,
      "ch": 1,
      "note": 40,
      "vel": 38,
      "dur": 25
    },
    {
      "t": 533.1,
      "ch": 7,
      "note": 48,
      "vel": 76,
      "dur": 80
    },
    {
      "t": 533.1,
      "ch": 7,
      "note": 36,
      "vel": 85,
      "dur": 80
    },
    {
      "t": 533.2,
      "ch": 1,
      "note": 42,
      "vel": 56,
      "dur": 25
    },
    {
      "t": 533.2,
      "ch": 7,
      "note": 45,
      "vel": 53,
      "dur": 80
    },
    {
      "t": 533.4,
      "ch": 1,
      "note": 36,
      "vel": 47,
      "dur": 25
    },
    {
      "t": 533.6,
      "ch": 1,
      "note": 38,
      "vel": 65,
      "dur": 25
    },
    {
      "t": 533.8,
      "ch": 1,
      "note": 40,
      "vel": 50,
      "dur": 25
    },
    {
      "t": 533.8,
      "ch": 7,
      "note": 48,
      "vel": 71,
      "dur": 80
    },
    {
      "t": 533.8,
      "ch": 7,
      "note": 36,
      "vel": 69,
      "dur": 80
    },
    {
      "t": 533.9,
      "ch": 1,
      "note": 42,
      "vel": 73,
      "dur": 25
    },
    {
      "t": 534.1,
      "ch": 1,
      "note": 36,
      "vel": 43,
      "dur": 25
    },
    {
      "t": 534.1,
      "ch": 7,
      "note": 45,
      "vel": 76,
      "dur": 80
    },
    {
      "t": 534.1,
      "ch": 7,
      "note": 36,
      "vel": 69,
      "dur": 80
    },
    {
      "t": 534.3,
      "ch": 1,
      "note": 38,
      "vel": 57,
      "dur": 25
    },
    {
      "t": 534.3,
      "ch": 5,
      "note": 71,
      "vel": 1,
      "dur": 1017
    },
    {
      "t": 534.5,
      "ch": 1,
      "note": 40,
      "vel": 74,
      "dur": 25
    },
    {
      "t": 534.5,
      "ch": 7,
      "note": 48,
      "vel": 78,
      "dur": 80
    },
    {
      "t": 534.5,
      "ch": 7,
      "note": 36,
      "vel": 67,
      "dur": 80
    },
    {
      "t": 534.6,
      "ch": 1,
      "note": 42,
      "vel": 47,
      "dur": 25
    },
    {
      "t": 534.8,
      "ch": 1,
      "note": 36,
      "vel": 42,
      "dur": 25
    },
    {
      "t": 535,
      "ch": 1,
      "note": 38,
      "vel": 66,
      "dur": 25
    },
    {
      "t": 535.2,
      "ch": 1,
      "note": 40,
      "vel": 36,
      "dur": 25
    },
    {
      "t": 535.2,
      "ch": 7,
      "note": 48,
      "vel": 58,
      "dur": 80
    },
    {
      "t": 535.2,
      "ch": 7,
      "note": 45,
      "vel": 77,
      "dur": 80
    },
    {
      "t": 535.2,
      "ch": 7,
      "note": 36,
      "vel": 68,
      "dur": 80
    },
    {
      "t": 535.3,
      "ch": 1,
      "note": 42,
      "vel": 69,
      "dur": 25
    },
    {
      "t": 535.5,
      "ch": 1,
      "note": 36,
      "vel": 46,
      "dur": 25
    },
    {
      "t": 535.5,
      "ch": 7,
      "note": 36,
      "vel": 50,
      "dur": 80
    },
    {
      "t": 535.7,
      "ch": 1,
      "note": 38,
      "vel": 32,
      "dur": 25
    },
    {
      "t": 535.9,
      "ch": 1,
      "note": 40,
      "vel": 44,
      "dur": 25
    },
    {
      "t": 535.9,
      "ch": 7,
      "note": 48,
      "vel": 79,
      "dur": 80
    },
    {
      "t": 535.9,
      "ch": 7,
      "note": 36,
      "vel": 86,
      "dur": 80
    },
    {
      "t": 536,
      "ch": 1,
      "note": 42,
      "vel": 39,
      "dur": 25
    },
    {
      "t": 536.1,
      "ch": 7,
      "note": 45,
      "vel": 61,
      "dur": 80
    },
    {
      "t": 536.2,
      "ch": 1,
      "note": 36,
      "vel": 20,
      "dur": 25
    },
    {
      "t": 536.3,
      "ch": 1,
      "note": 38,
      "vel": 47,
      "dur": 25
    },
    {
      "t": 536.5,
      "ch": 2,
      "note": 56,
      "vel": 0,
      "dur": 0
    },
    {
      "t": 536.5,
      "ch": 1,
      "note": 40,
      "vel": 63,
      "dur": 25
    },
    {
      "t": 536.5,
      "ch": 7,
      "note": 48,
      "vel": 66,
      "dur": 80
    },
    {
      "t": 536.5,
      "ch": 7,
      "note": 36,
      "vel": 55,
      "dur": 80
    },
    {
      "t": 536.7,
      "ch": 1,
      "note": 42,
      "vel": 54,
      "dur": 25
    },
    {
      "t": 536.9,
      "ch": 1,
      "note": 36,
      "vel": 44,
      "dur": 25
    },
    {
      "t": 536.9,
      "ch": 7,
      "note": 45,
      "vel": 74,
      "dur": 80
    },
    {
      "t": 536.9,
      "ch": 7,
      "note": 36,
      "vel": 58,
      "dur": 80
    },
    {
      "t": 537.1,
      "ch": 1,
      "note": 38,
      "vel": 51,
      "dur": 25
    },
    {
      "t": 537.2,
      "ch": 1,
      "note": 40,
      "vel": 62,
      "dur": 25
    },
    {
      "t": 537.2,
      "ch": 7,
      "note": 48,
      "vel": 65,
      "dur": 80
    },
    {
      "t": 537.2,
      "ch": 7,
      "note": 36,
      "vel": 62,
      "dur": 80
    },
    {
      "t": 537.3,
      "ch": 5,
      "note": 65,
      "vel": 24,
      "dur": 998
    },
    {
      "t": 537.4,
      "ch": 1,
      "note": 42,
      "vel": 75,
      "dur": 25
    },
    {
      "t": 537.6,
      "ch": 1,
      "note": 36,
      "vel": 50,
      "dur": 25
    },
    {
      "t": 537.8,
      "ch": 1,
      "note": 38,
      "vel": 54,
      "dur": 25
    },
    {
      "t": 537.9,
      "ch": 0,
      "note": 36,
      "vel": 113,
      "dur": 55
    },
    {
      "t": 537.9,
      "ch": 1,
      "note": 40,
      "vel": 53,
      "dur": 25
    },
    {
      "t": 537.9,
      "ch": 7,
      "note": 48,
      "vel": 65,
      "dur": 80
    },
    {
      "t": 537.9,
      "ch": 7,
      "note": 45,
      "vel": 76,
      "dur": 80
    },
    {
      "t": 537.9,
      "ch": 7,
      "note": 36,
      "vel": 59,
      "dur": 80
    },
    {
      "t": 538.1,
      "ch": 1,
      "note": 42,
      "vel": 40,
      "dur": 25
    },
    {
      "t": 538.3,
      "ch": 1,
      "note": 36,
      "vel": 58,
      "dur": 25
    },
    {
      "t": 538.3,
      "ch": 7,
      "note": 36,
      "vel": 51,
      "dur": 80
    },
    {
      "t": 538.4,
      "ch": 1,
      "note": 38,
      "vel": 43,
      "dur": 25
    },
    {
      "t": 538.6,
      "ch": 1,
      "note": 40,
      "vel": 62,
      "dur": 25
    },
    {
      "t": 538.6,
      "ch": 7,
      "note": 48,
      "vel": 71,
      "dur": 80
    },
    {
      "t": 538.6,
      "ch": 7,
      "note": 36,
      "vel": 73,
      "dur": 80
    },
    {
      "t": 538.8,
      "ch": 1,
      "note": 42,
      "vel": 68,
      "dur": 25
    },
    {
      "t": 538.8,
      "ch": 7,
      "note": 45,
      "vel": 66,
      "dur": 80
    },
    {
      "t": 539,
      "ch": 1,
      "note": 36,
      "vel": 57,
      "dur": 25
    },
    {
      "t": 539.1,
      "ch": 1,
      "note": 38,
      "vel": 58,
      "dur": 25
    },
    {
      "t": 539.3,
      "ch": 0,
      "note": 36,
      "vel": 86,
      "dur": 55
    },
    {
      "t": 539.3,
      "ch": 1,
      "note": 40,
      "vel": 47,
      "dur": 25
    },
    {
      "t": 539.3,
      "ch": 7,
      "note": 48,
      "vel": 78,
      "dur": 80
    },
    {
      "t": 539.3,
      "ch": 7,
      "note": 36,
      "vel": 61,
      "dur": 80
    },
    {
      "t": 539.5,
      "ch": 1,
      "note": 42,
      "vel": 73,
      "dur": 25
    },
    {
      "t": 539.7,
      "ch": 1,
      "note": 36,
      "vel": 42,
      "dur": 25
    },
    {
      "t": 539.7,
      "ch": 7,
      "note": 45,
      "vel": 72,
      "dur": 80
    },
    {
      "t": 539.7,
      "ch": 7,
      "note": 36,
      "vel": 58,
      "dur": 80
    },
    {
      "t": 539.8,
      "ch": 1,
      "note": 38,
      "vel": 35,
      "dur": 25
    },
    {
      "t": 540,
      "ch": 1,
      "note": 40,
      "vel": 47,
      "dur": 25
    },
    {
      "t": 540,
      "ch": 7,
      "note": 48,
      "vel": 72,
      "dur": 80
    },
    {
      "t": 540,
      "ch": 7,
      "note": 36,
      "vel": 75,
      "dur": 80
    },
    {
      "t": 540.2,
      "ch": 1,
      "note": 42,
      "vel": 68,
      "dur": 25
    },
    {
      "t": 540.4,
      "ch": 1,
      "note": 36,
      "vel": 60,
      "dur": 25
    },
    {
      "t": 540.5,
      "ch": 1,
      "note": 38,
      "vel": 67,
      "dur": 25
    },
    {
      "t": 540.7,
      "ch": 1,
      "note": 40,
      "vel": 50,
      "dur": 25
    },
    {
      "t": 540.7,
      "ch": 7,
      "note": 48,
      "vel": 80,
      "dur": 80
    },
    {
      "t": 540.7,
      "ch": 7,
      "note": 45,
      "vel": 63,
      "dur": 80
    },
    {
      "t": 540.7,
      "ch": 7,
      "note": 36,
      "vel": 68,
      "dur": 80
    },
    {
      "t": 540.9,
      "ch": 1,
      "note": 42,
      "vel": 61,
      "dur": 25
    },
    {
      "t": 541.1,
      "ch": 1,
      "note": 36,
      "vel": 48,
      "dur": 25
    },
    {
      "t": 541.1,
      "ch": 7,
      "note": 36,
      "vel": 65,
      "dur": 80
    },
    {
      "t": 541.2,
      "ch": 1,
      "note": 38,
      "vel": 52,
      "dur": 25
    },
    {
      "t": 541.4,
      "ch": 1,
      "note": 40,
      "vel": 53,
      "dur": 25
    },
    {
      "t": 541.4,
      "ch": 7,
      "note": 48,
      "vel": 76,
      "dur": 80
    },
    {
      "t": 541.4,
      "ch": 7,
      "note": 36,
      "vel": 77,
      "dur": 80
    },
    {
      "t": 541.6,
      "ch": 1,
      "note": 42,
      "vel": 68,
      "dur": 25
    },
    {
      "t": 541.6,
      "ch": 7,
      "note": 45,
      "vel": 71,
      "dur": 80
    },
    {
      "t": 541.8,
      "ch": 1,
      "note": 36,
      "vel": 45,
      "dur": 25
    },
    {
      "t": 541.9,
      "ch": 1,
      "note": 38,
      "vel": 42,
      "dur": 25
    },
    {
      "t": 542.1,
      "ch": 1,
      "note": 40,
      "vel": 44,
      "dur": 25
    },
    {
      "t": 542.1,
      "ch": 7,
      "note": 48,
      "vel": 72,
      "dur": 80
    },
    {
      "t": 542.1,
      "ch": 7,
      "note": 36,
      "vel": 61,
      "dur": 80
    },
    {
      "t": 542.3,
      "ch": 1,
      "note": 42,
      "vel": 61,
      "dur": 25
    },
    {
      "t": 542.5,
      "ch": 1,
      "note": 36,
      "vel": 38,
      "dur": 25
    },
    {
      "t": 542.5,
      "ch": 7,
      "note": 45,
      "vel": 63,
      "dur": 80
    },
    {
      "t": 542.5,
      "ch": 7,
      "note": 36,
      "vel": 59,
      "dur": 80
    },
    {
      "t": 542.6,
      "ch": 1,
      "note": 38,
      "vel": 28,
      "dur": 25
    },
    {
      "t": 542.8,
      "ch": 1,
      "note": 40,
      "vel": 30,
      "dur": 25
    },
    {
      "t": 542.8,
      "ch": 7,
      "note": 48,
      "vel": 69,
      "dur": 80
    },
    {
      "t": 542.8,
      "ch": 7,
      "note": 36,
      "vel": 73,
      "dur": 80
    },
    {
      "t": 543,
      "ch": 1,
      "note": 42,
      "vel": 42,
      "dur": 25
    },
    {
      "t": 543.2,
      "ch": 1,
      "note": 36,
      "vel": 39,
      "dur": 25
    },
    {
      "t": 543.3,
      "ch": 1,
      "note": 38,
      "vel": 40,
      "dur": 25
    },
    {
      "t": 543.5,
      "ch": 1,
      "note": 40,
      "vel": 67,
      "dur": 25
    },
    {
      "t": 543.5,
      "ch": 7,
      "note": 48,
      "vel": 78,
      "dur": 80
    },
    {
      "t": 543.5,
      "ch": 7,
      "note": 45,
      "vel": 69,
      "dur": 80
    },
    {
      "t": 543.5,
      "ch": 7,
      "note": 36,
      "vel": 67,
      "dur": 80
    },
    {
      "t": 543.7,
      "ch": 1,
      "note": 42,
      "vel": 46,
      "dur": 25
    },
    {
      "t": 543.7,
      "ch": 5,
      "note": 70,
      "vel": 1,
      "dur": 981
    },
    {
      "t": 543.9,
      "ch": 1,
      "note": 36,
      "vel": 36,
      "dur": 25
    },
    {
      "t": 543.9,
      "ch": 7,
      "note": 36,
      "vel": 49,
      "dur": 80
    },
    {
      "t": 544,
      "ch": 1,
      "note": 38,
      "vel": 48,
      "dur": 25
    },
    {
      "t": 544.2,
      "ch": 1,
      "note": 40,
      "vel": 24,
      "dur": 25
    },
    {
      "t": 544.2,
      "ch": 7,
      "note": 48,
      "vel": 75,
      "dur": 80
    },
    {
      "t": 544.2,
      "ch": 7,
      "note": 36,
      "vel": 63,
      "dur": 80
    },
    {
      "t": 544.4,
      "ch": 1,
      "note": 42,
      "vel": 56,
      "dur": 25
    },
    {
      "t": 544.4,
      "ch": 7,
      "note": 45,
      "vel": 60,
      "dur": 80
    },
    {
      "t": 544.6,
      "ch": 1,
      "note": 36,
      "vel": 28,
      "dur": 25
    },
    {
      "t": 544.7,
      "ch": 1,
      "note": 38,
      "vel": 25,
      "dur": 25
    },
    {
      "t": 544.8,
      "ch": 4,
      "note": 70,
      "vel": 33,
      "dur": 5531
    },
    {
      "t": 544.8,
      "ch": 4,
      "note": 63,
      "vel": 34,
      "dur": 5531
    },
    {
      "t": 544.9,
      "ch": 1,
      "note": 40,
      "vel": 69,
      "dur": 25
    },
    {
      "t": 544.9,
      "ch": 7,
      "note": 48,
      "vel": 62,
      "dur": 80
    },
    {
      "t": 544.9,
      "ch": 7,
      "note": 36,
      "vel": 76,
      "dur": 80
    },
    {
      "t": 544.9,
      "ch": 5,
      "note": 70,
      "vel": 14,
      "dur": 985
    },
    {
      "t": 545.1,
      "ch": 1,
      "note": 42,
      "vel": 40,
      "dur": 25
    },
    {
      "t": 545.3,
      "ch": 1,
      "note": 36,
      "vel": 61,
      "dur": 25
    },
    {
      "t": 545.3,
      "ch": 7,
      "note": 45,
      "vel": 52,
      "dur": 80
    },
    {
      "t": 545.3,
      "ch": 7,
      "note": 36,
      "vel": 64,
      "dur": 80
    },
    {
      "t": 545.4,
      "ch": 1,
      "note": 38,
      "vel": 68,
      "dur": 25
    },
    {
      "t": 545.6,
      "ch": 1,
      "note": 40,
      "vel": 51,
      "dur": 25
    },
    {
      "t": 545.6,
      "ch": 7,
      "note": 48,
      "vel": 73,
      "dur": 80
    },
    {
      "t": 545.6,
      "ch": 7,
      "note": 36,
      "vel": 73,
      "dur": 80
    },
    {
      "t": 545.8,
      "ch": 1,
      "note": 42,
      "vel": 56,
      "dur": 25
    },
    {
      "t": 546,
      "ch": 1,
      "note": 36,
      "vel": 45,
      "dur": 25
    },
    {
      "t": 546.1,
      "ch": 1,
      "note": 38,
      "vel": 42,
      "dur": 25
    },
    {
      "t": 546.3,
      "ch": 1,
      "note": 40,
      "vel": 29,
      "dur": 25
    },
    {
      "t": 546.3,
      "ch": 7,
      "note": 48,
      "vel": 80,
      "dur": 80
    },
    {
      "t": 546.3,
      "ch": 7,
      "note": 45,
      "vel": 70,
      "dur": 80
    },
    {
      "t": 546.3,
      "ch": 7,
      "note": 36,
      "vel": 72,
      "dur": 80
    },
    {
      "t": 546.5,
      "ch": 1,
      "note": 42,
      "vel": 58,
      "dur": 25
    },
    {
      "t": 546.7,
      "ch": 1,
      "note": 36,
      "vel": 36,
      "dur": 25
    },
    {
      "t": 546.7,
      "ch": 7,
      "note": 36,
      "vel": 60,
      "dur": 80
    },
    {
      "t": 546.8,
      "ch": 1,
      "note": 38,
      "vel": 45,
      "dur": 25
    },
    {
      "t": 547,
      "ch": 1,
      "note": 40,
      "vel": 63,
      "dur": 25
    },
    {
      "t": 547,
      "ch": 7,
      "note": 48,
      "vel": 78,
      "dur": 80
    },
    {
      "t": 547,
      "ch": 7,
      "note": 36,
      "vel": 73,
      "dur": 80
    },
    {
      "t": 547.2,
      "ch": 1,
      "note": 42,
      "vel": 37,
      "dur": 25
    },
    {
      "t": 547.2,
      "ch": 7,
      "note": 45,
      "vel": 57,
      "dur": 80
    },
    {
      "t": 547.4,
      "ch": 1,
      "note": 36,
      "vel": 47,
      "dur": 25
    },
    {
      "t": 547.5,
      "ch": 1,
      "note": 38,
      "vel": 39,
      "dur": 25
    },
    {
      "t": 547.6,
      "ch": 2,
      "note": 56,
      "vel": 0,
      "dur": 0
    },
    {
      "t": 547.6,
      "ch": 2,
      "note": 58,
      "vel": 52,
      "dur": 20930
    },
    {
      "t": 547.6,
      "ch": 2,
      "note": 70,
      "vel": 36,
      "dur": 20930
    },
    {
      "t": 547.7,
      "ch": 1,
      "note": 40,
      "vel": 54,
      "dur": 25
    },
    {
      "t": 547.7,
      "ch": 7,
      "note": 48,
      "vel": 65,
      "dur": 80
    },
    {
      "t": 547.7,
      "ch": 7,
      "note": 36,
      "vel": 72,
      "dur": 80
    },
    {
      "t": 547.9,
      "ch": 1,
      "note": 42,
      "vel": 61,
      "dur": 25
    },
    {
      "t": 548.1,
      "ch": 1,
      "note": 36,
      "vel": 47,
      "dur": 25
    },
    {
      "t": 548.1,
      "ch": 7,
      "note": 45,
      "vel": 51,
      "dur": 80
    },
    {
      "t": 548.1,
      "ch": 7,
      "note": 36,
      "vel": 62,
      "dur": 80
    },
    {
      "t": 548.2,
      "ch": 1,
      "note": 38,
      "vel": 42,
      "dur": 25
    },
    {
      "t": 548.4,
      "ch": 1,
      "note": 40,
      "vel": 35,
      "dur": 25
    },
    {
      "t": 548.4,
      "ch": 7,
      "note": 48,
      "vel": 68,
      "dur": 80
    },
    {
      "t": 548.4,
      "ch": 7,
      "note": 36,
      "vel": 70,
      "dur": 80
    },
    {
      "t": 548.6,
      "ch": 1,
      "note": 42,
      "vel": 35,
      "dur": 25
    },
    {
      "t": 548.7,
      "ch": 1,
      "note": 36,
      "vel": 49,
      "dur": 25
    },
    {
      "t": 548.9,
      "ch": 1,
      "note": 38,
      "vel": 50,
      "dur": 25
    },
    {
      "t": 549.1,
      "ch": 1,
      "note": 40,
      "vel": 64,
      "dur": 25
    },
    {
      "t": 549.1,
      "ch": 7,
      "note": 48,
      "vel": 69,
      "dur": 80
    },
    {
      "t": 549.1,
      "ch": 7,
      "note": 45,
      "vel": 71,
      "dur": 80
    },
    {
      "t": 549.1,
      "ch": 7,
      "note": 36,
      "vel": 76,
      "dur": 80
    },
    {
      "t": 549.3,
      "ch": 1,
      "note": 42,
      "vel": 45,
      "dur": 25
    },
    {
      "t": 549.5,
      "ch": 1,
      "note": 36,
      "vel": 46,
      "dur": 25
    },
    {
      "t": 549.5,
      "ch": 7,
      "note": 36,
      "vel": 65,
      "dur": 80
    },
    {
      "t": 549.6,
      "ch": 1,
      "note": 38,
      "vel": 23,
      "dur": 25
    },
    {
      "t": 549.8,
      "ch": 1,
      "note": 40,
      "vel": 67,
      "dur": 25
    },
    {
      "t": 549.8,
      "ch": 7,
      "note": 48,
      "vel": 63,
      "dur": 80
    },
    {
      "t": 549.8,
      "ch": 7,
      "note": 36,
      "vel": 73,
      "dur": 80
    },
    {
      "t": 550,
      "ch": 1,
      "note": 42,
      "vel": 55,
      "dur": 25
    },
    {
      "t": 550,
      "ch": 7,
      "note": 45,
      "vel": 58,
      "dur": 80
    },
    {
      "t": 550.2,
      "ch": 1,
      "note": 36,
      "vel": 53,
      "dur": 25
    },
    {
      "t": 550.3,
      "ch": 1,
      "note": 38,
      "vel": 55,
      "dur": 25
    },
    {
      "t": 550.4,
      "ch": 4,
      "note": 65,
      "vel": 31,
      "dur": 5531
    },
    {
      "t": 550.4,
      "ch": 4,
      "note": 63,
      "vel": 31,
      "dur": 5531
    },
    {
      "t": 550.5,
      "ch": 1,
      "note": 40,
      "vel": 30,
      "dur": 25
    },
    {
      "t": 550.5,
      "ch": 7,
      "note": 48,
      "vel": 75,
      "dur": 80
    },
    {
      "t": 550.5,
      "ch": 7,
      "note": 36,
      "vel": 79,
      "dur": 80
    },
    {
      "t": 550.7,
      "ch": 1,
      "note": 42,
      "vel": 42,
      "dur": 25
    },
    {
      "t": 550.9,
      "ch": 1,
      "note": 36,
      "vel": 20,
      "dur": 25
    },
    {
      "t": 550.9,
      "ch": 7,
      "note": 45,
      "vel": 75,
      "dur": 80
    },
    {
      "t": 550.9,
      "ch": 7,
      "note": 36,
      "vel": 53,
      "dur": 80
    },
    {
      "t": 551,
      "ch": 1,
      "note": 38,
      "vel": 42,
      "dur": 25
    },
    {
      "t": 551.2,
      "ch": 1,
      "note": 40,
      "vel": 25,
      "dur": 25
    },
    {
      "t": 551.2,
      "ch": 7,
      "note": 48,
      "vel": 75,
      "dur": 80
    },
    {
      "t": 551.2,
      "ch": 7,
      "note": 36,
      "vel": 67,
      "dur": 80
    },
    {
      "t": 551.3,
      "ch": 1,
      "note": 42,
      "vel": 69,
      "dur": 25
    },
    {
      "t": 551.5,
      "ch": 1,
      "note": 36,
      "vel": 49,
      "dur": 25
    },
    {
      "t": 551.7,
      "ch": 1,
      "note": 38,
      "vel": 22,
      "dur": 25
    },
    {
      "t": 551.9,
      "ch": 1,
      "note": 40,
      "vel": 54,
      "dur": 25
    },
    {
      "t": 551.9,
      "ch": 7,
      "note": 48,
      "vel": 80,
      "dur": 80
    },
    {
      "t": 551.9,
      "ch": 7,
      "note": 45,
      "vel": 73,
      "dur": 80
    },
    {
      "t": 551.9,
      "ch": 7,
      "note": 36,
      "vel": 83,
      "dur": 80
    },
    {
      "t": 552.1,
      "ch": 1,
      "note": 42,
      "vel": 39,
      "dur": 25
    },
    {
      "t": 552.2,
      "ch": 1,
      "note": 36,
      "vel": 34,
      "dur": 25
    },
    {
      "t": 552.3,
      "ch": 7,
      "note": 36,
      "vel": 58,
      "dur": 80
    },
    {
      "t": 552.4,
      "ch": 1,
      "note": 38,
      "vel": 50,
      "dur": 25
    },
    {
      "t": 552.6,
      "ch": 1,
      "note": 40,
      "vel": 51,
      "dur": 25
    },
    {
      "t": 552.6,
      "ch": 7,
      "note": 48,
      "vel": 79,
      "dur": 80
    },
    {
      "t": 552.6,
      "ch": 7,
      "note": 36,
      "vel": 76,
      "dur": 80
    },
    {
      "t": 552.7,
      "ch": 1,
      "note": 42,
      "vel": 54,
      "dur": 25
    },
    {
      "t": 552.8,
      "ch": 7,
      "note": 45,
      "vel": 73,
      "dur": 80
    },
    {
      "t": 552.9,
      "ch": 1,
      "note": 36,
      "vel": 47,
      "dur": 25
    },
    {
      "t": 553.1,
      "ch": 1,
      "note": 38,
      "vel": 69,
      "dur": 25
    },
    {
      "t": 553.3,
      "ch": 1,
      "note": 40,
      "vel": 79,
      "dur": 25
    },
    {
      "t": 553.3,
      "ch": 7,
      "note": 48,
      "vel": 69,
      "dur": 80
    },
    {
      "t": 553.3,
      "ch": 7,
      "note": 36,
      "vel": 74,
      "dur": 80
    },
    {
      "t": 553.4,
      "ch": 1,
      "note": 42,
      "vel": 43,
      "dur": 25
    },
    {
      "t": 553.6,
      "ch": 1,
      "note": 36,
      "vel": 53,
      "dur": 25
    },
    {
      "t": 553.6,
      "ch": 7,
      "note": 45,
      "vel": 59,
      "dur": 80
    },
    {
      "t": 553.6,
      "ch": 7,
      "note": 36,
      "vel": 57,
      "dur": 80
    },
    {
      "t": 553.8,
      "ch": 1,
      "note": 38,
      "vel": 35,
      "dur": 25
    },
    {
      "t": 553.8,
      "ch": 5,
      "note": 77,
      "vel": 1,
      "dur": 1023
    },
    {
      "t": 554,
      "ch": 1,
      "note": 40,
      "vel": 54,
      "dur": 25
    },
    {
      "t": 554,
      "ch": 7,
      "note": 48,
      "vel": 77,
      "dur": 80
    },
    {
      "t": 554,
      "ch": 7,
      "note": 36,
      "vel": 74,
      "dur": 80
    },
    {
      "t": 554.1,
      "ch": 1,
      "note": 42,
      "vel": 73,
      "dur": 25
    },
    {
      "t": 554.3,
      "ch": 1,
      "note": 36,
      "vel": 32,
      "dur": 25
    },
    {
      "t": 554.5,
      "ch": 1,
      "note": 38,
      "vel": 27,
      "dur": 25
    },
    {
      "t": 554.7,
      "ch": 1,
      "note": 40,
      "vel": 65,
      "dur": 25
    },
    {
      "t": 554.7,
      "ch": 7,
      "note": 48,
      "vel": 74,
      "dur": 80
    },
    {
      "t": 554.7,
      "ch": 7,
      "note": 45,
      "vel": 64,
      "dur": 80
    },
    {
      "t": 554.7,
      "ch": 7,
      "note": 36,
      "vel": 74,
      "dur": 80
    },
    {
      "t": 554.8,
      "ch": 1,
      "note": 42,
      "vel": 40,
      "dur": 25
    },
    {
      "t": 554.9,
      "ch": 6,
      "note": 68,
      "vel": 27,
      "dur": 681
    },
    {
      "t": 555,
      "ch": 1,
      "note": 36,
      "vel": 20,
      "dur": 25
    },
    {
      "t": 555.1,
      "ch": 7,
      "note": 36,
      "vel": 66,
      "dur": 80
    },
    {
      "t": 555.2,
      "ch": 1,
      "note": 38,
      "vel": 49,
      "dur": 25
    },
    {
      "t": 555.4,
      "ch": 1,
      "note": 40,
      "vel": 62,
      "dur": 25
    },
    {
      "t": 555.4,
      "ch": 7,
      "note": 48,
      "vel": 74,
      "dur": 80
    },
    {
      "t": 555.4,
      "ch": 7,
      "note": 36,
      "vel": 72,
      "dur": 80
    },
    {
      "t": 555.5,
      "ch": 1,
      "note": 42,
      "vel": 70,
      "dur": 25
    },
    {
      "t": 555.6,
      "ch": 7,
      "note": 45,
      "vel": 59,
      "dur": 80
    },
    {
      "t": 555.7,
      "ch": 1,
      "note": 36,
      "vel": 53,
      "dur": 25
    },
    {
      "t": 555.9,
      "ch": 1,
      "note": 38,
      "vel": 21,
      "dur": 25
    },
    {
      "t": 556,
      "ch": 4,
      "note": 65,
      "vel": 30,
      "dur": 5531
    },
    {
      "t": 556,
      "ch": 4,
      "note": 63,
      "vel": 29,
      "dur": 5531
    },
    {
      "t": 556,
      "ch": 3,
      "note": 53,
      "vel": 33,
      "dur": 5581
    },
    {
      "t": 556.1,
      "ch": 1,
      "note": 40,
      "vel": 69,
      "dur": 25
    },
    {
      "t": 556.1,
      "ch": 7,
      "note": 48,
      "vel": 68,
      "dur": 80
    },
    {
      "t": 556.1,
      "ch": 7,
      "note": 36,
      "vel": 81,
      "dur": 80
    },
    {
      "t": 556.2,
      "ch": 1,
      "note": 42,
      "vel": 47,
      "dur": 25
    },
    {
      "t": 556.4,
      "ch": 1,
      "note": 36,
      "vel": 33,
      "dur": 25
    },
    {
      "t": 556.5,
      "ch": 7,
      "note": 45,
      "vel": 58,
      "dur": 80
    },
    {
      "t": 556.5,
      "ch": 7,
      "note": 36,
      "vel": 69,
      "dur": 80
    },
    {
      "t": 556.6,
      "ch": 1,
      "note": 38,
      "vel": 22,
      "dur": 25
    },
    {
      "t": 556.8,
      "ch": 1,
      "note": 40,
      "vel": 42,
      "dur": 25
    },
    {
      "t": 556.8,
      "ch": 7,
      "note": 48,
      "vel": 76,
      "dur": 80
    },
    {
      "t": 556.8,
      "ch": 7,
      "note": 36,
      "vel": 75,
      "dur": 80
    },
    {
      "t": 556.9,
      "ch": 1,
      "note": 42,
      "vel": 49,
      "dur": 25
    },
    {
      "t": 557.1,
      "ch": 1,
      "note": 36,
      "vel": 27,
      "dur": 25
    },
    {
      "t": 557.3,
      "ch": 1,
      "note": 38,
      "vel": 29,
      "dur": 25
    },
    {
      "t": 557.3,
      "ch": 5,
      "note": 78,
      "vel": 21,
      "dur": 1012
    },
    {
      "t": 557.5,
      "ch": 1,
      "note": 40,
      "vel": 56,
      "dur": 25
    },
    {
      "t": 557.5,
      "ch": 7,
      "note": 48,
      "vel": 63,
      "dur": 80
    },
    {
      "t": 557.5,
      "ch": 7,
      "note": 45,
      "vel": 67,
      "dur": 80
    },
    {
      "t": 557.5,
      "ch": 7,
      "note": 36,
      "vel": 71,
      "dur": 80
    },
    {
      "t": 557.6,
      "ch": 1,
      "note": 42,
      "vel": 34,
      "dur": 25
    },
    {
      "t": 557.8,
      "ch": 1,
      "note": 36,
      "vel": 55,
      "dur": 25
    },
    {
      "t": 557.8,
      "ch": 7,
      "note": 36,
      "vel": 62,
      "dur": 80
    },
    {
      "t": 558,
      "ch": 1,
      "note": 38,
      "vel": 43,
      "dur": 25
    },
    {
      "t": 558.2,
      "ch": 1,
      "note": 40,
      "vel": 53,
      "dur": 25
    },
    {
      "t": 558.2,
      "ch": 7,
      "note": 48,
      "vel": 70,
      "dur": 80
    },
    {
      "t": 558.2,
      "ch": 7,
      "note": 36,
      "vel": 82,
      "dur": 80
    },
    {
      "t": 558.3,
      "ch": 1,
      "note": 42,
      "vel": 36,
      "dur": 25
    },
    {
      "t": 558.4,
      "ch": 7,
      "note": 45,
      "vel": 52,
      "dur": 80
    },
    {
      "t": 558.5,
      "ch": 1,
      "note": 36,
      "vel": 45,
      "dur": 25
    },
    {
      "t": 558.7,
      "ch": 1,
      "note": 38,
      "vel": 63,
      "dur": 25
    },
    {
      "t": 558.9,
      "ch": 1,
      "note": 40,
      "vel": 57,
      "dur": 25
    },
    {
      "t": 558.9,
      "ch": 7,
      "note": 48,
      "vel": 70,
      "dur": 80
    },
    {
      "t": 558.9,
      "ch": 7,
      "note": 36,
      "vel": 74,
      "dur": 80
    },
    {
      "t": 559,
      "ch": 1,
      "note": 42,
      "vel": 78,
      "dur": 25
    },
    {
      "t": 559.2,
      "ch": 1,
      "note": 36,
      "vel": 23,
      "dur": 25
    },
    {
      "t": 559.2,
      "ch": 7,
      "note": 45,
      "vel": 56,
      "dur": 80
    },
    {
      "t": 559.2,
      "ch": 7,
      "note": 36,
      "vel": 76,
      "dur": 80
    },
    {
      "t": 559.4,
      "ch": 1,
      "note": 38,
      "vel": 37,
      "dur": 25
    },
    {
      "t": 559.6,
      "ch": 1,
      "note": 40,
      "vel": 68,
      "dur": 25
    },
    {
      "t": 559.6,
      "ch": 7,
      "note": 48,
      "vel": 71,
      "dur": 80
    },
    {
      "t": 559.6,
      "ch": 7,
      "note": 36,
      "vel": 60,
      "dur": 80
    },
    {
      "t": 559.6,
      "ch": 5,
      "note": 75,
      "vel": 16,
      "dur": 998
    },
    {
      "t": 559.7,
      "ch": 1,
      "note": 42,
      "vel": 35,
      "dur": 25
    },
    {
      "t": 559.9,
      "ch": 1,
      "note": 36,
      "vel": 46,
      "dur": 25
    },
    {
      "t": 560.1,
      "ch": 1,
      "note": 38,
      "vel": 47,
      "dur": 25
    },
    {
      "t": 560.3,
      "ch": 0,
      "note": 36,
      "vel": 127,
      "dur": 55
    },
    {
      "t": 560.3,
      "ch": 1,
      "note": 40,
      "vel": 52,
      "dur": 25
    },
    {
      "t": 560.3,
      "ch": 7,
      "note": 48,
      "vel": 73,
      "dur": 80
    },
    {
      "t": 560.3,
      "ch": 7,
      "note": 45,
      "vel": 72,
      "dur": 80
    },
    {
      "t": 560.3,
      "ch": 7,
      "note": 36,
      "vel": 77,
      "dur": 80
    },
    {
      "t": 560.3,
      "ch": 6,
      "note": 61,
      "vel": 1,
      "dur": 662
    },
    {
      "t": 560.4,
      "ch": 1,
      "note": 42,
      "vel": 41,
      "dur": 25
    },
    {
      "t": 560.6,
      "ch": 1,
      "note": 36,
      "vel": 30,
      "dur": 25
    },
    {
      "t": 560.6,
      "ch": 7,
      "note": 36,
      "vel": 57,
      "dur": 80
    },
    {
      "t": 560.8,
      "ch": 1,
      "note": 38,
      "vel": 43,
      "dur": 25
    },
    {
      "t": 561,
      "ch": 1,
      "note": 40,
      "vel": 59,
      "dur": 25
    },
    {
      "t": 561,
      "ch": 7,
      "note": 48,
      "vel": 57,
      "dur": 80
    },
    {
      "t": 561,
      "ch": 7,
      "note": 36,
      "vel": 77,
      "dur": 80
    },
    {
      "t": 561.1,
      "ch": 1,
      "note": 42,
      "vel": 41,
      "dur": 25
    },
    {
      "t": 561.2,
      "ch": 7,
      "note": 45,
      "vel": 65,
      "dur": 80
    },
    {
      "t": 561.2,
      "ch": 5,
      "note": 78,
      "vel": 12,
      "dur": 988
    },
    {
      "t": 561.3,
      "ch": 1,
      "note": 36,
      "vel": 36,
      "dur": 25
    },
    {
      "t": 561.5,
      "ch": 1,
      "note": 38,
      "vel": 47,
      "dur": 25
    },
    {
      "t": 561.6,
      "ch": 4,
      "note": 63,
      "vel": 34,
      "dur": 5531
    },
    {
      "t": 561.6,
      "ch": 4,
      "note": 60,
      "vel": 35,
      "dur": 5531
    },
    {
      "t": 561.6,
      "ch": 3,
      "note": 44,
      "vel": 52,
      "dur": 5581
    },
    {
      "t": 561.7,
      "ch": 0,
      "note": 36,
      "vel": 90,
      "dur": 55
    },
    {
      "t": 561.7,
      "ch": 1,
      "note": 40,
      "vel": 58,
      "dur": 25
    },
    {
      "t": 561.7,
      "ch": 7,
      "note": 48,
      "vel": 75,
      "dur": 80
    },
    {
      "t": 561.7,
      "ch": 7,
      "note": 36,
      "vel": 66,
      "dur": 80
    },
    {
      "t": 561.8,
      "ch": 1,
      "note": 42,
      "vel": 38,
      "dur": 25
    },
    {
      "t": 562,
      "ch": 1,
      "note": 36,
      "vel": 61,
      "dur": 25
    },
    {
      "t": 562,
      "ch": 7,
      "note": 45,
      "vel": 52,
      "dur": 80
    },
    {
      "t": 562,
      "ch": 7,
      "note": 36,
      "vel": 63,
      "dur": 80
    },
    {
      "t": 562,
      "ch": 5,
      "note": 70,
      "vel": 15,
      "dur": 983
    },
    {
      "t": 562.2,
      "ch": 1,
      "note": 38,
      "vel": 31,
      "dur": 25
    },
    {
      "t": 562.4,
      "ch": 1,
      "note": 40,
      "vel": 58,
      "dur": 25
    },
    {
      "t": 562.4,
      "ch": 7,
      "note": 48,
      "vel": 77,
      "dur": 80
    },
    {
      "t": 562.4,
      "ch": 7,
      "note": 36,
      "vel": 71,
      "dur": 80
    },
    {
      "t": 562.5,
      "ch": 1,
      "note": 42,
      "vel": 31,
      "dur": 25
    },
    {
      "t": 562.7,
      "ch": 1,
      "note": 36,
      "vel": 48,
      "dur": 25
    },
    {
      "t": 562.7,
      "ch": 6,
      "note": 68,
      "vel": 37,
      "dur": 653
    },
    {
      "t": 562.9,
      "ch": 1,
      "note": 38,
      "vel": 34,
      "dur": 25
    },
    {
      "t": 562.9,
      "ch": 5,
      "note": 77,
      "vel": 1,
      "dur": 979
    },
    {
      "t": 563.1,
      "ch": 1,
      "note": 40,
      "vel": 60,
      "dur": 25
    },
    {
      "t": 563.1,
      "ch": 7,
      "note": 48,
      "vel": 79,
      "dur": 80
    },
    {
      "t": 563.1,
      "ch": 7,
      "note": 45,
      "vel": 79,
      "dur": 80
    },
    {
      "t": 563.1,
      "ch": 7,
      "note": 36,
      "vel": 61,
      "dur": 80
    },
    {
      "t": 563.2,
      "ch": 1,
      "note": 42,
      "vel": 32,
      "dur": 25
    },
    {
      "t": 563.4,
      "ch": 1,
      "note": 36,
      "vel": 67,
      "dur": 25
    },
    {
      "t": 563.4,
      "ch": 7,
      "note": 36,
      "vel": 55,
      "dur": 80
    },
    {
      "t": 563.6,
      "ch": 1,
      "note": 38,
      "vel": 62,
      "dur": 25
    },
    {
      "t": 563.8,
      "ch": 1,
      "note": 40,
      "vel": 77,
      "dur": 25
    },
    {
      "t": 563.8,
      "ch": 7,
      "note": 48,
      "vel": 66,
      "dur": 80
    },
    {
      "t": 563.8,
      "ch": 7,
      "note": 36,
      "vel": 72,
      "dur": 80
    },
    {
      "t": 563.9,
      "ch": 1,
      "note": 42,
      "vel": 66,
      "dur": 25
    },
    {
      "t": 563.9,
      "ch": 7,
      "note": 45,
      "vel": 58,
      "dur": 80
    },
    {
      "t": 563.9,
      "ch": 7,
      "note": 38,
      "vel": 56,
      "dur": 80
    },
    {
      "t": 564.1,
      "ch": 1,
      "note": 36,
      "vel": 56,
      "dur": 25
    },
    {
      "t": 564.1,
      "ch": 6,
      "note": 73,
      "vel": 7,
      "dur": 650
    },
    {
      "t": 564.3,
      "ch": 1,
      "note": 38,
      "vel": 65,
      "dur": 25
    },
    {
      "t": 564.5,
      "ch": 1,
      "note": 40,
      "vel": 79,
      "dur": 25
    },
    {
      "t": 564.5,
      "ch": 7,
      "note": 48,
      "vel": 79,
      "dur": 80
    },
    {
      "t": 564.5,
      "ch": 7,
      "note": 36,
      "vel": 74,
      "dur": 80
    },
    {
      "t": 564.6,
      "ch": 1,
      "note": 42,
      "vel": 84,
      "dur": 25
    },
    {
      "t": 564.7,
      "ch": 5,
      "note": 78,
      "vel": 13,
      "dur": 975
    },
    {
      "t": 564.8,
      "ch": 1,
      "note": 36,
      "vel": 52,
      "dur": 25
    },
    {
      "t": 564.8,
      "ch": 7,
      "note": 45,
      "vel": 64,
      "dur": 80
    },
    {
      "t": 564.8,
      "ch": 7,
      "note": 36,
      "vel": 64,
      "dur": 80
    },
    {
      "t": 564.8,
      "ch": 7,
      "note": 38,
      "vel": 58,
      "dur": 80
    },
    {
      "t": 564.9,
      "ch": 1,
      "note": 38,
      "vel": 74,
      "dur": 25
    },
    {
      "t": 565.2,
      "ch": 1,
      "note": 40,
      "vel": 63,
      "dur": 25
    },
    {
      "t": 565.2,
      "ch": 7,
      "note": 48,
      "vel": 67,
      "dur": 80
    },
    {
      "t": 565.2,
      "ch": 7,
      "note": 36,
      "vel": 71,
      "dur": 80
    },
    {
      "t": 565.3,
      "ch": 1,
      "note": 42,
      "vel": 71,
      "dur": 25
    },
    {
      "t": 565.4,
      "ch": 5,
      "note": 75,
      "vel": 10,
      "dur": 974
    },
    {
      "t": 565.5,
      "ch": 1,
      "note": 36,
      "vel": 48,
      "dur": 25
    },
    {
      "t": 565.7,
      "ch": 1,
      "note": 38,
      "vel": 58,
      "dur": 25
    },
    {
      "t": 565.9,
      "ch": 0,
      "note": 36,
      "vel": 108,
      "dur": 55
    },
    {
      "t": 565.9,
      "ch": 1,
      "note": 40,
      "vel": 67,
      "dur": 25
    },
    {
      "t": 565.9,
      "ch": 7,
      "note": 48,
      "vel": 82,
      "dur": 80
    },
    {
      "t": 565.9,
      "ch": 7,
      "note": 45,
      "vel": 59,
      "dur": 80
    },
    {
      "t": 565.9,
      "ch": 7,
      "note": 36,
      "vel": 73,
      "dur": 80
    },
    {
      "t": 565.9,
      "ch": 7,
      "note": 38,
      "vel": 76,
      "dur": 80
    },
    {
      "t": 566,
      "ch": 1,
      "note": 42,
      "vel": 78,
      "dur": 25
    },
    {
      "t": 566,
      "ch": 6,
      "note": 80,
      "vel": 38,
      "dur": 650
    },
    {
      "t": 566.2,
      "ch": 1,
      "note": 36,
      "vel": 45,
      "dur": 25
    },
    {
      "t": 566.2,
      "ch": 7,
      "note": 36,
      "vel": 53,
      "dur": 80
    },
    {
      "t": 566.4,
      "ch": 1,
      "note": 38,
      "vel": 81,
      "dur": 25
    },
    {
      "t": 566.6,
      "ch": 1,
      "note": 40,
      "vel": 51,
      "dur": 25
    },
    {
      "t": 566.6,
      "ch": 7,
      "note": 48,
      "vel": 73,
      "dur": 80
    },
    {
      "t": 566.6,
      "ch": 7,
      "note": 36,
      "vel": 80,
      "dur": 80
    },
    {
      "t": 566.7,
      "ch": 1,
      "note": 42,
      "vel": 58,
      "dur": 25
    },
    {
      "t": 566.7,
      "ch": 7,
      "note": 45,
      "vel": 62,
      "dur": 80
    },
    {
      "t": 566.7,
      "ch": 7,
      "note": 38,
      "vel": 69,
      "dur": 80
    },
    {
      "t": 566.9,
      "ch": 1,
      "note": 36,
      "vel": 69,
      "dur": 25
    },
    {
      "t": 566.9,
      "ch": 0,
      "note": 36,
      "vel": 81,
      "dur": 55
    },
    {
      "t": 567,
      "ch": 1,
      "note": 38,
      "vel": 61,
      "dur": 25
    },
    {
      "t": 567.2,
      "ch": 4,
      "note": 65,
      "vel": 34,
      "dur": 5531
    },
    {
      "t": 567.2,
      "ch": 4,
      "note": 68,
      "vel": 50,
      "dur": 5531
    },
    {
      "t": 567.2,
      "ch": 3,
      "note": 46,
      "vel": 38,
      "dur": 5581
    },
    {
      "t": 567.2,
      "ch": 1,
      "note": 40,
      "vel": 79,
      "dur": 25
    },
    {
      "t": 567.2,
      "ch": 7,
      "note": 48,
      "vel": 69,
      "dur": 80
    },
    {
      "t": 567.2,
      "ch": 7,
      "note": 36,
      "vel": 70,
      "dur": 80
    },
    {
      "t": 567.4,
      "ch": 1,
      "note": 42,
      "vel": 60,
      "dur": 25
    },
    {
      "t": 567.6,
      "ch": 1,
      "note": 36,
      "vel": 69,
      "dur": 25
    },
    {
      "t": 567.6,
      "ch": 7,
      "note": 45,
      "vel": 50,
      "dur": 80
    },
    {
      "t": 567.6,
      "ch": 7,
      "note": 36,
      "vel": 49,
      "dur": 80
    },
    {
      "t": 567.6,
      "ch": 7,
      "note": 38,
      "vel": 58,
      "dur": 80
    },
    {
      "t": 567.7,
      "ch": 1,
      "note": 38,
      "vel": 32,
      "dur": 25
    },
    {
      "t": 567.9,
      "ch": 1,
      "note": 40,
      "vel": 62,
      "dur": 25
    },
    {
      "t": 567.9,
      "ch": 7,
      "note": 48,
      "vel": 68,
      "dur": 80
    },
    {
      "t": 567.9,
      "ch": 7,
      "note": 36,
      "vel": 72,
      "dur": 80
    },
    {
      "t": 568.1,
      "ch": 1,
      "note": 42,
      "vel": 50,
      "dur": 25
    },
    {
      "t": 568.3,
      "ch": 1,
      "note": 36,
      "vel": 55,
      "dur": 25
    },
    {
      "t": 568.4,
      "ch": 1,
      "note": 38,
      "vel": 37,
      "dur": 25
    },
    {
      "t": 568.6,
      "ch": 1,
      "note": 40,
      "vel": 60,
      "dur": 25
    },
    {
      "t": 568.6,
      "ch": 7,
      "note": 48,
      "vel": 71,
      "dur": 80
    },
    {
      "t": 568.6,
      "ch": 7,
      "note": 45,
      "vel": 65,
      "dur": 80
    },
    {
      "t": 568.6,
      "ch": 7,
      "note": 36,
      "vel": 75,
      "dur": 80
    },
    {
      "t": 568.6,
      "ch": 7,
      "note": 38,
      "vel": 63,
      "dur": 80
    },
    {
      "t": 568.8,
      "ch": 1,
      "note": 42,
      "vel": 36,
      "dur": 25
    },
    {
      "t": 568.8,
      "ch": 5,
      "note": 78,
      "vel": 16,
      "dur": 984
    },
    {
      "t": 569,
      "ch": 1,
      "note": 36,
      "vel": 42,
      "dur": 25
    },
    {
      "t": 569,
      "ch": 7,
      "note": 36,
      "vel": 56,
      "dur": 80
    },
    {
      "t": 569.1,
      "ch": 1,
      "note": 38,
      "vel": 53,
      "dur": 25
    },
    {
      "t": 569.3,
      "ch": 1,
      "note": 40,
      "vel": 50,
      "dur": 25
    },
    {
      "t": 569.3,
      "ch": 7,
      "note": 48,
      "vel": 66,
      "dur": 80
    },
    {
      "t": 569.3,
      "ch": 7,
      "note": 36,
      "vel": 70,
      "dur": 80
    },
    {
      "t": 569.5,
      "ch": 1,
      "note": 42,
      "vel": 54,
      "dur": 25
    },
    {
      "t": 569.5,
      "ch": 7,
      "note": 45,
      "vel": 61,
      "dur": 80
    },
    {
      "t": 569.5,
      "ch": 7,
      "note": 38,
      "vel": 62,
      "dur": 80
    },
    {
      "t": 569.7,
      "ch": 1,
      "note": 36,
      "vel": 50,
      "dur": 25
    },
    {
      "t": 569.8,
      "ch": 1,
      "note": 38,
      "vel": 34,
      "dur": 25
    },
    {
      "t": 570,
      "ch": 2,
      "note": 58,
      "vel": 53,
      "dur": 20930
    },
    {
      "t": 570,
      "ch": 1,
      "note": 40,
      "vel": 39,
      "dur": 25
    },
    {
      "t": 570,
      "ch": 7,
      "note": 48,
      "vel": 70,
      "dur": 80
    },
    {
      "t": 570,
      "ch": 7,
      "note": 36,
      "vel": 74,
      "dur": 80
    },
    {
      "t": 570.2,
      "ch": 1,
      "note": 42,
      "vel": 58,
      "dur": 25
    },
    {
      "t": 570.4,
      "ch": 1,
      "note": 36,
      "vel": 64,
      "dur": 25
    },
    {
      "t": 570.4,
      "ch": 7,
      "note": 45,
      "vel": 59,
      "dur": 80
    },
    {
      "t": 570.4,
      "ch": 7,
      "note": 36,
      "vel": 60,
      "dur": 80
    },
    {
      "t": 570.4,
      "ch": 7,
      "note": 38,
      "vel": 53,
      "dur": 80
    },
    {
      "t": 570.5,
      "ch": 1,
      "note": 38,
      "vel": 35,
      "dur": 25
    },
    {
      "t": 570.7,
      "ch": 1,
      "note": 40,
      "vel": 51,
      "dur": 25
    },
    {
      "t": 570.7,
      "ch": 7,
      "note": 48,
      "vel": 64,
      "dur": 80
    },
    {
      "t": 570.7,
      "ch": 7,
      "note": 36,
      "vel": 71,
      "dur": 80
    },
    {
      "t": 570.9,
      "ch": 1,
      "note": 42,
      "vel": 44,
      "dur": 25
    },
    {
      "t": 571.1,
      "ch": 1,
      "note": 36,
      "vel": 37,
      "dur": 25
    },
    {
      "t": 571.2,
      "ch": 1,
      "note": 38,
      "vel": 36,
      "dur": 25
    },
    {
      "t": 571.4,
      "ch": 0,
      "note": 36,
      "vel": 108,
      "dur": 55
    },
    {
      "t": 571.4,
      "ch": 1,
      "note": 40,
      "vel": 58,
      "dur": 25
    },
    {
      "t": 571.4,
      "ch": 7,
      "note": 48,
      "vel": 61,
      "dur": 80
    },
    {
      "t": 571.4,
      "ch": 7,
      "note": 45,
      "vel": 68,
      "dur": 80
    },
    {
      "t": 571.4,
      "ch": 7,
      "note": 36,
      "vel": 73,
      "dur": 80
    },
    {
      "t": 571.4,
      "ch": 7,
      "note": 38,
      "vel": 71,
      "dur": 80
    },
    {
      "t": 571.6,
      "ch": 1,
      "note": 42,
      "vel": 71,
      "dur": 25
    },
    {
      "t": 571.8,
      "ch": 1,
      "note": 36,
      "vel": 36,
      "dur": 25
    },
    {
      "t": 571.8,
      "ch": 7,
      "note": 36,
      "vel": 53,
      "dur": 80
    },
    {
      "t": 571.9,
      "ch": 1,
      "note": 38,
      "vel": 40,
      "dur": 25
    },
    {
      "t": 572.1,
      "ch": 1,
      "note": 40,
      "vel": 75,
      "dur": 25
    },
    {
      "t": 572.1,
      "ch": 7,
      "note": 48,
      "vel": 70,
      "dur": 80
    },
    {
      "t": 572.1,
      "ch": 7,
      "note": 36,
      "vel": 57,
      "dur": 80
    },
    {
      "t": 572.3,
      "ch": 1,
      "note": 42,
      "vel": 31,
      "dur": 25
    },
    {
      "t": 572.3,
      "ch": 7,
      "note": 45,
      "vel": 59,
      "dur": 80
    },
    {
      "t": 572.3,
      "ch": 7,
      "note": 38,
      "vel": 64,
      "dur": 80
    },
    {
      "t": 572.5,
      "ch": 1,
      "note": 36,
      "vel": 50,
      "dur": 25
    },
    {
      "t": 572.6,
      "ch": 1,
      "note": 38,
      "vel": 53,
      "dur": 25
    },
    {
      "t": 572.7,
      "ch": 4,
      "note": 65,
      "vel": 32,
      "dur": 5531
    },
    {
      "t": 572.7,
      "ch": 4,
      "note": 70,
      "vel": 32,
      "dur": 5531
    },
    {
      "t": 572.7,
      "ch": 3,
      "note": 46,
      "vel": 35,
      "dur": 5581
    },
    {
      "t": 572.8,
      "ch": 0,
      "note": 36,
      "vel": 89,
      "dur": 55
    },
    {
      "t": 572.8,
      "ch": 1,
      "note": 40,
      "vel": 32,
      "dur": 25
    },
    {
      "t": 572.8,
      "ch": 7,
      "note": 48,
      "vel": 66,
      "dur": 80
    },
    {
      "t": 572.8,
      "ch": 7,
      "note": 36,
      "vel": 77,
      "dur": 80
    },
    {
      "t": 573,
      "ch": 1,
      "note": 42,
      "vel": 39,
      "dur": 25
    },
    {
      "t": 573.2,
      "ch": 1,
      "note": 36,
      "vel": 27,
      "dur": 25
    },
    {
      "t": 573.2,
      "ch": 7,
      "note": 45,
      "vel": 60,
      "dur": 80
    },
    {
      "t": 573.2,
      "ch": 7,
      "note": 36,
      "vel": 58,
      "dur": 80
    },
    {
      "t": 573.3,
      "ch": 1,
      "note": 38,
      "vel": 29,
      "dur": 25
    },
    {
      "t": 573.5,
      "ch": 1,
      "note": 40,
      "vel": 37,
      "dur": 25
    },
    {
      "t": 573.5,
      "ch": 7,
      "note": 48,
      "vel": 75,
      "dur": 80
    },
    {
      "t": 573.5,
      "ch": 7,
      "note": 36,
      "vel": 72,
      "dur": 80
    },
    {
      "t": 573.7,
      "ch": 1,
      "note": 42,
      "vel": 36,
      "dur": 25
    },
    {
      "t": 573.9,
      "ch": 1,
      "note": 36,
      "vel": 33,
      "dur": 25
    },
    {
      "t": 574,
      "ch": 1,
      "note": 38,
      "vel": 44,
      "dur": 25
    },
    {
      "t": 574.2,
      "ch": 1,
      "note": 40,
      "vel": 64,
      "dur": 25
    },
    {
      "t": 574.2,
      "ch": 7,
      "note": 48,
      "vel": 68,
      "dur": 80
    },
    {
      "t": 574.2,
      "ch": 7,
      "note": 45,
      "vel": 76,
      "dur": 80
    },
    {
      "t": 574.2,
      "ch": 7,
      "note": 36,
      "vel": 65,
      "dur": 80
    },
    {
      "t": 574.4,
      "ch": 1,
      "note": 42,
      "vel": 49,
      "dur": 25
    },
    {
      "t": 574.6,
      "ch": 1,
      "note": 36,
      "vel": 54,
      "dur": 25
    },
    {
      "t": 574.6,
      "ch": 7,
      "note": 36,
      "vel": 54,
      "dur": 80
    },
    {
      "t": 574.7,
      "ch": 1,
      "note": 38,
      "vel": 35,
      "dur": 25
    },
    {
      "t": 574.9,
      "ch": 1,
      "note": 40,
      "vel": 65,
      "dur": 25
    },
    {
      "t": 574.9,
      "ch": 7,
      "note": 48,
      "vel": 83,
      "dur": 80
    },
    {
      "t": 574.9,
      "ch": 7,
      "note": 36,
      "vel": 78,
      "dur": 80
    },
    {
      "t": 575.1,
      "ch": 1,
      "note": 42,
      "vel": 38,
      "dur": 25
    },
    {
      "t": 575.1,
      "ch": 7,
      "note": 45,
      "vel": 64,
      "dur": 80
    },
    {
      "t": 575.3,
      "ch": 1,
      "note": 36,
      "vel": 35,
      "dur": 25
    },
    {
      "t": 575.4,
      "ch": 1,
      "note": 38,
      "vel": 32,
      "dur": 25
    },
    {
      "t": 575.6,
      "ch": 1,
      "note": 40,
      "vel": 37,
      "dur": 25
    },
    {
      "t": 575.6,
      "ch": 7,
      "note": 48,
      "vel": 76,
      "dur": 80
    },
    {
      "t": 575.6,
      "ch": 7,
      "note": 36,
      "vel": 67,
      "dur": 80
    },
    {
      "t": 575.8,
      "ch": 1,
      "note": 42,
      "vel": 65,
      "dur": 25
    },
    {
      "t": 576,
      "ch": 1,
      "note": 36,
      "vel": 45,
      "dur": 25
    },
    {
      "t": 576,
      "ch": 7,
      "note": 45,
      "vel": 63,
      "dur": 80
    },
    {
      "t": 576,
      "ch": 7,
      "note": 36,
      "vel": 66,
      "dur": 80
    },
    {
      "t": 576.1,
      "ch": 1,
      "note": 38,
      "vel": 40,
      "dur": 25
    },
    {
      "t": 576.3,
      "ch": 1,
      "note": 40,
      "vel": 48,
      "dur": 25
    },
    {
      "t": 576.3,
      "ch": 7,
      "note": 48,
      "vel": 78,
      "dur": 80
    },
    {
      "t": 576.3,
      "ch": 7,
      "note": 36,
      "vel": 81,
      "dur": 80
    },
    {
      "t": 576.5,
      "ch": 1,
      "note": 42,
      "vel": 33,
      "dur": 25
    },
    {
      "t": 576.7,
      "ch": 1,
      "note": 36,
      "vel": 35,
      "dur": 25
    },
    {
      "t": 576.8,
      "ch": 1,
      "note": 38,
      "vel": 53,
      "dur": 25
    },
    {
      "t": 577,
      "ch": 1,
      "note": 40,
      "vel": 37,
      "dur": 25
    },
    {
      "t": 577,
      "ch": 7,
      "note": 48,
      "vel": 58,
      "dur": 80
    },
    {
      "t": 577,
      "ch": 7,
      "note": 45,
      "vel": 70,
      "dur": 80
    },
    {
      "t": 577,
      "ch": 7,
      "note": 36,
      "vel": 68,
      "dur": 80
    },
    {
      "t": 577.2,
      "ch": 1,
      "note": 42,
      "vel": 62,
      "dur": 25
    },
    {
      "t": 577.2,
      "ch": 5,
      "note": 70,
      "vel": 20,
      "dur": 1016
    },
    {
      "t": 577.4,
      "ch": 1,
      "note": 36,
      "vel": 37,
      "dur": 25
    },
    {
      "t": 577.4,
      "ch": 7,
      "note": 36,
      "vel": 65,
      "dur": 80
    },
    {
      "t": 577.4,
      "ch": 5,
      "note": 77,
      "vel": 1,
      "dur": 1016
    },
    {
      "t": 577.5,
      "ch": 1,
      "note": 38,
      "vel": 32,
      "dur": 25
    },
    {
      "t": 577.7,
      "ch": 1,
      "note": 40,
      "vel": 57,
      "dur": 25
    },
    {
      "t": 577.7,
      "ch": 7,
      "note": 48,
      "vel": 69,
      "dur": 80
    },
    {
      "t": 577.7,
      "ch": 7,
      "note": 36,
      "vel": 84,
      "dur": 80
    },
    {
      "t": 577.9,
      "ch": 1,
      "note": 42,
      "vel": 37,
      "dur": 25
    },
    {
      "t": 577.9,
      "ch": 7,
      "note": 45,
      "vel": 60,
      "dur": 80
    },
    {
      "t": 578.1,
      "ch": 1,
      "note": 36,
      "vel": 41,
      "dur": 25
    },
    {
      "t": 578.2,
      "ch": 1,
      "note": 38,
      "vel": 48,
      "dur": 25
    },
    {
      "t": 578.3,
      "ch": 4,
      "note": 65,
      "vel": 32,
      "dur": 5531
    },
    {
      "t": 578.3,
      "ch": 4,
      "note": 63,
      "vel": 30,
      "dur": 5531
    },
    {
      "t": 578.3,
      "ch": 3,
      "note": 41,
      "vel": 34,
      "dur": 5581
    },
    {
      "t": 578.4,
      "ch": 1,
      "note": 40,
      "vel": 64,
      "dur": 25
    },
    {
      "t": 578.4,
      "ch": 7,
      "note": 48,
      "vel": 75,
      "dur": 80
    },
    {
      "t": 578.4,
      "ch": 7,
      "note": 36,
      "vel": 66,
      "dur": 80
    },
    {
      "t": 578.6,
      "ch": 1,
      "note": 42,
      "vel": 29,
      "dur": 25
    },
    {
      "t": 578.7,
      "ch": 1,
      "note": 36,
      "vel": 50,
      "dur": 25
    },
    {
      "t": 578.8,
      "ch": 7,
      "note": 45,
      "vel": 70,
      "dur": 80
    },
    {
      "t": 578.8,
      "ch": 7,
      "note": 36,
      "vel": 65,
      "dur": 80
    },
    {
      "t": 578.9,
      "ch": 1,
      "note": 38,
      "vel": 45,
      "dur": 25
    },
    {
      "t": 579.1,
      "ch": 1,
      "note": 40,
      "vel": 60,
      "dur": 25
    },
    {
      "t": 579.1,
      "ch": 7,
      "note": 48,
      "vel": 73,
      "dur": 80
    },
    {
      "t": 579.1,
      "ch": 7,
      "note": 36,
      "vel": 67,
      "dur": 80
    },
    {
      "t": 579.3,
      "ch": 1,
      "note": 42,
      "vel": 59,
      "dur": 25
    },
    {
      "t": 579.3,
      "ch": 5,
      "note": 78,
      "vel": 7,
      "dur": 1011
    },
    {
      "t": 579.5,
      "ch": 1,
      "note": 36,
      "vel": 48,
      "dur": 25
    },
    {
      "t": 579.6,
      "ch": 1,
      "note": 38,
      "vel": 36,
      "dur": 25
    },
    {
      "t": 579.8,
      "ch": 1,
      "note": 40,
      "vel": 66,
      "dur": 25
    },
    {
      "t": 579.8,
      "ch": 7,
      "note": 48,
      "vel": 80,
      "dur": 80
    },
    {
      "t": 579.8,
      "ch": 7,
      "note": 45,
      "vel": 85,
      "dur": 80
    },
    {
      "t": 579.8,
      "ch": 7,
      "note": 36,
      "vel": 70,
      "dur": 80
    },
    {
      "t": 580,
      "ch": 1,
      "note": 42,
      "vel": 72,
      "dur": 25
    },
    {
      "t": 580.2,
      "ch": 1,
      "note": 36,
      "vel": 47,
      "dur": 25
    },
    {
      "t": 580.2,
      "ch": 7,
      "note": 36,
      "vel": 68,
      "dur": 80
    },
    {
      "t": 580.3,
      "ch": 1,
      "note": 38,
      "vel": 56,
      "dur": 25
    },
    {
      "t": 580.3,
      "ch": 5,
      "note": 75,
      "vel": 22,
      "dur": 1005
    },
    {
      "t": 580.5,
      "ch": 1,
      "note": 40,
      "vel": 78,
      "dur": 25
    },
    {
      "t": 580.5,
      "ch": 7,
      "note": 48,
      "vel": 64,
      "dur": 80
    },
    {
      "t": 580.5,
      "ch": 7,
      "note": 36,
      "vel": 77,
      "dur": 80
    },
    {
      "t": 580.6,
      "ch": 1,
      "note": 42,
      "vel": 63,
      "dur": 25
    },
    {
      "t": 580.7,
      "ch": 7,
      "note": 45,
      "vel": 67,
      "dur": 80
    },
    {
      "t": 580.9,
      "ch": 1,
      "note": 36,
      "vel": 73,
      "dur": 25
    },
    {
      "t": 581,
      "ch": 1,
      "note": 38,
      "vel": 56,
      "dur": 25
    },
    {
      "t": 581.1,
      "ch": 2,
      "note": 58,
      "vel": 53,
      "dur": 20930
    },
    {
      "t": 581.1,
      "ch": 2,
      "note": 70,
      "vel": 37,
      "dur": 20930
    },
    {
      "t": 581.2,
      "ch": 1,
      "note": 40,
      "vel": 86,
      "dur": 25
    },
    {
      "t": 581.2,
      "ch": 7,
      "note": 48,
      "vel": 63,
      "dur": 80
    },
    {
      "t": 581.2,
      "ch": 7,
      "note": 36,
      "vel": 64,
      "dur": 80
    },
    {
      "t": 581.4,
      "ch": 1,
      "note": 42,
      "vel": 41,
      "dur": 25
    },
    {
      "t": 581.5,
      "ch": 1,
      "note": 36,
      "vel": 44,
      "dur": 25
    },
    {
      "t": 581.6,
      "ch": 7,
      "note": 45,
      "vel": 64,
      "dur": 80
    },
    {
      "t": 581.6,
      "ch": 7,
      "note": 36,
      "vel": 65,
      "dur": 80
    },
    {
      "t": 581.7,
      "ch": 1,
      "note": 38,
      "vel": 63,
      "dur": 25
    },
    {
      "t": 581.9,
      "ch": 1,
      "note": 40,
      "vel": 46,
      "dur": 25
    },
    {
      "t": 581.9,
      "ch": 7,
      "note": 48,
      "vel": 78,
      "dur": 80
    },
    {
      "t": 581.9,
      "ch": 7,
      "note": 36,
      "vel": 64,
      "dur": 80
    },
    {
      "t": 582,
      "ch": 1,
      "note": 42,
      "vel": 62,
      "dur": 25
    },
    {
      "t": 582.2,
      "ch": 1,
      "note": 36,
      "vel": 24,
      "dur": 25
    },
    {
      "t": 582.4,
      "ch": 1,
      "note": 38,
      "vel": 51,
      "dur": 25
    },
    {
      "t": 582.6,
      "ch": 0,
      "note": 36,
      "vel": 107,
      "dur": 55
    },
    {
      "t": 582.6,
      "ch": 1,
      "note": 40,
      "vel": 77,
      "dur": 25
    },
    {
      "t": 582.6,
      "ch": 7,
      "note": 48,
      "vel": 75,
      "dur": 80
    },
    {
      "t": 582.6,
      "ch": 7,
      "note": 45,
      "vel": 62,
      "dur": 80
    },
    {
      "t": 582.6,
      "ch": 7,
      "note": 36,
      "vel": 64,
      "dur": 80
    },
    {
      "t": 582.7,
      "ch": 1,
      "note": 42,
      "vel": 63,
      "dur": 25
    },
    {
      "t": 582.9,
      "ch": 1,
      "note": 36,
      "vel": 56,
      "dur": 25
    },
    {
      "t": 583,
      "ch": 7,
      "note": 36,
      "vel": 64,
      "dur": 80
    },
    {
      "t": 583.1,
      "ch": 1,
      "note": 38,
      "vel": 44,
      "dur": 25
    },
    {
      "t": 583.3,
      "ch": 1,
      "note": 40,
      "vel": 47,
      "dur": 25
    },
    {
      "t": 583.3,
      "ch": 7,
      "note": 48,
      "vel": 76,
      "dur": 80
    },
    {
      "t": 583.3,
      "ch": 7,
      "note": 36,
      "vel": 65,
      "dur": 80
    },
    {
      "t": 583.3,
      "ch": 5,
      "note": 78,
      "vel": 33,
      "dur": 987
    },
    {
      "t": 583.4,
      "ch": 1,
      "note": 42,
      "vel": 44,
      "dur": 25
    },
    {
      "t": 583.5,
      "ch": 7,
      "note": 45,
      "vel": 60,
      "dur": 80
    },
    {
      "t": 583.6,
      "ch": 1,
      "note": 36,
      "vel": 64,
      "dur": 25
    },
    {
      "t": 583.8,
      "ch": 1,
      "note": 38,
      "vel": 37,
      "dur": 25
    },
    {
      "t": 583.8,
      "ch": 5,
      "note": 75,
      "vel": 13,
      "dur": 984
    },
    {
      "t": 584,
      "ch": 0,
      "note": 36,
      "vel": 98,
      "dur": 55
    },
    {
      "t": 584,
      "ch": 1,
      "note": 40,
      "vel": 49,
      "dur": 25
    },
    {
      "t": 584,
      "ch": 7,
      "note": 48,
      "vel": 61,
      "dur": 80
    },
    {
      "t": 584,
      "ch": 7,
      "note": 36,
      "vel": 64,
      "dur": 80
    },
    {
      "t": 584,
      "ch": 1,
      "note": 42,
      "vel": 86,
      "dur": 25
    },
    {
      "t": 584,
      "ch": 1,
      "note": 36,
      "vel": 92,
      "dur": 25
    },
    {
      "t": 584,
      "ch": 1,
      "note": 38,
      "vel": 95,
      "dur": 25
    },
    {
      "t": 584,
      "ch": 1,
      "note": 40,
      "vel": 80,
      "dur": 25
    },
    {
      "t": 584,
      "ch": 1,
      "note": 42,
      "vel": 94,
      "dur": 25
    },
    {
      "t": 584,
      "ch": 1,
      "note": 36,
      "vel": 67,
      "dur": 25
    },
    {
      "t": 584,
      "ch": 1,
      "note": 38,
      "vel": 54,
      "dur": 25
    },
    {
      "t": 584,
      "ch": 1,
      "note": 40,
      "vel": 106,
      "dur": 25
    },
    {
      "t": 584,
      "ch": 1,
      "note": 42,
      "vel": 91,
      "dur": 25
    },
    {
      "t": 584,
      "ch": 1,
      "note": 36,
      "vel": 81,
      "dur": 25
    },
    {
      "t": 584,
      "ch": 1,
      "note": 38,
      "vel": 74,
      "dur": 25
    },
    {
      "t": 584,
      "ch": 1,
      "note": 40,
      "vel": 91,
      "dur": 25
    },
    {
      "t": 584,
      "ch": 1,
      "note": 42,
      "vel": 75,
      "dur": 25
    },
    {
      "t": 584,
      "ch": 1,
      "note": 36,
      "vel": 89,
      "dur": 25
    },
    {
      "t": 584,
      "ch": 1,
      "note": 38,
      "vel": 115,
      "dur": 25
    },
    {
      "t": 584,
      "ch": 1,
      "note": 40,
      "vel": 77,
      "dur": 25
    },
    {
      "t": 584,
      "ch": 1,
      "note": 42,
      "vel": 71,
      "dur": 25
    },
    {
      "t": 584,
      "ch": 1,
      "note": 36,
      "vel": 93,
      "dur": 25
    },
    {
      "t": 584,
      "ch": 1,
      "note": 38,
      "vel": 87,
      "dur": 25
    },
    {
      "t": 584,
      "ch": 1,
      "note": 40,
      "vel": 74,
      "dur": 25
    },
    {
      "t": 584,
      "ch": 1,
      "note": 42,
      "vel": 85,
      "dur": 25
    },
    {
      "t": 584,
      "ch": 1,
      "note": 36,
      "vel": 104,
      "dur": 25
    },
    {
      "t": 584,
      "ch": 1,
      "note": 38,
      "vel": 77,
      "dur": 25
    },
    {
      "t": 584,
      "ch": 1,
      "note": 40,
      "vel": 88,
      "dur": 25
    },
    {
      "t": 584,
      "ch": 1,
      "note": 42,
      "vel": 99,
      "dur": 25
    },
    {
      "t": 584,
      "ch": 1,
      "note": 36,
      "vel": 88,
      "dur": 25
    },
    {
      "t": 584,
      "ch": 1,
      "note": 38,
      "vel": 78,
      "dur": 25
    },
    {
      "t": 584,
      "ch": 1,
      "note": 40,
      "vel": 77,
      "dur": 25
    },
    {
      "t": 584,
      "ch": 1,
      "note": 42,
      "vel": 87,
      "dur": 25
    },
    {
      "t": 584,
      "ch": 1,
      "note": 36,
      "vel": 89,
      "dur": 25
    },
    {
      "t": 584,
      "ch": 1,
      "note": 38,
      "vel": 83,
      "dur": 25
    },
    {
      "t": 584,
      "ch": 1,
      "note": 40,
      "vel": 88,
      "dur": 25
    },
    {
      "t": 584,
      "ch": 1,
      "note": 42,
      "vel": 64,
      "dur": 25
    },
    {
      "t": 584,
      "ch": 1,
      "note": 36,
      "vel": 89,
      "dur": 25
    },
    {
      "t": 584,
      "ch": 1,
      "note": 38,
      "vel": 82,
      "dur": 25
    },
    {
      "t": 584,
      "ch": 1,
      "note": 40,
      "vel": 89,
      "dur": 25
    },
    {
      "t": 584,
      "ch": 1,
      "note": 42,
      "vel": 88,
      "dur": 25
    },
    {
      "t": 584,
      "ch": 1,
      "note": 36,
      "vel": 104,
      "dur": 25
    },
    {
      "t": 584,
      "ch": 1,
      "note": 38,
      "vel": 80,
      "dur": 25
    },
    {
      "t": 584,
      "ch": 1,
      "note": 40,
      "vel": 84,
      "dur": 25
    },
    {
      "t": 584,
      "ch": 1,
      "note": 42,
      "vel": 76,
      "dur": 25
    },
    {
      "t": 584,
      "ch": 1,
      "note": 36,
      "vel": 75,
      "dur": 25
    },
    {
      "t": 584,
      "ch": 1,
      "note": 38,
      "vel": 90,
      "dur": 25
    },
    {
      "t": 584,
      "ch": 1,
      "note": 40,
      "vel": 92,
      "dur": 25
    },
    {
      "t": 584,
      "ch": 1,
      "note": 42,
      "vel": 94,
      "dur": 25
    },
    {
      "t": 584,
      "ch": 1,
      "note": 36,
      "vel": 76,
      "dur": 25
    },
    {
      "t": 584,
      "ch": 1,
      "note": 38,
      "vel": 83,
      "dur": 25
    },
    {
      "t": 584,
      "ch": 1,
      "note": 40,
      "vel": 64,
      "dur": 25
    },
    {
      "t": 584,
      "ch": 1,
      "note": 42,
      "vel": 91,
      "dur": 25
    },
    {
      "t": 584,
      "ch": 1,
      "note": 36,
      "vel": 70,
      "dur": 25
    },
    {
      "t": 584,
      "ch": 1,
      "note": 38,
      "vel": 80,
      "dur": 25
    },
    {
      "t": 584,
      "ch": 1,
      "note": 40,
      "vel": 69,
      "dur": 25
    },
    {
      "t": 584,
      "ch": 1,
      "note": 42,
      "vel": 68,
      "dur": 25
    },
    {
      "t": 584,
      "ch": 1,
      "note": 36,
      "vel": 95,
      "dur": 25
    },
    {
      "t": 584,
      "ch": 1,
      "note": 38,
      "vel": 72,
      "dur": 25
    },
    {
      "t": 584,
      "ch": 1,
      "note": 40,
      "vel": 65,
      "dur": 25
    },
    {
      "t": 584,
      "ch": 1,
      "note": 42,
      "vel": 95,
      "dur": 25
    },
    {
      "t": 584,
      "ch": 1,
      "note": 36,
      "vel": 66,
      "dur": 25
    },
    {
      "t": 584,
      "ch": 1,
      "note": 38,
      "vel": 86,
      "dur": 25
    },
    {
      "t": 584,
      "ch": 1,
      "note": 40,
      "vel": 89,
      "dur": 25
    },
    {
      "t": 584,
      "ch": 1,
      "note": 42,
      "vel": 85,
      "dur": 25
    },
    {
      "t": 584,
      "ch": 1,
      "note": 36,
      "vel": 67,
      "dur": 25
    },
    {
      "t": 584,
      "ch": 1,
      "note": 38,
      "vel": 64,
      "dur": 25
    },
    {
      "t": 584,
      "ch": 1,
      "note": 40,
      "vel": 83,
      "dur": 25
    },
    {
      "t": 584,
      "ch": 1,
      "note": 42,
      "vel": 96,
      "dur": 25
    },
    {
      "t": 584,
      "ch": 1,
      "note": 36,
      "vel": 70,
      "dur": 25
    },
    {
      "t": 584,
      "ch": 1,
      "note": 38,
      "vel": 90,
      "dur": 25
    },
    {
      "t": 584,
      "ch": 1,
      "note": 40,
      "vel": 61,
      "dur": 25
    },
    {
      "t": 584,
      "ch": 1,
      "note": 42,
      "vel": 93,
      "dur": 25
    },
    {
      "t": 584,
      "ch": 1,
      "note": 36,
      "vel": 86,
      "dur": 25
    },
    {
      "t": 584,
      "ch": 1,
      "note": 38,
      "vel": 71,
      "dur": 25
    },
    {
      "t": 584,
      "ch": 1,
      "note": 40,
      "vel": 92,
      "dur": 25
    },
    {
      "t": 584,
      "ch": 1,
      "note": 42,
      "vel": 89,
      "dur": 25
    },
    {
      "t": 584,
      "ch": 1,
      "note": 36,
      "vel": 86,
      "dur": 25
    },
    {
      "t": 584,
      "ch": 1,
      "note": 38,
      "vel": 79,
      "dur": 25
    },
    {
      "t": 584,
      "ch": 1,
      "note": 40,
      "vel": 83,
      "dur": 25
    },
    {
      "t": 584,
      "ch": 1,
      "note": 42,
      "vel": 92,
      "dur": 25
    },
    {
      "t": 584,
      "ch": 1,
      "note": 36,
      "vel": 83,
      "dur": 25
    },
    {
      "t": 584,
      "ch": 1,
      "note": 38,
      "vel": 87,
      "dur": 25
    },
    {
      "t": 584,
      "ch": 1,
      "note": 40,
      "vel": 109,
      "dur": 25
    },
    {
      "t": 584,
      "ch": 1,
      "note": 42,
      "vel": 65,
      "dur": 25
    },
    {
      "t": 584,
      "ch": 1,
      "note": 36,
      "vel": 106,
      "dur": 25
    },
    {
      "t": 584,
      "ch": 1,
      "note": 38,
      "vel": 105,
      "dur": 25
    },
    {
      "t": 584,
      "ch": 1,
      "note": 40,
      "vel": 79,
      "dur": 25
    },
    {
      "t": 584,
      "ch": 1,
      "note": 42,
      "vel": 95,
      "dur": 25
    },
    {
      "t": 584,
      "ch": 1,
      "note": 36,
      "vel": 98,
      "dur": 25
    },
    {
      "t": 584,
      "ch": 1,
      "note": 38,
      "vel": 64,
      "dur": 25
    },
    {
      "t": 584,
      "ch": 1,
      "note": 40,
      "vel": 78,
      "dur": 25
    },
    {
      "t": 584,
      "ch": 1,
      "note": 42,
      "vel": 77,
      "dur": 25
    },
    {
      "t": 584,
      "ch": 1,
      "note": 36,
      "vel": 67,
      "dur": 25
    },
    {
      "t": 584,
      "ch": 1,
      "note": 38,
      "vel": 77,
      "dur": 25
    },
    {
      "t": 584,
      "ch": 1,
      "note": 40,
      "vel": 101,
      "dur": 25
    },
    {
      "t": 584,
      "ch": 1,
      "note": 42,
      "vel": 63,
      "dur": 25
    },
    {
      "t": 584,
      "ch": 1,
      "note": 36,
      "vel": 104,
      "dur": 25
    },
    {
      "t": 584,
      "ch": 1,
      "note": 38,
      "vel": 78,
      "dur": 25
    },
    {
      "t": 584,
      "ch": 1,
      "note": 40,
      "vel": 65,
      "dur": 25
    },
    {
      "t": 584,
      "ch": 1,
      "note": 42,
      "vel": 68,
      "dur": 25
    },
    {
      "t": 584,
      "ch": 1,
      "note": 36,
      "vel": 105,
      "dur": 25
    },
    {
      "t": 584,
      "ch": 1,
      "note": 38,
      "vel": 62,
      "dur": 25
    },
    {
      "t": 584,
      "ch": 1,
      "note": 40,
      "vel": 104,
      "dur": 25
    },
    {
      "t": 584,
      "ch": 1,
      "note": 42,
      "vel": 68,
      "dur": 25
    },
    {
      "t": 584,
      "ch": 1,
      "note": 36,
      "vel": 115,
      "dur": 25
    },
    {
      "t": 584,
      "ch": 1,
      "note": 38,
      "vel": 96,
      "dur": 25
    },
    {
      "t": 584,
      "ch": 1,
      "note": 40,
      "vel": 68,
      "dur": 25
    },
    {
      "t": 584,
      "ch": 1,
      "note": 42,
      "vel": 82,
      "dur": 25
    },
    {
      "t": 584,
      "ch": 1,
      "note": 36,
      "vel": 80,
      "dur": 25
    },
    {
      "t": 584,
      "ch": 1,
      "note": 38,
      "vel": 90,
      "dur": 25
    },
    {
      "t": 584,
      "ch": 1,
      "note": 40,
      "vel": 111,
      "dur": 25
    },
    {
      "t": 584,
      "ch": 1,
      "note": 42,
      "vel": 63,
      "dur": 25
    },
    {
      "t": 584,
      "ch": 1,
      "note": 36,
      "vel": 68,
      "dur": 25
    },
    {
      "t": 584,
      "ch": 1,
      "note": 38,
      "vel": 82,
      "dur": 25
    },
    {
      "t": 584,
      "ch": 1,
      "note": 40,
      "vel": 77,
      "dur": 25
    },
    {
      "t": 584,
      "ch": 1,
      "note": 42,
      "vel": 78,
      "dur": 25
    },
    {
      "t": 584,
      "ch": 1,
      "note": 36,
      "vel": 83,
      "dur": 25
    },
    {
      "t": 584,
      "ch": 1,
      "note": 38,
      "vel": 70,
      "dur": 25
    },
    {
      "t": 584,
      "ch": 1,
      "note": 40,
      "vel": 78,
      "dur": 25
    },
    {
      "t": 584,
      "ch": 1,
      "note": 42,
      "vel": 86,
      "dur": 25
    },
    {
      "t": 584,
      "ch": 1,
      "note": 36,
      "vel": 76,
      "dur": 25
    },
    {
      "t": 584,
      "ch": 1,
      "note": 38,
      "vel": 77,
      "dur": 25
    },
    {
      "t": 584,
      "ch": 1,
      "note": 40,
      "vel": 102,
      "dur": 25
    },
    {
      "t": 584,
      "ch": 1,
      "note": 42,
      "vel": 106,
      "dur": 25
    },
    {
      "t": 584,
      "ch": 1,
      "note": 36,
      "vel": 82,
      "dur": 25
    },
    {
      "t": 584,
      "ch": 1,
      "note": 38,
      "vel": 79,
      "dur": 25
    },
    {
      "t": 584,
      "ch": 1,
      "note": 40,
      "vel": 68,
      "dur": 25
    },
    {
      "t": 584,
      "ch": 1,
      "note": 42,
      "vel": 91,
      "dur": 25
    },
    {
      "t": 584,
      "ch": 1,
      "note": 36,
      "vel": 73,
      "dur": 25
    },
    {
      "t": 584,
      "ch": 1,
      "note": 38,
      "vel": 78,
      "dur": 25
    },
    {
      "t": 584,
      "ch": 1,
      "note": 40,
      "vel": 63,
      "dur": 25
    },
    {
      "t": 584,
      "ch": 1,
      "note": 42,
      "vel": 63,
      "dur": 25
    },
    {
      "t": 584,
      "ch": 1,
      "note": 36,
      "vel": 72,
      "dur": 25
    },
    {
      "t": 584,
      "ch": 1,
      "note": 38,
      "vel": 90,
      "dur": 25
    },
    {
      "t": 584,
      "ch": 1,
      "note": 40,
      "vel": 92,
      "dur": 25
    },
    {
      "t": 584,
      "ch": 1,
      "note": 42,
      "vel": 82,
      "dur": 25
    },
    {
      "t": 584,
      "ch": 1,
      "note": 36,
      "vel": 93,
      "dur": 25
    },
    {
      "t": 584,
      "ch": 1,
      "note": 38,
      "vel": 78,
      "dur": 25
    },
    {
      "t": 584,
      "ch": 1,
      "note": 40,
      "vel": 93,
      "dur": 25
    },
    {
      "t": 584,
      "ch": 1,
      "note": 42,
      "vel": 78,
      "dur": 25
    },
    {
      "t": 584,
      "ch": 1,
      "note": 36,
      "vel": 89,
      "dur": 25
    },
    {
      "t": 584,
      "ch": 1,
      "note": 38,
      "vel": 100,
      "dur": 25
    },
    {
      "t": 584,
      "ch": 1,
      "note": 40,
      "vel": 81,
      "dur": 25
    },
    {
      "t": 584,
      "ch": 1,
      "note": 42,
      "vel": 82,
      "dur": 25
    },
    {
      "t": 584,
      "ch": 1,
      "note": 36,
      "vel": 94,
      "dur": 25
    },
    {
      "t": 584,
      "ch": 1,
      "note": 38,
      "vel": 79,
      "dur": 25
    },
    {
      "t": 584,
      "ch": 1,
      "note": 40,
      "vel": 94,
      "dur": 25
    },
    {
      "t": 584,
      "ch": 1,
      "note": 42,
      "vel": 73,
      "dur": 25
    },
    {
      "t": 584,
      "ch": 1,
      "note": 36,
      "vel": 78,
      "dur": 25
    },
    {
      "t": 584,
      "ch": 1,
      "note": 38,
      "vel": 99,
      "dur": 25
    },
    {
      "t": 584,
      "ch": 1,
      "note": 40,
      "vel": 82,
      "dur": 25
    },
    {
      "t": 584,
      "ch": 1,
      "note": 42,
      "vel": 73,
      "dur": 25
    },
    {
      "t": 584,
      "ch": 1,
      "note": 36,
      "vel": 90,
      "dur": 25
    },
    {
      "t": 584,
      "ch": 1,
      "note": 38,
      "vel": 103,
      "dur": 25
    },
    {
      "t": 584,
      "ch": 1,
      "note": 40,
      "vel": 96,
      "dur": 25
    },
    {
      "t": 584,
      "ch": 1,
      "note": 42,
      "vel": 71,
      "dur": 25
    },
    {
      "t": 584,
      "ch": 1,
      "note": 36,
      "vel": 97,
      "dur": 25
    },
    {
      "t": 584,
      "ch": 1,
      "note": 38,
      "vel": 77,
      "dur": 25
    },
    {
      "t": 584,
      "ch": 1,
      "note": 40,
      "vel": 71,
      "dur": 25
    },
    {
      "t": 584,
      "ch": 1,
      "note": 42,
      "vel": 71,
      "dur": 25
    },
    {
      "t": 584,
      "ch": 1,
      "note": 36,
      "vel": 104,
      "dur": 25
    },
    {
      "t": 584,
      "ch": 1,
      "note": 38,
      "vel": 96,
      "dur": 25
    },
    {
      "t": 584,
      "ch": 1,
      "note": 40,
      "vel": 70,
      "dur": 25
    },
    {
      "t": 584,
      "ch": 1,
      "note": 42,
      "vel": 99,
      "dur": 25
    },
    {
      "t": 584,
      "ch": 1,
      "note": 36,
      "vel": 66,
      "dur": 25
    },
    {
      "t": 584,
      "ch": 1,
      "note": 38,
      "vel": 76,
      "dur": 25
    },
    {
      "t": 584,
      "ch": 1,
      "note": 40,
      "vel": 84,
      "dur": 25
    },
    {
      "t": 584,
      "ch": 1,
      "note": 42,
      "vel": 114,
      "dur": 25
    },
    {
      "t": 584,
      "ch": 1,
      "note": 36,
      "vel": 67,
      "dur": 25
    },
    {
      "t": 584,
      "ch": 1,
      "note": 38,
      "vel": 88,
      "dur": 25
    },
    {
      "t": 584,
      "ch": 1,
      "note": 40,
      "vel": 76,
      "dur": 25
    },
    {
      "t": 584,
      "ch": 1,
      "note": 42,
      "vel": 84,
      "dur": 25
    },
    {
      "t": 584,
      "ch": 1,
      "note": 36,
      "vel": 73,
      "dur": 25
    },
    {
      "t": 584,
      "ch": 1,
      "note": 38,
      "vel": 84,
      "dur": 25
    },
    {
      "t": 584,
      "ch": 1,
      "note": 40,
      "vel": 74,
      "dur": 25
    },
    {
      "t": 584,
      "ch": 1,
      "note": 42,
      "vel": 68,
      "dur": 25
    },
    {
      "t": 584,
      "ch": 1,
      "note": 36,
      "vel": 99,
      "dur": 25
    },
    {
      "t": 584,
      "ch": 1,
      "note": 38,
      "vel": 94,
      "dur": 25
    },
    {
      "t": 584,
      "ch": 1,
      "note": 40,
      "vel": 86,
      "dur": 25
    },
    {
      "t": 584,
      "ch": 1,
      "note": 42,
      "vel": 81,
      "dur": 25
    },
    {
      "t": 584,
      "ch": 1,
      "note": 36,
      "vel": 67,
      "dur": 25
    },
    {
      "t": 584,
      "ch": 1,
      "note": 38,
      "vel": 71,
      "dur": 25
    },
    {
      "t": 584,
      "ch": 1,
      "note": 40,
      "vel": 80,
      "dur": 25
    },
    {
      "t": 584,
      "ch": 1,
      "note": 42,
      "vel": 71,
      "dur": 25
    },
    {
      "t": 584,
      "ch": 1,
      "note": 36,
      "vel": 97,
      "dur": 25
    },
    {
      "t": 584,
      "ch": 1,
      "note": 38,
      "vel": 82,
      "dur": 25
    },
    {
      "t": 584,
      "ch": 1,
      "note": 40,
      "vel": 107,
      "dur": 25
    },
    {
      "t": 584,
      "ch": 1,
      "note": 42,
      "vel": 94,
      "dur": 25
    },
    {
      "t": 584,
      "ch": 1,
      "note": 36,
      "vel": 84,
      "dur": 25
    },
    {
      "t": 584,
      "ch": 1,
      "note": 38,
      "vel": 79,
      "dur": 25
    },
    {
      "t": 584,
      "ch": 1,
      "note": 40,
      "vel": 79,
      "dur": 25
    },
    {
      "t": 584,
      "ch": 1,
      "note": 42,
      "vel": 78,
      "dur": 25
    },
    {
      "t": 584,
      "ch": 1,
      "note": 36,
      "vel": 88,
      "dur": 25
    },
    {
      "t": 584,
      "ch": 1,
      "note": 38,
      "vel": 66,
      "dur": 25
    },
    {
      "t": 584,
      "ch": 1,
      "note": 40,
      "vel": 98,
      "dur": 25
    },
    {
      "t": 584,
      "ch": 1,
      "note": 42,
      "vel": 87,
      "dur": 25
    },
    {
      "t": 584,
      "ch": 1,
      "note": 36,
      "vel": 98,
      "dur": 25
    },
    {
      "t": 584,
      "ch": 1,
      "note": 38,
      "vel": 49,
      "dur": 25
    },
    {
      "t": 584,
      "ch": 1,
      "note": 40,
      "vel": 92,
      "dur": 25
    },
    {
      "t": 584,
      "ch": 1,
      "note": 42,
      "vel": 83,
      "dur": 25
    },
    {
      "t": 584,
      "ch": 1,
      "note": 36,
      "vel": 88,
      "dur": 25
    },
    {
      "t": 584,
      "ch": 1,
      "note": 38,
      "vel": 70,
      "dur": 25
    },
    {
      "t": 584,
      "ch": 1,
      "note": 40,
      "vel": 88,
      "dur": 25
    },
    {
      "t": 584,
      "ch": 1,
      "note": 42,
      "vel": 88,
      "dur": 25
    },
    {
      "t": 584,
      "ch": 1,
      "note": 36,
      "vel": 83,
      "dur": 25
    },
    {
      "t": 584,
      "ch": 1,
      "note": 38,
      "vel": 87,
      "dur": 25
    },
    {
      "t": 584,
      "ch": 1,
      "note": 40,
      "vel": 74,
      "dur": 25
    },
    {
      "t": 584,
      "ch": 1,
      "note": 42,
      "vel": 71,
      "dur": 25
    },
    {
      "t": 584,
      "ch": 1,
      "note": 36,
      "vel": 55,
      "dur": 25
    },
    {
      "t": 584,
      "ch": 1,
      "note": 38,
      "vel": 93,
      "dur": 25
    },
    {
      "t": 584,
      "ch": 1,
      "note": 40,
      "vel": 95,
      "dur": 25
    },
    {
      "t": 584,
      "ch": 1,
      "note": 42,
      "vel": 76,
      "dur": 25
    },
    {
      "t": 584,
      "ch": 1,
      "note": 36,
      "vel": 99,
      "dur": 25
    },
    {
      "t": 584,
      "ch": 1,
      "note": 38,
      "vel": 85,
      "dur": 25
    },
    {
      "t": 584,
      "ch": 1,
      "note": 40,
      "vel": 91,
      "dur": 25
    },
    {
      "t": 584,
      "ch": 1,
      "note": 42,
      "vel": 85,
      "dur": 25
    },
    {
      "t": 584,
      "ch": 1,
      "note": 36,
      "vel": 66,
      "dur": 25
    },
    {
      "t": 584,
      "ch": 1,
      "note": 38,
      "vel": 88,
      "dur": 25
    },
    {
      "t": 584,
      "ch": 1,
      "note": 40,
      "vel": 88,
      "dur": 25
    },
    {
      "t": 584,
      "ch": 1,
      "note": 42,
      "vel": 89,
      "dur": 25
    },
    {
      "t": 584,
      "ch": 1,
      "note": 36,
      "vel": 77,
      "dur": 25
    },
    {
      "t": 584,
      "ch": 1,
      "note": 38,
      "vel": 87,
      "dur": 25
    },
    {
      "t": 584,
      "ch": 1,
      "note": 40,
      "vel": 86,
      "dur": 25
    },
    {
      "t": 584,
      "ch": 1,
      "note": 42,
      "vel": 89,
      "dur": 25
    },
    {
      "t": 584,
      "ch": 1,
      "note": 36,
      "vel": 101,
      "dur": 25
    },
    {
      "t": 584,
      "ch": 1,
      "note": 38,
      "vel": 88,
      "dur": 25
    },
    {
      "t": 584,
      "ch": 1,
      "note": 40,
      "vel": 63,
      "dur": 25
    },
    {
      "t": 584,
      "ch": 1,
      "note": 42,
      "vel": 70,
      "dur": 25
    },
    {
      "t": 584,
      "ch": 1,
      "note": 36,
      "vel": 104,
      "dur": 25
    },
    {
      "t": 584,
      "ch": 1,
      "note": 38,
      "vel": 95,
      "dur": 25
    },
    {
      "t": 584,
      "ch": 1,
      "note": 40,
      "vel": 85,
      "dur": 25
    },
    {
      "t": 584,
      "ch": 1,
      "note": 42,
      "vel": 94,
      "dur": 25
    },
    {
      "t": 584,
      "ch": 1,
      "note": 36,
      "vel": 97,
      "dur": 25
    },
    {
      "t": 584,
      "ch": 1,
      "note": 38,
      "vel": 105,
      "dur": 25
    },
    {
      "t": 584,
      "ch": 1,
      "note": 40,
      "vel": 82,
      "dur": 25
    },
    {
      "t": 584,
      "ch": 1,
      "note": 42,
      "vel": 78,
      "dur": 25
    },
    {
      "t": 584,
      "ch": 1,
      "note": 36,
      "vel": 94,
      "dur": 25
    },
    {
      "t": 584,
      "ch": 1,
      "note": 38,
      "vel": 75,
      "dur": 25
    },
    {
      "t": 584,
      "ch": 1,
      "note": 40,
      "vel": 74,
      "dur": 25
    },
    {
      "t": 584,
      "ch": 1,
      "note": 42,
      "vel": 77,
      "dur": 25
    },
    {
      "t": 584,
      "ch": 1,
      "note": 36,
      "vel": 81,
      "dur": 25
    },
    {
      "t": 584,
      "ch": 1,
      "note": 38,
      "vel": 74,
      "dur": 25
    },
    {
      "t": 584,
      "ch": 1,
      "note": 40,
      "vel": 87,
      "dur": 25
    },
    {
      "t": 584,
      "ch": 1,
      "note": 42,
      "vel": 78,
      "dur": 25
    },
    {
      "t": 584,
      "ch": 1,
      "note": 36,
      "vel": 76,
      "dur": 25
    },
    {
      "t": 584,
      "ch": 1,
      "note": 38,
      "vel": 88,
      "dur": 25
    },
    {
      "t": 584,
      "ch": 1,
      "note": 40,
      "vel": 65,
      "dur": 25
    },
    {
      "t": 584,
      "ch": 1,
      "note": 42,
      "vel": 65,
      "dur": 25
    },
    {
      "t": 584,
      "ch": 1,
      "note": 36,
      "vel": 80,
      "dur": 25
    },
    {
      "t": 584,
      "ch": 1,
      "note": 38,
      "vel": 88,
      "dur": 25
    },
    {
      "t": 584,
      "ch": 1,
      "note": 40,
      "vel": 89,
      "dur": 25
    },
    {
      "t": 584,
      "ch": 1,
      "note": 42,
      "vel": 74,
      "dur": 25
    },
    {
      "t": 584,
      "ch": 1,
      "note": 36,
      "vel": 82,
      "dur": 25
    },
    {
      "t": 584,
      "ch": 1,
      "note": 38,
      "vel": 84,
      "dur": 25
    },
    {
      "t": 584,
      "ch": 1,
      "note": 40,
      "vel": 72,
      "dur": 25
    },
    {
      "t": 584,
      "ch": 1,
      "note": 42,
      "vel": 96,
      "dur": 25
    },
    {
      "t": 584,
      "ch": 1,
      "note": 36,
      "vel": 93,
      "dur": 25
    },
    {
      "t": 584,
      "ch": 1,
      "note": 38,
      "vel": 79,
      "dur": 25
    },
    {
      "t": 584,
      "ch": 1,
      "note": 40,
      "vel": 73,
      "dur": 25
    },
    {
      "t": 584,
      "ch": 1,
      "note": 42,
      "vel": 87,
      "dur": 25
    },
    {
      "t": 584,
      "ch": 1,
      "note": 36,
      "vel": 77,
      "dur": 25
    },
    {
      "t": 584,
      "ch": 1,
      "note": 38,
      "vel": 78,
      "dur": 25
    },
    {
      "t": 584,
      "ch": 1,
      "note": 40,
      "vel": 97,
      "dur": 25
    },
    {
      "t": 584,
      "ch": 1,
      "note": 42,
      "vel": 50,
      "dur": 25
    },
    {
      "t": 584,
      "ch": 1,
      "note": 36,
      "vel": 92,
      "dur": 25
    },
    {
      "t": 584,
      "ch": 1,
      "note": 38,
      "vel": 83,
      "dur": 25
    },
    {
      "t": 584,
      "ch": 1,
      "note": 40,
      "vel": 77,
      "dur": 25
    },
    {
      "t": 584,
      "ch": 1,
      "note": 42,
      "vel": 107,
      "dur": 25
    },
    {
      "t": 584,
      "ch": 1,
      "note": 36,
      "vel": 82,
      "dur": 25
    },
    {
      "t": 584,
      "ch": 1,
      "note": 38,
      "vel": 84,
      "dur": 25
    },
    {
      "t": 584,
      "ch": 1,
      "note": 40,
      "vel": 88,
      "dur": 25
    },
    {
      "t": 584,
      "ch": 1,
      "note": 42,
      "vel": 79,
      "dur": 25
    },
    {
      "t": 584,
      "ch": 1,
      "note": 36,
      "vel": 109,
      "dur": 25
    },
    {
      "t": 584,
      "ch": 1,
      "note": 38,
      "vel": 107,
      "dur": 25
    },
    {
      "t": 584,
      "ch": 1,
      "note": 40,
      "vel": 95,
      "dur": 25
    },
    {
      "t": 584,
      "ch": 1,
      "note": 42,
      "vel": 62,
      "dur": 25
    },
    {
      "t": 584,
      "ch": 1,
      "note": 36,
      "vel": 86,
      "dur": 25
    },
    {
      "t": 584,
      "ch": 1,
      "note": 38,
      "vel": 86,
      "dur": 25
    },
    {
      "t": 584,
      "ch": 1,
      "note": 40,
      "vel": 92,
      "dur": 25
    },
    {
      "t": 584,
      "ch": 1,
      "note": 42,
      "vel": 65,
      "dur": 25
    },
    {
      "t": 584,
      "ch": 1,
      "note": 36,
      "vel": 89,
      "dur": 25
    },
    {
      "t": 584,
      "ch": 1,
      "note": 38,
      "vel": 88,
      "dur": 25
    },
    {
      "t": 584,
      "ch": 1,
      "note": 40,
      "vel": 70,
      "dur": 25
    },
    {
      "t": 584,
      "ch": 1,
      "note": 42,
      "vel": 72,
      "dur": 25
    },
    {
      "t": 584,
      "ch": 1,
      "note": 36,
      "vel": 73,
      "dur": 25
    },
    {
      "t": 584,
      "ch": 1,
      "note": 38,
      "vel": 93,
      "dur": 25
    },
    {
      "t": 584,
      "ch": 1,
      "note": 40,
      "vel": 85,
      "dur": 25
    },
    {
      "t": 584,
      "ch": 1,
      "note": 42,
      "vel": 80,
      "dur": 25
    },
    {
      "t": 584,
      "ch": 1,
      "note": 36,
      "vel": 74,
      "dur": 25
    },
    {
      "t": 584,
      "ch": 1,
      "note": 38,
      "vel": 75,
      "dur": 25
    },
    {
      "t": 584,
      "ch": 1,
      "note": 40,
      "vel": 76,
      "dur": 25
    },
    {
      "t": 584,
      "ch": 1,
      "note": 42,
      "vel": 80,
      "dur": 25
    },
    {
      "t": 584,
      "ch": 1,
      "note": 36,
      "vel": 93,
      "dur": 25
    },
    {
      "t": 584,
      "ch": 1,
      "note": 38,
      "vel": 97,
      "dur": 25
    },
    {
      "t": 584,
      "ch": 1,
      "note": 40,
      "vel": 78,
      "dur": 25
    },
    {
      "t": 584,
      "ch": 1,
      "note": 42,
      "vel": 88,
      "dur": 25
    },
    {
      "t": 584,
      "ch": 1,
      "note": 36,
      "vel": 107,
      "dur": 25
    },
    {
      "t": 584,
      "ch": 1,
      "note": 38,
      "vel": 89,
      "dur": 25
    },
    {
      "t": 584,
      "ch": 1,
      "note": 40,
      "vel": 93,
      "dur": 25
    },
    {
      "t": 584,
      "ch": 1,
      "note": 42,
      "vel": 93,
      "dur": 25
    },
    {
      "t": 584,
      "ch": 1,
      "note": 36,
      "vel": 80,
      "dur": 25
    },
    {
      "t": 584,
      "ch": 1,
      "note": 38,
      "vel": 74,
      "dur": 25
    },
    {
      "t": 584,
      "ch": 1,
      "note": 40,
      "vel": 88,
      "dur": 25
    },
    {
      "t": 584,
      "ch": 1,
      "note": 42,
      "vel": 97,
      "dur": 25
    },
    {
      "t": 584,
      "ch": 1,
      "note": 36,
      "vel": 94,
      "dur": 25
    },
    {
      "t": 584,
      "ch": 1,
      "note": 38,
      "vel": 59,
      "dur": 25
    },
    {
      "t": 584,
      "ch": 1,
      "note": 40,
      "vel": 81,
      "dur": 25
    },
    {
      "t": 584,
      "ch": 1,
      "note": 42,
      "vel": 77,
      "dur": 25
    },
    {
      "t": 584,
      "ch": 1,
      "note": 36,
      "vel": 75,
      "dur": 25
    },
    {
      "t": 584,
      "ch": 1,
      "note": 38,
      "vel": 76,
      "dur": 25
    },
    {
      "t": 584,
      "ch": 1,
      "note": 40,
      "vel": 73,
      "dur": 25
    },
    {
      "t": 584,
      "ch": 1,
      "note": 42,
      "vel": 102,
      "dur": 25
    },
    {
      "t": 584,
      "ch": 1,
      "note": 36,
      "vel": 66,
      "dur": 25
    },
    {
      "t": 584,
      "ch": 1,
      "note": 38,
      "vel": 79,
      "dur": 25
    },
    {
      "t": 584,
      "ch": 1,
      "note": 40,
      "vel": 92,
      "dur": 25
    },
    {
      "t": 584,
      "ch": 1,
      "note": 42,
      "vel": 101,
      "dur": 25
    },
    {
      "t": 584,
      "ch": 1,
      "note": 36,
      "vel": 94,
      "dur": 25
    },
    {
      "t": 584,
      "ch": 1,
      "note": 38,
      "vel": 86,
      "dur": 25
    },
    {
      "t": 584,
      "ch": 1,
      "note": 40,
      "vel": 98,
      "dur": 25
    },
    {
      "t": 584,
      "ch": 1,
      "note": 42,
      "vel": 113,
      "dur": 25
    },
    {
      "t": 584,
      "ch": 1,
      "note": 36,
      "vel": 95,
      "dur": 25
    },
    {
      "t": 584,
      "ch": 1,
      "note": 38,
      "vel": 104,
      "dur": 25
    },
    {
      "t": 584,
      "ch": 1,
      "note": 40,
      "vel": 76,
      "dur": 25
    },
    {
      "t": 584,
      "ch": 1,
      "note": 42,
      "vel": 95,
      "dur": 25
    },
    {
      "t": 584,
      "ch": 1,
      "note": 36,
      "vel": 89,
      "dur": 25
    },
    {
      "t": 584,
      "ch": 1,
      "note": 38,
      "vel": 94,
      "dur": 25
    },
    {
      "t": 584,
      "ch": 1,
      "note": 40,
      "vel": 82,
      "dur": 25
    },
    {
      "t": 584,
      "ch": 1,
      "note": 42,
      "vel": 84,
      "dur": 25
    },
    {
      "t": 584,
      "ch": 1,
      "note": 36,
      "vel": 91,
      "dur": 25
    },
    {
      "t": 584,
      "ch": 1,
      "note": 38,
      "vel": 93,
      "dur": 25
    },
    {
      "t": 584,
      "ch": 1,
      "note": 40,
      "vel": 65,
      "dur": 25
    },
    {
      "t": 584,
      "ch": 1,
      "note": 42,
      "vel": 91,
      "dur": 25
    },
    {
      "t": 584,
      "ch": 1,
      "note": 36,
      "vel": 73,
      "dur": 25
    },
    {
      "t": 584,
      "ch": 1,
      "note": 38,
      "vel": 109,
      "dur": 25
    },
    {
      "t": 584,
      "ch": 1,
      "note": 40,
      "vel": 85,
      "dur": 25
    },
    {
      "t": 584,
      "ch": 1,
      "note": 42,
      "vel": 69,
      "dur": 25
    },
    {
      "t": 584,
      "ch": 1,
      "note": 36,
      "vel": 89,
      "dur": 25
    },
    {
      "t": 584,
      "ch": 1,
      "note": 38,
      "vel": 78,
      "dur": 25
    },
    {
      "t": 584,
      "ch": 1,
      "note": 40,
      "vel": 91,
      "dur": 25
    },
    {
      "t": 584,
      "ch": 1,
      "note": 42,
      "vel": 100,
      "dur": 25
    },
    {
      "t": 584,
      "ch": 1,
      "note": 36,
      "vel": 93,
      "dur": 25
    },
    {
      "t": 584,
      "ch": 1,
      "note": 38,
      "vel": 92,
      "dur": 25
    },
    {
      "t": 584,
      "ch": 1,
      "note": 40,
      "vel": 99,
      "dur": 25
    },
    {
      "t": 584,
      "ch": 1,
      "note": 42,
      "vel": 90,
      "dur": 25
    },
    {
      "t": 584,
      "ch": 1,
      "note": 36,
      "vel": 60,
      "dur": 25
    },
    {
      "t": 584,
      "ch": 1,
      "note": 38,
      "vel": 68,
      "dur": 25
    },
    {
      "t": 584,
      "ch": 1,
      "note": 40,
      "vel": 83,
      "dur": 25
    },
    {
      "t": 584,
      "ch": 1,
      "note": 42,
      "vel": 110,
      "dur": 25
    },
    {
      "t": 584,
      "ch": 1,
      "note": 36,
      "vel": 104,
      "dur": 25
    },
    {
      "t": 584,
      "ch": 1,
      "note": 38,
      "vel": 101,
      "dur": 25
    },
    {
      "t": 584,
      "ch": 1,
      "note": 40,
      "vel": 90,
      "dur": 25
    },
    {
      "t": 584,
      "ch": 1,
      "note": 42,
      "vel": 100,
      "dur": 25
    },
    {
      "t": 584,
      "ch": 1,
      "note": 36,
      "vel": 86,
      "dur": 25
    },
    {
      "t": 584,
      "ch": 1,
      "note": 38,
      "vel": 94,
      "dur": 25
    },
    {
      "t": 584,
      "ch": 1,
      "note": 40,
      "vel": 90,
      "dur": 25
    },
    {
      "t": 584,
      "ch": 1,
      "note": 42,
      "vel": 91,
      "dur": 25
    },
    {
      "t": 584,
      "ch": 1,
      "note": 36,
      "vel": 81,
      "dur": 25
    },
    {
      "t": 584,
      "ch": 1,
      "note": 38,
      "vel": 74,
      "dur": 25
    },
    {
      "t": 584,
      "ch": 1,
      "note": 40,
      "vel": 88,
      "dur": 25
    },
    {
      "t": 584,
      "ch": 1,
      "note": 42,
      "vel": 90,
      "dur": 25
    },
    {
      "t": 584,
      "ch": 1,
      "note": 36,
      "vel": 71,
      "dur": 25
    },
    {
      "t": 584,
      "ch": 1,
      "note": 38,
      "vel": 99,
      "dur": 25
    },
    {
      "t": 584,
      "ch": 1,
      "note": 40,
      "vel": 96,
      "dur": 25
    },
    {
      "t": 584,
      "ch": 1,
      "note": 42,
      "vel": 71,
      "dur": 25
    },
    {
      "t": 584.1,
      "ch": 1,
      "note": 36,
      "vel": 74,
      "dur": 25
    },
    {
      "t": 584.1,
      "ch": 1,
      "note": 38,
      "vel": 84,
      "dur": 25
    },
    {
      "t": 584.1,
      "ch": 1,
      "note": 40,
      "vel": 93,
      "dur": 25
    },
    {
      "t": 584.1,
      "ch": 1,
      "note": 42,
      "vel": 98,
      "dur": 25
    },
    {
      "t": 584.1,
      "ch": 1,
      "note": 36,
      "vel": 71,
      "dur": 25
    },
    {
      "t": 584.1,
      "ch": 1,
      "note": 38,
      "vel": 54,
      "dur": 25
    },
    {
      "t": 584.1,
      "ch": 1,
      "note": 40,
      "vel": 77,
      "dur": 25
    },
    {
      "t": 584.1,
      "ch": 1,
      "note": 42,
      "vel": 80,
      "dur": 25
    },
    {
      "t": 584.1,
      "ch": 1,
      "note": 36,
      "vel": 90,
      "dur": 25
    },
    {
      "t": 584.1,
      "ch": 1,
      "note": 38,
      "vel": 91,
      "dur": 25
    },
    {
      "t": 584.1,
      "ch": 1,
      "note": 40,
      "vel": 97,
      "dur": 25
    },
    {
      "t": 584.1,
      "ch": 1,
      "note": 42,
      "vel": 71,
      "dur": 25
    },
    {
      "t": 584.1,
      "ch": 1,
      "note": 36,
      "vel": 95,
      "dur": 25
    },
    {
      "t": 584.1,
      "ch": 1,
      "note": 38,
      "vel": 88,
      "dur": 25
    },
    {
      "t": 584.1,
      "ch": 1,
      "note": 40,
      "vel": 92,
      "dur": 25
    },
    {
      "t": 584.1,
      "ch": 1,
      "note": 42,
      "vel": 99,
      "dur": 25
    },
    {
      "t": 584.1,
      "ch": 1,
      "note": 36,
      "vel": 92,
      "dur": 25
    },
    {
      "t": 584.1,
      "ch": 1,
      "note": 38,
      "vel": 77,
      "dur": 25
    },
    {
      "t": 584.1,
      "ch": 1,
      "note": 40,
      "vel": 100,
      "dur": 25
    },
    {
      "t": 584.1,
      "ch": 1,
      "note": 42,
      "vel": 81,
      "dur": 25
    },
    {
      "t": 584.1,
      "ch": 1,
      "note": 36,
      "vel": 92,
      "dur": 25
    },
    {
      "t": 584.1,
      "ch": 1,
      "note": 38,
      "vel": 93,
      "dur": 25
    },
    {
      "t": 584.1,
      "ch": 1,
      "note": 40,
      "vel": 108,
      "dur": 25
    },
    {
      "t": 584.1,
      "ch": 1,
      "note": 42,
      "vel": 109,
      "dur": 25
    },
    {
      "t": 584.1,
      "ch": 1,
      "note": 36,
      "vel": 77,
      "dur": 25
    },
    {
      "t": 584.1,
      "ch": 1,
      "note": 38,
      "vel": 57,
      "dur": 25
    },
    {
      "t": 584.1,
      "ch": 1,
      "note": 40,
      "vel": 93,
      "dur": 25
    },
    {
      "t": 584.1,
      "ch": 1,
      "note": 42,
      "vel": 72,
      "dur": 25
    },
    {
      "t": 584.1,
      "ch": 1,
      "note": 36,
      "vel": 88,
      "dur": 25
    },
    {
      "t": 584.1,
      "ch": 1,
      "note": 38,
      "vel": 86,
      "dur": 25
    },
    {
      "t": 584.1,
      "ch": 1,
      "note": 40,
      "vel": 56,
      "dur": 25
    },
    {
      "t": 584.1,
      "ch": 1,
      "note": 42,
      "vel": 81,
      "dur": 25
    },
    {
      "t": 584.1,
      "ch": 1,
      "note": 36,
      "vel": 79,
      "dur": 25
    },
    {
      "t": 584.1,
      "ch": 1,
      "note": 38,
      "vel": 62,
      "dur": 25
    },
    {
      "t": 584.1,
      "ch": 1,
      "note": 40,
      "vel": 109,
      "dur": 25
    },
    {
      "t": 584.1,
      "ch": 1,
      "note": 42,
      "vel": 85,
      "dur": 25
    },
    {
      "t": 584.1,
      "ch": 1,
      "note": 36,
      "vel": 95,
      "dur": 25
    },
    {
      "t": 584.1,
      "ch": 1,
      "note": 38,
      "vel": 84,
      "dur": 25
    },
    {
      "t": 584.1,
      "ch": 1,
      "note": 40,
      "vel": 95,
      "dur": 25
    },
    {
      "t": 584.1,
      "ch": 1,
      "note": 42,
      "vel": 67,
      "dur": 25
    },
    {
      "t": 584.1,
      "ch": 1,
      "note": 36,
      "vel": 85,
      "dur": 25
    },
    {
      "t": 584.1,
      "ch": 1,
      "note": 38,
      "vel": 84,
      "dur": 25
    },
    {
      "t": 584.1,
      "ch": 1,
      "note": 40,
      "vel": 61,
      "dur": 25
    },
    {
      "t": 584.1,
      "ch": 1,
      "note": 42,
      "vel": 97,
      "dur": 25
    },
    {
      "t": 584.1,
      "ch": 1,
      "note": 36,
      "vel": 68,
      "dur": 25
    },
    {
      "t": 584.1,
      "ch": 1,
      "note": 38,
      "vel": 70,
      "dur": 25
    },
    {
      "t": 584.1,
      "ch": 1,
      "note": 40,
      "vel": 64,
      "dur": 25
    },
    {
      "t": 584.1,
      "ch": 1,
      "note": 42,
      "vel": 90,
      "dur": 25
    },
    {
      "t": 584.1,
      "ch": 1,
      "note": 36,
      "vel": 93,
      "dur": 25
    },
    {
      "t": 584.1,
      "ch": 1,
      "note": 38,
      "vel": 74,
      "dur": 25
    },
    {
      "t": 584.1,
      "ch": 1,
      "note": 40,
      "vel": 104,
      "dur": 25
    },
    {
      "t": 584.1,
      "ch": 1,
      "note": 42,
      "vel": 78,
      "dur": 25
    },
    {
      "t": 584.1,
      "ch": 1,
      "note": 36,
      "vel": 75,
      "dur": 25
    },
    {
      "t": 584.1,
      "ch": 1,
      "note": 38,
      "vel": 71,
      "dur": 25
    },
    {
      "t": 584.1,
      "ch": 1,
      "note": 40,
      "vel": 55,
      "dur": 25
    },
    {
      "t": 584.1,
      "ch": 1,
      "note": 42,
      "vel": 80,
      "dur": 25
    },
    {
      "t": 584.1,
      "ch": 1,
      "note": 36,
      "vel": 99,
      "dur": 25
    },
    {
      "t": 584.1,
      "ch": 1,
      "note": 38,
      "vel": 104,
      "dur": 25
    },
    {
      "t": 584.1,
      "ch": 1,
      "note": 40,
      "vel": 71,
      "dur": 25
    },
    {
      "t": 584.1,
      "ch": 1,
      "note": 42,
      "vel": 72,
      "dur": 25
    },
    {
      "t": 584.1,
      "ch": 1,
      "note": 36,
      "vel": 86,
      "dur": 25
    },
    {
      "t": 584.1,
      "ch": 1,
      "note": 38,
      "vel": 98,
      "dur": 25
    },
    {
      "t": 584.1,
      "ch": 1,
      "note": 40,
      "vel": 68,
      "dur": 25
    },
    {
      "t": 584.1,
      "ch": 1,
      "note": 42,
      "vel": 70,
      "dur": 25
    },
    {
      "t": 584.1,
      "ch": 1,
      "note": 36,
      "vel": 78,
      "dur": 25
    },
    {
      "t": 584.1,
      "ch": 1,
      "note": 38,
      "vel": 105,
      "dur": 25
    },
    {
      "t": 584.1,
      "ch": 1,
      "note": 40,
      "vel": 88,
      "dur": 25
    },
    {
      "t": 584.1,
      "ch": 1,
      "note": 42,
      "vel": 106,
      "dur": 25
    },
    {
      "t": 584.1,
      "ch": 1,
      "note": 36,
      "vel": 62,
      "dur": 25
    },
    {
      "t": 584.1,
      "ch": 1,
      "note": 38,
      "vel": 71,
      "dur": 25
    },
    {
      "t": 584.1,
      "ch": 1,
      "note": 40,
      "vel": 73,
      "dur": 25
    },
    {
      "t": 584.1,
      "ch": 1,
      "note": 42,
      "vel": 78,
      "dur": 25
    },
    {
      "t": 584.1,
      "ch": 1,
      "note": 36,
      "vel": 67,
      "dur": 25
    },
    {
      "t": 584.1,
      "ch": 1,
      "note": 38,
      "vel": 69,
      "dur": 25
    },
    {
      "t": 584.1,
      "ch": 1,
      "note": 40,
      "vel": 72,
      "dur": 25
    },
    {
      "t": 584.1,
      "ch": 1,
      "note": 42,
      "vel": 66,
      "dur": 25
    },
    {
      "t": 584.1,
      "ch": 1,
      "note": 36,
      "vel": 75,
      "dur": 25
    },
    {
      "t": 584.1,
      "ch": 1,
      "note": 38,
      "vel": 87,
      "dur": 25
    },
    {
      "t": 584.1,
      "ch": 1,
      "note": 40,
      "vel": 54,
      "dur": 25
    },
    {
      "t": 584.1,
      "ch": 1,
      "note": 42,
      "vel": 86,
      "dur": 25
    },
    {
      "t": 584.1,
      "ch": 1,
      "note": 36,
      "vel": 81,
      "dur": 25
    },
    {
      "t": 584.1,
      "ch": 1,
      "note": 38,
      "vel": 84,
      "dur": 25
    },
    {
      "t": 584.1,
      "ch": 1,
      "note": 40,
      "vel": 87,
      "dur": 25
    },
    {
      "t": 584.1,
      "ch": 1,
      "note": 42,
      "vel": 69,
      "dur": 25
    },
    {
      "t": 584.1,
      "ch": 1,
      "note": 36,
      "vel": 85,
      "dur": 25
    },
    {
      "t": 584.1,
      "ch": 1,
      "note": 38,
      "vel": 93,
      "dur": 25
    },
    {
      "t": 584.1,
      "ch": 1,
      "note": 40,
      "vel": 64,
      "dur": 25
    },
    {
      "t": 584.1,
      "ch": 1,
      "note": 42,
      "vel": 113,
      "dur": 25
    },
    {
      "t": 584.1,
      "ch": 1,
      "note": 36,
      "vel": 108,
      "dur": 25
    },
    {
      "t": 584.1,
      "ch": 1,
      "note": 38,
      "vel": 75,
      "dur": 25
    },
    {
      "t": 584.1,
      "ch": 1,
      "note": 40,
      "vel": 99,
      "dur": 25
    },
    {
      "t": 584.1,
      "ch": 1,
      "note": 42,
      "vel": 86,
      "dur": 25
    },
    {
      "t": 584.1,
      "ch": 1,
      "note": 36,
      "vel": 69,
      "dur": 25
    },
    {
      "t": 584.1,
      "ch": 1,
      "note": 38,
      "vel": 88,
      "dur": 25
    },
    {
      "t": 584.1,
      "ch": 1,
      "note": 40,
      "vel": 72,
      "dur": 25
    },
    {
      "t": 584.1,
      "ch": 1,
      "note": 42,
      "vel": 88,
      "dur": 25
    },
    {
      "t": 584.1,
      "ch": 1,
      "note": 36,
      "vel": 93,
      "dur": 25
    },
    {
      "t": 584.1,
      "ch": 1,
      "note": 38,
      "vel": 79,
      "dur": 25
    },
    {
      "t": 584.1,
      "ch": 1,
      "note": 40,
      "vel": 92,
      "dur": 25
    },
    {
      "t": 584.1,
      "ch": 1,
      "note": 42,
      "vel": 100,
      "dur": 25
    },
    {
      "t": 584.1,
      "ch": 1,
      "note": 36,
      "vel": 109,
      "dur": 25
    },
    {
      "t": 584.1,
      "ch": 1,
      "note": 38,
      "vel": 69,
      "dur": 25
    },
    {
      "t": 584.1,
      "ch": 1,
      "note": 40,
      "vel": 81,
      "dur": 25
    },
    {
      "t": 584.1,
      "ch": 1,
      "note": 42,
      "vel": 85,
      "dur": 25
    },
    {
      "t": 584.1,
      "ch": 1,
      "note": 36,
      "vel": 103,
      "dur": 25
    },
    {
      "t": 584.1,
      "ch": 1,
      "note": 38,
      "vel": 86,
      "dur": 25
    },
    {
      "t": 584.1,
      "ch": 1,
      "note": 40,
      "vel": 76,
      "dur": 25
    },
    {
      "t": 584.1,
      "ch": 1,
      "note": 42,
      "vel": 89,
      "dur": 25
    },
    {
      "t": 584.1,
      "ch": 1,
      "note": 36,
      "vel": 92,
      "dur": 25
    },
    {
      "t": 584.1,
      "ch": 1,
      "note": 38,
      "vel": 59,
      "dur": 25
    },
    {
      "t": 584.1,
      "ch": 1,
      "note": 40,
      "vel": 89,
      "dur": 25
    },
    {
      "t": 584.1,
      "ch": 1,
      "note": 42,
      "vel": 81,
      "dur": 25
    },
    {
      "t": 584.1,
      "ch": 1,
      "note": 36,
      "vel": 92,
      "dur": 25
    },
    {
      "t": 584.1,
      "ch": 1,
      "note": 38,
      "vel": 71,
      "dur": 25
    },
    {
      "t": 584.1,
      "ch": 1,
      "note": 40,
      "vel": 91,
      "dur": 25
    },
    {
      "t": 584.1,
      "ch": 1,
      "note": 42,
      "vel": 88,
      "dur": 25
    },
    {
      "t": 584.1,
      "ch": 1,
      "note": 36,
      "vel": 118,
      "dur": 25
    },
    {
      "t": 584.1,
      "ch": 1,
      "note": 38,
      "vel": 98,
      "dur": 25
    },
    {
      "t": 584.1,
      "ch": 1,
      "note": 40,
      "vel": 93,
      "dur": 25
    },
    {
      "t": 584.1,
      "ch": 1,
      "note": 42,
      "vel": 96,
      "dur": 25
    },
    {
      "t": 584.1,
      "ch": 1,
      "note": 36,
      "vel": 100,
      "dur": 25
    },
    {
      "t": 584.1,
      "ch": 1,
      "note": 38,
      "vel": 77,
      "dur": 25
    },
    {
      "t": 584.1,
      "ch": 1,
      "note": 40,
      "vel": 62,
      "dur": 25
    },
    {
      "t": 584.1,
      "ch": 1,
      "note": 42,
      "vel": 92,
      "dur": 25
    },
    {
      "t": 584.1,
      "ch": 1,
      "note": 36,
      "vel": 68,
      "dur": 25
    },
    {
      "t": 584.1,
      "ch": 1,
      "note": 38,
      "vel": 91,
      "dur": 25
    },
    {
      "t": 584.1,
      "ch": 1,
      "note": 40,
      "vel": 87,
      "dur": 25
    },
    {
      "t": 584.1,
      "ch": 1,
      "note": 42,
      "vel": 65,
      "dur": 25
    },
    {
      "t": 584.1,
      "ch": 1,
      "note": 36,
      "vel": 71,
      "dur": 25
    },
    {
      "t": 584.1,
      "ch": 1,
      "note": 38,
      "vel": 83,
      "dur": 25
    },
    {
      "t": 584.1,
      "ch": 1,
      "note": 40,
      "vel": 74,
      "dur": 25
    },
    {
      "t": 584.1,
      "ch": 1,
      "note": 42,
      "vel": 84,
      "dur": 25
    },
    {
      "t": 584.1,
      "ch": 1,
      "note": 36,
      "vel": 79,
      "dur": 25
    },
    {
      "t": 584.1,
      "ch": 1,
      "note": 38,
      "vel": 81,
      "dur": 25
    },
    {
      "t": 584.1,
      "ch": 1,
      "note": 40,
      "vel": 74,
      "dur": 25
    },
    {
      "t": 584.1,
      "ch": 1,
      "note": 42,
      "vel": 77,
      "dur": 25
    },
    {
      "t": 584.1,
      "ch": 1,
      "note": 36,
      "vel": 73,
      "dur": 25
    },
    {
      "t": 584.1,
      "ch": 1,
      "note": 38,
      "vel": 70,
      "dur": 25
    },
    {
      "t": 584.1,
      "ch": 1,
      "note": 40,
      "vel": 77,
      "dur": 25
    },
    {
      "t": 584.1,
      "ch": 1,
      "note": 42,
      "vel": 85,
      "dur": 25
    },
    {
      "t": 584.1,
      "ch": 1,
      "note": 36,
      "vel": 110,
      "dur": 25
    },
    {
      "t": 584.1,
      "ch": 1,
      "note": 38,
      "vel": 98,
      "dur": 25
    },
    {
      "t": 584.1,
      "ch": 1,
      "note": 40,
      "vel": 82,
      "dur": 25
    },
    {
      "t": 584.1,
      "ch": 1,
      "note": 42,
      "vel": 78,
      "dur": 25
    },
    {
      "t": 584.1,
      "ch": 1,
      "note": 36,
      "vel": 101,
      "dur": 25
    },
    {
      "t": 584.1,
      "ch": 1,
      "note": 38,
      "vel": 70,
      "dur": 25
    },
    {
      "t": 584.1,
      "ch": 1,
      "note": 40,
      "vel": 79,
      "dur": 25
    },
    {
      "t": 584.1,
      "ch": 1,
      "note": 42,
      "vel": 86,
      "dur": 25
    },
    {
      "t": 584.1,
      "ch": 1,
      "note": 36,
      "vel": 84,
      "dur": 25
    },
    {
      "t": 584.1,
      "ch": 1,
      "note": 38,
      "vel": 65,
      "dur": 25
    },
    {
      "t": 584.1,
      "ch": 1,
      "note": 40,
      "vel": 88,
      "dur": 25
    },
    {
      "t": 584.1,
      "ch": 1,
      "note": 42,
      "vel": 85,
      "dur": 25
    },
    {
      "t": 584.1,
      "ch": 1,
      "note": 36,
      "vel": 97,
      "dur": 25
    },
    {
      "t": 584.1,
      "ch": 1,
      "note": 38,
      "vel": 59,
      "dur": 25
    },
    {
      "t": 584.1,
      "ch": 1,
      "note": 40,
      "vel": 66,
      "dur": 25
    },
    {
      "t": 584.1,
      "ch": 1,
      "note": 42,
      "vel": 97,
      "dur": 25
    },
    {
      "t": 584.1,
      "ch": 1,
      "note": 36,
      "vel": 90,
      "dur": 25
    },
    {
      "t": 584.1,
      "ch": 1,
      "note": 38,
      "vel": 83,
      "dur": 25
    },
    {
      "t": 584.1,
      "ch": 1,
      "note": 40,
      "vel": 75,
      "dur": 25
    },
    {
      "t": 584.1,
      "ch": 1,
      "note": 42,
      "vel": 64,
      "dur": 25
    },
    {
      "t": 584.1,
      "ch": 1,
      "note": 36,
      "vel": 82,
      "dur": 25
    },
    {
      "t": 584.1,
      "ch": 1,
      "note": 38,
      "vel": 79,
      "dur": 25
    },
    {
      "t": 584.1,
      "ch": 1,
      "note": 40,
      "vel": 80,
      "dur": 25
    },
    {
      "t": 584.1,
      "ch": 1,
      "note": 42,
      "vel": 105,
      "dur": 25
    },
    {
      "t": 584.1,
      "ch": 1,
      "note": 36,
      "vel": 61,
      "dur": 25
    },
    {
      "t": 584.1,
      "ch": 1,
      "note": 38,
      "vel": 82,
      "dur": 25
    },
    {
      "t": 584.1,
      "ch": 1,
      "note": 40,
      "vel": 87,
      "dur": 25
    },
    {
      "t": 584.1,
      "ch": 1,
      "note": 42,
      "vel": 68,
      "dur": 25
    },
    {
      "t": 584.1,
      "ch": 1,
      "note": 36,
      "vel": 90,
      "dur": 25
    },
    {
      "t": 584.1,
      "ch": 1,
      "note": 38,
      "vel": 72,
      "dur": 25
    },
    {
      "t": 584.1,
      "ch": 1,
      "note": 40,
      "vel": 85,
      "dur": 25
    },
    {
      "t": 584.1,
      "ch": 1,
      "note": 42,
      "vel": 90,
      "dur": 25
    },
    {
      "t": 584.1,
      "ch": 1,
      "note": 36,
      "vel": 67,
      "dur": 25
    },
    {
      "t": 584.1,
      "ch": 1,
      "note": 38,
      "vel": 112,
      "dur": 25
    },
    {
      "t": 584.1,
      "ch": 1,
      "note": 40,
      "vel": 78,
      "dur": 25
    },
    {
      "t": 584.1,
      "ch": 1,
      "note": 42,
      "vel": 95,
      "dur": 25
    },
    {
      "t": 584.1,
      "ch": 1,
      "note": 36,
      "vel": 114,
      "dur": 25
    },
    {
      "t": 584.1,
      "ch": 1,
      "note": 38,
      "vel": 55,
      "dur": 25
    },
    {
      "t": 584.1,
      "ch": 1,
      "note": 40,
      "vel": 95,
      "dur": 25
    },
    {
      "t": 584.1,
      "ch": 1,
      "note": 42,
      "vel": 102,
      "dur": 25
    },
    {
      "t": 584.1,
      "ch": 1,
      "note": 36,
      "vel": 59,
      "dur": 25
    },
    {
      "t": 584.1,
      "ch": 1,
      "note": 38,
      "vel": 91,
      "dur": 25
    },
    {
      "t": 584.1,
      "ch": 1,
      "note": 40,
      "vel": 105,
      "dur": 25
    },
    {
      "t": 584.1,
      "ch": 1,
      "note": 42,
      "vel": 83,
      "dur": 25
    },
    {
      "t": 584.1,
      "ch": 1,
      "note": 36,
      "vel": 108,
      "dur": 25
    },
    {
      "t": 584.1,
      "ch": 1,
      "note": 38,
      "vel": 97,
      "dur": 25
    },
    {
      "t": 584.1,
      "ch": 1,
      "note": 40,
      "vel": 73,
      "dur": 25
    },
    {
      "t": 584.1,
      "ch": 1,
      "note": 42,
      "vel": 89,
      "dur": 25
    },
    {
      "t": 584.1,
      "ch": 1,
      "note": 36,
      "vel": 82,
      "dur": 25
    },
    {
      "t": 584.1,
      "ch": 1,
      "note": 38,
      "vel": 102,
      "dur": 25
    },
    {
      "t": 584.1,
      "ch": 1,
      "note": 40,
      "vel": 84,
      "dur": 25
    },
    {
      "t": 584.1,
      "ch": 1,
      "note": 42,
      "vel": 66,
      "dur": 25
    },
    {
      "t": 584.1,
      "ch": 1,
      "note": 36,
      "vel": 94,
      "dur": 25
    },
    {
      "t": 584.1,
      "ch": 1,
      "note": 38,
      "vel": 91,
      "dur": 25
    },
    {
      "t": 584.1,
      "ch": 1,
      "note": 40,
      "vel": 91,
      "dur": 25
    },
    {
      "t": 584.1,
      "ch": 1,
      "note": 42,
      "vel": 70,
      "dur": 25
    },
    {
      "t": 584.1,
      "ch": 1,
      "note": 36,
      "vel": 88,
      "dur": 25
    },
    {
      "t": 584.1,
      "ch": 1,
      "note": 38,
      "vel": 108,
      "dur": 25
    },
    {
      "t": 584.1,
      "ch": 1,
      "note": 40,
      "vel": 102,
      "dur": 25
    },
    {
      "t": 584.1,
      "ch": 1,
      "note": 42,
      "vel": 67,
      "dur": 25
    },
    {
      "t": 584.1,
      "ch": 1,
      "note": 36,
      "vel": 63,
      "dur": 25
    },
    {
      "t": 584.1,
      "ch": 1,
      "note": 38,
      "vel": 74,
      "dur": 25
    },
    {
      "t": 584.1,
      "ch": 1,
      "note": 40,
      "vel": 86,
      "dur": 25
    },
    {
      "t": 584.1,
      "ch": 1,
      "note": 42,
      "vel": 90,
      "dur": 25
    },
    {
      "t": 584.1,
      "ch": 1,
      "note": 36,
      "vel": 62,
      "dur": 25
    },
    {
      "t": 584.1,
      "ch": 1,
      "note": 38,
      "vel": 64,
      "dur": 25
    },
    {
      "t": 584.1,
      "ch": 1,
      "note": 40,
      "vel": 87,
      "dur": 25
    },
    {
      "t": 584.1,
      "ch": 1,
      "note": 42,
      "vel": 84,
      "dur": 25
    },
    {
      "t": 584.1,
      "ch": 1,
      "note": 36,
      "vel": 80,
      "dur": 25
    },
    {
      "t": 584.1,
      "ch": 1,
      "note": 38,
      "vel": 96,
      "dur": 25
    },
    {
      "t": 584.1,
      "ch": 1,
      "note": 40,
      "vel": 95,
      "dur": 25
    },
    {
      "t": 584.1,
      "ch": 1,
      "note": 42,
      "vel": 101,
      "dur": 25
    },
    {
      "t": 584.1,
      "ch": 1,
      "note": 36,
      "vel": 109,
      "dur": 25
    },
    {
      "t": 584.1,
      "ch": 1,
      "note": 38,
      "vel": 87,
      "dur": 25
    },
    {
      "t": 584.1,
      "ch": 1,
      "note": 40,
      "vel": 83,
      "dur": 25
    },
    {
      "t": 584.1,
      "ch": 1,
      "note": 42,
      "vel": 81,
      "dur": 25
    },
    {
      "t": 584.1,
      "ch": 1,
      "note": 36,
      "vel": 82,
      "dur": 25
    },
    {
      "t": 584.1,
      "ch": 1,
      "note": 38,
      "vel": 87,
      "dur": 25
    },
    {
      "t": 584.1,
      "ch": 1,
      "note": 40,
      "vel": 97,
      "dur": 25
    },
    {
      "t": 584.1,
      "ch": 1,
      "note": 42,
      "vel": 64,
      "dur": 25
    },
    {
      "t": 584.1,
      "ch": 1,
      "note": 36,
      "vel": 79,
      "dur": 25
    },
    {
      "t": 584.1,
      "ch": 1,
      "note": 38,
      "vel": 92,
      "dur": 25
    },
    {
      "t": 584.1,
      "ch": 1,
      "note": 40,
      "vel": 69,
      "dur": 25
    },
    {
      "t": 584.1,
      "ch": 1,
      "note": 42,
      "vel": 92,
      "dur": 25
    },
    {
      "t": 584.1,
      "ch": 1,
      "note": 36,
      "vel": 100,
      "dur": 25
    },
    {
      "t": 584.1,
      "ch": 1,
      "note": 38,
      "vel": 83,
      "dur": 25
    },
    {
      "t": 584.1,
      "ch": 1,
      "note": 40,
      "vel": 74,
      "dur": 25
    },
    {
      "t": 584.1,
      "ch": 1,
      "note": 42,
      "vel": 108,
      "dur": 25
    },
    {
      "t": 584.1,
      "ch": 1,
      "note": 36,
      "vel": 77,
      "dur": 25
    },
    {
      "t": 584.1,
      "ch": 1,
      "note": 38,
      "vel": 92,
      "dur": 25
    },
    {
      "t": 584.1,
      "ch": 1,
      "note": 40,
      "vel": 76,
      "dur": 25
    },
    {
      "t": 584.1,
      "ch": 1,
      "note": 42,
      "vel": 90,
      "dur": 25
    },
    {
      "t": 584.1,
      "ch": 1,
      "note": 36,
      "vel": 58,
      "dur": 25
    },
    {
      "t": 584.1,
      "ch": 1,
      "note": 38,
      "vel": 94,
      "dur": 25
    },
    {
      "t": 584.1,
      "ch": 1,
      "note": 40,
      "vel": 95,
      "dur": 25
    },
    {
      "t": 584.1,
      "ch": 1,
      "note": 42,
      "vel": 96,
      "dur": 25
    },
    {
      "t": 584.1,
      "ch": 1,
      "note": 36,
      "vel": 89,
      "dur": 25
    },
    {
      "t": 584.1,
      "ch": 1,
      "note": 38,
      "vel": 101,
      "dur": 25
    },
    {
      "t": 584.1,
      "ch": 1,
      "note": 40,
      "vel": 107,
      "dur": 25
    },
    {
      "t": 584.1,
      "ch": 1,
      "note": 42,
      "vel": 69,
      "dur": 25
    },
    {
      "t": 584.1,
      "ch": 1,
      "note": 36,
      "vel": 79,
      "dur": 25
    },
    {
      "t": 584.1,
      "ch": 1,
      "note": 38,
      "vel": 96,
      "dur": 25
    },
    {
      "t": 584.1,
      "ch": 1,
      "note": 40,
      "vel": 92,
      "dur": 25
    },
    {
      "t": 584.1,
      "ch": 1,
      "note": 42,
      "vel": 64,
      "dur": 25
    },
    {
      "t": 584.1,
      "ch": 1,
      "note": 36,
      "vel": 99,
      "dur": 25
    },
    {
      "t": 584.1,
      "ch": 1,
      "note": 38,
      "vel": 94,
      "dur": 25
    },
    {
      "t": 584.1,
      "ch": 1,
      "note": 40,
      "vel": 66,
      "dur": 25
    },
    {
      "t": 584.1,
      "ch": 1,
      "note": 42,
      "vel": 60,
      "dur": 25
    },
    {
      "t": 584.1,
      "ch": 1,
      "note": 36,
      "vel": 74,
      "dur": 25
    },
    {
      "t": 584.1,
      "ch": 1,
      "note": 38,
      "vel": 74,
      "dur": 25
    },
    {
      "t": 584.1,
      "ch": 1,
      "note": 40,
      "vel": 93,
      "dur": 25
    },
    {
      "t": 584.1,
      "ch": 1,
      "note": 42,
      "vel": 81,
      "dur": 25
    },
    {
      "t": 584.1,
      "ch": 1,
      "note": 36,
      "vel": 64,
      "dur": 25
    },
    {
      "t": 584.1,
      "ch": 1,
      "note": 38,
      "vel": 90,
      "dur": 25
    },
    {
      "t": 584.1,
      "ch": 1,
      "note": 40,
      "vel": 70,
      "dur": 25
    },
    {
      "t": 584.1,
      "ch": 1,
      "note": 42,
      "vel": 81,
      "dur": 25
    },
    {
      "t": 584.1,
      "ch": 1,
      "note": 36,
      "vel": 89,
      "dur": 25
    },
    {
      "t": 584.1,
      "ch": 1,
      "note": 38,
      "vel": 94,
      "dur": 25
    },
    {
      "t": 584.1,
      "ch": 1,
      "note": 40,
      "vel": 67,
      "dur": 25
    },
    {
      "t": 584.1,
      "ch": 1,
      "note": 42,
      "vel": 91,
      "dur": 25
    },
    {
      "t": 584.1,
      "ch": 1,
      "note": 36,
      "vel": 74,
      "dur": 25
    },
    {
      "t": 584.1,
      "ch": 1,
      "note": 38,
      "vel": 66,
      "dur": 25
    },
    {
      "t": 584.1,
      "ch": 1,
      "note": 40,
      "vel": 62,
      "dur": 25
    },
    {
      "t": 584.1,
      "ch": 1,
      "note": 42,
      "vel": 60,
      "dur": 25
    },
    {
      "t": 584.1,
      "ch": 1,
      "note": 36,
      "vel": 79,
      "dur": 25
    },
    {
      "t": 584.1,
      "ch": 1,
      "note": 38,
      "vel": 100,
      "dur": 25
    },
    {
      "t": 584.1,
      "ch": 1,
      "note": 40,
      "vel": 93,
      "dur": 25
    },
    {
      "t": 584.1,
      "ch": 1,
      "note": 42,
      "vel": 84,
      "dur": 25
    },
    {
      "t": 584.1,
      "ch": 1,
      "note": 36,
      "vel": 89,
      "dur": 25
    },
    {
      "t": 584.1,
      "ch": 1,
      "note": 38,
      "vel": 89,
      "dur": 25
    },
    {
      "t": 584.1,
      "ch": 1,
      "note": 40,
      "vel": 90,
      "dur": 25
    },
    {
      "t": 584.1,
      "ch": 1,
      "note": 42,
      "vel": 79,
      "dur": 25
    },
    {
      "t": 584.1,
      "ch": 1,
      "note": 36,
      "vel": 90,
      "dur": 25
    },
    {
      "t": 584.1,
      "ch": 1,
      "note": 38,
      "vel": 72,
      "dur": 25
    },
    {
      "t": 584.1,
      "ch": 1,
      "note": 40,
      "vel": 90,
      "dur": 25
    },
    {
      "t": 584.1,
      "ch": 1,
      "note": 42,
      "vel": 85,
      "dur": 25
    },
    {
      "t": 584.1,
      "ch": 1,
      "note": 36,
      "vel": 77,
      "dur": 25
    },
    {
      "t": 584.1,
      "ch": 1,
      "note": 38,
      "vel": 74,
      "dur": 25
    },
    {
      "t": 584.1,
      "ch": 1,
      "note": 40,
      "vel": 83,
      "dur": 25
    },
    {
      "t": 584.1,
      "ch": 1,
      "note": 42,
      "vel": 95,
      "dur": 25
    },
    {
      "t": 584.1,
      "ch": 1,
      "note": 36,
      "vel": 104,
      "dur": 25
    },
    {
      "t": 584.1,
      "ch": 1,
      "note": 38,
      "vel": 75,
      "dur": 25
    },
    {
      "t": 584.1,
      "ch": 1,
      "note": 40,
      "vel": 92,
      "dur": 25
    },
    {
      "t": 584.1,
      "ch": 1,
      "note": 42,
      "vel": 73,
      "dur": 25
    },
    {
      "t": 584.1,
      "ch": 1,
      "note": 36,
      "vel": 84,
      "dur": 25
    },
    {
      "t": 584.1,
      "ch": 1,
      "note": 38,
      "vel": 102,
      "dur": 25
    },
    {
      "t": 584.1,
      "ch": 1,
      "note": 40,
      "vel": 91,
      "dur": 25
    },
    {
      "t": 584.1,
      "ch": 1,
      "note": 42,
      "vel": 92,
      "dur": 25
    },
    {
      "t": 584.1,
      "ch": 1,
      "note": 36,
      "vel": 85,
      "dur": 25
    },
    {
      "t": 584.1,
      "ch": 1,
      "note": 38,
      "vel": 75,
      "dur": 25
    },
    {
      "t": 584.1,
      "ch": 1,
      "note": 40,
      "vel": 92,
      "dur": 25
    },
    {
      "t": 584.1,
      "ch": 1,
      "note": 42,
      "vel": 68,
      "dur": 25
    },
    {
      "t": 584.1,
      "ch": 1,
      "note": 36,
      "vel": 91,
      "dur": 25
    },
    {
      "t": 584.1,
      "ch": 1,
      "note": 38,
      "vel": 110,
      "dur": 25
    },
    {
      "t": 584.1,
      "ch": 1,
      "note": 40,
      "vel": 80,
      "dur": 25
    },
    {
      "t": 584.1,
      "ch": 1,
      "note": 42,
      "vel": 98,
      "dur": 25
    },
    {
      "t": 584.1,
      "ch": 1,
      "note": 36,
      "vel": 91,
      "dur": 25
    },
    {
      "t": 584.1,
      "ch": 1,
      "note": 38,
      "vel": 74,
      "dur": 25
    },
    {
      "t": 584.1,
      "ch": 1,
      "note": 40,
      "vel": 75,
      "dur": 25
    },
    {
      "t": 584.1,
      "ch": 1,
      "note": 42,
      "vel": 102,
      "dur": 25
    },
    {
      "t": 584.1,
      "ch": 1,
      "note": 36,
      "vel": 99,
      "dur": 25
    },
    {
      "t": 584.1,
      "ch": 1,
      "note": 38,
      "vel": 87,
      "dur": 25
    },
    {
      "t": 584.1,
      "ch": 1,
      "note": 40,
      "vel": 74,
      "dur": 25
    },
    {
      "t": 584.1,
      "ch": 1,
      "note": 42,
      "vel": 66,
      "dur": 25
    },
    {
      "t": 584.1,
      "ch": 1,
      "note": 36,
      "vel": 79,
      "dur": 25
    },
    {
      "t": 584.1,
      "ch": 1,
      "note": 38,
      "vel": 69,
      "dur": 25
    },
    {
      "t": 584.1,
      "ch": 1,
      "note": 40,
      "vel": 86,
      "dur": 25
    },
    {
      "t": 584.1,
      "ch": 1,
      "note": 42,
      "vel": 92,
      "dur": 25
    },
    {
      "t": 584.1,
      "ch": 1,
      "note": 36,
      "vel": 69,
      "dur": 25
    },
    {
      "t": 584.1,
      "ch": 1,
      "note": 38,
      "vel": 96,
      "dur": 25
    },
    {
      "t": 584.1,
      "ch": 1,
      "note": 40,
      "vel": 88,
      "dur": 25
    },
    {
      "t": 584.1,
      "ch": 1,
      "note": 42,
      "vel": 83,
      "dur": 25
    },
    {
      "t": 584.1,
      "ch": 1,
      "note": 36,
      "vel": 107,
      "dur": 25
    },
    {
      "t": 584.1,
      "ch": 1,
      "note": 38,
      "vel": 80,
      "dur": 25
    },
    {
      "t": 584.1,
      "ch": 1,
      "note": 40,
      "vel": 98,
      "dur": 25
    },
    {
      "t": 584.1,
      "ch": 1,
      "note": 42,
      "vel": 71,
      "dur": 25
    },
    {
      "t": 584.1,
      "ch": 1,
      "note": 36,
      "vel": 68,
      "dur": 25
    },
    {
      "t": 584.1,
      "ch": 1,
      "note": 38,
      "vel": 77,
      "dur": 25
    },
    {
      "t": 584.1,
      "ch": 1,
      "note": 40,
      "vel": 88,
      "dur": 25
    },
    {
      "t": 584.1,
      "ch": 1,
      "note": 42,
      "vel": 95,
      "dur": 25
    },
    {
      "t": 584.1,
      "ch": 1,
      "note": 36,
      "vel": 54,
      "dur": 25
    },
    {
      "t": 584.1,
      "ch": 1,
      "note": 38,
      "vel": 59,
      "dur": 25
    },
    {
      "t": 584.1,
      "ch": 1,
      "note": 40,
      "vel": 70,
      "dur": 25
    },
    {
      "t": 584.1,
      "ch": 1,
      "note": 42,
      "vel": 90,
      "dur": 25
    },
    {
      "t": 584.1,
      "ch": 1,
      "note": 36,
      "vel": 66,
      "dur": 25
    },
    {
      "t": 584.1,
      "ch": 1,
      "note": 38,
      "vel": 78,
      "dur": 25
    },
    {
      "t": 584.1,
      "ch": 1,
      "note": 40,
      "vel": 100,
      "dur": 25
    },
    {
      "t": 584.1,
      "ch": 1,
      "note": 42,
      "vel": 68,
      "dur": 25
    },
    {
      "t": 584.1,
      "ch": 1,
      "note": 36,
      "vel": 111,
      "dur": 25
    },
    {
      "t": 584.1,
      "ch": 1,
      "note": 38,
      "vel": 84,
      "dur": 25
    },
    {
      "t": 584.1,
      "ch": 1,
      "note": 40,
      "vel": 88,
      "dur": 25
    },
    {
      "t": 584.1,
      "ch": 1,
      "note": 42,
      "vel": 70,
      "dur": 25
    },
    {
      "t": 584.1,
      "ch": 1,
      "note": 36,
      "vel": 95,
      "dur": 25
    },
    {
      "t": 584.1,
      "ch": 1,
      "note": 38,
      "vel": 76,
      "dur": 25
    },
    {
      "t": 584.1,
      "ch": 1,
      "note": 40,
      "vel": 80,
      "dur": 25
    },
    {
      "t": 584.1,
      "ch": 1,
      "note": 42,
      "vel": 100,
      "dur": 25
    },
    {
      "t": 584.1,
      "ch": 1,
      "note": 36,
      "vel": 60,
      "dur": 25
    },
    {
      "t": 584.1,
      "ch": 1,
      "note": 38,
      "vel": 88,
      "dur": 25
    },
    {
      "t": 584.1,
      "ch": 1,
      "note": 40,
      "vel": 96,
      "dur": 25
    },
    {
      "t": 584.1,
      "ch": 1,
      "note": 42,
      "vel": 82,
      "dur": 25
    },
    {
      "t": 584.1,
      "ch": 1,
      "note": 36,
      "vel": 86,
      "dur": 25
    },
    {
      "t": 584.1,
      "ch": 1,
      "note": 38,
      "vel": 101,
      "dur": 25
    },
    {
      "t": 584.1,
      "ch": 1,
      "note": 40,
      "vel": 98,
      "dur": 25
    },
    {
      "t": 584.1,
      "ch": 1,
      "note": 42,
      "vel": 64,
      "dur": 25
    },
    {
      "t": 584.1,
      "ch": 1,
      "note": 36,
      "vel": 99,
      "dur": 25
    },
    {
      "t": 584.1,
      "ch": 1,
      "note": 38,
      "vel": 90,
      "dur": 25
    },
    {
      "t": 584.1,
      "ch": 1,
      "note": 40,
      "vel": 72,
      "dur": 25
    },
    {
      "t": 584.1,
      "ch": 1,
      "note": 42,
      "vel": 100,
      "dur": 25
    },
    {
      "t": 584.1,
      "ch": 1,
      "note": 36,
      "vel": 102,
      "dur": 25
    },
    {
      "t": 584.1,
      "ch": 1,
      "note": 38,
      "vel": 92,
      "dur": 25
    },
    {
      "t": 584.1,
      "ch": 1,
      "note": 40,
      "vel": 72,
      "dur": 25
    },
    {
      "t": 584.1,
      "ch": 1,
      "note": 42,
      "vel": 51,
      "dur": 25
    },
    {
      "t": 584.1,
      "ch": 1,
      "note": 36,
      "vel": 77,
      "dur": 25
    },
    {
      "t": 584.1,
      "ch": 1,
      "note": 38,
      "vel": 92,
      "dur": 25
    },
    {
      "t": 584.1,
      "ch": 1,
      "note": 40,
      "vel": 92,
      "dur": 25
    },
    {
      "t": 584.1,
      "ch": 1,
      "note": 42,
      "vel": 72,
      "dur": 25
    },
    {
      "t": 584.1,
      "ch": 1,
      "note": 36,
      "vel": 72,
      "dur": 25
    },
    {
      "t": 584.1,
      "ch": 1,
      "note": 38,
      "vel": 94,
      "dur": 25
    },
    {
      "t": 584.1,
      "ch": 1,
      "note": 40,
      "vel": 91,
      "dur": 25
    },
    {
      "t": 584.1,
      "ch": 1,
      "note": 42,
      "vel": 90,
      "dur": 25
    },
    {
      "t": 584.1,
      "ch": 1,
      "note": 36,
      "vel": 79,
      "dur": 25
    },
    {
      "t": 584.1,
      "ch": 1,
      "note": 38,
      "vel": 86,
      "dur": 25
    },
    {
      "t": 584.1,
      "ch": 1,
      "note": 40,
      "vel": 90,
      "dur": 25
    },
    {
      "t": 584.1,
      "ch": 1,
      "note": 42,
      "vel": 85,
      "dur": 25
    },
    {
      "t": 584.1,
      "ch": 1,
      "note": 36,
      "vel": 94,
      "dur": 25
    },
    {
      "t": 584.1,
      "ch": 1,
      "note": 38,
      "vel": 84,
      "dur": 25
    },
    {
      "t": 584.1,
      "ch": 1,
      "note": 40,
      "vel": 75,
      "dur": 25
    },
    {
      "t": 584.1,
      "ch": 1,
      "note": 42,
      "vel": 80,
      "dur": 25
    },
    {
      "t": 584.1,
      "ch": 1,
      "note": 36,
      "vel": 78,
      "dur": 25
    },
    {
      "t": 584.1,
      "ch": 1,
      "note": 38,
      "vel": 62,
      "dur": 25
    },
    {
      "t": 584.1,
      "ch": 1,
      "note": 40,
      "vel": 73,
      "dur": 25
    },
    {
      "t": 584.1,
      "ch": 1,
      "note": 42,
      "vel": 73,
      "dur": 25
    },
    {
      "t": 584.1,
      "ch": 1,
      "note": 36,
      "vel": 71,
      "dur": 25
    },
    {
      "t": 584.1,
      "ch": 1,
      "note": 38,
      "vel": 91,
      "dur": 25
    },
    {
      "t": 584.1,
      "ch": 1,
      "note": 40,
      "vel": 101,
      "dur": 25
    },
    {
      "t": 584.1,
      "ch": 1,
      "note": 42,
      "vel": 74,
      "dur": 25
    },
    {
      "t": 584.1,
      "ch": 1,
      "note": 36,
      "vel": 86,
      "dur": 25
    },
    {
      "t": 584.1,
      "ch": 1,
      "note": 38,
      "vel": 76,
      "dur": 25
    },
    {
      "t": 584.1,
      "ch": 1,
      "note": 40,
      "vel": 91,
      "dur": 25
    },
    {
      "t": 584.1,
      "ch": 1,
      "note": 42,
      "vel": 78,
      "dur": 25
    },
    {
      "t": 584.1,
      "ch": 1,
      "note": 36,
      "vel": 105,
      "dur": 25
    },
    {
      "t": 584.1,
      "ch": 1,
      "note": 38,
      "vel": 97,
      "dur": 25
    },
    {
      "t": 584.1,
      "ch": 1,
      "note": 40,
      "vel": 63,
      "dur": 25
    },
    {
      "t": 584.1,
      "ch": 1,
      "note": 42,
      "vel": 65,
      "dur": 25
    },
    {
      "t": 584.1,
      "ch": 1,
      "note": 36,
      "vel": 63,
      "dur": 25
    },
    {
      "t": 584.1,
      "ch": 1,
      "note": 38,
      "vel": 111,
      "dur": 25
    },
    {
      "t": 584.1,
      "ch": 1,
      "note": 40,
      "vel": 52,
      "dur": 25
    },
    {
      "t": 584.1,
      "ch": 1,
      "note": 42,
      "vel": 85,
      "dur": 25
    },
    {
      "t": 584.1,
      "ch": 1,
      "note": 36,
      "vel": 82,
      "dur": 25
    },
    {
      "t": 584.1,
      "ch": 1,
      "note": 38,
      "vel": 93,
      "dur": 25
    },
    {
      "t": 584.1,
      "ch": 1,
      "note": 40,
      "vel": 85,
      "dur": 25
    },
    {
      "t": 584.1,
      "ch": 1,
      "note": 42,
      "vel": 90,
      "dur": 25
    },
    {
      "t": 584.1,
      "ch": 1,
      "note": 36,
      "vel": 93,
      "dur": 25
    },
    {
      "t": 584.1,
      "ch": 1,
      "note": 38,
      "vel": 100,
      "dur": 25
    },
    {
      "t": 584.1,
      "ch": 1,
      "note": 40,
      "vel": 68,
      "dur": 25
    },
    {
      "t": 584.1,
      "ch": 1,
      "note": 42,
      "vel": 99,
      "dur": 25
    },
    {
      "t": 584.1,
      "ch": 1,
      "note": 36,
      "vel": 87,
      "dur": 25
    },
    {
      "t": 584.1,
      "ch": 1,
      "note": 38,
      "vel": 66,
      "dur": 25
    },
    {
      "t": 584.1,
      "ch": 1,
      "note": 40,
      "vel": 75,
      "dur": 25
    },
    {
      "t": 584.1,
      "ch": 1,
      "note": 42,
      "vel": 85,
      "dur": 25
    },
    {
      "t": 584.1,
      "ch": 1,
      "note": 36,
      "vel": 105,
      "dur": 25
    },
    {
      "t": 584.1,
      "ch": 1,
      "note": 38,
      "vel": 88,
      "dur": 25
    },
    {
      "t": 584.1,
      "ch": 1,
      "note": 40,
      "vel": 83,
      "dur": 25
    },
    {
      "t": 584.1,
      "ch": 1,
      "note": 42,
      "vel": 82,
      "dur": 25
    },
    {
      "t": 584.1,
      "ch": 1,
      "note": 36,
      "vel": 98,
      "dur": 25
    },
    {
      "t": 584.1,
      "ch": 1,
      "note": 38,
      "vel": 94,
      "dur": 25
    },
    {
      "t": 584.1,
      "ch": 1,
      "note": 40,
      "vel": 94,
      "dur": 25
    },
    {
      "t": 584.1,
      "ch": 1,
      "note": 42,
      "vel": 79,
      "dur": 25
    },
    {
      "t": 584.1,
      "ch": 1,
      "note": 36,
      "vel": 86,
      "dur": 25
    },
    {
      "t": 584.1,
      "ch": 1,
      "note": 38,
      "vel": 85,
      "dur": 25
    },
    {
      "t": 584.1,
      "ch": 1,
      "note": 40,
      "vel": 84,
      "dur": 25
    },
    {
      "t": 584.1,
      "ch": 1,
      "note": 42,
      "vel": 100,
      "dur": 25
    },
    {
      "t": 584.1,
      "ch": 1,
      "note": 36,
      "vel": 105,
      "dur": 25
    },
    {
      "t": 584.1,
      "ch": 1,
      "note": 38,
      "vel": 86,
      "dur": 25
    },
    {
      "t": 584.1,
      "ch": 1,
      "note": 40,
      "vel": 93,
      "dur": 25
    },
    {
      "t": 584.1,
      "ch": 1,
      "note": 42,
      "vel": 77,
      "dur": 25
    },
    {
      "t": 584.1,
      "ch": 1,
      "note": 36,
      "vel": 81,
      "dur": 25
    },
    {
      "t": 584.1,
      "ch": 1,
      "note": 38,
      "vel": 77,
      "dur": 25
    },
    {
      "t": 584.1,
      "ch": 1,
      "note": 40,
      "vel": 98,
      "dur": 25
    },
    {
      "t": 584.1,
      "ch": 1,
      "note": 42,
      "vel": 75,
      "dur": 25
    },
    {
      "t": 584.1,
      "ch": 1,
      "note": 36,
      "vel": 89,
      "dur": 25
    },
    {
      "t": 584.1,
      "ch": 1,
      "note": 38,
      "vel": 92,
      "dur": 25
    },
    {
      "t": 584.1,
      "ch": 1,
      "note": 40,
      "vel": 101,
      "dur": 25
    },
    {
      "t": 584.1,
      "ch": 1,
      "note": 42,
      "vel": 91,
      "dur": 25
    },
    {
      "t": 584.1,
      "ch": 1,
      "note": 36,
      "vel": 86,
      "dur": 25
    },
    {
      "t": 584.1,
      "ch": 1,
      "note": 38,
      "vel": 95,
      "dur": 25
    },
    {
      "t": 584.1,
      "ch": 1,
      "note": 40,
      "vel": 85,
      "dur": 25
    },
    {
      "t": 584.1,
      "ch": 1,
      "note": 42,
      "vel": 77,
      "dur": 25
    },
    {
      "t": 584.1,
      "ch": 1,
      "note": 36,
      "vel": 65,
      "dur": 25
    },
    {
      "t": 584.1,
      "ch": 1,
      "note": 38,
      "vel": 96,
      "dur": 25
    },
    {
      "t": 584.1,
      "ch": 1,
      "note": 40,
      "vel": 96,
      "dur": 25
    },
    {
      "t": 584.1,
      "ch": 1,
      "note": 42,
      "vel": 90,
      "dur": 25
    },
    {
      "t": 584.1,
      "ch": 1,
      "note": 36,
      "vel": 91,
      "dur": 25
    },
    {
      "t": 584.1,
      "ch": 1,
      "note": 38,
      "vel": 84,
      "dur": 25
    },
    {
      "t": 584.1,
      "ch": 1,
      "note": 40,
      "vel": 105,
      "dur": 25
    },
    {
      "t": 584.1,
      "ch": 1,
      "note": 42,
      "vel": 93,
      "dur": 25
    },
    {
      "t": 584.1,
      "ch": 1,
      "note": 36,
      "vel": 80,
      "dur": 25
    },
    {
      "t": 584.1,
      "ch": 1,
      "note": 38,
      "vel": 76,
      "dur": 25
    },
    {
      "t": 584.1,
      "ch": 1,
      "note": 40,
      "vel": 100,
      "dur": 25
    },
    {
      "t": 584.1,
      "ch": 1,
      "note": 42,
      "vel": 69,
      "dur": 25
    },
    {
      "t": 584.1,
      "ch": 1,
      "note": 36,
      "vel": 81,
      "dur": 25
    },
    {
      "t": 584.1,
      "ch": 1,
      "note": 38,
      "vel": 93,
      "dur": 25
    },
    {
      "t": 584.1,
      "ch": 1,
      "note": 40,
      "vel": 78,
      "dur": 25
    },
    {
      "t": 584.1,
      "ch": 1,
      "note": 42,
      "vel": 84,
      "dur": 25
    },
    {
      "t": 584.1,
      "ch": 1,
      "note": 36,
      "vel": 81,
      "dur": 25
    },
    {
      "t": 584.1,
      "ch": 1,
      "note": 38,
      "vel": 98,
      "dur": 25
    },
    {
      "t": 584.1,
      "ch": 1,
      "note": 40,
      "vel": 70,
      "dur": 25
    },
    {
      "t": 584.1,
      "ch": 1,
      "note": 42,
      "vel": 85,
      "dur": 25
    },
    {
      "t": 584.1,
      "ch": 1,
      "note": 36,
      "vel": 76,
      "dur": 25
    },
    {
      "t": 584.1,
      "ch": 1,
      "note": 38,
      "vel": 70,
      "dur": 25
    },
    {
      "t": 584.1,
      "ch": 1,
      "note": 40,
      "vel": 81,
      "dur": 25
    },
    {
      "t": 584.1,
      "ch": 1,
      "note": 42,
      "vel": 73,
      "dur": 25
    },
    {
      "t": 584.1,
      "ch": 1,
      "note": 36,
      "vel": 78,
      "dur": 25
    },
    {
      "t": 584.1,
      "ch": 1,
      "note": 38,
      "vel": 65,
      "dur": 25
    },
    {
      "t": 584.1,
      "ch": 1,
      "note": 40,
      "vel": 75,
      "dur": 25
    },
    {
      "t": 584.1,
      "ch": 1,
      "note": 42,
      "vel": 89,
      "dur": 25
    },
    {
      "t": 584.1,
      "ch": 1,
      "note": 36,
      "vel": 85,
      "dur": 25
    },
    {
      "t": 584.1,
      "ch": 1,
      "note": 38,
      "vel": 93,
      "dur": 25
    },
    {
      "t": 584.1,
      "ch": 1,
      "note": 40,
      "vel": 74,
      "dur": 25
    },
    {
      "t": 584.1,
      "ch": 1,
      "note": 42,
      "vel": 116,
      "dur": 25
    },
    {
      "t": 584.1,
      "ch": 1,
      "note": 36,
      "vel": 87,
      "dur": 25
    },
    {
      "t": 584.1,
      "ch": 1,
      "note": 38,
      "vel": 95,
      "dur": 25
    },
    {
      "t": 584.1,
      "ch": 1,
      "note": 40,
      "vel": 72,
      "dur": 25
    },
    {
      "t": 584.1,
      "ch": 1,
      "note": 42,
      "vel": 101,
      "dur": 25
    },
    {
      "t": 584.1,
      "ch": 1,
      "note": 36,
      "vel": 95,
      "dur": 25
    },
    {
      "t": 584.1,
      "ch": 1,
      "note": 38,
      "vel": 107,
      "dur": 25
    },
    {
      "t": 584.1,
      "ch": 1,
      "note": 40,
      "vel": 86,
      "dur": 25
    },
    {
      "t": 584.1,
      "ch": 1,
      "note": 42,
      "vel": 58,
      "dur": 25
    },
    {
      "t": 584.1,
      "ch": 1,
      "note": 36,
      "vel": 108,
      "dur": 25
    },
    {
      "t": 584.1,
      "ch": 1,
      "note": 38,
      "vel": 87,
      "dur": 25
    },
    {
      "t": 584.1,
      "ch": 1,
      "note": 40,
      "vel": 93,
      "dur": 25
    },
    {
      "t": 584.1,
      "ch": 1,
      "note": 42,
      "vel": 95,
      "dur": 25
    },
    {
      "t": 584.1,
      "ch": 1,
      "note": 36,
      "vel": 92,
      "dur": 25
    },
    {
      "t": 584.1,
      "ch": 1,
      "note": 38,
      "vel": 80,
      "dur": 25
    },
    {
      "t": 584.1,
      "ch": 1,
      "note": 40,
      "vel": 91,
      "dur": 25
    },
    {
      "t": 584.1,
      "ch": 1,
      "note": 42,
      "vel": 100,
      "dur": 25
    },
    {
      "t": 584.1,
      "ch": 1,
      "note": 36,
      "vel": 82,
      "dur": 25
    },
    {
      "t": 584.1,
      "ch": 1,
      "note": 38,
      "vel": 83,
      "dur": 25
    },
    {
      "t": 584.1,
      "ch": 1,
      "note": 40,
      "vel": 99,
      "dur": 25
    },
    {
      "t": 584.1,
      "ch": 1,
      "note": 42,
      "vel": 93,
      "dur": 25
    },
    {
      "t": 584.1,
      "ch": 1,
      "note": 36,
      "vel": 73,
      "dur": 25
    },
    {
      "t": 584.1,
      "ch": 1,
      "note": 38,
      "vel": 99,
      "dur": 25
    },
    {
      "t": 584.1,
      "ch": 1,
      "note": 40,
      "vel": 90,
      "dur": 25
    },
    {
      "t": 584.1,
      "ch": 1,
      "note": 42,
      "vel": 94,
      "dur": 25
    },
    {
      "t": 584.1,
      "ch": 1,
      "note": 36,
      "vel": 85,
      "dur": 25
    },
    {
      "t": 584.1,
      "ch": 1,
      "note": 38,
      "vel": 81,
      "dur": 25
    },
    {
      "t": 584.1,
      "ch": 1,
      "note": 40,
      "vel": 97,
      "dur": 25
    },
    {
      "t": 584.1,
      "ch": 1,
      "note": 42,
      "vel": 103,
      "dur": 25
    },
    {
      "t": 584.1,
      "ch": 1,
      "note": 36,
      "vel": 87,
      "dur": 25
    },
    {
      "t": 584.1,
      "ch": 1,
      "note": 38,
      "vel": 66,
      "dur": 25
    },
    {
      "t": 584.1,
      "ch": 1,
      "note": 40,
      "vel": 75,
      "dur": 25
    },
    {
      "t": 584.1,
      "ch": 1,
      "note": 42,
      "vel": 85,
      "dur": 25
    },
    {
      "t": 584.1,
      "ch": 1,
      "note": 36,
      "vel": 76,
      "dur": 25
    },
    {
      "t": 584.1,
      "ch": 1,
      "note": 38,
      "vel": 75,
      "dur": 25
    },
    {
      "t": 584.1,
      "ch": 1,
      "note": 40,
      "vel": 94,
      "dur": 25
    },
    {
      "t": 584.1,
      "ch": 1,
      "note": 42,
      "vel": 85,
      "dur": 25
    },
    {
      "t": 584.1,
      "ch": 1,
      "note": 36,
      "vel": 79,
      "dur": 25
    },
    {
      "t": 584.1,
      "ch": 1,
      "note": 38,
      "vel": 72,
      "dur": 25
    },
    {
      "t": 584.1,
      "ch": 1,
      "note": 40,
      "vel": 85,
      "dur": 25
    },
    {
      "t": 584.1,
      "ch": 1,
      "note": 42,
      "vel": 101,
      "dur": 25
    },
    {
      "t": 584.1,
      "ch": 1,
      "note": 36,
      "vel": 67,
      "dur": 25
    },
    {
      "t": 584.1,
      "ch": 1,
      "note": 38,
      "vel": 101,
      "dur": 25
    },
    {
      "t": 584.1,
      "ch": 1,
      "note": 40,
      "vel": 100,
      "dur": 25
    },
    {
      "t": 584.1,
      "ch": 1,
      "note": 42,
      "vel": 80,
      "dur": 25
    },
    {
      "t": 584.1,
      "ch": 1,
      "note": 36,
      "vel": 57,
      "dur": 25
    },
    {
      "t": 584.1,
      "ch": 1,
      "note": 38,
      "vel": 76,
      "dur": 25
    },
    {
      "t": 584.1,
      "ch": 1,
      "note": 40,
      "vel": 71,
      "dur": 25
    },
    {
      "t": 584.1,
      "ch": 1,
      "note": 42,
      "vel": 80,
      "dur": 25
    },
    {
      "t": 584.1,
      "ch": 1,
      "note": 36,
      "vel": 94,
      "dur": 25
    },
    {
      "t": 584.1,
      "ch": 1,
      "note": 38,
      "vel": 69,
      "dur": 25
    },
    {
      "t": 584.1,
      "ch": 1,
      "note": 40,
      "vel": 95,
      "dur": 25
    },
    {
      "t": 584.1,
      "ch": 1,
      "note": 42,
      "vel": 83,
      "dur": 25
    },
    {
      "t": 584.1,
      "ch": 1,
      "note": 36,
      "vel": 106,
      "dur": 25
    },
    {
      "t": 584.1,
      "ch": 1,
      "note": 38,
      "vel": 99,
      "dur": 25
    },
    {
      "t": 584.1,
      "ch": 1,
      "note": 40,
      "vel": 73,
      "dur": 25
    },
    {
      "t": 584.1,
      "ch": 1,
      "note": 42,
      "vel": 81,
      "dur": 25
    },
    {
      "t": 584.1,
      "ch": 1,
      "note": 36,
      "vel": 78,
      "dur": 25
    },
    {
      "t": 584.1,
      "ch": 1,
      "note": 38,
      "vel": 75,
      "dur": 25
    },
    {
      "t": 584.1,
      "ch": 1,
      "note": 40,
      "vel": 78,
      "dur": 25
    },
    {
      "t": 584.1,
      "ch": 1,
      "note": 42,
      "vel": 65,
      "dur": 25
    },
    {
      "t": 584.1,
      "ch": 1,
      "note": 36,
      "vel": 94,
      "dur": 25
    },
    {
      "t": 584.1,
      "ch": 1,
      "note": 38,
      "vel": 77,
      "dur": 25
    },
    {
      "t": 584.1,
      "ch": 1,
      "note": 40,
      "vel": 75,
      "dur": 25
    },
    {
      "t": 584.1,
      "ch": 1,
      "note": 42,
      "vel": 65,
      "dur": 25
    },
    {
      "t": 584.1,
      "ch": 1,
      "note": 36,
      "vel": 103,
      "dur": 25
    },
    {
      "t": 584.1,
      "ch": 1,
      "note": 38,
      "vel": 89,
      "dur": 25
    },
    {
      "t": 584.1,
      "ch": 1,
      "note": 40,
      "vel": 88,
      "dur": 25
    },
    {
      "t": 584.1,
      "ch": 1,
      "note": 42,
      "vel": 80,
      "dur": 25
    },
    {
      "t": 584.1,
      "ch": 1,
      "note": 36,
      "vel": 75,
      "dur": 25
    },
    {
      "t": 584.1,
      "ch": 1,
      "note": 38,
      "vel": 82,
      "dur": 25
    },
    {
      "t": 584.1,
      "ch": 1,
      "note": 40,
      "vel": 57,
      "dur": 25
    },
    {
      "t": 584.1,
      "ch": 1,
      "note": 42,
      "vel": 88,
      "dur": 25
    },
    {
      "t": 584.1,
      "ch": 1,
      "note": 36,
      "vel": 88,
      "dur": 25
    },
    {
      "t": 584.1,
      "ch": 1,
      "note": 38,
      "vel": 80,
      "dur": 25
    },
    {
      "t": 584.1,
      "ch": 1,
      "note": 40,
      "vel": 77,
      "dur": 25
    },
    {
      "t": 584.1,
      "ch": 1,
      "note": 42,
      "vel": 76,
      "dur": 25
    },
    {
      "t": 584.1,
      "ch": 1,
      "note": 36,
      "vel": 80,
      "dur": 25
    },
    {
      "t": 584.1,
      "ch": 1,
      "note": 38,
      "vel": 60,
      "dur": 25
    },
    {
      "t": 584.1,
      "ch": 1,
      "note": 40,
      "vel": 98,
      "dur": 25
    },
    {
      "t": 584.1,
      "ch": 1,
      "note": 42,
      "vel": 85,
      "dur": 25
    },
    {
      "t": 584.1,
      "ch": 1,
      "note": 36,
      "vel": 99,
      "dur": 25
    },
    {
      "t": 584.1,
      "ch": 1,
      "note": 38,
      "vel": 110,
      "dur": 25
    },
    {
      "t": 584.1,
      "ch": 1,
      "note": 40,
      "vel": 84,
      "dur": 25
    },
    {
      "t": 584.1,
      "ch": 1,
      "note": 42,
      "vel": 61,
      "dur": 25
    },
    {
      "t": 584.1,
      "ch": 1,
      "note": 36,
      "vel": 68,
      "dur": 25
    },
    {
      "t": 584.1,
      "ch": 1,
      "note": 38,
      "vel": 112,
      "dur": 25
    },
    {
      "t": 584.1,
      "ch": 1,
      "note": 40,
      "vel": 89,
      "dur": 25
    },
    {
      "t": 584.1,
      "ch": 1,
      "note": 42,
      "vel": 88,
      "dur": 25
    },
    {
      "t": 584.1,
      "ch": 1,
      "note": 36,
      "vel": 87,
      "dur": 25
    },
    {
      "t": 584.1,
      "ch": 1,
      "note": 38,
      "vel": 101,
      "dur": 25
    },
    {
      "t": 584.1,
      "ch": 1,
      "note": 40,
      "vel": 96,
      "dur": 25
    },
    {
      "t": 584.1,
      "ch": 1,
      "note": 42,
      "vel": 74,
      "dur": 25
    },
    {
      "t": 584.1,
      "ch": 1,
      "note": 36,
      "vel": 90,
      "dur": 25
    },
    {
      "t": 584.1,
      "ch": 1,
      "note": 38,
      "vel": 103,
      "dur": 25
    },
    {
      "t": 584.1,
      "ch": 1,
      "note": 40,
      "vel": 82,
      "dur": 25
    },
    {
      "t": 584.1,
      "ch": 1,
      "note": 42,
      "vel": 90,
      "dur": 25
    },
    {
      "t": 584.1,
      "ch": 1,
      "note": 36,
      "vel": 62,
      "dur": 25
    },
    {
      "t": 584.1,
      "ch": 1,
      "note": 38,
      "vel": 114,
      "dur": 25
    },
    {
      "t": 584.1,
      "ch": 1,
      "note": 40,
      "vel": 57,
      "dur": 25
    },
    {
      "t": 584.1,
      "ch": 1,
      "note": 42,
      "vel": 76,
      "dur": 25
    },
    {
      "t": 584.1,
      "ch": 1,
      "note": 36,
      "vel": 96,
      "dur": 25
    },
    {
      "t": 584.1,
      "ch": 1,
      "note": 38,
      "vel": 87,
      "dur": 25
    },
    {
      "t": 584.1,
      "ch": 1,
      "note": 40,
      "vel": 63,
      "dur": 25
    },
    {
      "t": 584.1,
      "ch": 1,
      "note": 42,
      "vel": 83,
      "dur": 25
    },
    {
      "t": 584.1,
      "ch": 1,
      "note": 36,
      "vel": 68,
      "dur": 25
    },
    {
      "t": 584.1,
      "ch": 1,
      "note": 38,
      "vel": 87,
      "dur": 25
    },
    {
      "t": 584.1,
      "ch": 1,
      "note": 40,
      "vel": 89,
      "dur": 25
    },
    {
      "t": 584.1,
      "ch": 1,
      "note": 42,
      "vel": 85,
      "dur": 25
    },
    {
      "t": 584.1,
      "ch": 1,
      "note": 36,
      "vel": 118,
      "dur": 25
    },
    {
      "t": 584.1,
      "ch": 1,
      "note": 38,
      "vel": 66,
      "dur": 25
    },
    {
      "t": 584.1,
      "ch": 1,
      "note": 40,
      "vel": 74,
      "dur": 25
    },
    {
      "t": 584.1,
      "ch": 1,
      "note": 42,
      "vel": 102,
      "dur": 25
    },
    {
      "t": 584.1,
      "ch": 1,
      "note": 36,
      "vel": 110,
      "dur": 25
    },
    {
      "t": 584.1,
      "ch": 1,
      "note": 38,
      "vel": 81,
      "dur": 25
    },
    {
      "t": 584.1,
      "ch": 1,
      "note": 40,
      "vel": 57,
      "dur": 25
    },
    {
      "t": 584.1,
      "ch": 1,
      "note": 42,
      "vel": 104,
      "dur": 25
    },
    {
      "t": 584.1,
      "ch": 1,
      "note": 36,
      "vel": 112,
      "dur": 25
    },
    {
      "t": 584.1,
      "ch": 1,
      "note": 38,
      "vel": 63,
      "dur": 25
    },
    {
      "t": 584.1,
      "ch": 1,
      "note": 40,
      "vel": 74,
      "dur": 25
    },
    {
      "t": 584.1,
      "ch": 1,
      "note": 42,
      "vel": 95,
      "dur": 25
    },
    {
      "t": 584.1,
      "ch": 1,
      "note": 36,
      "vel": 87,
      "dur": 25
    },
    {
      "t": 584.1,
      "ch": 1,
      "note": 38,
      "vel": 108,
      "dur": 25
    },
    {
      "t": 584.1,
      "ch": 1,
      "note": 40,
      "vel": 95,
      "dur": 25
    },
    {
      "t": 584.1,
      "ch": 1,
      "note": 42,
      "vel": 82,
      "dur": 25
    },
    {
      "t": 584.1,
      "ch": 1,
      "note": 36,
      "vel": 85,
      "dur": 25
    },
    {
      "t": 584.1,
      "ch": 1,
      "note": 38,
      "vel": 70,
      "dur": 25
    },
    {
      "t": 584.1,
      "ch": 1,
      "note": 40,
      "vel": 92,
      "dur": 25
    },
    {
      "t": 584.1,
      "ch": 1,
      "note": 42,
      "vel": 90,
      "dur": 25
    },
    {
      "t": 584.1,
      "ch": 1,
      "note": 36,
      "vel": 74,
      "dur": 25
    },
    {
      "t": 584.1,
      "ch": 1,
      "note": 38,
      "vel": 78,
      "dur": 25
    },
    {
      "t": 584.1,
      "ch": 1,
      "note": 40,
      "vel": 76,
      "dur": 25
    },
    {
      "t": 584.1,
      "ch": 1,
      "note": 42,
      "vel": 73,
      "dur": 25
    },
    {
      "t": 584.1,
      "ch": 1,
      "note": 36,
      "vel": 77,
      "dur": 25
    },
    {
      "t": 584.1,
      "ch": 1,
      "note": 38,
      "vel": 89,
      "dur": 25
    },
    {
      "t": 584.1,
      "ch": 1,
      "note": 40,
      "vel": 75,
      "dur": 25
    },
    {
      "t": 584.1,
      "ch": 1,
      "note": 42,
      "vel": 103,
      "dur": 25
    },
    {
      "t": 584.1,
      "ch": 1,
      "note": 36,
      "vel": 82,
      "dur": 25
    },
    {
      "t": 584.1,
      "ch": 1,
      "note": 38,
      "vel": 71,
      "dur": 25
    },
    {
      "t": 584.1,
      "ch": 1,
      "note": 40,
      "vel": 70,
      "dur": 25
    },
    {
      "t": 584.1,
      "ch": 1,
      "note": 42,
      "vel": 94,
      "dur": 25
    },
    {
      "t": 584.1,
      "ch": 1,
      "note": 36,
      "vel": 74,
      "dur": 25
    },
    {
      "t": 584.1,
      "ch": 1,
      "note": 38,
      "vel": 76,
      "dur": 25
    },
    {
      "t": 584.1,
      "ch": 1,
      "note": 40,
      "vel": 79,
      "dur": 25
    },
    {
      "t": 584.1,
      "ch": 1,
      "note": 42,
      "vel": 78,
      "dur": 25
    },
    {
      "t": 584.1,
      "ch": 1,
      "note": 36,
      "vel": 73,
      "dur": 25
    },
    {
      "t": 584.1,
      "ch": 1,
      "note": 38,
      "vel": 80,
      "dur": 25
    },
    {
      "t": 584.1,
      "ch": 1,
      "note": 40,
      "vel": 94,
      "dur": 25
    },
    {
      "t": 584.1,
      "ch": 1,
      "note": 42,
      "vel": 106,
      "dur": 25
    },
    {
      "t": 584.1,
      "ch": 1,
      "note": 36,
      "vel": 102,
      "dur": 25
    },
    {
      "t": 584.1,
      "ch": 1,
      "note": 38,
      "vel": 72,
      "dur": 25
    },
    {
      "t": 584.1,
      "ch": 1,
      "note": 40,
      "vel": 95,
      "dur": 25
    },
    {
      "t": 584.1,
      "ch": 1,
      "note": 42,
      "vel": 69,
      "dur": 25
    },
    {
      "t": 584.1,
      "ch": 1,
      "note": 36,
      "vel": 104,
      "dur": 25
    },
    {
      "t": 584.1,
      "ch": 1,
      "note": 38,
      "vel": 83,
      "dur": 25
    },
    {
      "t": 584.1,
      "ch": 1,
      "note": 40,
      "vel": 99,
      "dur": 25
    },
    {
      "t": 584.1,
      "ch": 1,
      "note": 42,
      "vel": 79,
      "dur": 25
    },
    {
      "t": 584.1,
      "ch": 1,
      "note": 36,
      "vel": 75,
      "dur": 25
    },
    {
      "t": 584.1,
      "ch": 1,
      "note": 38,
      "vel": 80,
      "dur": 25
    },
    {
      "t": 584.1,
      "ch": 1,
      "note": 40,
      "vel": 78,
      "dur": 25
    },
    {
      "t": 584.1,
      "ch": 1,
      "note": 42,
      "vel": 88,
      "dur": 25
    },
    {
      "t": 584.1,
      "ch": 1,
      "note": 36,
      "vel": 103,
      "dur": 25
    },
    {
      "t": 584.1,
      "ch": 1,
      "note": 38,
      "vel": 89,
      "dur": 25
    },
    {
      "t": 584.1,
      "ch": 1,
      "note": 40,
      "vel": 88,
      "dur": 25
    },
    {
      "t": 584.1,
      "ch": 1,
      "note": 42,
      "vel": 74,
      "dur": 25
    },
    {
      "t": 584.1,
      "ch": 1,
      "note": 36,
      "vel": 79,
      "dur": 25
    },
    {
      "t": 584.1,
      "ch": 1,
      "note": 38,
      "vel": 80,
      "dur": 25
    },
    {
      "t": 584.1,
      "ch": 1,
      "note": 40,
      "vel": 89,
      "dur": 25
    },
    {
      "t": 584.1,
      "ch": 1,
      "note": 42,
      "vel": 89,
      "dur": 25
    },
    {
      "t": 584.1,
      "ch": 1,
      "note": 36,
      "vel": 55,
      "dur": 25
    },
    {
      "t": 584.1,
      "ch": 1,
      "note": 38,
      "vel": 90,
      "dur": 25
    },
    {
      "t": 584.1,
      "ch": 1,
      "note": 40,
      "vel": 79,
      "dur": 25
    },
    {
      "t": 584.1,
      "ch": 1,
      "note": 42,
      "vel": 87,
      "dur": 25
    },
    {
      "t": 584.1,
      "ch": 1,
      "note": 36,
      "vel": 83,
      "dur": 25
    },
    {
      "t": 584.1,
      "ch": 1,
      "note": 38,
      "vel": 80,
      "dur": 25
    },
    {
      "t": 584.1,
      "ch": 1,
      "note": 40,
      "vel": 70,
      "dur": 25
    },
    {
      "t": 584.1,
      "ch": 1,
      "note": 42,
      "vel": 101,
      "dur": 25
    },
    {
      "t": 584.1,
      "ch": 1,
      "note": 36,
      "vel": 75,
      "dur": 25
    },
    {
      "t": 584.1,
      "ch": 1,
      "note": 38,
      "vel": 82,
      "dur": 25
    },
    {
      "t": 584.1,
      "ch": 1,
      "note": 40,
      "vel": 105,
      "dur": 25
    },
    {
      "t": 584.1,
      "ch": 1,
      "note": 42,
      "vel": 104,
      "dur": 25
    },
    {
      "t": 584.1,
      "ch": 1,
      "note": 36,
      "vel": 78,
      "dur": 25
    },
    {
      "t": 584.1,
      "ch": 1,
      "note": 38,
      "vel": 104,
      "dur": 25
    },
    {
      "t": 584.1,
      "ch": 1,
      "note": 40,
      "vel": 91,
      "dur": 25
    },
    {
      "t": 584.1,
      "ch": 1,
      "note": 42,
      "vel": 96,
      "dur": 25
    },
    {
      "t": 584.1,
      "ch": 1,
      "note": 36,
      "vel": 81,
      "dur": 25
    },
    {
      "t": 584.1,
      "ch": 1,
      "note": 38,
      "vel": 65,
      "dur": 25
    },
    {
      "t": 584.1,
      "ch": 1,
      "note": 40,
      "vel": 70,
      "dur": 25
    },
    {
      "t": 584.1,
      "ch": 1,
      "note": 42,
      "vel": 71,
      "dur": 25
    },
    {
      "t": 584.1,
      "ch": 1,
      "note": 36,
      "vel": 87,
      "dur": 25
    },
    {
      "t": 584.1,
      "ch": 1,
      "note": 38,
      "vel": 93,
      "dur": 25
    },
    {
      "t": 584.1,
      "ch": 1,
      "note": 40,
      "vel": 93,
      "dur": 25
    },
    {
      "t": 584.1,
      "ch": 1,
      "note": 42,
      "vel": 82,
      "dur": 25
    },
    {
      "t": 584.1,
      "ch": 1,
      "note": 36,
      "vel": 71,
      "dur": 25
    },
    {
      "t": 584.1,
      "ch": 1,
      "note": 38,
      "vel": 104,
      "dur": 25
    },
    {
      "t": 584.1,
      "ch": 1,
      "note": 40,
      "vel": 81,
      "dur": 25
    },
    {
      "t": 584.1,
      "ch": 1,
      "note": 42,
      "vel": 71,
      "dur": 25
    },
    {
      "t": 584.1,
      "ch": 1,
      "note": 36,
      "vel": 66,
      "dur": 25
    },
    {
      "t": 584.1,
      "ch": 1,
      "note": 38,
      "vel": 105,
      "dur": 25
    },
    {
      "t": 584.1,
      "ch": 1,
      "note": 40,
      "vel": 71,
      "dur": 25
    },
    {
      "t": 584.1,
      "ch": 1,
      "note": 42,
      "vel": 96,
      "dur": 25
    },
    {
      "t": 584.1,
      "ch": 1,
      "note": 36,
      "vel": 72,
      "dur": 25
    },
    {
      "t": 584.1,
      "ch": 1,
      "note": 38,
      "vel": 96,
      "dur": 25
    },
    {
      "t": 584.1,
      "ch": 1,
      "note": 40,
      "vel": 111,
      "dur": 25
    },
    {
      "t": 584.1,
      "ch": 1,
      "note": 42,
      "vel": 101,
      "dur": 25
    },
    {
      "t": 584.1,
      "ch": 1,
      "note": 36,
      "vel": 75,
      "dur": 25
    },
    {
      "t": 584.1,
      "ch": 1,
      "note": 38,
      "vel": 80,
      "dur": 25
    },
    {
      "t": 584.1,
      "ch": 1,
      "note": 40,
      "vel": 95,
      "dur": 25
    },
    {
      "t": 584.1,
      "ch": 1,
      "note": 42,
      "vel": 81,
      "dur": 25
    },
    {
      "t": 584.1,
      "ch": 1,
      "note": 36,
      "vel": 108,
      "dur": 25
    },
    {
      "t": 584.1,
      "ch": 1,
      "note": 38,
      "vel": 66,
      "dur": 25
    },
    {
      "t": 584.1,
      "ch": 1,
      "note": 40,
      "vel": 84,
      "dur": 25
    },
    {
      "t": 584.1,
      "ch": 1,
      "note": 42,
      "vel": 95,
      "dur": 25
    },
    {
      "t": 584.1,
      "ch": 1,
      "note": 36,
      "vel": 85,
      "dur": 25
    },
    {
      "t": 584.1,
      "ch": 1,
      "note": 38,
      "vel": 50,
      "dur": 25
    },
    {
      "t": 584.1,
      "ch": 1,
      "note": 40,
      "vel": 84,
      "dur": 25
    },
    {
      "t": 584.1,
      "ch": 1,
      "note": 42,
      "vel": 98,
      "dur": 25
    },
    {
      "t": 584.1,
      "ch": 1,
      "note": 36,
      "vel": 73,
      "dur": 25
    },
    {
      "t": 584.1,
      "ch": 1,
      "note": 38,
      "vel": 104,
      "dur": 25
    },
    {
      "t": 584.1,
      "ch": 1,
      "note": 40,
      "vel": 87,
      "dur": 25
    },
    {
      "t": 584.1,
      "ch": 1,
      "note": 42,
      "vel": 82,
      "dur": 25
    },
    {
      "t": 584.1,
      "ch": 1,
      "note": 36,
      "vel": 83,
      "dur": 25
    },
    {
      "t": 584.1,
      "ch": 1,
      "note": 38,
      "vel": 74,
      "dur": 25
    },
    {
      "t": 584.1,
      "ch": 1,
      "note": 40,
      "vel": 66,
      "dur": 25
    },
    {
      "t": 584.1,
      "ch": 1,
      "note": 42,
      "vel": 78,
      "dur": 25
    },
    {
      "t": 584.1,
      "ch": 1,
      "note": 36,
      "vel": 82,
      "dur": 25
    },
    {
      "t": 584.1,
      "ch": 1,
      "note": 38,
      "vel": 92,
      "dur": 25
    },
    {
      "t": 584.1,
      "ch": 1,
      "note": 40,
      "vel": 88,
      "dur": 25
    },
    {
      "t": 584.1,
      "ch": 1,
      "note": 42,
      "vel": 106,
      "dur": 25
    },
    {
      "t": 584.1,
      "ch": 1,
      "note": 36,
      "vel": 85,
      "dur": 25
    },
    {
      "t": 584.1,
      "ch": 1,
      "note": 38,
      "vel": 72,
      "dur": 25
    },
    {
      "t": 584.1,
      "ch": 1,
      "note": 40,
      "vel": 91,
      "dur": 25
    },
    {
      "t": 584.1,
      "ch": 1,
      "note": 42,
      "vel": 87,
      "dur": 25
    },
    {
      "t": 584.1,
      "ch": 1,
      "note": 36,
      "vel": 72,
      "dur": 25
    },
    {
      "t": 584.1,
      "ch": 1,
      "note": 38,
      "vel": 69,
      "dur": 25
    },
    {
      "t": 584.1,
      "ch": 1,
      "note": 40,
      "vel": 74,
      "dur": 25
    },
    {
      "t": 584.1,
      "ch": 1,
      "note": 42,
      "vel": 102,
      "dur": 25
    },
    {
      "t": 584.1,
      "ch": 1,
      "note": 36,
      "vel": 82,
      "dur": 25
    },
    {
      "t": 584.1,
      "ch": 1,
      "note": 38,
      "vel": 63,
      "dur": 25
    },
    {
      "t": 584.1,
      "ch": 1,
      "note": 40,
      "vel": 78,
      "dur": 25
    },
    {
      "t": 584.1,
      "ch": 1,
      "note": 42,
      "vel": 94,
      "dur": 25
    },
    {
      "t": 584.1,
      "ch": 1,
      "note": 36,
      "vel": 80,
      "dur": 25
    },
    {
      "t": 584.1,
      "ch": 1,
      "note": 38,
      "vel": 77,
      "dur": 25
    },
    {
      "t": 584.1,
      "ch": 1,
      "note": 40,
      "vel": 70,
      "dur": 25
    },
    {
      "t": 584.1,
      "ch": 1,
      "note": 42,
      "vel": 83,
      "dur": 25
    },
    {
      "t": 584.1,
      "ch": 1,
      "note": 36,
      "vel": 73,
      "dur": 25
    },
    {
      "t": 584.1,
      "ch": 1,
      "note": 38,
      "vel": 111,
      "dur": 25
    },
    {
      "t": 584.1,
      "ch": 1,
      "note": 40,
      "vel": 105,
      "dur": 25
    },
    {
      "t": 584.1,
      "ch": 1,
      "note": 42,
      "vel": 94,
      "dur": 25
    },
    {
      "t": 584.1,
      "ch": 1,
      "note": 36,
      "vel": 62,
      "dur": 25
    },
    {
      "t": 584.1,
      "ch": 1,
      "note": 38,
      "vel": 94,
      "dur": 25
    },
    {
      "t": 584.1,
      "ch": 1,
      "note": 40,
      "vel": 72,
      "dur": 25
    },
    {
      "t": 584.1,
      "ch": 1,
      "note": 42,
      "vel": 71,
      "dur": 25
    },
    {
      "t": 584.1,
      "ch": 1,
      "note": 36,
      "vel": 76,
      "dur": 25
    },
    {
      "t": 584.1,
      "ch": 1,
      "note": 38,
      "vel": 70,
      "dur": 25
    },
    {
      "t": 584.1,
      "ch": 1,
      "note": 40,
      "vel": 82,
      "dur": 25
    },
    {
      "t": 584.1,
      "ch": 1,
      "note": 42,
      "vel": 57,
      "dur": 25
    },
    {
      "t": 584.1,
      "ch": 1,
      "note": 36,
      "vel": 91,
      "dur": 25
    },
    {
      "t": 584.1,
      "ch": 1,
      "note": 38,
      "vel": 71,
      "dur": 25
    },
    {
      "t": 584.1,
      "ch": 1,
      "note": 40,
      "vel": 96,
      "dur": 25
    },
    {
      "t": 584.1,
      "ch": 1,
      "note": 42,
      "vel": 88,
      "dur": 25
    },
    {
      "t": 584.1,
      "ch": 1,
      "note": 36,
      "vel": 97,
      "dur": 25
    },
    {
      "t": 584.1,
      "ch": 1,
      "note": 38,
      "vel": 102,
      "dur": 25
    },
    {
      "t": 584.1,
      "ch": 1,
      "note": 40,
      "vel": 77,
      "dur": 25
    },
    {
      "t": 584.1,
      "ch": 1,
      "note": 42,
      "vel": 105,
      "dur": 25
    },
    {
      "t": 584.1,
      "ch": 1,
      "note": 36,
      "vel": 76,
      "dur": 25
    },
    {
      "t": 584.1,
      "ch": 1,
      "note": 38,
      "vel": 103,
      "dur": 25
    },
    {
      "t": 584.1,
      "ch": 1,
      "note": 40,
      "vel": 92,
      "dur": 25
    },
    {
      "t": 584.1,
      "ch": 1,
      "note": 42,
      "vel": 94,
      "dur": 25
    },
    {
      "t": 584.1,
      "ch": 1,
      "note": 36,
      "vel": 83,
      "dur": 25
    },
    {
      "t": 584.1,
      "ch": 1,
      "note": 38,
      "vel": 96,
      "dur": 25
    },
    {
      "t": 584.1,
      "ch": 1,
      "note": 40,
      "vel": 93,
      "dur": 25
    },
    {
      "t": 584.1,
      "ch": 1,
      "note": 42,
      "vel": 80,
      "dur": 25
    },
    {
      "t": 584.1,
      "ch": 1,
      "note": 36,
      "vel": 86,
      "dur": 25
    },
    {
      "t": 584.1,
      "ch": 1,
      "note": 38,
      "vel": 89,
      "dur": 25
    },
    {
      "t": 584.1,
      "ch": 1,
      "note": 40,
      "vel": 85,
      "dur": 25
    },
    {
      "t": 584.1,
      "ch": 1,
      "note": 42,
      "vel": 82,
      "dur": 25
    },
    {
      "t": 584.1,
      "ch": 1,
      "note": 36,
      "vel": 91,
      "dur": 25
    },
    {
      "t": 584.1,
      "ch": 1,
      "note": 38,
      "vel": 66,
      "dur": 25
    },
    {
      "t": 584.1,
      "ch": 1,
      "note": 40,
      "vel": 67,
      "dur": 25
    },
    {
      "t": 584.1,
      "ch": 1,
      "note": 42,
      "vel": 72,
      "dur": 25
    },
    {
      "t": 584.1,
      "ch": 1,
      "note": 36,
      "vel": 76,
      "dur": 25
    },
    {
      "t": 584.1,
      "ch": 1,
      "note": 38,
      "vel": 70,
      "dur": 25
    },
    {
      "t": 584.1,
      "ch": 1,
      "note": 40,
      "vel": 83,
      "dur": 25
    },
    {
      "t": 584.1,
      "ch": 1,
      "note": 42,
      "vel": 98,
      "dur": 25
    },
    {
      "t": 584.1,
      "ch": 1,
      "note": 36,
      "vel": 74,
      "dur": 25
    },
    {
      "t": 584.1,
      "ch": 1,
      "note": 38,
      "vel": 85,
      "dur": 25
    },
    {
      "t": 584.1,
      "ch": 1,
      "note": 40,
      "vel": 112,
      "dur": 25
    },
    {
      "t": 584.1,
      "ch": 1,
      "note": 42,
      "vel": 76,
      "dur": 25
    },
    {
      "t": 584.1,
      "ch": 1,
      "note": 36,
      "vel": 74,
      "dur": 25
    },
    {
      "t": 584.1,
      "ch": 1,
      "note": 38,
      "vel": 93,
      "dur": 25
    },
    {
      "t": 584.1,
      "ch": 1,
      "note": 40,
      "vel": 91,
      "dur": 25
    },
    {
      "t": 584.1,
      "ch": 1,
      "note": 42,
      "vel": 87,
      "dur": 25
    },
    {
      "t": 584.1,
      "ch": 1,
      "note": 36,
      "vel": 71,
      "dur": 25
    },
    {
      "t": 584.1,
      "ch": 1,
      "note": 38,
      "vel": 75,
      "dur": 25
    },
    {
      "t": 584.1,
      "ch": 1,
      "note": 40,
      "vel": 93,
      "dur": 25
    },
    {
      "t": 584.1,
      "ch": 1,
      "note": 42,
      "vel": 69,
      "dur": 25
    },
    {
      "t": 584.1,
      "ch": 1,
      "note": 36,
      "vel": 65,
      "dur": 25
    },
    {
      "t": 584.1,
      "ch": 1,
      "note": 38,
      "vel": 55,
      "dur": 25
    },
    {
      "t": 584.1,
      "ch": 1,
      "note": 40,
      "vel": 87,
      "dur": 25
    },
    {
      "t": 584.1,
      "ch": 1,
      "note": 42,
      "vel": 116,
      "dur": 25
    },
    {
      "t": 584.1,
      "ch": 1,
      "note": 36,
      "vel": 78,
      "dur": 25
    },
    {
      "t": 584.1,
      "ch": 1,
      "note": 38,
      "vel": 109,
      "dur": 25
    },
    {
      "t": 584.1,
      "ch": 1,
      "note": 40,
      "vel": 68,
      "dur": 25
    },
    {
      "t": 584.1,
      "ch": 1,
      "note": 42,
      "vel": 83,
      "dur": 25
    },
    {
      "t": 584.1,
      "ch": 1,
      "note": 36,
      "vel": 97,
      "dur": 25
    },
    {
      "t": 584.1,
      "ch": 1,
      "note": 38,
      "vel": 65,
      "dur": 25
    },
    {
      "t": 584.1,
      "ch": 1,
      "note": 40,
      "vel": 94,
      "dur": 25
    },
    {
      "t": 584.1,
      "ch": 1,
      "note": 42,
      "vel": 105,
      "dur": 25
    },
    {
      "t": 584.1,
      "ch": 1,
      "note": 36,
      "vel": 91,
      "dur": 25
    },
    {
      "t": 584.1,
      "ch": 1,
      "note": 38,
      "vel": 92,
      "dur": 25
    },
    {
      "t": 584.1,
      "ch": 1,
      "note": 40,
      "vel": 73,
      "dur": 25
    },
    {
      "t": 584.1,
      "ch": 1,
      "note": 42,
      "vel": 72,
      "dur": 25
    },
    {
      "t": 584.1,
      "ch": 1,
      "note": 36,
      "vel": 80,
      "dur": 25
    },
    {
      "t": 584.1,
      "ch": 1,
      "note": 38,
      "vel": 77,
      "dur": 25
    },
    {
      "t": 584.1,
      "ch": 1,
      "note": 40,
      "vel": 99,
      "dur": 25
    },
    {
      "t": 584.1,
      "ch": 1,
      "note": 42,
      "vel": 94,
      "dur": 25
    },
    {
      "t": 584.1,
      "ch": 1,
      "note": 36,
      "vel": 77,
      "dur": 25
    },
    {
      "t": 584.1,
      "ch": 1,
      "note": 38,
      "vel": 89,
      "dur": 25
    },
    {
      "t": 584.1,
      "ch": 1,
      "note": 40,
      "vel": 80,
      "dur": 25
    },
    {
      "t": 584.1,
      "ch": 1,
      "note": 42,
      "vel": 98,
      "dur": 25
    },
    {
      "t": 584.1,
      "ch": 1,
      "note": 36,
      "vel": 75,
      "dur": 25
    },
    {
      "t": 584.1,
      "ch": 1,
      "note": 38,
      "vel": 95,
      "dur": 25
    },
    {
      "t": 584.1,
      "ch": 1,
      "note": 40,
      "vel": 101,
      "dur": 25
    },
    {
      "t": 584.1,
      "ch": 1,
      "note": 42,
      "vel": 118,
      "dur": 25
    },
    {
      "t": 584.1,
      "ch": 1,
      "note": 36,
      "vel": 86,
      "dur": 25
    },
    {
      "t": 584.1,
      "ch": 1,
      "note": 38,
      "vel": 66,
      "dur": 25
    },
    {
      "t": 584.1,
      "ch": 1,
      "note": 40,
      "vel": 80,
      "dur": 25
    },
    {
      "t": 584.1,
      "ch": 1,
      "note": 42,
      "vel": 79,
      "dur": 25
    },
    {
      "t": 584.1,
      "ch": 1,
      "note": 36,
      "vel": 74,
      "dur": 25
    },
    {
      "t": 584.1,
      "ch": 1,
      "note": 38,
      "vel": 63,
      "dur": 25
    },
    {
      "t": 584.1,
      "ch": 1,
      "note": 40,
      "vel": 80,
      "dur": 25
    },
    {
      "t": 584.1,
      "ch": 1,
      "note": 42,
      "vel": 82,
      "dur": 25
    },
    {
      "t": 584.1,
      "ch": 1,
      "note": 36,
      "vel": 67,
      "dur": 25
    },
    {
      "t": 584.1,
      "ch": 1,
      "note": 38,
      "vel": 86,
      "dur": 25
    },
    {
      "t": 584.1,
      "ch": 1,
      "note": 40,
      "vel": 61,
      "dur": 25
    },
    {
      "t": 584.1,
      "ch": 1,
      "note": 42,
      "vel": 110,
      "dur": 25
    },
    {
      "t": 584.1,
      "ch": 1,
      "note": 36,
      "vel": 80,
      "dur": 25
    },
    {
      "t": 584.1,
      "ch": 1,
      "note": 38,
      "vel": 70,
      "dur": 25
    },
    {
      "t": 584.1,
      "ch": 1,
      "note": 40,
      "vel": 93,
      "dur": 25
    },
    {
      "t": 584.1,
      "ch": 1,
      "note": 42,
      "vel": 78,
      "dur": 25
    },
    {
      "t": 584.1,
      "ch": 1,
      "note": 36,
      "vel": 90,
      "dur": 25
    },
    {
      "t": 584.1,
      "ch": 1,
      "note": 38,
      "vel": 108,
      "dur": 25
    },
    {
      "t": 584.1,
      "ch": 1,
      "note": 40,
      "vel": 81,
      "dur": 25
    },
    {
      "t": 584.1,
      "ch": 1,
      "note": 42,
      "vel": 84,
      "dur": 25
    },
    {
      "t": 584.1,
      "ch": 1,
      "note": 36,
      "vel": 82,
      "dur": 25
    },
    {
      "t": 584.1,
      "ch": 1,
      "note": 38,
      "vel": 66,
      "dur": 25
    },
    {
      "t": 584.1,
      "ch": 1,
      "note": 40,
      "vel": 98,
      "dur": 25
    },
    {
      "t": 584.1,
      "ch": 1,
      "note": 42,
      "vel": 79,
      "dur": 25
    },
    {
      "t": 584.1,
      "ch": 1,
      "note": 36,
      "vel": 85,
      "dur": 25
    },
    {
      "t": 584.1,
      "ch": 1,
      "note": 38,
      "vel": 81,
      "dur": 25
    },
    {
      "t": 584.1,
      "ch": 1,
      "note": 40,
      "vel": 101,
      "dur": 25
    },
    {
      "t": 584.1,
      "ch": 1,
      "note": 42,
      "vel": 106,
      "dur": 25
    },
    {
      "t": 584.1,
      "ch": 1,
      "note": 36,
      "vel": 92,
      "dur": 25
    },
    {
      "t": 584.1,
      "ch": 1,
      "note": 38,
      "vel": 94,
      "dur": 25
    },
    {
      "t": 584.1,
      "ch": 1,
      "note": 40,
      "vel": 78,
      "dur": 25
    },
    {
      "t": 584.1,
      "ch": 1,
      "note": 42,
      "vel": 83,
      "dur": 25
    },
    {
      "t": 584.1,
      "ch": 1,
      "note": 36,
      "vel": 96,
      "dur": 25
    },
    {
      "t": 584.1,
      "ch": 1,
      "note": 38,
      "vel": 78,
      "dur": 25
    },
    {
      "t": 584.1,
      "ch": 1,
      "note": 40,
      "vel": 75,
      "dur": 25
    },
    {
      "t": 584.1,
      "ch": 1,
      "note": 42,
      "vel": 87,
      "dur": 25
    },
    {
      "t": 584.1,
      "ch": 1,
      "note": 36,
      "vel": 94,
      "dur": 25
    },
    {
      "t": 584.1,
      "ch": 1,
      "note": 38,
      "vel": 73,
      "dur": 25
    },
    {
      "t": 584.1,
      "ch": 1,
      "note": 40,
      "vel": 93,
      "dur": 25
    },
    {
      "t": 584.1,
      "ch": 1,
      "note": 42,
      "vel": 99,
      "dur": 25
    },
    {
      "t": 584.1,
      "ch": 1,
      "note": 36,
      "vel": 93,
      "dur": 25
    },
    {
      "t": 584.1,
      "ch": 1,
      "note": 38,
      "vel": 82,
      "dur": 25
    },
    {
      "t": 584.1,
      "ch": 1,
      "note": 40,
      "vel": 104,
      "dur": 25
    },
    {
      "t": 584.1,
      "ch": 1,
      "note": 42,
      "vel": 99,
      "dur": 25
    },
    {
      "t": 584.1,
      "ch": 1,
      "note": 36,
      "vel": 83,
      "dur": 25
    },
    {
      "t": 584.1,
      "ch": 1,
      "note": 38,
      "vel": 79,
      "dur": 25
    },
    {
      "t": 584.1,
      "ch": 1,
      "note": 40,
      "vel": 78,
      "dur": 25
    },
    {
      "t": 584.1,
      "ch": 1,
      "note": 42,
      "vel": 61,
      "dur": 25
    },
    {
      "t": 584.1,
      "ch": 1,
      "note": 36,
      "vel": 85,
      "dur": 25
    },
    {
      "t": 584.1,
      "ch": 1,
      "note": 38,
      "vel": 92,
      "dur": 25
    },
    {
      "t": 584.1,
      "ch": 1,
      "note": 40,
      "vel": 74,
      "dur": 25
    },
    {
      "t": 584.1,
      "ch": 1,
      "note": 42,
      "vel": 99,
      "dur": 25
    },
    {
      "t": 584.1,
      "ch": 1,
      "note": 36,
      "vel": 60,
      "dur": 25
    },
    {
      "t": 584.1,
      "ch": 1,
      "note": 38,
      "vel": 68,
      "dur": 25
    },
    {
      "t": 584.1,
      "ch": 1,
      "note": 40,
      "vel": 71,
      "dur": 25
    },
    {
      "t": 584.1,
      "ch": 1,
      "note": 42,
      "vel": 60,
      "dur": 25
    },
    {
      "t": 584.1,
      "ch": 1,
      "note": 36,
      "vel": 93,
      "dur": 25
    },
    {
      "t": 584.1,
      "ch": 1,
      "note": 38,
      "vel": 90,
      "dur": 25
    },
    {
      "t": 584.1,
      "ch": 1,
      "note": 40,
      "vel": 96,
      "dur": 25
    },
    {
      "t": 584.1,
      "ch": 1,
      "note": 42,
      "vel": 91,
      "dur": 25
    },
    {
      "t": 584.1,
      "ch": 1,
      "note": 36,
      "vel": 85,
      "dur": 25
    },
    {
      "t": 584.1,
      "ch": 1,
      "note": 38,
      "vel": 88,
      "dur": 25
    },
    {
      "t": 584.1,
      "ch": 1,
      "note": 40,
      "vel": 100,
      "dur": 25
    },
    {
      "t": 584.1,
      "ch": 1,
      "note": 42,
      "vel": 55,
      "dur": 25
    },
    {
      "t": 584.1,
      "ch": 1,
      "note": 36,
      "vel": 68,
      "dur": 25
    },
    {
      "t": 584.1,
      "ch": 1,
      "note": 38,
      "vel": 70,
      "dur": 25
    },
    {
      "t": 584.1,
      "ch": 1,
      "note": 40,
      "vel": 84,
      "dur": 25
    },
    {
      "t": 584.1,
      "ch": 1,
      "note": 42,
      "vel": 85,
      "dur": 25
    },
    {
      "t": 584.1,
      "ch": 1,
      "note": 36,
      "vel": 71,
      "dur": 25
    },
    {
      "t": 584.1,
      "ch": 1,
      "note": 38,
      "vel": 90,
      "dur": 25
    },
    {
      "t": 584.1,
      "ch": 1,
      "note": 40,
      "vel": 88,
      "dur": 25
    },
    {
      "t": 584.1,
      "ch": 1,
      "note": 42,
      "vel": 109,
      "dur": 25
    },
    {
      "t": 584.1,
      "ch": 1,
      "note": 36,
      "vel": 98,
      "dur": 25
    },
    {
      "t": 584.1,
      "ch": 1,
      "note": 38,
      "vel": 86,
      "dur": 25
    },
    {
      "t": 584.1,
      "ch": 1,
      "note": 40,
      "vel": 99,
      "dur": 25
    },
    {
      "t": 584.1,
      "ch": 1,
      "note": 42,
      "vel": 102,
      "dur": 25
    },
    {
      "t": 584.1,
      "ch": 1,
      "note": 36,
      "vel": 101,
      "dur": 25
    },
    {
      "t": 584.1,
      "ch": 1,
      "note": 38,
      "vel": 75,
      "dur": 25
    },
    {
      "t": 584.1,
      "ch": 1,
      "note": 40,
      "vel": 89,
      "dur": 25
    },
    {
      "t": 584.1,
      "ch": 1,
      "note": 42,
      "vel": 72,
      "dur": 25
    },
    {
      "t": 584.1,
      "ch": 1,
      "note": 36,
      "vel": 83,
      "dur": 25
    },
    {
      "t": 584.1,
      "ch": 1,
      "note": 38,
      "vel": 77,
      "dur": 25
    },
    {
      "t": 584.1,
      "ch": 1,
      "note": 40,
      "vel": 98,
      "dur": 25
    },
    {
      "t": 584.1,
      "ch": 1,
      "note": 42,
      "vel": 87,
      "dur": 25
    },
    {
      "t": 584.1,
      "ch": 1,
      "note": 36,
      "vel": 98,
      "dur": 25
    },
    {
      "t": 584.1,
      "ch": 1,
      "note": 38,
      "vel": 78,
      "dur": 25
    },
    {
      "t": 584.1,
      "ch": 1,
      "note": 40,
      "vel": 97,
      "dur": 25
    },
    {
      "t": 584.1,
      "ch": 1,
      "note": 42,
      "vel": 99,
      "dur": 25
    },
    {
      "t": 584.1,
      "ch": 1,
      "note": 36,
      "vel": 80,
      "dur": 25
    },
    {
      "t": 584.1,
      "ch": 1,
      "note": 38,
      "vel": 74,
      "dur": 25
    },
    {
      "t": 584.1,
      "ch": 1,
      "note": 40,
      "vel": 73,
      "dur": 25
    },
    {
      "t": 584.1,
      "ch": 1,
      "note": 42,
      "vel": 86,
      "dur": 25
    },
    {
      "t": 584.1,
      "ch": 1,
      "note": 36,
      "vel": 96,
      "dur": 25
    },
    {
      "t": 584.1,
      "ch": 1,
      "note": 38,
      "vel": 75,
      "dur": 25
    },
    {
      "t": 584.1,
      "ch": 1,
      "note": 40,
      "vel": 97,
      "dur": 25
    },
    {
      "t": 584.1,
      "ch": 1,
      "note": 42,
      "vel": 93,
      "dur": 25
    },
    {
      "t": 584.1,
      "ch": 1,
      "note": 36,
      "vel": 102,
      "dur": 25
    },
    {
      "t": 584.1,
      "ch": 1,
      "note": 38,
      "vel": 74,
      "dur": 25
    },
    {
      "t": 584.1,
      "ch": 1,
      "note": 40,
      "vel": 104,
      "dur": 25
    },
    {
      "t": 584.1,
      "ch": 1,
      "note": 42,
      "vel": 75,
      "dur": 25
    },
    {
      "t": 584.1,
      "ch": 1,
      "note": 36,
      "vel": 93,
      "dur": 25
    },
    {
      "t": 584.1,
      "ch": 1,
      "note": 38,
      "vel": 82,
      "dur": 25
    },
    {
      "t": 584.1,
      "ch": 1,
      "note": 40,
      "vel": 100,
      "dur": 25
    },
    {
      "t": 584.1,
      "ch": 1,
      "note": 42,
      "vel": 86,
      "dur": 25
    },
    {
      "t": 584.1,
      "ch": 1,
      "note": 36,
      "vel": 91,
      "dur": 25
    },
    {
      "t": 584.1,
      "ch": 1,
      "note": 38,
      "vel": 91,
      "dur": 25
    },
    {
      "t": 584.1,
      "ch": 1,
      "note": 40,
      "vel": 98,
      "dur": 25
    },
    {
      "t": 584.1,
      "ch": 1,
      "note": 42,
      "vel": 80,
      "dur": 25
    },
    {
      "t": 584.1,
      "ch": 1,
      "note": 36,
      "vel": 100,
      "dur": 25
    },
    {
      "t": 584.1,
      "ch": 1,
      "note": 38,
      "vel": 99,
      "dur": 25
    },
    {
      "t": 584.1,
      "ch": 1,
      "note": 40,
      "vel": 81,
      "dur": 25
    },
    {
      "t": 584.1,
      "ch": 1,
      "note": 42,
      "vel": 59,
      "dur": 25
    },
    {
      "t": 584.1,
      "ch": 1,
      "note": 36,
      "vel": 75,
      "dur": 25
    },
    {
      "t": 584.1,
      "ch": 1,
      "note": 38,
      "vel": 106,
      "dur": 25
    },
    {
      "t": 584.1,
      "ch": 1,
      "note": 40,
      "vel": 93,
      "dur": 25
    },
    {
      "t": 584.1,
      "ch": 1,
      "note": 42,
      "vel": 82,
      "dur": 25
    },
    {
      "t": 584.1,
      "ch": 1,
      "note": 36,
      "vel": 76,
      "dur": 25
    },
    {
      "t": 584.1,
      "ch": 1,
      "note": 38,
      "vel": 77,
      "dur": 25
    },
    {
      "t": 584.1,
      "ch": 1,
      "note": 40,
      "vel": 94,
      "dur": 25
    },
    {
      "t": 584.1,
      "ch": 1,
      "note": 42,
      "vel": 71,
      "dur": 25
    },
    {
      "t": 584.1,
      "ch": 1,
      "note": 36,
      "vel": 96,
      "dur": 25
    },
    {
      "t": 584.1,
      "ch": 1,
      "note": 38,
      "vel": 86,
      "dur": 25
    },
    {
      "t": 584.1,
      "ch": 1,
      "note": 40,
      "vel": 90,
      "dur": 25
    },
    {
      "t": 584.1,
      "ch": 1,
      "note": 42,
      "vel": 95,
      "dur": 25
    },
    {
      "t": 584.1,
      "ch": 1,
      "note": 36,
      "vel": 82,
      "dur": 25
    },
    {
      "t": 584.1,
      "ch": 1,
      "note": 38,
      "vel": 66,
      "dur": 25
    },
    {
      "t": 584.1,
      "ch": 1,
      "note": 40,
      "vel": 91,
      "dur": 25
    },
    {
      "t": 584.1,
      "ch": 1,
      "note": 42,
      "vel": 73,
      "dur": 25
    },
    {
      "t": 584.1,
      "ch": 1,
      "note": 36,
      "vel": 70,
      "dur": 25
    },
    {
      "t": 584.1,
      "ch": 1,
      "note": 38,
      "vel": 82,
      "dur": 25
    },
    {
      "t": 584.1,
      "ch": 1,
      "note": 40,
      "vel": 79,
      "dur": 25
    },
    {
      "t": 584.1,
      "ch": 1,
      "note": 42,
      "vel": 71,
      "dur": 25
    },
    {
      "t": 584.1,
      "ch": 1,
      "note": 36,
      "vel": 74,
      "dur": 25
    },
    {
      "t": 584.1,
      "ch": 1,
      "note": 38,
      "vel": 94,
      "dur": 25
    },
    {
      "t": 584.1,
      "ch": 1,
      "note": 40,
      "vel": 73,
      "dur": 25
    },
    {
      "t": 584.1,
      "ch": 1,
      "note": 42,
      "vel": 75,
      "dur": 25
    },
    {
      "t": 584.1,
      "ch": 1,
      "note": 36,
      "vel": 102,
      "dur": 25
    },
    {
      "t": 584.1,
      "ch": 1,
      "note": 38,
      "vel": 63,
      "dur": 25
    },
    {
      "t": 584.1,
      "ch": 1,
      "note": 40,
      "vel": 79,
      "dur": 25
    },
    {
      "t": 584.1,
      "ch": 1,
      "note": 42,
      "vel": 73,
      "dur": 25
    },
    {
      "t": 584.1,
      "ch": 1,
      "note": 36,
      "vel": 95,
      "dur": 25
    },
    {
      "t": 584.1,
      "ch": 1,
      "note": 38,
      "vel": 89,
      "dur": 25
    },
    {
      "t": 584.1,
      "ch": 1,
      "note": 40,
      "vel": 64,
      "dur": 25
    },
    {
      "t": 584.1,
      "ch": 1,
      "note": 42,
      "vel": 74,
      "dur": 25
    },
    {
      "t": 584.1,
      "ch": 1,
      "note": 36,
      "vel": 93,
      "dur": 25
    },
    {
      "t": 584.1,
      "ch": 1,
      "note": 38,
      "vel": 85,
      "dur": 25
    },
    {
      "t": 584.1,
      "ch": 1,
      "note": 40,
      "vel": 93,
      "dur": 25
    },
    {
      "t": 584.1,
      "ch": 1,
      "note": 42,
      "vel": 69,
      "dur": 25
    },
    {
      "t": 584.1,
      "ch": 1,
      "note": 36,
      "vel": 91,
      "dur": 25
    },
    {
      "t": 584.1,
      "ch": 1,
      "note": 38,
      "vel": 92,
      "dur": 25
    },
    {
      "t": 584.1,
      "ch": 1,
      "note": 40,
      "vel": 71,
      "dur": 25
    },
    {
      "t": 584.1,
      "ch": 1,
      "note": 42,
      "vel": 75,
      "dur": 25
    },
    {
      "t": 584.1,
      "ch": 1,
      "note": 36,
      "vel": 100,
      "dur": 25
    },
    {
      "t": 584.1,
      "ch": 1,
      "note": 38,
      "vel": 69,
      "dur": 25
    },
    {
      "t": 584.1,
      "ch": 1,
      "note": 40,
      "vel": 86,
      "dur": 25
    },
    {
      "t": 584.1,
      "ch": 1,
      "note": 42,
      "vel": 100,
      "dur": 25
    },
    {
      "t": 584.1,
      "ch": 1,
      "note": 36,
      "vel": 97,
      "dur": 25
    },
    {
      "t": 584.1,
      "ch": 1,
      "note": 38,
      "vel": 94,
      "dur": 25
    },
    {
      "t": 584.1,
      "ch": 1,
      "note": 40,
      "vel": 84,
      "dur": 25
    },
    {
      "t": 584.1,
      "ch": 1,
      "note": 42,
      "vel": 78,
      "dur": 25
    },
    {
      "t": 584.1,
      "ch": 1,
      "note": 36,
      "vel": 100,
      "dur": 25
    },
    {
      "t": 584.1,
      "ch": 1,
      "note": 38,
      "vel": 81,
      "dur": 25
    },
    {
      "t": 584.1,
      "ch": 1,
      "note": 40,
      "vel": 60,
      "dur": 25
    },
    {
      "t": 584.1,
      "ch": 1,
      "note": 42,
      "vel": 83,
      "dur": 25
    },
    {
      "t": 584.1,
      "ch": 1,
      "note": 36,
      "vel": 59,
      "dur": 25
    },
    {
      "t": 584.1,
      "ch": 1,
      "note": 38,
      "vel": 108,
      "dur": 25
    },
    {
      "t": 584.1,
      "ch": 1,
      "note": 40,
      "vel": 104,
      "dur": 25
    },
    {
      "t": 584.1,
      "ch": 1,
      "note": 42,
      "vel": 75,
      "dur": 25
    },
    {
      "t": 584.1,
      "ch": 1,
      "note": 36,
      "vel": 94,
      "dur": 25
    },
    {
      "t": 584.1,
      "ch": 1,
      "note": 38,
      "vel": 77,
      "dur": 25
    },
    {
      "t": 584.1,
      "ch": 1,
      "note": 40,
      "vel": 65,
      "dur": 25
    },
    {
      "t": 584.1,
      "ch": 1,
      "note": 42,
      "vel": 76,
      "dur": 25
    },
    {
      "t": 584.1,
      "ch": 1,
      "note": 36,
      "vel": 57,
      "dur": 25
    },
    {
      "t": 584.1,
      "ch": 1,
      "note": 38,
      "vel": 81,
      "dur": 25
    },
    {
      "t": 584.1,
      "ch": 1,
      "note": 40,
      "vel": 93,
      "dur": 25
    },
    {
      "t": 584.1,
      "ch": 1,
      "note": 42,
      "vel": 94,
      "dur": 25
    },
    {
      "t": 584.1,
      "ch": 1,
      "note": 36,
      "vel": 97,
      "dur": 25
    },
    {
      "t": 584.1,
      "ch": 1,
      "note": 38,
      "vel": 114,
      "dur": 25
    },
    {
      "t": 584.1,
      "ch": 1,
      "note": 40,
      "vel": 76,
      "dur": 25
    },
    {
      "t": 584.1,
      "ch": 1,
      "note": 42,
      "vel": 75,
      "dur": 25
    },
    {
      "t": 584.1,
      "ch": 1,
      "note": 36,
      "vel": 91,
      "dur": 25
    },
    {
      "t": 584.1,
      "ch": 1,
      "note": 38,
      "vel": 68,
      "dur": 25
    },
    {
      "t": 584.1,
      "ch": 1,
      "note": 40,
      "vel": 96,
      "dur": 25
    },
    {
      "t": 584.1,
      "ch": 1,
      "note": 42,
      "vel": 111,
      "dur": 25
    },
    {
      "t": 584.1,
      "ch": 1,
      "note": 36,
      "vel": 105,
      "dur": 25
    },
    {
      "t": 584.1,
      "ch": 1,
      "note": 38,
      "vel": 84,
      "dur": 25
    },
    {
      "t": 584.1,
      "ch": 1,
      "note": 40,
      "vel": 84,
      "dur": 25
    },
    {
      "t": 584.1,
      "ch": 1,
      "note": 42,
      "vel": 103,
      "dur": 25
    },
    {
      "t": 584.1,
      "ch": 1,
      "note": 36,
      "vel": 110,
      "dur": 25
    },
    {
      "t": 584.1,
      "ch": 1,
      "note": 38,
      "vel": 73,
      "dur": 25
    },
    {
      "t": 584.1,
      "ch": 1,
      "note": 40,
      "vel": 118,
      "dur": 25
    },
    {
      "t": 584.1,
      "ch": 1,
      "note": 42,
      "vel": 107,
      "dur": 25
    },
    {
      "t": 584.1,
      "ch": 1,
      "note": 36,
      "vel": 103,
      "dur": 25
    },
    {
      "t": 584.1,
      "ch": 1,
      "note": 38,
      "vel": 85,
      "dur": 25
    },
    {
      "t": 584.1,
      "ch": 1,
      "note": 40,
      "vel": 101,
      "dur": 25
    },
    {
      "t": 584.1,
      "ch": 1,
      "note": 42,
      "vel": 77,
      "dur": 25
    },
    {
      "t": 584.1,
      "ch": 1,
      "note": 36,
      "vel": 87,
      "dur": 25
    },
    {
      "t": 584.1,
      "ch": 1,
      "note": 38,
      "vel": 86,
      "dur": 25
    },
    {
      "t": 584.1,
      "ch": 1,
      "note": 40,
      "vel": 94,
      "dur": 25
    },
    {
      "t": 584.1,
      "ch": 1,
      "note": 42,
      "vel": 72,
      "dur": 25
    },
    {
      "t": 584.1,
      "ch": 1,
      "note": 36,
      "vel": 80,
      "dur": 25
    },
    {
      "t": 584.1,
      "ch": 1,
      "note": 38,
      "vel": 78,
      "dur": 25
    },
    {
      "t": 584.1,
      "ch": 1,
      "note": 40,
      "vel": 86,
      "dur": 25
    },
    {
      "t": 584.1,
      "ch": 1,
      "note": 42,
      "vel": 66,
      "dur": 25
    },
    {
      "t": 584.1,
      "ch": 1,
      "note": 36,
      "vel": 61,
      "dur": 25
    },
    {
      "t": 584.1,
      "ch": 1,
      "note": 38,
      "vel": 85,
      "dur": 25
    },
    {
      "t": 584.1,
      "ch": 1,
      "note": 40,
      "vel": 74,
      "dur": 25
    },
    {
      "t": 584.1,
      "ch": 1,
      "note": 42,
      "vel": 75,
      "dur": 25
    },
    {
      "t": 584.1,
      "ch": 1,
      "note": 36,
      "vel": 96,
      "dur": 25
    },
    {
      "t": 584.1,
      "ch": 1,
      "note": 38,
      "vel": 93,
      "dur": 25
    },
    {
      "t": 584.1,
      "ch": 1,
      "note": 40,
      "vel": 72,
      "dur": 25
    },
    {
      "t": 584.1,
      "ch": 1,
      "note": 42,
      "vel": 81,
      "dur": 25
    },
    {
      "t": 584.1,
      "ch": 1,
      "note": 36,
      "vel": 99,
      "dur": 25
    },
    {
      "t": 584.1,
      "ch": 1,
      "note": 38,
      "vel": 69,
      "dur": 25
    },
    {
      "t": 584.1,
      "ch": 1,
      "note": 40,
      "vel": 99,
      "dur": 25
    },
    {
      "t": 584.1,
      "ch": 1,
      "note": 42,
      "vel": 87,
      "dur": 25
    },
    {
      "t": 584.1,
      "ch": 1,
      "note": 36,
      "vel": 88,
      "dur": 25
    },
    {
      "t": 584.1,
      "ch": 1,
      "note": 38,
      "vel": 72,
      "dur": 25
    },
    {
      "t": 584.1,
      "ch": 1,
      "note": 40,
      "vel": 96,
      "dur": 25
    },
    {
      "t": 584.1,
      "ch": 1,
      "note": 42,
      "vel": 94,
      "dur": 25
    },
    {
      "t": 584.1,
      "ch": 1,
      "note": 36,
      "vel": 89,
      "dur": 25
    },
    {
      "t": 584.1,
      "ch": 1,
      "note": 38,
      "vel": 84,
      "dur": 25
    },
    {
      "t": 584.1,
      "ch": 1,
      "note": 40,
      "vel": 61,
      "dur": 25
    },
    {
      "t": 584.1,
      "ch": 1,
      "note": 42,
      "vel": 101,
      "dur": 25
    },
    {
      "t": 584.1,
      "ch": 1,
      "note": 36,
      "vel": 69,
      "dur": 25
    },
    {
      "t": 584.1,
      "ch": 1,
      "note": 38,
      "vel": 97,
      "dur": 25
    },
    {
      "t": 584.1,
      "ch": 1,
      "note": 40,
      "vel": 99,
      "dur": 25
    },
    {
      "t": 584.1,
      "ch": 1,
      "note": 42,
      "vel": 88,
      "dur": 25
    },
    {
      "t": 584.1,
      "ch": 1,
      "note": 36,
      "vel": 92,
      "dur": 25
    },
    {
      "t": 584.1,
      "ch": 1,
      "note": 38,
      "vel": 91,
      "dur": 25
    },
    {
      "t": 584.1,
      "ch": 1,
      "note": 40,
      "vel": 88,
      "dur": 25
    },
    {
      "t": 584.1,
      "ch": 1,
      "note": 42,
      "vel": 71,
      "dur": 25
    },
    {
      "t": 584.1,
      "ch": 1,
      "note": 36,
      "vel": 90,
      "dur": 25
    },
    {
      "t": 584.1,
      "ch": 1,
      "note": 38,
      "vel": 99,
      "dur": 25
    },
    {
      "t": 584.1,
      "ch": 1,
      "note": 40,
      "vel": 79,
      "dur": 25
    },
    {
      "t": 584.1,
      "ch": 1,
      "note": 42,
      "vel": 87,
      "dur": 25
    },
    {
      "t": 584.1,
      "ch": 1,
      "note": 36,
      "vel": 78,
      "dur": 25
    },
    {
      "t": 584.1,
      "ch": 1,
      "note": 38,
      "vel": 69,
      "dur": 25
    },
    {
      "t": 584.1,
      "ch": 1,
      "note": 40,
      "vel": 67,
      "dur": 25
    },
    {
      "t": 584.1,
      "ch": 1,
      "note": 42,
      "vel": 71,
      "dur": 25
    },
    {
      "t": 584.1,
      "ch": 1,
      "note": 36,
      "vel": 94,
      "dur": 25
    },
    {
      "t": 584.1,
      "ch": 1,
      "note": 38,
      "vel": 72,
      "dur": 25
    },
    {
      "t": 584.1,
      "ch": 1,
      "note": 40,
      "vel": 77,
      "dur": 25
    },
    {
      "t": 584.1,
      "ch": 1,
      "note": 42,
      "vel": 62,
      "dur": 25
    },
    {
      "t": 584.1,
      "ch": 1,
      "note": 36,
      "vel": 61,
      "dur": 25
    },
    {
      "t": 584.1,
      "ch": 1,
      "note": 38,
      "vel": 65,
      "dur": 25
    },
    {
      "t": 584.1,
      "ch": 1,
      "note": 40,
      "vel": 108,
      "dur": 25
    },
    {
      "t": 584.1,
      "ch": 1,
      "note": 42,
      "vel": 79,
      "dur": 25
    },
    {
      "t": 584.1,
      "ch": 1,
      "note": 36,
      "vel": 87,
      "dur": 25
    },
    {
      "t": 584.1,
      "ch": 1,
      "note": 38,
      "vel": 86,
      "dur": 25
    },
    {
      "t": 584.1,
      "ch": 1,
      "note": 40,
      "vel": 79,
      "dur": 25
    },
    {
      "t": 584.1,
      "ch": 1,
      "note": 42,
      "vel": 93,
      "dur": 25
    },
    {
      "t": 584.1,
      "ch": 1,
      "note": 36,
      "vel": 95,
      "dur": 25
    },
    {
      "t": 584.1,
      "ch": 1,
      "note": 38,
      "vel": 70,
      "dur": 25
    },
    {
      "t": 584.1,
      "ch": 1,
      "note": 40,
      "vel": 104,
      "dur": 25
    },
    {
      "t": 584.1,
      "ch": 1,
      "note": 42,
      "vel": 88,
      "dur": 25
    },
    {
      "t": 584.1,
      "ch": 1,
      "note": 36,
      "vel": 99,
      "dur": 25
    },
    {
      "t": 584.1,
      "ch": 1,
      "note": 38,
      "vel": 97,
      "dur": 25
    },
    {
      "t": 584.1,
      "ch": 1,
      "note": 40,
      "vel": 82,
      "dur": 25
    },
    {
      "t": 584.1,
      "ch": 1,
      "note": 42,
      "vel": 61,
      "dur": 25
    },
    {
      "t": 584.1,
      "ch": 1,
      "note": 36,
      "vel": 85,
      "dur": 25
    },
    {
      "t": 584.1,
      "ch": 1,
      "note": 38,
      "vel": 95,
      "dur": 25
    },
    {
      "t": 584.1,
      "ch": 1,
      "note": 40,
      "vel": 88,
      "dur": 25
    },
    {
      "t": 584.1,
      "ch": 1,
      "note": 42,
      "vel": 76,
      "dur": 25
    },
    {
      "t": 584.1,
      "ch": 1,
      "note": 36,
      "vel": 86,
      "dur": 25
    },
    {
      "t": 584.1,
      "ch": 1,
      "note": 38,
      "vel": 92,
      "dur": 25
    },
    {
      "t": 584.1,
      "ch": 1,
      "note": 40,
      "vel": 71,
      "dur": 25
    },
    {
      "t": 584.1,
      "ch": 1,
      "note": 42,
      "vel": 94,
      "dur": 25
    },
    {
      "t": 584.1,
      "ch": 1,
      "note": 36,
      "vel": 73,
      "dur": 25
    },
    {
      "t": 584.1,
      "ch": 1,
      "note": 38,
      "vel": 78,
      "dur": 25
    },
    {
      "t": 584.1,
      "ch": 1,
      "note": 40,
      "vel": 73,
      "dur": 25
    },
    {
      "t": 584.1,
      "ch": 1,
      "note": 42,
      "vel": 86,
      "dur": 25
    },
    {
      "t": 584.1,
      "ch": 1,
      "note": 36,
      "vel": 86,
      "dur": 25
    },
    {
      "t": 584.1,
      "ch": 1,
      "note": 38,
      "vel": 79,
      "dur": 25
    },
    {
      "t": 584.1,
      "ch": 1,
      "note": 40,
      "vel": 91,
      "dur": 25
    },
    {
      "t": 584.1,
      "ch": 1,
      "note": 42,
      "vel": 74,
      "dur": 25
    },
    {
      "t": 584.1,
      "ch": 1,
      "note": 36,
      "vel": 88,
      "dur": 25
    },
    {
      "t": 584.1,
      "ch": 1,
      "note": 38,
      "vel": 106,
      "dur": 25
    },
    {
      "t": 584.1,
      "ch": 1,
      "note": 40,
      "vel": 67,
      "dur": 25
    },
    {
      "t": 584.1,
      "ch": 1,
      "note": 42,
      "vel": 61,
      "dur": 25
    },
    {
      "t": 584.1,
      "ch": 1,
      "note": 36,
      "vel": 85,
      "dur": 25
    },
    {
      "t": 584.1,
      "ch": 1,
      "note": 38,
      "vel": 69,
      "dur": 25
    },
    {
      "t": 584.1,
      "ch": 1,
      "note": 40,
      "vel": 89,
      "dur": 25
    },
    {
      "t": 584.1,
      "ch": 1,
      "note": 42,
      "vel": 107,
      "dur": 25
    },
    {
      "t": 584.1,
      "ch": 1,
      "note": 36,
      "vel": 80,
      "dur": 25
    },
    {
      "t": 584.1,
      "ch": 1,
      "note": 38,
      "vel": 76,
      "dur": 25
    },
    {
      "t": 584.1,
      "ch": 1,
      "note": 40,
      "vel": 93,
      "dur": 25
    },
    {
      "t": 584.1,
      "ch": 1,
      "note": 42,
      "vel": 87,
      "dur": 25
    },
    {
      "t": 584.1,
      "ch": 1,
      "note": 36,
      "vel": 84,
      "dur": 25
    },
    {
      "t": 584.1,
      "ch": 1,
      "note": 38,
      "vel": 72,
      "dur": 25
    },
    {
      "t": 584.1,
      "ch": 1,
      "note": 40,
      "vel": 79,
      "dur": 25
    },
    {
      "t": 584.1,
      "ch": 1,
      "note": 42,
      "vel": 104,
      "dur": 25
    },
    {
      "t": 584.1,
      "ch": 1,
      "note": 36,
      "vel": 70,
      "dur": 25
    },
    {
      "t": 584.1,
      "ch": 1,
      "note": 38,
      "vel": 77,
      "dur": 25
    },
    {
      "t": 584.1,
      "ch": 1,
      "note": 40,
      "vel": 81,
      "dur": 25
    },
    {
      "t": 584.1,
      "ch": 1,
      "note": 42,
      "vel": 66,
      "dur": 25
    },
    {
      "t": 584.1,
      "ch": 1,
      "note": 36,
      "vel": 78,
      "dur": 25
    },
    {
      "t": 584.1,
      "ch": 1,
      "note": 38,
      "vel": 64,
      "dur": 25
    },
    {
      "t": 584.1,
      "ch": 1,
      "note": 40,
      "vel": 67,
      "dur": 25
    },
    {
      "t": 584.1,
      "ch": 1,
      "note": 42,
      "vel": 74,
      "dur": 25
    },
    {
      "t": 584.1,
      "ch": 1,
      "note": 36,
      "vel": 61,
      "dur": 25
    },
    {
      "t": 584.1,
      "ch": 1,
      "note": 38,
      "vel": 95,
      "dur": 25
    },
    {
      "t": 584.1,
      "ch": 1,
      "note": 40,
      "vel": 93,
      "dur": 25
    },
    {
      "t": 584.1,
      "ch": 1,
      "note": 42,
      "vel": 95,
      "dur": 25
    },
    {
      "t": 584.1,
      "ch": 1,
      "note": 36,
      "vel": 97,
      "dur": 25
    },
    {
      "t": 584.1,
      "ch": 1,
      "note": 38,
      "vel": 91,
      "dur": 25
    },
    {
      "t": 584.1,
      "ch": 1,
      "note": 40,
      "vel": 92,
      "dur": 25
    },
    {
      "t": 584.1,
      "ch": 1,
      "note": 42,
      "vel": 73,
      "dur": 25
    },
    {
      "t": 584.1,
      "ch": 1,
      "note": 36,
      "vel": 93,
      "dur": 25
    },
    {
      "t": 584.1,
      "ch": 1,
      "note": 38,
      "vel": 65,
      "dur": 25
    },
    {
      "t": 584.1,
      "ch": 1,
      "note": 40,
      "vel": 68,
      "dur": 25
    },
    {
      "t": 584.1,
      "ch": 1,
      "note": 42,
      "vel": 72,
      "dur": 25
    },
    {
      "t": 584.1,
      "ch": 1,
      "note": 36,
      "vel": 76,
      "dur": 25
    },
    {
      "t": 584.1,
      "ch": 1,
      "note": 38,
      "vel": 66,
      "dur": 25
    },
    {
      "t": 584.1,
      "ch": 1,
      "note": 40,
      "vel": 80,
      "dur": 25
    },
    {
      "t": 584.1,
      "ch": 1,
      "note": 42,
      "vel": 85,
      "dur": 25
    },
    {
      "t": 584.1,
      "ch": 1,
      "note": 36,
      "vel": 90,
      "dur": 25
    },
    {
      "t": 584.1,
      "ch": 1,
      "note": 38,
      "vel": 94,
      "dur": 25
    },
    {
      "t": 584.1,
      "ch": 1,
      "note": 40,
      "vel": 83,
      "dur": 25
    },
    {
      "t": 584.1,
      "ch": 1,
      "note": 42,
      "vel": 67,
      "dur": 25
    },
    {
      "t": 584.1,
      "ch": 1,
      "note": 36,
      "vel": 84,
      "dur": 25
    },
    {
      "t": 584.1,
      "ch": 1,
      "note": 38,
      "vel": 82,
      "dur": 25
    },
    {
      "t": 584.1,
      "ch": 1,
      "note": 40,
      "vel": 91,
      "dur": 25
    },
    {
      "t": 584.1,
      "ch": 1,
      "note": 42,
      "vel": 79,
      "dur": 25
    },
    {
      "t": 584.1,
      "ch": 1,
      "note": 36,
      "vel": 97,
      "dur": 25
    },
    {
      "t": 584.1,
      "ch": 1,
      "note": 38,
      "vel": 86,
      "dur": 25
    },
    {
      "t": 584.1,
      "ch": 1,
      "note": 40,
      "vel": 101,
      "dur": 25
    },
    {
      "t": 584.1,
      "ch": 1,
      "note": 42,
      "vel": 83,
      "dur": 25
    },
    {
      "t": 584.1,
      "ch": 1,
      "note": 36,
      "vel": 84,
      "dur": 25
    },
    {
      "t": 584.1,
      "ch": 1,
      "note": 38,
      "vel": 78,
      "dur": 25
    },
    {
      "t": 584.1,
      "ch": 1,
      "note": 40,
      "vel": 98,
      "dur": 25
    },
    {
      "t": 584.1,
      "ch": 1,
      "note": 42,
      "vel": 66,
      "dur": 25
    },
    {
      "t": 584.1,
      "ch": 1,
      "note": 36,
      "vel": 91,
      "dur": 25
    },
    {
      "t": 584.1,
      "ch": 1,
      "note": 38,
      "vel": 90,
      "dur": 25
    },
    {
      "t": 584.1,
      "ch": 1,
      "note": 40,
      "vel": 73,
      "dur": 25
    },
    {
      "t": 584.1,
      "ch": 1,
      "note": 42,
      "vel": 86,
      "dur": 25
    },
    {
      "t": 584.1,
      "ch": 1,
      "note": 36,
      "vel": 87,
      "dur": 25
    },
    {
      "t": 584.1,
      "ch": 1,
      "note": 38,
      "vel": 84,
      "dur": 25
    },
    {
      "t": 584.1,
      "ch": 1,
      "note": 40,
      "vel": 89,
      "dur": 25
    },
    {
      "t": 584.1,
      "ch": 1,
      "note": 42,
      "vel": 94,
      "dur": 25
    },
    {
      "t": 584.1,
      "ch": 1,
      "note": 36,
      "vel": 107,
      "dur": 25
    },
    {
      "t": 584.1,
      "ch": 1,
      "note": 38,
      "vel": 89,
      "dur": 25
    },
    {
      "t": 584.1,
      "ch": 1,
      "note": 40,
      "vel": 75,
      "dur": 25
    },
    {
      "t": 584.1,
      "ch": 1,
      "note": 42,
      "vel": 76,
      "dur": 25
    },
    {
      "t": 584.1,
      "ch": 1,
      "note": 36,
      "vel": 105,
      "dur": 25
    },
    {
      "t": 584.1,
      "ch": 1,
      "note": 38,
      "vel": 87,
      "dur": 25
    },
    {
      "t": 584.1,
      "ch": 1,
      "note": 40,
      "vel": 79,
      "dur": 25
    },
    {
      "t": 584.1,
      "ch": 1,
      "note": 42,
      "vel": 76,
      "dur": 25
    },
    {
      "t": 584.1,
      "ch": 1,
      "note": 36,
      "vel": 85,
      "dur": 25
    },
    {
      "t": 584.1,
      "ch": 1,
      "note": 38,
      "vel": 94,
      "dur": 25
    },
    {
      "t": 584.1,
      "ch": 1,
      "note": 40,
      "vel": 83,
      "dur": 25
    },
    {
      "t": 584.1,
      "ch": 1,
      "note": 42,
      "vel": 91,
      "dur": 25
    },
    {
      "t": 584.1,
      "ch": 1,
      "note": 36,
      "vel": 104,
      "dur": 25
    },
    {
      "t": 584.1,
      "ch": 1,
      "note": 38,
      "vel": 70,
      "dur": 25
    },
    {
      "t": 584.1,
      "ch": 1,
      "note": 40,
      "vel": 95,
      "dur": 25
    },
    {
      "t": 584.1,
      "ch": 1,
      "note": 42,
      "vel": 97,
      "dur": 25
    },
    {
      "t": 584.1,
      "ch": 1,
      "note": 36,
      "vel": 64,
      "dur": 25
    },
    {
      "t": 584.1,
      "ch": 1,
      "note": 38,
      "vel": 92,
      "dur": 25
    },
    {
      "t": 584.1,
      "ch": 1,
      "note": 40,
      "vel": 79,
      "dur": 25
    },
    {
      "t": 584.1,
      "ch": 1,
      "note": 42,
      "vel": 70,
      "dur": 25
    },
    {
      "t": 584.1,
      "ch": 1,
      "note": 36,
      "vel": 90,
      "dur": 25
    },
    {
      "t": 584.1,
      "ch": 1,
      "note": 38,
      "vel": 70,
      "dur": 25
    },
    {
      "t": 584.1,
      "ch": 1,
      "note": 40,
      "vel": 85,
      "dur": 25
    },
    {
      "t": 584.1,
      "ch": 1,
      "note": 42,
      "vel": 94,
      "dur": 25
    },
    {
      "t": 584.1,
      "ch": 1,
      "note": 36,
      "vel": 89,
      "dur": 25
    },
    {
      "t": 584.1,
      "ch": 1,
      "note": 38,
      "vel": 86,
      "dur": 25
    },
    {
      "t": 584.1,
      "ch": 1,
      "note": 40,
      "vel": 69,
      "dur": 25
    },
    {
      "t": 584.1,
      "ch": 1,
      "note": 42,
      "vel": 77,
      "dur": 25
    },
    {
      "t": 584.1,
      "ch": 1,
      "note": 36,
      "vel": 80,
      "dur": 25
    },
    {
      "t": 584.1,
      "ch": 1,
      "note": 38,
      "vel": 65,
      "dur": 25
    },
    {
      "t": 584.1,
      "ch": 1,
      "note": 40,
      "vel": 102,
      "dur": 25
    },
    {
      "t": 584.1,
      "ch": 1,
      "note": 42,
      "vel": 96,
      "dur": 25
    },
    {
      "t": 584.1,
      "ch": 1,
      "note": 36,
      "vel": 82,
      "dur": 25
    },
    {
      "t": 584.1,
      "ch": 1,
      "note": 38,
      "vel": 87,
      "dur": 25
    },
    {
      "t": 584.1,
      "ch": 1,
      "note": 40,
      "vel": 95,
      "dur": 25
    },
    {
      "t": 584.1,
      "ch": 1,
      "note": 42,
      "vel": 71,
      "dur": 25
    },
    {
      "t": 584.1,
      "ch": 1,
      "note": 36,
      "vel": 93,
      "dur": 25
    },
    {
      "t": 584.1,
      "ch": 1,
      "note": 38,
      "vel": 98,
      "dur": 25
    },
    {
      "t": 584.1,
      "ch": 1,
      "note": 40,
      "vel": 69,
      "dur": 25
    },
    {
      "t": 584.1,
      "ch": 1,
      "note": 42,
      "vel": 59,
      "dur": 25
    },
    {
      "t": 584.1,
      "ch": 1,
      "note": 36,
      "vel": 73,
      "dur": 25
    },
    {
      "t": 584.1,
      "ch": 1,
      "note": 38,
      "vel": 82,
      "dur": 25
    },
    {
      "t": 584.1,
      "ch": 1,
      "note": 40,
      "vel": 64,
      "dur": 25
    },
    {
      "t": 584.1,
      "ch": 1,
      "note": 42,
      "vel": 64,
      "dur": 25
    },
    {
      "t": 584.1,
      "ch": 1,
      "note": 36,
      "vel": 85,
      "dur": 25
    },
    {
      "t": 584.1,
      "ch": 1,
      "note": 38,
      "vel": 70,
      "dur": 25
    },
    {
      "t": 584.1,
      "ch": 1,
      "note": 40,
      "vel": 91,
      "dur": 25
    },
    {
      "t": 584.1,
      "ch": 1,
      "note": 42,
      "vel": 84,
      "dur": 25
    },
    {
      "t": 584.1,
      "ch": 1,
      "note": 36,
      "vel": 76,
      "dur": 25
    },
    {
      "t": 584.1,
      "ch": 1,
      "note": 38,
      "vel": 74,
      "dur": 25
    },
    {
      "t": 584.1,
      "ch": 1,
      "note": 40,
      "vel": 65,
      "dur": 25
    },
    {
      "t": 584.1,
      "ch": 1,
      "note": 42,
      "vel": 79,
      "dur": 25
    },
    {
      "t": 584.1,
      "ch": 1,
      "note": 36,
      "vel": 76,
      "dur": 25
    },
    {
      "t": 584.1,
      "ch": 1,
      "note": 38,
      "vel": 64,
      "dur": 25
    },
    {
      "t": 584.1,
      "ch": 1,
      "note": 40,
      "vel": 82,
      "dur": 25
    },
    {
      "t": 584.1,
      "ch": 1,
      "note": 42,
      "vel": 75,
      "dur": 25
    },
    {
      "t": 584.1,
      "ch": 1,
      "note": 36,
      "vel": 86,
      "dur": 25
    },
    {
      "t": 584.1,
      "ch": 1,
      "note": 38,
      "vel": 70,
      "dur": 25
    },
    {
      "t": 584.1,
      "ch": 1,
      "note": 40,
      "vel": 111,
      "dur": 25
    },
    {
      "t": 584.1,
      "ch": 1,
      "note": 42,
      "vel": 86,
      "dur": 25
    },
    {
      "t": 584.1,
      "ch": 1,
      "note": 36,
      "vel": 87,
      "dur": 25
    },
    {
      "t": 584.1,
      "ch": 1,
      "note": 38,
      "vel": 93,
      "dur": 25
    },
    {
      "t": 584.1,
      "ch": 1,
      "note": 40,
      "vel": 80,
      "dur": 25
    },
    {
      "t": 584.1,
      "ch": 1,
      "note": 42,
      "vel": 111,
      "dur": 25
    },
    {
      "t": 584.1,
      "ch": 1,
      "note": 36,
      "vel": 76,
      "dur": 25
    },
    {
      "t": 584.1,
      "ch": 1,
      "note": 38,
      "vel": 95,
      "dur": 25
    },
    {
      "t": 584.1,
      "ch": 1,
      "note": 40,
      "vel": 101,
      "dur": 25
    },
    {
      "t": 584.1,
      "ch": 1,
      "note": 42,
      "vel": 79,
      "dur": 25
    },
    {
      "t": 584.1,
      "ch": 1,
      "note": 36,
      "vel": 74,
      "dur": 25
    },
    {
      "t": 584.1,
      "ch": 1,
      "note": 38,
      "vel": 90,
      "dur": 25
    },
    {
      "t": 584.1,
      "ch": 1,
      "note": 40,
      "vel": 86,
      "dur": 25
    },
    {
      "t": 584.1,
      "ch": 1,
      "note": 42,
      "vel": 88,
      "dur": 25
    },
    {
      "t": 584.1,
      "ch": 1,
      "note": 36,
      "vel": 76,
      "dur": 25
    },
    {
      "t": 584.1,
      "ch": 1,
      "note": 38,
      "vel": 86,
      "dur": 25
    },
    {
      "t": 584.1,
      "ch": 1,
      "note": 40,
      "vel": 99,
      "dur": 25
    },
    {
      "t": 584.1,
      "ch": 1,
      "note": 42,
      "vel": 81,
      "dur": 25
    },
    {
      "t": 584.1,
      "ch": 1,
      "note": 36,
      "vel": 90,
      "dur": 25
    },
    {
      "t": 584.1,
      "ch": 1,
      "note": 38,
      "vel": 66,
      "dur": 25
    },
    {
      "t": 584.1,
      "ch": 1,
      "note": 40,
      "vel": 84,
      "dur": 25
    },
    {
      "t": 584.1,
      "ch": 1,
      "note": 42,
      "vel": 100,
      "dur": 25
    },
    {
      "t": 584.1,
      "ch": 1,
      "note": 36,
      "vel": 93,
      "dur": 25
    },
    {
      "t": 584.1,
      "ch": 1,
      "note": 38,
      "vel": 87,
      "dur": 25
    },
    {
      "t": 584.1,
      "ch": 1,
      "note": 40,
      "vel": 57,
      "dur": 25
    },
    {
      "t": 584.1,
      "ch": 1,
      "note": 42,
      "vel": 86,
      "dur": 25
    },
    {
      "t": 584.1,
      "ch": 1,
      "note": 36,
      "vel": 82,
      "dur": 25
    },
    {
      "t": 584.1,
      "ch": 1,
      "note": 38,
      "vel": 64,
      "dur": 25
    },
    {
      "t": 584.1,
      "ch": 1,
      "note": 40,
      "vel": 59,
      "dur": 25
    },
    {
      "t": 584.1,
      "ch": 1,
      "note": 42,
      "vel": 77,
      "dur": 25
    },
    {
      "t": 584.1,
      "ch": 1,
      "note": 36,
      "vel": 89,
      "dur": 25
    },
    {
      "t": 584.1,
      "ch": 1,
      "note": 38,
      "vel": 101,
      "dur": 25
    },
    {
      "t": 584.1,
      "ch": 1,
      "note": 40,
      "vel": 82,
      "dur": 25
    },
    {
      "t": 584.1,
      "ch": 1,
      "note": 42,
      "vel": 53,
      "dur": 25
    },
    {
      "t": 584.1,
      "ch": 1,
      "note": 36,
      "vel": 77,
      "dur": 25
    },
    {
      "t": 584.1,
      "ch": 1,
      "note": 38,
      "vel": 85,
      "dur": 25
    },
    {
      "t": 584.1,
      "ch": 1,
      "note": 40,
      "vel": 82,
      "dur": 25
    },
    {
      "t": 584.1,
      "ch": 1,
      "note": 42,
      "vel": 85,
      "dur": 25
    },
    {
      "t": 584.1,
      "ch": 1,
      "note": 36,
      "vel": 90,
      "dur": 25
    },
    {
      "t": 584.1,
      "ch": 1,
      "note": 38,
      "vel": 89,
      "dur": 25
    },
    {
      "t": 584.1,
      "ch": 1,
      "note": 40,
      "vel": 104,
      "dur": 25
    },
    {
      "t": 584.1,
      "ch": 1,
      "note": 42,
      "vel": 91,
      "dur": 25
    },
    {
      "t": 584.1,
      "ch": 1,
      "note": 36,
      "vel": 94,
      "dur": 25
    },
    {
      "t": 584.1,
      "ch": 1,
      "note": 38,
      "vel": 88,
      "dur": 25
    },
    {
      "t": 584.1,
      "ch": 1,
      "note": 40,
      "vel": 75,
      "dur": 25
    },
    {
      "t": 584.1,
      "ch": 1,
      "note": 42,
      "vel": 71,
      "dur": 25
    },
    {
      "t": 584.1,
      "ch": 1,
      "note": 36,
      "vel": 80,
      "dur": 25
    },
    {
      "t": 584.1,
      "ch": 1,
      "note": 38,
      "vel": 77,
      "dur": 25
    },
    {
      "t": 584.1,
      "ch": 1,
      "note": 40,
      "vel": 94,
      "dur": 25
    },
    {
      "t": 584.1,
      "ch": 1,
      "note": 42,
      "vel": 82,
      "dur": 25
    },
    {
      "t": 584.1,
      "ch": 1,
      "note": 36,
      "vel": 97,
      "dur": 25
    },
    {
      "t": 584.1,
      "ch": 1,
      "note": 38,
      "vel": 89,
      "dur": 25
    },
    {
      "t": 584.1,
      "ch": 1,
      "note": 40,
      "vel": 71,
      "dur": 25
    },
    {
      "t": 584.1,
      "ch": 1,
      "note": 42,
      "vel": 104,
      "dur": 25
    },
    {
      "t": 584.1,
      "ch": 1,
      "note": 36,
      "vel": 80,
      "dur": 25
    },
    {
      "t": 584.1,
      "ch": 1,
      "note": 38,
      "vel": 84,
      "dur": 25
    },
    {
      "t": 584.1,
      "ch": 1,
      "note": 40,
      "vel": 67,
      "dur": 25
    },
    {
      "t": 584.1,
      "ch": 1,
      "note": 42,
      "vel": 93,
      "dur": 25
    },
    {
      "t": 584.1,
      "ch": 1,
      "note": 36,
      "vel": 74,
      "dur": 25
    },
    {
      "t": 584.1,
      "ch": 1,
      "note": 38,
      "vel": 105,
      "dur": 25
    },
    {
      "t": 584.1,
      "ch": 1,
      "note": 40,
      "vel": 114,
      "dur": 25
    },
    {
      "t": 584.1,
      "ch": 1,
      "note": 42,
      "vel": 87,
      "dur": 25
    },
    {
      "t": 584.1,
      "ch": 1,
      "note": 36,
      "vel": 81,
      "dur": 25
    },
    {
      "t": 584.1,
      "ch": 1,
      "note": 38,
      "vel": 92,
      "dur": 25
    },
    {
      "t": 584.1,
      "ch": 1,
      "note": 40,
      "vel": 100,
      "dur": 25
    },
    {
      "t": 584.1,
      "ch": 1,
      "note": 42,
      "vel": 84,
      "dur": 25
    },
    {
      "t": 584.1,
      "ch": 1,
      "note": 36,
      "vel": 99,
      "dur": 25
    },
    {
      "t": 584.1,
      "ch": 1,
      "note": 38,
      "vel": 85,
      "dur": 25
    },
    {
      "t": 584.1,
      "ch": 1,
      "note": 40,
      "vel": 105,
      "dur": 25
    },
    {
      "t": 584.1,
      "ch": 1,
      "note": 42,
      "vel": 85,
      "dur": 25
    },
    {
      "t": 584.1,
      "ch": 1,
      "note": 36,
      "vel": 77,
      "dur": 25
    },
    {
      "t": 584.1,
      "ch": 1,
      "note": 38,
      "vel": 86,
      "dur": 25
    },
    {
      "t": 584.1,
      "ch": 1,
      "note": 40,
      "vel": 80,
      "dur": 25
    },
    {
      "t": 584.1,
      "ch": 1,
      "note": 42,
      "vel": 92,
      "dur": 25
    },
    {
      "t": 584.1,
      "ch": 1,
      "note": 36,
      "vel": 91,
      "dur": 25
    },
    {
      "t": 584.1,
      "ch": 1,
      "note": 38,
      "vel": 87,
      "dur": 25
    },
    {
      "t": 584.1,
      "ch": 1,
      "note": 40,
      "vel": 58,
      "dur": 25
    },
    {
      "t": 584.1,
      "ch": 1,
      "note": 42,
      "vel": 52,
      "dur": 25
    },
    {
      "t": 584.1,
      "ch": 1,
      "note": 36,
      "vel": 107,
      "dur": 25
    },
    {
      "t": 584.1,
      "ch": 1,
      "note": 38,
      "vel": 90,
      "dur": 25
    },
    {
      "t": 584.1,
      "ch": 1,
      "note": 40,
      "vel": 80,
      "dur": 25
    },
    {
      "t": 584.1,
      "ch": 1,
      "note": 42,
      "vel": 84,
      "dur": 25
    },
    {
      "t": 584.1,
      "ch": 1,
      "note": 36,
      "vel": 70,
      "dur": 25
    },
    {
      "t": 584.1,
      "ch": 1,
      "note": 38,
      "vel": 60,
      "dur": 25
    },
    {
      "t": 584.1,
      "ch": 1,
      "note": 40,
      "vel": 77,
      "dur": 25
    },
    {
      "t": 584.1,
      "ch": 1,
      "note": 42,
      "vel": 71,
      "dur": 25
    },
    {
      "t": 584.1,
      "ch": 1,
      "note": 36,
      "vel": 77,
      "dur": 25
    },
    {
      "t": 584.1,
      "ch": 1,
      "note": 38,
      "vel": 89,
      "dur": 25
    },
    {
      "t": 584.1,
      "ch": 1,
      "note": 40,
      "vel": 75,
      "dur": 25
    },
    {
      "t": 584.1,
      "ch": 1,
      "note": 42,
      "vel": 66,
      "dur": 25
    },
    {
      "t": 584.1,
      "ch": 1,
      "note": 36,
      "vel": 84,
      "dur": 25
    },
    {
      "t": 584.1,
      "ch": 1,
      "note": 38,
      "vel": 79,
      "dur": 25
    },
    {
      "t": 584.1,
      "ch": 1,
      "note": 40,
      "vel": 83,
      "dur": 25
    },
    {
      "t": 584.1,
      "ch": 1,
      "note": 42,
      "vel": 77,
      "dur": 25
    },
    {
      "t": 584.1,
      "ch": 1,
      "note": 36,
      "vel": 96,
      "dur": 25
    },
    {
      "t": 584.1,
      "ch": 1,
      "note": 38,
      "vel": 76,
      "dur": 25
    },
    {
      "t": 584.1,
      "ch": 1,
      "note": 40,
      "vel": 72,
      "dur": 25
    },
    {
      "t": 584.1,
      "ch": 1,
      "note": 42,
      "vel": 69,
      "dur": 25
    },
    {
      "t": 584.1,
      "ch": 1,
      "note": 36,
      "vel": 81,
      "dur": 25
    },
    {
      "t": 584.1,
      "ch": 1,
      "note": 38,
      "vel": 81,
      "dur": 25
    },
    {
      "t": 584.1,
      "ch": 1,
      "note": 40,
      "vel": 103,
      "dur": 25
    },
    {
      "t": 584.1,
      "ch": 1,
      "note": 42,
      "vel": 82,
      "dur": 25
    },
    {
      "t": 584.1,
      "ch": 1,
      "note": 36,
      "vel": 92,
      "dur": 25
    },
    {
      "t": 584.1,
      "ch": 1,
      "note": 38,
      "vel": 69,
      "dur": 25
    },
    {
      "t": 584.1,
      "ch": 1,
      "note": 40,
      "vel": 83,
      "dur": 25
    },
    {
      "t": 584.1,
      "ch": 1,
      "note": 42,
      "vel": 75,
      "dur": 25
    },
    {
      "t": 584.1,
      "ch": 1,
      "note": 36,
      "vel": 92,
      "dur": 25
    },
    {
      "t": 584.1,
      "ch": 1,
      "note": 38,
      "vel": 113,
      "dur": 25
    },
    {
      "t": 584.1,
      "ch": 1,
      "note": 40,
      "vel": 98,
      "dur": 25
    },
    {
      "t": 584.1,
      "ch": 1,
      "note": 42,
      "vel": 89,
      "dur": 25
    },
    {
      "t": 584.1,
      "ch": 1,
      "note": 36,
      "vel": 109,
      "dur": 25
    },
    {
      "t": 584.1,
      "ch": 1,
      "note": 38,
      "vel": 57,
      "dur": 25
    },
    {
      "t": 584.1,
      "ch": 1,
      "note": 40,
      "vel": 77,
      "dur": 25
    },
    {
      "t": 584.1,
      "ch": 1,
      "note": 42,
      "vel": 85,
      "dur": 25
    },
    {
      "t": 584.1,
      "ch": 1,
      "note": 36,
      "vel": 88,
      "dur": 25
    },
    {
      "t": 584.1,
      "ch": 1,
      "note": 38,
      "vel": 83,
      "dur": 25
    },
    {
      "t": 584.1,
      "ch": 1,
      "note": 40,
      "vel": 76,
      "dur": 25
    },
    {
      "t": 584.1,
      "ch": 1,
      "note": 42,
      "vel": 71,
      "dur": 25
    },
    {
      "t": 584.1,
      "ch": 1,
      "note": 36,
      "vel": 77,
      "dur": 25
    },
    {
      "t": 584.1,
      "ch": 1,
      "note": 38,
      "vel": 71,
      "dur": 25
    },
    {
      "t": 584.1,
      "ch": 1,
      "note": 40,
      "vel": 95,
      "dur": 25
    },
    {
      "t": 584.1,
      "ch": 1,
      "note": 42,
      "vel": 83,
      "dur": 25
    },
    {
      "t": 584.1,
      "ch": 1,
      "note": 36,
      "vel": 100,
      "dur": 25
    },
    {
      "t": 584.1,
      "ch": 1,
      "note": 38,
      "vel": 100,
      "dur": 25
    },
    {
      "t": 584.1,
      "ch": 1,
      "note": 40,
      "vel": 107,
      "dur": 25
    },
    {
      "t": 584.1,
      "ch": 1,
      "note": 42,
      "vel": 70,
      "dur": 25
    },
    {
      "t": 584.1,
      "ch": 1,
      "note": 36,
      "vel": 109,
      "dur": 25
    },
    {
      "t": 584.1,
      "ch": 1,
      "note": 38,
      "vel": 88,
      "dur": 25
    },
    {
      "t": 584.1,
      "ch": 1,
      "note": 40,
      "vel": 85,
      "dur": 25
    },
    {
      "t": 584.1,
      "ch": 1,
      "note": 42,
      "vel": 71,
      "dur": 25
    },
    {
      "t": 584.1,
      "ch": 1,
      "note": 36,
      "vel": 110,
      "dur": 25
    },
    {
      "t": 584.1,
      "ch": 1,
      "note": 38,
      "vel": 93,
      "dur": 25
    },
    {
      "t": 584.1,
      "ch": 1,
      "note": 40,
      "vel": 108,
      "dur": 25
    },
    {
      "t": 584.1,
      "ch": 1,
      "note": 42,
      "vel": 88,
      "dur": 25
    },
    {
      "t": 584.1,
      "ch": 1,
      "note": 36,
      "vel": 81,
      "dur": 25
    },
    {
      "t": 584.1,
      "ch": 1,
      "note": 38,
      "vel": 90,
      "dur": 25
    },
    {
      "t": 584.1,
      "ch": 1,
      "note": 40,
      "vel": 73,
      "dur": 25
    },
    {
      "t": 584.1,
      "ch": 1,
      "note": 42,
      "vel": 80,
      "dur": 25
    },
    {
      "t": 584.1,
      "ch": 1,
      "note": 36,
      "vel": 104,
      "dur": 25
    },
    {
      "t": 584.1,
      "ch": 1,
      "note": 38,
      "vel": 102,
      "dur": 25
    },
    {
      "t": 584.1,
      "ch": 1,
      "note": 40,
      "vel": 79,
      "dur": 25
    },
    {
      "t": 584.1,
      "ch": 1,
      "note": 42,
      "vel": 61,
      "dur": 25
    },
    {
      "t": 584.1,
      "ch": 1,
      "note": 36,
      "vel": 77,
      "dur": 25
    },
    {
      "t": 584.1,
      "ch": 1,
      "note": 38,
      "vel": 104,
      "dur": 25
    },
    {
      "t": 584.1,
      "ch": 1,
      "note": 40,
      "vel": 53,
      "dur": 25
    },
    {
      "t": 584.1,
      "ch": 1,
      "note": 42,
      "vel": 87,
      "dur": 25
    },
    {
      "t": 584.1,
      "ch": 1,
      "note": 36,
      "vel": 89,
      "dur": 25
    },
    {
      "t": 584.1,
      "ch": 1,
      "note": 38,
      "vel": 90,
      "dur": 25
    },
    {
      "t": 584.1,
      "ch": 1,
      "note": 40,
      "vel": 94,
      "dur": 25
    },
    {
      "t": 584.1,
      "ch": 1,
      "note": 42,
      "vel": 96,
      "dur": 25
    },
    {
      "t": 584.1,
      "ch": 1,
      "note": 36,
      "vel": 85,
      "dur": 25
    },
    {
      "t": 584.1,
      "ch": 1,
      "note": 38,
      "vel": 95,
      "dur": 25
    },
    {
      "t": 584.1,
      "ch": 1,
      "note": 40,
      "vel": 80,
      "dur": 25
    },
    {
      "t": 584.1,
      "ch": 1,
      "note": 42,
      "vel": 81,
      "dur": 25
    },
    {
      "t": 584.1,
      "ch": 1,
      "note": 36,
      "vel": 88,
      "dur": 25
    },
    {
      "t": 584.1,
      "ch": 1,
      "note": 38,
      "vel": 91,
      "dur": 25
    },
    {
      "t": 584.1,
      "ch": 1,
      "note": 40,
      "vel": 76,
      "dur": 25
    },
    {
      "t": 584.1,
      "ch": 1,
      "note": 42,
      "vel": 80,
      "dur": 25
    },
    {
      "t": 584.1,
      "ch": 1,
      "note": 36,
      "vel": 70,
      "dur": 25
    },
    {
      "t": 584.1,
      "ch": 1,
      "note": 38,
      "vel": 92,
      "dur": 25
    },
    {
      "t": 584.1,
      "ch": 1,
      "note": 40,
      "vel": 86,
      "dur": 25
    },
    {
      "t": 584.1,
      "ch": 1,
      "note": 42,
      "vel": 95,
      "dur": 25
    },
    {
      "t": 584.1,
      "ch": 1,
      "note": 36,
      "vel": 87,
      "dur": 25
    },
    {
      "t": 584.1,
      "ch": 1,
      "note": 38,
      "vel": 92,
      "dur": 25
    },
    {
      "t": 584.1,
      "ch": 1,
      "note": 40,
      "vel": 81,
      "dur": 25
    },
    {
      "t": 584.1,
      "ch": 1,
      "note": 42,
      "vel": 87,
      "dur": 25
    },
    {
      "t": 584.1,
      "ch": 1,
      "note": 36,
      "vel": 82,
      "dur": 25
    },
    {
      "t": 584.1,
      "ch": 1,
      "note": 38,
      "vel": 90,
      "dur": 25
    },
    {
      "t": 584.1,
      "ch": 1,
      "note": 40,
      "vel": 62,
      "dur": 25
    },
    {
      "t": 584.1,
      "ch": 1,
      "note": 42,
      "vel": 93,
      "dur": 25
    },
    {
      "t": 584.1,
      "ch": 1,
      "note": 36,
      "vel": 94,
      "dur": 25
    },
    {
      "t": 584.1,
      "ch": 1,
      "note": 38,
      "vel": 72,
      "dur": 25
    },
    {
      "t": 584.1,
      "ch": 1,
      "note": 40,
      "vel": 92,
      "dur": 25
    },
    {
      "t": 584.1,
      "ch": 1,
      "note": 42,
      "vel": 90,
      "dur": 25
    },
    {
      "t": 584.1,
      "ch": 1,
      "note": 36,
      "vel": 85,
      "dur": 25
    },
    {
      "t": 584.1,
      "ch": 1,
      "note": 38,
      "vel": 98,
      "dur": 25
    },
    {
      "t": 584.1,
      "ch": 1,
      "note": 40,
      "vel": 58,
      "dur": 25
    },
    {
      "t": 584.1,
      "ch": 1,
      "note": 42,
      "vel": 77,
      "dur": 25
    },
    {
      "t": 584.1,
      "ch": 1,
      "note": 36,
      "vel": 95,
      "dur": 25
    },
    {
      "t": 584.1,
      "ch": 1,
      "note": 38,
      "vel": 86,
      "dur": 25
    },
    {
      "t": 584.1,
      "ch": 1,
      "note": 40,
      "vel": 80,
      "dur": 25
    },
    {
      "t": 584.1,
      "ch": 1,
      "note": 42,
      "vel": 65,
      "dur": 25
    },
    {
      "t": 584.1,
      "ch": 1,
      "note": 36,
      "vel": 102,
      "dur": 25
    },
    {
      "t": 584.1,
      "ch": 1,
      "note": 38,
      "vel": 108,
      "dur": 25
    },
    {
      "t": 584.1,
      "ch": 1,
      "note": 40,
      "vel": 81,
      "dur": 25
    },
    {
      "t": 584.1,
      "ch": 1,
      "note": 42,
      "vel": 63,
      "dur": 25
    },
    {
      "t": 584.1,
      "ch": 1,
      "note": 36,
      "vel": 97,
      "dur": 25
    },
    {
      "t": 584.1,
      "ch": 1,
      "note": 38,
      "vel": 84,
      "dur": 25
    },
    {
      "t": 584.1,
      "ch": 1,
      "note": 40,
      "vel": 78,
      "dur": 25
    },
    {
      "t": 584.1,
      "ch": 1,
      "note": 42,
      "vel": 84,
      "dur": 25
    },
    {
      "t": 584.1,
      "ch": 1,
      "note": 36,
      "vel": 97,
      "dur": 25
    },
    {
      "t": 584.1,
      "ch": 1,
      "note": 38,
      "vel": 92,
      "dur": 25
    },
    {
      "t": 584.1,
      "ch": 1,
      "note": 40,
      "vel": 75,
      "dur": 25
    },
    {
      "t": 584.1,
      "ch": 1,
      "note": 42,
      "vel": 102,
      "dur": 25
    },
    {
      "t": 584.1,
      "ch": 1,
      "note": 36,
      "vel": 98,
      "dur": 25
    },
    {
      "t": 584.1,
      "ch": 1,
      "note": 38,
      "vel": 90,
      "dur": 25
    },
    {
      "t": 584.1,
      "ch": 1,
      "note": 40,
      "vel": 101,
      "dur": 25
    },
    {
      "t": 584.1,
      "ch": 1,
      "note": 42,
      "vel": 76,
      "dur": 25
    },
    {
      "t": 584.1,
      "ch": 1,
      "note": 36,
      "vel": 80,
      "dur": 25
    },
    {
      "t": 584.1,
      "ch": 1,
      "note": 38,
      "vel": 76,
      "dur": 25
    },
    {
      "t": 584.1,
      "ch": 1,
      "note": 40,
      "vel": 104,
      "dur": 25
    },
    {
      "t": 584.1,
      "ch": 1,
      "note": 42,
      "vel": 82,
      "dur": 25
    },
    {
      "t": 584.1,
      "ch": 1,
      "note": 36,
      "vel": 84,
      "dur": 25
    },
    {
      "t": 584.1,
      "ch": 1,
      "note": 38,
      "vel": 74,
      "dur": 25
    },
    {
      "t": 584.1,
      "ch": 1,
      "note": 40,
      "vel": 92,
      "dur": 25
    },
    {
      "t": 584.1,
      "ch": 1,
      "note": 42,
      "vel": 84,
      "dur": 25
    },
    {
      "t": 584.1,
      "ch": 1,
      "note": 36,
      "vel": 103,
      "dur": 25
    },
    {
      "t": 584.1,
      "ch": 1,
      "note": 38,
      "vel": 91,
      "dur": 25
    },
    {
      "t": 584.1,
      "ch": 1,
      "note": 40,
      "vel": 77,
      "dur": 25
    },
    {
      "t": 584.1,
      "ch": 1,
      "note": 42,
      "vel": 93,
      "dur": 25
    },
    {
      "t": 584.1,
      "ch": 1,
      "note": 36,
      "vel": 81,
      "dur": 25
    },
    {
      "t": 584.1,
      "ch": 1,
      "note": 38,
      "vel": 81,
      "dur": 25
    },
    {
      "t": 584.1,
      "ch": 1,
      "note": 40,
      "vel": 92,
      "dur": 25
    },
    {
      "t": 584.1,
      "ch": 1,
      "note": 42,
      "vel": 90,
      "dur": 25
    },
    {
      "t": 584.1,
      "ch": 1,
      "note": 36,
      "vel": 82,
      "dur": 25
    },
    {
      "t": 584.1,
      "ch": 1,
      "note": 38,
      "vel": 89,
      "dur": 25
    },
    {
      "t": 584.1,
      "ch": 1,
      "note": 40,
      "vel": 77,
      "dur": 25
    },
    {
      "t": 584.1,
      "ch": 1,
      "note": 42,
      "vel": 76,
      "dur": 25
    },
    {
      "t": 584.1,
      "ch": 1,
      "note": 36,
      "vel": 78,
      "dur": 25
    },
    {
      "t": 584.1,
      "ch": 1,
      "note": 38,
      "vel": 110,
      "dur": 25
    },
    {
      "t": 584.1,
      "ch": 1,
      "note": 40,
      "vel": 90,
      "dur": 25
    },
    {
      "t": 584.1,
      "ch": 1,
      "note": 42,
      "vel": 87,
      "dur": 25
    },
    {
      "t": 584.1,
      "ch": 1,
      "note": 36,
      "vel": 70,
      "dur": 25
    },
    {
      "t": 584.1,
      "ch": 1,
      "note": 38,
      "vel": 74,
      "dur": 25
    },
    {
      "t": 584.1,
      "ch": 1,
      "note": 40,
      "vel": 93,
      "dur": 25
    },
    {
      "t": 584.1,
      "ch": 1,
      "note": 42,
      "vel": 75,
      "dur": 25
    },
    {
      "t": 584.1,
      "ch": 1,
      "note": 36,
      "vel": 90,
      "dur": 25
    },
    {
      "t": 584.1,
      "ch": 1,
      "note": 38,
      "vel": 76,
      "dur": 25
    },
    {
      "t": 584.1,
      "ch": 1,
      "note": 40,
      "vel": 96,
      "dur": 25
    },
    {
      "t": 584.1,
      "ch": 1,
      "note": 42,
      "vel": 75,
      "dur": 25
    },
    {
      "t": 584.1,
      "ch": 1,
      "note": 36,
      "vel": 86,
      "dur": 25
    },
    {
      "t": 584.1,
      "ch": 1,
      "note": 38,
      "vel": 117,
      "dur": 25
    },
    {
      "t": 584.1,
      "ch": 1,
      "note": 40,
      "vel": 65,
      "dur": 25
    },
    {
      "t": 584.1,
      "ch": 1,
      "note": 42,
      "vel": 79,
      "dur": 25
    },
    {
      "t": 584.1,
      "ch": 1,
      "note": 36,
      "vel": 68,
      "dur": 25
    },
    {
      "t": 584.1,
      "ch": 1,
      "note": 38,
      "vel": 72,
      "dur": 25
    },
    {
      "t": 584.1,
      "ch": 1,
      "note": 40,
      "vel": 111,
      "dur": 25
    },
    {
      "t": 584.1,
      "ch": 1,
      "note": 42,
      "vel": 67,
      "dur": 25
    },
    {
      "t": 584.1,
      "ch": 1,
      "note": 36,
      "vel": 56,
      "dur": 25
    },
    {
      "t": 584.1,
      "ch": 1,
      "note": 38,
      "vel": 58,
      "dur": 25
    },
    {
      "t": 584.1,
      "ch": 1,
      "note": 40,
      "vel": 89,
      "dur": 25
    },
    {
      "t": 584.1,
      "ch": 1,
      "note": 42,
      "vel": 75,
      "dur": 25
    },
    {
      "t": 584.1,
      "ch": 1,
      "note": 36,
      "vel": 64,
      "dur": 25
    },
    {
      "t": 584.1,
      "ch": 1,
      "note": 38,
      "vel": 97,
      "dur": 25
    },
    {
      "t": 584.1,
      "ch": 1,
      "note": 40,
      "vel": 75,
      "dur": 25
    },
    {
      "t": 584.1,
      "ch": 1,
      "note": 42,
      "vel": 96,
      "dur": 25
    },
    {
      "t": 584.1,
      "ch": 1,
      "note": 36,
      "vel": 85,
      "dur": 25
    },
    {
      "t": 584.1,
      "ch": 1,
      "note": 38,
      "vel": 77,
      "dur": 25
    },
    {
      "t": 584.1,
      "ch": 1,
      "note": 40,
      "vel": 82,
      "dur": 25
    },
    {
      "t": 584.1,
      "ch": 1,
      "note": 42,
      "vel": 73,
      "dur": 25
    },
    {
      "t": 584.1,
      "ch": 1,
      "note": 36,
      "vel": 98,
      "dur": 25
    },
    {
      "t": 584.1,
      "ch": 1,
      "note": 38,
      "vel": 108,
      "dur": 25
    },
    {
      "t": 584.1,
      "ch": 1,
      "note": 40,
      "vel": 83,
      "dur": 25
    },
    {
      "t": 584.1,
      "ch": 1,
      "note": 42,
      "vel": 81,
      "dur": 25
    },
    {
      "t": 584.1,
      "ch": 1,
      "note": 36,
      "vel": 87,
      "dur": 25
    },
    {
      "t": 584.1,
      "ch": 1,
      "note": 38,
      "vel": 80,
      "dur": 25
    },
    {
      "t": 584.1,
      "ch": 1,
      "note": 40,
      "vel": 67,
      "dur": 25
    },
    {
      "t": 584.1,
      "ch": 1,
      "note": 42,
      "vel": 91,
      "dur": 25
    },
    {
      "t": 584.1,
      "ch": 1,
      "note": 36,
      "vel": 85,
      "dur": 25
    },
    {
      "t": 584.1,
      "ch": 1,
      "note": 38,
      "vel": 70,
      "dur": 25
    },
    {
      "t": 584.1,
      "ch": 1,
      "note": 40,
      "vel": 81,
      "dur": 25
    },
    {
      "t": 584.1,
      "ch": 1,
      "note": 42,
      "vel": 61,
      "dur": 25
    },
    {
      "t": 584.1,
      "ch": 1,
      "note": 36,
      "vel": 73,
      "dur": 25
    },
    {
      "t": 584.1,
      "ch": 1,
      "note": 38,
      "vel": 63,
      "dur": 25
    },
    {
      "t": 584.1,
      "ch": 1,
      "note": 40,
      "vel": 54,
      "dur": 25
    },
    {
      "t": 584.1,
      "ch": 1,
      "note": 42,
      "vel": 90,
      "dur": 25
    },
    {
      "t": 584.1,
      "ch": 1,
      "note": 36,
      "vel": 75,
      "dur": 25
    },
    {
      "t": 584.1,
      "ch": 1,
      "note": 38,
      "vel": 97,
      "dur": 25
    },
    {
      "t": 584.1,
      "ch": 1,
      "note": 40,
      "vel": 97,
      "dur": 25
    },
    {
      "t": 584.1,
      "ch": 1,
      "note": 42,
      "vel": 92,
      "dur": 25
    },
    {
      "t": 584.1,
      "ch": 1,
      "note": 36,
      "vel": 62,
      "dur": 25
    },
    {
      "t": 584.1,
      "ch": 1,
      "note": 38,
      "vel": 104,
      "dur": 25
    },
    {
      "t": 584.1,
      "ch": 1,
      "note": 40,
      "vel": 81,
      "dur": 25
    },
    {
      "t": 584.1,
      "ch": 1,
      "note": 42,
      "vel": 72,
      "dur": 25
    },
    {
      "t": 584.1,
      "ch": 1,
      "note": 36,
      "vel": 78,
      "dur": 25
    },
    {
      "t": 584.1,
      "ch": 1,
      "note": 38,
      "vel": 88,
      "dur": 25
    },
    {
      "t": 584.1,
      "ch": 1,
      "note": 40,
      "vel": 89,
      "dur": 25
    },
    {
      "t": 584.1,
      "ch": 1,
      "note": 42,
      "vel": 53,
      "dur": 25
    },
    {
      "t": 584.1,
      "ch": 1,
      "note": 36,
      "vel": 73,
      "dur": 25
    },
    {
      "t": 584.1,
      "ch": 1,
      "note": 38,
      "vel": 108,
      "dur": 25
    },
    {
      "t": 584.1,
      "ch": 1,
      "note": 40,
      "vel": 83,
      "dur": 25
    },
    {
      "t": 584.1,
      "ch": 1,
      "note": 42,
      "vel": 103,
      "dur": 25
    },
    {
      "t": 584.1,
      "ch": 1,
      "note": 36,
      "vel": 78,
      "dur": 25
    },
    {
      "t": 584.1,
      "ch": 1,
      "note": 38,
      "vel": 93,
      "dur": 25
    },
    {
      "t": 584.1,
      "ch": 1,
      "note": 40,
      "vel": 98,
      "dur": 25
    },
    {
      "t": 584.1,
      "ch": 1,
      "note": 42,
      "vel": 89,
      "dur": 25
    },
    {
      "t": 584.1,
      "ch": 1,
      "note": 36,
      "vel": 83,
      "dur": 25
    },
    {
      "t": 584.1,
      "ch": 1,
      "note": 38,
      "vel": 87,
      "dur": 25
    },
    {
      "t": 584.1,
      "ch": 1,
      "note": 40,
      "vel": 71,
      "dur": 25
    },
    {
      "t": 584.1,
      "ch": 1,
      "note": 42,
      "vel": 71,
      "dur": 25
    },
    {
      "t": 584.1,
      "ch": 1,
      "note": 36,
      "vel": 90,
      "dur": 25
    },
    {
      "t": 584.1,
      "ch": 1,
      "note": 38,
      "vel": 96,
      "dur": 25
    },
    {
      "t": 584.1,
      "ch": 1,
      "note": 40,
      "vel": 83,
      "dur": 25
    },
    {
      "t": 584.1,
      "ch": 1,
      "note": 42,
      "vel": 74,
      "dur": 25
    },
    {
      "t": 584.1,
      "ch": 1,
      "note": 36,
      "vel": 81,
      "dur": 25
    },
    {
      "t": 584.1,
      "ch": 1,
      "note": 38,
      "vel": 60,
      "dur": 25
    },
    {
      "t": 584.1,
      "ch": 1,
      "note": 40,
      "vel": 94,
      "dur": 25
    },
    {
      "t": 584.1,
      "ch": 1,
      "note": 42,
      "vel": 70,
      "dur": 25
    },
    {
      "t": 584.1,
      "ch": 1,
      "note": 36,
      "vel": 89,
      "dur": 25
    },
    {
      "t": 584.1,
      "ch": 1,
      "note": 38,
      "vel": 75,
      "dur": 25
    },
    {
      "t": 584.1,
      "ch": 1,
      "note": 40,
      "vel": 71,
      "dur": 25
    },
    {
      "t": 584.1,
      "ch": 1,
      "note": 42,
      "vel": 76,
      "dur": 25
    },
    {
      "t": 584.1,
      "ch": 1,
      "note": 36,
      "vel": 86,
      "dur": 25
    },
    {
      "t": 584.1,
      "ch": 1,
      "note": 38,
      "vel": 95,
      "dur": 25
    },
    {
      "t": 584.1,
      "ch": 1,
      "note": 40,
      "vel": 80,
      "dur": 25
    },
    {
      "t": 584.1,
      "ch": 1,
      "note": 42,
      "vel": 81,
      "dur": 25
    },
    {
      "t": 584.1,
      "ch": 1,
      "note": 36,
      "vel": 98,
      "dur": 25
    },
    {
      "t": 584.1,
      "ch": 1,
      "note": 38,
      "vel": 77,
      "dur": 25
    },
    {
      "t": 584.1,
      "ch": 1,
      "note": 40,
      "vel": 70,
      "dur": 25
    },
    {
      "t": 584.1,
      "ch": 1,
      "note": 42,
      "vel": 113,
      "dur": 25
    },
    {
      "t": 584.1,
      "ch": 1,
      "note": 36,
      "vel": 90,
      "dur": 25
    },
    {
      "t": 584.1,
      "ch": 1,
      "note": 38,
      "vel": 86,
      "dur": 25
    },
    {
      "t": 584.1,
      "ch": 1,
      "note": 40,
      "vel": 113,
      "dur": 25
    },
    {
      "t": 584.1,
      "ch": 1,
      "note": 42,
      "vel": 56,
      "dur": 25
    },
    {
      "t": 584.1,
      "ch": 1,
      "note": 36,
      "vel": 85,
      "dur": 25
    },
    {
      "t": 584.1,
      "ch": 1,
      "note": 38,
      "vel": 74,
      "dur": 25
    },
    {
      "t": 584.1,
      "ch": 1,
      "note": 40,
      "vel": 91,
      "dur": 25
    },
    {
      "t": 584.1,
      "ch": 1,
      "note": 42,
      "vel": 90,
      "dur": 25
    },
    {
      "t": 584.1,
      "ch": 1,
      "note": 36,
      "vel": 98,
      "dur": 25
    },
    {
      "t": 584.1,
      "ch": 1,
      "note": 38,
      "vel": 78,
      "dur": 25
    },
    {
      "t": 584.1,
      "ch": 1,
      "note": 40,
      "vel": 68,
      "dur": 25
    },
    {
      "t": 584.1,
      "ch": 1,
      "note": 42,
      "vel": 113,
      "dur": 25
    },
    {
      "t": 584.1,
      "ch": 1,
      "note": 36,
      "vel": 82,
      "dur": 25
    },
    {
      "t": 584.1,
      "ch": 1,
      "note": 38,
      "vel": 99,
      "dur": 25
    },
    {
      "t": 584.1,
      "ch": 1,
      "note": 40,
      "vel": 81,
      "dur": 25
    },
    {
      "t": 584.1,
      "ch": 1,
      "note": 42,
      "vel": 69,
      "dur": 25
    },
    {
      "t": 584.1,
      "ch": 1,
      "note": 36,
      "vel": 74,
      "dur": 25
    },
    {
      "t": 584.1,
      "ch": 1,
      "note": 38,
      "vel": 59,
      "dur": 25
    },
    {
      "t": 584.1,
      "ch": 1,
      "note": 40,
      "vel": 66,
      "dur": 25
    },
    {
      "t": 584.1,
      "ch": 1,
      "note": 42,
      "vel": 72,
      "dur": 25
    },
    {
      "t": 584.1,
      "ch": 1,
      "note": 36,
      "vel": 86,
      "dur": 25
    },
    {
      "t": 584.1,
      "ch": 1,
      "note": 38,
      "vel": 77,
      "dur": 25
    },
    {
      "t": 584.1,
      "ch": 1,
      "note": 40,
      "vel": 76,
      "dur": 25
    },
    {
      "t": 584.1,
      "ch": 1,
      "note": 42,
      "vel": 63,
      "dur": 25
    },
    {
      "t": 584.1,
      "ch": 1,
      "note": 36,
      "vel": 86,
      "dur": 25
    },
    {
      "t": 584.1,
      "ch": 1,
      "note": 38,
      "vel": 91,
      "dur": 25
    },
    {
      "t": 584.1,
      "ch": 1,
      "note": 40,
      "vel": 94,
      "dur": 25
    },
    {
      "t": 584.1,
      "ch": 1,
      "note": 42,
      "vel": 89,
      "dur": 25
    },
    {
      "t": 584.1,
      "ch": 1,
      "note": 36,
      "vel": 75,
      "dur": 25
    },
    {
      "t": 584.1,
      "ch": 1,
      "note": 38,
      "vel": 75,
      "dur": 25
    },
    {
      "t": 584.1,
      "ch": 1,
      "note": 40,
      "vel": 103,
      "dur": 25
    },
    {
      "t": 584.1,
      "ch": 1,
      "note": 42,
      "vel": 78,
      "dur": 25
    },
    {
      "t": 584.1,
      "ch": 1,
      "note": 36,
      "vel": 82,
      "dur": 25
    },
    {
      "t": 584.1,
      "ch": 1,
      "note": 38,
      "vel": 100,
      "dur": 25
    },
    {
      "t": 584.1,
      "ch": 1,
      "note": 40,
      "vel": 53,
      "dur": 25
    },
    {
      "t": 584.1,
      "ch": 1,
      "note": 42,
      "vel": 97,
      "dur": 25
    },
    {
      "t": 584.1,
      "ch": 1,
      "note": 36,
      "vel": 87,
      "dur": 25
    },
    {
      "t": 584.1,
      "ch": 1,
      "note": 38,
      "vel": 90,
      "dur": 25
    },
    {
      "t": 584.1,
      "ch": 1,
      "note": 40,
      "vel": 79,
      "dur": 25
    },
    {
      "t": 584.1,
      "ch": 1,
      "note": 42,
      "vel": 51,
      "dur": 25
    },
    {
      "t": 584.1,
      "ch": 1,
      "note": 36,
      "vel": 90,
      "dur": 25
    },
    {
      "t": 584.1,
      "ch": 1,
      "note": 38,
      "vel": 79,
      "dur": 25
    },
    {
      "t": 584.1,
      "ch": 1,
      "note": 40,
      "vel": 64,
      "dur": 25
    },
    {
      "t": 584.1,
      "ch": 1,
      "note": 42,
      "vel": 100,
      "dur": 25
    },
    {
      "t": 584.1,
      "ch": 1,
      "note": 36,
      "vel": 95,
      "dur": 25
    },
    {
      "t": 584.1,
      "ch": 1,
      "note": 38,
      "vel": 79,
      "dur": 25
    },
    {
      "t": 584.1,
      "ch": 1,
      "note": 40,
      "vel": 81,
      "dur": 25
    },
    {
      "t": 584.1,
      "ch": 1,
      "note": 42,
      "vel": 87,
      "dur": 25
    },
    {
      "t": 584.1,
      "ch": 1,
      "note": 36,
      "vel": 118,
      "dur": 25
    },
    {
      "t": 584.1,
      "ch": 1,
      "note": 38,
      "vel": 92,
      "dur": 25
    },
    {
      "t": 584.1,
      "ch": 1,
      "note": 40,
      "vel": 88,
      "dur": 25
    },
    {
      "t": 584.1,
      "ch": 1,
      "note": 42,
      "vel": 97,
      "dur": 25
    },
    {
      "t": 584.1,
      "ch": 1,
      "note": 36,
      "vel": 101,
      "dur": 25
    },
    {
      "t": 584.1,
      "ch": 1,
      "note": 38,
      "vel": 83,
      "dur": 25
    },
    {
      "t": 584.1,
      "ch": 1,
      "note": 40,
      "vel": 93,
      "dur": 25
    },
    {
      "t": 584.1,
      "ch": 1,
      "note": 42,
      "vel": 73,
      "dur": 25
    },
    {
      "t": 584.1,
      "ch": 1,
      "note": 36,
      "vel": 86,
      "dur": 25
    },
    {
      "t": 584.1,
      "ch": 1,
      "note": 38,
      "vel": 63,
      "dur": 25
    },
    {
      "t": 584.1,
      "ch": 1,
      "note": 40,
      "vel": 78,
      "dur": 25
    },
    {
      "t": 584.1,
      "ch": 1,
      "note": 42,
      "vel": 89,
      "dur": 25
    },
    {
      "t": 584.1,
      "ch": 1,
      "note": 36,
      "vel": 98,
      "dur": 25
    },
    {
      "t": 584.1,
      "ch": 1,
      "note": 38,
      "vel": 96,
      "dur": 25
    },
    {
      "t": 584.1,
      "ch": 1,
      "note": 40,
      "vel": 74,
      "dur": 25
    },
    {
      "t": 584.1,
      "ch": 1,
      "note": 42,
      "vel": 69,
      "dur": 25
    },
    {
      "t": 584.1,
      "ch": 1,
      "note": 36,
      "vel": 88,
      "dur": 25
    },
    {
      "t": 584.1,
      "ch": 1,
      "note": 38,
      "vel": 104,
      "dur": 25
    },
    {
      "t": 584.1,
      "ch": 1,
      "note": 40,
      "vel": 79,
      "dur": 25
    },
    {
      "t": 584.1,
      "ch": 1,
      "note": 42,
      "vel": 91,
      "dur": 25
    },
    {
      "t": 584.1,
      "ch": 1,
      "note": 36,
      "vel": 107,
      "dur": 25
    },
    {
      "t": 584.1,
      "ch": 1,
      "note": 38,
      "vel": 77,
      "dur": 25
    },
    {
      "t": 584.1,
      "ch": 1,
      "note": 40,
      "vel": 79,
      "dur": 25
    },
    {
      "t": 584.1,
      "ch": 1,
      "note": 42,
      "vel": 91,
      "dur": 25
    },
    {
      "t": 584.1,
      "ch": 1,
      "note": 36,
      "vel": 106,
      "dur": 25
    },
    {
      "t": 584.1,
      "ch": 1,
      "note": 38,
      "vel": 87,
      "dur": 25
    },
    {
      "t": 584.1,
      "ch": 1,
      "note": 40,
      "vel": 91,
      "dur": 25
    },
    {
      "t": 584.1,
      "ch": 1,
      "note": 42,
      "vel": 96,
      "dur": 25
    },
    {
      "t": 584.1,
      "ch": 1,
      "note": 36,
      "vel": 97,
      "dur": 25
    },
    {
      "t": 584.1,
      "ch": 1,
      "note": 38,
      "vel": 90,
      "dur": 25
    },
    {
      "t": 584.1,
      "ch": 1,
      "note": 40,
      "vel": 69,
      "dur": 25
    },
    {
      "t": 584.1,
      "ch": 1,
      "note": 42,
      "vel": 87,
      "dur": 25
    },
    {
      "t": 584.1,
      "ch": 1,
      "note": 36,
      "vel": 80,
      "dur": 25
    },
    {
      "t": 584.1,
      "ch": 1,
      "note": 38,
      "vel": 96,
      "dur": 25
    },
    {
      "t": 584.1,
      "ch": 1,
      "note": 40,
      "vel": 86,
      "dur": 25
    },
    {
      "t": 584.1,
      "ch": 1,
      "note": 42,
      "vel": 79,
      "dur": 25
    },
    {
      "t": 584.1,
      "ch": 1,
      "note": 36,
      "vel": 90,
      "dur": 25
    },
    {
      "t": 584.1,
      "ch": 1,
      "note": 38,
      "vel": 83,
      "dur": 25
    },
    {
      "t": 584.1,
      "ch": 1,
      "note": 40,
      "vel": 94,
      "dur": 25
    },
    {
      "t": 584.1,
      "ch": 1,
      "note": 42,
      "vel": 82,
      "dur": 25
    },
    {
      "t": 584.1,
      "ch": 1,
      "note": 36,
      "vel": 76,
      "dur": 25
    },
    {
      "t": 584.1,
      "ch": 1,
      "note": 38,
      "vel": 83,
      "dur": 25
    },
    {
      "t": 584.1,
      "ch": 1,
      "note": 40,
      "vel": 79,
      "dur": 25
    },
    {
      "t": 584.1,
      "ch": 1,
      "note": 42,
      "vel": 88,
      "dur": 25
    },
    {
      "t": 584.1,
      "ch": 1,
      "note": 36,
      "vel": 102,
      "dur": 25
    },
    {
      "t": 584.1,
      "ch": 1,
      "note": 38,
      "vel": 84,
      "dur": 25
    },
    {
      "t": 584.1,
      "ch": 1,
      "note": 40,
      "vel": 67,
      "dur": 25
    },
    {
      "t": 584.1,
      "ch": 1,
      "note": 42,
      "vel": 80,
      "dur": 25
    },
    {
      "t": 584.1,
      "ch": 1,
      "note": 36,
      "vel": 94,
      "dur": 25
    },
    {
      "t": 584.1,
      "ch": 1,
      "note": 38,
      "vel": 86,
      "dur": 25
    },
    {
      "t": 584.1,
      "ch": 1,
      "note": 40,
      "vel": 95,
      "dur": 25
    },
    {
      "t": 584.1,
      "ch": 1,
      "note": 42,
      "vel": 96,
      "dur": 25
    },
    {
      "t": 584.1,
      "ch": 1,
      "note": 36,
      "vel": 96,
      "dur": 25
    },
    {
      "t": 584.1,
      "ch": 1,
      "note": 38,
      "vel": 83,
      "dur": 25
    },
    {
      "t": 584.1,
      "ch": 1,
      "note": 40,
      "vel": 78,
      "dur": 25
    },
    {
      "t": 584.1,
      "ch": 1,
      "note": 42,
      "vel": 60,
      "dur": 25
    },
    {
      "t": 584.1,
      "ch": 1,
      "note": 36,
      "vel": 82,
      "dur": 25
    },
    {
      "t": 584.1,
      "ch": 1,
      "note": 38,
      "vel": 74,
      "dur": 25
    },
    {
      "t": 584.1,
      "ch": 1,
      "note": 40,
      "vel": 80,
      "dur": 25
    },
    {
      "t": 584.1,
      "ch": 1,
      "note": 42,
      "vel": 91,
      "dur": 25
    },
    {
      "t": 584.1,
      "ch": 1,
      "note": 36,
      "vel": 80,
      "dur": 25
    },
    {
      "t": 584.1,
      "ch": 1,
      "note": 38,
      "vel": 76,
      "dur": 25
    },
    {
      "t": 584.1,
      "ch": 1,
      "note": 40,
      "vel": 74,
      "dur": 25
    },
    {
      "t": 584.1,
      "ch": 1,
      "note": 42,
      "vel": 92,
      "dur": 25
    },
    {
      "t": 584.1,
      "ch": 1,
      "note": 36,
      "vel": 88,
      "dur": 25
    },
    {
      "t": 584.1,
      "ch": 1,
      "note": 38,
      "vel": 81,
      "dur": 25
    },
    {
      "t": 584.1,
      "ch": 1,
      "note": 40,
      "vel": 61,
      "dur": 25
    },
    {
      "t": 584.1,
      "ch": 1,
      "note": 42,
      "vel": 62,
      "dur": 25
    },
    {
      "t": 584.1,
      "ch": 1,
      "note": 36,
      "vel": 59,
      "dur": 25
    },
    {
      "t": 584.1,
      "ch": 1,
      "note": 38,
      "vel": 80,
      "dur": 25
    },
    {
      "t": 584.1,
      "ch": 1,
      "note": 40,
      "vel": 98,
      "dur": 25
    },
    {
      "t": 584.1,
      "ch": 1,
      "note": 42,
      "vel": 75,
      "dur": 25
    },
    {
      "t": 584.1,
      "ch": 1,
      "note": 36,
      "vel": 72,
      "dur": 25
    },
    {
      "t": 584.1,
      "ch": 1,
      "note": 38,
      "vel": 69,
      "dur": 25
    },
    {
      "t": 584.1,
      "ch": 1,
      "note": 40,
      "vel": 74,
      "dur": 25
    },
    {
      "t": 584.1,
      "ch": 1,
      "note": 42,
      "vel": 80,
      "dur": 25
    },
    {
      "t": 584.1,
      "ch": 1,
      "note": 36,
      "vel": 101,
      "dur": 25
    },
    {
      "t": 584.1,
      "ch": 1,
      "note": 38,
      "vel": 81,
      "dur": 25
    },
    {
      "t": 584.1,
      "ch": 1,
      "note": 40,
      "vel": 77,
      "dur": 25
    },
    {
      "t": 584.1,
      "ch": 1,
      "note": 42,
      "vel": 94,
      "dur": 25
    },
    {
      "t": 584.1,
      "ch": 1,
      "note": 36,
      "vel": 99,
      "dur": 25
    },
    {
      "t": 584.1,
      "ch": 1,
      "note": 38,
      "vel": 90,
      "dur": 25
    },
    {
      "t": 584.1,
      "ch": 1,
      "note": 40,
      "vel": 88,
      "dur": 25
    },
    {
      "t": 584.1,
      "ch": 1,
      "note": 42,
      "vel": 104,
      "dur": 25
    },
    {
      "t": 584.1,
      "ch": 1,
      "note": 36,
      "vel": 98,
      "dur": 25
    },
    {
      "t": 584.1,
      "ch": 1,
      "note": 38,
      "vel": 98,
      "dur": 25
    },
    {
      "t": 584.1,
      "ch": 1,
      "note": 40,
      "vel": 90,
      "dur": 25
    },
    {
      "t": 584.1,
      "ch": 1,
      "note": 42,
      "vel": 89,
      "dur": 25
    },
    {
      "t": 584.1,
      "ch": 1,
      "note": 36,
      "vel": 93,
      "dur": 25
    },
    {
      "t": 584.1,
      "ch": 1,
      "note": 38,
      "vel": 87,
      "dur": 25
    },
    {
      "t": 584.1,
      "ch": 1,
      "note": 40,
      "vel": 92,
      "dur": 25
    },
    {
      "t": 584.1,
      "ch": 1,
      "note": 42,
      "vel": 77,
      "dur": 25
    },
    {
      "t": 584.1,
      "ch": 1,
      "note": 36,
      "vel": 96,
      "dur": 25
    },
    {
      "t": 584.1,
      "ch": 1,
      "note": 38,
      "vel": 66,
      "dur": 25
    },
    {
      "t": 584.1,
      "ch": 1,
      "note": 40,
      "vel": 90,
      "dur": 25
    },
    {
      "t": 584.1,
      "ch": 1,
      "note": 42,
      "vel": 73,
      "dur": 25
    },
    {
      "t": 584.1,
      "ch": 1,
      "note": 36,
      "vel": 67,
      "dur": 25
    },
    {
      "t": 584.1,
      "ch": 1,
      "note": 38,
      "vel": 94,
      "dur": 25
    },
    {
      "t": 584.1,
      "ch": 1,
      "note": 40,
      "vel": 75,
      "dur": 25
    },
    {
      "t": 584.1,
      "ch": 1,
      "note": 42,
      "vel": 83,
      "dur": 25
    },
    {
      "t": 584.1,
      "ch": 1,
      "note": 36,
      "vel": 104,
      "dur": 25
    },
    {
      "t": 584.1,
      "ch": 1,
      "note": 38,
      "vel": 99,
      "dur": 25
    },
    {
      "t": 584.1,
      "ch": 1,
      "note": 40,
      "vel": 78,
      "dur": 25
    },
    {
      "t": 584.1,
      "ch": 1,
      "note": 42,
      "vel": 72,
      "dur": 25
    },
    {
      "t": 584.1,
      "ch": 1,
      "note": 36,
      "vel": 76,
      "dur": 25
    },
    {
      "t": 584.1,
      "ch": 1,
      "note": 38,
      "vel": 67,
      "dur": 25
    },
    {
      "t": 584.1,
      "ch": 1,
      "note": 40,
      "vel": 95,
      "dur": 25
    },
    {
      "t": 584.1,
      "ch": 1,
      "note": 42,
      "vel": 71,
      "dur": 25
    },
    {
      "t": 584.1,
      "ch": 1,
      "note": 36,
      "vel": 84,
      "dur": 25
    },
    {
      "t": 584.1,
      "ch": 1,
      "note": 38,
      "vel": 87,
      "dur": 25
    },
    {
      "t": 584.1,
      "ch": 1,
      "note": 40,
      "vel": 97,
      "dur": 25
    },
    {
      "t": 584.1,
      "ch": 1,
      "note": 42,
      "vel": 89,
      "dur": 25
    },
    {
      "t": 584.1,
      "ch": 1,
      "note": 36,
      "vel": 79,
      "dur": 25
    },
    {
      "t": 584.1,
      "ch": 1,
      "note": 38,
      "vel": 98,
      "dur": 25
    },
    {
      "t": 584.1,
      "ch": 1,
      "note": 40,
      "vel": 88,
      "dur": 25
    },
    {
      "t": 584.1,
      "ch": 1,
      "note": 42,
      "vel": 79,
      "dur": 25
    },
    {
      "t": 584.1,
      "ch": 1,
      "note": 36,
      "vel": 84,
      "dur": 25
    },
    {
      "t": 584.1,
      "ch": 1,
      "note": 38,
      "vel": 76,
      "dur": 25
    },
    {
      "t": 584.1,
      "ch": 1,
      "note": 40,
      "vel": 83,
      "dur": 25
    },
    {
      "t": 584.1,
      "ch": 1,
      "note": 42,
      "vel": 106,
      "dur": 25
    },
    {
      "t": 584.1,
      "ch": 1,
      "note": 36,
      "vel": 98,
      "dur": 25
    },
    {
      "t": 584.1,
      "ch": 1,
      "note": 38,
      "vel": 90,
      "dur": 25
    },
    {
      "t": 584.1,
      "ch": 1,
      "note": 40,
      "vel": 96,
      "dur": 25
    },
    {
      "t": 584.1,
      "ch": 1,
      "note": 42,
      "vel": 89,
      "dur": 25
    },
    {
      "t": 584.1,
      "ch": 1,
      "note": 36,
      "vel": 73,
      "dur": 25
    },
    {
      "t": 584.1,
      "ch": 1,
      "note": 38,
      "vel": 77,
      "dur": 25
    },
    {
      "t": 584.1,
      "ch": 1,
      "note": 40,
      "vel": 106,
      "dur": 25
    },
    {
      "t": 584.1,
      "ch": 1,
      "note": 42,
      "vel": 84,
      "dur": 25
    },
    {
      "t": 584.1,
      "ch": 1,
      "note": 36,
      "vel": 74,
      "dur": 25
    },
    {
      "t": 584.1,
      "ch": 1,
      "note": 38,
      "vel": 84,
      "dur": 25
    },
    {
      "t": 584.1,
      "ch": 1,
      "note": 40,
      "vel": 82,
      "dur": 25
    },
    {
      "t": 584.1,
      "ch": 1,
      "note": 42,
      "vel": 91,
      "dur": 25
    },
    {
      "t": 584.1,
      "ch": 1,
      "note": 36,
      "vel": 78,
      "dur": 25
    },
    {
      "t": 584.1,
      "ch": 1,
      "note": 38,
      "vel": 68,
      "dur": 25
    },
    {
      "t": 584.1,
      "ch": 1,
      "note": 40,
      "vel": 80,
      "dur": 25
    },
    {
      "t": 584.1,
      "ch": 1,
      "note": 42,
      "vel": 89,
      "dur": 25
    },
    {
      "t": 584.1,
      "ch": 1,
      "note": 36,
      "vel": 90,
      "dur": 25
    },
    {
      "t": 584.1,
      "ch": 1,
      "note": 38,
      "vel": 92,
      "dur": 25
    },
    {
      "t": 584.1,
      "ch": 1,
      "note": 40,
      "vel": 82,
      "dur": 25
    },
    {
      "t": 584.1,
      "ch": 1,
      "note": 42,
      "vel": 87,
      "dur": 25
    },
    {
      "t": 584.1,
      "ch": 1,
      "note": 36,
      "vel": 76,
      "dur": 25
    },
    {
      "t": 584.1,
      "ch": 1,
      "note": 38,
      "vel": 72,
      "dur": 25
    },
    {
      "t": 584.1,
      "ch": 1,
      "note": 40,
      "vel": 93,
      "dur": 25
    },
    {
      "t": 584.1,
      "ch": 1,
      "note": 42,
      "vel": 81,
      "dur": 25
    },
    {
      "t": 584.1,
      "ch": 1,
      "note": 36,
      "vel": 114,
      "dur": 25
    },
    {
      "t": 584.1,
      "ch": 1,
      "note": 38,
      "vel": 96,
      "dur": 25
    },
    {
      "t": 584.1,
      "ch": 1,
      "note": 40,
      "vel": 92,
      "dur": 25
    },
    {
      "t": 584.1,
      "ch": 1,
      "note": 42,
      "vel": 96,
      "dur": 25
    },
    {
      "t": 584.1,
      "ch": 1,
      "note": 36,
      "vel": 77,
      "dur": 25
    },
    {
      "t": 584.1,
      "ch": 1,
      "note": 38,
      "vel": 77,
      "dur": 25
    },
    {
      "t": 584.1,
      "ch": 1,
      "note": 40,
      "vel": 96,
      "dur": 25
    },
    {
      "t": 584.1,
      "ch": 1,
      "note": 42,
      "vel": 81,
      "dur": 25
    },
    {
      "t": 584.1,
      "ch": 1,
      "note": 36,
      "vel": 88,
      "dur": 25
    },
    {
      "t": 584.1,
      "ch": 1,
      "note": 38,
      "vel": 93,
      "dur": 25
    },
    {
      "t": 584.1,
      "ch": 1,
      "note": 40,
      "vel": 67,
      "dur": 25
    },
    {
      "t": 584.1,
      "ch": 1,
      "note": 42,
      "vel": 98,
      "dur": 25
    },
    {
      "t": 584.1,
      "ch": 1,
      "note": 36,
      "vel": 95,
      "dur": 25
    },
    {
      "t": 584.1,
      "ch": 1,
      "note": 38,
      "vel": 73,
      "dur": 25
    },
    {
      "t": 584.1,
      "ch": 1,
      "note": 40,
      "vel": 89,
      "dur": 25
    },
    {
      "t": 584.1,
      "ch": 1,
      "note": 42,
      "vel": 86,
      "dur": 25
    },
    {
      "t": 584.1,
      "ch": 1,
      "note": 36,
      "vel": 115,
      "dur": 25
    },
    {
      "t": 584.1,
      "ch": 1,
      "note": 38,
      "vel": 88,
      "dur": 25
    },
    {
      "t": 584.1,
      "ch": 1,
      "note": 40,
      "vel": 80,
      "dur": 25
    },
    {
      "t": 584.1,
      "ch": 1,
      "note": 42,
      "vel": 75,
      "dur": 25
    },
    {
      "t": 584.1,
      "ch": 1,
      "note": 36,
      "vel": 77,
      "dur": 25
    },
    {
      "t": 584.1,
      "ch": 1,
      "note": 38,
      "vel": 72,
      "dur": 25
    },
    {
      "t": 584.1,
      "ch": 1,
      "note": 40,
      "vel": 82,
      "dur": 25
    },
    {
      "t": 584.1,
      "ch": 1,
      "note": 42,
      "vel": 90,
      "dur": 25
    },
    {
      "t": 584.1,
      "ch": 1,
      "note": 36,
      "vel": 90,
      "dur": 25
    },
    {
      "t": 584.1,
      "ch": 1,
      "note": 38,
      "vel": 116,
      "dur": 25
    },
    {
      "t": 584.1,
      "ch": 1,
      "note": 40,
      "vel": 115,
      "dur": 25
    },
    {
      "t": 584.1,
      "ch": 1,
      "note": 42,
      "vel": 89,
      "dur": 25
    },
    {
      "t": 584.1,
      "ch": 1,
      "note": 36,
      "vel": 93,
      "dur": 25
    },
    {
      "t": 584.1,
      "ch": 1,
      "note": 38,
      "vel": 109,
      "dur": 25
    },
    {
      "t": 584.1,
      "ch": 1,
      "note": 40,
      "vel": 68,
      "dur": 25
    },
    {
      "t": 584.1,
      "ch": 1,
      "note": 42,
      "vel": 86,
      "dur": 25
    },
    {
      "t": 584.1,
      "ch": 1,
      "note": 36,
      "vel": 78,
      "dur": 25
    },
    {
      "t": 584.1,
      "ch": 1,
      "note": 38,
      "vel": 88,
      "dur": 25
    },
    {
      "t": 584.1,
      "ch": 1,
      "note": 40,
      "vel": 75,
      "dur": 25
    },
    {
      "t": 584.1,
      "ch": 1,
      "note": 42,
      "vel": 95,
      "dur": 25
    },
    {
      "t": 584.1,
      "ch": 1,
      "note": 36,
      "vel": 72,
      "dur": 25
    },
    {
      "t": 584.1,
      "ch": 1,
      "note": 38,
      "vel": 80,
      "dur": 25
    },
    {
      "t": 584.1,
      "ch": 1,
      "note": 40,
      "vel": 78,
      "dur": 25
    },
    {
      "t": 584.1,
      "ch": 1,
      "note": 42,
      "vel": 66,
      "dur": 25
    },
    {
      "t": 584.1,
      "ch": 1,
      "note": 36,
      "vel": 87,
      "dur": 25
    },
    {
      "t": 584.1,
      "ch": 1,
      "note": 38,
      "vel": 61,
      "dur": 25
    },
    {
      "t": 584.1,
      "ch": 1,
      "note": 40,
      "vel": 70,
      "dur": 25
    },
    {
      "t": 584.1,
      "ch": 1,
      "note": 42,
      "vel": 78,
      "dur": 25
    },
    {
      "t": 584.1,
      "ch": 1,
      "note": 36,
      "vel": 108,
      "dur": 25
    },
    {
      "t": 584.1,
      "ch": 1,
      "note": 38,
      "vel": 84,
      "dur": 25
    },
    {
      "t": 584.1,
      "ch": 1,
      "note": 40,
      "vel": 71,
      "dur": 25
    },
    {
      "t": 584.1,
      "ch": 1,
      "note": 42,
      "vel": 78,
      "dur": 25
    },
    {
      "t": 584.1,
      "ch": 1,
      "note": 36,
      "vel": 85,
      "dur": 25
    },
    {
      "t": 584.1,
      "ch": 1,
      "note": 38,
      "vel": 75,
      "dur": 25
    },
    {
      "t": 584.1,
      "ch": 1,
      "note": 40,
      "vel": 102,
      "dur": 25
    },
    {
      "t": 584.1,
      "ch": 1,
      "note": 42,
      "vel": 95,
      "dur": 25
    },
    {
      "t": 584.1,
      "ch": 1,
      "note": 36,
      "vel": 93,
      "dur": 25
    },
    {
      "t": 584.1,
      "ch": 1,
      "note": 38,
      "vel": 79,
      "dur": 25
    },
    {
      "t": 584.1,
      "ch": 1,
      "note": 40,
      "vel": 83,
      "dur": 25
    },
    {
      "t": 584.1,
      "ch": 1,
      "note": 42,
      "vel": 91,
      "dur": 25
    },
    {
      "t": 584.1,
      "ch": 1,
      "note": 36,
      "vel": 83,
      "dur": 25
    },
    {
      "t": 584.1,
      "ch": 1,
      "note": 38,
      "vel": 72,
      "dur": 25
    },
    {
      "t": 584.1,
      "ch": 1,
      "note": 40,
      "vel": 73,
      "dur": 25
    },
    {
      "t": 584.1,
      "ch": 1,
      "note": 42,
      "vel": 100,
      "dur": 25
    },
    {
      "t": 584.1,
      "ch": 1,
      "note": 36,
      "vel": 98,
      "dur": 25
    },
    {
      "t": 584.1,
      "ch": 1,
      "note": 38,
      "vel": 92,
      "dur": 25
    },
    {
      "t": 584.1,
      "ch": 1,
      "note": 40,
      "vel": 81,
      "dur": 25
    },
    {
      "t": 584.1,
      "ch": 1,
      "note": 42,
      "vel": 83,
      "dur": 25
    },
    {
      "t": 584.1,
      "ch": 1,
      "note": 36,
      "vel": 94,
      "dur": 25
    },
    {
      "t": 584.1,
      "ch": 1,
      "note": 38,
      "vel": 79,
      "dur": 25
    },
    {
      "t": 584.1,
      "ch": 1,
      "note": 40,
      "vel": 115,
      "dur": 25
    },
    {
      "t": 584.1,
      "ch": 1,
      "note": 42,
      "vel": 80,
      "dur": 25
    },
    {
      "t": 584.1,
      "ch": 1,
      "note": 36,
      "vel": 89,
      "dur": 25
    },
    {
      "t": 584.1,
      "ch": 1,
      "note": 38,
      "vel": 80,
      "dur": 25
    },
    {
      "t": 584.1,
      "ch": 1,
      "note": 40,
      "vel": 70,
      "dur": 25
    },
    {
      "t": 584.1,
      "ch": 1,
      "note": 42,
      "vel": 72,
      "dur": 25
    },
    {
      "t": 584.1,
      "ch": 1,
      "note": 36,
      "vel": 72,
      "dur": 25
    },
    {
      "t": 584.1,
      "ch": 1,
      "note": 38,
      "vel": 72,
      "dur": 25
    },
    {
      "t": 584.1,
      "ch": 1,
      "note": 40,
      "vel": 118,
      "dur": 25
    },
    {
      "t": 584.1,
      "ch": 1,
      "note": 42,
      "vel": 75,
      "dur": 25
    },
    {
      "t": 584.1,
      "ch": 1,
      "note": 36,
      "vel": 107,
      "dur": 25
    },
    {
      "t": 584.1,
      "ch": 1,
      "note": 38,
      "vel": 85,
      "dur": 25
    },
    {
      "t": 584.1,
      "ch": 1,
      "note": 40,
      "vel": 70,
      "dur": 25
    },
    {
      "t": 584.1,
      "ch": 1,
      "note": 42,
      "vel": 76,
      "dur": 25
    },
    {
      "t": 584.1,
      "ch": 1,
      "note": 36,
      "vel": 103,
      "dur": 25
    },
    {
      "t": 584.1,
      "ch": 1,
      "note": 38,
      "vel": 76,
      "dur": 25
    },
    {
      "t": 584.1,
      "ch": 1,
      "note": 40,
      "vel": 107,
      "dur": 25
    },
    {
      "t": 584.1,
      "ch": 1,
      "note": 42,
      "vel": 91,
      "dur": 25
    },
    {
      "t": 584.1,
      "ch": 1,
      "note": 36,
      "vel": 79,
      "dur": 25
    },
    {
      "t": 584.1,
      "ch": 1,
      "note": 38,
      "vel": 106,
      "dur": 25
    },
    {
      "t": 584.1,
      "ch": 1,
      "note": 40,
      "vel": 96,
      "dur": 25
    },
    {
      "t": 584.1,
      "ch": 1,
      "note": 42,
      "vel": 96,
      "dur": 25
    },
    {
      "t": 584.1,
      "ch": 1,
      "note": 36,
      "vel": 69,
      "dur": 25
    },
    {
      "t": 584.1,
      "ch": 1,
      "note": 38,
      "vel": 74,
      "dur": 25
    },
    {
      "t": 584.1,
      "ch": 1,
      "note": 40,
      "vel": 76,
      "dur": 25
    },
    {
      "t": 584.1,
      "ch": 1,
      "note": 42,
      "vel": 100,
      "dur": 25
    },
    {
      "t": 584.1,
      "ch": 1,
      "note": 36,
      "vel": 83,
      "dur": 25
    },
    {
      "t": 584.1,
      "ch": 1,
      "note": 38,
      "vel": 68,
      "dur": 25
    },
    {
      "t": 584.1,
      "ch": 1,
      "note": 40,
      "vel": 81,
      "dur": 25
    },
    {
      "t": 584.1,
      "ch": 1,
      "note": 42,
      "vel": 80,
      "dur": 25
    },
    {
      "t": 584.1,
      "ch": 1,
      "note": 36,
      "vel": 81,
      "dur": 25
    },
    {
      "t": 584.1,
      "ch": 1,
      "note": 38,
      "vel": 93,
      "dur": 25
    },
    {
      "t": 584.1,
      "ch": 1,
      "note": 40,
      "vel": 90,
      "dur": 25
    },
    {
      "t": 584.1,
      "ch": 1,
      "note": 42,
      "vel": 54,
      "dur": 25
    },
    {
      "t": 584.1,
      "ch": 1,
      "note": 36,
      "vel": 95,
      "dur": 25
    },
    {
      "t": 584.1,
      "ch": 1,
      "note": 38,
      "vel": 91,
      "dur": 25
    },
    {
      "t": 584.1,
      "ch": 1,
      "note": 40,
      "vel": 103,
      "dur": 25
    },
    {
      "t": 584.1,
      "ch": 1,
      "note": 42,
      "vel": 104,
      "dur": 25
    },
    {
      "t": 584.1,
      "ch": 1,
      "note": 36,
      "vel": 84,
      "dur": 25
    },
    {
      "t": 584.1,
      "ch": 1,
      "note": 38,
      "vel": 79,
      "dur": 25
    },
    {
      "t": 584.1,
      "ch": 1,
      "note": 40,
      "vel": 84,
      "dur": 25
    },
    {
      "t": 584.1,
      "ch": 1,
      "note": 42,
      "vel": 88,
      "dur": 25
    },
    {
      "t": 584.1,
      "ch": 1,
      "note": 36,
      "vel": 94,
      "dur": 25
    },
    {
      "t": 584.1,
      "ch": 1,
      "note": 38,
      "vel": 97,
      "dur": 25
    },
    {
      "t": 584.1,
      "ch": 1,
      "note": 40,
      "vel": 66,
      "dur": 25
    },
    {
      "t": 584.1,
      "ch": 1,
      "note": 42,
      "vel": 116,
      "dur": 25
    },
    {
      "t": 584.1,
      "ch": 1,
      "note": 36,
      "vel": 82,
      "dur": 25
    },
    {
      "t": 584.1,
      "ch": 1,
      "note": 38,
      "vel": 58,
      "dur": 25
    },
    {
      "t": 584.1,
      "ch": 1,
      "note": 40,
      "vel": 96,
      "dur": 25
    },
    {
      "t": 584.1,
      "ch": 1,
      "note": 42,
      "vel": 92,
      "dur": 25
    },
    {
      "t": 584.1,
      "ch": 1,
      "note": 36,
      "vel": 64,
      "dur": 25
    },
    {
      "t": 584.1,
      "ch": 1,
      "note": 38,
      "vel": 79,
      "dur": 25
    },
    {
      "t": 584.1,
      "ch": 1,
      "note": 40,
      "vel": 114,
      "dur": 25
    },
    {
      "t": 584.1,
      "ch": 1,
      "note": 42,
      "vel": 89,
      "dur": 25
    },
    {
      "t": 584.1,
      "ch": 1,
      "note": 36,
      "vel": 67,
      "dur": 25
    },
    {
      "t": 584.1,
      "ch": 1,
      "note": 38,
      "vel": 79,
      "dur": 25
    },
    {
      "t": 584.1,
      "ch": 1,
      "note": 40,
      "vel": 99,
      "dur": 25
    },
    {
      "t": 584.1,
      "ch": 1,
      "note": 42,
      "vel": 106,
      "dur": 25
    },
    {
      "t": 584.1,
      "ch": 1,
      "note": 36,
      "vel": 110,
      "dur": 25
    },
    {
      "t": 584.1,
      "ch": 1,
      "note": 38,
      "vel": 81,
      "dur": 25
    },
    {
      "t": 584.1,
      "ch": 1,
      "note": 40,
      "vel": 93,
      "dur": 25
    },
    {
      "t": 584.1,
      "ch": 1,
      "note": 42,
      "vel": 103,
      "dur": 25
    },
    {
      "t": 584.1,
      "ch": 1,
      "note": 36,
      "vel": 85,
      "dur": 25
    },
    {
      "t": 584.1,
      "ch": 1,
      "note": 38,
      "vel": 72,
      "dur": 25
    },
    {
      "t": 584.1,
      "ch": 1,
      "note": 40,
      "vel": 82,
      "dur": 25
    },
    {
      "t": 584.1,
      "ch": 1,
      "note": 42,
      "vel": 102,
      "dur": 25
    },
    {
      "t": 584.1,
      "ch": 1,
      "note": 36,
      "vel": 72,
      "dur": 25
    },
    {
      "t": 584.1,
      "ch": 1,
      "note": 38,
      "vel": 80,
      "dur": 25
    },
    {
      "t": 584.1,
      "ch": 1,
      "note": 40,
      "vel": 73,
      "dur": 25
    },
    {
      "t": 584.1,
      "ch": 1,
      "note": 42,
      "vel": 111,
      "dur": 25
    },
    {
      "t": 584.1,
      "ch": 1,
      "note": 36,
      "vel": 76,
      "dur": 25
    },
    {
      "t": 584.1,
      "ch": 1,
      "note": 38,
      "vel": 56,
      "dur": 25
    },
    {
      "t": 584.1,
      "ch": 1,
      "note": 40,
      "vel": 82,
      "dur": 25
    },
    {
      "t": 584.1,
      "ch": 1,
      "note": 42,
      "vel": 79,
      "dur": 25
    },
    {
      "t": 584.1,
      "ch": 1,
      "note": 36,
      "vel": 109,
      "dur": 25
    },
    {
      "t": 584.1,
      "ch": 1,
      "note": 38,
      "vel": 87,
      "dur": 25
    },
    {
      "t": 584.1,
      "ch": 1,
      "note": 40,
      "vel": 63,
      "dur": 25
    },
    {
      "t": 584.1,
      "ch": 1,
      "note": 42,
      "vel": 98,
      "dur": 25
    },
    {
      "t": 584.1,
      "ch": 1,
      "note": 36,
      "vel": 93,
      "dur": 25
    },
    {
      "t": 584.1,
      "ch": 1,
      "note": 38,
      "vel": 79,
      "dur": 25
    },
    {
      "t": 584.1,
      "ch": 1,
      "note": 40,
      "vel": 78,
      "dur": 25
    },
    {
      "t": 584.1,
      "ch": 1,
      "note": 42,
      "vel": 109,
      "dur": 25
    },
    {
      "t": 584.1,
      "ch": 1,
      "note": 36,
      "vel": 90,
      "dur": 25
    },
    {
      "t": 584.1,
      "ch": 1,
      "note": 38,
      "vel": 97,
      "dur": 25
    },
    {
      "t": 584.1,
      "ch": 1,
      "note": 40,
      "vel": 75,
      "dur": 25
    },
    {
      "t": 584.1,
      "ch": 1,
      "note": 42,
      "vel": 77,
      "dur": 25
    },
    {
      "t": 584.1,
      "ch": 1,
      "note": 36,
      "vel": 93,
      "dur": 25
    },
    {
      "t": 584.1,
      "ch": 1,
      "note": 38,
      "vel": 68,
      "dur": 25
    },
    {
      "t": 584.1,
      "ch": 1,
      "note": 40,
      "vel": 81,
      "dur": 25
    },
    {
      "t": 584.1,
      "ch": 1,
      "note": 42,
      "vel": 68,
      "dur": 25
    },
    {
      "t": 584.1,
      "ch": 1,
      "note": 36,
      "vel": 80,
      "dur": 25
    },
    {
      "t": 584.1,
      "ch": 1,
      "note": 38,
      "vel": 66,
      "dur": 25
    },
    {
      "t": 584.1,
      "ch": 1,
      "note": 40,
      "vel": 67,
      "dur": 25
    },
    {
      "t": 584.1,
      "ch": 1,
      "note": 42,
      "vel": 66,
      "dur": 25
    },
    {
      "t": 584.1,
      "ch": 1,
      "note": 36,
      "vel": 96,
      "dur": 25
    },
    {
      "t": 584.1,
      "ch": 1,
      "note": 38,
      "vel": 105,
      "dur": 25
    },
    {
      "t": 584.1,
      "ch": 1,
      "note": 40,
      "vel": 74,
      "dur": 25
    },
    {
      "t": 584.1,
      "ch": 1,
      "note": 42,
      "vel": 69,
      "dur": 25
    },
    {
      "t": 584.1,
      "ch": 1,
      "note": 36,
      "vel": 89,
      "dur": 25
    },
    {
      "t": 584.1,
      "ch": 1,
      "note": 38,
      "vel": 90,
      "dur": 25
    },
    {
      "t": 584.1,
      "ch": 1,
      "note": 40,
      "vel": 69,
      "dur": 25
    },
    {
      "t": 584.1,
      "ch": 1,
      "note": 42,
      "vel": 71,
      "dur": 25
    },
    {
      "t": 584.1,
      "ch": 1,
      "note": 36,
      "vel": 99,
      "dur": 25
    },
    {
      "t": 584.1,
      "ch": 1,
      "note": 38,
      "vel": 82,
      "dur": 25
    },
    {
      "t": 584.1,
      "ch": 1,
      "note": 40,
      "vel": 69,
      "dur": 25
    },
    {
      "t": 584.1,
      "ch": 1,
      "note": 42,
      "vel": 56,
      "dur": 25
    },
    {
      "t": 584.1,
      "ch": 1,
      "note": 36,
      "vel": 109,
      "dur": 25
    },
    {
      "t": 584.1,
      "ch": 1,
      "note": 38,
      "vel": 72,
      "dur": 25
    },
    {
      "t": 584.1,
      "ch": 1,
      "note": 40,
      "vel": 65,
      "dur": 25
    },
    {
      "t": 584.1,
      "ch": 1,
      "note": 42,
      "vel": 95,
      "dur": 25
    },
    {
      "t": 584.1,
      "ch": 1,
      "note": 36,
      "vel": 99,
      "dur": 25
    },
    {
      "t": 584.1,
      "ch": 1,
      "note": 38,
      "vel": 96,
      "dur": 25
    },
    {
      "t": 584.1,
      "ch": 1,
      "note": 40,
      "vel": 86,
      "dur": 25
    },
    {
      "t": 584.1,
      "ch": 1,
      "note": 42,
      "vel": 96,
      "dur": 25
    },
    {
      "t": 584.1,
      "ch": 1,
      "note": 36,
      "vel": 108,
      "dur": 25
    },
    {
      "t": 584.1,
      "ch": 1,
      "note": 38,
      "vel": 94,
      "dur": 25
    },
    {
      "t": 584.1,
      "ch": 1,
      "note": 40,
      "vel": 72,
      "dur": 25
    },
    {
      "t": 584.1,
      "ch": 1,
      "note": 42,
      "vel": 81,
      "dur": 25
    },
    {
      "t": 584.1,
      "ch": 1,
      "note": 36,
      "vel": 99,
      "dur": 25
    },
    {
      "t": 584.1,
      "ch": 1,
      "note": 38,
      "vel": 86,
      "dur": 25
    },
    {
      "t": 584.1,
      "ch": 1,
      "note": 40,
      "vel": 87,
      "dur": 25
    },
    {
      "t": 584.1,
      "ch": 1,
      "note": 42,
      "vel": 94,
      "dur": 25
    },
    {
      "t": 584.1,
      "ch": 1,
      "note": 36,
      "vel": 93,
      "dur": 25
    },
    {
      "t": 584.1,
      "ch": 1,
      "note": 38,
      "vel": 77,
      "dur": 25
    },
    {
      "t": 584.1,
      "ch": 1,
      "note": 40,
      "vel": 86,
      "dur": 25
    },
    {
      "t": 584.1,
      "ch": 1,
      "note": 42,
      "vel": 61,
      "dur": 25
    },
    {
      "t": 584.1,
      "ch": 1,
      "note": 36,
      "vel": 93,
      "dur": 25
    },
    {
      "t": 584.1,
      "ch": 1,
      "note": 38,
      "vel": 79,
      "dur": 25
    },
    {
      "t": 584.1,
      "ch": 1,
      "note": 40,
      "vel": 71,
      "dur": 25
    },
    {
      "t": 584.1,
      "ch": 1,
      "note": 42,
      "vel": 82,
      "dur": 25
    },
    {
      "t": 584.1,
      "ch": 1,
      "note": 36,
      "vel": 89,
      "dur": 25
    },
    {
      "t": 584.1,
      "ch": 1,
      "note": 38,
      "vel": 92,
      "dur": 25
    },
    {
      "t": 584.1,
      "ch": 1,
      "note": 40,
      "vel": 77,
      "dur": 25
    },
    {
      "t": 584.1,
      "ch": 1,
      "note": 42,
      "vel": 86,
      "dur": 25
    },
    {
      "t": 584.1,
      "ch": 1,
      "note": 36,
      "vel": 95,
      "dur": 25
    },
    {
      "t": 584.1,
      "ch": 1,
      "note": 38,
      "vel": 92,
      "dur": 25
    },
    {
      "t": 584.1,
      "ch": 1,
      "note": 40,
      "vel": 59,
      "dur": 25
    },
    {
      "t": 584.1,
      "ch": 1,
      "note": 42,
      "vel": 80,
      "dur": 25
    },
    {
      "t": 584.1,
      "ch": 1,
      "note": 36,
      "vel": 83,
      "dur": 25
    },
    {
      "t": 584.1,
      "ch": 1,
      "note": 38,
      "vel": 62,
      "dur": 25
    },
    {
      "t": 584.1,
      "ch": 1,
      "note": 40,
      "vel": 80,
      "dur": 25
    },
    {
      "t": 584.1,
      "ch": 1,
      "note": 42,
      "vel": 74,
      "dur": 25
    },
    {
      "t": 584.1,
      "ch": 1,
      "note": 36,
      "vel": 90,
      "dur": 25
    },
    {
      "t": 584.1,
      "ch": 1,
      "note": 38,
      "vel": 71,
      "dur": 25
    },
    {
      "t": 584.1,
      "ch": 1,
      "note": 40,
      "vel": 85,
      "dur": 25
    },
    {
      "t": 584.1,
      "ch": 1,
      "note": 42,
      "vel": 63,
      "dur": 25
    },
    {
      "t": 584.1,
      "ch": 1,
      "note": 36,
      "vel": 92,
      "dur": 25
    },
    {
      "t": 584.1,
      "ch": 1,
      "note": 38,
      "vel": 100,
      "dur": 25
    },
    {
      "t": 584.1,
      "ch": 1,
      "note": 40,
      "vel": 72,
      "dur": 25
    },
    {
      "t": 584.1,
      "ch": 1,
      "note": 42,
      "vel": 88,
      "dur": 25
    },
    {
      "t": 584.1,
      "ch": 1,
      "note": 36,
      "vel": 104,
      "dur": 25
    },
    {
      "t": 584.1,
      "ch": 1,
      "note": 38,
      "vel": 93,
      "dur": 25
    },
    {
      "t": 584.1,
      "ch": 1,
      "note": 40,
      "vel": 85,
      "dur": 25
    },
    {
      "t": 584.1,
      "ch": 1,
      "note": 42,
      "vel": 89,
      "dur": 25
    },
    {
      "t": 584.1,
      "ch": 1,
      "note": 36,
      "vel": 98,
      "dur": 25
    },
    {
      "t": 584.1,
      "ch": 1,
      "note": 38,
      "vel": 80,
      "dur": 25
    },
    {
      "t": 584.1,
      "ch": 1,
      "note": 40,
      "vel": 111,
      "dur": 25
    },
    {
      "t": 584.1,
      "ch": 1,
      "note": 42,
      "vel": 73,
      "dur": 25
    },
    {
      "t": 584.1,
      "ch": 1,
      "note": 36,
      "vel": 78,
      "dur": 25
    },
    {
      "t": 584.1,
      "ch": 1,
      "note": 38,
      "vel": 65,
      "dur": 25
    },
    {
      "t": 584.1,
      "ch": 1,
      "note": 40,
      "vel": 74,
      "dur": 25
    },
    {
      "t": 584.1,
      "ch": 1,
      "note": 42,
      "vel": 95,
      "dur": 25
    },
    {
      "t": 584.1,
      "ch": 1,
      "note": 36,
      "vel": 71,
      "dur": 25
    },
    {
      "t": 584.1,
      "ch": 1,
      "note": 38,
      "vel": 79,
      "dur": 25
    },
    {
      "t": 584.1,
      "ch": 1,
      "note": 40,
      "vel": 90,
      "dur": 25
    },
    {
      "t": 584.1,
      "ch": 1,
      "note": 42,
      "vel": 67,
      "dur": 25
    },
    {
      "t": 584.1,
      "ch": 1,
      "note": 36,
      "vel": 88,
      "dur": 25
    },
    {
      "t": 584.1,
      "ch": 1,
      "note": 38,
      "vel": 97,
      "dur": 25
    },
    {
      "t": 584.1,
      "ch": 1,
      "note": 40,
      "vel": 95,
      "dur": 25
    },
    {
      "t": 584.1,
      "ch": 1,
      "note": 42,
      "vel": 67,
      "dur": 25
    },
    {
      "t": 584.1,
      "ch": 1,
      "note": 36,
      "vel": 80,
      "dur": 25
    },
    {
      "t": 584.1,
      "ch": 1,
      "note": 38,
      "vel": 72,
      "dur": 25
    },
    {
      "t": 584.1,
      "ch": 1,
      "note": 40,
      "vel": 88,
      "dur": 25
    },
    {
      "t": 584.1,
      "ch": 1,
      "note": 42,
      "vel": 67,
      "dur": 25
    },
    {
      "t": 584.1,
      "ch": 1,
      "note": 36,
      "vel": 81,
      "dur": 25
    },
    {
      "t": 584.1,
      "ch": 1,
      "note": 38,
      "vel": 81,
      "dur": 25
    },
    {
      "t": 584.1,
      "ch": 1,
      "note": 40,
      "vel": 103,
      "dur": 25
    },
    {
      "t": 584.1,
      "ch": 1,
      "note": 42,
      "vel": 70,
      "dur": 25
    },
    {
      "t": 584.1,
      "ch": 1,
      "note": 36,
      "vel": 73,
      "dur": 25
    },
    {
      "t": 584.1,
      "ch": 1,
      "note": 38,
      "vel": 101,
      "dur": 25
    },
    {
      "t": 584.1,
      "ch": 1,
      "note": 40,
      "vel": 68,
      "dur": 25
    },
    {
      "t": 584.1,
      "ch": 1,
      "note": 42,
      "vel": 83,
      "dur": 25
    },
    {
      "t": 584.1,
      "ch": 1,
      "note": 36,
      "vel": 90,
      "dur": 25
    },
    {
      "t": 584.1,
      "ch": 1,
      "note": 38,
      "vel": 67,
      "dur": 25
    },
    {
      "t": 584.1,
      "ch": 1,
      "note": 40,
      "vel": 84,
      "dur": 25
    },
    {
      "t": 584.1,
      "ch": 1,
      "note": 42,
      "vel": 87,
      "dur": 25
    },
    {
      "t": 584.1,
      "ch": 1,
      "note": 36,
      "vel": 70,
      "dur": 25
    },
    {
      "t": 584.1,
      "ch": 1,
      "note": 38,
      "vel": 62,
      "dur": 25
    },
    {
      "t": 584.1,
      "ch": 1,
      "note": 40,
      "vel": 92,
      "dur": 25
    },
    {
      "t": 584.1,
      "ch": 1,
      "note": 42,
      "vel": 81,
      "dur": 25
    },
    {
      "t": 584.1,
      "ch": 1,
      "note": 36,
      "vel": 79,
      "dur": 25
    },
    {
      "t": 584.1,
      "ch": 1,
      "note": 38,
      "vel": 83,
      "dur": 25
    },
    {
      "t": 584.1,
      "ch": 1,
      "note": 40,
      "vel": 84,
      "dur": 25
    },
    {
      "t": 584.1,
      "ch": 1,
      "note": 42,
      "vel": 88,
      "dur": 25
    },
    {
      "t": 584.1,
      "ch": 1,
      "note": 36,
      "vel": 91,
      "dur": 25
    },
    {
      "t": 584.1,
      "ch": 1,
      "note": 38,
      "vel": 83,
      "dur": 25
    },
    {
      "t": 584.1,
      "ch": 1,
      "note": 40,
      "vel": 89,
      "dur": 25
    },
    {
      "t": 584.1,
      "ch": 1,
      "note": 42,
      "vel": 95,
      "dur": 25
    },
    {
      "t": 584.1,
      "ch": 1,
      "note": 36,
      "vel": 101,
      "dur": 25
    },
    {
      "t": 584.1,
      "ch": 1,
      "note": 38,
      "vel": 66,
      "dur": 25
    },
    {
      "t": 584.1,
      "ch": 1,
      "note": 40,
      "vel": 80,
      "dur": 25
    },
    {
      "t": 584.1,
      "ch": 1,
      "note": 42,
      "vel": 60,
      "dur": 25
    },
    {
      "t": 584.1,
      "ch": 1,
      "note": 36,
      "vel": 103,
      "dur": 25
    },
    {
      "t": 584.1,
      "ch": 1,
      "note": 38,
      "vel": 70,
      "dur": 25
    },
    {
      "t": 584.1,
      "ch": 1,
      "note": 40,
      "vel": 84,
      "dur": 25
    },
    {
      "t": 584.1,
      "ch": 1,
      "note": 42,
      "vel": 92,
      "dur": 25
    },
    {
      "t": 584.1,
      "ch": 1,
      "note": 36,
      "vel": 72,
      "dur": 25
    },
    {
      "t": 584.2,
      "ch": 1,
      "note": 38,
      "vel": 88,
      "dur": 25
    },
    {
      "t": 584.3,
      "ch": 1,
      "note": 40,
      "vel": 69,
      "dur": 25
    },
    {
      "t": 584.3,
      "ch": 1,
      "note": 42,
      "vel": 78,
      "dur": 25
    },
    {
      "t": 584.4,
      "ch": 7,
      "note": 45,
      "vel": 72,
      "dur": 80
    },
    {
      "t": 584.4,
      "ch": 7,
      "note": 36,
      "vel": 73,
      "dur": 80
    },
    {
      "t": 584.4,
      "ch": 7,
      "note": 38,
      "vel": 64,
      "dur": 80
    },
    {
      "t": 584.5,
      "ch": 1,
      "note": 36,
      "vel": 74,
      "dur": 25
    },
    {
      "t": 584.5,
      "ch": 1,
      "note": 38,
      "vel": 67,
      "dur": 25
    },
    {
      "t": 584.7,
      "ch": 1,
      "note": 40,
      "vel": 57,
      "dur": 25
    },
    {
      "t": 584.7,
      "ch": 1,
      "note": 42,
      "vel": 84,
      "dur": 25
    },
    {
      "t": 584.7,
      "ch": 7,
      "note": 48,
      "vel": 61,
      "dur": 80
    },
    {
      "t": 584.7,
      "ch": 7,
      "note": 36,
      "vel": 83,
      "dur": 80
    },
    {
      "t": 584.8,
      "ch": 1,
      "note": 36,
      "vel": 84,
      "dur": 25
    },
    {
      "t": 584.9,
      "ch": 1,
      "note": 38,
      "vel": 86,
      "dur": 25
    },
    {
      "t": 585,
      "ch": 1,
      "note": 40,
      "vel": 96,
      "dur": 25
    },
    {
      "t": 585,
      "ch": 1,
      "note": 42,
      "vel": 61,
      "dur": 25
    },
    {
      "t": 585.1,
      "ch": 0,
      "note": 36,
      "vel": 87,
      "dur": 55
    },
    {
      "t": 585.2,
      "ch": 1,
      "note": 36,
      "vel": 70,
      "dur": 25
    },
    {
      "t": 585.2,
      "ch": 1,
      "note": 38,
      "vel": 70,
      "dur": 25
    },
    {
      "t": 585.4,
      "ch": 1,
      "note": 40,
      "vel": 96,
      "dur": 25
    },
    {
      "t": 585.4,
      "ch": 0,
      "note": 36,
      "vel": 123,
      "dur": 55
    },
    {
      "t": 585.4,
      "ch": 1,
      "note": 42,
      "vel": 77,
      "dur": 25
    },
    {
      "t": 585.4,
      "ch": 7,
      "note": 48,
      "vel": 67,
      "dur": 80
    },
    {
      "t": 585.4,
      "ch": 7,
      "note": 45,
      "vel": 61,
      "dur": 80
    },
    {
      "t": 585.4,
      "ch": 7,
      "note": 36,
      "vel": 75,
      "dur": 80
    },
    {
      "t": 585.4,
      "ch": 7,
      "note": 38,
      "vel": 67,
      "dur": 80
    },
    {
      "t": 585.4,
      "ch": 5,
      "note": 46,
      "vel": 17,
      "dur": 975
    },
    {
      "t": 585.5,
      "ch": 1,
      "note": 36,
      "vel": 84,
      "dur": 25
    },
    {
      "t": 585.6,
      "ch": 1,
      "note": 38,
      "vel": 57,
      "dur": 25
    },
    {
      "t": 585.7,
      "ch": 1,
      "note": 40,
      "vel": 83,
      "dur": 25
    },
    {
      "t": 585.7,
      "ch": 1,
      "note": 42,
      "vel": 86,
      "dur": 25
    },
    {
      "t": 585.7,
      "ch": 7,
      "note": 36,
      "vel": 68,
      "dur": 80
    },
    {
      "t": 585.9,
      "ch": 1,
      "note": 36,
      "vel": 66,
      "dur": 25
    },
    {
      "t": 585.9,
      "ch": 1,
      "note": 38,
      "vel": 82,
      "dur": 25
    },
    {
      "t": 586.1,
      "ch": 1,
      "note": 40,
      "vel": 86,
      "dur": 25
    },
    {
      "t": 586.1,
      "ch": 1,
      "note": 42,
      "vel": 87,
      "dur": 25
    },
    {
      "t": 586.1,
      "ch": 7,
      "note": 48,
      "vel": 60,
      "dur": 80
    },
    {
      "t": 586.1,
      "ch": 7,
      "note": 36,
      "vel": 62,
      "dur": 80
    },
    {
      "t": 586.2,
      "ch": 1,
      "note": 36,
      "vel": 111,
      "dur": 25
    },
    {
      "t": 586.3,
      "ch": 1,
      "note": 38,
      "vel": 79,
      "dur": 25
    },
    {
      "t": 586.3,
      "ch": 7,
      "note": 45,
      "vel": 56,
      "dur": 80
    },
    {
      "t": 586.3,
      "ch": 7,
      "note": 38,
      "vel": 62,
      "dur": 80
    },
    {
      "t": 586.4,
      "ch": 1,
      "note": 40,
      "vel": 79,
      "dur": 25
    },
    {
      "t": 586.4,
      "ch": 1,
      "note": 42,
      "vel": 68,
      "dur": 25
    },
    {
      "t": 586.4,
      "ch": 0,
      "note": 36,
      "vel": 73,
      "dur": 55
    },
    {
      "t": 586.6,
      "ch": 1,
      "note": 36,
      "vel": 71,
      "dur": 25
    },
    {
      "t": 586.6,
      "ch": 1,
      "note": 38,
      "vel": 61,
      "dur": 25
    },
    {
      "t": 586.8,
      "ch": 1,
      "note": 40,
      "vel": 66,
      "dur": 25
    },
    {
      "t": 586.8,
      "ch": 1,
      "note": 42,
      "vel": 74,
      "dur": 25
    },
    {
      "t": 586.8,
      "ch": 7,
      "note": 48,
      "vel": 72,
      "dur": 80
    },
    {
      "t": 586.8,
      "ch": 7,
      "note": 36,
      "vel": 61,
      "dur": 80
    },
    {
      "t": 586.9,
      "ch": 1,
      "note": 36,
      "vel": 63,
      "dur": 25
    },
    {
      "t": 587,
      "ch": 1,
      "note": 38,
      "vel": 56,
      "dur": 25
    },
    {
      "t": 587.1,
      "ch": 1,
      "note": 40,
      "vel": 58,
      "dur": 25
    },
    {
      "t": 587.1,
      "ch": 1,
      "note": 42,
      "vel": 85,
      "dur": 25
    },
    {
      "t": 587.1,
      "ch": 7,
      "note": 45,
      "vel": 56,
      "dur": 80
    },
    {
      "t": 587.1,
      "ch": 7,
      "note": 36,
      "vel": 68,
      "dur": 80
    },
    {
      "t": 587.1,
      "ch": 7,
      "note": 38,
      "vel": 64,
      "dur": 80
    },
    {
      "t": 587.3,
      "ch": 1,
      "note": 36,
      "vel": 81,
      "dur": 25
    },
    {
      "t": 587.3,
      "ch": 1,
      "note": 38,
      "vel": 78,
      "dur": 25
    },
    {
      "t": 587.5,
      "ch": 1,
      "note": 40,
      "vel": 67,
      "dur": 25
    },
    {
      "t": 587.5,
      "ch": 1,
      "note": 42,
      "vel": 85,
      "dur": 25
    },
    {
      "t": 587.5,
      "ch": 7,
      "note": 48,
      "vel": 78,
      "dur": 80
    },
    {
      "t": 587.5,
      "ch": 7,
      "note": 36,
      "vel": 61,
      "dur": 80
    },
    {
      "t": 587.6,
      "ch": 1,
      "note": 36,
      "vel": 91,
      "dur": 25
    },
    {
      "t": 587.6,
      "ch": 1,
      "note": 38,
      "vel": 81,
      "dur": 25
    },
    {
      "t": 587.8,
      "ch": 1,
      "note": 40,
      "vel": 73,
      "dur": 25
    },
    {
      "t": 587.8,
      "ch": 1,
      "note": 42,
      "vel": 61,
      "dur": 25
    },
    {
      "t": 587.8,
      "ch": 0,
      "note": 36,
      "vel": 79,
      "dur": 55
    },
    {
      "t": 588,
      "ch": 1,
      "note": 36,
      "vel": 44,
      "dur": 25
    },
    {
      "t": 588,
      "ch": 1,
      "note": 38,
      "vel": 61,
      "dur": 25
    },
    {
      "t": 588.2,
      "ch": 1,
      "note": 40,
      "vel": 70,
      "dur": 25
    },
    {
      "t": 588.2,
      "ch": 0,
      "note": 36,
      "vel": 112,
      "dur": 55
    },
    {
      "t": 588.2,
      "ch": 1,
      "note": 42,
      "vel": 77,
      "dur": 25
    },
    {
      "t": 588.2,
      "ch": 7,
      "note": 48,
      "vel": 65,
      "dur": 80
    },
    {
      "t": 588.2,
      "ch": 7,
      "note": 45,
      "vel": 71,
      "dur": 80
    },
    {
      "t": 588.2,
      "ch": 7,
      "note": 36,
      "vel": 67,
      "dur": 80
    },
    {
      "t": 588.2,
      "ch": 7,
      "note": 38,
      "vel": 73,
      "dur": 80
    },
    {
      "t": 588.3,
      "ch": 1,
      "note": 36,
      "vel": 84,
      "dur": 25
    },
    {
      "t": 588.3,
      "ch": 1,
      "note": 38,
      "vel": 61,
      "dur": 25
    },
    {
      "t": 588.5,
      "ch": 1,
      "note": 40,
      "vel": 74,
      "dur": 25
    },
    {
      "t": 588.5,
      "ch": 1,
      "note": 42,
      "vel": 64,
      "dur": 25
    },
    {
      "t": 588.5,
      "ch": 7,
      "note": 36,
      "vel": 66,
      "dur": 80
    },
    {
      "t": 588.7,
      "ch": 1,
      "note": 36,
      "vel": 69,
      "dur": 25
    },
    {
      "t": 588.7,
      "ch": 1,
      "note": 38,
      "vel": 62,
      "dur": 25
    },
    {
      "t": 588.9,
      "ch": 1,
      "note": 40,
      "vel": 62,
      "dur": 25
    },
    {
      "t": 588.9,
      "ch": 1,
      "note": 42,
      "vel": 88,
      "dur": 25
    },
    {
      "t": 588.9,
      "ch": 7,
      "note": 48,
      "vel": 73,
      "dur": 80
    },
    {
      "t": 588.9,
      "ch": 7,
      "note": 36,
      "vel": 59,
      "dur": 80
    },
    {
      "t": 588.9,
      "ch": 5,
      "note": 59,
      "vel": 2,
      "dur": 968
    },
    {
      "t": 589,
      "ch": 1,
      "note": 36,
      "vel": 80,
      "dur": 25
    },
    {
      "t": 589,
      "ch": 1,
      "note": 38,
      "vel": 91,
      "dur": 25
    },
    {
      "t": 589.1,
      "ch": 7,
      "note": 45,
      "vel": 63,
      "dur": 80
    },
    {
      "t": 589.1,
      "ch": 7,
      "note": 38,
      "vel": 56,
      "dur": 80
    },
    {
      "t": 589.2,
      "ch": 1,
      "note": 40,
      "vel": 76,
      "dur": 25
    },
    {
      "t": 589.2,
      "ch": 1,
      "note": 42,
      "vel": 64,
      "dur": 25
    },
    {
      "t": 589.2,
      "ch": 0,
      "note": 36,
      "vel": 81,
      "dur": 55
    },
    {
      "t": 589.4,
      "ch": 1,
      "note": 36,
      "vel": 82,
      "dur": 25
    },
    {
      "t": 589.4,
      "ch": 1,
      "note": 38,
      "vel": 53,
      "dur": 25
    },
    {
      "t": 589.5,
      "ch": 1,
      "note": 40,
      "vel": 65,
      "dur": 25
    },
    {
      "t": 589.6,
      "ch": 1,
      "note": 42,
      "vel": 99,
      "dur": 25
    },
    {
      "t": 589.6,
      "ch": 7,
      "note": 48,
      "vel": 76,
      "dur": 80
    },
    {
      "t": 589.6,
      "ch": 7,
      "note": 36,
      "vel": 76,
      "dur": 80
    },
    {
      "t": 589.6,
      "ch": 6,
      "note": 66,
      "vel": 32,
      "dur": 646
    },
    {
      "t": 589.7,
      "ch": 1,
      "note": 36,
      "vel": 86,
      "dur": 25
    },
    {
      "t": 589.7,
      "ch": 1,
      "note": 38,
      "vel": 84,
      "dur": 25
    },
    {
      "t": 589.9,
      "ch": 1,
      "note": 40,
      "vel": 96,
      "dur": 25
    },
    {
      "t": 589.9,
      "ch": 1,
      "note": 42,
      "vel": 73,
      "dur": 25
    },
    {
      "t": 589.9,
      "ch": 7,
      "note": 45,
      "vel": 68,
      "dur": 80
    },
    {
      "t": 589.9,
      "ch": 7,
      "note": 36,
      "vel": 77,
      "dur": 80
    },
    {
      "t": 589.9,
      "ch": 7,
      "note": 38,
      "vel": 52,
      "dur": 80
    },
    {
      "t": 589.9,
      "ch": 5,
      "note": 58,
      "vel": 8,
      "dur": 970
    },
    {
      "t": 590.1,
      "ch": 1,
      "note": 36,
      "vel": 77,
      "dur": 25
    },
    {
      "t": 590.1,
      "ch": 1,
      "note": 38,
      "vel": 51,
      "dur": 25
    },
    {
      "t": 590.2,
      "ch": 1,
      "note": 40,
      "vel": 68,
      "dur": 25
    },
    {
      "t": 590.3,
      "ch": 1,
      "note": 42,
      "vel": 82,
      "dur": 25
    },
    {
      "t": 590.3,
      "ch": 7,
      "note": 48,
      "vel": 73,
      "dur": 80
    },
    {
      "t": 590.3,
      "ch": 7,
      "note": 36,
      "vel": 70,
      "dur": 80
    },
    {
      "t": 590.4,
      "ch": 1,
      "note": 36,
      "vel": 93,
      "dur": 25
    },
    {
      "t": 590.4,
      "ch": 1,
      "note": 38,
      "vel": 77,
      "dur": 25
    },
    {
      "t": 590.6,
      "ch": 1,
      "note": 40,
      "vel": 72,
      "dur": 25
    },
    {
      "t": 590.6,
      "ch": 1,
      "note": 42,
      "vel": 66,
      "dur": 25
    },
    {
      "t": 590.6,
      "ch": 0,
      "note": 36,
      "vel": 77,
      "dur": 55
    },
    {
      "t": 590.8,
      "ch": 1,
      "note": 36,
      "vel": 64,
      "dur": 25
    },
    {
      "t": 590.8,
      "ch": 1,
      "note": 38,
      "vel": 84,
      "dur": 25
    },
    {
      "t": 590.9,
      "ch": 1,
      "note": 40,
      "vel": 82,
      "dur": 25
    },
    {
      "t": 591,
      "ch": 7,
      "note": 48,
      "vel": 73,
      "dur": 80
    },
    {
      "t": 591,
      "ch": 7,
      "note": 45,
      "vel": 66,
      "dur": 80
    },
    {
      "t": 591,
      "ch": 7,
      "note": 36,
      "vel": 76,
      "dur": 80
    },
    {
      "t": 591,
      "ch": 7,
      "note": 38,
      "vel": 58,
      "dur": 80
    },
    {
      "t": 591.3,
      "ch": 7,
      "note": 36,
      "vel": 74,
      "dur": 80
    },
    {
      "t": 591.7,
      "ch": 7,
      "note": 48,
      "vel": 74,
      "dur": 80
    },
    {
      "t": 591.7,
      "ch": 7,
      "note": 36,
      "vel": 69,
      "dur": 80
    },
    {
      "t": 591.9,
      "ch": 7,
      "note": 45,
      "vel": 57,
      "dur": 80
    },
    {
      "t": 591.9,
      "ch": 7,
      "note": 38,
      "vel": 64,
      "dur": 80
    },
    {
      "t": 592.3,
      "ch": 2,
      "note": 58,
      "vel": 54,
      "dur": 20930
    },
    {
      "t": 592.4,
      "ch": 7,
      "note": 48,
      "vel": 61,
      "dur": 80
    },
    {
      "t": 592.4,
      "ch": 7,
      "note": 36,
      "vel": 67,
      "dur": 80
    },
    {
      "t": 592.7,
      "ch": 7,
      "note": 36,
      "vel": 52,
      "dur": 80
    },
    {
      "t": 592.7,
      "ch": 7,
      "note": 38,
      "vel": 62,
      "dur": 80
    },
    {
      "t": 592.7,
      "ch": 7,
      "note": 45,
      "vel": 57,
      "dur": 80
    },
    {
      "t": 593.1,
      "ch": 7,
      "note": 48,
      "vel": 73,
      "dur": 80
    },
    {
      "t": 593.1,
      "ch": 7,
      "note": 36,
      "vel": 77,
      "dur": 80
    },
    {
      "t": 593.8,
      "ch": 0,
      "note": 36,
      "vel": 120,
      "dur": 55
    },
    {
      "t": 593.8,
      "ch": 7,
      "note": 48,
      "vel": 62,
      "dur": 80
    },
    {
      "t": 593.8,
      "ch": 7,
      "note": 45,
      "vel": 80,
      "dur": 80
    },
    {
      "t": 593.8,
      "ch": 7,
      "note": 36,
      "vel": 67,
      "dur": 80
    },
    {
      "t": 593.8,
      "ch": 7,
      "note": 38,
      "vel": 55,
      "dur": 80
    },
    {
      "t": 594,
      "ch": 5,
      "note": 68,
      "vel": 24,
      "dur": 989
    },
    {
      "t": 594.1,
      "ch": 7,
      "note": 36,
      "vel": 55,
      "dur": 80
    },
    {
      "t": 594.5,
      "ch": 7,
      "note": 48,
      "vel": 59,
      "dur": 80
    },
    {
      "t": 594.5,
      "ch": 7,
      "note": 36,
      "vel": 75,
      "dur": 80
    },
    {
      "t": 594.6,
      "ch": 7,
      "note": 45,
      "vel": 58,
      "dur": 80
    },
    {
      "t": 594.6,
      "ch": 7,
      "note": 38,
      "vel": 64,
      "dur": 80
    },
    {
      "t": 595.1,
      "ch": 4,
      "note": 66,
      "vel": 33,
      "dur": 2790
    },
    {
      "t": 595.1,
      "ch": 4,
      "note": 65,
      "vel": 34,
      "dur": 2740
    },
    {
      "t": 595.1,
      "ch": 4,
      "note": 63,
      "vel": 34,
      "dur": 5531
    },
    {
      "t": 595.1,
      "ch": 3,
      "note": 46,
      "vel": 37,
      "dur": 5581
    },
    {
      "t": 595.1,
      "ch": 0,
      "note": 36,
      "vel": 83,
      "dur": 55
    },
    {
      "t": 595.1,
      "ch": 7,
      "note": 48,
      "vel": 74,
      "dur": 80
    },
    {
      "t": 595.1,
      "ch": 7,
      "note": 36,
      "vel": 65,
      "dur": 80
    },
    {
      "t": 595.4,
      "ch": 5,
      "note": 75,
      "vel": 7,
      "dur": 997
    },
    {
      "t": 595.5,
      "ch": 7,
      "note": 45,
      "vel": 61,
      "dur": 80
    },
    {
      "t": 595.5,
      "ch": 7,
      "note": 36,
      "vel": 70,
      "dur": 80
    },
    {
      "t": 595.5,
      "ch": 7,
      "note": 38,
      "vel": 70,
      "dur": 80
    },
    {
      "t": 595.8,
      "ch": 7,
      "note": 48,
      "vel": 72,
      "dur": 80
    },
    {
      "t": 595.8,
      "ch": 7,
      "note": 36,
      "vel": 63,
      "dur": 80
    },
    {
      "t": 596.5,
      "ch": 7,
      "note": 48,
      "vel": 75,
      "dur": 80
    },
    {
      "t": 596.5,
      "ch": 7,
      "note": 45,
      "vel": 75,
      "dur": 80
    },
    {
      "t": 596.5,
      "ch": 7,
      "note": 36,
      "vel": 68,
      "dur": 80
    },
    {
      "t": 596.5,
      "ch": 7,
      "note": 38,
      "vel": 74,
      "dur": 80
    },
    {
      "t": 596.9,
      "ch": 7,
      "note": 36,
      "vel": 64,
      "dur": 80
    },
    {
      "t": 597.2,
      "ch": 7,
      "note": 48,
      "vel": 77,
      "dur": 80
    },
    {
      "t": 597.2,
      "ch": 7,
      "note": 36,
      "vel": 67,
      "dur": 80
    },
    {
      "t": 597.4,
      "ch": 7,
      "note": 45,
      "vel": 68,
      "dur": 80
    },
    {
      "t": 597.4,
      "ch": 7,
      "note": 38,
      "vel": 61,
      "dur": 80
    },
    {
      "t": 597.9,
      "ch": 7,
      "note": 48,
      "vel": 60,
      "dur": 80
    },
    {
      "t": 597.9,
      "ch": 7,
      "note": 36,
      "vel": 64,
      "dur": 80
    },
    {
      "t": 598.3,
      "ch": 7,
      "note": 45,
      "vel": 64,
      "dur": 80
    },
    {
      "t": 598.3,
      "ch": 7,
      "note": 36,
      "vel": 56,
      "dur": 80
    },
    {
      "t": 598.3,
      "ch": 7,
      "note": 38,
      "vel": 50,
      "dur": 80
    },
    {
      "t": 598.6,
      "ch": 7,
      "note": 48,
      "vel": 65,
      "dur": 80
    },
    {
      "t": 598.6,
      "ch": 7,
      "note": 36,
      "vel": 83,
      "dur": 80
    },
    {
      "t": 599.3,
      "ch": 7,
      "note": 48,
      "vel": 65,
      "dur": 80
    },
    {
      "t": 599.3,
      "ch": 7,
      "note": 45,
      "vel": 68,
      "dur": 80
    },
    {
      "t": 599.3,
      "ch": 7,
      "note": 36,
      "vel": 66,
      "dur": 80
    },
    {
      "t": 599.7,
      "ch": 7,
      "note": 36,
      "vel": 59,
      "dur": 80
    },
    {
      "t": 600,
      "ch": 7,
      "note": 48,
      "vel": 68,
      "dur": 80
    },
    {
      "t": 600,
      "ch": 7,
      "note": 36,
      "vel": 82,
      "dur": 80
    },
    {
      "t": 600.2,
      "ch": 7,
      "note": 45,
      "vel": 65,
      "dur": 80
    },
    {
      "t": 600.4,
      "ch": 5,
      "note": 46,
      "vel": 20,
      "dur": 1010
    },
    {
      "t": 600.6,
      "ch": 4,
      "note": 64,
      "vel": 30,
      "dur": 2790
    },
    {
      "t": 600.6,
      "ch": 4,
      "note": 63,
      "vel": 31,
      "dur": 2740
    },
    {
      "t": 600.6,
      "ch": 4,
      "note": 60,
      "vel": 32,
      "dur": 5531
    },
    {
      "t": 600.6,
      "ch": 3,
      "note": 39,
      "vel": 35,
      "dur": 5581
    },
    {
      "t": 600.7,
      "ch": 7,
      "note": 48,
      "vel": 78,
      "dur": 80
    },
    {
      "t": 600.7,
      "ch": 7,
      "note": 36,
      "vel": 67,
      "dur": 80
    },
    {
      "t": 601.1,
      "ch": 7,
      "note": 45,
      "vel": 54,
      "dur": 80
    },
    {
      "t": 601.1,
      "ch": 7,
      "note": 36,
      "vel": 63,
      "dur": 80
    },
    {
      "t": 601.4,
      "ch": 7,
      "note": 48,
      "vel": 84,
      "dur": 80
    },
    {
      "t": 601.4,
      "ch": 7,
      "note": 36,
      "vel": 68,
      "dur": 80
    },
    {
      "t": 602.1,
      "ch": 7,
      "note": 48,
      "vel": 75,
      "dur": 80
    },
    {
      "t": 602.1,
      "ch": 7,
      "note": 45,
      "vel": 68,
      "dur": 80
    },
    {
      "t": 602.1,
      "ch": 7,
      "note": 36,
      "vel": 63,
      "dur": 80
    },
    {
      "t": 602.5,
      "ch": 7,
      "note": 36,
      "vel": 67,
      "dur": 80
    },
    {
      "t": 602.8,
      "ch": 7,
      "note": 48,
      "vel": 72,
      "dur": 80
    },
    {
      "t": 602.8,
      "ch": 7,
      "note": 36,
      "vel": 74,
      "dur": 80
    },
    {
      "t": 603,
      "ch": 7,
      "note": 45,
      "vel": 59,
      "dur": 80
    },
    {
      "t": 603.4,
      "ch": 2,
      "note": 58,
      "vel": 0,
      "dur": 0
    },
    {
      "t": 603.4,
      "ch": 2,
      "note": 70,
      "vel": 0,
      "dur": 0
    },
    {
      "t": 603.4,
      "ch": 2,
      "note": 56,
      "vel": 53,
      "dur": 20930
    },
    {
      "t": 603.5,
      "ch": 7,
      "note": 48,
      "vel": 75,
      "dur": 80
    },
    {
      "t": 603.5,
      "ch": 7,
      "note": 36,
      "vel": 69,
      "dur": 80
    },
    {
      "t": 603.9,
      "ch": 7,
      "note": 45,
      "vel": 52,
      "dur": 80
    },
    {
      "t": 603.9,
      "ch": 7,
      "note": 36,
      "vel": 65,
      "dur": 80
    },
    {
      "t": 604.2,
      "ch": 7,
      "note": 48,
      "vel": 64,
      "dur": 80
    },
    {
      "t": 604.2,
      "ch": 7,
      "note": 36,
      "vel": 79,
      "dur": 80
    },
    {
      "t": 604.9,
      "ch": 0,
      "note": 36,
      "vel": 110,
      "dur": 55
    },
    {
      "t": 604.9,
      "ch": 7,
      "note": 48,
      "vel": 64,
      "dur": 80
    },
    {
      "t": 604.9,
      "ch": 7,
      "note": 45,
      "vel": 64,
      "dur": 80
    },
    {
      "t": 604.9,
      "ch": 7,
      "note": 36,
      "vel": 72,
      "dur": 80
    },
    {
      "t": 605.1,
      "ch": 5,
      "note": 59,
      "vel": 15,
      "dur": 988
    },
    {
      "t": 605.3,
      "ch": 7,
      "note": 36,
      "vel": 58,
      "dur": 80
    },
    {
      "t": 605.5,
      "ch": 5,
      "note": 58,
      "vel": 12,
      "dur": 986
    },
    {
      "t": 605.6,
      "ch": 7,
      "note": 48,
      "vel": 63,
      "dur": 80
    },
    {
      "t": 605.6,
      "ch": 7,
      "note": 36,
      "vel": 73,
      "dur": 80
    },
    {
      "t": 605.8,
      "ch": 7,
      "note": 45,
      "vel": 57,
      "dur": 80
    },
    {
      "t": 605.8,
      "ch": 7,
      "note": 38,
      "vel": 65,
      "dur": 80
    },
    {
      "t": 606,
      "ch": 0,
      "note": 36,
      "vel": 82,
      "dur": 55
    },
    {
      "t": 606,
      "ch": 5,
      "note": 68,
      "vel": 18,
      "dur": 982
    },
    {
      "t": 606.2,
      "ch": 4,
      "note": 63,
      "vel": 38,
      "dur": 5531
    },
    {
      "t": 606.2,
      "ch": 4,
      "note": 65,
      "vel": 36,
      "dur": 5531
    },
    {
      "t": 606.2,
      "ch": 3,
      "note": 46,
      "vel": 39,
      "dur": 5581
    },
    {
      "t": 606.3,
      "ch": 7,
      "note": 48,
      "vel": 69,
      "dur": 80
    },
    {
      "t": 606.3,
      "ch": 7,
      "note": 36,
      "vel": 74,
      "dur": 80
    },
    {
      "t": 606.7,
      "ch": 7,
      "note": 45,
      "vel": 60,
      "dur": 80
    },
    {
      "t": 606.7,
      "ch": 7,
      "note": 36,
      "vel": 73,
      "dur": 80
    },
    {
      "t": 606.7,
      "ch": 7,
      "note": 38,
      "vel": 54,
      "dur": 80
    },
    {
      "t": 607,
      "ch": 7,
      "note": 48,
      "vel": 73,
      "dur": 80
    },
    {
      "t": 607,
      "ch": 7,
      "note": 36,
      "vel": 71,
      "dur": 80
    },
    {
      "t": 607.4,
      "ch": 0,
      "note": 36,
      "vel": 79,
      "dur": 55
    },
    {
      "t": 607.7,
      "ch": 0,
      "note": 36,
      "vel": 115,
      "dur": 55
    },
    {
      "t": 607.7,
      "ch": 1,
      "note": 42,
      "vel": 83,
      "dur": 25
    },
    {
      "t": 607.7,
      "ch": 1,
      "note": 36,
      "vel": 83,
      "dur": 25
    },
    {
      "t": 607.7,
      "ch": 1,
      "note": 38,
      "vel": 60,
      "dur": 25
    },
    {
      "t": 607.7,
      "ch": 1,
      "note": 40,
      "vel": 91,
      "dur": 25
    },
    {
      "t": 607.7,
      "ch": 1,
      "note": 42,
      "vel": 74,
      "dur": 25
    },
    {
      "t": 607.7,
      "ch": 1,
      "note": 36,
      "vel": 86,
      "dur": 25
    },
    {
      "t": 607.7,
      "ch": 1,
      "note": 38,
      "vel": 76,
      "dur": 25
    },
    {
      "t": 607.7,
      "ch": 1,
      "note": 40,
      "vel": 89,
      "dur": 25
    },
    {
      "t": 607.7,
      "ch": 1,
      "note": 42,
      "vel": 68,
      "dur": 25
    },
    {
      "t": 607.7,
      "ch": 1,
      "note": 36,
      "vel": 69,
      "dur": 25
    },
    {
      "t": 607.7,
      "ch": 1,
      "note": 38,
      "vel": 58,
      "dur": 25
    },
    {
      "t": 607.7,
      "ch": 1,
      "note": 40,
      "vel": 67,
      "dur": 25
    },
    {
      "t": 607.7,
      "ch": 1,
      "note": 42,
      "vel": 69,
      "dur": 25
    },
    {
      "t": 607.7,
      "ch": 1,
      "note": 36,
      "vel": 96,
      "dur": 25
    },
    {
      "t": 607.7,
      "ch": 1,
      "note": 38,
      "vel": 103,
      "dur": 25
    },
    {
      "t": 607.7,
      "ch": 1,
      "note": 40,
      "vel": 73,
      "dur": 25
    },
    {
      "t": 607.7,
      "ch": 1,
      "note": 42,
      "vel": 84,
      "dur": 25
    },
    {
      "t": 607.7,
      "ch": 1,
      "note": 36,
      "vel": 92,
      "dur": 25
    },
    {
      "t": 607.7,
      "ch": 1,
      "note": 38,
      "vel": 89,
      "dur": 25
    },
    {
      "t": 607.7,
      "ch": 1,
      "note": 40,
      "vel": 78,
      "dur": 25
    },
    {
      "t": 607.7,
      "ch": 1,
      "note": 42,
      "vel": 77,
      "dur": 25
    },
    {
      "t": 607.7,
      "ch": 1,
      "note": 36,
      "vel": 74,
      "dur": 25
    },
    {
      "t": 607.7,
      "ch": 1,
      "note": 38,
      "vel": 98,
      "dur": 25
    },
    {
      "t": 607.7,
      "ch": 1,
      "note": 40,
      "vel": 64,
      "dur": 25
    },
    {
      "t": 607.7,
      "ch": 1,
      "note": 42,
      "vel": 80,
      "dur": 25
    },
    {
      "t": 607.7,
      "ch": 1,
      "note": 36,
      "vel": 103,
      "dur": 25
    },
    {
      "t": 607.7,
      "ch": 1,
      "note": 38,
      "vel": 88,
      "dur": 25
    },
    {
      "t": 607.7,
      "ch": 1,
      "note": 40,
      "vel": 90,
      "dur": 25
    },
    {
      "t": 607.7,
      "ch": 1,
      "note": 42,
      "vel": 74,
      "dur": 25
    },
    {
      "t": 607.7,
      "ch": 1,
      "note": 36,
      "vel": 87,
      "dur": 25
    },
    {
      "t": 607.7,
      "ch": 1,
      "note": 38,
      "vel": 71,
      "dur": 25
    },
    {
      "t": 607.7,
      "ch": 1,
      "note": 40,
      "vel": 88,
      "dur": 25
    },
    {
      "t": 607.7,
      "ch": 1,
      "note": 42,
      "vel": 84,
      "dur": 25
    },
    {
      "t": 607.7,
      "ch": 1,
      "note": 36,
      "vel": 95,
      "dur": 25
    },
    {
      "t": 607.7,
      "ch": 1,
      "note": 38,
      "vel": 103,
      "dur": 25
    },
    {
      "t": 607.7,
      "ch": 1,
      "note": 40,
      "vel": 95,
      "dur": 25
    },
    {
      "t": 607.7,
      "ch": 1,
      "note": 42,
      "vel": 71,
      "dur": 25
    },
    {
      "t": 607.7,
      "ch": 1,
      "note": 36,
      "vel": 108,
      "dur": 25
    },
    {
      "t": 607.7,
      "ch": 1,
      "note": 38,
      "vel": 82,
      "dur": 25
    },
    {
      "t": 607.7,
      "ch": 1,
      "note": 40,
      "vel": 70,
      "dur": 25
    },
    {
      "t": 607.7,
      "ch": 1,
      "note": 42,
      "vel": 87,
      "dur": 25
    },
    {
      "t": 607.7,
      "ch": 1,
      "note": 36,
      "vel": 79,
      "dur": 25
    },
    {
      "t": 607.7,
      "ch": 1,
      "note": 38,
      "vel": 94,
      "dur": 25
    },
    {
      "t": 607.7,
      "ch": 1,
      "note": 40,
      "vel": 75,
      "dur": 25
    },
    {
      "t": 607.7,
      "ch": 1,
      "note": 42,
      "vel": 92,
      "dur": 25
    },
    {
      "t": 607.7,
      "ch": 1,
      "note": 36,
      "vel": 85,
      "dur": 25
    },
    {
      "t": 607.7,
      "ch": 1,
      "note": 38,
      "vel": 92,
      "dur": 25
    },
    {
      "t": 607.7,
      "ch": 1,
      "note": 40,
      "vel": 99,
      "dur": 25
    },
    {
      "t": 607.7,
      "ch": 1,
      "note": 42,
      "vel": 82,
      "dur": 25
    },
    {
      "t": 607.7,
      "ch": 1,
      "note": 36,
      "vel": 71,
      "dur": 25
    },
    {
      "t": 607.7,
      "ch": 1,
      "note": 38,
      "vel": 63,
      "dur": 25
    },
    {
      "t": 607.7,
      "ch": 1,
      "note": 40,
      "vel": 82,
      "dur": 25
    },
    {
      "t": 607.7,
      "ch": 1,
      "note": 42,
      "vel": 91,
      "dur": 25
    },
    {
      "t": 607.7,
      "ch": 1,
      "note": 36,
      "vel": 59,
      "dur": 25
    },
    {
      "t": 607.7,
      "ch": 1,
      "note": 38,
      "vel": 94,
      "dur": 25
    },
    {
      "t": 607.7,
      "ch": 1,
      "note": 40,
      "vel": 90,
      "dur": 25
    },
    {
      "t": 607.7,
      "ch": 1,
      "note": 42,
      "vel": 85,
      "dur": 25
    },
    {
      "t": 607.7,
      "ch": 1,
      "note": 36,
      "vel": 70,
      "dur": 25
    },
    {
      "t": 607.7,
      "ch": 1,
      "note": 38,
      "vel": 79,
      "dur": 25
    },
    {
      "t": 607.7,
      "ch": 1,
      "note": 40,
      "vel": 86,
      "dur": 25
    },
    {
      "t": 607.7,
      "ch": 1,
      "note": 42,
      "vel": 90,
      "dur": 25
    },
    {
      "t": 607.7,
      "ch": 1,
      "note": 36,
      "vel": 80,
      "dur": 25
    },
    {
      "t": 607.7,
      "ch": 1,
      "note": 38,
      "vel": 75,
      "dur": 25
    },
    {
      "t": 607.7,
      "ch": 1,
      "note": 40,
      "vel": 82,
      "dur": 25
    },
    {
      "t": 607.7,
      "ch": 1,
      "note": 42,
      "vel": 88,
      "dur": 25
    },
    {
      "t": 607.7,
      "ch": 1,
      "note": 36,
      "vel": 79,
      "dur": 25
    },
    {
      "t": 607.7,
      "ch": 1,
      "note": 38,
      "vel": 105,
      "dur": 25
    },
    {
      "t": 607.7,
      "ch": 1,
      "note": 40,
      "vel": 59,
      "dur": 25
    },
    {
      "t": 607.7,
      "ch": 1,
      "note": 42,
      "vel": 78,
      "dur": 25
    },
    {
      "t": 607.7,
      "ch": 1,
      "note": 36,
      "vel": 98,
      "dur": 25
    },
    {
      "t": 607.7,
      "ch": 1,
      "note": 38,
      "vel": 78,
      "dur": 25
    },
    {
      "t": 607.7,
      "ch": 1,
      "note": 40,
      "vel": 78,
      "dur": 25
    },
    {
      "t": 607.7,
      "ch": 1,
      "note": 42,
      "vel": 89,
      "dur": 25
    },
    {
      "t": 607.7,
      "ch": 1,
      "note": 36,
      "vel": 94,
      "dur": 25
    },
    {
      "t": 607.7,
      "ch": 1,
      "note": 38,
      "vel": 73,
      "dur": 25
    },
    {
      "t": 607.7,
      "ch": 1,
      "note": 40,
      "vel": 83,
      "dur": 25
    },
    {
      "t": 607.7,
      "ch": 1,
      "note": 42,
      "vel": 102,
      "dur": 25
    },
    {
      "t": 607.7,
      "ch": 1,
      "note": 36,
      "vel": 99,
      "dur": 25
    },
    {
      "t": 607.7,
      "ch": 1,
      "note": 38,
      "vel": 91,
      "dur": 25
    },
    {
      "t": 607.7,
      "ch": 1,
      "note": 40,
      "vel": 90,
      "dur": 25
    },
    {
      "t": 607.7,
      "ch": 1,
      "note": 42,
      "vel": 94,
      "dur": 25
    },
    {
      "t": 607.7,
      "ch": 1,
      "note": 36,
      "vel": 89,
      "dur": 25
    },
    {
      "t": 607.7,
      "ch": 1,
      "note": 38,
      "vel": 80,
      "dur": 25
    },
    {
      "t": 607.7,
      "ch": 1,
      "note": 40,
      "vel": 80,
      "dur": 25
    },
    {
      "t": 607.7,
      "ch": 1,
      "note": 42,
      "vel": 89,
      "dur": 25
    },
    {
      "t": 607.7,
      "ch": 1,
      "note": 36,
      "vel": 81,
      "dur": 25
    },
    {
      "t": 607.7,
      "ch": 1,
      "note": 38,
      "vel": 82,
      "dur": 25
    },
    {
      "t": 607.7,
      "ch": 1,
      "note": 40,
      "vel": 77,
      "dur": 25
    },
    {
      "t": 607.7,
      "ch": 1,
      "note": 42,
      "vel": 89,
      "dur": 25
    },
    {
      "t": 607.7,
      "ch": 1,
      "note": 36,
      "vel": 60,
      "dur": 25
    },
    {
      "t": 607.7,
      "ch": 1,
      "note": 38,
      "vel": 76,
      "dur": 25
    },
    {
      "t": 607.7,
      "ch": 1,
      "note": 40,
      "vel": 102,
      "dur": 25
    },
    {
      "t": 607.7,
      "ch": 1,
      "note": 42,
      "vel": 97,
      "dur": 25
    },
    {
      "t": 607.7,
      "ch": 1,
      "note": 36,
      "vel": 88,
      "dur": 25
    },
    {
      "t": 607.7,
      "ch": 1,
      "note": 38,
      "vel": 88,
      "dur": 25
    },
    {
      "t": 607.7,
      "ch": 1,
      "note": 40,
      "vel": 81,
      "dur": 25
    },
    {
      "t": 607.7,
      "ch": 1,
      "note": 42,
      "vel": 89,
      "dur": 25
    },
    {
      "t": 607.7,
      "ch": 1,
      "note": 36,
      "vel": 64,
      "dur": 25
    },
    {
      "t": 607.7,
      "ch": 1,
      "note": 38,
      "vel": 75,
      "dur": 25
    },
    {
      "t": 607.7,
      "ch": 1,
      "note": 40,
      "vel": 88,
      "dur": 25
    },
    {
      "t": 607.7,
      "ch": 1,
      "note": 42,
      "vel": 86,
      "dur": 25
    },
    {
      "t": 607.7,
      "ch": 1,
      "note": 36,
      "vel": 92,
      "dur": 25
    },
    {
      "t": 607.7,
      "ch": 1,
      "note": 38,
      "vel": 84,
      "dur": 25
    },
    {
      "t": 607.7,
      "ch": 1,
      "note": 40,
      "vel": 84,
      "dur": 25
    },
    {
      "t": 607.7,
      "ch": 1,
      "note": 42,
      "vel": 100,
      "dur": 25
    },
    {
      "t": 607.7,
      "ch": 1,
      "note": 36,
      "vel": 88,
      "dur": 25
    },
    {
      "t": 607.7,
      "ch": 1,
      "note": 38,
      "vel": 80,
      "dur": 25
    },
    {
      "t": 607.7,
      "ch": 1,
      "note": 40,
      "vel": 82,
      "dur": 25
    },
    {
      "t": 607.7,
      "ch": 1,
      "note": 42,
      "vel": 82,
      "dur": 25
    },
    {
      "t": 607.7,
      "ch": 1,
      "note": 36,
      "vel": 95,
      "dur": 25
    },
    {
      "t": 607.7,
      "ch": 1,
      "note": 38,
      "vel": 96,
      "dur": 25
    },
    {
      "t": 607.7,
      "ch": 1,
      "note": 40,
      "vel": 98,
      "dur": 25
    },
    {
      "t": 607.7,
      "ch": 1,
      "note": 42,
      "vel": 70,
      "dur": 25
    },
    {
      "t": 607.7,
      "ch": 1,
      "note": 36,
      "vel": 79,
      "dur": 25
    },
    {
      "t": 607.7,
      "ch": 1,
      "note": 38,
      "vel": 71,
      "dur": 25
    },
    {
      "t": 607.7,
      "ch": 1,
      "note": 40,
      "vel": 71,
      "dur": 25
    },
    {
      "t": 607.7,
      "ch": 1,
      "note": 42,
      "vel": 85,
      "dur": 25
    },
    {
      "t": 607.7,
      "ch": 1,
      "note": 36,
      "vel": 98,
      "dur": 25
    },
    {
      "t": 607.7,
      "ch": 1,
      "note": 38,
      "vel": 92,
      "dur": 25
    },
    {
      "t": 607.7,
      "ch": 1,
      "note": 40,
      "vel": 99,
      "dur": 25
    },
    {
      "t": 607.7,
      "ch": 1,
      "note": 42,
      "vel": 97,
      "dur": 25
    },
    {
      "t": 607.7,
      "ch": 1,
      "note": 36,
      "vel": 86,
      "dur": 25
    },
    {
      "t": 607.7,
      "ch": 1,
      "note": 38,
      "vel": 65,
      "dur": 25
    },
    {
      "t": 607.7,
      "ch": 1,
      "note": 40,
      "vel": 87,
      "dur": 25
    },
    {
      "t": 607.7,
      "ch": 1,
      "note": 42,
      "vel": 70,
      "dur": 25
    },
    {
      "t": 607.7,
      "ch": 1,
      "note": 36,
      "vel": 91,
      "dur": 25
    },
    {
      "t": 607.7,
      "ch": 1,
      "note": 38,
      "vel": 71,
      "dur": 25
    },
    {
      "t": 607.7,
      "ch": 1,
      "note": 40,
      "vel": 105,
      "dur": 25
    },
    {
      "t": 607.7,
      "ch": 1,
      "note": 42,
      "vel": 92,
      "dur": 25
    },
    {
      "t": 607.7,
      "ch": 1,
      "note": 36,
      "vel": 62,
      "dur": 25
    },
    {
      "t": 607.7,
      "ch": 1,
      "note": 38,
      "vel": 82,
      "dur": 25
    },
    {
      "t": 607.7,
      "ch": 1,
      "note": 40,
      "vel": 99,
      "dur": 25
    },
    {
      "t": 607.7,
      "ch": 1,
      "note": 42,
      "vel": 67,
      "dur": 25
    },
    {
      "t": 607.7,
      "ch": 1,
      "note": 36,
      "vel": 74,
      "dur": 25
    },
    {
      "t": 607.7,
      "ch": 1,
      "note": 38,
      "vel": 89,
      "dur": 25
    },
    {
      "t": 607.7,
      "ch": 1,
      "note": 40,
      "vel": 73,
      "dur": 25
    },
    {
      "t": 607.7,
      "ch": 1,
      "note": 42,
      "vel": 72,
      "dur": 25
    },
    {
      "t": 607.7,
      "ch": 1,
      "note": 36,
      "vel": 73,
      "dur": 25
    },
    {
      "t": 607.7,
      "ch": 1,
      "note": 38,
      "vel": 84,
      "dur": 25
    },
    {
      "t": 607.7,
      "ch": 1,
      "note": 40,
      "vel": 70,
      "dur": 25
    },
    {
      "t": 607.7,
      "ch": 1,
      "note": 42,
      "vel": 89,
      "dur": 25
    },
    {
      "t": 607.7,
      "ch": 1,
      "note": 36,
      "vel": 80,
      "dur": 25
    },
    {
      "t": 607.7,
      "ch": 1,
      "note": 38,
      "vel": 66,
      "dur": 25
    },
    {
      "t": 607.7,
      "ch": 1,
      "note": 40,
      "vel": 70,
      "dur": 25
    },
    {
      "t": 607.7,
      "ch": 1,
      "note": 42,
      "vel": 86,
      "dur": 25
    },
    {
      "t": 607.7,
      "ch": 1,
      "note": 36,
      "vel": 68,
      "dur": 25
    },
    {
      "t": 607.7,
      "ch": 1,
      "note": 38,
      "vel": 69,
      "dur": 25
    },
    {
      "t": 607.7,
      "ch": 1,
      "note": 40,
      "vel": 71,
      "dur": 25
    },
    {
      "t": 607.7,
      "ch": 1,
      "note": 42,
      "vel": 86,
      "dur": 25
    },
    {
      "t": 607.7,
      "ch": 1,
      "note": 36,
      "vel": 71,
      "dur": 25
    },
    {
      "t": 607.7,
      "ch": 1,
      "note": 38,
      "vel": 82,
      "dur": 25
    },
    {
      "t": 607.7,
      "ch": 1,
      "note": 40,
      "vel": 98,
      "dur": 25
    },
    {
      "t": 607.7,
      "ch": 1,
      "note": 42,
      "vel": 105,
      "dur": 25
    },
    {
      "t": 607.7,
      "ch": 1,
      "note": 36,
      "vel": 94,
      "dur": 25
    },
    {
      "t": 607.7,
      "ch": 1,
      "note": 38,
      "vel": 103,
      "dur": 25
    },
    {
      "t": 607.7,
      "ch": 1,
      "note": 40,
      "vel": 81,
      "dur": 25
    },
    {
      "t": 607.7,
      "ch": 1,
      "note": 42,
      "vel": 82,
      "dur": 25
    },
    {
      "t": 607.7,
      "ch": 1,
      "note": 36,
      "vel": 87,
      "dur": 25
    },
    {
      "t": 607.7,
      "ch": 1,
      "note": 38,
      "vel": 107,
      "dur": 25
    },
    {
      "t": 607.7,
      "ch": 1,
      "note": 40,
      "vel": 74,
      "dur": 25
    },
    {
      "t": 607.7,
      "ch": 1,
      "note": 42,
      "vel": 74,
      "dur": 25
    },
    {
      "t": 607.7,
      "ch": 1,
      "note": 36,
      "vel": 81,
      "dur": 25
    },
    {
      "t": 607.7,
      "ch": 1,
      "note": 38,
      "vel": 94,
      "dur": 25
    },
    {
      "t": 607.7,
      "ch": 1,
      "note": 40,
      "vel": 95,
      "dur": 25
    },
    {
      "t": 607.7,
      "ch": 1,
      "note": 42,
      "vel": 99,
      "dur": 25
    },
    {
      "t": 607.7,
      "ch": 1,
      "note": 36,
      "vel": 85,
      "dur": 25
    },
    {
      "t": 607.7,
      "ch": 1,
      "note": 38,
      "vel": 82,
      "dur": 25
    },
    {
      "t": 607.7,
      "ch": 1,
      "note": 40,
      "vel": 113,
      "dur": 25
    },
    {
      "t": 607.7,
      "ch": 1,
      "note": 42,
      "vel": 70,
      "dur": 25
    },
    {
      "t": 607.7,
      "ch": 1,
      "note": 36,
      "vel": 103,
      "dur": 25
    },
    {
      "t": 607.7,
      "ch": 1,
      "note": 38,
      "vel": 83,
      "dur": 25
    },
    {
      "t": 607.7,
      "ch": 1,
      "note": 40,
      "vel": 91,
      "dur": 25
    },
    {
      "t": 607.7,
      "ch": 1,
      "note": 42,
      "vel": 57,
      "dur": 25
    },
    {
      "t": 607.7,
      "ch": 1,
      "note": 36,
      "vel": 92,
      "dur": 25
    },
    {
      "t": 607.7,
      "ch": 1,
      "note": 38,
      "vel": 73,
      "dur": 25
    },
    {
      "t": 607.7,
      "ch": 1,
      "note": 40,
      "vel": 90,
      "dur": 25
    },
    {
      "t": 607.7,
      "ch": 1,
      "note": 42,
      "vel": 54,
      "dur": 25
    },
    {
      "t": 607.7,
      "ch": 1,
      "note": 36,
      "vel": 80,
      "dur": 25
    },
    {
      "t": 607.7,
      "ch": 1,
      "note": 38,
      "vel": 81,
      "dur": 25
    },
    {
      "t": 607.7,
      "ch": 1,
      "note": 40,
      "vel": 69,
      "dur": 25
    },
    {
      "t": 607.7,
      "ch": 1,
      "note": 42,
      "vel": 75,
      "dur": 25
    },
    {
      "t": 607.7,
      "ch": 1,
      "note": 36,
      "vel": 95,
      "dur": 25
    },
    {
      "t": 607.7,
      "ch": 1,
      "note": 38,
      "vel": 93,
      "dur": 25
    },
    {
      "t": 607.7,
      "ch": 1,
      "note": 40,
      "vel": 103,
      "dur": 25
    },
    {
      "t": 607.7,
      "ch": 1,
      "note": 42,
      "vel": 69,
      "dur": 25
    },
    {
      "t": 607.7,
      "ch": 1,
      "note": 36,
      "vel": 85,
      "dur": 25
    },
    {
      "t": 607.7,
      "ch": 1,
      "note": 38,
      "vel": 96,
      "dur": 25
    },
    {
      "t": 607.7,
      "ch": 1,
      "note": 40,
      "vel": 107,
      "dur": 25
    },
    {
      "t": 607.7,
      "ch": 1,
      "note": 42,
      "vel": 83,
      "dur": 25
    },
    {
      "t": 607.7,
      "ch": 1,
      "note": 36,
      "vel": 113,
      "dur": 25
    },
    {
      "t": 607.7,
      "ch": 1,
      "note": 38,
      "vel": 76,
      "dur": 25
    },
    {
      "t": 607.7,
      "ch": 1,
      "note": 40,
      "vel": 95,
      "dur": 25
    },
    {
      "t": 607.7,
      "ch": 1,
      "note": 42,
      "vel": 93,
      "dur": 25
    },
    {
      "t": 607.7,
      "ch": 7,
      "note": 48,
      "vel": 71,
      "dur": 80
    },
    {
      "t": 607.7,
      "ch": 7,
      "note": 45,
      "vel": 81,
      "dur": 80
    },
    {
      "t": 607.7,
      "ch": 7,
      "note": 36,
      "vel": 72,
      "dur": 80
    },
    {
      "t": 607.7,
      "ch": 7,
      "note": 38,
      "vel": 65,
      "dur": 80
    },
    {
      "t": 607.9,
      "ch": 1,
      "note": 36,
      "vel": 100,
      "dur": 25
    },
    {
      "t": 607.9,
      "ch": 1,
      "note": 38,
      "vel": 62,
      "dur": 25
    },
    {
      "t": 608,
      "ch": 1,
      "note": 40,
      "vel": 84,
      "dur": 25
    },
    {
      "t": 608.1,
      "ch": 1,
      "note": 42,
      "vel": 81,
      "dur": 25
    },
    {
      "t": 608.1,
      "ch": 7,
      "note": 36,
      "vel": 57,
      "dur": 80
    },
    {
      "t": 608.1,
      "ch": 5,
      "note": 75,
      "vel": 9,
      "dur": 970
    },
    {
      "t": 608.1,
      "ch": 6,
      "note": 61,
      "vel": 8,
      "dur": 647
    },
    {
      "t": 608.2,
      "ch": 1,
      "note": 36,
      "vel": 83,
      "dur": 25
    },
    {
      "t": 608.2,
      "ch": 1,
      "note": 38,
      "vel": 72,
      "dur": 25
    },
    {
      "t": 608.4,
      "ch": 1,
      "note": 40,
      "vel": 81,
      "dur": 25
    },
    {
      "t": 608.4,
      "ch": 1,
      "note": 42,
      "vel": 70,
      "dur": 25
    },
    {
      "t": 608.4,
      "ch": 7,
      "note": 48,
      "vel": 60,
      "dur": 80
    },
    {
      "t": 608.4,
      "ch": 7,
      "note": 36,
      "vel": 73,
      "dur": 80
    },
    {
      "t": 608.6,
      "ch": 1,
      "note": 36,
      "vel": 89,
      "dur": 25
    },
    {
      "t": 608.6,
      "ch": 1,
      "note": 38,
      "vel": 85,
      "dur": 25
    },
    {
      "t": 608.6,
      "ch": 7,
      "note": 45,
      "vel": 65,
      "dur": 80
    },
    {
      "t": 608.6,
      "ch": 7,
      "note": 38,
      "vel": 58,
      "dur": 80
    },
    {
      "t": 608.7,
      "ch": 1,
      "note": 40,
      "vel": 79,
      "dur": 25
    },
    {
      "t": 608.7,
      "ch": 1,
      "note": 42,
      "vel": 72,
      "dur": 25
    },
    {
      "t": 608.8,
      "ch": 0,
      "note": 36,
      "vel": 78,
      "dur": 55
    },
    {
      "t": 608.9,
      "ch": 1,
      "note": 36,
      "vel": 70,
      "dur": 25
    },
    {
      "t": 608.9,
      "ch": 1,
      "note": 38,
      "vel": 96,
      "dur": 25
    },
    {
      "t": 609.1,
      "ch": 1,
      "note": 40,
      "vel": 73,
      "dur": 25
    },
    {
      "t": 609.1,
      "ch": 1,
      "note": 42,
      "vel": 92,
      "dur": 25
    },
    {
      "t": 609.1,
      "ch": 7,
      "note": 48,
      "vel": 77,
      "dur": 80
    },
    {
      "t": 609.1,
      "ch": 7,
      "note": 36,
      "vel": 73,
      "dur": 80
    },
    {
      "t": 609.3,
      "ch": 1,
      "note": 36,
      "vel": 88,
      "dur": 25
    },
    {
      "t": 609.3,
      "ch": 1,
      "note": 38,
      "vel": 90,
      "dur": 25
    },
    {
      "t": 609.4,
      "ch": 1,
      "note": 40,
      "vel": 69,
      "dur": 25
    },
    {
      "t": 609.4,
      "ch": 1,
      "note": 42,
      "vel": 77,
      "dur": 25
    },
    {
      "t": 609.5,
      "ch": 7,
      "note": 45,
      "vel": 55,
      "dur": 80
    },
    {
      "t": 609.5,
      "ch": 7,
      "note": 36,
      "vel": 66,
      "dur": 80
    },
    {
      "t": 609.5,
      "ch": 7,
      "note": 38,
      "vel": 76,
      "dur": 80
    },
    {
      "t": 609.6,
      "ch": 1,
      "note": 36,
      "vel": 71,
      "dur": 25
    },
    {
      "t": 609.6,
      "ch": 1,
      "note": 38,
      "vel": 72,
      "dur": 25
    },
    {
      "t": 609.8,
      "ch": 1,
      "note": 40,
      "vel": 83,
      "dur": 25
    },
    {
      "t": 609.8,
      "ch": 1,
      "note": 42,
      "vel": 75,
      "dur": 25
    },
    {
      "t": 609.8,
      "ch": 7,
      "note": 48,
      "vel": 71,
      "dur": 80
    },
    {
      "t": 609.8,
      "ch": 7,
      "note": 36,
      "vel": 71,
      "dur": 80
    },
    {
      "t": 610,
      "ch": 1,
      "note": 36,
      "vel": 97,
      "dur": 25
    },
    {
      "t": 610,
      "ch": 1,
      "note": 38,
      "vel": 72,
      "dur": 25
    },
    {
      "t": 610.1,
      "ch": 1,
      "note": 40,
      "vel": 69,
      "dur": 25
    },
    {
      "t": 610.1,
      "ch": 1,
      "note": 42,
      "vel": 70,
      "dur": 25
    },
    {
      "t": 610.2,
      "ch": 0,
      "note": 36,
      "vel": 75,
      "dur": 55
    },
    {
      "t": 610.3,
      "ch": 1,
      "note": 36,
      "vel": 79,
      "dur": 25
    },
    {
      "t": 610.3,
      "ch": 1,
      "note": 38,
      "vel": 93,
      "dur": 25
    },
    {
      "t": 610.5,
      "ch": 1,
      "note": 40,
      "vel": 61,
      "dur": 25
    },
    {
      "t": 610.5,
      "ch": 0,
      "note": 36,
      "vel": 109,
      "dur": 55
    },
    {
      "t": 610.5,
      "ch": 1,
      "note": 42,
      "vel": 98,
      "dur": 25
    },
    {
      "t": 610.5,
      "ch": 7,
      "note": 48,
      "vel": 72,
      "dur": 80
    },
    {
      "t": 610.5,
      "ch": 7,
      "note": 45,
      "vel": 81,
      "dur": 80
    },
    {
      "t": 610.5,
      "ch": 7,
      "note": 36,
      "vel": 50,
      "dur": 80
    },
    {
      "t": 610.5,
      "ch": 7,
      "note": 38,
      "vel": 69,
      "dur": 80
    },
    {
      "t": 610.6,
      "ch": 1,
      "note": 36,
      "vel": 54,
      "dur": 25
    },
    {
      "t": 610.7,
      "ch": 1,
      "note": 38,
      "vel": 68,
      "dur": 25
    },
    {
      "t": 610.8,
      "ch": 1,
      "note": 40,
      "vel": 87,
      "dur": 25
    },
    {
      "t": 610.8,
      "ch": 1,
      "note": 42,
      "vel": 83,
      "dur": 25
    },
    {
      "t": 610.9,
      "ch": 7,
      "note": 36,
      "vel": 61,
      "dur": 80
    },
    {
      "t": 611,
      "ch": 1,
      "note": 36,
      "vel": 71,
      "dur": 25
    },
    {
      "t": 611,
      "ch": 1,
      "note": 38,
      "vel": 88,
      "dur": 25
    },
    {
      "t": 611.2,
      "ch": 1,
      "note": 40,
      "vel": 80,
      "dur": 25
    },
    {
      "t": 611.2,
      "ch": 1,
      "note": 42,
      "vel": 85,
      "dur": 25
    },
    {
      "t": 611.2,
      "ch": 7,
      "note": 48,
      "vel": 69,
      "dur": 80
    },
    {
      "t": 611.2,
      "ch": 7,
      "note": 36,
      "vel": 76,
      "dur": 80
    },
    {
      "t": 611.4,
      "ch": 1,
      "note": 36,
      "vel": 95,
      "dur": 25
    },
    {
      "t": 611.4,
      "ch": 1,
      "note": 38,
      "vel": 77,
      "dur": 25
    },
    {
      "t": 611.4,
      "ch": 7,
      "note": 45,
      "vel": 60,
      "dur": 80
    },
    {
      "t": 611.4,
      "ch": 7,
      "note": 38,
      "vel": 58,
      "dur": 80
    },
    {
      "t": 611.5,
      "ch": 1,
      "note": 40,
      "vel": 100,
      "dur": 25
    },
    {
      "t": 611.5,
      "ch": 1,
      "note": 42,
      "vel": 93,
      "dur": 25
    },
    {
      "t": 611.6,
      "ch": 0,
      "note": 36,
      "vel": 89,
      "dur": 55
    },
    {
      "t": 611.7,
      "ch": 1,
      "note": 36,
      "vel": 58,
      "dur": 25
    },
    {
      "t": 611.7,
      "ch": 1,
      "note": 38,
      "vel": 60,
      "dur": 25
    },
    {
      "t": 611.9,
      "ch": 1,
      "note": 40,
      "vel": 56,
      "dur": 25
    },
    {
      "t": 611.9,
      "ch": 1,
      "note": 42,
      "vel": 75,
      "dur": 25
    },
    {
      "t": 611.9,
      "ch": 7,
      "note": 48,
      "vel": 81,
      "dur": 80
    },
    {
      "t": 611.9,
      "ch": 7,
      "note": 36,
      "vel": 64,
      "dur": 80
    },
    {
      "t": 612,
      "ch": 1,
      "note": 36,
      "vel": 80,
      "dur": 25
    },
    {
      "t": 612.1,
      "ch": 1,
      "note": 38,
      "vel": 73,
      "dur": 25
    },
    {
      "t": 612.2,
      "ch": 1,
      "note": 40,
      "vel": 89,
      "dur": 25
    },
    {
      "t": 612.2,
      "ch": 1,
      "note": 42,
      "vel": 98,
      "dur": 25
    },
    {
      "t": 612.3,
      "ch": 7,
      "note": 45,
      "vel": 62,
      "dur": 80
    },
    {
      "t": 612.3,
      "ch": 7,
      "note": 36,
      "vel": 75,
      "dur": 80
    },
    {
      "t": 612.3,
      "ch": 7,
      "note": 38,
      "vel": 61,
      "dur": 80
    },
    {
      "t": 612.4,
      "ch": 1,
      "note": 36,
      "vel": 74,
      "dur": 25
    },
    {
      "t": 612.4,
      "ch": 1,
      "note": 38,
      "vel": 60,
      "dur": 25
    },
    {
      "t": 612.6,
      "ch": 1,
      "note": 40,
      "vel": 56,
      "dur": 25
    },
    {
      "t": 612.6,
      "ch": 1,
      "note": 42,
      "vel": 73,
      "dur": 25
    },
    {
      "t": 612.6,
      "ch": 7,
      "note": 48,
      "vel": 79,
      "dur": 80
    },
    {
      "t": 612.6,
      "ch": 7,
      "note": 36,
      "vel": 65,
      "dur": 80
    },
    {
      "t": 612.6,
      "ch": 5,
      "note": 46,
      "vel": 13,
      "dur": 963
    },
    {
      "t": 612.8,
      "ch": 1,
      "note": 36,
      "vel": 59,
      "dur": 25
    },
    {
      "t": 612.8,
      "ch": 1,
      "note": 38,
      "vel": 69,
      "dur": 25
    },
    {
      "t": 612.9,
      "ch": 1,
      "note": 40,
      "vel": 52,
      "dur": 25
    },
    {
      "t": 612.9,
      "ch": 1,
      "note": 42,
      "vel": 72,
      "dur": 25
    },
    {
      "t": 613,
      "ch": 0,
      "note": 36,
      "vel": 85,
      "dur": 55
    },
    {
      "t": 613.1,
      "ch": 1,
      "note": 36,
      "vel": 64,
      "dur": 25
    },
    {
      "t": 613.1,
      "ch": 1,
      "note": 38,
      "vel": 73,
      "dur": 25
    },
    {
      "t": 613.3,
      "ch": 1,
      "note": 40,
      "vel": 68,
      "dur": 25
    },
    {
      "t": 613.3,
      "ch": 1,
      "note": 42,
      "vel": 92,
      "dur": 25
    },
    {
      "t": 613.3,
      "ch": 7,
      "note": 48,
      "vel": 64,
      "dur": 80
    },
    {
      "t": 613.3,
      "ch": 7,
      "note": 45,
      "vel": 75,
      "dur": 80
    },
    {
      "t": 613.3,
      "ch": 7,
      "note": 36,
      "vel": 74,
      "dur": 80
    },
    {
      "t": 613.3,
      "ch": 7,
      "note": 38,
      "vel": 70,
      "dur": 80
    },
    {
      "t": 613.4,
      "ch": 1,
      "note": 36,
      "vel": 86,
      "dur": 25
    },
    {
      "t": 613.5,
      "ch": 1,
      "note": 38,
      "vel": 62,
      "dur": 25
    },
    {
      "t": 613.6,
      "ch": 1,
      "note": 40,
      "vel": 73,
      "dur": 25
    },
    {
      "t": 613.6,
      "ch": 1,
      "note": 42,
      "vel": 69,
      "dur": 25
    },
    {
      "t": 613.6,
      "ch": 7,
      "note": 36,
      "vel": 65,
      "dur": 80
    },
    {
      "t": 613.8,
      "ch": 1,
      "note": 36,
      "vel": 72,
      "dur": 25
    },
    {
      "t": 613.8,
      "ch": 1,
      "note": 38,
      "vel": 74,
      "dur": 25
    },
    {
      "t": 614,
      "ch": 1,
      "note": 40,
      "vel": 60,
      "dur": 25
    },
    {
      "t": 614,
      "ch": 1,
      "note": 42,
      "vel": 72,
      "dur": 25
    },
    {
      "t": 614,
      "ch": 7,
      "note": 48,
      "vel": 74,
      "dur": 80
    },
    {
      "t": 614,
      "ch": 7,
      "note": 36,
      "vel": 75,
      "dur": 80
    },
    {
      "t": 614.1,
      "ch": 1,
      "note": 36,
      "vel": 79,
      "dur": 25
    },
    {
      "t": 614.2,
      "ch": 1,
      "note": 38,
      "vel": 82,
      "dur": 25
    },
    {
      "t": 614.2,
      "ch": 7,
      "note": 45,
      "vel": 51,
      "dur": 80
    },
    {
      "t": 614.2,
      "ch": 7,
      "note": 38,
      "vel": 60,
      "dur": 80
    },
    {
      "t": 614.3,
      "ch": 1,
      "note": 40,
      "vel": 85,
      "dur": 25
    },
    {
      "t": 614.3,
      "ch": 1,
      "note": 42,
      "vel": 81,
      "dur": 25
    },
    {
      "t": 614.5,
      "ch": 1,
      "note": 36,
      "vel": 82,
      "dur": 25
    },
    {
      "t": 614.5,
      "ch": 1,
      "note": 38,
      "vel": 59,
      "dur": 25
    },
    {
      "t": 614.6,
      "ch": 2,
      "note": 56,
      "vel": 0,
      "dur": 0
    },
    {
      "t": 614.6,
      "ch": 2,
      "note": 58,
      "vel": 54,
      "dur": 20930
    },
    {
      "t": 614.6,
      "ch": 2,
      "note": 70,
      "vel": 38,
      "dur": 20930
    },
    {
      "t": 614.7,
      "ch": 1,
      "note": 40,
      "vel": 94,
      "dur": 25
    },
    {
      "t": 614.7,
      "ch": 1,
      "note": 42,
      "vel": 86,
      "dur": 25
    },
    {
      "t": 614.7,
      "ch": 7,
      "note": 48,
      "vel": 68,
      "dur": 80
    },
    {
      "t": 614.7,
      "ch": 7,
      "note": 36,
      "vel": 65,
      "dur": 80
    },
    {
      "t": 614.8,
      "ch": 1,
      "note": 36,
      "vel": 96,
      "dur": 25
    },
    {
      "t": 614.9,
      "ch": 1,
      "note": 38,
      "vel": 57,
      "dur": 25
    },
    {
      "t": 615,
      "ch": 1,
      "note": 40,
      "vel": 74,
      "dur": 25
    },
    {
      "t": 615,
      "ch": 1,
      "note": 42,
      "vel": 53,
      "dur": 25
    },
    {
      "t": 615,
      "ch": 7,
      "note": 45,
      "vel": 69,
      "dur": 80
    },
    {
      "t": 615,
      "ch": 7,
      "note": 36,
      "vel": 61,
      "dur": 80
    },
    {
      "t": 615,
      "ch": 7,
      "note": 38,
      "vel": 55,
      "dur": 80
    },
    {
      "t": 615.2,
      "ch": 1,
      "note": 36,
      "vel": 56,
      "dur": 25
    },
    {
      "t": 615.2,
      "ch": 1,
      "note": 38,
      "vel": 57,
      "dur": 25
    },
    {
      "t": 615.4,
      "ch": 1,
      "note": 40,
      "vel": 51,
      "dur": 25
    },
    {
      "t": 615.4,
      "ch": 1,
      "note": 42,
      "vel": 100,
      "dur": 25
    },
    {
      "t": 615.4,
      "ch": 7,
      "note": 48,
      "vel": 68,
      "dur": 80
    },
    {
      "t": 615.4,
      "ch": 7,
      "note": 36,
      "vel": 74,
      "dur": 80
    },
    {
      "t": 615.5,
      "ch": 1,
      "note": 36,
      "vel": 82,
      "dur": 25
    },
    {
      "t": 615.6,
      "ch": 1,
      "note": 38,
      "vel": 83,
      "dur": 25
    },
    {
      "t": 615.7,
      "ch": 1,
      "note": 40,
      "vel": 70,
      "dur": 25
    },
    {
      "t": 615.7,
      "ch": 1,
      "note": 42,
      "vel": 61,
      "dur": 25
    },
    {
      "t": 615.9,
      "ch": 1,
      "note": 36,
      "vel": 83,
      "dur": 25
    },
    {
      "t": 615.9,
      "ch": 1,
      "note": 38,
      "vel": 72,
      "dur": 25
    },
    {
      "t": 616.1,
      "ch": 1,
      "note": 40,
      "vel": 90,
      "dur": 25
    },
    {
      "t": 616.1,
      "ch": 0,
      "note": 36,
      "vel": 114,
      "dur": 55
    },
    {
      "t": 616.1,
      "ch": 1,
      "note": 42,
      "vel": 90,
      "dur": 25
    },
    {
      "t": 616.1,
      "ch": 7,
      "note": 48,
      "vel": 78,
      "dur": 80
    },
    {
      "t": 616.1,
      "ch": 7,
      "note": 45,
      "vel": 66,
      "dur": 80
    },
    {
      "t": 616.1,
      "ch": 7,
      "note": 36,
      "vel": 65,
      "dur": 80
    },
    {
      "t": 616.1,
      "ch": 7,
      "note": 38,
      "vel": 77,
      "dur": 80
    },
    {
      "t": 616.2,
      "ch": 1,
      "note": 36,
      "vel": 85,
      "dur": 25
    },
    {
      "t": 616.3,
      "ch": 1,
      "note": 38,
      "vel": 77,
      "dur": 25
    },
    {
      "t": 616.4,
      "ch": 1,
      "note": 40,
      "vel": 88,
      "dur": 25
    },
    {
      "t": 616.4,
      "ch": 1,
      "note": 42,
      "vel": 62,
      "dur": 25
    },
    {
      "t": 616.4,
      "ch": 7,
      "note": 36,
      "vel": 59,
      "dur": 80
    },
    {
      "t": 616.6,
      "ch": 1,
      "note": 36,
      "vel": 69,
      "dur": 25
    },
    {
      "t": 616.6,
      "ch": 1,
      "note": 38,
      "vel": 75,
      "dur": 25
    },
    {
      "t": 616.8,
      "ch": 1,
      "note": 40,
      "vel": 81,
      "dur": 25
    },
    {
      "t": 616.8,
      "ch": 1,
      "note": 42,
      "vel": 93,
      "dur": 25
    },
    {
      "t": 616.8,
      "ch": 7,
      "note": 48,
      "vel": 72,
      "dur": 80
    },
    {
      "t": 616.8,
      "ch": 7,
      "note": 36,
      "vel": 74,
      "dur": 80
    },
    {
      "t": 616.9,
      "ch": 1,
      "note": 36,
      "vel": 71,
      "dur": 25
    },
    {
      "t": 617,
      "ch": 1,
      "note": 38,
      "vel": 65,
      "dur": 25
    },
    {
      "t": 617,
      "ch": 7,
      "note": 45,
      "vel": 63,
      "dur": 80
    },
    {
      "t": 617,
      "ch": 7,
      "note": 38,
      "vel": 55,
      "dur": 80
    },
    {
      "t": 617.1,
      "ch": 1,
      "note": 40,
      "vel": 92,
      "dur": 25
    },
    {
      "t": 617.1,
      "ch": 1,
      "note": 42,
      "vel": 90,
      "dur": 25
    },
    {
      "t": 617.3,
      "ch": 1,
      "note": 36,
      "vel": 90,
      "dur": 25
    },
    {
      "t": 617.3,
      "ch": 1,
      "note": 38,
      "vel": 67,
      "dur": 25
    },
    {
      "t": 617.5,
      "ch": 1,
      "note": 40,
      "vel": 65,
      "dur": 25
    },
    {
      "t": 617.5,
      "ch": 0,
      "note": 36,
      "vel": 95,
      "dur": 55
    },
    {
      "t": 617.5,
      "ch": 1,
      "note": 42,
      "vel": 100,
      "dur": 25
    },
    {
      "t": 617.5,
      "ch": 7,
      "note": 48,
      "vel": 75,
      "dur": 80
    },
    {
      "t": 617.5,
      "ch": 7,
      "note": 36,
      "vel": 60,
      "dur": 80
    },
    {
      "t": 617.6,
      "ch": 1,
      "note": 36,
      "vel": 84,
      "dur": 25
    },
    {
      "t": 617.6,
      "ch": 1,
      "note": 38,
      "vel": 82,
      "dur": 25
    },
    {
      "t": 617.8,
      "ch": 1,
      "note": 40,
      "vel": 80,
      "dur": 25
    },
    {
      "t": 617.8,
      "ch": 1,
      "note": 42,
      "vel": 62,
      "dur": 25
    },
    {
      "t": 617.8,
      "ch": 7,
      "note": 45,
      "vel": 61,
      "dur": 80
    },
    {
      "t": 617.8,
      "ch": 7,
      "note": 36,
      "vel": 61,
      "dur": 80
    },
    {
      "t": 617.8,
      "ch": 7,
      "note": 38,
      "vel": 61,
      "dur": 80
    },
    {
      "t": 618,
      "ch": 1,
      "note": 36,
      "vel": 72,
      "dur": 25
    },
    {
      "t": 618,
      "ch": 1,
      "note": 38,
      "vel": 66,
      "dur": 25
    },
    {
      "t": 618.1,
      "ch": 1,
      "note": 40,
      "vel": 80,
      "dur": 25
    },
    {
      "t": 618.2,
      "ch": 1,
      "note": 42,
      "vel": 82,
      "dur": 25
    },
    {
      "t": 618.2,
      "ch": 7,
      "note": 48,
      "vel": 74,
      "dur": 80
    },
    {
      "t": 618.2,
      "ch": 7,
      "note": 36,
      "vel": 64,
      "dur": 80
    },
    {
      "t": 618.9,
      "ch": 7,
      "note": 48,
      "vel": 71,
      "dur": 80
    },
    {
      "t": 618.9,
      "ch": 7,
      "note": 45,
      "vel": 85,
      "dur": 80
    },
    {
      "t": 618.9,
      "ch": 7,
      "note": 36,
      "vel": 61,
      "dur": 80
    },
    {
      "t": 618.9,
      "ch": 7,
      "note": 38,
      "vel": 88,
      "dur": 80
    },
    {
      "t": 619.1,
      "ch": 5,
      "note": 59,
      "vel": 33,
      "dur": 994
    },
    {
      "t": 619.2,
      "ch": 7,
      "note": 36,
      "vel": 54,
      "dur": 80
    },
    {
      "t": 619.6,
      "ch": 7,
      "note": 48,
      "vel": 68,
      "dur": 80
    },
    {
      "t": 619.6,
      "ch": 7,
      "note": 36,
      "vel": 66,
      "dur": 80
    },
    {
      "t": 619.8,
      "ch": 7,
      "note": 45,
      "vel": 56,
      "dur": 80
    },
    {
      "t": 619.8,
      "ch": 7,
      "note": 38,
      "vel": 63,
      "dur": 80
    },
    {
      "t": 620.3,
      "ch": 7,
      "note": 48,
      "vel": 72,
      "dur": 80
    },
    {
      "t": 620.3,
      "ch": 7,
      "note": 36,
      "vel": 64,
      "dur": 80
    },
    {
      "t": 620.6,
      "ch": 7,
      "note": 45,
      "vel": 57,
      "dur": 80
    },
    {
      "t": 620.6,
      "ch": 7,
      "note": 36,
      "vel": 69,
      "dur": 80
    },
    {
      "t": 620.6,
      "ch": 7,
      "note": 38,
      "vel": 59,
      "dur": 80
    },
    {
      "t": 621,
      "ch": 7,
      "note": 48,
      "vel": 67,
      "dur": 80
    },
    {
      "t": 621,
      "ch": 7,
      "note": 36,
      "vel": 75,
      "dur": 80
    },
    {
      "t": 621.7,
      "ch": 7,
      "note": 48,
      "vel": 84,
      "dur": 80
    },
    {
      "t": 621.7,
      "ch": 7,
      "note": 45,
      "vel": 77,
      "dur": 80
    },
    {
      "t": 621.7,
      "ch": 7,
      "note": 36,
      "vel": 73,
      "dur": 80
    },
    {
      "t": 621.7,
      "ch": 7,
      "note": 38,
      "vel": 65,
      "dur": 80
    },
    {
      "t": 622,
      "ch": 7,
      "note": 36,
      "vel": 60,
      "dur": 80
    },
    {
      "t": 622.4,
      "ch": 7,
      "note": 48,
      "vel": 71,
      "dur": 80
    },
    {
      "t": 622.4,
      "ch": 7,
      "note": 36,
      "vel": 58,
      "dur": 80
    },
    {
      "t": 622.5,
      "ch": 7,
      "note": 45,
      "vel": 60,
      "dur": 80
    },
    {
      "t": 622.5,
      "ch": 7,
      "note": 38,
      "vel": 49,
      "dur": 80
    },
    {
      "t": 623,
      "ch": 4,
      "note": 65,
      "vel": 34,
      "dur": 5531
    },
    {
      "t": 623,
      "ch": 4,
      "note": 68,
      "vel": 48,
      "dur": 5531
    },
    {
      "t": 623,
      "ch": 3,
      "note": 46,
      "vel": 37,
      "dur": 5581
    },
    {
      "t": 623.1,
      "ch": 7,
      "note": 48,
      "vel": 78,
      "dur": 80
    },
    {
      "t": 623.1,
      "ch": 7,
      "note": 36,
      "vel": 79,
      "dur": 80
    },
    {
      "t": 623.4,
      "ch": 7,
      "note": 45,
      "vel": 67,
      "dur": 80
    },
    {
      "t": 623.4,
      "ch": 7,
      "note": 36,
      "vel": 65,
      "dur": 80
    },
    {
      "t": 623.4,
      "ch": 7,
      "note": 38,
      "vel": 63,
      "dur": 80
    },
    {
      "t": 623.8,
      "ch": 7,
      "note": 48,
      "vel": 59,
      "dur": 80
    },
    {
      "t": 623.8,
      "ch": 7,
      "note": 36,
      "vel": 65,
      "dur": 80
    },
    {
      "t": 623.8,
      "ch": 5,
      "note": 58,
      "vel": 16,
      "dur": 1002
    },
    {
      "t": 624.5,
      "ch": 7,
      "note": 48,
      "vel": 70,
      "dur": 80
    },
    {
      "t": 624.5,
      "ch": 7,
      "note": 45,
      "vel": 59,
      "dur": 80
    },
    {
      "t": 624.5,
      "ch": 7,
      "note": 36,
      "vel": 79,
      "dur": 80
    },
    {
      "t": 624.5,
      "ch": 7,
      "note": 38,
      "vel": 73,
      "dur": 80
    },
    {
      "t": 624.8,
      "ch": 7,
      "note": 36,
      "vel": 69,
      "dur": 80
    },
    {
      "t": 624.8,
      "ch": 5,
      "note": 68,
      "vel": 24,
      "dur": 999
    },
    {
      "t": 625.1,
      "ch": 7,
      "note": 48,
      "vel": 75,
      "dur": 80
    },
    {
      "t": 625.1,
      "ch": 7,
      "note": 36,
      "vel": 61,
      "dur": 80
    },
    {
      "t": 625.3,
      "ch": 7,
      "note": 45,
      "vel": 66,
      "dur": 80
    },
    {
      "t": 625.3,
      "ch": 7,
      "note": 38,
      "vel": 51,
      "dur": 80
    },
    {
      "t": 625.8,
      "ch": 2,
      "note": 58,
      "vel": 53,
      "dur": 20930
    },
    {
      "t": 625.8,
      "ch": 2,
      "note": 70,
      "vel": 37,
      "dur": 20930
    },
    {
      "t": 625.8,
      "ch": 7,
      "note": 48,
      "vel": 72,
      "dur": 80
    },
    {
      "t": 625.8,
      "ch": 7,
      "note": 36,
      "vel": 69,
      "dur": 80
    },
    {
      "t": 626.2,
      "ch": 7,
      "note": 45,
      "vel": 68,
      "dur": 80
    },
    {
      "t": 626.2,
      "ch": 7,
      "note": 36,
      "vel": 67,
      "dur": 80
    },
    {
      "t": 626.2,
      "ch": 7,
      "note": 38,
      "vel": 64,
      "dur": 80
    },
    {
      "t": 626.6,
      "ch": 7,
      "note": 48,
      "vel": 67,
      "dur": 80
    },
    {
      "t": 626.6,
      "ch": 7,
      "note": 36,
      "vel": 72,
      "dur": 80
    },
    {
      "t": 627.1,
      "ch": 5,
      "note": 73,
      "vel": 27,
      "dur": 988
    },
    {
      "t": 627.2,
      "ch": 0,
      "note": 36,
      "vel": 116,
      "dur": 55
    },
    {
      "t": 627.2,
      "ch": 7,
      "note": 48,
      "vel": 73,
      "dur": 80
    },
    {
      "t": 627.2,
      "ch": 7,
      "note": 45,
      "vel": 69,
      "dur": 80
    },
    {
      "t": 627.2,
      "ch": 7,
      "note": 36,
      "vel": 74,
      "dur": 80
    },
    {
      "t": 627.2,
      "ch": 7,
      "note": 38,
      "vel": 64,
      "dur": 80
    },
    {
      "t": 627.3,
      "ch": 6,
      "note": 58,
      "vel": 4,
      "dur": 658
    },
    {
      "t": 627.6,
      "ch": 7,
      "note": 36,
      "vel": 59,
      "dur": 80
    },
    {
      "t": 627.9,
      "ch": 7,
      "note": 48,
      "vel": 78,
      "dur": 80
    },
    {
      "t": 627.9,
      "ch": 7,
      "note": 36,
      "vel": 58,
      "dur": 80
    },
    {
      "t": 628.1,
      "ch": 7,
      "note": 45,
      "vel": 67,
      "dur": 80
    },
    {
      "t": 628.1,
      "ch": 7,
      "note": 38,
      "vel": 66,
      "dur": 80
    },
    {
      "t": 628.6,
      "ch": 4,
      "note": 65,
      "vel": 39,
      "dur": 5531
    },
    {
      "t": 628.6,
      "ch": 4,
      "note": 63,
      "vel": 38,
      "dur": 5531
    },
    {
      "t": 628.6,
      "ch": 3,
      "note": 39,
      "vel": 40,
      "dur": 5581
    },
    {
      "t": 628.6,
      "ch": 0,
      "note": 36,
      "vel": 90,
      "dur": 55
    },
    {
      "t": 628.6,
      "ch": 7,
      "note": 48,
      "vel": 77,
      "dur": 80
    },
    {
      "t": 628.6,
      "ch": 7,
      "note": 36,
      "vel": 65,
      "dur": 80
    },
    {
      "t": 628.8,
      "ch": 5,
      "note": 82,
      "vel": 17,
      "dur": 976
    },
    {
      "t": 629,
      "ch": 7,
      "note": 45,
      "vel": 63,
      "dur": 80
    },
    {
      "t": 629,
      "ch": 7,
      "note": 36,
      "vel": 65,
      "dur": 80
    },
    {
      "t": 629,
      "ch": 7,
      "note": 38,
      "vel": 58,
      "dur": 80
    },
    {
      "t": 629.3,
      "ch": 7,
      "note": 48,
      "vel": 73,
      "dur": 80
    },
    {
      "t": 629.3,
      "ch": 7,
      "note": 36,
      "vel": 76,
      "dur": 80
    },
    {
      "t": 629.7,
      "ch": 0,
      "note": 36,
      "vel": 88,
      "dur": 55
    },
    {
      "t": 630,
      "ch": 0,
      "note": 36,
      "vel": 113,
      "dur": 55
    },
    {
      "t": 630,
      "ch": 7,
      "note": 48,
      "vel": 85,
      "dur": 80
    },
    {
      "t": 630,
      "ch": 7,
      "note": 45,
      "vel": 70,
      "dur": 80
    },
    {
      "t": 630,
      "ch": 7,
      "note": 36,
      "vel": 67,
      "dur": 80
    },
    {
      "t": 630,
      "ch": 7,
      "note": 38,
      "vel": 69,
      "dur": 80
    },
    {
      "t": 630.4,
      "ch": 7,
      "note": 36,
      "vel": 62,
      "dur": 80
    },
    {
      "t": 630.7,
      "ch": 7,
      "note": 48,
      "vel": 64,
      "dur": 80
    },
    {
      "t": 630.7,
      "ch": 7,
      "note": 36,
      "vel": 82,
      "dur": 80
    },
    {
      "t": 630.9,
      "ch": 7,
      "note": 45,
      "vel": 49,
      "dur": 80
    },
    {
      "t": 630.9,
      "ch": 7,
      "note": 38,
      "vel": 64,
      "dur": 80
    },
    {
      "t": 631.4,
      "ch": 0,
      "note": 36,
      "vel": 83,
      "dur": 55
    },
    {
      "t": 631.4,
      "ch": 7,
      "note": 48,
      "vel": 71,
      "dur": 80
    },
    {
      "t": 631.4,
      "ch": 7,
      "note": 36,
      "vel": 75,
      "dur": 80
    },
    {
      "t": 631.8,
      "ch": 7,
      "note": 45,
      "vel": 67,
      "dur": 80
    },
    {
      "t": 631.8,
      "ch": 7,
      "note": 36,
      "vel": 59,
      "dur": 80
    },
    {
      "t": 631.8,
      "ch": 7,
      "note": 38,
      "vel": 58,
      "dur": 80
    },
    {
      "t": 631.8,
      "ch": 5,
      "note": 46,
      "vel": 25,
      "dur": 960
    },
    {
      "t": 632.1,
      "ch": 7,
      "note": 48,
      "vel": 72,
      "dur": 80
    },
    {
      "t": 632.1,
      "ch": 7,
      "note": 36,
      "vel": 66,
      "dur": 80
    },
    {
      "t": 632.5,
      "ch": 0,
      "note": 36,
      "vel": 77,
      "dur": 55
    },
    {
      "t": 632.8,
      "ch": 0,
      "note": 36,
      "vel": 118,
      "dur": 55
    },
    {
      "t": 632.8,
      "ch": 7,
      "note": 48,
      "vel": 72,
      "dur": 80
    },
    {
      "t": 632.8,
      "ch": 7,
      "note": 45,
      "vel": 66,
      "dur": 80
    },
    {
      "t": 632.8,
      "ch": 7,
      "note": 36,
      "vel": 67,
      "dur": 80
    },
    {
      "t": 632.8,
      "ch": 7,
      "note": 38,
      "vel": 69,
      "dur": 80
    },
    {
      "t": 633.2,
      "ch": 7,
      "note": 36,
      "vel": 68,
      "dur": 80
    },
    {
      "t": 633.5,
      "ch": 7,
      "note": 48,
      "vel": 66,
      "dur": 80
    },
    {
      "t": 633.5,
      "ch": 7,
      "note": 36,
      "vel": 53,
      "dur": 80
    },
    {
      "t": 633.7,
      "ch": 7,
      "note": 45,
      "vel": 58,
      "dur": 80
    },
    {
      "t": 633.7,
      "ch": 7,
      "note": 38,
      "vel": 61,
      "dur": 80
    },
    {
      "t": 634.1,
      "ch": 4,
      "note": 65,
      "vel": 40,
      "dur": 5531
    },
    {
      "t": 634.1,
      "ch": 4,
      "note": 63,
      "vel": 40,
      "dur": 5531
    },
    {
      "t": 634.1,
      "ch": 3,
      "note": 53,
      "vel": 44,
      "dur": 5581
    },
    {
      "t": 634.2,
      "ch": 0,
      "note": 36,
      "vel": 98,
      "dur": 55
    },
    {
      "t": 634.2,
      "ch": 7,
      "note": 48,
      "vel": 76,
      "dur": 80
    },
    {
      "t": 634.2,
      "ch": 7,
      "note": 36,
      "vel": 78,
      "dur": 80
    },
    {
      "t": 634.6,
      "ch": 7,
      "note": 45,
      "vel": 51,
      "dur": 80
    },
    {
      "t": 634.6,
      "ch": 7,
      "note": 36,
      "vel": 68,
      "dur": 80
    },
    {
      "t": 634.6,
      "ch": 7,
      "note": 38,
      "vel": 58,
      "dur": 80
    },
    {
      "t": 634.9,
      "ch": 7,
      "note": 48,
      "vel": 55,
      "dur": 80
    },
    {
      "t": 634.9,
      "ch": 7,
      "note": 36,
      "vel": 77,
      "dur": 80
    },
    {
      "t": 635.3,
      "ch": 0,
      "note": 36,
      "vel": 82,
      "dur": 55
    },
    {
      "t": 635.6,
      "ch": 1,
      "note": 36,
      "vel": 89,
      "dur": 25
    },
    {
      "t": 635.6,
      "ch": 1,
      "note": 38,
      "vel": 94,
      "dur": 25
    },
    {
      "t": 635.6,
      "ch": 1,
      "note": 40,
      "vel": 77,
      "dur": 25
    },
    {
      "t": 635.6,
      "ch": 1,
      "note": 42,
      "vel": 76,
      "dur": 25
    },
    {
      "t": 635.6,
      "ch": 1,
      "note": 36,
      "vel": 83,
      "dur": 25
    },
    {
      "t": 635.6,
      "ch": 1,
      "note": 38,
      "vel": 76,
      "dur": 25
    },
    {
      "t": 635.6,
      "ch": 1,
      "note": 40,
      "vel": 98,
      "dur": 25
    },
    {
      "t": 635.6,
      "ch": 1,
      "note": 42,
      "vel": 65,
      "dur": 25
    },
    {
      "t": 635.6,
      "ch": 1,
      "note": 36,
      "vel": 96,
      "dur": 25
    },
    {
      "t": 635.6,
      "ch": 1,
      "note": 38,
      "vel": 72,
      "dur": 25
    },
    {
      "t": 635.6,
      "ch": 1,
      "note": 40,
      "vel": 80,
      "dur": 25
    },
    {
      "t": 635.6,
      "ch": 1,
      "note": 42,
      "vel": 85,
      "dur": 25
    },
    {
      "t": 635.6,
      "ch": 1,
      "note": 36,
      "vel": 79,
      "dur": 25
    },
    {
      "t": 635.6,
      "ch": 1,
      "note": 38,
      "vel": 80,
      "dur": 25
    },
    {
      "t": 635.6,
      "ch": 1,
      "note": 40,
      "vel": 82,
      "dur": 25
    },
    {
      "t": 635.6,
      "ch": 1,
      "note": 42,
      "vel": 91,
      "dur": 25
    },
    {
      "t": 635.6,
      "ch": 1,
      "note": 36,
      "vel": 82,
      "dur": 25
    },
    {
      "t": 635.6,
      "ch": 1,
      "note": 38,
      "vel": 91,
      "dur": 25
    },
    {
      "t": 635.6,
      "ch": 1,
      "note": 40,
      "vel": 82,
      "dur": 25
    },
    {
      "t": 635.6,
      "ch": 1,
      "note": 42,
      "vel": 73,
      "dur": 25
    },
    {
      "t": 635.6,
      "ch": 1,
      "note": 36,
      "vel": 60,
      "dur": 25
    },
    {
      "t": 635.6,
      "ch": 1,
      "note": 38,
      "vel": 90,
      "dur": 25
    },
    {
      "t": 635.6,
      "ch": 1,
      "note": 40,
      "vel": 71,
      "dur": 25
    },
    {
      "t": 635.6,
      "ch": 1,
      "note": 42,
      "vel": 74,
      "dur": 25
    },
    {
      "t": 635.6,
      "ch": 1,
      "note": 36,
      "vel": 92,
      "dur": 25
    },
    {
      "t": 635.6,
      "ch": 1,
      "note": 38,
      "vel": 92,
      "dur": 25
    },
    {
      "t": 635.6,
      "ch": 1,
      "note": 40,
      "vel": 88,
      "dur": 25
    },
    {
      "t": 635.6,
      "ch": 1,
      "note": 42,
      "vel": 102,
      "dur": 25
    },
    {
      "t": 635.6,
      "ch": 1,
      "note": 36,
      "vel": 80,
      "dur": 25
    },
    {
      "t": 635.6,
      "ch": 1,
      "note": 38,
      "vel": 89,
      "dur": 25
    },
    {
      "t": 635.6,
      "ch": 1,
      "note": 40,
      "vel": 93,
      "dur": 25
    },
    {
      "t": 635.6,
      "ch": 1,
      "note": 42,
      "vel": 84,
      "dur": 25
    },
    {
      "t": 635.6,
      "ch": 1,
      "note": 36,
      "vel": 76,
      "dur": 25
    },
    {
      "t": 635.6,
      "ch": 1,
      "note": 38,
      "vel": 52,
      "dur": 25
    },
    {
      "t": 635.6,
      "ch": 1,
      "note": 40,
      "vel": 78,
      "dur": 25
    },
    {
      "t": 635.6,
      "ch": 1,
      "note": 42,
      "vel": 75,
      "dur": 25
    },
    {
      "t": 635.6,
      "ch": 1,
      "note": 36,
      "vel": 97,
      "dur": 25
    },
    {
      "t": 635.6,
      "ch": 1,
      "note": 38,
      "vel": 107,
      "dur": 25
    },
    {
      "t": 635.6,
      "ch": 1,
      "note": 40,
      "vel": 59,
      "dur": 25
    },
    {
      "t": 635.6,
      "ch": 1,
      "note": 42,
      "vel": 106,
      "dur": 25
    },
    {
      "t": 635.6,
      "ch": 1,
      "note": 36,
      "vel": 89,
      "dur": 25
    },
    {
      "t": 635.6,
      "ch": 1,
      "note": 38,
      "vel": 83,
      "dur": 25
    },
    {
      "t": 635.6,
      "ch": 1,
      "note": 40,
      "vel": 92,
      "dur": 25
    },
    {
      "t": 635.6,
      "ch": 1,
      "note": 42,
      "vel": 64,
      "dur": 25
    },
    {
      "t": 635.6,
      "ch": 1,
      "note": 36,
      "vel": 100,
      "dur": 25
    },
    {
      "t": 635.6,
      "ch": 1,
      "note": 38,
      "vel": 75,
      "dur": 25
    },
    {
      "t": 635.6,
      "ch": 1,
      "note": 40,
      "vel": 78,
      "dur": 25
    },
    {
      "t": 635.6,
      "ch": 1,
      "note": 42,
      "vel": 87,
      "dur": 25
    },
    {
      "t": 635.6,
      "ch": 1,
      "note": 36,
      "vel": 94,
      "dur": 25
    },
    {
      "t": 635.6,
      "ch": 1,
      "note": 38,
      "vel": 101,
      "dur": 25
    },
    {
      "t": 635.6,
      "ch": 1,
      "note": 40,
      "vel": 72,
      "dur": 25
    },
    {
      "t": 635.6,
      "ch": 1,
      "note": 42,
      "vel": 59,
      "dur": 25
    },
    {
      "t": 635.6,
      "ch": 1,
      "note": 36,
      "vel": 85,
      "dur": 25
    },
    {
      "t": 635.6,
      "ch": 1,
      "note": 38,
      "vel": 115,
      "dur": 25
    },
    {
      "t": 635.6,
      "ch": 1,
      "note": 40,
      "vel": 96,
      "dur": 25
    },
    {
      "t": 635.6,
      "ch": 1,
      "note": 42,
      "vel": 69,
      "dur": 25
    },
    {
      "t": 635.6,
      "ch": 1,
      "note": 36,
      "vel": 105,
      "dur": 25
    },
    {
      "t": 635.6,
      "ch": 1,
      "note": 38,
      "vel": 103,
      "dur": 25
    },
    {
      "t": 635.6,
      "ch": 1,
      "note": 40,
      "vel": 83,
      "dur": 25
    },
    {
      "t": 635.6,
      "ch": 1,
      "note": 42,
      "vel": 92,
      "dur": 25
    },
    {
      "t": 635.6,
      "ch": 1,
      "note": 36,
      "vel": 79,
      "dur": 25
    },
    {
      "t": 635.6,
      "ch": 1,
      "note": 38,
      "vel": 86,
      "dur": 25
    },
    {
      "t": 635.6,
      "ch": 1,
      "note": 40,
      "vel": 74,
      "dur": 25
    },
    {
      "t": 635.6,
      "ch": 1,
      "note": 42,
      "vel": 94,
      "dur": 25
    },
    {
      "t": 635.6,
      "ch": 1,
      "note": 36,
      "vel": 93,
      "dur": 25
    },
    {
      "t": 635.6,
      "ch": 1,
      "note": 38,
      "vel": 93,
      "dur": 25
    },
    {
      "t": 635.6,
      "ch": 1,
      "note": 40,
      "vel": 112,
      "dur": 25
    },
    {
      "t": 635.6,
      "ch": 1,
      "note": 42,
      "vel": 82,
      "dur": 25
    },
    {
      "t": 635.6,
      "ch": 1,
      "note": 36,
      "vel": 77,
      "dur": 25
    },
    {
      "t": 635.6,
      "ch": 1,
      "note": 38,
      "vel": 95,
      "dur": 25
    },
    {
      "t": 635.6,
      "ch": 1,
      "note": 40,
      "vel": 104,
      "dur": 25
    },
    {
      "t": 635.6,
      "ch": 1,
      "note": 42,
      "vel": 87,
      "dur": 25
    },
    {
      "t": 635.6,
      "ch": 1,
      "note": 36,
      "vel": 122,
      "dur": 25
    },
    {
      "t": 635.6,
      "ch": 1,
      "note": 38,
      "vel": 57,
      "dur": 25
    },
    {
      "t": 635.6,
      "ch": 1,
      "note": 40,
      "vel": 68,
      "dur": 25
    },
    {
      "t": 635.6,
      "ch": 1,
      "note": 42,
      "vel": 76,
      "dur": 25
    },
    {
      "t": 635.6,
      "ch": 1,
      "note": 36,
      "vel": 93,
      "dur": 25
    },
    {
      "t": 635.6,
      "ch": 1,
      "note": 38,
      "vel": 87,
      "dur": 25
    },
    {
      "t": 635.6,
      "ch": 1,
      "note": 40,
      "vel": 76,
      "dur": 25
    },
    {
      "t": 635.6,
      "ch": 1,
      "note": 42,
      "vel": 113,
      "dur": 25
    },
    {
      "t": 635.6,
      "ch": 1,
      "note": 36,
      "vel": 75,
      "dur": 25
    },
    {
      "t": 635.6,
      "ch": 1,
      "note": 38,
      "vel": 94,
      "dur": 25
    },
    {
      "t": 635.6,
      "ch": 1,
      "note": 40,
      "vel": 77,
      "dur": 25
    },
    {
      "t": 635.6,
      "ch": 1,
      "note": 42,
      "vel": 88,
      "dur": 25
    },
    {
      "t": 635.6,
      "ch": 1,
      "note": 36,
      "vel": 93,
      "dur": 25
    },
    {
      "t": 635.6,
      "ch": 1,
      "note": 38,
      "vel": 91,
      "dur": 25
    },
    {
      "t": 635.6,
      "ch": 1,
      "note": 40,
      "vel": 88,
      "dur": 25
    },
    {
      "t": 635.6,
      "ch": 1,
      "note": 42,
      "vel": 84,
      "dur": 25
    },
    {
      "t": 635.6,
      "ch": 1,
      "note": 36,
      "vel": 82,
      "dur": 25
    },
    {
      "t": 635.6,
      "ch": 1,
      "note": 38,
      "vel": 64,
      "dur": 25
    },
    {
      "t": 635.6,
      "ch": 1,
      "note": 40,
      "vel": 95,
      "dur": 25
    },
    {
      "t": 635.6,
      "ch": 1,
      "note": 42,
      "vel": 72,
      "dur": 25
    },
    {
      "t": 635.6,
      "ch": 1,
      "note": 36,
      "vel": 81,
      "dur": 25
    },
    {
      "t": 635.6,
      "ch": 1,
      "note": 38,
      "vel": 109,
      "dur": 25
    },
    {
      "t": 635.6,
      "ch": 1,
      "note": 40,
      "vel": 102,
      "dur": 25
    },
    {
      "t": 635.6,
      "ch": 1,
      "note": 42,
      "vel": 113,
      "dur": 25
    },
    {
      "t": 635.6,
      "ch": 1,
      "note": 36,
      "vel": 81,
      "dur": 25
    },
    {
      "t": 635.6,
      "ch": 1,
      "note": 38,
      "vel": 81,
      "dur": 25
    },
    {
      "t": 635.6,
      "ch": 1,
      "note": 40,
      "vel": 96,
      "dur": 25
    },
    {
      "t": 635.6,
      "ch": 1,
      "note": 42,
      "vel": 88,
      "dur": 25
    },
    {
      "t": 635.6,
      "ch": 1,
      "note": 36,
      "vel": 90,
      "dur": 25
    },
    {
      "t": 635.6,
      "ch": 1,
      "note": 38,
      "vel": 95,
      "dur": 25
    },
    {
      "t": 635.6,
      "ch": 1,
      "note": 40,
      "vel": 94,
      "dur": 25
    },
    {
      "t": 635.6,
      "ch": 1,
      "note": 42,
      "vel": 82,
      "dur": 25
    },
    {
      "t": 635.6,
      "ch": 1,
      "note": 36,
      "vel": 70,
      "dur": 25
    },
    {
      "t": 635.6,
      "ch": 1,
      "note": 38,
      "vel": 102,
      "dur": 25
    },
    {
      "t": 635.6,
      "ch": 1,
      "note": 40,
      "vel": 70,
      "dur": 25
    },
    {
      "t": 635.6,
      "ch": 1,
      "note": 42,
      "vel": 68,
      "dur": 25
    },
    {
      "t": 635.6,
      "ch": 1,
      "note": 36,
      "vel": 78,
      "dur": 25
    },
    {
      "t": 635.6,
      "ch": 1,
      "note": 38,
      "vel": 69,
      "dur": 25
    },
    {
      "t": 635.6,
      "ch": 1,
      "note": 40,
      "vel": 99,
      "dur": 25
    },
    {
      "t": 635.6,
      "ch": 1,
      "note": 42,
      "vel": 88,
      "dur": 25
    },
    {
      "t": 635.6,
      "ch": 1,
      "note": 36,
      "vel": 80,
      "dur": 25
    },
    {
      "t": 635.6,
      "ch": 1,
      "note": 38,
      "vel": 65,
      "dur": 25
    },
    {
      "t": 635.6,
      "ch": 1,
      "note": 40,
      "vel": 93,
      "dur": 25
    },
    {
      "t": 635.6,
      "ch": 1,
      "note": 42,
      "vel": 90,
      "dur": 25
    },
    {
      "t": 635.6,
      "ch": 1,
      "note": 36,
      "vel": 94,
      "dur": 25
    },
    {
      "t": 635.6,
      "ch": 1,
      "note": 38,
      "vel": 56,
      "dur": 25
    },
    {
      "t": 635.6,
      "ch": 1,
      "note": 40,
      "vel": 73,
      "dur": 25
    },
    {
      "t": 635.6,
      "ch": 1,
      "note": 42,
      "vel": 90,
      "dur": 25
    },
    {
      "t": 635.6,
      "ch": 1,
      "note": 36,
      "vel": 80,
      "dur": 25
    },
    {
      "t": 635.6,
      "ch": 1,
      "note": 38,
      "vel": 91,
      "dur": 25
    },
    {
      "t": 635.6,
      "ch": 1,
      "note": 40,
      "vel": 84,
      "dur": 25
    },
    {
      "t": 635.6,
      "ch": 1,
      "note": 42,
      "vel": 76,
      "dur": 25
    },
    {
      "t": 635.6,
      "ch": 1,
      "note": 36,
      "vel": 81,
      "dur": 25
    },
    {
      "t": 635.6,
      "ch": 1,
      "note": 38,
      "vel": 93,
      "dur": 25
    },
    {
      "t": 635.6,
      "ch": 1,
      "note": 40,
      "vel": 94,
      "dur": 25
    },
    {
      "t": 635.6,
      "ch": 1,
      "note": 42,
      "vel": 83,
      "dur": 25
    },
    {
      "t": 635.6,
      "ch": 1,
      "note": 36,
      "vel": 76,
      "dur": 25
    },
    {
      "t": 635.6,
      "ch": 1,
      "note": 38,
      "vel": 107,
      "dur": 25
    },
    {
      "t": 635.6,
      "ch": 1,
      "note": 40,
      "vel": 88,
      "dur": 25
    },
    {
      "t": 635.6,
      "ch": 1,
      "note": 42,
      "vel": 97,
      "dur": 25
    },
    {
      "t": 635.6,
      "ch": 1,
      "note": 36,
      "vel": 97,
      "dur": 25
    },
    {
      "t": 635.6,
      "ch": 1,
      "note": 38,
      "vel": 100,
      "dur": 25
    },
    {
      "t": 635.6,
      "ch": 1,
      "note": 40,
      "vel": 94,
      "dur": 25
    },
    {
      "t": 635.6,
      "ch": 1,
      "note": 42,
      "vel": 76,
      "dur": 25
    },
    {
      "t": 635.6,
      "ch": 1,
      "note": 36,
      "vel": 88,
      "dur": 25
    },
    {
      "t": 635.6,
      "ch": 1,
      "note": 38,
      "vel": 77,
      "dur": 25
    },
    {
      "t": 635.6,
      "ch": 1,
      "note": 40,
      "vel": 103,
      "dur": 25
    },
    {
      "t": 635.6,
      "ch": 1,
      "note": 42,
      "vel": 84,
      "dur": 25
    },
    {
      "t": 635.6,
      "ch": 1,
      "note": 36,
      "vel": 78,
      "dur": 25
    },
    {
      "t": 635.6,
      "ch": 1,
      "note": 38,
      "vel": 72,
      "dur": 25
    },
    {
      "t": 635.6,
      "ch": 1,
      "note": 40,
      "vel": 99,
      "dur": 25
    },
    {
      "t": 635.6,
      "ch": 1,
      "note": 42,
      "vel": 93,
      "dur": 25
    },
    {
      "t": 635.6,
      "ch": 1,
      "note": 36,
      "vel": 103,
      "dur": 25
    },
    {
      "t": 635.6,
      "ch": 1,
      "note": 38,
      "vel": 93,
      "dur": 25
    },
    {
      "t": 635.6,
      "ch": 1,
      "note": 40,
      "vel": 87,
      "dur": 25
    },
    {
      "t": 635.6,
      "ch": 1,
      "note": 42,
      "vel": 88,
      "dur": 25
    },
    {
      "t": 635.6,
      "ch": 1,
      "note": 36,
      "vel": 106,
      "dur": 25
    },
    {
      "t": 635.6,
      "ch": 1,
      "note": 38,
      "vel": 94,
      "dur": 25
    },
    {
      "t": 635.6,
      "ch": 1,
      "note": 40,
      "vel": 82,
      "dur": 25
    },
    {
      "t": 635.6,
      "ch": 1,
      "note": 42,
      "vel": 89,
      "dur": 25
    },
    {
      "t": 635.6,
      "ch": 1,
      "note": 36,
      "vel": 78,
      "dur": 25
    },
    {
      "t": 635.6,
      "ch": 1,
      "note": 38,
      "vel": 79,
      "dur": 25
    },
    {
      "t": 635.6,
      "ch": 1,
      "note": 40,
      "vel": 90,
      "dur": 25
    },
    {
      "t": 635.6,
      "ch": 1,
      "note": 42,
      "vel": 65,
      "dur": 25
    },
    {
      "t": 635.6,
      "ch": 1,
      "note": 36,
      "vel": 88,
      "dur": 25
    },
    {
      "t": 635.6,
      "ch": 1,
      "note": 38,
      "vel": 85,
      "dur": 25
    },
    {
      "t": 635.6,
      "ch": 1,
      "note": 40,
      "vel": 71,
      "dur": 25
    },
    {
      "t": 635.6,
      "ch": 1,
      "note": 42,
      "vel": 84,
      "dur": 25
    },
    {
      "t": 635.6,
      "ch": 1,
      "note": 36,
      "vel": 94,
      "dur": 25
    },
    {
      "t": 635.6,
      "ch": 1,
      "note": 38,
      "vel": 77,
      "dur": 25
    },
    {
      "t": 635.6,
      "ch": 1,
      "note": 40,
      "vel": 78,
      "dur": 25
    },
    {
      "t": 635.6,
      "ch": 1,
      "note": 42,
      "vel": 98,
      "dur": 25
    },
    {
      "t": 635.6,
      "ch": 1,
      "note": 36,
      "vel": 75,
      "dur": 25
    },
    {
      "t": 635.6,
      "ch": 1,
      "note": 38,
      "vel": 98,
      "dur": 25
    },
    {
      "t": 635.6,
      "ch": 1,
      "note": 40,
      "vel": 91,
      "dur": 25
    },
    {
      "t": 635.6,
      "ch": 1,
      "note": 42,
      "vel": 96,
      "dur": 25
    },
    {
      "t": 635.6,
      "ch": 1,
      "note": 36,
      "vel": 96,
      "dur": 25
    },
    {
      "t": 635.6,
      "ch": 1,
      "note": 38,
      "vel": 94,
      "dur": 25
    },
    {
      "t": 635.6,
      "ch": 1,
      "note": 40,
      "vel": 79,
      "dur": 25
    },
    {
      "t": 635.6,
      "ch": 1,
      "note": 42,
      "vel": 89,
      "dur": 25
    },
    {
      "t": 635.6,
      "ch": 1,
      "note": 36,
      "vel": 105,
      "dur": 25
    },
    {
      "t": 635.6,
      "ch": 1,
      "note": 38,
      "vel": 80,
      "dur": 25
    },
    {
      "t": 635.6,
      "ch": 1,
      "note": 40,
      "vel": 89,
      "dur": 25
    },
    {
      "t": 635.6,
      "ch": 1,
      "note": 42,
      "vel": 108,
      "dur": 25
    },
    {
      "t": 635.6,
      "ch": 1,
      "note": 36,
      "vel": 83,
      "dur": 25
    },
    {
      "t": 635.6,
      "ch": 1,
      "note": 38,
      "vel": 97,
      "dur": 25
    },
    {
      "t": 635.6,
      "ch": 1,
      "note": 40,
      "vel": 67,
      "dur": 25
    },
    {
      "t": 635.6,
      "ch": 1,
      "note": 42,
      "vel": 80,
      "dur": 25
    },
    {
      "t": 635.6,
      "ch": 1,
      "note": 36,
      "vel": 86,
      "dur": 25
    },
    {
      "t": 635.6,
      "ch": 1,
      "note": 38,
      "vel": 92,
      "dur": 25
    },
    {
      "t": 635.6,
      "ch": 1,
      "note": 40,
      "vel": 89,
      "dur": 25
    },
    {
      "t": 635.6,
      "ch": 1,
      "note": 42,
      "vel": 85,
      "dur": 25
    },
    {
      "t": 635.6,
      "ch": 1,
      "note": 36,
      "vel": 93,
      "dur": 25
    },
    {
      "t": 635.6,
      "ch": 1,
      "note": 38,
      "vel": 90,
      "dur": 25
    },
    {
      "t": 635.6,
      "ch": 1,
      "note": 40,
      "vel": 82,
      "dur": 25
    },
    {
      "t": 635.6,
      "ch": 1,
      "note": 42,
      "vel": 106,
      "dur": 25
    },
    {
      "t": 635.6,
      "ch": 1,
      "note": 36,
      "vel": 93,
      "dur": 25
    },
    {
      "t": 635.6,
      "ch": 1,
      "note": 38,
      "vel": 83,
      "dur": 25
    },
    {
      "t": 635.6,
      "ch": 1,
      "note": 40,
      "vel": 79,
      "dur": 25
    },
    {
      "t": 635.6,
      "ch": 1,
      "note": 42,
      "vel": 97,
      "dur": 25
    },
    {
      "t": 635.6,
      "ch": 1,
      "note": 36,
      "vel": 84,
      "dur": 25
    },
    {
      "t": 635.6,
      "ch": 1,
      "note": 38,
      "vel": 97,
      "dur": 25
    },
    {
      "t": 635.6,
      "ch": 1,
      "note": 40,
      "vel": 98,
      "dur": 25
    },
    {
      "t": 635.6,
      "ch": 1,
      "note": 42,
      "vel": 93,
      "dur": 25
    },
    {
      "t": 635.6,
      "ch": 1,
      "note": 36,
      "vel": 77,
      "dur": 25
    },
    {
      "t": 635.6,
      "ch": 1,
      "note": 38,
      "vel": 97,
      "dur": 25
    },
    {
      "t": 635.6,
      "ch": 1,
      "note": 40,
      "vel": 78,
      "dur": 25
    },
    {
      "t": 635.6,
      "ch": 1,
      "note": 42,
      "vel": 72,
      "dur": 25
    },
    {
      "t": 635.6,
      "ch": 7,
      "note": 48,
      "vel": 73,
      "dur": 80
    },
    {
      "t": 635.6,
      "ch": 7,
      "note": 45,
      "vel": 71,
      "dur": 80
    },
    {
      "t": 635.6,
      "ch": 7,
      "note": 36,
      "vel": 64,
      "dur": 80
    },
    {
      "t": 635.6,
      "ch": 7,
      "note": 38,
      "vel": 69,
      "dur": 80
    },
    {
      "t": 635.8,
      "ch": 1,
      "note": 36,
      "vel": 82,
      "dur": 25
    },
    {
      "t": 635.8,
      "ch": 1,
      "note": 38,
      "vel": 76,
      "dur": 25
    },
    {
      "t": 635.9,
      "ch": 1,
      "note": 40,
      "vel": 87,
      "dur": 25
    },
    {
      "t": 636,
      "ch": 1,
      "note": 42,
      "vel": 61,
      "dur": 25
    },
    {
      "t": 636,
      "ch": 7,
      "note": 36,
      "vel": 63,
      "dur": 80
    },
    {
      "t": 636.1,
      "ch": 1,
      "note": 36,
      "vel": 74,
      "dur": 25
    },
    {
      "t": 636.1,
      "ch": 1,
      "note": 38,
      "vel": 90,
      "dur": 25
    },
    {
      "t": 636.3,
      "ch": 1,
      "note": 40,
      "vel": 101,
      "dur": 25
    },
    {
      "t": 636.3,
      "ch": 1,
      "note": 42,
      "vel": 92,
      "dur": 25
    },
    {
      "t": 636.3,
      "ch": 7,
      "note": 48,
      "vel": 63,
      "dur": 80
    },
    {
      "t": 636.3,
      "ch": 7,
      "note": 36,
      "vel": 83,
      "dur": 80
    },
    {
      "t": 636.5,
      "ch": 1,
      "note": 36,
      "vel": 102,
      "dur": 25
    },
    {
      "t": 636.5,
      "ch": 1,
      "note": 38,
      "vel": 80,
      "dur": 25
    },
    {
      "t": 636.5,
      "ch": 7,
      "note": 45,
      "vel": 51,
      "dur": 80
    },
    {
      "t": 636.5,
      "ch": 7,
      "note": 38,
      "vel": 67,
      "dur": 80
    },
    {
      "t": 636.6,
      "ch": 1,
      "note": 40,
      "vel": 79,
      "dur": 25
    },
    {
      "t": 636.7,
      "ch": 1,
      "note": 42,
      "vel": 86,
      "dur": 25
    },
    {
      "t": 636.8,
      "ch": 1,
      "note": 36,
      "vel": 72,
      "dur": 25
    },
    {
      "t": 636.8,
      "ch": 1,
      "note": 38,
      "vel": 86,
      "dur": 25
    },
    {
      "t": 636.9,
      "ch": 2,
      "note": 58,
      "vel": 55,
      "dur": 20930
    },
    {
      "t": 637,
      "ch": 1,
      "note": 40,
      "vel": 76,
      "dur": 25
    },
    {
      "t": 637,
      "ch": 1,
      "note": 42,
      "vel": 89,
      "dur": 25
    },
    {
      "t": 637,
      "ch": 7,
      "note": 48,
      "vel": 67,
      "dur": 80
    },
    {
      "t": 637,
      "ch": 7,
      "note": 36,
      "vel": 65,
      "dur": 80
    },
    {
      "t": 637.2,
      "ch": 1,
      "note": 36,
      "vel": 92,
      "dur": 25
    },
    {
      "t": 637.2,
      "ch": 1,
      "note": 38,
      "vel": 89,
      "dur": 25
    },
    {
      "t": 637.3,
      "ch": 1,
      "note": 40,
      "vel": 99,
      "dur": 25
    },
    {
      "t": 637.4,
      "ch": 1,
      "note": 42,
      "vel": 68,
      "dur": 25
    },
    {
      "t": 637.4,
      "ch": 7,
      "note": 45,
      "vel": 53,
      "dur": 80
    },
    {
      "t": 637.4,
      "ch": 7,
      "note": 36,
      "vel": 55,
      "dur": 80
    },
    {
      "t": 637.4,
      "ch": 7,
      "note": 38,
      "vel": 59,
      "dur": 80
    },
    {
      "t": 637.5,
      "ch": 1,
      "note": 36,
      "vel": 86,
      "dur": 25
    },
    {
      "t": 637.5,
      "ch": 1,
      "note": 38,
      "vel": 68,
      "dur": 25
    },
    {
      "t": 637.7,
      "ch": 1,
      "note": 40,
      "vel": 97,
      "dur": 25
    },
    {
      "t": 637.7,
      "ch": 1,
      "note": 42,
      "vel": 59,
      "dur": 25
    },
    {
      "t": 637.7,
      "ch": 7,
      "note": 48,
      "vel": 66,
      "dur": 80
    },
    {
      "t": 637.7,
      "ch": 7,
      "note": 36,
      "vel": 66,
      "dur": 80
    },
    {
      "t": 637.9,
      "ch": 1,
      "note": 36,
      "vel": 76,
      "dur": 25
    },
    {
      "t": 637.9,
      "ch": 1,
      "note": 38,
      "vel": 77,
      "dur": 25
    },
    {
      "t": 638,
      "ch": 1,
      "note": 40,
      "vel": 60,
      "dur": 25
    },
    {
      "t": 638.1,
      "ch": 1,
      "note": 42,
      "vel": 68,
      "dur": 25
    },
    {
      "t": 638.2,
      "ch": 1,
      "note": 36,
      "vel": 81,
      "dur": 25
    },
    {
      "t": 638.2,
      "ch": 1,
      "note": 38,
      "vel": 67,
      "dur": 25
    },
    {
      "t": 638.4,
      "ch": 1,
      "note": 40,
      "vel": 84,
      "dur": 25
    },
    {
      "t": 638.4,
      "ch": 0,
      "note": 36,
      "vel": 109,
      "dur": 55
    },
    {
      "t": 638.4,
      "ch": 1,
      "note": 42,
      "vel": 78,
      "dur": 25
    },
    {
      "t": 638.4,
      "ch": 7,
      "note": 48,
      "vel": 71,
      "dur": 80
    },
    {
      "t": 638.4,
      "ch": 7,
      "note": 45,
      "vel": 87,
      "dur": 80
    },
    {
      "t": 638.4,
      "ch": 7,
      "note": 36,
      "vel": 75,
      "dur": 80
    },
    {
      "t": 638.4,
      "ch": 7,
      "note": 38,
      "vel": 69,
      "dur": 80
    },
    {
      "t": 638.6,
      "ch": 1,
      "note": 36,
      "vel": 83,
      "dur": 25
    },
    {
      "t": 638.6,
      "ch": 1,
      "note": 38,
      "vel": 73,
      "dur": 25
    },
    {
      "t": 638.7,
      "ch": 1,
      "note": 40,
      "vel": 83,
      "dur": 25
    },
    {
      "t": 638.8,
      "ch": 1,
      "note": 42,
      "vel": 64,
      "dur": 25
    },
    {
      "t": 638.8,
      "ch": 7,
      "note": 36,
      "vel": 65,
      "dur": 80
    },
    {
      "t": 638.9,
      "ch": 1,
      "note": 36,
      "vel": 69,
      "dur": 25
    },
    {
      "t": 638.9,
      "ch": 1,
      "note": 38,
      "vel": 67,
      "dur": 25
    },
    {
      "t": 639.1,
      "ch": 1,
      "note": 40,
      "vel": 77,
      "dur": 25
    },
    {
      "t": 639.1,
      "ch": 1,
      "note": 42,
      "vel": 90,
      "dur": 25
    },
    {
      "t": 639.1,
      "ch": 7,
      "note": 48,
      "vel": 70,
      "dur": 80
    },
    {
      "t": 639.1,
      "ch": 7,
      "note": 36,
      "vel": 73,
      "dur": 80
    },
    {
      "t": 639.3,
      "ch": 1,
      "note": 36,
      "vel": 97,
      "dur": 25
    },
    {
      "t": 639.3,
      "ch": 1,
      "note": 38,
      "vel": 76,
      "dur": 25
    },
    {
      "t": 639.3,
      "ch": 7,
      "note": 45,
      "vel": 67,
      "dur": 80
    },
    {
      "t": 639.3,
      "ch": 7,
      "note": 38,
      "vel": 73,
      "dur": 80
    },
    {
      "t": 639.4,
      "ch": 1,
      "note": 40,
      "vel": 70,
      "dur": 25
    },
    {
      "t": 639.5,
      "ch": 1,
      "note": 42,
      "vel": 79,
      "dur": 25
    },
    {
      "t": 639.5,
      "ch": 0,
      "note": 36,
      "vel": 86,
      "dur": 55
    },
    {
      "t": 639.6,
      "ch": 1,
      "note": 36,
      "vel": 78,
      "dur": 25
    },
    {
      "t": 639.6,
      "ch": 1,
      "note": 38,
      "vel": 55,
      "dur": 25
    },
    {
      "t": 639.8,
      "ch": 1,
      "note": 40,
      "vel": 92,
      "dur": 25
    },
    {
      "t": 639.8,
      "ch": 1,
      "note": 42,
      "vel": 79,
      "dur": 25
    },
    {
      "t": 639.8,
      "ch": 7,
      "note": 48,
      "vel": 71,
      "dur": 80
    },
    {
      "t": 639.8,
      "ch": 7,
      "note": 36,
      "vel": 80,
      "dur": 80
    },
    {
      "t": 640,
      "ch": 1,
      "note": 36,
      "vel": 96,
      "dur": 25
    },
    {
      "t": 640,
      "ch": 1,
      "note": 38,
      "vel": 91,
      "dur": 25
    },
    {
      "t": 640.1,
      "ch": 1,
      "note": 40,
      "vel": 75,
      "dur": 25
    },
    {
      "t": 640.1,
      "ch": 1,
      "note": 42,
      "vel": 85,
      "dur": 25
    },
    {
      "t": 640.2,
      "ch": 7,
      "note": 45,
      "vel": 56,
      "dur": 80
    },
    {
      "t": 640.2,
      "ch": 7,
      "note": 36,
      "vel": 56,
      "dur": 80
    },
    {
      "t": 640.2,
      "ch": 7,
      "note": 38,
      "vel": 61,
      "dur": 80
    },
    {
      "t": 640.3,
      "ch": 1,
      "note": 36,
      "vel": 69,
      "dur": 25
    },
    {
      "t": 640.3,
      "ch": 1,
      "note": 38,
      "vel": 70,
      "dur": 25
    },
    {
      "t": 640.5,
      "ch": 1,
      "note": 40,
      "vel": 68,
      "dur": 25
    },
    {
      "t": 640.5,
      "ch": 1,
      "note": 42,
      "vel": 73,
      "dur": 25
    },
    {
      "t": 640.5,
      "ch": 7,
      "note": 48,
      "vel": 63,
      "dur": 80
    },
    {
      "t": 640.5,
      "ch": 7,
      "note": 36,
      "vel": 52,
      "dur": 80
    },
    {
      "t": 640.7,
      "ch": 1,
      "note": 36,
      "vel": 60,
      "dur": 25
    },
    {
      "t": 640.7,
      "ch": 1,
      "note": 38,
      "vel": 91,
      "dur": 25
    },
    {
      "t": 640.8,
      "ch": 1,
      "note": 40,
      "vel": 81,
      "dur": 25
    },
    {
      "t": 640.8,
      "ch": 1,
      "note": 42,
      "vel": 75,
      "dur": 25
    },
    {
      "t": 640.9,
      "ch": 0,
      "note": 36,
      "vel": 84,
      "dur": 55
    },
    {
      "t": 641,
      "ch": 1,
      "note": 36,
      "vel": 83,
      "dur": 25
    },
    {
      "t": 641,
      "ch": 1,
      "note": 38,
      "vel": 58,
      "dur": 25
    },
    {
      "t": 641.2,
      "ch": 1,
      "note": 40,
      "vel": 103,
      "dur": 25
    },
    {
      "t": 641.2,
      "ch": 0,
      "note": 36,
      "vel": 111,
      "dur": 55
    },
    {
      "t": 641.2,
      "ch": 1,
      "note": 42,
      "vel": 62,
      "dur": 25
    },
    {
      "t": 641.2,
      "ch": 7,
      "note": 48,
      "vel": 75,
      "dur": 80
    },
    {
      "t": 641.2,
      "ch": 7,
      "note": 45,
      "vel": 67,
      "dur": 80
    },
    {
      "t": 641.2,
      "ch": 7,
      "note": 36,
      "vel": 70,
      "dur": 80
    },
    {
      "t": 641.2,
      "ch": 7,
      "note": 38,
      "vel": 62,
      "dur": 80
    },
    {
      "t": 641.3,
      "ch": 1,
      "note": 36,
      "vel": 92,
      "dur": 25
    },
    {
      "t": 641.4,
      "ch": 1,
      "note": 38,
      "vel": 83,
      "dur": 25
    },
    {
      "t": 641.5,
      "ch": 1,
      "note": 40,
      "vel": 90,
      "dur": 25
    },
    {
      "t": 641.5,
      "ch": 1,
      "note": 42,
      "vel": 92,
      "dur": 25
    },
    {
      "t": 641.5,
      "ch": 7,
      "note": 36,
      "vel": 60,
      "dur": 80
    },
    {
      "t": 641.7,
      "ch": 1,
      "note": 36,
      "vel": 77,
      "dur": 25
    },
    {
      "t": 641.7,
      "ch": 1,
      "note": 38,
      "vel": 83,
      "dur": 25
    },
    {
      "t": 641.9,
      "ch": 1,
      "note": 40,
      "vel": 69,
      "dur": 25
    },
    {
      "t": 641.9,
      "ch": 1,
      "note": 42,
      "vel": 70,
      "dur": 25
    },
    {
      "t": 641.9,
      "ch": 7,
      "note": 48,
      "vel": 73,
      "dur": 80
    },
    {
      "t": 641.9,
      "ch": 7,
      "note": 36,
      "vel": 63,
      "dur": 80
    },
    {
      "t": 642,
      "ch": 1,
      "note": 36,
      "vel": 100,
      "dur": 25
    },
    {
      "t": 642.1,
      "ch": 1,
      "note": 38,
      "vel": 67,
      "dur": 25
    },
    {
      "t": 642.1,
      "ch": 7,
      "note": 45,
      "vel": 64,
      "dur": 80
    },
    {
      "t": 642.1,
      "ch": 7,
      "note": 38,
      "vel": 53,
      "dur": 80
    },
    {
      "t": 642.2,
      "ch": 1,
      "note": 40,
      "vel": 56,
      "dur": 25
    },
    {
      "t": 642.2,
      "ch": 1,
      "note": 42,
      "vel": 65,
      "dur": 25
    },
    {
      "t": 642.3,
      "ch": 0,
      "note": 36,
      "vel": 79,
      "dur": 55
    },
    {
      "t": 642.4,
      "ch": 1,
      "note": 36,
      "vel": 60,
      "dur": 25
    },
    {
      "t": 642.4,
      "ch": 1,
      "note": 38,
      "vel": 70,
      "dur": 25
    },
    {
      "t": 642.6,
      "ch": 1,
      "note": 40,
      "vel": 74,
      "dur": 25
    },
    {
      "t": 642.6,
      "ch": 1,
      "note": 42,
      "vel": 82,
      "dur": 25
    },
    {
      "t": 642.6,
      "ch": 7,
      "note": 48,
      "vel": 55,
      "dur": 80
    },
    {
      "t": 642.6,
      "ch": 7,
      "note": 36,
      "vel": 64,
      "dur": 80
    },
    {
      "t": 642.7,
      "ch": 1,
      "note": 36,
      "vel": 95,
      "dur": 25
    },
    {
      "t": 642.8,
      "ch": 1,
      "note": 38,
      "vel": 72,
      "dur": 25
    },
    {
      "t": 642.9,
      "ch": 1,
      "note": 40,
      "vel": 77,
      "dur": 25
    },
    {
      "t": 642.9,
      "ch": 1,
      "note": 42,
      "vel": 81,
      "dur": 25
    },
    {
      "t": 642.9,
      "ch": 7,
      "note": 45,
      "vel": 66,
      "dur": 80
    },
    {
      "t": 642.9,
      "ch": 7,
      "note": 36,
      "vel": 57,
      "dur": 80
    },
    {
      "t": 642.9,
      "ch": 7,
      "note": 38,
      "vel": 53,
      "dur": 80
    },
    {
      "t": 643.1,
      "ch": 1,
      "note": 36,
      "vel": 77,
      "dur": 25
    },
    {
      "t": 643.1,
      "ch": 1,
      "note": 38,
      "vel": 64,
      "dur": 25
    },
    {
      "t": 643.3,
      "ch": 1,
      "note": 40,
      "vel": 72,
      "dur": 25
    },
    {
      "t": 643.3,
      "ch": 1,
      "note": 42,
      "vel": 86,
      "dur": 25
    },
    {
      "t": 643.3,
      "ch": 7,
      "note": 48,
      "vel": 75,
      "dur": 80
    },
    {
      "t": 643.3,
      "ch": 7,
      "note": 36,
      "vel": 68,
      "dur": 80
    },
    {
      "t": 643.4,
      "ch": 1,
      "note": 36,
      "vel": 87,
      "dur": 25
    },
    {
      "t": 643.5,
      "ch": 1,
      "note": 38,
      "vel": 58,
      "dur": 25
    },
    {
      "t": 643.6,
      "ch": 1,
      "note": 40,
      "vel": 74,
      "dur": 25
    },
    {
      "t": 643.6,
      "ch": 1,
      "note": 42,
      "vel": 69,
      "dur": 25
    },
    {
      "t": 643.6,
      "ch": 0,
      "note": 36,
      "vel": 85,
      "dur": 55
    },
    {
      "t": 643.8,
      "ch": 1,
      "note": 36,
      "vel": 67,
      "dur": 25
    },
    {
      "t": 643.8,
      "ch": 1,
      "note": 38,
      "vel": 76,
      "dur": 25
    },
    {
      "t": 644,
      "ch": 1,
      "note": 40,
      "vel": 74,
      "dur": 25
    },
    {
      "t": 644,
      "ch": 0,
      "note": 36,
      "vel": 109,
      "dur": 55
    },
    {
      "t": 644,
      "ch": 1,
      "note": 42,
      "vel": 68,
      "dur": 25
    },
    {
      "t": 644,
      "ch": 7,
      "note": 48,
      "vel": 74,
      "dur": 80
    },
    {
      "t": 644,
      "ch": 7,
      "note": 45,
      "vel": 67,
      "dur": 80
    },
    {
      "t": 644,
      "ch": 7,
      "note": 36,
      "vel": 58,
      "dur": 80
    },
    {
      "t": 644,
      "ch": 7,
      "note": 38,
      "vel": 65,
      "dur": 80
    },
    {
      "t": 644.1,
      "ch": 1,
      "note": 36,
      "vel": 67,
      "dur": 25
    },
    {
      "t": 644.2,
      "ch": 1,
      "note": 38,
      "vel": 94,
      "dur": 25
    },
    {
      "t": 644.3,
      "ch": 1,
      "note": 40,
      "vel": 65,
      "dur": 25
    },
    {
      "t": 644.3,
      "ch": 1,
      "note": 42,
      "vel": 61,
      "dur": 25
    },
    {
      "t": 644.3,
      "ch": 7,
      "note": 36,
      "vel": 52,
      "dur": 80
    },
    {
      "t": 644.5,
      "ch": 1,
      "note": 36,
      "vel": 94,
      "dur": 25
    },
    {
      "t": 644.5,
      "ch": 1,
      "note": 38,
      "vel": 62,
      "dur": 25
    },
    {
      "t": 644.7,
      "ch": 1,
      "note": 40,
      "vel": 62,
      "dur": 25
    },
    {
      "t": 644.7,
      "ch": 1,
      "note": 42,
      "vel": 77,
      "dur": 25
    },
    {
      "t": 644.7,
      "ch": 7,
      "note": 48,
      "vel": 81,
      "dur": 80
    },
    {
      "t": 644.7,
      "ch": 7,
      "note": 36,
      "vel": 68,
      "dur": 80
    },
    {
      "t": 644.8,
      "ch": 1,
      "note": 36,
      "vel": 60,
      "dur": 25
    },
    {
      "t": 644.9,
      "ch": 1,
      "note": 38,
      "vel": 64,
      "dur": 25
    },
    {
      "t": 644.9,
      "ch": 7,
      "note": 45,
      "vel": 60,
      "dur": 80
    },
    {
      "t": 644.9,
      "ch": 7,
      "note": 38,
      "vel": 63,
      "dur": 80
    },
    {
      "t": 645,
      "ch": 1,
      "note": 40,
      "vel": 47,
      "dur": 25
    },
    {
      "t": 645,
      "ch": 1,
      "note": 42,
      "vel": 58,
      "dur": 25
    },
    {
      "t": 645,
      "ch": 0,
      "note": 36,
      "vel": 83,
      "dur": 55
    },
    {
      "t": 645.2,
      "ch": 1,
      "note": 36,
      "vel": 82,
      "dur": 25
    },
    {
      "t": 645.2,
      "ch": 1,
      "note": 38,
      "vel": 73,
      "dur": 25
    },
    {
      "t": 645.4,
      "ch": 0,
      "note": 36,
      "vel": 83,
      "dur": 55
    },
    {
      "t": 645.4,
      "ch": 7,
      "note": 48,
      "vel": 69,
      "dur": 80
    },
    {
      "t": 645.4,
      "ch": 7,
      "note": 36,
      "vel": 64,
      "dur": 80
    },
    {
      "t": 645.5,
      "ch": 1,
      "note": 40,
      "vel": 73,
      "dur": 25
    },
    {
      "t": 645.5,
      "ch": 1,
      "note": 42,
      "vel": 108,
      "dur": 25
    },
    {
      "t": 645.5,
      "ch": 1,
      "note": 36,
      "vel": 83,
      "dur": 25
    },
    {
      "t": 645.6,
      "ch": 1,
      "note": 38,
      "vel": 90,
      "dur": 25
    },
    {
      "t": 645.7,
      "ch": 1,
      "note": 40,
      "vel": 69,
      "dur": 25
    },
    {
      "t": 645.7,
      "ch": 1,
      "note": 42,
      "vel": 101,
      "dur": 25
    },
    {
      "t": 645.7,
      "ch": 7,
      "note": 45,
      "vel": 73,
      "dur": 80
    },
    {
      "t": 645.7,
      "ch": 7,
      "note": 38,
      "vel": 63,
      "dur": 80
    },
    {
      "t": 645.7,
      "ch": 7,
      "note": 36,
      "vel": 69,
      "dur": 80
    },
    {
      "t": 645.9,
      "ch": 1,
      "note": 36,
      "vel": 72,
      "dur": 25
    },
    {
      "t": 645.9,
      "ch": 1,
      "note": 38,
      "vel": 61,
      "dur": 25
    },
    {
      "t": 646.1,
      "ch": 1,
      "note": 40,
      "vel": 79,
      "dur": 25
    },
    {
      "t": 646.1,
      "ch": 1,
      "note": 42,
      "vel": 86,
      "dur": 25
    },
    {
      "t": 646.1,
      "ch": 7,
      "note": 48,
      "vel": 75,
      "dur": 80
    },
    {
      "t": 646.1,
      "ch": 7,
      "note": 36,
      "vel": 67,
      "dur": 80
    },
    {
      "t": 646.2,
      "ch": 1,
      "note": 36,
      "vel": 81,
      "dur": 25
    },
    {
      "t": 646.2,
      "ch": 1,
      "note": 38,
      "vel": 90,
      "dur": 25
    },
    {
      "t": 646.4,
      "ch": 1,
      "note": 40,
      "vel": 96,
      "dur": 25
    },
    {
      "t": 646.4,
      "ch": 1,
      "note": 42,
      "vel": 69,
      "dur": 25
    },
    {
      "t": 646.4,
      "ch": 0,
      "note": 36,
      "vel": 85,
      "dur": 55
    },
    {
      "t": 646.6,
      "ch": 1,
      "note": 36,
      "vel": 63,
      "dur": 25
    },
    {
      "t": 646.6,
      "ch": 1,
      "note": 38,
      "vel": 82,
      "dur": 25
    },
    {
      "t": 646.8,
      "ch": 1,
      "note": 40,
      "vel": 86,
      "dur": 25
    },
    {
      "t": 646.8,
      "ch": 7,
      "note": 48,
      "vel": 69,
      "dur": 80
    },
    {
      "t": 646.8,
      "ch": 7,
      "note": 45,
      "vel": 60,
      "dur": 80
    },
    {
      "t": 646.8,
      "ch": 7,
      "note": 36,
      "vel": 65,
      "dur": 80
    },
    {
      "t": 646.8,
      "ch": 7,
      "note": 38,
      "vel": 64,
      "dur": 80
    },
    {
      "t": 647.1,
      "ch": 7,
      "note": 36,
      "vel": 64,
      "dur": 80
    },
    {
      "t": 647.5,
      "ch": 7,
      "note": 48,
      "vel": 63,
      "dur": 80
    },
    {
      "t": 647.5,
      "ch": 7,
      "note": 36,
      "vel": 68,
      "dur": 80
    },
    {
      "t": 647.5,
      "ch": 5,
      "note": 80,
      "vel": 57,
      "dur": 994
    },
    {
      "t": 647.7,
      "ch": 7,
      "note": 45,
      "vel": 66,
      "dur": 80
    },
    {
      "t": 647.7,
      "ch": 7,
      "note": 38,
      "vel": 62,
      "dur": 80
    },
    {
      "t": 648.1,
      "ch": 2,
      "note": 58,
      "vel": 54,
      "dur": 20930
    },
    {
      "t": 648.2,
      "ch": 7,
      "note": 48,
      "vel": 65,
      "dur": 80
    },
    {
      "t": 648.2,
      "ch": 7,
      "note": 36,
      "vel": 79,
      "dur": 80
    },
    {
      "t": 648.2,
      "ch": 6,
      "note": 59,
      "vel": 25,
      "dur": 661
    },
    {
      "t": 648.5,
      "ch": 7,
      "note": 45,
      "vel": 60,
      "dur": 80
    },
    {
      "t": 648.5,
      "ch": 7,
      "note": 36,
      "vel": 66,
      "dur": 80
    },
    {
      "t": 648.5,
      "ch": 7,
      "note": 38,
      "vel": 58,
      "dur": 80
    },
    {
      "t": 648.9,
      "ch": 7,
      "note": 48,
      "vel": 72,
      "dur": 80
    },
    {
      "t": 648.9,
      "ch": 7,
      "note": 36,
      "vel": 76,
      "dur": 80
    },
    {
      "t": 649.6,
      "ch": 7,
      "note": 48,
      "vel": 67,
      "dur": 80
    },
    {
      "t": 649.6,
      "ch": 7,
      "note": 45,
      "vel": 71,
      "dur": 80
    },
    {
      "t": 649.6,
      "ch": 7,
      "note": 36,
      "vel": 79,
      "dur": 80
    },
    {
      "t": 649.6,
      "ch": 7,
      "note": 38,
      "vel": 69,
      "dur": 80
    },
    {
      "t": 649.9,
      "ch": 7,
      "note": 36,
      "vel": 66,
      "dur": 80
    },
    {
      "t": 650.3,
      "ch": 7,
      "note": 48,
      "vel": 66,
      "dur": 80
    },
    {
      "t": 650.3,
      "ch": 7,
      "note": 36,
      "vel": 78,
      "dur": 80
    },
    {
      "t": 650.5,
      "ch": 7,
      "note": 45,
      "vel": 62,
      "dur": 80
    },
    {
      "t": 650.5,
      "ch": 7,
      "note": 38,
      "vel": 64,
      "dur": 80
    },
    {
      "t": 650.6,
      "ch": 5,
      "note": 77,
      "vel": 28,
      "dur": 978
    },
    {
      "t": 650.9,
      "ch": 4,
      "note": 65,
      "vel": 39,
      "dur": 5531
    },
    {
      "t": 650.9,
      "ch": 4,
      "note": 68,
      "vel": 53,
      "dur": 5531
    },
    {
      "t": 651,
      "ch": 7,
      "note": 48,
      "vel": 69,
      "dur": 80
    },
    {
      "t": 651,
      "ch": 7,
      "note": 36,
      "vel": 62,
      "dur": 80
    },
    {
      "t": 651.3,
      "ch": 7,
      "note": 45,
      "vel": 58,
      "dur": 80
    },
    {
      "t": 651.3,
      "ch": 7,
      "note": 36,
      "vel": 52,
      "dur": 80
    },
    {
      "t": 651.3,
      "ch": 7,
      "note": 38,
      "vel": 53,
      "dur": 80
    },
    {
      "t": 651.7,
      "ch": 7,
      "note": 48,
      "vel": 68,
      "dur": 80
    },
    {
      "t": 651.7,
      "ch": 7,
      "note": 36,
      "vel": 66,
      "dur": 80
    },
    {
      "t": 652.4,
      "ch": 7,
      "note": 48,
      "vel": 75,
      "dur": 80
    },
    {
      "t": 652.4,
      "ch": 7,
      "note": 45,
      "vel": 70,
      "dur": 80
    },
    {
      "t": 652.4,
      "ch": 7,
      "note": 36,
      "vel": 72,
      "dur": 80
    },
    {
      "t": 652.4,
      "ch": 7,
      "note": 38,
      "vel": 65,
      "dur": 80
    },
    {
      "t": 652.7,
      "ch": 7,
      "note": 36,
      "vel": 76,
      "dur": 80
    },
    {
      "t": 652.9,
      "ch": 6,
      "note": 75,
      "vel": 9,
      "dur": 642
    },
    {
      "t": 653.1,
      "ch": 7,
      "note": 48,
      "vel": 72,
      "dur": 80
    },
    {
      "t": 653.1,
      "ch": 7,
      "note": 36,
      "vel": 72,
      "dur": 80
    },
    {
      "t": 653.1,
      "ch": 6,
      "note": 75,
      "vel": 17,
      "dur": 641
    },
    {
      "t": 653.2,
      "ch": 7,
      "note": 45,
      "vel": 70,
      "dur": 80
    },
    {
      "t": 653.2,
      "ch": 7,
      "note": 38,
      "vel": 65,
      "dur": 80
    },
    {
      "t": 653.8,
      "ch": 7,
      "note": 48,
      "vel": 76,
      "dur": 80
    },
    {
      "t": 653.8,
      "ch": 7,
      "note": 36,
      "vel": 69,
      "dur": 80
    },
    {
      "t": 654.1,
      "ch": 7,
      "note": 45,
      "vel": 60,
      "dur": 80
    },
    {
      "t": 654.1,
      "ch": 7,
      "note": 36,
      "vel": 55,
      "dur": 80
    },
    {
      "t": 654.1,
      "ch": 7,
      "note": 38,
      "vel": 72,
      "dur": 80
    },
    {
      "t": 654.5,
      "ch": 7,
      "note": 48,
      "vel": 74,
      "dur": 80
    },
    {
      "t": 654.5,
      "ch": 7,
      "note": 36,
      "vel": 65,
      "dur": 80
    },
    {
      "t": 655.2,
      "ch": 0,
      "note": 36,
      "vel": 127,
      "dur": 55
    },
    {
      "t": 655.2,
      "ch": 7,
      "note": 48,
      "vel": 68,
      "dur": 80
    },
    {
      "t": 655.2,
      "ch": 7,
      "note": 45,
      "vel": 74,
      "dur": 80
    },
    {
      "t": 655.2,
      "ch": 7,
      "note": 36,
      "vel": 60,
      "dur": 80
    },
    {
      "t": 655.2,
      "ch": 7,
      "note": 38,
      "vel": 74,
      "dur": 80
    },
    {
      "t": 655.5,
      "ch": 7,
      "note": 36,
      "vel": 70,
      "dur": 80
    },
    {
      "t": 655.9,
      "ch": 7,
      "note": 48,
      "vel": 76,
      "dur": 80
    },
    {
      "t": 655.9,
      "ch": 7,
      "note": 36,
      "vel": 69,
      "dur": 80
    },
    {
      "t": 656,
      "ch": 7,
      "note": 45,
      "vel": 54,
      "dur": 80
    },
    {
      "t": 656,
      "ch": 7,
      "note": 38,
      "vel": 59,
      "dur": 80
    },
    {
      "t": 656.2,
      "ch": 0,
      "note": 36,
      "vel": 79,
      "dur": 55
    },
    {
      "t": 656.5,
      "ch": 4,
      "note": 63,
      "vel": 42,
      "dur": 5531
    },
    {
      "t": 656.5,
      "ch": 4,
      "note": 68,
      "vel": 59,
      "dur": 5531
    },
    {
      "t": 656.5,
      "ch": 3,
      "note": 39,
      "vel": 45,
      "dur": 5581
    },
    {
      "t": 656.5,
      "ch": 7,
      "note": 48,
      "vel": 78,
      "dur": 80
    },
    {
      "t": 656.5,
      "ch": 7,
      "note": 36,
      "vel": 82,
      "dur": 80
    },
    {
      "t": 656.9,
      "ch": 7,
      "note": 45,
      "vel": 69,
      "dur": 80
    },
    {
      "t": 656.9,
      "ch": 7,
      "note": 36,
      "vel": 55,
      "dur": 80
    },
    {
      "t": 656.9,
      "ch": 7,
      "note": 38,
      "vel": 47,
      "dur": 80
    },
    {
      "t": 657.1,
      "ch": 5,
      "note": 73,
      "vel": 10,
      "dur": 948
    },
    {
      "t": 657.2,
      "ch": 7,
      "note": 48,
      "vel": 53,
      "dur": 80
    },
    {
      "t": 657.2,
      "ch": 7,
      "note": 36,
      "vel": 63,
      "dur": 80
    },
    {
      "t": 657.6,
      "ch": 0,
      "note": 36,
      "vel": 82,
      "dur": 55
    },
    {
      "t": 657.9,
      "ch": 7,
      "note": 48,
      "vel": 51,
      "dur": 80
    },
    {
      "t": 657.9,
      "ch": 7,
      "note": 45,
      "vel": 72,
      "dur": 80
    },
    {
      "t": 657.9,
      "ch": 7,
      "note": 36,
      "vel": 77,
      "dur": 80
    },
    {
      "t": 657.9,
      "ch": 7,
      "note": 38,
      "vel": 62,
      "dur": 80
    },
    {
      "t": 658.3,
      "ch": 7,
      "note": 36,
      "vel": 57,
      "dur": 80
    },
    {
      "t": 658.6,
      "ch": 7,
      "note": 48,
      "vel": 77,
      "dur": 80
    },
    {
      "t": 658.6,
      "ch": 7,
      "note": 36,
      "vel": 75,
      "dur": 80
    },
    {
      "t": 658.8,
      "ch": 7,
      "note": 45,
      "vel": 73,
      "dur": 80
    },
    {
      "t": 658.8,
      "ch": 7,
      "note": 38,
      "vel": 65,
      "dur": 80
    },
    {
      "t": 659.3,
      "ch": 2,
      "note": 58,
      "vel": 0,
      "dur": 0
    },
    {
      "t": 659.3,
      "ch": 2,
      "note": 70,
      "vel": 0,
      "dur": 0
    },
    {
      "t": 659.3,
      "ch": 2,
      "note": 56,
      "vel": 55,
      "dur": 20930
    },
    {
      "t": 659.3,
      "ch": 7,
      "note": 48,
      "vel": 63,
      "dur": 80
    },
    {
      "t": 659.3,
      "ch": 7,
      "note": 36,
      "vel": 73,
      "dur": 80
    },
    {
      "t": 659.7,
      "ch": 7,
      "note": 45,
      "vel": 71,
      "dur": 80
    },
    {
      "t": 659.7,
      "ch": 7,
      "note": 36,
      "vel": 52,
      "dur": 80
    },
    {
      "t": 659.7,
      "ch": 7,
      "note": 38,
      "vel": 52,
      "dur": 80
    },
    {
      "t": 660,
      "ch": 7,
      "note": 48,
      "vel": 76,
      "dur": 80
    },
    {
      "t": 660,
      "ch": 7,
      "note": 36,
      "vel": 77,
      "dur": 80
    },
    {
      "t": 660.7,
      "ch": 0,
      "note": 36,
      "vel": 116,
      "dur": 55
    },
    {
      "t": 660.7,
      "ch": 7,
      "note": 48,
      "vel": 66,
      "dur": 80
    },
    {
      "t": 660.7,
      "ch": 7,
      "note": 45,
      "vel": 71,
      "dur": 80
    },
    {
      "t": 660.7,
      "ch": 7,
      "note": 36,
      "vel": 77,
      "dur": 80
    },
    {
      "t": 660.7,
      "ch": 7,
      "note": 38,
      "vel": 83,
      "dur": 80
    },
    {
      "t": 661.1,
      "ch": 7,
      "note": 36,
      "vel": 62,
      "dur": 80
    },
    {
      "t": 661.4,
      "ch": 7,
      "note": 48,
      "vel": 65,
      "dur": 80
    },
    {
      "t": 661.4,
      "ch": 7,
      "note": 36,
      "vel": 63,
      "dur": 80
    },
    {
      "t": 661.6,
      "ch": 7,
      "note": 45,
      "vel": 71,
      "dur": 80
    },
    {
      "t": 661.6,
      "ch": 7,
      "note": 38,
      "vel": 61,
      "dur": 80
    },
    {
      "t": 661.8,
      "ch": 0,
      "note": 36,
      "vel": 84,
      "dur": 55
    },
    {
      "t": 662,
      "ch": 4,
      "note": 63,
      "vel": 40,
      "dur": 5531
    },
    {
      "t": 662,
      "ch": 4,
      "note": 70,
      "vel": 39,
      "dur": 5531
    },
    {
      "t": 662,
      "ch": 3,
      "note": 46,
      "vel": 43,
      "dur": 5581
    },
    {
      "t": 662.1,
      "ch": 7,
      "note": 48,
      "vel": 68,
      "dur": 80
    },
    {
      "t": 662.1,
      "ch": 7,
      "note": 36,
      "vel": 63,
      "dur": 80
    },
    {
      "t": 662.5,
      "ch": 7,
      "note": 45,
      "vel": 61,
      "dur": 80
    },
    {
      "t": 662.5,
      "ch": 7,
      "note": 36,
      "vel": 56,
      "dur": 80
    },
    {
      "t": 662.5,
      "ch": 7,
      "note": 38,
      "vel": 67,
      "dur": 80
    },
    {
      "t": 662.8,
      "ch": 7,
      "note": 48,
      "vel": 74,
      "dur": 80
    },
    {
      "t": 662.8,
      "ch": 7,
      "note": 36,
      "vel": 68,
      "dur": 80
    },
    {
      "t": 663.2,
      "ch": 0,
      "note": 36,
      "vel": 82,
      "dur": 55
    },
    {
      "t": 663.5,
      "ch": 0,
      "note": 36,
      "vel": 117,
      "dur": 55
    },
    {
      "t": 663.5,
      "ch": 7,
      "note": 48,
      "vel": 66,
      "dur": 80
    },
    {
      "t": 663.5,
      "ch": 7,
      "note": 45,
      "vel": 71,
      "dur": 80
    },
    {
      "t": 663.5,
      "ch": 7,
      "note": 36,
      "vel": 74,
      "dur": 80
    },
    {
      "t": 663.5,
      "ch": 7,
      "note": 38,
      "vel": 64,
      "dur": 80
    },
    {
      "t": 663.9,
      "ch": 7,
      "note": 36,
      "vel": 65,
      "dur": 80
    },
    {
      "t": 664.2,
      "ch": 7,
      "note": 48,
      "vel": 70,
      "dur": 80
    },
    {
      "t": 664.2,
      "ch": 7,
      "note": 36,
      "vel": 65,
      "dur": 80
    },
    {
      "t": 664.2,
      "ch": 5,
      "note": 82,
      "vel": 27,
      "dur": 977
    },
    {
      "t": 664.4,
      "ch": 7,
      "note": 45,
      "vel": 73,
      "dur": 80
    },
    {
      "t": 664.4,
      "ch": 7,
      "note": 38,
      "vel": 56,
      "dur": 80
    },
    {
      "t": 664.6,
      "ch": 0,
      "note": 36,
      "vel": 81,
      "dur": 55
    },
    {
      "t": 664.9,
      "ch": 7,
      "note": 48,
      "vel": 71,
      "dur": 80
    },
    {
      "t": 664.9,
      "ch": 7,
      "note": 36,
      "vel": 63,
      "dur": 80
    },
    {
      "t": 665.3,
      "ch": 7,
      "note": 45,
      "vel": 63,
      "dur": 80
    },
    {
      "t": 665.3,
      "ch": 7,
      "note": 36,
      "vel": 64,
      "dur": 80
    },
    {
      "t": 665.3,
      "ch": 7,
      "note": 38,
      "vel": 62,
      "dur": 80
    },
    {
      "t": 665.6,
      "ch": 7,
      "note": 48,
      "vel": 77,
      "dur": 80
    },
    {
      "t": 665.6,
      "ch": 7,
      "note": 36,
      "vel": 58,
      "dur": 80
    },
    {
      "t": 665.6,
      "ch": 5,
      "note": 46,
      "vel": 12,
      "dur": 984
    },
    {
      "t": 666,
      "ch": 0,
      "note": 36,
      "vel": 90,
      "dur": 55
    },
    {
      "t": 666.3,
      "ch": 0,
      "note": 36,
      "vel": 107,
      "dur": 55
    },
    {
      "t": 666.3,
      "ch": 7,
      "note": 48,
      "vel": 73,
      "dur": 80
    },
    {
      "t": 666.3,
      "ch": 7,
      "note": 45,
      "vel": 60,
      "dur": 80
    },
    {
      "t": 666.3,
      "ch": 7,
      "note": 36,
      "vel": 69,
      "dur": 80
    },
    {
      "t": 666.3,
      "ch": 7,
      "note": 38,
      "vel": 73,
      "dur": 80
    },
    {
      "t": 666.7,
      "ch": 7,
      "note": 36,
      "vel": 52,
      "dur": 80
    },
    {
      "t": 667,
      "ch": 7,
      "note": 48,
      "vel": 64,
      "dur": 80
    },
    {
      "t": 667,
      "ch": 7,
      "note": 36,
      "vel": 63,
      "dur": 80
    },
    {
      "t": 667.2,
      "ch": 7,
      "note": 45,
      "vel": 71,
      "dur": 80
    },
    {
      "t": 667.2,
      "ch": 7,
      "note": 38,
      "vel": 61,
      "dur": 80
    },
    {
      "t": 667.4,
      "ch": 0,
      "note": 36,
      "vel": 79,
      "dur": 55
    },
    {
      "t": 667.6,
      "ch": 4,
      "note": 63,
      "vel": 36,
      "dur": 5531
    },
    {
      "t": 667.6,
      "ch": 4,
      "note": 70,
      "vel": 35,
      "dur": 5531
    },
    {
      "t": 667.6,
      "ch": 3,
      "note": 46,
      "vel": 39,
      "dur": 5581
    },
    {
      "t": 667.7,
      "ch": 7,
      "note": 48,
      "vel": 66,
      "dur": 80
    },
    {
      "t": 667.7,
      "ch": 7,
      "note": 36,
      "vel": 69,
      "dur": 80
    },
    {
      "t": 668.1,
      "ch": 7,
      "note": 45,
      "vel": 60,
      "dur": 80
    },
    {
      "t": 668.1,
      "ch": 7,
      "note": 36,
      "vel": 53,
      "dur": 80
    },
    {
      "t": 668.1,
      "ch": 7,
      "note": 38,
      "vel": 69,
      "dur": 80
    },
    {
      "t": 668.4,
      "ch": 7,
      "note": 48,
      "vel": 59,
      "dur": 80
    },
    {
      "t": 668.4,
      "ch": 7,
      "note": 36,
      "vel": 74,
      "dur": 80
    },
    {
      "t": 668.8,
      "ch": 0,
      "note": 36,
      "vel": 78,
      "dur": 55
    },
    {
      "t": 669.1,
      "ch": 0,
      "note": 36,
      "vel": 112,
      "dur": 55
    },
    {
      "t": 669.1,
      "ch": 7,
      "note": 48,
      "vel": 64,
      "dur": 80
    },
    {
      "t": 669.1,
      "ch": 7,
      "note": 45,
      "vel": 74,
      "dur": 80
    },
    {
      "t": 669.1,
      "ch": 7,
      "note": 36,
      "vel": 68,
      "dur": 80
    },
    {
      "t": 669.1,
      "ch": 7,
      "note": 38,
      "vel": 72,
      "dur": 80
    },
    {
      "t": 669.5,
      "ch": 7,
      "note": 36,
      "vel": 59,
      "dur": 80
    },
    {
      "t": 669.8,
      "ch": 7,
      "note": 48,
      "vel": 67,
      "dur": 80
    },
    {
      "t": 669.8,
      "ch": 7,
      "note": 36,
      "vel": 73,
      "dur": 80
    },
    {
      "t": 670,
      "ch": 7,
      "note": 45,
      "vel": 55,
      "dur": 80
    },
    {
      "t": 670,
      "ch": 7,
      "note": 38,
      "vel": 60,
      "dur": 80
    },
    {
      "t": 670.2,
      "ch": 0,
      "note": 36,
      "vel": 84,
      "dur": 55
    },
    {
      "t": 670.4,
      "ch": 2,
      "note": 56,
      "vel": 0,
      "dur": 0
    },
    {
      "t": 670.5,
      "ch": 7,
      "note": 48,
      "vel": 71,
      "dur": 80
    },
    {
      "t": 670.5,
      "ch": 7,
      "note": 36,
      "vel": 63,
      "dur": 80
    },
    {
      "t": 670.9,
      "ch": 7,
      "note": 45,
      "vel": 68,
      "dur": 80
    },
    {
      "t": 670.9,
      "ch": 7,
      "note": 36,
      "vel": 64,
      "dur": 80
    },
    {
      "t": 670.9,
      "ch": 7,
      "note": 38,
      "vel": 58,
      "dur": 80
    },
    {
      "t": 671.2,
      "ch": 7,
      "note": 48,
      "vel": 69,
      "dur": 80
    },
    {
      "t": 671.2,
      "ch": 7,
      "note": 36,
      "vel": 74,
      "dur": 80
    },
    {
      "t": 671.4,
      "ch": 6,
      "note": 58,
      "vel": 5,
      "dur": 656
    },
    {
      "t": 671.6,
      "ch": 0,
      "note": 36,
      "vel": 82,
      "dur": 55
    },
    {
      "t": 671.6,
      "ch": 6,
      "note": 71,
      "vel": 1,
      "dur": 656
    },
    {
      "t": 671.7,
      "ch": 0,
      "note": 36,
      "vel": 74,
      "dur": 55
    },
    {
      "t": 671.9,
      "ch": 0,
      "note": 36,
      "vel": 117,
      "dur": 55
    },
    {
      "t": 671.9,
      "ch": 7,
      "note": 48,
      "vel": 66,
      "dur": 80
    },
    {
      "t": 671.9,
      "ch": 7,
      "note": 45,
      "vel": 69,
      "dur": 80
    },
    {
      "t": 671.9,
      "ch": 7,
      "note": 36,
      "vel": 69,
      "dur": 80
    },
    {
      "t": 671.9,
      "ch": 7,
      "note": 38,
      "vel": 51,
      "dur": 80
    },
    {
      "t": 672.2,
      "ch": 7,
      "note": 36,
      "vel": 64,
      "dur": 80
    },
    {
      "t": 672.6,
      "ch": 7,
      "note": 48,
      "vel": 73,
      "dur": 80
    },
    {
      "t": 672.6,
      "ch": 7,
      "note": 36,
      "vel": 82,
      "dur": 80
    },
    {
      "t": 672.8,
      "ch": 7,
      "note": 45,
      "vel": 54,
      "dur": 80
    },
    {
      "t": 672.8,
      "ch": 7,
      "note": 38,
      "vel": 72,
      "dur": 80
    },
    {
      "t": 672.9,
      "ch": 0,
      "note": 36,
      "vel": 89,
      "dur": 55
    },
    {
      "t": 673.2,
      "ch": 4,
      "note": 64,
      "vel": 35,
      "dur": 2790
    },
    {
      "t": 673.2,
      "ch": 4,
      "note": 63,
      "vel": 41,
      "dur": 2740
    },
    {
      "t": 673.2,
      "ch": 4,
      "note": 65,
      "vel": 39,
      "dur": 5531
    },
    {
      "t": 673.2,
      "ch": 3,
      "note": 39,
      "vel": 42,
      "dur": 5581
    },
    {
      "t": 673.3,
      "ch": 7,
      "note": 48,
      "vel": 68,
      "dur": 80
    },
    {
      "t": 673.3,
      "ch": 7,
      "note": 36,
      "vel": 68,
      "dur": 80
    },
    {
      "t": 673.6,
      "ch": 7,
      "note": 45,
      "vel": 67,
      "dur": 80
    },
    {
      "t": 673.6,
      "ch": 7,
      "note": 36,
      "vel": 73,
      "dur": 80
    },
    {
      "t": 673.6,
      "ch": 7,
      "note": 38,
      "vel": 61,
      "dur": 80
    },
    {
      "t": 674,
      "ch": 7,
      "note": 48,
      "vel": 71,
      "dur": 80
    },
    {
      "t": 674,
      "ch": 7,
      "note": 36,
      "vel": 66,
      "dur": 80
    },
    {
      "t": 674.3,
      "ch": 0,
      "note": 36,
      "vel": 86,
      "dur": 55
    },
    {
      "t": 674.7,
      "ch": 0,
      "note": 36,
      "vel": 112,
      "dur": 55
    },
    {
      "t": 674.7,
      "ch": 7,
      "note": 48,
      "vel": 79,
      "dur": 80
    },
    {
      "t": 674.7,
      "ch": 7,
      "note": 45,
      "vel": 70,
      "dur": 80
    },
    {
      "t": 674.7,
      "ch": 7,
      "note": 36,
      "vel": 62,
      "dur": 80
    },
    {
      "t": 674.7,
      "ch": 7,
      "note": 38,
      "vel": 61,
      "dur": 80
    },
    {
      "t": 675,
      "ch": 7,
      "note": 36,
      "vel": 66,
      "dur": 80
    },
    {
      "t": 675.4,
      "ch": 7,
      "note": 48,
      "vel": 69,
      "dur": 80
    },
    {
      "t": 675.4,
      "ch": 7,
      "note": 36,
      "vel": 77,
      "dur": 80
    },
    {
      "t": 675.6,
      "ch": 7,
      "note": 45,
      "vel": 45,
      "dur": 80
    },
    {
      "t": 675.6,
      "ch": 7,
      "note": 38,
      "vel": 65,
      "dur": 80
    },
    {
      "t": 675.7,
      "ch": 0,
      "note": 36,
      "vel": 84,
      "dur": 55
    },
    {
      "t": 676.1,
      "ch": 7,
      "note": 48,
      "vel": 81,
      "dur": 80
    },
    {
      "t": 676.1,
      "ch": 7,
      "note": 36,
      "vel": 75,
      "dur": 80
    },
    {
      "t": 676.4,
      "ch": 7,
      "note": 45,
      "vel": 63,
      "dur": 80
    },
    {
      "t": 676.4,
      "ch": 7,
      "note": 36,
      "vel": 51,
      "dur": 80
    },
    {
      "t": 676.4,
      "ch": 7,
      "note": 38,
      "vel": 64,
      "dur": 80
    },
    {
      "t": 676.8,
      "ch": 7,
      "note": 48,
      "vel": 73,
      "dur": 80
    },
    {
      "t": 676.8,
      "ch": 7,
      "note": 36,
      "vel": 53,
      "dur": 80
    },
    {
      "t": 677,
      "ch": 5,
      "note": 80,
      "vel": 31,
      "dur": 952
    },
    {
      "t": 677.1,
      "ch": 0,
      "note": 36,
      "vel": 81,
      "dur": 55
    },
    {
      "t": 677.5,
      "ch": 0,
      "note": 36,
      "vel": 110,
      "dur": 55
    },
    {
      "t": 677.5,
      "ch": 7,
      "note": 48,
      "vel": 72,
      "dur": 80
    },
    {
      "t": 677.5,
      "ch": 7,
      "note": 45,
      "vel": 71,
      "dur": 80
    },
    {
      "t": 677.5,
      "ch": 7,
      "note": 36,
      "vel": 77,
      "dur": 80
    },
    {
      "t": 677.5,
      "ch": 7,
      "note": 38,
      "vel": 66,
      "dur": 80
    },
    {
      "t": 677.7,
      "ch": 5,
      "note": 77,
      "vel": 33,
      "dur": 949
    },
    {
      "t": 677.8,
      "ch": 7,
      "note": 36,
      "vel": 60,
      "dur": 80
    },
    {
      "t": 678.2,
      "ch": 7,
      "note": 48,
      "vel": 73,
      "dur": 80
    },
    {
      "t": 678.2,
      "ch": 7,
      "note": 36,
      "vel": 71,
      "dur": 80
    },
    {
      "t": 678.4,
      "ch": 7,
      "note": 45,
      "vel": 63,
      "dur": 80
    },
    {
      "t": 678.4,
      "ch": 7,
      "note": 38,
      "vel": 64,
      "dur": 80
    },
    {
      "t": 678.5,
      "ch": 0,
      "note": 36,
      "vel": 84,
      "dur": 55
    },
    {
      "t": 678.8,
      "ch": 4,
      "note": 63,
      "vel": 44,
      "dur": 5531
    },
    {
      "t": 678.8,
      "ch": 4,
      "note": 65,
      "vel": 42,
      "dur": 5531
    },
    {
      "t": 678.8,
      "ch": 3,
      "note": 53,
      "vel": 46,
      "dur": 5581
    },
    {
      "t": 678.9,
      "ch": 7,
      "note": 48,
      "vel": 70,
      "dur": 80
    },
    {
      "t": 678.9,
      "ch": 7,
      "note": 36,
      "vel": 68,
      "dur": 80
    },
    {
      "t": 679.2,
      "ch": 7,
      "note": 45,
      "vel": 54,
      "dur": 80
    },
    {
      "t": 679.2,
      "ch": 7,
      "note": 36,
      "vel": 66,
      "dur": 80
    },
    {
      "t": 679.2,
      "ch": 7,
      "note": 38,
      "vel": 66,
      "dur": 80
    },
    {
      "t": 679.6,
      "ch": 7,
      "note": 48,
      "vel": 61,
      "dur": 80
    },
    {
      "t": 679.6,
      "ch": 7,
      "note": 36,
      "vel": 62,
      "dur": 80
    },
    {
      "t": 679.9,
      "ch": 0,
      "note": 36,
      "vel": 75,
      "dur": 55
    },
    {
      "t": 680.3,
      "ch": 7,
      "note": 48,
      "vel": 76,
      "dur": 80
    },
    {
      "t": 680.3,
      "ch": 7,
      "note": 45,
      "vel": 69,
      "dur": 80
    },
    {
      "t": 680.3,
      "ch": 7,
      "note": 36,
      "vel": 72,
      "dur": 80
    },
    {
      "t": 680.3,
      "ch": 7,
      "note": 38,
      "vel": 78,
      "dur": 80
    },
    {
      "t": 680.5,
      "ch": 6,
      "note": 68,
      "vel": 27,
      "dur": 629
    },
    {
      "t": 680.6,
      "ch": 7,
      "note": 36,
      "vel": 54,
      "dur": 80
    },
    {
      "t": 681,
      "ch": 7,
      "note": 48,
      "vel": 75,
      "dur": 80
    },
    {
      "t": 681,
      "ch": 7,
      "note": 36,
      "vel": 77,
      "dur": 80
    },
    {
      "t": 681.1,
      "ch": 7,
      "note": 45,
      "vel": 63,
      "dur": 80
    },
    {
      "t": 681.1,
      "ch": 7,
      "note": 38,
      "vel": 68,
      "dur": 80
    },
    {
      "t": 681.3,
      "ch": 5,
      "note": 73,
      "vel": 1,
      "dur": 944
    },
    {
      "t": 681.6,
      "ch": 2,
      "note": 56,
      "vel": 0,
      "dur": 0
    },
    {
      "t": 681.6,
      "ch": 2,
      "note": 58,
      "vel": 55,
      "dur": 20930
    },
    {
      "t": 681.7,
      "ch": 7,
      "note": 48,
      "vel": 62,
      "dur": 80
    },
    {
      "t": 681.7,
      "ch": 7,
      "note": 36,
      "vel": 71,
      "dur": 80
    },
    {
      "t": 682,
      "ch": 7,
      "note": 45,
      "vel": 51,
      "dur": 80
    },
    {
      "t": 682,
      "ch": 7,
      "note": 36,
      "vel": 53,
      "dur": 80
    },
    {
      "t": 682,
      "ch": 7,
      "note": 38,
      "vel": 64,
      "dur": 80
    },
    {
      "t": 682.4,
      "ch": 7,
      "note": 48,
      "vel": 81,
      "dur": 80
    },
    {
      "t": 682.4,
      "ch": 7,
      "note": 36,
      "vel": 67,
      "dur": 80
    },
    {
      "t": 683,
      "ch": 0,
      "note": 36,
      "vel": 117,
      "dur": 55
    },
    {
      "t": 683,
      "ch": 7,
      "note": 48,
      "vel": 67,
      "dur": 80
    },
    {
      "t": 683,
      "ch": 7,
      "note": 45,
      "vel": 68,
      "dur": 80
    },
    {
      "t": 683,
      "ch": 7,
      "note": 36,
      "vel": 72,
      "dur": 80
    },
    {
      "t": 683,
      "ch": 7,
      "note": 38,
      "vel": 80,
      "dur": 80
    },
    {
      "t": 683.4,
      "ch": 7,
      "note": 36,
      "vel": 46,
      "dur": 80
    },
    {
      "t": 683.8,
      "ch": 7,
      "note": 48,
      "vel": 57,
      "dur": 80
    },
    {
      "t": 683.8,
      "ch": 7,
      "note": 36,
      "vel": 72,
      "dur": 80
    },
    {
      "t": 683.9,
      "ch": 7,
      "note": 45,
      "vel": 53,
      "dur": 80
    },
    {
      "t": 683.9,
      "ch": 7,
      "note": 38,
      "vel": 63,
      "dur": 80
    },
    {
      "t": 684.1,
      "ch": 0,
      "note": 36,
      "vel": 77,
      "dur": 55
    },
    {
      "t": 684.1,
      "ch": 6,
      "note": 71,
      "vel": 11,
      "dur": 636
    },
    {
      "t": 684.4,
      "ch": 4,
      "note": 63,
      "vel": 43,
      "dur": 5531
    },
    {
      "t": 684.4,
      "ch": 4,
      "note": 65,
      "vel": 41,
      "dur": 5531
    },
    {
      "t": 684.4,
      "ch": 3,
      "note": 46,
      "vel": 45,
      "dur": 5581
    },
    {
      "t": 684.4,
      "ch": 7,
      "note": 48,
      "vel": 78,
      "dur": 80
    },
    {
      "t": 684.4,
      "ch": 7,
      "note": 36,
      "vel": 64,
      "dur": 80
    },
    {
      "t": 684.8,
      "ch": 7,
      "note": 45,
      "vel": 63,
      "dur": 80
    },
    {
      "t": 684.8,
      "ch": 7,
      "note": 36,
      "vel": 53,
      "dur": 80
    },
    {
      "t": 684.8,
      "ch": 7,
      "note": 38,
      "vel": 69,
      "dur": 80
    },
    {
      "t": 685.2,
      "ch": 7,
      "note": 48,
      "vel": 80,
      "dur": 80
    },
    {
      "t": 685.2,
      "ch": 7,
      "note": 36,
      "vel": 73,
      "dur": 80
    },
    {
      "t": 685.5,
      "ch": 0,
      "note": 36,
      "vel": 76,
      "dur": 55
    },
    {
      "t": 685.8,
      "ch": 0,
      "note": 36,
      "vel": 118,
      "dur": 55
    },
    {
      "t": 685.8,
      "ch": 7,
      "note": 48,
      "vel": 67,
      "dur": 80
    },
    {
      "t": 685.8,
      "ch": 7,
      "note": 45,
      "vel": 69,
      "dur": 80
    },
    {
      "t": 685.8,
      "ch": 7,
      "note": 36,
      "vel": 70,
      "dur": 80
    },
    {
      "t": 685.8,
      "ch": 7,
      "note": 38,
      "vel": 82,
      "dur": 80
    },
    {
      "t": 686.2,
      "ch": 7,
      "note": 36,
      "vel": 47,
      "dur": 80
    },
    {
      "t": 686.5,
      "ch": 7,
      "note": 48,
      "vel": 69,
      "dur": 80
    },
    {
      "t": 686.5,
      "ch": 7,
      "note": 36,
      "vel": 64,
      "dur": 80
    },
    {
      "t": 686.7,
      "ch": 7,
      "note": 45,
      "vel": 64,
      "dur": 80
    },
    {
      "t": 686.7,
      "ch": 7,
      "note": 38,
      "vel": 66,
      "dur": 80
    },
    {
      "t": 686.9,
      "ch": 0,
      "note": 36,
      "vel": 82,
      "dur": 55
    },
    {
      "t": 687.2,
      "ch": 7,
      "note": 48,
      "vel": 64,
      "dur": 80
    },
    {
      "t": 687.2,
      "ch": 7,
      "note": 36,
      "vel": 82,
      "dur": 80
    },
    {
      "t": 687.6,
      "ch": 7,
      "note": 45,
      "vel": 68,
      "dur": 80
    },
    {
      "t": 687.6,
      "ch": 7,
      "note": 36,
      "vel": 68,
      "dur": 80
    },
    {
      "t": 687.6,
      "ch": 7,
      "note": 38,
      "vel": 69,
      "dur": 80
    },
    {
      "t": 687.9,
      "ch": 7,
      "note": 48,
      "vel": 63,
      "dur": 80
    },
    {
      "t": 687.9,
      "ch": 7,
      "note": 36,
      "vel": 67,
      "dur": 80
    },
    {
      "t": 688.3,
      "ch": 0,
      "note": 36,
      "vel": 80,
      "dur": 55
    },
    {
      "t": 688.6,
      "ch": 0,
      "note": 36,
      "vel": 114,
      "dur": 55
    },
    {
      "t": 688.6,
      "ch": 7,
      "note": 48,
      "vel": 70,
      "dur": 80
    },
    {
      "t": 688.6,
      "ch": 7,
      "note": 45,
      "vel": 69,
      "dur": 80
    },
    {
      "t": 688.6,
      "ch": 7,
      "note": 36,
      "vel": 62,
      "dur": 80
    },
    {
      "t": 688.6,
      "ch": 7,
      "note": 38,
      "vel": 67,
      "dur": 80
    },
    {
      "t": 688.7,
      "ch": 5,
      "note": 82,
      "vel": 25,
      "dur": 979
    },
    {
      "t": 689,
      "ch": 7,
      "note": 36,
      "vel": 54,
      "dur": 80
    },
    {
      "t": 689.3,
      "ch": 7,
      "note": 48,
      "vel": 79,
      "dur": 80
    },
    {
      "t": 689.3,
      "ch": 7,
      "note": 36,
      "vel": 72,
      "dur": 80
    },
    {
      "t": 689.5,
      "ch": 7,
      "note": 45,
      "vel": 61,
      "dur": 80
    },
    {
      "t": 689.5,
      "ch": 7,
      "note": 38,
      "vel": 56,
      "dur": 80
    },
    {
      "t": 689.7,
      "ch": 0,
      "note": 36,
      "vel": 81,
      "dur": 55
    },
    {
      "t": 689.7,
      "ch": 5,
      "note": 46,
      "vel": 22,
      "dur": 983
    },
    {
      "t": 689.9,
      "ch": 4,
      "note": 65,
      "vel": 38,
      "dur": 5531
    },
    {
      "t": 689.9,
      "ch": 4,
      "note": 68,
      "vel": 53,
      "dur": 5531
    },
    {
      "t": 689.9,
      "ch": 3,
      "note": 46,
      "vel": 40,
      "dur": 5581
    },
    {
      "t": 690,
      "ch": 7,
      "note": 48,
      "vel": 64,
      "dur": 80
    },
    {
      "t": 690,
      "ch": 7,
      "note": 36,
      "vel": 83,
      "dur": 80
    },
    {
      "t": 690.4,
      "ch": 7,
      "note": 45,
      "vel": 67,
      "dur": 80
    },
    {
      "t": 690.4,
      "ch": 7,
      "note": 36,
      "vel": 63,
      "dur": 80
    },
    {
      "t": 690.4,
      "ch": 7,
      "note": 38,
      "vel": 66,
      "dur": 80
    },
    {
      "t": 690.7,
      "ch": 7,
      "note": 48,
      "vel": 68,
      "dur": 80
    },
    {
      "t": 690.7,
      "ch": 7,
      "note": 36,
      "vel": 76,
      "dur": 80
    },
    {
      "t": 691.1,
      "ch": 0,
      "note": 36,
      "vel": 84,
      "dur": 55
    },
    {
      "t": 691.3,
      "ch": 6,
      "note": 65,
      "vel": 2,
      "dur": 657
    },
    {
      "t": 691.4,
      "ch": 0,
      "note": 36,
      "vel": 116,
      "dur": 55
    },
    {
      "t": 691.4,
      "ch": 1,
      "note": 42,
      "vel": 89,
      "dur": 25
    },
    {
      "t": 691.4,
      "ch": 1,
      "note": 36,
      "vel": 94,
      "dur": 25
    },
    {
      "t": 691.4,
      "ch": 1,
      "note": 38,
      "vel": 103,
      "dur": 25
    },
    {
      "t": 691.4,
      "ch": 1,
      "note": 40,
      "vel": 73,
      "dur": 25
    },
    {
      "t": 691.4,
      "ch": 1,
      "note": 42,
      "vel": 52,
      "dur": 25
    },
    {
      "t": 691.4,
      "ch": 1,
      "note": 36,
      "vel": 105,
      "dur": 25
    },
    {
      "t": 691.4,
      "ch": 1,
      "note": 38,
      "vel": 92,
      "dur": 25
    },
    {
      "t": 691.4,
      "ch": 1,
      "note": 40,
      "vel": 89,
      "dur": 25
    },
    {
      "t": 691.4,
      "ch": 1,
      "note": 42,
      "vel": 84,
      "dur": 25
    },
    {
      "t": 691.4,
      "ch": 1,
      "note": 36,
      "vel": 95,
      "dur": 25
    },
    {
      "t": 691.4,
      "ch": 1,
      "note": 38,
      "vel": 93,
      "dur": 25
    },
    {
      "t": 691.4,
      "ch": 1,
      "note": 40,
      "vel": 76,
      "dur": 25
    },
    {
      "t": 691.4,
      "ch": 1,
      "note": 42,
      "vel": 71,
      "dur": 25
    },
    {
      "t": 691.4,
      "ch": 1,
      "note": 36,
      "vel": 73,
      "dur": 25
    },
    {
      "t": 691.4,
      "ch": 1,
      "note": 38,
      "vel": 106,
      "dur": 25
    },
    {
      "t": 691.4,
      "ch": 1,
      "note": 40,
      "vel": 87,
      "dur": 25
    },
    {
      "t": 691.4,
      "ch": 1,
      "note": 42,
      "vel": 92,
      "dur": 25
    },
    {
      "t": 691.4,
      "ch": 1,
      "note": 36,
      "vel": 87,
      "dur": 25
    },
    {
      "t": 691.4,
      "ch": 1,
      "note": 38,
      "vel": 88,
      "dur": 25
    },
    {
      "t": 691.4,
      "ch": 1,
      "note": 40,
      "vel": 73,
      "dur": 25
    },
    {
      "t": 691.4,
      "ch": 1,
      "note": 42,
      "vel": 59,
      "dur": 25
    },
    {
      "t": 691.4,
      "ch": 1,
      "note": 36,
      "vel": 107,
      "dur": 25
    },
    {
      "t": 691.4,
      "ch": 1,
      "note": 38,
      "vel": 78,
      "dur": 25
    },
    {
      "t": 691.4,
      "ch": 1,
      "note": 40,
      "vel": 90,
      "dur": 25
    },
    {
      "t": 691.4,
      "ch": 1,
      "note": 42,
      "vel": 101,
      "dur": 25
    },
    {
      "t": 691.4,
      "ch": 1,
      "note": 36,
      "vel": 62,
      "dur": 25
    },
    {
      "t": 691.4,
      "ch": 1,
      "note": 38,
      "vel": 76,
      "dur": 25
    },
    {
      "t": 691.4,
      "ch": 1,
      "note": 40,
      "vel": 86,
      "dur": 25
    },
    {
      "t": 691.4,
      "ch": 1,
      "note": 42,
      "vel": 48,
      "dur": 25
    },
    {
      "t": 691.4,
      "ch": 1,
      "note": 36,
      "vel": 89,
      "dur": 25
    },
    {
      "t": 691.4,
      "ch": 1,
      "note": 38,
      "vel": 78,
      "dur": 25
    },
    {
      "t": 691.4,
      "ch": 1,
      "note": 40,
      "vel": 90,
      "dur": 25
    },
    {
      "t": 691.4,
      "ch": 1,
      "note": 42,
      "vel": 88,
      "dur": 25
    },
    {
      "t": 691.4,
      "ch": 1,
      "note": 36,
      "vel": 81,
      "dur": 25
    },
    {
      "t": 691.4,
      "ch": 1,
      "note": 38,
      "vel": 93,
      "dur": 25
    },
    {
      "t": 691.4,
      "ch": 1,
      "note": 40,
      "vel": 98,
      "dur": 25
    },
    {
      "t": 691.4,
      "ch": 1,
      "note": 42,
      "vel": 92,
      "dur": 25
    },
    {
      "t": 691.4,
      "ch": 1,
      "note": 36,
      "vel": 67,
      "dur": 25
    },
    {
      "t": 691.4,
      "ch": 1,
      "note": 38,
      "vel": 84,
      "dur": 25
    },
    {
      "t": 691.4,
      "ch": 1,
      "note": 40,
      "vel": 106,
      "dur": 25
    },
    {
      "t": 691.4,
      "ch": 1,
      "note": 42,
      "vel": 109,
      "dur": 25
    },
    {
      "t": 691.4,
      "ch": 1,
      "note": 36,
      "vel": 67,
      "dur": 25
    },
    {
      "t": 691.4,
      "ch": 1,
      "note": 38,
      "vel": 86,
      "dur": 25
    },
    {
      "t": 691.4,
      "ch": 1,
      "note": 40,
      "vel": 76,
      "dur": 25
    },
    {
      "t": 691.4,
      "ch": 1,
      "note": 42,
      "vel": 69,
      "dur": 25
    },
    {
      "t": 691.4,
      "ch": 1,
      "note": 36,
      "vel": 109,
      "dur": 25
    },
    {
      "t": 691.4,
      "ch": 1,
      "note": 38,
      "vel": 77,
      "dur": 25
    },
    {
      "t": 691.4,
      "ch": 1,
      "note": 40,
      "vel": 84,
      "dur": 25
    },
    {
      "t": 691.4,
      "ch": 1,
      "note": 42,
      "vel": 71,
      "dur": 25
    },
    {
      "t": 691.4,
      "ch": 1,
      "note": 36,
      "vel": 77,
      "dur": 25
    },
    {
      "t": 691.4,
      "ch": 1,
      "note": 38,
      "vel": 69,
      "dur": 25
    },
    {
      "t": 691.4,
      "ch": 1,
      "note": 40,
      "vel": 60,
      "dur": 25
    },
    {
      "t": 691.4,
      "ch": 1,
      "note": 42,
      "vel": 76,
      "dur": 25
    },
    {
      "t": 691.4,
      "ch": 1,
      "note": 36,
      "vel": 86,
      "dur": 25
    },
    {
      "t": 691.4,
      "ch": 1,
      "note": 38,
      "vel": 108,
      "dur": 25
    },
    {
      "t": 691.4,
      "ch": 1,
      "note": 40,
      "vel": 79,
      "dur": 25
    },
    {
      "t": 691.4,
      "ch": 1,
      "note": 42,
      "vel": 70,
      "dur": 25
    },
    {
      "t": 691.4,
      "ch": 1,
      "note": 36,
      "vel": 91,
      "dur": 25
    },
    {
      "t": 691.4,
      "ch": 1,
      "note": 38,
      "vel": 108,
      "dur": 25
    },
    {
      "t": 691.4,
      "ch": 1,
      "note": 40,
      "vel": 92,
      "dur": 25
    },
    {
      "t": 691.4,
      "ch": 1,
      "note": 42,
      "vel": 87,
      "dur": 25
    },
    {
      "t": 691.4,
      "ch": 1,
      "note": 36,
      "vel": 76,
      "dur": 25
    },
    {
      "t": 691.4,
      "ch": 1,
      "note": 38,
      "vel": 97,
      "dur": 25
    },
    {
      "t": 691.4,
      "ch": 1,
      "note": 40,
      "vel": 80,
      "dur": 25
    },
    {
      "t": 691.4,
      "ch": 1,
      "note": 42,
      "vel": 88,
      "dur": 25
    },
    {
      "t": 691.4,
      "ch": 1,
      "note": 36,
      "vel": 94,
      "dur": 25
    },
    {
      "t": 691.4,
      "ch": 1,
      "note": 38,
      "vel": 84,
      "dur": 25
    },
    {
      "t": 691.4,
      "ch": 1,
      "note": 40,
      "vel": 94,
      "dur": 25
    },
    {
      "t": 691.4,
      "ch": 1,
      "note": 42,
      "vel": 95,
      "dur": 25
    },
    {
      "t": 691.4,
      "ch": 1,
      "note": 36,
      "vel": 79,
      "dur": 25
    },
    {
      "t": 691.4,
      "ch": 1,
      "note": 38,
      "vel": 81,
      "dur": 25
    },
    {
      "t": 691.4,
      "ch": 1,
      "note": 40,
      "vel": 78,
      "dur": 25
    },
    {
      "t": 691.4,
      "ch": 1,
      "note": 42,
      "vel": 85,
      "dur": 25
    },
    {
      "t": 691.4,
      "ch": 1,
      "note": 36,
      "vel": 65,
      "dur": 25
    },
    {
      "t": 691.4,
      "ch": 1,
      "note": 38,
      "vel": 81,
      "dur": 25
    },
    {
      "t": 691.4,
      "ch": 1,
      "note": 40,
      "vel": 75,
      "dur": 25
    },
    {
      "t": 691.4,
      "ch": 1,
      "note": 42,
      "vel": 70,
      "dur": 25
    },
    {
      "t": 691.4,
      "ch": 1,
      "note": 36,
      "vel": 80,
      "dur": 25
    },
    {
      "t": 691.4,
      "ch": 1,
      "note": 38,
      "vel": 76,
      "dur": 25
    },
    {
      "t": 691.4,
      "ch": 1,
      "note": 40,
      "vel": 95,
      "dur": 25
    },
    {
      "t": 691.4,
      "ch": 1,
      "note": 42,
      "vel": 98,
      "dur": 25
    },
    {
      "t": 691.4,
      "ch": 1,
      "note": 36,
      "vel": 98,
      "dur": 25
    },
    {
      "t": 691.4,
      "ch": 1,
      "note": 38,
      "vel": 92,
      "dur": 25
    },
    {
      "t": 691.4,
      "ch": 1,
      "note": 40,
      "vel": 93,
      "dur": 25
    },
    {
      "t": 691.4,
      "ch": 1,
      "note": 42,
      "vel": 86,
      "dur": 25
    },
    {
      "t": 691.4,
      "ch": 1,
      "note": 36,
      "vel": 101,
      "dur": 25
    },
    {
      "t": 691.4,
      "ch": 1,
      "note": 38,
      "vel": 99,
      "dur": 25
    },
    {
      "t": 691.4,
      "ch": 1,
      "note": 40,
      "vel": 76,
      "dur": 25
    },
    {
      "t": 691.4,
      "ch": 1,
      "note": 42,
      "vel": 79,
      "dur": 25
    },
    {
      "t": 691.4,
      "ch": 1,
      "note": 36,
      "vel": 79,
      "dur": 25
    },
    {
      "t": 691.4,
      "ch": 1,
      "note": 38,
      "vel": 82,
      "dur": 25
    },
    {
      "t": 691.4,
      "ch": 1,
      "note": 40,
      "vel": 90,
      "dur": 25
    },
    {
      "t": 691.4,
      "ch": 1,
      "note": 42,
      "vel": 80,
      "dur": 25
    },
    {
      "t": 691.4,
      "ch": 1,
      "note": 36,
      "vel": 72,
      "dur": 25
    },
    {
      "t": 691.4,
      "ch": 1,
      "note": 38,
      "vel": 80,
      "dur": 25
    },
    {
      "t": 691.4,
      "ch": 1,
      "note": 40,
      "vel": 91,
      "dur": 25
    },
    {
      "t": 691.4,
      "ch": 1,
      "note": 42,
      "vel": 87,
      "dur": 25
    },
    {
      "t": 691.4,
      "ch": 1,
      "note": 36,
      "vel": 90,
      "dur": 25
    },
    {
      "t": 691.4,
      "ch": 1,
      "note": 38,
      "vel": 81,
      "dur": 25
    },
    {
      "t": 691.4,
      "ch": 1,
      "note": 40,
      "vel": 82,
      "dur": 25
    },
    {
      "t": 691.4,
      "ch": 1,
      "note": 42,
      "vel": 90,
      "dur": 25
    },
    {
      "t": 691.4,
      "ch": 1,
      "note": 36,
      "vel": 87,
      "dur": 25
    },
    {
      "t": 691.4,
      "ch": 1,
      "note": 38,
      "vel": 66,
      "dur": 25
    },
    {
      "t": 691.4,
      "ch": 1,
      "note": 40,
      "vel": 94,
      "dur": 25
    },
    {
      "t": 691.4,
      "ch": 1,
      "note": 42,
      "vel": 89,
      "dur": 25
    },
    {
      "t": 691.4,
      "ch": 1,
      "note": 36,
      "vel": 85,
      "dur": 25
    },
    {
      "t": 691.4,
      "ch": 1,
      "note": 38,
      "vel": 81,
      "dur": 25
    },
    {
      "t": 691.4,
      "ch": 1,
      "note": 40,
      "vel": 75,
      "dur": 25
    },
    {
      "t": 691.4,
      "ch": 1,
      "note": 42,
      "vel": 103,
      "dur": 25
    },
    {
      "t": 691.4,
      "ch": 1,
      "note": 36,
      "vel": 83,
      "dur": 25
    },
    {
      "t": 691.4,
      "ch": 1,
      "note": 38,
      "vel": 94,
      "dur": 25
    },
    {
      "t": 691.4,
      "ch": 1,
      "note": 40,
      "vel": 102,
      "dur": 25
    },
    {
      "t": 691.4,
      "ch": 1,
      "note": 42,
      "vel": 85,
      "dur": 25
    },
    {
      "t": 691.4,
      "ch": 1,
      "note": 36,
      "vel": 78,
      "dur": 25
    },
    {
      "t": 691.4,
      "ch": 1,
      "note": 38,
      "vel": 99,
      "dur": 25
    },
    {
      "t": 691.4,
      "ch": 1,
      "note": 40,
      "vel": 53,
      "dur": 25
    },
    {
      "t": 691.4,
      "ch": 1,
      "note": 42,
      "vel": 87,
      "dur": 25
    },
    {
      "t": 691.4,
      "ch": 1,
      "note": 36,
      "vel": 101,
      "dur": 25
    },
    {
      "t": 691.4,
      "ch": 1,
      "note": 38,
      "vel": 90,
      "dur": 25
    },
    {
      "t": 691.4,
      "ch": 1,
      "note": 40,
      "vel": 79,
      "dur": 25
    },
    {
      "t": 691.4,
      "ch": 1,
      "note": 42,
      "vel": 81,
      "dur": 25
    },
    {
      "t": 691.4,
      "ch": 1,
      "note": 36,
      "vel": 82,
      "dur": 25
    },
    {
      "t": 691.4,
      "ch": 1,
      "note": 38,
      "vel": 102,
      "dur": 25
    },
    {
      "t": 691.4,
      "ch": 1,
      "note": 40,
      "vel": 84,
      "dur": 25
    },
    {
      "t": 691.4,
      "ch": 1,
      "note": 42,
      "vel": 94,
      "dur": 25
    },
    {
      "t": 691.4,
      "ch": 1,
      "note": 36,
      "vel": 84,
      "dur": 25
    },
    {
      "t": 691.4,
      "ch": 1,
      "note": 38,
      "vel": 81,
      "dur": 25
    },
    {
      "t": 691.4,
      "ch": 1,
      "note": 40,
      "vel": 71,
      "dur": 25
    },
    {
      "t": 691.4,
      "ch": 1,
      "note": 42,
      "vel": 83,
      "dur": 25
    },
    {
      "t": 691.4,
      "ch": 1,
      "note": 36,
      "vel": 76,
      "dur": 25
    },
    {
      "t": 691.4,
      "ch": 1,
      "note": 38,
      "vel": 99,
      "dur": 25
    },
    {
      "t": 691.4,
      "ch": 1,
      "note": 40,
      "vel": 85,
      "dur": 25
    },
    {
      "t": 691.4,
      "ch": 1,
      "note": 42,
      "vel": 78,
      "dur": 25
    },
    {
      "t": 691.4,
      "ch": 1,
      "note": 36,
      "vel": 93,
      "dur": 25
    },
    {
      "t": 691.4,
      "ch": 1,
      "note": 38,
      "vel": 93,
      "dur": 25
    },
    {
      "t": 691.4,
      "ch": 1,
      "note": 40,
      "vel": 84,
      "dur": 25
    },
    {
      "t": 691.4,
      "ch": 1,
      "note": 42,
      "vel": 102,
      "dur": 25
    },
    {
      "t": 691.4,
      "ch": 1,
      "note": 36,
      "vel": 69,
      "dur": 25
    },
    {
      "t": 691.4,
      "ch": 1,
      "note": 38,
      "vel": 102,
      "dur": 25
    },
    {
      "t": 691.4,
      "ch": 1,
      "note": 40,
      "vel": 78,
      "dur": 25
    },
    {
      "t": 691.4,
      "ch": 1,
      "note": 42,
      "vel": 93,
      "dur": 25
    },
    {
      "t": 691.4,
      "ch": 1,
      "note": 36,
      "vel": 67,
      "dur": 25
    },
    {
      "t": 691.4,
      "ch": 1,
      "note": 38,
      "vel": 91,
      "dur": 25
    },
    {
      "t": 691.4,
      "ch": 1,
      "note": 40,
      "vel": 78,
      "dur": 25
    },
    {
      "t": 691.4,
      "ch": 1,
      "note": 42,
      "vel": 65,
      "dur": 25
    },
    {
      "t": 691.4,
      "ch": 1,
      "note": 36,
      "vel": 93,
      "dur": 25
    },
    {
      "t": 691.4,
      "ch": 1,
      "note": 38,
      "vel": 90,
      "dur": 25
    },
    {
      "t": 691.4,
      "ch": 1,
      "note": 40,
      "vel": 83,
      "dur": 25
    },
    {
      "t": 691.4,
      "ch": 1,
      "note": 42,
      "vel": 70,
      "dur": 25
    },
    {
      "t": 691.4,
      "ch": 1,
      "note": 36,
      "vel": 77,
      "dur": 25
    },
    {
      "t": 691.4,
      "ch": 1,
      "note": 38,
      "vel": 85,
      "dur": 25
    },
    {
      "t": 691.4,
      "ch": 1,
      "note": 40,
      "vel": 71,
      "dur": 25
    },
    {
      "t": 691.4,
      "ch": 1,
      "note": 42,
      "vel": 72,
      "dur": 25
    },
    {
      "t": 691.4,
      "ch": 1,
      "note": 36,
      "vel": 107,
      "dur": 25
    },
    {
      "t": 691.4,
      "ch": 1,
      "note": 38,
      "vel": 54,
      "dur": 25
    },
    {
      "t": 691.4,
      "ch": 1,
      "note": 40,
      "vel": 84,
      "dur": 25
    },
    {
      "t": 691.4,
      "ch": 1,
      "note": 42,
      "vel": 82,
      "dur": 25
    },
    {
      "t": 691.4,
      "ch": 1,
      "note": 36,
      "vel": 87,
      "dur": 25
    },
    {
      "t": 691.4,
      "ch": 1,
      "note": 38,
      "vel": 81,
      "dur": 25
    },
    {
      "t": 691.4,
      "ch": 1,
      "note": 40,
      "vel": 77,
      "dur": 25
    },
    {
      "t": 691.4,
      "ch": 1,
      "note": 42,
      "vel": 67,
      "dur": 25
    },
    {
      "t": 691.4,
      "ch": 1,
      "note": 36,
      "vel": 68,
      "dur": 25
    },
    {
      "t": 691.4,
      "ch": 1,
      "note": 38,
      "vel": 84,
      "dur": 25
    },
    {
      "t": 691.4,
      "ch": 1,
      "note": 40,
      "vel": 85,
      "dur": 25
    },
    {
      "t": 691.4,
      "ch": 1,
      "note": 42,
      "vel": 90,
      "dur": 25
    },
    {
      "t": 691.4,
      "ch": 1,
      "note": 36,
      "vel": 71,
      "dur": 25
    },
    {
      "t": 691.4,
      "ch": 1,
      "note": 38,
      "vel": 95,
      "dur": 25
    },
    {
      "t": 691.4,
      "ch": 1,
      "note": 40,
      "vel": 78,
      "dur": 25
    },
    {
      "t": 691.4,
      "ch": 1,
      "note": 42,
      "vel": 86,
      "dur": 25
    },
    {
      "t": 691.4,
      "ch": 1,
      "note": 36,
      "vel": 99,
      "dur": 25
    },
    {
      "t": 691.4,
      "ch": 1,
      "note": 38,
      "vel": 81,
      "dur": 25
    },
    {
      "t": 691.4,
      "ch": 1,
      "note": 40,
      "vel": 65,
      "dur": 25
    },
    {
      "t": 691.4,
      "ch": 1,
      "note": 42,
      "vel": 92,
      "dur": 25
    },
    {
      "t": 691.4,
      "ch": 1,
      "note": 36,
      "vel": 87,
      "dur": 25
    },
    {
      "t": 691.4,
      "ch": 1,
      "note": 38,
      "vel": 74,
      "dur": 25
    },
    {
      "t": 691.4,
      "ch": 1,
      "note": 40,
      "vel": 91,
      "dur": 25
    },
    {
      "t": 691.4,
      "ch": 1,
      "note": 42,
      "vel": 90,
      "dur": 25
    },
    {
      "t": 691.4,
      "ch": 1,
      "note": 36,
      "vel": 85,
      "dur": 25
    },
    {
      "t": 691.4,
      "ch": 1,
      "note": 38,
      "vel": 88,
      "dur": 25
    },
    {
      "t": 691.4,
      "ch": 1,
      "note": 40,
      "vel": 77,
      "dur": 25
    },
    {
      "t": 691.4,
      "ch": 1,
      "note": 42,
      "vel": 110,
      "dur": 25
    },
    {
      "t": 691.4,
      "ch": 1,
      "note": 36,
      "vel": 62,
      "dur": 25
    },
    {
      "t": 691.4,
      "ch": 1,
      "note": 38,
      "vel": 95,
      "dur": 25
    },
    {
      "t": 691.4,
      "ch": 1,
      "note": 40,
      "vel": 87,
      "dur": 25
    },
    {
      "t": 691.4,
      "ch": 1,
      "note": 42,
      "vel": 99,
      "dur": 25
    },
    {
      "t": 691.4,
      "ch": 1,
      "note": 36,
      "vel": 100,
      "dur": 25
    },
    {
      "t": 691.4,
      "ch": 1,
      "note": 38,
      "vel": 72,
      "dur": 25
    },
    {
      "t": 691.4,
      "ch": 1,
      "note": 40,
      "vel": 74,
      "dur": 25
    },
    {
      "t": 691.4,
      "ch": 1,
      "note": 42,
      "vel": 66,
      "dur": 25
    },
    {
      "t": 691.4,
      "ch": 1,
      "note": 36,
      "vel": 94,
      "dur": 25
    },
    {
      "t": 691.4,
      "ch": 1,
      "note": 38,
      "vel": 80,
      "dur": 25
    },
    {
      "t": 691.4,
      "ch": 1,
      "note": 40,
      "vel": 93,
      "dur": 25
    },
    {
      "t": 691.4,
      "ch": 1,
      "note": 42,
      "vel": 92,
      "dur": 25
    },
    {
      "t": 691.4,
      "ch": 1,
      "note": 36,
      "vel": 110,
      "dur": 25
    },
    {
      "t": 691.4,
      "ch": 1,
      "note": 38,
      "vel": 92,
      "dur": 25
    },
    {
      "t": 691.4,
      "ch": 1,
      "note": 40,
      "vel": 75,
      "dur": 25
    },
    {
      "t": 691.4,
      "ch": 1,
      "note": 42,
      "vel": 53,
      "dur": 25
    },
    {
      "t": 691.4,
      "ch": 1,
      "note": 36,
      "vel": 104,
      "dur": 25
    },
    {
      "t": 691.4,
      "ch": 1,
      "note": 38,
      "vel": 86,
      "dur": 25
    },
    {
      "t": 691.4,
      "ch": 1,
      "note": 40,
      "vel": 114,
      "dur": 25
    },
    {
      "t": 691.4,
      "ch": 1,
      "note": 42,
      "vel": 64,
      "dur": 25
    },
    {
      "t": 691.4,
      "ch": 1,
      "note": 36,
      "vel": 64,
      "dur": 25
    },
    {
      "t": 691.4,
      "ch": 1,
      "note": 38,
      "vel": 85,
      "dur": 25
    },
    {
      "t": 691.4,
      "ch": 1,
      "note": 40,
      "vel": 65,
      "dur": 25
    },
    {
      "t": 691.4,
      "ch": 1,
      "note": 42,
      "vel": 88,
      "dur": 25
    },
    {
      "t": 691.4,
      "ch": 1,
      "note": 36,
      "vel": 83,
      "dur": 25
    },
    {
      "t": 691.4,
      "ch": 1,
      "note": 38,
      "vel": 94,
      "dur": 25
    },
    {
      "t": 691.4,
      "ch": 1,
      "note": 40,
      "vel": 75,
      "dur": 25
    },
    {
      "t": 691.4,
      "ch": 1,
      "note": 42,
      "vel": 114,
      "dur": 25
    },
    {
      "t": 691.4,
      "ch": 1,
      "note": 36,
      "vel": 100,
      "dur": 25
    },
    {
      "t": 691.4,
      "ch": 1,
      "note": 38,
      "vel": 94,
      "dur": 25
    },
    {
      "t": 691.4,
      "ch": 1,
      "note": 40,
      "vel": 85,
      "dur": 25
    },
    {
      "t": 691.4,
      "ch": 1,
      "note": 42,
      "vel": 71,
      "dur": 25
    },
    {
      "t": 691.4,
      "ch": 1,
      "note": 36,
      "vel": 79,
      "dur": 25
    },
    {
      "t": 691.4,
      "ch": 1,
      "note": 38,
      "vel": 84,
      "dur": 25
    },
    {
      "t": 691.4,
      "ch": 1,
      "note": 40,
      "vel": 77,
      "dur": 25
    },
    {
      "t": 691.4,
      "ch": 1,
      "note": 42,
      "vel": 96,
      "dur": 25
    },
    {
      "t": 691.4,
      "ch": 1,
      "note": 36,
      "vel": 85,
      "dur": 25
    },
    {
      "t": 691.4,
      "ch": 1,
      "note": 38,
      "vel": 67,
      "dur": 25
    },
    {
      "t": 691.4,
      "ch": 1,
      "note": 40,
      "vel": 66,
      "dur": 25
    },
    {
      "t": 691.4,
      "ch": 1,
      "note": 42,
      "vel": 79,
      "dur": 25
    },
    {
      "t": 691.4,
      "ch": 1,
      "note": 36,
      "vel": 101,
      "dur": 25
    },
    {
      "t": 691.4,
      "ch": 1,
      "note": 38,
      "vel": 111,
      "dur": 25
    },
    {
      "t": 691.4,
      "ch": 1,
      "note": 40,
      "vel": 98,
      "dur": 25
    },
    {
      "t": 691.4,
      "ch": 1,
      "note": 42,
      "vel": 94,
      "dur": 25
    },
    {
      "t": 691.4,
      "ch": 1,
      "note": 36,
      "vel": 57,
      "dur": 25
    },
    {
      "t": 691.4,
      "ch": 1,
      "note": 38,
      "vel": 96,
      "dur": 25
    },
    {
      "t": 691.4,
      "ch": 1,
      "note": 40,
      "vel": 82,
      "dur": 25
    },
    {
      "t": 691.4,
      "ch": 1,
      "note": 42,
      "vel": 104,
      "dur": 25
    },
    {
      "t": 691.4,
      "ch": 1,
      "note": 36,
      "vel": 95,
      "dur": 25
    },
    {
      "t": 691.4,
      "ch": 1,
      "note": 38,
      "vel": 102,
      "dur": 25
    },
    {
      "t": 691.4,
      "ch": 1,
      "note": 40,
      "vel": 85,
      "dur": 25
    },
    {
      "t": 691.4,
      "ch": 1,
      "note": 42,
      "vel": 95,
      "dur": 25
    },
    {
      "t": 691.4,
      "ch": 1,
      "note": 36,
      "vel": 98,
      "dur": 25
    },
    {
      "t": 691.4,
      "ch": 1,
      "note": 38,
      "vel": 81,
      "dur": 25
    },
    {
      "t": 691.4,
      "ch": 1,
      "note": 40,
      "vel": 81,
      "dur": 25
    },
    {
      "t": 691.4,
      "ch": 1,
      "note": 42,
      "vel": 69,
      "dur": 25
    },
    {
      "t": 691.4,
      "ch": 1,
      "note": 36,
      "vel": 83,
      "dur": 25
    },
    {
      "t": 691.4,
      "ch": 1,
      "note": 38,
      "vel": 83,
      "dur": 25
    },
    {
      "t": 691.4,
      "ch": 1,
      "note": 40,
      "vel": 70,
      "dur": 25
    },
    {
      "t": 691.4,
      "ch": 1,
      "note": 42,
      "vel": 82,
      "dur": 25
    },
    {
      "t": 691.4,
      "ch": 1,
      "note": 36,
      "vel": 66,
      "dur": 25
    },
    {
      "t": 691.4,
      "ch": 1,
      "note": 38,
      "vel": 73,
      "dur": 25
    },
    {
      "t": 691.4,
      "ch": 1,
      "note": 40,
      "vel": 92,
      "dur": 25
    },
    {
      "t": 691.4,
      "ch": 1,
      "note": 42,
      "vel": 74,
      "dur": 25
    },
    {
      "t": 691.4,
      "ch": 1,
      "note": 36,
      "vel": 71,
      "dur": 25
    },
    {
      "t": 691.4,
      "ch": 1,
      "note": 38,
      "vel": 102,
      "dur": 25
    },
    {
      "t": 691.4,
      "ch": 1,
      "note": 40,
      "vel": 77,
      "dur": 25
    },
    {
      "t": 691.4,
      "ch": 1,
      "note": 42,
      "vel": 85,
      "dur": 25
    },
    {
      "t": 691.4,
      "ch": 1,
      "note": 36,
      "vel": 101,
      "dur": 25
    },
    {
      "t": 691.4,
      "ch": 1,
      "note": 38,
      "vel": 104,
      "dur": 25
    },
    {
      "t": 691.4,
      "ch": 1,
      "note": 40,
      "vel": 93,
      "dur": 25
    },
    {
      "t": 691.4,
      "ch": 1,
      "note": 42,
      "vel": 107,
      "dur": 25
    },
    {
      "t": 691.4,
      "ch": 1,
      "note": 36,
      "vel": 54,
      "dur": 25
    },
    {
      "t": 691.4,
      "ch": 1,
      "note": 38,
      "vel": 67,
      "dur": 25
    },
    {
      "t": 691.4,
      "ch": 1,
      "note": 40,
      "vel": 93,
      "dur": 25
    },
    {
      "t": 691.4,
      "ch": 1,
      "note": 42,
      "vel": 74,
      "dur": 25
    },
    {
      "t": 691.4,
      "ch": 1,
      "note": 36,
      "vel": 71,
      "dur": 25
    },
    {
      "t": 691.4,
      "ch": 1,
      "note": 38,
      "vel": 86,
      "dur": 25
    },
    {
      "t": 691.4,
      "ch": 1,
      "note": 40,
      "vel": 93,
      "dur": 25
    },
    {
      "t": 691.4,
      "ch": 1,
      "note": 42,
      "vel": 82,
      "dur": 25
    },
    {
      "t": 691.4,
      "ch": 1,
      "note": 36,
      "vel": 90,
      "dur": 25
    },
    {
      "t": 691.4,
      "ch": 1,
      "note": 38,
      "vel": 89,
      "dur": 25
    },
    {
      "t": 691.4,
      "ch": 1,
      "note": 40,
      "vel": 94,
      "dur": 25
    },
    {
      "t": 691.4,
      "ch": 1,
      "note": 42,
      "vel": 94,
      "dur": 25
    },
    {
      "t": 691.4,
      "ch": 1,
      "note": 36,
      "vel": 110,
      "dur": 25
    },
    {
      "t": 691.4,
      "ch": 1,
      "note": 38,
      "vel": 85,
      "dur": 25
    },
    {
      "t": 691.4,
      "ch": 1,
      "note": 40,
      "vel": 83,
      "dur": 25
    },
    {
      "t": 691.4,
      "ch": 1,
      "note": 42,
      "vel": 88,
      "dur": 25
    },
    {
      "t": 691.4,
      "ch": 1,
      "note": 36,
      "vel": 74,
      "dur": 25
    },
    {
      "t": 691.4,
      "ch": 1,
      "note": 38,
      "vel": 84,
      "dur": 25
    },
    {
      "t": 691.4,
      "ch": 1,
      "note": 40,
      "vel": 101,
      "dur": 25
    },
    {
      "t": 691.4,
      "ch": 1,
      "note": 42,
      "vel": 74,
      "dur": 25
    },
    {
      "t": 691.4,
      "ch": 1,
      "note": 36,
      "vel": 73,
      "dur": 25
    },
    {
      "t": 691.4,
      "ch": 1,
      "note": 38,
      "vel": 75,
      "dur": 25
    },
    {
      "t": 691.4,
      "ch": 1,
      "note": 40,
      "vel": 112,
      "dur": 25
    },
    {
      "t": 691.4,
      "ch": 1,
      "note": 42,
      "vel": 91,
      "dur": 25
    },
    {
      "t": 691.4,
      "ch": 1,
      "note": 36,
      "vel": 107,
      "dur": 25
    },
    {
      "t": 691.4,
      "ch": 1,
      "note": 38,
      "vel": 93,
      "dur": 25
    },
    {
      "t": 691.4,
      "ch": 1,
      "note": 40,
      "vel": 98,
      "dur": 25
    },
    {
      "t": 691.4,
      "ch": 1,
      "note": 42,
      "vel": 86,
      "dur": 25
    },
    {
      "t": 691.4,
      "ch": 1,
      "note": 36,
      "vel": 93,
      "dur": 25
    },
    {
      "t": 691.4,
      "ch": 1,
      "note": 38,
      "vel": 71,
      "dur": 25
    },
    {
      "t": 691.4,
      "ch": 1,
      "note": 40,
      "vel": 89,
      "dur": 25
    },
    {
      "t": 691.4,
      "ch": 1,
      "note": 42,
      "vel": 86,
      "dur": 25
    },
    {
      "t": 691.4,
      "ch": 1,
      "note": 36,
      "vel": 114,
      "dur": 25
    },
    {
      "t": 691.4,
      "ch": 1,
      "note": 38,
      "vel": 54,
      "dur": 25
    },
    {
      "t": 691.4,
      "ch": 1,
      "note": 40,
      "vel": 98,
      "dur": 25
    },
    {
      "t": 691.4,
      "ch": 1,
      "note": 42,
      "vel": 71,
      "dur": 25
    },
    {
      "t": 691.4,
      "ch": 1,
      "note": 36,
      "vel": 74,
      "dur": 25
    },
    {
      "t": 691.4,
      "ch": 1,
      "note": 38,
      "vel": 79,
      "dur": 25
    },
    {
      "t": 691.4,
      "ch": 1,
      "note": 40,
      "vel": 110,
      "dur": 25
    },
    {
      "t": 691.4,
      "ch": 1,
      "note": 42,
      "vel": 79,
      "dur": 25
    },
    {
      "t": 691.4,
      "ch": 1,
      "note": 36,
      "vel": 85,
      "dur": 25
    },
    {
      "t": 691.4,
      "ch": 1,
      "note": 38,
      "vel": 81,
      "dur": 25
    },
    {
      "t": 691.4,
      "ch": 1,
      "note": 40,
      "vel": 60,
      "dur": 25
    },
    {
      "t": 691.4,
      "ch": 1,
      "note": 42,
      "vel": 83,
      "dur": 25
    },
    {
      "t": 691.4,
      "ch": 1,
      "note": 36,
      "vel": 92,
      "dur": 25
    },
    {
      "t": 691.4,
      "ch": 1,
      "note": 38,
      "vel": 91,
      "dur": 25
    },
    {
      "t": 691.4,
      "ch": 1,
      "note": 40,
      "vel": 76,
      "dur": 25
    },
    {
      "t": 691.4,
      "ch": 1,
      "note": 42,
      "vel": 103,
      "dur": 25
    },
    {
      "t": 691.4,
      "ch": 1,
      "note": 36,
      "vel": 77,
      "dur": 25
    },
    {
      "t": 691.4,
      "ch": 1,
      "note": 38,
      "vel": 80,
      "dur": 25
    },
    {
      "t": 691.4,
      "ch": 1,
      "note": 40,
      "vel": 76,
      "dur": 25
    },
    {
      "t": 691.4,
      "ch": 1,
      "note": 42,
      "vel": 68,
      "dur": 25
    },
    {
      "t": 691.4,
      "ch": 1,
      "note": 36,
      "vel": 74,
      "dur": 25
    },
    {
      "t": 691.4,
      "ch": 1,
      "note": 38,
      "vel": 79,
      "dur": 25
    },
    {
      "t": 691.4,
      "ch": 1,
      "note": 40,
      "vel": 94,
      "dur": 25
    },
    {
      "t": 691.4,
      "ch": 1,
      "note": 42,
      "vel": 92,
      "dur": 25
    },
    {
      "t": 691.4,
      "ch": 1,
      "note": 36,
      "vel": 69,
      "dur": 25
    },
    {
      "t": 691.4,
      "ch": 1,
      "note": 38,
      "vel": 51,
      "dur": 25
    },
    {
      "t": 691.4,
      "ch": 1,
      "note": 40,
      "vel": 66,
      "dur": 25
    },
    {
      "t": 691.4,
      "ch": 1,
      "note": 42,
      "vel": 73,
      "dur": 25
    },
    {
      "t": 691.4,
      "ch": 1,
      "note": 36,
      "vel": 99,
      "dur": 25
    },
    {
      "t": 691.4,
      "ch": 1,
      "note": 38,
      "vel": 82,
      "dur": 25
    },
    {
      "t": 691.4,
      "ch": 1,
      "note": 40,
      "vel": 78,
      "dur": 25
    },
    {
      "t": 691.4,
      "ch": 1,
      "note": 42,
      "vel": 82,
      "dur": 25
    },
    {
      "t": 691.4,
      "ch": 1,
      "note": 36,
      "vel": 85,
      "dur": 25
    },
    {
      "t": 691.4,
      "ch": 1,
      "note": 38,
      "vel": 77,
      "dur": 25
    },
    {
      "t": 691.4,
      "ch": 1,
      "note": 40,
      "vel": 75,
      "dur": 25
    },
    {
      "t": 691.4,
      "ch": 1,
      "note": 42,
      "vel": 73,
      "dur": 25
    },
    {
      "t": 691.4,
      "ch": 1,
      "note": 36,
      "vel": 85,
      "dur": 25
    },
    {
      "t": 691.4,
      "ch": 1,
      "note": 38,
      "vel": 97,
      "dur": 25
    },
    {
      "t": 691.4,
      "ch": 1,
      "note": 40,
      "vel": 75,
      "dur": 25
    },
    {
      "t": 691.4,
      "ch": 1,
      "note": 42,
      "vel": 114,
      "dur": 25
    },
    {
      "t": 691.4,
      "ch": 1,
      "note": 36,
      "vel": 72,
      "dur": 25
    },
    {
      "t": 691.4,
      "ch": 1,
      "note": 38,
      "vel": 77,
      "dur": 25
    },
    {
      "t": 691.4,
      "ch": 1,
      "note": 40,
      "vel": 73,
      "dur": 25
    },
    {
      "t": 691.4,
      "ch": 1,
      "note": 42,
      "vel": 85,
      "dur": 25
    },
    {
      "t": 691.4,
      "ch": 1,
      "note": 36,
      "vel": 96,
      "dur": 25
    },
    {
      "t": 691.4,
      "ch": 1,
      "note": 38,
      "vel": 74,
      "dur": 25
    },
    {
      "t": 691.4,
      "ch": 1,
      "note": 40,
      "vel": 93,
      "dur": 25
    },
    {
      "t": 691.4,
      "ch": 1,
      "note": 42,
      "vel": 65,
      "dur": 25
    },
    {
      "t": 691.4,
      "ch": 1,
      "note": 36,
      "vel": 64,
      "dur": 25
    },
    {
      "t": 691.4,
      "ch": 1,
      "note": 38,
      "vel": 75,
      "dur": 25
    },
    {
      "t": 691.4,
      "ch": 1,
      "note": 40,
      "vel": 78,
      "dur": 25
    },
    {
      "t": 691.4,
      "ch": 1,
      "note": 42,
      "vel": 89,
      "dur": 25
    },
    {
      "t": 691.4,
      "ch": 1,
      "note": 36,
      "vel": 62,
      "dur": 25
    },
    {
      "t": 691.4,
      "ch": 1,
      "note": 38,
      "vel": 84,
      "dur": 25
    },
    {
      "t": 691.4,
      "ch": 1,
      "note": 40,
      "vel": 87,
      "dur": 25
    },
    {
      "t": 691.4,
      "ch": 1,
      "note": 42,
      "vel": 81,
      "dur": 25
    },
    {
      "t": 691.4,
      "ch": 1,
      "note": 36,
      "vel": 76,
      "dur": 25
    },
    {
      "t": 691.4,
      "ch": 1,
      "note": 38,
      "vel": 69,
      "dur": 25
    },
    {
      "t": 691.4,
      "ch": 1,
      "note": 40,
      "vel": 104,
      "dur": 25
    },
    {
      "t": 691.4,
      "ch": 1,
      "note": 42,
      "vel": 70,
      "dur": 25
    },
    {
      "t": 691.4,
      "ch": 1,
      "note": 36,
      "vel": 84,
      "dur": 25
    },
    {
      "t": 691.4,
      "ch": 1,
      "note": 38,
      "vel": 104,
      "dur": 25
    },
    {
      "t": 691.4,
      "ch": 1,
      "note": 40,
      "vel": 80,
      "dur": 25
    },
    {
      "t": 691.4,
      "ch": 1,
      "note": 42,
      "vel": 85,
      "dur": 25
    },
    {
      "t": 691.4,
      "ch": 1,
      "note": 36,
      "vel": 60,
      "dur": 25
    },
    {
      "t": 691.4,
      "ch": 1,
      "note": 38,
      "vel": 98,
      "dur": 25
    },
    {
      "t": 691.4,
      "ch": 1,
      "note": 40,
      "vel": 82,
      "dur": 25
    },
    {
      "t": 691.4,
      "ch": 1,
      "note": 42,
      "vel": 91,
      "dur": 25
    },
    {
      "t": 691.4,
      "ch": 1,
      "note": 36,
      "vel": 77,
      "dur": 25
    },
    {
      "t": 691.4,
      "ch": 1,
      "note": 38,
      "vel": 66,
      "dur": 25
    },
    {
      "t": 691.4,
      "ch": 1,
      "note": 40,
      "vel": 80,
      "dur": 25
    },
    {
      "t": 691.4,
      "ch": 1,
      "note": 42,
      "vel": 80,
      "dur": 25
    },
    {
      "t": 691.4,
      "ch": 1,
      "note": 36,
      "vel": 77,
      "dur": 25
    },
    {
      "t": 691.4,
      "ch": 1,
      "note": 38,
      "vel": 89,
      "dur": 25
    },
    {
      "t": 691.4,
      "ch": 1,
      "note": 40,
      "vel": 86,
      "dur": 25
    },
    {
      "t": 691.4,
      "ch": 1,
      "note": 42,
      "vel": 78,
      "dur": 25
    },
    {
      "t": 691.4,
      "ch": 1,
      "note": 36,
      "vel": 91,
      "dur": 25
    },
    {
      "t": 691.4,
      "ch": 1,
      "note": 38,
      "vel": 95,
      "dur": 25
    },
    {
      "t": 691.4,
      "ch": 1,
      "note": 40,
      "vel": 91,
      "dur": 25
    },
    {
      "t": 691.4,
      "ch": 1,
      "note": 42,
      "vel": 89,
      "dur": 25
    },
    {
      "t": 691.4,
      "ch": 1,
      "note": 36,
      "vel": 86,
      "dur": 25
    },
    {
      "t": 691.4,
      "ch": 1,
      "note": 38,
      "vel": 88,
      "dur": 25
    },
    {
      "t": 691.4,
      "ch": 1,
      "note": 40,
      "vel": 85,
      "dur": 25
    },
    {
      "t": 691.4,
      "ch": 1,
      "note": 42,
      "vel": 76,
      "dur": 25
    },
    {
      "t": 691.4,
      "ch": 1,
      "note": 36,
      "vel": 68,
      "dur": 25
    },
    {
      "t": 691.4,
      "ch": 1,
      "note": 38,
      "vel": 92,
      "dur": 25
    },
    {
      "t": 691.4,
      "ch": 1,
      "note": 40,
      "vel": 95,
      "dur": 25
    },
    {
      "t": 691.4,
      "ch": 1,
      "note": 42,
      "vel": 72,
      "dur": 25
    },
    {
      "t": 691.4,
      "ch": 1,
      "note": 36,
      "vel": 86,
      "dur": 25
    },
    {
      "t": 691.4,
      "ch": 1,
      "note": 38,
      "vel": 86,
      "dur": 25
    },
    {
      "t": 691.4,
      "ch": 1,
      "note": 40,
      "vel": 71,
      "dur": 25
    },
    {
      "t": 691.4,
      "ch": 1,
      "note": 42,
      "vel": 88,
      "dur": 25
    },
    {
      "t": 691.4,
      "ch": 1,
      "note": 36,
      "vel": 88,
      "dur": 25
    },
    {
      "t": 691.4,
      "ch": 1,
      "note": 38,
      "vel": 88,
      "dur": 25
    },
    {
      "t": 691.4,
      "ch": 1,
      "note": 40,
      "vel": 79,
      "dur": 25
    },
    {
      "t": 691.4,
      "ch": 1,
      "note": 42,
      "vel": 85,
      "dur": 25
    },
    {
      "t": 691.4,
      "ch": 1,
      "note": 36,
      "vel": 86,
      "dur": 25
    },
    {
      "t": 691.4,
      "ch": 1,
      "note": 38,
      "vel": 69,
      "dur": 25
    },
    {
      "t": 691.4,
      "ch": 1,
      "note": 40,
      "vel": 98,
      "dur": 25
    },
    {
      "t": 691.4,
      "ch": 1,
      "note": 42,
      "vel": 95,
      "dur": 25
    },
    {
      "t": 691.4,
      "ch": 1,
      "note": 36,
      "vel": 82,
      "dur": 25
    },
    {
      "t": 691.4,
      "ch": 1,
      "note": 38,
      "vel": 77,
      "dur": 25
    },
    {
      "t": 691.4,
      "ch": 1,
      "note": 40,
      "vel": 61,
      "dur": 25
    },
    {
      "t": 691.4,
      "ch": 1,
      "note": 42,
      "vel": 79,
      "dur": 25
    },
    {
      "t": 691.4,
      "ch": 1,
      "note": 36,
      "vel": 74,
      "dur": 25
    },
    {
      "t": 691.4,
      "ch": 1,
      "note": 38,
      "vel": 84,
      "dur": 25
    },
    {
      "t": 691.4,
      "ch": 1,
      "note": 40,
      "vel": 60,
      "dur": 25
    },
    {
      "t": 691.4,
      "ch": 1,
      "note": 42,
      "vel": 107,
      "dur": 25
    },
    {
      "t": 691.4,
      "ch": 1,
      "note": 36,
      "vel": 92,
      "dur": 25
    },
    {
      "t": 691.4,
      "ch": 1,
      "note": 38,
      "vel": 63,
      "dur": 25
    },
    {
      "t": 691.4,
      "ch": 1,
      "note": 40,
      "vel": 80,
      "dur": 25
    },
    {
      "t": 691.4,
      "ch": 1,
      "note": 42,
      "vel": 95,
      "dur": 25
    },
    {
      "t": 691.4,
      "ch": 1,
      "note": 36,
      "vel": 75,
      "dur": 25
    },
    {
      "t": 691.4,
      "ch": 1,
      "note": 38,
      "vel": 77,
      "dur": 25
    },
    {
      "t": 691.4,
      "ch": 1,
      "note": 40,
      "vel": 76,
      "dur": 25
    },
    {
      "t": 691.4,
      "ch": 1,
      "note": 42,
      "vel": 94,
      "dur": 25
    },
    {
      "t": 691.4,
      "ch": 1,
      "note": 36,
      "vel": 67,
      "dur": 25
    },
    {
      "t": 691.4,
      "ch": 1,
      "note": 38,
      "vel": 62,
      "dur": 25
    },
    {
      "t": 691.4,
      "ch": 1,
      "note": 40,
      "vel": 90,
      "dur": 25
    },
    {
      "t": 691.4,
      "ch": 1,
      "note": 42,
      "vel": 70,
      "dur": 25
    },
    {
      "t": 691.4,
      "ch": 1,
      "note": 36,
      "vel": 85,
      "dur": 25
    },
    {
      "t": 691.4,
      "ch": 1,
      "note": 38,
      "vel": 87,
      "dur": 25
    },
    {
      "t": 691.4,
      "ch": 1,
      "note": 40,
      "vel": 78,
      "dur": 25
    },
    {
      "t": 691.4,
      "ch": 1,
      "note": 42,
      "vel": 93,
      "dur": 25
    },
    {
      "t": 691.4,
      "ch": 1,
      "note": 36,
      "vel": 88,
      "dur": 25
    },
    {
      "t": 691.4,
      "ch": 1,
      "note": 38,
      "vel": 85,
      "dur": 25
    },
    {
      "t": 691.4,
      "ch": 1,
      "note": 40,
      "vel": 91,
      "dur": 25
    },
    {
      "t": 691.4,
      "ch": 1,
      "note": 42,
      "vel": 75,
      "dur": 25
    },
    {
      "t": 691.4,
      "ch": 1,
      "note": 36,
      "vel": 65,
      "dur": 25
    },
    {
      "t": 691.4,
      "ch": 1,
      "note": 38,
      "vel": 86,
      "dur": 25
    },
    {
      "t": 691.4,
      "ch": 1,
      "note": 40,
      "vel": 83,
      "dur": 25
    },
    {
      "t": 691.4,
      "ch": 1,
      "note": 42,
      "vel": 77,
      "dur": 25
    },
    {
      "t": 691.4,
      "ch": 1,
      "note": 36,
      "vel": 95,
      "dur": 25
    },
    {
      "t": 691.4,
      "ch": 1,
      "note": 38,
      "vel": 67,
      "dur": 25
    },
    {
      "t": 691.4,
      "ch": 1,
      "note": 40,
      "vel": 73,
      "dur": 25
    },
    {
      "t": 691.4,
      "ch": 1,
      "note": 42,
      "vel": 103,
      "dur": 25
    },
    {
      "t": 691.4,
      "ch": 1,
      "note": 36,
      "vel": 82,
      "dur": 25
    },
    {
      "t": 691.4,
      "ch": 1,
      "note": 38,
      "vel": 99,
      "dur": 25
    },
    {
      "t": 691.4,
      "ch": 1,
      "note": 40,
      "vel": 84,
      "dur": 25
    },
    {
      "t": 691.4,
      "ch": 1,
      "note": 42,
      "vel": 84,
      "dur": 25
    },
    {
      "t": 691.4,
      "ch": 1,
      "note": 36,
      "vel": 97,
      "dur": 25
    },
    {
      "t": 691.4,
      "ch": 1,
      "note": 38,
      "vel": 87,
      "dur": 25
    },
    {
      "t": 691.4,
      "ch": 1,
      "note": 40,
      "vel": 78,
      "dur": 25
    },
    {
      "t": 691.4,
      "ch": 1,
      "note": 42,
      "vel": 93,
      "dur": 25
    },
    {
      "t": 691.4,
      "ch": 1,
      "note": 36,
      "vel": 60,
      "dur": 25
    },
    {
      "t": 691.4,
      "ch": 1,
      "note": 38,
      "vel": 80,
      "dur": 25
    },
    {
      "t": 691.4,
      "ch": 1,
      "note": 40,
      "vel": 121,
      "dur": 25
    },
    {
      "t": 691.4,
      "ch": 1,
      "note": 42,
      "vel": 67,
      "dur": 25
    },
    {
      "t": 691.4,
      "ch": 1,
      "note": 36,
      "vel": 59,
      "dur": 25
    },
    {
      "t": 691.4,
      "ch": 1,
      "note": 38,
      "vel": 91,
      "dur": 25
    },
    {
      "t": 691.4,
      "ch": 1,
      "note": 40,
      "vel": 91,
      "dur": 25
    },
    {
      "t": 691.4,
      "ch": 1,
      "note": 42,
      "vel": 71,
      "dur": 25
    },
    {
      "t": 691.4,
      "ch": 1,
      "note": 36,
      "vel": 94,
      "dur": 25
    },
    {
      "t": 691.4,
      "ch": 1,
      "note": 38,
      "vel": 73,
      "dur": 25
    },
    {
      "t": 691.4,
      "ch": 1,
      "note": 40,
      "vel": 104,
      "dur": 25
    },
    {
      "t": 691.4,
      "ch": 1,
      "note": 42,
      "vel": 76,
      "dur": 25
    },
    {
      "t": 691.4,
      "ch": 1,
      "note": 36,
      "vel": 83,
      "dur": 25
    },
    {
      "t": 691.4,
      "ch": 1,
      "note": 38,
      "vel": 92,
      "dur": 25
    },
    {
      "t": 691.4,
      "ch": 1,
      "note": 40,
      "vel": 81,
      "dur": 25
    },
    {
      "t": 691.4,
      "ch": 1,
      "note": 42,
      "vel": 98,
      "dur": 25
    },
    {
      "t": 691.4,
      "ch": 1,
      "note": 36,
      "vel": 77,
      "dur": 25
    },
    {
      "t": 691.4,
      "ch": 1,
      "note": 38,
      "vel": 93,
      "dur": 25
    },
    {
      "t": 691.4,
      "ch": 1,
      "note": 40,
      "vel": 84,
      "dur": 25
    },
    {
      "t": 691.4,
      "ch": 1,
      "note": 42,
      "vel": 83,
      "dur": 25
    },
    {
      "t": 691.4,
      "ch": 1,
      "note": 36,
      "vel": 79,
      "dur": 25
    },
    {
      "t": 691.4,
      "ch": 1,
      "note": 38,
      "vel": 107,
      "dur": 25
    },
    {
      "t": 691.4,
      "ch": 1,
      "note": 40,
      "vel": 60,
      "dur": 25
    },
    {
      "t": 691.4,
      "ch": 1,
      "note": 42,
      "vel": 92,
      "dur": 25
    },
    {
      "t": 691.4,
      "ch": 1,
      "note": 36,
      "vel": 85,
      "dur": 25
    },
    {
      "t": 691.4,
      "ch": 1,
      "note": 38,
      "vel": 108,
      "dur": 25
    },
    {
      "t": 691.4,
      "ch": 1,
      "note": 40,
      "vel": 67,
      "dur": 25
    },
    {
      "t": 691.4,
      "ch": 1,
      "note": 42,
      "vel": 101,
      "dur": 25
    },
    {
      "t": 691.4,
      "ch": 1,
      "note": 36,
      "vel": 83,
      "dur": 25
    },
    {
      "t": 691.4,
      "ch": 1,
      "note": 38,
      "vel": 78,
      "dur": 25
    },
    {
      "t": 691.4,
      "ch": 1,
      "note": 40,
      "vel": 67,
      "dur": 25
    },
    {
      "t": 691.4,
      "ch": 1,
      "note": 42,
      "vel": 97,
      "dur": 25
    },
    {
      "t": 691.4,
      "ch": 1,
      "note": 36,
      "vel": 98,
      "dur": 25
    },
    {
      "t": 691.4,
      "ch": 1,
      "note": 38,
      "vel": 74,
      "dur": 25
    },
    {
      "t": 691.4,
      "ch": 1,
      "note": 40,
      "vel": 88,
      "dur": 25
    },
    {
      "t": 691.4,
      "ch": 1,
      "note": 42,
      "vel": 81,
      "dur": 25
    },
    {
      "t": 691.4,
      "ch": 1,
      "note": 36,
      "vel": 92,
      "dur": 25
    },
    {
      "t": 691.4,
      "ch": 1,
      "note": 38,
      "vel": 87,
      "dur": 25
    },
    {
      "t": 691.4,
      "ch": 1,
      "note": 40,
      "vel": 89,
      "dur": 25
    },
    {
      "t": 691.4,
      "ch": 1,
      "note": 42,
      "vel": 81,
      "dur": 25
    },
    {
      "t": 691.4,
      "ch": 1,
      "note": 36,
      "vel": 71,
      "dur": 25
    },
    {
      "t": 691.4,
      "ch": 1,
      "note": 38,
      "vel": 70,
      "dur": 25
    },
    {
      "t": 691.4,
      "ch": 1,
      "note": 40,
      "vel": 80,
      "dur": 25
    },
    {
      "t": 691.4,
      "ch": 1,
      "note": 42,
      "vel": 88,
      "dur": 25
    },
    {
      "t": 691.4,
      "ch": 1,
      "note": 36,
      "vel": 85,
      "dur": 25
    },
    {
      "t": 691.4,
      "ch": 1,
      "note": 38,
      "vel": 63,
      "dur": 25
    },
    {
      "t": 691.4,
      "ch": 1,
      "note": 40,
      "vel": 93,
      "dur": 25
    },
    {
      "t": 691.4,
      "ch": 1,
      "note": 42,
      "vel": 86,
      "dur": 25
    },
    {
      "t": 691.4,
      "ch": 1,
      "note": 36,
      "vel": 72,
      "dur": 25
    },
    {
      "t": 691.4,
      "ch": 1,
      "note": 38,
      "vel": 74,
      "dur": 25
    },
    {
      "t": 691.4,
      "ch": 1,
      "note": 40,
      "vel": 72,
      "dur": 25
    },
    {
      "t": 691.4,
      "ch": 1,
      "note": 42,
      "vel": 92,
      "dur": 25
    },
    {
      "t": 691.4,
      "ch": 1,
      "note": 36,
      "vel": 80,
      "dur": 25
    },
    {
      "t": 691.4,
      "ch": 1,
      "note": 38,
      "vel": 91,
      "dur": 25
    },
    {
      "t": 691.4,
      "ch": 1,
      "note": 40,
      "vel": 73,
      "dur": 25
    },
    {
      "t": 691.4,
      "ch": 1,
      "note": 42,
      "vel": 98,
      "dur": 25
    },
    {
      "t": 691.4,
      "ch": 1,
      "note": 36,
      "vel": 106,
      "dur": 25
    },
    {
      "t": 691.4,
      "ch": 1,
      "note": 38,
      "vel": 100,
      "dur": 25
    },
    {
      "t": 691.4,
      "ch": 1,
      "note": 40,
      "vel": 98,
      "dur": 25
    },
    {
      "t": 691.4,
      "ch": 1,
      "note": 42,
      "vel": 73,
      "dur": 25
    },
    {
      "t": 691.4,
      "ch": 1,
      "note": 36,
      "vel": 90,
      "dur": 25
    },
    {
      "t": 691.4,
      "ch": 1,
      "note": 38,
      "vel": 75,
      "dur": 25
    },
    {
      "t": 691.4,
      "ch": 1,
      "note": 40,
      "vel": 75,
      "dur": 25
    },
    {
      "t": 691.4,
      "ch": 1,
      "note": 42,
      "vel": 107,
      "dur": 25
    },
    {
      "t": 691.4,
      "ch": 1,
      "note": 36,
      "vel": 68,
      "dur": 25
    },
    {
      "t": 691.4,
      "ch": 1,
      "note": 38,
      "vel": 81,
      "dur": 25
    },
    {
      "t": 691.4,
      "ch": 1,
      "note": 40,
      "vel": 100,
      "dur": 25
    },
    {
      "t": 691.4,
      "ch": 1,
      "note": 42,
      "vel": 88,
      "dur": 25
    },
    {
      "t": 691.4,
      "ch": 1,
      "note": 36,
      "vel": 73,
      "dur": 25
    },
    {
      "t": 691.4,
      "ch": 1,
      "note": 38,
      "vel": 78,
      "dur": 25
    },
    {
      "t": 691.4,
      "ch": 1,
      "note": 40,
      "vel": 88,
      "dur": 25
    },
    {
      "t": 691.4,
      "ch": 1,
      "note": 42,
      "vel": 99,
      "dur": 25
    },
    {
      "t": 691.4,
      "ch": 1,
      "note": 36,
      "vel": 101,
      "dur": 25
    },
    {
      "t": 691.4,
      "ch": 1,
      "note": 38,
      "vel": 88,
      "dur": 25
    },
    {
      "t": 691.4,
      "ch": 1,
      "note": 40,
      "vel": 99,
      "dur": 25
    },
    {
      "t": 691.4,
      "ch": 1,
      "note": 42,
      "vel": 71,
      "dur": 25
    },
    {
      "t": 691.4,
      "ch": 1,
      "note": 36,
      "vel": 110,
      "dur": 25
    },
    {
      "t": 691.4,
      "ch": 1,
      "note": 38,
      "vel": 85,
      "dur": 25
    },
    {
      "t": 691.4,
      "ch": 1,
      "note": 40,
      "vel": 85,
      "dur": 25
    },
    {
      "t": 691.4,
      "ch": 1,
      "note": 42,
      "vel": 102,
      "dur": 25
    },
    {
      "t": 691.4,
      "ch": 1,
      "note": 36,
      "vel": 78,
      "dur": 25
    },
    {
      "t": 691.4,
      "ch": 1,
      "note": 38,
      "vel": 94,
      "dur": 25
    },
    {
      "t": 691.4,
      "ch": 1,
      "note": 40,
      "vel": 89,
      "dur": 25
    },
    {
      "t": 691.4,
      "ch": 1,
      "note": 42,
      "vel": 78,
      "dur": 25
    },
    {
      "t": 691.4,
      "ch": 7,
      "note": 48,
      "vel": 70,
      "dur": 80
    },
    {
      "t": 691.4,
      "ch": 7,
      "note": 45,
      "vel": 67,
      "dur": 80
    },
    {
      "t": 691.4,
      "ch": 7,
      "note": 36,
      "vel": 67,
      "dur": 80
    },
    {
      "t": 691.4,
      "ch": 7,
      "note": 38,
      "vel": 75,
      "dur": 80
    },
    {
      "t": 691.4,
      "ch": 5,
      "note": 80,
      "vel": 34,
      "dur": 986
    },
    {
      "t": 691.6,
      "ch": 1,
      "note": 36,
      "vel": 94,
      "dur": 25
    },
    {
      "t": 691.6,
      "ch": 1,
      "note": 38,
      "vel": 80,
      "dur": 25
    },
    {
      "t": 691.8,
      "ch": 1,
      "note": 40,
      "vel": 82,
      "dur": 25
    },
    {
      "t": 691.8,
      "ch": 1,
      "note": 42,
      "vel": 61,
      "dur": 25
    },
    {
      "t": 691.8,
      "ch": 7,
      "note": 36,
      "vel": 67,
      "dur": 80
    },
    {
      "t": 691.9,
      "ch": 1,
      "note": 36,
      "vel": 80,
      "dur": 25
    },
    {
      "t": 692,
      "ch": 1,
      "note": 38,
      "vel": 80,
      "dur": 25
    },
    {
      "t": 692.1,
      "ch": 1,
      "note": 40,
      "vel": 77,
      "dur": 25
    },
    {
      "t": 692.1,
      "ch": 1,
      "note": 42,
      "vel": 86,
      "dur": 25
    },
    {
      "t": 692.1,
      "ch": 7,
      "note": 48,
      "vel": 59,
      "dur": 80
    },
    {
      "t": 692.1,
      "ch": 7,
      "note": 36,
      "vel": 86,
      "dur": 80
    },
    {
      "t": 692.3,
      "ch": 1,
      "note": 36,
      "vel": 83,
      "dur": 25
    },
    {
      "t": 692.3,
      "ch": 1,
      "note": 38,
      "vel": 82,
      "dur": 25
    },
    {
      "t": 692.3,
      "ch": 7,
      "note": 45,
      "vel": 70,
      "dur": 80
    },
    {
      "t": 692.3,
      "ch": 7,
      "note": 38,
      "vel": 58,
      "dur": 80
    },
    {
      "t": 692.5,
      "ch": 1,
      "note": 40,
      "vel": 83,
      "dur": 25
    },
    {
      "t": 692.5,
      "ch": 1,
      "note": 42,
      "vel": 53,
      "dur": 25
    },
    {
      "t": 692.5,
      "ch": 0,
      "note": 36,
      "vel": 81,
      "dur": 55
    },
    {
      "t": 692.6,
      "ch": 1,
      "note": 36,
      "vel": 78,
      "dur": 25
    },
    {
      "t": 692.6,
      "ch": 1,
      "note": 38,
      "vel": 63,
      "dur": 25
    },
    {
      "t": 692.7,
      "ch": 2,
      "note": 58,
      "vel": 54,
      "dur": 20930
    },
    {
      "t": 692.7,
      "ch": 2,
      "note": 70,
      "vel": 38,
      "dur": 20930
    },
    {
      "t": 692.8,
      "ch": 1,
      "note": 40,
      "vel": 83,
      "dur": 25
    },
    {
      "t": 692.8,
      "ch": 1,
      "note": 42,
      "vel": 83,
      "dur": 25
    },
    {
      "t": 692.8,
      "ch": 7,
      "note": 48,
      "vel": 71,
      "dur": 80
    },
    {
      "t": 692.8,
      "ch": 7,
      "note": 36,
      "vel": 67,
      "dur": 80
    },
    {
      "t": 692.8,
      "ch": 5,
      "note": 77,
      "vel": 30,
      "dur": 985
    },
    {
      "t": 693,
      "ch": 1,
      "note": 36,
      "vel": 88,
      "dur": 25
    },
    {
      "t": 693,
      "ch": 1,
      "note": 38,
      "vel": 89,
      "dur": 25
    },
    {
      "t": 693.2,
      "ch": 1,
      "note": 40,
      "vel": 63,
      "dur": 25
    },
    {
      "t": 693.2,
      "ch": 1,
      "note": 42,
      "vel": 63,
      "dur": 25
    },
    {
      "t": 693.2,
      "ch": 7,
      "note": 45,
      "vel": 61,
      "dur": 80
    },
    {
      "t": 693.2,
      "ch": 7,
      "note": 36,
      "vel": 78,
      "dur": 80
    },
    {
      "t": 693.2,
      "ch": 7,
      "note": 38,
      "vel": 62,
      "dur": 80
    },
    {
      "t": 693.3,
      "ch": 1,
      "note": 36,
      "vel": 51,
      "dur": 25
    },
    {
      "t": 693.3,
      "ch": 1,
      "note": 38,
      "vel": 72,
      "dur": 25
    },
    {
      "t": 693.5,
      "ch": 1,
      "note": 40,
      "vel": 85,
      "dur": 25
    },
    {
      "t": 693.5,
      "ch": 1,
      "note": 42,
      "vel": 112,
      "dur": 25
    },
    {
      "t": 693.5,
      "ch": 7,
      "note": 48,
      "vel": 76,
      "dur": 80
    },
    {
      "t": 693.5,
      "ch": 7,
      "note": 36,
      "vel": 61,
      "dur": 80
    },
    {
      "t": 693.7,
      "ch": 1,
      "note": 36,
      "vel": 95,
      "dur": 25
    },
    {
      "t": 693.7,
      "ch": 1,
      "note": 38,
      "vel": 47,
      "dur": 25
    },
    {
      "t": 693.8,
      "ch": 1,
      "note": 40,
      "vel": 80,
      "dur": 25
    },
    {
      "t": 693.9,
      "ch": 1,
      "note": 42,
      "vel": 71,
      "dur": 25
    },
    {
      "t": 693.9,
      "ch": 0,
      "note": 36,
      "vel": 79,
      "dur": 55
    },
    {
      "t": 694,
      "ch": 1,
      "note": 36,
      "vel": 79,
      "dur": 25
    },
    {
      "t": 694,
      "ch": 1,
      "note": 38,
      "vel": 63,
      "dur": 25
    },
    {
      "t": 694.2,
      "ch": 1,
      "note": 40,
      "vel": 95,
      "dur": 25
    },
    {
      "t": 694.2,
      "ch": 0,
      "note": 36,
      "vel": 111,
      "dur": 55
    },
    {
      "t": 694.2,
      "ch": 1,
      "note": 42,
      "vel": 99,
      "dur": 25
    },
    {
      "t": 694.2,
      "ch": 7,
      "note": 48,
      "vel": 70,
      "dur": 80
    },
    {
      "t": 694.2,
      "ch": 7,
      "note": 45,
      "vel": 86,
      "dur": 80
    },
    {
      "t": 694.2,
      "ch": 7,
      "note": 36,
      "vel": 74,
      "dur": 80
    },
    {
      "t": 694.2,
      "ch": 7,
      "note": 38,
      "vel": 64,
      "dur": 80
    },
    {
      "t": 694.4,
      "ch": 1,
      "note": 36,
      "vel": 96,
      "dur": 25
    },
    {
      "t": 694.4,
      "ch": 1,
      "note": 38,
      "vel": 58,
      "dur": 25
    },
    {
      "t": 694.5,
      "ch": 1,
      "note": 40,
      "vel": 79,
      "dur": 25
    },
    {
      "t": 694.6,
      "ch": 1,
      "note": 42,
      "vel": 82,
      "dur": 25
    },
    {
      "t": 694.6,
      "ch": 7,
      "note": 36,
      "vel": 60,
      "dur": 80
    },
    {
      "t": 694.7,
      "ch": 1,
      "note": 36,
      "vel": 79,
      "dur": 25
    },
    {
      "t": 694.7,
      "ch": 1,
      "note": 38,
      "vel": 63,
      "dur": 25
    },
    {
      "t": 694.9,
      "ch": 1,
      "note": 40,
      "vel": 66,
      "dur": 25
    },
    {
      "t": 694.9,
      "ch": 1,
      "note": 42,
      "vel": 75,
      "dur": 25
    },
    {
      "t": 694.9,
      "ch": 7,
      "note": 48,
      "vel": 77,
      "dur": 80
    },
    {
      "t": 694.9,
      "ch": 7,
      "note": 36,
      "vel": 65,
      "dur": 80
    },
    {
      "t": 694.9,
      "ch": 5,
      "note": 77,
      "vel": 16,
      "dur": 977
    },
    {
      "t": 695.1,
      "ch": 1,
      "note": 36,
      "vel": 103,
      "dur": 25
    },
    {
      "t": 695.1,
      "ch": 1,
      "note": 38,
      "vel": 75,
      "dur": 25
    },
    {
      "t": 695.1,
      "ch": 7,
      "note": 45,
      "vel": 57,
      "dur": 80
    },
    {
      "t": 695.1,
      "ch": 7,
      "note": 38,
      "vel": 71,
      "dur": 80
    },
    {
      "t": 695.2,
      "ch": 1,
      "note": 40,
      "vel": 75,
      "dur": 25
    },
    {
      "t": 695.3,
      "ch": 1,
      "note": 42,
      "vel": 91,
      "dur": 25
    },
    {
      "t": 695.3,
      "ch": 0,
      "note": 36,
      "vel": 81,
      "dur": 55
    },
    {
      "t": 695.4,
      "ch": 1,
      "note": 36,
      "vel": 65,
      "dur": 25
    },
    {
      "t": 695.4,
      "ch": 1,
      "note": 38,
      "vel": 65,
      "dur": 25
    },
    {
      "t": 695.6,
      "ch": 1,
      "note": 40,
      "vel": 79,
      "dur": 25
    },
    {
      "t": 695.6,
      "ch": 1,
      "note": 42,
      "vel": 76,
      "dur": 25
    },
    {
      "t": 695.6,
      "ch": 7,
      "note": 48,
      "vel": 72,
      "dur": 80
    },
    {
      "t": 695.6,
      "ch": 7,
      "note": 36,
      "vel": 68,
      "dur": 80
    },
    {
      "t": 695.8,
      "ch": 1,
      "note": 36,
      "vel": 75,
      "dur": 25
    },
    {
      "t": 695.8,
      "ch": 1,
      "note": 38,
      "vel": 57,
      "dur": 25
    },
    {
      "t": 695.9,
      "ch": 1,
      "note": 40,
      "vel": 87,
      "dur": 25
    },
    {
      "t": 696,
      "ch": 1,
      "note": 42,
      "vel": 82,
      "dur": 25
    },
    {
      "t": 696,
      "ch": 7,
      "note": 45,
      "vel": 76,
      "dur": 80
    },
    {
      "t": 696,
      "ch": 7,
      "note": 36,
      "vel": 62,
      "dur": 80
    },
    {
      "t": 696,
      "ch": 7,
      "note": 38,
      "vel": 46,
      "dur": 80
    },
    {
      "t": 696.1,
      "ch": 1,
      "note": 36,
      "vel": 72,
      "dur": 25
    },
    {
      "t": 696.1,
      "ch": 1,
      "note": 38,
      "vel": 74,
      "dur": 25
    },
    {
      "t": 696.3,
      "ch": 1,
      "note": 40,
      "vel": 68,
      "dur": 25
    },
    {
      "t": 696.3,
      "ch": 1,
      "note": 42,
      "vel": 87,
      "dur": 25
    },
    {
      "t": 696.3,
      "ch": 7,
      "note": 48,
      "vel": 78,
      "dur": 80
    },
    {
      "t": 696.3,
      "ch": 7,
      "note": 36,
      "vel": 71,
      "dur": 80
    },
    {
      "t": 696.5,
      "ch": 1,
      "note": 36,
      "vel": 100,
      "dur": 25
    },
    {
      "t": 696.5,
      "ch": 1,
      "note": 38,
      "vel": 50,
      "dur": 25
    },
    {
      "t": 696.6,
      "ch": 1,
      "note": 40,
      "vel": 62,
      "dur": 25
    },
    {
      "t": 696.7,
      "ch": 1,
      "note": 42,
      "vel": 76,
      "dur": 25
    },
    {
      "t": 696.7,
      "ch": 0,
      "note": 36,
      "vel": 85,
      "dur": 55
    },
    {
      "t": 696.8,
      "ch": 1,
      "note": 36,
      "vel": 77,
      "dur": 25
    },
    {
      "t": 696.8,
      "ch": 1,
      "note": 38,
      "vel": 72,
      "dur": 25
    },
    {
      "t": 697,
      "ch": 1,
      "note": 40,
      "vel": 85,
      "dur": 25
    },
    {
      "t": 697,
      "ch": 0,
      "note": 36,
      "vel": 111,
      "dur": 55
    },
    {
      "t": 697,
      "ch": 1,
      "note": 42,
      "vel": 83,
      "dur": 25
    },
    {
      "t": 697,
      "ch": 7,
      "note": 48,
      "vel": 69,
      "dur": 80
    },
    {
      "t": 697,
      "ch": 7,
      "note": 45,
      "vel": 67,
      "dur": 80
    },
    {
      "t": 697,
      "ch": 7,
      "note": 36,
      "vel": 76,
      "dur": 80
    },
    {
      "t": 697,
      "ch": 7,
      "note": 38,
      "vel": 69,
      "dur": 80
    },
    {
      "t": 697.2,
      "ch": 1,
      "note": 36,
      "vel": 104,
      "dur": 25
    },
    {
      "t": 697.2,
      "ch": 1,
      "note": 38,
      "vel": 65,
      "dur": 25
    },
    {
      "t": 697.3,
      "ch": 1,
      "note": 40,
      "vel": 76,
      "dur": 25
    },
    {
      "t": 697.4,
      "ch": 1,
      "note": 42,
      "vel": 56,
      "dur": 25
    },
    {
      "t": 697.4,
      "ch": 7,
      "note": 36,
      "vel": 62,
      "dur": 80
    },
    {
      "t": 697.5,
      "ch": 1,
      "note": 36,
      "vel": 66,
      "dur": 25
    },
    {
      "t": 697.5,
      "ch": 1,
      "note": 38,
      "vel": 67,
      "dur": 25
    },
    {
      "t": 697.5,
      "ch": 5,
      "note": 80,
      "vel": 31,
      "dur": 962
    },
    {
      "t": 697.7,
      "ch": 1,
      "note": 40,
      "vel": 67,
      "dur": 25
    },
    {
      "t": 697.7,
      "ch": 1,
      "note": 42,
      "vel": 91,
      "dur": 25
    },
    {
      "t": 697.7,
      "ch": 7,
      "note": 48,
      "vel": 78,
      "dur": 80
    },
    {
      "t": 697.7,
      "ch": 7,
      "note": 36,
      "vel": 81,
      "dur": 80
    },
    {
      "t": 697.9,
      "ch": 1,
      "note": 36,
      "vel": 80,
      "dur": 25
    },
    {
      "t": 697.9,
      "ch": 1,
      "note": 38,
      "vel": 66,
      "dur": 25
    },
    {
      "t": 697.9,
      "ch": 7,
      "note": 45,
      "vel": 60,
      "dur": 80
    },
    {
      "t": 697.9,
      "ch": 7,
      "note": 38,
      "vel": 65,
      "dur": 80
    },
    {
      "t": 698,
      "ch": 1,
      "note": 40,
      "vel": 76,
      "dur": 25
    },
    {
      "t": 698.1,
      "ch": 1,
      "note": 42,
      "vel": 67,
      "dur": 25
    },
    {
      "t": 698.1,
      "ch": 0,
      "note": 36,
      "vel": 83,
      "dur": 55
    },
    {
      "t": 698.2,
      "ch": 1,
      "note": 36,
      "vel": 69,
      "dur": 25
    },
    {
      "t": 698.2,
      "ch": 1,
      "note": 38,
      "vel": 58,
      "dur": 25
    },
    {
      "t": 698.4,
      "ch": 1,
      "note": 40,
      "vel": 62,
      "dur": 25
    },
    {
      "t": 698.4,
      "ch": 1,
      "note": 42,
      "vel": 107,
      "dur": 25
    },
    {
      "t": 698.4,
      "ch": 7,
      "note": 48,
      "vel": 71,
      "dur": 80
    },
    {
      "t": 698.4,
      "ch": 7,
      "note": 36,
      "vel": 70,
      "dur": 80
    },
    {
      "t": 698.6,
      "ch": 1,
      "note": 36,
      "vel": 96,
      "dur": 25
    },
    {
      "t": 698.6,
      "ch": 1,
      "note": 38,
      "vel": 71,
      "dur": 25
    },
    {
      "t": 698.7,
      "ch": 1,
      "note": 40,
      "vel": 75,
      "dur": 25
    },
    {
      "t": 698.8,
      "ch": 1,
      "note": 42,
      "vel": 69,
      "dur": 25
    },
    {
      "t": 698.8,
      "ch": 7,
      "note": 45,
      "vel": 60,
      "dur": 80
    },
    {
      "t": 698.8,
      "ch": 7,
      "note": 36,
      "vel": 65,
      "dur": 80
    },
    {
      "t": 698.8,
      "ch": 7,
      "note": 38,
      "vel": 60,
      "dur": 80
    },
    {
      "t": 698.9,
      "ch": 1,
      "note": 36,
      "vel": 60,
      "dur": 25
    },
    {
      "t": 698.9,
      "ch": 1,
      "note": 38,
      "vel": 66,
      "dur": 25
    },
    {
      "t": 699.1,
      "ch": 1,
      "note": 40,
      "vel": 80,
      "dur": 25
    },
    {
      "t": 699.1,
      "ch": 1,
      "note": 42,
      "vel": 109,
      "dur": 25
    },
    {
      "t": 699.1,
      "ch": 7,
      "note": 48,
      "vel": 53,
      "dur": 80
    },
    {
      "t": 699.1,
      "ch": 7,
      "note": 36,
      "vel": 64,
      "dur": 80
    },
    {
      "t": 699.3,
      "ch": 1,
      "note": 36,
      "vel": 71,
      "dur": 25
    },
    {
      "t": 699.3,
      "ch": 1,
      "note": 38,
      "vel": 56,
      "dur": 25
    },
    {
      "t": 699.4,
      "ch": 1,
      "note": 40,
      "vel": 74,
      "dur": 25
    },
    {
      "t": 699.5,
      "ch": 1,
      "note": 42,
      "vel": 76,
      "dur": 25
    },
    {
      "t": 699.5,
      "ch": 0,
      "note": 36,
      "vel": 80,
      "dur": 55
    },
    {
      "t": 699.6,
      "ch": 1,
      "note": 36,
      "vel": 75,
      "dur": 25
    },
    {
      "t": 699.6,
      "ch": 1,
      "note": 38,
      "vel": 65,
      "dur": 25
    },
    {
      "t": 699.8,
      "ch": 1,
      "note": 40,
      "vel": 83,
      "dur": 25
    },
    {
      "t": 699.8,
      "ch": 0,
      "note": 36,
      "vel": 118,
      "dur": 55
    },
    {
      "t": 699.8,
      "ch": 1,
      "note": 42,
      "vel": 77,
      "dur": 25
    },
    {
      "t": 699.8,
      "ch": 7,
      "note": 48,
      "vel": 64,
      "dur": 80
    },
    {
      "t": 699.8,
      "ch": 7,
      "note": 45,
      "vel": 67,
      "dur": 80
    },
    {
      "t": 699.8,
      "ch": 7,
      "note": 36,
      "vel": 79,
      "dur": 80
    },
    {
      "t": 699.8,
      "ch": 7,
      "note": 38,
      "vel": 60,
      "dur": 80
    },
    {
      "t": 700,
      "ch": 1,
      "note": 36,
      "vel": 76,
      "dur": 25
    },
    {
      "t": 700,
      "ch": 1,
      "note": 38,
      "vel": 75,
      "dur": 25
    },
    {
      "t": 700.1,
      "ch": 1,
      "note": 40,
      "vel": 70,
      "dur": 25
    },
    {
      "t": 700.1,
      "ch": 1,
      "note": 42,
      "vel": 47,
      "dur": 25
    },
    {
      "t": 700.2,
      "ch": 7,
      "note": 36,
      "vel": 65,
      "dur": 80
    },
    {
      "t": 700.3,
      "ch": 1,
      "note": 36,
      "vel": 59,
      "dur": 25
    },
    {
      "t": 700.3,
      "ch": 1,
      "note": 38,
      "vel": 75,
      "dur": 25
    },
    {
      "t": 700.5,
      "ch": 1,
      "note": 40,
      "vel": 88,
      "dur": 25
    },
    {
      "t": 700.5,
      "ch": 1,
      "note": 42,
      "vel": 90,
      "dur": 25
    },
    {
      "t": 700.5,
      "ch": 7,
      "note": 48,
      "vel": 80,
      "dur": 80
    },
    {
      "t": 700.5,
      "ch": 7,
      "note": 36,
      "vel": 64,
      "dur": 80
    },
    {
      "t": 700.7,
      "ch": 1,
      "note": 36,
      "vel": 64,
      "dur": 25
    },
    {
      "t": 700.7,
      "ch": 1,
      "note": 38,
      "vel": 71,
      "dur": 25
    },
    {
      "t": 700.7,
      "ch": 7,
      "note": 45,
      "vel": 53,
      "dur": 80
    },
    {
      "t": 700.7,
      "ch": 7,
      "note": 38,
      "vel": 62,
      "dur": 80
    },
    {
      "t": 700.8,
      "ch": 1,
      "note": 40,
      "vel": 68,
      "dur": 25
    },
    {
      "t": 700.8,
      "ch": 1,
      "note": 42,
      "vel": 54,
      "dur": 25
    },
    {
      "t": 700.9,
      "ch": 0,
      "note": 36,
      "vel": 81,
      "dur": 55
    },
    {
      "t": 701,
      "ch": 1,
      "note": 36,
      "vel": 74,
      "dur": 25
    },
    {
      "t": 701,
      "ch": 1,
      "note": 38,
      "vel": 65,
      "dur": 25
    },
    {
      "t": 701.2,
      "ch": 1,
      "note": 40,
      "vel": 64,
      "dur": 25
    },
    {
      "t": 701.2,
      "ch": 1,
      "note": 42,
      "vel": 92,
      "dur": 25
    },
    {
      "t": 701.2,
      "ch": 7,
      "note": 48,
      "vel": 71,
      "dur": 80
    },
    {
      "t": 701.2,
      "ch": 7,
      "note": 36,
      "vel": 76,
      "dur": 80
    },
    {
      "t": 701.3,
      "ch": 1,
      "note": 36,
      "vel": 92,
      "dur": 25
    },
    {
      "t": 701.4,
      "ch": 1,
      "note": 38,
      "vel": 67,
      "dur": 25
    },
    {
      "t": 701.5,
      "ch": 1,
      "note": 40,
      "vel": 81,
      "dur": 25
    },
    {
      "t": 701.5,
      "ch": 1,
      "note": 42,
      "vel": 71,
      "dur": 25
    },
    {
      "t": 701.6,
      "ch": 7,
      "note": 36,
      "vel": 58,
      "dur": 80
    },
    {
      "t": 701.6,
      "ch": 7,
      "note": 38,
      "vel": 63,
      "dur": 80
    },
    {
      "t": 701.6,
      "ch": 7,
      "note": 45,
      "vel": 74,
      "dur": 80
    },
    {
      "t": 701.7,
      "ch": 1,
      "note": 36,
      "vel": 59,
      "dur": 25
    },
    {
      "t": 701.7,
      "ch": 1,
      "note": 38,
      "vel": 76,
      "dur": 25
    },
    {
      "t": 701.9,
      "ch": 1,
      "note": 40,
      "vel": 84,
      "dur": 25
    },
    {
      "t": 701.9,
      "ch": 1,
      "note": 42,
      "vel": 95,
      "dur": 25
    },
    {
      "t": 701.9,
      "ch": 7,
      "note": 48,
      "vel": 78,
      "dur": 80
    },
    {
      "t": 701.9,
      "ch": 7,
      "note": 36,
      "vel": 68,
      "dur": 80
    },
    {
      "t": 702.1,
      "ch": 1,
      "note": 36,
      "vel": 71,
      "dur": 25
    },
    {
      "t": 702.1,
      "ch": 1,
      "note": 38,
      "vel": 76,
      "dur": 25
    },
    {
      "t": 702.2,
      "ch": 1,
      "note": 40,
      "vel": 70,
      "dur": 25
    },
    {
      "t": 702.2,
      "ch": 1,
      "note": 42,
      "vel": 70,
      "dur": 25
    },
    {
      "t": 702.3,
      "ch": 0,
      "note": 36,
      "vel": 76,
      "dur": 55
    },
    {
      "t": 702.4,
      "ch": 1,
      "note": 36,
      "vel": 68,
      "dur": 25
    },
    {
      "t": 702.4,
      "ch": 1,
      "note": 38,
      "vel": 72,
      "dur": 25
    },
    {
      "t": 702.6,
      "ch": 1,
      "note": 40,
      "vel": 69,
      "dur": 25
    },
    {
      "t": 702.6,
      "ch": 7,
      "note": 48,
      "vel": 76,
      "dur": 80
    },
    {
      "t": 702.6,
      "ch": 7,
      "note": 45,
      "vel": 77,
      "dur": 80
    },
    {
      "t": 702.6,
      "ch": 7,
      "note": 36,
      "vel": 69,
      "dur": 80
    },
    {
      "t": 702.6,
      "ch": 7,
      "note": 38,
      "vel": 67,
      "dur": 80
    },
    {
      "t": 703,
      "ch": 7,
      "note": 36,
      "vel": 73,
      "dur": 80
    },
    {
      "t": 703.3,
      "ch": 7,
      "note": 48,
      "vel": 68,
      "dur": 80
    },
    {
      "t": 703.3,
      "ch": 7,
      "note": 36,
      "vel": 75,
      "dur": 80
    },
    {
      "t": 703.5,
      "ch": 7,
      "note": 45,
      "vel": 55,
      "dur": 80
    },
    {
      "t": 703.5,
      "ch": 7,
      "note": 38,
      "vel": 61,
      "dur": 80
    },
    {
      "t": 703.9,
      "ch": 2,
      "note": 58,
      "vel": 56,
      "dur": 20930
    },
    {
      "t": 703.9,
      "ch": 2,
      "note": 70,
      "vel": 39,
      "dur": 20930
    },
    {
      "t": 704,
      "ch": 7,
      "note": 48,
      "vel": 65,
      "dur": 80
    },
    {
      "t": 704,
      "ch": 7,
      "note": 36,
      "vel": 66,
      "dur": 80
    },
    {
      "t": 704.3,
      "ch": 7,
      "note": 45,
      "vel": 64,
      "dur": 80
    },
    {
      "t": 704.3,
      "ch": 7,
      "note": 36,
      "vel": 52,
      "dur": 80
    },
    {
      "t": 704.3,
      "ch": 7,
      "note": 38,
      "vel": 68,
      "dur": 80
    },
    {
      "t": 704.5,
      "ch": 5,
      "note": 71,
      "vel": 22,
      "dur": 941
    },
    {
      "t": 704.7,
      "ch": 7,
      "note": 48,
      "vel": 70,
      "dur": 80
    },
    {
      "t": 704.7,
      "ch": 7,
      "note": 36,
      "vel": 65,
      "dur": 80
    },
    {
      "t": 704.9,
      "ch": 6,
      "note": 66,
      "vel": 7,
      "dur": 628
    },
    {
      "t": 705.4,
      "ch": 7,
      "note": 48,
      "vel": 72,
      "dur": 80
    },
    {
      "t": 705.4,
      "ch": 7,
      "note": 45,
      "vel": 65,
      "dur": 80
    },
    {
      "t": 705.4,
      "ch": 7,
      "note": 36,
      "vel": 80,
      "dur": 80
    },
    {
      "t": 705.4,
      "ch": 7,
      "note": 38,
      "vel": 67,
      "dur": 80
    },
    {
      "t": 705.8,
      "ch": 7,
      "note": 36,
      "vel": 60,
      "dur": 80
    },
    {
      "t": 706.1,
      "ch": 7,
      "note": 48,
      "vel": 63,
      "dur": 80
    },
    {
      "t": 706.1,
      "ch": 7,
      "note": 36,
      "vel": 62,
      "dur": 80
    },
    {
      "t": 706.3,
      "ch": 7,
      "note": 45,
      "vel": 64,
      "dur": 80
    },
    {
      "t": 706.3,
      "ch": 7,
      "note": 38,
      "vel": 54,
      "dur": 80
    },
    {
      "t": 706.7,
      "ch": 4,
      "note": 65,
      "vel": 44,
      "dur": 5531
    },
    {
      "t": 706.7,
      "ch": 4,
      "note": 70,
      "vel": 44,
      "dur": 5531
    },
    {
      "t": 706.8,
      "ch": 7,
      "note": 48,
      "vel": 60,
      "dur": 80
    },
    {
      "t": 706.8,
      "ch": 7,
      "note": 36,
      "vel": 63,
      "dur": 80
    },
    {
      "t": 707.1,
      "ch": 7,
      "note": 45,
      "vel": 70,
      "dur": 80
    },
    {
      "t": 707.1,
      "ch": 7,
      "note": 36,
      "vel": 60,
      "dur": 80
    },
    {
      "t": 707.1,
      "ch": 7,
      "note": 38,
      "vel": 65,
      "dur": 80
    },
    {
      "t": 707.5,
      "ch": 7,
      "note": 48,
      "vel": 59,
      "dur": 80
    },
    {
      "t": 707.5,
      "ch": 7,
      "note": 36,
      "vel": 72,
      "dur": 80
    },
    {
      "t": 708.2,
      "ch": 0,
      "note": 36,
      "vel": 127,
      "dur": 55
    },
    {
      "t": 708.2,
      "ch": 7,
      "note": 48,
      "vel": 78,
      "dur": 80
    },
    {
      "t": 708.2,
      "ch": 7,
      "note": 45,
      "vel": 62,
      "dur": 80
    },
    {
      "t": 708.2,
      "ch": 7,
      "note": 36,
      "vel": 60,
      "dur": 80
    },
    {
      "t": 708.2,
      "ch": 7,
      "note": 38,
      "vel": 83,
      "dur": 80
    },
    {
      "t": 708.5,
      "ch": 7,
      "note": 36,
      "vel": 54,
      "dur": 80
    },
    {
      "t": 708.9,
      "ch": 7,
      "note": 48,
      "vel": 71,
      "dur": 80
    },
    {
      "t": 708.9,
      "ch": 7,
      "note": 36,
      "vel": 69,
      "dur": 80
    },
    {
      "t": 709.1,
      "ch": 7,
      "note": 45,
      "vel": 68,
      "dur": 80
    },
    {
      "t": 709.1,
      "ch": 7,
      "note": 38,
      "vel": 57,
      "dur": 80
    },
    {
      "t": 709.2,
      "ch": 0,
      "note": 36,
      "vel": 83,
      "dur": 55
    },
    {
      "t": 709.6,
      "ch": 7,
      "note": 48,
      "vel": 73,
      "dur": 80
    },
    {
      "t": 709.6,
      "ch": 7,
      "note": 36,
      "vel": 71,
      "dur": 80
    },
    {
      "t": 709.9,
      "ch": 7,
      "note": 45,
      "vel": 58,
      "dur": 80
    },
    {
      "t": 709.9,
      "ch": 7,
      "note": 36,
      "vel": 56,
      "dur": 80
    },
    {
      "t": 709.9,
      "ch": 7,
      "note": 38,
      "vel": 56,
      "dur": 80
    },
    {
      "t": 710.3,
      "ch": 7,
      "note": 48,
      "vel": 74,
      "dur": 80
    },
    {
      "t": 710.3,
      "ch": 7,
      "note": 36,
      "vel": 85,
      "dur": 80
    },
    {
      "t": 710.6,
      "ch": 0,
      "note": 36,
      "vel": 78,
      "dur": 55
    },
    {
      "t": 711,
      "ch": 0,
      "note": 36,
      "vel": 116,
      "dur": 55
    },
    {
      "t": 711,
      "ch": 7,
      "note": 48,
      "vel": 81,
      "dur": 80
    },
    {
      "t": 711,
      "ch": 7,
      "note": 45,
      "vel": 61,
      "dur": 80
    },
    {
      "t": 711,
      "ch": 7,
      "note": 36,
      "vel": 64,
      "dur": 80
    },
    {
      "t": 711,
      "ch": 7,
      "note": 38,
      "vel": 71,
      "dur": 80
    },
    {
      "t": 711.3,
      "ch": 7,
      "note": 36,
      "vel": 56,
      "dur": 80
    },
    {
      "t": 711.7,
      "ch": 7,
      "note": 48,
      "vel": 63,
      "dur": 80
    },
    {
      "t": 711.7,
      "ch": 7,
      "note": 36,
      "vel": 80,
      "dur": 80
    },
    {
      "t": 711.8,
      "ch": 7,
      "note": 45,
      "vel": 62,
      "dur": 80
    },
    {
      "t": 711.8,
      "ch": 7,
      "note": 38,
      "vel": 64,
      "dur": 80
    },
    {
      "t": 712,
      "ch": 0,
      "note": 36,
      "vel": 89,
      "dur": 55
    },
    {
      "t": 712.3,
      "ch": 4,
      "note": 66,
      "vel": 38,
      "dur": 2790
    },
    {
      "t": 712.3,
      "ch": 4,
      "note": 65,
      "vel": 41,
      "dur": 2740
    },
    {
      "t": 712.3,
      "ch": 4,
      "note": 64,
      "vel": 38,
      "dur": 2790
    },
    {
      "t": 712.3,
      "ch": 4,
      "note": 63,
      "vel": 38,
      "dur": 2740
    },
    {
      "t": 712.3,
      "ch": 3,
      "note": 41,
      "vel": 42,
      "dur": 5581
    },
    {
      "t": 712.4,
      "ch": 7,
      "note": 48,
      "vel": 80,
      "dur": 80
    },
    {
      "t": 712.4,
      "ch": 7,
      "note": 36,
      "vel": 72,
      "dur": 80
    },
    {
      "t": 712.7,
      "ch": 7,
      "note": 45,
      "vel": 73,
      "dur": 80
    },
    {
      "t": 712.7,
      "ch": 7,
      "note": 36,
      "vel": 65,
      "dur": 80
    },
    {
      "t": 712.7,
      "ch": 7,
      "note": 38,
      "vel": 60,
      "dur": 80
    },
    {
      "t": 713.1,
      "ch": 7,
      "note": 48,
      "vel": 64,
      "dur": 80
    },
    {
      "t": 713.1,
      "ch": 7,
      "note": 36,
      "vel": 67,
      "dur": 80
    },
    {
      "t": 713.4,
      "ch": 0,
      "note": 36,
      "vel": 77,
      "dur": 55
    },
    {
      "t": 713.8,
      "ch": 0,
      "note": 36,
      "vel": 105,
      "dur": 55
    },
    {
      "t": 713.8,
      "ch": 7,
      "note": 48,
      "vel": 71,
      "dur": 80
    },
    {
      "t": 713.8,
      "ch": 7,
      "note": 45,
      "vel": 72,
      "dur": 80
    },
    {
      "t": 713.8,
      "ch": 7,
      "note": 36,
      "vel": 72,
      "dur": 80
    },
    {
      "t": 713.8,
      "ch": 7,
      "note": 38,
      "vel": 75,
      "dur": 80
    },
    {
      "t": 714.1,
      "ch": 7,
      "note": 36,
      "vel": 78,
      "dur": 80
    },
    {
      "t": 714.5,
      "ch": 7,
      "note": 48,
      "vel": 68,
      "dur": 80
    },
    {
      "t": 714.5,
      "ch": 7,
      "note": 36,
      "vel": 84,
      "dur": 80
    },
    {
      "t": 714.6,
      "ch": 7,
      "note": 45,
      "vel": 64,
      "dur": 80
    },
    {
      "t": 714.6,
      "ch": 7,
      "note": 38,
      "vel": 54,
      "dur": 80
    },
    {
      "t": 714.8,
      "ch": 0,
      "note": 36,
      "vel": 78,
      "dur": 55
    },
    {
      "t": 715.1,
      "ch": 2,
      "note": 58,
      "vel": 54,
      "dur": 20930
    },
    {
      "t": 715.1,
      "ch": 2,
      "note": 70,
      "vel": 38,
      "dur": 20930
    },
    {
      "t": 715.1,
      "ch": 7,
      "note": 48,
      "vel": 71,
      "dur": 80
    },
    {
      "t": 715.1,
      "ch": 7,
      "note": 36,
      "vel": 80,
      "dur": 80
    },
    {
      "t": 715.5,
      "ch": 7,
      "note": 45,
      "vel": 57,
      "dur": 80
    },
    {
      "t": 715.5,
      "ch": 7,
      "note": 36,
      "vel": 64,
      "dur": 80
    },
    {
      "t": 715.5,
      "ch": 7,
      "note": 38,
      "vel": 57,
      "dur": 80
    },
    {
      "t": 715.7,
      "ch": 5,
      "note": 78,
      "vel": 20,
      "dur": 982
    },
    {
      "t": 715.8,
      "ch": 7,
      "note": 48,
      "vel": 67,
      "dur": 80
    },
    {
      "t": 715.8,
      "ch": 7,
      "note": 36,
      "vel": 52,
      "dur": 80
    },
    {
      "t": 716.2,
      "ch": 0,
      "note": 36,
      "vel": 78,
      "dur": 55
    },
    {
      "t": 716.4,
      "ch": 0,
      "note": 36,
      "vel": 62,
      "dur": 55
    },
    {
      "t": 716.5,
      "ch": 0,
      "note": 36,
      "vel": 113,
      "dur": 55
    },
    {
      "t": 716.5,
      "ch": 7,
      "note": 48,
      "vel": 67,
      "dur": 80
    },
    {
      "t": 716.5,
      "ch": 7,
      "note": 45,
      "vel": 75,
      "dur": 80
    },
    {
      "t": 716.5,
      "ch": 7,
      "note": 36,
      "vel": 64,
      "dur": 80
    },
    {
      "t": 716.5,
      "ch": 7,
      "note": 38,
      "vel": 69,
      "dur": 80
    },
    {
      "t": 716.9,
      "ch": 7,
      "note": 36,
      "vel": 56,
      "dur": 80
    },
    {
      "t": 717.2,
      "ch": 7,
      "note": 48,
      "vel": 60,
      "dur": 80
    },
    {
      "t": 717.2,
      "ch": 7,
      "note": 36,
      "vel": 69,
      "dur": 80
    },
    {
      "t": 717.4,
      "ch": 7,
      "note": 45,
      "vel": 51,
      "dur": 80
    },
    {
      "t": 717.4,
      "ch": 7,
      "note": 38,
      "vel": 62,
      "dur": 80
    },
    {
      "t": 717.6,
      "ch": 0,
      "note": 36,
      "vel": 80,
      "dur": 55
    },
    {
      "t": 717.9,
      "ch": 4,
      "note": 66,
      "vel": 40,
      "dur": 5531
    },
    {
      "t": 717.9,
      "ch": 4,
      "note": 64,
      "vel": 38,
      "dur": 2790
    },
    {
      "t": 717.9,
      "ch": 4,
      "note": 63,
      "vel": 40,
      "dur": 2740
    },
    {
      "t": 717.9,
      "ch": 3,
      "note": 41,
      "vel": 42,
      "dur": 5581
    },
    {
      "t": 717.9,
      "ch": 7,
      "note": 48,
      "vel": 75,
      "dur": 80
    },
    {
      "t": 717.9,
      "ch": 7,
      "note": 36,
      "vel": 71,
      "dur": 80
    },
    {
      "t": 718,
      "ch": 5,
      "note": 75,
      "vel": 27,
      "dur": 975
    },
    {
      "t": 718.3,
      "ch": 7,
      "note": 45,
      "vel": 62,
      "dur": 80
    },
    {
      "t": 718.3,
      "ch": 7,
      "note": 36,
      "vel": 71,
      "dur": 80
    },
    {
      "t": 718.3,
      "ch": 7,
      "note": 38,
      "vel": 56,
      "dur": 80
    },
    {
      "t": 718.6,
      "ch": 7,
      "note": 48,
      "vel": 75,
      "dur": 80
    },
    {
      "t": 718.6,
      "ch": 7,
      "note": 36,
      "vel": 65,
      "dur": 80
    },
    {
      "t": 719,
      "ch": 0,
      "note": 36,
      "vel": 82,
      "dur": 55
    },
    {
      "t": 719.2,
      "ch": 5,
      "note": 77,
      "vel": 19,
      "dur": 968
    },
    {
      "t": 719.3,
      "ch": 0,
      "note": 36,
      "vel": 115,
      "dur": 55
    },
    {
      "t": 719.3,
      "ch": 7,
      "note": 48,
      "vel": 74,
      "dur": 80
    },
    {
      "t": 719.3,
      "ch": 7,
      "note": 45,
      "vel": 61,
      "dur": 80
    },
    {
      "t": 719.3,
      "ch": 7,
      "note": 36,
      "vel": 77,
      "dur": 80
    },
    {
      "t": 719.3,
      "ch": 7,
      "note": 38,
      "vel": 58,
      "dur": 80
    },
    {
      "t": 719.7,
      "ch": 7,
      "note": 36,
      "vel": 64,
      "dur": 80
    },
    {
      "t": 720,
      "ch": 7,
      "note": 48,
      "vel": 65,
      "dur": 80
    },
    {
      "t": 720,
      "ch": 7,
      "note": 36,
      "vel": 89,
      "dur": 80
    },
    {
      "t": 720.2,
      "ch": 7,
      "note": 45,
      "vel": 64,
      "dur": 80
    },
    {
      "t": 720.2,
      "ch": 7,
      "note": 38,
      "vel": 55,
      "dur": 80
    },
    {
      "t": 720.4,
      "ch": 0,
      "note": 36,
      "vel": 82,
      "dur": 55
    },
    {
      "t": 720.7,
      "ch": 7,
      "note": 48,
      "vel": 64,
      "dur": 80
    },
    {
      "t": 720.7,
      "ch": 7,
      "note": 36,
      "vel": 59,
      "dur": 80
    },
    {
      "t": 721.1,
      "ch": 7,
      "note": 45,
      "vel": 53,
      "dur": 80
    },
    {
      "t": 721.1,
      "ch": 7,
      "note": 36,
      "vel": 60,
      "dur": 80
    },
    {
      "t": 721.1,
      "ch": 7,
      "note": 38,
      "vel": 69,
      "dur": 80
    },
    {
      "t": 721.4,
      "ch": 7,
      "note": 48,
      "vel": 64,
      "dur": 80
    },
    {
      "t": 721.4,
      "ch": 7,
      "note": 36,
      "vel": 65,
      "dur": 80
    },
    {
      "t": 721.8,
      "ch": 0,
      "note": 36,
      "vel": 83,
      "dur": 55
    },
    {
      "t": 722.1,
      "ch": 0,
      "note": 36,
      "vel": 108,
      "dur": 55
    },
    {
      "t": 722.1,
      "ch": 7,
      "note": 48,
      "vel": 70,
      "dur": 80
    },
    {
      "t": 722.1,
      "ch": 7,
      "note": 45,
      "vel": 78,
      "dur": 80
    },
    {
      "t": 722.1,
      "ch": 7,
      "note": 36,
      "vel": 82,
      "dur": 80
    },
    {
      "t": 722.1,
      "ch": 7,
      "note": 38,
      "vel": 64,
      "dur": 80
    },
    {
      "t": 722.5,
      "ch": 7,
      "note": 36,
      "vel": 60,
      "dur": 80
    },
    {
      "t": 722.8,
      "ch": 7,
      "note": 48,
      "vel": 65,
      "dur": 80
    },
    {
      "t": 722.8,
      "ch": 7,
      "note": 36,
      "vel": 69,
      "dur": 80
    },
    {
      "t": 723,
      "ch": 7,
      "note": 45,
      "vel": 68,
      "dur": 80
    },
    {
      "t": 723,
      "ch": 7,
      "note": 38,
      "vel": 67,
      "dur": 80
    },
    {
      "t": 723.2,
      "ch": 0,
      "note": 36,
      "vel": 80,
      "dur": 55
    },
    {
      "t": 723.4,
      "ch": 4,
      "note": 68,
      "vel": 57,
      "dur": 5531
    },
    {
      "t": 723.4,
      "ch": 4,
      "note": 64,
      "vel": 43,
      "dur": 2790
    },
    {
      "t": 723.4,
      "ch": 4,
      "note": 63,
      "vel": 43,
      "dur": 2740
    },
    {
      "t": 723.4,
      "ch": 3,
      "note": 39,
      "vel": 47,
      "dur": 5581
    },
    {
      "t": 723.5,
      "ch": 7,
      "note": 48,
      "vel": 71,
      "dur": 80
    },
    {
      "t": 723.5,
      "ch": 7,
      "note": 36,
      "vel": 54,
      "dur": 80
    },
    {
      "t": 723.9,
      "ch": 7,
      "note": 45,
      "vel": 58,
      "dur": 80
    },
    {
      "t": 723.9,
      "ch": 7,
      "note": 36,
      "vel": 54,
      "dur": 80
    },
    {
      "t": 723.9,
      "ch": 7,
      "note": 38,
      "vel": 66,
      "dur": 80
    },
    {
      "t": 724.2,
      "ch": 7,
      "note": 48,
      "vel": 70,
      "dur": 80
    },
    {
      "t": 724.2,
      "ch": 7,
      "note": 36,
      "vel": 61,
      "dur": 80
    },
    {
      "t": 724.6,
      "ch": 0,
      "note": 36,
      "vel": 78,
      "dur": 55
    },
    {
      "t": 724.9,
      "ch": 7,
      "note": 48,
      "vel": 72,
      "dur": 80
    },
    {
      "t": 724.9,
      "ch": 7,
      "note": 45,
      "vel": 85,
      "dur": 80
    },
    {
      "t": 724.9,
      "ch": 7,
      "note": 36,
      "vel": 75,
      "dur": 80
    },
    {
      "t": 724.9,
      "ch": 7,
      "note": 38,
      "vel": 67,
      "dur": 80
    },
    {
      "t": 725.3,
      "ch": 7,
      "note": 36,
      "vel": 59,
      "dur": 80
    },
    {
      "t": 725.6,
      "ch": 7,
      "note": 48,
      "vel": 67,
      "dur": 80
    },
    {
      "t": 725.6,
      "ch": 7,
      "note": 36,
      "vel": 68,
      "dur": 80
    },
    {
      "t": 725.8,
      "ch": 7,
      "note": 45,
      "vel": 61,
      "dur": 80
    },
    {
      "t": 725.8,
      "ch": 7,
      "note": 38,
      "vel": 70,
      "dur": 80
    },
    {
      "t": 726.2,
      "ch": 2,
      "note": 58,
      "vel": 0,
      "dur": 0
    },
    {
      "t": 726.2,
      "ch": 2,
      "note": 70,
      "vel": 0,
      "dur": 0
    },
    {
      "t": 726.2,
      "ch": 2,
      "note": 56,
      "vel": 56,
      "dur": 20930
    },
    {
      "t": 726.3,
      "ch": 7,
      "note": 48,
      "vel": 67,
      "dur": 80
    },
    {
      "t": 726.3,
      "ch": 7,
      "note": 36,
      "vel": 66,
      "dur": 80
    },
    {
      "t": 726.7,
      "ch": 7,
      "note": 45,
      "vel": 63,
      "dur": 80
    },
    {
      "t": 726.7,
      "ch": 7,
      "note": 36,
      "vel": 68,
      "dur": 80
    },
    {
      "t": 726.7,
      "ch": 7,
      "note": 38,
      "vel": 60,
      "dur": 80
    },
    {
      "t": 727,
      "ch": 7,
      "note": 48,
      "vel": 69,
      "dur": 80
    },
    {
      "t": 727,
      "ch": 7,
      "note": 36,
      "vel": 67,
      "dur": 80
    },
    {
      "t": 727.7,
      "ch": 0,
      "note": 36,
      "vel": 115,
      "dur": 55
    },
    {
      "t": 727.7,
      "ch": 7,
      "note": 48,
      "vel": 72,
      "dur": 80
    },
    {
      "t": 727.7,
      "ch": 7,
      "note": 45,
      "vel": 49,
      "dur": 80
    },
    {
      "t": 727.7,
      "ch": 7,
      "note": 36,
      "vel": 70,
      "dur": 80
    },
    {
      "t": 727.7,
      "ch": 7,
      "note": 38,
      "vel": 70,
      "dur": 80
    },
    {
      "t": 728.1,
      "ch": 7,
      "note": 36,
      "vel": 58,
      "dur": 80
    },
    {
      "t": 728.4,
      "ch": 7,
      "note": 48,
      "vel": 69,
      "dur": 80
    },
    {
      "t": 728.4,
      "ch": 7,
      "note": 36,
      "vel": 68,
      "dur": 80
    },
    {
      "t": 728.4,
      "ch": 5,
      "note": 80,
      "vel": 28,
      "dur": 941
    },
    {
      "t": 728.6,
      "ch": 7,
      "note": 45,
      "vel": 56,
      "dur": 80
    },
    {
      "t": 728.6,
      "ch": 7,
      "note": 38,
      "vel": 56,
      "dur": 80
    },
    {
      "t": 729,
      "ch": 4,
      "note": 70,
      "vel": 43,
      "dur": 5531
    },
    {
      "t": 729,
      "ch": 4,
      "note": 63,
      "vel": 45,
      "dur": 5531
    },
    {
      "t": 729,
      "ch": 3,
      "note": 46,
      "vel": 47,
      "dur": 5581
    },
    {
      "t": 729.1,
      "ch": 0,
      "note": 36,
      "vel": 97,
      "dur": 55
    },
    {
      "t": 729.1,
      "ch": 7,
      "note": 48,
      "vel": 73,
      "dur": 80
    },
    {
      "t": 729.1,
      "ch": 7,
      "note": 36,
      "vel": 77,
      "dur": 80
    },
    {
      "t": 729.5,
      "ch": 7,
      "note": 45,
      "vel": 67,
      "dur": 80
    },
    {
      "t": 729.5,
      "ch": 7,
      "note": 36,
      "vel": 53,
      "dur": 80
    },
    {
      "t": 729.5,
      "ch": 7,
      "note": 38,
      "vel": 66,
      "dur": 80
    },
    {
      "t": 729.8,
      "ch": 7,
      "note": 48,
      "vel": 63,
      "dur": 80
    },
    {
      "t": 729.8,
      "ch": 7,
      "note": 36,
      "vel": 70,
      "dur": 80
    },
    {
      "t": 730.2,
      "ch": 0,
      "note": 36,
      "vel": 75,
      "dur": 55
    },
    {
      "t": 730.5,
      "ch": 0,
      "note": 36,
      "vel": 113,
      "dur": 55
    },
    {
      "t": 730.5,
      "ch": 7,
      "note": 48,
      "vel": 65,
      "dur": 80
    },
    {
      "t": 730.5,
      "ch": 7,
      "note": 45,
      "vel": 73,
      "dur": 80
    },
    {
      "t": 730.5,
      "ch": 7,
      "note": 36,
      "vel": 60,
      "dur": 80
    },
    {
      "t": 730.5,
      "ch": 7,
      "note": 38,
      "vel": 63,
      "dur": 80
    },
    {
      "t": 730.8,
      "ch": 7,
      "note": 36,
      "vel": 56,
      "dur": 80
    },
    {
      "t": 731.2,
      "ch": 7,
      "note": 48,
      "vel": 76,
      "dur": 80
    },
    {
      "t": 731.2,
      "ch": 7,
      "note": 36,
      "vel": 74,
      "dur": 80
    },
    {
      "t": 731.4,
      "ch": 7,
      "note": 45,
      "vel": 54,
      "dur": 80
    },
    {
      "t": 731.4,
      "ch": 7,
      "note": 38,
      "vel": 63,
      "dur": 80
    },
    {
      "t": 731.9,
      "ch": 0,
      "note": 36,
      "vel": 93,
      "dur": 55
    },
    {
      "t": 731.9,
      "ch": 7,
      "note": 48,
      "vel": 58,
      "dur": 80
    },
    {
      "t": 731.9,
      "ch": 7,
      "note": 36,
      "vel": 68,
      "dur": 80
    },
    {
      "t": 732.1,
      "ch": 5,
      "note": 71,
      "vel": 19,
      "dur": 961
    },
    {
      "t": 732.2,
      "ch": 7,
      "note": 45,
      "vel": 63,
      "dur": 80
    },
    {
      "t": 732.2,
      "ch": 7,
      "note": 36,
      "vel": 63,
      "dur": 80
    },
    {
      "t": 732.2,
      "ch": 7,
      "note": 38,
      "vel": 54,
      "dur": 80
    },
    {
      "t": 732.6,
      "ch": 7,
      "note": 48,
      "vel": 69,
      "dur": 80
    },
    {
      "t": 732.6,
      "ch": 7,
      "note": 36,
      "vel": 79,
      "dur": 80
    },
    {
      "t": 733,
      "ch": 0,
      "note": 36,
      "vel": 82,
      "dur": 55
    },
    {
      "t": 733.3,
      "ch": 0,
      "note": 36,
      "vel": 116,
      "dur": 55
    },
    {
      "t": 733.3,
      "ch": 7,
      "note": 48,
      "vel": 79,
      "dur": 80
    },
    {
      "t": 733.3,
      "ch": 7,
      "note": 45,
      "vel": 70,
      "dur": 80
    },
    {
      "t": 733.3,
      "ch": 7,
      "note": 36,
      "vel": 62,
      "dur": 80
    },
    {
      "t": 733.3,
      "ch": 7,
      "note": 38,
      "vel": 75,
      "dur": 80
    },
    {
      "t": 733.6,
      "ch": 7,
      "note": 36,
      "vel": 53,
      "dur": 80
    },
    {
      "t": 734,
      "ch": 7,
      "note": 48,
      "vel": 75,
      "dur": 80
    },
    {
      "t": 734,
      "ch": 7,
      "note": 36,
      "vel": 76,
      "dur": 80
    },
    {
      "t": 734.2,
      "ch": 7,
      "note": 45,
      "vel": 55,
      "dur": 80
    },
    {
      "t": 734.2,
      "ch": 7,
      "note": 38,
      "vel": 64,
      "dur": 80
    },
    {
      "t": 734.6,
      "ch": 4,
      "note": 70,
      "vel": 42,
      "dur": 5531
    },
    {
      "t": 734.6,
      "ch": 4,
      "note": 65,
      "vel": 39,
      "dur": 5531
    },
    {
      "t": 734.6,
      "ch": 3,
      "note": 46,
      "vel": 42,
      "dur": 5581
    },
    {
      "t": 734.7,
      "ch": 0,
      "note": 36,
      "vel": 94,
      "dur": 55
    },
    {
      "t": 734.7,
      "ch": 7,
      "note": 48,
      "vel": 71,
      "dur": 80
    },
    {
      "t": 734.7,
      "ch": 7,
      "note": 36,
      "vel": 73,
      "dur": 80
    },
    {
      "t": 734.9,
      "ch": 5,
      "note": 78,
      "vel": 24,
      "dur": 976
    },
    {
      "t": 735,
      "ch": 7,
      "note": 45,
      "vel": 68,
      "dur": 80
    },
    {
      "t": 735,
      "ch": 7,
      "note": 36,
      "vel": 63,
      "dur": 80
    },
    {
      "t": 735,
      "ch": 7,
      "note": 38,
      "vel": 53,
      "dur": 80
    },
    {
      "t": 735.4,
      "ch": 7,
      "note": 48,
      "vel": 69,
      "dur": 80
    },
    {
      "t": 735.4,
      "ch": 7,
      "note": 36,
      "vel": 75,
      "dur": 80
    },
    {
      "t": 735.4,
      "ch": 5,
      "note": 75,
      "vel": 34,
      "dur": 978
    },
    {
      "t": 735.7,
      "ch": 0,
      "note": 36,
      "vel": 77,
      "dur": 55
    },
    {
      "t": 736.1,
      "ch": 0,
      "note": 36,
      "vel": 105,
      "dur": 55
    },
    {
      "t": 736.1,
      "ch": 7,
      "note": 48,
      "vel": 63,
      "dur": 80
    },
    {
      "t": 736.1,
      "ch": 7,
      "note": 45,
      "vel": 74,
      "dur": 80
    },
    {
      "t": 736.1,
      "ch": 7,
      "note": 36,
      "vel": 66,
      "dur": 80
    },
    {
      "t": 736.1,
      "ch": 7,
      "note": 38,
      "vel": 78,
      "dur": 80
    },
    {
      "t": 736.4,
      "ch": 7,
      "note": 36,
      "vel": 60,
      "dur": 80
    },
    {
      "t": 736.8,
      "ch": 7,
      "note": 48,
      "vel": 66,
      "dur": 80
    },
    {
      "t": 736.8,
      "ch": 7,
      "note": 36,
      "vel": 71,
      "dur": 80
    },
    {
      "t": 737,
      "ch": 7,
      "note": 45,
      "vel": 55,
      "dur": 80
    },
    {
      "t": 737,
      "ch": 7,
      "note": 38,
      "vel": 63,
      "dur": 80
    },
    {
      "t": 737.3,
      "ch": 6,
      "note": 66,
      "vel": 20,
      "dur": 655
    },
    {
      "t": 737.4,
      "ch": 2,
      "note": 56,
      "vel": 0,
      "dur": 0
    },
    {
      "t": 737.4,
      "ch": 2,
      "note": 58,
      "vel": 54,
      "dur": 20930
    },
    {
      "t": 737.5,
      "ch": 0,
      "note": 36,
      "vel": 99,
      "dur": 55
    },
    {
      "t": 737.5,
      "ch": 7,
      "note": 48,
      "vel": 78,
      "dur": 80
    },
    {
      "t": 737.5,
      "ch": 7,
      "note": 36,
      "vel": 67,
      "dur": 80
    },
    {
      "t": 737.8,
      "ch": 7,
      "note": 45,
      "vel": 64,
      "dur": 80
    },
    {
      "t": 737.8,
      "ch": 7,
      "note": 36,
      "vel": 74,
      "dur": 80
    },
    {
      "t": 737.8,
      "ch": 7,
      "note": 38,
      "vel": 75,
      "dur": 80
    },
    {
      "t": 738.2,
      "ch": 7,
      "note": 48,
      "vel": 77,
      "dur": 80
    },
    {
      "t": 738.2,
      "ch": 7,
      "note": 36,
      "vel": 75,
      "dur": 80
    },
    {
      "t": 738.5,
      "ch": 0,
      "note": 36,
      "vel": 71,
      "dur": 55
    },
    {
      "t": 738.7,
      "ch": 0,
      "note": 36,
      "vel": 70,
      "dur": 55
    },
    {
      "t": 738.9,
      "ch": 0,
      "note": 36,
      "vel": 117,
      "dur": 55
    },
    {
      "t": 738.9,
      "ch": 7,
      "note": 48,
      "vel": 75,
      "dur": 80
    },
    {
      "t": 738.9,
      "ch": 7,
      "note": 45,
      "vel": 69,
      "dur": 80
    },
    {
      "t": 738.9,
      "ch": 7,
      "note": 36,
      "vel": 73,
      "dur": 80
    },
    {
      "t": 738.9,
      "ch": 7,
      "note": 38,
      "vel": 69,
      "dur": 80
    },
    {
      "t": 739.2,
      "ch": 7,
      "note": 36,
      "vel": 54,
      "dur": 80
    },
    {
      "t": 739.6,
      "ch": 7,
      "note": 48,
      "vel": 61,
      "dur": 80
    },
    {
      "t": 739.6,
      "ch": 7,
      "note": 36,
      "vel": 72,
      "dur": 80
    },
    {
      "t": 739.7,
      "ch": 7,
      "note": 45,
      "vel": 67,
      "dur": 80
    },
    {
      "t": 739.7,
      "ch": 7,
      "note": 38,
      "vel": 59,
      "dur": 80
    },
    {
      "t": 740.2,
      "ch": 4,
      "note": 65,
      "vel": 41,
      "dur": 5531
    },
    {
      "t": 740.2,
      "ch": 4,
      "note": 63,
      "vel": 40,
      "dur": 5531
    },
    {
      "t": 740.2,
      "ch": 3,
      "note": 39,
      "vel": 42,
      "dur": 5581
    },
    {
      "t": 740.3,
      "ch": 0,
      "note": 36,
      "vel": 86,
      "dur": 55
    },
    {
      "t": 740.3,
      "ch": 7,
      "note": 48,
      "vel": 64,
      "dur": 80
    },
    {
      "t": 740.3,
      "ch": 7,
      "note": 36,
      "vel": 70,
      "dur": 80
    },
    {
      "t": 740.6,
      "ch": 7,
      "note": 45,
      "vel": 58,
      "dur": 80
    },
    {
      "t": 740.6,
      "ch": 7,
      "note": 36,
      "vel": 59,
      "dur": 80
    },
    {
      "t": 740.6,
      "ch": 7,
      "note": 38,
      "vel": 59,
      "dur": 80
    },
    {
      "t": 741,
      "ch": 7,
      "note": 48,
      "vel": 69,
      "dur": 80
    },
    {
      "t": 741,
      "ch": 7,
      "note": 36,
      "vel": 77,
      "dur": 80
    },
    {
      "t": 741.3,
      "ch": 0,
      "note": 36,
      "vel": 82,
      "dur": 55
    },
    {
      "t": 741.7,
      "ch": 0,
      "note": 36,
      "vel": 110,
      "dur": 55
    },
    {
      "t": 741.7,
      "ch": 7,
      "note": 48,
      "vel": 66,
      "dur": 80
    },
    {
      "t": 741.7,
      "ch": 7,
      "note": 45,
      "vel": 67,
      "dur": 80
    },
    {
      "t": 741.7,
      "ch": 7,
      "note": 36,
      "vel": 72,
      "dur": 80
    },
    {
      "t": 741.7,
      "ch": 7,
      "note": 38,
      "vel": 74,
      "dur": 80
    },
    {
      "t": 742,
      "ch": 7,
      "note": 36,
      "vel": 64,
      "dur": 80
    },
    {
      "t": 742.4,
      "ch": 7,
      "note": 48,
      "vel": 77,
      "dur": 80
    },
    {
      "t": 742.4,
      "ch": 7,
      "note": 36,
      "vel": 69,
      "dur": 80
    },
    {
      "t": 742.5,
      "ch": 7,
      "note": 45,
      "vel": 53,
      "dur": 80
    },
    {
      "t": 742.5,
      "ch": 7,
      "note": 38,
      "vel": 60,
      "dur": 80
    },
    {
      "t": 743.1,
      "ch": 0,
      "note": 36,
      "vel": 95,
      "dur": 55
    },
    {
      "t": 743.1,
      "ch": 7,
      "note": 48,
      "vel": 69,
      "dur": 80
    },
    {
      "t": 743.1,
      "ch": 7,
      "note": 36,
      "vel": 53,
      "dur": 80
    },
    {
      "t": 743.4,
      "ch": 7,
      "note": 45,
      "vel": 59,
      "dur": 80
    },
    {
      "t": 743.4,
      "ch": 7,
      "note": 36,
      "vel": 65,
      "dur": 80
    },
    {
      "t": 743.4,
      "ch": 7,
      "note": 38,
      "vel": 61,
      "dur": 80
    },
    {
      "t": 743.8,
      "ch": 7,
      "note": 48,
      "vel": 71,
      "dur": 80
    },
    {
      "t": 743.8,
      "ch": 7,
      "note": 36,
      "vel": 73,
      "dur": 80
    },
    {
      "t": 744.1,
      "ch": 0,
      "note": 36,
      "vel": 90,
      "dur": 55
    },
    {
      "t": 744.1,
      "ch": 6,
      "note": 80,
      "vel": 30,
      "dur": 637
    },
    {
      "t": 744.4,
      "ch": 0,
      "note": 36,
      "vel": 113,
      "dur": 55
    },
    {
      "t": 744.4,
      "ch": 7,
      "note": 48,
      "vel": 76,
      "dur": 80
    },
    {
      "t": 744.4,
      "ch": 7,
      "note": 45,
      "vel": 68,
      "dur": 80
    },
    {
      "t": 744.4,
      "ch": 7,
      "note": 36,
      "vel": 77,
      "dur": 80
    },
    {
      "t": 744.4,
      "ch": 7,
      "note": 38,
      "vel": 65,
      "dur": 80
    },
    {
      "t": 744.8,
      "ch": 7,
      "note": 36,
      "vel": 59,
      "dur": 80
    },
    {
      "t": 745.1,
      "ch": 7,
      "note": 48,
      "vel": 79,
      "dur": 80
    },
    {
      "t": 745.1,
      "ch": 7,
      "note": 36,
      "vel": 72,
      "dur": 80
    },
    {
      "t": 745.3,
      "ch": 7,
      "note": 45,
      "vel": 59,
      "dur": 80
    },
    {
      "t": 745.3,
      "ch": 7,
      "note": 38,
      "vel": 64,
      "dur": 80
    },
    {
      "t": 745.8,
      "ch": 4,
      "note": 65,
      "vel": 44,
      "dur": 5531
    },
    {
      "t": 745.8,
      "ch": 4,
      "note": 63,
      "vel": 42,
      "dur": 5531
    },
    {
      "t": 745.8,
      "ch": 3,
      "note": 53,
      "vel": 47,
      "dur": 5581
    },
    {
      "t": 745.8,
      "ch": 0,
      "note": 36,
      "vel": 87,
      "dur": 55
    },
    {
      "t": 745.8,
      "ch": 7,
      "note": 48,
      "vel": 66,
      "dur": 80
    },
    {
      "t": 745.8,
      "ch": 7,
      "note": 36,
      "vel": 85,
      "dur": 80
    },
    {
      "t": 746.2,
      "ch": 7,
      "note": 45,
      "vel": 70,
      "dur": 80
    },
    {
      "t": 746.2,
      "ch": 7,
      "note": 36,
      "vel": 65,
      "dur": 80
    },
    {
      "t": 746.2,
      "ch": 7,
      "note": 38,
      "vel": 65,
      "dur": 80
    },
    {
      "t": 746.4,
      "ch": 5,
      "note": 77,
      "vel": 24,
      "dur": 943
    },
    {
      "t": 746.5,
      "ch": 7,
      "note": 48,
      "vel": 62,
      "dur": 80
    },
    {
      "t": 746.5,
      "ch": 7,
      "note": 36,
      "vel": 71,
      "dur": 80
    },
    {
      "t": 746.9,
      "ch": 0,
      "note": 36,
      "vel": 77,
      "dur": 55
    },
    {
      "t": 747.2,
      "ch": 0,
      "note": 36,
      "vel": 117,
      "dur": 55
    },
    {
      "t": 747.2,
      "ch": 1,
      "note": 42,
      "vel": 76,
      "dur": 25
    },
    {
      "t": 747.2,
      "ch": 1,
      "note": 36,
      "vel": 104,
      "dur": 25
    },
    {
      "t": 747.2,
      "ch": 1,
      "note": 38,
      "vel": 90,
      "dur": 25
    },
    {
      "t": 747.2,
      "ch": 1,
      "note": 40,
      "vel": 85,
      "dur": 25
    },
    {
      "t": 747.2,
      "ch": 1,
      "note": 42,
      "vel": 92,
      "dur": 25
    },
    {
      "t": 747.2,
      "ch": 1,
      "note": 36,
      "vel": 104,
      "dur": 25
    },
    {
      "t": 747.2,
      "ch": 1,
      "note": 38,
      "vel": 90,
      "dur": 25
    },
    {
      "t": 747.2,
      "ch": 1,
      "note": 40,
      "vel": 81,
      "dur": 25
    },
    {
      "t": 747.2,
      "ch": 1,
      "note": 42,
      "vel": 82,
      "dur": 25
    },
    {
      "t": 747.2,
      "ch": 1,
      "note": 36,
      "vel": 74,
      "dur": 25
    },
    {
      "t": 747.2,
      "ch": 1,
      "note": 38,
      "vel": 93,
      "dur": 25
    },
    {
      "t": 747.2,
      "ch": 1,
      "note": 40,
      "vel": 84,
      "dur": 25
    },
    {
      "t": 747.2,
      "ch": 1,
      "note": 42,
      "vel": 74,
      "dur": 25
    },
    {
      "t": 747.2,
      "ch": 1,
      "note": 36,
      "vel": 82,
      "dur": 25
    },
    {
      "t": 747.2,
      "ch": 1,
      "note": 38,
      "vel": 88,
      "dur": 25
    },
    {
      "t": 747.2,
      "ch": 1,
      "note": 40,
      "vel": 102,
      "dur": 25
    },
    {
      "t": 747.2,
      "ch": 1,
      "note": 42,
      "vel": 90,
      "dur": 25
    },
    {
      "t": 747.2,
      "ch": 1,
      "note": 36,
      "vel": 56,
      "dur": 25
    },
    {
      "t": 747.2,
      "ch": 1,
      "note": 38,
      "vel": 74,
      "dur": 25
    },
    {
      "t": 747.2,
      "ch": 1,
      "note": 40,
      "vel": 87,
      "dur": 25
    },
    {
      "t": 747.2,
      "ch": 1,
      "note": 42,
      "vel": 66,
      "dur": 25
    },
    {
      "t": 747.2,
      "ch": 1,
      "note": 36,
      "vel": 112,
      "dur": 25
    },
    {
      "t": 747.2,
      "ch": 1,
      "note": 38,
      "vel": 78,
      "dur": 25
    },
    {
      "t": 747.2,
      "ch": 1,
      "note": 40,
      "vel": 62,
      "dur": 25
    },
    {
      "t": 747.2,
      "ch": 1,
      "note": 42,
      "vel": 111,
      "dur": 25
    },
    {
      "t": 747.2,
      "ch": 1,
      "note": 36,
      "vel": 70,
      "dur": 25
    },
    {
      "t": 747.2,
      "ch": 1,
      "note": 38,
      "vel": 100,
      "dur": 25
    },
    {
      "t": 747.2,
      "ch": 1,
      "note": 40,
      "vel": 82,
      "dur": 25
    },
    {
      "t": 747.2,
      "ch": 1,
      "note": 42,
      "vel": 71,
      "dur": 25
    },
    {
      "t": 747.2,
      "ch": 1,
      "note": 36,
      "vel": 77,
      "dur": 25
    },
    {
      "t": 747.2,
      "ch": 1,
      "note": 38,
      "vel": 75,
      "dur": 25
    },
    {
      "t": 747.2,
      "ch": 1,
      "note": 40,
      "vel": 98,
      "dur": 25
    },
    {
      "t": 747.2,
      "ch": 1,
      "note": 42,
      "vel": 78,
      "dur": 25
    },
    {
      "t": 747.2,
      "ch": 1,
      "note": 36,
      "vel": 81,
      "dur": 25
    },
    {
      "t": 747.2,
      "ch": 1,
      "note": 38,
      "vel": 103,
      "dur": 25
    },
    {
      "t": 747.2,
      "ch": 1,
      "note": 40,
      "vel": 74,
      "dur": 25
    },
    {
      "t": 747.2,
      "ch": 1,
      "note": 42,
      "vel": 91,
      "dur": 25
    },
    {
      "t": 747.2,
      "ch": 1,
      "note": 36,
      "vel": 94,
      "dur": 25
    },
    {
      "t": 747.2,
      "ch": 1,
      "note": 38,
      "vel": 82,
      "dur": 25
    },
    {
      "t": 747.2,
      "ch": 1,
      "note": 40,
      "vel": 88,
      "dur": 25
    },
    {
      "t": 747.2,
      "ch": 1,
      "note": 42,
      "vel": 97,
      "dur": 25
    },
    {
      "t": 747.2,
      "ch": 1,
      "note": 36,
      "vel": 82,
      "dur": 25
    },
    {
      "t": 747.2,
      "ch": 1,
      "note": 38,
      "vel": 84,
      "dur": 25
    },
    {
      "t": 747.2,
      "ch": 1,
      "note": 40,
      "vel": 72,
      "dur": 25
    },
    {
      "t": 747.2,
      "ch": 1,
      "note": 42,
      "vel": 79,
      "dur": 25
    },
    {
      "t": 747.2,
      "ch": 1,
      "note": 36,
      "vel": 75,
      "dur": 25
    },
    {
      "t": 747.2,
      "ch": 1,
      "note": 38,
      "vel": 85,
      "dur": 25
    },
    {
      "t": 747.2,
      "ch": 1,
      "note": 40,
      "vel": 85,
      "dur": 25
    },
    {
      "t": 747.2,
      "ch": 1,
      "note": 42,
      "vel": 106,
      "dur": 25
    },
    {
      "t": 747.2,
      "ch": 1,
      "note": 36,
      "vel": 87,
      "dur": 25
    },
    {
      "t": 747.2,
      "ch": 1,
      "note": 38,
      "vel": 97,
      "dur": 25
    },
    {
      "t": 747.2,
      "ch": 1,
      "note": 40,
      "vel": 60,
      "dur": 25
    },
    {
      "t": 747.2,
      "ch": 1,
      "note": 42,
      "vel": 86,
      "dur": 25
    },
    {
      "t": 747.2,
      "ch": 1,
      "note": 36,
      "vel": 85,
      "dur": 25
    },
    {
      "t": 747.2,
      "ch": 1,
      "note": 38,
      "vel": 74,
      "dur": 25
    },
    {
      "t": 747.2,
      "ch": 1,
      "note": 40,
      "vel": 88,
      "dur": 25
    },
    {
      "t": 747.2,
      "ch": 1,
      "note": 42,
      "vel": 71,
      "dur": 25
    },
    {
      "t": 747.2,
      "ch": 1,
      "note": 36,
      "vel": 73,
      "dur": 25
    },
    {
      "t": 747.2,
      "ch": 1,
      "note": 38,
      "vel": 95,
      "dur": 25
    },
    {
      "t": 747.2,
      "ch": 1,
      "note": 40,
      "vel": 95,
      "dur": 25
    },
    {
      "t": 747.2,
      "ch": 1,
      "note": 42,
      "vel": 99,
      "dur": 25
    },
    {
      "t": 747.2,
      "ch": 1,
      "note": 36,
      "vel": 63,
      "dur": 25
    },
    {
      "t": 747.2,
      "ch": 1,
      "note": 38,
      "vel": 80,
      "dur": 25
    },
    {
      "t": 747.2,
      "ch": 1,
      "note": 40,
      "vel": 85,
      "dur": 25
    },
    {
      "t": 747.2,
      "ch": 1,
      "note": 42,
      "vel": 90,
      "dur": 25
    },
    {
      "t": 747.2,
      "ch": 1,
      "note": 36,
      "vel": 96,
      "dur": 25
    },
    {
      "t": 747.2,
      "ch": 1,
      "note": 38,
      "vel": 98,
      "dur": 25
    },
    {
      "t": 747.2,
      "ch": 1,
      "note": 40,
      "vel": 72,
      "dur": 25
    },
    {
      "t": 747.2,
      "ch": 1,
      "note": 42,
      "vel": 112,
      "dur": 25
    },
    {
      "t": 747.2,
      "ch": 1,
      "note": 36,
      "vel": 103,
      "dur": 25
    },
    {
      "t": 747.2,
      "ch": 1,
      "note": 38,
      "vel": 85,
      "dur": 25
    },
    {
      "t": 747.2,
      "ch": 1,
      "note": 40,
      "vel": 88,
      "dur": 25
    },
    {
      "t": 747.2,
      "ch": 1,
      "note": 42,
      "vel": 94,
      "dur": 25
    },
    {
      "t": 747.2,
      "ch": 1,
      "note": 36,
      "vel": 106,
      "dur": 25
    },
    {
      "t": 747.2,
      "ch": 1,
      "note": 38,
      "vel": 64,
      "dur": 25
    },
    {
      "t": 747.2,
      "ch": 1,
      "note": 40,
      "vel": 62,
      "dur": 25
    },
    {
      "t": 747.2,
      "ch": 1,
      "note": 42,
      "vel": 93,
      "dur": 25
    },
    {
      "t": 747.2,
      "ch": 1,
      "note": 36,
      "vel": 88,
      "dur": 25
    },
    {
      "t": 747.2,
      "ch": 1,
      "note": 38,
      "vel": 73,
      "dur": 25
    },
    {
      "t": 747.2,
      "ch": 1,
      "note": 40,
      "vel": 83,
      "dur": 25
    },
    {
      "t": 747.2,
      "ch": 1,
      "note": 42,
      "vel": 89,
      "dur": 25
    },
    {
      "t": 747.2,
      "ch": 1,
      "note": 36,
      "vel": 87,
      "dur": 25
    },
    {
      "t": 747.2,
      "ch": 1,
      "note": 38,
      "vel": 63,
      "dur": 25
    },
    {
      "t": 747.2,
      "ch": 1,
      "note": 40,
      "vel": 80,
      "dur": 25
    },
    {
      "t": 747.2,
      "ch": 1,
      "note": 42,
      "vel": 87,
      "dur": 25
    },
    {
      "t": 747.2,
      "ch": 1,
      "note": 36,
      "vel": 102,
      "dur": 25
    },
    {
      "t": 747.2,
      "ch": 1,
      "note": 38,
      "vel": 74,
      "dur": 25
    },
    {
      "t": 747.2,
      "ch": 1,
      "note": 40,
      "vel": 103,
      "dur": 25
    },
    {
      "t": 747.2,
      "ch": 1,
      "note": 42,
      "vel": 86,
      "dur": 25
    },
    {
      "t": 747.2,
      "ch": 1,
      "note": 36,
      "vel": 66,
      "dur": 25
    },
    {
      "t": 747.2,
      "ch": 1,
      "note": 38,
      "vel": 79,
      "dur": 25
    },
    {
      "t": 747.2,
      "ch": 1,
      "note": 40,
      "vel": 68,
      "dur": 25
    },
    {
      "t": 747.2,
      "ch": 1,
      "note": 42,
      "vel": 102,
      "dur": 25
    },
    {
      "t": 747.2,
      "ch": 1,
      "note": 36,
      "vel": 96,
      "dur": 25
    },
    {
      "t": 747.2,
      "ch": 1,
      "note": 38,
      "vel": 91,
      "dur": 25
    },
    {
      "t": 747.2,
      "ch": 1,
      "note": 40,
      "vel": 100,
      "dur": 25
    },
    {
      "t": 747.2,
      "ch": 1,
      "note": 42,
      "vel": 93,
      "dur": 25
    },
    {
      "t": 747.2,
      "ch": 1,
      "note": 36,
      "vel": 71,
      "dur": 25
    },
    {
      "t": 747.2,
      "ch": 1,
      "note": 38,
      "vel": 94,
      "dur": 25
    },
    {
      "t": 747.2,
      "ch": 1,
      "note": 40,
      "vel": 103,
      "dur": 25
    },
    {
      "t": 747.2,
      "ch": 1,
      "note": 42,
      "vel": 107,
      "dur": 25
    },
    {
      "t": 747.2,
      "ch": 1,
      "note": 36,
      "vel": 64,
      "dur": 25
    },
    {
      "t": 747.2,
      "ch": 1,
      "note": 38,
      "vel": 62,
      "dur": 25
    },
    {
      "t": 747.2,
      "ch": 1,
      "note": 40,
      "vel": 84,
      "dur": 25
    },
    {
      "t": 747.2,
      "ch": 1,
      "note": 42,
      "vel": 53,
      "dur": 25
    },
    {
      "t": 747.2,
      "ch": 1,
      "note": 36,
      "vel": 86,
      "dur": 25
    },
    {
      "t": 747.2,
      "ch": 1,
      "note": 38,
      "vel": 77,
      "dur": 25
    },
    {
      "t": 747.2,
      "ch": 1,
      "note": 40,
      "vel": 80,
      "dur": 25
    },
    {
      "t": 747.2,
      "ch": 1,
      "note": 42,
      "vel": 84,
      "dur": 25
    },
    {
      "t": 747.2,
      "ch": 1,
      "note": 36,
      "vel": 85,
      "dur": 25
    },
    {
      "t": 747.2,
      "ch": 1,
      "note": 38,
      "vel": 63,
      "dur": 25
    },
    {
      "t": 747.2,
      "ch": 1,
      "note": 40,
      "vel": 82,
      "dur": 25
    },
    {
      "t": 747.2,
      "ch": 1,
      "note": 42,
      "vel": 83,
      "dur": 25
    },
    {
      "t": 747.2,
      "ch": 1,
      "note": 36,
      "vel": 75,
      "dur": 25
    },
    {
      "t": 747.2,
      "ch": 1,
      "note": 38,
      "vel": 87,
      "dur": 25
    },
    {
      "t": 747.2,
      "ch": 1,
      "note": 40,
      "vel": 78,
      "dur": 25
    },
    {
      "t": 747.2,
      "ch": 1,
      "note": 42,
      "vel": 83,
      "dur": 25
    },
    {
      "t": 747.2,
      "ch": 1,
      "note": 36,
      "vel": 87,
      "dur": 25
    },
    {
      "t": 747.2,
      "ch": 1,
      "note": 38,
      "vel": 76,
      "dur": 25
    },
    {
      "t": 747.2,
      "ch": 1,
      "note": 40,
      "vel": 102,
      "dur": 25
    },
    {
      "t": 747.2,
      "ch": 1,
      "note": 42,
      "vel": 98,
      "dur": 25
    },
    {
      "t": 747.2,
      "ch": 1,
      "note": 36,
      "vel": 85,
      "dur": 25
    },
    {
      "t": 747.2,
      "ch": 1,
      "note": 38,
      "vel": 96,
      "dur": 25
    },
    {
      "t": 747.2,
      "ch": 1,
      "note": 40,
      "vel": 71,
      "dur": 25
    },
    {
      "t": 747.2,
      "ch": 1,
      "note": 42,
      "vel": 106,
      "dur": 25
    },
    {
      "t": 747.2,
      "ch": 1,
      "note": 36,
      "vel": 95,
      "dur": 25
    },
    {
      "t": 747.2,
      "ch": 1,
      "note": 38,
      "vel": 90,
      "dur": 25
    },
    {
      "t": 747.2,
      "ch": 1,
      "note": 40,
      "vel": 85,
      "dur": 25
    },
    {
      "t": 747.2,
      "ch": 1,
      "note": 42,
      "vel": 88,
      "dur": 25
    },
    {
      "t": 747.2,
      "ch": 1,
      "note": 36,
      "vel": 85,
      "dur": 25
    },
    {
      "t": 747.2,
      "ch": 1,
      "note": 38,
      "vel": 75,
      "dur": 25
    },
    {
      "t": 747.2,
      "ch": 1,
      "note": 40,
      "vel": 65,
      "dur": 25
    },
    {
      "t": 747.2,
      "ch": 1,
      "note": 42,
      "vel": 93,
      "dur": 25
    },
    {
      "t": 747.2,
      "ch": 1,
      "note": 36,
      "vel": 84,
      "dur": 25
    },
    {
      "t": 747.2,
      "ch": 1,
      "note": 38,
      "vel": 74,
      "dur": 25
    },
    {
      "t": 747.2,
      "ch": 1,
      "note": 40,
      "vel": 78,
      "dur": 25
    },
    {
      "t": 747.2,
      "ch": 1,
      "note": 42,
      "vel": 96,
      "dur": 25
    },
    {
      "t": 747.2,
      "ch": 1,
      "note": 36,
      "vel": 76,
      "dur": 25
    },
    {
      "t": 747.2,
      "ch": 1,
      "note": 38,
      "vel": 76,
      "dur": 25
    },
    {
      "t": 747.2,
      "ch": 1,
      "note": 40,
      "vel": 78,
      "dur": 25
    },
    {
      "t": 747.2,
      "ch": 1,
      "note": 42,
      "vel": 78,
      "dur": 25
    },
    {
      "t": 747.2,
      "ch": 1,
      "note": 36,
      "vel": 88,
      "dur": 25
    },
    {
      "t": 747.2,
      "ch": 1,
      "note": 38,
      "vel": 78,
      "dur": 25
    },
    {
      "t": 747.2,
      "ch": 1,
      "note": 40,
      "vel": 101,
      "dur": 25
    },
    {
      "t": 747.2,
      "ch": 1,
      "note": 42,
      "vel": 101,
      "dur": 25
    },
    {
      "t": 747.2,
      "ch": 1,
      "note": 36,
      "vel": 59,
      "dur": 25
    },
    {
      "t": 747.2,
      "ch": 1,
      "note": 38,
      "vel": 93,
      "dur": 25
    },
    {
      "t": 747.2,
      "ch": 1,
      "note": 40,
      "vel": 73,
      "dur": 25
    },
    {
      "t": 747.2,
      "ch": 1,
      "note": 42,
      "vel": 87,
      "dur": 25
    },
    {
      "t": 747.2,
      "ch": 1,
      "note": 36,
      "vel": 76,
      "dur": 25
    },
    {
      "t": 747.2,
      "ch": 1,
      "note": 38,
      "vel": 95,
      "dur": 25
    },
    {
      "t": 747.2,
      "ch": 1,
      "note": 40,
      "vel": 82,
      "dur": 25
    },
    {
      "t": 747.2,
      "ch": 1,
      "note": 42,
      "vel": 89,
      "dur": 25
    },
    {
      "t": 747.2,
      "ch": 1,
      "note": 36,
      "vel": 99,
      "dur": 25
    },
    {
      "t": 747.2,
      "ch": 1,
      "note": 38,
      "vel": 61,
      "dur": 25
    },
    {
      "t": 747.2,
      "ch": 1,
      "note": 40,
      "vel": 109,
      "dur": 25
    },
    {
      "t": 747.2,
      "ch": 1,
      "note": 42,
      "vel": 85,
      "dur": 25
    },
    {
      "t": 747.2,
      "ch": 1,
      "note": 36,
      "vel": 78,
      "dur": 25
    },
    {
      "t": 747.2,
      "ch": 1,
      "note": 38,
      "vel": 80,
      "dur": 25
    },
    {
      "t": 747.2,
      "ch": 1,
      "note": 40,
      "vel": 86,
      "dur": 25
    },
    {
      "t": 747.2,
      "ch": 1,
      "note": 42,
      "vel": 99,
      "dur": 25
    },
    {
      "t": 747.2,
      "ch": 1,
      "note": 36,
      "vel": 93,
      "dur": 25
    },
    {
      "t": 747.2,
      "ch": 1,
      "note": 38,
      "vel": 90,
      "dur": 25
    },
    {
      "t": 747.2,
      "ch": 1,
      "note": 40,
      "vel": 66,
      "dur": 25
    },
    {
      "t": 747.2,
      "ch": 1,
      "note": 42,
      "vel": 85,
      "dur": 25
    },
    {
      "t": 747.2,
      "ch": 1,
      "note": 36,
      "vel": 63,
      "dur": 25
    },
    {
      "t": 747.2,
      "ch": 1,
      "note": 38,
      "vel": 87,
      "dur": 25
    },
    {
      "t": 747.2,
      "ch": 1,
      "note": 40,
      "vel": 79,
      "dur": 25
    },
    {
      "t": 747.2,
      "ch": 1,
      "note": 42,
      "vel": 83,
      "dur": 25
    },
    {
      "t": 747.2,
      "ch": 1,
      "note": 36,
      "vel": 89,
      "dur": 25
    },
    {
      "t": 747.2,
      "ch": 1,
      "note": 38,
      "vel": 77,
      "dur": 25
    },
    {
      "t": 747.2,
      "ch": 1,
      "note": 40,
      "vel": 71,
      "dur": 25
    },
    {
      "t": 747.2,
      "ch": 1,
      "note": 42,
      "vel": 99,
      "dur": 25
    },
    {
      "t": 747.2,
      "ch": 1,
      "note": 36,
      "vel": 68,
      "dur": 25
    },
    {
      "t": 747.2,
      "ch": 1,
      "note": 38,
      "vel": 75,
      "dur": 25
    },
    {
      "t": 747.2,
      "ch": 1,
      "note": 40,
      "vel": 72,
      "dur": 25
    },
    {
      "t": 747.2,
      "ch": 1,
      "note": 42,
      "vel": 88,
      "dur": 25
    },
    {
      "t": 747.2,
      "ch": 1,
      "note": 36,
      "vel": 78,
      "dur": 25
    },
    {
      "t": 747.2,
      "ch": 1,
      "note": 38,
      "vel": 96,
      "dur": 25
    },
    {
      "t": 747.2,
      "ch": 1,
      "note": 40,
      "vel": 84,
      "dur": 25
    },
    {
      "t": 747.2,
      "ch": 1,
      "note": 42,
      "vel": 101,
      "dur": 25
    },
    {
      "t": 747.2,
      "ch": 1,
      "note": 36,
      "vel": 87,
      "dur": 25
    },
    {
      "t": 747.2,
      "ch": 1,
      "note": 38,
      "vel": 96,
      "dur": 25
    },
    {
      "t": 747.2,
      "ch": 1,
      "note": 40,
      "vel": 108,
      "dur": 25
    },
    {
      "t": 747.2,
      "ch": 1,
      "note": 42,
      "vel": 83,
      "dur": 25
    },
    {
      "t": 747.2,
      "ch": 1,
      "note": 36,
      "vel": 95,
      "dur": 25
    },
    {
      "t": 747.2,
      "ch": 1,
      "note": 38,
      "vel": 100,
      "dur": 25
    },
    {
      "t": 747.2,
      "ch": 1,
      "note": 40,
      "vel": 98,
      "dur": 25
    },
    {
      "t": 747.2,
      "ch": 1,
      "note": 42,
      "vel": 81,
      "dur": 25
    },
    {
      "t": 747.2,
      "ch": 1,
      "note": 36,
      "vel": 56,
      "dur": 25
    },
    {
      "t": 747.2,
      "ch": 1,
      "note": 38,
      "vel": 94,
      "dur": 25
    },
    {
      "t": 747.2,
      "ch": 1,
      "note": 40,
      "vel": 71,
      "dur": 25
    },
    {
      "t": 747.2,
      "ch": 1,
      "note": 42,
      "vel": 70,
      "dur": 25
    },
    {
      "t": 747.2,
      "ch": 1,
      "note": 36,
      "vel": 108,
      "dur": 25
    },
    {
      "t": 747.2,
      "ch": 1,
      "note": 38,
      "vel": 88,
      "dur": 25
    },
    {
      "t": 747.2,
      "ch": 1,
      "note": 40,
      "vel": 91,
      "dur": 25
    },
    {
      "t": 747.2,
      "ch": 1,
      "note": 42,
      "vel": 89,
      "dur": 25
    },
    {
      "t": 747.2,
      "ch": 1,
      "note": 36,
      "vel": 59,
      "dur": 25
    },
    {
      "t": 747.2,
      "ch": 1,
      "note": 38,
      "vel": 110,
      "dur": 25
    },
    {
      "t": 747.2,
      "ch": 1,
      "note": 40,
      "vel": 82,
      "dur": 25
    },
    {
      "t": 747.2,
      "ch": 1,
      "note": 42,
      "vel": 89,
      "dur": 25
    },
    {
      "t": 747.2,
      "ch": 1,
      "note": 36,
      "vel": 106,
      "dur": 25
    },
    {
      "t": 747.2,
      "ch": 1,
      "note": 38,
      "vel": 87,
      "dur": 25
    },
    {
      "t": 747.2,
      "ch": 1,
      "note": 40,
      "vel": 74,
      "dur": 25
    },
    {
      "t": 747.2,
      "ch": 1,
      "note": 42,
      "vel": 69,
      "dur": 25
    },
    {
      "t": 747.2,
      "ch": 1,
      "note": 36,
      "vel": 74,
      "dur": 25
    },
    {
      "t": 747.2,
      "ch": 1,
      "note": 38,
      "vel": 74,
      "dur": 25
    },
    {
      "t": 747.2,
      "ch": 1,
      "note": 40,
      "vel": 101,
      "dur": 25
    },
    {
      "t": 747.2,
      "ch": 1,
      "note": 42,
      "vel": 80,
      "dur": 25
    },
    {
      "t": 747.2,
      "ch": 1,
      "note": 36,
      "vel": 76,
      "dur": 25
    },
    {
      "t": 747.2,
      "ch": 1,
      "note": 38,
      "vel": 103,
      "dur": 25
    },
    {
      "t": 747.2,
      "ch": 1,
      "note": 40,
      "vel": 79,
      "dur": 25
    },
    {
      "t": 747.2,
      "ch": 1,
      "note": 42,
      "vel": 107,
      "dur": 25
    },
    {
      "t": 747.2,
      "ch": 1,
      "note": 36,
      "vel": 82,
      "dur": 25
    },
    {
      "t": 747.2,
      "ch": 1,
      "note": 38,
      "vel": 58,
      "dur": 25
    },
    {
      "t": 747.2,
      "ch": 1,
      "note": 40,
      "vel": 95,
      "dur": 25
    },
    {
      "t": 747.2,
      "ch": 1,
      "note": 42,
      "vel": 82,
      "dur": 25
    },
    {
      "t": 747.2,
      "ch": 1,
      "note": 36,
      "vel": 83,
      "dur": 25
    },
    {
      "t": 747.2,
      "ch": 1,
      "note": 38,
      "vel": 103,
      "dur": 25
    },
    {
      "t": 747.2,
      "ch": 1,
      "note": 40,
      "vel": 97,
      "dur": 25
    },
    {
      "t": 747.2,
      "ch": 1,
      "note": 42,
      "vel": 75,
      "dur": 25
    },
    {
      "t": 747.2,
      "ch": 1,
      "note": 36,
      "vel": 82,
      "dur": 25
    },
    {
      "t": 747.2,
      "ch": 1,
      "note": 38,
      "vel": 80,
      "dur": 25
    },
    {
      "t": 747.2,
      "ch": 1,
      "note": 40,
      "vel": 82,
      "dur": 25
    },
    {
      "t": 747.2,
      "ch": 1,
      "note": 42,
      "vel": 96,
      "dur": 25
    },
    {
      "t": 747.2,
      "ch": 1,
      "note": 36,
      "vel": 100,
      "dur": 25
    },
    {
      "t": 747.2,
      "ch": 1,
      "note": 38,
      "vel": 64,
      "dur": 25
    },
    {
      "t": 747.2,
      "ch": 1,
      "note": 40,
      "vel": 85,
      "dur": 25
    },
    {
      "t": 747.2,
      "ch": 1,
      "note": 42,
      "vel": 88,
      "dur": 25
    },
    {
      "t": 747.2,
      "ch": 1,
      "note": 36,
      "vel": 65,
      "dur": 25
    },
    {
      "t": 747.2,
      "ch": 1,
      "note": 38,
      "vel": 77,
      "dur": 25
    },
    {
      "t": 747.2,
      "ch": 1,
      "note": 40,
      "vel": 83,
      "dur": 25
    },
    {
      "t": 747.2,
      "ch": 1,
      "note": 42,
      "vel": 92,
      "dur": 25
    },
    {
      "t": 747.2,
      "ch": 1,
      "note": 36,
      "vel": 98,
      "dur": 25
    },
    {
      "t": 747.2,
      "ch": 1,
      "note": 38,
      "vel": 94,
      "dur": 25
    },
    {
      "t": 747.2,
      "ch": 1,
      "note": 40,
      "vel": 84,
      "dur": 25
    },
    {
      "t": 747.2,
      "ch": 1,
      "note": 42,
      "vel": 108,
      "dur": 25
    },
    {
      "t": 747.2,
      "ch": 1,
      "note": 36,
      "vel": 57,
      "dur": 25
    },
    {
      "t": 747.2,
      "ch": 1,
      "note": 38,
      "vel": 92,
      "dur": 25
    },
    {
      "t": 747.2,
      "ch": 1,
      "note": 40,
      "vel": 69,
      "dur": 25
    },
    {
      "t": 747.2,
      "ch": 1,
      "note": 42,
      "vel": 92,
      "dur": 25
    },
    {
      "t": 747.2,
      "ch": 1,
      "note": 36,
      "vel": 73,
      "dur": 25
    },
    {
      "t": 747.2,
      "ch": 1,
      "note": 38,
      "vel": 101,
      "dur": 25
    },
    {
      "t": 747.2,
      "ch": 1,
      "note": 40,
      "vel": 84,
      "dur": 25
    },
    {
      "t": 747.2,
      "ch": 1,
      "note": 42,
      "vel": 87,
      "dur": 25
    },
    {
      "t": 747.2,
      "ch": 1,
      "note": 36,
      "vel": 69,
      "dur": 25
    },
    {
      "t": 747.2,
      "ch": 1,
      "note": 38,
      "vel": 96,
      "dur": 25
    },
    {
      "t": 747.2,
      "ch": 1,
      "note": 40,
      "vel": 95,
      "dur": 25
    },
    {
      "t": 747.2,
      "ch": 1,
      "note": 42,
      "vel": 100,
      "dur": 25
    },
    {
      "t": 747.2,
      "ch": 1,
      "note": 36,
      "vel": 87,
      "dur": 25
    },
    {
      "t": 747.2,
      "ch": 1,
      "note": 38,
      "vel": 97,
      "dur": 25
    },
    {
      "t": 747.2,
      "ch": 1,
      "note": 40,
      "vel": 99,
      "dur": 25
    },
    {
      "t": 747.2,
      "ch": 1,
      "note": 42,
      "vel": 84,
      "dur": 25
    },
    {
      "t": 747.2,
      "ch": 1,
      "note": 36,
      "vel": 73,
      "dur": 25
    },
    {
      "t": 747.2,
      "ch": 1,
      "note": 38,
      "vel": 78,
      "dur": 25
    },
    {
      "t": 747.2,
      "ch": 1,
      "note": 40,
      "vel": 64,
      "dur": 25
    },
    {
      "t": 747.2,
      "ch": 1,
      "note": 42,
      "vel": 77,
      "dur": 25
    },
    {
      "t": 747.2,
      "ch": 1,
      "note": 36,
      "vel": 94,
      "dur": 25
    },
    {
      "t": 747.2,
      "ch": 1,
      "note": 38,
      "vel": 86,
      "dur": 25
    },
    {
      "t": 747.2,
      "ch": 1,
      "note": 40,
      "vel": 67,
      "dur": 25
    },
    {
      "t": 747.2,
      "ch": 1,
      "note": 42,
      "vel": 92,
      "dur": 25
    },
    {
      "t": 747.2,
      "ch": 1,
      "note": 36,
      "vel": 79,
      "dur": 25
    },
    {
      "t": 747.2,
      "ch": 1,
      "note": 38,
      "vel": 70,
      "dur": 25
    },
    {
      "t": 747.2,
      "ch": 1,
      "note": 40,
      "vel": 75,
      "dur": 25
    },
    {
      "t": 747.2,
      "ch": 1,
      "note": 42,
      "vel": 118,
      "dur": 25
    },
    {
      "t": 747.2,
      "ch": 1,
      "note": 36,
      "vel": 99,
      "dur": 25
    },
    {
      "t": 747.2,
      "ch": 1,
      "note": 38,
      "vel": 86,
      "dur": 25
    },
    {
      "t": 747.2,
      "ch": 1,
      "note": 40,
      "vel": 75,
      "dur": 25
    },
    {
      "t": 747.2,
      "ch": 1,
      "note": 42,
      "vel": 86,
      "dur": 25
    },
    {
      "t": 747.2,
      "ch": 1,
      "note": 36,
      "vel": 94,
      "dur": 25
    },
    {
      "t": 747.2,
      "ch": 1,
      "note": 38,
      "vel": 69,
      "dur": 25
    },
    {
      "t": 747.2,
      "ch": 1,
      "note": 40,
      "vel": 70,
      "dur": 25
    },
    {
      "t": 747.2,
      "ch": 1,
      "note": 42,
      "vel": 92,
      "dur": 25
    },
    {
      "t": 747.2,
      "ch": 1,
      "note": 36,
      "vel": 94,
      "dur": 25
    },
    {
      "t": 747.2,
      "ch": 1,
      "note": 38,
      "vel": 90,
      "dur": 25
    },
    {
      "t": 747.2,
      "ch": 1,
      "note": 40,
      "vel": 79,
      "dur": 25
    },
    {
      "t": 747.2,
      "ch": 1,
      "note": 42,
      "vel": 86,
      "dur": 25
    },
    {
      "t": 747.2,
      "ch": 1,
      "note": 36,
      "vel": 75,
      "dur": 25
    },
    {
      "t": 747.2,
      "ch": 1,
      "note": 38,
      "vel": 94,
      "dur": 25
    },
    {
      "t": 747.2,
      "ch": 1,
      "note": 40,
      "vel": 107,
      "dur": 25
    },
    {
      "t": 747.2,
      "ch": 1,
      "note": 42,
      "vel": 106,
      "dur": 25
    },
    {
      "t": 747.2,
      "ch": 1,
      "note": 36,
      "vel": 76,
      "dur": 25
    },
    {
      "t": 747.2,
      "ch": 1,
      "note": 38,
      "vel": 73,
      "dur": 25
    },
    {
      "t": 747.2,
      "ch": 1,
      "note": 40,
      "vel": 82,
      "dur": 25
    },
    {
      "t": 747.2,
      "ch": 1,
      "note": 42,
      "vel": 92,
      "dur": 25
    },
    {
      "t": 747.2,
      "ch": 1,
      "note": 36,
      "vel": 72,
      "dur": 25
    },
    {
      "t": 747.2,
      "ch": 1,
      "note": 38,
      "vel": 90,
      "dur": 25
    },
    {
      "t": 747.2,
      "ch": 1,
      "note": 40,
      "vel": 54,
      "dur": 25
    },
    {
      "t": 747.2,
      "ch": 1,
      "note": 42,
      "vel": 100,
      "dur": 25
    },
    {
      "t": 747.2,
      "ch": 1,
      "note": 36,
      "vel": 70,
      "dur": 25
    },
    {
      "t": 747.2,
      "ch": 1,
      "note": 38,
      "vel": 85,
      "dur": 25
    },
    {
      "t": 747.2,
      "ch": 1,
      "note": 40,
      "vel": 65,
      "dur": 25
    },
    {
      "t": 747.2,
      "ch": 1,
      "note": 42,
      "vel": 86,
      "dur": 25
    },
    {
      "t": 747.2,
      "ch": 1,
      "note": 36,
      "vel": 81,
      "dur": 25
    },
    {
      "t": 747.2,
      "ch": 1,
      "note": 38,
      "vel": 65,
      "dur": 25
    },
    {
      "t": 747.2,
      "ch": 1,
      "note": 40,
      "vel": 74,
      "dur": 25
    },
    {
      "t": 747.2,
      "ch": 1,
      "note": 42,
      "vel": 100,
      "dur": 25
    },
    {
      "t": 747.2,
      "ch": 1,
      "note": 36,
      "vel": 83,
      "dur": 25
    },
    {
      "t": 747.2,
      "ch": 1,
      "note": 38,
      "vel": 96,
      "dur": 25
    },
    {
      "t": 747.2,
      "ch": 1,
      "note": 40,
      "vel": 95,
      "dur": 25
    },
    {
      "t": 747.2,
      "ch": 1,
      "note": 42,
      "vel": 105,
      "dur": 25
    },
    {
      "t": 747.2,
      "ch": 1,
      "note": 36,
      "vel": 70,
      "dur": 25
    },
    {
      "t": 747.2,
      "ch": 1,
      "note": 38,
      "vel": 92,
      "dur": 25
    },
    {
      "t": 747.2,
      "ch": 1,
      "note": 40,
      "vel": 87,
      "dur": 25
    },
    {
      "t": 747.2,
      "ch": 1,
      "note": 42,
      "vel": 83,
      "dur": 25
    },
    {
      "t": 747.2,
      "ch": 1,
      "note": 36,
      "vel": 91,
      "dur": 25
    },
    {
      "t": 747.2,
      "ch": 1,
      "note": 38,
      "vel": 79,
      "dur": 25
    },
    {
      "t": 747.2,
      "ch": 1,
      "note": 40,
      "vel": 110,
      "dur": 25
    },
    {
      "t": 747.2,
      "ch": 1,
      "note": 42,
      "vel": 73,
      "dur": 25
    },
    {
      "t": 747.2,
      "ch": 1,
      "note": 36,
      "vel": 105,
      "dur": 25
    },
    {
      "t": 747.2,
      "ch": 1,
      "note": 38,
      "vel": 71,
      "dur": 25
    },
    {
      "t": 747.2,
      "ch": 1,
      "note": 40,
      "vel": 70,
      "dur": 25
    },
    {
      "t": 747.2,
      "ch": 1,
      "note": 42,
      "vel": 89,
      "dur": 25
    },
    {
      "t": 747.2,
      "ch": 1,
      "note": 36,
      "vel": 87,
      "dur": 25
    },
    {
      "t": 747.2,
      "ch": 1,
      "note": 38,
      "vel": 95,
      "dur": 25
    },
    {
      "t": 747.2,
      "ch": 1,
      "note": 40,
      "vel": 100,
      "dur": 25
    },
    {
      "t": 747.2,
      "ch": 1,
      "note": 42,
      "vel": 79,
      "dur": 25
    },
    {
      "t": 747.2,
      "ch": 1,
      "note": 36,
      "vel": 89,
      "dur": 25
    },
    {
      "t": 747.2,
      "ch": 1,
      "note": 38,
      "vel": 78,
      "dur": 25
    },
    {
      "t": 747.2,
      "ch": 1,
      "note": 40,
      "vel": 73,
      "dur": 25
    },
    {
      "t": 747.2,
      "ch": 1,
      "note": 42,
      "vel": 66,
      "dur": 25
    },
    {
      "t": 747.2,
      "ch": 1,
      "note": 36,
      "vel": 101,
      "dur": 25
    },
    {
      "t": 747.2,
      "ch": 1,
      "note": 38,
      "vel": 87,
      "dur": 25
    },
    {
      "t": 747.2,
      "ch": 1,
      "note": 40,
      "vel": 78,
      "dur": 25
    },
    {
      "t": 747.2,
      "ch": 1,
      "note": 42,
      "vel": 60,
      "dur": 25
    },
    {
      "t": 747.2,
      "ch": 1,
      "note": 36,
      "vel": 80,
      "dur": 25
    },
    {
      "t": 747.2,
      "ch": 1,
      "note": 38,
      "vel": 69,
      "dur": 25
    },
    {
      "t": 747.2,
      "ch": 1,
      "note": 40,
      "vel": 73,
      "dur": 25
    },
    {
      "t": 747.2,
      "ch": 1,
      "note": 42,
      "vel": 88,
      "dur": 25
    },
    {
      "t": 747.2,
      "ch": 1,
      "note": 36,
      "vel": 53,
      "dur": 25
    },
    {
      "t": 747.2,
      "ch": 1,
      "note": 38,
      "vel": 52,
      "dur": 25
    },
    {
      "t": 747.2,
      "ch": 1,
      "note": 40,
      "vel": 65,
      "dur": 25
    },
    {
      "t": 747.2,
      "ch": 1,
      "note": 42,
      "vel": 93,
      "dur": 25
    },
    {
      "t": 747.2,
      "ch": 1,
      "note": 36,
      "vel": 66,
      "dur": 25
    },
    {
      "t": 747.2,
      "ch": 1,
      "note": 38,
      "vel": 91,
      "dur": 25
    },
    {
      "t": 747.2,
      "ch": 1,
      "note": 40,
      "vel": 114,
      "dur": 25
    },
    {
      "t": 747.2,
      "ch": 1,
      "note": 42,
      "vel": 84,
      "dur": 25
    },
    {
      "t": 747.2,
      "ch": 1,
      "note": 36,
      "vel": 111,
      "dur": 25
    },
    {
      "t": 747.2,
      "ch": 1,
      "note": 38,
      "vel": 87,
      "dur": 25
    },
    {
      "t": 747.2,
      "ch": 1,
      "note": 40,
      "vel": 78,
      "dur": 25
    },
    {
      "t": 747.2,
      "ch": 1,
      "note": 42,
      "vel": 81,
      "dur": 25
    },
    {
      "t": 747.2,
      "ch": 1,
      "note": 36,
      "vel": 76,
      "dur": 25
    },
    {
      "t": 747.2,
      "ch": 1,
      "note": 38,
      "vel": 108,
      "dur": 25
    },
    {
      "t": 747.2,
      "ch": 1,
      "note": 40,
      "vel": 98,
      "dur": 25
    },
    {
      "t": 747.2,
      "ch": 1,
      "note": 42,
      "vel": 58,
      "dur": 25
    },
    {
      "t": 747.2,
      "ch": 1,
      "note": 36,
      "vel": 84,
      "dur": 25
    },
    {
      "t": 747.2,
      "ch": 1,
      "note": 38,
      "vel": 77,
      "dur": 25
    },
    {
      "t": 747.2,
      "ch": 1,
      "note": 40,
      "vel": 93,
      "dur": 25
    },
    {
      "t": 747.2,
      "ch": 1,
      "note": 42,
      "vel": 91,
      "dur": 25
    },
    {
      "t": 747.2,
      "ch": 1,
      "note": 36,
      "vel": 107,
      "dur": 25
    },
    {
      "t": 747.2,
      "ch": 1,
      "note": 38,
      "vel": 82,
      "dur": 25
    },
    {
      "t": 747.2,
      "ch": 1,
      "note": 40,
      "vel": 75,
      "dur": 25
    },
    {
      "t": 747.2,
      "ch": 1,
      "note": 42,
      "vel": 80,
      "dur": 25
    },
    {
      "t": 747.2,
      "ch": 1,
      "note": 36,
      "vel": 89,
      "dur": 25
    },
    {
      "t": 747.2,
      "ch": 1,
      "note": 38,
      "vel": 92,
      "dur": 25
    },
    {
      "t": 747.2,
      "ch": 1,
      "note": 40,
      "vel": 74,
      "dur": 25
    },
    {
      "t": 747.2,
      "ch": 1,
      "note": 42,
      "vel": 86,
      "dur": 25
    },
    {
      "t": 747.2,
      "ch": 1,
      "note": 36,
      "vel": 71,
      "dur": 25
    },
    {
      "t": 747.2,
      "ch": 1,
      "note": 38,
      "vel": 100,
      "dur": 25
    },
    {
      "t": 747.2,
      "ch": 1,
      "note": 40,
      "vel": 89,
      "dur": 25
    },
    {
      "t": 747.2,
      "ch": 1,
      "note": 42,
      "vel": 97,
      "dur": 25
    },
    {
      "t": 747.2,
      "ch": 1,
      "note": 36,
      "vel": 96,
      "dur": 25
    },
    {
      "t": 747.2,
      "ch": 1,
      "note": 38,
      "vel": 87,
      "dur": 25
    },
    {
      "t": 747.2,
      "ch": 1,
      "note": 40,
      "vel": 96,
      "dur": 25
    },
    {
      "t": 747.2,
      "ch": 1,
      "note": 42,
      "vel": 86,
      "dur": 25
    },
    {
      "t": 747.2,
      "ch": 1,
      "note": 36,
      "vel": 57,
      "dur": 25
    },
    {
      "t": 747.2,
      "ch": 1,
      "note": 38,
      "vel": 89,
      "dur": 25
    },
    {
      "t": 747.2,
      "ch": 1,
      "note": 40,
      "vel": 68,
      "dur": 25
    },
    {
      "t": 747.2,
      "ch": 1,
      "note": 42,
      "vel": 102,
      "dur": 25
    },
    {
      "t": 747.2,
      "ch": 1,
      "note": 36,
      "vel": 100,
      "dur": 25
    },
    {
      "t": 747.2,
      "ch": 1,
      "note": 38,
      "vel": 65,
      "dur": 25
    },
    {
      "t": 747.2,
      "ch": 1,
      "note": 40,
      "vel": 89,
      "dur": 25
    },
    {
      "t": 747.2,
      "ch": 1,
      "note": 42,
      "vel": 107,
      "dur": 25
    },
    {
      "t": 747.2,
      "ch": 1,
      "note": 36,
      "vel": 90,
      "dur": 25
    },
    {
      "t": 747.2,
      "ch": 1,
      "note": 38,
      "vel": 99,
      "dur": 25
    },
    {
      "t": 747.2,
      "ch": 1,
      "note": 40,
      "vel": 99,
      "dur": 25
    },
    {
      "t": 747.2,
      "ch": 1,
      "note": 42,
      "vel": 87,
      "dur": 25
    },
    {
      "t": 747.2,
      "ch": 1,
      "note": 36,
      "vel": 89,
      "dur": 25
    },
    {
      "t": 747.2,
      "ch": 1,
      "note": 38,
      "vel": 99,
      "dur": 25
    },
    {
      "t": 747.2,
      "ch": 1,
      "note": 40,
      "vel": 88,
      "dur": 25
    },
    {
      "t": 747.2,
      "ch": 1,
      "note": 42,
      "vel": 93,
      "dur": 25
    },
    {
      "t": 747.2,
      "ch": 1,
      "note": 36,
      "vel": 64,
      "dur": 25
    },
    {
      "t": 747.2,
      "ch": 1,
      "note": 38,
      "vel": 97,
      "dur": 25
    },
    {
      "t": 747.2,
      "ch": 1,
      "note": 40,
      "vel": 57,
      "dur": 25
    },
    {
      "t": 747.2,
      "ch": 1,
      "note": 42,
      "vel": 83,
      "dur": 25
    },
    {
      "t": 747.2,
      "ch": 1,
      "note": 36,
      "vel": 106,
      "dur": 25
    },
    {
      "t": 747.2,
      "ch": 1,
      "note": 38,
      "vel": 91,
      "dur": 25
    },
    {
      "t": 747.2,
      "ch": 1,
      "note": 40,
      "vel": 85,
      "dur": 25
    },
    {
      "t": 747.2,
      "ch": 1,
      "note": 42,
      "vel": 106,
      "dur": 25
    },
    {
      "t": 747.2,
      "ch": 1,
      "note": 36,
      "vel": 82,
      "dur": 25
    },
    {
      "t": 747.2,
      "ch": 1,
      "note": 38,
      "vel": 66,
      "dur": 25
    },
    {
      "t": 747.2,
      "ch": 1,
      "note": 40,
      "vel": 67,
      "dur": 25
    },
    {
      "t": 747.2,
      "ch": 1,
      "note": 42,
      "vel": 91,
      "dur": 25
    },
    {
      "t": 747.2,
      "ch": 1,
      "note": 36,
      "vel": 97,
      "dur": 25
    },
    {
      "t": 747.2,
      "ch": 1,
      "note": 38,
      "vel": 78,
      "dur": 25
    },
    {
      "t": 747.2,
      "ch": 1,
      "note": 40,
      "vel": 102,
      "dur": 25
    },
    {
      "t": 747.2,
      "ch": 1,
      "note": 42,
      "vel": 73,
      "dur": 25
    },
    {
      "t": 747.2,
      "ch": 1,
      "note": 36,
      "vel": 88,
      "dur": 25
    },
    {
      "t": 747.2,
      "ch": 1,
      "note": 38,
      "vel": 61,
      "dur": 25
    },
    {
      "t": 747.2,
      "ch": 1,
      "note": 40,
      "vel": 102,
      "dur": 25
    },
    {
      "t": 747.2,
      "ch": 1,
      "note": 42,
      "vel": 90,
      "dur": 25
    },
    {
      "t": 747.2,
      "ch": 1,
      "note": 36,
      "vel": 87,
      "dur": 25
    },
    {
      "t": 747.2,
      "ch": 1,
      "note": 38,
      "vel": 79,
      "dur": 25
    },
    {
      "t": 747.2,
      "ch": 1,
      "note": 40,
      "vel": 72,
      "dur": 25
    },
    {
      "t": 747.2,
      "ch": 1,
      "note": 42,
      "vel": 89,
      "dur": 25
    },
    {
      "t": 747.2,
      "ch": 1,
      "note": 36,
      "vel": 104,
      "dur": 25
    },
    {
      "t": 747.2,
      "ch": 1,
      "note": 38,
      "vel": 98,
      "dur": 25
    },
    {
      "t": 747.2,
      "ch": 1,
      "note": 40,
      "vel": 83,
      "dur": 25
    },
    {
      "t": 747.2,
      "ch": 1,
      "note": 42,
      "vel": 68,
      "dur": 25
    },
    {
      "t": 747.2,
      "ch": 1,
      "note": 36,
      "vel": 98,
      "dur": 25
    },
    {
      "t": 747.2,
      "ch": 1,
      "note": 38,
      "vel": 88,
      "dur": 25
    },
    {
      "t": 747.2,
      "ch": 1,
      "note": 40,
      "vel": 85,
      "dur": 25
    },
    {
      "t": 747.2,
      "ch": 1,
      "note": 42,
      "vel": 88,
      "dur": 25
    },
    {
      "t": 747.2,
      "ch": 1,
      "note": 36,
      "vel": 103,
      "dur": 25
    },
    {
      "t": 747.2,
      "ch": 1,
      "note": 38,
      "vel": 82,
      "dur": 25
    },
    {
      "t": 747.2,
      "ch": 1,
      "note": 40,
      "vel": 89,
      "dur": 25
    },
    {
      "t": 747.2,
      "ch": 1,
      "note": 42,
      "vel": 83,
      "dur": 25
    },
    {
      "t": 747.2,
      "ch": 1,
      "note": 36,
      "vel": 96,
      "dur": 25
    },
    {
      "t": 747.2,
      "ch": 1,
      "note": 38,
      "vel": 83,
      "dur": 25
    },
    {
      "t": 747.2,
      "ch": 1,
      "note": 40,
      "vel": 74,
      "dur": 25
    },
    {
      "t": 747.2,
      "ch": 1,
      "note": 42,
      "vel": 93,
      "dur": 25
    },
    {
      "t": 747.2,
      "ch": 1,
      "note": 36,
      "vel": 107,
      "dur": 25
    },
    {
      "t": 747.2,
      "ch": 1,
      "note": 38,
      "vel": 89,
      "dur": 25
    },
    {
      "t": 747.2,
      "ch": 1,
      "note": 40,
      "vel": 86,
      "dur": 25
    },
    {
      "t": 747.2,
      "ch": 1,
      "note": 42,
      "vel": 100,
      "dur": 25
    },
    {
      "t": 747.2,
      "ch": 1,
      "note": 36,
      "vel": 86,
      "dur": 25
    },
    {
      "t": 747.2,
      "ch": 1,
      "note": 38,
      "vel": 78,
      "dur": 25
    },
    {
      "t": 747.2,
      "ch": 1,
      "note": 40,
      "vel": 85,
      "dur": 25
    },
    {
      "t": 747.2,
      "ch": 1,
      "note": 42,
      "vel": 68,
      "dur": 25
    },
    {
      "t": 747.2,
      "ch": 1,
      "note": 36,
      "vel": 80,
      "dur": 25
    },
    {
      "t": 747.2,
      "ch": 1,
      "note": 38,
      "vel": 106,
      "dur": 25
    },
    {
      "t": 747.2,
      "ch": 1,
      "note": 40,
      "vel": 83,
      "dur": 25
    },
    {
      "t": 747.2,
      "ch": 1,
      "note": 42,
      "vel": 94,
      "dur": 25
    },
    {
      "t": 747.2,
      "ch": 1,
      "note": 36,
      "vel": 109,
      "dur": 25
    },
    {
      "t": 747.2,
      "ch": 1,
      "note": 38,
      "vel": 69,
      "dur": 25
    },
    {
      "t": 747.2,
      "ch": 1,
      "note": 40,
      "vel": 106,
      "dur": 25
    },
    {
      "t": 747.2,
      "ch": 1,
      "note": 42,
      "vel": 96,
      "dur": 25
    },
    {
      "t": 747.2,
      "ch": 1,
      "note": 36,
      "vel": 77,
      "dur": 25
    },
    {
      "t": 747.2,
      "ch": 1,
      "note": 38,
      "vel": 96,
      "dur": 25
    },
    {
      "t": 747.2,
      "ch": 1,
      "note": 40,
      "vel": 110,
      "dur": 25
    },
    {
      "t": 747.2,
      "ch": 1,
      "note": 42,
      "vel": 55,
      "dur": 25
    },
    {
      "t": 747.2,
      "ch": 1,
      "note": 36,
      "vel": 74,
      "dur": 25
    },
    {
      "t": 747.2,
      "ch": 1,
      "note": 38,
      "vel": 76,
      "dur": 25
    },
    {
      "t": 747.2,
      "ch": 1,
      "note": 40,
      "vel": 67,
      "dur": 25
    },
    {
      "t": 747.2,
      "ch": 1,
      "note": 42,
      "vel": 98,
      "dur": 25
    },
    {
      "t": 747.2,
      "ch": 1,
      "note": 36,
      "vel": 93,
      "dur": 25
    },
    {
      "t": 747.2,
      "ch": 1,
      "note": 38,
      "vel": 77,
      "dur": 25
    },
    {
      "t": 747.2,
      "ch": 1,
      "note": 40,
      "vel": 89,
      "dur": 25
    },
    {
      "t": 747.2,
      "ch": 1,
      "note": 42,
      "vel": 91,
      "dur": 25
    },
    {
      "t": 747.2,
      "ch": 1,
      "note": 36,
      "vel": 100,
      "dur": 25
    },
    {
      "t": 747.2,
      "ch": 1,
      "note": 38,
      "vel": 75,
      "dur": 25
    },
    {
      "t": 747.2,
      "ch": 1,
      "note": 40,
      "vel": 74,
      "dur": 25
    },
    {
      "t": 747.2,
      "ch": 1,
      "note": 42,
      "vel": 109,
      "dur": 25
    },
    {
      "t": 747.2,
      "ch": 1,
      "note": 36,
      "vel": 91,
      "dur": 25
    },
    {
      "t": 747.2,
      "ch": 1,
      "note": 38,
      "vel": 86,
      "dur": 25
    },
    {
      "t": 747.2,
      "ch": 1,
      "note": 40,
      "vel": 68,
      "dur": 25
    },
    {
      "t": 747.2,
      "ch": 1,
      "note": 42,
      "vel": 65,
      "dur": 25
    },
    {
      "t": 747.2,
      "ch": 1,
      "note": 36,
      "vel": 87,
      "dur": 25
    },
    {
      "t": 747.2,
      "ch": 1,
      "note": 38,
      "vel": 98,
      "dur": 25
    },
    {
      "t": 747.2,
      "ch": 1,
      "note": 40,
      "vel": 91,
      "dur": 25
    },
    {
      "t": 747.2,
      "ch": 1,
      "note": 42,
      "vel": 99,
      "dur": 25
    },
    {
      "t": 747.2,
      "ch": 1,
      "note": 36,
      "vel": 83,
      "dur": 25
    },
    {
      "t": 747.2,
      "ch": 1,
      "note": 38,
      "vel": 89,
      "dur": 25
    },
    {
      "t": 747.2,
      "ch": 1,
      "note": 40,
      "vel": 99,
      "dur": 25
    },
    {
      "t": 747.2,
      "ch": 1,
      "note": 42,
      "vel": 66,
      "dur": 25
    },
    {
      "t": 747.2,
      "ch": 1,
      "note": 36,
      "vel": 86,
      "dur": 25
    },
    {
      "t": 747.2,
      "ch": 1,
      "note": 38,
      "vel": 97,
      "dur": 25
    },
    {
      "t": 747.2,
      "ch": 1,
      "note": 40,
      "vel": 87,
      "dur": 25
    },
    {
      "t": 747.2,
      "ch": 1,
      "note": 42,
      "vel": 87,
      "dur": 25
    },
    {
      "t": 747.2,
      "ch": 1,
      "note": 36,
      "vel": 90,
      "dur": 25
    },
    {
      "t": 747.2,
      "ch": 1,
      "note": 38,
      "vel": 99,
      "dur": 25
    },
    {
      "t": 747.2,
      "ch": 1,
      "note": 40,
      "vel": 87,
      "dur": 25
    },
    {
      "t": 747.2,
      "ch": 1,
      "note": 42,
      "vel": 80,
      "dur": 25
    },
    {
      "t": 747.2,
      "ch": 1,
      "note": 36,
      "vel": 60,
      "dur": 25
    },
    {
      "t": 747.2,
      "ch": 1,
      "note": 38,
      "vel": 55,
      "dur": 25
    },
    {
      "t": 747.2,
      "ch": 1,
      "note": 40,
      "vel": 81,
      "dur": 25
    },
    {
      "t": 747.2,
      "ch": 1,
      "note": 42,
      "vel": 102,
      "dur": 25
    },
    {
      "t": 747.2,
      "ch": 1,
      "note": 36,
      "vel": 79,
      "dur": 25
    },
    {
      "t": 747.2,
      "ch": 1,
      "note": 38,
      "vel": 96,
      "dur": 25
    },
    {
      "t": 747.2,
      "ch": 1,
      "note": 40,
      "vel": 79,
      "dur": 25
    },
    {
      "t": 747.2,
      "ch": 1,
      "note": 42,
      "vel": 83,
      "dur": 25
    },
    {
      "t": 747.2,
      "ch": 1,
      "note": 36,
      "vel": 70,
      "dur": 25
    },
    {
      "t": 747.2,
      "ch": 1,
      "note": 38,
      "vel": 67,
      "dur": 25
    },
    {
      "t": 747.2,
      "ch": 1,
      "note": 40,
      "vel": 86,
      "dur": 25
    },
    {
      "t": 747.2,
      "ch": 1,
      "note": 42,
      "vel": 87,
      "dur": 25
    },
    {
      "t": 747.2,
      "ch": 1,
      "note": 36,
      "vel": 97,
      "dur": 25
    },
    {
      "t": 747.2,
      "ch": 1,
      "note": 38,
      "vel": 100,
      "dur": 25
    },
    {
      "t": 747.2,
      "ch": 1,
      "note": 40,
      "vel": 96,
      "dur": 25
    },
    {
      "t": 747.2,
      "ch": 1,
      "note": 42,
      "vel": 98,
      "dur": 25
    },
    {
      "t": 747.2,
      "ch": 1,
      "note": 36,
      "vel": 73,
      "dur": 25
    },
    {
      "t": 747.2,
      "ch": 1,
      "note": 38,
      "vel": 67,
      "dur": 25
    },
    {
      "t": 747.2,
      "ch": 1,
      "note": 40,
      "vel": 69,
      "dur": 25
    },
    {
      "t": 747.2,
      "ch": 1,
      "note": 42,
      "vel": 76,
      "dur": 25
    },
    {
      "t": 747.2,
      "ch": 1,
      "note": 36,
      "vel": 81,
      "dur": 25
    },
    {
      "t": 747.2,
      "ch": 1,
      "note": 38,
      "vel": 59,
      "dur": 25
    },
    {
      "t": 747.2,
      "ch": 1,
      "note": 40,
      "vel": 71,
      "dur": 25
    },
    {
      "t": 747.2,
      "ch": 1,
      "note": 42,
      "vel": 75,
      "dur": 25
    },
    {
      "t": 747.2,
      "ch": 1,
      "note": 36,
      "vel": 81,
      "dur": 25
    },
    {
      "t": 747.2,
      "ch": 1,
      "note": 38,
      "vel": 95,
      "dur": 25
    },
    {
      "t": 747.2,
      "ch": 1,
      "note": 40,
      "vel": 82,
      "dur": 25
    },
    {
      "t": 747.2,
      "ch": 1,
      "note": 42,
      "vel": 107,
      "dur": 25
    },
    {
      "t": 747.2,
      "ch": 1,
      "note": 36,
      "vel": 97,
      "dur": 25
    },
    {
      "t": 747.2,
      "ch": 1,
      "note": 38,
      "vel": 81,
      "dur": 25
    },
    {
      "t": 747.2,
      "ch": 1,
      "note": 40,
      "vel": 102,
      "dur": 25
    },
    {
      "t": 747.2,
      "ch": 1,
      "note": 42,
      "vel": 87,
      "dur": 25
    },
    {
      "t": 747.2,
      "ch": 1,
      "note": 36,
      "vel": 104,
      "dur": 25
    },
    {
      "t": 747.2,
      "ch": 1,
      "note": 38,
      "vel": 96,
      "dur": 25
    },
    {
      "t": 747.2,
      "ch": 1,
      "note": 40,
      "vel": 93,
      "dur": 25
    },
    {
      "t": 747.2,
      "ch": 1,
      "note": 42,
      "vel": 65,
      "dur": 25
    },
    {
      "t": 747.2,
      "ch": 1,
      "note": 36,
      "vel": 81,
      "dur": 25
    },
    {
      "t": 747.2,
      "ch": 1,
      "note": 38,
      "vel": 85,
      "dur": 25
    },
    {
      "t": 747.2,
      "ch": 1,
      "note": 40,
      "vel": 98,
      "dur": 25
    },
    {
      "t": 747.2,
      "ch": 1,
      "note": 42,
      "vel": 77,
      "dur": 25
    },
    {
      "t": 747.2,
      "ch": 7,
      "note": 48,
      "vel": 70,
      "dur": 80
    },
    {
      "t": 747.2,
      "ch": 7,
      "note": 45,
      "vel": 63,
      "dur": 80
    },
    {
      "t": 747.2,
      "ch": 7,
      "note": 36,
      "vel": 67,
      "dur": 80
    },
    {
      "t": 747.2,
      "ch": 7,
      "note": 38,
      "vel": 77,
      "dur": 80
    },
    {
      "t": 747.4,
      "ch": 1,
      "note": 36,
      "vel": 93,
      "dur": 25
    },
    {
      "t": 747.4,
      "ch": 1,
      "note": 38,
      "vel": 69,
      "dur": 25
    },
    {
      "t": 747.6,
      "ch": 1,
      "note": 40,
      "vel": 69,
      "dur": 25
    },
    {
      "t": 747.6,
      "ch": 1,
      "note": 42,
      "vel": 72,
      "dur": 25
    },
    {
      "t": 747.6,
      "ch": 7,
      "note": 36,
      "vel": 60,
      "dur": 80
    },
    {
      "t": 747.7,
      "ch": 1,
      "note": 36,
      "vel": 80,
      "dur": 25
    },
    {
      "t": 747.8,
      "ch": 1,
      "note": 38,
      "vel": 55,
      "dur": 25
    },
    {
      "t": 747.9,
      "ch": 1,
      "note": 40,
      "vel": 70,
      "dur": 25
    },
    {
      "t": 747.9,
      "ch": 1,
      "note": 42,
      "vel": 99,
      "dur": 25
    },
    {
      "t": 747.9,
      "ch": 7,
      "note": 48,
      "vel": 82,
      "dur": 80
    },
    {
      "t": 747.9,
      "ch": 7,
      "note": 36,
      "vel": 85,
      "dur": 80
    },
    {
      "t": 748.1,
      "ch": 1,
      "note": 36,
      "vel": 90,
      "dur": 25
    },
    {
      "t": 748.1,
      "ch": 1,
      "note": 38,
      "vel": 74,
      "dur": 25
    },
    {
      "t": 748.1,
      "ch": 7,
      "note": 38,
      "vel": 68,
      "dur": 80
    },
    {
      "t": 748.1,
      "ch": 7,
      "note": 45,
      "vel": 62,
      "dur": 80
    },
    {
      "t": 748.3,
      "ch": 1,
      "note": 40,
      "vel": 74,
      "dur": 25
    },
    {
      "t": 748.3,
      "ch": 1,
      "note": 42,
      "vel": 72,
      "dur": 25
    },
    {
      "t": 748.4,
      "ch": 1,
      "note": 36,
      "vel": 75,
      "dur": 25
    },
    {
      "t": 748.5,
      "ch": 1,
      "note": 38,
      "vel": 60,
      "dur": 25
    },
    {
      "t": 748.6,
      "ch": 2,
      "note": 58,
      "vel": 56,
      "dur": 20930
    },
    {
      "t": 748.6,
      "ch": 2,
      "note": 70,
      "vel": 39,
      "dur": 20930
    },
    {
      "t": 748.6,
      "ch": 1,
      "note": 40,
      "vel": 64,
      "dur": 25
    },
    {
      "t": 748.6,
      "ch": 0,
      "note": 36,
      "vel": 96,
      "dur": 55
    },
    {
      "t": 748.6,
      "ch": 1,
      "note": 42,
      "vel": 73,
      "dur": 25
    },
    {
      "t": 748.6,
      "ch": 7,
      "note": 48,
      "vel": 56,
      "dur": 80
    },
    {
      "t": 748.6,
      "ch": 7,
      "note": 36,
      "vel": 62,
      "dur": 80
    },
    {
      "t": 748.8,
      "ch": 1,
      "note": 36,
      "vel": 86,
      "dur": 25
    },
    {
      "t": 748.8,
      "ch": 1,
      "note": 38,
      "vel": 61,
      "dur": 25
    },
    {
      "t": 749,
      "ch": 1,
      "note": 40,
      "vel": 77,
      "dur": 25
    },
    {
      "t": 749,
      "ch": 1,
      "note": 42,
      "vel": 73,
      "dur": 25
    },
    {
      "t": 749,
      "ch": 7,
      "note": 45,
      "vel": 69,
      "dur": 80
    },
    {
      "t": 749,
      "ch": 7,
      "note": 36,
      "vel": 71,
      "dur": 80
    },
    {
      "t": 749,
      "ch": 7,
      "note": 38,
      "vel": 64,
      "dur": 80
    },
    {
      "t": 749.1,
      "ch": 1,
      "note": 36,
      "vel": 65,
      "dur": 25
    },
    {
      "t": 749.2,
      "ch": 1,
      "note": 38,
      "vel": 95,
      "dur": 25
    },
    {
      "t": 749.3,
      "ch": 1,
      "note": 40,
      "vel": 84,
      "dur": 25
    },
    {
      "t": 749.3,
      "ch": 1,
      "note": 42,
      "vel": 71,
      "dur": 25
    },
    {
      "t": 749.3,
      "ch": 7,
      "note": 48,
      "vel": 77,
      "dur": 80
    },
    {
      "t": 749.3,
      "ch": 7,
      "note": 36,
      "vel": 61,
      "dur": 80
    },
    {
      "t": 749.5,
      "ch": 1,
      "note": 36,
      "vel": 81,
      "dur": 25
    },
    {
      "t": 749.5,
      "ch": 1,
      "note": 38,
      "vel": 63,
      "dur": 25
    },
    {
      "t": 749.7,
      "ch": 1,
      "note": 40,
      "vel": 65,
      "dur": 25
    },
    {
      "t": 749.7,
      "ch": 1,
      "note": 42,
      "vel": 73,
      "dur": 25
    },
    {
      "t": 749.7,
      "ch": 0,
      "note": 36,
      "vel": 85,
      "dur": 55
    },
    {
      "t": 749.8,
      "ch": 1,
      "note": 36,
      "vel": 71,
      "dur": 25
    },
    {
      "t": 749.9,
      "ch": 1,
      "note": 38,
      "vel": 82,
      "dur": 25
    },
    {
      "t": 750,
      "ch": 1,
      "note": 40,
      "vel": 63,
      "dur": 25
    },
    {
      "t": 750,
      "ch": 0,
      "note": 36,
      "vel": 115,
      "dur": 55
    },
    {
      "t": 750,
      "ch": 1,
      "note": 42,
      "vel": 89,
      "dur": 25
    },
    {
      "t": 750,
      "ch": 7,
      "note": 48,
      "vel": 74,
      "dur": 80
    },
    {
      "t": 750,
      "ch": 7,
      "note": 45,
      "vel": 68,
      "dur": 80
    },
    {
      "t": 750,
      "ch": 7,
      "note": 36,
      "vel": 74,
      "dur": 80
    },
    {
      "t": 750,
      "ch": 7,
      "note": 38,
      "vel": 62,
      "dur": 80
    },
    {
      "t": 750.2,
      "ch": 1,
      "note": 36,
      "vel": 85,
      "dur": 25
    },
    {
      "t": 750.2,
      "ch": 1,
      "note": 38,
      "vel": 93,
      "dur": 25
    },
    {
      "t": 750.4,
      "ch": 1,
      "note": 40,
      "vel": 65,
      "dur": 25
    },
    {
      "t": 750.4,
      "ch": 1,
      "note": 42,
      "vel": 98,
      "dur": 25
    },
    {
      "t": 750.4,
      "ch": 7,
      "note": 36,
      "vel": 65,
      "dur": 80
    },
    {
      "t": 750.5,
      "ch": 1,
      "note": 36,
      "vel": 77,
      "dur": 25
    },
    {
      "t": 750.6,
      "ch": 1,
      "note": 38,
      "vel": 88,
      "dur": 25
    },
    {
      "t": 750.6,
      "ch": 5,
      "note": 80,
      "vel": 33,
      "dur": 938
    },
    {
      "t": 750.7,
      "ch": 1,
      "note": 40,
      "vel": 62,
      "dur": 25
    },
    {
      "t": 750.7,
      "ch": 1,
      "note": 42,
      "vel": 61,
      "dur": 25
    },
    {
      "t": 750.7,
      "ch": 7,
      "note": 48,
      "vel": 69,
      "dur": 80
    },
    {
      "t": 750.7,
      "ch": 7,
      "note": 36,
      "vel": 69,
      "dur": 80
    },
    {
      "t": 750.9,
      "ch": 1,
      "note": 36,
      "vel": 81,
      "dur": 25
    },
    {
      "t": 750.9,
      "ch": 1,
      "note": 38,
      "vel": 75,
      "dur": 25
    },
    {
      "t": 750.9,
      "ch": 7,
      "note": 45,
      "vel": 67,
      "dur": 80
    },
    {
      "t": 750.9,
      "ch": 7,
      "note": 38,
      "vel": 52,
      "dur": 80
    },
    {
      "t": 751.1,
      "ch": 1,
      "note": 40,
      "vel": 89,
      "dur": 25
    },
    {
      "t": 751.1,
      "ch": 1,
      "note": 42,
      "vel": 77,
      "dur": 25
    },
    {
      "t": 751.1,
      "ch": 0,
      "note": 36,
      "vel": 81,
      "dur": 55
    },
    {
      "t": 751.2,
      "ch": 1,
      "note": 36,
      "vel": 98,
      "dur": 25
    },
    {
      "t": 751.2,
      "ch": 1,
      "note": 38,
      "vel": 85,
      "dur": 25
    },
    {
      "t": 751.4,
      "ch": 1,
      "note": 40,
      "vel": 76,
      "dur": 25
    },
    {
      "t": 751.4,
      "ch": 1,
      "note": 42,
      "vel": 70,
      "dur": 25
    },
    {
      "t": 751.4,
      "ch": 7,
      "note": 48,
      "vel": 67,
      "dur": 80
    },
    {
      "t": 751.4,
      "ch": 7,
      "note": 36,
      "vel": 66,
      "dur": 80
    },
    {
      "t": 751.6,
      "ch": 1,
      "note": 36,
      "vel": 77,
      "dur": 25
    },
    {
      "t": 751.6,
      "ch": 1,
      "note": 38,
      "vel": 67,
      "dur": 25
    },
    {
      "t": 751.8,
      "ch": 1,
      "note": 40,
      "vel": 78,
      "dur": 25
    },
    {
      "t": 751.8,
      "ch": 1,
      "note": 42,
      "vel": 85,
      "dur": 25
    },
    {
      "t": 751.8,
      "ch": 7,
      "note": 45,
      "vel": 67,
      "dur": 80
    },
    {
      "t": 751.8,
      "ch": 7,
      "note": 36,
      "vel": 63,
      "dur": 80
    },
    {
      "t": 751.8,
      "ch": 7,
      "note": 38,
      "vel": 64,
      "dur": 80
    },
    {
      "t": 751.9,
      "ch": 1,
      "note": 36,
      "vel": 91,
      "dur": 25
    },
    {
      "t": 752,
      "ch": 1,
      "note": 38,
      "vel": 87,
      "dur": 25
    },
    {
      "t": 752.1,
      "ch": 1,
      "note": 40,
      "vel": 86,
      "dur": 25
    },
    {
      "t": 752.1,
      "ch": 1,
      "note": 42,
      "vel": 87,
      "dur": 25
    },
    {
      "t": 752.1,
      "ch": 7,
      "note": 48,
      "vel": 59,
      "dur": 80
    },
    {
      "t": 752.1,
      "ch": 7,
      "note": 36,
      "vel": 66,
      "dur": 80
    },
    {
      "t": 752.3,
      "ch": 1,
      "note": 36,
      "vel": 69,
      "dur": 25
    },
    {
      "t": 752.3,
      "ch": 1,
      "note": 38,
      "vel": 75,
      "dur": 25
    },
    {
      "t": 752.5,
      "ch": 1,
      "note": 40,
      "vel": 71,
      "dur": 25
    },
    {
      "t": 752.5,
      "ch": 1,
      "note": 42,
      "vel": 84,
      "dur": 25
    },
    {
      "t": 752.5,
      "ch": 0,
      "note": 36,
      "vel": 76,
      "dur": 55
    },
    {
      "t": 752.6,
      "ch": 1,
      "note": 36,
      "vel": 79,
      "dur": 25
    },
    {
      "t": 752.6,
      "ch": 1,
      "note": 38,
      "vel": 74,
      "dur": 25
    },
    {
      "t": 752.8,
      "ch": 1,
      "note": 40,
      "vel": 89,
      "dur": 25
    },
    {
      "t": 752.8,
      "ch": 0,
      "note": 36,
      "vel": 119,
      "dur": 55
    },
    {
      "t": 752.8,
      "ch": 1,
      "note": 42,
      "vel": 83,
      "dur": 25
    },
    {
      "t": 752.8,
      "ch": 7,
      "note": 48,
      "vel": 71,
      "dur": 80
    },
    {
      "t": 752.8,
      "ch": 7,
      "note": 45,
      "vel": 65,
      "dur": 80
    },
    {
      "t": 752.8,
      "ch": 7,
      "note": 36,
      "vel": 67,
      "dur": 80
    },
    {
      "t": 752.8,
      "ch": 7,
      "note": 38,
      "vel": 67,
      "dur": 80
    },
    {
      "t": 753,
      "ch": 1,
      "note": 36,
      "vel": 74,
      "dur": 25
    },
    {
      "t": 753,
      "ch": 1,
      "note": 38,
      "vel": 66,
      "dur": 25
    },
    {
      "t": 753.2,
      "ch": 1,
      "note": 40,
      "vel": 77,
      "dur": 25
    },
    {
      "t": 753.2,
      "ch": 1,
      "note": 42,
      "vel": 54,
      "dur": 25
    },
    {
      "t": 753.2,
      "ch": 7,
      "note": 36,
      "vel": 64,
      "dur": 80
    },
    {
      "t": 753.3,
      "ch": 1,
      "note": 36,
      "vel": 76,
      "dur": 25
    },
    {
      "t": 753.3,
      "ch": 1,
      "note": 38,
      "vel": 72,
      "dur": 25
    },
    {
      "t": 753.5,
      "ch": 1,
      "note": 40,
      "vel": 55,
      "dur": 25
    },
    {
      "t": 753.5,
      "ch": 1,
      "note": 42,
      "vel": 101,
      "dur": 25
    },
    {
      "t": 753.5,
      "ch": 7,
      "note": 48,
      "vel": 74,
      "dur": 80
    },
    {
      "t": 753.5,
      "ch": 7,
      "note": 36,
      "vel": 68,
      "dur": 80
    },
    {
      "t": 753.7,
      "ch": 1,
      "note": 36,
      "vel": 95,
      "dur": 25
    },
    {
      "t": 753.7,
      "ch": 1,
      "note": 38,
      "vel": 74,
      "dur": 25
    },
    {
      "t": 753.7,
      "ch": 7,
      "note": 45,
      "vel": 66,
      "dur": 80
    },
    {
      "t": 753.7,
      "ch": 7,
      "note": 38,
      "vel": 46,
      "dur": 80
    },
    {
      "t": 753.8,
      "ch": 1,
      "note": 40,
      "vel": 83,
      "dur": 25
    },
    {
      "t": 753.9,
      "ch": 1,
      "note": 42,
      "vel": 74,
      "dur": 25
    },
    {
      "t": 753.9,
      "ch": 0,
      "note": 36,
      "vel": 84,
      "dur": 55
    },
    {
      "t": 754,
      "ch": 1,
      "note": 36,
      "vel": 74,
      "dur": 25
    },
    {
      "t": 754,
      "ch": 1,
      "note": 38,
      "vel": 75,
      "dur": 25
    },
    {
      "t": 754.1,
      "ch": 6,
      "note": 63,
      "vel": 17,
      "dur": 636
    },
    {
      "t": 754.2,
      "ch": 1,
      "note": 40,
      "vel": 92,
      "dur": 25
    },
    {
      "t": 754.2,
      "ch": 1,
      "note": 42,
      "vel": 59,
      "dur": 25
    },
    {
      "t": 754.2,
      "ch": 7,
      "note": 48,
      "vel": 62,
      "dur": 80
    },
    {
      "t": 754.2,
      "ch": 7,
      "note": 36,
      "vel": 66,
      "dur": 80
    },
    {
      "t": 754.2,
      "ch": 5,
      "note": 71,
      "vel": 17,
      "dur": 954
    },
    {
      "t": 754.4,
      "ch": 1,
      "note": 36,
      "vel": 90,
      "dur": 25
    },
    {
      "t": 754.4,
      "ch": 1,
      "note": 38,
      "vel": 62,
      "dur": 25
    },
    {
      "t": 754.5,
      "ch": 1,
      "note": 40,
      "vel": 70,
      "dur": 25
    },
    {
      "t": 754.6,
      "ch": 1,
      "note": 42,
      "vel": 85,
      "dur": 25
    },
    {
      "t": 754.6,
      "ch": 7,
      "note": 45,
      "vel": 57,
      "dur": 80
    },
    {
      "t": 754.6,
      "ch": 7,
      "note": 36,
      "vel": 65,
      "dur": 80
    },
    {
      "t": 754.6,
      "ch": 7,
      "note": 38,
      "vel": 56,
      "dur": 80
    },
    {
      "t": 754.6,
      "ch": 5,
      "note": 78,
      "vel": 25,
      "dur": 956
    },
    {
      "t": 754.7,
      "ch": 1,
      "note": 36,
      "vel": 67,
      "dur": 25
    },
    {
      "t": 754.7,
      "ch": 1,
      "note": 38,
      "vel": 65,
      "dur": 25
    },
    {
      "t": 754.8,
      "ch": 5,
      "note": 75,
      "vel": 26,
      "dur": 957
    },
    {
      "t": 754.9,
      "ch": 1,
      "note": 40,
      "vel": 80,
      "dur": 25
    },
    {
      "t": 754.9,
      "ch": 1,
      "note": 42,
      "vel": 91,
      "dur": 25
    },
    {
      "t": 754.9,
      "ch": 7,
      "note": 48,
      "vel": 72,
      "dur": 80
    },
    {
      "t": 754.9,
      "ch": 7,
      "note": 36,
      "vel": 50,
      "dur": 80
    },
    {
      "t": 754.9,
      "ch": 5,
      "note": 70,
      "vel": 19,
      "dur": 959
    },
    {
      "t": 755.1,
      "ch": 1,
      "note": 36,
      "vel": 91,
      "dur": 25
    },
    {
      "t": 755.1,
      "ch": 1,
      "note": 38,
      "vel": 91,
      "dur": 25
    },
    {
      "t": 755.2,
      "ch": 1,
      "note": 40,
      "vel": 97,
      "dur": 25
    },
    {
      "t": 755.3,
      "ch": 1,
      "note": 42,
      "vel": 65,
      "dur": 25
    },
    {
      "t": 755.3,
      "ch": 0,
      "note": 36,
      "vel": 79,
      "dur": 55
    },
    {
      "t": 755.4,
      "ch": 1,
      "note": 36,
      "vel": 75,
      "dur": 25
    },
    {
      "t": 755.4,
      "ch": 1,
      "note": 38,
      "vel": 71,
      "dur": 25
    },
    {
      "t": 755.5,
      "ch": 5,
      "note": 63,
      "vel": 29,
      "dur": 962
    },
    {
      "t": 755.6,
      "ch": 1,
      "note": 40,
      "vel": 90,
      "dur": 25
    },
    {
      "t": 755.6,
      "ch": 0,
      "note": 36,
      "vel": 108,
      "dur": 55
    },
    {
      "t": 755.6,
      "ch": 1,
      "note": 42,
      "vel": 84,
      "dur": 25
    },
    {
      "t": 755.6,
      "ch": 7,
      "note": 48,
      "vel": 64,
      "dur": 80
    },
    {
      "t": 755.6,
      "ch": 7,
      "note": 45,
      "vel": 61,
      "dur": 80
    },
    {
      "t": 755.6,
      "ch": 7,
      "note": 36,
      "vel": 75,
      "dur": 80
    },
    {
      "t": 755.6,
      "ch": 7,
      "note": 38,
      "vel": 71,
      "dur": 80
    },
    {
      "t": 755.8,
      "ch": 1,
      "note": 36,
      "vel": 85,
      "dur": 25
    },
    {
      "t": 755.8,
      "ch": 1,
      "note": 38,
      "vel": 78,
      "dur": 25
    },
    {
      "t": 755.9,
      "ch": 1,
      "note": 40,
      "vel": 71,
      "dur": 25
    },
    {
      "t": 756,
      "ch": 1,
      "note": 42,
      "vel": 63,
      "dur": 25
    },
    {
      "t": 756,
      "ch": 7,
      "note": 36,
      "vel": 64,
      "dur": 80
    },
    {
      "t": 756.1,
      "ch": 1,
      "note": 36,
      "vel": 81,
      "dur": 25
    },
    {
      "t": 756.1,
      "ch": 1,
      "note": 38,
      "vel": 78,
      "dur": 25
    },
    {
      "t": 756.3,
      "ch": 1,
      "note": 40,
      "vel": 83,
      "dur": 25
    },
    {
      "t": 756.3,
      "ch": 1,
      "note": 42,
      "vel": 75,
      "dur": 25
    },
    {
      "t": 756.3,
      "ch": 7,
      "note": 48,
      "vel": 83,
      "dur": 80
    },
    {
      "t": 756.3,
      "ch": 7,
      "note": 36,
      "vel": 67,
      "dur": 80
    },
    {
      "t": 756.5,
      "ch": 1,
      "note": 36,
      "vel": 76,
      "dur": 25
    },
    {
      "t": 756.5,
      "ch": 1,
      "note": 38,
      "vel": 65,
      "dur": 25
    },
    {
      "t": 756.5,
      "ch": 7,
      "note": 45,
      "vel": 66,
      "dur": 80
    },
    {
      "t": 756.5,
      "ch": 7,
      "note": 38,
      "vel": 73,
      "dur": 80
    },
    {
      "t": 756.6,
      "ch": 1,
      "note": 40,
      "vel": 85,
      "dur": 25
    },
    {
      "t": 756.7,
      "ch": 1,
      "note": 42,
      "vel": 51,
      "dur": 25
    },
    {
      "t": 756.7,
      "ch": 0,
      "note": 36,
      "vel": 83,
      "dur": 55
    },
    {
      "t": 756.8,
      "ch": 1,
      "note": 36,
      "vel": 93,
      "dur": 25
    },
    {
      "t": 756.8,
      "ch": 1,
      "note": 38,
      "vel": 68,
      "dur": 25
    },
    {
      "t": 757,
      "ch": 1,
      "note": 40,
      "vel": 80,
      "dur": 25
    },
    {
      "t": 757,
      "ch": 1,
      "note": 42,
      "vel": 87,
      "dur": 25
    },
    {
      "t": 757,
      "ch": 7,
      "note": 48,
      "vel": 70,
      "dur": 80
    },
    {
      "t": 757,
      "ch": 7,
      "note": 36,
      "vel": 57,
      "dur": 80
    },
    {
      "t": 757.2,
      "ch": 1,
      "note": 36,
      "vel": 74,
      "dur": 25
    },
    {
      "t": 757.2,
      "ch": 1,
      "note": 38,
      "vel": 62,
      "dur": 25
    },
    {
      "t": 757.3,
      "ch": 1,
      "note": 40,
      "vel": 94,
      "dur": 25
    },
    {
      "t": 757.4,
      "ch": 1,
      "note": 42,
      "vel": 81,
      "dur": 25
    },
    {
      "t": 757.4,
      "ch": 7,
      "note": 45,
      "vel": 67,
      "dur": 80
    },
    {
      "t": 757.4,
      "ch": 7,
      "note": 36,
      "vel": 67,
      "dur": 80
    },
    {
      "t": 757.4,
      "ch": 7,
      "note": 38,
      "vel": 56,
      "dur": 80
    },
    {
      "t": 757.5,
      "ch": 1,
      "note": 36,
      "vel": 67,
      "dur": 25
    },
    {
      "t": 757.5,
      "ch": 1,
      "note": 38,
      "vel": 73,
      "dur": 25
    },
    {
      "t": 757.7,
      "ch": 1,
      "note": 40,
      "vel": 64,
      "dur": 25
    },
    {
      "t": 757.7,
      "ch": 1,
      "note": 42,
      "vel": 106,
      "dur": 25
    },
    {
      "t": 757.7,
      "ch": 7,
      "note": 48,
      "vel": 68,
      "dur": 80
    },
    {
      "t": 757.7,
      "ch": 7,
      "note": 36,
      "vel": 75,
      "dur": 80
    },
    {
      "t": 757.9,
      "ch": 1,
      "note": 36,
      "vel": 77,
      "dur": 25
    },
    {
      "t": 757.9,
      "ch": 1,
      "note": 38,
      "vel": 78,
      "dur": 25
    },
    {
      "t": 758,
      "ch": 1,
      "note": 40,
      "vel": 68,
      "dur": 25
    },
    {
      "t": 758.1,
      "ch": 1,
      "note": 42,
      "vel": 65,
      "dur": 25
    },
    {
      "t": 758.1,
      "ch": 0,
      "note": 36,
      "vel": 82,
      "dur": 55
    },
    {
      "t": 758.2,
      "ch": 1,
      "note": 36,
      "vel": 84,
      "dur": 25
    },
    {
      "t": 758.2,
      "ch": 1,
      "note": 38,
      "vel": 77,
      "dur": 25
    },
    {
      "t": 758.4,
      "ch": 1,
      "note": 40,
      "vel": 70,
      "dur": 25
    },
    {
      "t": 758.4,
      "ch": 7,
      "note": 48,
      "vel": 66,
      "dur": 80
    },
    {
      "t": 758.4,
      "ch": 7,
      "note": 45,
      "vel": 75,
      "dur": 80
    },
    {
      "t": 758.4,
      "ch": 7,
      "note": 36,
      "vel": 75,
      "dur": 80
    },
    {
      "t": 758.4,
      "ch": 7,
      "note": 38,
      "vel": 83,
      "dur": 80
    },
    {
      "t": 758.8,
      "ch": 7,
      "note": 36,
      "vel": 59,
      "dur": 80
    },
    {
      "t": 759.1,
      "ch": 7,
      "note": 48,
      "vel": 66,
      "dur": 80
    },
    {
      "t": 759.1,
      "ch": 7,
      "note": 36,
      "vel": 66,
      "dur": 80
    },
    {
      "t": 759.3,
      "ch": 7,
      "note": 45,
      "vel": 56,
      "dur": 80
    },
    {
      "t": 759.3,
      "ch": 7,
      "note": 38,
      "vel": 59,
      "dur": 80
    },
    {
      "t": 759.7,
      "ch": 2,
      "note": 58,
      "vel": 54,
      "dur": 20930
    },
    {
      "t": 759.8,
      "ch": 7,
      "note": 48,
      "vel": 68,
      "dur": 80
    },
    {
      "t": 759.8,
      "ch": 7,
      "note": 36,
      "vel": 65,
      "dur": 80
    },
    {
      "t": 760,
      "ch": 5,
      "note": 73,
      "vel": 8,
      "dur": 980
    },
    {
      "t": 760.2,
      "ch": 7,
      "note": 45,
      "vel": 65,
      "dur": 80
    },
    {
      "t": 760.2,
      "ch": 7,
      "note": 36,
      "vel": 65,
      "dur": 80
    },
    {
      "t": 760.2,
      "ch": 7,
      "note": 38,
      "vel": 61,
      "dur": 80
    },
    {
      "t": 760.5,
      "ch": 7,
      "note": 48,
      "vel": 63,
      "dur": 80
    },
    {
      "t": 760.5,
      "ch": 7,
      "note": 36,
      "vel": 60,
      "dur": 80
    },
    {
      "t": 761.2,
      "ch": 7,
      "note": 48,
      "vel": 63,
      "dur": 80
    },
    {
      "t": 761.2,
      "ch": 7,
      "note": 45,
      "vel": 67,
      "dur": 80
    },
    {
      "t": 761.2,
      "ch": 7,
      "note": 36,
      "vel": 83,
      "dur": 80
    },
    {
      "t": 761.2,
      "ch": 7,
      "note": 38,
      "vel": 67,
      "dur": 80
    },
    {
      "t": 761.6,
      "ch": 7,
      "note": 36,
      "vel": 65,
      "dur": 80
    },
    {
      "t": 761.9,
      "ch": 7,
      "note": 48,
      "vel": 67,
      "dur": 80
    },
    {
      "t": 761.9,
      "ch": 7,
      "note": 36,
      "vel": 64,
      "dur": 80
    },
    {
      "t": 762.1,
      "ch": 7,
      "note": 45,
      "vel": 61,
      "dur": 80
    },
    {
      "t": 762.1,
      "ch": 7,
      "note": 38,
      "vel": 65,
      "dur": 80
    },
    {
      "t": 762.5,
      "ch": 4,
      "note": 65,
      "vel": 39,
      "dur": 5531
    },
    {
      "t": 762.5,
      "ch": 4,
      "note": 68,
      "vel": 56,
      "dur": 5531
    },
    {
      "t": 762.6,
      "ch": 7,
      "note": 48,
      "vel": 77,
      "dur": 80
    },
    {
      "t": 762.6,
      "ch": 7,
      "note": 36,
      "vel": 61,
      "dur": 80
    },
    {
      "t": 762.6,
      "ch": 5,
      "note": 82,
      "vel": 17,
      "dur": 977
    },
    {
      "t": 762.8,
      "ch": 5,
      "note": 73,
      "vel": 12,
      "dur": 977
    },
    {
      "t": 763,
      "ch": 7,
      "note": 45,
      "vel": 55,
      "dur": 80
    },
    {
      "t": 763,
      "ch": 7,
      "note": 36,
      "vel": 54,
      "dur": 80
    },
    {
      "t": 763,
      "ch": 7,
      "note": 38,
      "vel": 57,
      "dur": 80
    },
    {
      "t": 763.3,
      "ch": 7,
      "note": 48,
      "vel": 62,
      "dur": 80
    },
    {
      "t": 763.3,
      "ch": 7,
      "note": 36,
      "vel": 64,
      "dur": 80
    },
    {
      "t": 764,
      "ch": 7,
      "note": 48,
      "vel": 72,
      "dur": 80
    },
    {
      "t": 764,
      "ch": 7,
      "note": 45,
      "vel": 74,
      "dur": 80
    },
    {
      "t": 764,
      "ch": 7,
      "note": 36,
      "vel": 69,
      "dur": 80
    },
    {
      "t": 764,
      "ch": 7,
      "note": 38,
      "vel": 67,
      "dur": 80
    },
    {
      "t": 764.3,
      "ch": 7,
      "note": 36,
      "vel": 56,
      "dur": 80
    },
    {
      "t": 764.7,
      "ch": 7,
      "note": 48,
      "vel": 71,
      "dur": 80
    },
    {
      "t": 764.7,
      "ch": 7,
      "note": 36,
      "vel": 77,
      "dur": 80
    },
    {
      "t": 764.9,
      "ch": 7,
      "note": 45,
      "vel": 75,
      "dur": 80
    },
    {
      "t": 764.9,
      "ch": 7,
      "note": 38,
      "vel": 43,
      "dur": 80
    },
    {
      "t": 764.9,
      "ch": 6,
      "note": 59,
      "vel": 17,
      "dur": 644
    },
    {
      "t": 765.4,
      "ch": 7,
      "note": 48,
      "vel": 62,
      "dur": 80
    },
    {
      "t": 765.4,
      "ch": 7,
      "note": 36,
      "vel": 77,
      "dur": 80
    },
    {
      "t": 765.7,
      "ch": 7,
      "note": 45,
      "vel": 59,
      "dur": 80
    },
    {
      "t": 765.7,
      "ch": 7,
      "note": 38,
      "vel": 55,
      "dur": 80
    },
    {
      "t": 765.7,
      "ch": 7,
      "note": 36,
      "vel": 73,
      "dur": 80
    },
    {
      "t": 766.1,
      "ch": 7,
      "note": 48,
      "vel": 66,
      "dur": 80
    },
    {
      "t": 766.1,
      "ch": 7,
      "note": 36,
      "vel": 67,
      "dur": 80
    },
    {
      "t": 766.8,
      "ch": 7,
      "note": 48,
      "vel": 71,
      "dur": 80
    },
    {
      "t": 766.8,
      "ch": 7,
      "note": 45,
      "vel": 71,
      "dur": 80
    },
    {
      "t": 766.8,
      "ch": 7,
      "note": 36,
      "vel": 75,
      "dur": 80
    },
    {
      "t": 766.8,
      "ch": 7,
      "note": 38,
      "vel": 74,
      "dur": 80
    },
    {
      "t": 767.2,
      "ch": 7,
      "note": 36,
      "vel": 55,
      "dur": 80
    },
    {
      "t": 767.5,
      "ch": 7,
      "note": 48,
      "vel": 70,
      "dur": 80
    },
    {
      "t": 767.5,
      "ch": 7,
      "note": 36,
      "vel": 79,
      "dur": 80
    },
    {
      "t": 767.7,
      "ch": 7,
      "note": 45,
      "vel": 66,
      "dur": 80
    },
    {
      "t": 767.7,
      "ch": 7,
      "note": 38,
      "vel": 49,
      "dur": 80
    },
    {
      "t": 767.8,
      "ch": 5,
      "note": 70,
      "vel": 14,
      "dur": 948
    },
    {
      "t": 768.1,
      "ch": 4,
      "note": 64,
      "vel": 41,
      "dur": 2790
    },
    {
      "t": 768.1,
      "ch": 4,
      "note": 63,
      "vel": 45,
      "dur": 2740
    },
    {
      "t": 768.1,
      "ch": 4,
      "note": 68,
      "vel": 60,
      "dur": 5531
    },
    {
      "t": 768.2,
      "ch": 7,
      "note": 48,
      "vel": 78,
      "dur": 80
    },
    {
      "t": 768.2,
      "ch": 7,
      "note": 36,
      "vel": 58,
      "dur": 80
    },
    {
      "t": 768.5,
      "ch": 7,
      "note": 45,
      "vel": 62,
      "dur": 80
    },
    {
      "t": 768.5,
      "ch": 7,
      "note": 36,
      "vel": 63,
      "dur": 80
    },
    {
      "t": 768.5,
      "ch": 7,
      "note": 38,
      "vel": 54,
      "dur": 80
    },
    {
      "t": 768.9,
      "ch": 7,
      "note": 48,
      "vel": 69,
      "dur": 80
    },
    {
      "t": 768.9,
      "ch": 7,
      "note": 36,
      "vel": 63,
      "dur": 80
    },
    {
      "t": 769.4,
      "ch": 5,
      "note": 63,
      "vel": 27,
      "dur": 940
    },
    {
      "t": 769.6,
      "ch": 0,
      "note": 36,
      "vel": 127,
      "dur": 55
    },
    {
      "t": 769.6,
      "ch": 7,
      "note": 48,
      "vel": 72,
      "dur": 80
    },
    {
      "t": 769.6,
      "ch": 7,
      "note": 45,
      "vel": 64,
      "dur": 80
    },
    {
      "t": 769.6,
      "ch": 7,
      "note": 36,
      "vel": 76,
      "dur": 80
    },
    {
      "t": 769.6,
      "ch": 7,
      "note": 38,
      "vel": 80,
      "dur": 80
    },
    {
      "t": 769.9,
      "ch": 7,
      "note": 36,
      "vel": 69,
      "dur": 80
    },
    {
      "t": 770.1,
      "ch": 6,
      "note": 58,
      "vel": 8,
      "dur": 625
    },
    {
      "t": 770.3,
      "ch": 7,
      "note": 48,
      "vel": 71,
      "dur": 80
    },
    {
      "t": 770.3,
      "ch": 7,
      "note": 36,
      "vel": 68,
      "dur": 80
    },
    {
      "t": 770.4,
      "ch": 7,
      "note": 45,
      "vel": 56,
      "dur": 80
    },
    {
      "t": 770.4,
      "ch": 7,
      "note": 38,
      "vel": 59,
      "dur": 80
    },
    {
      "t": 770.6,
      "ch": 0,
      "note": 36,
      "vel": 79,
      "dur": 55
    },
    {
      "t": 770.9,
      "ch": 2,
      "note": 58,
      "vel": 0,
      "dur": 0
    },
    {
      "t": 770.9,
      "ch": 2,
      "note": 70,
      "vel": 0,
      "dur": 0
    },
    {
      "t": 770.9,
      "ch": 2,
      "note": 56,
      "vel": 56,
      "dur": 20930
    },
    {
      "t": 771,
      "ch": 7,
      "note": 48,
      "vel": 65,
      "dur": 80
    },
    {
      "t": 771,
      "ch": 7,
      "note": 36,
      "vel": 65,
      "dur": 80
    },
    {
      "t": 771.3,
      "ch": 7,
      "note": 45,
      "vel": 57,
      "dur": 80
    },
    {
      "t": 771.3,
      "ch": 7,
      "note": 36,
      "vel": 72,
      "dur": 80
    },
    {
      "t": 771.3,
      "ch": 7,
      "note": 38,
      "vel": 56,
      "dur": 80
    },
    {
      "t": 771.7,
      "ch": 7,
      "note": 48,
      "vel": 71,
      "dur": 80
    },
    {
      "t": 771.7,
      "ch": 7,
      "note": 36,
      "vel": 77,
      "dur": 80
    },
    {
      "t": 772,
      "ch": 0,
      "note": 36,
      "vel": 86,
      "dur": 55
    },
    {
      "t": 772,
      "ch": 5,
      "note": 73,
      "vel": 13,
      "dur": 933
    },
    {
      "t": 772.4,
      "ch": 0,
      "note": 36,
      "vel": 118,
      "dur": 55
    },
    {
      "t": 772.4,
      "ch": 7,
      "note": 48,
      "vel": 81,
      "dur": 80
    },
    {
      "t": 772.4,
      "ch": 7,
      "note": 45,
      "vel": 66,
      "dur": 80
    },
    {
      "t": 772.4,
      "ch": 7,
      "note": 36,
      "vel": 75,
      "dur": 80
    },
    {
      "t": 772.4,
      "ch": 7,
      "note": 38,
      "vel": 70,
      "dur": 80
    },
    {
      "t": 772.7,
      "ch": 7,
      "note": 36,
      "vel": 65,
      "dur": 80
    },
    {
      "t": 773.1,
      "ch": 7,
      "note": 48,
      "vel": 77,
      "dur": 80
    },
    {
      "t": 773.1,
      "ch": 7,
      "note": 36,
      "vel": 75,
      "dur": 80
    },
    {
      "t": 773.2,
      "ch": 7,
      "note": 45,
      "vel": 62,
      "dur": 80
    },
    {
      "t": 773.2,
      "ch": 7,
      "note": 38,
      "vel": 61,
      "dur": 80
    },
    {
      "t": 773.4,
      "ch": 0,
      "note": 36,
      "vel": 76,
      "dur": 55
    },
    {
      "t": 773.7,
      "ch": 4,
      "note": 63,
      "vel": 46,
      "dur": 5531
    },
    {
      "t": 773.7,
      "ch": 4,
      "note": 70,
      "vel": 48,
      "dur": 5531
    },
    {
      "t": 773.7,
      "ch": 3,
      "note": 46,
      "vel": 49,
      "dur": 5581
    },
    {
      "t": 773.7,
      "ch": 7,
      "note": 48,
      "vel": 75,
      "dur": 80
    },
    {
      "t": 773.7,
      "ch": 7,
      "note": 36,
      "vel": 71,
      "dur": 80
    },
    {
      "t": 774.1,
      "ch": 7,
      "note": 45,
      "vel": 69,
      "dur": 80
    },
    {
      "t": 774.1,
      "ch": 7,
      "note": 36,
      "vel": 66,
      "dur": 80
    },
    {
      "t": 774.1,
      "ch": 7,
      "note": 38,
      "vel": 50,
      "dur": 80
    },
    {
      "t": 774.4,
      "ch": 7,
      "note": 48,
      "vel": 71,
      "dur": 80
    },
    {
      "t": 774.4,
      "ch": 7,
      "note": 36,
      "vel": 71,
      "dur": 80
    },
    {
      "t": 774.8,
      "ch": 0,
      "note": 36,
      "vel": 85,
      "dur": 55
    },
    {
      "t": 775.1,
      "ch": 0,
      "note": 36,
      "vel": 117,
      "dur": 55
    },
    {
      "t": 775.1,
      "ch": 7,
      "note": 48,
      "vel": 83,
      "dur": 80
    },
    {
      "t": 775.1,
      "ch": 7,
      "note": 45,
      "vel": 76,
      "dur": 80
    },
    {
      "t": 775.1,
      "ch": 7,
      "note": 36,
      "vel": 63,
      "dur": 80
    },
    {
      "t": 775.1,
      "ch": 7,
      "note": 38,
      "vel": 61,
      "dur": 80
    },
    {
      "t": 775.5,
      "ch": 7,
      "note": 36,
      "vel": 66,
      "dur": 80
    },
    {
      "t": 775.8,
      "ch": 7,
      "note": 48,
      "vel": 80,
      "dur": 80
    },
    {
      "t": 775.8,
      "ch": 7,
      "note": 36,
      "vel": 77,
      "dur": 80
    },
    {
      "t": 776,
      "ch": 7,
      "note": 45,
      "vel": 63,
      "dur": 80
    },
    {
      "t": 776,
      "ch": 7,
      "note": 38,
      "vel": 48,
      "dur": 80
    },
    {
      "t": 776.2,
      "ch": 0,
      "note": 36,
      "vel": 75,
      "dur": 55
    },
    {
      "t": 776.5,
      "ch": 7,
      "note": 48,
      "vel": 56,
      "dur": 80
    },
    {
      "t": 776.5,
      "ch": 7,
      "note": 36,
      "vel": 61,
      "dur": 80
    },
    {
      "t": 776.9,
      "ch": 7,
      "note": 45,
      "vel": 71,
      "dur": 80
    },
    {
      "t": 776.9,
      "ch": 7,
      "note": 36,
      "vel": 60,
      "dur": 80
    },
    {
      "t": 776.9,
      "ch": 7,
      "note": 38,
      "vel": 54,
      "dur": 80
    },
    {
      "t": 777.2,
      "ch": 7,
      "note": 48,
      "vel": 75,
      "dur": 80
    },
    {
      "t": 777.2,
      "ch": 7,
      "note": 36,
      "vel": 72,
      "dur": 80
    },
    {
      "t": 777.4,
      "ch": 5,
      "note": 82,
      "vel": 9,
      "dur": 952
    },
    {
      "t": 777.6,
      "ch": 0,
      "note": 36,
      "vel": 80,
      "dur": 55
    },
    {
      "t": 777.9,
      "ch": 0,
      "note": 36,
      "vel": 116,
      "dur": 55
    },
    {
      "t": 777.9,
      "ch": 7,
      "note": 48,
      "vel": 71,
      "dur": 80
    },
    {
      "t": 777.9,
      "ch": 7,
      "note": 45,
      "vel": 76,
      "dur": 80
    },
    {
      "t": 777.9,
      "ch": 7,
      "note": 36,
      "vel": 78,
      "dur": 80
    },
    {
      "t": 777.9,
      "ch": 7,
      "note": 38,
      "vel": 72,
      "dur": 80
    },
    {
      "t": 778.3,
      "ch": 7,
      "note": 36,
      "vel": 66,
      "dur": 80
    },
    {
      "t": 778.6,
      "ch": 7,
      "note": 48,
      "vel": 64,
      "dur": 80
    },
    {
      "t": 778.6,
      "ch": 7,
      "note": 36,
      "vel": 80,
      "dur": 80
    },
    {
      "t": 778.8,
      "ch": 7,
      "note": 45,
      "vel": 58,
      "dur": 80
    },
    {
      "t": 778.8,
      "ch": 7,
      "note": 38,
      "vel": 64,
      "dur": 80
    },
    {
      "t": 779,
      "ch": 0,
      "note": 36,
      "vel": 75,
      "dur": 55
    },
    {
      "t": 779,
      "ch": 5,
      "note": 73,
      "vel": 22,
      "dur": 961
    },
    {
      "t": 779.2,
      "ch": 4,
      "note": 63,
      "vel": 42,
      "dur": 5531
    },
    {
      "t": 779.2,
      "ch": 4,
      "note": 70,
      "vel": 43,
      "dur": 5531
    },
    {
      "t": 779.2,
      "ch": 3,
      "note": 46,
      "vel": 45,
      "dur": 5581
    },
    {
      "t": 779.3,
      "ch": 7,
      "note": 48,
      "vel": 63,
      "dur": 80
    },
    {
      "t": 779.3,
      "ch": 7,
      "note": 36,
      "vel": 75,
      "dur": 80
    },
    {
      "t": 779.7,
      "ch": 7,
      "note": 45,
      "vel": 67,
      "dur": 80
    },
    {
      "t": 779.7,
      "ch": 7,
      "note": 36,
      "vel": 70,
      "dur": 80
    },
    {
      "t": 779.7,
      "ch": 7,
      "note": 38,
      "vel": 64,
      "dur": 80
    },
    {
      "t": 780,
      "ch": 7,
      "note": 48,
      "vel": 59,
      "dur": 80
    },
    {
      "t": 780,
      "ch": 7,
      "note": 36,
      "vel": 84,
      "dur": 80
    },
    {
      "t": 780.4,
      "ch": 0,
      "note": 36,
      "vel": 87,
      "dur": 55
    },
    {
      "t": 780.7,
      "ch": 0,
      "note": 36,
      "vel": 107,
      "dur": 55
    },
    {
      "t": 780.7,
      "ch": 7,
      "note": 48,
      "vel": 67,
      "dur": 80
    },
    {
      "t": 780.7,
      "ch": 7,
      "note": 45,
      "vel": 69,
      "dur": 80
    },
    {
      "t": 780.7,
      "ch": 7,
      "note": 36,
      "vel": 77,
      "dur": 80
    },
    {
      "t": 780.7,
      "ch": 7,
      "note": 38,
      "vel": 76,
      "dur": 80
    },
    {
      "t": 781.1,
      "ch": 7,
      "note": 36,
      "vel": 71,
      "dur": 80
    },
    {
      "t": 781.4,
      "ch": 7,
      "note": 48,
      "vel": 65,
      "dur": 80
    },
    {
      "t": 781.4,
      "ch": 7,
      "note": 36,
      "vel": 69,
      "dur": 80
    },
    {
      "t": 781.6,
      "ch": 7,
      "note": 38,
      "vel": 58,
      "dur": 80
    },
    {
      "t": 781.6,
      "ch": 7,
      "note": 45,
      "vel": 69,
      "dur": 80
    },
    {
      "t": 781.6,
      "ch": 6,
      "note": 58,
      "vel": 60,
      "dur": 800
    },
    {
      "t": 781.8,
      "ch": 0,
      "note": 36,
      "vel": 77,
      "dur": 55
    },
    {
      "t": 782,
      "ch": 2,
      "note": 56,
      "vel": 0,
      "dur": 0
    },
    {
      "t": 782,
      "ch": 2,
      "note": 58,
      "vel": 55,
      "dur": 20930
    },
    {
      "t": 782,
      "ch": 2,
      "note": 70,
      "vel": 39,
      "dur": 20930
    },
    {
      "t": 782.1,
      "ch": 7,
      "note": 48,
      "vel": 74,
      "dur": 80
    },
    {
      "t": 782.1,
      "ch": 7,
      "note": 36,
      "vel": 63,
      "dur": 80
    },
    {
      "t": 782.5,
      "ch": 7,
      "note": 45,
      "vel": 67,
      "dur": 80
    },
    {
      "t": 782.5,
      "ch": 7,
      "note": 36,
      "vel": 66,
      "dur": 80
    },
    {
      "t": 782.5,
      "ch": 7,
      "note": 38,
      "vel": 66,
      "dur": 80
    },
    {
      "t": 782.8,
      "ch": 7,
      "note": 48,
      "vel": 69,
      "dur": 80
    },
    {
      "t": 782.8,
      "ch": 7,
      "note": 36,
      "vel": 56,
      "dur": 80
    },
    {
      "t": 783,
      "ch": 6,
      "note": 65,
      "vel": 60,
      "dur": 800
    },
    {
      "t": 783.2,
      "ch": 0,
      "note": 36,
      "vel": 88,
      "dur": 55
    },
    {
      "t": 783.2,
      "ch": 5,
      "note": 70,
      "vel": 24,
      "dur": 976
    },
    {
      "t": 783.4,
      "ch": 0,
      "note": 36,
      "vel": 74,
      "dur": 55
    },
    {
      "t": 783.4,
      "ch": 5,
      "note": 65,
      "vel": 18,
      "dur": 977
    },
    {
      "t": 783.5,
      "ch": 0,
      "note": 36,
      "vel": 110,
      "dur": 55
    },
    {
      "t": 783.5,
      "ch": 7,
      "note": 48,
      "vel": 72,
      "dur": 80
    },
    {
      "t": 783.5,
      "ch": 7,
      "note": 45,
      "vel": 69,
      "dur": 80
    },
    {
      "t": 783.5,
      "ch": 7,
      "note": 36,
      "vel": 77,
      "dur": 80
    },
    {
      "t": 783.5,
      "ch": 7,
      "note": 38,
      "vel": 61,
      "dur": 80
    },
    {
      "t": 783.9,
      "ch": 7,
      "note": 36,
      "vel": 65,
      "dur": 80
    },
    {
      "t": 784.1,
      "ch": 5,
      "note": 73,
      "vel": 5,
      "dur": 976
    },
    {
      "t": 784.2,
      "ch": 7,
      "note": 48,
      "vel": 62,
      "dur": 80
    },
    {
      "t": 784.2,
      "ch": 7,
      "note": 36,
      "vel": 68,
      "dur": 80
    },
    {
      "t": 784.4,
      "ch": 7,
      "note": 45,
      "vel": 65,
      "dur": 80
    },
    {
      "t": 784.4,
      "ch": 7,
      "note": 38,
      "vel": 58,
      "dur": 80
    },
    {
      "t": 784.4,
      "ch": 6,
      "note": 66,
      "vel": 60,
      "dur": 800
    },
    {
      "t": 784.6,
      "ch": 0,
      "note": 36,
      "vel": 79,
      "dur": 55
    },
    {
      "t": 784.8,
      "ch": 4,
      "note": 63,
      "vel": 43,
      "dur": 5531
    },
    {
      "t": 784.8,
      "ch": 4,
      "note": 65,
      "vel": 43,
      "dur": 5531
    },
    {
      "t": 784.8,
      "ch": 3,
      "note": 39,
      "vel": 44,
      "dur": 5581
    },
    {
      "t": 784.9,
      "ch": 7,
      "note": 48,
      "vel": 55,
      "dur": 80
    },
    {
      "t": 784.9,
      "ch": 7,
      "note": 36,
      "vel": 80,
      "dur": 80
    },
    {
      "t": 785.3,
      "ch": 7,
      "note": 45,
      "vel": 65,
      "dur": 80
    },
    {
      "t": 785.3,
      "ch": 7,
      "note": 36,
      "vel": 64,
      "dur": 80
    },
    {
      "t": 785.3,
      "ch": 7,
      "note": 38,
      "vel": 65,
      "dur": 80
    },
    {
      "t": 785.6,
      "ch": 7,
      "note": 48,
      "vel": 71,
      "dur": 80
    },
    {
      "t": 785.6,
      "ch": 7,
      "note": 36,
      "vel": 78,
      "dur": 80
    },
    {
      "t": 785.8,
      "ch": 6,
      "note": 75,
      "vel": 60,
      "dur": 800
    },
    {
      "t": 786,
      "ch": 0,
      "note": 36,
      "vel": 78,
      "dur": 55
    },
    {
      "t": 786.3,
      "ch": 0,
      "note": 36,
      "vel": 117,
      "dur": 55
    },
    {
      "t": 786.3,
      "ch": 7,
      "note": 48,
      "vel": 72,
      "dur": 80
    },
    {
      "t": 786.3,
      "ch": 7,
      "note": 45,
      "vel": 73,
      "dur": 80
    },
    {
      "t": 786.3,
      "ch": 7,
      "note": 36,
      "vel": 87,
      "dur": 80
    },
    {
      "t": 786.3,
      "ch": 7,
      "note": 38,
      "vel": 68,
      "dur": 80
    },
    {
      "t": 786.7,
      "ch": 7,
      "note": 36,
      "vel": 47,
      "dur": 80
    },
    {
      "t": 787,
      "ch": 7,
      "note": 48,
      "vel": 72,
      "dur": 80
    },
    {
      "t": 787,
      "ch": 7,
      "note": 36,
      "vel": 53,
      "dur": 80
    },
    {
      "t": 787.2,
      "ch": 7,
      "note": 45,
      "vel": 58,
      "dur": 80
    },
    {
      "t": 787.2,
      "ch": 7,
      "note": 38,
      "vel": 56,
      "dur": 80
    },
    {
      "t": 787.2,
      "ch": 6,
      "note": 71,
      "vel": 60,
      "dur": 800
    },
    {
      "t": 787.4,
      "ch": 0,
      "note": 36,
      "vel": 72,
      "dur": 55
    },
    {
      "t": 787.7,
      "ch": 7,
      "note": 48,
      "vel": 84,
      "dur": 80
    },
    {
      "t": 787.7,
      "ch": 7,
      "note": 36,
      "vel": 68,
      "dur": 80
    },
    {
      "t": 788.1,
      "ch": 7,
      "note": 45,
      "vel": 65,
      "dur": 80
    },
    {
      "t": 788.1,
      "ch": 7,
      "note": 36,
      "vel": 70,
      "dur": 80
    },
    {
      "t": 788.1,
      "ch": 7,
      "note": 38,
      "vel": 79,
      "dur": 80
    },
    {
      "t": 788.4,
      "ch": 7,
      "note": 48,
      "vel": 60,
      "dur": 80
    },
    {
      "t": 788.4,
      "ch": 7,
      "note": 36,
      "vel": 76,
      "dur": 80
    },
    {
      "t": 788.8,
      "ch": 0,
      "note": 36,
      "vel": 75,
      "dur": 55
    },
    {
      "t": 789.1,
      "ch": 0,
      "note": 36,
      "vel": 115,
      "dur": 55
    },
    {
      "t": 789.1,
      "ch": 7,
      "note": 48,
      "vel": 70,
      "dur": 80
    },
    {
      "t": 789.1,
      "ch": 7,
      "note": 45,
      "vel": 65,
      "dur": 80
    },
    {
      "t": 789.1,
      "ch": 7,
      "note": 36,
      "vel": 57,
      "dur": 80
    },
    {
      "t": 789.1,
      "ch": 7,
      "note": 38,
      "vel": 66,
      "dur": 80
    },
    {
      "t": 789.3,
      "ch": 6,
      "note": 68,
      "vel": 40,
      "dur": 636
    },
    {
      "t": 789.5,
      "ch": 7,
      "note": 36,
      "vel": 50,
      "dur": 80
    },
    {
      "t": 789.8,
      "ch": 7,
      "note": 48,
      "vel": 69,
      "dur": 80
    },
    {
      "t": 789.8,
      "ch": 7,
      "note": 36,
      "vel": 67,
      "dur": 80
    },
    {
      "t": 790,
      "ch": 7,
      "note": 45,
      "vel": 59,
      "dur": 80
    },
    {
      "t": 790,
      "ch": 7,
      "note": 38,
      "vel": 61,
      "dur": 80
    },
    {
      "t": 790.2,
      "ch": 0,
      "note": 36,
      "vel": 82,
      "dur": 55
    },
    {
      "t": 790.4,
      "ch": 4,
      "note": 63,
      "vel": 47,
      "dur": 5531
    },
    {
      "t": 790.4,
      "ch": 4,
      "note": 65,
      "vel": 47,
      "dur": 5531
    },
    {
      "t": 790.4,
      "ch": 3,
      "note": 53,
      "vel": 49,
      "dur": 5581
    },
    {
      "t": 790.5,
      "ch": 7,
      "note": 48,
      "vel": 68,
      "dur": 80
    },
    {
      "t": 790.5,
      "ch": 7,
      "note": 36,
      "vel": 56,
      "dur": 80
    },
    {
      "t": 790.9,
      "ch": 7,
      "note": 45,
      "vel": 65,
      "dur": 80
    },
    {
      "t": 790.9,
      "ch": 7,
      "note": 36,
      "vel": 60,
      "dur": 80
    },
    {
      "t": 790.9,
      "ch": 7,
      "note": 38,
      "vel": 67,
      "dur": 80
    },
    {
      "t": 791.2,
      "ch": 7,
      "note": 48,
      "vel": 64,
      "dur": 80
    },
    {
      "t": 791.2,
      "ch": 7,
      "note": 36,
      "vel": 68,
      "dur": 80
    },
    {
      "t": 791.6,
      "ch": 0,
      "note": 36,
      "vel": 75,
      "dur": 55
    },
    {
      "t": 791.9,
      "ch": 0,
      "note": 36,
      "vel": 106,
      "dur": 55
    },
    {
      "t": 791.9,
      "ch": 7,
      "note": 48,
      "vel": 57,
      "dur": 80
    },
    {
      "t": 791.9,
      "ch": 7,
      "note": 45,
      "vel": 72,
      "dur": 80
    },
    {
      "t": 791.9,
      "ch": 7,
      "note": 36,
      "vel": 75,
      "dur": 80
    },
    {
      "t": 791.9,
      "ch": 7,
      "note": 38,
      "vel": 73,
      "dur": 80
    },
    {
      "t": 792.2,
      "ch": 7,
      "note": 36,
      "vel": 62,
      "dur": 80
    },
    {
      "t": 792.6,
      "ch": 7,
      "note": 48,
      "vel": 72,
      "dur": 80
    },
    {
      "t": 792.6,
      "ch": 7,
      "note": 36,
      "vel": 79,
      "dur": 80
    },
    {
      "t": 792.8,
      "ch": 7,
      "note": 45,
      "vel": 70,
      "dur": 80
    },
    {
      "t": 792.8,
      "ch": 7,
      "note": 38,
      "vel": 66,
      "dur": 80
    },
    {
      "t": 793,
      "ch": 0,
      "note": 36,
      "vel": 78,
      "dur": 55
    },
    {
      "t": 793.2,
      "ch": 2,
      "note": 58,
      "vel": 57,
      "dur": 20930
    },
    {
      "t": 793.2,
      "ch": 4,
      "note": 63,
      "vel": 50,
      "dur": 2740
    },
    {
      "t": 793.2,
      "ch": 4,
      "note": 65,
      "vel": 48,
      "dur": 2740
    },
    {
      "t": 793.2,
      "ch": 3,
      "note": 39,
      "vel": 50,
      "dur": 2790
    },
    {
      "t": 793.3,
      "ch": 7,
      "note": 48,
      "vel": 75,
      "dur": 80
    },
    {
      "t": 793.3,
      "ch": 7,
      "note": 36,
      "vel": 61,
      "dur": 80
    },
    {
      "t": 793.6,
      "ch": 7,
      "note": 45,
      "vel": 69,
      "dur": 80
    },
    {
      "t": 793.6,
      "ch": 7,
      "note": 36,
      "vel": 64,
      "dur": 80
    },
    {
      "t": 793.6,
      "ch": 7,
      "note": 38,
      "vel": 58,
      "dur": 80
    },
    {
      "t": 794,
      "ch": 7,
      "note": 48,
      "vel": 75,
      "dur": 80
    },
    {
      "t": 794,
      "ch": 7,
      "note": 36,
      "vel": 64,
      "dur": 80
    },
    {
      "t": 794.3,
      "ch": 0,
      "note": 36,
      "vel": 85,
      "dur": 55
    },
    {
      "t": 794.5,
      "ch": 0,
      "note": 36,
      "vel": 65,
      "dur": 55
    },
    {
      "t": 794.7,
      "ch": 0,
      "note": 36,
      "vel": 114,
      "dur": 55
    },
    {
      "t": 794.7,
      "ch": 7,
      "note": 48,
      "vel": 64,
      "dur": 80
    },
    {
      "t": 794.7,
      "ch": 7,
      "note": 45,
      "vel": 61,
      "dur": 80
    },
    {
      "t": 794.7,
      "ch": 7,
      "note": 36,
      "vel": 74,
      "dur": 80
    },
    {
      "t": 794.7,
      "ch": 7,
      "note": 38,
      "vel": 71,
      "dur": 80
    },
    {
      "t": 795,
      "ch": 7,
      "note": 36,
      "vel": 54,
      "dur": 80
    },
    {
      "t": 795.4,
      "ch": 7,
      "note": 48,
      "vel": 69,
      "dur": 80
    },
    {
      "t": 795.4,
      "ch": 7,
      "note": 36,
      "vel": 64,
      "dur": 80
    },
    {
      "t": 795.5,
      "ch": 7,
      "note": 38,
      "vel": 62,
      "dur": 80
    },
    {
      "t": 795.6,
      "ch": 7,
      "note": 45,
      "vel": 73,
      "dur": 80
    },
    {
      "t": 795.7,
      "ch": 0,
      "note": 36,
      "vel": 82,
      "dur": 55
    },
    {
      "t": 796,
      "ch": 4,
      "note": 63,
      "vel": 49,
      "dur": 2740
    },
    {
      "t": 796,
      "ch": 4,
      "note": 68,
      "vel": 64,
      "dur": 2740
    },
    {
      "t": 796,
      "ch": 3,
      "note": 44,
      "vel": 66,
      "dur": 2790
    },
    {
      "t": 796.1,
      "ch": 7,
      "note": 48,
      "vel": 65,
      "dur": 80
    },
    {
      "t": 796.1,
      "ch": 7,
      "note": 36,
      "vel": 80,
      "dur": 80
    },
    {
      "t": 796.4,
      "ch": 7,
      "note": 45,
      "vel": 60,
      "dur": 80
    },
    {
      "t": 796.4,
      "ch": 7,
      "note": 36,
      "vel": 59,
      "dur": 80
    },
    {
      "t": 796.4,
      "ch": 7,
      "note": 38,
      "vel": 53,
      "dur": 80
    },
    {
      "t": 796.8,
      "ch": 7,
      "note": 48,
      "vel": 79,
      "dur": 80
    },
    {
      "t": 796.8,
      "ch": 7,
      "note": 36,
      "vel": 82,
      "dur": 80
    },
    {
      "t": 797.1,
      "ch": 0,
      "note": 36,
      "vel": 84,
      "dur": 55
    },
    {
      "t": 797.3,
      "ch": 5,
      "note": 82,
      "vel": 16,
      "dur": 932
    },
    {
      "t": 797.5,
      "ch": 0,
      "note": 36,
      "vel": 117,
      "dur": 55
    },
    {
      "t": 797.5,
      "ch": 7,
      "note": 48,
      "vel": 75,
      "dur": 80
    },
    {
      "t": 797.5,
      "ch": 7,
      "note": 45,
      "vel": 67,
      "dur": 80
    },
    {
      "t": 797.5,
      "ch": 7,
      "note": 36,
      "vel": 70,
      "dur": 80
    },
    {
      "t": 797.5,
      "ch": 7,
      "note": 38,
      "vel": 62,
      "dur": 80
    },
    {
      "t": 797.8,
      "ch": 7,
      "note": 36,
      "vel": 49,
      "dur": 80
    },
    {
      "t": 798.2,
      "ch": 7,
      "note": 48,
      "vel": 82,
      "dur": 80
    },
    {
      "t": 798.2,
      "ch": 7,
      "note": 36,
      "vel": 68,
      "dur": 80
    },
    {
      "t": 798.4,
      "ch": 7,
      "note": 45,
      "vel": 62,
      "dur": 80
    },
    {
      "t": 798.4,
      "ch": 7,
      "note": 38,
      "vel": 66,
      "dur": 80
    },
    {
      "t": 798.5,
      "ch": 0,
      "note": 36,
      "vel": 83,
      "dur": 55
    },
    {
      "t": 798.8,
      "ch": 4,
      "note": 63,
      "vel": 49,
      "dur": 2740
    },
    {
      "t": 798.8,
      "ch": 4,
      "note": 65,
      "vel": 49,
      "dur": 2740
    },
    {
      "t": 798.8,
      "ch": 3,
      "note": 39,
      "vel": 50,
      "dur": 2790
    },
    {
      "t": 798.9,
      "ch": 7,
      "note": 48,
      "vel": 79,
      "dur": 80
    },
    {
      "t": 798.9,
      "ch": 7,
      "note": 36,
      "vel": 64,
      "dur": 80
    },
    {
      "t": 798.9,
      "ch": 5,
      "note": 73,
      "vel": 24,
      "dur": 939
    },
    {
      "t": 799.2,
      "ch": 7,
      "note": 45,
      "vel": 61,
      "dur": 80
    },
    {
      "t": 799.2,
      "ch": 7,
      "note": 36,
      "vel": 73,
      "dur": 80
    },
    {
      "t": 799.2,
      "ch": 7,
      "note": 38,
      "vel": 55,
      "dur": 80
    },
    {
      "t": 799.6,
      "ch": 7,
      "note": 48,
      "vel": 68,
      "dur": 80
    },
    {
      "t": 799.6,
      "ch": 7,
      "note": 36,
      "vel": 57,
      "dur": 80
    },
    {
      "t": 799.9,
      "ch": 0,
      "note": 36,
      "vel": 82,
      "dur": 55
    },
    {
      "t": 800.3,
      "ch": 0,
      "note": 36,
      "vel": 118,
      "dur": 55
    },
    {
      "t": 800.3,
      "ch": 7,
      "note": 48,
      "vel": 61,
      "dur": 80
    },
    {
      "t": 800.3,
      "ch": 7,
      "note": 45,
      "vel": 71,
      "dur": 80
    },
    {
      "t": 800.3,
      "ch": 7,
      "note": 36,
      "vel": 69,
      "dur": 80
    },
    {
      "t": 800.3,
      "ch": 7,
      "note": 38,
      "vel": 68,
      "dur": 80
    },
    {
      "t": 800.6,
      "ch": 7,
      "note": 36,
      "vel": 51,
      "dur": 80
    },
    {
      "t": 801,
      "ch": 7,
      "note": 48,
      "vel": 67,
      "dur": 80
    },
    {
      "t": 801,
      "ch": 7,
      "note": 36,
      "vel": 62,
      "dur": 80
    },
    {
      "t": 801.1,
      "ch": 7,
      "note": 45,
      "vel": 56,
      "dur": 80
    },
    {
      "t": 801.1,
      "ch": 7,
      "note": 38,
      "vel": 51,
      "dur": 80
    },
    {
      "t": 801.3,
      "ch": 0,
      "note": 36,
      "vel": 83,
      "dur": 55
    },
    {
      "t": 801.7,
      "ch": 7,
      "note": 48,
      "vel": 72,
      "dur": 80
    },
    {
      "t": 801.7,
      "ch": 7,
      "note": 36,
      "vel": 67,
      "dur": 80
    },
    {
      "t": 802,
      "ch": 7,
      "note": 45,
      "vel": 59,
      "dur": 80
    },
    {
      "t": 802,
      "ch": 7,
      "note": 36,
      "vel": 55,
      "dur": 80
    },
    {
      "t": 802,
      "ch": 7,
      "note": 38,
      "vel": 64,
      "dur": 80
    },
    {
      "t": 802.4,
      "ch": 7,
      "note": 48,
      "vel": 77,
      "dur": 80
    },
    {
      "t": 802.4,
      "ch": 7,
      "note": 36,
      "vel": 60,
      "dur": 80
    },
    {
      "t": 802.7,
      "ch": 0,
      "note": 36,
      "vel": 76,
      "dur": 55
    },
    {
      "t": 803.1,
      "ch": 0,
      "note": 36,
      "vel": 117,
      "dur": 55
    },
    {
      "t": 803.1,
      "ch": 7,
      "note": 48,
      "vel": 57,
      "dur": 80
    },
    {
      "t": 803.1,
      "ch": 7,
      "note": 45,
      "vel": 78,
      "dur": 80
    },
    {
      "t": 803.1,
      "ch": 7,
      "note": 36,
      "vel": 62,
      "dur": 80
    },
    {
      "t": 803.1,
      "ch": 7,
      "note": 38,
      "vel": 69,
      "dur": 80
    },
    {
      "t": 803.4,
      "ch": 7,
      "note": 36,
      "vel": 59,
      "dur": 80
    },
    {
      "t": 803.7,
      "ch": 7,
      "note": 48,
      "vel": 68,
      "dur": 80
    },
    {
      "t": 803.7,
      "ch": 7,
      "note": 36,
      "vel": 72,
      "dur": 80
    },
    {
      "t": 803.9,
      "ch": 7,
      "note": 45,
      "vel": 51,
      "dur": 80
    },
    {
      "t": 803.9,
      "ch": 7,
      "note": 38,
      "vel": 67,
      "dur": 80
    },
    {
      "t": 804.1,
      "ch": 0,
      "note": 36,
      "vel": 80,
      "dur": 55
    },
    {
      "t": 804.4,
      "ch": 2,
      "note": 58,
      "vel": 55,
      "dur": 20930
    },
    {
      "t": 804.4,
      "ch": 2,
      "note": 70,
      "vel": 39,
      "dur": 20930
    },
    {
      "t": 804.4,
      "ch": 4,
      "note": 63,
      "vel": 45,
      "dur": 5531
    },
    {
      "t": 804.4,
      "ch": 4,
      "note": 65,
      "vel": 43,
      "dur": 5531
    },
    {
      "t": 804.4,
      "ch": 3,
      "note": 41,
      "vel": 46,
      "dur": 5581
    },
    {
      "t": 804.4,
      "ch": 7,
      "note": 48,
      "vel": 61,
      "dur": 80
    },
    {
      "t": 804.4,
      "ch": 7,
      "note": 36,
      "vel": 72,
      "dur": 80
    },
    {
      "t": 804.8,
      "ch": 7,
      "note": 45,
      "vel": 75,
      "dur": 80
    },
    {
      "t": 804.8,
      "ch": 7,
      "note": 36,
      "vel": 63,
      "dur": 80
    },
    {
      "t": 804.8,
      "ch": 7,
      "note": 38,
      "vel": 60,
      "dur": 80
    },
    {
      "t": 805.1,
      "ch": 7,
      "note": 48,
      "vel": 72,
      "dur": 80
    },
    {
      "t": 805.1,
      "ch": 7,
      "note": 36,
      "vel": 81,
      "dur": 80
    },
    {
      "t": 805.5,
      "ch": 0,
      "note": 36,
      "vel": 77,
      "dur": 55
    },
    {
      "t": 805.5,
      "ch": 5,
      "note": 75,
      "vel": 13,
      "dur": 971
    },
    {
      "t": 805.8,
      "ch": 0,
      "note": 36,
      "vel": 118,
      "dur": 55
    },
    {
      "t": 805.8,
      "ch": 7,
      "note": 48,
      "vel": 75,
      "dur": 80
    },
    {
      "t": 805.8,
      "ch": 7,
      "note": 45,
      "vel": 80,
      "dur": 80
    },
    {
      "t": 805.8,
      "ch": 7,
      "note": 36,
      "vel": 70,
      "dur": 80
    },
    {
      "t": 805.8,
      "ch": 7,
      "note": 38,
      "vel": 77,
      "dur": 80
    },
    {
      "t": 806.2,
      "ch": 7,
      "note": 36,
      "vel": 74,
      "dur": 80
    },
    {
      "t": 806.5,
      "ch": 7,
      "note": 48,
      "vel": 73,
      "dur": 80
    },
    {
      "t": 806.5,
      "ch": 7,
      "note": 36,
      "vel": 71,
      "dur": 80
    },
    {
      "t": 806.7,
      "ch": 7,
      "note": 45,
      "vel": 59,
      "dur": 80
    },
    {
      "t": 806.7,
      "ch": 7,
      "note": 38,
      "vel": 65,
      "dur": 80
    },
    {
      "t": 806.9,
      "ch": 0,
      "note": 36,
      "vel": 77,
      "dur": 55
    },
    {
      "t": 807.2,
      "ch": 7,
      "note": 48,
      "vel": 80,
      "dur": 80
    },
    {
      "t": 807.2,
      "ch": 7,
      "note": 36,
      "vel": 70,
      "dur": 80
    },
    {
      "t": 807.6,
      "ch": 7,
      "note": 45,
      "vel": 58,
      "dur": 80
    },
    {
      "t": 807.6,
      "ch": 7,
      "note": 36,
      "vel": 76,
      "dur": 80
    },
    {
      "t": 807.6,
      "ch": 7,
      "note": 38,
      "vel": 60,
      "dur": 80
    },
    {
      "t": 807.9,
      "ch": 7,
      "note": 48,
      "vel": 84,
      "dur": 80
    },
    {
      "t": 807.9,
      "ch": 7,
      "note": 36,
      "vel": 75,
      "dur": 80
    },
    {
      "t": 808.3,
      "ch": 0,
      "note": 36,
      "vel": 80,
      "dur": 55
    },
    {
      "t": 808.6,
      "ch": 0,
      "note": 36,
      "vel": 121,
      "dur": 55
    },
    {
      "t": 808.6,
      "ch": 7,
      "note": 48,
      "vel": 77,
      "dur": 80
    },
    {
      "t": 808.6,
      "ch": 7,
      "note": 45,
      "vel": 63,
      "dur": 80
    },
    {
      "t": 808.6,
      "ch": 7,
      "note": 36,
      "vel": 68,
      "dur": 80
    },
    {
      "t": 808.6,
      "ch": 7,
      "note": 38,
      "vel": 67,
      "dur": 80
    },
    {
      "t": 809,
      "ch": 7,
      "note": 36,
      "vel": 72,
      "dur": 80
    },
    {
      "t": 809.3,
      "ch": 7,
      "note": 48,
      "vel": 69,
      "dur": 80
    },
    {
      "t": 809.3,
      "ch": 7,
      "note": 36,
      "vel": 71,
      "dur": 80
    },
    {
      "t": 809.5,
      "ch": 7,
      "note": 45,
      "vel": 59,
      "dur": 80
    },
    {
      "t": 809.5,
      "ch": 7,
      "note": 38,
      "vel": 66,
      "dur": 80
    },
    {
      "t": 809.5,
      "ch": 6,
      "note": 71,
      "vel": 17,
      "dur": 643
    },
    {
      "t": 809.7,
      "ch": 0,
      "note": 36,
      "vel": 77,
      "dur": 55
    },
    {
      "t": 809.9,
      "ch": 4,
      "note": 63,
      "vel": 46,
      "dur": 5531
    },
    {
      "t": 809.9,
      "ch": 4,
      "note": 66,
      "vel": 43,
      "dur": 5531
    },
    {
      "t": 809.9,
      "ch": 3,
      "note": 41,
      "vel": 47,
      "dur": 5581
    },
    {
      "t": 810,
      "ch": 7,
      "note": 48,
      "vel": 70,
      "dur": 80
    },
    {
      "t": 810,
      "ch": 7,
      "note": 36,
      "vel": 77,
      "dur": 80
    },
    {
      "t": 810.4,
      "ch": 7,
      "note": 45,
      "vel": 70,
      "dur": 80
    },
    {
      "t": 810.4,
      "ch": 7,
      "note": 36,
      "vel": 54,
      "dur": 80
    },
    {
      "t": 810.4,
      "ch": 7,
      "note": 38,
      "vel": 63,
      "dur": 80
    },
    {
      "t": 810.7,
      "ch": 7,
      "note": 48,
      "vel": 68,
      "dur": 80
    },
    {
      "t": 810.7,
      "ch": 7,
      "note": 36,
      "vel": 64,
      "dur": 80
    },
    {
      "t": 810.9,
      "ch": 5,
      "note": 68,
      "vel": 39,
      "dur": 957
    },
    {
      "t": 811.1,
      "ch": 0,
      "note": 36,
      "vel": 84,
      "dur": 55
    },
    {
      "t": 811.4,
      "ch": 0,
      "note": 36,
      "vel": 112,
      "dur": 55
    },
    {
      "t": 811.4,
      "ch": 1,
      "note": 42,
      "vel": 81,
      "dur": 25
    },
    {
      "t": 811.4,
      "ch": 1,
      "note": 36,
      "vel": 70,
      "dur": 25
    },
    {
      "t": 811.4,
      "ch": 1,
      "note": 38,
      "vel": 96,
      "dur": 25
    },
    {
      "t": 811.4,
      "ch": 1,
      "note": 40,
      "vel": 88,
      "dur": 25
    },
    {
      "t": 811.4,
      "ch": 1,
      "note": 42,
      "vel": 84,
      "dur": 25
    },
    {
      "t": 811.4,
      "ch": 1,
      "note": 36,
      "vel": 88,
      "dur": 25
    },
    {
      "t": 811.4,
      "ch": 1,
      "note": 38,
      "vel": 86,
      "dur": 25
    },
    {
      "t": 811.4,
      "ch": 1,
      "note": 40,
      "vel": 62,
      "dur": 25
    },
    {
      "t": 811.4,
      "ch": 1,
      "note": 42,
      "vel": 92,
      "dur": 25
    },
    {
      "t": 811.4,
      "ch": 1,
      "note": 36,
      "vel": 62,
      "dur": 25
    },
    {
      "t": 811.4,
      "ch": 1,
      "note": 38,
      "vel": 80,
      "dur": 25
    },
    {
      "t": 811.4,
      "ch": 1,
      "note": 40,
      "vel": 100,
      "dur": 25
    },
    {
      "t": 811.4,
      "ch": 1,
      "note": 42,
      "vel": 97,
      "dur": 25
    },
    {
      "t": 811.4,
      "ch": 1,
      "note": 36,
      "vel": 93,
      "dur": 25
    },
    {
      "t": 811.4,
      "ch": 1,
      "note": 38,
      "vel": 68,
      "dur": 25
    },
    {
      "t": 811.4,
      "ch": 1,
      "note": 40,
      "vel": 99,
      "dur": 25
    },
    {
      "t": 811.4,
      "ch": 1,
      "note": 42,
      "vel": 102,
      "dur": 25
    },
    {
      "t": 811.4,
      "ch": 1,
      "note": 36,
      "vel": 106,
      "dur": 25
    },
    {
      "t": 811.4,
      "ch": 1,
      "note": 38,
      "vel": 91,
      "dur": 25
    },
    {
      "t": 811.4,
      "ch": 1,
      "note": 40,
      "vel": 91,
      "dur": 25
    },
    {
      "t": 811.4,
      "ch": 1,
      "note": 42,
      "vel": 105,
      "dur": 25
    },
    {
      "t": 811.4,
      "ch": 1,
      "note": 36,
      "vel": 54,
      "dur": 25
    },
    {
      "t": 811.4,
      "ch": 1,
      "note": 38,
      "vel": 78,
      "dur": 25
    },
    {
      "t": 811.4,
      "ch": 1,
      "note": 40,
      "vel": 93,
      "dur": 25
    },
    {
      "t": 811.4,
      "ch": 1,
      "note": 42,
      "vel": 101,
      "dur": 25
    },
    {
      "t": 811.4,
      "ch": 1,
      "note": 36,
      "vel": 70,
      "dur": 25
    },
    {
      "t": 811.4,
      "ch": 1,
      "note": 38,
      "vel": 62,
      "dur": 25
    },
    {
      "t": 811.4,
      "ch": 1,
      "note": 40,
      "vel": 81,
      "dur": 25
    },
    {
      "t": 811.4,
      "ch": 1,
      "note": 42,
      "vel": 84,
      "dur": 25
    },
    {
      "t": 811.4,
      "ch": 1,
      "note": 36,
      "vel": 78,
      "dur": 25
    },
    {
      "t": 811.4,
      "ch": 1,
      "note": 38,
      "vel": 90,
      "dur": 25
    },
    {
      "t": 811.4,
      "ch": 1,
      "note": 40,
      "vel": 69,
      "dur": 25
    },
    {
      "t": 811.4,
      "ch": 1,
      "note": 42,
      "vel": 65,
      "dur": 25
    },
    {
      "t": 811.4,
      "ch": 1,
      "note": 36,
      "vel": 68,
      "dur": 25
    },
    {
      "t": 811.4,
      "ch": 1,
      "note": 38,
      "vel": 95,
      "dur": 25
    },
    {
      "t": 811.4,
      "ch": 1,
      "note": 40,
      "vel": 102,
      "dur": 25
    },
    {
      "t": 811.4,
      "ch": 1,
      "note": 42,
      "vel": 106,
      "dur": 25
    },
    {
      "t": 811.4,
      "ch": 1,
      "note": 36,
      "vel": 96,
      "dur": 25
    },
    {
      "t": 811.4,
      "ch": 1,
      "note": 38,
      "vel": 95,
      "dur": 25
    },
    {
      "t": 811.4,
      "ch": 1,
      "note": 40,
      "vel": 85,
      "dur": 25
    },
    {
      "t": 811.4,
      "ch": 1,
      "note": 42,
      "vel": 74,
      "dur": 25
    },
    {
      "t": 811.4,
      "ch": 1,
      "note": 36,
      "vel": 76,
      "dur": 25
    },
    {
      "t": 811.4,
      "ch": 1,
      "note": 38,
      "vel": 66,
      "dur": 25
    },
    {
      "t": 811.4,
      "ch": 1,
      "note": 40,
      "vel": 80,
      "dur": 25
    },
    {
      "t": 811.4,
      "ch": 1,
      "note": 42,
      "vel": 91,
      "dur": 25
    },
    {
      "t": 811.4,
      "ch": 1,
      "note": 36,
      "vel": 57,
      "dur": 25
    },
    {
      "t": 811.4,
      "ch": 1,
      "note": 38,
      "vel": 94,
      "dur": 25
    },
    {
      "t": 811.4,
      "ch": 1,
      "note": 40,
      "vel": 67,
      "dur": 25
    },
    {
      "t": 811.4,
      "ch": 1,
      "note": 42,
      "vel": 79,
      "dur": 25
    },
    {
      "t": 811.4,
      "ch": 1,
      "note": 36,
      "vel": 102,
      "dur": 25
    },
    {
      "t": 811.4,
      "ch": 1,
      "note": 38,
      "vel": 90,
      "dur": 25
    },
    {
      "t": 811.4,
      "ch": 1,
      "note": 40,
      "vel": 79,
      "dur": 25
    },
    {
      "t": 811.4,
      "ch": 1,
      "note": 42,
      "vel": 95,
      "dur": 25
    },
    {
      "t": 811.4,
      "ch": 1,
      "note": 36,
      "vel": 58,
      "dur": 25
    },
    {
      "t": 811.4,
      "ch": 1,
      "note": 38,
      "vel": 88,
      "dur": 25
    },
    {
      "t": 811.4,
      "ch": 1,
      "note": 40,
      "vel": 75,
      "dur": 25
    },
    {
      "t": 811.4,
      "ch": 1,
      "note": 42,
      "vel": 72,
      "dur": 25
    },
    {
      "t": 811.4,
      "ch": 1,
      "note": 36,
      "vel": 92,
      "dur": 25
    },
    {
      "t": 811.4,
      "ch": 1,
      "note": 38,
      "vel": 73,
      "dur": 25
    },
    {
      "t": 811.4,
      "ch": 1,
      "note": 40,
      "vel": 92,
      "dur": 25
    },
    {
      "t": 811.4,
      "ch": 1,
      "note": 42,
      "vel": 80,
      "dur": 25
    },
    {
      "t": 811.4,
      "ch": 1,
      "note": 36,
      "vel": 79,
      "dur": 25
    },
    {
      "t": 811.4,
      "ch": 1,
      "note": 38,
      "vel": 65,
      "dur": 25
    },
    {
      "t": 811.4,
      "ch": 1,
      "note": 40,
      "vel": 93,
      "dur": 25
    },
    {
      "t": 811.4,
      "ch": 1,
      "note": 42,
      "vel": 98,
      "dur": 25
    },
    {
      "t": 811.4,
      "ch": 1,
      "note": 36,
      "vel": 89,
      "dur": 25
    },
    {
      "t": 811.4,
      "ch": 1,
      "note": 38,
      "vel": 86,
      "dur": 25
    },
    {
      "t": 811.4,
      "ch": 1,
      "note": 40,
      "vel": 57,
      "dur": 25
    },
    {
      "t": 811.4,
      "ch": 1,
      "note": 42,
      "vel": 81,
      "dur": 25
    },
    {
      "t": 811.4,
      "ch": 1,
      "note": 36,
      "vel": 77,
      "dur": 25
    },
    {
      "t": 811.4,
      "ch": 1,
      "note": 38,
      "vel": 87,
      "dur": 25
    },
    {
      "t": 811.4,
      "ch": 1,
      "note": 40,
      "vel": 82,
      "dur": 25
    },
    {
      "t": 811.4,
      "ch": 1,
      "note": 42,
      "vel": 74,
      "dur": 25
    },
    {
      "t": 811.4,
      "ch": 1,
      "note": 36,
      "vel": 79,
      "dur": 25
    },
    {
      "t": 811.4,
      "ch": 1,
      "note": 38,
      "vel": 80,
      "dur": 25
    },
    {
      "t": 811.4,
      "ch": 1,
      "note": 40,
      "vel": 85,
      "dur": 25
    },
    {
      "t": 811.4,
      "ch": 1,
      "note": 42,
      "vel": 64,
      "dur": 25
    },
    {
      "t": 811.4,
      "ch": 1,
      "note": 36,
      "vel": 73,
      "dur": 25
    },
    {
      "t": 811.4,
      "ch": 1,
      "note": 38,
      "vel": 105,
      "dur": 25
    },
    {
      "t": 811.4,
      "ch": 1,
      "note": 40,
      "vel": 92,
      "dur": 25
    },
    {
      "t": 811.4,
      "ch": 1,
      "note": 42,
      "vel": 74,
      "dur": 25
    },
    {
      "t": 811.4,
      "ch": 1,
      "note": 36,
      "vel": 61,
      "dur": 25
    },
    {
      "t": 811.4,
      "ch": 1,
      "note": 38,
      "vel": 82,
      "dur": 25
    },
    {
      "t": 811.4,
      "ch": 1,
      "note": 40,
      "vel": 78,
      "dur": 25
    },
    {
      "t": 811.4,
      "ch": 1,
      "note": 42,
      "vel": 93,
      "dur": 25
    },
    {
      "t": 811.4,
      "ch": 1,
      "note": 36,
      "vel": 65,
      "dur": 25
    },
    {
      "t": 811.4,
      "ch": 1,
      "note": 38,
      "vel": 82,
      "dur": 25
    },
    {
      "t": 811.4,
      "ch": 1,
      "note": 40,
      "vel": 78,
      "dur": 25
    },
    {
      "t": 811.4,
      "ch": 1,
      "note": 42,
      "vel": 80,
      "dur": 25
    },
    {
      "t": 811.4,
      "ch": 1,
      "note": 36,
      "vel": 88,
      "dur": 25
    },
    {
      "t": 811.4,
      "ch": 1,
      "note": 38,
      "vel": 87,
      "dur": 25
    },
    {
      "t": 811.4,
      "ch": 1,
      "note": 40,
      "vel": 72,
      "dur": 25
    },
    {
      "t": 811.4,
      "ch": 1,
      "note": 42,
      "vel": 91,
      "dur": 25
    },
    {
      "t": 811.4,
      "ch": 1,
      "note": 36,
      "vel": 89,
      "dur": 25
    },
    {
      "t": 811.4,
      "ch": 1,
      "note": 38,
      "vel": 84,
      "dur": 25
    },
    {
      "t": 811.4,
      "ch": 1,
      "note": 40,
      "vel": 81,
      "dur": 25
    },
    {
      "t": 811.4,
      "ch": 1,
      "note": 42,
      "vel": 113,
      "dur": 25
    },
    {
      "t": 811.4,
      "ch": 1,
      "note": 36,
      "vel": 78,
      "dur": 25
    },
    {
      "t": 811.4,
      "ch": 1,
      "note": 38,
      "vel": 99,
      "dur": 25
    },
    {
      "t": 811.4,
      "ch": 1,
      "note": 40,
      "vel": 89,
      "dur": 25
    },
    {
      "t": 811.4,
      "ch": 1,
      "note": 42,
      "vel": 82,
      "dur": 25
    },
    {
      "t": 811.4,
      "ch": 1,
      "note": 36,
      "vel": 90,
      "dur": 25
    },
    {
      "t": 811.4,
      "ch": 1,
      "note": 38,
      "vel": 97,
      "dur": 25
    },
    {
      "t": 811.4,
      "ch": 1,
      "note": 40,
      "vel": 76,
      "dur": 25
    },
    {
      "t": 811.4,
      "ch": 1,
      "note": 42,
      "vel": 95,
      "dur": 25
    },
    {
      "t": 811.4,
      "ch": 1,
      "note": 36,
      "vel": 75,
      "dur": 25
    },
    {
      "t": 811.4,
      "ch": 1,
      "note": 38,
      "vel": 75,
      "dur": 25
    },
    {
      "t": 811.4,
      "ch": 1,
      "note": 40,
      "vel": 62,
      "dur": 25
    },
    {
      "t": 811.4,
      "ch": 1,
      "note": 42,
      "vel": 96,
      "dur": 25
    },
    {
      "t": 811.4,
      "ch": 1,
      "note": 36,
      "vel": 91,
      "dur": 25
    },
    {
      "t": 811.4,
      "ch": 1,
      "note": 38,
      "vel": 91,
      "dur": 25
    },
    {
      "t": 811.4,
      "ch": 1,
      "note": 40,
      "vel": 65,
      "dur": 25
    },
    {
      "t": 811.4,
      "ch": 1,
      "note": 42,
      "vel": 99,
      "dur": 25
    },
    {
      "t": 811.4,
      "ch": 1,
      "note": 36,
      "vel": 92,
      "dur": 25
    },
    {
      "t": 811.4,
      "ch": 1,
      "note": 38,
      "vel": 94,
      "dur": 25
    },
    {
      "t": 811.4,
      "ch": 1,
      "note": 40,
      "vel": 94,
      "dur": 25
    },
    {
      "t": 811.4,
      "ch": 1,
      "note": 42,
      "vel": 79,
      "dur": 25
    },
    {
      "t": 811.4,
      "ch": 1,
      "note": 36,
      "vel": 109,
      "dur": 25
    },
    {
      "t": 811.4,
      "ch": 1,
      "note": 38,
      "vel": 76,
      "dur": 25
    },
    {
      "t": 811.4,
      "ch": 1,
      "note": 40,
      "vel": 111,
      "dur": 25
    },
    {
      "t": 811.4,
      "ch": 1,
      "note": 42,
      "vel": 110,
      "dur": 25
    },
    {
      "t": 811.4,
      "ch": 1,
      "note": 36,
      "vel": 90,
      "dur": 25
    },
    {
      "t": 811.4,
      "ch": 1,
      "note": 38,
      "vel": 88,
      "dur": 25
    },
    {
      "t": 811.4,
      "ch": 1,
      "note": 40,
      "vel": 95,
      "dur": 25
    },
    {
      "t": 811.4,
      "ch": 1,
      "note": 42,
      "vel": 89,
      "dur": 25
    },
    {
      "t": 811.4,
      "ch": 1,
      "note": 36,
      "vel": 76,
      "dur": 25
    },
    {
      "t": 811.4,
      "ch": 1,
      "note": 38,
      "vel": 73,
      "dur": 25
    },
    {
      "t": 811.4,
      "ch": 1,
      "note": 40,
      "vel": 74,
      "dur": 25
    },
    {
      "t": 811.4,
      "ch": 1,
      "note": 42,
      "vel": 90,
      "dur": 25
    },
    {
      "t": 811.4,
      "ch": 1,
      "note": 36,
      "vel": 82,
      "dur": 25
    },
    {
      "t": 811.4,
      "ch": 1,
      "note": 38,
      "vel": 91,
      "dur": 25
    },
    {
      "t": 811.4,
      "ch": 1,
      "note": 40,
      "vel": 93,
      "dur": 25
    },
    {
      "t": 811.4,
      "ch": 1,
      "note": 42,
      "vel": 60,
      "dur": 25
    },
    {
      "t": 811.4,
      "ch": 1,
      "note": 36,
      "vel": 80,
      "dur": 25
    },
    {
      "t": 811.4,
      "ch": 1,
      "note": 38,
      "vel": 80,
      "dur": 25
    },
    {
      "t": 811.4,
      "ch": 1,
      "note": 40,
      "vel": 69,
      "dur": 25
    },
    {
      "t": 811.4,
      "ch": 1,
      "note": 42,
      "vel": 74,
      "dur": 25
    },
    {
      "t": 811.4,
      "ch": 1,
      "note": 36,
      "vel": 67,
      "dur": 25
    },
    {
      "t": 811.4,
      "ch": 1,
      "note": 38,
      "vel": 75,
      "dur": 25
    },
    {
      "t": 811.4,
      "ch": 1,
      "note": 40,
      "vel": 91,
      "dur": 25
    },
    {
      "t": 811.4,
      "ch": 1,
      "note": 42,
      "vel": 96,
      "dur": 25
    },
    {
      "t": 811.4,
      "ch": 1,
      "note": 36,
      "vel": 87,
      "dur": 25
    },
    {
      "t": 811.4,
      "ch": 1,
      "note": 38,
      "vel": 77,
      "dur": 25
    },
    {
      "t": 811.4,
      "ch": 1,
      "note": 40,
      "vel": 77,
      "dur": 25
    },
    {
      "t": 811.4,
      "ch": 1,
      "note": 42,
      "vel": 82,
      "dur": 25
    },
    {
      "t": 811.4,
      "ch": 1,
      "note": 36,
      "vel": 78,
      "dur": 25
    },
    {
      "t": 811.4,
      "ch": 1,
      "note": 38,
      "vel": 94,
      "dur": 25
    },
    {
      "t": 811.4,
      "ch": 1,
      "note": 40,
      "vel": 110,
      "dur": 25
    },
    {
      "t": 811.4,
      "ch": 1,
      "note": 42,
      "vel": 91,
      "dur": 25
    },
    {
      "t": 811.4,
      "ch": 1,
      "note": 36,
      "vel": 52,
      "dur": 25
    },
    {
      "t": 811.4,
      "ch": 1,
      "note": 38,
      "vel": 101,
      "dur": 25
    },
    {
      "t": 811.4,
      "ch": 1,
      "note": 40,
      "vel": 90,
      "dur": 25
    },
    {
      "t": 811.4,
      "ch": 1,
      "note": 42,
      "vel": 84,
      "dur": 25
    },
    {
      "t": 811.4,
      "ch": 1,
      "note": 36,
      "vel": 93,
      "dur": 25
    },
    {
      "t": 811.4,
      "ch": 1,
      "note": 38,
      "vel": 67,
      "dur": 25
    },
    {
      "t": 811.4,
      "ch": 1,
      "note": 40,
      "vel": 86,
      "dur": 25
    },
    {
      "t": 811.4,
      "ch": 1,
      "note": 42,
      "vel": 60,
      "dur": 25
    },
    {
      "t": 811.4,
      "ch": 1,
      "note": 36,
      "vel": 90,
      "dur": 25
    },
    {
      "t": 811.4,
      "ch": 1,
      "note": 38,
      "vel": 60,
      "dur": 25
    },
    {
      "t": 811.4,
      "ch": 1,
      "note": 40,
      "vel": 94,
      "dur": 25
    },
    {
      "t": 811.4,
      "ch": 1,
      "note": 42,
      "vel": 64,
      "dur": 25
    },
    {
      "t": 811.4,
      "ch": 1,
      "note": 36,
      "vel": 86,
      "dur": 25
    },
    {
      "t": 811.4,
      "ch": 1,
      "note": 38,
      "vel": 79,
      "dur": 25
    },
    {
      "t": 811.4,
      "ch": 1,
      "note": 40,
      "vel": 71,
      "dur": 25
    },
    {
      "t": 811.4,
      "ch": 1,
      "note": 42,
      "vel": 107,
      "dur": 25
    },
    {
      "t": 811.4,
      "ch": 1,
      "note": 36,
      "vel": 113,
      "dur": 25
    },
    {
      "t": 811.4,
      "ch": 1,
      "note": 38,
      "vel": 97,
      "dur": 25
    },
    {
      "t": 811.4,
      "ch": 1,
      "note": 40,
      "vel": 85,
      "dur": 25
    },
    {
      "t": 811.4,
      "ch": 1,
      "note": 42,
      "vel": 70,
      "dur": 25
    },
    {
      "t": 811.4,
      "ch": 1,
      "note": 36,
      "vel": 93,
      "dur": 25
    },
    {
      "t": 811.4,
      "ch": 1,
      "note": 38,
      "vel": 73,
      "dur": 25
    },
    {
      "t": 811.4,
      "ch": 1,
      "note": 40,
      "vel": 73,
      "dur": 25
    },
    {
      "t": 811.4,
      "ch": 1,
      "note": 42,
      "vel": 69,
      "dur": 25
    },
    {
      "t": 811.4,
      "ch": 1,
      "note": 36,
      "vel": 94,
      "dur": 25
    },
    {
      "t": 811.4,
      "ch": 1,
      "note": 38,
      "vel": 86,
      "dur": 25
    },
    {
      "t": 811.4,
      "ch": 1,
      "note": 40,
      "vel": 100,
      "dur": 25
    },
    {
      "t": 811.4,
      "ch": 1,
      "note": 42,
      "vel": 73,
      "dur": 25
    },
    {
      "t": 811.4,
      "ch": 1,
      "note": 36,
      "vel": 110,
      "dur": 25
    },
    {
      "t": 811.4,
      "ch": 1,
      "note": 38,
      "vel": 65,
      "dur": 25
    },
    {
      "t": 811.4,
      "ch": 1,
      "note": 40,
      "vel": 88,
      "dur": 25
    },
    {
      "t": 811.4,
      "ch": 1,
      "note": 42,
      "vel": 64,
      "dur": 25
    },
    {
      "t": 811.4,
      "ch": 1,
      "note": 36,
      "vel": 95,
      "dur": 25
    },
    {
      "t": 811.4,
      "ch": 1,
      "note": 38,
      "vel": 88,
      "dur": 25
    },
    {
      "t": 811.4,
      "ch": 1,
      "note": 40,
      "vel": 74,
      "dur": 25
    },
    {
      "t": 811.4,
      "ch": 1,
      "note": 42,
      "vel": 78,
      "dur": 25
    },
    {
      "t": 811.4,
      "ch": 1,
      "note": 36,
      "vel": 96,
      "dur": 25
    },
    {
      "t": 811.4,
      "ch": 1,
      "note": 38,
      "vel": 109,
      "dur": 25
    },
    {
      "t": 811.4,
      "ch": 1,
      "note": 40,
      "vel": 98,
      "dur": 25
    },
    {
      "t": 811.4,
      "ch": 1,
      "note": 42,
      "vel": 98,
      "dur": 25
    },
    {
      "t": 811.4,
      "ch": 1,
      "note": 36,
      "vel": 83,
      "dur": 25
    },
    {
      "t": 811.4,
      "ch": 1,
      "note": 38,
      "vel": 61,
      "dur": 25
    },
    {
      "t": 811.4,
      "ch": 1,
      "note": 40,
      "vel": 71,
      "dur": 25
    },
    {
      "t": 811.4,
      "ch": 1,
      "note": 42,
      "vel": 87,
      "dur": 25
    },
    {
      "t": 811.4,
      "ch": 1,
      "note": 36,
      "vel": 95,
      "dur": 25
    },
    {
      "t": 811.4,
      "ch": 1,
      "note": 38,
      "vel": 110,
      "dur": 25
    },
    {
      "t": 811.4,
      "ch": 1,
      "note": 40,
      "vel": 91,
      "dur": 25
    },
    {
      "t": 811.4,
      "ch": 1,
      "note": 42,
      "vel": 80,
      "dur": 25
    },
    {
      "t": 811.4,
      "ch": 1,
      "note": 36,
      "vel": 74,
      "dur": 25
    },
    {
      "t": 811.4,
      "ch": 1,
      "note": 38,
      "vel": 74,
      "dur": 25
    },
    {
      "t": 811.4,
      "ch": 1,
      "note": 40,
      "vel": 90,
      "dur": 25
    },
    {
      "t": 811.4,
      "ch": 1,
      "note": 42,
      "vel": 74,
      "dur": 25
    },
    {
      "t": 811.4,
      "ch": 1,
      "note": 36,
      "vel": 78,
      "dur": 25
    },
    {
      "t": 811.4,
      "ch": 1,
      "note": 38,
      "vel": 92,
      "dur": 25
    },
    {
      "t": 811.4,
      "ch": 1,
      "note": 40,
      "vel": 83,
      "dur": 25
    },
    {
      "t": 811.4,
      "ch": 1,
      "note": 42,
      "vel": 83,
      "dur": 25
    },
    {
      "t": 811.4,
      "ch": 1,
      "note": 36,
      "vel": 96,
      "dur": 25
    },
    {
      "t": 811.4,
      "ch": 1,
      "note": 38,
      "vel": 88,
      "dur": 25
    },
    {
      "t": 811.4,
      "ch": 1,
      "note": 40,
      "vel": 81,
      "dur": 25
    },
    {
      "t": 811.4,
      "ch": 1,
      "note": 42,
      "vel": 76,
      "dur": 25
    },
    {
      "t": 811.4,
      "ch": 1,
      "note": 36,
      "vel": 72,
      "dur": 25
    },
    {
      "t": 811.4,
      "ch": 1,
      "note": 38,
      "vel": 92,
      "dur": 25
    },
    {
      "t": 811.4,
      "ch": 1,
      "note": 40,
      "vel": 83,
      "dur": 25
    },
    {
      "t": 811.4,
      "ch": 1,
      "note": 42,
      "vel": 79,
      "dur": 25
    },
    {
      "t": 811.4,
      "ch": 1,
      "note": 36,
      "vel": 89,
      "dur": 25
    },
    {
      "t": 811.4,
      "ch": 1,
      "note": 38,
      "vel": 74,
      "dur": 25
    },
    {
      "t": 811.4,
      "ch": 1,
      "note": 40,
      "vel": 78,
      "dur": 25
    },
    {
      "t": 811.4,
      "ch": 1,
      "note": 42,
      "vel": 86,
      "dur": 25
    },
    {
      "t": 811.4,
      "ch": 1,
      "note": 36,
      "vel": 83,
      "dur": 25
    },
    {
      "t": 811.4,
      "ch": 1,
      "note": 38,
      "vel": 62,
      "dur": 25
    },
    {
      "t": 811.4,
      "ch": 1,
      "note": 40,
      "vel": 82,
      "dur": 25
    },
    {
      "t": 811.4,
      "ch": 1,
      "note": 42,
      "vel": 104,
      "dur": 25
    },
    {
      "t": 811.4,
      "ch": 1,
      "note": 36,
      "vel": 86,
      "dur": 25
    },
    {
      "t": 811.4,
      "ch": 1,
      "note": 38,
      "vel": 114,
      "dur": 25
    },
    {
      "t": 811.4,
      "ch": 1,
      "note": 40,
      "vel": 100,
      "dur": 25
    },
    {
      "t": 811.4,
      "ch": 1,
      "note": 42,
      "vel": 73,
      "dur": 25
    },
    {
      "t": 811.4,
      "ch": 1,
      "note": 36,
      "vel": 96,
      "dur": 25
    },
    {
      "t": 811.4,
      "ch": 1,
      "note": 38,
      "vel": 89,
      "dur": 25
    },
    {
      "t": 811.4,
      "ch": 1,
      "note": 40,
      "vel": 77,
      "dur": 25
    },
    {
      "t": 811.4,
      "ch": 1,
      "note": 42,
      "vel": 81,
      "dur": 25
    },
    {
      "t": 811.4,
      "ch": 1,
      "note": 36,
      "vel": 96,
      "dur": 25
    },
    {
      "t": 811.4,
      "ch": 1,
      "note": 38,
      "vel": 58,
      "dur": 25
    },
    {
      "t": 811.4,
      "ch": 1,
      "note": 40,
      "vel": 75,
      "dur": 25
    },
    {
      "t": 811.4,
      "ch": 1,
      "note": 42,
      "vel": 113,
      "dur": 25
    },
    {
      "t": 811.4,
      "ch": 1,
      "note": 36,
      "vel": 99,
      "dur": 25
    },
    {
      "t": 811.4,
      "ch": 1,
      "note": 38,
      "vel": 97,
      "dur": 25
    },
    {
      "t": 811.4,
      "ch": 1,
      "note": 40,
      "vel": 78,
      "dur": 25
    },
    {
      "t": 811.4,
      "ch": 1,
      "note": 42,
      "vel": 88,
      "dur": 25
    },
    {
      "t": 811.4,
      "ch": 1,
      "note": 36,
      "vel": 95,
      "dur": 25
    },
    {
      "t": 811.4,
      "ch": 1,
      "note": 38,
      "vel": 101,
      "dur": 25
    },
    {
      "t": 811.4,
      "ch": 1,
      "note": 40,
      "vel": 64,
      "dur": 25
    },
    {
      "t": 811.4,
      "ch": 1,
      "note": 42,
      "vel": 78,
      "dur": 25
    },
    {
      "t": 811.4,
      "ch": 1,
      "note": 36,
      "vel": 94,
      "dur": 25
    },
    {
      "t": 811.4,
      "ch": 1,
      "note": 38,
      "vel": 89,
      "dur": 25
    },
    {
      "t": 811.4,
      "ch": 1,
      "note": 40,
      "vel": 112,
      "dur": 25
    },
    {
      "t": 811.4,
      "ch": 1,
      "note": 42,
      "vel": 58,
      "dur": 25
    },
    {
      "t": 811.4,
      "ch": 1,
      "note": 36,
      "vel": 74,
      "dur": 25
    },
    {
      "t": 811.4,
      "ch": 1,
      "note": 38,
      "vel": 70,
      "dur": 25
    },
    {
      "t": 811.4,
      "ch": 1,
      "note": 40,
      "vel": 100,
      "dur": 25
    },
    {
      "t": 811.4,
      "ch": 1,
      "note": 42,
      "vel": 72,
      "dur": 25
    },
    {
      "t": 811.4,
      "ch": 1,
      "note": 36,
      "vel": 77,
      "dur": 25
    },
    {
      "t": 811.4,
      "ch": 1,
      "note": 38,
      "vel": 93,
      "dur": 25
    },
    {
      "t": 811.4,
      "ch": 1,
      "note": 40,
      "vel": 81,
      "dur": 25
    },
    {
      "t": 811.4,
      "ch": 1,
      "note": 42,
      "vel": 81,
      "dur": 25
    },
    {
      "t": 811.4,
      "ch": 1,
      "note": 36,
      "vel": 91,
      "dur": 25
    },
    {
      "t": 811.4,
      "ch": 1,
      "note": 38,
      "vel": 65,
      "dur": 25
    },
    {
      "t": 811.4,
      "ch": 1,
      "note": 40,
      "vel": 75,
      "dur": 25
    },
    {
      "t": 811.4,
      "ch": 1,
      "note": 42,
      "vel": 60,
      "dur": 25
    },
    {
      "t": 811.4,
      "ch": 1,
      "note": 36,
      "vel": 86,
      "dur": 25
    },
    {
      "t": 811.4,
      "ch": 1,
      "note": 38,
      "vel": 89,
      "dur": 25
    },
    {
      "t": 811.4,
      "ch": 1,
      "note": 40,
      "vel": 82,
      "dur": 25
    },
    {
      "t": 811.4,
      "ch": 1,
      "note": 42,
      "vel": 76,
      "dur": 25
    },
    {
      "t": 811.4,
      "ch": 1,
      "note": 36,
      "vel": 95,
      "dur": 25
    },
    {
      "t": 811.4,
      "ch": 1,
      "note": 38,
      "vel": 88,
      "dur": 25
    },
    {
      "t": 811.4,
      "ch": 1,
      "note": 40,
      "vel": 77,
      "dur": 25
    },
    {
      "t": 811.4,
      "ch": 1,
      "note": 42,
      "vel": 68,
      "dur": 25
    },
    {
      "t": 811.4,
      "ch": 1,
      "note": 36,
      "vel": 86,
      "dur": 25
    },
    {
      "t": 811.4,
      "ch": 1,
      "note": 38,
      "vel": 94,
      "dur": 25
    },
    {
      "t": 811.4,
      "ch": 1,
      "note": 40,
      "vel": 73,
      "dur": 25
    },
    {
      "t": 811.4,
      "ch": 1,
      "note": 42,
      "vel": 71,
      "dur": 25
    },
    {
      "t": 811.4,
      "ch": 1,
      "note": 36,
      "vel": 104,
      "dur": 25
    },
    {
      "t": 811.4,
      "ch": 1,
      "note": 38,
      "vel": 112,
      "dur": 25
    },
    {
      "t": 811.4,
      "ch": 1,
      "note": 40,
      "vel": 79,
      "dur": 25
    },
    {
      "t": 811.4,
      "ch": 1,
      "note": 42,
      "vel": 62,
      "dur": 25
    },
    {
      "t": 811.4,
      "ch": 1,
      "note": 36,
      "vel": 82,
      "dur": 25
    },
    {
      "t": 811.4,
      "ch": 1,
      "note": 38,
      "vel": 78,
      "dur": 25
    },
    {
      "t": 811.4,
      "ch": 1,
      "note": 40,
      "vel": 88,
      "dur": 25
    },
    {
      "t": 811.4,
      "ch": 1,
      "note": 42,
      "vel": 67,
      "dur": 25
    },
    {
      "t": 811.4,
      "ch": 1,
      "note": 36,
      "vel": 76,
      "dur": 25
    },
    {
      "t": 811.4,
      "ch": 1,
      "note": 38,
      "vel": 70,
      "dur": 25
    },
    {
      "t": 811.4,
      "ch": 1,
      "note": 40,
      "vel": 76,
      "dur": 25
    },
    {
      "t": 811.4,
      "ch": 1,
      "note": 42,
      "vel": 64,
      "dur": 25
    },
    {
      "t": 811.4,
      "ch": 1,
      "note": 36,
      "vel": 84,
      "dur": 25
    },
    {
      "t": 811.4,
      "ch": 1,
      "note": 38,
      "vel": 86,
      "dur": 25
    },
    {
      "t": 811.4,
      "ch": 1,
      "note": 40,
      "vel": 77,
      "dur": 25
    },
    {
      "t": 811.4,
      "ch": 1,
      "note": 42,
      "vel": 78,
      "dur": 25
    },
    {
      "t": 811.4,
      "ch": 1,
      "note": 36,
      "vel": 87,
      "dur": 25
    },
    {
      "t": 811.4,
      "ch": 1,
      "note": 38,
      "vel": 94,
      "dur": 25
    },
    {
      "t": 811.4,
      "ch": 1,
      "note": 40,
      "vel": 88,
      "dur": 25
    },
    {
      "t": 811.4,
      "ch": 1,
      "note": 42,
      "vel": 74,
      "dur": 25
    },
    {
      "t": 811.4,
      "ch": 1,
      "note": 36,
      "vel": 87,
      "dur": 25
    },
    {
      "t": 811.4,
      "ch": 1,
      "note": 38,
      "vel": 105,
      "dur": 25
    },
    {
      "t": 811.4,
      "ch": 1,
      "note": 40,
      "vel": 76,
      "dur": 25
    },
    {
      "t": 811.4,
      "ch": 1,
      "note": 42,
      "vel": 97,
      "dur": 25
    },
    {
      "t": 811.4,
      "ch": 1,
      "note": 36,
      "vel": 88,
      "dur": 25
    },
    {
      "t": 811.4,
      "ch": 1,
      "note": 38,
      "vel": 81,
      "dur": 25
    },
    {
      "t": 811.4,
      "ch": 1,
      "note": 40,
      "vel": 87,
      "dur": 25
    },
    {
      "t": 811.4,
      "ch": 1,
      "note": 42,
      "vel": 73,
      "dur": 25
    },
    {
      "t": 811.4,
      "ch": 1,
      "note": 36,
      "vel": 79,
      "dur": 25
    },
    {
      "t": 811.4,
      "ch": 1,
      "note": 38,
      "vel": 86,
      "dur": 25
    },
    {
      "t": 811.4,
      "ch": 1,
      "note": 40,
      "vel": 89,
      "dur": 25
    },
    {
      "t": 811.4,
      "ch": 1,
      "note": 42,
      "vel": 87,
      "dur": 25
    },
    {
      "t": 811.4,
      "ch": 1,
      "note": 36,
      "vel": 83,
      "dur": 25
    },
    {
      "t": 811.4,
      "ch": 1,
      "note": 38,
      "vel": 83,
      "dur": 25
    },
    {
      "t": 811.4,
      "ch": 1,
      "note": 40,
      "vel": 84,
      "dur": 25
    },
    {
      "t": 811.4,
      "ch": 1,
      "note": 42,
      "vel": 81,
      "dur": 25
    },
    {
      "t": 811.4,
      "ch": 1,
      "note": 36,
      "vel": 81,
      "dur": 25
    },
    {
      "t": 811.4,
      "ch": 1,
      "note": 38,
      "vel": 79,
      "dur": 25
    },
    {
      "t": 811.4,
      "ch": 1,
      "note": 40,
      "vel": 89,
      "dur": 25
    },
    {
      "t": 811.4,
      "ch": 1,
      "note": 42,
      "vel": 102,
      "dur": 25
    },
    {
      "t": 811.4,
      "ch": 1,
      "note": 36,
      "vel": 89,
      "dur": 25
    },
    {
      "t": 811.4,
      "ch": 1,
      "note": 38,
      "vel": 66,
      "dur": 25
    },
    {
      "t": 811.4,
      "ch": 1,
      "note": 40,
      "vel": 80,
      "dur": 25
    },
    {
      "t": 811.4,
      "ch": 1,
      "note": 42,
      "vel": 80,
      "dur": 25
    },
    {
      "t": 811.4,
      "ch": 1,
      "note": 36,
      "vel": 83,
      "dur": 25
    },
    {
      "t": 811.4,
      "ch": 1,
      "note": 38,
      "vel": 101,
      "dur": 25
    },
    {
      "t": 811.4,
      "ch": 1,
      "note": 40,
      "vel": 93,
      "dur": 25
    },
    {
      "t": 811.4,
      "ch": 1,
      "note": 42,
      "vel": 109,
      "dur": 25
    },
    {
      "t": 811.4,
      "ch": 1,
      "note": 36,
      "vel": 66,
      "dur": 25
    },
    {
      "t": 811.4,
      "ch": 1,
      "note": 38,
      "vel": 90,
      "dur": 25
    },
    {
      "t": 811.4,
      "ch": 1,
      "note": 40,
      "vel": 82,
      "dur": 25
    },
    {
      "t": 811.4,
      "ch": 1,
      "note": 42,
      "vel": 105,
      "dur": 25
    },
    {
      "t": 811.4,
      "ch": 1,
      "note": 36,
      "vel": 87,
      "dur": 25
    },
    {
      "t": 811.4,
      "ch": 1,
      "note": 38,
      "vel": 79,
      "dur": 25
    },
    {
      "t": 811.4,
      "ch": 1,
      "note": 40,
      "vel": 90,
      "dur": 25
    },
    {
      "t": 811.4,
      "ch": 1,
      "note": 42,
      "vel": 72,
      "dur": 25
    },
    {
      "t": 811.4,
      "ch": 1,
      "note": 36,
      "vel": 75,
      "dur": 25
    },
    {
      "t": 811.4,
      "ch": 1,
      "note": 38,
      "vel": 68,
      "dur": 25
    },
    {
      "t": 811.4,
      "ch": 1,
      "note": 40,
      "vel": 92,
      "dur": 25
    },
    {
      "t": 811.4,
      "ch": 1,
      "note": 42,
      "vel": 104,
      "dur": 25
    },
    {
      "t": 811.4,
      "ch": 1,
      "note": 36,
      "vel": 74,
      "dur": 25
    },
    {
      "t": 811.4,
      "ch": 1,
      "note": 38,
      "vel": 76,
      "dur": 25
    },
    {
      "t": 811.4,
      "ch": 1,
      "note": 40,
      "vel": 74,
      "dur": 25
    },
    {
      "t": 811.4,
      "ch": 1,
      "note": 42,
      "vel": 86,
      "dur": 25
    },
    {
      "t": 811.4,
      "ch": 1,
      "note": 36,
      "vel": 71,
      "dur": 25
    },
    {
      "t": 811.4,
      "ch": 1,
      "note": 38,
      "vel": 67,
      "dur": 25
    },
    {
      "t": 811.4,
      "ch": 1,
      "note": 40,
      "vel": 79,
      "dur": 25
    },
    {
      "t": 811.4,
      "ch": 1,
      "note": 42,
      "vel": 99,
      "dur": 25
    },
    {
      "t": 811.4,
      "ch": 1,
      "note": 36,
      "vel": 80,
      "dur": 25
    },
    {
      "t": 811.4,
      "ch": 1,
      "note": 38,
      "vel": 78,
      "dur": 25
    },
    {
      "t": 811.4,
      "ch": 1,
      "note": 40,
      "vel": 67,
      "dur": 25
    },
    {
      "t": 811.4,
      "ch": 1,
      "note": 42,
      "vel": 98,
      "dur": 25
    },
    {
      "t": 811.4,
      "ch": 1,
      "note": 36,
      "vel": 87,
      "dur": 25
    },
    {
      "t": 811.4,
      "ch": 1,
      "note": 38,
      "vel": 103,
      "dur": 25
    },
    {
      "t": 811.4,
      "ch": 1,
      "note": 40,
      "vel": 68,
      "dur": 25
    },
    {
      "t": 811.4,
      "ch": 1,
      "note": 42,
      "vel": 78,
      "dur": 25
    },
    {
      "t": 811.4,
      "ch": 1,
      "note": 36,
      "vel": 77,
      "dur": 25
    },
    {
      "t": 811.4,
      "ch": 1,
      "note": 38,
      "vel": 59,
      "dur": 25
    },
    {
      "t": 811.4,
      "ch": 1,
      "note": 40,
      "vel": 95,
      "dur": 25
    },
    {
      "t": 811.4,
      "ch": 1,
      "note": 42,
      "vel": 83,
      "dur": 25
    },
    {
      "t": 811.4,
      "ch": 1,
      "note": 36,
      "vel": 87,
      "dur": 25
    },
    {
      "t": 811.4,
      "ch": 1,
      "note": 38,
      "vel": 92,
      "dur": 25
    },
    {
      "t": 811.4,
      "ch": 1,
      "note": 40,
      "vel": 106,
      "dur": 25
    },
    {
      "t": 811.4,
      "ch": 1,
      "note": 42,
      "vel": 85,
      "dur": 25
    },
    {
      "t": 811.4,
      "ch": 1,
      "note": 36,
      "vel": 81,
      "dur": 25
    },
    {
      "t": 811.4,
      "ch": 1,
      "note": 38,
      "vel": 86,
      "dur": 25
    },
    {
      "t": 811.4,
      "ch": 1,
      "note": 40,
      "vel": 85,
      "dur": 25
    },
    {
      "t": 811.4,
      "ch": 1,
      "note": 42,
      "vel": 83,
      "dur": 25
    },
    {
      "t": 811.4,
      "ch": 1,
      "note": 36,
      "vel": 95,
      "dur": 25
    },
    {
      "t": 811.4,
      "ch": 1,
      "note": 38,
      "vel": 73,
      "dur": 25
    },
    {
      "t": 811.4,
      "ch": 1,
      "note": 40,
      "vel": 93,
      "dur": 25
    },
    {
      "t": 811.4,
      "ch": 1,
      "note": 42,
      "vel": 102,
      "dur": 25
    },
    {
      "t": 811.4,
      "ch": 1,
      "note": 36,
      "vel": 106,
      "dur": 25
    },
    {
      "t": 811.4,
      "ch": 1,
      "note": 38,
      "vel": 88,
      "dur": 25
    },
    {
      "t": 811.4,
      "ch": 1,
      "note": 40,
      "vel": 95,
      "dur": 25
    },
    {
      "t": 811.4,
      "ch": 1,
      "note": 42,
      "vel": 81,
      "dur": 25
    },
    {
      "t": 811.4,
      "ch": 1,
      "note": 36,
      "vel": 93,
      "dur": 25
    },
    {
      "t": 811.4,
      "ch": 1,
      "note": 38,
      "vel": 101,
      "dur": 25
    },
    {
      "t": 811.4,
      "ch": 1,
      "note": 40,
      "vel": 91,
      "dur": 25
    },
    {
      "t": 811.4,
      "ch": 1,
      "note": 42,
      "vel": 99,
      "dur": 25
    },
    {
      "t": 811.4,
      "ch": 1,
      "note": 36,
      "vel": 92,
      "dur": 25
    },
    {
      "t": 811.4,
      "ch": 1,
      "note": 38,
      "vel": 86,
      "dur": 25
    },
    {
      "t": 811.4,
      "ch": 1,
      "note": 40,
      "vel": 90,
      "dur": 25
    },
    {
      "t": 811.4,
      "ch": 1,
      "note": 42,
      "vel": 79,
      "dur": 25
    },
    {
      "t": 811.4,
      "ch": 1,
      "note": 36,
      "vel": 70,
      "dur": 25
    },
    {
      "t": 811.4,
      "ch": 1,
      "note": 38,
      "vel": 83,
      "dur": 25
    },
    {
      "t": 811.4,
      "ch": 1,
      "note": 40,
      "vel": 108,
      "dur": 25
    },
    {
      "t": 811.4,
      "ch": 1,
      "note": 42,
      "vel": 74,
      "dur": 25
    },
    {
      "t": 811.4,
      "ch": 1,
      "note": 36,
      "vel": 96,
      "dur": 25
    },
    {
      "t": 811.4,
      "ch": 1,
      "note": 38,
      "vel": 80,
      "dur": 25
    },
    {
      "t": 811.4,
      "ch": 1,
      "note": 40,
      "vel": 85,
      "dur": 25
    },
    {
      "t": 811.4,
      "ch": 1,
      "note": 42,
      "vel": 66,
      "dur": 25
    },
    {
      "t": 811.4,
      "ch": 1,
      "note": 36,
      "vel": 61,
      "dur": 25
    },
    {
      "t": 811.4,
      "ch": 1,
      "note": 38,
      "vel": 79,
      "dur": 25
    },
    {
      "t": 811.4,
      "ch": 1,
      "note": 40,
      "vel": 75,
      "dur": 25
    },
    {
      "t": 811.4,
      "ch": 1,
      "note": 42,
      "vel": 95,
      "dur": 25
    },
    {
      "t": 811.4,
      "ch": 1,
      "note": 36,
      "vel": 80,
      "dur": 25
    },
    {
      "t": 811.4,
      "ch": 1,
      "note": 38,
      "vel": 96,
      "dur": 25
    },
    {
      "t": 811.4,
      "ch": 1,
      "note": 40,
      "vel": 113,
      "dur": 25
    },
    {
      "t": 811.4,
      "ch": 1,
      "note": 42,
      "vel": 58,
      "dur": 25
    },
    {
      "t": 811.4,
      "ch": 1,
      "note": 36,
      "vel": 78,
      "dur": 25
    },
    {
      "t": 811.4,
      "ch": 1,
      "note": 38,
      "vel": 83,
      "dur": 25
    },
    {
      "t": 811.4,
      "ch": 1,
      "note": 40,
      "vel": 77,
      "dur": 25
    },
    {
      "t": 811.4,
      "ch": 1,
      "note": 42,
      "vel": 77,
      "dur": 25
    },
    {
      "t": 811.4,
      "ch": 1,
      "note": 36,
      "vel": 86,
      "dur": 25
    },
    {
      "t": 811.4,
      "ch": 1,
      "note": 38,
      "vel": 89,
      "dur": 25
    },
    {
      "t": 811.4,
      "ch": 1,
      "note": 40,
      "vel": 71,
      "dur": 25
    },
    {
      "t": 811.4,
      "ch": 1,
      "note": 42,
      "vel": 115,
      "dur": 25
    },
    {
      "t": 811.4,
      "ch": 1,
      "note": 36,
      "vel": 82,
      "dur": 25
    },
    {
      "t": 811.4,
      "ch": 1,
      "note": 38,
      "vel": 95,
      "dur": 25
    },
    {
      "t": 811.4,
      "ch": 1,
      "note": 40,
      "vel": 105,
      "dur": 25
    },
    {
      "t": 811.4,
      "ch": 1,
      "note": 42,
      "vel": 89,
      "dur": 25
    },
    {
      "t": 811.4,
      "ch": 1,
      "note": 36,
      "vel": 95,
      "dur": 25
    },
    {
      "t": 811.4,
      "ch": 1,
      "note": 38,
      "vel": 100,
      "dur": 25
    },
    {
      "t": 811.4,
      "ch": 1,
      "note": 40,
      "vel": 96,
      "dur": 25
    },
    {
      "t": 811.4,
      "ch": 1,
      "note": 42,
      "vel": 88,
      "dur": 25
    },
    {
      "t": 811.4,
      "ch": 1,
      "note": 36,
      "vel": 85,
      "dur": 25
    },
    {
      "t": 811.4,
      "ch": 1,
      "note": 38,
      "vel": 112,
      "dur": 25
    },
    {
      "t": 811.4,
      "ch": 1,
      "note": 40,
      "vel": 95,
      "dur": 25
    },
    {
      "t": 811.4,
      "ch": 1,
      "note": 42,
      "vel": 77,
      "dur": 25
    },
    {
      "t": 811.4,
      "ch": 1,
      "note": 36,
      "vel": 89,
      "dur": 25
    },
    {
      "t": 811.4,
      "ch": 1,
      "note": 38,
      "vel": 85,
      "dur": 25
    },
    {
      "t": 811.4,
      "ch": 1,
      "note": 40,
      "vel": 80,
      "dur": 25
    },
    {
      "t": 811.4,
      "ch": 1,
      "note": 42,
      "vel": 74,
      "dur": 25
    },
    {
      "t": 811.4,
      "ch": 1,
      "note": 36,
      "vel": 62,
      "dur": 25
    },
    {
      "t": 811.4,
      "ch": 1,
      "note": 38,
      "vel": 72,
      "dur": 25
    },
    {
      "t": 811.4,
      "ch": 1,
      "note": 40,
      "vel": 75,
      "dur": 25
    },
    {
      "t": 811.4,
      "ch": 1,
      "note": 42,
      "vel": 94,
      "dur": 25
    },
    {
      "t": 811.4,
      "ch": 1,
      "note": 36,
      "vel": 75,
      "dur": 25
    },
    {
      "t": 811.4,
      "ch": 1,
      "note": 38,
      "vel": 76,
      "dur": 25
    },
    {
      "t": 811.4,
      "ch": 1,
      "note": 40,
      "vel": 73,
      "dur": 25
    },
    {
      "t": 811.4,
      "ch": 1,
      "note": 42,
      "vel": 78,
      "dur": 25
    },
    {
      "t": 811.4,
      "ch": 1,
      "note": 36,
      "vel": 65,
      "dur": 25
    },
    {
      "t": 811.4,
      "ch": 1,
      "note": 38,
      "vel": 86,
      "dur": 25
    },
    {
      "t": 811.4,
      "ch": 1,
      "note": 40,
      "vel": 82,
      "dur": 25
    },
    {
      "t": 811.4,
      "ch": 1,
      "note": 42,
      "vel": 98,
      "dur": 25
    },
    {
      "t": 811.4,
      "ch": 1,
      "note": 36,
      "vel": 77,
      "dur": 25
    },
    {
      "t": 811.4,
      "ch": 1,
      "note": 38,
      "vel": 94,
      "dur": 25
    },
    {
      "t": 811.4,
      "ch": 1,
      "note": 40,
      "vel": 68,
      "dur": 25
    },
    {
      "t": 811.4,
      "ch": 1,
      "note": 42,
      "vel": 67,
      "dur": 25
    },
    {
      "t": 811.4,
      "ch": 1,
      "note": 36,
      "vel": 54,
      "dur": 25
    },
    {
      "t": 811.4,
      "ch": 1,
      "note": 38,
      "vel": 88,
      "dur": 25
    },
    {
      "t": 811.4,
      "ch": 1,
      "note": 40,
      "vel": 72,
      "dur": 25
    },
    {
      "t": 811.4,
      "ch": 1,
      "note": 42,
      "vel": 73,
      "dur": 25
    },
    {
      "t": 811.4,
      "ch": 1,
      "note": 36,
      "vel": 75,
      "dur": 25
    },
    {
      "t": 811.4,
      "ch": 1,
      "note": 38,
      "vel": 78,
      "dur": 25
    },
    {
      "t": 811.4,
      "ch": 1,
      "note": 40,
      "vel": 57,
      "dur": 25
    },
    {
      "t": 811.4,
      "ch": 1,
      "note": 42,
      "vel": 66,
      "dur": 25
    },
    {
      "t": 811.4,
      "ch": 1,
      "note": 36,
      "vel": 103,
      "dur": 25
    },
    {
      "t": 811.4,
      "ch": 1,
      "note": 38,
      "vel": 77,
      "dur": 25
    },
    {
      "t": 811.4,
      "ch": 1,
      "note": 40,
      "vel": 117,
      "dur": 25
    },
    {
      "t": 811.4,
      "ch": 1,
      "note": 42,
      "vel": 86,
      "dur": 25
    },
    {
      "t": 811.4,
      "ch": 1,
      "note": 36,
      "vel": 88,
      "dur": 25
    },
    {
      "t": 811.4,
      "ch": 1,
      "note": 38,
      "vel": 74,
      "dur": 25
    },
    {
      "t": 811.4,
      "ch": 1,
      "note": 40,
      "vel": 87,
      "dur": 25
    },
    {
      "t": 811.4,
      "ch": 1,
      "note": 42,
      "vel": 96,
      "dur": 25
    },
    {
      "t": 811.4,
      "ch": 1,
      "note": 36,
      "vel": 65,
      "dur": 25
    },
    {
      "t": 811.4,
      "ch": 1,
      "note": 38,
      "vel": 92,
      "dur": 25
    },
    {
      "t": 811.4,
      "ch": 1,
      "note": 40,
      "vel": 102,
      "dur": 25
    },
    {
      "t": 811.4,
      "ch": 1,
      "note": 42,
      "vel": 92,
      "dur": 25
    },
    {
      "t": 811.4,
      "ch": 1,
      "note": 36,
      "vel": 106,
      "dur": 25
    },
    {
      "t": 811.4,
      "ch": 1,
      "note": 38,
      "vel": 89,
      "dur": 25
    },
    {
      "t": 811.4,
      "ch": 1,
      "note": 40,
      "vel": 100,
      "dur": 25
    },
    {
      "t": 811.4,
      "ch": 1,
      "note": 42,
      "vel": 88,
      "dur": 25
    },
    {
      "t": 811.4,
      "ch": 1,
      "note": 36,
      "vel": 81,
      "dur": 25
    },
    {
      "t": 811.4,
      "ch": 1,
      "note": 38,
      "vel": 79,
      "dur": 25
    },
    {
      "t": 811.4,
      "ch": 1,
      "note": 40,
      "vel": 81,
      "dur": 25
    },
    {
      "t": 811.4,
      "ch": 1,
      "note": 42,
      "vel": 86,
      "dur": 25
    },
    {
      "t": 811.4,
      "ch": 1,
      "note": 36,
      "vel": 50,
      "dur": 25
    },
    {
      "t": 811.4,
      "ch": 1,
      "note": 38,
      "vel": 88,
      "dur": 25
    },
    {
      "t": 811.4,
      "ch": 1,
      "note": 40,
      "vel": 104,
      "dur": 25
    },
    {
      "t": 811.4,
      "ch": 1,
      "note": 42,
      "vel": 87,
      "dur": 25
    },
    {
      "t": 811.4,
      "ch": 1,
      "note": 36,
      "vel": 86,
      "dur": 25
    },
    {
      "t": 811.4,
      "ch": 1,
      "note": 38,
      "vel": 75,
      "dur": 25
    },
    {
      "t": 811.4,
      "ch": 1,
      "note": 40,
      "vel": 54,
      "dur": 25
    },
    {
      "t": 811.4,
      "ch": 1,
      "note": 42,
      "vel": 106,
      "dur": 25
    },
    {
      "t": 811.4,
      "ch": 1,
      "note": 36,
      "vel": 88,
      "dur": 25
    },
    {
      "t": 811.4,
      "ch": 1,
      "note": 38,
      "vel": 64,
      "dur": 25
    },
    {
      "t": 811.4,
      "ch": 1,
      "note": 40,
      "vel": 86,
      "dur": 25
    },
    {
      "t": 811.4,
      "ch": 1,
      "note": 42,
      "vel": 111,
      "dur": 25
    },
    {
      "t": 811.4,
      "ch": 1,
      "note": 36,
      "vel": 85,
      "dur": 25
    },
    {
      "t": 811.4,
      "ch": 1,
      "note": 38,
      "vel": 100,
      "dur": 25
    },
    {
      "t": 811.4,
      "ch": 1,
      "note": 40,
      "vel": 87,
      "dur": 25
    },
    {
      "t": 811.4,
      "ch": 1,
      "note": 42,
      "vel": 85,
      "dur": 25
    },
    {
      "t": 811.4,
      "ch": 1,
      "note": 36,
      "vel": 81,
      "dur": 25
    },
    {
      "t": 811.4,
      "ch": 1,
      "note": 38,
      "vel": 80,
      "dur": 25
    },
    {
      "t": 811.4,
      "ch": 1,
      "note": 40,
      "vel": 82,
      "dur": 25
    },
    {
      "t": 811.4,
      "ch": 1,
      "note": 42,
      "vel": 75,
      "dur": 25
    },
    {
      "t": 811.4,
      "ch": 1,
      "note": 36,
      "vel": 73,
      "dur": 25
    },
    {
      "t": 811.4,
      "ch": 1,
      "note": 38,
      "vel": 86,
      "dur": 25
    },
    {
      "t": 811.4,
      "ch": 1,
      "note": 40,
      "vel": 96,
      "dur": 25
    },
    {
      "t": 811.4,
      "ch": 1,
      "note": 42,
      "vel": 96,
      "dur": 25
    },
    {
      "t": 811.4,
      "ch": 1,
      "note": 36,
      "vel": 76,
      "dur": 25
    },
    {
      "t": 811.4,
      "ch": 1,
      "note": 38,
      "vel": 78,
      "dur": 25
    },
    {
      "t": 811.4,
      "ch": 1,
      "note": 40,
      "vel": 70,
      "dur": 25
    },
    {
      "t": 811.4,
      "ch": 1,
      "note": 42,
      "vel": 81,
      "dur": 25
    },
    {
      "t": 811.4,
      "ch": 1,
      "note": 36,
      "vel": 103,
      "dur": 25
    },
    {
      "t": 811.4,
      "ch": 1,
      "note": 38,
      "vel": 107,
      "dur": 25
    },
    {
      "t": 811.4,
      "ch": 1,
      "note": 40,
      "vel": 102,
      "dur": 25
    },
    {
      "t": 811.4,
      "ch": 1,
      "note": 42,
      "vel": 103,
      "dur": 25
    },
    {
      "t": 811.4,
      "ch": 1,
      "note": 36,
      "vel": 77,
      "dur": 25
    },
    {
      "t": 811.4,
      "ch": 1,
      "note": 38,
      "vel": 85,
      "dur": 25
    },
    {
      "t": 811.4,
      "ch": 1,
      "note": 40,
      "vel": 99,
      "dur": 25
    },
    {
      "t": 811.4,
      "ch": 1,
      "note": 42,
      "vel": 58,
      "dur": 25
    },
    {
      "t": 811.4,
      "ch": 1,
      "note": 36,
      "vel": 82,
      "dur": 25
    },
    {
      "t": 811.4,
      "ch": 1,
      "note": 38,
      "vel": 95,
      "dur": 25
    },
    {
      "t": 811.4,
      "ch": 1,
      "note": 40,
      "vel": 78,
      "dur": 25
    },
    {
      "t": 811.4,
      "ch": 1,
      "note": 42,
      "vel": 96,
      "dur": 25
    },
    {
      "t": 811.4,
      "ch": 1,
      "note": 36,
      "vel": 88,
      "dur": 25
    },
    {
      "t": 811.4,
      "ch": 1,
      "note": 38,
      "vel": 100,
      "dur": 25
    },
    {
      "t": 811.4,
      "ch": 1,
      "note": 40,
      "vel": 107,
      "dur": 25
    },
    {
      "t": 811.4,
      "ch": 1,
      "note": 42,
      "vel": 102,
      "dur": 25
    },
    {
      "t": 811.4,
      "ch": 1,
      "note": 36,
      "vel": 97,
      "dur": 25
    },
    {
      "t": 811.4,
      "ch": 1,
      "note": 38,
      "vel": 97,
      "dur": 25
    },
    {
      "t": 811.4,
      "ch": 1,
      "note": 40,
      "vel": 95,
      "dur": 25
    },
    {
      "t": 811.4,
      "ch": 1,
      "note": 42,
      "vel": 71,
      "dur": 25
    },
    {
      "t": 811.4,
      "ch": 1,
      "note": 36,
      "vel": 95,
      "dur": 25
    },
    {
      "t": 811.4,
      "ch": 1,
      "note": 38,
      "vel": 79,
      "dur": 25
    },
    {
      "t": 811.4,
      "ch": 1,
      "note": 40,
      "vel": 100,
      "dur": 25
    },
    {
      "t": 811.4,
      "ch": 1,
      "note": 42,
      "vel": 64,
      "dur": 25
    },
    {
      "t": 811.4,
      "ch": 1,
      "note": 36,
      "vel": 107,
      "dur": 25
    },
    {
      "t": 811.4,
      "ch": 1,
      "note": 38,
      "vel": 92,
      "dur": 25
    },
    {
      "t": 811.4,
      "ch": 1,
      "note": 40,
      "vel": 85,
      "dur": 25
    },
    {
      "t": 811.4,
      "ch": 1,
      "note": 42,
      "vel": 64,
      "dur": 25
    },
    {
      "t": 811.4,
      "ch": 1,
      "note": 36,
      "vel": 70,
      "dur": 25
    },
    {
      "t": 811.4,
      "ch": 1,
      "note": 38,
      "vel": 96,
      "dur": 25
    },
    {
      "t": 811.4,
      "ch": 1,
      "note": 40,
      "vel": 88,
      "dur": 25
    },
    {
      "t": 811.4,
      "ch": 1,
      "note": 42,
      "vel": 104,
      "dur": 25
    },
    {
      "t": 811.4,
      "ch": 1,
      "note": 36,
      "vel": 80,
      "dur": 25
    },
    {
      "t": 811.4,
      "ch": 1,
      "note": 38,
      "vel": 114,
      "dur": 25
    },
    {
      "t": 811.4,
      "ch": 1,
      "note": 40,
      "vel": 96,
      "dur": 25
    },
    {
      "t": 811.4,
      "ch": 1,
      "note": 42,
      "vel": 80,
      "dur": 25
    },
    {
      "t": 811.4,
      "ch": 1,
      "note": 36,
      "vel": 81,
      "dur": 25
    },
    {
      "t": 811.4,
      "ch": 1,
      "note": 38,
      "vel": 69,
      "dur": 25
    },
    {
      "t": 811.4,
      "ch": 1,
      "note": 40,
      "vel": 67,
      "dur": 25
    },
    {
      "t": 811.4,
      "ch": 1,
      "note": 42,
      "vel": 97,
      "dur": 25
    },
    {
      "t": 811.4,
      "ch": 1,
      "note": 36,
      "vel": 93,
      "dur": 25
    },
    {
      "t": 811.4,
      "ch": 1,
      "note": 38,
      "vel": 67,
      "dur": 25
    },
    {
      "t": 811.4,
      "ch": 1,
      "note": 40,
      "vel": 87,
      "dur": 25
    },
    {
      "t": 811.4,
      "ch": 1,
      "note": 42,
      "vel": 75,
      "dur": 25
    },
    {
      "t": 811.4,
      "ch": 1,
      "note": 36,
      "vel": 71,
      "dur": 25
    },
    {
      "t": 811.4,
      "ch": 1,
      "note": 38,
      "vel": 97,
      "dur": 25
    },
    {
      "t": 811.4,
      "ch": 1,
      "note": 40,
      "vel": 86,
      "dur": 25
    },
    {
      "t": 811.4,
      "ch": 1,
      "note": 42,
      "vel": 78,
      "dur": 25
    },
    {
      "t": 811.4,
      "ch": 1,
      "note": 36,
      "vel": 96,
      "dur": 25
    },
    {
      "t": 811.4,
      "ch": 1,
      "note": 38,
      "vel": 70,
      "dur": 25
    },
    {
      "t": 811.4,
      "ch": 1,
      "note": 40,
      "vel": 110,
      "dur": 25
    },
    {
      "t": 811.4,
      "ch": 1,
      "note": 42,
      "vel": 90,
      "dur": 25
    },
    {
      "t": 811.4,
      "ch": 1,
      "note": 36,
      "vel": 83,
      "dur": 25
    },
    {
      "t": 811.4,
      "ch": 1,
      "note": 38,
      "vel": 81,
      "dur": 25
    },
    {
      "t": 811.4,
      "ch": 1,
      "note": 40,
      "vel": 83,
      "dur": 25
    },
    {
      "t": 811.4,
      "ch": 1,
      "note": 42,
      "vel": 87,
      "dur": 25
    },
    {
      "t": 811.4,
      "ch": 1,
      "note": 36,
      "vel": 80,
      "dur": 25
    },
    {
      "t": 811.4,
      "ch": 1,
      "note": 38,
      "vel": 102,
      "dur": 25
    },
    {
      "t": 811.4,
      "ch": 1,
      "note": 40,
      "vel": 108,
      "dur": 25
    },
    {
      "t": 811.4,
      "ch": 1,
      "note": 42,
      "vel": 94,
      "dur": 25
    },
    {
      "t": 811.4,
      "ch": 1,
      "note": 36,
      "vel": 96,
      "dur": 25
    },
    {
      "t": 811.4,
      "ch": 1,
      "note": 38,
      "vel": 88,
      "dur": 25
    },
    {
      "t": 811.4,
      "ch": 1,
      "note": 40,
      "vel": 80,
      "dur": 25
    },
    {
      "t": 811.4,
      "ch": 1,
      "note": 42,
      "vel": 112,
      "dur": 25
    },
    {
      "t": 811.4,
      "ch": 1,
      "note": 36,
      "vel": 91,
      "dur": 25
    },
    {
      "t": 811.4,
      "ch": 1,
      "note": 38,
      "vel": 84,
      "dur": 25
    },
    {
      "t": 811.4,
      "ch": 1,
      "note": 40,
      "vel": 87,
      "dur": 25
    },
    {
      "t": 811.4,
      "ch": 1,
      "note": 42,
      "vel": 102,
      "dur": 25
    },
    {
      "t": 811.4,
      "ch": 1,
      "note": 36,
      "vel": 60,
      "dur": 25
    },
    {
      "t": 811.4,
      "ch": 1,
      "note": 38,
      "vel": 74,
      "dur": 25
    },
    {
      "t": 811.4,
      "ch": 1,
      "note": 40,
      "vel": 106,
      "dur": 25
    },
    {
      "t": 811.4,
      "ch": 1,
      "note": 42,
      "vel": 80,
      "dur": 25
    },
    {
      "t": 811.4,
      "ch": 1,
      "note": 36,
      "vel": 87,
      "dur": 25
    },
    {
      "t": 811.4,
      "ch": 1,
      "note": 38,
      "vel": 88,
      "dur": 25
    },
    {
      "t": 811.4,
      "ch": 1,
      "note": 40,
      "vel": 82,
      "dur": 25
    },
    {
      "t": 811.4,
      "ch": 1,
      "note": 42,
      "vel": 89,
      "dur": 25
    },
    {
      "t": 811.4,
      "ch": 1,
      "note": 36,
      "vel": 106,
      "dur": 25
    },
    {
      "t": 811.4,
      "ch": 1,
      "note": 38,
      "vel": 95,
      "dur": 25
    },
    {
      "t": 811.4,
      "ch": 1,
      "note": 40,
      "vel": 94,
      "dur": 25
    },
    {
      "t": 811.4,
      "ch": 1,
      "note": 42,
      "vel": 90,
      "dur": 25
    },
    {
      "t": 811.4,
      "ch": 1,
      "note": 36,
      "vel": 86,
      "dur": 25
    },
    {
      "t": 811.4,
      "ch": 1,
      "note": 38,
      "vel": 90,
      "dur": 25
    },
    {
      "t": 811.4,
      "ch": 1,
      "note": 40,
      "vel": 93,
      "dur": 25
    },
    {
      "t": 811.4,
      "ch": 1,
      "note": 42,
      "vel": 89,
      "dur": 25
    },
    {
      "t": 811.4,
      "ch": 1,
      "note": 36,
      "vel": 101,
      "dur": 25
    },
    {
      "t": 811.4,
      "ch": 1,
      "note": 38,
      "vel": 80,
      "dur": 25
    },
    {
      "t": 811.4,
      "ch": 1,
      "note": 40,
      "vel": 110,
      "dur": 25
    },
    {
      "t": 811.4,
      "ch": 1,
      "note": 42,
      "vel": 84,
      "dur": 25
    },
    {
      "t": 811.4,
      "ch": 1,
      "note": 36,
      "vel": 102,
      "dur": 25
    },
    {
      "t": 811.4,
      "ch": 1,
      "note": 38,
      "vel": 89,
      "dur": 25
    },
    {
      "t": 811.4,
      "ch": 1,
      "note": 40,
      "vel": 66,
      "dur": 25
    },
    {
      "t": 811.4,
      "ch": 1,
      "note": 42,
      "vel": 92,
      "dur": 25
    },
    {
      "t": 811.4,
      "ch": 1,
      "note": 36,
      "vel": 68,
      "dur": 25
    },
    {
      "t": 811.4,
      "ch": 1,
      "note": 38,
      "vel": 91,
      "dur": 25
    },
    {
      "t": 811.4,
      "ch": 1,
      "note": 40,
      "vel": 80,
      "dur": 25
    },
    {
      "t": 811.4,
      "ch": 1,
      "note": 42,
      "vel": 102,
      "dur": 25
    },
    {
      "t": 811.4,
      "ch": 1,
      "note": 36,
      "vel": 53,
      "dur": 25
    },
    {
      "t": 811.4,
      "ch": 1,
      "note": 38,
      "vel": 72,
      "dur": 25
    },
    {
      "t": 811.4,
      "ch": 1,
      "note": 40,
      "vel": 112,
      "dur": 25
    },
    {
      "t": 811.4,
      "ch": 1,
      "note": 42,
      "vel": 61,
      "dur": 25
    },
    {
      "t": 811.4,
      "ch": 1,
      "note": 36,
      "vel": 104,
      "dur": 25
    },
    {
      "t": 811.4,
      "ch": 1,
      "note": 38,
      "vel": 94,
      "dur": 25
    },
    {
      "t": 811.4,
      "ch": 1,
      "note": 40,
      "vel": 83,
      "dur": 25
    },
    {
      "t": 811.4,
      "ch": 1,
      "note": 42,
      "vel": 72,
      "dur": 25
    },
    {
      "t": 811.4,
      "ch": 1,
      "note": 36,
      "vel": 68,
      "dur": 25
    },
    {
      "t": 811.4,
      "ch": 1,
      "note": 38,
      "vel": 72,
      "dur": 25
    },
    {
      "t": 811.4,
      "ch": 1,
      "note": 40,
      "vel": 82,
      "dur": 25
    },
    {
      "t": 811.4,
      "ch": 1,
      "note": 42,
      "vel": 89,
      "dur": 25
    },
    {
      "t": 811.4,
      "ch": 1,
      "note": 36,
      "vel": 82,
      "dur": 25
    },
    {
      "t": 811.4,
      "ch": 1,
      "note": 38,
      "vel": 85,
      "dur": 25
    },
    {
      "t": 811.4,
      "ch": 1,
      "note": 40,
      "vel": 84,
      "dur": 25
    },
    {
      "t": 811.4,
      "ch": 1,
      "note": 42,
      "vel": 90,
      "dur": 25
    },
    {
      "t": 811.4,
      "ch": 1,
      "note": 36,
      "vel": 100,
      "dur": 25
    },
    {
      "t": 811.4,
      "ch": 1,
      "note": 38,
      "vel": 67,
      "dur": 25
    },
    {
      "t": 811.4,
      "ch": 1,
      "note": 40,
      "vel": 92,
      "dur": 25
    },
    {
      "t": 811.4,
      "ch": 1,
      "note": 42,
      "vel": 62,
      "dur": 25
    },
    {
      "t": 811.4,
      "ch": 1,
      "note": 36,
      "vel": 107,
      "dur": 25
    },
    {
      "t": 811.4,
      "ch": 1,
      "note": 38,
      "vel": 81,
      "dur": 25
    },
    {
      "t": 811.4,
      "ch": 1,
      "note": 40,
      "vel": 89,
      "dur": 25
    },
    {
      "t": 811.4,
      "ch": 1,
      "note": 42,
      "vel": 70,
      "dur": 25
    },
    {
      "t": 811.4,
      "ch": 1,
      "note": 36,
      "vel": 79,
      "dur": 25
    },
    {
      "t": 811.4,
      "ch": 1,
      "note": 38,
      "vel": 72,
      "dur": 25
    },
    {
      "t": 811.4,
      "ch": 1,
      "note": 40,
      "vel": 86,
      "dur": 25
    },
    {
      "t": 811.4,
      "ch": 1,
      "note": 42,
      "vel": 80,
      "dur": 25
    },
    {
      "t": 811.4,
      "ch": 7,
      "note": 48,
      "vel": 70,
      "dur": 80
    },
    {
      "t": 811.4,
      "ch": 7,
      "note": 45,
      "vel": 81,
      "dur": 80
    },
    {
      "t": 811.4,
      "ch": 7,
      "note": 36,
      "vel": 82,
      "dur": 80
    },
    {
      "t": 811.4,
      "ch": 7,
      "note": 38,
      "vel": 79,
      "dur": 80
    },
    {
      "t": 811.6,
      "ch": 1,
      "note": 36,
      "vel": 96,
      "dur": 25
    },
    {
      "t": 811.6,
      "ch": 1,
      "note": 38,
      "vel": 92,
      "dur": 25
    },
    {
      "t": 811.8,
      "ch": 1,
      "note": 40,
      "vel": 71,
      "dur": 25
    },
    {
      "t": 811.8,
      "ch": 1,
      "note": 42,
      "vel": 68,
      "dur": 25
    },
    {
      "t": 811.8,
      "ch": 7,
      "note": 36,
      "vel": 62,
      "dur": 80
    },
    {
      "t": 811.9,
      "ch": 1,
      "note": 36,
      "vel": 97,
      "dur": 25
    },
    {
      "t": 812,
      "ch": 1,
      "note": 38,
      "vel": 76,
      "dur": 25
    },
    {
      "t": 812.1,
      "ch": 1,
      "note": 40,
      "vel": 53,
      "dur": 25
    },
    {
      "t": 812.1,
      "ch": 1,
      "note": 42,
      "vel": 105,
      "dur": 25
    },
    {
      "t": 812.1,
      "ch": 7,
      "note": 48,
      "vel": 75,
      "dur": 80
    },
    {
      "t": 812.1,
      "ch": 7,
      "note": 36,
      "vel": 70,
      "dur": 80
    },
    {
      "t": 812.3,
      "ch": 1,
      "note": 36,
      "vel": 78,
      "dur": 25
    },
    {
      "t": 812.3,
      "ch": 1,
      "note": 38,
      "vel": 99,
      "dur": 25
    },
    {
      "t": 812.3,
      "ch": 7,
      "note": 45,
      "vel": 69,
      "dur": 80
    },
    {
      "t": 812.3,
      "ch": 7,
      "note": 38,
      "vel": 54,
      "dur": 80
    },
    {
      "t": 812.5,
      "ch": 1,
      "note": 40,
      "vel": 70,
      "dur": 25
    },
    {
      "t": 812.5,
      "ch": 1,
      "note": 42,
      "vel": 63,
      "dur": 25
    },
    {
      "t": 812.5,
      "ch": 0,
      "note": 36,
      "vel": 81,
      "dur": 55
    },
    {
      "t": 812.6,
      "ch": 1,
      "note": 36,
      "vel": 74,
      "dur": 25
    },
    {
      "t": 812.7,
      "ch": 1,
      "note": 38,
      "vel": 68,
      "dur": 25
    },
    {
      "t": 812.8,
      "ch": 1,
      "note": 40,
      "vel": 102,
      "dur": 25
    },
    {
      "t": 812.8,
      "ch": 1,
      "note": 42,
      "vel": 88,
      "dur": 25
    },
    {
      "t": 812.8,
      "ch": 7,
      "note": 48,
      "vel": 60,
      "dur": 80
    },
    {
      "t": 812.8,
      "ch": 7,
      "note": 36,
      "vel": 60,
      "dur": 80
    },
    {
      "t": 813,
      "ch": 1,
      "note": 36,
      "vel": 80,
      "dur": 25
    },
    {
      "t": 813,
      "ch": 1,
      "note": 38,
      "vel": 84,
      "dur": 25
    },
    {
      "t": 813.1,
      "ch": 1,
      "note": 40,
      "vel": 83,
      "dur": 25
    },
    {
      "t": 813.2,
      "ch": 1,
      "note": 42,
      "vel": 66,
      "dur": 25
    },
    {
      "t": 813.2,
      "ch": 7,
      "note": 45,
      "vel": 58,
      "dur": 80
    },
    {
      "t": 813.2,
      "ch": 7,
      "note": 36,
      "vel": 58,
      "dur": 80
    },
    {
      "t": 813.2,
      "ch": 7,
      "note": 38,
      "vel": 68,
      "dur": 80
    },
    {
      "t": 813.3,
      "ch": 1,
      "note": 36,
      "vel": 75,
      "dur": 25
    },
    {
      "t": 813.3,
      "ch": 1,
      "note": 38,
      "vel": 81,
      "dur": 25
    },
    {
      "t": 813.5,
      "ch": 1,
      "note": 40,
      "vel": 69,
      "dur": 25
    },
    {
      "t": 813.5,
      "ch": 1,
      "note": 42,
      "vel": 75,
      "dur": 25
    },
    {
      "t": 813.5,
      "ch": 7,
      "note": 48,
      "vel": 54,
      "dur": 80
    },
    {
      "t": 813.5,
      "ch": 7,
      "note": 36,
      "vel": 66,
      "dur": 80
    },
    {
      "t": 813.7,
      "ch": 1,
      "note": 36,
      "vel": 91,
      "dur": 25
    },
    {
      "t": 813.7,
      "ch": 1,
      "note": 38,
      "vel": 61,
      "dur": 25
    },
    {
      "t": 813.9,
      "ch": 1,
      "note": 40,
      "vel": 103,
      "dur": 25
    },
    {
      "t": 813.9,
      "ch": 1,
      "note": 42,
      "vel": 75,
      "dur": 25
    },
    {
      "t": 813.9,
      "ch": 0,
      "note": 36,
      "vel": 85,
      "dur": 55
    },
    {
      "t": 814,
      "ch": 1,
      "note": 36,
      "vel": 80,
      "dur": 25
    },
    {
      "t": 814,
      "ch": 1,
      "note": 38,
      "vel": 72,
      "dur": 25
    },
    {
      "t": 814.2,
      "ch": 1,
      "note": 40,
      "vel": 69,
      "dur": 25
    },
    {
      "t": 814.2,
      "ch": 1,
      "note": 42,
      "vel": 69,
      "dur": 25
    },
    {
      "t": 814.2,
      "ch": 7,
      "note": 48,
      "vel": 67,
      "dur": 80
    },
    {
      "t": 814.2,
      "ch": 7,
      "note": 45,
      "vel": 65,
      "dur": 80
    },
    {
      "t": 814.2,
      "ch": 7,
      "note": 36,
      "vel": 65,
      "dur": 80
    },
    {
      "t": 814.2,
      "ch": 7,
      "note": 38,
      "vel": 71,
      "dur": 80
    },
    {
      "t": 814.4,
      "ch": 1,
      "note": 36,
      "vel": 85,
      "dur": 25
    },
    {
      "t": 814.4,
      "ch": 1,
      "note": 38,
      "vel": 72,
      "dur": 25
    },
    {
      "t": 814.5,
      "ch": 1,
      "note": 40,
      "vel": 67,
      "dur": 25
    },
    {
      "t": 814.6,
      "ch": 1,
      "note": 42,
      "vel": 71,
      "dur": 25
    },
    {
      "t": 814.6,
      "ch": 7,
      "note": 36,
      "vel": 69,
      "dur": 80
    },
    {
      "t": 814.6,
      "ch": 5,
      "note": 66,
      "vel": 34,
      "dur": 934
    },
    {
      "t": 814.6,
      "ch": 6,
      "note": 66,
      "vel": 6,
      "dur": 623
    },
    {
      "t": 814.7,
      "ch": 1,
      "note": 36,
      "vel": 57,
      "dur": 25
    },
    {
      "t": 814.7,
      "ch": 1,
      "note": 38,
      "vel": 79,
      "dur": 25
    },
    {
      "t": 814.9,
      "ch": 1,
      "note": 40,
      "vel": 61,
      "dur": 25
    },
    {
      "t": 814.9,
      "ch": 1,
      "note": 42,
      "vel": 76,
      "dur": 25
    },
    {
      "t": 814.9,
      "ch": 7,
      "note": 48,
      "vel": 74,
      "dur": 80
    },
    {
      "t": 814.9,
      "ch": 7,
      "note": 36,
      "vel": 66,
      "dur": 80
    },
    {
      "t": 815.1,
      "ch": 1,
      "note": 36,
      "vel": 90,
      "dur": 25
    },
    {
      "t": 815.1,
      "ch": 1,
      "note": 38,
      "vel": 84,
      "dur": 25
    },
    {
      "t": 815.1,
      "ch": 7,
      "note": 45,
      "vel": 65,
      "dur": 80
    },
    {
      "t": 815.1,
      "ch": 7,
      "note": 38,
      "vel": 67,
      "dur": 80
    },
    {
      "t": 815.2,
      "ch": 1,
      "note": 40,
      "vel": 74,
      "dur": 25
    },
    {
      "t": 815.3,
      "ch": 1,
      "note": 42,
      "vel": 68,
      "dur": 25
    },
    {
      "t": 815.4,
      "ch": 1,
      "note": 36,
      "vel": 77,
      "dur": 25
    },
    {
      "t": 815.4,
      "ch": 1,
      "note": 38,
      "vel": 59,
      "dur": 25
    },
    {
      "t": 815.5,
      "ch": 2,
      "note": 58,
      "vel": 57,
      "dur": 20930
    },
    {
      "t": 815.5,
      "ch": 2,
      "note": 70,
      "vel": 40,
      "dur": 20930
    },
    {
      "t": 815.6,
      "ch": 1,
      "note": 40,
      "vel": 59,
      "dur": 25
    },
    {
      "t": 815.6,
      "ch": 1,
      "note": 42,
      "vel": 99,
      "dur": 25
    },
    {
      "t": 815.6,
      "ch": 7,
      "note": 48,
      "vel": 80,
      "dur": 80
    },
    {
      "t": 815.6,
      "ch": 7,
      "note": 36,
      "vel": 73,
      "dur": 80
    },
    {
      "t": 815.8,
      "ch": 1,
      "note": 36,
      "vel": 87,
      "dur": 25
    },
    {
      "t": 815.8,
      "ch": 1,
      "note": 38,
      "vel": 83,
      "dur": 25
    },
    {
      "t": 816,
      "ch": 1,
      "note": 40,
      "vel": 73,
      "dur": 25
    },
    {
      "t": 816,
      "ch": 1,
      "note": 42,
      "vel": 96,
      "dur": 25
    },
    {
      "t": 816,
      "ch": 7,
      "note": 45,
      "vel": 74,
      "dur": 80
    },
    {
      "t": 816,
      "ch": 7,
      "note": 36,
      "vel": 71,
      "dur": 80
    },
    {
      "t": 816,
      "ch": 7,
      "note": 38,
      "vel": 63,
      "dur": 80
    },
    {
      "t": 816.1,
      "ch": 1,
      "note": 36,
      "vel": 69,
      "dur": 25
    },
    {
      "t": 816.1,
      "ch": 1,
      "note": 38,
      "vel": 80,
      "dur": 25
    },
    {
      "t": 816.3,
      "ch": 1,
      "note": 40,
      "vel": 84,
      "dur": 25
    },
    {
      "t": 816.3,
      "ch": 1,
      "note": 42,
      "vel": 78,
      "dur": 25
    },
    {
      "t": 816.3,
      "ch": 7,
      "note": 48,
      "vel": 74,
      "dur": 80
    },
    {
      "t": 816.3,
      "ch": 7,
      "note": 36,
      "vel": 75,
      "dur": 80
    },
    {
      "t": 816.5,
      "ch": 1,
      "note": 36,
      "vel": 104,
      "dur": 25
    },
    {
      "t": 816.5,
      "ch": 1,
      "note": 38,
      "vel": 70,
      "dur": 25
    },
    {
      "t": 816.6,
      "ch": 1,
      "note": 40,
      "vel": 74,
      "dur": 25
    },
    {
      "t": 816.7,
      "ch": 1,
      "note": 42,
      "vel": 88,
      "dur": 25
    },
    {
      "t": 816.8,
      "ch": 1,
      "note": 36,
      "vel": 55,
      "dur": 25
    },
    {
      "t": 816.8,
      "ch": 1,
      "note": 38,
      "vel": 90,
      "dur": 25
    },
    {
      "t": 817,
      "ch": 1,
      "note": 40,
      "vel": 77,
      "dur": 25
    },
    {
      "t": 817,
      "ch": 0,
      "note": 36,
      "vel": 119,
      "dur": 55
    },
    {
      "t": 817,
      "ch": 1,
      "note": 42,
      "vel": 69,
      "dur": 25
    },
    {
      "t": 817,
      "ch": 7,
      "note": 48,
      "vel": 61,
      "dur": 80
    },
    {
      "t": 817,
      "ch": 7,
      "note": 45,
      "vel": 81,
      "dur": 80
    },
    {
      "t": 817,
      "ch": 7,
      "note": 36,
      "vel": 78,
      "dur": 80
    },
    {
      "t": 817,
      "ch": 7,
      "note": 38,
      "vel": 73,
      "dur": 80
    },
    {
      "t": 817.2,
      "ch": 1,
      "note": 36,
      "vel": 54,
      "dur": 25
    },
    {
      "t": 817.2,
      "ch": 1,
      "note": 38,
      "vel": 71,
      "dur": 25
    },
    {
      "t": 817.3,
      "ch": 1,
      "note": 40,
      "vel": 66,
      "dur": 25
    },
    {
      "t": 817.4,
      "ch": 1,
      "note": 42,
      "vel": 66,
      "dur": 25
    },
    {
      "t": 817.4,
      "ch": 7,
      "note": 36,
      "vel": 49,
      "dur": 80
    },
    {
      "t": 817.5,
      "ch": 1,
      "note": 36,
      "vel": 74,
      "dur": 25
    },
    {
      "t": 817.5,
      "ch": 1,
      "note": 38,
      "vel": 65,
      "dur": 25
    },
    {
      "t": 817.7,
      "ch": 1,
      "note": 40,
      "vel": 80,
      "dur": 25
    },
    {
      "t": 817.7,
      "ch": 1,
      "note": 42,
      "vel": 79,
      "dur": 25
    },
    {
      "t": 817.7,
      "ch": 7,
      "note": 48,
      "vel": 69,
      "dur": 80
    },
    {
      "t": 817.7,
      "ch": 7,
      "note": 36,
      "vel": 73,
      "dur": 80
    },
    {
      "t": 817.9,
      "ch": 1,
      "note": 36,
      "vel": 71,
      "dur": 25
    },
    {
      "t": 817.9,
      "ch": 1,
      "note": 38,
      "vel": 80,
      "dur": 25
    },
    {
      "t": 817.9,
      "ch": 7,
      "note": 45,
      "vel": 57,
      "dur": 80
    },
    {
      "t": 817.9,
      "ch": 7,
      "note": 38,
      "vel": 64,
      "dur": 80
    },
    {
      "t": 818,
      "ch": 1,
      "note": 40,
      "vel": 69,
      "dur": 25
    },
    {
      "t": 818.1,
      "ch": 1,
      "note": 42,
      "vel": 73,
      "dur": 25
    },
    {
      "t": 818.2,
      "ch": 1,
      "note": 36,
      "vel": 71,
      "dur": 25
    },
    {
      "t": 818.2,
      "ch": 1,
      "note": 38,
      "vel": 59,
      "dur": 25
    },
    {
      "t": 818.4,
      "ch": 1,
      "note": 40,
      "vel": 59,
      "dur": 25
    },
    {
      "t": 818.4,
      "ch": 0,
      "note": 36,
      "vel": 93,
      "dur": 55
    },
    {
      "t": 818.4,
      "ch": 1,
      "note": 42,
      "vel": 75,
      "dur": 25
    },
    {
      "t": 818.4,
      "ch": 7,
      "note": 48,
      "vel": 68,
      "dur": 80
    },
    {
      "t": 818.4,
      "ch": 7,
      "note": 36,
      "vel": 73,
      "dur": 80
    },
    {
      "t": 818.6,
      "ch": 1,
      "note": 36,
      "vel": 91,
      "dur": 25
    },
    {
      "t": 818.6,
      "ch": 1,
      "note": 38,
      "vel": 83,
      "dur": 25
    },
    {
      "t": 818.7,
      "ch": 1,
      "note": 40,
      "vel": 46,
      "dur": 25
    },
    {
      "t": 818.8,
      "ch": 1,
      "note": 42,
      "vel": 88,
      "dur": 25
    },
    {
      "t": 818.8,
      "ch": 7,
      "note": 45,
      "vel": 53,
      "dur": 80
    },
    {
      "t": 818.8,
      "ch": 7,
      "note": 36,
      "vel": 53,
      "dur": 80
    },
    {
      "t": 818.8,
      "ch": 7,
      "note": 38,
      "vel": 66,
      "dur": 80
    },
    {
      "t": 818.9,
      "ch": 1,
      "note": 36,
      "vel": 59,
      "dur": 25
    },
    {
      "t": 818.9,
      "ch": 1,
      "note": 38,
      "vel": 50,
      "dur": 25
    },
    {
      "t": 819.1,
      "ch": 1,
      "note": 40,
      "vel": 62,
      "dur": 25
    },
    {
      "t": 819.1,
      "ch": 1,
      "note": 42,
      "vel": 99,
      "dur": 25
    },
    {
      "t": 819.1,
      "ch": 7,
      "note": 48,
      "vel": 62,
      "dur": 80
    },
    {
      "t": 819.1,
      "ch": 7,
      "note": 36,
      "vel": 76,
      "dur": 80
    },
    {
      "t": 819.3,
      "ch": 1,
      "note": 36,
      "vel": 95,
      "dur": 25
    },
    {
      "t": 819.3,
      "ch": 1,
      "note": 38,
      "vel": 77,
      "dur": 25
    },
    {
      "t": 819.4,
      "ch": 1,
      "note": 40,
      "vel": 72,
      "dur": 25
    },
    {
      "t": 819.5,
      "ch": 1,
      "note": 42,
      "vel": 90,
      "dur": 25
    },
    {
      "t": 819.5,
      "ch": 0,
      "note": 36,
      "vel": 85,
      "dur": 55
    },
    {
      "t": 819.6,
      "ch": 1,
      "note": 36,
      "vel": 70,
      "dur": 25
    },
    {
      "t": 819.6,
      "ch": 1,
      "note": 38,
      "vel": 74,
      "dur": 25
    },
    {
      "t": 819.8,
      "ch": 1,
      "note": 40,
      "vel": 80,
      "dur": 25
    },
    {
      "t": 819.8,
      "ch": 0,
      "note": 36,
      "vel": 114,
      "dur": 55
    },
    {
      "t": 819.8,
      "ch": 1,
      "note": 42,
      "vel": 55,
      "dur": 25
    },
    {
      "t": 819.8,
      "ch": 7,
      "note": 48,
      "vel": 75,
      "dur": 80
    },
    {
      "t": 819.8,
      "ch": 7,
      "note": 45,
      "vel": 79,
      "dur": 80
    },
    {
      "t": 819.8,
      "ch": 7,
      "note": 36,
      "vel": 82,
      "dur": 80
    },
    {
      "t": 819.8,
      "ch": 7,
      "note": 38,
      "vel": 70,
      "dur": 80
    },
    {
      "t": 820,
      "ch": 1,
      "note": 36,
      "vel": 94,
      "dur": 25
    },
    {
      "t": 820,
      "ch": 1,
      "note": 38,
      "vel": 56,
      "dur": 25
    },
    {
      "t": 820.1,
      "ch": 1,
      "note": 40,
      "vel": 86,
      "dur": 25
    },
    {
      "t": 820.1,
      "ch": 1,
      "note": 42,
      "vel": 85,
      "dur": 25
    },
    {
      "t": 820.2,
      "ch": 7,
      "note": 36,
      "vel": 53,
      "dur": 80
    },
    {
      "t": 820.3,
      "ch": 1,
      "note": 36,
      "vel": 47,
      "dur": 25
    },
    {
      "t": 820.3,
      "ch": 1,
      "note": 38,
      "vel": 84,
      "dur": 25
    },
    {
      "t": 820.5,
      "ch": 1,
      "note": 40,
      "vel": 67,
      "dur": 25
    },
    {
      "t": 820.5,
      "ch": 1,
      "note": 42,
      "vel": 99,
      "dur": 25
    },
    {
      "t": 820.5,
      "ch": 7,
      "note": 48,
      "vel": 67,
      "dur": 80
    },
    {
      "t": 820.5,
      "ch": 7,
      "note": 36,
      "vel": 74,
      "dur": 80
    },
    {
      "t": 820.7,
      "ch": 1,
      "note": 36,
      "vel": 76,
      "dur": 25
    },
    {
      "t": 820.7,
      "ch": 1,
      "note": 38,
      "vel": 89,
      "dur": 25
    },
    {
      "t": 820.7,
      "ch": 7,
      "note": 45,
      "vel": 64,
      "dur": 80
    },
    {
      "t": 820.7,
      "ch": 7,
      "note": 38,
      "vel": 66,
      "dur": 80
    },
    {
      "t": 820.8,
      "ch": 1,
      "note": 40,
      "vel": 64,
      "dur": 25
    },
    {
      "t": 820.8,
      "ch": 1,
      "note": 42,
      "vel": 61,
      "dur": 25
    },
    {
      "t": 821,
      "ch": 1,
      "note": 36,
      "vel": 61,
      "dur": 25
    },
    {
      "t": 821,
      "ch": 1,
      "note": 38,
      "vel": 91,
      "dur": 25
    },
    {
      "t": 821.2,
      "ch": 1,
      "note": 40,
      "vel": 95,
      "dur": 25
    },
    {
      "t": 821.2,
      "ch": 0,
      "note": 36,
      "vel": 103,
      "dur": 55
    },
    {
      "t": 821.2,
      "ch": 1,
      "note": 42,
      "vel": 98,
      "dur": 25
    },
    {
      "t": 821.2,
      "ch": 7,
      "note": 48,
      "vel": 79,
      "dur": 80
    },
    {
      "t": 821.2,
      "ch": 7,
      "note": 36,
      "vel": 70,
      "dur": 80
    },
    {
      "t": 821.4,
      "ch": 1,
      "note": 36,
      "vel": 93,
      "dur": 25
    },
    {
      "t": 821.4,
      "ch": 1,
      "note": 38,
      "vel": 80,
      "dur": 25
    },
    {
      "t": 821.5,
      "ch": 1,
      "note": 40,
      "vel": 96,
      "dur": 25
    },
    {
      "t": 821.5,
      "ch": 1,
      "note": 42,
      "vel": 83,
      "dur": 25
    },
    {
      "t": 821.5,
      "ch": 7,
      "note": 45,
      "vel": 60,
      "dur": 80
    },
    {
      "t": 821.5,
      "ch": 7,
      "note": 36,
      "vel": 48,
      "dur": 80
    },
    {
      "t": 821.5,
      "ch": 7,
      "note": 38,
      "vel": 62,
      "dur": 80
    },
    {
      "t": 821.7,
      "ch": 1,
      "note": 36,
      "vel": 64,
      "dur": 25
    },
    {
      "t": 821.7,
      "ch": 1,
      "note": 38,
      "vel": 82,
      "dur": 25
    },
    {
      "t": 821.9,
      "ch": 1,
      "note": 40,
      "vel": 78,
      "dur": 25
    },
    {
      "t": 821.9,
      "ch": 1,
      "note": 42,
      "vel": 86,
      "dur": 25
    },
    {
      "t": 821.9,
      "ch": 7,
      "note": 48,
      "vel": 62,
      "dur": 80
    },
    {
      "t": 821.9,
      "ch": 7,
      "note": 36,
      "vel": 65,
      "dur": 80
    },
    {
      "t": 822.1,
      "ch": 1,
      "note": 36,
      "vel": 82,
      "dur": 25
    },
    {
      "t": 822.1,
      "ch": 1,
      "note": 38,
      "vel": 97,
      "dur": 25
    },
    {
      "t": 822.2,
      "ch": 1,
      "note": 40,
      "vel": 84,
      "dur": 25
    },
    {
      "t": 822.2,
      "ch": 1,
      "note": 42,
      "vel": 73,
      "dur": 25
    },
    {
      "t": 822.3,
      "ch": 0,
      "note": 36,
      "vel": 76,
      "dur": 55
    },
    {
      "t": 822.4,
      "ch": 1,
      "note": 36,
      "vel": 61,
      "dur": 25
    },
    {
      "t": 822.4,
      "ch": 1,
      "note": 38,
      "vel": 90,
      "dur": 25
    },
    {
      "t": 822.6,
      "ch": 1,
      "note": 40,
      "vel": 85,
      "dur": 25
    },
    {
      "t": 822.6,
      "ch": 7,
      "note": 48,
      "vel": 62,
      "dur": 80
    },
    {
      "t": 822.6,
      "ch": 7,
      "note": 45,
      "vel": 80,
      "dur": 80
    },
    {
      "t": 822.6,
      "ch": 7,
      "note": 36,
      "vel": 73,
      "dur": 80
    },
    {
      "t": 822.6,
      "ch": 7,
      "note": 38,
      "vel": 68,
      "dur": 80
    },
    {
      "t": 822.8,
      "ch": 5,
      "note": 63,
      "vel": 22,
      "dur": 938
    },
    {
      "t": 823,
      "ch": 7,
      "note": 36,
      "vel": 65,
      "dur": 80
    },
    {
      "t": 823.3,
      "ch": 7,
      "note": 48,
      "vel": 56,
      "dur": 80
    },
    {
      "t": 823.3,
      "ch": 7,
      "note": 36,
      "vel": 71,
      "dur": 80
    },
    {
      "t": 823.5,
      "ch": 7,
      "note": 45,
      "vel": 58,
      "dur": 80
    },
    {
      "t": 823.5,
      "ch": 7,
      "note": 38,
      "vel": 50,
      "dur": 80
    },
    {
      "t": 823.9,
      "ch": 4,
      "note": 63,
      "vel": 46,
      "dur": 2740
    },
    {
      "t": 823.9,
      "ch": 4,
      "note": 65,
      "vel": 50,
      "dur": 2740
    },
    {
      "t": 824,
      "ch": 7,
      "note": 48,
      "vel": 63,
      "dur": 80
    },
    {
      "t": 824,
      "ch": 7,
      "note": 36,
      "vel": 78,
      "dur": 80
    },
    {
      "t": 824.4,
      "ch": 7,
      "note": 45,
      "vel": 58,
      "dur": 80
    },
    {
      "t": 824.4,
      "ch": 7,
      "note": 36,
      "vel": 58,
      "dur": 80
    },
    {
      "t": 824.4,
      "ch": 7,
      "note": 38,
      "vel": 72,
      "dur": 80
    },
    {
      "t": 824.7,
      "ch": 7,
      "note": 48,
      "vel": 68,
      "dur": 80
    },
    {
      "t": 824.7,
      "ch": 7,
      "note": 36,
      "vel": 72,
      "dur": 80
    },
    {
      "t": 825.4,
      "ch": 7,
      "note": 48,
      "vel": 69,
      "dur": 80
    },
    {
      "t": 825.4,
      "ch": 7,
      "note": 45,
      "vel": 65,
      "dur": 80
    },
    {
      "t": 825.4,
      "ch": 7,
      "note": 36,
      "vel": 76,
      "dur": 80
    },
    {
      "t": 825.4,
      "ch": 7,
      "note": 38,
      "vel": 66,
      "dur": 80
    },
    {
      "t": 825.8,
      "ch": 7,
      "note": 36,
      "vel": 57,
      "dur": 80
    },
    {
      "t": 826.1,
      "ch": 7,
      "note": 48,
      "vel": 71,
      "dur": 80
    },
    {
      "t": 826.1,
      "ch": 7,
      "note": 36,
      "vel": 67,
      "dur": 80
    },
    {
      "t": 826.3,
      "ch": 7,
      "note": 45,
      "vel": 57,
      "dur": 80
    },
    {
      "t": 826.3,
      "ch": 7,
      "note": 38,
      "vel": 73,
      "dur": 80
    },
    {
      "t": 826.7,
      "ch": 2,
      "note": 58,
      "vel": 56,
      "dur": 20930
    },
    {
      "t": 826.8,
      "ch": 7,
      "note": 48,
      "vel": 75,
      "dur": 80
    },
    {
      "t": 826.8,
      "ch": 7,
      "note": 36,
      "vel": 62,
      "dur": 80
    },
    {
      "t": 827.1,
      "ch": 7,
      "note": 45,
      "vel": 65,
      "dur": 80
    },
    {
      "t": 827.1,
      "ch": 7,
      "note": 36,
      "vel": 66,
      "dur": 80
    },
    {
      "t": 827.1,
      "ch": 7,
      "note": 38,
      "vel": 67,
      "dur": 80
    },
    {
      "t": 827.5,
      "ch": 7,
      "note": 48,
      "vel": 59,
      "dur": 80
    },
    {
      "t": 827.5,
      "ch": 7,
      "note": 36,
      "vel": 79,
      "dur": 80
    },
    {
      "t": 828.2,
      "ch": 7,
      "note": 48,
      "vel": 72,
      "dur": 80
    },
    {
      "t": 828.2,
      "ch": 7,
      "note": 45,
      "vel": 77,
      "dur": 80
    },
    {
      "t": 828.2,
      "ch": 7,
      "note": 36,
      "vel": 69,
      "dur": 80
    },
    {
      "t": 828.2,
      "ch": 7,
      "note": 38,
      "vel": 80,
      "dur": 80
    },
    {
      "t": 828.5,
      "ch": 7,
      "note": 36,
      "vel": 63,
      "dur": 80
    },
    {
      "t": 828.9,
      "ch": 7,
      "note": 48,
      "vel": 76,
      "dur": 80
    },
    {
      "t": 828.9,
      "ch": 7,
      "note": 36,
      "vel": 80,
      "dur": 80
    },
    {
      "t": 829.1,
      "ch": 7,
      "note": 45,
      "vel": 63,
      "dur": 80
    },
    {
      "t": 829.1,
      "ch": 7,
      "note": 38,
      "vel": 64,
      "dur": 80
    },
    {
      "t": 829.5,
      "ch": 4,
      "note": 63,
      "vel": 44,
      "dur": 5531
    },
    {
      "t": 829.5,
      "ch": 4,
      "note": 65,
      "vel": 47,
      "dur": 5531
    },
    {
      "t": 829.6,
      "ch": 7,
      "note": 48,
      "vel": 57,
      "dur": 80
    },
    {
      "t": 829.6,
      "ch": 7,
      "note": 36,
      "vel": 76,
      "dur": 80
    },
    {
      "t": 829.9,
      "ch": 7,
      "note": 45,
      "vel": 69,
      "dur": 80
    },
    {
      "t": 829.9,
      "ch": 7,
      "note": 36,
      "vel": 61,
      "dur": 80
    },
    {
      "t": 829.9,
      "ch": 7,
      "note": 38,
      "vel": 68,
      "dur": 80
    },
    {
      "t": 830.3,
      "ch": 7,
      "note": 48,
      "vel": 68,
      "dur": 80
    },
    {
      "t": 830.3,
      "ch": 7,
      "note": 36,
      "vel": 63,
      "dur": 80
    },
    {
      "t": 831,
      "ch": 7,
      "note": 48,
      "vel": 64,
      "dur": 80
    },
    {
      "t": 831,
      "ch": 7,
      "note": 45,
      "vel": 68,
      "dur": 80
    },
    {
      "t": 831,
      "ch": 7,
      "note": 36,
      "vel": 71,
      "dur": 80
    },
    {
      "t": 831,
      "ch": 7,
      "note": 38,
      "vel": 60,
      "dur": 80
    },
    {
      "t": 831.3,
      "ch": 7,
      "note": 36,
      "vel": 66,
      "dur": 80
    },
    {
      "t": 831.7,
      "ch": 7,
      "note": 48,
      "vel": 71,
      "dur": 80
    },
    {
      "t": 831.7,
      "ch": 7,
      "note": 36,
      "vel": 65,
      "dur": 80
    },
    {
      "t": 831.9,
      "ch": 7,
      "note": 45,
      "vel": 65,
      "dur": 80
    },
    {
      "t": 831.9,
      "ch": 7,
      "note": 38,
      "vel": 65,
      "dur": 80
    },
    {
      "t": 832.4,
      "ch": 7,
      "note": 48,
      "vel": 69,
      "dur": 80
    },
    {
      "t": 832.4,
      "ch": 7,
      "note": 36,
      "vel": 73,
      "dur": 80
    },
    {
      "t": 832.7,
      "ch": 7,
      "note": 45,
      "vel": 49,
      "dur": 80
    },
    {
      "t": 832.7,
      "ch": 7,
      "note": 36,
      "vel": 57,
      "dur": 80
    },
    {
      "t": 832.7,
      "ch": 7,
      "note": 38,
      "vel": 57,
      "dur": 80
    },
    {
      "t": 832.9,
      "ch": 4,
      "note": 63,
      "vel": 48,
      "dur": 2740
    },
    {
      "t": 832.9,
      "ch": 4,
      "note": 68,
      "vel": 62,
      "dur": 2740
    },
    {
      "t": 833.1,
      "ch": 7,
      "note": 48,
      "vel": 69,
      "dur": 80
    },
    {
      "t": 833.1,
      "ch": 7,
      "note": 36,
      "vel": 62,
      "dur": 80
    },
    {
      "t": 833.8,
      "ch": 0,
      "note": 36,
      "vel": 127,
      "dur": 55
    },
    {
      "t": 833.8,
      "ch": 7,
      "note": 48,
      "vel": 73,
      "dur": 80
    },
    {
      "t": 833.8,
      "ch": 7,
      "note": 45,
      "vel": 80,
      "dur": 80
    },
    {
      "t": 833.8,
      "ch": 7,
      "note": 36,
      "vel": 70,
      "dur": 80
    },
    {
      "t": 833.8,
      "ch": 7,
      "note": 38,
      "vel": 70,
      "dur": 80
    },
    {
      "t": 834.1,
      "ch": 7,
      "note": 36,
      "vel": 56,
      "dur": 80
    },
    {
      "t": 834.5,
      "ch": 7,
      "note": 48,
      "vel": 81,
      "dur": 80
    },
    {
      "t": 834.5,
      "ch": 7,
      "note": 36,
      "vel": 70,
      "dur": 80
    },
    {
      "t": 834.6,
      "ch": 7,
      "note": 45,
      "vel": 60,
      "dur": 80
    },
    {
      "t": 834.6,
      "ch": 7,
      "note": 38,
      "vel": 70,
      "dur": 80
    },
    {
      "t": 835.1,
      "ch": 4,
      "note": 63,
      "vel": 50,
      "dur": 2740
    },
    {
      "t": 835.1,
      "ch": 4,
      "note": 70,
      "vel": 49,
      "dur": 2740
    },
    {
      "t": 835.1,
      "ch": 3,
      "note": 46,
      "vel": 52,
      "dur": 2790
    },
    {
      "t": 835.1,
      "ch": 0,
      "note": 36,
      "vel": 95,
      "dur": 55
    },
    {
      "t": 835.1,
      "ch": 7,
      "note": 48,
      "vel": 75,
      "dur": 80
    },
    {
      "t": 835.1,
      "ch": 7,
      "note": 36,
      "vel": 77,
      "dur": 80
    },
    {
      "t": 835.5,
      "ch": 7,
      "note": 45,
      "vel": 70,
      "dur": 80
    },
    {
      "t": 835.5,
      "ch": 7,
      "note": 36,
      "vel": 56,
      "dur": 80
    },
    {
      "t": 835.5,
      "ch": 7,
      "note": 38,
      "vel": 64,
      "dur": 80
    },
    {
      "t": 835.8,
      "ch": 7,
      "note": 48,
      "vel": 80,
      "dur": 80
    },
    {
      "t": 835.8,
      "ch": 7,
      "note": 36,
      "vel": 70,
      "dur": 80
    },
    {
      "t": 835.9,
      "ch": 5,
      "note": 78,
      "vel": 8,
      "dur": 939
    },
    {
      "t": 836.2,
      "ch": 0,
      "note": 36,
      "vel": 75,
      "dur": 55
    },
    {
      "t": 836.2,
      "ch": 5,
      "note": 75,
      "vel": 20,
      "dur": 937
    },
    {
      "t": 836.5,
      "ch": 7,
      "note": 48,
      "vel": 79,
      "dur": 80
    },
    {
      "t": 836.5,
      "ch": 7,
      "note": 45,
      "vel": 64,
      "dur": 80
    },
    {
      "t": 836.5,
      "ch": 7,
      "note": 36,
      "vel": 59,
      "dur": 80
    },
    {
      "t": 836.5,
      "ch": 7,
      "note": 38,
      "vel": 64,
      "dur": 80
    },
    {
      "t": 836.7,
      "ch": 5,
      "note": 68,
      "vel": 34,
      "dur": 933
    },
    {
      "t": 836.9,
      "ch": 7,
      "note": 36,
      "vel": 63,
      "dur": 80
    },
    {
      "t": 836.9,
      "ch": 6,
      "note": 78,
      "vel": 24,
      "dur": 622
    },
    {
      "t": 837.2,
      "ch": 7,
      "note": 48,
      "vel": 62,
      "dur": 80
    },
    {
      "t": 837.2,
      "ch": 7,
      "note": 36,
      "vel": 65,
      "dur": 80
    },
    {
      "t": 837.4,
      "ch": 7,
      "note": 45,
      "vel": 60,
      "dur": 80
    },
    {
      "t": 837.4,
      "ch": 7,
      "note": 38,
      "vel": 57,
      "dur": 80
    },
    {
      "t": 837.9,
      "ch": 2,
      "note": 58,
      "vel": 57,
      "dur": 20930
    },
    {
      "t": 837.9,
      "ch": 4,
      "note": 63,
      "vel": 52,
      "dur": 2740
    },
    {
      "t": 837.9,
      "ch": 4,
      "note": 68,
      "vel": 65,
      "dur": 2740
    },
    {
      "t": 837.9,
      "ch": 3,
      "note": 44,
      "vel": 69,
      "dur": 2790
    },
    {
      "t": 837.9,
      "ch": 7,
      "note": 48,
      "vel": 62,
      "dur": 80
    },
    {
      "t": 837.9,
      "ch": 7,
      "note": 36,
      "vel": 64,
      "dur": 80
    },
    {
      "t": 838.3,
      "ch": 7,
      "note": 45,
      "vel": 65,
      "dur": 80
    },
    {
      "t": 838.3,
      "ch": 7,
      "note": 36,
      "vel": 68,
      "dur": 80
    },
    {
      "t": 838.3,
      "ch": 7,
      "note": 38,
      "vel": 75,
      "dur": 80
    },
    {
      "t": 838.6,
      "ch": 7,
      "note": 48,
      "vel": 82,
      "dur": 80
    },
    {
      "t": 838.6,
      "ch": 7,
      "note": 36,
      "vel": 71,
      "dur": 80
    },
    {
      "t": 839.3,
      "ch": 0,
      "note": 36,
      "vel": 112,
      "dur": 55
    },
    {
      "t": 839.3,
      "ch": 7,
      "note": 48,
      "vel": 73,
      "dur": 80
    },
    {
      "t": 839.3,
      "ch": 7,
      "note": 45,
      "vel": 81,
      "dur": 80
    },
    {
      "t": 839.3,
      "ch": 7,
      "note": 36,
      "vel": 77,
      "dur": 80
    },
    {
      "t": 839.3,
      "ch": 7,
      "note": 38,
      "vel": 72,
      "dur": 80
    },
    {
      "t": 839.7,
      "ch": 7,
      "note": 36,
      "vel": 58,
      "dur": 80
    },
    {
      "t": 840,
      "ch": 7,
      "note": 48,
      "vel": 63,
      "dur": 80
    },
    {
      "t": 840,
      "ch": 7,
      "note": 36,
      "vel": 63,
      "dur": 80
    },
    {
      "t": 840.2,
      "ch": 7,
      "note": 45,
      "vel": 62,
      "dur": 80
    },
    {
      "t": 840.2,
      "ch": 7,
      "note": 38,
      "vel": 70,
      "dur": 80
    },
    {
      "t": 840.2,
      "ch": 5,
      "note": 66,
      "vel": 21,
      "dur": 919
    },
    {
      "t": 840.4,
      "ch": 0,
      "note": 36,
      "vel": 79,
      "dur": 55
    },
    {
      "t": 840.6,
      "ch": 4,
      "note": 63,
      "vel": 55,
      "dur": 2740
    },
    {
      "t": 840.6,
      "ch": 4,
      "note": 65,
      "vel": 55,
      "dur": 2740
    },
    {
      "t": 840.6,
      "ch": 3,
      "note": 39,
      "vel": 55,
      "dur": 2790
    },
    {
      "t": 840.7,
      "ch": 7,
      "note": 48,
      "vel": 75,
      "dur": 80
    },
    {
      "t": 840.7,
      "ch": 7,
      "note": 36,
      "vel": 69,
      "dur": 80
    },
    {
      "t": 841.1,
      "ch": 7,
      "note": 45,
      "vel": 61,
      "dur": 80
    },
    {
      "t": 841.1,
      "ch": 7,
      "note": 36,
      "vel": 58,
      "dur": 80
    },
    {
      "t": 841.1,
      "ch": 7,
      "note": 38,
      "vel": 60,
      "dur": 80
    },
    {
      "t": 841.4,
      "ch": 7,
      "note": 48,
      "vel": 72,
      "dur": 80
    },
    {
      "t": 841.4,
      "ch": 7,
      "note": 36,
      "vel": 78,
      "dur": 80
    },
    {
      "t": 841.8,
      "ch": 0,
      "note": 36,
      "vel": 80,
      "dur": 55
    },
    {
      "t": 842.1,
      "ch": 0,
      "note": 36,
      "vel": 110,
      "dur": 55
    },
    {
      "t": 842.1,
      "ch": 7,
      "note": 48,
      "vel": 69,
      "dur": 80
    },
    {
      "t": 842.1,
      "ch": 7,
      "note": 45,
      "vel": 69,
      "dur": 80
    },
    {
      "t": 842.1,
      "ch": 7,
      "note": 36,
      "vel": 60,
      "dur": 80
    },
    {
      "t": 842.1,
      "ch": 7,
      "note": 38,
      "vel": 69,
      "dur": 80
    },
    {
      "t": 842.5,
      "ch": 7,
      "note": 36,
      "vel": 63,
      "dur": 80
    },
    {
      "t": 842.8,
      "ch": 7,
      "note": 48,
      "vel": 73,
      "dur": 80
    },
    {
      "t": 842.8,
      "ch": 7,
      "note": 36,
      "vel": 65,
      "dur": 80
    },
    {
      "t": 843,
      "ch": 7,
      "note": 45,
      "vel": 65,
      "dur": 80
    },
    {
      "t": 843,
      "ch": 7,
      "note": 38,
      "vel": 58,
      "dur": 80
    },
    {
      "t": 843.2,
      "ch": 0,
      "note": 36,
      "vel": 81,
      "dur": 55
    },
    {
      "t": 843.2,
      "ch": 5,
      "note": 63,
      "vel": 37,
      "dur": 920
    },
    {
      "t": 843.4,
      "ch": 4,
      "note": 65,
      "vel": 52,
      "dur": 2740
    },
    {
      "t": 843.4,
      "ch": 4,
      "note": 68,
      "vel": 67,
      "dur": 2740
    },
    {
      "t": 843.4,
      "ch": 3,
      "note": 39,
      "vel": 55,
      "dur": 2790
    },
    {
      "t": 843.5,
      "ch": 7,
      "note": 48,
      "vel": 74,
      "dur": 80
    },
    {
      "t": 843.5,
      "ch": 7,
      "note": 36,
      "vel": 57,
      "dur": 80
    },
    {
      "t": 843.9,
      "ch": 7,
      "note": 45,
      "vel": 71,
      "dur": 80
    },
    {
      "t": 843.9,
      "ch": 7,
      "note": 36,
      "vel": 67,
      "dur": 80
    },
    {
      "t": 843.9,
      "ch": 7,
      "note": 38,
      "vel": 63,
      "dur": 80
    },
    {
      "t": 843.9,
      "ch": 6,
      "note": 68,
      "vel": 22,
      "dur": 615
    },
    {
      "t": 844.2,
      "ch": 7,
      "note": 48,
      "vel": 71,
      "dur": 80
    },
    {
      "t": 844.2,
      "ch": 7,
      "note": 36,
      "vel": 72,
      "dur": 80
    },
    {
      "t": 844.6,
      "ch": 0,
      "note": 36,
      "vel": 87,
      "dur": 55
    },
    {
      "t": 844.9,
      "ch": 0,
      "note": 36,
      "vel": 110,
      "dur": 55
    },
    {
      "t": 844.9,
      "ch": 7,
      "note": 48,
      "vel": 72,
      "dur": 80
    },
    {
      "t": 844.9,
      "ch": 7,
      "note": 45,
      "vel": 72,
      "dur": 80
    },
    {
      "t": 844.9,
      "ch": 7,
      "note": 36,
      "vel": 74,
      "dur": 80
    },
    {
      "t": 844.9,
      "ch": 7,
      "note": 38,
      "vel": 80,
      "dur": 80
    },
    {
      "t": 845.3,
      "ch": 7,
      "note": 36,
      "vel": 67,
      "dur": 80
    },
    {
      "t": 845.6,
      "ch": 7,
      "note": 48,
      "vel": 61,
      "dur": 80
    },
    {
      "t": 845.6,
      "ch": 7,
      "note": 36,
      "vel": 61,
      "dur": 80
    },
    {
      "t": 845.6,
      "ch": 5,
      "note": 78,
      "vel": 33,
      "dur": 931
    },
    {
      "t": 845.8,
      "ch": 7,
      "note": 45,
      "vel": 66,
      "dur": 80
    },
    {
      "t": 845.8,
      "ch": 7,
      "note": 38,
      "vel": 53,
      "dur": 80
    },
    {
      "t": 846,
      "ch": 0,
      "note": 36,
      "vel": 82,
      "dur": 55
    },
    {
      "t": 846.2,
      "ch": 4,
      "note": 63,
      "vel": 52,
      "dur": 2740
    },
    {
      "t": 846.2,
      "ch": 4,
      "note": 68,
      "vel": 65,
      "dur": 2740
    },
    {
      "t": 846.2,
      "ch": 3,
      "note": 44,
      "vel": 69,
      "dur": 2790
    },
    {
      "t": 846.3,
      "ch": 7,
      "note": 48,
      "vel": 75,
      "dur": 80
    },
    {
      "t": 846.3,
      "ch": 7,
      "note": 36,
      "vel": 62,
      "dur": 80
    },
    {
      "t": 846.7,
      "ch": 7,
      "note": 45,
      "vel": 57,
      "dur": 80
    },
    {
      "t": 846.7,
      "ch": 7,
      "note": 36,
      "vel": 53,
      "dur": 80
    },
    {
      "t": 846.7,
      "ch": 7,
      "note": 38,
      "vel": 65,
      "dur": 80
    },
    {
      "t": 847,
      "ch": 7,
      "note": 48,
      "vel": 60,
      "dur": 80
    },
    {
      "t": 847,
      "ch": 7,
      "note": 36,
      "vel": 73,
      "dur": 80
    },
    {
      "t": 847.4,
      "ch": 0,
      "note": 36,
      "vel": 77,
      "dur": 55
    },
    {
      "t": 847.7,
      "ch": 0,
      "note": 36,
      "vel": 113,
      "dur": 55
    },
    {
      "t": 847.7,
      "ch": 7,
      "note": 48,
      "vel": 84,
      "dur": 80
    },
    {
      "t": 847.7,
      "ch": 7,
      "note": 45,
      "vel": 73,
      "dur": 80
    },
    {
      "t": 847.7,
      "ch": 7,
      "note": 36,
      "vel": 51,
      "dur": 80
    },
    {
      "t": 847.7,
      "ch": 7,
      "note": 38,
      "vel": 79,
      "dur": 80
    },
    {
      "t": 848.1,
      "ch": 7,
      "note": 36,
      "vel": 63,
      "dur": 80
    },
    {
      "t": 848.1,
      "ch": 5,
      "note": 75,
      "vel": 10,
      "dur": 946
    },
    {
      "t": 848.4,
      "ch": 7,
      "note": 48,
      "vel": 64,
      "dur": 80
    },
    {
      "t": 848.4,
      "ch": 7,
      "note": 36,
      "vel": 82,
      "dur": 80
    },
    {
      "t": 848.6,
      "ch": 7,
      "note": 45,
      "vel": 53,
      "dur": 80
    },
    {
      "t": 848.6,
      "ch": 7,
      "note": 38,
      "vel": 69,
      "dur": 80
    },
    {
      "t": 848.8,
      "ch": 0,
      "note": 36,
      "vel": 81,
      "dur": 55
    },
    {
      "t": 849,
      "ch": 2,
      "note": 58,
      "vel": 0,
      "dur": 0
    },
    {
      "t": 849,
      "ch": 2,
      "note": 70,
      "vel": 0,
      "dur": 0
    },
    {
      "t": 849,
      "ch": 2,
      "note": 56,
      "vel": 57,
      "dur": 20930
    },
    {
      "t": 849,
      "ch": 2,
      "note": 68,
      "vel": 40,
      "dur": 20930
    },
    {
      "t": 849,
      "ch": 4,
      "note": 63,
      "vel": 49,
      "dur": 2740
    },
    {
      "t": 849,
      "ch": 4,
      "note": 65,
      "vel": 48,
      "dur": 2740
    },
    {
      "t": 849,
      "ch": 3,
      "note": 39,
      "vel": 51,
      "dur": 2790
    },
    {
      "t": 849.1,
      "ch": 7,
      "note": 48,
      "vel": 68,
      "dur": 80
    },
    {
      "t": 849.1,
      "ch": 7,
      "note": 36,
      "vel": 68,
      "dur": 80
    },
    {
      "t": 849.1,
      "ch": 5,
      "note": 68,
      "vel": 41,
      "dur": 951
    },
    {
      "t": 849.1,
      "ch": 6,
      "note": 80,
      "vel": 37,
      "dur": 634
    },
    {
      "t": 849.5,
      "ch": 7,
      "note": 45,
      "vel": 67,
      "dur": 80
    },
    {
      "t": 849.5,
      "ch": 7,
      "note": 36,
      "vel": 59,
      "dur": 80
    },
    {
      "t": 849.5,
      "ch": 7,
      "note": 38,
      "vel": 73,
      "dur": 80
    },
    {
      "t": 849.8,
      "ch": 7,
      "note": 48,
      "vel": 68,
      "dur": 80
    },
    {
      "t": 849.8,
      "ch": 7,
      "note": 36,
      "vel": 55,
      "dur": 80
    },
    {
      "t": 850.2,
      "ch": 0,
      "note": 36,
      "vel": 87,
      "dur": 55
    },
    {
      "t": 850.5,
      "ch": 0,
      "note": 36,
      "vel": 104,
      "dur": 55
    },
    {
      "t": 850.5,
      "ch": 7,
      "note": 48,
      "vel": 63,
      "dur": 80
    },
    {
      "t": 850.5,
      "ch": 7,
      "note": 45,
      "vel": 83,
      "dur": 80
    },
    {
      "t": 850.5,
      "ch": 7,
      "note": 36,
      "vel": 68,
      "dur": 80
    },
    {
      "t": 850.5,
      "ch": 7,
      "note": 38,
      "vel": 69,
      "dur": 80
    },
    {
      "t": 850.9,
      "ch": 7,
      "note": 36,
      "vel": 66,
      "dur": 80
    },
    {
      "t": 851.2,
      "ch": 7,
      "note": 48,
      "vel": 71,
      "dur": 80
    },
    {
      "t": 851.2,
      "ch": 7,
      "note": 36,
      "vel": 68,
      "dur": 80
    },
    {
      "t": 851.4,
      "ch": 7,
      "note": 45,
      "vel": 70,
      "dur": 80
    },
    {
      "t": 851.4,
      "ch": 7,
      "note": 38,
      "vel": 60,
      "dur": 80
    },
    {
      "t": 851.6,
      "ch": 0,
      "note": 36,
      "vel": 81,
      "dur": 55
    },
    {
      "t": 851.8,
      "ch": 4,
      "note": 65,
      "vel": 49,
      "dur": 2740
    },
    {
      "t": 851.8,
      "ch": 4,
      "note": 68,
      "vel": 64,
      "dur": 2740
    },
    {
      "t": 851.8,
      "ch": 3,
      "note": 39,
      "vel": 50,
      "dur": 2790
    },
    {
      "t": 851.9,
      "ch": 7,
      "note": 48,
      "vel": 67,
      "dur": 80
    },
    {
      "t": 851.9,
      "ch": 7,
      "note": 36,
      "vel": 67,
      "dur": 80
    },
    {
      "t": 852.3,
      "ch": 7,
      "note": 45,
      "vel": 57,
      "dur": 80
    },
    {
      "t": 852.3,
      "ch": 7,
      "note": 36,
      "vel": 65,
      "dur": 80
    },
    {
      "t": 852.3,
      "ch": 7,
      "note": 38,
      "vel": 65,
      "dur": 80
    },
    {
      "t": 852.3,
      "ch": 5,
      "note": 66,
      "vel": 40,
      "dur": 960
    },
    {
      "t": 852.6,
      "ch": 7,
      "note": 48,
      "vel": 57,
      "dur": 80
    },
    {
      "t": 852.6,
      "ch": 7,
      "note": 36,
      "vel": 62,
      "dur": 80
    },
    {
      "t": 852.6,
      "ch": 5,
      "note": 63,
      "vel": 19,
      "dur": 960
    },
    {
      "t": 853,
      "ch": 0,
      "note": 36,
      "vel": 86,
      "dur": 55
    },
    {
      "t": 853,
      "ch": 5,
      "note": 78,
      "vel": 26,
      "dur": 960
    },
    {
      "t": 853.3,
      "ch": 0,
      "note": 36,
      "vel": 105,
      "dur": 55
    },
    {
      "t": 853.3,
      "ch": 7,
      "note": 48,
      "vel": 60,
      "dur": 80
    },
    {
      "t": 853.3,
      "ch": 7,
      "note": 45,
      "vel": 74,
      "dur": 80
    },
    {
      "t": 853.3,
      "ch": 7,
      "note": 36,
      "vel": 68,
      "dur": 80
    },
    {
      "t": 853.3,
      "ch": 7,
      "note": 38,
      "vel": 78,
      "dur": 80
    },
    {
      "t": 853.6,
      "ch": 7,
      "note": 36,
      "vel": 70,
      "dur": 80
    },
    {
      "t": 854,
      "ch": 7,
      "note": 48,
      "vel": 77,
      "dur": 80
    },
    {
      "t": 854,
      "ch": 7,
      "note": 36,
      "vel": 64,
      "dur": 80
    },
    {
      "t": 854.2,
      "ch": 7,
      "note": 45,
      "vel": 54,
      "dur": 80
    },
    {
      "t": 854.2,
      "ch": 7,
      "note": 38,
      "vel": 65,
      "dur": 80
    },
    {
      "t": 854.3,
      "ch": 0,
      "note": 36,
      "vel": 87,
      "dur": 55
    },
    {
      "t": 854.6,
      "ch": 4,
      "note": 63,
      "vel": 46,
      "dur": 2740
    },
    {
      "t": 854.6,
      "ch": 4,
      "note": 68,
      "vel": 63,
      "dur": 2740
    },
    {
      "t": 854.6,
      "ch": 3,
      "note": 44,
      "vel": 66,
      "dur": 2790
    },
    {
      "t": 854.7,
      "ch": 7,
      "note": 48,
      "vel": 78,
      "dur": 80
    },
    {
      "t": 854.7,
      "ch": 7,
      "note": 36,
      "vel": 59,
      "dur": 80
    },
    {
      "t": 855,
      "ch": 7,
      "note": 45,
      "vel": 60,
      "dur": 80
    },
    {
      "t": 855,
      "ch": 7,
      "note": 36,
      "vel": 56,
      "dur": 80
    },
    {
      "t": 855,
      "ch": 7,
      "note": 38,
      "vel": 64,
      "dur": 80
    },
    {
      "t": 855.4,
      "ch": 7,
      "note": 48,
      "vel": 71,
      "dur": 80
    },
    {
      "t": 855.4,
      "ch": 7,
      "note": 36,
      "vel": 82,
      "dur": 80
    },
    {
      "t": 855.7,
      "ch": 0,
      "note": 36,
      "vel": 83,
      "dur": 55
    },
    {
      "t": 856.1,
      "ch": 0,
      "note": 36,
      "vel": 110,
      "dur": 55
    },
    {
      "t": 856.1,
      "ch": 7,
      "note": 48,
      "vel": 82,
      "dur": 80
    },
    {
      "t": 856.1,
      "ch": 7,
      "note": 45,
      "vel": 62,
      "dur": 80
    },
    {
      "t": 856.1,
      "ch": 7,
      "note": 36,
      "vel": 66,
      "dur": 80
    },
    {
      "t": 856.1,
      "ch": 7,
      "note": 38,
      "vel": 69,
      "dur": 80
    },
    {
      "t": 856.4,
      "ch": 7,
      "note": 36,
      "vel": 66,
      "dur": 80
    },
    {
      "t": 856.8,
      "ch": 7,
      "note": 48,
      "vel": 69,
      "dur": 80
    },
    {
      "t": 856.8,
      "ch": 7,
      "note": 36,
      "vel": 72,
      "dur": 80
    },
    {
      "t": 857,
      "ch": 7,
      "note": 45,
      "vel": 68,
      "dur": 80
    },
    {
      "t": 857,
      "ch": 7,
      "note": 38,
      "vel": 73,
      "dur": 80
    },
    {
      "t": 857.1,
      "ch": 0,
      "note": 36,
      "vel": 86,
      "dur": 55
    },
    {
      "t": 857.3,
      "ch": 5,
      "note": 75,
      "vel": 25,
      "dur": 943
    },
    {
      "t": 857.4,
      "ch": 4,
      "note": 63,
      "vel": 51,
      "dur": 2740
    },
    {
      "t": 857.4,
      "ch": 4,
      "note": 65,
      "vel": 49,
      "dur": 2740
    },
    {
      "t": 857.4,
      "ch": 3,
      "note": 39,
      "vel": 53,
      "dur": 2790
    },
    {
      "t": 857.5,
      "ch": 7,
      "note": 48,
      "vel": 67,
      "dur": 80
    },
    {
      "t": 857.5,
      "ch": 7,
      "note": 36,
      "vel": 56,
      "dur": 80
    },
    {
      "t": 857.8,
      "ch": 7,
      "note": 45,
      "vel": 64,
      "dur": 80
    },
    {
      "t": 857.8,
      "ch": 7,
      "note": 36,
      "vel": 53,
      "dur": 80
    },
    {
      "t": 857.8,
      "ch": 7,
      "note": 38,
      "vel": 63,
      "dur": 80
    },
    {
      "t": 858.2,
      "ch": 7,
      "note": 48,
      "vel": 72,
      "dur": 80
    },
    {
      "t": 858.2,
      "ch": 7,
      "note": 36,
      "vel": 76,
      "dur": 80
    },
    {
      "t": 858.4,
      "ch": 5,
      "note": 80,
      "vel": 37,
      "dur": 937
    },
    {
      "t": 858.5,
      "ch": 0,
      "note": 36,
      "vel": 87,
      "dur": 55
    },
    {
      "t": 858.9,
      "ch": 1,
      "note": 42,
      "vel": 90,
      "dur": 25
    },
    {
      "t": 858.9,
      "ch": 1,
      "note": 36,
      "vel": 68,
      "dur": 25
    },
    {
      "t": 858.9,
      "ch": 1,
      "note": 38,
      "vel": 81,
      "dur": 25
    },
    {
      "t": 858.9,
      "ch": 1,
      "note": 40,
      "vel": 99,
      "dur": 25
    },
    {
      "t": 858.9,
      "ch": 1,
      "note": 42,
      "vel": 96,
      "dur": 25
    },
    {
      "t": 858.9,
      "ch": 1,
      "note": 36,
      "vel": 48,
      "dur": 25
    },
    {
      "t": 858.9,
      "ch": 1,
      "note": 38,
      "vel": 79,
      "dur": 25
    },
    {
      "t": 858.9,
      "ch": 1,
      "note": 40,
      "vel": 78,
      "dur": 25
    },
    {
      "t": 858.9,
      "ch": 1,
      "note": 42,
      "vel": 86,
      "dur": 25
    },
    {
      "t": 858.9,
      "ch": 1,
      "note": 36,
      "vel": 77,
      "dur": 25
    },
    {
      "t": 858.9,
      "ch": 1,
      "note": 38,
      "vel": 91,
      "dur": 25
    },
    {
      "t": 858.9,
      "ch": 1,
      "note": 40,
      "vel": 68,
      "dur": 25
    },
    {
      "t": 858.9,
      "ch": 1,
      "note": 42,
      "vel": 80,
      "dur": 25
    },
    {
      "t": 858.9,
      "ch": 1,
      "note": 36,
      "vel": 73,
      "dur": 25
    },
    {
      "t": 858.9,
      "ch": 1,
      "note": 38,
      "vel": 93,
      "dur": 25
    },
    {
      "t": 858.9,
      "ch": 1,
      "note": 40,
      "vel": 100,
      "dur": 25
    },
    {
      "t": 858.9,
      "ch": 1,
      "note": 42,
      "vel": 75,
      "dur": 25
    },
    {
      "t": 858.9,
      "ch": 1,
      "note": 36,
      "vel": 84,
      "dur": 25
    },
    {
      "t": 858.9,
      "ch": 1,
      "note": 38,
      "vel": 83,
      "dur": 25
    },
    {
      "t": 858.9,
      "ch": 1,
      "note": 40,
      "vel": 70,
      "dur": 25
    },
    {
      "t": 858.9,
      "ch": 1,
      "note": 42,
      "vel": 93,
      "dur": 25
    },
    {
      "t": 858.9,
      "ch": 1,
      "note": 36,
      "vel": 89,
      "dur": 25
    },
    {
      "t": 858.9,
      "ch": 1,
      "note": 38,
      "vel": 98,
      "dur": 25
    },
    {
      "t": 858.9,
      "ch": 1,
      "note": 40,
      "vel": 81,
      "dur": 25
    },
    {
      "t": 858.9,
      "ch": 1,
      "note": 42,
      "vel": 81,
      "dur": 25
    },
    {
      "t": 858.9,
      "ch": 1,
      "note": 36,
      "vel": 77,
      "dur": 25
    },
    {
      "t": 858.9,
      "ch": 1,
      "note": 38,
      "vel": 94,
      "dur": 25
    },
    {
      "t": 858.9,
      "ch": 1,
      "note": 40,
      "vel": 89,
      "dur": 25
    },
    {
      "t": 858.9,
      "ch": 1,
      "note": 42,
      "vel": 85,
      "dur": 25
    },
    {
      "t": 858.9,
      "ch": 1,
      "note": 36,
      "vel": 83,
      "dur": 25
    },
    {
      "t": 858.9,
      "ch": 1,
      "note": 38,
      "vel": 75,
      "dur": 25
    },
    {
      "t": 858.9,
      "ch": 1,
      "note": 40,
      "vel": 91,
      "dur": 25
    },
    {
      "t": 858.9,
      "ch": 1,
      "note": 42,
      "vel": 68,
      "dur": 25
    },
    {
      "t": 858.9,
      "ch": 1,
      "note": 36,
      "vel": 116,
      "dur": 25
    },
    {
      "t": 858.9,
      "ch": 1,
      "note": 38,
      "vel": 96,
      "dur": 25
    },
    {
      "t": 858.9,
      "ch": 1,
      "note": 40,
      "vel": 65,
      "dur": 25
    },
    {
      "t": 858.9,
      "ch": 1,
      "note": 42,
      "vel": 80,
      "dur": 25
    },
    {
      "t": 858.9,
      "ch": 1,
      "note": 36,
      "vel": 74,
      "dur": 25
    },
    {
      "t": 858.9,
      "ch": 1,
      "note": 38,
      "vel": 70,
      "dur": 25
    },
    {
      "t": 858.9,
      "ch": 1,
      "note": 40,
      "vel": 95,
      "dur": 25
    },
    {
      "t": 858.9,
      "ch": 1,
      "note": 42,
      "vel": 95,
      "dur": 25
    },
    {
      "t": 858.9,
      "ch": 1,
      "note": 36,
      "vel": 106,
      "dur": 25
    },
    {
      "t": 858.9,
      "ch": 1,
      "note": 38,
      "vel": 73,
      "dur": 25
    },
    {
      "t": 858.9,
      "ch": 1,
      "note": 40,
      "vel": 90,
      "dur": 25
    },
    {
      "t": 858.9,
      "ch": 1,
      "note": 42,
      "vel": 102,
      "dur": 25
    },
    {
      "t": 858.9,
      "ch": 1,
      "note": 36,
      "vel": 97,
      "dur": 25
    },
    {
      "t": 858.9,
      "ch": 1,
      "note": 38,
      "vel": 106,
      "dur": 25
    },
    {
      "t": 858.9,
      "ch": 1,
      "note": 40,
      "vel": 88,
      "dur": 25
    },
    {
      "t": 858.9,
      "ch": 1,
      "note": 42,
      "vel": 92,
      "dur": 25
    },
    {
      "t": 858.9,
      "ch": 1,
      "note": 36,
      "vel": 76,
      "dur": 25
    },
    {
      "t": 858.9,
      "ch": 1,
      "note": 38,
      "vel": 89,
      "dur": 25
    },
    {
      "t": 858.9,
      "ch": 1,
      "note": 40,
      "vel": 75,
      "dur": 25
    },
    {
      "t": 858.9,
      "ch": 1,
      "note": 42,
      "vel": 73,
      "dur": 25
    },
    {
      "t": 858.9,
      "ch": 1,
      "note": 36,
      "vel": 69,
      "dur": 25
    },
    {
      "t": 858.9,
      "ch": 1,
      "note": 38,
      "vel": 86,
      "dur": 25
    },
    {
      "t": 858.9,
      "ch": 1,
      "note": 40,
      "vel": 103,
      "dur": 25
    },
    {
      "t": 858.9,
      "ch": 1,
      "note": 42,
      "vel": 94,
      "dur": 25
    },
    {
      "t": 858.9,
      "ch": 1,
      "note": 36,
      "vel": 85,
      "dur": 25
    },
    {
      "t": 858.9,
      "ch": 1,
      "note": 38,
      "vel": 99,
      "dur": 25
    },
    {
      "t": 858.9,
      "ch": 1,
      "note": 40,
      "vel": 79,
      "dur": 25
    },
    {
      "t": 858.9,
      "ch": 1,
      "note": 42,
      "vel": 84,
      "dur": 25
    },
    {
      "t": 858.9,
      "ch": 1,
      "note": 36,
      "vel": 88,
      "dur": 25
    },
    {
      "t": 858.9,
      "ch": 1,
      "note": 38,
      "vel": 82,
      "dur": 25
    },
    {
      "t": 858.9,
      "ch": 1,
      "note": 40,
      "vel": 82,
      "dur": 25
    },
    {
      "t": 858.9,
      "ch": 1,
      "note": 42,
      "vel": 63,
      "dur": 25
    },
    {
      "t": 858.9,
      "ch": 1,
      "note": 36,
      "vel": 95,
      "dur": 25
    },
    {
      "t": 858.9,
      "ch": 1,
      "note": 38,
      "vel": 64,
      "dur": 25
    },
    {
      "t": 858.9,
      "ch": 1,
      "note": 40,
      "vel": 83,
      "dur": 25
    },
    {
      "t": 858.9,
      "ch": 1,
      "note": 42,
      "vel": 97,
      "dur": 25
    },
    {
      "t": 858.9,
      "ch": 1,
      "note": 36,
      "vel": 113,
      "dur": 25
    },
    {
      "t": 858.9,
      "ch": 1,
      "note": 38,
      "vel": 71,
      "dur": 25
    },
    {
      "t": 858.9,
      "ch": 1,
      "note": 40,
      "vel": 96,
      "dur": 25
    },
    {
      "t": 858.9,
      "ch": 1,
      "note": 42,
      "vel": 85,
      "dur": 25
    },
    {
      "t": 858.9,
      "ch": 1,
      "note": 36,
      "vel": 71,
      "dur": 25
    },
    {
      "t": 858.9,
      "ch": 1,
      "note": 38,
      "vel": 112,
      "dur": 25
    },
    {
      "t": 858.9,
      "ch": 1,
      "note": 40,
      "vel": 98,
      "dur": 25
    },
    {
      "t": 858.9,
      "ch": 1,
      "note": 42,
      "vel": 95,
      "dur": 25
    },
    {
      "t": 858.9,
      "ch": 1,
      "note": 36,
      "vel": 69,
      "dur": 25
    },
    {
      "t": 858.9,
      "ch": 1,
      "note": 38,
      "vel": 86,
      "dur": 25
    },
    {
      "t": 858.9,
      "ch": 1,
      "note": 40,
      "vel": 74,
      "dur": 25
    },
    {
      "t": 858.9,
      "ch": 1,
      "note": 42,
      "vel": 99,
      "dur": 25
    },
    {
      "t": 858.9,
      "ch": 1,
      "note": 36,
      "vel": 77,
      "dur": 25
    },
    {
      "t": 858.9,
      "ch": 1,
      "note": 38,
      "vel": 93,
      "dur": 25
    },
    {
      "t": 858.9,
      "ch": 1,
      "note": 40,
      "vel": 95,
      "dur": 25
    },
    {
      "t": 858.9,
      "ch": 1,
      "note": 42,
      "vel": 61,
      "dur": 25
    },
    {
      "t": 858.9,
      "ch": 1,
      "note": 36,
      "vel": 81,
      "dur": 25
    },
    {
      "t": 858.9,
      "ch": 1,
      "note": 38,
      "vel": 67,
      "dur": 25
    },
    {
      "t": 858.9,
      "ch": 1,
      "note": 40,
      "vel": 98,
      "dur": 25
    },
    {
      "t": 858.9,
      "ch": 1,
      "note": 42,
      "vel": 69,
      "dur": 25
    },
    {
      "t": 858.9,
      "ch": 1,
      "note": 36,
      "vel": 90,
      "dur": 25
    },
    {
      "t": 858.9,
      "ch": 1,
      "note": 38,
      "vel": 81,
      "dur": 25
    },
    {
      "t": 858.9,
      "ch": 1,
      "note": 40,
      "vel": 98,
      "dur": 25
    },
    {
      "t": 858.9,
      "ch": 1,
      "note": 42,
      "vel": 93,
      "dur": 25
    },
    {
      "t": 858.9,
      "ch": 1,
      "note": 36,
      "vel": 94,
      "dur": 25
    },
    {
      "t": 858.9,
      "ch": 1,
      "note": 38,
      "vel": 71,
      "dur": 25
    },
    {
      "t": 858.9,
      "ch": 1,
      "note": 40,
      "vel": 75,
      "dur": 25
    },
    {
      "t": 858.9,
      "ch": 1,
      "note": 42,
      "vel": 103,
      "dur": 25
    },
    {
      "t": 858.9,
      "ch": 1,
      "note": 36,
      "vel": 79,
      "dur": 25
    },
    {
      "t": 858.9,
      "ch": 1,
      "note": 38,
      "vel": 85,
      "dur": 25
    },
    {
      "t": 858.9,
      "ch": 1,
      "note": 40,
      "vel": 71,
      "dur": 25
    },
    {
      "t": 858.9,
      "ch": 1,
      "note": 42,
      "vel": 71,
      "dur": 25
    },
    {
      "t": 858.9,
      "ch": 1,
      "note": 36,
      "vel": 96,
      "dur": 25
    },
    {
      "t": 858.9,
      "ch": 1,
      "note": 38,
      "vel": 79,
      "dur": 25
    },
    {
      "t": 858.9,
      "ch": 1,
      "note": 40,
      "vel": 78,
      "dur": 25
    },
    {
      "t": 858.9,
      "ch": 1,
      "note": 42,
      "vel": 101,
      "dur": 25
    },
    {
      "t": 858.9,
      "ch": 1,
      "note": 36,
      "vel": 89,
      "dur": 25
    },
    {
      "t": 858.9,
      "ch": 1,
      "note": 38,
      "vel": 65,
      "dur": 25
    },
    {
      "t": 858.9,
      "ch": 1,
      "note": 40,
      "vel": 76,
      "dur": 25
    },
    {
      "t": 858.9,
      "ch": 1,
      "note": 42,
      "vel": 83,
      "dur": 25
    },
    {
      "t": 858.9,
      "ch": 1,
      "note": 36,
      "vel": 64,
      "dur": 25
    },
    {
      "t": 858.9,
      "ch": 1,
      "note": 38,
      "vel": 88,
      "dur": 25
    },
    {
      "t": 858.9,
      "ch": 1,
      "note": 40,
      "vel": 84,
      "dur": 25
    },
    {
      "t": 858.9,
      "ch": 1,
      "note": 42,
      "vel": 72,
      "dur": 25
    },
    {
      "t": 858.9,
      "ch": 1,
      "note": 36,
      "vel": 82,
      "dur": 25
    },
    {
      "t": 858.9,
      "ch": 1,
      "note": 38,
      "vel": 76,
      "dur": 25
    },
    {
      "t": 858.9,
      "ch": 1,
      "note": 40,
      "vel": 76,
      "dur": 25
    },
    {
      "t": 858.9,
      "ch": 1,
      "note": 42,
      "vel": 90,
      "dur": 25
    },
    {
      "t": 858.9,
      "ch": 1,
      "note": 36,
      "vel": 96,
      "dur": 25
    },
    {
      "t": 858.9,
      "ch": 1,
      "note": 38,
      "vel": 92,
      "dur": 25
    },
    {
      "t": 858.9,
      "ch": 1,
      "note": 40,
      "vel": 95,
      "dur": 25
    },
    {
      "t": 858.9,
      "ch": 1,
      "note": 42,
      "vel": 68,
      "dur": 25
    },
    {
      "t": 858.9,
      "ch": 1,
      "note": 36,
      "vel": 68,
      "dur": 25
    },
    {
      "t": 858.9,
      "ch": 1,
      "note": 38,
      "vel": 72,
      "dur": 25
    },
    {
      "t": 858.9,
      "ch": 1,
      "note": 40,
      "vel": 97,
      "dur": 25
    },
    {
      "t": 858.9,
      "ch": 1,
      "note": 42,
      "vel": 83,
      "dur": 25
    },
    {
      "t": 858.9,
      "ch": 1,
      "note": 36,
      "vel": 60,
      "dur": 25
    },
    {
      "t": 858.9,
      "ch": 1,
      "note": 38,
      "vel": 75,
      "dur": 25
    },
    {
      "t": 858.9,
      "ch": 1,
      "note": 40,
      "vel": 77,
      "dur": 25
    },
    {
      "t": 858.9,
      "ch": 1,
      "note": 42,
      "vel": 88,
      "dur": 25
    },
    {
      "t": 858.9,
      "ch": 1,
      "note": 36,
      "vel": 90,
      "dur": 25
    },
    {
      "t": 858.9,
      "ch": 1,
      "note": 38,
      "vel": 92,
      "dur": 25
    },
    {
      "t": 858.9,
      "ch": 1,
      "note": 40,
      "vel": 72,
      "dur": 25
    },
    {
      "t": 858.9,
      "ch": 1,
      "note": 42,
      "vel": 71,
      "dur": 25
    },
    {
      "t": 858.9,
      "ch": 1,
      "note": 36,
      "vel": 88,
      "dur": 25
    },
    {
      "t": 858.9,
      "ch": 1,
      "note": 38,
      "vel": 97,
      "dur": 25
    },
    {
      "t": 858.9,
      "ch": 1,
      "note": 40,
      "vel": 73,
      "dur": 25
    },
    {
      "t": 858.9,
      "ch": 1,
      "note": 42,
      "vel": 106,
      "dur": 25
    },
    {
      "t": 858.9,
      "ch": 1,
      "note": 36,
      "vel": 101,
      "dur": 25
    },
    {
      "t": 858.9,
      "ch": 1,
      "note": 38,
      "vel": 53,
      "dur": 25
    },
    {
      "t": 858.9,
      "ch": 1,
      "note": 40,
      "vel": 71,
      "dur": 25
    },
    {
      "t": 858.9,
      "ch": 1,
      "note": 42,
      "vel": 84,
      "dur": 25
    },
    {
      "t": 858.9,
      "ch": 1,
      "note": 36,
      "vel": 92,
      "dur": 25
    },
    {
      "t": 858.9,
      "ch": 1,
      "note": 38,
      "vel": 93,
      "dur": 25
    },
    {
      "t": 858.9,
      "ch": 1,
      "note": 40,
      "vel": 89,
      "dur": 25
    },
    {
      "t": 858.9,
      "ch": 1,
      "note": 42,
      "vel": 110,
      "dur": 25
    },
    {
      "t": 858.9,
      "ch": 1,
      "note": 36,
      "vel": 87,
      "dur": 25
    },
    {
      "t": 858.9,
      "ch": 1,
      "note": 38,
      "vel": 74,
      "dur": 25
    },
    {
      "t": 858.9,
      "ch": 1,
      "note": 40,
      "vel": 96,
      "dur": 25
    },
    {
      "t": 858.9,
      "ch": 1,
      "note": 42,
      "vel": 69,
      "dur": 25
    },
    {
      "t": 858.9,
      "ch": 1,
      "note": 36,
      "vel": 72,
      "dur": 25
    },
    {
      "t": 858.9,
      "ch": 1,
      "note": 38,
      "vel": 81,
      "dur": 25
    },
    {
      "t": 858.9,
      "ch": 1,
      "note": 40,
      "vel": 106,
      "dur": 25
    },
    {
      "t": 858.9,
      "ch": 1,
      "note": 42,
      "vel": 65,
      "dur": 25
    },
    {
      "t": 858.9,
      "ch": 1,
      "note": 36,
      "vel": 104,
      "dur": 25
    },
    {
      "t": 858.9,
      "ch": 1,
      "note": 38,
      "vel": 106,
      "dur": 25
    },
    {
      "t": 858.9,
      "ch": 1,
      "note": 40,
      "vel": 70,
      "dur": 25
    },
    {
      "t": 858.9,
      "ch": 1,
      "note": 42,
      "vel": 72,
      "dur": 25
    },
    {
      "t": 858.9,
      "ch": 1,
      "note": 36,
      "vel": 79,
      "dur": 25
    },
    {
      "t": 858.9,
      "ch": 1,
      "note": 38,
      "vel": 87,
      "dur": 25
    },
    {
      "t": 858.9,
      "ch": 1,
      "note": 40,
      "vel": 79,
      "dur": 25
    },
    {
      "t": 858.9,
      "ch": 1,
      "note": 42,
      "vel": 65,
      "dur": 25
    },
    {
      "t": 858.9,
      "ch": 1,
      "note": 36,
      "vel": 91,
      "dur": 25
    },
    {
      "t": 858.9,
      "ch": 1,
      "note": 38,
      "vel": 114,
      "dur": 25
    },
    {
      "t": 858.9,
      "ch": 1,
      "note": 40,
      "vel": 86,
      "dur": 25
    },
    {
      "t": 858.9,
      "ch": 1,
      "note": 42,
      "vel": 73,
      "dur": 25
    },
    {
      "t": 858.9,
      "ch": 1,
      "note": 36,
      "vel": 83,
      "dur": 25
    },
    {
      "t": 858.9,
      "ch": 1,
      "note": 38,
      "vel": 74,
      "dur": 25
    },
    {
      "t": 858.9,
      "ch": 1,
      "note": 40,
      "vel": 86,
      "dur": 25
    },
    {
      "t": 858.9,
      "ch": 1,
      "note": 42,
      "vel": 77,
      "dur": 25
    },
    {
      "t": 858.9,
      "ch": 1,
      "note": 36,
      "vel": 78,
      "dur": 25
    },
    {
      "t": 858.9,
      "ch": 1,
      "note": 38,
      "vel": 83,
      "dur": 25
    },
    {
      "t": 858.9,
      "ch": 1,
      "note": 40,
      "vel": 100,
      "dur": 25
    },
    {
      "t": 858.9,
      "ch": 1,
      "note": 42,
      "vel": 85,
      "dur": 25
    },
    {
      "t": 858.9,
      "ch": 1,
      "note": 36,
      "vel": 91,
      "dur": 25
    },
    {
      "t": 858.9,
      "ch": 1,
      "note": 38,
      "vel": 86,
      "dur": 25
    },
    {
      "t": 858.9,
      "ch": 1,
      "note": 40,
      "vel": 71,
      "dur": 25
    },
    {
      "t": 858.9,
      "ch": 1,
      "note": 42,
      "vel": 104,
      "dur": 25
    },
    {
      "t": 858.9,
      "ch": 1,
      "note": 36,
      "vel": 80,
      "dur": 25
    },
    {
      "t": 858.9,
      "ch": 1,
      "note": 38,
      "vel": 96,
      "dur": 25
    },
    {
      "t": 858.9,
      "ch": 1,
      "note": 40,
      "vel": 67,
      "dur": 25
    },
    {
      "t": 858.9,
      "ch": 1,
      "note": 42,
      "vel": 56,
      "dur": 25
    },
    {
      "t": 858.9,
      "ch": 1,
      "note": 36,
      "vel": 104,
      "dur": 25
    },
    {
      "t": 858.9,
      "ch": 1,
      "note": 38,
      "vel": 72,
      "dur": 25
    },
    {
      "t": 858.9,
      "ch": 1,
      "note": 40,
      "vel": 75,
      "dur": 25
    },
    {
      "t": 858.9,
      "ch": 1,
      "note": 42,
      "vel": 99,
      "dur": 25
    },
    {
      "t": 858.9,
      "ch": 1,
      "note": 36,
      "vel": 85,
      "dur": 25
    },
    {
      "t": 858.9,
      "ch": 1,
      "note": 38,
      "vel": 67,
      "dur": 25
    },
    {
      "t": 858.9,
      "ch": 1,
      "note": 40,
      "vel": 78,
      "dur": 25
    },
    {
      "t": 858.9,
      "ch": 1,
      "note": 42,
      "vel": 83,
      "dur": 25
    },
    {
      "t": 858.9,
      "ch": 1,
      "note": 36,
      "vel": 101,
      "dur": 25
    },
    {
      "t": 858.9,
      "ch": 1,
      "note": 38,
      "vel": 99,
      "dur": 25
    },
    {
      "t": 858.9,
      "ch": 1,
      "note": 40,
      "vel": 88,
      "dur": 25
    },
    {
      "t": 858.9,
      "ch": 1,
      "note": 42,
      "vel": 70,
      "dur": 25
    },
    {
      "t": 858.9,
      "ch": 1,
      "note": 36,
      "vel": 87,
      "dur": 25
    },
    {
      "t": 858.9,
      "ch": 1,
      "note": 38,
      "vel": 83,
      "dur": 25
    },
    {
      "t": 858.9,
      "ch": 1,
      "note": 40,
      "vel": 59,
      "dur": 25
    },
    {
      "t": 858.9,
      "ch": 1,
      "note": 42,
      "vel": 88,
      "dur": 25
    },
    {
      "t": 858.9,
      "ch": 1,
      "note": 36,
      "vel": 77,
      "dur": 25
    },
    {
      "t": 858.9,
      "ch": 1,
      "note": 38,
      "vel": 82,
      "dur": 25
    },
    {
      "t": 858.9,
      "ch": 1,
      "note": 40,
      "vel": 109,
      "dur": 25
    },
    {
      "t": 858.9,
      "ch": 1,
      "note": 42,
      "vel": 102,
      "dur": 25
    },
    {
      "t": 858.9,
      "ch": 1,
      "note": 36,
      "vel": 106,
      "dur": 25
    },
    {
      "t": 858.9,
      "ch": 1,
      "note": 38,
      "vel": 83,
      "dur": 25
    },
    {
      "t": 858.9,
      "ch": 1,
      "note": 40,
      "vel": 86,
      "dur": 25
    },
    {
      "t": 858.9,
      "ch": 1,
      "note": 42,
      "vel": 86,
      "dur": 25
    },
    {
      "t": 858.9,
      "ch": 1,
      "note": 36,
      "vel": 65,
      "dur": 25
    },
    {
      "t": 858.9,
      "ch": 1,
      "note": 38,
      "vel": 80,
      "dur": 25
    },
    {
      "t": 858.9,
      "ch": 1,
      "note": 40,
      "vel": 84,
      "dur": 25
    },
    {
      "t": 858.9,
      "ch": 1,
      "note": 42,
      "vel": 103,
      "dur": 25
    },
    {
      "t": 858.9,
      "ch": 1,
      "note": 36,
      "vel": 78,
      "dur": 25
    },
    {
      "t": 858.9,
      "ch": 1,
      "note": 38,
      "vel": 101,
      "dur": 25
    },
    {
      "t": 858.9,
      "ch": 1,
      "note": 40,
      "vel": 94,
      "dur": 25
    },
    {
      "t": 858.9,
      "ch": 1,
      "note": 42,
      "vel": 75,
      "dur": 25
    },
    {
      "t": 858.9,
      "ch": 1,
      "note": 36,
      "vel": 93,
      "dur": 25
    },
    {
      "t": 858.9,
      "ch": 1,
      "note": 38,
      "vel": 85,
      "dur": 25
    },
    {
      "t": 858.9,
      "ch": 1,
      "note": 40,
      "vel": 97,
      "dur": 25
    },
    {
      "t": 858.9,
      "ch": 1,
      "note": 42,
      "vel": 109,
      "dur": 25
    },
    {
      "t": 858.9,
      "ch": 1,
      "note": 36,
      "vel": 59,
      "dur": 25
    },
    {
      "t": 858.9,
      "ch": 1,
      "note": 38,
      "vel": 82,
      "dur": 25
    },
    {
      "t": 858.9,
      "ch": 1,
      "note": 40,
      "vel": 78,
      "dur": 25
    },
    {
      "t": 858.9,
      "ch": 1,
      "note": 42,
      "vel": 73,
      "dur": 25
    },
    {
      "t": 858.9,
      "ch": 1,
      "note": 36,
      "vel": 113,
      "dur": 25
    },
    {
      "t": 858.9,
      "ch": 1,
      "note": 38,
      "vel": 100,
      "dur": 25
    },
    {
      "t": 858.9,
      "ch": 1,
      "note": 40,
      "vel": 90,
      "dur": 25
    },
    {
      "t": 858.9,
      "ch": 1,
      "note": 42,
      "vel": 87,
      "dur": 25
    },
    {
      "t": 858.9,
      "ch": 1,
      "note": 36,
      "vel": 87,
      "dur": 25
    },
    {
      "t": 858.9,
      "ch": 1,
      "note": 38,
      "vel": 82,
      "dur": 25
    },
    {
      "t": 858.9,
      "ch": 1,
      "note": 40,
      "vel": 69,
      "dur": 25
    },
    {
      "t": 858.9,
      "ch": 1,
      "note": 42,
      "vel": 93,
      "dur": 25
    },
    {
      "t": 858.9,
      "ch": 1,
      "note": 36,
      "vel": 75,
      "dur": 25
    },
    {
      "t": 858.9,
      "ch": 1,
      "note": 38,
      "vel": 79,
      "dur": 25
    },
    {
      "t": 858.9,
      "ch": 1,
      "note": 40,
      "vel": 81,
      "dur": 25
    },
    {
      "t": 858.9,
      "ch": 1,
      "note": 42,
      "vel": 85,
      "dur": 25
    },
    {
      "t": 858.9,
      "ch": 1,
      "note": 36,
      "vel": 91,
      "dur": 25
    },
    {
      "t": 858.9,
      "ch": 1,
      "note": 38,
      "vel": 77,
      "dur": 25
    },
    {
      "t": 858.9,
      "ch": 1,
      "note": 40,
      "vel": 85,
      "dur": 25
    },
    {
      "t": 858.9,
      "ch": 1,
      "note": 42,
      "vel": 83,
      "dur": 25
    },
    {
      "t": 858.9,
      "ch": 1,
      "note": 36,
      "vel": 96,
      "dur": 25
    },
    {
      "t": 858.9,
      "ch": 1,
      "note": 38,
      "vel": 110,
      "dur": 25
    },
    {
      "t": 858.9,
      "ch": 1,
      "note": 40,
      "vel": 59,
      "dur": 25
    },
    {
      "t": 858.9,
      "ch": 1,
      "note": 42,
      "vel": 79,
      "dur": 25
    },
    {
      "t": 858.9,
      "ch": 1,
      "note": 36,
      "vel": 91,
      "dur": 25
    },
    {
      "t": 858.9,
      "ch": 1,
      "note": 38,
      "vel": 92,
      "dur": 25
    },
    {
      "t": 858.9,
      "ch": 1,
      "note": 40,
      "vel": 83,
      "dur": 25
    },
    {
      "t": 858.9,
      "ch": 1,
      "note": 42,
      "vel": 90,
      "dur": 25
    },
    {
      "t": 858.9,
      "ch": 1,
      "note": 36,
      "vel": 67,
      "dur": 25
    },
    {
      "t": 858.9,
      "ch": 1,
      "note": 38,
      "vel": 86,
      "dur": 25
    },
    {
      "t": 858.9,
      "ch": 1,
      "note": 40,
      "vel": 76,
      "dur": 25
    },
    {
      "t": 858.9,
      "ch": 1,
      "note": 42,
      "vel": 76,
      "dur": 25
    },
    {
      "t": 858.9,
      "ch": 1,
      "note": 36,
      "vel": 76,
      "dur": 25
    },
    {
      "t": 858.9,
      "ch": 1,
      "note": 38,
      "vel": 80,
      "dur": 25
    },
    {
      "t": 858.9,
      "ch": 1,
      "note": 40,
      "vel": 98,
      "dur": 25
    },
    {
      "t": 858.9,
      "ch": 1,
      "note": 42,
      "vel": 88,
      "dur": 25
    },
    {
      "t": 858.9,
      "ch": 1,
      "note": 36,
      "vel": 107,
      "dur": 25
    },
    {
      "t": 858.9,
      "ch": 1,
      "note": 38,
      "vel": 63,
      "dur": 25
    },
    {
      "t": 858.9,
      "ch": 1,
      "note": 40,
      "vel": 104,
      "dur": 25
    },
    {
      "t": 858.9,
      "ch": 1,
      "note": 42,
      "vel": 56,
      "dur": 25
    },
    {
      "t": 858.9,
      "ch": 1,
      "note": 36,
      "vel": 76,
      "dur": 25
    },
    {
      "t": 858.9,
      "ch": 1,
      "note": 38,
      "vel": 79,
      "dur": 25
    },
    {
      "t": 858.9,
      "ch": 1,
      "note": 40,
      "vel": 83,
      "dur": 25
    },
    {
      "t": 858.9,
      "ch": 1,
      "note": 42,
      "vel": 75,
      "dur": 25
    },
    {
      "t": 858.9,
      "ch": 1,
      "note": 36,
      "vel": 81,
      "dur": 25
    },
    {
      "t": 858.9,
      "ch": 1,
      "note": 38,
      "vel": 92,
      "dur": 25
    },
    {
      "t": 858.9,
      "ch": 1,
      "note": 40,
      "vel": 82,
      "dur": 25
    },
    {
      "t": 858.9,
      "ch": 1,
      "note": 42,
      "vel": 102,
      "dur": 25
    },
    {
      "t": 858.9,
      "ch": 1,
      "note": 36,
      "vel": 79,
      "dur": 25
    },
    {
      "t": 858.9,
      "ch": 1,
      "note": 38,
      "vel": 78,
      "dur": 25
    },
    {
      "t": 858.9,
      "ch": 1,
      "note": 40,
      "vel": 57,
      "dur": 25
    },
    {
      "t": 858.9,
      "ch": 1,
      "note": 42,
      "vel": 80,
      "dur": 25
    },
    {
      "t": 858.9,
      "ch": 1,
      "note": 36,
      "vel": 81,
      "dur": 25
    },
    {
      "t": 858.9,
      "ch": 1,
      "note": 38,
      "vel": 103,
      "dur": 25
    },
    {
      "t": 858.9,
      "ch": 1,
      "note": 40,
      "vel": 101,
      "dur": 25
    },
    {
      "t": 858.9,
      "ch": 1,
      "note": 42,
      "vel": 76,
      "dur": 25
    },
    {
      "t": 858.9,
      "ch": 1,
      "note": 36,
      "vel": 111,
      "dur": 25
    },
    {
      "t": 858.9,
      "ch": 1,
      "note": 38,
      "vel": 66,
      "dur": 25
    },
    {
      "t": 858.9,
      "ch": 1,
      "note": 40,
      "vel": 75,
      "dur": 25
    },
    {
      "t": 858.9,
      "ch": 1,
      "note": 42,
      "vel": 92,
      "dur": 25
    },
    {
      "t": 858.9,
      "ch": 1,
      "note": 36,
      "vel": 93,
      "dur": 25
    },
    {
      "t": 858.9,
      "ch": 1,
      "note": 38,
      "vel": 107,
      "dur": 25
    },
    {
      "t": 858.9,
      "ch": 1,
      "note": 40,
      "vel": 94,
      "dur": 25
    },
    {
      "t": 858.9,
      "ch": 1,
      "note": 42,
      "vel": 86,
      "dur": 25
    },
    {
      "t": 858.9,
      "ch": 1,
      "note": 36,
      "vel": 50,
      "dur": 25
    },
    {
      "t": 858.9,
      "ch": 1,
      "note": 38,
      "vel": 110,
      "dur": 25
    },
    {
      "t": 858.9,
      "ch": 1,
      "note": 40,
      "vel": 81,
      "dur": 25
    },
    {
      "t": 858.9,
      "ch": 1,
      "note": 42,
      "vel": 95,
      "dur": 25
    },
    {
      "t": 858.9,
      "ch": 1,
      "note": 36,
      "vel": 88,
      "dur": 25
    },
    {
      "t": 858.9,
      "ch": 1,
      "note": 38,
      "vel": 96,
      "dur": 25
    },
    {
      "t": 858.9,
      "ch": 1,
      "note": 40,
      "vel": 65,
      "dur": 25
    },
    {
      "t": 858.9,
      "ch": 1,
      "note": 42,
      "vel": 86,
      "dur": 25
    },
    {
      "t": 858.9,
      "ch": 1,
      "note": 36,
      "vel": 79,
      "dur": 25
    },
    {
      "t": 858.9,
      "ch": 1,
      "note": 38,
      "vel": 88,
      "dur": 25
    },
    {
      "t": 858.9,
      "ch": 1,
      "note": 40,
      "vel": 71,
      "dur": 25
    },
    {
      "t": 858.9,
      "ch": 1,
      "note": 42,
      "vel": 78,
      "dur": 25
    },
    {
      "t": 858.9,
      "ch": 1,
      "note": 36,
      "vel": 99,
      "dur": 25
    },
    {
      "t": 858.9,
      "ch": 1,
      "note": 38,
      "vel": 82,
      "dur": 25
    },
    {
      "t": 858.9,
      "ch": 1,
      "note": 40,
      "vel": 105,
      "dur": 25
    },
    {
      "t": 858.9,
      "ch": 1,
      "note": 42,
      "vel": 89,
      "dur": 25
    },
    {
      "t": 858.9,
      "ch": 1,
      "note": 36,
      "vel": 67,
      "dur": 25
    },
    {
      "t": 858.9,
      "ch": 1,
      "note": 38,
      "vel": 84,
      "dur": 25
    },
    {
      "t": 858.9,
      "ch": 1,
      "note": 40,
      "vel": 72,
      "dur": 25
    },
    {
      "t": 858.9,
      "ch": 1,
      "note": 42,
      "vel": 65,
      "dur": 25
    },
    {
      "t": 858.9,
      "ch": 1,
      "note": 36,
      "vel": 109,
      "dur": 25
    },
    {
      "t": 858.9,
      "ch": 1,
      "note": 38,
      "vel": 87,
      "dur": 25
    },
    {
      "t": 858.9,
      "ch": 1,
      "note": 40,
      "vel": 96,
      "dur": 25
    },
    {
      "t": 858.9,
      "ch": 1,
      "note": 42,
      "vel": 84,
      "dur": 25
    },
    {
      "t": 858.9,
      "ch": 1,
      "note": 36,
      "vel": 95,
      "dur": 25
    },
    {
      "t": 858.9,
      "ch": 1,
      "note": 38,
      "vel": 67,
      "dur": 25
    },
    {
      "t": 858.9,
      "ch": 1,
      "note": 40,
      "vel": 74,
      "dur": 25
    },
    {
      "t": 858.9,
      "ch": 1,
      "note": 42,
      "vel": 59,
      "dur": 25
    },
    {
      "t": 858.9,
      "ch": 1,
      "note": 36,
      "vel": 68,
      "dur": 25
    },
    {
      "t": 858.9,
      "ch": 1,
      "note": 38,
      "vel": 85,
      "dur": 25
    },
    {
      "t": 858.9,
      "ch": 1,
      "note": 40,
      "vel": 84,
      "dur": 25
    },
    {
      "t": 858.9,
      "ch": 1,
      "note": 42,
      "vel": 101,
      "dur": 25
    },
    {
      "t": 858.9,
      "ch": 1,
      "note": 36,
      "vel": 90,
      "dur": 25
    },
    {
      "t": 858.9,
      "ch": 1,
      "note": 38,
      "vel": 80,
      "dur": 25
    },
    {
      "t": 858.9,
      "ch": 1,
      "note": 40,
      "vel": 95,
      "dur": 25
    },
    {
      "t": 858.9,
      "ch": 1,
      "note": 42,
      "vel": 67,
      "dur": 25
    },
    {
      "t": 858.9,
      "ch": 1,
      "note": 36,
      "vel": 97,
      "dur": 25
    },
    {
      "t": 858.9,
      "ch": 1,
      "note": 38,
      "vel": 86,
      "dur": 25
    },
    {
      "t": 858.9,
      "ch": 1,
      "note": 40,
      "vel": 80,
      "dur": 25
    },
    {
      "t": 858.9,
      "ch": 1,
      "note": 42,
      "vel": 72,
      "dur": 25
    },
    {
      "t": 858.9,
      "ch": 1,
      "note": 36,
      "vel": 78,
      "dur": 25
    },
    {
      "t": 858.9,
      "ch": 1,
      "note": 38,
      "vel": 97,
      "dur": 25
    },
    {
      "t": 858.9,
      "ch": 1,
      "note": 40,
      "vel": 104,
      "dur": 25
    },
    {
      "t": 858.9,
      "ch": 1,
      "note": 42,
      "vel": 91,
      "dur": 25
    },
    {
      "t": 858.9,
      "ch": 1,
      "note": 36,
      "vel": 95,
      "dur": 25
    },
    {
      "t": 858.9,
      "ch": 1,
      "note": 38,
      "vel": 91,
      "dur": 25
    },
    {
      "t": 858.9,
      "ch": 1,
      "note": 40,
      "vel": 88,
      "dur": 25
    },
    {
      "t": 858.9,
      "ch": 1,
      "note": 42,
      "vel": 69,
      "dur": 25
    },
    {
      "t": 858.9,
      "ch": 1,
      "note": 36,
      "vel": 104,
      "dur": 25
    },
    {
      "t": 858.9,
      "ch": 1,
      "note": 38,
      "vel": 68,
      "dur": 25
    },
    {
      "t": 858.9,
      "ch": 1,
      "note": 40,
      "vel": 110,
      "dur": 25
    },
    {
      "t": 858.9,
      "ch": 1,
      "note": 42,
      "vel": 95,
      "dur": 25
    },
    {
      "t": 858.9,
      "ch": 1,
      "note": 36,
      "vel": 113,
      "dur": 25
    },
    {
      "t": 858.9,
      "ch": 1,
      "note": 38,
      "vel": 80,
      "dur": 25
    },
    {
      "t": 858.9,
      "ch": 1,
      "note": 40,
      "vel": 73,
      "dur": 25
    },
    {
      "t": 858.9,
      "ch": 1,
      "note": 42,
      "vel": 94,
      "dur": 25
    },
    {
      "t": 858.9,
      "ch": 1,
      "note": 36,
      "vel": 80,
      "dur": 25
    },
    {
      "t": 858.9,
      "ch": 1,
      "note": 38,
      "vel": 93,
      "dur": 25
    },
    {
      "t": 858.9,
      "ch": 1,
      "note": 40,
      "vel": 101,
      "dur": 25
    },
    {
      "t": 858.9,
      "ch": 1,
      "note": 42,
      "vel": 80,
      "dur": 25
    },
    {
      "t": 858.9,
      "ch": 1,
      "note": 36,
      "vel": 82,
      "dur": 25
    },
    {
      "t": 858.9,
      "ch": 1,
      "note": 38,
      "vel": 82,
      "dur": 25
    },
    {
      "t": 858.9,
      "ch": 1,
      "note": 40,
      "vel": 56,
      "dur": 25
    },
    {
      "t": 858.9,
      "ch": 1,
      "note": 42,
      "vel": 97,
      "dur": 25
    },
    {
      "t": 858.9,
      "ch": 1,
      "note": 36,
      "vel": 84,
      "dur": 25
    },
    {
      "t": 858.9,
      "ch": 1,
      "note": 38,
      "vel": 93,
      "dur": 25
    },
    {
      "t": 858.9,
      "ch": 1,
      "note": 40,
      "vel": 78,
      "dur": 25
    },
    {
      "t": 858.9,
      "ch": 1,
      "note": 42,
      "vel": 69,
      "dur": 25
    },
    {
      "t": 858.9,
      "ch": 1,
      "note": 36,
      "vel": 75,
      "dur": 25
    },
    {
      "t": 858.9,
      "ch": 1,
      "note": 38,
      "vel": 80,
      "dur": 25
    },
    {
      "t": 858.9,
      "ch": 1,
      "note": 40,
      "vel": 69,
      "dur": 25
    },
    {
      "t": 858.9,
      "ch": 1,
      "note": 42,
      "vel": 111,
      "dur": 25
    },
    {
      "t": 858.9,
      "ch": 1,
      "note": 36,
      "vel": 97,
      "dur": 25
    },
    {
      "t": 858.9,
      "ch": 1,
      "note": 38,
      "vel": 97,
      "dur": 25
    },
    {
      "t": 858.9,
      "ch": 1,
      "note": 40,
      "vel": 97,
      "dur": 25
    },
    {
      "t": 858.9,
      "ch": 1,
      "note": 42,
      "vel": 87,
      "dur": 25
    },
    {
      "t": 858.9,
      "ch": 1,
      "note": 36,
      "vel": 97,
      "dur": 25
    },
    {
      "t": 858.9,
      "ch": 1,
      "note": 38,
      "vel": 85,
      "dur": 25
    },
    {
      "t": 858.9,
      "ch": 1,
      "note": 40,
      "vel": 82,
      "dur": 25
    },
    {
      "t": 858.9,
      "ch": 1,
      "note": 42,
      "vel": 85,
      "dur": 25
    },
    {
      "t": 858.9,
      "ch": 1,
      "note": 36,
      "vel": 97,
      "dur": 25
    },
    {
      "t": 858.9,
      "ch": 1,
      "note": 38,
      "vel": 75,
      "dur": 25
    },
    {
      "t": 858.9,
      "ch": 1,
      "note": 40,
      "vel": 67,
      "dur": 25
    },
    {
      "t": 858.9,
      "ch": 1,
      "note": 42,
      "vel": 67,
      "dur": 25
    },
    {
      "t": 858.9,
      "ch": 1,
      "note": 36,
      "vel": 82,
      "dur": 25
    },
    {
      "t": 858.9,
      "ch": 1,
      "note": 38,
      "vel": 89,
      "dur": 25
    },
    {
      "t": 858.9,
      "ch": 1,
      "note": 40,
      "vel": 93,
      "dur": 25
    },
    {
      "t": 858.9,
      "ch": 1,
      "note": 42,
      "vel": 75,
      "dur": 25
    },
    {
      "t": 858.9,
      "ch": 1,
      "note": 36,
      "vel": 82,
      "dur": 25
    },
    {
      "t": 858.9,
      "ch": 1,
      "note": 38,
      "vel": 99,
      "dur": 25
    },
    {
      "t": 858.9,
      "ch": 1,
      "note": 40,
      "vel": 84,
      "dur": 25
    },
    {
      "t": 858.9,
      "ch": 1,
      "note": 42,
      "vel": 84,
      "dur": 25
    },
    {
      "t": 858.9,
      "ch": 1,
      "note": 36,
      "vel": 98,
      "dur": 25
    },
    {
      "t": 858.9,
      "ch": 1,
      "note": 38,
      "vel": 66,
      "dur": 25
    },
    {
      "t": 858.9,
      "ch": 1,
      "note": 40,
      "vel": 67,
      "dur": 25
    },
    {
      "t": 858.9,
      "ch": 1,
      "note": 42,
      "vel": 98,
      "dur": 25
    },
    {
      "t": 858.9,
      "ch": 1,
      "note": 36,
      "vel": 84,
      "dur": 25
    },
    {
      "t": 858.9,
      "ch": 1,
      "note": 38,
      "vel": 75,
      "dur": 25
    },
    {
      "t": 858.9,
      "ch": 1,
      "note": 40,
      "vel": 90,
      "dur": 25
    },
    {
      "t": 858.9,
      "ch": 1,
      "note": 42,
      "vel": 74,
      "dur": 25
    },
    {
      "t": 858.9,
      "ch": 1,
      "note": 36,
      "vel": 89,
      "dur": 25
    },
    {
      "t": 858.9,
      "ch": 1,
      "note": 38,
      "vel": 82,
      "dur": 25
    },
    {
      "t": 858.9,
      "ch": 1,
      "note": 40,
      "vel": 75,
      "dur": 25
    },
    {
      "t": 858.9,
      "ch": 1,
      "note": 42,
      "vel": 67,
      "dur": 25
    },
    {
      "t": 858.9,
      "ch": 1,
      "note": 36,
      "vel": 77,
      "dur": 25
    },
    {
      "t": 858.9,
      "ch": 1,
      "note": 38,
      "vel": 104,
      "dur": 25
    },
    {
      "t": 858.9,
      "ch": 1,
      "note": 40,
      "vel": 90,
      "dur": 25
    },
    {
      "t": 858.9,
      "ch": 1,
      "note": 42,
      "vel": 89,
      "dur": 25
    },
    {
      "t": 858.9,
      "ch": 1,
      "note": 36,
      "vel": 92,
      "dur": 25
    },
    {
      "t": 858.9,
      "ch": 1,
      "note": 38,
      "vel": 81,
      "dur": 25
    },
    {
      "t": 858.9,
      "ch": 1,
      "note": 40,
      "vel": 77,
      "dur": 25
    },
    {
      "t": 858.9,
      "ch": 1,
      "note": 42,
      "vel": 92,
      "dur": 25
    },
    {
      "t": 858.9,
      "ch": 1,
      "note": 36,
      "vel": 78,
      "dur": 25
    },
    {
      "t": 858.9,
      "ch": 1,
      "note": 38,
      "vel": 70,
      "dur": 25
    },
    {
      "t": 858.9,
      "ch": 1,
      "note": 40,
      "vel": 89,
      "dur": 25
    },
    {
      "t": 858.9,
      "ch": 1,
      "note": 42,
      "vel": 85,
      "dur": 25
    },
    {
      "t": 858.9,
      "ch": 1,
      "note": 36,
      "vel": 108,
      "dur": 25
    },
    {
      "t": 858.9,
      "ch": 1,
      "note": 38,
      "vel": 99,
      "dur": 25
    },
    {
      "t": 858.9,
      "ch": 1,
      "note": 40,
      "vel": 95,
      "dur": 25
    },
    {
      "t": 858.9,
      "ch": 1,
      "note": 42,
      "vel": 90,
      "dur": 25
    },
    {
      "t": 858.9,
      "ch": 1,
      "note": 36,
      "vel": 86,
      "dur": 25
    },
    {
      "t": 858.9,
      "ch": 1,
      "note": 38,
      "vel": 77,
      "dur": 25
    },
    {
      "t": 858.9,
      "ch": 1,
      "note": 40,
      "vel": 73,
      "dur": 25
    },
    {
      "t": 858.9,
      "ch": 1,
      "note": 42,
      "vel": 71,
      "dur": 25
    },
    {
      "t": 858.9,
      "ch": 1,
      "note": 36,
      "vel": 81,
      "dur": 25
    },
    {
      "t": 858.9,
      "ch": 1,
      "note": 38,
      "vel": 97,
      "dur": 25
    },
    {
      "t": 858.9,
      "ch": 1,
      "note": 40,
      "vel": 89,
      "dur": 25
    },
    {
      "t": 858.9,
      "ch": 1,
      "note": 42,
      "vel": 90,
      "dur": 25
    },
    {
      "t": 858.9,
      "ch": 1,
      "note": 36,
      "vel": 94,
      "dur": 25
    },
    {
      "t": 858.9,
      "ch": 1,
      "note": 38,
      "vel": 80,
      "dur": 25
    },
    {
      "t": 858.9,
      "ch": 1,
      "note": 40,
      "vel": 65,
      "dur": 25
    },
    {
      "t": 858.9,
      "ch": 1,
      "note": 42,
      "vel": 99,
      "dur": 25
    },
    {
      "t": 858.9,
      "ch": 1,
      "note": 36,
      "vel": 82,
      "dur": 25
    },
    {
      "t": 858.9,
      "ch": 1,
      "note": 38,
      "vel": 79,
      "dur": 25
    },
    {
      "t": 858.9,
      "ch": 1,
      "note": 40,
      "vel": 65,
      "dur": 25
    },
    {
      "t": 858.9,
      "ch": 1,
      "note": 42,
      "vel": 80,
      "dur": 25
    },
    {
      "t": 858.9,
      "ch": 7,
      "note": 48,
      "vel": 71,
      "dur": 80
    },
    {
      "t": 858.9,
      "ch": 7,
      "note": 45,
      "vel": 73,
      "dur": 80
    },
    {
      "t": 858.9,
      "ch": 7,
      "note": 36,
      "vel": 55,
      "dur": 80
    },
    {
      "t": 858.9,
      "ch": 7,
      "note": 38,
      "vel": 75,
      "dur": 80
    },
    {
      "t": 859,
      "ch": 1,
      "note": 36,
      "vel": 103,
      "dur": 25
    },
    {
      "t": 859,
      "ch": 1,
      "note": 38,
      "vel": 66,
      "dur": 25
    },
    {
      "t": 859.2,
      "ch": 1,
      "note": 40,
      "vel": 63,
      "dur": 25
    },
    {
      "t": 859.2,
      "ch": 1,
      "note": 42,
      "vel": 84,
      "dur": 25
    },
    {
      "t": 859.2,
      "ch": 7,
      "note": 36,
      "vel": 60,
      "dur": 80
    },
    {
      "t": 859.2,
      "ch": 6,
      "note": 73,
      "vel": 19,
      "dur": 621
    },
    {
      "t": 859.4,
      "ch": 1,
      "note": 36,
      "vel": 58,
      "dur": 25
    },
    {
      "t": 859.4,
      "ch": 1,
      "note": 38,
      "vel": 83,
      "dur": 25
    },
    {
      "t": 859.5,
      "ch": 1,
      "note": 40,
      "vel": 76,
      "dur": 25
    },
    {
      "t": 859.6,
      "ch": 1,
      "note": 42,
      "vel": 72,
      "dur": 25
    },
    {
      "t": 859.6,
      "ch": 7,
      "note": 48,
      "vel": 73,
      "dur": 80
    },
    {
      "t": 859.6,
      "ch": 7,
      "note": 36,
      "vel": 63,
      "dur": 80
    },
    {
      "t": 859.6,
      "ch": 5,
      "note": 68,
      "vel": 43,
      "dur": 929
    },
    {
      "t": 859.7,
      "ch": 1,
      "note": 36,
      "vel": 91,
      "dur": 25
    },
    {
      "t": 859.7,
      "ch": 1,
      "note": 38,
      "vel": 89,
      "dur": 25
    },
    {
      "t": 859.8,
      "ch": 7,
      "note": 45,
      "vel": 73,
      "dur": 80
    },
    {
      "t": 859.8,
      "ch": 7,
      "note": 38,
      "vel": 67,
      "dur": 80
    },
    {
      "t": 859.9,
      "ch": 1,
      "note": 40,
      "vel": 77,
      "dur": 25
    },
    {
      "t": 859.9,
      "ch": 1,
      "note": 42,
      "vel": 76,
      "dur": 25
    },
    {
      "t": 860.1,
      "ch": 1,
      "note": 36,
      "vel": 90,
      "dur": 25
    },
    {
      "t": 860.1,
      "ch": 1,
      "note": 38,
      "vel": 89,
      "dur": 25
    },
    {
      "t": 860.2,
      "ch": 2,
      "note": 56,
      "vel": 0,
      "dur": 0
    },
    {
      "t": 860.2,
      "ch": 2,
      "note": 68,
      "vel": 0,
      "dur": 0
    },
    {
      "t": 860.2,
      "ch": 2,
      "note": 58,
      "vel": 58,
      "dur": 20930
    },
    {
      "t": 860.3,
      "ch": 1,
      "note": 40,
      "vel": 61,
      "dur": 25
    },
    {
      "t": 860.3,
      "ch": 1,
      "note": 42,
      "vel": 96,
      "dur": 25
    },
    {
      "t": 860.3,
      "ch": 7,
      "note": 48,
      "vel": 63,
      "dur": 80
    },
    {
      "t": 860.3,
      "ch": 7,
      "note": 36,
      "vel": 60,
      "dur": 80
    },
    {
      "t": 860.4,
      "ch": 1,
      "note": 36,
      "vel": 84,
      "dur": 25
    },
    {
      "t": 860.4,
      "ch": 1,
      "note": 38,
      "vel": 75,
      "dur": 25
    },
    {
      "t": 860.6,
      "ch": 1,
      "note": 40,
      "vel": 99,
      "dur": 25
    },
    {
      "t": 860.6,
      "ch": 1,
      "note": 42,
      "vel": 57,
      "dur": 25
    },
    {
      "t": 860.6,
      "ch": 7,
      "note": 45,
      "vel": 72,
      "dur": 80
    },
    {
      "t": 860.6,
      "ch": 7,
      "note": 36,
      "vel": 58,
      "dur": 80
    },
    {
      "t": 860.6,
      "ch": 7,
      "note": 38,
      "vel": 69,
      "dur": 80
    },
    {
      "t": 860.8,
      "ch": 1,
      "note": 36,
      "vel": 62,
      "dur": 25
    },
    {
      "t": 860.8,
      "ch": 1,
      "note": 38,
      "vel": 72,
      "dur": 25
    },
    {
      "t": 861,
      "ch": 1,
      "note": 40,
      "vel": 69,
      "dur": 25
    },
    {
      "t": 861,
      "ch": 1,
      "note": 42,
      "vel": 103,
      "dur": 25
    },
    {
      "t": 861,
      "ch": 7,
      "note": 48,
      "vel": 69,
      "dur": 80
    },
    {
      "t": 861,
      "ch": 7,
      "note": 36,
      "vel": 71,
      "dur": 80
    },
    {
      "t": 861.1,
      "ch": 1,
      "note": 36,
      "vel": 63,
      "dur": 25
    },
    {
      "t": 861.1,
      "ch": 1,
      "note": 38,
      "vel": 62,
      "dur": 25
    },
    {
      "t": 861.3,
      "ch": 1,
      "note": 40,
      "vel": 59,
      "dur": 25
    },
    {
      "t": 861.3,
      "ch": 1,
      "note": 42,
      "vel": 79,
      "dur": 25
    },
    {
      "t": 861.5,
      "ch": 1,
      "note": 36,
      "vel": 97,
      "dur": 25
    },
    {
      "t": 861.5,
      "ch": 1,
      "note": 38,
      "vel": 87,
      "dur": 25
    },
    {
      "t": 861.6,
      "ch": 1,
      "note": 40,
      "vel": 60,
      "dur": 25
    },
    {
      "t": 861.7,
      "ch": 0,
      "note": 36,
      "vel": 111,
      "dur": 55
    },
    {
      "t": 861.7,
      "ch": 1,
      "note": 42,
      "vel": 57,
      "dur": 25
    },
    {
      "t": 861.7,
      "ch": 7,
      "note": 48,
      "vel": 84,
      "dur": 80
    },
    {
      "t": 861.7,
      "ch": 7,
      "note": 45,
      "vel": 63,
      "dur": 80
    },
    {
      "t": 861.7,
      "ch": 7,
      "note": 36,
      "vel": 82,
      "dur": 80
    },
    {
      "t": 861.7,
      "ch": 7,
      "note": 38,
      "vel": 88,
      "dur": 80
    },
    {
      "t": 861.8,
      "ch": 1,
      "note": 36,
      "vel": 98,
      "dur": 25
    },
    {
      "t": 861.8,
      "ch": 1,
      "note": 38,
      "vel": 60,
      "dur": 25
    },
    {
      "t": 862,
      "ch": 1,
      "note": 40,
      "vel": 92,
      "dur": 25
    },
    {
      "t": 862,
      "ch": 1,
      "note": 42,
      "vel": 88,
      "dur": 25
    },
    {
      "t": 862,
      "ch": 7,
      "note": 36,
      "vel": 69,
      "dur": 80
    },
    {
      "t": 862.2,
      "ch": 1,
      "note": 36,
      "vel": 83,
      "dur": 25
    },
    {
      "t": 862.2,
      "ch": 1,
      "note": 38,
      "vel": 92,
      "dur": 25
    },
    {
      "t": 862.3,
      "ch": 1,
      "note": 40,
      "vel": 63,
      "dur": 25
    },
    {
      "t": 862.4,
      "ch": 1,
      "note": 42,
      "vel": 87,
      "dur": 25
    },
    {
      "t": 862.4,
      "ch": 7,
      "note": 48,
      "vel": 88,
      "dur": 80
    },
    {
      "t": 862.4,
      "ch": 7,
      "note": 36,
      "vel": 60,
      "dur": 80
    },
    {
      "t": 862.5,
      "ch": 1,
      "note": 36,
      "vel": 102,
      "dur": 25
    },
    {
      "t": 862.5,
      "ch": 1,
      "note": 38,
      "vel": 83,
      "dur": 25
    },
    {
      "t": 862.6,
      "ch": 7,
      "note": 45,
      "vel": 60,
      "dur": 80
    },
    {
      "t": 862.6,
      "ch": 7,
      "note": 38,
      "vel": 68,
      "dur": 80
    },
    {
      "t": 862.7,
      "ch": 1,
      "note": 40,
      "vel": 81,
      "dur": 25
    },
    {
      "t": 862.7,
      "ch": 1,
      "note": 42,
      "vel": 85,
      "dur": 25
    },
    {
      "t": 862.7,
      "ch": 0,
      "note": 36,
      "vel": 84,
      "dur": 55
    },
    {
      "t": 862.9,
      "ch": 1,
      "note": 36,
      "vel": 79,
      "dur": 25
    },
    {
      "t": 862.9,
      "ch": 1,
      "note": 38,
      "vel": 95,
      "dur": 25
    },
    {
      "t": 863,
      "ch": 1,
      "note": 40,
      "vel": 86,
      "dur": 25
    },
    {
      "t": 863.1,
      "ch": 1,
      "note": 42,
      "vel": 93,
      "dur": 25
    },
    {
      "t": 863.1,
      "ch": 7,
      "note": 48,
      "vel": 72,
      "dur": 80
    },
    {
      "t": 863.1,
      "ch": 7,
      "note": 36,
      "vel": 73,
      "dur": 80
    },
    {
      "t": 863.2,
      "ch": 1,
      "note": 36,
      "vel": 92,
      "dur": 25
    },
    {
      "t": 863.2,
      "ch": 1,
      "note": 38,
      "vel": 86,
      "dur": 25
    },
    {
      "t": 863.4,
      "ch": 1,
      "note": 40,
      "vel": 77,
      "dur": 25
    },
    {
      "t": 863.4,
      "ch": 1,
      "note": 42,
      "vel": 76,
      "dur": 25
    },
    {
      "t": 863.4,
      "ch": 7,
      "note": 45,
      "vel": 68,
      "dur": 80
    },
    {
      "t": 863.4,
      "ch": 7,
      "note": 36,
      "vel": 65,
      "dur": 80
    },
    {
      "t": 863.4,
      "ch": 7,
      "note": 38,
      "vel": 58,
      "dur": 80
    },
    {
      "t": 863.6,
      "ch": 1,
      "note": 36,
      "vel": 87,
      "dur": 25
    },
    {
      "t": 863.6,
      "ch": 1,
      "note": 38,
      "vel": 86,
      "dur": 25
    },
    {
      "t": 863.7,
      "ch": 1,
      "note": 40,
      "vel": 72,
      "dur": 25
    },
    {
      "t": 863.8,
      "ch": 1,
      "note": 42,
      "vel": 83,
      "dur": 25
    },
    {
      "t": 863.8,
      "ch": 7,
      "note": 48,
      "vel": 67,
      "dur": 80
    },
    {
      "t": 863.8,
      "ch": 7,
      "note": 36,
      "vel": 76,
      "dur": 80
    },
    {
      "t": 863.9,
      "ch": 1,
      "note": 36,
      "vel": 56,
      "dur": 25
    },
    {
      "t": 863.9,
      "ch": 1,
      "note": 38,
      "vel": 70,
      "dur": 25
    },
    {
      "t": 864.1,
      "ch": 1,
      "note": 40,
      "vel": 77,
      "dur": 25
    },
    {
      "t": 864.1,
      "ch": 1,
      "note": 42,
      "vel": 67,
      "dur": 25
    },
    {
      "t": 864.1,
      "ch": 0,
      "note": 36,
      "vel": 79,
      "dur": 55
    },
    {
      "t": 864.3,
      "ch": 1,
      "note": 36,
      "vel": 65,
      "dur": 25
    },
    {
      "t": 864.3,
      "ch": 1,
      "note": 38,
      "vel": 86,
      "dur": 25
    },
    {
      "t": 864.4,
      "ch": 1,
      "note": 40,
      "vel": 84,
      "dur": 25
    },
    {
      "t": 864.4,
      "ch": 0,
      "note": 36,
      "vel": 112,
      "dur": 55
    },
    {
      "t": 864.4,
      "ch": 1,
      "note": 42,
      "vel": 93,
      "dur": 25
    },
    {
      "t": 864.4,
      "ch": 7,
      "note": 48,
      "vel": 63,
      "dur": 80
    },
    {
      "t": 864.4,
      "ch": 7,
      "note": 45,
      "vel": 79,
      "dur": 80
    },
    {
      "t": 864.4,
      "ch": 7,
      "note": 36,
      "vel": 70,
      "dur": 80
    },
    {
      "t": 864.4,
      "ch": 7,
      "note": 38,
      "vel": 73,
      "dur": 80
    },
    {
      "t": 864.5,
      "ch": 6,
      "note": 78,
      "vel": 17,
      "dur": 608
    },
    {
      "t": 864.6,
      "ch": 1,
      "note": 36,
      "vel": 90,
      "dur": 25
    },
    {
      "t": 864.6,
      "ch": 1,
      "note": 38,
      "vel": 83,
      "dur": 25
    },
    {
      "t": 864.8,
      "ch": 1,
      "note": 40,
      "vel": 96,
      "dur": 25
    },
    {
      "t": 864.8,
      "ch": 1,
      "note": 42,
      "vel": 52,
      "dur": 25
    },
    {
      "t": 864.8,
      "ch": 7,
      "note": 36,
      "vel": 63,
      "dur": 80
    },
    {
      "t": 865,
      "ch": 1,
      "note": 36,
      "vel": 87,
      "dur": 25
    },
    {
      "t": 865,
      "ch": 1,
      "note": 38,
      "vel": 77,
      "dur": 25
    },
    {
      "t": 865,
      "ch": 5,
      "note": 63,
      "vel": 14,
      "dur": 913
    },
    {
      "t": 865.1,
      "ch": 1,
      "note": 40,
      "vel": 66,
      "dur": 25
    },
    {
      "t": 865.1,
      "ch": 1,
      "note": 42,
      "vel": 75,
      "dur": 25
    },
    {
      "t": 865.1,
      "ch": 7,
      "note": 48,
      "vel": 59,
      "dur": 80
    },
    {
      "t": 865.1,
      "ch": 7,
      "note": 36,
      "vel": 72,
      "dur": 80
    },
    {
      "t": 865.3,
      "ch": 1,
      "note": 36,
      "vel": 102,
      "dur": 25
    },
    {
      "t": 865.3,
      "ch": 1,
      "note": 38,
      "vel": 75,
      "dur": 25
    },
    {
      "t": 865.3,
      "ch": 7,
      "note": 45,
      "vel": 58,
      "dur": 80
    },
    {
      "t": 865.3,
      "ch": 7,
      "note": 38,
      "vel": 52,
      "dur": 80
    },
    {
      "t": 865.5,
      "ch": 1,
      "note": 40,
      "vel": 70,
      "dur": 25
    },
    {
      "t": 865.5,
      "ch": 1,
      "note": 42,
      "vel": 84,
      "dur": 25
    },
    {
      "t": 865.5,
      "ch": 0,
      "note": 36,
      "vel": 84,
      "dur": 55
    },
    {
      "t": 865.7,
      "ch": 1,
      "note": 36,
      "vel": 67,
      "dur": 25
    },
    {
      "t": 865.7,
      "ch": 1,
      "note": 38,
      "vel": 96,
      "dur": 25
    },
    {
      "t": 865.7,
      "ch": 6,
      "note": 80,
      "vel": 26,
      "dur": 609
    },
    {
      "t": 865.8,
      "ch": 1,
      "note": 40,
      "vel": 74,
      "dur": 25
    },
    {
      "t": 865.8,
      "ch": 1,
      "note": 42,
      "vel": 108,
      "dur": 25
    },
    {
      "t": 865.8,
      "ch": 7,
      "note": 48,
      "vel": 65,
      "dur": 80
    },
    {
      "t": 865.8,
      "ch": 7,
      "note": 36,
      "vel": 65,
      "dur": 80
    },
    {
      "t": 866,
      "ch": 1,
      "note": 36,
      "vel": 90,
      "dur": 25
    },
    {
      "t": 866,
      "ch": 1,
      "note": 38,
      "vel": 94,
      "dur": 25
    },
    {
      "t": 866.2,
      "ch": 1,
      "note": 40,
      "vel": 77,
      "dur": 25
    },
    {
      "t": 866.2,
      "ch": 1,
      "note": 42,
      "vel": 83,
      "dur": 25
    },
    {
      "t": 866.2,
      "ch": 7,
      "note": 45,
      "vel": 56,
      "dur": 80
    },
    {
      "t": 866.2,
      "ch": 7,
      "note": 36,
      "vel": 66,
      "dur": 80
    },
    {
      "t": 866.2,
      "ch": 7,
      "note": 38,
      "vel": 54,
      "dur": 80
    },
    {
      "t": 866.3,
      "ch": 1,
      "note": 36,
      "vel": 89,
      "dur": 25
    },
    {
      "t": 866.4,
      "ch": 1,
      "note": 38,
      "vel": 66,
      "dur": 25
    },
    {
      "t": 866.5,
      "ch": 1,
      "note": 40,
      "vel": 73,
      "dur": 25
    },
    {
      "t": 866.5,
      "ch": 1,
      "note": 42,
      "vel": 64,
      "dur": 25
    },
    {
      "t": 866.5,
      "ch": 7,
      "note": 48,
      "vel": 69,
      "dur": 80
    },
    {
      "t": 866.5,
      "ch": 7,
      "note": 36,
      "vel": 83,
      "dur": 80
    },
    {
      "t": 866.6,
      "ch": 6,
      "note": 70,
      "vel": 12,
      "dur": 611
    },
    {
      "t": 866.7,
      "ch": 1,
      "note": 36,
      "vel": 88,
      "dur": 25
    },
    {
      "t": 866.7,
      "ch": 1,
      "note": 38,
      "vel": 64,
      "dur": 25
    },
    {
      "t": 866.9,
      "ch": 1,
      "note": 40,
      "vel": 79,
      "dur": 25
    },
    {
      "t": 866.9,
      "ch": 1,
      "note": 42,
      "vel": 86,
      "dur": 25
    },
    {
      "t": 866.9,
      "ch": 0,
      "note": 36,
      "vel": 80,
      "dur": 55
    },
    {
      "t": 867,
      "ch": 1,
      "note": 36,
      "vel": 66,
      "dur": 25
    },
    {
      "t": 867.1,
      "ch": 1,
      "note": 38,
      "vel": 66,
      "dur": 25
    },
    {
      "t": 867.2,
      "ch": 1,
      "note": 40,
      "vel": 77,
      "dur": 25
    },
    {
      "t": 867.2,
      "ch": 0,
      "note": 36,
      "vel": 113,
      "dur": 55
    },
    {
      "t": 867.2,
      "ch": 1,
      "note": 42,
      "vel": 84,
      "dur": 25
    },
    {
      "t": 867.2,
      "ch": 7,
      "note": 48,
      "vel": 66,
      "dur": 80
    },
    {
      "t": 867.2,
      "ch": 7,
      "note": 45,
      "vel": 66,
      "dur": 80
    },
    {
      "t": 867.2,
      "ch": 7,
      "note": 36,
      "vel": 74,
      "dur": 80
    },
    {
      "t": 867.2,
      "ch": 7,
      "note": 38,
      "vel": 64,
      "dur": 80
    },
    {
      "t": 867.4,
      "ch": 1,
      "note": 36,
      "vel": 85,
      "dur": 25
    },
    {
      "t": 867.4,
      "ch": 1,
      "note": 38,
      "vel": 70,
      "dur": 25
    },
    {
      "t": 867.6,
      "ch": 1,
      "note": 40,
      "vel": 69,
      "dur": 25
    },
    {
      "t": 867.6,
      "ch": 1,
      "note": 42,
      "vel": 82,
      "dur": 25
    },
    {
      "t": 867.6,
      "ch": 7,
      "note": 36,
      "vel": 69,
      "dur": 80
    },
    {
      "t": 867.7,
      "ch": 1,
      "note": 36,
      "vel": 76,
      "dur": 25
    },
    {
      "t": 867.8,
      "ch": 1,
      "note": 38,
      "vel": 61,
      "dur": 25
    },
    {
      "t": 867.9,
      "ch": 1,
      "note": 40,
      "vel": 84,
      "dur": 25
    },
    {
      "t": 867.9,
      "ch": 1,
      "note": 42,
      "vel": 75,
      "dur": 25
    },
    {
      "t": 867.9,
      "ch": 7,
      "note": 48,
      "vel": 82,
      "dur": 80
    },
    {
      "t": 867.9,
      "ch": 7,
      "note": 36,
      "vel": 72,
      "dur": 80
    },
    {
      "t": 868.1,
      "ch": 1,
      "note": 36,
      "vel": 101,
      "dur": 25
    },
    {
      "t": 868.1,
      "ch": 1,
      "note": 38,
      "vel": 79,
      "dur": 25
    },
    {
      "t": 868.1,
      "ch": 7,
      "note": 45,
      "vel": 55,
      "dur": 80
    },
    {
      "t": 868.1,
      "ch": 7,
      "note": 38,
      "vel": 57,
      "dur": 80
    },
    {
      "t": 868.3,
      "ch": 1,
      "note": 40,
      "vel": 85,
      "dur": 25
    },
    {
      "t": 868.3,
      "ch": 1,
      "note": 42,
      "vel": 91,
      "dur": 25
    },
    {
      "t": 868.3,
      "ch": 0,
      "note": 36,
      "vel": 77,
      "dur": 55
    },
    {
      "t": 868.4,
      "ch": 1,
      "note": 36,
      "vel": 80,
      "dur": 25
    },
    {
      "t": 868.5,
      "ch": 1,
      "note": 38,
      "vel": 56,
      "dur": 25
    },
    {
      "t": 868.6,
      "ch": 1,
      "note": 40,
      "vel": 84,
      "dur": 25
    },
    {
      "t": 868.6,
      "ch": 1,
      "note": 42,
      "vel": 79,
      "dur": 25
    },
    {
      "t": 868.6,
      "ch": 7,
      "note": 48,
      "vel": 74,
      "dur": 80
    },
    {
      "t": 868.6,
      "ch": 7,
      "note": 36,
      "vel": 66,
      "dur": 80
    },
    {
      "t": 868.8,
      "ch": 1,
      "note": 36,
      "vel": 84,
      "dur": 25
    },
    {
      "t": 868.8,
      "ch": 1,
      "note": 38,
      "vel": 56,
      "dur": 25
    },
    {
      "t": 869,
      "ch": 1,
      "note": 40,
      "vel": 62,
      "dur": 25
    },
    {
      "t": 869,
      "ch": 1,
      "note": 42,
      "vel": 65,
      "dur": 25
    },
    {
      "t": 869,
      "ch": 7,
      "note": 45,
      "vel": 65,
      "dur": 80
    },
    {
      "t": 869,
      "ch": 7,
      "note": 36,
      "vel": 58,
      "dur": 80
    },
    {
      "t": 869,
      "ch": 7,
      "note": 38,
      "vel": 66,
      "dur": 80
    },
    {
      "t": 869.1,
      "ch": 1,
      "note": 36,
      "vel": 64,
      "dur": 25
    },
    {
      "t": 869.2,
      "ch": 1,
      "note": 38,
      "vel": 85,
      "dur": 25
    },
    {
      "t": 869.3,
      "ch": 1,
      "note": 40,
      "vel": 78,
      "dur": 25
    },
    {
      "t": 869.3,
      "ch": 1,
      "note": 42,
      "vel": 83,
      "dur": 25
    },
    {
      "t": 869.3,
      "ch": 7,
      "note": 48,
      "vel": 71,
      "dur": 80
    },
    {
      "t": 869.3,
      "ch": 7,
      "note": 36,
      "vel": 65,
      "dur": 80
    },
    {
      "t": 869.5,
      "ch": 1,
      "note": 36,
      "vel": 78,
      "dur": 25
    },
    {
      "t": 869.5,
      "ch": 1,
      "note": 38,
      "vel": 69,
      "dur": 25
    },
    {
      "t": 869.7,
      "ch": 1,
      "note": 40,
      "vel": 82,
      "dur": 25
    },
    {
      "t": 869.7,
      "ch": 1,
      "note": 42,
      "vel": 65,
      "dur": 25
    },
    {
      "t": 869.7,
      "ch": 0,
      "note": 36,
      "vel": 81,
      "dur": 55
    },
    {
      "t": 869.8,
      "ch": 1,
      "note": 36,
      "vel": 69,
      "dur": 25
    },
    {
      "t": 869.8,
      "ch": 1,
      "note": 38,
      "vel": 67,
      "dur": 25
    },
    {
      "t": 870,
      "ch": 1,
      "note": 40,
      "vel": 80,
      "dur": 25
    },
    {
      "t": 870,
      "ch": 7,
      "note": 48,
      "vel": 72,
      "dur": 80
    },
    {
      "t": 870,
      "ch": 7,
      "note": 45,
      "vel": 74,
      "dur": 80
    },
    {
      "t": 870,
      "ch": 7,
      "note": 36,
      "vel": 66,
      "dur": 80
    },
    {
      "t": 870,
      "ch": 7,
      "note": 38,
      "vel": 67,
      "dur": 80
    },
    {
      "t": 870.4,
      "ch": 7,
      "note": 36,
      "vel": 65,
      "dur": 80
    },
    {
      "t": 870.7,
      "ch": 7,
      "note": 48,
      "vel": 73,
      "dur": 80
    },
    {
      "t": 870.7,
      "ch": 7,
      "note": 36,
      "vel": 72,
      "dur": 80
    },
    {
      "t": 870.9,
      "ch": 7,
      "note": 45,
      "vel": 58,
      "dur": 80
    },
    {
      "t": 870.9,
      "ch": 7,
      "note": 38,
      "vel": 60,
      "dur": 80
    },
    {
      "t": 871.3,
      "ch": 2,
      "note": 58,
      "vel": 57,
      "dur": 20930
    },
    {
      "t": 871.3,
      "ch": 4,
      "note": 63,
      "vel": 53,
      "dur": 2740
    },
    {
      "t": 871.3,
      "ch": 4,
      "note": 68,
      "vel": 66,
      "dur": 2740
    },
    {
      "t": 871.4,
      "ch": 7,
      "note": 48,
      "vel": 66,
      "dur": 80
    },
    {
      "t": 871.4,
      "ch": 7,
      "note": 36,
      "vel": 71,
      "dur": 80
    },
    {
      "t": 871.8,
      "ch": 7,
      "note": 45,
      "vel": 61,
      "dur": 80
    },
    {
      "t": 871.8,
      "ch": 7,
      "note": 36,
      "vel": 61,
      "dur": 80
    },
    {
      "t": 871.8,
      "ch": 7,
      "note": 38,
      "vel": 53,
      "dur": 80
    },
    {
      "t": 872.1,
      "ch": 7,
      "note": 48,
      "vel": 70,
      "dur": 80
    },
    {
      "t": 872.1,
      "ch": 7,
      "note": 36,
      "vel": 72,
      "dur": 80
    },
    {
      "t": 872.8,
      "ch": 7,
      "note": 48,
      "vel": 69,
      "dur": 80
    },
    {
      "t": 872.8,
      "ch": 7,
      "note": 45,
      "vel": 66,
      "dur": 80
    },
    {
      "t": 872.8,
      "ch": 7,
      "note": 36,
      "vel": 67,
      "dur": 80
    },
    {
      "t": 872.8,
      "ch": 7,
      "note": 38,
      "vel": 59,
      "dur": 80
    },
    {
      "t": 873.2,
      "ch": 7,
      "note": 36,
      "vel": 54,
      "dur": 80
    },
    {
      "t": 873.5,
      "ch": 7,
      "note": 48,
      "vel": 73,
      "dur": 80
    },
    {
      "t": 873.5,
      "ch": 7,
      "note": 36,
      "vel": 74,
      "dur": 80
    },
    {
      "t": 873.7,
      "ch": 7,
      "note": 45,
      "vel": 63,
      "dur": 80
    },
    {
      "t": 873.7,
      "ch": 7,
      "note": 38,
      "vel": 72,
      "dur": 80
    },
    {
      "t": 873.7,
      "ch": 6,
      "note": 61,
      "vel": 14,
      "dur": 635
    },
    {
      "t": 874.1,
      "ch": 4,
      "note": 63,
      "vel": 50,
      "dur": 2740
    },
    {
      "t": 874.1,
      "ch": 4,
      "note": 65,
      "vel": 49,
      "dur": 2740
    },
    {
      "t": 874.2,
      "ch": 7,
      "note": 48,
      "vel": 74,
      "dur": 80
    },
    {
      "t": 874.2,
      "ch": 7,
      "note": 36,
      "vel": 54,
      "dur": 80
    },
    {
      "t": 874.6,
      "ch": 7,
      "note": 45,
      "vel": 64,
      "dur": 80
    },
    {
      "t": 874.6,
      "ch": 7,
      "note": 36,
      "vel": 64,
      "dur": 80
    },
    {
      "t": 874.6,
      "ch": 7,
      "note": 38,
      "vel": 63,
      "dur": 80
    },
    {
      "t": 874.9,
      "ch": 7,
      "note": 48,
      "vel": 80,
      "dur": 80
    },
    {
      "t": 874.9,
      "ch": 7,
      "note": 36,
      "vel": 71,
      "dur": 80
    },
    {
      "t": 875.6,
      "ch": 0,
      "note": 36,
      "vel": 127,
      "dur": 55
    },
    {
      "t": 875.6,
      "ch": 7,
      "note": 48,
      "vel": 68,
      "dur": 80
    },
    {
      "t": 875.6,
      "ch": 7,
      "note": 45,
      "vel": 68,
      "dur": 80
    },
    {
      "t": 875.6,
      "ch": 7,
      "note": 36,
      "vel": 59,
      "dur": 80
    },
    {
      "t": 875.6,
      "ch": 7,
      "note": 38,
      "vel": 78,
      "dur": 80
    },
    {
      "t": 876,
      "ch": 7,
      "note": 36,
      "vel": 64,
      "dur": 80
    },
    {
      "t": 876.3,
      "ch": 7,
      "note": 48,
      "vel": 87,
      "dur": 80
    },
    {
      "t": 876.3,
      "ch": 7,
      "note": 36,
      "vel": 69,
      "dur": 80
    },
    {
      "t": 876.5,
      "ch": 7,
      "note": 45,
      "vel": 52,
      "dur": 80
    },
    {
      "t": 876.5,
      "ch": 7,
      "note": 38,
      "vel": 76,
      "dur": 80
    },
    {
      "t": 876.7,
      "ch": 0,
      "note": 36,
      "vel": 78,
      "dur": 55
    },
    {
      "t": 876.9,
      "ch": 4,
      "note": 65,
      "vel": 51,
      "dur": 2740
    },
    {
      "t": 876.9,
      "ch": 4,
      "note": 68,
      "vel": 66,
      "dur": 2740
    },
    {
      "t": 876.9,
      "ch": 3,
      "note": 39,
      "vel": 52,
      "dur": 2790
    },
    {
      "t": 877,
      "ch": 7,
      "note": 48,
      "vel": 62,
      "dur": 80
    },
    {
      "t": 877,
      "ch": 7,
      "note": 36,
      "vel": 70,
      "dur": 80
    },
    {
      "t": 877.4,
      "ch": 7,
      "note": 45,
      "vel": 58,
      "dur": 80
    },
    {
      "t": 877.4,
      "ch": 7,
      "note": 36,
      "vel": 59,
      "dur": 80
    },
    {
      "t": 877.4,
      "ch": 7,
      "note": 38,
      "vel": 64,
      "dur": 80
    },
    {
      "t": 877.7,
      "ch": 7,
      "note": 48,
      "vel": 64,
      "dur": 80
    },
    {
      "t": 877.7,
      "ch": 7,
      "note": 36,
      "vel": 73,
      "dur": 80
    },
    {
      "t": 878.1,
      "ch": 0,
      "note": 36,
      "vel": 77,
      "dur": 55
    },
    {
      "t": 878.2,
      "ch": 5,
      "note": 66,
      "vel": 35,
      "dur": 950
    },
    {
      "t": 878.4,
      "ch": 0,
      "note": 36,
      "vel": 121,
      "dur": 55
    },
    {
      "t": 878.4,
      "ch": 7,
      "note": 48,
      "vel": 66,
      "dur": 80
    },
    {
      "t": 878.4,
      "ch": 7,
      "note": 45,
      "vel": 64,
      "dur": 80
    },
    {
      "t": 878.4,
      "ch": 7,
      "note": 36,
      "vel": 77,
      "dur": 80
    },
    {
      "t": 878.4,
      "ch": 7,
      "note": 38,
      "vel": 61,
      "dur": 80
    },
    {
      "t": 878.6,
      "ch": 5,
      "note": 75,
      "vel": 27,
      "dur": 949
    },
    {
      "t": 878.8,
      "ch": 7,
      "note": 36,
      "vel": 55,
      "dur": 80
    },
    {
      "t": 879.1,
      "ch": 7,
      "note": 48,
      "vel": 73,
      "dur": 80
    },
    {
      "t": 879.1,
      "ch": 7,
      "note": 36,
      "vel": 69,
      "dur": 80
    },
    {
      "t": 879.3,
      "ch": 7,
      "note": 45,
      "vel": 66,
      "dur": 80
    },
    {
      "t": 879.3,
      "ch": 7,
      "note": 38,
      "vel": 53,
      "dur": 80
    },
    {
      "t": 879.5,
      "ch": 0,
      "note": 36,
      "vel": 78,
      "dur": 55
    },
    {
      "t": 879.7,
      "ch": 4,
      "note": 65,
      "vel": 52,
      "dur": 2740
    },
    {
      "t": 879.7,
      "ch": 4,
      "note": 70,
      "vel": 53,
      "dur": 2740
    },
    {
      "t": 879.7,
      "ch": 3,
      "note": 46,
      "vel": 54,
      "dur": 2790
    },
    {
      "t": 879.8,
      "ch": 7,
      "note": 48,
      "vel": 70,
      "dur": 80
    },
    {
      "t": 879.8,
      "ch": 7,
      "note": 36,
      "vel": 82,
      "dur": 80
    },
    {
      "t": 880.2,
      "ch": 7,
      "note": 45,
      "vel": 65,
      "dur": 80
    },
    {
      "t": 880.2,
      "ch": 7,
      "note": 36,
      "vel": 59,
      "dur": 80
    },
    {
      "t": 880.2,
      "ch": 7,
      "note": 38,
      "vel": 67,
      "dur": 80
    },
    {
      "t": 880.5,
      "ch": 7,
      "note": 48,
      "vel": 63,
      "dur": 80
    },
    {
      "t": 880.5,
      "ch": 7,
      "note": 36,
      "vel": 76,
      "dur": 80
    },
    {
      "t": 880.5,
      "ch": 5,
      "note": 80,
      "vel": 39,
      "dur": 938
    },
    {
      "t": 880.9,
      "ch": 0,
      "note": 36,
      "vel": 88,
      "dur": 55
    },
    {
      "t": 881.2,
      "ch": 7,
      "note": 48,
      "vel": 77,
      "dur": 80
    },
    {
      "t": 881.2,
      "ch": 7,
      "note": 45,
      "vel": 78,
      "dur": 80
    },
    {
      "t": 881.2,
      "ch": 7,
      "note": 36,
      "vel": 71,
      "dur": 80
    },
    {
      "t": 881.2,
      "ch": 7,
      "note": 38,
      "vel": 72,
      "dur": 80
    },
    {
      "t": 881.6,
      "ch": 7,
      "note": 36,
      "vel": 63,
      "dur": 80
    },
    {
      "t": 881.9,
      "ch": 7,
      "note": 48,
      "vel": 62,
      "dur": 80
    },
    {
      "t": 881.9,
      "ch": 7,
      "note": 36,
      "vel": 66,
      "dur": 80
    },
    {
      "t": 881.9,
      "ch": 5,
      "note": 68,
      "vel": 28,
      "dur": 929
    },
    {
      "t": 882.1,
      "ch": 7,
      "note": 45,
      "vel": 70,
      "dur": 80
    },
    {
      "t": 882.1,
      "ch": 7,
      "note": 38,
      "vel": 69,
      "dur": 80
    },
    {
      "t": 882.5,
      "ch": 2,
      "note": 58,
      "vel": 58,
      "dur": 20930
    },
    {
      "t": 882.5,
      "ch": 2,
      "note": 70,
      "vel": 41,
      "dur": 20930
    },
    {
      "t": 882.5,
      "ch": 4,
      "note": 65,
      "vel": 56,
      "dur": 2740
    },
    {
      "t": 882.5,
      "ch": 4,
      "note": 63,
      "vel": 55,
      "dur": 2740
    },
    {
      "t": 882.5,
      "ch": 3,
      "note": 39,
      "vel": 57,
      "dur": 2790
    },
    {
      "t": 882.6,
      "ch": 7,
      "note": 48,
      "vel": 65,
      "dur": 80
    },
    {
      "t": 882.6,
      "ch": 7,
      "note": 36,
      "vel": 71,
      "dur": 80
    },
    {
      "t": 883,
      "ch": 7,
      "note": 45,
      "vel": 59,
      "dur": 80
    },
    {
      "t": 883,
      "ch": 7,
      "note": 36,
      "vel": 60,
      "dur": 80
    },
    {
      "t": 883,
      "ch": 7,
      "note": 38,
      "vel": 60,
      "dur": 80
    },
    {
      "t": 883.3,
      "ch": 7,
      "note": 48,
      "vel": 72,
      "dur": 80
    },
    {
      "t": 883.3,
      "ch": 7,
      "note": 36,
      "vel": 62,
      "dur": 80
    },
    {
      "t": 883.7,
      "ch": 5,
      "note": 63,
      "vel": 25,
      "dur": 919
    },
    {
      "t": 884,
      "ch": 0,
      "note": 36,
      "vel": 111,
      "dur": 55
    },
    {
      "t": 884,
      "ch": 7,
      "note": 48,
      "vel": 74,
      "dur": 80
    },
    {
      "t": 884,
      "ch": 7,
      "note": 45,
      "vel": 63,
      "dur": 80
    },
    {
      "t": 884,
      "ch": 7,
      "note": 36,
      "vel": 69,
      "dur": 80
    },
    {
      "t": 884,
      "ch": 7,
      "note": 38,
      "vel": 68,
      "dur": 80
    },
    {
      "t": 884.4,
      "ch": 7,
      "note": 36,
      "vel": 55,
      "dur": 80
    },
    {
      "t": 884.7,
      "ch": 7,
      "note": 48,
      "vel": 72,
      "dur": 80
    },
    {
      "t": 884.7,
      "ch": 7,
      "note": 36,
      "vel": 85,
      "dur": 80
    },
    {
      "t": 884.9,
      "ch": 7,
      "note": 45,
      "vel": 61,
      "dur": 80
    },
    {
      "t": 884.9,
      "ch": 7,
      "note": 38,
      "vel": 70,
      "dur": 80
    },
    {
      "t": 885,
      "ch": 0,
      "note": 36,
      "vel": 78,
      "dur": 55
    },
    {
      "t": 885.3,
      "ch": 4,
      "note": 65,
      "vel": 55,
      "dur": 2740
    },
    {
      "t": 885.3,
      "ch": 4,
      "note": 68,
      "vel": 71,
      "dur": 2740
    },
    {
      "t": 885.3,
      "ch": 3,
      "note": 39,
      "vel": 59,
      "dur": 2790
    },
    {
      "t": 885.4,
      "ch": 7,
      "note": 48,
      "vel": 68,
      "dur": 80
    },
    {
      "t": 885.4,
      "ch": 7,
      "note": 36,
      "vel": 60,
      "dur": 80
    },
    {
      "t": 885.7,
      "ch": 7,
      "note": 45,
      "vel": 68,
      "dur": 80
    },
    {
      "t": 885.7,
      "ch": 7,
      "note": 36,
      "vel": 66,
      "dur": 80
    },
    {
      "t": 885.7,
      "ch": 7,
      "note": 38,
      "vel": 57,
      "dur": 80
    },
    {
      "t": 886.1,
      "ch": 7,
      "note": 48,
      "vel": 76,
      "dur": 80
    },
    {
      "t": 886.1,
      "ch": 7,
      "note": 36,
      "vel": 67,
      "dur": 80
    },
    {
      "t": 886.4,
      "ch": 0,
      "note": 36,
      "vel": 77,
      "dur": 55
    },
    {
      "t": 886.8,
      "ch": 0,
      "note": 36,
      "vel": 112,
      "dur": 55
    },
    {
      "t": 886.8,
      "ch": 7,
      "note": 48,
      "vel": 64,
      "dur": 80
    },
    {
      "t": 886.8,
      "ch": 7,
      "note": 45,
      "vel": 75,
      "dur": 80
    },
    {
      "t": 886.8,
      "ch": 7,
      "note": 36,
      "vel": 68,
      "dur": 80
    },
    {
      "t": 886.8,
      "ch": 7,
      "note": 38,
      "vel": 74,
      "dur": 80
    },
    {
      "t": 887.1,
      "ch": 7,
      "note": 36,
      "vel": 57,
      "dur": 80
    },
    {
      "t": 887.5,
      "ch": 7,
      "note": 48,
      "vel": 72,
      "dur": 80
    },
    {
      "t": 887.5,
      "ch": 7,
      "note": 36,
      "vel": 83,
      "dur": 80
    },
    {
      "t": 887.7,
      "ch": 7,
      "note": 45,
      "vel": 54,
      "dur": 80
    },
    {
      "t": 887.7,
      "ch": 7,
      "note": 38,
      "vel": 67,
      "dur": 80
    },
    {
      "t": 887.8,
      "ch": 0,
      "note": 36,
      "vel": 84,
      "dur": 55
    },
    {
      "t": 888.1,
      "ch": 4,
      "note": 63,
      "vel": 58,
      "dur": 2740
    },
    {
      "t": 888.1,
      "ch": 4,
      "note": 68,
      "vel": 72,
      "dur": 2740
    },
    {
      "t": 888.1,
      "ch": 3,
      "note": 44,
      "vel": 75,
      "dur": 2790
    },
    {
      "t": 888.2,
      "ch": 7,
      "note": 48,
      "vel": 71,
      "dur": 80
    },
    {
      "t": 888.2,
      "ch": 7,
      "note": 36,
      "vel": 66,
      "dur": 80
    },
    {
      "t": 888.5,
      "ch": 7,
      "note": 45,
      "vel": 64,
      "dur": 80
    },
    {
      "t": 888.5,
      "ch": 7,
      "note": 36,
      "vel": 58,
      "dur": 80
    },
    {
      "t": 888.5,
      "ch": 7,
      "note": 38,
      "vel": 64,
      "dur": 80
    },
    {
      "t": 888.9,
      "ch": 7,
      "note": 48,
      "vel": 60,
      "dur": 80
    },
    {
      "t": 888.9,
      "ch": 7,
      "note": 36,
      "vel": 57,
      "dur": 80
    },
    {
      "t": 889.2,
      "ch": 0,
      "note": 36,
      "vel": 81,
      "dur": 55
    },
    {
      "t": 889.2,
      "ch": 6,
      "note": 64,
      "vel": 20,
      "dur": 608
    },
    {
      "t": 889.2,
      "ch": 5,
      "note": 66,
      "vel": 2,
      "dur": 912
    },
    {
      "t": 889.6,
      "ch": 0,
      "note": 36,
      "vel": 103,
      "dur": 55
    },
    {
      "t": 889.6,
      "ch": 7,
      "note": 48,
      "vel": 76,
      "dur": 80
    },
    {
      "t": 889.6,
      "ch": 7,
      "note": 45,
      "vel": 67,
      "dur": 80
    },
    {
      "t": 889.6,
      "ch": 7,
      "note": 36,
      "vel": 64,
      "dur": 80
    },
    {
      "t": 889.6,
      "ch": 7,
      "note": 38,
      "vel": 72,
      "dur": 80
    },
    {
      "t": 889.9,
      "ch": 7,
      "note": 36,
      "vel": 68,
      "dur": 80
    },
    {
      "t": 890.3,
      "ch": 7,
      "note": 48,
      "vel": 69,
      "dur": 80
    },
    {
      "t": 890.3,
      "ch": 7,
      "note": 36,
      "vel": 71,
      "dur": 80
    },
    {
      "t": 890.4,
      "ch": 7,
      "note": 45,
      "vel": 63,
      "dur": 80
    },
    {
      "t": 890.4,
      "ch": 7,
      "note": 38,
      "vel": 64,
      "dur": 80
    },
    {
      "t": 890.6,
      "ch": 0,
      "note": 36,
      "vel": 84,
      "dur": 55
    },
    {
      "t": 890.9,
      "ch": 4,
      "note": 63,
      "vel": 55,
      "dur": 2740
    },
    {
      "t": 890.9,
      "ch": 4,
      "note": 65,
      "vel": 55,
      "dur": 2740
    },
    {
      "t": 890.9,
      "ch": 3,
      "note": 39,
      "vel": 58,
      "dur": 2790
    },
    {
      "t": 891,
      "ch": 7,
      "note": 48,
      "vel": 78,
      "dur": 80
    },
    {
      "t": 891,
      "ch": 7,
      "note": 36,
      "vel": 67,
      "dur": 80
    },
    {
      "t": 891.3,
      "ch": 7,
      "note": 45,
      "vel": 61,
      "dur": 80
    },
    {
      "t": 891.3,
      "ch": 7,
      "note": 36,
      "vel": 69,
      "dur": 80
    },
    {
      "t": 891.3,
      "ch": 7,
      "note": 38,
      "vel": 54,
      "dur": 80
    },
    {
      "t": 891.7,
      "ch": 7,
      "note": 48,
      "vel": 77,
      "dur": 80
    },
    {
      "t": 891.7,
      "ch": 7,
      "note": 36,
      "vel": 76,
      "dur": 80
    },
    {
      "t": 892,
      "ch": 0,
      "note": 36,
      "vel": 80,
      "dur": 55
    },
    {
      "t": 892.4,
      "ch": 0,
      "note": 36,
      "vel": 111,
      "dur": 55
    },
    {
      "t": 892.4,
      "ch": 7,
      "note": 48,
      "vel": 85,
      "dur": 80
    },
    {
      "t": 892.4,
      "ch": 7,
      "note": 45,
      "vel": 59,
      "dur": 80
    },
    {
      "t": 892.4,
      "ch": 7,
      "note": 36,
      "vel": 67,
      "dur": 80
    },
    {
      "t": 892.4,
      "ch": 7,
      "note": 38,
      "vel": 69,
      "dur": 80
    },
    {
      "t": 892.7,
      "ch": 7,
      "note": 36,
      "vel": 51,
      "dur": 80
    },
    {
      "t": 892.7,
      "ch": 5,
      "note": 75,
      "vel": 23,
      "dur": 930
    },
    {
      "t": 893.1,
      "ch": 7,
      "note": 48,
      "vel": 62,
      "dur": 80
    },
    {
      "t": 893.1,
      "ch": 7,
      "note": 36,
      "vel": 75,
      "dur": 80
    },
    {
      "t": 893.2,
      "ch": 7,
      "note": 45,
      "vel": 54,
      "dur": 80
    },
    {
      "t": 893.2,
      "ch": 7,
      "note": 38,
      "vel": 66,
      "dur": 80
    },
    {
      "t": 893.4,
      "ch": 0,
      "note": 36,
      "vel": 80,
      "dur": 55
    },
    {
      "t": 893.7,
      "ch": 2,
      "note": 58,
      "vel": 58,
      "dur": 20930
    },
    {
      "t": 893.7,
      "ch": 4,
      "note": 63,
      "vel": 53,
      "dur": 2740
    },
    {
      "t": 893.7,
      "ch": 4,
      "note": 68,
      "vel": 66,
      "dur": 2740
    },
    {
      "t": 893.7,
      "ch": 3,
      "note": 44,
      "vel": 70,
      "dur": 2790
    },
    {
      "t": 893.7,
      "ch": 7,
      "note": 48,
      "vel": 66,
      "dur": 80
    },
    {
      "t": 893.7,
      "ch": 7,
      "note": 36,
      "vel": 65,
      "dur": 80
    },
    {
      "t": 894.1,
      "ch": 7,
      "note": 45,
      "vel": 63,
      "dur": 80
    },
    {
      "t": 894.1,
      "ch": 7,
      "note": 36,
      "vel": 60,
      "dur": 80
    },
    {
      "t": 894.1,
      "ch": 7,
      "note": 38,
      "vel": 81,
      "dur": 80
    },
    {
      "t": 894.5,
      "ch": 7,
      "note": 48,
      "vel": 76,
      "dur": 80
    },
    {
      "t": 894.5,
      "ch": 7,
      "note": 36,
      "vel": 71,
      "dur": 80
    },
    {
      "t": 894.8,
      "ch": 0,
      "note": 36,
      "vel": 85,
      "dur": 55
    },
    {
      "t": 895.1,
      "ch": 0,
      "note": 36,
      "vel": 114,
      "dur": 55
    },
    {
      "t": 895.1,
      "ch": 7,
      "note": 48,
      "vel": 56,
      "dur": 80
    },
    {
      "t": 895.1,
      "ch": 7,
      "note": 45,
      "vel": 70,
      "dur": 80
    },
    {
      "t": 895.1,
      "ch": 7,
      "note": 36,
      "vel": 68,
      "dur": 80
    },
    {
      "t": 895.1,
      "ch": 7,
      "note": 38,
      "vel": 73,
      "dur": 80
    },
    {
      "t": 895.5,
      "ch": 7,
      "note": 36,
      "vel": 62,
      "dur": 80
    },
    {
      "t": 895.8,
      "ch": 7,
      "note": 48,
      "vel": 72,
      "dur": 80
    },
    {
      "t": 895.8,
      "ch": 7,
      "note": 36,
      "vel": 71,
      "dur": 80
    },
    {
      "t": 896,
      "ch": 7,
      "note": 45,
      "vel": 59,
      "dur": 80
    },
    {
      "t": 896,
      "ch": 7,
      "note": 38,
      "vel": 61,
      "dur": 80
    },
    {
      "t": 896.2,
      "ch": 0,
      "note": 36,
      "vel": 81,
      "dur": 55
    },
    {
      "t": 896.5,
      "ch": 4,
      "note": 63,
      "vel": 50,
      "dur": 2740
    },
    {
      "t": 896.5,
      "ch": 4,
      "note": 65,
      "vel": 51,
      "dur": 2740
    },
    {
      "t": 896.5,
      "ch": 3,
      "note": 39,
      "vel": 54,
      "dur": 2790
    },
    {
      "t": 896.5,
      "ch": 7,
      "note": 48,
      "vel": 78,
      "dur": 80
    },
    {
      "t": 896.5,
      "ch": 7,
      "note": 36,
      "vel": 78,
      "dur": 80
    },
    {
      "t": 896.7,
      "ch": 5,
      "note": 80,
      "vel": 26,
      "dur": 950
    },
    {
      "t": 896.9,
      "ch": 7,
      "note": 45,
      "vel": 63,
      "dur": 80
    },
    {
      "t": 896.9,
      "ch": 7,
      "note": 36,
      "vel": 61,
      "dur": 80
    },
    {
      "t": 896.9,
      "ch": 7,
      "note": 38,
      "vel": 51,
      "dur": 80
    },
    {
      "t": 897.1,
      "ch": 6,
      "note": 70,
      "vel": 18,
      "dur": 634
    },
    {
      "t": 897.2,
      "ch": 7,
      "note": 48,
      "vel": 68,
      "dur": 80
    },
    {
      "t": 897.2,
      "ch": 7,
      "note": 36,
      "vel": 86,
      "dur": 80
    },
    {
      "t": 897.6,
      "ch": 0,
      "note": 36,
      "vel": 81,
      "dur": 55
    },
    {
      "t": 897.6,
      "ch": 5,
      "note": 68,
      "vel": 46,
      "dur": 952
    },
    {
      "t": 897.9,
      "ch": 0,
      "note": 36,
      "vel": 118,
      "dur": 55
    },
    {
      "t": 897.9,
      "ch": 7,
      "note": 48,
      "vel": 78,
      "dur": 80
    },
    {
      "t": 897.9,
      "ch": 7,
      "note": 45,
      "vel": 75,
      "dur": 80
    },
    {
      "t": 897.9,
      "ch": 7,
      "note": 36,
      "vel": 72,
      "dur": 80
    },
    {
      "t": 897.9,
      "ch": 7,
      "note": 38,
      "vel": 73,
      "dur": 80
    },
    {
      "t": 898.3,
      "ch": 7,
      "note": 36,
      "vel": 73,
      "dur": 80
    },
    {
      "t": 898.6,
      "ch": 7,
      "note": 48,
      "vel": 80,
      "dur": 80
    },
    {
      "t": 898.6,
      "ch": 7,
      "note": 36,
      "vel": 72,
      "dur": 80
    },
    {
      "t": 898.7,
      "ch": 5,
      "note": 63,
      "vel": 18,
      "dur": 953
    },
    {
      "t": 898.8,
      "ch": 7,
      "note": 45,
      "vel": 55,
      "dur": 80
    },
    {
      "t": 898.8,
      "ch": 7,
      "note": 38,
      "vel": 56,
      "dur": 80
    },
    {
      "t": 899,
      "ch": 0,
      "note": 36,
      "vel": 89,
      "dur": 55
    },
    {
      "t": 899.2,
      "ch": 4,
      "note": 65,
      "vel": 52,
      "dur": 2740
    },
    {
      "t": 899.2,
      "ch": 4,
      "note": 68,
      "vel": 66,
      "dur": 2740
    },
    {
      "t": 899.2,
      "ch": 3,
      "note": 39,
      "vel": 53,
      "dur": 2790
    },
    {
      "t": 899.3,
      "ch": 7,
      "note": 48,
      "vel": 72,
      "dur": 80
    },
    {
      "t": 899.3,
      "ch": 7,
      "note": 36,
      "vel": 77,
      "dur": 80
    },
    {
      "t": 899.5,
      "ch": 5,
      "note": 66,
      "vel": 15,
      "dur": 953
    },
    {
      "t": 899.7,
      "ch": 7,
      "note": 45,
      "vel": 60,
      "dur": 80
    },
    {
      "t": 899.7,
      "ch": 7,
      "note": 36,
      "vel": 67,
      "dur": 80
    },
    {
      "t": 899.7,
      "ch": 7,
      "note": 38,
      "vel": 60,
      "dur": 80
    },
    {
      "t": 900,
      "ch": 7,
      "note": 48,
      "vel": 69,
      "dur": 80
    },
    {
      "t": 900,
      "ch": 7,
      "note": 36,
      "vel": 61,
      "dur": 80
    },
    {
      "t": 900.4,
      "ch": 0,
      "note": 36,
      "vel": 75,
      "dur": 55
    },
    {
      "t": 900.7,
      "ch": 0,
      "note": 36,
      "vel": 109,
      "dur": 55
    },
    {
      "t": 900.7,
      "ch": 7,
      "note": 48,
      "vel": 77,
      "dur": 80
    },
    {
      "t": 900.7,
      "ch": 7,
      "note": 45,
      "vel": 75,
      "dur": 80
    },
    {
      "t": 900.7,
      "ch": 7,
      "note": 36,
      "vel": 68,
      "dur": 80
    },
    {
      "t": 900.7,
      "ch": 7,
      "note": 38,
      "vel": 64,
      "dur": 80
    },
    {
      "t": 901.1,
      "ch": 7,
      "note": 36,
      "vel": 62,
      "dur": 80
    },
    {
      "t": 901.4,
      "ch": 7,
      "note": 48,
      "vel": 68,
      "dur": 80
    },
    {
      "t": 901.4,
      "ch": 7,
      "note": 36,
      "vel": 74,
      "dur": 80
    },
    {
      "t": 901.6,
      "ch": 7,
      "note": 45,
      "vel": 60,
      "dur": 80
    },
    {
      "t": 901.6,
      "ch": 7,
      "note": 38,
      "vel": 49,
      "dur": 80
    },
    {
      "t": 901.8,
      "ch": 0,
      "note": 36,
      "vel": 75,
      "dur": 55
    },
    {
      "t": 902,
      "ch": 4,
      "note": 63,
      "vel": 51,
      "dur": 2740
    },
    {
      "t": 902,
      "ch": 4,
      "note": 68,
      "vel": 66,
      "dur": 2740
    },
    {
      "t": 902,
      "ch": 3,
      "note": 44,
      "vel": 70,
      "dur": 2790
    },
    {
      "t": 902.1,
      "ch": 7,
      "note": 48,
      "vel": 70,
      "dur": 80
    },
    {
      "t": 902.1,
      "ch": 7,
      "note": 36,
      "vel": 80,
      "dur": 80
    },
    {
      "t": 902.5,
      "ch": 7,
      "note": 45,
      "vel": 54,
      "dur": 80
    },
    {
      "t": 902.5,
      "ch": 7,
      "note": 36,
      "vel": 51,
      "dur": 80
    },
    {
      "t": 902.5,
      "ch": 7,
      "note": 38,
      "vel": 64,
      "dur": 80
    },
    {
      "t": 902.8,
      "ch": 7,
      "note": 48,
      "vel": 66,
      "dur": 80
    },
    {
      "t": 902.8,
      "ch": 7,
      "note": 36,
      "vel": 69,
      "dur": 80
    },
    {
      "t": 903.2,
      "ch": 0,
      "note": 36,
      "vel": 82,
      "dur": 55
    },
    {
      "t": 903.5,
      "ch": 7,
      "note": 48,
      "vel": 84,
      "dur": 80
    },
    {
      "t": 903.5,
      "ch": 7,
      "note": 45,
      "vel": 70,
      "dur": 80
    },
    {
      "t": 903.5,
      "ch": 7,
      "note": 36,
      "vel": 72,
      "dur": 80
    },
    {
      "t": 903.5,
      "ch": 7,
      "note": 38,
      "vel": 62,
      "dur": 80
    },
    {
      "t": 903.9,
      "ch": 7,
      "note": 36,
      "vel": 69,
      "dur": 80
    },
    {
      "t": 904.2,
      "ch": 7,
      "note": 48,
      "vel": 62,
      "dur": 80
    },
    {
      "t": 904.2,
      "ch": 7,
      "note": 36,
      "vel": 80,
      "dur": 80
    },
    {
      "t": 904.4,
      "ch": 7,
      "note": 45,
      "vel": 71,
      "dur": 80
    },
    {
      "t": 904.4,
      "ch": 7,
      "note": 38,
      "vel": 57,
      "dur": 80
    },
    {
      "t": 904.8,
      "ch": 2,
      "note": 58,
      "vel": 0,
      "dur": 0
    },
    {
      "t": 904.8,
      "ch": 2,
      "note": 70,
      "vel": 0,
      "dur": 0
    },
    {
      "t": 904.8,
      "ch": 2,
      "note": 56,
      "vel": 58,
      "dur": 20930
    },
    {
      "t": 904.8,
      "ch": 2,
      "note": 68,
      "vel": 41,
      "dur": 20930
    },
    {
      "t": 904.8,
      "ch": 4,
      "note": 63,
      "vel": 56,
      "dur": 2740
    },
    {
      "t": 904.8,
      "ch": 4,
      "note": 65,
      "vel": 57,
      "dur": 2740
    },
    {
      "t": 904.8,
      "ch": 3,
      "note": 39,
      "vel": 57,
      "dur": 2790
    },
    {
      "t": 904.9,
      "ch": 7,
      "note": 48,
      "vel": 74,
      "dur": 80
    },
    {
      "t": 904.9,
      "ch": 7,
      "note": 36,
      "vel": 70,
      "dur": 80
    },
    {
      "t": 905.3,
      "ch": 7,
      "note": 45,
      "vel": 50,
      "dur": 80
    },
    {
      "t": 905.3,
      "ch": 7,
      "note": 36,
      "vel": 69,
      "dur": 80
    },
    {
      "t": 905.3,
      "ch": 7,
      "note": 38,
      "vel": 68,
      "dur": 80
    },
    {
      "t": 905.3,
      "ch": 5,
      "note": 63,
      "vel": 33,
      "dur": 925
    },
    {
      "t": 905.5,
      "ch": 5,
      "note": 61,
      "vel": 18,
      "dur": 924
    },
    {
      "t": 905.6,
      "ch": 7,
      "note": 48,
      "vel": 83,
      "dur": 80
    },
    {
      "t": 905.6,
      "ch": 7,
      "note": 36,
      "vel": 83,
      "dur": 80
    },
    {
      "t": 906.3,
      "ch": 0,
      "note": 36,
      "vel": 115,
      "dur": 55
    },
    {
      "t": 906.3,
      "ch": 7,
      "note": 48,
      "vel": 65,
      "dur": 80
    },
    {
      "t": 906.3,
      "ch": 7,
      "note": 45,
      "vel": 79,
      "dur": 80
    },
    {
      "t": 906.3,
      "ch": 7,
      "note": 36,
      "vel": 74,
      "dur": 80
    },
    {
      "t": 906.3,
      "ch": 7,
      "note": 38,
      "vel": 62,
      "dur": 80
    },
    {
      "t": 906.4,
      "ch": 6,
      "note": 70,
      "vel": 8,
      "dur": 613
    },
    {
      "t": 906.7,
      "ch": 7,
      "note": 36,
      "vel": 71,
      "dur": 80
    },
    {
      "t": 907,
      "ch": 7,
      "note": 48,
      "vel": 73,
      "dur": 80
    },
    {
      "t": 907,
      "ch": 7,
      "note": 36,
      "vel": 79,
      "dur": 80
    },
    {
      "t": 907.2,
      "ch": 7,
      "note": 45,
      "vel": 58,
      "dur": 80
    },
    {
      "t": 907.2,
      "ch": 7,
      "note": 38,
      "vel": 59,
      "dur": 80
    },
    {
      "t": 907.6,
      "ch": 4,
      "note": 65,
      "vel": 58,
      "dur": 2740
    },
    {
      "t": 907.6,
      "ch": 4,
      "note": 68,
      "vel": 70,
      "dur": 2740
    },
    {
      "t": 907.6,
      "ch": 3,
      "note": 39,
      "vel": 60,
      "dur": 2790
    },
    {
      "t": 907.7,
      "ch": 0,
      "note": 36,
      "vel": 93,
      "dur": 55
    },
    {
      "t": 907.7,
      "ch": 7,
      "note": 48,
      "vel": 60,
      "dur": 80
    },
    {
      "t": 907.7,
      "ch": 7,
      "note": 36,
      "vel": 65,
      "dur": 80
    },
    {
      "t": 907.7,
      "ch": 6,
      "note": 66,
      "vel": 21,
      "dur": 608
    },
    {
      "t": 908.1,
      "ch": 7,
      "note": 45,
      "vel": 64,
      "dur": 80
    },
    {
      "t": 908.1,
      "ch": 7,
      "note": 36,
      "vel": 65,
      "dur": 80
    },
    {
      "t": 908.1,
      "ch": 7,
      "note": 38,
      "vel": 64,
      "dur": 80
    },
    {
      "t": 908.4,
      "ch": 7,
      "note": 48,
      "vel": 56,
      "dur": 80
    },
    {
      "t": 908.4,
      "ch": 7,
      "note": 36,
      "vel": 78,
      "dur": 80
    },
    {
      "t": 908.6,
      "ch": 5,
      "note": 66,
      "vel": 19,
      "dur": 910
    },
    {
      "t": 908.8,
      "ch": 0,
      "note": 36,
      "vel": 78,
      "dur": 55
    },
    {
      "t": 908.8,
      "ch": 5,
      "note": 66,
      "vel": 33,
      "dur": 909
    },
    {
      "t": 909.1,
      "ch": 0,
      "note": 36,
      "vel": 116,
      "dur": 55
    },
    {
      "t": 909.1,
      "ch": 7,
      "note": 48,
      "vel": 77,
      "dur": 80
    },
    {
      "t": 909.1,
      "ch": 7,
      "note": 45,
      "vel": 77,
      "dur": 80
    },
    {
      "t": 909.1,
      "ch": 7,
      "note": 36,
      "vel": 76,
      "dur": 80
    },
    {
      "t": 909.1,
      "ch": 7,
      "note": 38,
      "vel": 74,
      "dur": 80
    },
    {
      "t": 909.5,
      "ch": 7,
      "note": 36,
      "vel": 59,
      "dur": 80
    },
    {
      "t": 909.8,
      "ch": 7,
      "note": 48,
      "vel": 74,
      "dur": 80
    },
    {
      "t": 909.8,
      "ch": 7,
      "note": 36,
      "vel": 62,
      "dur": 80
    },
    {
      "t": 910,
      "ch": 7,
      "note": 45,
      "vel": 61,
      "dur": 80
    },
    {
      "t": 910,
      "ch": 7,
      "note": 38,
      "vel": 55,
      "dur": 80
    },
    {
      "t": 910.4,
      "ch": 4,
      "note": 63,
      "vel": 59,
      "dur": 2740
    },
    {
      "t": 910.4,
      "ch": 4,
      "note": 68,
      "vel": 74,
      "dur": 2740
    },
    {
      "t": 910.4,
      "ch": 3,
      "note": 44,
      "vel": 75,
      "dur": 2790
    },
    {
      "t": 910.5,
      "ch": 0,
      "note": 36,
      "vel": 94,
      "dur": 55
    },
    {
      "t": 910.5,
      "ch": 7,
      "note": 48,
      "vel": 70,
      "dur": 80
    },
    {
      "t": 910.5,
      "ch": 7,
      "note": 36,
      "vel": 66,
      "dur": 80
    },
    {
      "t": 910.9,
      "ch": 7,
      "note": 45,
      "vel": 64,
      "dur": 80
    },
    {
      "t": 910.9,
      "ch": 7,
      "note": 36,
      "vel": 55,
      "dur": 80
    },
    {
      "t": 910.9,
      "ch": 7,
      "note": 38,
      "vel": 59,
      "dur": 80
    },
    {
      "t": 911.2,
      "ch": 7,
      "note": 48,
      "vel": 62,
      "dur": 80
    },
    {
      "t": 911.2,
      "ch": 7,
      "note": 36,
      "vel": 59,
      "dur": 80
    },
    {
      "t": 911.6,
      "ch": 0,
      "note": 36,
      "vel": 78,
      "dur": 55
    },
    {
      "t": 911.9,
      "ch": 0,
      "note": 36,
      "vel": 113,
      "dur": 55
    },
    {
      "t": 911.9,
      "ch": 7,
      "note": 48,
      "vel": 78,
      "dur": 80
    },
    {
      "t": 911.9,
      "ch": 7,
      "note": 45,
      "vel": 63,
      "dur": 80
    },
    {
      "t": 911.9,
      "ch": 7,
      "note": 36,
      "vel": 70,
      "dur": 80
    },
    {
      "t": 911.9,
      "ch": 7,
      "note": 38,
      "vel": 71,
      "dur": 80
    },
    {
      "t": 912.2,
      "ch": 7,
      "note": 36,
      "vel": 59,
      "dur": 80
    },
    {
      "t": 912.6,
      "ch": 7,
      "note": 48,
      "vel": 84,
      "dur": 80
    },
    {
      "t": 912.6,
      "ch": 7,
      "note": 36,
      "vel": 66,
      "dur": 80
    },
    {
      "t": 912.8,
      "ch": 7,
      "note": 45,
      "vel": 70,
      "dur": 80
    },
    {
      "t": 912.8,
      "ch": 7,
      "note": 38,
      "vel": 69,
      "dur": 80
    },
    {
      "t": 913.2,
      "ch": 4,
      "note": 63,
      "vel": 56,
      "dur": 2740
    },
    {
      "t": 913.2,
      "ch": 4,
      "note": 70,
      "vel": 58,
      "dur": 2740
    },
    {
      "t": 913.2,
      "ch": 3,
      "note": 46,
      "vel": 59,
      "dur": 2790
    },
    {
      "t": 913.3,
      "ch": 0,
      "note": 36,
      "vel": 95,
      "dur": 55
    },
    {
      "t": 913.3,
      "ch": 7,
      "note": 48,
      "vel": 65,
      "dur": 80
    },
    {
      "t": 913.3,
      "ch": 7,
      "note": 36,
      "vel": 71,
      "dur": 80
    },
    {
      "t": 913.5,
      "ch": 5,
      "note": 66,
      "vel": 19,
      "dur": 917
    },
    {
      "t": 913.6,
      "ch": 7,
      "note": 45,
      "vel": 69,
      "dur": 80
    },
    {
      "t": 913.6,
      "ch": 7,
      "note": 36,
      "vel": 69,
      "dur": 80
    },
    {
      "t": 913.6,
      "ch": 7,
      "note": 38,
      "vel": 68,
      "dur": 80
    },
    {
      "t": 913.9,
      "ch": 6,
      "note": 68,
      "vel": 30,
      "dur": 400
    },
    {
      "t": 914,
      "ch": 7,
      "note": 48,
      "vel": 75,
      "dur": 80
    },
    {
      "t": 914,
      "ch": 7,
      "note": 36,
      "vel": 82,
      "dur": 80
    },
    {
      "t": 914.2,
      "ch": 5,
      "note": 63,
      "vel": 21,
      "dur": 922
    },
    {
      "t": 914.3,
      "ch": 0,
      "note": 36,
      "vel": 76,
      "dur": 55
    },
    {
      "t": 914.5,
      "ch": 5,
      "note": 61,
      "vel": 14,
      "dur": 924
    },
    {
      "t": 914.7,
      "ch": 0,
      "note": 36,
      "vel": 113,
      "dur": 55
    },
    {
      "t": 914.7,
      "ch": 7,
      "note": 48,
      "vel": 77,
      "dur": 80
    },
    {
      "t": 914.7,
      "ch": 7,
      "note": 45,
      "vel": 83,
      "dur": 80
    },
    {
      "t": 914.7,
      "ch": 7,
      "note": 36,
      "vel": 67,
      "dur": 80
    },
    {
      "t": 914.7,
      "ch": 7,
      "note": 38,
      "vel": 73,
      "dur": 80
    },
    {
      "t": 915,
      "ch": 7,
      "note": 36,
      "vel": 71,
      "dur": 80
    },
    {
      "t": 915.1,
      "ch": 5,
      "note": 66,
      "vel": 28,
      "dur": 928
    },
    {
      "t": 915.4,
      "ch": 7,
      "note": 48,
      "vel": 69,
      "dur": 80
    },
    {
      "t": 915.4,
      "ch": 7,
      "note": 36,
      "vel": 64,
      "dur": 80
    },
    {
      "t": 915.6,
      "ch": 7,
      "note": 45,
      "vel": 66,
      "dur": 80
    },
    {
      "t": 915.6,
      "ch": 7,
      "note": 38,
      "vel": 70,
      "dur": 80
    },
    {
      "t": 915.7,
      "ch": 5,
      "note": 66,
      "vel": 31,
      "dur": 933
    },
    {
      "t": 916,
      "ch": 2,
      "note": 56,
      "vel": 0,
      "dur": 0
    },
    {
      "t": 916,
      "ch": 2,
      "note": 68,
      "vel": 0,
      "dur": 0
    },
    {
      "t": 916,
      "ch": 2,
      "note": 58,
      "vel": 58,
      "dur": 20930
    },
    {
      "t": 916,
      "ch": 4,
      "note": 63,
      "vel": 53,
      "dur": 2740
    },
    {
      "t": 916,
      "ch": 4,
      "note": 68,
      "vel": 69,
      "dur": 2740
    },
    {
      "t": 916,
      "ch": 3,
      "note": 44,
      "vel": 70,
      "dur": 2790
    },
    {
      "t": 916.1,
      "ch": 0,
      "note": 36,
      "vel": 93,
      "dur": 55
    },
    {
      "t": 916.1,
      "ch": 7,
      "note": 48,
      "vel": 66,
      "dur": 80
    },
    {
      "t": 916.1,
      "ch": 7,
      "note": 36,
      "vel": 63,
      "dur": 80
    },
    {
      "t": 916.3,
      "ch": 5,
      "note": 66,
      "vel": 21,
      "dur": 937
    },
    {
      "t": 916.4,
      "ch": 7,
      "note": 45,
      "vel": 71,
      "dur": 80
    },
    {
      "t": 916.4,
      "ch": 7,
      "note": 36,
      "vel": 77,
      "dur": 80
    },
    {
      "t": 916.4,
      "ch": 7,
      "note": 38,
      "vel": 55,
      "dur": 80
    },
    {
      "t": 916.8,
      "ch": 7,
      "note": 48,
      "vel": 82,
      "dur": 80
    },
    {
      "t": 916.8,
      "ch": 7,
      "note": 36,
      "vel": 74,
      "dur": 80
    },
    {
      "t": 917.1,
      "ch": 0,
      "note": 36,
      "vel": 81,
      "dur": 55
    },
    {
      "t": 917.5,
      "ch": 0,
      "note": 36,
      "vel": 111,
      "dur": 55
    },
    {
      "t": 917.5,
      "ch": 7,
      "note": 48,
      "vel": 70,
      "dur": 80
    },
    {
      "t": 917.5,
      "ch": 7,
      "note": 45,
      "vel": 78,
      "dur": 80
    },
    {
      "t": 917.5,
      "ch": 7,
      "note": 36,
      "vel": 56,
      "dur": 80
    },
    {
      "t": 917.5,
      "ch": 7,
      "note": 38,
      "vel": 64,
      "dur": 80
    },
    {
      "t": 917.8,
      "ch": 7,
      "note": 36,
      "vel": 59,
      "dur": 80
    },
    {
      "t": 918.2,
      "ch": 7,
      "note": 48,
      "vel": 75,
      "dur": 80
    },
    {
      "t": 918.2,
      "ch": 7,
      "note": 36,
      "vel": 75,
      "dur": 80
    },
    {
      "t": 918.4,
      "ch": 7,
      "note": 45,
      "vel": 57,
      "dur": 80
    },
    {
      "t": 918.4,
      "ch": 7,
      "note": 38,
      "vel": 62,
      "dur": 80
    },
    {
      "t": 918.4,
      "ch": 5,
      "note": 63,
      "vel": 5,
      "dur": 952
    },
    {
      "t": 918.5,
      "ch": 5,
      "note": 61,
      "vel": 31,
      "dur": 953
    },
    {
      "t": 918.8,
      "ch": 4,
      "note": 63,
      "vel": 48,
      "dur": 2740
    },
    {
      "t": 918.8,
      "ch": 4,
      "note": 65,
      "vel": 48,
      "dur": 2740
    },
    {
      "t": 918.8,
      "ch": 3,
      "note": 39,
      "vel": 52,
      "dur": 2790
    },
    {
      "t": 918.9,
      "ch": 0,
      "note": 36,
      "vel": 90,
      "dur": 55
    },
    {
      "t": 918.9,
      "ch": 7,
      "note": 48,
      "vel": 76,
      "dur": 80
    },
    {
      "t": 918.9,
      "ch": 7,
      "note": 36,
      "vel": 67,
      "dur": 80
    },
    {
      "t": 919,
      "ch": 6,
      "note": 66,
      "vel": 10,
      "dur": 400
    },
    {
      "t": 919.2,
      "ch": 7,
      "note": 45,
      "vel": 67,
      "dur": 80
    },
    {
      "t": 919.2,
      "ch": 7,
      "note": 36,
      "vel": 73,
      "dur": 80
    },
    {
      "t": 919.2,
      "ch": 7,
      "note": 38,
      "vel": 60,
      "dur": 80
    },
    {
      "t": 919.6,
      "ch": 7,
      "note": 48,
      "vel": 66,
      "dur": 80
    },
    {
      "t": 919.6,
      "ch": 7,
      "note": 36,
      "vel": 74,
      "dur": 80
    },
    {
      "t": 919.9,
      "ch": 0,
      "note": 36,
      "vel": 87,
      "dur": 55
    },
    {
      "t": 920.3,
      "ch": 0,
      "note": 36,
      "vel": 118,
      "dur": 55
    },
    {
      "t": 920.3,
      "ch": 1,
      "note": 42,
      "vel": 73,
      "dur": 25
    },
    {
      "t": 920.3,
      "ch": 1,
      "note": 36,
      "vel": 85,
      "dur": 25
    },
    {
      "t": 920.3,
      "ch": 1,
      "note": 38,
      "vel": 87,
      "dur": 25
    },
    {
      "t": 920.3,
      "ch": 1,
      "note": 40,
      "vel": 95,
      "dur": 25
    },
    {
      "t": 920.3,
      "ch": 1,
      "note": 42,
      "vel": 98,
      "dur": 25
    },
    {
      "t": 920.3,
      "ch": 1,
      "note": 36,
      "vel": 68,
      "dur": 25
    },
    {
      "t": 920.3,
      "ch": 1,
      "note": 38,
      "vel": 55,
      "dur": 25
    },
    {
      "t": 920.3,
      "ch": 1,
      "note": 40,
      "vel": 96,
      "dur": 25
    },
    {
      "t": 920.3,
      "ch": 1,
      "note": 42,
      "vel": 107,
      "dur": 25
    },
    {
      "t": 920.3,
      "ch": 1,
      "note": 36,
      "vel": 87,
      "dur": 25
    },
    {
      "t": 920.3,
      "ch": 1,
      "note": 38,
      "vel": 93,
      "dur": 25
    },
    {
      "t": 920.3,
      "ch": 1,
      "note": 40,
      "vel": 71,
      "dur": 25
    },
    {
      "t": 920.3,
      "ch": 1,
      "note": 42,
      "vel": 75,
      "dur": 25
    },
    {
      "t": 920.3,
      "ch": 1,
      "note": 36,
      "vel": 68,
      "dur": 25
    },
    {
      "t": 920.3,
      "ch": 1,
      "note": 38,
      "vel": 102,
      "dur": 25
    },
    {
      "t": 920.3,
      "ch": 1,
      "note": 40,
      "vel": 77,
      "dur": 25
    },
    {
      "t": 920.3,
      "ch": 1,
      "note": 42,
      "vel": 85,
      "dur": 25
    },
    {
      "t": 920.3,
      "ch": 1,
      "note": 36,
      "vel": 101,
      "dur": 25
    },
    {
      "t": 920.3,
      "ch": 1,
      "note": 38,
      "vel": 90,
      "dur": 25
    },
    {
      "t": 920.3,
      "ch": 1,
      "note": 40,
      "vel": 72,
      "dur": 25
    },
    {
      "t": 920.3,
      "ch": 1,
      "note": 42,
      "vel": 81,
      "dur": 25
    },
    {
      "t": 920.3,
      "ch": 1,
      "note": 36,
      "vel": 76,
      "dur": 25
    },
    {
      "t": 920.3,
      "ch": 1,
      "note": 38,
      "vel": 76,
      "dur": 25
    },
    {
      "t": 920.3,
      "ch": 1,
      "note": 40,
      "vel": 87,
      "dur": 25
    },
    {
      "t": 920.3,
      "ch": 1,
      "note": 42,
      "vel": 102,
      "dur": 25
    },
    {
      "t": 920.3,
      "ch": 1,
      "note": 36,
      "vel": 83,
      "dur": 25
    },
    {
      "t": 920.3,
      "ch": 1,
      "note": 38,
      "vel": 68,
      "dur": 25
    },
    {
      "t": 920.3,
      "ch": 1,
      "note": 40,
      "vel": 76,
      "dur": 25
    },
    {
      "t": 920.3,
      "ch": 1,
      "note": 42,
      "vel": 74,
      "dur": 25
    },
    {
      "t": 920.3,
      "ch": 1,
      "note": 36,
      "vel": 108,
      "dur": 25
    },
    {
      "t": 920.3,
      "ch": 1,
      "note": 38,
      "vel": 83,
      "dur": 25
    },
    {
      "t": 920.3,
      "ch": 1,
      "note": 40,
      "vel": 79,
      "dur": 25
    },
    {
      "t": 920.3,
      "ch": 1,
      "note": 42,
      "vel": 102,
      "dur": 25
    },
    {
      "t": 920.3,
      "ch": 1,
      "note": 36,
      "vel": 93,
      "dur": 25
    },
    {
      "t": 920.3,
      "ch": 1,
      "note": 38,
      "vel": 88,
      "dur": 25
    },
    {
      "t": 920.3,
      "ch": 1,
      "note": 40,
      "vel": 72,
      "dur": 25
    },
    {
      "t": 920.3,
      "ch": 1,
      "note": 42,
      "vel": 98,
      "dur": 25
    },
    {
      "t": 920.3,
      "ch": 1,
      "note": 36,
      "vel": 69,
      "dur": 25
    },
    {
      "t": 920.3,
      "ch": 1,
      "note": 38,
      "vel": 102,
      "dur": 25
    },
    {
      "t": 920.3,
      "ch": 1,
      "note": 40,
      "vel": 75,
      "dur": 25
    },
    {
      "t": 920.3,
      "ch": 1,
      "note": 42,
      "vel": 84,
      "dur": 25
    },
    {
      "t": 920.3,
      "ch": 1,
      "note": 36,
      "vel": 102,
      "dur": 25
    },
    {
      "t": 920.3,
      "ch": 1,
      "note": 38,
      "vel": 86,
      "dur": 25
    },
    {
      "t": 920.3,
      "ch": 1,
      "note": 40,
      "vel": 99,
      "dur": 25
    },
    {
      "t": 920.3,
      "ch": 1,
      "note": 42,
      "vel": 88,
      "dur": 25
    },
    {
      "t": 920.3,
      "ch": 1,
      "note": 36,
      "vel": 89,
      "dur": 25
    },
    {
      "t": 920.3,
      "ch": 1,
      "note": 38,
      "vel": 81,
      "dur": 25
    },
    {
      "t": 920.3,
      "ch": 1,
      "note": 40,
      "vel": 74,
      "dur": 25
    },
    {
      "t": 920.3,
      "ch": 1,
      "note": 42,
      "vel": 87,
      "dur": 25
    },
    {
      "t": 920.3,
      "ch": 1,
      "note": 36,
      "vel": 88,
      "dur": 25
    },
    {
      "t": 920.3,
      "ch": 1,
      "note": 38,
      "vel": 69,
      "dur": 25
    },
    {
      "t": 920.3,
      "ch": 1,
      "note": 40,
      "vel": 85,
      "dur": 25
    },
    {
      "t": 920.3,
      "ch": 1,
      "note": 42,
      "vel": 94,
      "dur": 25
    },
    {
      "t": 920.3,
      "ch": 1,
      "note": 36,
      "vel": 84,
      "dur": 25
    },
    {
      "t": 920.3,
      "ch": 1,
      "note": 38,
      "vel": 100,
      "dur": 25
    },
    {
      "t": 920.3,
      "ch": 1,
      "note": 40,
      "vel": 84,
      "dur": 25
    },
    {
      "t": 920.3,
      "ch": 1,
      "note": 42,
      "vel": 75,
      "dur": 25
    },
    {
      "t": 920.3,
      "ch": 1,
      "note": 36,
      "vel": 107,
      "dur": 25
    },
    {
      "t": 920.3,
      "ch": 1,
      "note": 38,
      "vel": 95,
      "dur": 25
    },
    {
      "t": 920.3,
      "ch": 1,
      "note": 40,
      "vel": 83,
      "dur": 25
    },
    {
      "t": 920.3,
      "ch": 1,
      "note": 42,
      "vel": 85,
      "dur": 25
    },
    {
      "t": 920.3,
      "ch": 1,
      "note": 36,
      "vel": 98,
      "dur": 25
    },
    {
      "t": 920.3,
      "ch": 1,
      "note": 38,
      "vel": 112,
      "dur": 25
    },
    {
      "t": 920.3,
      "ch": 1,
      "note": 40,
      "vel": 83,
      "dur": 25
    },
    {
      "t": 920.3,
      "ch": 1,
      "note": 42,
      "vel": 59,
      "dur": 25
    },
    {
      "t": 920.3,
      "ch": 1,
      "note": 36,
      "vel": 96,
      "dur": 25
    },
    {
      "t": 920.3,
      "ch": 1,
      "note": 38,
      "vel": 87,
      "dur": 25
    },
    {
      "t": 920.3,
      "ch": 1,
      "note": 40,
      "vel": 95,
      "dur": 25
    },
    {
      "t": 920.3,
      "ch": 1,
      "note": 42,
      "vel": 68,
      "dur": 25
    },
    {
      "t": 920.3,
      "ch": 1,
      "note": 36,
      "vel": 88,
      "dur": 25
    },
    {
      "t": 920.3,
      "ch": 1,
      "note": 38,
      "vel": 90,
      "dur": 25
    },
    {
      "t": 920.3,
      "ch": 1,
      "note": 40,
      "vel": 64,
      "dur": 25
    },
    {
      "t": 920.3,
      "ch": 1,
      "note": 42,
      "vel": 67,
      "dur": 25
    },
    {
      "t": 920.3,
      "ch": 1,
      "note": 36,
      "vel": 86,
      "dur": 25
    },
    {
      "t": 920.3,
      "ch": 1,
      "note": 38,
      "vel": 77,
      "dur": 25
    },
    {
      "t": 920.3,
      "ch": 1,
      "note": 40,
      "vel": 57,
      "dur": 25
    },
    {
      "t": 920.3,
      "ch": 1,
      "note": 42,
      "vel": 107,
      "dur": 25
    },
    {
      "t": 920.3,
      "ch": 1,
      "note": 36,
      "vel": 93,
      "dur": 25
    },
    {
      "t": 920.3,
      "ch": 1,
      "note": 38,
      "vel": 80,
      "dur": 25
    },
    {
      "t": 920.3,
      "ch": 1,
      "note": 40,
      "vel": 85,
      "dur": 25
    },
    {
      "t": 920.3,
      "ch": 1,
      "note": 42,
      "vel": 109,
      "dur": 25
    },
    {
      "t": 920.3,
      "ch": 1,
      "note": 36,
      "vel": 86,
      "dur": 25
    },
    {
      "t": 920.3,
      "ch": 1,
      "note": 38,
      "vel": 91,
      "dur": 25
    },
    {
      "t": 920.3,
      "ch": 1,
      "note": 40,
      "vel": 101,
      "dur": 25
    },
    {
      "t": 920.3,
      "ch": 1,
      "note": 42,
      "vel": 116,
      "dur": 25
    },
    {
      "t": 920.3,
      "ch": 1,
      "note": 36,
      "vel": 72,
      "dur": 25
    },
    {
      "t": 920.3,
      "ch": 1,
      "note": 38,
      "vel": 95,
      "dur": 25
    },
    {
      "t": 920.3,
      "ch": 1,
      "note": 40,
      "vel": 89,
      "dur": 25
    },
    {
      "t": 920.3,
      "ch": 1,
      "note": 42,
      "vel": 98,
      "dur": 25
    },
    {
      "t": 920.3,
      "ch": 1,
      "note": 36,
      "vel": 55,
      "dur": 25
    },
    {
      "t": 920.3,
      "ch": 1,
      "note": 38,
      "vel": 71,
      "dur": 25
    },
    {
      "t": 920.3,
      "ch": 1,
      "note": 40,
      "vel": 91,
      "dur": 25
    },
    {
      "t": 920.3,
      "ch": 1,
      "note": 42,
      "vel": 90,
      "dur": 25
    },
    {
      "t": 920.3,
      "ch": 1,
      "note": 36,
      "vel": 53,
      "dur": 25
    },
    {
      "t": 920.3,
      "ch": 1,
      "note": 38,
      "vel": 73,
      "dur": 25
    },
    {
      "t": 920.3,
      "ch": 1,
      "note": 40,
      "vel": 76,
      "dur": 25
    },
    {
      "t": 920.3,
      "ch": 1,
      "note": 42,
      "vel": 104,
      "dur": 25
    },
    {
      "t": 920.3,
      "ch": 1,
      "note": 36,
      "vel": 80,
      "dur": 25
    },
    {
      "t": 920.3,
      "ch": 1,
      "note": 38,
      "vel": 104,
      "dur": 25
    },
    {
      "t": 920.3,
      "ch": 1,
      "note": 40,
      "vel": 69,
      "dur": 25
    },
    {
      "t": 920.3,
      "ch": 1,
      "note": 42,
      "vel": 57,
      "dur": 25
    },
    {
      "t": 920.3,
      "ch": 1,
      "note": 36,
      "vel": 89,
      "dur": 25
    },
    {
      "t": 920.3,
      "ch": 1,
      "note": 38,
      "vel": 66,
      "dur": 25
    },
    {
      "t": 920.3,
      "ch": 1,
      "note": 40,
      "vel": 64,
      "dur": 25
    },
    {
      "t": 920.3,
      "ch": 1,
      "note": 42,
      "vel": 81,
      "dur": 25
    },
    {
      "t": 920.3,
      "ch": 1,
      "note": 36,
      "vel": 68,
      "dur": 25
    },
    {
      "t": 920.3,
      "ch": 1,
      "note": 38,
      "vel": 80,
      "dur": 25
    },
    {
      "t": 920.3,
      "ch": 1,
      "note": 40,
      "vel": 89,
      "dur": 25
    },
    {
      "t": 920.3,
      "ch": 1,
      "note": 42,
      "vel": 85,
      "dur": 25
    },
    {
      "t": 920.3,
      "ch": 1,
      "note": 36,
      "vel": 62,
      "dur": 25
    },
    {
      "t": 920.3,
      "ch": 1,
      "note": 38,
      "vel": 83,
      "dur": 25
    },
    {
      "t": 920.3,
      "ch": 1,
      "note": 40,
      "vel": 102,
      "dur": 25
    },
    {
      "t": 920.3,
      "ch": 1,
      "note": 42,
      "vel": 101,
      "dur": 25
    },
    {
      "t": 920.3,
      "ch": 1,
      "note": 36,
      "vel": 86,
      "dur": 25
    },
    {
      "t": 920.3,
      "ch": 1,
      "note": 38,
      "vel": 70,
      "dur": 25
    },
    {
      "t": 920.3,
      "ch": 1,
      "note": 40,
      "vel": 99,
      "dur": 25
    },
    {
      "t": 920.3,
      "ch": 1,
      "note": 42,
      "vel": 71,
      "dur": 25
    },
    {
      "t": 920.3,
      "ch": 1,
      "note": 36,
      "vel": 83,
      "dur": 25
    },
    {
      "t": 920.3,
      "ch": 1,
      "note": 38,
      "vel": 75,
      "dur": 25
    },
    {
      "t": 920.3,
      "ch": 1,
      "note": 40,
      "vel": 75,
      "dur": 25
    },
    {
      "t": 920.3,
      "ch": 1,
      "note": 42,
      "vel": 64,
      "dur": 25
    },
    {
      "t": 920.3,
      "ch": 1,
      "note": 36,
      "vel": 75,
      "dur": 25
    },
    {
      "t": 920.3,
      "ch": 1,
      "note": 38,
      "vel": 90,
      "dur": 25
    },
    {
      "t": 920.3,
      "ch": 1,
      "note": 40,
      "vel": 69,
      "dur": 25
    },
    {
      "t": 920.3,
      "ch": 1,
      "note": 42,
      "vel": 86,
      "dur": 25
    },
    {
      "t": 920.3,
      "ch": 1,
      "note": 36,
      "vel": 64,
      "dur": 25
    },
    {
      "t": 920.3,
      "ch": 1,
      "note": 38,
      "vel": 84,
      "dur": 25
    },
    {
      "t": 920.3,
      "ch": 1,
      "note": 40,
      "vel": 75,
      "dur": 25
    },
    {
      "t": 920.3,
      "ch": 1,
      "note": 42,
      "vel": 88,
      "dur": 25
    },
    {
      "t": 920.3,
      "ch": 1,
      "note": 36,
      "vel": 91,
      "dur": 25
    },
    {
      "t": 920.3,
      "ch": 1,
      "note": 38,
      "vel": 95,
      "dur": 25
    },
    {
      "t": 920.3,
      "ch": 1,
      "note": 40,
      "vel": 84,
      "dur": 25
    },
    {
      "t": 920.3,
      "ch": 1,
      "note": 42,
      "vel": 115,
      "dur": 25
    },
    {
      "t": 920.3,
      "ch": 1,
      "note": 36,
      "vel": 54,
      "dur": 25
    },
    {
      "t": 920.3,
      "ch": 1,
      "note": 38,
      "vel": 87,
      "dur": 25
    },
    {
      "t": 920.3,
      "ch": 1,
      "note": 40,
      "vel": 94,
      "dur": 25
    },
    {
      "t": 920.3,
      "ch": 1,
      "note": 42,
      "vel": 85,
      "dur": 25
    },
    {
      "t": 920.3,
      "ch": 1,
      "note": 36,
      "vel": 84,
      "dur": 25
    },
    {
      "t": 920.3,
      "ch": 1,
      "note": 38,
      "vel": 93,
      "dur": 25
    },
    {
      "t": 920.3,
      "ch": 1,
      "note": 40,
      "vel": 100,
      "dur": 25
    },
    {
      "t": 920.3,
      "ch": 1,
      "note": 42,
      "vel": 85,
      "dur": 25
    },
    {
      "t": 920.3,
      "ch": 1,
      "note": 36,
      "vel": 77,
      "dur": 25
    },
    {
      "t": 920.3,
      "ch": 1,
      "note": 38,
      "vel": 84,
      "dur": 25
    },
    {
      "t": 920.3,
      "ch": 1,
      "note": 40,
      "vel": 81,
      "dur": 25
    },
    {
      "t": 920.3,
      "ch": 1,
      "note": 42,
      "vel": 89,
      "dur": 25
    },
    {
      "t": 920.3,
      "ch": 1,
      "note": 36,
      "vel": 86,
      "dur": 25
    },
    {
      "t": 920.3,
      "ch": 1,
      "note": 38,
      "vel": 53,
      "dur": 25
    },
    {
      "t": 920.3,
      "ch": 1,
      "note": 40,
      "vel": 68,
      "dur": 25
    },
    {
      "t": 920.3,
      "ch": 1,
      "note": 42,
      "vel": 98,
      "dur": 25
    },
    {
      "t": 920.3,
      "ch": 1,
      "note": 36,
      "vel": 90,
      "dur": 25
    },
    {
      "t": 920.3,
      "ch": 1,
      "note": 38,
      "vel": 102,
      "dur": 25
    },
    {
      "t": 920.3,
      "ch": 1,
      "note": 40,
      "vel": 105,
      "dur": 25
    },
    {
      "t": 920.3,
      "ch": 1,
      "note": 42,
      "vel": 68,
      "dur": 25
    },
    {
      "t": 920.3,
      "ch": 1,
      "note": 36,
      "vel": 91,
      "dur": 25
    },
    {
      "t": 920.3,
      "ch": 1,
      "note": 38,
      "vel": 83,
      "dur": 25
    },
    {
      "t": 920.3,
      "ch": 1,
      "note": 40,
      "vel": 77,
      "dur": 25
    },
    {
      "t": 920.3,
      "ch": 1,
      "note": 42,
      "vel": 66,
      "dur": 25
    },
    {
      "t": 920.3,
      "ch": 1,
      "note": 36,
      "vel": 69,
      "dur": 25
    },
    {
      "t": 920.3,
      "ch": 1,
      "note": 38,
      "vel": 75,
      "dur": 25
    },
    {
      "t": 920.3,
      "ch": 1,
      "note": 40,
      "vel": 72,
      "dur": 25
    },
    {
      "t": 920.3,
      "ch": 1,
      "note": 42,
      "vel": 74,
      "dur": 25
    },
    {
      "t": 920.3,
      "ch": 1,
      "note": 36,
      "vel": 76,
      "dur": 25
    },
    {
      "t": 920.3,
      "ch": 1,
      "note": 38,
      "vel": 74,
      "dur": 25
    },
    {
      "t": 920.3,
      "ch": 1,
      "note": 40,
      "vel": 75,
      "dur": 25
    },
    {
      "t": 920.3,
      "ch": 1,
      "note": 42,
      "vel": 81,
      "dur": 25
    },
    {
      "t": 920.3,
      "ch": 1,
      "note": 36,
      "vel": 103,
      "dur": 25
    },
    {
      "t": 920.3,
      "ch": 1,
      "note": 38,
      "vel": 83,
      "dur": 25
    },
    {
      "t": 920.3,
      "ch": 1,
      "note": 40,
      "vel": 72,
      "dur": 25
    },
    {
      "t": 920.3,
      "ch": 1,
      "note": 42,
      "vel": 76,
      "dur": 25
    },
    {
      "t": 920.3,
      "ch": 1,
      "note": 36,
      "vel": 82,
      "dur": 25
    },
    {
      "t": 920.3,
      "ch": 1,
      "note": 38,
      "vel": 63,
      "dur": 25
    },
    {
      "t": 920.3,
      "ch": 1,
      "note": 40,
      "vel": 89,
      "dur": 25
    },
    {
      "t": 920.3,
      "ch": 1,
      "note": 42,
      "vel": 94,
      "dur": 25
    },
    {
      "t": 920.3,
      "ch": 1,
      "note": 36,
      "vel": 96,
      "dur": 25
    },
    {
      "t": 920.3,
      "ch": 1,
      "note": 38,
      "vel": 83,
      "dur": 25
    },
    {
      "t": 920.3,
      "ch": 1,
      "note": 40,
      "vel": 86,
      "dur": 25
    },
    {
      "t": 920.3,
      "ch": 1,
      "note": 42,
      "vel": 79,
      "dur": 25
    },
    {
      "t": 920.3,
      "ch": 1,
      "note": 36,
      "vel": 82,
      "dur": 25
    },
    {
      "t": 920.3,
      "ch": 1,
      "note": 38,
      "vel": 77,
      "dur": 25
    },
    {
      "t": 920.3,
      "ch": 1,
      "note": 40,
      "vel": 80,
      "dur": 25
    },
    {
      "t": 920.3,
      "ch": 1,
      "note": 42,
      "vel": 82,
      "dur": 25
    },
    {
      "t": 920.3,
      "ch": 1,
      "note": 36,
      "vel": 52,
      "dur": 25
    },
    {
      "t": 920.3,
      "ch": 1,
      "note": 38,
      "vel": 81,
      "dur": 25
    },
    {
      "t": 920.3,
      "ch": 1,
      "note": 40,
      "vel": 86,
      "dur": 25
    },
    {
      "t": 920.3,
      "ch": 1,
      "note": 42,
      "vel": 62,
      "dur": 25
    },
    {
      "t": 920.3,
      "ch": 1,
      "note": 36,
      "vel": 75,
      "dur": 25
    },
    {
      "t": 920.3,
      "ch": 1,
      "note": 38,
      "vel": 70,
      "dur": 25
    },
    {
      "t": 920.3,
      "ch": 1,
      "note": 40,
      "vel": 79,
      "dur": 25
    },
    {
      "t": 920.3,
      "ch": 1,
      "note": 42,
      "vel": 56,
      "dur": 25
    },
    {
      "t": 920.3,
      "ch": 1,
      "note": 36,
      "vel": 92,
      "dur": 25
    },
    {
      "t": 920.3,
      "ch": 1,
      "note": 38,
      "vel": 99,
      "dur": 25
    },
    {
      "t": 920.3,
      "ch": 1,
      "note": 40,
      "vel": 94,
      "dur": 25
    },
    {
      "t": 920.3,
      "ch": 1,
      "note": 42,
      "vel": 76,
      "dur": 25
    },
    {
      "t": 920.3,
      "ch": 1,
      "note": 36,
      "vel": 65,
      "dur": 25
    },
    {
      "t": 920.3,
      "ch": 1,
      "note": 38,
      "vel": 81,
      "dur": 25
    },
    {
      "t": 920.3,
      "ch": 1,
      "note": 40,
      "vel": 78,
      "dur": 25
    },
    {
      "t": 920.3,
      "ch": 1,
      "note": 42,
      "vel": 78,
      "dur": 25
    },
    {
      "t": 920.3,
      "ch": 1,
      "note": 36,
      "vel": 74,
      "dur": 25
    },
    {
      "t": 920.3,
      "ch": 1,
      "note": 38,
      "vel": 73,
      "dur": 25
    },
    {
      "t": 920.3,
      "ch": 1,
      "note": 40,
      "vel": 95,
      "dur": 25
    },
    {
      "t": 920.3,
      "ch": 1,
      "note": 42,
      "vel": 75,
      "dur": 25
    },
    {
      "t": 920.3,
      "ch": 1,
      "note": 36,
      "vel": 90,
      "dur": 25
    },
    {
      "t": 920.3,
      "ch": 1,
      "note": 38,
      "vel": 111,
      "dur": 25
    },
    {
      "t": 920.3,
      "ch": 1,
      "note": 40,
      "vel": 94,
      "dur": 25
    },
    {
      "t": 920.3,
      "ch": 1,
      "note": 42,
      "vel": 84,
      "dur": 25
    },
    {
      "t": 920.3,
      "ch": 1,
      "note": 36,
      "vel": 106,
      "dur": 25
    },
    {
      "t": 920.3,
      "ch": 1,
      "note": 38,
      "vel": 99,
      "dur": 25
    },
    {
      "t": 920.3,
      "ch": 1,
      "note": 40,
      "vel": 103,
      "dur": 25
    },
    {
      "t": 920.3,
      "ch": 1,
      "note": 42,
      "vel": 104,
      "dur": 25
    },
    {
      "t": 920.3,
      "ch": 1,
      "note": 36,
      "vel": 77,
      "dur": 25
    },
    {
      "t": 920.3,
      "ch": 1,
      "note": 38,
      "vel": 93,
      "dur": 25
    },
    {
      "t": 920.3,
      "ch": 1,
      "note": 40,
      "vel": 97,
      "dur": 25
    },
    {
      "t": 920.3,
      "ch": 1,
      "note": 42,
      "vel": 76,
      "dur": 25
    },
    {
      "t": 920.3,
      "ch": 1,
      "note": 36,
      "vel": 64,
      "dur": 25
    },
    {
      "t": 920.3,
      "ch": 1,
      "note": 38,
      "vel": 79,
      "dur": 25
    },
    {
      "t": 920.3,
      "ch": 1,
      "note": 40,
      "vel": 77,
      "dur": 25
    },
    {
      "t": 920.3,
      "ch": 1,
      "note": 42,
      "vel": 110,
      "dur": 25
    },
    {
      "t": 920.3,
      "ch": 1,
      "note": 36,
      "vel": 72,
      "dur": 25
    },
    {
      "t": 920.3,
      "ch": 1,
      "note": 38,
      "vel": 72,
      "dur": 25
    },
    {
      "t": 920.3,
      "ch": 1,
      "note": 40,
      "vel": 61,
      "dur": 25
    },
    {
      "t": 920.3,
      "ch": 1,
      "note": 42,
      "vel": 85,
      "dur": 25
    },
    {
      "t": 920.3,
      "ch": 1,
      "note": 36,
      "vel": 90,
      "dur": 25
    },
    {
      "t": 920.3,
      "ch": 1,
      "note": 38,
      "vel": 78,
      "dur": 25
    },
    {
      "t": 920.3,
      "ch": 1,
      "note": 40,
      "vel": 103,
      "dur": 25
    },
    {
      "t": 920.3,
      "ch": 1,
      "note": 42,
      "vel": 84,
      "dur": 25
    },
    {
      "t": 920.3,
      "ch": 1,
      "note": 36,
      "vel": 99,
      "dur": 25
    },
    {
      "t": 920.3,
      "ch": 1,
      "note": 38,
      "vel": 81,
      "dur": 25
    },
    {
      "t": 920.3,
      "ch": 1,
      "note": 40,
      "vel": 77,
      "dur": 25
    },
    {
      "t": 920.3,
      "ch": 1,
      "note": 42,
      "vel": 93,
      "dur": 25
    },
    {
      "t": 920.3,
      "ch": 1,
      "note": 36,
      "vel": 96,
      "dur": 25
    },
    {
      "t": 920.3,
      "ch": 1,
      "note": 38,
      "vel": 62,
      "dur": 25
    },
    {
      "t": 920.3,
      "ch": 1,
      "note": 40,
      "vel": 85,
      "dur": 25
    },
    {
      "t": 920.3,
      "ch": 1,
      "note": 42,
      "vel": 95,
      "dur": 25
    },
    {
      "t": 920.3,
      "ch": 1,
      "note": 36,
      "vel": 94,
      "dur": 25
    },
    {
      "t": 920.3,
      "ch": 1,
      "note": 38,
      "vel": 77,
      "dur": 25
    },
    {
      "t": 920.3,
      "ch": 1,
      "note": 40,
      "vel": 88,
      "dur": 25
    },
    {
      "t": 920.3,
      "ch": 1,
      "note": 42,
      "vel": 72,
      "dur": 25
    },
    {
      "t": 920.3,
      "ch": 1,
      "note": 36,
      "vel": 98,
      "dur": 25
    },
    {
      "t": 920.3,
      "ch": 1,
      "note": 38,
      "vel": 90,
      "dur": 25
    },
    {
      "t": 920.3,
      "ch": 1,
      "note": 40,
      "vel": 75,
      "dur": 25
    },
    {
      "t": 920.3,
      "ch": 1,
      "note": 42,
      "vel": 61,
      "dur": 25
    },
    {
      "t": 920.3,
      "ch": 1,
      "note": 36,
      "vel": 78,
      "dur": 25
    },
    {
      "t": 920.3,
      "ch": 1,
      "note": 38,
      "vel": 91,
      "dur": 25
    },
    {
      "t": 920.3,
      "ch": 1,
      "note": 40,
      "vel": 91,
      "dur": 25
    },
    {
      "t": 920.3,
      "ch": 1,
      "note": 42,
      "vel": 63,
      "dur": 25
    },
    {
      "t": 920.3,
      "ch": 1,
      "note": 36,
      "vel": 59,
      "dur": 25
    },
    {
      "t": 920.3,
      "ch": 1,
      "note": 38,
      "vel": 102,
      "dur": 25
    },
    {
      "t": 920.3,
      "ch": 1,
      "note": 40,
      "vel": 64,
      "dur": 25
    },
    {
      "t": 920.3,
      "ch": 1,
      "note": 42,
      "vel": 78,
      "dur": 25
    },
    {
      "t": 920.3,
      "ch": 1,
      "note": 36,
      "vel": 76,
      "dur": 25
    },
    {
      "t": 920.3,
      "ch": 1,
      "note": 38,
      "vel": 100,
      "dur": 25
    },
    {
      "t": 920.3,
      "ch": 1,
      "note": 40,
      "vel": 84,
      "dur": 25
    },
    {
      "t": 920.3,
      "ch": 1,
      "note": 42,
      "vel": 68,
      "dur": 25
    },
    {
      "t": 920.3,
      "ch": 1,
      "note": 36,
      "vel": 71,
      "dur": 25
    },
    {
      "t": 920.3,
      "ch": 1,
      "note": 38,
      "vel": 66,
      "dur": 25
    },
    {
      "t": 920.3,
      "ch": 1,
      "note": 40,
      "vel": 95,
      "dur": 25
    },
    {
      "t": 920.3,
      "ch": 1,
      "note": 42,
      "vel": 82,
      "dur": 25
    },
    {
      "t": 920.3,
      "ch": 1,
      "note": 36,
      "vel": 84,
      "dur": 25
    },
    {
      "t": 920.3,
      "ch": 1,
      "note": 38,
      "vel": 65,
      "dur": 25
    },
    {
      "t": 920.3,
      "ch": 1,
      "note": 40,
      "vel": 78,
      "dur": 25
    },
    {
      "t": 920.3,
      "ch": 1,
      "note": 42,
      "vel": 91,
      "dur": 25
    },
    {
      "t": 920.3,
      "ch": 1,
      "note": 36,
      "vel": 76,
      "dur": 25
    },
    {
      "t": 920.3,
      "ch": 1,
      "note": 38,
      "vel": 93,
      "dur": 25
    },
    {
      "t": 920.3,
      "ch": 1,
      "note": 40,
      "vel": 100,
      "dur": 25
    },
    {
      "t": 920.3,
      "ch": 1,
      "note": 42,
      "vel": 74,
      "dur": 25
    },
    {
      "t": 920.3,
      "ch": 1,
      "note": 36,
      "vel": 82,
      "dur": 25
    },
    {
      "t": 920.3,
      "ch": 1,
      "note": 38,
      "vel": 67,
      "dur": 25
    },
    {
      "t": 920.3,
      "ch": 1,
      "note": 40,
      "vel": 97,
      "dur": 25
    },
    {
      "t": 920.3,
      "ch": 1,
      "note": 42,
      "vel": 105,
      "dur": 25
    },
    {
      "t": 920.3,
      "ch": 1,
      "note": 36,
      "vel": 96,
      "dur": 25
    },
    {
      "t": 920.3,
      "ch": 1,
      "note": 38,
      "vel": 89,
      "dur": 25
    },
    {
      "t": 920.3,
      "ch": 1,
      "note": 40,
      "vel": 82,
      "dur": 25
    },
    {
      "t": 920.3,
      "ch": 1,
      "note": 42,
      "vel": 109,
      "dur": 25
    },
    {
      "t": 920.3,
      "ch": 1,
      "note": 36,
      "vel": 87,
      "dur": 25
    },
    {
      "t": 920.3,
      "ch": 1,
      "note": 38,
      "vel": 95,
      "dur": 25
    },
    {
      "t": 920.3,
      "ch": 1,
      "note": 40,
      "vel": 103,
      "dur": 25
    },
    {
      "t": 920.3,
      "ch": 1,
      "note": 42,
      "vel": 109,
      "dur": 25
    },
    {
      "t": 920.3,
      "ch": 1,
      "note": 36,
      "vel": 83,
      "dur": 25
    },
    {
      "t": 920.3,
      "ch": 1,
      "note": 38,
      "vel": 65,
      "dur": 25
    },
    {
      "t": 920.3,
      "ch": 1,
      "note": 40,
      "vel": 101,
      "dur": 25
    },
    {
      "t": 920.3,
      "ch": 1,
      "note": 42,
      "vel": 85,
      "dur": 25
    },
    {
      "t": 920.3,
      "ch": 1,
      "note": 36,
      "vel": 64,
      "dur": 25
    },
    {
      "t": 920.3,
      "ch": 1,
      "note": 38,
      "vel": 102,
      "dur": 25
    },
    {
      "t": 920.3,
      "ch": 1,
      "note": 40,
      "vel": 113,
      "dur": 25
    },
    {
      "t": 920.3,
      "ch": 1,
      "note": 42,
      "vel": 91,
      "dur": 25
    },
    {
      "t": 920.3,
      "ch": 1,
      "note": 36,
      "vel": 88,
      "dur": 25
    },
    {
      "t": 920.3,
      "ch": 1,
      "note": 38,
      "vel": 83,
      "dur": 25
    },
    {
      "t": 920.3,
      "ch": 1,
      "note": 40,
      "vel": 97,
      "dur": 25
    },
    {
      "t": 920.3,
      "ch": 1,
      "note": 42,
      "vel": 89,
      "dur": 25
    },
    {
      "t": 920.3,
      "ch": 1,
      "note": 36,
      "vel": 51,
      "dur": 25
    },
    {
      "t": 920.3,
      "ch": 1,
      "note": 38,
      "vel": 81,
      "dur": 25
    },
    {
      "t": 920.3,
      "ch": 1,
      "note": 40,
      "vel": 77,
      "dur": 25
    },
    {
      "t": 920.3,
      "ch": 1,
      "note": 42,
      "vel": 88,
      "dur": 25
    },
    {
      "t": 920.3,
      "ch": 1,
      "note": 36,
      "vel": 57,
      "dur": 25
    },
    {
      "t": 920.3,
      "ch": 1,
      "note": 38,
      "vel": 97,
      "dur": 25
    },
    {
      "t": 920.3,
      "ch": 1,
      "note": 40,
      "vel": 83,
      "dur": 25
    },
    {
      "t": 920.3,
      "ch": 1,
      "note": 42,
      "vel": 78,
      "dur": 25
    },
    {
      "t": 920.3,
      "ch": 1,
      "note": 36,
      "vel": 77,
      "dur": 25
    },
    {
      "t": 920.3,
      "ch": 1,
      "note": 38,
      "vel": 88,
      "dur": 25
    },
    {
      "t": 920.3,
      "ch": 1,
      "note": 40,
      "vel": 95,
      "dur": 25
    },
    {
      "t": 920.3,
      "ch": 1,
      "note": 42,
      "vel": 99,
      "dur": 25
    },
    {
      "t": 920.3,
      "ch": 1,
      "note": 36,
      "vel": 92,
      "dur": 25
    },
    {
      "t": 920.3,
      "ch": 1,
      "note": 38,
      "vel": 65,
      "dur": 25
    },
    {
      "t": 920.3,
      "ch": 1,
      "note": 40,
      "vel": 94,
      "dur": 25
    },
    {
      "t": 920.3,
      "ch": 1,
      "note": 42,
      "vel": 70,
      "dur": 25
    },
    {
      "t": 920.3,
      "ch": 1,
      "note": 36,
      "vel": 102,
      "dur": 25
    },
    {
      "t": 920.3,
      "ch": 1,
      "note": 38,
      "vel": 100,
      "dur": 25
    },
    {
      "t": 920.3,
      "ch": 1,
      "note": 40,
      "vel": 87,
      "dur": 25
    },
    {
      "t": 920.3,
      "ch": 1,
      "note": 42,
      "vel": 109,
      "dur": 25
    },
    {
      "t": 920.3,
      "ch": 1,
      "note": 36,
      "vel": 87,
      "dur": 25
    },
    {
      "t": 920.3,
      "ch": 1,
      "note": 38,
      "vel": 97,
      "dur": 25
    },
    {
      "t": 920.3,
      "ch": 1,
      "note": 40,
      "vel": 75,
      "dur": 25
    },
    {
      "t": 920.3,
      "ch": 1,
      "note": 42,
      "vel": 72,
      "dur": 25
    },
    {
      "t": 920.3,
      "ch": 1,
      "note": 36,
      "vel": 92,
      "dur": 25
    },
    {
      "t": 920.3,
      "ch": 1,
      "note": 38,
      "vel": 72,
      "dur": 25
    },
    {
      "t": 920.3,
      "ch": 1,
      "note": 40,
      "vel": 57,
      "dur": 25
    },
    {
      "t": 920.3,
      "ch": 1,
      "note": 42,
      "vel": 87,
      "dur": 25
    },
    {
      "t": 920.3,
      "ch": 1,
      "note": 36,
      "vel": 71,
      "dur": 25
    },
    {
      "t": 920.3,
      "ch": 1,
      "note": 38,
      "vel": 93,
      "dur": 25
    },
    {
      "t": 920.3,
      "ch": 1,
      "note": 40,
      "vel": 102,
      "dur": 25
    },
    {
      "t": 920.3,
      "ch": 1,
      "note": 42,
      "vel": 83,
      "dur": 25
    },
    {
      "t": 920.3,
      "ch": 1,
      "note": 36,
      "vel": 62,
      "dur": 25
    },
    {
      "t": 920.3,
      "ch": 1,
      "note": 38,
      "vel": 89,
      "dur": 25
    },
    {
      "t": 920.3,
      "ch": 1,
      "note": 40,
      "vel": 67,
      "dur": 25
    },
    {
      "t": 920.3,
      "ch": 1,
      "note": 42,
      "vel": 103,
      "dur": 25
    },
    {
      "t": 920.3,
      "ch": 1,
      "note": 36,
      "vel": 65,
      "dur": 25
    },
    {
      "t": 920.3,
      "ch": 1,
      "note": 38,
      "vel": 82,
      "dur": 25
    },
    {
      "t": 920.3,
      "ch": 1,
      "note": 40,
      "vel": 84,
      "dur": 25
    },
    {
      "t": 920.3,
      "ch": 1,
      "note": 42,
      "vel": 89,
      "dur": 25
    },
    {
      "t": 920.3,
      "ch": 1,
      "note": 36,
      "vel": 88,
      "dur": 25
    },
    {
      "t": 920.3,
      "ch": 1,
      "note": 38,
      "vel": 77,
      "dur": 25
    },
    {
      "t": 920.3,
      "ch": 1,
      "note": 40,
      "vel": 79,
      "dur": 25
    },
    {
      "t": 920.3,
      "ch": 1,
      "note": 42,
      "vel": 90,
      "dur": 25
    },
    {
      "t": 920.3,
      "ch": 1,
      "note": 36,
      "vel": 97,
      "dur": 25
    },
    {
      "t": 920.3,
      "ch": 1,
      "note": 38,
      "vel": 75,
      "dur": 25
    },
    {
      "t": 920.3,
      "ch": 1,
      "note": 40,
      "vel": 87,
      "dur": 25
    },
    {
      "t": 920.3,
      "ch": 1,
      "note": 42,
      "vel": 79,
      "dur": 25
    },
    {
      "t": 920.3,
      "ch": 1,
      "note": 36,
      "vel": 102,
      "dur": 25
    },
    {
      "t": 920.3,
      "ch": 1,
      "note": 38,
      "vel": 86,
      "dur": 25
    },
    {
      "t": 920.3,
      "ch": 1,
      "note": 40,
      "vel": 92,
      "dur": 25
    },
    {
      "t": 920.3,
      "ch": 1,
      "note": 42,
      "vel": 66,
      "dur": 25
    },
    {
      "t": 920.3,
      "ch": 1,
      "note": 36,
      "vel": 77,
      "dur": 25
    },
    {
      "t": 920.3,
      "ch": 1,
      "note": 38,
      "vel": 63,
      "dur": 25
    },
    {
      "t": 920.3,
      "ch": 1,
      "note": 40,
      "vel": 96,
      "dur": 25
    },
    {
      "t": 920.3,
      "ch": 1,
      "note": 42,
      "vel": 89,
      "dur": 25
    },
    {
      "t": 920.3,
      "ch": 1,
      "note": 36,
      "vel": 100,
      "dur": 25
    },
    {
      "t": 920.3,
      "ch": 1,
      "note": 38,
      "vel": 66,
      "dur": 25
    },
    {
      "t": 920.3,
      "ch": 1,
      "note": 40,
      "vel": 56,
      "dur": 25
    },
    {
      "t": 920.3,
      "ch": 1,
      "note": 42,
      "vel": 94,
      "dur": 25
    },
    {
      "t": 920.3,
      "ch": 1,
      "note": 36,
      "vel": 67,
      "dur": 25
    },
    {
      "t": 920.3,
      "ch": 1,
      "note": 38,
      "vel": 88,
      "dur": 25
    },
    {
      "t": 920.3,
      "ch": 1,
      "note": 40,
      "vel": 85,
      "dur": 25
    },
    {
      "t": 920.3,
      "ch": 1,
      "note": 42,
      "vel": 88,
      "dur": 25
    },
    {
      "t": 920.3,
      "ch": 1,
      "note": 36,
      "vel": 88,
      "dur": 25
    },
    {
      "t": 920.3,
      "ch": 1,
      "note": 38,
      "vel": 95,
      "dur": 25
    },
    {
      "t": 920.3,
      "ch": 1,
      "note": 40,
      "vel": 80,
      "dur": 25
    },
    {
      "t": 920.3,
      "ch": 1,
      "note": 42,
      "vel": 87,
      "dur": 25
    },
    {
      "t": 920.3,
      "ch": 1,
      "note": 36,
      "vel": 59,
      "dur": 25
    },
    {
      "t": 920.3,
      "ch": 1,
      "note": 38,
      "vel": 84,
      "dur": 25
    },
    {
      "t": 920.3,
      "ch": 1,
      "note": 40,
      "vel": 78,
      "dur": 25
    },
    {
      "t": 920.3,
      "ch": 1,
      "note": 42,
      "vel": 106,
      "dur": 25
    },
    {
      "t": 920.3,
      "ch": 1,
      "note": 36,
      "vel": 94,
      "dur": 25
    },
    {
      "t": 920.3,
      "ch": 1,
      "note": 38,
      "vel": 109,
      "dur": 25
    },
    {
      "t": 920.3,
      "ch": 1,
      "note": 40,
      "vel": 110,
      "dur": 25
    },
    {
      "t": 920.3,
      "ch": 1,
      "note": 42,
      "vel": 86,
      "dur": 25
    },
    {
      "t": 920.3,
      "ch": 1,
      "note": 36,
      "vel": 58,
      "dur": 25
    },
    {
      "t": 920.3,
      "ch": 1,
      "note": 38,
      "vel": 108,
      "dur": 25
    },
    {
      "t": 920.3,
      "ch": 1,
      "note": 40,
      "vel": 97,
      "dur": 25
    },
    {
      "t": 920.3,
      "ch": 1,
      "note": 42,
      "vel": 55,
      "dur": 25
    },
    {
      "t": 920.3,
      "ch": 1,
      "note": 36,
      "vel": 91,
      "dur": 25
    },
    {
      "t": 920.3,
      "ch": 1,
      "note": 38,
      "vel": 66,
      "dur": 25
    },
    {
      "t": 920.3,
      "ch": 1,
      "note": 40,
      "vel": 84,
      "dur": 25
    },
    {
      "t": 920.3,
      "ch": 1,
      "note": 42,
      "vel": 93,
      "dur": 25
    },
    {
      "t": 920.3,
      "ch": 1,
      "note": 36,
      "vel": 68,
      "dur": 25
    },
    {
      "t": 920.3,
      "ch": 1,
      "note": 38,
      "vel": 98,
      "dur": 25
    },
    {
      "t": 920.3,
      "ch": 1,
      "note": 40,
      "vel": 96,
      "dur": 25
    },
    {
      "t": 920.3,
      "ch": 1,
      "note": 42,
      "vel": 77,
      "dur": 25
    },
    {
      "t": 920.3,
      "ch": 1,
      "note": 36,
      "vel": 76,
      "dur": 25
    },
    {
      "t": 920.3,
      "ch": 1,
      "note": 38,
      "vel": 73,
      "dur": 25
    },
    {
      "t": 920.3,
      "ch": 1,
      "note": 40,
      "vel": 83,
      "dur": 25
    },
    {
      "t": 920.3,
      "ch": 1,
      "note": 42,
      "vel": 83,
      "dur": 25
    },
    {
      "t": 920.3,
      "ch": 1,
      "note": 36,
      "vel": 81,
      "dur": 25
    },
    {
      "t": 920.3,
      "ch": 1,
      "note": 38,
      "vel": 96,
      "dur": 25
    },
    {
      "t": 920.3,
      "ch": 1,
      "note": 40,
      "vel": 75,
      "dur": 25
    },
    {
      "t": 920.3,
      "ch": 1,
      "note": 42,
      "vel": 61,
      "dur": 25
    },
    {
      "t": 920.3,
      "ch": 1,
      "note": 36,
      "vel": 67,
      "dur": 25
    },
    {
      "t": 920.3,
      "ch": 1,
      "note": 38,
      "vel": 109,
      "dur": 25
    },
    {
      "t": 920.3,
      "ch": 1,
      "note": 40,
      "vel": 90,
      "dur": 25
    },
    {
      "t": 920.3,
      "ch": 1,
      "note": 42,
      "vel": 92,
      "dur": 25
    },
    {
      "t": 920.3,
      "ch": 1,
      "note": 36,
      "vel": 65,
      "dur": 25
    },
    {
      "t": 920.3,
      "ch": 1,
      "note": 38,
      "vel": 83,
      "dur": 25
    },
    {
      "t": 920.3,
      "ch": 1,
      "note": 40,
      "vel": 102,
      "dur": 25
    },
    {
      "t": 920.3,
      "ch": 1,
      "note": 42,
      "vel": 86,
      "dur": 25
    },
    {
      "t": 920.3,
      "ch": 1,
      "note": 36,
      "vel": 76,
      "dur": 25
    },
    {
      "t": 920.3,
      "ch": 1,
      "note": 38,
      "vel": 106,
      "dur": 25
    },
    {
      "t": 920.3,
      "ch": 1,
      "note": 40,
      "vel": 94,
      "dur": 25
    },
    {
      "t": 920.3,
      "ch": 1,
      "note": 42,
      "vel": 79,
      "dur": 25
    },
    {
      "t": 920.3,
      "ch": 1,
      "note": 36,
      "vel": 57,
      "dur": 25
    },
    {
      "t": 920.3,
      "ch": 1,
      "note": 38,
      "vel": 72,
      "dur": 25
    },
    {
      "t": 920.3,
      "ch": 1,
      "note": 40,
      "vel": 107,
      "dur": 25
    },
    {
      "t": 920.3,
      "ch": 1,
      "note": 42,
      "vel": 105,
      "dur": 25
    },
    {
      "t": 920.3,
      "ch": 1,
      "note": 36,
      "vel": 96,
      "dur": 25
    },
    {
      "t": 920.3,
      "ch": 1,
      "note": 38,
      "vel": 75,
      "dur": 25
    },
    {
      "t": 920.3,
      "ch": 1,
      "note": 40,
      "vel": 95,
      "dur": 25
    },
    {
      "t": 920.3,
      "ch": 1,
      "note": 42,
      "vel": 92,
      "dur": 25
    },
    {
      "t": 920.3,
      "ch": 1,
      "note": 36,
      "vel": 73,
      "dur": 25
    },
    {
      "t": 920.3,
      "ch": 1,
      "note": 38,
      "vel": 89,
      "dur": 25
    },
    {
      "t": 920.3,
      "ch": 1,
      "note": 40,
      "vel": 84,
      "dur": 25
    },
    {
      "t": 920.3,
      "ch": 1,
      "note": 42,
      "vel": 102,
      "dur": 25
    },
    {
      "t": 920.3,
      "ch": 1,
      "note": 36,
      "vel": 96,
      "dur": 25
    },
    {
      "t": 920.3,
      "ch": 1,
      "note": 38,
      "vel": 80,
      "dur": 25
    },
    {
      "t": 920.3,
      "ch": 1,
      "note": 40,
      "vel": 61,
      "dur": 25
    },
    {
      "t": 920.3,
      "ch": 1,
      "note": 42,
      "vel": 89,
      "dur": 25
    },
    {
      "t": 920.3,
      "ch": 1,
      "note": 36,
      "vel": 62,
      "dur": 25
    },
    {
      "t": 920.3,
      "ch": 1,
      "note": 38,
      "vel": 72,
      "dur": 25
    },
    {
      "t": 920.3,
      "ch": 1,
      "note": 40,
      "vel": 80,
      "dur": 25
    },
    {
      "t": 920.3,
      "ch": 1,
      "note": 42,
      "vel": 105,
      "dur": 25
    },
    {
      "t": 920.3,
      "ch": 1,
      "note": 36,
      "vel": 78,
      "dur": 25
    },
    {
      "t": 920.3,
      "ch": 1,
      "note": 38,
      "vel": 96,
      "dur": 25
    },
    {
      "t": 920.3,
      "ch": 1,
      "note": 40,
      "vel": 87,
      "dur": 25
    },
    {
      "t": 920.3,
      "ch": 1,
      "note": 42,
      "vel": 73,
      "dur": 25
    },
    {
      "t": 920.3,
      "ch": 1,
      "note": 36,
      "vel": 97,
      "dur": 25
    },
    {
      "t": 920.3,
      "ch": 1,
      "note": 38,
      "vel": 76,
      "dur": 25
    },
    {
      "t": 920.3,
      "ch": 1,
      "note": 40,
      "vel": 52,
      "dur": 25
    },
    {
      "t": 920.3,
      "ch": 1,
      "note": 42,
      "vel": 65,
      "dur": 25
    },
    {
      "t": 920.3,
      "ch": 1,
      "note": 36,
      "vel": 71,
      "dur": 25
    },
    {
      "t": 920.3,
      "ch": 1,
      "note": 38,
      "vel": 86,
      "dur": 25
    },
    {
      "t": 920.3,
      "ch": 1,
      "note": 40,
      "vel": 94,
      "dur": 25
    },
    {
      "t": 920.3,
      "ch": 1,
      "note": 42,
      "vel": 88,
      "dur": 25
    },
    {
      "t": 920.3,
      "ch": 1,
      "note": 36,
      "vel": 96,
      "dur": 25
    },
    {
      "t": 920.3,
      "ch": 1,
      "note": 38,
      "vel": 68,
      "dur": 25
    },
    {
      "t": 920.3,
      "ch": 1,
      "note": 40,
      "vel": 85,
      "dur": 25
    },
    {
      "t": 920.3,
      "ch": 1,
      "note": 42,
      "vel": 72,
      "dur": 25
    },
    {
      "t": 920.3,
      "ch": 1,
      "note": 36,
      "vel": 59,
      "dur": 25
    },
    {
      "t": 920.3,
      "ch": 1,
      "note": 38,
      "vel": 96,
      "dur": 25
    },
    {
      "t": 920.3,
      "ch": 1,
      "note": 40,
      "vel": 80,
      "dur": 25
    },
    {
      "t": 920.3,
      "ch": 1,
      "note": 42,
      "vel": 85,
      "dur": 25
    },
    {
      "t": 920.3,
      "ch": 1,
      "note": 36,
      "vel": 85,
      "dur": 25
    },
    {
      "t": 920.3,
      "ch": 1,
      "note": 38,
      "vel": 73,
      "dur": 25
    },
    {
      "t": 920.3,
      "ch": 1,
      "note": 40,
      "vel": 97,
      "dur": 25
    },
    {
      "t": 920.3,
      "ch": 1,
      "note": 42,
      "vel": 104,
      "dur": 25
    },
    {
      "t": 920.3,
      "ch": 1,
      "note": 36,
      "vel": 69,
      "dur": 25
    },
    {
      "t": 920.3,
      "ch": 1,
      "note": 38,
      "vel": 87,
      "dur": 25
    },
    {
      "t": 920.3,
      "ch": 1,
      "note": 40,
      "vel": 85,
      "dur": 25
    },
    {
      "t": 920.3,
      "ch": 1,
      "note": 42,
      "vel": 97,
      "dur": 25
    },
    {
      "t": 920.3,
      "ch": 1,
      "note": 36,
      "vel": 90,
      "dur": 25
    },
    {
      "t": 920.3,
      "ch": 1,
      "note": 38,
      "vel": 51,
      "dur": 25
    },
    {
      "t": 920.3,
      "ch": 1,
      "note": 40,
      "vel": 98,
      "dur": 25
    },
    {
      "t": 920.3,
      "ch": 1,
      "note": 42,
      "vel": 79,
      "dur": 25
    },
    {
      "t": 920.3,
      "ch": 1,
      "note": 36,
      "vel": 106,
      "dur": 25
    },
    {
      "t": 920.3,
      "ch": 1,
      "note": 38,
      "vel": 75,
      "dur": 25
    },
    {
      "t": 920.3,
      "ch": 1,
      "note": 40,
      "vel": 86,
      "dur": 25
    },
    {
      "t": 920.3,
      "ch": 1,
      "note": 42,
      "vel": 78,
      "dur": 25
    },
    {
      "t": 920.3,
      "ch": 1,
      "note": 36,
      "vel": 84,
      "dur": 25
    },
    {
      "t": 920.3,
      "ch": 1,
      "note": 38,
      "vel": 89,
      "dur": 25
    },
    {
      "t": 920.3,
      "ch": 1,
      "note": 40,
      "vel": 73,
      "dur": 25
    },
    {
      "t": 920.3,
      "ch": 1,
      "note": 42,
      "vel": 80,
      "dur": 25
    },
    {
      "t": 920.3,
      "ch": 1,
      "note": 36,
      "vel": 91,
      "dur": 25
    },
    {
      "t": 920.3,
      "ch": 1,
      "note": 38,
      "vel": 90,
      "dur": 25
    },
    {
      "t": 920.3,
      "ch": 1,
      "note": 40,
      "vel": 73,
      "dur": 25
    },
    {
      "t": 920.3,
      "ch": 1,
      "note": 42,
      "vel": 89,
      "dur": 25
    },
    {
      "t": 920.3,
      "ch": 1,
      "note": 36,
      "vel": 59,
      "dur": 25
    },
    {
      "t": 920.3,
      "ch": 1,
      "note": 38,
      "vel": 69,
      "dur": 25
    },
    {
      "t": 920.3,
      "ch": 1,
      "note": 40,
      "vel": 83,
      "dur": 25
    },
    {
      "t": 920.3,
      "ch": 1,
      "note": 42,
      "vel": 91,
      "dur": 25
    },
    {
      "t": 920.3,
      "ch": 1,
      "note": 36,
      "vel": 76,
      "dur": 25
    },
    {
      "t": 920.3,
      "ch": 1,
      "note": 38,
      "vel": 90,
      "dur": 25
    },
    {
      "t": 920.3,
      "ch": 1,
      "note": 40,
      "vel": 82,
      "dur": 25
    },
    {
      "t": 920.3,
      "ch": 1,
      "note": 42,
      "vel": 68,
      "dur": 25
    },
    {
      "t": 920.3,
      "ch": 1,
      "note": 36,
      "vel": 64,
      "dur": 25
    },
    {
      "t": 920.3,
      "ch": 1,
      "note": 38,
      "vel": 74,
      "dur": 25
    },
    {
      "t": 920.3,
      "ch": 1,
      "note": 40,
      "vel": 98,
      "dur": 25
    },
    {
      "t": 920.3,
      "ch": 1,
      "note": 42,
      "vel": 73,
      "dur": 25
    },
    {
      "t": 920.3,
      "ch": 1,
      "note": 36,
      "vel": 95,
      "dur": 25
    },
    {
      "t": 920.3,
      "ch": 1,
      "note": 38,
      "vel": 101,
      "dur": 25
    },
    {
      "t": 920.3,
      "ch": 1,
      "note": 40,
      "vel": 85,
      "dur": 25
    },
    {
      "t": 920.3,
      "ch": 1,
      "note": 42,
      "vel": 79,
      "dur": 25
    },
    {
      "t": 920.3,
      "ch": 1,
      "note": 36,
      "vel": 88,
      "dur": 25
    },
    {
      "t": 920.3,
      "ch": 1,
      "note": 38,
      "vel": 88,
      "dur": 25
    },
    {
      "t": 920.3,
      "ch": 1,
      "note": 40,
      "vel": 67,
      "dur": 25
    },
    {
      "t": 920.3,
      "ch": 1,
      "note": 42,
      "vel": 78,
      "dur": 25
    },
    {
      "t": 920.3,
      "ch": 1,
      "note": 36,
      "vel": 99,
      "dur": 25
    },
    {
      "t": 920.3,
      "ch": 1,
      "note": 38,
      "vel": 73,
      "dur": 25
    },
    {
      "t": 920.3,
      "ch": 1,
      "note": 40,
      "vel": 82,
      "dur": 25
    },
    {
      "t": 920.3,
      "ch": 1,
      "note": 42,
      "vel": 69,
      "dur": 25
    },
    {
      "t": 920.3,
      "ch": 1,
      "note": 36,
      "vel": 91,
      "dur": 25
    },
    {
      "t": 920.3,
      "ch": 1,
      "note": 38,
      "vel": 94,
      "dur": 25
    },
    {
      "t": 920.3,
      "ch": 1,
      "note": 40,
      "vel": 79,
      "dur": 25
    },
    {
      "t": 920.3,
      "ch": 1,
      "note": 42,
      "vel": 65,
      "dur": 25
    },
    {
      "t": 920.3,
      "ch": 1,
      "note": 36,
      "vel": 90,
      "dur": 25
    },
    {
      "t": 920.3,
      "ch": 1,
      "note": 38,
      "vel": 103,
      "dur": 25
    },
    {
      "t": 920.3,
      "ch": 1,
      "note": 40,
      "vel": 65,
      "dur": 25
    },
    {
      "t": 920.3,
      "ch": 1,
      "note": 42,
      "vel": 81,
      "dur": 25
    },
    {
      "t": 920.3,
      "ch": 1,
      "note": 36,
      "vel": 93,
      "dur": 25
    },
    {
      "t": 920.3,
      "ch": 1,
      "note": 38,
      "vel": 103,
      "dur": 25
    },
    {
      "t": 920.3,
      "ch": 1,
      "note": 40,
      "vel": 89,
      "dur": 25
    },
    {
      "t": 920.3,
      "ch": 1,
      "note": 42,
      "vel": 85,
      "dur": 25
    },
    {
      "t": 920.3,
      "ch": 1,
      "note": 36,
      "vel": 86,
      "dur": 25
    },
    {
      "t": 920.3,
      "ch": 1,
      "note": 38,
      "vel": 111,
      "dur": 25
    },
    {
      "t": 920.3,
      "ch": 1,
      "note": 40,
      "vel": 74,
      "dur": 25
    },
    {
      "t": 920.3,
      "ch": 1,
      "note": 42,
      "vel": 65,
      "dur": 25
    },
    {
      "t": 920.3,
      "ch": 1,
      "note": 36,
      "vel": 66,
      "dur": 25
    },
    {
      "t": 920.3,
      "ch": 1,
      "note": 38,
      "vel": 76,
      "dur": 25
    },
    {
      "t": 920.3,
      "ch": 1,
      "note": 40,
      "vel": 94,
      "dur": 25
    },
    {
      "t": 920.3,
      "ch": 1,
      "note": 42,
      "vel": 96,
      "dur": 25
    },
    {
      "t": 920.3,
      "ch": 1,
      "note": 36,
      "vel": 82,
      "dur": 25
    },
    {
      "t": 920.3,
      "ch": 1,
      "note": 38,
      "vel": 67,
      "dur": 25
    },
    {
      "t": 920.3,
      "ch": 1,
      "note": 40,
      "vel": 78,
      "dur": 25
    },
    {
      "t": 920.3,
      "ch": 1,
      "note": 42,
      "vel": 64,
      "dur": 25
    },
    {
      "t": 920.3,
      "ch": 1,
      "note": 36,
      "vel": 87,
      "dur": 25
    },
    {
      "t": 920.3,
      "ch": 1,
      "note": 38,
      "vel": 76,
      "dur": 25
    },
    {
      "t": 920.3,
      "ch": 1,
      "note": 40,
      "vel": 89,
      "dur": 25
    },
    {
      "t": 920.3,
      "ch": 1,
      "note": 42,
      "vel": 70,
      "dur": 25
    },
    {
      "t": 920.3,
      "ch": 1,
      "note": 36,
      "vel": 80,
      "dur": 25
    },
    {
      "t": 920.3,
      "ch": 1,
      "note": 38,
      "vel": 97,
      "dur": 25
    },
    {
      "t": 920.3,
      "ch": 1,
      "note": 40,
      "vel": 89,
      "dur": 25
    },
    {
      "t": 920.3,
      "ch": 1,
      "note": 42,
      "vel": 84,
      "dur": 25
    },
    {
      "t": 920.3,
      "ch": 1,
      "note": 36,
      "vel": 53,
      "dur": 25
    },
    {
      "t": 920.3,
      "ch": 1,
      "note": 38,
      "vel": 87,
      "dur": 25
    },
    {
      "t": 920.3,
      "ch": 1,
      "note": 40,
      "vel": 76,
      "dur": 25
    },
    {
      "t": 920.3,
      "ch": 1,
      "note": 42,
      "vel": 67,
      "dur": 25
    },
    {
      "t": 920.3,
      "ch": 1,
      "note": 36,
      "vel": 94,
      "dur": 25
    },
    {
      "t": 920.3,
      "ch": 1,
      "note": 38,
      "vel": 86,
      "dur": 25
    },
    {
      "t": 920.3,
      "ch": 1,
      "note": 40,
      "vel": 93,
      "dur": 25
    },
    {
      "t": 920.3,
      "ch": 1,
      "note": 42,
      "vel": 72,
      "dur": 25
    },
    {
      "t": 920.3,
      "ch": 1,
      "note": 36,
      "vel": 99,
      "dur": 25
    },
    {
      "t": 920.3,
      "ch": 1,
      "note": 38,
      "vel": 102,
      "dur": 25
    },
    {
      "t": 920.3,
      "ch": 1,
      "note": 40,
      "vel": 84,
      "dur": 25
    },
    {
      "t": 920.3,
      "ch": 1,
      "note": 42,
      "vel": 102,
      "dur": 25
    },
    {
      "t": 920.3,
      "ch": 1,
      "note": 36,
      "vel": 66,
      "dur": 25
    },
    {
      "t": 920.3,
      "ch": 1,
      "note": 38,
      "vel": 102,
      "dur": 25
    },
    {
      "t": 920.3,
      "ch": 1,
      "note": 40,
      "vel": 72,
      "dur": 25
    },
    {
      "t": 920.3,
      "ch": 1,
      "note": 42,
      "vel": 98,
      "dur": 25
    },
    {
      "t": 920.3,
      "ch": 1,
      "note": 36,
      "vel": 88,
      "dur": 25
    },
    {
      "t": 920.3,
      "ch": 1,
      "note": 38,
      "vel": 85,
      "dur": 25
    },
    {
      "t": 920.3,
      "ch": 1,
      "note": 40,
      "vel": 75,
      "dur": 25
    },
    {
      "t": 920.3,
      "ch": 1,
      "note": 42,
      "vel": 70,
      "dur": 25
    },
    {
      "t": 920.3,
      "ch": 1,
      "note": 36,
      "vel": 91,
      "dur": 25
    },
    {
      "t": 920.3,
      "ch": 1,
      "note": 38,
      "vel": 81,
      "dur": 25
    },
    {
      "t": 920.3,
      "ch": 1,
      "note": 40,
      "vel": 62,
      "dur": 25
    },
    {
      "t": 920.3,
      "ch": 1,
      "note": 42,
      "vel": 55,
      "dur": 25
    },
    {
      "t": 920.3,
      "ch": 1,
      "note": 36,
      "vel": 72,
      "dur": 25
    },
    {
      "t": 920.3,
      "ch": 1,
      "note": 38,
      "vel": 74,
      "dur": 25
    },
    {
      "t": 920.3,
      "ch": 1,
      "note": 40,
      "vel": 86,
      "dur": 25
    },
    {
      "t": 920.3,
      "ch": 1,
      "note": 42,
      "vel": 82,
      "dur": 25
    },
    {
      "t": 920.3,
      "ch": 1,
      "note": 36,
      "vel": 109,
      "dur": 25
    },
    {
      "t": 920.3,
      "ch": 1,
      "note": 38,
      "vel": 80,
      "dur": 25
    },
    {
      "t": 920.3,
      "ch": 1,
      "note": 40,
      "vel": 97,
      "dur": 25
    },
    {
      "t": 920.3,
      "ch": 1,
      "note": 42,
      "vel": 54,
      "dur": 25
    },
    {
      "t": 920.3,
      "ch": 1,
      "note": 36,
      "vel": 90,
      "dur": 25
    },
    {
      "t": 920.3,
      "ch": 1,
      "note": 38,
      "vel": 93,
      "dur": 25
    },
    {
      "t": 920.3,
      "ch": 1,
      "note": 40,
      "vel": 102,
      "dur": 25
    },
    {
      "t": 920.3,
      "ch": 1,
      "note": 42,
      "vel": 81,
      "dur": 25
    },
    {
      "t": 920.3,
      "ch": 1,
      "note": 36,
      "vel": 77,
      "dur": 25
    },
    {
      "t": 920.3,
      "ch": 1,
      "note": 38,
      "vel": 93,
      "dur": 25
    },
    {
      "t": 920.3,
      "ch": 1,
      "note": 40,
      "vel": 73,
      "dur": 25
    },
    {
      "t": 920.3,
      "ch": 1,
      "note": 42,
      "vel": 91,
      "dur": 25
    },
    {
      "t": 920.3,
      "ch": 1,
      "note": 36,
      "vel": 55,
      "dur": 25
    },
    {
      "t": 920.3,
      "ch": 1,
      "note": 38,
      "vel": 96,
      "dur": 25
    },
    {
      "t": 920.3,
      "ch": 1,
      "note": 40,
      "vel": 90,
      "dur": 25
    },
    {
      "t": 920.3,
      "ch": 1,
      "note": 42,
      "vel": 74,
      "dur": 25
    },
    {
      "t": 920.3,
      "ch": 1,
      "note": 36,
      "vel": 80,
      "dur": 25
    },
    {
      "t": 920.3,
      "ch": 1,
      "note": 38,
      "vel": 100,
      "dur": 25
    },
    {
      "t": 920.3,
      "ch": 1,
      "note": 40,
      "vel": 86,
      "dur": 25
    },
    {
      "t": 920.3,
      "ch": 1,
      "note": 42,
      "vel": 87,
      "dur": 25
    },
    {
      "t": 920.3,
      "ch": 1,
      "note": 36,
      "vel": 82,
      "dur": 25
    },
    {
      "t": 920.3,
      "ch": 1,
      "note": 38,
      "vel": 78,
      "dur": 25
    },
    {
      "t": 920.3,
      "ch": 1,
      "note": 40,
      "vel": 84,
      "dur": 25
    },
    {
      "t": 920.3,
      "ch": 1,
      "note": 42,
      "vel": 72,
      "dur": 25
    },
    {
      "t": 920.3,
      "ch": 1,
      "note": 36,
      "vel": 76,
      "dur": 25
    },
    {
      "t": 920.3,
      "ch": 1,
      "note": 38,
      "vel": 77,
      "dur": 25
    },
    {
      "t": 920.3,
      "ch": 1,
      "note": 40,
      "vel": 79,
      "dur": 25
    },
    {
      "t": 920.3,
      "ch": 1,
      "note": 42,
      "vel": 73,
      "dur": 25
    },
    {
      "t": 920.3,
      "ch": 1,
      "note": 36,
      "vel": 67,
      "dur": 25
    },
    {
      "t": 920.3,
      "ch": 1,
      "note": 38,
      "vel": 55,
      "dur": 25
    },
    {
      "t": 920.3,
      "ch": 1,
      "note": 40,
      "vel": 94,
      "dur": 25
    },
    {
      "t": 920.3,
      "ch": 1,
      "note": 42,
      "vel": 94,
      "dur": 25
    },
    {
      "t": 920.3,
      "ch": 7,
      "note": 48,
      "vel": 68,
      "dur": 80
    },
    {
      "t": 920.3,
      "ch": 7,
      "note": 45,
      "vel": 74,
      "dur": 80
    },
    {
      "t": 920.3,
      "ch": 7,
      "note": 36,
      "vel": 65,
      "dur": 80
    },
    {
      "t": 920.3,
      "ch": 7,
      "note": 38,
      "vel": 68,
      "dur": 80
    },
    {
      "t": 920.4,
      "ch": 1,
      "note": 36,
      "vel": 82,
      "dur": 25
    },
    {
      "t": 920.4,
      "ch": 1,
      "note": 38,
      "vel": 92,
      "dur": 25
    },
    {
      "t": 920.6,
      "ch": 1,
      "note": 40,
      "vel": 48,
      "dur": 25
    },
    {
      "t": 920.6,
      "ch": 1,
      "note": 42,
      "vel": 77,
      "dur": 25
    },
    {
      "t": 920.6,
      "ch": 7,
      "note": 36,
      "vel": 51,
      "dur": 80
    },
    {
      "t": 920.8,
      "ch": 1,
      "note": 36,
      "vel": 81,
      "dur": 25
    },
    {
      "t": 920.8,
      "ch": 1,
      "note": 38,
      "vel": 69,
      "dur": 25
    },
    {
      "t": 921,
      "ch": 1,
      "note": 40,
      "vel": 63,
      "dur": 25
    },
    {
      "t": 921,
      "ch": 1,
      "note": 42,
      "vel": 99,
      "dur": 25
    },
    {
      "t": 921,
      "ch": 7,
      "note": 48,
      "vel": 61,
      "dur": 80
    },
    {
      "t": 921,
      "ch": 7,
      "note": 36,
      "vel": 78,
      "dur": 80
    },
    {
      "t": 921.1,
      "ch": 1,
      "note": 36,
      "vel": 81,
      "dur": 25
    },
    {
      "t": 921.1,
      "ch": 1,
      "note": 38,
      "vel": 98,
      "dur": 25
    },
    {
      "t": 921.2,
      "ch": 7,
      "note": 45,
      "vel": 60,
      "dur": 80
    },
    {
      "t": 921.2,
      "ch": 7,
      "note": 38,
      "vel": 72,
      "dur": 80
    },
    {
      "t": 921.3,
      "ch": 1,
      "note": 40,
      "vel": 66,
      "dur": 25
    },
    {
      "t": 921.3,
      "ch": 1,
      "note": 42,
      "vel": 86,
      "dur": 25
    },
    {
      "t": 921.5,
      "ch": 1,
      "note": 36,
      "vel": 76,
      "dur": 25
    },
    {
      "t": 921.5,
      "ch": 1,
      "note": 38,
      "vel": 81,
      "dur": 25
    },
    {
      "t": 921.6,
      "ch": 1,
      "note": 40,
      "vel": 60,
      "dur": 25
    },
    {
      "t": 921.7,
      "ch": 0,
      "note": 36,
      "vel": 99,
      "dur": 55
    },
    {
      "t": 921.7,
      "ch": 1,
      "note": 42,
      "vel": 90,
      "dur": 25
    },
    {
      "t": 921.7,
      "ch": 7,
      "note": 48,
      "vel": 63,
      "dur": 80
    },
    {
      "t": 921.7,
      "ch": 7,
      "note": 36,
      "vel": 59,
      "dur": 80
    },
    {
      "t": 921.8,
      "ch": 1,
      "note": 36,
      "vel": 86,
      "dur": 25
    },
    {
      "t": 921.8,
      "ch": 1,
      "note": 38,
      "vel": 89,
      "dur": 25
    },
    {
      "t": 921.9,
      "ch": 5,
      "note": 66,
      "vel": 25,
      "dur": 969
    },
    {
      "t": 922,
      "ch": 1,
      "note": 40,
      "vel": 76,
      "dur": 25
    },
    {
      "t": 922,
      "ch": 1,
      "note": 42,
      "vel": 71,
      "dur": 25
    },
    {
      "t": 922,
      "ch": 7,
      "note": 45,
      "vel": 69,
      "dur": 80
    },
    {
      "t": 922,
      "ch": 7,
      "note": 36,
      "vel": 56,
      "dur": 80
    },
    {
      "t": 922,
      "ch": 7,
      "note": 38,
      "vel": 63,
      "dur": 80
    },
    {
      "t": 922.2,
      "ch": 1,
      "note": 36,
      "vel": 59,
      "dur": 25
    },
    {
      "t": 922.2,
      "ch": 1,
      "note": 38,
      "vel": 63,
      "dur": 25
    },
    {
      "t": 922.3,
      "ch": 1,
      "note": 40,
      "vel": 76,
      "dur": 25
    },
    {
      "t": 922.4,
      "ch": 1,
      "note": 42,
      "vel": 63,
      "dur": 25
    },
    {
      "t": 922.4,
      "ch": 7,
      "note": 48,
      "vel": 66,
      "dur": 80
    },
    {
      "t": 922.4,
      "ch": 7,
      "note": 36,
      "vel": 74,
      "dur": 80
    },
    {
      "t": 922.5,
      "ch": 1,
      "note": 36,
      "vel": 96,
      "dur": 25
    },
    {
      "t": 922.5,
      "ch": 1,
      "note": 38,
      "vel": 71,
      "dur": 25
    },
    {
      "t": 922.7,
      "ch": 1,
      "note": 40,
      "vel": 58,
      "dur": 25
    },
    {
      "t": 922.7,
      "ch": 1,
      "note": 42,
      "vel": 79,
      "dur": 25
    },
    {
      "t": 922.7,
      "ch": 0,
      "note": 36,
      "vel": 82,
      "dur": 55
    },
    {
      "t": 922.9,
      "ch": 1,
      "note": 36,
      "vel": 91,
      "dur": 25
    },
    {
      "t": 922.9,
      "ch": 1,
      "note": 38,
      "vel": 93,
      "dur": 25
    },
    {
      "t": 923,
      "ch": 1,
      "note": 40,
      "vel": 68,
      "dur": 25
    },
    {
      "t": 923.1,
      "ch": 0,
      "note": 36,
      "vel": 115,
      "dur": 55
    },
    {
      "t": 923.1,
      "ch": 1,
      "note": 42,
      "vel": 108,
      "dur": 25
    },
    {
      "t": 923.1,
      "ch": 7,
      "note": 48,
      "vel": 68,
      "dur": 80
    },
    {
      "t": 923.1,
      "ch": 7,
      "note": 45,
      "vel": 67,
      "dur": 80
    },
    {
      "t": 923.1,
      "ch": 7,
      "note": 36,
      "vel": 60,
      "dur": 80
    },
    {
      "t": 923.1,
      "ch": 7,
      "note": 38,
      "vel": 70,
      "dur": 80
    },
    {
      "t": 923.2,
      "ch": 1,
      "note": 36,
      "vel": 77,
      "dur": 25
    },
    {
      "t": 923.2,
      "ch": 1,
      "note": 38,
      "vel": 85,
      "dur": 25
    },
    {
      "t": 923.4,
      "ch": 1,
      "note": 40,
      "vel": 71,
      "dur": 25
    },
    {
      "t": 923.4,
      "ch": 1,
      "note": 42,
      "vel": 89,
      "dur": 25
    },
    {
      "t": 923.4,
      "ch": 7,
      "note": 36,
      "vel": 59,
      "dur": 80
    },
    {
      "t": 923.6,
      "ch": 1,
      "note": 36,
      "vel": 78,
      "dur": 25
    },
    {
      "t": 923.6,
      "ch": 1,
      "note": 38,
      "vel": 65,
      "dur": 25
    },
    {
      "t": 923.7,
      "ch": 1,
      "note": 40,
      "vel": 67,
      "dur": 25
    },
    {
      "t": 923.7,
      "ch": 1,
      "note": 42,
      "vel": 69,
      "dur": 25
    },
    {
      "t": 923.7,
      "ch": 7,
      "note": 48,
      "vel": 73,
      "dur": 80
    },
    {
      "t": 923.7,
      "ch": 7,
      "note": 36,
      "vel": 73,
      "dur": 80
    },
    {
      "t": 923.9,
      "ch": 1,
      "note": 36,
      "vel": 92,
      "dur": 25
    },
    {
      "t": 923.9,
      "ch": 1,
      "note": 38,
      "vel": 94,
      "dur": 25
    },
    {
      "t": 923.9,
      "ch": 7,
      "note": 45,
      "vel": 50,
      "dur": 80
    },
    {
      "t": 923.9,
      "ch": 7,
      "note": 38,
      "vel": 74,
      "dur": 80
    },
    {
      "t": 924.1,
      "ch": 1,
      "note": 40,
      "vel": 81,
      "dur": 25
    },
    {
      "t": 924.1,
      "ch": 1,
      "note": 42,
      "vel": 84,
      "dur": 25
    },
    {
      "t": 924.3,
      "ch": 1,
      "note": 36,
      "vel": 63,
      "dur": 25
    },
    {
      "t": 924.3,
      "ch": 1,
      "note": 38,
      "vel": 71,
      "dur": 25
    },
    {
      "t": 924.4,
      "ch": 1,
      "note": 40,
      "vel": 58,
      "dur": 25
    },
    {
      "t": 924.5,
      "ch": 0,
      "note": 36,
      "vel": 95,
      "dur": 55
    },
    {
      "t": 924.5,
      "ch": 1,
      "note": 42,
      "vel": 93,
      "dur": 25
    },
    {
      "t": 924.5,
      "ch": 7,
      "note": 48,
      "vel": 75,
      "dur": 80
    },
    {
      "t": 924.5,
      "ch": 7,
      "note": 36,
      "vel": 56,
      "dur": 80
    },
    {
      "t": 924.5,
      "ch": 6,
      "note": 70,
      "vel": 9,
      "dur": 647
    },
    {
      "t": 924.6,
      "ch": 1,
      "note": 36,
      "vel": 73,
      "dur": 25
    },
    {
      "t": 924.6,
      "ch": 1,
      "note": 38,
      "vel": 68,
      "dur": 25
    },
    {
      "t": 924.8,
      "ch": 1,
      "note": 40,
      "vel": 77,
      "dur": 25
    },
    {
      "t": 924.8,
      "ch": 1,
      "note": 42,
      "vel": 70,
      "dur": 25
    },
    {
      "t": 924.8,
      "ch": 7,
      "note": 45,
      "vel": 56,
      "dur": 80
    },
    {
      "t": 924.8,
      "ch": 7,
      "note": 36,
      "vel": 65,
      "dur": 80
    },
    {
      "t": 924.8,
      "ch": 7,
      "note": 38,
      "vel": 68,
      "dur": 80
    },
    {
      "t": 925,
      "ch": 1,
      "note": 36,
      "vel": 57,
      "dur": 25
    },
    {
      "t": 925,
      "ch": 1,
      "note": 38,
      "vel": 66,
      "dur": 25
    },
    {
      "t": 925,
      "ch": 6,
      "note": 73,
      "vel": 17,
      "dur": 647
    },
    {
      "t": 925.1,
      "ch": 1,
      "note": 40,
      "vel": 55,
      "dur": 25
    },
    {
      "t": 925.1,
      "ch": 1,
      "note": 42,
      "vel": 107,
      "dur": 25
    },
    {
      "t": 925.1,
      "ch": 7,
      "note": 48,
      "vel": 63,
      "dur": 80
    },
    {
      "t": 925.1,
      "ch": 7,
      "note": 36,
      "vel": 54,
      "dur": 80
    },
    {
      "t": 925.3,
      "ch": 1,
      "note": 36,
      "vel": 77,
      "dur": 25
    },
    {
      "t": 925.3,
      "ch": 1,
      "note": 38,
      "vel": 63,
      "dur": 25
    },
    {
      "t": 925.5,
      "ch": 1,
      "note": 40,
      "vel": 84,
      "dur": 25
    },
    {
      "t": 925.5,
      "ch": 1,
      "note": 42,
      "vel": 55,
      "dur": 25
    },
    {
      "t": 925.5,
      "ch": 0,
      "note": 36,
      "vel": 78,
      "dur": 55
    },
    {
      "t": 925.7,
      "ch": 1,
      "note": 36,
      "vel": 93,
      "dur": 25
    },
    {
      "t": 925.7,
      "ch": 1,
      "note": 38,
      "vel": 68,
      "dur": 25
    },
    {
      "t": 925.7,
      "ch": 5,
      "note": 66,
      "vel": 10,
      "dur": 969
    },
    {
      "t": 925.8,
      "ch": 1,
      "note": 40,
      "vel": 63,
      "dur": 25
    },
    {
      "t": 925.8,
      "ch": 1,
      "note": 42,
      "vel": 74,
      "dur": 25
    },
    {
      "t": 925.8,
      "ch": 7,
      "note": 48,
      "vel": 72,
      "dur": 80
    },
    {
      "t": 925.8,
      "ch": 7,
      "note": 45,
      "vel": 73,
      "dur": 80
    },
    {
      "t": 925.8,
      "ch": 7,
      "note": 36,
      "vel": 65,
      "dur": 80
    },
    {
      "t": 925.8,
      "ch": 7,
      "note": 38,
      "vel": 71,
      "dur": 80
    },
    {
      "t": 926,
      "ch": 1,
      "note": 36,
      "vel": 74,
      "dur": 25
    },
    {
      "t": 926,
      "ch": 1,
      "note": 38,
      "vel": 51,
      "dur": 25
    },
    {
      "t": 926.2,
      "ch": 1,
      "note": 40,
      "vel": 88,
      "dur": 25
    },
    {
      "t": 926.2,
      "ch": 1,
      "note": 42,
      "vel": 69,
      "dur": 25
    },
    {
      "t": 926.2,
      "ch": 7,
      "note": 36,
      "vel": 59,
      "dur": 80
    },
    {
      "t": 926.4,
      "ch": 1,
      "note": 36,
      "vel": 58,
      "dur": 25
    },
    {
      "t": 926.4,
      "ch": 1,
      "note": 38,
      "vel": 86,
      "dur": 25
    },
    {
      "t": 926.5,
      "ch": 1,
      "note": 40,
      "vel": 81,
      "dur": 25
    },
    {
      "t": 926.5,
      "ch": 1,
      "note": 42,
      "vel": 87,
      "dur": 25
    },
    {
      "t": 926.5,
      "ch": 7,
      "note": 48,
      "vel": 68,
      "dur": 80
    },
    {
      "t": 926.5,
      "ch": 7,
      "note": 36,
      "vel": 76,
      "dur": 80
    },
    {
      "t": 926.7,
      "ch": 1,
      "note": 36,
      "vel": 77,
      "dur": 25
    },
    {
      "t": 926.7,
      "ch": 1,
      "note": 38,
      "vel": 89,
      "dur": 25
    },
    {
      "t": 926.7,
      "ch": 7,
      "note": 45,
      "vel": 50,
      "dur": 80
    },
    {
      "t": 926.7,
      "ch": 7,
      "note": 38,
      "vel": 68,
      "dur": 80
    },
    {
      "t": 926.9,
      "ch": 1,
      "note": 40,
      "vel": 75,
      "dur": 25
    },
    {
      "t": 926.9,
      "ch": 1,
      "note": 42,
      "vel": 75,
      "dur": 25
    },
    {
      "t": 927.1,
      "ch": 1,
      "note": 36,
      "vel": 63,
      "dur": 25
    },
    {
      "t": 927.1,
      "ch": 1,
      "note": 38,
      "vel": 72,
      "dur": 25
    },
    {
      "t": 927.1,
      "ch": 6,
      "note": 70,
      "vel": 1,
      "dur": 644
    },
    {
      "t": 927.2,
      "ch": 2,
      "note": 58,
      "vel": 56,
      "dur": 20930
    },
    {
      "t": 927.2,
      "ch": 1,
      "note": 40,
      "vel": 71,
      "dur": 25
    },
    {
      "t": 927.2,
      "ch": 1,
      "note": 42,
      "vel": 86,
      "dur": 25
    },
    {
      "t": 927.2,
      "ch": 7,
      "note": 48,
      "vel": 69,
      "dur": 80
    },
    {
      "t": 927.2,
      "ch": 7,
      "note": 36,
      "vel": 58,
      "dur": 80
    },
    {
      "t": 927.4,
      "ch": 1,
      "note": 36,
      "vel": 97,
      "dur": 25
    },
    {
      "t": 927.4,
      "ch": 1,
      "note": 38,
      "vel": 74,
      "dur": 25
    },
    {
      "t": 927.6,
      "ch": 1,
      "note": 40,
      "vel": 89,
      "dur": 25
    },
    {
      "t": 927.6,
      "ch": 1,
      "note": 42,
      "vel": 89,
      "dur": 25
    },
    {
      "t": 927.6,
      "ch": 7,
      "note": 45,
      "vel": 62,
      "dur": 80
    },
    {
      "t": 927.6,
      "ch": 7,
      "note": 36,
      "vel": 63,
      "dur": 80
    },
    {
      "t": 927.6,
      "ch": 7,
      "note": 38,
      "vel": 63,
      "dur": 80
    },
    {
      "t": 927.8,
      "ch": 1,
      "note": 36,
      "vel": 91,
      "dur": 25
    },
    {
      "t": 927.8,
      "ch": 1,
      "note": 38,
      "vel": 65,
      "dur": 25
    },
    {
      "t": 927.9,
      "ch": 1,
      "note": 40,
      "vel": 84,
      "dur": 25
    },
    {
      "t": 927.9,
      "ch": 1,
      "note": 42,
      "vel": 91,
      "dur": 25
    },
    {
      "t": 927.9,
      "ch": 7,
      "note": 48,
      "vel": 80,
      "dur": 80
    },
    {
      "t": 927.9,
      "ch": 7,
      "note": 36,
      "vel": 78,
      "dur": 80
    },
    {
      "t": 928.1,
      "ch": 1,
      "note": 36,
      "vel": 62,
      "dur": 25
    },
    {
      "t": 928.1,
      "ch": 1,
      "note": 38,
      "vel": 59,
      "dur": 25
    },
    {
      "t": 928.3,
      "ch": 1,
      "note": 40,
      "vel": 70,
      "dur": 25
    },
    {
      "t": 928.3,
      "ch": 1,
      "note": 42,
      "vel": 72,
      "dur": 25
    },
    {
      "t": 928.4,
      "ch": 1,
      "note": 36,
      "vel": 86,
      "dur": 25
    },
    {
      "t": 928.5,
      "ch": 1,
      "note": 38,
      "vel": 70,
      "dur": 25
    },
    {
      "t": 928.6,
      "ch": 1,
      "note": 40,
      "vel": 70,
      "dur": 25
    },
    {
      "t": 928.6,
      "ch": 0,
      "note": 36,
      "vel": 115,
      "dur": 55
    },
    {
      "t": 928.6,
      "ch": 1,
      "note": 42,
      "vel": 80,
      "dur": 25
    },
    {
      "t": 928.6,
      "ch": 7,
      "note": 48,
      "vel": 73,
      "dur": 80
    },
    {
      "t": 928.6,
      "ch": 7,
      "note": 45,
      "vel": 64,
      "dur": 80
    },
    {
      "t": 928.6,
      "ch": 7,
      "note": 36,
      "vel": 75,
      "dur": 80
    },
    {
      "t": 928.6,
      "ch": 7,
      "note": 38,
      "vel": 77,
      "dur": 80
    },
    {
      "t": 928.7,
      "ch": 6,
      "note": 58,
      "vel": 21,
      "dur": 641
    },
    {
      "t": 928.8,
      "ch": 1,
      "note": 36,
      "vel": 115,
      "dur": 25
    },
    {
      "t": 928.8,
      "ch": 1,
      "note": 38,
      "vel": 69,
      "dur": 25
    },
    {
      "t": 928.8,
      "ch": 5,
      "note": 66,
      "vel": 11,
      "dur": 961
    },
    {
      "t": 929,
      "ch": 1,
      "note": 40,
      "vel": 70,
      "dur": 25
    },
    {
      "t": 929,
      "ch": 1,
      "note": 42,
      "vel": 80,
      "dur": 25
    },
    {
      "t": 929,
      "ch": 7,
      "note": 36,
      "vel": 63,
      "dur": 80
    },
    {
      "t": 929.1,
      "ch": 1,
      "note": 36,
      "vel": 87,
      "dur": 25
    },
    {
      "t": 929.2,
      "ch": 1,
      "note": 38,
      "vel": 53,
      "dur": 25
    },
    {
      "t": 929.2,
      "ch": 5,
      "note": 66,
      "vel": 8,
      "dur": 961
    },
    {
      "t": 929.3,
      "ch": 1,
      "note": 40,
      "vel": 103,
      "dur": 25
    },
    {
      "t": 929.3,
      "ch": 1,
      "note": 42,
      "vel": 72,
      "dur": 25
    },
    {
      "t": 929.3,
      "ch": 7,
      "note": 48,
      "vel": 61,
      "dur": 80
    },
    {
      "t": 929.3,
      "ch": 7,
      "note": 36,
      "vel": 67,
      "dur": 80
    },
    {
      "t": 929.5,
      "ch": 6,
      "note": 71,
      "vel": 14,
      "dur": 400
    },
    {
      "t": 929.5,
      "ch": 1,
      "note": 36,
      "vel": 63,
      "dur": 25
    },
    {
      "t": 929.5,
      "ch": 1,
      "note": 38,
      "vel": 75,
      "dur": 25
    },
    {
      "t": 929.5,
      "ch": 7,
      "note": 45,
      "vel": 55,
      "dur": 80
    },
    {
      "t": 929.5,
      "ch": 7,
      "note": 38,
      "vel": 51,
      "dur": 80
    },
    {
      "t": 929.7,
      "ch": 1,
      "note": 40,
      "vel": 82,
      "dur": 25
    },
    {
      "t": 929.7,
      "ch": 1,
      "note": 42,
      "vel": 62,
      "dur": 25
    },
    {
      "t": 929.7,
      "ch": 0,
      "note": 36,
      "vel": 85,
      "dur": 55
    },
    {
      "t": 929.8,
      "ch": 1,
      "note": 36,
      "vel": 90,
      "dur": 25
    },
    {
      "t": 929.9,
      "ch": 1,
      "note": 38,
      "vel": 86,
      "dur": 25
    },
    {
      "t": 930,
      "ch": 1,
      "note": 40,
      "vel": 74,
      "dur": 25
    },
    {
      "t": 930,
      "ch": 1,
      "note": 42,
      "vel": 74,
      "dur": 25
    },
    {
      "t": 930,
      "ch": 7,
      "note": 48,
      "vel": 60,
      "dur": 80
    },
    {
      "t": 930,
      "ch": 7,
      "note": 36,
      "vel": 70,
      "dur": 80
    },
    {
      "t": 930,
      "ch": 6,
      "note": 70,
      "vel": 15,
      "dur": 640
    },
    {
      "t": 930.2,
      "ch": 1,
      "note": 36,
      "vel": 99,
      "dur": 25
    },
    {
      "t": 930.2,
      "ch": 1,
      "note": 38,
      "vel": 71,
      "dur": 25
    },
    {
      "t": 930.4,
      "ch": 1,
      "note": 40,
      "vel": 70,
      "dur": 25
    },
    {
      "t": 930.4,
      "ch": 1,
      "note": 42,
      "vel": 63,
      "dur": 25
    },
    {
      "t": 930.4,
      "ch": 7,
      "note": 45,
      "vel": 52,
      "dur": 80
    },
    {
      "t": 930.4,
      "ch": 7,
      "note": 36,
      "vel": 69,
      "dur": 80
    },
    {
      "t": 930.4,
      "ch": 7,
      "note": 38,
      "vel": 54,
      "dur": 80
    },
    {
      "t": 930.5,
      "ch": 1,
      "note": 36,
      "vel": 89,
      "dur": 25
    },
    {
      "t": 930.6,
      "ch": 1,
      "note": 38,
      "vel": 73,
      "dur": 25
    },
    {
      "t": 930.7,
      "ch": 1,
      "note": 40,
      "vel": 70,
      "dur": 25
    },
    {
      "t": 930.7,
      "ch": 1,
      "note": 42,
      "vel": 83,
      "dur": 25
    },
    {
      "t": 930.7,
      "ch": 7,
      "note": 48,
      "vel": 66,
      "dur": 80
    },
    {
      "t": 930.7,
      "ch": 7,
      "note": 36,
      "vel": 71,
      "dur": 80
    },
    {
      "t": 930.9,
      "ch": 1,
      "note": 36,
      "vel": 89,
      "dur": 25
    },
    {
      "t": 930.9,
      "ch": 1,
      "note": 38,
      "vel": 101,
      "dur": 25
    },
    {
      "t": 931.4,
      "ch": 7,
      "note": 48,
      "vel": 76,
      "dur": 80
    },
    {
      "t": 931.4,
      "ch": 7,
      "note": 45,
      "vel": 74,
      "dur": 80
    },
    {
      "t": 931.4,
      "ch": 7,
      "note": 36,
      "vel": 67,
      "dur": 80
    },
    {
      "t": 931.4,
      "ch": 7,
      "note": 38,
      "vel": 69,
      "dur": 80
    },
    {
      "t": 931.8,
      "ch": 7,
      "note": 36,
      "vel": 51,
      "dur": 80
    },
    {
      "t": 932.1,
      "ch": 7,
      "note": 48,
      "vel": 79,
      "dur": 80
    },
    {
      "t": 932.1,
      "ch": 7,
      "note": 36,
      "vel": 77,
      "dur": 80
    },
    {
      "t": 932.3,
      "ch": 7,
      "note": 45,
      "vel": 68,
      "dur": 80
    },
    {
      "t": 932.3,
      "ch": 7,
      "note": 38,
      "vel": 57,
      "dur": 80
    },
    {
      "t": 932.8,
      "ch": 7,
      "note": 48,
      "vel": 63,
      "dur": 80
    },
    {
      "t": 932.8,
      "ch": 7,
      "note": 36,
      "vel": 60,
      "dur": 80
    },
    {
      "t": 933.2,
      "ch": 7,
      "note": 45,
      "vel": 66,
      "dur": 80
    },
    {
      "t": 933.2,
      "ch": 7,
      "note": 36,
      "vel": 64,
      "dur": 80
    },
    {
      "t": 933.2,
      "ch": 7,
      "note": 38,
      "vel": 65,
      "dur": 80
    },
    {
      "t": 933.5,
      "ch": 7,
      "note": 48,
      "vel": 68,
      "dur": 80
    },
    {
      "t": 933.5,
      "ch": 7,
      "note": 36,
      "vel": 65,
      "dur": 80
    },
    {
      "t": 934.2,
      "ch": 7,
      "note": 48,
      "vel": 67,
      "dur": 80
    },
    {
      "t": 934.2,
      "ch": 7,
      "note": 45,
      "vel": 64,
      "dur": 80
    },
    {
      "t": 934.2,
      "ch": 7,
      "note": 36,
      "vel": 84,
      "dur": 80
    },
    {
      "t": 934.2,
      "ch": 7,
      "note": 38,
      "vel": 72,
      "dur": 80
    },
    {
      "t": 934.6,
      "ch": 7,
      "note": 36,
      "vel": 56,
      "dur": 80
    },
    {
      "t": 934.6,
      "ch": 5,
      "note": 82,
      "vel": 10,
      "dur": 974
    },
    {
      "t": 934.9,
      "ch": 7,
      "note": 48,
      "vel": 77,
      "dur": 80
    },
    {
      "t": 934.9,
      "ch": 7,
      "note": 36,
      "vel": 67,
      "dur": 80
    },
    {
      "t": 935.1,
      "ch": 7,
      "note": 45,
      "vel": 64,
      "dur": 80
    },
    {
      "t": 935.5,
      "ch": 4,
      "note": 63,
      "vel": 38,
      "dur": 5531
    },
    {
      "t": 935.5,
      "ch": 4,
      "note": 65,
      "vel": 38,
      "dur": 5531
    },
    {
      "t": 935.5,
      "ch": 3,
      "note": 41,
      "vel": 40,
      "dur": 5581
    },
    {
      "t": 935.6,
      "ch": 7,
      "note": 48,
      "vel": 80,
      "dur": 80
    },
    {
      "t": 935.6,
      "ch": 7,
      "note": 36,
      "vel": 63,
      "dur": 80
    },
    {
      "t": 936,
      "ch": 7,
      "note": 45,
      "vel": 54,
      "dur": 80
    },
    {
      "t": 936,
      "ch": 7,
      "note": 36,
      "vel": 47,
      "dur": 80
    },
    {
      "t": 936.3,
      "ch": 7,
      "note": 48,
      "vel": 72,
      "dur": 80
    },
    {
      "t": 936.3,
      "ch": 7,
      "note": 36,
      "vel": 64,
      "dur": 80
    },
    {
      "t": 937,
      "ch": 7,
      "note": 48,
      "vel": 81,
      "dur": 80
    },
    {
      "t": 937,
      "ch": 7,
      "note": 45,
      "vel": 68,
      "dur": 80
    },
    {
      "t": 937,
      "ch": 7,
      "note": 36,
      "vel": 72,
      "dur": 80
    },
    {
      "t": 937.4,
      "ch": 7,
      "note": 36,
      "vel": 58,
      "dur": 80
    },
    {
      "t": 937.7,
      "ch": 7,
      "note": 48,
      "vel": 72,
      "dur": 80
    },
    {
      "t": 937.7,
      "ch": 7,
      "note": 36,
      "vel": 67,
      "dur": 80
    },
    {
      "t": 937.9,
      "ch": 7,
      "note": 45,
      "vel": 78,
      "dur": 80
    },
    {
      "t": 938.4,
      "ch": 7,
      "note": 48,
      "vel": 73,
      "dur": 80
    },
    {
      "t": 938.4,
      "ch": 7,
      "note": 36,
      "vel": 57,
      "dur": 80
    },
    {
      "t": 938.8,
      "ch": 7,
      "note": 45,
      "vel": 68,
      "dur": 80
    },
    {
      "t": 938.8,
      "ch": 7,
      "note": 36,
      "vel": 56,
      "dur": 80
    },
    {
      "t": 939.1,
      "ch": 7,
      "note": 48,
      "vel": 70,
      "dur": 80
    },
    {
      "t": 939.1,
      "ch": 7,
      "note": 36,
      "vel": 60,
      "dur": 80
    },
    {
      "t": 939.8,
      "ch": 0,
      "note": 36,
      "vel": 107,
      "dur": 55
    },
    {
      "t": 939.8,
      "ch": 7,
      "note": 48,
      "vel": 67,
      "dur": 80
    },
    {
      "t": 939.8,
      "ch": 7,
      "note": 45,
      "vel": 63,
      "dur": 80
    },
    {
      "t": 939.8,
      "ch": 7,
      "note": 36,
      "vel": 69,
      "dur": 80
    },
    {
      "t": 940.2,
      "ch": 7,
      "note": 36,
      "vel": 63,
      "dur": 80
    },
    {
      "t": 940.5,
      "ch": 7,
      "note": 48,
      "vel": 80,
      "dur": 80
    },
    {
      "t": 940.5,
      "ch": 7,
      "note": 36,
      "vel": 68,
      "dur": 80
    },
    {
      "t": 940.7,
      "ch": 7,
      "note": 45,
      "vel": 56,
      "dur": 80
    },
    {
      "t": 941.1,
      "ch": 4,
      "note": 64,
      "vel": 24,
      "dur": 2790
    },
    {
      "t": 941.1,
      "ch": 4,
      "note": 63,
      "vel": 26,
      "dur": 2740
    },
    {
      "t": 941.1,
      "ch": 4,
      "note": 66,
      "vel": 26,
      "dur": 5531
    },
    {
      "t": 941.1,
      "ch": 3,
      "note": 41,
      "vel": 30,
      "dur": 5581
    },
    {
      "t": 941.2,
      "ch": 0,
      "note": 36,
      "vel": 93,
      "dur": 55
    },
    {
      "t": 941.2,
      "ch": 7,
      "note": 48,
      "vel": 57,
      "dur": 80
    },
    {
      "t": 941.2,
      "ch": 7,
      "note": 36,
      "vel": 70,
      "dur": 80
    },
    {
      "t": 941.6,
      "ch": 7,
      "note": 45,
      "vel": 58,
      "dur": 80
    },
    {
      "t": 941.6,
      "ch": 7,
      "note": 36,
      "vel": 62,
      "dur": 80
    },
    {
      "t": 941.9,
      "ch": 7,
      "note": 48,
      "vel": 73,
      "dur": 80
    },
    {
      "t": 941.9,
      "ch": 7,
      "note": 36,
      "vel": 73,
      "dur": 80
    },
    {
      "t": 942.3,
      "ch": 5,
      "note": 66,
      "vel": 12,
      "dur": 1050
    },
    {
      "t": 942.5,
      "ch": 6,
      "note": 73,
      "vel": 1,
      "dur": 400
    },
    {
      "t": 942.6,
      "ch": 7,
      "note": 48,
      "vel": 77,
      "dur": 80
    },
    {
      "t": 942.6,
      "ch": 7,
      "note": 45,
      "vel": 62,
      "dur": 80
    },
    {
      "t": 942.6,
      "ch": 7,
      "note": 36,
      "vel": 72,
      "dur": 80
    },
    {
      "t": 942.9,
      "ch": 7,
      "note": 36,
      "vel": 64,
      "dur": 80
    },
    {
      "t": 943.3,
      "ch": 7,
      "note": 48,
      "vel": 68,
      "dur": 80
    },
    {
      "t": 943.3,
      "ch": 7,
      "note": 36,
      "vel": 64,
      "dur": 80
    },
    {
      "t": 943.5,
      "ch": 7,
      "note": 45,
      "vel": 56,
      "dur": 80
    },
    {
      "t": 944,
      "ch": 7,
      "note": 48,
      "vel": 63,
      "dur": 80
    },
    {
      "t": 944,
      "ch": 7,
      "note": 36,
      "vel": 74,
      "dur": 80
    },
    {
      "t": 944.3,
      "ch": 7,
      "note": 45,
      "vel": 57,
      "dur": 80
    },
    {
      "t": 944.3,
      "ch": 7,
      "note": 36,
      "vel": 55,
      "dur": 80
    },
    {
      "t": 944.7,
      "ch": 7,
      "note": 48,
      "vel": 69,
      "dur": 80
    },
    {
      "t": 945.4,
      "ch": 7,
      "note": 48,
      "vel": 66,
      "dur": 80
    },
    {
      "t": 945.4,
      "ch": 7,
      "note": 45,
      "vel": 68,
      "dur": 80
    },
    {
      "t": 945.4,
      "ch": 5,
      "note": 78,
      "vel": 18,
      "dur": 1069
    },
    {
      "t": 946.1,
      "ch": 7,
      "note": 48,
      "vel": 74,
      "dur": 80
    },
    {
      "t": 946.1,
      "ch": 5,
      "note": 78,
      "vel": 6,
      "dur": 1072
    },
    {
      "t": 946.3,
      "ch": 7,
      "note": 45,
      "vel": 60,
      "dur": 80
    },
    {
      "t": 946.7,
      "ch": 4,
      "note": 63,
      "vel": 21,
      "dur": 5531
    },
    {
      "t": 946.7,
      "ch": 4,
      "note": 68,
      "vel": 35,
      "dur": 5531
    },
    {
      "t": 946.7,
      "ch": 3,
      "note": 39,
      "vel": 23,
      "dur": 5581
    },
    {
      "t": 946.8,
      "ch": 7,
      "note": 48,
      "vel": 77,
      "dur": 80
    },
    {
      "t": 947.1,
      "ch": 7,
      "note": 45,
      "vel": 63,
      "dur": 80
    },
    {
      "t": 947.1,
      "ch": 5,
      "note": 66,
      "vel": 10,
      "dur": 1073
    },
    {
      "t": 947.5,
      "ch": 7,
      "note": 48,
      "vel": 78,
      "dur": 80
    },
    {
      "t": 948.2,
      "ch": 7,
      "note": 48,
      "vel": 68,
      "dur": 80
    },
    {
      "t": 948.2,
      "ch": 7,
      "note": 45,
      "vel": 64,
      "dur": 80
    },
    {
      "t": 948.9,
      "ch": 7,
      "note": 48,
      "vel": 76,
      "dur": 80
    },
    {
      "t": 949,
      "ch": 7,
      "note": 45,
      "vel": 70,
      "dur": 80
    },
    {
      "t": 949.5,
      "ch": 2,
      "note": 58,
      "vel": 0,
      "dur": 0
    },
    {
      "t": 949.5,
      "ch": 2,
      "note": 56,
      "vel": 48,
      "dur": 20930
    },
    {
      "t": 949.5,
      "ch": 2,
      "note": 68,
      "vel": 34,
      "dur": 20930
    },
    {
      "t": 949.6,
      "ch": 7,
      "note": 48,
      "vel": 80,
      "dur": 80
    },
    {
      "t": 949.9,
      "ch": 7,
      "note": 45,
      "vel": 59,
      "dur": 80
    },
    {
      "t": 950.3,
      "ch": 7,
      "note": 48,
      "vel": 68,
      "dur": 80
    },
    {
      "t": 951,
      "ch": 7,
      "note": 48,
      "vel": 73,
      "dur": 80
    },
    {
      "t": 951,
      "ch": 7,
      "note": 45,
      "vel": 84,
      "dur": 80
    },
    {
      "t": 951.5,
      "ch": 5,
      "note": 82,
      "vel": 1,
      "dur": 1069
    },
    {
      "t": 951.7,
      "ch": 7,
      "note": 48,
      "vel": 68,
      "dur": 80
    },
    {
      "t": 951.8,
      "ch": 7,
      "note": 45,
      "vel": 57,
      "dur": 80
    },
    {
      "t": 952.4,
      "ch": 7,
      "note": 48,
      "vel": 70,
      "dur": 80
    },
    {
      "t": 953.1,
      "ch": 7,
      "note": 48,
      "vel": 78,
      "dur": 80
    },
    {
      "t": 953.8,
      "ch": 7,
      "note": 48,
      "vel": 65,
      "dur": 80
    },
    {
      "t": 954.5,
      "ch": 7,
      "note": 48,
      "vel": 67,
      "dur": 80
    },
    {
      "t": 955.1,
      "ch": 7,
      "note": 48,
      "vel": 69,
      "dur": 80
    },
    {
      "t": 955.3,
      "ch": 5,
      "note": 66,
      "vel": 6,
      "dur": 1069
    },
    {
      "t": 955.8,
      "ch": 7,
      "note": 48,
      "vel": 74,
      "dur": 80
    },
    {
      "t": 956.5,
      "ch": 7,
      "note": 48,
      "vel": 56,
      "dur": 80
    },
    {
      "t": 957.1,
      "ch": 6,
      "note": 63,
      "vel": 3,
      "dur": 717
    },
    {
      "t": 969,
      "ch": 4,
      "note": 63,
      "vel": 8,
      "dur": 11112
    },
    {
      "t": 969,
      "ch": 4,
      "note": 70,
      "vel": 8,
      "dur": 11112
    },
    {
      "t": 969,
      "ch": 3,
      "note": 46,
      "vel": 9,
      "dur": 11162
    },
    {
      "t": 971.8,
      "ch": 2,
      "note": 56,
      "vel": 0,
      "dur": 0
    },
    {
      "t": 971.8,
      "ch": 2,
      "note": 68,
      "vel": 0,
      "dur": 0
    },
    {
      "t": 971.8,
      "ch": 2,
      "note": 58,
      "vel": 44,
      "dur": 20930
    },
    {
      "t": 979.9,
      "ch": 5,
      "note": 78,
      "vel": 1,
      "dur": 1106
    },
    {
      "t": 980.2,
      "ch": 4,
      "note": 65,
      "vel": 10,
      "dur": 11112
    },
    {
      "t": 980.2,
      "ch": 4,
      "note": 70,
      "vel": 11,
      "dur": 11112
    },
    {
      "t": 980.2,
      "ch": 3,
      "note": 46,
      "vel": 12,
      "dur": 11162
    },
    {
      "t": 991.1,
      "ch": 6,
      "note": 58,
      "vel": 1,
      "dur": 769
    },
    {
      "t": 991.3,
      "ch": 4,
      "note": 65,
      "vel": 7,
      "dur": 11112
    },
    {
      "t": 991.3,
      "ch": 4,
      "note": 70,
      "vel": 7,
      "dur": 11112
    },
    {
      "t": 991.3,
      "ch": 3,
      "note": 46,
      "vel": 8,
      "dur": 11162
    },
    {
      "t": 994.1,
      "ch": 2,
      "note": 58,
      "vel": 44,
      "dur": 20930
    },
    {
      "t": 999.1,
      "ch": 5,
      "note": 78,
      "vel": 1,
      "dur": 1118
    },
    {
      "t": 1005.3,
      "ch": 2,
      "note": 58,
      "vel": 45,
      "dur": 20930
    },
    {
      "t": 1005.3,
      "ch": 2,
      "note": 70,
      "vel": 31,
      "dur": 20930
    },
    {
      "t": 1007.1,
      "ch": 5,
      "note": 66,
      "vel": 1,
      "dur": 1131
    },
    {
      "t": 1013.7,
      "ch": 4,
      "note": 65,
      "vel": 6,
      "dur": 11112
    },
    {
      "t": 1013.7,
      "ch": 4,
      "note": 70,
      "vel": 6,
      "dur": 11112
    },
    {
      "t": 1013.7,
      "ch": 3,
      "note": 53,
      "vel": 7,
      "dur": 11162
    },
    {
      "t": 1016.5,
      "ch": 2,
      "note": 58,
      "vel": 43,
      "dur": 20930
    },
    {
      "t": 1016.5,
      "ch": 2,
      "note": 70,
      "vel": 30,
      "dur": 20930
    },
    {
      "t": 1022.1,
      "ch": 5,
      "note": 82,
      "vel": 1,
      "dur": 1124
    },
    {
      "t": 1024.8,
      "ch": 4,
      "note": 65,
      "vel": 10,
      "dur": 11112
    },
    {
      "t": 1024.8,
      "ch": 4,
      "note": 71,
      "vel": 8,
      "dur": 2790
    },
    {
      "t": 1024.8,
      "ch": 4,
      "note": 70,
      "vel": 9,
      "dur": 8322
    },
    {
      "t": 1024.8,
      "ch": 3,
      "note": 46,
      "vel": 10,
      "dur": 11162
    },
    {
      "t": 1027.6,
      "ch": 2,
      "note": 58,
      "vel": 0,
      "dur": 0
    },
    {
      "t": 1027.6,
      "ch": 2,
      "note": 70,
      "vel": 0,
      "dur": 0
    },
    {
      "t": 1027.6,
      "ch": 2,
      "note": 62,
      "vel": 44,
      "dur": 20263
    },
    {
      "t": 1027.6,
      "ch": 2,
      "note": 74,
      "vel": 31,
      "dur": 20263
    },
    {
      "t": 1031,
      "ch": 5,
      "note": 66,
      "vel": 1,
      "dur": 1140
    },
    {
      "t": 1035.5,
      "ch": 4,
      "note": 62,
      "vel": 6,
      "dur": 10385
    },
    {
      "t": 1035.5,
      "ch": 4,
      "note": 60,
      "vel": 6,
      "dur": 10385
    },
    {
      "t": 1035.5,
      "ch": 3,
      "note": 45,
      "vel": 7,
      "dur": 10435
    },
    {
      "t": 1038.1,
      "ch": 2,
      "note": 62,
      "vel": 0,
      "dur": 0
    },
    {
      "t": 1038.1,
      "ch": 2,
      "note": 74,
      "vel": 0,
      "dur": 0
    },
    {
      "t": 1038.1,
      "ch": 2,
      "note": 50,
      "vel": 43,
      "dur": 19565
    },
    {
      "t": 1038.1,
      "ch": 2,
      "note": 62,
      "vel": 30,
      "dur": 19565
    },
    {
      "t": 1041.1,
      "ch": 5,
      "note": 78,
      "vel": 14,
      "dur": 1136
    },
    {
      "t": 1044.7,
      "ch": 7,
      "note": 48,
      "vel": 68,
      "dur": 80
    },
    {
      "t": 1045.3,
      "ch": 7,
      "note": 48,
      "vel": 64,
      "dur": 80
    },
    {
      "t": 1045.9,
      "ch": 4,
      "note": 63,
      "vel": 10,
      "dur": 2608
    },
    {
      "t": 1045.9,
      "ch": 4,
      "note": 62,
      "vel": 12,
      "dur": 7776
    },
    {
      "t": 1045.9,
      "ch": 4,
      "note": 60,
      "vel": 12,
      "dur": 10384
    },
    {
      "t": 1045.9,
      "ch": 3,
      "note": 38,
      "vel": 14,
      "dur": 10434
    },
    {
      "t": 1046,
      "ch": 7,
      "note": 48,
      "vel": 67,
      "dur": 80
    },
    {
      "t": 1046.6,
      "ch": 7,
      "note": 48,
      "vel": 70,
      "dur": 80
    },
    {
      "t": 1047.3,
      "ch": 7,
      "note": 48,
      "vel": 67,
      "dur": 80
    },
    {
      "t": 1047.9,
      "ch": 7,
      "note": 48,
      "vel": 67,
      "dur": 80
    },
    {
      "t": 1048.5,
      "ch": 2,
      "note": 50,
      "vel": 46,
      "dur": 19565
    },
    {
      "t": 1048.6,
      "ch": 7,
      "note": 48,
      "vel": 75,
      "dur": 80
    },
    {
      "t": 1049.3,
      "ch": 7,
      "note": 48,
      "vel": 66,
      "dur": 80
    },
    {
      "t": 1049.9,
      "ch": 7,
      "note": 48,
      "vel": 84,
      "dur": 80
    },
    {
      "t": 1050.6,
      "ch": 7,
      "note": 48,
      "vel": 78,
      "dur": 80
    },
    {
      "t": 1051.1,
      "ch": 4,
      "note": 62,
      "vel": 14,
      "dur": 5167
    },
    {
      "t": 1051.1,
      "ch": 4,
      "note": 58,
      "vel": 13,
      "dur": 2608
    },
    {
      "t": 1051.1,
      "ch": 4,
      "note": 57,
      "vel": 14,
      "dur": 2558
    },
    {
      "t": 1051.1,
      "ch": 3,
      "note": 38,
      "vel": 16,
      "dur": 5217
    },
    {
      "t": 1051.2,
      "ch": 7,
      "note": 48,
      "vel": 67,
      "dur": 80
    },
    {
      "t": 1051.9,
      "ch": 7,
      "note": 48,
      "vel": 57,
      "dur": 80
    },
    {
      "t": 1052.5,
      "ch": 7,
      "note": 48,
      "vel": 73,
      "dur": 80
    },
    {
      "t": 1053.2,
      "ch": 7,
      "note": 48,
      "vel": 59,
      "dur": 80
    },
    {
      "t": 1053.8,
      "ch": 7,
      "note": 48,
      "vel": 77,
      "dur": 80
    },
    {
      "t": 1054.5,
      "ch": 7,
      "note": 48,
      "vel": 80,
      "dur": 80
    },
    {
      "t": 1055.1,
      "ch": 7,
      "note": 48,
      "vel": 79,
      "dur": 80
    },
    {
      "t": 1055.8,
      "ch": 7,
      "note": 48,
      "vel": 70,
      "dur": 80
    },
    {
      "t": 1055.8,
      "ch": 6,
      "note": 55,
      "vel": 1,
      "dur": 731
    },
    {
      "t": 1056.3,
      "ch": 5,
      "note": 78,
      "vel": 1,
      "dur": 1098
    },
    {
      "t": 1056.4,
      "ch": 7,
      "note": 48,
      "vel": 74,
      "dur": 80
    },
    {
      "t": 1057.1,
      "ch": 7,
      "note": 48,
      "vel": 64,
      "dur": 80
    },
    {
      "t": 1057.1,
      "ch": 5,
      "note": 66,
      "vel": 1,
      "dur": 1098
    },
    {
      "t": 1057.7,
      "ch": 7,
      "note": 48,
      "vel": 77,
      "dur": 80
    },
    {
      "t": 1058.2,
      "ch": 6,
      "note": 69,
      "vel": 5,
      "dur": 732
    },
    {
      "t": 1058.2,
      "ch": 5,
      "note": 82,
      "vel": 3,
      "dur": 1098
    },
    {
      "t": 1058.4,
      "ch": 7,
      "note": 48,
      "vel": 60,
      "dur": 80
    },
    {
      "t": 1059,
      "ch": 2,
      "note": 50,
      "vel": 47,
      "dur": 19565
    },
    {
      "t": 1059,
      "ch": 7,
      "note": 48,
      "vel": 67,
      "dur": 80
    },
    {
      "t": 1059.7,
      "ch": 7,
      "note": 48,
      "vel": 70,
      "dur": 80
    },
    {
      "t": 1060.2,
      "ch": 5,
      "note": 66,
      "vel": 5,
      "dur": 1093
    },
    {
      "t": 1060.3,
      "ch": 7,
      "note": 48,
      "vel": 75,
      "dur": 80
    },
    {
      "t": 1061,
      "ch": 7,
      "note": 48,
      "vel": 71,
      "dur": 80
    },
    {
      "t": 1061.6,
      "ch": 7,
      "note": 48,
      "vel": 64,
      "dur": 80
    },
    {
      "t": 1062.3,
      "ch": 7,
      "note": 48,
      "vel": 64,
      "dur": 80
    },
    {
      "t": 1062.9,
      "ch": 7,
      "note": 48,
      "vel": 62,
      "dur": 80
    },
    {
      "t": 1062.9,
      "ch": 7,
      "note": 45,
      "vel": 61,
      "dur": 80
    },
    {
      "t": 1063.6,
      "ch": 7,
      "note": 48,
      "vel": 83,
      "dur": 80
    },
    {
      "t": 1063.8,
      "ch": 7,
      "note": 45,
      "vel": 64,
      "dur": 80
    },
    {
      "t": 1064.2,
      "ch": 7,
      "note": 48,
      "vel": 79,
      "dur": 80
    },
    {
      "t": 1064.6,
      "ch": 7,
      "note": 45,
      "vel": 76,
      "dur": 80
    },
    {
      "t": 1064.9,
      "ch": 7,
      "note": 48,
      "vel": 70,
      "dur": 80
    },
    {
      "t": 1065.1,
      "ch": 6,
      "note": 52,
      "vel": 7,
      "dur": 703
    },
    {
      "t": 1065.6,
      "ch": 7,
      "note": 48,
      "vel": 73,
      "dur": 80
    },
    {
      "t": 1065.6,
      "ch": 7,
      "note": 45,
      "vel": 73,
      "dur": 80
    },
    {
      "t": 1066.2,
      "ch": 7,
      "note": 48,
      "vel": 60,
      "dur": 80
    },
    {
      "t": 1066.4,
      "ch": 7,
      "note": 45,
      "vel": 63,
      "dur": 80
    },
    {
      "t": 1066.8,
      "ch": 4,
      "note": 57,
      "vel": 22,
      "dur": 5167
    },
    {
      "t": 1066.8,
      "ch": 4,
      "note": 52,
      "vel": 22,
      "dur": 5167
    },
    {
      "t": 1066.9,
      "ch": 7,
      "note": 48,
      "vel": 68,
      "dur": 80
    },
    {
      "t": 1067.2,
      "ch": 7,
      "note": 45,
      "vel": 57,
      "dur": 80
    },
    {
      "t": 1067.5,
      "ch": 7,
      "note": 48,
      "vel": 67,
      "dur": 80
    },
    {
      "t": 1067.6,
      "ch": 7,
      "note": 36,
      "vel": 77,
      "dur": 80
    },
    {
      "t": 1067.7,
      "ch": 6,
      "note": 74,
      "vel": 10,
      "dur": 687
    },
    {
      "t": 1068.2,
      "ch": 7,
      "note": 48,
      "vel": 70,
      "dur": 80
    },
    {
      "t": 1068.2,
      "ch": 7,
      "note": 45,
      "vel": 73,
      "dur": 80
    },
    {
      "t": 1068.2,
      "ch": 7,
      "note": 36,
      "vel": 60,
      "dur": 80
    },
    {
      "t": 1068.5,
      "ch": 7,
      "note": 36,
      "vel": 57,
      "dur": 80
    },
    {
      "t": 1068.5,
      "ch": 6,
      "note": 68,
      "vel": 1,
      "dur": 683
    },
    {
      "t": 1068.8,
      "ch": 7,
      "note": 48,
      "vel": 74,
      "dur": 80
    },
    {
      "t": 1068.8,
      "ch": 7,
      "note": 36,
      "vel": 79,
      "dur": 80
    },
    {
      "t": 1069,
      "ch": 7,
      "note": 45,
      "vel": 67,
      "dur": 80
    },
    {
      "t": 1069.4,
      "ch": 2,
      "note": 50,
      "vel": 0,
      "dur": 0
    },
    {
      "t": 1069.4,
      "ch": 2,
      "note": 62,
      "vel": 0,
      "dur": 0
    },
    {
      "t": 1069.4,
      "ch": 2,
      "note": 48,
      "vel": 50,
      "dur": 19565
    },
    {
      "t": 1069.4,
      "ch": 2,
      "note": 60,
      "vel": 35,
      "dur": 19565
    },
    {
      "t": 1069.5,
      "ch": 7,
      "note": 48,
      "vel": 75,
      "dur": 80
    },
    {
      "t": 1069.5,
      "ch": 7,
      "note": 36,
      "vel": 71,
      "dur": 80
    },
    {
      "t": 1069.8,
      "ch": 7,
      "note": 45,
      "vel": 65,
      "dur": 80
    },
    {
      "t": 1069.8,
      "ch": 7,
      "note": 36,
      "vel": 64,
      "dur": 80
    },
    {
      "t": 1070.1,
      "ch": 7,
      "note": 48,
      "vel": 65,
      "dur": 80
    },
    {
      "t": 1070.1,
      "ch": 7,
      "note": 36,
      "vel": 66,
      "dur": 80
    },
    {
      "t": 1070.8,
      "ch": 7,
      "note": 48,
      "vel": 62,
      "dur": 80
    },
    {
      "t": 1070.8,
      "ch": 7,
      "note": 45,
      "vel": 75,
      "dur": 80
    },
    {
      "t": 1070.8,
      "ch": 7,
      "note": 36,
      "vel": 65,
      "dur": 80
    },
    {
      "t": 1071.1,
      "ch": 7,
      "note": 36,
      "vel": 67,
      "dur": 80
    },
    {
      "t": 1071.4,
      "ch": 7,
      "note": 48,
      "vel": 79,
      "dur": 80
    },
    {
      "t": 1071.4,
      "ch": 7,
      "note": 36,
      "vel": 76,
      "dur": 80
    },
    {
      "t": 1071.4,
      "ch": 5,
      "note": 78,
      "vel": 13,
      "dur": 1009
    },
    {
      "t": 1071.6,
      "ch": 7,
      "note": 45,
      "vel": 73,
      "dur": 80
    },
    {
      "t": 1071.8,
      "ch": 6,
      "note": 74,
      "vel": 3,
      "dur": 672
    },
    {
      "t": 1071.9,
      "ch": 6,
      "note": 69,
      "vel": 8,
      "dur": 672
    },
    {
      "t": 1072,
      "ch": 4,
      "note": 55,
      "vel": 28,
      "dur": 5167
    },
    {
      "t": 1072,
      "ch": 4,
      "note": 59,
      "vel": 43,
      "dur": 5167
    },
    {
      "t": 1072.1,
      "ch": 7,
      "note": 48,
      "vel": 58,
      "dur": 80
    },
    {
      "t": 1072.1,
      "ch": 7,
      "note": 36,
      "vel": 63,
      "dur": 80
    },
    {
      "t": 1072.4,
      "ch": 7,
      "note": 45,
      "vel": 67,
      "dur": 80
    },
    {
      "t": 1072.4,
      "ch": 7,
      "note": 36,
      "vel": 61,
      "dur": 80
    },
    {
      "t": 1072.7,
      "ch": 7,
      "note": 48,
      "vel": 64,
      "dur": 80
    },
    {
      "t": 1072.7,
      "ch": 7,
      "note": 36,
      "vel": 71,
      "dur": 80
    },
    {
      "t": 1073.4,
      "ch": 7,
      "note": 48,
      "vel": 73,
      "dur": 80
    },
    {
      "t": 1073.4,
      "ch": 7,
      "note": 45,
      "vel": 71,
      "dur": 80
    },
    {
      "t": 1073.4,
      "ch": 7,
      "note": 36,
      "vel": 66,
      "dur": 80
    },
    {
      "t": 1073.7,
      "ch": 7,
      "note": 36,
      "vel": 68,
      "dur": 80
    },
    {
      "t": 1073.9,
      "ch": 5,
      "note": 78,
      "vel": 9,
      "dur": 1007
    },
    {
      "t": 1074,
      "ch": 7,
      "note": 48,
      "vel": 69,
      "dur": 80
    },
    {
      "t": 1074,
      "ch": 7,
      "note": 36,
      "vel": 69,
      "dur": 80
    },
    {
      "t": 1074.1,
      "ch": 6,
      "note": 74,
      "vel": 18,
      "dur": 400
    },
    {
      "t": 1074.2,
      "ch": 7,
      "note": 45,
      "vel": 61,
      "dur": 80
    },
    {
      "t": 1074.4,
      "ch": 6,
      "note": 74,
      "vel": 12,
      "dur": 672
    },
    {
      "t": 1074.5,
      "ch": 5,
      "note": 66,
      "vel": 21,
      "dur": 1008
    },
    {
      "t": 1074.7,
      "ch": 7,
      "note": 48,
      "vel": 73,
      "dur": 80
    },
    {
      "t": 1074.7,
      "ch": 7,
      "note": 36,
      "vel": 70,
      "dur": 80
    },
    {
      "t": 1075,
      "ch": 7,
      "note": 45,
      "vel": 54,
      "dur": 80
    },
    {
      "t": 1075,
      "ch": 7,
      "note": 36,
      "vel": 56,
      "dur": 80
    },
    {
      "t": 1075.3,
      "ch": 7,
      "note": 48,
      "vel": 74,
      "dur": 80
    },
    {
      "t": 1075.3,
      "ch": 7,
      "note": 36,
      "vel": 71,
      "dur": 80
    },
    {
      "t": 1075.8,
      "ch": 5,
      "note": 82,
      "vel": 16,
      "dur": 1011
    },
    {
      "t": 1076,
      "ch": 7,
      "note": 48,
      "vel": 71,
      "dur": 80
    },
    {
      "t": 1076,
      "ch": 7,
      "note": 45,
      "vel": 74,
      "dur": 80
    },
    {
      "t": 1076,
      "ch": 7,
      "note": 36,
      "vel": 65,
      "dur": 80
    },
    {
      "t": 1076.3,
      "ch": 7,
      "note": 36,
      "vel": 66,
      "dur": 80
    },
    {
      "t": 1076.6,
      "ch": 7,
      "note": 48,
      "vel": 80,
      "dur": 80
    },
    {
      "t": 1076.6,
      "ch": 7,
      "note": 36,
      "vel": 71,
      "dur": 80
    },
    {
      "t": 1076.8,
      "ch": 7,
      "note": 45,
      "vel": 69,
      "dur": 80
    },
    {
      "t": 1077.2,
      "ch": 4,
      "note": 57,
      "vel": 27,
      "dur": 5167
    },
    {
      "t": 1077.2,
      "ch": 4,
      "note": 60,
      "vel": 27,
      "dur": 5167
    },
    {
      "t": 1077.2,
      "ch": 3,
      "note": 38,
      "vel": 30,
      "dur": 5217
    },
    {
      "t": 1077.3,
      "ch": 7,
      "note": 48,
      "vel": 73,
      "dur": 80
    },
    {
      "t": 1077.3,
      "ch": 7,
      "note": 36,
      "vel": 78,
      "dur": 80
    },
    {
      "t": 1077.5,
      "ch": 6,
      "note": 74,
      "vel": 15,
      "dur": 678
    },
    {
      "t": 1077.6,
      "ch": 7,
      "note": 45,
      "vel": 60,
      "dur": 80
    },
    {
      "t": 1077.6,
      "ch": 7,
      "note": 36,
      "vel": 55,
      "dur": 80
    },
    {
      "t": 1077.9,
      "ch": 7,
      "note": 48,
      "vel": 73,
      "dur": 80
    },
    {
      "t": 1077.9,
      "ch": 7,
      "note": 36,
      "vel": 68,
      "dur": 80
    },
    {
      "t": 1078.6,
      "ch": 7,
      "note": 48,
      "vel": 74,
      "dur": 80
    },
    {
      "t": 1078.6,
      "ch": 7,
      "note": 45,
      "vel": 67,
      "dur": 80
    },
    {
      "t": 1078.6,
      "ch": 7,
      "note": 36,
      "vel": 73,
      "dur": 80
    },
    {
      "t": 1078.9,
      "ch": 7,
      "note": 36,
      "vel": 65,
      "dur": 80
    },
    {
      "t": 1079.3,
      "ch": 7,
      "note": 48,
      "vel": 73,
      "dur": 80
    },
    {
      "t": 1079.3,
      "ch": 7,
      "note": 36,
      "vel": 67,
      "dur": 80
    },
    {
      "t": 1079.4,
      "ch": 7,
      "note": 45,
      "vel": 66,
      "dur": 80
    },
    {
      "t": 1079.6,
      "ch": 5,
      "note": 66,
      "vel": 10,
      "dur": 1023
    },
    {
      "t": 1079.8,
      "ch": 2,
      "note": 48,
      "vel": 0,
      "dur": 0
    },
    {
      "t": 1079.8,
      "ch": 2,
      "note": 60,
      "vel": 0,
      "dur": 0
    },
    {
      "t": 1079.8,
      "ch": 2,
      "note": 50,
      "vel": 51,
      "dur": 19565
    },
    {
      "t": 1079.9,
      "ch": 7,
      "note": 48,
      "vel": 63,
      "dur": 80
    },
    {
      "t": 1079.9,
      "ch": 7,
      "note": 36,
      "vel": 76,
      "dur": 80
    },
    {
      "t": 1080.2,
      "ch": 7,
      "note": 45,
      "vel": 77,
      "dur": 80
    },
    {
      "t": 1080.2,
      "ch": 7,
      "note": 36,
      "vel": 64,
      "dur": 80
    },
    {
      "t": 1080.6,
      "ch": 7,
      "note": 48,
      "vel": 61,
      "dur": 80
    },
    {
      "t": 1080.6,
      "ch": 7,
      "note": 36,
      "vel": 72,
      "dur": 80
    },
    {
      "t": 1081.2,
      "ch": 0,
      "note": 36,
      "vel": 127,
      "dur": 55
    },
    {
      "t": 1081.2,
      "ch": 7,
      "note": 48,
      "vel": 72,
      "dur": 80
    },
    {
      "t": 1081.2,
      "ch": 7,
      "note": 45,
      "vel": 70,
      "dur": 80
    },
    {
      "t": 1081.2,
      "ch": 7,
      "note": 36,
      "vel": 70,
      "dur": 80
    },
    {
      "t": 1081.5,
      "ch": 7,
      "note": 36,
      "vel": 61,
      "dur": 80
    },
    {
      "t": 1081.9,
      "ch": 7,
      "note": 48,
      "vel": 72,
      "dur": 80
    },
    {
      "t": 1081.9,
      "ch": 7,
      "note": 36,
      "vel": 73,
      "dur": 80
    },
    {
      "t": 1082,
      "ch": 7,
      "note": 45,
      "vel": 54,
      "dur": 80
    },
    {
      "t": 1082.4,
      "ch": 4,
      "note": 57,
      "vel": 28,
      "dur": 5167
    },
    {
      "t": 1082.4,
      "ch": 4,
      "note": 52,
      "vel": 27,
      "dur": 5167
    },
    {
      "t": 1082.4,
      "ch": 3,
      "note": 43,
      "vel": 30,
      "dur": 5217
    },
    {
      "t": 1082.5,
      "ch": 0,
      "note": 36,
      "vel": 100,
      "dur": 55
    },
    {
      "t": 1082.5,
      "ch": 7,
      "note": 48,
      "vel": 77,
      "dur": 80
    },
    {
      "t": 1082.5,
      "ch": 7,
      "note": 36,
      "vel": 63,
      "dur": 80
    },
    {
      "t": 1082.8,
      "ch": 7,
      "note": 45,
      "vel": 61,
      "dur": 80
    },
    {
      "t": 1082.8,
      "ch": 7,
      "note": 36,
      "vel": 56,
      "dur": 80
    },
    {
      "t": 1083.2,
      "ch": 7,
      "note": 48,
      "vel": 55,
      "dur": 80
    },
    {
      "t": 1083.2,
      "ch": 7,
      "note": 36,
      "vel": 66,
      "dur": 80
    },
    {
      "t": 1083.5,
      "ch": 5,
      "note": 78,
      "vel": 19,
      "dur": 1022
    },
    {
      "t": 1083.8,
      "ch": 7,
      "note": 48,
      "vel": 67,
      "dur": 80
    },
    {
      "t": 1083.8,
      "ch": 7,
      "note": 45,
      "vel": 69,
      "dur": 80
    },
    {
      "t": 1083.8,
      "ch": 7,
      "note": 36,
      "vel": 66,
      "dur": 80
    },
    {
      "t": 1084.1,
      "ch": 7,
      "note": 36,
      "vel": 60,
      "dur": 80
    },
    {
      "t": 1084.2,
      "ch": 5,
      "note": 78,
      "vel": 16,
      "dur": 1020
    },
    {
      "t": 1084.5,
      "ch": 7,
      "note": 48,
      "vel": 71,
      "dur": 80
    },
    {
      "t": 1084.5,
      "ch": 7,
      "note": 36,
      "vel": 66,
      "dur": 80
    },
    {
      "t": 1084.6,
      "ch": 7,
      "note": 45,
      "vel": 67,
      "dur": 80
    },
    {
      "t": 1085,
      "ch": 6,
      "note": 59,
      "vel": 28,
      "dur": 677
    },
    {
      "t": 1085.1,
      "ch": 7,
      "note": 48,
      "vel": 90,
      "dur": 80
    },
    {
      "t": 1085.1,
      "ch": 7,
      "note": 36,
      "vel": 69,
      "dur": 80
    },
    {
      "t": 1085.5,
      "ch": 7,
      "note": 45,
      "vel": 53,
      "dur": 80
    },
    {
      "t": 1085.5,
      "ch": 7,
      "note": 36,
      "vel": 66,
      "dur": 80
    },
    {
      "t": 1085.5,
      "ch": 5,
      "note": 57,
      "vel": 20,
      "dur": 1013
    },
    {
      "t": 1085.6,
      "ch": 5,
      "note": 59,
      "vel": 28,
      "dur": 1012
    },
    {
      "t": 1085.8,
      "ch": 7,
      "note": 48,
      "vel": 57,
      "dur": 80
    },
    {
      "t": 1085.8,
      "ch": 7,
      "note": 36,
      "vel": 53,
      "dur": 80
    },
    {
      "t": 1086.4,
      "ch": 7,
      "note": 48,
      "vel": 63,
      "dur": 80
    },
    {
      "t": 1086.4,
      "ch": 7,
      "note": 45,
      "vel": 74,
      "dur": 80
    },
    {
      "t": 1086.4,
      "ch": 7,
      "note": 36,
      "vel": 69,
      "dur": 80
    },
    {
      "t": 1086.8,
      "ch": 7,
      "note": 36,
      "vel": 52,
      "dur": 80
    },
    {
      "t": 1087.1,
      "ch": 7,
      "note": 48,
      "vel": 66,
      "dur": 80
    },
    {
      "t": 1087.1,
      "ch": 7,
      "note": 36,
      "vel": 65,
      "dur": 80
    },
    {
      "t": 1087.3,
      "ch": 7,
      "note": 45,
      "vel": 63,
      "dur": 80
    },
    {
      "t": 1087.7,
      "ch": 4,
      "note": 57,
      "vel": 32,
      "dur": 5167
    },
    {
      "t": 1087.7,
      "ch": 4,
      "note": 62,
      "vel": 32,
      "dur": 5167
    },
    {
      "t": 1087.7,
      "ch": 3,
      "note": 45,
      "vel": 33,
      "dur": 5217
    },
    {
      "t": 1087.7,
      "ch": 7,
      "note": 48,
      "vel": 77,
      "dur": 80
    },
    {
      "t": 1087.7,
      "ch": 7,
      "note": 36,
      "vel": 72,
      "dur": 80
    },
    {
      "t": 1088.1,
      "ch": 7,
      "note": 45,
      "vel": 62,
      "dur": 80
    },
    {
      "t": 1088.1,
      "ch": 7,
      "note": 36,
      "vel": 56,
      "dur": 80
    },
    {
      "t": 1088.4,
      "ch": 7,
      "note": 48,
      "vel": 80,
      "dur": 80
    },
    {
      "t": 1088.4,
      "ch": 7,
      "note": 36,
      "vel": 75,
      "dur": 80
    },
    {
      "t": 1089,
      "ch": 7,
      "note": 48,
      "vel": 71,
      "dur": 80
    },
    {
      "t": 1089,
      "ch": 7,
      "note": 45,
      "vel": 61,
      "dur": 80
    },
    {
      "t": 1089,
      "ch": 7,
      "note": 36,
      "vel": 77,
      "dur": 80
    },
    {
      "t": 1089.4,
      "ch": 7,
      "note": 36,
      "vel": 62,
      "dur": 80
    },
    {
      "t": 1089.7,
      "ch": 7,
      "note": 48,
      "vel": 80,
      "dur": 80
    },
    {
      "t": 1089.7,
      "ch": 7,
      "note": 36,
      "vel": 81,
      "dur": 80
    },
    {
      "t": 1089.7,
      "ch": 5,
      "note": 59,
      "vel": 35,
      "dur": 985
    },
    {
      "t": 1089.9,
      "ch": 7,
      "note": 45,
      "vel": 57,
      "dur": 80
    },
    {
      "t": 1090.1,
      "ch": 6,
      "note": 65,
      "vel": 9,
      "dur": 400
    },
    {
      "t": 1090.3,
      "ch": 2,
      "note": 50,
      "vel": 53,
      "dur": 19565
    },
    {
      "t": 1090.3,
      "ch": 2,
      "note": 62,
      "vel": 37,
      "dur": 19565
    },
    {
      "t": 1090.3,
      "ch": 7,
      "note": 48,
      "vel": 67,
      "dur": 80
    },
    {
      "t": 1090.3,
      "ch": 7,
      "note": 36,
      "vel": 58,
      "dur": 80
    },
    {
      "t": 1090.7,
      "ch": 7,
      "note": 45,
      "vel": 64,
      "dur": 80
    },
    {
      "t": 1090.7,
      "ch": 7,
      "note": 36,
      "vel": 55,
      "dur": 80
    },
    {
      "t": 1091,
      "ch": 7,
      "note": 48,
      "vel": 70,
      "dur": 80
    },
    {
      "t": 1091,
      "ch": 7,
      "note": 36,
      "vel": 76,
      "dur": 80
    },
    {
      "t": 1091.6,
      "ch": 0,
      "note": 36,
      "vel": 116,
      "dur": 55
    },
    {
      "t": 1091.6,
      "ch": 7,
      "note": 48,
      "vel": 75,
      "dur": 80
    },
    {
      "t": 1091.6,
      "ch": 7,
      "note": 45,
      "vel": 62,
      "dur": 80
    },
    {
      "t": 1091.6,
      "ch": 7,
      "note": 36,
      "vel": 74,
      "dur": 80
    },
    {
      "t": 1092,
      "ch": 7,
      "note": 36,
      "vel": 61,
      "dur": 80
    },
    {
      "t": 1092.3,
      "ch": 7,
      "note": 48,
      "vel": 58,
      "dur": 80
    },
    {
      "t": 1092.3,
      "ch": 7,
      "note": 36,
      "vel": 67,
      "dur": 80
    },
    {
      "t": 1092.5,
      "ch": 7,
      "note": 45,
      "vel": 66,
      "dur": 80
    },
    {
      "t": 1092.9,
      "ch": 4,
      "note": 55,
      "vel": 34,
      "dur": 5167
    },
    {
      "t": 1092.9,
      "ch": 4,
      "note": 62,
      "vel": 35,
      "dur": 5167
    },
    {
      "t": 1092.9,
      "ch": 3,
      "note": 38,
      "vel": 38,
      "dur": 5217
    },
    {
      "t": 1092.9,
      "ch": 0,
      "note": 36,
      "vel": 92,
      "dur": 55
    },
    {
      "t": 1092.9,
      "ch": 7,
      "note": 48,
      "vel": 75,
      "dur": 80
    },
    {
      "t": 1092.9,
      "ch": 7,
      "note": 36,
      "vel": 72,
      "dur": 80
    },
    {
      "t": 1093.3,
      "ch": 7,
      "note": 45,
      "vel": 70,
      "dur": 80
    },
    {
      "t": 1093.3,
      "ch": 7,
      "note": 36,
      "vel": 51,
      "dur": 80
    },
    {
      "t": 1093.6,
      "ch": 7,
      "note": 48,
      "vel": 67,
      "dur": 80
    },
    {
      "t": 1093.6,
      "ch": 7,
      "note": 36,
      "vel": 70,
      "dur": 80
    },
    {
      "t": 1094.2,
      "ch": 7,
      "note": 48,
      "vel": 66,
      "dur": 80
    },
    {
      "t": 1094.2,
      "ch": 7,
      "note": 45,
      "vel": 68,
      "dur": 80
    },
    {
      "t": 1094.2,
      "ch": 7,
      "note": 36,
      "vel": 70,
      "dur": 80
    },
    {
      "t": 1094.6,
      "ch": 7,
      "note": 36,
      "vel": 68,
      "dur": 80
    },
    {
      "t": 1094.9,
      "ch": 7,
      "note": 48,
      "vel": 81,
      "dur": 80
    },
    {
      "t": 1094.9,
      "ch": 7,
      "note": 36,
      "vel": 74,
      "dur": 80
    },
    {
      "t": 1094.9,
      "ch": 6,
      "note": 60,
      "vel": 1,
      "dur": 646
    },
    {
      "t": 1095.1,
      "ch": 7,
      "note": 45,
      "vel": 63,
      "dur": 80
    },
    {
      "t": 1095.6,
      "ch": 7,
      "note": 48,
      "vel": 72,
      "dur": 80
    },
    {
      "t": 1095.6,
      "ch": 7,
      "note": 36,
      "vel": 55,
      "dur": 80
    },
    {
      "t": 1095.9,
      "ch": 7,
      "note": 45,
      "vel": 52,
      "dur": 80
    },
    {
      "t": 1095.9,
      "ch": 7,
      "note": 36,
      "vel": 53,
      "dur": 80
    },
    {
      "t": 1095.9,
      "ch": 5,
      "note": 65,
      "vel": 12,
      "dur": 970
    },
    {
      "t": 1096.2,
      "ch": 7,
      "note": 48,
      "vel": 65,
      "dur": 80
    },
    {
      "t": 1096.2,
      "ch": 7,
      "note": 36,
      "vel": 75,
      "dur": 80
    },
    {
      "t": 1096.2,
      "ch": 5,
      "note": 57,
      "vel": 20,
      "dur": 971
    },
    {
      "t": 1096.9,
      "ch": 7,
      "note": 48,
      "vel": 71,
      "dur": 80
    },
    {
      "t": 1096.9,
      "ch": 7,
      "note": 45,
      "vel": 66,
      "dur": 80
    },
    {
      "t": 1096.9,
      "ch": 7,
      "note": 36,
      "vel": 81,
      "dur": 80
    },
    {
      "t": 1097.2,
      "ch": 7,
      "note": 36,
      "vel": 66,
      "dur": 80
    },
    {
      "t": 1097.5,
      "ch": 7,
      "note": 48,
      "vel": 69,
      "dur": 80
    },
    {
      "t": 1097.5,
      "ch": 7,
      "note": 36,
      "vel": 61,
      "dur": 80
    },
    {
      "t": 1097.7,
      "ch": 7,
      "note": 45,
      "vel": 50,
      "dur": 80
    },
    {
      "t": 1098,
      "ch": 5,
      "note": 59,
      "vel": 39,
      "dur": 979
    },
    {
      "t": 1098.1,
      "ch": 4,
      "note": 57,
      "vel": 35,
      "dur": 5167
    },
    {
      "t": 1098.1,
      "ch": 4,
      "note": 60,
      "vel": 34,
      "dur": 5167
    },
    {
      "t": 1098.1,
      "ch": 3,
      "note": 43,
      "vel": 37,
      "dur": 5217
    },
    {
      "t": 1098.2,
      "ch": 7,
      "note": 48,
      "vel": 62,
      "dur": 80
    },
    {
      "t": 1098.2,
      "ch": 7,
      "note": 36,
      "vel": 62,
      "dur": 80
    },
    {
      "t": 1098.5,
      "ch": 7,
      "note": 45,
      "vel": 61,
      "dur": 80
    },
    {
      "t": 1098.5,
      "ch": 7,
      "note": 36,
      "vel": 70,
      "dur": 80
    },
    {
      "t": 1098.8,
      "ch": 7,
      "note": 48,
      "vel": 70,
      "dur": 80
    },
    {
      "t": 1098.8,
      "ch": 7,
      "note": 36,
      "vel": 67,
      "dur": 80
    },
    {
      "t": 1099.5,
      "ch": 7,
      "note": 48,
      "vel": 80,
      "dur": 80
    },
    {
      "t": 1099.5,
      "ch": 7,
      "note": 45,
      "vel": 80,
      "dur": 80
    },
    {
      "t": 1099.5,
      "ch": 7,
      "note": 36,
      "vel": 76,
      "dur": 80
    },
    {
      "t": 1099.8,
      "ch": 7,
      "note": 36,
      "vel": 60,
      "dur": 80
    },
    {
      "t": 1100.1,
      "ch": 7,
      "note": 48,
      "vel": 68,
      "dur": 80
    },
    {
      "t": 1100.1,
      "ch": 7,
      "note": 36,
      "vel": 81,
      "dur": 80
    },
    {
      "t": 1100.3,
      "ch": 7,
      "note": 45,
      "vel": 61,
      "dur": 80
    },
    {
      "t": 1100.7,
      "ch": 2,
      "note": 50,
      "vel": 52,
      "dur": 19565
    },
    {
      "t": 1100.7,
      "ch": 2,
      "note": 62,
      "vel": 36,
      "dur": 19565
    },
    {
      "t": 1100.8,
      "ch": 7,
      "note": 48,
      "vel": 72,
      "dur": 80
    },
    {
      "t": 1100.8,
      "ch": 7,
      "note": 36,
      "vel": 67,
      "dur": 80
    },
    {
      "t": 1101.1,
      "ch": 7,
      "note": 45,
      "vel": 62,
      "dur": 80
    },
    {
      "t": 1101.1,
      "ch": 7,
      "note": 36,
      "vel": 64,
      "dur": 80
    },
    {
      "t": 1101.4,
      "ch": 7,
      "note": 48,
      "vel": 84,
      "dur": 80
    },
    {
      "t": 1101.4,
      "ch": 7,
      "note": 36,
      "vel": 78,
      "dur": 80
    },
    {
      "t": 1102.1,
      "ch": 0,
      "note": 36,
      "vel": 104,
      "dur": 55
    },
    {
      "t": 1102.1,
      "ch": 7,
      "note": 48,
      "vel": 71,
      "dur": 80
    },
    {
      "t": 1102.1,
      "ch": 7,
      "note": 45,
      "vel": 71,
      "dur": 80
    },
    {
      "t": 1102.1,
      "ch": 7,
      "note": 36,
      "vel": 67,
      "dur": 80
    },
    {
      "t": 1102.4,
      "ch": 7,
      "note": 36,
      "vel": 58,
      "dur": 80
    },
    {
      "t": 1102.7,
      "ch": 7,
      "note": 48,
      "vel": 57,
      "dur": 80
    },
    {
      "t": 1102.7,
      "ch": 7,
      "note": 36,
      "vel": 70,
      "dur": 80
    },
    {
      "t": 1102.9,
      "ch": 7,
      "note": 45,
      "vel": 76,
      "dur": 80
    },
    {
      "t": 1103.3,
      "ch": 4,
      "note": 57,
      "vel": 30,
      "dur": 5167
    },
    {
      "t": 1103.3,
      "ch": 4,
      "note": 52,
      "vel": 29,
      "dur": 5167
    },
    {
      "t": 1103.3,
      "ch": 3,
      "note": 43,
      "vel": 33,
      "dur": 5217
    },
    {
      "t": 1103.4,
      "ch": 0,
      "note": 36,
      "vel": 88,
      "dur": 55
    },
    {
      "t": 1103.4,
      "ch": 7,
      "note": 48,
      "vel": 70,
      "dur": 80
    },
    {
      "t": 1103.4,
      "ch": 7,
      "note": 36,
      "vel": 68,
      "dur": 80
    },
    {
      "t": 1103.7,
      "ch": 7,
      "note": 45,
      "vel": 59,
      "dur": 80
    },
    {
      "t": 1103.7,
      "ch": 7,
      "note": 36,
      "vel": 65,
      "dur": 80
    },
    {
      "t": 1104,
      "ch": 7,
      "note": 48,
      "vel": 77,
      "dur": 80
    },
    {
      "t": 1104,
      "ch": 7,
      "note": 36,
      "vel": 60,
      "dur": 80
    },
    {
      "t": 1104.7,
      "ch": 7,
      "note": 48,
      "vel": 73,
      "dur": 80
    },
    {
      "t": 1104.7,
      "ch": 7,
      "note": 45,
      "vel": 67,
      "dur": 80
    },
    {
      "t": 1104.7,
      "ch": 7,
      "note": 36,
      "vel": 70,
      "dur": 80
    },
    {
      "t": 1105,
      "ch": 7,
      "note": 36,
      "vel": 64,
      "dur": 80
    },
    {
      "t": 1105.3,
      "ch": 7,
      "note": 48,
      "vel": 71,
      "dur": 80
    },
    {
      "t": 1105.3,
      "ch": 7,
      "note": 36,
      "vel": 81,
      "dur": 80
    },
    {
      "t": 1105.5,
      "ch": 7,
      "note": 45,
      "vel": 60,
      "dur": 80
    },
    {
      "t": 1106,
      "ch": 7,
      "note": 48,
      "vel": 70,
      "dur": 80
    },
    {
      "t": 1106,
      "ch": 7,
      "note": 36,
      "vel": 73,
      "dur": 80
    },
    {
      "t": 1106,
      "ch": 5,
      "note": 59,
      "vel": 38,
      "dur": 1012
    },
    {
      "t": 1106.3,
      "ch": 7,
      "note": 45,
      "vel": 58,
      "dur": 80
    },
    {
      "t": 1106.3,
      "ch": 7,
      "note": 36,
      "vel": 70,
      "dur": 80
    },
    {
      "t": 1106.6,
      "ch": 7,
      "note": 48,
      "vel": 67,
      "dur": 80
    },
    {
      "t": 1106.6,
      "ch": 7,
      "note": 36,
      "vel": 78,
      "dur": 80
    },
    {
      "t": 1107.3,
      "ch": 7,
      "note": 48,
      "vel": 62,
      "dur": 80
    },
    {
      "t": 1107.3,
      "ch": 7,
      "note": 45,
      "vel": 64,
      "dur": 80
    },
    {
      "t": 1107.3,
      "ch": 7,
      "note": 36,
      "vel": 65,
      "dur": 80
    },
    {
      "t": 1107.6,
      "ch": 7,
      "note": 36,
      "vel": 69,
      "dur": 80
    },
    {
      "t": 1107.9,
      "ch": 7,
      "note": 48,
      "vel": 72,
      "dur": 80
    },
    {
      "t": 1107.9,
      "ch": 7,
      "note": 36,
      "vel": 81,
      "dur": 80
    },
    {
      "t": 1108.1,
      "ch": 7,
      "note": 45,
      "vel": 66,
      "dur": 80
    },
    {
      "t": 1108.3,
      "ch": 6,
      "note": 62,
      "vel": 21,
      "dur": 671
    },
    {
      "t": 1108.5,
      "ch": 4,
      "note": 58,
      "vel": 30,
      "dur": 2608
    },
    {
      "t": 1108.5,
      "ch": 4,
      "note": 57,
      "vel": 30,
      "dur": 2558
    },
    {
      "t": 1108.5,
      "ch": 4,
      "note": 60,
      "vel": 31,
      "dur": 5167
    },
    {
      "t": 1108.5,
      "ch": 3,
      "note": 38,
      "vel": 33,
      "dur": 5217
    },
    {
      "t": 1108.6,
      "ch": 7,
      "note": 48,
      "vel": 73,
      "dur": 80
    },
    {
      "t": 1108.6,
      "ch": 7,
      "note": 36,
      "vel": 71,
      "dur": 80
    },
    {
      "t": 1108.9,
      "ch": 7,
      "note": 45,
      "vel": 61,
      "dur": 80
    },
    {
      "t": 1108.9,
      "ch": 7,
      "note": 36,
      "vel": 50,
      "dur": 80
    },
    {
      "t": 1109.1,
      "ch": 5,
      "note": 65,
      "vel": 4,
      "dur": 1002
    },
    {
      "t": 1109.2,
      "ch": 7,
      "note": 48,
      "vel": 72,
      "dur": 80
    },
    {
      "t": 1109.2,
      "ch": 7,
      "note": 36,
      "vel": 62,
      "dur": 80
    },
    {
      "t": 1109.9,
      "ch": 7,
      "note": 48,
      "vel": 69,
      "dur": 80
    },
    {
      "t": 1109.9,
      "ch": 7,
      "note": 45,
      "vel": 75,
      "dur": 80
    },
    {
      "t": 1109.9,
      "ch": 7,
      "note": 36,
      "vel": 68,
      "dur": 80
    },
    {
      "t": 1109.9,
      "ch": 5,
      "note": 57,
      "vel": 14,
      "dur": 998
    },
    {
      "t": 1110.2,
      "ch": 7,
      "note": 36,
      "vel": 52,
      "dur": 80
    },
    {
      "t": 1110.6,
      "ch": 7,
      "note": 48,
      "vel": 80,
      "dur": 80
    },
    {
      "t": 1110.6,
      "ch": 7,
      "note": 36,
      "vel": 75,
      "dur": 80
    },
    {
      "t": 1110.7,
      "ch": 7,
      "note": 45,
      "vel": 54,
      "dur": 80
    },
    {
      "t": 1110.7,
      "ch": 5,
      "note": 59,
      "vel": 20,
      "dur": 993
    },
    {
      "t": 1111.2,
      "ch": 7,
      "note": 48,
      "vel": 76,
      "dur": 80
    },
    {
      "t": 1111.2,
      "ch": 7,
      "note": 36,
      "vel": 76,
      "dur": 80
    },
    {
      "t": 1111.5,
      "ch": 7,
      "note": 45,
      "vel": 60,
      "dur": 80
    },
    {
      "t": 1111.5,
      "ch": 7,
      "note": 36,
      "vel": 71,
      "dur": 80
    },
    {
      "t": 1111.9,
      "ch": 7,
      "note": 48,
      "vel": 70,
      "dur": 80
    },
    {
      "t": 1111.9,
      "ch": 7,
      "note": 36,
      "vel": 73,
      "dur": 80
    },
    {
      "t": 1112.4,
      "ch": 5,
      "note": 59,
      "vel": 25,
      "dur": 982
    },
    {
      "t": 1112.5,
      "ch": 0,
      "note": 36,
      "vel": 115,
      "dur": 55
    },
    {
      "t": 1112.5,
      "ch": 7,
      "note": 48,
      "vel": 70,
      "dur": 80
    },
    {
      "t": 1112.5,
      "ch": 7,
      "note": 45,
      "vel": 64,
      "dur": 80
    },
    {
      "t": 1112.5,
      "ch": 7,
      "note": 36,
      "vel": 81,
      "dur": 80
    },
    {
      "t": 1112.8,
      "ch": 7,
      "note": 36,
      "vel": 56,
      "dur": 80
    },
    {
      "t": 1113.2,
      "ch": 7,
      "note": 48,
      "vel": 82,
      "dur": 80
    },
    {
      "t": 1113.2,
      "ch": 7,
      "note": 36,
      "vel": 73,
      "dur": 80
    },
    {
      "t": 1113.3,
      "ch": 7,
      "note": 45,
      "vel": 53,
      "dur": 80
    },
    {
      "t": 1113.7,
      "ch": 4,
      "note": 55,
      "vel": 35,
      "dur": 5167
    },
    {
      "t": 1113.7,
      "ch": 4,
      "note": 60,
      "vel": 33,
      "dur": 2608
    },
    {
      "t": 1113.7,
      "ch": 4,
      "note": 59,
      "vel": 50,
      "dur": 2558
    },
    {
      "t": 1113.7,
      "ch": 3,
      "note": 38,
      "vel": 37,
      "dur": 5217
    },
    {
      "t": 1113.8,
      "ch": 0,
      "note": 36,
      "vel": 91,
      "dur": 55
    },
    {
      "t": 1113.8,
      "ch": 7,
      "note": 48,
      "vel": 68,
      "dur": 80
    },
    {
      "t": 1113.8,
      "ch": 7,
      "note": 36,
      "vel": 70,
      "dur": 80
    },
    {
      "t": 1113.8,
      "ch": 5,
      "note": 65,
      "vel": 21,
      "dur": 974
    },
    {
      "t": 1114.1,
      "ch": 7,
      "note": 45,
      "vel": 48,
      "dur": 80
    },
    {
      "t": 1114.1,
      "ch": 7,
      "note": 36,
      "vel": 53,
      "dur": 80
    },
    {
      "t": 1114.5,
      "ch": 7,
      "note": 48,
      "vel": 80,
      "dur": 80
    },
    {
      "t": 1114.5,
      "ch": 7,
      "note": 36,
      "vel": 61,
      "dur": 80
    },
    {
      "t": 1114.5,
      "ch": 5,
      "note": 57,
      "vel": 29,
      "dur": 971
    },
    {
      "t": 1115,
      "ch": 5,
      "note": 59,
      "vel": 48,
      "dur": 969
    },
    {
      "t": 1115.1,
      "ch": 7,
      "note": 48,
      "vel": 64,
      "dur": 80
    },
    {
      "t": 1115.1,
      "ch": 7,
      "note": 45,
      "vel": 82,
      "dur": 80
    },
    {
      "t": 1115.1,
      "ch": 7,
      "note": 36,
      "vel": 70,
      "dur": 80
    },
    {
      "t": 1115.5,
      "ch": 7,
      "note": 36,
      "vel": 65,
      "dur": 80
    },
    {
      "t": 1115.6,
      "ch": 1,
      "note": 40,
      "vel": 72,
      "dur": 25
    },
    {
      "t": 1115.6,
      "ch": 1,
      "note": 42,
      "vel": 72,
      "dur": 25
    },
    {
      "t": 1115.6,
      "ch": 1,
      "note": 36,
      "vel": 77,
      "dur": 25
    },
    {
      "t": 1115.6,
      "ch": 1,
      "note": 38,
      "vel": 77,
      "dur": 25
    },
    {
      "t": 1115.6,
      "ch": 1,
      "note": 40,
      "vel": 79,
      "dur": 25
    },
    {
      "t": 1115.6,
      "ch": 1,
      "note": 42,
      "vel": 70,
      "dur": 25
    },
    {
      "t": 1115.6,
      "ch": 1,
      "note": 36,
      "vel": 76,
      "dur": 25
    },
    {
      "t": 1115.6,
      "ch": 1,
      "note": 38,
      "vel": 80,
      "dur": 25
    },
    {
      "t": 1115.6,
      "ch": 1,
      "note": 40,
      "vel": 85,
      "dur": 25
    },
    {
      "t": 1115.6,
      "ch": 1,
      "note": 42,
      "vel": 90,
      "dur": 25
    },
    {
      "t": 1115.6,
      "ch": 1,
      "note": 36,
      "vel": 74,
      "dur": 25
    },
    {
      "t": 1115.6,
      "ch": 1,
      "note": 38,
      "vel": 82,
      "dur": 25
    },
    {
      "t": 1115.6,
      "ch": 1,
      "note": 40,
      "vel": 85,
      "dur": 25
    },
    {
      "t": 1115.6,
      "ch": 1,
      "note": 42,
      "vel": 73,
      "dur": 25
    },
    {
      "t": 1115.6,
      "ch": 1,
      "note": 36,
      "vel": 56,
      "dur": 25
    },
    {
      "t": 1115.6,
      "ch": 1,
      "note": 38,
      "vel": 87,
      "dur": 25
    },
    {
      "t": 1115.6,
      "ch": 1,
      "note": 40,
      "vel": 84,
      "dur": 25
    },
    {
      "t": 1115.6,
      "ch": 1,
      "note": 42,
      "vel": 53,
      "dur": 25
    },
    {
      "t": 1115.6,
      "ch": 1,
      "note": 36,
      "vel": 73,
      "dur": 25
    },
    {
      "t": 1115.6,
      "ch": 1,
      "note": 38,
      "vel": 76,
      "dur": 25
    },
    {
      "t": 1115.6,
      "ch": 1,
      "note": 40,
      "vel": 89,
      "dur": 25
    },
    {
      "t": 1115.6,
      "ch": 1,
      "note": 42,
      "vel": 57,
      "dur": 25
    },
    {
      "t": 1115.6,
      "ch": 1,
      "note": 36,
      "vel": 58,
      "dur": 25
    },
    {
      "t": 1115.6,
      "ch": 1,
      "note": 38,
      "vel": 75,
      "dur": 25
    },
    {
      "t": 1115.6,
      "ch": 1,
      "note": 40,
      "vel": 82,
      "dur": 25
    },
    {
      "t": 1115.6,
      "ch": 1,
      "note": 42,
      "vel": 83,
      "dur": 25
    },
    {
      "t": 1115.6,
      "ch": 1,
      "note": 36,
      "vel": 76,
      "dur": 25
    },
    {
      "t": 1115.6,
      "ch": 1,
      "note": 38,
      "vel": 71,
      "dur": 25
    },
    {
      "t": 1115.6,
      "ch": 1,
      "note": 40,
      "vel": 76,
      "dur": 25
    },
    {
      "t": 1115.6,
      "ch": 1,
      "note": 42,
      "vel": 86,
      "dur": 25
    },
    {
      "t": 1115.6,
      "ch": 1,
      "note": 36,
      "vel": 53,
      "dur": 25
    },
    {
      "t": 1115.6,
      "ch": 1,
      "note": 38,
      "vel": 73,
      "dur": 25
    },
    {
      "t": 1115.6,
      "ch": 1,
      "note": 40,
      "vel": 65,
      "dur": 25
    },
    {
      "t": 1115.6,
      "ch": 1,
      "note": 42,
      "vel": 67,
      "dur": 25
    },
    {
      "t": 1115.6,
      "ch": 1,
      "note": 36,
      "vel": 88,
      "dur": 25
    },
    {
      "t": 1115.6,
      "ch": 1,
      "note": 38,
      "vel": 81,
      "dur": 25
    },
    {
      "t": 1115.6,
      "ch": 1,
      "note": 40,
      "vel": 70,
      "dur": 25
    },
    {
      "t": 1115.6,
      "ch": 1,
      "note": 42,
      "vel": 93,
      "dur": 25
    },
    {
      "t": 1115.6,
      "ch": 1,
      "note": 36,
      "vel": 74,
      "dur": 25
    },
    {
      "t": 1115.6,
      "ch": 1,
      "note": 38,
      "vel": 90,
      "dur": 25
    },
    {
      "t": 1115.6,
      "ch": 1,
      "note": 40,
      "vel": 83,
      "dur": 25
    },
    {
      "t": 1115.6,
      "ch": 1,
      "note": 42,
      "vel": 76,
      "dur": 25
    },
    {
      "t": 1115.6,
      "ch": 1,
      "note": 36,
      "vel": 73,
      "dur": 25
    },
    {
      "t": 1115.6,
      "ch": 1,
      "note": 38,
      "vel": 84,
      "dur": 25
    },
    {
      "t": 1115.6,
      "ch": 1,
      "note": 40,
      "vel": 55,
      "dur": 25
    },
    {
      "t": 1115.6,
      "ch": 1,
      "note": 42,
      "vel": 61,
      "dur": 25
    },
    {
      "t": 1115.6,
      "ch": 1,
      "note": 36,
      "vel": 84,
      "dur": 25
    },
    {
      "t": 1115.6,
      "ch": 1,
      "note": 38,
      "vel": 91,
      "dur": 25
    },
    {
      "t": 1115.6,
      "ch": 1,
      "note": 40,
      "vel": 96,
      "dur": 25
    },
    {
      "t": 1115.6,
      "ch": 1,
      "note": 42,
      "vel": 80,
      "dur": 25
    },
    {
      "t": 1115.6,
      "ch": 1,
      "note": 36,
      "vel": 73,
      "dur": 25
    },
    {
      "t": 1115.6,
      "ch": 1,
      "note": 38,
      "vel": 79,
      "dur": 25
    },
    {
      "t": 1115.6,
      "ch": 1,
      "note": 40,
      "vel": 73,
      "dur": 25
    },
    {
      "t": 1115.6,
      "ch": 1,
      "note": 42,
      "vel": 64,
      "dur": 25
    },
    {
      "t": 1115.6,
      "ch": 1,
      "note": 36,
      "vel": 78,
      "dur": 25
    },
    {
      "t": 1115.6,
      "ch": 1,
      "note": 38,
      "vel": 60,
      "dur": 25
    },
    {
      "t": 1115.6,
      "ch": 1,
      "note": 40,
      "vel": 76,
      "dur": 25
    },
    {
      "t": 1115.6,
      "ch": 1,
      "note": 42,
      "vel": 85,
      "dur": 25
    },
    {
      "t": 1115.6,
      "ch": 1,
      "note": 36,
      "vel": 60,
      "dur": 25
    },
    {
      "t": 1115.6,
      "ch": 1,
      "note": 38,
      "vel": 77,
      "dur": 25
    },
    {
      "t": 1115.6,
      "ch": 1,
      "note": 40,
      "vel": 63,
      "dur": 25
    },
    {
      "t": 1115.6,
      "ch": 1,
      "note": 42,
      "vel": 85,
      "dur": 25
    },
    {
      "t": 1115.6,
      "ch": 1,
      "note": 36,
      "vel": 83,
      "dur": 25
    },
    {
      "t": 1115.6,
      "ch": 1,
      "note": 38,
      "vel": 60,
      "dur": 25
    },
    {
      "t": 1115.6,
      "ch": 1,
      "note": 40,
      "vel": 77,
      "dur": 25
    },
    {
      "t": 1115.6,
      "ch": 1,
      "note": 42,
      "vel": 81,
      "dur": 25
    },
    {
      "t": 1115.6,
      "ch": 1,
      "note": 36,
      "vel": 66,
      "dur": 25
    },
    {
      "t": 1115.6,
      "ch": 1,
      "note": 38,
      "vel": 56,
      "dur": 25
    },
    {
      "t": 1115.6,
      "ch": 1,
      "note": 40,
      "vel": 85,
      "dur": 25
    },
    {
      "t": 1115.6,
      "ch": 1,
      "note": 42,
      "vel": 84,
      "dur": 25
    },
    {
      "t": 1115.6,
      "ch": 1,
      "note": 36,
      "vel": 65,
      "dur": 25
    },
    {
      "t": 1115.6,
      "ch": 1,
      "note": 38,
      "vel": 70,
      "dur": 25
    },
    {
      "t": 1115.6,
      "ch": 1,
      "note": 40,
      "vel": 76,
      "dur": 25
    },
    {
      "t": 1115.6,
      "ch": 1,
      "note": 42,
      "vel": 67,
      "dur": 25
    },
    {
      "t": 1115.6,
      "ch": 1,
      "note": 36,
      "vel": 73,
      "dur": 25
    },
    {
      "t": 1115.6,
      "ch": 1,
      "note": 38,
      "vel": 79,
      "dur": 25
    },
    {
      "t": 1115.6,
      "ch": 1,
      "note": 40,
      "vel": 66,
      "dur": 25
    },
    {
      "t": 1115.6,
      "ch": 1,
      "note": 42,
      "vel": 98,
      "dur": 25
    },
    {
      "t": 1115.6,
      "ch": 1,
      "note": 36,
      "vel": 70,
      "dur": 25
    },
    {
      "t": 1115.6,
      "ch": 1,
      "note": 38,
      "vel": 64,
      "dur": 25
    },
    {
      "t": 1115.6,
      "ch": 1,
      "note": 40,
      "vel": 99,
      "dur": 25
    },
    {
      "t": 1115.6,
      "ch": 1,
      "note": 42,
      "vel": 64,
      "dur": 25
    },
    {
      "t": 1115.6,
      "ch": 1,
      "note": 36,
      "vel": 79,
      "dur": 25
    },
    {
      "t": 1115.6,
      "ch": 1,
      "note": 38,
      "vel": 73,
      "dur": 25
    },
    {
      "t": 1115.6,
      "ch": 1,
      "note": 40,
      "vel": 80,
      "dur": 25
    },
    {
      "t": 1115.6,
      "ch": 1,
      "note": 42,
      "vel": 47,
      "dur": 25
    },
    {
      "t": 1115.6,
      "ch": 1,
      "note": 36,
      "vel": 87,
      "dur": 25
    },
    {
      "t": 1115.6,
      "ch": 1,
      "note": 38,
      "vel": 80,
      "dur": 25
    },
    {
      "t": 1115.6,
      "ch": 1,
      "note": 40,
      "vel": 80,
      "dur": 25
    },
    {
      "t": 1115.6,
      "ch": 1,
      "note": 42,
      "vel": 93,
      "dur": 25
    },
    {
      "t": 1115.6,
      "ch": 1,
      "note": 36,
      "vel": 73,
      "dur": 25
    },
    {
      "t": 1115.6,
      "ch": 1,
      "note": 38,
      "vel": 84,
      "dur": 25
    },
    {
      "t": 1115.6,
      "ch": 1,
      "note": 40,
      "vel": 64,
      "dur": 25
    },
    {
      "t": 1115.6,
      "ch": 1,
      "note": 42,
      "vel": 71,
      "dur": 25
    },
    {
      "t": 1115.6,
      "ch": 1,
      "note": 36,
      "vel": 78,
      "dur": 25
    },
    {
      "t": 1115.6,
      "ch": 1,
      "note": 38,
      "vel": 63,
      "dur": 25
    },
    {
      "t": 1115.6,
      "ch": 1,
      "note": 40,
      "vel": 49,
      "dur": 25
    },
    {
      "t": 1115.6,
      "ch": 1,
      "note": 42,
      "vel": 81,
      "dur": 25
    },
    {
      "t": 1115.6,
      "ch": 1,
      "note": 36,
      "vel": 83,
      "dur": 25
    },
    {
      "t": 1115.6,
      "ch": 1,
      "note": 38,
      "vel": 75,
      "dur": 25
    },
    {
      "t": 1115.6,
      "ch": 1,
      "note": 40,
      "vel": 96,
      "dur": 25
    },
    {
      "t": 1115.6,
      "ch": 1,
      "note": 42,
      "vel": 55,
      "dur": 25
    },
    {
      "t": 1115.6,
      "ch": 1,
      "note": 36,
      "vel": 71,
      "dur": 25
    },
    {
      "t": 1115.6,
      "ch": 1,
      "note": 38,
      "vel": 72,
      "dur": 25
    },
    {
      "t": 1115.6,
      "ch": 1,
      "note": 40,
      "vel": 54,
      "dur": 25
    },
    {
      "t": 1115.6,
      "ch": 1,
      "note": 42,
      "vel": 65,
      "dur": 25
    },
    {
      "t": 1115.6,
      "ch": 1,
      "note": 36,
      "vel": 85,
      "dur": 25
    },
    {
      "t": 1115.6,
      "ch": 1,
      "note": 38,
      "vel": 77,
      "dur": 25
    },
    {
      "t": 1115.6,
      "ch": 1,
      "note": 40,
      "vel": 52,
      "dur": 25
    },
    {
      "t": 1115.6,
      "ch": 1,
      "note": 42,
      "vel": 74,
      "dur": 25
    },
    {
      "t": 1115.6,
      "ch": 1,
      "note": 36,
      "vel": 67,
      "dur": 25
    },
    {
      "t": 1115.6,
      "ch": 1,
      "note": 38,
      "vel": 59,
      "dur": 25
    },
    {
      "t": 1115.6,
      "ch": 1,
      "note": 40,
      "vel": 84,
      "dur": 25
    },
    {
      "t": 1115.6,
      "ch": 1,
      "note": 42,
      "vel": 58,
      "dur": 25
    },
    {
      "t": 1115.6,
      "ch": 1,
      "note": 36,
      "vel": 80,
      "dur": 25
    },
    {
      "t": 1115.6,
      "ch": 1,
      "note": 38,
      "vel": 48,
      "dur": 25
    },
    {
      "t": 1115.6,
      "ch": 1,
      "note": 40,
      "vel": 71,
      "dur": 25
    },
    {
      "t": 1115.6,
      "ch": 1,
      "note": 42,
      "vel": 88,
      "dur": 25
    },
    {
      "t": 1115.6,
      "ch": 1,
      "note": 36,
      "vel": 67,
      "dur": 25
    },
    {
      "t": 1115.6,
      "ch": 1,
      "note": 38,
      "vel": 88,
      "dur": 25
    },
    {
      "t": 1115.6,
      "ch": 1,
      "note": 40,
      "vel": 81,
      "dur": 25
    },
    {
      "t": 1115.6,
      "ch": 1,
      "note": 42,
      "vel": 94,
      "dur": 25
    },
    {
      "t": 1115.6,
      "ch": 1,
      "note": 36,
      "vel": 66,
      "dur": 25
    },
    {
      "t": 1115.6,
      "ch": 1,
      "note": 38,
      "vel": 88,
      "dur": 25
    },
    {
      "t": 1115.6,
      "ch": 1,
      "note": 40,
      "vel": 48,
      "dur": 25
    },
    {
      "t": 1115.6,
      "ch": 1,
      "note": 42,
      "vel": 81,
      "dur": 25
    },
    {
      "t": 1115.6,
      "ch": 1,
      "note": 36,
      "vel": 73,
      "dur": 25
    },
    {
      "t": 1115.6,
      "ch": 1,
      "note": 38,
      "vel": 72,
      "dur": 25
    },
    {
      "t": 1115.6,
      "ch": 1,
      "note": 40,
      "vel": 53,
      "dur": 25
    },
    {
      "t": 1115.6,
      "ch": 1,
      "note": 42,
      "vel": 59,
      "dur": 25
    },
    {
      "t": 1115.6,
      "ch": 1,
      "note": 36,
      "vel": 69,
      "dur": 25
    },
    {
      "t": 1115.6,
      "ch": 1,
      "note": 38,
      "vel": 80,
      "dur": 25
    },
    {
      "t": 1115.6,
      "ch": 1,
      "note": 40,
      "vel": 79,
      "dur": 25
    },
    {
      "t": 1115.6,
      "ch": 1,
      "note": 42,
      "vel": 95,
      "dur": 25
    },
    {
      "t": 1115.6,
      "ch": 1,
      "note": 36,
      "vel": 79,
      "dur": 25
    },
    {
      "t": 1115.6,
      "ch": 1,
      "note": 38,
      "vel": 81,
      "dur": 25
    },
    {
      "t": 1115.6,
      "ch": 1,
      "note": 40,
      "vel": 56,
      "dur": 25
    },
    {
      "t": 1115.6,
      "ch": 1,
      "note": 42,
      "vel": 65,
      "dur": 25
    },
    {
      "t": 1115.6,
      "ch": 1,
      "note": 36,
      "vel": 82,
      "dur": 25
    },
    {
      "t": 1115.6,
      "ch": 1,
      "note": 38,
      "vel": 75,
      "dur": 25
    },
    {
      "t": 1115.6,
      "ch": 1,
      "note": 40,
      "vel": 61,
      "dur": 25
    },
    {
      "t": 1115.6,
      "ch": 1,
      "note": 42,
      "vel": 84,
      "dur": 25
    },
    {
      "t": 1115.6,
      "ch": 1,
      "note": 36,
      "vel": 81,
      "dur": 25
    },
    {
      "t": 1115.6,
      "ch": 1,
      "note": 38,
      "vel": 89,
      "dur": 25
    },
    {
      "t": 1115.6,
      "ch": 1,
      "note": 40,
      "vel": 57,
      "dur": 25
    },
    {
      "t": 1115.6,
      "ch": 1,
      "note": 42,
      "vel": 90,
      "dur": 25
    },
    {
      "t": 1115.6,
      "ch": 1,
      "note": 36,
      "vel": 71,
      "dur": 25
    },
    {
      "t": 1115.6,
      "ch": 1,
      "note": 38,
      "vel": 97,
      "dur": 25
    },
    {
      "t": 1115.6,
      "ch": 1,
      "note": 40,
      "vel": 72,
      "dur": 25
    },
    {
      "t": 1115.6,
      "ch": 1,
      "note": 42,
      "vel": 88,
      "dur": 25
    },
    {
      "t": 1115.6,
      "ch": 1,
      "note": 36,
      "vel": 80,
      "dur": 25
    },
    {
      "t": 1115.6,
      "ch": 1,
      "note": 38,
      "vel": 71,
      "dur": 25
    },
    {
      "t": 1115.6,
      "ch": 1,
      "note": 40,
      "vel": 63,
      "dur": 25
    },
    {
      "t": 1115.6,
      "ch": 1,
      "note": 42,
      "vel": 65,
      "dur": 25
    },
    {
      "t": 1115.6,
      "ch": 1,
      "note": 36,
      "vel": 47,
      "dur": 25
    },
    {
      "t": 1115.6,
      "ch": 1,
      "note": 38,
      "vel": 83,
      "dur": 25
    },
    {
      "t": 1115.6,
      "ch": 1,
      "note": 40,
      "vel": 67,
      "dur": 25
    },
    {
      "t": 1115.6,
      "ch": 1,
      "note": 42,
      "vel": 83,
      "dur": 25
    },
    {
      "t": 1115.6,
      "ch": 1,
      "note": 36,
      "vel": 77,
      "dur": 25
    },
    {
      "t": 1115.6,
      "ch": 1,
      "note": 38,
      "vel": 76,
      "dur": 25
    },
    {
      "t": 1115.6,
      "ch": 1,
      "note": 40,
      "vel": 91,
      "dur": 25
    },
    {
      "t": 1115.6,
      "ch": 1,
      "note": 42,
      "vel": 97,
      "dur": 25
    },
    {
      "t": 1115.6,
      "ch": 1,
      "note": 36,
      "vel": 54,
      "dur": 25
    },
    {
      "t": 1115.6,
      "ch": 1,
      "note": 38,
      "vel": 71,
      "dur": 25
    },
    {
      "t": 1115.6,
      "ch": 1,
      "note": 40,
      "vel": 88,
      "dur": 25
    },
    {
      "t": 1115.6,
      "ch": 1,
      "note": 42,
      "vel": 84,
      "dur": 25
    },
    {
      "t": 1115.6,
      "ch": 1,
      "note": 36,
      "vel": 67,
      "dur": 25
    },
    {
      "t": 1115.6,
      "ch": 1,
      "note": 38,
      "vel": 63,
      "dur": 25
    },
    {
      "t": 1115.6,
      "ch": 1,
      "note": 40,
      "vel": 66,
      "dur": 25
    },
    {
      "t": 1115.6,
      "ch": 1,
      "note": 42,
      "vel": 84,
      "dur": 25
    },
    {
      "t": 1115.6,
      "ch": 1,
      "note": 36,
      "vel": 99,
      "dur": 25
    },
    {
      "t": 1115.6,
      "ch": 1,
      "note": 38,
      "vel": 70,
      "dur": 25
    },
    {
      "t": 1115.6,
      "ch": 1,
      "note": 40,
      "vel": 80,
      "dur": 25
    },
    {
      "t": 1115.6,
      "ch": 1,
      "note": 42,
      "vel": 61,
      "dur": 25
    },
    {
      "t": 1115.6,
      "ch": 1,
      "note": 36,
      "vel": 71,
      "dur": 25
    },
    {
      "t": 1115.6,
      "ch": 1,
      "note": 38,
      "vel": 71,
      "dur": 25
    },
    {
      "t": 1115.6,
      "ch": 1,
      "note": 40,
      "vel": 67,
      "dur": 25
    },
    {
      "t": 1115.6,
      "ch": 1,
      "note": 42,
      "vel": 64,
      "dur": 25
    },
    {
      "t": 1115.6,
      "ch": 1,
      "note": 36,
      "vel": 91,
      "dur": 25
    },
    {
      "t": 1115.6,
      "ch": 1,
      "note": 38,
      "vel": 72,
      "dur": 25
    },
    {
      "t": 1115.6,
      "ch": 1,
      "note": 40,
      "vel": 80,
      "dur": 25
    },
    {
      "t": 1115.6,
      "ch": 1,
      "note": 42,
      "vel": 72,
      "dur": 25
    },
    {
      "t": 1115.6,
      "ch": 1,
      "note": 36,
      "vel": 80,
      "dur": 25
    },
    {
      "t": 1115.6,
      "ch": 1,
      "note": 38,
      "vel": 83,
      "dur": 25
    },
    {
      "t": 1115.6,
      "ch": 1,
      "note": 40,
      "vel": 78,
      "dur": 25
    },
    {
      "t": 1115.6,
      "ch": 1,
      "note": 42,
      "vel": 70,
      "dur": 25
    },
    {
      "t": 1115.6,
      "ch": 1,
      "note": 36,
      "vel": 88,
      "dur": 25
    },
    {
      "t": 1115.6,
      "ch": 1,
      "note": 38,
      "vel": 94,
      "dur": 25
    },
    {
      "t": 1115.6,
      "ch": 1,
      "note": 40,
      "vel": 76,
      "dur": 25
    },
    {
      "t": 1115.6,
      "ch": 1,
      "note": 42,
      "vel": 68,
      "dur": 25
    },
    {
      "t": 1115.6,
      "ch": 1,
      "note": 36,
      "vel": 60,
      "dur": 25
    },
    {
      "t": 1115.6,
      "ch": 1,
      "note": 38,
      "vel": 85,
      "dur": 25
    },
    {
      "t": 1115.6,
      "ch": 1,
      "note": 40,
      "vel": 79,
      "dur": 25
    },
    {
      "t": 1115.6,
      "ch": 1,
      "note": 42,
      "vel": 74,
      "dur": 25
    },
    {
      "t": 1115.6,
      "ch": 1,
      "note": 36,
      "vel": 76,
      "dur": 25
    },
    {
      "t": 1115.6,
      "ch": 1,
      "note": 38,
      "vel": 86,
      "dur": 25
    },
    {
      "t": 1115.6,
      "ch": 1,
      "note": 40,
      "vel": 86,
      "dur": 25
    },
    {
      "t": 1115.6,
      "ch": 1,
      "note": 42,
      "vel": 70,
      "dur": 25
    },
    {
      "t": 1115.6,
      "ch": 1,
      "note": 36,
      "vel": 82,
      "dur": 25
    },
    {
      "t": 1115.6,
      "ch": 1,
      "note": 38,
      "vel": 65,
      "dur": 25
    },
    {
      "t": 1115.6,
      "ch": 1,
      "note": 40,
      "vel": 66,
      "dur": 25
    },
    {
      "t": 1115.6,
      "ch": 1,
      "note": 42,
      "vel": 85,
      "dur": 25
    },
    {
      "t": 1115.6,
      "ch": 1,
      "note": 36,
      "vel": 77,
      "dur": 25
    },
    {
      "t": 1115.6,
      "ch": 1,
      "note": 38,
      "vel": 84,
      "dur": 25
    },
    {
      "t": 1115.6,
      "ch": 1,
      "note": 40,
      "vel": 57,
      "dur": 25
    },
    {
      "t": 1115.6,
      "ch": 1,
      "note": 42,
      "vel": 74,
      "dur": 25
    },
    {
      "t": 1115.6,
      "ch": 1,
      "note": 36,
      "vel": 70,
      "dur": 25
    },
    {
      "t": 1115.6,
      "ch": 1,
      "note": 38,
      "vel": 70,
      "dur": 25
    },
    {
      "t": 1115.6,
      "ch": 1,
      "note": 40,
      "vel": 70,
      "dur": 25
    },
    {
      "t": 1115.6,
      "ch": 1,
      "note": 42,
      "vel": 88,
      "dur": 25
    },
    {
      "t": 1115.6,
      "ch": 1,
      "note": 36,
      "vel": 78,
      "dur": 25
    },
    {
      "t": 1115.6,
      "ch": 1,
      "note": 38,
      "vel": 88,
      "dur": 25
    },
    {
      "t": 1115.6,
      "ch": 1,
      "note": 40,
      "vel": 68,
      "dur": 25
    },
    {
      "t": 1115.6,
      "ch": 1,
      "note": 42,
      "vel": 61,
      "dur": 25
    },
    {
      "t": 1115.6,
      "ch": 1,
      "note": 36,
      "vel": 76,
      "dur": 25
    },
    {
      "t": 1115.6,
      "ch": 1,
      "note": 38,
      "vel": 67,
      "dur": 25
    },
    {
      "t": 1115.6,
      "ch": 1,
      "note": 40,
      "vel": 59,
      "dur": 25
    },
    {
      "t": 1115.6,
      "ch": 1,
      "note": 42,
      "vel": 88,
      "dur": 25
    },
    {
      "t": 1115.6,
      "ch": 1,
      "note": 36,
      "vel": 56,
      "dur": 25
    },
    {
      "t": 1115.6,
      "ch": 1,
      "note": 38,
      "vel": 69,
      "dur": 25
    },
    {
      "t": 1115.6,
      "ch": 1,
      "note": 40,
      "vel": 90,
      "dur": 25
    },
    {
      "t": 1115.6,
      "ch": 1,
      "note": 42,
      "vel": 67,
      "dur": 25
    },
    {
      "t": 1115.6,
      "ch": 1,
      "note": 36,
      "vel": 70,
      "dur": 25
    },
    {
      "t": 1115.6,
      "ch": 1,
      "note": 38,
      "vel": 63,
      "dur": 25
    },
    {
      "t": 1115.6,
      "ch": 1,
      "note": 40,
      "vel": 71,
      "dur": 25
    },
    {
      "t": 1115.6,
      "ch": 1,
      "note": 42,
      "vel": 104,
      "dur": 25
    },
    {
      "t": 1115.6,
      "ch": 1,
      "note": 36,
      "vel": 73,
      "dur": 25
    },
    {
      "t": 1115.6,
      "ch": 1,
      "note": 38,
      "vel": 66,
      "dur": 25
    },
    {
      "t": 1115.6,
      "ch": 1,
      "note": 40,
      "vel": 77,
      "dur": 25
    },
    {
      "t": 1115.6,
      "ch": 1,
      "note": 42,
      "vel": 73,
      "dur": 25
    },
    {
      "t": 1115.6,
      "ch": 1,
      "note": 36,
      "vel": 67,
      "dur": 25
    },
    {
      "t": 1115.6,
      "ch": 1,
      "note": 38,
      "vel": 80,
      "dur": 25
    },
    {
      "t": 1115.6,
      "ch": 1,
      "note": 40,
      "vel": 69,
      "dur": 25
    },
    {
      "t": 1115.6,
      "ch": 1,
      "note": 42,
      "vel": 78,
      "dur": 25
    },
    {
      "t": 1115.6,
      "ch": 1,
      "note": 36,
      "vel": 86,
      "dur": 25
    },
    {
      "t": 1115.6,
      "ch": 1,
      "note": 38,
      "vel": 56,
      "dur": 25
    },
    {
      "t": 1115.6,
      "ch": 1,
      "note": 40,
      "vel": 76,
      "dur": 25
    },
    {
      "t": 1115.6,
      "ch": 1,
      "note": 42,
      "vel": 78,
      "dur": 25
    },
    {
      "t": 1115.6,
      "ch": 1,
      "note": 36,
      "vel": 93,
      "dur": 25
    },
    {
      "t": 1115.6,
      "ch": 1,
      "note": 38,
      "vel": 53,
      "dur": 25
    },
    {
      "t": 1115.6,
      "ch": 1,
      "note": 40,
      "vel": 70,
      "dur": 25
    },
    {
      "t": 1115.6,
      "ch": 1,
      "note": 42,
      "vel": 75,
      "dur": 25
    },
    {
      "t": 1115.6,
      "ch": 1,
      "note": 36,
      "vel": 67,
      "dur": 25
    },
    {
      "t": 1115.6,
      "ch": 1,
      "note": 38,
      "vel": 53,
      "dur": 25
    },
    {
      "t": 1115.6,
      "ch": 1,
      "note": 40,
      "vel": 84,
      "dur": 25
    },
    {
      "t": 1115.6,
      "ch": 1,
      "note": 42,
      "vel": 71,
      "dur": 25
    },
    {
      "t": 1115.6,
      "ch": 1,
      "note": 36,
      "vel": 87,
      "dur": 25
    },
    {
      "t": 1115.6,
      "ch": 1,
      "note": 38,
      "vel": 79,
      "dur": 25
    },
    {
      "t": 1115.6,
      "ch": 1,
      "note": 40,
      "vel": 56,
      "dur": 25
    },
    {
      "t": 1115.6,
      "ch": 1,
      "note": 42,
      "vel": 87,
      "dur": 25
    },
    {
      "t": 1115.6,
      "ch": 1,
      "note": 36,
      "vel": 79,
      "dur": 25
    },
    {
      "t": 1115.6,
      "ch": 1,
      "note": 38,
      "vel": 71,
      "dur": 25
    },
    {
      "t": 1115.6,
      "ch": 1,
      "note": 40,
      "vel": 69,
      "dur": 25
    },
    {
      "t": 1115.6,
      "ch": 1,
      "note": 42,
      "vel": 67,
      "dur": 25
    },
    {
      "t": 1115.6,
      "ch": 1,
      "note": 36,
      "vel": 72,
      "dur": 25
    },
    {
      "t": 1115.6,
      "ch": 1,
      "note": 38,
      "vel": 71,
      "dur": 25
    },
    {
      "t": 1115.6,
      "ch": 1,
      "note": 40,
      "vel": 64,
      "dur": 25
    },
    {
      "t": 1115.6,
      "ch": 1,
      "note": 42,
      "vel": 74,
      "dur": 25
    },
    {
      "t": 1115.6,
      "ch": 1,
      "note": 36,
      "vel": 60,
      "dur": 25
    },
    {
      "t": 1115.6,
      "ch": 1,
      "note": 38,
      "vel": 79,
      "dur": 25
    },
    {
      "t": 1115.6,
      "ch": 1,
      "note": 40,
      "vel": 81,
      "dur": 25
    },
    {
      "t": 1115.6,
      "ch": 1,
      "note": 42,
      "vel": 75,
      "dur": 25
    },
    {
      "t": 1115.6,
      "ch": 1,
      "note": 36,
      "vel": 94,
      "dur": 25
    },
    {
      "t": 1115.6,
      "ch": 1,
      "note": 38,
      "vel": 63,
      "dur": 25
    },
    {
      "t": 1115.6,
      "ch": 1,
      "note": 40,
      "vel": 72,
      "dur": 25
    },
    {
      "t": 1115.6,
      "ch": 1,
      "note": 42,
      "vel": 92,
      "dur": 25
    },
    {
      "t": 1115.6,
      "ch": 1,
      "note": 36,
      "vel": 89,
      "dur": 25
    },
    {
      "t": 1115.6,
      "ch": 1,
      "note": 38,
      "vel": 100,
      "dur": 25
    },
    {
      "t": 1115.6,
      "ch": 1,
      "note": 40,
      "vel": 90,
      "dur": 25
    },
    {
      "t": 1115.6,
      "ch": 1,
      "note": 42,
      "vel": 92,
      "dur": 25
    },
    {
      "t": 1115.6,
      "ch": 1,
      "note": 36,
      "vel": 77,
      "dur": 25
    },
    {
      "t": 1115.6,
      "ch": 1,
      "note": 38,
      "vel": 93,
      "dur": 25
    },
    {
      "t": 1115.6,
      "ch": 1,
      "note": 40,
      "vel": 85,
      "dur": 25
    },
    {
      "t": 1115.6,
      "ch": 1,
      "note": 42,
      "vel": 65,
      "dur": 25
    },
    {
      "t": 1115.6,
      "ch": 1,
      "note": 36,
      "vel": 81,
      "dur": 25
    },
    {
      "t": 1115.6,
      "ch": 1,
      "note": 38,
      "vel": 73,
      "dur": 25
    },
    {
      "t": 1115.6,
      "ch": 1,
      "note": 40,
      "vel": 69,
      "dur": 25
    },
    {
      "t": 1115.6,
      "ch": 1,
      "note": 42,
      "vel": 76,
      "dur": 25
    },
    {
      "t": 1115.6,
      "ch": 1,
      "note": 36,
      "vel": 86,
      "dur": 25
    },
    {
      "t": 1115.6,
      "ch": 1,
      "note": 38,
      "vel": 71,
      "dur": 25
    },
    {
      "t": 1115.6,
      "ch": 1,
      "note": 40,
      "vel": 91,
      "dur": 25
    },
    {
      "t": 1115.6,
      "ch": 1,
      "note": 42,
      "vel": 85,
      "dur": 25
    },
    {
      "t": 1115.6,
      "ch": 1,
      "note": 36,
      "vel": 78,
      "dur": 25
    },
    {
      "t": 1115.6,
      "ch": 1,
      "note": 38,
      "vel": 63,
      "dur": 25
    },
    {
      "t": 1115.6,
      "ch": 1,
      "note": 40,
      "vel": 65,
      "dur": 25
    },
    {
      "t": 1115.6,
      "ch": 1,
      "note": 42,
      "vel": 85,
      "dur": 25
    },
    {
      "t": 1115.6,
      "ch": 1,
      "note": 36,
      "vel": 81,
      "dur": 25
    },
    {
      "t": 1115.6,
      "ch": 1,
      "note": 38,
      "vel": 83,
      "dur": 25
    },
    {
      "t": 1115.6,
      "ch": 1,
      "note": 40,
      "vel": 65,
      "dur": 25
    },
    {
      "t": 1115.6,
      "ch": 1,
      "note": 42,
      "vel": 84,
      "dur": 25
    },
    {
      "t": 1115.6,
      "ch": 1,
      "note": 36,
      "vel": 83,
      "dur": 25
    },
    {
      "t": 1115.6,
      "ch": 1,
      "note": 38,
      "vel": 74,
      "dur": 25
    },
    {
      "t": 1115.6,
      "ch": 1,
      "note": 40,
      "vel": 73,
      "dur": 25
    },
    {
      "t": 1115.6,
      "ch": 1,
      "note": 42,
      "vel": 80,
      "dur": 25
    },
    {
      "t": 1115.6,
      "ch": 1,
      "note": 36,
      "vel": 78,
      "dur": 25
    },
    {
      "t": 1115.6,
      "ch": 1,
      "note": 38,
      "vel": 77,
      "dur": 25
    },
    {
      "t": 1115.6,
      "ch": 1,
      "note": 40,
      "vel": 88,
      "dur": 25
    },
    {
      "t": 1115.6,
      "ch": 1,
      "note": 42,
      "vel": 70,
      "dur": 25
    },
    {
      "t": 1115.6,
      "ch": 1,
      "note": 36,
      "vel": 71,
      "dur": 25
    },
    {
      "t": 1115.6,
      "ch": 1,
      "note": 38,
      "vel": 61,
      "dur": 25
    },
    {
      "t": 1115.6,
      "ch": 1,
      "note": 40,
      "vel": 72,
      "dur": 25
    },
    {
      "t": 1115.6,
      "ch": 1,
      "note": 42,
      "vel": 79,
      "dur": 25
    },
    {
      "t": 1115.6,
      "ch": 1,
      "note": 36,
      "vel": 83,
      "dur": 25
    },
    {
      "t": 1115.6,
      "ch": 1,
      "note": 38,
      "vel": 85,
      "dur": 25
    },
    {
      "t": 1115.6,
      "ch": 1,
      "note": 40,
      "vel": 72,
      "dur": 25
    },
    {
      "t": 1115.6,
      "ch": 1,
      "note": 42,
      "vel": 69,
      "dur": 25
    },
    {
      "t": 1115.6,
      "ch": 1,
      "note": 36,
      "vel": 90,
      "dur": 25
    },
    {
      "t": 1115.6,
      "ch": 1,
      "note": 38,
      "vel": 59,
      "dur": 25
    },
    {
      "t": 1115.6,
      "ch": 1,
      "note": 40,
      "vel": 65,
      "dur": 25
    },
    {
      "t": 1115.6,
      "ch": 1,
      "note": 42,
      "vel": 96,
      "dur": 25
    },
    {
      "t": 1115.6,
      "ch": 1,
      "note": 36,
      "vel": 72,
      "dur": 25
    },
    {
      "t": 1115.6,
      "ch": 1,
      "note": 38,
      "vel": 87,
      "dur": 25
    },
    {
      "t": 1115.6,
      "ch": 1,
      "note": 40,
      "vel": 69,
      "dur": 25
    },
    {
      "t": 1115.6,
      "ch": 1,
      "note": 42,
      "vel": 75,
      "dur": 25
    },
    {
      "t": 1115.6,
      "ch": 1,
      "note": 36,
      "vel": 69,
      "dur": 25
    },
    {
      "t": 1115.6,
      "ch": 1,
      "note": 38,
      "vel": 66,
      "dur": 25
    },
    {
      "t": 1115.6,
      "ch": 1,
      "note": 40,
      "vel": 71,
      "dur": 25
    },
    {
      "t": 1115.6,
      "ch": 1,
      "note": 42,
      "vel": 81,
      "dur": 25
    },
    {
      "t": 1115.6,
      "ch": 1,
      "note": 36,
      "vel": 67,
      "dur": 25
    },
    {
      "t": 1115.6,
      "ch": 1,
      "note": 38,
      "vel": 86,
      "dur": 25
    },
    {
      "t": 1115.6,
      "ch": 1,
      "note": 40,
      "vel": 96,
      "dur": 25
    },
    {
      "t": 1115.6,
      "ch": 1,
      "note": 42,
      "vel": 60,
      "dur": 25
    },
    {
      "t": 1115.6,
      "ch": 1,
      "note": 36,
      "vel": 93,
      "dur": 25
    },
    {
      "t": 1115.6,
      "ch": 1,
      "note": 38,
      "vel": 98,
      "dur": 25
    },
    {
      "t": 1115.6,
      "ch": 1,
      "note": 40,
      "vel": 68,
      "dur": 25
    },
    {
      "t": 1115.6,
      "ch": 1,
      "note": 42,
      "vel": 71,
      "dur": 25
    },
    {
      "t": 1115.6,
      "ch": 1,
      "note": 36,
      "vel": 84,
      "dur": 25
    },
    {
      "t": 1115.6,
      "ch": 1,
      "note": 38,
      "vel": 78,
      "dur": 25
    },
    {
      "t": 1115.6,
      "ch": 1,
      "note": 40,
      "vel": 91,
      "dur": 25
    },
    {
      "t": 1115.6,
      "ch": 1,
      "note": 42,
      "vel": 85,
      "dur": 25
    },
    {
      "t": 1115.6,
      "ch": 1,
      "note": 36,
      "vel": 59,
      "dur": 25
    },
    {
      "t": 1115.6,
      "ch": 1,
      "note": 38,
      "vel": 88,
      "dur": 25
    },
    {
      "t": 1115.6,
      "ch": 1,
      "note": 40,
      "vel": 86,
      "dur": 25
    },
    {
      "t": 1115.6,
      "ch": 1,
      "note": 42,
      "vel": 72,
      "dur": 25
    },
    {
      "t": 1115.6,
      "ch": 1,
      "note": 36,
      "vel": 85,
      "dur": 25
    },
    {
      "t": 1115.6,
      "ch": 1,
      "note": 38,
      "vel": 79,
      "dur": 25
    },
    {
      "t": 1115.6,
      "ch": 1,
      "note": 40,
      "vel": 69,
      "dur": 25
    },
    {
      "t": 1115.6,
      "ch": 1,
      "note": 42,
      "vel": 63,
      "dur": 25
    },
    {
      "t": 1115.6,
      "ch": 1,
      "note": 36,
      "vel": 60,
      "dur": 25
    },
    {
      "t": 1115.6,
      "ch": 1,
      "note": 38,
      "vel": 64,
      "dur": 25
    },
    {
      "t": 1115.6,
      "ch": 1,
      "note": 40,
      "vel": 70,
      "dur": 25
    },
    {
      "t": 1115.6,
      "ch": 1,
      "note": 42,
      "vel": 82,
      "dur": 25
    },
    {
      "t": 1115.6,
      "ch": 1,
      "note": 36,
      "vel": 46,
      "dur": 25
    },
    {
      "t": 1115.6,
      "ch": 1,
      "note": 38,
      "vel": 56,
      "dur": 25
    },
    {
      "t": 1115.6,
      "ch": 1,
      "note": 40,
      "vel": 72,
      "dur": 25
    },
    {
      "t": 1115.6,
      "ch": 1,
      "note": 42,
      "vel": 77,
      "dur": 25
    },
    {
      "t": 1115.6,
      "ch": 1,
      "note": 36,
      "vel": 76,
      "dur": 25
    },
    {
      "t": 1115.6,
      "ch": 1,
      "note": 38,
      "vel": 72,
      "dur": 25
    },
    {
      "t": 1115.6,
      "ch": 1,
      "note": 40,
      "vel": 89,
      "dur": 25
    },
    {
      "t": 1115.6,
      "ch": 1,
      "note": 42,
      "vel": 80,
      "dur": 25
    },
    {
      "t": 1115.6,
      "ch": 1,
      "note": 36,
      "vel": 85,
      "dur": 25
    },
    {
      "t": 1115.6,
      "ch": 1,
      "note": 38,
      "vel": 74,
      "dur": 25
    },
    {
      "t": 1115.6,
      "ch": 1,
      "note": 40,
      "vel": 76,
      "dur": 25
    },
    {
      "t": 1115.6,
      "ch": 1,
      "note": 42,
      "vel": 61,
      "dur": 25
    },
    {
      "t": 1115.6,
      "ch": 1,
      "note": 36,
      "vel": 64,
      "dur": 25
    },
    {
      "t": 1115.6,
      "ch": 1,
      "note": 38,
      "vel": 60,
      "dur": 25
    },
    {
      "t": 1115.6,
      "ch": 1,
      "note": 40,
      "vel": 85,
      "dur": 25
    },
    {
      "t": 1115.6,
      "ch": 1,
      "note": 42,
      "vel": 76,
      "dur": 25
    },
    {
      "t": 1115.6,
      "ch": 1,
      "note": 36,
      "vel": 73,
      "dur": 25
    },
    {
      "t": 1115.6,
      "ch": 1,
      "note": 38,
      "vel": 71,
      "dur": 25
    },
    {
      "t": 1115.6,
      "ch": 1,
      "note": 40,
      "vel": 94,
      "dur": 25
    },
    {
      "t": 1115.6,
      "ch": 1,
      "note": 42,
      "vel": 75,
      "dur": 25
    },
    {
      "t": 1115.6,
      "ch": 1,
      "note": 36,
      "vel": 96,
      "dur": 25
    },
    {
      "t": 1115.6,
      "ch": 1,
      "note": 38,
      "vel": 82,
      "dur": 25
    },
    {
      "t": 1115.6,
      "ch": 1,
      "note": 40,
      "vel": 85,
      "dur": 25
    },
    {
      "t": 1115.6,
      "ch": 1,
      "note": 42,
      "vel": 65,
      "dur": 25
    },
    {
      "t": 1115.6,
      "ch": 1,
      "note": 36,
      "vel": 92,
      "dur": 25
    },
    {
      "t": 1115.6,
      "ch": 1,
      "note": 38,
      "vel": 64,
      "dur": 25
    },
    {
      "t": 1115.6,
      "ch": 1,
      "note": 40,
      "vel": 80,
      "dur": 25
    },
    {
      "t": 1115.6,
      "ch": 1,
      "note": 42,
      "vel": 91,
      "dur": 25
    },
    {
      "t": 1115.6,
      "ch": 1,
      "note": 36,
      "vel": 72,
      "dur": 25
    },
    {
      "t": 1115.6,
      "ch": 1,
      "note": 38,
      "vel": 83,
      "dur": 25
    },
    {
      "t": 1115.6,
      "ch": 1,
      "note": 40,
      "vel": 79,
      "dur": 25
    },
    {
      "t": 1115.6,
      "ch": 1,
      "note": 42,
      "vel": 68,
      "dur": 25
    },
    {
      "t": 1115.6,
      "ch": 1,
      "note": 36,
      "vel": 57,
      "dur": 25
    },
    {
      "t": 1115.6,
      "ch": 1,
      "note": 38,
      "vel": 68,
      "dur": 25
    },
    {
      "t": 1115.6,
      "ch": 1,
      "note": 40,
      "vel": 75,
      "dur": 25
    },
    {
      "t": 1115.6,
      "ch": 1,
      "note": 42,
      "vel": 97,
      "dur": 25
    },
    {
      "t": 1115.6,
      "ch": 1,
      "note": 36,
      "vel": 75,
      "dur": 25
    },
    {
      "t": 1115.6,
      "ch": 1,
      "note": 38,
      "vel": 82,
      "dur": 25
    },
    {
      "t": 1115.6,
      "ch": 1,
      "note": 40,
      "vel": 72,
      "dur": 25
    },
    {
      "t": 1115.6,
      "ch": 1,
      "note": 42,
      "vel": 67,
      "dur": 25
    },
    {
      "t": 1115.6,
      "ch": 1,
      "note": 36,
      "vel": 91,
      "dur": 25
    },
    {
      "t": 1115.6,
      "ch": 1,
      "note": 38,
      "vel": 73,
      "dur": 25
    },
    {
      "t": 1115.6,
      "ch": 1,
      "note": 40,
      "vel": 83,
      "dur": 25
    },
    {
      "t": 1115.6,
      "ch": 1,
      "note": 42,
      "vel": 73,
      "dur": 25
    },
    {
      "t": 1115.6,
      "ch": 1,
      "note": 36,
      "vel": 91,
      "dur": 25
    },
    {
      "t": 1115.6,
      "ch": 1,
      "note": 38,
      "vel": 91,
      "dur": 25
    },
    {
      "t": 1115.6,
      "ch": 1,
      "note": 40,
      "vel": 70,
      "dur": 25
    },
    {
      "t": 1115.6,
      "ch": 1,
      "note": 42,
      "vel": 76,
      "dur": 25
    },
    {
      "t": 1115.6,
      "ch": 1,
      "note": 36,
      "vel": 77,
      "dur": 25
    },
    {
      "t": 1115.6,
      "ch": 1,
      "note": 38,
      "vel": 77,
      "dur": 25
    },
    {
      "t": 1115.6,
      "ch": 1,
      "note": 40,
      "vel": 95,
      "dur": 25
    },
    {
      "t": 1115.6,
      "ch": 1,
      "note": 42,
      "vel": 92,
      "dur": 25
    },
    {
      "t": 1115.6,
      "ch": 1,
      "note": 36,
      "vel": 69,
      "dur": 25
    },
    {
      "t": 1115.6,
      "ch": 1,
      "note": 38,
      "vel": 62,
      "dur": 25
    },
    {
      "t": 1115.6,
      "ch": 1,
      "note": 40,
      "vel": 93,
      "dur": 25
    },
    {
      "t": 1115.6,
      "ch": 1,
      "note": 42,
      "vel": 63,
      "dur": 25
    },
    {
      "t": 1115.6,
      "ch": 1,
      "note": 36,
      "vel": 80,
      "dur": 25
    },
    {
      "t": 1115.6,
      "ch": 1,
      "note": 38,
      "vel": 61,
      "dur": 25
    },
    {
      "t": 1115.6,
      "ch": 1,
      "note": 40,
      "vel": 79,
      "dur": 25
    },
    {
      "t": 1115.6,
      "ch": 1,
      "note": 42,
      "vel": 68,
      "dur": 25
    },
    {
      "t": 1115.6,
      "ch": 1,
      "note": 36,
      "vel": 84,
      "dur": 25
    },
    {
      "t": 1115.6,
      "ch": 1,
      "note": 38,
      "vel": 67,
      "dur": 25
    },
    {
      "t": 1115.6,
      "ch": 1,
      "note": 40,
      "vel": 84,
      "dur": 25
    },
    {
      "t": 1115.6,
      "ch": 1,
      "note": 42,
      "vel": 69,
      "dur": 25
    },
    {
      "t": 1115.6,
      "ch": 1,
      "note": 36,
      "vel": 85,
      "dur": 25
    },
    {
      "t": 1115.6,
      "ch": 1,
      "note": 38,
      "vel": 79,
      "dur": 25
    },
    {
      "t": 1115.6,
      "ch": 1,
      "note": 40,
      "vel": 78,
      "dur": 25
    },
    {
      "t": 1115.6,
      "ch": 1,
      "note": 42,
      "vel": 92,
      "dur": 25
    },
    {
      "t": 1115.6,
      "ch": 1,
      "note": 36,
      "vel": 70,
      "dur": 25
    },
    {
      "t": 1115.6,
      "ch": 1,
      "note": 38,
      "vel": 70,
      "dur": 25
    },
    {
      "t": 1115.6,
      "ch": 1,
      "note": 40,
      "vel": 94,
      "dur": 25
    },
    {
      "t": 1115.6,
      "ch": 1,
      "note": 42,
      "vel": 68,
      "dur": 25
    },
    {
      "t": 1115.6,
      "ch": 1,
      "note": 36,
      "vel": 68,
      "dur": 25
    },
    {
      "t": 1115.6,
      "ch": 1,
      "note": 38,
      "vel": 68,
      "dur": 25
    },
    {
      "t": 1115.6,
      "ch": 1,
      "note": 40,
      "vel": 74,
      "dur": 25
    },
    {
      "t": 1115.6,
      "ch": 1,
      "note": 42,
      "vel": 58,
      "dur": 25
    },
    {
      "t": 1115.6,
      "ch": 1,
      "note": 36,
      "vel": 69,
      "dur": 25
    },
    {
      "t": 1115.6,
      "ch": 1,
      "note": 38,
      "vel": 89,
      "dur": 25
    },
    {
      "t": 1115.6,
      "ch": 1,
      "note": 40,
      "vel": 72,
      "dur": 25
    },
    {
      "t": 1115.6,
      "ch": 1,
      "note": 42,
      "vel": 70,
      "dur": 25
    },
    {
      "t": 1115.6,
      "ch": 1,
      "note": 36,
      "vel": 93,
      "dur": 25
    },
    {
      "t": 1115.6,
      "ch": 1,
      "note": 38,
      "vel": 56,
      "dur": 25
    },
    {
      "t": 1115.6,
      "ch": 1,
      "note": 40,
      "vel": 72,
      "dur": 25
    },
    {
      "t": 1115.6,
      "ch": 1,
      "note": 42,
      "vel": 80,
      "dur": 25
    },
    {
      "t": 1115.6,
      "ch": 1,
      "note": 36,
      "vel": 82,
      "dur": 25
    },
    {
      "t": 1115.6,
      "ch": 1,
      "note": 38,
      "vel": 72,
      "dur": 25
    },
    {
      "t": 1115.6,
      "ch": 1,
      "note": 40,
      "vel": 69,
      "dur": 25
    },
    {
      "t": 1115.6,
      "ch": 1,
      "note": 42,
      "vel": 70,
      "dur": 25
    },
    {
      "t": 1115.6,
      "ch": 1,
      "note": 36,
      "vel": 79,
      "dur": 25
    },
    {
      "t": 1115.6,
      "ch": 1,
      "note": 38,
      "vel": 60,
      "dur": 25
    },
    {
      "t": 1115.6,
      "ch": 1,
      "note": 40,
      "vel": 98,
      "dur": 25
    },
    {
      "t": 1115.6,
      "ch": 1,
      "note": 42,
      "vel": 55,
      "dur": 25
    },
    {
      "t": 1115.6,
      "ch": 1,
      "note": 36,
      "vel": 57,
      "dur": 25
    },
    {
      "t": 1115.6,
      "ch": 1,
      "note": 38,
      "vel": 76,
      "dur": 25
    },
    {
      "t": 1115.6,
      "ch": 1,
      "note": 40,
      "vel": 68,
      "dur": 25
    },
    {
      "t": 1115.6,
      "ch": 1,
      "note": 42,
      "vel": 66,
      "dur": 25
    },
    {
      "t": 1115.6,
      "ch": 1,
      "note": 36,
      "vel": 70,
      "dur": 25
    },
    {
      "t": 1115.6,
      "ch": 1,
      "note": 38,
      "vel": 77,
      "dur": 25
    },
    {
      "t": 1115.6,
      "ch": 1,
      "note": 40,
      "vel": 70,
      "dur": 25
    },
    {
      "t": 1115.6,
      "ch": 1,
      "note": 42,
      "vel": 69,
      "dur": 25
    },
    {
      "t": 1115.6,
      "ch": 1,
      "note": 36,
      "vel": 100,
      "dur": 25
    },
    {
      "t": 1115.6,
      "ch": 1,
      "note": 38,
      "vel": 64,
      "dur": 25
    },
    {
      "t": 1115.6,
      "ch": 1,
      "note": 40,
      "vel": 66,
      "dur": 25
    },
    {
      "t": 1115.6,
      "ch": 1,
      "note": 42,
      "vel": 67,
      "dur": 25
    },
    {
      "t": 1115.6,
      "ch": 1,
      "note": 36,
      "vel": 69,
      "dur": 25
    },
    {
      "t": 1115.6,
      "ch": 1,
      "note": 38,
      "vel": 62,
      "dur": 25
    },
    {
      "t": 1115.6,
      "ch": 1,
      "note": 40,
      "vel": 59,
      "dur": 25
    },
    {
      "t": 1115.6,
      "ch": 1,
      "note": 42,
      "vel": 71,
      "dur": 25
    },
    {
      "t": 1115.6,
      "ch": 1,
      "note": 36,
      "vel": 86,
      "dur": 25
    },
    {
      "t": 1115.6,
      "ch": 1,
      "note": 38,
      "vel": 54,
      "dur": 25
    },
    {
      "t": 1115.6,
      "ch": 1,
      "note": 40,
      "vel": 59,
      "dur": 25
    },
    {
      "t": 1115.6,
      "ch": 1,
      "note": 42,
      "vel": 67,
      "dur": 25
    },
    {
      "t": 1115.6,
      "ch": 1,
      "note": 36,
      "vel": 61,
      "dur": 25
    },
    {
      "t": 1115.6,
      "ch": 1,
      "note": 38,
      "vel": 84,
      "dur": 25
    },
    {
      "t": 1115.6,
      "ch": 1,
      "note": 40,
      "vel": 74,
      "dur": 25
    },
    {
      "t": 1115.6,
      "ch": 1,
      "note": 42,
      "vel": 73,
      "dur": 25
    },
    {
      "t": 1115.6,
      "ch": 1,
      "note": 36,
      "vel": 90,
      "dur": 25
    },
    {
      "t": 1115.6,
      "ch": 1,
      "note": 38,
      "vel": 69,
      "dur": 25
    },
    {
      "t": 1115.6,
      "ch": 1,
      "note": 40,
      "vel": 62,
      "dur": 25
    },
    {
      "t": 1115.6,
      "ch": 1,
      "note": 42,
      "vel": 85,
      "dur": 25
    },
    {
      "t": 1115.6,
      "ch": 1,
      "note": 36,
      "vel": 61,
      "dur": 25
    },
    {
      "t": 1115.6,
      "ch": 1,
      "note": 38,
      "vel": 79,
      "dur": 25
    },
    {
      "t": 1115.6,
      "ch": 1,
      "note": 40,
      "vel": 68,
      "dur": 25
    },
    {
      "t": 1115.6,
      "ch": 1,
      "note": 42,
      "vel": 81,
      "dur": 25
    },
    {
      "t": 1115.6,
      "ch": 1,
      "note": 36,
      "vel": 68,
      "dur": 25
    },
    {
      "t": 1115.6,
      "ch": 1,
      "note": 38,
      "vel": 67,
      "dur": 25
    },
    {
      "t": 1115.6,
      "ch": 1,
      "note": 40,
      "vel": 66,
      "dur": 25
    },
    {
      "t": 1115.6,
      "ch": 1,
      "note": 42,
      "vel": 77,
      "dur": 25
    },
    {
      "t": 1115.6,
      "ch": 1,
      "note": 36,
      "vel": 74,
      "dur": 25
    },
    {
      "t": 1115.6,
      "ch": 1,
      "note": 38,
      "vel": 81,
      "dur": 25
    },
    {
      "t": 1115.6,
      "ch": 1,
      "note": 40,
      "vel": 74,
      "dur": 25
    },
    {
      "t": 1115.6,
      "ch": 1,
      "note": 42,
      "vel": 62,
      "dur": 25
    },
    {
      "t": 1115.6,
      "ch": 1,
      "note": 36,
      "vel": 43,
      "dur": 25
    },
    {
      "t": 1115.6,
      "ch": 1,
      "note": 38,
      "vel": 60,
      "dur": 25
    },
    {
      "t": 1115.6,
      "ch": 1,
      "note": 40,
      "vel": 62,
      "dur": 25
    },
    {
      "t": 1115.6,
      "ch": 1,
      "note": 42,
      "vel": 86,
      "dur": 25
    },
    {
      "t": 1115.6,
      "ch": 1,
      "note": 36,
      "vel": 81,
      "dur": 25
    },
    {
      "t": 1115.6,
      "ch": 1,
      "note": 38,
      "vel": 95,
      "dur": 25
    },
    {
      "t": 1115.6,
      "ch": 1,
      "note": 40,
      "vel": 73,
      "dur": 25
    },
    {
      "t": 1115.6,
      "ch": 1,
      "note": 42,
      "vel": 92,
      "dur": 25
    },
    {
      "t": 1115.6,
      "ch": 1,
      "note": 36,
      "vel": 84,
      "dur": 25
    },
    {
      "t": 1115.6,
      "ch": 1,
      "note": 38,
      "vel": 83,
      "dur": 25
    },
    {
      "t": 1115.6,
      "ch": 1,
      "note": 40,
      "vel": 85,
      "dur": 25
    },
    {
      "t": 1115.6,
      "ch": 1,
      "note": 42,
      "vel": 58,
      "dur": 25
    },
    {
      "t": 1115.6,
      "ch": 1,
      "note": 36,
      "vel": 84,
      "dur": 25
    },
    {
      "t": 1115.6,
      "ch": 1,
      "note": 38,
      "vel": 68,
      "dur": 25
    },
    {
      "t": 1115.6,
      "ch": 1,
      "note": 40,
      "vel": 74,
      "dur": 25
    },
    {
      "t": 1115.6,
      "ch": 1,
      "note": 42,
      "vel": 52,
      "dur": 25
    },
    {
      "t": 1115.6,
      "ch": 1,
      "note": 36,
      "vel": 90,
      "dur": 25
    },
    {
      "t": 1115.6,
      "ch": 1,
      "note": 38,
      "vel": 67,
      "dur": 25
    },
    {
      "t": 1115.6,
      "ch": 1,
      "note": 40,
      "vel": 66,
      "dur": 25
    },
    {
      "t": 1115.6,
      "ch": 1,
      "note": 42,
      "vel": 68,
      "dur": 25
    },
    {
      "t": 1115.6,
      "ch": 1,
      "note": 36,
      "vel": 70,
      "dur": 25
    },
    {
      "t": 1115.6,
      "ch": 1,
      "note": 38,
      "vel": 92,
      "dur": 25
    },
    {
      "t": 1115.6,
      "ch": 1,
      "note": 40,
      "vel": 86,
      "dur": 25
    },
    {
      "t": 1115.6,
      "ch": 1,
      "note": 42,
      "vel": 78,
      "dur": 25
    },
    {
      "t": 1115.6,
      "ch": 1,
      "note": 36,
      "vel": 65,
      "dur": 25
    },
    {
      "t": 1115.6,
      "ch": 1,
      "note": 38,
      "vel": 82,
      "dur": 25
    },
    {
      "t": 1115.6,
      "ch": 1,
      "note": 40,
      "vel": 76,
      "dur": 25
    },
    {
      "t": 1115.6,
      "ch": 1,
      "note": 42,
      "vel": 82,
      "dur": 25
    },
    {
      "t": 1115.6,
      "ch": 1,
      "note": 36,
      "vel": 97,
      "dur": 25
    },
    {
      "t": 1115.6,
      "ch": 1,
      "note": 38,
      "vel": 86,
      "dur": 25
    },
    {
      "t": 1115.6,
      "ch": 1,
      "note": 40,
      "vel": 93,
      "dur": 25
    },
    {
      "t": 1115.6,
      "ch": 1,
      "note": 42,
      "vel": 79,
      "dur": 25
    },
    {
      "t": 1115.6,
      "ch": 1,
      "note": 36,
      "vel": 64,
      "dur": 25
    },
    {
      "t": 1115.6,
      "ch": 1,
      "note": 38,
      "vel": 94,
      "dur": 25
    },
    {
      "t": 1115.6,
      "ch": 1,
      "note": 40,
      "vel": 69,
      "dur": 25
    },
    {
      "t": 1115.6,
      "ch": 1,
      "note": 42,
      "vel": 64,
      "dur": 25
    },
    {
      "t": 1115.6,
      "ch": 1,
      "note": 36,
      "vel": 61,
      "dur": 25
    },
    {
      "t": 1115.6,
      "ch": 1,
      "note": 38,
      "vel": 49,
      "dur": 25
    },
    {
      "t": 1115.6,
      "ch": 1,
      "note": 40,
      "vel": 78,
      "dur": 25
    },
    {
      "t": 1115.6,
      "ch": 1,
      "note": 42,
      "vel": 69,
      "dur": 25
    },
    {
      "t": 1115.6,
      "ch": 1,
      "note": 36,
      "vel": 90,
      "dur": 25
    },
    {
      "t": 1115.6,
      "ch": 1,
      "note": 38,
      "vel": 56,
      "dur": 25
    },
    {
      "t": 1115.6,
      "ch": 1,
      "note": 40,
      "vel": 76,
      "dur": 25
    },
    {
      "t": 1115.6,
      "ch": 1,
      "note": 42,
      "vel": 94,
      "dur": 25
    },
    {
      "t": 1115.6,
      "ch": 1,
      "note": 36,
      "vel": 68,
      "dur": 25
    },
    {
      "t": 1115.6,
      "ch": 1,
      "note": 38,
      "vel": 76,
      "dur": 25
    },
    {
      "t": 1115.6,
      "ch": 1,
      "note": 40,
      "vel": 80,
      "dur": 25
    },
    {
      "t": 1115.6,
      "ch": 1,
      "note": 42,
      "vel": 92,
      "dur": 25
    },
    {
      "t": 1115.6,
      "ch": 1,
      "note": 36,
      "vel": 85,
      "dur": 25
    },
    {
      "t": 1115.6,
      "ch": 1,
      "note": 38,
      "vel": 58,
      "dur": 25
    },
    {
      "t": 1115.6,
      "ch": 1,
      "note": 40,
      "vel": 87,
      "dur": 25
    },
    {
      "t": 1115.6,
      "ch": 1,
      "note": 42,
      "vel": 93,
      "dur": 25
    },
    {
      "t": 1115.6,
      "ch": 1,
      "note": 36,
      "vel": 77,
      "dur": 25
    },
    {
      "t": 1115.6,
      "ch": 1,
      "note": 38,
      "vel": 75,
      "dur": 25
    },
    {
      "t": 1115.6,
      "ch": 1,
      "note": 40,
      "vel": 67,
      "dur": 25
    },
    {
      "t": 1115.6,
      "ch": 1,
      "note": 42,
      "vel": 73,
      "dur": 25
    },
    {
      "t": 1115.6,
      "ch": 1,
      "note": 36,
      "vel": 64,
      "dur": 25
    },
    {
      "t": 1115.6,
      "ch": 1,
      "note": 38,
      "vel": 99,
      "dur": 25
    },
    {
      "t": 1115.6,
      "ch": 1,
      "note": 40,
      "vel": 46,
      "dur": 25
    },
    {
      "t": 1115.6,
      "ch": 1,
      "note": 42,
      "vel": 82,
      "dur": 25
    },
    {
      "t": 1115.6,
      "ch": 1,
      "note": 36,
      "vel": 68,
      "dur": 25
    },
    {
      "t": 1115.6,
      "ch": 1,
      "note": 38,
      "vel": 48,
      "dur": 25
    },
    {
      "t": 1115.6,
      "ch": 1,
      "note": 40,
      "vel": 90,
      "dur": 25
    },
    {
      "t": 1115.6,
      "ch": 1,
      "note": 42,
      "vel": 76,
      "dur": 25
    },
    {
      "t": 1115.6,
      "ch": 1,
      "note": 36,
      "vel": 81,
      "dur": 25
    },
    {
      "t": 1115.6,
      "ch": 1,
      "note": 38,
      "vel": 76,
      "dur": 25
    },
    {
      "t": 1115.6,
      "ch": 1,
      "note": 40,
      "vel": 64,
      "dur": 25
    },
    {
      "t": 1115.6,
      "ch": 1,
      "note": 42,
      "vel": 78,
      "dur": 25
    },
    {
      "t": 1115.6,
      "ch": 1,
      "note": 36,
      "vel": 88,
      "dur": 25
    },
    {
      "t": 1115.6,
      "ch": 1,
      "note": 38,
      "vel": 63,
      "dur": 25
    },
    {
      "t": 1115.6,
      "ch": 1,
      "note": 40,
      "vel": 78,
      "dur": 25
    },
    {
      "t": 1115.6,
      "ch": 1,
      "note": 42,
      "vel": 68,
      "dur": 25
    },
    {
      "t": 1115.6,
      "ch": 1,
      "note": 36,
      "vel": 86,
      "dur": 25
    },
    {
      "t": 1115.6,
      "ch": 1,
      "note": 38,
      "vel": 94,
      "dur": 25
    },
    {
      "t": 1115.6,
      "ch": 1,
      "note": 40,
      "vel": 80,
      "dur": 25
    },
    {
      "t": 1115.6,
      "ch": 1,
      "note": 42,
      "vel": 72,
      "dur": 25
    },
    {
      "t": 1115.6,
      "ch": 1,
      "note": 36,
      "vel": 67,
      "dur": 25
    },
    {
      "t": 1115.6,
      "ch": 1,
      "note": 38,
      "vel": 79,
      "dur": 25
    },
    {
      "t": 1115.6,
      "ch": 1,
      "note": 40,
      "vel": 77,
      "dur": 25
    },
    {
      "t": 1115.6,
      "ch": 1,
      "note": 42,
      "vel": 81,
      "dur": 25
    },
    {
      "t": 1115.6,
      "ch": 1,
      "note": 36,
      "vel": 65,
      "dur": 25
    },
    {
      "t": 1115.6,
      "ch": 1,
      "note": 38,
      "vel": 66,
      "dur": 25
    },
    {
      "t": 1115.6,
      "ch": 1,
      "note": 40,
      "vel": 80,
      "dur": 25
    },
    {
      "t": 1115.6,
      "ch": 1,
      "note": 42,
      "vel": 63,
      "dur": 25
    },
    {
      "t": 1115.6,
      "ch": 1,
      "note": 36,
      "vel": 72,
      "dur": 25
    },
    {
      "t": 1115.6,
      "ch": 1,
      "note": 38,
      "vel": 91,
      "dur": 25
    },
    {
      "t": 1115.6,
      "ch": 1,
      "note": 40,
      "vel": 67,
      "dur": 25
    },
    {
      "t": 1115.6,
      "ch": 1,
      "note": 42,
      "vel": 63,
      "dur": 25
    },
    {
      "t": 1115.6,
      "ch": 1,
      "note": 36,
      "vel": 78,
      "dur": 25
    },
    {
      "t": 1115.6,
      "ch": 1,
      "note": 38,
      "vel": 67,
      "dur": 25
    },
    {
      "t": 1115.6,
      "ch": 1,
      "note": 40,
      "vel": 82,
      "dur": 25
    },
    {
      "t": 1115.6,
      "ch": 1,
      "note": 42,
      "vel": 95,
      "dur": 25
    },
    {
      "t": 1115.6,
      "ch": 1,
      "note": 36,
      "vel": 81,
      "dur": 25
    },
    {
      "t": 1115.6,
      "ch": 1,
      "note": 38,
      "vel": 91,
      "dur": 25
    },
    {
      "t": 1115.6,
      "ch": 1,
      "note": 40,
      "vel": 95,
      "dur": 25
    },
    {
      "t": 1115.6,
      "ch": 1,
      "note": 42,
      "vel": 91,
      "dur": 25
    },
    {
      "t": 1115.6,
      "ch": 1,
      "note": 36,
      "vel": 78,
      "dur": 25
    },
    {
      "t": 1115.6,
      "ch": 1,
      "note": 38,
      "vel": 92,
      "dur": 25
    },
    {
      "t": 1115.6,
      "ch": 1,
      "note": 40,
      "vel": 69,
      "dur": 25
    },
    {
      "t": 1115.6,
      "ch": 1,
      "note": 42,
      "vel": 54,
      "dur": 25
    },
    {
      "t": 1115.6,
      "ch": 1,
      "note": 36,
      "vel": 70,
      "dur": 25
    },
    {
      "t": 1115.6,
      "ch": 1,
      "note": 38,
      "vel": 56,
      "dur": 25
    },
    {
      "t": 1115.6,
      "ch": 1,
      "note": 40,
      "vel": 64,
      "dur": 25
    },
    {
      "t": 1115.6,
      "ch": 1,
      "note": 42,
      "vel": 78,
      "dur": 25
    },
    {
      "t": 1115.6,
      "ch": 1,
      "note": 36,
      "vel": 67,
      "dur": 25
    },
    {
      "t": 1115.6,
      "ch": 1,
      "note": 38,
      "vel": 87,
      "dur": 25
    },
    {
      "t": 1115.6,
      "ch": 1,
      "note": 40,
      "vel": 75,
      "dur": 25
    },
    {
      "t": 1115.6,
      "ch": 1,
      "note": 42,
      "vel": 80,
      "dur": 25
    },
    {
      "t": 1115.6,
      "ch": 1,
      "note": 36,
      "vel": 68,
      "dur": 25
    },
    {
      "t": 1115.6,
      "ch": 1,
      "note": 38,
      "vel": 85,
      "dur": 25
    },
    {
      "t": 1115.6,
      "ch": 1,
      "note": 40,
      "vel": 65,
      "dur": 25
    },
    {
      "t": 1115.6,
      "ch": 1,
      "note": 42,
      "vel": 61,
      "dur": 25
    },
    {
      "t": 1115.6,
      "ch": 1,
      "note": 36,
      "vel": 89,
      "dur": 25
    },
    {
      "t": 1115.6,
      "ch": 1,
      "note": 38,
      "vel": 58,
      "dur": 25
    },
    {
      "t": 1115.6,
      "ch": 1,
      "note": 40,
      "vel": 87,
      "dur": 25
    },
    {
      "t": 1115.6,
      "ch": 1,
      "note": 42,
      "vel": 94,
      "dur": 25
    },
    {
      "t": 1115.6,
      "ch": 1,
      "note": 36,
      "vel": 60,
      "dur": 25
    },
    {
      "t": 1115.6,
      "ch": 1,
      "note": 38,
      "vel": 85,
      "dur": 25
    },
    {
      "t": 1115.6,
      "ch": 1,
      "note": 40,
      "vel": 94,
      "dur": 25
    },
    {
      "t": 1115.6,
      "ch": 1,
      "note": 42,
      "vel": 66,
      "dur": 25
    },
    {
      "t": 1115.6,
      "ch": 1,
      "note": 36,
      "vel": 52,
      "dur": 25
    },
    {
      "t": 1115.6,
      "ch": 1,
      "note": 38,
      "vel": 86,
      "dur": 25
    },
    {
      "t": 1115.6,
      "ch": 1,
      "note": 40,
      "vel": 97,
      "dur": 25
    },
    {
      "t": 1115.6,
      "ch": 1,
      "note": 42,
      "vel": 93,
      "dur": 25
    },
    {
      "t": 1115.6,
      "ch": 1,
      "note": 36,
      "vel": 96,
      "dur": 25
    },
    {
      "t": 1115.6,
      "ch": 1,
      "note": 38,
      "vel": 75,
      "dur": 25
    },
    {
      "t": 1115.6,
      "ch": 1,
      "note": 40,
      "vel": 80,
      "dur": 25
    },
    {
      "t": 1115.6,
      "ch": 1,
      "note": 42,
      "vel": 57,
      "dur": 25
    },
    {
      "t": 1115.6,
      "ch": 1,
      "note": 36,
      "vel": 76,
      "dur": 25
    },
    {
      "t": 1115.6,
      "ch": 1,
      "note": 38,
      "vel": 72,
      "dur": 25
    },
    {
      "t": 1115.6,
      "ch": 1,
      "note": 40,
      "vel": 85,
      "dur": 25
    },
    {
      "t": 1115.6,
      "ch": 1,
      "note": 42,
      "vel": 95,
      "dur": 25
    },
    {
      "t": 1115.6,
      "ch": 1,
      "note": 36,
      "vel": 80,
      "dur": 25
    },
    {
      "t": 1115.6,
      "ch": 1,
      "note": 38,
      "vel": 72,
      "dur": 25
    },
    {
      "t": 1115.6,
      "ch": 1,
      "note": 40,
      "vel": 60,
      "dur": 25
    },
    {
      "t": 1115.6,
      "ch": 1,
      "note": 42,
      "vel": 82,
      "dur": 25
    },
    {
      "t": 1115.6,
      "ch": 1,
      "note": 36,
      "vel": 59,
      "dur": 25
    },
    {
      "t": 1115.6,
      "ch": 1,
      "note": 38,
      "vel": 63,
      "dur": 25
    },
    {
      "t": 1115.6,
      "ch": 1,
      "note": 40,
      "vel": 72,
      "dur": 25
    },
    {
      "t": 1115.6,
      "ch": 1,
      "note": 42,
      "vel": 80,
      "dur": 25
    },
    {
      "t": 1115.6,
      "ch": 1,
      "note": 36,
      "vel": 75,
      "dur": 25
    },
    {
      "t": 1115.6,
      "ch": 1,
      "note": 38,
      "vel": 79,
      "dur": 25
    },
    {
      "t": 1115.6,
      "ch": 1,
      "note": 40,
      "vel": 68,
      "dur": 25
    },
    {
      "t": 1115.6,
      "ch": 1,
      "note": 42,
      "vel": 80,
      "dur": 25
    },
    {
      "t": 1115.6,
      "ch": 1,
      "note": 36,
      "vel": 97,
      "dur": 25
    },
    {
      "t": 1115.6,
      "ch": 1,
      "note": 38,
      "vel": 77,
      "dur": 25
    },
    {
      "t": 1115.6,
      "ch": 1,
      "note": 40,
      "vel": 84,
      "dur": 25
    },
    {
      "t": 1115.6,
      "ch": 1,
      "note": 42,
      "vel": 67,
      "dur": 25
    },
    {
      "t": 1115.6,
      "ch": 1,
      "note": 36,
      "vel": 67,
      "dur": 25
    },
    {
      "t": 1115.6,
      "ch": 1,
      "note": 38,
      "vel": 78,
      "dur": 25
    },
    {
      "t": 1115.6,
      "ch": 1,
      "note": 40,
      "vel": 81,
      "dur": 25
    },
    {
      "t": 1115.6,
      "ch": 1,
      "note": 42,
      "vel": 61,
      "dur": 25
    },
    {
      "t": 1115.6,
      "ch": 1,
      "note": 36,
      "vel": 74,
      "dur": 25
    },
    {
      "t": 1115.6,
      "ch": 1,
      "note": 38,
      "vel": 82,
      "dur": 25
    },
    {
      "t": 1115.6,
      "ch": 1,
      "note": 40,
      "vel": 91,
      "dur": 25
    },
    {
      "t": 1115.6,
      "ch": 1,
      "note": 42,
      "vel": 89,
      "dur": 25
    },
    {
      "t": 1115.6,
      "ch": 1,
      "note": 36,
      "vel": 62,
      "dur": 25
    },
    {
      "t": 1115.6,
      "ch": 1,
      "note": 38,
      "vel": 64,
      "dur": 25
    },
    {
      "t": 1115.6,
      "ch": 1,
      "note": 40,
      "vel": 69,
      "dur": 25
    },
    {
      "t": 1115.6,
      "ch": 1,
      "note": 42,
      "vel": 75,
      "dur": 25
    },
    {
      "t": 1115.6,
      "ch": 1,
      "note": 36,
      "vel": 87,
      "dur": 25
    },
    {
      "t": 1115.6,
      "ch": 1,
      "note": 38,
      "vel": 81,
      "dur": 25
    },
    {
      "t": 1115.6,
      "ch": 1,
      "note": 40,
      "vel": 63,
      "dur": 25
    },
    {
      "t": 1115.6,
      "ch": 1,
      "note": 42,
      "vel": 86,
      "dur": 25
    },
    {
      "t": 1115.6,
      "ch": 1,
      "note": 36,
      "vel": 69,
      "dur": 25
    },
    {
      "t": 1115.6,
      "ch": 1,
      "note": 38,
      "vel": 57,
      "dur": 25
    },
    {
      "t": 1115.6,
      "ch": 1,
      "note": 40,
      "vel": 79,
      "dur": 25
    },
    {
      "t": 1115.6,
      "ch": 1,
      "note": 42,
      "vel": 85,
      "dur": 25
    },
    {
      "t": 1115.6,
      "ch": 1,
      "note": 36,
      "vel": 73,
      "dur": 25
    },
    {
      "t": 1115.6,
      "ch": 1,
      "note": 38,
      "vel": 46,
      "dur": 25
    },
    {
      "t": 1115.6,
      "ch": 1,
      "note": 40,
      "vel": 86,
      "dur": 25
    },
    {
      "t": 1115.6,
      "ch": 1,
      "note": 42,
      "vel": 87,
      "dur": 25
    },
    {
      "t": 1115.6,
      "ch": 1,
      "note": 36,
      "vel": 84,
      "dur": 25
    },
    {
      "t": 1115.6,
      "ch": 1,
      "note": 38,
      "vel": 81,
      "dur": 25
    },
    {
      "t": 1115.6,
      "ch": 1,
      "note": 40,
      "vel": 83,
      "dur": 25
    },
    {
      "t": 1115.6,
      "ch": 1,
      "note": 42,
      "vel": 61,
      "dur": 25
    },
    {
      "t": 1115.6,
      "ch": 1,
      "note": 36,
      "vel": 78,
      "dur": 25
    },
    {
      "t": 1115.6,
      "ch": 1,
      "note": 38,
      "vel": 71,
      "dur": 25
    },
    {
      "t": 1115.6,
      "ch": 1,
      "note": 40,
      "vel": 87,
      "dur": 25
    },
    {
      "t": 1115.6,
      "ch": 1,
      "note": 42,
      "vel": 83,
      "dur": 25
    },
    {
      "t": 1115.6,
      "ch": 1,
      "note": 36,
      "vel": 71,
      "dur": 25
    },
    {
      "t": 1115.6,
      "ch": 1,
      "note": 38,
      "vel": 59,
      "dur": 25
    },
    {
      "t": 1115.6,
      "ch": 1,
      "note": 40,
      "vel": 67,
      "dur": 25
    },
    {
      "t": 1115.6,
      "ch": 1,
      "note": 42,
      "vel": 63,
      "dur": 25
    },
    {
      "t": 1115.6,
      "ch": 1,
      "note": 36,
      "vel": 75,
      "dur": 25
    },
    {
      "t": 1115.6,
      "ch": 1,
      "note": 38,
      "vel": 76,
      "dur": 25
    },
    {
      "t": 1115.6,
      "ch": 1,
      "note": 40,
      "vel": 75,
      "dur": 25
    },
    {
      "t": 1115.6,
      "ch": 1,
      "note": 42,
      "vel": 74,
      "dur": 25
    },
    {
      "t": 1115.6,
      "ch": 1,
      "note": 36,
      "vel": 84,
      "dur": 25
    },
    {
      "t": 1115.6,
      "ch": 1,
      "note": 38,
      "vel": 56,
      "dur": 25
    },
    {
      "t": 1115.6,
      "ch": 1,
      "note": 40,
      "vel": 65,
      "dur": 25
    },
    {
      "t": 1115.6,
      "ch": 1,
      "note": 42,
      "vel": 75,
      "dur": 25
    },
    {
      "t": 1115.6,
      "ch": 1,
      "note": 36,
      "vel": 58,
      "dur": 25
    },
    {
      "t": 1115.6,
      "ch": 1,
      "note": 38,
      "vel": 70,
      "dur": 25
    },
    {
      "t": 1115.6,
      "ch": 1,
      "note": 40,
      "vel": 79,
      "dur": 25
    },
    {
      "t": 1115.6,
      "ch": 1,
      "note": 42,
      "vel": 66,
      "dur": 25
    },
    {
      "t": 1115.6,
      "ch": 1,
      "note": 36,
      "vel": 53,
      "dur": 25
    },
    {
      "t": 1115.6,
      "ch": 1,
      "note": 38,
      "vel": 86,
      "dur": 25
    },
    {
      "t": 1115.6,
      "ch": 1,
      "note": 40,
      "vel": 90,
      "dur": 25
    },
    {
      "t": 1115.6,
      "ch": 1,
      "note": 42,
      "vel": 78,
      "dur": 25
    },
    {
      "t": 1115.6,
      "ch": 1,
      "note": 36,
      "vel": 70,
      "dur": 25
    },
    {
      "t": 1115.6,
      "ch": 1,
      "note": 38,
      "vel": 63,
      "dur": 25
    },
    {
      "t": 1115.6,
      "ch": 1,
      "note": 40,
      "vel": 70,
      "dur": 25
    },
    {
      "t": 1115.6,
      "ch": 1,
      "note": 42,
      "vel": 100,
      "dur": 25
    },
    {
      "t": 1115.6,
      "ch": 1,
      "note": 36,
      "vel": 83,
      "dur": 25
    },
    {
      "t": 1115.6,
      "ch": 1,
      "note": 38,
      "vel": 67,
      "dur": 25
    },
    {
      "t": 1115.6,
      "ch": 1,
      "note": 40,
      "vel": 57,
      "dur": 25
    },
    {
      "t": 1115.6,
      "ch": 1,
      "note": 42,
      "vel": 81,
      "dur": 25
    },
    {
      "t": 1115.6,
      "ch": 1,
      "note": 36,
      "vel": 59,
      "dur": 25
    },
    {
      "t": 1115.6,
      "ch": 1,
      "note": 38,
      "vel": 88,
      "dur": 25
    },
    {
      "t": 1115.6,
      "ch": 1,
      "note": 40,
      "vel": 84,
      "dur": 25
    },
    {
      "t": 1115.6,
      "ch": 1,
      "note": 42,
      "vel": 93,
      "dur": 25
    },
    {
      "t": 1115.6,
      "ch": 1,
      "note": 36,
      "vel": 63,
      "dur": 25
    },
    {
      "t": 1115.6,
      "ch": 1,
      "note": 38,
      "vel": 63,
      "dur": 25
    },
    {
      "t": 1115.6,
      "ch": 1,
      "note": 40,
      "vel": 69,
      "dur": 25
    },
    {
      "t": 1115.6,
      "ch": 1,
      "note": 42,
      "vel": 77,
      "dur": 25
    },
    {
      "t": 1115.6,
      "ch": 1,
      "note": 36,
      "vel": 80,
      "dur": 25
    },
    {
      "t": 1115.6,
      "ch": 1,
      "note": 38,
      "vel": 84,
      "dur": 25
    },
    {
      "t": 1115.6,
      "ch": 1,
      "note": 40,
      "vel": 70,
      "dur": 25
    },
    {
      "t": 1115.6,
      "ch": 1,
      "note": 42,
      "vel": 53,
      "dur": 25
    },
    {
      "t": 1115.6,
      "ch": 1,
      "note": 36,
      "vel": 69,
      "dur": 25
    },
    {
      "t": 1115.6,
      "ch": 1,
      "note": 38,
      "vel": 85,
      "dur": 25
    },
    {
      "t": 1115.6,
      "ch": 1,
      "note": 40,
      "vel": 72,
      "dur": 25
    },
    {
      "t": 1115.6,
      "ch": 1,
      "note": 42,
      "vel": 86,
      "dur": 25
    },
    {
      "t": 1115.6,
      "ch": 1,
      "note": 36,
      "vel": 71,
      "dur": 25
    },
    {
      "t": 1115.6,
      "ch": 1,
      "note": 38,
      "vel": 75,
      "dur": 25
    },
    {
      "t": 1115.6,
      "ch": 1,
      "note": 40,
      "vel": 86,
      "dur": 25
    },
    {
      "t": 1115.6,
      "ch": 1,
      "note": 42,
      "vel": 96,
      "dur": 25
    },
    {
      "t": 1115.6,
      "ch": 1,
      "note": 36,
      "vel": 81,
      "dur": 25
    },
    {
      "t": 1115.6,
      "ch": 1,
      "note": 38,
      "vel": 74,
      "dur": 25
    },
    {
      "t": 1115.6,
      "ch": 1,
      "note": 40,
      "vel": 79,
      "dur": 25
    },
    {
      "t": 1115.6,
      "ch": 1,
      "note": 42,
      "vel": 84,
      "dur": 25
    },
    {
      "t": 1115.6,
      "ch": 1,
      "note": 36,
      "vel": 102,
      "dur": 25
    },
    {
      "t": 1115.6,
      "ch": 1,
      "note": 38,
      "vel": 78,
      "dur": 25
    },
    {
      "t": 1115.6,
      "ch": 1,
      "note": 40,
      "vel": 85,
      "dur": 25
    },
    {
      "t": 1115.6,
      "ch": 1,
      "note": 42,
      "vel": 78,
      "dur": 25
    },
    {
      "t": 1115.6,
      "ch": 1,
      "note": 36,
      "vel": 100,
      "dur": 25
    },
    {
      "t": 1115.6,
      "ch": 1,
      "note": 38,
      "vel": 79,
      "dur": 25
    },
    {
      "t": 1115.6,
      "ch": 1,
      "note": 40,
      "vel": 78,
      "dur": 25
    },
    {
      "t": 1115.6,
      "ch": 1,
      "note": 42,
      "vel": 86,
      "dur": 25
    },
    {
      "t": 1115.6,
      "ch": 1,
      "note": 36,
      "vel": 74,
      "dur": 25
    },
    {
      "t": 1115.6,
      "ch": 1,
      "note": 38,
      "vel": 89,
      "dur": 25
    },
    {
      "t": 1115.6,
      "ch": 1,
      "note": 40,
      "vel": 85,
      "dur": 25
    },
    {
      "t": 1115.6,
      "ch": 1,
      "note": 42,
      "vel": 78,
      "dur": 25
    },
    {
      "t": 1115.6,
      "ch": 1,
      "note": 36,
      "vel": 62,
      "dur": 25
    },
    {
      "t": 1115.6,
      "ch": 1,
      "note": 38,
      "vel": 97,
      "dur": 25
    },
    {
      "t": 1115.6,
      "ch": 1,
      "note": 40,
      "vel": 87,
      "dur": 25
    },
    {
      "t": 1115.6,
      "ch": 1,
      "note": 42,
      "vel": 55,
      "dur": 25
    },
    {
      "t": 1115.6,
      "ch": 1,
      "note": 36,
      "vel": 85,
      "dur": 25
    },
    {
      "t": 1115.6,
      "ch": 1,
      "note": 38,
      "vel": 89,
      "dur": 25
    },
    {
      "t": 1115.6,
      "ch": 1,
      "note": 40,
      "vel": 63,
      "dur": 25
    },
    {
      "t": 1115.6,
      "ch": 1,
      "note": 42,
      "vel": 76,
      "dur": 25
    },
    {
      "t": 1115.6,
      "ch": 1,
      "note": 36,
      "vel": 85,
      "dur": 25
    },
    {
      "t": 1115.6,
      "ch": 1,
      "note": 38,
      "vel": 61,
      "dur": 25
    },
    {
      "t": 1115.6,
      "ch": 1,
      "note": 40,
      "vel": 88,
      "dur": 25
    },
    {
      "t": 1115.6,
      "ch": 1,
      "note": 42,
      "vel": 74,
      "dur": 25
    },
    {
      "t": 1115.6,
      "ch": 1,
      "note": 36,
      "vel": 61,
      "dur": 25
    },
    {
      "t": 1115.6,
      "ch": 1,
      "note": 38,
      "vel": 78,
      "dur": 25
    },
    {
      "t": 1115.6,
      "ch": 1,
      "note": 40,
      "vel": 72,
      "dur": 25
    },
    {
      "t": 1115.6,
      "ch": 1,
      "note": 42,
      "vel": 77,
      "dur": 25
    },
    {
      "t": 1115.6,
      "ch": 1,
      "note": 36,
      "vel": 74,
      "dur": 25
    },
    {
      "t": 1115.6,
      "ch": 1,
      "note": 38,
      "vel": 63,
      "dur": 25
    },
    {
      "t": 1115.6,
      "ch": 1,
      "note": 40,
      "vel": 77,
      "dur": 25
    },
    {
      "t": 1115.6,
      "ch": 1,
      "note": 42,
      "vel": 71,
      "dur": 25
    },
    {
      "t": 1115.6,
      "ch": 1,
      "note": 36,
      "vel": 66,
      "dur": 25
    },
    {
      "t": 1115.6,
      "ch": 1,
      "note": 38,
      "vel": 73,
      "dur": 25
    },
    {
      "t": 1115.6,
      "ch": 1,
      "note": 40,
      "vel": 80,
      "dur": 25
    },
    {
      "t": 1115.6,
      "ch": 1,
      "note": 42,
      "vel": 72,
      "dur": 25
    },
    {
      "t": 1115.6,
      "ch": 1,
      "note": 36,
      "vel": 64,
      "dur": 25
    },
    {
      "t": 1115.6,
      "ch": 1,
      "note": 38,
      "vel": 72,
      "dur": 25
    },
    {
      "t": 1115.6,
      "ch": 1,
      "note": 40,
      "vel": 96,
      "dur": 25
    },
    {
      "t": 1115.6,
      "ch": 1,
      "note": 42,
      "vel": 59,
      "dur": 25
    },
    {
      "t": 1115.6,
      "ch": 1,
      "note": 36,
      "vel": 73,
      "dur": 25
    },
    {
      "t": 1115.6,
      "ch": 1,
      "note": 38,
      "vel": 81,
      "dur": 25
    },
    {
      "t": 1115.6,
      "ch": 1,
      "note": 40,
      "vel": 74,
      "dur": 25
    },
    {
      "t": 1115.6,
      "ch": 1,
      "note": 42,
      "vel": 61,
      "dur": 25
    },
    {
      "t": 1115.6,
      "ch": 1,
      "note": 36,
      "vel": 76,
      "dur": 25
    },
    {
      "t": 1115.6,
      "ch": 1,
      "note": 38,
      "vel": 59,
      "dur": 25
    },
    {
      "t": 1115.6,
      "ch": 1,
      "note": 40,
      "vel": 94,
      "dur": 25
    },
    {
      "t": 1115.6,
      "ch": 1,
      "note": 42,
      "vel": 65,
      "dur": 25
    },
    {
      "t": 1115.6,
      "ch": 1,
      "note": 36,
      "vel": 78,
      "dur": 25
    },
    {
      "t": 1115.6,
      "ch": 1,
      "note": 38,
      "vel": 57,
      "dur": 25
    },
    {
      "t": 1115.6,
      "ch": 1,
      "note": 40,
      "vel": 72,
      "dur": 25
    },
    {
      "t": 1115.6,
      "ch": 1,
      "note": 42,
      "vel": 92,
      "dur": 25
    },
    {
      "t": 1115.6,
      "ch": 1,
      "note": 36,
      "vel": 67,
      "dur": 25
    },
    {
      "t": 1115.6,
      "ch": 1,
      "note": 38,
      "vel": 82,
      "dur": 25
    },
    {
      "t": 1115.6,
      "ch": 1,
      "note": 40,
      "vel": 53,
      "dur": 25
    },
    {
      "t": 1115.6,
      "ch": 1,
      "note": 42,
      "vel": 91,
      "dur": 25
    },
    {
      "t": 1115.6,
      "ch": 1,
      "note": 36,
      "vel": 99,
      "dur": 25
    },
    {
      "t": 1115.6,
      "ch": 1,
      "note": 38,
      "vel": 69,
      "dur": 25
    },
    {
      "t": 1115.6,
      "ch": 1,
      "note": 40,
      "vel": 82,
      "dur": 25
    },
    {
      "t": 1115.6,
      "ch": 1,
      "note": 42,
      "vel": 96,
      "dur": 25
    },
    {
      "t": 1115.6,
      "ch": 1,
      "note": 36,
      "vel": 79,
      "dur": 25
    },
    {
      "t": 1115.6,
      "ch": 1,
      "note": 38,
      "vel": 88,
      "dur": 25
    },
    {
      "t": 1115.6,
      "ch": 1,
      "note": 40,
      "vel": 84,
      "dur": 25
    },
    {
      "t": 1115.6,
      "ch": 1,
      "note": 42,
      "vel": 79,
      "dur": 25
    },
    {
      "t": 1115.6,
      "ch": 1,
      "note": 36,
      "vel": 82,
      "dur": 25
    },
    {
      "t": 1115.6,
      "ch": 1,
      "note": 38,
      "vel": 77,
      "dur": 25
    },
    {
      "t": 1115.6,
      "ch": 1,
      "note": 40,
      "vel": 96,
      "dur": 25
    },
    {
      "t": 1115.6,
      "ch": 1,
      "note": 42,
      "vel": 85,
      "dur": 25
    },
    {
      "t": 1115.6,
      "ch": 1,
      "note": 36,
      "vel": 70,
      "dur": 25
    },
    {
      "t": 1115.6,
      "ch": 1,
      "note": 38,
      "vel": 89,
      "dur": 25
    },
    {
      "t": 1115.6,
      "ch": 1,
      "note": 40,
      "vel": 77,
      "dur": 25
    },
    {
      "t": 1115.6,
      "ch": 1,
      "note": 42,
      "vel": 71,
      "dur": 25
    },
    {
      "t": 1115.6,
      "ch": 1,
      "note": 36,
      "vel": 61,
      "dur": 25
    },
    {
      "t": 1115.6,
      "ch": 1,
      "note": 38,
      "vel": 54,
      "dur": 25
    },
    {
      "t": 1115.6,
      "ch": 1,
      "note": 40,
      "vel": 85,
      "dur": 25
    },
    {
      "t": 1115.6,
      "ch": 1,
      "note": 42,
      "vel": 76,
      "dur": 25
    },
    {
      "t": 1115.6,
      "ch": 1,
      "note": 36,
      "vel": 65,
      "dur": 25
    },
    {
      "t": 1115.6,
      "ch": 1,
      "note": 38,
      "vel": 77,
      "dur": 25
    },
    {
      "t": 1115.6,
      "ch": 1,
      "note": 40,
      "vel": 85,
      "dur": 25
    },
    {
      "t": 1115.6,
      "ch": 1,
      "note": 42,
      "vel": 71,
      "dur": 25
    },
    {
      "t": 1115.6,
      "ch": 1,
      "note": 36,
      "vel": 86,
      "dur": 25
    },
    {
      "t": 1115.6,
      "ch": 1,
      "note": 38,
      "vel": 77,
      "dur": 25
    },
    {
      "t": 1115.6,
      "ch": 1,
      "note": 40,
      "vel": 83,
      "dur": 25
    },
    {
      "t": 1115.6,
      "ch": 1,
      "note": 42,
      "vel": 79,
      "dur": 25
    },
    {
      "t": 1115.6,
      "ch": 1,
      "note": 36,
      "vel": 69,
      "dur": 25
    },
    {
      "t": 1115.6,
      "ch": 1,
      "note": 38,
      "vel": 93,
      "dur": 25
    },
    {
      "t": 1115.6,
      "ch": 1,
      "note": 40,
      "vel": 54,
      "dur": 25
    },
    {
      "t": 1115.6,
      "ch": 1,
      "note": 42,
      "vel": 71,
      "dur": 25
    },
    {
      "t": 1115.6,
      "ch": 1,
      "note": 36,
      "vel": 93,
      "dur": 25
    },
    {
      "t": 1115.6,
      "ch": 1,
      "note": 38,
      "vel": 69,
      "dur": 25
    },
    {
      "t": 1115.6,
      "ch": 1,
      "note": 40,
      "vel": 82,
      "dur": 25
    },
    {
      "t": 1115.6,
      "ch": 1,
      "note": 42,
      "vel": 81,
      "dur": 25
    },
    {
      "t": 1115.6,
      "ch": 1,
      "note": 36,
      "vel": 61,
      "dur": 25
    },
    {
      "t": 1115.6,
      "ch": 1,
      "note": 38,
      "vel": 64,
      "dur": 25
    },
    {
      "t": 1115.6,
      "ch": 1,
      "note": 40,
      "vel": 79,
      "dur": 25
    },
    {
      "t": 1115.6,
      "ch": 1,
      "note": 42,
      "vel": 58,
      "dur": 25
    },
    {
      "t": 1115.6,
      "ch": 1,
      "note": 36,
      "vel": 70,
      "dur": 25
    },
    {
      "t": 1115.6,
      "ch": 1,
      "note": 38,
      "vel": 69,
      "dur": 25
    },
    {
      "t": 1115.6,
      "ch": 1,
      "note": 40,
      "vel": 77,
      "dur": 25
    },
    {
      "t": 1115.6,
      "ch": 1,
      "note": 42,
      "vel": 67,
      "dur": 25
    },
    {
      "t": 1115.6,
      "ch": 1,
      "note": 36,
      "vel": 77,
      "dur": 25
    },
    {
      "t": 1115.6,
      "ch": 1,
      "note": 38,
      "vel": 50,
      "dur": 25
    },
    {
      "t": 1115.6,
      "ch": 1,
      "note": 40,
      "vel": 67,
      "dur": 25
    },
    {
      "t": 1115.6,
      "ch": 1,
      "note": 42,
      "vel": 65,
      "dur": 25
    },
    {
      "t": 1115.6,
      "ch": 1,
      "note": 36,
      "vel": 78,
      "dur": 25
    },
    {
      "t": 1115.6,
      "ch": 1,
      "note": 38,
      "vel": 67,
      "dur": 25
    },
    {
      "t": 1115.6,
      "ch": 1,
      "note": 40,
      "vel": 73,
      "dur": 25
    },
    {
      "t": 1115.6,
      "ch": 1,
      "note": 42,
      "vel": 62,
      "dur": 25
    },
    {
      "t": 1115.6,
      "ch": 1,
      "note": 36,
      "vel": 66,
      "dur": 25
    },
    {
      "t": 1115.6,
      "ch": 1,
      "note": 38,
      "vel": 78,
      "dur": 25
    },
    {
      "t": 1115.6,
      "ch": 1,
      "note": 40,
      "vel": 74,
      "dur": 25
    },
    {
      "t": 1115.6,
      "ch": 1,
      "note": 42,
      "vel": 74,
      "dur": 25
    },
    {
      "t": 1115.6,
      "ch": 1,
      "note": 36,
      "vel": 89,
      "dur": 25
    },
    {
      "t": 1115.6,
      "ch": 1,
      "note": 38,
      "vel": 64,
      "dur": 25
    },
    {
      "t": 1115.6,
      "ch": 1,
      "note": 40,
      "vel": 80,
      "dur": 25
    },
    {
      "t": 1115.6,
      "ch": 1,
      "note": 42,
      "vel": 79,
      "dur": 25
    },
    {
      "t": 1115.6,
      "ch": 1,
      "note": 36,
      "vel": 63,
      "dur": 25
    },
    {
      "t": 1115.6,
      "ch": 1,
      "note": 38,
      "vel": 58,
      "dur": 25
    },
    {
      "t": 1115.6,
      "ch": 1,
      "note": 40,
      "vel": 70,
      "dur": 25
    },
    {
      "t": 1115.6,
      "ch": 1,
      "note": 42,
      "vel": 48,
      "dur": 25
    },
    {
      "t": 1115.6,
      "ch": 1,
      "note": 36,
      "vel": 65,
      "dur": 25
    },
    {
      "t": 1115.6,
      "ch": 1,
      "note": 38,
      "vel": 82,
      "dur": 25
    },
    {
      "t": 1115.6,
      "ch": 1,
      "note": 40,
      "vel": 81,
      "dur": 25
    },
    {
      "t": 1115.6,
      "ch": 1,
      "note": 42,
      "vel": 69,
      "dur": 25
    },
    {
      "t": 1115.6,
      "ch": 1,
      "note": 36,
      "vel": 86,
      "dur": 25
    },
    {
      "t": 1115.6,
      "ch": 1,
      "note": 38,
      "vel": 61,
      "dur": 25
    },
    {
      "t": 1115.6,
      "ch": 1,
      "note": 40,
      "vel": 89,
      "dur": 25
    },
    {
      "t": 1115.6,
      "ch": 1,
      "note": 42,
      "vel": 70,
      "dur": 25
    },
    {
      "t": 1115.6,
      "ch": 1,
      "note": 36,
      "vel": 90,
      "dur": 25
    },
    {
      "t": 1115.6,
      "ch": 1,
      "note": 38,
      "vel": 70,
      "dur": 25
    },
    {
      "t": 1115.6,
      "ch": 1,
      "note": 40,
      "vel": 77,
      "dur": 25
    },
    {
      "t": 1115.6,
      "ch": 1,
      "note": 42,
      "vel": 62,
      "dur": 25
    },
    {
      "t": 1115.6,
      "ch": 1,
      "note": 36,
      "vel": 95,
      "dur": 25
    },
    {
      "t": 1115.6,
      "ch": 1,
      "note": 38,
      "vel": 72,
      "dur": 25
    },
    {
      "t": 1115.6,
      "ch": 1,
      "note": 40,
      "vel": 50,
      "dur": 25
    },
    {
      "t": 1115.6,
      "ch": 1,
      "note": 42,
      "vel": 85,
      "dur": 25
    },
    {
      "t": 1115.6,
      "ch": 1,
      "note": 36,
      "vel": 83,
      "dur": 25
    },
    {
      "t": 1115.6,
      "ch": 1,
      "note": 38,
      "vel": 77,
      "dur": 25
    },
    {
      "t": 1115.6,
      "ch": 1,
      "note": 40,
      "vel": 75,
      "dur": 25
    },
    {
      "t": 1115.6,
      "ch": 1,
      "note": 42,
      "vel": 71,
      "dur": 25
    },
    {
      "t": 1115.6,
      "ch": 1,
      "note": 36,
      "vel": 55,
      "dur": 25
    },
    {
      "t": 1115.6,
      "ch": 1,
      "note": 38,
      "vel": 65,
      "dur": 25
    },
    {
      "t": 1115.6,
      "ch": 1,
      "note": 40,
      "vel": 77,
      "dur": 25
    },
    {
      "t": 1115.6,
      "ch": 1,
      "note": 42,
      "vel": 73,
      "dur": 25
    },
    {
      "t": 1115.6,
      "ch": 1,
      "note": 36,
      "vel": 89,
      "dur": 25
    },
    {
      "t": 1115.6,
      "ch": 1,
      "note": 38,
      "vel": 69,
      "dur": 25
    },
    {
      "t": 1115.6,
      "ch": 1,
      "note": 40,
      "vel": 78,
      "dur": 25
    },
    {
      "t": 1115.6,
      "ch": 1,
      "note": 42,
      "vel": 70,
      "dur": 25
    },
    {
      "t": 1115.6,
      "ch": 1,
      "note": 36,
      "vel": 75,
      "dur": 25
    },
    {
      "t": 1115.6,
      "ch": 1,
      "note": 38,
      "vel": 66,
      "dur": 25
    },
    {
      "t": 1115.6,
      "ch": 1,
      "note": 40,
      "vel": 83,
      "dur": 25
    },
    {
      "t": 1115.6,
      "ch": 1,
      "note": 42,
      "vel": 90,
      "dur": 25
    },
    {
      "t": 1115.6,
      "ch": 1,
      "note": 36,
      "vel": 75,
      "dur": 25
    },
    {
      "t": 1115.6,
      "ch": 1,
      "note": 38,
      "vel": 65,
      "dur": 25
    },
    {
      "t": 1115.6,
      "ch": 1,
      "note": 40,
      "vel": 68,
      "dur": 25
    },
    {
      "t": 1115.6,
      "ch": 1,
      "note": 42,
      "vel": 77,
      "dur": 25
    },
    {
      "t": 1115.6,
      "ch": 1,
      "note": 36,
      "vel": 79,
      "dur": 25
    },
    {
      "t": 1115.6,
      "ch": 1,
      "note": 38,
      "vel": 88,
      "dur": 25
    },
    {
      "t": 1115.6,
      "ch": 1,
      "note": 40,
      "vel": 80,
      "dur": 25
    },
    {
      "t": 1115.6,
      "ch": 1,
      "note": 42,
      "vel": 81,
      "dur": 25
    },
    {
      "t": 1115.6,
      "ch": 1,
      "note": 36,
      "vel": 70,
      "dur": 25
    },
    {
      "t": 1115.6,
      "ch": 1,
      "note": 38,
      "vel": 80,
      "dur": 25
    },
    {
      "t": 1115.6,
      "ch": 1,
      "note": 40,
      "vel": 57,
      "dur": 25
    },
    {
      "t": 1115.6,
      "ch": 1,
      "note": 42,
      "vel": 63,
      "dur": 25
    },
    {
      "t": 1115.6,
      "ch": 1,
      "note": 36,
      "vel": 81,
      "dur": 25
    },
    {
      "t": 1115.6,
      "ch": 1,
      "note": 38,
      "vel": 97,
      "dur": 25
    },
    {
      "t": 1115.6,
      "ch": 1,
      "note": 40,
      "vel": 91,
      "dur": 25
    },
    {
      "t": 1115.6,
      "ch": 1,
      "note": 42,
      "vel": 44,
      "dur": 25
    },
    {
      "t": 1115.6,
      "ch": 1,
      "note": 36,
      "vel": 49,
      "dur": 25
    },
    {
      "t": 1115.6,
      "ch": 1,
      "note": 38,
      "vel": 69,
      "dur": 25
    },
    {
      "t": 1115.6,
      "ch": 1,
      "note": 40,
      "vel": 61,
      "dur": 25
    },
    {
      "t": 1115.6,
      "ch": 1,
      "note": 42,
      "vel": 77,
      "dur": 25
    },
    {
      "t": 1115.6,
      "ch": 1,
      "note": 36,
      "vel": 58,
      "dur": 25
    },
    {
      "t": 1115.6,
      "ch": 1,
      "note": 38,
      "vel": 61,
      "dur": 25
    },
    {
      "t": 1115.6,
      "ch": 1,
      "note": 40,
      "vel": 79,
      "dur": 25
    },
    {
      "t": 1115.6,
      "ch": 1,
      "note": 42,
      "vel": 72,
      "dur": 25
    },
    {
      "t": 1115.6,
      "ch": 1,
      "note": 36,
      "vel": 90,
      "dur": 25
    },
    {
      "t": 1115.6,
      "ch": 1,
      "note": 38,
      "vel": 70,
      "dur": 25
    },
    {
      "t": 1115.6,
      "ch": 1,
      "note": 40,
      "vel": 72,
      "dur": 25
    },
    {
      "t": 1115.6,
      "ch": 1,
      "note": 42,
      "vel": 73,
      "dur": 25
    },
    {
      "t": 1115.6,
      "ch": 1,
      "note": 36,
      "vel": 63,
      "dur": 25
    },
    {
      "t": 1115.6,
      "ch": 1,
      "note": 38,
      "vel": 52,
      "dur": 25
    },
    {
      "t": 1115.6,
      "ch": 1,
      "note": 40,
      "vel": 76,
      "dur": 25
    },
    {
      "t": 1115.6,
      "ch": 1,
      "note": 42,
      "vel": 80,
      "dur": 25
    },
    {
      "t": 1115.6,
      "ch": 1,
      "note": 36,
      "vel": 76,
      "dur": 25
    },
    {
      "t": 1115.6,
      "ch": 1,
      "note": 38,
      "vel": 89,
      "dur": 25
    },
    {
      "t": 1115.6,
      "ch": 1,
      "note": 40,
      "vel": 78,
      "dur": 25
    },
    {
      "t": 1115.6,
      "ch": 1,
      "note": 42,
      "vel": 82,
      "dur": 25
    },
    {
      "t": 1115.6,
      "ch": 1,
      "note": 36,
      "vel": 69,
      "dur": 25
    },
    {
      "t": 1115.6,
      "ch": 1,
      "note": 38,
      "vel": 72,
      "dur": 25
    },
    {
      "t": 1115.6,
      "ch": 1,
      "note": 40,
      "vel": 61,
      "dur": 25
    },
    {
      "t": 1115.6,
      "ch": 1,
      "note": 42,
      "vel": 90,
      "dur": 25
    },
    {
      "t": 1115.6,
      "ch": 1,
      "note": 36,
      "vel": 79,
      "dur": 25
    },
    {
      "t": 1115.6,
      "ch": 1,
      "note": 38,
      "vel": 70,
      "dur": 25
    },
    {
      "t": 1115.6,
      "ch": 1,
      "note": 40,
      "vel": 88,
      "dur": 25
    },
    {
      "t": 1115.6,
      "ch": 1,
      "note": 42,
      "vel": 73,
      "dur": 25
    },
    {
      "t": 1115.6,
      "ch": 1,
      "note": 36,
      "vel": 65,
      "dur": 25
    },
    {
      "t": 1115.6,
      "ch": 1,
      "note": 38,
      "vel": 86,
      "dur": 25
    },
    {
      "t": 1115.6,
      "ch": 1,
      "note": 40,
      "vel": 71,
      "dur": 25
    },
    {
      "t": 1115.6,
      "ch": 1,
      "note": 42,
      "vel": 69,
      "dur": 25
    },
    {
      "t": 1115.6,
      "ch": 1,
      "note": 36,
      "vel": 87,
      "dur": 25
    },
    {
      "t": 1115.6,
      "ch": 1,
      "note": 38,
      "vel": 69,
      "dur": 25
    },
    {
      "t": 1115.6,
      "ch": 1,
      "note": 40,
      "vel": 69,
      "dur": 25
    },
    {
      "t": 1115.6,
      "ch": 1,
      "note": 42,
      "vel": 74,
      "dur": 25
    },
    {
      "t": 1115.6,
      "ch": 1,
      "note": 36,
      "vel": 75,
      "dur": 25
    },
    {
      "t": 1115.6,
      "ch": 1,
      "note": 38,
      "vel": 63,
      "dur": 25
    },
    {
      "t": 1115.6,
      "ch": 1,
      "note": 40,
      "vel": 73,
      "dur": 25
    },
    {
      "t": 1115.6,
      "ch": 1,
      "note": 42,
      "vel": 80,
      "dur": 25
    },
    {
      "t": 1115.6,
      "ch": 1,
      "note": 36,
      "vel": 81,
      "dur": 25
    },
    {
      "t": 1115.6,
      "ch": 1,
      "note": 38,
      "vel": 72,
      "dur": 25
    },
    {
      "t": 1115.6,
      "ch": 1,
      "note": 40,
      "vel": 56,
      "dur": 25
    },
    {
      "t": 1115.6,
      "ch": 1,
      "note": 42,
      "vel": 86,
      "dur": 25
    },
    {
      "t": 1115.6,
      "ch": 1,
      "note": 36,
      "vel": 62,
      "dur": 25
    },
    {
      "t": 1115.6,
      "ch": 1,
      "note": 38,
      "vel": 69,
      "dur": 25
    },
    {
      "t": 1115.6,
      "ch": 1,
      "note": 40,
      "vel": 96,
      "dur": 25
    },
    {
      "t": 1115.6,
      "ch": 1,
      "note": 42,
      "vel": 87,
      "dur": 25
    },
    {
      "t": 1115.6,
      "ch": 1,
      "note": 36,
      "vel": 87,
      "dur": 25
    },
    {
      "t": 1115.6,
      "ch": 1,
      "note": 38,
      "vel": 64,
      "dur": 25
    },
    {
      "t": 1115.6,
      "ch": 1,
      "note": 40,
      "vel": 67,
      "dur": 25
    },
    {
      "t": 1115.6,
      "ch": 1,
      "note": 42,
      "vel": 77,
      "dur": 25
    },
    {
      "t": 1115.6,
      "ch": 1,
      "note": 36,
      "vel": 84,
      "dur": 25
    },
    {
      "t": 1115.6,
      "ch": 1,
      "note": 38,
      "vel": 73,
      "dur": 25
    },
    {
      "t": 1115.6,
      "ch": 1,
      "note": 40,
      "vel": 62,
      "dur": 25
    },
    {
      "t": 1115.6,
      "ch": 1,
      "note": 42,
      "vel": 67,
      "dur": 25
    },
    {
      "t": 1115.6,
      "ch": 1,
      "note": 36,
      "vel": 63,
      "dur": 25
    },
    {
      "t": 1115.6,
      "ch": 1,
      "note": 38,
      "vel": 98,
      "dur": 25
    },
    {
      "t": 1115.6,
      "ch": 1,
      "note": 40,
      "vel": 78,
      "dur": 25
    },
    {
      "t": 1115.6,
      "ch": 1,
      "note": 42,
      "vel": 61,
      "dur": 25
    },
    {
      "t": 1115.6,
      "ch": 1,
      "note": 36,
      "vel": 71,
      "dur": 25
    },
    {
      "t": 1115.6,
      "ch": 1,
      "note": 38,
      "vel": 96,
      "dur": 25
    },
    {
      "t": 1115.6,
      "ch": 1,
      "note": 40,
      "vel": 87,
      "dur": 25
    },
    {
      "t": 1115.6,
      "ch": 1,
      "note": 42,
      "vel": 70,
      "dur": 25
    },
    {
      "t": 1115.6,
      "ch": 1,
      "note": 36,
      "vel": 80,
      "dur": 25
    },
    {
      "t": 1115.6,
      "ch": 1,
      "note": 38,
      "vel": 78,
      "dur": 25
    },
    {
      "t": 1115.6,
      "ch": 1,
      "note": 40,
      "vel": 70,
      "dur": 25
    },
    {
      "t": 1115.6,
      "ch": 1,
      "note": 42,
      "vel": 79,
      "dur": 25
    },
    {
      "t": 1115.6,
      "ch": 1,
      "note": 36,
      "vel": 75,
      "dur": 25
    },
    {
      "t": 1115.6,
      "ch": 1,
      "note": 38,
      "vel": 59,
      "dur": 25
    },
    {
      "t": 1115.6,
      "ch": 1,
      "note": 40,
      "vel": 73,
      "dur": 25
    },
    {
      "t": 1115.6,
      "ch": 1,
      "note": 42,
      "vel": 63,
      "dur": 25
    },
    {
      "t": 1115.6,
      "ch": 1,
      "note": 36,
      "vel": 87,
      "dur": 25
    },
    {
      "t": 1115.6,
      "ch": 1,
      "note": 38,
      "vel": 80,
      "dur": 25
    },
    {
      "t": 1115.6,
      "ch": 1,
      "note": 40,
      "vel": 83,
      "dur": 25
    },
    {
      "t": 1115.6,
      "ch": 1,
      "note": 42,
      "vel": 78,
      "dur": 25
    },
    {
      "t": 1115.6,
      "ch": 1,
      "note": 36,
      "vel": 65,
      "dur": 25
    },
    {
      "t": 1115.6,
      "ch": 1,
      "note": 38,
      "vel": 87,
      "dur": 25
    },
    {
      "t": 1115.6,
      "ch": 1,
      "note": 40,
      "vel": 96,
      "dur": 25
    },
    {
      "t": 1115.6,
      "ch": 1,
      "note": 42,
      "vel": 75,
      "dur": 25
    },
    {
      "t": 1115.6,
      "ch": 1,
      "note": 36,
      "vel": 77,
      "dur": 25
    },
    {
      "t": 1115.6,
      "ch": 1,
      "note": 38,
      "vel": 87,
      "dur": 25
    },
    {
      "t": 1115.6,
      "ch": 1,
      "note": 40,
      "vel": 81,
      "dur": 25
    },
    {
      "t": 1115.6,
      "ch": 1,
      "note": 42,
      "vel": 53,
      "dur": 25
    },
    {
      "t": 1115.6,
      "ch": 1,
      "note": 36,
      "vel": 72,
      "dur": 25
    },
    {
      "t": 1115.6,
      "ch": 1,
      "note": 38,
      "vel": 66,
      "dur": 25
    },
    {
      "t": 1115.6,
      "ch": 1,
      "note": 40,
      "vel": 81,
      "dur": 25
    },
    {
      "t": 1115.6,
      "ch": 1,
      "note": 42,
      "vel": 61,
      "dur": 25
    },
    {
      "t": 1115.6,
      "ch": 1,
      "note": 36,
      "vel": 74,
      "dur": 25
    },
    {
      "t": 1115.6,
      "ch": 1,
      "note": 38,
      "vel": 94,
      "dur": 25
    },
    {
      "t": 1115.6,
      "ch": 1,
      "note": 40,
      "vel": 76,
      "dur": 25
    },
    {
      "t": 1115.6,
      "ch": 1,
      "note": 42,
      "vel": 62,
      "dur": 25
    },
    {
      "t": 1115.6,
      "ch": 1,
      "note": 36,
      "vel": 68,
      "dur": 25
    },
    {
      "t": 1115.6,
      "ch": 1,
      "note": 38,
      "vel": 88,
      "dur": 25
    },
    {
      "t": 1115.6,
      "ch": 1,
      "note": 40,
      "vel": 65,
      "dur": 25
    },
    {
      "t": 1115.6,
      "ch": 1,
      "note": 42,
      "vel": 67,
      "dur": 25
    },
    {
      "t": 1115.6,
      "ch": 1,
      "note": 36,
      "vel": 73,
      "dur": 25
    },
    {
      "t": 1115.6,
      "ch": 1,
      "note": 38,
      "vel": 82,
      "dur": 25
    },
    {
      "t": 1115.6,
      "ch": 1,
      "note": 40,
      "vel": 69,
      "dur": 25
    },
    {
      "t": 1115.6,
      "ch": 1,
      "note": 42,
      "vel": 75,
      "dur": 25
    },
    {
      "t": 1115.6,
      "ch": 1,
      "note": 36,
      "vel": 88,
      "dur": 25
    },
    {
      "t": 1115.6,
      "ch": 1,
      "note": 38,
      "vel": 71,
      "dur": 25
    },
    {
      "t": 1115.6,
      "ch": 1,
      "note": 40,
      "vel": 87,
      "dur": 25
    },
    {
      "t": 1115.6,
      "ch": 1,
      "note": 42,
      "vel": 71,
      "dur": 25
    },
    {
      "t": 1115.6,
      "ch": 1,
      "note": 36,
      "vel": 60,
      "dur": 25
    },
    {
      "t": 1115.6,
      "ch": 1,
      "note": 38,
      "vel": 60,
      "dur": 25
    },
    {
      "t": 1115.6,
      "ch": 1,
      "note": 40,
      "vel": 71,
      "dur": 25
    },
    {
      "t": 1115.6,
      "ch": 1,
      "note": 42,
      "vel": 65,
      "dur": 25
    },
    {
      "t": 1115.6,
      "ch": 1,
      "note": 36,
      "vel": 83,
      "dur": 25
    },
    {
      "t": 1115.6,
      "ch": 1,
      "note": 38,
      "vel": 72,
      "dur": 25
    },
    {
      "t": 1115.6,
      "ch": 1,
      "note": 40,
      "vel": 72,
      "dur": 25
    },
    {
      "t": 1115.6,
      "ch": 1,
      "note": 42,
      "vel": 69,
      "dur": 25
    },
    {
      "t": 1115.6,
      "ch": 1,
      "note": 36,
      "vel": 82,
      "dur": 25
    },
    {
      "t": 1115.6,
      "ch": 1,
      "note": 38,
      "vel": 75,
      "dur": 25
    },
    {
      "t": 1115.6,
      "ch": 1,
      "note": 40,
      "vel": 79,
      "dur": 25
    },
    {
      "t": 1115.6,
      "ch": 1,
      "note": 42,
      "vel": 71,
      "dur": 25
    },
    {
      "t": 1115.6,
      "ch": 1,
      "note": 36,
      "vel": 66,
      "dur": 25
    },
    {
      "t": 1115.6,
      "ch": 1,
      "note": 38,
      "vel": 76,
      "dur": 25
    },
    {
      "t": 1115.6,
      "ch": 1,
      "note": 40,
      "vel": 67,
      "dur": 25
    },
    {
      "t": 1115.6,
      "ch": 1,
      "note": 42,
      "vel": 75,
      "dur": 25
    },
    {
      "t": 1115.6,
      "ch": 1,
      "note": 36,
      "vel": 76,
      "dur": 25
    },
    {
      "t": 1115.6,
      "ch": 1,
      "note": 38,
      "vel": 86,
      "dur": 25
    },
    {
      "t": 1115.6,
      "ch": 1,
      "note": 40,
      "vel": 96,
      "dur": 25
    },
    {
      "t": 1115.6,
      "ch": 1,
      "note": 42,
      "vel": 87,
      "dur": 25
    },
    {
      "t": 1115.6,
      "ch": 1,
      "note": 36,
      "vel": 87,
      "dur": 25
    },
    {
      "t": 1115.6,
      "ch": 1,
      "note": 38,
      "vel": 61,
      "dur": 25
    },
    {
      "t": 1115.6,
      "ch": 1,
      "note": 40,
      "vel": 67,
      "dur": 25
    },
    {
      "t": 1115.6,
      "ch": 1,
      "note": 42,
      "vel": 71,
      "dur": 25
    },
    {
      "t": 1115.6,
      "ch": 1,
      "note": 36,
      "vel": 88,
      "dur": 25
    },
    {
      "t": 1115.6,
      "ch": 1,
      "note": 38,
      "vel": 89,
      "dur": 25
    },
    {
      "t": 1115.6,
      "ch": 1,
      "note": 40,
      "vel": 80,
      "dur": 25
    },
    {
      "t": 1115.6,
      "ch": 1,
      "note": 42,
      "vel": 89,
      "dur": 25
    },
    {
      "t": 1115.6,
      "ch": 1,
      "note": 36,
      "vel": 84,
      "dur": 25
    },
    {
      "t": 1115.6,
      "ch": 1,
      "note": 38,
      "vel": 91,
      "dur": 25
    },
    {
      "t": 1115.6,
      "ch": 1,
      "note": 40,
      "vel": 64,
      "dur": 25
    },
    {
      "t": 1115.6,
      "ch": 1,
      "note": 42,
      "vel": 91,
      "dur": 25
    },
    {
      "t": 1115.6,
      "ch": 1,
      "note": 36,
      "vel": 70,
      "dur": 25
    },
    {
      "t": 1115.6,
      "ch": 1,
      "note": 38,
      "vel": 65,
      "dur": 25
    },
    {
      "t": 1115.6,
      "ch": 1,
      "note": 40,
      "vel": 81,
      "dur": 25
    },
    {
      "t": 1115.6,
      "ch": 1,
      "note": 42,
      "vel": 69,
      "dur": 25
    },
    {
      "t": 1115.6,
      "ch": 1,
      "note": 36,
      "vel": 85,
      "dur": 25
    },
    {
      "t": 1115.6,
      "ch": 1,
      "note": 38,
      "vel": 53,
      "dur": 25
    },
    {
      "t": 1115.6,
      "ch": 1,
      "note": 40,
      "vel": 64,
      "dur": 25
    },
    {
      "t": 1115.6,
      "ch": 1,
      "note": 42,
      "vel": 93,
      "dur": 25
    },
    {
      "t": 1115.6,
      "ch": 1,
      "note": 36,
      "vel": 71,
      "dur": 25
    },
    {
      "t": 1115.6,
      "ch": 1,
      "note": 38,
      "vel": 87,
      "dur": 25
    },
    {
      "t": 1115.6,
      "ch": 1,
      "note": 40,
      "vel": 73,
      "dur": 25
    },
    {
      "t": 1115.6,
      "ch": 1,
      "note": 42,
      "vel": 67,
      "dur": 25
    },
    {
      "t": 1115.6,
      "ch": 1,
      "note": 36,
      "vel": 82,
      "dur": 25
    },
    {
      "t": 1115.6,
      "ch": 1,
      "note": 38,
      "vel": 82,
      "dur": 25
    },
    {
      "t": 1115.6,
      "ch": 1,
      "note": 40,
      "vel": 93,
      "dur": 25
    },
    {
      "t": 1115.6,
      "ch": 1,
      "note": 42,
      "vel": 70,
      "dur": 25
    },
    {
      "t": 1115.6,
      "ch": 1,
      "note": 36,
      "vel": 89,
      "dur": 25
    },
    {
      "t": 1115.6,
      "ch": 1,
      "note": 38,
      "vel": 57,
      "dur": 25
    },
    {
      "t": 1115.6,
      "ch": 1,
      "note": 40,
      "vel": 98,
      "dur": 25
    },
    {
      "t": 1115.6,
      "ch": 1,
      "note": 42,
      "vel": 60,
      "dur": 25
    },
    {
      "t": 1115.6,
      "ch": 1,
      "note": 36,
      "vel": 73,
      "dur": 25
    },
    {
      "t": 1115.6,
      "ch": 1,
      "note": 38,
      "vel": 93,
      "dur": 25
    },
    {
      "t": 1115.6,
      "ch": 1,
      "note": 40,
      "vel": 58,
      "dur": 25
    },
    {
      "t": 1115.6,
      "ch": 1,
      "note": 42,
      "vel": 81,
      "dur": 25
    },
    {
      "t": 1115.6,
      "ch": 1,
      "note": 36,
      "vel": 65,
      "dur": 25
    },
    {
      "t": 1115.6,
      "ch": 1,
      "note": 38,
      "vel": 68,
      "dur": 25
    },
    {
      "t": 1115.6,
      "ch": 1,
      "note": 40,
      "vel": 69,
      "dur": 25
    },
    {
      "t": 1115.6,
      "ch": 1,
      "note": 42,
      "vel": 83,
      "dur": 25
    },
    {
      "t": 1115.6,
      "ch": 1,
      "note": 36,
      "vel": 62,
      "dur": 25
    },
    {
      "t": 1115.6,
      "ch": 1,
      "note": 38,
      "vel": 81,
      "dur": 25
    },
    {
      "t": 1115.6,
      "ch": 1,
      "note": 40,
      "vel": 80,
      "dur": 25
    },
    {
      "t": 1115.6,
      "ch": 1,
      "note": 42,
      "vel": 55,
      "dur": 25
    },
    {
      "t": 1115.6,
      "ch": 1,
      "note": 36,
      "vel": 78,
      "dur": 25
    },
    {
      "t": 1115.6,
      "ch": 1,
      "note": 38,
      "vel": 77,
      "dur": 25
    },
    {
      "t": 1115.6,
      "ch": 1,
      "note": 40,
      "vel": 73,
      "dur": 25
    },
    {
      "t": 1115.6,
      "ch": 1,
      "note": 42,
      "vel": 75,
      "dur": 25
    },
    {
      "t": 1115.6,
      "ch": 1,
      "note": 36,
      "vel": 85,
      "dur": 25
    },
    {
      "t": 1115.6,
      "ch": 1,
      "note": 38,
      "vel": 58,
      "dur": 25
    },
    {
      "t": 1115.6,
      "ch": 1,
      "note": 40,
      "vel": 60,
      "dur": 25
    },
    {
      "t": 1115.6,
      "ch": 1,
      "note": 42,
      "vel": 94,
      "dur": 25
    },
    {
      "t": 1115.6,
      "ch": 1,
      "note": 36,
      "vel": 92,
      "dur": 25
    },
    {
      "t": 1115.6,
      "ch": 1,
      "note": 38,
      "vel": 87,
      "dur": 25
    },
    {
      "t": 1115.6,
      "ch": 1,
      "note": 40,
      "vel": 97,
      "dur": 25
    },
    {
      "t": 1115.6,
      "ch": 1,
      "note": 42,
      "vel": 65,
      "dur": 25
    },
    {
      "t": 1115.6,
      "ch": 1,
      "note": 36,
      "vel": 82,
      "dur": 25
    },
    {
      "t": 1115.6,
      "ch": 1,
      "note": 38,
      "vel": 96,
      "dur": 25
    },
    {
      "t": 1115.6,
      "ch": 1,
      "note": 40,
      "vel": 48,
      "dur": 25
    },
    {
      "t": 1115.6,
      "ch": 1,
      "note": 42,
      "vel": 72,
      "dur": 25
    },
    {
      "t": 1115.6,
      "ch": 1,
      "note": 36,
      "vel": 55,
      "dur": 25
    },
    {
      "t": 1115.6,
      "ch": 1,
      "note": 38,
      "vel": 60,
      "dur": 25
    },
    {
      "t": 1115.6,
      "ch": 1,
      "note": 40,
      "vel": 70,
      "dur": 25
    },
    {
      "t": 1115.6,
      "ch": 1,
      "note": 42,
      "vel": 69,
      "dur": 25
    },
    {
      "t": 1115.6,
      "ch": 1,
      "note": 36,
      "vel": 80,
      "dur": 25
    },
    {
      "t": 1115.6,
      "ch": 1,
      "note": 38,
      "vel": 69,
      "dur": 25
    },
    {
      "t": 1115.6,
      "ch": 1,
      "note": 40,
      "vel": 85,
      "dur": 25
    },
    {
      "t": 1115.6,
      "ch": 1,
      "note": 42,
      "vel": 76,
      "dur": 25
    },
    {
      "t": 1115.6,
      "ch": 1,
      "note": 36,
      "vel": 72,
      "dur": 25
    },
    {
      "t": 1115.6,
      "ch": 1,
      "note": 38,
      "vel": 66,
      "dur": 25
    },
    {
      "t": 1115.6,
      "ch": 1,
      "note": 40,
      "vel": 74,
      "dur": 25
    },
    {
      "t": 1115.6,
      "ch": 1,
      "note": 42,
      "vel": 49,
      "dur": 25
    },
    {
      "t": 1115.6,
      "ch": 1,
      "note": 36,
      "vel": 53,
      "dur": 25
    },
    {
      "t": 1115.6,
      "ch": 1,
      "note": 38,
      "vel": 75,
      "dur": 25
    },
    {
      "t": 1115.6,
      "ch": 1,
      "note": 40,
      "vel": 61,
      "dur": 25
    },
    {
      "t": 1115.6,
      "ch": 1,
      "note": 42,
      "vel": 68,
      "dur": 25
    },
    {
      "t": 1115.6,
      "ch": 1,
      "note": 36,
      "vel": 65,
      "dur": 25
    },
    {
      "t": 1115.6,
      "ch": 1,
      "note": 38,
      "vel": 78,
      "dur": 25
    },
    {
      "t": 1115.6,
      "ch": 1,
      "note": 40,
      "vel": 75,
      "dur": 25
    },
    {
      "t": 1115.6,
      "ch": 1,
      "note": 42,
      "vel": 55,
      "dur": 25
    },
    {
      "t": 1115.6,
      "ch": 1,
      "note": 36,
      "vel": 61,
      "dur": 25
    },
    {
      "t": 1115.6,
      "ch": 1,
      "note": 38,
      "vel": 71,
      "dur": 25
    },
    {
      "t": 1115.6,
      "ch": 1,
      "note": 40,
      "vel": 91,
      "dur": 25
    },
    {
      "t": 1115.6,
      "ch": 1,
      "note": 42,
      "vel": 91,
      "dur": 25
    },
    {
      "t": 1115.6,
      "ch": 1,
      "note": 36,
      "vel": 80,
      "dur": 25
    },
    {
      "t": 1115.6,
      "ch": 1,
      "note": 38,
      "vel": 81,
      "dur": 25
    },
    {
      "t": 1115.6,
      "ch": 1,
      "note": 40,
      "vel": 54,
      "dur": 25
    },
    {
      "t": 1115.6,
      "ch": 1,
      "note": 42,
      "vel": 85,
      "dur": 25
    },
    {
      "t": 1115.6,
      "ch": 1,
      "note": 36,
      "vel": 59,
      "dur": 25
    },
    {
      "t": 1115.6,
      "ch": 1,
      "note": 38,
      "vel": 63,
      "dur": 25
    },
    {
      "t": 1115.6,
      "ch": 1,
      "note": 40,
      "vel": 91,
      "dur": 25
    },
    {
      "t": 1115.6,
      "ch": 1,
      "note": 42,
      "vel": 65,
      "dur": 25
    },
    {
      "t": 1115.6,
      "ch": 1,
      "note": 36,
      "vel": 71,
      "dur": 25
    },
    {
      "t": 1115.6,
      "ch": 1,
      "note": 38,
      "vel": 71,
      "dur": 25
    },
    {
      "t": 1115.6,
      "ch": 1,
      "note": 40,
      "vel": 64,
      "dur": 25
    },
    {
      "t": 1115.6,
      "ch": 1,
      "note": 42,
      "vel": 62,
      "dur": 25
    },
    {
      "t": 1115.6,
      "ch": 1,
      "note": 36,
      "vel": 62,
      "dur": 25
    },
    {
      "t": 1115.6,
      "ch": 1,
      "note": 38,
      "vel": 66,
      "dur": 25
    },
    {
      "t": 1115.6,
      "ch": 1,
      "note": 40,
      "vel": 69,
      "dur": 25
    },
    {
      "t": 1115.6,
      "ch": 1,
      "note": 42,
      "vel": 77,
      "dur": 25
    },
    {
      "t": 1115.6,
      "ch": 1,
      "note": 36,
      "vel": 75,
      "dur": 25
    },
    {
      "t": 1115.6,
      "ch": 1,
      "note": 38,
      "vel": 84,
      "dur": 25
    },
    {
      "t": 1115.6,
      "ch": 1,
      "note": 40,
      "vel": 83,
      "dur": 25
    },
    {
      "t": 1115.6,
      "ch": 1,
      "note": 42,
      "vel": 80,
      "dur": 25
    },
    {
      "t": 1115.6,
      "ch": 1,
      "note": 36,
      "vel": 56,
      "dur": 25
    },
    {
      "t": 1115.6,
      "ch": 1,
      "note": 38,
      "vel": 85,
      "dur": 25
    },
    {
      "t": 1115.6,
      "ch": 1,
      "note": 40,
      "vel": 59,
      "dur": 25
    },
    {
      "t": 1115.6,
      "ch": 1,
      "note": 42,
      "vel": 86,
      "dur": 25
    },
    {
      "t": 1115.6,
      "ch": 1,
      "note": 36,
      "vel": 90,
      "dur": 25
    },
    {
      "t": 1115.6,
      "ch": 1,
      "note": 38,
      "vel": 83,
      "dur": 25
    },
    {
      "t": 1115.6,
      "ch": 1,
      "note": 40,
      "vel": 63,
      "dur": 25
    },
    {
      "t": 1115.6,
      "ch": 1,
      "note": 42,
      "vel": 74,
      "dur": 25
    },
    {
      "t": 1115.6,
      "ch": 1,
      "note": 36,
      "vel": 73,
      "dur": 25
    },
    {
      "t": 1115.6,
      "ch": 1,
      "note": 38,
      "vel": 87,
      "dur": 25
    },
    {
      "t": 1115.6,
      "ch": 1,
      "note": 40,
      "vel": 86,
      "dur": 25
    },
    {
      "t": 1115.6,
      "ch": 1,
      "note": 42,
      "vel": 82,
      "dur": 25
    },
    {
      "t": 1115.6,
      "ch": 1,
      "note": 36,
      "vel": 91,
      "dur": 25
    },
    {
      "t": 1115.6,
      "ch": 1,
      "note": 38,
      "vel": 80,
      "dur": 25
    },
    {
      "t": 1115.6,
      "ch": 1,
      "note": 40,
      "vel": 79,
      "dur": 25
    },
    {
      "t": 1115.6,
      "ch": 1,
      "note": 42,
      "vel": 68,
      "dur": 25
    },
    {
      "t": 1115.6,
      "ch": 1,
      "note": 36,
      "vel": 64,
      "dur": 25
    },
    {
      "t": 1115.6,
      "ch": 1,
      "note": 38,
      "vel": 81,
      "dur": 25
    },
    {
      "t": 1115.6,
      "ch": 1,
      "note": 40,
      "vel": 68,
      "dur": 25
    },
    {
      "t": 1115.6,
      "ch": 1,
      "note": 42,
      "vel": 88,
      "dur": 25
    },
    {
      "t": 1115.6,
      "ch": 1,
      "note": 36,
      "vel": 84,
      "dur": 25
    },
    {
      "t": 1115.6,
      "ch": 1,
      "note": 38,
      "vel": 68,
      "dur": 25
    },
    {
      "t": 1115.6,
      "ch": 1,
      "note": 40,
      "vel": 65,
      "dur": 25
    },
    {
      "t": 1115.6,
      "ch": 1,
      "note": 42,
      "vel": 84,
      "dur": 25
    },
    {
      "t": 1115.6,
      "ch": 1,
      "note": 36,
      "vel": 86,
      "dur": 25
    },
    {
      "t": 1115.6,
      "ch": 1,
      "note": 38,
      "vel": 92,
      "dur": 25
    },
    {
      "t": 1115.6,
      "ch": 1,
      "note": 40,
      "vel": 77,
      "dur": 25
    },
    {
      "t": 1115.6,
      "ch": 1,
      "note": 42,
      "vel": 80,
      "dur": 25
    },
    {
      "t": 1115.6,
      "ch": 1,
      "note": 36,
      "vel": 95,
      "dur": 25
    },
    {
      "t": 1115.6,
      "ch": 1,
      "note": 38,
      "vel": 60,
      "dur": 25
    },
    {
      "t": 1115.6,
      "ch": 1,
      "note": 40,
      "vel": 71,
      "dur": 25
    },
    {
      "t": 1115.6,
      "ch": 1,
      "note": 42,
      "vel": 71,
      "dur": 25
    },
    {
      "t": 1115.6,
      "ch": 1,
      "note": 36,
      "vel": 57,
      "dur": 25
    },
    {
      "t": 1115.6,
      "ch": 1,
      "note": 38,
      "vel": 68,
      "dur": 25
    },
    {
      "t": 1115.6,
      "ch": 1,
      "note": 40,
      "vel": 58,
      "dur": 25
    },
    {
      "t": 1115.6,
      "ch": 1,
      "note": 42,
      "vel": 73,
      "dur": 25
    },
    {
      "t": 1115.6,
      "ch": 1,
      "note": 36,
      "vel": 60,
      "dur": 25
    },
    {
      "t": 1115.6,
      "ch": 1,
      "note": 38,
      "vel": 87,
      "dur": 25
    },
    {
      "t": 1115.6,
      "ch": 1,
      "note": 40,
      "vel": 63,
      "dur": 25
    },
    {
      "t": 1115.6,
      "ch": 1,
      "note": 42,
      "vel": 89,
      "dur": 25
    },
    {
      "t": 1115.6,
      "ch": 1,
      "note": 36,
      "vel": 74,
      "dur": 25
    },
    {
      "t": 1115.6,
      "ch": 1,
      "note": 38,
      "vel": 69,
      "dur": 25
    },
    {
      "t": 1115.6,
      "ch": 1,
      "note": 40,
      "vel": 54,
      "dur": 25
    },
    {
      "t": 1115.6,
      "ch": 1,
      "note": 42,
      "vel": 90,
      "dur": 25
    },
    {
      "t": 1115.6,
      "ch": 1,
      "note": 36,
      "vel": 84,
      "dur": 25
    },
    {
      "t": 1115.6,
      "ch": 1,
      "note": 38,
      "vel": 89,
      "dur": 25
    },
    {
      "t": 1115.6,
      "ch": 1,
      "note": 40,
      "vel": 90,
      "dur": 25
    },
    {
      "t": 1115.6,
      "ch": 1,
      "note": 42,
      "vel": 92,
      "dur": 25
    },
    {
      "t": 1115.6,
      "ch": 1,
      "note": 36,
      "vel": 70,
      "dur": 25
    },
    {
      "t": 1115.6,
      "ch": 1,
      "note": 38,
      "vel": 63,
      "dur": 25
    },
    {
      "t": 1115.6,
      "ch": 1,
      "note": 40,
      "vel": 91,
      "dur": 25
    },
    {
      "t": 1115.6,
      "ch": 1,
      "note": 42,
      "vel": 80,
      "dur": 25
    },
    {
      "t": 1115.6,
      "ch": 1,
      "note": 36,
      "vel": 92,
      "dur": 25
    },
    {
      "t": 1115.6,
      "ch": 1,
      "note": 38,
      "vel": 66,
      "dur": 25
    },
    {
      "t": 1115.6,
      "ch": 1,
      "note": 40,
      "vel": 77,
      "dur": 25
    },
    {
      "t": 1115.6,
      "ch": 1,
      "note": 42,
      "vel": 78,
      "dur": 25
    },
    {
      "t": 1115.6,
      "ch": 1,
      "note": 36,
      "vel": 74,
      "dur": 25
    },
    {
      "t": 1115.6,
      "ch": 1,
      "note": 38,
      "vel": 79,
      "dur": 25
    },
    {
      "t": 1115.6,
      "ch": 1,
      "note": 40,
      "vel": 100,
      "dur": 25
    },
    {
      "t": 1115.6,
      "ch": 1,
      "note": 42,
      "vel": 83,
      "dur": 25
    },
    {
      "t": 1115.6,
      "ch": 1,
      "note": 36,
      "vel": 78,
      "dur": 25
    },
    {
      "t": 1115.6,
      "ch": 1,
      "note": 38,
      "vel": 103,
      "dur": 25
    },
    {
      "t": 1115.6,
      "ch": 1,
      "note": 40,
      "vel": 71,
      "dur": 25
    },
    {
      "t": 1115.6,
      "ch": 1,
      "note": 42,
      "vel": 71,
      "dur": 25
    },
    {
      "t": 1115.6,
      "ch": 1,
      "note": 36,
      "vel": 70,
      "dur": 25
    },
    {
      "t": 1115.6,
      "ch": 1,
      "note": 38,
      "vel": 86,
      "dur": 25
    },
    {
      "t": 1115.6,
      "ch": 1,
      "note": 40,
      "vel": 72,
      "dur": 25
    },
    {
      "t": 1115.6,
      "ch": 1,
      "note": 42,
      "vel": 69,
      "dur": 25
    },
    {
      "t": 1115.6,
      "ch": 1,
      "note": 36,
      "vel": 76,
      "dur": 25
    },
    {
      "t": 1115.6,
      "ch": 1,
      "note": 38,
      "vel": 79,
      "dur": 25
    },
    {
      "t": 1115.6,
      "ch": 1,
      "note": 40,
      "vel": 56,
      "dur": 25
    },
    {
      "t": 1115.6,
      "ch": 1,
      "note": 42,
      "vel": 56,
      "dur": 25
    },
    {
      "t": 1115.6,
      "ch": 1,
      "note": 36,
      "vel": 54,
      "dur": 25
    },
    {
      "t": 1115.6,
      "ch": 1,
      "note": 38,
      "vel": 66,
      "dur": 25
    },
    {
      "t": 1115.6,
      "ch": 1,
      "note": 40,
      "vel": 64,
      "dur": 25
    },
    {
      "t": 1115.6,
      "ch": 1,
      "note": 42,
      "vel": 76,
      "dur": 25
    },
    {
      "t": 1115.6,
      "ch": 1,
      "note": 36,
      "vel": 62,
      "dur": 25
    },
    {
      "t": 1115.6,
      "ch": 1,
      "note": 38,
      "vel": 67,
      "dur": 25
    },
    {
      "t": 1115.6,
      "ch": 1,
      "note": 40,
      "vel": 60,
      "dur": 25
    },
    {
      "t": 1115.6,
      "ch": 1,
      "note": 42,
      "vel": 79,
      "dur": 25
    },
    {
      "t": 1115.6,
      "ch": 1,
      "note": 36,
      "vel": 67,
      "dur": 25
    },
    {
      "t": 1115.6,
      "ch": 1,
      "note": 38,
      "vel": 87,
      "dur": 25
    },
    {
      "t": 1115.6,
      "ch": 1,
      "note": 40,
      "vel": 59,
      "dur": 25
    },
    {
      "t": 1115.6,
      "ch": 1,
      "note": 42,
      "vel": 92,
      "dur": 25
    },
    {
      "t": 1115.6,
      "ch": 1,
      "note": 36,
      "vel": 76,
      "dur": 25
    },
    {
      "t": 1115.6,
      "ch": 1,
      "note": 38,
      "vel": 64,
      "dur": 25
    },
    {
      "t": 1115.6,
      "ch": 1,
      "note": 40,
      "vel": 74,
      "dur": 25
    },
    {
      "t": 1115.6,
      "ch": 1,
      "note": 42,
      "vel": 60,
      "dur": 25
    },
    {
      "t": 1115.6,
      "ch": 1,
      "note": 36,
      "vel": 65,
      "dur": 25
    },
    {
      "t": 1115.6,
      "ch": 1,
      "note": 38,
      "vel": 77,
      "dur": 25
    },
    {
      "t": 1115.6,
      "ch": 1,
      "note": 40,
      "vel": 92,
      "dur": 25
    },
    {
      "t": 1115.6,
      "ch": 1,
      "note": 42,
      "vel": 64,
      "dur": 25
    },
    {
      "t": 1115.6,
      "ch": 1,
      "note": 36,
      "vel": 61,
      "dur": 25
    },
    {
      "t": 1115.6,
      "ch": 1,
      "note": 38,
      "vel": 91,
      "dur": 25
    },
    {
      "t": 1115.6,
      "ch": 1,
      "note": 40,
      "vel": 83,
      "dur": 25
    },
    {
      "t": 1115.6,
      "ch": 1,
      "note": 42,
      "vel": 76,
      "dur": 25
    },
    {
      "t": 1115.6,
      "ch": 1,
      "note": 36,
      "vel": 53,
      "dur": 25
    },
    {
      "t": 1115.6,
      "ch": 1,
      "note": 38,
      "vel": 59,
      "dur": 25
    },
    {
      "t": 1115.6,
      "ch": 1,
      "note": 40,
      "vel": 81,
      "dur": 25
    },
    {
      "t": 1115.6,
      "ch": 1,
      "note": 42,
      "vel": 79,
      "dur": 25
    },
    {
      "t": 1115.6,
      "ch": 1,
      "note": 36,
      "vel": 69,
      "dur": 25
    },
    {
      "t": 1115.6,
      "ch": 1,
      "note": 38,
      "vel": 87,
      "dur": 25
    },
    {
      "t": 1115.6,
      "ch": 1,
      "note": 40,
      "vel": 94,
      "dur": 25
    },
    {
      "t": 1115.6,
      "ch": 1,
      "note": 42,
      "vel": 82,
      "dur": 25
    },
    {
      "t": 1115.6,
      "ch": 1,
      "note": 36,
      "vel": 101,
      "dur": 25
    },
    {
      "t": 1115.6,
      "ch": 1,
      "note": 38,
      "vel": 58,
      "dur": 25
    },
    {
      "t": 1115.6,
      "ch": 1,
      "note": 40,
      "vel": 66,
      "dur": 25
    },
    {
      "t": 1115.6,
      "ch": 1,
      "note": 42,
      "vel": 71,
      "dur": 25
    },
    {
      "t": 1115.6,
      "ch": 1,
      "note": 36,
      "vel": 81,
      "dur": 25
    },
    {
      "t": 1115.6,
      "ch": 1,
      "note": 38,
      "vel": 65,
      "dur": 25
    },
    {
      "t": 1115.6,
      "ch": 1,
      "note": 40,
      "vel": 70,
      "dur": 25
    },
    {
      "t": 1115.6,
      "ch": 1,
      "note": 42,
      "vel": 73,
      "dur": 25
    },
    {
      "t": 1115.6,
      "ch": 1,
      "note": 36,
      "vel": 84,
      "dur": 25
    },
    {
      "t": 1115.6,
      "ch": 1,
      "note": 38,
      "vel": 79,
      "dur": 25
    },
    {
      "t": 1115.6,
      "ch": 1,
      "note": 40,
      "vel": 85,
      "dur": 25
    },
    {
      "t": 1115.6,
      "ch": 1,
      "note": 42,
      "vel": 71,
      "dur": 25
    },
    {
      "t": 1115.6,
      "ch": 1,
      "note": 36,
      "vel": 67,
      "dur": 25
    },
    {
      "t": 1115.6,
      "ch": 1,
      "note": 38,
      "vel": 89,
      "dur": 25
    },
    {
      "t": 1115.6,
      "ch": 1,
      "note": 40,
      "vel": 58,
      "dur": 25
    },
    {
      "t": 1115.6,
      "ch": 1,
      "note": 42,
      "vel": 68,
      "dur": 25
    },
    {
      "t": 1115.6,
      "ch": 1,
      "note": 36,
      "vel": 62,
      "dur": 25
    },
    {
      "t": 1115.6,
      "ch": 1,
      "note": 38,
      "vel": 61,
      "dur": 25
    },
    {
      "t": 1115.6,
      "ch": 1,
      "note": 40,
      "vel": 71,
      "dur": 25
    },
    {
      "t": 1115.6,
      "ch": 1,
      "note": 42,
      "vel": 87,
      "dur": 25
    },
    {
      "t": 1115.6,
      "ch": 1,
      "note": 36,
      "vel": 43,
      "dur": 25
    },
    {
      "t": 1115.6,
      "ch": 1,
      "note": 38,
      "vel": 69,
      "dur": 25
    },
    {
      "t": 1115.6,
      "ch": 1,
      "note": 40,
      "vel": 89,
      "dur": 25
    },
    {
      "t": 1115.6,
      "ch": 1,
      "note": 42,
      "vel": 63,
      "dur": 25
    },
    {
      "t": 1115.6,
      "ch": 1,
      "note": 36,
      "vel": 54,
      "dur": 25
    },
    {
      "t": 1115.6,
      "ch": 1,
      "note": 38,
      "vel": 87,
      "dur": 25
    },
    {
      "t": 1115.6,
      "ch": 1,
      "note": 40,
      "vel": 66,
      "dur": 25
    },
    {
      "t": 1115.6,
      "ch": 1,
      "note": 42,
      "vel": 86,
      "dur": 25
    },
    {
      "t": 1115.6,
      "ch": 1,
      "note": 36,
      "vel": 70,
      "dur": 25
    },
    {
      "t": 1115.6,
      "ch": 1,
      "note": 38,
      "vel": 66,
      "dur": 25
    },
    {
      "t": 1115.6,
      "ch": 1,
      "note": 40,
      "vel": 69,
      "dur": 25
    },
    {
      "t": 1115.6,
      "ch": 1,
      "note": 42,
      "vel": 76,
      "dur": 25
    },
    {
      "t": 1115.6,
      "ch": 1,
      "note": 36,
      "vel": 72,
      "dur": 25
    },
    {
      "t": 1115.6,
      "ch": 1,
      "note": 38,
      "vel": 82,
      "dur": 25
    },
    {
      "t": 1115.6,
      "ch": 1,
      "note": 40,
      "vel": 81,
      "dur": 25
    },
    {
      "t": 1115.6,
      "ch": 1,
      "note": 42,
      "vel": 71,
      "dur": 25
    },
    {
      "t": 1115.6,
      "ch": 1,
      "note": 36,
      "vel": 66,
      "dur": 25
    },
    {
      "t": 1115.6,
      "ch": 1,
      "note": 38,
      "vel": 68,
      "dur": 25
    },
    {
      "t": 1115.6,
      "ch": 1,
      "note": 40,
      "vel": 57,
      "dur": 25
    },
    {
      "t": 1115.6,
      "ch": 1,
      "note": 42,
      "vel": 76,
      "dur": 25
    },
    {
      "t": 1115.6,
      "ch": 1,
      "note": 36,
      "vel": 89,
      "dur": 25
    },
    {
      "t": 1115.6,
      "ch": 1,
      "note": 38,
      "vel": 77,
      "dur": 25
    },
    {
      "t": 1115.6,
      "ch": 1,
      "note": 40,
      "vel": 85,
      "dur": 25
    },
    {
      "t": 1115.6,
      "ch": 1,
      "note": 42,
      "vel": 90,
      "dur": 25
    },
    {
      "t": 1115.6,
      "ch": 1,
      "note": 36,
      "vel": 78,
      "dur": 25
    },
    {
      "t": 1115.6,
      "ch": 1,
      "note": 38,
      "vel": 87,
      "dur": 25
    },
    {
      "t": 1115.6,
      "ch": 1,
      "note": 40,
      "vel": 70,
      "dur": 25
    },
    {
      "t": 1115.6,
      "ch": 1,
      "note": 42,
      "vel": 93,
      "dur": 25
    },
    {
      "t": 1115.6,
      "ch": 1,
      "note": 36,
      "vel": 81,
      "dur": 25
    },
    {
      "t": 1115.6,
      "ch": 1,
      "note": 38,
      "vel": 70,
      "dur": 25
    },
    {
      "t": 1115.6,
      "ch": 1,
      "note": 40,
      "vel": 94,
      "dur": 25
    },
    {
      "t": 1115.6,
      "ch": 1,
      "note": 42,
      "vel": 73,
      "dur": 25
    },
    {
      "t": 1115.6,
      "ch": 1,
      "note": 36,
      "vel": 78,
      "dur": 25
    },
    {
      "t": 1115.6,
      "ch": 1,
      "note": 38,
      "vel": 75,
      "dur": 25
    },
    {
      "t": 1115.6,
      "ch": 1,
      "note": 40,
      "vel": 82,
      "dur": 25
    },
    {
      "t": 1115.6,
      "ch": 1,
      "note": 42,
      "vel": 78,
      "dur": 25
    },
    {
      "t": 1115.6,
      "ch": 1,
      "note": 36,
      "vel": 89,
      "dur": 25
    },
    {
      "t": 1115.6,
      "ch": 1,
      "note": 38,
      "vel": 51,
      "dur": 25
    },
    {
      "t": 1115.6,
      "ch": 1,
      "note": 40,
      "vel": 68,
      "dur": 25
    },
    {
      "t": 1115.6,
      "ch": 1,
      "note": 42,
      "vel": 46,
      "dur": 25
    },
    {
      "t": 1115.6,
      "ch": 1,
      "note": 36,
      "vel": 73,
      "dur": 25
    },
    {
      "t": 1115.6,
      "ch": 1,
      "note": 38,
      "vel": 68,
      "dur": 25
    },
    {
      "t": 1115.6,
      "ch": 1,
      "note": 40,
      "vel": 75,
      "dur": 25
    },
    {
      "t": 1115.6,
      "ch": 1,
      "note": 42,
      "vel": 95,
      "dur": 25
    },
    {
      "t": 1115.6,
      "ch": 1,
      "note": 36,
      "vel": 83,
      "dur": 25
    },
    {
      "t": 1115.6,
      "ch": 1,
      "note": 38,
      "vel": 52,
      "dur": 25
    },
    {
      "t": 1115.6,
      "ch": 1,
      "note": 40,
      "vel": 54,
      "dur": 25
    },
    {
      "t": 1115.6,
      "ch": 1,
      "note": 42,
      "vel": 54,
      "dur": 25
    },
    {
      "t": 1115.6,
      "ch": 1,
      "note": 36,
      "vel": 69,
      "dur": 25
    },
    {
      "t": 1115.6,
      "ch": 1,
      "note": 38,
      "vel": 86,
      "dur": 25
    },
    {
      "t": 1115.6,
      "ch": 1,
      "note": 40,
      "vel": 86,
      "dur": 25
    },
    {
      "t": 1115.6,
      "ch": 1,
      "note": 42,
      "vel": 70,
      "dur": 25
    },
    {
      "t": 1115.6,
      "ch": 1,
      "note": 36,
      "vel": 62,
      "dur": 25
    },
    {
      "t": 1115.6,
      "ch": 1,
      "note": 38,
      "vel": 87,
      "dur": 25
    },
    {
      "t": 1115.6,
      "ch": 1,
      "note": 40,
      "vel": 63,
      "dur": 25
    },
    {
      "t": 1115.6,
      "ch": 1,
      "note": 42,
      "vel": 63,
      "dur": 25
    },
    {
      "t": 1115.6,
      "ch": 1,
      "note": 36,
      "vel": 75,
      "dur": 25
    },
    {
      "t": 1115.6,
      "ch": 1,
      "note": 38,
      "vel": 83,
      "dur": 25
    },
    {
      "t": 1115.6,
      "ch": 1,
      "note": 40,
      "vel": 88,
      "dur": 25
    },
    {
      "t": 1115.6,
      "ch": 1,
      "note": 42,
      "vel": 71,
      "dur": 25
    },
    {
      "t": 1115.6,
      "ch": 1,
      "note": 36,
      "vel": 65,
      "dur": 25
    },
    {
      "t": 1115.6,
      "ch": 1,
      "note": 38,
      "vel": 77,
      "dur": 25
    },
    {
      "t": 1115.6,
      "ch": 1,
      "note": 40,
      "vel": 66,
      "dur": 25
    },
    {
      "t": 1115.6,
      "ch": 1,
      "note": 42,
      "vel": 66,
      "dur": 25
    },
    {
      "t": 1115.6,
      "ch": 1,
      "note": 36,
      "vel": 66,
      "dur": 25
    },
    {
      "t": 1115.6,
      "ch": 1,
      "note": 38,
      "vel": 48,
      "dur": 25
    },
    {
      "t": 1115.6,
      "ch": 1,
      "note": 40,
      "vel": 99,
      "dur": 25
    },
    {
      "t": 1115.6,
      "ch": 1,
      "note": 42,
      "vel": 80,
      "dur": 25
    },
    {
      "t": 1115.6,
      "ch": 1,
      "note": 36,
      "vel": 80,
      "dur": 25
    },
    {
      "t": 1115.6,
      "ch": 1,
      "note": 38,
      "vel": 65,
      "dur": 25
    },
    {
      "t": 1115.6,
      "ch": 1,
      "note": 40,
      "vel": 85,
      "dur": 25
    },
    {
      "t": 1115.6,
      "ch": 1,
      "note": 42,
      "vel": 84,
      "dur": 25
    },
    {
      "t": 1115.6,
      "ch": 1,
      "note": 36,
      "vel": 56,
      "dur": 25
    },
    {
      "t": 1115.6,
      "ch": 1,
      "note": 38,
      "vel": 58,
      "dur": 25
    },
    {
      "t": 1115.6,
      "ch": 1,
      "note": 40,
      "vel": 59,
      "dur": 25
    },
    {
      "t": 1115.6,
      "ch": 1,
      "note": 42,
      "vel": 76,
      "dur": 25
    },
    {
      "t": 1115.6,
      "ch": 1,
      "note": 36,
      "vel": 82,
      "dur": 25
    },
    {
      "t": 1115.6,
      "ch": 1,
      "note": 38,
      "vel": 71,
      "dur": 25
    },
    {
      "t": 1115.6,
      "ch": 1,
      "note": 40,
      "vel": 85,
      "dur": 25
    },
    {
      "t": 1115.6,
      "ch": 1,
      "note": 42,
      "vel": 68,
      "dur": 25
    },
    {
      "t": 1115.6,
      "ch": 1,
      "note": 36,
      "vel": 71,
      "dur": 25
    },
    {
      "t": 1115.6,
      "ch": 1,
      "note": 38,
      "vel": 89,
      "dur": 25
    },
    {
      "t": 1115.6,
      "ch": 1,
      "note": 40,
      "vel": 83,
      "dur": 25
    },
    {
      "t": 1115.6,
      "ch": 1,
      "note": 42,
      "vel": 70,
      "dur": 25
    },
    {
      "t": 1115.6,
      "ch": 1,
      "note": 36,
      "vel": 77,
      "dur": 25
    },
    {
      "t": 1115.6,
      "ch": 1,
      "note": 38,
      "vel": 46,
      "dur": 25
    },
    {
      "t": 1115.6,
      "ch": 1,
      "note": 40,
      "vel": 60,
      "dur": 25
    },
    {
      "t": 1115.6,
      "ch": 1,
      "note": 42,
      "vel": 84,
      "dur": 25
    },
    {
      "t": 1115.6,
      "ch": 1,
      "note": 36,
      "vel": 75,
      "dur": 25
    },
    {
      "t": 1115.6,
      "ch": 1,
      "note": 38,
      "vel": 81,
      "dur": 25
    },
    {
      "t": 1115.6,
      "ch": 1,
      "note": 40,
      "vel": 87,
      "dur": 25
    },
    {
      "t": 1115.6,
      "ch": 1,
      "note": 42,
      "vel": 85,
      "dur": 25
    },
    {
      "t": 1115.6,
      "ch": 1,
      "note": 36,
      "vel": 70,
      "dur": 25
    },
    {
      "t": 1115.6,
      "ch": 1,
      "note": 38,
      "vel": 79,
      "dur": 25
    },
    {
      "t": 1115.6,
      "ch": 1,
      "note": 40,
      "vel": 67,
      "dur": 25
    },
    {
      "t": 1115.6,
      "ch": 1,
      "note": 42,
      "vel": 67,
      "dur": 25
    },
    {
      "t": 1115.6,
      "ch": 1,
      "note": 36,
      "vel": 57,
      "dur": 25
    },
    {
      "t": 1115.6,
      "ch": 1,
      "note": 38,
      "vel": 53,
      "dur": 25
    },
    {
      "t": 1115.6,
      "ch": 1,
      "note": 40,
      "vel": 64,
      "dur": 25
    },
    {
      "t": 1115.6,
      "ch": 1,
      "note": 42,
      "vel": 70,
      "dur": 25
    },
    {
      "t": 1115.6,
      "ch": 1,
      "note": 36,
      "vel": 86,
      "dur": 25
    },
    {
      "t": 1115.6,
      "ch": 1,
      "note": 38,
      "vel": 90,
      "dur": 25
    },
    {
      "t": 1115.6,
      "ch": 1,
      "note": 40,
      "vel": 78,
      "dur": 25
    },
    {
      "t": 1115.6,
      "ch": 1,
      "note": 42,
      "vel": 87,
      "dur": 25
    },
    {
      "t": 1115.6,
      "ch": 1,
      "note": 36,
      "vel": 70,
      "dur": 25
    },
    {
      "t": 1115.6,
      "ch": 1,
      "note": 38,
      "vel": 86,
      "dur": 25
    },
    {
      "t": 1115.6,
      "ch": 1,
      "note": 40,
      "vel": 48,
      "dur": 25
    },
    {
      "t": 1115.6,
      "ch": 1,
      "note": 42,
      "vel": 79,
      "dur": 25
    },
    {
      "t": 1115.6,
      "ch": 1,
      "note": 36,
      "vel": 66,
      "dur": 25
    },
    {
      "t": 1115.6,
      "ch": 1,
      "note": 38,
      "vel": 68,
      "dur": 25
    },
    {
      "t": 1115.6,
      "ch": 1,
      "note": 40,
      "vel": 67,
      "dur": 25
    },
    {
      "t": 1115.6,
      "ch": 1,
      "note": 42,
      "vel": 70,
      "dur": 25
    },
    {
      "t": 1115.6,
      "ch": 1,
      "note": 36,
      "vel": 77,
      "dur": 25
    },
    {
      "t": 1115.6,
      "ch": 1,
      "note": 38,
      "vel": 83,
      "dur": 25
    },
    {
      "t": 1115.6,
      "ch": 1,
      "note": 40,
      "vel": 77,
      "dur": 25
    },
    {
      "t": 1115.6,
      "ch": 1,
      "note": 42,
      "vel": 101,
      "dur": 25
    },
    {
      "t": 1115.6,
      "ch": 1,
      "note": 36,
      "vel": 59,
      "dur": 25
    },
    {
      "t": 1115.6,
      "ch": 1,
      "note": 38,
      "vel": 74,
      "dur": 25
    },
    {
      "t": 1115.6,
      "ch": 1,
      "note": 40,
      "vel": 73,
      "dur": 25
    },
    {
      "t": 1115.6,
      "ch": 1,
      "note": 42,
      "vel": 76,
      "dur": 25
    },
    {
      "t": 1115.6,
      "ch": 1,
      "note": 36,
      "vel": 65,
      "dur": 25
    },
    {
      "t": 1115.6,
      "ch": 1,
      "note": 38,
      "vel": 49,
      "dur": 25
    },
    {
      "t": 1115.6,
      "ch": 1,
      "note": 40,
      "vel": 67,
      "dur": 25
    },
    {
      "t": 1115.6,
      "ch": 1,
      "note": 42,
      "vel": 74,
      "dur": 25
    },
    {
      "t": 1115.6,
      "ch": 1,
      "note": 36,
      "vel": 55,
      "dur": 25
    },
    {
      "t": 1115.6,
      "ch": 1,
      "note": 38,
      "vel": 65,
      "dur": 25
    },
    {
      "t": 1115.6,
      "ch": 1,
      "note": 40,
      "vel": 78,
      "dur": 25
    },
    {
      "t": 1115.6,
      "ch": 1,
      "note": 42,
      "vel": 78,
      "dur": 25
    },
    {
      "t": 1115.6,
      "ch": 1,
      "note": 36,
      "vel": 76,
      "dur": 25
    },
    {
      "t": 1115.6,
      "ch": 1,
      "note": 38,
      "vel": 75,
      "dur": 25
    },
    {
      "t": 1115.6,
      "ch": 1,
      "note": 40,
      "vel": 70,
      "dur": 25
    },
    {
      "t": 1115.6,
      "ch": 1,
      "note": 42,
      "vel": 75,
      "dur": 25
    },
    {
      "t": 1115.6,
      "ch": 1,
      "note": 36,
      "vel": 68,
      "dur": 25
    },
    {
      "t": 1115.6,
      "ch": 1,
      "note": 38,
      "vel": 80,
      "dur": 25
    },
    {
      "t": 1115.6,
      "ch": 1,
      "note": 40,
      "vel": 60,
      "dur": 25
    },
    {
      "t": 1115.6,
      "ch": 1,
      "note": 42,
      "vel": 67,
      "dur": 25
    },
    {
      "t": 1115.6,
      "ch": 1,
      "note": 36,
      "vel": 45,
      "dur": 25
    },
    {
      "t": 1115.6,
      "ch": 1,
      "note": 38,
      "vel": 56,
      "dur": 25
    },
    {
      "t": 1115.6,
      "ch": 1,
      "note": 40,
      "vel": 79,
      "dur": 25
    },
    {
      "t": 1115.6,
      "ch": 1,
      "note": 42,
      "vel": 64,
      "dur": 25
    },
    {
      "t": 1115.6,
      "ch": 1,
      "note": 36,
      "vel": 73,
      "dur": 25
    },
    {
      "t": 1115.6,
      "ch": 1,
      "note": 38,
      "vel": 62,
      "dur": 25
    },
    {
      "t": 1115.6,
      "ch": 1,
      "note": 40,
      "vel": 83,
      "dur": 25
    },
    {
      "t": 1115.6,
      "ch": 1,
      "note": 42,
      "vel": 86,
      "dur": 25
    },
    {
      "t": 1115.6,
      "ch": 1,
      "note": 36,
      "vel": 71,
      "dur": 25
    },
    {
      "t": 1115.6,
      "ch": 1,
      "note": 38,
      "vel": 68,
      "dur": 25
    },
    {
      "t": 1115.6,
      "ch": 1,
      "note": 40,
      "vel": 75,
      "dur": 25
    },
    {
      "t": 1115.6,
      "ch": 1,
      "note": 42,
      "vel": 82,
      "dur": 25
    },
    {
      "t": 1115.6,
      "ch": 1,
      "note": 36,
      "vel": 78,
      "dur": 25
    },
    {
      "t": 1115.6,
      "ch": 1,
      "note": 38,
      "vel": 86,
      "dur": 25
    },
    {
      "t": 1115.6,
      "ch": 1,
      "note": 40,
      "vel": 67,
      "dur": 25
    },
    {
      "t": 1115.6,
      "ch": 1,
      "note": 42,
      "vel": 88,
      "dur": 25
    },
    {
      "t": 1115.6,
      "ch": 1,
      "note": 36,
      "vel": 68,
      "dur": 25
    },
    {
      "t": 1115.6,
      "ch": 1,
      "note": 38,
      "vel": 88,
      "dur": 25
    },
    {
      "t": 1115.6,
      "ch": 1,
      "note": 40,
      "vel": 80,
      "dur": 25
    },
    {
      "t": 1115.6,
      "ch": 1,
      "note": 42,
      "vel": 88,
      "dur": 25
    },
    {
      "t": 1115.6,
      "ch": 1,
      "note": 36,
      "vel": 75,
      "dur": 25
    },
    {
      "t": 1115.6,
      "ch": 1,
      "note": 38,
      "vel": 80,
      "dur": 25
    },
    {
      "t": 1115.6,
      "ch": 1,
      "note": 40,
      "vel": 99,
      "dur": 25
    },
    {
      "t": 1115.6,
      "ch": 1,
      "note": 42,
      "vel": 58,
      "dur": 25
    },
    {
      "t": 1115.6,
      "ch": 1,
      "note": 36,
      "vel": 81,
      "dur": 25
    },
    {
      "t": 1115.6,
      "ch": 1,
      "note": 38,
      "vel": 93,
      "dur": 25
    },
    {
      "t": 1115.6,
      "ch": 1,
      "note": 40,
      "vel": 87,
      "dur": 25
    },
    {
      "t": 1115.6,
      "ch": 1,
      "note": 42,
      "vel": 79,
      "dur": 25
    },
    {
      "t": 1115.6,
      "ch": 1,
      "note": 36,
      "vel": 72,
      "dur": 25
    },
    {
      "t": 1115.6,
      "ch": 1,
      "note": 38,
      "vel": 66,
      "dur": 25
    },
    {
      "t": 1115.6,
      "ch": 1,
      "note": 40,
      "vel": 81,
      "dur": 25
    },
    {
      "t": 1115.6,
      "ch": 1,
      "note": 42,
      "vel": 87,
      "dur": 25
    },
    {
      "t": 1115.6,
      "ch": 1,
      "note": 36,
      "vel": 63,
      "dur": 25
    },
    {
      "t": 1115.6,
      "ch": 1,
      "note": 38,
      "vel": 55,
      "dur": 25
    },
    {
      "t": 1115.6,
      "ch": 1,
      "note": 40,
      "vel": 88,
      "dur": 25
    },
    {
      "t": 1115.6,
      "ch": 1,
      "note": 42,
      "vel": 68,
      "dur": 25
    },
    {
      "t": 1115.6,
      "ch": 1,
      "note": 36,
      "vel": 63,
      "dur": 25
    },
    {
      "t": 1115.6,
      "ch": 1,
      "note": 38,
      "vel": 60,
      "dur": 25
    },
    {
      "t": 1115.6,
      "ch": 1,
      "note": 40,
      "vel": 84,
      "dur": 25
    },
    {
      "t": 1115.6,
      "ch": 1,
      "note": 42,
      "vel": 84,
      "dur": 25
    },
    {
      "t": 1115.6,
      "ch": 1,
      "note": 36,
      "vel": 85,
      "dur": 25
    },
    {
      "t": 1115.6,
      "ch": 1,
      "note": 38,
      "vel": 80,
      "dur": 25
    },
    {
      "t": 1115.6,
      "ch": 1,
      "note": 40,
      "vel": 70,
      "dur": 25
    },
    {
      "t": 1115.6,
      "ch": 1,
      "note": 42,
      "vel": 65,
      "dur": 25
    },
    {
      "t": 1115.6,
      "ch": 1,
      "note": 36,
      "vel": 88,
      "dur": 25
    },
    {
      "t": 1115.6,
      "ch": 1,
      "note": 38,
      "vel": 66,
      "dur": 25
    },
    {
      "t": 1115.6,
      "ch": 1,
      "note": 40,
      "vel": 76,
      "dur": 25
    },
    {
      "t": 1115.6,
      "ch": 1,
      "note": 42,
      "vel": 90,
      "dur": 25
    },
    {
      "t": 1115.6,
      "ch": 1,
      "note": 36,
      "vel": 60,
      "dur": 25
    },
    {
      "t": 1115.6,
      "ch": 1,
      "note": 38,
      "vel": 82,
      "dur": 25
    },
    {
      "t": 1115.6,
      "ch": 1,
      "note": 40,
      "vel": 67,
      "dur": 25
    },
    {
      "t": 1115.6,
      "ch": 1,
      "note": 42,
      "vel": 75,
      "dur": 25
    },
    {
      "t": 1115.6,
      "ch": 1,
      "note": 36,
      "vel": 74,
      "dur": 25
    },
    {
      "t": 1115.6,
      "ch": 1,
      "note": 38,
      "vel": 65,
      "dur": 25
    },
    {
      "t": 1115.6,
      "ch": 1,
      "note": 40,
      "vel": 76,
      "dur": 25
    },
    {
      "t": 1115.6,
      "ch": 1,
      "note": 42,
      "vel": 66,
      "dur": 25
    },
    {
      "t": 1115.6,
      "ch": 1,
      "note": 36,
      "vel": 81,
      "dur": 25
    },
    {
      "t": 1115.6,
      "ch": 1,
      "note": 38,
      "vel": 61,
      "dur": 25
    },
    {
      "t": 1115.6,
      "ch": 1,
      "note": 40,
      "vel": 88,
      "dur": 25
    },
    {
      "t": 1115.6,
      "ch": 1,
      "note": 42,
      "vel": 91,
      "dur": 25
    },
    {
      "t": 1115.6,
      "ch": 1,
      "note": 36,
      "vel": 62,
      "dur": 25
    },
    {
      "t": 1115.6,
      "ch": 1,
      "note": 38,
      "vel": 74,
      "dur": 25
    },
    {
      "t": 1115.6,
      "ch": 1,
      "note": 40,
      "vel": 56,
      "dur": 25
    },
    {
      "t": 1115.6,
      "ch": 1,
      "note": 42,
      "vel": 75,
      "dur": 25
    },
    {
      "t": 1115.6,
      "ch": 1,
      "note": 36,
      "vel": 73,
      "dur": 25
    },
    {
      "t": 1115.6,
      "ch": 1,
      "note": 38,
      "vel": 75,
      "dur": 25
    },
    {
      "t": 1115.6,
      "ch": 1,
      "note": 40,
      "vel": 69,
      "dur": 25
    },
    {
      "t": 1115.6,
      "ch": 1,
      "note": 42,
      "vel": 67,
      "dur": 25
    },
    {
      "t": 1115.6,
      "ch": 1,
      "note": 36,
      "vel": 80,
      "dur": 25
    },
    {
      "t": 1115.6,
      "ch": 1,
      "note": 38,
      "vel": 63,
      "dur": 25
    },
    {
      "t": 1115.6,
      "ch": 1,
      "note": 40,
      "vel": 51,
      "dur": 25
    },
    {
      "t": 1115.6,
      "ch": 1,
      "note": 42,
      "vel": 64,
      "dur": 25
    },
    {
      "t": 1115.6,
      "ch": 1,
      "note": 36,
      "vel": 65,
      "dur": 25
    },
    {
      "t": 1115.6,
      "ch": 1,
      "note": 38,
      "vel": 89,
      "dur": 25
    },
    {
      "t": 1115.6,
      "ch": 1,
      "note": 40,
      "vel": 51,
      "dur": 25
    },
    {
      "t": 1115.6,
      "ch": 1,
      "note": 42,
      "vel": 66,
      "dur": 25
    },
    {
      "t": 1115.6,
      "ch": 1,
      "note": 36,
      "vel": 68,
      "dur": 25
    },
    {
      "t": 1115.6,
      "ch": 1,
      "note": 38,
      "vel": 94,
      "dur": 25
    },
    {
      "t": 1115.6,
      "ch": 1,
      "note": 40,
      "vel": 89,
      "dur": 25
    },
    {
      "t": 1115.6,
      "ch": 1,
      "note": 42,
      "vel": 87,
      "dur": 25
    },
    {
      "t": 1115.6,
      "ch": 1,
      "note": 36,
      "vel": 72,
      "dur": 25
    },
    {
      "t": 1115.6,
      "ch": 1,
      "note": 38,
      "vel": 70,
      "dur": 25
    },
    {
      "t": 1115.6,
      "ch": 1,
      "note": 40,
      "vel": 90,
      "dur": 25
    },
    {
      "t": 1115.6,
      "ch": 1,
      "note": 42,
      "vel": 96,
      "dur": 25
    },
    {
      "t": 1115.6,
      "ch": 1,
      "note": 36,
      "vel": 80,
      "dur": 25
    },
    {
      "t": 1115.6,
      "ch": 1,
      "note": 38,
      "vel": 56,
      "dur": 25
    },
    {
      "t": 1115.6,
      "ch": 1,
      "note": 40,
      "vel": 68,
      "dur": 25
    },
    {
      "t": 1115.6,
      "ch": 1,
      "note": 42,
      "vel": 70,
      "dur": 25
    },
    {
      "t": 1115.6,
      "ch": 1,
      "note": 36,
      "vel": 68,
      "dur": 25
    },
    {
      "t": 1115.6,
      "ch": 1,
      "note": 38,
      "vel": 71,
      "dur": 25
    },
    {
      "t": 1115.6,
      "ch": 1,
      "note": 40,
      "vel": 85,
      "dur": 25
    },
    {
      "t": 1115.6,
      "ch": 1,
      "note": 42,
      "vel": 83,
      "dur": 25
    },
    {
      "t": 1115.6,
      "ch": 1,
      "note": 36,
      "vel": 70,
      "dur": 25
    },
    {
      "t": 1115.6,
      "ch": 1,
      "note": 38,
      "vel": 63,
      "dur": 25
    },
    {
      "t": 1115.6,
      "ch": 1,
      "note": 40,
      "vel": 85,
      "dur": 25
    },
    {
      "t": 1115.6,
      "ch": 1,
      "note": 42,
      "vel": 77,
      "dur": 25
    },
    {
      "t": 1115.6,
      "ch": 1,
      "note": 36,
      "vel": 71,
      "dur": 25
    },
    {
      "t": 1115.6,
      "ch": 1,
      "note": 38,
      "vel": 68,
      "dur": 25
    },
    {
      "t": 1115.6,
      "ch": 1,
      "note": 40,
      "vel": 88,
      "dur": 25
    },
    {
      "t": 1115.6,
      "ch": 1,
      "note": 42,
      "vel": 63,
      "dur": 25
    },
    {
      "t": 1115.6,
      "ch": 1,
      "note": 36,
      "vel": 79,
      "dur": 25
    },
    {
      "t": 1115.6,
      "ch": 1,
      "note": 38,
      "vel": 79,
      "dur": 25
    },
    {
      "t": 1115.6,
      "ch": 1,
      "note": 40,
      "vel": 82,
      "dur": 25
    },
    {
      "t": 1115.6,
      "ch": 1,
      "note": 42,
      "vel": 91,
      "dur": 25
    },
    {
      "t": 1115.6,
      "ch": 1,
      "note": 36,
      "vel": 58,
      "dur": 25
    },
    {
      "t": 1115.6,
      "ch": 1,
      "note": 38,
      "vel": 78,
      "dur": 25
    },
    {
      "t": 1115.6,
      "ch": 1,
      "note": 40,
      "vel": 75,
      "dur": 25
    },
    {
      "t": 1115.6,
      "ch": 1,
      "note": 42,
      "vel": 77,
      "dur": 25
    },
    {
      "t": 1115.6,
      "ch": 1,
      "note": 36,
      "vel": 94,
      "dur": 25
    },
    {
      "t": 1115.6,
      "ch": 1,
      "note": 38,
      "vel": 70,
      "dur": 25
    },
    {
      "t": 1115.6,
      "ch": 1,
      "note": 40,
      "vel": 70,
      "dur": 25
    },
    {
      "t": 1115.6,
      "ch": 1,
      "note": 42,
      "vel": 77,
      "dur": 25
    },
    {
      "t": 1115.6,
      "ch": 1,
      "note": 36,
      "vel": 92,
      "dur": 25
    },
    {
      "t": 1115.6,
      "ch": 1,
      "note": 38,
      "vel": 65,
      "dur": 25
    },
    {
      "t": 1115.6,
      "ch": 1,
      "note": 40,
      "vel": 78,
      "dur": 25
    },
    {
      "t": 1115.6,
      "ch": 1,
      "note": 42,
      "vel": 53,
      "dur": 25
    },
    {
      "t": 1115.6,
      "ch": 1,
      "note": 36,
      "vel": 74,
      "dur": 25
    },
    {
      "t": 1115.6,
      "ch": 1,
      "note": 38,
      "vel": 72,
      "dur": 25
    },
    {
      "t": 1115.6,
      "ch": 1,
      "note": 40,
      "vel": 90,
      "dur": 25
    },
    {
      "t": 1115.6,
      "ch": 1,
      "note": 42,
      "vel": 80,
      "dur": 25
    },
    {
      "t": 1115.6,
      "ch": 1,
      "note": 36,
      "vel": 75,
      "dur": 25
    },
    {
      "t": 1115.6,
      "ch": 1,
      "note": 38,
      "vel": 69,
      "dur": 25
    },
    {
      "t": 1115.6,
      "ch": 1,
      "note": 40,
      "vel": 60,
      "dur": 25
    },
    {
      "t": 1115.6,
      "ch": 1,
      "note": 42,
      "vel": 66,
      "dur": 25
    },
    {
      "t": 1115.6,
      "ch": 1,
      "note": 36,
      "vel": 92,
      "dur": 25
    },
    {
      "t": 1115.6,
      "ch": 1,
      "note": 38,
      "vel": 78,
      "dur": 25
    },
    {
      "t": 1115.6,
      "ch": 1,
      "note": 40,
      "vel": 70,
      "dur": 25
    },
    {
      "t": 1115.6,
      "ch": 1,
      "note": 42,
      "vel": 68,
      "dur": 25
    },
    {
      "t": 1115.6,
      "ch": 1,
      "note": 36,
      "vel": 69,
      "dur": 25
    },
    {
      "t": 1115.6,
      "ch": 1,
      "note": 38,
      "vel": 90,
      "dur": 25
    },
    {
      "t": 1115.6,
      "ch": 1,
      "note": 40,
      "vel": 76,
      "dur": 25
    },
    {
      "t": 1115.6,
      "ch": 1,
      "note": 42,
      "vel": 86,
      "dur": 25
    },
    {
      "t": 1115.6,
      "ch": 1,
      "note": 36,
      "vel": 66,
      "dur": 25
    },
    {
      "t": 1115.6,
      "ch": 1,
      "note": 38,
      "vel": 62,
      "dur": 25
    },
    {
      "t": 1115.6,
      "ch": 1,
      "note": 40,
      "vel": 91,
      "dur": 25
    },
    {
      "t": 1115.6,
      "ch": 1,
      "note": 42,
      "vel": 86,
      "dur": 25
    },
    {
      "t": 1115.6,
      "ch": 1,
      "note": 36,
      "vel": 62,
      "dur": 25
    },
    {
      "t": 1115.6,
      "ch": 1,
      "note": 38,
      "vel": 60,
      "dur": 25
    },
    {
      "t": 1115.6,
      "ch": 1,
      "note": 40,
      "vel": 68,
      "dur": 25
    },
    {
      "t": 1115.6,
      "ch": 1,
      "note": 42,
      "vel": 80,
      "dur": 25
    },
    {
      "t": 1115.6,
      "ch": 1,
      "note": 36,
      "vel": 80,
      "dur": 25
    },
    {
      "t": 1115.6,
      "ch": 1,
      "note": 38,
      "vel": 93,
      "dur": 25
    },
    {
      "t": 1115.6,
      "ch": 1,
      "note": 40,
      "vel": 99,
      "dur": 25
    },
    {
      "t": 1115.6,
      "ch": 1,
      "note": 42,
      "vel": 93,
      "dur": 25
    },
    {
      "t": 1115.6,
      "ch": 1,
      "note": 36,
      "vel": 85,
      "dur": 25
    },
    {
      "t": 1115.6,
      "ch": 1,
      "note": 38,
      "vel": 88,
      "dur": 25
    },
    {
      "t": 1115.6,
      "ch": 1,
      "note": 40,
      "vel": 57,
      "dur": 25
    },
    {
      "t": 1115.6,
      "ch": 1,
      "note": 42,
      "vel": 75,
      "dur": 25
    },
    {
      "t": 1115.6,
      "ch": 1,
      "note": 36,
      "vel": 87,
      "dur": 25
    },
    {
      "t": 1115.6,
      "ch": 1,
      "note": 38,
      "vel": 98,
      "dur": 25
    },
    {
      "t": 1115.6,
      "ch": 1,
      "note": 40,
      "vel": 66,
      "dur": 25
    },
    {
      "t": 1115.6,
      "ch": 1,
      "note": 42,
      "vel": 90,
      "dur": 25
    },
    {
      "t": 1115.6,
      "ch": 1,
      "note": 36,
      "vel": 89,
      "dur": 25
    },
    {
      "t": 1115.6,
      "ch": 1,
      "note": 38,
      "vel": 77,
      "dur": 25
    },
    {
      "t": 1115.6,
      "ch": 1,
      "note": 40,
      "vel": 71,
      "dur": 25
    },
    {
      "t": 1115.7,
      "ch": 1,
      "note": 42,
      "vel": 81,
      "dur": 25
    },
    {
      "t": 1115.8,
      "ch": 1,
      "note": 36,
      "vel": 77,
      "dur": 25
    },
    {
      "t": 1115.8,
      "ch": 7,
      "note": 48,
      "vel": 68,
      "dur": 80
    },
    {
      "t": 1115.8,
      "ch": 7,
      "note": 36,
      "vel": 63,
      "dur": 80
    },
    {
      "t": 1115.9,
      "ch": 1,
      "note": 38,
      "vel": 91,
      "dur": 25
    },
    {
      "t": 1115.9,
      "ch": 1,
      "note": 40,
      "vel": 72,
      "dur": 25
    },
    {
      "t": 1115.9,
      "ch": 7,
      "note": 45,
      "vel": 66,
      "dur": 80
    },
    {
      "t": 1115.9,
      "ch": 7,
      "note": 38,
      "vel": 68,
      "dur": 80
    },
    {
      "t": 1116,
      "ch": 1,
      "note": 42,
      "vel": 97,
      "dur": 25
    },
    {
      "t": 1116.1,
      "ch": 1,
      "note": 36,
      "vel": 87,
      "dur": 25
    },
    {
      "t": 1116.2,
      "ch": 1,
      "note": 38,
      "vel": 76,
      "dur": 25
    },
    {
      "t": 1116.3,
      "ch": 1,
      "note": 40,
      "vel": 62,
      "dur": 25
    },
    {
      "t": 1116.4,
      "ch": 1,
      "note": 42,
      "vel": 77,
      "dur": 25
    },
    {
      "t": 1116.4,
      "ch": 1,
      "note": 36,
      "vel": 77,
      "dur": 25
    },
    {
      "t": 1116.4,
      "ch": 7,
      "note": 48,
      "vel": 70,
      "dur": 80
    },
    {
      "t": 1116.4,
      "ch": 7,
      "note": 36,
      "vel": 77,
      "dur": 80
    },
    {
      "t": 1116.5,
      "ch": 1,
      "note": 38,
      "vel": 92,
      "dur": 25
    },
    {
      "t": 1116.6,
      "ch": 1,
      "note": 40,
      "vel": 73,
      "dur": 25
    },
    {
      "t": 1116.7,
      "ch": 1,
      "note": 42,
      "vel": 68,
      "dur": 25
    },
    {
      "t": 1116.8,
      "ch": 1,
      "note": 36,
      "vel": 88,
      "dur": 25
    },
    {
      "t": 1116.8,
      "ch": 7,
      "note": 45,
      "vel": 49,
      "dur": 80
    },
    {
      "t": 1116.8,
      "ch": 7,
      "note": 36,
      "vel": 60,
      "dur": 80
    },
    {
      "t": 1116.8,
      "ch": 7,
      "note": 38,
      "vel": 76,
      "dur": 80
    },
    {
      "t": 1116.8,
      "ch": 1,
      "note": 38,
      "vel": 65,
      "dur": 25
    },
    {
      "t": 1116.9,
      "ch": 1,
      "note": 40,
      "vel": 86,
      "dur": 25
    },
    {
      "t": 1117,
      "ch": 1,
      "note": 42,
      "vel": 77,
      "dur": 25
    },
    {
      "t": 1117.1,
      "ch": 1,
      "note": 36,
      "vel": 74,
      "dur": 25
    },
    {
      "t": 1117.1,
      "ch": 7,
      "note": 48,
      "vel": 64,
      "dur": 80
    },
    {
      "t": 1117.1,
      "ch": 7,
      "note": 36,
      "vel": 72,
      "dur": 80
    },
    {
      "t": 1117.2,
      "ch": 1,
      "note": 38,
      "vel": 76,
      "dur": 25
    },
    {
      "t": 1117.2,
      "ch": 1,
      "note": 40,
      "vel": 81,
      "dur": 25
    },
    {
      "t": 1117.3,
      "ch": 1,
      "note": 42,
      "vel": 85,
      "dur": 25
    },
    {
      "t": 1117.4,
      "ch": 1,
      "note": 36,
      "vel": 74,
      "dur": 25
    },
    {
      "t": 1117.5,
      "ch": 1,
      "note": 38,
      "vel": 70,
      "dur": 25
    },
    {
      "t": 1117.6,
      "ch": 1,
      "note": 40,
      "vel": 62,
      "dur": 25
    },
    {
      "t": 1117.7,
      "ch": 1,
      "note": 42,
      "vel": 91,
      "dur": 25
    },
    {
      "t": 1117.7,
      "ch": 0,
      "note": 36,
      "vel": 114,
      "dur": 55
    },
    {
      "t": 1117.7,
      "ch": 1,
      "note": 36,
      "vel": 65,
      "dur": 25
    },
    {
      "t": 1117.7,
      "ch": 7,
      "note": 48,
      "vel": 75,
      "dur": 80
    },
    {
      "t": 1117.7,
      "ch": 7,
      "note": 45,
      "vel": 57,
      "dur": 80
    },
    {
      "t": 1117.7,
      "ch": 7,
      "note": 36,
      "vel": 73,
      "dur": 80
    },
    {
      "t": 1117.7,
      "ch": 7,
      "note": 38,
      "vel": 62,
      "dur": 80
    },
    {
      "t": 1117.8,
      "ch": 1,
      "note": 38,
      "vel": 74,
      "dur": 25
    },
    {
      "t": 1117.9,
      "ch": 1,
      "note": 40,
      "vel": 67,
      "dur": 25
    },
    {
      "t": 1118,
      "ch": 1,
      "note": 42,
      "vel": 87,
      "dur": 25
    },
    {
      "t": 1118.1,
      "ch": 1,
      "note": 36,
      "vel": 78,
      "dur": 25
    },
    {
      "t": 1118.1,
      "ch": 7,
      "note": 36,
      "vel": 65,
      "dur": 80
    },
    {
      "t": 1118.1,
      "ch": 1,
      "note": 38,
      "vel": 98,
      "dur": 25
    },
    {
      "t": 1118.2,
      "ch": 1,
      "note": 40,
      "vel": 81,
      "dur": 25
    },
    {
      "t": 1118.3,
      "ch": 1,
      "note": 42,
      "vel": 59,
      "dur": 25
    },
    {
      "t": 1118.4,
      "ch": 1,
      "note": 36,
      "vel": 79,
      "dur": 25
    },
    {
      "t": 1118.4,
      "ch": 7,
      "note": 48,
      "vel": 72,
      "dur": 80
    },
    {
      "t": 1118.4,
      "ch": 7,
      "note": 36,
      "vel": 69,
      "dur": 80
    },
    {
      "t": 1118.5,
      "ch": 1,
      "note": 38,
      "vel": 68,
      "dur": 25
    },
    {
      "t": 1118.5,
      "ch": 1,
      "note": 40,
      "vel": 79,
      "dur": 25
    },
    {
      "t": 1118.6,
      "ch": 7,
      "note": 45,
      "vel": 56,
      "dur": 80
    },
    {
      "t": 1118.6,
      "ch": 7,
      "note": 38,
      "vel": 50,
      "dur": 80
    },
    {
      "t": 1118.6,
      "ch": 1,
      "note": 42,
      "vel": 59,
      "dur": 25
    },
    {
      "t": 1118.7,
      "ch": 1,
      "note": 36,
      "vel": 70,
      "dur": 25
    },
    {
      "t": 1118.7,
      "ch": 0,
      "note": 36,
      "vel": 80,
      "dur": 55
    },
    {
      "t": 1118.8,
      "ch": 1,
      "note": 38,
      "vel": 61,
      "dur": 25
    },
    {
      "t": 1118.9,
      "ch": 1,
      "note": 40,
      "vel": 87,
      "dur": 25
    },
    {
      "t": 1119,
      "ch": 1,
      "note": 42,
      "vel": 62,
      "dur": 25
    },
    {
      "t": 1119,
      "ch": 1,
      "note": 36,
      "vel": 79,
      "dur": 25
    },
    {
      "t": 1119,
      "ch": 7,
      "note": 48,
      "vel": 61,
      "dur": 80
    },
    {
      "t": 1119,
      "ch": 7,
      "note": 36,
      "vel": 74,
      "dur": 80
    },
    {
      "t": 1119.1,
      "ch": 5,
      "note": 59,
      "vel": 38,
      "dur": 967
    },
    {
      "t": 1119.4,
      "ch": 7,
      "note": 45,
      "vel": 54,
      "dur": 80
    },
    {
      "t": 1119.4,
      "ch": 7,
      "note": 36,
      "vel": 65,
      "dur": 80
    },
    {
      "t": 1119.4,
      "ch": 7,
      "note": 38,
      "vel": 57,
      "dur": 80
    },
    {
      "t": 1119.7,
      "ch": 7,
      "note": 48,
      "vel": 74,
      "dur": 80
    },
    {
      "t": 1119.7,
      "ch": 7,
      "note": 36,
      "vel": 82,
      "dur": 80
    },
    {
      "t": 1120,
      "ch": 6,
      "note": 65,
      "vel": 22,
      "dur": 647
    },
    {
      "t": 1120.2,
      "ch": 5,
      "note": 65,
      "vel": 18,
      "dur": 971
    },
    {
      "t": 1120.3,
      "ch": 7,
      "note": 48,
      "vel": 68,
      "dur": 80
    },
    {
      "t": 1120.3,
      "ch": 7,
      "note": 45,
      "vel": 67,
      "dur": 80
    },
    {
      "t": 1120.3,
      "ch": 7,
      "note": 36,
      "vel": 65,
      "dur": 80
    },
    {
      "t": 1120.3,
      "ch": 7,
      "note": 38,
      "vel": 73,
      "dur": 80
    },
    {
      "t": 1120.7,
      "ch": 7,
      "note": 36,
      "vel": 57,
      "dur": 80
    },
    {
      "t": 1121,
      "ch": 7,
      "note": 48,
      "vel": 72,
      "dur": 80
    },
    {
      "t": 1121,
      "ch": 7,
      "note": 36,
      "vel": 73,
      "dur": 80
    },
    {
      "t": 1121.2,
      "ch": 7,
      "note": 45,
      "vel": 58,
      "dur": 80
    },
    {
      "t": 1121.2,
      "ch": 7,
      "note": 38,
      "vel": 63,
      "dur": 80
    },
    {
      "t": 1121.6,
      "ch": 2,
      "note": 50,
      "vel": 0,
      "dur": 0
    },
    {
      "t": 1121.6,
      "ch": 2,
      "note": 62,
      "vel": 0,
      "dur": 0
    },
    {
      "t": 1121.6,
      "ch": 2,
      "note": 55,
      "vel": 53,
      "dur": 19565
    },
    {
      "t": 1121.6,
      "ch": 7,
      "note": 48,
      "vel": 62,
      "dur": 80
    },
    {
      "t": 1121.6,
      "ch": 7,
      "note": 36,
      "vel": 75,
      "dur": 80
    },
    {
      "t": 1121.7,
      "ch": 5,
      "note": 57,
      "vel": 33,
      "dur": 978
    },
    {
      "t": 1122,
      "ch": 7,
      "note": 45,
      "vel": 60,
      "dur": 80
    },
    {
      "t": 1122,
      "ch": 7,
      "note": 36,
      "vel": 61,
      "dur": 80
    },
    {
      "t": 1122,
      "ch": 7,
      "note": 38,
      "vel": 58,
      "dur": 80
    },
    {
      "t": 1122,
      "ch": 6,
      "note": 62,
      "vel": 11,
      "dur": 653
    },
    {
      "t": 1122.3,
      "ch": 7,
      "note": 48,
      "vel": 74,
      "dur": 80
    },
    {
      "t": 1122.3,
      "ch": 7,
      "note": 36,
      "vel": 74,
      "dur": 80
    },
    {
      "t": 1122.9,
      "ch": 0,
      "note": 36,
      "vel": 118,
      "dur": 55
    },
    {
      "t": 1122.9,
      "ch": 7,
      "note": 48,
      "vel": 77,
      "dur": 80
    },
    {
      "t": 1122.9,
      "ch": 7,
      "note": 45,
      "vel": 76,
      "dur": 80
    },
    {
      "t": 1122.9,
      "ch": 7,
      "note": 36,
      "vel": 66,
      "dur": 80
    },
    {
      "t": 1122.9,
      "ch": 7,
      "note": 38,
      "vel": 77,
      "dur": 80
    },
    {
      "t": 1123.1,
      "ch": 6,
      "note": 67,
      "vel": 1,
      "dur": 658
    },
    {
      "t": 1123.3,
      "ch": 7,
      "note": 36,
      "vel": 71,
      "dur": 80
    },
    {
      "t": 1123.3,
      "ch": 5,
      "note": 59,
      "vel": 49,
      "dur": 988
    },
    {
      "t": 1123.4,
      "ch": 5,
      "note": 59,
      "vel": 33,
      "dur": 989
    },
    {
      "t": 1123.5,
      "ch": 6,
      "note": 64,
      "vel": 1,
      "dur": 400
    },
    {
      "t": 1123.6,
      "ch": 7,
      "note": 48,
      "vel": 82,
      "dur": 80
    },
    {
      "t": 1123.6,
      "ch": 7,
      "note": 36,
      "vel": 77,
      "dur": 80
    },
    {
      "t": 1123.8,
      "ch": 7,
      "note": 45,
      "vel": 60,
      "dur": 80
    },
    {
      "t": 1123.8,
      "ch": 7,
      "note": 38,
      "vel": 67,
      "dur": 80
    },
    {
      "t": 1124.3,
      "ch": 0,
      "note": 36,
      "vel": 91,
      "dur": 55
    },
    {
      "t": 1124.3,
      "ch": 7,
      "note": 48,
      "vel": 72,
      "dur": 80
    },
    {
      "t": 1124.3,
      "ch": 7,
      "note": 36,
      "vel": 80,
      "dur": 80
    },
    {
      "t": 1124.3,
      "ch": 5,
      "note": 65,
      "vel": 17,
      "dur": 993
    },
    {
      "t": 1124.6,
      "ch": 7,
      "note": 45,
      "vel": 53,
      "dur": 80
    },
    {
      "t": 1124.6,
      "ch": 7,
      "note": 36,
      "vel": 59,
      "dur": 80
    },
    {
      "t": 1124.6,
      "ch": 5,
      "note": 69,
      "vel": 28,
      "dur": 995
    },
    {
      "t": 1124.9,
      "ch": 7,
      "note": 48,
      "vel": 58,
      "dur": 80
    },
    {
      "t": 1124.9,
      "ch": 7,
      "note": 36,
      "vel": 72,
      "dur": 80
    },
    {
      "t": 1125.6,
      "ch": 7,
      "note": 48,
      "vel": 57,
      "dur": 80
    },
    {
      "t": 1125.6,
      "ch": 7,
      "note": 45,
      "vel": 68,
      "dur": 80
    },
    {
      "t": 1125.6,
      "ch": 7,
      "note": 36,
      "vel": 58,
      "dur": 80
    },
    {
      "t": 1125.9,
      "ch": 7,
      "note": 36,
      "vel": 64,
      "dur": 80
    },
    {
      "t": 1126.2,
      "ch": 7,
      "note": 48,
      "vel": 69,
      "dur": 80
    },
    {
      "t": 1126.2,
      "ch": 7,
      "note": 36,
      "vel": 71,
      "dur": 80
    },
    {
      "t": 1126.4,
      "ch": 7,
      "note": 45,
      "vel": 58,
      "dur": 80
    },
    {
      "t": 1126.9,
      "ch": 7,
      "note": 48,
      "vel": 67,
      "dur": 80
    },
    {
      "t": 1126.9,
      "ch": 7,
      "note": 36,
      "vel": 76,
      "dur": 80
    },
    {
      "t": 1127.2,
      "ch": 7,
      "note": 45,
      "vel": 55,
      "dur": 80
    },
    {
      "t": 1127.2,
      "ch": 7,
      "note": 36,
      "vel": 61,
      "dur": 80
    },
    {
      "t": 1127.5,
      "ch": 7,
      "note": 48,
      "vel": 76,
      "dur": 80
    },
    {
      "t": 1127.5,
      "ch": 7,
      "note": 36,
      "vel": 71,
      "dur": 80
    },
    {
      "t": 1128.2,
      "ch": 7,
      "note": 48,
      "vel": 65,
      "dur": 80
    },
    {
      "t": 1128.2,
      "ch": 7,
      "note": 45,
      "vel": 64,
      "dur": 80
    },
    {
      "t": 1128.2,
      "ch": 7,
      "note": 36,
      "vel": 57,
      "dur": 80
    },
    {
      "t": 1128.5,
      "ch": 7,
      "note": 36,
      "vel": 74,
      "dur": 80
    },
    {
      "t": 1128.8,
      "ch": 7,
      "note": 48,
      "vel": 69,
      "dur": 80
    },
    {
      "t": 1128.8,
      "ch": 7,
      "note": 36,
      "vel": 75,
      "dur": 80
    },
    {
      "t": 1129,
      "ch": 7,
      "note": 45,
      "vel": 60,
      "dur": 80
    },
    {
      "t": 1129,
      "ch": 5,
      "note": 62,
      "vel": 13,
      "dur": 1006
    },
    {
      "t": 1129.4,
      "ch": 4,
      "note": 57,
      "vel": 31,
      "dur": 5167
    },
    {
      "t": 1129.4,
      "ch": 4,
      "note": 60,
      "vel": 32,
      "dur": 5167
    },
    {
      "t": 1129.5,
      "ch": 7,
      "note": 48,
      "vel": 78,
      "dur": 80
    },
    {
      "t": 1129.5,
      "ch": 7,
      "note": 36,
      "vel": 67,
      "dur": 80
    },
    {
      "t": 1129.8,
      "ch": 7,
      "note": 45,
      "vel": 67,
      "dur": 80
    },
    {
      "t": 1129.8,
      "ch": 7,
      "note": 36,
      "vel": 57,
      "dur": 80
    },
    {
      "t": 1130.1,
      "ch": 7,
      "note": 48,
      "vel": 65,
      "dur": 80
    },
    {
      "t": 1130.1,
      "ch": 7,
      "note": 36,
      "vel": 73,
      "dur": 80
    },
    {
      "t": 1130.8,
      "ch": 7,
      "note": 48,
      "vel": 68,
      "dur": 80
    },
    {
      "t": 1130.8,
      "ch": 7,
      "note": 45,
      "vel": 65,
      "dur": 80
    },
    {
      "t": 1130.8,
      "ch": 7,
      "note": 36,
      "vel": 65,
      "dur": 80
    },
    {
      "t": 1131.1,
      "ch": 7,
      "note": 36,
      "vel": 62,
      "dur": 80
    },
    {
      "t": 1131.3,
      "ch": 5,
      "note": 65,
      "vel": 3,
      "dur": 1000
    },
    {
      "t": 1131.4,
      "ch": 7,
      "note": 48,
      "vel": 68,
      "dur": 80
    },
    {
      "t": 1131.4,
      "ch": 7,
      "note": 36,
      "vel": 80,
      "dur": 80
    },
    {
      "t": 1131.6,
      "ch": 7,
      "note": 45,
      "vel": 68,
      "dur": 80
    },
    {
      "t": 1131.6,
      "ch": 5,
      "note": 65,
      "vel": 12,
      "dur": 999
    },
    {
      "t": 1131.9,
      "ch": 5,
      "note": 69,
      "vel": 1,
      "dur": 997
    },
    {
      "t": 1132,
      "ch": 2,
      "note": 55,
      "vel": 0,
      "dur": 0
    },
    {
      "t": 1132,
      "ch": 2,
      "note": 50,
      "vel": 52,
      "dur": 19565
    },
    {
      "t": 1132.1,
      "ch": 7,
      "note": 48,
      "vel": 58,
      "dur": 80
    },
    {
      "t": 1132.1,
      "ch": 7,
      "note": 36,
      "vel": 81,
      "dur": 80
    },
    {
      "t": 1132.4,
      "ch": 6,
      "note": 72,
      "vel": 13,
      "dur": 400
    },
    {
      "t": 1132.4,
      "ch": 7,
      "note": 45,
      "vel": 67,
      "dur": 80
    },
    {
      "t": 1132.4,
      "ch": 7,
      "note": 36,
      "vel": 60,
      "dur": 80
    },
    {
      "t": 1132.7,
      "ch": 7,
      "note": 48,
      "vel": 75,
      "dur": 80
    },
    {
      "t": 1132.7,
      "ch": 7,
      "note": 36,
      "vel": 82,
      "dur": 80
    },
    {
      "t": 1133.4,
      "ch": 0,
      "note": 36,
      "vel": 127,
      "dur": 55
    },
    {
      "t": 1133.4,
      "ch": 7,
      "note": 48,
      "vel": 72,
      "dur": 80
    },
    {
      "t": 1133.4,
      "ch": 7,
      "note": 45,
      "vel": 72,
      "dur": 80
    },
    {
      "t": 1133.4,
      "ch": 7,
      "note": 36,
      "vel": 69,
      "dur": 80
    },
    {
      "t": 1133.4,
      "ch": 5,
      "note": 62,
      "vel": 9,
      "dur": 989
    },
    {
      "t": 1133.7,
      "ch": 7,
      "note": 36,
      "vel": 80,
      "dur": 80
    },
    {
      "t": 1133.8,
      "ch": 6,
      "note": 67,
      "vel": 19,
      "dur": 400
    },
    {
      "t": 1134,
      "ch": 7,
      "note": 48,
      "vel": 58,
      "dur": 80
    },
    {
      "t": 1134,
      "ch": 7,
      "note": 36,
      "vel": 70,
      "dur": 80
    },
    {
      "t": 1134.2,
      "ch": 7,
      "note": 45,
      "vel": 63,
      "dur": 80
    },
    {
      "t": 1134.4,
      "ch": 6,
      "note": 59,
      "vel": 33,
      "dur": 655
    },
    {
      "t": 1134.6,
      "ch": 4,
      "note": 58,
      "vel": 32,
      "dur": 2608
    },
    {
      "t": 1134.6,
      "ch": 4,
      "note": 57,
      "vel": 34,
      "dur": 2558
    },
    {
      "t": 1134.6,
      "ch": 4,
      "note": 62,
      "vel": 34,
      "dur": 5167
    },
    {
      "t": 1134.6,
      "ch": 3,
      "note": 38,
      "vel": 37,
      "dur": 5217
    },
    {
      "t": 1134.7,
      "ch": 0,
      "note": 36,
      "vel": 95,
      "dur": 55
    },
    {
      "t": 1134.7,
      "ch": 7,
      "note": 48,
      "vel": 74,
      "dur": 80
    },
    {
      "t": 1134.7,
      "ch": 7,
      "note": 36,
      "vel": 71,
      "dur": 80
    },
    {
      "t": 1135,
      "ch": 7,
      "note": 45,
      "vel": 54,
      "dur": 80
    },
    {
      "t": 1135,
      "ch": 7,
      "note": 36,
      "vel": 70,
      "dur": 80
    },
    {
      "t": 1135.3,
      "ch": 7,
      "note": 48,
      "vel": 76,
      "dur": 80
    },
    {
      "t": 1135.3,
      "ch": 7,
      "note": 36,
      "vel": 70,
      "dur": 80
    },
    {
      "t": 1135.3,
      "ch": 5,
      "note": 65,
      "vel": 19,
      "dur": 976
    },
    {
      "t": 1136,
      "ch": 7,
      "note": 48,
      "vel": 53,
      "dur": 80
    },
    {
      "t": 1136,
      "ch": 7,
      "note": 45,
      "vel": 66,
      "dur": 80
    },
    {
      "t": 1136,
      "ch": 7,
      "note": 36,
      "vel": 65,
      "dur": 80
    },
    {
      "t": 1136.3,
      "ch": 7,
      "note": 36,
      "vel": 66,
      "dur": 80
    },
    {
      "t": 1136.6,
      "ch": 7,
      "note": 48,
      "vel": 67,
      "dur": 80
    },
    {
      "t": 1136.6,
      "ch": 7,
      "note": 36,
      "vel": 76,
      "dur": 80
    },
    {
      "t": 1136.7,
      "ch": 5,
      "note": 65,
      "vel": 1,
      "dur": 968
    },
    {
      "t": 1136.8,
      "ch": 7,
      "note": 45,
      "vel": 57,
      "dur": 80
    },
    {
      "t": 1136.8,
      "ch": 7,
      "note": 38,
      "vel": 57,
      "dur": 80
    },
    {
      "t": 1136.8,
      "ch": 5,
      "note": 69,
      "vel": 12,
      "dur": 967
    },
    {
      "t": 1137.3,
      "ch": 7,
      "note": 48,
      "vel": 69,
      "dur": 80
    },
    {
      "t": 1137.3,
      "ch": 7,
      "note": 36,
      "vel": 85,
      "dur": 80
    },
    {
      "t": 1137.3,
      "ch": 6,
      "note": 55,
      "vel": 20,
      "dur": 643
    },
    {
      "t": 1137.6,
      "ch": 7,
      "note": 45,
      "vel": 57,
      "dur": 80
    },
    {
      "t": 1137.6,
      "ch": 7,
      "note": 36,
      "vel": 62,
      "dur": 80
    },
    {
      "t": 1137.6,
      "ch": 7,
      "note": 38,
      "vel": 61,
      "dur": 80
    },
    {
      "t": 1137.6,
      "ch": 6,
      "note": 72,
      "vel": 9,
      "dur": 642
    },
    {
      "t": 1137.9,
      "ch": 7,
      "note": 48,
      "vel": 58,
      "dur": 80
    },
    {
      "t": 1137.9,
      "ch": 7,
      "note": 36,
      "vel": 61,
      "dur": 80
    },
    {
      "t": 1138.6,
      "ch": 0,
      "note": 36,
      "vel": 109,
      "dur": 55
    },
    {
      "t": 1138.6,
      "ch": 7,
      "note": 48,
      "vel": 78,
      "dur": 80
    },
    {
      "t": 1138.6,
      "ch": 7,
      "note": 45,
      "vel": 57,
      "dur": 80
    },
    {
      "t": 1138.6,
      "ch": 7,
      "note": 36,
      "vel": 69,
      "dur": 80
    },
    {
      "t": 1138.6,
      "ch": 7,
      "note": 38,
      "vel": 70,
      "dur": 80
    },
    {
      "t": 1138.9,
      "ch": 7,
      "note": 36,
      "vel": 70,
      "dur": 80
    },
    {
      "t": 1139.2,
      "ch": 7,
      "note": 48,
      "vel": 60,
      "dur": 80
    },
    {
      "t": 1139.2,
      "ch": 7,
      "note": 36,
      "vel": 77,
      "dur": 80
    },
    {
      "t": 1139.4,
      "ch": 7,
      "note": 45,
      "vel": 55,
      "dur": 80
    },
    {
      "t": 1139.4,
      "ch": 7,
      "note": 38,
      "vel": 64,
      "dur": 80
    },
    {
      "t": 1139.8,
      "ch": 4,
      "note": 55,
      "vel": 38,
      "dur": 5167
    },
    {
      "t": 1139.8,
      "ch": 4,
      "note": 62,
      "vel": 38,
      "dur": 5167
    },
    {
      "t": 1139.8,
      "ch": 3,
      "note": 43,
      "vel": 40,
      "dur": 5217
    },
    {
      "t": 1139.9,
      "ch": 0,
      "note": 36,
      "vel": 96,
      "dur": 55
    },
    {
      "t": 1139.9,
      "ch": 7,
      "note": 48,
      "vel": 78,
      "dur": 80
    },
    {
      "t": 1139.9,
      "ch": 7,
      "note": 36,
      "vel": 68,
      "dur": 80
    },
    {
      "t": 1140.2,
      "ch": 7,
      "note": 45,
      "vel": 51,
      "dur": 80
    },
    {
      "t": 1140.2,
      "ch": 7,
      "note": 36,
      "vel": 64,
      "dur": 80
    },
    {
      "t": 1140.2,
      "ch": 7,
      "note": 38,
      "vel": 72,
      "dur": 80
    },
    {
      "t": 1140.6,
      "ch": 7,
      "note": 48,
      "vel": 73,
      "dur": 80
    },
    {
      "t": 1140.6,
      "ch": 7,
      "note": 36,
      "vel": 68,
      "dur": 80
    },
    {
      "t": 1140.9,
      "ch": 0,
      "note": 36,
      "vel": 84,
      "dur": 55
    },
    {
      "t": 1141.2,
      "ch": 7,
      "note": 48,
      "vel": 70,
      "dur": 80
    },
    {
      "t": 1141.2,
      "ch": 7,
      "note": 45,
      "vel": 71,
      "dur": 80
    },
    {
      "t": 1141.2,
      "ch": 7,
      "note": 36,
      "vel": 80,
      "dur": 80
    },
    {
      "t": 1141.2,
      "ch": 7,
      "note": 38,
      "vel": 59,
      "dur": 80
    },
    {
      "t": 1141.5,
      "ch": 7,
      "note": 36,
      "vel": 61,
      "dur": 80
    },
    {
      "t": 1141.9,
      "ch": 7,
      "note": 48,
      "vel": 63,
      "dur": 80
    },
    {
      "t": 1141.9,
      "ch": 7,
      "note": 36,
      "vel": 70,
      "dur": 80
    },
    {
      "t": 1142,
      "ch": 7,
      "note": 45,
      "vel": 69,
      "dur": 80
    },
    {
      "t": 1142,
      "ch": 7,
      "note": 38,
      "vel": 63,
      "dur": 80
    },
    {
      "t": 1142.2,
      "ch": 6,
      "note": 52,
      "vel": 7,
      "dur": 640
    },
    {
      "t": 1142.4,
      "ch": 2,
      "note": 50,
      "vel": 0,
      "dur": 0
    },
    {
      "t": 1142.4,
      "ch": 2,
      "note": 55,
      "vel": 54,
      "dur": 19565
    },
    {
      "t": 1142.5,
      "ch": 7,
      "note": 48,
      "vel": 78,
      "dur": 80
    },
    {
      "t": 1142.5,
      "ch": 7,
      "note": 36,
      "vel": 72,
      "dur": 80
    },
    {
      "t": 1142.8,
      "ch": 7,
      "note": 45,
      "vel": 70,
      "dur": 80
    },
    {
      "t": 1142.8,
      "ch": 7,
      "note": 36,
      "vel": 62,
      "dur": 80
    },
    {
      "t": 1142.8,
      "ch": 7,
      "note": 38,
      "vel": 59,
      "dur": 80
    },
    {
      "t": 1142.9,
      "ch": 5,
      "note": 62,
      "vel": 19,
      "dur": 962
    },
    {
      "t": 1143.2,
      "ch": 7,
      "note": 48,
      "vel": 78,
      "dur": 80
    },
    {
      "t": 1143.2,
      "ch": 7,
      "note": 36,
      "vel": 71,
      "dur": 80
    },
    {
      "t": 1143.5,
      "ch": 5,
      "note": 65,
      "vel": 20,
      "dur": 964
    },
    {
      "t": 1143.8,
      "ch": 0,
      "note": 36,
      "vel": 111,
      "dur": 55
    },
    {
      "t": 1143.8,
      "ch": 7,
      "note": 48,
      "vel": 77,
      "dur": 80
    },
    {
      "t": 1143.8,
      "ch": 7,
      "note": 45,
      "vel": 70,
      "dur": 80
    },
    {
      "t": 1143.8,
      "ch": 7,
      "note": 36,
      "vel": 64,
      "dur": 80
    },
    {
      "t": 1143.8,
      "ch": 7,
      "note": 38,
      "vel": 78,
      "dur": 80
    },
    {
      "t": 1143.8,
      "ch": 5,
      "note": 65,
      "vel": 15,
      "dur": 966
    },
    {
      "t": 1144.2,
      "ch": 7,
      "note": 36,
      "vel": 58,
      "dur": 80
    },
    {
      "t": 1144.5,
      "ch": 7,
      "note": 48,
      "vel": 72,
      "dur": 80
    },
    {
      "t": 1144.5,
      "ch": 7,
      "note": 36,
      "vel": 60,
      "dur": 80
    },
    {
      "t": 1144.6,
      "ch": 7,
      "note": 45,
      "vel": 70,
      "dur": 80
    },
    {
      "t": 1144.6,
      "ch": 7,
      "note": 38,
      "vel": 66,
      "dur": 80
    },
    {
      "t": 1145,
      "ch": 4,
      "note": 57,
      "vel": 37,
      "dur": 5167
    },
    {
      "t": 1145,
      "ch": 4,
      "note": 62,
      "vel": 37,
      "dur": 5167
    },
    {
      "t": 1145,
      "ch": 3,
      "note": 45,
      "vel": 38,
      "dur": 5217
    },
    {
      "t": 1145.1,
      "ch": 0,
      "note": 36,
      "vel": 90,
      "dur": 55
    },
    {
      "t": 1145.1,
      "ch": 7,
      "note": 48,
      "vel": 69,
      "dur": 80
    },
    {
      "t": 1145.1,
      "ch": 7,
      "note": 36,
      "vel": 63,
      "dur": 80
    },
    {
      "t": 1145.4,
      "ch": 7,
      "note": 45,
      "vel": 54,
      "dur": 80
    },
    {
      "t": 1145.4,
      "ch": 7,
      "note": 36,
      "vel": 64,
      "dur": 80
    },
    {
      "t": 1145.4,
      "ch": 7,
      "note": 38,
      "vel": 71,
      "dur": 80
    },
    {
      "t": 1145.8,
      "ch": 7,
      "note": 48,
      "vel": 66,
      "dur": 80
    },
    {
      "t": 1145.8,
      "ch": 7,
      "note": 36,
      "vel": 71,
      "dur": 80
    },
    {
      "t": 1146.4,
      "ch": 7,
      "note": 48,
      "vel": 74,
      "dur": 80
    },
    {
      "t": 1146.4,
      "ch": 7,
      "note": 45,
      "vel": 76,
      "dur": 80
    },
    {
      "t": 1146.4,
      "ch": 7,
      "note": 36,
      "vel": 63,
      "dur": 80
    },
    {
      "t": 1146.4,
      "ch": 7,
      "note": 38,
      "vel": 86,
      "dur": 80
    },
    {
      "t": 1146.7,
      "ch": 7,
      "note": 36,
      "vel": 61,
      "dur": 80
    },
    {
      "t": 1147.1,
      "ch": 7,
      "note": 48,
      "vel": 78,
      "dur": 80
    },
    {
      "t": 1147.1,
      "ch": 7,
      "note": 36,
      "vel": 75,
      "dur": 80
    },
    {
      "t": 1147.3,
      "ch": 7,
      "note": 45,
      "vel": 68,
      "dur": 80
    },
    {
      "t": 1147.3,
      "ch": 7,
      "note": 38,
      "vel": 56,
      "dur": 80
    },
    {
      "t": 1147.7,
      "ch": 7,
      "note": 48,
      "vel": 79,
      "dur": 80
    },
    {
      "t": 1147.7,
      "ch": 7,
      "note": 36,
      "vel": 64,
      "dur": 80
    },
    {
      "t": 1148.1,
      "ch": 7,
      "note": 45,
      "vel": 72,
      "dur": 80
    },
    {
      "t": 1148.1,
      "ch": 7,
      "note": 36,
      "vel": 61,
      "dur": 80
    },
    {
      "t": 1148.1,
      "ch": 7,
      "note": 38,
      "vel": 49,
      "dur": 80
    },
    {
      "t": 1148.4,
      "ch": 7,
      "note": 48,
      "vel": 70,
      "dur": 80
    },
    {
      "t": 1148.4,
      "ch": 7,
      "note": 36,
      "vel": 76,
      "dur": 80
    },
    {
      "t": 1149,
      "ch": 7,
      "note": 48,
      "vel": 69,
      "dur": 80
    },
    {
      "t": 1149,
      "ch": 7,
      "note": 45,
      "vel": 80,
      "dur": 80
    },
    {
      "t": 1149,
      "ch": 7,
      "note": 36,
      "vel": 67,
      "dur": 80
    },
    {
      "t": 1149,
      "ch": 7,
      "note": 38,
      "vel": 78,
      "dur": 80
    },
    {
      "t": 1149.4,
      "ch": 7,
      "note": 36,
      "vel": 56,
      "dur": 80
    },
    {
      "t": 1149.7,
      "ch": 7,
      "note": 48,
      "vel": 68,
      "dur": 80
    },
    {
      "t": 1149.7,
      "ch": 7,
      "note": 36,
      "vel": 72,
      "dur": 80
    },
    {
      "t": 1149.9,
      "ch": 7,
      "note": 45,
      "vel": 62,
      "dur": 80
    },
    {
      "t": 1150.3,
      "ch": 4,
      "note": 55,
      "vel": 33,
      "dur": 5167
    },
    {
      "t": 1150.3,
      "ch": 4,
      "note": 62,
      "vel": 33,
      "dur": 5167
    },
    {
      "t": 1150.3,
      "ch": 3,
      "note": 43,
      "vel": 35,
      "dur": 5217
    },
    {
      "t": 1150.3,
      "ch": 7,
      "note": 48,
      "vel": 68,
      "dur": 80
    },
    {
      "t": 1150.3,
      "ch": 7,
      "note": 36,
      "vel": 71,
      "dur": 80
    },
    {
      "t": 1150.7,
      "ch": 7,
      "note": 45,
      "vel": 61,
      "dur": 80
    },
    {
      "t": 1150.7,
      "ch": 7,
      "note": 36,
      "vel": 62,
      "dur": 80
    },
    {
      "t": 1151,
      "ch": 7,
      "note": 48,
      "vel": 68,
      "dur": 80
    },
    {
      "t": 1151,
      "ch": 7,
      "note": 36,
      "vel": 68,
      "dur": 80
    },
    {
      "t": 1151,
      "ch": 6,
      "note": 64,
      "vel": 25,
      "dur": 665
    },
    {
      "t": 1151.6,
      "ch": 7,
      "note": 48,
      "vel": 77,
      "dur": 80
    },
    {
      "t": 1151.6,
      "ch": 7,
      "note": 45,
      "vel": 68,
      "dur": 80
    },
    {
      "t": 1151.6,
      "ch": 7,
      "note": 36,
      "vel": 73,
      "dur": 80
    },
    {
      "t": 1152,
      "ch": 7,
      "note": 36,
      "vel": 55,
      "dur": 80
    },
    {
      "t": 1152.3,
      "ch": 7,
      "note": 48,
      "vel": 71,
      "dur": 80
    },
    {
      "t": 1152.3,
      "ch": 7,
      "note": 36,
      "vel": 75,
      "dur": 80
    },
    {
      "t": 1152.5,
      "ch": 7,
      "note": 45,
      "vel": 61,
      "dur": 80
    },
    {
      "t": 1152.9,
      "ch": 7,
      "note": 48,
      "vel": 77,
      "dur": 80
    },
    {
      "t": 1152.9,
      "ch": 7,
      "note": 36,
      "vel": 70,
      "dur": 80
    },
    {
      "t": 1153.3,
      "ch": 7,
      "note": 45,
      "vel": 63,
      "dur": 80
    },
    {
      "t": 1153.3,
      "ch": 7,
      "note": 36,
      "vel": 61,
      "dur": 80
    },
    {
      "t": 1153.6,
      "ch": 7,
      "note": 48,
      "vel": 73,
      "dur": 80
    },
    {
      "t": 1153.6,
      "ch": 7,
      "note": 36,
      "vel": 64,
      "dur": 80
    },
    {
      "t": 1153.9,
      "ch": 5,
      "note": 69,
      "vel": 13,
      "dur": 992
    },
    {
      "t": 1154.2,
      "ch": 0,
      "note": 36,
      "vel": 111,
      "dur": 55
    },
    {
      "t": 1154.2,
      "ch": 7,
      "note": 48,
      "vel": 65,
      "dur": 80
    },
    {
      "t": 1154.2,
      "ch": 7,
      "note": 45,
      "vel": 68,
      "dur": 80
    },
    {
      "t": 1154.2,
      "ch": 7,
      "note": 36,
      "vel": 65,
      "dur": 80
    },
    {
      "t": 1154.2,
      "ch": 6,
      "note": 74,
      "vel": 17,
      "dur": 400
    },
    {
      "t": 1154.6,
      "ch": 7,
      "note": 36,
      "vel": 60,
      "dur": 80
    },
    {
      "t": 1154.6,
      "ch": 5,
      "note": 62,
      "vel": 12,
      "dur": 989
    },
    {
      "t": 1154.9,
      "ch": 7,
      "note": 48,
      "vel": 73,
      "dur": 80
    },
    {
      "t": 1154.9,
      "ch": 7,
      "note": 36,
      "vel": 59,
      "dur": 80
    },
    {
      "t": 1155.1,
      "ch": 7,
      "note": 45,
      "vel": 69,
      "dur": 80
    },
    {
      "t": 1155.6,
      "ch": 0,
      "note": 36,
      "vel": 96,
      "dur": 55
    },
    {
      "t": 1155.6,
      "ch": 7,
      "note": 48,
      "vel": 68,
      "dur": 80
    },
    {
      "t": 1155.6,
      "ch": 7,
      "note": 36,
      "vel": 71,
      "dur": 80
    },
    {
      "t": 1155.9,
      "ch": 7,
      "note": 45,
      "vel": 64,
      "dur": 80
    },
    {
      "t": 1155.9,
      "ch": 7,
      "note": 36,
      "vel": 63,
      "dur": 80
    },
    {
      "t": 1156.2,
      "ch": 7,
      "note": 48,
      "vel": 70,
      "dur": 80
    },
    {
      "t": 1156.2,
      "ch": 7,
      "note": 36,
      "vel": 62,
      "dur": 80
    },
    {
      "t": 1156.9,
      "ch": 7,
      "note": 48,
      "vel": 63,
      "dur": 80
    },
    {
      "t": 1156.9,
      "ch": 7,
      "note": 45,
      "vel": 75,
      "dur": 80
    },
    {
      "t": 1156.9,
      "ch": 7,
      "note": 36,
      "vel": 67,
      "dur": 80
    },
    {
      "t": 1157.2,
      "ch": 7,
      "note": 36,
      "vel": 74,
      "dur": 80
    },
    {
      "t": 1157.2,
      "ch": 5,
      "note": 65,
      "vel": 13,
      "dur": 974
    },
    {
      "t": 1157.4,
      "ch": 5,
      "note": 65,
      "vel": 20,
      "dur": 973
    },
    {
      "t": 1157.5,
      "ch": 7,
      "note": 48,
      "vel": 73,
      "dur": 80
    },
    {
      "t": 1157.5,
      "ch": 7,
      "note": 36,
      "vel": 70,
      "dur": 80
    },
    {
      "t": 1157.7,
      "ch": 7,
      "note": 45,
      "vel": 57,
      "dur": 80
    },
    {
      "t": 1157.7,
      "ch": 1,
      "note": 38,
      "vel": 61,
      "dur": 25
    },
    {
      "t": 1157.7,
      "ch": 1,
      "note": 40,
      "vel": 55,
      "dur": 25
    },
    {
      "t": 1157.7,
      "ch": 1,
      "note": 42,
      "vel": 54,
      "dur": 25
    },
    {
      "t": 1157.7,
      "ch": 1,
      "note": 36,
      "vel": 86,
      "dur": 25
    },
    {
      "t": 1157.7,
      "ch": 1,
      "note": 38,
      "vel": 76,
      "dur": 25
    },
    {
      "t": 1157.7,
      "ch": 1,
      "note": 40,
      "vel": 59,
      "dur": 25
    },
    {
      "t": 1157.7,
      "ch": 1,
      "note": 42,
      "vel": 50,
      "dur": 25
    },
    {
      "t": 1157.7,
      "ch": 1,
      "note": 36,
      "vel": 68,
      "dur": 25
    },
    {
      "t": 1157.7,
      "ch": 1,
      "note": 38,
      "vel": 69,
      "dur": 25
    },
    {
      "t": 1157.7,
      "ch": 1,
      "note": 40,
      "vel": 75,
      "dur": 25
    },
    {
      "t": 1157.7,
      "ch": 1,
      "note": 42,
      "vel": 81,
      "dur": 25
    },
    {
      "t": 1157.7,
      "ch": 1,
      "note": 36,
      "vel": 68,
      "dur": 25
    },
    {
      "t": 1157.7,
      "ch": 1,
      "note": 38,
      "vel": 69,
      "dur": 25
    },
    {
      "t": 1157.7,
      "ch": 1,
      "note": 40,
      "vel": 71,
      "dur": 25
    },
    {
      "t": 1157.7,
      "ch": 1,
      "note": 42,
      "vel": 68,
      "dur": 25
    },
    {
      "t": 1157.7,
      "ch": 1,
      "note": 36,
      "vel": 87,
      "dur": 25
    },
    {
      "t": 1157.7,
      "ch": 1,
      "note": 38,
      "vel": 71,
      "dur": 25
    },
    {
      "t": 1157.7,
      "ch": 1,
      "note": 40,
      "vel": 51,
      "dur": 25
    },
    {
      "t": 1157.7,
      "ch": 1,
      "note": 42,
      "vel": 71,
      "dur": 25
    },
    {
      "t": 1157.7,
      "ch": 1,
      "note": 36,
      "vel": 87,
      "dur": 25
    },
    {
      "t": 1157.7,
      "ch": 1,
      "note": 38,
      "vel": 69,
      "dur": 25
    },
    {
      "t": 1157.7,
      "ch": 1,
      "note": 40,
      "vel": 69,
      "dur": 25
    },
    {
      "t": 1157.7,
      "ch": 1,
      "note": 42,
      "vel": 67,
      "dur": 25
    },
    {
      "t": 1157.7,
      "ch": 1,
      "note": 36,
      "vel": 78,
      "dur": 25
    },
    {
      "t": 1157.7,
      "ch": 1,
      "note": 38,
      "vel": 77,
      "dur": 25
    },
    {
      "t": 1157.7,
      "ch": 1,
      "note": 40,
      "vel": 90,
      "dur": 25
    },
    {
      "t": 1157.7,
      "ch": 1,
      "note": 42,
      "vel": 79,
      "dur": 25
    },
    {
      "t": 1157.7,
      "ch": 1,
      "note": 36,
      "vel": 70,
      "dur": 25
    },
    {
      "t": 1157.7,
      "ch": 1,
      "note": 38,
      "vel": 60,
      "dur": 25
    },
    {
      "t": 1157.7,
      "ch": 1,
      "note": 40,
      "vel": 90,
      "dur": 25
    },
    {
      "t": 1157.7,
      "ch": 1,
      "note": 42,
      "vel": 74,
      "dur": 25
    },
    {
      "t": 1157.7,
      "ch": 1,
      "note": 36,
      "vel": 78,
      "dur": 25
    },
    {
      "t": 1157.7,
      "ch": 1,
      "note": 38,
      "vel": 82,
      "dur": 25
    },
    {
      "t": 1157.7,
      "ch": 1,
      "note": 40,
      "vel": 74,
      "dur": 25
    },
    {
      "t": 1157.7,
      "ch": 1,
      "note": 42,
      "vel": 61,
      "dur": 25
    },
    {
      "t": 1157.7,
      "ch": 1,
      "note": 36,
      "vel": 51,
      "dur": 25
    },
    {
      "t": 1157.7,
      "ch": 1,
      "note": 38,
      "vel": 80,
      "dur": 25
    },
    {
      "t": 1157.7,
      "ch": 1,
      "note": 40,
      "vel": 75,
      "dur": 25
    },
    {
      "t": 1157.7,
      "ch": 1,
      "note": 42,
      "vel": 75,
      "dur": 25
    },
    {
      "t": 1157.7,
      "ch": 1,
      "note": 36,
      "vel": 74,
      "dur": 25
    },
    {
      "t": 1157.7,
      "ch": 1,
      "note": 38,
      "vel": 79,
      "dur": 25
    },
    {
      "t": 1157.7,
      "ch": 1,
      "note": 40,
      "vel": 68,
      "dur": 25
    },
    {
      "t": 1157.7,
      "ch": 1,
      "note": 42,
      "vel": 72,
      "dur": 25
    },
    {
      "t": 1157.7,
      "ch": 1,
      "note": 36,
      "vel": 68,
      "dur": 25
    },
    {
      "t": 1157.7,
      "ch": 1,
      "note": 38,
      "vel": 64,
      "dur": 25
    },
    {
      "t": 1157.7,
      "ch": 1,
      "note": 40,
      "vel": 70,
      "dur": 25
    },
    {
      "t": 1157.7,
      "ch": 1,
      "note": 42,
      "vel": 93,
      "dur": 25
    },
    {
      "t": 1157.7,
      "ch": 1,
      "note": 36,
      "vel": 100,
      "dur": 25
    },
    {
      "t": 1157.7,
      "ch": 1,
      "note": 38,
      "vel": 67,
      "dur": 25
    },
    {
      "t": 1157.7,
      "ch": 1,
      "note": 40,
      "vel": 95,
      "dur": 25
    },
    {
      "t": 1157.7,
      "ch": 1,
      "note": 42,
      "vel": 63,
      "dur": 25
    },
    {
      "t": 1157.7,
      "ch": 1,
      "note": 36,
      "vel": 80,
      "dur": 25
    },
    {
      "t": 1157.7,
      "ch": 1,
      "note": 38,
      "vel": 79,
      "dur": 25
    },
    {
      "t": 1157.7,
      "ch": 1,
      "note": 40,
      "vel": 89,
      "dur": 25
    },
    {
      "t": 1157.7,
      "ch": 1,
      "note": 42,
      "vel": 72,
      "dur": 25
    },
    {
      "t": 1157.7,
      "ch": 1,
      "note": 36,
      "vel": 72,
      "dur": 25
    },
    {
      "t": 1157.7,
      "ch": 1,
      "note": 38,
      "vel": 81,
      "dur": 25
    },
    {
      "t": 1157.7,
      "ch": 1,
      "note": 40,
      "vel": 75,
      "dur": 25
    },
    {
      "t": 1157.7,
      "ch": 1,
      "note": 42,
      "vel": 77,
      "dur": 25
    },
    {
      "t": 1157.7,
      "ch": 1,
      "note": 36,
      "vel": 58,
      "dur": 25
    },
    {
      "t": 1157.7,
      "ch": 1,
      "note": 38,
      "vel": 60,
      "dur": 25
    },
    {
      "t": 1157.7,
      "ch": 1,
      "note": 40,
      "vel": 57,
      "dur": 25
    },
    {
      "t": 1157.7,
      "ch": 1,
      "note": 42,
      "vel": 68,
      "dur": 25
    },
    {
      "t": 1157.7,
      "ch": 1,
      "note": 36,
      "vel": 66,
      "dur": 25
    },
    {
      "t": 1157.7,
      "ch": 1,
      "note": 38,
      "vel": 60,
      "dur": 25
    },
    {
      "t": 1157.7,
      "ch": 1,
      "note": 40,
      "vel": 78,
      "dur": 25
    },
    {
      "t": 1157.7,
      "ch": 1,
      "note": 42,
      "vel": 87,
      "dur": 25
    },
    {
      "t": 1157.7,
      "ch": 1,
      "note": 36,
      "vel": 93,
      "dur": 25
    },
    {
      "t": 1157.7,
      "ch": 1,
      "note": 38,
      "vel": 97,
      "dur": 25
    },
    {
      "t": 1157.7,
      "ch": 1,
      "note": 40,
      "vel": 50,
      "dur": 25
    },
    {
      "t": 1157.7,
      "ch": 1,
      "note": 42,
      "vel": 79,
      "dur": 25
    },
    {
      "t": 1157.7,
      "ch": 1,
      "note": 36,
      "vel": 86,
      "dur": 25
    },
    {
      "t": 1157.7,
      "ch": 1,
      "note": 38,
      "vel": 88,
      "dur": 25
    },
    {
      "t": 1157.7,
      "ch": 1,
      "note": 40,
      "vel": 62,
      "dur": 25
    },
    {
      "t": 1157.7,
      "ch": 1,
      "note": 42,
      "vel": 71,
      "dur": 25
    },
    {
      "t": 1157.7,
      "ch": 1,
      "note": 36,
      "vel": 67,
      "dur": 25
    },
    {
      "t": 1157.7,
      "ch": 1,
      "note": 38,
      "vel": 75,
      "dur": 25
    },
    {
      "t": 1157.7,
      "ch": 1,
      "note": 40,
      "vel": 55,
      "dur": 25
    },
    {
      "t": 1157.7,
      "ch": 1,
      "note": 42,
      "vel": 81,
      "dur": 25
    },
    {
      "t": 1157.7,
      "ch": 1,
      "note": 36,
      "vel": 65,
      "dur": 25
    },
    {
      "t": 1157.7,
      "ch": 1,
      "note": 38,
      "vel": 80,
      "dur": 25
    },
    {
      "t": 1157.7,
      "ch": 1,
      "note": 40,
      "vel": 89,
      "dur": 25
    },
    {
      "t": 1157.7,
      "ch": 1,
      "note": 42,
      "vel": 72,
      "dur": 25
    },
    {
      "t": 1157.7,
      "ch": 1,
      "note": 36,
      "vel": 81,
      "dur": 25
    },
    {
      "t": 1157.7,
      "ch": 1,
      "note": 38,
      "vel": 57,
      "dur": 25
    },
    {
      "t": 1157.7,
      "ch": 1,
      "note": 40,
      "vel": 72,
      "dur": 25
    },
    {
      "t": 1157.7,
      "ch": 1,
      "note": 42,
      "vel": 86,
      "dur": 25
    },
    {
      "t": 1157.7,
      "ch": 1,
      "note": 36,
      "vel": 75,
      "dur": 25
    },
    {
      "t": 1157.7,
      "ch": 1,
      "note": 38,
      "vel": 94,
      "dur": 25
    },
    {
      "t": 1157.7,
      "ch": 1,
      "note": 40,
      "vel": 80,
      "dur": 25
    },
    {
      "t": 1157.7,
      "ch": 1,
      "note": 42,
      "vel": 81,
      "dur": 25
    },
    {
      "t": 1157.7,
      "ch": 1,
      "note": 36,
      "vel": 81,
      "dur": 25
    },
    {
      "t": 1157.7,
      "ch": 1,
      "note": 38,
      "vel": 53,
      "dur": 25
    },
    {
      "t": 1157.7,
      "ch": 1,
      "note": 40,
      "vel": 62,
      "dur": 25
    },
    {
      "t": 1157.7,
      "ch": 1,
      "note": 42,
      "vel": 91,
      "dur": 25
    },
    {
      "t": 1157.7,
      "ch": 1,
      "note": 36,
      "vel": 79,
      "dur": 25
    },
    {
      "t": 1157.7,
      "ch": 1,
      "note": 38,
      "vel": 68,
      "dur": 25
    },
    {
      "t": 1157.7,
      "ch": 1,
      "note": 40,
      "vel": 85,
      "dur": 25
    },
    {
      "t": 1157.7,
      "ch": 1,
      "note": 42,
      "vel": 88,
      "dur": 25
    },
    {
      "t": 1157.7,
      "ch": 1,
      "note": 36,
      "vel": 83,
      "dur": 25
    },
    {
      "t": 1157.7,
      "ch": 1,
      "note": 38,
      "vel": 57,
      "dur": 25
    },
    {
      "t": 1157.7,
      "ch": 1,
      "note": 40,
      "vel": 67,
      "dur": 25
    },
    {
      "t": 1157.7,
      "ch": 1,
      "note": 42,
      "vel": 70,
      "dur": 25
    },
    {
      "t": 1157.7,
      "ch": 1,
      "note": 36,
      "vel": 79,
      "dur": 25
    },
    {
      "t": 1157.7,
      "ch": 1,
      "note": 38,
      "vel": 65,
      "dur": 25
    },
    {
      "t": 1157.7,
      "ch": 1,
      "note": 40,
      "vel": 55,
      "dur": 25
    },
    {
      "t": 1157.7,
      "ch": 1,
      "note": 42,
      "vel": 76,
      "dur": 25
    },
    {
      "t": 1157.7,
      "ch": 1,
      "note": 36,
      "vel": 67,
      "dur": 25
    },
    {
      "t": 1157.7,
      "ch": 1,
      "note": 38,
      "vel": 83,
      "dur": 25
    },
    {
      "t": 1157.7,
      "ch": 1,
      "note": 40,
      "vel": 86,
      "dur": 25
    },
    {
      "t": 1157.7,
      "ch": 1,
      "note": 42,
      "vel": 79,
      "dur": 25
    },
    {
      "t": 1157.7,
      "ch": 1,
      "note": 36,
      "vel": 77,
      "dur": 25
    },
    {
      "t": 1157.7,
      "ch": 1,
      "note": 38,
      "vel": 85,
      "dur": 25
    },
    {
      "t": 1157.7,
      "ch": 1,
      "note": 40,
      "vel": 71,
      "dur": 25
    },
    {
      "t": 1157.7,
      "ch": 1,
      "note": 42,
      "vel": 76,
      "dur": 25
    },
    {
      "t": 1157.7,
      "ch": 1,
      "note": 36,
      "vel": 80,
      "dur": 25
    },
    {
      "t": 1157.7,
      "ch": 1,
      "note": 38,
      "vel": 87,
      "dur": 25
    },
    {
      "t": 1157.7,
      "ch": 1,
      "note": 40,
      "vel": 69,
      "dur": 25
    },
    {
      "t": 1157.7,
      "ch": 1,
      "note": 42,
      "vel": 99,
      "dur": 25
    },
    {
      "t": 1157.7,
      "ch": 1,
      "note": 36,
      "vel": 83,
      "dur": 25
    },
    {
      "t": 1157.7,
      "ch": 1,
      "note": 38,
      "vel": 68,
      "dur": 25
    },
    {
      "t": 1157.7,
      "ch": 1,
      "note": 40,
      "vel": 83,
      "dur": 25
    },
    {
      "t": 1157.7,
      "ch": 1,
      "note": 42,
      "vel": 59,
      "dur": 25
    },
    {
      "t": 1157.7,
      "ch": 1,
      "note": 36,
      "vel": 82,
      "dur": 25
    },
    {
      "t": 1157.7,
      "ch": 1,
      "note": 38,
      "vel": 82,
      "dur": 25
    },
    {
      "t": 1157.7,
      "ch": 1,
      "note": 40,
      "vel": 74,
      "dur": 25
    },
    {
      "t": 1157.7,
      "ch": 1,
      "note": 42,
      "vel": 70,
      "dur": 25
    },
    {
      "t": 1157.7,
      "ch": 1,
      "note": 36,
      "vel": 80,
      "dur": 25
    },
    {
      "t": 1157.7,
      "ch": 1,
      "note": 38,
      "vel": 69,
      "dur": 25
    },
    {
      "t": 1157.7,
      "ch": 1,
      "note": 40,
      "vel": 86,
      "dur": 25
    },
    {
      "t": 1157.7,
      "ch": 1,
      "note": 42,
      "vel": 65,
      "dur": 25
    },
    {
      "t": 1157.7,
      "ch": 1,
      "note": 36,
      "vel": 84,
      "dur": 25
    },
    {
      "t": 1157.7,
      "ch": 1,
      "note": 38,
      "vel": 82,
      "dur": 25
    },
    {
      "t": 1157.7,
      "ch": 1,
      "note": 40,
      "vel": 74,
      "dur": 25
    },
    {
      "t": 1157.7,
      "ch": 1,
      "note": 42,
      "vel": 66,
      "dur": 25
    },
    {
      "t": 1157.7,
      "ch": 1,
      "note": 36,
      "vel": 84,
      "dur": 25
    },
    {
      "t": 1157.7,
      "ch": 1,
      "note": 38,
      "vel": 94,
      "dur": 25
    },
    {
      "t": 1157.7,
      "ch": 1,
      "note": 40,
      "vel": 75,
      "dur": 25
    },
    {
      "t": 1157.7,
      "ch": 1,
      "note": 42,
      "vel": 63,
      "dur": 25
    },
    {
      "t": 1157.7,
      "ch": 1,
      "note": 36,
      "vel": 70,
      "dur": 25
    },
    {
      "t": 1157.7,
      "ch": 1,
      "note": 38,
      "vel": 77,
      "dur": 25
    },
    {
      "t": 1157.7,
      "ch": 1,
      "note": 40,
      "vel": 56,
      "dur": 25
    },
    {
      "t": 1157.7,
      "ch": 1,
      "note": 42,
      "vel": 93,
      "dur": 25
    },
    {
      "t": 1157.7,
      "ch": 1,
      "note": 36,
      "vel": 62,
      "dur": 25
    },
    {
      "t": 1157.7,
      "ch": 1,
      "note": 38,
      "vel": 50,
      "dur": 25
    },
    {
      "t": 1157.7,
      "ch": 1,
      "note": 40,
      "vel": 66,
      "dur": 25
    },
    {
      "t": 1157.7,
      "ch": 1,
      "note": 42,
      "vel": 67,
      "dur": 25
    },
    {
      "t": 1157.7,
      "ch": 1,
      "note": 36,
      "vel": 67,
      "dur": 25
    },
    {
      "t": 1157.7,
      "ch": 1,
      "note": 38,
      "vel": 68,
      "dur": 25
    },
    {
      "t": 1157.7,
      "ch": 1,
      "note": 40,
      "vel": 68,
      "dur": 25
    },
    {
      "t": 1157.7,
      "ch": 1,
      "note": 42,
      "vel": 73,
      "dur": 25
    },
    {
      "t": 1157.7,
      "ch": 1,
      "note": 36,
      "vel": 86,
      "dur": 25
    },
    {
      "t": 1157.7,
      "ch": 1,
      "note": 38,
      "vel": 63,
      "dur": 25
    },
    {
      "t": 1157.7,
      "ch": 1,
      "note": 40,
      "vel": 78,
      "dur": 25
    },
    {
      "t": 1157.7,
      "ch": 1,
      "note": 42,
      "vel": 94,
      "dur": 25
    },
    {
      "t": 1157.7,
      "ch": 1,
      "note": 36,
      "vel": 93,
      "dur": 25
    },
    {
      "t": 1157.7,
      "ch": 1,
      "note": 38,
      "vel": 69,
      "dur": 25
    },
    {
      "t": 1157.7,
      "ch": 1,
      "note": 40,
      "vel": 60,
      "dur": 25
    },
    {
      "t": 1157.7,
      "ch": 1,
      "note": 42,
      "vel": 80,
      "dur": 25
    },
    {
      "t": 1157.7,
      "ch": 1,
      "note": 36,
      "vel": 53,
      "dur": 25
    },
    {
      "t": 1157.7,
      "ch": 1,
      "note": 38,
      "vel": 64,
      "dur": 25
    },
    {
      "t": 1157.7,
      "ch": 1,
      "note": 40,
      "vel": 59,
      "dur": 25
    },
    {
      "t": 1157.7,
      "ch": 1,
      "note": 42,
      "vel": 81,
      "dur": 25
    },
    {
      "t": 1157.7,
      "ch": 1,
      "note": 36,
      "vel": 70,
      "dur": 25
    },
    {
      "t": 1157.7,
      "ch": 1,
      "note": 38,
      "vel": 73,
      "dur": 25
    },
    {
      "t": 1157.7,
      "ch": 1,
      "note": 40,
      "vel": 87,
      "dur": 25
    },
    {
      "t": 1157.7,
      "ch": 1,
      "note": 42,
      "vel": 85,
      "dur": 25
    },
    {
      "t": 1157.7,
      "ch": 1,
      "note": 36,
      "vel": 51,
      "dur": 25
    },
    {
      "t": 1157.7,
      "ch": 1,
      "note": 38,
      "vel": 91,
      "dur": 25
    },
    {
      "t": 1157.7,
      "ch": 1,
      "note": 40,
      "vel": 80,
      "dur": 25
    },
    {
      "t": 1157.7,
      "ch": 1,
      "note": 42,
      "vel": 93,
      "dur": 25
    },
    {
      "t": 1157.7,
      "ch": 1,
      "note": 36,
      "vel": 66,
      "dur": 25
    },
    {
      "t": 1157.7,
      "ch": 1,
      "note": 38,
      "vel": 43,
      "dur": 25
    },
    {
      "t": 1157.7,
      "ch": 1,
      "note": 40,
      "vel": 63,
      "dur": 25
    },
    {
      "t": 1157.7,
      "ch": 1,
      "note": 42,
      "vel": 62,
      "dur": 25
    },
    {
      "t": 1157.7,
      "ch": 1,
      "note": 36,
      "vel": 69,
      "dur": 25
    },
    {
      "t": 1157.7,
      "ch": 1,
      "note": 38,
      "vel": 90,
      "dur": 25
    },
    {
      "t": 1157.7,
      "ch": 1,
      "note": 40,
      "vel": 85,
      "dur": 25
    },
    {
      "t": 1157.7,
      "ch": 1,
      "note": 42,
      "vel": 64,
      "dur": 25
    },
    {
      "t": 1157.7,
      "ch": 1,
      "note": 36,
      "vel": 83,
      "dur": 25
    },
    {
      "t": 1157.7,
      "ch": 1,
      "note": 38,
      "vel": 77,
      "dur": 25
    },
    {
      "t": 1157.7,
      "ch": 1,
      "note": 40,
      "vel": 80,
      "dur": 25
    },
    {
      "t": 1157.7,
      "ch": 1,
      "note": 42,
      "vel": 74,
      "dur": 25
    },
    {
      "t": 1157.7,
      "ch": 1,
      "note": 36,
      "vel": 49,
      "dur": 25
    },
    {
      "t": 1157.7,
      "ch": 1,
      "note": 38,
      "vel": 75,
      "dur": 25
    },
    {
      "t": 1157.7,
      "ch": 1,
      "note": 40,
      "vel": 78,
      "dur": 25
    },
    {
      "t": 1157.7,
      "ch": 1,
      "note": 42,
      "vel": 61,
      "dur": 25
    },
    {
      "t": 1157.7,
      "ch": 1,
      "note": 36,
      "vel": 81,
      "dur": 25
    },
    {
      "t": 1157.7,
      "ch": 1,
      "note": 38,
      "vel": 66,
      "dur": 25
    },
    {
      "t": 1157.7,
      "ch": 1,
      "note": 40,
      "vel": 84,
      "dur": 25
    },
    {
      "t": 1157.7,
      "ch": 1,
      "note": 42,
      "vel": 67,
      "dur": 25
    },
    {
      "t": 1157.7,
      "ch": 1,
      "note": 36,
      "vel": 54,
      "dur": 25
    },
    {
      "t": 1157.7,
      "ch": 1,
      "note": 38,
      "vel": 85,
      "dur": 25
    },
    {
      "t": 1157.7,
      "ch": 1,
      "note": 40,
      "vel": 66,
      "dur": 25
    },
    {
      "t": 1157.7,
      "ch": 1,
      "note": 42,
      "vel": 66,
      "dur": 25
    },
    {
      "t": 1157.7,
      "ch": 1,
      "note": 36,
      "vel": 63,
      "dur": 25
    },
    {
      "t": 1157.7,
      "ch": 1,
      "note": 38,
      "vel": 78,
      "dur": 25
    },
    {
      "t": 1157.7,
      "ch": 1,
      "note": 40,
      "vel": 79,
      "dur": 25
    },
    {
      "t": 1157.7,
      "ch": 1,
      "note": 42,
      "vel": 86,
      "dur": 25
    },
    {
      "t": 1157.7,
      "ch": 1,
      "note": 36,
      "vel": 94,
      "dur": 25
    },
    {
      "t": 1157.7,
      "ch": 1,
      "note": 38,
      "vel": 86,
      "dur": 25
    },
    {
      "t": 1157.7,
      "ch": 1,
      "note": 40,
      "vel": 89,
      "dur": 25
    },
    {
      "t": 1157.7,
      "ch": 1,
      "note": 42,
      "vel": 71,
      "dur": 25
    },
    {
      "t": 1157.7,
      "ch": 1,
      "note": 36,
      "vel": 82,
      "dur": 25
    },
    {
      "t": 1157.7,
      "ch": 1,
      "note": 38,
      "vel": 95,
      "dur": 25
    },
    {
      "t": 1157.7,
      "ch": 1,
      "note": 40,
      "vel": 82,
      "dur": 25
    },
    {
      "t": 1157.7,
      "ch": 1,
      "note": 42,
      "vel": 95,
      "dur": 25
    },
    {
      "t": 1157.7,
      "ch": 1,
      "note": 36,
      "vel": 93,
      "dur": 25
    },
    {
      "t": 1157.7,
      "ch": 1,
      "note": 38,
      "vel": 70,
      "dur": 25
    },
    {
      "t": 1157.7,
      "ch": 1,
      "note": 40,
      "vel": 58,
      "dur": 25
    },
    {
      "t": 1157.7,
      "ch": 1,
      "note": 42,
      "vel": 66,
      "dur": 25
    },
    {
      "t": 1157.7,
      "ch": 1,
      "note": 36,
      "vel": 73,
      "dur": 25
    },
    {
      "t": 1157.7,
      "ch": 1,
      "note": 38,
      "vel": 81,
      "dur": 25
    },
    {
      "t": 1157.7,
      "ch": 1,
      "note": 40,
      "vel": 55,
      "dur": 25
    },
    {
      "t": 1157.7,
      "ch": 1,
      "note": 42,
      "vel": 63,
      "dur": 25
    },
    {
      "t": 1157.7,
      "ch": 1,
      "note": 36,
      "vel": 66,
      "dur": 25
    },
    {
      "t": 1157.7,
      "ch": 1,
      "note": 38,
      "vel": 86,
      "dur": 25
    },
    {
      "t": 1157.7,
      "ch": 1,
      "note": 40,
      "vel": 51,
      "dur": 25
    },
    {
      "t": 1157.7,
      "ch": 1,
      "note": 42,
      "vel": 69,
      "dur": 25
    },
    {
      "t": 1157.7,
      "ch": 1,
      "note": 36,
      "vel": 66,
      "dur": 25
    },
    {
      "t": 1157.7,
      "ch": 1,
      "note": 38,
      "vel": 80,
      "dur": 25
    },
    {
      "t": 1157.7,
      "ch": 1,
      "note": 40,
      "vel": 82,
      "dur": 25
    },
    {
      "t": 1157.7,
      "ch": 1,
      "note": 42,
      "vel": 62,
      "dur": 25
    },
    {
      "t": 1157.7,
      "ch": 1,
      "note": 36,
      "vel": 84,
      "dur": 25
    },
    {
      "t": 1157.7,
      "ch": 1,
      "note": 38,
      "vel": 67,
      "dur": 25
    },
    {
      "t": 1157.7,
      "ch": 1,
      "note": 40,
      "vel": 96,
      "dur": 25
    },
    {
      "t": 1157.7,
      "ch": 1,
      "note": 42,
      "vel": 83,
      "dur": 25
    },
    {
      "t": 1157.7,
      "ch": 1,
      "note": 36,
      "vel": 91,
      "dur": 25
    },
    {
      "t": 1157.7,
      "ch": 1,
      "note": 38,
      "vel": 72,
      "dur": 25
    },
    {
      "t": 1157.7,
      "ch": 1,
      "note": 40,
      "vel": 90,
      "dur": 25
    },
    {
      "t": 1157.7,
      "ch": 1,
      "note": 42,
      "vel": 65,
      "dur": 25
    },
    {
      "t": 1157.7,
      "ch": 1,
      "note": 36,
      "vel": 67,
      "dur": 25
    },
    {
      "t": 1157.7,
      "ch": 1,
      "note": 38,
      "vel": 82,
      "dur": 25
    },
    {
      "t": 1157.7,
      "ch": 1,
      "note": 40,
      "vel": 89,
      "dur": 25
    },
    {
      "t": 1157.7,
      "ch": 1,
      "note": 42,
      "vel": 54,
      "dur": 25
    },
    {
      "t": 1157.7,
      "ch": 1,
      "note": 36,
      "vel": 63,
      "dur": 25
    },
    {
      "t": 1157.7,
      "ch": 1,
      "note": 38,
      "vel": 53,
      "dur": 25
    },
    {
      "t": 1157.7,
      "ch": 1,
      "note": 40,
      "vel": 80,
      "dur": 25
    },
    {
      "t": 1157.7,
      "ch": 1,
      "note": 42,
      "vel": 61,
      "dur": 25
    },
    {
      "t": 1157.7,
      "ch": 1,
      "note": 36,
      "vel": 65,
      "dur": 25
    },
    {
      "t": 1157.7,
      "ch": 1,
      "note": 38,
      "vel": 69,
      "dur": 25
    },
    {
      "t": 1157.7,
      "ch": 1,
      "note": 40,
      "vel": 83,
      "dur": 25
    },
    {
      "t": 1157.7,
      "ch": 1,
      "note": 42,
      "vel": 81,
      "dur": 25
    },
    {
      "t": 1157.7,
      "ch": 1,
      "note": 36,
      "vel": 80,
      "dur": 25
    },
    {
      "t": 1157.7,
      "ch": 1,
      "note": 38,
      "vel": 57,
      "dur": 25
    },
    {
      "t": 1157.7,
      "ch": 1,
      "note": 40,
      "vel": 81,
      "dur": 25
    },
    {
      "t": 1157.7,
      "ch": 1,
      "note": 42,
      "vel": 65,
      "dur": 25
    },
    {
      "t": 1157.7,
      "ch": 1,
      "note": 36,
      "vel": 104,
      "dur": 25
    },
    {
      "t": 1157.7,
      "ch": 1,
      "note": 38,
      "vel": 74,
      "dur": 25
    },
    {
      "t": 1157.7,
      "ch": 1,
      "note": 40,
      "vel": 66,
      "dur": 25
    },
    {
      "t": 1157.7,
      "ch": 1,
      "note": 42,
      "vel": 81,
      "dur": 25
    },
    {
      "t": 1157.7,
      "ch": 1,
      "note": 36,
      "vel": 57,
      "dur": 25
    },
    {
      "t": 1157.7,
      "ch": 1,
      "note": 38,
      "vel": 75,
      "dur": 25
    },
    {
      "t": 1157.7,
      "ch": 1,
      "note": 40,
      "vel": 87,
      "dur": 25
    },
    {
      "t": 1157.7,
      "ch": 1,
      "note": 42,
      "vel": 72,
      "dur": 25
    },
    {
      "t": 1157.7,
      "ch": 1,
      "note": 36,
      "vel": 63,
      "dur": 25
    },
    {
      "t": 1157.7,
      "ch": 1,
      "note": 38,
      "vel": 72,
      "dur": 25
    },
    {
      "t": 1157.7,
      "ch": 1,
      "note": 40,
      "vel": 65,
      "dur": 25
    },
    {
      "t": 1157.7,
      "ch": 1,
      "note": 42,
      "vel": 66,
      "dur": 25
    },
    {
      "t": 1157.7,
      "ch": 1,
      "note": 36,
      "vel": 59,
      "dur": 25
    },
    {
      "t": 1157.7,
      "ch": 1,
      "note": 38,
      "vel": 70,
      "dur": 25
    },
    {
      "t": 1157.7,
      "ch": 1,
      "note": 40,
      "vel": 74,
      "dur": 25
    },
    {
      "t": 1157.7,
      "ch": 1,
      "note": 42,
      "vel": 98,
      "dur": 25
    },
    {
      "t": 1157.7,
      "ch": 1,
      "note": 36,
      "vel": 90,
      "dur": 25
    },
    {
      "t": 1157.7,
      "ch": 1,
      "note": 38,
      "vel": 97,
      "dur": 25
    },
    {
      "t": 1157.7,
      "ch": 1,
      "note": 40,
      "vel": 77,
      "dur": 25
    },
    {
      "t": 1157.7,
      "ch": 1,
      "note": 42,
      "vel": 63,
      "dur": 25
    },
    {
      "t": 1157.7,
      "ch": 1,
      "note": 36,
      "vel": 66,
      "dur": 25
    },
    {
      "t": 1157.7,
      "ch": 1,
      "note": 38,
      "vel": 68,
      "dur": 25
    },
    {
      "t": 1157.7,
      "ch": 1,
      "note": 40,
      "vel": 82,
      "dur": 25
    },
    {
      "t": 1157.7,
      "ch": 1,
      "note": 42,
      "vel": 98,
      "dur": 25
    },
    {
      "t": 1157.7,
      "ch": 1,
      "note": 36,
      "vel": 72,
      "dur": 25
    },
    {
      "t": 1157.7,
      "ch": 1,
      "note": 38,
      "vel": 63,
      "dur": 25
    },
    {
      "t": 1157.7,
      "ch": 1,
      "note": 40,
      "vel": 65,
      "dur": 25
    },
    {
      "t": 1157.7,
      "ch": 1,
      "note": 42,
      "vel": 77,
      "dur": 25
    },
    {
      "t": 1157.7,
      "ch": 1,
      "note": 36,
      "vel": 81,
      "dur": 25
    },
    {
      "t": 1157.7,
      "ch": 1,
      "note": 38,
      "vel": 68,
      "dur": 25
    },
    {
      "t": 1157.7,
      "ch": 1,
      "note": 40,
      "vel": 92,
      "dur": 25
    },
    {
      "t": 1157.7,
      "ch": 1,
      "note": 42,
      "vel": 87,
      "dur": 25
    },
    {
      "t": 1157.7,
      "ch": 1,
      "note": 36,
      "vel": 65,
      "dur": 25
    },
    {
      "t": 1157.7,
      "ch": 1,
      "note": 38,
      "vel": 66,
      "dur": 25
    },
    {
      "t": 1157.7,
      "ch": 1,
      "note": 40,
      "vel": 56,
      "dur": 25
    },
    {
      "t": 1157.7,
      "ch": 1,
      "note": 42,
      "vel": 70,
      "dur": 25
    },
    {
      "t": 1157.7,
      "ch": 1,
      "note": 36,
      "vel": 72,
      "dur": 25
    },
    {
      "t": 1157.7,
      "ch": 1,
      "note": 38,
      "vel": 68,
      "dur": 25
    },
    {
      "t": 1157.7,
      "ch": 1,
      "note": 40,
      "vel": 69,
      "dur": 25
    },
    {
      "t": 1157.7,
      "ch": 1,
      "note": 42,
      "vel": 82,
      "dur": 25
    },
    {
      "t": 1157.7,
      "ch": 1,
      "note": 36,
      "vel": 48,
      "dur": 25
    },
    {
      "t": 1157.7,
      "ch": 1,
      "note": 38,
      "vel": 81,
      "dur": 25
    },
    {
      "t": 1157.7,
      "ch": 1,
      "note": 40,
      "vel": 73,
      "dur": 25
    },
    {
      "t": 1157.7,
      "ch": 1,
      "note": 42,
      "vel": 75,
      "dur": 25
    },
    {
      "t": 1157.7,
      "ch": 1,
      "note": 36,
      "vel": 70,
      "dur": 25
    },
    {
      "t": 1157.7,
      "ch": 1,
      "note": 38,
      "vel": 63,
      "dur": 25
    },
    {
      "t": 1157.7,
      "ch": 1,
      "note": 40,
      "vel": 86,
      "dur": 25
    },
    {
      "t": 1157.7,
      "ch": 1,
      "note": 42,
      "vel": 83,
      "dur": 25
    },
    {
      "t": 1157.7,
      "ch": 1,
      "note": 36,
      "vel": 82,
      "dur": 25
    },
    {
      "t": 1157.7,
      "ch": 1,
      "note": 38,
      "vel": 96,
      "dur": 25
    },
    {
      "t": 1157.7,
      "ch": 1,
      "note": 40,
      "vel": 82,
      "dur": 25
    },
    {
      "t": 1157.7,
      "ch": 1,
      "note": 42,
      "vel": 91,
      "dur": 25
    },
    {
      "t": 1157.7,
      "ch": 1,
      "note": 36,
      "vel": 74,
      "dur": 25
    },
    {
      "t": 1157.7,
      "ch": 1,
      "note": 38,
      "vel": 57,
      "dur": 25
    },
    {
      "t": 1157.7,
      "ch": 1,
      "note": 40,
      "vel": 72,
      "dur": 25
    },
    {
      "t": 1157.7,
      "ch": 1,
      "note": 42,
      "vel": 68,
      "dur": 25
    },
    {
      "t": 1157.7,
      "ch": 1,
      "note": 36,
      "vel": 54,
      "dur": 25
    },
    {
      "t": 1157.7,
      "ch": 1,
      "note": 38,
      "vel": 76,
      "dur": 25
    },
    {
      "t": 1157.7,
      "ch": 1,
      "note": 40,
      "vel": 91,
      "dur": 25
    },
    {
      "t": 1157.7,
      "ch": 1,
      "note": 42,
      "vel": 65,
      "dur": 25
    },
    {
      "t": 1157.7,
      "ch": 1,
      "note": 36,
      "vel": 49,
      "dur": 25
    },
    {
      "t": 1157.7,
      "ch": 1,
      "note": 38,
      "vel": 65,
      "dur": 25
    },
    {
      "t": 1157.7,
      "ch": 1,
      "note": 40,
      "vel": 88,
      "dur": 25
    },
    {
      "t": 1157.7,
      "ch": 1,
      "note": 42,
      "vel": 56,
      "dur": 25
    },
    {
      "t": 1157.7,
      "ch": 1,
      "note": 36,
      "vel": 85,
      "dur": 25
    },
    {
      "t": 1157.7,
      "ch": 1,
      "note": 38,
      "vel": 81,
      "dur": 25
    },
    {
      "t": 1157.7,
      "ch": 1,
      "note": 40,
      "vel": 86,
      "dur": 25
    },
    {
      "t": 1157.7,
      "ch": 1,
      "note": 42,
      "vel": 87,
      "dur": 25
    },
    {
      "t": 1157.7,
      "ch": 1,
      "note": 36,
      "vel": 57,
      "dur": 25
    },
    {
      "t": 1157.7,
      "ch": 1,
      "note": 38,
      "vel": 60,
      "dur": 25
    },
    {
      "t": 1157.7,
      "ch": 1,
      "note": 40,
      "vel": 69,
      "dur": 25
    },
    {
      "t": 1157.7,
      "ch": 1,
      "note": 42,
      "vel": 70,
      "dur": 25
    },
    {
      "t": 1157.7,
      "ch": 1,
      "note": 36,
      "vel": 70,
      "dur": 25
    },
    {
      "t": 1157.7,
      "ch": 1,
      "note": 38,
      "vel": 79,
      "dur": 25
    },
    {
      "t": 1157.7,
      "ch": 1,
      "note": 40,
      "vel": 85,
      "dur": 25
    },
    {
      "t": 1157.7,
      "ch": 1,
      "note": 42,
      "vel": 76,
      "dur": 25
    },
    {
      "t": 1157.7,
      "ch": 1,
      "note": 36,
      "vel": 66,
      "dur": 25
    },
    {
      "t": 1157.7,
      "ch": 1,
      "note": 38,
      "vel": 69,
      "dur": 25
    },
    {
      "t": 1157.7,
      "ch": 1,
      "note": 40,
      "vel": 78,
      "dur": 25
    },
    {
      "t": 1157.7,
      "ch": 1,
      "note": 42,
      "vel": 105,
      "dur": 25
    },
    {
      "t": 1157.7,
      "ch": 1,
      "note": 36,
      "vel": 84,
      "dur": 25
    },
    {
      "t": 1157.7,
      "ch": 1,
      "note": 38,
      "vel": 58,
      "dur": 25
    },
    {
      "t": 1157.7,
      "ch": 1,
      "note": 40,
      "vel": 87,
      "dur": 25
    },
    {
      "t": 1157.7,
      "ch": 1,
      "note": 42,
      "vel": 60,
      "dur": 25
    },
    {
      "t": 1157.7,
      "ch": 1,
      "note": 36,
      "vel": 72,
      "dur": 25
    },
    {
      "t": 1157.7,
      "ch": 1,
      "note": 38,
      "vel": 76,
      "dur": 25
    },
    {
      "t": 1157.7,
      "ch": 1,
      "note": 40,
      "vel": 73,
      "dur": 25
    },
    {
      "t": 1157.7,
      "ch": 1,
      "note": 42,
      "vel": 82,
      "dur": 25
    },
    {
      "t": 1157.7,
      "ch": 1,
      "note": 36,
      "vel": 84,
      "dur": 25
    },
    {
      "t": 1157.7,
      "ch": 1,
      "note": 38,
      "vel": 52,
      "dur": 25
    },
    {
      "t": 1157.7,
      "ch": 1,
      "note": 40,
      "vel": 91,
      "dur": 25
    },
    {
      "t": 1157.7,
      "ch": 1,
      "note": 42,
      "vel": 67,
      "dur": 25
    },
    {
      "t": 1157.7,
      "ch": 1,
      "note": 36,
      "vel": 72,
      "dur": 25
    },
    {
      "t": 1157.7,
      "ch": 1,
      "note": 38,
      "vel": 83,
      "dur": 25
    },
    {
      "t": 1157.7,
      "ch": 1,
      "note": 40,
      "vel": 71,
      "dur": 25
    },
    {
      "t": 1157.7,
      "ch": 1,
      "note": 42,
      "vel": 71,
      "dur": 25
    },
    {
      "t": 1157.7,
      "ch": 1,
      "note": 36,
      "vel": 62,
      "dur": 25
    },
    {
      "t": 1157.7,
      "ch": 1,
      "note": 38,
      "vel": 72,
      "dur": 25
    },
    {
      "t": 1157.7,
      "ch": 1,
      "note": 40,
      "vel": 86,
      "dur": 25
    },
    {
      "t": 1157.7,
      "ch": 1,
      "note": 42,
      "vel": 67,
      "dur": 25
    },
    {
      "t": 1157.7,
      "ch": 1,
      "note": 36,
      "vel": 85,
      "dur": 25
    },
    {
      "t": 1157.7,
      "ch": 1,
      "note": 38,
      "vel": 78,
      "dur": 25
    },
    {
      "t": 1157.7,
      "ch": 1,
      "note": 40,
      "vel": 72,
      "dur": 25
    },
    {
      "t": 1157.7,
      "ch": 1,
      "note": 42,
      "vel": 79,
      "dur": 25
    },
    {
      "t": 1157.7,
      "ch": 1,
      "note": 36,
      "vel": 80,
      "dur": 25
    },
    {
      "t": 1157.7,
      "ch": 1,
      "note": 38,
      "vel": 83,
      "dur": 25
    },
    {
      "t": 1157.7,
      "ch": 1,
      "note": 40,
      "vel": 79,
      "dur": 25
    },
    {
      "t": 1157.7,
      "ch": 1,
      "note": 42,
      "vel": 92,
      "dur": 25
    },
    {
      "t": 1157.7,
      "ch": 1,
      "note": 36,
      "vel": 86,
      "dur": 25
    },
    {
      "t": 1157.7,
      "ch": 1,
      "note": 38,
      "vel": 86,
      "dur": 25
    },
    {
      "t": 1157.7,
      "ch": 1,
      "note": 40,
      "vel": 96,
      "dur": 25
    },
    {
      "t": 1157.7,
      "ch": 1,
      "note": 42,
      "vel": 68,
      "dur": 25
    },
    {
      "t": 1157.7,
      "ch": 1,
      "note": 36,
      "vel": 64,
      "dur": 25
    },
    {
      "t": 1157.7,
      "ch": 1,
      "note": 38,
      "vel": 66,
      "dur": 25
    },
    {
      "t": 1157.7,
      "ch": 1,
      "note": 40,
      "vel": 68,
      "dur": 25
    },
    {
      "t": 1157.7,
      "ch": 1,
      "note": 42,
      "vel": 85,
      "dur": 25
    },
    {
      "t": 1157.7,
      "ch": 1,
      "note": 36,
      "vel": 92,
      "dur": 25
    },
    {
      "t": 1157.7,
      "ch": 1,
      "note": 38,
      "vel": 87,
      "dur": 25
    },
    {
      "t": 1157.7,
      "ch": 1,
      "note": 40,
      "vel": 70,
      "dur": 25
    },
    {
      "t": 1157.7,
      "ch": 1,
      "note": 42,
      "vel": 65,
      "dur": 25
    },
    {
      "t": 1157.7,
      "ch": 1,
      "note": 36,
      "vel": 71,
      "dur": 25
    },
    {
      "t": 1157.7,
      "ch": 1,
      "note": 38,
      "vel": 78,
      "dur": 25
    },
    {
      "t": 1157.7,
      "ch": 1,
      "note": 40,
      "vel": 60,
      "dur": 25
    },
    {
      "t": 1157.7,
      "ch": 1,
      "note": 42,
      "vel": 56,
      "dur": 25
    },
    {
      "t": 1157.7,
      "ch": 1,
      "note": 36,
      "vel": 75,
      "dur": 25
    },
    {
      "t": 1157.7,
      "ch": 1,
      "note": 38,
      "vel": 87,
      "dur": 25
    },
    {
      "t": 1157.7,
      "ch": 1,
      "note": 40,
      "vel": 73,
      "dur": 25
    },
    {
      "t": 1157.7,
      "ch": 1,
      "note": 42,
      "vel": 82,
      "dur": 25
    },
    {
      "t": 1157.7,
      "ch": 1,
      "note": 36,
      "vel": 91,
      "dur": 25
    },
    {
      "t": 1157.7,
      "ch": 1,
      "note": 38,
      "vel": 92,
      "dur": 25
    },
    {
      "t": 1157.7,
      "ch": 1,
      "note": 40,
      "vel": 73,
      "dur": 25
    },
    {
      "t": 1157.7,
      "ch": 1,
      "note": 42,
      "vel": 76,
      "dur": 25
    },
    {
      "t": 1157.7,
      "ch": 1,
      "note": 36,
      "vel": 68,
      "dur": 25
    },
    {
      "t": 1157.7,
      "ch": 1,
      "note": 38,
      "vel": 91,
      "dur": 25
    },
    {
      "t": 1157.7,
      "ch": 1,
      "note": 40,
      "vel": 94,
      "dur": 25
    },
    {
      "t": 1157.7,
      "ch": 1,
      "note": 42,
      "vel": 64,
      "dur": 25
    },
    {
      "t": 1157.7,
      "ch": 1,
      "note": 36,
      "vel": 67,
      "dur": 25
    },
    {
      "t": 1157.7,
      "ch": 1,
      "note": 38,
      "vel": 91,
      "dur": 25
    },
    {
      "t": 1157.7,
      "ch": 1,
      "note": 40,
      "vel": 89,
      "dur": 25
    },
    {
      "t": 1157.7,
      "ch": 1,
      "note": 42,
      "vel": 72,
      "dur": 25
    },
    {
      "t": 1157.7,
      "ch": 1,
      "note": 36,
      "vel": 58,
      "dur": 25
    },
    {
      "t": 1157.7,
      "ch": 1,
      "note": 38,
      "vel": 82,
      "dur": 25
    },
    {
      "t": 1157.7,
      "ch": 1,
      "note": 40,
      "vel": 78,
      "dur": 25
    },
    {
      "t": 1157.7,
      "ch": 1,
      "note": 42,
      "vel": 83,
      "dur": 25
    },
    {
      "t": 1157.7,
      "ch": 1,
      "note": 36,
      "vel": 55,
      "dur": 25
    },
    {
      "t": 1157.7,
      "ch": 1,
      "note": 38,
      "vel": 74,
      "dur": 25
    },
    {
      "t": 1157.7,
      "ch": 1,
      "note": 40,
      "vel": 78,
      "dur": 25
    },
    {
      "t": 1157.7,
      "ch": 1,
      "note": 42,
      "vel": 77,
      "dur": 25
    },
    {
      "t": 1157.7,
      "ch": 1,
      "note": 36,
      "vel": 81,
      "dur": 25
    },
    {
      "t": 1157.7,
      "ch": 1,
      "note": 38,
      "vel": 64,
      "dur": 25
    },
    {
      "t": 1157.7,
      "ch": 1,
      "note": 40,
      "vel": 74,
      "dur": 25
    },
    {
      "t": 1157.7,
      "ch": 1,
      "note": 42,
      "vel": 83,
      "dur": 25
    },
    {
      "t": 1157.7,
      "ch": 1,
      "note": 36,
      "vel": 71,
      "dur": 25
    },
    {
      "t": 1157.7,
      "ch": 1,
      "note": 38,
      "vel": 57,
      "dur": 25
    },
    {
      "t": 1157.7,
      "ch": 1,
      "note": 40,
      "vel": 66,
      "dur": 25
    },
    {
      "t": 1157.7,
      "ch": 1,
      "note": 42,
      "vel": 88,
      "dur": 25
    },
    {
      "t": 1157.7,
      "ch": 1,
      "note": 36,
      "vel": 75,
      "dur": 25
    },
    {
      "t": 1157.7,
      "ch": 1,
      "note": 38,
      "vel": 75,
      "dur": 25
    },
    {
      "t": 1157.7,
      "ch": 1,
      "note": 40,
      "vel": 97,
      "dur": 25
    },
    {
      "t": 1157.7,
      "ch": 1,
      "note": 42,
      "vel": 64,
      "dur": 25
    },
    {
      "t": 1157.7,
      "ch": 1,
      "note": 36,
      "vel": 73,
      "dur": 25
    },
    {
      "t": 1157.7,
      "ch": 1,
      "note": 38,
      "vel": 68,
      "dur": 25
    },
    {
      "t": 1157.7,
      "ch": 1,
      "note": 40,
      "vel": 82,
      "dur": 25
    },
    {
      "t": 1157.7,
      "ch": 1,
      "note": 42,
      "vel": 82,
      "dur": 25
    },
    {
      "t": 1157.7,
      "ch": 1,
      "note": 36,
      "vel": 84,
      "dur": 25
    },
    {
      "t": 1157.7,
      "ch": 1,
      "note": 38,
      "vel": 65,
      "dur": 25
    },
    {
      "t": 1157.7,
      "ch": 1,
      "note": 40,
      "vel": 81,
      "dur": 25
    },
    {
      "t": 1157.7,
      "ch": 1,
      "note": 42,
      "vel": 66,
      "dur": 25
    },
    {
      "t": 1157.7,
      "ch": 1,
      "note": 36,
      "vel": 79,
      "dur": 25
    },
    {
      "t": 1157.7,
      "ch": 1,
      "note": 38,
      "vel": 82,
      "dur": 25
    },
    {
      "t": 1157.7,
      "ch": 1,
      "note": 40,
      "vel": 68,
      "dur": 25
    },
    {
      "t": 1157.7,
      "ch": 1,
      "note": 42,
      "vel": 78,
      "dur": 25
    },
    {
      "t": 1157.7,
      "ch": 1,
      "note": 36,
      "vel": 87,
      "dur": 25
    },
    {
      "t": 1157.7,
      "ch": 1,
      "note": 38,
      "vel": 57,
      "dur": 25
    },
    {
      "t": 1157.7,
      "ch": 1,
      "note": 40,
      "vel": 70,
      "dur": 25
    },
    {
      "t": 1157.7,
      "ch": 1,
      "note": 42,
      "vel": 60,
      "dur": 25
    },
    {
      "t": 1157.7,
      "ch": 1,
      "note": 36,
      "vel": 68,
      "dur": 25
    },
    {
      "t": 1157.7,
      "ch": 1,
      "note": 38,
      "vel": 67,
      "dur": 25
    },
    {
      "t": 1157.7,
      "ch": 1,
      "note": 40,
      "vel": 61,
      "dur": 25
    },
    {
      "t": 1157.7,
      "ch": 1,
      "note": 42,
      "vel": 75,
      "dur": 25
    },
    {
      "t": 1157.7,
      "ch": 1,
      "note": 36,
      "vel": 55,
      "dur": 25
    },
    {
      "t": 1157.7,
      "ch": 1,
      "note": 38,
      "vel": 77,
      "dur": 25
    },
    {
      "t": 1157.7,
      "ch": 1,
      "note": 40,
      "vel": 62,
      "dur": 25
    },
    {
      "t": 1157.7,
      "ch": 1,
      "note": 42,
      "vel": 64,
      "dur": 25
    },
    {
      "t": 1157.7,
      "ch": 1,
      "note": 36,
      "vel": 71,
      "dur": 25
    },
    {
      "t": 1157.7,
      "ch": 1,
      "note": 38,
      "vel": 58,
      "dur": 25
    },
    {
      "t": 1157.7,
      "ch": 1,
      "note": 40,
      "vel": 81,
      "dur": 25
    },
    {
      "t": 1157.7,
      "ch": 1,
      "note": 42,
      "vel": 95,
      "dur": 25
    },
    {
      "t": 1157.7,
      "ch": 1,
      "note": 36,
      "vel": 80,
      "dur": 25
    },
    {
      "t": 1157.7,
      "ch": 1,
      "note": 38,
      "vel": 88,
      "dur": 25
    },
    {
      "t": 1157.7,
      "ch": 1,
      "note": 40,
      "vel": 88,
      "dur": 25
    },
    {
      "t": 1157.7,
      "ch": 1,
      "note": 42,
      "vel": 90,
      "dur": 25
    },
    {
      "t": 1157.7,
      "ch": 1,
      "note": 36,
      "vel": 79,
      "dur": 25
    },
    {
      "t": 1157.7,
      "ch": 1,
      "note": 38,
      "vel": 77,
      "dur": 25
    },
    {
      "t": 1157.7,
      "ch": 1,
      "note": 40,
      "vel": 75,
      "dur": 25
    },
    {
      "t": 1157.7,
      "ch": 1,
      "note": 42,
      "vel": 97,
      "dur": 25
    },
    {
      "t": 1157.7,
      "ch": 1,
      "note": 36,
      "vel": 83,
      "dur": 25
    },
    {
      "t": 1157.7,
      "ch": 1,
      "note": 38,
      "vel": 68,
      "dur": 25
    },
    {
      "t": 1157.7,
      "ch": 1,
      "note": 40,
      "vel": 76,
      "dur": 25
    },
    {
      "t": 1157.7,
      "ch": 1,
      "note": 42,
      "vel": 66,
      "dur": 25
    },
    {
      "t": 1157.7,
      "ch": 1,
      "note": 36,
      "vel": 69,
      "dur": 25
    },
    {
      "t": 1157.7,
      "ch": 1,
      "note": 38,
      "vel": 72,
      "dur": 25
    },
    {
      "t": 1157.7,
      "ch": 1,
      "note": 40,
      "vel": 85,
      "dur": 25
    },
    {
      "t": 1157.7,
      "ch": 1,
      "note": 42,
      "vel": 76,
      "dur": 25
    },
    {
      "t": 1157.7,
      "ch": 1,
      "note": 36,
      "vel": 81,
      "dur": 25
    },
    {
      "t": 1157.7,
      "ch": 1,
      "note": 38,
      "vel": 87,
      "dur": 25
    },
    {
      "t": 1157.7,
      "ch": 1,
      "note": 40,
      "vel": 53,
      "dur": 25
    },
    {
      "t": 1157.7,
      "ch": 1,
      "note": 42,
      "vel": 64,
      "dur": 25
    },
    {
      "t": 1157.7,
      "ch": 1,
      "note": 36,
      "vel": 99,
      "dur": 25
    },
    {
      "t": 1157.7,
      "ch": 1,
      "note": 38,
      "vel": 75,
      "dur": 25
    },
    {
      "t": 1157.7,
      "ch": 1,
      "note": 40,
      "vel": 85,
      "dur": 25
    },
    {
      "t": 1157.7,
      "ch": 1,
      "note": 42,
      "vel": 91,
      "dur": 25
    },
    {
      "t": 1157.7,
      "ch": 1,
      "note": 36,
      "vel": 66,
      "dur": 25
    },
    {
      "t": 1157.7,
      "ch": 1,
      "note": 38,
      "vel": 63,
      "dur": 25
    },
    {
      "t": 1157.7,
      "ch": 1,
      "note": 40,
      "vel": 84,
      "dur": 25
    },
    {
      "t": 1157.7,
      "ch": 1,
      "note": 42,
      "vel": 83,
      "dur": 25
    },
    {
      "t": 1157.7,
      "ch": 1,
      "note": 36,
      "vel": 70,
      "dur": 25
    },
    {
      "t": 1157.7,
      "ch": 1,
      "note": 38,
      "vel": 84,
      "dur": 25
    },
    {
      "t": 1157.7,
      "ch": 1,
      "note": 40,
      "vel": 64,
      "dur": 25
    },
    {
      "t": 1157.7,
      "ch": 1,
      "note": 42,
      "vel": 70,
      "dur": 25
    },
    {
      "t": 1157.7,
      "ch": 1,
      "note": 36,
      "vel": 85,
      "dur": 25
    },
    {
      "t": 1157.7,
      "ch": 1,
      "note": 38,
      "vel": 67,
      "dur": 25
    },
    {
      "t": 1157.7,
      "ch": 1,
      "note": 40,
      "vel": 73,
      "dur": 25
    },
    {
      "t": 1157.7,
      "ch": 1,
      "note": 42,
      "vel": 75,
      "dur": 25
    },
    {
      "t": 1157.7,
      "ch": 1,
      "note": 36,
      "vel": 56,
      "dur": 25
    },
    {
      "t": 1157.7,
      "ch": 1,
      "note": 38,
      "vel": 86,
      "dur": 25
    },
    {
      "t": 1157.7,
      "ch": 1,
      "note": 40,
      "vel": 83,
      "dur": 25
    },
    {
      "t": 1157.7,
      "ch": 7,
      "note": 38,
      "vel": 59,
      "dur": 80
    },
    {
      "t": 1157.8,
      "ch": 1,
      "note": 42,
      "vel": 63,
      "dur": 25
    },
    {
      "t": 1157.8,
      "ch": 1,
      "note": 36,
      "vel": 66,
      "dur": 25
    },
    {
      "t": 1157.9,
      "ch": 1,
      "note": 38,
      "vel": 76,
      "dur": 25
    },
    {
      "t": 1158,
      "ch": 1,
      "note": 40,
      "vel": 82,
      "dur": 25
    },
    {
      "t": 1158.1,
      "ch": 1,
      "note": 42,
      "vel": 71,
      "dur": 25
    },
    {
      "t": 1158.2,
      "ch": 1,
      "note": 36,
      "vel": 72,
      "dur": 25
    },
    {
      "t": 1158.2,
      "ch": 7,
      "note": 48,
      "vel": 62,
      "dur": 80
    },
    {
      "t": 1158.2,
      "ch": 7,
      "note": 36,
      "vel": 65,
      "dur": 80
    },
    {
      "t": 1158.2,
      "ch": 1,
      "note": 38,
      "vel": 91,
      "dur": 25
    },
    {
      "t": 1158.3,
      "ch": 1,
      "note": 40,
      "vel": 96,
      "dur": 25
    },
    {
      "t": 1158.4,
      "ch": 1,
      "note": 42,
      "vel": 72,
      "dur": 25
    },
    {
      "t": 1158.5,
      "ch": 1,
      "note": 36,
      "vel": 78,
      "dur": 25
    },
    {
      "t": 1158.5,
      "ch": 7,
      "note": 45,
      "vel": 61,
      "dur": 80
    },
    {
      "t": 1158.5,
      "ch": 7,
      "note": 36,
      "vel": 57,
      "dur": 80
    },
    {
      "t": 1158.5,
      "ch": 7,
      "note": 38,
      "vel": 63,
      "dur": 80
    },
    {
      "t": 1158.5,
      "ch": 5,
      "note": 69,
      "vel": 19,
      "dur": 965
    },
    {
      "t": 1158.6,
      "ch": 1,
      "note": 38,
      "vel": 82,
      "dur": 25
    },
    {
      "t": 1158.7,
      "ch": 1,
      "note": 40,
      "vel": 83,
      "dur": 25
    },
    {
      "t": 1158.7,
      "ch": 1,
      "note": 42,
      "vel": 70,
      "dur": 25
    },
    {
      "t": 1158.8,
      "ch": 1,
      "note": 36,
      "vel": 59,
      "dur": 25
    },
    {
      "t": 1158.8,
      "ch": 7,
      "note": 48,
      "vel": 65,
      "dur": 80
    },
    {
      "t": 1158.8,
      "ch": 7,
      "note": 36,
      "vel": 75,
      "dur": 80
    },
    {
      "t": 1158.9,
      "ch": 1,
      "note": 38,
      "vel": 97,
      "dur": 25
    },
    {
      "t": 1159,
      "ch": 1,
      "note": 40,
      "vel": 68,
      "dur": 25
    },
    {
      "t": 1159,
      "ch": 5,
      "note": 62,
      "vel": 23,
      "dur": 962
    },
    {
      "t": 1159.1,
      "ch": 1,
      "note": 42,
      "vel": 61,
      "dur": 25
    },
    {
      "t": 1159.1,
      "ch": 1,
      "note": 36,
      "vel": 83,
      "dur": 25
    },
    {
      "t": 1159.2,
      "ch": 1,
      "note": 38,
      "vel": 81,
      "dur": 25
    },
    {
      "t": 1159.3,
      "ch": 1,
      "note": 40,
      "vel": 89,
      "dur": 25
    },
    {
      "t": 1159.3,
      "ch": 5,
      "note": 65,
      "vel": 19,
      "dur": 960
    },
    {
      "t": 1159.4,
      "ch": 1,
      "note": 42,
      "vel": 53,
      "dur": 25
    },
    {
      "t": 1159.5,
      "ch": 0,
      "note": 36,
      "vel": 112,
      "dur": 55
    },
    {
      "t": 1159.5,
      "ch": 1,
      "note": 36,
      "vel": 96,
      "dur": 25
    },
    {
      "t": 1159.5,
      "ch": 7,
      "note": 48,
      "vel": 75,
      "dur": 80
    },
    {
      "t": 1159.5,
      "ch": 7,
      "note": 45,
      "vel": 70,
      "dur": 80
    },
    {
      "t": 1159.5,
      "ch": 7,
      "note": 36,
      "vel": 79,
      "dur": 80
    },
    {
      "t": 1159.5,
      "ch": 7,
      "note": 38,
      "vel": 66,
      "dur": 80
    },
    {
      "t": 1159.6,
      "ch": 1,
      "note": 38,
      "vel": 75,
      "dur": 25
    },
    {
      "t": 1159.6,
      "ch": 1,
      "note": 40,
      "vel": 92,
      "dur": 25
    },
    {
      "t": 1159.7,
      "ch": 6,
      "note": 69,
      "vel": 8,
      "dur": 400
    },
    {
      "t": 1159.7,
      "ch": 1,
      "note": 42,
      "vel": 65,
      "dur": 25
    },
    {
      "t": 1159.8,
      "ch": 1,
      "note": 36,
      "vel": 78,
      "dur": 25
    },
    {
      "t": 1159.8,
      "ch": 7,
      "note": 36,
      "vel": 65,
      "dur": 80
    },
    {
      "t": 1159.9,
      "ch": 1,
      "note": 38,
      "vel": 65,
      "dur": 25
    },
    {
      "t": 1160,
      "ch": 1,
      "note": 40,
      "vel": 67,
      "dur": 25
    },
    {
      "t": 1160,
      "ch": 1,
      "note": 42,
      "vel": 85,
      "dur": 25
    },
    {
      "t": 1160.1,
      "ch": 1,
      "note": 36,
      "vel": 78,
      "dur": 25
    },
    {
      "t": 1160.1,
      "ch": 7,
      "note": 48,
      "vel": 73,
      "dur": 80
    },
    {
      "t": 1160.1,
      "ch": 7,
      "note": 36,
      "vel": 67,
      "dur": 80
    },
    {
      "t": 1160.2,
      "ch": 1,
      "note": 38,
      "vel": 83,
      "dur": 25
    },
    {
      "t": 1160.3,
      "ch": 1,
      "note": 40,
      "vel": 67,
      "dur": 25
    },
    {
      "t": 1160.3,
      "ch": 7,
      "note": 45,
      "vel": 65,
      "dur": 80
    },
    {
      "t": 1160.3,
      "ch": 7,
      "note": 38,
      "vel": 67,
      "dur": 80
    },
    {
      "t": 1160.4,
      "ch": 1,
      "note": 42,
      "vel": 78,
      "dur": 25
    },
    {
      "t": 1160.4,
      "ch": 1,
      "note": 36,
      "vel": 61,
      "dur": 25
    },
    {
      "t": 1160.5,
      "ch": 0,
      "note": 36,
      "vel": 81,
      "dur": 55
    },
    {
      "t": 1160.5,
      "ch": 5,
      "note": 65,
      "vel": 28,
      "dur": 954
    },
    {
      "t": 1160.5,
      "ch": 1,
      "note": 38,
      "vel": 59,
      "dur": 25
    },
    {
      "t": 1160.6,
      "ch": 1,
      "note": 40,
      "vel": 92,
      "dur": 25
    },
    {
      "t": 1160.7,
      "ch": 1,
      "note": 42,
      "vel": 81,
      "dur": 25
    },
    {
      "t": 1160.8,
      "ch": 1,
      "note": 36,
      "vel": 81,
      "dur": 25
    },
    {
      "t": 1160.8,
      "ch": 7,
      "note": 48,
      "vel": 69,
      "dur": 80
    },
    {
      "t": 1160.8,
      "ch": 7,
      "note": 36,
      "vel": 58,
      "dur": 80
    },
    {
      "t": 1160.8,
      "ch": 6,
      "note": 65,
      "vel": 20,
      "dur": 635
    },
    {
      "t": 1160.9,
      "ch": 1,
      "note": 38,
      "vel": 83,
      "dur": 25
    },
    {
      "t": 1160.9,
      "ch": 1,
      "note": 40,
      "vel": 90,
      "dur": 25
    },
    {
      "t": 1161,
      "ch": 1,
      "note": 42,
      "vel": 79,
      "dur": 25
    },
    {
      "t": 1161.1,
      "ch": 1,
      "note": 36,
      "vel": 71,
      "dur": 25
    },
    {
      "t": 1161.1,
      "ch": 7,
      "note": 45,
      "vel": 69,
      "dur": 80
    },
    {
      "t": 1161.1,
      "ch": 7,
      "note": 36,
      "vel": 63,
      "dur": 80
    },
    {
      "t": 1161.1,
      "ch": 7,
      "note": 38,
      "vel": 69,
      "dur": 80
    },
    {
      "t": 1161.2,
      "ch": 1,
      "note": 38,
      "vel": 81,
      "dur": 25
    },
    {
      "t": 1161.3,
      "ch": 1,
      "note": 40,
      "vel": 71,
      "dur": 25
    },
    {
      "t": 1161.3,
      "ch": 5,
      "note": 62,
      "vel": 21,
      "dur": 951
    },
    {
      "t": 1161.4,
      "ch": 1,
      "note": 42,
      "vel": 69,
      "dur": 25
    },
    {
      "t": 1161.4,
      "ch": 1,
      "note": 36,
      "vel": 94,
      "dur": 25
    },
    {
      "t": 1161.4,
      "ch": 7,
      "note": 48,
      "vel": 70,
      "dur": 80
    },
    {
      "t": 1161.4,
      "ch": 7,
      "note": 36,
      "vel": 66,
      "dur": 80
    },
    {
      "t": 1161.4,
      "ch": 6,
      "note": 65,
      "vel": 29,
      "dur": 633
    },
    {
      "t": 1161.5,
      "ch": 1,
      "note": 38,
      "vel": 72,
      "dur": 25
    },
    {
      "t": 1161.6,
      "ch": 1,
      "note": 40,
      "vel": 82,
      "dur": 25
    },
    {
      "t": 1161.7,
      "ch": 1,
      "note": 42,
      "vel": 80,
      "dur": 25
    },
    {
      "t": 1161.8,
      "ch": 1,
      "note": 36,
      "vel": 63,
      "dur": 25
    },
    {
      "t": 1161.8,
      "ch": 0,
      "note": 36,
      "vel": 73,
      "dur": 55
    },
    {
      "t": 1161.8,
      "ch": 1,
      "note": 38,
      "vel": 58,
      "dur": 25
    },
    {
      "t": 1161.9,
      "ch": 1,
      "note": 40,
      "vel": 77,
      "dur": 25
    },
    {
      "t": 1162,
      "ch": 1,
      "note": 42,
      "vel": 65,
      "dur": 25
    },
    {
      "t": 1162.1,
      "ch": 7,
      "note": 48,
      "vel": 78,
      "dur": 80
    },
    {
      "t": 1162.1,
      "ch": 7,
      "note": 45,
      "vel": 72,
      "dur": 80
    },
    {
      "t": 1162.1,
      "ch": 7,
      "note": 36,
      "vel": 67,
      "dur": 80
    },
    {
      "t": 1162.1,
      "ch": 7,
      "note": 38,
      "vel": 79,
      "dur": 80
    },
    {
      "t": 1162.4,
      "ch": 7,
      "note": 36,
      "vel": 54,
      "dur": 80
    },
    {
      "t": 1162.4,
      "ch": 5,
      "note": 60,
      "vel": 27,
      "dur": 948
    },
    {
      "t": 1162.7,
      "ch": 7,
      "note": 48,
      "vel": 69,
      "dur": 80
    },
    {
      "t": 1162.7,
      "ch": 7,
      "note": 36,
      "vel": 69,
      "dur": 80
    },
    {
      "t": 1162.8,
      "ch": 6,
      "note": 69,
      "vel": 15,
      "dur": 631
    },
    {
      "t": 1162.9,
      "ch": 7,
      "note": 45,
      "vel": 55,
      "dur": 80
    },
    {
      "t": 1162.9,
      "ch": 7,
      "note": 38,
      "vel": 67,
      "dur": 80
    },
    {
      "t": 1163.1,
      "ch": 6,
      "note": 64,
      "vel": 4,
      "dur": 631
    },
    {
      "t": 1163.3,
      "ch": 2,
      "note": 55,
      "vel": 55,
      "dur": 19565
    },
    {
      "t": 1163.3,
      "ch": 2,
      "note": 67,
      "vel": 39,
      "dur": 19565
    },
    {
      "t": 1163.4,
      "ch": 7,
      "note": 48,
      "vel": 64,
      "dur": 80
    },
    {
      "t": 1163.4,
      "ch": 7,
      "note": 36,
      "vel": 81,
      "dur": 80
    },
    {
      "t": 1163.4,
      "ch": 6,
      "note": 65,
      "vel": 22,
      "dur": 631
    },
    {
      "t": 1163.6,
      "ch": 5,
      "note": 65,
      "vel": 22,
      "dur": 947
    },
    {
      "t": 1163.7,
      "ch": 7,
      "note": 45,
      "vel": 57,
      "dur": 80
    },
    {
      "t": 1163.7,
      "ch": 7,
      "note": 36,
      "vel": 68,
      "dur": 80
    },
    {
      "t": 1163.7,
      "ch": 7,
      "note": 38,
      "vel": 56,
      "dur": 80
    },
    {
      "t": 1164,
      "ch": 7,
      "note": 48,
      "vel": 60,
      "dur": 80
    },
    {
      "t": 1164,
      "ch": 7,
      "note": 36,
      "vel": 77,
      "dur": 80
    },
    {
      "t": 1164,
      "ch": 5,
      "note": 71,
      "vel": 37,
      "dur": 947
    },
    {
      "t": 1164.7,
      "ch": 7,
      "note": 48,
      "vel": 69,
      "dur": 80
    },
    {
      "t": 1164.7,
      "ch": 7,
      "note": 45,
      "vel": 60,
      "dur": 80
    },
    {
      "t": 1164.7,
      "ch": 7,
      "note": 36,
      "vel": 61,
      "dur": 80
    },
    {
      "t": 1164.7,
      "ch": 7,
      "note": 38,
      "vel": 80,
      "dur": 80
    },
    {
      "t": 1164.9,
      "ch": 5,
      "note": 62,
      "vel": 8,
      "dur": 948
    },
    {
      "t": 1165,
      "ch": 7,
      "note": 36,
      "vel": 55,
      "dur": 80
    },
    {
      "t": 1165.3,
      "ch": 7,
      "note": 48,
      "vel": 67,
      "dur": 80
    },
    {
      "t": 1165.3,
      "ch": 7,
      "note": 36,
      "vel": 65,
      "dur": 80
    },
    {
      "t": 1165.5,
      "ch": 7,
      "note": 45,
      "vel": 53,
      "dur": 80
    },
    {
      "t": 1165.5,
      "ch": 7,
      "note": 38,
      "vel": 66,
      "dur": 80
    },
    {
      "t": 1165.9,
      "ch": 4,
      "note": 57,
      "vel": 40,
      "dur": 5167
    },
    {
      "t": 1165.9,
      "ch": 4,
      "note": 62,
      "vel": 39,
      "dur": 5167
    },
    {
      "t": 1166,
      "ch": 7,
      "note": 48,
      "vel": 79,
      "dur": 80
    },
    {
      "t": 1166,
      "ch": 7,
      "note": 36,
      "vel": 64,
      "dur": 80
    },
    {
      "t": 1166.3,
      "ch": 7,
      "note": 45,
      "vel": 61,
      "dur": 80
    },
    {
      "t": 1166.3,
      "ch": 7,
      "note": 36,
      "vel": 58,
      "dur": 80
    },
    {
      "t": 1166.3,
      "ch": 7,
      "note": 38,
      "vel": 62,
      "dur": 80
    },
    {
      "t": 1166.6,
      "ch": 7,
      "note": 48,
      "vel": 71,
      "dur": 80
    },
    {
      "t": 1166.6,
      "ch": 7,
      "note": 36,
      "vel": 61,
      "dur": 80
    },
    {
      "t": 1167.3,
      "ch": 7,
      "note": 48,
      "vel": 71,
      "dur": 80
    },
    {
      "t": 1167.3,
      "ch": 7,
      "note": 45,
      "vel": 69,
      "dur": 80
    },
    {
      "t": 1167.3,
      "ch": 7,
      "note": 36,
      "vel": 82,
      "dur": 80
    },
    {
      "t": 1167.3,
      "ch": 7,
      "note": 38,
      "vel": 67,
      "dur": 80
    },
    {
      "t": 1167.6,
      "ch": 7,
      "note": 36,
      "vel": 61,
      "dur": 80
    },
    {
      "t": 1167.6,
      "ch": 6,
      "note": 62,
      "vel": 18,
      "dur": 639
    },
    {
      "t": 1167.9,
      "ch": 7,
      "note": 48,
      "vel": 74,
      "dur": 80
    },
    {
      "t": 1167.9,
      "ch": 7,
      "note": 36,
      "vel": 64,
      "dur": 80
    },
    {
      "t": 1168.1,
      "ch": 7,
      "note": 45,
      "vel": 65,
      "dur": 80
    },
    {
      "t": 1168.1,
      "ch": 7,
      "note": 38,
      "vel": 64,
      "dur": 80
    },
    {
      "t": 1168.6,
      "ch": 7,
      "note": 48,
      "vel": 74,
      "dur": 80
    },
    {
      "t": 1168.6,
      "ch": 7,
      "note": 36,
      "vel": 80,
      "dur": 80
    },
    {
      "t": 1168.6,
      "ch": 5,
      "note": 60,
      "vel": 31,
      "dur": 965
    },
    {
      "t": 1168.8,
      "ch": 6,
      "note": 62,
      "vel": 9,
      "dur": 400
    },
    {
      "t": 1168.9,
      "ch": 7,
      "note": 45,
      "vel": 61,
      "dur": 80
    },
    {
      "t": 1168.9,
      "ch": 7,
      "note": 36,
      "vel": 57,
      "dur": 80
    },
    {
      "t": 1168.9,
      "ch": 7,
      "note": 38,
      "vel": 66,
      "dur": 80
    },
    {
      "t": 1169.2,
      "ch": 7,
      "note": 48,
      "vel": 75,
      "dur": 80
    },
    {
      "t": 1169.2,
      "ch": 7,
      "note": 36,
      "vel": 74,
      "dur": 80
    },
    {
      "t": 1169.3,
      "ch": 5,
      "note": 66,
      "vel": 23,
      "dur": 968
    },
    {
      "t": 1169.8,
      "ch": 5,
      "note": 71,
      "vel": 41,
      "dur": 971
    },
    {
      "t": 1169.9,
      "ch": 7,
      "note": 48,
      "vel": 71,
      "dur": 80
    },
    {
      "t": 1169.9,
      "ch": 7,
      "note": 45,
      "vel": 71,
      "dur": 80
    },
    {
      "t": 1169.9,
      "ch": 7,
      "note": 36,
      "vel": 59,
      "dur": 80
    },
    {
      "t": 1169.9,
      "ch": 7,
      "note": 38,
      "vel": 67,
      "dur": 80
    },
    {
      "t": 1170.2,
      "ch": 7,
      "note": 36,
      "vel": 59,
      "dur": 80
    },
    {
      "t": 1170.6,
      "ch": 7,
      "note": 48,
      "vel": 67,
      "dur": 80
    },
    {
      "t": 1170.6,
      "ch": 7,
      "note": 36,
      "vel": 76,
      "dur": 80
    },
    {
      "t": 1170.7,
      "ch": 7,
      "note": 45,
      "vel": 57,
      "dur": 80
    },
    {
      "t": 1170.7,
      "ch": 7,
      "note": 38,
      "vel": 69,
      "dur": 80
    },
    {
      "t": 1170.7,
      "ch": 5,
      "note": 62,
      "vel": 30,
      "dur": 976
    },
    {
      "t": 1170.9,
      "ch": 6,
      "note": 53,
      "vel": 15,
      "dur": 651
    },
    {
      "t": 1171,
      "ch": 6,
      "note": 65,
      "vel": 8,
      "dur": 400
    },
    {
      "t": 1171.1,
      "ch": 4,
      "note": 57,
      "vel": 38,
      "dur": 5167
    },
    {
      "t": 1171.1,
      "ch": 4,
      "note": 52,
      "vel": 37,
      "dur": 5167
    },
    {
      "t": 1171.1,
      "ch": 3,
      "note": 36,
      "vel": 39,
      "dur": 5217
    },
    {
      "t": 1171.2,
      "ch": 7,
      "note": 48,
      "vel": 71,
      "dur": 80
    },
    {
      "t": 1171.2,
      "ch": 7,
      "note": 36,
      "vel": 55,
      "dur": 80
    },
    {
      "t": 1171.5,
      "ch": 7,
      "note": 45,
      "vel": 68,
      "dur": 80
    },
    {
      "t": 1171.5,
      "ch": 7,
      "note": 36,
      "vel": 60,
      "dur": 80
    },
    {
      "t": 1171.5,
      "ch": 7,
      "note": 38,
      "vel": 62,
      "dur": 80
    },
    {
      "t": 1171.9,
      "ch": 7,
      "note": 48,
      "vel": 71,
      "dur": 80
    },
    {
      "t": 1171.9,
      "ch": 7,
      "note": 36,
      "vel": 73,
      "dur": 80
    },
    {
      "t": 1172.4,
      "ch": 5,
      "note": 60,
      "vel": 23,
      "dur": 983
    },
    {
      "t": 1172.5,
      "ch": 7,
      "note": 48,
      "vel": 73,
      "dur": 80
    },
    {
      "t": 1172.5,
      "ch": 7,
      "note": 45,
      "vel": 73,
      "dur": 80
    },
    {
      "t": 1172.5,
      "ch": 7,
      "note": 36,
      "vel": 61,
      "dur": 80
    },
    {
      "t": 1172.5,
      "ch": 7,
      "note": 38,
      "vel": 73,
      "dur": 80
    },
    {
      "t": 1172.9,
      "ch": 7,
      "note": 36,
      "vel": 60,
      "dur": 80
    },
    {
      "t": 1173.2,
      "ch": 7,
      "note": 48,
      "vel": 68,
      "dur": 80
    },
    {
      "t": 1173.2,
      "ch": 7,
      "note": 36,
      "vel": 58,
      "dur": 80
    },
    {
      "t": 1173.3,
      "ch": 7,
      "note": 45,
      "vel": 55,
      "dur": 80
    },
    {
      "t": 1173.3,
      "ch": 7,
      "note": 38,
      "vel": 50,
      "dur": 80
    },
    {
      "t": 1173.7,
      "ch": 2,
      "note": 55,
      "vel": 0,
      "dur": 0
    },
    {
      "t": 1173.7,
      "ch": 2,
      "note": 67,
      "vel": 0,
      "dur": 0
    },
    {
      "t": 1173.7,
      "ch": 2,
      "note": 48,
      "vel": 53,
      "dur": 19565
    },
    {
      "t": 1173.8,
      "ch": 7,
      "note": 48,
      "vel": 70,
      "dur": 80
    },
    {
      "t": 1173.8,
      "ch": 7,
      "note": 36,
      "vel": 72,
      "dur": 80
    },
    {
      "t": 1174.2,
      "ch": 7,
      "note": 45,
      "vel": 57,
      "dur": 80
    },
    {
      "t": 1174.2,
      "ch": 7,
      "note": 36,
      "vel": 56,
      "dur": 80
    },
    {
      "t": 1174.2,
      "ch": 7,
      "note": 38,
      "vel": 50,
      "dur": 80
    },
    {
      "t": 1174.5,
      "ch": 7,
      "note": 48,
      "vel": 73,
      "dur": 80
    },
    {
      "t": 1174.5,
      "ch": 7,
      "note": 36,
      "vel": 70,
      "dur": 80
    },
    {
      "t": 1174.5,
      "ch": 5,
      "note": 65,
      "vel": 11,
      "dur": 986
    },
    {
      "t": 1175,
      "ch": 6,
      "note": 72,
      "vel": 1,
      "dur": 400
    },
    {
      "t": 1175.1,
      "ch": 0,
      "note": 36,
      "vel": 127,
      "dur": 55
    },
    {
      "t": 1175.1,
      "ch": 7,
      "note": 48,
      "vel": 70,
      "dur": 80
    },
    {
      "t": 1175.1,
      "ch": 7,
      "note": 45,
      "vel": 63,
      "dur": 80
    },
    {
      "t": 1175.1,
      "ch": 7,
      "note": 36,
      "vel": 75,
      "dur": 80
    },
    {
      "t": 1175.1,
      "ch": 7,
      "note": 38,
      "vel": 66,
      "dur": 80
    },
    {
      "t": 1175.5,
      "ch": 7,
      "note": 36,
      "vel": 67,
      "dur": 80
    },
    {
      "t": 1175.5,
      "ch": 6,
      "note": 50,
      "vel": 19,
      "dur": 657
    },
    {
      "t": 1175.8,
      "ch": 7,
      "note": 48,
      "vel": 73,
      "dur": 80
    },
    {
      "t": 1175.8,
      "ch": 7,
      "note": 36,
      "vel": 70,
      "dur": 80
    },
    {
      "t": 1175.9,
      "ch": 7,
      "note": 45,
      "vel": 64,
      "dur": 80
    },
    {
      "t": 1175.9,
      "ch": 7,
      "note": 38,
      "vel": 57,
      "dur": 80
    },
    {
      "t": 1176.3,
      "ch": 4,
      "note": 55,
      "vel": 35,
      "dur": 5167
    },
    {
      "t": 1176.3,
      "ch": 4,
      "note": 59,
      "vel": 51,
      "dur": 5167
    },
    {
      "t": 1176.3,
      "ch": 3,
      "note": 38,
      "vel": 38,
      "dur": 5217
    },
    {
      "t": 1176.4,
      "ch": 0,
      "note": 36,
      "vel": 96,
      "dur": 55
    },
    {
      "t": 1176.4,
      "ch": 7,
      "note": 48,
      "vel": 73,
      "dur": 80
    },
    {
      "t": 1176.4,
      "ch": 7,
      "note": 36,
      "vel": 72,
      "dur": 80
    },
    {
      "t": 1176.4,
      "ch": 6,
      "note": 52,
      "vel": 20,
      "dur": 655
    },
    {
      "t": 1176.6,
      "ch": 6,
      "note": 69,
      "vel": 19,
      "dur": 655
    },
    {
      "t": 1176.7,
      "ch": 7,
      "note": 45,
      "vel": 63,
      "dur": 80
    },
    {
      "t": 1176.7,
      "ch": 7,
      "note": 36,
      "vel": 58,
      "dur": 80
    },
    {
      "t": 1176.7,
      "ch": 7,
      "note": 38,
      "vel": 53,
      "dur": 80
    },
    {
      "t": 1177.1,
      "ch": 7,
      "note": 48,
      "vel": 72,
      "dur": 80
    },
    {
      "t": 1177.1,
      "ch": 7,
      "note": 36,
      "vel": 82,
      "dur": 80
    },
    {
      "t": 1177.1,
      "ch": 5,
      "note": 71,
      "vel": 47,
      "dur": 980
    },
    {
      "t": 1177.3,
      "ch": 6,
      "note": 74,
      "vel": 1,
      "dur": 400
    },
    {
      "t": 1177.7,
      "ch": 7,
      "note": 48,
      "vel": 67,
      "dur": 80
    },
    {
      "t": 1177.7,
      "ch": 7,
      "note": 45,
      "vel": 66,
      "dur": 80
    },
    {
      "t": 1177.7,
      "ch": 7,
      "note": 36,
      "vel": 67,
      "dur": 80
    },
    {
      "t": 1177.7,
      "ch": 7,
      "note": 38,
      "vel": 68,
      "dur": 80
    },
    {
      "t": 1178.1,
      "ch": 7,
      "note": 36,
      "vel": 67,
      "dur": 80
    },
    {
      "t": 1178.2,
      "ch": 5,
      "note": 62,
      "vel": 26,
      "dur": 974
    },
    {
      "t": 1178.4,
      "ch": 7,
      "note": 48,
      "vel": 77,
      "dur": 80
    },
    {
      "t": 1178.4,
      "ch": 7,
      "note": 36,
      "vel": 69,
      "dur": 80
    },
    {
      "t": 1178.6,
      "ch": 7,
      "note": 45,
      "vel": 59,
      "dur": 80
    },
    {
      "t": 1178.6,
      "ch": 7,
      "note": 38,
      "vel": 63,
      "dur": 80
    },
    {
      "t": 1178.7,
      "ch": 6,
      "note": 67,
      "vel": 1,
      "dur": 400
    },
    {
      "t": 1179,
      "ch": 7,
      "note": 48,
      "vel": 60,
      "dur": 80
    },
    {
      "t": 1179,
      "ch": 7,
      "note": 36,
      "vel": 73,
      "dur": 80
    },
    {
      "t": 1179.4,
      "ch": 7,
      "note": 45,
      "vel": 60,
      "dur": 80
    },
    {
      "t": 1179.4,
      "ch": 7,
      "note": 36,
      "vel": 56,
      "dur": 80
    },
    {
      "t": 1179.4,
      "ch": 7,
      "note": 38,
      "vel": 61,
      "dur": 80
    },
    {
      "t": 1179.6,
      "ch": 5,
      "note": 60,
      "vel": 10,
      "dur": 966
    },
    {
      "t": 1179.7,
      "ch": 7,
      "note": 48,
      "vel": 62,
      "dur": 80
    },
    {
      "t": 1179.7,
      "ch": 7,
      "note": 36,
      "vel": 81,
      "dur": 80
    },
    {
      "t": 1179.9,
      "ch": 6,
      "note": 62,
      "vel": 6,
      "dur": 400
    },
    {
      "t": 1180,
      "ch": 5,
      "note": 65,
      "vel": 19,
      "dur": 963
    },
    {
      "t": 1180.3,
      "ch": 0,
      "note": 36,
      "vel": 116,
      "dur": 55
    },
    {
      "t": 1180.3,
      "ch": 7,
      "note": 48,
      "vel": 74,
      "dur": 80
    },
    {
      "t": 1180.3,
      "ch": 7,
      "note": 45,
      "vel": 73,
      "dur": 80
    },
    {
      "t": 1180.3,
      "ch": 7,
      "note": 36,
      "vel": 66,
      "dur": 80
    },
    {
      "t": 1180.3,
      "ch": 7,
      "note": 38,
      "vel": 82,
      "dur": 80
    },
    {
      "t": 1180.7,
      "ch": 7,
      "note": 36,
      "vel": 70,
      "dur": 80
    },
    {
      "t": 1181,
      "ch": 7,
      "note": 48,
      "vel": 68,
      "dur": 80
    },
    {
      "t": 1181,
      "ch": 7,
      "note": 36,
      "vel": 77,
      "dur": 80
    },
    {
      "t": 1181.2,
      "ch": 7,
      "note": 45,
      "vel": 61,
      "dur": 80
    },
    {
      "t": 1181.2,
      "ch": 7,
      "note": 38,
      "vel": 54,
      "dur": 80
    },
    {
      "t": 1181.5,
      "ch": 0,
      "note": 36,
      "vel": 86,
      "dur": 55
    },
    {
      "t": 1181.6,
      "ch": 4,
      "note": 57,
      "vel": 39,
      "dur": 5167
    },
    {
      "t": 1181.6,
      "ch": 4,
      "note": 60,
      "vel": 39,
      "dur": 5167
    },
    {
      "t": 1181.6,
      "ch": 3,
      "note": 38,
      "vel": 42,
      "dur": 5217
    },
    {
      "t": 1181.6,
      "ch": 7,
      "note": 48,
      "vel": 68,
      "dur": 80
    },
    {
      "t": 1181.6,
      "ch": 7,
      "note": 36,
      "vel": 61,
      "dur": 80
    },
    {
      "t": 1182,
      "ch": 7,
      "note": 45,
      "vel": 68,
      "dur": 80
    },
    {
      "t": 1182,
      "ch": 7,
      "note": 36,
      "vel": 57,
      "dur": 80
    },
    {
      "t": 1182,
      "ch": 7,
      "note": 38,
      "vel": 57,
      "dur": 80
    },
    {
      "t": 1182.3,
      "ch": 0,
      "note": 36,
      "vel": 87,
      "dur": 55
    },
    {
      "t": 1182.3,
      "ch": 7,
      "note": 48,
      "vel": 69,
      "dur": 80
    },
    {
      "t": 1182.3,
      "ch": 7,
      "note": 36,
      "vel": 75,
      "dur": 80
    },
    {
      "t": 1182.9,
      "ch": 7,
      "note": 48,
      "vel": 82,
      "dur": 80
    },
    {
      "t": 1182.9,
      "ch": 7,
      "note": 45,
      "vel": 69,
      "dur": 80
    },
    {
      "t": 1182.9,
      "ch": 7,
      "note": 36,
      "vel": 71,
      "dur": 80
    },
    {
      "t": 1182.9,
      "ch": 7,
      "note": 38,
      "vel": 80,
      "dur": 80
    },
    {
      "t": 1183.3,
      "ch": 7,
      "note": 36,
      "vel": 60,
      "dur": 80
    },
    {
      "t": 1183.6,
      "ch": 7,
      "note": 48,
      "vel": 68,
      "dur": 80
    },
    {
      "t": 1183.6,
      "ch": 7,
      "note": 36,
      "vel": 59,
      "dur": 80
    },
    {
      "t": 1183.8,
      "ch": 7,
      "note": 45,
      "vel": 58,
      "dur": 80
    },
    {
      "t": 1183.8,
      "ch": 7,
      "note": 38,
      "vel": 55,
      "dur": 80
    },
    {
      "t": 1184.2,
      "ch": 2,
      "note": 48,
      "vel": 0,
      "dur": 0
    },
    {
      "t": 1184.2,
      "ch": 2,
      "note": 50,
      "vel": 55,
      "dur": 19565
    },
    {
      "t": 1184.2,
      "ch": 2,
      "note": 62,
      "vel": 39,
      "dur": 19565
    },
    {
      "t": 1184.2,
      "ch": 7,
      "note": 48,
      "vel": 61,
      "dur": 80
    },
    {
      "t": 1184.2,
      "ch": 7,
      "note": 36,
      "vel": 90,
      "dur": 80
    },
    {
      "t": 1184.6,
      "ch": 7,
      "note": 45,
      "vel": 57,
      "dur": 80
    },
    {
      "t": 1184.6,
      "ch": 7,
      "note": 36,
      "vel": 53,
      "dur": 80
    },
    {
      "t": 1184.6,
      "ch": 7,
      "note": 38,
      "vel": 73,
      "dur": 80
    },
    {
      "t": 1184.9,
      "ch": 7,
      "note": 48,
      "vel": 78,
      "dur": 80
    },
    {
      "t": 1184.9,
      "ch": 7,
      "note": 36,
      "vel": 69,
      "dur": 80
    },
    {
      "t": 1185.1,
      "ch": 5,
      "note": 71,
      "vel": 34,
      "dur": 936
    },
    {
      "t": 1185.6,
      "ch": 0,
      "note": 36,
      "vel": 112,
      "dur": 55
    },
    {
      "t": 1185.6,
      "ch": 7,
      "note": 48,
      "vel": 69,
      "dur": 80
    },
    {
      "t": 1185.6,
      "ch": 7,
      "note": 45,
      "vel": 54,
      "dur": 80
    },
    {
      "t": 1185.6,
      "ch": 7,
      "note": 36,
      "vel": 62,
      "dur": 80
    },
    {
      "t": 1185.6,
      "ch": 7,
      "note": 38,
      "vel": 68,
      "dur": 80
    },
    {
      "t": 1185.6,
      "ch": 5,
      "note": 62,
      "vel": 27,
      "dur": 935
    },
    {
      "t": 1185.9,
      "ch": 7,
      "note": 36,
      "vel": 66,
      "dur": 80
    },
    {
      "t": 1186.2,
      "ch": 7,
      "note": 48,
      "vel": 73,
      "dur": 80
    },
    {
      "t": 1186.2,
      "ch": 7,
      "note": 36,
      "vel": 62,
      "dur": 80
    },
    {
      "t": 1186.4,
      "ch": 7,
      "note": 45,
      "vel": 71,
      "dur": 80
    },
    {
      "t": 1186.4,
      "ch": 7,
      "note": 38,
      "vel": 58,
      "dur": 80
    },
    {
      "t": 1186.8,
      "ch": 4,
      "note": 57,
      "vel": 44,
      "dur": 5167
    },
    {
      "t": 1186.8,
      "ch": 4,
      "note": 52,
      "vel": 44,
      "dur": 5167
    },
    {
      "t": 1186.8,
      "ch": 3,
      "note": 43,
      "vel": 45,
      "dur": 5217
    },
    {
      "t": 1186.9,
      "ch": 0,
      "note": 36,
      "vel": 89,
      "dur": 55
    },
    {
      "t": 1186.9,
      "ch": 7,
      "note": 48,
      "vel": 66,
      "dur": 80
    },
    {
      "t": 1186.9,
      "ch": 7,
      "note": 36,
      "vel": 73,
      "dur": 80
    },
    {
      "t": 1187.2,
      "ch": 7,
      "note": 45,
      "vel": 75,
      "dur": 80
    },
    {
      "t": 1187.2,
      "ch": 7,
      "note": 36,
      "vel": 63,
      "dur": 80
    },
    {
      "t": 1187.2,
      "ch": 7,
      "note": 38,
      "vel": 63,
      "dur": 80
    },
    {
      "t": 1187.5,
      "ch": 7,
      "note": 48,
      "vel": 70,
      "dur": 80
    },
    {
      "t": 1187.5,
      "ch": 7,
      "note": 36,
      "vel": 64,
      "dur": 80
    },
    {
      "t": 1187.7,
      "ch": 5,
      "note": 60,
      "vel": 26,
      "dur": 935
    },
    {
      "t": 1187.8,
      "ch": 0,
      "note": 36,
      "vel": 77,
      "dur": 55
    },
    {
      "t": 1187.9,
      "ch": 5,
      "note": 65,
      "vel": 18,
      "dur": 936
    },
    {
      "t": 1188.2,
      "ch": 0,
      "note": 36,
      "vel": 115,
      "dur": 55
    },
    {
      "t": 1188.2,
      "ch": 7,
      "note": 48,
      "vel": 65,
      "dur": 80
    },
    {
      "t": 1188.2,
      "ch": 7,
      "note": 45,
      "vel": 75,
      "dur": 80
    },
    {
      "t": 1188.2,
      "ch": 7,
      "note": 36,
      "vel": 67,
      "dur": 80
    },
    {
      "t": 1188.2,
      "ch": 7,
      "note": 38,
      "vel": 70,
      "dur": 80
    },
    {
      "t": 1188.3,
      "ch": 5,
      "note": 71,
      "vel": 40,
      "dur": 937
    },
    {
      "t": 1188.5,
      "ch": 7,
      "note": 36,
      "vel": 65,
      "dur": 80
    },
    {
      "t": 1188.6,
      "ch": 6,
      "note": 74,
      "vel": 1,
      "dur": 400
    },
    {
      "t": 1188.8,
      "ch": 7,
      "note": 48,
      "vel": 77,
      "dur": 80
    },
    {
      "t": 1188.8,
      "ch": 7,
      "note": 36,
      "vel": 84,
      "dur": 80
    },
    {
      "t": 1189,
      "ch": 7,
      "note": 45,
      "vel": 68,
      "dur": 80
    },
    {
      "t": 1189,
      "ch": 7,
      "note": 38,
      "vel": 62,
      "dur": 80
    },
    {
      "t": 1189,
      "ch": 6,
      "note": 74,
      "vel": 32,
      "dur": 626
    },
    {
      "t": 1189.5,
      "ch": 0,
      "note": 36,
      "vel": 85,
      "dur": 55
    },
    {
      "t": 1189.5,
      "ch": 7,
      "note": 48,
      "vel": 70,
      "dur": 80
    },
    {
      "t": 1189.5,
      "ch": 7,
      "note": 36,
      "vel": 73,
      "dur": 80
    },
    {
      "t": 1189.6,
      "ch": 6,
      "note": 74,
      "vel": 6,
      "dur": 628
    },
    {
      "t": 1189.8,
      "ch": 7,
      "note": 45,
      "vel": 59,
      "dur": 80
    },
    {
      "t": 1189.8,
      "ch": 7,
      "note": 36,
      "vel": 66,
      "dur": 80
    },
    {
      "t": 1189.8,
      "ch": 7,
      "note": 38,
      "vel": 72,
      "dur": 80
    },
    {
      "t": 1189.8,
      "ch": 5,
      "note": 72,
      "vel": 17,
      "dur": 943
    },
    {
      "t": 1190.1,
      "ch": 7,
      "note": 48,
      "vel": 73,
      "dur": 80
    },
    {
      "t": 1190.1,
      "ch": 7,
      "note": 36,
      "vel": 63,
      "dur": 80
    },
    {
      "t": 1190.3,
      "ch": 6,
      "note": 74,
      "vel": 1,
      "dur": 400
    },
    {
      "t": 1190.3,
      "ch": 5,
      "note": 71,
      "vel": 41,
      "dur": 945
    },
    {
      "t": 1190.5,
      "ch": 0,
      "note": 36,
      "vel": 80,
      "dur": 55
    },
    {
      "t": 1190.8,
      "ch": 0,
      "note": 36,
      "vel": 114,
      "dur": 55
    },
    {
      "t": 1190.8,
      "ch": 7,
      "note": 48,
      "vel": 78,
      "dur": 80
    },
    {
      "t": 1190.8,
      "ch": 7,
      "note": 45,
      "vel": 66,
      "dur": 80
    },
    {
      "t": 1190.8,
      "ch": 7,
      "note": 36,
      "vel": 62,
      "dur": 80
    },
    {
      "t": 1190.8,
      "ch": 7,
      "note": 38,
      "vel": 68,
      "dur": 80
    },
    {
      "t": 1191.1,
      "ch": 7,
      "note": 36,
      "vel": 56,
      "dur": 80
    },
    {
      "t": 1191.3,
      "ch": 5,
      "note": 71,
      "vel": 43,
      "dur": 950
    },
    {
      "t": 1191.4,
      "ch": 7,
      "note": 48,
      "vel": 64,
      "dur": 80
    },
    {
      "t": 1191.4,
      "ch": 7,
      "note": 36,
      "vel": 73,
      "dur": 80
    },
    {
      "t": 1191.6,
      "ch": 7,
      "note": 45,
      "vel": 71,
      "dur": 80
    },
    {
      "t": 1191.6,
      "ch": 7,
      "note": 38,
      "vel": 66,
      "dur": 80
    },
    {
      "t": 1191.6,
      "ch": 5,
      "note": 67,
      "vel": 12,
      "dur": 952
    },
    {
      "t": 1191.8,
      "ch": 6,
      "note": 72,
      "vel": 5,
      "dur": 400
    },
    {
      "t": 1192,
      "ch": 4,
      "note": 57,
      "vel": 42,
      "dur": 5167
    },
    {
      "t": 1192,
      "ch": 4,
      "note": 62,
      "vel": 39,
      "dur": 5167
    },
    {
      "t": 1192,
      "ch": 3,
      "note": 45,
      "vel": 43,
      "dur": 5217
    },
    {
      "t": 1192.1,
      "ch": 0,
      "note": 36,
      "vel": 91,
      "dur": 55
    },
    {
      "t": 1192.1,
      "ch": 7,
      "note": 48,
      "vel": 72,
      "dur": 80
    },
    {
      "t": 1192.1,
      "ch": 7,
      "note": 36,
      "vel": 69,
      "dur": 80
    },
    {
      "t": 1192.1,
      "ch": 6,
      "note": 74,
      "vel": 20,
      "dur": 637
    },
    {
      "t": 1192.4,
      "ch": 7,
      "note": 45,
      "vel": 57,
      "dur": 80
    },
    {
      "t": 1192.4,
      "ch": 7,
      "note": 36,
      "vel": 59,
      "dur": 80
    },
    {
      "t": 1192.4,
      "ch": 7,
      "note": 38,
      "vel": 57,
      "dur": 80
    },
    {
      "t": 1192.7,
      "ch": 7,
      "note": 48,
      "vel": 63,
      "dur": 80
    },
    {
      "t": 1192.7,
      "ch": 7,
      "note": 36,
      "vel": 62,
      "dur": 80
    },
    {
      "t": 1193.1,
      "ch": 0,
      "note": 36,
      "vel": 77,
      "dur": 55
    },
    {
      "t": 1193.4,
      "ch": 0,
      "note": 36,
      "vel": 108,
      "dur": 55
    },
    {
      "t": 1193.4,
      "ch": 7,
      "note": 48,
      "vel": 72,
      "dur": 80
    },
    {
      "t": 1193.4,
      "ch": 7,
      "note": 45,
      "vel": 67,
      "dur": 80
    },
    {
      "t": 1193.4,
      "ch": 7,
      "note": 36,
      "vel": 79,
      "dur": 80
    },
    {
      "t": 1193.4,
      "ch": 7,
      "note": 38,
      "vel": 74,
      "dur": 80
    },
    {
      "t": 1193.6,
      "ch": 5,
      "note": 72,
      "vel": 17,
      "dur": 963
    },
    {
      "t": 1193.7,
      "ch": 7,
      "note": 36,
      "vel": 68,
      "dur": 80
    },
    {
      "t": 1194,
      "ch": 7,
      "note": 48,
      "vel": 79,
      "dur": 80
    },
    {
      "t": 1194,
      "ch": 7,
      "note": 36,
      "vel": 71,
      "dur": 80
    },
    {
      "t": 1194.2,
      "ch": 7,
      "note": 45,
      "vel": 68,
      "dur": 80
    },
    {
      "t": 1194.2,
      "ch": 7,
      "note": 38,
      "vel": 61,
      "dur": 80
    },
    {
      "t": 1194.2,
      "ch": 5,
      "note": 71,
      "vel": 38,
      "dur": 966
    },
    {
      "t": 1194.5,
      "ch": 6,
      "note": 67,
      "vel": 18,
      "dur": 645
    },
    {
      "t": 1194.6,
      "ch": 2,
      "note": 50,
      "vel": 54,
      "dur": 19565
    },
    {
      "t": 1194.6,
      "ch": 2,
      "note": 62,
      "vel": 38,
      "dur": 19565
    },
    {
      "t": 1194.7,
      "ch": 0,
      "note": 36,
      "vel": 94,
      "dur": 55
    },
    {
      "t": 1194.7,
      "ch": 7,
      "note": 48,
      "vel": 61,
      "dur": 80
    },
    {
      "t": 1194.7,
      "ch": 7,
      "note": 36,
      "vel": 75,
      "dur": 80
    },
    {
      "t": 1195,
      "ch": 7,
      "note": 45,
      "vel": 66,
      "dur": 80
    },
    {
      "t": 1195,
      "ch": 7,
      "note": 36,
      "vel": 68,
      "dur": 80
    },
    {
      "t": 1195,
      "ch": 7,
      "note": 38,
      "vel": 61,
      "dur": 80
    },
    {
      "t": 1195.3,
      "ch": 7,
      "note": 48,
      "vel": 67,
      "dur": 80
    },
    {
      "t": 1195.3,
      "ch": 7,
      "note": 36,
      "vel": 58,
      "dur": 80
    },
    {
      "t": 1195.7,
      "ch": 0,
      "note": 36,
      "vel": 79,
      "dur": 55
    },
    {
      "t": 1196,
      "ch": 0,
      "note": 36,
      "vel": 107,
      "dur": 55
    },
    {
      "t": 1196,
      "ch": 7,
      "note": 48,
      "vel": 86,
      "dur": 80
    },
    {
      "t": 1196,
      "ch": 7,
      "note": 45,
      "vel": 62,
      "dur": 80
    },
    {
      "t": 1196,
      "ch": 7,
      "note": 36,
      "vel": 68,
      "dur": 80
    },
    {
      "t": 1196,
      "ch": 7,
      "note": 38,
      "vel": 77,
      "dur": 80
    },
    {
      "t": 1196.3,
      "ch": 7,
      "note": 36,
      "vel": 68,
      "dur": 80
    },
    {
      "t": 1196.6,
      "ch": 7,
      "note": 48,
      "vel": 56,
      "dur": 80
    },
    {
      "t": 1196.6,
      "ch": 7,
      "note": 36,
      "vel": 68,
      "dur": 80
    },
    {
      "t": 1196.8,
      "ch": 7,
      "note": 45,
      "vel": 58,
      "dur": 80
    },
    {
      "t": 1196.8,
      "ch": 7,
      "note": 38,
      "vel": 69,
      "dur": 80
    },
    {
      "t": 1197.2,
      "ch": 4,
      "note": 55,
      "vel": 38,
      "dur": 5167
    },
    {
      "t": 1197.2,
      "ch": 4,
      "note": 63,
      "vel": 36,
      "dur": 2608
    },
    {
      "t": 1197.2,
      "ch": 4,
      "note": 62,
      "vel": 40,
      "dur": 2558
    },
    {
      "t": 1197.2,
      "ch": 3,
      "note": 38,
      "vel": 40,
      "dur": 5217
    },
    {
      "t": 1197.3,
      "ch": 0,
      "note": 36,
      "vel": 93,
      "dur": 55
    },
    {
      "t": 1197.3,
      "ch": 7,
      "note": 48,
      "vel": 73,
      "dur": 80
    },
    {
      "t": 1197.3,
      "ch": 7,
      "note": 36,
      "vel": 74,
      "dur": 80
    },
    {
      "t": 1197.6,
      "ch": 7,
      "note": 45,
      "vel": 61,
      "dur": 80
    },
    {
      "t": 1197.6,
      "ch": 7,
      "note": 36,
      "vel": 65,
      "dur": 80
    },
    {
      "t": 1197.6,
      "ch": 7,
      "note": 38,
      "vel": 58,
      "dur": 80
    },
    {
      "t": 1197.9,
      "ch": 7,
      "note": 48,
      "vel": 59,
      "dur": 80
    },
    {
      "t": 1197.9,
      "ch": 7,
      "note": 36,
      "vel": 63,
      "dur": 80
    },
    {
      "t": 1198.1,
      "ch": 5,
      "note": 71,
      "vel": 29,
      "dur": 973
    },
    {
      "t": 1198.3,
      "ch": 0,
      "note": 36,
      "vel": 81,
      "dur": 55
    },
    {
      "t": 1198.4,
      "ch": 5,
      "note": 67,
      "vel": 23,
      "dur": 972
    },
    {
      "t": 1198.6,
      "ch": 0,
      "note": 36,
      "vel": 109,
      "dur": 55
    },
    {
      "t": 1198.6,
      "ch": 7,
      "note": 48,
      "vel": 71,
      "dur": 80
    },
    {
      "t": 1198.6,
      "ch": 7,
      "note": 45,
      "vel": 82,
      "dur": 80
    },
    {
      "t": 1198.6,
      "ch": 7,
      "note": 36,
      "vel": 70,
      "dur": 80
    },
    {
      "t": 1198.6,
      "ch": 7,
      "note": 38,
      "vel": 76,
      "dur": 80
    },
    {
      "t": 1198.7,
      "ch": 6,
      "note": 74,
      "vel": 1,
      "dur": 400
    },
    {
      "t": 1198.9,
      "ch": 7,
      "note": 36,
      "vel": 51,
      "dur": 80
    },
    {
      "t": 1199.2,
      "ch": 7,
      "note": 48,
      "vel": 64,
      "dur": 80
    },
    {
      "t": 1199.2,
      "ch": 7,
      "note": 36,
      "vel": 71,
      "dur": 80
    },
    {
      "t": 1199.4,
      "ch": 7,
      "note": 45,
      "vel": 61,
      "dur": 80
    },
    {
      "t": 1199.4,
      "ch": 7,
      "note": 38,
      "vel": 69,
      "dur": 80
    },
    {
      "t": 1199.4,
      "ch": 6,
      "note": 74,
      "vel": 25,
      "dur": 647
    },
    {
      "t": 1199.8,
      "ch": 5,
      "note": 72,
      "vel": 17,
      "dur": 969
    },
    {
      "t": 1199.9,
      "ch": 0,
      "note": 36,
      "vel": 87,
      "dur": 55
    },
    {
      "t": 1199.9,
      "ch": 7,
      "note": 48,
      "vel": 60,
      "dur": 80
    },
    {
      "t": 1199.9,
      "ch": 7,
      "note": 36,
      "vel": 69,
      "dur": 80
    },
    {
      "t": 1199.9,
      "ch": 5,
      "note": 71,
      "vel": 26,
      "dur": 968
    },
    {
      "t": 1200.2,
      "ch": 6,
      "note": 74,
      "vel": 20,
      "dur": 400
    },
    {
      "t": 1200.2,
      "ch": 7,
      "note": 45,
      "vel": 68,
      "dur": 80
    },
    {
      "t": 1200.2,
      "ch": 7,
      "note": 36,
      "vel": 51,
      "dur": 80
    },
    {
      "t": 1200.2,
      "ch": 7,
      "note": 38,
      "vel": 58,
      "dur": 80
    },
    {
      "t": 1200.6,
      "ch": 7,
      "note": 48,
      "vel": 73,
      "dur": 80
    },
    {
      "t": 1200.6,
      "ch": 7,
      "note": 36,
      "vel": 72,
      "dur": 80
    },
    {
      "t": 1200.9,
      "ch": 0,
      "note": 36,
      "vel": 88,
      "dur": 55
    },
    {
      "t": 1201.2,
      "ch": 0,
      "note": 36,
      "vel": 114,
      "dur": 55
    },
    {
      "t": 1201.2,
      "ch": 7,
      "note": 48,
      "vel": 72,
      "dur": 80
    },
    {
      "t": 1201.2,
      "ch": 7,
      "note": 45,
      "vel": 67,
      "dur": 80
    },
    {
      "t": 1201.2,
      "ch": 7,
      "note": 36,
      "vel": 76,
      "dur": 80
    },
    {
      "t": 1201.2,
      "ch": 7,
      "note": 38,
      "vel": 68,
      "dur": 80
    },
    {
      "t": 1201.5,
      "ch": 7,
      "note": 36,
      "vel": 59,
      "dur": 80
    },
    {
      "t": 1201.7,
      "ch": 6,
      "note": 74,
      "vel": 4,
      "dur": 639
    },
    {
      "t": 1201.9,
      "ch": 7,
      "note": 48,
      "vel": 69,
      "dur": 80
    },
    {
      "t": 1201.9,
      "ch": 7,
      "note": 36,
      "vel": 66,
      "dur": 80
    },
    {
      "t": 1202,
      "ch": 7,
      "note": 45,
      "vel": 52,
      "dur": 80
    },
    {
      "t": 1202,
      "ch": 7,
      "note": 38,
      "vel": 67,
      "dur": 80
    },
    {
      "t": 1202.2,
      "ch": 6,
      "note": 69,
      "vel": 19,
      "dur": 637
    },
    {
      "t": 1202.4,
      "ch": 4,
      "note": 57,
      "vel": 42,
      "dur": 5167
    },
    {
      "t": 1202.4,
      "ch": 4,
      "note": 62,
      "vel": 41,
      "dur": 5167
    },
    {
      "t": 1202.4,
      "ch": 3,
      "note": 38,
      "vel": 44,
      "dur": 5217
    },
    {
      "t": 1202.5,
      "ch": 0,
      "note": 36,
      "vel": 99,
      "dur": 55
    },
    {
      "t": 1202.5,
      "ch": 7,
      "note": 48,
      "vel": 74,
      "dur": 80
    },
    {
      "t": 1202.5,
      "ch": 7,
      "note": 36,
      "vel": 76,
      "dur": 80
    },
    {
      "t": 1202.5,
      "ch": 6,
      "note": 74,
      "vel": 22,
      "dur": 636
    },
    {
      "t": 1202.7,
      "ch": 5,
      "note": 71,
      "vel": 18,
      "dur": 952
    },
    {
      "t": 1202.8,
      "ch": 7,
      "note": 45,
      "vel": 61,
      "dur": 80
    },
    {
      "t": 1202.8,
      "ch": 7,
      "note": 36,
      "vel": 59,
      "dur": 80
    },
    {
      "t": 1202.8,
      "ch": 7,
      "note": 38,
      "vel": 57,
      "dur": 80
    },
    {
      "t": 1203.1,
      "ch": 6,
      "note": 74,
      "vel": 10,
      "dur": 400
    },
    {
      "t": 1203.2,
      "ch": 7,
      "note": 48,
      "vel": 74,
      "dur": 80
    },
    {
      "t": 1203.2,
      "ch": 7,
      "note": 36,
      "vel": 72,
      "dur": 80
    },
    {
      "t": 1203.5,
      "ch": 0,
      "note": 36,
      "vel": 81,
      "dur": 55
    },
    {
      "t": 1203.8,
      "ch": 1,
      "note": 36,
      "vel": 96,
      "dur": 25
    },
    {
      "t": 1203.8,
      "ch": 1,
      "note": 38,
      "vel": 84,
      "dur": 25
    },
    {
      "t": 1203.8,
      "ch": 1,
      "note": 40,
      "vel": 91,
      "dur": 25
    },
    {
      "t": 1203.8,
      "ch": 1,
      "note": 42,
      "vel": 86,
      "dur": 25
    },
    {
      "t": 1203.8,
      "ch": 1,
      "note": 36,
      "vel": 70,
      "dur": 25
    },
    {
      "t": 1203.8,
      "ch": 1,
      "note": 38,
      "vel": 76,
      "dur": 25
    },
    {
      "t": 1203.8,
      "ch": 1,
      "note": 40,
      "vel": 88,
      "dur": 25
    },
    {
      "t": 1203.8,
      "ch": 1,
      "note": 42,
      "vel": 66,
      "dur": 25
    },
    {
      "t": 1203.8,
      "ch": 1,
      "note": 36,
      "vel": 85,
      "dur": 25
    },
    {
      "t": 1203.8,
      "ch": 1,
      "note": 38,
      "vel": 87,
      "dur": 25
    },
    {
      "t": 1203.8,
      "ch": 1,
      "note": 40,
      "vel": 87,
      "dur": 25
    },
    {
      "t": 1203.8,
      "ch": 1,
      "note": 42,
      "vel": 64,
      "dur": 25
    },
    {
      "t": 1203.8,
      "ch": 1,
      "note": 36,
      "vel": 53,
      "dur": 25
    },
    {
      "t": 1203.8,
      "ch": 1,
      "note": 38,
      "vel": 89,
      "dur": 25
    },
    {
      "t": 1203.8,
      "ch": 1,
      "note": 40,
      "vel": 67,
      "dur": 25
    },
    {
      "t": 1203.8,
      "ch": 1,
      "note": 42,
      "vel": 69,
      "dur": 25
    },
    {
      "t": 1203.8,
      "ch": 1,
      "note": 36,
      "vel": 87,
      "dur": 25
    },
    {
      "t": 1203.8,
      "ch": 1,
      "note": 38,
      "vel": 87,
      "dur": 25
    },
    {
      "t": 1203.8,
      "ch": 1,
      "note": 40,
      "vel": 60,
      "dur": 25
    },
    {
      "t": 1203.8,
      "ch": 1,
      "note": 42,
      "vel": 96,
      "dur": 25
    },
    {
      "t": 1203.8,
      "ch": 1,
      "note": 36,
      "vel": 68,
      "dur": 25
    },
    {
      "t": 1203.8,
      "ch": 1,
      "note": 38,
      "vel": 64,
      "dur": 25
    },
    {
      "t": 1203.8,
      "ch": 1,
      "note": 40,
      "vel": 95,
      "dur": 25
    },
    {
      "t": 1203.8,
      "ch": 1,
      "note": 42,
      "vel": 92,
      "dur": 25
    },
    {
      "t": 1203.8,
      "ch": 1,
      "note": 36,
      "vel": 60,
      "dur": 25
    },
    {
      "t": 1203.8,
      "ch": 1,
      "note": 38,
      "vel": 90,
      "dur": 25
    },
    {
      "t": 1203.8,
      "ch": 1,
      "note": 40,
      "vel": 79,
      "dur": 25
    },
    {
      "t": 1203.8,
      "ch": 1,
      "note": 42,
      "vel": 74,
      "dur": 25
    },
    {
      "t": 1203.8,
      "ch": 1,
      "note": 36,
      "vel": 82,
      "dur": 25
    },
    {
      "t": 1203.8,
      "ch": 1,
      "note": 38,
      "vel": 90,
      "dur": 25
    },
    {
      "t": 1203.8,
      "ch": 1,
      "note": 40,
      "vel": 90,
      "dur": 25
    },
    {
      "t": 1203.8,
      "ch": 1,
      "note": 42,
      "vel": 78,
      "dur": 25
    },
    {
      "t": 1203.8,
      "ch": 1,
      "note": 36,
      "vel": 74,
      "dur": 25
    },
    {
      "t": 1203.8,
      "ch": 1,
      "note": 38,
      "vel": 79,
      "dur": 25
    },
    {
      "t": 1203.8,
      "ch": 1,
      "note": 40,
      "vel": 81,
      "dur": 25
    },
    {
      "t": 1203.8,
      "ch": 1,
      "note": 42,
      "vel": 65,
      "dur": 25
    },
    {
      "t": 1203.8,
      "ch": 1,
      "note": 36,
      "vel": 80,
      "dur": 25
    },
    {
      "t": 1203.8,
      "ch": 1,
      "note": 38,
      "vel": 88,
      "dur": 25
    },
    {
      "t": 1203.8,
      "ch": 1,
      "note": 40,
      "vel": 56,
      "dur": 25
    },
    {
      "t": 1203.8,
      "ch": 1,
      "note": 42,
      "vel": 86,
      "dur": 25
    },
    {
      "t": 1203.8,
      "ch": 1,
      "note": 36,
      "vel": 81,
      "dur": 25
    },
    {
      "t": 1203.8,
      "ch": 1,
      "note": 38,
      "vel": 82,
      "dur": 25
    },
    {
      "t": 1203.8,
      "ch": 1,
      "note": 40,
      "vel": 97,
      "dur": 25
    },
    {
      "t": 1203.8,
      "ch": 1,
      "note": 42,
      "vel": 97,
      "dur": 25
    },
    {
      "t": 1203.8,
      "ch": 1,
      "note": 36,
      "vel": 92,
      "dur": 25
    },
    {
      "t": 1203.8,
      "ch": 1,
      "note": 38,
      "vel": 89,
      "dur": 25
    },
    {
      "t": 1203.8,
      "ch": 1,
      "note": 40,
      "vel": 102,
      "dur": 25
    },
    {
      "t": 1203.8,
      "ch": 1,
      "note": 42,
      "vel": 64,
      "dur": 25
    },
    {
      "t": 1203.8,
      "ch": 1,
      "note": 36,
      "vel": 88,
      "dur": 25
    },
    {
      "t": 1203.8,
      "ch": 1,
      "note": 38,
      "vel": 77,
      "dur": 25
    },
    {
      "t": 1203.8,
      "ch": 1,
      "note": 40,
      "vel": 112,
      "dur": 25
    },
    {
      "t": 1203.8,
      "ch": 1,
      "note": 42,
      "vel": 70,
      "dur": 25
    },
    {
      "t": 1203.8,
      "ch": 1,
      "note": 36,
      "vel": 84,
      "dur": 25
    },
    {
      "t": 1203.8,
      "ch": 1,
      "note": 38,
      "vel": 53,
      "dur": 25
    },
    {
      "t": 1203.8,
      "ch": 1,
      "note": 40,
      "vel": 102,
      "dur": 25
    },
    {
      "t": 1203.8,
      "ch": 1,
      "note": 42,
      "vel": 99,
      "dur": 25
    },
    {
      "t": 1203.8,
      "ch": 1,
      "note": 36,
      "vel": 97,
      "dur": 25
    },
    {
      "t": 1203.8,
      "ch": 1,
      "note": 38,
      "vel": 76,
      "dur": 25
    },
    {
      "t": 1203.8,
      "ch": 1,
      "note": 40,
      "vel": 79,
      "dur": 25
    },
    {
      "t": 1203.8,
      "ch": 1,
      "note": 42,
      "vel": 90,
      "dur": 25
    },
    {
      "t": 1203.8,
      "ch": 1,
      "note": 36,
      "vel": 100,
      "dur": 25
    },
    {
      "t": 1203.8,
      "ch": 1,
      "note": 38,
      "vel": 98,
      "dur": 25
    },
    {
      "t": 1203.8,
      "ch": 1,
      "note": 40,
      "vel": 90,
      "dur": 25
    },
    {
      "t": 1203.8,
      "ch": 1,
      "note": 42,
      "vel": 101,
      "dur": 25
    },
    {
      "t": 1203.8,
      "ch": 1,
      "note": 36,
      "vel": 85,
      "dur": 25
    },
    {
      "t": 1203.8,
      "ch": 1,
      "note": 38,
      "vel": 90,
      "dur": 25
    },
    {
      "t": 1203.8,
      "ch": 1,
      "note": 40,
      "vel": 89,
      "dur": 25
    },
    {
      "t": 1203.8,
      "ch": 1,
      "note": 42,
      "vel": 76,
      "dur": 25
    },
    {
      "t": 1203.8,
      "ch": 1,
      "note": 36,
      "vel": 79,
      "dur": 25
    },
    {
      "t": 1203.8,
      "ch": 1,
      "note": 38,
      "vel": 87,
      "dur": 25
    },
    {
      "t": 1203.8,
      "ch": 1,
      "note": 40,
      "vel": 78,
      "dur": 25
    },
    {
      "t": 1203.8,
      "ch": 1,
      "note": 42,
      "vel": 93,
      "dur": 25
    },
    {
      "t": 1203.8,
      "ch": 1,
      "note": 36,
      "vel": 75,
      "dur": 25
    },
    {
      "t": 1203.8,
      "ch": 1,
      "note": 38,
      "vel": 64,
      "dur": 25
    },
    {
      "t": 1203.8,
      "ch": 1,
      "note": 40,
      "vel": 65,
      "dur": 25
    },
    {
      "t": 1203.8,
      "ch": 1,
      "note": 42,
      "vel": 85,
      "dur": 25
    },
    {
      "t": 1203.8,
      "ch": 1,
      "note": 36,
      "vel": 102,
      "dur": 25
    },
    {
      "t": 1203.8,
      "ch": 1,
      "note": 38,
      "vel": 93,
      "dur": 25
    },
    {
      "t": 1203.8,
      "ch": 1,
      "note": 40,
      "vel": 69,
      "dur": 25
    },
    {
      "t": 1203.8,
      "ch": 1,
      "note": 42,
      "vel": 83,
      "dur": 25
    },
    {
      "t": 1203.8,
      "ch": 1,
      "note": 36,
      "vel": 59,
      "dur": 25
    },
    {
      "t": 1203.8,
      "ch": 1,
      "note": 38,
      "vel": 93,
      "dur": 25
    },
    {
      "t": 1203.8,
      "ch": 1,
      "note": 40,
      "vel": 69,
      "dur": 25
    },
    {
      "t": 1203.8,
      "ch": 1,
      "note": 42,
      "vel": 93,
      "dur": 25
    },
    {
      "t": 1203.8,
      "ch": 1,
      "note": 36,
      "vel": 85,
      "dur": 25
    },
    {
      "t": 1203.8,
      "ch": 1,
      "note": 38,
      "vel": 56,
      "dur": 25
    },
    {
      "t": 1203.8,
      "ch": 1,
      "note": 40,
      "vel": 90,
      "dur": 25
    },
    {
      "t": 1203.8,
      "ch": 1,
      "note": 42,
      "vel": 104,
      "dur": 25
    },
    {
      "t": 1203.8,
      "ch": 1,
      "note": 36,
      "vel": 72,
      "dur": 25
    },
    {
      "t": 1203.8,
      "ch": 1,
      "note": 38,
      "vel": 86,
      "dur": 25
    },
    {
      "t": 1203.8,
      "ch": 1,
      "note": 40,
      "vel": 73,
      "dur": 25
    },
    {
      "t": 1203.8,
      "ch": 1,
      "note": 42,
      "vel": 95,
      "dur": 25
    },
    {
      "t": 1203.8,
      "ch": 1,
      "note": 36,
      "vel": 68,
      "dur": 25
    },
    {
      "t": 1203.8,
      "ch": 1,
      "note": 38,
      "vel": 59,
      "dur": 25
    },
    {
      "t": 1203.8,
      "ch": 1,
      "note": 40,
      "vel": 88,
      "dur": 25
    },
    {
      "t": 1203.8,
      "ch": 1,
      "note": 42,
      "vel": 78,
      "dur": 25
    },
    {
      "t": 1203.8,
      "ch": 1,
      "note": 36,
      "vel": 92,
      "dur": 25
    },
    {
      "t": 1203.8,
      "ch": 1,
      "note": 38,
      "vel": 94,
      "dur": 25
    },
    {
      "t": 1203.8,
      "ch": 1,
      "note": 40,
      "vel": 66,
      "dur": 25
    },
    {
      "t": 1203.8,
      "ch": 1,
      "note": 42,
      "vel": 87,
      "dur": 25
    },
    {
      "t": 1203.8,
      "ch": 1,
      "note": 36,
      "vel": 87,
      "dur": 25
    },
    {
      "t": 1203.8,
      "ch": 1,
      "note": 38,
      "vel": 77,
      "dur": 25
    },
    {
      "t": 1203.8,
      "ch": 1,
      "note": 40,
      "vel": 96,
      "dur": 25
    },
    {
      "t": 1203.8,
      "ch": 1,
      "note": 42,
      "vel": 76,
      "dur": 25
    },
    {
      "t": 1203.8,
      "ch": 1,
      "note": 36,
      "vel": 93,
      "dur": 25
    },
    {
      "t": 1203.8,
      "ch": 1,
      "note": 38,
      "vel": 70,
      "dur": 25
    },
    {
      "t": 1203.8,
      "ch": 1,
      "note": 40,
      "vel": 88,
      "dur": 25
    },
    {
      "t": 1203.8,
      "ch": 1,
      "note": 42,
      "vel": 73,
      "dur": 25
    },
    {
      "t": 1203.8,
      "ch": 1,
      "note": 36,
      "vel": 94,
      "dur": 25
    },
    {
      "t": 1203.8,
      "ch": 1,
      "note": 38,
      "vel": 87,
      "dur": 25
    },
    {
      "t": 1203.8,
      "ch": 1,
      "note": 40,
      "vel": 73,
      "dur": 25
    },
    {
      "t": 1203.8,
      "ch": 1,
      "note": 42,
      "vel": 77,
      "dur": 25
    },
    {
      "t": 1203.8,
      "ch": 1,
      "note": 36,
      "vel": 78,
      "dur": 25
    },
    {
      "t": 1203.8,
      "ch": 1,
      "note": 38,
      "vel": 76,
      "dur": 25
    },
    {
      "t": 1203.8,
      "ch": 1,
      "note": 40,
      "vel": 74,
      "dur": 25
    },
    {
      "t": 1203.8,
      "ch": 1,
      "note": 42,
      "vel": 101,
      "dur": 25
    },
    {
      "t": 1203.8,
      "ch": 1,
      "note": 36,
      "vel": 99,
      "dur": 25
    },
    {
      "t": 1203.8,
      "ch": 1,
      "note": 38,
      "vel": 78,
      "dur": 25
    },
    {
      "t": 1203.8,
      "ch": 1,
      "note": 40,
      "vel": 94,
      "dur": 25
    },
    {
      "t": 1203.8,
      "ch": 1,
      "note": 42,
      "vel": 87,
      "dur": 25
    },
    {
      "t": 1203.8,
      "ch": 1,
      "note": 36,
      "vel": 88,
      "dur": 25
    },
    {
      "t": 1203.8,
      "ch": 1,
      "note": 38,
      "vel": 76,
      "dur": 25
    },
    {
      "t": 1203.8,
      "ch": 1,
      "note": 40,
      "vel": 73,
      "dur": 25
    },
    {
      "t": 1203.8,
      "ch": 1,
      "note": 42,
      "vel": 107,
      "dur": 25
    },
    {
      "t": 1203.8,
      "ch": 1,
      "note": 36,
      "vel": 50,
      "dur": 25
    },
    {
      "t": 1203.8,
      "ch": 1,
      "note": 38,
      "vel": 88,
      "dur": 25
    },
    {
      "t": 1203.8,
      "ch": 1,
      "note": 40,
      "vel": 95,
      "dur": 25
    },
    {
      "t": 1203.8,
      "ch": 1,
      "note": 42,
      "vel": 76,
      "dur": 25
    },
    {
      "t": 1203.8,
      "ch": 1,
      "note": 36,
      "vel": 90,
      "dur": 25
    },
    {
      "t": 1203.8,
      "ch": 1,
      "note": 38,
      "vel": 104,
      "dur": 25
    },
    {
      "t": 1203.8,
      "ch": 1,
      "note": 40,
      "vel": 78,
      "dur": 25
    },
    {
      "t": 1203.8,
      "ch": 1,
      "note": 42,
      "vel": 72,
      "dur": 25
    },
    {
      "t": 1203.8,
      "ch": 1,
      "note": 36,
      "vel": 71,
      "dur": 25
    },
    {
      "t": 1203.8,
      "ch": 1,
      "note": 38,
      "vel": 106,
      "dur": 25
    },
    {
      "t": 1203.8,
      "ch": 1,
      "note": 40,
      "vel": 98,
      "dur": 25
    },
    {
      "t": 1203.8,
      "ch": 1,
      "note": 42,
      "vel": 114,
      "dur": 25
    },
    {
      "t": 1203.8,
      "ch": 1,
      "note": 36,
      "vel": 80,
      "dur": 25
    },
    {
      "t": 1203.8,
      "ch": 1,
      "note": 38,
      "vel": 70,
      "dur": 25
    },
    {
      "t": 1203.8,
      "ch": 1,
      "note": 40,
      "vel": 66,
      "dur": 25
    },
    {
      "t": 1203.8,
      "ch": 1,
      "note": 42,
      "vel": 93,
      "dur": 25
    },
    {
      "t": 1203.8,
      "ch": 1,
      "note": 36,
      "vel": 84,
      "dur": 25
    },
    {
      "t": 1203.8,
      "ch": 1,
      "note": 38,
      "vel": 82,
      "dur": 25
    },
    {
      "t": 1203.8,
      "ch": 1,
      "note": 40,
      "vel": 65,
      "dur": 25
    },
    {
      "t": 1203.8,
      "ch": 1,
      "note": 42,
      "vel": 76,
      "dur": 25
    },
    {
      "t": 1203.8,
      "ch": 1,
      "note": 36,
      "vel": 92,
      "dur": 25
    },
    {
      "t": 1203.8,
      "ch": 1,
      "note": 38,
      "vel": 70,
      "dur": 25
    },
    {
      "t": 1203.8,
      "ch": 1,
      "note": 40,
      "vel": 71,
      "dur": 25
    },
    {
      "t": 1203.8,
      "ch": 1,
      "note": 42,
      "vel": 84,
      "dur": 25
    },
    {
      "t": 1203.8,
      "ch": 1,
      "note": 36,
      "vel": 77,
      "dur": 25
    },
    {
      "t": 1203.8,
      "ch": 1,
      "note": 38,
      "vel": 60,
      "dur": 25
    },
    {
      "t": 1203.8,
      "ch": 1,
      "note": 40,
      "vel": 79,
      "dur": 25
    },
    {
      "t": 1203.8,
      "ch": 1,
      "note": 42,
      "vel": 85,
      "dur": 25
    },
    {
      "t": 1203.8,
      "ch": 1,
      "note": 36,
      "vel": 81,
      "dur": 25
    },
    {
      "t": 1203.8,
      "ch": 1,
      "note": 38,
      "vel": 73,
      "dur": 25
    },
    {
      "t": 1203.8,
      "ch": 1,
      "note": 40,
      "vel": 60,
      "dur": 25
    },
    {
      "t": 1203.8,
      "ch": 1,
      "note": 42,
      "vel": 99,
      "dur": 25
    },
    {
      "t": 1203.8,
      "ch": 1,
      "note": 36,
      "vel": 76,
      "dur": 25
    },
    {
      "t": 1203.8,
      "ch": 1,
      "note": 38,
      "vel": 80,
      "dur": 25
    },
    {
      "t": 1203.8,
      "ch": 1,
      "note": 40,
      "vel": 103,
      "dur": 25
    },
    {
      "t": 1203.8,
      "ch": 1,
      "note": 42,
      "vel": 80,
      "dur": 25
    },
    {
      "t": 1203.8,
      "ch": 1,
      "note": 36,
      "vel": 90,
      "dur": 25
    },
    {
      "t": 1203.8,
      "ch": 1,
      "note": 38,
      "vel": 99,
      "dur": 25
    },
    {
      "t": 1203.8,
      "ch": 1,
      "note": 40,
      "vel": 76,
      "dur": 25
    },
    {
      "t": 1203.8,
      "ch": 1,
      "note": 42,
      "vel": 91,
      "dur": 25
    },
    {
      "t": 1203.8,
      "ch": 1,
      "note": 36,
      "vel": 96,
      "dur": 25
    },
    {
      "t": 1203.8,
      "ch": 1,
      "note": 38,
      "vel": 73,
      "dur": 25
    },
    {
      "t": 1203.8,
      "ch": 1,
      "note": 40,
      "vel": 99,
      "dur": 25
    },
    {
      "t": 1203.8,
      "ch": 1,
      "note": 42,
      "vel": 70,
      "dur": 25
    },
    {
      "t": 1203.8,
      "ch": 1,
      "note": 36,
      "vel": 96,
      "dur": 25
    },
    {
      "t": 1203.8,
      "ch": 1,
      "note": 38,
      "vel": 79,
      "dur": 25
    },
    {
      "t": 1203.8,
      "ch": 1,
      "note": 40,
      "vel": 81,
      "dur": 25
    },
    {
      "t": 1203.8,
      "ch": 1,
      "note": 42,
      "vel": 76,
      "dur": 25
    },
    {
      "t": 1203.8,
      "ch": 1,
      "note": 36,
      "vel": 72,
      "dur": 25
    },
    {
      "t": 1203.8,
      "ch": 1,
      "note": 38,
      "vel": 58,
      "dur": 25
    },
    {
      "t": 1203.8,
      "ch": 1,
      "note": 40,
      "vel": 67,
      "dur": 25
    },
    {
      "t": 1203.8,
      "ch": 1,
      "note": 42,
      "vel": 84,
      "dur": 25
    },
    {
      "t": 1203.8,
      "ch": 1,
      "note": 36,
      "vel": 88,
      "dur": 25
    },
    {
      "t": 1203.8,
      "ch": 1,
      "note": 38,
      "vel": 91,
      "dur": 25
    },
    {
      "t": 1203.8,
      "ch": 1,
      "note": 40,
      "vel": 84,
      "dur": 25
    },
    {
      "t": 1203.8,
      "ch": 1,
      "note": 42,
      "vel": 104,
      "dur": 25
    },
    {
      "t": 1203.8,
      "ch": 1,
      "note": 36,
      "vel": 75,
      "dur": 25
    },
    {
      "t": 1203.8,
      "ch": 1,
      "note": 38,
      "vel": 90,
      "dur": 25
    },
    {
      "t": 1203.8,
      "ch": 1,
      "note": 40,
      "vel": 69,
      "dur": 25
    },
    {
      "t": 1203.8,
      "ch": 1,
      "note": 42,
      "vel": 87,
      "dur": 25
    },
    {
      "t": 1203.8,
      "ch": 1,
      "note": 36,
      "vel": 92,
      "dur": 25
    },
    {
      "t": 1203.8,
      "ch": 1,
      "note": 38,
      "vel": 92,
      "dur": 25
    },
    {
      "t": 1203.8,
      "ch": 1,
      "note": 40,
      "vel": 64,
      "dur": 25
    },
    {
      "t": 1203.8,
      "ch": 1,
      "note": 42,
      "vel": 92,
      "dur": 25
    },
    {
      "t": 1203.8,
      "ch": 1,
      "note": 36,
      "vel": 89,
      "dur": 25
    },
    {
      "t": 1203.8,
      "ch": 1,
      "note": 38,
      "vel": 80,
      "dur": 25
    },
    {
      "t": 1203.8,
      "ch": 1,
      "note": 40,
      "vel": 83,
      "dur": 25
    },
    {
      "t": 1203.8,
      "ch": 1,
      "note": 42,
      "vel": 80,
      "dur": 25
    },
    {
      "t": 1203.8,
      "ch": 1,
      "note": 36,
      "vel": 92,
      "dur": 25
    },
    {
      "t": 1203.8,
      "ch": 1,
      "note": 38,
      "vel": 97,
      "dur": 25
    },
    {
      "t": 1203.8,
      "ch": 1,
      "note": 40,
      "vel": 85,
      "dur": 25
    },
    {
      "t": 1203.8,
      "ch": 1,
      "note": 42,
      "vel": 76,
      "dur": 25
    },
    {
      "t": 1203.8,
      "ch": 1,
      "note": 36,
      "vel": 108,
      "dur": 25
    },
    {
      "t": 1203.8,
      "ch": 1,
      "note": 38,
      "vel": 89,
      "dur": 25
    },
    {
      "t": 1203.8,
      "ch": 1,
      "note": 40,
      "vel": 90,
      "dur": 25
    },
    {
      "t": 1203.8,
      "ch": 1,
      "note": 42,
      "vel": 80,
      "dur": 25
    },
    {
      "t": 1203.8,
      "ch": 1,
      "note": 36,
      "vel": 106,
      "dur": 25
    },
    {
      "t": 1203.8,
      "ch": 1,
      "note": 38,
      "vel": 109,
      "dur": 25
    },
    {
      "t": 1203.8,
      "ch": 1,
      "note": 40,
      "vel": 81,
      "dur": 25
    },
    {
      "t": 1203.8,
      "ch": 1,
      "note": 42,
      "vel": 76,
      "dur": 25
    },
    {
      "t": 1203.8,
      "ch": 1,
      "note": 36,
      "vel": 83,
      "dur": 25
    },
    {
      "t": 1203.8,
      "ch": 1,
      "note": 38,
      "vel": 60,
      "dur": 25
    },
    {
      "t": 1203.8,
      "ch": 1,
      "note": 40,
      "vel": 71,
      "dur": 25
    },
    {
      "t": 1203.8,
      "ch": 1,
      "note": 42,
      "vel": 78,
      "dur": 25
    },
    {
      "t": 1203.8,
      "ch": 1,
      "note": 36,
      "vel": 70,
      "dur": 25
    },
    {
      "t": 1203.8,
      "ch": 1,
      "note": 38,
      "vel": 100,
      "dur": 25
    },
    {
      "t": 1203.8,
      "ch": 1,
      "note": 40,
      "vel": 79,
      "dur": 25
    },
    {
      "t": 1203.8,
      "ch": 1,
      "note": 42,
      "vel": 107,
      "dur": 25
    },
    {
      "t": 1203.8,
      "ch": 1,
      "note": 36,
      "vel": 88,
      "dur": 25
    },
    {
      "t": 1203.8,
      "ch": 1,
      "note": 38,
      "vel": 79,
      "dur": 25
    },
    {
      "t": 1203.8,
      "ch": 1,
      "note": 40,
      "vel": 71,
      "dur": 25
    },
    {
      "t": 1203.8,
      "ch": 1,
      "note": 42,
      "vel": 78,
      "dur": 25
    },
    {
      "t": 1203.8,
      "ch": 1,
      "note": 36,
      "vel": 71,
      "dur": 25
    },
    {
      "t": 1203.8,
      "ch": 1,
      "note": 38,
      "vel": 86,
      "dur": 25
    },
    {
      "t": 1203.8,
      "ch": 1,
      "note": 40,
      "vel": 76,
      "dur": 25
    },
    {
      "t": 1203.8,
      "ch": 1,
      "note": 42,
      "vel": 92,
      "dur": 25
    },
    {
      "t": 1203.8,
      "ch": 1,
      "note": 36,
      "vel": 81,
      "dur": 25
    },
    {
      "t": 1203.8,
      "ch": 1,
      "note": 38,
      "vel": 100,
      "dur": 25
    },
    {
      "t": 1203.8,
      "ch": 1,
      "note": 40,
      "vel": 78,
      "dur": 25
    },
    {
      "t": 1203.8,
      "ch": 1,
      "note": 42,
      "vel": 94,
      "dur": 25
    },
    {
      "t": 1203.8,
      "ch": 1,
      "note": 36,
      "vel": 86,
      "dur": 25
    },
    {
      "t": 1203.8,
      "ch": 1,
      "note": 38,
      "vel": 68,
      "dur": 25
    },
    {
      "t": 1203.8,
      "ch": 1,
      "note": 40,
      "vel": 92,
      "dur": 25
    },
    {
      "t": 1203.8,
      "ch": 1,
      "note": 42,
      "vel": 98,
      "dur": 25
    },
    {
      "t": 1203.8,
      "ch": 1,
      "note": 36,
      "vel": 70,
      "dur": 25
    },
    {
      "t": 1203.8,
      "ch": 1,
      "note": 38,
      "vel": 68,
      "dur": 25
    },
    {
      "t": 1203.8,
      "ch": 1,
      "note": 40,
      "vel": 90,
      "dur": 25
    },
    {
      "t": 1203.8,
      "ch": 1,
      "note": 42,
      "vel": 63,
      "dur": 25
    },
    {
      "t": 1203.8,
      "ch": 1,
      "note": 36,
      "vel": 80,
      "dur": 25
    },
    {
      "t": 1203.8,
      "ch": 1,
      "note": 38,
      "vel": 71,
      "dur": 25
    },
    {
      "t": 1203.8,
      "ch": 1,
      "note": 40,
      "vel": 59,
      "dur": 25
    },
    {
      "t": 1203.8,
      "ch": 1,
      "note": 42,
      "vel": 84,
      "dur": 25
    },
    {
      "t": 1203.8,
      "ch": 1,
      "note": 36,
      "vel": 60,
      "dur": 25
    },
    {
      "t": 1203.8,
      "ch": 1,
      "note": 38,
      "vel": 56,
      "dur": 25
    },
    {
      "t": 1203.8,
      "ch": 1,
      "note": 40,
      "vel": 80,
      "dur": 25
    },
    {
      "t": 1203.8,
      "ch": 1,
      "note": 42,
      "vel": 80,
      "dur": 25
    },
    {
      "t": 1203.8,
      "ch": 1,
      "note": 36,
      "vel": 88,
      "dur": 25
    },
    {
      "t": 1203.8,
      "ch": 1,
      "note": 38,
      "vel": 101,
      "dur": 25
    },
    {
      "t": 1203.8,
      "ch": 1,
      "note": 40,
      "vel": 71,
      "dur": 25
    },
    {
      "t": 1203.8,
      "ch": 1,
      "note": 42,
      "vel": 80,
      "dur": 25
    },
    {
      "t": 1203.8,
      "ch": 1,
      "note": 36,
      "vel": 98,
      "dur": 25
    },
    {
      "t": 1203.8,
      "ch": 1,
      "note": 38,
      "vel": 80,
      "dur": 25
    },
    {
      "t": 1203.8,
      "ch": 1,
      "note": 40,
      "vel": 97,
      "dur": 25
    },
    {
      "t": 1203.8,
      "ch": 1,
      "note": 42,
      "vel": 67,
      "dur": 25
    },
    {
      "t": 1203.8,
      "ch": 1,
      "note": 36,
      "vel": 65,
      "dur": 25
    },
    {
      "t": 1203.8,
      "ch": 1,
      "note": 38,
      "vel": 82,
      "dur": 25
    },
    {
      "t": 1203.8,
      "ch": 1,
      "note": 40,
      "vel": 70,
      "dur": 25
    },
    {
      "t": 1203.8,
      "ch": 1,
      "note": 42,
      "vel": 91,
      "dur": 25
    },
    {
      "t": 1203.8,
      "ch": 1,
      "note": 36,
      "vel": 91,
      "dur": 25
    },
    {
      "t": 1203.8,
      "ch": 1,
      "note": 38,
      "vel": 83,
      "dur": 25
    },
    {
      "t": 1203.8,
      "ch": 1,
      "note": 40,
      "vel": 80,
      "dur": 25
    },
    {
      "t": 1203.8,
      "ch": 1,
      "note": 42,
      "vel": 82,
      "dur": 25
    },
    {
      "t": 1203.8,
      "ch": 1,
      "note": 36,
      "vel": 69,
      "dur": 25
    },
    {
      "t": 1203.8,
      "ch": 1,
      "note": 38,
      "vel": 62,
      "dur": 25
    },
    {
      "t": 1203.8,
      "ch": 1,
      "note": 40,
      "vel": 78,
      "dur": 25
    },
    {
      "t": 1203.8,
      "ch": 1,
      "note": 42,
      "vel": 89,
      "dur": 25
    },
    {
      "t": 1203.8,
      "ch": 1,
      "note": 36,
      "vel": 115,
      "dur": 25
    },
    {
      "t": 1203.8,
      "ch": 1,
      "note": 38,
      "vel": 87,
      "dur": 25
    },
    {
      "t": 1203.8,
      "ch": 1,
      "note": 40,
      "vel": 74,
      "dur": 25
    },
    {
      "t": 1203.8,
      "ch": 1,
      "note": 42,
      "vel": 91,
      "dur": 25
    },
    {
      "t": 1203.8,
      "ch": 1,
      "note": 36,
      "vel": 78,
      "dur": 25
    },
    {
      "t": 1203.8,
      "ch": 1,
      "note": 38,
      "vel": 60,
      "dur": 25
    },
    {
      "t": 1203.8,
      "ch": 1,
      "note": 40,
      "vel": 102,
      "dur": 25
    },
    {
      "t": 1203.8,
      "ch": 1,
      "note": 42,
      "vel": 84,
      "dur": 25
    },
    {
      "t": 1203.8,
      "ch": 1,
      "note": 36,
      "vel": 64,
      "dur": 25
    },
    {
      "t": 1203.8,
      "ch": 1,
      "note": 38,
      "vel": 72,
      "dur": 25
    },
    {
      "t": 1203.8,
      "ch": 1,
      "note": 40,
      "vel": 80,
      "dur": 25
    },
    {
      "t": 1203.8,
      "ch": 1,
      "note": 42,
      "vel": 96,
      "dur": 25
    },
    {
      "t": 1203.8,
      "ch": 1,
      "note": 36,
      "vel": 66,
      "dur": 25
    },
    {
      "t": 1203.8,
      "ch": 1,
      "note": 38,
      "vel": 87,
      "dur": 25
    },
    {
      "t": 1203.8,
      "ch": 1,
      "note": 40,
      "vel": 94,
      "dur": 25
    },
    {
      "t": 1203.8,
      "ch": 1,
      "note": 42,
      "vel": 85,
      "dur": 25
    },
    {
      "t": 1203.8,
      "ch": 1,
      "note": 36,
      "vel": 85,
      "dur": 25
    },
    {
      "t": 1203.8,
      "ch": 1,
      "note": 38,
      "vel": 82,
      "dur": 25
    },
    {
      "t": 1203.8,
      "ch": 1,
      "note": 40,
      "vel": 79,
      "dur": 25
    },
    {
      "t": 1203.8,
      "ch": 1,
      "note": 42,
      "vel": 97,
      "dur": 25
    },
    {
      "t": 1203.8,
      "ch": 1,
      "note": 36,
      "vel": 77,
      "dur": 25
    },
    {
      "t": 1203.8,
      "ch": 1,
      "note": 38,
      "vel": 82,
      "dur": 25
    },
    {
      "t": 1203.8,
      "ch": 1,
      "note": 40,
      "vel": 82,
      "dur": 25
    },
    {
      "t": 1203.8,
      "ch": 1,
      "note": 42,
      "vel": 75,
      "dur": 25
    },
    {
      "t": 1203.8,
      "ch": 1,
      "note": 36,
      "vel": 94,
      "dur": 25
    },
    {
      "t": 1203.8,
      "ch": 1,
      "note": 38,
      "vel": 76,
      "dur": 25
    },
    {
      "t": 1203.8,
      "ch": 1,
      "note": 40,
      "vel": 88,
      "dur": 25
    },
    {
      "t": 1203.8,
      "ch": 1,
      "note": 42,
      "vel": 77,
      "dur": 25
    },
    {
      "t": 1203.8,
      "ch": 1,
      "note": 36,
      "vel": 82,
      "dur": 25
    },
    {
      "t": 1203.8,
      "ch": 1,
      "note": 38,
      "vel": 81,
      "dur": 25
    },
    {
      "t": 1203.8,
      "ch": 1,
      "note": 40,
      "vel": 82,
      "dur": 25
    },
    {
      "t": 1203.8,
      "ch": 1,
      "note": 42,
      "vel": 83,
      "dur": 25
    },
    {
      "t": 1203.8,
      "ch": 1,
      "note": 36,
      "vel": 76,
      "dur": 25
    },
    {
      "t": 1203.8,
      "ch": 1,
      "note": 38,
      "vel": 72,
      "dur": 25
    },
    {
      "t": 1203.8,
      "ch": 1,
      "note": 40,
      "vel": 100,
      "dur": 25
    },
    {
      "t": 1203.8,
      "ch": 1,
      "note": 42,
      "vel": 94,
      "dur": 25
    },
    {
      "t": 1203.8,
      "ch": 1,
      "note": 36,
      "vel": 86,
      "dur": 25
    },
    {
      "t": 1203.8,
      "ch": 1,
      "note": 38,
      "vel": 91,
      "dur": 25
    },
    {
      "t": 1203.8,
      "ch": 1,
      "note": 40,
      "vel": 74,
      "dur": 25
    },
    {
      "t": 1203.8,
      "ch": 1,
      "note": 42,
      "vel": 84,
      "dur": 25
    },
    {
      "t": 1203.8,
      "ch": 1,
      "note": 36,
      "vel": 75,
      "dur": 25
    },
    {
      "t": 1203.8,
      "ch": 1,
      "note": 38,
      "vel": 60,
      "dur": 25
    },
    {
      "t": 1203.8,
      "ch": 1,
      "note": 40,
      "vel": 67,
      "dur": 25
    },
    {
      "t": 1203.8,
      "ch": 1,
      "note": 42,
      "vel": 100,
      "dur": 25
    },
    {
      "t": 1203.8,
      "ch": 1,
      "note": 36,
      "vel": 80,
      "dur": 25
    },
    {
      "t": 1203.8,
      "ch": 1,
      "note": 38,
      "vel": 75,
      "dur": 25
    },
    {
      "t": 1203.8,
      "ch": 1,
      "note": 40,
      "vel": 92,
      "dur": 25
    },
    {
      "t": 1203.8,
      "ch": 1,
      "note": 42,
      "vel": 97,
      "dur": 25
    },
    {
      "t": 1203.8,
      "ch": 1,
      "note": 36,
      "vel": 86,
      "dur": 25
    },
    {
      "t": 1203.8,
      "ch": 1,
      "note": 38,
      "vel": 119,
      "dur": 25
    },
    {
      "t": 1203.8,
      "ch": 1,
      "note": 40,
      "vel": 65,
      "dur": 25
    },
    {
      "t": 1203.8,
      "ch": 1,
      "note": 42,
      "vel": 91,
      "dur": 25
    },
    {
      "t": 1203.8,
      "ch": 1,
      "note": 36,
      "vel": 85,
      "dur": 25
    },
    {
      "t": 1203.8,
      "ch": 1,
      "note": 38,
      "vel": 62,
      "dur": 25
    },
    {
      "t": 1203.8,
      "ch": 1,
      "note": 40,
      "vel": 84,
      "dur": 25
    },
    {
      "t": 1203.8,
      "ch": 1,
      "note": 42,
      "vel": 92,
      "dur": 25
    },
    {
      "t": 1203.8,
      "ch": 1,
      "note": 36,
      "vel": 89,
      "dur": 25
    },
    {
      "t": 1203.8,
      "ch": 1,
      "note": 38,
      "vel": 105,
      "dur": 25
    },
    {
      "t": 1203.8,
      "ch": 1,
      "note": 40,
      "vel": 78,
      "dur": 25
    },
    {
      "t": 1203.8,
      "ch": 1,
      "note": 42,
      "vel": 86,
      "dur": 25
    },
    {
      "t": 1203.8,
      "ch": 1,
      "note": 36,
      "vel": 86,
      "dur": 25
    },
    {
      "t": 1203.8,
      "ch": 1,
      "note": 38,
      "vel": 83,
      "dur": 25
    },
    {
      "t": 1203.8,
      "ch": 1,
      "note": 40,
      "vel": 68,
      "dur": 25
    },
    {
      "t": 1203.8,
      "ch": 1,
      "note": 42,
      "vel": 87,
      "dur": 25
    },
    {
      "t": 1203.8,
      "ch": 1,
      "note": 36,
      "vel": 68,
      "dur": 25
    },
    {
      "t": 1203.8,
      "ch": 1,
      "note": 38,
      "vel": 67,
      "dur": 25
    },
    {
      "t": 1203.8,
      "ch": 1,
      "note": 40,
      "vel": 83,
      "dur": 25
    },
    {
      "t": 1203.8,
      "ch": 1,
      "note": 42,
      "vel": 85,
      "dur": 25
    },
    {
      "t": 1203.8,
      "ch": 1,
      "note": 36,
      "vel": 86,
      "dur": 25
    },
    {
      "t": 1203.8,
      "ch": 1,
      "note": 38,
      "vel": 70,
      "dur": 25
    },
    {
      "t": 1203.8,
      "ch": 1,
      "note": 40,
      "vel": 60,
      "dur": 25
    },
    {
      "t": 1203.8,
      "ch": 1,
      "note": 42,
      "vel": 84,
      "dur": 25
    },
    {
      "t": 1203.8,
      "ch": 1,
      "note": 36,
      "vel": 107,
      "dur": 25
    },
    {
      "t": 1203.8,
      "ch": 1,
      "note": 38,
      "vel": 89,
      "dur": 25
    },
    {
      "t": 1203.8,
      "ch": 1,
      "note": 40,
      "vel": 82,
      "dur": 25
    },
    {
      "t": 1203.8,
      "ch": 1,
      "note": 42,
      "vel": 76,
      "dur": 25
    },
    {
      "t": 1203.8,
      "ch": 1,
      "note": 36,
      "vel": 92,
      "dur": 25
    },
    {
      "t": 1203.8,
      "ch": 1,
      "note": 38,
      "vel": 88,
      "dur": 25
    },
    {
      "t": 1203.8,
      "ch": 1,
      "note": 40,
      "vel": 105,
      "dur": 25
    },
    {
      "t": 1203.8,
      "ch": 1,
      "note": 42,
      "vel": 88,
      "dur": 25
    },
    {
      "t": 1203.8,
      "ch": 1,
      "note": 36,
      "vel": 96,
      "dur": 25
    },
    {
      "t": 1203.8,
      "ch": 1,
      "note": 38,
      "vel": 90,
      "dur": 25
    },
    {
      "t": 1203.8,
      "ch": 1,
      "note": 40,
      "vel": 99,
      "dur": 25
    },
    {
      "t": 1203.8,
      "ch": 1,
      "note": 42,
      "vel": 85,
      "dur": 25
    },
    {
      "t": 1203.8,
      "ch": 1,
      "note": 36,
      "vel": 72,
      "dur": 25
    },
    {
      "t": 1203.8,
      "ch": 1,
      "note": 38,
      "vel": 115,
      "dur": 25
    },
    {
      "t": 1203.8,
      "ch": 1,
      "note": 40,
      "vel": 104,
      "dur": 25
    },
    {
      "t": 1203.8,
      "ch": 1,
      "note": 42,
      "vel": 77,
      "dur": 25
    },
    {
      "t": 1203.8,
      "ch": 1,
      "note": 36,
      "vel": 91,
      "dur": 25
    },
    {
      "t": 1203.8,
      "ch": 1,
      "note": 38,
      "vel": 79,
      "dur": 25
    },
    {
      "t": 1203.8,
      "ch": 1,
      "note": 40,
      "vel": 85,
      "dur": 25
    },
    {
      "t": 1203.8,
      "ch": 1,
      "note": 42,
      "vel": 80,
      "dur": 25
    },
    {
      "t": 1203.8,
      "ch": 1,
      "note": 36,
      "vel": 76,
      "dur": 25
    },
    {
      "t": 1203.8,
      "ch": 1,
      "note": 38,
      "vel": 84,
      "dur": 25
    },
    {
      "t": 1203.8,
      "ch": 1,
      "note": 40,
      "vel": 73,
      "dur": 25
    },
    {
      "t": 1203.8,
      "ch": 1,
      "note": 42,
      "vel": 89,
      "dur": 25
    },
    {
      "t": 1203.8,
      "ch": 1,
      "note": 36,
      "vel": 84,
      "dur": 25
    },
    {
      "t": 1203.8,
      "ch": 1,
      "note": 38,
      "vel": 72,
      "dur": 25
    },
    {
      "t": 1203.8,
      "ch": 1,
      "note": 40,
      "vel": 103,
      "dur": 25
    },
    {
      "t": 1203.8,
      "ch": 1,
      "note": 42,
      "vel": 59,
      "dur": 25
    },
    {
      "t": 1203.8,
      "ch": 1,
      "note": 36,
      "vel": 86,
      "dur": 25
    },
    {
      "t": 1203.8,
      "ch": 1,
      "note": 38,
      "vel": 93,
      "dur": 25
    },
    {
      "t": 1203.8,
      "ch": 1,
      "note": 40,
      "vel": 82,
      "dur": 25
    },
    {
      "t": 1203.8,
      "ch": 1,
      "note": 42,
      "vel": 89,
      "dur": 25
    },
    {
      "t": 1203.8,
      "ch": 1,
      "note": 36,
      "vel": 82,
      "dur": 25
    },
    {
      "t": 1203.8,
      "ch": 1,
      "note": 38,
      "vel": 79,
      "dur": 25
    },
    {
      "t": 1203.8,
      "ch": 1,
      "note": 40,
      "vel": 69,
      "dur": 25
    },
    {
      "t": 1203.8,
      "ch": 1,
      "note": 42,
      "vel": 83,
      "dur": 25
    },
    {
      "t": 1203.8,
      "ch": 1,
      "note": 36,
      "vel": 87,
      "dur": 25
    },
    {
      "t": 1203.8,
      "ch": 1,
      "note": 38,
      "vel": 72,
      "dur": 25
    },
    {
      "t": 1203.8,
      "ch": 1,
      "note": 40,
      "vel": 95,
      "dur": 25
    },
    {
      "t": 1203.8,
      "ch": 1,
      "note": 42,
      "vel": 75,
      "dur": 25
    },
    {
      "t": 1203.8,
      "ch": 1,
      "note": 36,
      "vel": 82,
      "dur": 25
    },
    {
      "t": 1203.8,
      "ch": 1,
      "note": 38,
      "vel": 113,
      "dur": 25
    },
    {
      "t": 1203.8,
      "ch": 1,
      "note": 40,
      "vel": 74,
      "dur": 25
    },
    {
      "t": 1203.8,
      "ch": 1,
      "note": 42,
      "vel": 91,
      "dur": 25
    },
    {
      "t": 1203.8,
      "ch": 1,
      "note": 36,
      "vel": 85,
      "dur": 25
    },
    {
      "t": 1203.8,
      "ch": 1,
      "note": 38,
      "vel": 96,
      "dur": 25
    },
    {
      "t": 1203.8,
      "ch": 1,
      "note": 40,
      "vel": 80,
      "dur": 25
    },
    {
      "t": 1203.8,
      "ch": 1,
      "note": 42,
      "vel": 89,
      "dur": 25
    },
    {
      "t": 1203.8,
      "ch": 1,
      "note": 36,
      "vel": 71,
      "dur": 25
    },
    {
      "t": 1203.8,
      "ch": 1,
      "note": 38,
      "vel": 82,
      "dur": 25
    },
    {
      "t": 1203.8,
      "ch": 1,
      "note": 40,
      "vel": 67,
      "dur": 25
    },
    {
      "t": 1203.8,
      "ch": 1,
      "note": 42,
      "vel": 71,
      "dur": 25
    },
    {
      "t": 1203.8,
      "ch": 1,
      "note": 36,
      "vel": 92,
      "dur": 25
    },
    {
      "t": 1203.8,
      "ch": 1,
      "note": 38,
      "vel": 73,
      "dur": 25
    },
    {
      "t": 1203.8,
      "ch": 1,
      "note": 40,
      "vel": 82,
      "dur": 25
    },
    {
      "t": 1203.8,
      "ch": 1,
      "note": 42,
      "vel": 66,
      "dur": 25
    },
    {
      "t": 1203.8,
      "ch": 1,
      "note": 36,
      "vel": 63,
      "dur": 25
    },
    {
      "t": 1203.8,
      "ch": 1,
      "note": 38,
      "vel": 57,
      "dur": 25
    },
    {
      "t": 1203.8,
      "ch": 1,
      "note": 40,
      "vel": 82,
      "dur": 25
    },
    {
      "t": 1203.8,
      "ch": 1,
      "note": 42,
      "vel": 75,
      "dur": 25
    },
    {
      "t": 1203.8,
      "ch": 1,
      "note": 36,
      "vel": 79,
      "dur": 25
    },
    {
      "t": 1203.8,
      "ch": 1,
      "note": 38,
      "vel": 96,
      "dur": 25
    },
    {
      "t": 1203.8,
      "ch": 1,
      "note": 40,
      "vel": 77,
      "dur": 25
    },
    {
      "t": 1203.8,
      "ch": 1,
      "note": 42,
      "vel": 76,
      "dur": 25
    },
    {
      "t": 1203.8,
      "ch": 1,
      "note": 36,
      "vel": 100,
      "dur": 25
    },
    {
      "t": 1203.8,
      "ch": 1,
      "note": 38,
      "vel": 109,
      "dur": 25
    },
    {
      "t": 1203.8,
      "ch": 1,
      "note": 40,
      "vel": 81,
      "dur": 25
    },
    {
      "t": 1203.8,
      "ch": 1,
      "note": 42,
      "vel": 95,
      "dur": 25
    },
    {
      "t": 1203.8,
      "ch": 1,
      "note": 36,
      "vel": 89,
      "dur": 25
    },
    {
      "t": 1203.8,
      "ch": 1,
      "note": 38,
      "vel": 73,
      "dur": 25
    },
    {
      "t": 1203.8,
      "ch": 1,
      "note": 40,
      "vel": 79,
      "dur": 25
    },
    {
      "t": 1203.8,
      "ch": 1,
      "note": 42,
      "vel": 75,
      "dur": 25
    },
    {
      "t": 1203.8,
      "ch": 1,
      "note": 36,
      "vel": 88,
      "dur": 25
    },
    {
      "t": 1203.8,
      "ch": 1,
      "note": 38,
      "vel": 87,
      "dur": 25
    },
    {
      "t": 1203.8,
      "ch": 1,
      "note": 40,
      "vel": 91,
      "dur": 25
    },
    {
      "t": 1203.8,
      "ch": 1,
      "note": 42,
      "vel": 86,
      "dur": 25
    },
    {
      "t": 1203.8,
      "ch": 1,
      "note": 36,
      "vel": 89,
      "dur": 25
    },
    {
      "t": 1203.8,
      "ch": 1,
      "note": 38,
      "vel": 101,
      "dur": 25
    },
    {
      "t": 1203.8,
      "ch": 1,
      "note": 40,
      "vel": 78,
      "dur": 25
    },
    {
      "t": 1203.8,
      "ch": 1,
      "note": 42,
      "vel": 64,
      "dur": 25
    },
    {
      "t": 1203.8,
      "ch": 1,
      "note": 36,
      "vel": 85,
      "dur": 25
    },
    {
      "t": 1203.8,
      "ch": 1,
      "note": 38,
      "vel": 98,
      "dur": 25
    },
    {
      "t": 1203.8,
      "ch": 1,
      "note": 40,
      "vel": 72,
      "dur": 25
    },
    {
      "t": 1203.8,
      "ch": 1,
      "note": 42,
      "vel": 89,
      "dur": 25
    },
    {
      "t": 1203.8,
      "ch": 1,
      "note": 36,
      "vel": 81,
      "dur": 25
    },
    {
      "t": 1203.8,
      "ch": 1,
      "note": 38,
      "vel": 101,
      "dur": 25
    },
    {
      "t": 1203.8,
      "ch": 1,
      "note": 40,
      "vel": 79,
      "dur": 25
    },
    {
      "t": 1203.8,
      "ch": 1,
      "note": 42,
      "vel": 81,
      "dur": 25
    },
    {
      "t": 1203.8,
      "ch": 1,
      "note": 36,
      "vel": 96,
      "dur": 25
    },
    {
      "t": 1203.8,
      "ch": 1,
      "note": 38,
      "vel": 108,
      "dur": 25
    },
    {
      "t": 1203.8,
      "ch": 1,
      "note": 40,
      "vel": 80,
      "dur": 25
    },
    {
      "t": 1203.8,
      "ch": 1,
      "note": 42,
      "vel": 82,
      "dur": 25
    },
    {
      "t": 1203.8,
      "ch": 1,
      "note": 36,
      "vel": 81,
      "dur": 25
    },
    {
      "t": 1203.8,
      "ch": 1,
      "note": 38,
      "vel": 74,
      "dur": 25
    },
    {
      "t": 1203.8,
      "ch": 1,
      "note": 40,
      "vel": 111,
      "dur": 25
    },
    {
      "t": 1203.8,
      "ch": 1,
      "note": 42,
      "vel": 89,
      "dur": 25
    },
    {
      "t": 1203.8,
      "ch": 1,
      "note": 36,
      "vel": 88,
      "dur": 25
    },
    {
      "t": 1203.8,
      "ch": 1,
      "note": 38,
      "vel": 73,
      "dur": 25
    },
    {
      "t": 1203.8,
      "ch": 1,
      "note": 40,
      "vel": 80,
      "dur": 25
    },
    {
      "t": 1203.8,
      "ch": 1,
      "note": 42,
      "vel": 77,
      "dur": 25
    },
    {
      "t": 1203.8,
      "ch": 1,
      "note": 36,
      "vel": 87,
      "dur": 25
    },
    {
      "t": 1203.8,
      "ch": 1,
      "note": 38,
      "vel": 83,
      "dur": 25
    },
    {
      "t": 1203.8,
      "ch": 1,
      "note": 40,
      "vel": 87,
      "dur": 25
    },
    {
      "t": 1203.8,
      "ch": 1,
      "note": 42,
      "vel": 80,
      "dur": 25
    },
    {
      "t": 1203.8,
      "ch": 1,
      "note": 36,
      "vel": 86,
      "dur": 25
    },
    {
      "t": 1203.8,
      "ch": 1,
      "note": 38,
      "vel": 90,
      "dur": 25
    },
    {
      "t": 1203.8,
      "ch": 1,
      "note": 40,
      "vel": 73,
      "dur": 25
    },
    {
      "t": 1203.8,
      "ch": 1,
      "note": 42,
      "vel": 90,
      "dur": 25
    },
    {
      "t": 1203.8,
      "ch": 1,
      "note": 36,
      "vel": 94,
      "dur": 25
    },
    {
      "t": 1203.8,
      "ch": 1,
      "note": 38,
      "vel": 67,
      "dur": 25
    },
    {
      "t": 1203.8,
      "ch": 1,
      "note": 40,
      "vel": 91,
      "dur": 25
    },
    {
      "t": 1203.8,
      "ch": 1,
      "note": 42,
      "vel": 65,
      "dur": 25
    },
    {
      "t": 1203.8,
      "ch": 1,
      "note": 36,
      "vel": 81,
      "dur": 25
    },
    {
      "t": 1203.8,
      "ch": 1,
      "note": 38,
      "vel": 80,
      "dur": 25
    },
    {
      "t": 1203.8,
      "ch": 1,
      "note": 40,
      "vel": 92,
      "dur": 25
    },
    {
      "t": 1203.8,
      "ch": 1,
      "note": 42,
      "vel": 107,
      "dur": 25
    },
    {
      "t": 1203.8,
      "ch": 1,
      "note": 36,
      "vel": 87,
      "dur": 25
    },
    {
      "t": 1203.8,
      "ch": 1,
      "note": 38,
      "vel": 72,
      "dur": 25
    },
    {
      "t": 1203.8,
      "ch": 1,
      "note": 40,
      "vel": 98,
      "dur": 25
    },
    {
      "t": 1203.8,
      "ch": 1,
      "note": 42,
      "vel": 84,
      "dur": 25
    },
    {
      "t": 1203.8,
      "ch": 1,
      "note": 36,
      "vel": 65,
      "dur": 25
    },
    {
      "t": 1203.8,
      "ch": 1,
      "note": 38,
      "vel": 72,
      "dur": 25
    },
    {
      "t": 1203.8,
      "ch": 1,
      "note": 40,
      "vel": 78,
      "dur": 25
    },
    {
      "t": 1203.8,
      "ch": 1,
      "note": 42,
      "vel": 59,
      "dur": 25
    },
    {
      "t": 1203.8,
      "ch": 1,
      "note": 36,
      "vel": 72,
      "dur": 25
    },
    {
      "t": 1203.8,
      "ch": 1,
      "note": 38,
      "vel": 92,
      "dur": 25
    },
    {
      "t": 1203.8,
      "ch": 1,
      "note": 40,
      "vel": 79,
      "dur": 25
    },
    {
      "t": 1203.8,
      "ch": 1,
      "note": 42,
      "vel": 88,
      "dur": 25
    },
    {
      "t": 1203.8,
      "ch": 1,
      "note": 36,
      "vel": 73,
      "dur": 25
    },
    {
      "t": 1203.8,
      "ch": 1,
      "note": 38,
      "vel": 113,
      "dur": 25
    },
    {
      "t": 1203.8,
      "ch": 1,
      "note": 40,
      "vel": 102,
      "dur": 25
    },
    {
      "t": 1203.8,
      "ch": 1,
      "note": 42,
      "vel": 63,
      "dur": 25
    },
    {
      "t": 1203.8,
      "ch": 1,
      "note": 36,
      "vel": 81,
      "dur": 25
    },
    {
      "t": 1203.8,
      "ch": 1,
      "note": 38,
      "vel": 82,
      "dur": 25
    },
    {
      "t": 1203.8,
      "ch": 1,
      "note": 40,
      "vel": 100,
      "dur": 25
    },
    {
      "t": 1203.8,
      "ch": 1,
      "note": 42,
      "vel": 90,
      "dur": 25
    },
    {
      "t": 1203.8,
      "ch": 1,
      "note": 36,
      "vel": 92,
      "dur": 25
    },
    {
      "t": 1203.8,
      "ch": 1,
      "note": 38,
      "vel": 58,
      "dur": 25
    },
    {
      "t": 1203.8,
      "ch": 1,
      "note": 40,
      "vel": 98,
      "dur": 25
    },
    {
      "t": 1203.8,
      "ch": 1,
      "note": 42,
      "vel": 76,
      "dur": 25
    },
    {
      "t": 1203.8,
      "ch": 1,
      "note": 36,
      "vel": 71,
      "dur": 25
    },
    {
      "t": 1203.8,
      "ch": 1,
      "note": 38,
      "vel": 83,
      "dur": 25
    },
    {
      "t": 1203.8,
      "ch": 1,
      "note": 40,
      "vel": 110,
      "dur": 25
    },
    {
      "t": 1203.8,
      "ch": 1,
      "note": 42,
      "vel": 89,
      "dur": 25
    },
    {
      "t": 1203.8,
      "ch": 1,
      "note": 36,
      "vel": 68,
      "dur": 25
    },
    {
      "t": 1203.8,
      "ch": 1,
      "note": 38,
      "vel": 58,
      "dur": 25
    },
    {
      "t": 1203.8,
      "ch": 1,
      "note": 40,
      "vel": 99,
      "dur": 25
    },
    {
      "t": 1203.8,
      "ch": 1,
      "note": 42,
      "vel": 102,
      "dur": 25
    },
    {
      "t": 1203.8,
      "ch": 1,
      "note": 36,
      "vel": 74,
      "dur": 25
    },
    {
      "t": 1203.8,
      "ch": 1,
      "note": 38,
      "vel": 79,
      "dur": 25
    },
    {
      "t": 1203.8,
      "ch": 1,
      "note": 40,
      "vel": 65,
      "dur": 25
    },
    {
      "t": 1203.8,
      "ch": 1,
      "note": 42,
      "vel": 66,
      "dur": 25
    },
    {
      "t": 1203.8,
      "ch": 1,
      "note": 36,
      "vel": 55,
      "dur": 25
    },
    {
      "t": 1203.8,
      "ch": 1,
      "note": 38,
      "vel": 93,
      "dur": 25
    },
    {
      "t": 1203.8,
      "ch": 1,
      "note": 40,
      "vel": 96,
      "dur": 25
    },
    {
      "t": 1203.8,
      "ch": 1,
      "note": 42,
      "vel": 81,
      "dur": 25
    },
    {
      "t": 1203.8,
      "ch": 1,
      "note": 36,
      "vel": 97,
      "dur": 25
    },
    {
      "t": 1203.8,
      "ch": 1,
      "note": 38,
      "vel": 68,
      "dur": 25
    },
    {
      "t": 1203.8,
      "ch": 1,
      "note": 40,
      "vel": 55,
      "dur": 25
    },
    {
      "t": 1203.8,
      "ch": 1,
      "note": 42,
      "vel": 83,
      "dur": 25
    },
    {
      "t": 1203.8,
      "ch": 1,
      "note": 36,
      "vel": 94,
      "dur": 25
    },
    {
      "t": 1203.8,
      "ch": 1,
      "note": 38,
      "vel": 79,
      "dur": 25
    },
    {
      "t": 1203.8,
      "ch": 1,
      "note": 40,
      "vel": 83,
      "dur": 25
    },
    {
      "t": 1203.8,
      "ch": 1,
      "note": 42,
      "vel": 81,
      "dur": 25
    },
    {
      "t": 1203.8,
      "ch": 1,
      "note": 36,
      "vel": 76,
      "dur": 25
    },
    {
      "t": 1203.8,
      "ch": 1,
      "note": 38,
      "vel": 77,
      "dur": 25
    },
    {
      "t": 1203.8,
      "ch": 1,
      "note": 40,
      "vel": 92,
      "dur": 25
    },
    {
      "t": 1203.8,
      "ch": 1,
      "note": 42,
      "vel": 106,
      "dur": 25
    },
    {
      "t": 1203.8,
      "ch": 1,
      "note": 36,
      "vel": 84,
      "dur": 25
    },
    {
      "t": 1203.8,
      "ch": 1,
      "note": 38,
      "vel": 84,
      "dur": 25
    },
    {
      "t": 1203.8,
      "ch": 1,
      "note": 40,
      "vel": 72,
      "dur": 25
    },
    {
      "t": 1203.8,
      "ch": 1,
      "note": 42,
      "vel": 75,
      "dur": 25
    },
    {
      "t": 1203.8,
      "ch": 1,
      "note": 36,
      "vel": 95,
      "dur": 25
    },
    {
      "t": 1203.8,
      "ch": 1,
      "note": 38,
      "vel": 76,
      "dur": 25
    },
    {
      "t": 1203.8,
      "ch": 1,
      "note": 40,
      "vel": 64,
      "dur": 25
    },
    {
      "t": 1203.8,
      "ch": 1,
      "note": 42,
      "vel": 66,
      "dur": 25
    },
    {
      "t": 1203.8,
      "ch": 1,
      "note": 36,
      "vel": 86,
      "dur": 25
    },
    {
      "t": 1203.8,
      "ch": 1,
      "note": 38,
      "vel": 73,
      "dur": 25
    },
    {
      "t": 1203.8,
      "ch": 1,
      "note": 40,
      "vel": 103,
      "dur": 25
    },
    {
      "t": 1203.8,
      "ch": 1,
      "note": 42,
      "vel": 71,
      "dur": 25
    },
    {
      "t": 1203.8,
      "ch": 1,
      "note": 36,
      "vel": 82,
      "dur": 25
    },
    {
      "t": 1203.8,
      "ch": 7,
      "note": 48,
      "vel": 73,
      "dur": 80
    },
    {
      "t": 1203.8,
      "ch": 7,
      "note": 45,
      "vel": 65,
      "dur": 80
    },
    {
      "t": 1203.8,
      "ch": 7,
      "note": 36,
      "vel": 73,
      "dur": 80
    },
    {
      "t": 1203.8,
      "ch": 7,
      "note": 38,
      "vel": 75,
      "dur": 80
    },
    {
      "t": 1203.9,
      "ch": 1,
      "note": 38,
      "vel": 67,
      "dur": 25
    },
    {
      "t": 1204,
      "ch": 1,
      "note": 40,
      "vel": 48,
      "dur": 25
    },
    {
      "t": 1204.1,
      "ch": 1,
      "note": 42,
      "vel": 85,
      "dur": 25
    },
    {
      "t": 1204.1,
      "ch": 1,
      "note": 36,
      "vel": 60,
      "dur": 25
    },
    {
      "t": 1204.1,
      "ch": 7,
      "note": 36,
      "vel": 62,
      "dur": 80
    },
    {
      "t": 1204.2,
      "ch": 1,
      "note": 38,
      "vel": 89,
      "dur": 25
    },
    {
      "t": 1204.3,
      "ch": 1,
      "note": 40,
      "vel": 74,
      "dur": 25
    },
    {
      "t": 1204.4,
      "ch": 1,
      "note": 42,
      "vel": 83,
      "dur": 25
    },
    {
      "t": 1204.5,
      "ch": 1,
      "note": 36,
      "vel": 82,
      "dur": 25
    },
    {
      "t": 1204.5,
      "ch": 7,
      "note": 48,
      "vel": 62,
      "dur": 80
    },
    {
      "t": 1204.5,
      "ch": 7,
      "note": 36,
      "vel": 85,
      "dur": 80
    },
    {
      "t": 1204.6,
      "ch": 1,
      "note": 38,
      "vel": 110,
      "dur": 25
    },
    {
      "t": 1204.6,
      "ch": 1,
      "note": 40,
      "vel": 46,
      "dur": 25
    },
    {
      "t": 1204.6,
      "ch": 7,
      "note": 45,
      "vel": 59,
      "dur": 80
    },
    {
      "t": 1204.6,
      "ch": 7,
      "note": 38,
      "vel": 66,
      "dur": 80
    },
    {
      "t": 1204.7,
      "ch": 1,
      "note": 42,
      "vel": 100,
      "dur": 25
    },
    {
      "t": 1204.8,
      "ch": 1,
      "note": 36,
      "vel": 65,
      "dur": 25
    },
    {
      "t": 1204.9,
      "ch": 1,
      "note": 38,
      "vel": 60,
      "dur": 25
    },
    {
      "t": 1205,
      "ch": 1,
      "note": 40,
      "vel": 65,
      "dur": 25
    },
    {
      "t": 1205,
      "ch": 1,
      "note": 42,
      "vel": 63,
      "dur": 25
    },
    {
      "t": 1205.1,
      "ch": 1,
      "note": 36,
      "vel": 54,
      "dur": 25
    },
    {
      "t": 1205.1,
      "ch": 7,
      "note": 48,
      "vel": 70,
      "dur": 80
    },
    {
      "t": 1205.1,
      "ch": 7,
      "note": 36,
      "vel": 62,
      "dur": 80
    },
    {
      "t": 1205.1,
      "ch": 6,
      "note": 74,
      "vel": 15,
      "dur": 624
    },
    {
      "t": 1205.2,
      "ch": 1,
      "note": 38,
      "vel": 93,
      "dur": 25
    },
    {
      "t": 1205.3,
      "ch": 1,
      "note": 40,
      "vel": 51,
      "dur": 25
    },
    {
      "t": 1205.4,
      "ch": 1,
      "note": 42,
      "vel": 79,
      "dur": 25
    },
    {
      "t": 1205.4,
      "ch": 1,
      "note": 36,
      "vel": 69,
      "dur": 25
    },
    {
      "t": 1205.5,
      "ch": 7,
      "note": 45,
      "vel": 54,
      "dur": 80
    },
    {
      "t": 1205.5,
      "ch": 7,
      "note": 36,
      "vel": 63,
      "dur": 80
    },
    {
      "t": 1205.5,
      "ch": 7,
      "note": 38,
      "vel": 58,
      "dur": 80
    },
    {
      "t": 1205.5,
      "ch": 1,
      "note": 38,
      "vel": 67,
      "dur": 25
    },
    {
      "t": 1205.6,
      "ch": 1,
      "note": 40,
      "vel": 72,
      "dur": 25
    },
    {
      "t": 1205.7,
      "ch": 1,
      "note": 42,
      "vel": 50,
      "dur": 25
    },
    {
      "t": 1205.8,
      "ch": 1,
      "note": 36,
      "vel": 78,
      "dur": 25
    },
    {
      "t": 1205.8,
      "ch": 7,
      "note": 48,
      "vel": 74,
      "dur": 80
    },
    {
      "t": 1205.8,
      "ch": 7,
      "note": 36,
      "vel": 80,
      "dur": 80
    },
    {
      "t": 1205.9,
      "ch": 1,
      "note": 38,
      "vel": 106,
      "dur": 25
    },
    {
      "t": 1205.9,
      "ch": 1,
      "note": 40,
      "vel": 61,
      "dur": 25
    },
    {
      "t": 1206,
      "ch": 1,
      "note": 42,
      "vel": 79,
      "dur": 25
    },
    {
      "t": 1206.1,
      "ch": 1,
      "note": 36,
      "vel": 87,
      "dur": 25
    },
    {
      "t": 1206.2,
      "ch": 1,
      "note": 38,
      "vel": 53,
      "dur": 25
    },
    {
      "t": 1206.3,
      "ch": 1,
      "note": 40,
      "vel": 83,
      "dur": 25
    },
    {
      "t": 1206.4,
      "ch": 1,
      "note": 42,
      "vel": 83,
      "dur": 25
    },
    {
      "t": 1206.4,
      "ch": 0,
      "note": 36,
      "vel": 119,
      "dur": 55
    },
    {
      "t": 1206.4,
      "ch": 1,
      "note": 36,
      "vel": 67,
      "dur": 25
    },
    {
      "t": 1206.4,
      "ch": 7,
      "note": 48,
      "vel": 74,
      "dur": 80
    },
    {
      "t": 1206.4,
      "ch": 7,
      "note": 45,
      "vel": 66,
      "dur": 80
    },
    {
      "t": 1206.4,
      "ch": 7,
      "note": 36,
      "vel": 69,
      "dur": 80
    },
    {
      "t": 1206.4,
      "ch": 7,
      "note": 38,
      "vel": 66,
      "dur": 80
    },
    {
      "t": 1206.5,
      "ch": 1,
      "note": 38,
      "vel": 105,
      "dur": 25
    },
    {
      "t": 1206.6,
      "ch": 1,
      "note": 40,
      "vel": 76,
      "dur": 25
    },
    {
      "t": 1206.7,
      "ch": 1,
      "note": 42,
      "vel": 59,
      "dur": 25
    },
    {
      "t": 1206.8,
      "ch": 1,
      "note": 36,
      "vel": 61,
      "dur": 25
    },
    {
      "t": 1206.8,
      "ch": 7,
      "note": 36,
      "vel": 62,
      "dur": 80
    },
    {
      "t": 1206.8,
      "ch": 1,
      "note": 38,
      "vel": 69,
      "dur": 25
    },
    {
      "t": 1206.9,
      "ch": 1,
      "note": 40,
      "vel": 74,
      "dur": 25
    },
    {
      "t": 1207,
      "ch": 1,
      "note": 42,
      "vel": 60,
      "dur": 25
    },
    {
      "t": 1207.1,
      "ch": 1,
      "note": 36,
      "vel": 64,
      "dur": 25
    },
    {
      "t": 1207.1,
      "ch": 7,
      "note": 48,
      "vel": 75,
      "dur": 80
    },
    {
      "t": 1207.1,
      "ch": 7,
      "note": 36,
      "vel": 63,
      "dur": 80
    },
    {
      "t": 1207.2,
      "ch": 1,
      "note": 38,
      "vel": 72,
      "dur": 25
    },
    {
      "t": 1207.2,
      "ch": 1,
      "note": 40,
      "vel": 66,
      "dur": 25
    },
    {
      "t": 1207.3,
      "ch": 7,
      "note": 45,
      "vel": 63,
      "dur": 80
    },
    {
      "t": 1207.3,
      "ch": 7,
      "note": 38,
      "vel": 61,
      "dur": 80
    },
    {
      "t": 1207.3,
      "ch": 1,
      "note": 42,
      "vel": 66,
      "dur": 25
    },
    {
      "t": 1207.4,
      "ch": 1,
      "note": 36,
      "vel": 56,
      "dur": 25
    },
    {
      "t": 1207.5,
      "ch": 1,
      "note": 38,
      "vel": 62,
      "dur": 25
    },
    {
      "t": 1207.6,
      "ch": 1,
      "note": 40,
      "vel": 87,
      "dur": 25
    },
    {
      "t": 1207.6,
      "ch": 0,
      "note": 36,
      "vel": 82,
      "dur": 55
    },
    {
      "t": 1207.6,
      "ch": 6,
      "note": 64,
      "vel": 29,
      "dur": 616
    },
    {
      "t": 1207.6,
      "ch": 1,
      "note": 42,
      "vel": 64,
      "dur": 25
    },
    {
      "t": 1207.7,
      "ch": 1,
      "note": 36,
      "vel": 68,
      "dur": 25
    },
    {
      "t": 1207.7,
      "ch": 7,
      "note": 48,
      "vel": 72,
      "dur": 80
    },
    {
      "t": 1207.7,
      "ch": 7,
      "note": 36,
      "vel": 65,
      "dur": 80
    },
    {
      "t": 1207.7,
      "ch": 5,
      "note": 67,
      "vel": 42,
      "dur": 924
    },
    {
      "t": 1207.8,
      "ch": 1,
      "note": 38,
      "vel": 77,
      "dur": 25
    },
    {
      "t": 1207.9,
      "ch": 1,
      "note": 40,
      "vel": 81,
      "dur": 25
    },
    {
      "t": 1208,
      "ch": 1,
      "note": 42,
      "vel": 90,
      "dur": 25
    },
    {
      "t": 1208.1,
      "ch": 1,
      "note": 36,
      "vel": 59,
      "dur": 25
    },
    {
      "t": 1208.1,
      "ch": 7,
      "note": 45,
      "vel": 57,
      "dur": 80
    },
    {
      "t": 1208.1,
      "ch": 7,
      "note": 36,
      "vel": 70,
      "dur": 80
    },
    {
      "t": 1208.1,
      "ch": 7,
      "note": 38,
      "vel": 56,
      "dur": 80
    },
    {
      "t": 1208.1,
      "ch": 1,
      "note": 38,
      "vel": 87,
      "dur": 25
    },
    {
      "t": 1208.2,
      "ch": 1,
      "note": 40,
      "vel": 65,
      "dur": 25
    },
    {
      "t": 1208.3,
      "ch": 1,
      "note": 42,
      "vel": 78,
      "dur": 25
    },
    {
      "t": 1208.4,
      "ch": 0,
      "note": 36,
      "vel": 94,
      "dur": 55
    },
    {
      "t": 1208.4,
      "ch": 1,
      "note": 36,
      "vel": 92,
      "dur": 25
    },
    {
      "t": 1208.4,
      "ch": 7,
      "note": 48,
      "vel": 68,
      "dur": 80
    },
    {
      "t": 1208.4,
      "ch": 7,
      "note": 36,
      "vel": 79,
      "dur": 80
    },
    {
      "t": 1208.5,
      "ch": 1,
      "note": 38,
      "vel": 69,
      "dur": 25
    },
    {
      "t": 1208.5,
      "ch": 1,
      "note": 40,
      "vel": 79,
      "dur": 25
    },
    {
      "t": 1208.6,
      "ch": 1,
      "note": 42,
      "vel": 71,
      "dur": 25
    },
    {
      "t": 1208.7,
      "ch": 1,
      "note": 36,
      "vel": 91,
      "dur": 25
    },
    {
      "t": 1208.8,
      "ch": 1,
      "note": 38,
      "vel": 70,
      "dur": 25
    },
    {
      "t": 1208.9,
      "ch": 1,
      "note": 40,
      "vel": 53,
      "dur": 25
    },
    {
      "t": 1209,
      "ch": 1,
      "note": 42,
      "vel": 80,
      "dur": 25
    },
    {
      "t": 1209,
      "ch": 0,
      "note": 36,
      "vel": 115,
      "dur": 55
    },
    {
      "t": 1209,
      "ch": 1,
      "note": 36,
      "vel": 95,
      "dur": 25
    },
    {
      "t": 1209,
      "ch": 7,
      "note": 48,
      "vel": 61,
      "dur": 80
    },
    {
      "t": 1209,
      "ch": 7,
      "note": 45,
      "vel": 64,
      "dur": 80
    },
    {
      "t": 1209,
      "ch": 7,
      "note": 36,
      "vel": 71,
      "dur": 80
    },
    {
      "t": 1209,
      "ch": 7,
      "note": 38,
      "vel": 72,
      "dur": 80
    },
    {
      "t": 1209.1,
      "ch": 1,
      "note": 38,
      "vel": 80,
      "dur": 25
    },
    {
      "t": 1209.2,
      "ch": 1,
      "note": 40,
      "vel": 60,
      "dur": 25
    },
    {
      "t": 1209.3,
      "ch": 1,
      "note": 42,
      "vel": 78,
      "dur": 25
    },
    {
      "t": 1209.4,
      "ch": 1,
      "note": 36,
      "vel": 78,
      "dur": 25
    },
    {
      "t": 1209.4,
      "ch": 7,
      "note": 36,
      "vel": 63,
      "dur": 80
    },
    {
      "t": 1209.4,
      "ch": 1,
      "note": 38,
      "vel": 75,
      "dur": 25
    },
    {
      "t": 1209.5,
      "ch": 1,
      "note": 40,
      "vel": 70,
      "dur": 25
    },
    {
      "t": 1209.5,
      "ch": 5,
      "note": 72,
      "vel": 17,
      "dur": 922
    },
    {
      "t": 1209.6,
      "ch": 1,
      "note": 42,
      "vel": 68,
      "dur": 25
    },
    {
      "t": 1209.7,
      "ch": 1,
      "note": 36,
      "vel": 62,
      "dur": 25
    },
    {
      "t": 1209.7,
      "ch": 7,
      "note": 48,
      "vel": 70,
      "dur": 80
    },
    {
      "t": 1209.7,
      "ch": 7,
      "note": 36,
      "vel": 73,
      "dur": 80
    },
    {
      "t": 1209.8,
      "ch": 1,
      "note": 38,
      "vel": 82,
      "dur": 25
    },
    {
      "t": 1209.9,
      "ch": 1,
      "note": 40,
      "vel": 57,
      "dur": 25
    },
    {
      "t": 1209.9,
      "ch": 7,
      "note": 45,
      "vel": 69,
      "dur": 80
    },
    {
      "t": 1209.9,
      "ch": 7,
      "note": 38,
      "vel": 61,
      "dur": 80
    },
    {
      "t": 1209.9,
      "ch": 1,
      "note": 42,
      "vel": 76,
      "dur": 25
    },
    {
      "t": 1209.9,
      "ch": 6,
      "note": 74,
      "vel": 12,
      "dur": 400
    },
    {
      "t": 1210,
      "ch": 1,
      "note": 36,
      "vel": 84,
      "dur": 25
    },
    {
      "t": 1210.1,
      "ch": 1,
      "note": 38,
      "vel": 90,
      "dur": 25
    },
    {
      "t": 1210.2,
      "ch": 1,
      "note": 40,
      "vel": 57,
      "dur": 25
    },
    {
      "t": 1210.2,
      "ch": 0,
      "note": 36,
      "vel": 78,
      "dur": 55
    },
    {
      "t": 1210.3,
      "ch": 1,
      "note": 42,
      "vel": 68,
      "dur": 25
    },
    {
      "t": 1210.3,
      "ch": 1,
      "note": 36,
      "vel": 65,
      "dur": 25
    },
    {
      "t": 1210.3,
      "ch": 7,
      "note": 48,
      "vel": 76,
      "dur": 80
    },
    {
      "t": 1210.3,
      "ch": 7,
      "note": 36,
      "vel": 57,
      "dur": 80
    },
    {
      "t": 1210.4,
      "ch": 1,
      "note": 38,
      "vel": 56,
      "dur": 25
    },
    {
      "t": 1210.5,
      "ch": 1,
      "note": 40,
      "vel": 83,
      "dur": 25
    },
    {
      "t": 1210.6,
      "ch": 1,
      "note": 42,
      "vel": 73,
      "dur": 25
    },
    {
      "t": 1210.7,
      "ch": 1,
      "note": 36,
      "vel": 61,
      "dur": 25
    },
    {
      "t": 1210.7,
      "ch": 7,
      "note": 45,
      "vel": 59,
      "dur": 80
    },
    {
      "t": 1210.7,
      "ch": 7,
      "note": 36,
      "vel": 57,
      "dur": 80
    },
    {
      "t": 1210.7,
      "ch": 7,
      "note": 38,
      "vel": 51,
      "dur": 80
    },
    {
      "t": 1210.8,
      "ch": 1,
      "note": 38,
      "vel": 56,
      "dur": 25
    },
    {
      "t": 1210.8,
      "ch": 1,
      "note": 40,
      "vel": 46,
      "dur": 25
    },
    {
      "t": 1210.9,
      "ch": 1,
      "note": 42,
      "vel": 64,
      "dur": 25
    },
    {
      "t": 1211,
      "ch": 0,
      "note": 36,
      "vel": 90,
      "dur": 55
    },
    {
      "t": 1211,
      "ch": 1,
      "note": 36,
      "vel": 103,
      "dur": 25
    },
    {
      "t": 1211,
      "ch": 7,
      "note": 48,
      "vel": 69,
      "dur": 80
    },
    {
      "t": 1211,
      "ch": 7,
      "note": 36,
      "vel": 73,
      "dur": 80
    },
    {
      "t": 1211,
      "ch": 5,
      "note": 71,
      "vel": 30,
      "dur": 923
    },
    {
      "t": 1211.1,
      "ch": 1,
      "note": 38,
      "vel": 86,
      "dur": 25
    },
    {
      "t": 1211.2,
      "ch": 1,
      "note": 40,
      "vel": 67,
      "dur": 25
    },
    {
      "t": 1211.2,
      "ch": 1,
      "note": 42,
      "vel": 56,
      "dur": 25
    },
    {
      "t": 1211.3,
      "ch": 1,
      "note": 36,
      "vel": 81,
      "dur": 25
    },
    {
      "t": 1211.4,
      "ch": 1,
      "note": 38,
      "vel": 70,
      "dur": 25
    },
    {
      "t": 1211.5,
      "ch": 1,
      "note": 40,
      "vel": 72,
      "dur": 25
    },
    {
      "t": 1211.6,
      "ch": 1,
      "note": 42,
      "vel": 85,
      "dur": 25
    },
    {
      "t": 1211.6,
      "ch": 0,
      "note": 36,
      "vel": 113,
      "dur": 55
    },
    {
      "t": 1211.6,
      "ch": 1,
      "note": 36,
      "vel": 78,
      "dur": 25
    },
    {
      "t": 1211.6,
      "ch": 7,
      "note": 48,
      "vel": 79,
      "dur": 80
    },
    {
      "t": 1211.6,
      "ch": 7,
      "note": 45,
      "vel": 72,
      "dur": 80
    },
    {
      "t": 1211.6,
      "ch": 7,
      "note": 36,
      "vel": 65,
      "dur": 80
    },
    {
      "t": 1211.6,
      "ch": 7,
      "note": 38,
      "vel": 72,
      "dur": 80
    },
    {
      "t": 1211.7,
      "ch": 1,
      "note": 38,
      "vel": 85,
      "dur": 25
    },
    {
      "t": 1211.8,
      "ch": 1,
      "note": 40,
      "vel": 47,
      "dur": 25
    },
    {
      "t": 1211.9,
      "ch": 1,
      "note": 42,
      "vel": 52,
      "dur": 25
    },
    {
      "t": 1212,
      "ch": 1,
      "note": 36,
      "vel": 57,
      "dur": 25
    },
    {
      "t": 1212,
      "ch": 7,
      "note": 36,
      "vel": 54,
      "dur": 80
    },
    {
      "t": 1212.1,
      "ch": 1,
      "note": 38,
      "vel": 73,
      "dur": 25
    },
    {
      "t": 1212.1,
      "ch": 1,
      "note": 40,
      "vel": 86,
      "dur": 25
    },
    {
      "t": 1212.2,
      "ch": 1,
      "note": 42,
      "vel": 65,
      "dur": 25
    },
    {
      "t": 1212.3,
      "ch": 1,
      "note": 36,
      "vel": 92,
      "dur": 25
    },
    {
      "t": 1212.3,
      "ch": 7,
      "note": 48,
      "vel": 85,
      "dur": 80
    },
    {
      "t": 1212.3,
      "ch": 7,
      "note": 36,
      "vel": 68,
      "dur": 80
    },
    {
      "t": 1212.4,
      "ch": 1,
      "note": 38,
      "vel": 72,
      "dur": 25
    },
    {
      "t": 1212.5,
      "ch": 1,
      "note": 40,
      "vel": 67,
      "dur": 25
    },
    {
      "t": 1212.5,
      "ch": 7,
      "note": 45,
      "vel": 68,
      "dur": 80
    },
    {
      "t": 1212.5,
      "ch": 7,
      "note": 38,
      "vel": 66,
      "dur": 80
    },
    {
      "t": 1212.5,
      "ch": 1,
      "note": 42,
      "vel": 87,
      "dur": 25
    },
    {
      "t": 1212.6,
      "ch": 1,
      "note": 36,
      "vel": 71,
      "dur": 25
    },
    {
      "t": 1212.7,
      "ch": 1,
      "note": 38,
      "vel": 78,
      "dur": 25
    },
    {
      "t": 1212.8,
      "ch": 1,
      "note": 40,
      "vel": 74,
      "dur": 25
    },
    {
      "t": 1212.8,
      "ch": 0,
      "note": 36,
      "vel": 81,
      "dur": 55
    },
    {
      "t": 1212.9,
      "ch": 1,
      "note": 42,
      "vel": 81,
      "dur": 25
    },
    {
      "t": 1212.9,
      "ch": 1,
      "note": 36,
      "vel": 86,
      "dur": 25
    },
    {
      "t": 1212.9,
      "ch": 7,
      "note": 48,
      "vel": 74,
      "dur": 80
    },
    {
      "t": 1212.9,
      "ch": 7,
      "note": 36,
      "vel": 71,
      "dur": 80
    },
    {
      "t": 1213,
      "ch": 1,
      "note": 38,
      "vel": 83,
      "dur": 25
    },
    {
      "t": 1213.1,
      "ch": 1,
      "note": 40,
      "vel": 101,
      "dur": 25
    },
    {
      "t": 1213.2,
      "ch": 1,
      "note": 42,
      "vel": 68,
      "dur": 25
    },
    {
      "t": 1213.3,
      "ch": 1,
      "note": 36,
      "vel": 70,
      "dur": 25
    },
    {
      "t": 1213.3,
      "ch": 7,
      "note": 45,
      "vel": 56,
      "dur": 80
    },
    {
      "t": 1213.3,
      "ch": 7,
      "note": 36,
      "vel": 64,
      "dur": 80
    },
    {
      "t": 1213.3,
      "ch": 7,
      "note": 38,
      "vel": 64,
      "dur": 80
    },
    {
      "t": 1213.4,
      "ch": 1,
      "note": 38,
      "vel": 65,
      "dur": 25
    },
    {
      "t": 1213.4,
      "ch": 1,
      "note": 40,
      "vel": 57,
      "dur": 25
    },
    {
      "t": 1213.5,
      "ch": 1,
      "note": 42,
      "vel": 93,
      "dur": 25
    },
    {
      "t": 1213.6,
      "ch": 0,
      "note": 36,
      "vel": 93,
      "dur": 55
    },
    {
      "t": 1213.6,
      "ch": 1,
      "note": 36,
      "vel": 74,
      "dur": 25
    },
    {
      "t": 1213.6,
      "ch": 7,
      "note": 48,
      "vel": 84,
      "dur": 80
    },
    {
      "t": 1213.6,
      "ch": 7,
      "note": 36,
      "vel": 81,
      "dur": 80
    },
    {
      "t": 1213.7,
      "ch": 1,
      "note": 38,
      "vel": 108,
      "dur": 25
    },
    {
      "t": 1213.8,
      "ch": 1,
      "note": 40,
      "vel": 70,
      "dur": 25
    },
    {
      "t": 1213.8,
      "ch": 1,
      "note": 42,
      "vel": 72,
      "dur": 25
    },
    {
      "t": 1213.9,
      "ch": 1,
      "note": 36,
      "vel": 86,
      "dur": 25
    },
    {
      "t": 1214,
      "ch": 1,
      "note": 38,
      "vel": 85,
      "dur": 25
    },
    {
      "t": 1214.1,
      "ch": 1,
      "note": 40,
      "vel": 59,
      "dur": 25
    },
    {
      "t": 1214.2,
      "ch": 1,
      "note": 42,
      "vel": 74,
      "dur": 25
    },
    {
      "t": 1214.2,
      "ch": 7,
      "note": 48,
      "vel": 71,
      "dur": 80
    },
    {
      "t": 1214.2,
      "ch": 7,
      "note": 45,
      "vel": 82,
      "dur": 80
    },
    {
      "t": 1214.2,
      "ch": 7,
      "note": 36,
      "vel": 74,
      "dur": 80
    },
    {
      "t": 1214.2,
      "ch": 7,
      "note": 38,
      "vel": 69,
      "dur": 80
    },
    {
      "t": 1214.4,
      "ch": 5,
      "note": 71,
      "vel": 18,
      "dur": 938
    },
    {
      "t": 1214.6,
      "ch": 7,
      "note": 36,
      "vel": 62,
      "dur": 80
    },
    {
      "t": 1214.9,
      "ch": 7,
      "note": 48,
      "vel": 59,
      "dur": 80
    },
    {
      "t": 1214.9,
      "ch": 7,
      "note": 36,
      "vel": 67,
      "dur": 80
    },
    {
      "t": 1215.1,
      "ch": 7,
      "note": 45,
      "vel": 67,
      "dur": 80
    },
    {
      "t": 1215.1,
      "ch": 7,
      "note": 38,
      "vel": 55,
      "dur": 80
    },
    {
      "t": 1215.3,
      "ch": 5,
      "note": 67,
      "vel": 20,
      "dur": 943
    },
    {
      "t": 1215.5,
      "ch": 2,
      "note": 50,
      "vel": 55,
      "dur": 19565
    },
    {
      "t": 1215.5,
      "ch": 2,
      "note": 62,
      "vel": 39,
      "dur": 19565
    },
    {
      "t": 1215.5,
      "ch": 6,
      "note": 71,
      "vel": 13,
      "dur": 400
    },
    {
      "t": 1215.6,
      "ch": 7,
      "note": 48,
      "vel": 63,
      "dur": 80
    },
    {
      "t": 1215.6,
      "ch": 7,
      "note": 36,
      "vel": 66,
      "dur": 80
    },
    {
      "t": 1215.9,
      "ch": 7,
      "note": 45,
      "vel": 57,
      "dur": 80
    },
    {
      "t": 1215.9,
      "ch": 7,
      "note": 36,
      "vel": 54,
      "dur": 80
    },
    {
      "t": 1215.9,
      "ch": 7,
      "note": 38,
      "vel": 47,
      "dur": 80
    },
    {
      "t": 1216.2,
      "ch": 7,
      "note": 48,
      "vel": 69,
      "dur": 80
    },
    {
      "t": 1216.2,
      "ch": 7,
      "note": 36,
      "vel": 73,
      "dur": 80
    },
    {
      "t": 1216.4,
      "ch": 5,
      "note": 72,
      "vel": 17,
      "dur": 949
    },
    {
      "t": 1216.7,
      "ch": 6,
      "note": 74,
      "vel": 4,
      "dur": 400
    },
    {
      "t": 1216.9,
      "ch": 7,
      "note": 48,
      "vel": 57,
      "dur": 80
    },
    {
      "t": 1216.9,
      "ch": 7,
      "note": 45,
      "vel": 65,
      "dur": 80
    },
    {
      "t": 1216.9,
      "ch": 7,
      "note": 36,
      "vel": 59,
      "dur": 80
    },
    {
      "t": 1216.9,
      "ch": 7,
      "note": 38,
      "vel": 63,
      "dur": 80
    },
    {
      "t": 1217.2,
      "ch": 7,
      "note": 36,
      "vel": 67,
      "dur": 80
    },
    {
      "t": 1217.5,
      "ch": 7,
      "note": 48,
      "vel": 80,
      "dur": 80
    },
    {
      "t": 1217.5,
      "ch": 7,
      "note": 36,
      "vel": 75,
      "dur": 80
    },
    {
      "t": 1217.7,
      "ch": 7,
      "note": 45,
      "vel": 56,
      "dur": 80
    },
    {
      "t": 1217.7,
      "ch": 7,
      "note": 38,
      "vel": 63,
      "dur": 80
    },
    {
      "t": 1218.1,
      "ch": 4,
      "note": 57,
      "vel": 42,
      "dur": 5167
    },
    {
      "t": 1218.1,
      "ch": 4,
      "note": 52,
      "vel": 40,
      "dur": 5167
    },
    {
      "t": 1218.2,
      "ch": 7,
      "note": 48,
      "vel": 73,
      "dur": 80
    },
    {
      "t": 1218.2,
      "ch": 7,
      "note": 36,
      "vel": 78,
      "dur": 80
    },
    {
      "t": 1218.5,
      "ch": 7,
      "note": 45,
      "vel": 65,
      "dur": 80
    },
    {
      "t": 1218.5,
      "ch": 7,
      "note": 36,
      "vel": 55,
      "dur": 80
    },
    {
      "t": 1218.5,
      "ch": 7,
      "note": 38,
      "vel": 58,
      "dur": 80
    },
    {
      "t": 1218.8,
      "ch": 7,
      "note": 48,
      "vel": 70,
      "dur": 80
    },
    {
      "t": 1218.8,
      "ch": 7,
      "note": 36,
      "vel": 60,
      "dur": 80
    },
    {
      "t": 1219.5,
      "ch": 7,
      "note": 48,
      "vel": 72,
      "dur": 80
    },
    {
      "t": 1219.5,
      "ch": 7,
      "note": 45,
      "vel": 76,
      "dur": 80
    },
    {
      "t": 1219.5,
      "ch": 7,
      "note": 36,
      "vel": 59,
      "dur": 80
    },
    {
      "t": 1219.5,
      "ch": 7,
      "note": 38,
      "vel": 70,
      "dur": 80
    },
    {
      "t": 1219.6,
      "ch": 5,
      "note": 71,
      "vel": 37,
      "dur": 960
    },
    {
      "t": 1219.8,
      "ch": 7,
      "note": 36,
      "vel": 58,
      "dur": 80
    },
    {
      "t": 1220,
      "ch": 6,
      "note": 75,
      "vel": 17,
      "dur": 400
    },
    {
      "t": 1220.1,
      "ch": 7,
      "note": 48,
      "vel": 73,
      "dur": 80
    },
    {
      "t": 1220.1,
      "ch": 7,
      "note": 36,
      "vel": 73,
      "dur": 80
    },
    {
      "t": 1220.3,
      "ch": 7,
      "note": 45,
      "vel": 51,
      "dur": 80
    },
    {
      "t": 1220.3,
      "ch": 7,
      "note": 38,
      "vel": 61,
      "dur": 80
    },
    {
      "t": 1220.6,
      "ch": 5,
      "note": 71,
      "vel": 41,
      "dur": 961
    },
    {
      "t": 1220.8,
      "ch": 7,
      "note": 48,
      "vel": 79,
      "dur": 80
    },
    {
      "t": 1220.8,
      "ch": 7,
      "note": 36,
      "vel": 65,
      "dur": 80
    },
    {
      "t": 1221.1,
      "ch": 7,
      "note": 45,
      "vel": 65,
      "dur": 80
    },
    {
      "t": 1221.1,
      "ch": 7,
      "note": 36,
      "vel": 58,
      "dur": 80
    },
    {
      "t": 1221.1,
      "ch": 7,
      "note": 38,
      "vel": 59,
      "dur": 80
    },
    {
      "t": 1221.4,
      "ch": 7,
      "note": 48,
      "vel": 66,
      "dur": 80
    },
    {
      "t": 1221.4,
      "ch": 7,
      "note": 36,
      "vel": 75,
      "dur": 80
    },
    {
      "t": 1222.1,
      "ch": 7,
      "note": 48,
      "vel": 66,
      "dur": 80
    },
    {
      "t": 1222.1,
      "ch": 7,
      "note": 45,
      "vel": 72,
      "dur": 80
    },
    {
      "t": 1222.1,
      "ch": 7,
      "note": 36,
      "vel": 72,
      "dur": 80
    },
    {
      "t": 1222.1,
      "ch": 7,
      "note": 38,
      "vel": 64,
      "dur": 80
    },
    {
      "t": 1222.3,
      "ch": 5,
      "note": 67,
      "vel": 29,
      "dur": 958
    },
    {
      "t": 1222.4,
      "ch": 7,
      "note": 36,
      "vel": 51,
      "dur": 80
    },
    {
      "t": 1222.6,
      "ch": 5,
      "note": 64,
      "vel": 11,
      "dur": 957
    },
    {
      "t": 1222.7,
      "ch": 6,
      "note": 72,
      "vel": 1,
      "dur": 400
    },
    {
      "t": 1222.7,
      "ch": 7,
      "note": 48,
      "vel": 79,
      "dur": 80
    },
    {
      "t": 1222.7,
      "ch": 7,
      "note": 36,
      "vel": 67,
      "dur": 80
    },
    {
      "t": 1222.9,
      "ch": 7,
      "note": 45,
      "vel": 71,
      "dur": 80
    },
    {
      "t": 1222.9,
      "ch": 7,
      "note": 38,
      "vel": 53,
      "dur": 80
    },
    {
      "t": 1222.9,
      "ch": 5,
      "note": 67,
      "vel": 10,
      "dur": 956
    },
    {
      "t": 1223.3,
      "ch": 4,
      "note": 57,
      "vel": 42,
      "dur": 5167
    },
    {
      "t": 1223.3,
      "ch": 4,
      "note": 60,
      "vel": 42,
      "dur": 5167
    },
    {
      "t": 1223.4,
      "ch": 7,
      "note": 48,
      "vel": 67,
      "dur": 80
    },
    {
      "t": 1223.4,
      "ch": 7,
      "note": 36,
      "vel": 85,
      "dur": 80
    },
    {
      "t": 1223.7,
      "ch": 7,
      "note": 45,
      "vel": 65,
      "dur": 80
    },
    {
      "t": 1223.7,
      "ch": 7,
      "note": 36,
      "vel": 65,
      "dur": 80
    },
    {
      "t": 1223.7,
      "ch": 7,
      "note": 38,
      "vel": 56,
      "dur": 80
    },
    {
      "t": 1224,
      "ch": 7,
      "note": 48,
      "vel": 73,
      "dur": 80
    },
    {
      "t": 1224,
      "ch": 7,
      "note": 36,
      "vel": 62,
      "dur": 80
    },
    {
      "t": 1224.7,
      "ch": 0,
      "note": 36,
      "vel": 127,
      "dur": 55
    },
    {
      "t": 1224.7,
      "ch": 7,
      "note": 48,
      "vel": 73,
      "dur": 80
    },
    {
      "t": 1224.7,
      "ch": 7,
      "note": 45,
      "vel": 85,
      "dur": 80
    },
    {
      "t": 1224.7,
      "ch": 7,
      "note": 36,
      "vel": 60,
      "dur": 80
    },
    {
      "t": 1224.7,
      "ch": 7,
      "note": 38,
      "vel": 79,
      "dur": 80
    },
    {
      "t": 1225,
      "ch": 7,
      "note": 36,
      "vel": 58,
      "dur": 80
    },
    {
      "t": 1225.3,
      "ch": 7,
      "note": 48,
      "vel": 74,
      "dur": 80
    },
    {
      "t": 1225.3,
      "ch": 7,
      "note": 36,
      "vel": 74,
      "dur": 80
    },
    {
      "t": 1225.5,
      "ch": 7,
      "note": 45,
      "vel": 66,
      "dur": 80
    },
    {
      "t": 1225.5,
      "ch": 7,
      "note": 38,
      "vel": 58,
      "dur": 80
    },
    {
      "t": 1225.8,
      "ch": 0,
      "note": 36,
      "vel": 82,
      "dur": 55
    },
    {
      "t": 1225.9,
      "ch": 2,
      "note": 50,
      "vel": 56,
      "dur": 19565
    },
    {
      "t": 1226,
      "ch": 7,
      "note": 48,
      "vel": 66,
      "dur": 80
    },
    {
      "t": 1226,
      "ch": 7,
      "note": 36,
      "vel": 79,
      "dur": 80
    },
    {
      "t": 1226,
      "ch": 6,
      "note": 69,
      "vel": 25,
      "dur": 625
    },
    {
      "t": 1226.3,
      "ch": 7,
      "note": 45,
      "vel": 73,
      "dur": 80
    },
    {
      "t": 1226.3,
      "ch": 7,
      "note": 36,
      "vel": 67,
      "dur": 80
    },
    {
      "t": 1226.3,
      "ch": 7,
      "note": 38,
      "vel": 51,
      "dur": 80
    },
    {
      "t": 1226.3,
      "ch": 5,
      "note": 67,
      "vel": 22,
      "dur": 936
    },
    {
      "t": 1226.6,
      "ch": 0,
      "note": 36,
      "vel": 95,
      "dur": 55
    },
    {
      "t": 1226.6,
      "ch": 7,
      "note": 48,
      "vel": 83,
      "dur": 80
    },
    {
      "t": 1226.6,
      "ch": 7,
      "note": 36,
      "vel": 60,
      "dur": 80
    },
    {
      "t": 1226.7,
      "ch": 6,
      "note": 69,
      "vel": 3,
      "dur": 400
    },
    {
      "t": 1227.1,
      "ch": 0,
      "note": 36,
      "vel": 65,
      "dur": 55
    },
    {
      "t": 1227.3,
      "ch": 0,
      "note": 36,
      "vel": 123,
      "dur": 55
    },
    {
      "t": 1227.3,
      "ch": 7,
      "note": 48,
      "vel": 57,
      "dur": 80
    },
    {
      "t": 1227.3,
      "ch": 7,
      "note": 45,
      "vel": 69,
      "dur": 80
    },
    {
      "t": 1227.3,
      "ch": 7,
      "note": 36,
      "vel": 71,
      "dur": 80
    },
    {
      "t": 1227.3,
      "ch": 7,
      "note": 38,
      "vel": 68,
      "dur": 80
    },
    {
      "t": 1227.5,
      "ch": 5,
      "note": 62,
      "vel": 25,
      "dur": 928
    },
    {
      "t": 1227.6,
      "ch": 7,
      "note": 36,
      "vel": 66,
      "dur": 80
    },
    {
      "t": 1227.9,
      "ch": 7,
      "note": 48,
      "vel": 72,
      "dur": 80
    },
    {
      "t": 1227.9,
      "ch": 7,
      "note": 36,
      "vel": 61,
      "dur": 80
    },
    {
      "t": 1228,
      "ch": 5,
      "note": 64,
      "vel": 9,
      "dur": 925
    },
    {
      "t": 1228,
      "ch": 6,
      "note": 65,
      "vel": 11,
      "dur": 400
    },
    {
      "t": 1228.1,
      "ch": 7,
      "note": 45,
      "vel": 62,
      "dur": 80
    },
    {
      "t": 1228.1,
      "ch": 7,
      "note": 38,
      "vel": 54,
      "dur": 80
    },
    {
      "t": 1228.3,
      "ch": 0,
      "note": 36,
      "vel": 75,
      "dur": 55
    },
    {
      "t": 1228.5,
      "ch": 4,
      "note": 55,
      "vel": 46,
      "dur": 5167
    },
    {
      "t": 1228.5,
      "ch": 4,
      "note": 59,
      "vel": 62,
      "dur": 5167
    },
    {
      "t": 1228.5,
      "ch": 3,
      "note": 38,
      "vel": 49,
      "dur": 5217
    },
    {
      "t": 1228.6,
      "ch": 7,
      "note": 48,
      "vel": 64,
      "dur": 80
    },
    {
      "t": 1228.6,
      "ch": 7,
      "note": 36,
      "vel": 61,
      "dur": 80
    },
    {
      "t": 1228.9,
      "ch": 7,
      "note": 45,
      "vel": 68,
      "dur": 80
    },
    {
      "t": 1228.9,
      "ch": 7,
      "note": 36,
      "vel": 56,
      "dur": 80
    },
    {
      "t": 1228.9,
      "ch": 7,
      "note": 38,
      "vel": 63,
      "dur": 80
    },
    {
      "t": 1229.3,
      "ch": 7,
      "note": 48,
      "vel": 76,
      "dur": 80
    },
    {
      "t": 1229.3,
      "ch": 7,
      "note": 36,
      "vel": 79,
      "dur": 80
    },
    {
      "t": 1229.3,
      "ch": 5,
      "note": 67,
      "vel": 40,
      "dur": 918
    },
    {
      "t": 1229.6,
      "ch": 0,
      "note": 36,
      "vel": 84,
      "dur": 55
    },
    {
      "t": 1229.6,
      "ch": 6,
      "note": 69,
      "vel": 1,
      "dur": 400
    },
    {
      "t": 1229.9,
      "ch": 0,
      "note": 36,
      "vel": 118,
      "dur": 55
    },
    {
      "t": 1229.9,
      "ch": 7,
      "note": 48,
      "vel": 69,
      "dur": 80
    },
    {
      "t": 1229.9,
      "ch": 7,
      "note": 45,
      "vel": 74,
      "dur": 80
    },
    {
      "t": 1229.9,
      "ch": 7,
      "note": 36,
      "vel": 71,
      "dur": 80
    },
    {
      "t": 1229.9,
      "ch": 7,
      "note": 38,
      "vel": 73,
      "dur": 80
    },
    {
      "t": 1230.2,
      "ch": 7,
      "note": 36,
      "vel": 63,
      "dur": 80
    },
    {
      "t": 1230.6,
      "ch": 7,
      "note": 48,
      "vel": 65,
      "dur": 80
    },
    {
      "t": 1230.6,
      "ch": 7,
      "note": 36,
      "vel": 77,
      "dur": 80
    },
    {
      "t": 1230.7,
      "ch": 7,
      "note": 45,
      "vel": 54,
      "dur": 80
    },
    {
      "t": 1230.7,
      "ch": 7,
      "note": 38,
      "vel": 57,
      "dur": 80
    },
    {
      "t": 1230.7,
      "ch": 5,
      "note": 67,
      "vel": 33,
      "dur": 912
    },
    {
      "t": 1230.9,
      "ch": 0,
      "note": 36,
      "vel": 83,
      "dur": 55
    },
    {
      "t": 1231.1,
      "ch": 4,
      "note": 57,
      "vel": 50,
      "dur": 2558
    },
    {
      "t": 1231.1,
      "ch": 4,
      "note": 52,
      "vel": 49,
      "dur": 2558
    },
    {
      "t": 1231.1,
      "ch": 3,
      "note": 36,
      "vel": 51,
      "dur": 2608
    },
    {
      "t": 1231.2,
      "ch": 7,
      "note": 48,
      "vel": 69,
      "dur": 80
    },
    {
      "t": 1231.2,
      "ch": 7,
      "note": 36,
      "vel": 79,
      "dur": 80
    },
    {
      "t": 1231.4,
      "ch": 5,
      "note": 62,
      "vel": 28,
      "dur": 910
    },
    {
      "t": 1231.4,
      "ch": 6,
      "note": 67,
      "vel": 26,
      "dur": 607
    },
    {
      "t": 1231.5,
      "ch": 7,
      "note": 45,
      "vel": 39,
      "dur": 80
    },
    {
      "t": 1231.5,
      "ch": 7,
      "note": 36,
      "vel": 69,
      "dur": 80
    },
    {
      "t": 1231.5,
      "ch": 7,
      "note": 38,
      "vel": 56,
      "dur": 80
    },
    {
      "t": 1231.7,
      "ch": 6,
      "note": 65,
      "vel": 30,
      "dur": 607
    },
    {
      "t": 1231.9,
      "ch": 7,
      "note": 48,
      "vel": 73,
      "dur": 80
    },
    {
      "t": 1231.9,
      "ch": 7,
      "note": 36,
      "vel": 73,
      "dur": 80
    },
    {
      "t": 1232.2,
      "ch": 0,
      "note": 36,
      "vel": 80,
      "dur": 55
    },
    {
      "t": 1232.5,
      "ch": 0,
      "note": 36,
      "vel": 107,
      "dur": 55
    },
    {
      "t": 1232.5,
      "ch": 7,
      "note": 48,
      "vel": 72,
      "dur": 80
    },
    {
      "t": 1232.5,
      "ch": 7,
      "note": 45,
      "vel": 74,
      "dur": 80
    },
    {
      "t": 1232.5,
      "ch": 7,
      "note": 36,
      "vel": 72,
      "dur": 80
    },
    {
      "t": 1232.5,
      "ch": 7,
      "note": 38,
      "vel": 65,
      "dur": 80
    },
    {
      "t": 1232.8,
      "ch": 7,
      "note": 36,
      "vel": 56,
      "dur": 80
    },
    {
      "t": 1233.2,
      "ch": 7,
      "note": 48,
      "vel": 80,
      "dur": 80
    },
    {
      "t": 1233.2,
      "ch": 7,
      "note": 36,
      "vel": 67,
      "dur": 80
    },
    {
      "t": 1233.3,
      "ch": 7,
      "note": 45,
      "vel": 51,
      "dur": 80
    },
    {
      "t": 1233.3,
      "ch": 7,
      "note": 38,
      "vel": 61,
      "dur": 80
    },
    {
      "t": 1233.5,
      "ch": 0,
      "note": 36,
      "vel": 82,
      "dur": 55
    },
    {
      "t": 1233.7,
      "ch": 4,
      "note": 57,
      "vel": 51,
      "dur": 2558
    },
    {
      "t": 1233.7,
      "ch": 4,
      "note": 60,
      "vel": 49,
      "dur": 2558
    },
    {
      "t": 1233.7,
      "ch": 3,
      "note": 38,
      "vel": 51,
      "dur": 2608
    },
    {
      "t": 1233.8,
      "ch": 7,
      "note": 48,
      "vel": 56,
      "dur": 80
    },
    {
      "t": 1233.8,
      "ch": 7,
      "note": 36,
      "vel": 63,
      "dur": 80
    },
    {
      "t": 1234.1,
      "ch": 7,
      "note": 45,
      "vel": 66,
      "dur": 80
    },
    {
      "t": 1234.1,
      "ch": 7,
      "note": 36,
      "vel": 64,
      "dur": 80
    },
    {
      "t": 1234.1,
      "ch": 7,
      "note": 38,
      "vel": 64,
      "dur": 80
    },
    {
      "t": 1234.5,
      "ch": 7,
      "note": 48,
      "vel": 63,
      "dur": 80
    },
    {
      "t": 1234.5,
      "ch": 7,
      "note": 36,
      "vel": 67,
      "dur": 80
    },
    {
      "t": 1234.8,
      "ch": 0,
      "note": 36,
      "vel": 80,
      "dur": 55
    },
    {
      "t": 1235,
      "ch": 6,
      "note": 65,
      "vel": 31,
      "dur": 610
    },
    {
      "t": 1235.1,
      "ch": 0,
      "note": 36,
      "vel": 112,
      "dur": 55
    },
    {
      "t": 1235.1,
      "ch": 7,
      "note": 48,
      "vel": 77,
      "dur": 80
    },
    {
      "t": 1235.1,
      "ch": 7,
      "note": 45,
      "vel": 57,
      "dur": 80
    },
    {
      "t": 1235.1,
      "ch": 7,
      "note": 36,
      "vel": 69,
      "dur": 80
    },
    {
      "t": 1235.1,
      "ch": 7,
      "note": 38,
      "vel": 63,
      "dur": 80
    },
    {
      "t": 1235.4,
      "ch": 7,
      "note": 36,
      "vel": 68,
      "dur": 80
    },
    {
      "t": 1235.8,
      "ch": 7,
      "note": 48,
      "vel": 66,
      "dur": 80
    },
    {
      "t": 1235.8,
      "ch": 7,
      "note": 36,
      "vel": 75,
      "dur": 80
    },
    {
      "t": 1235.9,
      "ch": 7,
      "note": 45,
      "vel": 60,
      "dur": 80
    },
    {
      "t": 1235.9,
      "ch": 7,
      "note": 38,
      "vel": 60,
      "dur": 80
    },
    {
      "t": 1236.1,
      "ch": 0,
      "note": 36,
      "vel": 75,
      "dur": 55
    },
    {
      "t": 1236.3,
      "ch": 2,
      "note": 50,
      "vel": 56,
      "dur": 19565
    },
    {
      "t": 1236.3,
      "ch": 4,
      "note": 57,
      "vel": 49,
      "dur": 2558
    },
    {
      "t": 1236.3,
      "ch": 4,
      "note": 52,
      "vel": 46,
      "dur": 2558
    },
    {
      "t": 1236.3,
      "ch": 3,
      "note": 36,
      "vel": 50,
      "dur": 2608
    },
    {
      "t": 1236.4,
      "ch": 7,
      "note": 48,
      "vel": 67,
      "dur": 80
    },
    {
      "t": 1236.4,
      "ch": 7,
      "note": 36,
      "vel": 68,
      "dur": 80
    },
    {
      "t": 1236.4,
      "ch": 5,
      "note": 64,
      "vel": 38,
      "dur": 921
    },
    {
      "t": 1236.7,
      "ch": 7,
      "note": 36,
      "vel": 65,
      "dur": 80
    },
    {
      "t": 1236.7,
      "ch": 7,
      "note": 38,
      "vel": 62,
      "dur": 80
    },
    {
      "t": 1236.8,
      "ch": 7,
      "note": 45,
      "vel": 57,
      "dur": 80
    },
    {
      "t": 1237.1,
      "ch": 7,
      "note": 48,
      "vel": 71,
      "dur": 80
    },
    {
      "t": 1237.1,
      "ch": 7,
      "note": 36,
      "vel": 72,
      "dur": 80
    },
    {
      "t": 1237.1,
      "ch": 5,
      "note": 67,
      "vel": 23,
      "dur": 925
    },
    {
      "t": 1237.4,
      "ch": 0,
      "note": 36,
      "vel": 79,
      "dur": 55
    },
    {
      "t": 1237.4,
      "ch": 5,
      "note": 67,
      "vel": 22,
      "dur": 926
    },
    {
      "t": 1237.7,
      "ch": 0,
      "note": 36,
      "vel": 116,
      "dur": 55
    },
    {
      "t": 1237.7,
      "ch": 7,
      "note": 48,
      "vel": 77,
      "dur": 80
    },
    {
      "t": 1237.7,
      "ch": 7,
      "note": 45,
      "vel": 67,
      "dur": 80
    },
    {
      "t": 1237.7,
      "ch": 7,
      "note": 36,
      "vel": 63,
      "dur": 80
    },
    {
      "t": 1237.7,
      "ch": 7,
      "note": 38,
      "vel": 83,
      "dur": 80
    },
    {
      "t": 1237.9,
      "ch": 6,
      "note": 71,
      "vel": 21,
      "dur": 400
    },
    {
      "t": 1238.1,
      "ch": 7,
      "note": 36,
      "vel": 56,
      "dur": 80
    },
    {
      "t": 1238.1,
      "ch": 5,
      "note": 62,
      "vel": 17,
      "dur": 930
    },
    {
      "t": 1238.4,
      "ch": 7,
      "note": 48,
      "vel": 57,
      "dur": 80
    },
    {
      "t": 1238.4,
      "ch": 7,
      "note": 36,
      "vel": 69,
      "dur": 80
    },
    {
      "t": 1238.4,
      "ch": 5,
      "note": 64,
      "vel": 18,
      "dur": 932
    },
    {
      "t": 1238.5,
      "ch": 6,
      "note": 69,
      "vel": 1,
      "dur": 400
    },
    {
      "t": 1238.6,
      "ch": 7,
      "note": 45,
      "vel": 68,
      "dur": 80
    },
    {
      "t": 1238.6,
      "ch": 7,
      "note": 38,
      "vel": 76,
      "dur": 80
    },
    {
      "t": 1238.7,
      "ch": 0,
      "note": 36,
      "vel": 80,
      "dur": 55
    },
    {
      "t": 1238.7,
      "ch": 6,
      "note": 65,
      "vel": 5,
      "dur": 623
    },
    {
      "t": 1238.9,
      "ch": 6,
      "note": 67,
      "vel": 10,
      "dur": 623
    },
    {
      "t": 1239,
      "ch": 7,
      "note": 48,
      "vel": 90,
      "dur": 80
    },
    {
      "t": 1239,
      "ch": 7,
      "note": 36,
      "vel": 73,
      "dur": 80
    },
    {
      "t": 1239,
      "ch": 6,
      "note": 62,
      "vel": 28,
      "dur": 624
    },
    {
      "t": 1239.4,
      "ch": 7,
      "note": 45,
      "vel": 66,
      "dur": 80
    },
    {
      "t": 1239.4,
      "ch": 7,
      "note": 36,
      "vel": 57,
      "dur": 80
    },
    {
      "t": 1239.4,
      "ch": 7,
      "note": 38,
      "vel": 69,
      "dur": 80
    },
    {
      "t": 1239.7,
      "ch": 7,
      "note": 48,
      "vel": 69,
      "dur": 80
    },
    {
      "t": 1239.7,
      "ch": 7,
      "note": 36,
      "vel": 63,
      "dur": 80
    },
    {
      "t": 1240,
      "ch": 0,
      "note": 36,
      "vel": 86,
      "dur": 55
    },
    {
      "t": 1240.3,
      "ch": 0,
      "note": 36,
      "vel": 117,
      "dur": 55
    },
    {
      "t": 1240.3,
      "ch": 7,
      "note": 48,
      "vel": 66,
      "dur": 80
    },
    {
      "t": 1240.3,
      "ch": 7,
      "note": 45,
      "vel": 84,
      "dur": 80
    },
    {
      "t": 1240.3,
      "ch": 7,
      "note": 36,
      "vel": 73,
      "dur": 80
    },
    {
      "t": 1240.3,
      "ch": 7,
      "note": 38,
      "vel": 71,
      "dur": 80
    },
    {
      "t": 1240.7,
      "ch": 7,
      "note": 36,
      "vel": 63,
      "dur": 80
    },
    {
      "t": 1241,
      "ch": 7,
      "note": 48,
      "vel": 61,
      "dur": 80
    },
    {
      "t": 1241,
      "ch": 7,
      "note": 36,
      "vel": 68,
      "dur": 80
    },
    {
      "t": 1241.2,
      "ch": 7,
      "note": 45,
      "vel": 52,
      "dur": 80
    },
    {
      "t": 1241.2,
      "ch": 7,
      "note": 38,
      "vel": 59,
      "dur": 80
    },
    {
      "t": 1241.3,
      "ch": 0,
      "note": 36,
      "vel": 80,
      "dur": 55
    },
    {
      "t": 1241.6,
      "ch": 4,
      "note": 57,
      "vel": 43,
      "dur": 5167
    },
    {
      "t": 1241.6,
      "ch": 4,
      "note": 60,
      "vel": 46,
      "dur": 5167
    },
    {
      "t": 1241.6,
      "ch": 3,
      "note": 45,
      "vel": 46,
      "dur": 5217
    },
    {
      "t": 1241.6,
      "ch": 7,
      "note": 48,
      "vel": 63,
      "dur": 80
    },
    {
      "t": 1241.6,
      "ch": 7,
      "note": 36,
      "vel": 65,
      "dur": 80
    },
    {
      "t": 1241.8,
      "ch": 5,
      "note": 67,
      "vel": 29,
      "dur": 947
    },
    {
      "t": 1242,
      "ch": 7,
      "note": 45,
      "vel": 54,
      "dur": 80
    },
    {
      "t": 1242,
      "ch": 7,
      "note": 36,
      "vel": 60,
      "dur": 80
    },
    {
      "t": 1242,
      "ch": 7,
      "note": 38,
      "vel": 62,
      "dur": 80
    },
    {
      "t": 1242.3,
      "ch": 7,
      "note": 48,
      "vel": 65,
      "dur": 80
    },
    {
      "t": 1242.3,
      "ch": 7,
      "note": 36,
      "vel": 73,
      "dur": 80
    },
    {
      "t": 1242.3,
      "ch": 6,
      "note": 74,
      "vel": 5,
      "dur": 400
    },
    {
      "t": 1242.6,
      "ch": 0,
      "note": 36,
      "vel": 82,
      "dur": 55
    },
    {
      "t": 1242.9,
      "ch": 0,
      "note": 36,
      "vel": 119,
      "dur": 55
    },
    {
      "t": 1242.9,
      "ch": 7,
      "note": 48,
      "vel": 78,
      "dur": 80
    },
    {
      "t": 1242.9,
      "ch": 7,
      "note": 45,
      "vel": 71,
      "dur": 80
    },
    {
      "t": 1242.9,
      "ch": 7,
      "note": 36,
      "vel": 67,
      "dur": 80
    },
    {
      "t": 1242.9,
      "ch": 7,
      "note": 38,
      "vel": 71,
      "dur": 80
    },
    {
      "t": 1243.3,
      "ch": 7,
      "note": 36,
      "vel": 64,
      "dur": 80
    },
    {
      "t": 1243.6,
      "ch": 7,
      "note": 48,
      "vel": 65,
      "dur": 80
    },
    {
      "t": 1243.6,
      "ch": 7,
      "note": 36,
      "vel": 73,
      "dur": 80
    },
    {
      "t": 1243.8,
      "ch": 7,
      "note": 45,
      "vel": 66,
      "dur": 80
    },
    {
      "t": 1243.8,
      "ch": 7,
      "note": 38,
      "vel": 49,
      "dur": 80
    },
    {
      "t": 1243.9,
      "ch": 0,
      "note": 36,
      "vel": 82,
      "dur": 55
    },
    {
      "t": 1243.9,
      "ch": 5,
      "note": 67,
      "vel": 14,
      "dur": 949
    },
    {
      "t": 1244.2,
      "ch": 7,
      "note": 48,
      "vel": 79,
      "dur": 80
    },
    {
      "t": 1244.2,
      "ch": 7,
      "note": 36,
      "vel": 66,
      "dur": 80
    },
    {
      "t": 1244.4,
      "ch": 5,
      "note": 62,
      "vel": 12,
      "dur": 949
    },
    {
      "t": 1244.6,
      "ch": 7,
      "note": 45,
      "vel": 74,
      "dur": 80
    },
    {
      "t": 1244.6,
      "ch": 7,
      "note": 36,
      "vel": 56,
      "dur": 80
    },
    {
      "t": 1244.6,
      "ch": 7,
      "note": 38,
      "vel": 68,
      "dur": 80
    },
    {
      "t": 1244.9,
      "ch": 7,
      "note": 48,
      "vel": 71,
      "dur": 80
    },
    {
      "t": 1244.9,
      "ch": 7,
      "note": 36,
      "vel": 75,
      "dur": 80
    },
    {
      "t": 1245.2,
      "ch": 0,
      "note": 36,
      "vel": 77,
      "dur": 55
    },
    {
      "t": 1245.6,
      "ch": 7,
      "note": 48,
      "vel": 63,
      "dur": 80
    },
    {
      "t": 1245.6,
      "ch": 7,
      "note": 45,
      "vel": 63,
      "dur": 80
    },
    {
      "t": 1245.6,
      "ch": 7,
      "note": 36,
      "vel": 74,
      "dur": 80
    },
    {
      "t": 1245.6,
      "ch": 7,
      "note": 38,
      "vel": 77,
      "dur": 80
    },
    {
      "t": 1245.9,
      "ch": 7,
      "note": 36,
      "vel": 72,
      "dur": 80
    },
    {
      "t": 1246.2,
      "ch": 7,
      "note": 48,
      "vel": 66,
      "dur": 80
    },
    {
      "t": 1246.2,
      "ch": 7,
      "note": 36,
      "vel": 81,
      "dur": 80
    },
    {
      "t": 1246.4,
      "ch": 7,
      "note": 45,
      "vel": 64,
      "dur": 80
    },
    {
      "t": 1246.4,
      "ch": 7,
      "note": 38,
      "vel": 59,
      "dur": 80
    },
    {
      "t": 1246.4,
      "ch": 5,
      "note": 64,
      "vel": 33,
      "dur": 942
    },
    {
      "t": 1246.7,
      "ch": 6,
      "note": 65,
      "vel": 23,
      "dur": 627
    },
    {
      "t": 1246.7,
      "ch": 5,
      "note": 67,
      "vel": 30,
      "dur": 941
    },
    {
      "t": 1246.8,
      "ch": 2,
      "note": 50,
      "vel": 56,
      "dur": 19565
    },
    {
      "t": 1246.8,
      "ch": 4,
      "note": 55,
      "vel": 44,
      "dur": 5167
    },
    {
      "t": 1246.8,
      "ch": 4,
      "note": 59,
      "vel": 59,
      "dur": 5167
    },
    {
      "t": 1246.8,
      "ch": 3,
      "note": 43,
      "vel": 47,
      "dur": 5217
    },
    {
      "t": 1246.9,
      "ch": 7,
      "note": 48,
      "vel": 68,
      "dur": 80
    },
    {
      "t": 1246.9,
      "ch": 7,
      "note": 36,
      "vel": 68,
      "dur": 80
    },
    {
      "t": 1246.9,
      "ch": 6,
      "note": 71,
      "vel": 28,
      "dur": 627
    },
    {
      "t": 1247.2,
      "ch": 7,
      "note": 45,
      "vel": 56,
      "dur": 80
    },
    {
      "t": 1247.2,
      "ch": 7,
      "note": 36,
      "vel": 58,
      "dur": 80
    },
    {
      "t": 1247.2,
      "ch": 7,
      "note": 38,
      "vel": 65,
      "dur": 80
    },
    {
      "t": 1247.4,
      "ch": 5,
      "note": 67,
      "vel": 5,
      "dur": 937
    },
    {
      "t": 1247.5,
      "ch": 7,
      "note": 48,
      "vel": 74,
      "dur": 80
    },
    {
      "t": 1247.5,
      "ch": 7,
      "note": 36,
      "vel": 69,
      "dur": 80
    },
    {
      "t": 1247.7,
      "ch": 6,
      "note": 71,
      "vel": 55,
      "dur": 624
    },
    {
      "t": 1248.2,
      "ch": 0,
      "note": 36,
      "vel": 122,
      "dur": 55
    },
    {
      "t": 1248.2,
      "ch": 7,
      "note": 48,
      "vel": 53,
      "dur": 80
    },
    {
      "t": 1248.2,
      "ch": 7,
      "note": 45,
      "vel": 85,
      "dur": 80
    },
    {
      "t": 1248.2,
      "ch": 7,
      "note": 36,
      "vel": 81,
      "dur": 80
    },
    {
      "t": 1248.2,
      "ch": 7,
      "note": 38,
      "vel": 80,
      "dur": 80
    },
    {
      "t": 1248.2,
      "ch": 5,
      "note": 62,
      "vel": 28,
      "dur": 932
    },
    {
      "t": 1248.5,
      "ch": 7,
      "note": 36,
      "vel": 67,
      "dur": 80
    },
    {
      "t": 1248.8,
      "ch": 7,
      "note": 48,
      "vel": 74,
      "dur": 80
    },
    {
      "t": 1248.8,
      "ch": 7,
      "note": 36,
      "vel": 68,
      "dur": 80
    },
    {
      "t": 1249,
      "ch": 7,
      "note": 45,
      "vel": 54,
      "dur": 80
    },
    {
      "t": 1249,
      "ch": 7,
      "note": 38,
      "vel": 62,
      "dur": 80
    },
    {
      "t": 1249.2,
      "ch": 6,
      "note": 65,
      "vel": 23,
      "dur": 617
    },
    {
      "t": 1249.3,
      "ch": 0,
      "note": 36,
      "vel": 78,
      "dur": 55
    },
    {
      "t": 1249.4,
      "ch": 4,
      "note": 55,
      "vel": 47,
      "dur": 2558
    },
    {
      "t": 1249.4,
      "ch": 4,
      "note": 59,
      "vel": 61,
      "dur": 2558
    },
    {
      "t": 1249.4,
      "ch": 3,
      "note": 43,
      "vel": 50,
      "dur": 2608
    },
    {
      "t": 1249.5,
      "ch": 7,
      "note": 48,
      "vel": 80,
      "dur": 80
    },
    {
      "t": 1249.5,
      "ch": 7,
      "note": 36,
      "vel": 73,
      "dur": 80
    },
    {
      "t": 1249.8,
      "ch": 7,
      "note": 45,
      "vel": 62,
      "dur": 80
    },
    {
      "t": 1249.8,
      "ch": 7,
      "note": 36,
      "vel": 54,
      "dur": 80
    },
    {
      "t": 1249.8,
      "ch": 7,
      "note": 38,
      "vel": 62,
      "dur": 80
    },
    {
      "t": 1250.1,
      "ch": 0,
      "note": 36,
      "vel": 89,
      "dur": 55
    },
    {
      "t": 1250.1,
      "ch": 7,
      "note": 48,
      "vel": 76,
      "dur": 80
    },
    {
      "t": 1250.1,
      "ch": 7,
      "note": 36,
      "vel": 81,
      "dur": 80
    },
    {
      "t": 1250.8,
      "ch": 0,
      "note": 36,
      "vel": 114,
      "dur": 55
    },
    {
      "t": 1250.8,
      "ch": 7,
      "note": 48,
      "vel": 72,
      "dur": 80
    },
    {
      "t": 1250.8,
      "ch": 7,
      "note": 45,
      "vel": 75,
      "dur": 80
    },
    {
      "t": 1250.8,
      "ch": 7,
      "note": 36,
      "vel": 63,
      "dur": 80
    },
    {
      "t": 1250.8,
      "ch": 7,
      "note": 38,
      "vel": 69,
      "dur": 80
    },
    {
      "t": 1250.9,
      "ch": 5,
      "note": 64,
      "vel": 31,
      "dur": 914
    },
    {
      "t": 1251.1,
      "ch": 7,
      "note": 36,
      "vel": 60,
      "dur": 80
    },
    {
      "t": 1251.1,
      "ch": 5,
      "note": 60,
      "vel": 46,
      "dur": 913
    },
    {
      "t": 1251.4,
      "ch": 7,
      "note": 48,
      "vel": 71,
      "dur": 80
    },
    {
      "t": 1251.4,
      "ch": 7,
      "note": 36,
      "vel": 64,
      "dur": 80
    },
    {
      "t": 1251.6,
      "ch": 7,
      "note": 45,
      "vel": 62,
      "dur": 80
    },
    {
      "t": 1251.6,
      "ch": 7,
      "note": 38,
      "vel": 67,
      "dur": 80
    },
    {
      "t": 1251.9,
      "ch": 0,
      "note": 36,
      "vel": 84,
      "dur": 55
    },
    {
      "t": 1251.9,
      "ch": 5,
      "note": 65,
      "vel": 13,
      "dur": 909
    },
    {
      "t": 1252,
      "ch": 4,
      "note": 57,
      "vel": 51,
      "dur": 2558
    },
    {
      "t": 1252,
      "ch": 4,
      "note": 52,
      "vel": 51,
      "dur": 2558
    },
    {
      "t": 1252,
      "ch": 3,
      "note": 36,
      "vel": 52,
      "dur": 2608
    },
    {
      "t": 1252.1,
      "ch": 7,
      "note": 48,
      "vel": 74,
      "dur": 80
    },
    {
      "t": 1252.1,
      "ch": 7,
      "note": 36,
      "vel": 64,
      "dur": 80
    },
    {
      "t": 1252.4,
      "ch": 7,
      "note": 45,
      "vel": 68,
      "dur": 80
    },
    {
      "t": 1252.4,
      "ch": 7,
      "note": 36,
      "vel": 51,
      "dur": 80
    },
    {
      "t": 1252.4,
      "ch": 7,
      "note": 38,
      "vel": 55,
      "dur": 80
    },
    {
      "t": 1252.7,
      "ch": 0,
      "note": 36,
      "vel": 98,
      "dur": 55
    },
    {
      "t": 1252.7,
      "ch": 7,
      "note": 48,
      "vel": 79,
      "dur": 80
    },
    {
      "t": 1252.7,
      "ch": 7,
      "note": 36,
      "vel": 74,
      "dur": 80
    },
    {
      "t": 1253.2,
      "ch": 5,
      "note": 69,
      "vel": 32,
      "dur": 903
    },
    {
      "t": 1253.4,
      "ch": 0,
      "note": 36,
      "vel": 111,
      "dur": 55
    },
    {
      "t": 1253.4,
      "ch": 7,
      "note": 48,
      "vel": 74,
      "dur": 80
    },
    {
      "t": 1253.4,
      "ch": 7,
      "note": 45,
      "vel": 73,
      "dur": 80
    },
    {
      "t": 1253.4,
      "ch": 7,
      "note": 36,
      "vel": 72,
      "dur": 80
    },
    {
      "t": 1253.4,
      "ch": 7,
      "note": 38,
      "vel": 77,
      "dur": 80
    },
    {
      "t": 1253.7,
      "ch": 7,
      "note": 36,
      "vel": 67,
      "dur": 80
    },
    {
      "t": 1254,
      "ch": 7,
      "note": 48,
      "vel": 72,
      "dur": 80
    },
    {
      "t": 1254,
      "ch": 7,
      "note": 36,
      "vel": 68,
      "dur": 80
    },
    {
      "t": 1254.2,
      "ch": 7,
      "note": 45,
      "vel": 60,
      "dur": 80
    },
    {
      "t": 1254.2,
      "ch": 7,
      "note": 38,
      "vel": 50,
      "dur": 80
    },
    {
      "t": 1254.5,
      "ch": 0,
      "note": 36,
      "vel": 84,
      "dur": 55
    },
    {
      "t": 1254.6,
      "ch": 4,
      "note": 55,
      "vel": 50,
      "dur": 2558
    },
    {
      "t": 1254.6,
      "ch": 4,
      "note": 59,
      "vel": 67,
      "dur": 2558
    },
    {
      "t": 1254.6,
      "ch": 3,
      "note": 43,
      "vel": 54,
      "dur": 2608
    },
    {
      "t": 1254.7,
      "ch": 7,
      "note": 48,
      "vel": 59,
      "dur": 80
    },
    {
      "t": 1254.7,
      "ch": 7,
      "note": 36,
      "vel": 65,
      "dur": 80
    },
    {
      "t": 1255,
      "ch": 7,
      "note": 45,
      "vel": 51,
      "dur": 80
    },
    {
      "t": 1255,
      "ch": 7,
      "note": 36,
      "vel": 61,
      "dur": 80
    },
    {
      "t": 1255,
      "ch": 7,
      "note": 38,
      "vel": 65,
      "dur": 80
    },
    {
      "t": 1255.3,
      "ch": 0,
      "note": 36,
      "vel": 94,
      "dur": 55
    },
    {
      "t": 1255.3,
      "ch": 7,
      "note": 48,
      "vel": 80,
      "dur": 80
    },
    {
      "t": 1255.3,
      "ch": 7,
      "note": 36,
      "vel": 67,
      "dur": 80
    },
    {
      "t": 1255.5,
      "ch": 6,
      "note": 72,
      "vel": 24,
      "dur": 599
    },
    {
      "t": 1256,
      "ch": 0,
      "note": 36,
      "vel": 122,
      "dur": 55
    },
    {
      "t": 1256,
      "ch": 7,
      "note": 48,
      "vel": 72,
      "dur": 80
    },
    {
      "t": 1256,
      "ch": 7,
      "note": 45,
      "vel": 60,
      "dur": 80
    },
    {
      "t": 1256,
      "ch": 7,
      "note": 36,
      "vel": 74,
      "dur": 80
    },
    {
      "t": 1256,
      "ch": 7,
      "note": 38,
      "vel": 70,
      "dur": 80
    },
    {
      "t": 1256.3,
      "ch": 7,
      "note": 36,
      "vel": 76,
      "dur": 80
    },
    {
      "t": 1256.6,
      "ch": 7,
      "note": 48,
      "vel": 82,
      "dur": 80
    },
    {
      "t": 1256.6,
      "ch": 7,
      "note": 36,
      "vel": 66,
      "dur": 80
    },
    {
      "t": 1256.8,
      "ch": 7,
      "note": 45,
      "vel": 59,
      "dur": 80
    },
    {
      "t": 1256.8,
      "ch": 7,
      "note": 38,
      "vel": 61,
      "dur": 80
    },
    {
      "t": 1256.8,
      "ch": 5,
      "note": 64,
      "vel": 11,
      "dur": 901
    },
    {
      "t": 1257,
      "ch": 5,
      "note": 60,
      "vel": 30,
      "dur": 901
    },
    {
      "t": 1257.1,
      "ch": 0,
      "note": 36,
      "vel": 79,
      "dur": 55
    },
    {
      "t": 1257.2,
      "ch": 2,
      "note": 50,
      "vel": 0,
      "dur": 0
    },
    {
      "t": 1257.2,
      "ch": 2,
      "note": 62,
      "vel": 0,
      "dur": 0
    },
    {
      "t": 1257.2,
      "ch": 2,
      "note": 55,
      "vel": 57,
      "dur": 19565
    },
    {
      "t": 1257.2,
      "ch": 4,
      "note": 57,
      "vel": 52,
      "dur": 2558
    },
    {
      "t": 1257.2,
      "ch": 4,
      "note": 60,
      "vel": 49,
      "dur": 2558
    },
    {
      "t": 1257.2,
      "ch": 3,
      "note": 38,
      "vel": 53,
      "dur": 2608
    },
    {
      "t": 1257.3,
      "ch": 7,
      "note": 48,
      "vel": 62,
      "dur": 80
    },
    {
      "t": 1257.3,
      "ch": 7,
      "note": 36,
      "vel": 70,
      "dur": 80
    },
    {
      "t": 1257.3,
      "ch": 5,
      "note": 63,
      "vel": 4,
      "dur": 902
    },
    {
      "t": 1257.5,
      "ch": 5,
      "note": 69,
      "vel": 28,
      "dur": 903
    },
    {
      "t": 1257.6,
      "ch": 7,
      "note": 45,
      "vel": 59,
      "dur": 80
    },
    {
      "t": 1257.6,
      "ch": 7,
      "note": 36,
      "vel": 59,
      "dur": 80
    },
    {
      "t": 1257.6,
      "ch": 7,
      "note": 38,
      "vel": 68,
      "dur": 80
    },
    {
      "t": 1257.9,
      "ch": 0,
      "note": 36,
      "vel": 91,
      "dur": 55
    },
    {
      "t": 1257.9,
      "ch": 7,
      "note": 48,
      "vel": 64,
      "dur": 80
    },
    {
      "t": 1257.9,
      "ch": 7,
      "note": 36,
      "vel": 75,
      "dur": 80
    },
    {
      "t": 1258.6,
      "ch": 0,
      "note": 36,
      "vel": 116,
      "dur": 55
    },
    {
      "t": 1258.6,
      "ch": 1,
      "note": 36,
      "vel": 117,
      "dur": 25
    },
    {
      "t": 1258.6,
      "ch": 1,
      "note": 38,
      "vel": 73,
      "dur": 25
    },
    {
      "t": 1258.6,
      "ch": 1,
      "note": 40,
      "vel": 88,
      "dur": 25
    },
    {
      "t": 1258.6,
      "ch": 1,
      "note": 42,
      "vel": 67,
      "dur": 25
    },
    {
      "t": 1258.6,
      "ch": 1,
      "note": 36,
      "vel": 95,
      "dur": 25
    },
    {
      "t": 1258.6,
      "ch": 1,
      "note": 38,
      "vel": 75,
      "dur": 25
    },
    {
      "t": 1258.6,
      "ch": 1,
      "note": 40,
      "vel": 94,
      "dur": 25
    },
    {
      "t": 1258.6,
      "ch": 1,
      "note": 42,
      "vel": 75,
      "dur": 25
    },
    {
      "t": 1258.6,
      "ch": 1,
      "note": 36,
      "vel": 69,
      "dur": 25
    },
    {
      "t": 1258.6,
      "ch": 1,
      "note": 38,
      "vel": 88,
      "dur": 25
    },
    {
      "t": 1258.6,
      "ch": 1,
      "note": 40,
      "vel": 104,
      "dur": 25
    },
    {
      "t": 1258.6,
      "ch": 1,
      "note": 42,
      "vel": 88,
      "dur": 25
    },
    {
      "t": 1258.6,
      "ch": 1,
      "note": 36,
      "vel": 97,
      "dur": 25
    },
    {
      "t": 1258.6,
      "ch": 1,
      "note": 38,
      "vel": 90,
      "dur": 25
    },
    {
      "t": 1258.6,
      "ch": 1,
      "note": 40,
      "vel": 112,
      "dur": 25
    },
    {
      "t": 1258.6,
      "ch": 1,
      "note": 42,
      "vel": 103,
      "dur": 25
    },
    {
      "t": 1258.6,
      "ch": 1,
      "note": 36,
      "vel": 101,
      "dur": 25
    },
    {
      "t": 1258.6,
      "ch": 1,
      "note": 38,
      "vel": 88,
      "dur": 25
    },
    {
      "t": 1258.6,
      "ch": 1,
      "note": 40,
      "vel": 77,
      "dur": 25
    },
    {
      "t": 1258.6,
      "ch": 1,
      "note": 42,
      "vel": 74,
      "dur": 25
    },
    {
      "t": 1258.6,
      "ch": 1,
      "note": 36,
      "vel": 81,
      "dur": 25
    },
    {
      "t": 1258.6,
      "ch": 1,
      "note": 38,
      "vel": 96,
      "dur": 25
    },
    {
      "t": 1258.6,
      "ch": 1,
      "note": 40,
      "vel": 100,
      "dur": 25
    },
    {
      "t": 1258.6,
      "ch": 1,
      "note": 42,
      "vel": 82,
      "dur": 25
    },
    {
      "t": 1258.6,
      "ch": 1,
      "note": 36,
      "vel": 108,
      "dur": 25
    },
    {
      "t": 1258.6,
      "ch": 1,
      "note": 38,
      "vel": 82,
      "dur": 25
    },
    {
      "t": 1258.6,
      "ch": 1,
      "note": 40,
      "vel": 75,
      "dur": 25
    },
    {
      "t": 1258.6,
      "ch": 1,
      "note": 42,
      "vel": 62,
      "dur": 25
    },
    {
      "t": 1258.6,
      "ch": 1,
      "note": 36,
      "vel": 75,
      "dur": 25
    },
    {
      "t": 1258.6,
      "ch": 1,
      "note": 38,
      "vel": 87,
      "dur": 25
    },
    {
      "t": 1258.6,
      "ch": 1,
      "note": 40,
      "vel": 81,
      "dur": 25
    },
    {
      "t": 1258.6,
      "ch": 1,
      "note": 42,
      "vel": 83,
      "dur": 25
    },
    {
      "t": 1258.6,
      "ch": 1,
      "note": 36,
      "vel": 92,
      "dur": 25
    },
    {
      "t": 1258.6,
      "ch": 1,
      "note": 38,
      "vel": 101,
      "dur": 25
    },
    {
      "t": 1258.6,
      "ch": 1,
      "note": 40,
      "vel": 86,
      "dur": 25
    },
    {
      "t": 1258.6,
      "ch": 1,
      "note": 42,
      "vel": 100,
      "dur": 25
    },
    {
      "t": 1258.6,
      "ch": 1,
      "note": 36,
      "vel": 102,
      "dur": 25
    },
    {
      "t": 1258.6,
      "ch": 1,
      "note": 38,
      "vel": 101,
      "dur": 25
    },
    {
      "t": 1258.6,
      "ch": 1,
      "note": 40,
      "vel": 70,
      "dur": 25
    },
    {
      "t": 1258.6,
      "ch": 1,
      "note": 42,
      "vel": 93,
      "dur": 25
    },
    {
      "t": 1258.6,
      "ch": 1,
      "note": 36,
      "vel": 82,
      "dur": 25
    },
    {
      "t": 1258.6,
      "ch": 1,
      "note": 38,
      "vel": 69,
      "dur": 25
    },
    {
      "t": 1258.6,
      "ch": 1,
      "note": 40,
      "vel": 108,
      "dur": 25
    },
    {
      "t": 1258.6,
      "ch": 1,
      "note": 42,
      "vel": 103,
      "dur": 25
    },
    {
      "t": 1258.6,
      "ch": 1,
      "note": 36,
      "vel": 89,
      "dur": 25
    },
    {
      "t": 1258.6,
      "ch": 1,
      "note": 38,
      "vel": 86,
      "dur": 25
    },
    {
      "t": 1258.6,
      "ch": 1,
      "note": 40,
      "vel": 93,
      "dur": 25
    },
    {
      "t": 1258.6,
      "ch": 1,
      "note": 42,
      "vel": 100,
      "dur": 25
    },
    {
      "t": 1258.6,
      "ch": 1,
      "note": 36,
      "vel": 91,
      "dur": 25
    },
    {
      "t": 1258.6,
      "ch": 1,
      "note": 38,
      "vel": 87,
      "dur": 25
    },
    {
      "t": 1258.6,
      "ch": 1,
      "note": 40,
      "vel": 92,
      "dur": 25
    },
    {
      "t": 1258.6,
      "ch": 1,
      "note": 42,
      "vel": 63,
      "dur": 25
    },
    {
      "t": 1258.6,
      "ch": 1,
      "note": 36,
      "vel": 88,
      "dur": 25
    },
    {
      "t": 1258.6,
      "ch": 1,
      "note": 38,
      "vel": 102,
      "dur": 25
    },
    {
      "t": 1258.6,
      "ch": 1,
      "note": 40,
      "vel": 78,
      "dur": 25
    },
    {
      "t": 1258.6,
      "ch": 1,
      "note": 42,
      "vel": 78,
      "dur": 25
    },
    {
      "t": 1258.6,
      "ch": 1,
      "note": 36,
      "vel": 79,
      "dur": 25
    },
    {
      "t": 1258.6,
      "ch": 1,
      "note": 38,
      "vel": 73,
      "dur": 25
    },
    {
      "t": 1258.6,
      "ch": 1,
      "note": 40,
      "vel": 81,
      "dur": 25
    },
    {
      "t": 1258.6,
      "ch": 1,
      "note": 42,
      "vel": 96,
      "dur": 25
    },
    {
      "t": 1258.6,
      "ch": 1,
      "note": 36,
      "vel": 106,
      "dur": 25
    },
    {
      "t": 1258.6,
      "ch": 1,
      "note": 38,
      "vel": 84,
      "dur": 25
    },
    {
      "t": 1258.6,
      "ch": 1,
      "note": 40,
      "vel": 102,
      "dur": 25
    },
    {
      "t": 1258.6,
      "ch": 1,
      "note": 42,
      "vel": 106,
      "dur": 25
    },
    {
      "t": 1258.6,
      "ch": 1,
      "note": 36,
      "vel": 88,
      "dur": 25
    },
    {
      "t": 1258.6,
      "ch": 1,
      "note": 38,
      "vel": 90,
      "dur": 25
    },
    {
      "t": 1258.6,
      "ch": 1,
      "note": 40,
      "vel": 89,
      "dur": 25
    },
    {
      "t": 1258.6,
      "ch": 1,
      "note": 42,
      "vel": 72,
      "dur": 25
    },
    {
      "t": 1258.6,
      "ch": 1,
      "note": 36,
      "vel": 78,
      "dur": 25
    },
    {
      "t": 1258.6,
      "ch": 1,
      "note": 38,
      "vel": 104,
      "dur": 25
    },
    {
      "t": 1258.6,
      "ch": 1,
      "note": 40,
      "vel": 84,
      "dur": 25
    },
    {
      "t": 1258.6,
      "ch": 1,
      "note": 42,
      "vel": 81,
      "dur": 25
    },
    {
      "t": 1258.6,
      "ch": 1,
      "note": 36,
      "vel": 91,
      "dur": 25
    },
    {
      "t": 1258.6,
      "ch": 1,
      "note": 38,
      "vel": 79,
      "dur": 25
    },
    {
      "t": 1258.6,
      "ch": 1,
      "note": 40,
      "vel": 67,
      "dur": 25
    },
    {
      "t": 1258.6,
      "ch": 1,
      "note": 42,
      "vel": 78,
      "dur": 25
    },
    {
      "t": 1258.6,
      "ch": 1,
      "note": 36,
      "vel": 80,
      "dur": 25
    },
    {
      "t": 1258.6,
      "ch": 1,
      "note": 38,
      "vel": 90,
      "dur": 25
    },
    {
      "t": 1258.6,
      "ch": 1,
      "note": 40,
      "vel": 53,
      "dur": 25
    },
    {
      "t": 1258.6,
      "ch": 1,
      "note": 42,
      "vel": 84,
      "dur": 25
    },
    {
      "t": 1258.6,
      "ch": 1,
      "note": 36,
      "vel": 63,
      "dur": 25
    },
    {
      "t": 1258.6,
      "ch": 1,
      "note": 38,
      "vel": 97,
      "dur": 25
    },
    {
      "t": 1258.6,
      "ch": 1,
      "note": 40,
      "vel": 96,
      "dur": 25
    },
    {
      "t": 1258.6,
      "ch": 1,
      "note": 42,
      "vel": 95,
      "dur": 25
    },
    {
      "t": 1258.6,
      "ch": 1,
      "note": 36,
      "vel": 75,
      "dur": 25
    },
    {
      "t": 1258.6,
      "ch": 1,
      "note": 38,
      "vel": 80,
      "dur": 25
    },
    {
      "t": 1258.6,
      "ch": 1,
      "note": 40,
      "vel": 83,
      "dur": 25
    },
    {
      "t": 1258.6,
      "ch": 1,
      "note": 42,
      "vel": 63,
      "dur": 25
    },
    {
      "t": 1258.6,
      "ch": 1,
      "note": 36,
      "vel": 105,
      "dur": 25
    },
    {
      "t": 1258.6,
      "ch": 1,
      "note": 38,
      "vel": 85,
      "dur": 25
    },
    {
      "t": 1258.6,
      "ch": 1,
      "note": 40,
      "vel": 102,
      "dur": 25
    },
    {
      "t": 1258.6,
      "ch": 1,
      "note": 42,
      "vel": 112,
      "dur": 25
    },
    {
      "t": 1258.6,
      "ch": 1,
      "note": 36,
      "vel": 81,
      "dur": 25
    },
    {
      "t": 1258.6,
      "ch": 1,
      "note": 38,
      "vel": 87,
      "dur": 25
    },
    {
      "t": 1258.6,
      "ch": 1,
      "note": 40,
      "vel": 63,
      "dur": 25
    },
    {
      "t": 1258.6,
      "ch": 1,
      "note": 42,
      "vel": 81,
      "dur": 25
    },
    {
      "t": 1258.6,
      "ch": 1,
      "note": 36,
      "vel": 72,
      "dur": 25
    },
    {
      "t": 1258.6,
      "ch": 1,
      "note": 38,
      "vel": 76,
      "dur": 25
    },
    {
      "t": 1258.6,
      "ch": 1,
      "note": 40,
      "vel": 56,
      "dur": 25
    },
    {
      "t": 1258.6,
      "ch": 1,
      "note": 42,
      "vel": 81,
      "dur": 25
    },
    {
      "t": 1258.6,
      "ch": 1,
      "note": 36,
      "vel": 101,
      "dur": 25
    },
    {
      "t": 1258.6,
      "ch": 1,
      "note": 38,
      "vel": 95,
      "dur": 25
    },
    {
      "t": 1258.6,
      "ch": 1,
      "note": 40,
      "vel": 81,
      "dur": 25
    },
    {
      "t": 1258.6,
      "ch": 1,
      "note": 42,
      "vel": 95,
      "dur": 25
    },
    {
      "t": 1258.6,
      "ch": 1,
      "note": 36,
      "vel": 85,
      "dur": 25
    },
    {
      "t": 1258.6,
      "ch": 1,
      "note": 38,
      "vel": 111,
      "dur": 25
    },
    {
      "t": 1258.6,
      "ch": 1,
      "note": 40,
      "vel": 75,
      "dur": 25
    },
    {
      "t": 1258.6,
      "ch": 1,
      "note": 42,
      "vel": 100,
      "dur": 25
    },
    {
      "t": 1258.6,
      "ch": 1,
      "note": 36,
      "vel": 81,
      "dur": 25
    },
    {
      "t": 1258.6,
      "ch": 1,
      "note": 38,
      "vel": 72,
      "dur": 25
    },
    {
      "t": 1258.6,
      "ch": 1,
      "note": 40,
      "vel": 66,
      "dur": 25
    },
    {
      "t": 1258.6,
      "ch": 1,
      "note": 42,
      "vel": 80,
      "dur": 25
    },
    {
      "t": 1258.6,
      "ch": 1,
      "note": 36,
      "vel": 96,
      "dur": 25
    },
    {
      "t": 1258.6,
      "ch": 1,
      "note": 38,
      "vel": 65,
      "dur": 25
    },
    {
      "t": 1258.6,
      "ch": 1,
      "note": 40,
      "vel": 69,
      "dur": 25
    },
    {
      "t": 1258.6,
      "ch": 1,
      "note": 42,
      "vel": 87,
      "dur": 25
    },
    {
      "t": 1258.6,
      "ch": 1,
      "note": 36,
      "vel": 88,
      "dur": 25
    },
    {
      "t": 1258.6,
      "ch": 1,
      "note": 38,
      "vel": 69,
      "dur": 25
    },
    {
      "t": 1258.6,
      "ch": 1,
      "note": 40,
      "vel": 83,
      "dur": 25
    },
    {
      "t": 1258.6,
      "ch": 1,
      "note": 42,
      "vel": 91,
      "dur": 25
    },
    {
      "t": 1258.6,
      "ch": 1,
      "note": 36,
      "vel": 71,
      "dur": 25
    },
    {
      "t": 1258.6,
      "ch": 1,
      "note": 38,
      "vel": 60,
      "dur": 25
    },
    {
      "t": 1258.6,
      "ch": 1,
      "note": 40,
      "vel": 85,
      "dur": 25
    },
    {
      "t": 1258.6,
      "ch": 1,
      "note": 42,
      "vel": 81,
      "dur": 25
    },
    {
      "t": 1258.6,
      "ch": 1,
      "note": 36,
      "vel": 86,
      "dur": 25
    },
    {
      "t": 1258.6,
      "ch": 1,
      "note": 38,
      "vel": 95,
      "dur": 25
    },
    {
      "t": 1258.6,
      "ch": 1,
      "note": 40,
      "vel": 98,
      "dur": 25
    },
    {
      "t": 1258.6,
      "ch": 1,
      "note": 42,
      "vel": 111,
      "dur": 25
    },
    {
      "t": 1258.6,
      "ch": 1,
      "note": 36,
      "vel": 118,
      "dur": 25
    },
    {
      "t": 1258.6,
      "ch": 1,
      "note": 38,
      "vel": 68,
      "dur": 25
    },
    {
      "t": 1258.6,
      "ch": 1,
      "note": 40,
      "vel": 94,
      "dur": 25
    },
    {
      "t": 1258.6,
      "ch": 1,
      "note": 42,
      "vel": 74,
      "dur": 25
    },
    {
      "t": 1258.6,
      "ch": 1,
      "note": 36,
      "vel": 64,
      "dur": 25
    },
    {
      "t": 1258.6,
      "ch": 1,
      "note": 38,
      "vel": 82,
      "dur": 25
    },
    {
      "t": 1258.6,
      "ch": 1,
      "note": 40,
      "vel": 104,
      "dur": 25
    },
    {
      "t": 1258.6,
      "ch": 1,
      "note": 42,
      "vel": 94,
      "dur": 25
    },
    {
      "t": 1258.6,
      "ch": 1,
      "note": 36,
      "vel": 83,
      "dur": 25
    },
    {
      "t": 1258.6,
      "ch": 1,
      "note": 38,
      "vel": 98,
      "dur": 25
    },
    {
      "t": 1258.6,
      "ch": 1,
      "note": 40,
      "vel": 84,
      "dur": 25
    },
    {
      "t": 1258.6,
      "ch": 1,
      "note": 42,
      "vel": 103,
      "dur": 25
    },
    {
      "t": 1258.6,
      "ch": 1,
      "note": 36,
      "vel": 101,
      "dur": 25
    },
    {
      "t": 1258.6,
      "ch": 1,
      "note": 38,
      "vel": 90,
      "dur": 25
    },
    {
      "t": 1258.6,
      "ch": 1,
      "note": 40,
      "vel": 92,
      "dur": 25
    },
    {
      "t": 1258.6,
      "ch": 1,
      "note": 42,
      "vel": 61,
      "dur": 25
    },
    {
      "t": 1258.6,
      "ch": 1,
      "note": 36,
      "vel": 93,
      "dur": 25
    },
    {
      "t": 1258.6,
      "ch": 1,
      "note": 38,
      "vel": 77,
      "dur": 25
    },
    {
      "t": 1258.6,
      "ch": 1,
      "note": 40,
      "vel": 51,
      "dur": 25
    },
    {
      "t": 1258.6,
      "ch": 1,
      "note": 42,
      "vel": 89,
      "dur": 25
    },
    {
      "t": 1258.6,
      "ch": 1,
      "note": 36,
      "vel": 84,
      "dur": 25
    },
    {
      "t": 1258.6,
      "ch": 1,
      "note": 38,
      "vel": 85,
      "dur": 25
    },
    {
      "t": 1258.6,
      "ch": 1,
      "note": 40,
      "vel": 94,
      "dur": 25
    },
    {
      "t": 1258.6,
      "ch": 1,
      "note": 42,
      "vel": 87,
      "dur": 25
    },
    {
      "t": 1258.6,
      "ch": 1,
      "note": 36,
      "vel": 82,
      "dur": 25
    },
    {
      "t": 1258.6,
      "ch": 1,
      "note": 38,
      "vel": 80,
      "dur": 25
    },
    {
      "t": 1258.6,
      "ch": 1,
      "note": 40,
      "vel": 98,
      "dur": 25
    },
    {
      "t": 1258.6,
      "ch": 1,
      "note": 42,
      "vel": 93,
      "dur": 25
    },
    {
      "t": 1258.6,
      "ch": 1,
      "note": 36,
      "vel": 71,
      "dur": 25
    },
    {
      "t": 1258.6,
      "ch": 1,
      "note": 38,
      "vel": 74,
      "dur": 25
    },
    {
      "t": 1258.6,
      "ch": 1,
      "note": 40,
      "vel": 90,
      "dur": 25
    },
    {
      "t": 1258.6,
      "ch": 1,
      "note": 42,
      "vel": 86,
      "dur": 25
    },
    {
      "t": 1258.6,
      "ch": 1,
      "note": 36,
      "vel": 93,
      "dur": 25
    },
    {
      "t": 1258.6,
      "ch": 1,
      "note": 38,
      "vel": 79,
      "dur": 25
    },
    {
      "t": 1258.6,
      "ch": 1,
      "note": 40,
      "vel": 83,
      "dur": 25
    },
    {
      "t": 1258.6,
      "ch": 1,
      "note": 42,
      "vel": 69,
      "dur": 25
    },
    {
      "t": 1258.6,
      "ch": 1,
      "note": 36,
      "vel": 88,
      "dur": 25
    },
    {
      "t": 1258.6,
      "ch": 1,
      "note": 38,
      "vel": 78,
      "dur": 25
    },
    {
      "t": 1258.6,
      "ch": 1,
      "note": 40,
      "vel": 98,
      "dur": 25
    },
    {
      "t": 1258.6,
      "ch": 1,
      "note": 42,
      "vel": 100,
      "dur": 25
    },
    {
      "t": 1258.6,
      "ch": 1,
      "note": 36,
      "vel": 69,
      "dur": 25
    },
    {
      "t": 1258.6,
      "ch": 1,
      "note": 38,
      "vel": 73,
      "dur": 25
    },
    {
      "t": 1258.6,
      "ch": 1,
      "note": 40,
      "vel": 98,
      "dur": 25
    },
    {
      "t": 1258.6,
      "ch": 1,
      "note": 42,
      "vel": 84,
      "dur": 25
    },
    {
      "t": 1258.6,
      "ch": 1,
      "note": 36,
      "vel": 87,
      "dur": 25
    },
    {
      "t": 1258.6,
      "ch": 1,
      "note": 38,
      "vel": 83,
      "dur": 25
    },
    {
      "t": 1258.6,
      "ch": 1,
      "note": 40,
      "vel": 76,
      "dur": 25
    },
    {
      "t": 1258.6,
      "ch": 1,
      "note": 42,
      "vel": 72,
      "dur": 25
    },
    {
      "t": 1258.6,
      "ch": 1,
      "note": 36,
      "vel": 88,
      "dur": 25
    },
    {
      "t": 1258.6,
      "ch": 1,
      "note": 38,
      "vel": 92,
      "dur": 25
    },
    {
      "t": 1258.6,
      "ch": 1,
      "note": 40,
      "vel": 103,
      "dur": 25
    },
    {
      "t": 1258.6,
      "ch": 1,
      "note": 42,
      "vel": 85,
      "dur": 25
    },
    {
      "t": 1258.6,
      "ch": 1,
      "note": 36,
      "vel": 82,
      "dur": 25
    },
    {
      "t": 1258.6,
      "ch": 1,
      "note": 38,
      "vel": 91,
      "dur": 25
    },
    {
      "t": 1258.6,
      "ch": 1,
      "note": 40,
      "vel": 89,
      "dur": 25
    },
    {
      "t": 1258.6,
      "ch": 1,
      "note": 42,
      "vel": 100,
      "dur": 25
    },
    {
      "t": 1258.6,
      "ch": 1,
      "note": 36,
      "vel": 97,
      "dur": 25
    },
    {
      "t": 1258.6,
      "ch": 1,
      "note": 38,
      "vel": 67,
      "dur": 25
    },
    {
      "t": 1258.6,
      "ch": 1,
      "note": 40,
      "vel": 105,
      "dur": 25
    },
    {
      "t": 1258.6,
      "ch": 1,
      "note": 42,
      "vel": 80,
      "dur": 25
    },
    {
      "t": 1258.6,
      "ch": 1,
      "note": 36,
      "vel": 95,
      "dur": 25
    },
    {
      "t": 1258.6,
      "ch": 1,
      "note": 38,
      "vel": 84,
      "dur": 25
    },
    {
      "t": 1258.6,
      "ch": 1,
      "note": 40,
      "vel": 95,
      "dur": 25
    },
    {
      "t": 1258.6,
      "ch": 1,
      "note": 42,
      "vel": 73,
      "dur": 25
    },
    {
      "t": 1258.6,
      "ch": 1,
      "note": 36,
      "vel": 98,
      "dur": 25
    },
    {
      "t": 1258.6,
      "ch": 1,
      "note": 38,
      "vel": 101,
      "dur": 25
    },
    {
      "t": 1258.6,
      "ch": 1,
      "note": 40,
      "vel": 97,
      "dur": 25
    },
    {
      "t": 1258.6,
      "ch": 1,
      "note": 42,
      "vel": 93,
      "dur": 25
    },
    {
      "t": 1258.6,
      "ch": 1,
      "note": 36,
      "vel": 78,
      "dur": 25
    },
    {
      "t": 1258.6,
      "ch": 1,
      "note": 38,
      "vel": 73,
      "dur": 25
    },
    {
      "t": 1258.6,
      "ch": 1,
      "note": 40,
      "vel": 97,
      "dur": 25
    },
    {
      "t": 1258.6,
      "ch": 1,
      "note": 42,
      "vel": 61,
      "dur": 25
    },
    {
      "t": 1258.6,
      "ch": 1,
      "note": 36,
      "vel": 86,
      "dur": 25
    },
    {
      "t": 1258.6,
      "ch": 1,
      "note": 38,
      "vel": 74,
      "dur": 25
    },
    {
      "t": 1258.6,
      "ch": 1,
      "note": 40,
      "vel": 75,
      "dur": 25
    },
    {
      "t": 1258.6,
      "ch": 1,
      "note": 42,
      "vel": 101,
      "dur": 25
    },
    {
      "t": 1258.6,
      "ch": 1,
      "note": 36,
      "vel": 54,
      "dur": 25
    },
    {
      "t": 1258.6,
      "ch": 1,
      "note": 38,
      "vel": 76,
      "dur": 25
    },
    {
      "t": 1258.6,
      "ch": 1,
      "note": 40,
      "vel": 75,
      "dur": 25
    },
    {
      "t": 1258.6,
      "ch": 1,
      "note": 42,
      "vel": 72,
      "dur": 25
    },
    {
      "t": 1258.6,
      "ch": 1,
      "note": 36,
      "vel": 60,
      "dur": 25
    },
    {
      "t": 1258.6,
      "ch": 1,
      "note": 38,
      "vel": 65,
      "dur": 25
    },
    {
      "t": 1258.6,
      "ch": 1,
      "note": 40,
      "vel": 109,
      "dur": 25
    },
    {
      "t": 1258.6,
      "ch": 1,
      "note": 42,
      "vel": 71,
      "dur": 25
    },
    {
      "t": 1258.6,
      "ch": 1,
      "note": 36,
      "vel": 77,
      "dur": 25
    },
    {
      "t": 1258.6,
      "ch": 1,
      "note": 38,
      "vel": 72,
      "dur": 25
    },
    {
      "t": 1258.6,
      "ch": 1,
      "note": 40,
      "vel": 102,
      "dur": 25
    },
    {
      "t": 1258.6,
      "ch": 1,
      "note": 42,
      "vel": 103,
      "dur": 25
    },
    {
      "t": 1258.6,
      "ch": 1,
      "note": 36,
      "vel": 95,
      "dur": 25
    },
    {
      "t": 1258.6,
      "ch": 1,
      "note": 38,
      "vel": 67,
      "dur": 25
    },
    {
      "t": 1258.6,
      "ch": 1,
      "note": 40,
      "vel": 101,
      "dur": 25
    },
    {
      "t": 1258.6,
      "ch": 1,
      "note": 42,
      "vel": 88,
      "dur": 25
    },
    {
      "t": 1258.6,
      "ch": 1,
      "note": 36,
      "vel": 95,
      "dur": 25
    },
    {
      "t": 1258.6,
      "ch": 1,
      "note": 38,
      "vel": 82,
      "dur": 25
    },
    {
      "t": 1258.6,
      "ch": 1,
      "note": 40,
      "vel": 89,
      "dur": 25
    },
    {
      "t": 1258.6,
      "ch": 1,
      "note": 42,
      "vel": 75,
      "dur": 25
    },
    {
      "t": 1258.6,
      "ch": 1,
      "note": 36,
      "vel": 77,
      "dur": 25
    },
    {
      "t": 1258.6,
      "ch": 1,
      "note": 38,
      "vel": 81,
      "dur": 25
    },
    {
      "t": 1258.6,
      "ch": 1,
      "note": 40,
      "vel": 76,
      "dur": 25
    },
    {
      "t": 1258.6,
      "ch": 1,
      "note": 42,
      "vel": 78,
      "dur": 25
    },
    {
      "t": 1258.6,
      "ch": 1,
      "note": 36,
      "vel": 106,
      "dur": 25
    },
    {
      "t": 1258.6,
      "ch": 1,
      "note": 38,
      "vel": 89,
      "dur": 25
    },
    {
      "t": 1258.6,
      "ch": 1,
      "note": 40,
      "vel": 107,
      "dur": 25
    },
    {
      "t": 1258.6,
      "ch": 1,
      "note": 42,
      "vel": 105,
      "dur": 25
    },
    {
      "t": 1258.6,
      "ch": 1,
      "note": 36,
      "vel": 75,
      "dur": 25
    },
    {
      "t": 1258.6,
      "ch": 1,
      "note": 38,
      "vel": 87,
      "dur": 25
    },
    {
      "t": 1258.6,
      "ch": 1,
      "note": 40,
      "vel": 80,
      "dur": 25
    },
    {
      "t": 1258.6,
      "ch": 1,
      "note": 42,
      "vel": 85,
      "dur": 25
    },
    {
      "t": 1258.6,
      "ch": 1,
      "note": 36,
      "vel": 77,
      "dur": 25
    },
    {
      "t": 1258.6,
      "ch": 1,
      "note": 38,
      "vel": 56,
      "dur": 25
    },
    {
      "t": 1258.6,
      "ch": 1,
      "note": 40,
      "vel": 87,
      "dur": 25
    },
    {
      "t": 1258.6,
      "ch": 1,
      "note": 42,
      "vel": 104,
      "dur": 25
    },
    {
      "t": 1258.6,
      "ch": 1,
      "note": 36,
      "vel": 71,
      "dur": 25
    },
    {
      "t": 1258.6,
      "ch": 1,
      "note": 38,
      "vel": 79,
      "dur": 25
    },
    {
      "t": 1258.6,
      "ch": 1,
      "note": 40,
      "vel": 64,
      "dur": 25
    },
    {
      "t": 1258.6,
      "ch": 1,
      "note": 42,
      "vel": 90,
      "dur": 25
    },
    {
      "t": 1258.6,
      "ch": 1,
      "note": 36,
      "vel": 89,
      "dur": 25
    },
    {
      "t": 1258.6,
      "ch": 1,
      "note": 38,
      "vel": 76,
      "dur": 25
    },
    {
      "t": 1258.6,
      "ch": 1,
      "note": 40,
      "vel": 76,
      "dur": 25
    },
    {
      "t": 1258.6,
      "ch": 1,
      "note": 42,
      "vel": 103,
      "dur": 25
    },
    {
      "t": 1258.6,
      "ch": 1,
      "note": 36,
      "vel": 115,
      "dur": 25
    },
    {
      "t": 1258.6,
      "ch": 1,
      "note": 38,
      "vel": 76,
      "dur": 25
    },
    {
      "t": 1258.6,
      "ch": 1,
      "note": 40,
      "vel": 96,
      "dur": 25
    },
    {
      "t": 1258.6,
      "ch": 1,
      "note": 42,
      "vel": 79,
      "dur": 25
    },
    {
      "t": 1258.6,
      "ch": 1,
      "note": 36,
      "vel": 92,
      "dur": 25
    },
    {
      "t": 1258.6,
      "ch": 1,
      "note": 38,
      "vel": 71,
      "dur": 25
    },
    {
      "t": 1258.6,
      "ch": 1,
      "note": 40,
      "vel": 76,
      "dur": 25
    },
    {
      "t": 1258.6,
      "ch": 1,
      "note": 42,
      "vel": 75,
      "dur": 25
    },
    {
      "t": 1258.6,
      "ch": 1,
      "note": 36,
      "vel": 73,
      "dur": 25
    },
    {
      "t": 1258.6,
      "ch": 1,
      "note": 38,
      "vel": 92,
      "dur": 25
    },
    {
      "t": 1258.6,
      "ch": 1,
      "note": 40,
      "vel": 93,
      "dur": 25
    },
    {
      "t": 1258.6,
      "ch": 1,
      "note": 42,
      "vel": 84,
      "dur": 25
    },
    {
      "t": 1258.6,
      "ch": 1,
      "note": 36,
      "vel": 78,
      "dur": 25
    },
    {
      "t": 1258.6,
      "ch": 1,
      "note": 38,
      "vel": 91,
      "dur": 25
    },
    {
      "t": 1258.6,
      "ch": 1,
      "note": 40,
      "vel": 62,
      "dur": 25
    },
    {
      "t": 1258.6,
      "ch": 1,
      "note": 42,
      "vel": 62,
      "dur": 25
    },
    {
      "t": 1258.6,
      "ch": 1,
      "note": 36,
      "vel": 84,
      "dur": 25
    },
    {
      "t": 1258.6,
      "ch": 1,
      "note": 38,
      "vel": 73,
      "dur": 25
    },
    {
      "t": 1258.6,
      "ch": 1,
      "note": 40,
      "vel": 94,
      "dur": 25
    },
    {
      "t": 1258.6,
      "ch": 1,
      "note": 42,
      "vel": 71,
      "dur": 25
    },
    {
      "t": 1258.6,
      "ch": 1,
      "note": 36,
      "vel": 84,
      "dur": 25
    },
    {
      "t": 1258.6,
      "ch": 1,
      "note": 38,
      "vel": 91,
      "dur": 25
    },
    {
      "t": 1258.6,
      "ch": 1,
      "note": 40,
      "vel": 78,
      "dur": 25
    },
    {
      "t": 1258.6,
      "ch": 1,
      "note": 42,
      "vel": 97,
      "dur": 25
    },
    {
      "t": 1258.6,
      "ch": 1,
      "note": 36,
      "vel": 100,
      "dur": 25
    },
    {
      "t": 1258.6,
      "ch": 1,
      "note": 38,
      "vel": 93,
      "dur": 25
    },
    {
      "t": 1258.6,
      "ch": 1,
      "note": 40,
      "vel": 94,
      "dur": 25
    },
    {
      "t": 1258.6,
      "ch": 1,
      "note": 42,
      "vel": 70,
      "dur": 25
    },
    {
      "t": 1258.6,
      "ch": 1,
      "note": 36,
      "vel": 81,
      "dur": 25
    },
    {
      "t": 1258.6,
      "ch": 1,
      "note": 38,
      "vel": 87,
      "dur": 25
    },
    {
      "t": 1258.6,
      "ch": 1,
      "note": 40,
      "vel": 106,
      "dur": 25
    },
    {
      "t": 1258.6,
      "ch": 1,
      "note": 42,
      "vel": 106,
      "dur": 25
    },
    {
      "t": 1258.6,
      "ch": 1,
      "note": 36,
      "vel": 78,
      "dur": 25
    },
    {
      "t": 1258.6,
      "ch": 1,
      "note": 38,
      "vel": 104,
      "dur": 25
    },
    {
      "t": 1258.6,
      "ch": 1,
      "note": 40,
      "vel": 88,
      "dur": 25
    },
    {
      "t": 1258.6,
      "ch": 1,
      "note": 42,
      "vel": 60,
      "dur": 25
    },
    {
      "t": 1258.6,
      "ch": 1,
      "note": 36,
      "vel": 94,
      "dur": 25
    },
    {
      "t": 1258.6,
      "ch": 1,
      "note": 38,
      "vel": 79,
      "dur": 25
    },
    {
      "t": 1258.6,
      "ch": 1,
      "note": 40,
      "vel": 101,
      "dur": 25
    },
    {
      "t": 1258.6,
      "ch": 1,
      "note": 42,
      "vel": 77,
      "dur": 25
    },
    {
      "t": 1258.6,
      "ch": 1,
      "note": 36,
      "vel": 71,
      "dur": 25
    },
    {
      "t": 1258.6,
      "ch": 1,
      "note": 38,
      "vel": 103,
      "dur": 25
    },
    {
      "t": 1258.6,
      "ch": 1,
      "note": 40,
      "vel": 78,
      "dur": 25
    },
    {
      "t": 1258.6,
      "ch": 1,
      "note": 42,
      "vel": 77,
      "dur": 25
    },
    {
      "t": 1258.6,
      "ch": 1,
      "note": 36,
      "vel": 92,
      "dur": 25
    },
    {
      "t": 1258.6,
      "ch": 1,
      "note": 38,
      "vel": 76,
      "dur": 25
    },
    {
      "t": 1258.6,
      "ch": 1,
      "note": 40,
      "vel": 93,
      "dur": 25
    },
    {
      "t": 1258.6,
      "ch": 1,
      "note": 42,
      "vel": 89,
      "dur": 25
    },
    {
      "t": 1258.6,
      "ch": 1,
      "note": 36,
      "vel": 74,
      "dur": 25
    },
    {
      "t": 1258.6,
      "ch": 1,
      "note": 38,
      "vel": 65,
      "dur": 25
    },
    {
      "t": 1258.6,
      "ch": 1,
      "note": 40,
      "vel": 88,
      "dur": 25
    },
    {
      "t": 1258.6,
      "ch": 1,
      "note": 42,
      "vel": 83,
      "dur": 25
    },
    {
      "t": 1258.6,
      "ch": 1,
      "note": 36,
      "vel": 107,
      "dur": 25
    },
    {
      "t": 1258.6,
      "ch": 1,
      "note": 38,
      "vel": 85,
      "dur": 25
    },
    {
      "t": 1258.6,
      "ch": 1,
      "note": 40,
      "vel": 64,
      "dur": 25
    },
    {
      "t": 1258.6,
      "ch": 1,
      "note": 42,
      "vel": 69,
      "dur": 25
    },
    {
      "t": 1258.6,
      "ch": 1,
      "note": 36,
      "vel": 62,
      "dur": 25
    },
    {
      "t": 1258.6,
      "ch": 1,
      "note": 38,
      "vel": 88,
      "dur": 25
    },
    {
      "t": 1258.6,
      "ch": 1,
      "note": 40,
      "vel": 59,
      "dur": 25
    },
    {
      "t": 1258.6,
      "ch": 1,
      "note": 42,
      "vel": 90,
      "dur": 25
    },
    {
      "t": 1258.6,
      "ch": 1,
      "note": 36,
      "vel": 76,
      "dur": 25
    },
    {
      "t": 1258.6,
      "ch": 1,
      "note": 38,
      "vel": 66,
      "dur": 25
    },
    {
      "t": 1258.6,
      "ch": 1,
      "note": 40,
      "vel": 90,
      "dur": 25
    },
    {
      "t": 1258.6,
      "ch": 1,
      "note": 42,
      "vel": 91,
      "dur": 25
    },
    {
      "t": 1258.6,
      "ch": 1,
      "note": 36,
      "vel": 99,
      "dur": 25
    },
    {
      "t": 1258.6,
      "ch": 1,
      "note": 38,
      "vel": 83,
      "dur": 25
    },
    {
      "t": 1258.6,
      "ch": 1,
      "note": 40,
      "vel": 80,
      "dur": 25
    },
    {
      "t": 1258.6,
      "ch": 1,
      "note": 42,
      "vel": 93,
      "dur": 25
    },
    {
      "t": 1258.6,
      "ch": 1,
      "note": 36,
      "vel": 83,
      "dur": 25
    },
    {
      "t": 1258.6,
      "ch": 1,
      "note": 38,
      "vel": 73,
      "dur": 25
    },
    {
      "t": 1258.6,
      "ch": 1,
      "note": 40,
      "vel": 112,
      "dur": 25
    },
    {
      "t": 1258.6,
      "ch": 1,
      "note": 42,
      "vel": 58,
      "dur": 25
    },
    {
      "t": 1258.6,
      "ch": 1,
      "note": 36,
      "vel": 83,
      "dur": 25
    },
    {
      "t": 1258.6,
      "ch": 1,
      "note": 38,
      "vel": 81,
      "dur": 25
    },
    {
      "t": 1258.6,
      "ch": 1,
      "note": 40,
      "vel": 94,
      "dur": 25
    },
    {
      "t": 1258.6,
      "ch": 1,
      "note": 42,
      "vel": 110,
      "dur": 25
    },
    {
      "t": 1258.6,
      "ch": 1,
      "note": 36,
      "vel": 79,
      "dur": 25
    },
    {
      "t": 1258.6,
      "ch": 1,
      "note": 38,
      "vel": 84,
      "dur": 25
    },
    {
      "t": 1258.6,
      "ch": 1,
      "note": 40,
      "vel": 88,
      "dur": 25
    },
    {
      "t": 1258.6,
      "ch": 1,
      "note": 42,
      "vel": 89,
      "dur": 25
    },
    {
      "t": 1258.6,
      "ch": 1,
      "note": 36,
      "vel": 89,
      "dur": 25
    },
    {
      "t": 1258.6,
      "ch": 1,
      "note": 38,
      "vel": 60,
      "dur": 25
    },
    {
      "t": 1258.6,
      "ch": 1,
      "note": 40,
      "vel": 88,
      "dur": 25
    },
    {
      "t": 1258.6,
      "ch": 1,
      "note": 42,
      "vel": 95,
      "dur": 25
    },
    {
      "t": 1258.6,
      "ch": 1,
      "note": 36,
      "vel": 76,
      "dur": 25
    },
    {
      "t": 1258.6,
      "ch": 1,
      "note": 38,
      "vel": 93,
      "dur": 25
    },
    {
      "t": 1258.6,
      "ch": 1,
      "note": 40,
      "vel": 99,
      "dur": 25
    },
    {
      "t": 1258.6,
      "ch": 1,
      "note": 42,
      "vel": 82,
      "dur": 25
    },
    {
      "t": 1258.6,
      "ch": 1,
      "note": 36,
      "vel": 90,
      "dur": 25
    },
    {
      "t": 1258.6,
      "ch": 1,
      "note": 38,
      "vel": 90,
      "dur": 25
    },
    {
      "t": 1258.6,
      "ch": 1,
      "note": 40,
      "vel": 85,
      "dur": 25
    },
    {
      "t": 1258.6,
      "ch": 1,
      "note": 42,
      "vel": 69,
      "dur": 25
    },
    {
      "t": 1258.6,
      "ch": 1,
      "note": 36,
      "vel": 76,
      "dur": 25
    },
    {
      "t": 1258.6,
      "ch": 1,
      "note": 38,
      "vel": 91,
      "dur": 25
    },
    {
      "t": 1258.6,
      "ch": 1,
      "note": 40,
      "vel": 81,
      "dur": 25
    },
    {
      "t": 1258.6,
      "ch": 1,
      "note": 42,
      "vel": 80,
      "dur": 25
    },
    {
      "t": 1258.6,
      "ch": 1,
      "note": 36,
      "vel": 78,
      "dur": 25
    },
    {
      "t": 1258.6,
      "ch": 1,
      "note": 38,
      "vel": 92,
      "dur": 25
    },
    {
      "t": 1258.6,
      "ch": 1,
      "note": 40,
      "vel": 79,
      "dur": 25
    },
    {
      "t": 1258.6,
      "ch": 1,
      "note": 42,
      "vel": 96,
      "dur": 25
    },
    {
      "t": 1258.6,
      "ch": 1,
      "note": 36,
      "vel": 86,
      "dur": 25
    },
    {
      "t": 1258.6,
      "ch": 1,
      "note": 38,
      "vel": 78,
      "dur": 25
    },
    {
      "t": 1258.6,
      "ch": 1,
      "note": 40,
      "vel": 80,
      "dur": 25
    },
    {
      "t": 1258.6,
      "ch": 1,
      "note": 42,
      "vel": 94,
      "dur": 25
    },
    {
      "t": 1258.6,
      "ch": 1,
      "note": 36,
      "vel": 65,
      "dur": 25
    },
    {
      "t": 1258.6,
      "ch": 1,
      "note": 38,
      "vel": 73,
      "dur": 25
    },
    {
      "t": 1258.6,
      "ch": 1,
      "note": 40,
      "vel": 74,
      "dur": 25
    },
    {
      "t": 1258.6,
      "ch": 1,
      "note": 42,
      "vel": 81,
      "dur": 25
    },
    {
      "t": 1258.6,
      "ch": 1,
      "note": 36,
      "vel": 87,
      "dur": 25
    },
    {
      "t": 1258.6,
      "ch": 1,
      "note": 38,
      "vel": 82,
      "dur": 25
    },
    {
      "t": 1258.6,
      "ch": 1,
      "note": 40,
      "vel": 65,
      "dur": 25
    },
    {
      "t": 1258.6,
      "ch": 1,
      "note": 42,
      "vel": 76,
      "dur": 25
    },
    {
      "t": 1258.6,
      "ch": 1,
      "note": 36,
      "vel": 54,
      "dur": 25
    },
    {
      "t": 1258.6,
      "ch": 1,
      "note": 38,
      "vel": 94,
      "dur": 25
    },
    {
      "t": 1258.6,
      "ch": 1,
      "note": 40,
      "vel": 72,
      "dur": 25
    },
    {
      "t": 1258.6,
      "ch": 1,
      "note": 42,
      "vel": 56,
      "dur": 25
    },
    {
      "t": 1258.6,
      "ch": 1,
      "note": 36,
      "vel": 95,
      "dur": 25
    },
    {
      "t": 1258.6,
      "ch": 1,
      "note": 38,
      "vel": 94,
      "dur": 25
    },
    {
      "t": 1258.6,
      "ch": 1,
      "note": 40,
      "vel": 77,
      "dur": 25
    },
    {
      "t": 1258.6,
      "ch": 1,
      "note": 42,
      "vel": 90,
      "dur": 25
    },
    {
      "t": 1258.6,
      "ch": 1,
      "note": 36,
      "vel": 89,
      "dur": 25
    },
    {
      "t": 1258.6,
      "ch": 1,
      "note": 38,
      "vel": 70,
      "dur": 25
    },
    {
      "t": 1258.6,
      "ch": 1,
      "note": 40,
      "vel": 76,
      "dur": 25
    },
    {
      "t": 1258.6,
      "ch": 1,
      "note": 42,
      "vel": 74,
      "dur": 25
    },
    {
      "t": 1258.6,
      "ch": 1,
      "note": 36,
      "vel": 69,
      "dur": 25
    },
    {
      "t": 1258.6,
      "ch": 1,
      "note": 38,
      "vel": 82,
      "dur": 25
    },
    {
      "t": 1258.6,
      "ch": 1,
      "note": 40,
      "vel": 72,
      "dur": 25
    },
    {
      "t": 1258.6,
      "ch": 1,
      "note": 42,
      "vel": 87,
      "dur": 25
    },
    {
      "t": 1258.6,
      "ch": 1,
      "note": 36,
      "vel": 92,
      "dur": 25
    },
    {
      "t": 1258.6,
      "ch": 1,
      "note": 38,
      "vel": 85,
      "dur": 25
    },
    {
      "t": 1258.6,
      "ch": 1,
      "note": 40,
      "vel": 96,
      "dur": 25
    },
    {
      "t": 1258.6,
      "ch": 1,
      "note": 42,
      "vel": 81,
      "dur": 25
    },
    {
      "t": 1258.6,
      "ch": 1,
      "note": 36,
      "vel": 68,
      "dur": 25
    },
    {
      "t": 1258.6,
      "ch": 1,
      "note": 38,
      "vel": 67,
      "dur": 25
    },
    {
      "t": 1258.6,
      "ch": 1,
      "note": 40,
      "vel": 97,
      "dur": 25
    },
    {
      "t": 1258.6,
      "ch": 1,
      "note": 42,
      "vel": 88,
      "dur": 25
    },
    {
      "t": 1258.6,
      "ch": 1,
      "note": 36,
      "vel": 95,
      "dur": 25
    },
    {
      "t": 1258.6,
      "ch": 1,
      "note": 38,
      "vel": 53,
      "dur": 25
    },
    {
      "t": 1258.6,
      "ch": 1,
      "note": 40,
      "vel": 87,
      "dur": 25
    },
    {
      "t": 1258.6,
      "ch": 1,
      "note": 42,
      "vel": 93,
      "dur": 25
    },
    {
      "t": 1258.6,
      "ch": 1,
      "note": 36,
      "vel": 70,
      "dur": 25
    },
    {
      "t": 1258.6,
      "ch": 1,
      "note": 38,
      "vel": 68,
      "dur": 25
    },
    {
      "t": 1258.6,
      "ch": 1,
      "note": 40,
      "vel": 75,
      "dur": 25
    },
    {
      "t": 1258.6,
      "ch": 1,
      "note": 42,
      "vel": 80,
      "dur": 25
    },
    {
      "t": 1258.6,
      "ch": 1,
      "note": 36,
      "vel": 83,
      "dur": 25
    },
    {
      "t": 1258.6,
      "ch": 1,
      "note": 38,
      "vel": 79,
      "dur": 25
    },
    {
      "t": 1258.6,
      "ch": 1,
      "note": 40,
      "vel": 86,
      "dur": 25
    },
    {
      "t": 1258.6,
      "ch": 1,
      "note": 42,
      "vel": 66,
      "dur": 25
    },
    {
      "t": 1258.6,
      "ch": 1,
      "note": 36,
      "vel": 81,
      "dur": 25
    },
    {
      "t": 1258.6,
      "ch": 1,
      "note": 38,
      "vel": 63,
      "dur": 25
    },
    {
      "t": 1258.6,
      "ch": 1,
      "note": 40,
      "vel": 64,
      "dur": 25
    },
    {
      "t": 1258.6,
      "ch": 1,
      "note": 42,
      "vel": 108,
      "dur": 25
    },
    {
      "t": 1258.6,
      "ch": 1,
      "note": 36,
      "vel": 94,
      "dur": 25
    },
    {
      "t": 1258.6,
      "ch": 1,
      "note": 38,
      "vel": 91,
      "dur": 25
    },
    {
      "t": 1258.6,
      "ch": 1,
      "note": 40,
      "vel": 102,
      "dur": 25
    },
    {
      "t": 1258.6,
      "ch": 1,
      "note": 42,
      "vel": 105,
      "dur": 25
    },
    {
      "t": 1258.6,
      "ch": 1,
      "note": 36,
      "vel": 83,
      "dur": 25
    },
    {
      "t": 1258.6,
      "ch": 1,
      "note": 38,
      "vel": 78,
      "dur": 25
    },
    {
      "t": 1258.6,
      "ch": 1,
      "note": 40,
      "vel": 86,
      "dur": 25
    },
    {
      "t": 1258.6,
      "ch": 1,
      "note": 42,
      "vel": 94,
      "dur": 25
    },
    {
      "t": 1258.6,
      "ch": 1,
      "note": 36,
      "vel": 96,
      "dur": 25
    },
    {
      "t": 1258.6,
      "ch": 1,
      "note": 38,
      "vel": 66,
      "dur": 25
    },
    {
      "t": 1258.6,
      "ch": 1,
      "note": 40,
      "vel": 102,
      "dur": 25
    },
    {
      "t": 1258.6,
      "ch": 1,
      "note": 42,
      "vel": 109,
      "dur": 25
    },
    {
      "t": 1258.6,
      "ch": 1,
      "note": 36,
      "vel": 78,
      "dur": 25
    },
    {
      "t": 1258.6,
      "ch": 1,
      "note": 38,
      "vel": 84,
      "dur": 25
    },
    {
      "t": 1258.6,
      "ch": 1,
      "note": 40,
      "vel": 73,
      "dur": 25
    },
    {
      "t": 1258.6,
      "ch": 1,
      "note": 42,
      "vel": 103,
      "dur": 25
    },
    {
      "t": 1258.6,
      "ch": 1,
      "note": 36,
      "vel": 94,
      "dur": 25
    },
    {
      "t": 1258.6,
      "ch": 1,
      "note": 38,
      "vel": 75,
      "dur": 25
    },
    {
      "t": 1258.6,
      "ch": 1,
      "note": 40,
      "vel": 83,
      "dur": 25
    },
    {
      "t": 1258.6,
      "ch": 1,
      "note": 42,
      "vel": 91,
      "dur": 25
    },
    {
      "t": 1258.6,
      "ch": 1,
      "note": 36,
      "vel": 88,
      "dur": 25
    },
    {
      "t": 1258.6,
      "ch": 1,
      "note": 38,
      "vel": 69,
      "dur": 25
    },
    {
      "t": 1258.6,
      "ch": 1,
      "note": 40,
      "vel": 94,
      "dur": 25
    },
    {
      "t": 1258.6,
      "ch": 1,
      "note": 42,
      "vel": 91,
      "dur": 25
    },
    {
      "t": 1258.6,
      "ch": 1,
      "note": 36,
      "vel": 95,
      "dur": 25
    },
    {
      "t": 1258.6,
      "ch": 1,
      "note": 38,
      "vel": 68,
      "dur": 25
    },
    {
      "t": 1258.6,
      "ch": 1,
      "note": 40,
      "vel": 83,
      "dur": 25
    },
    {
      "t": 1258.6,
      "ch": 1,
      "note": 42,
      "vel": 81,
      "dur": 25
    },
    {
      "t": 1258.6,
      "ch": 1,
      "note": 36,
      "vel": 96,
      "dur": 25
    },
    {
      "t": 1258.6,
      "ch": 1,
      "note": 38,
      "vel": 95,
      "dur": 25
    },
    {
      "t": 1258.6,
      "ch": 1,
      "note": 40,
      "vel": 90,
      "dur": 25
    },
    {
      "t": 1258.6,
      "ch": 1,
      "note": 42,
      "vel": 70,
      "dur": 25
    },
    {
      "t": 1258.6,
      "ch": 1,
      "note": 36,
      "vel": 80,
      "dur": 25
    },
    {
      "t": 1258.6,
      "ch": 1,
      "note": 38,
      "vel": 64,
      "dur": 25
    },
    {
      "t": 1258.6,
      "ch": 1,
      "note": 40,
      "vel": 66,
      "dur": 25
    },
    {
      "t": 1258.6,
      "ch": 1,
      "note": 42,
      "vel": 93,
      "dur": 25
    },
    {
      "t": 1258.6,
      "ch": 1,
      "note": 36,
      "vel": 83,
      "dur": 25
    },
    {
      "t": 1258.6,
      "ch": 1,
      "note": 38,
      "vel": 59,
      "dur": 25
    },
    {
      "t": 1258.6,
      "ch": 1,
      "note": 40,
      "vel": 69,
      "dur": 25
    },
    {
      "t": 1258.6,
      "ch": 1,
      "note": 42,
      "vel": 84,
      "dur": 25
    },
    {
      "t": 1258.6,
      "ch": 1,
      "note": 36,
      "vel": 99,
      "dur": 25
    },
    {
      "t": 1258.6,
      "ch": 1,
      "note": 38,
      "vel": 90,
      "dur": 25
    },
    {
      "t": 1258.6,
      "ch": 1,
      "note": 40,
      "vel": 98,
      "dur": 25
    },
    {
      "t": 1258.6,
      "ch": 1,
      "note": 42,
      "vel": 103,
      "dur": 25
    },
    {
      "t": 1258.6,
      "ch": 1,
      "note": 36,
      "vel": 65,
      "dur": 25
    },
    {
      "t": 1258.6,
      "ch": 1,
      "note": 38,
      "vel": 91,
      "dur": 25
    },
    {
      "t": 1258.6,
      "ch": 1,
      "note": 40,
      "vel": 88,
      "dur": 25
    },
    {
      "t": 1258.6,
      "ch": 1,
      "note": 42,
      "vel": 77,
      "dur": 25
    },
    {
      "t": 1258.6,
      "ch": 1,
      "note": 36,
      "vel": 107,
      "dur": 25
    },
    {
      "t": 1258.6,
      "ch": 1,
      "note": 38,
      "vel": 72,
      "dur": 25
    },
    {
      "t": 1258.6,
      "ch": 1,
      "note": 40,
      "vel": 69,
      "dur": 25
    },
    {
      "t": 1258.6,
      "ch": 1,
      "note": 42,
      "vel": 81,
      "dur": 25
    },
    {
      "t": 1258.6,
      "ch": 1,
      "note": 36,
      "vel": 78,
      "dur": 25
    },
    {
      "t": 1258.6,
      "ch": 1,
      "note": 38,
      "vel": 97,
      "dur": 25
    },
    {
      "t": 1258.6,
      "ch": 1,
      "note": 40,
      "vel": 54,
      "dur": 25
    },
    {
      "t": 1258.6,
      "ch": 1,
      "note": 42,
      "vel": 106,
      "dur": 25
    },
    {
      "t": 1258.6,
      "ch": 1,
      "note": 36,
      "vel": 80,
      "dur": 25
    },
    {
      "t": 1258.6,
      "ch": 1,
      "note": 38,
      "vel": 86,
      "dur": 25
    },
    {
      "t": 1258.6,
      "ch": 1,
      "note": 40,
      "vel": 75,
      "dur": 25
    },
    {
      "t": 1258.6,
      "ch": 1,
      "note": 42,
      "vel": 75,
      "dur": 25
    },
    {
      "t": 1258.6,
      "ch": 1,
      "note": 36,
      "vel": 99,
      "dur": 25
    },
    {
      "t": 1258.6,
      "ch": 1,
      "note": 38,
      "vel": 98,
      "dur": 25
    },
    {
      "t": 1258.6,
      "ch": 1,
      "note": 40,
      "vel": 86,
      "dur": 25
    },
    {
      "t": 1258.6,
      "ch": 1,
      "note": 42,
      "vel": 77,
      "dur": 25
    },
    {
      "t": 1258.6,
      "ch": 1,
      "note": 36,
      "vel": 95,
      "dur": 25
    },
    {
      "t": 1258.6,
      "ch": 1,
      "note": 38,
      "vel": 70,
      "dur": 25
    },
    {
      "t": 1258.6,
      "ch": 1,
      "note": 40,
      "vel": 89,
      "dur": 25
    },
    {
      "t": 1258.6,
      "ch": 1,
      "note": 42,
      "vel": 78,
      "dur": 25
    },
    {
      "t": 1258.6,
      "ch": 1,
      "note": 36,
      "vel": 104,
      "dur": 25
    },
    {
      "t": 1258.6,
      "ch": 1,
      "note": 38,
      "vel": 91,
      "dur": 25
    },
    {
      "t": 1258.6,
      "ch": 1,
      "note": 40,
      "vel": 85,
      "dur": 25
    },
    {
      "t": 1258.6,
      "ch": 1,
      "note": 42,
      "vel": 92,
      "dur": 25
    },
    {
      "t": 1258.6,
      "ch": 1,
      "note": 36,
      "vel": 65,
      "dur": 25
    },
    {
      "t": 1258.6,
      "ch": 1,
      "note": 38,
      "vel": 78,
      "dur": 25
    },
    {
      "t": 1258.6,
      "ch": 1,
      "note": 40,
      "vel": 111,
      "dur": 25
    },
    {
      "t": 1258.6,
      "ch": 1,
      "note": 42,
      "vel": 106,
      "dur": 25
    },
    {
      "t": 1258.6,
      "ch": 1,
      "note": 36,
      "vel": 87,
      "dur": 25
    },
    {
      "t": 1258.6,
      "ch": 1,
      "note": 38,
      "vel": 77,
      "dur": 25
    },
    {
      "t": 1258.6,
      "ch": 1,
      "note": 40,
      "vel": 73,
      "dur": 25
    },
    {
      "t": 1258.6,
      "ch": 1,
      "note": 42,
      "vel": 88,
      "dur": 25
    },
    {
      "t": 1258.6,
      "ch": 1,
      "note": 36,
      "vel": 76,
      "dur": 25
    },
    {
      "t": 1258.6,
      "ch": 1,
      "note": 38,
      "vel": 85,
      "dur": 25
    },
    {
      "t": 1258.6,
      "ch": 1,
      "note": 40,
      "vel": 79,
      "dur": 25
    },
    {
      "t": 1258.6,
      "ch": 1,
      "note": 42,
      "vel": 90,
      "dur": 25
    },
    {
      "t": 1258.6,
      "ch": 1,
      "note": 36,
      "vel": 105,
      "dur": 25
    },
    {
      "t": 1258.6,
      "ch": 1,
      "note": 38,
      "vel": 81,
      "dur": 25
    },
    {
      "t": 1258.6,
      "ch": 1,
      "note": 40,
      "vel": 63,
      "dur": 25
    },
    {
      "t": 1258.6,
      "ch": 1,
      "note": 42,
      "vel": 95,
      "dur": 25
    },
    {
      "t": 1258.6,
      "ch": 1,
      "note": 36,
      "vel": 112,
      "dur": 25
    },
    {
      "t": 1258.6,
      "ch": 1,
      "note": 38,
      "vel": 79,
      "dur": 25
    },
    {
      "t": 1258.6,
      "ch": 1,
      "note": 40,
      "vel": 93,
      "dur": 25
    },
    {
      "t": 1258.6,
      "ch": 1,
      "note": 42,
      "vel": 106,
      "dur": 25
    },
    {
      "t": 1258.6,
      "ch": 1,
      "note": 36,
      "vel": 95,
      "dur": 25
    },
    {
      "t": 1258.6,
      "ch": 1,
      "note": 38,
      "vel": 102,
      "dur": 25
    },
    {
      "t": 1258.6,
      "ch": 1,
      "note": 40,
      "vel": 72,
      "dur": 25
    },
    {
      "t": 1258.6,
      "ch": 1,
      "note": 42,
      "vel": 97,
      "dur": 25
    },
    {
      "t": 1258.6,
      "ch": 1,
      "note": 36,
      "vel": 98,
      "dur": 25
    },
    {
      "t": 1258.6,
      "ch": 1,
      "note": 38,
      "vel": 107,
      "dur": 25
    },
    {
      "t": 1258.6,
      "ch": 1,
      "note": 40,
      "vel": 107,
      "dur": 25
    },
    {
      "t": 1258.6,
      "ch": 1,
      "note": 42,
      "vel": 91,
      "dur": 25
    },
    {
      "t": 1258.6,
      "ch": 1,
      "note": 36,
      "vel": 66,
      "dur": 25
    },
    {
      "t": 1258.6,
      "ch": 1,
      "note": 38,
      "vel": 78,
      "dur": 25
    },
    {
      "t": 1258.6,
      "ch": 1,
      "note": 40,
      "vel": 83,
      "dur": 25
    },
    {
      "t": 1258.6,
      "ch": 1,
      "note": 42,
      "vel": 86,
      "dur": 25
    },
    {
      "t": 1258.6,
      "ch": 1,
      "note": 36,
      "vel": 70,
      "dur": 25
    },
    {
      "t": 1258.6,
      "ch": 1,
      "note": 38,
      "vel": 116,
      "dur": 25
    },
    {
      "t": 1258.6,
      "ch": 1,
      "note": 40,
      "vel": 95,
      "dur": 25
    },
    {
      "t": 1258.6,
      "ch": 1,
      "note": 42,
      "vel": 83,
      "dur": 25
    },
    {
      "t": 1258.6,
      "ch": 1,
      "note": 36,
      "vel": 81,
      "dur": 25
    },
    {
      "t": 1258.6,
      "ch": 1,
      "note": 38,
      "vel": 89,
      "dur": 25
    },
    {
      "t": 1258.6,
      "ch": 1,
      "note": 40,
      "vel": 76,
      "dur": 25
    },
    {
      "t": 1258.6,
      "ch": 1,
      "note": 42,
      "vel": 73,
      "dur": 25
    },
    {
      "t": 1258.6,
      "ch": 1,
      "note": 36,
      "vel": 106,
      "dur": 25
    },
    {
      "t": 1258.6,
      "ch": 1,
      "note": 38,
      "vel": 106,
      "dur": 25
    },
    {
      "t": 1258.6,
      "ch": 1,
      "note": 40,
      "vel": 79,
      "dur": 25
    },
    {
      "t": 1258.6,
      "ch": 1,
      "note": 42,
      "vel": 94,
      "dur": 25
    },
    {
      "t": 1258.6,
      "ch": 1,
      "note": 36,
      "vel": 95,
      "dur": 25
    },
    {
      "t": 1258.6,
      "ch": 1,
      "note": 38,
      "vel": 89,
      "dur": 25
    },
    {
      "t": 1258.6,
      "ch": 1,
      "note": 40,
      "vel": 71,
      "dur": 25
    },
    {
      "t": 1258.6,
      "ch": 1,
      "note": 42,
      "vel": 65,
      "dur": 25
    },
    {
      "t": 1258.6,
      "ch": 1,
      "note": 36,
      "vel": 86,
      "dur": 25
    },
    {
      "t": 1258.6,
      "ch": 1,
      "note": 38,
      "vel": 85,
      "dur": 25
    },
    {
      "t": 1258.6,
      "ch": 1,
      "note": 40,
      "vel": 72,
      "dur": 25
    },
    {
      "t": 1258.6,
      "ch": 1,
      "note": 42,
      "vel": 106,
      "dur": 25
    },
    {
      "t": 1258.6,
      "ch": 1,
      "note": 36,
      "vel": 81,
      "dur": 25
    },
    {
      "t": 1258.6,
      "ch": 1,
      "note": 38,
      "vel": 90,
      "dur": 25
    },
    {
      "t": 1258.6,
      "ch": 1,
      "note": 40,
      "vel": 60,
      "dur": 25
    },
    {
      "t": 1258.6,
      "ch": 1,
      "note": 42,
      "vel": 99,
      "dur": 25
    },
    {
      "t": 1258.6,
      "ch": 1,
      "note": 36,
      "vel": 78,
      "dur": 25
    },
    {
      "t": 1258.6,
      "ch": 1,
      "note": 38,
      "vel": 61,
      "dur": 25
    },
    {
      "t": 1258.6,
      "ch": 1,
      "note": 40,
      "vel": 74,
      "dur": 25
    },
    {
      "t": 1258.6,
      "ch": 1,
      "note": 42,
      "vel": 85,
      "dur": 25
    },
    {
      "t": 1258.6,
      "ch": 1,
      "note": 36,
      "vel": 75,
      "dur": 25
    },
    {
      "t": 1258.6,
      "ch": 1,
      "note": 38,
      "vel": 89,
      "dur": 25
    },
    {
      "t": 1258.6,
      "ch": 1,
      "note": 40,
      "vel": 104,
      "dur": 25
    },
    {
      "t": 1258.6,
      "ch": 1,
      "note": 42,
      "vel": 83,
      "dur": 25
    },
    {
      "t": 1258.6,
      "ch": 1,
      "note": 36,
      "vel": 87,
      "dur": 25
    },
    {
      "t": 1258.6,
      "ch": 1,
      "note": 38,
      "vel": 83,
      "dur": 25
    },
    {
      "t": 1258.6,
      "ch": 1,
      "note": 40,
      "vel": 108,
      "dur": 25
    },
    {
      "t": 1258.6,
      "ch": 1,
      "note": 42,
      "vel": 66,
      "dur": 25
    },
    {
      "t": 1258.6,
      "ch": 1,
      "note": 36,
      "vel": 92,
      "dur": 25
    },
    {
      "t": 1258.6,
      "ch": 1,
      "note": 38,
      "vel": 78,
      "dur": 25
    },
    {
      "t": 1258.6,
      "ch": 1,
      "note": 40,
      "vel": 98,
      "dur": 25
    },
    {
      "t": 1258.6,
      "ch": 1,
      "note": 42,
      "vel": 104,
      "dur": 25
    },
    {
      "t": 1258.6,
      "ch": 1,
      "note": 36,
      "vel": 80,
      "dur": 25
    },
    {
      "t": 1258.6,
      "ch": 7,
      "note": 48,
      "vel": 64,
      "dur": 80
    },
    {
      "t": 1258.6,
      "ch": 7,
      "note": 45,
      "vel": 67,
      "dur": 80
    },
    {
      "t": 1258.6,
      "ch": 7,
      "note": 36,
      "vel": 60,
      "dur": 80
    },
    {
      "t": 1258.6,
      "ch": 7,
      "note": 38,
      "vel": 74,
      "dur": 80
    },
    {
      "t": 1258.7,
      "ch": 1,
      "note": 38,
      "vel": 101,
      "dur": 25
    },
    {
      "t": 1258.8,
      "ch": 1,
      "note": 40,
      "vel": 87,
      "dur": 25
    },
    {
      "t": 1258.8,
      "ch": 6,
      "note": 67,
      "vel": 12,
      "dur": 605
    },
    {
      "t": 1258.8,
      "ch": 1,
      "note": 42,
      "vel": 79,
      "dur": 25
    },
    {
      "t": 1258.9,
      "ch": 1,
      "note": 36,
      "vel": 70,
      "dur": 25
    },
    {
      "t": 1258.9,
      "ch": 7,
      "note": 36,
      "vel": 70,
      "dur": 80
    },
    {
      "t": 1259,
      "ch": 1,
      "note": 38,
      "vel": 58,
      "dur": 25
    },
    {
      "t": 1259.1,
      "ch": 1,
      "note": 40,
      "vel": 60,
      "dur": 25
    },
    {
      "t": 1259.2,
      "ch": 1,
      "note": 42,
      "vel": 47,
      "dur": 25
    },
    {
      "t": 1259.3,
      "ch": 1,
      "note": 36,
      "vel": 86,
      "dur": 25
    },
    {
      "t": 1259.3,
      "ch": 7,
      "note": 48,
      "vel": 75,
      "dur": 80
    },
    {
      "t": 1259.3,
      "ch": 7,
      "note": 36,
      "vel": 76,
      "dur": 80
    },
    {
      "t": 1259.3,
      "ch": 1,
      "note": 38,
      "vel": 84,
      "dur": 25
    },
    {
      "t": 1259.4,
      "ch": 1,
      "note": 40,
      "vel": 82,
      "dur": 25
    },
    {
      "t": 1259.4,
      "ch": 7,
      "note": 45,
      "vel": 61,
      "dur": 80
    },
    {
      "t": 1259.4,
      "ch": 7,
      "note": 38,
      "vel": 62,
      "dur": 80
    },
    {
      "t": 1259.5,
      "ch": 1,
      "note": 42,
      "vel": 75,
      "dur": 25
    },
    {
      "t": 1259.6,
      "ch": 1,
      "note": 36,
      "vel": 88,
      "dur": 25
    },
    {
      "t": 1259.7,
      "ch": 1,
      "note": 38,
      "vel": 70,
      "dur": 25
    },
    {
      "t": 1259.7,
      "ch": 1,
      "note": 40,
      "vel": 79,
      "dur": 25
    },
    {
      "t": 1259.7,
      "ch": 0,
      "note": 36,
      "vel": 80,
      "dur": 55
    },
    {
      "t": 1259.7,
      "ch": 5,
      "note": 64,
      "vel": 25,
      "dur": 913
    },
    {
      "t": 1259.8,
      "ch": 1,
      "note": 42,
      "vel": 76,
      "dur": 25
    },
    {
      "t": 1259.9,
      "ch": 1,
      "note": 36,
      "vel": 79,
      "dur": 25
    },
    {
      "t": 1259.9,
      "ch": 7,
      "note": 48,
      "vel": 63,
      "dur": 80
    },
    {
      "t": 1259.9,
      "ch": 7,
      "note": 36,
      "vel": 66,
      "dur": 80
    },
    {
      "t": 1260,
      "ch": 1,
      "note": 38,
      "vel": 74,
      "dur": 25
    },
    {
      "t": 1260.1,
      "ch": 1,
      "note": 40,
      "vel": 78,
      "dur": 25
    },
    {
      "t": 1260.1,
      "ch": 1,
      "note": 42,
      "vel": 83,
      "dur": 25
    },
    {
      "t": 1260.2,
      "ch": 6,
      "note": 67,
      "vel": 17,
      "dur": 400
    },
    {
      "t": 1260.2,
      "ch": 1,
      "note": 36,
      "vel": 86,
      "dur": 25
    },
    {
      "t": 1260.2,
      "ch": 7,
      "note": 45,
      "vel": 67,
      "dur": 80
    },
    {
      "t": 1260.2,
      "ch": 7,
      "note": 36,
      "vel": 60,
      "dur": 80
    },
    {
      "t": 1260.2,
      "ch": 7,
      "note": 38,
      "vel": 52,
      "dur": 80
    },
    {
      "t": 1260.3,
      "ch": 1,
      "note": 38,
      "vel": 62,
      "dur": 25
    },
    {
      "t": 1260.4,
      "ch": 1,
      "note": 40,
      "vel": 70,
      "dur": 25
    },
    {
      "t": 1260.5,
      "ch": 1,
      "note": 42,
      "vel": 84,
      "dur": 25
    },
    {
      "t": 1260.6,
      "ch": 0,
      "note": 36,
      "vel": 94,
      "dur": 55
    },
    {
      "t": 1260.6,
      "ch": 1,
      "note": 36,
      "vel": 83,
      "dur": 25
    },
    {
      "t": 1260.6,
      "ch": 7,
      "note": 48,
      "vel": 70,
      "dur": 80
    },
    {
      "t": 1260.6,
      "ch": 7,
      "note": 36,
      "vel": 78,
      "dur": 80
    },
    {
      "t": 1260.6,
      "ch": 1,
      "note": 38,
      "vel": 70,
      "dur": 25
    },
    {
      "t": 1260.7,
      "ch": 1,
      "note": 40,
      "vel": 74,
      "dur": 25
    },
    {
      "t": 1260.8,
      "ch": 1,
      "note": 42,
      "vel": 81,
      "dur": 25
    },
    {
      "t": 1260.9,
      "ch": 1,
      "note": 36,
      "vel": 64,
      "dur": 25
    },
    {
      "t": 1261,
      "ch": 1,
      "note": 38,
      "vel": 80,
      "dur": 25
    },
    {
      "t": 1261,
      "ch": 1,
      "note": 40,
      "vel": 85,
      "dur": 25
    },
    {
      "t": 1261.1,
      "ch": 1,
      "note": 42,
      "vel": 72,
      "dur": 25
    },
    {
      "t": 1261.2,
      "ch": 0,
      "note": 36,
      "vel": 113,
      "dur": 55
    },
    {
      "t": 1261.2,
      "ch": 1,
      "note": 36,
      "vel": 80,
      "dur": 25
    },
    {
      "t": 1261.2,
      "ch": 7,
      "note": 48,
      "vel": 63,
      "dur": 80
    },
    {
      "t": 1261.2,
      "ch": 7,
      "note": 45,
      "vel": 59,
      "dur": 80
    },
    {
      "t": 1261.2,
      "ch": 7,
      "note": 36,
      "vel": 65,
      "dur": 80
    },
    {
      "t": 1261.2,
      "ch": 7,
      "note": 38,
      "vel": 63,
      "dur": 80
    },
    {
      "t": 1261.3,
      "ch": 1,
      "note": 38,
      "vel": 81,
      "dur": 25
    },
    {
      "t": 1261.4,
      "ch": 1,
      "note": 40,
      "vel": 59,
      "dur": 25
    },
    {
      "t": 1261.5,
      "ch": 1,
      "note": 42,
      "vel": 84,
      "dur": 25
    },
    {
      "t": 1261.5,
      "ch": 1,
      "note": 36,
      "vel": 61,
      "dur": 25
    },
    {
      "t": 1261.5,
      "ch": 7,
      "note": 36,
      "vel": 59,
      "dur": 80
    },
    {
      "t": 1261.6,
      "ch": 1,
      "note": 38,
      "vel": 76,
      "dur": 25
    },
    {
      "t": 1261.7,
      "ch": 1,
      "note": 40,
      "vel": 84,
      "dur": 25
    },
    {
      "t": 1261.8,
      "ch": 1,
      "note": 42,
      "vel": 64,
      "dur": 25
    },
    {
      "t": 1261.9,
      "ch": 1,
      "note": 36,
      "vel": 93,
      "dur": 25
    },
    {
      "t": 1261.9,
      "ch": 7,
      "note": 48,
      "vel": 69,
      "dur": 80
    },
    {
      "t": 1261.9,
      "ch": 7,
      "note": 36,
      "vel": 62,
      "dur": 80
    },
    {
      "t": 1261.9,
      "ch": 1,
      "note": 38,
      "vel": 61,
      "dur": 25
    },
    {
      "t": 1262,
      "ch": 1,
      "note": 40,
      "vel": 67,
      "dur": 25
    },
    {
      "t": 1262,
      "ch": 7,
      "note": 45,
      "vel": 72,
      "dur": 80
    },
    {
      "t": 1262,
      "ch": 7,
      "note": 38,
      "vel": 53,
      "dur": 80
    },
    {
      "t": 1262.1,
      "ch": 1,
      "note": 42,
      "vel": 81,
      "dur": 25
    },
    {
      "t": 1262.2,
      "ch": 1,
      "note": 36,
      "vel": 77,
      "dur": 25
    },
    {
      "t": 1262.3,
      "ch": 1,
      "note": 38,
      "vel": 80,
      "dur": 25
    },
    {
      "t": 1262.3,
      "ch": 1,
      "note": 40,
      "vel": 61,
      "dur": 25
    },
    {
      "t": 1262.3,
      "ch": 0,
      "note": 36,
      "vel": 87,
      "dur": 55
    },
    {
      "t": 1262.4,
      "ch": 1,
      "note": 42,
      "vel": 85,
      "dur": 25
    },
    {
      "t": 1262.5,
      "ch": 1,
      "note": 36,
      "vel": 81,
      "dur": 25
    },
    {
      "t": 1262.5,
      "ch": 7,
      "note": 48,
      "vel": 58,
      "dur": 80
    },
    {
      "t": 1262.5,
      "ch": 7,
      "note": 36,
      "vel": 73,
      "dur": 80
    },
    {
      "t": 1262.6,
      "ch": 1,
      "note": 38,
      "vel": 95,
      "dur": 25
    },
    {
      "t": 1262.7,
      "ch": 1,
      "note": 40,
      "vel": 96,
      "dur": 25
    },
    {
      "t": 1262.8,
      "ch": 1,
      "note": 42,
      "vel": 74,
      "dur": 25
    },
    {
      "t": 1262.8,
      "ch": 1,
      "note": 36,
      "vel": 98,
      "dur": 25
    },
    {
      "t": 1262.8,
      "ch": 7,
      "note": 45,
      "vel": 62,
      "dur": 80
    },
    {
      "t": 1262.8,
      "ch": 7,
      "note": 36,
      "vel": 49,
      "dur": 80
    },
    {
      "t": 1262.8,
      "ch": 7,
      "note": 38,
      "vel": 55,
      "dur": 80
    },
    {
      "t": 1262.9,
      "ch": 5,
      "note": 60,
      "vel": 30,
      "dur": 930
    },
    {
      "t": 1262.9,
      "ch": 1,
      "note": 38,
      "vel": 81,
      "dur": 25
    },
    {
      "t": 1263,
      "ch": 1,
      "note": 40,
      "vel": 69,
      "dur": 25
    },
    {
      "t": 1263.1,
      "ch": 1,
      "note": 42,
      "vel": 87,
      "dur": 25
    },
    {
      "t": 1263.2,
      "ch": 0,
      "note": 36,
      "vel": 87,
      "dur": 55
    },
    {
      "t": 1263.2,
      "ch": 1,
      "note": 36,
      "vel": 71,
      "dur": 25
    },
    {
      "t": 1263.2,
      "ch": 7,
      "note": 48,
      "vel": 57,
      "dur": 80
    },
    {
      "t": 1263.2,
      "ch": 7,
      "note": 36,
      "vel": 80,
      "dur": 80
    },
    {
      "t": 1263.3,
      "ch": 1,
      "note": 38,
      "vel": 78,
      "dur": 25
    },
    {
      "t": 1263.3,
      "ch": 1,
      "note": 40,
      "vel": 70,
      "dur": 25
    },
    {
      "t": 1263.4,
      "ch": 1,
      "note": 42,
      "vel": 78,
      "dur": 25
    },
    {
      "t": 1263.5,
      "ch": 1,
      "note": 36,
      "vel": 69,
      "dur": 25
    },
    {
      "t": 1263.6,
      "ch": 1,
      "note": 38,
      "vel": 85,
      "dur": 25
    },
    {
      "t": 1263.6,
      "ch": 1,
      "note": 40,
      "vel": 73,
      "dur": 25
    },
    {
      "t": 1263.7,
      "ch": 5,
      "note": 65,
      "vel": 22,
      "dur": 934
    },
    {
      "t": 1263.7,
      "ch": 1,
      "note": 42,
      "vel": 87,
      "dur": 25
    },
    {
      "t": 1263.8,
      "ch": 0,
      "note": 36,
      "vel": 114,
      "dur": 55
    },
    {
      "t": 1263.8,
      "ch": 1,
      "note": 36,
      "vel": 82,
      "dur": 25
    },
    {
      "t": 1263.8,
      "ch": 7,
      "note": 48,
      "vel": 76,
      "dur": 80
    },
    {
      "t": 1263.8,
      "ch": 7,
      "note": 45,
      "vel": 70,
      "dur": 80
    },
    {
      "t": 1263.8,
      "ch": 7,
      "note": 36,
      "vel": 73,
      "dur": 80
    },
    {
      "t": 1263.8,
      "ch": 7,
      "note": 38,
      "vel": 75,
      "dur": 80
    },
    {
      "t": 1263.8,
      "ch": 5,
      "note": 69,
      "vel": 24,
      "dur": 935
    },
    {
      "t": 1263.9,
      "ch": 1,
      "note": 38,
      "vel": 75,
      "dur": 25
    },
    {
      "t": 1264,
      "ch": 1,
      "note": 40,
      "vel": 48,
      "dur": 25
    },
    {
      "t": 1264.1,
      "ch": 1,
      "note": 42,
      "vel": 65,
      "dur": 25
    },
    {
      "t": 1264.1,
      "ch": 6,
      "note": 72,
      "vel": 1,
      "dur": 400
    },
    {
      "t": 1264.1,
      "ch": 1,
      "note": 36,
      "vel": 70,
      "dur": 25
    },
    {
      "t": 1264.1,
      "ch": 7,
      "note": 36,
      "vel": 57,
      "dur": 80
    },
    {
      "t": 1264.2,
      "ch": 1,
      "note": 38,
      "vel": 86,
      "dur": 25
    },
    {
      "t": 1264.3,
      "ch": 1,
      "note": 40,
      "vel": 62,
      "dur": 25
    },
    {
      "t": 1264.4,
      "ch": 1,
      "note": 42,
      "vel": 86,
      "dur": 25
    },
    {
      "t": 1264.5,
      "ch": 1,
      "note": 36,
      "vel": 89,
      "dur": 25
    },
    {
      "t": 1264.5,
      "ch": 7,
      "note": 48,
      "vel": 61,
      "dur": 80
    },
    {
      "t": 1264.5,
      "ch": 7,
      "note": 36,
      "vel": 76,
      "dur": 80
    },
    {
      "t": 1264.6,
      "ch": 1,
      "note": 38,
      "vel": 88,
      "dur": 25
    },
    {
      "t": 1264.6,
      "ch": 1,
      "note": 40,
      "vel": 65,
      "dur": 25
    },
    {
      "t": 1264.6,
      "ch": 7,
      "note": 45,
      "vel": 64,
      "dur": 80
    },
    {
      "t": 1264.6,
      "ch": 7,
      "note": 38,
      "vel": 66,
      "dur": 80
    },
    {
      "t": 1264.7,
      "ch": 1,
      "note": 42,
      "vel": 84,
      "dur": 25
    },
    {
      "t": 1264.8,
      "ch": 1,
      "note": 36,
      "vel": 70,
      "dur": 25
    },
    {
      "t": 1264.9,
      "ch": 1,
      "note": 38,
      "vel": 61,
      "dur": 25
    },
    {
      "t": 1265,
      "ch": 1,
      "note": 40,
      "vel": 45,
      "dur": 25
    },
    {
      "t": 1265,
      "ch": 0,
      "note": 36,
      "vel": 77,
      "dur": 55
    },
    {
      "t": 1265,
      "ch": 6,
      "note": 72,
      "vel": 23,
      "dur": 626
    },
    {
      "t": 1265,
      "ch": 1,
      "note": 42,
      "vel": 99,
      "dur": 25
    },
    {
      "t": 1265.1,
      "ch": 1,
      "note": 36,
      "vel": 104,
      "dur": 25
    },
    {
      "t": 1265.1,
      "ch": 7,
      "note": 48,
      "vel": 75,
      "dur": 80
    },
    {
      "t": 1265.1,
      "ch": 7,
      "note": 36,
      "vel": 64,
      "dur": 80
    },
    {
      "t": 1265.2,
      "ch": 1,
      "note": 38,
      "vel": 100,
      "dur": 25
    },
    {
      "t": 1265.3,
      "ch": 1,
      "note": 40,
      "vel": 77,
      "dur": 25
    },
    {
      "t": 1265.4,
      "ch": 1,
      "note": 42,
      "vel": 73,
      "dur": 25
    },
    {
      "t": 1265.4,
      "ch": 1,
      "note": 36,
      "vel": 100,
      "dur": 25
    },
    {
      "t": 1265.5,
      "ch": 7,
      "note": 45,
      "vel": 61,
      "dur": 80
    },
    {
      "t": 1265.5,
      "ch": 7,
      "note": 36,
      "vel": 70,
      "dur": 80
    },
    {
      "t": 1265.5,
      "ch": 7,
      "note": 38,
      "vel": 58,
      "dur": 80
    },
    {
      "t": 1265.5,
      "ch": 1,
      "note": 38,
      "vel": 68,
      "dur": 25
    },
    {
      "t": 1265.6,
      "ch": 1,
      "note": 40,
      "vel": 54,
      "dur": 25
    },
    {
      "t": 1265.7,
      "ch": 1,
      "note": 42,
      "vel": 92,
      "dur": 25
    },
    {
      "t": 1265.8,
      "ch": 0,
      "note": 36,
      "vel": 92,
      "dur": 55
    },
    {
      "t": 1265.8,
      "ch": 1,
      "note": 36,
      "vel": 103,
      "dur": 25
    },
    {
      "t": 1265.8,
      "ch": 7,
      "note": 48,
      "vel": 72,
      "dur": 80
    },
    {
      "t": 1265.8,
      "ch": 7,
      "note": 36,
      "vel": 78,
      "dur": 80
    },
    {
      "t": 1265.9,
      "ch": 1,
      "note": 38,
      "vel": 96,
      "dur": 25
    },
    {
      "t": 1265.9,
      "ch": 1,
      "note": 40,
      "vel": 79,
      "dur": 25
    },
    {
      "t": 1266,
      "ch": 1,
      "note": 42,
      "vel": 91,
      "dur": 25
    },
    {
      "t": 1266.1,
      "ch": 1,
      "note": 36,
      "vel": 57,
      "dur": 25
    },
    {
      "t": 1266.2,
      "ch": 1,
      "note": 38,
      "vel": 102,
      "dur": 25
    },
    {
      "t": 1266.3,
      "ch": 1,
      "note": 40,
      "vel": 53,
      "dur": 25
    },
    {
      "t": 1266.3,
      "ch": 1,
      "note": 42,
      "vel": 99,
      "dur": 25
    },
    {
      "t": 1266.4,
      "ch": 1,
      "note": 36,
      "vel": 57,
      "dur": 25
    },
    {
      "t": 1266.4,
      "ch": 7,
      "note": 48,
      "vel": 66,
      "dur": 80
    },
    {
      "t": 1266.4,
      "ch": 7,
      "note": 45,
      "vel": 68,
      "dur": 80
    },
    {
      "t": 1266.4,
      "ch": 7,
      "note": 36,
      "vel": 72,
      "dur": 80
    },
    {
      "t": 1266.4,
      "ch": 7,
      "note": 38,
      "vel": 79,
      "dur": 80
    },
    {
      "t": 1266.5,
      "ch": 1,
      "note": 38,
      "vel": 95,
      "dur": 25
    },
    {
      "t": 1266.6,
      "ch": 1,
      "note": 40,
      "vel": 86,
      "dur": 25
    },
    {
      "t": 1266.7,
      "ch": 1,
      "note": 42,
      "vel": 80,
      "dur": 25
    },
    {
      "t": 1266.7,
      "ch": 1,
      "note": 36,
      "vel": 59,
      "dur": 25
    },
    {
      "t": 1266.7,
      "ch": 7,
      "note": 36,
      "vel": 58,
      "dur": 80
    },
    {
      "t": 1266.8,
      "ch": 1,
      "note": 38,
      "vel": 65,
      "dur": 25
    },
    {
      "t": 1266.9,
      "ch": 1,
      "note": 40,
      "vel": 62,
      "dur": 25
    },
    {
      "t": 1267,
      "ch": 1,
      "note": 42,
      "vel": 65,
      "dur": 25
    },
    {
      "t": 1267.1,
      "ch": 1,
      "note": 36,
      "vel": 81,
      "dur": 25
    },
    {
      "t": 1267.1,
      "ch": 7,
      "note": 48,
      "vel": 64,
      "dur": 80
    },
    {
      "t": 1267.1,
      "ch": 7,
      "note": 36,
      "vel": 62,
      "dur": 80
    },
    {
      "t": 1267.1,
      "ch": 5,
      "note": 64,
      "vel": 19,
      "dur": 940
    },
    {
      "t": 1267.2,
      "ch": 1,
      "note": 38,
      "vel": 96,
      "dur": 25
    },
    {
      "t": 1267.2,
      "ch": 1,
      "note": 40,
      "vel": 56,
      "dur": 25
    },
    {
      "t": 1267.3,
      "ch": 7,
      "note": 38,
      "vel": 61,
      "dur": 80
    },
    {
      "t": 1267.3,
      "ch": 7,
      "note": 45,
      "vel": 71,
      "dur": 80
    },
    {
      "t": 1267.3,
      "ch": 6,
      "note": 50,
      "vel": 28,
      "dur": 627
    },
    {
      "t": 1267.3,
      "ch": 1,
      "note": 42,
      "vel": 95,
      "dur": 25
    },
    {
      "t": 1267.4,
      "ch": 1,
      "note": 36,
      "vel": 63,
      "dur": 25
    },
    {
      "t": 1267.4,
      "ch": 6,
      "note": 69,
      "vel": 8,
      "dur": 400
    },
    {
      "t": 1267.5,
      "ch": 1,
      "note": 38,
      "vel": 76,
      "dur": 25
    },
    {
      "t": 1267.6,
      "ch": 1,
      "note": 40,
      "vel": 67,
      "dur": 25
    },
    {
      "t": 1267.6,
      "ch": 6,
      "note": 62,
      "vel": 1,
      "dur": 626
    },
    {
      "t": 1267.6,
      "ch": 2,
      "note": 55,
      "vel": 0,
      "dur": 0
    },
    {
      "t": 1267.6,
      "ch": 2,
      "note": 50,
      "vel": 56,
      "dur": 19565
    },
    {
      "t": 1267.6,
      "ch": 2,
      "note": 62,
      "vel": 39,
      "dur": 19565
    },
    {
      "t": 1267.7,
      "ch": 1,
      "note": 42,
      "vel": 56,
      "dur": 25
    },
    {
      "t": 1267.7,
      "ch": 1,
      "note": 36,
      "vel": 90,
      "dur": 25
    },
    {
      "t": 1267.7,
      "ch": 7,
      "note": 48,
      "vel": 73,
      "dur": 80
    },
    {
      "t": 1267.7,
      "ch": 7,
      "note": 36,
      "vel": 85,
      "dur": 80
    },
    {
      "t": 1267.8,
      "ch": 1,
      "note": 38,
      "vel": 90,
      "dur": 25
    },
    {
      "t": 1267.9,
      "ch": 1,
      "note": 40,
      "vel": 78,
      "dur": 25
    },
    {
      "t": 1268,
      "ch": 1,
      "note": 42,
      "vel": 70,
      "dur": 25
    },
    {
      "t": 1268.1,
      "ch": 1,
      "note": 36,
      "vel": 72,
      "dur": 25
    },
    {
      "t": 1268.1,
      "ch": 7,
      "note": 45,
      "vel": 58,
      "dur": 80
    },
    {
      "t": 1268.1,
      "ch": 7,
      "note": 36,
      "vel": 66,
      "dur": 80
    },
    {
      "t": 1268.1,
      "ch": 7,
      "note": 38,
      "vel": 63,
      "dur": 80
    },
    {
      "t": 1268.1,
      "ch": 1,
      "note": 38,
      "vel": 52,
      "dur": 25
    },
    {
      "t": 1268.2,
      "ch": 1,
      "note": 40,
      "vel": 67,
      "dur": 25
    },
    {
      "t": 1268.3,
      "ch": 1,
      "note": 42,
      "vel": 92,
      "dur": 25
    },
    {
      "t": 1268.4,
      "ch": 1,
      "note": 36,
      "vel": 75,
      "dur": 25
    },
    {
      "t": 1268.4,
      "ch": 7,
      "note": 48,
      "vel": 73,
      "dur": 80
    },
    {
      "t": 1268.4,
      "ch": 7,
      "note": 36,
      "vel": 74,
      "dur": 80
    },
    {
      "t": 1268.5,
      "ch": 1,
      "note": 38,
      "vel": 63,
      "dur": 25
    },
    {
      "t": 1268.5,
      "ch": 1,
      "note": 40,
      "vel": 66,
      "dur": 25
    },
    {
      "t": 1268.6,
      "ch": 1,
      "note": 42,
      "vel": 72,
      "dur": 25
    },
    {
      "t": 1268.7,
      "ch": 1,
      "note": 36,
      "vel": 73,
      "dur": 25
    },
    {
      "t": 1268.8,
      "ch": 1,
      "note": 38,
      "vel": 68,
      "dur": 25
    },
    {
      "t": 1268.9,
      "ch": 1,
      "note": 40,
      "vel": 91,
      "dur": 25
    },
    {
      "t": 1269,
      "ch": 1,
      "note": 42,
      "vel": 88,
      "dur": 25
    },
    {
      "t": 1269,
      "ch": 0,
      "note": 36,
      "vel": 120,
      "dur": 55
    },
    {
      "t": 1269,
      "ch": 7,
      "note": 48,
      "vel": 68,
      "dur": 80
    },
    {
      "t": 1269,
      "ch": 7,
      "note": 45,
      "vel": 69,
      "dur": 80
    },
    {
      "t": 1269,
      "ch": 7,
      "note": 36,
      "vel": 61,
      "dur": 80
    },
    {
      "t": 1269,
      "ch": 7,
      "note": 38,
      "vel": 78,
      "dur": 80
    },
    {
      "t": 1269.4,
      "ch": 7,
      "note": 36,
      "vel": 56,
      "dur": 80
    },
    {
      "t": 1269.7,
      "ch": 7,
      "note": 48,
      "vel": 75,
      "dur": 80
    },
    {
      "t": 1269.7,
      "ch": 7,
      "note": 36,
      "vel": 71,
      "dur": 80
    },
    {
      "t": 1269.9,
      "ch": 7,
      "note": 45,
      "vel": 52,
      "dur": 80
    },
    {
      "t": 1269.9,
      "ch": 7,
      "note": 38,
      "vel": 55,
      "dur": 80
    },
    {
      "t": 1270.2,
      "ch": 4,
      "note": 57,
      "vel": 46,
      "dur": 2558
    },
    {
      "t": 1270.2,
      "ch": 4,
      "note": 60,
      "vel": 48,
      "dur": 2558
    },
    {
      "t": 1270.2,
      "ch": 3,
      "note": 38,
      "vel": 49,
      "dur": 2608
    },
    {
      "t": 1270.3,
      "ch": 4,
      "note": 57,
      "vel": 46,
      "dur": 2558
    },
    {
      "t": 1270.3,
      "ch": 4,
      "note": 52,
      "vel": 47,
      "dur": 2558
    },
    {
      "t": 1270.3,
      "ch": 3,
      "note": 36,
      "vel": 49,
      "dur": 2608
    },
    {
      "t": 1270.3,
      "ch": 0,
      "note": 36,
      "vel": 88,
      "dur": 55
    },
    {
      "t": 1270.3,
      "ch": 7,
      "note": 48,
      "vel": 85,
      "dur": 80
    },
    {
      "t": 1270.3,
      "ch": 7,
      "note": 36,
      "vel": 70,
      "dur": 80
    },
    {
      "t": 1270.4,
      "ch": 6,
      "note": 69,
      "vel": 33,
      "dur": 619
    },
    {
      "t": 1270.7,
      "ch": 7,
      "note": 45,
      "vel": 67,
      "dur": 80
    },
    {
      "t": 1270.7,
      "ch": 7,
      "note": 36,
      "vel": 50,
      "dur": 80
    },
    {
      "t": 1270.7,
      "ch": 7,
      "note": 38,
      "vel": 74,
      "dur": 80
    },
    {
      "t": 1270.8,
      "ch": 6,
      "note": 72,
      "vel": 5,
      "dur": 617
    },
    {
      "t": 1271,
      "ch": 7,
      "note": 48,
      "vel": 59,
      "dur": 80
    },
    {
      "t": 1271,
      "ch": 7,
      "note": 36,
      "vel": 71,
      "dur": 80
    },
    {
      "t": 1271,
      "ch": 5,
      "note": 60,
      "vel": 33,
      "dur": 925
    },
    {
      "t": 1271.2,
      "ch": 5,
      "note": 65,
      "vel": 24,
      "dur": 924
    },
    {
      "t": 1271.3,
      "ch": 0,
      "note": 36,
      "vel": 78,
      "dur": 55
    },
    {
      "t": 1271.6,
      "ch": 0,
      "note": 36,
      "vel": 105,
      "dur": 55
    },
    {
      "t": 1271.6,
      "ch": 7,
      "note": 48,
      "vel": 72,
      "dur": 80
    },
    {
      "t": 1271.6,
      "ch": 7,
      "note": 45,
      "vel": 61,
      "dur": 80
    },
    {
      "t": 1271.6,
      "ch": 7,
      "note": 36,
      "vel": 90,
      "dur": 80
    },
    {
      "t": 1271.6,
      "ch": 7,
      "note": 38,
      "vel": 69,
      "dur": 80
    },
    {
      "t": 1272,
      "ch": 7,
      "note": 36,
      "vel": 60,
      "dur": 80
    },
    {
      "t": 1272.3,
      "ch": 7,
      "note": 48,
      "vel": 59,
      "dur": 80
    },
    {
      "t": 1272.3,
      "ch": 7,
      "note": 36,
      "vel": 69,
      "dur": 80
    },
    {
      "t": 1272.5,
      "ch": 7,
      "note": 45,
      "vel": 62,
      "dur": 80
    },
    {
      "t": 1272.5,
      "ch": 7,
      "note": 38,
      "vel": 72,
      "dur": 80
    },
    {
      "t": 1272.9,
      "ch": 4,
      "note": 55,
      "vel": 49,
      "dur": 2558
    },
    {
      "t": 1272.9,
      "ch": 4,
      "note": 59,
      "vel": 65,
      "dur": 2558
    },
    {
      "t": 1272.9,
      "ch": 3,
      "note": 43,
      "vel": 52,
      "dur": 2608
    },
    {
      "t": 1272.9,
      "ch": 0,
      "note": 36,
      "vel": 90,
      "dur": 55
    },
    {
      "t": 1272.9,
      "ch": 7,
      "note": 48,
      "vel": 76,
      "dur": 80
    },
    {
      "t": 1272.9,
      "ch": 7,
      "note": 36,
      "vel": 61,
      "dur": 80
    },
    {
      "t": 1273.1,
      "ch": 5,
      "note": 69,
      "vel": 45,
      "dur": 912
    },
    {
      "t": 1273.3,
      "ch": 7,
      "note": 45,
      "vel": 53,
      "dur": 80
    },
    {
      "t": 1273.3,
      "ch": 7,
      "note": 36,
      "vel": 58,
      "dur": 80
    },
    {
      "t": 1273.3,
      "ch": 7,
      "note": 38,
      "vel": 70,
      "dur": 80
    },
    {
      "t": 1273.6,
      "ch": 7,
      "note": 48,
      "vel": 72,
      "dur": 80
    },
    {
      "t": 1273.6,
      "ch": 7,
      "note": 36,
      "vel": 69,
      "dur": 80
    },
    {
      "t": 1273.6,
      "ch": 5,
      "note": 64,
      "vel": 22,
      "dur": 909
    },
    {
      "t": 1273.9,
      "ch": 0,
      "note": 36,
      "vel": 84,
      "dur": 55
    },
    {
      "t": 1274.3,
      "ch": 0,
      "note": 36,
      "vel": 114,
      "dur": 55
    },
    {
      "t": 1274.3,
      "ch": 7,
      "note": 48,
      "vel": 67,
      "dur": 80
    },
    {
      "t": 1274.3,
      "ch": 7,
      "note": 45,
      "vel": 66,
      "dur": 80
    },
    {
      "t": 1274.3,
      "ch": 7,
      "note": 36,
      "vel": 78,
      "dur": 80
    },
    {
      "t": 1274.3,
      "ch": 7,
      "note": 38,
      "vel": 66,
      "dur": 80
    },
    {
      "t": 1274.6,
      "ch": 7,
      "note": 36,
      "vel": 65,
      "dur": 80
    },
    {
      "t": 1274.9,
      "ch": 7,
      "note": 48,
      "vel": 73,
      "dur": 80
    },
    {
      "t": 1274.9,
      "ch": 7,
      "note": 36,
      "vel": 61,
      "dur": 80
    },
    {
      "t": 1275.1,
      "ch": 7,
      "note": 45,
      "vel": 56,
      "dur": 80
    },
    {
      "t": 1275.1,
      "ch": 7,
      "note": 38,
      "vel": 47,
      "dur": 80
    },
    {
      "t": 1275.1,
      "ch": 5,
      "note": 60,
      "vel": 32,
      "dur": 901
    },
    {
      "t": 1275.4,
      "ch": 6,
      "note": 62,
      "vel": 17,
      "dur": 599
    },
    {
      "t": 1275.5,
      "ch": 4,
      "note": 57,
      "vel": 52,
      "dur": 2558
    },
    {
      "t": 1275.5,
      "ch": 4,
      "note": 52,
      "vel": 54,
      "dur": 2558
    },
    {
      "t": 1275.5,
      "ch": 3,
      "note": 36,
      "vel": 54,
      "dur": 2608
    },
    {
      "t": 1275.6,
      "ch": 0,
      "note": 36,
      "vel": 89,
      "dur": 55
    },
    {
      "t": 1275.6,
      "ch": 7,
      "note": 48,
      "vel": 65,
      "dur": 80
    },
    {
      "t": 1275.6,
      "ch": 7,
      "note": 36,
      "vel": 68,
      "dur": 80
    },
    {
      "t": 1275.7,
      "ch": 5,
      "note": 65,
      "vel": 27,
      "dur": 898
    },
    {
      "t": 1275.9,
      "ch": 7,
      "note": 45,
      "vel": 53,
      "dur": 80
    },
    {
      "t": 1275.9,
      "ch": 7,
      "note": 36,
      "vel": 51,
      "dur": 80
    },
    {
      "t": 1275.9,
      "ch": 7,
      "note": 38,
      "vel": 63,
      "dur": 80
    },
    {
      "t": 1276,
      "ch": 6,
      "note": 69,
      "vel": 17,
      "dur": 400
    },
    {
      "t": 1276.2,
      "ch": 7,
      "note": 48,
      "vel": 79,
      "dur": 80
    },
    {
      "t": 1276.2,
      "ch": 7,
      "note": 36,
      "vel": 66,
      "dur": 80
    },
    {
      "t": 1276.5,
      "ch": 0,
      "note": 36,
      "vel": 80,
      "dur": 55
    },
    {
      "t": 1276.7,
      "ch": 6,
      "note": 69,
      "vel": 23,
      "dur": 596
    },
    {
      "t": 1276.9,
      "ch": 0,
      "note": 36,
      "vel": 109,
      "dur": 55
    },
    {
      "t": 1276.9,
      "ch": 7,
      "note": 48,
      "vel": 63,
      "dur": 80
    },
    {
      "t": 1276.9,
      "ch": 7,
      "note": 45,
      "vel": 73,
      "dur": 80
    },
    {
      "t": 1276.9,
      "ch": 7,
      "note": 36,
      "vel": 78,
      "dur": 80
    },
    {
      "t": 1276.9,
      "ch": 7,
      "note": 38,
      "vel": 73,
      "dur": 80
    },
    {
      "t": 1276.9,
      "ch": 5,
      "note": 69,
      "vel": 27,
      "dur": 894
    },
    {
      "t": 1276.9,
      "ch": 6,
      "note": 57,
      "vel": 16,
      "dur": 596
    },
    {
      "t": 1277.2,
      "ch": 7,
      "note": 36,
      "vel": 57,
      "dur": 80
    },
    {
      "t": 1277.2,
      "ch": 6,
      "note": 65,
      "vel": 13,
      "dur": 595
    },
    {
      "t": 1277.2,
      "ch": 5,
      "note": 62,
      "vel": 2,
      "dur": 893
    },
    {
      "t": 1277.5,
      "ch": 7,
      "note": 48,
      "vel": 60,
      "dur": 80
    },
    {
      "t": 1277.5,
      "ch": 7,
      "note": 36,
      "vel": 76,
      "dur": 80
    },
    {
      "t": 1277.7,
      "ch": 7,
      "note": 45,
      "vel": 71,
      "dur": 80
    },
    {
      "t": 1277.7,
      "ch": 7,
      "note": 38,
      "vel": 57,
      "dur": 80
    },
    {
      "t": 1277.7,
      "ch": 5,
      "note": 55,
      "vel": 19,
      "dur": 892
    },
    {
      "t": 1278.1,
      "ch": 6,
      "note": 59,
      "vel": 24,
      "dur": 400
    },
    {
      "t": 1278.1,
      "ch": 2,
      "note": 50,
      "vel": 0,
      "dur": 0
    },
    {
      "t": 1278.1,
      "ch": 2,
      "note": 62,
      "vel": 0,
      "dur": 0
    },
    {
      "t": 1278.1,
      "ch": 2,
      "note": 48,
      "vel": 58,
      "dur": 19565
    },
    {
      "t": 1278.1,
      "ch": 4,
      "note": 55,
      "vel": 54,
      "dur": 2558
    },
    {
      "t": 1278.1,
      "ch": 4,
      "note": 59,
      "vel": 69,
      "dur": 2558
    },
    {
      "t": 1278.1,
      "ch": 3,
      "note": 43,
      "vel": 55,
      "dur": 2608
    },
    {
      "t": 1278.2,
      "ch": 0,
      "note": 36,
      "vel": 91,
      "dur": 55
    },
    {
      "t": 1278.2,
      "ch": 7,
      "note": 48,
      "vel": 61,
      "dur": 80
    },
    {
      "t": 1278.2,
      "ch": 7,
      "note": 36,
      "vel": 60,
      "dur": 80
    },
    {
      "t": 1278.5,
      "ch": 7,
      "note": 45,
      "vel": 70,
      "dur": 80
    },
    {
      "t": 1278.5,
      "ch": 7,
      "note": 36,
      "vel": 65,
      "dur": 80
    },
    {
      "t": 1278.5,
      "ch": 7,
      "note": 38,
      "vel": 58,
      "dur": 80
    },
    {
      "t": 1278.8,
      "ch": 7,
      "note": 48,
      "vel": 74,
      "dur": 80
    },
    {
      "t": 1278.8,
      "ch": 7,
      "note": 36,
      "vel": 72,
      "dur": 80
    },
    {
      "t": 1279,
      "ch": 5,
      "note": 55,
      "vel": 24,
      "dur": 892
    },
    {
      "t": 1279.2,
      "ch": 0,
      "note": 36,
      "vel": 89,
      "dur": 55
    },
    {
      "t": 1279.5,
      "ch": 0,
      "note": 36,
      "vel": 111,
      "dur": 55
    },
    {
      "t": 1279.5,
      "ch": 7,
      "note": 48,
      "vel": 88,
      "dur": 80
    },
    {
      "t": 1279.5,
      "ch": 7,
      "note": 45,
      "vel": 61,
      "dur": 80
    },
    {
      "t": 1279.5,
      "ch": 7,
      "note": 36,
      "vel": 73,
      "dur": 80
    },
    {
      "t": 1279.5,
      "ch": 7,
      "note": 38,
      "vel": 63,
      "dur": 80
    },
    {
      "t": 1279.8,
      "ch": 7,
      "note": 36,
      "vel": 56,
      "dur": 80
    },
    {
      "t": 1280.1,
      "ch": 7,
      "note": 48,
      "vel": 69,
      "dur": 80
    },
    {
      "t": 1280.1,
      "ch": 7,
      "note": 36,
      "vel": 79,
      "dur": 80
    },
    {
      "t": 1280.3,
      "ch": 7,
      "note": 45,
      "vel": 61,
      "dur": 80
    },
    {
      "t": 1280.3,
      "ch": 7,
      "note": 38,
      "vel": 62,
      "dur": 80
    },
    {
      "t": 1280.7,
      "ch": 4,
      "note": 57,
      "vel": 51,
      "dur": 2558
    },
    {
      "t": 1280.7,
      "ch": 4,
      "note": 52,
      "vel": 53,
      "dur": 2558
    },
    {
      "t": 1280.7,
      "ch": 3,
      "note": 36,
      "vel": 55,
      "dur": 2608
    },
    {
      "t": 1280.8,
      "ch": 0,
      "note": 36,
      "vel": 89,
      "dur": 55
    },
    {
      "t": 1280.8,
      "ch": 7,
      "note": 48,
      "vel": 77,
      "dur": 80
    },
    {
      "t": 1280.8,
      "ch": 7,
      "note": 36,
      "vel": 67,
      "dur": 80
    },
    {
      "t": 1280.8,
      "ch": 6,
      "note": 59,
      "vel": 29,
      "dur": 598
    },
    {
      "t": 1280.9,
      "ch": 6,
      "note": 59,
      "vel": 33,
      "dur": 598
    },
    {
      "t": 1281.1,
      "ch": 7,
      "note": 45,
      "vel": 65,
      "dur": 80
    },
    {
      "t": 1281.1,
      "ch": 7,
      "note": 36,
      "vel": 63,
      "dur": 80
    },
    {
      "t": 1281.1,
      "ch": 7,
      "note": 38,
      "vel": 63,
      "dur": 80
    },
    {
      "t": 1281.1,
      "ch": 6,
      "note": 57,
      "vel": 18,
      "dur": 599
    },
    {
      "t": 1281.4,
      "ch": 7,
      "note": 48,
      "vel": 62,
      "dur": 80
    },
    {
      "t": 1281.4,
      "ch": 7,
      "note": 36,
      "vel": 72,
      "dur": 80
    },
    {
      "t": 1281.8,
      "ch": 0,
      "note": 36,
      "vel": 74,
      "dur": 55
    },
    {
      "t": 1282.1,
      "ch": 0,
      "note": 36,
      "vel": 112,
      "dur": 55
    },
    {
      "t": 1282.1,
      "ch": 7,
      "note": 48,
      "vel": 65,
      "dur": 80
    },
    {
      "t": 1282.1,
      "ch": 7,
      "note": 45,
      "vel": 65,
      "dur": 80
    },
    {
      "t": 1282.1,
      "ch": 7,
      "note": 36,
      "vel": 70,
      "dur": 80
    },
    {
      "t": 1282.1,
      "ch": 7,
      "note": 38,
      "vel": 71,
      "dur": 80
    },
    {
      "t": 1282.4,
      "ch": 7,
      "note": 36,
      "vel": 61,
      "dur": 80
    },
    {
      "t": 1282.7,
      "ch": 7,
      "note": 48,
      "vel": 75,
      "dur": 80
    },
    {
      "t": 1282.7,
      "ch": 7,
      "note": 36,
      "vel": 59,
      "dur": 80
    },
    {
      "t": 1282.7,
      "ch": 5,
      "note": 57,
      "vel": 16,
      "dur": 907
    },
    {
      "t": 1282.9,
      "ch": 7,
      "note": 45,
      "vel": 63,
      "dur": 80
    },
    {
      "t": 1282.9,
      "ch": 7,
      "note": 38,
      "vel": 67,
      "dur": 80
    },
    {
      "t": 1283.1,
      "ch": 6,
      "note": 62,
      "vel": 9,
      "dur": 400
    },
    {
      "t": 1283.3,
      "ch": 4,
      "note": 55,
      "vel": 50,
      "dur": 2558
    },
    {
      "t": 1283.3,
      "ch": 4,
      "note": 59,
      "vel": 66,
      "dur": 2558
    },
    {
      "t": 1283.3,
      "ch": 3,
      "note": 43,
      "vel": 52,
      "dur": 2608
    },
    {
      "t": 1283.4,
      "ch": 0,
      "note": 36,
      "vel": 88,
      "dur": 55
    },
    {
      "t": 1283.4,
      "ch": 7,
      "note": 48,
      "vel": 72,
      "dur": 80
    },
    {
      "t": 1283.4,
      "ch": 7,
      "note": 36,
      "vel": 65,
      "dur": 80
    },
    {
      "t": 1283.7,
      "ch": 7,
      "note": 45,
      "vel": 64,
      "dur": 80
    },
    {
      "t": 1283.7,
      "ch": 7,
      "note": 36,
      "vel": 58,
      "dur": 80
    },
    {
      "t": 1283.7,
      "ch": 7,
      "note": 38,
      "vel": 65,
      "dur": 80
    },
    {
      "t": 1283.7,
      "ch": 5,
      "note": 62,
      "vel": 17,
      "dur": 912
    },
    {
      "t": 1283.9,
      "ch": 6,
      "note": 60,
      "vel": 24,
      "dur": 609
    },
    {
      "t": 1284,
      "ch": 7,
      "note": 48,
      "vel": 69,
      "dur": 80
    },
    {
      "t": 1284,
      "ch": 7,
      "note": 36,
      "vel": 71,
      "dur": 80
    },
    {
      "t": 1284,
      "ch": 5,
      "note": 55,
      "vel": 16,
      "dur": 914
    },
    {
      "t": 1284.2,
      "ch": 6,
      "note": 62,
      "vel": 21,
      "dur": 610
    },
    {
      "t": 1284.4,
      "ch": 0,
      "note": 36,
      "vel": 83,
      "dur": 55
    },
    {
      "t": 1284.7,
      "ch": 0,
      "note": 36,
      "vel": 110,
      "dur": 55
    },
    {
      "t": 1284.7,
      "ch": 1,
      "note": 36,
      "vel": 76,
      "dur": 25
    },
    {
      "t": 1284.7,
      "ch": 1,
      "note": 38,
      "vel": 91,
      "dur": 25
    },
    {
      "t": 1284.7,
      "ch": 1,
      "note": 40,
      "vel": 99,
      "dur": 25
    },
    {
      "t": 1284.7,
      "ch": 1,
      "note": 42,
      "vel": 91,
      "dur": 25
    },
    {
      "t": 1284.7,
      "ch": 1,
      "note": 36,
      "vel": 97,
      "dur": 25
    },
    {
      "t": 1284.7,
      "ch": 1,
      "note": 38,
      "vel": 81,
      "dur": 25
    },
    {
      "t": 1284.7,
      "ch": 1,
      "note": 40,
      "vel": 85,
      "dur": 25
    },
    {
      "t": 1284.7,
      "ch": 1,
      "note": 42,
      "vel": 94,
      "dur": 25
    },
    {
      "t": 1284.7,
      "ch": 1,
      "note": 36,
      "vel": 92,
      "dur": 25
    },
    {
      "t": 1284.7,
      "ch": 1,
      "note": 38,
      "vel": 91,
      "dur": 25
    },
    {
      "t": 1284.7,
      "ch": 1,
      "note": 40,
      "vel": 101,
      "dur": 25
    },
    {
      "t": 1284.7,
      "ch": 1,
      "note": 42,
      "vel": 68,
      "dur": 25
    },
    {
      "t": 1284.7,
      "ch": 1,
      "note": 36,
      "vel": 99,
      "dur": 25
    },
    {
      "t": 1284.7,
      "ch": 1,
      "note": 38,
      "vel": 88,
      "dur": 25
    },
    {
      "t": 1284.7,
      "ch": 1,
      "note": 40,
      "vel": 82,
      "dur": 25
    },
    {
      "t": 1284.7,
      "ch": 1,
      "note": 42,
      "vel": 72,
      "dur": 25
    },
    {
      "t": 1284.7,
      "ch": 1,
      "note": 36,
      "vel": 98,
      "dur": 25
    },
    {
      "t": 1284.7,
      "ch": 1,
      "note": 38,
      "vel": 98,
      "dur": 25
    },
    {
      "t": 1284.7,
      "ch": 1,
      "note": 40,
      "vel": 78,
      "dur": 25
    },
    {
      "t": 1284.7,
      "ch": 1,
      "note": 42,
      "vel": 108,
      "dur": 25
    },
    {
      "t": 1284.7,
      "ch": 1,
      "note": 36,
      "vel": 90,
      "dur": 25
    },
    {
      "t": 1284.7,
      "ch": 1,
      "note": 38,
      "vel": 98,
      "dur": 25
    },
    {
      "t": 1284.7,
      "ch": 1,
      "note": 40,
      "vel": 98,
      "dur": 25
    },
    {
      "t": 1284.7,
      "ch": 1,
      "note": 42,
      "vel": 83,
      "dur": 25
    },
    {
      "t": 1284.7,
      "ch": 1,
      "note": 36,
      "vel": 63,
      "dur": 25
    },
    {
      "t": 1284.7,
      "ch": 1,
      "note": 38,
      "vel": 80,
      "dur": 25
    },
    {
      "t": 1284.7,
      "ch": 1,
      "note": 40,
      "vel": 67,
      "dur": 25
    },
    {
      "t": 1284.7,
      "ch": 1,
      "note": 42,
      "vel": 111,
      "dur": 25
    },
    {
      "t": 1284.7,
      "ch": 1,
      "note": 36,
      "vel": 89,
      "dur": 25
    },
    {
      "t": 1284.7,
      "ch": 1,
      "note": 38,
      "vel": 68,
      "dur": 25
    },
    {
      "t": 1284.7,
      "ch": 1,
      "note": 40,
      "vel": 115,
      "dur": 25
    },
    {
      "t": 1284.7,
      "ch": 1,
      "note": 42,
      "vel": 78,
      "dur": 25
    },
    {
      "t": 1284.7,
      "ch": 1,
      "note": 36,
      "vel": 91,
      "dur": 25
    },
    {
      "t": 1284.7,
      "ch": 1,
      "note": 38,
      "vel": 90,
      "dur": 25
    },
    {
      "t": 1284.7,
      "ch": 1,
      "note": 40,
      "vel": 92,
      "dur": 25
    },
    {
      "t": 1284.7,
      "ch": 1,
      "note": 42,
      "vel": 99,
      "dur": 25
    },
    {
      "t": 1284.7,
      "ch": 1,
      "note": 36,
      "vel": 77,
      "dur": 25
    },
    {
      "t": 1284.7,
      "ch": 1,
      "note": 38,
      "vel": 98,
      "dur": 25
    },
    {
      "t": 1284.7,
      "ch": 1,
      "note": 40,
      "vel": 72,
      "dur": 25
    },
    {
      "t": 1284.7,
      "ch": 1,
      "note": 42,
      "vel": 71,
      "dur": 25
    },
    {
      "t": 1284.7,
      "ch": 1,
      "note": 36,
      "vel": 92,
      "dur": 25
    },
    {
      "t": 1284.7,
      "ch": 1,
      "note": 38,
      "vel": 88,
      "dur": 25
    },
    {
      "t": 1284.7,
      "ch": 1,
      "note": 40,
      "vel": 75,
      "dur": 25
    },
    {
      "t": 1284.7,
      "ch": 1,
      "note": 42,
      "vel": 69,
      "dur": 25
    },
    {
      "t": 1284.7,
      "ch": 1,
      "note": 36,
      "vel": 77,
      "dur": 25
    },
    {
      "t": 1284.7,
      "ch": 1,
      "note": 38,
      "vel": 69,
      "dur": 25
    },
    {
      "t": 1284.7,
      "ch": 1,
      "note": 40,
      "vel": 74,
      "dur": 25
    },
    {
      "t": 1284.7,
      "ch": 1,
      "note": 42,
      "vel": 66,
      "dur": 25
    },
    {
      "t": 1284.7,
      "ch": 1,
      "note": 36,
      "vel": 65,
      "dur": 25
    },
    {
      "t": 1284.7,
      "ch": 1,
      "note": 38,
      "vel": 109,
      "dur": 25
    },
    {
      "t": 1284.7,
      "ch": 1,
      "note": 40,
      "vel": 91,
      "dur": 25
    },
    {
      "t": 1284.7,
      "ch": 1,
      "note": 42,
      "vel": 94,
      "dur": 25
    },
    {
      "t": 1284.7,
      "ch": 1,
      "note": 36,
      "vel": 64,
      "dur": 25
    },
    {
      "t": 1284.7,
      "ch": 1,
      "note": 38,
      "vel": 70,
      "dur": 25
    },
    {
      "t": 1284.7,
      "ch": 1,
      "note": 40,
      "vel": 63,
      "dur": 25
    },
    {
      "t": 1284.7,
      "ch": 1,
      "note": 42,
      "vel": 89,
      "dur": 25
    },
    {
      "t": 1284.7,
      "ch": 1,
      "note": 36,
      "vel": 113,
      "dur": 25
    },
    {
      "t": 1284.7,
      "ch": 1,
      "note": 38,
      "vel": 75,
      "dur": 25
    },
    {
      "t": 1284.7,
      "ch": 1,
      "note": 40,
      "vel": 94,
      "dur": 25
    },
    {
      "t": 1284.7,
      "ch": 1,
      "note": 42,
      "vel": 109,
      "dur": 25
    },
    {
      "t": 1284.7,
      "ch": 1,
      "note": 36,
      "vel": 68,
      "dur": 25
    },
    {
      "t": 1284.7,
      "ch": 1,
      "note": 38,
      "vel": 56,
      "dur": 25
    },
    {
      "t": 1284.7,
      "ch": 1,
      "note": 40,
      "vel": 75,
      "dur": 25
    },
    {
      "t": 1284.7,
      "ch": 1,
      "note": 42,
      "vel": 107,
      "dur": 25
    },
    {
      "t": 1284.7,
      "ch": 1,
      "note": 36,
      "vel": 72,
      "dur": 25
    },
    {
      "t": 1284.7,
      "ch": 1,
      "note": 38,
      "vel": 97,
      "dur": 25
    },
    {
      "t": 1284.7,
      "ch": 1,
      "note": 40,
      "vel": 81,
      "dur": 25
    },
    {
      "t": 1284.7,
      "ch": 1,
      "note": 42,
      "vel": 97,
      "dur": 25
    },
    {
      "t": 1284.7,
      "ch": 1,
      "note": 36,
      "vel": 85,
      "dur": 25
    },
    {
      "t": 1284.7,
      "ch": 1,
      "note": 38,
      "vel": 56,
      "dur": 25
    },
    {
      "t": 1284.7,
      "ch": 1,
      "note": 40,
      "vel": 89,
      "dur": 25
    },
    {
      "t": 1284.7,
      "ch": 1,
      "note": 42,
      "vel": 88,
      "dur": 25
    },
    {
      "t": 1284.7,
      "ch": 1,
      "note": 36,
      "vel": 59,
      "dur": 25
    },
    {
      "t": 1284.7,
      "ch": 1,
      "note": 38,
      "vel": 104,
      "dur": 25
    },
    {
      "t": 1284.7,
      "ch": 1,
      "note": 40,
      "vel": 79,
      "dur": 25
    },
    {
      "t": 1284.7,
      "ch": 1,
      "note": 42,
      "vel": 86,
      "dur": 25
    },
    {
      "t": 1284.7,
      "ch": 1,
      "note": 36,
      "vel": 90,
      "dur": 25
    },
    {
      "t": 1284.7,
      "ch": 1,
      "note": 38,
      "vel": 80,
      "dur": 25
    },
    {
      "t": 1284.7,
      "ch": 1,
      "note": 40,
      "vel": 83,
      "dur": 25
    },
    {
      "t": 1284.7,
      "ch": 1,
      "note": 42,
      "vel": 89,
      "dur": 25
    },
    {
      "t": 1284.7,
      "ch": 1,
      "note": 36,
      "vel": 97,
      "dur": 25
    },
    {
      "t": 1284.7,
      "ch": 1,
      "note": 38,
      "vel": 91,
      "dur": 25
    },
    {
      "t": 1284.7,
      "ch": 1,
      "note": 40,
      "vel": 90,
      "dur": 25
    },
    {
      "t": 1284.7,
      "ch": 1,
      "note": 42,
      "vel": 96,
      "dur": 25
    },
    {
      "t": 1284.7,
      "ch": 1,
      "note": 36,
      "vel": 88,
      "dur": 25
    },
    {
      "t": 1284.7,
      "ch": 1,
      "note": 38,
      "vel": 79,
      "dur": 25
    },
    {
      "t": 1284.7,
      "ch": 1,
      "note": 40,
      "vel": 78,
      "dur": 25
    },
    {
      "t": 1284.7,
      "ch": 1,
      "note": 42,
      "vel": 76,
      "dur": 25
    },
    {
      "t": 1284.7,
      "ch": 1,
      "note": 36,
      "vel": 96,
      "dur": 25
    },
    {
      "t": 1284.7,
      "ch": 1,
      "note": 38,
      "vel": 89,
      "dur": 25
    },
    {
      "t": 1284.7,
      "ch": 1,
      "note": 40,
      "vel": 70,
      "dur": 25
    },
    {
      "t": 1284.7,
      "ch": 1,
      "note": 42,
      "vel": 94,
      "dur": 25
    },
    {
      "t": 1284.7,
      "ch": 1,
      "note": 36,
      "vel": 89,
      "dur": 25
    },
    {
      "t": 1284.7,
      "ch": 1,
      "note": 38,
      "vel": 74,
      "dur": 25
    },
    {
      "t": 1284.7,
      "ch": 1,
      "note": 40,
      "vel": 65,
      "dur": 25
    },
    {
      "t": 1284.7,
      "ch": 1,
      "note": 42,
      "vel": 84,
      "dur": 25
    },
    {
      "t": 1284.7,
      "ch": 1,
      "note": 36,
      "vel": 85,
      "dur": 25
    },
    {
      "t": 1284.7,
      "ch": 1,
      "note": 38,
      "vel": 112,
      "dur": 25
    },
    {
      "t": 1284.7,
      "ch": 1,
      "note": 40,
      "vel": 92,
      "dur": 25
    },
    {
      "t": 1284.7,
      "ch": 1,
      "note": 42,
      "vel": 99,
      "dur": 25
    },
    {
      "t": 1284.7,
      "ch": 1,
      "note": 36,
      "vel": 79,
      "dur": 25
    },
    {
      "t": 1284.7,
      "ch": 1,
      "note": 38,
      "vel": 98,
      "dur": 25
    },
    {
      "t": 1284.7,
      "ch": 1,
      "note": 40,
      "vel": 109,
      "dur": 25
    },
    {
      "t": 1284.7,
      "ch": 1,
      "note": 42,
      "vel": 78,
      "dur": 25
    },
    {
      "t": 1284.7,
      "ch": 1,
      "note": 36,
      "vel": 71,
      "dur": 25
    },
    {
      "t": 1284.7,
      "ch": 1,
      "note": 38,
      "vel": 114,
      "dur": 25
    },
    {
      "t": 1284.7,
      "ch": 1,
      "note": 40,
      "vel": 88,
      "dur": 25
    },
    {
      "t": 1284.7,
      "ch": 1,
      "note": 42,
      "vel": 85,
      "dur": 25
    },
    {
      "t": 1284.7,
      "ch": 1,
      "note": 36,
      "vel": 88,
      "dur": 25
    },
    {
      "t": 1284.7,
      "ch": 1,
      "note": 38,
      "vel": 92,
      "dur": 25
    },
    {
      "t": 1284.7,
      "ch": 1,
      "note": 40,
      "vel": 72,
      "dur": 25
    },
    {
      "t": 1284.7,
      "ch": 1,
      "note": 42,
      "vel": 102,
      "dur": 25
    },
    {
      "t": 1284.7,
      "ch": 1,
      "note": 36,
      "vel": 77,
      "dur": 25
    },
    {
      "t": 1284.7,
      "ch": 1,
      "note": 38,
      "vel": 110,
      "dur": 25
    },
    {
      "t": 1284.7,
      "ch": 1,
      "note": 40,
      "vel": 63,
      "dur": 25
    },
    {
      "t": 1284.7,
      "ch": 1,
      "note": 42,
      "vel": 69,
      "dur": 25
    },
    {
      "t": 1284.7,
      "ch": 1,
      "note": 36,
      "vel": 84,
      "dur": 25
    },
    {
      "t": 1284.7,
      "ch": 1,
      "note": 38,
      "vel": 95,
      "dur": 25
    },
    {
      "t": 1284.7,
      "ch": 1,
      "note": 40,
      "vel": 74,
      "dur": 25
    },
    {
      "t": 1284.7,
      "ch": 1,
      "note": 42,
      "vel": 76,
      "dur": 25
    },
    {
      "t": 1284.7,
      "ch": 1,
      "note": 36,
      "vel": 87,
      "dur": 25
    },
    {
      "t": 1284.7,
      "ch": 1,
      "note": 38,
      "vel": 92,
      "dur": 25
    },
    {
      "t": 1284.7,
      "ch": 1,
      "note": 40,
      "vel": 69,
      "dur": 25
    },
    {
      "t": 1284.7,
      "ch": 1,
      "note": 42,
      "vel": 58,
      "dur": 25
    },
    {
      "t": 1284.7,
      "ch": 1,
      "note": 36,
      "vel": 87,
      "dur": 25
    },
    {
      "t": 1284.7,
      "ch": 1,
      "note": 38,
      "vel": 83,
      "dur": 25
    },
    {
      "t": 1284.7,
      "ch": 1,
      "note": 40,
      "vel": 113,
      "dur": 25
    },
    {
      "t": 1284.7,
      "ch": 1,
      "note": 42,
      "vel": 77,
      "dur": 25
    },
    {
      "t": 1284.7,
      "ch": 1,
      "note": 36,
      "vel": 93,
      "dur": 25
    },
    {
      "t": 1284.7,
      "ch": 1,
      "note": 38,
      "vel": 94,
      "dur": 25
    },
    {
      "t": 1284.7,
      "ch": 1,
      "note": 40,
      "vel": 92,
      "dur": 25
    },
    {
      "t": 1284.7,
      "ch": 1,
      "note": 42,
      "vel": 81,
      "dur": 25
    },
    {
      "t": 1284.7,
      "ch": 1,
      "note": 36,
      "vel": 62,
      "dur": 25
    },
    {
      "t": 1284.7,
      "ch": 1,
      "note": 38,
      "vel": 101,
      "dur": 25
    },
    {
      "t": 1284.7,
      "ch": 1,
      "note": 40,
      "vel": 86,
      "dur": 25
    },
    {
      "t": 1284.7,
      "ch": 1,
      "note": 42,
      "vel": 81,
      "dur": 25
    },
    {
      "t": 1284.7,
      "ch": 1,
      "note": 36,
      "vel": 70,
      "dur": 25
    },
    {
      "t": 1284.7,
      "ch": 1,
      "note": 38,
      "vel": 94,
      "dur": 25
    },
    {
      "t": 1284.7,
      "ch": 1,
      "note": 40,
      "vel": 78,
      "dur": 25
    },
    {
      "t": 1284.7,
      "ch": 1,
      "note": 42,
      "vel": 78,
      "dur": 25
    },
    {
      "t": 1284.7,
      "ch": 1,
      "note": 36,
      "vel": 79,
      "dur": 25
    },
    {
      "t": 1284.7,
      "ch": 1,
      "note": 38,
      "vel": 80,
      "dur": 25
    },
    {
      "t": 1284.7,
      "ch": 1,
      "note": 40,
      "vel": 90,
      "dur": 25
    },
    {
      "t": 1284.7,
      "ch": 1,
      "note": 42,
      "vel": 65,
      "dur": 25
    },
    {
      "t": 1284.7,
      "ch": 1,
      "note": 36,
      "vel": 79,
      "dur": 25
    },
    {
      "t": 1284.7,
      "ch": 1,
      "note": 38,
      "vel": 74,
      "dur": 25
    },
    {
      "t": 1284.7,
      "ch": 1,
      "note": 40,
      "vel": 84,
      "dur": 25
    },
    {
      "t": 1284.7,
      "ch": 1,
      "note": 42,
      "vel": 96,
      "dur": 25
    },
    {
      "t": 1284.7,
      "ch": 1,
      "note": 36,
      "vel": 95,
      "dur": 25
    },
    {
      "t": 1284.7,
      "ch": 1,
      "note": 38,
      "vel": 95,
      "dur": 25
    },
    {
      "t": 1284.7,
      "ch": 1,
      "note": 40,
      "vel": 80,
      "dur": 25
    },
    {
      "t": 1284.7,
      "ch": 1,
      "note": 42,
      "vel": 71,
      "dur": 25
    },
    {
      "t": 1284.7,
      "ch": 1,
      "note": 36,
      "vel": 90,
      "dur": 25
    },
    {
      "t": 1284.7,
      "ch": 1,
      "note": 38,
      "vel": 85,
      "dur": 25
    },
    {
      "t": 1284.7,
      "ch": 1,
      "note": 40,
      "vel": 95,
      "dur": 25
    },
    {
      "t": 1284.7,
      "ch": 1,
      "note": 42,
      "vel": 100,
      "dur": 25
    },
    {
      "t": 1284.7,
      "ch": 1,
      "note": 36,
      "vel": 92,
      "dur": 25
    },
    {
      "t": 1284.7,
      "ch": 1,
      "note": 38,
      "vel": 71,
      "dur": 25
    },
    {
      "t": 1284.7,
      "ch": 1,
      "note": 40,
      "vel": 91,
      "dur": 25
    },
    {
      "t": 1284.7,
      "ch": 1,
      "note": 42,
      "vel": 86,
      "dur": 25
    },
    {
      "t": 1284.7,
      "ch": 1,
      "note": 36,
      "vel": 97,
      "dur": 25
    },
    {
      "t": 1284.7,
      "ch": 1,
      "note": 38,
      "vel": 68,
      "dur": 25
    },
    {
      "t": 1284.7,
      "ch": 1,
      "note": 40,
      "vel": 84,
      "dur": 25
    },
    {
      "t": 1284.7,
      "ch": 1,
      "note": 42,
      "vel": 78,
      "dur": 25
    },
    {
      "t": 1284.7,
      "ch": 1,
      "note": 36,
      "vel": 76,
      "dur": 25
    },
    {
      "t": 1284.7,
      "ch": 1,
      "note": 38,
      "vel": 76,
      "dur": 25
    },
    {
      "t": 1284.7,
      "ch": 1,
      "note": 40,
      "vel": 67,
      "dur": 25
    },
    {
      "t": 1284.7,
      "ch": 1,
      "note": 42,
      "vel": 71,
      "dur": 25
    },
    {
      "t": 1284.7,
      "ch": 1,
      "note": 36,
      "vel": 75,
      "dur": 25
    },
    {
      "t": 1284.7,
      "ch": 1,
      "note": 38,
      "vel": 86,
      "dur": 25
    },
    {
      "t": 1284.7,
      "ch": 1,
      "note": 40,
      "vel": 76,
      "dur": 25
    },
    {
      "t": 1284.7,
      "ch": 1,
      "note": 42,
      "vel": 62,
      "dur": 25
    },
    {
      "t": 1284.7,
      "ch": 1,
      "note": 36,
      "vel": 58,
      "dur": 25
    },
    {
      "t": 1284.7,
      "ch": 1,
      "note": 38,
      "vel": 68,
      "dur": 25
    },
    {
      "t": 1284.7,
      "ch": 1,
      "note": 40,
      "vel": 86,
      "dur": 25
    },
    {
      "t": 1284.7,
      "ch": 1,
      "note": 42,
      "vel": 97,
      "dur": 25
    },
    {
      "t": 1284.7,
      "ch": 1,
      "note": 36,
      "vel": 93,
      "dur": 25
    },
    {
      "t": 1284.7,
      "ch": 1,
      "note": 38,
      "vel": 82,
      "dur": 25
    },
    {
      "t": 1284.7,
      "ch": 1,
      "note": 40,
      "vel": 92,
      "dur": 25
    },
    {
      "t": 1284.7,
      "ch": 1,
      "note": 42,
      "vel": 86,
      "dur": 25
    },
    {
      "t": 1284.7,
      "ch": 1,
      "note": 36,
      "vel": 88,
      "dur": 25
    },
    {
      "t": 1284.7,
      "ch": 1,
      "note": 38,
      "vel": 73,
      "dur": 25
    },
    {
      "t": 1284.7,
      "ch": 1,
      "note": 40,
      "vel": 68,
      "dur": 25
    },
    {
      "t": 1284.7,
      "ch": 1,
      "note": 42,
      "vel": 100,
      "dur": 25
    },
    {
      "t": 1284.7,
      "ch": 1,
      "note": 36,
      "vel": 71,
      "dur": 25
    },
    {
      "t": 1284.7,
      "ch": 1,
      "note": 38,
      "vel": 107,
      "dur": 25
    },
    {
      "t": 1284.7,
      "ch": 1,
      "note": 40,
      "vel": 81,
      "dur": 25
    },
    {
      "t": 1284.7,
      "ch": 1,
      "note": 42,
      "vel": 91,
      "dur": 25
    },
    {
      "t": 1284.7,
      "ch": 1,
      "note": 36,
      "vel": 75,
      "dur": 25
    },
    {
      "t": 1284.7,
      "ch": 1,
      "note": 38,
      "vel": 102,
      "dur": 25
    },
    {
      "t": 1284.7,
      "ch": 1,
      "note": 40,
      "vel": 81,
      "dur": 25
    },
    {
      "t": 1284.7,
      "ch": 1,
      "note": 42,
      "vel": 77,
      "dur": 25
    },
    {
      "t": 1284.7,
      "ch": 1,
      "note": 36,
      "vel": 68,
      "dur": 25
    },
    {
      "t": 1284.7,
      "ch": 7,
      "note": 48,
      "vel": 55,
      "dur": 80
    },
    {
      "t": 1284.7,
      "ch": 7,
      "note": 45,
      "vel": 77,
      "dur": 80
    },
    {
      "t": 1284.7,
      "ch": 7,
      "note": 36,
      "vel": 66,
      "dur": 80
    },
    {
      "t": 1284.7,
      "ch": 7,
      "note": 38,
      "vel": 72,
      "dur": 80
    },
    {
      "t": 1284.7,
      "ch": 6,
      "note": 65,
      "vel": 14,
      "dur": 612
    },
    {
      "t": 1284.8,
      "ch": 1,
      "note": 38,
      "vel": 76,
      "dur": 25
    },
    {
      "t": 1284.8,
      "ch": 1,
      "note": 40,
      "vel": 74,
      "dur": 25
    },
    {
      "t": 1284.9,
      "ch": 1,
      "note": 42,
      "vel": 66,
      "dur": 25
    },
    {
      "t": 1285,
      "ch": 1,
      "note": 36,
      "vel": 85,
      "dur": 25
    },
    {
      "t": 1285,
      "ch": 7,
      "note": 36,
      "vel": 65,
      "dur": 80
    },
    {
      "t": 1285.1,
      "ch": 1,
      "note": 38,
      "vel": 82,
      "dur": 25
    },
    {
      "t": 1285.2,
      "ch": 1,
      "note": 40,
      "vel": 77,
      "dur": 25
    },
    {
      "t": 1285.3,
      "ch": 1,
      "note": 42,
      "vel": 63,
      "dur": 25
    },
    {
      "t": 1285.3,
      "ch": 1,
      "note": 36,
      "vel": 70,
      "dur": 25
    },
    {
      "t": 1285.3,
      "ch": 7,
      "note": 48,
      "vel": 70,
      "dur": 80
    },
    {
      "t": 1285.3,
      "ch": 7,
      "note": 36,
      "vel": 71,
      "dur": 80
    },
    {
      "t": 1285.4,
      "ch": 1,
      "note": 38,
      "vel": 89,
      "dur": 25
    },
    {
      "t": 1285.5,
      "ch": 1,
      "note": 40,
      "vel": 79,
      "dur": 25
    },
    {
      "t": 1285.5,
      "ch": 7,
      "note": 45,
      "vel": 64,
      "dur": 80
    },
    {
      "t": 1285.5,
      "ch": 7,
      "note": 38,
      "vel": 59,
      "dur": 80
    },
    {
      "t": 1285.6,
      "ch": 1,
      "note": 42,
      "vel": 73,
      "dur": 25
    },
    {
      "t": 1285.7,
      "ch": 1,
      "note": 36,
      "vel": 54,
      "dur": 25
    },
    {
      "t": 1285.7,
      "ch": 5,
      "note": 55,
      "vel": 13,
      "dur": 924
    },
    {
      "t": 1285.7,
      "ch": 6,
      "note": 57,
      "vel": 2,
      "dur": 616
    },
    {
      "t": 1285.8,
      "ch": 1,
      "note": 38,
      "vel": 73,
      "dur": 25
    },
    {
      "t": 1285.8,
      "ch": 1,
      "note": 40,
      "vel": 68,
      "dur": 25
    },
    {
      "t": 1285.9,
      "ch": 1,
      "note": 42,
      "vel": 68,
      "dur": 25
    },
    {
      "t": 1286,
      "ch": 0,
      "note": 36,
      "vel": 88,
      "dur": 55
    },
    {
      "t": 1286,
      "ch": 1,
      "note": 36,
      "vel": 86,
      "dur": 25
    },
    {
      "t": 1286,
      "ch": 7,
      "note": 48,
      "vel": 67,
      "dur": 80
    },
    {
      "t": 1286,
      "ch": 7,
      "note": 36,
      "vel": 74,
      "dur": 80
    },
    {
      "t": 1286,
      "ch": 6,
      "note": 57,
      "vel": 22,
      "dur": 617
    },
    {
      "t": 1286.1,
      "ch": 1,
      "note": 38,
      "vel": 65,
      "dur": 25
    },
    {
      "t": 1286.2,
      "ch": 1,
      "note": 40,
      "vel": 81,
      "dur": 25
    },
    {
      "t": 1286.2,
      "ch": 1,
      "note": 42,
      "vel": 78,
      "dur": 25
    },
    {
      "t": 1286.3,
      "ch": 1,
      "note": 36,
      "vel": 69,
      "dur": 25
    },
    {
      "t": 1286.3,
      "ch": 7,
      "note": 45,
      "vel": 68,
      "dur": 80
    },
    {
      "t": 1286.3,
      "ch": 7,
      "note": 36,
      "vel": 62,
      "dur": 80
    },
    {
      "t": 1286.3,
      "ch": 7,
      "note": 38,
      "vel": 69,
      "dur": 80
    },
    {
      "t": 1286.4,
      "ch": 1,
      "note": 38,
      "vel": 75,
      "dur": 25
    },
    {
      "t": 1286.5,
      "ch": 1,
      "note": 40,
      "vel": 63,
      "dur": 25
    },
    {
      "t": 1286.6,
      "ch": 1,
      "note": 42,
      "vel": 74,
      "dur": 25
    },
    {
      "t": 1286.6,
      "ch": 1,
      "note": 36,
      "vel": 74,
      "dur": 25
    },
    {
      "t": 1286.6,
      "ch": 7,
      "note": 48,
      "vel": 71,
      "dur": 80
    },
    {
      "t": 1286.6,
      "ch": 7,
      "note": 36,
      "vel": 74,
      "dur": 80
    },
    {
      "t": 1286.7,
      "ch": 1,
      "note": 38,
      "vel": 68,
      "dur": 25
    },
    {
      "t": 1286.8,
      "ch": 1,
      "note": 40,
      "vel": 90,
      "dur": 25
    },
    {
      "t": 1286.9,
      "ch": 1,
      "note": 42,
      "vel": 82,
      "dur": 25
    },
    {
      "t": 1287,
      "ch": 1,
      "note": 36,
      "vel": 68,
      "dur": 25
    },
    {
      "t": 1287,
      "ch": 0,
      "note": 36,
      "vel": 76,
      "dur": 55
    },
    {
      "t": 1287.1,
      "ch": 1,
      "note": 38,
      "vel": 69,
      "dur": 25
    },
    {
      "t": 1287.1,
      "ch": 1,
      "note": 40,
      "vel": 76,
      "dur": 25
    },
    {
      "t": 1287.2,
      "ch": 1,
      "note": 42,
      "vel": 66,
      "dur": 25
    },
    {
      "t": 1287.3,
      "ch": 1,
      "note": 36,
      "vel": 59,
      "dur": 25
    },
    {
      "t": 1287.3,
      "ch": 7,
      "note": 48,
      "vel": 67,
      "dur": 80
    },
    {
      "t": 1287.3,
      "ch": 7,
      "note": 45,
      "vel": 75,
      "dur": 80
    },
    {
      "t": 1287.3,
      "ch": 7,
      "note": 36,
      "vel": 81,
      "dur": 80
    },
    {
      "t": 1287.3,
      "ch": 7,
      "note": 38,
      "vel": 83,
      "dur": 80
    },
    {
      "t": 1287.4,
      "ch": 1,
      "note": 38,
      "vel": 86,
      "dur": 25
    },
    {
      "t": 1287.5,
      "ch": 1,
      "note": 40,
      "vel": 57,
      "dur": 25
    },
    {
      "t": 1287.5,
      "ch": 1,
      "note": 42,
      "vel": 73,
      "dur": 25
    },
    {
      "t": 1287.6,
      "ch": 1,
      "note": 36,
      "vel": 92,
      "dur": 25
    },
    {
      "t": 1287.6,
      "ch": 7,
      "note": 36,
      "vel": 64,
      "dur": 80
    },
    {
      "t": 1287.7,
      "ch": 1,
      "note": 38,
      "vel": 83,
      "dur": 25
    },
    {
      "t": 1287.8,
      "ch": 1,
      "note": 40,
      "vel": 70,
      "dur": 25
    },
    {
      "t": 1287.9,
      "ch": 1,
      "note": 42,
      "vel": 78,
      "dur": 25
    },
    {
      "t": 1287.9,
      "ch": 1,
      "note": 36,
      "vel": 104,
      "dur": 25
    },
    {
      "t": 1287.9,
      "ch": 7,
      "note": 48,
      "vel": 71,
      "dur": 80
    },
    {
      "t": 1287.9,
      "ch": 7,
      "note": 36,
      "vel": 78,
      "dur": 80
    },
    {
      "t": 1288,
      "ch": 1,
      "note": 38,
      "vel": 101,
      "dur": 25
    },
    {
      "t": 1288.1,
      "ch": 1,
      "note": 40,
      "vel": 71,
      "dur": 25
    },
    {
      "t": 1288.1,
      "ch": 7,
      "note": 45,
      "vel": 56,
      "dur": 80
    },
    {
      "t": 1288.1,
      "ch": 7,
      "note": 38,
      "vel": 71,
      "dur": 80
    },
    {
      "t": 1288.2,
      "ch": 1,
      "note": 42,
      "vel": 71,
      "dur": 25
    },
    {
      "t": 1288.3,
      "ch": 1,
      "note": 36,
      "vel": 70,
      "dur": 25
    },
    {
      "t": 1288.4,
      "ch": 1,
      "note": 38,
      "vel": 84,
      "dur": 25
    },
    {
      "t": 1288.4,
      "ch": 1,
      "note": 40,
      "vel": 86,
      "dur": 25
    },
    {
      "t": 1288.5,
      "ch": 2,
      "note": 48,
      "vel": 0,
      "dur": 0
    },
    {
      "t": 1288.5,
      "ch": 2,
      "note": 55,
      "vel": 56,
      "dur": 19565
    },
    {
      "t": 1288.5,
      "ch": 1,
      "note": 42,
      "vel": 83,
      "dur": 25
    },
    {
      "t": 1288.6,
      "ch": 1,
      "note": 36,
      "vel": 71,
      "dur": 25
    },
    {
      "t": 1288.6,
      "ch": 7,
      "note": 48,
      "vel": 64,
      "dur": 80
    },
    {
      "t": 1288.6,
      "ch": 7,
      "note": 36,
      "vel": 76,
      "dur": 80
    },
    {
      "t": 1288.7,
      "ch": 1,
      "note": 38,
      "vel": 101,
      "dur": 25
    },
    {
      "t": 1288.8,
      "ch": 1,
      "note": 40,
      "vel": 79,
      "dur": 25
    },
    {
      "t": 1288.9,
      "ch": 1,
      "note": 42,
      "vel": 71,
      "dur": 25
    },
    {
      "t": 1288.9,
      "ch": 1,
      "note": 36,
      "vel": 80,
      "dur": 25
    },
    {
      "t": 1288.9,
      "ch": 7,
      "note": 45,
      "vel": 62,
      "dur": 80
    },
    {
      "t": 1288.9,
      "ch": 7,
      "note": 36,
      "vel": 66,
      "dur": 80
    },
    {
      "t": 1288.9,
      "ch": 7,
      "note": 38,
      "vel": 54,
      "dur": 80
    },
    {
      "t": 1289,
      "ch": 1,
      "note": 38,
      "vel": 62,
      "dur": 25
    },
    {
      "t": 1289.1,
      "ch": 1,
      "note": 40,
      "vel": 65,
      "dur": 25
    },
    {
      "t": 1289.2,
      "ch": 1,
      "note": 42,
      "vel": 95,
      "dur": 25
    },
    {
      "t": 1289.3,
      "ch": 1,
      "note": 36,
      "vel": 63,
      "dur": 25
    },
    {
      "t": 1289.3,
      "ch": 7,
      "note": 48,
      "vel": 74,
      "dur": 80
    },
    {
      "t": 1289.3,
      "ch": 7,
      "note": 36,
      "vel": 81,
      "dur": 80
    },
    {
      "t": 1289.3,
      "ch": 1,
      "note": 38,
      "vel": 86,
      "dur": 25
    },
    {
      "t": 1289.4,
      "ch": 1,
      "note": 40,
      "vel": 59,
      "dur": 25
    },
    {
      "t": 1289.5,
      "ch": 1,
      "note": 42,
      "vel": 65,
      "dur": 25
    },
    {
      "t": 1289.6,
      "ch": 1,
      "note": 36,
      "vel": 72,
      "dur": 25
    },
    {
      "t": 1289.7,
      "ch": 1,
      "note": 38,
      "vel": 68,
      "dur": 25
    },
    {
      "t": 1289.7,
      "ch": 1,
      "note": 40,
      "vel": 98,
      "dur": 25
    },
    {
      "t": 1289.8,
      "ch": 1,
      "note": 42,
      "vel": 82,
      "dur": 25
    },
    {
      "t": 1289.9,
      "ch": 0,
      "note": 36,
      "vel": 117,
      "dur": 55
    },
    {
      "t": 1289.9,
      "ch": 1,
      "note": 36,
      "vel": 115,
      "dur": 25
    },
    {
      "t": 1289.9,
      "ch": 7,
      "note": 48,
      "vel": 58,
      "dur": 80
    },
    {
      "t": 1289.9,
      "ch": 7,
      "note": 45,
      "vel": 63,
      "dur": 80
    },
    {
      "t": 1289.9,
      "ch": 7,
      "note": 36,
      "vel": 69,
      "dur": 80
    },
    {
      "t": 1289.9,
      "ch": 7,
      "note": 38,
      "vel": 66,
      "dur": 80
    },
    {
      "t": 1290,
      "ch": 1,
      "note": 38,
      "vel": 85,
      "dur": 25
    },
    {
      "t": 1290.1,
      "ch": 1,
      "note": 40,
      "vel": 84,
      "dur": 25
    },
    {
      "t": 1290.2,
      "ch": 1,
      "note": 42,
      "vel": 89,
      "dur": 25
    },
    {
      "t": 1290.2,
      "ch": 1,
      "note": 36,
      "vel": 76,
      "dur": 25
    },
    {
      "t": 1290.2,
      "ch": 7,
      "note": 36,
      "vel": 49,
      "dur": 80
    },
    {
      "t": 1290.3,
      "ch": 1,
      "note": 38,
      "vel": 88,
      "dur": 25
    },
    {
      "t": 1290.4,
      "ch": 1,
      "note": 40,
      "vel": 64,
      "dur": 25
    },
    {
      "t": 1290.4,
      "ch": 5,
      "note": 57,
      "vel": 38,
      "dur": 935
    },
    {
      "t": 1290.5,
      "ch": 1,
      "note": 42,
      "vel": 83,
      "dur": 25
    },
    {
      "t": 1290.6,
      "ch": 1,
      "note": 36,
      "vel": 65,
      "dur": 25
    },
    {
      "t": 1290.6,
      "ch": 7,
      "note": 48,
      "vel": 70,
      "dur": 80
    },
    {
      "t": 1290.6,
      "ch": 7,
      "note": 36,
      "vel": 65,
      "dur": 80
    },
    {
      "t": 1290.7,
      "ch": 1,
      "note": 38,
      "vel": 86,
      "dur": 25
    },
    {
      "t": 1290.7,
      "ch": 1,
      "note": 40,
      "vel": 61,
      "dur": 25
    },
    {
      "t": 1290.7,
      "ch": 7,
      "note": 45,
      "vel": 65,
      "dur": 80
    },
    {
      "t": 1290.7,
      "ch": 7,
      "note": 38,
      "vel": 58,
      "dur": 80
    },
    {
      "t": 1290.8,
      "ch": 1,
      "note": 42,
      "vel": 66,
      "dur": 25
    },
    {
      "t": 1290.9,
      "ch": 1,
      "note": 36,
      "vel": 77,
      "dur": 25
    },
    {
      "t": 1290.9,
      "ch": 5,
      "note": 62,
      "vel": 7,
      "dur": 934
    },
    {
      "t": 1291,
      "ch": 1,
      "note": 38,
      "vel": 76,
      "dur": 25
    },
    {
      "t": 1291,
      "ch": 1,
      "note": 40,
      "vel": 73,
      "dur": 25
    },
    {
      "t": 1291.1,
      "ch": 0,
      "note": 36,
      "vel": 76,
      "dur": 55
    },
    {
      "t": 1291.1,
      "ch": 1,
      "note": 42,
      "vel": 78,
      "dur": 25
    },
    {
      "t": 1291.2,
      "ch": 1,
      "note": 36,
      "vel": 96,
      "dur": 25
    },
    {
      "t": 1291.2,
      "ch": 7,
      "note": 48,
      "vel": 76,
      "dur": 80
    },
    {
      "t": 1291.2,
      "ch": 7,
      "note": 36,
      "vel": 79,
      "dur": 80
    },
    {
      "t": 1291.3,
      "ch": 1,
      "note": 38,
      "vel": 86,
      "dur": 25
    },
    {
      "t": 1291.4,
      "ch": 1,
      "note": 40,
      "vel": 73,
      "dur": 25
    },
    {
      "t": 1291.4,
      "ch": 6,
      "note": 60,
      "vel": 31,
      "dur": 622
    },
    {
      "t": 1291.4,
      "ch": 5,
      "note": 55,
      "vel": 15,
      "dur": 933
    },
    {
      "t": 1291.5,
      "ch": 1,
      "note": 42,
      "vel": 52,
      "dur": 25
    },
    {
      "t": 1291.5,
      "ch": 1,
      "note": 36,
      "vel": 93,
      "dur": 25
    },
    {
      "t": 1291.5,
      "ch": 7,
      "note": 45,
      "vel": 74,
      "dur": 80
    },
    {
      "t": 1291.5,
      "ch": 7,
      "note": 36,
      "vel": 64,
      "dur": 80
    },
    {
      "t": 1291.5,
      "ch": 7,
      "note": 38,
      "vel": 66,
      "dur": 80
    },
    {
      "t": 1291.6,
      "ch": 6,
      "note": 59,
      "vel": 36,
      "dur": 622
    },
    {
      "t": 1291.6,
      "ch": 1,
      "note": 38,
      "vel": 76,
      "dur": 25
    },
    {
      "t": 1291.7,
      "ch": 1,
      "note": 40,
      "vel": 65,
      "dur": 25
    },
    {
      "t": 1291.8,
      "ch": 1,
      "note": 42,
      "vel": 68,
      "dur": 25
    },
    {
      "t": 1291.9,
      "ch": 0,
      "note": 36,
      "vel": 90,
      "dur": 55
    },
    {
      "t": 1291.9,
      "ch": 1,
      "note": 36,
      "vel": 59,
      "dur": 25
    },
    {
      "t": 1291.9,
      "ch": 7,
      "note": 48,
      "vel": 58,
      "dur": 80
    },
    {
      "t": 1291.9,
      "ch": 7,
      "note": 36,
      "vel": 66,
      "dur": 80
    },
    {
      "t": 1291.9,
      "ch": 1,
      "note": 38,
      "vel": 93,
      "dur": 25
    },
    {
      "t": 1292,
      "ch": 1,
      "note": 40,
      "vel": 91,
      "dur": 25
    },
    {
      "t": 1292.1,
      "ch": 1,
      "note": 42,
      "vel": 70,
      "dur": 25
    },
    {
      "t": 1292.2,
      "ch": 1,
      "note": 36,
      "vel": 75,
      "dur": 25
    },
    {
      "t": 1292.3,
      "ch": 1,
      "note": 38,
      "vel": 78,
      "dur": 25
    },
    {
      "t": 1292.3,
      "ch": 1,
      "note": 40,
      "vel": 66,
      "dur": 25
    },
    {
      "t": 1292.4,
      "ch": 5,
      "note": 55,
      "vel": 29,
      "dur": 929
    },
    {
      "t": 1292.4,
      "ch": 1,
      "note": 42,
      "vel": 74,
      "dur": 25
    },
    {
      "t": 1292.5,
      "ch": 0,
      "note": 36,
      "vel": 121,
      "dur": 55
    },
    {
      "t": 1292.5,
      "ch": 1,
      "note": 36,
      "vel": 79,
      "dur": 25
    },
    {
      "t": 1292.5,
      "ch": 7,
      "note": 48,
      "vel": 68,
      "dur": 80
    },
    {
      "t": 1292.5,
      "ch": 7,
      "note": 45,
      "vel": 70,
      "dur": 80
    },
    {
      "t": 1292.5,
      "ch": 7,
      "note": 36,
      "vel": 86,
      "dur": 80
    },
    {
      "t": 1292.5,
      "ch": 7,
      "note": 38,
      "vel": 85,
      "dur": 80
    },
    {
      "t": 1292.6,
      "ch": 1,
      "note": 38,
      "vel": 60,
      "dur": 25
    },
    {
      "t": 1292.7,
      "ch": 1,
      "note": 40,
      "vel": 58,
      "dur": 25
    },
    {
      "t": 1292.8,
      "ch": 1,
      "note": 42,
      "vel": 83,
      "dur": 25
    },
    {
      "t": 1292.8,
      "ch": 6,
      "note": 57,
      "vel": 9,
      "dur": 400
    },
    {
      "t": 1292.8,
      "ch": 1,
      "note": 36,
      "vel": 70,
      "dur": 25
    },
    {
      "t": 1292.8,
      "ch": 7,
      "note": 36,
      "vel": 66,
      "dur": 80
    },
    {
      "t": 1292.9,
      "ch": 1,
      "note": 38,
      "vel": 61,
      "dur": 25
    },
    {
      "t": 1293,
      "ch": 1,
      "note": 40,
      "vel": 80,
      "dur": 25
    },
    {
      "t": 1293.1,
      "ch": 1,
      "note": 42,
      "vel": 78,
      "dur": 25
    },
    {
      "t": 1293.2,
      "ch": 1,
      "note": 36,
      "vel": 87,
      "dur": 25
    },
    {
      "t": 1293.2,
      "ch": 7,
      "note": 48,
      "vel": 69,
      "dur": 80
    },
    {
      "t": 1293.2,
      "ch": 7,
      "note": 36,
      "vel": 66,
      "dur": 80
    },
    {
      "t": 1293.3,
      "ch": 1,
      "note": 38,
      "vel": 77,
      "dur": 25
    },
    {
      "t": 1293.3,
      "ch": 1,
      "note": 40,
      "vel": 51,
      "dur": 25
    },
    {
      "t": 1293.3,
      "ch": 7,
      "note": 45,
      "vel": 74,
      "dur": 80
    },
    {
      "t": 1293.3,
      "ch": 7,
      "note": 38,
      "vel": 68,
      "dur": 80
    },
    {
      "t": 1293.4,
      "ch": 1,
      "note": 42,
      "vel": 97,
      "dur": 25
    },
    {
      "t": 1293.5,
      "ch": 1,
      "note": 36,
      "vel": 47,
      "dur": 25
    },
    {
      "t": 1293.6,
      "ch": 1,
      "note": 38,
      "vel": 90,
      "dur": 25
    },
    {
      "t": 1293.7,
      "ch": 1,
      "note": 40,
      "vel": 77,
      "dur": 25
    },
    {
      "t": 1293.7,
      "ch": 0,
      "note": 36,
      "vel": 82,
      "dur": 55
    },
    {
      "t": 1293.7,
      "ch": 1,
      "note": 42,
      "vel": 88,
      "dur": 25
    },
    {
      "t": 1293.8,
      "ch": 1,
      "note": 36,
      "vel": 73,
      "dur": 25
    },
    {
      "t": 1293.8,
      "ch": 7,
      "note": 48,
      "vel": 85,
      "dur": 80
    },
    {
      "t": 1293.8,
      "ch": 7,
      "note": 36,
      "vel": 65,
      "dur": 80
    },
    {
      "t": 1293.9,
      "ch": 1,
      "note": 38,
      "vel": 66,
      "dur": 25
    },
    {
      "t": 1294,
      "ch": 1,
      "note": 40,
      "vel": 61,
      "dur": 25
    },
    {
      "t": 1294.1,
      "ch": 1,
      "note": 42,
      "vel": 57,
      "dur": 25
    },
    {
      "t": 1294.1,
      "ch": 1,
      "note": 36,
      "vel": 59,
      "dur": 25
    },
    {
      "t": 1294.1,
      "ch": 7,
      "note": 45,
      "vel": 53,
      "dur": 80
    },
    {
      "t": 1294.1,
      "ch": 7,
      "note": 36,
      "vel": 60,
      "dur": 80
    },
    {
      "t": 1294.1,
      "ch": 7,
      "note": 38,
      "vel": 59,
      "dur": 80
    },
    {
      "t": 1294.1,
      "ch": 5,
      "note": 57,
      "vel": 18,
      "dur": 920
    },
    {
      "t": 1294.2,
      "ch": 1,
      "note": 38,
      "vel": 91,
      "dur": 25
    },
    {
      "t": 1294.3,
      "ch": 1,
      "note": 40,
      "vel": 66,
      "dur": 25
    },
    {
      "t": 1294.4,
      "ch": 1,
      "note": 42,
      "vel": 69,
      "dur": 25
    },
    {
      "t": 1294.5,
      "ch": 0,
      "note": 36,
      "vel": 87,
      "dur": 55
    },
    {
      "t": 1294.5,
      "ch": 1,
      "note": 36,
      "vel": 81,
      "dur": 25
    },
    {
      "t": 1294.5,
      "ch": 7,
      "note": 48,
      "vel": 76,
      "dur": 80
    },
    {
      "t": 1294.5,
      "ch": 7,
      "note": 36,
      "vel": 76,
      "dur": 80
    },
    {
      "t": 1294.6,
      "ch": 1,
      "note": 38,
      "vel": 80,
      "dur": 25
    },
    {
      "t": 1294.6,
      "ch": 1,
      "note": 40,
      "vel": 79,
      "dur": 25
    },
    {
      "t": 1294.7,
      "ch": 1,
      "note": 42,
      "vel": 82,
      "dur": 25
    },
    {
      "t": 1294.8,
      "ch": 1,
      "note": 36,
      "vel": 59,
      "dur": 25
    },
    {
      "t": 1294.9,
      "ch": 1,
      "note": 38,
      "vel": 85,
      "dur": 25
    },
    {
      "t": 1295,
      "ch": 1,
      "note": 40,
      "vel": 79,
      "dur": 25
    },
    {
      "t": 1295,
      "ch": 1,
      "note": 42,
      "vel": 69,
      "dur": 25
    },
    {
      "t": 1295.1,
      "ch": 7,
      "note": 48,
      "vel": 66,
      "dur": 80
    },
    {
      "t": 1295.1,
      "ch": 7,
      "note": 45,
      "vel": 80,
      "dur": 80
    },
    {
      "t": 1295.1,
      "ch": 7,
      "note": 36,
      "vel": 66,
      "dur": 80
    },
    {
      "t": 1295.1,
      "ch": 7,
      "note": 38,
      "vel": 69,
      "dur": 80
    },
    {
      "t": 1295.3,
      "ch": 5,
      "note": 62,
      "vel": 36,
      "dur": 913
    },
    {
      "t": 1295.4,
      "ch": 7,
      "note": 36,
      "vel": 56,
      "dur": 80
    },
    {
      "t": 1295.8,
      "ch": 7,
      "note": 48,
      "vel": 66,
      "dur": 80
    },
    {
      "t": 1295.8,
      "ch": 7,
      "note": 36,
      "vel": 54,
      "dur": 80
    },
    {
      "t": 1296,
      "ch": 7,
      "note": 45,
      "vel": 57,
      "dur": 80
    },
    {
      "t": 1296,
      "ch": 7,
      "note": 38,
      "vel": 64,
      "dur": 80
    },
    {
      "t": 1296.3,
      "ch": 4,
      "note": 57,
      "vel": 50,
      "dur": 2558
    },
    {
      "t": 1296.3,
      "ch": 4,
      "note": 52,
      "vel": 51,
      "dur": 2558
    },
    {
      "t": 1296.4,
      "ch": 7,
      "note": 48,
      "vel": 77,
      "dur": 80
    },
    {
      "t": 1296.4,
      "ch": 7,
      "note": 36,
      "vel": 69,
      "dur": 80
    },
    {
      "t": 1296.8,
      "ch": 7,
      "note": 45,
      "vel": 65,
      "dur": 80
    },
    {
      "t": 1296.8,
      "ch": 7,
      "note": 36,
      "vel": 66,
      "dur": 80
    },
    {
      "t": 1296.8,
      "ch": 7,
      "note": 38,
      "vel": 64,
      "dur": 80
    },
    {
      "t": 1297.1,
      "ch": 7,
      "note": 48,
      "vel": 72,
      "dur": 80
    },
    {
      "t": 1297.1,
      "ch": 7,
      "note": 36,
      "vel": 67,
      "dur": 80
    },
    {
      "t": 1297.1,
      "ch": 5,
      "note": 55,
      "vel": 49,
      "dur": 902
    },
    {
      "t": 1297.3,
      "ch": 6,
      "note": 65,
      "vel": 17,
      "dur": 601
    },
    {
      "t": 1297.4,
      "ch": 6,
      "note": 59,
      "vel": 37,
      "dur": 400
    },
    {
      "t": 1297.6,
      "ch": 6,
      "note": 55,
      "vel": 37,
      "dur": 600
    },
    {
      "t": 1297.7,
      "ch": 5,
      "note": 50,
      "vel": 65,
      "dur": 800
    },
    {
      "t": 1297.7,
      "ch": 7,
      "note": 48,
      "vel": 69,
      "dur": 80
    },
    {
      "t": 1297.7,
      "ch": 7,
      "note": 45,
      "vel": 70,
      "dur": 80
    },
    {
      "t": 1297.7,
      "ch": 7,
      "note": 36,
      "vel": 73,
      "dur": 80
    },
    {
      "t": 1297.7,
      "ch": 7,
      "note": 38,
      "vel": 80,
      "dur": 80
    },
    {
      "t": 1298.1,
      "ch": 7,
      "note": 36,
      "vel": 55,
      "dur": 80
    },
    {
      "t": 1298.1,
      "ch": 5,
      "note": 55,
      "vel": 11,
      "dur": 897
    },
    {
      "t": 1298.4,
      "ch": 7,
      "note": 48,
      "vel": 84,
      "dur": 80
    },
    {
      "t": 1298.4,
      "ch": 7,
      "note": 36,
      "vel": 78,
      "dur": 80
    },
    {
      "t": 1298.6,
      "ch": 7,
      "note": 45,
      "vel": 56,
      "dur": 80
    },
    {
      "t": 1298.6,
      "ch": 7,
      "note": 38,
      "vel": 67,
      "dur": 80
    },
    {
      "t": 1298.9,
      "ch": 5,
      "note": 57,
      "vel": 17,
      "dur": 894
    },
    {
      "t": 1299,
      "ch": 5,
      "note": 50,
      "vel": 65,
      "dur": 800
    },
    {
      "t": 1299,
      "ch": 2,
      "note": 55,
      "vel": 0,
      "dur": 0
    },
    {
      "t": 1299,
      "ch": 4,
      "note": 57,
      "vel": 53,
      "dur": 2558
    },
    {
      "t": 1299,
      "ch": 4,
      "note": 60,
      "vel": 51,
      "dur": 2558
    },
    {
      "t": 1299,
      "ch": 7,
      "note": 48,
      "vel": 68,
      "dur": 80
    },
    {
      "t": 1299,
      "ch": 7,
      "note": 36,
      "vel": 72,
      "dur": 80
    },
    {
      "t": 1299.2,
      "ch": 6,
      "note": 64,
      "vel": 24,
      "dur": 400
    },
    {
      "t": 1299.4,
      "ch": 7,
      "note": 36,
      "vel": 61,
      "dur": 80
    },
    {
      "t": 1299.4,
      "ch": 7,
      "note": 38,
      "vel": 63,
      "dur": 80
    },
    {
      "t": 1299.4,
      "ch": 7,
      "note": 45,
      "vel": 60,
      "dur": 80
    },
    {
      "t": 1299.7,
      "ch": 7,
      "note": 48,
      "vel": 76,
      "dur": 80
    },
    {
      "t": 1299.7,
      "ch": 7,
      "note": 36,
      "vel": 74,
      "dur": 80
    },
    {
      "t": 1300.3,
      "ch": 5,
      "note": 53,
      "vel": 65,
      "dur": 800
    },
    {
      "t": 1300.3,
      "ch": 7,
      "note": 48,
      "vel": 68,
      "dur": 80
    },
    {
      "t": 1300.3,
      "ch": 7,
      "note": 45,
      "vel": 80,
      "dur": 80
    },
    {
      "t": 1300.3,
      "ch": 7,
      "note": 36,
      "vel": 65,
      "dur": 80
    },
    {
      "t": 1300.3,
      "ch": 7,
      "note": 38,
      "vel": 74,
      "dur": 80
    },
    {
      "t": 1300.7,
      "ch": 7,
      "note": 36,
      "vel": 71,
      "dur": 80
    },
    {
      "t": 1301,
      "ch": 7,
      "note": 48,
      "vel": 81,
      "dur": 80
    },
    {
      "t": 1301,
      "ch": 7,
      "note": 36,
      "vel": 62,
      "dur": 80
    },
    {
      "t": 1301.2,
      "ch": 7,
      "note": 45,
      "vel": 51,
      "dur": 80
    },
    {
      "t": 1301.2,
      "ch": 7,
      "note": 38,
      "vel": 74,
      "dur": 80
    },
    {
      "t": 1301.6,
      "ch": 5,
      "note": 50,
      "vel": 65,
      "dur": 800
    },
    {
      "t": 1301.6,
      "ch": 4,
      "note": 57,
      "vel": 53,
      "dur": 2558
    },
    {
      "t": 1301.6,
      "ch": 4,
      "note": 52,
      "vel": 55,
      "dur": 2558
    },
    {
      "t": 1301.6,
      "ch": 7,
      "note": 48,
      "vel": 58,
      "dur": 80
    },
    {
      "t": 1301.6,
      "ch": 7,
      "note": 36,
      "vel": 68,
      "dur": 80
    },
    {
      "t": 1302,
      "ch": 7,
      "note": 45,
      "vel": 57,
      "dur": 80
    },
    {
      "t": 1302,
      "ch": 7,
      "note": 36,
      "vel": 55,
      "dur": 80
    },
    {
      "t": 1302,
      "ch": 7,
      "note": 38,
      "vel": 52,
      "dur": 80
    },
    {
      "t": 1302.3,
      "ch": 7,
      "note": 48,
      "vel": 71,
      "dur": 80
    },
    {
      "t": 1302.3,
      "ch": 7,
      "note": 36,
      "vel": 67,
      "dur": 80
    },
    {
      "t": 1302.3,
      "ch": 5,
      "note": 62,
      "vel": 24,
      "dur": 890
    },
    {
      "t": 1302.9,
      "ch": 5,
      "note": 59,
      "vel": 65,
      "dur": 800
    },
    {
      "t": 1302.9,
      "ch": 0,
      "note": 36,
      "vel": 127,
      "dur": 55
    },
    {
      "t": 1302.9,
      "ch": 7,
      "note": 48,
      "vel": 57,
      "dur": 80
    },
    {
      "t": 1302.9,
      "ch": 7,
      "note": 45,
      "vel": 76,
      "dur": 80
    },
    {
      "t": 1302.9,
      "ch": 7,
      "note": 36,
      "vel": 69,
      "dur": 80
    },
    {
      "t": 1302.9,
      "ch": 7,
      "note": 38,
      "vel": 70,
      "dur": 80
    },
    {
      "t": 1303.3,
      "ch": 7,
      "note": 36,
      "vel": 67,
      "dur": 80
    },
    {
      "t": 1303.4,
      "ch": 5,
      "note": 55,
      "vel": 28,
      "dur": 893
    },
    {
      "t": 1303.6,
      "ch": 7,
      "note": 48,
      "vel": 67,
      "dur": 80
    },
    {
      "t": 1303.6,
      "ch": 7,
      "note": 36,
      "vel": 75,
      "dur": 80
    },
    {
      "t": 1303.8,
      "ch": 7,
      "note": 45,
      "vel": 72,
      "dur": 80
    },
    {
      "t": 1303.8,
      "ch": 7,
      "note": 38,
      "vel": 60,
      "dur": 80
    },
    {
      "t": 1304.1,
      "ch": 0,
      "note": 36,
      "vel": 75,
      "dur": 55
    },
    {
      "t": 1304.2,
      "ch": 4,
      "note": 55,
      "vel": 54,
      "dur": 2558
    },
    {
      "t": 1304.2,
      "ch": 4,
      "note": 59,
      "vel": 69,
      "dur": 2558
    },
    {
      "t": 1304.2,
      "ch": 3,
      "note": 43,
      "vel": 55,
      "dur": 2608
    },
    {
      "t": 1304.3,
      "ch": 7,
      "note": 48,
      "vel": 61,
      "dur": 80
    },
    {
      "t": 1304.3,
      "ch": 7,
      "note": 36,
      "vel": 74,
      "dur": 80
    },
    {
      "t": 1304.6,
      "ch": 7,
      "note": 45,
      "vel": 67,
      "dur": 80
    },
    {
      "t": 1304.6,
      "ch": 7,
      "note": 36,
      "vel": 51,
      "dur": 80
    },
    {
      "t": 1304.6,
      "ch": 7,
      "note": 38,
      "vel": 65,
      "dur": 80
    },
    {
      "t": 1304.7,
      "ch": 6,
      "note": 60,
      "vel": 29,
      "dur": 599
    },
    {
      "t": 1304.9,
      "ch": 0,
      "note": 36,
      "vel": 93,
      "dur": 55
    },
    {
      "t": 1304.9,
      "ch": 7,
      "note": 48,
      "vel": 59,
      "dur": 80
    },
    {
      "t": 1304.9,
      "ch": 7,
      "note": 36,
      "vel": 77,
      "dur": 80
    },
    {
      "t": 1305.1,
      "ch": 5,
      "note": 55,
      "vel": 23,
      "dur": 901
    },
    {
      "t": 1305.6,
      "ch": 0,
      "note": 36,
      "vel": 114,
      "dur": 55
    },
    {
      "t": 1305.6,
      "ch": 7,
      "note": 48,
      "vel": 62,
      "dur": 80
    },
    {
      "t": 1305.6,
      "ch": 7,
      "note": 45,
      "vel": 61,
      "dur": 80
    },
    {
      "t": 1305.6,
      "ch": 7,
      "note": 36,
      "vel": 67,
      "dur": 80
    },
    {
      "t": 1305.6,
      "ch": 7,
      "note": 38,
      "vel": 69,
      "dur": 80
    },
    {
      "t": 1305.9,
      "ch": 7,
      "note": 36,
      "vel": 59,
      "dur": 80
    },
    {
      "t": 1305.9,
      "ch": 5,
      "note": 57,
      "vel": 37,
      "dur": 905
    },
    {
      "t": 1306.2,
      "ch": 7,
      "note": 48,
      "vel": 77,
      "dur": 80
    },
    {
      "t": 1306.2,
      "ch": 7,
      "note": 36,
      "vel": 68,
      "dur": 80
    },
    {
      "t": 1306.4,
      "ch": 7,
      "note": 45,
      "vel": 66,
      "dur": 80
    },
    {
      "t": 1306.4,
      "ch": 7,
      "note": 38,
      "vel": 59,
      "dur": 80
    },
    {
      "t": 1306.7,
      "ch": 0,
      "note": 36,
      "vel": 82,
      "dur": 55
    },
    {
      "t": 1306.8,
      "ch": 4,
      "note": 57,
      "vel": 50,
      "dur": 2558
    },
    {
      "t": 1306.8,
      "ch": 4,
      "note": 60,
      "vel": 51,
      "dur": 2558
    },
    {
      "t": 1306.8,
      "ch": 3,
      "note": 38,
      "vel": 52,
      "dur": 2608
    },
    {
      "t": 1306.9,
      "ch": 7,
      "note": 48,
      "vel": 79,
      "dur": 80
    },
    {
      "t": 1306.9,
      "ch": 7,
      "note": 36,
      "vel": 76,
      "dur": 80
    },
    {
      "t": 1307.2,
      "ch": 7,
      "note": 45,
      "vel": 61,
      "dur": 80
    },
    {
      "t": 1307.2,
      "ch": 7,
      "note": 36,
      "vel": 58,
      "dur": 80
    },
    {
      "t": 1307.2,
      "ch": 7,
      "note": 38,
      "vel": 60,
      "dur": 80
    },
    {
      "t": 1307.2,
      "ch": 5,
      "note": 50,
      "vel": 23,
      "dur": 913
    },
    {
      "t": 1307.5,
      "ch": 0,
      "note": 36,
      "vel": 99,
      "dur": 55
    },
    {
      "t": 1307.5,
      "ch": 7,
      "note": 48,
      "vel": 80,
      "dur": 80
    },
    {
      "t": 1307.5,
      "ch": 7,
      "note": 36,
      "vel": 65,
      "dur": 80
    },
    {
      "t": 1307.8,
      "ch": 5,
      "note": 52,
      "vel": 34,
      "dur": 917
    },
    {
      "t": 1308.2,
      "ch": 7,
      "note": 48,
      "vel": 73,
      "dur": 80
    },
    {
      "t": 1308.2,
      "ch": 7,
      "note": 45,
      "vel": 78,
      "dur": 80
    },
    {
      "t": 1308.2,
      "ch": 7,
      "note": 36,
      "vel": 72,
      "dur": 80
    },
    {
      "t": 1308.2,
      "ch": 7,
      "note": 38,
      "vel": 78,
      "dur": 80
    },
    {
      "t": 1308.5,
      "ch": 7,
      "note": 36,
      "vel": 60,
      "dur": 80
    },
    {
      "t": 1308.8,
      "ch": 7,
      "note": 48,
      "vel": 65,
      "dur": 80
    },
    {
      "t": 1308.8,
      "ch": 7,
      "note": 36,
      "vel": 68,
      "dur": 80
    },
    {
      "t": 1308.8,
      "ch": 5,
      "note": 55,
      "vel": 45,
      "dur": 923
    },
    {
      "t": 1308.8,
      "ch": 6,
      "note": 53,
      "vel": 33,
      "dur": 615
    },
    {
      "t": 1309,
      "ch": 7,
      "note": 45,
      "vel": 71,
      "dur": 80
    },
    {
      "t": 1309,
      "ch": 7,
      "note": 38,
      "vel": 72,
      "dur": 80
    },
    {
      "t": 1309.4,
      "ch": 2,
      "note": 55,
      "vel": 0,
      "dur": 0
    },
    {
      "t": 1309.4,
      "ch": 2,
      "note": 50,
      "vel": 57,
      "dur": 19565
    },
    {
      "t": 1309.4,
      "ch": 2,
      "note": 62,
      "vel": 40,
      "dur": 19565
    },
    {
      "t": 1309.4,
      "ch": 4,
      "note": 55,
      "vel": 48,
      "dur": 2558
    },
    {
      "t": 1309.4,
      "ch": 4,
      "note": 59,
      "vel": 61,
      "dur": 2558
    },
    {
      "t": 1309.4,
      "ch": 3,
      "note": 43,
      "vel": 50,
      "dur": 2608
    },
    {
      "t": 1309.5,
      "ch": 7,
      "note": 48,
      "vel": 63,
      "dur": 80
    },
    {
      "t": 1309.5,
      "ch": 7,
      "note": 36,
      "vel": 68,
      "dur": 80
    },
    {
      "t": 1309.5,
      "ch": 6,
      "note": 55,
      "vel": 21,
      "dur": 617
    },
    {
      "t": 1309.7,
      "ch": 6,
      "note": 57,
      "vel": 10,
      "dur": 618
    },
    {
      "t": 1309.8,
      "ch": 7,
      "note": 45,
      "vel": 60,
      "dur": 80
    },
    {
      "t": 1309.8,
      "ch": 7,
      "note": 36,
      "vel": 53,
      "dur": 80
    },
    {
      "t": 1309.8,
      "ch": 7,
      "note": 38,
      "vel": 61,
      "dur": 80
    },
    {
      "t": 1310.1,
      "ch": 7,
      "note": 48,
      "vel": 72,
      "dur": 80
    },
    {
      "t": 1310.1,
      "ch": 7,
      "note": 36,
      "vel": 70,
      "dur": 80
    },
    {
      "t": 1310.8,
      "ch": 0,
      "note": 36,
      "vel": 119,
      "dur": 55
    },
    {
      "t": 1310.8,
      "ch": 7,
      "note": 48,
      "vel": 71,
      "dur": 80
    },
    {
      "t": 1310.8,
      "ch": 7,
      "note": 45,
      "vel": 77,
      "dur": 80
    },
    {
      "t": 1310.8,
      "ch": 7,
      "note": 36,
      "vel": 69,
      "dur": 80
    },
    {
      "t": 1310.8,
      "ch": 7,
      "note": 38,
      "vel": 72,
      "dur": 80
    },
    {
      "t": 1311.1,
      "ch": 7,
      "note": 36,
      "vel": 62,
      "dur": 80
    },
    {
      "t": 1311.4,
      "ch": 7,
      "note": 48,
      "vel": 76,
      "dur": 80
    },
    {
      "t": 1311.4,
      "ch": 7,
      "note": 36,
      "vel": 73,
      "dur": 80
    },
    {
      "t": 1311.6,
      "ch": 7,
      "note": 45,
      "vel": 67,
      "dur": 80
    },
    {
      "t": 1311.6,
      "ch": 7,
      "note": 38,
      "vel": 55,
      "dur": 80
    },
    {
      "t": 1311.8,
      "ch": 0,
      "note": 36,
      "vel": 80,
      "dur": 55
    },
    {
      "t": 1312.1,
      "ch": 7,
      "note": 48,
      "vel": 71,
      "dur": 80
    },
    {
      "t": 1312.1,
      "ch": 7,
      "note": 36,
      "vel": 69,
      "dur": 80
    },
    {
      "t": 1312.4,
      "ch": 7,
      "note": 45,
      "vel": 49,
      "dur": 80
    },
    {
      "t": 1312.4,
      "ch": 7,
      "note": 36,
      "vel": 77,
      "dur": 80
    },
    {
      "t": 1312.4,
      "ch": 7,
      "note": 38,
      "vel": 69,
      "dur": 80
    },
    {
      "t": 1312.4,
      "ch": 5,
      "note": 60,
      "vel": 20,
      "dur": 934
    },
    {
      "t": 1312.7,
      "ch": 7,
      "note": 48,
      "vel": 64,
      "dur": 80
    },
    {
      "t": 1312.7,
      "ch": 7,
      "note": 36,
      "vel": 58,
      "dur": 80
    },
    {
      "t": 1313.1,
      "ch": 0,
      "note": 36,
      "vel": 75,
      "dur": 55
    },
    {
      "t": 1313.4,
      "ch": 0,
      "note": 36,
      "vel": 110,
      "dur": 55
    },
    {
      "t": 1313.4,
      "ch": 7,
      "note": 48,
      "vel": 60,
      "dur": 80
    },
    {
      "t": 1313.4,
      "ch": 7,
      "note": 45,
      "vel": 72,
      "dur": 80
    },
    {
      "t": 1313.4,
      "ch": 7,
      "note": 36,
      "vel": 67,
      "dur": 80
    },
    {
      "t": 1313.4,
      "ch": 7,
      "note": 38,
      "vel": 66,
      "dur": 80
    },
    {
      "t": 1313.6,
      "ch": 4,
      "note": 57,
      "vel": 47,
      "dur": 2558
    },
    {
      "t": 1313.6,
      "ch": 4,
      "note": 52,
      "vel": 47,
      "dur": 2558
    },
    {
      "t": 1313.6,
      "ch": 3,
      "note": 36,
      "vel": 49,
      "dur": 2608
    },
    {
      "t": 1313.7,
      "ch": 7,
      "note": 36,
      "vel": 71,
      "dur": 80
    },
    {
      "t": 1314,
      "ch": 7,
      "note": 48,
      "vel": 66,
      "dur": 80
    },
    {
      "t": 1314,
      "ch": 7,
      "note": 36,
      "vel": 73,
      "dur": 80
    },
    {
      "t": 1314.2,
      "ch": 7,
      "note": 45,
      "vel": 58,
      "dur": 80
    },
    {
      "t": 1314.2,
      "ch": 7,
      "note": 38,
      "vel": 57,
      "dur": 80
    },
    {
      "t": 1314.4,
      "ch": 0,
      "note": 36,
      "vel": 78,
      "dur": 55
    },
    {
      "t": 1314.4,
      "ch": 6,
      "note": 64,
      "vel": 24,
      "dur": 621
    },
    {
      "t": 1314.6,
      "ch": 4,
      "note": 55,
      "vel": 46,
      "dur": 2558
    },
    {
      "t": 1314.6,
      "ch": 4,
      "note": 59,
      "vel": 63,
      "dur": 2558
    },
    {
      "t": 1314.6,
      "ch": 3,
      "note": 43,
      "vel": 50,
      "dur": 2608
    },
    {
      "t": 1314.7,
      "ch": 7,
      "note": 48,
      "vel": 59,
      "dur": 80
    },
    {
      "t": 1314.7,
      "ch": 7,
      "note": 36,
      "vel": 72,
      "dur": 80
    },
    {
      "t": 1314.9,
      "ch": 5,
      "note": 50,
      "vel": 17,
      "dur": 930
    },
    {
      "t": 1315,
      "ch": 7,
      "note": 45,
      "vel": 61,
      "dur": 80
    },
    {
      "t": 1315,
      "ch": 7,
      "note": 36,
      "vel": 58,
      "dur": 80
    },
    {
      "t": 1315,
      "ch": 7,
      "note": 38,
      "vel": 74,
      "dur": 80
    },
    {
      "t": 1315.3,
      "ch": 7,
      "note": 48,
      "vel": 63,
      "dur": 80
    },
    {
      "t": 1315.3,
      "ch": 7,
      "note": 36,
      "vel": 60,
      "dur": 80
    },
    {
      "t": 1315.7,
      "ch": 0,
      "note": 36,
      "vel": 82,
      "dur": 55
    },
    {
      "t": 1316,
      "ch": 0,
      "note": 36,
      "vel": 111,
      "dur": 55
    },
    {
      "t": 1316,
      "ch": 7,
      "note": 48,
      "vel": 81,
      "dur": 80
    },
    {
      "t": 1316,
      "ch": 7,
      "note": 45,
      "vel": 70,
      "dur": 80
    },
    {
      "t": 1316,
      "ch": 7,
      "note": 36,
      "vel": 72,
      "dur": 80
    },
    {
      "t": 1316,
      "ch": 7,
      "note": 38,
      "vel": 71,
      "dur": 80
    },
    {
      "t": 1316.3,
      "ch": 7,
      "note": 36,
      "vel": 53,
      "dur": 80
    },
    {
      "t": 1316.6,
      "ch": 7,
      "note": 48,
      "vel": 75,
      "dur": 80
    },
    {
      "t": 1316.6,
      "ch": 7,
      "note": 36,
      "vel": 72,
      "dur": 80
    },
    {
      "t": 1316.7,
      "ch": 6,
      "note": 53,
      "vel": 18,
      "dur": 614
    },
    {
      "t": 1316.8,
      "ch": 7,
      "note": 45,
      "vel": 66,
      "dur": 80
    },
    {
      "t": 1316.8,
      "ch": 7,
      "note": 38,
      "vel": 57,
      "dur": 80
    },
    {
      "t": 1317,
      "ch": 0,
      "note": 36,
      "vel": 81,
      "dur": 55
    },
    {
      "t": 1317.2,
      "ch": 4,
      "note": 57,
      "vel": 51,
      "dur": 2558
    },
    {
      "t": 1317.2,
      "ch": 4,
      "note": 52,
      "vel": 50,
      "dur": 2558
    },
    {
      "t": 1317.2,
      "ch": 3,
      "note": 36,
      "vel": 52,
      "dur": 2608
    },
    {
      "t": 1317.3,
      "ch": 7,
      "note": 48,
      "vel": 76,
      "dur": 80
    },
    {
      "t": 1317.3,
      "ch": 7,
      "note": 36,
      "vel": 74,
      "dur": 80
    },
    {
      "t": 1317.5,
      "ch": 5,
      "note": 52,
      "vel": 16,
      "dur": 917
    },
    {
      "t": 1317.6,
      "ch": 7,
      "note": 45,
      "vel": 63,
      "dur": 80
    },
    {
      "t": 1317.6,
      "ch": 7,
      "note": 36,
      "vel": 57,
      "dur": 80
    },
    {
      "t": 1317.6,
      "ch": 7,
      "note": 38,
      "vel": 68,
      "dur": 80
    },
    {
      "t": 1317.9,
      "ch": 7,
      "note": 48,
      "vel": 85,
      "dur": 80
    },
    {
      "t": 1317.9,
      "ch": 7,
      "note": 36,
      "vel": 63,
      "dur": 80
    },
    {
      "t": 1318,
      "ch": 5,
      "note": 55,
      "vel": 45,
      "dur": 913
    },
    {
      "t": 1318.2,
      "ch": 6,
      "note": 59,
      "vel": 33,
      "dur": 400
    },
    {
      "t": 1318.3,
      "ch": 0,
      "note": 36,
      "vel": 83,
      "dur": 55
    },
    {
      "t": 1318.3,
      "ch": 5,
      "note": 60,
      "vel": 32,
      "dur": 911
    },
    {
      "t": 1318.4,
      "ch": 6,
      "note": 57,
      "vel": 30,
      "dur": 607
    },
    {
      "t": 1318.6,
      "ch": 0,
      "note": 36,
      "vel": 114,
      "dur": 55
    },
    {
      "t": 1318.6,
      "ch": 7,
      "note": 48,
      "vel": 62,
      "dur": 80
    },
    {
      "t": 1318.6,
      "ch": 7,
      "note": 45,
      "vel": 75,
      "dur": 80
    },
    {
      "t": 1318.6,
      "ch": 7,
      "note": 36,
      "vel": 67,
      "dur": 80
    },
    {
      "t": 1318.6,
      "ch": 7,
      "note": 38,
      "vel": 63,
      "dur": 80
    },
    {
      "t": 1318.9,
      "ch": 7,
      "note": 36,
      "vel": 66,
      "dur": 80
    },
    {
      "t": 1318.9,
      "ch": 5,
      "note": 50,
      "vel": 44,
      "dur": 907
    },
    {
      "t": 1319.1,
      "ch": 6,
      "note": 64,
      "vel": 33,
      "dur": 604
    },
    {
      "t": 1319.3,
      "ch": 7,
      "note": 48,
      "vel": 67,
      "dur": 80
    },
    {
      "t": 1319.3,
      "ch": 7,
      "note": 36,
      "vel": 66,
      "dur": 80
    },
    {
      "t": 1319.4,
      "ch": 7,
      "note": 45,
      "vel": 58,
      "dur": 80
    },
    {
      "t": 1319.4,
      "ch": 7,
      "note": 38,
      "vel": 65,
      "dur": 80
    },
    {
      "t": 1319.6,
      "ch": 0,
      "note": 36,
      "vel": 76,
      "dur": 55
    },
    {
      "t": 1319.8,
      "ch": 2,
      "note": 50,
      "vel": 0,
      "dur": 0
    },
    {
      "t": 1319.8,
      "ch": 2,
      "note": 62,
      "vel": 0,
      "dur": 0
    },
    {
      "t": 1319.8,
      "ch": 2,
      "note": 48,
      "vel": 57,
      "dur": 19565
    },
    {
      "t": 1319.8,
      "ch": 4,
      "note": 57,
      "vel": 52,
      "dur": 2558
    },
    {
      "t": 1319.8,
      "ch": 4,
      "note": 60,
      "vel": 54,
      "dur": 2558
    },
    {
      "t": 1319.8,
      "ch": 3,
      "note": 38,
      "vel": 54,
      "dur": 2608
    },
    {
      "t": 1319.9,
      "ch": 7,
      "note": 48,
      "vel": 80,
      "dur": 80
    },
    {
      "t": 1319.9,
      "ch": 7,
      "note": 36,
      "vel": 68,
      "dur": 80
    },
    {
      "t": 1320.2,
      "ch": 7,
      "note": 45,
      "vel": 63,
      "dur": 80
    },
    {
      "t": 1320.2,
      "ch": 7,
      "note": 36,
      "vel": 52,
      "dur": 80
    },
    {
      "t": 1320.2,
      "ch": 7,
      "note": 38,
      "vel": 81,
      "dur": 80
    },
    {
      "t": 1320.4,
      "ch": 5,
      "note": 52,
      "vel": 15,
      "dur": 898
    },
    {
      "t": 1320.6,
      "ch": 7,
      "note": 48,
      "vel": 79,
      "dur": 80
    },
    {
      "t": 1320.6,
      "ch": 7,
      "note": 36,
      "vel": 69,
      "dur": 80
    },
    {
      "t": 1320.7,
      "ch": 6,
      "note": 53,
      "vel": 34,
      "dur": 598
    },
    {
      "t": 1320.8,
      "ch": 6,
      "note": 55,
      "vel": 1,
      "dur": 400
    },
    {
      "t": 1320.9,
      "ch": 0,
      "note": 36,
      "vel": 79,
      "dur": 55
    },
    {
      "t": 1321.2,
      "ch": 0,
      "note": 36,
      "vel": 115,
      "dur": 55
    },
    {
      "t": 1321.2,
      "ch": 7,
      "note": 48,
      "vel": 69,
      "dur": 80
    },
    {
      "t": 1321.2,
      "ch": 7,
      "note": 45,
      "vel": 72,
      "dur": 80
    },
    {
      "t": 1321.2,
      "ch": 7,
      "note": 36,
      "vel": 61,
      "dur": 80
    },
    {
      "t": 1321.2,
      "ch": 7,
      "note": 38,
      "vel": 65,
      "dur": 80
    },
    {
      "t": 1321.2,
      "ch": 6,
      "note": 55,
      "vel": 21,
      "dur": 596
    },
    {
      "t": 1321.4,
      "ch": 6,
      "note": 50,
      "vel": 27,
      "dur": 596
    },
    {
      "t": 1321.5,
      "ch": 7,
      "note": 36,
      "vel": 59,
      "dur": 80
    },
    {
      "t": 1321.9,
      "ch": 7,
      "note": 48,
      "vel": 75,
      "dur": 80
    },
    {
      "t": 1321.9,
      "ch": 7,
      "note": 36,
      "vel": 73,
      "dur": 80
    },
    {
      "t": 1322,
      "ch": 7,
      "note": 45,
      "vel": 63,
      "dur": 80
    },
    {
      "t": 1322,
      "ch": 7,
      "note": 38,
      "vel": 65,
      "dur": 80
    },
    {
      "t": 1322.2,
      "ch": 0,
      "note": 36,
      "vel": 76,
      "dur": 55
    },
    {
      "t": 1322.4,
      "ch": 5,
      "note": 55,
      "vel": 30,
      "dur": 890
    },
    {
      "t": 1322.4,
      "ch": 4,
      "note": 57,
      "vel": 56,
      "dur": 2558
    },
    {
      "t": 1322.4,
      "ch": 4,
      "note": 52,
      "vel": 53,
      "dur": 2558
    },
    {
      "t": 1322.4,
      "ch": 3,
      "note": 36,
      "vel": 56,
      "dur": 2608
    },
    {
      "t": 1322.5,
      "ch": 7,
      "note": 48,
      "vel": 78,
      "dur": 80
    },
    {
      "t": 1322.5,
      "ch": 7,
      "note": 36,
      "vel": 71,
      "dur": 80
    },
    {
      "t": 1322.7,
      "ch": 6,
      "note": 59,
      "vel": 35,
      "dur": 400
    },
    {
      "t": 1322.8,
      "ch": 7,
      "note": 45,
      "vel": 66,
      "dur": 80
    },
    {
      "t": 1322.8,
      "ch": 7,
      "note": 36,
      "vel": 55,
      "dur": 80
    },
    {
      "t": 1322.8,
      "ch": 7,
      "note": 38,
      "vel": 63,
      "dur": 80
    },
    {
      "t": 1322.9,
      "ch": 5,
      "note": 60,
      "vel": 25,
      "dur": 888
    },
    {
      "t": 1323,
      "ch": 6,
      "note": 53,
      "vel": 4,
      "dur": 592
    },
    {
      "t": 1323.2,
      "ch": 7,
      "note": 48,
      "vel": 56,
      "dur": 80
    },
    {
      "t": 1323.2,
      "ch": 7,
      "note": 36,
      "vel": 81,
      "dur": 80
    },
    {
      "t": 1323.5,
      "ch": 0,
      "note": 36,
      "vel": 85,
      "dur": 55
    },
    {
      "t": 1323.8,
      "ch": 0,
      "note": 36,
      "vel": 113,
      "dur": 55
    },
    {
      "t": 1323.8,
      "ch": 7,
      "note": 48,
      "vel": 66,
      "dur": 80
    },
    {
      "t": 1323.8,
      "ch": 7,
      "note": 45,
      "vel": 76,
      "dur": 80
    },
    {
      "t": 1323.8,
      "ch": 7,
      "note": 36,
      "vel": 65,
      "dur": 80
    },
    {
      "t": 1323.8,
      "ch": 7,
      "note": 38,
      "vel": 67,
      "dur": 80
    },
    {
      "t": 1324.1,
      "ch": 7,
      "note": 36,
      "vel": 57,
      "dur": 80
    },
    {
      "t": 1324.2,
      "ch": 6,
      "note": 53,
      "vel": 27,
      "dur": 591
    },
    {
      "t": 1324.5,
      "ch": 7,
      "note": 48,
      "vel": 77,
      "dur": 80
    },
    {
      "t": 1324.5,
      "ch": 7,
      "note": 36,
      "vel": 64,
      "dur": 80
    },
    {
      "t": 1324.6,
      "ch": 7,
      "note": 45,
      "vel": 66,
      "dur": 80
    },
    {
      "t": 1324.6,
      "ch": 7,
      "note": 38,
      "vel": 60,
      "dur": 80
    },
    {
      "t": 1324.6,
      "ch": 5,
      "note": 50,
      "vel": 19,
      "dur": 887
    },
    {
      "t": 1324.8,
      "ch": 0,
      "note": 36,
      "vel": 77,
      "dur": 55
    },
    {
      "t": 1324.8,
      "ch": 5,
      "note": 52,
      "vel": 32,
      "dur": 887
    },
    {
      "t": 1325,
      "ch": 4,
      "note": 55,
      "vel": 56,
      "dur": 2558
    },
    {
      "t": 1325,
      "ch": 4,
      "note": 59,
      "vel": 70,
      "dur": 2558
    },
    {
      "t": 1325,
      "ch": 3,
      "note": 43,
      "vel": 57,
      "dur": 2608
    },
    {
      "t": 1325.1,
      "ch": 7,
      "note": 48,
      "vel": 69,
      "dur": 80
    },
    {
      "t": 1325.1,
      "ch": 7,
      "note": 36,
      "vel": 74,
      "dur": 80
    },
    {
      "t": 1325.4,
      "ch": 7,
      "note": 45,
      "vel": 56,
      "dur": 80
    },
    {
      "t": 1325.4,
      "ch": 7,
      "note": 36,
      "vel": 64,
      "dur": 80
    },
    {
      "t": 1325.4,
      "ch": 7,
      "note": 38,
      "vel": 62,
      "dur": 80
    },
    {
      "t": 1325.8,
      "ch": 7,
      "note": 48,
      "vel": 73,
      "dur": 80
    },
    {
      "t": 1325.8,
      "ch": 7,
      "note": 36,
      "vel": 70,
      "dur": 80
    },
    {
      "t": 1325.9,
      "ch": 5,
      "note": 55,
      "vel": 12,
      "dur": 889
    },
    {
      "t": 1326.1,
      "ch": 0,
      "note": 36,
      "vel": 74,
      "dur": 55
    },
    {
      "t": 1326.4,
      "ch": 0,
      "note": 36,
      "vel": 110,
      "dur": 55
    },
    {
      "t": 1326.4,
      "ch": 7,
      "note": 48,
      "vel": 58,
      "dur": 80
    },
    {
      "t": 1326.4,
      "ch": 7,
      "note": 45,
      "vel": 77,
      "dur": 80
    },
    {
      "t": 1326.4,
      "ch": 7,
      "note": 36,
      "vel": 83,
      "dur": 80
    },
    {
      "t": 1326.4,
      "ch": 7,
      "note": 38,
      "vel": 68,
      "dur": 80
    },
    {
      "t": 1326.7,
      "ch": 7,
      "note": 36,
      "vel": 62,
      "dur": 80
    },
    {
      "t": 1327.1,
      "ch": 7,
      "note": 48,
      "vel": 72,
      "dur": 80
    },
    {
      "t": 1327.1,
      "ch": 7,
      "note": 36,
      "vel": 70,
      "dur": 80
    },
    {
      "t": 1327.2,
      "ch": 7,
      "note": 45,
      "vel": 72,
      "dur": 80
    },
    {
      "t": 1327.2,
      "ch": 7,
      "note": 38,
      "vel": 69,
      "dur": 80
    },
    {
      "t": 1327.4,
      "ch": 0,
      "note": 36,
      "vel": 83,
      "dur": 55
    },
    {
      "t": 1327.7,
      "ch": 4,
      "note": 57,
      "vel": 54,
      "dur": 2558
    },
    {
      "t": 1327.7,
      "ch": 4,
      "note": 52,
      "vel": 55,
      "dur": 2558
    },
    {
      "t": 1327.7,
      "ch": 3,
      "note": 36,
      "vel": 55,
      "dur": 2608
    },
    {
      "t": 1327.7,
      "ch": 7,
      "note": 48,
      "vel": 77,
      "dur": 80
    },
    {
      "t": 1327.7,
      "ch": 7,
      "note": 36,
      "vel": 70,
      "dur": 80
    },
    {
      "t": 1327.9,
      "ch": 5,
      "note": 60,
      "vel": 29,
      "dur": 897
    },
    {
      "t": 1328.1,
      "ch": 7,
      "note": 45,
      "vel": 59,
      "dur": 80
    },
    {
      "t": 1328.1,
      "ch": 7,
      "note": 36,
      "vel": 72,
      "dur": 80
    },
    {
      "t": 1328.1,
      "ch": 7,
      "note": 38,
      "vel": 62,
      "dur": 80
    },
    {
      "t": 1328.1,
      "ch": 6,
      "note": 67,
      "vel": 5,
      "dur": 400
    },
    {
      "t": 1328.4,
      "ch": 7,
      "note": 48,
      "vel": 68,
      "dur": 80
    },
    {
      "t": 1328.4,
      "ch": 7,
      "note": 36,
      "vel": 80,
      "dur": 80
    },
    {
      "t": 1328.7,
      "ch": 0,
      "note": 36,
      "vel": 78,
      "dur": 55
    },
    {
      "t": 1329,
      "ch": 0,
      "note": 36,
      "vel": 109,
      "dur": 55
    },
    {
      "t": 1329,
      "ch": 7,
      "note": 48,
      "vel": 75,
      "dur": 80
    },
    {
      "t": 1329,
      "ch": 7,
      "note": 45,
      "vel": 79,
      "dur": 80
    },
    {
      "t": 1329,
      "ch": 7,
      "note": 36,
      "vel": 65,
      "dur": 80
    },
    {
      "t": 1329,
      "ch": 7,
      "note": 38,
      "vel": 59,
      "dur": 80
    },
    {
      "t": 1329,
      "ch": 5,
      "note": 50,
      "vel": 43,
      "dur": 903
    },
    {
      "t": 1329.4,
      "ch": 7,
      "note": 36,
      "vel": 66,
      "dur": 80
    },
    {
      "t": 1329.7,
      "ch": 7,
      "note": 48,
      "vel": 71,
      "dur": 80
    },
    {
      "t": 1329.7,
      "ch": 7,
      "note": 36,
      "vel": 69,
      "dur": 80
    },
    {
      "t": 1329.9,
      "ch": 7,
      "note": 45,
      "vel": 57,
      "dur": 80
    },
    {
      "t": 1329.9,
      "ch": 7,
      "note": 38,
      "vel": 58,
      "dur": 80
    },
    {
      "t": 1330,
      "ch": 0,
      "note": 36,
      "vel": 77,
      "dur": 55
    },
    {
      "t": 1330.3,
      "ch": 2,
      "note": 48,
      "vel": 57,
      "dur": 19565
    },
    {
      "t": 1330.3,
      "ch": 2,
      "note": 60,
      "vel": 40,
      "dur": 19565
    },
    {
      "t": 1330.3,
      "ch": 4,
      "note": 55,
      "vel": 52,
      "dur": 2558
    },
    {
      "t": 1330.3,
      "ch": 4,
      "note": 59,
      "vel": 66,
      "dur": 2558
    },
    {
      "t": 1330.3,
      "ch": 3,
      "note": 43,
      "vel": 53,
      "dur": 2608
    },
    {
      "t": 1330.3,
      "ch": 7,
      "note": 48,
      "vel": 64,
      "dur": 80
    },
    {
      "t": 1330.3,
      "ch": 7,
      "note": 36,
      "vel": 74,
      "dur": 80
    },
    {
      "t": 1330.5,
      "ch": 5,
      "note": 52,
      "vel": 40,
      "dur": 911
    },
    {
      "t": 1330.7,
      "ch": 7,
      "note": 45,
      "vel": 59,
      "dur": 80
    },
    {
      "t": 1330.7,
      "ch": 7,
      "note": 36,
      "vel": 68,
      "dur": 80
    },
    {
      "t": 1330.7,
      "ch": 7,
      "note": 38,
      "vel": 68,
      "dur": 80
    },
    {
      "t": 1330.8,
      "ch": 6,
      "note": 55,
      "vel": 6,
      "dur": 400
    },
    {
      "t": 1331,
      "ch": 7,
      "note": 48,
      "vel": 70,
      "dur": 80
    },
    {
      "t": 1331,
      "ch": 7,
      "note": 36,
      "vel": 69,
      "dur": 80
    },
    {
      "t": 1331.3,
      "ch": 0,
      "note": 36,
      "vel": 85,
      "dur": 55
    },
    {
      "t": 1331.6,
      "ch": 0,
      "note": 36,
      "vel": 115,
      "dur": 55
    },
    {
      "t": 1331.6,
      "ch": 7,
      "note": 48,
      "vel": 67,
      "dur": 80
    },
    {
      "t": 1331.6,
      "ch": 7,
      "note": 45,
      "vel": 65,
      "dur": 80
    },
    {
      "t": 1331.6,
      "ch": 7,
      "note": 36,
      "vel": 69,
      "dur": 80
    },
    {
      "t": 1331.6,
      "ch": 7,
      "note": 38,
      "vel": 70,
      "dur": 80
    },
    {
      "t": 1332,
      "ch": 7,
      "note": 36,
      "vel": 62,
      "dur": 80
    },
    {
      "t": 1332.3,
      "ch": 7,
      "note": 48,
      "vel": 71,
      "dur": 80
    },
    {
      "t": 1332.3,
      "ch": 7,
      "note": 36,
      "vel": 70,
      "dur": 80
    },
    {
      "t": 1332.5,
      "ch": 7,
      "note": 45,
      "vel": 54,
      "dur": 80
    },
    {
      "t": 1332.5,
      "ch": 7,
      "note": 38,
      "vel": 61,
      "dur": 80
    },
    {
      "t": 1332.6,
      "ch": 5,
      "note": 55,
      "vel": 26,
      "dur": 923
    },
    {
      "t": 1332.8,
      "ch": 0,
      "note": 36,
      "vel": 78,
      "dur": 55
    },
    {
      "t": 1332.9,
      "ch": 4,
      "note": 57,
      "vel": 49,
      "dur": 2558
    },
    {
      "t": 1332.9,
      "ch": 4,
      "note": 52,
      "vel": 47,
      "dur": 2558
    },
    {
      "t": 1332.9,
      "ch": 3,
      "note": 36,
      "vel": 51,
      "dur": 2608
    },
    {
      "t": 1332.9,
      "ch": 7,
      "note": 48,
      "vel": 73,
      "dur": 80
    },
    {
      "t": 1332.9,
      "ch": 7,
      "note": 36,
      "vel": 71,
      "dur": 80
    },
    {
      "t": 1333,
      "ch": 6,
      "note": 57,
      "vel": 17,
      "dur": 400
    },
    {
      "t": 1333.3,
      "ch": 7,
      "note": 45,
      "vel": 74,
      "dur": 80
    },
    {
      "t": 1333.3,
      "ch": 7,
      "note": 36,
      "vel": 58,
      "dur": 80
    },
    {
      "t": 1333.3,
      "ch": 7,
      "note": 38,
      "vel": 60,
      "dur": 80
    },
    {
      "t": 1333.6,
      "ch": 0,
      "note": 36,
      "vel": 97,
      "dur": 55
    },
    {
      "t": 1333.6,
      "ch": 7,
      "note": 48,
      "vel": 63,
      "dur": 80
    },
    {
      "t": 1333.6,
      "ch": 7,
      "note": 36,
      "vel": 83,
      "dur": 80
    },
    {
      "t": 1334.2,
      "ch": 0,
      "note": 36,
      "vel": 109,
      "dur": 55
    },
    {
      "t": 1334.2,
      "ch": 7,
      "note": 48,
      "vel": 67,
      "dur": 80
    },
    {
      "t": 1334.2,
      "ch": 7,
      "note": 45,
      "vel": 70,
      "dur": 80
    },
    {
      "t": 1334.2,
      "ch": 7,
      "note": 36,
      "vel": 72,
      "dur": 80
    },
    {
      "t": 1334.2,
      "ch": 7,
      "note": 38,
      "vel": 75,
      "dur": 80
    },
    {
      "t": 1334.3,
      "ch": 6,
      "note": 59,
      "vel": 39,
      "dur": 619
    },
    {
      "t": 1334.6,
      "ch": 7,
      "note": 36,
      "vel": 63,
      "dur": 80
    },
    {
      "t": 1334.9,
      "ch": 7,
      "note": 48,
      "vel": 63,
      "dur": 80
    },
    {
      "t": 1334.9,
      "ch": 7,
      "note": 36,
      "vel": 75,
      "dur": 80
    },
    {
      "t": 1334.9,
      "ch": 6,
      "note": 59,
      "vel": 30,
      "dur": 619
    },
    {
      "t": 1335.1,
      "ch": 7,
      "note": 45,
      "vel": 55,
      "dur": 80
    },
    {
      "t": 1335.1,
      "ch": 7,
      "note": 38,
      "vel": 55,
      "dur": 80
    },
    {
      "t": 1335.2,
      "ch": 5,
      "note": 60,
      "vel": 18,
      "dur": 929
    },
    {
      "t": 1335.4,
      "ch": 0,
      "note": 36,
      "vel": 80,
      "dur": 55
    },
    {
      "t": 1335.4,
      "ch": 6,
      "note": 62,
      "vel": 28,
      "dur": 619
    },
    {
      "t": 1335.5,
      "ch": 4,
      "note": 55,
      "vel": 50,
      "dur": 2558
    },
    {
      "t": 1335.5,
      "ch": 4,
      "note": 59,
      "vel": 62,
      "dur": 2558
    },
    {
      "t": 1335.5,
      "ch": 3,
      "note": 43,
      "vel": 50,
      "dur": 2608
    },
    {
      "t": 1335.6,
      "ch": 7,
      "note": 48,
      "vel": 77,
      "dur": 80
    },
    {
      "t": 1335.6,
      "ch": 7,
      "note": 36,
      "vel": 63,
      "dur": 80
    },
    {
      "t": 1335.9,
      "ch": 7,
      "note": 45,
      "vel": 67,
      "dur": 80
    },
    {
      "t": 1335.9,
      "ch": 7,
      "note": 36,
      "vel": 62,
      "dur": 80
    },
    {
      "t": 1335.9,
      "ch": 7,
      "note": 38,
      "vel": 48,
      "dur": 80
    },
    {
      "t": 1336.2,
      "ch": 0,
      "note": 36,
      "vel": 96,
      "dur": 55
    },
    {
      "t": 1336.2,
      "ch": 7,
      "note": 48,
      "vel": 74,
      "dur": 80
    },
    {
      "t": 1336.2,
      "ch": 7,
      "note": 36,
      "vel": 74,
      "dur": 80
    },
    {
      "t": 1336.9,
      "ch": 0,
      "note": 36,
      "vel": 115,
      "dur": 55
    },
    {
      "t": 1336.9,
      "ch": 7,
      "note": 48,
      "vel": 64,
      "dur": 80
    },
    {
      "t": 1336.9,
      "ch": 7,
      "note": 45,
      "vel": 79,
      "dur": 80
    },
    {
      "t": 1336.9,
      "ch": 7,
      "note": 36,
      "vel": 67,
      "dur": 80
    },
    {
      "t": 1336.9,
      "ch": 7,
      "note": 38,
      "vel": 62,
      "dur": 80
    },
    {
      "t": 1337,
      "ch": 5,
      "note": 62,
      "vel": 15,
      "dur": 927
    },
    {
      "t": 1337.2,
      "ch": 7,
      "note": 36,
      "vel": 66,
      "dur": 80
    },
    {
      "t": 1337.5,
      "ch": 7,
      "note": 48,
      "vel": 77,
      "dur": 80
    },
    {
      "t": 1337.5,
      "ch": 7,
      "note": 36,
      "vel": 70,
      "dur": 80
    },
    {
      "t": 1337.5,
      "ch": 6,
      "note": 65,
      "vel": 12,
      "dur": 400
    },
    {
      "t": 1337.7,
      "ch": 7,
      "note": 45,
      "vel": 66,
      "dur": 80
    },
    {
      "t": 1337.7,
      "ch": 7,
      "note": 38,
      "vel": 60,
      "dur": 80
    },
    {
      "t": 1337.7,
      "ch": 5,
      "note": 64,
      "vel": 19,
      "dur": 925
    },
    {
      "t": 1338,
      "ch": 0,
      "note": 36,
      "vel": 78,
      "dur": 55
    },
    {
      "t": 1338.1,
      "ch": 6,
      "note": 67,
      "vel": 15,
      "dur": 400
    },
    {
      "t": 1338.1,
      "ch": 4,
      "note": 57,
      "vel": 50,
      "dur": 2558
    },
    {
      "t": 1338.1,
      "ch": 4,
      "note": 60,
      "vel": 48,
      "dur": 2558
    },
    {
      "t": 1338.1,
      "ch": 3,
      "note": 38,
      "vel": 52,
      "dur": 2608
    },
    {
      "t": 1338.2,
      "ch": 7,
      "note": 48,
      "vel": 79,
      "dur": 80
    },
    {
      "t": 1338.2,
      "ch": 7,
      "note": 36,
      "vel": 66,
      "dur": 80
    },
    {
      "t": 1338.3,
      "ch": 6,
      "note": 50,
      "vel": 16,
      "dur": 615
    },
    {
      "t": 1338.5,
      "ch": 7,
      "note": 45,
      "vel": 64,
      "dur": 80
    },
    {
      "t": 1338.5,
      "ch": 7,
      "note": 36,
      "vel": 65,
      "dur": 80
    },
    {
      "t": 1338.5,
      "ch": 7,
      "note": 38,
      "vel": 67,
      "dur": 80
    },
    {
      "t": 1338.5,
      "ch": 5,
      "note": 64,
      "vel": 26,
      "dur": 922
    },
    {
      "t": 1338.8,
      "ch": 6,
      "note": 69,
      "vel": 10,
      "dur": 400
    },
    {
      "t": 1338.8,
      "ch": 0,
      "note": 36,
      "vel": 97,
      "dur": 55
    },
    {
      "t": 1338.8,
      "ch": 7,
      "note": 48,
      "vel": 61,
      "dur": 80
    },
    {
      "t": 1338.8,
      "ch": 7,
      "note": 36,
      "vel": 79,
      "dur": 80
    },
    {
      "t": 1339.5,
      "ch": 0,
      "note": 36,
      "vel": 115,
      "dur": 55
    },
    {
      "t": 1339.5,
      "ch": 7,
      "note": 48,
      "vel": 73,
      "dur": 80
    },
    {
      "t": 1339.5,
      "ch": 7,
      "note": 45,
      "vel": 59,
      "dur": 80
    },
    {
      "t": 1339.5,
      "ch": 7,
      "note": 36,
      "vel": 88,
      "dur": 80
    },
    {
      "t": 1339.5,
      "ch": 7,
      "note": 38,
      "vel": 66,
      "dur": 80
    },
    {
      "t": 1339.6,
      "ch": 5,
      "note": 60,
      "vel": 44,
      "dur": 916
    },
    {
      "t": 1339.8,
      "ch": 7,
      "note": 36,
      "vel": 53,
      "dur": 80
    },
    {
      "t": 1340,
      "ch": 6,
      "note": 69,
      "vel": 18,
      "dur": 609
    },
    {
      "t": 1340.1,
      "ch": 7,
      "note": 48,
      "vel": 79,
      "dur": 80
    },
    {
      "t": 1340.1,
      "ch": 7,
      "note": 36,
      "vel": 59,
      "dur": 80
    },
    {
      "t": 1340.3,
      "ch": 7,
      "note": 45,
      "vel": 60,
      "dur": 80
    },
    {
      "t": 1340.3,
      "ch": 7,
      "note": 38,
      "vel": 60,
      "dur": 80
    },
    {
      "t": 1340.6,
      "ch": 0,
      "note": 36,
      "vel": 86,
      "dur": 55
    },
    {
      "t": 1340.7,
      "ch": 2,
      "note": 48,
      "vel": 0,
      "dur": 0
    },
    {
      "t": 1340.7,
      "ch": 2,
      "note": 60,
      "vel": 0,
      "dur": 0
    },
    {
      "t": 1340.7,
      "ch": 4,
      "note": 57,
      "vel": 50,
      "dur": 2558
    },
    {
      "t": 1340.7,
      "ch": 4,
      "note": 60,
      "vel": 53,
      "dur": 2558
    },
    {
      "t": 1340.7,
      "ch": 3,
      "note": 38,
      "vel": 54,
      "dur": 2608
    },
    {
      "t": 1340.8,
      "ch": 7,
      "note": 48,
      "vel": 81,
      "dur": 80
    },
    {
      "t": 1340.8,
      "ch": 7,
      "note": 36,
      "vel": 63,
      "dur": 80
    },
    {
      "t": 1341.1,
      "ch": 7,
      "note": 45,
      "vel": 62,
      "dur": 80
    },
    {
      "t": 1341.1,
      "ch": 7,
      "note": 36,
      "vel": 68,
      "dur": 80
    },
    {
      "t": 1341.1,
      "ch": 7,
      "note": 38,
      "vel": 61,
      "dur": 80
    },
    {
      "t": 1341.4,
      "ch": 0,
      "note": 36,
      "vel": 91,
      "dur": 55
    },
    {
      "t": 1341.4,
      "ch": 7,
      "note": 48,
      "vel": 75,
      "dur": 80
    },
    {
      "t": 1341.4,
      "ch": 7,
      "note": 36,
      "vel": 73,
      "dur": 80
    },
    {
      "t": 1342.1,
      "ch": 0,
      "note": 36,
      "vel": 121,
      "dur": 55
    },
    {
      "t": 1342.1,
      "ch": 1,
      "note": 36,
      "vel": 64,
      "dur": 25
    },
    {
      "t": 1342.1,
      "ch": 1,
      "note": 38,
      "vel": 82,
      "dur": 25
    },
    {
      "t": 1342.1,
      "ch": 1,
      "note": 40,
      "vel": 72,
      "dur": 25
    },
    {
      "t": 1342.1,
      "ch": 1,
      "note": 42,
      "vel": 64,
      "dur": 25
    },
    {
      "t": 1342.1,
      "ch": 1,
      "note": 36,
      "vel": 67,
      "dur": 25
    },
    {
      "t": 1342.1,
      "ch": 1,
      "note": 38,
      "vel": 69,
      "dur": 25
    },
    {
      "t": 1342.1,
      "ch": 1,
      "note": 40,
      "vel": 65,
      "dur": 25
    },
    {
      "t": 1342.1,
      "ch": 1,
      "note": 42,
      "vel": 76,
      "dur": 25
    },
    {
      "t": 1342.1,
      "ch": 1,
      "note": 36,
      "vel": 84,
      "dur": 25
    },
    {
      "t": 1342.1,
      "ch": 1,
      "note": 38,
      "vel": 93,
      "dur": 25
    },
    {
      "t": 1342.1,
      "ch": 1,
      "note": 40,
      "vel": 111,
      "dur": 25
    },
    {
      "t": 1342.1,
      "ch": 1,
      "note": 42,
      "vel": 96,
      "dur": 25
    },
    {
      "t": 1342.1,
      "ch": 1,
      "note": 36,
      "vel": 66,
      "dur": 25
    },
    {
      "t": 1342.1,
      "ch": 1,
      "note": 38,
      "vel": 78,
      "dur": 25
    },
    {
      "t": 1342.1,
      "ch": 1,
      "note": 40,
      "vel": 76,
      "dur": 25
    },
    {
      "t": 1342.1,
      "ch": 1,
      "note": 42,
      "vel": 89,
      "dur": 25
    },
    {
      "t": 1342.1,
      "ch": 1,
      "note": 36,
      "vel": 61,
      "dur": 25
    },
    {
      "t": 1342.1,
      "ch": 1,
      "note": 38,
      "vel": 75,
      "dur": 25
    },
    {
      "t": 1342.1,
      "ch": 1,
      "note": 40,
      "vel": 101,
      "dur": 25
    },
    {
      "t": 1342.1,
      "ch": 1,
      "note": 42,
      "vel": 62,
      "dur": 25
    },
    {
      "t": 1342.1,
      "ch": 1,
      "note": 36,
      "vel": 99,
      "dur": 25
    },
    {
      "t": 1342.1,
      "ch": 1,
      "note": 38,
      "vel": 86,
      "dur": 25
    },
    {
      "t": 1342.1,
      "ch": 1,
      "note": 40,
      "vel": 63,
      "dur": 25
    },
    {
      "t": 1342.1,
      "ch": 1,
      "note": 42,
      "vel": 90,
      "dur": 25
    },
    {
      "t": 1342.1,
      "ch": 1,
      "note": 36,
      "vel": 81,
      "dur": 25
    },
    {
      "t": 1342.1,
      "ch": 1,
      "note": 38,
      "vel": 89,
      "dur": 25
    },
    {
      "t": 1342.1,
      "ch": 1,
      "note": 40,
      "vel": 66,
      "dur": 25
    },
    {
      "t": 1342.1,
      "ch": 1,
      "note": 42,
      "vel": 94,
      "dur": 25
    },
    {
      "t": 1342.1,
      "ch": 1,
      "note": 36,
      "vel": 75,
      "dur": 25
    },
    {
      "t": 1342.1,
      "ch": 1,
      "note": 38,
      "vel": 70,
      "dur": 25
    },
    {
      "t": 1342.1,
      "ch": 1,
      "note": 40,
      "vel": 103,
      "dur": 25
    },
    {
      "t": 1342.1,
      "ch": 1,
      "note": 42,
      "vel": 108,
      "dur": 25
    },
    {
      "t": 1342.1,
      "ch": 1,
      "note": 36,
      "vel": 87,
      "dur": 25
    },
    {
      "t": 1342.1,
      "ch": 1,
      "note": 38,
      "vel": 98,
      "dur": 25
    },
    {
      "t": 1342.1,
      "ch": 1,
      "note": 40,
      "vel": 93,
      "dur": 25
    },
    {
      "t": 1342.1,
      "ch": 1,
      "note": 42,
      "vel": 81,
      "dur": 25
    },
    {
      "t": 1342.1,
      "ch": 1,
      "note": 36,
      "vel": 97,
      "dur": 25
    },
    {
      "t": 1342.1,
      "ch": 1,
      "note": 38,
      "vel": 89,
      "dur": 25
    },
    {
      "t": 1342.1,
      "ch": 1,
      "note": 40,
      "vel": 81,
      "dur": 25
    },
    {
      "t": 1342.1,
      "ch": 1,
      "note": 42,
      "vel": 74,
      "dur": 25
    },
    {
      "t": 1342.1,
      "ch": 1,
      "note": 36,
      "vel": 86,
      "dur": 25
    },
    {
      "t": 1342.1,
      "ch": 1,
      "note": 38,
      "vel": 95,
      "dur": 25
    },
    {
      "t": 1342.1,
      "ch": 1,
      "note": 40,
      "vel": 95,
      "dur": 25
    },
    {
      "t": 1342.1,
      "ch": 1,
      "note": 42,
      "vel": 99,
      "dur": 25
    },
    {
      "t": 1342.1,
      "ch": 1,
      "note": 36,
      "vel": 76,
      "dur": 25
    },
    {
      "t": 1342.1,
      "ch": 1,
      "note": 38,
      "vel": 64,
      "dur": 25
    },
    {
      "t": 1342.1,
      "ch": 1,
      "note": 40,
      "vel": 67,
      "dur": 25
    },
    {
      "t": 1342.1,
      "ch": 1,
      "note": 42,
      "vel": 92,
      "dur": 25
    },
    {
      "t": 1342.1,
      "ch": 1,
      "note": 36,
      "vel": 104,
      "dur": 25
    },
    {
      "t": 1342.1,
      "ch": 1,
      "note": 38,
      "vel": 90,
      "dur": 25
    },
    {
      "t": 1342.1,
      "ch": 1,
      "note": 40,
      "vel": 69,
      "dur": 25
    },
    {
      "t": 1342.1,
      "ch": 1,
      "note": 42,
      "vel": 79,
      "dur": 25
    },
    {
      "t": 1342.1,
      "ch": 1,
      "note": 36,
      "vel": 86,
      "dur": 25
    },
    {
      "t": 1342.1,
      "ch": 1,
      "note": 38,
      "vel": 78,
      "dur": 25
    },
    {
      "t": 1342.1,
      "ch": 1,
      "note": 40,
      "vel": 95,
      "dur": 25
    },
    {
      "t": 1342.1,
      "ch": 1,
      "note": 42,
      "vel": 62,
      "dur": 25
    },
    {
      "t": 1342.1,
      "ch": 1,
      "note": 36,
      "vel": 88,
      "dur": 25
    },
    {
      "t": 1342.1,
      "ch": 1,
      "note": 38,
      "vel": 79,
      "dur": 25
    },
    {
      "t": 1342.1,
      "ch": 1,
      "note": 40,
      "vel": 98,
      "dur": 25
    },
    {
      "t": 1342.1,
      "ch": 1,
      "note": 42,
      "vel": 117,
      "dur": 25
    },
    {
      "t": 1342.1,
      "ch": 1,
      "note": 36,
      "vel": 60,
      "dur": 25
    },
    {
      "t": 1342.1,
      "ch": 1,
      "note": 38,
      "vel": 82,
      "dur": 25
    },
    {
      "t": 1342.1,
      "ch": 1,
      "note": 40,
      "vel": 81,
      "dur": 25
    },
    {
      "t": 1342.1,
      "ch": 1,
      "note": 42,
      "vel": 90,
      "dur": 25
    },
    {
      "t": 1342.1,
      "ch": 1,
      "note": 36,
      "vel": 60,
      "dur": 25
    },
    {
      "t": 1342.1,
      "ch": 1,
      "note": 38,
      "vel": 72,
      "dur": 25
    },
    {
      "t": 1342.1,
      "ch": 1,
      "note": 40,
      "vel": 100,
      "dur": 25
    },
    {
      "t": 1342.1,
      "ch": 1,
      "note": 42,
      "vel": 81,
      "dur": 25
    },
    {
      "t": 1342.1,
      "ch": 1,
      "note": 36,
      "vel": 77,
      "dur": 25
    },
    {
      "t": 1342.1,
      "ch": 1,
      "note": 38,
      "vel": 105,
      "dur": 25
    },
    {
      "t": 1342.1,
      "ch": 1,
      "note": 40,
      "vel": 91,
      "dur": 25
    },
    {
      "t": 1342.1,
      "ch": 1,
      "note": 42,
      "vel": 98,
      "dur": 25
    },
    {
      "t": 1342.1,
      "ch": 1,
      "note": 36,
      "vel": 98,
      "dur": 25
    },
    {
      "t": 1342.1,
      "ch": 1,
      "note": 38,
      "vel": 67,
      "dur": 25
    },
    {
      "t": 1342.1,
      "ch": 1,
      "note": 40,
      "vel": 101,
      "dur": 25
    },
    {
      "t": 1342.1,
      "ch": 1,
      "note": 42,
      "vel": 69,
      "dur": 25
    },
    {
      "t": 1342.1,
      "ch": 1,
      "note": 36,
      "vel": 99,
      "dur": 25
    },
    {
      "t": 1342.1,
      "ch": 1,
      "note": 38,
      "vel": 85,
      "dur": 25
    },
    {
      "t": 1342.1,
      "ch": 1,
      "note": 40,
      "vel": 73,
      "dur": 25
    },
    {
      "t": 1342.1,
      "ch": 1,
      "note": 42,
      "vel": 94,
      "dur": 25
    },
    {
      "t": 1342.1,
      "ch": 1,
      "note": 36,
      "vel": 83,
      "dur": 25
    },
    {
      "t": 1342.1,
      "ch": 1,
      "note": 38,
      "vel": 66,
      "dur": 25
    },
    {
      "t": 1342.1,
      "ch": 1,
      "note": 40,
      "vel": 77,
      "dur": 25
    },
    {
      "t": 1342.1,
      "ch": 1,
      "note": 42,
      "vel": 85,
      "dur": 25
    },
    {
      "t": 1342.1,
      "ch": 1,
      "note": 36,
      "vel": 72,
      "dur": 25
    },
    {
      "t": 1342.1,
      "ch": 1,
      "note": 38,
      "vel": 77,
      "dur": 25
    },
    {
      "t": 1342.1,
      "ch": 1,
      "note": 40,
      "vel": 91,
      "dur": 25
    },
    {
      "t": 1342.1,
      "ch": 1,
      "note": 42,
      "vel": 85,
      "dur": 25
    },
    {
      "t": 1342.1,
      "ch": 1,
      "note": 36,
      "vel": 80,
      "dur": 25
    },
    {
      "t": 1342.1,
      "ch": 1,
      "note": 38,
      "vel": 97,
      "dur": 25
    },
    {
      "t": 1342.1,
      "ch": 1,
      "note": 40,
      "vel": 107,
      "dur": 25
    },
    {
      "t": 1342.1,
      "ch": 1,
      "note": 42,
      "vel": 109,
      "dur": 25
    },
    {
      "t": 1342.1,
      "ch": 1,
      "note": 36,
      "vel": 93,
      "dur": 25
    },
    {
      "t": 1342.1,
      "ch": 1,
      "note": 38,
      "vel": 107,
      "dur": 25
    },
    {
      "t": 1342.1,
      "ch": 1,
      "note": 40,
      "vel": 74,
      "dur": 25
    },
    {
      "t": 1342.1,
      "ch": 1,
      "note": 42,
      "vel": 102,
      "dur": 25
    },
    {
      "t": 1342.1,
      "ch": 1,
      "note": 36,
      "vel": 79,
      "dur": 25
    },
    {
      "t": 1342.1,
      "ch": 1,
      "note": 38,
      "vel": 70,
      "dur": 25
    },
    {
      "t": 1342.1,
      "ch": 1,
      "note": 40,
      "vel": 76,
      "dur": 25
    },
    {
      "t": 1342.1,
      "ch": 1,
      "note": 42,
      "vel": 92,
      "dur": 25
    },
    {
      "t": 1342.1,
      "ch": 1,
      "note": 36,
      "vel": 89,
      "dur": 25
    },
    {
      "t": 1342.1,
      "ch": 1,
      "note": 38,
      "vel": 89,
      "dur": 25
    },
    {
      "t": 1342.1,
      "ch": 1,
      "note": 40,
      "vel": 102,
      "dur": 25
    },
    {
      "t": 1342.1,
      "ch": 1,
      "note": 42,
      "vel": 73,
      "dur": 25
    },
    {
      "t": 1342.1,
      "ch": 1,
      "note": 36,
      "vel": 101,
      "dur": 25
    },
    {
      "t": 1342.1,
      "ch": 1,
      "note": 38,
      "vel": 104,
      "dur": 25
    },
    {
      "t": 1342.1,
      "ch": 1,
      "note": 40,
      "vel": 97,
      "dur": 25
    },
    {
      "t": 1342.1,
      "ch": 1,
      "note": 42,
      "vel": 85,
      "dur": 25
    },
    {
      "t": 1342.1,
      "ch": 1,
      "note": 36,
      "vel": 83,
      "dur": 25
    },
    {
      "t": 1342.1,
      "ch": 1,
      "note": 38,
      "vel": 81,
      "dur": 25
    },
    {
      "t": 1342.1,
      "ch": 1,
      "note": 40,
      "vel": 79,
      "dur": 25
    },
    {
      "t": 1342.1,
      "ch": 1,
      "note": 42,
      "vel": 79,
      "dur": 25
    },
    {
      "t": 1342.1,
      "ch": 1,
      "note": 36,
      "vel": 98,
      "dur": 25
    },
    {
      "t": 1342.1,
      "ch": 1,
      "note": 38,
      "vel": 77,
      "dur": 25
    },
    {
      "t": 1342.1,
      "ch": 1,
      "note": 40,
      "vel": 87,
      "dur": 25
    },
    {
      "t": 1342.1,
      "ch": 1,
      "note": 42,
      "vel": 102,
      "dur": 25
    },
    {
      "t": 1342.1,
      "ch": 1,
      "note": 36,
      "vel": 88,
      "dur": 25
    },
    {
      "t": 1342.1,
      "ch": 1,
      "note": 38,
      "vel": 106,
      "dur": 25
    },
    {
      "t": 1342.1,
      "ch": 1,
      "note": 40,
      "vel": 66,
      "dur": 25
    },
    {
      "t": 1342.1,
      "ch": 1,
      "note": 42,
      "vel": 79,
      "dur": 25
    },
    {
      "t": 1342.1,
      "ch": 1,
      "note": 36,
      "vel": 81,
      "dur": 25
    },
    {
      "t": 1342.1,
      "ch": 1,
      "note": 38,
      "vel": 98,
      "dur": 25
    },
    {
      "t": 1342.1,
      "ch": 1,
      "note": 40,
      "vel": 111,
      "dur": 25
    },
    {
      "t": 1342.1,
      "ch": 1,
      "note": 42,
      "vel": 98,
      "dur": 25
    },
    {
      "t": 1342.1,
      "ch": 1,
      "note": 36,
      "vel": 97,
      "dur": 25
    },
    {
      "t": 1342.1,
      "ch": 1,
      "note": 38,
      "vel": 68,
      "dur": 25
    },
    {
      "t": 1342.1,
      "ch": 1,
      "note": 40,
      "vel": 58,
      "dur": 25
    },
    {
      "t": 1342.1,
      "ch": 1,
      "note": 42,
      "vel": 111,
      "dur": 25
    },
    {
      "t": 1342.1,
      "ch": 1,
      "note": 36,
      "vel": 96,
      "dur": 25
    },
    {
      "t": 1342.1,
      "ch": 1,
      "note": 38,
      "vel": 103,
      "dur": 25
    },
    {
      "t": 1342.1,
      "ch": 1,
      "note": 40,
      "vel": 59,
      "dur": 25
    },
    {
      "t": 1342.1,
      "ch": 1,
      "note": 42,
      "vel": 60,
      "dur": 25
    },
    {
      "t": 1342.1,
      "ch": 1,
      "note": 36,
      "vel": 75,
      "dur": 25
    },
    {
      "t": 1342.1,
      "ch": 1,
      "note": 38,
      "vel": 104,
      "dur": 25
    },
    {
      "t": 1342.1,
      "ch": 1,
      "note": 40,
      "vel": 94,
      "dur": 25
    },
    {
      "t": 1342.1,
      "ch": 1,
      "note": 42,
      "vel": 103,
      "dur": 25
    },
    {
      "t": 1342.1,
      "ch": 1,
      "note": 36,
      "vel": 87,
      "dur": 25
    },
    {
      "t": 1342.1,
      "ch": 1,
      "note": 38,
      "vel": 79,
      "dur": 25
    },
    {
      "t": 1342.1,
      "ch": 1,
      "note": 40,
      "vel": 85,
      "dur": 25
    },
    {
      "t": 1342.1,
      "ch": 1,
      "note": 42,
      "vel": 78,
      "dur": 25
    },
    {
      "t": 1342.1,
      "ch": 1,
      "note": 36,
      "vel": 89,
      "dur": 25
    },
    {
      "t": 1342.1,
      "ch": 1,
      "note": 38,
      "vel": 92,
      "dur": 25
    },
    {
      "t": 1342.1,
      "ch": 1,
      "note": 40,
      "vel": 67,
      "dur": 25
    },
    {
      "t": 1342.1,
      "ch": 1,
      "note": 42,
      "vel": 92,
      "dur": 25
    },
    {
      "t": 1342.1,
      "ch": 1,
      "note": 36,
      "vel": 102,
      "dur": 25
    },
    {
      "t": 1342.1,
      "ch": 1,
      "note": 38,
      "vel": 81,
      "dur": 25
    },
    {
      "t": 1342.1,
      "ch": 1,
      "note": 40,
      "vel": 91,
      "dur": 25
    },
    {
      "t": 1342.1,
      "ch": 1,
      "note": 42,
      "vel": 93,
      "dur": 25
    },
    {
      "t": 1342.1,
      "ch": 1,
      "note": 36,
      "vel": 86,
      "dur": 25
    },
    {
      "t": 1342.1,
      "ch": 1,
      "note": 38,
      "vel": 66,
      "dur": 25
    },
    {
      "t": 1342.1,
      "ch": 1,
      "note": 40,
      "vel": 92,
      "dur": 25
    },
    {
      "t": 1342.1,
      "ch": 1,
      "note": 42,
      "vel": 84,
      "dur": 25
    },
    {
      "t": 1342.1,
      "ch": 1,
      "note": 36,
      "vel": 75,
      "dur": 25
    },
    {
      "t": 1342.1,
      "ch": 1,
      "note": 38,
      "vel": 99,
      "dur": 25
    },
    {
      "t": 1342.1,
      "ch": 1,
      "note": 40,
      "vel": 75,
      "dur": 25
    },
    {
      "t": 1342.1,
      "ch": 1,
      "note": 42,
      "vel": 74,
      "dur": 25
    },
    {
      "t": 1342.1,
      "ch": 1,
      "note": 36,
      "vel": 97,
      "dur": 25
    },
    {
      "t": 1342.1,
      "ch": 1,
      "note": 38,
      "vel": 85,
      "dur": 25
    },
    {
      "t": 1342.1,
      "ch": 1,
      "note": 40,
      "vel": 92,
      "dur": 25
    },
    {
      "t": 1342.1,
      "ch": 1,
      "note": 42,
      "vel": 91,
      "dur": 25
    },
    {
      "t": 1342.1,
      "ch": 1,
      "note": 36,
      "vel": 79,
      "dur": 25
    },
    {
      "t": 1342.1,
      "ch": 1,
      "note": 38,
      "vel": 98,
      "dur": 25
    },
    {
      "t": 1342.1,
      "ch": 1,
      "note": 40,
      "vel": 72,
      "dur": 25
    },
    {
      "t": 1342.1,
      "ch": 1,
      "note": 42,
      "vel": 72,
      "dur": 25
    },
    {
      "t": 1342.1,
      "ch": 1,
      "note": 36,
      "vel": 80,
      "dur": 25
    },
    {
      "t": 1342.1,
      "ch": 1,
      "note": 38,
      "vel": 100,
      "dur": 25
    },
    {
      "t": 1342.1,
      "ch": 1,
      "note": 40,
      "vel": 94,
      "dur": 25
    },
    {
      "t": 1342.1,
      "ch": 1,
      "note": 42,
      "vel": 109,
      "dur": 25
    },
    {
      "t": 1342.1,
      "ch": 1,
      "note": 36,
      "vel": 85,
      "dur": 25
    },
    {
      "t": 1342.1,
      "ch": 1,
      "note": 38,
      "vel": 93,
      "dur": 25
    },
    {
      "t": 1342.1,
      "ch": 1,
      "note": 40,
      "vel": 95,
      "dur": 25
    },
    {
      "t": 1342.1,
      "ch": 1,
      "note": 42,
      "vel": 66,
      "dur": 25
    },
    {
      "t": 1342.1,
      "ch": 1,
      "note": 36,
      "vel": 89,
      "dur": 25
    },
    {
      "t": 1342.1,
      "ch": 1,
      "note": 38,
      "vel": 64,
      "dur": 25
    },
    {
      "t": 1342.1,
      "ch": 1,
      "note": 40,
      "vel": 84,
      "dur": 25
    },
    {
      "t": 1342.1,
      "ch": 1,
      "note": 42,
      "vel": 93,
      "dur": 25
    },
    {
      "t": 1342.1,
      "ch": 1,
      "note": 36,
      "vel": 89,
      "dur": 25
    },
    {
      "t": 1342.1,
      "ch": 1,
      "note": 38,
      "vel": 64,
      "dur": 25
    },
    {
      "t": 1342.1,
      "ch": 1,
      "note": 40,
      "vel": 70,
      "dur": 25
    },
    {
      "t": 1342.1,
      "ch": 1,
      "note": 42,
      "vel": 101,
      "dur": 25
    },
    {
      "t": 1342.1,
      "ch": 1,
      "note": 36,
      "vel": 92,
      "dur": 25
    },
    {
      "t": 1342.1,
      "ch": 1,
      "note": 38,
      "vel": 78,
      "dur": 25
    },
    {
      "t": 1342.1,
      "ch": 1,
      "note": 40,
      "vel": 77,
      "dur": 25
    },
    {
      "t": 1342.1,
      "ch": 1,
      "note": 42,
      "vel": 75,
      "dur": 25
    },
    {
      "t": 1342.1,
      "ch": 1,
      "note": 36,
      "vel": 74,
      "dur": 25
    },
    {
      "t": 1342.1,
      "ch": 1,
      "note": 38,
      "vel": 79,
      "dur": 25
    },
    {
      "t": 1342.1,
      "ch": 1,
      "note": 40,
      "vel": 102,
      "dur": 25
    },
    {
      "t": 1342.1,
      "ch": 1,
      "note": 42,
      "vel": 74,
      "dur": 25
    },
    {
      "t": 1342.1,
      "ch": 1,
      "note": 36,
      "vel": 63,
      "dur": 25
    },
    {
      "t": 1342.1,
      "ch": 1,
      "note": 38,
      "vel": 85,
      "dur": 25
    },
    {
      "t": 1342.1,
      "ch": 1,
      "note": 40,
      "vel": 108,
      "dur": 25
    },
    {
      "t": 1342.1,
      "ch": 1,
      "note": 42,
      "vel": 87,
      "dur": 25
    },
    {
      "t": 1342.1,
      "ch": 1,
      "note": 36,
      "vel": 79,
      "dur": 25
    },
    {
      "t": 1342.1,
      "ch": 1,
      "note": 38,
      "vel": 92,
      "dur": 25
    },
    {
      "t": 1342.1,
      "ch": 1,
      "note": 40,
      "vel": 85,
      "dur": 25
    },
    {
      "t": 1342.1,
      "ch": 1,
      "note": 42,
      "vel": 101,
      "dur": 25
    },
    {
      "t": 1342.1,
      "ch": 1,
      "note": 36,
      "vel": 102,
      "dur": 25
    },
    {
      "t": 1342.1,
      "ch": 1,
      "note": 38,
      "vel": 99,
      "dur": 25
    },
    {
      "t": 1342.1,
      "ch": 1,
      "note": 40,
      "vel": 69,
      "dur": 25
    },
    {
      "t": 1342.1,
      "ch": 1,
      "note": 42,
      "vel": 90,
      "dur": 25
    },
    {
      "t": 1342.1,
      "ch": 1,
      "note": 36,
      "vel": 103,
      "dur": 25
    },
    {
      "t": 1342.1,
      "ch": 1,
      "note": 38,
      "vel": 78,
      "dur": 25
    },
    {
      "t": 1342.1,
      "ch": 1,
      "note": 40,
      "vel": 89,
      "dur": 25
    },
    {
      "t": 1342.1,
      "ch": 1,
      "note": 42,
      "vel": 93,
      "dur": 25
    },
    {
      "t": 1342.1,
      "ch": 1,
      "note": 36,
      "vel": 77,
      "dur": 25
    },
    {
      "t": 1342.1,
      "ch": 1,
      "note": 38,
      "vel": 70,
      "dur": 25
    },
    {
      "t": 1342.1,
      "ch": 1,
      "note": 40,
      "vel": 75,
      "dur": 25
    },
    {
      "t": 1342.1,
      "ch": 1,
      "note": 42,
      "vel": 94,
      "dur": 25
    },
    {
      "t": 1342.1,
      "ch": 1,
      "note": 36,
      "vel": 102,
      "dur": 25
    },
    {
      "t": 1342.1,
      "ch": 1,
      "note": 38,
      "vel": 65,
      "dur": 25
    },
    {
      "t": 1342.1,
      "ch": 1,
      "note": 40,
      "vel": 97,
      "dur": 25
    },
    {
      "t": 1342.1,
      "ch": 1,
      "note": 42,
      "vel": 58,
      "dur": 25
    },
    {
      "t": 1342.1,
      "ch": 1,
      "note": 36,
      "vel": 66,
      "dur": 25
    },
    {
      "t": 1342.1,
      "ch": 1,
      "note": 38,
      "vel": 82,
      "dur": 25
    },
    {
      "t": 1342.1,
      "ch": 1,
      "note": 40,
      "vel": 78,
      "dur": 25
    },
    {
      "t": 1342.1,
      "ch": 1,
      "note": 42,
      "vel": 67,
      "dur": 25
    },
    {
      "t": 1342.1,
      "ch": 1,
      "note": 36,
      "vel": 72,
      "dur": 25
    },
    {
      "t": 1342.1,
      "ch": 1,
      "note": 38,
      "vel": 96,
      "dur": 25
    },
    {
      "t": 1342.1,
      "ch": 1,
      "note": 40,
      "vel": 108,
      "dur": 25
    },
    {
      "t": 1342.1,
      "ch": 1,
      "note": 42,
      "vel": 92,
      "dur": 25
    },
    {
      "t": 1342.1,
      "ch": 1,
      "note": 36,
      "vel": 92,
      "dur": 25
    },
    {
      "t": 1342.1,
      "ch": 1,
      "note": 38,
      "vel": 102,
      "dur": 25
    },
    {
      "t": 1342.1,
      "ch": 1,
      "note": 40,
      "vel": 85,
      "dur": 25
    },
    {
      "t": 1342.1,
      "ch": 1,
      "note": 42,
      "vel": 87,
      "dur": 25
    },
    {
      "t": 1342.1,
      "ch": 1,
      "note": 36,
      "vel": 72,
      "dur": 25
    },
    {
      "t": 1342.1,
      "ch": 1,
      "note": 38,
      "vel": 104,
      "dur": 25
    },
    {
      "t": 1342.1,
      "ch": 1,
      "note": 40,
      "vel": 88,
      "dur": 25
    },
    {
      "t": 1342.1,
      "ch": 1,
      "note": 42,
      "vel": 74,
      "dur": 25
    },
    {
      "t": 1342.1,
      "ch": 1,
      "note": 36,
      "vel": 92,
      "dur": 25
    },
    {
      "t": 1342.1,
      "ch": 1,
      "note": 38,
      "vel": 90,
      "dur": 25
    },
    {
      "t": 1342.1,
      "ch": 1,
      "note": 40,
      "vel": 71,
      "dur": 25
    },
    {
      "t": 1342.1,
      "ch": 1,
      "note": 42,
      "vel": 83,
      "dur": 25
    },
    {
      "t": 1342.1,
      "ch": 1,
      "note": 36,
      "vel": 100,
      "dur": 25
    },
    {
      "t": 1342.1,
      "ch": 1,
      "note": 38,
      "vel": 90,
      "dur": 25
    },
    {
      "t": 1342.1,
      "ch": 1,
      "note": 40,
      "vel": 73,
      "dur": 25
    },
    {
      "t": 1342.1,
      "ch": 1,
      "note": 42,
      "vel": 91,
      "dur": 25
    },
    {
      "t": 1342.1,
      "ch": 1,
      "note": 36,
      "vel": 86,
      "dur": 25
    },
    {
      "t": 1342.1,
      "ch": 1,
      "note": 38,
      "vel": 90,
      "dur": 25
    },
    {
      "t": 1342.1,
      "ch": 1,
      "note": 40,
      "vel": 82,
      "dur": 25
    },
    {
      "t": 1342.1,
      "ch": 1,
      "note": 42,
      "vel": 98,
      "dur": 25
    },
    {
      "t": 1342.1,
      "ch": 1,
      "note": 36,
      "vel": 100,
      "dur": 25
    },
    {
      "t": 1342.1,
      "ch": 1,
      "note": 38,
      "vel": 54,
      "dur": 25
    },
    {
      "t": 1342.1,
      "ch": 1,
      "note": 40,
      "vel": 86,
      "dur": 25
    },
    {
      "t": 1342.1,
      "ch": 1,
      "note": 42,
      "vel": 73,
      "dur": 25
    },
    {
      "t": 1342.1,
      "ch": 1,
      "note": 36,
      "vel": 92,
      "dur": 25
    },
    {
      "t": 1342.1,
      "ch": 1,
      "note": 38,
      "vel": 111,
      "dur": 25
    },
    {
      "t": 1342.1,
      "ch": 1,
      "note": 40,
      "vel": 79,
      "dur": 25
    },
    {
      "t": 1342.1,
      "ch": 1,
      "note": 42,
      "vel": 91,
      "dur": 25
    },
    {
      "t": 1342.1,
      "ch": 1,
      "note": 36,
      "vel": 88,
      "dur": 25
    },
    {
      "t": 1342.1,
      "ch": 1,
      "note": 38,
      "vel": 78,
      "dur": 25
    },
    {
      "t": 1342.1,
      "ch": 1,
      "note": 40,
      "vel": 64,
      "dur": 25
    },
    {
      "t": 1342.1,
      "ch": 1,
      "note": 42,
      "vel": 72,
      "dur": 25
    },
    {
      "t": 1342.1,
      "ch": 1,
      "note": 36,
      "vel": 110,
      "dur": 25
    },
    {
      "t": 1342.1,
      "ch": 1,
      "note": 38,
      "vel": 81,
      "dur": 25
    },
    {
      "t": 1342.1,
      "ch": 1,
      "note": 40,
      "vel": 64,
      "dur": 25
    },
    {
      "t": 1342.1,
      "ch": 1,
      "note": 42,
      "vel": 64,
      "dur": 25
    },
    {
      "t": 1342.1,
      "ch": 1,
      "note": 36,
      "vel": 87,
      "dur": 25
    },
    {
      "t": 1342.1,
      "ch": 1,
      "note": 38,
      "vel": 101,
      "dur": 25
    },
    {
      "t": 1342.1,
      "ch": 1,
      "note": 40,
      "vel": 66,
      "dur": 25
    },
    {
      "t": 1342.1,
      "ch": 1,
      "note": 42,
      "vel": 86,
      "dur": 25
    },
    {
      "t": 1342.1,
      "ch": 1,
      "note": 36,
      "vel": 62,
      "dur": 25
    },
    {
      "t": 1342.1,
      "ch": 1,
      "note": 38,
      "vel": 93,
      "dur": 25
    },
    {
      "t": 1342.1,
      "ch": 1,
      "note": 40,
      "vel": 74,
      "dur": 25
    },
    {
      "t": 1342.1,
      "ch": 1,
      "note": 42,
      "vel": 69,
      "dur": 25
    },
    {
      "t": 1342.1,
      "ch": 1,
      "note": 36,
      "vel": 70,
      "dur": 25
    },
    {
      "t": 1342.1,
      "ch": 1,
      "note": 38,
      "vel": 72,
      "dur": 25
    },
    {
      "t": 1342.1,
      "ch": 1,
      "note": 40,
      "vel": 75,
      "dur": 25
    },
    {
      "t": 1342.1,
      "ch": 1,
      "note": 42,
      "vel": 65,
      "dur": 25
    },
    {
      "t": 1342.1,
      "ch": 1,
      "note": 36,
      "vel": 69,
      "dur": 25
    },
    {
      "t": 1342.1,
      "ch": 1,
      "note": 38,
      "vel": 57,
      "dur": 25
    },
    {
      "t": 1342.1,
      "ch": 1,
      "note": 40,
      "vel": 78,
      "dur": 25
    },
    {
      "t": 1342.1,
      "ch": 1,
      "note": 42,
      "vel": 89,
      "dur": 25
    },
    {
      "t": 1342.1,
      "ch": 1,
      "note": 36,
      "vel": 92,
      "dur": 25
    },
    {
      "t": 1342.1,
      "ch": 1,
      "note": 38,
      "vel": 101,
      "dur": 25
    },
    {
      "t": 1342.1,
      "ch": 1,
      "note": 40,
      "vel": 104,
      "dur": 25
    },
    {
      "t": 1342.1,
      "ch": 1,
      "note": 42,
      "vel": 98,
      "dur": 25
    },
    {
      "t": 1342.1,
      "ch": 1,
      "note": 36,
      "vel": 66,
      "dur": 25
    },
    {
      "t": 1342.1,
      "ch": 1,
      "note": 38,
      "vel": 78,
      "dur": 25
    },
    {
      "t": 1342.1,
      "ch": 1,
      "note": 40,
      "vel": 101,
      "dur": 25
    },
    {
      "t": 1342.1,
      "ch": 1,
      "note": 42,
      "vel": 81,
      "dur": 25
    },
    {
      "t": 1342.1,
      "ch": 1,
      "note": 36,
      "vel": 88,
      "dur": 25
    },
    {
      "t": 1342.1,
      "ch": 1,
      "note": 38,
      "vel": 74,
      "dur": 25
    },
    {
      "t": 1342.1,
      "ch": 1,
      "note": 40,
      "vel": 86,
      "dur": 25
    },
    {
      "t": 1342.1,
      "ch": 1,
      "note": 42,
      "vel": 85,
      "dur": 25
    },
    {
      "t": 1342.1,
      "ch": 1,
      "note": 36,
      "vel": 75,
      "dur": 25
    },
    {
      "t": 1342.1,
      "ch": 1,
      "note": 38,
      "vel": 101,
      "dur": 25
    },
    {
      "t": 1342.1,
      "ch": 1,
      "note": 40,
      "vel": 101,
      "dur": 25
    },
    {
      "t": 1342.1,
      "ch": 1,
      "note": 42,
      "vel": 105,
      "dur": 25
    },
    {
      "t": 1342.1,
      "ch": 1,
      "note": 36,
      "vel": 94,
      "dur": 25
    },
    {
      "t": 1342.1,
      "ch": 1,
      "note": 38,
      "vel": 84,
      "dur": 25
    },
    {
      "t": 1342.1,
      "ch": 1,
      "note": 40,
      "vel": 98,
      "dur": 25
    },
    {
      "t": 1342.1,
      "ch": 1,
      "note": 42,
      "vel": 69,
      "dur": 25
    },
    {
      "t": 1342.1,
      "ch": 1,
      "note": 36,
      "vel": 91,
      "dur": 25
    },
    {
      "t": 1342.1,
      "ch": 1,
      "note": 38,
      "vel": 99,
      "dur": 25
    },
    {
      "t": 1342.1,
      "ch": 1,
      "note": 40,
      "vel": 70,
      "dur": 25
    },
    {
      "t": 1342.1,
      "ch": 1,
      "note": 42,
      "vel": 80,
      "dur": 25
    },
    {
      "t": 1342.1,
      "ch": 1,
      "note": 36,
      "vel": 78,
      "dur": 25
    },
    {
      "t": 1342.1,
      "ch": 1,
      "note": 38,
      "vel": 77,
      "dur": 25
    },
    {
      "t": 1342.1,
      "ch": 1,
      "note": 40,
      "vel": 94,
      "dur": 25
    },
    {
      "t": 1342.1,
      "ch": 1,
      "note": 42,
      "vel": 96,
      "dur": 25
    },
    {
      "t": 1342.1,
      "ch": 1,
      "note": 36,
      "vel": 90,
      "dur": 25
    },
    {
      "t": 1342.1,
      "ch": 1,
      "note": 38,
      "vel": 73,
      "dur": 25
    },
    {
      "t": 1342.1,
      "ch": 1,
      "note": 40,
      "vel": 71,
      "dur": 25
    },
    {
      "t": 1342.1,
      "ch": 1,
      "note": 42,
      "vel": 78,
      "dur": 25
    },
    {
      "t": 1342.1,
      "ch": 1,
      "note": 36,
      "vel": 97,
      "dur": 25
    },
    {
      "t": 1342.1,
      "ch": 1,
      "note": 38,
      "vel": 93,
      "dur": 25
    },
    {
      "t": 1342.1,
      "ch": 1,
      "note": 40,
      "vel": 59,
      "dur": 25
    },
    {
      "t": 1342.1,
      "ch": 1,
      "note": 42,
      "vel": 69,
      "dur": 25
    },
    {
      "t": 1342.1,
      "ch": 1,
      "note": 36,
      "vel": 87,
      "dur": 25
    },
    {
      "t": 1342.1,
      "ch": 1,
      "note": 38,
      "vel": 83,
      "dur": 25
    },
    {
      "t": 1342.1,
      "ch": 1,
      "note": 40,
      "vel": 80,
      "dur": 25
    },
    {
      "t": 1342.1,
      "ch": 1,
      "note": 42,
      "vel": 74,
      "dur": 25
    },
    {
      "t": 1342.1,
      "ch": 1,
      "note": 36,
      "vel": 70,
      "dur": 25
    },
    {
      "t": 1342.1,
      "ch": 1,
      "note": 38,
      "vel": 63,
      "dur": 25
    },
    {
      "t": 1342.1,
      "ch": 1,
      "note": 40,
      "vel": 80,
      "dur": 25
    },
    {
      "t": 1342.1,
      "ch": 1,
      "note": 42,
      "vel": 67,
      "dur": 25
    },
    {
      "t": 1342.1,
      "ch": 1,
      "note": 36,
      "vel": 71,
      "dur": 25
    },
    {
      "t": 1342.1,
      "ch": 1,
      "note": 38,
      "vel": 111,
      "dur": 25
    },
    {
      "t": 1342.1,
      "ch": 1,
      "note": 40,
      "vel": 90,
      "dur": 25
    },
    {
      "t": 1342.1,
      "ch": 1,
      "note": 42,
      "vel": 104,
      "dur": 25
    },
    {
      "t": 1342.1,
      "ch": 1,
      "note": 36,
      "vel": 76,
      "dur": 25
    },
    {
      "t": 1342.1,
      "ch": 1,
      "note": 38,
      "vel": 79,
      "dur": 25
    },
    {
      "t": 1342.1,
      "ch": 1,
      "note": 40,
      "vel": 76,
      "dur": 25
    },
    {
      "t": 1342.1,
      "ch": 1,
      "note": 42,
      "vel": 82,
      "dur": 25
    },
    {
      "t": 1342.1,
      "ch": 1,
      "note": 36,
      "vel": 70,
      "dur": 25
    },
    {
      "t": 1342.1,
      "ch": 1,
      "note": 38,
      "vel": 75,
      "dur": 25
    },
    {
      "t": 1342.1,
      "ch": 1,
      "note": 40,
      "vel": 89,
      "dur": 25
    },
    {
      "t": 1342.1,
      "ch": 1,
      "note": 42,
      "vel": 52,
      "dur": 25
    },
    {
      "t": 1342.1,
      "ch": 1,
      "note": 36,
      "vel": 93,
      "dur": 25
    },
    {
      "t": 1342.1,
      "ch": 1,
      "note": 38,
      "vel": 91,
      "dur": 25
    },
    {
      "t": 1342.1,
      "ch": 1,
      "note": 40,
      "vel": 89,
      "dur": 25
    },
    {
      "t": 1342.1,
      "ch": 1,
      "note": 42,
      "vel": 115,
      "dur": 25
    },
    {
      "t": 1342.1,
      "ch": 1,
      "note": 36,
      "vel": 111,
      "dur": 25
    },
    {
      "t": 1342.1,
      "ch": 1,
      "note": 38,
      "vel": 101,
      "dur": 25
    },
    {
      "t": 1342.1,
      "ch": 1,
      "note": 40,
      "vel": 98,
      "dur": 25
    },
    {
      "t": 1342.1,
      "ch": 1,
      "note": 42,
      "vel": 86,
      "dur": 25
    },
    {
      "t": 1342.1,
      "ch": 1,
      "note": 36,
      "vel": 72,
      "dur": 25
    },
    {
      "t": 1342.1,
      "ch": 1,
      "note": 38,
      "vel": 78,
      "dur": 25
    },
    {
      "t": 1342.1,
      "ch": 1,
      "note": 40,
      "vel": 73,
      "dur": 25
    },
    {
      "t": 1342.1,
      "ch": 1,
      "note": 42,
      "vel": 71,
      "dur": 25
    },
    {
      "t": 1342.1,
      "ch": 1,
      "note": 36,
      "vel": 79,
      "dur": 25
    },
    {
      "t": 1342.1,
      "ch": 1,
      "note": 38,
      "vel": 104,
      "dur": 25
    },
    {
      "t": 1342.1,
      "ch": 1,
      "note": 40,
      "vel": 73,
      "dur": 25
    },
    {
      "t": 1342.1,
      "ch": 1,
      "note": 42,
      "vel": 110,
      "dur": 25
    },
    {
      "t": 1342.1,
      "ch": 1,
      "note": 36,
      "vel": 103,
      "dur": 25
    },
    {
      "t": 1342.1,
      "ch": 1,
      "note": 38,
      "vel": 108,
      "dur": 25
    },
    {
      "t": 1342.1,
      "ch": 1,
      "note": 40,
      "vel": 104,
      "dur": 25
    },
    {
      "t": 1342.1,
      "ch": 1,
      "note": 42,
      "vel": 75,
      "dur": 25
    },
    {
      "t": 1342.1,
      "ch": 1,
      "note": 36,
      "vel": 69,
      "dur": 25
    },
    {
      "t": 1342.1,
      "ch": 1,
      "note": 38,
      "vel": 58,
      "dur": 25
    },
    {
      "t": 1342.1,
      "ch": 1,
      "note": 40,
      "vel": 84,
      "dur": 25
    },
    {
      "t": 1342.1,
      "ch": 1,
      "note": 42,
      "vel": 100,
      "dur": 25
    },
    {
      "t": 1342.1,
      "ch": 1,
      "note": 36,
      "vel": 73,
      "dur": 25
    },
    {
      "t": 1342.1,
      "ch": 1,
      "note": 38,
      "vel": 111,
      "dur": 25
    },
    {
      "t": 1342.1,
      "ch": 1,
      "note": 40,
      "vel": 65,
      "dur": 25
    },
    {
      "t": 1342.1,
      "ch": 1,
      "note": 42,
      "vel": 73,
      "dur": 25
    },
    {
      "t": 1342.1,
      "ch": 1,
      "note": 36,
      "vel": 97,
      "dur": 25
    },
    {
      "t": 1342.1,
      "ch": 1,
      "note": 38,
      "vel": 64,
      "dur": 25
    },
    {
      "t": 1342.1,
      "ch": 1,
      "note": 40,
      "vel": 76,
      "dur": 25
    },
    {
      "t": 1342.1,
      "ch": 1,
      "note": 42,
      "vel": 80,
      "dur": 25
    },
    {
      "t": 1342.1,
      "ch": 1,
      "note": 36,
      "vel": 76,
      "dur": 25
    },
    {
      "t": 1342.1,
      "ch": 1,
      "note": 38,
      "vel": 71,
      "dur": 25
    },
    {
      "t": 1342.1,
      "ch": 1,
      "note": 40,
      "vel": 92,
      "dur": 25
    },
    {
      "t": 1342.1,
      "ch": 1,
      "note": 42,
      "vel": 63,
      "dur": 25
    },
    {
      "t": 1342.1,
      "ch": 1,
      "note": 36,
      "vel": 93,
      "dur": 25
    },
    {
      "t": 1342.1,
      "ch": 1,
      "note": 38,
      "vel": 99,
      "dur": 25
    },
    {
      "t": 1342.1,
      "ch": 1,
      "note": 40,
      "vel": 79,
      "dur": 25
    },
    {
      "t": 1342.1,
      "ch": 1,
      "note": 42,
      "vel": 90,
      "dur": 25
    },
    {
      "t": 1342.1,
      "ch": 1,
      "note": 36,
      "vel": 94,
      "dur": 25
    },
    {
      "t": 1342.1,
      "ch": 1,
      "note": 38,
      "vel": 85,
      "dur": 25
    },
    {
      "t": 1342.1,
      "ch": 1,
      "note": 40,
      "vel": 94,
      "dur": 25
    },
    {
      "t": 1342.1,
      "ch": 1,
      "note": 42,
      "vel": 95,
      "dur": 25
    },
    {
      "t": 1342.1,
      "ch": 1,
      "note": 36,
      "vel": 59,
      "dur": 25
    },
    {
      "t": 1342.1,
      "ch": 1,
      "note": 38,
      "vel": 97,
      "dur": 25
    },
    {
      "t": 1342.1,
      "ch": 1,
      "note": 40,
      "vel": 85,
      "dur": 25
    },
    {
      "t": 1342.1,
      "ch": 1,
      "note": 42,
      "vel": 82,
      "dur": 25
    },
    {
      "t": 1342.1,
      "ch": 1,
      "note": 36,
      "vel": 74,
      "dur": 25
    },
    {
      "t": 1342.1,
      "ch": 1,
      "note": 38,
      "vel": 78,
      "dur": 25
    },
    {
      "t": 1342.1,
      "ch": 1,
      "note": 40,
      "vel": 67,
      "dur": 25
    },
    {
      "t": 1342.1,
      "ch": 1,
      "note": 42,
      "vel": 66,
      "dur": 25
    },
    {
      "t": 1342.1,
      "ch": 1,
      "note": 36,
      "vel": 95,
      "dur": 25
    },
    {
      "t": 1342.1,
      "ch": 1,
      "note": 38,
      "vel": 81,
      "dur": 25
    },
    {
      "t": 1342.1,
      "ch": 1,
      "note": 40,
      "vel": 85,
      "dur": 25
    },
    {
      "t": 1342.1,
      "ch": 1,
      "note": 42,
      "vel": 106,
      "dur": 25
    },
    {
      "t": 1342.1,
      "ch": 1,
      "note": 36,
      "vel": 61,
      "dur": 25
    },
    {
      "t": 1342.1,
      "ch": 1,
      "note": 38,
      "vel": 86,
      "dur": 25
    },
    {
      "t": 1342.1,
      "ch": 1,
      "note": 40,
      "vel": 81,
      "dur": 25
    },
    {
      "t": 1342.1,
      "ch": 1,
      "note": 42,
      "vel": 86,
      "dur": 25
    },
    {
      "t": 1342.1,
      "ch": 1,
      "note": 36,
      "vel": 84,
      "dur": 25
    },
    {
      "t": 1342.1,
      "ch": 1,
      "note": 38,
      "vel": 83,
      "dur": 25
    },
    {
      "t": 1342.1,
      "ch": 1,
      "note": 40,
      "vel": 83,
      "dur": 25
    },
    {
      "t": 1342.1,
      "ch": 1,
      "note": 42,
      "vel": 66,
      "dur": 25
    },
    {
      "t": 1342.1,
      "ch": 1,
      "note": 36,
      "vel": 83,
      "dur": 25
    },
    {
      "t": 1342.1,
      "ch": 1,
      "note": 38,
      "vel": 78,
      "dur": 25
    },
    {
      "t": 1342.1,
      "ch": 1,
      "note": 40,
      "vel": 92,
      "dur": 25
    },
    {
      "t": 1342.1,
      "ch": 1,
      "note": 42,
      "vel": 73,
      "dur": 25
    },
    {
      "t": 1342.1,
      "ch": 1,
      "note": 36,
      "vel": 68,
      "dur": 25
    },
    {
      "t": 1342.1,
      "ch": 1,
      "note": 38,
      "vel": 72,
      "dur": 25
    },
    {
      "t": 1342.1,
      "ch": 1,
      "note": 40,
      "vel": 93,
      "dur": 25
    },
    {
      "t": 1342.1,
      "ch": 1,
      "note": 42,
      "vel": 94,
      "dur": 25
    },
    {
      "t": 1342.1,
      "ch": 1,
      "note": 36,
      "vel": 106,
      "dur": 25
    },
    {
      "t": 1342.1,
      "ch": 1,
      "note": 38,
      "vel": 88,
      "dur": 25
    },
    {
      "t": 1342.1,
      "ch": 1,
      "note": 40,
      "vel": 89,
      "dur": 25
    },
    {
      "t": 1342.1,
      "ch": 1,
      "note": 42,
      "vel": 79,
      "dur": 25
    },
    {
      "t": 1342.1,
      "ch": 1,
      "note": 36,
      "vel": 106,
      "dur": 25
    },
    {
      "t": 1342.1,
      "ch": 1,
      "note": 38,
      "vel": 67,
      "dur": 25
    },
    {
      "t": 1342.1,
      "ch": 1,
      "note": 40,
      "vel": 78,
      "dur": 25
    },
    {
      "t": 1342.1,
      "ch": 1,
      "note": 42,
      "vel": 65,
      "dur": 25
    },
    {
      "t": 1342.1,
      "ch": 1,
      "note": 36,
      "vel": 92,
      "dur": 25
    },
    {
      "t": 1342.1,
      "ch": 1,
      "note": 38,
      "vel": 84,
      "dur": 25
    },
    {
      "t": 1342.1,
      "ch": 1,
      "note": 40,
      "vel": 91,
      "dur": 25
    },
    {
      "t": 1342.1,
      "ch": 1,
      "note": 42,
      "vel": 86,
      "dur": 25
    },
    {
      "t": 1342.1,
      "ch": 1,
      "note": 36,
      "vel": 85,
      "dur": 25
    },
    {
      "t": 1342.1,
      "ch": 1,
      "note": 38,
      "vel": 112,
      "dur": 25
    },
    {
      "t": 1342.1,
      "ch": 1,
      "note": 40,
      "vel": 98,
      "dur": 25
    },
    {
      "t": 1342.1,
      "ch": 1,
      "note": 42,
      "vel": 87,
      "dur": 25
    },
    {
      "t": 1342.1,
      "ch": 1,
      "note": 36,
      "vel": 74,
      "dur": 25
    },
    {
      "t": 1342.1,
      "ch": 1,
      "note": 38,
      "vel": 83,
      "dur": 25
    },
    {
      "t": 1342.1,
      "ch": 1,
      "note": 40,
      "vel": 82,
      "dur": 25
    },
    {
      "t": 1342.1,
      "ch": 1,
      "note": 42,
      "vel": 103,
      "dur": 25
    },
    {
      "t": 1342.1,
      "ch": 1,
      "note": 36,
      "vel": 57,
      "dur": 25
    },
    {
      "t": 1342.1,
      "ch": 1,
      "note": 38,
      "vel": 105,
      "dur": 25
    },
    {
      "t": 1342.1,
      "ch": 1,
      "note": 40,
      "vel": 96,
      "dur": 25
    },
    {
      "t": 1342.1,
      "ch": 1,
      "note": 42,
      "vel": 76,
      "dur": 25
    },
    {
      "t": 1342.1,
      "ch": 1,
      "note": 36,
      "vel": 90,
      "dur": 25
    },
    {
      "t": 1342.1,
      "ch": 1,
      "note": 38,
      "vel": 76,
      "dur": 25
    },
    {
      "t": 1342.1,
      "ch": 1,
      "note": 40,
      "vel": 60,
      "dur": 25
    },
    {
      "t": 1342.1,
      "ch": 1,
      "note": 42,
      "vel": 87,
      "dur": 25
    },
    {
      "t": 1342.1,
      "ch": 1,
      "note": 36,
      "vel": 81,
      "dur": 25
    },
    {
      "t": 1342.1,
      "ch": 1,
      "note": 38,
      "vel": 81,
      "dur": 25
    },
    {
      "t": 1342.1,
      "ch": 1,
      "note": 40,
      "vel": 64,
      "dur": 25
    },
    {
      "t": 1342.1,
      "ch": 1,
      "note": 42,
      "vel": 81,
      "dur": 25
    },
    {
      "t": 1342.1,
      "ch": 1,
      "note": 36,
      "vel": 61,
      "dur": 25
    },
    {
      "t": 1342.1,
      "ch": 1,
      "note": 38,
      "vel": 76,
      "dur": 25
    },
    {
      "t": 1342.1,
      "ch": 1,
      "note": 40,
      "vel": 115,
      "dur": 25
    },
    {
      "t": 1342.1,
      "ch": 1,
      "note": 42,
      "vel": 79,
      "dur": 25
    },
    {
      "t": 1342.1,
      "ch": 1,
      "note": 36,
      "vel": 68,
      "dur": 25
    },
    {
      "t": 1342.1,
      "ch": 1,
      "note": 38,
      "vel": 88,
      "dur": 25
    },
    {
      "t": 1342.1,
      "ch": 1,
      "note": 40,
      "vel": 91,
      "dur": 25
    },
    {
      "t": 1342.1,
      "ch": 1,
      "note": 42,
      "vel": 80,
      "dur": 25
    },
    {
      "t": 1342.1,
      "ch": 1,
      "note": 36,
      "vel": 80,
      "dur": 25
    },
    {
      "t": 1342.1,
      "ch": 1,
      "note": 38,
      "vel": 80,
      "dur": 25
    },
    {
      "t": 1342.1,
      "ch": 1,
      "note": 40,
      "vel": 75,
      "dur": 25
    },
    {
      "t": 1342.1,
      "ch": 1,
      "note": 42,
      "vel": 68,
      "dur": 25
    },
    {
      "t": 1342.1,
      "ch": 1,
      "note": 36,
      "vel": 61,
      "dur": 25
    },
    {
      "t": 1342.1,
      "ch": 1,
      "note": 38,
      "vel": 64,
      "dur": 25
    },
    {
      "t": 1342.1,
      "ch": 1,
      "note": 40,
      "vel": 92,
      "dur": 25
    },
    {
      "t": 1342.1,
      "ch": 1,
      "note": 42,
      "vel": 65,
      "dur": 25
    },
    {
      "t": 1342.1,
      "ch": 1,
      "note": 36,
      "vel": 97,
      "dur": 25
    },
    {
      "t": 1342.1,
      "ch": 1,
      "note": 38,
      "vel": 101,
      "dur": 25
    },
    {
      "t": 1342.1,
      "ch": 1,
      "note": 40,
      "vel": 81,
      "dur": 25
    },
    {
      "t": 1342.1,
      "ch": 1,
      "note": 42,
      "vel": 95,
      "dur": 25
    },
    {
      "t": 1342.1,
      "ch": 1,
      "note": 36,
      "vel": 87,
      "dur": 25
    },
    {
      "t": 1342.1,
      "ch": 1,
      "note": 38,
      "vel": 94,
      "dur": 25
    },
    {
      "t": 1342.1,
      "ch": 1,
      "note": 40,
      "vel": 92,
      "dur": 25
    },
    {
      "t": 1342.1,
      "ch": 1,
      "note": 42,
      "vel": 86,
      "dur": 25
    },
    {
      "t": 1342.1,
      "ch": 1,
      "note": 36,
      "vel": 82,
      "dur": 25
    },
    {
      "t": 1342.1,
      "ch": 1,
      "note": 38,
      "vel": 73,
      "dur": 25
    },
    {
      "t": 1342.1,
      "ch": 1,
      "note": 40,
      "vel": 90,
      "dur": 25
    },
    {
      "t": 1342.1,
      "ch": 1,
      "note": 42,
      "vel": 88,
      "dur": 25
    },
    {
      "t": 1342.1,
      "ch": 1,
      "note": 36,
      "vel": 85,
      "dur": 25
    },
    {
      "t": 1342.1,
      "ch": 1,
      "note": 38,
      "vel": 80,
      "dur": 25
    },
    {
      "t": 1342.1,
      "ch": 1,
      "note": 40,
      "vel": 61,
      "dur": 25
    },
    {
      "t": 1342.1,
      "ch": 1,
      "note": 42,
      "vel": 84,
      "dur": 25
    },
    {
      "t": 1342.1,
      "ch": 1,
      "note": 36,
      "vel": 68,
      "dur": 25
    },
    {
      "t": 1342.1,
      "ch": 1,
      "note": 38,
      "vel": 68,
      "dur": 25
    },
    {
      "t": 1342.1,
      "ch": 1,
      "note": 40,
      "vel": 66,
      "dur": 25
    },
    {
      "t": 1342.1,
      "ch": 1,
      "note": 42,
      "vel": 88,
      "dur": 25
    },
    {
      "t": 1342.1,
      "ch": 1,
      "note": 36,
      "vel": 93,
      "dur": 25
    },
    {
      "t": 1342.1,
      "ch": 1,
      "note": 38,
      "vel": 69,
      "dur": 25
    },
    {
      "t": 1342.1,
      "ch": 1,
      "note": 40,
      "vel": 97,
      "dur": 25
    },
    {
      "t": 1342.1,
      "ch": 1,
      "note": 42,
      "vel": 73,
      "dur": 25
    },
    {
      "t": 1342.1,
      "ch": 1,
      "note": 36,
      "vel": 107,
      "dur": 25
    },
    {
      "t": 1342.1,
      "ch": 1,
      "note": 38,
      "vel": 67,
      "dur": 25
    },
    {
      "t": 1342.1,
      "ch": 1,
      "note": 40,
      "vel": 93,
      "dur": 25
    },
    {
      "t": 1342.1,
      "ch": 1,
      "note": 42,
      "vel": 93,
      "dur": 25
    },
    {
      "t": 1342.1,
      "ch": 1,
      "note": 36,
      "vel": 71,
      "dur": 25
    },
    {
      "t": 1342.1,
      "ch": 1,
      "note": 38,
      "vel": 85,
      "dur": 25
    },
    {
      "t": 1342.1,
      "ch": 1,
      "note": 40,
      "vel": 74,
      "dur": 25
    },
    {
      "t": 1342.1,
      "ch": 1,
      "note": 42,
      "vel": 69,
      "dur": 25
    },
    {
      "t": 1342.1,
      "ch": 1,
      "note": 36,
      "vel": 84,
      "dur": 25
    },
    {
      "t": 1342.1,
      "ch": 1,
      "note": 38,
      "vel": 86,
      "dur": 25
    },
    {
      "t": 1342.1,
      "ch": 1,
      "note": 40,
      "vel": 87,
      "dur": 25
    },
    {
      "t": 1342.1,
      "ch": 1,
      "note": 42,
      "vel": 89,
      "dur": 25
    },
    {
      "t": 1342.1,
      "ch": 1,
      "note": 36,
      "vel": 74,
      "dur": 25
    },
    {
      "t": 1342.1,
      "ch": 1,
      "note": 38,
      "vel": 74,
      "dur": 25
    },
    {
      "t": 1342.1,
      "ch": 1,
      "note": 40,
      "vel": 89,
      "dur": 25
    },
    {
      "t": 1342.1,
      "ch": 1,
      "note": 42,
      "vel": 64,
      "dur": 25
    },
    {
      "t": 1342.1,
      "ch": 1,
      "note": 36,
      "vel": 89,
      "dur": 25
    },
    {
      "t": 1342.1,
      "ch": 1,
      "note": 38,
      "vel": 72,
      "dur": 25
    },
    {
      "t": 1342.1,
      "ch": 1,
      "note": 40,
      "vel": 85,
      "dur": 25
    },
    {
      "t": 1342.1,
      "ch": 1,
      "note": 42,
      "vel": 74,
      "dur": 25
    },
    {
      "t": 1342.1,
      "ch": 1,
      "note": 36,
      "vel": 98,
      "dur": 25
    },
    {
      "t": 1342.1,
      "ch": 1,
      "note": 38,
      "vel": 94,
      "dur": 25
    },
    {
      "t": 1342.1,
      "ch": 1,
      "note": 40,
      "vel": 104,
      "dur": 25
    },
    {
      "t": 1342.1,
      "ch": 1,
      "note": 42,
      "vel": 90,
      "dur": 25
    },
    {
      "t": 1342.1,
      "ch": 1,
      "note": 36,
      "vel": 71,
      "dur": 25
    },
    {
      "t": 1342.1,
      "ch": 1,
      "note": 38,
      "vel": 87,
      "dur": 25
    },
    {
      "t": 1342.1,
      "ch": 1,
      "note": 40,
      "vel": 73,
      "dur": 25
    },
    {
      "t": 1342.1,
      "ch": 1,
      "note": 42,
      "vel": 76,
      "dur": 25
    },
    {
      "t": 1342.1,
      "ch": 1,
      "note": 36,
      "vel": 58,
      "dur": 25
    },
    {
      "t": 1342.1,
      "ch": 1,
      "note": 38,
      "vel": 90,
      "dur": 25
    },
    {
      "t": 1342.1,
      "ch": 1,
      "note": 40,
      "vel": 74,
      "dur": 25
    },
    {
      "t": 1342.1,
      "ch": 1,
      "note": 42,
      "vel": 75,
      "dur": 25
    },
    {
      "t": 1342.1,
      "ch": 1,
      "note": 36,
      "vel": 87,
      "dur": 25
    },
    {
      "t": 1342.1,
      "ch": 1,
      "note": 38,
      "vel": 90,
      "dur": 25
    },
    {
      "t": 1342.1,
      "ch": 1,
      "note": 40,
      "vel": 86,
      "dur": 25
    },
    {
      "t": 1342.1,
      "ch": 1,
      "note": 42,
      "vel": 72,
      "dur": 25
    },
    {
      "t": 1342.1,
      "ch": 1,
      "note": 36,
      "vel": 92,
      "dur": 25
    },
    {
      "t": 1342.1,
      "ch": 1,
      "note": 38,
      "vel": 84,
      "dur": 25
    },
    {
      "t": 1342.1,
      "ch": 1,
      "note": 40,
      "vel": 90,
      "dur": 25
    },
    {
      "t": 1342.1,
      "ch": 1,
      "note": 42,
      "vel": 94,
      "dur": 25
    },
    {
      "t": 1342.1,
      "ch": 1,
      "note": 36,
      "vel": 90,
      "dur": 25
    },
    {
      "t": 1342.1,
      "ch": 1,
      "note": 38,
      "vel": 72,
      "dur": 25
    },
    {
      "t": 1342.1,
      "ch": 1,
      "note": 40,
      "vel": 93,
      "dur": 25
    },
    {
      "t": 1342.1,
      "ch": 1,
      "note": 42,
      "vel": 104,
      "dur": 25
    },
    {
      "t": 1342.1,
      "ch": 1,
      "note": 36,
      "vel": 81,
      "dur": 25
    },
    {
      "t": 1342.1,
      "ch": 1,
      "note": 38,
      "vel": 97,
      "dur": 25
    },
    {
      "t": 1342.1,
      "ch": 1,
      "note": 40,
      "vel": 74,
      "dur": 25
    },
    {
      "t": 1342.1,
      "ch": 1,
      "note": 42,
      "vel": 83,
      "dur": 25
    },
    {
      "t": 1342.1,
      "ch": 1,
      "note": 36,
      "vel": 96,
      "dur": 25
    },
    {
      "t": 1342.1,
      "ch": 1,
      "note": 38,
      "vel": 86,
      "dur": 25
    },
    {
      "t": 1342.1,
      "ch": 1,
      "note": 40,
      "vel": 58,
      "dur": 25
    },
    {
      "t": 1342.1,
      "ch": 1,
      "note": 42,
      "vel": 84,
      "dur": 25
    },
    {
      "t": 1342.1,
      "ch": 1,
      "note": 36,
      "vel": 88,
      "dur": 25
    },
    {
      "t": 1342.1,
      "ch": 1,
      "note": 38,
      "vel": 82,
      "dur": 25
    },
    {
      "t": 1342.1,
      "ch": 1,
      "note": 40,
      "vel": 85,
      "dur": 25
    },
    {
      "t": 1342.1,
      "ch": 1,
      "note": 42,
      "vel": 94,
      "dur": 25
    },
    {
      "t": 1342.1,
      "ch": 1,
      "note": 36,
      "vel": 73,
      "dur": 25
    },
    {
      "t": 1342.1,
      "ch": 1,
      "note": 38,
      "vel": 105,
      "dur": 25
    },
    {
      "t": 1342.1,
      "ch": 1,
      "note": 40,
      "vel": 87,
      "dur": 25
    },
    {
      "t": 1342.1,
      "ch": 1,
      "note": 42,
      "vel": 103,
      "dur": 25
    },
    {
      "t": 1342.1,
      "ch": 1,
      "note": 36,
      "vel": 75,
      "dur": 25
    },
    {
      "t": 1342.1,
      "ch": 1,
      "note": 38,
      "vel": 86,
      "dur": 25
    },
    {
      "t": 1342.1,
      "ch": 1,
      "note": 40,
      "vel": 102,
      "dur": 25
    },
    {
      "t": 1342.1,
      "ch": 1,
      "note": 42,
      "vel": 98,
      "dur": 25
    },
    {
      "t": 1342.1,
      "ch": 1,
      "note": 36,
      "vel": 73,
      "dur": 25
    },
    {
      "t": 1342.1,
      "ch": 1,
      "note": 38,
      "vel": 74,
      "dur": 25
    },
    {
      "t": 1342.1,
      "ch": 1,
      "note": 40,
      "vel": 94,
      "dur": 25
    },
    {
      "t": 1342.1,
      "ch": 1,
      "note": 42,
      "vel": 90,
      "dur": 25
    },
    {
      "t": 1342.1,
      "ch": 1,
      "note": 36,
      "vel": 70,
      "dur": 25
    },
    {
      "t": 1342.1,
      "ch": 1,
      "note": 38,
      "vel": 87,
      "dur": 25
    },
    {
      "t": 1342.1,
      "ch": 1,
      "note": 40,
      "vel": 63,
      "dur": 25
    },
    {
      "t": 1342.1,
      "ch": 1,
      "note": 42,
      "vel": 89,
      "dur": 25
    },
    {
      "t": 1342.1,
      "ch": 1,
      "note": 36,
      "vel": 100,
      "dur": 25
    },
    {
      "t": 1342.1,
      "ch": 1,
      "note": 38,
      "vel": 82,
      "dur": 25
    },
    {
      "t": 1342.1,
      "ch": 1,
      "note": 40,
      "vel": 78,
      "dur": 25
    },
    {
      "t": 1342.1,
      "ch": 1,
      "note": 42,
      "vel": 78,
      "dur": 25
    },
    {
      "t": 1342.1,
      "ch": 1,
      "note": 36,
      "vel": 80,
      "dur": 25
    },
    {
      "t": 1342.1,
      "ch": 1,
      "note": 38,
      "vel": 99,
      "dur": 25
    },
    {
      "t": 1342.1,
      "ch": 1,
      "note": 40,
      "vel": 78,
      "dur": 25
    },
    {
      "t": 1342.1,
      "ch": 1,
      "note": 42,
      "vel": 101,
      "dur": 25
    },
    {
      "t": 1342.1,
      "ch": 1,
      "note": 36,
      "vel": 94,
      "dur": 25
    },
    {
      "t": 1342.1,
      "ch": 1,
      "note": 38,
      "vel": 74,
      "dur": 25
    },
    {
      "t": 1342.1,
      "ch": 1,
      "note": 40,
      "vel": 79,
      "dur": 25
    },
    {
      "t": 1342.1,
      "ch": 1,
      "note": 42,
      "vel": 79,
      "dur": 25
    },
    {
      "t": 1342.1,
      "ch": 1,
      "note": 36,
      "vel": 76,
      "dur": 25
    },
    {
      "t": 1342.1,
      "ch": 1,
      "note": 38,
      "vel": 98,
      "dur": 25
    },
    {
      "t": 1342.1,
      "ch": 1,
      "note": 40,
      "vel": 70,
      "dur": 25
    },
    {
      "t": 1342.1,
      "ch": 1,
      "note": 42,
      "vel": 70,
      "dur": 25
    },
    {
      "t": 1342.1,
      "ch": 1,
      "note": 36,
      "vel": 102,
      "dur": 25
    },
    {
      "t": 1342.1,
      "ch": 1,
      "note": 38,
      "vel": 89,
      "dur": 25
    },
    {
      "t": 1342.1,
      "ch": 1,
      "note": 40,
      "vel": 74,
      "dur": 25
    },
    {
      "t": 1342.1,
      "ch": 1,
      "note": 42,
      "vel": 78,
      "dur": 25
    },
    {
      "t": 1342.1,
      "ch": 1,
      "note": 36,
      "vel": 79,
      "dur": 25
    },
    {
      "t": 1342.1,
      "ch": 1,
      "note": 38,
      "vel": 100,
      "dur": 25
    },
    {
      "t": 1342.1,
      "ch": 1,
      "note": 40,
      "vel": 83,
      "dur": 25
    },
    {
      "t": 1342.1,
      "ch": 1,
      "note": 42,
      "vel": 79,
      "dur": 25
    },
    {
      "t": 1342.1,
      "ch": 1,
      "note": 36,
      "vel": 82,
      "dur": 25
    },
    {
      "t": 1342.1,
      "ch": 1,
      "note": 38,
      "vel": 95,
      "dur": 25
    },
    {
      "t": 1342.1,
      "ch": 1,
      "note": 40,
      "vel": 77,
      "dur": 25
    },
    {
      "t": 1342.1,
      "ch": 1,
      "note": 42,
      "vel": 100,
      "dur": 25
    },
    {
      "t": 1342.1,
      "ch": 1,
      "note": 36,
      "vel": 95,
      "dur": 25
    },
    {
      "t": 1342.1,
      "ch": 1,
      "note": 38,
      "vel": 91,
      "dur": 25
    },
    {
      "t": 1342.1,
      "ch": 1,
      "note": 40,
      "vel": 81,
      "dur": 25
    },
    {
      "t": 1342.1,
      "ch": 1,
      "note": 42,
      "vel": 71,
      "dur": 25
    },
    {
      "t": 1342.1,
      "ch": 1,
      "note": 36,
      "vel": 75,
      "dur": 25
    },
    {
      "t": 1342.1,
      "ch": 7,
      "note": 48,
      "vel": 65,
      "dur": 80
    },
    {
      "t": 1342.1,
      "ch": 7,
      "note": 45,
      "vel": 71,
      "dur": 80
    },
    {
      "t": 1342.1,
      "ch": 7,
      "note": 36,
      "vel": 71,
      "dur": 80
    },
    {
      "t": 1342.1,
      "ch": 7,
      "note": 38,
      "vel": 75,
      "dur": 80
    },
    {
      "t": 1342.2,
      "ch": 1,
      "note": 38,
      "vel": 70,
      "dur": 25
    },
    {
      "t": 1342.2,
      "ch": 1,
      "note": 40,
      "vel": 91,
      "dur": 25
    },
    {
      "t": 1342.3,
      "ch": 1,
      "note": 42,
      "vel": 75,
      "dur": 25
    },
    {
      "t": 1342.4,
      "ch": 1,
      "note": 36,
      "vel": 58,
      "dur": 25
    },
    {
      "t": 1342.4,
      "ch": 7,
      "note": 36,
      "vel": 75,
      "dur": 80
    },
    {
      "t": 1342.5,
      "ch": 1,
      "note": 38,
      "vel": 74,
      "dur": 25
    },
    {
      "t": 1342.6,
      "ch": 1,
      "note": 40,
      "vel": 73,
      "dur": 25
    },
    {
      "t": 1342.6,
      "ch": 1,
      "note": 42,
      "vel": 80,
      "dur": 25
    },
    {
      "t": 1342.7,
      "ch": 1,
      "note": 36,
      "vel": 109,
      "dur": 25
    },
    {
      "t": 1342.7,
      "ch": 7,
      "note": 48,
      "vel": 75,
      "dur": 80
    },
    {
      "t": 1342.7,
      "ch": 7,
      "note": 36,
      "vel": 68,
      "dur": 80
    },
    {
      "t": 1342.7,
      "ch": 5,
      "note": 62,
      "vel": 24,
      "dur": 896
    },
    {
      "t": 1342.8,
      "ch": 1,
      "note": 38,
      "vel": 73,
      "dur": 25
    },
    {
      "t": 1342.9,
      "ch": 1,
      "note": 40,
      "vel": 74,
      "dur": 25
    },
    {
      "t": 1342.9,
      "ch": 7,
      "note": 45,
      "vel": 56,
      "dur": 80
    },
    {
      "t": 1342.9,
      "ch": 7,
      "note": 38,
      "vel": 64,
      "dur": 80
    },
    {
      "t": 1343,
      "ch": 1,
      "note": 42,
      "vel": 75,
      "dur": 25
    },
    {
      "t": 1343.1,
      "ch": 1,
      "note": 36,
      "vel": 79,
      "dur": 25
    },
    {
      "t": 1343.1,
      "ch": 1,
      "note": 38,
      "vel": 83,
      "dur": 25
    },
    {
      "t": 1343.2,
      "ch": 1,
      "note": 40,
      "vel": 86,
      "dur": 25
    },
    {
      "t": 1343.2,
      "ch": 0,
      "note": 36,
      "vel": 83,
      "dur": 55
    },
    {
      "t": 1343.3,
      "ch": 1,
      "note": 42,
      "vel": 69,
      "dur": 25
    },
    {
      "t": 1343.4,
      "ch": 1,
      "note": 36,
      "vel": 76,
      "dur": 25
    },
    {
      "t": 1343.4,
      "ch": 7,
      "note": 48,
      "vel": 60,
      "dur": 80
    },
    {
      "t": 1343.4,
      "ch": 7,
      "note": 36,
      "vel": 70,
      "dur": 80
    },
    {
      "t": 1343.5,
      "ch": 1,
      "note": 38,
      "vel": 102,
      "dur": 25
    },
    {
      "t": 1343.5,
      "ch": 1,
      "note": 40,
      "vel": 54,
      "dur": 25
    },
    {
      "t": 1343.6,
      "ch": 1,
      "note": 42,
      "vel": 84,
      "dur": 25
    },
    {
      "t": 1343.7,
      "ch": 1,
      "note": 36,
      "vel": 79,
      "dur": 25
    },
    {
      "t": 1343.7,
      "ch": 7,
      "note": 45,
      "vel": 68,
      "dur": 80
    },
    {
      "t": 1343.7,
      "ch": 7,
      "note": 36,
      "vel": 70,
      "dur": 80
    },
    {
      "t": 1343.7,
      "ch": 7,
      "note": 38,
      "vel": 63,
      "dur": 80
    },
    {
      "t": 1343.7,
      "ch": 5,
      "note": 64,
      "vel": 31,
      "dur": 891
    },
    {
      "t": 1343.8,
      "ch": 1,
      "note": 38,
      "vel": 92,
      "dur": 25
    },
    {
      "t": 1343.9,
      "ch": 1,
      "note": 40,
      "vel": 83,
      "dur": 25
    },
    {
      "t": 1344,
      "ch": 1,
      "note": 42,
      "vel": 66,
      "dur": 25
    },
    {
      "t": 1344,
      "ch": 0,
      "note": 36,
      "vel": 95,
      "dur": 55
    },
    {
      "t": 1344,
      "ch": 1,
      "note": 36,
      "vel": 101,
      "dur": 25
    },
    {
      "t": 1344,
      "ch": 7,
      "note": 48,
      "vel": 65,
      "dur": 80
    },
    {
      "t": 1344,
      "ch": 7,
      "note": 36,
      "vel": 65,
      "dur": 80
    },
    {
      "t": 1344.1,
      "ch": 1,
      "note": 38,
      "vel": 74,
      "dur": 25
    },
    {
      "t": 1344.2,
      "ch": 6,
      "note": 71,
      "vel": 18,
      "dur": 400
    },
    {
      "t": 1344.2,
      "ch": 1,
      "note": 40,
      "vel": 73,
      "dur": 25
    },
    {
      "t": 1344.3,
      "ch": 1,
      "note": 42,
      "vel": 61,
      "dur": 25
    },
    {
      "t": 1344.4,
      "ch": 1,
      "note": 36,
      "vel": 46,
      "dur": 25
    },
    {
      "t": 1344.4,
      "ch": 1,
      "note": 38,
      "vel": 71,
      "dur": 25
    },
    {
      "t": 1344.5,
      "ch": 1,
      "note": 40,
      "vel": 85,
      "dur": 25
    },
    {
      "t": 1344.6,
      "ch": 1,
      "note": 42,
      "vel": 80,
      "dur": 25
    },
    {
      "t": 1344.7,
      "ch": 0,
      "note": 36,
      "vel": 109,
      "dur": 55
    },
    {
      "t": 1344.7,
      "ch": 1,
      "note": 36,
      "vel": 98,
      "dur": 25
    },
    {
      "t": 1344.7,
      "ch": 7,
      "note": 48,
      "vel": 72,
      "dur": 80
    },
    {
      "t": 1344.7,
      "ch": 7,
      "note": 45,
      "vel": 68,
      "dur": 80
    },
    {
      "t": 1344.7,
      "ch": 7,
      "note": 36,
      "vel": 72,
      "dur": 80
    },
    {
      "t": 1344.7,
      "ch": 7,
      "note": 38,
      "vel": 69,
      "dur": 80
    },
    {
      "t": 1344.8,
      "ch": 1,
      "note": 38,
      "vel": 85,
      "dur": 25
    },
    {
      "t": 1344.8,
      "ch": 1,
      "note": 40,
      "vel": 92,
      "dur": 25
    },
    {
      "t": 1344.9,
      "ch": 1,
      "note": 42,
      "vel": 58,
      "dur": 25
    },
    {
      "t": 1345,
      "ch": 1,
      "note": 36,
      "vel": 89,
      "dur": 25
    },
    {
      "t": 1345,
      "ch": 7,
      "note": 36,
      "vel": 69,
      "dur": 80
    },
    {
      "t": 1345.1,
      "ch": 1,
      "note": 38,
      "vel": 75,
      "dur": 25
    },
    {
      "t": 1345.2,
      "ch": 1,
      "note": 40,
      "vel": 71,
      "dur": 25
    },
    {
      "t": 1345.3,
      "ch": 1,
      "note": 42,
      "vel": 65,
      "dur": 25
    },
    {
      "t": 1345.3,
      "ch": 1,
      "note": 36,
      "vel": 104,
      "dur": 25
    },
    {
      "t": 1345.3,
      "ch": 7,
      "note": 48,
      "vel": 55,
      "dur": 80
    },
    {
      "t": 1345.3,
      "ch": 7,
      "note": 36,
      "vel": 67,
      "dur": 80
    },
    {
      "t": 1345.3,
      "ch": 5,
      "note": 64,
      "vel": 50,
      "dur": 883
    },
    {
      "t": 1345.4,
      "ch": 1,
      "note": 38,
      "vel": 111,
      "dur": 25
    },
    {
      "t": 1345.5,
      "ch": 1,
      "note": 40,
      "vel": 81,
      "dur": 25
    },
    {
      "t": 1345.5,
      "ch": 7,
      "note": 45,
      "vel": 64,
      "dur": 80
    },
    {
      "t": 1345.5,
      "ch": 7,
      "note": 38,
      "vel": 70,
      "dur": 80
    },
    {
      "t": 1345.5,
      "ch": 5,
      "note": 60,
      "vel": 28,
      "dur": 883
    },
    {
      "t": 1345.6,
      "ch": 1,
      "note": 42,
      "vel": 55,
      "dur": 25
    },
    {
      "t": 1345.7,
      "ch": 1,
      "note": 36,
      "vel": 89,
      "dur": 25
    },
    {
      "t": 1345.7,
      "ch": 5,
      "note": 62,
      "vel": 16,
      "dur": 882
    },
    {
      "t": 1345.7,
      "ch": 1,
      "note": 38,
      "vel": 71,
      "dur": 25
    },
    {
      "t": 1345.8,
      "ch": 1,
      "note": 40,
      "vel": 80,
      "dur": 25
    },
    {
      "t": 1345.8,
      "ch": 0,
      "note": 36,
      "vel": 78,
      "dur": 55
    },
    {
      "t": 1345.9,
      "ch": 1,
      "note": 42,
      "vel": 73,
      "dur": 25
    },
    {
      "t": 1345.9,
      "ch": 6,
      "note": 65,
      "vel": 1,
      "dur": 400
    },
    {
      "t": 1346,
      "ch": 1,
      "note": 36,
      "vel": 77,
      "dur": 25
    },
    {
      "t": 1346,
      "ch": 7,
      "note": 48,
      "vel": 72,
      "dur": 80
    },
    {
      "t": 1346,
      "ch": 7,
      "note": 36,
      "vel": 73,
      "dur": 80
    },
    {
      "t": 1346.1,
      "ch": 1,
      "note": 38,
      "vel": 75,
      "dur": 25
    },
    {
      "t": 1346.2,
      "ch": 1,
      "note": 40,
      "vel": 65,
      "dur": 25
    },
    {
      "t": 1346.2,
      "ch": 1,
      "note": 42,
      "vel": 79,
      "dur": 25
    },
    {
      "t": 1346.3,
      "ch": 1,
      "note": 36,
      "vel": 63,
      "dur": 25
    },
    {
      "t": 1346.3,
      "ch": 7,
      "note": 45,
      "vel": 64,
      "dur": 80
    },
    {
      "t": 1346.3,
      "ch": 7,
      "note": 36,
      "vel": 65,
      "dur": 80
    },
    {
      "t": 1346.3,
      "ch": 7,
      "note": 38,
      "vel": 62,
      "dur": 80
    },
    {
      "t": 1346.4,
      "ch": 1,
      "note": 38,
      "vel": 65,
      "dur": 25
    },
    {
      "t": 1346.5,
      "ch": 1,
      "note": 40,
      "vel": 74,
      "dur": 25
    },
    {
      "t": 1346.6,
      "ch": 1,
      "note": 42,
      "vel": 75,
      "dur": 25
    },
    {
      "t": 1346.6,
      "ch": 0,
      "note": 36,
      "vel": 99,
      "dur": 55
    },
    {
      "t": 1346.6,
      "ch": 1,
      "note": 36,
      "vel": 94,
      "dur": 25
    },
    {
      "t": 1346.6,
      "ch": 7,
      "note": 48,
      "vel": 79,
      "dur": 80
    },
    {
      "t": 1346.6,
      "ch": 7,
      "note": 36,
      "vel": 67,
      "dur": 80
    },
    {
      "t": 1346.7,
      "ch": 1,
      "note": 38,
      "vel": 91,
      "dur": 25
    },
    {
      "t": 1346.8,
      "ch": 1,
      "note": 40,
      "vel": 68,
      "dur": 25
    },
    {
      "t": 1346.9,
      "ch": 1,
      "note": 42,
      "vel": 82,
      "dur": 25
    },
    {
      "t": 1347,
      "ch": 1,
      "note": 36,
      "vel": 58,
      "dur": 25
    },
    {
      "t": 1347.1,
      "ch": 1,
      "note": 38,
      "vel": 81,
      "dur": 25
    },
    {
      "t": 1347.1,
      "ch": 1,
      "note": 40,
      "vel": 75,
      "dur": 25
    },
    {
      "t": 1347.2,
      "ch": 1,
      "note": 42,
      "vel": 68,
      "dur": 25
    },
    {
      "t": 1347.3,
      "ch": 0,
      "note": 36,
      "vel": 122,
      "dur": 55
    },
    {
      "t": 1347.3,
      "ch": 1,
      "note": 36,
      "vel": 92,
      "dur": 25
    },
    {
      "t": 1347.3,
      "ch": 7,
      "note": 48,
      "vel": 72,
      "dur": 80
    },
    {
      "t": 1347.3,
      "ch": 7,
      "note": 45,
      "vel": 70,
      "dur": 80
    },
    {
      "t": 1347.3,
      "ch": 7,
      "note": 36,
      "vel": 78,
      "dur": 80
    },
    {
      "t": 1347.3,
      "ch": 7,
      "note": 38,
      "vel": 72,
      "dur": 80
    },
    {
      "t": 1347.4,
      "ch": 1,
      "note": 38,
      "vel": 79,
      "dur": 25
    },
    {
      "t": 1347.5,
      "ch": 1,
      "note": 40,
      "vel": 70,
      "dur": 25
    },
    {
      "t": 1347.5,
      "ch": 1,
      "note": 42,
      "vel": 73,
      "dur": 25
    },
    {
      "t": 1347.6,
      "ch": 1,
      "note": 36,
      "vel": 86,
      "dur": 25
    },
    {
      "t": 1347.6,
      "ch": 7,
      "note": 36,
      "vel": 58,
      "dur": 80
    },
    {
      "t": 1347.7,
      "ch": 1,
      "note": 38,
      "vel": 79,
      "dur": 25
    },
    {
      "t": 1347.8,
      "ch": 1,
      "note": 40,
      "vel": 93,
      "dur": 25
    },
    {
      "t": 1347.9,
      "ch": 1,
      "note": 42,
      "vel": 84,
      "dur": 25
    },
    {
      "t": 1347.9,
      "ch": 1,
      "note": 36,
      "vel": 62,
      "dur": 25
    },
    {
      "t": 1347.9,
      "ch": 7,
      "note": 48,
      "vel": 69,
      "dur": 80
    },
    {
      "t": 1347.9,
      "ch": 7,
      "note": 36,
      "vel": 60,
      "dur": 80
    },
    {
      "t": 1348,
      "ch": 6,
      "note": 65,
      "vel": 13,
      "dur": 587
    },
    {
      "t": 1348,
      "ch": 1,
      "note": 38,
      "vel": 88,
      "dur": 25
    },
    {
      "t": 1348.1,
      "ch": 1,
      "note": 40,
      "vel": 85,
      "dur": 25
    },
    {
      "t": 1348.1,
      "ch": 7,
      "note": 45,
      "vel": 70,
      "dur": 80
    },
    {
      "t": 1348.1,
      "ch": 7,
      "note": 38,
      "vel": 49,
      "dur": 80
    },
    {
      "t": 1348.2,
      "ch": 1,
      "note": 42,
      "vel": 64,
      "dur": 25
    },
    {
      "t": 1348.3,
      "ch": 1,
      "note": 36,
      "vel": 79,
      "dur": 25
    },
    {
      "t": 1348.4,
      "ch": 1,
      "note": 38,
      "vel": 85,
      "dur": 25
    },
    {
      "t": 1348.4,
      "ch": 1,
      "note": 40,
      "vel": 90,
      "dur": 25
    },
    {
      "t": 1348.4,
      "ch": 0,
      "note": 36,
      "vel": 86,
      "dur": 55
    },
    {
      "t": 1348.5,
      "ch": 1,
      "note": 42,
      "vel": 88,
      "dur": 25
    },
    {
      "t": 1348.6,
      "ch": 1,
      "note": 36,
      "vel": 59,
      "dur": 25
    },
    {
      "t": 1348.6,
      "ch": 7,
      "note": 48,
      "vel": 72,
      "dur": 80
    },
    {
      "t": 1348.6,
      "ch": 7,
      "note": 36,
      "vel": 69,
      "dur": 80
    },
    {
      "t": 1348.7,
      "ch": 1,
      "note": 38,
      "vel": 90,
      "dur": 25
    },
    {
      "t": 1348.8,
      "ch": 1,
      "note": 40,
      "vel": 75,
      "dur": 25
    },
    {
      "t": 1348.8,
      "ch": 5,
      "note": 64,
      "vel": 32,
      "dur": 882
    },
    {
      "t": 1348.8,
      "ch": 1,
      "note": 42,
      "vel": 86,
      "dur": 25
    },
    {
      "t": 1348.9,
      "ch": 1,
      "note": 36,
      "vel": 62,
      "dur": 25
    },
    {
      "t": 1348.9,
      "ch": 7,
      "note": 45,
      "vel": 54,
      "dur": 80
    },
    {
      "t": 1348.9,
      "ch": 7,
      "note": 36,
      "vel": 57,
      "dur": 80
    },
    {
      "t": 1348.9,
      "ch": 7,
      "note": 38,
      "vel": 77,
      "dur": 80
    },
    {
      "t": 1349,
      "ch": 1,
      "note": 38,
      "vel": 88,
      "dur": 25
    },
    {
      "t": 1349.1,
      "ch": 1,
      "note": 40,
      "vel": 83,
      "dur": 25
    },
    {
      "t": 1349.2,
      "ch": 1,
      "note": 42,
      "vel": 72,
      "dur": 25
    },
    {
      "t": 1349.3,
      "ch": 0,
      "note": 36,
      "vel": 86,
      "dur": 55
    },
    {
      "t": 1349.3,
      "ch": 1,
      "note": 36,
      "vel": 92,
      "dur": 25
    },
    {
      "t": 1349.3,
      "ch": 7,
      "note": 48,
      "vel": 58,
      "dur": 80
    },
    {
      "t": 1349.3,
      "ch": 7,
      "note": 36,
      "vel": 68,
      "dur": 80
    },
    {
      "t": 1349.3,
      "ch": 6,
      "note": 64,
      "vel": 30,
      "dur": 589
    },
    {
      "t": 1349.3,
      "ch": 5,
      "note": 64,
      "vel": 34,
      "dur": 883
    },
    {
      "t": 1349.3,
      "ch": 1,
      "note": 38,
      "vel": 68,
      "dur": 25
    },
    {
      "t": 1349.4,
      "ch": 1,
      "note": 40,
      "vel": 72,
      "dur": 25
    },
    {
      "t": 1349.4,
      "ch": 5,
      "note": 60,
      "vel": 50,
      "dur": 883
    },
    {
      "t": 1349.5,
      "ch": 1,
      "note": 42,
      "vel": 61,
      "dur": 25
    },
    {
      "t": 1349.5,
      "ch": 6,
      "note": 67,
      "vel": 5,
      "dur": 400
    },
    {
      "t": 1349.6,
      "ch": 1,
      "note": 36,
      "vel": 77,
      "dur": 25
    },
    {
      "t": 1349.7,
      "ch": 1,
      "note": 38,
      "vel": 52,
      "dur": 25
    },
    {
      "t": 1349.7,
      "ch": 1,
      "note": 40,
      "vel": 76,
      "dur": 25
    },
    {
      "t": 1349.8,
      "ch": 1,
      "note": 42,
      "vel": 71,
      "dur": 25
    },
    {
      "t": 1349.9,
      "ch": 1,
      "note": 36,
      "vel": 86,
      "dur": 25
    },
    {
      "t": 1349.9,
      "ch": 7,
      "note": 48,
      "vel": 74,
      "dur": 80
    },
    {
      "t": 1349.9,
      "ch": 7,
      "note": 45,
      "vel": 70,
      "dur": 80
    },
    {
      "t": 1349.9,
      "ch": 7,
      "note": 36,
      "vel": 64,
      "dur": 80
    },
    {
      "t": 1349.9,
      "ch": 7,
      "note": 38,
      "vel": 71,
      "dur": 80
    },
    {
      "t": 1350,
      "ch": 1,
      "note": 38,
      "vel": 106,
      "dur": 25
    },
    {
      "t": 1350.1,
      "ch": 1,
      "note": 40,
      "vel": 87,
      "dur": 25
    },
    {
      "t": 1350.2,
      "ch": 1,
      "note": 42,
      "vel": 63,
      "dur": 25
    },
    {
      "t": 1350.2,
      "ch": 1,
      "note": 36,
      "vel": 79,
      "dur": 25
    },
    {
      "t": 1350.2,
      "ch": 7,
      "note": 36,
      "vel": 67,
      "dur": 80
    },
    {
      "t": 1350.3,
      "ch": 1,
      "note": 38,
      "vel": 88,
      "dur": 25
    },
    {
      "t": 1350.4,
      "ch": 1,
      "note": 40,
      "vel": 91,
      "dur": 25
    },
    {
      "t": 1350.5,
      "ch": 1,
      "note": 42,
      "vel": 70,
      "dur": 25
    },
    {
      "t": 1350.6,
      "ch": 1,
      "note": 36,
      "vel": 74,
      "dur": 25
    },
    {
      "t": 1350.6,
      "ch": 7,
      "note": 48,
      "vel": 71,
      "dur": 80
    },
    {
      "t": 1350.6,
      "ch": 7,
      "note": 36,
      "vel": 80,
      "dur": 80
    },
    {
      "t": 1350.6,
      "ch": 1,
      "note": 38,
      "vel": 84,
      "dur": 25
    },
    {
      "t": 1350.7,
      "ch": 1,
      "note": 40,
      "vel": 84,
      "dur": 25
    },
    {
      "t": 1350.7,
      "ch": 7,
      "note": 45,
      "vel": 73,
      "dur": 80
    },
    {
      "t": 1350.7,
      "ch": 7,
      "note": 38,
      "vel": 56,
      "dur": 80
    },
    {
      "t": 1350.8,
      "ch": 1,
      "note": 42,
      "vel": 60,
      "dur": 25
    },
    {
      "t": 1350.9,
      "ch": 1,
      "note": 36,
      "vel": 83,
      "dur": 25
    },
    {
      "t": 1351,
      "ch": 1,
      "note": 38,
      "vel": 83,
      "dur": 25
    },
    {
      "t": 1351.1,
      "ch": 1,
      "note": 40,
      "vel": 78,
      "dur": 25
    },
    {
      "t": 1351.1,
      "ch": 2,
      "note": 48,
      "vel": 0,
      "dur": 0
    },
    {
      "t": 1351.1,
      "ch": 2,
      "note": 50,
      "vel": 58,
      "dur": 19565
    },
    {
      "t": 1351.1,
      "ch": 2,
      "note": 62,
      "vel": 41,
      "dur": 19565
    },
    {
      "t": 1351.1,
      "ch": 1,
      "note": 42,
      "vel": 73,
      "dur": 25
    },
    {
      "t": 1351.2,
      "ch": 1,
      "note": 36,
      "vel": 65,
      "dur": 25
    },
    {
      "t": 1351.2,
      "ch": 7,
      "note": 48,
      "vel": 78,
      "dur": 80
    },
    {
      "t": 1351.2,
      "ch": 7,
      "note": 36,
      "vel": 66,
      "dur": 80
    },
    {
      "t": 1351.3,
      "ch": 1,
      "note": 38,
      "vel": 70,
      "dur": 25
    },
    {
      "t": 1351.4,
      "ch": 1,
      "note": 40,
      "vel": 68,
      "dur": 25
    },
    {
      "t": 1351.4,
      "ch": 6,
      "note": 60,
      "vel": 1,
      "dur": 595
    },
    {
      "t": 1351.5,
      "ch": 1,
      "note": 42,
      "vel": 62,
      "dur": 25
    },
    {
      "t": 1351.5,
      "ch": 1,
      "note": 36,
      "vel": 72,
      "dur": 25
    },
    {
      "t": 1351.5,
      "ch": 7,
      "note": 45,
      "vel": 70,
      "dur": 80
    },
    {
      "t": 1351.5,
      "ch": 7,
      "note": 36,
      "vel": 65,
      "dur": 80
    },
    {
      "t": 1351.5,
      "ch": 7,
      "note": 38,
      "vel": 63,
      "dur": 80
    },
    {
      "t": 1351.6,
      "ch": 1,
      "note": 38,
      "vel": 53,
      "dur": 25
    },
    {
      "t": 1351.7,
      "ch": 1,
      "note": 40,
      "vel": 90,
      "dur": 25
    },
    {
      "t": 1351.8,
      "ch": 1,
      "note": 42,
      "vel": 76,
      "dur": 25
    },
    {
      "t": 1351.9,
      "ch": 1,
      "note": 36,
      "vel": 86,
      "dur": 25
    },
    {
      "t": 1351.9,
      "ch": 7,
      "note": 48,
      "vel": 65,
      "dur": 80
    },
    {
      "t": 1351.9,
      "ch": 7,
      "note": 36,
      "vel": 57,
      "dur": 80
    },
    {
      "t": 1351.9,
      "ch": 5,
      "note": 62,
      "vel": 28,
      "dur": 894
    },
    {
      "t": 1352,
      "ch": 1,
      "note": 38,
      "vel": 75,
      "dur": 25
    },
    {
      "t": 1352,
      "ch": 1,
      "note": 40,
      "vel": 71,
      "dur": 25
    },
    {
      "t": 1352.1,
      "ch": 1,
      "note": 42,
      "vel": 71,
      "dur": 25
    },
    {
      "t": 1352.2,
      "ch": 1,
      "note": 36,
      "vel": 53,
      "dur": 25
    },
    {
      "t": 1352.3,
      "ch": 1,
      "note": 38,
      "vel": 75,
      "dur": 25
    },
    {
      "t": 1352.4,
      "ch": 1,
      "note": 40,
      "vel": 78,
      "dur": 25
    },
    {
      "t": 1352.4,
      "ch": 1,
      "note": 42,
      "vel": 74,
      "dur": 25
    },
    {
      "t": 1352.5,
      "ch": 7,
      "note": 48,
      "vel": 72,
      "dur": 80
    },
    {
      "t": 1352.5,
      "ch": 7,
      "note": 45,
      "vel": 70,
      "dur": 80
    },
    {
      "t": 1352.5,
      "ch": 7,
      "note": 36,
      "vel": 74,
      "dur": 80
    },
    {
      "t": 1352.5,
      "ch": 7,
      "note": 38,
      "vel": 73,
      "dur": 80
    },
    {
      "t": 1352.9,
      "ch": 7,
      "note": 36,
      "vel": 56,
      "dur": 80
    },
    {
      "t": 1352.9,
      "ch": 5,
      "note": 64,
      "vel": 9,
      "dur": 900
    },
    {
      "t": 1353.1,
      "ch": 6,
      "note": 71,
      "vel": 29,
      "dur": 400
    },
    {
      "t": 1353.2,
      "ch": 7,
      "note": 48,
      "vel": 74,
      "dur": 80
    },
    {
      "t": 1353.2,
      "ch": 7,
      "note": 36,
      "vel": 72,
      "dur": 80
    },
    {
      "t": 1353.2,
      "ch": 5,
      "note": 64,
      "vel": 34,
      "dur": 902
    },
    {
      "t": 1353.3,
      "ch": 7,
      "note": 45,
      "vel": 61,
      "dur": 80
    },
    {
      "t": 1353.3,
      "ch": 7,
      "note": 38,
      "vel": 69,
      "dur": 80
    },
    {
      "t": 1353.7,
      "ch": 4,
      "note": 57,
      "vel": 53,
      "dur": 2558
    },
    {
      "t": 1353.7,
      "ch": 4,
      "note": 52,
      "vel": 50,
      "dur": 2558
    },
    {
      "t": 1353.8,
      "ch": 7,
      "note": 48,
      "vel": 77,
      "dur": 80
    },
    {
      "t": 1353.8,
      "ch": 7,
      "note": 36,
      "vel": 63,
      "dur": 80
    },
    {
      "t": 1354.2,
      "ch": 7,
      "note": 45,
      "vel": 66,
      "dur": 80
    },
    {
      "t": 1354.2,
      "ch": 7,
      "note": 36,
      "vel": 65,
      "dur": 80
    },
    {
      "t": 1354.2,
      "ch": 7,
      "note": 38,
      "vel": 67,
      "dur": 80
    },
    {
      "t": 1354.3,
      "ch": 6,
      "note": 67,
      "vel": 29,
      "dur": 606
    },
    {
      "t": 1354.5,
      "ch": 7,
      "note": 48,
      "vel": 78,
      "dur": 80
    },
    {
      "t": 1354.5,
      "ch": 7,
      "note": 36,
      "vel": 67,
      "dur": 80
    },
    {
      "t": 1354.5,
      "ch": 6,
      "note": 71,
      "vel": 26,
      "dur": 606
    },
    {
      "t": 1355.1,
      "ch": 7,
      "note": 48,
      "vel": 64,
      "dur": 80
    },
    {
      "t": 1355.1,
      "ch": 7,
      "note": 45,
      "vel": 67,
      "dur": 80
    },
    {
      "t": 1355.1,
      "ch": 7,
      "note": 36,
      "vel": 75,
      "dur": 80
    },
    {
      "t": 1355.1,
      "ch": 7,
      "note": 38,
      "vel": 67,
      "dur": 80
    },
    {
      "t": 1355.5,
      "ch": 7,
      "note": 36,
      "vel": 74,
      "dur": 80
    },
    {
      "t": 1355.5,
      "ch": 6,
      "note": 65,
      "vel": 26,
      "dur": 609
    },
    {
      "t": 1355.8,
      "ch": 7,
      "note": 48,
      "vel": 69,
      "dur": 80
    },
    {
      "t": 1355.8,
      "ch": 7,
      "note": 36,
      "vel": 68,
      "dur": 80
    },
    {
      "t": 1355.8,
      "ch": 6,
      "note": 67,
      "vel": 25,
      "dur": 610
    },
    {
      "t": 1356,
      "ch": 7,
      "note": 45,
      "vel": 59,
      "dur": 80
    },
    {
      "t": 1356,
      "ch": 7,
      "note": 38,
      "vel": 50,
      "dur": 80
    },
    {
      "t": 1356.3,
      "ch": 4,
      "note": 55,
      "vel": 49,
      "dur": 2558
    },
    {
      "t": 1356.3,
      "ch": 4,
      "note": 59,
      "vel": 66,
      "dur": 2558
    },
    {
      "t": 1356.4,
      "ch": 7,
      "note": 48,
      "vel": 72,
      "dur": 80
    },
    {
      "t": 1356.4,
      "ch": 7,
      "note": 36,
      "vel": 74,
      "dur": 80
    },
    {
      "t": 1356.6,
      "ch": 5,
      "note": 60,
      "vel": 39,
      "dur": 918
    },
    {
      "t": 1356.8,
      "ch": 7,
      "note": 45,
      "vel": 66,
      "dur": 80
    },
    {
      "t": 1356.8,
      "ch": 7,
      "note": 36,
      "vel": 58,
      "dur": 80
    },
    {
      "t": 1356.8,
      "ch": 7,
      "note": 38,
      "vel": 48,
      "dur": 80
    },
    {
      "t": 1357.1,
      "ch": 7,
      "note": 48,
      "vel": 82,
      "dur": 80
    },
    {
      "t": 1357.1,
      "ch": 7,
      "note": 36,
      "vel": 78,
      "dur": 80
    },
    {
      "t": 1357.7,
      "ch": 7,
      "note": 48,
      "vel": 76,
      "dur": 80
    },
    {
      "t": 1357.7,
      "ch": 7,
      "note": 45,
      "vel": 68,
      "dur": 80
    },
    {
      "t": 1357.7,
      "ch": 7,
      "note": 36,
      "vel": 71,
      "dur": 80
    },
    {
      "t": 1357.7,
      "ch": 7,
      "note": 38,
      "vel": 70,
      "dur": 80
    },
    {
      "t": 1357.9,
      "ch": 5,
      "note": 62,
      "vel": 38,
      "dur": 921
    },
    {
      "t": 1358.1,
      "ch": 7,
      "note": 36,
      "vel": 55,
      "dur": 80
    },
    {
      "t": 1358.4,
      "ch": 7,
      "note": 48,
      "vel": 76,
      "dur": 80
    },
    {
      "t": 1358.4,
      "ch": 7,
      "note": 36,
      "vel": 69,
      "dur": 80
    },
    {
      "t": 1358.6,
      "ch": 7,
      "note": 45,
      "vel": 54,
      "dur": 80
    },
    {
      "t": 1358.6,
      "ch": 7,
      "note": 38,
      "vel": 65,
      "dur": 80
    },
    {
      "t": 1359,
      "ch": 4,
      "note": 57,
      "vel": 49,
      "dur": 2558
    },
    {
      "t": 1359,
      "ch": 4,
      "note": 52,
      "vel": 49,
      "dur": 2558
    },
    {
      "t": 1359,
      "ch": 7,
      "note": 48,
      "vel": 67,
      "dur": 80
    },
    {
      "t": 1359,
      "ch": 7,
      "note": 36,
      "vel": 71,
      "dur": 80
    },
    {
      "t": 1359.4,
      "ch": 7,
      "note": 45,
      "vel": 61,
      "dur": 80
    },
    {
      "t": 1359.4,
      "ch": 7,
      "note": 36,
      "vel": 73,
      "dur": 80
    },
    {
      "t": 1359.4,
      "ch": 7,
      "note": 38,
      "vel": 62,
      "dur": 80
    },
    {
      "t": 1359.5,
      "ch": 6,
      "note": 71,
      "vel": 21,
      "dur": 613
    },
    {
      "t": 1359.7,
      "ch": 7,
      "note": 48,
      "vel": 82,
      "dur": 80
    },
    {
      "t": 1359.7,
      "ch": 7,
      "note": 36,
      "vel": 63,
      "dur": 80
    },
    {
      "t": 1359.9,
      "ch": 5,
      "note": 64,
      "vel": 24,
      "dur": 919
    },
    {
      "t": 1360.2,
      "ch": 6,
      "note": 67,
      "vel": 2,
      "dur": 612
    },
    {
      "t": 1360.3,
      "ch": 7,
      "note": 48,
      "vel": 72,
      "dur": 80
    },
    {
      "t": 1360.3,
      "ch": 7,
      "note": 45,
      "vel": 73,
      "dur": 80
    },
    {
      "t": 1360.3,
      "ch": 7,
      "note": 36,
      "vel": 73,
      "dur": 80
    },
    {
      "t": 1360.3,
      "ch": 7,
      "note": 38,
      "vel": 65,
      "dur": 80
    },
    {
      "t": 1360.7,
      "ch": 7,
      "note": 36,
      "vel": 62,
      "dur": 80
    },
    {
      "t": 1360.9,
      "ch": 5,
      "note": 64,
      "vel": 34,
      "dur": 916
    },
    {
      "t": 1361,
      "ch": 7,
      "note": 48,
      "vel": 67,
      "dur": 80
    },
    {
      "t": 1361,
      "ch": 7,
      "note": 36,
      "vel": 63,
      "dur": 80
    },
    {
      "t": 1361.1,
      "ch": 6,
      "note": 69,
      "vel": 1,
      "dur": 400
    },
    {
      "t": 1361.2,
      "ch": 7,
      "note": 45,
      "vel": 55,
      "dur": 80
    },
    {
      "t": 1361.2,
      "ch": 7,
      "note": 38,
      "vel": 72,
      "dur": 80
    },
    {
      "t": 1361.6,
      "ch": 2,
      "note": 50,
      "vel": 0,
      "dur": 0
    },
    {
      "t": 1361.6,
      "ch": 2,
      "note": 62,
      "vel": 0,
      "dur": 0
    },
    {
      "t": 1361.6,
      "ch": 2,
      "note": 48,
      "vel": 57,
      "dur": 19565
    },
    {
      "t": 1361.6,
      "ch": 2,
      "note": 60,
      "vel": 40,
      "dur": 19565
    },
    {
      "t": 1361.6,
      "ch": 4,
      "note": 55,
      "vel": 52,
      "dur": 2558
    },
    {
      "t": 1361.6,
      "ch": 4,
      "note": 59,
      "vel": 68,
      "dur": 2558
    },
    {
      "t": 1361.6,
      "ch": 7,
      "note": 48,
      "vel": 64,
      "dur": 80
    },
    {
      "t": 1361.6,
      "ch": 7,
      "note": 36,
      "vel": 64,
      "dur": 80
    },
    {
      "t": 1361.8,
      "ch": 6,
      "note": 67,
      "vel": 21,
      "dur": 608
    },
    {
      "t": 1362,
      "ch": 7,
      "note": 45,
      "vel": 61,
      "dur": 80
    },
    {
      "t": 1362,
      "ch": 7,
      "note": 36,
      "vel": 52,
      "dur": 80
    },
    {
      "t": 1362,
      "ch": 7,
      "note": 38,
      "vel": 72,
      "dur": 80
    },
    {
      "t": 1362.3,
      "ch": 7,
      "note": 48,
      "vel": 72,
      "dur": 80
    },
    {
      "t": 1362.3,
      "ch": 7,
      "note": 36,
      "vel": 66,
      "dur": 80
    },
    {
      "t": 1362.3,
      "ch": 6,
      "note": 74,
      "vel": 15,
      "dur": 606
    },
    {
      "t": 1362.9,
      "ch": 0,
      "note": 36,
      "vel": 127,
      "dur": 55
    },
    {
      "t": 1362.9,
      "ch": 7,
      "note": 48,
      "vel": 75,
      "dur": 80
    },
    {
      "t": 1362.9,
      "ch": 7,
      "note": 45,
      "vel": 76,
      "dur": 80
    },
    {
      "t": 1362.9,
      "ch": 7,
      "note": 36,
      "vel": 75,
      "dur": 80
    },
    {
      "t": 1362.9,
      "ch": 7,
      "note": 38,
      "vel": 75,
      "dur": 80
    },
    {
      "t": 1363.3,
      "ch": 7,
      "note": 36,
      "vel": 62,
      "dur": 80
    },
    {
      "t": 1363.6,
      "ch": 7,
      "note": 48,
      "vel": 73,
      "dur": 80
    },
    {
      "t": 1363.6,
      "ch": 7,
      "note": 36,
      "vel": 66,
      "dur": 80
    },
    {
      "t": 1363.8,
      "ch": 7,
      "note": 45,
      "vel": 49,
      "dur": 80
    },
    {
      "t": 1363.8,
      "ch": 7,
      "note": 38,
      "vel": 62,
      "dur": 80
    },
    {
      "t": 1364.1,
      "ch": 0,
      "note": 36,
      "vel": 82,
      "dur": 55
    },
    {
      "t": 1364.2,
      "ch": 4,
      "note": 57,
      "vel": 54,
      "dur": 2558
    },
    {
      "t": 1364.2,
      "ch": 4,
      "note": 52,
      "vel": 54,
      "dur": 2558
    },
    {
      "t": 1364.2,
      "ch": 3,
      "note": 36,
      "vel": 57,
      "dur": 2608
    },
    {
      "t": 1364.2,
      "ch": 7,
      "note": 48,
      "vel": 76,
      "dur": 80
    },
    {
      "t": 1364.2,
      "ch": 7,
      "note": 36,
      "vel": 65,
      "dur": 80
    },
    {
      "t": 1364.6,
      "ch": 7,
      "note": 45,
      "vel": 65,
      "dur": 80
    },
    {
      "t": 1364.6,
      "ch": 7,
      "note": 36,
      "vel": 62,
      "dur": 80
    },
    {
      "t": 1364.6,
      "ch": 7,
      "note": 38,
      "vel": 60,
      "dur": 80
    },
    {
      "t": 1364.9,
      "ch": 0,
      "note": 36,
      "vel": 91,
      "dur": 55
    },
    {
      "t": 1364.9,
      "ch": 7,
      "note": 48,
      "vel": 69,
      "dur": 80
    },
    {
      "t": 1364.9,
      "ch": 7,
      "note": 36,
      "vel": 72,
      "dur": 80
    },
    {
      "t": 1365.6,
      "ch": 0,
      "note": 36,
      "vel": 117,
      "dur": 55
    },
    {
      "t": 1365.6,
      "ch": 7,
      "note": 48,
      "vel": 73,
      "dur": 80
    },
    {
      "t": 1365.6,
      "ch": 7,
      "note": 45,
      "vel": 78,
      "dur": 80
    },
    {
      "t": 1365.6,
      "ch": 7,
      "note": 36,
      "vel": 72,
      "dur": 80
    },
    {
      "t": 1365.6,
      "ch": 7,
      "note": 38,
      "vel": 79,
      "dur": 80
    },
    {
      "t": 1365.9,
      "ch": 7,
      "note": 36,
      "vel": 65,
      "dur": 80
    },
    {
      "t": 1365.9,
      "ch": 5,
      "note": 60,
      "vel": 38,
      "dur": 887
    },
    {
      "t": 1366.2,
      "ch": 7,
      "note": 48,
      "vel": 71,
      "dur": 80
    },
    {
      "t": 1366.2,
      "ch": 7,
      "note": 36,
      "vel": 80,
      "dur": 80
    },
    {
      "t": 1366.4,
      "ch": 7,
      "note": 45,
      "vel": 71,
      "dur": 80
    },
    {
      "t": 1366.4,
      "ch": 7,
      "note": 38,
      "vel": 67,
      "dur": 80
    },
    {
      "t": 1366.7,
      "ch": 0,
      "note": 36,
      "vel": 83,
      "dur": 55
    },
    {
      "t": 1366.8,
      "ch": 4,
      "note": 55,
      "vel": 58,
      "dur": 2558
    },
    {
      "t": 1366.8,
      "ch": 4,
      "note": 59,
      "vel": 71,
      "dur": 2558
    },
    {
      "t": 1366.8,
      "ch": 3,
      "note": 43,
      "vel": 59,
      "dur": 2608
    },
    {
      "t": 1366.9,
      "ch": 7,
      "note": 48,
      "vel": 79,
      "dur": 80
    },
    {
      "t": 1366.9,
      "ch": 7,
      "note": 36,
      "vel": 77,
      "dur": 80
    },
    {
      "t": 1366.9,
      "ch": 5,
      "note": 62,
      "vel": 28,
      "dur": 881
    },
    {
      "t": 1367.2,
      "ch": 7,
      "note": 45,
      "vel": 59,
      "dur": 80
    },
    {
      "t": 1367.2,
      "ch": 7,
      "note": 36,
      "vel": 65,
      "dur": 80
    },
    {
      "t": 1367.2,
      "ch": 7,
      "note": 38,
      "vel": 69,
      "dur": 80
    },
    {
      "t": 1367.5,
      "ch": 0,
      "note": 36,
      "vel": 90,
      "dur": 55
    },
    {
      "t": 1367.5,
      "ch": 7,
      "note": 48,
      "vel": 79,
      "dur": 80
    },
    {
      "t": 1367.5,
      "ch": 7,
      "note": 36,
      "vel": 79,
      "dur": 80
    },
    {
      "t": 1367.8,
      "ch": 5,
      "note": 67,
      "vel": 29,
      "dur": 876
    },
    {
      "t": 1368.2,
      "ch": 0,
      "note": 36,
      "vel": 112,
      "dur": 55
    },
    {
      "t": 1368.2,
      "ch": 7,
      "note": 48,
      "vel": 68,
      "dur": 80
    },
    {
      "t": 1368.2,
      "ch": 7,
      "note": 45,
      "vel": 61,
      "dur": 80
    },
    {
      "t": 1368.2,
      "ch": 7,
      "note": 36,
      "vel": 63,
      "dur": 80
    },
    {
      "t": 1368.2,
      "ch": 7,
      "note": 38,
      "vel": 72,
      "dur": 80
    },
    {
      "t": 1368.5,
      "ch": 7,
      "note": 36,
      "vel": 61,
      "dur": 80
    },
    {
      "t": 1368.8,
      "ch": 7,
      "note": 48,
      "vel": 77,
      "dur": 80
    },
    {
      "t": 1368.8,
      "ch": 7,
      "note": 36,
      "vel": 67,
      "dur": 80
    },
    {
      "t": 1369,
      "ch": 7,
      "note": 45,
      "vel": 63,
      "dur": 80
    },
    {
      "t": 1369,
      "ch": 7,
      "note": 38,
      "vel": 62,
      "dur": 80
    },
    {
      "t": 1369.2,
      "ch": 6,
      "note": 65,
      "vel": 28,
      "dur": 582
    },
    {
      "t": 1369.3,
      "ch": 0,
      "note": 36,
      "vel": 79,
      "dur": 55
    },
    {
      "t": 1369.4,
      "ch": 4,
      "note": 57,
      "vel": 58,
      "dur": 2558
    },
    {
      "t": 1369.4,
      "ch": 4,
      "note": 52,
      "vel": 58,
      "dur": 2558
    },
    {
      "t": 1369.4,
      "ch": 3,
      "note": 36,
      "vel": 60,
      "dur": 2608
    },
    {
      "t": 1369.5,
      "ch": 7,
      "note": 48,
      "vel": 79,
      "dur": 80
    },
    {
      "t": 1369.5,
      "ch": 7,
      "note": 36,
      "vel": 74,
      "dur": 80
    },
    {
      "t": 1369.8,
      "ch": 7,
      "note": 45,
      "vel": 70,
      "dur": 80
    },
    {
      "t": 1369.8,
      "ch": 7,
      "note": 36,
      "vel": 54,
      "dur": 80
    },
    {
      "t": 1369.8,
      "ch": 7,
      "note": 38,
      "vel": 65,
      "dur": 80
    },
    {
      "t": 1370.1,
      "ch": 0,
      "note": 36,
      "vel": 90,
      "dur": 55
    },
    {
      "t": 1370.1,
      "ch": 7,
      "note": 48,
      "vel": 67,
      "dur": 80
    },
    {
      "t": 1370.1,
      "ch": 7,
      "note": 36,
      "vel": 69,
      "dur": 80
    },
    {
      "t": 1370.1,
      "ch": 6,
      "note": 69,
      "vel": 11,
      "dur": 581
    },
    {
      "t": 1370.8,
      "ch": 0,
      "note": 36,
      "vel": 118,
      "dur": 55
    },
    {
      "t": 1370.8,
      "ch": 7,
      "note": 48,
      "vel": 76,
      "dur": 80
    },
    {
      "t": 1370.8,
      "ch": 7,
      "note": 45,
      "vel": 67,
      "dur": 80
    },
    {
      "t": 1370.8,
      "ch": 7,
      "note": 36,
      "vel": 73,
      "dur": 80
    },
    {
      "t": 1370.8,
      "ch": 7,
      "note": 38,
      "vel": 84,
      "dur": 80
    },
    {
      "t": 1371,
      "ch": 6,
      "note": 74,
      "vel": 24,
      "dur": 581
    },
    {
      "t": 1371.1,
      "ch": 7,
      "note": 36,
      "vel": 50,
      "dur": 80
    },
    {
      "t": 1371.4,
      "ch": 7,
      "note": 48,
      "vel": 64,
      "dur": 80
    },
    {
      "t": 1371.4,
      "ch": 7,
      "note": 36,
      "vel": 73,
      "dur": 80
    },
    {
      "t": 1371.6,
      "ch": 7,
      "note": 45,
      "vel": 60,
      "dur": 80
    },
    {
      "t": 1371.6,
      "ch": 7,
      "note": 38,
      "vel": 65,
      "dur": 80
    },
    {
      "t": 1371.9,
      "ch": 0,
      "note": 36,
      "vel": 88,
      "dur": 55
    },
    {
      "t": 1372,
      "ch": 2,
      "note": 48,
      "vel": 59,
      "dur": 19565
    },
    {
      "t": 1372,
      "ch": 4,
      "note": 57,
      "vel": 60,
      "dur": 2558
    },
    {
      "t": 1372,
      "ch": 4,
      "note": 60,
      "vel": 60,
      "dur": 2558
    },
    {
      "t": 1372,
      "ch": 3,
      "note": 38,
      "vel": 60,
      "dur": 2608
    },
    {
      "t": 1372.1,
      "ch": 7,
      "note": 48,
      "vel": 69,
      "dur": 80
    },
    {
      "t": 1372.1,
      "ch": 7,
      "note": 36,
      "vel": 71,
      "dur": 80
    },
    {
      "t": 1372.4,
      "ch": 7,
      "note": 45,
      "vel": 65,
      "dur": 80
    },
    {
      "t": 1372.4,
      "ch": 7,
      "note": 36,
      "vel": 50,
      "dur": 80
    },
    {
      "t": 1372.4,
      "ch": 7,
      "note": 38,
      "vel": 57,
      "dur": 80
    },
    {
      "t": 1372.4,
      "ch": 6,
      "note": 72,
      "vel": 13,
      "dur": 583
    },
    {
      "t": 1372.7,
      "ch": 0,
      "note": 36,
      "vel": 91,
      "dur": 55
    },
    {
      "t": 1372.7,
      "ch": 7,
      "note": 48,
      "vel": 62,
      "dur": 80
    },
    {
      "t": 1372.7,
      "ch": 7,
      "note": 36,
      "vel": 64,
      "dur": 80
    },
    {
      "t": 1372.9,
      "ch": 5,
      "note": 71,
      "vel": 35,
      "dur": 876
    },
    {
      "t": 1373.2,
      "ch": 5,
      "note": 69,
      "vel": 29,
      "dur": 877
    },
    {
      "t": 1373.4,
      "ch": 0,
      "note": 36,
      "vel": 109,
      "dur": 55
    },
    {
      "t": 1373.4,
      "ch": 7,
      "note": 48,
      "vel": 73,
      "dur": 80
    },
    {
      "t": 1373.4,
      "ch": 7,
      "note": 45,
      "vel": 66,
      "dur": 80
    },
    {
      "t": 1373.4,
      "ch": 7,
      "note": 36,
      "vel": 73,
      "dur": 80
    },
    {
      "t": 1373.4,
      "ch": 7,
      "note": 38,
      "vel": 78,
      "dur": 80
    },
    {
      "t": 1373.4,
      "ch": 6,
      "note": 74,
      "vel": 10,
      "dur": 400
    },
    {
      "t": 1373.6,
      "ch": 5,
      "note": 62,
      "vel": 22,
      "dur": 879
    },
    {
      "t": 1373.7,
      "ch": 7,
      "note": 36,
      "vel": 68,
      "dur": 80
    },
    {
      "t": 1373.7,
      "ch": 5,
      "note": 67,
      "vel": 29,
      "dur": 879
    },
    {
      "t": 1373.9,
      "ch": 6,
      "note": 52,
      "vel": 15,
      "dur": 587
    },
    {
      "t": 1374,
      "ch": 7,
      "note": 48,
      "vel": 79,
      "dur": 80
    },
    {
      "t": 1374,
      "ch": 7,
      "note": 36,
      "vel": 60,
      "dur": 80
    },
    {
      "t": 1374.2,
      "ch": 7,
      "note": 45,
      "vel": 47,
      "dur": 80
    },
    {
      "t": 1374.2,
      "ch": 7,
      "note": 38,
      "vel": 67,
      "dur": 80
    },
    {
      "t": 1374.6,
      "ch": 4,
      "note": 57,
      "vel": 55,
      "dur": 2558
    },
    {
      "t": 1374.6,
      "ch": 4,
      "note": 52,
      "vel": 55,
      "dur": 2558
    },
    {
      "t": 1374.6,
      "ch": 3,
      "note": 36,
      "vel": 59,
      "dur": 2608
    },
    {
      "t": 1374.7,
      "ch": 0,
      "note": 36,
      "vel": 99,
      "dur": 55
    },
    {
      "t": 1374.7,
      "ch": 7,
      "note": 48,
      "vel": 61,
      "dur": 80
    },
    {
      "t": 1374.7,
      "ch": 7,
      "note": 36,
      "vel": 64,
      "dur": 80
    },
    {
      "t": 1374.9,
      "ch": 6,
      "note": 71,
      "vel": 35,
      "dur": 590
    },
    {
      "t": 1375,
      "ch": 7,
      "note": 45,
      "vel": 58,
      "dur": 80
    },
    {
      "t": 1375,
      "ch": 7,
      "note": 36,
      "vel": 68,
      "dur": 80
    },
    {
      "t": 1375,
      "ch": 7,
      "note": 38,
      "vel": 64,
      "dur": 80
    },
    {
      "t": 1375,
      "ch": 5,
      "note": 71,
      "vel": 41,
      "dur": 886
    },
    {
      "t": 1375.3,
      "ch": 7,
      "note": 48,
      "vel": 70,
      "dur": 80
    },
    {
      "t": 1375.3,
      "ch": 7,
      "note": 36,
      "vel": 75,
      "dur": 80
    },
    {
      "t": 1375.7,
      "ch": 0,
      "note": 36,
      "vel": 77,
      "dur": 55
    },
    {
      "t": 1375.8,
      "ch": 6,
      "note": 74,
      "vel": 30,
      "dur": 594
    },
    {
      "t": 1376,
      "ch": 0,
      "note": 36,
      "vel": 104,
      "dur": 55
    },
    {
      "t": 1376,
      "ch": 7,
      "note": 48,
      "vel": 76,
      "dur": 80
    },
    {
      "t": 1376,
      "ch": 7,
      "note": 45,
      "vel": 67,
      "dur": 80
    },
    {
      "t": 1376,
      "ch": 7,
      "note": 36,
      "vel": 65,
      "dur": 80
    },
    {
      "t": 1376,
      "ch": 7,
      "note": 38,
      "vel": 57,
      "dur": 80
    },
    {
      "t": 1376.3,
      "ch": 7,
      "note": 36,
      "vel": 62,
      "dur": 80
    },
    {
      "t": 1376.3,
      "ch": 6,
      "note": 65,
      "vel": 32,
      "dur": 596
    },
    {
      "t": 1376.6,
      "ch": 7,
      "note": 48,
      "vel": 79,
      "dur": 80
    },
    {
      "t": 1376.6,
      "ch": 7,
      "note": 36,
      "vel": 63,
      "dur": 80
    },
    {
      "t": 1376.8,
      "ch": 7,
      "note": 45,
      "vel": 54,
      "dur": 80
    },
    {
      "t": 1376.8,
      "ch": 7,
      "note": 38,
      "vel": 72,
      "dur": 80
    },
    {
      "t": 1377.2,
      "ch": 4,
      "note": 55,
      "vel": 56,
      "dur": 2558
    },
    {
      "t": 1377.2,
      "ch": 4,
      "note": 59,
      "vel": 70,
      "dur": 2558
    },
    {
      "t": 1377.2,
      "ch": 3,
      "note": 43,
      "vel": 57,
      "dur": 2608
    },
    {
      "t": 1377.3,
      "ch": 0,
      "note": 36,
      "vel": 95,
      "dur": 55
    },
    {
      "t": 1377.3,
      "ch": 7,
      "note": 48,
      "vel": 65,
      "dur": 80
    },
    {
      "t": 1377.3,
      "ch": 7,
      "note": 36,
      "vel": 72,
      "dur": 80
    },
    {
      "t": 1377.3,
      "ch": 5,
      "note": 69,
      "vel": 36,
      "dur": 899
    },
    {
      "t": 1377.6,
      "ch": 7,
      "note": 45,
      "vel": 65,
      "dur": 80
    },
    {
      "t": 1377.6,
      "ch": 7,
      "note": 36,
      "vel": 59,
      "dur": 80
    },
    {
      "t": 1377.6,
      "ch": 7,
      "note": 38,
      "vel": 63,
      "dur": 80
    },
    {
      "t": 1377.9,
      "ch": 7,
      "note": 48,
      "vel": 68,
      "dur": 80
    },
    {
      "t": 1377.9,
      "ch": 7,
      "note": 36,
      "vel": 73,
      "dur": 80
    },
    {
      "t": 1378.3,
      "ch": 0,
      "note": 36,
      "vel": 77,
      "dur": 55
    },
    {
      "t": 1378.6,
      "ch": 0,
      "note": 36,
      "vel": 112,
      "dur": 55
    },
    {
      "t": 1378.6,
      "ch": 1,
      "note": 36,
      "vel": 95,
      "dur": 25
    },
    {
      "t": 1378.6,
      "ch": 1,
      "note": 38,
      "vel": 70,
      "dur": 25
    },
    {
      "t": 1378.6,
      "ch": 1,
      "note": 40,
      "vel": 97,
      "dur": 25
    },
    {
      "t": 1378.6,
      "ch": 1,
      "note": 42,
      "vel": 72,
      "dur": 25
    },
    {
      "t": 1378.6,
      "ch": 1,
      "note": 36,
      "vel": 72,
      "dur": 25
    },
    {
      "t": 1378.6,
      "ch": 1,
      "note": 38,
      "vel": 85,
      "dur": 25
    },
    {
      "t": 1378.6,
      "ch": 1,
      "note": 40,
      "vel": 85,
      "dur": 25
    },
    {
      "t": 1378.6,
      "ch": 1,
      "note": 42,
      "vel": 80,
      "dur": 25
    },
    {
      "t": 1378.6,
      "ch": 1,
      "note": 36,
      "vel": 101,
      "dur": 25
    },
    {
      "t": 1378.6,
      "ch": 1,
      "note": 38,
      "vel": 97,
      "dur": 25
    },
    {
      "t": 1378.6,
      "ch": 1,
      "note": 40,
      "vel": 86,
      "dur": 25
    },
    {
      "t": 1378.6,
      "ch": 1,
      "note": 42,
      "vel": 90,
      "dur": 25
    },
    {
      "t": 1378.6,
      "ch": 1,
      "note": 36,
      "vel": 86,
      "dur": 25
    },
    {
      "t": 1378.6,
      "ch": 1,
      "note": 38,
      "vel": 91,
      "dur": 25
    },
    {
      "t": 1378.6,
      "ch": 1,
      "note": 40,
      "vel": 92,
      "dur": 25
    },
    {
      "t": 1378.6,
      "ch": 1,
      "note": 42,
      "vel": 100,
      "dur": 25
    },
    {
      "t": 1378.6,
      "ch": 1,
      "note": 36,
      "vel": 93,
      "dur": 25
    },
    {
      "t": 1378.6,
      "ch": 1,
      "note": 38,
      "vel": 80,
      "dur": 25
    },
    {
      "t": 1378.6,
      "ch": 1,
      "note": 40,
      "vel": 91,
      "dur": 25
    },
    {
      "t": 1378.6,
      "ch": 1,
      "note": 42,
      "vel": 95,
      "dur": 25
    },
    {
      "t": 1378.6,
      "ch": 1,
      "note": 36,
      "vel": 103,
      "dur": 25
    },
    {
      "t": 1378.6,
      "ch": 1,
      "note": 38,
      "vel": 56,
      "dur": 25
    },
    {
      "t": 1378.6,
      "ch": 1,
      "note": 40,
      "vel": 85,
      "dur": 25
    },
    {
      "t": 1378.6,
      "ch": 1,
      "note": 42,
      "vel": 94,
      "dur": 25
    },
    {
      "t": 1378.6,
      "ch": 1,
      "note": 36,
      "vel": 79,
      "dur": 25
    },
    {
      "t": 1378.6,
      "ch": 1,
      "note": 38,
      "vel": 73,
      "dur": 25
    },
    {
      "t": 1378.6,
      "ch": 1,
      "note": 40,
      "vel": 75,
      "dur": 25
    },
    {
      "t": 1378.6,
      "ch": 1,
      "note": 42,
      "vel": 111,
      "dur": 25
    },
    {
      "t": 1378.6,
      "ch": 1,
      "note": 36,
      "vel": 92,
      "dur": 25
    },
    {
      "t": 1378.6,
      "ch": 1,
      "note": 38,
      "vel": 96,
      "dur": 25
    },
    {
      "t": 1378.6,
      "ch": 1,
      "note": 40,
      "vel": 65,
      "dur": 25
    },
    {
      "t": 1378.6,
      "ch": 1,
      "note": 42,
      "vel": 89,
      "dur": 25
    },
    {
      "t": 1378.6,
      "ch": 1,
      "note": 36,
      "vel": 88,
      "dur": 25
    },
    {
      "t": 1378.6,
      "ch": 1,
      "note": 38,
      "vel": 67,
      "dur": 25
    },
    {
      "t": 1378.6,
      "ch": 1,
      "note": 40,
      "vel": 88,
      "dur": 25
    },
    {
      "t": 1378.6,
      "ch": 1,
      "note": 42,
      "vel": 77,
      "dur": 25
    },
    {
      "t": 1378.6,
      "ch": 1,
      "note": 36,
      "vel": 96,
      "dur": 25
    },
    {
      "t": 1378.6,
      "ch": 1,
      "note": 38,
      "vel": 87,
      "dur": 25
    },
    {
      "t": 1378.6,
      "ch": 1,
      "note": 40,
      "vel": 104,
      "dur": 25
    },
    {
      "t": 1378.6,
      "ch": 1,
      "note": 42,
      "vel": 86,
      "dur": 25
    },
    {
      "t": 1378.6,
      "ch": 1,
      "note": 36,
      "vel": 73,
      "dur": 25
    },
    {
      "t": 1378.6,
      "ch": 1,
      "note": 38,
      "vel": 83,
      "dur": 25
    },
    {
      "t": 1378.6,
      "ch": 1,
      "note": 40,
      "vel": 84,
      "dur": 25
    },
    {
      "t": 1378.6,
      "ch": 1,
      "note": 42,
      "vel": 93,
      "dur": 25
    },
    {
      "t": 1378.6,
      "ch": 1,
      "note": 36,
      "vel": 107,
      "dur": 25
    },
    {
      "t": 1378.6,
      "ch": 1,
      "note": 38,
      "vel": 96,
      "dur": 25
    },
    {
      "t": 1378.6,
      "ch": 1,
      "note": 40,
      "vel": 86,
      "dur": 25
    },
    {
      "t": 1378.6,
      "ch": 1,
      "note": 42,
      "vel": 70,
      "dur": 25
    },
    {
      "t": 1378.6,
      "ch": 1,
      "note": 36,
      "vel": 93,
      "dur": 25
    },
    {
      "t": 1378.6,
      "ch": 1,
      "note": 38,
      "vel": 95,
      "dur": 25
    },
    {
      "t": 1378.6,
      "ch": 1,
      "note": 40,
      "vel": 94,
      "dur": 25
    },
    {
      "t": 1378.6,
      "ch": 1,
      "note": 42,
      "vel": 83,
      "dur": 25
    },
    {
      "t": 1378.6,
      "ch": 1,
      "note": 36,
      "vel": 109,
      "dur": 25
    },
    {
      "t": 1378.6,
      "ch": 1,
      "note": 38,
      "vel": 113,
      "dur": 25
    },
    {
      "t": 1378.6,
      "ch": 1,
      "note": 40,
      "vel": 70,
      "dur": 25
    },
    {
      "t": 1378.6,
      "ch": 1,
      "note": 42,
      "vel": 76,
      "dur": 25
    },
    {
      "t": 1378.6,
      "ch": 1,
      "note": 36,
      "vel": 102,
      "dur": 25
    },
    {
      "t": 1378.6,
      "ch": 1,
      "note": 38,
      "vel": 66,
      "dur": 25
    },
    {
      "t": 1378.6,
      "ch": 1,
      "note": 40,
      "vel": 75,
      "dur": 25
    },
    {
      "t": 1378.6,
      "ch": 1,
      "note": 42,
      "vel": 81,
      "dur": 25
    },
    {
      "t": 1378.6,
      "ch": 1,
      "note": 36,
      "vel": 61,
      "dur": 25
    },
    {
      "t": 1378.6,
      "ch": 1,
      "note": 38,
      "vel": 86,
      "dur": 25
    },
    {
      "t": 1378.6,
      "ch": 1,
      "note": 40,
      "vel": 67,
      "dur": 25
    },
    {
      "t": 1378.6,
      "ch": 1,
      "note": 42,
      "vel": 94,
      "dur": 25
    },
    {
      "t": 1378.6,
      "ch": 1,
      "note": 36,
      "vel": 105,
      "dur": 25
    },
    {
      "t": 1378.6,
      "ch": 1,
      "note": 38,
      "vel": 68,
      "dur": 25
    },
    {
      "t": 1378.6,
      "ch": 1,
      "note": 40,
      "vel": 99,
      "dur": 25
    },
    {
      "t": 1378.6,
      "ch": 1,
      "note": 42,
      "vel": 90,
      "dur": 25
    },
    {
      "t": 1378.6,
      "ch": 1,
      "note": 36,
      "vel": 96,
      "dur": 25
    },
    {
      "t": 1378.6,
      "ch": 1,
      "note": 38,
      "vel": 58,
      "dur": 25
    },
    {
      "t": 1378.6,
      "ch": 1,
      "note": 40,
      "vel": 87,
      "dur": 25
    },
    {
      "t": 1378.6,
      "ch": 1,
      "note": 42,
      "vel": 69,
      "dur": 25
    },
    {
      "t": 1378.6,
      "ch": 1,
      "note": 36,
      "vel": 83,
      "dur": 25
    },
    {
      "t": 1378.6,
      "ch": 1,
      "note": 38,
      "vel": 76,
      "dur": 25
    },
    {
      "t": 1378.6,
      "ch": 1,
      "note": 40,
      "vel": 97,
      "dur": 25
    },
    {
      "t": 1378.6,
      "ch": 1,
      "note": 42,
      "vel": 96,
      "dur": 25
    },
    {
      "t": 1378.6,
      "ch": 1,
      "note": 36,
      "vel": 73,
      "dur": 25
    },
    {
      "t": 1378.6,
      "ch": 1,
      "note": 38,
      "vel": 65,
      "dur": 25
    },
    {
      "t": 1378.6,
      "ch": 1,
      "note": 40,
      "vel": 76,
      "dur": 25
    },
    {
      "t": 1378.6,
      "ch": 1,
      "note": 42,
      "vel": 91,
      "dur": 25
    },
    {
      "t": 1378.6,
      "ch": 1,
      "note": 36,
      "vel": 92,
      "dur": 25
    },
    {
      "t": 1378.6,
      "ch": 1,
      "note": 38,
      "vel": 92,
      "dur": 25
    },
    {
      "t": 1378.6,
      "ch": 1,
      "note": 40,
      "vel": 100,
      "dur": 25
    },
    {
      "t": 1378.6,
      "ch": 1,
      "note": 42,
      "vel": 113,
      "dur": 25
    },
    {
      "t": 1378.6,
      "ch": 1,
      "note": 36,
      "vel": 70,
      "dur": 25
    },
    {
      "t": 1378.6,
      "ch": 1,
      "note": 38,
      "vel": 69,
      "dur": 25
    },
    {
      "t": 1378.6,
      "ch": 1,
      "note": 40,
      "vel": 77,
      "dur": 25
    },
    {
      "t": 1378.6,
      "ch": 1,
      "note": 42,
      "vel": 88,
      "dur": 25
    },
    {
      "t": 1378.6,
      "ch": 1,
      "note": 36,
      "vel": 96,
      "dur": 25
    },
    {
      "t": 1378.6,
      "ch": 1,
      "note": 38,
      "vel": 94,
      "dur": 25
    },
    {
      "t": 1378.6,
      "ch": 1,
      "note": 40,
      "vel": 67,
      "dur": 25
    },
    {
      "t": 1378.6,
      "ch": 1,
      "note": 42,
      "vel": 73,
      "dur": 25
    },
    {
      "t": 1378.6,
      "ch": 1,
      "note": 36,
      "vel": 74,
      "dur": 25
    },
    {
      "t": 1378.6,
      "ch": 1,
      "note": 38,
      "vel": 70,
      "dur": 25
    },
    {
      "t": 1378.6,
      "ch": 1,
      "note": 40,
      "vel": 82,
      "dur": 25
    },
    {
      "t": 1378.6,
      "ch": 1,
      "note": 42,
      "vel": 87,
      "dur": 25
    },
    {
      "t": 1378.6,
      "ch": 1,
      "note": 36,
      "vel": 92,
      "dur": 25
    },
    {
      "t": 1378.6,
      "ch": 1,
      "note": 38,
      "vel": 66,
      "dur": 25
    },
    {
      "t": 1378.6,
      "ch": 1,
      "note": 40,
      "vel": 71,
      "dur": 25
    },
    {
      "t": 1378.6,
      "ch": 1,
      "note": 42,
      "vel": 84,
      "dur": 25
    },
    {
      "t": 1378.6,
      "ch": 1,
      "note": 36,
      "vel": 90,
      "dur": 25
    },
    {
      "t": 1378.6,
      "ch": 1,
      "note": 38,
      "vel": 89,
      "dur": 25
    },
    {
      "t": 1378.6,
      "ch": 1,
      "note": 40,
      "vel": 72,
      "dur": 25
    },
    {
      "t": 1378.6,
      "ch": 1,
      "note": 42,
      "vel": 84,
      "dur": 25
    },
    {
      "t": 1378.6,
      "ch": 1,
      "note": 36,
      "vel": 65,
      "dur": 25
    },
    {
      "t": 1378.6,
      "ch": 1,
      "note": 38,
      "vel": 74,
      "dur": 25
    },
    {
      "t": 1378.6,
      "ch": 1,
      "note": 40,
      "vel": 81,
      "dur": 25
    },
    {
      "t": 1378.6,
      "ch": 1,
      "note": 42,
      "vel": 96,
      "dur": 25
    },
    {
      "t": 1378.6,
      "ch": 1,
      "note": 36,
      "vel": 93,
      "dur": 25
    },
    {
      "t": 1378.6,
      "ch": 1,
      "note": 38,
      "vel": 70,
      "dur": 25
    },
    {
      "t": 1378.6,
      "ch": 1,
      "note": 40,
      "vel": 83,
      "dur": 25
    },
    {
      "t": 1378.6,
      "ch": 1,
      "note": 42,
      "vel": 84,
      "dur": 25
    },
    {
      "t": 1378.6,
      "ch": 1,
      "note": 36,
      "vel": 81,
      "dur": 25
    },
    {
      "t": 1378.6,
      "ch": 1,
      "note": 38,
      "vel": 79,
      "dur": 25
    },
    {
      "t": 1378.6,
      "ch": 1,
      "note": 40,
      "vel": 90,
      "dur": 25
    },
    {
      "t": 1378.6,
      "ch": 1,
      "note": 42,
      "vel": 80,
      "dur": 25
    },
    {
      "t": 1378.6,
      "ch": 1,
      "note": 36,
      "vel": 103,
      "dur": 25
    },
    {
      "t": 1378.6,
      "ch": 1,
      "note": 38,
      "vel": 76,
      "dur": 25
    },
    {
      "t": 1378.6,
      "ch": 1,
      "note": 40,
      "vel": 96,
      "dur": 25
    },
    {
      "t": 1378.6,
      "ch": 1,
      "note": 42,
      "vel": 59,
      "dur": 25
    },
    {
      "t": 1378.6,
      "ch": 1,
      "note": 36,
      "vel": 74,
      "dur": 25
    },
    {
      "t": 1378.6,
      "ch": 1,
      "note": 38,
      "vel": 86,
      "dur": 25
    },
    {
      "t": 1378.6,
      "ch": 1,
      "note": 40,
      "vel": 91,
      "dur": 25
    },
    {
      "t": 1378.6,
      "ch": 1,
      "note": 42,
      "vel": 81,
      "dur": 25
    },
    {
      "t": 1378.6,
      "ch": 1,
      "note": 36,
      "vel": 82,
      "dur": 25
    },
    {
      "t": 1378.6,
      "ch": 1,
      "note": 38,
      "vel": 87,
      "dur": 25
    },
    {
      "t": 1378.6,
      "ch": 1,
      "note": 40,
      "vel": 82,
      "dur": 25
    },
    {
      "t": 1378.6,
      "ch": 1,
      "note": 42,
      "vel": 86,
      "dur": 25
    },
    {
      "t": 1378.6,
      "ch": 1,
      "note": 36,
      "vel": 93,
      "dur": 25
    },
    {
      "t": 1378.6,
      "ch": 1,
      "note": 38,
      "vel": 71,
      "dur": 25
    },
    {
      "t": 1378.6,
      "ch": 1,
      "note": 40,
      "vel": 95,
      "dur": 25
    },
    {
      "t": 1378.6,
      "ch": 1,
      "note": 42,
      "vel": 96,
      "dur": 25
    },
    {
      "t": 1378.6,
      "ch": 1,
      "note": 36,
      "vel": 88,
      "dur": 25
    },
    {
      "t": 1378.6,
      "ch": 1,
      "note": 38,
      "vel": 58,
      "dur": 25
    },
    {
      "t": 1378.6,
      "ch": 1,
      "note": 40,
      "vel": 98,
      "dur": 25
    },
    {
      "t": 1378.6,
      "ch": 1,
      "note": 42,
      "vel": 67,
      "dur": 25
    },
    {
      "t": 1378.6,
      "ch": 1,
      "note": 36,
      "vel": 89,
      "dur": 25
    },
    {
      "t": 1378.6,
      "ch": 1,
      "note": 38,
      "vel": 72,
      "dur": 25
    },
    {
      "t": 1378.6,
      "ch": 1,
      "note": 40,
      "vel": 75,
      "dur": 25
    },
    {
      "t": 1378.6,
      "ch": 1,
      "note": 42,
      "vel": 100,
      "dur": 25
    },
    {
      "t": 1378.6,
      "ch": 1,
      "note": 36,
      "vel": 70,
      "dur": 25
    },
    {
      "t": 1378.6,
      "ch": 1,
      "note": 38,
      "vel": 77,
      "dur": 25
    },
    {
      "t": 1378.6,
      "ch": 1,
      "note": 40,
      "vel": 95,
      "dur": 25
    },
    {
      "t": 1378.6,
      "ch": 1,
      "note": 42,
      "vel": 70,
      "dur": 25
    },
    {
      "t": 1378.6,
      "ch": 1,
      "note": 36,
      "vel": 81,
      "dur": 25
    },
    {
      "t": 1378.6,
      "ch": 1,
      "note": 38,
      "vel": 101,
      "dur": 25
    },
    {
      "t": 1378.6,
      "ch": 1,
      "note": 40,
      "vel": 82,
      "dur": 25
    },
    {
      "t": 1378.6,
      "ch": 1,
      "note": 42,
      "vel": 81,
      "dur": 25
    },
    {
      "t": 1378.6,
      "ch": 1,
      "note": 36,
      "vel": 78,
      "dur": 25
    },
    {
      "t": 1378.6,
      "ch": 1,
      "note": 38,
      "vel": 99,
      "dur": 25
    },
    {
      "t": 1378.6,
      "ch": 1,
      "note": 40,
      "vel": 103,
      "dur": 25
    },
    {
      "t": 1378.6,
      "ch": 1,
      "note": 42,
      "vel": 75,
      "dur": 25
    },
    {
      "t": 1378.6,
      "ch": 1,
      "note": 36,
      "vel": 104,
      "dur": 25
    },
    {
      "t": 1378.6,
      "ch": 1,
      "note": 38,
      "vel": 89,
      "dur": 25
    },
    {
      "t": 1378.6,
      "ch": 1,
      "note": 40,
      "vel": 77,
      "dur": 25
    },
    {
      "t": 1378.6,
      "ch": 1,
      "note": 42,
      "vel": 79,
      "dur": 25
    },
    {
      "t": 1378.6,
      "ch": 1,
      "note": 36,
      "vel": 79,
      "dur": 25
    },
    {
      "t": 1378.6,
      "ch": 1,
      "note": 38,
      "vel": 93,
      "dur": 25
    },
    {
      "t": 1378.6,
      "ch": 1,
      "note": 40,
      "vel": 56,
      "dur": 25
    },
    {
      "t": 1378.6,
      "ch": 1,
      "note": 42,
      "vel": 86,
      "dur": 25
    },
    {
      "t": 1378.6,
      "ch": 1,
      "note": 36,
      "vel": 83,
      "dur": 25
    },
    {
      "t": 1378.6,
      "ch": 1,
      "note": 38,
      "vel": 87,
      "dur": 25
    },
    {
      "t": 1378.6,
      "ch": 1,
      "note": 40,
      "vel": 67,
      "dur": 25
    },
    {
      "t": 1378.6,
      "ch": 1,
      "note": 42,
      "vel": 68,
      "dur": 25
    },
    {
      "t": 1378.6,
      "ch": 1,
      "note": 36,
      "vel": 100,
      "dur": 25
    },
    {
      "t": 1378.6,
      "ch": 1,
      "note": 38,
      "vel": 82,
      "dur": 25
    },
    {
      "t": 1378.6,
      "ch": 1,
      "note": 40,
      "vel": 110,
      "dur": 25
    },
    {
      "t": 1378.6,
      "ch": 1,
      "note": 42,
      "vel": 80,
      "dur": 25
    },
    {
      "t": 1378.6,
      "ch": 1,
      "note": 36,
      "vel": 56,
      "dur": 25
    },
    {
      "t": 1378.6,
      "ch": 1,
      "note": 38,
      "vel": 73,
      "dur": 25
    },
    {
      "t": 1378.6,
      "ch": 1,
      "note": 40,
      "vel": 86,
      "dur": 25
    },
    {
      "t": 1378.6,
      "ch": 1,
      "note": 42,
      "vel": 79,
      "dur": 25
    },
    {
      "t": 1378.6,
      "ch": 1,
      "note": 36,
      "vel": 89,
      "dur": 25
    },
    {
      "t": 1378.6,
      "ch": 1,
      "note": 38,
      "vel": 100,
      "dur": 25
    },
    {
      "t": 1378.6,
      "ch": 1,
      "note": 40,
      "vel": 90,
      "dur": 25
    },
    {
      "t": 1378.6,
      "ch": 1,
      "note": 42,
      "vel": 64,
      "dur": 25
    },
    {
      "t": 1378.6,
      "ch": 1,
      "note": 36,
      "vel": 91,
      "dur": 25
    },
    {
      "t": 1378.6,
      "ch": 1,
      "note": 38,
      "vel": 81,
      "dur": 25
    },
    {
      "t": 1378.6,
      "ch": 1,
      "note": 40,
      "vel": 76,
      "dur": 25
    },
    {
      "t": 1378.6,
      "ch": 1,
      "note": 42,
      "vel": 102,
      "dur": 25
    },
    {
      "t": 1378.6,
      "ch": 1,
      "note": 36,
      "vel": 85,
      "dur": 25
    },
    {
      "t": 1378.6,
      "ch": 1,
      "note": 38,
      "vel": 105,
      "dur": 25
    },
    {
      "t": 1378.6,
      "ch": 1,
      "note": 40,
      "vel": 75,
      "dur": 25
    },
    {
      "t": 1378.6,
      "ch": 1,
      "note": 42,
      "vel": 59,
      "dur": 25
    },
    {
      "t": 1378.6,
      "ch": 1,
      "note": 36,
      "vel": 77,
      "dur": 25
    },
    {
      "t": 1378.6,
      "ch": 1,
      "note": 38,
      "vel": 110,
      "dur": 25
    },
    {
      "t": 1378.6,
      "ch": 1,
      "note": 40,
      "vel": 106,
      "dur": 25
    },
    {
      "t": 1378.6,
      "ch": 1,
      "note": 42,
      "vel": 95,
      "dur": 25
    },
    {
      "t": 1378.6,
      "ch": 1,
      "note": 36,
      "vel": 84,
      "dur": 25
    },
    {
      "t": 1378.6,
      "ch": 1,
      "note": 38,
      "vel": 57,
      "dur": 25
    },
    {
      "t": 1378.6,
      "ch": 1,
      "note": 40,
      "vel": 76,
      "dur": 25
    },
    {
      "t": 1378.6,
      "ch": 1,
      "note": 42,
      "vel": 54,
      "dur": 25
    },
    {
      "t": 1378.6,
      "ch": 1,
      "note": 36,
      "vel": 79,
      "dur": 25
    },
    {
      "t": 1378.6,
      "ch": 1,
      "note": 38,
      "vel": 82,
      "dur": 25
    },
    {
      "t": 1378.6,
      "ch": 1,
      "note": 40,
      "vel": 63,
      "dur": 25
    },
    {
      "t": 1378.6,
      "ch": 1,
      "note": 42,
      "vel": 74,
      "dur": 25
    },
    {
      "t": 1378.6,
      "ch": 1,
      "note": 36,
      "vel": 73,
      "dur": 25
    },
    {
      "t": 1378.6,
      "ch": 1,
      "note": 38,
      "vel": 93,
      "dur": 25
    },
    {
      "t": 1378.6,
      "ch": 1,
      "note": 40,
      "vel": 56,
      "dur": 25
    },
    {
      "t": 1378.6,
      "ch": 1,
      "note": 42,
      "vel": 68,
      "dur": 25
    },
    {
      "t": 1378.6,
      "ch": 1,
      "note": 36,
      "vel": 103,
      "dur": 25
    },
    {
      "t": 1378.6,
      "ch": 1,
      "note": 38,
      "vel": 66,
      "dur": 25
    },
    {
      "t": 1378.6,
      "ch": 1,
      "note": 40,
      "vel": 99,
      "dur": 25
    },
    {
      "t": 1378.6,
      "ch": 1,
      "note": 42,
      "vel": 105,
      "dur": 25
    },
    {
      "t": 1378.6,
      "ch": 1,
      "note": 36,
      "vel": 89,
      "dur": 25
    },
    {
      "t": 1378.6,
      "ch": 1,
      "note": 38,
      "vel": 99,
      "dur": 25
    },
    {
      "t": 1378.6,
      "ch": 1,
      "note": 40,
      "vel": 79,
      "dur": 25
    },
    {
      "t": 1378.6,
      "ch": 1,
      "note": 42,
      "vel": 97,
      "dur": 25
    },
    {
      "t": 1378.6,
      "ch": 1,
      "note": 36,
      "vel": 113,
      "dur": 25
    },
    {
      "t": 1378.6,
      "ch": 1,
      "note": 38,
      "vel": 74,
      "dur": 25
    },
    {
      "t": 1378.6,
      "ch": 1,
      "note": 40,
      "vel": 76,
      "dur": 25
    },
    {
      "t": 1378.6,
      "ch": 1,
      "note": 42,
      "vel": 101,
      "dur": 25
    },
    {
      "t": 1378.6,
      "ch": 1,
      "note": 36,
      "vel": 90,
      "dur": 25
    },
    {
      "t": 1378.6,
      "ch": 1,
      "note": 38,
      "vel": 87,
      "dur": 25
    },
    {
      "t": 1378.6,
      "ch": 1,
      "note": 40,
      "vel": 70,
      "dur": 25
    },
    {
      "t": 1378.6,
      "ch": 1,
      "note": 42,
      "vel": 90,
      "dur": 25
    },
    {
      "t": 1378.6,
      "ch": 1,
      "note": 36,
      "vel": 97,
      "dur": 25
    },
    {
      "t": 1378.6,
      "ch": 1,
      "note": 38,
      "vel": 73,
      "dur": 25
    },
    {
      "t": 1378.6,
      "ch": 1,
      "note": 40,
      "vel": 91,
      "dur": 25
    },
    {
      "t": 1378.6,
      "ch": 1,
      "note": 42,
      "vel": 72,
      "dur": 25
    },
    {
      "t": 1378.6,
      "ch": 1,
      "note": 36,
      "vel": 97,
      "dur": 25
    },
    {
      "t": 1378.6,
      "ch": 1,
      "note": 38,
      "vel": 62,
      "dur": 25
    },
    {
      "t": 1378.6,
      "ch": 1,
      "note": 40,
      "vel": 85,
      "dur": 25
    },
    {
      "t": 1378.6,
      "ch": 1,
      "note": 42,
      "vel": 105,
      "dur": 25
    },
    {
      "t": 1378.6,
      "ch": 1,
      "note": 36,
      "vel": 114,
      "dur": 25
    },
    {
      "t": 1378.6,
      "ch": 1,
      "note": 38,
      "vel": 73,
      "dur": 25
    },
    {
      "t": 1378.6,
      "ch": 1,
      "note": 40,
      "vel": 80,
      "dur": 25
    },
    {
      "t": 1378.6,
      "ch": 1,
      "note": 42,
      "vel": 97,
      "dur": 25
    },
    {
      "t": 1378.6,
      "ch": 1,
      "note": 36,
      "vel": 79,
      "dur": 25
    },
    {
      "t": 1378.6,
      "ch": 1,
      "note": 38,
      "vel": 82,
      "dur": 25
    },
    {
      "t": 1378.6,
      "ch": 1,
      "note": 40,
      "vel": 68,
      "dur": 25
    },
    {
      "t": 1378.6,
      "ch": 1,
      "note": 42,
      "vel": 78,
      "dur": 25
    },
    {
      "t": 1378.6,
      "ch": 1,
      "note": 36,
      "vel": 76,
      "dur": 25
    },
    {
      "t": 1378.6,
      "ch": 1,
      "note": 38,
      "vel": 66,
      "dur": 25
    },
    {
      "t": 1378.6,
      "ch": 1,
      "note": 40,
      "vel": 78,
      "dur": 25
    },
    {
      "t": 1378.6,
      "ch": 1,
      "note": 42,
      "vel": 69,
      "dur": 25
    },
    {
      "t": 1378.6,
      "ch": 1,
      "note": 36,
      "vel": 82,
      "dur": 25
    },
    {
      "t": 1378.6,
      "ch": 1,
      "note": 38,
      "vel": 61,
      "dur": 25
    },
    {
      "t": 1378.6,
      "ch": 1,
      "note": 40,
      "vel": 90,
      "dur": 25
    },
    {
      "t": 1378.6,
      "ch": 1,
      "note": 42,
      "vel": 109,
      "dur": 25
    },
    {
      "t": 1378.6,
      "ch": 1,
      "note": 36,
      "vel": 90,
      "dur": 25
    },
    {
      "t": 1378.6,
      "ch": 1,
      "note": 38,
      "vel": 94,
      "dur": 25
    },
    {
      "t": 1378.6,
      "ch": 1,
      "note": 40,
      "vel": 76,
      "dur": 25
    },
    {
      "t": 1378.6,
      "ch": 1,
      "note": 42,
      "vel": 95,
      "dur": 25
    },
    {
      "t": 1378.6,
      "ch": 1,
      "note": 36,
      "vel": 110,
      "dur": 25
    },
    {
      "t": 1378.6,
      "ch": 1,
      "note": 38,
      "vel": 91,
      "dur": 25
    },
    {
      "t": 1378.6,
      "ch": 1,
      "note": 40,
      "vel": 83,
      "dur": 25
    },
    {
      "t": 1378.6,
      "ch": 1,
      "note": 42,
      "vel": 77,
      "dur": 25
    },
    {
      "t": 1378.6,
      "ch": 1,
      "note": 36,
      "vel": 94,
      "dur": 25
    },
    {
      "t": 1378.6,
      "ch": 1,
      "note": 38,
      "vel": 88,
      "dur": 25
    },
    {
      "t": 1378.6,
      "ch": 1,
      "note": 40,
      "vel": 107,
      "dur": 25
    },
    {
      "t": 1378.6,
      "ch": 1,
      "note": 42,
      "vel": 90,
      "dur": 25
    },
    {
      "t": 1378.6,
      "ch": 1,
      "note": 36,
      "vel": 65,
      "dur": 25
    },
    {
      "t": 1378.6,
      "ch": 1,
      "note": 38,
      "vel": 99,
      "dur": 25
    },
    {
      "t": 1378.6,
      "ch": 1,
      "note": 40,
      "vel": 92,
      "dur": 25
    },
    {
      "t": 1378.6,
      "ch": 1,
      "note": 42,
      "vel": 78,
      "dur": 25
    },
    {
      "t": 1378.6,
      "ch": 1,
      "note": 36,
      "vel": 68,
      "dur": 25
    },
    {
      "t": 1378.6,
      "ch": 1,
      "note": 38,
      "vel": 86,
      "dur": 25
    },
    {
      "t": 1378.6,
      "ch": 1,
      "note": 40,
      "vel": 98,
      "dur": 25
    },
    {
      "t": 1378.6,
      "ch": 1,
      "note": 42,
      "vel": 70,
      "dur": 25
    },
    {
      "t": 1378.6,
      "ch": 1,
      "note": 36,
      "vel": 80,
      "dur": 25
    },
    {
      "t": 1378.6,
      "ch": 1,
      "note": 38,
      "vel": 74,
      "dur": 25
    },
    {
      "t": 1378.6,
      "ch": 1,
      "note": 40,
      "vel": 85,
      "dur": 25
    },
    {
      "t": 1378.6,
      "ch": 1,
      "note": 42,
      "vel": 103,
      "dur": 25
    },
    {
      "t": 1378.6,
      "ch": 1,
      "note": 36,
      "vel": 103,
      "dur": 25
    },
    {
      "t": 1378.6,
      "ch": 1,
      "note": 38,
      "vel": 93,
      "dur": 25
    },
    {
      "t": 1378.6,
      "ch": 1,
      "note": 40,
      "vel": 71,
      "dur": 25
    },
    {
      "t": 1378.6,
      "ch": 1,
      "note": 42,
      "vel": 69,
      "dur": 25
    },
    {
      "t": 1378.6,
      "ch": 1,
      "note": 36,
      "vel": 92,
      "dur": 25
    },
    {
      "t": 1378.6,
      "ch": 1,
      "note": 38,
      "vel": 58,
      "dur": 25
    },
    {
      "t": 1378.6,
      "ch": 1,
      "note": 40,
      "vel": 76,
      "dur": 25
    },
    {
      "t": 1378.6,
      "ch": 1,
      "note": 42,
      "vel": 86,
      "dur": 25
    },
    {
      "t": 1378.6,
      "ch": 1,
      "note": 36,
      "vel": 86,
      "dur": 25
    },
    {
      "t": 1378.6,
      "ch": 1,
      "note": 38,
      "vel": 74,
      "dur": 25
    },
    {
      "t": 1378.6,
      "ch": 1,
      "note": 40,
      "vel": 87,
      "dur": 25
    },
    {
      "t": 1378.6,
      "ch": 1,
      "note": 42,
      "vel": 73,
      "dur": 25
    },
    {
      "t": 1378.6,
      "ch": 1,
      "note": 36,
      "vel": 73,
      "dur": 25
    },
    {
      "t": 1378.6,
      "ch": 1,
      "note": 38,
      "vel": 86,
      "dur": 25
    },
    {
      "t": 1378.6,
      "ch": 1,
      "note": 40,
      "vel": 92,
      "dur": 25
    },
    {
      "t": 1378.6,
      "ch": 1,
      "note": 42,
      "vel": 77,
      "dur": 25
    },
    {
      "t": 1378.6,
      "ch": 1,
      "note": 36,
      "vel": 60,
      "dur": 25
    },
    {
      "t": 1378.6,
      "ch": 1,
      "note": 38,
      "vel": 77,
      "dur": 25
    },
    {
      "t": 1378.6,
      "ch": 1,
      "note": 40,
      "vel": 66,
      "dur": 25
    },
    {
      "t": 1378.6,
      "ch": 1,
      "note": 42,
      "vel": 92,
      "dur": 25
    },
    {
      "t": 1378.6,
      "ch": 1,
      "note": 36,
      "vel": 67,
      "dur": 25
    },
    {
      "t": 1378.6,
      "ch": 1,
      "note": 38,
      "vel": 82,
      "dur": 25
    },
    {
      "t": 1378.6,
      "ch": 1,
      "note": 40,
      "vel": 77,
      "dur": 25
    },
    {
      "t": 1378.6,
      "ch": 1,
      "note": 42,
      "vel": 59,
      "dur": 25
    },
    {
      "t": 1378.6,
      "ch": 1,
      "note": 36,
      "vel": 97,
      "dur": 25
    },
    {
      "t": 1378.6,
      "ch": 1,
      "note": 38,
      "vel": 82,
      "dur": 25
    },
    {
      "t": 1378.6,
      "ch": 1,
      "note": 40,
      "vel": 100,
      "dur": 25
    },
    {
      "t": 1378.6,
      "ch": 1,
      "note": 42,
      "vel": 77,
      "dur": 25
    },
    {
      "t": 1378.6,
      "ch": 1,
      "note": 36,
      "vel": 79,
      "dur": 25
    },
    {
      "t": 1378.6,
      "ch": 1,
      "note": 38,
      "vel": 91,
      "dur": 25
    },
    {
      "t": 1378.6,
      "ch": 1,
      "note": 40,
      "vel": 65,
      "dur": 25
    },
    {
      "t": 1378.6,
      "ch": 1,
      "note": 42,
      "vel": 73,
      "dur": 25
    },
    {
      "t": 1378.6,
      "ch": 1,
      "note": 36,
      "vel": 95,
      "dur": 25
    },
    {
      "t": 1378.6,
      "ch": 1,
      "note": 38,
      "vel": 62,
      "dur": 25
    },
    {
      "t": 1378.6,
      "ch": 1,
      "note": 40,
      "vel": 90,
      "dur": 25
    },
    {
      "t": 1378.6,
      "ch": 1,
      "note": 42,
      "vel": 91,
      "dur": 25
    },
    {
      "t": 1378.6,
      "ch": 1,
      "note": 36,
      "vel": 93,
      "dur": 25
    },
    {
      "t": 1378.6,
      "ch": 1,
      "note": 38,
      "vel": 59,
      "dur": 25
    },
    {
      "t": 1378.6,
      "ch": 1,
      "note": 40,
      "vel": 82,
      "dur": 25
    },
    {
      "t": 1378.6,
      "ch": 1,
      "note": 42,
      "vel": 96,
      "dur": 25
    },
    {
      "t": 1378.6,
      "ch": 1,
      "note": 36,
      "vel": 64,
      "dur": 25
    },
    {
      "t": 1378.6,
      "ch": 1,
      "note": 38,
      "vel": 85,
      "dur": 25
    },
    {
      "t": 1378.6,
      "ch": 1,
      "note": 40,
      "vel": 80,
      "dur": 25
    },
    {
      "t": 1378.6,
      "ch": 1,
      "note": 42,
      "vel": 54,
      "dur": 25
    },
    {
      "t": 1378.6,
      "ch": 1,
      "note": 36,
      "vel": 86,
      "dur": 25
    },
    {
      "t": 1378.6,
      "ch": 1,
      "note": 38,
      "vel": 81,
      "dur": 25
    },
    {
      "t": 1378.6,
      "ch": 1,
      "note": 40,
      "vel": 91,
      "dur": 25
    },
    {
      "t": 1378.6,
      "ch": 1,
      "note": 42,
      "vel": 66,
      "dur": 25
    },
    {
      "t": 1378.6,
      "ch": 1,
      "note": 36,
      "vel": 99,
      "dur": 25
    },
    {
      "t": 1378.6,
      "ch": 1,
      "note": 38,
      "vel": 89,
      "dur": 25
    },
    {
      "t": 1378.6,
      "ch": 1,
      "note": 40,
      "vel": 84,
      "dur": 25
    },
    {
      "t": 1378.6,
      "ch": 1,
      "note": 42,
      "vel": 84,
      "dur": 25
    },
    {
      "t": 1378.6,
      "ch": 1,
      "note": 36,
      "vel": 82,
      "dur": 25
    },
    {
      "t": 1378.6,
      "ch": 1,
      "note": 38,
      "vel": 86,
      "dur": 25
    },
    {
      "t": 1378.6,
      "ch": 1,
      "note": 40,
      "vel": 83,
      "dur": 25
    },
    {
      "t": 1378.6,
      "ch": 1,
      "note": 42,
      "vel": 103,
      "dur": 25
    },
    {
      "t": 1378.6,
      "ch": 1,
      "note": 36,
      "vel": 89,
      "dur": 25
    },
    {
      "t": 1378.6,
      "ch": 7,
      "note": 48,
      "vel": 83,
      "dur": 80
    },
    {
      "t": 1378.6,
      "ch": 7,
      "note": 45,
      "vel": 77,
      "dur": 80
    },
    {
      "t": 1378.6,
      "ch": 7,
      "note": 36,
      "vel": 79,
      "dur": 80
    },
    {
      "t": 1378.6,
      "ch": 7,
      "note": 38,
      "vel": 81,
      "dur": 80
    },
    {
      "t": 1378.7,
      "ch": 1,
      "note": 38,
      "vel": 67,
      "dur": 25
    },
    {
      "t": 1378.8,
      "ch": 1,
      "note": 40,
      "vel": 77,
      "dur": 25
    },
    {
      "t": 1378.8,
      "ch": 6,
      "note": 65,
      "vel": 24,
      "dur": 604
    },
    {
      "t": 1378.8,
      "ch": 5,
      "note": 62,
      "vel": 37,
      "dur": 906
    },
    {
      "t": 1378.8,
      "ch": 1,
      "note": 42,
      "vel": 88,
      "dur": 25
    },
    {
      "t": 1378.9,
      "ch": 1,
      "note": 36,
      "vel": 68,
      "dur": 25
    },
    {
      "t": 1378.9,
      "ch": 7,
      "note": 36,
      "vel": 76,
      "dur": 80
    },
    {
      "t": 1379,
      "ch": 1,
      "note": 38,
      "vel": 78,
      "dur": 25
    },
    {
      "t": 1379.1,
      "ch": 1,
      "note": 40,
      "vel": 62,
      "dur": 25
    },
    {
      "t": 1379.2,
      "ch": 1,
      "note": 42,
      "vel": 62,
      "dur": 25
    },
    {
      "t": 1379.2,
      "ch": 1,
      "note": 36,
      "vel": 83,
      "dur": 25
    },
    {
      "t": 1379.2,
      "ch": 7,
      "note": 48,
      "vel": 77,
      "dur": 80
    },
    {
      "t": 1379.2,
      "ch": 7,
      "note": 36,
      "vel": 76,
      "dur": 80
    },
    {
      "t": 1379.3,
      "ch": 1,
      "note": 38,
      "vel": 80,
      "dur": 25
    },
    {
      "t": 1379.4,
      "ch": 1,
      "note": 40,
      "vel": 100,
      "dur": 25
    },
    {
      "t": 1379.4,
      "ch": 7,
      "note": 45,
      "vel": 63,
      "dur": 80
    },
    {
      "t": 1379.4,
      "ch": 7,
      "note": 38,
      "vel": 64,
      "dur": 80
    },
    {
      "t": 1379.5,
      "ch": 1,
      "note": 42,
      "vel": 72,
      "dur": 25
    },
    {
      "t": 1379.6,
      "ch": 1,
      "note": 36,
      "vel": 80,
      "dur": 25
    },
    {
      "t": 1379.7,
      "ch": 1,
      "note": 38,
      "vel": 67,
      "dur": 25
    },
    {
      "t": 1379.7,
      "ch": 1,
      "note": 40,
      "vel": 91,
      "dur": 25
    },
    {
      "t": 1379.8,
      "ch": 1,
      "note": 42,
      "vel": 67,
      "dur": 25
    },
    {
      "t": 1379.9,
      "ch": 0,
      "note": 36,
      "vel": 101,
      "dur": 55
    },
    {
      "t": 1379.9,
      "ch": 1,
      "note": 36,
      "vel": 91,
      "dur": 25
    },
    {
      "t": 1379.9,
      "ch": 7,
      "note": 48,
      "vel": 78,
      "dur": 80
    },
    {
      "t": 1379.9,
      "ch": 7,
      "note": 36,
      "vel": 76,
      "dur": 80
    },
    {
      "t": 1380,
      "ch": 1,
      "note": 38,
      "vel": 95,
      "dur": 25
    },
    {
      "t": 1380.1,
      "ch": 1,
      "note": 40,
      "vel": 78,
      "dur": 25
    },
    {
      "t": 1380.2,
      "ch": 1,
      "note": 42,
      "vel": 57,
      "dur": 25
    },
    {
      "t": 1380.2,
      "ch": 1,
      "note": 36,
      "vel": 88,
      "dur": 25
    },
    {
      "t": 1380.2,
      "ch": 7,
      "note": 45,
      "vel": 71,
      "dur": 80
    },
    {
      "t": 1380.2,
      "ch": 7,
      "note": 36,
      "vel": 57,
      "dur": 80
    },
    {
      "t": 1380.2,
      "ch": 7,
      "note": 38,
      "vel": 56,
      "dur": 80
    },
    {
      "t": 1380.3,
      "ch": 1,
      "note": 38,
      "vel": 68,
      "dur": 25
    },
    {
      "t": 1380.4,
      "ch": 1,
      "note": 40,
      "vel": 76,
      "dur": 25
    },
    {
      "t": 1380.5,
      "ch": 1,
      "note": 42,
      "vel": 81,
      "dur": 25
    },
    {
      "t": 1380.6,
      "ch": 1,
      "note": 36,
      "vel": 78,
      "dur": 25
    },
    {
      "t": 1380.6,
      "ch": 7,
      "note": 48,
      "vel": 61,
      "dur": 80
    },
    {
      "t": 1380.6,
      "ch": 7,
      "note": 36,
      "vel": 65,
      "dur": 80
    },
    {
      "t": 1380.6,
      "ch": 1,
      "note": 38,
      "vel": 78,
      "dur": 25
    },
    {
      "t": 1380.7,
      "ch": 1,
      "note": 40,
      "vel": 70,
      "dur": 25
    },
    {
      "t": 1380.8,
      "ch": 1,
      "note": 42,
      "vel": 65,
      "dur": 25
    },
    {
      "t": 1380.9,
      "ch": 1,
      "note": 36,
      "vel": 75,
      "dur": 25
    },
    {
      "t": 1380.9,
      "ch": 0,
      "note": 36,
      "vel": 77,
      "dur": 55
    },
    {
      "t": 1381,
      "ch": 1,
      "note": 38,
      "vel": 71,
      "dur": 25
    },
    {
      "t": 1381,
      "ch": 1,
      "note": 40,
      "vel": 61,
      "dur": 25
    },
    {
      "t": 1381.1,
      "ch": 5,
      "note": 67,
      "vel": 28,
      "dur": 911
    },
    {
      "t": 1381.1,
      "ch": 1,
      "note": 42,
      "vel": 77,
      "dur": 25
    },
    {
      "t": 1381.2,
      "ch": 0,
      "note": 36,
      "vel": 113,
      "dur": 55
    },
    {
      "t": 1381.2,
      "ch": 1,
      "note": 36,
      "vel": 88,
      "dur": 25
    },
    {
      "t": 1381.2,
      "ch": 7,
      "note": 48,
      "vel": 53,
      "dur": 80
    },
    {
      "t": 1381.2,
      "ch": 7,
      "note": 45,
      "vel": 69,
      "dur": 80
    },
    {
      "t": 1381.2,
      "ch": 7,
      "note": 36,
      "vel": 70,
      "dur": 80
    },
    {
      "t": 1381.2,
      "ch": 7,
      "note": 38,
      "vel": 65,
      "dur": 80
    },
    {
      "t": 1381.3,
      "ch": 1,
      "note": 38,
      "vel": 77,
      "dur": 25
    },
    {
      "t": 1381.4,
      "ch": 1,
      "note": 40,
      "vel": 77,
      "dur": 25
    },
    {
      "t": 1381.4,
      "ch": 5,
      "note": 71,
      "vel": 43,
      "dur": 912
    },
    {
      "t": 1381.5,
      "ch": 1,
      "note": 42,
      "vel": 86,
      "dur": 25
    },
    {
      "t": 1381.5,
      "ch": 1,
      "note": 36,
      "vel": 77,
      "dur": 25
    },
    {
      "t": 1381.5,
      "ch": 7,
      "note": 36,
      "vel": 49,
      "dur": 80
    },
    {
      "t": 1381.6,
      "ch": 1,
      "note": 38,
      "vel": 69,
      "dur": 25
    },
    {
      "t": 1381.7,
      "ch": 1,
      "note": 40,
      "vel": 73,
      "dur": 25
    },
    {
      "t": 1381.8,
      "ch": 1,
      "note": 42,
      "vel": 65,
      "dur": 25
    },
    {
      "t": 1381.9,
      "ch": 1,
      "note": 36,
      "vel": 80,
      "dur": 25
    },
    {
      "t": 1381.9,
      "ch": 7,
      "note": 48,
      "vel": 78,
      "dur": 80
    },
    {
      "t": 1381.9,
      "ch": 7,
      "note": 36,
      "vel": 71,
      "dur": 80
    },
    {
      "t": 1381.9,
      "ch": 1,
      "note": 38,
      "vel": 93,
      "dur": 25
    },
    {
      "t": 1382,
      "ch": 1,
      "note": 40,
      "vel": 73,
      "dur": 25
    },
    {
      "t": 1382,
      "ch": 7,
      "note": 45,
      "vel": 68,
      "dur": 80
    },
    {
      "t": 1382,
      "ch": 7,
      "note": 38,
      "vel": 59,
      "dur": 80
    },
    {
      "t": 1382.1,
      "ch": 1,
      "note": 42,
      "vel": 62,
      "dur": 25
    },
    {
      "t": 1382.2,
      "ch": 1,
      "note": 36,
      "vel": 70,
      "dur": 25
    },
    {
      "t": 1382.2,
      "ch": 6,
      "note": 72,
      "vel": 6,
      "dur": 607
    },
    {
      "t": 1382.2,
      "ch": 5,
      "note": 69,
      "vel": 24,
      "dur": 911
    },
    {
      "t": 1382.3,
      "ch": 1,
      "note": 38,
      "vel": 81,
      "dur": 25
    },
    {
      "t": 1382.3,
      "ch": 1,
      "note": 40,
      "vel": 80,
      "dur": 25
    },
    {
      "t": 1382.4,
      "ch": 2,
      "note": 48,
      "vel": 0,
      "dur": 0
    },
    {
      "t": 1382.4,
      "ch": 2,
      "note": 60,
      "vel": 0,
      "dur": 0
    },
    {
      "t": 1382.4,
      "ch": 2,
      "note": 55,
      "vel": 58,
      "dur": 19565
    },
    {
      "t": 1382.4,
      "ch": 2,
      "note": 67,
      "vel": 41,
      "dur": 19565
    },
    {
      "t": 1382.4,
      "ch": 1,
      "note": 42,
      "vel": 69,
      "dur": 25
    },
    {
      "t": 1382.5,
      "ch": 0,
      "note": 36,
      "vel": 96,
      "dur": 55
    },
    {
      "t": 1382.5,
      "ch": 1,
      "note": 36,
      "vel": 84,
      "dur": 25
    },
    {
      "t": 1382.5,
      "ch": 7,
      "note": 48,
      "vel": 81,
      "dur": 80
    },
    {
      "t": 1382.5,
      "ch": 7,
      "note": 36,
      "vel": 62,
      "dur": 80
    },
    {
      "t": 1382.6,
      "ch": 1,
      "note": 38,
      "vel": 75,
      "dur": 25
    },
    {
      "t": 1382.7,
      "ch": 1,
      "note": 40,
      "vel": 69,
      "dur": 25
    },
    {
      "t": 1382.7,
      "ch": 6,
      "note": 72,
      "vel": 2,
      "dur": 400
    },
    {
      "t": 1382.7,
      "ch": 6,
      "note": 72,
      "vel": 31,
      "dur": 607
    },
    {
      "t": 1382.8,
      "ch": 1,
      "note": 42,
      "vel": 68,
      "dur": 25
    },
    {
      "t": 1382.8,
      "ch": 1,
      "note": 36,
      "vel": 83,
      "dur": 25
    },
    {
      "t": 1382.8,
      "ch": 7,
      "note": 45,
      "vel": 57,
      "dur": 80
    },
    {
      "t": 1382.8,
      "ch": 7,
      "note": 36,
      "vel": 71,
      "dur": 80
    },
    {
      "t": 1382.8,
      "ch": 7,
      "note": 38,
      "vel": 67,
      "dur": 80
    },
    {
      "t": 1382.9,
      "ch": 1,
      "note": 38,
      "vel": 73,
      "dur": 25
    },
    {
      "t": 1383,
      "ch": 1,
      "note": 40,
      "vel": 66,
      "dur": 25
    },
    {
      "t": 1383.1,
      "ch": 1,
      "note": 42,
      "vel": 91,
      "dur": 25
    },
    {
      "t": 1383.2,
      "ch": 1,
      "note": 36,
      "vel": 99,
      "dur": 25
    },
    {
      "t": 1383.2,
      "ch": 7,
      "note": 48,
      "vel": 77,
      "dur": 80
    },
    {
      "t": 1383.2,
      "ch": 7,
      "note": 36,
      "vel": 64,
      "dur": 80
    },
    {
      "t": 1383.3,
      "ch": 1,
      "note": 38,
      "vel": 62,
      "dur": 25
    },
    {
      "t": 1383.3,
      "ch": 1,
      "note": 40,
      "vel": 67,
      "dur": 25
    },
    {
      "t": 1383.4,
      "ch": 1,
      "note": 42,
      "vel": 83,
      "dur": 25
    },
    {
      "t": 1383.5,
      "ch": 1,
      "note": 36,
      "vel": 88,
      "dur": 25
    },
    {
      "t": 1383.5,
      "ch": 0,
      "note": 36,
      "vel": 80,
      "dur": 55
    },
    {
      "t": 1383.6,
      "ch": 1,
      "note": 38,
      "vel": 75,
      "dur": 25
    },
    {
      "t": 1383.7,
      "ch": 1,
      "note": 40,
      "vel": 73,
      "dur": 25
    },
    {
      "t": 1383.7,
      "ch": 1,
      "note": 42,
      "vel": 93,
      "dur": 25
    },
    {
      "t": 1383.8,
      "ch": 0,
      "note": 36,
      "vel": 119,
      "dur": 55
    },
    {
      "t": 1383.8,
      "ch": 1,
      "note": 36,
      "vel": 61,
      "dur": 25
    },
    {
      "t": 1383.8,
      "ch": 7,
      "note": 48,
      "vel": 81,
      "dur": 80
    },
    {
      "t": 1383.8,
      "ch": 7,
      "note": 45,
      "vel": 48,
      "dur": 80
    },
    {
      "t": 1383.8,
      "ch": 7,
      "note": 36,
      "vel": 71,
      "dur": 80
    },
    {
      "t": 1383.8,
      "ch": 7,
      "note": 38,
      "vel": 72,
      "dur": 80
    },
    {
      "t": 1383.8,
      "ch": 5,
      "note": 62,
      "vel": 33,
      "dur": 907
    },
    {
      "t": 1383.9,
      "ch": 1,
      "note": 38,
      "vel": 80,
      "dur": 25
    },
    {
      "t": 1384,
      "ch": 1,
      "note": 40,
      "vel": 60,
      "dur": 25
    },
    {
      "t": 1384.1,
      "ch": 1,
      "note": 42,
      "vel": 79,
      "dur": 25
    },
    {
      "t": 1384.1,
      "ch": 1,
      "note": 36,
      "vel": 71,
      "dur": 25
    },
    {
      "t": 1384.1,
      "ch": 7,
      "note": 36,
      "vel": 66,
      "dur": 80
    },
    {
      "t": 1384.2,
      "ch": 1,
      "note": 38,
      "vel": 89,
      "dur": 25
    },
    {
      "t": 1384.3,
      "ch": 1,
      "note": 40,
      "vel": 67,
      "dur": 25
    },
    {
      "t": 1384.4,
      "ch": 1,
      "note": 42,
      "vel": 64,
      "dur": 25
    },
    {
      "t": 1384.5,
      "ch": 1,
      "note": 36,
      "vel": 80,
      "dur": 25
    },
    {
      "t": 1384.5,
      "ch": 7,
      "note": 48,
      "vel": 75,
      "dur": 80
    },
    {
      "t": 1384.5,
      "ch": 7,
      "note": 36,
      "vel": 63,
      "dur": 80
    },
    {
      "t": 1384.6,
      "ch": 1,
      "note": 38,
      "vel": 80,
      "dur": 25
    },
    {
      "t": 1384.6,
      "ch": 1,
      "note": 40,
      "vel": 75,
      "dur": 25
    },
    {
      "t": 1384.6,
      "ch": 7,
      "note": 45,
      "vel": 69,
      "dur": 80
    },
    {
      "t": 1384.7,
      "ch": 7,
      "note": 38,
      "vel": 64,
      "dur": 80
    },
    {
      "t": 1384.7,
      "ch": 1,
      "note": 42,
      "vel": 89,
      "dur": 25
    },
    {
      "t": 1384.8,
      "ch": 1,
      "note": 36,
      "vel": 75,
      "dur": 25
    },
    {
      "t": 1384.9,
      "ch": 1,
      "note": 38,
      "vel": 48,
      "dur": 25
    },
    {
      "t": 1385,
      "ch": 1,
      "note": 40,
      "vel": 72,
      "dur": 25
    },
    {
      "t": 1385,
      "ch": 6,
      "note": 69,
      "vel": 12,
      "dur": 601
    },
    {
      "t": 1385,
      "ch": 1,
      "note": 42,
      "vel": 60,
      "dur": 25
    },
    {
      "t": 1385.1,
      "ch": 0,
      "note": 36,
      "vel": 95,
      "dur": 55
    },
    {
      "t": 1385.1,
      "ch": 1,
      "note": 36,
      "vel": 85,
      "dur": 25
    },
    {
      "t": 1385.1,
      "ch": 7,
      "note": 48,
      "vel": 71,
      "dur": 80
    },
    {
      "t": 1385.1,
      "ch": 7,
      "note": 36,
      "vel": 75,
      "dur": 80
    },
    {
      "t": 1385.1,
      "ch": 5,
      "note": 67,
      "vel": 22,
      "dur": 901
    },
    {
      "t": 1385.2,
      "ch": 1,
      "note": 38,
      "vel": 83,
      "dur": 25
    },
    {
      "t": 1385.3,
      "ch": 1,
      "note": 40,
      "vel": 77,
      "dur": 25
    },
    {
      "t": 1385.4,
      "ch": 1,
      "note": 42,
      "vel": 84,
      "dur": 25
    },
    {
      "t": 1385.4,
      "ch": 1,
      "note": 36,
      "vel": 84,
      "dur": 25
    },
    {
      "t": 1385.4,
      "ch": 7,
      "note": 45,
      "vel": 66,
      "dur": 80
    },
    {
      "t": 1385.4,
      "ch": 7,
      "note": 36,
      "vel": 61,
      "dur": 80
    },
    {
      "t": 1385.4,
      "ch": 7,
      "note": 38,
      "vel": 63,
      "dur": 80
    },
    {
      "t": 1385.5,
      "ch": 1,
      "note": 38,
      "vel": 83,
      "dur": 25
    },
    {
      "t": 1385.6,
      "ch": 1,
      "note": 40,
      "vel": 61,
      "dur": 25
    },
    {
      "t": 1385.7,
      "ch": 1,
      "note": 42,
      "vel": 62,
      "dur": 25
    },
    {
      "t": 1385.8,
      "ch": 1,
      "note": 36,
      "vel": 88,
      "dur": 25
    },
    {
      "t": 1385.8,
      "ch": 7,
      "note": 48,
      "vel": 79,
      "dur": 80
    },
    {
      "t": 1385.8,
      "ch": 7,
      "note": 36,
      "vel": 65,
      "dur": 80
    },
    {
      "t": 1385.9,
      "ch": 1,
      "note": 38,
      "vel": 78,
      "dur": 25
    },
    {
      "t": 1385.9,
      "ch": 1,
      "note": 40,
      "vel": 66,
      "dur": 25
    },
    {
      "t": 1386,
      "ch": 1,
      "note": 42,
      "vel": 62,
      "dur": 25
    },
    {
      "t": 1386.1,
      "ch": 1,
      "note": 36,
      "vel": 69,
      "dur": 25
    },
    {
      "t": 1386.1,
      "ch": 0,
      "note": 36,
      "vel": 79,
      "dur": 55
    },
    {
      "t": 1386.2,
      "ch": 1,
      "note": 38,
      "vel": 70,
      "dur": 25
    },
    {
      "t": 1386.3,
      "ch": 1,
      "note": 40,
      "vel": 67,
      "dur": 25
    },
    {
      "t": 1386.3,
      "ch": 1,
      "note": 42,
      "vel": 94,
      "dur": 25
    },
    {
      "t": 1386.4,
      "ch": 0,
      "note": 36,
      "vel": 116,
      "dur": 55
    },
    {
      "t": 1386.4,
      "ch": 1,
      "note": 36,
      "vel": 75,
      "dur": 25
    },
    {
      "t": 1386.4,
      "ch": 7,
      "note": 48,
      "vel": 80,
      "dur": 80
    },
    {
      "t": 1386.4,
      "ch": 7,
      "note": 45,
      "vel": 65,
      "dur": 80
    },
    {
      "t": 1386.4,
      "ch": 7,
      "note": 36,
      "vel": 67,
      "dur": 80
    },
    {
      "t": 1386.4,
      "ch": 7,
      "note": 38,
      "vel": 72,
      "dur": 80
    },
    {
      "t": 1386.4,
      "ch": 6,
      "note": 71,
      "vel": 44,
      "dur": 595
    },
    {
      "t": 1386.5,
      "ch": 1,
      "note": 38,
      "vel": 71,
      "dur": 25
    },
    {
      "t": 1386.6,
      "ch": 1,
      "note": 40,
      "vel": 78,
      "dur": 25
    },
    {
      "t": 1386.7,
      "ch": 1,
      "note": 42,
      "vel": 66,
      "dur": 25
    },
    {
      "t": 1386.7,
      "ch": 1,
      "note": 36,
      "vel": 83,
      "dur": 25
    },
    {
      "t": 1386.7,
      "ch": 7,
      "note": 36,
      "vel": 64,
      "dur": 80
    },
    {
      "t": 1386.8,
      "ch": 1,
      "note": 38,
      "vel": 65,
      "dur": 25
    },
    {
      "t": 1386.9,
      "ch": 1,
      "note": 40,
      "vel": 84,
      "dur": 25
    },
    {
      "t": 1387,
      "ch": 1,
      "note": 42,
      "vel": 77,
      "dur": 25
    },
    {
      "t": 1387.1,
      "ch": 1,
      "note": 36,
      "vel": 87,
      "dur": 25
    },
    {
      "t": 1387.1,
      "ch": 7,
      "note": 48,
      "vel": 69,
      "dur": 80
    },
    {
      "t": 1387.1,
      "ch": 7,
      "note": 36,
      "vel": 81,
      "dur": 80
    },
    {
      "t": 1387.2,
      "ch": 1,
      "note": 38,
      "vel": 56,
      "dur": 25
    },
    {
      "t": 1387.2,
      "ch": 1,
      "note": 40,
      "vel": 64,
      "dur": 25
    },
    {
      "t": 1387.2,
      "ch": 7,
      "note": 45,
      "vel": 60,
      "dur": 80
    },
    {
      "t": 1387.2,
      "ch": 7,
      "note": 38,
      "vel": 48,
      "dur": 80
    },
    {
      "t": 1387.3,
      "ch": 1,
      "note": 42,
      "vel": 72,
      "dur": 25
    },
    {
      "t": 1387.4,
      "ch": 1,
      "note": 36,
      "vel": 72,
      "dur": 25
    },
    {
      "t": 1387.5,
      "ch": 1,
      "note": 38,
      "vel": 54,
      "dur": 25
    },
    {
      "t": 1387.6,
      "ch": 1,
      "note": 40,
      "vel": 79,
      "dur": 25
    },
    {
      "t": 1387.7,
      "ch": 1,
      "note": 42,
      "vel": 84,
      "dur": 25
    },
    {
      "t": 1387.7,
      "ch": 0,
      "note": 36,
      "vel": 91,
      "dur": 55
    },
    {
      "t": 1387.7,
      "ch": 1,
      "note": 36,
      "vel": 82,
      "dur": 25
    },
    {
      "t": 1387.7,
      "ch": 7,
      "note": 48,
      "vel": 71,
      "dur": 80
    },
    {
      "t": 1387.7,
      "ch": 7,
      "note": 36,
      "vel": 59,
      "dur": 80
    },
    {
      "t": 1387.8,
      "ch": 1,
      "note": 38,
      "vel": 59,
      "dur": 25
    },
    {
      "t": 1387.9,
      "ch": 1,
      "note": 40,
      "vel": 102,
      "dur": 25
    },
    {
      "t": 1388,
      "ch": 1,
      "note": 42,
      "vel": 85,
      "dur": 25
    },
    {
      "t": 1388.1,
      "ch": 1,
      "note": 36,
      "vel": 53,
      "dur": 25
    },
    {
      "t": 1388.1,
      "ch": 7,
      "note": 45,
      "vel": 48,
      "dur": 80
    },
    {
      "t": 1388.1,
      "ch": 7,
      "note": 36,
      "vel": 56,
      "dur": 80
    },
    {
      "t": 1388.1,
      "ch": 7,
      "note": 38,
      "vel": 58,
      "dur": 80
    },
    {
      "t": 1388.1,
      "ch": 6,
      "note": 59,
      "vel": 36,
      "dur": 588
    },
    {
      "t": 1388.1,
      "ch": 1,
      "note": 38,
      "vel": 85,
      "dur": 25
    },
    {
      "t": 1388.2,
      "ch": 1,
      "note": 40,
      "vel": 78,
      "dur": 25
    },
    {
      "t": 1388.2,
      "ch": 5,
      "note": 71,
      "vel": 55,
      "dur": 881
    },
    {
      "t": 1388.3,
      "ch": 1,
      "note": 42,
      "vel": 75,
      "dur": 25
    },
    {
      "t": 1388.4,
      "ch": 1,
      "note": 36,
      "vel": 84,
      "dur": 25
    },
    {
      "t": 1388.4,
      "ch": 7,
      "note": 48,
      "vel": 85,
      "dur": 80
    },
    {
      "t": 1388.4,
      "ch": 7,
      "note": 36,
      "vel": 60,
      "dur": 80
    },
    {
      "t": 1388.5,
      "ch": 1,
      "note": 38,
      "vel": 75,
      "dur": 25
    },
    {
      "t": 1388.5,
      "ch": 1,
      "note": 40,
      "vel": 56,
      "dur": 25
    },
    {
      "t": 1388.6,
      "ch": 6,
      "note": 74,
      "vel": 28,
      "dur": 586
    },
    {
      "t": 1388.6,
      "ch": 1,
      "note": 42,
      "vel": 70,
      "dur": 25
    },
    {
      "t": 1388.7,
      "ch": 1,
      "note": 36,
      "vel": 61,
      "dur": 25
    },
    {
      "t": 1388.7,
      "ch": 0,
      "note": 36,
      "vel": 75,
      "dur": 55
    },
    {
      "t": 1388.7,
      "ch": 5,
      "note": 69,
      "vel": 31,
      "dur": 878
    },
    {
      "t": 1388.8,
      "ch": 1,
      "note": 38,
      "vel": 62,
      "dur": 25
    },
    {
      "t": 1388.9,
      "ch": 1,
      "note": 40,
      "vel": 75,
      "dur": 25
    },
    {
      "t": 1389,
      "ch": 1,
      "note": 42,
      "vel": 70,
      "dur": 25
    },
    {
      "t": 1389,
      "ch": 0,
      "note": 36,
      "vel": 108,
      "dur": 55
    },
    {
      "t": 1389,
      "ch": 7,
      "note": 48,
      "vel": 66,
      "dur": 80
    },
    {
      "t": 1389,
      "ch": 7,
      "note": 45,
      "vel": 74,
      "dur": 80
    },
    {
      "t": 1389,
      "ch": 7,
      "note": 36,
      "vel": 68,
      "dur": 80
    },
    {
      "t": 1389,
      "ch": 7,
      "note": 38,
      "vel": 73,
      "dur": 80
    },
    {
      "t": 1389.2,
      "ch": 5,
      "note": 62,
      "vel": 25,
      "dur": 875
    },
    {
      "t": 1389.2,
      "ch": 6,
      "note": 72,
      "vel": 18,
      "dur": 400
    },
    {
      "t": 1389.4,
      "ch": 7,
      "note": 36,
      "vel": 59,
      "dur": 80
    },
    {
      "t": 1389.5,
      "ch": 6,
      "note": 52,
      "vel": 24,
      "dur": 582
    },
    {
      "t": 1389.7,
      "ch": 7,
      "note": 48,
      "vel": 61,
      "dur": 80
    },
    {
      "t": 1389.7,
      "ch": 7,
      "note": 36,
      "vel": 79,
      "dur": 80
    },
    {
      "t": 1389.7,
      "ch": 6,
      "note": 65,
      "vel": 25,
      "dur": 582
    },
    {
      "t": 1389.9,
      "ch": 7,
      "note": 45,
      "vel": 58,
      "dur": 80
    },
    {
      "t": 1389.9,
      "ch": 7,
      "note": 38,
      "vel": 71,
      "dur": 80
    },
    {
      "t": 1389.9,
      "ch": 5,
      "note": 67,
      "vel": 24,
      "dur": 871
    },
    {
      "t": 1390.2,
      "ch": 6,
      "note": 60,
      "vel": 24,
      "dur": 580
    },
    {
      "t": 1390.3,
      "ch": 4,
      "note": 57,
      "vel": 60,
      "dur": 2558
    },
    {
      "t": 1390.3,
      "ch": 4,
      "note": 60,
      "vel": 61,
      "dur": 2558
    },
    {
      "t": 1390.3,
      "ch": 3,
      "note": 38,
      "vel": 62,
      "dur": 2608
    },
    {
      "t": 1390.3,
      "ch": 0,
      "note": 36,
      "vel": 98,
      "dur": 55
    },
    {
      "t": 1390.3,
      "ch": 7,
      "note": 48,
      "vel": 73,
      "dur": 80
    },
    {
      "t": 1390.3,
      "ch": 7,
      "note": 36,
      "vel": 75,
      "dur": 80
    },
    {
      "t": 1390.7,
      "ch": 7,
      "note": 45,
      "vel": 64,
      "dur": 80
    },
    {
      "t": 1390.7,
      "ch": 7,
      "note": 36,
      "vel": 66,
      "dur": 80
    },
    {
      "t": 1390.7,
      "ch": 7,
      "note": 38,
      "vel": 60,
      "dur": 80
    },
    {
      "t": 1391,
      "ch": 7,
      "note": 48,
      "vel": 67,
      "dur": 80
    },
    {
      "t": 1391,
      "ch": 7,
      "note": 36,
      "vel": 69,
      "dur": 80
    },
    {
      "t": 1391,
      "ch": 6,
      "note": 71,
      "vel": 55,
      "dur": 577
    },
    {
      "t": 1391.3,
      "ch": 0,
      "note": 36,
      "vel": 78,
      "dur": 55
    },
    {
      "t": 1391.6,
      "ch": 7,
      "note": 48,
      "vel": 79,
      "dur": 80
    },
    {
      "t": 1391.6,
      "ch": 7,
      "note": 45,
      "vel": 73,
      "dur": 80
    },
    {
      "t": 1391.6,
      "ch": 7,
      "note": 36,
      "vel": 68,
      "dur": 80
    },
    {
      "t": 1391.6,
      "ch": 7,
      "note": 38,
      "vel": 76,
      "dur": 80
    },
    {
      "t": 1392,
      "ch": 7,
      "note": 36,
      "vel": 63,
      "dur": 80
    },
    {
      "t": 1392.3,
      "ch": 7,
      "note": 48,
      "vel": 80,
      "dur": 80
    },
    {
      "t": 1392.3,
      "ch": 7,
      "note": 36,
      "vel": 74,
      "dur": 80
    },
    {
      "t": 1392.3,
      "ch": 5,
      "note": 72,
      "vel": 41,
      "dur": 862
    },
    {
      "t": 1392.5,
      "ch": 7,
      "note": 45,
      "vel": 69,
      "dur": 80
    },
    {
      "t": 1392.5,
      "ch": 7,
      "note": 38,
      "vel": 65,
      "dur": 80
    },
    {
      "t": 1392.9,
      "ch": 2,
      "note": 55,
      "vel": 0,
      "dur": 0
    },
    {
      "t": 1392.9,
      "ch": 2,
      "note": 67,
      "vel": 0,
      "dur": 0
    },
    {
      "t": 1392.9,
      "ch": 2,
      "note": 50,
      "vel": 59,
      "dur": 19565
    },
    {
      "t": 1392.9,
      "ch": 2,
      "note": 62,
      "vel": 41,
      "dur": 19565
    },
    {
      "t": 1392.9,
      "ch": 4,
      "note": 55,
      "vel": 62,
      "dur": 2558
    },
    {
      "t": 1392.9,
      "ch": 4,
      "note": 59,
      "vel": 76,
      "dur": 2558
    },
    {
      "t": 1392.9,
      "ch": 3,
      "note": 43,
      "vel": 63,
      "dur": 2608
    },
    {
      "t": 1392.9,
      "ch": 7,
      "note": 48,
      "vel": 71,
      "dur": 80
    },
    {
      "t": 1392.9,
      "ch": 7,
      "note": 36,
      "vel": 78,
      "dur": 80
    },
    {
      "t": 1393,
      "ch": 5,
      "note": 69,
      "vel": 42,
      "dur": 862
    },
    {
      "t": 1393.3,
      "ch": 7,
      "note": 45,
      "vel": 63,
      "dur": 80
    },
    {
      "t": 1393.3,
      "ch": 7,
      "note": 36,
      "vel": 57,
      "dur": 80
    },
    {
      "t": 1393.3,
      "ch": 7,
      "note": 38,
      "vel": 58,
      "dur": 80
    },
    {
      "t": 1393.6,
      "ch": 7,
      "note": 48,
      "vel": 77,
      "dur": 80
    },
    {
      "t": 1393.6,
      "ch": 7,
      "note": 36,
      "vel": 73,
      "dur": 80
    },
    {
      "t": 1393.8,
      "ch": 5,
      "note": 72,
      "vel": 41,
      "dur": 861
    },
    {
      "t": 1394.3,
      "ch": 0,
      "note": 36,
      "vel": 114,
      "dur": 55
    },
    {
      "t": 1394.3,
      "ch": 7,
      "note": 48,
      "vel": 72,
      "dur": 80
    },
    {
      "t": 1394.3,
      "ch": 7,
      "note": 45,
      "vel": 58,
      "dur": 80
    },
    {
      "t": 1394.3,
      "ch": 7,
      "note": 36,
      "vel": 61,
      "dur": 80
    },
    {
      "t": 1394.3,
      "ch": 7,
      "note": 38,
      "vel": 64,
      "dur": 80
    },
    {
      "t": 1394.6,
      "ch": 7,
      "note": 36,
      "vel": 67,
      "dur": 80
    },
    {
      "t": 1394.9,
      "ch": 7,
      "note": 48,
      "vel": 69,
      "dur": 80
    },
    {
      "t": 1394.9,
      "ch": 7,
      "note": 36,
      "vel": 69,
      "dur": 80
    },
    {
      "t": 1394.9,
      "ch": 5,
      "note": 59,
      "vel": 36,
      "dur": 863
    },
    {
      "t": 1395.1,
      "ch": 7,
      "note": 45,
      "vel": 51,
      "dur": 80
    },
    {
      "t": 1395.1,
      "ch": 7,
      "note": 38,
      "vel": 68,
      "dur": 80
    },
    {
      "t": 1395.4,
      "ch": 0,
      "note": 36,
      "vel": 81,
      "dur": 55
    },
    {
      "t": 1395.5,
      "ch": 4,
      "note": 57,
      "vel": 60,
      "dur": 2558
    },
    {
      "t": 1395.5,
      "ch": 4,
      "note": 52,
      "vel": 62,
      "dur": 2558
    },
    {
      "t": 1395.5,
      "ch": 3,
      "note": 36,
      "vel": 63,
      "dur": 2608
    },
    {
      "t": 1395.6,
      "ch": 7,
      "note": 48,
      "vel": 83,
      "dur": 80
    },
    {
      "t": 1395.6,
      "ch": 7,
      "note": 36,
      "vel": 74,
      "dur": 80
    },
    {
      "t": 1395.9,
      "ch": 7,
      "note": 45,
      "vel": 67,
      "dur": 80
    },
    {
      "t": 1395.9,
      "ch": 7,
      "note": 36,
      "vel": 66,
      "dur": 80
    },
    {
      "t": 1395.9,
      "ch": 7,
      "note": 38,
      "vel": 55,
      "dur": 80
    },
    {
      "t": 1396.1,
      "ch": 5,
      "note": 59,
      "vel": 46,
      "dur": 867
    },
    {
      "t": 1396.1,
      "ch": 6,
      "note": 62,
      "vel": 33,
      "dur": 578
    },
    {
      "t": 1396.2,
      "ch": 0,
      "note": 36,
      "vel": 93,
      "dur": 55
    },
    {
      "t": 1396.2,
      "ch": 7,
      "note": 48,
      "vel": 58,
      "dur": 80
    },
    {
      "t": 1396.2,
      "ch": 7,
      "note": 36,
      "vel": 75,
      "dur": 80
    },
    {
      "t": 1396.7,
      "ch": 5,
      "note": 71,
      "vel": 46,
      "dur": 870
    },
    {
      "t": 1396.9,
      "ch": 0,
      "note": 36,
      "vel": 112,
      "dur": 55
    },
    {
      "t": 1396.9,
      "ch": 7,
      "note": 48,
      "vel": 65,
      "dur": 80
    },
    {
      "t": 1396.9,
      "ch": 7,
      "note": 45,
      "vel": 60,
      "dur": 80
    },
    {
      "t": 1396.9,
      "ch": 7,
      "note": 36,
      "vel": 58,
      "dur": 80
    },
    {
      "t": 1396.9,
      "ch": 7,
      "note": 38,
      "vel": 78,
      "dur": 80
    },
    {
      "t": 1397,
      "ch": 5,
      "note": 72,
      "vel": 30,
      "dur": 871
    },
    {
      "t": 1397.2,
      "ch": 7,
      "note": 36,
      "vel": 66,
      "dur": 80
    },
    {
      "t": 1397.4,
      "ch": 5,
      "note": 59,
      "vel": 46,
      "dur": 873
    },
    {
      "t": 1397.5,
      "ch": 7,
      "note": 48,
      "vel": 73,
      "dur": 80
    },
    {
      "t": 1397.5,
      "ch": 7,
      "note": 36,
      "vel": 73,
      "dur": 80
    },
    {
      "t": 1397.7,
      "ch": 7,
      "note": 45,
      "vel": 62,
      "dur": 80
    },
    {
      "t": 1397.7,
      "ch": 7,
      "note": 38,
      "vel": 72,
      "dur": 80
    },
    {
      "t": 1397.7,
      "ch": 6,
      "note": 74,
      "vel": 29,
      "dur": 583
    },
    {
      "t": 1397.9,
      "ch": 5,
      "note": 59,
      "vel": 42,
      "dur": 876
    },
    {
      "t": 1398,
      "ch": 0,
      "note": 36,
      "vel": 83,
      "dur": 55
    },
    {
      "t": 1398.1,
      "ch": 4,
      "note": 55,
      "vel": 58,
      "dur": 2558
    },
    {
      "t": 1398.1,
      "ch": 4,
      "note": 59,
      "vel": 73,
      "dur": 2558
    },
    {
      "t": 1398.1,
      "ch": 3,
      "note": 43,
      "vel": 61,
      "dur": 2608
    },
    {
      "t": 1398.2,
      "ch": 7,
      "note": 48,
      "vel": 74,
      "dur": 80
    },
    {
      "t": 1398.2,
      "ch": 7,
      "note": 36,
      "vel": 63,
      "dur": 80
    },
    {
      "t": 1398.2,
      "ch": 5,
      "note": 71,
      "vel": 63,
      "dur": 877
    },
    {
      "t": 1398.5,
      "ch": 7,
      "note": 45,
      "vel": 55,
      "dur": 80
    },
    {
      "t": 1398.5,
      "ch": 7,
      "note": 36,
      "vel": 63,
      "dur": 80
    },
    {
      "t": 1398.5,
      "ch": 7,
      "note": 38,
      "vel": 57,
      "dur": 80
    },
    {
      "t": 1398.8,
      "ch": 0,
      "note": 36,
      "vel": 90,
      "dur": 55
    },
    {
      "t": 1398.8,
      "ch": 7,
      "note": 48,
      "vel": 70,
      "dur": 80
    },
    {
      "t": 1398.8,
      "ch": 7,
      "note": 36,
      "vel": 60,
      "dur": 80
    },
    {
      "t": 1398.8,
      "ch": 6,
      "note": 62,
      "vel": 32,
      "dur": 587
    },
    {
      "t": 1399.5,
      "ch": 0,
      "note": 36,
      "vel": 113,
      "dur": 55
    },
    {
      "t": 1399.5,
      "ch": 7,
      "note": 48,
      "vel": 71,
      "dur": 80
    },
    {
      "t": 1399.5,
      "ch": 7,
      "note": 45,
      "vel": 77,
      "dur": 80
    },
    {
      "t": 1399.5,
      "ch": 7,
      "note": 36,
      "vel": 69,
      "dur": 80
    },
    {
      "t": 1399.5,
      "ch": 7,
      "note": 38,
      "vel": 84,
      "dur": 80
    },
    {
      "t": 1399.6,
      "ch": 6,
      "note": 74,
      "vel": 27,
      "dur": 591
    },
    {
      "t": 1399.8,
      "ch": 7,
      "note": 36,
      "vel": 57,
      "dur": 80
    },
    {
      "t": 1400,
      "ch": 6,
      "note": 74,
      "vel": 23,
      "dur": 592
    },
    {
      "t": 1400.1,
      "ch": 7,
      "note": 48,
      "vel": 70,
      "dur": 80
    },
    {
      "t": 1400.1,
      "ch": 7,
      "note": 36,
      "vel": 75,
      "dur": 80
    },
    {
      "t": 1400.3,
      "ch": 7,
      "note": 45,
      "vel": 55,
      "dur": 80
    },
    {
      "t": 1400.3,
      "ch": 7,
      "note": 38,
      "vel": 69,
      "dur": 80
    },
    {
      "t": 1400.6,
      "ch": 0,
      "note": 36,
      "vel": 85,
      "dur": 55
    },
    {
      "t": 1400.7,
      "ch": 4,
      "note": 57,
      "vel": 57,
      "dur": 2558
    },
    {
      "t": 1400.7,
      "ch": 4,
      "note": 52,
      "vel": 58,
      "dur": 2558
    },
    {
      "t": 1400.7,
      "ch": 3,
      "note": 36,
      "vel": 59,
      "dur": 2608
    },
    {
      "t": 1400.8,
      "ch": 7,
      "note": 48,
      "vel": 58,
      "dur": 80
    },
    {
      "t": 1400.8,
      "ch": 7,
      "note": 36,
      "vel": 63,
      "dur": 80
    },
    {
      "t": 1401.1,
      "ch": 7,
      "note": 45,
      "vel": 63,
      "dur": 80
    },
    {
      "t": 1401.1,
      "ch": 7,
      "note": 36,
      "vel": 64,
      "dur": 80
    },
    {
      "t": 1401.1,
      "ch": 7,
      "note": 38,
      "vel": 56,
      "dur": 80
    },
    {
      "t": 1401.4,
      "ch": 0,
      "note": 36,
      "vel": 94,
      "dur": 55
    },
    {
      "t": 1401.4,
      "ch": 7,
      "note": 48,
      "vel": 68,
      "dur": 80
    },
    {
      "t": 1401.4,
      "ch": 7,
      "note": 36,
      "vel": 74,
      "dur": 80
    },
    {
      "t": 1401.8,
      "ch": 5,
      "note": 72,
      "vel": 24,
      "dur": 897
    },
    {
      "t": 1402.1,
      "ch": 0,
      "note": 36,
      "vel": 111,
      "dur": 55
    },
    {
      "t": 1402.1,
      "ch": 7,
      "note": 48,
      "vel": 66,
      "dur": 80
    },
    {
      "t": 1402.1,
      "ch": 7,
      "note": 45,
      "vel": 61,
      "dur": 80
    },
    {
      "t": 1402.1,
      "ch": 7,
      "note": 36,
      "vel": 63,
      "dur": 80
    },
    {
      "t": 1402.1,
      "ch": 7,
      "note": 38,
      "vel": 70,
      "dur": 80
    },
    {
      "t": 1402.3,
      "ch": 5,
      "note": 59,
      "vel": 52,
      "dur": 898
    },
    {
      "t": 1402.4,
      "ch": 7,
      "note": 36,
      "vel": 65,
      "dur": 80
    },
    {
      "t": 1402.7,
      "ch": 7,
      "note": 48,
      "vel": 66,
      "dur": 80
    },
    {
      "t": 1402.7,
      "ch": 7,
      "note": 36,
      "vel": 75,
      "dur": 80
    },
    {
      "t": 1402.9,
      "ch": 7,
      "note": 45,
      "vel": 71,
      "dur": 80
    },
    {
      "t": 1402.9,
      "ch": 7,
      "note": 38,
      "vel": 59,
      "dur": 80
    },
    {
      "t": 1403.1,
      "ch": 5,
      "note": 59,
      "vel": 46,
      "dur": 901
    },
    {
      "t": 1403.2,
      "ch": 0,
      "note": 36,
      "vel": 90,
      "dur": 55
    },
    {
      "t": 1403.2,
      "ch": 5,
      "note": 71,
      "vel": 53,
      "dur": 901
    },
    {
      "t": 1403.3,
      "ch": 2,
      "note": 50,
      "vel": 0,
      "dur": 0
    },
    {
      "t": 1403.3,
      "ch": 2,
      "note": 62,
      "vel": 0,
      "dur": 0
    },
    {
      "t": 1403.3,
      "ch": 4,
      "note": 57,
      "vel": 56,
      "dur": 2558
    },
    {
      "t": 1403.3,
      "ch": 4,
      "note": 60,
      "vel": 54,
      "dur": 2558
    },
    {
      "t": 1403.3,
      "ch": 3,
      "note": 38,
      "vel": 57,
      "dur": 2608
    },
    {
      "t": 1403.4,
      "ch": 7,
      "note": 48,
      "vel": 78,
      "dur": 80
    },
    {
      "t": 1403.4,
      "ch": 7,
      "note": 36,
      "vel": 87,
      "dur": 80
    },
    {
      "t": 1403.6,
      "ch": 5,
      "note": 72,
      "vel": 16,
      "dur": 902
    },
    {
      "t": 1403.7,
      "ch": 7,
      "note": 45,
      "vel": 64,
      "dur": 80
    },
    {
      "t": 1403.7,
      "ch": 7,
      "note": 36,
      "vel": 52,
      "dur": 80
    },
    {
      "t": 1403.7,
      "ch": 7,
      "note": 38,
      "vel": 56,
      "dur": 80
    },
    {
      "t": 1403.8,
      "ch": 6,
      "note": 74,
      "vel": 3,
      "dur": 400
    },
    {
      "t": 1404,
      "ch": 0,
      "note": 36,
      "vel": 86,
      "dur": 55
    },
    {
      "t": 1404,
      "ch": 7,
      "note": 48,
      "vel": 61,
      "dur": 80
    },
    {
      "t": 1404,
      "ch": 7,
      "note": 36,
      "vel": 63,
      "dur": 80
    },
    {
      "t": 1404.7,
      "ch": 0,
      "note": 36,
      "vel": 111,
      "dur": 55
    },
    {
      "t": 1404.7,
      "ch": 1,
      "note": 36,
      "vel": 108,
      "dur": 25
    },
    {
      "t": 1404.7,
      "ch": 1,
      "note": 38,
      "vel": 92,
      "dur": 25
    },
    {
      "t": 1404.7,
      "ch": 1,
      "note": 40,
      "vel": 89,
      "dur": 25
    },
    {
      "t": 1404.7,
      "ch": 1,
      "note": 42,
      "vel": 89,
      "dur": 25
    },
    {
      "t": 1404.7,
      "ch": 1,
      "note": 36,
      "vel": 95,
      "dur": 25
    },
    {
      "t": 1404.7,
      "ch": 1,
      "note": 38,
      "vel": 105,
      "dur": 25
    },
    {
      "t": 1404.7,
      "ch": 1,
      "note": 40,
      "vel": 87,
      "dur": 25
    },
    {
      "t": 1404.7,
      "ch": 1,
      "note": 42,
      "vel": 80,
      "dur": 25
    },
    {
      "t": 1404.7,
      "ch": 1,
      "note": 36,
      "vel": 85,
      "dur": 25
    },
    {
      "t": 1404.7,
      "ch": 1,
      "note": 38,
      "vel": 76,
      "dur": 25
    },
    {
      "t": 1404.7,
      "ch": 1,
      "note": 40,
      "vel": 61,
      "dur": 25
    },
    {
      "t": 1404.7,
      "ch": 1,
      "note": 42,
      "vel": 85,
      "dur": 25
    },
    {
      "t": 1404.7,
      "ch": 1,
      "note": 36,
      "vel": 90,
      "dur": 25
    },
    {
      "t": 1404.7,
      "ch": 1,
      "note": 38,
      "vel": 98,
      "dur": 25
    },
    {
      "t": 1404.7,
      "ch": 1,
      "note": 40,
      "vel": 84,
      "dur": 25
    },
    {
      "t": 1404.7,
      "ch": 1,
      "note": 42,
      "vel": 106,
      "dur": 25
    },
    {
      "t": 1404.7,
      "ch": 1,
      "note": 36,
      "vel": 96,
      "dur": 25
    },
    {
      "t": 1404.7,
      "ch": 1,
      "note": 38,
      "vel": 89,
      "dur": 25
    },
    {
      "t": 1404.7,
      "ch": 1,
      "note": 40,
      "vel": 102,
      "dur": 25
    },
    {
      "t": 1404.7,
      "ch": 1,
      "note": 42,
      "vel": 97,
      "dur": 25
    },
    {
      "t": 1404.7,
      "ch": 1,
      "note": 36,
      "vel": 93,
      "dur": 25
    },
    {
      "t": 1404.7,
      "ch": 1,
      "note": 38,
      "vel": 87,
      "dur": 25
    },
    {
      "t": 1404.7,
      "ch": 1,
      "note": 40,
      "vel": 106,
      "dur": 25
    },
    {
      "t": 1404.7,
      "ch": 1,
      "note": 42,
      "vel": 59,
      "dur": 25
    },
    {
      "t": 1404.7,
      "ch": 1,
      "note": 36,
      "vel": 70,
      "dur": 25
    },
    {
      "t": 1404.7,
      "ch": 1,
      "note": 38,
      "vel": 77,
      "dur": 25
    },
    {
      "t": 1404.7,
      "ch": 1,
      "note": 40,
      "vel": 65,
      "dur": 25
    },
    {
      "t": 1404.7,
      "ch": 1,
      "note": 42,
      "vel": 89,
      "dur": 25
    },
    {
      "t": 1404.7,
      "ch": 1,
      "note": 36,
      "vel": 77,
      "dur": 25
    },
    {
      "t": 1404.7,
      "ch": 1,
      "note": 38,
      "vel": 81,
      "dur": 25
    },
    {
      "t": 1404.7,
      "ch": 1,
      "note": 40,
      "vel": 80,
      "dur": 25
    },
    {
      "t": 1404.7,
      "ch": 1,
      "note": 42,
      "vel": 77,
      "dur": 25
    },
    {
      "t": 1404.7,
      "ch": 1,
      "note": 36,
      "vel": 61,
      "dur": 25
    },
    {
      "t": 1404.7,
      "ch": 1,
      "note": 38,
      "vel": 88,
      "dur": 25
    },
    {
      "t": 1404.7,
      "ch": 1,
      "note": 40,
      "vel": 73,
      "dur": 25
    },
    {
      "t": 1404.7,
      "ch": 1,
      "note": 42,
      "vel": 98,
      "dur": 25
    },
    {
      "t": 1404.7,
      "ch": 1,
      "note": 36,
      "vel": 73,
      "dur": 25
    },
    {
      "t": 1404.7,
      "ch": 1,
      "note": 38,
      "vel": 64,
      "dur": 25
    },
    {
      "t": 1404.7,
      "ch": 1,
      "note": 40,
      "vel": 92,
      "dur": 25
    },
    {
      "t": 1404.7,
      "ch": 1,
      "note": 42,
      "vel": 108,
      "dur": 25
    },
    {
      "t": 1404.7,
      "ch": 1,
      "note": 36,
      "vel": 81,
      "dur": 25
    },
    {
      "t": 1404.7,
      "ch": 1,
      "note": 38,
      "vel": 93,
      "dur": 25
    },
    {
      "t": 1404.7,
      "ch": 1,
      "note": 40,
      "vel": 101,
      "dur": 25
    },
    {
      "t": 1404.7,
      "ch": 1,
      "note": 42,
      "vel": 85,
      "dur": 25
    },
    {
      "t": 1404.7,
      "ch": 1,
      "note": 36,
      "vel": 108,
      "dur": 25
    },
    {
      "t": 1404.7,
      "ch": 1,
      "note": 38,
      "vel": 85,
      "dur": 25
    },
    {
      "t": 1404.7,
      "ch": 1,
      "note": 40,
      "vel": 86,
      "dur": 25
    },
    {
      "t": 1404.7,
      "ch": 1,
      "note": 42,
      "vel": 93,
      "dur": 25
    },
    {
      "t": 1404.7,
      "ch": 1,
      "note": 36,
      "vel": 69,
      "dur": 25
    },
    {
      "t": 1404.7,
      "ch": 1,
      "note": 38,
      "vel": 78,
      "dur": 25
    },
    {
      "t": 1404.7,
      "ch": 1,
      "note": 40,
      "vel": 89,
      "dur": 25
    },
    {
      "t": 1404.7,
      "ch": 1,
      "note": 42,
      "vel": 65,
      "dur": 25
    },
    {
      "t": 1404.7,
      "ch": 1,
      "note": 36,
      "vel": 102,
      "dur": 25
    },
    {
      "t": 1404.7,
      "ch": 1,
      "note": 38,
      "vel": 65,
      "dur": 25
    },
    {
      "t": 1404.7,
      "ch": 1,
      "note": 40,
      "vel": 93,
      "dur": 25
    },
    {
      "t": 1404.7,
      "ch": 1,
      "note": 42,
      "vel": 95,
      "dur": 25
    },
    {
      "t": 1404.7,
      "ch": 1,
      "note": 36,
      "vel": 95,
      "dur": 25
    },
    {
      "t": 1404.7,
      "ch": 1,
      "note": 38,
      "vel": 91,
      "dur": 25
    },
    {
      "t": 1404.7,
      "ch": 1,
      "note": 40,
      "vel": 81,
      "dur": 25
    },
    {
      "t": 1404.7,
      "ch": 1,
      "note": 42,
      "vel": 107,
      "dur": 25
    },
    {
      "t": 1404.7,
      "ch": 1,
      "note": 36,
      "vel": 92,
      "dur": 25
    },
    {
      "t": 1404.7,
      "ch": 1,
      "note": 38,
      "vel": 83,
      "dur": 25
    },
    {
      "t": 1404.7,
      "ch": 1,
      "note": 40,
      "vel": 72,
      "dur": 25
    },
    {
      "t": 1404.7,
      "ch": 1,
      "note": 42,
      "vel": 87,
      "dur": 25
    },
    {
      "t": 1404.7,
      "ch": 1,
      "note": 36,
      "vel": 72,
      "dur": 25
    },
    {
      "t": 1404.7,
      "ch": 1,
      "note": 38,
      "vel": 71,
      "dur": 25
    },
    {
      "t": 1404.7,
      "ch": 1,
      "note": 40,
      "vel": 62,
      "dur": 25
    },
    {
      "t": 1404.7,
      "ch": 1,
      "note": 42,
      "vel": 79,
      "dur": 25
    },
    {
      "t": 1404.7,
      "ch": 1,
      "note": 36,
      "vel": 61,
      "dur": 25
    },
    {
      "t": 1404.7,
      "ch": 1,
      "note": 38,
      "vel": 89,
      "dur": 25
    },
    {
      "t": 1404.7,
      "ch": 1,
      "note": 40,
      "vel": 75,
      "dur": 25
    },
    {
      "t": 1404.7,
      "ch": 1,
      "note": 42,
      "vel": 105,
      "dur": 25
    },
    {
      "t": 1404.7,
      "ch": 1,
      "note": 36,
      "vel": 98,
      "dur": 25
    },
    {
      "t": 1404.7,
      "ch": 1,
      "note": 38,
      "vel": 85,
      "dur": 25
    },
    {
      "t": 1404.7,
      "ch": 1,
      "note": 40,
      "vel": 77,
      "dur": 25
    },
    {
      "t": 1404.7,
      "ch": 1,
      "note": 42,
      "vel": 91,
      "dur": 25
    },
    {
      "t": 1404.7,
      "ch": 1,
      "note": 36,
      "vel": 97,
      "dur": 25
    },
    {
      "t": 1404.7,
      "ch": 1,
      "note": 38,
      "vel": 61,
      "dur": 25
    },
    {
      "t": 1404.7,
      "ch": 1,
      "note": 40,
      "vel": 80,
      "dur": 25
    },
    {
      "t": 1404.7,
      "ch": 1,
      "note": 42,
      "vel": 88,
      "dur": 25
    },
    {
      "t": 1404.7,
      "ch": 1,
      "note": 36,
      "vel": 105,
      "dur": 25
    },
    {
      "t": 1404.7,
      "ch": 1,
      "note": 38,
      "vel": 100,
      "dur": 25
    },
    {
      "t": 1404.7,
      "ch": 1,
      "note": 40,
      "vel": 87,
      "dur": 25
    },
    {
      "t": 1404.7,
      "ch": 1,
      "note": 42,
      "vel": 65,
      "dur": 25
    },
    {
      "t": 1404.7,
      "ch": 1,
      "note": 36,
      "vel": 58,
      "dur": 25
    },
    {
      "t": 1404.7,
      "ch": 1,
      "note": 38,
      "vel": 91,
      "dur": 25
    },
    {
      "t": 1404.7,
      "ch": 1,
      "note": 40,
      "vel": 77,
      "dur": 25
    },
    {
      "t": 1404.7,
      "ch": 1,
      "note": 42,
      "vel": 74,
      "dur": 25
    },
    {
      "t": 1404.7,
      "ch": 1,
      "note": 36,
      "vel": 79,
      "dur": 25
    },
    {
      "t": 1404.7,
      "ch": 1,
      "note": 38,
      "vel": 98,
      "dur": 25
    },
    {
      "t": 1404.7,
      "ch": 1,
      "note": 40,
      "vel": 59,
      "dur": 25
    },
    {
      "t": 1404.7,
      "ch": 1,
      "note": 42,
      "vel": 93,
      "dur": 25
    },
    {
      "t": 1404.7,
      "ch": 1,
      "note": 36,
      "vel": 74,
      "dur": 25
    },
    {
      "t": 1404.7,
      "ch": 1,
      "note": 38,
      "vel": 67,
      "dur": 25
    },
    {
      "t": 1404.7,
      "ch": 1,
      "note": 40,
      "vel": 89,
      "dur": 25
    },
    {
      "t": 1404.7,
      "ch": 1,
      "note": 42,
      "vel": 97,
      "dur": 25
    },
    {
      "t": 1404.7,
      "ch": 1,
      "note": 36,
      "vel": 82,
      "dur": 25
    },
    {
      "t": 1404.7,
      "ch": 1,
      "note": 38,
      "vel": 97,
      "dur": 25
    },
    {
      "t": 1404.7,
      "ch": 1,
      "note": 40,
      "vel": 76,
      "dur": 25
    },
    {
      "t": 1404.7,
      "ch": 1,
      "note": 42,
      "vel": 57,
      "dur": 25
    },
    {
      "t": 1404.7,
      "ch": 1,
      "note": 36,
      "vel": 64,
      "dur": 25
    },
    {
      "t": 1404.7,
      "ch": 1,
      "note": 38,
      "vel": 72,
      "dur": 25
    },
    {
      "t": 1404.7,
      "ch": 1,
      "note": 40,
      "vel": 68,
      "dur": 25
    },
    {
      "t": 1404.7,
      "ch": 1,
      "note": 42,
      "vel": 104,
      "dur": 25
    },
    {
      "t": 1404.7,
      "ch": 1,
      "note": 36,
      "vel": 103,
      "dur": 25
    },
    {
      "t": 1404.7,
      "ch": 1,
      "note": 38,
      "vel": 88,
      "dur": 25
    },
    {
      "t": 1404.7,
      "ch": 1,
      "note": 40,
      "vel": 97,
      "dur": 25
    },
    {
      "t": 1404.7,
      "ch": 1,
      "note": 42,
      "vel": 84,
      "dur": 25
    },
    {
      "t": 1404.7,
      "ch": 1,
      "note": 36,
      "vel": 84,
      "dur": 25
    },
    {
      "t": 1404.7,
      "ch": 1,
      "note": 38,
      "vel": 97,
      "dur": 25
    },
    {
      "t": 1404.7,
      "ch": 1,
      "note": 40,
      "vel": 77,
      "dur": 25
    },
    {
      "t": 1404.7,
      "ch": 1,
      "note": 42,
      "vel": 92,
      "dur": 25
    },
    {
      "t": 1404.7,
      "ch": 1,
      "note": 36,
      "vel": 96,
      "dur": 25
    },
    {
      "t": 1404.7,
      "ch": 1,
      "note": 38,
      "vel": 81,
      "dur": 25
    },
    {
      "t": 1404.7,
      "ch": 1,
      "note": 40,
      "vel": 110,
      "dur": 25
    },
    {
      "t": 1404.7,
      "ch": 1,
      "note": 42,
      "vel": 98,
      "dur": 25
    },
    {
      "t": 1404.7,
      "ch": 1,
      "note": 36,
      "vel": 83,
      "dur": 25
    },
    {
      "t": 1404.7,
      "ch": 1,
      "note": 38,
      "vel": 76,
      "dur": 25
    },
    {
      "t": 1404.7,
      "ch": 1,
      "note": 40,
      "vel": 106,
      "dur": 25
    },
    {
      "t": 1404.7,
      "ch": 1,
      "note": 42,
      "vel": 66,
      "dur": 25
    },
    {
      "t": 1404.7,
      "ch": 1,
      "note": 36,
      "vel": 81,
      "dur": 25
    },
    {
      "t": 1404.7,
      "ch": 1,
      "note": 38,
      "vel": 63,
      "dur": 25
    },
    {
      "t": 1404.7,
      "ch": 1,
      "note": 40,
      "vel": 72,
      "dur": 25
    },
    {
      "t": 1404.7,
      "ch": 1,
      "note": 42,
      "vel": 88,
      "dur": 25
    },
    {
      "t": 1404.7,
      "ch": 1,
      "note": 36,
      "vel": 62,
      "dur": 25
    },
    {
      "t": 1404.7,
      "ch": 1,
      "note": 38,
      "vel": 57,
      "dur": 25
    },
    {
      "t": 1404.7,
      "ch": 1,
      "note": 40,
      "vel": 57,
      "dur": 25
    },
    {
      "t": 1404.7,
      "ch": 1,
      "note": 42,
      "vel": 64,
      "dur": 25
    },
    {
      "t": 1404.7,
      "ch": 1,
      "note": 36,
      "vel": 92,
      "dur": 25
    },
    {
      "t": 1404.7,
      "ch": 1,
      "note": 38,
      "vel": 103,
      "dur": 25
    },
    {
      "t": 1404.7,
      "ch": 1,
      "note": 40,
      "vel": 79,
      "dur": 25
    },
    {
      "t": 1404.7,
      "ch": 1,
      "note": 42,
      "vel": 64,
      "dur": 25
    },
    {
      "t": 1404.7,
      "ch": 1,
      "note": 36,
      "vel": 75,
      "dur": 25
    },
    {
      "t": 1404.7,
      "ch": 1,
      "note": 38,
      "vel": 63,
      "dur": 25
    },
    {
      "t": 1404.7,
      "ch": 1,
      "note": 40,
      "vel": 86,
      "dur": 25
    },
    {
      "t": 1404.7,
      "ch": 1,
      "note": 42,
      "vel": 61,
      "dur": 25
    },
    {
      "t": 1404.7,
      "ch": 1,
      "note": 36,
      "vel": 99,
      "dur": 25
    },
    {
      "t": 1404.7,
      "ch": 1,
      "note": 38,
      "vel": 103,
      "dur": 25
    },
    {
      "t": 1404.7,
      "ch": 1,
      "note": 40,
      "vel": 113,
      "dur": 25
    },
    {
      "t": 1404.7,
      "ch": 1,
      "note": 42,
      "vel": 65,
      "dur": 25
    },
    {
      "t": 1404.7,
      "ch": 1,
      "note": 36,
      "vel": 107,
      "dur": 25
    },
    {
      "t": 1404.7,
      "ch": 1,
      "note": 38,
      "vel": 89,
      "dur": 25
    },
    {
      "t": 1404.7,
      "ch": 1,
      "note": 40,
      "vel": 96,
      "dur": 25
    },
    {
      "t": 1404.7,
      "ch": 1,
      "note": 42,
      "vel": 106,
      "dur": 25
    },
    {
      "t": 1404.7,
      "ch": 1,
      "note": 36,
      "vel": 97,
      "dur": 25
    },
    {
      "t": 1404.7,
      "ch": 1,
      "note": 38,
      "vel": 97,
      "dur": 25
    },
    {
      "t": 1404.7,
      "ch": 1,
      "note": 40,
      "vel": 81,
      "dur": 25
    },
    {
      "t": 1404.7,
      "ch": 1,
      "note": 42,
      "vel": 93,
      "dur": 25
    },
    {
      "t": 1404.7,
      "ch": 1,
      "note": 36,
      "vel": 84,
      "dur": 25
    },
    {
      "t": 1404.7,
      "ch": 1,
      "note": 38,
      "vel": 85,
      "dur": 25
    },
    {
      "t": 1404.7,
      "ch": 1,
      "note": 40,
      "vel": 79,
      "dur": 25
    },
    {
      "t": 1404.7,
      "ch": 1,
      "note": 42,
      "vel": 86,
      "dur": 25
    },
    {
      "t": 1404.7,
      "ch": 1,
      "note": 36,
      "vel": 85,
      "dur": 25
    },
    {
      "t": 1404.7,
      "ch": 1,
      "note": 38,
      "vel": 71,
      "dur": 25
    },
    {
      "t": 1404.7,
      "ch": 1,
      "note": 40,
      "vel": 90,
      "dur": 25
    },
    {
      "t": 1404.7,
      "ch": 1,
      "note": 42,
      "vel": 101,
      "dur": 25
    },
    {
      "t": 1404.7,
      "ch": 1,
      "note": 36,
      "vel": 88,
      "dur": 25
    },
    {
      "t": 1404.7,
      "ch": 1,
      "note": 38,
      "vel": 81,
      "dur": 25
    },
    {
      "t": 1404.7,
      "ch": 1,
      "note": 40,
      "vel": 81,
      "dur": 25
    },
    {
      "t": 1404.7,
      "ch": 1,
      "note": 42,
      "vel": 75,
      "dur": 25
    },
    {
      "t": 1404.7,
      "ch": 1,
      "note": 36,
      "vel": 85,
      "dur": 25
    },
    {
      "t": 1404.7,
      "ch": 1,
      "note": 38,
      "vel": 103,
      "dur": 25
    },
    {
      "t": 1404.7,
      "ch": 1,
      "note": 40,
      "vel": 95,
      "dur": 25
    },
    {
      "t": 1404.7,
      "ch": 1,
      "note": 42,
      "vel": 96,
      "dur": 25
    },
    {
      "t": 1404.7,
      "ch": 1,
      "note": 36,
      "vel": 94,
      "dur": 25
    },
    {
      "t": 1404.7,
      "ch": 1,
      "note": 38,
      "vel": 77,
      "dur": 25
    },
    {
      "t": 1404.7,
      "ch": 1,
      "note": 40,
      "vel": 104,
      "dur": 25
    },
    {
      "t": 1404.7,
      "ch": 1,
      "note": 42,
      "vel": 55,
      "dur": 25
    },
    {
      "t": 1404.7,
      "ch": 1,
      "note": 36,
      "vel": 86,
      "dur": 25
    },
    {
      "t": 1404.7,
      "ch": 1,
      "note": 38,
      "vel": 100,
      "dur": 25
    },
    {
      "t": 1404.7,
      "ch": 1,
      "note": 40,
      "vel": 97,
      "dur": 25
    },
    {
      "t": 1404.7,
      "ch": 1,
      "note": 42,
      "vel": 69,
      "dur": 25
    },
    {
      "t": 1404.7,
      "ch": 1,
      "note": 36,
      "vel": 95,
      "dur": 25
    },
    {
      "t": 1404.7,
      "ch": 1,
      "note": 38,
      "vel": 94,
      "dur": 25
    },
    {
      "t": 1404.7,
      "ch": 1,
      "note": 40,
      "vel": 71,
      "dur": 25
    },
    {
      "t": 1404.7,
      "ch": 1,
      "note": 42,
      "vel": 80,
      "dur": 25
    },
    {
      "t": 1404.7,
      "ch": 1,
      "note": 36,
      "vel": 99,
      "dur": 25
    },
    {
      "t": 1404.7,
      "ch": 1,
      "note": 38,
      "vel": 75,
      "dur": 25
    },
    {
      "t": 1404.7,
      "ch": 1,
      "note": 40,
      "vel": 79,
      "dur": 25
    },
    {
      "t": 1404.7,
      "ch": 1,
      "note": 42,
      "vel": 74,
      "dur": 25
    },
    {
      "t": 1404.7,
      "ch": 1,
      "note": 36,
      "vel": 60,
      "dur": 25
    },
    {
      "t": 1404.7,
      "ch": 1,
      "note": 38,
      "vel": 72,
      "dur": 25
    },
    {
      "t": 1404.7,
      "ch": 1,
      "note": 40,
      "vel": 98,
      "dur": 25
    },
    {
      "t": 1404.7,
      "ch": 1,
      "note": 42,
      "vel": 49,
      "dur": 25
    },
    {
      "t": 1404.7,
      "ch": 1,
      "note": 36,
      "vel": 94,
      "dur": 25
    },
    {
      "t": 1404.7,
      "ch": 1,
      "note": 38,
      "vel": 104,
      "dur": 25
    },
    {
      "t": 1404.7,
      "ch": 1,
      "note": 40,
      "vel": 80,
      "dur": 25
    },
    {
      "t": 1404.7,
      "ch": 1,
      "note": 42,
      "vel": 87,
      "dur": 25
    },
    {
      "t": 1404.7,
      "ch": 1,
      "note": 36,
      "vel": 104,
      "dur": 25
    },
    {
      "t": 1404.7,
      "ch": 1,
      "note": 38,
      "vel": 111,
      "dur": 25
    },
    {
      "t": 1404.7,
      "ch": 1,
      "note": 40,
      "vel": 99,
      "dur": 25
    },
    {
      "t": 1404.7,
      "ch": 1,
      "note": 42,
      "vel": 100,
      "dur": 25
    },
    {
      "t": 1404.7,
      "ch": 1,
      "note": 36,
      "vel": 78,
      "dur": 25
    },
    {
      "t": 1404.7,
      "ch": 7,
      "note": 48,
      "vel": 57,
      "dur": 80
    },
    {
      "t": 1404.7,
      "ch": 7,
      "note": 45,
      "vel": 85,
      "dur": 80
    },
    {
      "t": 1404.7,
      "ch": 7,
      "note": 36,
      "vel": 77,
      "dur": 80
    },
    {
      "t": 1404.7,
      "ch": 7,
      "note": 38,
      "vel": 68,
      "dur": 80
    },
    {
      "t": 1404.8,
      "ch": 1,
      "note": 38,
      "vel": 91,
      "dur": 25
    },
    {
      "t": 1404.8,
      "ch": 1,
      "note": 40,
      "vel": 79,
      "dur": 25
    },
    {
      "t": 1404.9,
      "ch": 1,
      "note": 42,
      "vel": 60,
      "dur": 25
    },
    {
      "t": 1405,
      "ch": 1,
      "note": 36,
      "vel": 69,
      "dur": 25
    },
    {
      "t": 1405,
      "ch": 7,
      "note": 36,
      "vel": 65,
      "dur": 80
    },
    {
      "t": 1405.1,
      "ch": 1,
      "note": 38,
      "vel": 80,
      "dur": 25
    },
    {
      "t": 1405.2,
      "ch": 1,
      "note": 40,
      "vel": 68,
      "dur": 25
    },
    {
      "t": 1405.3,
      "ch": 1,
      "note": 42,
      "vel": 82,
      "dur": 25
    },
    {
      "t": 1405.3,
      "ch": 1,
      "note": 36,
      "vel": 84,
      "dur": 25
    },
    {
      "t": 1405.3,
      "ch": 7,
      "note": 48,
      "vel": 59,
      "dur": 80
    },
    {
      "t": 1405.3,
      "ch": 7,
      "note": 36,
      "vel": 66,
      "dur": 80
    },
    {
      "t": 1405.4,
      "ch": 1,
      "note": 38,
      "vel": 85,
      "dur": 25
    },
    {
      "t": 1405.5,
      "ch": 1,
      "note": 40,
      "vel": 58,
      "dur": 25
    },
    {
      "t": 1405.5,
      "ch": 7,
      "note": 45,
      "vel": 68,
      "dur": 80
    },
    {
      "t": 1405.5,
      "ch": 7,
      "note": 38,
      "vel": 74,
      "dur": 80
    },
    {
      "t": 1405.6,
      "ch": 1,
      "note": 42,
      "vel": 91,
      "dur": 25
    },
    {
      "t": 1405.7,
      "ch": 1,
      "note": 36,
      "vel": 90,
      "dur": 25
    },
    {
      "t": 1405.7,
      "ch": 1,
      "note": 38,
      "vel": 58,
      "dur": 25
    },
    {
      "t": 1405.8,
      "ch": 1,
      "note": 40,
      "vel": 61,
      "dur": 25
    },
    {
      "t": 1405.8,
      "ch": 0,
      "note": 36,
      "vel": 76,
      "dur": 55
    },
    {
      "t": 1405.9,
      "ch": 1,
      "note": 42,
      "vel": 87,
      "dur": 25
    },
    {
      "t": 1406,
      "ch": 1,
      "note": 36,
      "vel": 80,
      "dur": 25
    },
    {
      "t": 1406,
      "ch": 7,
      "note": 48,
      "vel": 76,
      "dur": 80
    },
    {
      "t": 1406,
      "ch": 7,
      "note": 36,
      "vel": 63,
      "dur": 80
    },
    {
      "t": 1406.1,
      "ch": 1,
      "note": 38,
      "vel": 72,
      "dur": 25
    },
    {
      "t": 1406.2,
      "ch": 1,
      "note": 40,
      "vel": 79,
      "dur": 25
    },
    {
      "t": 1406.2,
      "ch": 1,
      "note": 42,
      "vel": 80,
      "dur": 25
    },
    {
      "t": 1406.3,
      "ch": 1,
      "note": 36,
      "vel": 83,
      "dur": 25
    },
    {
      "t": 1406.3,
      "ch": 7,
      "note": 45,
      "vel": 68,
      "dur": 80
    },
    {
      "t": 1406.3,
      "ch": 7,
      "note": 36,
      "vel": 64,
      "dur": 80
    },
    {
      "t": 1406.3,
      "ch": 7,
      "note": 38,
      "vel": 69,
      "dur": 80
    },
    {
      "t": 1406.4,
      "ch": 1,
      "note": 38,
      "vel": 71,
      "dur": 25
    },
    {
      "t": 1406.5,
      "ch": 1,
      "note": 40,
      "vel": 59,
      "dur": 25
    },
    {
      "t": 1406.5,
      "ch": 6,
      "note": 62,
      "vel": 34,
      "dur": 599
    },
    {
      "t": 1406.6,
      "ch": 1,
      "note": 42,
      "vel": 93,
      "dur": 25
    },
    {
      "t": 1406.6,
      "ch": 0,
      "note": 36,
      "vel": 91,
      "dur": 55
    },
    {
      "t": 1406.6,
      "ch": 1,
      "note": 36,
      "vel": 104,
      "dur": 25
    },
    {
      "t": 1406.6,
      "ch": 7,
      "note": 48,
      "vel": 81,
      "dur": 80
    },
    {
      "t": 1406.6,
      "ch": 7,
      "note": 36,
      "vel": 70,
      "dur": 80
    },
    {
      "t": 1406.7,
      "ch": 1,
      "note": 38,
      "vel": 53,
      "dur": 25
    },
    {
      "t": 1406.8,
      "ch": 1,
      "note": 40,
      "vel": 74,
      "dur": 25
    },
    {
      "t": 1406.9,
      "ch": 1,
      "note": 42,
      "vel": 97,
      "dur": 25
    },
    {
      "t": 1407,
      "ch": 1,
      "note": 36,
      "vel": 80,
      "dur": 25
    },
    {
      "t": 1407.1,
      "ch": 1,
      "note": 38,
      "vel": 77,
      "dur": 25
    },
    {
      "t": 1407.1,
      "ch": 1,
      "note": 40,
      "vel": 61,
      "dur": 25
    },
    {
      "t": 1407.2,
      "ch": 1,
      "note": 42,
      "vel": 63,
      "dur": 25
    },
    {
      "t": 1407.3,
      "ch": 0,
      "note": 36,
      "vel": 117,
      "dur": 55
    },
    {
      "t": 1407.3,
      "ch": 1,
      "note": 36,
      "vel": 88,
      "dur": 25
    },
    {
      "t": 1407.3,
      "ch": 7,
      "note": 48,
      "vel": 67,
      "dur": 80
    },
    {
      "t": 1407.3,
      "ch": 7,
      "note": 45,
      "vel": 57,
      "dur": 80
    },
    {
      "t": 1407.3,
      "ch": 7,
      "note": 36,
      "vel": 59,
      "dur": 80
    },
    {
      "t": 1407.3,
      "ch": 7,
      "note": 38,
      "vel": 68,
      "dur": 80
    },
    {
      "t": 1407.4,
      "ch": 1,
      "note": 38,
      "vel": 86,
      "dur": 25
    },
    {
      "t": 1407.5,
      "ch": 1,
      "note": 40,
      "vel": 52,
      "dur": 25
    },
    {
      "t": 1407.5,
      "ch": 5,
      "note": 59,
      "vel": 43,
      "dur": 895
    },
    {
      "t": 1407.5,
      "ch": 1,
      "note": 42,
      "vel": 59,
      "dur": 25
    },
    {
      "t": 1407.6,
      "ch": 1,
      "note": 36,
      "vel": 68,
      "dur": 25
    },
    {
      "t": 1407.6,
      "ch": 7,
      "note": 36,
      "vel": 65,
      "dur": 80
    },
    {
      "t": 1407.7,
      "ch": 1,
      "note": 38,
      "vel": 84,
      "dur": 25
    },
    {
      "t": 1407.8,
      "ch": 1,
      "note": 40,
      "vel": 74,
      "dur": 25
    },
    {
      "t": 1407.9,
      "ch": 1,
      "note": 42,
      "vel": 72,
      "dur": 25
    },
    {
      "t": 1407.9,
      "ch": 1,
      "note": 36,
      "vel": 109,
      "dur": 25
    },
    {
      "t": 1407.9,
      "ch": 7,
      "note": 48,
      "vel": 66,
      "dur": 80
    },
    {
      "t": 1407.9,
      "ch": 7,
      "note": 36,
      "vel": 70,
      "dur": 80
    },
    {
      "t": 1408,
      "ch": 1,
      "note": 38,
      "vel": 78,
      "dur": 25
    },
    {
      "t": 1408.1,
      "ch": 1,
      "note": 40,
      "vel": 84,
      "dur": 25
    },
    {
      "t": 1408.1,
      "ch": 7,
      "note": 45,
      "vel": 63,
      "dur": 80
    },
    {
      "t": 1408.1,
      "ch": 7,
      "note": 38,
      "vel": 62,
      "dur": 80
    },
    {
      "t": 1408.2,
      "ch": 1,
      "note": 42,
      "vel": 71,
      "dur": 25
    },
    {
      "t": 1408.3,
      "ch": 1,
      "note": 36,
      "vel": 86,
      "dur": 25
    },
    {
      "t": 1408.4,
      "ch": 1,
      "note": 38,
      "vel": 60,
      "dur": 25
    },
    {
      "t": 1408.4,
      "ch": 1,
      "note": 40,
      "vel": 90,
      "dur": 25
    },
    {
      "t": 1408.4,
      "ch": 0,
      "note": 36,
      "vel": 89,
      "dur": 55
    },
    {
      "t": 1408.4,
      "ch": 6,
      "note": 62,
      "vel": 23,
      "dur": 593
    },
    {
      "t": 1408.5,
      "ch": 1,
      "note": 42,
      "vel": 77,
      "dur": 25
    },
    {
      "t": 1408.6,
      "ch": 1,
      "note": 36,
      "vel": 76,
      "dur": 25
    },
    {
      "t": 1408.6,
      "ch": 7,
      "note": 48,
      "vel": 52,
      "dur": 80
    },
    {
      "t": 1408.6,
      "ch": 7,
      "note": 36,
      "vel": 77,
      "dur": 80
    },
    {
      "t": 1408.7,
      "ch": 1,
      "note": 38,
      "vel": 78,
      "dur": 25
    },
    {
      "t": 1408.8,
      "ch": 1,
      "note": 40,
      "vel": 75,
      "dur": 25
    },
    {
      "t": 1408.8,
      "ch": 1,
      "note": 42,
      "vel": 64,
      "dur": 25
    },
    {
      "t": 1408.9,
      "ch": 1,
      "note": 36,
      "vel": 87,
      "dur": 25
    },
    {
      "t": 1408.9,
      "ch": 7,
      "note": 45,
      "vel": 64,
      "dur": 80
    },
    {
      "t": 1408.9,
      "ch": 7,
      "note": 36,
      "vel": 52,
      "dur": 80
    },
    {
      "t": 1408.9,
      "ch": 7,
      "note": 38,
      "vel": 52,
      "dur": 80
    },
    {
      "t": 1408.9,
      "ch": 5,
      "note": 59,
      "vel": 30,
      "dur": 887
    },
    {
      "t": 1409,
      "ch": 1,
      "note": 38,
      "vel": 75,
      "dur": 25
    },
    {
      "t": 1409.1,
      "ch": 1,
      "note": 40,
      "vel": 72,
      "dur": 25
    },
    {
      "t": 1409.1,
      "ch": 5,
      "note": 71,
      "vel": 60,
      "dur": 886
    },
    {
      "t": 1409.2,
      "ch": 1,
      "note": 42,
      "vel": 76,
      "dur": 25
    },
    {
      "t": 1409.2,
      "ch": 6,
      "note": 62,
      "vel": 14,
      "dur": 400
    },
    {
      "t": 1409.2,
      "ch": 0,
      "note": 36,
      "vel": 89,
      "dur": 55
    },
    {
      "t": 1409.2,
      "ch": 1,
      "note": 36,
      "vel": 85,
      "dur": 25
    },
    {
      "t": 1409.2,
      "ch": 7,
      "note": 48,
      "vel": 67,
      "dur": 80
    },
    {
      "t": 1409.2,
      "ch": 7,
      "note": 36,
      "vel": 70,
      "dur": 80
    },
    {
      "t": 1409.3,
      "ch": 1,
      "note": 38,
      "vel": 94,
      "dur": 25
    },
    {
      "t": 1409.4,
      "ch": 1,
      "note": 40,
      "vel": 69,
      "dur": 25
    },
    {
      "t": 1409.5,
      "ch": 1,
      "note": 42,
      "vel": 57,
      "dur": 25
    },
    {
      "t": 1409.6,
      "ch": 1,
      "note": 36,
      "vel": 70,
      "dur": 25
    },
    {
      "t": 1409.7,
      "ch": 1,
      "note": 38,
      "vel": 92,
      "dur": 25
    },
    {
      "t": 1409.7,
      "ch": 1,
      "note": 40,
      "vel": 71,
      "dur": 25
    },
    {
      "t": 1409.8,
      "ch": 1,
      "note": 42,
      "vel": 68,
      "dur": 25
    },
    {
      "t": 1409.9,
      "ch": 0,
      "note": 36,
      "vel": 118,
      "dur": 55
    },
    {
      "t": 1409.9,
      "ch": 1,
      "note": 36,
      "vel": 93,
      "dur": 25
    },
    {
      "t": 1409.9,
      "ch": 7,
      "note": 48,
      "vel": 67,
      "dur": 80
    },
    {
      "t": 1409.9,
      "ch": 7,
      "note": 45,
      "vel": 74,
      "dur": 80
    },
    {
      "t": 1409.9,
      "ch": 7,
      "note": 36,
      "vel": 68,
      "dur": 80
    },
    {
      "t": 1409.9,
      "ch": 7,
      "note": 38,
      "vel": 85,
      "dur": 80
    },
    {
      "t": 1409.9,
      "ch": 5,
      "note": 72,
      "vel": 54,
      "dur": 881
    },
    {
      "t": 1410,
      "ch": 1,
      "note": 38,
      "vel": 80,
      "dur": 25
    },
    {
      "t": 1410.1,
      "ch": 1,
      "note": 40,
      "vel": 72,
      "dur": 25
    },
    {
      "t": 1410.1,
      "ch": 5,
      "note": 59,
      "vel": 36,
      "dur": 880
    },
    {
      "t": 1410.2,
      "ch": 1,
      "note": 42,
      "vel": 80,
      "dur": 25
    },
    {
      "t": 1410.2,
      "ch": 1,
      "note": 36,
      "vel": 73,
      "dur": 25
    },
    {
      "t": 1410.2,
      "ch": 7,
      "note": 36,
      "vel": 66,
      "dur": 80
    },
    {
      "t": 1410.3,
      "ch": 1,
      "note": 38,
      "vel": 88,
      "dur": 25
    },
    {
      "t": 1410.4,
      "ch": 1,
      "note": 40,
      "vel": 69,
      "dur": 25
    },
    {
      "t": 1410.5,
      "ch": 1,
      "note": 42,
      "vel": 79,
      "dur": 25
    },
    {
      "t": 1410.6,
      "ch": 1,
      "note": 36,
      "vel": 99,
      "dur": 25
    },
    {
      "t": 1410.6,
      "ch": 7,
      "note": 48,
      "vel": 77,
      "dur": 80
    },
    {
      "t": 1410.6,
      "ch": 7,
      "note": 36,
      "vel": 63,
      "dur": 80
    },
    {
      "t": 1410.6,
      "ch": 1,
      "note": 38,
      "vel": 73,
      "dur": 25
    },
    {
      "t": 1410.7,
      "ch": 1,
      "note": 40,
      "vel": 47,
      "dur": 25
    },
    {
      "t": 1410.7,
      "ch": 7,
      "note": 45,
      "vel": 43,
      "dur": 80
    },
    {
      "t": 1410.7,
      "ch": 7,
      "note": 38,
      "vel": 63,
      "dur": 80
    },
    {
      "t": 1410.8,
      "ch": 1,
      "note": 42,
      "vel": 95,
      "dur": 25
    },
    {
      "t": 1410.9,
      "ch": 1,
      "note": 36,
      "vel": 70,
      "dur": 25
    },
    {
      "t": 1411,
      "ch": 1,
      "note": 38,
      "vel": 87,
      "dur": 25
    },
    {
      "t": 1411,
      "ch": 1,
      "note": 40,
      "vel": 83,
      "dur": 25
    },
    {
      "t": 1411,
      "ch": 0,
      "note": 36,
      "vel": 82,
      "dur": 55
    },
    {
      "t": 1411.1,
      "ch": 1,
      "note": 42,
      "vel": 76,
      "dur": 25
    },
    {
      "t": 1411.2,
      "ch": 1,
      "note": 36,
      "vel": 85,
      "dur": 25
    },
    {
      "t": 1411.2,
      "ch": 7,
      "note": 48,
      "vel": 80,
      "dur": 80
    },
    {
      "t": 1411.2,
      "ch": 7,
      "note": 36,
      "vel": 77,
      "dur": 80
    },
    {
      "t": 1411.3,
      "ch": 1,
      "note": 38,
      "vel": 75,
      "dur": 25
    },
    {
      "t": 1411.4,
      "ch": 1,
      "note": 40,
      "vel": 86,
      "dur": 25
    },
    {
      "t": 1411.5,
      "ch": 1,
      "note": 42,
      "vel": 48,
      "dur": 25
    },
    {
      "t": 1411.5,
      "ch": 1,
      "note": 36,
      "vel": 77,
      "dur": 25
    },
    {
      "t": 1411.5,
      "ch": 7,
      "note": 45,
      "vel": 61,
      "dur": 80
    },
    {
      "t": 1411.5,
      "ch": 7,
      "note": 36,
      "vel": 65,
      "dur": 80
    },
    {
      "t": 1411.5,
      "ch": 7,
      "note": 38,
      "vel": 57,
      "dur": 80
    },
    {
      "t": 1411.5,
      "ch": 6,
      "note": 62,
      "vel": 23,
      "dur": 580
    },
    {
      "t": 1411.6,
      "ch": 1,
      "note": 38,
      "vel": 76,
      "dur": 25
    },
    {
      "t": 1411.7,
      "ch": 1,
      "note": 40,
      "vel": 65,
      "dur": 25
    },
    {
      "t": 1411.8,
      "ch": 1,
      "note": 42,
      "vel": 83,
      "dur": 25
    },
    {
      "t": 1411.9,
      "ch": 0,
      "note": 36,
      "vel": 92,
      "dur": 55
    },
    {
      "t": 1411.9,
      "ch": 1,
      "note": 36,
      "vel": 58,
      "dur": 25
    },
    {
      "t": 1411.9,
      "ch": 7,
      "note": 48,
      "vel": 65,
      "dur": 80
    },
    {
      "t": 1411.9,
      "ch": 7,
      "note": 36,
      "vel": 76,
      "dur": 80
    },
    {
      "t": 1412,
      "ch": 1,
      "note": 38,
      "vel": 105,
      "dur": 25
    },
    {
      "t": 1412,
      "ch": 1,
      "note": 40,
      "vel": 67,
      "dur": 25
    },
    {
      "t": 1412.1,
      "ch": 1,
      "note": 42,
      "vel": 57,
      "dur": 25
    },
    {
      "t": 1412.2,
      "ch": 1,
      "note": 36,
      "vel": 82,
      "dur": 25
    },
    {
      "t": 1412.3,
      "ch": 1,
      "note": 38,
      "vel": 81,
      "dur": 25
    },
    {
      "t": 1412.3,
      "ch": 1,
      "note": 40,
      "vel": 71,
      "dur": 25
    },
    {
      "t": 1412.4,
      "ch": 5,
      "note": 59,
      "vel": 43,
      "dur": 866
    },
    {
      "t": 1412.4,
      "ch": 1,
      "note": 42,
      "vel": 85,
      "dur": 25
    },
    {
      "t": 1412.5,
      "ch": 1,
      "note": 36,
      "vel": 89,
      "dur": 25
    },
    {
      "t": 1412.5,
      "ch": 7,
      "note": 48,
      "vel": 79,
      "dur": 80
    },
    {
      "t": 1412.5,
      "ch": 7,
      "note": 45,
      "vel": 78,
      "dur": 80
    },
    {
      "t": 1412.5,
      "ch": 7,
      "note": 36,
      "vel": 77,
      "dur": 80
    },
    {
      "t": 1412.5,
      "ch": 7,
      "note": 38,
      "vel": 81,
      "dur": 80
    },
    {
      "t": 1412.6,
      "ch": 1,
      "note": 38,
      "vel": 90,
      "dur": 25
    },
    {
      "t": 1412.7,
      "ch": 1,
      "note": 40,
      "vel": 70,
      "dur": 25
    },
    {
      "t": 1412.7,
      "ch": 6,
      "note": 65,
      "vel": 23,
      "dur": 400
    },
    {
      "t": 1412.8,
      "ch": 1,
      "note": 42,
      "vel": 70,
      "dur": 25
    },
    {
      "t": 1412.8,
      "ch": 1,
      "note": 36,
      "vel": 67,
      "dur": 25
    },
    {
      "t": 1412.8,
      "ch": 7,
      "note": 36,
      "vel": 65,
      "dur": 80
    },
    {
      "t": 1412.9,
      "ch": 1,
      "note": 38,
      "vel": 73,
      "dur": 25
    },
    {
      "t": 1413,
      "ch": 1,
      "note": 40,
      "vel": 77,
      "dur": 25
    },
    {
      "t": 1413.1,
      "ch": 1,
      "note": 42,
      "vel": 61,
      "dur": 25
    },
    {
      "t": 1413.2,
      "ch": 1,
      "note": 36,
      "vel": 89,
      "dur": 25
    },
    {
      "t": 1413.2,
      "ch": 7,
      "note": 48,
      "vel": 71,
      "dur": 80
    },
    {
      "t": 1413.2,
      "ch": 7,
      "note": 36,
      "vel": 78,
      "dur": 80
    },
    {
      "t": 1413.2,
      "ch": 5,
      "note": 71,
      "vel": 42,
      "dur": 861
    },
    {
      "t": 1413.3,
      "ch": 1,
      "note": 38,
      "vel": 90,
      "dur": 25
    },
    {
      "t": 1413.3,
      "ch": 1,
      "note": 40,
      "vel": 79,
      "dur": 25
    },
    {
      "t": 1413.3,
      "ch": 7,
      "note": 45,
      "vel": 63,
      "dur": 80
    },
    {
      "t": 1413.3,
      "ch": 7,
      "note": 38,
      "vel": 71,
      "dur": 80
    },
    {
      "t": 1413.4,
      "ch": 1,
      "note": 42,
      "vel": 72,
      "dur": 25
    },
    {
      "t": 1413.5,
      "ch": 1,
      "note": 36,
      "vel": 66,
      "dur": 25
    },
    {
      "t": 1413.5,
      "ch": 6,
      "note": 74,
      "vel": 13,
      "dur": 400
    },
    {
      "t": 1413.6,
      "ch": 1,
      "note": 38,
      "vel": 70,
      "dur": 25
    },
    {
      "t": 1413.7,
      "ch": 1,
      "note": 40,
      "vel": 100,
      "dur": 25
    },
    {
      "t": 1413.7,
      "ch": 2,
      "note": 50,
      "vel": 60,
      "dur": 19565
    },
    {
      "t": 1413.7,
      "ch": 2,
      "note": 62,
      "vel": 42,
      "dur": 19565
    },
    {
      "t": 1413.7,
      "ch": 1,
      "note": 42,
      "vel": 69,
      "dur": 25
    },
    {
      "t": 1413.8,
      "ch": 1,
      "note": 36,
      "vel": 91,
      "dur": 25
    },
    {
      "t": 1413.8,
      "ch": 7,
      "note": 48,
      "vel": 79,
      "dur": 80
    },
    {
      "t": 1413.8,
      "ch": 7,
      "note": 36,
      "vel": 66,
      "dur": 80
    },
    {
      "t": 1413.9,
      "ch": 1,
      "note": 38,
      "vel": 77,
      "dur": 25
    },
    {
      "t": 1414,
      "ch": 1,
      "note": 40,
      "vel": 69,
      "dur": 25
    },
    {
      "t": 1414.1,
      "ch": 1,
      "note": 42,
      "vel": 86,
      "dur": 25
    },
    {
      "t": 1414.1,
      "ch": 1,
      "note": 36,
      "vel": 80,
      "dur": 25
    },
    {
      "t": 1414.2,
      "ch": 7,
      "note": 45,
      "vel": 63,
      "dur": 80
    },
    {
      "t": 1414.2,
      "ch": 7,
      "note": 36,
      "vel": 72,
      "dur": 80
    },
    {
      "t": 1414.2,
      "ch": 7,
      "note": 38,
      "vel": 55,
      "dur": 80
    },
    {
      "t": 1414.2,
      "ch": 1,
      "note": 38,
      "vel": 66,
      "dur": 25
    },
    {
      "t": 1414.3,
      "ch": 1,
      "note": 40,
      "vel": 91,
      "dur": 25
    },
    {
      "t": 1414.4,
      "ch": 1,
      "note": 42,
      "vel": 99,
      "dur": 25
    },
    {
      "t": 1414.5,
      "ch": 1,
      "note": 36,
      "vel": 79,
      "dur": 25
    },
    {
      "t": 1414.5,
      "ch": 7,
      "note": 48,
      "vel": 63,
      "dur": 80
    },
    {
      "t": 1414.5,
      "ch": 7,
      "note": 36,
      "vel": 63,
      "dur": 80
    },
    {
      "t": 1414.6,
      "ch": 1,
      "note": 38,
      "vel": 94,
      "dur": 25
    },
    {
      "t": 1414.6,
      "ch": 1,
      "note": 40,
      "vel": 68,
      "dur": 25
    },
    {
      "t": 1414.7,
      "ch": 1,
      "note": 42,
      "vel": 85,
      "dur": 25
    },
    {
      "t": 1414.8,
      "ch": 1,
      "note": 36,
      "vel": 82,
      "dur": 25
    },
    {
      "t": 1414.9,
      "ch": 1,
      "note": 38,
      "vel": 74,
      "dur": 25
    },
    {
      "t": 1415,
      "ch": 1,
      "note": 40,
      "vel": 80,
      "dur": 25
    },
    {
      "t": 1415,
      "ch": 1,
      "note": 42,
      "vel": 80,
      "dur": 25
    },
    {
      "t": 1415.1,
      "ch": 7,
      "note": 48,
      "vel": 72,
      "dur": 80
    },
    {
      "t": 1415.1,
      "ch": 7,
      "note": 45,
      "vel": 67,
      "dur": 80
    },
    {
      "t": 1415.1,
      "ch": 7,
      "note": 36,
      "vel": 65,
      "dur": 80
    },
    {
      "t": 1415.1,
      "ch": 7,
      "note": 38,
      "vel": 67,
      "dur": 80
    },
    {
      "t": 1415.5,
      "ch": 7,
      "note": 36,
      "vel": 66,
      "dur": 80
    },
    {
      "t": 1415.8,
      "ch": 7,
      "note": 48,
      "vel": 65,
      "dur": 80
    },
    {
      "t": 1415.8,
      "ch": 7,
      "note": 36,
      "vel": 73,
      "dur": 80
    },
    {
      "t": 1416,
      "ch": 7,
      "note": 45,
      "vel": 68,
      "dur": 80
    },
    {
      "t": 1416,
      "ch": 7,
      "note": 38,
      "vel": 59,
      "dur": 80
    },
    {
      "t": 1416.3,
      "ch": 5,
      "note": 62,
      "vel": 24,
      "dur": 853
    },
    {
      "t": 1416.3,
      "ch": 4,
      "note": 57,
      "vel": 63,
      "dur": 2558
    },
    {
      "t": 1416.3,
      "ch": 4,
      "note": 52,
      "vel": 62,
      "dur": 2558
    },
    {
      "t": 1416.4,
      "ch": 7,
      "note": 48,
      "vel": 73,
      "dur": 80
    },
    {
      "t": 1416.4,
      "ch": 7,
      "note": 36,
      "vel": 85,
      "dur": 80
    },
    {
      "t": 1416.5,
      "ch": 5,
      "note": 64,
      "vel": 31,
      "dur": 853
    },
    {
      "t": 1416.5,
      "ch": 6,
      "note": 67,
      "vel": 37,
      "dur": 569
    },
    {
      "t": 1416.8,
      "ch": 7,
      "note": 45,
      "vel": 60,
      "dur": 80
    },
    {
      "t": 1416.8,
      "ch": 7,
      "note": 36,
      "vel": 71,
      "dur": 80
    },
    {
      "t": 1416.8,
      "ch": 7,
      "note": 38,
      "vel": 71,
      "dur": 80
    },
    {
      "t": 1417.1,
      "ch": 7,
      "note": 48,
      "vel": 78,
      "dur": 80
    },
    {
      "t": 1417.1,
      "ch": 7,
      "note": 36,
      "vel": 59,
      "dur": 80
    },
    {
      "t": 1417.1,
      "ch": 5,
      "note": 62,
      "vel": 66,
      "dur": 854
    },
    {
      "t": 1417.5,
      "ch": 6,
      "note": 69,
      "vel": 1,
      "dur": 400
    },
    {
      "t": 1417.7,
      "ch": 7,
      "note": 48,
      "vel": 74,
      "dur": 80
    },
    {
      "t": 1417.7,
      "ch": 7,
      "note": 45,
      "vel": 69,
      "dur": 80
    },
    {
      "t": 1417.7,
      "ch": 7,
      "note": 36,
      "vel": 70,
      "dur": 80
    },
    {
      "t": 1417.7,
      "ch": 7,
      "note": 38,
      "vel": 78,
      "dur": 80
    },
    {
      "t": 1417.7,
      "ch": 6,
      "note": 53,
      "vel": 29,
      "dur": 570
    },
    {
      "t": 1417.9,
      "ch": 5,
      "note": 57,
      "vel": 15,
      "dur": 855
    },
    {
      "t": 1418.1,
      "ch": 7,
      "note": 36,
      "vel": 51,
      "dur": 80
    },
    {
      "t": 1418.1,
      "ch": 5,
      "note": 62,
      "vel": 22,
      "dur": 856
    },
    {
      "t": 1418.4,
      "ch": 7,
      "note": 48,
      "vel": 63,
      "dur": 80
    },
    {
      "t": 1418.4,
      "ch": 7,
      "note": 36,
      "vel": 71,
      "dur": 80
    },
    {
      "t": 1418.6,
      "ch": 7,
      "note": 45,
      "vel": 71,
      "dur": 80
    },
    {
      "t": 1418.6,
      "ch": 7,
      "note": 38,
      "vel": 62,
      "dur": 80
    },
    {
      "t": 1419,
      "ch": 4,
      "note": 55,
      "vel": 64,
      "dur": 2558
    },
    {
      "t": 1419,
      "ch": 4,
      "note": 59,
      "vel": 78,
      "dur": 2558
    },
    {
      "t": 1419,
      "ch": 7,
      "note": 48,
      "vel": 70,
      "dur": 80
    },
    {
      "t": 1419,
      "ch": 7,
      "note": 36,
      "vel": 72,
      "dur": 80
    },
    {
      "t": 1419.4,
      "ch": 7,
      "note": 45,
      "vel": 51,
      "dur": 80
    },
    {
      "t": 1419.4,
      "ch": 7,
      "note": 36,
      "vel": 64,
      "dur": 80
    },
    {
      "t": 1419.4,
      "ch": 7,
      "note": 38,
      "vel": 60,
      "dur": 80
    },
    {
      "t": 1419.7,
      "ch": 7,
      "note": 48,
      "vel": 73,
      "dur": 80
    },
    {
      "t": 1419.7,
      "ch": 7,
      "note": 36,
      "vel": 75,
      "dur": 80
    },
    {
      "t": 1419.7,
      "ch": 5,
      "note": 64,
      "vel": 37,
      "dur": 862
    },
    {
      "t": 1420.1,
      "ch": 6,
      "note": 69,
      "vel": 10,
      "dur": 400
    },
    {
      "t": 1420.3,
      "ch": 7,
      "note": 48,
      "vel": 59,
      "dur": 80
    },
    {
      "t": 1420.3,
      "ch": 7,
      "note": 45,
      "vel": 67,
      "dur": 80
    },
    {
      "t": 1420.3,
      "ch": 7,
      "note": 36,
      "vel": 61,
      "dur": 80
    },
    {
      "t": 1420.3,
      "ch": 7,
      "note": 38,
      "vel": 62,
      "dur": 80
    },
    {
      "t": 1420.7,
      "ch": 7,
      "note": 36,
      "vel": 58,
      "dur": 80
    },
    {
      "t": 1421,
      "ch": 7,
      "note": 48,
      "vel": 68,
      "dur": 80
    },
    {
      "t": 1421,
      "ch": 7,
      "note": 36,
      "vel": 66,
      "dur": 80
    },
    {
      "t": 1421.2,
      "ch": 7,
      "note": 45,
      "vel": 59,
      "dur": 80
    },
    {
      "t": 1421.2,
      "ch": 7,
      "note": 38,
      "vel": 68,
      "dur": 80
    },
    {
      "t": 1421.6,
      "ch": 4,
      "note": 57,
      "vel": 60,
      "dur": 2558
    },
    {
      "t": 1421.6,
      "ch": 4,
      "note": 52,
      "vel": 63,
      "dur": 2558
    },
    {
      "t": 1421.6,
      "ch": 7,
      "note": 48,
      "vel": 75,
      "dur": 80
    },
    {
      "t": 1421.6,
      "ch": 7,
      "note": 36,
      "vel": 60,
      "dur": 80
    },
    {
      "t": 1422,
      "ch": 7,
      "note": 45,
      "vel": 64,
      "dur": 80
    },
    {
      "t": 1422,
      "ch": 7,
      "note": 36,
      "vel": 57,
      "dur": 80
    },
    {
      "t": 1422,
      "ch": 7,
      "note": 38,
      "vel": 62,
      "dur": 80
    },
    {
      "t": 1422.2,
      "ch": 6,
      "note": 67,
      "vel": 24,
      "dur": 584
    },
    {
      "t": 1422.3,
      "ch": 7,
      "note": 48,
      "vel": 73,
      "dur": 80
    },
    {
      "t": 1422.3,
      "ch": 7,
      "note": 36,
      "vel": 82,
      "dur": 80
    },
    {
      "t": 1423,
      "ch": 7,
      "note": 48,
      "vel": 65,
      "dur": 80
    },
    {
      "t": 1423,
      "ch": 7,
      "note": 45,
      "vel": 57,
      "dur": 80
    },
    {
      "t": 1423,
      "ch": 7,
      "note": 36,
      "vel": 81,
      "dur": 80
    },
    {
      "t": 1423,
      "ch": 7,
      "note": 38,
      "vel": 61,
      "dur": 80
    },
    {
      "t": 1423.3,
      "ch": 7,
      "note": 36,
      "vel": 62,
      "dur": 80
    },
    {
      "t": 1423.3,
      "ch": 5,
      "note": 62,
      "vel": 35,
      "dur": 882
    },
    {
      "t": 1423.6,
      "ch": 7,
      "note": 48,
      "vel": 72,
      "dur": 80
    },
    {
      "t": 1423.6,
      "ch": 7,
      "note": 36,
      "vel": 68,
      "dur": 80
    },
    {
      "t": 1423.8,
      "ch": 7,
      "note": 45,
      "vel": 65,
      "dur": 80
    },
    {
      "t": 1423.8,
      "ch": 7,
      "note": 38,
      "vel": 58,
      "dur": 80
    },
    {
      "t": 1423.8,
      "ch": 5,
      "note": 57,
      "vel": 44,
      "dur": 885
    },
    {
      "t": 1424.1,
      "ch": 6,
      "note": 60,
      "vel": 27,
      "dur": 400
    },
    {
      "t": 1424.2,
      "ch": 2,
      "note": 50,
      "vel": 0,
      "dur": 0
    },
    {
      "t": 1424.2,
      "ch": 2,
      "note": 62,
      "vel": 0,
      "dur": 0
    },
    {
      "t": 1424.2,
      "ch": 2,
      "note": 48,
      "vel": 59,
      "dur": 19565
    },
    {
      "t": 1424.2,
      "ch": 2,
      "note": 60,
      "vel": 41,
      "dur": 19565
    },
    {
      "t": 1424.2,
      "ch": 4,
      "note": 55,
      "vel": 59,
      "dur": 2558
    },
    {
      "t": 1424.2,
      "ch": 4,
      "note": 59,
      "vel": 75,
      "dur": 2558
    },
    {
      "t": 1424.2,
      "ch": 7,
      "note": 48,
      "vel": 61,
      "dur": 80
    },
    {
      "t": 1424.2,
      "ch": 7,
      "note": 36,
      "vel": 81,
      "dur": 80
    },
    {
      "t": 1424.6,
      "ch": 7,
      "note": 45,
      "vel": 55,
      "dur": 80
    },
    {
      "t": 1424.6,
      "ch": 7,
      "note": 36,
      "vel": 67,
      "dur": 80
    },
    {
      "t": 1424.6,
      "ch": 7,
      "note": 38,
      "vel": 64,
      "dur": 80
    },
    {
      "t": 1424.9,
      "ch": 7,
      "note": 48,
      "vel": 80,
      "dur": 80
    },
    {
      "t": 1424.9,
      "ch": 7,
      "note": 36,
      "vel": 78,
      "dur": 80
    },
    {
      "t": 1425.6,
      "ch": 0,
      "note": 36,
      "vel": 127,
      "dur": 55
    },
    {
      "t": 1425.6,
      "ch": 7,
      "note": 48,
      "vel": 78,
      "dur": 80
    },
    {
      "t": 1425.6,
      "ch": 7,
      "note": 45,
      "vel": 54,
      "dur": 80
    },
    {
      "t": 1425.6,
      "ch": 7,
      "note": 36,
      "vel": 74,
      "dur": 80
    },
    {
      "t": 1425.6,
      "ch": 7,
      "note": 38,
      "vel": 61,
      "dur": 80
    },
    {
      "t": 1425.7,
      "ch": 5,
      "note": 62,
      "vel": 38,
      "dur": 893
    },
    {
      "t": 1425.9,
      "ch": 7,
      "note": 36,
      "vel": 65,
      "dur": 80
    },
    {
      "t": 1425.9,
      "ch": 6,
      "note": 65,
      "vel": 27,
      "dur": 596
    },
    {
      "t": 1426,
      "ch": 6,
      "note": 69,
      "vel": 17,
      "dur": 400
    },
    {
      "t": 1426.2,
      "ch": 7,
      "note": 48,
      "vel": 74,
      "dur": 80
    },
    {
      "t": 1426.2,
      "ch": 7,
      "note": 36,
      "vel": 65,
      "dur": 80
    },
    {
      "t": 1426.4,
      "ch": 7,
      "note": 45,
      "vel": 59,
      "dur": 80
    },
    {
      "t": 1426.4,
      "ch": 7,
      "note": 38,
      "vel": 61,
      "dur": 80
    },
    {
      "t": 1426.4,
      "ch": 6,
      "note": 67,
      "vel": 25,
      "dur": 596
    },
    {
      "t": 1426.7,
      "ch": 0,
      "note": 36,
      "vel": 86,
      "dur": 55
    },
    {
      "t": 1426.8,
      "ch": 4,
      "note": 57,
      "vel": 56,
      "dur": 2558
    },
    {
      "t": 1426.8,
      "ch": 4,
      "note": 52,
      "vel": 56,
      "dur": 2558
    },
    {
      "t": 1426.8,
      "ch": 3,
      "note": 36,
      "vel": 59,
      "dur": 2608
    },
    {
      "t": 1426.9,
      "ch": 7,
      "note": 48,
      "vel": 74,
      "dur": 80
    },
    {
      "t": 1426.9,
      "ch": 7,
      "note": 36,
      "vel": 59,
      "dur": 80
    },
    {
      "t": 1426.9,
      "ch": 5,
      "note": 64,
      "vel": 13,
      "dur": 895
    },
    {
      "t": 1427.2,
      "ch": 7,
      "note": 45,
      "vel": 63,
      "dur": 80
    },
    {
      "t": 1427.2,
      "ch": 7,
      "note": 36,
      "vel": 60,
      "dur": 80
    },
    {
      "t": 1427.2,
      "ch": 7,
      "note": 38,
      "vel": 70,
      "dur": 80
    },
    {
      "t": 1427.5,
      "ch": 0,
      "note": 36,
      "vel": 92,
      "dur": 55
    },
    {
      "t": 1427.5,
      "ch": 7,
      "note": 48,
      "vel": 62,
      "dur": 80
    },
    {
      "t": 1427.5,
      "ch": 7,
      "note": 36,
      "vel": 73,
      "dur": 80
    },
    {
      "t": 1427.7,
      "ch": 6,
      "note": 65,
      "vel": 36,
      "dur": 597
    },
    {
      "t": 1428.2,
      "ch": 0,
      "note": 36,
      "vel": 113,
      "dur": 55
    },
    {
      "t": 1428.2,
      "ch": 7,
      "note": 48,
      "vel": 64,
      "dur": 80
    },
    {
      "t": 1428.2,
      "ch": 7,
      "note": 45,
      "vel": 58,
      "dur": 80
    },
    {
      "t": 1428.2,
      "ch": 7,
      "note": 36,
      "vel": 69,
      "dur": 80
    },
    {
      "t": 1428.2,
      "ch": 7,
      "note": 38,
      "vel": 72,
      "dur": 80
    },
    {
      "t": 1428.5,
      "ch": 7,
      "note": 36,
      "vel": 64,
      "dur": 80
    },
    {
      "t": 1428.5,
      "ch": 5,
      "note": 62,
      "vel": 18,
      "dur": 895
    },
    {
      "t": 1428.8,
      "ch": 7,
      "note": 48,
      "vel": 77,
      "dur": 80
    },
    {
      "t": 1428.8,
      "ch": 7,
      "note": 36,
      "vel": 67,
      "dur": 80
    },
    {
      "t": 1429,
      "ch": 7,
      "note": 45,
      "vel": 61,
      "dur": 80
    },
    {
      "t": 1429,
      "ch": 7,
      "note": 38,
      "vel": 66,
      "dur": 80
    },
    {
      "t": 1429.3,
      "ch": 0,
      "note": 36,
      "vel": 84,
      "dur": 55
    },
    {
      "t": 1429.4,
      "ch": 4,
      "note": 55,
      "vel": 60,
      "dur": 2558
    },
    {
      "t": 1429.4,
      "ch": 4,
      "note": 59,
      "vel": 72,
      "dur": 2558
    },
    {
      "t": 1429.4,
      "ch": 3,
      "note": 43,
      "vel": 60,
      "dur": 2608
    },
    {
      "t": 1429.5,
      "ch": 7,
      "note": 48,
      "vel": 79,
      "dur": 80
    },
    {
      "t": 1429.5,
      "ch": 7,
      "note": 36,
      "vel": 80,
      "dur": 80
    },
    {
      "t": 1429.6,
      "ch": 5,
      "note": 57,
      "vel": 29,
      "dur": 892
    },
    {
      "t": 1429.8,
      "ch": 7,
      "note": 45,
      "vel": 67,
      "dur": 80
    },
    {
      "t": 1429.8,
      "ch": 7,
      "note": 36,
      "vel": 60,
      "dur": 80
    },
    {
      "t": 1429.8,
      "ch": 7,
      "note": 38,
      "vel": 50,
      "dur": 80
    },
    {
      "t": 1429.8,
      "ch": 5,
      "note": 62,
      "vel": 45,
      "dur": 891
    },
    {
      "t": 1430.1,
      "ch": 0,
      "note": 36,
      "vel": 94,
      "dur": 55
    },
    {
      "t": 1430.1,
      "ch": 7,
      "note": 48,
      "vel": 72,
      "dur": 80
    },
    {
      "t": 1430.1,
      "ch": 7,
      "note": 36,
      "vel": 73,
      "dur": 80
    },
    {
      "t": 1430.8,
      "ch": 0,
      "note": 36,
      "vel": 113,
      "dur": 55
    },
    {
      "t": 1430.8,
      "ch": 7,
      "note": 48,
      "vel": 77,
      "dur": 80
    },
    {
      "t": 1430.8,
      "ch": 7,
      "note": 45,
      "vel": 74,
      "dur": 80
    },
    {
      "t": 1430.8,
      "ch": 7,
      "note": 36,
      "vel": 60,
      "dur": 80
    },
    {
      "t": 1430.8,
      "ch": 7,
      "note": 38,
      "vel": 54,
      "dur": 80
    },
    {
      "t": 1431.1,
      "ch": 7,
      "note": 36,
      "vel": 61,
      "dur": 80
    },
    {
      "t": 1431.4,
      "ch": 7,
      "note": 48,
      "vel": 63,
      "dur": 80
    },
    {
      "t": 1431.4,
      "ch": 7,
      "note": 36,
      "vel": 64,
      "dur": 80
    },
    {
      "t": 1431.6,
      "ch": 7,
      "note": 45,
      "vel": 51,
      "dur": 80
    },
    {
      "t": 1431.6,
      "ch": 7,
      "note": 38,
      "vel": 59,
      "dur": 80
    },
    {
      "t": 1431.6,
      "ch": 5,
      "note": 64,
      "vel": 24,
      "dur": 883
    },
    {
      "t": 1431.8,
      "ch": 5,
      "note": 62,
      "vel": 14,
      "dur": 882
    },
    {
      "t": 1431.9,
      "ch": 0,
      "note": 36,
      "vel": 76,
      "dur": 55
    },
    {
      "t": 1432,
      "ch": 4,
      "note": 57,
      "vel": 57,
      "dur": 2558
    },
    {
      "t": 1432,
      "ch": 4,
      "note": 60,
      "vel": 58,
      "dur": 2558
    },
    {
      "t": 1432,
      "ch": 3,
      "note": 38,
      "vel": 62,
      "dur": 2608
    },
    {
      "t": 1432.1,
      "ch": 7,
      "note": 48,
      "vel": 69,
      "dur": 80
    },
    {
      "t": 1432.1,
      "ch": 7,
      "note": 36,
      "vel": 63,
      "dur": 80
    },
    {
      "t": 1432.1,
      "ch": 6,
      "note": 60,
      "vel": 36,
      "dur": 587
    },
    {
      "t": 1432.4,
      "ch": 7,
      "note": 45,
      "vel": 69,
      "dur": 80
    },
    {
      "t": 1432.4,
      "ch": 7,
      "note": 36,
      "vel": 61,
      "dur": 80
    },
    {
      "t": 1432.4,
      "ch": 7,
      "note": 38,
      "vel": 63,
      "dur": 80
    },
    {
      "t": 1432.6,
      "ch": 6,
      "note": 59,
      "vel": 40,
      "dur": 585
    },
    {
      "t": 1432.7,
      "ch": 0,
      "note": 36,
      "vel": 93,
      "dur": 55
    },
    {
      "t": 1432.7,
      "ch": 7,
      "note": 48,
      "vel": 62,
      "dur": 80
    },
    {
      "t": 1432.7,
      "ch": 7,
      "note": 36,
      "vel": 73,
      "dur": 80
    },
    {
      "t": 1432.9,
      "ch": 5,
      "note": 57,
      "vel": 35,
      "dur": 875
    },
    {
      "t": 1433.2,
      "ch": 6,
      "note": 52,
      "vel": 3,
      "dur": 582
    },
    {
      "t": 1433.4,
      "ch": 7,
      "note": 48,
      "vel": 65,
      "dur": 80
    },
    {
      "t": 1433.4,
      "ch": 7,
      "note": 45,
      "vel": 66,
      "dur": 80
    },
    {
      "t": 1433.4,
      "ch": 7,
      "note": 36,
      "vel": 76,
      "dur": 80
    },
    {
      "t": 1433.4,
      "ch": 7,
      "note": 38,
      "vel": 78,
      "dur": 80
    },
    {
      "t": 1433.4,
      "ch": 6,
      "note": 60,
      "vel": 30,
      "dur": 581
    },
    {
      "t": 1433.7,
      "ch": 7,
      "note": 36,
      "vel": 56,
      "dur": 80
    },
    {
      "t": 1433.7,
      "ch": 5,
      "note": 62,
      "vel": 46,
      "dur": 870
    },
    {
      "t": 1433.9,
      "ch": 5,
      "note": 64,
      "vel": 11,
      "dur": 869
    },
    {
      "t": 1434,
      "ch": 7,
      "note": 48,
      "vel": 65,
      "dur": 80
    },
    {
      "t": 1434,
      "ch": 7,
      "note": 36,
      "vel": 66,
      "dur": 80
    },
    {
      "t": 1434.2,
      "ch": 7,
      "note": 45,
      "vel": 61,
      "dur": 80
    },
    {
      "t": 1434.2,
      "ch": 7,
      "note": 38,
      "vel": 63,
      "dur": 80
    },
    {
      "t": 1434.2,
      "ch": 6,
      "note": 69,
      "vel": 12,
      "dur": 400
    },
    {
      "t": 1434.6,
      "ch": 2,
      "note": 48,
      "vel": 0,
      "dur": 0
    },
    {
      "t": 1434.6,
      "ch": 2,
      "note": 60,
      "vel": 0,
      "dur": 0
    },
    {
      "t": 1434.6,
      "ch": 2,
      "note": 50,
      "vel": 60,
      "dur": 19565
    },
    {
      "t": 1434.6,
      "ch": 4,
      "note": 57,
      "vel": 64,
      "dur": 2558
    },
    {
      "t": 1434.6,
      "ch": 4,
      "note": 60,
      "vel": 61,
      "dur": 2558
    },
    {
      "t": 1434.6,
      "ch": 3,
      "note": 38,
      "vel": 64,
      "dur": 2608
    },
    {
      "t": 1434.7,
      "ch": 7,
      "note": 48,
      "vel": 73,
      "dur": 80
    },
    {
      "t": 1434.7,
      "ch": 7,
      "note": 36,
      "vel": 67,
      "dur": 80
    },
    {
      "t": 1435,
      "ch": 7,
      "note": 45,
      "vel": 54,
      "dur": 80
    },
    {
      "t": 1435,
      "ch": 7,
      "note": 36,
      "vel": 51,
      "dur": 80
    },
    {
      "t": 1435,
      "ch": 7,
      "note": 38,
      "vel": 58,
      "dur": 80
    },
    {
      "t": 1435.3,
      "ch": 7,
      "note": 48,
      "vel": 66,
      "dur": 80
    },
    {
      "t": 1435.3,
      "ch": 7,
      "note": 36,
      "vel": 77,
      "dur": 80
    },
    {
      "t": 1436,
      "ch": 0,
      "note": 36,
      "vel": 115,
      "dur": 55
    },
    {
      "t": 1436,
      "ch": 7,
      "note": 48,
      "vel": 72,
      "dur": 80
    },
    {
      "t": 1436,
      "ch": 7,
      "note": 45,
      "vel": 70,
      "dur": 80
    },
    {
      "t": 1436,
      "ch": 7,
      "note": 36,
      "vel": 72,
      "dur": 80
    },
    {
      "t": 1436,
      "ch": 7,
      "note": 38,
      "vel": 78,
      "dur": 80
    },
    {
      "t": 1436,
      "ch": 6,
      "note": 67,
      "vel": 9,
      "dur": 571
    },
    {
      "t": 1436.2,
      "ch": 5,
      "note": 62,
      "vel": 43,
      "dur": 856
    },
    {
      "t": 1436.3,
      "ch": 7,
      "note": 36,
      "vel": 65,
      "dur": 80
    },
    {
      "t": 1436.3,
      "ch": 5,
      "note": 57,
      "vel": 19,
      "dur": 855
    },
    {
      "t": 1436.5,
      "ch": 6,
      "note": 69,
      "vel": 11,
      "dur": 400
    },
    {
      "t": 1436.6,
      "ch": 7,
      "note": 48,
      "vel": 58,
      "dur": 80
    },
    {
      "t": 1436.6,
      "ch": 7,
      "note": 36,
      "vel": 63,
      "dur": 80
    },
    {
      "t": 1436.7,
      "ch": 6,
      "note": 65,
      "vel": 34,
      "dur": 569
    },
    {
      "t": 1436.8,
      "ch": 7,
      "note": 45,
      "vel": 61,
      "dur": 80
    },
    {
      "t": 1436.8,
      "ch": 7,
      "note": 38,
      "vel": 64,
      "dur": 80
    },
    {
      "t": 1437,
      "ch": 0,
      "note": 36,
      "vel": 79,
      "dur": 55
    },
    {
      "t": 1437.2,
      "ch": 4,
      "note": 57,
      "vel": 64,
      "dur": 2558
    },
    {
      "t": 1437.2,
      "ch": 4,
      "note": 52,
      "vel": 64,
      "dur": 2558
    },
    {
      "t": 1437.2,
      "ch": 3,
      "note": 36,
      "vel": 66,
      "dur": 2608
    },
    {
      "t": 1437.3,
      "ch": 7,
      "note": 48,
      "vel": 73,
      "dur": 80
    },
    {
      "t": 1437.3,
      "ch": 7,
      "note": 36,
      "vel": 71,
      "dur": 80
    },
    {
      "t": 1437.6,
      "ch": 7,
      "note": 45,
      "vel": 58,
      "dur": 80
    },
    {
      "t": 1437.6,
      "ch": 7,
      "note": 38,
      "vel": 61,
      "dur": 80
    },
    {
      "t": 1437.6,
      "ch": 7,
      "note": 36,
      "vel": 73,
      "dur": 80
    },
    {
      "t": 1438,
      "ch": 7,
      "note": 48,
      "vel": 63,
      "dur": 80
    },
    {
      "t": 1438,
      "ch": 7,
      "note": 36,
      "vel": 67,
      "dur": 80
    },
    {
      "t": 1438.3,
      "ch": 0,
      "note": 36,
      "vel": 83,
      "dur": 55
    },
    {
      "t": 1438.6,
      "ch": 0,
      "note": 36,
      "vel": 109,
      "dur": 55
    },
    {
      "t": 1438.6,
      "ch": 7,
      "note": 48,
      "vel": 60,
      "dur": 80
    },
    {
      "t": 1438.6,
      "ch": 7,
      "note": 45,
      "vel": 70,
      "dur": 80
    },
    {
      "t": 1438.6,
      "ch": 7,
      "note": 36,
      "vel": 83,
      "dur": 80
    },
    {
      "t": 1438.6,
      "ch": 7,
      "note": 38,
      "vel": 62,
      "dur": 80
    },
    {
      "t": 1438.6,
      "ch": 5,
      "note": 60,
      "vel": 40,
      "dur": 849
    },
    {
      "t": 1438.9,
      "ch": 7,
      "note": 36,
      "vel": 71,
      "dur": 80
    },
    {
      "t": 1439.3,
      "ch": 7,
      "note": 48,
      "vel": 72,
      "dur": 80
    },
    {
      "t": 1439.3,
      "ch": 7,
      "note": 36,
      "vel": 75,
      "dur": 80
    },
    {
      "t": 1439.4,
      "ch": 7,
      "note": 45,
      "vel": 63,
      "dur": 80
    },
    {
      "t": 1439.4,
      "ch": 7,
      "note": 38,
      "vel": 66,
      "dur": 80
    },
    {
      "t": 1439.6,
      "ch": 0,
      "note": 36,
      "vel": 80,
      "dur": 55
    },
    {
      "t": 1439.8,
      "ch": 4,
      "note": 55,
      "vel": 64,
      "dur": 2558
    },
    {
      "t": 1439.8,
      "ch": 4,
      "note": 59,
      "vel": 82,
      "dur": 2558
    },
    {
      "t": 1439.8,
      "ch": 3,
      "note": 43,
      "vel": 66,
      "dur": 2608
    },
    {
      "t": 1439.9,
      "ch": 7,
      "note": 48,
      "vel": 77,
      "dur": 80
    },
    {
      "t": 1439.9,
      "ch": 7,
      "note": 36,
      "vel": 66,
      "dur": 80
    },
    {
      "t": 1440.1,
      "ch": 5,
      "note": 62,
      "vel": 31,
      "dur": 849
    },
    {
      "t": 1440.2,
      "ch": 7,
      "note": 45,
      "vel": 61,
      "dur": 80
    },
    {
      "t": 1440.2,
      "ch": 7,
      "note": 36,
      "vel": 61,
      "dur": 80
    },
    {
      "t": 1440.2,
      "ch": 7,
      "note": 38,
      "vel": 54,
      "dur": 80
    },
    {
      "t": 1440.6,
      "ch": 7,
      "note": 48,
      "vel": 77,
      "dur": 80
    },
    {
      "t": 1440.6,
      "ch": 7,
      "note": 36,
      "vel": 67,
      "dur": 80
    },
    {
      "t": 1440.6,
      "ch": 6,
      "note": 65,
      "vel": 27,
      "dur": 400
    },
    {
      "t": 1440.9,
      "ch": 0,
      "note": 36,
      "vel": 80,
      "dur": 55
    },
    {
      "t": 1441.2,
      "ch": 0,
      "note": 36,
      "vel": 110,
      "dur": 55
    },
    {
      "t": 1441.2,
      "ch": 7,
      "note": 48,
      "vel": 60,
      "dur": 80
    },
    {
      "t": 1441.2,
      "ch": 7,
      "note": 45,
      "vel": 57,
      "dur": 80
    },
    {
      "t": 1441.2,
      "ch": 7,
      "note": 36,
      "vel": 67,
      "dur": 80
    },
    {
      "t": 1441.2,
      "ch": 7,
      "note": 38,
      "vel": 80,
      "dur": 80
    },
    {
      "t": 1441.2,
      "ch": 5,
      "note": 60,
      "vel": 28,
      "dur": 851
    },
    {
      "t": 1441.5,
      "ch": 7,
      "note": 36,
      "vel": 62,
      "dur": 80
    },
    {
      "t": 1441.7,
      "ch": 6,
      "note": 64,
      "vel": 3,
      "dur": 400
    },
    {
      "t": 1441.9,
      "ch": 7,
      "note": 48,
      "vel": 67,
      "dur": 80
    },
    {
      "t": 1441.9,
      "ch": 7,
      "note": 36,
      "vel": 58,
      "dur": 80
    },
    {
      "t": 1442,
      "ch": 7,
      "note": 45,
      "vel": 55,
      "dur": 80
    },
    {
      "t": 1442,
      "ch": 7,
      "note": 38,
      "vel": 50,
      "dur": 80
    },
    {
      "t": 1442.2,
      "ch": 0,
      "note": 36,
      "vel": 76,
      "dur": 55
    },
    {
      "t": 1442.4,
      "ch": 4,
      "note": 57,
      "vel": 64,
      "dur": 2558
    },
    {
      "t": 1442.4,
      "ch": 4,
      "note": 52,
      "vel": 62,
      "dur": 2558
    },
    {
      "t": 1442.4,
      "ch": 3,
      "note": 36,
      "vel": 66,
      "dur": 2608
    },
    {
      "t": 1442.5,
      "ch": 7,
      "note": 48,
      "vel": 71,
      "dur": 80
    },
    {
      "t": 1442.5,
      "ch": 7,
      "note": 36,
      "vel": 65,
      "dur": 80
    },
    {
      "t": 1442.5,
      "ch": 6,
      "note": 62,
      "vel": 29,
      "dur": 571
    },
    {
      "t": 1442.7,
      "ch": 5,
      "note": 62,
      "vel": 14,
      "dur": 857
    },
    {
      "t": 1442.8,
      "ch": 7,
      "note": 45,
      "vel": 70,
      "dur": 80
    },
    {
      "t": 1442.8,
      "ch": 7,
      "note": 36,
      "vel": 58,
      "dur": 80
    },
    {
      "t": 1442.8,
      "ch": 7,
      "note": 38,
      "vel": 56,
      "dur": 80
    },
    {
      "t": 1443.2,
      "ch": 7,
      "note": 48,
      "vel": 84,
      "dur": 80
    },
    {
      "t": 1443.2,
      "ch": 7,
      "note": 36,
      "vel": 73,
      "dur": 80
    },
    {
      "t": 1443.5,
      "ch": 0,
      "note": 36,
      "vel": 81,
      "dur": 55
    },
    {
      "t": 1443.8,
      "ch": 0,
      "note": 36,
      "vel": 113,
      "dur": 55
    },
    {
      "t": 1443.8,
      "ch": 7,
      "note": 48,
      "vel": 65,
      "dur": 80
    },
    {
      "t": 1443.8,
      "ch": 7,
      "note": 45,
      "vel": 72,
      "dur": 80
    },
    {
      "t": 1443.8,
      "ch": 7,
      "note": 36,
      "vel": 68,
      "dur": 80
    },
    {
      "t": 1443.8,
      "ch": 7,
      "note": 38,
      "vel": 75,
      "dur": 80
    },
    {
      "t": 1444.1,
      "ch": 7,
      "note": 36,
      "vel": 54,
      "dur": 80
    },
    {
      "t": 1444.5,
      "ch": 7,
      "note": 48,
      "vel": 61,
      "dur": 80
    },
    {
      "t": 1444.5,
      "ch": 7,
      "note": 36,
      "vel": 72,
      "dur": 80
    },
    {
      "t": 1444.6,
      "ch": 7,
      "note": 45,
      "vel": 65,
      "dur": 80
    },
    {
      "t": 1444.6,
      "ch": 7,
      "note": 38,
      "vel": 64,
      "dur": 80
    },
    {
      "t": 1444.8,
      "ch": 0,
      "note": 36,
      "vel": 87,
      "dur": 55
    },
    {
      "t": 1444.8,
      "ch": 5,
      "note": 60,
      "vel": 41,
      "dur": 870
    },
    {
      "t": 1445,
      "ch": 2,
      "note": 50,
      "vel": 0,
      "dur": 0
    },
    {
      "t": 1445,
      "ch": 2,
      "note": 48,
      "vel": 59,
      "dur": 19565
    },
    {
      "t": 1445,
      "ch": 4,
      "note": 55,
      "vel": 60,
      "dur": 2558
    },
    {
      "t": 1445,
      "ch": 4,
      "note": 59,
      "vel": 76,
      "dur": 2558
    },
    {
      "t": 1445,
      "ch": 3,
      "note": 43,
      "vel": 63,
      "dur": 2608
    },
    {
      "t": 1445.1,
      "ch": 7,
      "note": 48,
      "vel": 72,
      "dur": 80
    },
    {
      "t": 1445.1,
      "ch": 7,
      "note": 36,
      "vel": 60,
      "dur": 80
    },
    {
      "t": 1445.4,
      "ch": 7,
      "note": 45,
      "vel": 66,
      "dur": 80
    },
    {
      "t": 1445.4,
      "ch": 7,
      "note": 36,
      "vel": 62,
      "dur": 80
    },
    {
      "t": 1445.4,
      "ch": 7,
      "note": 38,
      "vel": 60,
      "dur": 80
    },
    {
      "t": 1445.5,
      "ch": 5,
      "note": 62,
      "vel": 46,
      "dur": 874
    },
    {
      "t": 1445.8,
      "ch": 7,
      "note": 48,
      "vel": 68,
      "dur": 80
    },
    {
      "t": 1445.8,
      "ch": 7,
      "note": 36,
      "vel": 66,
      "dur": 80
    },
    {
      "t": 1446.1,
      "ch": 0,
      "note": 36,
      "vel": 77,
      "dur": 55
    },
    {
      "t": 1446.3,
      "ch": 0,
      "note": 36,
      "vel": 68,
      "dur": 55
    },
    {
      "t": 1446.4,
      "ch": 0,
      "note": 36,
      "vel": 118,
      "dur": 55
    },
    {
      "t": 1446.4,
      "ch": 7,
      "note": 48,
      "vel": 69,
      "dur": 80
    },
    {
      "t": 1446.4,
      "ch": 7,
      "note": 45,
      "vel": 73,
      "dur": 80
    },
    {
      "t": 1446.4,
      "ch": 7,
      "note": 36,
      "vel": 84,
      "dur": 80
    },
    {
      "t": 1446.4,
      "ch": 7,
      "note": 38,
      "vel": 78,
      "dur": 80
    },
    {
      "t": 1446.7,
      "ch": 7,
      "note": 36,
      "vel": 66,
      "dur": 80
    },
    {
      "t": 1447.1,
      "ch": 7,
      "note": 48,
      "vel": 71,
      "dur": 80
    },
    {
      "t": 1447.1,
      "ch": 7,
      "note": 36,
      "vel": 77,
      "dur": 80
    },
    {
      "t": 1447.2,
      "ch": 7,
      "note": 45,
      "vel": 62,
      "dur": 80
    },
    {
      "t": 1447.2,
      "ch": 7,
      "note": 38,
      "vel": 61,
      "dur": 80
    },
    {
      "t": 1447.6,
      "ch": 4,
      "note": 57,
      "vel": 53,
      "dur": 5105
    },
    {
      "t": 1447.7,
      "ch": 0,
      "note": 36,
      "vel": 98,
      "dur": 55
    },
    {
      "t": 1447.7,
      "ch": 7,
      "note": 48,
      "vel": 71,
      "dur": 80
    },
    {
      "t": 1447.7,
      "ch": 7,
      "note": 36,
      "vel": 78,
      "dur": 80
    },
    {
      "t": 1448,
      "ch": 7,
      "note": 45,
      "vel": 62,
      "dur": 80
    },
    {
      "t": 1448,
      "ch": 7,
      "note": 36,
      "vel": 68,
      "dur": 80
    },
    {
      "t": 1448,
      "ch": 7,
      "note": 38,
      "vel": 60,
      "dur": 80
    },
    {
      "t": 1448.1,
      "ch": 6,
      "note": 64,
      "vel": 46,
      "dur": 591
    },
    {
      "t": 1448.4,
      "ch": 0,
      "note": 36,
      "vel": 88,
      "dur": 55
    },
    {
      "t": 1448.4,
      "ch": 7,
      "note": 48,
      "vel": 76,
      "dur": 80
    },
    {
      "t": 1448.4,
      "ch": 7,
      "note": 36,
      "vel": 61,
      "dur": 80
    },
    {
      "t": 1448.4,
      "ch": 6,
      "note": 64,
      "vel": 32,
      "dur": 592
    },
    {
      "t": 1448.8,
      "ch": 6,
      "note": 61,
      "vel": 46,
      "dur": 593
    },
    {
      "t": 1449,
      "ch": 0,
      "note": 36,
      "vel": 110,
      "dur": 55
    },
    {
      "t": 1449,
      "ch": 7,
      "note": 48,
      "vel": 81,
      "dur": 80
    },
    {
      "t": 1449,
      "ch": 7,
      "note": 45,
      "vel": 61,
      "dur": 80
    },
    {
      "t": 1449,
      "ch": 7,
      "note": 36,
      "vel": 57,
      "dur": 80
    },
    {
      "t": 1449,
      "ch": 7,
      "note": 38,
      "vel": 65,
      "dur": 80
    },
    {
      "t": 1449.3,
      "ch": 7,
      "note": 36,
      "vel": 57,
      "dur": 80
    },
    {
      "t": 1449.3,
      "ch": 5,
      "note": 60,
      "vel": 31,
      "dur": 891
    },
    {
      "t": 1449.6,
      "ch": 0,
      "note": 36,
      "vel": 97,
      "dur": 55
    },
    {
      "t": 1449.6,
      "ch": 7,
      "note": 48,
      "vel": 81,
      "dur": 80
    },
    {
      "t": 1449.6,
      "ch": 7,
      "note": 36,
      "vel": 63,
      "dur": 80
    },
    {
      "t": 1449.7,
      "ch": 7,
      "note": 45,
      "vel": 55,
      "dur": 80
    },
    {
      "t": 1449.7,
      "ch": 7,
      "note": 38,
      "vel": 67,
      "dur": 80
    },
    {
      "t": 1449.9,
      "ch": 5,
      "note": 62,
      "vel": 24,
      "dur": 892
    },
    {
      "t": 1450.1,
      "ch": 4,
      "note": 59,
      "vel": 58,
      "dur": 2369
    },
    {
      "t": 1450.1,
      "ch": 3,
      "note": 40,
      "vel": 60,
      "dur": 2419
    },
    {
      "t": 1450.2,
      "ch": 0,
      "note": 36,
      "vel": 93,
      "dur": 55
    },
    {
      "t": 1450.2,
      "ch": 7,
      "note": 48,
      "vel": 72,
      "dur": 80
    },
    {
      "t": 1450.2,
      "ch": 7,
      "note": 36,
      "vel": 67,
      "dur": 80
    },
    {
      "t": 1450.5,
      "ch": 7,
      "note": 45,
      "vel": 62,
      "dur": 80
    },
    {
      "t": 1450.5,
      "ch": 7,
      "note": 36,
      "vel": 60,
      "dur": 80
    },
    {
      "t": 1450.5,
      "ch": 7,
      "note": 38,
      "vel": 72,
      "dur": 80
    },
    {
      "t": 1450.5,
      "ch": 6,
      "note": 66,
      "vel": 17,
      "dur": 595
    },
    {
      "t": 1450.5,
      "ch": 5,
      "note": 64,
      "vel": 37,
      "dur": 893
    },
    {
      "t": 1450.8,
      "ch": 0,
      "note": 36,
      "vel": 90,
      "dur": 55
    },
    {
      "t": 1450.8,
      "ch": 7,
      "note": 48,
      "vel": 53,
      "dur": 80
    },
    {
      "t": 1450.8,
      "ch": 7,
      "note": 36,
      "vel": 65,
      "dur": 80
    },
    {
      "t": 1451.4,
      "ch": 0,
      "note": 36,
      "vel": 110,
      "dur": 55
    },
    {
      "t": 1451.4,
      "ch": 7,
      "note": 48,
      "vel": 66,
      "dur": 80
    },
    {
      "t": 1451.4,
      "ch": 7,
      "note": 45,
      "vel": 72,
      "dur": 80
    },
    {
      "t": 1451.4,
      "ch": 7,
      "note": 36,
      "vel": 69,
      "dur": 80
    },
    {
      "t": 1451.4,
      "ch": 7,
      "note": 38,
      "vel": 62,
      "dur": 80
    },
    {
      "t": 1451.7,
      "ch": 7,
      "note": 36,
      "vel": 67,
      "dur": 80
    },
    {
      "t": 1452,
      "ch": 0,
      "note": 36,
      "vel": 92,
      "dur": 55
    },
    {
      "t": 1452,
      "ch": 7,
      "note": 48,
      "vel": 78,
      "dur": 80
    },
    {
      "t": 1452,
      "ch": 7,
      "note": 36,
      "vel": 67,
      "dur": 80
    },
    {
      "t": 1452.2,
      "ch": 7,
      "note": 45,
      "vel": 64,
      "dur": 80
    },
    {
      "t": 1452.2,
      "ch": 7,
      "note": 38,
      "vel": 62,
      "dur": 80
    },
    {
      "t": 1452.5,
      "ch": 4,
      "note": 58,
      "vel": 73,
      "dur": 2352
    },
    {
      "t": 1452.5,
      "ch": 3,
      "note": 44,
      "vel": 60,
      "dur": 2402
    },
    {
      "t": 1452.6,
      "ch": 0,
      "note": 36,
      "vel": 91,
      "dur": 55
    },
    {
      "t": 1452.6,
      "ch": 7,
      "note": 48,
      "vel": 65,
      "dur": 80
    },
    {
      "t": 1452.6,
      "ch": 7,
      "note": 36,
      "vel": 73,
      "dur": 80
    },
    {
      "t": 1452.8,
      "ch": 6,
      "note": 52,
      "vel": 36,
      "dur": 593
    },
    {
      "t": 1452.9,
      "ch": 7,
      "note": 45,
      "vel": 68,
      "dur": 80
    },
    {
      "t": 1452.9,
      "ch": 7,
      "note": 36,
      "vel": 52,
      "dur": 80
    },
    {
      "t": 1452.9,
      "ch": 7,
      "note": 38,
      "vel": 62,
      "dur": 80
    },
    {
      "t": 1453.1,
      "ch": 6,
      "note": 52,
      "vel": 28,
      "dur": 592
    },
    {
      "t": 1453.2,
      "ch": 0,
      "note": 36,
      "vel": 91,
      "dur": 55
    },
    {
      "t": 1453.2,
      "ch": 7,
      "note": 48,
      "vel": 70,
      "dur": 80
    },
    {
      "t": 1453.2,
      "ch": 7,
      "note": 36,
      "vel": 61,
      "dur": 80
    },
    {
      "t": 1453.8,
      "ch": 7,
      "note": 48,
      "vel": 58,
      "dur": 80
    },
    {
      "t": 1453.8,
      "ch": 7,
      "note": 45,
      "vel": 74,
      "dur": 80
    },
    {
      "t": 1453.8,
      "ch": 7,
      "note": 36,
      "vel": 70,
      "dur": 80
    },
    {
      "t": 1453.8,
      "ch": 7,
      "note": 38,
      "vel": 79,
      "dur": 80
    },
    {
      "t": 1454.1,
      "ch": 7,
      "note": 36,
      "vel": 60,
      "dur": 80
    },
    {
      "t": 1454.4,
      "ch": 7,
      "note": 48,
      "vel": 70,
      "dur": 80
    },
    {
      "t": 1454.4,
      "ch": 7,
      "note": 36,
      "vel": 75,
      "dur": 80
    },
    {
      "t": 1454.4,
      "ch": 5,
      "note": 49,
      "vel": 32,
      "dur": 881
    },
    {
      "t": 1454.6,
      "ch": 7,
      "note": 45,
      "vel": 52,
      "dur": 80
    },
    {
      "t": 1454.6,
      "ch": 7,
      "note": 38,
      "vel": 64,
      "dur": 80
    },
    {
      "t": 1454.9,
      "ch": 2,
      "note": 48,
      "vel": 0,
      "dur": 0
    },
    {
      "t": 1454.9,
      "ch": 2,
      "note": 49,
      "vel": 59,
      "dur": 18002
    },
    {
      "t": 1454.9,
      "ch": 4,
      "note": 58,
      "vel": 75,
      "dur": 2350
    },
    {
      "t": 1454.9,
      "ch": 3,
      "note": 35,
      "vel": 62,
      "dur": 2400
    },
    {
      "t": 1455,
      "ch": 7,
      "note": 48,
      "vel": 66,
      "dur": 80
    },
    {
      "t": 1455,
      "ch": 7,
      "note": 36,
      "vel": 68,
      "dur": 80
    },
    {
      "t": 1455.2,
      "ch": 6,
      "note": 51,
      "vel": 1,
      "dur": 585
    },
    {
      "t": 1455.3,
      "ch": 7,
      "note": 45,
      "vel": 53,
      "dur": 80
    },
    {
      "t": 1455.3,
      "ch": 7,
      "note": 36,
      "vel": 66,
      "dur": 80
    },
    {
      "t": 1455.3,
      "ch": 7,
      "note": 38,
      "vel": 60,
      "dur": 80
    },
    {
      "t": 1455.6,
      "ch": 7,
      "note": 48,
      "vel": 66,
      "dur": 80
    },
    {
      "t": 1455.6,
      "ch": 7,
      "note": 36,
      "vel": 67,
      "dur": 80
    },
    {
      "t": 1455.9,
      "ch": 5,
      "note": 49,
      "vel": 39,
      "dur": 872
    },
    {
      "t": 1456.2,
      "ch": 0,
      "note": 36,
      "vel": 115,
      "dur": 55
    },
    {
      "t": 1456.2,
      "ch": 1,
      "note": 36,
      "vel": 66,
      "dur": 25
    },
    {
      "t": 1456.2,
      "ch": 1,
      "note": 38,
      "vel": 101,
      "dur": 25
    },
    {
      "t": 1456.2,
      "ch": 1,
      "note": 40,
      "vel": 79,
      "dur": 25
    },
    {
      "t": 1456.2,
      "ch": 1,
      "note": 42,
      "vel": 94,
      "dur": 25
    },
    {
      "t": 1456.2,
      "ch": 1,
      "note": 36,
      "vel": 83,
      "dur": 25
    },
    {
      "t": 1456.2,
      "ch": 1,
      "note": 38,
      "vel": 106,
      "dur": 25
    },
    {
      "t": 1456.2,
      "ch": 1,
      "note": 40,
      "vel": 80,
      "dur": 25
    },
    {
      "t": 1456.2,
      "ch": 1,
      "note": 42,
      "vel": 88,
      "dur": 25
    },
    {
      "t": 1456.2,
      "ch": 1,
      "note": 36,
      "vel": 73,
      "dur": 25
    },
    {
      "t": 1456.2,
      "ch": 1,
      "note": 38,
      "vel": 99,
      "dur": 25
    },
    {
      "t": 1456.2,
      "ch": 1,
      "note": 40,
      "vel": 79,
      "dur": 25
    },
    {
      "t": 1456.2,
      "ch": 1,
      "note": 42,
      "vel": 75,
      "dur": 25
    },
    {
      "t": 1456.2,
      "ch": 1,
      "note": 36,
      "vel": 74,
      "dur": 25
    },
    {
      "t": 1456.2,
      "ch": 1,
      "note": 38,
      "vel": 79,
      "dur": 25
    },
    {
      "t": 1456.2,
      "ch": 1,
      "note": 40,
      "vel": 111,
      "dur": 25
    },
    {
      "t": 1456.2,
      "ch": 1,
      "note": 42,
      "vel": 92,
      "dur": 25
    },
    {
      "t": 1456.2,
      "ch": 1,
      "note": 36,
      "vel": 86,
      "dur": 25
    },
    {
      "t": 1456.2,
      "ch": 1,
      "note": 38,
      "vel": 113,
      "dur": 25
    },
    {
      "t": 1456.2,
      "ch": 1,
      "note": 40,
      "vel": 68,
      "dur": 25
    },
    {
      "t": 1456.2,
      "ch": 1,
      "note": 42,
      "vel": 94,
      "dur": 25
    },
    {
      "t": 1456.2,
      "ch": 1,
      "note": 36,
      "vel": 106,
      "dur": 25
    },
    {
      "t": 1456.2,
      "ch": 1,
      "note": 38,
      "vel": 64,
      "dur": 25
    },
    {
      "t": 1456.2,
      "ch": 1,
      "note": 40,
      "vel": 96,
      "dur": 25
    },
    {
      "t": 1456.2,
      "ch": 1,
      "note": 42,
      "vel": 84,
      "dur": 25
    },
    {
      "t": 1456.2,
      "ch": 1,
      "note": 36,
      "vel": 72,
      "dur": 25
    },
    {
      "t": 1456.2,
      "ch": 1,
      "note": 38,
      "vel": 102,
      "dur": 25
    },
    {
      "t": 1456.2,
      "ch": 1,
      "note": 40,
      "vel": 94,
      "dur": 25
    },
    {
      "t": 1456.2,
      "ch": 1,
      "note": 42,
      "vel": 85,
      "dur": 25
    },
    {
      "t": 1456.2,
      "ch": 1,
      "note": 36,
      "vel": 77,
      "dur": 25
    },
    {
      "t": 1456.2,
      "ch": 1,
      "note": 38,
      "vel": 71,
      "dur": 25
    },
    {
      "t": 1456.2,
      "ch": 1,
      "note": 40,
      "vel": 87,
      "dur": 25
    },
    {
      "t": 1456.2,
      "ch": 1,
      "note": 42,
      "vel": 111,
      "dur": 25
    },
    {
      "t": 1456.2,
      "ch": 1,
      "note": 36,
      "vel": 85,
      "dur": 25
    },
    {
      "t": 1456.2,
      "ch": 1,
      "note": 38,
      "vel": 89,
      "dur": 25
    },
    {
      "t": 1456.2,
      "ch": 1,
      "note": 40,
      "vel": 88,
      "dur": 25
    },
    {
      "t": 1456.2,
      "ch": 1,
      "note": 42,
      "vel": 97,
      "dur": 25
    },
    {
      "t": 1456.2,
      "ch": 1,
      "note": 36,
      "vel": 99,
      "dur": 25
    },
    {
      "t": 1456.2,
      "ch": 1,
      "note": 38,
      "vel": 86,
      "dur": 25
    },
    {
      "t": 1456.2,
      "ch": 1,
      "note": 40,
      "vel": 87,
      "dur": 25
    },
    {
      "t": 1456.2,
      "ch": 1,
      "note": 42,
      "vel": 83,
      "dur": 25
    },
    {
      "t": 1456.2,
      "ch": 1,
      "note": 36,
      "vel": 71,
      "dur": 25
    },
    {
      "t": 1456.2,
      "ch": 1,
      "note": 38,
      "vel": 84,
      "dur": 25
    },
    {
      "t": 1456.2,
      "ch": 1,
      "note": 40,
      "vel": 111,
      "dur": 25
    },
    {
      "t": 1456.2,
      "ch": 1,
      "note": 42,
      "vel": 84,
      "dur": 25
    },
    {
      "t": 1456.2,
      "ch": 1,
      "note": 36,
      "vel": 92,
      "dur": 25
    },
    {
      "t": 1456.2,
      "ch": 1,
      "note": 38,
      "vel": 112,
      "dur": 25
    },
    {
      "t": 1456.2,
      "ch": 1,
      "note": 40,
      "vel": 87,
      "dur": 25
    },
    {
      "t": 1456.2,
      "ch": 1,
      "note": 42,
      "vel": 84,
      "dur": 25
    },
    {
      "t": 1456.2,
      "ch": 1,
      "note": 36,
      "vel": 71,
      "dur": 25
    },
    {
      "t": 1456.2,
      "ch": 1,
      "note": 38,
      "vel": 83,
      "dur": 25
    },
    {
      "t": 1456.2,
      "ch": 1,
      "note": 40,
      "vel": 111,
      "dur": 25
    },
    {
      "t": 1456.2,
      "ch": 1,
      "note": 42,
      "vel": 75,
      "dur": 25
    },
    {
      "t": 1456.2,
      "ch": 1,
      "note": 36,
      "vel": 52,
      "dur": 25
    },
    {
      "t": 1456.2,
      "ch": 1,
      "note": 38,
      "vel": 89,
      "dur": 25
    },
    {
      "t": 1456.2,
      "ch": 1,
      "note": 40,
      "vel": 84,
      "dur": 25
    },
    {
      "t": 1456.2,
      "ch": 1,
      "note": 42,
      "vel": 73,
      "dur": 25
    },
    {
      "t": 1456.2,
      "ch": 1,
      "note": 36,
      "vel": 82,
      "dur": 25
    },
    {
      "t": 1456.2,
      "ch": 1,
      "note": 38,
      "vel": 86,
      "dur": 25
    },
    {
      "t": 1456.2,
      "ch": 1,
      "note": 40,
      "vel": 60,
      "dur": 25
    },
    {
      "t": 1456.2,
      "ch": 1,
      "note": 42,
      "vel": 92,
      "dur": 25
    },
    {
      "t": 1456.2,
      "ch": 1,
      "note": 36,
      "vel": 90,
      "dur": 25
    },
    {
      "t": 1456.2,
      "ch": 1,
      "note": 38,
      "vel": 93,
      "dur": 25
    },
    {
      "t": 1456.2,
      "ch": 1,
      "note": 40,
      "vel": 91,
      "dur": 25
    },
    {
      "t": 1456.2,
      "ch": 1,
      "note": 42,
      "vel": 93,
      "dur": 25
    },
    {
      "t": 1456.2,
      "ch": 1,
      "note": 36,
      "vel": 70,
      "dur": 25
    },
    {
      "t": 1456.2,
      "ch": 1,
      "note": 38,
      "vel": 93,
      "dur": 25
    },
    {
      "t": 1456.2,
      "ch": 1,
      "note": 40,
      "vel": 85,
      "dur": 25
    },
    {
      "t": 1456.2,
      "ch": 1,
      "note": 42,
      "vel": 92,
      "dur": 25
    },
    {
      "t": 1456.2,
      "ch": 1,
      "note": 36,
      "vel": 93,
      "dur": 25
    },
    {
      "t": 1456.2,
      "ch": 1,
      "note": 38,
      "vel": 63,
      "dur": 25
    },
    {
      "t": 1456.2,
      "ch": 1,
      "note": 40,
      "vel": 80,
      "dur": 25
    },
    {
      "t": 1456.2,
      "ch": 1,
      "note": 42,
      "vel": 93,
      "dur": 25
    },
    {
      "t": 1456.2,
      "ch": 1,
      "note": 36,
      "vel": 86,
      "dur": 25
    },
    {
      "t": 1456.2,
      "ch": 1,
      "note": 38,
      "vel": 72,
      "dur": 25
    },
    {
      "t": 1456.2,
      "ch": 1,
      "note": 40,
      "vel": 94,
      "dur": 25
    },
    {
      "t": 1456.2,
      "ch": 1,
      "note": 42,
      "vel": 74,
      "dur": 25
    },
    {
      "t": 1456.2,
      "ch": 1,
      "note": 36,
      "vel": 91,
      "dur": 25
    },
    {
      "t": 1456.2,
      "ch": 1,
      "note": 38,
      "vel": 78,
      "dur": 25
    },
    {
      "t": 1456.2,
      "ch": 1,
      "note": 40,
      "vel": 61,
      "dur": 25
    },
    {
      "t": 1456.2,
      "ch": 1,
      "note": 42,
      "vel": 85,
      "dur": 25
    },
    {
      "t": 1456.2,
      "ch": 1,
      "note": 36,
      "vel": 86,
      "dur": 25
    },
    {
      "t": 1456.2,
      "ch": 1,
      "note": 38,
      "vel": 93,
      "dur": 25
    },
    {
      "t": 1456.2,
      "ch": 1,
      "note": 40,
      "vel": 81,
      "dur": 25
    },
    {
      "t": 1456.2,
      "ch": 1,
      "note": 42,
      "vel": 95,
      "dur": 25
    },
    {
      "t": 1456.2,
      "ch": 1,
      "note": 36,
      "vel": 107,
      "dur": 25
    },
    {
      "t": 1456.2,
      "ch": 1,
      "note": 38,
      "vel": 83,
      "dur": 25
    },
    {
      "t": 1456.2,
      "ch": 1,
      "note": 40,
      "vel": 80,
      "dur": 25
    },
    {
      "t": 1456.2,
      "ch": 1,
      "note": 42,
      "vel": 81,
      "dur": 25
    },
    {
      "t": 1456.2,
      "ch": 1,
      "note": 36,
      "vel": 62,
      "dur": 25
    },
    {
      "t": 1456.2,
      "ch": 1,
      "note": 38,
      "vel": 92,
      "dur": 25
    },
    {
      "t": 1456.2,
      "ch": 1,
      "note": 40,
      "vel": 91,
      "dur": 25
    },
    {
      "t": 1456.2,
      "ch": 1,
      "note": 42,
      "vel": 63,
      "dur": 25
    },
    {
      "t": 1456.2,
      "ch": 1,
      "note": 36,
      "vel": 73,
      "dur": 25
    },
    {
      "t": 1456.2,
      "ch": 1,
      "note": 38,
      "vel": 71,
      "dur": 25
    },
    {
      "t": 1456.2,
      "ch": 1,
      "note": 40,
      "vel": 73,
      "dur": 25
    },
    {
      "t": 1456.2,
      "ch": 1,
      "note": 42,
      "vel": 103,
      "dur": 25
    },
    {
      "t": 1456.2,
      "ch": 1,
      "note": 36,
      "vel": 86,
      "dur": 25
    },
    {
      "t": 1456.2,
      "ch": 1,
      "note": 38,
      "vel": 98,
      "dur": 25
    },
    {
      "t": 1456.2,
      "ch": 1,
      "note": 40,
      "vel": 62,
      "dur": 25
    },
    {
      "t": 1456.2,
      "ch": 1,
      "note": 42,
      "vel": 97,
      "dur": 25
    },
    {
      "t": 1456.2,
      "ch": 1,
      "note": 36,
      "vel": 95,
      "dur": 25
    },
    {
      "t": 1456.2,
      "ch": 1,
      "note": 38,
      "vel": 64,
      "dur": 25
    },
    {
      "t": 1456.2,
      "ch": 1,
      "note": 40,
      "vel": 100,
      "dur": 25
    },
    {
      "t": 1456.2,
      "ch": 1,
      "note": 42,
      "vel": 75,
      "dur": 25
    },
    {
      "t": 1456.2,
      "ch": 1,
      "note": 36,
      "vel": 62,
      "dur": 25
    },
    {
      "t": 1456.2,
      "ch": 1,
      "note": 38,
      "vel": 92,
      "dur": 25
    },
    {
      "t": 1456.2,
      "ch": 1,
      "note": 40,
      "vel": 76,
      "dur": 25
    },
    {
      "t": 1456.2,
      "ch": 1,
      "note": 42,
      "vel": 77,
      "dur": 25
    },
    {
      "t": 1456.2,
      "ch": 1,
      "note": 36,
      "vel": 58,
      "dur": 25
    },
    {
      "t": 1456.2,
      "ch": 1,
      "note": 38,
      "vel": 90,
      "dur": 25
    },
    {
      "t": 1456.2,
      "ch": 1,
      "note": 40,
      "vel": 88,
      "dur": 25
    },
    {
      "t": 1456.2,
      "ch": 1,
      "note": 42,
      "vel": 94,
      "dur": 25
    },
    {
      "t": 1456.2,
      "ch": 1,
      "note": 36,
      "vel": 88,
      "dur": 25
    },
    {
      "t": 1456.2,
      "ch": 1,
      "note": 38,
      "vel": 106,
      "dur": 25
    },
    {
      "t": 1456.2,
      "ch": 1,
      "note": 40,
      "vel": 78,
      "dur": 25
    },
    {
      "t": 1456.2,
      "ch": 1,
      "note": 42,
      "vel": 84,
      "dur": 25
    },
    {
      "t": 1456.2,
      "ch": 1,
      "note": 36,
      "vel": 94,
      "dur": 25
    },
    {
      "t": 1456.2,
      "ch": 1,
      "note": 38,
      "vel": 110,
      "dur": 25
    },
    {
      "t": 1456.2,
      "ch": 1,
      "note": 40,
      "vel": 90,
      "dur": 25
    },
    {
      "t": 1456.2,
      "ch": 1,
      "note": 42,
      "vel": 85,
      "dur": 25
    },
    {
      "t": 1456.2,
      "ch": 1,
      "note": 36,
      "vel": 78,
      "dur": 25
    },
    {
      "t": 1456.2,
      "ch": 1,
      "note": 38,
      "vel": 81,
      "dur": 25
    },
    {
      "t": 1456.2,
      "ch": 1,
      "note": 40,
      "vel": 88,
      "dur": 25
    },
    {
      "t": 1456.2,
      "ch": 1,
      "note": 42,
      "vel": 81,
      "dur": 25
    },
    {
      "t": 1456.2,
      "ch": 1,
      "note": 36,
      "vel": 79,
      "dur": 25
    },
    {
      "t": 1456.2,
      "ch": 1,
      "note": 38,
      "vel": 83,
      "dur": 25
    },
    {
      "t": 1456.2,
      "ch": 1,
      "note": 40,
      "vel": 68,
      "dur": 25
    },
    {
      "t": 1456.2,
      "ch": 1,
      "note": 42,
      "vel": 75,
      "dur": 25
    },
    {
      "t": 1456.2,
      "ch": 1,
      "note": 36,
      "vel": 77,
      "dur": 25
    },
    {
      "t": 1456.2,
      "ch": 1,
      "note": 38,
      "vel": 75,
      "dur": 25
    },
    {
      "t": 1456.2,
      "ch": 1,
      "note": 40,
      "vel": 86,
      "dur": 25
    },
    {
      "t": 1456.2,
      "ch": 1,
      "note": 42,
      "vel": 85,
      "dur": 25
    },
    {
      "t": 1456.2,
      "ch": 1,
      "note": 36,
      "vel": 75,
      "dur": 25
    },
    {
      "t": 1456.2,
      "ch": 1,
      "note": 38,
      "vel": 92,
      "dur": 25
    },
    {
      "t": 1456.2,
      "ch": 1,
      "note": 40,
      "vel": 101,
      "dur": 25
    },
    {
      "t": 1456.2,
      "ch": 1,
      "note": 42,
      "vel": 83,
      "dur": 25
    },
    {
      "t": 1456.2,
      "ch": 1,
      "note": 36,
      "vel": 81,
      "dur": 25
    },
    {
      "t": 1456.2,
      "ch": 1,
      "note": 38,
      "vel": 110,
      "dur": 25
    },
    {
      "t": 1456.2,
      "ch": 1,
      "note": 40,
      "vel": 79,
      "dur": 25
    },
    {
      "t": 1456.2,
      "ch": 1,
      "note": 42,
      "vel": 78,
      "dur": 25
    },
    {
      "t": 1456.2,
      "ch": 1,
      "note": 36,
      "vel": 80,
      "dur": 25
    },
    {
      "t": 1456.2,
      "ch": 1,
      "note": 38,
      "vel": 74,
      "dur": 25
    },
    {
      "t": 1456.2,
      "ch": 1,
      "note": 40,
      "vel": 118,
      "dur": 25
    },
    {
      "t": 1456.2,
      "ch": 1,
      "note": 42,
      "vel": 69,
      "dur": 25
    },
    {
      "t": 1456.2,
      "ch": 1,
      "note": 36,
      "vel": 94,
      "dur": 25
    },
    {
      "t": 1456.2,
      "ch": 1,
      "note": 38,
      "vel": 100,
      "dur": 25
    },
    {
      "t": 1456.2,
      "ch": 1,
      "note": 40,
      "vel": 81,
      "dur": 25
    },
    {
      "t": 1456.2,
      "ch": 1,
      "note": 42,
      "vel": 67,
      "dur": 25
    },
    {
      "t": 1456.2,
      "ch": 1,
      "note": 36,
      "vel": 74,
      "dur": 25
    },
    {
      "t": 1456.2,
      "ch": 1,
      "note": 38,
      "vel": 65,
      "dur": 25
    },
    {
      "t": 1456.2,
      "ch": 1,
      "note": 40,
      "vel": 80,
      "dur": 25
    },
    {
      "t": 1456.2,
      "ch": 1,
      "note": 42,
      "vel": 86,
      "dur": 25
    },
    {
      "t": 1456.2,
      "ch": 1,
      "note": 36,
      "vel": 75,
      "dur": 25
    },
    {
      "t": 1456.2,
      "ch": 1,
      "note": 38,
      "vel": 90,
      "dur": 25
    },
    {
      "t": 1456.2,
      "ch": 1,
      "note": 40,
      "vel": 85,
      "dur": 25
    },
    {
      "t": 1456.2,
      "ch": 1,
      "note": 42,
      "vel": 84,
      "dur": 25
    },
    {
      "t": 1456.2,
      "ch": 1,
      "note": 36,
      "vel": 72,
      "dur": 25
    },
    {
      "t": 1456.2,
      "ch": 1,
      "note": 38,
      "vel": 83,
      "dur": 25
    },
    {
      "t": 1456.2,
      "ch": 1,
      "note": 40,
      "vel": 91,
      "dur": 25
    },
    {
      "t": 1456.2,
      "ch": 1,
      "note": 42,
      "vel": 80,
      "dur": 25
    },
    {
      "t": 1456.2,
      "ch": 1,
      "note": 36,
      "vel": 57,
      "dur": 25
    },
    {
      "t": 1456.2,
      "ch": 1,
      "note": 38,
      "vel": 75,
      "dur": 25
    },
    {
      "t": 1456.2,
      "ch": 1,
      "note": 40,
      "vel": 105,
      "dur": 25
    },
    {
      "t": 1456.2,
      "ch": 1,
      "note": 42,
      "vel": 75,
      "dur": 25
    },
    {
      "t": 1456.2,
      "ch": 1,
      "note": 36,
      "vel": 105,
      "dur": 25
    },
    {
      "t": 1456.2,
      "ch": 1,
      "note": 38,
      "vel": 85,
      "dur": 25
    },
    {
      "t": 1456.2,
      "ch": 1,
      "note": 40,
      "vel": 92,
      "dur": 25
    },
    {
      "t": 1456.2,
      "ch": 1,
      "note": 42,
      "vel": 83,
      "dur": 25
    },
    {
      "t": 1456.2,
      "ch": 1,
      "note": 36,
      "vel": 61,
      "dur": 25
    },
    {
      "t": 1456.2,
      "ch": 1,
      "note": 38,
      "vel": 106,
      "dur": 25
    },
    {
      "t": 1456.2,
      "ch": 1,
      "note": 40,
      "vel": 72,
      "dur": 25
    },
    {
      "t": 1456.2,
      "ch": 1,
      "note": 42,
      "vel": 90,
      "dur": 25
    },
    {
      "t": 1456.2,
      "ch": 1,
      "note": 36,
      "vel": 107,
      "dur": 25
    },
    {
      "t": 1456.2,
      "ch": 1,
      "note": 38,
      "vel": 81,
      "dur": 25
    },
    {
      "t": 1456.2,
      "ch": 1,
      "note": 40,
      "vel": 75,
      "dur": 25
    },
    {
      "t": 1456.2,
      "ch": 1,
      "note": 42,
      "vel": 72,
      "dur": 25
    },
    {
      "t": 1456.2,
      "ch": 1,
      "note": 36,
      "vel": 83,
      "dur": 25
    },
    {
      "t": 1456.2,
      "ch": 1,
      "note": 38,
      "vel": 75,
      "dur": 25
    },
    {
      "t": 1456.2,
      "ch": 1,
      "note": 40,
      "vel": 77,
      "dur": 25
    },
    {
      "t": 1456.2,
      "ch": 1,
      "note": 42,
      "vel": 88,
      "dur": 25
    },
    {
      "t": 1456.2,
      "ch": 1,
      "note": 36,
      "vel": 66,
      "dur": 25
    },
    {
      "t": 1456.2,
      "ch": 1,
      "note": 38,
      "vel": 80,
      "dur": 25
    },
    {
      "t": 1456.2,
      "ch": 1,
      "note": 40,
      "vel": 72,
      "dur": 25
    },
    {
      "t": 1456.2,
      "ch": 1,
      "note": 42,
      "vel": 77,
      "dur": 25
    },
    {
      "t": 1456.2,
      "ch": 1,
      "note": 36,
      "vel": 105,
      "dur": 25
    },
    {
      "t": 1456.2,
      "ch": 1,
      "note": 38,
      "vel": 93,
      "dur": 25
    },
    {
      "t": 1456.2,
      "ch": 1,
      "note": 40,
      "vel": 82,
      "dur": 25
    },
    {
      "t": 1456.2,
      "ch": 1,
      "note": 42,
      "vel": 67,
      "dur": 25
    },
    {
      "t": 1456.2,
      "ch": 1,
      "note": 36,
      "vel": 90,
      "dur": 25
    },
    {
      "t": 1456.2,
      "ch": 1,
      "note": 38,
      "vel": 100,
      "dur": 25
    },
    {
      "t": 1456.2,
      "ch": 1,
      "note": 40,
      "vel": 72,
      "dur": 25
    },
    {
      "t": 1456.2,
      "ch": 1,
      "note": 42,
      "vel": 87,
      "dur": 25
    },
    {
      "t": 1456.2,
      "ch": 1,
      "note": 36,
      "vel": 80,
      "dur": 25
    },
    {
      "t": 1456.2,
      "ch": 1,
      "note": 38,
      "vel": 73,
      "dur": 25
    },
    {
      "t": 1456.2,
      "ch": 1,
      "note": 40,
      "vel": 91,
      "dur": 25
    },
    {
      "t": 1456.2,
      "ch": 1,
      "note": 42,
      "vel": 85,
      "dur": 25
    },
    {
      "t": 1456.2,
      "ch": 1,
      "note": 36,
      "vel": 53,
      "dur": 25
    },
    {
      "t": 1456.2,
      "ch": 1,
      "note": 38,
      "vel": 81,
      "dur": 25
    },
    {
      "t": 1456.2,
      "ch": 1,
      "note": 40,
      "vel": 100,
      "dur": 25
    },
    {
      "t": 1456.2,
      "ch": 1,
      "note": 42,
      "vel": 101,
      "dur": 25
    },
    {
      "t": 1456.2,
      "ch": 1,
      "note": 36,
      "vel": 87,
      "dur": 25
    },
    {
      "t": 1456.2,
      "ch": 1,
      "note": 38,
      "vel": 79,
      "dur": 25
    },
    {
      "t": 1456.2,
      "ch": 1,
      "note": 40,
      "vel": 96,
      "dur": 25
    },
    {
      "t": 1456.2,
      "ch": 1,
      "note": 42,
      "vel": 78,
      "dur": 25
    },
    {
      "t": 1456.2,
      "ch": 1,
      "note": 36,
      "vel": 69,
      "dur": 25
    },
    {
      "t": 1456.2,
      "ch": 1,
      "note": 38,
      "vel": 104,
      "dur": 25
    },
    {
      "t": 1456.2,
      "ch": 1,
      "note": 40,
      "vel": 92,
      "dur": 25
    },
    {
      "t": 1456.2,
      "ch": 1,
      "note": 42,
      "vel": 80,
      "dur": 25
    },
    {
      "t": 1456.2,
      "ch": 1,
      "note": 36,
      "vel": 93,
      "dur": 25
    },
    {
      "t": 1456.2,
      "ch": 1,
      "note": 38,
      "vel": 83,
      "dur": 25
    },
    {
      "t": 1456.2,
      "ch": 1,
      "note": 40,
      "vel": 81,
      "dur": 25
    },
    {
      "t": 1456.2,
      "ch": 1,
      "note": 42,
      "vel": 88,
      "dur": 25
    },
    {
      "t": 1456.2,
      "ch": 1,
      "note": 36,
      "vel": 77,
      "dur": 25
    },
    {
      "t": 1456.2,
      "ch": 1,
      "note": 38,
      "vel": 89,
      "dur": 25
    },
    {
      "t": 1456.2,
      "ch": 1,
      "note": 40,
      "vel": 84,
      "dur": 25
    },
    {
      "t": 1456.2,
      "ch": 1,
      "note": 42,
      "vel": 81,
      "dur": 25
    },
    {
      "t": 1456.2,
      "ch": 1,
      "note": 36,
      "vel": 90,
      "dur": 25
    },
    {
      "t": 1456.2,
      "ch": 1,
      "note": 38,
      "vel": 93,
      "dur": 25
    },
    {
      "t": 1456.2,
      "ch": 1,
      "note": 40,
      "vel": 68,
      "dur": 25
    },
    {
      "t": 1456.2,
      "ch": 1,
      "note": 42,
      "vel": 103,
      "dur": 25
    },
    {
      "t": 1456.2,
      "ch": 1,
      "note": 36,
      "vel": 76,
      "dur": 25
    },
    {
      "t": 1456.2,
      "ch": 1,
      "note": 38,
      "vel": 102,
      "dur": 25
    },
    {
      "t": 1456.2,
      "ch": 1,
      "note": 40,
      "vel": 76,
      "dur": 25
    },
    {
      "t": 1456.2,
      "ch": 1,
      "note": 42,
      "vel": 66,
      "dur": 25
    },
    {
      "t": 1456.2,
      "ch": 1,
      "note": 36,
      "vel": 75,
      "dur": 25
    },
    {
      "t": 1456.2,
      "ch": 1,
      "note": 38,
      "vel": 85,
      "dur": 25
    },
    {
      "t": 1456.2,
      "ch": 1,
      "note": 40,
      "vel": 65,
      "dur": 25
    },
    {
      "t": 1456.2,
      "ch": 1,
      "note": 42,
      "vel": 81,
      "dur": 25
    },
    {
      "t": 1456.2,
      "ch": 1,
      "note": 36,
      "vel": 75,
      "dur": 25
    },
    {
      "t": 1456.2,
      "ch": 1,
      "note": 38,
      "vel": 82,
      "dur": 25
    },
    {
      "t": 1456.2,
      "ch": 1,
      "note": 40,
      "vel": 68,
      "dur": 25
    },
    {
      "t": 1456.2,
      "ch": 1,
      "note": 42,
      "vel": 87,
      "dur": 25
    },
    {
      "t": 1456.2,
      "ch": 1,
      "note": 36,
      "vel": 66,
      "dur": 25
    },
    {
      "t": 1456.2,
      "ch": 1,
      "note": 38,
      "vel": 93,
      "dur": 25
    },
    {
      "t": 1456.2,
      "ch": 1,
      "note": 40,
      "vel": 95,
      "dur": 25
    },
    {
      "t": 1456.2,
      "ch": 1,
      "note": 42,
      "vel": 69,
      "dur": 25
    },
    {
      "t": 1456.2,
      "ch": 1,
      "note": 36,
      "vel": 85,
      "dur": 25
    },
    {
      "t": 1456.2,
      "ch": 1,
      "note": 38,
      "vel": 96,
      "dur": 25
    },
    {
      "t": 1456.2,
      "ch": 1,
      "note": 40,
      "vel": 89,
      "dur": 25
    },
    {
      "t": 1456.2,
      "ch": 1,
      "note": 42,
      "vel": 97,
      "dur": 25
    },
    {
      "t": 1456.2,
      "ch": 1,
      "note": 36,
      "vel": 87,
      "dur": 25
    },
    {
      "t": 1456.2,
      "ch": 1,
      "note": 38,
      "vel": 106,
      "dur": 25
    },
    {
      "t": 1456.2,
      "ch": 1,
      "note": 40,
      "vel": 76,
      "dur": 25
    },
    {
      "t": 1456.2,
      "ch": 1,
      "note": 42,
      "vel": 93,
      "dur": 25
    },
    {
      "t": 1456.2,
      "ch": 1,
      "note": 36,
      "vel": 68,
      "dur": 25
    },
    {
      "t": 1456.2,
      "ch": 1,
      "note": 38,
      "vel": 90,
      "dur": 25
    },
    {
      "t": 1456.2,
      "ch": 1,
      "note": 40,
      "vel": 79,
      "dur": 25
    },
    {
      "t": 1456.2,
      "ch": 1,
      "note": 42,
      "vel": 82,
      "dur": 25
    },
    {
      "t": 1456.2,
      "ch": 1,
      "note": 36,
      "vel": 88,
      "dur": 25
    },
    {
      "t": 1456.2,
      "ch": 1,
      "note": 38,
      "vel": 58,
      "dur": 25
    },
    {
      "t": 1456.2,
      "ch": 1,
      "note": 40,
      "vel": 90,
      "dur": 25
    },
    {
      "t": 1456.2,
      "ch": 1,
      "note": 42,
      "vel": 93,
      "dur": 25
    },
    {
      "t": 1456.2,
      "ch": 1,
      "note": 36,
      "vel": 84,
      "dur": 25
    },
    {
      "t": 1456.2,
      "ch": 1,
      "note": 38,
      "vel": 109,
      "dur": 25
    },
    {
      "t": 1456.2,
      "ch": 1,
      "note": 40,
      "vel": 82,
      "dur": 25
    },
    {
      "t": 1456.2,
      "ch": 1,
      "note": 42,
      "vel": 93,
      "dur": 25
    },
    {
      "t": 1456.2,
      "ch": 1,
      "note": 36,
      "vel": 81,
      "dur": 25
    },
    {
      "t": 1456.2,
      "ch": 1,
      "note": 38,
      "vel": 77,
      "dur": 25
    },
    {
      "t": 1456.2,
      "ch": 1,
      "note": 40,
      "vel": 80,
      "dur": 25
    },
    {
      "t": 1456.2,
      "ch": 1,
      "note": 42,
      "vel": 73,
      "dur": 25
    },
    {
      "t": 1456.2,
      "ch": 1,
      "note": 36,
      "vel": 103,
      "dur": 25
    },
    {
      "t": 1456.2,
      "ch": 1,
      "note": 38,
      "vel": 93,
      "dur": 25
    },
    {
      "t": 1456.2,
      "ch": 1,
      "note": 40,
      "vel": 70,
      "dur": 25
    },
    {
      "t": 1456.2,
      "ch": 1,
      "note": 42,
      "vel": 84,
      "dur": 25
    },
    {
      "t": 1456.2,
      "ch": 1,
      "note": 36,
      "vel": 74,
      "dur": 25
    },
    {
      "t": 1456.2,
      "ch": 1,
      "note": 38,
      "vel": 85,
      "dur": 25
    },
    {
      "t": 1456.2,
      "ch": 1,
      "note": 40,
      "vel": 77,
      "dur": 25
    },
    {
      "t": 1456.2,
      "ch": 1,
      "note": 42,
      "vel": 73,
      "dur": 25
    },
    {
      "t": 1456.2,
      "ch": 1,
      "note": 36,
      "vel": 83,
      "dur": 25
    },
    {
      "t": 1456.2,
      "ch": 1,
      "note": 38,
      "vel": 79,
      "dur": 25
    },
    {
      "t": 1456.2,
      "ch": 1,
      "note": 40,
      "vel": 65,
      "dur": 25
    },
    {
      "t": 1456.2,
      "ch": 1,
      "note": 42,
      "vel": 54,
      "dur": 25
    },
    {
      "t": 1456.2,
      "ch": 1,
      "note": 36,
      "vel": 79,
      "dur": 25
    },
    {
      "t": 1456.2,
      "ch": 1,
      "note": 38,
      "vel": 81,
      "dur": 25
    },
    {
      "t": 1456.2,
      "ch": 1,
      "note": 40,
      "vel": 84,
      "dur": 25
    },
    {
      "t": 1456.2,
      "ch": 1,
      "note": 42,
      "vel": 98,
      "dur": 25
    },
    {
      "t": 1456.2,
      "ch": 1,
      "note": 36,
      "vel": 83,
      "dur": 25
    },
    {
      "t": 1456.2,
      "ch": 1,
      "note": 38,
      "vel": 64,
      "dur": 25
    },
    {
      "t": 1456.2,
      "ch": 1,
      "note": 40,
      "vel": 85,
      "dur": 25
    },
    {
      "t": 1456.2,
      "ch": 1,
      "note": 42,
      "vel": 75,
      "dur": 25
    },
    {
      "t": 1456.2,
      "ch": 1,
      "note": 36,
      "vel": 79,
      "dur": 25
    },
    {
      "t": 1456.2,
      "ch": 1,
      "note": 38,
      "vel": 89,
      "dur": 25
    },
    {
      "t": 1456.2,
      "ch": 1,
      "note": 40,
      "vel": 78,
      "dur": 25
    },
    {
      "t": 1456.2,
      "ch": 1,
      "note": 42,
      "vel": 93,
      "dur": 25
    },
    {
      "t": 1456.2,
      "ch": 1,
      "note": 36,
      "vel": 82,
      "dur": 25
    },
    {
      "t": 1456.2,
      "ch": 1,
      "note": 38,
      "vel": 98,
      "dur": 25
    },
    {
      "t": 1456.2,
      "ch": 1,
      "note": 40,
      "vel": 72,
      "dur": 25
    },
    {
      "t": 1456.2,
      "ch": 1,
      "note": 42,
      "vel": 72,
      "dur": 25
    },
    {
      "t": 1456.2,
      "ch": 1,
      "note": 36,
      "vel": 77,
      "dur": 25
    },
    {
      "t": 1456.2,
      "ch": 1,
      "note": 38,
      "vel": 54,
      "dur": 25
    },
    {
      "t": 1456.2,
      "ch": 1,
      "note": 40,
      "vel": 95,
      "dur": 25
    },
    {
      "t": 1456.2,
      "ch": 1,
      "note": 42,
      "vel": 83,
      "dur": 25
    },
    {
      "t": 1456.2,
      "ch": 1,
      "note": 36,
      "vel": 90,
      "dur": 25
    },
    {
      "t": 1456.2,
      "ch": 1,
      "note": 38,
      "vel": 98,
      "dur": 25
    },
    {
      "t": 1456.2,
      "ch": 1,
      "note": 40,
      "vel": 82,
      "dur": 25
    },
    {
      "t": 1456.2,
      "ch": 1,
      "note": 42,
      "vel": 61,
      "dur": 25
    },
    {
      "t": 1456.2,
      "ch": 1,
      "note": 36,
      "vel": 68,
      "dur": 25
    },
    {
      "t": 1456.2,
      "ch": 1,
      "note": 38,
      "vel": 83,
      "dur": 25
    },
    {
      "t": 1456.2,
      "ch": 1,
      "note": 40,
      "vel": 86,
      "dur": 25
    },
    {
      "t": 1456.2,
      "ch": 1,
      "note": 42,
      "vel": 75,
      "dur": 25
    },
    {
      "t": 1456.2,
      "ch": 1,
      "note": 36,
      "vel": 60,
      "dur": 25
    },
    {
      "t": 1456.2,
      "ch": 1,
      "note": 38,
      "vel": 76,
      "dur": 25
    },
    {
      "t": 1456.2,
      "ch": 1,
      "note": 40,
      "vel": 82,
      "dur": 25
    },
    {
      "t": 1456.2,
      "ch": 1,
      "note": 42,
      "vel": 76,
      "dur": 25
    },
    {
      "t": 1456.2,
      "ch": 1,
      "note": 36,
      "vel": 60,
      "dur": 25
    },
    {
      "t": 1456.2,
      "ch": 1,
      "note": 38,
      "vel": 94,
      "dur": 25
    },
    {
      "t": 1456.2,
      "ch": 1,
      "note": 40,
      "vel": 79,
      "dur": 25
    },
    {
      "t": 1456.2,
      "ch": 1,
      "note": 42,
      "vel": 100,
      "dur": 25
    },
    {
      "t": 1456.2,
      "ch": 1,
      "note": 36,
      "vel": 74,
      "dur": 25
    },
    {
      "t": 1456.2,
      "ch": 1,
      "note": 38,
      "vel": 86,
      "dur": 25
    },
    {
      "t": 1456.2,
      "ch": 1,
      "note": 40,
      "vel": 54,
      "dur": 25
    },
    {
      "t": 1456.2,
      "ch": 1,
      "note": 42,
      "vel": 86,
      "dur": 25
    },
    {
      "t": 1456.2,
      "ch": 1,
      "note": 36,
      "vel": 82,
      "dur": 25
    },
    {
      "t": 1456.2,
      "ch": 1,
      "note": 38,
      "vel": 98,
      "dur": 25
    },
    {
      "t": 1456.2,
      "ch": 1,
      "note": 40,
      "vel": 83,
      "dur": 25
    },
    {
      "t": 1456.2,
      "ch": 1,
      "note": 42,
      "vel": 92,
      "dur": 25
    },
    {
      "t": 1456.2,
      "ch": 1,
      "note": 36,
      "vel": 83,
      "dur": 25
    },
    {
      "t": 1456.2,
      "ch": 1,
      "note": 38,
      "vel": 85,
      "dur": 25
    },
    {
      "t": 1456.2,
      "ch": 1,
      "note": 40,
      "vel": 99,
      "dur": 25
    },
    {
      "t": 1456.2,
      "ch": 1,
      "note": 42,
      "vel": 76,
      "dur": 25
    },
    {
      "t": 1456.2,
      "ch": 1,
      "note": 36,
      "vel": 71,
      "dur": 25
    },
    {
      "t": 1456.2,
      "ch": 1,
      "note": 38,
      "vel": 85,
      "dur": 25
    },
    {
      "t": 1456.2,
      "ch": 1,
      "note": 40,
      "vel": 94,
      "dur": 25
    },
    {
      "t": 1456.2,
      "ch": 1,
      "note": 42,
      "vel": 101,
      "dur": 25
    },
    {
      "t": 1456.2,
      "ch": 1,
      "note": 36,
      "vel": 70,
      "dur": 25
    },
    {
      "t": 1456.2,
      "ch": 1,
      "note": 38,
      "vel": 56,
      "dur": 25
    },
    {
      "t": 1456.2,
      "ch": 1,
      "note": 40,
      "vel": 85,
      "dur": 25
    },
    {
      "t": 1456.2,
      "ch": 1,
      "note": 42,
      "vel": 58,
      "dur": 25
    },
    {
      "t": 1456.2,
      "ch": 1,
      "note": 36,
      "vel": 99,
      "dur": 25
    },
    {
      "t": 1456.2,
      "ch": 1,
      "note": 38,
      "vel": 92,
      "dur": 25
    },
    {
      "t": 1456.2,
      "ch": 1,
      "note": 40,
      "vel": 90,
      "dur": 25
    },
    {
      "t": 1456.2,
      "ch": 1,
      "note": 42,
      "vel": 93,
      "dur": 25
    },
    {
      "t": 1456.2,
      "ch": 1,
      "note": 36,
      "vel": 88,
      "dur": 25
    },
    {
      "t": 1456.2,
      "ch": 1,
      "note": 38,
      "vel": 70,
      "dur": 25
    },
    {
      "t": 1456.2,
      "ch": 1,
      "note": 40,
      "vel": 88,
      "dur": 25
    },
    {
      "t": 1456.2,
      "ch": 1,
      "note": 42,
      "vel": 80,
      "dur": 25
    },
    {
      "t": 1456.2,
      "ch": 1,
      "note": 36,
      "vel": 99,
      "dur": 25
    },
    {
      "t": 1456.2,
      "ch": 1,
      "note": 38,
      "vel": 79,
      "dur": 25
    },
    {
      "t": 1456.2,
      "ch": 1,
      "note": 40,
      "vel": 86,
      "dur": 25
    },
    {
      "t": 1456.2,
      "ch": 1,
      "note": 42,
      "vel": 93,
      "dur": 25
    },
    {
      "t": 1456.2,
      "ch": 1,
      "note": 36,
      "vel": 81,
      "dur": 25
    },
    {
      "t": 1456.2,
      "ch": 1,
      "note": 38,
      "vel": 96,
      "dur": 25
    },
    {
      "t": 1456.2,
      "ch": 1,
      "note": 40,
      "vel": 92,
      "dur": 25
    },
    {
      "t": 1456.2,
      "ch": 1,
      "note": 42,
      "vel": 72,
      "dur": 25
    },
    {
      "t": 1456.2,
      "ch": 1,
      "note": 36,
      "vel": 76,
      "dur": 25
    },
    {
      "t": 1456.2,
      "ch": 1,
      "note": 38,
      "vel": 86,
      "dur": 25
    },
    {
      "t": 1456.2,
      "ch": 1,
      "note": 40,
      "vel": 99,
      "dur": 25
    },
    {
      "t": 1456.2,
      "ch": 1,
      "note": 42,
      "vel": 81,
      "dur": 25
    },
    {
      "t": 1456.2,
      "ch": 1,
      "note": 36,
      "vel": 66,
      "dur": 25
    },
    {
      "t": 1456.2,
      "ch": 1,
      "note": 38,
      "vel": 78,
      "dur": 25
    },
    {
      "t": 1456.2,
      "ch": 1,
      "note": 40,
      "vel": 73,
      "dur": 25
    },
    {
      "t": 1456.2,
      "ch": 1,
      "note": 42,
      "vel": 76,
      "dur": 25
    },
    {
      "t": 1456.2,
      "ch": 1,
      "note": 36,
      "vel": 99,
      "dur": 25
    },
    {
      "t": 1456.2,
      "ch": 1,
      "note": 38,
      "vel": 93,
      "dur": 25
    },
    {
      "t": 1456.2,
      "ch": 1,
      "note": 40,
      "vel": 83,
      "dur": 25
    },
    {
      "t": 1456.2,
      "ch": 1,
      "note": 42,
      "vel": 105,
      "dur": 25
    },
    {
      "t": 1456.2,
      "ch": 1,
      "note": 36,
      "vel": 67,
      "dur": 25
    },
    {
      "t": 1456.2,
      "ch": 1,
      "note": 38,
      "vel": 82,
      "dur": 25
    },
    {
      "t": 1456.2,
      "ch": 1,
      "note": 40,
      "vel": 102,
      "dur": 25
    },
    {
      "t": 1456.2,
      "ch": 1,
      "note": 42,
      "vel": 96,
      "dur": 25
    },
    {
      "t": 1456.2,
      "ch": 1,
      "note": 36,
      "vel": 97,
      "dur": 25
    },
    {
      "t": 1456.2,
      "ch": 1,
      "note": 38,
      "vel": 70,
      "dur": 25
    },
    {
      "t": 1456.2,
      "ch": 1,
      "note": 40,
      "vel": 81,
      "dur": 25
    },
    {
      "t": 1456.2,
      "ch": 1,
      "note": 42,
      "vel": 116,
      "dur": 25
    },
    {
      "t": 1456.2,
      "ch": 1,
      "note": 36,
      "vel": 60,
      "dur": 25
    },
    {
      "t": 1456.2,
      "ch": 1,
      "note": 38,
      "vel": 73,
      "dur": 25
    },
    {
      "t": 1456.2,
      "ch": 1,
      "note": 40,
      "vel": 97,
      "dur": 25
    },
    {
      "t": 1456.2,
      "ch": 1,
      "note": 42,
      "vel": 77,
      "dur": 25
    },
    {
      "t": 1456.2,
      "ch": 1,
      "note": 36,
      "vel": 81,
      "dur": 25
    },
    {
      "t": 1456.2,
      "ch": 1,
      "note": 38,
      "vel": 88,
      "dur": 25
    },
    {
      "t": 1456.2,
      "ch": 1,
      "note": 40,
      "vel": 101,
      "dur": 25
    },
    {
      "t": 1456.2,
      "ch": 1,
      "note": 42,
      "vel": 72,
      "dur": 25
    },
    {
      "t": 1456.2,
      "ch": 1,
      "note": 36,
      "vel": 92,
      "dur": 25
    },
    {
      "t": 1456.2,
      "ch": 1,
      "note": 38,
      "vel": 95,
      "dur": 25
    },
    {
      "t": 1456.2,
      "ch": 1,
      "note": 40,
      "vel": 89,
      "dur": 25
    },
    {
      "t": 1456.2,
      "ch": 1,
      "note": 42,
      "vel": 100,
      "dur": 25
    },
    {
      "t": 1456.2,
      "ch": 1,
      "note": 36,
      "vel": 88,
      "dur": 25
    },
    {
      "t": 1456.2,
      "ch": 1,
      "note": 38,
      "vel": 91,
      "dur": 25
    },
    {
      "t": 1456.2,
      "ch": 1,
      "note": 40,
      "vel": 79,
      "dur": 25
    },
    {
      "t": 1456.2,
      "ch": 1,
      "note": 42,
      "vel": 86,
      "dur": 25
    },
    {
      "t": 1456.2,
      "ch": 1,
      "note": 36,
      "vel": 98,
      "dur": 25
    },
    {
      "t": 1456.2,
      "ch": 1,
      "note": 38,
      "vel": 87,
      "dur": 25
    },
    {
      "t": 1456.2,
      "ch": 1,
      "note": 40,
      "vel": 95,
      "dur": 25
    },
    {
      "t": 1456.2,
      "ch": 1,
      "note": 42,
      "vel": 97,
      "dur": 25
    },
    {
      "t": 1456.2,
      "ch": 1,
      "note": 36,
      "vel": 77,
      "dur": 25
    },
    {
      "t": 1456.2,
      "ch": 1,
      "note": 38,
      "vel": 102,
      "dur": 25
    },
    {
      "t": 1456.2,
      "ch": 1,
      "note": 40,
      "vel": 91,
      "dur": 25
    },
    {
      "t": 1456.2,
      "ch": 1,
      "note": 42,
      "vel": 107,
      "dur": 25
    },
    {
      "t": 1456.2,
      "ch": 1,
      "note": 36,
      "vel": 72,
      "dur": 25
    },
    {
      "t": 1456.2,
      "ch": 1,
      "note": 38,
      "vel": 89,
      "dur": 25
    },
    {
      "t": 1456.2,
      "ch": 1,
      "note": 40,
      "vel": 78,
      "dur": 25
    },
    {
      "t": 1456.2,
      "ch": 1,
      "note": 42,
      "vel": 66,
      "dur": 25
    },
    {
      "t": 1456.2,
      "ch": 1,
      "note": 36,
      "vel": 70,
      "dur": 25
    },
    {
      "t": 1456.2,
      "ch": 1,
      "note": 38,
      "vel": 76,
      "dur": 25
    },
    {
      "t": 1456.2,
      "ch": 1,
      "note": 40,
      "vel": 94,
      "dur": 25
    },
    {
      "t": 1456.2,
      "ch": 1,
      "note": 42,
      "vel": 89,
      "dur": 25
    },
    {
      "t": 1456.2,
      "ch": 1,
      "note": 36,
      "vel": 96,
      "dur": 25
    },
    {
      "t": 1456.2,
      "ch": 1,
      "note": 38,
      "vel": 58,
      "dur": 25
    },
    {
      "t": 1456.2,
      "ch": 1,
      "note": 40,
      "vel": 73,
      "dur": 25
    },
    {
      "t": 1456.2,
      "ch": 1,
      "note": 42,
      "vel": 74,
      "dur": 25
    },
    {
      "t": 1456.2,
      "ch": 1,
      "note": 36,
      "vel": 77,
      "dur": 25
    },
    {
      "t": 1456.2,
      "ch": 1,
      "note": 38,
      "vel": 92,
      "dur": 25
    },
    {
      "t": 1456.2,
      "ch": 1,
      "note": 40,
      "vel": 94,
      "dur": 25
    },
    {
      "t": 1456.2,
      "ch": 1,
      "note": 42,
      "vel": 80,
      "dur": 25
    },
    {
      "t": 1456.2,
      "ch": 1,
      "note": 36,
      "vel": 65,
      "dur": 25
    },
    {
      "t": 1456.2,
      "ch": 1,
      "note": 38,
      "vel": 102,
      "dur": 25
    },
    {
      "t": 1456.2,
      "ch": 1,
      "note": 40,
      "vel": 87,
      "dur": 25
    },
    {
      "t": 1456.2,
      "ch": 1,
      "note": 42,
      "vel": 66,
      "dur": 25
    },
    {
      "t": 1456.2,
      "ch": 1,
      "note": 36,
      "vel": 99,
      "dur": 25
    },
    {
      "t": 1456.2,
      "ch": 1,
      "note": 38,
      "vel": 106,
      "dur": 25
    },
    {
      "t": 1456.2,
      "ch": 1,
      "note": 40,
      "vel": 62,
      "dur": 25
    },
    {
      "t": 1456.2,
      "ch": 1,
      "note": 42,
      "vel": 84,
      "dur": 25
    },
    {
      "t": 1456.2,
      "ch": 1,
      "note": 36,
      "vel": 84,
      "dur": 25
    },
    {
      "t": 1456.2,
      "ch": 1,
      "note": 38,
      "vel": 63,
      "dur": 25
    },
    {
      "t": 1456.2,
      "ch": 1,
      "note": 40,
      "vel": 69,
      "dur": 25
    },
    {
      "t": 1456.2,
      "ch": 1,
      "note": 42,
      "vel": 111,
      "dur": 25
    },
    {
      "t": 1456.2,
      "ch": 1,
      "note": 36,
      "vel": 71,
      "dur": 25
    },
    {
      "t": 1456.2,
      "ch": 1,
      "note": 38,
      "vel": 75,
      "dur": 25
    },
    {
      "t": 1456.2,
      "ch": 1,
      "note": 40,
      "vel": 103,
      "dur": 25
    },
    {
      "t": 1456.2,
      "ch": 1,
      "note": 42,
      "vel": 69,
      "dur": 25
    },
    {
      "t": 1456.2,
      "ch": 1,
      "note": 36,
      "vel": 79,
      "dur": 25
    },
    {
      "t": 1456.2,
      "ch": 1,
      "note": 38,
      "vel": 73,
      "dur": 25
    },
    {
      "t": 1456.2,
      "ch": 1,
      "note": 40,
      "vel": 89,
      "dur": 25
    },
    {
      "t": 1456.2,
      "ch": 1,
      "note": 42,
      "vel": 93,
      "dur": 25
    },
    {
      "t": 1456.2,
      "ch": 1,
      "note": 36,
      "vel": 82,
      "dur": 25
    },
    {
      "t": 1456.2,
      "ch": 1,
      "note": 38,
      "vel": 106,
      "dur": 25
    },
    {
      "t": 1456.2,
      "ch": 1,
      "note": 40,
      "vel": 89,
      "dur": 25
    },
    {
      "t": 1456.2,
      "ch": 1,
      "note": 42,
      "vel": 104,
      "dur": 25
    },
    {
      "t": 1456.2,
      "ch": 1,
      "note": 36,
      "vel": 88,
      "dur": 25
    },
    {
      "t": 1456.2,
      "ch": 1,
      "note": 38,
      "vel": 85,
      "dur": 25
    },
    {
      "t": 1456.2,
      "ch": 1,
      "note": 40,
      "vel": 80,
      "dur": 25
    },
    {
      "t": 1456.2,
      "ch": 1,
      "note": 42,
      "vel": 85,
      "dur": 25
    },
    {
      "t": 1456.2,
      "ch": 1,
      "note": 36,
      "vel": 77,
      "dur": 25
    },
    {
      "t": 1456.2,
      "ch": 1,
      "note": 38,
      "vel": 102,
      "dur": 25
    },
    {
      "t": 1456.2,
      "ch": 1,
      "note": 40,
      "vel": 88,
      "dur": 25
    },
    {
      "t": 1456.2,
      "ch": 1,
      "note": 42,
      "vel": 83,
      "dur": 25
    },
    {
      "t": 1456.2,
      "ch": 1,
      "note": 36,
      "vel": 86,
      "dur": 25
    },
    {
      "t": 1456.2,
      "ch": 1,
      "note": 38,
      "vel": 85,
      "dur": 25
    },
    {
      "t": 1456.2,
      "ch": 1,
      "note": 40,
      "vel": 103,
      "dur": 25
    },
    {
      "t": 1456.2,
      "ch": 1,
      "note": 42,
      "vel": 86,
      "dur": 25
    },
    {
      "t": 1456.2,
      "ch": 1,
      "note": 36,
      "vel": 72,
      "dur": 25
    },
    {
      "t": 1456.2,
      "ch": 1,
      "note": 38,
      "vel": 67,
      "dur": 25
    },
    {
      "t": 1456.2,
      "ch": 1,
      "note": 40,
      "vel": 76,
      "dur": 25
    },
    {
      "t": 1456.2,
      "ch": 1,
      "note": 42,
      "vel": 85,
      "dur": 25
    },
    {
      "t": 1456.2,
      "ch": 1,
      "note": 36,
      "vel": 78,
      "dur": 25
    },
    {
      "t": 1456.2,
      "ch": 1,
      "note": 38,
      "vel": 84,
      "dur": 25
    },
    {
      "t": 1456.2,
      "ch": 1,
      "note": 40,
      "vel": 93,
      "dur": 25
    },
    {
      "t": 1456.2,
      "ch": 1,
      "note": 42,
      "vel": 70,
      "dur": 25
    },
    {
      "t": 1456.2,
      "ch": 1,
      "note": 36,
      "vel": 90,
      "dur": 25
    },
    {
      "t": 1456.2,
      "ch": 1,
      "note": 38,
      "vel": 86,
      "dur": 25
    },
    {
      "t": 1456.2,
      "ch": 1,
      "note": 40,
      "vel": 87,
      "dur": 25
    },
    {
      "t": 1456.2,
      "ch": 1,
      "note": 42,
      "vel": 70,
      "dur": 25
    },
    {
      "t": 1456.2,
      "ch": 1,
      "note": 36,
      "vel": 88,
      "dur": 25
    },
    {
      "t": 1456.2,
      "ch": 1,
      "note": 38,
      "vel": 108,
      "dur": 25
    },
    {
      "t": 1456.2,
      "ch": 1,
      "note": 40,
      "vel": 92,
      "dur": 25
    },
    {
      "t": 1456.2,
      "ch": 1,
      "note": 42,
      "vel": 109,
      "dur": 25
    },
    {
      "t": 1456.2,
      "ch": 1,
      "note": 36,
      "vel": 72,
      "dur": 25
    },
    {
      "t": 1456.2,
      "ch": 1,
      "note": 38,
      "vel": 59,
      "dur": 25
    },
    {
      "t": 1456.2,
      "ch": 1,
      "note": 40,
      "vel": 68,
      "dur": 25
    },
    {
      "t": 1456.2,
      "ch": 1,
      "note": 42,
      "vel": 76,
      "dur": 25
    },
    {
      "t": 1456.2,
      "ch": 1,
      "note": 36,
      "vel": 75,
      "dur": 25
    },
    {
      "t": 1456.2,
      "ch": 1,
      "note": 38,
      "vel": 51,
      "dur": 25
    },
    {
      "t": 1456.2,
      "ch": 1,
      "note": 40,
      "vel": 92,
      "dur": 25
    },
    {
      "t": 1456.2,
      "ch": 1,
      "note": 42,
      "vel": 115,
      "dur": 25
    },
    {
      "t": 1456.2,
      "ch": 1,
      "note": 36,
      "vel": 86,
      "dur": 25
    },
    {
      "t": 1456.2,
      "ch": 1,
      "note": 38,
      "vel": 74,
      "dur": 25
    },
    {
      "t": 1456.2,
      "ch": 1,
      "note": 40,
      "vel": 69,
      "dur": 25
    },
    {
      "t": 1456.2,
      "ch": 1,
      "note": 42,
      "vel": 102,
      "dur": 25
    },
    {
      "t": 1456.2,
      "ch": 1,
      "note": 36,
      "vel": 66,
      "dur": 25
    },
    {
      "t": 1456.2,
      "ch": 1,
      "note": 38,
      "vel": 95,
      "dur": 25
    },
    {
      "t": 1456.2,
      "ch": 1,
      "note": 40,
      "vel": 92,
      "dur": 25
    },
    {
      "t": 1456.2,
      "ch": 1,
      "note": 42,
      "vel": 86,
      "dur": 25
    },
    {
      "t": 1456.2,
      "ch": 1,
      "note": 36,
      "vel": 100,
      "dur": 25
    },
    {
      "t": 1456.2,
      "ch": 1,
      "note": 38,
      "vel": 70,
      "dur": 25
    },
    {
      "t": 1456.2,
      "ch": 1,
      "note": 40,
      "vel": 65,
      "dur": 25
    },
    {
      "t": 1456.2,
      "ch": 1,
      "note": 42,
      "vel": 82,
      "dur": 25
    },
    {
      "t": 1456.2,
      "ch": 1,
      "note": 36,
      "vel": 85,
      "dur": 25
    },
    {
      "t": 1456.2,
      "ch": 1,
      "note": 38,
      "vel": 97,
      "dur": 25
    },
    {
      "t": 1456.2,
      "ch": 1,
      "note": 40,
      "vel": 82,
      "dur": 25
    },
    {
      "t": 1456.2,
      "ch": 1,
      "note": 42,
      "vel": 95,
      "dur": 25
    },
    {
      "t": 1456.2,
      "ch": 1,
      "note": 36,
      "vel": 89,
      "dur": 25
    },
    {
      "t": 1456.2,
      "ch": 1,
      "note": 38,
      "vel": 61,
      "dur": 25
    },
    {
      "t": 1456.2,
      "ch": 1,
      "note": 40,
      "vel": 82,
      "dur": 25
    },
    {
      "t": 1456.2,
      "ch": 1,
      "note": 42,
      "vel": 83,
      "dur": 25
    },
    {
      "t": 1456.2,
      "ch": 1,
      "note": 36,
      "vel": 78,
      "dur": 25
    },
    {
      "t": 1456.2,
      "ch": 1,
      "note": 38,
      "vel": 68,
      "dur": 25
    },
    {
      "t": 1456.2,
      "ch": 1,
      "note": 40,
      "vel": 64,
      "dur": 25
    },
    {
      "t": 1456.2,
      "ch": 1,
      "note": 42,
      "vel": 111,
      "dur": 25
    },
    {
      "t": 1456.2,
      "ch": 1,
      "note": 36,
      "vel": 77,
      "dur": 25
    },
    {
      "t": 1456.2,
      "ch": 1,
      "note": 38,
      "vel": 88,
      "dur": 25
    },
    {
      "t": 1456.2,
      "ch": 1,
      "note": 40,
      "vel": 89,
      "dur": 25
    },
    {
      "t": 1456.2,
      "ch": 1,
      "note": 42,
      "vel": 86,
      "dur": 25
    },
    {
      "t": 1456.2,
      "ch": 1,
      "note": 36,
      "vel": 101,
      "dur": 25
    },
    {
      "t": 1456.2,
      "ch": 1,
      "note": 38,
      "vel": 74,
      "dur": 25
    },
    {
      "t": 1456.2,
      "ch": 1,
      "note": 40,
      "vel": 64,
      "dur": 25
    },
    {
      "t": 1456.2,
      "ch": 1,
      "note": 42,
      "vel": 72,
      "dur": 25
    },
    {
      "t": 1456.2,
      "ch": 1,
      "note": 36,
      "vel": 85,
      "dur": 25
    },
    {
      "t": 1456.2,
      "ch": 1,
      "note": 38,
      "vel": 81,
      "dur": 25
    },
    {
      "t": 1456.2,
      "ch": 1,
      "note": 40,
      "vel": 87,
      "dur": 25
    },
    {
      "t": 1456.2,
      "ch": 1,
      "note": 42,
      "vel": 102,
      "dur": 25
    },
    {
      "t": 1456.2,
      "ch": 1,
      "note": 36,
      "vel": 81,
      "dur": 25
    },
    {
      "t": 1456.2,
      "ch": 1,
      "note": 38,
      "vel": 72,
      "dur": 25
    },
    {
      "t": 1456.2,
      "ch": 1,
      "note": 40,
      "vel": 80,
      "dur": 25
    },
    {
      "t": 1456.2,
      "ch": 1,
      "note": 42,
      "vel": 110,
      "dur": 25
    },
    {
      "t": 1456.2,
      "ch": 1,
      "note": 36,
      "vel": 74,
      "dur": 25
    },
    {
      "t": 1456.2,
      "ch": 1,
      "note": 38,
      "vel": 87,
      "dur": 25
    },
    {
      "t": 1456.2,
      "ch": 1,
      "note": 40,
      "vel": 82,
      "dur": 25
    },
    {
      "t": 1456.2,
      "ch": 1,
      "note": 42,
      "vel": 81,
      "dur": 25
    },
    {
      "t": 1456.2,
      "ch": 1,
      "note": 36,
      "vel": 106,
      "dur": 25
    },
    {
      "t": 1456.2,
      "ch": 1,
      "note": 38,
      "vel": 80,
      "dur": 25
    },
    {
      "t": 1456.2,
      "ch": 1,
      "note": 40,
      "vel": 72,
      "dur": 25
    },
    {
      "t": 1456.2,
      "ch": 1,
      "note": 42,
      "vel": 77,
      "dur": 25
    },
    {
      "t": 1456.2,
      "ch": 1,
      "note": 36,
      "vel": 111,
      "dur": 25
    },
    {
      "t": 1456.2,
      "ch": 7,
      "note": 48,
      "vel": 80,
      "dur": 80
    },
    {
      "t": 1456.2,
      "ch": 7,
      "note": 45,
      "vel": 68,
      "dur": 80
    },
    {
      "t": 1456.2,
      "ch": 7,
      "note": 36,
      "vel": 74,
      "dur": 80
    },
    {
      "t": 1456.2,
      "ch": 7,
      "note": 38,
      "vel": 63,
      "dur": 80
    },
    {
      "t": 1456.2,
      "ch": 5,
      "note": 73,
      "vel": 49,
      "dur": 870
    },
    {
      "t": 1456.3,
      "ch": 1,
      "note": 38,
      "vel": 78,
      "dur": 25
    },
    {
      "t": 1456.4,
      "ch": 1,
      "note": 40,
      "vel": 59,
      "dur": 25
    },
    {
      "t": 1456.4,
      "ch": 1,
      "note": 42,
      "vel": 82,
      "dur": 25
    },
    {
      "t": 1456.5,
      "ch": 1,
      "note": 36,
      "vel": 61,
      "dur": 25
    },
    {
      "t": 1456.5,
      "ch": 7,
      "note": 36,
      "vel": 52,
      "dur": 80
    },
    {
      "t": 1456.5,
      "ch": 5,
      "note": 68,
      "vel": 37,
      "dur": 868
    },
    {
      "t": 1456.6,
      "ch": 1,
      "note": 38,
      "vel": 88,
      "dur": 25
    },
    {
      "t": 1456.6,
      "ch": 1,
      "note": 40,
      "vel": 73,
      "dur": 25
    },
    {
      "t": 1456.7,
      "ch": 5,
      "note": 71,
      "vel": 40,
      "dur": 867
    },
    {
      "t": 1456.7,
      "ch": 6,
      "note": 73,
      "vel": 22,
      "dur": 578
    },
    {
      "t": 1456.7,
      "ch": 1,
      "note": 42,
      "vel": 83,
      "dur": 25
    },
    {
      "t": 1456.8,
      "ch": 0,
      "note": 36,
      "vel": 97,
      "dur": 55
    },
    {
      "t": 1456.8,
      "ch": 1,
      "note": 36,
      "vel": 84,
      "dur": 25
    },
    {
      "t": 1456.8,
      "ch": 7,
      "note": 48,
      "vel": 59,
      "dur": 80
    },
    {
      "t": 1456.8,
      "ch": 7,
      "note": 36,
      "vel": 67,
      "dur": 80
    },
    {
      "t": 1456.8,
      "ch": 6,
      "note": 73,
      "vel": 4,
      "dur": 400
    },
    {
      "t": 1456.9,
      "ch": 1,
      "note": 38,
      "vel": 73,
      "dur": 25
    },
    {
      "t": 1457,
      "ch": 1,
      "note": 40,
      "vel": 87,
      "dur": 25
    },
    {
      "t": 1457,
      "ch": 7,
      "note": 45,
      "vel": 66,
      "dur": 80
    },
    {
      "t": 1457,
      "ch": 7,
      "note": 38,
      "vel": 59,
      "dur": 80
    },
    {
      "t": 1457,
      "ch": 6,
      "note": 71,
      "vel": 44,
      "dur": 577
    },
    {
      "t": 1457,
      "ch": 1,
      "note": 42,
      "vel": 74,
      "dur": 25
    },
    {
      "t": 1457.1,
      "ch": 1,
      "note": 36,
      "vel": 54,
      "dur": 25
    },
    {
      "t": 1457.2,
      "ch": 1,
      "note": 38,
      "vel": 62,
      "dur": 25
    },
    {
      "t": 1457.3,
      "ch": 1,
      "note": 40,
      "vel": 78,
      "dur": 25
    },
    {
      "t": 1457.3,
      "ch": 1,
      "note": 42,
      "vel": 59,
      "dur": 25
    },
    {
      "t": 1457.4,
      "ch": 0,
      "note": 36,
      "vel": 99,
      "dur": 55
    },
    {
      "t": 1457.4,
      "ch": 1,
      "note": 36,
      "vel": 100,
      "dur": 25
    },
    {
      "t": 1457.4,
      "ch": 7,
      "note": 48,
      "vel": 59,
      "dur": 80
    },
    {
      "t": 1457.4,
      "ch": 7,
      "note": 36,
      "vel": 60,
      "dur": 80
    },
    {
      "t": 1457.4,
      "ch": 6,
      "note": 73,
      "vel": 38,
      "dur": 575
    },
    {
      "t": 1457.5,
      "ch": 1,
      "note": 38,
      "vel": 103,
      "dur": 25
    },
    {
      "t": 1457.5,
      "ch": 1,
      "note": 40,
      "vel": 55,
      "dur": 25
    },
    {
      "t": 1457.6,
      "ch": 1,
      "note": 42,
      "vel": 101,
      "dur": 25
    },
    {
      "t": 1457.7,
      "ch": 1,
      "note": 36,
      "vel": 76,
      "dur": 25
    },
    {
      "t": 1457.7,
      "ch": 7,
      "note": 45,
      "vel": 58,
      "dur": 80
    },
    {
      "t": 1457.7,
      "ch": 7,
      "note": 36,
      "vel": 61,
      "dur": 80
    },
    {
      "t": 1457.7,
      "ch": 7,
      "note": 38,
      "vel": 64,
      "dur": 80
    },
    {
      "t": 1457.8,
      "ch": 1,
      "note": 38,
      "vel": 80,
      "dur": 25
    },
    {
      "t": 1457.8,
      "ch": 1,
      "note": 40,
      "vel": 69,
      "dur": 25
    },
    {
      "t": 1457.9,
      "ch": 5,
      "note": 64,
      "vel": 13,
      "dur": 860
    },
    {
      "t": 1457.9,
      "ch": 1,
      "note": 42,
      "vel": 64,
      "dur": 25
    },
    {
      "t": 1458,
      "ch": 0,
      "note": 36,
      "vel": 90,
      "dur": 55
    },
    {
      "t": 1458,
      "ch": 1,
      "note": 36,
      "vel": 104,
      "dur": 25
    },
    {
      "t": 1458,
      "ch": 7,
      "note": 48,
      "vel": 67,
      "dur": 80
    },
    {
      "t": 1458,
      "ch": 7,
      "note": 36,
      "vel": 66,
      "dur": 80
    },
    {
      "t": 1458.1,
      "ch": 1,
      "note": 38,
      "vel": 94,
      "dur": 25
    },
    {
      "t": 1458.1,
      "ch": 1,
      "note": 40,
      "vel": 67,
      "dur": 25
    },
    {
      "t": 1458.2,
      "ch": 1,
      "note": 42,
      "vel": 59,
      "dur": 25
    },
    {
      "t": 1458.3,
      "ch": 1,
      "note": 36,
      "vel": 49,
      "dur": 25
    },
    {
      "t": 1458.3,
      "ch": 6,
      "note": 66,
      "vel": 28,
      "dur": 571
    },
    {
      "t": 1458.4,
      "ch": 1,
      "note": 38,
      "vel": 76,
      "dur": 25
    },
    {
      "t": 1458.4,
      "ch": 1,
      "note": 40,
      "vel": 64,
      "dur": 25
    },
    {
      "t": 1458.5,
      "ch": 1,
      "note": 42,
      "vel": 68,
      "dur": 25
    },
    {
      "t": 1458.6,
      "ch": 0,
      "note": 36,
      "vel": 115,
      "dur": 55
    },
    {
      "t": 1458.6,
      "ch": 1,
      "note": 36,
      "vel": 91,
      "dur": 25
    },
    {
      "t": 1458.6,
      "ch": 7,
      "note": 48,
      "vel": 77,
      "dur": 80
    },
    {
      "t": 1458.6,
      "ch": 7,
      "note": 45,
      "vel": 70,
      "dur": 80
    },
    {
      "t": 1458.6,
      "ch": 7,
      "note": 36,
      "vel": 77,
      "dur": 80
    },
    {
      "t": 1458.6,
      "ch": 7,
      "note": 38,
      "vel": 72,
      "dur": 80
    },
    {
      "t": 1458.7,
      "ch": 1,
      "note": 38,
      "vel": 80,
      "dur": 25
    },
    {
      "t": 1458.7,
      "ch": 1,
      "note": 40,
      "vel": 81,
      "dur": 25
    },
    {
      "t": 1458.8,
      "ch": 1,
      "note": 42,
      "vel": 67,
      "dur": 25
    },
    {
      "t": 1458.9,
      "ch": 1,
      "note": 36,
      "vel": 73,
      "dur": 25
    },
    {
      "t": 1458.9,
      "ch": 7,
      "note": 36,
      "vel": 64,
      "dur": 80
    },
    {
      "t": 1458.9,
      "ch": 5,
      "note": 49,
      "vel": 25,
      "dur": 854
    },
    {
      "t": 1459,
      "ch": 1,
      "note": 38,
      "vel": 93,
      "dur": 25
    },
    {
      "t": 1459,
      "ch": 1,
      "note": 40,
      "vel": 78,
      "dur": 25
    },
    {
      "t": 1459.1,
      "ch": 1,
      "note": 42,
      "vel": 67,
      "dur": 25
    },
    {
      "t": 1459.2,
      "ch": 0,
      "note": 36,
      "vel": 94,
      "dur": 55
    },
    {
      "t": 1459.2,
      "ch": 1,
      "note": 36,
      "vel": 73,
      "dur": 25
    },
    {
      "t": 1459.2,
      "ch": 7,
      "note": 48,
      "vel": 64,
      "dur": 80
    },
    {
      "t": 1459.2,
      "ch": 7,
      "note": 36,
      "vel": 70,
      "dur": 80
    },
    {
      "t": 1459.3,
      "ch": 1,
      "note": 38,
      "vel": 83,
      "dur": 25
    },
    {
      "t": 1459.3,
      "ch": 6,
      "note": 52,
      "vel": 22,
      "dur": 400
    },
    {
      "t": 1459.3,
      "ch": 1,
      "note": 40,
      "vel": 64,
      "dur": 25
    },
    {
      "t": 1459.4,
      "ch": 7,
      "note": 45,
      "vel": 68,
      "dur": 80
    },
    {
      "t": 1459.4,
      "ch": 7,
      "note": 38,
      "vel": 63,
      "dur": 80
    },
    {
      "t": 1459.4,
      "ch": 5,
      "note": 49,
      "vel": 40,
      "dur": 851
    },
    {
      "t": 1459.4,
      "ch": 1,
      "note": 42,
      "vel": 78,
      "dur": 25
    },
    {
      "t": 1459.5,
      "ch": 1,
      "note": 36,
      "vel": 70,
      "dur": 25
    },
    {
      "t": 1459.6,
      "ch": 1,
      "note": 38,
      "vel": 68,
      "dur": 25
    },
    {
      "t": 1459.6,
      "ch": 1,
      "note": 40,
      "vel": 81,
      "dur": 25
    },
    {
      "t": 1459.7,
      "ch": 1,
      "note": 42,
      "vel": 52,
      "dur": 25
    },
    {
      "t": 1459.8,
      "ch": 0,
      "note": 36,
      "vel": 98,
      "dur": 55
    },
    {
      "t": 1459.8,
      "ch": 1,
      "note": 36,
      "vel": 94,
      "dur": 25
    },
    {
      "t": 1459.8,
      "ch": 7,
      "note": 48,
      "vel": 63,
      "dur": 80
    },
    {
      "t": 1459.8,
      "ch": 7,
      "note": 36,
      "vel": 58,
      "dur": 80
    },
    {
      "t": 1459.8,
      "ch": 5,
      "note": 73,
      "vel": 35,
      "dur": 849
    },
    {
      "t": 1459.9,
      "ch": 1,
      "note": 38,
      "vel": 105,
      "dur": 25
    },
    {
      "t": 1459.9,
      "ch": 1,
      "note": 40,
      "vel": 86,
      "dur": 25
    },
    {
      "t": 1460,
      "ch": 5,
      "note": 68,
      "vel": 43,
      "dur": 849
    },
    {
      "t": 1460,
      "ch": 1,
      "note": 42,
      "vel": 78,
      "dur": 25
    },
    {
      "t": 1460.1,
      "ch": 1,
      "note": 36,
      "vel": 71,
      "dur": 25
    },
    {
      "t": 1460.1,
      "ch": 7,
      "note": 45,
      "vel": 62,
      "dur": 80
    },
    {
      "t": 1460.1,
      "ch": 7,
      "note": 36,
      "vel": 73,
      "dur": 80
    },
    {
      "t": 1460.1,
      "ch": 7,
      "note": 38,
      "vel": 70,
      "dur": 80
    },
    {
      "t": 1460.2,
      "ch": 1,
      "note": 38,
      "vel": 87,
      "dur": 25
    },
    {
      "t": 1460.2,
      "ch": 1,
      "note": 40,
      "vel": 106,
      "dur": 25
    },
    {
      "t": 1460.3,
      "ch": 6,
      "note": 52,
      "vel": 12,
      "dur": 565
    },
    {
      "t": 1460.3,
      "ch": 6,
      "note": 73,
      "vel": 15,
      "dur": 400
    },
    {
      "t": 1460.3,
      "ch": 1,
      "note": 42,
      "vel": 87,
      "dur": 25
    },
    {
      "t": 1460.4,
      "ch": 0,
      "note": 36,
      "vel": 89,
      "dur": 55
    },
    {
      "t": 1460.4,
      "ch": 1,
      "note": 36,
      "vel": 97,
      "dur": 25
    },
    {
      "t": 1460.4,
      "ch": 7,
      "note": 48,
      "vel": 72,
      "dur": 80
    },
    {
      "t": 1460.4,
      "ch": 7,
      "note": 36,
      "vel": 69,
      "dur": 80
    },
    {
      "t": 1460.5,
      "ch": 1,
      "note": 38,
      "vel": 103,
      "dur": 25
    },
    {
      "t": 1460.6,
      "ch": 1,
      "note": 40,
      "vel": 120,
      "dur": 25
    },
    {
      "t": 1460.6,
      "ch": 6,
      "note": 52,
      "vel": 23,
      "dur": 564
    },
    {
      "t": 1460.6,
      "ch": 1,
      "note": 42,
      "vel": 108,
      "dur": 25
    },
    {
      "t": 1460.7,
      "ch": 1,
      "note": 36,
      "vel": 93,
      "dur": 25
    },
    {
      "t": 1460.8,
      "ch": 1,
      "note": 38,
      "vel": 88,
      "dur": 25
    },
    {
      "t": 1460.8,
      "ch": 1,
      "note": 40,
      "vel": 97,
      "dur": 25
    },
    {
      "t": 1460.9,
      "ch": 1,
      "note": 42,
      "vel": 102,
      "dur": 25
    },
    {
      "t": 1461,
      "ch": 0,
      "note": 36,
      "vel": 108,
      "dur": 55
    },
    {
      "t": 1461,
      "ch": 1,
      "note": 36,
      "vel": 92,
      "dur": 25
    },
    {
      "t": 1461,
      "ch": 7,
      "note": 48,
      "vel": 55,
      "dur": 80
    },
    {
      "t": 1461,
      "ch": 7,
      "note": 45,
      "vel": 56,
      "dur": 80
    },
    {
      "t": 1461,
      "ch": 7,
      "note": 36,
      "vel": 68,
      "dur": 80
    },
    {
      "t": 1461,
      "ch": 7,
      "note": 38,
      "vel": 73,
      "dur": 80
    },
    {
      "t": 1461.1,
      "ch": 1,
      "note": 38,
      "vel": 119,
      "dur": 25
    },
    {
      "t": 1461.1,
      "ch": 1,
      "note": 40,
      "vel": 98,
      "dur": 25
    },
    {
      "t": 1461.2,
      "ch": 1,
      "note": 42,
      "vel": 109,
      "dur": 25
    },
    {
      "t": 1461.3,
      "ch": 1,
      "note": 36,
      "vel": 88,
      "dur": 25
    },
    {
      "t": 1461.3,
      "ch": 7,
      "note": 36,
      "vel": 55,
      "dur": 80
    },
    {
      "t": 1461.3,
      "ch": 5,
      "note": 71,
      "vel": 51,
      "dur": 844
    },
    {
      "t": 1461.4,
      "ch": 1,
      "note": 38,
      "vel": 91,
      "dur": 25
    },
    {
      "t": 1461.5,
      "ch": 1,
      "note": 40,
      "vel": 90,
      "dur": 25
    },
    {
      "t": 1461.5,
      "ch": 1,
      "note": 42,
      "vel": 86,
      "dur": 25
    },
    {
      "t": 1461.6,
      "ch": 0,
      "note": 36,
      "vel": 83,
      "dur": 55
    },
    {
      "t": 1461.6,
      "ch": 1,
      "note": 36,
      "vel": 108,
      "dur": 25
    },
    {
      "t": 1461.6,
      "ch": 7,
      "note": 48,
      "vel": 68,
      "dur": 80
    },
    {
      "t": 1461.6,
      "ch": 7,
      "note": 36,
      "vel": 67,
      "dur": 80
    },
    {
      "t": 1461.7,
      "ch": 1,
      "note": 38,
      "vel": 95,
      "dur": 25
    },
    {
      "t": 1461.7,
      "ch": 6,
      "note": 73,
      "vel": 3,
      "dur": 400
    },
    {
      "t": 1461.7,
      "ch": 1,
      "note": 40,
      "vel": 83,
      "dur": 25
    },
    {
      "t": 1461.8,
      "ch": 7,
      "note": 38,
      "vel": 61,
      "dur": 80
    },
    {
      "t": 1461.8,
      "ch": 7,
      "note": 45,
      "vel": 75,
      "dur": 80
    },
    {
      "t": 1461.8,
      "ch": 1,
      "note": 42,
      "vel": 109,
      "dur": 25
    },
    {
      "t": 1461.9,
      "ch": 1,
      "note": 36,
      "vel": 88,
      "dur": 25
    },
    {
      "t": 1462,
      "ch": 1,
      "note": 38,
      "vel": 97,
      "dur": 25
    },
    {
      "t": 1462.1,
      "ch": 1,
      "note": 40,
      "vel": 110,
      "dur": 25
    },
    {
      "t": 1462.1,
      "ch": 5,
      "note": 56,
      "vel": 45,
      "dur": 843
    },
    {
      "t": 1462.1,
      "ch": 1,
      "note": 42,
      "vel": 96,
      "dur": 25
    },
    {
      "t": 1462.2,
      "ch": 0,
      "note": 36,
      "vel": 100,
      "dur": 55
    },
    {
      "t": 1462.2,
      "ch": 1,
      "note": 36,
      "vel": 115,
      "dur": 25
    },
    {
      "t": 1462.2,
      "ch": 7,
      "note": 48,
      "vel": 83,
      "dur": 80
    },
    {
      "t": 1462.2,
      "ch": 7,
      "note": 36,
      "vel": 79,
      "dur": 80
    },
    {
      "t": 1462.2,
      "ch": 6,
      "note": 59,
      "vel": 15,
      "dur": 562
    },
    {
      "t": 1462.3,
      "ch": 1,
      "note": 38,
      "vel": 127,
      "dur": 25
    },
    {
      "t": 1462.3,
      "ch": 1,
      "note": 40,
      "vel": 96,
      "dur": 25
    },
    {
      "t": 1462.4,
      "ch": 6,
      "note": 61,
      "vel": 11,
      "dur": 400
    },
    {
      "t": 1462.4,
      "ch": 1,
      "note": 42,
      "vel": 86,
      "dur": 25
    },
    {
      "t": 1462.5,
      "ch": 1,
      "note": 36,
      "vel": 88,
      "dur": 25
    },
    {
      "t": 1462.5,
      "ch": 7,
      "note": 38,
      "vel": 59,
      "dur": 80
    },
    {
      "t": 1462.5,
      "ch": 7,
      "note": 45,
      "vel": 71,
      "dur": 80
    },
    {
      "t": 1462.5,
      "ch": 7,
      "note": 36,
      "vel": 51,
      "dur": 80
    },
    {
      "t": 1462.6,
      "ch": 1,
      "note": 38,
      "vel": 100,
      "dur": 25
    },
    {
      "t": 1462.6,
      "ch": 1,
      "note": 40,
      "vel": 75,
      "dur": 25
    },
    {
      "t": 1462.7,
      "ch": 5,
      "note": 49,
      "vel": 26,
      "dur": 843
    },
    {
      "t": 1462.7,
      "ch": 1,
      "note": 42,
      "vel": 85,
      "dur": 25
    },
    {
      "t": 1462.8,
      "ch": 0,
      "note": 36,
      "vel": 88,
      "dur": 55
    },
    {
      "t": 1462.8,
      "ch": 1,
      "note": 36,
      "vel": 127,
      "dur": 25
    },
    {
      "t": 1462.8,
      "ch": 7,
      "note": 48,
      "vel": 77,
      "dur": 80
    },
    {
      "t": 1462.8,
      "ch": 7,
      "note": 36,
      "vel": 57,
      "dur": 80
    },
    {
      "t": 1462.9,
      "ch": 1,
      "note": 38,
      "vel": 125,
      "dur": 25
    },
    {
      "t": 1462.9,
      "ch": 1,
      "note": 40,
      "vel": 122,
      "dur": 25
    },
    {
      "t": 1463,
      "ch": 1,
      "note": 42,
      "vel": 79,
      "dur": 25
    },
    {
      "t": 1463.1,
      "ch": 1,
      "note": 36,
      "vel": 93,
      "dur": 25
    },
    {
      "t": 1463.2,
      "ch": 1,
      "note": 38,
      "vel": 76,
      "dur": 25
    },
    {
      "t": 1463.3,
      "ch": 1,
      "note": 40,
      "vel": 102,
      "dur": 25
    },
    {
      "t": 1463.3,
      "ch": 1,
      "note": 42,
      "vel": 95,
      "dur": 25
    },
    {
      "t": 1463.4,
      "ch": 0,
      "note": 36,
      "vel": 106,
      "dur": 55
    },
    {
      "t": 1463.4,
      "ch": 1,
      "note": 36,
      "vel": 108,
      "dur": 25
    },
    {
      "t": 1463.4,
      "ch": 7,
      "note": 48,
      "vel": 57,
      "dur": 80
    },
    {
      "t": 1463.4,
      "ch": 7,
      "note": 45,
      "vel": 78,
      "dur": 80
    },
    {
      "t": 1463.4,
      "ch": 7,
      "note": 36,
      "vel": 62,
      "dur": 80
    },
    {
      "t": 1463.4,
      "ch": 7,
      "note": 38,
      "vel": 68,
      "dur": 80
    },
    {
      "t": 1463.4,
      "ch": 6,
      "note": 52,
      "vel": 3,
      "dur": 562
    },
    {
      "t": 1463.5,
      "ch": 1,
      "note": 38,
      "vel": 108,
      "dur": 25
    },
    {
      "t": 1463.5,
      "ch": 1,
      "note": 40,
      "vel": 83,
      "dur": 25
    },
    {
      "t": 1463.6,
      "ch": 5,
      "note": 54,
      "vel": 39,
      "dur": 844
    },
    {
      "t": 1463.6,
      "ch": 1,
      "note": 42,
      "vel": 86,
      "dur": 25
    },
    {
      "t": 1463.7,
      "ch": 1,
      "note": 36,
      "vel": 90,
      "dur": 25
    },
    {
      "t": 1463.7,
      "ch": 7,
      "note": 36,
      "vel": 64,
      "dur": 80
    },
    {
      "t": 1463.8,
      "ch": 1,
      "note": 38,
      "vel": 103,
      "dur": 25
    },
    {
      "t": 1463.8,
      "ch": 1,
      "note": 40,
      "vel": 107,
      "dur": 25
    },
    {
      "t": 1463.9,
      "ch": 1,
      "note": 42,
      "vel": 106,
      "dur": 25
    },
    {
      "t": 1464,
      "ch": 0,
      "note": 36,
      "vel": 93,
      "dur": 55
    },
    {
      "t": 1464,
      "ch": 1,
      "note": 36,
      "vel": 114,
      "dur": 25
    },
    {
      "t": 1464,
      "ch": 7,
      "note": 48,
      "vel": 84,
      "dur": 80
    },
    {
      "t": 1464,
      "ch": 7,
      "note": 36,
      "vel": 77,
      "dur": 80
    },
    {
      "t": 1464.1,
      "ch": 1,
      "note": 38,
      "vel": 127,
      "dur": 25
    },
    {
      "t": 1464.1,
      "ch": 1,
      "note": 40,
      "vel": 76,
      "dur": 25
    },
    {
      "t": 1464.2,
      "ch": 7,
      "note": 45,
      "vel": 63,
      "dur": 80
    },
    {
      "t": 1464.2,
      "ch": 7,
      "note": 38,
      "vel": 73,
      "dur": 80
    },
    {
      "t": 1464.2,
      "ch": 1,
      "note": 42,
      "vel": 96,
      "dur": 25
    },
    {
      "t": 1464.3,
      "ch": 1,
      "note": 36,
      "vel": 103,
      "dur": 25
    },
    {
      "t": 1464.3,
      "ch": 5,
      "note": 59,
      "vel": 41,
      "dur": 845
    },
    {
      "t": 1464.4,
      "ch": 1,
      "note": 38,
      "vel": 83,
      "dur": 25
    },
    {
      "t": 1464.4,
      "ch": 1,
      "note": 40,
      "vel": 97,
      "dur": 25
    },
    {
      "t": 1464.5,
      "ch": 6,
      "note": 52,
      "vel": 1,
      "dur": 564
    },
    {
      "t": 1464.5,
      "ch": 2,
      "note": 49,
      "vel": 0,
      "dur": 0
    },
    {
      "t": 1464.5,
      "ch": 2,
      "note": 54,
      "vel": 60,
      "dur": 18000
    },
    {
      "t": 1464.5,
      "ch": 2,
      "note": 66,
      "vel": 42,
      "dur": 18000
    },
    {
      "t": 1464.5,
      "ch": 1,
      "note": 42,
      "vel": 89,
      "dur": 25
    },
    {
      "t": 1464.6,
      "ch": 0,
      "note": 36,
      "vel": 85,
      "dur": 55
    },
    {
      "t": 1464.6,
      "ch": 1,
      "note": 36,
      "vel": 127,
      "dur": 25
    },
    {
      "t": 1464.6,
      "ch": 7,
      "note": 48,
      "vel": 60,
      "dur": 80
    },
    {
      "t": 1464.6,
      "ch": 7,
      "note": 36,
      "vel": 77,
      "dur": 80
    },
    {
      "t": 1464.6,
      "ch": 6,
      "note": 58,
      "vel": 52,
      "dur": 564
    },
    {
      "t": 1464.7,
      "ch": 1,
      "note": 38,
      "vel": 116,
      "dur": 25
    },
    {
      "t": 1464.7,
      "ch": 1,
      "note": 40,
      "vel": 107,
      "dur": 25
    },
    {
      "t": 1464.8,
      "ch": 6,
      "note": 63,
      "vel": 17,
      "dur": 400
    },
    {
      "t": 1464.8,
      "ch": 1,
      "note": 42,
      "vel": 100,
      "dur": 25
    },
    {
      "t": 1464.9,
      "ch": 1,
      "note": 36,
      "vel": 115,
      "dur": 25
    },
    {
      "t": 1464.9,
      "ch": 7,
      "note": 38,
      "vel": 54,
      "dur": 80
    },
    {
      "t": 1464.9,
      "ch": 7,
      "note": 45,
      "vel": 65,
      "dur": 80
    },
    {
      "t": 1464.9,
      "ch": 7,
      "note": 36,
      "vel": 62,
      "dur": 80
    },
    {
      "t": 1465,
      "ch": 1,
      "note": 38,
      "vel": 100,
      "dur": 25
    },
    {
      "t": 1465,
      "ch": 1,
      "note": 40,
      "vel": 113,
      "dur": 25
    },
    {
      "t": 1465.1,
      "ch": 1,
      "note": 42,
      "vel": 104,
      "dur": 25
    },
    {
      "t": 1465.2,
      "ch": 0,
      "note": 36,
      "vel": 97,
      "dur": 55
    },
    {
      "t": 1465.2,
      "ch": 1,
      "note": 36,
      "vel": 127,
      "dur": 25
    },
    {
      "t": 1465.2,
      "ch": 7,
      "note": 48,
      "vel": 67,
      "dur": 80
    },
    {
      "t": 1465.2,
      "ch": 7,
      "note": 36,
      "vel": 73,
      "dur": 80
    },
    {
      "t": 1465.3,
      "ch": 1,
      "note": 38,
      "vel": 120,
      "dur": 25
    },
    {
      "t": 1465.3,
      "ch": 1,
      "note": 40,
      "vel": 86,
      "dur": 25
    },
    {
      "t": 1465.4,
      "ch": 1,
      "note": 42,
      "vel": 91,
      "dur": 25
    },
    {
      "t": 1465.5,
      "ch": 1,
      "note": 36,
      "vel": 78,
      "dur": 25
    },
    {
      "t": 1465.6,
      "ch": 1,
      "note": 38,
      "vel": 79,
      "dur": 25
    },
    {
      "t": 1465.7,
      "ch": 1,
      "note": 40,
      "vel": 63,
      "dur": 25
    },
    {
      "t": 1465.7,
      "ch": 1,
      "note": 42,
      "vel": 81,
      "dur": 25
    },
    {
      "t": 1465.8,
      "ch": 0,
      "note": 36,
      "vel": 119,
      "dur": 55
    },
    {
      "t": 1465.8,
      "ch": 7,
      "note": 48,
      "vel": 77,
      "dur": 80
    },
    {
      "t": 1465.8,
      "ch": 7,
      "note": 45,
      "vel": 60,
      "dur": 80
    },
    {
      "t": 1465.8,
      "ch": 7,
      "note": 36,
      "vel": 72,
      "dur": 80
    },
    {
      "t": 1465.8,
      "ch": 7,
      "note": 38,
      "vel": 71,
      "dur": 80
    },
    {
      "t": 1465.8,
      "ch": 5,
      "note": 58,
      "vel": 43,
      "dur": 851
    },
    {
      "t": 1466.1,
      "ch": 7,
      "note": 36,
      "vel": 58,
      "dur": 80
    },
    {
      "t": 1466.3,
      "ch": 6,
      "note": 61,
      "vel": 18,
      "dur": 569
    },
    {
      "t": 1466.4,
      "ch": 0,
      "note": 36,
      "vel": 96,
      "dur": 55
    },
    {
      "t": 1466.4,
      "ch": 7,
      "note": 48,
      "vel": 68,
      "dur": 80
    },
    {
      "t": 1466.4,
      "ch": 7,
      "note": 36,
      "vel": 64,
      "dur": 80
    },
    {
      "t": 1466.6,
      "ch": 7,
      "note": 45,
      "vel": 60,
      "dur": 80
    },
    {
      "t": 1466.6,
      "ch": 7,
      "note": 38,
      "vel": 62,
      "dur": 80
    },
    {
      "t": 1466.6,
      "ch": 5,
      "note": 59,
      "vel": 26,
      "dur": 854
    },
    {
      "t": 1466.9,
      "ch": 4,
      "note": 59,
      "vel": 64,
      "dur": 2350
    },
    {
      "t": 1466.9,
      "ch": 3,
      "note": 40,
      "vel": 66,
      "dur": 2400
    },
    {
      "t": 1467,
      "ch": 0,
      "note": 36,
      "vel": 95,
      "dur": 55
    },
    {
      "t": 1467,
      "ch": 7,
      "note": 48,
      "vel": 67,
      "dur": 80
    },
    {
      "t": 1467,
      "ch": 7,
      "note": 36,
      "vel": 82,
      "dur": 80
    },
    {
      "t": 1467,
      "ch": 6,
      "note": 71,
      "vel": 31,
      "dur": 571
    },
    {
      "t": 1467.3,
      "ch": 7,
      "note": 45,
      "vel": 63,
      "dur": 80
    },
    {
      "t": 1467.3,
      "ch": 7,
      "note": 36,
      "vel": 61,
      "dur": 80
    },
    {
      "t": 1467.3,
      "ch": 7,
      "note": 38,
      "vel": 64,
      "dur": 80
    },
    {
      "t": 1467.6,
      "ch": 0,
      "note": 36,
      "vel": 97,
      "dur": 55
    },
    {
      "t": 1467.6,
      "ch": 7,
      "note": 48,
      "vel": 60,
      "dur": 80
    },
    {
      "t": 1467.6,
      "ch": 7,
      "note": 36,
      "vel": 69,
      "dur": 80
    },
    {
      "t": 1468.1,
      "ch": 6,
      "note": 63,
      "vel": 26,
      "dur": 575
    },
    {
      "t": 1468.2,
      "ch": 0,
      "note": 36,
      "vel": 116,
      "dur": 55
    },
    {
      "t": 1468.2,
      "ch": 7,
      "note": 48,
      "vel": 66,
      "dur": 80
    },
    {
      "t": 1468.2,
      "ch": 7,
      "note": 45,
      "vel": 74,
      "dur": 80
    },
    {
      "t": 1468.2,
      "ch": 7,
      "note": 36,
      "vel": 62,
      "dur": 80
    },
    {
      "t": 1468.2,
      "ch": 7,
      "note": 38,
      "vel": 64,
      "dur": 80
    },
    {
      "t": 1468.5,
      "ch": 7,
      "note": 36,
      "vel": 59,
      "dur": 80
    },
    {
      "t": 1468.8,
      "ch": 0,
      "note": 36,
      "vel": 96,
      "dur": 55
    },
    {
      "t": 1468.8,
      "ch": 7,
      "note": 48,
      "vel": 64,
      "dur": 80
    },
    {
      "t": 1468.8,
      "ch": 7,
      "note": 36,
      "vel": 66,
      "dur": 80
    },
    {
      "t": 1469,
      "ch": 7,
      "note": 45,
      "vel": 62,
      "dur": 80
    },
    {
      "t": 1469,
      "ch": 7,
      "note": 38,
      "vel": 65,
      "dur": 80
    },
    {
      "t": 1469.3,
      "ch": 4,
      "note": 59,
      "vel": 64,
      "dur": 2350
    },
    {
      "t": 1469.3,
      "ch": 3,
      "note": 42,
      "vel": 63,
      "dur": 2400
    },
    {
      "t": 1469.4,
      "ch": 0,
      "note": 36,
      "vel": 96,
      "dur": 55
    },
    {
      "t": 1469.4,
      "ch": 7,
      "note": 48,
      "vel": 72,
      "dur": 80
    },
    {
      "t": 1469.4,
      "ch": 7,
      "note": 36,
      "vel": 71,
      "dur": 80
    },
    {
      "t": 1469.4,
      "ch": 5,
      "note": 56,
      "vel": 44,
      "dur": 869
    },
    {
      "t": 1469.7,
      "ch": 7,
      "note": 45,
      "vel": 59,
      "dur": 80
    },
    {
      "t": 1469.7,
      "ch": 7,
      "note": 36,
      "vel": 56,
      "dur": 80
    },
    {
      "t": 1469.7,
      "ch": 7,
      "note": 38,
      "vel": 60,
      "dur": 80
    },
    {
      "t": 1469.7,
      "ch": 5,
      "note": 49,
      "vel": 21,
      "dur": 871
    },
    {
      "t": 1470,
      "ch": 0,
      "note": 36,
      "vel": 90,
      "dur": 55
    },
    {
      "t": 1470,
      "ch": 7,
      "note": 48,
      "vel": 73,
      "dur": 80
    },
    {
      "t": 1470,
      "ch": 7,
      "note": 36,
      "vel": 80,
      "dur": 80
    },
    {
      "t": 1470.3,
      "ch": 6,
      "note": 56,
      "vel": 31,
      "dur": 582
    },
    {
      "t": 1470.6,
      "ch": 0,
      "note": 36,
      "vel": 119,
      "dur": 55
    },
    {
      "t": 1470.6,
      "ch": 7,
      "note": 48,
      "vel": 72,
      "dur": 80
    },
    {
      "t": 1470.6,
      "ch": 7,
      "note": 45,
      "vel": 68,
      "dur": 80
    },
    {
      "t": 1470.6,
      "ch": 7,
      "note": 36,
      "vel": 66,
      "dur": 80
    },
    {
      "t": 1470.6,
      "ch": 7,
      "note": 38,
      "vel": 71,
      "dur": 80
    },
    {
      "t": 1470.6,
      "ch": 5,
      "note": 54,
      "vel": 38,
      "dur": 874
    },
    {
      "t": 1470.9,
      "ch": 6,
      "note": 58,
      "vel": 36,
      "dur": 400
    },
    {
      "t": 1470.9,
      "ch": 7,
      "note": 36,
      "vel": 68,
      "dur": 80
    },
    {
      "t": 1471.2,
      "ch": 0,
      "note": 36,
      "vel": 90,
      "dur": 55
    },
    {
      "t": 1471.2,
      "ch": 7,
      "note": 48,
      "vel": 69,
      "dur": 80
    },
    {
      "t": 1471.2,
      "ch": 7,
      "note": 36,
      "vel": 62,
      "dur": 80
    },
    {
      "t": 1471.2,
      "ch": 5,
      "note": 59,
      "vel": 32,
      "dur": 876
    },
    {
      "t": 1471.2,
      "ch": 6,
      "note": 73,
      "vel": 23,
      "dur": 584
    },
    {
      "t": 1471.4,
      "ch": 7,
      "note": 45,
      "vel": 67,
      "dur": 80
    },
    {
      "t": 1471.4,
      "ch": 7,
      "note": 38,
      "vel": 58,
      "dur": 80
    },
    {
      "t": 1471.4,
      "ch": 6,
      "note": 63,
      "vel": 39,
      "dur": 585
    },
    {
      "t": 1471.7,
      "ch": 6,
      "note": 63,
      "vel": 22,
      "dur": 585
    },
    {
      "t": 1471.7,
      "ch": 4,
      "note": 59,
      "vel": 59,
      "dur": 2350
    },
    {
      "t": 1471.7,
      "ch": 3,
      "note": 40,
      "vel": 62,
      "dur": 2400
    },
    {
      "t": 1471.8,
      "ch": 0,
      "note": 36,
      "vel": 95,
      "dur": 55
    },
    {
      "t": 1471.8,
      "ch": 7,
      "note": 48,
      "vel": 81,
      "dur": 80
    },
    {
      "t": 1471.8,
      "ch": 7,
      "note": 36,
      "vel": 67,
      "dur": 80
    },
    {
      "t": 1472.1,
      "ch": 7,
      "note": 45,
      "vel": 66,
      "dur": 80
    },
    {
      "t": 1472.1,
      "ch": 7,
      "note": 36,
      "vel": 58,
      "dur": 80
    },
    {
      "t": 1472.1,
      "ch": 7,
      "note": 38,
      "vel": 68,
      "dur": 80
    },
    {
      "t": 1472.4,
      "ch": 0,
      "note": 36,
      "vel": 92,
      "dur": 55
    },
    {
      "t": 1472.4,
      "ch": 7,
      "note": 48,
      "vel": 60,
      "dur": 80
    },
    {
      "t": 1472.4,
      "ch": 7,
      "note": 36,
      "vel": 66,
      "dur": 80
    },
    {
      "t": 1473,
      "ch": 7,
      "note": 48,
      "vel": 62,
      "dur": 80
    },
    {
      "t": 1473,
      "ch": 7,
      "note": 45,
      "vel": 56,
      "dur": 80
    },
    {
      "t": 1473,
      "ch": 7,
      "note": 36,
      "vel": 65,
      "dur": 80
    },
    {
      "t": 1473,
      "ch": 7,
      "note": 38,
      "vel": 77,
      "dur": 80
    },
    {
      "t": 1473.3,
      "ch": 7,
      "note": 36,
      "vel": 68,
      "dur": 80
    },
    {
      "t": 1473.6,
      "ch": 7,
      "note": 48,
      "vel": 74,
      "dur": 80
    },
    {
      "t": 1473.6,
      "ch": 7,
      "note": 36,
      "vel": 77,
      "dur": 80
    },
    {
      "t": 1473.8,
      "ch": 7,
      "note": 45,
      "vel": 57,
      "dur": 80
    },
    {
      "t": 1473.8,
      "ch": 7,
      "note": 38,
      "vel": 71,
      "dur": 80
    },
    {
      "t": 1473.8,
      "ch": 6,
      "note": 61,
      "vel": 24,
      "dur": 586
    },
    {
      "t": 1473.9,
      "ch": 5,
      "note": 58,
      "vel": 36,
      "dur": 879
    },
    {
      "t": 1474.1,
      "ch": 5,
      "note": 59,
      "vel": 34,
      "dur": 879
    },
    {
      "t": 1474.1,
      "ch": 2,
      "note": 54,
      "vel": 0,
      "dur": 0
    },
    {
      "t": 1474.1,
      "ch": 2,
      "note": 66,
      "vel": 0,
      "dur": 0
    },
    {
      "t": 1474.1,
      "ch": 2,
      "note": 49,
      "vel": 59,
      "dur": 18000
    },
    {
      "t": 1474.1,
      "ch": 2,
      "note": 61,
      "vel": 41,
      "dur": 18000
    },
    {
      "t": 1474.1,
      "ch": 4,
      "note": 58,
      "vel": 74,
      "dur": 2350
    },
    {
      "t": 1474.1,
      "ch": 3,
      "note": 37,
      "vel": 62,
      "dur": 2400
    },
    {
      "t": 1474.2,
      "ch": 7,
      "note": 48,
      "vel": 77,
      "dur": 80
    },
    {
      "t": 1474.2,
      "ch": 7,
      "note": 36,
      "vel": 87,
      "dur": 80
    },
    {
      "t": 1474.4,
      "ch": 6,
      "note": 63,
      "vel": 19,
      "dur": 400
    },
    {
      "t": 1474.5,
      "ch": 7,
      "note": 45,
      "vel": 64,
      "dur": 80
    },
    {
      "t": 1474.5,
      "ch": 7,
      "note": 36,
      "vel": 68,
      "dur": 80
    },
    {
      "t": 1474.5,
      "ch": 7,
      "note": 38,
      "vel": 55,
      "dur": 80
    },
    {
      "t": 1474.8,
      "ch": 7,
      "note": 48,
      "vel": 69,
      "dur": 80
    },
    {
      "t": 1474.8,
      "ch": 7,
      "note": 36,
      "vel": 65,
      "dur": 80
    },
    {
      "t": 1474.8,
      "ch": 6,
      "note": 61,
      "vel": 23,
      "dur": 585
    },
    {
      "t": 1475.4,
      "ch": 0,
      "note": 36,
      "vel": 110,
      "dur": 55
    },
    {
      "t": 1475.4,
      "ch": 7,
      "note": 48,
      "vel": 70,
      "dur": 80
    },
    {
      "t": 1475.4,
      "ch": 7,
      "note": 45,
      "vel": 74,
      "dur": 80
    },
    {
      "t": 1475.4,
      "ch": 7,
      "note": 36,
      "vel": 61,
      "dur": 80
    },
    {
      "t": 1475.4,
      "ch": 7,
      "note": 38,
      "vel": 70,
      "dur": 80
    },
    {
      "t": 1475.7,
      "ch": 7,
      "note": 36,
      "vel": 69,
      "dur": 80
    },
    {
      "t": 1475.7,
      "ch": 5,
      "note": 61,
      "vel": 50,
      "dur": 874
    },
    {
      "t": 1475.9,
      "ch": 6,
      "note": 64,
      "vel": 11,
      "dur": 582
    },
    {
      "t": 1476,
      "ch": 0,
      "note": 36,
      "vel": 91,
      "dur": 55
    },
    {
      "t": 1476,
      "ch": 7,
      "note": 48,
      "vel": 63,
      "dur": 80
    },
    {
      "t": 1476,
      "ch": 7,
      "note": 36,
      "vel": 70,
      "dur": 80
    },
    {
      "t": 1476.2,
      "ch": 7,
      "note": 45,
      "vel": 72,
      "dur": 80
    },
    {
      "t": 1476.2,
      "ch": 7,
      "note": 38,
      "vel": 59,
      "dur": 80
    },
    {
      "t": 1476.5,
      "ch": 4,
      "note": 58,
      "vel": 77,
      "dur": 2350
    },
    {
      "t": 1476.5,
      "ch": 3,
      "note": 44,
      "vel": 63,
      "dur": 2400
    },
    {
      "t": 1476.6,
      "ch": 0,
      "note": 36,
      "vel": 86,
      "dur": 55
    },
    {
      "t": 1476.6,
      "ch": 7,
      "note": 48,
      "vel": 71,
      "dur": 80
    },
    {
      "t": 1476.6,
      "ch": 7,
      "note": 36,
      "vel": 81,
      "dur": 80
    },
    {
      "t": 1476.6,
      "ch": 6,
      "note": 66,
      "vel": 29,
      "dur": 580
    },
    {
      "t": 1476.9,
      "ch": 7,
      "note": 45,
      "vel": 56,
      "dur": 80
    },
    {
      "t": 1476.9,
      "ch": 7,
      "note": 36,
      "vel": 68,
      "dur": 80
    },
    {
      "t": 1476.9,
      "ch": 7,
      "note": 38,
      "vel": 59,
      "dur": 80
    },
    {
      "t": 1477.2,
      "ch": 0,
      "note": 36,
      "vel": 91,
      "dur": 55
    },
    {
      "t": 1477.2,
      "ch": 7,
      "note": 48,
      "vel": 79,
      "dur": 80
    },
    {
      "t": 1477.2,
      "ch": 7,
      "note": 36,
      "vel": 74,
      "dur": 80
    },
    {
      "t": 1477.6,
      "ch": 6,
      "note": 71,
      "vel": 52,
      "dur": 575
    },
    {
      "t": 1477.7,
      "ch": 5,
      "note": 63,
      "vel": 33,
      "dur": 863
    },
    {
      "t": 1477.8,
      "ch": 0,
      "note": 36,
      "vel": 119,
      "dur": 55
    },
    {
      "t": 1477.8,
      "ch": 7,
      "note": 48,
      "vel": 59,
      "dur": 80
    },
    {
      "t": 1477.8,
      "ch": 7,
      "note": 45,
      "vel": 65,
      "dur": 80
    },
    {
      "t": 1477.8,
      "ch": 7,
      "note": 36,
      "vel": 65,
      "dur": 80
    },
    {
      "t": 1477.8,
      "ch": 7,
      "note": 38,
      "vel": 74,
      "dur": 80
    },
    {
      "t": 1477.8,
      "ch": 6,
      "note": 73,
      "vel": 39,
      "dur": 575
    },
    {
      "t": 1478,
      "ch": 6,
      "note": 66,
      "vel": 9,
      "dur": 400
    },
    {
      "t": 1478.1,
      "ch": 7,
      "note": 36,
      "vel": 57,
      "dur": 80
    },
    {
      "t": 1478.4,
      "ch": 0,
      "note": 36,
      "vel": 97,
      "dur": 55
    },
    {
      "t": 1478.4,
      "ch": 7,
      "note": 48,
      "vel": 75,
      "dur": 80
    },
    {
      "t": 1478.4,
      "ch": 7,
      "note": 36,
      "vel": 79,
      "dur": 80
    },
    {
      "t": 1478.6,
      "ch": 7,
      "note": 45,
      "vel": 57,
      "dur": 80
    },
    {
      "t": 1478.6,
      "ch": 7,
      "note": 38,
      "vel": 70,
      "dur": 80
    },
    {
      "t": 1478.6,
      "ch": 6,
      "note": 66,
      "vel": 29,
      "dur": 571
    },
    {
      "t": 1478.8,
      "ch": 1,
      "note": 36,
      "vel": 86,
      "dur": 25
    },
    {
      "t": 1478.8,
      "ch": 1,
      "note": 38,
      "vel": 79,
      "dur": 25
    },
    {
      "t": 1478.8,
      "ch": 1,
      "note": 40,
      "vel": 79,
      "dur": 25
    },
    {
      "t": 1478.8,
      "ch": 1,
      "note": 42,
      "vel": 105,
      "dur": 25
    },
    {
      "t": 1478.8,
      "ch": 1,
      "note": 36,
      "vel": 97,
      "dur": 25
    },
    {
      "t": 1478.8,
      "ch": 1,
      "note": 38,
      "vel": 89,
      "dur": 25
    },
    {
      "t": 1478.8,
      "ch": 1,
      "note": 40,
      "vel": 93,
      "dur": 25
    },
    {
      "t": 1478.8,
      "ch": 1,
      "note": 42,
      "vel": 107,
      "dur": 25
    },
    {
      "t": 1478.8,
      "ch": 1,
      "note": 36,
      "vel": 88,
      "dur": 25
    },
    {
      "t": 1478.8,
      "ch": 1,
      "note": 38,
      "vel": 91,
      "dur": 25
    },
    {
      "t": 1478.8,
      "ch": 1,
      "note": 40,
      "vel": 100,
      "dur": 25
    },
    {
      "t": 1478.8,
      "ch": 1,
      "note": 42,
      "vel": 110,
      "dur": 25
    },
    {
      "t": 1478.8,
      "ch": 1,
      "note": 36,
      "vel": 108,
      "dur": 25
    },
    {
      "t": 1478.8,
      "ch": 1,
      "note": 38,
      "vel": 83,
      "dur": 25
    },
    {
      "t": 1478.8,
      "ch": 1,
      "note": 40,
      "vel": 69,
      "dur": 25
    },
    {
      "t": 1478.8,
      "ch": 1,
      "note": 42,
      "vel": 90,
      "dur": 25
    },
    {
      "t": 1478.8,
      "ch": 1,
      "note": 36,
      "vel": 90,
      "dur": 25
    },
    {
      "t": 1478.8,
      "ch": 1,
      "note": 38,
      "vel": 109,
      "dur": 25
    },
    {
      "t": 1478.8,
      "ch": 1,
      "note": 40,
      "vel": 89,
      "dur": 25
    },
    {
      "t": 1478.8,
      "ch": 1,
      "note": 42,
      "vel": 82,
      "dur": 25
    },
    {
      "t": 1478.8,
      "ch": 1,
      "note": 36,
      "vel": 102,
      "dur": 25
    },
    {
      "t": 1478.8,
      "ch": 1,
      "note": 38,
      "vel": 75,
      "dur": 25
    },
    {
      "t": 1478.8,
      "ch": 1,
      "note": 40,
      "vel": 105,
      "dur": 25
    },
    {
      "t": 1478.8,
      "ch": 1,
      "note": 42,
      "vel": 98,
      "dur": 25
    },
    {
      "t": 1478.8,
      "ch": 1,
      "note": 36,
      "vel": 96,
      "dur": 25
    },
    {
      "t": 1478.8,
      "ch": 1,
      "note": 38,
      "vel": 84,
      "dur": 25
    },
    {
      "t": 1478.8,
      "ch": 1,
      "note": 40,
      "vel": 117,
      "dur": 25
    },
    {
      "t": 1478.8,
      "ch": 1,
      "note": 42,
      "vel": 96,
      "dur": 25
    },
    {
      "t": 1478.8,
      "ch": 1,
      "note": 36,
      "vel": 80,
      "dur": 25
    },
    {
      "t": 1478.8,
      "ch": 1,
      "note": 38,
      "vel": 90,
      "dur": 25
    },
    {
      "t": 1478.8,
      "ch": 1,
      "note": 40,
      "vel": 102,
      "dur": 25
    },
    {
      "t": 1478.8,
      "ch": 1,
      "note": 42,
      "vel": 89,
      "dur": 25
    },
    {
      "t": 1478.8,
      "ch": 1,
      "note": 36,
      "vel": 98,
      "dur": 25
    },
    {
      "t": 1478.8,
      "ch": 1,
      "note": 38,
      "vel": 101,
      "dur": 25
    },
    {
      "t": 1478.8,
      "ch": 1,
      "note": 40,
      "vel": 86,
      "dur": 25
    },
    {
      "t": 1478.8,
      "ch": 1,
      "note": 42,
      "vel": 94,
      "dur": 25
    },
    {
      "t": 1478.8,
      "ch": 1,
      "note": 36,
      "vel": 115,
      "dur": 25
    },
    {
      "t": 1478.8,
      "ch": 1,
      "note": 38,
      "vel": 90,
      "dur": 25
    },
    {
      "t": 1478.8,
      "ch": 1,
      "note": 40,
      "vel": 86,
      "dur": 25
    },
    {
      "t": 1478.8,
      "ch": 1,
      "note": 42,
      "vel": 107,
      "dur": 25
    },
    {
      "t": 1478.8,
      "ch": 1,
      "note": 36,
      "vel": 90,
      "dur": 25
    },
    {
      "t": 1478.8,
      "ch": 1,
      "note": 38,
      "vel": 102,
      "dur": 25
    },
    {
      "t": 1478.8,
      "ch": 1,
      "note": 40,
      "vel": 101,
      "dur": 25
    },
    {
      "t": 1478.8,
      "ch": 1,
      "note": 42,
      "vel": 100,
      "dur": 25
    },
    {
      "t": 1478.8,
      "ch": 1,
      "note": 36,
      "vel": 95,
      "dur": 25
    },
    {
      "t": 1478.8,
      "ch": 1,
      "note": 38,
      "vel": 86,
      "dur": 25
    },
    {
      "t": 1478.8,
      "ch": 1,
      "note": 40,
      "vel": 85,
      "dur": 25
    },
    {
      "t": 1478.8,
      "ch": 1,
      "note": 42,
      "vel": 112,
      "dur": 25
    },
    {
      "t": 1478.8,
      "ch": 1,
      "note": 36,
      "vel": 82,
      "dur": 25
    },
    {
      "t": 1478.8,
      "ch": 1,
      "note": 38,
      "vel": 76,
      "dur": 25
    },
    {
      "t": 1478.8,
      "ch": 1,
      "note": 40,
      "vel": 82,
      "dur": 25
    },
    {
      "t": 1478.8,
      "ch": 1,
      "note": 42,
      "vel": 96,
      "dur": 25
    },
    {
      "t": 1478.8,
      "ch": 1,
      "note": 36,
      "vel": 95,
      "dur": 25
    },
    {
      "t": 1478.8,
      "ch": 1,
      "note": 38,
      "vel": 85,
      "dur": 25
    },
    {
      "t": 1478.8,
      "ch": 1,
      "note": 40,
      "vel": 111,
      "dur": 25
    },
    {
      "t": 1478.8,
      "ch": 1,
      "note": 42,
      "vel": 94,
      "dur": 25
    },
    {
      "t": 1478.8,
      "ch": 1,
      "note": 36,
      "vel": 89,
      "dur": 25
    },
    {
      "t": 1478.8,
      "ch": 1,
      "note": 38,
      "vel": 85,
      "dur": 25
    },
    {
      "t": 1478.8,
      "ch": 1,
      "note": 40,
      "vel": 119,
      "dur": 25
    },
    {
      "t": 1478.8,
      "ch": 1,
      "note": 42,
      "vel": 94,
      "dur": 25
    },
    {
      "t": 1478.8,
      "ch": 1,
      "note": 36,
      "vel": 93,
      "dur": 25
    },
    {
      "t": 1478.8,
      "ch": 1,
      "note": 38,
      "vel": 87,
      "dur": 25
    },
    {
      "t": 1478.8,
      "ch": 1,
      "note": 40,
      "vel": 84,
      "dur": 25
    },
    {
      "t": 1478.8,
      "ch": 1,
      "note": 42,
      "vel": 85,
      "dur": 25
    },
    {
      "t": 1478.8,
      "ch": 1,
      "note": 36,
      "vel": 104,
      "dur": 25
    },
    {
      "t": 1478.8,
      "ch": 1,
      "note": 38,
      "vel": 98,
      "dur": 25
    },
    {
      "t": 1478.8,
      "ch": 1,
      "note": 40,
      "vel": 88,
      "dur": 25
    },
    {
      "t": 1478.8,
      "ch": 1,
      "note": 42,
      "vel": 104,
      "dur": 25
    },
    {
      "t": 1478.8,
      "ch": 1,
      "note": 36,
      "vel": 68,
      "dur": 25
    },
    {
      "t": 1478.8,
      "ch": 1,
      "note": 38,
      "vel": 114,
      "dur": 25
    },
    {
      "t": 1478.8,
      "ch": 1,
      "note": 40,
      "vel": 93,
      "dur": 25
    },
    {
      "t": 1478.8,
      "ch": 1,
      "note": 42,
      "vel": 88,
      "dur": 25
    },
    {
      "t": 1478.8,
      "ch": 1,
      "note": 36,
      "vel": 96,
      "dur": 25
    },
    {
      "t": 1478.8,
      "ch": 1,
      "note": 38,
      "vel": 89,
      "dur": 25
    },
    {
      "t": 1478.8,
      "ch": 1,
      "note": 40,
      "vel": 96,
      "dur": 25
    },
    {
      "t": 1478.8,
      "ch": 1,
      "note": 42,
      "vel": 96,
      "dur": 25
    },
    {
      "t": 1478.8,
      "ch": 1,
      "note": 36,
      "vel": 93,
      "dur": 25
    },
    {
      "t": 1478.8,
      "ch": 1,
      "note": 38,
      "vel": 91,
      "dur": 25
    },
    {
      "t": 1478.8,
      "ch": 1,
      "note": 40,
      "vel": 83,
      "dur": 25
    },
    {
      "t": 1478.8,
      "ch": 1,
      "note": 42,
      "vel": 112,
      "dur": 25
    },
    {
      "t": 1478.8,
      "ch": 1,
      "note": 36,
      "vel": 81,
      "dur": 25
    },
    {
      "t": 1478.8,
      "ch": 1,
      "note": 38,
      "vel": 81,
      "dur": 25
    },
    {
      "t": 1478.8,
      "ch": 1,
      "note": 40,
      "vel": 77,
      "dur": 25
    },
    {
      "t": 1478.8,
      "ch": 1,
      "note": 42,
      "vel": 97,
      "dur": 25
    },
    {
      "t": 1478.8,
      "ch": 1,
      "note": 36,
      "vel": 91,
      "dur": 25
    },
    {
      "t": 1478.8,
      "ch": 1,
      "note": 38,
      "vel": 97,
      "dur": 25
    },
    {
      "t": 1478.8,
      "ch": 1,
      "note": 40,
      "vel": 77,
      "dur": 25
    },
    {
      "t": 1478.8,
      "ch": 1,
      "note": 42,
      "vel": 86,
      "dur": 25
    },
    {
      "t": 1478.8,
      "ch": 1,
      "note": 36,
      "vel": 73,
      "dur": 25
    },
    {
      "t": 1478.8,
      "ch": 1,
      "note": 38,
      "vel": 78,
      "dur": 25
    },
    {
      "t": 1478.8,
      "ch": 1,
      "note": 40,
      "vel": 74,
      "dur": 25
    },
    {
      "t": 1478.8,
      "ch": 1,
      "note": 42,
      "vel": 82,
      "dur": 25
    },
    {
      "t": 1478.8,
      "ch": 1,
      "note": 36,
      "vel": 81,
      "dur": 25
    },
    {
      "t": 1478.8,
      "ch": 1,
      "note": 38,
      "vel": 84,
      "dur": 25
    },
    {
      "t": 1478.8,
      "ch": 1,
      "note": 40,
      "vel": 101,
      "dur": 25
    },
    {
      "t": 1478.8,
      "ch": 1,
      "note": 42,
      "vel": 78,
      "dur": 25
    },
    {
      "t": 1478.8,
      "ch": 1,
      "note": 36,
      "vel": 100,
      "dur": 25
    },
    {
      "t": 1478.8,
      "ch": 1,
      "note": 38,
      "vel": 82,
      "dur": 25
    },
    {
      "t": 1478.8,
      "ch": 1,
      "note": 40,
      "vel": 91,
      "dur": 25
    },
    {
      "t": 1478.8,
      "ch": 1,
      "note": 42,
      "vel": 81,
      "dur": 25
    },
    {
      "t": 1478.8,
      "ch": 1,
      "note": 36,
      "vel": 82,
      "dur": 25
    },
    {
      "t": 1478.8,
      "ch": 1,
      "note": 38,
      "vel": 98,
      "dur": 25
    },
    {
      "t": 1478.8,
      "ch": 1,
      "note": 40,
      "vel": 90,
      "dur": 25
    },
    {
      "t": 1478.8,
      "ch": 1,
      "note": 42,
      "vel": 90,
      "dur": 25
    },
    {
      "t": 1478.8,
      "ch": 1,
      "note": 36,
      "vel": 97,
      "dur": 25
    },
    {
      "t": 1478.8,
      "ch": 1,
      "note": 38,
      "vel": 71,
      "dur": 25
    },
    {
      "t": 1478.8,
      "ch": 1,
      "note": 40,
      "vel": 80,
      "dur": 25
    },
    {
      "t": 1478.8,
      "ch": 1,
      "note": 42,
      "vel": 89,
      "dur": 25
    },
    {
      "t": 1478.8,
      "ch": 1,
      "note": 36,
      "vel": 84,
      "dur": 25
    },
    {
      "t": 1478.8,
      "ch": 1,
      "note": 38,
      "vel": 74,
      "dur": 25
    },
    {
      "t": 1478.8,
      "ch": 1,
      "note": 40,
      "vel": 96,
      "dur": 25
    },
    {
      "t": 1478.8,
      "ch": 1,
      "note": 42,
      "vel": 76,
      "dur": 25
    },
    {
      "t": 1478.8,
      "ch": 1,
      "note": 36,
      "vel": 86,
      "dur": 25
    },
    {
      "t": 1478.8,
      "ch": 1,
      "note": 38,
      "vel": 101,
      "dur": 25
    },
    {
      "t": 1478.8,
      "ch": 1,
      "note": 40,
      "vel": 111,
      "dur": 25
    },
    {
      "t": 1478.8,
      "ch": 1,
      "note": 42,
      "vel": 82,
      "dur": 25
    },
    {
      "t": 1478.8,
      "ch": 1,
      "note": 36,
      "vel": 82,
      "dur": 25
    },
    {
      "t": 1478.8,
      "ch": 1,
      "note": 38,
      "vel": 96,
      "dur": 25
    },
    {
      "t": 1478.8,
      "ch": 1,
      "note": 40,
      "vel": 99,
      "dur": 25
    },
    {
      "t": 1478.8,
      "ch": 1,
      "note": 42,
      "vel": 104,
      "dur": 25
    },
    {
      "t": 1478.8,
      "ch": 1,
      "note": 36,
      "vel": 84,
      "dur": 25
    },
    {
      "t": 1478.8,
      "ch": 1,
      "note": 38,
      "vel": 83,
      "dur": 25
    },
    {
      "t": 1478.8,
      "ch": 1,
      "note": 40,
      "vel": 79,
      "dur": 25
    },
    {
      "t": 1478.8,
      "ch": 1,
      "note": 42,
      "vel": 97,
      "dur": 25
    },
    {
      "t": 1478.8,
      "ch": 1,
      "note": 36,
      "vel": 75,
      "dur": 25
    },
    {
      "t": 1478.8,
      "ch": 1,
      "note": 38,
      "vel": 105,
      "dur": 25
    },
    {
      "t": 1478.8,
      "ch": 1,
      "note": 40,
      "vel": 87,
      "dur": 25
    },
    {
      "t": 1478.8,
      "ch": 1,
      "note": 42,
      "vel": 95,
      "dur": 25
    },
    {
      "t": 1478.8,
      "ch": 1,
      "note": 36,
      "vel": 94,
      "dur": 25
    },
    {
      "t": 1478.8,
      "ch": 1,
      "note": 38,
      "vel": 95,
      "dur": 25
    },
    {
      "t": 1478.8,
      "ch": 1,
      "note": 40,
      "vel": 96,
      "dur": 25
    },
    {
      "t": 1478.8,
      "ch": 1,
      "note": 42,
      "vel": 78,
      "dur": 25
    },
    {
      "t": 1478.8,
      "ch": 1,
      "note": 36,
      "vel": 78,
      "dur": 25
    },
    {
      "t": 1478.8,
      "ch": 1,
      "note": 38,
      "vel": 97,
      "dur": 25
    },
    {
      "t": 1478.8,
      "ch": 1,
      "note": 40,
      "vel": 90,
      "dur": 25
    },
    {
      "t": 1478.8,
      "ch": 1,
      "note": 42,
      "vel": 64,
      "dur": 25
    },
    {
      "t": 1478.8,
      "ch": 1,
      "note": 36,
      "vel": 92,
      "dur": 25
    },
    {
      "t": 1478.8,
      "ch": 1,
      "note": 38,
      "vel": 94,
      "dur": 25
    },
    {
      "t": 1478.8,
      "ch": 1,
      "note": 40,
      "vel": 92,
      "dur": 25
    },
    {
      "t": 1478.8,
      "ch": 1,
      "note": 42,
      "vel": 100,
      "dur": 25
    },
    {
      "t": 1478.8,
      "ch": 1,
      "note": 36,
      "vel": 100,
      "dur": 25
    },
    {
      "t": 1478.8,
      "ch": 1,
      "note": 38,
      "vel": 85,
      "dur": 25
    },
    {
      "t": 1478.8,
      "ch": 1,
      "note": 40,
      "vel": 64,
      "dur": 25
    },
    {
      "t": 1478.8,
      "ch": 1,
      "note": 42,
      "vel": 105,
      "dur": 25
    },
    {
      "t": 1478.8,
      "ch": 1,
      "note": 36,
      "vel": 87,
      "dur": 25
    },
    {
      "t": 1478.8,
      "ch": 1,
      "note": 38,
      "vel": 74,
      "dur": 25
    },
    {
      "t": 1478.8,
      "ch": 1,
      "note": 40,
      "vel": 101,
      "dur": 25
    },
    {
      "t": 1478.8,
      "ch": 1,
      "note": 42,
      "vel": 84,
      "dur": 25
    },
    {
      "t": 1478.8,
      "ch": 1,
      "note": 36,
      "vel": 111,
      "dur": 25
    },
    {
      "t": 1478.8,
      "ch": 1,
      "note": 38,
      "vel": 108,
      "dur": 25
    },
    {
      "t": 1478.8,
      "ch": 1,
      "note": 40,
      "vel": 106,
      "dur": 25
    },
    {
      "t": 1478.8,
      "ch": 1,
      "note": 42,
      "vel": 90,
      "dur": 25
    },
    {
      "t": 1478.8,
      "ch": 1,
      "note": 36,
      "vel": 75,
      "dur": 25
    },
    {
      "t": 1478.8,
      "ch": 1,
      "note": 38,
      "vel": 105,
      "dur": 25
    },
    {
      "t": 1478.8,
      "ch": 1,
      "note": 40,
      "vel": 77,
      "dur": 25
    },
    {
      "t": 1478.8,
      "ch": 1,
      "note": 42,
      "vel": 83,
      "dur": 25
    },
    {
      "t": 1478.8,
      "ch": 1,
      "note": 36,
      "vel": 108,
      "dur": 25
    },
    {
      "t": 1478.8,
      "ch": 1,
      "note": 38,
      "vel": 109,
      "dur": 25
    },
    {
      "t": 1478.8,
      "ch": 1,
      "note": 40,
      "vel": 87,
      "dur": 25
    },
    {
      "t": 1478.8,
      "ch": 1,
      "note": 42,
      "vel": 96,
      "dur": 25
    },
    {
      "t": 1478.8,
      "ch": 1,
      "note": 36,
      "vel": 99,
      "dur": 25
    },
    {
      "t": 1478.8,
      "ch": 1,
      "note": 38,
      "vel": 111,
      "dur": 25
    },
    {
      "t": 1478.8,
      "ch": 1,
      "note": 40,
      "vel": 94,
      "dur": 25
    },
    {
      "t": 1478.8,
      "ch": 1,
      "note": 42,
      "vel": 90,
      "dur": 25
    },
    {
      "t": 1478.8,
      "ch": 1,
      "note": 36,
      "vel": 102,
      "dur": 25
    },
    {
      "t": 1478.8,
      "ch": 1,
      "note": 38,
      "vel": 76,
      "dur": 25
    },
    {
      "t": 1478.8,
      "ch": 1,
      "note": 40,
      "vel": 88,
      "dur": 25
    },
    {
      "t": 1478.8,
      "ch": 1,
      "note": 42,
      "vel": 92,
      "dur": 25
    },
    {
      "t": 1478.8,
      "ch": 1,
      "note": 36,
      "vel": 83,
      "dur": 25
    },
    {
      "t": 1478.8,
      "ch": 1,
      "note": 38,
      "vel": 90,
      "dur": 25
    },
    {
      "t": 1478.8,
      "ch": 1,
      "note": 40,
      "vel": 93,
      "dur": 25
    },
    {
      "t": 1478.8,
      "ch": 1,
      "note": 42,
      "vel": 85,
      "dur": 25
    },
    {
      "t": 1478.8,
      "ch": 1,
      "note": 36,
      "vel": 96,
      "dur": 25
    },
    {
      "t": 1478.8,
      "ch": 1,
      "note": 38,
      "vel": 79,
      "dur": 25
    },
    {
      "t": 1478.8,
      "ch": 1,
      "note": 40,
      "vel": 86,
      "dur": 25
    },
    {
      "t": 1478.9,
      "ch": 4,
      "note": 59,
      "vel": 63,
      "dur": 2350
    },
    {
      "t": 1478.9,
      "ch": 3,
      "note": 40,
      "vel": 66,
      "dur": 2400
    },
    {
      "t": 1478.9,
      "ch": 1,
      "note": 42,
      "vel": 99,
      "dur": 25
    },
    {
      "t": 1479,
      "ch": 0,
      "note": 36,
      "vel": 85,
      "dur": 55
    },
    {
      "t": 1479,
      "ch": 1,
      "note": 36,
      "vel": 120,
      "dur": 25
    },
    {
      "t": 1479,
      "ch": 7,
      "note": 48,
      "vel": 72,
      "dur": 80
    },
    {
      "t": 1479,
      "ch": 7,
      "note": 36,
      "vel": 81,
      "dur": 80
    },
    {
      "t": 1479.1,
      "ch": 1,
      "note": 38,
      "vel": 109,
      "dur": 25
    },
    {
      "t": 1479.1,
      "ch": 1,
      "note": 40,
      "vel": 90,
      "dur": 25
    },
    {
      "t": 1479.2,
      "ch": 6,
      "note": 68,
      "vel": 37,
      "dur": 568
    },
    {
      "t": 1479.2,
      "ch": 1,
      "note": 42,
      "vel": 108,
      "dur": 25
    },
    {
      "t": 1479.3,
      "ch": 1,
      "note": 36,
      "vel": 78,
      "dur": 25
    },
    {
      "t": 1479.3,
      "ch": 7,
      "note": 36,
      "vel": 58,
      "dur": 80
    },
    {
      "t": 1479.3,
      "ch": 7,
      "note": 45,
      "vel": 67,
      "dur": 80
    },
    {
      "t": 1479.3,
      "ch": 7,
      "note": 38,
      "vel": 72,
      "dur": 80
    },
    {
      "t": 1479.3,
      "ch": 6,
      "note": 66,
      "vel": 24,
      "dur": 568
    },
    {
      "t": 1479.4,
      "ch": 1,
      "note": 38,
      "vel": 70,
      "dur": 25
    },
    {
      "t": 1479.4,
      "ch": 1,
      "note": 40,
      "vel": 116,
      "dur": 25
    },
    {
      "t": 1479.5,
      "ch": 1,
      "note": 42,
      "vel": 94,
      "dur": 25
    },
    {
      "t": 1479.6,
      "ch": 0,
      "note": 36,
      "vel": 87,
      "dur": 55
    },
    {
      "t": 1479.6,
      "ch": 1,
      "note": 36,
      "vel": 89,
      "dur": 25
    },
    {
      "t": 1479.6,
      "ch": 7,
      "note": 48,
      "vel": 75,
      "dur": 80
    },
    {
      "t": 1479.6,
      "ch": 7,
      "note": 36,
      "vel": 80,
      "dur": 80
    },
    {
      "t": 1479.6,
      "ch": 6,
      "note": 66,
      "vel": 26,
      "dur": 566
    },
    {
      "t": 1479.7,
      "ch": 1,
      "note": 38,
      "vel": 122,
      "dur": 25
    },
    {
      "t": 1479.7,
      "ch": 1,
      "note": 40,
      "vel": 79,
      "dur": 25
    },
    {
      "t": 1479.8,
      "ch": 1,
      "note": 42,
      "vel": 84,
      "dur": 25
    },
    {
      "t": 1479.9,
      "ch": 1,
      "note": 36,
      "vel": 87,
      "dur": 25
    },
    {
      "t": 1480,
      "ch": 1,
      "note": 38,
      "vel": 73,
      "dur": 25
    },
    {
      "t": 1480,
      "ch": 1,
      "note": 40,
      "vel": 101,
      "dur": 25
    },
    {
      "t": 1480.1,
      "ch": 1,
      "note": 42,
      "vel": 81,
      "dur": 25
    },
    {
      "t": 1480.2,
      "ch": 0,
      "note": 36,
      "vel": 107,
      "dur": 55
    },
    {
      "t": 1480.2,
      "ch": 1,
      "note": 36,
      "vel": 119,
      "dur": 25
    },
    {
      "t": 1480.2,
      "ch": 7,
      "note": 48,
      "vel": 65,
      "dur": 80
    },
    {
      "t": 1480.2,
      "ch": 7,
      "note": 45,
      "vel": 80,
      "dur": 80
    },
    {
      "t": 1480.2,
      "ch": 7,
      "note": 36,
      "vel": 72,
      "dur": 80
    },
    {
      "t": 1480.2,
      "ch": 7,
      "note": 38,
      "vel": 74,
      "dur": 80
    },
    {
      "t": 1480.2,
      "ch": 5,
      "note": 68,
      "vel": 23,
      "dur": 845
    },
    {
      "t": 1480.3,
      "ch": 1,
      "note": 38,
      "vel": 127,
      "dur": 25
    },
    {
      "t": 1480.3,
      "ch": 1,
      "note": 40,
      "vel": 95,
      "dur": 25
    },
    {
      "t": 1480.4,
      "ch": 1,
      "note": 42,
      "vel": 102,
      "dur": 25
    },
    {
      "t": 1480.5,
      "ch": 1,
      "note": 36,
      "vel": 81,
      "dur": 25
    },
    {
      "t": 1480.5,
      "ch": 7,
      "note": 36,
      "vel": 68,
      "dur": 80
    },
    {
      "t": 1480.6,
      "ch": 1,
      "note": 38,
      "vel": 102,
      "dur": 25
    },
    {
      "t": 1480.6,
      "ch": 1,
      "note": 40,
      "vel": 91,
      "dur": 25
    },
    {
      "t": 1480.7,
      "ch": 1,
      "note": 42,
      "vel": 84,
      "dur": 25
    },
    {
      "t": 1480.8,
      "ch": 0,
      "note": 36,
      "vel": 90,
      "dur": 55
    },
    {
      "t": 1480.8,
      "ch": 1,
      "note": 36,
      "vel": 97,
      "dur": 25
    },
    {
      "t": 1480.8,
      "ch": 7,
      "note": 48,
      "vel": 69,
      "dur": 80
    },
    {
      "t": 1480.8,
      "ch": 7,
      "note": 36,
      "vel": 60,
      "dur": 80
    },
    {
      "t": 1480.9,
      "ch": 1,
      "note": 38,
      "vel": 108,
      "dur": 25
    },
    {
      "t": 1480.9,
      "ch": 1,
      "note": 40,
      "vel": 107,
      "dur": 25
    },
    {
      "t": 1481,
      "ch": 7,
      "note": 45,
      "vel": 68,
      "dur": 80
    },
    {
      "t": 1481,
      "ch": 7,
      "note": 38,
      "vel": 60,
      "dur": 80
    },
    {
      "t": 1481,
      "ch": 1,
      "note": 42,
      "vel": 103,
      "dur": 25
    },
    {
      "t": 1481.1,
      "ch": 1,
      "note": 36,
      "vel": 107,
      "dur": 25
    },
    {
      "t": 1481.2,
      "ch": 1,
      "note": 38,
      "vel": 95,
      "dur": 25
    },
    {
      "t": 1481.2,
      "ch": 1,
      "note": 40,
      "vel": 124,
      "dur": 25
    },
    {
      "t": 1481.3,
      "ch": 1,
      "note": 42,
      "vel": 106,
      "dur": 25
    },
    {
      "t": 1481.4,
      "ch": 0,
      "note": 36,
      "vel": 97,
      "dur": 55
    },
    {
      "t": 1481.4,
      "ch": 1,
      "note": 36,
      "vel": 102,
      "dur": 25
    },
    {
      "t": 1481.4,
      "ch": 7,
      "note": 48,
      "vel": 71,
      "dur": 80
    },
    {
      "t": 1481.4,
      "ch": 7,
      "note": 36,
      "vel": 61,
      "dur": 80
    },
    {
      "t": 1481.5,
      "ch": 1,
      "note": 38,
      "vel": 125,
      "dur": 25
    },
    {
      "t": 1481.5,
      "ch": 1,
      "note": 40,
      "vel": 126,
      "dur": 25
    },
    {
      "t": 1481.6,
      "ch": 1,
      "note": 42,
      "vel": 87,
      "dur": 25
    },
    {
      "t": 1481.7,
      "ch": 1,
      "note": 36,
      "vel": 95,
      "dur": 25
    },
    {
      "t": 1481.7,
      "ch": 7,
      "note": 38,
      "vel": 61,
      "dur": 80
    },
    {
      "t": 1481.7,
      "ch": 7,
      "note": 45,
      "vel": 65,
      "dur": 80
    },
    {
      "t": 1481.7,
      "ch": 7,
      "note": 36,
      "vel": 63,
      "dur": 80
    },
    {
      "t": 1481.8,
      "ch": 1,
      "note": 38,
      "vel": 106,
      "dur": 25
    },
    {
      "t": 1481.8,
      "ch": 1,
      "note": 40,
      "vel": 94,
      "dur": 25
    },
    {
      "t": 1481.9,
      "ch": 1,
      "note": 42,
      "vel": 81,
      "dur": 25
    },
    {
      "t": 1482,
      "ch": 0,
      "note": 36,
      "vel": 89,
      "dur": 55
    },
    {
      "t": 1482,
      "ch": 1,
      "note": 36,
      "vel": 127,
      "dur": 25
    },
    {
      "t": 1482,
      "ch": 7,
      "note": 48,
      "vel": 69,
      "dur": 80
    },
    {
      "t": 1482,
      "ch": 7,
      "note": 36,
      "vel": 62,
      "dur": 80
    },
    {
      "t": 1482.1,
      "ch": 1,
      "note": 38,
      "vel": 127,
      "dur": 25
    },
    {
      "t": 1482.1,
      "ch": 1,
      "note": 40,
      "vel": 75,
      "dur": 25
    },
    {
      "t": 1482.2,
      "ch": 5,
      "note": 71,
      "vel": 42,
      "dur": 832
    },
    {
      "t": 1482.2,
      "ch": 1,
      "note": 42,
      "vel": 95,
      "dur": 25
    },
    {
      "t": 1482.3,
      "ch": 1,
      "note": 36,
      "vel": 95,
      "dur": 25
    },
    {
      "t": 1482.4,
      "ch": 1,
      "note": 38,
      "vel": 123,
      "dur": 25
    },
    {
      "t": 1482.4,
      "ch": 6,
      "note": 73,
      "vel": 39,
      "dur": 400
    },
    {
      "t": 1482.4,
      "ch": 1,
      "note": 40,
      "vel": 108,
      "dur": 25
    },
    {
      "t": 1482.5,
      "ch": 6,
      "note": 64,
      "vel": 42,
      "dur": 554
    },
    {
      "t": 1482.5,
      "ch": 1,
      "note": 42,
      "vel": 92,
      "dur": 25
    },
    {
      "t": 1482.6,
      "ch": 0,
      "note": 36,
      "vel": 121,
      "dur": 55
    },
    {
      "t": 1482.6,
      "ch": 1,
      "note": 36,
      "vel": 108,
      "dur": 25
    },
    {
      "t": 1482.6,
      "ch": 7,
      "note": 48,
      "vel": 68,
      "dur": 80
    },
    {
      "t": 1482.6,
      "ch": 7,
      "note": 45,
      "vel": 64,
      "dur": 80
    },
    {
      "t": 1482.6,
      "ch": 7,
      "note": 36,
      "vel": 67,
      "dur": 80
    },
    {
      "t": 1482.6,
      "ch": 7,
      "note": 38,
      "vel": 79,
      "dur": 80
    },
    {
      "t": 1482.7,
      "ch": 1,
      "note": 38,
      "vel": 117,
      "dur": 25
    },
    {
      "t": 1482.8,
      "ch": 1,
      "note": 40,
      "vel": 125,
      "dur": 25
    },
    {
      "t": 1482.8,
      "ch": 5,
      "note": 64,
      "vel": 22,
      "dur": 829
    },
    {
      "t": 1482.8,
      "ch": 1,
      "note": 42,
      "vel": 112,
      "dur": 25
    },
    {
      "t": 1482.9,
      "ch": 1,
      "note": 36,
      "vel": 110,
      "dur": 25
    },
    {
      "t": 1482.9,
      "ch": 7,
      "note": 36,
      "vel": 58,
      "dur": 80
    },
    {
      "t": 1483,
      "ch": 1,
      "note": 38,
      "vel": 94,
      "dur": 25
    },
    {
      "t": 1483,
      "ch": 1,
      "note": 40,
      "vel": 84,
      "dur": 25
    },
    {
      "t": 1483.1,
      "ch": 1,
      "note": 42,
      "vel": 86,
      "dur": 25
    },
    {
      "t": 1483.2,
      "ch": 0,
      "note": 36,
      "vel": 91,
      "dur": 55
    },
    {
      "t": 1483.2,
      "ch": 1,
      "note": 36,
      "vel": 107,
      "dur": 25
    },
    {
      "t": 1483.2,
      "ch": 7,
      "note": 48,
      "vel": 69,
      "dur": 80
    },
    {
      "t": 1483.2,
      "ch": 7,
      "note": 36,
      "vel": 79,
      "dur": 80
    },
    {
      "t": 1483.2,
      "ch": 6,
      "note": 66,
      "vel": 50,
      "dur": 551
    },
    {
      "t": 1483.3,
      "ch": 1,
      "note": 38,
      "vel": 110,
      "dur": 25
    },
    {
      "t": 1483.3,
      "ch": 1,
      "note": 40,
      "vel": 88,
      "dur": 25
    },
    {
      "t": 1483.4,
      "ch": 7,
      "note": 45,
      "vel": 72,
      "dur": 80
    },
    {
      "t": 1483.4,
      "ch": 7,
      "note": 38,
      "vel": 62,
      "dur": 80
    },
    {
      "t": 1483.4,
      "ch": 1,
      "note": 42,
      "vel": 95,
      "dur": 25
    },
    {
      "t": 1483.5,
      "ch": 1,
      "note": 36,
      "vel": 109,
      "dur": 25
    },
    {
      "t": 1483.6,
      "ch": 1,
      "note": 38,
      "vel": 89,
      "dur": 25
    },
    {
      "t": 1483.6,
      "ch": 1,
      "note": 40,
      "vel": 106,
      "dur": 25
    },
    {
      "t": 1483.7,
      "ch": 2,
      "note": 49,
      "vel": 61,
      "dur": 18000
    },
    {
      "t": 1483.7,
      "ch": 1,
      "note": 42,
      "vel": 93,
      "dur": 25
    },
    {
      "t": 1483.8,
      "ch": 0,
      "note": 36,
      "vel": 95,
      "dur": 55
    },
    {
      "t": 1483.8,
      "ch": 1,
      "note": 36,
      "vel": 118,
      "dur": 25
    },
    {
      "t": 1483.8,
      "ch": 7,
      "note": 48,
      "vel": 68,
      "dur": 80
    },
    {
      "t": 1483.8,
      "ch": 7,
      "note": 36,
      "vel": 75,
      "dur": 80
    },
    {
      "t": 1483.9,
      "ch": 1,
      "note": 38,
      "vel": 88,
      "dur": 25
    },
    {
      "t": 1483.9,
      "ch": 1,
      "note": 40,
      "vel": 90,
      "dur": 25
    },
    {
      "t": 1484,
      "ch": 1,
      "note": 42,
      "vel": 118,
      "dur": 25
    },
    {
      "t": 1484.1,
      "ch": 1,
      "note": 36,
      "vel": 93,
      "dur": 25
    },
    {
      "t": 1484.1,
      "ch": 7,
      "note": 36,
      "vel": 61,
      "dur": 80
    },
    {
      "t": 1484.1,
      "ch": 7,
      "note": 45,
      "vel": 66,
      "dur": 80
    },
    {
      "t": 1484.1,
      "ch": 7,
      "note": 38,
      "vel": 54,
      "dur": 80
    },
    {
      "t": 1484.1,
      "ch": 5,
      "note": 63,
      "vel": 37,
      "dur": 824
    },
    {
      "t": 1484.2,
      "ch": 1,
      "note": 38,
      "vel": 104,
      "dur": 25
    },
    {
      "t": 1484.2,
      "ch": 1,
      "note": 40,
      "vel": 95,
      "dur": 25
    },
    {
      "t": 1484.3,
      "ch": 1,
      "note": 42,
      "vel": 110,
      "dur": 25
    },
    {
      "t": 1484.3,
      "ch": 6,
      "note": 66,
      "vel": 24,
      "dur": 400
    },
    {
      "t": 1484.4,
      "ch": 0,
      "note": 36,
      "vel": 97,
      "dur": 55
    },
    {
      "t": 1484.4,
      "ch": 1,
      "note": 36,
      "vel": 112,
      "dur": 25
    },
    {
      "t": 1484.4,
      "ch": 7,
      "note": 48,
      "vel": 68,
      "dur": 80
    },
    {
      "t": 1484.4,
      "ch": 7,
      "note": 36,
      "vel": 75,
      "dur": 80
    },
    {
      "t": 1484.4,
      "ch": 6,
      "note": 66,
      "vel": 44,
      "dur": 549
    },
    {
      "t": 1484.5,
      "ch": 1,
      "note": 38,
      "vel": 109,
      "dur": 25
    },
    {
      "t": 1484.5,
      "ch": 1,
      "note": 40,
      "vel": 105,
      "dur": 25
    },
    {
      "t": 1484.6,
      "ch": 1,
      "note": 42,
      "vel": 87,
      "dur": 25
    },
    {
      "t": 1484.7,
      "ch": 1,
      "note": 36,
      "vel": 99,
      "dur": 25
    },
    {
      "t": 1484.8,
      "ch": 1,
      "note": 38,
      "vel": 98,
      "dur": 25
    },
    {
      "t": 1484.8,
      "ch": 1,
      "note": 40,
      "vel": 98,
      "dur": 25
    },
    {
      "t": 1484.9,
      "ch": 1,
      "note": 42,
      "vel": 92,
      "dur": 25
    },
    {
      "t": 1485,
      "ch": 0,
      "note": 36,
      "vel": 114,
      "dur": 55
    },
    {
      "t": 1485,
      "ch": 1,
      "note": 36,
      "vel": 123,
      "dur": 25
    },
    {
      "t": 1485,
      "ch": 7,
      "note": 48,
      "vel": 81,
      "dur": 80
    },
    {
      "t": 1485,
      "ch": 7,
      "note": 45,
      "vel": 68,
      "dur": 80
    },
    {
      "t": 1485,
      "ch": 7,
      "note": 36,
      "vel": 72,
      "dur": 80
    },
    {
      "t": 1485,
      "ch": 7,
      "note": 38,
      "vel": 66,
      "dur": 80
    },
    {
      "t": 1485.1,
      "ch": 1,
      "note": 38,
      "vel": 127,
      "dur": 25
    },
    {
      "t": 1485.1,
      "ch": 1,
      "note": 40,
      "vel": 69,
      "dur": 25
    },
    {
      "t": 1485.2,
      "ch": 1,
      "note": 42,
      "vel": 89,
      "dur": 25
    },
    {
      "t": 1485.3,
      "ch": 1,
      "note": 36,
      "vel": 114,
      "dur": 25
    },
    {
      "t": 1485.3,
      "ch": 7,
      "note": 36,
      "vel": 50,
      "dur": 80
    },
    {
      "t": 1485.3,
      "ch": 6,
      "note": 71,
      "vel": 29,
      "dur": 548
    },
    {
      "t": 1485.4,
      "ch": 1,
      "note": 38,
      "vel": 111,
      "dur": 25
    },
    {
      "t": 1485.4,
      "ch": 1,
      "note": 40,
      "vel": 86,
      "dur": 25
    },
    {
      "t": 1485.5,
      "ch": 1,
      "note": 42,
      "vel": 92,
      "dur": 25
    },
    {
      "t": 1485.6,
      "ch": 0,
      "note": 36,
      "vel": 87,
      "dur": 55
    },
    {
      "t": 1485.6,
      "ch": 1,
      "note": 36,
      "vel": 122,
      "dur": 25
    },
    {
      "t": 1485.6,
      "ch": 7,
      "note": 48,
      "vel": 65,
      "dur": 80
    },
    {
      "t": 1485.6,
      "ch": 7,
      "note": 36,
      "vel": 61,
      "dur": 80
    },
    {
      "t": 1485.7,
      "ch": 1,
      "note": 38,
      "vel": 119,
      "dur": 25
    },
    {
      "t": 1485.7,
      "ch": 1,
      "note": 40,
      "vel": 91,
      "dur": 25
    },
    {
      "t": 1485.8,
      "ch": 7,
      "note": 45,
      "vel": 53,
      "dur": 80
    },
    {
      "t": 1485.8,
      "ch": 7,
      "note": 38,
      "vel": 54,
      "dur": 80
    },
    {
      "t": 1485.8,
      "ch": 6,
      "note": 66,
      "vel": 37,
      "dur": 548
    },
    {
      "t": 1485.8,
      "ch": 1,
      "note": 42,
      "vel": 111,
      "dur": 25
    },
    {
      "t": 1485.9,
      "ch": 1,
      "note": 36,
      "vel": 99,
      "dur": 25
    },
    {
      "t": 1485.9,
      "ch": 6,
      "note": 73,
      "vel": 51,
      "dur": 548
    },
    {
      "t": 1486,
      "ch": 1,
      "note": 38,
      "vel": 80,
      "dur": 25
    },
    {
      "t": 1486,
      "ch": 1,
      "note": 40,
      "vel": 86,
      "dur": 25
    },
    {
      "t": 1486.1,
      "ch": 5,
      "note": 61,
      "vel": 38,
      "dur": 822
    },
    {
      "t": 1486.1,
      "ch": 1,
      "note": 42,
      "vel": 97,
      "dur": 25
    },
    {
      "t": 1486.2,
      "ch": 0,
      "note": 36,
      "vel": 87,
      "dur": 55
    },
    {
      "t": 1486.2,
      "ch": 1,
      "note": 36,
      "vel": 114,
      "dur": 25
    },
    {
      "t": 1486.2,
      "ch": 7,
      "note": 48,
      "vel": 67,
      "dur": 80
    },
    {
      "t": 1486.2,
      "ch": 7,
      "note": 36,
      "vel": 69,
      "dur": 80
    },
    {
      "t": 1486.2,
      "ch": 5,
      "note": 63,
      "vel": 51,
      "dur": 822
    },
    {
      "t": 1486.3,
      "ch": 1,
      "note": 38,
      "vel": 106,
      "dur": 25
    },
    {
      "t": 1486.4,
      "ch": 1,
      "note": 40,
      "vel": 91,
      "dur": 25
    },
    {
      "t": 1486.4,
      "ch": 5,
      "note": 68,
      "vel": 35,
      "dur": 822
    },
    {
      "t": 1486.4,
      "ch": 1,
      "note": 42,
      "vel": 83,
      "dur": 25
    },
    {
      "t": 1486.5,
      "ch": 1,
      "note": 36,
      "vel": 97,
      "dur": 25
    },
    {
      "t": 1486.5,
      "ch": 7,
      "note": 45,
      "vel": 63,
      "dur": 80
    },
    {
      "t": 1486.5,
      "ch": 7,
      "note": 38,
      "vel": 67,
      "dur": 80
    },
    {
      "t": 1486.5,
      "ch": 7,
      "note": 36,
      "vel": 60,
      "dur": 80
    },
    {
      "t": 1486.6,
      "ch": 1,
      "note": 38,
      "vel": 88,
      "dur": 25
    },
    {
      "t": 1486.6,
      "ch": 1,
      "note": 40,
      "vel": 94,
      "dur": 25
    },
    {
      "t": 1486.7,
      "ch": 5,
      "note": 71,
      "vel": 41,
      "dur": 822
    },
    {
      "t": 1486.7,
      "ch": 6,
      "note": 68,
      "vel": 20,
      "dur": 548
    },
    {
      "t": 1486.7,
      "ch": 6,
      "note": 66,
      "vel": 18,
      "dur": 400
    },
    {
      "t": 1486.7,
      "ch": 1,
      "note": 42,
      "vel": 93,
      "dur": 25
    },
    {
      "t": 1486.8,
      "ch": 0,
      "note": 36,
      "vel": 90,
      "dur": 55
    },
    {
      "t": 1486.8,
      "ch": 1,
      "note": 36,
      "vel": 110,
      "dur": 25
    },
    {
      "t": 1486.8,
      "ch": 7,
      "note": 48,
      "vel": 64,
      "dur": 80
    },
    {
      "t": 1486.8,
      "ch": 7,
      "note": 36,
      "vel": 78,
      "dur": 80
    },
    {
      "t": 1486.9,
      "ch": 1,
      "note": 38,
      "vel": 110,
      "dur": 25
    },
    {
      "t": 1486.9,
      "ch": 1,
      "note": 40,
      "vel": 111,
      "dur": 25
    },
    {
      "t": 1487,
      "ch": 1,
      "note": 42,
      "vel": 114,
      "dur": 25
    },
    {
      "t": 1487.1,
      "ch": 1,
      "note": 36,
      "vel": 109,
      "dur": 25
    },
    {
      "t": 1487.2,
      "ch": 1,
      "note": 38,
      "vel": 111,
      "dur": 25
    },
    {
      "t": 1487.2,
      "ch": 1,
      "note": 40,
      "vel": 93,
      "dur": 25
    },
    {
      "t": 1487.3,
      "ch": 1,
      "note": 42,
      "vel": 97,
      "dur": 25
    },
    {
      "t": 1487.4,
      "ch": 0,
      "note": 36,
      "vel": 114,
      "dur": 55
    },
    {
      "t": 1487.4,
      "ch": 1,
      "note": 36,
      "vel": 104,
      "dur": 25
    },
    {
      "t": 1487.4,
      "ch": 7,
      "note": 48,
      "vel": 73,
      "dur": 80
    },
    {
      "t": 1487.4,
      "ch": 7,
      "note": 45,
      "vel": 79,
      "dur": 80
    },
    {
      "t": 1487.4,
      "ch": 7,
      "note": 36,
      "vel": 63,
      "dur": 80
    },
    {
      "t": 1487.4,
      "ch": 7,
      "note": 38,
      "vel": 67,
      "dur": 80
    },
    {
      "t": 1487.5,
      "ch": 1,
      "note": 38,
      "vel": 127,
      "dur": 25
    },
    {
      "t": 1487.6,
      "ch": 1,
      "note": 40,
      "vel": 82,
      "dur": 25
    },
    {
      "t": 1487.6,
      "ch": 1,
      "note": 42,
      "vel": 97,
      "dur": 25
    },
    {
      "t": 1487.7,
      "ch": 1,
      "note": 36,
      "vel": 86,
      "dur": 25
    },
    {
      "t": 1487.7,
      "ch": 7,
      "note": 36,
      "vel": 61,
      "dur": 80
    },
    {
      "t": 1487.8,
      "ch": 1,
      "note": 38,
      "vel": 86,
      "dur": 25
    },
    {
      "t": 1487.8,
      "ch": 1,
      "note": 40,
      "vel": 109,
      "dur": 25
    },
    {
      "t": 1487.9,
      "ch": 1,
      "note": 42,
      "vel": 96,
      "dur": 25
    },
    {
      "t": 1488,
      "ch": 0,
      "note": 36,
      "vel": 96,
      "dur": 55
    },
    {
      "t": 1488,
      "ch": 1,
      "note": 36,
      "vel": 123,
      "dur": 25
    },
    {
      "t": 1488,
      "ch": 7,
      "note": 48,
      "vel": 72,
      "dur": 80
    },
    {
      "t": 1488,
      "ch": 7,
      "note": 36,
      "vel": 88,
      "dur": 80
    },
    {
      "t": 1488,
      "ch": 5,
      "note": 64,
      "vel": 50,
      "dur": 825
    },
    {
      "t": 1488.1,
      "ch": 1,
      "note": 38,
      "vel": 112,
      "dur": 25
    },
    {
      "t": 1488.2,
      "ch": 1,
      "note": 40,
      "vel": 86,
      "dur": 25
    },
    {
      "t": 1488.2,
      "ch": 7,
      "note": 38,
      "vel": 60,
      "dur": 80
    },
    {
      "t": 1488.2,
      "ch": 7,
      "note": 45,
      "vel": 62,
      "dur": 80
    },
    {
      "t": 1488.2,
      "ch": 1,
      "note": 42,
      "vel": 112,
      "dur": 25
    },
    {
      "t": 1488.3,
      "ch": 1,
      "note": 36,
      "vel": 109,
      "dur": 25
    },
    {
      "t": 1488.3,
      "ch": 6,
      "note": 66,
      "vel": 49,
      "dur": 551
    },
    {
      "t": 1488.4,
      "ch": 1,
      "note": 38,
      "vel": 87,
      "dur": 25
    },
    {
      "t": 1488.4,
      "ch": 1,
      "note": 40,
      "vel": 95,
      "dur": 25
    },
    {
      "t": 1488.5,
      "ch": 1,
      "note": 42,
      "vel": 87,
      "dur": 25
    },
    {
      "t": 1488.6,
      "ch": 0,
      "note": 36,
      "vel": 95,
      "dur": 55
    },
    {
      "t": 1488.6,
      "ch": 1,
      "note": 36,
      "vel": 118,
      "dur": 25
    },
    {
      "t": 1488.6,
      "ch": 7,
      "note": 48,
      "vel": 68,
      "dur": 80
    },
    {
      "t": 1488.6,
      "ch": 7,
      "note": 36,
      "vel": 63,
      "dur": 80
    },
    {
      "t": 1488.7,
      "ch": 1,
      "note": 38,
      "vel": 106,
      "dur": 25
    },
    {
      "t": 1488.7,
      "ch": 1,
      "note": 40,
      "vel": 104,
      "dur": 25
    },
    {
      "t": 1488.8,
      "ch": 6,
      "note": 64,
      "vel": 24,
      "dur": 552
    },
    {
      "t": 1488.8,
      "ch": 1,
      "note": 42,
      "vel": 95,
      "dur": 25
    },
    {
      "t": 1488.9,
      "ch": 1,
      "note": 36,
      "vel": 98,
      "dur": 25
    },
    {
      "t": 1488.9,
      "ch": 7,
      "note": 45,
      "vel": 66,
      "dur": 80
    },
    {
      "t": 1488.9,
      "ch": 7,
      "note": 36,
      "vel": 65,
      "dur": 80
    },
    {
      "t": 1488.9,
      "ch": 7,
      "note": 38,
      "vel": 63,
      "dur": 80
    },
    {
      "t": 1488.9,
      "ch": 6,
      "note": 68,
      "vel": 17,
      "dur": 553
    },
    {
      "t": 1489,
      "ch": 1,
      "note": 38,
      "vel": 91,
      "dur": 25
    },
    {
      "t": 1489,
      "ch": 1,
      "note": 40,
      "vel": 93,
      "dur": 25
    },
    {
      "t": 1489.1,
      "ch": 5,
      "note": 63,
      "vel": 38,
      "dur": 830
    },
    {
      "t": 1489.1,
      "ch": 1,
      "note": 42,
      "vel": 103,
      "dur": 25
    },
    {
      "t": 1489.2,
      "ch": 0,
      "note": 36,
      "vel": 95,
      "dur": 55
    },
    {
      "t": 1489.2,
      "ch": 1,
      "note": 36,
      "vel": 113,
      "dur": 25
    },
    {
      "t": 1489.2,
      "ch": 7,
      "note": 48,
      "vel": 74,
      "dur": 80
    },
    {
      "t": 1489.2,
      "ch": 7,
      "note": 36,
      "vel": 66,
      "dur": 80
    },
    {
      "t": 1489.3,
      "ch": 1,
      "note": 38,
      "vel": 118,
      "dur": 25
    },
    {
      "t": 1489.3,
      "ch": 1,
      "note": 40,
      "vel": 83,
      "dur": 25
    },
    {
      "t": 1489.4,
      "ch": 5,
      "note": 66,
      "vel": 32,
      "dur": 831
    },
    {
      "t": 1489.4,
      "ch": 1,
      "note": 42,
      "vel": 117,
      "dur": 25
    },
    {
      "t": 1489.5,
      "ch": 1,
      "note": 36,
      "vel": 100,
      "dur": 25
    },
    {
      "t": 1489.5,
      "ch": 5,
      "note": 63,
      "vel": 28,
      "dur": 832
    },
    {
      "t": 1489.6,
      "ch": 1,
      "note": 38,
      "vel": 88,
      "dur": 25
    },
    {
      "t": 1489.6,
      "ch": 1,
      "note": 40,
      "vel": 101,
      "dur": 25
    },
    {
      "t": 1489.7,
      "ch": 1,
      "note": 42,
      "vel": 107,
      "dur": 25
    },
    {
      "t": 1489.8,
      "ch": 1,
      "note": 36,
      "vel": 99,
      "dur": 25
    },
    {
      "t": 1489.8,
      "ch": 7,
      "note": 48,
      "vel": 59,
      "dur": 80
    },
    {
      "t": 1489.8,
      "ch": 7,
      "note": 45,
      "vel": 70,
      "dur": 80
    },
    {
      "t": 1489.8,
      "ch": 7,
      "note": 36,
      "vel": 62,
      "dur": 80
    },
    {
      "t": 1489.8,
      "ch": 7,
      "note": 38,
      "vel": 72,
      "dur": 80
    },
    {
      "t": 1489.8,
      "ch": 5,
      "note": 49,
      "vel": 48,
      "dur": 833
    },
    {
      "t": 1489.9,
      "ch": 1,
      "note": 38,
      "vel": 108,
      "dur": 25
    },
    {
      "t": 1489.9,
      "ch": 1,
      "note": 40,
      "vel": 104,
      "dur": 25
    },
    {
      "t": 1490,
      "ch": 1,
      "note": 42,
      "vel": 85,
      "dur": 25
    },
    {
      "t": 1490.1,
      "ch": 1,
      "note": 36,
      "vel": 79,
      "dur": 25
    },
    {
      "t": 1490.1,
      "ch": 7,
      "note": 36,
      "vel": 58,
      "dur": 80
    },
    {
      "t": 1490.1,
      "ch": 6,
      "note": 56,
      "vel": 23,
      "dur": 556
    },
    {
      "t": 1490.2,
      "ch": 1,
      "note": 38,
      "vel": 92,
      "dur": 25
    },
    {
      "t": 1490.2,
      "ch": 6,
      "note": 54,
      "vel": 6,
      "dur": 400
    },
    {
      "t": 1490.2,
      "ch": 1,
      "note": 40,
      "vel": 104,
      "dur": 25
    },
    {
      "t": 1490.3,
      "ch": 1,
      "note": 42,
      "vel": 94,
      "dur": 25
    },
    {
      "t": 1490.4,
      "ch": 1,
      "note": 36,
      "vel": 102,
      "dur": 25
    },
    {
      "t": 1490.4,
      "ch": 7,
      "note": 48,
      "vel": 66,
      "dur": 80
    },
    {
      "t": 1490.4,
      "ch": 7,
      "note": 36,
      "vel": 77,
      "dur": 80
    },
    {
      "t": 1490.4,
      "ch": 6,
      "note": 49,
      "vel": 43,
      "dur": 557
    },
    {
      "t": 1490.5,
      "ch": 1,
      "note": 38,
      "vel": 84,
      "dur": 25
    },
    {
      "t": 1490.6,
      "ch": 1,
      "note": 40,
      "vel": 76,
      "dur": 25
    },
    {
      "t": 1490.6,
      "ch": 7,
      "note": 38,
      "vel": 66,
      "dur": 80
    },
    {
      "t": 1490.6,
      "ch": 7,
      "note": 45,
      "vel": 57,
      "dur": 80
    },
    {
      "t": 1490.6,
      "ch": 1,
      "note": 42,
      "vel": 80,
      "dur": 25
    },
    {
      "t": 1490.7,
      "ch": 1,
      "note": 36,
      "vel": 74,
      "dur": 25
    },
    {
      "t": 1490.7,
      "ch": 6,
      "note": 68,
      "vel": 25,
      "dur": 558
    },
    {
      "t": 1490.8,
      "ch": 1,
      "note": 38,
      "vel": 90,
      "dur": 25
    },
    {
      "t": 1490.9,
      "ch": 1,
      "note": 40,
      "vel": 77,
      "dur": 25
    },
    {
      "t": 1490.9,
      "ch": 4,
      "note": 58,
      "vel": 85,
      "dur": 2350
    },
    {
      "t": 1490.9,
      "ch": 1,
      "note": 42,
      "vel": 98,
      "dur": 25
    },
    {
      "t": 1491,
      "ch": 1,
      "note": 36,
      "vel": 95,
      "dur": 25
    },
    {
      "t": 1491,
      "ch": 7,
      "note": 48,
      "vel": 64,
      "dur": 80
    },
    {
      "t": 1491,
      "ch": 7,
      "note": 36,
      "vel": 60,
      "dur": 80
    },
    {
      "t": 1491,
      "ch": 6,
      "note": 68,
      "vel": 35,
      "dur": 560
    },
    {
      "t": 1491.1,
      "ch": 1,
      "note": 38,
      "vel": 127,
      "dur": 25
    },
    {
      "t": 1491.1,
      "ch": 1,
      "note": 40,
      "vel": 99,
      "dur": 25
    },
    {
      "t": 1491.2,
      "ch": 1,
      "note": 42,
      "vel": 101,
      "dur": 25
    },
    {
      "t": 1491.3,
      "ch": 1,
      "note": 36,
      "vel": 98,
      "dur": 25
    },
    {
      "t": 1491.3,
      "ch": 7,
      "note": 38,
      "vel": 63,
      "dur": 80
    },
    {
      "t": 1491.3,
      "ch": 7,
      "note": 36,
      "vel": 66,
      "dur": 80
    },
    {
      "t": 1491.3,
      "ch": 7,
      "note": 45,
      "vel": 62,
      "dur": 80
    },
    {
      "t": 1491.4,
      "ch": 1,
      "note": 38,
      "vel": 84,
      "dur": 25
    },
    {
      "t": 1491.5,
      "ch": 1,
      "note": 40,
      "vel": 82,
      "dur": 25
    },
    {
      "t": 1491.5,
      "ch": 5,
      "note": 58,
      "vel": 51,
      "dur": 842
    },
    {
      "t": 1491.5,
      "ch": 1,
      "note": 42,
      "vel": 99,
      "dur": 25
    },
    {
      "t": 1491.6,
      "ch": 1,
      "note": 36,
      "vel": 108,
      "dur": 25
    },
    {
      "t": 1491.6,
      "ch": 7,
      "note": 48,
      "vel": 69,
      "dur": 80
    },
    {
      "t": 1491.6,
      "ch": 7,
      "note": 36,
      "vel": 68,
      "dur": 80
    },
    {
      "t": 1491.6,
      "ch": 5,
      "note": 49,
      "vel": 65,
      "dur": 842
    },
    {
      "t": 1491.7,
      "ch": 1,
      "note": 38,
      "vel": 99,
      "dur": 25
    },
    {
      "t": 1491.8,
      "ch": 1,
      "note": 40,
      "vel": 77,
      "dur": 25
    },
    {
      "t": 1491.8,
      "ch": 5,
      "note": 37,
      "vel": 43,
      "dur": 843
    },
    {
      "t": 1491.8,
      "ch": 1,
      "note": 42,
      "vel": 104,
      "dur": 25
    },
    {
      "t": 1491.9,
      "ch": 1,
      "note": 36,
      "vel": 97,
      "dur": 25
    },
    {
      "t": 1492,
      "ch": 1,
      "note": 38,
      "vel": 96,
      "dur": 25
    },
    {
      "t": 1492,
      "ch": 1,
      "note": 40,
      "vel": 90,
      "dur": 25
    },
    {
      "t": 1492.1,
      "ch": 5,
      "note": 66,
      "vel": 32,
      "dur": 845
    },
    {
      "t": 1492.1,
      "ch": 1,
      "note": 42,
      "vel": 86,
      "dur": 25
    },
    {
      "t": 1492.2,
      "ch": 1,
      "note": 36,
      "vel": 106,
      "dur": 25
    },
    {
      "t": 1492.2,
      "ch": 7,
      "note": 48,
      "vel": 67,
      "dur": 80
    },
    {
      "t": 1492.2,
      "ch": 7,
      "note": 45,
      "vel": 62,
      "dur": 80
    },
    {
      "t": 1492.2,
      "ch": 7,
      "note": 36,
      "vel": 60,
      "dur": 80
    },
    {
      "t": 1492.2,
      "ch": 7,
      "note": 38,
      "vel": 79,
      "dur": 80
    },
    {
      "t": 1492.2,
      "ch": 6,
      "note": 52,
      "vel": 49,
      "dur": 564
    },
    {
      "t": 1492.2,
      "ch": 5,
      "note": 63,
      "vel": 34,
      "dur": 846
    },
    {
      "t": 1492.3,
      "ch": 1,
      "note": 38,
      "vel": 113,
      "dur": 25
    },
    {
      "t": 1492.3,
      "ch": 1,
      "note": 40,
      "vel": 95,
      "dur": 25
    },
    {
      "t": 1492.4,
      "ch": 1,
      "note": 42,
      "vel": 101,
      "dur": 25
    },
    {
      "t": 1492.5,
      "ch": 1,
      "note": 36,
      "vel": 66,
      "dur": 25
    },
    {
      "t": 1492.6,
      "ch": 7,
      "note": 36,
      "vel": 62,
      "dur": 80
    },
    {
      "t": 1492.6,
      "ch": 5,
      "note": 49,
      "vel": 41,
      "dur": 847
    },
    {
      "t": 1492.6,
      "ch": 1,
      "note": 38,
      "vel": 101,
      "dur": 25
    },
    {
      "t": 1492.6,
      "ch": 1,
      "note": 40,
      "vel": 107,
      "dur": 25
    },
    {
      "t": 1492.7,
      "ch": 1,
      "note": 42,
      "vel": 84,
      "dur": 25
    },
    {
      "t": 1492.8,
      "ch": 1,
      "note": 36,
      "vel": 112,
      "dur": 25
    },
    {
      "t": 1492.8,
      "ch": 7,
      "note": 48,
      "vel": 64,
      "dur": 80
    },
    {
      "t": 1492.8,
      "ch": 7,
      "note": 36,
      "vel": 74,
      "dur": 80
    },
    {
      "t": 1492.9,
      "ch": 1,
      "note": 38,
      "vel": 99,
      "dur": 25
    },
    {
      "t": 1493,
      "ch": 1,
      "note": 40,
      "vel": 87,
      "dur": 25
    },
    {
      "t": 1493,
      "ch": 6,
      "note": 56,
      "vel": 4,
      "dur": 400
    },
    {
      "t": 1493,
      "ch": 7,
      "note": 45,
      "vel": 63,
      "dur": 80
    },
    {
      "t": 1493,
      "ch": 7,
      "note": 38,
      "vel": 62,
      "dur": 80
    },
    {
      "t": 1493,
      "ch": 1,
      "note": 42,
      "vel": 89,
      "dur": 25
    },
    {
      "t": 1493.1,
      "ch": 1,
      "note": 36,
      "vel": 84,
      "dur": 25
    },
    {
      "t": 1493.2,
      "ch": 1,
      "note": 38,
      "vel": 98,
      "dur": 25
    },
    {
      "t": 1493.3,
      "ch": 1,
      "note": 40,
      "vel": 78,
      "dur": 25
    },
    {
      "t": 1493.3,
      "ch": 4,
      "note": 58,
      "vel": 82,
      "dur": 2350
    },
    {
      "t": 1493.3,
      "ch": 1,
      "note": 42,
      "vel": 83,
      "dur": 25
    },
    {
      "t": 1493.4,
      "ch": 1,
      "note": 36,
      "vel": 109,
      "dur": 25
    },
    {
      "t": 1493.4,
      "ch": 7,
      "note": 48,
      "vel": 70,
      "dur": 80
    },
    {
      "t": 1493.4,
      "ch": 7,
      "note": 36,
      "vel": 76,
      "dur": 80
    },
    {
      "t": 1493.5,
      "ch": 1,
      "note": 38,
      "vel": 102,
      "dur": 25
    },
    {
      "t": 1493.6,
      "ch": 1,
      "note": 40,
      "vel": 83,
      "dur": 25
    },
    {
      "t": 1493.6,
      "ch": 1,
      "note": 42,
      "vel": 81,
      "dur": 25
    },
    {
      "t": 1493.7,
      "ch": 1,
      "note": 36,
      "vel": 109,
      "dur": 25
    },
    {
      "t": 1493.7,
      "ch": 7,
      "note": 45,
      "vel": 69,
      "dur": 80
    },
    {
      "t": 1493.7,
      "ch": 7,
      "note": 36,
      "vel": 60,
      "dur": 80
    },
    {
      "t": 1493.7,
      "ch": 7,
      "note": 38,
      "vel": 54,
      "dur": 80
    },
    {
      "t": 1493.8,
      "ch": 1,
      "note": 38,
      "vel": 99,
      "dur": 25
    },
    {
      "t": 1493.9,
      "ch": 1,
      "note": 40,
      "vel": 95,
      "dur": 25
    },
    {
      "t": 1493.9,
      "ch": 1,
      "note": 42,
      "vel": 84,
      "dur": 25
    },
    {
      "t": 1494,
      "ch": 1,
      "note": 36,
      "vel": 84,
      "dur": 25
    },
    {
      "t": 1494,
      "ch": 7,
      "note": 48,
      "vel": 71,
      "dur": 80
    },
    {
      "t": 1494,
      "ch": 7,
      "note": 36,
      "vel": 64,
      "dur": 80
    },
    {
      "t": 1494,
      "ch": 5,
      "note": 58,
      "vel": 54,
      "dur": 853
    },
    {
      "t": 1494.1,
      "ch": 1,
      "note": 38,
      "vel": 85,
      "dur": 25
    },
    {
      "t": 1494.1,
      "ch": 1,
      "note": 40,
      "vel": 100,
      "dur": 25
    },
    {
      "t": 1494.2,
      "ch": 6,
      "note": 61,
      "vel": 18,
      "dur": 569
    },
    {
      "t": 1494.2,
      "ch": 1,
      "note": 42,
      "vel": 85,
      "dur": 25
    },
    {
      "t": 1494.3,
      "ch": 1,
      "note": 36,
      "vel": 80,
      "dur": 25
    },
    {
      "t": 1494.3,
      "ch": 6,
      "note": 52,
      "vel": 36,
      "dur": 569
    },
    {
      "t": 1494.4,
      "ch": 1,
      "note": 38,
      "vel": 80,
      "dur": 25
    },
    {
      "t": 1494.4,
      "ch": 1,
      "note": 40,
      "vel": 97,
      "dur": 25
    },
    {
      "t": 1494.5,
      "ch": 1,
      "note": 42,
      "vel": 101,
      "dur": 25
    },
    {
      "t": 1494.6,
      "ch": 0,
      "note": 36,
      "vel": 127,
      "dur": 55
    },
    {
      "t": 1494.6,
      "ch": 1,
      "note": 36,
      "vel": 94,
      "dur": 25
    },
    {
      "t": 1494.6,
      "ch": 7,
      "note": 48,
      "vel": 70,
      "dur": 80
    },
    {
      "t": 1494.6,
      "ch": 7,
      "note": 45,
      "vel": 60,
      "dur": 80
    },
    {
      "t": 1494.6,
      "ch": 7,
      "note": 36,
      "vel": 71,
      "dur": 80
    },
    {
      "t": 1494.6,
      "ch": 7,
      "note": 38,
      "vel": 71,
      "dur": 80
    },
    {
      "t": 1494.7,
      "ch": 1,
      "note": 38,
      "vel": 127,
      "dur": 25
    },
    {
      "t": 1494.8,
      "ch": 1,
      "note": 40,
      "vel": 105,
      "dur": 25
    },
    {
      "t": 1494.8,
      "ch": 1,
      "note": 42,
      "vel": 97,
      "dur": 25
    },
    {
      "t": 1494.9,
      "ch": 1,
      "note": 36,
      "vel": 94,
      "dur": 25
    },
    {
      "t": 1495,
      "ch": 7,
      "note": 36,
      "vel": 51,
      "dur": 80
    },
    {
      "t": 1495,
      "ch": 1,
      "note": 38,
      "vel": 77,
      "dur": 25
    },
    {
      "t": 1495,
      "ch": 1,
      "note": 40,
      "vel": 87,
      "dur": 25
    },
    {
      "t": 1495.1,
      "ch": 1,
      "note": 42,
      "vel": 92,
      "dur": 25
    },
    {
      "t": 1495.2,
      "ch": 0,
      "note": 36,
      "vel": 97,
      "dur": 55
    },
    {
      "t": 1495.2,
      "ch": 1,
      "note": 36,
      "vel": 109,
      "dur": 25
    },
    {
      "t": 1495.2,
      "ch": 7,
      "note": 48,
      "vel": 63,
      "dur": 80
    },
    {
      "t": 1495.2,
      "ch": 7,
      "note": 36,
      "vel": 61,
      "dur": 80
    },
    {
      "t": 1495.3,
      "ch": 1,
      "note": 38,
      "vel": 107,
      "dur": 25
    },
    {
      "t": 1495.4,
      "ch": 1,
      "note": 40,
      "vel": 94,
      "dur": 25
    },
    {
      "t": 1495.4,
      "ch": 7,
      "note": 38,
      "vel": 63,
      "dur": 80
    },
    {
      "t": 1495.4,
      "ch": 7,
      "note": 45,
      "vel": 59,
      "dur": 80
    },
    {
      "t": 1495.4,
      "ch": 5,
      "note": 49,
      "vel": 49,
      "dur": 856
    },
    {
      "t": 1495.4,
      "ch": 1,
      "note": 42,
      "vel": 84,
      "dur": 25
    },
    {
      "t": 1495.5,
      "ch": 1,
      "note": 36,
      "vel": 85,
      "dur": 25
    },
    {
      "t": 1495.6,
      "ch": 1,
      "note": 38,
      "vel": 65,
      "dur": 25
    },
    {
      "t": 1495.6,
      "ch": 1,
      "note": 40,
      "vel": 106,
      "dur": 25
    },
    {
      "t": 1495.7,
      "ch": 4,
      "note": 59,
      "vel": 63,
      "dur": 2350
    },
    {
      "t": 1495.7,
      "ch": 3,
      "note": 40,
      "vel": 66,
      "dur": 2400
    },
    {
      "t": 1495.7,
      "ch": 1,
      "note": 42,
      "vel": 92,
      "dur": 25
    },
    {
      "t": 1495.8,
      "ch": 0,
      "note": 36,
      "vel": 95,
      "dur": 55
    },
    {
      "t": 1495.8,
      "ch": 1,
      "note": 36,
      "vel": 119,
      "dur": 25
    },
    {
      "t": 1495.8,
      "ch": 7,
      "note": 48,
      "vel": 80,
      "dur": 80
    },
    {
      "t": 1495.8,
      "ch": 7,
      "note": 36,
      "vel": 58,
      "dur": 80
    },
    {
      "t": 1495.9,
      "ch": 1,
      "note": 38,
      "vel": 90,
      "dur": 25
    },
    {
      "t": 1495.9,
      "ch": 1,
      "note": 40,
      "vel": 104,
      "dur": 25
    },
    {
      "t": 1496,
      "ch": 1,
      "note": 42,
      "vel": 65,
      "dur": 25
    },
    {
      "t": 1496.1,
      "ch": 1,
      "note": 36,
      "vel": 85,
      "dur": 25
    },
    {
      "t": 1496.1,
      "ch": 7,
      "note": 38,
      "vel": 70,
      "dur": 80
    },
    {
      "t": 1496.1,
      "ch": 7,
      "note": 45,
      "vel": 62,
      "dur": 80
    },
    {
      "t": 1496.1,
      "ch": 7,
      "note": 36,
      "vel": 60,
      "dur": 80
    },
    {
      "t": 1496.2,
      "ch": 1,
      "note": 38,
      "vel": 96,
      "dur": 25
    },
    {
      "t": 1496.3,
      "ch": 1,
      "note": 40,
      "vel": 101,
      "dur": 25
    },
    {
      "t": 1496.3,
      "ch": 1,
      "note": 42,
      "vel": 83,
      "dur": 25
    },
    {
      "t": 1496.4,
      "ch": 0,
      "note": 36,
      "vel": 91,
      "dur": 55
    },
    {
      "t": 1496.4,
      "ch": 1,
      "note": 36,
      "vel": 115,
      "dur": 25
    },
    {
      "t": 1496.4,
      "ch": 7,
      "note": 48,
      "vel": 64,
      "dur": 80
    },
    {
      "t": 1496.4,
      "ch": 7,
      "note": 36,
      "vel": 67,
      "dur": 80
    },
    {
      "t": 1496.5,
      "ch": 1,
      "note": 38,
      "vel": 115,
      "dur": 25
    },
    {
      "t": 1496.5,
      "ch": 1,
      "note": 40,
      "vel": 121,
      "dur": 25
    },
    {
      "t": 1496.6,
      "ch": 5,
      "note": 37,
      "vel": 36,
      "dur": 857
    },
    {
      "t": 1496.6,
      "ch": 1,
      "note": 42,
      "vel": 98,
      "dur": 25
    },
    {
      "t": 1496.7,
      "ch": 1,
      "note": 36,
      "vel": 101,
      "dur": 25
    },
    {
      "t": 1496.8,
      "ch": 1,
      "note": 38,
      "vel": 68,
      "dur": 25
    },
    {
      "t": 1496.8,
      "ch": 1,
      "note": 40,
      "vel": 115,
      "dur": 25
    },
    {
      "t": 1496.9,
      "ch": 6,
      "note": 48,
      "vel": 18,
      "dur": 571
    },
    {
      "t": 1496.9,
      "ch": 1,
      "note": 42,
      "vel": 99,
      "dur": 25
    },
    {
      "t": 1497,
      "ch": 0,
      "note": 36,
      "vel": 119,
      "dur": 55
    },
    {
      "t": 1497,
      "ch": 1,
      "note": 36,
      "vel": 94,
      "dur": 25
    },
    {
      "t": 1497,
      "ch": 7,
      "note": 48,
      "vel": 70,
      "dur": 80
    },
    {
      "t": 1497,
      "ch": 7,
      "note": 45,
      "vel": 75,
      "dur": 80
    },
    {
      "t": 1497,
      "ch": 7,
      "note": 36,
      "vel": 78,
      "dur": 80
    },
    {
      "t": 1497,
      "ch": 7,
      "note": 38,
      "vel": 82,
      "dur": 80
    },
    {
      "t": 1497,
      "ch": 5,
      "note": 56,
      "vel": 54,
      "dur": 856
    },
    {
      "t": 1497.1,
      "ch": 1,
      "note": 38,
      "vel": 118,
      "dur": 25
    },
    {
      "t": 1497.1,
      "ch": 1,
      "note": 40,
      "vel": 77,
      "dur": 25
    },
    {
      "t": 1497.2,
      "ch": 1,
      "note": 42,
      "vel": 96,
      "dur": 25
    },
    {
      "t": 1497.3,
      "ch": 1,
      "note": 36,
      "vel": 107,
      "dur": 25
    },
    {
      "t": 1497.3,
      "ch": 7,
      "note": 36,
      "vel": 63,
      "dur": 80
    },
    {
      "t": 1497.4,
      "ch": 1,
      "note": 38,
      "vel": 93,
      "dur": 25
    },
    {
      "t": 1497.4,
      "ch": 1,
      "note": 40,
      "vel": 68,
      "dur": 25
    },
    {
      "t": 1497.5,
      "ch": 1,
      "note": 42,
      "vel": 83,
      "dur": 25
    },
    {
      "t": 1497.6,
      "ch": 0,
      "note": 36,
      "vel": 95,
      "dur": 55
    },
    {
      "t": 1497.6,
      "ch": 1,
      "note": 36,
      "vel": 87,
      "dur": 25
    },
    {
      "t": 1497.6,
      "ch": 7,
      "note": 48,
      "vel": 62,
      "dur": 80
    },
    {
      "t": 1497.6,
      "ch": 7,
      "note": 36,
      "vel": 70,
      "dur": 80
    },
    {
      "t": 1497.7,
      "ch": 1,
      "note": 38,
      "vel": 85,
      "dur": 25
    },
    {
      "t": 1497.7,
      "ch": 1,
      "note": 40,
      "vel": 69,
      "dur": 25
    },
    {
      "t": 1497.8,
      "ch": 7,
      "note": 45,
      "vel": 47,
      "dur": 80
    },
    {
      "t": 1497.8,
      "ch": 7,
      "note": 38,
      "vel": 50,
      "dur": 80
    },
    {
      "t": 1497.8,
      "ch": 5,
      "note": 49,
      "vel": 30,
      "dur": 855
    },
    {
      "t": 1497.8,
      "ch": 1,
      "note": 42,
      "vel": 73,
      "dur": 25
    },
    {
      "t": 1497.9,
      "ch": 1,
      "note": 36,
      "vel": 72,
      "dur": 25
    },
    {
      "t": 1498,
      "ch": 1,
      "note": 38,
      "vel": 93,
      "dur": 25
    },
    {
      "t": 1498,
      "ch": 1,
      "note": 40,
      "vel": 98,
      "dur": 25
    },
    {
      "t": 1498.1,
      "ch": 4,
      "note": 59,
      "vel": 64,
      "dur": 2350
    },
    {
      "t": 1498.1,
      "ch": 3,
      "note": 42,
      "vel": 67,
      "dur": 2400
    },
    {
      "t": 1498.1,
      "ch": 1,
      "note": 42,
      "vel": 99,
      "dur": 25
    },
    {
      "t": 1498.2,
      "ch": 0,
      "note": 36,
      "vel": 90,
      "dur": 55
    },
    {
      "t": 1498.2,
      "ch": 1,
      "note": 36,
      "vel": 93,
      "dur": 25
    },
    {
      "t": 1498.2,
      "ch": 7,
      "note": 48,
      "vel": 69,
      "dur": 80
    },
    {
      "t": 1498.2,
      "ch": 7,
      "note": 36,
      "vel": 69,
      "dur": 80
    },
    {
      "t": 1498.3,
      "ch": 1,
      "note": 38,
      "vel": 118,
      "dur": 25
    },
    {
      "t": 1498.3,
      "ch": 1,
      "note": 40,
      "vel": 97,
      "dur": 25
    },
    {
      "t": 1498.4,
      "ch": 1,
      "note": 42,
      "vel": 78,
      "dur": 25
    },
    {
      "t": 1498.5,
      "ch": 1,
      "note": 36,
      "vel": 105,
      "dur": 25
    },
    {
      "t": 1498.5,
      "ch": 7,
      "note": 38,
      "vel": 63,
      "dur": 80
    },
    {
      "t": 1498.5,
      "ch": 7,
      "note": 36,
      "vel": 61,
      "dur": 80
    },
    {
      "t": 1498.5,
      "ch": 7,
      "note": 45,
      "vel": 59,
      "dur": 80
    },
    {
      "t": 1498.5,
      "ch": 5,
      "note": 51,
      "vel": 30,
      "dur": 853
    },
    {
      "t": 1498.6,
      "ch": 1,
      "note": 38,
      "vel": 104,
      "dur": 25
    },
    {
      "t": 1498.6,
      "ch": 1,
      "note": 40,
      "vel": 111,
      "dur": 25
    },
    {
      "t": 1498.7,
      "ch": 6,
      "note": 59,
      "vel": 11,
      "dur": 568
    },
    {
      "t": 1498.7,
      "ch": 1,
      "note": 42,
      "vel": 91,
      "dur": 25
    },
    {
      "t": 1498.8,
      "ch": 0,
      "note": 36,
      "vel": 91,
      "dur": 55
    },
    {
      "t": 1498.8,
      "ch": 1,
      "note": 36,
      "vel": 117,
      "dur": 25
    },
    {
      "t": 1498.8,
      "ch": 7,
      "note": 48,
      "vel": 64,
      "dur": 80
    },
    {
      "t": 1498.8,
      "ch": 7,
      "note": 36,
      "vel": 76,
      "dur": 80
    },
    {
      "t": 1498.8,
      "ch": 5,
      "note": 51,
      "vel": 44,
      "dur": 852
    },
    {
      "t": 1498.9,
      "ch": 6,
      "note": 58,
      "vel": 31,
      "dur": 400
    },
    {
      "t": 1498.9,
      "ch": 1,
      "note": 38,
      "vel": 97,
      "dur": 25
    },
    {
      "t": 1498.9,
      "ch": 1,
      "note": 40,
      "vel": 111,
      "dur": 25
    },
    {
      "t": 1499,
      "ch": 1,
      "note": 42,
      "vel": 110,
      "dur": 25
    },
    {
      "t": 1499.1,
      "ch": 1,
      "note": 36,
      "vel": 96,
      "dur": 25
    },
    {
      "t": 1499.2,
      "ch": 1,
      "note": 38,
      "vel": 79,
      "dur": 25
    },
    {
      "t": 1499.2,
      "ch": 1,
      "note": 40,
      "vel": 95,
      "dur": 25
    },
    {
      "t": 1499.3,
      "ch": 1,
      "note": 42,
      "vel": 97,
      "dur": 25
    },
    {
      "t": 1499.4,
      "ch": 0,
      "note": 36,
      "vel": 107,
      "dur": 55
    },
    {
      "t": 1499.4,
      "ch": 1,
      "note": 36,
      "vel": 96,
      "dur": 25
    },
    {
      "t": 1499.4,
      "ch": 7,
      "note": 48,
      "vel": 70,
      "dur": 80
    },
    {
      "t": 1499.4,
      "ch": 7,
      "note": 45,
      "vel": 68,
      "dur": 80
    },
    {
      "t": 1499.4,
      "ch": 7,
      "note": 36,
      "vel": 77,
      "dur": 80
    },
    {
      "t": 1499.4,
      "ch": 7,
      "note": 38,
      "vel": 84,
      "dur": 80
    },
    {
      "t": 1499.4,
      "ch": 6,
      "note": 54,
      "vel": 37,
      "dur": 566
    },
    {
      "t": 1499.5,
      "ch": 1,
      "note": 38,
      "vel": 122,
      "dur": 25
    },
    {
      "t": 1499.5,
      "ch": 1,
      "note": 40,
      "vel": 104,
      "dur": 25
    },
    {
      "t": 1499.6,
      "ch": 1,
      "note": 42,
      "vel": 63,
      "dur": 25
    },
    {
      "t": 1499.7,
      "ch": 1,
      "note": 36,
      "vel": 103,
      "dur": 25
    },
    {
      "t": 1499.7,
      "ch": 7,
      "note": 36,
      "vel": 72,
      "dur": 80
    },
    {
      "t": 1499.8,
      "ch": 1,
      "note": 38,
      "vel": 79,
      "dur": 25
    },
    {
      "t": 1499.9,
      "ch": 1,
      "note": 40,
      "vel": 73,
      "dur": 25
    },
    {
      "t": 1499.9,
      "ch": 6,
      "note": 54,
      "vel": 21,
      "dur": 564
    },
    {
      "t": 1499.9,
      "ch": 1,
      "note": 42,
      "vel": 88,
      "dur": 25
    },
    {
      "t": 1500,
      "ch": 0,
      "note": 36,
      "vel": 88,
      "dur": 55
    },
    {
      "t": 1500,
      "ch": 1,
      "note": 36,
      "vel": 94,
      "dur": 25
    },
    {
      "t": 1500,
      "ch": 7,
      "note": 48,
      "vel": 73,
      "dur": 80
    },
    {
      "t": 1500,
      "ch": 7,
      "note": 36,
      "vel": 77,
      "dur": 80
    },
    {
      "t": 1500.1,
      "ch": 1,
      "note": 38,
      "vel": 105,
      "dur": 25
    },
    {
      "t": 1500.2,
      "ch": 1,
      "note": 40,
      "vel": 97,
      "dur": 25
    },
    {
      "t": 1500.2,
      "ch": 7,
      "note": 45,
      "vel": 75,
      "dur": 80
    },
    {
      "t": 1500.2,
      "ch": 7,
      "note": 38,
      "vel": 63,
      "dur": 80
    },
    {
      "t": 1500.2,
      "ch": 1,
      "note": 42,
      "vel": 77,
      "dur": 25
    },
    {
      "t": 1500.3,
      "ch": 1,
      "note": 36,
      "vel": 82,
      "dur": 25
    },
    {
      "t": 1500.4,
      "ch": 1,
      "note": 38,
      "vel": 71,
      "dur": 25
    },
    {
      "t": 1500.4,
      "ch": 1,
      "note": 40,
      "vel": 84,
      "dur": 25
    },
    {
      "t": 1500.5,
      "ch": 6,
      "note": 52,
      "vel": 18,
      "dur": 562
    },
    {
      "t": 1500.5,
      "ch": 4,
      "note": 59,
      "vel": 66,
      "dur": 2350
    },
    {
      "t": 1500.5,
      "ch": 3,
      "note": 40,
      "vel": 69,
      "dur": 2400
    },
    {
      "t": 1500.5,
      "ch": 1,
      "note": 42,
      "vel": 111,
      "dur": 25
    },
    {
      "t": 1500.6,
      "ch": 0,
      "note": 36,
      "vel": 90,
      "dur": 55
    },
    {
      "t": 1500.6,
      "ch": 1,
      "note": 36,
      "vel": 88,
      "dur": 25
    },
    {
      "t": 1500.6,
      "ch": 7,
      "note": 48,
      "vel": 61,
      "dur": 80
    },
    {
      "t": 1500.6,
      "ch": 7,
      "note": 36,
      "vel": 60,
      "dur": 80
    },
    {
      "t": 1500.7,
      "ch": 1,
      "note": 38,
      "vel": 112,
      "dur": 25
    },
    {
      "t": 1500.8,
      "ch": 1,
      "note": 40,
      "vel": 104,
      "dur": 25
    },
    {
      "t": 1500.8,
      "ch": 6,
      "note": 54,
      "vel": 18,
      "dur": 561
    },
    {
      "t": 1500.8,
      "ch": 5,
      "note": 52,
      "vel": 26,
      "dur": 841
    },
    {
      "t": 1500.8,
      "ch": 1,
      "note": 42,
      "vel": 97,
      "dur": 25
    },
    {
      "t": 1500.9,
      "ch": 1,
      "note": 36,
      "vel": 85,
      "dur": 25
    },
    {
      "t": 1500.9,
      "ch": 7,
      "note": 36,
      "vel": 59,
      "dur": 80
    },
    {
      "t": 1500.9,
      "ch": 7,
      "note": 45,
      "vel": 70,
      "dur": 80
    },
    {
      "t": 1500.9,
      "ch": 7,
      "note": 38,
      "vel": 67,
      "dur": 80
    },
    {
      "t": 1501,
      "ch": 6,
      "note": 54,
      "vel": 6,
      "dur": 400
    },
    {
      "t": 1501,
      "ch": 1,
      "note": 38,
      "vel": 90,
      "dur": 25
    },
    {
      "t": 1501,
      "ch": 1,
      "note": 40,
      "vel": 100,
      "dur": 25
    },
    {
      "t": 1501.1,
      "ch": 1,
      "note": 42,
      "vel": 86,
      "dur": 25
    },
    {
      "t": 1501.2,
      "ch": 0,
      "note": 36,
      "vel": 99,
      "dur": 55
    },
    {
      "t": 1501.2,
      "ch": 1,
      "note": 36,
      "vel": 98,
      "dur": 25
    },
    {
      "t": 1501.2,
      "ch": 7,
      "note": 48,
      "vel": 74,
      "dur": 80
    },
    {
      "t": 1501.2,
      "ch": 7,
      "note": 36,
      "vel": 66,
      "dur": 80
    },
    {
      "t": 1501.3,
      "ch": 1,
      "note": 38,
      "vel": 106,
      "dur": 25
    },
    {
      "t": 1501.3,
      "ch": 1,
      "note": 40,
      "vel": 80,
      "dur": 25
    },
    {
      "t": 1501.4,
      "ch": 5,
      "note": 49,
      "vel": 39,
      "dur": 838
    },
    {
      "t": 1501.4,
      "ch": 1,
      "note": 42,
      "vel": 107,
      "dur": 25
    },
    {
      "t": 1501.5,
      "ch": 1,
      "note": 36,
      "vel": 92,
      "dur": 25
    },
    {
      "t": 1501.5,
      "ch": 5,
      "note": 56,
      "vel": 38,
      "dur": 837
    },
    {
      "t": 1501.5,
      "ch": 6,
      "note": 58,
      "vel": 32,
      "dur": 558
    },
    {
      "t": 1501.6,
      "ch": 1,
      "note": 38,
      "vel": 101,
      "dur": 25
    },
    {
      "t": 1501.6,
      "ch": 1,
      "note": 40,
      "vel": 78,
      "dur": 25
    },
    {
      "t": 1501.7,
      "ch": 5,
      "note": 49,
      "vel": 34,
      "dur": 836
    },
    {
      "t": 1501.7,
      "ch": 1,
      "note": 42,
      "vel": 90,
      "dur": 25
    },
    {
      "t": 1501.8,
      "ch": 6,
      "note": 63,
      "vel": 11,
      "dur": 400
    },
    {
      "t": 1501.8,
      "ch": 0,
      "note": 36,
      "vel": 110,
      "dur": 55
    },
    {
      "t": 1501.8,
      "ch": 1,
      "note": 36,
      "vel": 106,
      "dur": 25
    },
    {
      "t": 1501.8,
      "ch": 7,
      "note": 48,
      "vel": 76,
      "dur": 80
    },
    {
      "t": 1501.8,
      "ch": 7,
      "note": 45,
      "vel": 66,
      "dur": 80
    },
    {
      "t": 1501.8,
      "ch": 7,
      "note": 36,
      "vel": 70,
      "dur": 80
    },
    {
      "t": 1501.8,
      "ch": 7,
      "note": 38,
      "vel": 71,
      "dur": 80
    },
    {
      "t": 1501.9,
      "ch": 1,
      "note": 38,
      "vel": 88,
      "dur": 25
    },
    {
      "t": 1501.9,
      "ch": 1,
      "note": 40,
      "vel": 88,
      "dur": 25
    },
    {
      "t": 1502,
      "ch": 1,
      "note": 42,
      "vel": 90,
      "dur": 25
    },
    {
      "t": 1502.1,
      "ch": 1,
      "note": 36,
      "vel": 68,
      "dur": 25
    },
    {
      "t": 1502.1,
      "ch": 7,
      "note": 36,
      "vel": 63,
      "dur": 80
    },
    {
      "t": 1502.1,
      "ch": 5,
      "note": 51,
      "vel": 40,
      "dur": 833
    },
    {
      "t": 1502.2,
      "ch": 1,
      "note": 38,
      "vel": 81,
      "dur": 25
    },
    {
      "t": 1502.2,
      "ch": 1,
      "note": 40,
      "vel": 75,
      "dur": 25
    },
    {
      "t": 1502.3,
      "ch": 1,
      "note": 42,
      "vel": 95,
      "dur": 25
    },
    {
      "t": 1502.4,
      "ch": 0,
      "note": 36,
      "vel": 99,
      "dur": 55
    },
    {
      "t": 1502.4,
      "ch": 1,
      "note": 36,
      "vel": 77,
      "dur": 25
    },
    {
      "t": 1502.4,
      "ch": 7,
      "note": 48,
      "vel": 75,
      "dur": 80
    },
    {
      "t": 1502.4,
      "ch": 7,
      "note": 36,
      "vel": 58,
      "dur": 80
    },
    {
      "t": 1502.4,
      "ch": 6,
      "note": 54,
      "vel": 37,
      "dur": 554
    },
    {
      "t": 1502.5,
      "ch": 1,
      "note": 38,
      "vel": 119,
      "dur": 25
    },
    {
      "t": 1502.5,
      "ch": 1,
      "note": 40,
      "vel": 71,
      "dur": 25
    },
    {
      "t": 1502.6,
      "ch": 7,
      "note": 45,
      "vel": 68,
      "dur": 80
    },
    {
      "t": 1502.6,
      "ch": 7,
      "note": 38,
      "vel": 70,
      "dur": 80
    },
    {
      "t": 1502.6,
      "ch": 1,
      "note": 42,
      "vel": 72,
      "dur": 25
    },
    {
      "t": 1502.7,
      "ch": 1,
      "note": 36,
      "vel": 105,
      "dur": 25
    },
    {
      "t": 1502.8,
      "ch": 1,
      "note": 38,
      "vel": 98,
      "dur": 25
    },
    {
      "t": 1502.8,
      "ch": 1,
      "note": 40,
      "vel": 71,
      "dur": 25
    },
    {
      "t": 1502.9,
      "ch": 2,
      "note": 49,
      "vel": 61,
      "dur": 18000
    },
    {
      "t": 1502.9,
      "ch": 4,
      "note": 58,
      "vel": 84,
      "dur": 2350
    },
    {
      "t": 1502.9,
      "ch": 3,
      "note": 35,
      "vel": 71,
      "dur": 2400
    },
    {
      "t": 1502.9,
      "ch": 1,
      "note": 42,
      "vel": 89,
      "dur": 25
    },
    {
      "t": 1503,
      "ch": 0,
      "note": 36,
      "vel": 94,
      "dur": 55
    },
    {
      "t": 1503,
      "ch": 1,
      "note": 36,
      "vel": 90,
      "dur": 25
    },
    {
      "t": 1503,
      "ch": 7,
      "note": 48,
      "vel": 71,
      "dur": 80
    },
    {
      "t": 1503,
      "ch": 7,
      "note": 36,
      "vel": 82,
      "dur": 80
    },
    {
      "t": 1503,
      "ch": 5,
      "note": 51,
      "vel": 43,
      "dur": 827
    },
    {
      "t": 1503.1,
      "ch": 1,
      "note": 38,
      "vel": 102,
      "dur": 25
    },
    {
      "t": 1503.2,
      "ch": 1,
      "note": 40,
      "vel": 81,
      "dur": 25
    },
    {
      "t": 1503.2,
      "ch": 6,
      "note": 54,
      "vel": 28,
      "dur": 550
    },
    {
      "t": 1503.2,
      "ch": 1,
      "note": 42,
      "vel": 81,
      "dur": 25
    },
    {
      "t": 1503.3,
      "ch": 1,
      "note": 36,
      "vel": 100,
      "dur": 25
    },
    {
      "t": 1503.3,
      "ch": 7,
      "note": 45,
      "vel": 60,
      "dur": 80
    },
    {
      "t": 1503.3,
      "ch": 7,
      "note": 36,
      "vel": 56,
      "dur": 80
    },
    {
      "t": 1503.3,
      "ch": 7,
      "note": 38,
      "vel": 58,
      "dur": 80
    },
    {
      "t": 1503.4,
      "ch": 1,
      "note": 38,
      "vel": 91,
      "dur": 25
    },
    {
      "t": 1503.4,
      "ch": 1,
      "note": 40,
      "vel": 92,
      "dur": 25
    },
    {
      "t": 1503.5,
      "ch": 1,
      "note": 42,
      "vel": 90,
      "dur": 25
    },
    {
      "t": 1503.6,
      "ch": 0,
      "note": 36,
      "vel": 92,
      "dur": 55
    },
    {
      "t": 1503.6,
      "ch": 1,
      "note": 36,
      "vel": 107,
      "dur": 25
    },
    {
      "t": 1503.6,
      "ch": 7,
      "note": 48,
      "vel": 72,
      "dur": 80
    },
    {
      "t": 1503.6,
      "ch": 7,
      "note": 36,
      "vel": 74,
      "dur": 80
    },
    {
      "t": 1503.7,
      "ch": 1,
      "note": 38,
      "vel": 85,
      "dur": 25
    },
    {
      "t": 1503.7,
      "ch": 1,
      "note": 40,
      "vel": 80,
      "dur": 25
    },
    {
      "t": 1503.8,
      "ch": 1,
      "note": 42,
      "vel": 68,
      "dur": 25
    },
    {
      "t": 1503.9,
      "ch": 1,
      "note": 36,
      "vel": 89,
      "dur": 25
    },
    {
      "t": 1503.9,
      "ch": 5,
      "note": 52,
      "vel": 46,
      "dur": 821
    },
    {
      "t": 1504,
      "ch": 1,
      "note": 38,
      "vel": 105,
      "dur": 25
    },
    {
      "t": 1504,
      "ch": 1,
      "note": 40,
      "vel": 89,
      "dur": 25
    },
    {
      "t": 1504.1,
      "ch": 1,
      "note": 42,
      "vel": 95,
      "dur": 25
    },
    {
      "t": 1504.2,
      "ch": 0,
      "note": 36,
      "vel": 114,
      "dur": 55
    },
    {
      "t": 1504.2,
      "ch": 1,
      "note": 36,
      "vel": 108,
      "dur": 25
    },
    {
      "t": 1504.2,
      "ch": 7,
      "note": 48,
      "vel": 70,
      "dur": 80
    },
    {
      "t": 1504.2,
      "ch": 7,
      "note": 45,
      "vel": 72,
      "dur": 80
    },
    {
      "t": 1504.2,
      "ch": 7,
      "note": 36,
      "vel": 64,
      "dur": 80
    },
    {
      "t": 1504.2,
      "ch": 7,
      "note": 38,
      "vel": 59,
      "dur": 80
    },
    {
      "t": 1504.3,
      "ch": 1,
      "note": 38,
      "vel": 106,
      "dur": 25
    },
    {
      "t": 1504.3,
      "ch": 1,
      "note": 40,
      "vel": 91,
      "dur": 25
    },
    {
      "t": 1504.4,
      "ch": 1,
      "note": 42,
      "vel": 68,
      "dur": 25
    },
    {
      "t": 1504.5,
      "ch": 1,
      "note": 36,
      "vel": 91,
      "dur": 25
    },
    {
      "t": 1504.5,
      "ch": 7,
      "note": 36,
      "vel": 65,
      "dur": 80
    },
    {
      "t": 1504.5,
      "ch": 5,
      "note": 49,
      "vel": 37,
      "dur": 817
    },
    {
      "t": 1504.6,
      "ch": 1,
      "note": 38,
      "vel": 92,
      "dur": 25
    },
    {
      "t": 1504.6,
      "ch": 1,
      "note": 40,
      "vel": 111,
      "dur": 25
    },
    {
      "t": 1504.7,
      "ch": 1,
      "note": 42,
      "vel": 78,
      "dur": 25
    },
    {
      "t": 1504.8,
      "ch": 0,
      "note": 36,
      "vel": 91,
      "dur": 55
    },
    {
      "t": 1504.8,
      "ch": 1,
      "note": 36,
      "vel": 105,
      "dur": 25
    },
    {
      "t": 1504.8,
      "ch": 7,
      "note": 48,
      "vel": 73,
      "dur": 80
    },
    {
      "t": 1504.8,
      "ch": 7,
      "note": 36,
      "vel": 78,
      "dur": 80
    },
    {
      "t": 1504.9,
      "ch": 1,
      "note": 38,
      "vel": 87,
      "dur": 25
    },
    {
      "t": 1504.9,
      "ch": 1,
      "note": 40,
      "vel": 77,
      "dur": 25
    },
    {
      "t": 1505,
      "ch": 7,
      "note": 38,
      "vel": 60,
      "dur": 80
    },
    {
      "t": 1505,
      "ch": 7,
      "note": 45,
      "vel": 65,
      "dur": 80
    },
    {
      "t": 1505,
      "ch": 1,
      "note": 42,
      "vel": 104,
      "dur": 25
    },
    {
      "t": 1505.1,
      "ch": 1,
      "note": 36,
      "vel": 94,
      "dur": 25
    },
    {
      "t": 1505.2,
      "ch": 1,
      "note": 38,
      "vel": 81,
      "dur": 25
    },
    {
      "t": 1505.3,
      "ch": 1,
      "note": 40,
      "vel": 92,
      "dur": 25
    },
    {
      "t": 1505.3,
      "ch": 4,
      "note": 58,
      "vel": 86,
      "dur": 2350
    },
    {
      "t": 1505.3,
      "ch": 3,
      "note": 44,
      "vel": 74,
      "dur": 2400
    },
    {
      "t": 1505.3,
      "ch": 1,
      "note": 42,
      "vel": 88,
      "dur": 25
    },
    {
      "t": 1505.4,
      "ch": 0,
      "note": 36,
      "vel": 93,
      "dur": 55
    },
    {
      "t": 1505.4,
      "ch": 1,
      "note": 36,
      "vel": 98,
      "dur": 25
    },
    {
      "t": 1505.4,
      "ch": 7,
      "note": 48,
      "vel": 86,
      "dur": 80
    },
    {
      "t": 1505.4,
      "ch": 7,
      "note": 36,
      "vel": 72,
      "dur": 80
    },
    {
      "t": 1505.5,
      "ch": 1,
      "note": 38,
      "vel": 113,
      "dur": 25
    },
    {
      "t": 1505.5,
      "ch": 1,
      "note": 40,
      "vel": 115,
      "dur": 25
    },
    {
      "t": 1505.6,
      "ch": 6,
      "note": 52,
      "vel": 29,
      "dur": 541
    },
    {
      "t": 1505.6,
      "ch": 1,
      "note": 42,
      "vel": 62,
      "dur": 25
    },
    {
      "t": 1505.7,
      "ch": 1,
      "note": 36,
      "vel": 74,
      "dur": 25
    },
    {
      "t": 1505.7,
      "ch": 7,
      "note": 45,
      "vel": 71,
      "dur": 80
    },
    {
      "t": 1505.7,
      "ch": 7,
      "note": 36,
      "vel": 55,
      "dur": 80
    },
    {
      "t": 1505.7,
      "ch": 7,
      "note": 38,
      "vel": 65,
      "dur": 80
    },
    {
      "t": 1505.8,
      "ch": 1,
      "note": 38,
      "vel": 71,
      "dur": 25
    },
    {
      "t": 1505.8,
      "ch": 1,
      "note": 40,
      "vel": 92,
      "dur": 25
    },
    {
      "t": 1505.9,
      "ch": 1,
      "note": 42,
      "vel": 95,
      "dur": 25
    },
    {
      "t": 1506,
      "ch": 0,
      "note": 36,
      "vel": 88,
      "dur": 55
    },
    {
      "t": 1506,
      "ch": 1,
      "note": 36,
      "vel": 80,
      "dur": 25
    },
    {
      "t": 1506,
      "ch": 7,
      "note": 48,
      "vel": 69,
      "dur": 80
    },
    {
      "t": 1506,
      "ch": 7,
      "note": 36,
      "vel": 66,
      "dur": 80
    },
    {
      "t": 1506,
      "ch": 6,
      "note": 59,
      "vel": 30,
      "dur": 540
    },
    {
      "t": 1506.1,
      "ch": 1,
      "note": 38,
      "vel": 107,
      "dur": 25
    },
    {
      "t": 1506.1,
      "ch": 1,
      "note": 40,
      "vel": 75,
      "dur": 25
    },
    {
      "t": 1506.2,
      "ch": 5,
      "note": 51,
      "vel": 36,
      "dur": 810
    },
    {
      "t": 1506.2,
      "ch": 1,
      "note": 42,
      "vel": 97,
      "dur": 25
    },
    {
      "t": 1506.3,
      "ch": 1,
      "note": 36,
      "vel": 72,
      "dur": 25
    },
    {
      "t": 1506.4,
      "ch": 1,
      "note": 38,
      "vel": 101,
      "dur": 25
    },
    {
      "t": 1506.4,
      "ch": 1,
      "note": 40,
      "vel": 71,
      "dur": 25
    },
    {
      "t": 1506.5,
      "ch": 1,
      "note": 42,
      "vel": 116,
      "dur": 25
    },
    {
      "t": 1506.6,
      "ch": 0,
      "note": 36,
      "vel": 106,
      "dur": 55
    },
    {
      "t": 1506.6,
      "ch": 1,
      "note": 36,
      "vel": 118,
      "dur": 25
    },
    {
      "t": 1506.6,
      "ch": 7,
      "note": 48,
      "vel": 82,
      "dur": 80
    },
    {
      "t": 1506.6,
      "ch": 7,
      "note": 45,
      "vel": 78,
      "dur": 80
    },
    {
      "t": 1506.6,
      "ch": 7,
      "note": 36,
      "vel": 70,
      "dur": 80
    },
    {
      "t": 1506.6,
      "ch": 7,
      "note": 38,
      "vel": 70,
      "dur": 80
    },
    {
      "t": 1506.7,
      "ch": 6,
      "note": 58,
      "vel": 34,
      "dur": 400
    },
    {
      "t": 1506.7,
      "ch": 1,
      "note": 38,
      "vel": 87,
      "dur": 25
    },
    {
      "t": 1506.7,
      "ch": 1,
      "note": 40,
      "vel": 70,
      "dur": 25
    },
    {
      "t": 1506.8,
      "ch": 1,
      "note": 42,
      "vel": 82,
      "dur": 25
    },
    {
      "t": 1506.9,
      "ch": 1,
      "note": 36,
      "vel": 93,
      "dur": 25
    },
    {
      "t": 1506.9,
      "ch": 7,
      "note": 36,
      "vel": 61,
      "dur": 80
    },
    {
      "t": 1507,
      "ch": 1,
      "note": 38,
      "vel": 88,
      "dur": 25
    },
    {
      "t": 1507,
      "ch": 1,
      "note": 40,
      "vel": 92,
      "dur": 25
    },
    {
      "t": 1507.1,
      "ch": 6,
      "note": 54,
      "vel": 14,
      "dur": 538
    },
    {
      "t": 1507.1,
      "ch": 1,
      "note": 42,
      "vel": 88,
      "dur": 25
    },
    {
      "t": 1507.2,
      "ch": 0,
      "note": 36,
      "vel": 91,
      "dur": 55
    },
    {
      "t": 1507.2,
      "ch": 1,
      "note": 36,
      "vel": 120,
      "dur": 25
    },
    {
      "t": 1507.2,
      "ch": 7,
      "note": 48,
      "vel": 70,
      "dur": 80
    },
    {
      "t": 1507.2,
      "ch": 7,
      "note": 36,
      "vel": 69,
      "dur": 80
    },
    {
      "t": 1507.3,
      "ch": 1,
      "note": 38,
      "vel": 101,
      "dur": 25
    },
    {
      "t": 1507.3,
      "ch": 1,
      "note": 40,
      "vel": 108,
      "dur": 25
    },
    {
      "t": 1507.4,
      "ch": 7,
      "note": 45,
      "vel": 61,
      "dur": 80
    },
    {
      "t": 1507.4,
      "ch": 7,
      "note": 38,
      "vel": 63,
      "dur": 80
    },
    {
      "t": 1507.4,
      "ch": 1,
      "note": 42,
      "vel": 97,
      "dur": 25
    },
    {
      "t": 1507.5,
      "ch": 1,
      "note": 36,
      "vel": 78,
      "dur": 25
    },
    {
      "t": 1507.6,
      "ch": 1,
      "note": 38,
      "vel": 100,
      "dur": 25
    },
    {
      "t": 1507.6,
      "ch": 1,
      "note": 40,
      "vel": 98,
      "dur": 25
    },
    {
      "t": 1507.7,
      "ch": 5,
      "note": 54,
      "vel": 30,
      "dur": 806
    },
    {
      "t": 1507.7,
      "ch": 4,
      "note": 59,
      "vel": 77,
      "dur": 2350
    },
    {
      "t": 1507.7,
      "ch": 3,
      "note": 40,
      "vel": 75,
      "dur": 2400
    },
    {
      "t": 1507.7,
      "ch": 1,
      "note": 42,
      "vel": 88,
      "dur": 25
    },
    {
      "t": 1507.8,
      "ch": 0,
      "note": 36,
      "vel": 101,
      "dur": 55
    },
    {
      "t": 1507.8,
      "ch": 1,
      "note": 36,
      "vel": 105,
      "dur": 25
    },
    {
      "t": 1507.8,
      "ch": 7,
      "note": 48,
      "vel": 71,
      "dur": 80
    },
    {
      "t": 1507.8,
      "ch": 7,
      "note": 36,
      "vel": 81,
      "dur": 80
    },
    {
      "t": 1507.8,
      "ch": 5,
      "note": 56,
      "vel": 49,
      "dur": 806
    },
    {
      "t": 1507.8,
      "ch": 6,
      "note": 59,
      "vel": 35,
      "dur": 537
    },
    {
      "t": 1507.9,
      "ch": 1,
      "note": 38,
      "vel": 127,
      "dur": 25
    },
    {
      "t": 1508,
      "ch": 1,
      "note": 40,
      "vel": 67,
      "dur": 25
    },
    {
      "t": 1508,
      "ch": 1,
      "note": 42,
      "vel": 106,
      "dur": 25
    },
    {
      "t": 1508.1,
      "ch": 1,
      "note": 36,
      "vel": 84,
      "dur": 25
    },
    {
      "t": 1508.1,
      "ch": 7,
      "note": 36,
      "vel": 72,
      "dur": 80
    },
    {
      "t": 1508.1,
      "ch": 7,
      "note": 45,
      "vel": 51,
      "dur": 80
    },
    {
      "t": 1508.1,
      "ch": 7,
      "note": 38,
      "vel": 58,
      "dur": 80
    },
    {
      "t": 1508.2,
      "ch": 1,
      "note": 38,
      "vel": 89,
      "dur": 25
    },
    {
      "t": 1508.2,
      "ch": 1,
      "note": 40,
      "vel": 76,
      "dur": 25
    },
    {
      "t": 1508.3,
      "ch": 1,
      "note": 42,
      "vel": 100,
      "dur": 25
    },
    {
      "t": 1508.4,
      "ch": 0,
      "note": 36,
      "vel": 88,
      "dur": 55
    },
    {
      "t": 1508.4,
      "ch": 1,
      "note": 36,
      "vel": 118,
      "dur": 25
    },
    {
      "t": 1508.4,
      "ch": 7,
      "note": 48,
      "vel": 65,
      "dur": 80
    },
    {
      "t": 1508.4,
      "ch": 7,
      "note": 36,
      "vel": 71,
      "dur": 80
    },
    {
      "t": 1508.5,
      "ch": 1,
      "note": 38,
      "vel": 124,
      "dur": 25
    },
    {
      "t": 1508.5,
      "ch": 1,
      "note": 40,
      "vel": 84,
      "dur": 25
    },
    {
      "t": 1508.6,
      "ch": 6,
      "note": 56,
      "vel": 19,
      "dur": 537
    },
    {
      "t": 1508.6,
      "ch": 1,
      "note": 42,
      "vel": 98,
      "dur": 25
    },
    {
      "t": 1508.7,
      "ch": 1,
      "note": 36,
      "vel": 115,
      "dur": 25
    },
    {
      "t": 1508.8,
      "ch": 1,
      "note": 38,
      "vel": 87,
      "dur": 25
    },
    {
      "t": 1508.8,
      "ch": 1,
      "note": 40,
      "vel": 90,
      "dur": 25
    },
    {
      "t": 1508.9,
      "ch": 1,
      "note": 42,
      "vel": 70,
      "dur": 25
    },
    {
      "t": 1509,
      "ch": 0,
      "note": 36,
      "vel": 107,
      "dur": 55
    },
    {
      "t": 1509,
      "ch": 1,
      "note": 36,
      "vel": 95,
      "dur": 25
    },
    {
      "t": 1509,
      "ch": 7,
      "note": 48,
      "vel": 66,
      "dur": 80
    },
    {
      "t": 1509,
      "ch": 7,
      "note": 45,
      "vel": 70,
      "dur": 80
    },
    {
      "t": 1509,
      "ch": 7,
      "note": 36,
      "vel": 64,
      "dur": 80
    },
    {
      "t": 1509,
      "ch": 7,
      "note": 38,
      "vel": 82,
      "dur": 80
    },
    {
      "t": 1509,
      "ch": 6,
      "note": 59,
      "vel": 30,
      "dur": 538
    },
    {
      "t": 1509.1,
      "ch": 1,
      "note": 38,
      "vel": 114,
      "dur": 25
    },
    {
      "t": 1509.1,
      "ch": 1,
      "note": 40,
      "vel": 78,
      "dur": 25
    },
    {
      "t": 1509.2,
      "ch": 1,
      "note": 42,
      "vel": 93,
      "dur": 25
    },
    {
      "t": 1509.3,
      "ch": 1,
      "note": 36,
      "vel": 84,
      "dur": 25
    },
    {
      "t": 1509.3,
      "ch": 7,
      "note": 36,
      "vel": 66,
      "dur": 80
    },
    {
      "t": 1509.3,
      "ch": 5,
      "note": 70,
      "vel": 55,
      "dur": 807
    },
    {
      "t": 1509.4,
      "ch": 1,
      "note": 38,
      "vel": 98,
      "dur": 25
    },
    {
      "t": 1509.4,
      "ch": 1,
      "note": 40,
      "vel": 84,
      "dur": 25
    },
    {
      "t": 1509.5,
      "ch": 1,
      "note": 42,
      "vel": 75,
      "dur": 25
    },
    {
      "t": 1509.6,
      "ch": 0,
      "note": 36,
      "vel": 93,
      "dur": 55
    },
    {
      "t": 1509.6,
      "ch": 1,
      "note": 36,
      "vel": 112,
      "dur": 25
    },
    {
      "t": 1509.6,
      "ch": 7,
      "note": 48,
      "vel": 61,
      "dur": 80
    },
    {
      "t": 1509.6,
      "ch": 7,
      "note": 36,
      "vel": 77,
      "dur": 80
    },
    {
      "t": 1509.6,
      "ch": 5,
      "note": 49,
      "vel": 60,
      "dur": 807
    },
    {
      "t": 1509.6,
      "ch": 6,
      "note": 73,
      "vel": 26,
      "dur": 538
    },
    {
      "t": 1509.6,
      "ch": 6,
      "note": 73,
      "vel": 23,
      "dur": 400
    },
    {
      "t": 1509.7,
      "ch": 1,
      "note": 38,
      "vel": 103,
      "dur": 25
    },
    {
      "t": 1509.8,
      "ch": 1,
      "note": 40,
      "vel": 73,
      "dur": 25
    },
    {
      "t": 1509.8,
      "ch": 7,
      "note": 38,
      "vel": 59,
      "dur": 80
    },
    {
      "t": 1509.8,
      "ch": 7,
      "note": 45,
      "vel": 48,
      "dur": 80
    },
    {
      "t": 1509.8,
      "ch": 1,
      "note": 42,
      "vel": 77,
      "dur": 25
    },
    {
      "t": 1509.9,
      "ch": 1,
      "note": 36,
      "vel": 94,
      "dur": 25
    },
    {
      "t": 1509.9,
      "ch": 6,
      "note": 59,
      "vel": 15,
      "dur": 539
    },
    {
      "t": 1510,
      "ch": 1,
      "note": 38,
      "vel": 94,
      "dur": 25
    },
    {
      "t": 1510,
      "ch": 1,
      "note": 40,
      "vel": 86,
      "dur": 25
    },
    {
      "t": 1510.1,
      "ch": 4,
      "note": 58,
      "vel": 89,
      "dur": 2350
    },
    {
      "t": 1510.1,
      "ch": 3,
      "note": 44,
      "vel": 75,
      "dur": 2400
    },
    {
      "t": 1510.1,
      "ch": 1,
      "note": 42,
      "vel": 77,
      "dur": 25
    },
    {
      "t": 1510.2,
      "ch": 0,
      "note": 36,
      "vel": 91,
      "dur": 55
    },
    {
      "t": 1510.2,
      "ch": 1,
      "note": 36,
      "vel": 118,
      "dur": 25
    },
    {
      "t": 1510.2,
      "ch": 7,
      "note": 48,
      "vel": 76,
      "dur": 80
    },
    {
      "t": 1510.2,
      "ch": 7,
      "note": 36,
      "vel": 58,
      "dur": 80
    },
    {
      "t": 1510.3,
      "ch": 1,
      "note": 38,
      "vel": 102,
      "dur": 25
    },
    {
      "t": 1510.3,
      "ch": 1,
      "note": 40,
      "vel": 100,
      "dur": 25
    },
    {
      "t": 1510.4,
      "ch": 1,
      "note": 42,
      "vel": 62,
      "dur": 25
    },
    {
      "t": 1510.5,
      "ch": 1,
      "note": 36,
      "vel": 111,
      "dur": 25
    },
    {
      "t": 1510.5,
      "ch": 7,
      "note": 45,
      "vel": 52,
      "dur": 80
    },
    {
      "t": 1510.5,
      "ch": 7,
      "note": 36,
      "vel": 54,
      "dur": 80
    },
    {
      "t": 1510.5,
      "ch": 7,
      "note": 38,
      "vel": 55,
      "dur": 80
    },
    {
      "t": 1510.6,
      "ch": 1,
      "note": 38,
      "vel": 91,
      "dur": 25
    },
    {
      "t": 1510.6,
      "ch": 1,
      "note": 40,
      "vel": 91,
      "dur": 25
    },
    {
      "t": 1510.7,
      "ch": 1,
      "note": 42,
      "vel": 81,
      "dur": 25
    },
    {
      "t": 1510.8,
      "ch": 0,
      "note": 36,
      "vel": 96,
      "dur": 55
    },
    {
      "t": 1510.8,
      "ch": 1,
      "note": 36,
      "vel": 121,
      "dur": 25
    },
    {
      "t": 1510.8,
      "ch": 7,
      "note": 48,
      "vel": 70,
      "dur": 80
    },
    {
      "t": 1510.8,
      "ch": 7,
      "note": 36,
      "vel": 66,
      "dur": 80
    },
    {
      "t": 1510.8,
      "ch": 5,
      "note": 66,
      "vel": 34,
      "dur": 811
    },
    {
      "t": 1510.9,
      "ch": 1,
      "note": 38,
      "vel": 114,
      "dur": 25
    },
    {
      "t": 1510.9,
      "ch": 1,
      "note": 40,
      "vel": 99,
      "dur": 25
    },
    {
      "t": 1511,
      "ch": 6,
      "note": 52,
      "vel": 27,
      "dur": 541
    },
    {
      "t": 1511,
      "ch": 1,
      "note": 42,
      "vel": 104,
      "dur": 25
    },
    {
      "t": 1511.1,
      "ch": 1,
      "note": 36,
      "vel": 70,
      "dur": 25
    },
    {
      "t": 1511.1,
      "ch": 5,
      "note": 51,
      "vel": 38,
      "dur": 812
    },
    {
      "t": 1511.2,
      "ch": 1,
      "note": 38,
      "vel": 88,
      "dur": 25
    },
    {
      "t": 1511.2,
      "ch": 1,
      "note": 40,
      "vel": 72,
      "dur": 25
    },
    {
      "t": 1511.3,
      "ch": 1,
      "note": 42,
      "vel": 113,
      "dur": 25
    },
    {
      "t": 1511.4,
      "ch": 0,
      "note": 36,
      "vel": 119,
      "dur": 55
    },
    {
      "t": 1511.4,
      "ch": 1,
      "note": 36,
      "vel": 88,
      "dur": 25
    },
    {
      "t": 1511.4,
      "ch": 7,
      "note": 48,
      "vel": 58,
      "dur": 80
    },
    {
      "t": 1511.4,
      "ch": 7,
      "note": 45,
      "vel": 71,
      "dur": 80
    },
    {
      "t": 1511.4,
      "ch": 7,
      "note": 36,
      "vel": 58,
      "dur": 80
    },
    {
      "t": 1511.4,
      "ch": 7,
      "note": 38,
      "vel": 68,
      "dur": 80
    },
    {
      "t": 1511.5,
      "ch": 6,
      "note": 54,
      "vel": 17,
      "dur": 400
    },
    {
      "t": 1511.5,
      "ch": 1,
      "note": 38,
      "vel": 122,
      "dur": 25
    },
    {
      "t": 1511.5,
      "ch": 1,
      "note": 40,
      "vel": 97,
      "dur": 25
    },
    {
      "t": 1511.6,
      "ch": 1,
      "note": 42,
      "vel": 84,
      "dur": 25
    },
    {
      "t": 1511.7,
      "ch": 1,
      "note": 36,
      "vel": 105,
      "dur": 25
    },
    {
      "t": 1511.7,
      "ch": 7,
      "note": 36,
      "vel": 63,
      "dur": 80
    },
    {
      "t": 1511.8,
      "ch": 1,
      "note": 38,
      "vel": 77,
      "dur": 25
    },
    {
      "t": 1511.8,
      "ch": 1,
      "note": 40,
      "vel": 85,
      "dur": 25
    },
    {
      "t": 1511.9,
      "ch": 1,
      "note": 42,
      "vel": 92,
      "dur": 25
    },
    {
      "t": 1512,
      "ch": 0,
      "note": 36,
      "vel": 90,
      "dur": 55
    },
    {
      "t": 1512,
      "ch": 1,
      "note": 36,
      "vel": 120,
      "dur": 25
    },
    {
      "t": 1512,
      "ch": 7,
      "note": 48,
      "vel": 76,
      "dur": 80
    },
    {
      "t": 1512,
      "ch": 7,
      "note": 36,
      "vel": 65,
      "dur": 80
    },
    {
      "t": 1512,
      "ch": 5,
      "note": 54,
      "vel": 40,
      "dur": 817
    },
    {
      "t": 1512.1,
      "ch": 1,
      "note": 38,
      "vel": 99,
      "dur": 25
    },
    {
      "t": 1512.1,
      "ch": 1,
      "note": 40,
      "vel": 95,
      "dur": 25
    },
    {
      "t": 1512.2,
      "ch": 7,
      "note": 45,
      "vel": 56,
      "dur": 80
    },
    {
      "t": 1512.2,
      "ch": 7,
      "note": 38,
      "vel": 56,
      "dur": 80
    },
    {
      "t": 1512.2,
      "ch": 1,
      "note": 42,
      "vel": 88,
      "dur": 25
    },
    {
      "t": 1512.3,
      "ch": 1,
      "note": 36,
      "vel": 72,
      "dur": 25
    },
    {
      "t": 1512.4,
      "ch": 1,
      "note": 38,
      "vel": 88,
      "dur": 25
    },
    {
      "t": 1512.5,
      "ch": 1,
      "note": 40,
      "vel": 78,
      "dur": 25
    },
    {
      "t": 1512.5,
      "ch": 2,
      "note": 49,
      "vel": 62,
      "dur": 18000
    },
    {
      "t": 1512.5,
      "ch": 4,
      "note": 58,
      "vel": 88,
      "dur": 2350
    },
    {
      "t": 1512.5,
      "ch": 3,
      "note": 37,
      "vel": 72,
      "dur": 2400
    },
    {
      "t": 1512.5,
      "ch": 1,
      "note": 42,
      "vel": 100,
      "dur": 25
    },
    {
      "t": 1512.6,
      "ch": 0,
      "note": 36,
      "vel": 93,
      "dur": 55
    },
    {
      "t": 1512.6,
      "ch": 1,
      "note": 36,
      "vel": 95,
      "dur": 25
    },
    {
      "t": 1512.6,
      "ch": 7,
      "note": 48,
      "vel": 74,
      "dur": 80
    },
    {
      "t": 1512.6,
      "ch": 7,
      "note": 36,
      "vel": 60,
      "dur": 80
    },
    {
      "t": 1512.6,
      "ch": 5,
      "note": 56,
      "vel": 48,
      "dur": 820
    },
    {
      "t": 1512.7,
      "ch": 1,
      "note": 38,
      "vel": 80,
      "dur": 25
    },
    {
      "t": 1512.7,
      "ch": 1,
      "note": 40,
      "vel": 90,
      "dur": 25
    },
    {
      "t": 1512.8,
      "ch": 5,
      "note": 70,
      "vel": 51,
      "dur": 821
    },
    {
      "t": 1512.8,
      "ch": 1,
      "note": 42,
      "vel": 78,
      "dur": 25
    },
    {
      "t": 1512.8,
      "ch": 6,
      "note": 61,
      "vel": 22,
      "dur": 400
    },
    {
      "t": 1512.9,
      "ch": 1,
      "note": 36,
      "vel": 91,
      "dur": 25
    },
    {
      "t": 1512.9,
      "ch": 7,
      "note": 36,
      "vel": 58,
      "dur": 80
    },
    {
      "t": 1512.9,
      "ch": 7,
      "note": 38,
      "vel": 61,
      "dur": 80
    },
    {
      "t": 1512.9,
      "ch": 7,
      "note": 45,
      "vel": 65,
      "dur": 80
    },
    {
      "t": 1513,
      "ch": 1,
      "note": 38,
      "vel": 106,
      "dur": 25
    },
    {
      "t": 1513,
      "ch": 1,
      "note": 40,
      "vel": 89,
      "dur": 25
    },
    {
      "t": 1513.1,
      "ch": 1,
      "note": 42,
      "vel": 88,
      "dur": 25
    },
    {
      "t": 1513.2,
      "ch": 0,
      "note": 36,
      "vel": 90,
      "dur": 55
    },
    {
      "t": 1513.2,
      "ch": 1,
      "note": 36,
      "vel": 124,
      "dur": 25
    },
    {
      "t": 1513.2,
      "ch": 7,
      "note": 48,
      "vel": 58,
      "dur": 80
    },
    {
      "t": 1513.2,
      "ch": 7,
      "note": 36,
      "vel": 76,
      "dur": 80
    },
    {
      "t": 1513.3,
      "ch": 1,
      "note": 38,
      "vel": 95,
      "dur": 25
    },
    {
      "t": 1513.3,
      "ch": 1,
      "note": 40,
      "vel": 101,
      "dur": 25
    },
    {
      "t": 1513.4,
      "ch": 1,
      "note": 42,
      "vel": 112,
      "dur": 25
    },
    {
      "t": 1513.5,
      "ch": 1,
      "note": 36,
      "vel": 96,
      "dur": 25
    },
    {
      "t": 1513.6,
      "ch": 1,
      "note": 38,
      "vel": 108,
      "dur": 25
    },
    {
      "t": 1513.6,
      "ch": 1,
      "note": 40,
      "vel": 74,
      "dur": 25
    },
    {
      "t": 1513.7,
      "ch": 0,
      "note": 36,
      "vel": 70,
      "dur": 55
    },
    {
      "t": 1513.7,
      "ch": 6,
      "note": 70,
      "vel": 51,
      "dur": 551
    },
    {
      "t": 1513.7,
      "ch": 1,
      "note": 42,
      "vel": 92,
      "dur": 25
    },
    {
      "t": 1513.8,
      "ch": 0,
      "note": 36,
      "vel": 113,
      "dur": 55
    },
    {
      "t": 1513.8,
      "ch": 1,
      "note": 36,
      "vel": 106,
      "dur": 25
    },
    {
      "t": 1513.8,
      "ch": 7,
      "note": 48,
      "vel": 64,
      "dur": 80
    },
    {
      "t": 1513.8,
      "ch": 7,
      "note": 45,
      "vel": 65,
      "dur": 80
    },
    {
      "t": 1513.8,
      "ch": 7,
      "note": 36,
      "vel": 64,
      "dur": 80
    },
    {
      "t": 1513.8,
      "ch": 7,
      "note": 38,
      "vel": 70,
      "dur": 80
    },
    {
      "t": 1513.9,
      "ch": 1,
      "note": 38,
      "vel": 88,
      "dur": 25
    },
    {
      "t": 1514,
      "ch": 1,
      "note": 40,
      "vel": 86,
      "dur": 25
    },
    {
      "t": 1514,
      "ch": 1,
      "note": 42,
      "vel": 110,
      "dur": 25
    },
    {
      "t": 1514.1,
      "ch": 1,
      "note": 36,
      "vel": 69,
      "dur": 25
    },
    {
      "t": 1514.1,
      "ch": 7,
      "note": 36,
      "vel": 62,
      "dur": 80
    },
    {
      "t": 1514.1,
      "ch": 6,
      "note": 56,
      "vel": 29,
      "dur": 553
    },
    {
      "t": 1514.2,
      "ch": 1,
      "note": 38,
      "vel": 93,
      "dur": 25
    },
    {
      "t": 1514.2,
      "ch": 1,
      "note": 40,
      "vel": 81,
      "dur": 25
    },
    {
      "t": 1514.3,
      "ch": 1,
      "note": 42,
      "vel": 93,
      "dur": 25
    },
    {
      "t": 1514.4,
      "ch": 0,
      "note": 36,
      "vel": 87,
      "dur": 55
    },
    {
      "t": 1514.4,
      "ch": 1,
      "note": 36,
      "vel": 105,
      "dur": 25
    },
    {
      "t": 1514.4,
      "ch": 7,
      "note": 48,
      "vel": 78,
      "dur": 80
    },
    {
      "t": 1514.4,
      "ch": 7,
      "note": 36,
      "vel": 79,
      "dur": 80
    },
    {
      "t": 1514.4,
      "ch": 6,
      "note": 56,
      "vel": 29,
      "dur": 554
    },
    {
      "t": 1514.5,
      "ch": 1,
      "note": 38,
      "vel": 95,
      "dur": 25
    },
    {
      "t": 1514.6,
      "ch": 1,
      "note": 40,
      "vel": 81,
      "dur": 25
    },
    {
      "t": 1514.6,
      "ch": 7,
      "note": 38,
      "vel": 60,
      "dur": 80
    },
    {
      "t": 1514.6,
      "ch": 7,
      "note": 45,
      "vel": 75,
      "dur": 80
    },
    {
      "t": 1514.6,
      "ch": 1,
      "note": 42,
      "vel": 95,
      "dur": 25
    },
    {
      "t": 1514.7,
      "ch": 1,
      "note": 36,
      "vel": 72,
      "dur": 25
    },
    {
      "t": 1514.7,
      "ch": 5,
      "note": 49,
      "vel": 25,
      "dur": 833
    },
    {
      "t": 1514.7,
      "ch": 6,
      "note": 59,
      "vel": 37,
      "dur": 555
    },
    {
      "t": 1514.8,
      "ch": 1,
      "note": 38,
      "vel": 99,
      "dur": 25
    },
    {
      "t": 1514.8,
      "ch": 1,
      "note": 40,
      "vel": 91,
      "dur": 25
    },
    {
      "t": 1514.9,
      "ch": 4,
      "note": 59,
      "vel": 69,
      "dur": 2350
    },
    {
      "t": 1514.9,
      "ch": 3,
      "note": 40,
      "vel": 71,
      "dur": 2400
    },
    {
      "t": 1514.9,
      "ch": 1,
      "note": 42,
      "vel": 95,
      "dur": 25
    },
    {
      "t": 1515,
      "ch": 0,
      "note": 36,
      "vel": 89,
      "dur": 55
    },
    {
      "t": 1515,
      "ch": 1,
      "note": 36,
      "vel": 99,
      "dur": 25
    },
    {
      "t": 1515,
      "ch": 7,
      "note": 48,
      "vel": 58,
      "dur": 80
    },
    {
      "t": 1515,
      "ch": 7,
      "note": 36,
      "vel": 70,
      "dur": 80
    },
    {
      "t": 1515,
      "ch": 5,
      "note": 66,
      "vel": 52,
      "dur": 835
    },
    {
      "t": 1515.1,
      "ch": 1,
      "note": 38,
      "vel": 110,
      "dur": 25
    },
    {
      "t": 1515.1,
      "ch": 1,
      "note": 40,
      "vel": 79,
      "dur": 25
    },
    {
      "t": 1515.2,
      "ch": 1,
      "note": 42,
      "vel": 92,
      "dur": 25
    },
    {
      "t": 1515.3,
      "ch": 6,
      "note": 70,
      "vel": 31,
      "dur": 400
    },
    {
      "t": 1515.3,
      "ch": 1,
      "note": 36,
      "vel": 64,
      "dur": 25
    },
    {
      "t": 1515.3,
      "ch": 7,
      "note": 45,
      "vel": 72,
      "dur": 80
    },
    {
      "t": 1515.3,
      "ch": 7,
      "note": 38,
      "vel": 61,
      "dur": 80
    },
    {
      "t": 1515.3,
      "ch": 7,
      "note": 36,
      "vel": 65,
      "dur": 80
    },
    {
      "t": 1515.3,
      "ch": 5,
      "note": 52,
      "vel": 27,
      "dur": 836
    },
    {
      "t": 1515.4,
      "ch": 1,
      "note": 38,
      "vel": 84,
      "dur": 25
    },
    {
      "t": 1515.4,
      "ch": 1,
      "note": 40,
      "vel": 90,
      "dur": 25
    },
    {
      "t": 1515.5,
      "ch": 1,
      "note": 42,
      "vel": 87,
      "dur": 25
    },
    {
      "t": 1515.6,
      "ch": 0,
      "note": 36,
      "vel": 97,
      "dur": 55
    },
    {
      "t": 1515.6,
      "ch": 1,
      "note": 36,
      "vel": 99,
      "dur": 25
    },
    {
      "t": 1515.6,
      "ch": 7,
      "note": 48,
      "vel": 66,
      "dur": 80
    },
    {
      "t": 1515.6,
      "ch": 7,
      "note": 36,
      "vel": 63,
      "dur": 80
    },
    {
      "t": 1515.6,
      "ch": 6,
      "note": 56,
      "vel": 17,
      "dur": 559
    },
    {
      "t": 1515.7,
      "ch": 1,
      "note": 38,
      "vel": 102,
      "dur": 25
    },
    {
      "t": 1515.7,
      "ch": 6,
      "note": 56,
      "vel": 15,
      "dur": 400
    },
    {
      "t": 1515.7,
      "ch": 1,
      "note": 40,
      "vel": 90,
      "dur": 25
    },
    {
      "t": 1515.8,
      "ch": 1,
      "note": 42,
      "vel": 111,
      "dur": 25
    },
    {
      "t": 1515.9,
      "ch": 1,
      "note": 36,
      "vel": 86,
      "dur": 25
    },
    {
      "t": 1516,
      "ch": 1,
      "note": 38,
      "vel": 100,
      "dur": 25
    },
    {
      "t": 1516,
      "ch": 1,
      "note": 40,
      "vel": 88,
      "dur": 25
    },
    {
      "t": 1516.1,
      "ch": 1,
      "note": 42,
      "vel": 97,
      "dur": 25
    },
    {
      "t": 1516.2,
      "ch": 0,
      "note": 36,
      "vel": 118,
      "dur": 55
    },
    {
      "t": 1516.2,
      "ch": 1,
      "note": 36,
      "vel": 100,
      "dur": 25
    },
    {
      "t": 1516.2,
      "ch": 7,
      "note": 48,
      "vel": 74,
      "dur": 80
    },
    {
      "t": 1516.2,
      "ch": 7,
      "note": 45,
      "vel": 75,
      "dur": 80
    },
    {
      "t": 1516.2,
      "ch": 7,
      "note": 36,
      "vel": 83,
      "dur": 80
    },
    {
      "t": 1516.2,
      "ch": 7,
      "note": 38,
      "vel": 60,
      "dur": 80
    },
    {
      "t": 1516.2,
      "ch": 5,
      "note": 73,
      "vel": 31,
      "dur": 841
    },
    {
      "t": 1516.3,
      "ch": 1,
      "note": 38,
      "vel": 80,
      "dur": 25
    },
    {
      "t": 1516.4,
      "ch": 1,
      "note": 40,
      "vel": 77,
      "dur": 25
    },
    {
      "t": 1516.4,
      "ch": 1,
      "note": 42,
      "vel": 76,
      "dur": 25
    },
    {
      "t": 1516.5,
      "ch": 1,
      "note": 36,
      "vel": 100,
      "dur": 25
    },
    {
      "t": 1516.5,
      "ch": 7,
      "note": 36,
      "vel": 57,
      "dur": 80
    },
    {
      "t": 1516.6,
      "ch": 1,
      "note": 38,
      "vel": 90,
      "dur": 25
    },
    {
      "t": 1516.6,
      "ch": 1,
      "note": 40,
      "vel": 90,
      "dur": 25
    },
    {
      "t": 1516.7,
      "ch": 5,
      "note": 37,
      "vel": 32,
      "dur": 843
    },
    {
      "t": 1516.7,
      "ch": 1,
      "note": 42,
      "vel": 83,
      "dur": 25
    },
    {
      "t": 1516.8,
      "ch": 0,
      "note": 36,
      "vel": 100,
      "dur": 55
    },
    {
      "t": 1516.8,
      "ch": 1,
      "note": 36,
      "vel": 114,
      "dur": 25
    },
    {
      "t": 1516.8,
      "ch": 7,
      "note": 48,
      "vel": 61,
      "dur": 80
    },
    {
      "t": 1516.8,
      "ch": 7,
      "note": 36,
      "vel": 65,
      "dur": 80
    },
    {
      "t": 1516.9,
      "ch": 1,
      "note": 38,
      "vel": 110,
      "dur": 25
    },
    {
      "t": 1516.9,
      "ch": 1,
      "note": 40,
      "vel": 95,
      "dur": 25
    },
    {
      "t": 1517,
      "ch": 7,
      "note": 45,
      "vel": 57,
      "dur": 80
    },
    {
      "t": 1517,
      "ch": 7,
      "note": 38,
      "vel": 59,
      "dur": 80
    },
    {
      "t": 1517,
      "ch": 1,
      "note": 42,
      "vel": 89,
      "dur": 25
    },
    {
      "t": 1517.1,
      "ch": 1,
      "note": 36,
      "vel": 81,
      "dur": 25
    },
    {
      "t": 1517.1,
      "ch": 5,
      "note": 73,
      "vel": 37,
      "dur": 845
    },
    {
      "t": 1517.2,
      "ch": 1,
      "note": 38,
      "vel": 88,
      "dur": 25
    },
    {
      "t": 1517.2,
      "ch": 1,
      "note": 40,
      "vel": 75,
      "dur": 25
    },
    {
      "t": 1517.3,
      "ch": 4,
      "note": 59,
      "vel": 66,
      "dur": 2350
    },
    {
      "t": 1517.3,
      "ch": 3,
      "note": 42,
      "vel": 68,
      "dur": 2400
    },
    {
      "t": 1517.3,
      "ch": 1,
      "note": 42,
      "vel": 110,
      "dur": 25
    },
    {
      "t": 1517.4,
      "ch": 0,
      "note": 36,
      "vel": 94,
      "dur": 55
    },
    {
      "t": 1517.4,
      "ch": 1,
      "note": 36,
      "vel": 118,
      "dur": 25
    },
    {
      "t": 1517.4,
      "ch": 7,
      "note": 48,
      "vel": 77,
      "dur": 80
    },
    {
      "t": 1517.4,
      "ch": 7,
      "note": 36,
      "vel": 71,
      "dur": 80
    },
    {
      "t": 1517.5,
      "ch": 1,
      "note": 38,
      "vel": 92,
      "dur": 25
    },
    {
      "t": 1517.5,
      "ch": 1,
      "note": 40,
      "vel": 74,
      "dur": 25
    },
    {
      "t": 1517.6,
      "ch": 6,
      "note": 73,
      "vel": 21,
      "dur": 565
    },
    {
      "t": 1517.6,
      "ch": 1,
      "note": 42,
      "vel": 86,
      "dur": 25
    },
    {
      "t": 1517.7,
      "ch": 1,
      "note": 36,
      "vel": 106,
      "dur": 25
    },
    {
      "t": 1517.7,
      "ch": 7,
      "note": 38,
      "vel": 53,
      "dur": 80
    },
    {
      "t": 1517.7,
      "ch": 7,
      "note": 45,
      "vel": 65,
      "dur": 80
    },
    {
      "t": 1517.7,
      "ch": 7,
      "note": 36,
      "vel": 58,
      "dur": 80
    },
    {
      "t": 1517.8,
      "ch": 1,
      "note": 38,
      "vel": 95,
      "dur": 25
    },
    {
      "t": 1517.8,
      "ch": 1,
      "note": 40,
      "vel": 105,
      "dur": 25
    },
    {
      "t": 1517.9,
      "ch": 1,
      "note": 42,
      "vel": 83,
      "dur": 25
    },
    {
      "t": 1518,
      "ch": 0,
      "note": 36,
      "vel": 95,
      "dur": 55
    },
    {
      "t": 1518,
      "ch": 1,
      "note": 36,
      "vel": 108,
      "dur": 25
    },
    {
      "t": 1518,
      "ch": 7,
      "note": 48,
      "vel": 66,
      "dur": 80
    },
    {
      "t": 1518,
      "ch": 7,
      "note": 36,
      "vel": 62,
      "dur": 80
    },
    {
      "t": 1518,
      "ch": 5,
      "note": 66,
      "vel": 43,
      "dur": 848
    },
    {
      "t": 1518,
      "ch": 6,
      "note": 54,
      "vel": 25,
      "dur": 565
    },
    {
      "t": 1518.1,
      "ch": 1,
      "note": 38,
      "vel": 108,
      "dur": 25
    },
    {
      "t": 1518.1,
      "ch": 1,
      "note": 40,
      "vel": 102,
      "dur": 25
    },
    {
      "t": 1518.2,
      "ch": 1,
      "note": 42,
      "vel": 73,
      "dur": 25
    },
    {
      "t": 1518.2,
      "ch": 6,
      "note": 71,
      "vel": 14,
      "dur": 400
    },
    {
      "t": 1518.3,
      "ch": 1,
      "note": 36,
      "vel": 82,
      "dur": 25
    },
    {
      "t": 1518.3,
      "ch": 6,
      "note": 68,
      "vel": 25,
      "dur": 566
    },
    {
      "t": 1518.4,
      "ch": 1,
      "note": 38,
      "vel": 86,
      "dur": 25
    },
    {
      "t": 1518.4,
      "ch": 1,
      "note": 40,
      "vel": 103,
      "dur": 25
    },
    {
      "t": 1518.5,
      "ch": 1,
      "note": 42,
      "vel": 104,
      "dur": 25
    },
    {
      "t": 1518.6,
      "ch": 0,
      "note": 36,
      "vel": 112,
      "dur": 55
    },
    {
      "t": 1518.6,
      "ch": 1,
      "note": 36,
      "vel": 105,
      "dur": 25
    },
    {
      "t": 1518.6,
      "ch": 7,
      "note": 48,
      "vel": 74,
      "dur": 80
    },
    {
      "t": 1518.6,
      "ch": 7,
      "note": 45,
      "vel": 79,
      "dur": 80
    },
    {
      "t": 1518.6,
      "ch": 7,
      "note": 36,
      "vel": 74,
      "dur": 80
    },
    {
      "t": 1518.6,
      "ch": 7,
      "note": 38,
      "vel": 76,
      "dur": 80
    },
    {
      "t": 1518.7,
      "ch": 1,
      "note": 38,
      "vel": 98,
      "dur": 25
    },
    {
      "t": 1518.7,
      "ch": 1,
      "note": 40,
      "vel": 96,
      "dur": 25
    },
    {
      "t": 1518.8,
      "ch": 1,
      "note": 42,
      "vel": 105,
      "dur": 25
    },
    {
      "t": 1518.9,
      "ch": 1,
      "note": 36,
      "vel": 84,
      "dur": 25
    },
    {
      "t": 1518.9,
      "ch": 7,
      "note": 36,
      "vel": 50,
      "dur": 80
    },
    {
      "t": 1518.9,
      "ch": 5,
      "note": 61,
      "vel": 33,
      "dur": 850
    },
    {
      "t": 1519,
      "ch": 1,
      "note": 38,
      "vel": 116,
      "dur": 25
    },
    {
      "t": 1519,
      "ch": 1,
      "note": 40,
      "vel": 91,
      "dur": 25
    },
    {
      "t": 1519.1,
      "ch": 6,
      "note": 73,
      "vel": 38,
      "dur": 567
    },
    {
      "t": 1519.1,
      "ch": 5,
      "note": 52,
      "vel": 35,
      "dur": 850
    },
    {
      "t": 1519.1,
      "ch": 1,
      "note": 42,
      "vel": 84,
      "dur": 25
    },
    {
      "t": 1519.2,
      "ch": 0,
      "note": 36,
      "vel": 96,
      "dur": 55
    },
    {
      "t": 1519.2,
      "ch": 1,
      "note": 36,
      "vel": 100,
      "dur": 25
    },
    {
      "t": 1519.2,
      "ch": 7,
      "note": 48,
      "vel": 76,
      "dur": 80
    },
    {
      "t": 1519.2,
      "ch": 7,
      "note": 36,
      "vel": 85,
      "dur": 80
    },
    {
      "t": 1519.2,
      "ch": 6,
      "note": 66,
      "vel": 24,
      "dur": 400
    },
    {
      "t": 1519.3,
      "ch": 1,
      "note": 38,
      "vel": 125,
      "dur": 25
    },
    {
      "t": 1519.3,
      "ch": 1,
      "note": 40,
      "vel": 89,
      "dur": 25
    },
    {
      "t": 1519.4,
      "ch": 7,
      "note": 38,
      "vel": 64,
      "dur": 80
    },
    {
      "t": 1519.4,
      "ch": 7,
      "note": 45,
      "vel": 42,
      "dur": 80
    },
    {
      "t": 1519.4,
      "ch": 1,
      "note": 42,
      "vel": 92,
      "dur": 25
    },
    {
      "t": 1519.5,
      "ch": 1,
      "note": 36,
      "vel": 62,
      "dur": 25
    },
    {
      "t": 1519.6,
      "ch": 1,
      "note": 38,
      "vel": 81,
      "dur": 25
    },
    {
      "t": 1519.6,
      "ch": 1,
      "note": 40,
      "vel": 96,
      "dur": 25
    },
    {
      "t": 1519.7,
      "ch": 4,
      "note": 59,
      "vel": 64,
      "dur": 2350
    },
    {
      "t": 1519.7,
      "ch": 3,
      "note": 40,
      "vel": 68,
      "dur": 2400
    },
    {
      "t": 1519.7,
      "ch": 1,
      "note": 42,
      "vel": 98,
      "dur": 25
    },
    {
      "t": 1519.8,
      "ch": 0,
      "note": 36,
      "vel": 94,
      "dur": 55
    },
    {
      "t": 1519.8,
      "ch": 1,
      "note": 36,
      "vel": 104,
      "dur": 25
    },
    {
      "t": 1519.8,
      "ch": 7,
      "note": 48,
      "vel": 77,
      "dur": 80
    },
    {
      "t": 1519.8,
      "ch": 7,
      "note": 36,
      "vel": 74,
      "dur": 80
    },
    {
      "t": 1519.9,
      "ch": 1,
      "note": 38,
      "vel": 103,
      "dur": 25
    },
    {
      "t": 1519.9,
      "ch": 1,
      "note": 40,
      "vel": 103,
      "dur": 25
    },
    {
      "t": 1520,
      "ch": 5,
      "note": 73,
      "vel": 45,
      "dur": 850
    },
    {
      "t": 1520,
      "ch": 6,
      "note": 48,
      "vel": 30,
      "dur": 567
    },
    {
      "t": 1520,
      "ch": 1,
      "note": 42,
      "vel": 80,
      "dur": 25
    },
    {
      "t": 1520.1,
      "ch": 1,
      "note": 36,
      "vel": 100,
      "dur": 25
    },
    {
      "t": 1520.1,
      "ch": 7,
      "note": 45,
      "vel": 72,
      "dur": 80
    },
    {
      "t": 1520.1,
      "ch": 7,
      "note": 36,
      "vel": 69,
      "dur": 80
    },
    {
      "t": 1520.1,
      "ch": 7,
      "note": 38,
      "vel": 53,
      "dur": 80
    },
    {
      "t": 1520.2,
      "ch": 1,
      "note": 38,
      "vel": 69,
      "dur": 25
    },
    {
      "t": 1520.2,
      "ch": 1,
      "note": 40,
      "vel": 71,
      "dur": 25
    },
    {
      "t": 1520.3,
      "ch": 5,
      "note": 37,
      "vel": 55,
      "dur": 850
    },
    {
      "t": 1520.3,
      "ch": 1,
      "note": 42,
      "vel": 86,
      "dur": 25
    },
    {
      "t": 1520.4,
      "ch": 0,
      "note": 36,
      "vel": 95,
      "dur": 55
    },
    {
      "t": 1520.4,
      "ch": 1,
      "note": 36,
      "vel": 108,
      "dur": 25
    },
    {
      "t": 1520.4,
      "ch": 7,
      "note": 48,
      "vel": 82,
      "dur": 80
    },
    {
      "t": 1520.4,
      "ch": 7,
      "note": 36,
      "vel": 66,
      "dur": 80
    },
    {
      "t": 1520.5,
      "ch": 6,
      "note": 73,
      "vel": 18,
      "dur": 400
    },
    {
      "t": 1520.5,
      "ch": 1,
      "note": 38,
      "vel": 103,
      "dur": 25
    },
    {
      "t": 1520.6,
      "ch": 1,
      "note": 40,
      "vel": 84,
      "dur": 25
    },
    {
      "t": 1520.6,
      "ch": 5,
      "note": 71,
      "vel": 38,
      "dur": 850
    },
    {
      "t": 1520.6,
      "ch": 6,
      "note": 73,
      "vel": 22,
      "dur": 566
    },
    {
      "t": 1520.6,
      "ch": 1,
      "note": 42,
      "vel": 81,
      "dur": 25
    },
    {
      "t": 1520.7,
      "ch": 1,
      "note": 36,
      "vel": 108,
      "dur": 25
    },
    {
      "t": 1520.8,
      "ch": 1,
      "note": 38,
      "vel": 93,
      "dur": 25
    },
    {
      "t": 1520.8,
      "ch": 6,
      "note": 73,
      "vel": 11,
      "dur": 400
    },
    {
      "t": 1520.8,
      "ch": 1,
      "note": 40,
      "vel": 86,
      "dur": 25
    },
    {
      "t": 1520.9,
      "ch": 1,
      "note": 42,
      "vel": 100,
      "dur": 25
    },
    {
      "t": 1521,
      "ch": 0,
      "note": 36,
      "vel": 112,
      "dur": 55
    },
    {
      "t": 1521,
      "ch": 1,
      "note": 36,
      "vel": 123,
      "dur": 25
    },
    {
      "t": 1521,
      "ch": 7,
      "note": 48,
      "vel": 73,
      "dur": 80
    },
    {
      "t": 1521,
      "ch": 7,
      "note": 45,
      "vel": 71,
      "dur": 80
    },
    {
      "t": 1521,
      "ch": 7,
      "note": 36,
      "vel": 79,
      "dur": 80
    },
    {
      "t": 1521,
      "ch": 7,
      "note": 38,
      "vel": 57,
      "dur": 80
    },
    {
      "t": 1521,
      "ch": 6,
      "note": 71,
      "vel": 32,
      "dur": 566
    },
    {
      "t": 1521.1,
      "ch": 1,
      "note": 38,
      "vel": 124,
      "dur": 25
    },
    {
      "t": 1521.1,
      "ch": 1,
      "note": 40,
      "vel": 86,
      "dur": 25
    },
    {
      "t": 1521.2,
      "ch": 1,
      "note": 42,
      "vel": 116,
      "dur": 25
    },
    {
      "t": 1521.3,
      "ch": 1,
      "note": 36,
      "vel": 80,
      "dur": 25
    },
    {
      "t": 1521.3,
      "ch": 5,
      "note": 66,
      "vel": 35,
      "dur": 848
    },
    {
      "t": 1521.3,
      "ch": 7,
      "note": 36,
      "vel": 50,
      "dur": 80
    },
    {
      "t": 1521.4,
      "ch": 1,
      "note": 38,
      "vel": 111,
      "dur": 25
    },
    {
      "t": 1521.5,
      "ch": 1,
      "note": 40,
      "vel": 102,
      "dur": 25
    },
    {
      "t": 1521.5,
      "ch": 1,
      "note": 42,
      "vel": 98,
      "dur": 25
    },
    {
      "t": 1521.6,
      "ch": 0,
      "note": 36,
      "vel": 95,
      "dur": 55
    },
    {
      "t": 1521.6,
      "ch": 1,
      "note": 36,
      "vel": 114,
      "dur": 25
    },
    {
      "t": 1521.6,
      "ch": 7,
      "note": 48,
      "vel": 67,
      "dur": 80
    },
    {
      "t": 1521.6,
      "ch": 7,
      "note": 36,
      "vel": 66,
      "dur": 80
    },
    {
      "t": 1521.7,
      "ch": 1,
      "note": 38,
      "vel": 125,
      "dur": 25
    },
    {
      "t": 1521.7,
      "ch": 6,
      "note": 71,
      "vel": 35,
      "dur": 400
    },
    {
      "t": 1521.8,
      "ch": 1,
      "note": 40,
      "vel": 105,
      "dur": 25
    },
    {
      "t": 1521.8,
      "ch": 7,
      "note": 45,
      "vel": 54,
      "dur": 80
    },
    {
      "t": 1521.8,
      "ch": 7,
      "note": 38,
      "vel": 58,
      "dur": 80
    },
    {
      "t": 1521.8,
      "ch": 1,
      "note": 42,
      "vel": 80,
      "dur": 25
    },
    {
      "t": 1521.9,
      "ch": 1,
      "note": 36,
      "vel": 107,
      "dur": 25
    },
    {
      "t": 1522,
      "ch": 1,
      "note": 38,
      "vel": 102,
      "dur": 25
    },
    {
      "t": 1522,
      "ch": 1,
      "note": 40,
      "vel": 106,
      "dur": 25
    },
    {
      "t": 1522.1,
      "ch": 2,
      "note": 49,
      "vel": 61,
      "dur": 18000
    },
    {
      "t": 1522.1,
      "ch": 2,
      "note": 61,
      "vel": 43,
      "dur": 18000
    },
    {
      "t": 1522.1,
      "ch": 4,
      "note": 58,
      "vel": 82,
      "dur": 2350
    },
    {
      "t": 1522.1,
      "ch": 3,
      "note": 35,
      "vel": 68,
      "dur": 2400
    },
    {
      "t": 1522.1,
      "ch": 1,
      "note": 42,
      "vel": 101,
      "dur": 25
    },
    {
      "t": 1522.2,
      "ch": 0,
      "note": 36,
      "vel": 91,
      "dur": 55
    },
    {
      "t": 1522.2,
      "ch": 1,
      "note": 36,
      "vel": 92,
      "dur": 25
    },
    {
      "t": 1522.2,
      "ch": 7,
      "note": 48,
      "vel": 77,
      "dur": 80
    },
    {
      "t": 1522.2,
      "ch": 7,
      "note": 36,
      "vel": 73,
      "dur": 80
    },
    {
      "t": 1522.3,
      "ch": 1,
      "note": 38,
      "vel": 90,
      "dur": 25
    },
    {
      "t": 1522.3,
      "ch": 1,
      "note": 40,
      "vel": 101,
      "dur": 25
    },
    {
      "t": 1522.4,
      "ch": 5,
      "note": 61,
      "vel": 35,
      "dur": 844
    },
    {
      "t": 1522.4,
      "ch": 6,
      "note": 64,
      "vel": 22,
      "dur": 563
    },
    {
      "t": 1522.4,
      "ch": 1,
      "note": 42,
      "vel": 99,
      "dur": 25
    },
    {
      "t": 1522.5,
      "ch": 1,
      "note": 36,
      "vel": 73,
      "dur": 25
    },
    {
      "t": 1522.5,
      "ch": 7,
      "note": 38,
      "vel": 64,
      "dur": 80
    },
    {
      "t": 1522.5,
      "ch": 7,
      "note": 45,
      "vel": 60,
      "dur": 80
    },
    {
      "t": 1522.5,
      "ch": 7,
      "note": 36,
      "vel": 59,
      "dur": 80
    },
    {
      "t": 1522.6,
      "ch": 1,
      "note": 38,
      "vel": 105,
      "dur": 25
    },
    {
      "t": 1522.6,
      "ch": 1,
      "note": 40,
      "vel": 84,
      "dur": 25
    },
    {
      "t": 1522.7,
      "ch": 1,
      "note": 42,
      "vel": 79,
      "dur": 25
    },
    {
      "t": 1522.8,
      "ch": 0,
      "note": 36,
      "vel": 95,
      "dur": 55
    },
    {
      "t": 1522.8,
      "ch": 1,
      "note": 36,
      "vel": 127,
      "dur": 25
    },
    {
      "t": 1522.8,
      "ch": 7,
      "note": 48,
      "vel": 66,
      "dur": 80
    },
    {
      "t": 1522.8,
      "ch": 7,
      "note": 36,
      "vel": 67,
      "dur": 80
    },
    {
      "t": 1522.9,
      "ch": 1,
      "note": 38,
      "vel": 99,
      "dur": 25
    },
    {
      "t": 1522.9,
      "ch": 1,
      "note": 40,
      "vel": 83,
      "dur": 25
    },
    {
      "t": 1523,
      "ch": 1,
      "note": 42,
      "vel": 108,
      "dur": 25
    },
    {
      "t": 1523.1,
      "ch": 1,
      "note": 36,
      "vel": 81,
      "dur": 25
    },
    {
      "t": 1523.1,
      "ch": 6,
      "note": 73,
      "vel": 35,
      "dur": 561
    },
    {
      "t": 1523.2,
      "ch": 1,
      "note": 38,
      "vel": 88,
      "dur": 25
    },
    {
      "t": 1523.2,
      "ch": 1,
      "note": 40,
      "vel": 99,
      "dur": 25
    },
    {
      "t": 1523.3,
      "ch": 0,
      "note": 36,
      "vel": 67,
      "dur": 55
    },
    {
      "t": 1523.3,
      "ch": 1,
      "note": 42,
      "vel": 95,
      "dur": 25
    },
    {
      "t": 1523.4,
      "ch": 0,
      "note": 36,
      "vel": 111,
      "dur": 55
    },
    {
      "t": 1523.4,
      "ch": 1,
      "note": 36,
      "vel": 112,
      "dur": 25
    },
    {
      "t": 1523.4,
      "ch": 7,
      "note": 48,
      "vel": 66,
      "dur": 80
    },
    {
      "t": 1523.4,
      "ch": 7,
      "note": 45,
      "vel": 70,
      "dur": 80
    },
    {
      "t": 1523.4,
      "ch": 7,
      "note": 36,
      "vel": 74,
      "dur": 80
    },
    {
      "t": 1523.4,
      "ch": 7,
      "note": 38,
      "vel": 76,
      "dur": 80
    },
    {
      "t": 1523.5,
      "ch": 1,
      "note": 38,
      "vel": 127,
      "dur": 25
    },
    {
      "t": 1523.5,
      "ch": 1,
      "note": 40,
      "vel": 93,
      "dur": 25
    },
    {
      "t": 1523.6,
      "ch": 1,
      "note": 42,
      "vel": 90,
      "dur": 25
    },
    {
      "t": 1523.7,
      "ch": 1,
      "note": 36,
      "vel": 90,
      "dur": 25
    },
    {
      "t": 1523.7,
      "ch": 7,
      "note": 36,
      "vel": 49,
      "dur": 80
    },
    {
      "t": 1523.8,
      "ch": 1,
      "note": 38,
      "vel": 97,
      "dur": 25
    },
    {
      "t": 1523.8,
      "ch": 1,
      "note": 40,
      "vel": 91,
      "dur": 25
    },
    {
      "t": 1523.9,
      "ch": 6,
      "note": 68,
      "vel": 33,
      "dur": 558
    },
    {
      "t": 1523.9,
      "ch": 1,
      "note": 42,
      "vel": 94,
      "dur": 25
    },
    {
      "t": 1524,
      "ch": 0,
      "note": 36,
      "vel": 91,
      "dur": 55
    },
    {
      "t": 1524,
      "ch": 1,
      "note": 36,
      "vel": 95,
      "dur": 25
    },
    {
      "t": 1524,
      "ch": 7,
      "note": 48,
      "vel": 60,
      "dur": 80
    },
    {
      "t": 1524,
      "ch": 7,
      "note": 36,
      "vel": 56,
      "dur": 80
    },
    {
      "t": 1524,
      "ch": 5,
      "note": 52,
      "vel": 43,
      "dur": 836
    },
    {
      "t": 1524,
      "ch": 6,
      "note": 56,
      "vel": 46,
      "dur": 557
    },
    {
      "t": 1524.1,
      "ch": 1,
      "note": 38,
      "vel": 103,
      "dur": 25
    },
    {
      "t": 1524.1,
      "ch": 1,
      "note": 40,
      "vel": 104,
      "dur": 25
    },
    {
      "t": 1524.2,
      "ch": 7,
      "note": 38,
      "vel": 64,
      "dur": 80
    },
    {
      "t": 1524.2,
      "ch": 7,
      "note": 45,
      "vel": 63,
      "dur": 80
    },
    {
      "t": 1524.2,
      "ch": 5,
      "note": 49,
      "vel": 34,
      "dur": 835
    },
    {
      "t": 1524.2,
      "ch": 1,
      "note": 42,
      "vel": 110,
      "dur": 25
    },
    {
      "t": 1524.3,
      "ch": 1,
      "note": 36,
      "vel": 106,
      "dur": 25
    },
    {
      "t": 1524.3,
      "ch": 5,
      "note": 59,
      "vel": 32,
      "dur": 834
    },
    {
      "t": 1524.4,
      "ch": 1,
      "note": 38,
      "vel": 107,
      "dur": 25
    },
    {
      "t": 1524.4,
      "ch": 1,
      "note": 40,
      "vel": 118,
      "dur": 25
    },
    {
      "t": 1524.5,
      "ch": 6,
      "note": 52,
      "vel": 39,
      "dur": 556
    },
    {
      "t": 1524.5,
      "ch": 1,
      "note": 42,
      "vel": 91,
      "dur": 25
    },
    {
      "t": 1524.6,
      "ch": 0,
      "note": 36,
      "vel": 92,
      "dur": 55
    },
    {
      "t": 1524.6,
      "ch": 1,
      "note": 36,
      "vel": 99,
      "dur": 25
    },
    {
      "t": 1524.6,
      "ch": 7,
      "note": 48,
      "vel": 76,
      "dur": 80
    },
    {
      "t": 1524.6,
      "ch": 7,
      "note": 36,
      "vel": 83,
      "dur": 80
    },
    {
      "t": 1524.6,
      "ch": 5,
      "note": 63,
      "vel": 41,
      "dur": 832
    },
    {
      "t": 1524.6,
      "ch": 6,
      "note": 61,
      "vel": 34,
      "dur": 555
    },
    {
      "t": 1524.7,
      "ch": 1,
      "note": 38,
      "vel": 117,
      "dur": 25
    },
    {
      "t": 1524.7,
      "ch": 1,
      "note": 40,
      "vel": 89,
      "dur": 25
    },
    {
      "t": 1524.8,
      "ch": 1,
      "note": 42,
      "vel": 82,
      "dur": 25
    },
    {
      "t": 1524.9,
      "ch": 1,
      "note": 36,
      "vel": 99,
      "dur": 25
    },
    {
      "t": 1524.9,
      "ch": 7,
      "note": 36,
      "vel": 66,
      "dur": 80
    },
    {
      "t": 1524.9,
      "ch": 7,
      "note": 45,
      "vel": 62,
      "dur": 80
    },
    {
      "t": 1524.9,
      "ch": 7,
      "note": 38,
      "vel": 59,
      "dur": 80
    },
    {
      "t": 1525,
      "ch": 1,
      "note": 38,
      "vel": 108,
      "dur": 25
    },
    {
      "t": 1525,
      "ch": 1,
      "note": 40,
      "vel": 95,
      "dur": 25
    },
    {
      "t": 1525.1,
      "ch": 6,
      "note": 66,
      "vel": 42,
      "dur": 553
    },
    {
      "t": 1525.1,
      "ch": 1,
      "note": 42,
      "vel": 100,
      "dur": 25
    },
    {
      "t": 1525.2,
      "ch": 0,
      "note": 36,
      "vel": 94,
      "dur": 55
    },
    {
      "t": 1525.2,
      "ch": 1,
      "note": 36,
      "vel": 117,
      "dur": 25
    },
    {
      "t": 1525.2,
      "ch": 7,
      "note": 48,
      "vel": 63,
      "dur": 80
    },
    {
      "t": 1525.2,
      "ch": 7,
      "note": 36,
      "vel": 65,
      "dur": 80
    },
    {
      "t": 1525.3,
      "ch": 1,
      "note": 38,
      "vel": 108,
      "dur": 25
    },
    {
      "t": 1525.3,
      "ch": 1,
      "note": 40,
      "vel": 94,
      "dur": 25
    },
    {
      "t": 1525.4,
      "ch": 1,
      "note": 42,
      "vel": 113,
      "dur": 25
    },
    {
      "t": 1525.5,
      "ch": 1,
      "note": 36,
      "vel": 107,
      "dur": 25
    },
    {
      "t": 1525.6,
      "ch": 1,
      "note": 38,
      "vel": 115,
      "dur": 25
    },
    {
      "t": 1525.7,
      "ch": 1,
      "note": 40,
      "vel": 93,
      "dur": 25
    },
    {
      "t": 1525.7,
      "ch": 5,
      "note": 64,
      "vel": 29,
      "dur": 826
    },
    {
      "t": 1525.7,
      "ch": 1,
      "note": 42,
      "vel": 98,
      "dur": 25
    },
    {
      "t": 1525.8,
      "ch": 0,
      "note": 36,
      "vel": 120,
      "dur": 55
    },
    {
      "t": 1525.8,
      "ch": 1,
      "note": 36,
      "vel": 109,
      "dur": 25
    },
    {
      "t": 1525.8,
      "ch": 7,
      "note": 48,
      "vel": 57,
      "dur": 80
    },
    {
      "t": 1525.8,
      "ch": 7,
      "note": 45,
      "vel": 74,
      "dur": 80
    },
    {
      "t": 1525.8,
      "ch": 7,
      "note": 36,
      "vel": 72,
      "dur": 80
    },
    {
      "t": 1525.8,
      "ch": 7,
      "note": 38,
      "vel": 63,
      "dur": 80
    },
    {
      "t": 1525.9,
      "ch": 1,
      "note": 38,
      "vel": 112,
      "dur": 25
    },
    {
      "t": 1525.9,
      "ch": 1,
      "note": 40,
      "vel": 101,
      "dur": 25
    },
    {
      "t": 1526,
      "ch": 1,
      "note": 42,
      "vel": 108,
      "dur": 25
    },
    {
      "t": 1526.1,
      "ch": 1,
      "note": 36,
      "vel": 94,
      "dur": 25
    },
    {
      "t": 1526.1,
      "ch": 7,
      "note": 36,
      "vel": 73,
      "dur": 80
    },
    {
      "t": 1526.2,
      "ch": 1,
      "note": 38,
      "vel": 85,
      "dur": 25
    },
    {
      "t": 1526.2,
      "ch": 1,
      "note": 40,
      "vel": 122,
      "dur": 25
    },
    {
      "t": 1526.3,
      "ch": 5,
      "note": 71,
      "vel": 30,
      "dur": 822
    },
    {
      "t": 1526.3,
      "ch": 1,
      "note": 42,
      "vel": 95,
      "dur": 25
    },
    {
      "t": 1526.4,
      "ch": 0,
      "note": 36,
      "vel": 92,
      "dur": 55
    },
    {
      "t": 1526.4,
      "ch": 1,
      "note": 36,
      "vel": 83,
      "dur": 25
    },
    {
      "t": 1526.4,
      "ch": 7,
      "note": 48,
      "vel": 65,
      "dur": 80
    },
    {
      "t": 1526.4,
      "ch": 7,
      "note": 36,
      "vel": 60,
      "dur": 80
    },
    {
      "t": 1526.5,
      "ch": 1,
      "note": 38,
      "vel": 83,
      "dur": 25
    },
    {
      "t": 1526.6,
      "ch": 1,
      "note": 40,
      "vel": 111,
      "dur": 25
    },
    {
      "t": 1526.6,
      "ch": 7,
      "note": 38,
      "vel": 56,
      "dur": 80
    },
    {
      "t": 1526.6,
      "ch": 7,
      "note": 45,
      "vel": 72,
      "dur": 80
    },
    {
      "t": 1526.6,
      "ch": 1,
      "note": 42,
      "vel": 111,
      "dur": 25
    },
    {
      "t": 1526.7,
      "ch": 1,
      "note": 36,
      "vel": 78,
      "dur": 25
    },
    {
      "t": 1526.8,
      "ch": 1,
      "note": 38,
      "vel": 102,
      "dur": 25
    },
    {
      "t": 1526.8,
      "ch": 1,
      "note": 40,
      "vel": 103,
      "dur": 25
    },
    {
      "t": 1526.9,
      "ch": 5,
      "note": 52,
      "vel": 44,
      "dur": 819
    },
    {
      "t": 1526.9,
      "ch": 6,
      "note": 66,
      "vel": 52,
      "dur": 546
    },
    {
      "t": 1526.9,
      "ch": 1,
      "note": 42,
      "vel": 103,
      "dur": 25
    },
    {
      "t": 1527,
      "ch": 0,
      "note": 36,
      "vel": 96,
      "dur": 55
    },
    {
      "t": 1527,
      "ch": 1,
      "note": 36,
      "vel": 118,
      "dur": 25
    },
    {
      "t": 1527,
      "ch": 7,
      "note": 48,
      "vel": 67,
      "dur": 80
    },
    {
      "t": 1527,
      "ch": 7,
      "note": 36,
      "vel": 62,
      "dur": 80
    },
    {
      "t": 1527.1,
      "ch": 1,
      "note": 38,
      "vel": 127,
      "dur": 25
    },
    {
      "t": 1527.1,
      "ch": 1,
      "note": 40,
      "vel": 111,
      "dur": 25
    },
    {
      "t": 1527.2,
      "ch": 6,
      "note": 66,
      "vel": 43,
      "dur": 545
    },
    {
      "t": 1527.2,
      "ch": 1,
      "note": 42,
      "vel": 97,
      "dur": 25
    },
    {
      "t": 1527.3,
      "ch": 1,
      "note": 36,
      "vel": 110,
      "dur": 25
    },
    {
      "t": 1527.3,
      "ch": 7,
      "note": 38,
      "vel": 44,
      "dur": 80
    },
    {
      "t": 1527.3,
      "ch": 7,
      "note": 45,
      "vel": 58,
      "dur": 80
    },
    {
      "t": 1527.3,
      "ch": 6,
      "note": 52,
      "vel": 49,
      "dur": 544
    },
    {
      "t": 1527.3,
      "ch": 7,
      "note": 36,
      "vel": 63,
      "dur": 80
    },
    {
      "t": 1527.3,
      "ch": 5,
      "note": 49,
      "vel": 32,
      "dur": 816
    },
    {
      "t": 1527.4,
      "ch": 1,
      "note": 38,
      "vel": 96,
      "dur": 25
    },
    {
      "t": 1527.5,
      "ch": 1,
      "note": 40,
      "vel": 102,
      "dur": 25
    },
    {
      "t": 1527.5,
      "ch": 1,
      "note": 42,
      "vel": 86,
      "dur": 25
    },
    {
      "t": 1527.6,
      "ch": 0,
      "note": 36,
      "vel": 100,
      "dur": 55
    },
    {
      "t": 1527.6,
      "ch": 1,
      "note": 36,
      "vel": 116,
      "dur": 25
    },
    {
      "t": 1527.6,
      "ch": 7,
      "note": 48,
      "vel": 60,
      "dur": 80
    },
    {
      "t": 1527.6,
      "ch": 7,
      "note": 36,
      "vel": 70,
      "dur": 80
    },
    {
      "t": 1527.7,
      "ch": 1,
      "note": 38,
      "vel": 88,
      "dur": 25
    },
    {
      "t": 1527.8,
      "ch": 1,
      "note": 40,
      "vel": 111,
      "dur": 25
    },
    {
      "t": 1527.8,
      "ch": 1,
      "note": 42,
      "vel": 115,
      "dur": 25
    },
    {
      "t": 1527.9,
      "ch": 1,
      "note": 36,
      "vel": 102,
      "dur": 25
    },
    {
      "t": 1528,
      "ch": 1,
      "note": 38,
      "vel": 102,
      "dur": 25
    },
    {
      "t": 1528,
      "ch": 1,
      "note": 40,
      "vel": 117,
      "dur": 25
    },
    {
      "t": 1528.1,
      "ch": 6,
      "note": 73,
      "vel": 39,
      "dur": 541
    },
    {
      "t": 1528.1,
      "ch": 1,
      "note": 42,
      "vel": 95,
      "dur": 25
    },
    {
      "t": 1528.2,
      "ch": 0,
      "note": 36,
      "vel": 114,
      "dur": 55
    },
    {
      "t": 1528.2,
      "ch": 1,
      "note": 36,
      "vel": 102,
      "dur": 25
    },
    {
      "t": 1528.2,
      "ch": 7,
      "note": 48,
      "vel": 77,
      "dur": 80
    },
    {
      "t": 1528.2,
      "ch": 7,
      "note": 45,
      "vel": 58,
      "dur": 80
    },
    {
      "t": 1528.2,
      "ch": 7,
      "note": 36,
      "vel": 65,
      "dur": 80
    },
    {
      "t": 1528.2,
      "ch": 7,
      "note": 38,
      "vel": 73,
      "dur": 80
    },
    {
      "t": 1528.3,
      "ch": 1,
      "note": 38,
      "vel": 96,
      "dur": 25
    },
    {
      "t": 1528.3,
      "ch": 1,
      "note": 40,
      "vel": 100,
      "dur": 25
    },
    {
      "t": 1528.4,
      "ch": 1,
      "note": 42,
      "vel": 92,
      "dur": 25
    },
    {
      "t": 1528.5,
      "ch": 1,
      "note": 36,
      "vel": 93,
      "dur": 25
    },
    {
      "t": 1528.5,
      "ch": 7,
      "note": 36,
      "vel": 71,
      "dur": 80
    },
    {
      "t": 1528.6,
      "ch": 1,
      "note": 38,
      "vel": 99,
      "dur": 25
    },
    {
      "t": 1528.6,
      "ch": 1,
      "note": 40,
      "vel": 116,
      "dur": 25
    },
    {
      "t": 1528.7,
      "ch": 6,
      "note": 73,
      "vel": 46,
      "dur": 540
    },
    {
      "t": 1528.7,
      "ch": 1,
      "note": 42,
      "vel": 91,
      "dur": 25
    },
    {
      "t": 1528.8,
      "ch": 0,
      "note": 36,
      "vel": 90,
      "dur": 55
    },
    {
      "t": 1528.8,
      "ch": 1,
      "note": 36,
      "vel": 119,
      "dur": 25
    },
    {
      "t": 1528.8,
      "ch": 7,
      "note": 48,
      "vel": 80,
      "dur": 80
    },
    {
      "t": 1528.8,
      "ch": 7,
      "note": 36,
      "vel": 81,
      "dur": 80
    },
    {
      "t": 1528.8,
      "ch": 5,
      "note": 59,
      "vel": 52,
      "dur": 809
    },
    {
      "t": 1528.9,
      "ch": 1,
      "note": 38,
      "vel": 108,
      "dur": 25
    },
    {
      "t": 1528.9,
      "ch": 1,
      "note": 40,
      "vel": 113,
      "dur": 25
    },
    {
      "t": 1529,
      "ch": 5,
      "note": 63,
      "vel": 35,
      "dur": 808
    },
    {
      "t": 1529,
      "ch": 7,
      "note": 45,
      "vel": 55,
      "dur": 80
    },
    {
      "t": 1529,
      "ch": 7,
      "note": 38,
      "vel": 66,
      "dur": 80
    },
    {
      "t": 1529,
      "ch": 6,
      "note": 56,
      "vel": 22,
      "dur": 539
    },
    {
      "t": 1529,
      "ch": 1,
      "note": 42,
      "vel": 101,
      "dur": 25
    },
    {
      "t": 1529.1,
      "ch": 1,
      "note": 36,
      "vel": 86,
      "dur": 25
    },
    {
      "t": 1529.2,
      "ch": 1,
      "note": 38,
      "vel": 116,
      "dur": 25
    },
    {
      "t": 1529.2,
      "ch": 1,
      "note": 40,
      "vel": 87,
      "dur": 25
    },
    {
      "t": 1529.3,
      "ch": 5,
      "note": 64,
      "vel": 44,
      "dur": 807
    },
    {
      "t": 1529.3,
      "ch": 1,
      "note": 42,
      "vel": 98,
      "dur": 25
    },
    {
      "t": 1529.4,
      "ch": 0,
      "note": 36,
      "vel": 93,
      "dur": 55
    },
    {
      "t": 1529.4,
      "ch": 1,
      "note": 36,
      "vel": 110,
      "dur": 25
    },
    {
      "t": 1529.4,
      "ch": 7,
      "note": 48,
      "vel": 54,
      "dur": 80
    },
    {
      "t": 1529.4,
      "ch": 7,
      "note": 36,
      "vel": 72,
      "dur": 80
    },
    {
      "t": 1529.5,
      "ch": 1,
      "note": 38,
      "vel": 113,
      "dur": 25
    },
    {
      "t": 1529.5,
      "ch": 1,
      "note": 40,
      "vel": 89,
      "dur": 25
    },
    {
      "t": 1529.6,
      "ch": 1,
      "note": 42,
      "vel": 84,
      "dur": 25
    },
    {
      "t": 1529.7,
      "ch": 1,
      "note": 36,
      "vel": 100,
      "dur": 25
    },
    {
      "t": 1529.7,
      "ch": 7,
      "note": 38,
      "vel": 65,
      "dur": 80
    },
    {
      "t": 1529.7,
      "ch": 7,
      "note": 45,
      "vel": 68,
      "dur": 80
    },
    {
      "t": 1529.7,
      "ch": 7,
      "note": 36,
      "vel": 66,
      "dur": 80
    },
    {
      "t": 1529.8,
      "ch": 1,
      "note": 38,
      "vel": 112,
      "dur": 25
    },
    {
      "t": 1529.8,
      "ch": 1,
      "note": 40,
      "vel": 93,
      "dur": 25
    },
    {
      "t": 1529.9,
      "ch": 1,
      "note": 42,
      "vel": 72,
      "dur": 25
    },
    {
      "t": 1530,
      "ch": 0,
      "note": 36,
      "vel": 93,
      "dur": 55
    },
    {
      "t": 1530,
      "ch": 1,
      "note": 36,
      "vel": 97,
      "dur": 25
    },
    {
      "t": 1530,
      "ch": 7,
      "note": 48,
      "vel": 69,
      "dur": 80
    },
    {
      "t": 1530,
      "ch": 7,
      "note": 36,
      "vel": 66,
      "dur": 80
    },
    {
      "t": 1530.1,
      "ch": 1,
      "note": 38,
      "vel": 110,
      "dur": 25
    },
    {
      "t": 1530.1,
      "ch": 1,
      "note": 40,
      "vel": 117,
      "dur": 25
    },
    {
      "t": 1530.2,
      "ch": 1,
      "note": 42,
      "vel": 111,
      "dur": 25
    },
    {
      "t": 1530.3,
      "ch": 1,
      "note": 36,
      "vel": 78,
      "dur": 25
    },
    {
      "t": 1530.4,
      "ch": 1,
      "note": 38,
      "vel": 112,
      "dur": 25
    },
    {
      "t": 1530.4,
      "ch": 1,
      "note": 40,
      "vel": 98,
      "dur": 25
    },
    {
      "t": 1530.5,
      "ch": 1,
      "note": 42,
      "vel": 91,
      "dur": 25
    },
    {
      "t": 1530.6,
      "ch": 0,
      "note": 36,
      "vel": 118,
      "dur": 55
    },
    {
      "t": 1530.6,
      "ch": 1,
      "note": 36,
      "vel": 127,
      "dur": 25
    },
    {
      "t": 1530.6,
      "ch": 7,
      "note": 48,
      "vel": 73,
      "dur": 80
    },
    {
      "t": 1530.6,
      "ch": 7,
      "note": 45,
      "vel": 66,
      "dur": 80
    },
    {
      "t": 1530.6,
      "ch": 7,
      "note": 36,
      "vel": 71,
      "dur": 80
    },
    {
      "t": 1530.6,
      "ch": 7,
      "note": 38,
      "vel": 71,
      "dur": 80
    },
    {
      "t": 1530.6,
      "ch": 5,
      "note": 71,
      "vel": 36,
      "dur": 804
    },
    {
      "t": 1530.7,
      "ch": 1,
      "note": 38,
      "vel": 117,
      "dur": 25
    },
    {
      "t": 1530.7,
      "ch": 1,
      "note": 40,
      "vel": 117,
      "dur": 25
    },
    {
      "t": 1530.8,
      "ch": 1,
      "note": 42,
      "vel": 95,
      "dur": 25
    },
    {
      "t": 1530.9,
      "ch": 1,
      "note": 36,
      "vel": 108,
      "dur": 25
    },
    {
      "t": 1530.9,
      "ch": 7,
      "note": 36,
      "vel": 58,
      "dur": 80
    },
    {
      "t": 1530.9,
      "ch": 5,
      "note": 59,
      "vel": 14,
      "dur": 804
    },
    {
      "t": 1531,
      "ch": 1,
      "note": 38,
      "vel": 89,
      "dur": 25
    },
    {
      "t": 1531,
      "ch": 1,
      "note": 40,
      "vel": 89,
      "dur": 25
    },
    {
      "t": 1531.1,
      "ch": 1,
      "note": 42,
      "vel": 104,
      "dur": 25
    },
    {
      "t": 1531.1,
      "ch": 6,
      "note": 64,
      "vel": 24,
      "dur": 400
    },
    {
      "t": 1531.2,
      "ch": 0,
      "note": 36,
      "vel": 93,
      "dur": 55
    },
    {
      "t": 1531.2,
      "ch": 1,
      "note": 36,
      "vel": 122,
      "dur": 25
    },
    {
      "t": 1531.2,
      "ch": 7,
      "note": 48,
      "vel": 65,
      "dur": 80
    },
    {
      "t": 1531.2,
      "ch": 7,
      "note": 36,
      "vel": 65,
      "dur": 80
    },
    {
      "t": 1531.2,
      "ch": 6,
      "note": 63,
      "vel": 37,
      "dur": 536
    },
    {
      "t": 1531.3,
      "ch": 1,
      "note": 38,
      "vel": 118,
      "dur": 25
    },
    {
      "t": 1531.3,
      "ch": 1,
      "note": 40,
      "vel": 98,
      "dur": 25
    },
    {
      "t": 1531.4,
      "ch": 7,
      "note": 38,
      "vel": 56,
      "dur": 80
    },
    {
      "t": 1531.4,
      "ch": 7,
      "note": 45,
      "vel": 61,
      "dur": 80
    },
    {
      "t": 1531.4,
      "ch": 1,
      "note": 42,
      "vel": 83,
      "dur": 25
    },
    {
      "t": 1531.5,
      "ch": 1,
      "note": 36,
      "vel": 93,
      "dur": 25
    },
    {
      "t": 1531.6,
      "ch": 1,
      "note": 38,
      "vel": 82,
      "dur": 25
    },
    {
      "t": 1531.6,
      "ch": 1,
      "note": 40,
      "vel": 84,
      "dur": 25
    },
    {
      "t": 1531.7,
      "ch": 2,
      "note": 49,
      "vel": 0,
      "dur": 0
    },
    {
      "t": 1531.7,
      "ch": 2,
      "note": 61,
      "vel": 0,
      "dur": 0
    },
    {
      "t": 1531.7,
      "ch": 2,
      "note": 54,
      "vel": 62,
      "dur": 18000
    },
    {
      "t": 1531.7,
      "ch": 1,
      "note": 42,
      "vel": 88,
      "dur": 25
    },
    {
      "t": 1531.8,
      "ch": 0,
      "note": 36,
      "vel": 85,
      "dur": 55
    },
    {
      "t": 1531.8,
      "ch": 1,
      "note": 36,
      "vel": 127,
      "dur": 25
    },
    {
      "t": 1531.8,
      "ch": 7,
      "note": 48,
      "vel": 72,
      "dur": 80
    },
    {
      "t": 1531.8,
      "ch": 7,
      "note": 36,
      "vel": 60,
      "dur": 80
    },
    {
      "t": 1531.8,
      "ch": 5,
      "note": 63,
      "vel": 32,
      "dur": 804
    },
    {
      "t": 1531.9,
      "ch": 1,
      "note": 38,
      "vel": 83,
      "dur": 25
    },
    {
      "t": 1531.9,
      "ch": 1,
      "note": 40,
      "vel": 103,
      "dur": 25
    },
    {
      "t": 1532,
      "ch": 1,
      "note": 42,
      "vel": 84,
      "dur": 25
    },
    {
      "t": 1532.1,
      "ch": 6,
      "note": 68,
      "vel": 14,
      "dur": 400
    },
    {
      "t": 1532.1,
      "ch": 1,
      "note": 36,
      "vel": 101,
      "dur": 25
    },
    {
      "t": 1532.1,
      "ch": 7,
      "note": 45,
      "vel": 58,
      "dur": 80
    },
    {
      "t": 1532.1,
      "ch": 7,
      "note": 38,
      "vel": 71,
      "dur": 80
    },
    {
      "t": 1532.1,
      "ch": 7,
      "note": 36,
      "vel": 56,
      "dur": 80
    },
    {
      "t": 1532.2,
      "ch": 1,
      "note": 38,
      "vel": 100,
      "dur": 25
    },
    {
      "t": 1532.2,
      "ch": 1,
      "note": 40,
      "vel": 85,
      "dur": 25
    },
    {
      "t": 1532.3,
      "ch": 1,
      "note": 42,
      "vel": 102,
      "dur": 25
    },
    {
      "t": 1532.4,
      "ch": 0,
      "note": 36,
      "vel": 89,
      "dur": 55
    },
    {
      "t": 1532.4,
      "ch": 1,
      "note": 36,
      "vel": 101,
      "dur": 25
    },
    {
      "t": 1532.4,
      "ch": 7,
      "note": 48,
      "vel": 58,
      "dur": 80
    },
    {
      "t": 1532.4,
      "ch": 7,
      "note": 36,
      "vel": 74,
      "dur": 80
    },
    {
      "t": 1532.4,
      "ch": 6,
      "note": 66,
      "vel": 51,
      "dur": 537
    },
    {
      "t": 1532.5,
      "ch": 1,
      "note": 38,
      "vel": 114,
      "dur": 25
    },
    {
      "t": 1532.5,
      "ch": 1,
      "note": 40,
      "vel": 112,
      "dur": 25
    },
    {
      "t": 1532.6,
      "ch": 6,
      "note": 63,
      "vel": 26,
      "dur": 537
    },
    {
      "t": 1532.6,
      "ch": 1,
      "note": 42,
      "vel": 106,
      "dur": 25
    },
    {
      "t": 1532.7,
      "ch": 1,
      "note": 36,
      "vel": 91,
      "dur": 25
    },
    {
      "t": 1532.7,
      "ch": 5,
      "note": 59,
      "vel": 31,
      "dur": 806
    },
    {
      "t": 1532.8,
      "ch": 1,
      "note": 38,
      "vel": 104,
      "dur": 25
    },
    {
      "t": 1532.9,
      "ch": 1,
      "note": 40,
      "vel": 107,
      "dur": 25
    },
    {
      "t": 1532.9,
      "ch": 1,
      "note": 42,
      "vel": 90,
      "dur": 25
    },
    {
      "t": 1533,
      "ch": 0,
      "note": 36,
      "vel": 111,
      "dur": 55
    },
    {
      "t": 1533,
      "ch": 1,
      "note": 36,
      "vel": 105,
      "dur": 25
    },
    {
      "t": 1533,
      "ch": 7,
      "note": 48,
      "vel": 75,
      "dur": 80
    },
    {
      "t": 1533,
      "ch": 7,
      "note": 45,
      "vel": 66,
      "dur": 80
    },
    {
      "t": 1533,
      "ch": 7,
      "note": 36,
      "vel": 67,
      "dur": 80
    },
    {
      "t": 1533,
      "ch": 7,
      "note": 38,
      "vel": 76,
      "dur": 80
    },
    {
      "t": 1533.1,
      "ch": 1,
      "note": 38,
      "vel": 87,
      "dur": 25
    },
    {
      "t": 1533.2,
      "ch": 1,
      "note": 40,
      "vel": 90,
      "dur": 25
    },
    {
      "t": 1533.2,
      "ch": 1,
      "note": 42,
      "vel": 98,
      "dur": 25
    },
    {
      "t": 1533.3,
      "ch": 1,
      "note": 36,
      "vel": 90,
      "dur": 25
    },
    {
      "t": 1533.3,
      "ch": 7,
      "note": 36,
      "vel": 61,
      "dur": 80
    },
    {
      "t": 1533.4,
      "ch": 1,
      "note": 38,
      "vel": 99,
      "dur": 25
    },
    {
      "t": 1533.4,
      "ch": 1,
      "note": 40,
      "vel": 97,
      "dur": 25
    },
    {
      "t": 1533.5,
      "ch": 5,
      "note": 64,
      "vel": 29,
      "dur": 808
    },
    {
      "t": 1533.5,
      "ch": 1,
      "note": 42,
      "vel": 97,
      "dur": 25
    },
    {
      "t": 1533.6,
      "ch": 0,
      "note": 36,
      "vel": 88,
      "dur": 55
    },
    {
      "t": 1533.6,
      "ch": 1,
      "note": 36,
      "vel": 90,
      "dur": 25
    },
    {
      "t": 1533.6,
      "ch": 7,
      "note": 48,
      "vel": 67,
      "dur": 80
    },
    {
      "t": 1533.6,
      "ch": 7,
      "note": 36,
      "vel": 70,
      "dur": 80
    },
    {
      "t": 1533.7,
      "ch": 1,
      "note": 38,
      "vel": 108,
      "dur": 25
    },
    {
      "t": 1533.7,
      "ch": 1,
      "note": 40,
      "vel": 72,
      "dur": 25
    },
    {
      "t": 1533.8,
      "ch": 7,
      "note": 38,
      "vel": 60,
      "dur": 80
    },
    {
      "t": 1533.8,
      "ch": 7,
      "note": 45,
      "vel": 55,
      "dur": 80
    },
    {
      "t": 1533.8,
      "ch": 1,
      "note": 42,
      "vel": 80,
      "dur": 25
    },
    {
      "t": 1533.9,
      "ch": 1,
      "note": 36,
      "vel": 92,
      "dur": 25
    },
    {
      "t": 1533.9,
      "ch": 5,
      "note": 49,
      "vel": 45,
      "dur": 810
    },
    {
      "t": 1534,
      "ch": 1,
      "note": 38,
      "vel": 110,
      "dur": 25
    },
    {
      "t": 1534,
      "ch": 1,
      "note": 40,
      "vel": 105,
      "dur": 25
    },
    {
      "t": 1534.1,
      "ch": 4,
      "note": 58,
      "vel": 87,
      "dur": 2350
    },
    {
      "t": 1534.1,
      "ch": 3,
      "note": 44,
      "vel": 74,
      "dur": 2400
    },
    {
      "t": 1534.1,
      "ch": 1,
      "note": 42,
      "vel": 105,
      "dur": 25
    },
    {
      "t": 1534.2,
      "ch": 0,
      "note": 36,
      "vel": 90,
      "dur": 55
    },
    {
      "t": 1534.2,
      "ch": 1,
      "note": 36,
      "vel": 95,
      "dur": 25
    },
    {
      "t": 1534.2,
      "ch": 7,
      "note": 48,
      "vel": 80,
      "dur": 80
    },
    {
      "t": 1534.2,
      "ch": 7,
      "note": 36,
      "vel": 68,
      "dur": 80
    },
    {
      "t": 1534.3,
      "ch": 1,
      "note": 38,
      "vel": 87,
      "dur": 25
    },
    {
      "t": 1534.3,
      "ch": 1,
      "note": 40,
      "vel": 105,
      "dur": 25
    },
    {
      "t": 1534.4,
      "ch": 6,
      "note": 66,
      "vel": 23,
      "dur": 541
    },
    {
      "t": 1534.4,
      "ch": 1,
      "note": 42,
      "vel": 84,
      "dur": 25
    },
    {
      "t": 1534.5,
      "ch": 1,
      "note": 36,
      "vel": 77,
      "dur": 25
    },
    {
      "t": 1534.5,
      "ch": 7,
      "note": 36,
      "vel": 62,
      "dur": 80
    },
    {
      "t": 1534.5,
      "ch": 7,
      "note": 38,
      "vel": 64,
      "dur": 80
    },
    {
      "t": 1534.5,
      "ch": 7,
      "note": 45,
      "vel": 59,
      "dur": 80
    },
    {
      "t": 1534.6,
      "ch": 1,
      "note": 38,
      "vel": 108,
      "dur": 25
    },
    {
      "t": 1534.6,
      "ch": 1,
      "note": 40,
      "vel": 88,
      "dur": 25
    },
    {
      "t": 1534.7,
      "ch": 1,
      "note": 42,
      "vel": 76,
      "dur": 25
    },
    {
      "t": 1534.8,
      "ch": 0,
      "note": 36,
      "vel": 98,
      "dur": 55
    },
    {
      "t": 1534.8,
      "ch": 1,
      "note": 36,
      "vel": 88,
      "dur": 25
    },
    {
      "t": 1534.8,
      "ch": 7,
      "note": 48,
      "vel": 71,
      "dur": 80
    },
    {
      "t": 1534.8,
      "ch": 7,
      "note": 36,
      "vel": 57,
      "dur": 80
    },
    {
      "t": 1534.9,
      "ch": 1,
      "note": 38,
      "vel": 112,
      "dur": 25
    },
    {
      "t": 1534.9,
      "ch": 1,
      "note": 40,
      "vel": 82,
      "dur": 25
    },
    {
      "t": 1535,
      "ch": 1,
      "note": 42,
      "vel": 93,
      "dur": 25
    },
    {
      "t": 1535.1,
      "ch": 1,
      "note": 36,
      "vel": 86,
      "dur": 25
    },
    {
      "t": 1535.1,
      "ch": 6,
      "note": 52,
      "vel": 13,
      "dur": 544
    },
    {
      "t": 1535.2,
      "ch": 1,
      "note": 38,
      "vel": 105,
      "dur": 25
    },
    {
      "t": 1535.2,
      "ch": 1,
      "note": 40,
      "vel": 108,
      "dur": 25
    },
    {
      "t": 1535.3,
      "ch": 1,
      "note": 42,
      "vel": 99,
      "dur": 25
    },
    {
      "t": 1535.4,
      "ch": 0,
      "note": 36,
      "vel": 117,
      "dur": 55
    },
    {
      "t": 1535.4,
      "ch": 1,
      "note": 36,
      "vel": 103,
      "dur": 25
    },
    {
      "t": 1535.4,
      "ch": 7,
      "note": 48,
      "vel": 78,
      "dur": 80
    },
    {
      "t": 1535.4,
      "ch": 7,
      "note": 45,
      "vel": 68,
      "dur": 80
    },
    {
      "t": 1535.4,
      "ch": 7,
      "note": 36,
      "vel": 55,
      "dur": 80
    },
    {
      "t": 1535.4,
      "ch": 7,
      "note": 38,
      "vel": 78,
      "dur": 80
    },
    {
      "t": 1535.5,
      "ch": 1,
      "note": 38,
      "vel": 120,
      "dur": 25
    },
    {
      "t": 1535.5,
      "ch": 1,
      "note": 40,
      "vel": 104,
      "dur": 25
    },
    {
      "t": 1535.6,
      "ch": 1,
      "note": 42,
      "vel": 88,
      "dur": 25
    },
    {
      "t": 1535.7,
      "ch": 1,
      "note": 36,
      "vel": 95,
      "dur": 25
    },
    {
      "t": 1535.7,
      "ch": 7,
      "note": 36,
      "vel": 71,
      "dur": 80
    },
    {
      "t": 1535.8,
      "ch": 1,
      "note": 38,
      "vel": 112,
      "dur": 25
    },
    {
      "t": 1535.8,
      "ch": 1,
      "note": 40,
      "vel": 91,
      "dur": 25
    },
    {
      "t": 1535.9,
      "ch": 6,
      "note": 56,
      "vel": 36,
      "dur": 546
    },
    {
      "t": 1535.9,
      "ch": 1,
      "note": 42,
      "vel": 94,
      "dur": 25
    },
    {
      "t": 1536,
      "ch": 0,
      "note": 36,
      "vel": 84,
      "dur": 55
    },
    {
      "t": 1536,
      "ch": 1,
      "note": 36,
      "vel": 93,
      "dur": 25
    },
    {
      "t": 1536,
      "ch": 7,
      "note": 48,
      "vel": 75,
      "dur": 80
    },
    {
      "t": 1536,
      "ch": 7,
      "note": 36,
      "vel": 64,
      "dur": 80
    },
    {
      "t": 1536.1,
      "ch": 1,
      "note": 38,
      "vel": 91,
      "dur": 25
    },
    {
      "t": 1536.2,
      "ch": 1,
      "note": 40,
      "vel": 93,
      "dur": 25
    },
    {
      "t": 1536.2,
      "ch": 7,
      "note": 45,
      "vel": 52,
      "dur": 80
    },
    {
      "t": 1536.2,
      "ch": 7,
      "note": 38,
      "vel": 76,
      "dur": 80
    },
    {
      "t": 1536.2,
      "ch": 1,
      "note": 42,
      "vel": 82,
      "dur": 25
    },
    {
      "t": 1536.3,
      "ch": 1,
      "note": 36,
      "vel": 100,
      "dur": 25
    },
    {
      "t": 1536.3,
      "ch": 5,
      "note": 54,
      "vel": 37,
      "dur": 822
    },
    {
      "t": 1536.4,
      "ch": 1,
      "note": 38,
      "vel": 97,
      "dur": 25
    },
    {
      "t": 1536.4,
      "ch": 1,
      "note": 40,
      "vel": 84,
      "dur": 25
    },
    {
      "t": 1536.5,
      "ch": 4,
      "note": 59,
      "vel": 69,
      "dur": 2350
    },
    {
      "t": 1536.5,
      "ch": 3,
      "note": 40,
      "vel": 72,
      "dur": 2400
    },
    {
      "t": 1536.5,
      "ch": 1,
      "note": 42,
      "vel": 93,
      "dur": 25
    },
    {
      "t": 1536.5,
      "ch": 6,
      "note": 59,
      "vel": 11,
      "dur": 400
    },
    {
      "t": 1536.6,
      "ch": 0,
      "note": 36,
      "vel": 94,
      "dur": 55
    },
    {
      "t": 1536.6,
      "ch": 1,
      "note": 36,
      "vel": 113,
      "dur": 25
    },
    {
      "t": 1536.6,
      "ch": 7,
      "note": 48,
      "vel": 70,
      "dur": 80
    },
    {
      "t": 1536.6,
      "ch": 7,
      "note": 36,
      "vel": 69,
      "dur": 80
    },
    {
      "t": 1536.7,
      "ch": 1,
      "note": 38,
      "vel": 83,
      "dur": 25
    },
    {
      "t": 1536.7,
      "ch": 1,
      "note": 40,
      "vel": 99,
      "dur": 25
    },
    {
      "t": 1536.8,
      "ch": 1,
      "note": 42,
      "vel": 98,
      "dur": 25
    },
    {
      "t": 1536.9,
      "ch": 1,
      "note": 36,
      "vel": 92,
      "dur": 25
    },
    {
      "t": 1536.9,
      "ch": 7,
      "note": 45,
      "vel": 57,
      "dur": 80
    },
    {
      "t": 1536.9,
      "ch": 7,
      "note": 38,
      "vel": 65,
      "dur": 80
    },
    {
      "t": 1536.9,
      "ch": 6,
      "note": 61,
      "vel": 31,
      "dur": 550
    },
    {
      "t": 1536.9,
      "ch": 7,
      "note": 36,
      "vel": 62,
      "dur": 80
    },
    {
      "t": 1537,
      "ch": 1,
      "note": 38,
      "vel": 90,
      "dur": 25
    },
    {
      "t": 1537,
      "ch": 1,
      "note": 40,
      "vel": 85,
      "dur": 25
    },
    {
      "t": 1537.1,
      "ch": 1,
      "note": 42,
      "vel": 99,
      "dur": 25
    },
    {
      "t": 1537.2,
      "ch": 0,
      "note": 36,
      "vel": 91,
      "dur": 55
    },
    {
      "t": 1537.2,
      "ch": 1,
      "note": 36,
      "vel": 101,
      "dur": 25
    },
    {
      "t": 1537.2,
      "ch": 7,
      "note": 48,
      "vel": 77,
      "dur": 80
    },
    {
      "t": 1537.2,
      "ch": 7,
      "note": 36,
      "vel": 86,
      "dur": 80
    },
    {
      "t": 1537.2,
      "ch": 5,
      "note": 59,
      "vel": 50,
      "dur": 828
    },
    {
      "t": 1537.3,
      "ch": 1,
      "note": 38,
      "vel": 88,
      "dur": 25
    },
    {
      "t": 1537.3,
      "ch": 1,
      "note": 40,
      "vel": 100,
      "dur": 25
    },
    {
      "t": 1537.4,
      "ch": 1,
      "note": 42,
      "vel": 96,
      "dur": 25
    },
    {
      "t": 1537.5,
      "ch": 1,
      "note": 36,
      "vel": 92,
      "dur": 25
    },
    {
      "t": 1537.5,
      "ch": 6,
      "note": 66,
      "vel": 29,
      "dur": 553
    },
    {
      "t": 1537.5,
      "ch": 5,
      "note": 63,
      "vel": 37,
      "dur": 829
    },
    {
      "t": 1537.6,
      "ch": 1,
      "note": 38,
      "vel": 115,
      "dur": 25
    },
    {
      "t": 1537.6,
      "ch": 1,
      "note": 40,
      "vel": 74,
      "dur": 25
    },
    {
      "t": 1537.6,
      "ch": 6,
      "note": 63,
      "vel": 10,
      "dur": 400
    },
    {
      "t": 1537.7,
      "ch": 1,
      "note": 42,
      "vel": 103,
      "dur": 25
    },
    {
      "t": 1537.8,
      "ch": 0,
      "note": 36,
      "vel": 113,
      "dur": 55
    },
    {
      "t": 1537.8,
      "ch": 1,
      "note": 36,
      "vel": 109,
      "dur": 25
    },
    {
      "t": 1537.8,
      "ch": 7,
      "note": 48,
      "vel": 79,
      "dur": 80
    },
    {
      "t": 1537.8,
      "ch": 7,
      "note": 45,
      "vel": 60,
      "dur": 80
    },
    {
      "t": 1537.8,
      "ch": 7,
      "note": 36,
      "vel": 59,
      "dur": 80
    },
    {
      "t": 1537.8,
      "ch": 7,
      "note": 38,
      "vel": 59,
      "dur": 80
    },
    {
      "t": 1537.9,
      "ch": 1,
      "note": 38,
      "vel": 105,
      "dur": 25
    },
    {
      "t": 1537.9,
      "ch": 1,
      "note": 40,
      "vel": 97,
      "dur": 25
    },
    {
      "t": 1538,
      "ch": 5,
      "note": 59,
      "vel": 40,
      "dur": 832
    },
    {
      "t": 1538,
      "ch": 1,
      "note": 42,
      "vel": 91,
      "dur": 25
    },
    {
      "t": 1538.1,
      "ch": 1,
      "note": 36,
      "vel": 87,
      "dur": 25
    },
    {
      "t": 1538.1,
      "ch": 7,
      "note": 36,
      "vel": 67,
      "dur": 80
    },
    {
      "t": 1538.1,
      "ch": 5,
      "note": 64,
      "vel": 35,
      "dur": 833
    },
    {
      "t": 1538.2,
      "ch": 1,
      "note": 38,
      "vel": 106,
      "dur": 25
    },
    {
      "t": 1538.2,
      "ch": 1,
      "note": 40,
      "vel": 78,
      "dur": 25
    },
    {
      "t": 1538.3,
      "ch": 5,
      "note": 49,
      "vel": 34,
      "dur": 834
    },
    {
      "t": 1538.3,
      "ch": 1,
      "note": 42,
      "vel": 79,
      "dur": 25
    },
    {
      "t": 1538.4,
      "ch": 0,
      "note": 36,
      "vel": 91,
      "dur": 55
    },
    {
      "t": 1538.4,
      "ch": 1,
      "note": 36,
      "vel": 125,
      "dur": 25
    },
    {
      "t": 1538.4,
      "ch": 7,
      "note": 48,
      "vel": 81,
      "dur": 80
    },
    {
      "t": 1538.4,
      "ch": 7,
      "note": 36,
      "vel": 68,
      "dur": 80
    },
    {
      "t": 1538.5,
      "ch": 1,
      "note": 38,
      "vel": 123,
      "dur": 25
    },
    {
      "t": 1538.5,
      "ch": 1,
      "note": 40,
      "vel": 88,
      "dur": 25
    },
    {
      "t": 1538.6,
      "ch": 7,
      "note": 45,
      "vel": 71,
      "dur": 80
    },
    {
      "t": 1538.6,
      "ch": 7,
      "note": 38,
      "vel": 72,
      "dur": 80
    },
    {
      "t": 1538.6,
      "ch": 1,
      "note": 42,
      "vel": 91,
      "dur": 25
    },
    {
      "t": 1538.7,
      "ch": 1,
      "note": 36,
      "vel": 102,
      "dur": 25
    },
    {
      "t": 1538.8,
      "ch": 6,
      "note": 56,
      "vel": 6,
      "dur": 400
    },
    {
      "t": 1538.8,
      "ch": 1,
      "note": 38,
      "vel": 81,
      "dur": 25
    },
    {
      "t": 1538.8,
      "ch": 1,
      "note": 40,
      "vel": 103,
      "dur": 25
    },
    {
      "t": 1538.9,
      "ch": 4,
      "note": 58,
      "vel": 82,
      "dur": 2350
    },
    {
      "t": 1538.9,
      "ch": 3,
      "note": 44,
      "vel": 69,
      "dur": 2400
    },
    {
      "t": 1538.9,
      "ch": 1,
      "note": 42,
      "vel": 107,
      "dur": 25
    },
    {
      "t": 1539,
      "ch": 0,
      "note": 36,
      "vel": 89,
      "dur": 55
    },
    {
      "t": 1539,
      "ch": 1,
      "note": 36,
      "vel": 127,
      "dur": 25
    },
    {
      "t": 1539,
      "ch": 7,
      "note": 48,
      "vel": 75,
      "dur": 80
    },
    {
      "t": 1539,
      "ch": 7,
      "note": 36,
      "vel": 70,
      "dur": 80
    },
    {
      "t": 1539,
      "ch": 6,
      "note": 51,
      "vel": 23,
      "dur": 558
    },
    {
      "t": 1539.1,
      "ch": 1,
      "note": 38,
      "vel": 84,
      "dur": 25
    },
    {
      "t": 1539.1,
      "ch": 1,
      "note": 40,
      "vel": 88,
      "dur": 25
    },
    {
      "t": 1539.2,
      "ch": 1,
      "note": 42,
      "vel": 82,
      "dur": 25
    },
    {
      "t": 1539.3,
      "ch": 1,
      "note": 36,
      "vel": 97,
      "dur": 25
    },
    {
      "t": 1539.3,
      "ch": 7,
      "note": 36,
      "vel": 64,
      "dur": 80
    },
    {
      "t": 1539.3,
      "ch": 7,
      "note": 45,
      "vel": 66,
      "dur": 80
    },
    {
      "t": 1539.3,
      "ch": 7,
      "note": 38,
      "vel": 59,
      "dur": 80
    },
    {
      "t": 1539.4,
      "ch": 1,
      "note": 38,
      "vel": 96,
      "dur": 25
    },
    {
      "t": 1539.4,
      "ch": 1,
      "note": 40,
      "vel": 81,
      "dur": 25
    },
    {
      "t": 1539.5,
      "ch": 1,
      "note": 42,
      "vel": 91,
      "dur": 25
    },
    {
      "t": 1539.6,
      "ch": 0,
      "note": 36,
      "vel": 92,
      "dur": 55
    },
    {
      "t": 1539.6,
      "ch": 1,
      "note": 36,
      "vel": 96,
      "dur": 25
    },
    {
      "t": 1539.6,
      "ch": 7,
      "note": 48,
      "vel": 77,
      "dur": 80
    },
    {
      "t": 1539.6,
      "ch": 7,
      "note": 36,
      "vel": 65,
      "dur": 80
    },
    {
      "t": 1539.7,
      "ch": 1,
      "note": 38,
      "vel": 88,
      "dur": 25
    },
    {
      "t": 1539.7,
      "ch": 1,
      "note": 40,
      "vel": 84,
      "dur": 25
    },
    {
      "t": 1539.8,
      "ch": 1,
      "note": 42,
      "vel": 79,
      "dur": 25
    },
    {
      "t": 1539.9,
      "ch": 1,
      "note": 36,
      "vel": 78,
      "dur": 25
    },
    {
      "t": 1540,
      "ch": 1,
      "note": 38,
      "vel": 108,
      "dur": 25
    },
    {
      "t": 1540,
      "ch": 1,
      "note": 40,
      "vel": 104,
      "dur": 25
    },
    {
      "t": 1540.1,
      "ch": 5,
      "note": 54,
      "vel": 54,
      "dur": 842
    },
    {
      "t": 1540.1,
      "ch": 1,
      "note": 42,
      "vel": 92,
      "dur": 25
    },
    {
      "t": 1540.2,
      "ch": 0,
      "note": 36,
      "vel": 109,
      "dur": 55
    },
    {
      "t": 1540.2,
      "ch": 1,
      "note": 36,
      "vel": 101,
      "dur": 25
    },
    {
      "t": 1540.2,
      "ch": 7,
      "note": 48,
      "vel": 72,
      "dur": 80
    },
    {
      "t": 1540.2,
      "ch": 7,
      "note": 45,
      "vel": 64,
      "dur": 80
    },
    {
      "t": 1540.2,
      "ch": 7,
      "note": 36,
      "vel": 60,
      "dur": 80
    },
    {
      "t": 1540.2,
      "ch": 7,
      "note": 38,
      "vel": 84,
      "dur": 80
    },
    {
      "t": 1540.3,
      "ch": 1,
      "note": 38,
      "vel": 90,
      "dur": 25
    },
    {
      "t": 1540.3,
      "ch": 1,
      "note": 40,
      "vel": 87,
      "dur": 25
    },
    {
      "t": 1540.4,
      "ch": 1,
      "note": 42,
      "vel": 85,
      "dur": 25
    },
    {
      "t": 1540.5,
      "ch": 1,
      "note": 36,
      "vel": 111,
      "dur": 25
    },
    {
      "t": 1540.5,
      "ch": 7,
      "note": 36,
      "vel": 54,
      "dur": 80
    },
    {
      "t": 1540.6,
      "ch": 1,
      "note": 38,
      "vel": 93,
      "dur": 25
    },
    {
      "t": 1540.6,
      "ch": 1,
      "note": 40,
      "vel": 84,
      "dur": 25
    },
    {
      "t": 1540.7,
      "ch": 1,
      "note": 42,
      "vel": 102,
      "dur": 25
    },
    {
      "t": 1540.8,
      "ch": 0,
      "note": 36,
      "vel": 87,
      "dur": 55
    },
    {
      "t": 1540.8,
      "ch": 1,
      "note": 36,
      "vel": 102,
      "dur": 25
    },
    {
      "t": 1540.8,
      "ch": 7,
      "note": 48,
      "vel": 69,
      "dur": 80
    },
    {
      "t": 1540.8,
      "ch": 7,
      "note": 36,
      "vel": 80,
      "dur": 80
    },
    {
      "t": 1540.9,
      "ch": 1,
      "note": 38,
      "vel": 114,
      "dur": 25
    },
    {
      "t": 1540.9,
      "ch": 1,
      "note": 40,
      "vel": 98,
      "dur": 25
    },
    {
      "t": 1541,
      "ch": 7,
      "note": 45,
      "vel": 51,
      "dur": 80
    },
    {
      "t": 1541,
      "ch": 7,
      "note": 38,
      "vel": 65,
      "dur": 80
    },
    {
      "t": 1541,
      "ch": 5,
      "note": 70,
      "vel": 55,
      "dur": 845
    },
    {
      "t": 1541,
      "ch": 6,
      "note": 73,
      "vel": 23,
      "dur": 564
    },
    {
      "t": 1541,
      "ch": 1,
      "note": 42,
      "vel": 93,
      "dur": 25
    },
    {
      "t": 1541.1,
      "ch": 1,
      "note": 36,
      "vel": 99,
      "dur": 25
    },
    {
      "t": 1541.1,
      "ch": 6,
      "note": 54,
      "vel": 35,
      "dur": 564
    },
    {
      "t": 1541.2,
      "ch": 1,
      "note": 38,
      "vel": 80,
      "dur": 25
    },
    {
      "t": 1541.2,
      "ch": 1,
      "note": 40,
      "vel": 87,
      "dur": 25
    },
    {
      "t": 1541.3,
      "ch": 2,
      "note": 54,
      "vel": 0,
      "dur": 0
    },
    {
      "t": 1541.3,
      "ch": 2,
      "note": 49,
      "vel": 61,
      "dur": 18000
    },
    {
      "t": 1541.3,
      "ch": 4,
      "note": 58,
      "vel": 83,
      "dur": 2350
    },
    {
      "t": 1541.3,
      "ch": 3,
      "note": 35,
      "vel": 68,
      "dur": 2400
    },
    {
      "t": 1541.3,
      "ch": 1,
      "note": 42,
      "vel": 94,
      "dur": 25
    },
    {
      "t": 1541.4,
      "ch": 0,
      "note": 36,
      "vel": 92,
      "dur": 55
    },
    {
      "t": 1541.4,
      "ch": 1,
      "note": 36,
      "vel": 75,
      "dur": 25
    },
    {
      "t": 1541.4,
      "ch": 7,
      "note": 48,
      "vel": 70,
      "dur": 80
    },
    {
      "t": 1541.4,
      "ch": 7,
      "note": 36,
      "vel": 64,
      "dur": 80
    },
    {
      "t": 1541.5,
      "ch": 1,
      "note": 38,
      "vel": 94,
      "dur": 25
    },
    {
      "t": 1541.5,
      "ch": 1,
      "note": 40,
      "vel": 81,
      "dur": 25
    },
    {
      "t": 1541.6,
      "ch": 6,
      "note": 64,
      "vel": 37,
      "dur": 565
    },
    {
      "t": 1541.6,
      "ch": 1,
      "note": 42,
      "vel": 79,
      "dur": 25
    },
    {
      "t": 1541.7,
      "ch": 1,
      "note": 36,
      "vel": 77,
      "dur": 25
    },
    {
      "t": 1541.7,
      "ch": 7,
      "note": 38,
      "vel": 62,
      "dur": 80
    },
    {
      "t": 1541.7,
      "ch": 7,
      "note": 36,
      "vel": 63,
      "dur": 80
    },
    {
      "t": 1541.7,
      "ch": 7,
      "note": 45,
      "vel": 62,
      "dur": 80
    },
    {
      "t": 1541.8,
      "ch": 1,
      "note": 38,
      "vel": 80,
      "dur": 25
    },
    {
      "t": 1541.8,
      "ch": 1,
      "note": 40,
      "vel": 97,
      "dur": 25
    },
    {
      "t": 1541.9,
      "ch": 1,
      "note": 42,
      "vel": 96,
      "dur": 25
    },
    {
      "t": 1542,
      "ch": 0,
      "note": 36,
      "vel": 98,
      "dur": 55
    },
    {
      "t": 1542,
      "ch": 1,
      "note": 36,
      "vel": 90,
      "dur": 25
    },
    {
      "t": 1542,
      "ch": 7,
      "note": 48,
      "vel": 65,
      "dur": 80
    },
    {
      "t": 1542,
      "ch": 7,
      "note": 36,
      "vel": 79,
      "dur": 80
    },
    {
      "t": 1542.1,
      "ch": 1,
      "note": 38,
      "vel": 95,
      "dur": 25
    },
    {
      "t": 1542.1,
      "ch": 1,
      "note": 40,
      "vel": 77,
      "dur": 25
    },
    {
      "t": 1542.2,
      "ch": 1,
      "note": 42,
      "vel": 81,
      "dur": 25
    },
    {
      "t": 1542.3,
      "ch": 1,
      "note": 36,
      "vel": 88,
      "dur": 25
    },
    {
      "t": 1542.4,
      "ch": 1,
      "note": 38,
      "vel": 89,
      "dur": 25
    },
    {
      "t": 1542.4,
      "ch": 1,
      "note": 40,
      "vel": 97,
      "dur": 25
    },
    {
      "t": 1542.4,
      "ch": 5,
      "note": 51,
      "vel": 34,
      "dur": 848
    },
    {
      "t": 1542.5,
      "ch": 6,
      "note": 59,
      "vel": 32,
      "dur": 565
    },
    {
      "t": 1542.5,
      "ch": 1,
      "note": 42,
      "vel": 88,
      "dur": 25
    },
    {
      "t": 1542.6,
      "ch": 0,
      "note": 36,
      "vel": 107,
      "dur": 55
    },
    {
      "t": 1542.6,
      "ch": 1,
      "note": 36,
      "vel": 104,
      "dur": 25
    },
    {
      "t": 1542.6,
      "ch": 7,
      "note": 48,
      "vel": 66,
      "dur": 80
    },
    {
      "t": 1542.6,
      "ch": 7,
      "note": 45,
      "vel": 70,
      "dur": 80
    },
    {
      "t": 1542.6,
      "ch": 7,
      "note": 36,
      "vel": 66,
      "dur": 80
    },
    {
      "t": 1542.6,
      "ch": 7,
      "note": 38,
      "vel": 67,
      "dur": 80
    },
    {
      "t": 1542.6,
      "ch": 6,
      "note": 64,
      "vel": 29,
      "dur": 565
    },
    {
      "t": 1542.7,
      "ch": 6,
      "note": 58,
      "vel": 51,
      "dur": 400
    },
    {
      "t": 1542.7,
      "ch": 1,
      "note": 38,
      "vel": 97,
      "dur": 25
    },
    {
      "t": 1542.7,
      "ch": 1,
      "note": 40,
      "vel": 104,
      "dur": 25
    },
    {
      "t": 1542.8,
      "ch": 1,
      "note": 42,
      "vel": 89,
      "dur": 25
    },
    {
      "t": 1542.9,
      "ch": 1,
      "note": 36,
      "vel": 86,
      "dur": 25
    },
    {
      "t": 1542.9,
      "ch": 7,
      "note": 36,
      "vel": 59,
      "dur": 80
    },
    {
      "t": 1543,
      "ch": 1,
      "note": 38,
      "vel": 95,
      "dur": 25
    },
    {
      "t": 1543.1,
      "ch": 1,
      "note": 40,
      "vel": 85,
      "dur": 25
    },
    {
      "t": 1543.1,
      "ch": 1,
      "note": 42,
      "vel": 78,
      "dur": 25
    },
    {
      "t": 1543.2,
      "ch": 0,
      "note": 36,
      "vel": 93,
      "dur": 55
    },
    {
      "t": 1543.2,
      "ch": 1,
      "note": 36,
      "vel": 116,
      "dur": 25
    },
    {
      "t": 1543.2,
      "ch": 7,
      "note": 48,
      "vel": 78,
      "dur": 80
    },
    {
      "t": 1543.2,
      "ch": 7,
      "note": 36,
      "vel": 70,
      "dur": 80
    },
    {
      "t": 1543.3,
      "ch": 1,
      "note": 38,
      "vel": 114,
      "dur": 25
    },
    {
      "t": 1543.3,
      "ch": 1,
      "note": 40,
      "vel": 101,
      "dur": 25
    },
    {
      "t": 1543.4,
      "ch": 7,
      "note": 38,
      "vel": 66,
      "dur": 80
    },
    {
      "t": 1543.4,
      "ch": 5,
      "note": 61,
      "vel": 29,
      "dur": 847
    },
    {
      "t": 1543.4,
      "ch": 7,
      "note": 45,
      "vel": 70,
      "dur": 80
    },
    {
      "t": 1543.4,
      "ch": 1,
      "note": 42,
      "vel": 90,
      "dur": 25
    },
    {
      "t": 1543.5,
      "ch": 1,
      "note": 36,
      "vel": 115,
      "dur": 25
    },
    {
      "t": 1543.6,
      "ch": 1,
      "note": 38,
      "vel": 83,
      "dur": 25
    },
    {
      "t": 1543.6,
      "ch": 1,
      "note": 40,
      "vel": 92,
      "dur": 25
    },
    {
      "t": 1543.7,
      "ch": 6,
      "note": 58,
      "vel": 57,
      "dur": 564
    },
    {
      "t": 1543.7,
      "ch": 4,
      "note": 59,
      "vel": 64,
      "dur": 2350
    },
    {
      "t": 1543.7,
      "ch": 3,
      "note": 40,
      "vel": 68,
      "dur": 2400
    },
    {
      "t": 1543.7,
      "ch": 1,
      "note": 42,
      "vel": 100,
      "dur": 25
    },
    {
      "t": 1543.8,
      "ch": 0,
      "note": 36,
      "vel": 95,
      "dur": 55
    },
    {
      "t": 1543.8,
      "ch": 1,
      "note": 36,
      "vel": 91,
      "dur": 25
    },
    {
      "t": 1543.8,
      "ch": 7,
      "note": 48,
      "vel": 75,
      "dur": 80
    },
    {
      "t": 1543.8,
      "ch": 7,
      "note": 36,
      "vel": 60,
      "dur": 80
    },
    {
      "t": 1543.9,
      "ch": 1,
      "note": 38,
      "vel": 127,
      "dur": 25
    },
    {
      "t": 1543.9,
      "ch": 1,
      "note": 40,
      "vel": 86,
      "dur": 25
    },
    {
      "t": 1544,
      "ch": 1,
      "note": 42,
      "vel": 81,
      "dur": 25
    },
    {
      "t": 1544.1,
      "ch": 1,
      "note": 36,
      "vel": 89,
      "dur": 25
    },
    {
      "t": 1544.1,
      "ch": 7,
      "note": 36,
      "vel": 59,
      "dur": 80
    },
    {
      "t": 1544.1,
      "ch": 7,
      "note": 38,
      "vel": 61,
      "dur": 80
    },
    {
      "t": 1544.1,
      "ch": 7,
      "note": 45,
      "vel": 62,
      "dur": 80
    },
    {
      "t": 1544.2,
      "ch": 1,
      "note": 38,
      "vel": 103,
      "dur": 25
    },
    {
      "t": 1544.3,
      "ch": 1,
      "note": 40,
      "vel": 95,
      "dur": 25
    },
    {
      "t": 1544.3,
      "ch": 1,
      "note": 42,
      "vel": 97,
      "dur": 25
    },
    {
      "t": 1544.4,
      "ch": 0,
      "note": 36,
      "vel": 89,
      "dur": 55
    },
    {
      "t": 1544.4,
      "ch": 1,
      "note": 36,
      "vel": 91,
      "dur": 25
    },
    {
      "t": 1544.4,
      "ch": 7,
      "note": 48,
      "vel": 75,
      "dur": 80
    },
    {
      "t": 1544.4,
      "ch": 7,
      "note": 36,
      "vel": 75,
      "dur": 80
    },
    {
      "t": 1544.4,
      "ch": 5,
      "note": 56,
      "vel": 30,
      "dur": 845
    },
    {
      "t": 1544.5,
      "ch": 1,
      "note": 38,
      "vel": 118,
      "dur": 25
    },
    {
      "t": 1544.5,
      "ch": 1,
      "note": 40,
      "vel": 73,
      "dur": 25
    },
    {
      "t": 1544.6,
      "ch": 1,
      "note": 42,
      "vel": 84,
      "dur": 25
    },
    {
      "t": 1544.7,
      "ch": 1,
      "note": 36,
      "vel": 103,
      "dur": 25
    },
    {
      "t": 1544.8,
      "ch": 1,
      "note": 38,
      "vel": 96,
      "dur": 25
    },
    {
      "t": 1544.8,
      "ch": 1,
      "note": 40,
      "vel": 74,
      "dur": 25
    },
    {
      "t": 1544.9,
      "ch": 1,
      "note": 42,
      "vel": 93,
      "dur": 25
    },
    {
      "t": 1545,
      "ch": 0,
      "note": 36,
      "vel": 109,
      "dur": 55
    },
    {
      "t": 1545,
      "ch": 1,
      "note": 36,
      "vel": 115,
      "dur": 25
    },
    {
      "t": 1545,
      "ch": 7,
      "note": 48,
      "vel": 72,
      "dur": 80
    },
    {
      "t": 1545,
      "ch": 7,
      "note": 45,
      "vel": 66,
      "dur": 80
    },
    {
      "t": 1545,
      "ch": 7,
      "note": 36,
      "vel": 73,
      "dur": 80
    },
    {
      "t": 1545,
      "ch": 7,
      "note": 38,
      "vel": 79,
      "dur": 80
    },
    {
      "t": 1545.1,
      "ch": 1,
      "note": 38,
      "vel": 116,
      "dur": 25
    },
    {
      "t": 1545.1,
      "ch": 1,
      "note": 40,
      "vel": 97,
      "dur": 25
    },
    {
      "t": 1545.2,
      "ch": 1,
      "note": 42,
      "vel": 63,
      "dur": 25
    },
    {
      "t": 1545.3,
      "ch": 1,
      "note": 36,
      "vel": 76,
      "dur": 25
    },
    {
      "t": 1545.3,
      "ch": 7,
      "note": 36,
      "vel": 58,
      "dur": 80
    },
    {
      "t": 1545.3,
      "ch": 5,
      "note": 61,
      "vel": 32,
      "dur": 842
    },
    {
      "t": 1545.4,
      "ch": 1,
      "note": 38,
      "vel": 89,
      "dur": 25
    },
    {
      "t": 1545.4,
      "ch": 1,
      "note": 40,
      "vel": 94,
      "dur": 25
    },
    {
      "t": 1545.5,
      "ch": 6,
      "note": 64,
      "vel": 23,
      "dur": 561
    },
    {
      "t": 1545.5,
      "ch": 1,
      "note": 42,
      "vel": 90,
      "dur": 25
    },
    {
      "t": 1545.6,
      "ch": 0,
      "note": 36,
      "vel": 97,
      "dur": 55
    },
    {
      "t": 1545.6,
      "ch": 1,
      "note": 36,
      "vel": 124,
      "dur": 25
    },
    {
      "t": 1545.6,
      "ch": 7,
      "note": 48,
      "vel": 77,
      "dur": 80
    },
    {
      "t": 1545.6,
      "ch": 7,
      "note": 36,
      "vel": 69,
      "dur": 80
    },
    {
      "t": 1545.7,
      "ch": 1,
      "note": 38,
      "vel": 127,
      "dur": 25
    },
    {
      "t": 1545.8,
      "ch": 1,
      "note": 40,
      "vel": 110,
      "dur": 25
    },
    {
      "t": 1545.8,
      "ch": 7,
      "note": 45,
      "vel": 59,
      "dur": 80
    },
    {
      "t": 1545.8,
      "ch": 7,
      "note": 38,
      "vel": 70,
      "dur": 80
    },
    {
      "t": 1545.8,
      "ch": 1,
      "note": 42,
      "vel": 93,
      "dur": 25
    },
    {
      "t": 1545.9,
      "ch": 1,
      "note": 36,
      "vel": 104,
      "dur": 25
    },
    {
      "t": 1546,
      "ch": 1,
      "note": 38,
      "vel": 71,
      "dur": 25
    },
    {
      "t": 1546,
      "ch": 1,
      "note": 40,
      "vel": 93,
      "dur": 25
    },
    {
      "t": 1546.1,
      "ch": 4,
      "note": 59,
      "vel": 66,
      "dur": 2350
    },
    {
      "t": 1546.1,
      "ch": 3,
      "note": 42,
      "vel": 69,
      "dur": 2400
    },
    {
      "t": 1546.1,
      "ch": 1,
      "note": 42,
      "vel": 74,
      "dur": 25
    },
    {
      "t": 1546.2,
      "ch": 0,
      "note": 36,
      "vel": 97,
      "dur": 55
    },
    {
      "t": 1546.2,
      "ch": 1,
      "note": 36,
      "vel": 112,
      "dur": 25
    },
    {
      "t": 1546.2,
      "ch": 7,
      "note": 48,
      "vel": 60,
      "dur": 80
    },
    {
      "t": 1546.2,
      "ch": 7,
      "note": 36,
      "vel": 65,
      "dur": 80
    },
    {
      "t": 1546.3,
      "ch": 1,
      "note": 38,
      "vel": 122,
      "dur": 25
    },
    {
      "t": 1546.3,
      "ch": 1,
      "note": 40,
      "vel": 84,
      "dur": 25
    },
    {
      "t": 1546.4,
      "ch": 6,
      "note": 61,
      "vel": 35,
      "dur": 558
    },
    {
      "t": 1546.4,
      "ch": 1,
      "note": 42,
      "vel": 93,
      "dur": 25
    },
    {
      "t": 1546.5,
      "ch": 1,
      "note": 36,
      "vel": 86,
      "dur": 25
    },
    {
      "t": 1546.5,
      "ch": 7,
      "note": 38,
      "vel": 62,
      "dur": 80
    },
    {
      "t": 1546.5,
      "ch": 7,
      "note": 45,
      "vel": 62,
      "dur": 80
    },
    {
      "t": 1546.5,
      "ch": 7,
      "note": 36,
      "vel": 70,
      "dur": 80
    },
    {
      "t": 1546.6,
      "ch": 1,
      "note": 38,
      "vel": 91,
      "dur": 25
    },
    {
      "t": 1546.6,
      "ch": 1,
      "note": 40,
      "vel": 72,
      "dur": 25
    },
    {
      "t": 1546.7,
      "ch": 1,
      "note": 42,
      "vel": 106,
      "dur": 25
    },
    {
      "t": 1546.8,
      "ch": 0,
      "note": 36,
      "vel": 91,
      "dur": 55
    },
    {
      "t": 1546.8,
      "ch": 1,
      "note": 36,
      "vel": 97,
      "dur": 25
    },
    {
      "t": 1546.8,
      "ch": 7,
      "note": 48,
      "vel": 68,
      "dur": 80
    },
    {
      "t": 1546.8,
      "ch": 7,
      "note": 36,
      "vel": 65,
      "dur": 80
    },
    {
      "t": 1546.8,
      "ch": 5,
      "note": 59,
      "vel": 29,
      "dur": 834
    },
    {
      "t": 1546.9,
      "ch": 1,
      "note": 38,
      "vel": 105,
      "dur": 25
    },
    {
      "t": 1546.9,
      "ch": 1,
      "note": 40,
      "vel": 111,
      "dur": 25
    },
    {
      "t": 1547,
      "ch": 1,
      "note": 42,
      "vel": 101,
      "dur": 25
    },
    {
      "t": 1547.1,
      "ch": 1,
      "note": 36,
      "vel": 99,
      "dur": 25
    },
    {
      "t": 1547.2,
      "ch": 1,
      "note": 38,
      "vel": 95,
      "dur": 25
    },
    {
      "t": 1547.2,
      "ch": 1,
      "note": 40,
      "vel": 102,
      "dur": 25
    },
    {
      "t": 1547.3,
      "ch": 6,
      "note": 64,
      "vel": 24,
      "dur": 400
    },
    {
      "t": 1547.3,
      "ch": 1,
      "note": 42,
      "vel": 106,
      "dur": 25
    },
    {
      "t": 1547.4,
      "ch": 0,
      "note": 36,
      "vel": 122,
      "dur": 55
    },
    {
      "t": 1547.4,
      "ch": 1,
      "note": 36,
      "vel": 109,
      "dur": 25
    },
    {
      "t": 1547.4,
      "ch": 7,
      "note": 48,
      "vel": 69,
      "dur": 80
    },
    {
      "t": 1547.4,
      "ch": 7,
      "note": 45,
      "vel": 74,
      "dur": 80
    },
    {
      "t": 1547.4,
      "ch": 7,
      "note": 36,
      "vel": 73,
      "dur": 80
    },
    {
      "t": 1547.4,
      "ch": 7,
      "note": 38,
      "vel": 77,
      "dur": 80
    },
    {
      "t": 1547.5,
      "ch": 1,
      "note": 38,
      "vel": 115,
      "dur": 25
    },
    {
      "t": 1547.5,
      "ch": 1,
      "note": 40,
      "vel": 87,
      "dur": 25
    },
    {
      "t": 1547.6,
      "ch": 1,
      "note": 42,
      "vel": 105,
      "dur": 25
    },
    {
      "t": 1547.7,
      "ch": 1,
      "note": 36,
      "vel": 85,
      "dur": 25
    },
    {
      "t": 1547.7,
      "ch": 7,
      "note": 36,
      "vel": 61,
      "dur": 80
    },
    {
      "t": 1547.7,
      "ch": 6,
      "note": 73,
      "vel": 24,
      "dur": 552
    },
    {
      "t": 1547.8,
      "ch": 1,
      "note": 38,
      "vel": 91,
      "dur": 25
    },
    {
      "t": 1547.8,
      "ch": 1,
      "note": 40,
      "vel": 86,
      "dur": 25
    },
    {
      "t": 1547.9,
      "ch": 1,
      "note": 42,
      "vel": 96,
      "dur": 25
    },
    {
      "t": 1548,
      "ch": 0,
      "note": 36,
      "vel": 95,
      "dur": 55
    },
    {
      "t": 1548,
      "ch": 1,
      "note": 36,
      "vel": 127,
      "dur": 25
    },
    {
      "t": 1548,
      "ch": 7,
      "note": 48,
      "vel": 69,
      "dur": 80
    },
    {
      "t": 1548,
      "ch": 7,
      "note": 36,
      "vel": 73,
      "dur": 80
    },
    {
      "t": 1548.1,
      "ch": 1,
      "note": 38,
      "vel": 111,
      "dur": 25
    },
    {
      "t": 1548.1,
      "ch": 1,
      "note": 40,
      "vel": 104,
      "dur": 25
    },
    {
      "t": 1548.2,
      "ch": 7,
      "note": 45,
      "vel": 70,
      "dur": 80
    },
    {
      "t": 1548.2,
      "ch": 7,
      "note": 38,
      "vel": 73,
      "dur": 80
    },
    {
      "t": 1548.2,
      "ch": 1,
      "note": 42,
      "vel": 76,
      "dur": 25
    },
    {
      "t": 1548.3,
      "ch": 1,
      "note": 36,
      "vel": 94,
      "dur": 25
    },
    {
      "t": 1548.4,
      "ch": 1,
      "note": 38,
      "vel": 105,
      "dur": 25
    },
    {
      "t": 1548.5,
      "ch": 1,
      "note": 40,
      "vel": 99,
      "dur": 25
    },
    {
      "t": 1548.5,
      "ch": 1,
      "note": 42,
      "vel": 102,
      "dur": 25
    },
    {
      "t": 1548.6,
      "ch": 0,
      "note": 36,
      "vel": 95,
      "dur": 55
    },
    {
      "t": 1548.6,
      "ch": 1,
      "note": 36,
      "vel": 100,
      "dur": 25
    },
    {
      "t": 1548.6,
      "ch": 7,
      "note": 48,
      "vel": 75,
      "dur": 80
    },
    {
      "t": 1548.6,
      "ch": 7,
      "note": 36,
      "vel": 73,
      "dur": 80
    },
    {
      "t": 1548.7,
      "ch": 1,
      "note": 38,
      "vel": 104,
      "dur": 25
    },
    {
      "t": 1548.7,
      "ch": 1,
      "note": 40,
      "vel": 104,
      "dur": 25
    },
    {
      "t": 1548.8,
      "ch": 1,
      "note": 42,
      "vel": 86,
      "dur": 25
    },
    {
      "t": 1548.9,
      "ch": 1,
      "note": 36,
      "vel": 88,
      "dur": 25
    },
    {
      "t": 1548.9,
      "ch": 7,
      "note": 36,
      "vel": 69,
      "dur": 80
    },
    {
      "t": 1548.9,
      "ch": 7,
      "note": 38,
      "vel": 62,
      "dur": 80
    },
    {
      "t": 1548.9,
      "ch": 7,
      "note": 45,
      "vel": 67,
      "dur": 80
    },
    {
      "t": 1549,
      "ch": 1,
      "note": 38,
      "vel": 119,
      "dur": 25
    },
    {
      "t": 1549,
      "ch": 1,
      "note": 40,
      "vel": 80,
      "dur": 25
    },
    {
      "t": 1549.1,
      "ch": 1,
      "note": 42,
      "vel": 67,
      "dur": 25
    },
    {
      "t": 1549.2,
      "ch": 0,
      "note": 36,
      "vel": 96,
      "dur": 55
    },
    {
      "t": 1549.2,
      "ch": 1,
      "note": 36,
      "vel": 96,
      "dur": 25
    },
    {
      "t": 1549.2,
      "ch": 7,
      "note": 48,
      "vel": 73,
      "dur": 80
    },
    {
      "t": 1549.2,
      "ch": 7,
      "note": 36,
      "vel": 72,
      "dur": 80
    },
    {
      "t": 1549.3,
      "ch": 1,
      "note": 38,
      "vel": 118,
      "dur": 25
    },
    {
      "t": 1549.3,
      "ch": 1,
      "note": 40,
      "vel": 93,
      "dur": 25
    },
    {
      "t": 1549.4,
      "ch": 1,
      "note": 42,
      "vel": 113,
      "dur": 25
    },
    {
      "t": 1549.5,
      "ch": 1,
      "note": 36,
      "vel": 87,
      "dur": 25
    },
    {
      "t": 1549.5,
      "ch": 5,
      "note": 70,
      "vel": 48,
      "dur": 817
    },
    {
      "t": 1549.6,
      "ch": 1,
      "note": 38,
      "vel": 102,
      "dur": 25
    },
    {
      "t": 1549.6,
      "ch": 1,
      "note": 40,
      "vel": 109,
      "dur": 25
    },
    {
      "t": 1549.7,
      "ch": 1,
      "note": 42,
      "vel": 96,
      "dur": 25
    },
    {
      "t": 1549.8,
      "ch": 0,
      "note": 36,
      "vel": 110,
      "dur": 55
    },
    {
      "t": 1549.8,
      "ch": 1,
      "note": 36,
      "vel": 93,
      "dur": 25
    },
    {
      "t": 1549.8,
      "ch": 7,
      "note": 48,
      "vel": 76,
      "dur": 80
    },
    {
      "t": 1549.8,
      "ch": 7,
      "note": 45,
      "vel": 69,
      "dur": 80
    },
    {
      "t": 1549.8,
      "ch": 7,
      "note": 36,
      "vel": 67,
      "dur": 80
    },
    {
      "t": 1549.8,
      "ch": 7,
      "note": 38,
      "vel": 70,
      "dur": 80
    },
    {
      "t": 1549.9,
      "ch": 1,
      "note": 38,
      "vel": 93,
      "dur": 25
    },
    {
      "t": 1549.9,
      "ch": 1,
      "note": 40,
      "vel": 98,
      "dur": 25
    },
    {
      "t": 1550,
      "ch": 1,
      "note": 42,
      "vel": 93,
      "dur": 25
    },
    {
      "t": 1550.1,
      "ch": 1,
      "note": 36,
      "vel": 91,
      "dur": 25
    },
    {
      "t": 1550.1,
      "ch": 7,
      "note": 36,
      "vel": 68,
      "dur": 80
    },
    {
      "t": 1550.2,
      "ch": 1,
      "note": 38,
      "vel": 100,
      "dur": 25
    },
    {
      "t": 1550.2,
      "ch": 1,
      "note": 40,
      "vel": 89,
      "dur": 25
    },
    {
      "t": 1550.3,
      "ch": 1,
      "note": 42,
      "vel": 71,
      "dur": 25
    },
    {
      "t": 1550.4,
      "ch": 0,
      "note": 36,
      "vel": 89,
      "dur": 55
    },
    {
      "t": 1550.4,
      "ch": 1,
      "note": 36,
      "vel": 116,
      "dur": 25
    },
    {
      "t": 1550.4,
      "ch": 7,
      "note": 48,
      "vel": 72,
      "dur": 80
    },
    {
      "t": 1550.4,
      "ch": 7,
      "note": 36,
      "vel": 75,
      "dur": 80
    },
    {
      "t": 1550.4,
      "ch": 5,
      "note": 51,
      "vel": 59,
      "dur": 812
    },
    {
      "t": 1550.5,
      "ch": 1,
      "note": 38,
      "vel": 102,
      "dur": 25
    },
    {
      "t": 1550.5,
      "ch": 1,
      "note": 40,
      "vel": 109,
      "dur": 25
    },
    {
      "t": 1550.6,
      "ch": 7,
      "note": 38,
      "vel": 55,
      "dur": 80
    },
    {
      "t": 1550.6,
      "ch": 7,
      "note": 45,
      "vel": 60,
      "dur": 80
    },
    {
      "t": 1550.6,
      "ch": 5,
      "note": 63,
      "vel": 44,
      "dur": 811
    },
    {
      "t": 1550.6,
      "ch": 1,
      "note": 42,
      "vel": 98,
      "dur": 25
    },
    {
      "t": 1550.7,
      "ch": 1,
      "note": 36,
      "vel": 89,
      "dur": 25
    },
    {
      "t": 1550.8,
      "ch": 6,
      "note": 54,
      "vel": 27,
      "dur": 400
    },
    {
      "t": 1550.8,
      "ch": 1,
      "note": 38,
      "vel": 93,
      "dur": 25
    },
    {
      "t": 1550.8,
      "ch": 1,
      "note": 40,
      "vel": 95,
      "dur": 25
    },
    {
      "t": 1550.9,
      "ch": 2,
      "note": 49,
      "vel": 62,
      "dur": 18000
    },
    {
      "t": 1550.9,
      "ch": 1,
      "note": 42,
      "vel": 119,
      "dur": 25
    },
    {
      "t": 1551,
      "ch": 0,
      "note": 36,
      "vel": 95,
      "dur": 55
    },
    {
      "t": 1551,
      "ch": 1,
      "note": 36,
      "vel": 126,
      "dur": 25
    },
    {
      "t": 1551,
      "ch": 7,
      "note": 48,
      "vel": 82,
      "dur": 80
    },
    {
      "t": 1551,
      "ch": 7,
      "note": 36,
      "vel": 65,
      "dur": 80
    },
    {
      "t": 1551.1,
      "ch": 1,
      "note": 38,
      "vel": 110,
      "dur": 25
    },
    {
      "t": 1551.1,
      "ch": 1,
      "note": 40,
      "vel": 96,
      "dur": 25
    },
    {
      "t": 1551.2,
      "ch": 1,
      "note": 42,
      "vel": 80,
      "dur": 25
    },
    {
      "t": 1551.3,
      "ch": 1,
      "note": 36,
      "vel": 100,
      "dur": 25
    },
    {
      "t": 1551.3,
      "ch": 7,
      "note": 45,
      "vel": 64,
      "dur": 80
    },
    {
      "t": 1551.3,
      "ch": 7,
      "note": 38,
      "vel": 61,
      "dur": 80
    },
    {
      "t": 1551.3,
      "ch": 7,
      "note": 36,
      "vel": 69,
      "dur": 80
    },
    {
      "t": 1551.3,
      "ch": 6,
      "note": 54,
      "vel": 19,
      "dur": 538
    },
    {
      "t": 1551.4,
      "ch": 1,
      "note": 38,
      "vel": 76,
      "dur": 25
    },
    {
      "t": 1551.5,
      "ch": 1,
      "note": 40,
      "vel": 100,
      "dur": 25
    },
    {
      "t": 1551.5,
      "ch": 5,
      "note": 56,
      "vel": 43,
      "dur": 807
    },
    {
      "t": 1551.5,
      "ch": 6,
      "note": 64,
      "vel": 33,
      "dur": 538
    },
    {
      "t": 1551.5,
      "ch": 1,
      "note": 42,
      "vel": 110,
      "dur": 25
    },
    {
      "t": 1551.6,
      "ch": 0,
      "note": 36,
      "vel": 92,
      "dur": 55
    },
    {
      "t": 1551.6,
      "ch": 1,
      "note": 36,
      "vel": 126,
      "dur": 25
    },
    {
      "t": 1551.6,
      "ch": 7,
      "note": 48,
      "vel": 75,
      "dur": 80
    },
    {
      "t": 1551.6,
      "ch": 7,
      "note": 36,
      "vel": 69,
      "dur": 80
    },
    {
      "t": 1551.6,
      "ch": 6,
      "note": 59,
      "vel": 39,
      "dur": 537
    },
    {
      "t": 1551.7,
      "ch": 1,
      "note": 38,
      "vel": 110,
      "dur": 25
    },
    {
      "t": 1551.7,
      "ch": 1,
      "note": 40,
      "vel": 117,
      "dur": 25
    },
    {
      "t": 1551.8,
      "ch": 6,
      "note": 59,
      "vel": 34,
      "dur": 537
    },
    {
      "t": 1551.8,
      "ch": 1,
      "note": 42,
      "vel": 98,
      "dur": 25
    },
    {
      "t": 1551.9,
      "ch": 6,
      "note": 59,
      "vel": 29,
      "dur": 400
    },
    {
      "t": 1551.9,
      "ch": 1,
      "note": 36,
      "vel": 113,
      "dur": 25
    },
    {
      "t": 1552,
      "ch": 1,
      "note": 38,
      "vel": 94,
      "dur": 25
    },
    {
      "t": 1552,
      "ch": 1,
      "note": 40,
      "vel": 100,
      "dur": 25
    },
    {
      "t": 1552.1,
      "ch": 1,
      "note": 42,
      "vel": 80,
      "dur": 25
    },
    {
      "t": 1552.2,
      "ch": 0,
      "note": 36,
      "vel": 110,
      "dur": 55
    },
    {
      "t": 1552.2,
      "ch": 1,
      "note": 36,
      "vel": 127,
      "dur": 25
    },
    {
      "t": 1552.2,
      "ch": 7,
      "note": 48,
      "vel": 76,
      "dur": 80
    },
    {
      "t": 1552.2,
      "ch": 7,
      "note": 45,
      "vel": 76,
      "dur": 80
    },
    {
      "t": 1552.2,
      "ch": 7,
      "note": 36,
      "vel": 62,
      "dur": 80
    },
    {
      "t": 1552.2,
      "ch": 7,
      "note": 38,
      "vel": 70,
      "dur": 80
    },
    {
      "t": 1552.3,
      "ch": 1,
      "note": 38,
      "vel": 118,
      "dur": 25
    },
    {
      "t": 1552.3,
      "ch": 1,
      "note": 40,
      "vel": 115,
      "dur": 25
    },
    {
      "t": 1552.4,
      "ch": 6,
      "note": 59,
      "vel": 50,
      "dur": 535
    },
    {
      "t": 1552.4,
      "ch": 1,
      "note": 42,
      "vel": 92,
      "dur": 25
    },
    {
      "t": 1552.5,
      "ch": 1,
      "note": 36,
      "vel": 100,
      "dur": 25
    },
    {
      "t": 1552.5,
      "ch": 7,
      "note": 36,
      "vel": 63,
      "dur": 80
    },
    {
      "t": 1552.6,
      "ch": 1,
      "note": 38,
      "vel": 86,
      "dur": 25
    },
    {
      "t": 1552.6,
      "ch": 1,
      "note": 40,
      "vel": 98,
      "dur": 25
    },
    {
      "t": 1552.7,
      "ch": 1,
      "note": 42,
      "vel": 93,
      "dur": 25
    },
    {
      "t": 1552.8,
      "ch": 0,
      "note": 36,
      "vel": 90,
      "dur": 55
    },
    {
      "t": 1552.8,
      "ch": 1,
      "note": 36,
      "vel": 127,
      "dur": 25
    },
    {
      "t": 1552.8,
      "ch": 7,
      "note": 48,
      "vel": 78,
      "dur": 80
    },
    {
      "t": 1552.8,
      "ch": 7,
      "note": 36,
      "vel": 62,
      "dur": 80
    },
    {
      "t": 1552.8,
      "ch": 6,
      "note": 64,
      "vel": 59,
      "dur": 535
    },
    {
      "t": 1552.9,
      "ch": 1,
      "note": 38,
      "vel": 124,
      "dur": 25
    },
    {
      "t": 1552.9,
      "ch": 1,
      "note": 40,
      "vel": 107,
      "dur": 25
    },
    {
      "t": 1553,
      "ch": 7,
      "note": 45,
      "vel": 62,
      "dur": 80
    },
    {
      "t": 1553,
      "ch": 7,
      "note": 38,
      "vel": 65,
      "dur": 80
    },
    {
      "t": 1553,
      "ch": 5,
      "note": 61,
      "vel": 52,
      "dur": 802
    },
    {
      "t": 1553,
      "ch": 6,
      "note": 64,
      "vel": 26,
      "dur": 534
    },
    {
      "t": 1553,
      "ch": 1,
      "note": 42,
      "vel": 115,
      "dur": 25
    },
    {
      "t": 1553.1,
      "ch": 1,
      "note": 36,
      "vel": 100,
      "dur": 25
    },
    {
      "t": 1553.2,
      "ch": 1,
      "note": 38,
      "vel": 113,
      "dur": 25
    },
    {
      "t": 1553.2,
      "ch": 1,
      "note": 40,
      "vel": 99,
      "dur": 25
    },
    {
      "t": 1553.3,
      "ch": 1,
      "note": 42,
      "vel": 108,
      "dur": 25
    },
    {
      "t": 1553.3,
      "ch": 6,
      "note": 64,
      "vel": 27,
      "dur": 400
    },
    {
      "t": 1553.4,
      "ch": 0,
      "note": 36,
      "vel": 97,
      "dur": 55
    },
    {
      "t": 1553.4,
      "ch": 1,
      "note": 36,
      "vel": 95,
      "dur": 25
    },
    {
      "t": 1553.4,
      "ch": 7,
      "note": 48,
      "vel": 66,
      "dur": 80
    },
    {
      "t": 1553.4,
      "ch": 7,
      "note": 36,
      "vel": 73,
      "dur": 80
    },
    {
      "t": 1553.4,
      "ch": 5,
      "note": 59,
      "vel": 42,
      "dur": 801
    },
    {
      "t": 1553.5,
      "ch": 1,
      "note": 38,
      "vel": 122,
      "dur": 25
    },
    {
      "t": 1553.5,
      "ch": 1,
      "note": 40,
      "vel": 100,
      "dur": 25
    },
    {
      "t": 1553.6,
      "ch": 6,
      "note": 63,
      "vel": 62,
      "dur": 534
    },
    {
      "t": 1553.6,
      "ch": 1,
      "note": 42,
      "vel": 119,
      "dur": 25
    },
    {
      "t": 1553.6,
      "ch": 6,
      "note": 66,
      "vel": 43,
      "dur": 400
    },
    {
      "t": 1553.7,
      "ch": 1,
      "note": 36,
      "vel": 106,
      "dur": 25
    },
    {
      "t": 1553.7,
      "ch": 7,
      "note": 45,
      "vel": 65,
      "dur": 80
    },
    {
      "t": 1553.7,
      "ch": 7,
      "note": 38,
      "vel": 59,
      "dur": 80
    },
    {
      "t": 1553.7,
      "ch": 7,
      "note": 36,
      "vel": 61,
      "dur": 80
    },
    {
      "t": 1553.8,
      "ch": 1,
      "note": 38,
      "vel": 99,
      "dur": 25
    },
    {
      "t": 1553.8,
      "ch": 1,
      "note": 40,
      "vel": 88,
      "dur": 25
    },
    {
      "t": 1553.9,
      "ch": 1,
      "note": 42,
      "vel": 80,
      "dur": 25
    },
    {
      "t": 1554,
      "ch": 0,
      "note": 36,
      "vel": 89,
      "dur": 55
    },
    {
      "t": 1554,
      "ch": 1,
      "note": 36,
      "vel": 93,
      "dur": 25
    },
    {
      "t": 1554,
      "ch": 7,
      "note": 48,
      "vel": 74,
      "dur": 80
    },
    {
      "t": 1554,
      "ch": 7,
      "note": 36,
      "vel": 65,
      "dur": 80
    },
    {
      "t": 1554.1,
      "ch": 1,
      "note": 38,
      "vel": 109,
      "dur": 25
    },
    {
      "t": 1554.1,
      "ch": 1,
      "note": 40,
      "vel": 102,
      "dur": 25
    },
    {
      "t": 1554.2,
      "ch": 1,
      "note": 42,
      "vel": 96,
      "dur": 25
    },
    {
      "t": 1554.3,
      "ch": 1,
      "note": 36,
      "vel": 104,
      "dur": 25
    },
    {
      "t": 1554.3,
      "ch": 6,
      "note": 73,
      "vel": 42,
      "dur": 533
    },
    {
      "t": 1554.4,
      "ch": 1,
      "note": 38,
      "vel": 105,
      "dur": 25
    },
    {
      "t": 1554.5,
      "ch": 1,
      "note": 40,
      "vel": 92,
      "dur": 25
    },
    {
      "t": 1554.5,
      "ch": 1,
      "note": 42,
      "vel": 112,
      "dur": 25
    },
    {
      "t": 1554.6,
      "ch": 0,
      "note": 36,
      "vel": 120,
      "dur": 55
    },
    {
      "t": 1554.6,
      "ch": 1,
      "note": 36,
      "vel": 110,
      "dur": 25
    },
    {
      "t": 1554.6,
      "ch": 7,
      "note": 48,
      "vel": 59,
      "dur": 80
    },
    {
      "t": 1554.6,
      "ch": 7,
      "note": 45,
      "vel": 66,
      "dur": 80
    },
    {
      "t": 1554.6,
      "ch": 7,
      "note": 36,
      "vel": 67,
      "dur": 80
    },
    {
      "t": 1554.6,
      "ch": 7,
      "note": 38,
      "vel": 72,
      "dur": 80
    },
    {
      "t": 1554.7,
      "ch": 1,
      "note": 38,
      "vel": 104,
      "dur": 25
    },
    {
      "t": 1554.7,
      "ch": 1,
      "note": 40,
      "vel": 88,
      "dur": 25
    },
    {
      "t": 1554.8,
      "ch": 1,
      "note": 42,
      "vel": 109,
      "dur": 25
    },
    {
      "t": 1554.9,
      "ch": 1,
      "note": 36,
      "vel": 114,
      "dur": 25
    },
    {
      "t": 1554.9,
      "ch": 7,
      "note": 36,
      "vel": 60,
      "dur": 80
    },
    {
      "t": 1555,
      "ch": 1,
      "note": 38,
      "vel": 89,
      "dur": 25
    },
    {
      "t": 1555,
      "ch": 1,
      "note": 40,
      "vel": 97,
      "dur": 25
    },
    {
      "t": 1555.1,
      "ch": 5,
      "note": 52,
      "vel": 53,
      "dur": 800
    },
    {
      "t": 1555.1,
      "ch": 1,
      "note": 42,
      "vel": 104,
      "dur": 25
    },
    {
      "t": 1555.2,
      "ch": 0,
      "note": 36,
      "vel": 96,
      "dur": 55
    },
    {
      "t": 1555.2,
      "ch": 1,
      "note": 36,
      "vel": 104,
      "dur": 25
    },
    {
      "t": 1555.2,
      "ch": 7,
      "note": 48,
      "vel": 76,
      "dur": 80
    },
    {
      "t": 1555.2,
      "ch": 7,
      "note": 36,
      "vel": 73,
      "dur": 80
    },
    {
      "t": 1555.2,
      "ch": 6,
      "note": 56,
      "vel": 61,
      "dur": 534
    },
    {
      "t": 1555.3,
      "ch": 1,
      "note": 38,
      "vel": 127,
      "dur": 25
    },
    {
      "t": 1555.3,
      "ch": 1,
      "note": 40,
      "vel": 108,
      "dur": 25
    },
    {
      "t": 1555.4,
      "ch": 7,
      "note": 45,
      "vel": 59,
      "dur": 80
    },
    {
      "t": 1555.4,
      "ch": 7,
      "note": 38,
      "vel": 63,
      "dur": 80
    },
    {
      "t": 1555.4,
      "ch": 1,
      "note": 42,
      "vel": 84,
      "dur": 25
    },
    {
      "t": 1555.5,
      "ch": 6,
      "note": 56,
      "vel": 34,
      "dur": 400
    },
    {
      "t": 1555.5,
      "ch": 1,
      "note": 36,
      "vel": 91,
      "dur": 25
    },
    {
      "t": 1555.5,
      "ch": 6,
      "note": 56,
      "vel": 50,
      "dur": 534
    },
    {
      "t": 1555.6,
      "ch": 1,
      "note": 38,
      "vel": 79,
      "dur": 25
    },
    {
      "t": 1555.6,
      "ch": 1,
      "note": 40,
      "vel": 102,
      "dur": 25
    },
    {
      "t": 1555.7,
      "ch": 1,
      "note": 42,
      "vel": 108,
      "dur": 25
    },
    {
      "t": 1555.8,
      "ch": 0,
      "note": 36,
      "vel": 95,
      "dur": 55
    },
    {
      "t": 1555.8,
      "ch": 1,
      "note": 36,
      "vel": 89,
      "dur": 25
    },
    {
      "t": 1555.8,
      "ch": 7,
      "note": 48,
      "vel": 77,
      "dur": 80
    },
    {
      "t": 1555.8,
      "ch": 7,
      "note": 36,
      "vel": 67,
      "dur": 80
    },
    {
      "t": 1555.9,
      "ch": 1,
      "note": 38,
      "vel": 107,
      "dur": 25
    },
    {
      "t": 1555.9,
      "ch": 1,
      "note": 40,
      "vel": 105,
      "dur": 25
    },
    {
      "t": 1556,
      "ch": 6,
      "note": 56,
      "vel": 71,
      "dur": 535
    },
    {
      "t": 1556,
      "ch": 1,
      "note": 42,
      "vel": 82,
      "dur": 25
    },
    {
      "t": 1556.1,
      "ch": 1,
      "note": 36,
      "vel": 80,
      "dur": 25
    },
    {
      "t": 1556.1,
      "ch": 7,
      "note": 38,
      "vel": 64,
      "dur": 80
    },
    {
      "t": 1556.1,
      "ch": 7,
      "note": 45,
      "vel": 57,
      "dur": 80
    },
    {
      "t": 1556.1,
      "ch": 7,
      "note": 36,
      "vel": 51,
      "dur": 80
    },
    {
      "t": 1556.2,
      "ch": 1,
      "note": 38,
      "vel": 101,
      "dur": 25
    },
    {
      "t": 1556.3,
      "ch": 1,
      "note": 40,
      "vel": 90,
      "dur": 25
    },
    {
      "t": 1556.3,
      "ch": 1,
      "note": 42,
      "vel": 103,
      "dur": 25
    },
    {
      "t": 1556.4,
      "ch": 0,
      "note": 36,
      "vel": 90,
      "dur": 55
    },
    {
      "t": 1556.4,
      "ch": 1,
      "note": 36,
      "vel": 127,
      "dur": 25
    },
    {
      "t": 1556.4,
      "ch": 7,
      "note": 48,
      "vel": 72,
      "dur": 80
    },
    {
      "t": 1556.4,
      "ch": 7,
      "note": 36,
      "vel": 69,
      "dur": 80
    },
    {
      "t": 1556.5,
      "ch": 1,
      "note": 38,
      "vel": 104,
      "dur": 25
    },
    {
      "t": 1556.5,
      "ch": 1,
      "note": 40,
      "vel": 89,
      "dur": 25
    },
    {
      "t": 1556.6,
      "ch": 5,
      "note": 64,
      "vel": 34,
      "dur": 804
    },
    {
      "t": 1556.6,
      "ch": 1,
      "note": 42,
      "vel": 95,
      "dur": 25
    },
    {
      "t": 1556.7,
      "ch": 1,
      "note": 36,
      "vel": 105,
      "dur": 25
    },
    {
      "t": 1556.7,
      "ch": 6,
      "note": 59,
      "vel": 25,
      "dur": 536
    },
    {
      "t": 1556.7,
      "ch": 5,
      "note": 61,
      "vel": 47,
      "dur": 805
    },
    {
      "t": 1556.8,
      "ch": 1,
      "note": 38,
      "vel": 86,
      "dur": 25
    },
    {
      "t": 1556.8,
      "ch": 1,
      "note": 40,
      "vel": 75,
      "dur": 25
    },
    {
      "t": 1556.9,
      "ch": 1,
      "note": 42,
      "vel": 81,
      "dur": 25
    },
    {
      "t": 1556.9,
      "ch": 6,
      "note": 66,
      "vel": 16,
      "dur": 400
    },
    {
      "t": 1557,
      "ch": 0,
      "note": 36,
      "vel": 109,
      "dur": 55
    },
    {
      "t": 1557,
      "ch": 1,
      "note": 36,
      "vel": 121,
      "dur": 25
    },
    {
      "t": 1557,
      "ch": 7,
      "note": 48,
      "vel": 56,
      "dur": 80
    },
    {
      "t": 1557,
      "ch": 7,
      "note": 45,
      "vel": 63,
      "dur": 80
    },
    {
      "t": 1557,
      "ch": 7,
      "note": 36,
      "vel": 58,
      "dur": 80
    },
    {
      "t": 1557,
      "ch": 7,
      "note": 38,
      "vel": 73,
      "dur": 80
    },
    {
      "t": 1557,
      "ch": 5,
      "note": 71,
      "vel": 62,
      "dur": 806
    },
    {
      "t": 1557.1,
      "ch": 1,
      "note": 38,
      "vel": 124,
      "dur": 25
    },
    {
      "t": 1557.1,
      "ch": 1,
      "note": 40,
      "vel": 121,
      "dur": 25
    },
    {
      "t": 1557.2,
      "ch": 1,
      "note": 42,
      "vel": 65,
      "dur": 25
    },
    {
      "t": 1557.3,
      "ch": 1,
      "note": 36,
      "vel": 80,
      "dur": 25
    },
    {
      "t": 1557.3,
      "ch": 7,
      "note": 36,
      "vel": 53,
      "dur": 80
    },
    {
      "t": 1557.4,
      "ch": 1,
      "note": 38,
      "vel": 95,
      "dur": 25
    },
    {
      "t": 1557.5,
      "ch": 1,
      "note": 40,
      "vel": 101,
      "dur": 25
    },
    {
      "t": 1557.5,
      "ch": 1,
      "note": 42,
      "vel": 95,
      "dur": 25
    },
    {
      "t": 1557.6,
      "ch": 0,
      "note": 36,
      "vel": 88,
      "dur": 55
    },
    {
      "t": 1557.6,
      "ch": 1,
      "note": 36,
      "vel": 105,
      "dur": 25
    },
    {
      "t": 1557.6,
      "ch": 7,
      "note": 48,
      "vel": 74,
      "dur": 80
    },
    {
      "t": 1557.6,
      "ch": 7,
      "note": 36,
      "vel": 64,
      "dur": 80
    },
    {
      "t": 1557.6,
      "ch": 6,
      "note": 68,
      "vel": 28,
      "dur": 539
    },
    {
      "t": 1557.7,
      "ch": 1,
      "note": 38,
      "vel": 127,
      "dur": 25
    },
    {
      "t": 1557.8,
      "ch": 1,
      "note": 40,
      "vel": 84,
      "dur": 25
    },
    {
      "t": 1557.8,
      "ch": 7,
      "note": 38,
      "vel": 53,
      "dur": 80
    },
    {
      "t": 1557.8,
      "ch": 7,
      "note": 45,
      "vel": 58,
      "dur": 80
    },
    {
      "t": 1557.8,
      "ch": 1,
      "note": 42,
      "vel": 80,
      "dur": 25
    },
    {
      "t": 1557.9,
      "ch": 1,
      "note": 36,
      "vel": 74,
      "dur": 25
    },
    {
      "t": 1557.9,
      "ch": 6,
      "note": 64,
      "vel": 33,
      "dur": 540
    },
    {
      "t": 1558,
      "ch": 1,
      "note": 38,
      "vel": 86,
      "dur": 25
    },
    {
      "t": 1558.1,
      "ch": 1,
      "note": 40,
      "vel": 84,
      "dur": 25
    },
    {
      "t": 1558.1,
      "ch": 4,
      "note": 59,
      "vel": 74,
      "dur": 2350
    },
    {
      "t": 1558.1,
      "ch": 3,
      "note": 40,
      "vel": 74,
      "dur": 2400
    },
    {
      "t": 1558.1,
      "ch": 1,
      "note": 42,
      "vel": 95,
      "dur": 25
    },
    {
      "t": 1558.2,
      "ch": 0,
      "note": 36,
      "vel": 89,
      "dur": 55
    },
    {
      "t": 1558.2,
      "ch": 1,
      "note": 36,
      "vel": 98,
      "dur": 25
    },
    {
      "t": 1558.2,
      "ch": 7,
      "note": 48,
      "vel": 72,
      "dur": 80
    },
    {
      "t": 1558.2,
      "ch": 7,
      "note": 36,
      "vel": 74,
      "dur": 80
    },
    {
      "t": 1558.3,
      "ch": 1,
      "note": 38,
      "vel": 117,
      "dur": 25
    },
    {
      "t": 1558.3,
      "ch": 1,
      "note": 40,
      "vel": 86,
      "dur": 25
    },
    {
      "t": 1558.4,
      "ch": 6,
      "note": 73,
      "vel": 45,
      "dur": 542
    },
    {
      "t": 1558.4,
      "ch": 1,
      "note": 42,
      "vel": 109,
      "dur": 25
    },
    {
      "t": 1558.5,
      "ch": 1,
      "note": 36,
      "vel": 79,
      "dur": 25
    },
    {
      "t": 1558.5,
      "ch": 7,
      "note": 36,
      "vel": 61,
      "dur": 80
    },
    {
      "t": 1558.5,
      "ch": 7,
      "note": 38,
      "vel": 66,
      "dur": 80
    },
    {
      "t": 1558.5,
      "ch": 7,
      "note": 45,
      "vel": 56,
      "dur": 80
    },
    {
      "t": 1558.5,
      "ch": 6,
      "note": 70,
      "vel": 56,
      "dur": 542
    },
    {
      "t": 1558.5,
      "ch": 5,
      "note": 66,
      "vel": 31,
      "dur": 813
    },
    {
      "t": 1558.6,
      "ch": 1,
      "note": 38,
      "vel": 72,
      "dur": 25
    },
    {
      "t": 1558.6,
      "ch": 1,
      "note": 40,
      "vel": 95,
      "dur": 25
    },
    {
      "t": 1558.7,
      "ch": 5,
      "note": 53,
      "vel": 31,
      "dur": 814
    },
    {
      "t": 1558.7,
      "ch": 1,
      "note": 42,
      "vel": 116,
      "dur": 25
    },
    {
      "t": 1558.8,
      "ch": 0,
      "note": 36,
      "vel": 89,
      "dur": 55
    },
    {
      "t": 1558.8,
      "ch": 1,
      "note": 36,
      "vel": 114,
      "dur": 25
    },
    {
      "t": 1558.8,
      "ch": 7,
      "note": 48,
      "vel": 64,
      "dur": 80
    },
    {
      "t": 1558.8,
      "ch": 7,
      "note": 36,
      "vel": 57,
      "dur": 80
    },
    {
      "t": 1558.9,
      "ch": 1,
      "note": 38,
      "vel": 88,
      "dur": 25
    },
    {
      "t": 1558.9,
      "ch": 6,
      "note": 70,
      "vel": 35,
      "dur": 400
    },
    {
      "t": 1558.9,
      "ch": 1,
      "note": 40,
      "vel": 69,
      "dur": 25
    },
    {
      "t": 1559,
      "ch": 1,
      "note": 42,
      "vel": 90,
      "dur": 25
    },
    {
      "t": 1559.1,
      "ch": 1,
      "note": 36,
      "vel": 103,
      "dur": 25
    },
    {
      "t": 1559.1,
      "ch": 5,
      "note": 52,
      "vel": 44,
      "dur": 816
    },
    {
      "t": 1559.2,
      "ch": 1,
      "note": 38,
      "vel": 85,
      "dur": 25
    },
    {
      "t": 1559.3,
      "ch": 1,
      "note": 40,
      "vel": 88,
      "dur": 25
    },
    {
      "t": 1559.3,
      "ch": 5,
      "note": 64,
      "vel": 55,
      "dur": 817
    },
    {
      "t": 1559.3,
      "ch": 1,
      "note": 42,
      "vel": 91,
      "dur": 25
    },
    {
      "t": 1559.4,
      "ch": 0,
      "note": 36,
      "vel": 118,
      "dur": 55
    },
    {
      "t": 1559.4,
      "ch": 1,
      "note": 36,
      "vel": 118,
      "dur": 25
    },
    {
      "t": 1559.4,
      "ch": 7,
      "note": 48,
      "vel": 82,
      "dur": 80
    },
    {
      "t": 1559.4,
      "ch": 7,
      "note": 45,
      "vel": 77,
      "dur": 80
    },
    {
      "t": 1559.4,
      "ch": 7,
      "note": 36,
      "vel": 55,
      "dur": 80
    },
    {
      "t": 1559.4,
      "ch": 7,
      "note": 38,
      "vel": 78,
      "dur": 80
    },
    {
      "t": 1559.4,
      "ch": 5,
      "note": 61,
      "vel": 62,
      "dur": 818
    },
    {
      "t": 1559.4,
      "ch": 6,
      "note": 54,
      "vel": 33,
      "dur": 545
    },
    {
      "t": 1559.5,
      "ch": 1,
      "note": 38,
      "vel": 75,
      "dur": 25
    },
    {
      "t": 1559.5,
      "ch": 1,
      "note": 40,
      "vel": 102,
      "dur": 25
    },
    {
      "t": 1559.6,
      "ch": 5,
      "note": 71,
      "vel": 36,
      "dur": 819
    },
    {
      "t": 1559.6,
      "ch": 6,
      "note": 59,
      "vel": 31,
      "dur": 400
    },
    {
      "t": 1559.6,
      "ch": 1,
      "note": 42,
      "vel": 86,
      "dur": 25
    },
    {
      "t": 1559.7,
      "ch": 1,
      "note": 36,
      "vel": 83,
      "dur": 25
    },
    {
      "t": 1559.7,
      "ch": 7,
      "note": 36,
      "vel": 68,
      "dur": 80
    },
    {
      "t": 1559.7,
      "ch": 5,
      "note": 66,
      "vel": 51,
      "dur": 820
    },
    {
      "t": 1559.8,
      "ch": 1,
      "note": 38,
      "vel": 83,
      "dur": 25
    },
    {
      "t": 1559.8,
      "ch": 1,
      "note": 40,
      "vel": 76,
      "dur": 25
    },
    {
      "t": 1559.9,
      "ch": 1,
      "note": 42,
      "vel": 102,
      "dur": 25
    },
    {
      "t": 1560,
      "ch": 0,
      "note": 36,
      "vel": 94,
      "dur": 55
    },
    {
      "t": 1560,
      "ch": 1,
      "note": 36,
      "vel": 113,
      "dur": 25
    },
    {
      "t": 1560,
      "ch": 7,
      "note": 48,
      "vel": 66,
      "dur": 80
    },
    {
      "t": 1560,
      "ch": 7,
      "note": 36,
      "vel": 61,
      "dur": 80
    },
    {
      "t": 1560,
      "ch": 5,
      "note": 51,
      "vel": 50,
      "dur": 822
    },
    {
      "t": 1560.1,
      "ch": 1,
      "note": 38,
      "vel": 110,
      "dur": 25
    },
    {
      "t": 1560.2,
      "ch": 1,
      "note": 40,
      "vel": 114,
      "dur": 25
    },
    {
      "t": 1560.2,
      "ch": 7,
      "note": 38,
      "vel": 55,
      "dur": 80
    },
    {
      "t": 1560.2,
      "ch": 7,
      "note": 45,
      "vel": 64,
      "dur": 80
    },
    {
      "t": 1560.2,
      "ch": 1,
      "note": 42,
      "vel": 94,
      "dur": 25
    },
    {
      "t": 1560.3,
      "ch": 1,
      "note": 36,
      "vel": 103,
      "dur": 25
    },
    {
      "t": 1560.4,
      "ch": 1,
      "note": 38,
      "vel": 73,
      "dur": 25
    },
    {
      "t": 1560.5,
      "ch": 1,
      "note": 40,
      "vel": 94,
      "dur": 25
    },
    {
      "t": 1560.5,
      "ch": 6,
      "note": 54,
      "vel": 57,
      "dur": 550
    },
    {
      "t": 1560.5,
      "ch": 2,
      "note": 49,
      "vel": 61,
      "dur": 18000
    },
    {
      "t": 1560.5,
      "ch": 4,
      "note": 58,
      "vel": 85,
      "dur": 2350
    },
    {
      "t": 1560.5,
      "ch": 3,
      "note": 37,
      "vel": 72,
      "dur": 2400
    },
    {
      "t": 1560.5,
      "ch": 1,
      "note": 42,
      "vel": 85,
      "dur": 25
    },
    {
      "t": 1560.6,
      "ch": 0,
      "note": 36,
      "vel": 98,
      "dur": 55
    },
    {
      "t": 1560.6,
      "ch": 1,
      "note": 36,
      "vel": 80,
      "dur": 25
    },
    {
      "t": 1560.6,
      "ch": 7,
      "note": 48,
      "vel": 77,
      "dur": 80
    },
    {
      "t": 1560.6,
      "ch": 7,
      "note": 36,
      "vel": 67,
      "dur": 80
    },
    {
      "t": 1560.7,
      "ch": 1,
      "note": 38,
      "vel": 110,
      "dur": 25
    },
    {
      "t": 1560.7,
      "ch": 1,
      "note": 40,
      "vel": 85,
      "dur": 25
    },
    {
      "t": 1560.8,
      "ch": 1,
      "note": 42,
      "vel": 98,
      "dur": 25
    },
    {
      "t": 1560.9,
      "ch": 1,
      "note": 36,
      "vel": 77,
      "dur": 25
    },
    {
      "t": 1560.9,
      "ch": 7,
      "note": 38,
      "vel": 58,
      "dur": 80
    },
    {
      "t": 1560.9,
      "ch": 7,
      "note": 45,
      "vel": 55,
      "dur": 80
    },
    {
      "t": 1560.9,
      "ch": 7,
      "note": 36,
      "vel": 69,
      "dur": 80
    },
    {
      "t": 1561,
      "ch": 1,
      "note": 38,
      "vel": 96,
      "dur": 25
    },
    {
      "t": 1561,
      "ch": 1,
      "note": 40,
      "vel": 102,
      "dur": 25
    },
    {
      "t": 1561.1,
      "ch": 1,
      "note": 42,
      "vel": 80,
      "dur": 25
    },
    {
      "t": 1561.2,
      "ch": 0,
      "note": 36,
      "vel": 92,
      "dur": 55
    },
    {
      "t": 1561.2,
      "ch": 1,
      "note": 36,
      "vel": 95,
      "dur": 25
    },
    {
      "t": 1561.2,
      "ch": 7,
      "note": 48,
      "vel": 78,
      "dur": 80
    },
    {
      "t": 1561.2,
      "ch": 7,
      "note": 36,
      "vel": 74,
      "dur": 80
    },
    {
      "t": 1561.2,
      "ch": 6,
      "note": 49,
      "vel": 37,
      "dur": 553
    },
    {
      "t": 1561.3,
      "ch": 1,
      "note": 38,
      "vel": 109,
      "dur": 25
    },
    {
      "t": 1561.3,
      "ch": 1,
      "note": 40,
      "vel": 97,
      "dur": 25
    },
    {
      "t": 1561.4,
      "ch": 1,
      "note": 42,
      "vel": 92,
      "dur": 25
    },
    {
      "t": 1561.5,
      "ch": 1,
      "note": 36,
      "vel": 80,
      "dur": 25
    },
    {
      "t": 1561.5,
      "ch": 6,
      "note": 54,
      "vel": 44,
      "dur": 554
    },
    {
      "t": 1561.5,
      "ch": 5,
      "note": 51,
      "vel": 61,
      "dur": 830
    },
    {
      "t": 1561.6,
      "ch": 1,
      "note": 38,
      "vel": 71,
      "dur": 25
    },
    {
      "t": 1561.6,
      "ch": 1,
      "note": 40,
      "vel": 109,
      "dur": 25
    },
    {
      "t": 1561.7,
      "ch": 0,
      "note": 36,
      "vel": 73,
      "dur": 55
    },
    {
      "t": 1561.7,
      "ch": 1,
      "note": 42,
      "vel": 94,
      "dur": 25
    },
    {
      "t": 1561.8,
      "ch": 6,
      "note": 54,
      "vel": 30,
      "dur": 400
    },
    {
      "t": 1561.8,
      "ch": 0,
      "note": 36,
      "vel": 116,
      "dur": 55
    },
    {
      "t": 1561.8,
      "ch": 1,
      "note": 36,
      "vel": 93,
      "dur": 25
    },
    {
      "t": 1561.8,
      "ch": 7,
      "note": 48,
      "vel": 56,
      "dur": 80
    },
    {
      "t": 1561.8,
      "ch": 7,
      "note": 45,
      "vel": 72,
      "dur": 80
    },
    {
      "t": 1561.8,
      "ch": 7,
      "note": 36,
      "vel": 62,
      "dur": 80
    },
    {
      "t": 1561.8,
      "ch": 7,
      "note": 38,
      "vel": 78,
      "dur": 80
    },
    {
      "t": 1561.9,
      "ch": 1,
      "note": 38,
      "vel": 85,
      "dur": 25
    },
    {
      "t": 1561.9,
      "ch": 1,
      "note": 40,
      "vel": 73,
      "dur": 25
    },
    {
      "t": 1562,
      "ch": 1,
      "note": 42,
      "vel": 70,
      "dur": 25
    },
    {
      "t": 1562.1,
      "ch": 1,
      "note": 36,
      "vel": 87,
      "dur": 25
    },
    {
      "t": 1562.1,
      "ch": 7,
      "note": 36,
      "vel": 72,
      "dur": 80
    },
    {
      "t": 1562.2,
      "ch": 1,
      "note": 38,
      "vel": 76,
      "dur": 25
    },
    {
      "t": 1562.2,
      "ch": 1,
      "note": 40,
      "vel": 113,
      "dur": 25
    },
    {
      "t": 1562.3,
      "ch": 1,
      "note": 42,
      "vel": 100,
      "dur": 25
    },
    {
      "t": 1562.4,
      "ch": 0,
      "note": 36,
      "vel": 100,
      "dur": 55
    },
    {
      "t": 1562.4,
      "ch": 1,
      "note": 36,
      "vel": 100,
      "dur": 25
    },
    {
      "t": 1562.4,
      "ch": 7,
      "note": 48,
      "vel": 81,
      "dur": 80
    },
    {
      "t": 1562.4,
      "ch": 7,
      "note": 36,
      "vel": 74,
      "dur": 80
    },
    {
      "t": 1562.5,
      "ch": 1,
      "note": 38,
      "vel": 97,
      "dur": 25
    },
    {
      "t": 1562.5,
      "ch": 1,
      "note": 40,
      "vel": 101,
      "dur": 25
    },
    {
      "t": 1562.6,
      "ch": 7,
      "note": 38,
      "vel": 57,
      "dur": 80
    },
    {
      "t": 1562.6,
      "ch": 7,
      "note": 45,
      "vel": 59,
      "dur": 80
    },
    {
      "t": 1562.6,
      "ch": 1,
      "note": 42,
      "vel": 103,
      "dur": 25
    },
    {
      "t": 1562.7,
      "ch": 1,
      "note": 36,
      "vel": 98,
      "dur": 25
    },
    {
      "t": 1562.8,
      "ch": 1,
      "note": 38,
      "vel": 85,
      "dur": 25
    },
    {
      "t": 1562.8,
      "ch": 1,
      "note": 40,
      "vel": 98,
      "dur": 25
    },
    {
      "t": 1562.9,
      "ch": 4,
      "note": 58,
      "vel": 84,
      "dur": 2350
    },
    {
      "t": 1562.9,
      "ch": 3,
      "note": 44,
      "vel": 69,
      "dur": 2400
    },
    {
      "t": 1562.9,
      "ch": 1,
      "note": 42,
      "vel": 93,
      "dur": 25
    },
    {
      "t": 1563,
      "ch": 0,
      "note": 36,
      "vel": 96,
      "dur": 55
    },
    {
      "t": 1563,
      "ch": 1,
      "note": 36,
      "vel": 125,
      "dur": 25
    },
    {
      "t": 1563,
      "ch": 7,
      "note": 48,
      "vel": 70,
      "dur": 80
    },
    {
      "t": 1563,
      "ch": 7,
      "note": 36,
      "vel": 70,
      "dur": 80
    },
    {
      "t": 1563,
      "ch": 6,
      "note": 54,
      "vel": 50,
      "dur": 558
    },
    {
      "t": 1563.1,
      "ch": 1,
      "note": 38,
      "vel": 101,
      "dur": 25
    },
    {
      "t": 1563.1,
      "ch": 1,
      "note": 40,
      "vel": 90,
      "dur": 25
    },
    {
      "t": 1563.2,
      "ch": 1,
      "note": 42,
      "vel": 78,
      "dur": 25
    },
    {
      "t": 1563.3,
      "ch": 1,
      "note": 36,
      "vel": 60,
      "dur": 25
    },
    {
      "t": 1563.3,
      "ch": 7,
      "note": 38,
      "vel": 72,
      "dur": 80
    },
    {
      "t": 1563.3,
      "ch": 7,
      "note": 36,
      "vel": 63,
      "dur": 80
    },
    {
      "t": 1563.3,
      "ch": 7,
      "note": 45,
      "vel": 62,
      "dur": 80
    },
    {
      "t": 1563.4,
      "ch": 1,
      "note": 38,
      "vel": 76,
      "dur": 25
    },
    {
      "t": 1563.4,
      "ch": 1,
      "note": 40,
      "vel": 92,
      "dur": 25
    },
    {
      "t": 1563.5,
      "ch": 1,
      "note": 42,
      "vel": 80,
      "dur": 25
    },
    {
      "t": 1563.6,
      "ch": 0,
      "note": 36,
      "vel": 85,
      "dur": 55
    },
    {
      "t": 1563.6,
      "ch": 1,
      "note": 36,
      "vel": 102,
      "dur": 25
    },
    {
      "t": 1563.6,
      "ch": 7,
      "note": 48,
      "vel": 74,
      "dur": 80
    },
    {
      "t": 1563.6,
      "ch": 7,
      "note": 36,
      "vel": 72,
      "dur": 80
    },
    {
      "t": 1563.6,
      "ch": 5,
      "note": 52,
      "vel": 38,
      "dur": 840
    },
    {
      "t": 1563.7,
      "ch": 1,
      "note": 38,
      "vel": 99,
      "dur": 25
    },
    {
      "t": 1563.8,
      "ch": 1,
      "note": 40,
      "vel": 85,
      "dur": 25
    },
    {
      "t": 1563.8,
      "ch": 1,
      "note": 42,
      "vel": 110,
      "dur": 25
    },
    {
      "t": 1563.9,
      "ch": 1,
      "note": 36,
      "vel": 94,
      "dur": 25
    },
    {
      "t": 1563.9,
      "ch": 5,
      "note": 49,
      "vel": 47,
      "dur": 840
    },
    {
      "t": 1564,
      "ch": 1,
      "note": 38,
      "vel": 74,
      "dur": 25
    },
    {
      "t": 1564,
      "ch": 1,
      "note": 40,
      "vel": 97,
      "dur": 25
    },
    {
      "t": 1564.1,
      "ch": 1,
      "note": 42,
      "vel": 91,
      "dur": 25
    },
    {
      "t": 1564.2,
      "ch": 0,
      "note": 36,
      "vel": 120,
      "dur": 55
    },
    {
      "t": 1564.2,
      "ch": 1,
      "note": 36,
      "vel": 113,
      "dur": 25
    },
    {
      "t": 1564.2,
      "ch": 7,
      "note": 48,
      "vel": 78,
      "dur": 80
    },
    {
      "t": 1564.2,
      "ch": 7,
      "note": 45,
      "vel": 65,
      "dur": 80
    },
    {
      "t": 1564.2,
      "ch": 7,
      "note": 36,
      "vel": 75,
      "dur": 80
    },
    {
      "t": 1564.2,
      "ch": 7,
      "note": 38,
      "vel": 64,
      "dur": 80
    },
    {
      "t": 1564.3,
      "ch": 1,
      "note": 38,
      "vel": 98,
      "dur": 25
    },
    {
      "t": 1564.3,
      "ch": 1,
      "note": 40,
      "vel": 111,
      "dur": 25
    },
    {
      "t": 1564.4,
      "ch": 5,
      "note": 71,
      "vel": 43,
      "dur": 842
    },
    {
      "t": 1564.4,
      "ch": 1,
      "note": 42,
      "vel": 109,
      "dur": 25
    },
    {
      "t": 1564.5,
      "ch": 1,
      "note": 36,
      "vel": 71,
      "dur": 25
    },
    {
      "t": 1564.5,
      "ch": 7,
      "note": 36,
      "vel": 64,
      "dur": 80
    },
    {
      "t": 1564.6,
      "ch": 1,
      "note": 38,
      "vel": 87,
      "dur": 25
    },
    {
      "t": 1564.6,
      "ch": 1,
      "note": 40,
      "vel": 99,
      "dur": 25
    },
    {
      "t": 1564.7,
      "ch": 1,
      "note": 42,
      "vel": 105,
      "dur": 25
    },
    {
      "t": 1564.8,
      "ch": 0,
      "note": 36,
      "vel": 89,
      "dur": 55
    },
    {
      "t": 1564.8,
      "ch": 1,
      "note": 36,
      "vel": 95,
      "dur": 25
    },
    {
      "t": 1564.8,
      "ch": 7,
      "note": 48,
      "vel": 76,
      "dur": 80
    },
    {
      "t": 1564.8,
      "ch": 7,
      "note": 36,
      "vel": 67,
      "dur": 80
    },
    {
      "t": 1564.9,
      "ch": 1,
      "note": 38,
      "vel": 102,
      "dur": 25
    },
    {
      "t": 1564.9,
      "ch": 1,
      "note": 40,
      "vel": 90,
      "dur": 25
    },
    {
      "t": 1565,
      "ch": 7,
      "note": 38,
      "vel": 66,
      "dur": 80
    },
    {
      "t": 1565,
      "ch": 7,
      "note": 45,
      "vel": 71,
      "dur": 80
    },
    {
      "t": 1565,
      "ch": 1,
      "note": 42,
      "vel": 94,
      "dur": 25
    },
    {
      "t": 1565.1,
      "ch": 1,
      "note": 36,
      "vel": 81,
      "dur": 25
    },
    {
      "t": 1565.1,
      "ch": 6,
      "note": 56,
      "vel": 47,
      "dur": 562
    },
    {
      "t": 1565.2,
      "ch": 1,
      "note": 38,
      "vel": 86,
      "dur": 25
    },
    {
      "t": 1565.2,
      "ch": 1,
      "note": 40,
      "vel": 99,
      "dur": 25
    },
    {
      "t": 1565.3,
      "ch": 4,
      "note": 59,
      "vel": 67,
      "dur": 2350
    },
    {
      "t": 1565.3,
      "ch": 3,
      "note": 40,
      "vel": 69,
      "dur": 2400
    },
    {
      "t": 1565.3,
      "ch": 1,
      "note": 42,
      "vel": 100,
      "dur": 25
    },
    {
      "t": 1565.4,
      "ch": 0,
      "note": 36,
      "vel": 87,
      "dur": 55
    },
    {
      "t": 1565.4,
      "ch": 1,
      "note": 36,
      "vel": 109,
      "dur": 25
    },
    {
      "t": 1565.4,
      "ch": 7,
      "note": 48,
      "vel": 70,
      "dur": 80
    },
    {
      "t": 1565.4,
      "ch": 7,
      "note": 36,
      "vel": 77,
      "dur": 80
    },
    {
      "t": 1565.5,
      "ch": 1,
      "note": 38,
      "vel": 96,
      "dur": 25
    },
    {
      "t": 1565.5,
      "ch": 1,
      "note": 40,
      "vel": 101,
      "dur": 25
    },
    {
      "t": 1565.6,
      "ch": 1,
      "note": 42,
      "vel": 83,
      "dur": 25
    },
    {
      "t": 1565.7,
      "ch": 1,
      "note": 36,
      "vel": 95,
      "dur": 25
    },
    {
      "t": 1565.7,
      "ch": 7,
      "note": 38,
      "vel": 61,
      "dur": 80
    },
    {
      "t": 1565.7,
      "ch": 7,
      "note": 45,
      "vel": 62,
      "dur": 80
    },
    {
      "t": 1565.7,
      "ch": 7,
      "note": 36,
      "vel": 64,
      "dur": 80
    },
    {
      "t": 1565.8,
      "ch": 1,
      "note": 38,
      "vel": 104,
      "dur": 25
    },
    {
      "t": 1565.9,
      "ch": 1,
      "note": 40,
      "vel": 92,
      "dur": 25
    },
    {
      "t": 1565.9,
      "ch": 1,
      "note": 42,
      "vel": 96,
      "dur": 25
    },
    {
      "t": 1566,
      "ch": 0,
      "note": 36,
      "vel": 91,
      "dur": 55
    },
    {
      "t": 1566,
      "ch": 1,
      "note": 36,
      "vel": 104,
      "dur": 25
    },
    {
      "t": 1566,
      "ch": 7,
      "note": 48,
      "vel": 66,
      "dur": 80
    },
    {
      "t": 1566,
      "ch": 7,
      "note": 36,
      "vel": 69,
      "dur": 80
    },
    {
      "t": 1566.1,
      "ch": 1,
      "note": 38,
      "vel": 107,
      "dur": 25
    },
    {
      "t": 1566.2,
      "ch": 1,
      "note": 40,
      "vel": 77,
      "dur": 25
    },
    {
      "t": 1566.2,
      "ch": 6,
      "note": 54,
      "vel": 20,
      "dur": 562
    },
    {
      "t": 1566.2,
      "ch": 1,
      "note": 42,
      "vel": 98,
      "dur": 25
    },
    {
      "t": 1566.3,
      "ch": 1,
      "note": 36,
      "vel": 70,
      "dur": 25
    },
    {
      "t": 1566.4,
      "ch": 1,
      "note": 38,
      "vel": 72,
      "dur": 25
    },
    {
      "t": 1566.4,
      "ch": 1,
      "note": 40,
      "vel": 92,
      "dur": 25
    },
    {
      "t": 1566.5,
      "ch": 1,
      "note": 42,
      "vel": 107,
      "dur": 25
    },
    {
      "t": 1566.6,
      "ch": 0,
      "note": 36,
      "vel": 120,
      "dur": 55
    },
    {
      "t": 1566.6,
      "ch": 1,
      "note": 36,
      "vel": 121,
      "dur": 25
    },
    {
      "t": 1566.6,
      "ch": 7,
      "note": 48,
      "vel": 66,
      "dur": 80
    },
    {
      "t": 1566.6,
      "ch": 7,
      "note": 45,
      "vel": 62,
      "dur": 80
    },
    {
      "t": 1566.6,
      "ch": 7,
      "note": 36,
      "vel": 64,
      "dur": 80
    },
    {
      "t": 1566.6,
      "ch": 7,
      "note": 38,
      "vel": 67,
      "dur": 80
    },
    {
      "t": 1566.6,
      "ch": 5,
      "note": 70,
      "vel": 52,
      "dur": 842
    },
    {
      "t": 1566.7,
      "ch": 1,
      "note": 38,
      "vel": 123,
      "dur": 25
    },
    {
      "t": 1566.8,
      "ch": 1,
      "note": 40,
      "vel": 83,
      "dur": 25
    },
    {
      "t": 1566.8,
      "ch": 1,
      "note": 42,
      "vel": 107,
      "dur": 25
    },
    {
      "t": 1566.9,
      "ch": 1,
      "note": 36,
      "vel": 84,
      "dur": 25
    },
    {
      "t": 1566.9,
      "ch": 7,
      "note": 36,
      "vel": 70,
      "dur": 80
    },
    {
      "t": 1567,
      "ch": 1,
      "note": 38,
      "vel": 76,
      "dur": 25
    },
    {
      "t": 1567,
      "ch": 1,
      "note": 40,
      "vel": 95,
      "dur": 25
    },
    {
      "t": 1567.1,
      "ch": 1,
      "note": 42,
      "vel": 80,
      "dur": 25
    },
    {
      "t": 1567.2,
      "ch": 0,
      "note": 36,
      "vel": 83,
      "dur": 55
    },
    {
      "t": 1567.2,
      "ch": 1,
      "note": 36,
      "vel": 98,
      "dur": 25
    },
    {
      "t": 1567.2,
      "ch": 7,
      "note": 48,
      "vel": 69,
      "dur": 80
    },
    {
      "t": 1567.2,
      "ch": 7,
      "note": 36,
      "vel": 64,
      "dur": 80
    },
    {
      "t": 1567.3,
      "ch": 1,
      "note": 38,
      "vel": 109,
      "dur": 25
    },
    {
      "t": 1567.3,
      "ch": 1,
      "note": 40,
      "vel": 102,
      "dur": 25
    },
    {
      "t": 1567.4,
      "ch": 7,
      "note": 45,
      "vel": 57,
      "dur": 80
    },
    {
      "t": 1567.4,
      "ch": 7,
      "note": 38,
      "vel": 61,
      "dur": 80
    },
    {
      "t": 1567.4,
      "ch": 6,
      "note": 52,
      "vel": 45,
      "dur": 560
    },
    {
      "t": 1567.4,
      "ch": 1,
      "note": 42,
      "vel": 87,
      "dur": 25
    },
    {
      "t": 1567.5,
      "ch": 1,
      "note": 36,
      "vel": 74,
      "dur": 25
    },
    {
      "t": 1567.6,
      "ch": 1,
      "note": 38,
      "vel": 79,
      "dur": 25
    },
    {
      "t": 1567.6,
      "ch": 1,
      "note": 40,
      "vel": 74,
      "dur": 25
    },
    {
      "t": 1567.7,
      "ch": 4,
      "note": 58,
      "vel": 81,
      "dur": 2350
    },
    {
      "t": 1567.7,
      "ch": 3,
      "note": 44,
      "vel": 69,
      "dur": 2400
    },
    {
      "t": 1567.7,
      "ch": 1,
      "note": 42,
      "vel": 113,
      "dur": 25
    },
    {
      "t": 1567.8,
      "ch": 0,
      "note": 36,
      "vel": 93,
      "dur": 55
    },
    {
      "t": 1567.8,
      "ch": 1,
      "note": 36,
      "vel": 121,
      "dur": 25
    },
    {
      "t": 1567.8,
      "ch": 7,
      "note": 48,
      "vel": 84,
      "dur": 80
    },
    {
      "t": 1567.8,
      "ch": 7,
      "note": 36,
      "vel": 64,
      "dur": 80
    },
    {
      "t": 1567.8,
      "ch": 6,
      "note": 49,
      "vel": 44,
      "dur": 559
    },
    {
      "t": 1567.8,
      "ch": 5,
      "note": 63,
      "vel": 52,
      "dur": 838
    },
    {
      "t": 1567.9,
      "ch": 1,
      "note": 38,
      "vel": 117,
      "dur": 25
    },
    {
      "t": 1568,
      "ch": 1,
      "note": 40,
      "vel": 94,
      "dur": 25
    },
    {
      "t": 1568,
      "ch": 1,
      "note": 42,
      "vel": 74,
      "dur": 25
    },
    {
      "t": 1568.1,
      "ch": 1,
      "note": 36,
      "vel": 104,
      "dur": 25
    },
    {
      "t": 1568.1,
      "ch": 7,
      "note": 36,
      "vel": 61,
      "dur": 80
    },
    {
      "t": 1568.1,
      "ch": 7,
      "note": 38,
      "vel": 66,
      "dur": 80
    },
    {
      "t": 1568.1,
      "ch": 7,
      "note": 45,
      "vel": 60,
      "dur": 80
    },
    {
      "t": 1568.1,
      "ch": 6,
      "note": 73,
      "vel": 38,
      "dur": 558
    },
    {
      "t": 1568.2,
      "ch": 1,
      "note": 38,
      "vel": 79,
      "dur": 25
    },
    {
      "t": 1568.2,
      "ch": 1,
      "note": 40,
      "vel": 87,
      "dur": 25
    },
    {
      "t": 1568.3,
      "ch": 1,
      "note": 42,
      "vel": 86,
      "dur": 25
    },
    {
      "t": 1568.4,
      "ch": 0,
      "note": 36,
      "vel": 93,
      "dur": 55
    },
    {
      "t": 1568.4,
      "ch": 1,
      "note": 36,
      "vel": 95,
      "dur": 25
    },
    {
      "t": 1568.4,
      "ch": 7,
      "note": 48,
      "vel": 77,
      "dur": 80
    },
    {
      "t": 1568.4,
      "ch": 7,
      "note": 36,
      "vel": 75,
      "dur": 80
    },
    {
      "t": 1568.5,
      "ch": 1,
      "note": 38,
      "vel": 89,
      "dur": 25
    },
    {
      "t": 1568.5,
      "ch": 1,
      "note": 40,
      "vel": 98,
      "dur": 25
    },
    {
      "t": 1568.6,
      "ch": 6,
      "note": 73,
      "vel": 27,
      "dur": 557
    },
    {
      "t": 1568.6,
      "ch": 1,
      "note": 42,
      "vel": 95,
      "dur": 25
    },
    {
      "t": 1568.7,
      "ch": 1,
      "note": 36,
      "vel": 74,
      "dur": 25
    },
    {
      "t": 1568.7,
      "ch": 5,
      "note": 51,
      "vel": 47,
      "dur": 835
    },
    {
      "t": 1568.8,
      "ch": 1,
      "note": 38,
      "vel": 91,
      "dur": 25
    },
    {
      "t": 1568.8,
      "ch": 1,
      "note": 40,
      "vel": 102,
      "dur": 25
    },
    {
      "t": 1568.9,
      "ch": 1,
      "note": 42,
      "vel": 99,
      "dur": 25
    },
    {
      "t": 1569,
      "ch": 0,
      "note": 36,
      "vel": 113,
      "dur": 55
    },
    {
      "t": 1569,
      "ch": 1,
      "note": 36,
      "vel": 102,
      "dur": 25
    },
    {
      "t": 1569,
      "ch": 7,
      "note": 48,
      "vel": 80,
      "dur": 80
    },
    {
      "t": 1569,
      "ch": 7,
      "note": 45,
      "vel": 75,
      "dur": 80
    },
    {
      "t": 1569,
      "ch": 7,
      "note": 36,
      "vel": 78,
      "dur": 80
    },
    {
      "t": 1569,
      "ch": 7,
      "note": 38,
      "vel": 69,
      "dur": 80
    },
    {
      "t": 1569,
      "ch": 5,
      "note": 52,
      "vel": 92,
      "dur": 833
    },
    {
      "t": 1569.1,
      "ch": 1,
      "note": 38,
      "vel": 111,
      "dur": 25
    },
    {
      "t": 1569.1,
      "ch": 1,
      "note": 40,
      "vel": 110,
      "dur": 25
    },
    {
      "t": 1569.2,
      "ch": 5,
      "note": 49,
      "vel": 45,
      "dur": 832
    },
    {
      "t": 1569.2,
      "ch": 1,
      "note": 42,
      "vel": 74,
      "dur": 25
    },
    {
      "t": 1569.3,
      "ch": 1,
      "note": 36,
      "vel": 96,
      "dur": 25
    },
    {
      "t": 1569.3,
      "ch": 7,
      "note": 36,
      "vel": 65,
      "dur": 80
    },
    {
      "t": 1569.3,
      "ch": 6,
      "note": 54,
      "vel": 30,
      "dur": 400
    },
    {
      "t": 1569.4,
      "ch": 1,
      "note": 38,
      "vel": 92,
      "dur": 25
    },
    {
      "t": 1569.5,
      "ch": 1,
      "note": 40,
      "vel": 86,
      "dur": 25
    },
    {
      "t": 1569.5,
      "ch": 5,
      "note": 71,
      "vel": 38,
      "dur": 831
    },
    {
      "t": 1569.5,
      "ch": 1,
      "note": 42,
      "vel": 101,
      "dur": 25
    },
    {
      "t": 1569.6,
      "ch": 0,
      "note": 36,
      "vel": 92,
      "dur": 55
    },
    {
      "t": 1569.6,
      "ch": 1,
      "note": 36,
      "vel": 115,
      "dur": 25
    },
    {
      "t": 1569.6,
      "ch": 7,
      "note": 48,
      "vel": 63,
      "dur": 80
    },
    {
      "t": 1569.6,
      "ch": 7,
      "note": 36,
      "vel": 61,
      "dur": 80
    },
    {
      "t": 1569.7,
      "ch": 1,
      "note": 38,
      "vel": 101,
      "dur": 25
    },
    {
      "t": 1569.7,
      "ch": 1,
      "note": 40,
      "vel": 92,
      "dur": 25
    },
    {
      "t": 1569.8,
      "ch": 7,
      "note": 38,
      "vel": 58,
      "dur": 80
    },
    {
      "t": 1569.8,
      "ch": 7,
      "note": 45,
      "vel": 66,
      "dur": 80
    },
    {
      "t": 1569.8,
      "ch": 6,
      "note": 66,
      "vel": 26,
      "dur": 553
    },
    {
      "t": 1569.8,
      "ch": 1,
      "note": 42,
      "vel": 113,
      "dur": 25
    },
    {
      "t": 1569.9,
      "ch": 1,
      "note": 36,
      "vel": 95,
      "dur": 25
    },
    {
      "t": 1569.9,
      "ch": 6,
      "note": 54,
      "vel": 34,
      "dur": 552
    },
    {
      "t": 1570,
      "ch": 1,
      "note": 38,
      "vel": 84,
      "dur": 25
    },
    {
      "t": 1570.1,
      "ch": 1,
      "note": 40,
      "vel": 99,
      "dur": 25
    },
    {
      "t": 1570.1,
      "ch": 5,
      "note": 70,
      "vel": 65,
      "dur": 827
    },
    {
      "t": 1570.1,
      "ch": 2,
      "note": 49,
      "vel": 61,
      "dur": 18000
    },
    {
      "t": 1570.1,
      "ch": 4,
      "note": 58,
      "vel": 86,
      "dur": 2350
    },
    {
      "t": 1570.1,
      "ch": 3,
      "note": 35,
      "vel": 72,
      "dur": 2400
    },
    {
      "t": 1570.1,
      "ch": 1,
      "note": 42,
      "vel": 73,
      "dur": 25
    },
    {
      "t": 1570.2,
      "ch": 0,
      "note": 36,
      "vel": 99,
      "dur": 55
    },
    {
      "t": 1570.2,
      "ch": 1,
      "note": 36,
      "vel": 97,
      "dur": 25
    },
    {
      "t": 1570.2,
      "ch": 7,
      "note": 48,
      "vel": 69,
      "dur": 80
    },
    {
      "t": 1570.2,
      "ch": 7,
      "note": 36,
      "vel": 64,
      "dur": 80
    },
    {
      "t": 1570.2,
      "ch": 5,
      "note": 63,
      "vel": 64,
      "dur": 826
    },
    {
      "t": 1570.3,
      "ch": 1,
      "note": 38,
      "vel": 84,
      "dur": 25
    },
    {
      "t": 1570.3,
      "ch": 1,
      "note": 40,
      "vel": 80,
      "dur": 25
    },
    {
      "t": 1570.4,
      "ch": 1,
      "note": 42,
      "vel": 95,
      "dur": 25
    },
    {
      "t": 1570.5,
      "ch": 1,
      "note": 36,
      "vel": 90,
      "dur": 25
    },
    {
      "t": 1570.5,
      "ch": 7,
      "note": 38,
      "vel": 54,
      "dur": 80
    },
    {
      "t": 1570.5,
      "ch": 7,
      "note": 36,
      "vel": 68,
      "dur": 80
    },
    {
      "t": 1570.5,
      "ch": 7,
      "note": 45,
      "vel": 73,
      "dur": 80
    },
    {
      "t": 1570.5,
      "ch": 6,
      "note": 66,
      "vel": 16,
      "dur": 400
    },
    {
      "t": 1570.6,
      "ch": 1,
      "note": 38,
      "vel": 94,
      "dur": 25
    },
    {
      "t": 1570.7,
      "ch": 1,
      "note": 40,
      "vel": 101,
      "dur": 25
    },
    {
      "t": 1570.7,
      "ch": 6,
      "note": 54,
      "vel": 13,
      "dur": 549
    },
    {
      "t": 1570.7,
      "ch": 1,
      "note": 42,
      "vel": 85,
      "dur": 25
    },
    {
      "t": 1570.8,
      "ch": 0,
      "note": 36,
      "vel": 89,
      "dur": 55
    },
    {
      "t": 1570.8,
      "ch": 1,
      "note": 36,
      "vel": 117,
      "dur": 25
    },
    {
      "t": 1570.8,
      "ch": 7,
      "note": 48,
      "vel": 63,
      "dur": 80
    },
    {
      "t": 1570.8,
      "ch": 7,
      "note": 36,
      "vel": 69,
      "dur": 80
    },
    {
      "t": 1570.9,
      "ch": 1,
      "note": 38,
      "vel": 95,
      "dur": 25
    },
    {
      "t": 1570.9,
      "ch": 1,
      "note": 40,
      "vel": 93,
      "dur": 25
    },
    {
      "t": 1571,
      "ch": 1,
      "note": 42,
      "vel": 88,
      "dur": 25
    },
    {
      "t": 1571.1,
      "ch": 1,
      "note": 36,
      "vel": 84,
      "dur": 25
    },
    {
      "t": 1571.2,
      "ch": 1,
      "note": 38,
      "vel": 85,
      "dur": 25
    },
    {
      "t": 1571.3,
      "ch": 1,
      "note": 40,
      "vel": 77,
      "dur": 25
    },
    {
      "t": 1571.3,
      "ch": 6,
      "note": 73,
      "vel": 10,
      "dur": 546
    },
    {
      "t": 1571.3,
      "ch": 5,
      "note": 70,
      "vel": 33,
      "dur": 820
    },
    {
      "t": 1571.3,
      "ch": 1,
      "note": 42,
      "vel": 76,
      "dur": 25
    },
    {
      "t": 1571.4,
      "ch": 0,
      "note": 36,
      "vel": 118,
      "dur": 55
    },
    {
      "t": 1571.4,
      "ch": 1,
      "note": 36,
      "vel": 122,
      "dur": 25
    },
    {
      "t": 1571.4,
      "ch": 7,
      "note": 48,
      "vel": 69,
      "dur": 80
    },
    {
      "t": 1571.4,
      "ch": 7,
      "note": 45,
      "vel": 65,
      "dur": 80
    },
    {
      "t": 1571.4,
      "ch": 7,
      "note": 36,
      "vel": 68,
      "dur": 80
    },
    {
      "t": 1571.4,
      "ch": 7,
      "note": 38,
      "vel": 83,
      "dur": 80
    },
    {
      "t": 1571.4,
      "ch": 6,
      "note": 73,
      "vel": 33,
      "dur": 546
    },
    {
      "t": 1571.5,
      "ch": 1,
      "note": 38,
      "vel": 116,
      "dur": 25
    },
    {
      "t": 1571.5,
      "ch": 1,
      "note": 40,
      "vel": 106,
      "dur": 25
    },
    {
      "t": 1571.6,
      "ch": 1,
      "note": 42,
      "vel": 93,
      "dur": 25
    },
    {
      "t": 1571.7,
      "ch": 1,
      "note": 36,
      "vel": 108,
      "dur": 25
    },
    {
      "t": 1571.7,
      "ch": 7,
      "note": 36,
      "vel": 68,
      "dur": 80
    },
    {
      "t": 1571.8,
      "ch": 1,
      "note": 38,
      "vel": 88,
      "dur": 25
    },
    {
      "t": 1571.8,
      "ch": 1,
      "note": 40,
      "vel": 102,
      "dur": 25
    },
    {
      "t": 1571.9,
      "ch": 1,
      "note": 42,
      "vel": 105,
      "dur": 25
    },
    {
      "t": 1572,
      "ch": 0,
      "note": 36,
      "vel": 89,
      "dur": 55
    },
    {
      "t": 1572,
      "ch": 1,
      "note": 36,
      "vel": 121,
      "dur": 25
    },
    {
      "t": 1572,
      "ch": 7,
      "note": 48,
      "vel": 81,
      "dur": 80
    },
    {
      "t": 1572,
      "ch": 7,
      "note": 36,
      "vel": 74,
      "dur": 80
    },
    {
      "t": 1572.1,
      "ch": 1,
      "note": 38,
      "vel": 127,
      "dur": 25
    },
    {
      "t": 1572.1,
      "ch": 1,
      "note": 40,
      "vel": 87,
      "dur": 25
    },
    {
      "t": 1572.2,
      "ch": 7,
      "note": 45,
      "vel": 58,
      "dur": 80
    },
    {
      "t": 1572.2,
      "ch": 7,
      "note": 38,
      "vel": 64,
      "dur": 80
    },
    {
      "t": 1572.2,
      "ch": 1,
      "note": 42,
      "vel": 105,
      "dur": 25
    },
    {
      "t": 1572.3,
      "ch": 1,
      "note": 36,
      "vel": 92,
      "dur": 25
    },
    {
      "t": 1572.4,
      "ch": 1,
      "note": 38,
      "vel": 124,
      "dur": 25
    },
    {
      "t": 1572.4,
      "ch": 1,
      "note": 40,
      "vel": 72,
      "dur": 25
    },
    {
      "t": 1572.5,
      "ch": 6,
      "note": 52,
      "vel": 44,
      "dur": 541
    },
    {
      "t": 1572.5,
      "ch": 1,
      "note": 42,
      "vel": 95,
      "dur": 25
    },
    {
      "t": 1572.6,
      "ch": 0,
      "note": 36,
      "vel": 93,
      "dur": 55
    },
    {
      "t": 1572.6,
      "ch": 1,
      "note": 36,
      "vel": 123,
      "dur": 25
    },
    {
      "t": 1572.6,
      "ch": 7,
      "note": 48,
      "vel": 70,
      "dur": 80
    },
    {
      "t": 1572.6,
      "ch": 7,
      "note": 36,
      "vel": 66,
      "dur": 80
    },
    {
      "t": 1572.7,
      "ch": 1,
      "note": 38,
      "vel": 98,
      "dur": 25
    },
    {
      "t": 1572.7,
      "ch": 1,
      "note": 40,
      "vel": 114,
      "dur": 25
    },
    {
      "t": 1572.8,
      "ch": 1,
      "note": 42,
      "vel": 94,
      "dur": 25
    },
    {
      "t": 1572.9,
      "ch": 1,
      "note": 36,
      "vel": 90,
      "dur": 25
    },
    {
      "t": 1572.9,
      "ch": 7,
      "note": 45,
      "vel": 61,
      "dur": 80
    },
    {
      "t": 1572.9,
      "ch": 7,
      "note": 36,
      "vel": 57,
      "dur": 80
    },
    {
      "t": 1572.9,
      "ch": 7,
      "note": 38,
      "vel": 62,
      "dur": 80
    },
    {
      "t": 1572.9,
      "ch": 6,
      "note": 70,
      "vel": 72,
      "dur": 539
    },
    {
      "t": 1573,
      "ch": 1,
      "note": 38,
      "vel": 95,
      "dur": 25
    },
    {
      "t": 1573,
      "ch": 1,
      "note": 40,
      "vel": 97,
      "dur": 25
    },
    {
      "t": 1573.1,
      "ch": 6,
      "note": 73,
      "vel": 38,
      "dur": 539
    },
    {
      "t": 1573.1,
      "ch": 1,
      "note": 42,
      "vel": 108,
      "dur": 25
    },
    {
      "t": 1573.2,
      "ch": 0,
      "note": 36,
      "vel": 89,
      "dur": 55
    },
    {
      "t": 1573.2,
      "ch": 1,
      "note": 36,
      "vel": 120,
      "dur": 25
    },
    {
      "t": 1573.2,
      "ch": 7,
      "note": 48,
      "vel": 80,
      "dur": 80
    },
    {
      "t": 1573.2,
      "ch": 7,
      "note": 36,
      "vel": 74,
      "dur": 80
    },
    {
      "t": 1573.3,
      "ch": 1,
      "note": 38,
      "vel": 127,
      "dur": 25
    },
    {
      "t": 1573.3,
      "ch": 1,
      "note": 40,
      "vel": 105,
      "dur": 25
    },
    {
      "t": 1573.4,
      "ch": 1,
      "note": 42,
      "vel": 90,
      "dur": 25
    },
    {
      "t": 1573.5,
      "ch": 1,
      "note": 36,
      "vel": 99,
      "dur": 25
    },
    {
      "t": 1573.6,
      "ch": 1,
      "note": 38,
      "vel": 99,
      "dur": 25
    },
    {
      "t": 1573.6,
      "ch": 1,
      "note": 40,
      "vel": 90,
      "dur": 25
    },
    {
      "t": 1573.6,
      "ch": 5,
      "note": 70,
      "vel": 69,
      "dur": 805
    },
    {
      "t": 1573.7,
      "ch": 1,
      "note": 42,
      "vel": 112,
      "dur": 25
    },
    {
      "t": 1573.8,
      "ch": 0,
      "note": 36,
      "vel": 112,
      "dur": 55
    },
    {
      "t": 1573.8,
      "ch": 1,
      "note": 36,
      "vel": 98,
      "dur": 25
    },
    {
      "t": 1573.8,
      "ch": 7,
      "note": 48,
      "vel": 76,
      "dur": 80
    },
    {
      "t": 1573.8,
      "ch": 7,
      "note": 45,
      "vel": 85,
      "dur": 80
    },
    {
      "t": 1573.8,
      "ch": 7,
      "note": 36,
      "vel": 64,
      "dur": 80
    },
    {
      "t": 1573.8,
      "ch": 7,
      "note": 38,
      "vel": 67,
      "dur": 80
    },
    {
      "t": 1573.8,
      "ch": 6,
      "note": 54,
      "vel": 24,
      "dur": 536
    },
    {
      "t": 1573.9,
      "ch": 1,
      "note": 38,
      "vel": 108,
      "dur": 25
    },
    {
      "t": 1573.9,
      "ch": 1,
      "note": 40,
      "vel": 94,
      "dur": 25
    },
    {
      "t": 1574,
      "ch": 1,
      "note": 42,
      "vel": 126,
      "dur": 25
    },
    {
      "t": 1574.1,
      "ch": 1,
      "note": 36,
      "vel": 87,
      "dur": 25
    },
    {
      "t": 1574.1,
      "ch": 7,
      "note": 36,
      "vel": 60,
      "dur": 80
    },
    {
      "t": 1574.2,
      "ch": 1,
      "note": 38,
      "vel": 108,
      "dur": 25
    },
    {
      "t": 1574.2,
      "ch": 1,
      "note": 40,
      "vel": 97,
      "dur": 25
    },
    {
      "t": 1574.3,
      "ch": 6,
      "note": 71,
      "vel": 36,
      "dur": 535
    },
    {
      "t": 1574.3,
      "ch": 1,
      "note": 42,
      "vel": 105,
      "dur": 25
    },
    {
      "t": 1574.4,
      "ch": 0,
      "note": 36,
      "vel": 91,
      "dur": 55
    },
    {
      "t": 1574.4,
      "ch": 1,
      "note": 36,
      "vel": 115,
      "dur": 25
    },
    {
      "t": 1574.4,
      "ch": 7,
      "note": 48,
      "vel": 61,
      "dur": 80
    },
    {
      "t": 1574.4,
      "ch": 7,
      "note": 36,
      "vel": 63,
      "dur": 80
    },
    {
      "t": 1574.5,
      "ch": 1,
      "note": 38,
      "vel": 116,
      "dur": 25
    },
    {
      "t": 1574.5,
      "ch": 1,
      "note": 40,
      "vel": 100,
      "dur": 25
    },
    {
      "t": 1574.6,
      "ch": 7,
      "note": 45,
      "vel": 62,
      "dur": 80
    },
    {
      "t": 1574.6,
      "ch": 7,
      "note": 38,
      "vel": 74,
      "dur": 80
    },
    {
      "t": 1574.6,
      "ch": 1,
      "note": 42,
      "vel": 75,
      "dur": 25
    },
    {
      "t": 1574.7,
      "ch": 1,
      "note": 36,
      "vel": 83,
      "dur": 25
    },
    {
      "t": 1574.8,
      "ch": 1,
      "note": 38,
      "vel": 114,
      "dur": 25
    },
    {
      "t": 1574.8,
      "ch": 1,
      "note": 40,
      "vel": 96,
      "dur": 25
    },
    {
      "t": 1574.9,
      "ch": 1,
      "note": 42,
      "vel": 113,
      "dur": 25
    },
    {
      "t": 1575,
      "ch": 0,
      "note": 36,
      "vel": 85,
      "dur": 55
    },
    {
      "t": 1575,
      "ch": 1,
      "note": 36,
      "vel": 127,
      "dur": 25
    },
    {
      "t": 1575,
      "ch": 7,
      "note": 48,
      "vel": 77,
      "dur": 80
    },
    {
      "t": 1575,
      "ch": 7,
      "note": 36,
      "vel": 61,
      "dur": 80
    },
    {
      "t": 1575.1,
      "ch": 1,
      "note": 38,
      "vel": 109,
      "dur": 25
    },
    {
      "t": 1575.2,
      "ch": 1,
      "note": 40,
      "vel": 92,
      "dur": 25
    },
    {
      "t": 1575.2,
      "ch": 1,
      "note": 42,
      "vel": 102,
      "dur": 25
    },
    {
      "t": 1575.3,
      "ch": 1,
      "note": 36,
      "vel": 108,
      "dur": 25
    },
    {
      "t": 1575.3,
      "ch": 7,
      "note": 38,
      "vel": 71,
      "dur": 80
    },
    {
      "t": 1575.3,
      "ch": 7,
      "note": 36,
      "vel": 77,
      "dur": 80
    },
    {
      "t": 1575.3,
      "ch": 7,
      "note": 45,
      "vel": 55,
      "dur": 80
    },
    {
      "t": 1575.4,
      "ch": 1,
      "note": 38,
      "vel": 123,
      "dur": 25
    },
    {
      "t": 1575.4,
      "ch": 1,
      "note": 40,
      "vel": 98,
      "dur": 25
    },
    {
      "t": 1575.5,
      "ch": 5,
      "note": 49,
      "vel": 69,
      "dur": 797
    },
    {
      "t": 1575.5,
      "ch": 1,
      "note": 42,
      "vel": 87,
      "dur": 25
    },
    {
      "t": 1575.6,
      "ch": 0,
      "note": 36,
      "vel": 96,
      "dur": 55
    },
    {
      "t": 1575.6,
      "ch": 1,
      "note": 36,
      "vel": 106,
      "dur": 25
    },
    {
      "t": 1575.6,
      "ch": 7,
      "note": 48,
      "vel": 64,
      "dur": 80
    },
    {
      "t": 1575.6,
      "ch": 7,
      "note": 36,
      "vel": 64,
      "dur": 80
    },
    {
      "t": 1575.7,
      "ch": 1,
      "note": 38,
      "vel": 90,
      "dur": 25
    },
    {
      "t": 1575.7,
      "ch": 1,
      "note": 40,
      "vel": 92,
      "dur": 25
    },
    {
      "t": 1575.8,
      "ch": 1,
      "note": 42,
      "vel": 94,
      "dur": 25
    },
    {
      "t": 1575.8,
      "ch": 6,
      "note": 52,
      "vel": 46,
      "dur": 400
    },
    {
      "t": 1575.9,
      "ch": 1,
      "note": 36,
      "vel": 95,
      "dur": 25
    },
    {
      "t": 1576,
      "ch": 1,
      "note": 38,
      "vel": 102,
      "dur": 25
    },
    {
      "t": 1576,
      "ch": 1,
      "note": 40,
      "vel": 87,
      "dur": 25
    },
    {
      "t": 1576.1,
      "ch": 1,
      "note": 42,
      "vel": 97,
      "dur": 25
    },
    {
      "t": 1576.2,
      "ch": 0,
      "note": 36,
      "vel": 110,
      "dur": 55
    },
    {
      "t": 1576.2,
      "ch": 1,
      "note": 36,
      "vel": 101,
      "dur": 25
    },
    {
      "t": 1576.2,
      "ch": 7,
      "note": 48,
      "vel": 72,
      "dur": 80
    },
    {
      "t": 1576.2,
      "ch": 7,
      "note": 45,
      "vel": 66,
      "dur": 80
    },
    {
      "t": 1576.2,
      "ch": 7,
      "note": 36,
      "vel": 76,
      "dur": 80
    },
    {
      "t": 1576.2,
      "ch": 7,
      "note": 38,
      "vel": 79,
      "dur": 80
    },
    {
      "t": 1576.3,
      "ch": 1,
      "note": 38,
      "vel": 101,
      "dur": 25
    },
    {
      "t": 1576.3,
      "ch": 1,
      "note": 40,
      "vel": 99,
      "dur": 25
    },
    {
      "t": 1576.4,
      "ch": 1,
      "note": 42,
      "vel": 94,
      "dur": 25
    },
    {
      "t": 1576.5,
      "ch": 1,
      "note": 36,
      "vel": 111,
      "dur": 25
    },
    {
      "t": 1576.5,
      "ch": 7,
      "note": 36,
      "vel": 53,
      "dur": 80
    },
    {
      "t": 1576.6,
      "ch": 1,
      "note": 38,
      "vel": 108,
      "dur": 25
    },
    {
      "t": 1576.6,
      "ch": 1,
      "note": 40,
      "vel": 92,
      "dur": 25
    },
    {
      "t": 1576.7,
      "ch": 1,
      "note": 42,
      "vel": 87,
      "dur": 25
    },
    {
      "t": 1576.8,
      "ch": 0,
      "note": 36,
      "vel": 88,
      "dur": 55
    },
    {
      "t": 1576.8,
      "ch": 1,
      "note": 36,
      "vel": 102,
      "dur": 25
    },
    {
      "t": 1576.8,
      "ch": 7,
      "note": 48,
      "vel": 78,
      "dur": 80
    },
    {
      "t": 1576.8,
      "ch": 7,
      "note": 36,
      "vel": 76,
      "dur": 80
    },
    {
      "t": 1576.8,
      "ch": 6,
      "note": 73,
      "vel": 44,
      "dur": 530
    },
    {
      "t": 1576.9,
      "ch": 1,
      "note": 38,
      "vel": 107,
      "dur": 25
    },
    {
      "t": 1576.9,
      "ch": 1,
      "note": 40,
      "vel": 107,
      "dur": 25
    },
    {
      "t": 1577,
      "ch": 7,
      "note": 38,
      "vel": 59,
      "dur": 80
    },
    {
      "t": 1577,
      "ch": 7,
      "note": 45,
      "vel": 59,
      "dur": 80
    },
    {
      "t": 1577,
      "ch": 5,
      "note": 51,
      "vel": 45,
      "dur": 794
    },
    {
      "t": 1577,
      "ch": 1,
      "note": 42,
      "vel": 113,
      "dur": 25
    },
    {
      "t": 1577.1,
      "ch": 1,
      "note": 36,
      "vel": 105,
      "dur": 25
    },
    {
      "t": 1577.2,
      "ch": 1,
      "note": 38,
      "vel": 99,
      "dur": 25
    },
    {
      "t": 1577.2,
      "ch": 1,
      "note": 40,
      "vel": 108,
      "dur": 25
    },
    {
      "t": 1577.3,
      "ch": 5,
      "note": 58,
      "vel": 61,
      "dur": 794
    },
    {
      "t": 1577.3,
      "ch": 1,
      "note": 42,
      "vel": 115,
      "dur": 25
    },
    {
      "t": 1577.4,
      "ch": 0,
      "note": 36,
      "vel": 89,
      "dur": 55
    },
    {
      "t": 1577.4,
      "ch": 1,
      "note": 36,
      "vel": 109,
      "dur": 25
    },
    {
      "t": 1577.4,
      "ch": 7,
      "note": 48,
      "vel": 66,
      "dur": 80
    },
    {
      "t": 1577.4,
      "ch": 7,
      "note": 36,
      "vel": 77,
      "dur": 80
    },
    {
      "t": 1577.4,
      "ch": 6,
      "note": 53,
      "vel": 27,
      "dur": 400
    },
    {
      "t": 1577.5,
      "ch": 1,
      "note": 38,
      "vel": 87,
      "dur": 25
    },
    {
      "t": 1577.5,
      "ch": 1,
      "note": 40,
      "vel": 117,
      "dur": 25
    },
    {
      "t": 1577.6,
      "ch": 1,
      "note": 42,
      "vel": 73,
      "dur": 25
    },
    {
      "t": 1577.7,
      "ch": 1,
      "note": 36,
      "vel": 102,
      "dur": 25
    },
    {
      "t": 1577.7,
      "ch": 7,
      "note": 45,
      "vel": 46,
      "dur": 80
    },
    {
      "t": 1577.7,
      "ch": 7,
      "note": 36,
      "vel": 63,
      "dur": 80
    },
    {
      "t": 1577.7,
      "ch": 7,
      "note": 38,
      "vel": 64,
      "dur": 80
    },
    {
      "t": 1577.8,
      "ch": 1,
      "note": 38,
      "vel": 100,
      "dur": 25
    },
    {
      "t": 1577.8,
      "ch": 1,
      "note": 40,
      "vel": 114,
      "dur": 25
    },
    {
      "t": 1577.9,
      "ch": 1,
      "note": 42,
      "vel": 99,
      "dur": 25
    },
    {
      "t": 1578,
      "ch": 0,
      "note": 36,
      "vel": 93,
      "dur": 55
    },
    {
      "t": 1578,
      "ch": 1,
      "note": 36,
      "vel": 99,
      "dur": 25
    },
    {
      "t": 1578,
      "ch": 7,
      "note": 48,
      "vel": 68,
      "dur": 80
    },
    {
      "t": 1578,
      "ch": 7,
      "note": 36,
      "vel": 71,
      "dur": 80
    },
    {
      "t": 1578,
      "ch": 6,
      "note": 61,
      "vel": 42,
      "dur": 530
    },
    {
      "t": 1578.1,
      "ch": 1,
      "note": 38,
      "vel": 127,
      "dur": 25
    },
    {
      "t": 1578.1,
      "ch": 1,
      "note": 40,
      "vel": 104,
      "dur": 25
    },
    {
      "t": 1578.2,
      "ch": 1,
      "note": 42,
      "vel": 118,
      "dur": 25
    },
    {
      "t": 1578.3,
      "ch": 1,
      "note": 36,
      "vel": 83,
      "dur": 25
    },
    {
      "t": 1578.4,
      "ch": 1,
      "note": 38,
      "vel": 105,
      "dur": 25
    },
    {
      "t": 1578.4,
      "ch": 1,
      "note": 40,
      "vel": 107,
      "dur": 25
    },
    {
      "t": 1578.5,
      "ch": 1,
      "note": 42,
      "vel": 91,
      "dur": 25
    },
    {
      "t": 1578.6,
      "ch": 0,
      "note": 36,
      "vel": 118,
      "dur": 55
    },
    {
      "t": 1578.6,
      "ch": 1,
      "note": 36,
      "vel": 109,
      "dur": 25
    },
    {
      "t": 1578.6,
      "ch": 7,
      "note": 48,
      "vel": 65,
      "dur": 80
    },
    {
      "t": 1578.6,
      "ch": 7,
      "note": 45,
      "vel": 63,
      "dur": 80
    },
    {
      "t": 1578.6,
      "ch": 7,
      "note": 36,
      "vel": 74,
      "dur": 80
    },
    {
      "t": 1578.6,
      "ch": 7,
      "note": 38,
      "vel": 63,
      "dur": 80
    },
    {
      "t": 1578.6,
      "ch": 5,
      "note": 71,
      "vel": 64,
      "dur": 796
    },
    {
      "t": 1578.7,
      "ch": 1,
      "note": 38,
      "vel": 125,
      "dur": 25
    },
    {
      "t": 1578.8,
      "ch": 1,
      "note": 40,
      "vel": 90,
      "dur": 25
    },
    {
      "t": 1578.8,
      "ch": 1,
      "note": 42,
      "vel": 75,
      "dur": 25
    },
    {
      "t": 1578.9,
      "ch": 1,
      "note": 36,
      "vel": 104,
      "dur": 25
    },
    {
      "t": 1578.9,
      "ch": 7,
      "note": 36,
      "vel": 59,
      "dur": 80
    },
    {
      "t": 1579,
      "ch": 1,
      "note": 38,
      "vel": 85,
      "dur": 25
    },
    {
      "t": 1579,
      "ch": 1,
      "note": 40,
      "vel": 89,
      "dur": 25
    },
    {
      "t": 1579.1,
      "ch": 1,
      "note": 42,
      "vel": 95,
      "dur": 25
    },
    {
      "t": 1579.2,
      "ch": 0,
      "note": 36,
      "vel": 90,
      "dur": 55
    },
    {
      "t": 1579.2,
      "ch": 1,
      "note": 36,
      "vel": 110,
      "dur": 25
    },
    {
      "t": 1579.2,
      "ch": 7,
      "note": 48,
      "vel": 66,
      "dur": 80
    },
    {
      "t": 1579.2,
      "ch": 7,
      "note": 36,
      "vel": 75,
      "dur": 80
    },
    {
      "t": 1579.3,
      "ch": 1,
      "note": 38,
      "vel": 103,
      "dur": 25
    },
    {
      "t": 1579.3,
      "ch": 1,
      "note": 40,
      "vel": 80,
      "dur": 25
    },
    {
      "t": 1579.4,
      "ch": 7,
      "note": 38,
      "vel": 63,
      "dur": 80
    },
    {
      "t": 1579.4,
      "ch": 7,
      "note": 45,
      "vel": 59,
      "dur": 80
    },
    {
      "t": 1579.4,
      "ch": 1,
      "note": 42,
      "vel": 91,
      "dur": 25
    },
    {
      "t": 1579.5,
      "ch": 1,
      "note": 36,
      "vel": 104,
      "dur": 25
    },
    {
      "t": 1579.6,
      "ch": 1,
      "note": 38,
      "vel": 82,
      "dur": 25
    },
    {
      "t": 1579.6,
      "ch": 1,
      "note": 40,
      "vel": 97,
      "dur": 25
    },
    {
      "t": 1579.7,
      "ch": 6,
      "note": 73,
      "vel": 44,
      "dur": 532
    },
    {
      "t": 1579.7,
      "ch": 2,
      "note": 49,
      "vel": 0,
      "dur": 0
    },
    {
      "t": 1579.7,
      "ch": 2,
      "note": 54,
      "vel": 62,
      "dur": 18000
    },
    {
      "t": 1579.7,
      "ch": 1,
      "note": 42,
      "vel": 86,
      "dur": 25
    },
    {
      "t": 1579.8,
      "ch": 0,
      "note": 36,
      "vel": 96,
      "dur": 55
    },
    {
      "t": 1579.8,
      "ch": 1,
      "note": 36,
      "vel": 126,
      "dur": 25
    },
    {
      "t": 1579.8,
      "ch": 7,
      "note": 48,
      "vel": 67,
      "dur": 80
    },
    {
      "t": 1579.8,
      "ch": 7,
      "note": 36,
      "vel": 66,
      "dur": 80
    },
    {
      "t": 1579.8,
      "ch": 6,
      "note": 49,
      "vel": 41,
      "dur": 533
    },
    {
      "t": 1579.9,
      "ch": 1,
      "note": 38,
      "vel": 127,
      "dur": 25
    },
    {
      "t": 1579.9,
      "ch": 1,
      "note": 40,
      "vel": 104,
      "dur": 25
    },
    {
      "t": 1580,
      "ch": 1,
      "note": 42,
      "vel": 116,
      "dur": 25
    },
    {
      "t": 1580.1,
      "ch": 1,
      "note": 36,
      "vel": 102,
      "dur": 25
    },
    {
      "t": 1580.1,
      "ch": 7,
      "note": 38,
      "vel": 59,
      "dur": 80
    },
    {
      "t": 1580.1,
      "ch": 7,
      "note": 45,
      "vel": 64,
      "dur": 80
    },
    {
      "t": 1580.1,
      "ch": 7,
      "note": 36,
      "vel": 60,
      "dur": 80
    },
    {
      "t": 1580.2,
      "ch": 1,
      "note": 38,
      "vel": 114,
      "dur": 25
    },
    {
      "t": 1580.2,
      "ch": 1,
      "note": 40,
      "vel": 104,
      "dur": 25
    },
    {
      "t": 1580.3,
      "ch": 1,
      "note": 42,
      "vel": 102,
      "dur": 25
    },
    {
      "t": 1580.4,
      "ch": 0,
      "note": 36,
      "vel": 88,
      "dur": 55
    },
    {
      "t": 1580.4,
      "ch": 1,
      "note": 36,
      "vel": 127,
      "dur": 25
    },
    {
      "t": 1580.4,
      "ch": 7,
      "note": 48,
      "vel": 69,
      "dur": 80
    },
    {
      "t": 1580.4,
      "ch": 7,
      "note": 36,
      "vel": 83,
      "dur": 80
    },
    {
      "t": 1580.5,
      "ch": 1,
      "note": 38,
      "vel": 113,
      "dur": 25
    },
    {
      "t": 1580.5,
      "ch": 1,
      "note": 40,
      "vel": 93,
      "dur": 25
    },
    {
      "t": 1580.6,
      "ch": 1,
      "note": 42,
      "vel": 100,
      "dur": 25
    },
    {
      "t": 1580.7,
      "ch": 1,
      "note": 36,
      "vel": 79,
      "dur": 25
    },
    {
      "t": 1580.8,
      "ch": 1,
      "note": 38,
      "vel": 87,
      "dur": 25
    },
    {
      "t": 1580.8,
      "ch": 1,
      "note": 40,
      "vel": 85,
      "dur": 25
    },
    {
      "t": 1580.9,
      "ch": 0,
      "note": 36,
      "vel": 65,
      "dur": 55
    },
    {
      "t": 1580.9,
      "ch": 6,
      "note": 73,
      "vel": 25,
      "dur": 536
    },
    {
      "t": 1580.9,
      "ch": 1,
      "note": 42,
      "vel": 91,
      "dur": 25
    },
    {
      "t": 1581,
      "ch": 0,
      "note": 36,
      "vel": 107,
      "dur": 55
    },
    {
      "t": 1581,
      "ch": 1,
      "note": 36,
      "vel": 105,
      "dur": 25
    },
    {
      "t": 1581,
      "ch": 7,
      "note": 48,
      "vel": 72,
      "dur": 80
    },
    {
      "t": 1581,
      "ch": 7,
      "note": 45,
      "vel": 82,
      "dur": 80
    },
    {
      "t": 1581,
      "ch": 7,
      "note": 36,
      "vel": 78,
      "dur": 80
    },
    {
      "t": 1581,
      "ch": 7,
      "note": 38,
      "vel": 76,
      "dur": 80
    },
    {
      "t": 1581.1,
      "ch": 1,
      "note": 38,
      "vel": 107,
      "dur": 25
    },
    {
      "t": 1581.1,
      "ch": 1,
      "note": 40,
      "vel": 101,
      "dur": 25
    },
    {
      "t": 1581.2,
      "ch": 5,
      "note": 70,
      "vel": 82,
      "dur": 805
    },
    {
      "t": 1581.2,
      "ch": 1,
      "note": 42,
      "vel": 86,
      "dur": 25
    },
    {
      "t": 1581.3,
      "ch": 1,
      "note": 36,
      "vel": 81,
      "dur": 25
    },
    {
      "t": 1581.3,
      "ch": 7,
      "note": 36,
      "vel": 71,
      "dur": 80
    },
    {
      "t": 1581.4,
      "ch": 1,
      "note": 38,
      "vel": 87,
      "dur": 25
    },
    {
      "t": 1581.4,
      "ch": 1,
      "note": 40,
      "vel": 71,
      "dur": 25
    },
    {
      "t": 1581.5,
      "ch": 1,
      "note": 42,
      "vel": 103,
      "dur": 25
    },
    {
      "t": 1581.6,
      "ch": 0,
      "note": 36,
      "vel": 94,
      "dur": 55
    },
    {
      "t": 1581.6,
      "ch": 1,
      "note": 36,
      "vel": 87,
      "dur": 25
    },
    {
      "t": 1581.6,
      "ch": 7,
      "note": 48,
      "vel": 70,
      "dur": 80
    },
    {
      "t": 1581.6,
      "ch": 7,
      "note": 36,
      "vel": 62,
      "dur": 80
    },
    {
      "t": 1581.7,
      "ch": 1,
      "note": 38,
      "vel": 127,
      "dur": 25
    },
    {
      "t": 1581.7,
      "ch": 1,
      "note": 40,
      "vel": 105,
      "dur": 25
    },
    {
      "t": 1581.8,
      "ch": 7,
      "note": 38,
      "vel": 67,
      "dur": 80
    },
    {
      "t": 1581.8,
      "ch": 7,
      "note": 45,
      "vel": 57,
      "dur": 80
    },
    {
      "t": 1581.8,
      "ch": 1,
      "note": 42,
      "vel": 97,
      "dur": 25
    },
    {
      "t": 1581.9,
      "ch": 1,
      "note": 36,
      "vel": 96,
      "dur": 25
    },
    {
      "t": 1582,
      "ch": 1,
      "note": 38,
      "vel": 94,
      "dur": 25
    },
    {
      "t": 1582,
      "ch": 1,
      "note": 40,
      "vel": 82,
      "dur": 25
    },
    {
      "t": 1582.1,
      "ch": 4,
      "note": 59,
      "vel": 72,
      "dur": 2350
    },
    {
      "t": 1582.1,
      "ch": 3,
      "note": 40,
      "vel": 74,
      "dur": 2400
    },
    {
      "t": 1582.1,
      "ch": 1,
      "note": 42,
      "vel": 113,
      "dur": 25
    },
    {
      "t": 1582.2,
      "ch": 0,
      "note": 36,
      "vel": 97,
      "dur": 55
    },
    {
      "t": 1582.2,
      "ch": 1,
      "note": 36,
      "vel": 98,
      "dur": 25
    },
    {
      "t": 1582.2,
      "ch": 7,
      "note": 48,
      "vel": 59,
      "dur": 80
    },
    {
      "t": 1582.2,
      "ch": 7,
      "note": 36,
      "vel": 63,
      "dur": 80
    },
    {
      "t": 1582.3,
      "ch": 1,
      "note": 38,
      "vel": 79,
      "dur": 25
    },
    {
      "t": 1582.3,
      "ch": 1,
      "note": 40,
      "vel": 101,
      "dur": 25
    },
    {
      "t": 1582.4,
      "ch": 1,
      "note": 42,
      "vel": 112,
      "dur": 25
    },
    {
      "t": 1582.5,
      "ch": 1,
      "note": 36,
      "vel": 89,
      "dur": 25
    },
    {
      "t": 1582.5,
      "ch": 7,
      "note": 38,
      "vel": 64,
      "dur": 80
    },
    {
      "t": 1582.5,
      "ch": 5,
      "note": 70,
      "vel": 49,
      "dur": 813
    },
    {
      "t": 1582.5,
      "ch": 7,
      "note": 45,
      "vel": 58,
      "dur": 80
    },
    {
      "t": 1582.5,
      "ch": 7,
      "note": 36,
      "vel": 69,
      "dur": 80
    },
    {
      "t": 1582.6,
      "ch": 1,
      "note": 38,
      "vel": 71,
      "dur": 25
    },
    {
      "t": 1582.6,
      "ch": 1,
      "note": 40,
      "vel": 93,
      "dur": 25
    },
    {
      "t": 1582.7,
      "ch": 6,
      "note": 73,
      "vel": 28,
      "dur": 542
    },
    {
      "t": 1582.7,
      "ch": 1,
      "note": 42,
      "vel": 87,
      "dur": 25
    },
    {
      "t": 1582.8,
      "ch": 0,
      "note": 36,
      "vel": 85,
      "dur": 55
    },
    {
      "t": 1582.8,
      "ch": 1,
      "note": 36,
      "vel": 127,
      "dur": 25
    },
    {
      "t": 1582.8,
      "ch": 7,
      "note": 48,
      "vel": 72,
      "dur": 80
    },
    {
      "t": 1582.8,
      "ch": 7,
      "note": 36,
      "vel": 73,
      "dur": 80
    },
    {
      "t": 1582.9,
      "ch": 1,
      "note": 38,
      "vel": 112,
      "dur": 25
    },
    {
      "t": 1582.9,
      "ch": 1,
      "note": 40,
      "vel": 103,
      "dur": 25
    },
    {
      "t": 1583,
      "ch": 5,
      "note": 49,
      "vel": 61,
      "dur": 815
    },
    {
      "t": 1583,
      "ch": 1,
      "note": 42,
      "vel": 101,
      "dur": 25
    },
    {
      "t": 1583.1,
      "ch": 1,
      "note": 36,
      "vel": 86,
      "dur": 25
    },
    {
      "t": 1583.2,
      "ch": 1,
      "note": 38,
      "vel": 77,
      "dur": 25
    },
    {
      "t": 1583.2,
      "ch": 1,
      "note": 40,
      "vel": 102,
      "dur": 25
    },
    {
      "t": 1583.3,
      "ch": 1,
      "note": 42,
      "vel": 79,
      "dur": 25
    },
    {
      "t": 1583.4,
      "ch": 0,
      "note": 36,
      "vel": 113,
      "dur": 55
    },
    {
      "t": 1583.4,
      "ch": 1,
      "note": 36,
      "vel": 83,
      "dur": 25
    },
    {
      "t": 1583.4,
      "ch": 7,
      "note": 48,
      "vel": 74,
      "dur": 80
    },
    {
      "t": 1583.4,
      "ch": 7,
      "note": 45,
      "vel": 68,
      "dur": 80
    },
    {
      "t": 1583.4,
      "ch": 7,
      "note": 36,
      "vel": 70,
      "dur": 80
    },
    {
      "t": 1583.4,
      "ch": 7,
      "note": 38,
      "vel": 62,
      "dur": 80
    },
    {
      "t": 1583.5,
      "ch": 1,
      "note": 38,
      "vel": 103,
      "dur": 25
    },
    {
      "t": 1583.5,
      "ch": 1,
      "note": 40,
      "vel": 82,
      "dur": 25
    },
    {
      "t": 1583.6,
      "ch": 1,
      "note": 42,
      "vel": 83,
      "dur": 25
    },
    {
      "t": 1583.7,
      "ch": 1,
      "note": 36,
      "vel": 75,
      "dur": 25
    },
    {
      "t": 1583.7,
      "ch": 7,
      "note": 36,
      "vel": 62,
      "dur": 80
    },
    {
      "t": 1583.8,
      "ch": 1,
      "note": 38,
      "vel": 83,
      "dur": 25
    },
    {
      "t": 1583.8,
      "ch": 1,
      "note": 40,
      "vel": 89,
      "dur": 25
    },
    {
      "t": 1583.9,
      "ch": 5,
      "note": 51,
      "vel": 44,
      "dur": 821
    },
    {
      "t": 1583.9,
      "ch": 1,
      "note": 42,
      "vel": 75,
      "dur": 25
    },
    {
      "t": 1584,
      "ch": 0,
      "note": 36,
      "vel": 92,
      "dur": 55
    },
    {
      "t": 1584,
      "ch": 1,
      "note": 36,
      "vel": 78,
      "dur": 25
    },
    {
      "t": 1584,
      "ch": 7,
      "note": 48,
      "vel": 71,
      "dur": 80
    },
    {
      "t": 1584,
      "ch": 7,
      "note": 36,
      "vel": 63,
      "dur": 80
    },
    {
      "t": 1584.1,
      "ch": 1,
      "note": 38,
      "vel": 108,
      "dur": 25
    },
    {
      "t": 1584.1,
      "ch": 1,
      "note": 40,
      "vel": 88,
      "dur": 25
    },
    {
      "t": 1584.2,
      "ch": 7,
      "note": 38,
      "vel": 64,
      "dur": 80
    },
    {
      "t": 1584.2,
      "ch": 7,
      "note": 45,
      "vel": 75,
      "dur": 80
    },
    {
      "t": 1584.2,
      "ch": 1,
      "note": 42,
      "vel": 79,
      "dur": 25
    },
    {
      "t": 1584.3,
      "ch": 1,
      "note": 36,
      "vel": 75,
      "dur": 25
    },
    {
      "t": 1584.4,
      "ch": 1,
      "note": 38,
      "vel": 114,
      "dur": 25
    },
    {
      "t": 1584.4,
      "ch": 1,
      "note": 40,
      "vel": 99,
      "dur": 25
    },
    {
      "t": 1584.5,
      "ch": 5,
      "note": 58,
      "vel": 71,
      "dur": 824
    },
    {
      "t": 1584.5,
      "ch": 6,
      "note": 61,
      "vel": 19,
      "dur": 549
    },
    {
      "t": 1584.5,
      "ch": 4,
      "note": 59,
      "vel": 72,
      "dur": 2350
    },
    {
      "t": 1584.5,
      "ch": 3,
      "note": 42,
      "vel": 72,
      "dur": 2400
    },
    {
      "t": 1584.5,
      "ch": 1,
      "note": 42,
      "vel": 97,
      "dur": 25
    },
    {
      "t": 1584.6,
      "ch": 0,
      "note": 36,
      "vel": 91,
      "dur": 55
    },
    {
      "t": 1584.6,
      "ch": 1,
      "note": 36,
      "vel": 115,
      "dur": 25
    },
    {
      "t": 1584.6,
      "ch": 7,
      "note": 48,
      "vel": 64,
      "dur": 80
    },
    {
      "t": 1584.6,
      "ch": 7,
      "note": 36,
      "vel": 58,
      "dur": 80
    },
    {
      "t": 1584.6,
      "ch": 6,
      "note": 73,
      "vel": 30,
      "dur": 550
    },
    {
      "t": 1584.6,
      "ch": 5,
      "note": 71,
      "vel": 58,
      "dur": 825
    },
    {
      "t": 1584.7,
      "ch": 1,
      "note": 38,
      "vel": 125,
      "dur": 25
    },
    {
      "t": 1584.7,
      "ch": 1,
      "note": 40,
      "vel": 89,
      "dur": 25
    },
    {
      "t": 1584.8,
      "ch": 6,
      "note": 73,
      "vel": 27,
      "dur": 550
    },
    {
      "t": 1584.8,
      "ch": 1,
      "note": 42,
      "vel": 82,
      "dur": 25
    },
    {
      "t": 1584.9,
      "ch": 1,
      "note": 36,
      "vel": 103,
      "dur": 25
    },
    {
      "t": 1584.9,
      "ch": 7,
      "note": 38,
      "vel": 60,
      "dur": 80
    },
    {
      "t": 1584.9,
      "ch": 7,
      "note": 36,
      "vel": 60,
      "dur": 80
    },
    {
      "t": 1584.9,
      "ch": 7,
      "note": 45,
      "vel": 67,
      "dur": 80
    },
    {
      "t": 1585,
      "ch": 1,
      "note": 38,
      "vel": 100,
      "dur": 25
    },
    {
      "t": 1585.1,
      "ch": 1,
      "note": 40,
      "vel": 95,
      "dur": 25
    },
    {
      "t": 1585.1,
      "ch": 1,
      "note": 42,
      "vel": 85,
      "dur": 25
    },
    {
      "t": 1585.2,
      "ch": 0,
      "note": 36,
      "vel": 88,
      "dur": 55
    },
    {
      "t": 1585.2,
      "ch": 1,
      "note": 36,
      "vel": 85,
      "dur": 25
    },
    {
      "t": 1585.2,
      "ch": 7,
      "note": 48,
      "vel": 74,
      "dur": 80
    },
    {
      "t": 1585.2,
      "ch": 7,
      "note": 36,
      "vel": 67,
      "dur": 80
    },
    {
      "t": 1585.3,
      "ch": 1,
      "note": 38,
      "vel": 89,
      "dur": 25
    },
    {
      "t": 1585.3,
      "ch": 1,
      "note": 40,
      "vel": 100,
      "dur": 25
    },
    {
      "t": 1585.4,
      "ch": 6,
      "note": 52,
      "vel": 34,
      "dur": 552
    },
    {
      "t": 1585.4,
      "ch": 1,
      "note": 42,
      "vel": 88,
      "dur": 25
    },
    {
      "t": 1585.5,
      "ch": 1,
      "note": 36,
      "vel": 84,
      "dur": 25
    },
    {
      "t": 1585.5,
      "ch": 6,
      "note": 56,
      "vel": 27,
      "dur": 553
    },
    {
      "t": 1585.5,
      "ch": 5,
      "note": 52,
      "vel": 21,
      "dur": 829
    },
    {
      "t": 1585.6,
      "ch": 1,
      "note": 38,
      "vel": 109,
      "dur": 25
    },
    {
      "t": 1585.6,
      "ch": 1,
      "note": 40,
      "vel": 77,
      "dur": 25
    },
    {
      "t": 1585.7,
      "ch": 1,
      "note": 42,
      "vel": 111,
      "dur": 25
    },
    {
      "t": 1585.8,
      "ch": 0,
      "note": 36,
      "vel": 112,
      "dur": 55
    },
    {
      "t": 1585.8,
      "ch": 1,
      "note": 36,
      "vel": 102,
      "dur": 25
    },
    {
      "t": 1585.8,
      "ch": 7,
      "note": 48,
      "vel": 70,
      "dur": 80
    },
    {
      "t": 1585.8,
      "ch": 7,
      "note": 45,
      "vel": 65,
      "dur": 80
    },
    {
      "t": 1585.8,
      "ch": 7,
      "note": 36,
      "vel": 70,
      "dur": 80
    },
    {
      "t": 1585.8,
      "ch": 7,
      "note": 38,
      "vel": 58,
      "dur": 80
    },
    {
      "t": 1585.9,
      "ch": 1,
      "note": 38,
      "vel": 99,
      "dur": 25
    },
    {
      "t": 1585.9,
      "ch": 1,
      "note": 40,
      "vel": 72,
      "dur": 25
    },
    {
      "t": 1586,
      "ch": 6,
      "note": 54,
      "vel": 7,
      "dur": 554
    },
    {
      "t": 1586,
      "ch": 1,
      "note": 42,
      "vel": 75,
      "dur": 25
    },
    {
      "t": 1586.1,
      "ch": 1,
      "note": 36,
      "vel": 87,
      "dur": 25
    },
    {
      "t": 1586.1,
      "ch": 5,
      "note": 52,
      "vel": 34,
      "dur": 832
    },
    {
      "t": 1586.1,
      "ch": 7,
      "note": 36,
      "vel": 55,
      "dur": 80
    },
    {
      "t": 1586.2,
      "ch": 1,
      "note": 38,
      "vel": 89,
      "dur": 25
    },
    {
      "t": 1586.2,
      "ch": 1,
      "note": 40,
      "vel": 91,
      "dur": 25
    },
    {
      "t": 1586.3,
      "ch": 1,
      "note": 42,
      "vel": 85,
      "dur": 25
    },
    {
      "t": 1586.4,
      "ch": 0,
      "note": 36,
      "vel": 87,
      "dur": 55
    },
    {
      "t": 1586.4,
      "ch": 1,
      "note": 36,
      "vel": 98,
      "dur": 25
    },
    {
      "t": 1586.4,
      "ch": 7,
      "note": 48,
      "vel": 76,
      "dur": 80
    },
    {
      "t": 1586.4,
      "ch": 7,
      "note": 36,
      "vel": 60,
      "dur": 80
    },
    {
      "t": 1586.5,
      "ch": 1,
      "note": 38,
      "vel": 90,
      "dur": 25
    },
    {
      "t": 1586.5,
      "ch": 1,
      "note": 40,
      "vel": 90,
      "dur": 25
    },
    {
      "t": 1586.6,
      "ch": 7,
      "note": 38,
      "vel": 63,
      "dur": 80
    },
    {
      "t": 1586.6,
      "ch": 7,
      "note": 45,
      "vel": 61,
      "dur": 80
    },
    {
      "t": 1586.6,
      "ch": 6,
      "note": 54,
      "vel": 24,
      "dur": 555
    },
    {
      "t": 1586.6,
      "ch": 1,
      "note": 42,
      "vel": 67,
      "dur": 25
    },
    {
      "t": 1586.7,
      "ch": 1,
      "note": 36,
      "vel": 77,
      "dur": 25
    },
    {
      "t": 1586.8,
      "ch": 1,
      "note": 38,
      "vel": 102,
      "dur": 25
    },
    {
      "t": 1586.8,
      "ch": 1,
      "note": 40,
      "vel": 76,
      "dur": 25
    },
    {
      "t": 1586.9,
      "ch": 4,
      "note": 59,
      "vel": 69,
      "dur": 2350
    },
    {
      "t": 1586.9,
      "ch": 3,
      "note": 40,
      "vel": 71,
      "dur": 2400
    },
    {
      "t": 1586.9,
      "ch": 1,
      "note": 42,
      "vel": 96,
      "dur": 25
    },
    {
      "t": 1587,
      "ch": 0,
      "note": 36,
      "vel": 92,
      "dur": 55
    },
    {
      "t": 1587,
      "ch": 1,
      "note": 36,
      "vel": 111,
      "dur": 25
    },
    {
      "t": 1587,
      "ch": 7,
      "note": 48,
      "vel": 71,
      "dur": 80
    },
    {
      "t": 1587,
      "ch": 7,
      "note": 36,
      "vel": 62,
      "dur": 80
    },
    {
      "t": 1587.1,
      "ch": 1,
      "note": 38,
      "vel": 108,
      "dur": 25
    },
    {
      "t": 1587.2,
      "ch": 1,
      "note": 40,
      "vel": 80,
      "dur": 25
    },
    {
      "t": 1587.2,
      "ch": 1,
      "note": 42,
      "vel": 106,
      "dur": 25
    },
    {
      "t": 1587.3,
      "ch": 1,
      "note": 36,
      "vel": 90,
      "dur": 25
    },
    {
      "t": 1587.3,
      "ch": 7,
      "note": 45,
      "vel": 67,
      "dur": 80
    },
    {
      "t": 1587.3,
      "ch": 7,
      "note": 38,
      "vel": 43,
      "dur": 80
    },
    {
      "t": 1587.3,
      "ch": 7,
      "note": 36,
      "vel": 60,
      "dur": 80
    },
    {
      "t": 1587.3,
      "ch": 6,
      "note": 56,
      "vel": 40,
      "dur": 557
    },
    {
      "t": 1587.4,
      "ch": 1,
      "note": 38,
      "vel": 102,
      "dur": 25
    },
    {
      "t": 1587.5,
      "ch": 1,
      "note": 40,
      "vel": 98,
      "dur": 25
    },
    {
      "t": 1587.5,
      "ch": 1,
      "note": 42,
      "vel": 102,
      "dur": 25
    },
    {
      "t": 1587.6,
      "ch": 0,
      "note": 36,
      "vel": 93,
      "dur": 55
    },
    {
      "t": 1587.6,
      "ch": 1,
      "note": 36,
      "vel": 121,
      "dur": 25
    },
    {
      "t": 1587.6,
      "ch": 7,
      "note": 48,
      "vel": 54,
      "dur": 80
    },
    {
      "t": 1587.6,
      "ch": 7,
      "note": 36,
      "vel": 55,
      "dur": 80
    },
    {
      "t": 1587.6,
      "ch": 5,
      "note": 54,
      "vel": 41,
      "dur": 836
    },
    {
      "t": 1587.7,
      "ch": 1,
      "note": 38,
      "vel": 94,
      "dur": 25
    },
    {
      "t": 1587.7,
      "ch": 1,
      "note": 40,
      "vel": 97,
      "dur": 25
    },
    {
      "t": 1587.8,
      "ch": 1,
      "note": 42,
      "vel": 115,
      "dur": 25
    },
    {
      "t": 1587.9,
      "ch": 1,
      "note": 36,
      "vel": 96,
      "dur": 25
    },
    {
      "t": 1588,
      "ch": 1,
      "note": 38,
      "vel": 102,
      "dur": 25
    },
    {
      "t": 1588,
      "ch": 1,
      "note": 40,
      "vel": 83,
      "dur": 25
    },
    {
      "t": 1588.1,
      "ch": 1,
      "note": 42,
      "vel": 101,
      "dur": 25
    },
    {
      "t": 1588.2,
      "ch": 0,
      "note": 36,
      "vel": 113,
      "dur": 55
    },
    {
      "t": 1588.2,
      "ch": 1,
      "note": 36,
      "vel": 82,
      "dur": 25
    },
    {
      "t": 1588.2,
      "ch": 7,
      "note": 48,
      "vel": 68,
      "dur": 80
    },
    {
      "t": 1588.2,
      "ch": 7,
      "note": 45,
      "vel": 68,
      "dur": 80
    },
    {
      "t": 1588.2,
      "ch": 7,
      "note": 36,
      "vel": 63,
      "dur": 80
    },
    {
      "t": 1588.2,
      "ch": 7,
      "note": 38,
      "vel": 72,
      "dur": 80
    },
    {
      "t": 1588.3,
      "ch": 1,
      "note": 38,
      "vel": 85,
      "dur": 25
    },
    {
      "t": 1588.4,
      "ch": 1,
      "note": 40,
      "vel": 103,
      "dur": 25
    },
    {
      "t": 1588.4,
      "ch": 1,
      "note": 42,
      "vel": 76,
      "dur": 25
    },
    {
      "t": 1588.5,
      "ch": 1,
      "note": 36,
      "vel": 102,
      "dur": 25
    },
    {
      "t": 1588.5,
      "ch": 7,
      "note": 36,
      "vel": 62,
      "dur": 80
    },
    {
      "t": 1588.6,
      "ch": 1,
      "note": 38,
      "vel": 108,
      "dur": 25
    },
    {
      "t": 1588.6,
      "ch": 1,
      "note": 40,
      "vel": 113,
      "dur": 25
    },
    {
      "t": 1588.7,
      "ch": 5,
      "note": 52,
      "vel": 53,
      "dur": 836
    },
    {
      "t": 1588.7,
      "ch": 1,
      "note": 42,
      "vel": 87,
      "dur": 25
    },
    {
      "t": 1588.8,
      "ch": 0,
      "note": 36,
      "vel": 89,
      "dur": 55
    },
    {
      "t": 1588.8,
      "ch": 1,
      "note": 36,
      "vel": 101,
      "dur": 25
    },
    {
      "t": 1588.8,
      "ch": 7,
      "note": 48,
      "vel": 72,
      "dur": 80
    },
    {
      "t": 1588.8,
      "ch": 7,
      "note": 36,
      "vel": 80,
      "dur": 80
    },
    {
      "t": 1588.9,
      "ch": 1,
      "note": 38,
      "vel": 72,
      "dur": 25
    },
    {
      "t": 1589,
      "ch": 6,
      "note": 54,
      "vel": 13,
      "dur": 400
    },
    {
      "t": 1589,
      "ch": 1,
      "note": 40,
      "vel": 97,
      "dur": 25
    },
    {
      "t": 1589,
      "ch": 7,
      "note": 38,
      "vel": 57,
      "dur": 80
    },
    {
      "t": 1589,
      "ch": 7,
      "note": 45,
      "vel": 75,
      "dur": 80
    },
    {
      "t": 1589,
      "ch": 5,
      "note": 56,
      "vel": 37,
      "dur": 836
    },
    {
      "t": 1589,
      "ch": 1,
      "note": 42,
      "vel": 80,
      "dur": 25
    },
    {
      "t": 1589.1,
      "ch": 1,
      "note": 36,
      "vel": 106,
      "dur": 25
    },
    {
      "t": 1589.1,
      "ch": 5,
      "note": 61,
      "vel": 47,
      "dur": 836
    },
    {
      "t": 1589.2,
      "ch": 1,
      "note": 38,
      "vel": 79,
      "dur": 25
    },
    {
      "t": 1589.2,
      "ch": 1,
      "note": 40,
      "vel": 87,
      "dur": 25
    },
    {
      "t": 1589.3,
      "ch": 5,
      "note": 52,
      "vel": 61,
      "dur": 836
    },
    {
      "t": 1589.3,
      "ch": 2,
      "note": 54,
      "vel": 0,
      "dur": 0
    },
    {
      "t": 1589.3,
      "ch": 2,
      "note": 49,
      "vel": 61,
      "dur": 18000
    },
    {
      "t": 1589.3,
      "ch": 2,
      "note": 61,
      "vel": 43,
      "dur": 18000
    },
    {
      "t": 1589.3,
      "ch": 4,
      "note": 58,
      "vel": 85,
      "dur": 2350
    },
    {
      "t": 1589.3,
      "ch": 3,
      "note": 35,
      "vel": 70,
      "dur": 2400
    },
    {
      "t": 1589.3,
      "ch": 1,
      "note": 42,
      "vel": 78,
      "dur": 25
    },
    {
      "t": 1589.4,
      "ch": 0,
      "note": 36,
      "vel": 95,
      "dur": 55
    },
    {
      "t": 1589.4,
      "ch": 1,
      "note": 36,
      "vel": 98,
      "dur": 25
    },
    {
      "t": 1589.4,
      "ch": 7,
      "note": 48,
      "vel": 58,
      "dur": 80
    },
    {
      "t": 1589.4,
      "ch": 7,
      "note": 36,
      "vel": 72,
      "dur": 80
    },
    {
      "t": 1589.4,
      "ch": 6,
      "note": 61,
      "vel": 41,
      "dur": 400
    },
    {
      "t": 1589.5,
      "ch": 1,
      "note": 38,
      "vel": 105,
      "dur": 25
    },
    {
      "t": 1589.6,
      "ch": 1,
      "note": 40,
      "vel": 110,
      "dur": 25
    },
    {
      "t": 1589.6,
      "ch": 5,
      "note": 52,
      "vel": 41,
      "dur": 835
    },
    {
      "t": 1589.6,
      "ch": 1,
      "note": 42,
      "vel": 102,
      "dur": 25
    },
    {
      "t": 1589.7,
      "ch": 1,
      "note": 36,
      "vel": 96,
      "dur": 25
    },
    {
      "t": 1589.7,
      "ch": 7,
      "note": 38,
      "vel": 55,
      "dur": 80
    },
    {
      "t": 1589.7,
      "ch": 7,
      "note": 36,
      "vel": 55,
      "dur": 80
    },
    {
      "t": 1589.7,
      "ch": 7,
      "note": 45,
      "vel": 52,
      "dur": 80
    },
    {
      "t": 1589.7,
      "ch": 6,
      "note": 56,
      "vel": 31,
      "dur": 557
    },
    {
      "t": 1589.8,
      "ch": 1,
      "note": 38,
      "vel": 96,
      "dur": 25
    },
    {
      "t": 1589.9,
      "ch": 1,
      "note": 40,
      "vel": 83,
      "dur": 25
    },
    {
      "t": 1589.9,
      "ch": 1,
      "note": 42,
      "vel": 101,
      "dur": 25
    },
    {
      "t": 1589.9,
      "ch": 6,
      "note": 56,
      "vel": 9,
      "dur": 400
    },
    {
      "t": 1590,
      "ch": 0,
      "note": 36,
      "vel": 85,
      "dur": 55
    },
    {
      "t": 1590,
      "ch": 1,
      "note": 36,
      "vel": 90,
      "dur": 25
    },
    {
      "t": 1590,
      "ch": 7,
      "note": 48,
      "vel": 62,
      "dur": 80
    },
    {
      "t": 1590,
      "ch": 7,
      "note": 36,
      "vel": 75,
      "dur": 80
    },
    {
      "t": 1590,
      "ch": 6,
      "note": 59,
      "vel": 30,
      "dur": 556
    },
    {
      "t": 1590.1,
      "ch": 1,
      "note": 38,
      "vel": 111,
      "dur": 25
    },
    {
      "t": 1590.1,
      "ch": 1,
      "note": 40,
      "vel": 87,
      "dur": 25
    },
    {
      "t": 1590.2,
      "ch": 6,
      "note": 64,
      "vel": 21,
      "dur": 556
    },
    {
      "t": 1590.2,
      "ch": 1,
      "note": 42,
      "vel": 92,
      "dur": 25
    },
    {
      "t": 1590.3,
      "ch": 1,
      "note": 36,
      "vel": 115,
      "dur": 25
    },
    {
      "t": 1590.4,
      "ch": 1,
      "note": 38,
      "vel": 106,
      "dur": 25
    },
    {
      "t": 1590.4,
      "ch": 1,
      "note": 40,
      "vel": 88,
      "dur": 25
    },
    {
      "t": 1590.5,
      "ch": 0,
      "note": 36,
      "vel": 65,
      "dur": 55
    },
    {
      "t": 1590.5,
      "ch": 1,
      "note": 42,
      "vel": 86,
      "dur": 25
    },
    {
      "t": 1590.6,
      "ch": 0,
      "note": 36,
      "vel": 112,
      "dur": 55
    },
    {
      "t": 1590.6,
      "ch": 1,
      "note": 36,
      "vel": 90,
      "dur": 25
    },
    {
      "t": 1590.6,
      "ch": 7,
      "note": 48,
      "vel": 85,
      "dur": 80
    },
    {
      "t": 1590.6,
      "ch": 7,
      "note": 45,
      "vel": 71,
      "dur": 80
    },
    {
      "t": 1590.6,
      "ch": 7,
      "note": 36,
      "vel": 66,
      "dur": 80
    },
    {
      "t": 1590.6,
      "ch": 7,
      "note": 38,
      "vel": 72,
      "dur": 80
    },
    {
      "t": 1590.7,
      "ch": 1,
      "note": 38,
      "vel": 103,
      "dur": 25
    },
    {
      "t": 1590.8,
      "ch": 1,
      "note": 40,
      "vel": 86,
      "dur": 25
    },
    {
      "t": 1590.8,
      "ch": 1,
      "note": 42,
      "vel": 97,
      "dur": 25
    },
    {
      "t": 1590.9,
      "ch": 1,
      "note": 36,
      "vel": 66,
      "dur": 25
    },
    {
      "t": 1590.9,
      "ch": 7,
      "note": 36,
      "vel": 61,
      "dur": 80
    },
    {
      "t": 1590.9,
      "ch": 5,
      "note": 54,
      "vel": 47,
      "dur": 832
    },
    {
      "t": 1591,
      "ch": 1,
      "note": 38,
      "vel": 83,
      "dur": 25
    },
    {
      "t": 1591,
      "ch": 1,
      "note": 40,
      "vel": 105,
      "dur": 25
    },
    {
      "t": 1591.1,
      "ch": 5,
      "note": 52,
      "vel": 44,
      "dur": 831
    },
    {
      "t": 1591.1,
      "ch": 1,
      "note": 42,
      "vel": 101,
      "dur": 25
    },
    {
      "t": 1591.2,
      "ch": 0,
      "note": 36,
      "vel": 90,
      "dur": 55
    },
    {
      "t": 1591.2,
      "ch": 1,
      "note": 36,
      "vel": 114,
      "dur": 25
    },
    {
      "t": 1591.2,
      "ch": 7,
      "note": 48,
      "vel": 75,
      "dur": 80
    },
    {
      "t": 1591.2,
      "ch": 7,
      "note": 36,
      "vel": 56,
      "dur": 80
    },
    {
      "t": 1591.3,
      "ch": 1,
      "note": 38,
      "vel": 118,
      "dur": 25
    },
    {
      "t": 1591.3,
      "ch": 6,
      "note": 59,
      "vel": 29,
      "dur": 400
    },
    {
      "t": 1591.3,
      "ch": 1,
      "note": 40,
      "vel": 98,
      "dur": 25
    },
    {
      "t": 1591.4,
      "ch": 7,
      "note": 38,
      "vel": 74,
      "dur": 80
    },
    {
      "t": 1591.4,
      "ch": 7,
      "note": 45,
      "vel": 59,
      "dur": 80
    },
    {
      "t": 1591.4,
      "ch": 1,
      "note": 42,
      "vel": 104,
      "dur": 25
    },
    {
      "t": 1591.5,
      "ch": 1,
      "note": 36,
      "vel": 97,
      "dur": 25
    },
    {
      "t": 1591.6,
      "ch": 1,
      "note": 38,
      "vel": 81,
      "dur": 25
    },
    {
      "t": 1591.6,
      "ch": 1,
      "note": 40,
      "vel": 79,
      "dur": 25
    },
    {
      "t": 1591.7,
      "ch": 4,
      "note": 58,
      "vel": 86,
      "dur": 2350
    },
    {
      "t": 1591.7,
      "ch": 3,
      "note": 44,
      "vel": 71,
      "dur": 2400
    },
    {
      "t": 1591.7,
      "ch": 1,
      "note": 42,
      "vel": 99,
      "dur": 25
    },
    {
      "t": 1591.8,
      "ch": 0,
      "note": 36,
      "vel": 90,
      "dur": 55
    },
    {
      "t": 1591.8,
      "ch": 1,
      "note": 36,
      "vel": 83,
      "dur": 25
    },
    {
      "t": 1591.8,
      "ch": 7,
      "note": 48,
      "vel": 56,
      "dur": 80
    },
    {
      "t": 1591.8,
      "ch": 7,
      "note": 36,
      "vel": 72,
      "dur": 80
    },
    {
      "t": 1591.9,
      "ch": 1,
      "note": 38,
      "vel": 79,
      "dur": 25
    },
    {
      "t": 1591.9,
      "ch": 1,
      "note": 40,
      "vel": 104,
      "dur": 25
    },
    {
      "t": 1592,
      "ch": 1,
      "note": 42,
      "vel": 96,
      "dur": 25
    },
    {
      "t": 1592.1,
      "ch": 1,
      "note": 36,
      "vel": 104,
      "dur": 25
    },
    {
      "t": 1592.1,
      "ch": 7,
      "note": 38,
      "vel": 58,
      "dur": 80
    },
    {
      "t": 1592.1,
      "ch": 7,
      "note": 36,
      "vel": 61,
      "dur": 80
    },
    {
      "t": 1592.1,
      "ch": 7,
      "note": 45,
      "vel": 71,
      "dur": 80
    },
    {
      "t": 1592.2,
      "ch": 1,
      "note": 38,
      "vel": 83,
      "dur": 25
    },
    {
      "t": 1592.3,
      "ch": 1,
      "note": 40,
      "vel": 77,
      "dur": 25
    },
    {
      "t": 1592.3,
      "ch": 6,
      "note": 56,
      "vel": 35,
      "dur": 550
    },
    {
      "t": 1592.3,
      "ch": 1,
      "note": 42,
      "vel": 78,
      "dur": 25
    },
    {
      "t": 1592.4,
      "ch": 0,
      "note": 36,
      "vel": 90,
      "dur": 55
    },
    {
      "t": 1592.4,
      "ch": 1,
      "note": 36,
      "vel": 88,
      "dur": 25
    },
    {
      "t": 1592.4,
      "ch": 7,
      "note": 48,
      "vel": 61,
      "dur": 80
    },
    {
      "t": 1592.4,
      "ch": 7,
      "note": 36,
      "vel": 75,
      "dur": 80
    },
    {
      "t": 1592.4,
      "ch": 6,
      "note": 54,
      "vel": 71,
      "dur": 550
    },
    {
      "t": 1592.5,
      "ch": 1,
      "note": 38,
      "vel": 106,
      "dur": 25
    },
    {
      "t": 1592.5,
      "ch": 1,
      "note": 40,
      "vel": 72,
      "dur": 25
    },
    {
      "t": 1592.6,
      "ch": 1,
      "note": 42,
      "vel": 84,
      "dur": 25
    },
    {
      "t": 1592.7,
      "ch": 1,
      "note": 36,
      "vel": 98,
      "dur": 25
    },
    {
      "t": 1592.8,
      "ch": 1,
      "note": 38,
      "vel": 81,
      "dur": 25
    },
    {
      "t": 1592.8,
      "ch": 1,
      "note": 40,
      "vel": 93,
      "dur": 25
    },
    {
      "t": 1592.9,
      "ch": 1,
      "note": 42,
      "vel": 73,
      "dur": 25
    },
    {
      "t": 1593,
      "ch": 0,
      "note": 36,
      "vel": 116,
      "dur": 55
    },
    {
      "t": 1593,
      "ch": 1,
      "note": 36,
      "vel": 100,
      "dur": 25
    },
    {
      "t": 1593,
      "ch": 7,
      "note": 48,
      "vel": 78,
      "dur": 80
    },
    {
      "t": 1593,
      "ch": 7,
      "note": 45,
      "vel": 60,
      "dur": 80
    },
    {
      "t": 1593,
      "ch": 7,
      "note": 36,
      "vel": 69,
      "dur": 80
    },
    {
      "t": 1593,
      "ch": 7,
      "note": 38,
      "vel": 68,
      "dur": 80
    },
    {
      "t": 1593,
      "ch": 6,
      "note": 58,
      "vel": 51,
      "dur": 547
    },
    {
      "t": 1593.1,
      "ch": 1,
      "note": 38,
      "vel": 91,
      "dur": 25
    },
    {
      "t": 1593.1,
      "ch": 1,
      "note": 40,
      "vel": 98,
      "dur": 25
    },
    {
      "t": 1593.2,
      "ch": 1,
      "note": 42,
      "vel": 102,
      "dur": 25
    },
    {
      "t": 1593.3,
      "ch": 1,
      "note": 36,
      "vel": 90,
      "dur": 25
    },
    {
      "t": 1593.3,
      "ch": 7,
      "note": 36,
      "vel": 67,
      "dur": 80
    },
    {
      "t": 1593.4,
      "ch": 1,
      "note": 38,
      "vel": 82,
      "dur": 25
    },
    {
      "t": 1593.4,
      "ch": 1,
      "note": 40,
      "vel": 71,
      "dur": 25
    },
    {
      "t": 1593.5,
      "ch": 1,
      "note": 42,
      "vel": 114,
      "dur": 25
    },
    {
      "t": 1593.6,
      "ch": 0,
      "note": 36,
      "vel": 91,
      "dur": 55
    },
    {
      "t": 1593.6,
      "ch": 1,
      "note": 36,
      "vel": 97,
      "dur": 25
    },
    {
      "t": 1593.6,
      "ch": 7,
      "note": 48,
      "vel": 76,
      "dur": 80
    },
    {
      "t": 1593.6,
      "ch": 7,
      "note": 36,
      "vel": 69,
      "dur": 80
    },
    {
      "t": 1593.7,
      "ch": 1,
      "note": 38,
      "vel": 113,
      "dur": 25
    },
    {
      "t": 1593.7,
      "ch": 1,
      "note": 40,
      "vel": 87,
      "dur": 25
    },
    {
      "t": 1593.8,
      "ch": 7,
      "note": 38,
      "vel": 57,
      "dur": 80
    },
    {
      "t": 1593.8,
      "ch": 7,
      "note": 45,
      "vel": 65,
      "dur": 80
    },
    {
      "t": 1593.8,
      "ch": 6,
      "note": 54,
      "vel": 34,
      "dur": 544
    },
    {
      "t": 1593.8,
      "ch": 1,
      "note": 42,
      "vel": 98,
      "dur": 25
    },
    {
      "t": 1593.9,
      "ch": 1,
      "note": 36,
      "vel": 89,
      "dur": 25
    },
    {
      "t": 1593.9,
      "ch": 5,
      "note": 56,
      "vel": 64,
      "dur": 815
    },
    {
      "t": 1593.9,
      "ch": 6,
      "note": 59,
      "vel": 44,
      "dur": 544
    },
    {
      "t": 1594,
      "ch": 1,
      "note": 38,
      "vel": 97,
      "dur": 25
    },
    {
      "t": 1594,
      "ch": 1,
      "note": 40,
      "vel": 73,
      "dur": 25
    },
    {
      "t": 1594.1,
      "ch": 4,
      "note": 59,
      "vel": 75,
      "dur": 2350
    },
    {
      "t": 1594.1,
      "ch": 3,
      "note": 40,
      "vel": 74,
      "dur": 2400
    },
    {
      "t": 1594.1,
      "ch": 1,
      "note": 42,
      "vel": 96,
      "dur": 25
    },
    {
      "t": 1594.2,
      "ch": 0,
      "note": 36,
      "vel": 89,
      "dur": 55
    },
    {
      "t": 1594.2,
      "ch": 1,
      "note": 36,
      "vel": 100,
      "dur": 25
    },
    {
      "t": 1594.2,
      "ch": 7,
      "note": 48,
      "vel": 78,
      "dur": 80
    },
    {
      "t": 1594.2,
      "ch": 7,
      "note": 36,
      "vel": 64,
      "dur": 80
    },
    {
      "t": 1594.3,
      "ch": 1,
      "note": 38,
      "vel": 101,
      "dur": 25
    },
    {
      "t": 1594.4,
      "ch": 1,
      "note": 40,
      "vel": 78,
      "dur": 25
    },
    {
      "t": 1594.4,
      "ch": 1,
      "note": 42,
      "vel": 69,
      "dur": 25
    },
    {
      "t": 1594.5,
      "ch": 1,
      "note": 36,
      "vel": 91,
      "dur": 25
    },
    {
      "t": 1594.5,
      "ch": 7,
      "note": 45,
      "vel": 63,
      "dur": 80
    },
    {
      "t": 1594.5,
      "ch": 7,
      "note": 36,
      "vel": 64,
      "dur": 80
    },
    {
      "t": 1594.5,
      "ch": 7,
      "note": 38,
      "vel": 59,
      "dur": 80
    },
    {
      "t": 1594.5,
      "ch": 5,
      "note": 61,
      "vel": 74,
      "dur": 811
    },
    {
      "t": 1594.6,
      "ch": 1,
      "note": 38,
      "vel": 85,
      "dur": 25
    },
    {
      "t": 1594.6,
      "ch": 1,
      "note": 40,
      "vel": 106,
      "dur": 25
    },
    {
      "t": 1594.7,
      "ch": 1,
      "note": 42,
      "vel": 69,
      "dur": 25
    },
    {
      "t": 1594.8,
      "ch": 0,
      "note": 36,
      "vel": 93,
      "dur": 55
    },
    {
      "t": 1594.8,
      "ch": 1,
      "note": 36,
      "vel": 69,
      "dur": 25
    },
    {
      "t": 1594.8,
      "ch": 7,
      "note": 48,
      "vel": 82,
      "dur": 80
    },
    {
      "t": 1594.8,
      "ch": 7,
      "note": 36,
      "vel": 63,
      "dur": 80
    },
    {
      "t": 1594.9,
      "ch": 1,
      "note": 38,
      "vel": 112,
      "dur": 25
    },
    {
      "t": 1594.9,
      "ch": 1,
      "note": 40,
      "vel": 90,
      "dur": 25
    },
    {
      "t": 1595,
      "ch": 5,
      "note": 52,
      "vel": 53,
      "dur": 809
    },
    {
      "t": 1595,
      "ch": 1,
      "note": 42,
      "vel": 103,
      "dur": 25
    },
    {
      "t": 1595.1,
      "ch": 1,
      "note": 36,
      "vel": 99,
      "dur": 25
    },
    {
      "t": 1595.1,
      "ch": 6,
      "note": 54,
      "vel": 46,
      "dur": 538
    },
    {
      "t": 1595.2,
      "ch": 1,
      "note": 38,
      "vel": 92,
      "dur": 25
    },
    {
      "t": 1595.2,
      "ch": 1,
      "note": 40,
      "vel": 104,
      "dur": 25
    },
    {
      "t": 1595.3,
      "ch": 1,
      "note": 42,
      "vel": 88,
      "dur": 25
    },
    {
      "t": 1595.4,
      "ch": 0,
      "note": 36,
      "vel": 110,
      "dur": 55
    },
    {
      "t": 1595.4,
      "ch": 1,
      "note": 36,
      "vel": 91,
      "dur": 25
    },
    {
      "t": 1595.4,
      "ch": 7,
      "note": 48,
      "vel": 66,
      "dur": 80
    },
    {
      "t": 1595.4,
      "ch": 7,
      "note": 45,
      "vel": 68,
      "dur": 80
    },
    {
      "t": 1595.4,
      "ch": 7,
      "note": 36,
      "vel": 69,
      "dur": 80
    },
    {
      "t": 1595.4,
      "ch": 7,
      "note": 38,
      "vel": 72,
      "dur": 80
    },
    {
      "t": 1595.5,
      "ch": 1,
      "note": 38,
      "vel": 115,
      "dur": 25
    },
    {
      "t": 1595.5,
      "ch": 1,
      "note": 40,
      "vel": 107,
      "dur": 25
    },
    {
      "t": 1595.6,
      "ch": 1,
      "note": 42,
      "vel": 99,
      "dur": 25
    },
    {
      "t": 1595.7,
      "ch": 1,
      "note": 36,
      "vel": 111,
      "dur": 25
    },
    {
      "t": 1595.7,
      "ch": 7,
      "note": 36,
      "vel": 55,
      "dur": 80
    },
    {
      "t": 1595.7,
      "ch": 6,
      "note": 54,
      "vel": 48,
      "dur": 536
    },
    {
      "t": 1595.8,
      "ch": 1,
      "note": 38,
      "vel": 92,
      "dur": 25
    },
    {
      "t": 1595.8,
      "ch": 1,
      "note": 40,
      "vel": 113,
      "dur": 25
    },
    {
      "t": 1595.9,
      "ch": 1,
      "note": 42,
      "vel": 108,
      "dur": 25
    },
    {
      "t": 1596,
      "ch": 0,
      "note": 36,
      "vel": 90,
      "dur": 55
    },
    {
      "t": 1596,
      "ch": 1,
      "note": 36,
      "vel": 118,
      "dur": 25
    },
    {
      "t": 1596,
      "ch": 7,
      "note": 48,
      "vel": 70,
      "dur": 80
    },
    {
      "t": 1596,
      "ch": 7,
      "note": 36,
      "vel": 66,
      "dur": 80
    },
    {
      "t": 1596.1,
      "ch": 1,
      "note": 38,
      "vel": 110,
      "dur": 25
    },
    {
      "t": 1596.1,
      "ch": 1,
      "note": 40,
      "vel": 91,
      "dur": 25
    },
    {
      "t": 1596.2,
      "ch": 7,
      "note": 45,
      "vel": 58,
      "dur": 80
    },
    {
      "t": 1596.2,
      "ch": 7,
      "note": 38,
      "vel": 63,
      "dur": 80
    },
    {
      "t": 1596.2,
      "ch": 1,
      "note": 42,
      "vel": 95,
      "dur": 25
    },
    {
      "t": 1596.3,
      "ch": 1,
      "note": 36,
      "vel": 91,
      "dur": 25
    },
    {
      "t": 1596.4,
      "ch": 1,
      "note": 38,
      "vel": 96,
      "dur": 25
    },
    {
      "t": 1596.4,
      "ch": 1,
      "note": 40,
      "vel": 121,
      "dur": 25
    },
    {
      "t": 1596.5,
      "ch": 5,
      "note": 56,
      "vel": 47,
      "dur": 799
    },
    {
      "t": 1596.5,
      "ch": 1,
      "note": 42,
      "vel": 99,
      "dur": 25
    },
    {
      "t": 1596.6,
      "ch": 0,
      "note": 36,
      "vel": 97,
      "dur": 55
    },
    {
      "t": 1596.6,
      "ch": 1,
      "note": 36,
      "vel": 127,
      "dur": 25
    },
    {
      "t": 1596.6,
      "ch": 7,
      "note": 48,
      "vel": 65,
      "dur": 80
    },
    {
      "t": 1596.6,
      "ch": 7,
      "note": 36,
      "vel": 59,
      "dur": 80
    },
    {
      "t": 1596.7,
      "ch": 1,
      "note": 38,
      "vel": 105,
      "dur": 25
    },
    {
      "t": 1596.7,
      "ch": 1,
      "note": 40,
      "vel": 112,
      "dur": 25
    },
    {
      "t": 1596.8,
      "ch": 1,
      "note": 42,
      "vel": 89,
      "dur": 25
    },
    {
      "t": 1596.9,
      "ch": 1,
      "note": 36,
      "vel": 110,
      "dur": 25
    },
    {
      "t": 1596.9,
      "ch": 7,
      "note": 38,
      "vel": 60,
      "dur": 80
    },
    {
      "t": 1596.9,
      "ch": 5,
      "note": 54,
      "vel": 58,
      "dur": 797
    },
    {
      "t": 1596.9,
      "ch": 7,
      "note": 45,
      "vel": 56,
      "dur": 80
    },
    {
      "t": 1596.9,
      "ch": 7,
      "note": 36,
      "vel": 73,
      "dur": 80
    },
    {
      "t": 1597,
      "ch": 1,
      "note": 38,
      "vel": 112,
      "dur": 25
    },
    {
      "t": 1597,
      "ch": 1,
      "note": 40,
      "vel": 107,
      "dur": 25
    },
    {
      "t": 1597.1,
      "ch": 5,
      "note": 70,
      "vel": 82,
      "dur": 796
    },
    {
      "t": 1597.1,
      "ch": 6,
      "note": 58,
      "vel": 55,
      "dur": 531
    },
    {
      "t": 1597.1,
      "ch": 1,
      "note": 42,
      "vel": 105,
      "dur": 25
    },
    {
      "t": 1597.2,
      "ch": 0,
      "note": 36,
      "vel": 97,
      "dur": 55
    },
    {
      "t": 1597.2,
      "ch": 1,
      "note": 36,
      "vel": 94,
      "dur": 25
    },
    {
      "t": 1597.2,
      "ch": 7,
      "note": 48,
      "vel": 70,
      "dur": 80
    },
    {
      "t": 1597.2,
      "ch": 7,
      "note": 36,
      "vel": 69,
      "dur": 80
    },
    {
      "t": 1597.3,
      "ch": 1,
      "note": 38,
      "vel": 97,
      "dur": 25
    },
    {
      "t": 1597.3,
      "ch": 6,
      "note": 59,
      "vel": 17,
      "dur": 400
    },
    {
      "t": 1597.3,
      "ch": 1,
      "note": 40,
      "vel": 101,
      "dur": 25
    },
    {
      "t": 1597.4,
      "ch": 1,
      "note": 42,
      "vel": 105,
      "dur": 25
    },
    {
      "t": 1597.5,
      "ch": 1,
      "note": 36,
      "vel": 80,
      "dur": 25
    },
    {
      "t": 1597.5,
      "ch": 6,
      "note": 58,
      "vel": 48,
      "dur": 529
    },
    {
      "t": 1597.6,
      "ch": 1,
      "note": 38,
      "vel": 91,
      "dur": 25
    },
    {
      "t": 1597.6,
      "ch": 1,
      "note": 40,
      "vel": 96,
      "dur": 25
    },
    {
      "t": 1597.7,
      "ch": 5,
      "note": 61,
      "vel": 56,
      "dur": 793
    },
    {
      "t": 1597.7,
      "ch": 1,
      "note": 42,
      "vel": 116,
      "dur": 25
    },
    {
      "t": 1597.8,
      "ch": 0,
      "note": 36,
      "vel": 117,
      "dur": 55
    },
    {
      "t": 1597.8,
      "ch": 1,
      "note": 36,
      "vel": 107,
      "dur": 25
    },
    {
      "t": 1597.8,
      "ch": 7,
      "note": 48,
      "vel": 69,
      "dur": 80
    },
    {
      "t": 1597.8,
      "ch": 7,
      "note": 45,
      "vel": 70,
      "dur": 80
    },
    {
      "t": 1597.8,
      "ch": 7,
      "note": 36,
      "vel": 77,
      "dur": 80
    },
    {
      "t": 1597.8,
      "ch": 7,
      "note": 38,
      "vel": 65,
      "dur": 80
    },
    {
      "t": 1597.9,
      "ch": 1,
      "note": 38,
      "vel": 111,
      "dur": 25
    },
    {
      "t": 1597.9,
      "ch": 1,
      "note": 40,
      "vel": 86,
      "dur": 25
    },
    {
      "t": 1598,
      "ch": 5,
      "note": 63,
      "vel": 49,
      "dur": 792
    },
    {
      "t": 1598,
      "ch": 1,
      "note": 42,
      "vel": 100,
      "dur": 25
    },
    {
      "t": 1598.1,
      "ch": 1,
      "note": 36,
      "vel": 67,
      "dur": 25
    },
    {
      "t": 1598.1,
      "ch": 7,
      "note": 36,
      "vel": 56,
      "dur": 80
    },
    {
      "t": 1598.1,
      "ch": 5,
      "note": 52,
      "vel": 45,
      "dur": 792
    },
    {
      "t": 1598.2,
      "ch": 1,
      "note": 38,
      "vel": 97,
      "dur": 25
    },
    {
      "t": 1598.2,
      "ch": 1,
      "note": 40,
      "vel": 120,
      "dur": 25
    },
    {
      "t": 1598.3,
      "ch": 1,
      "note": 42,
      "vel": 92,
      "dur": 25
    },
    {
      "t": 1598.4,
      "ch": 0,
      "note": 36,
      "vel": 92,
      "dur": 55
    },
    {
      "t": 1598.4,
      "ch": 1,
      "note": 36,
      "vel": 91,
      "dur": 25
    },
    {
      "t": 1598.4,
      "ch": 7,
      "note": 48,
      "vel": 82,
      "dur": 80
    },
    {
      "t": 1598.4,
      "ch": 7,
      "note": 36,
      "vel": 67,
      "dur": 80
    },
    {
      "t": 1598.5,
      "ch": 1,
      "note": 38,
      "vel": 112,
      "dur": 25
    },
    {
      "t": 1598.5,
      "ch": 1,
      "note": 40,
      "vel": 95,
      "dur": 25
    },
    {
      "t": 1598.6,
      "ch": 7,
      "note": 45,
      "vel": 57,
      "dur": 80
    },
    {
      "t": 1598.6,
      "ch": 7,
      "note": 38,
      "vel": 61,
      "dur": 80
    },
    {
      "t": 1598.6,
      "ch": 5,
      "note": 56,
      "vel": 40,
      "dur": 790
    },
    {
      "t": 1598.6,
      "ch": 6,
      "note": 56,
      "vel": 21,
      "dur": 400
    },
    {
      "t": 1598.6,
      "ch": 1,
      "note": 42,
      "vel": 95,
      "dur": 25
    },
    {
      "t": 1598.7,
      "ch": 1,
      "note": 36,
      "vel": 113,
      "dur": 25
    },
    {
      "t": 1598.7,
      "ch": 6,
      "note": 59,
      "vel": 40,
      "dur": 527
    },
    {
      "t": 1598.8,
      "ch": 1,
      "note": 38,
      "vel": 99,
      "dur": 25
    },
    {
      "t": 1598.8,
      "ch": 1,
      "note": 40,
      "vel": 90,
      "dur": 25
    },
    {
      "t": 1598.9,
      "ch": 2,
      "note": 49,
      "vel": 63,
      "dur": 18000
    },
    {
      "t": 1598.9,
      "ch": 1,
      "note": 42,
      "vel": 110,
      "dur": 25
    },
    {
      "t": 1599,
      "ch": 0,
      "note": 36,
      "vel": 97,
      "dur": 55
    },
    {
      "t": 1599,
      "ch": 1,
      "note": 36,
      "vel": 108,
      "dur": 25
    },
    {
      "t": 1599,
      "ch": 7,
      "note": 48,
      "vel": 57,
      "dur": 80
    },
    {
      "t": 1599,
      "ch": 7,
      "note": 36,
      "vel": 74,
      "dur": 80
    },
    {
      "t": 1599.1,
      "ch": 1,
      "note": 38,
      "vel": 97,
      "dur": 25
    },
    {
      "t": 1599.1,
      "ch": 1,
      "note": 40,
      "vel": 103,
      "dur": 25
    },
    {
      "t": 1599.2,
      "ch": 6,
      "note": 73,
      "vel": 52,
      "dur": 526
    },
    {
      "t": 1599.2,
      "ch": 1,
      "note": 42,
      "vel": 95,
      "dur": 25
    },
    {
      "t": 1599.3,
      "ch": 1,
      "note": 36,
      "vel": 91,
      "dur": 25
    },
    {
      "t": 1599.3,
      "ch": 7,
      "note": 36,
      "vel": 56,
      "dur": 80
    },
    {
      "t": 1599.3,
      "ch": 7,
      "note": 38,
      "vel": 63,
      "dur": 80
    },
    {
      "t": 1599.3,
      "ch": 7,
      "note": 45,
      "vel": 69,
      "dur": 80
    },
    {
      "t": 1599.4,
      "ch": 1,
      "note": 38,
      "vel": 112,
      "dur": 25
    },
    {
      "t": 1599.5,
      "ch": 1,
      "note": 40,
      "vel": 88,
      "dur": 25
    },
    {
      "t": 1599.5,
      "ch": 1,
      "note": 42,
      "vel": 109,
      "dur": 25
    },
    {
      "t": 1599.6,
      "ch": 0,
      "note": 36,
      "vel": 90,
      "dur": 55
    },
    {
      "t": 1599.6,
      "ch": 1,
      "note": 36,
      "vel": 86,
      "dur": 25
    },
    {
      "t": 1599.6,
      "ch": 7,
      "note": 48,
      "vel": 64,
      "dur": 80
    },
    {
      "t": 1599.6,
      "ch": 7,
      "note": 36,
      "vel": 76,
      "dur": 80
    },
    {
      "t": 1599.6,
      "ch": 5,
      "note": 54,
      "vel": 43,
      "dur": 788
    },
    {
      "t": 1599.7,
      "ch": 1,
      "note": 38,
      "vel": 94,
      "dur": 25
    },
    {
      "t": 1599.7,
      "ch": 1,
      "note": 40,
      "vel": 105,
      "dur": 25
    },
    {
      "t": 1599.8,
      "ch": 6,
      "note": 64,
      "vel": 58,
      "dur": 525
    },
    {
      "t": 1599.8,
      "ch": 1,
      "note": 42,
      "vel": 78,
      "dur": 25
    },
    {
      "t": 1599.9,
      "ch": 1,
      "note": 36,
      "vel": 93,
      "dur": 25
    },
    {
      "t": 1600,
      "ch": 1,
      "note": 38,
      "vel": 100,
      "dur": 25
    },
    {
      "t": 1600,
      "ch": 1,
      "note": 40,
      "vel": 89,
      "dur": 25
    },
    {
      "t": 1600.1,
      "ch": 6,
      "note": 66,
      "vel": 48,
      "dur": 525
    },
    {
      "t": 1600.1,
      "ch": 1,
      "note": 42,
      "vel": 109,
      "dur": 25
    },
    {
      "t": 1600.2,
      "ch": 0,
      "note": 36,
      "vel": 111,
      "dur": 55
    },
    {
      "t": 1600.2,
      "ch": 1,
      "note": 36,
      "vel": 105,
      "dur": 25
    },
    {
      "t": 1600.2,
      "ch": 7,
      "note": 48,
      "vel": 66,
      "dur": 80
    },
    {
      "t": 1600.2,
      "ch": 7,
      "note": 45,
      "vel": 57,
      "dur": 80
    },
    {
      "t": 1600.2,
      "ch": 7,
      "note": 36,
      "vel": 65,
      "dur": 80
    },
    {
      "t": 1600.2,
      "ch": 7,
      "note": 38,
      "vel": 59,
      "dur": 80
    },
    {
      "t": 1600.3,
      "ch": 1,
      "note": 38,
      "vel": 127,
      "dur": 25
    },
    {
      "t": 1600.3,
      "ch": 1,
      "note": 40,
      "vel": 113,
      "dur": 25
    },
    {
      "t": 1600.4,
      "ch": 1,
      "note": 42,
      "vel": 90,
      "dur": 25
    },
    {
      "t": 1600.5,
      "ch": 1,
      "note": 36,
      "vel": 92,
      "dur": 25
    },
    {
      "t": 1600.5,
      "ch": 7,
      "note": 36,
      "vel": 57,
      "dur": 80
    },
    {
      "t": 1600.6,
      "ch": 1,
      "note": 38,
      "vel": 81,
      "dur": 25
    },
    {
      "t": 1600.6,
      "ch": 1,
      "note": 40,
      "vel": 97,
      "dur": 25
    },
    {
      "t": 1600.7,
      "ch": 1,
      "note": 42,
      "vel": 83,
      "dur": 25
    },
    {
      "t": 1600.8,
      "ch": 0,
      "note": 36,
      "vel": 89,
      "dur": 55
    },
    {
      "t": 1600.8,
      "ch": 1,
      "note": 36,
      "vel": 105,
      "dur": 25
    },
    {
      "t": 1600.8,
      "ch": 7,
      "note": 48,
      "vel": 69,
      "dur": 80
    },
    {
      "t": 1600.8,
      "ch": 7,
      "note": 36,
      "vel": 71,
      "dur": 80
    },
    {
      "t": 1600.9,
      "ch": 1,
      "note": 38,
      "vel": 113,
      "dur": 25
    },
    {
      "t": 1600.9,
      "ch": 1,
      "note": 40,
      "vel": 84,
      "dur": 25
    },
    {
      "t": 1601,
      "ch": 7,
      "note": 45,
      "vel": 62,
      "dur": 80
    },
    {
      "t": 1601,
      "ch": 7,
      "note": 38,
      "vel": 67,
      "dur": 80
    },
    {
      "t": 1601,
      "ch": 5,
      "note": 70,
      "vel": 73,
      "dur": 788
    },
    {
      "t": 1601,
      "ch": 1,
      "note": 42,
      "vel": 91,
      "dur": 25
    },
    {
      "t": 1601.1,
      "ch": 1,
      "note": 36,
      "vel": 99,
      "dur": 25
    },
    {
      "t": 1601.2,
      "ch": 1,
      "note": 38,
      "vel": 88,
      "dur": 25
    },
    {
      "t": 1601.2,
      "ch": 1,
      "note": 40,
      "vel": 110,
      "dur": 25
    },
    {
      "t": 1601.3,
      "ch": 6,
      "note": 54,
      "vel": 63,
      "dur": 525
    },
    {
      "t": 1601.3,
      "ch": 1,
      "note": 42,
      "vel": 100,
      "dur": 25
    },
    {
      "t": 1601.3,
      "ch": 6,
      "note": 73,
      "vel": 32,
      "dur": 400
    },
    {
      "t": 1601.4,
      "ch": 0,
      "note": 36,
      "vel": 97,
      "dur": 55
    },
    {
      "t": 1601.4,
      "ch": 1,
      "note": 36,
      "vel": 103,
      "dur": 25
    },
    {
      "t": 1601.4,
      "ch": 7,
      "note": 48,
      "vel": 62,
      "dur": 80
    },
    {
      "t": 1601.4,
      "ch": 7,
      "note": 36,
      "vel": 84,
      "dur": 80
    },
    {
      "t": 1601.4,
      "ch": 6,
      "note": 59,
      "vel": 63,
      "dur": 526
    },
    {
      "t": 1601.4,
      "ch": 5,
      "note": 61,
      "vel": 57,
      "dur": 788
    },
    {
      "t": 1601.5,
      "ch": 1,
      "note": 38,
      "vel": 99,
      "dur": 25
    },
    {
      "t": 1601.5,
      "ch": 1,
      "note": 40,
      "vel": 99,
      "dur": 25
    },
    {
      "t": 1601.6,
      "ch": 5,
      "note": 63,
      "vel": 46,
      "dur": 789
    },
    {
      "t": 1601.6,
      "ch": 1,
      "note": 42,
      "vel": 94,
      "dur": 25
    },
    {
      "t": 1601.7,
      "ch": 1,
      "note": 36,
      "vel": 99,
      "dur": 25
    },
    {
      "t": 1601.7,
      "ch": 7,
      "note": 36,
      "vel": 56,
      "dur": 80
    },
    {
      "t": 1601.7,
      "ch": 7,
      "note": 45,
      "vel": 56,
      "dur": 80
    },
    {
      "t": 1601.7,
      "ch": 7,
      "note": 38,
      "vel": 55,
      "dur": 80
    },
    {
      "t": 1601.7,
      "ch": 5,
      "note": 58,
      "vel": 77,
      "dur": 789
    },
    {
      "t": 1601.8,
      "ch": 1,
      "note": 38,
      "vel": 95,
      "dur": 25
    },
    {
      "t": 1601.8,
      "ch": 1,
      "note": 40,
      "vel": 97,
      "dur": 25
    },
    {
      "t": 1601.9,
      "ch": 1,
      "note": 42,
      "vel": 86,
      "dur": 25
    },
    {
      "t": 1602,
      "ch": 0,
      "note": 36,
      "vel": 92,
      "dur": 55
    },
    {
      "t": 1602,
      "ch": 1,
      "note": 36,
      "vel": 110,
      "dur": 25
    },
    {
      "t": 1602,
      "ch": 7,
      "note": 48,
      "vel": 63,
      "dur": 80
    },
    {
      "t": 1602,
      "ch": 7,
      "note": 36,
      "vel": 85,
      "dur": 80
    },
    {
      "t": 1602.1,
      "ch": 1,
      "note": 38,
      "vel": 111,
      "dur": 25
    },
    {
      "t": 1602.1,
      "ch": 1,
      "note": 40,
      "vel": 101,
      "dur": 25
    },
    {
      "t": 1602.2,
      "ch": 6,
      "note": 66,
      "vel": 36,
      "dur": 527
    },
    {
      "t": 1602.2,
      "ch": 1,
      "note": 42,
      "vel": 107,
      "dur": 25
    },
    {
      "t": 1602.3,
      "ch": 1,
      "note": 36,
      "vel": 103,
      "dur": 25
    },
    {
      "t": 1602.4,
      "ch": 1,
      "note": 38,
      "vel": 80,
      "dur": 25
    },
    {
      "t": 1602.4,
      "ch": 1,
      "note": 40,
      "vel": 90,
      "dur": 25
    },
    {
      "t": 1602.5,
      "ch": 6,
      "note": 61,
      "vel": 44,
      "dur": 527
    },
    {
      "t": 1602.5,
      "ch": 1,
      "note": 42,
      "vel": 90,
      "dur": 25
    },
    {
      "t": 1602.6,
      "ch": 0,
      "note": 36,
      "vel": 110,
      "dur": 55
    },
    {
      "t": 1602.6,
      "ch": 1,
      "note": 36,
      "vel": 110,
      "dur": 25
    },
    {
      "t": 1602.6,
      "ch": 7,
      "note": 48,
      "vel": 56,
      "dur": 80
    },
    {
      "t": 1602.6,
      "ch": 7,
      "note": 45,
      "vel": 81,
      "dur": 80
    },
    {
      "t": 1602.6,
      "ch": 7,
      "note": 36,
      "vel": 71,
      "dur": 80
    },
    {
      "t": 1602.6,
      "ch": 7,
      "note": 38,
      "vel": 87,
      "dur": 80
    },
    {
      "t": 1602.7,
      "ch": 1,
      "note": 38,
      "vel": 127,
      "dur": 25
    },
    {
      "t": 1602.7,
      "ch": 1,
      "note": 40,
      "vel": 112,
      "dur": 25
    },
    {
      "t": 1602.8,
      "ch": 5,
      "note": 56,
      "vel": 57,
      "dur": 792
    },
    {
      "t": 1602.8,
      "ch": 1,
      "note": 42,
      "vel": 92,
      "dur": 25
    },
    {
      "t": 1602.9,
      "ch": 1,
      "note": 36,
      "vel": 115,
      "dur": 25
    },
    {
      "t": 1602.9,
      "ch": 7,
      "note": 36,
      "vel": 65,
      "dur": 80
    },
    {
      "t": 1603,
      "ch": 1,
      "note": 38,
      "vel": 100,
      "dur": 25
    },
    {
      "t": 1603.1,
      "ch": 1,
      "note": 40,
      "vel": 95,
      "dur": 25
    },
    {
      "t": 1603.1,
      "ch": 6,
      "note": 59,
      "vel": 30,
      "dur": 400
    },
    {
      "t": 1603.1,
      "ch": 5,
      "note": 52,
      "vel": 56,
      "dur": 793
    },
    {
      "t": 1603.1,
      "ch": 1,
      "note": 42,
      "vel": 109,
      "dur": 25
    },
    {
      "t": 1603.2,
      "ch": 0,
      "note": 36,
      "vel": 93,
      "dur": 55
    },
    {
      "t": 1603.2,
      "ch": 1,
      "note": 36,
      "vel": 92,
      "dur": 25
    },
    {
      "t": 1603.2,
      "ch": 7,
      "note": 48,
      "vel": 89,
      "dur": 80
    },
    {
      "t": 1603.2,
      "ch": 7,
      "note": 36,
      "vel": 73,
      "dur": 80
    },
    {
      "t": 1603.3,
      "ch": 1,
      "note": 38,
      "vel": 112,
      "dur": 25
    },
    {
      "t": 1603.3,
      "ch": 1,
      "note": 40,
      "vel": 98,
      "dur": 25
    },
    {
      "t": 1603.4,
      "ch": 7,
      "note": 45,
      "vel": 64,
      "dur": 80
    },
    {
      "t": 1603.4,
      "ch": 7,
      "note": 38,
      "vel": 59,
      "dur": 80
    },
    {
      "t": 1603.4,
      "ch": 6,
      "note": 61,
      "vel": 55,
      "dur": 530
    },
    {
      "t": 1603.4,
      "ch": 1,
      "note": 42,
      "vel": 117,
      "dur": 25
    },
    {
      "t": 1603.5,
      "ch": 1,
      "note": 36,
      "vel": 95,
      "dur": 25
    },
    {
      "t": 1603.6,
      "ch": 1,
      "note": 38,
      "vel": 110,
      "dur": 25
    },
    {
      "t": 1603.6,
      "ch": 1,
      "note": 40,
      "vel": 98,
      "dur": 25
    },
    {
      "t": 1603.7,
      "ch": 6,
      "note": 61,
      "vel": 53,
      "dur": 531
    },
    {
      "t": 1603.7,
      "ch": 5,
      "note": 56,
      "vel": 59,
      "dur": 796
    },
    {
      "t": 1603.7,
      "ch": 1,
      "note": 42,
      "vel": 108,
      "dur": 25
    },
    {
      "t": 1603.8,
      "ch": 0,
      "note": 36,
      "vel": 96,
      "dur": 55
    },
    {
      "t": 1603.8,
      "ch": 1,
      "note": 36,
      "vel": 115,
      "dur": 25
    },
    {
      "t": 1603.8,
      "ch": 7,
      "note": 48,
      "vel": 64,
      "dur": 80
    },
    {
      "t": 1603.8,
      "ch": 7,
      "note": 36,
      "vel": 60,
      "dur": 80
    },
    {
      "t": 1603.8,
      "ch": 5,
      "note": 54,
      "vel": 54,
      "dur": 797
    },
    {
      "t": 1603.9,
      "ch": 6,
      "note": 59,
      "vel": 31,
      "dur": 400
    },
    {
      "t": 1603.9,
      "ch": 1,
      "note": 38,
      "vel": 111,
      "dur": 25
    },
    {
      "t": 1603.9,
      "ch": 1,
      "note": 40,
      "vel": 118,
      "dur": 25
    },
    {
      "t": 1604,
      "ch": 1,
      "note": 42,
      "vel": 94,
      "dur": 25
    },
    {
      "t": 1604.1,
      "ch": 1,
      "note": 36,
      "vel": 107,
      "dur": 25
    },
    {
      "t": 1604.1,
      "ch": 7,
      "note": 36,
      "vel": 55,
      "dur": 80
    },
    {
      "t": 1604.1,
      "ch": 7,
      "note": 38,
      "vel": 60,
      "dur": 80
    },
    {
      "t": 1604.1,
      "ch": 5,
      "note": 58,
      "vel": 39,
      "dur": 798
    },
    {
      "t": 1604.1,
      "ch": 7,
      "note": 45,
      "vel": 63,
      "dur": 80
    },
    {
      "t": 1604.1,
      "ch": 6,
      "note": 59,
      "vel": 34,
      "dur": 532
    },
    {
      "t": 1604.2,
      "ch": 1,
      "note": 38,
      "vel": 108,
      "dur": 25
    },
    {
      "t": 1604.2,
      "ch": 1,
      "note": 40,
      "vel": 106,
      "dur": 25
    },
    {
      "t": 1604.3,
      "ch": 1,
      "note": 42,
      "vel": 95,
      "dur": 25
    },
    {
      "t": 1604.4,
      "ch": 0,
      "note": 36,
      "vel": 93,
      "dur": 55
    },
    {
      "t": 1604.4,
      "ch": 1,
      "note": 36,
      "vel": 87,
      "dur": 25
    },
    {
      "t": 1604.4,
      "ch": 7,
      "note": 48,
      "vel": 65,
      "dur": 80
    },
    {
      "t": 1604.4,
      "ch": 7,
      "note": 36,
      "vel": 77,
      "dur": 80
    },
    {
      "t": 1604.5,
      "ch": 1,
      "note": 38,
      "vel": 126,
      "dur": 25
    },
    {
      "t": 1604.5,
      "ch": 1,
      "note": 40,
      "vel": 114,
      "dur": 25
    },
    {
      "t": 1604.6,
      "ch": 1,
      "note": 42,
      "vel": 101,
      "dur": 25
    },
    {
      "t": 1604.7,
      "ch": 1,
      "note": 36,
      "vel": 110,
      "dur": 25
    },
    {
      "t": 1604.7,
      "ch": 6,
      "note": 61,
      "vel": 55,
      "dur": 534
    },
    {
      "t": 1604.8,
      "ch": 1,
      "note": 38,
      "vel": 109,
      "dur": 25
    },
    {
      "t": 1604.8,
      "ch": 1,
      "note": 40,
      "vel": 94,
      "dur": 25
    },
    {
      "t": 1604.9,
      "ch": 1,
      "note": 42,
      "vel": 105,
      "dur": 25
    },
    {
      "t": 1605,
      "ch": 1,
      "note": 36,
      "vel": 104,
      "dur": 25
    },
    {
      "t": 1605,
      "ch": 7,
      "note": 48,
      "vel": 76,
      "dur": 80
    },
    {
      "t": 1605,
      "ch": 7,
      "note": 45,
      "vel": 75,
      "dur": 80
    },
    {
      "t": 1605,
      "ch": 7,
      "note": 36,
      "vel": 75,
      "dur": 80
    },
    {
      "t": 1605,
      "ch": 7,
      "note": 38,
      "vel": 70,
      "dur": 80
    },
    {
      "t": 1605.1,
      "ch": 1,
      "note": 38,
      "vel": 98,
      "dur": 25
    },
    {
      "t": 1605.1,
      "ch": 1,
      "note": 40,
      "vel": 89,
      "dur": 25
    },
    {
      "t": 1605.2,
      "ch": 6,
      "note": 52,
      "vel": 43,
      "dur": 536
    },
    {
      "t": 1605.2,
      "ch": 1,
      "note": 42,
      "vel": 106,
      "dur": 25
    },
    {
      "t": 1605.3,
      "ch": 1,
      "note": 36,
      "vel": 97,
      "dur": 25
    },
    {
      "t": 1605.3,
      "ch": 7,
      "note": 36,
      "vel": 56,
      "dur": 80
    },
    {
      "t": 1605.4,
      "ch": 1,
      "note": 38,
      "vel": 74,
      "dur": 25
    },
    {
      "t": 1605.4,
      "ch": 1,
      "note": 40,
      "vel": 67,
      "dur": 25
    },
    {
      "t": 1605.5,
      "ch": 6,
      "note": 58,
      "vel": 61,
      "dur": 537
    },
    {
      "t": 1605.5,
      "ch": 1,
      "note": 42,
      "vel": 80,
      "dur": 25
    },
    {
      "t": 1605.6,
      "ch": 1,
      "note": 36,
      "vel": 100,
      "dur": 25
    },
    {
      "t": 1605.6,
      "ch": 7,
      "note": 48,
      "vel": 73,
      "dur": 80
    },
    {
      "t": 1605.6,
      "ch": 7,
      "note": 36,
      "vel": 76,
      "dur": 80
    },
    {
      "t": 1605.6,
      "ch": 5,
      "note": 58,
      "vel": 85,
      "dur": 807
    },
    {
      "t": 1605.7,
      "ch": 1,
      "note": 38,
      "vel": 107,
      "dur": 25
    },
    {
      "t": 1605.8,
      "ch": 1,
      "note": 40,
      "vel": 91,
      "dur": 25
    },
    {
      "t": 1605.8,
      "ch": 7,
      "note": 45,
      "vel": 57,
      "dur": 80
    },
    {
      "t": 1605.8,
      "ch": 7,
      "note": 38,
      "vel": 59,
      "dur": 80
    },
    {
      "t": 1605.8,
      "ch": 1,
      "note": 42,
      "vel": 77,
      "dur": 25
    },
    {
      "t": 1605.9,
      "ch": 1,
      "note": 36,
      "vel": 90,
      "dur": 25
    },
    {
      "t": 1606,
      "ch": 1,
      "note": 38,
      "vel": 98,
      "dur": 25
    },
    {
      "t": 1606,
      "ch": 1,
      "note": 40,
      "vel": 87,
      "dur": 25
    },
    {
      "t": 1606.1,
      "ch": 6,
      "note": 63,
      "vel": 32,
      "dur": 539
    },
    {
      "t": 1606.1,
      "ch": 4,
      "note": 58,
      "vel": 88,
      "dur": 2350
    },
    {
      "t": 1606.1,
      "ch": 1,
      "note": 42,
      "vel": 90,
      "dur": 25
    },
    {
      "t": 1606.2,
      "ch": 1,
      "note": 36,
      "vel": 97,
      "dur": 25
    },
    {
      "t": 1606.2,
      "ch": 7,
      "note": 48,
      "vel": 69,
      "dur": 80
    },
    {
      "t": 1606.2,
      "ch": 7,
      "note": 36,
      "vel": 76,
      "dur": 80
    },
    {
      "t": 1606.2,
      "ch": 5,
      "note": 56,
      "vel": 64,
      "dur": 810
    },
    {
      "t": 1606.3,
      "ch": 1,
      "note": 38,
      "vel": 100,
      "dur": 25
    },
    {
      "t": 1606.3,
      "ch": 1,
      "note": 40,
      "vel": 103,
      "dur": 25
    },
    {
      "t": 1606.4,
      "ch": 1,
      "note": 42,
      "vel": 86,
      "dur": 25
    },
    {
      "t": 1606.5,
      "ch": 1,
      "note": 36,
      "vel": 82,
      "dur": 25
    },
    {
      "t": 1606.5,
      "ch": 7,
      "note": 45,
      "vel": 60,
      "dur": 80
    },
    {
      "t": 1606.5,
      "ch": 7,
      "note": 36,
      "vel": 78,
      "dur": 80
    },
    {
      "t": 1606.5,
      "ch": 7,
      "note": 38,
      "vel": 67,
      "dur": 80
    },
    {
      "t": 1606.6,
      "ch": 1,
      "note": 38,
      "vel": 89,
      "dur": 25
    },
    {
      "t": 1606.7,
      "ch": 1,
      "note": 40,
      "vel": 111,
      "dur": 25
    },
    {
      "t": 1606.7,
      "ch": 1,
      "note": 42,
      "vel": 95,
      "dur": 25
    },
    {
      "t": 1606.8,
      "ch": 1,
      "note": 36,
      "vel": 83,
      "dur": 25
    },
    {
      "t": 1606.8,
      "ch": 7,
      "note": 48,
      "vel": 64,
      "dur": 80
    },
    {
      "t": 1606.8,
      "ch": 7,
      "note": 36,
      "vel": 79,
      "dur": 80
    },
    {
      "t": 1606.8,
      "ch": 5,
      "note": 52,
      "vel": 66,
      "dur": 814
    },
    {
      "t": 1606.9,
      "ch": 1,
      "note": 38,
      "vel": 100,
      "dur": 25
    },
    {
      "t": 1607,
      "ch": 1,
      "note": 40,
      "vel": 102,
      "dur": 25
    },
    {
      "t": 1607,
      "ch": 5,
      "note": 56,
      "vel": 50,
      "dur": 814
    },
    {
      "t": 1607,
      "ch": 1,
      "note": 42,
      "vel": 90,
      "dur": 25
    },
    {
      "t": 1607.1,
      "ch": 1,
      "note": 36,
      "vel": 82,
      "dur": 25
    },
    {
      "t": 1607.1,
      "ch": 6,
      "note": 56,
      "vel": 25,
      "dur": 400
    },
    {
      "t": 1607.1,
      "ch": 5,
      "note": 54,
      "vel": 46,
      "dur": 815
    },
    {
      "t": 1607.2,
      "ch": 1,
      "note": 38,
      "vel": 97,
      "dur": 25
    },
    {
      "t": 1607.2,
      "ch": 1,
      "note": 40,
      "vel": 87,
      "dur": 25
    },
    {
      "t": 1607.3,
      "ch": 1,
      "note": 42,
      "vel": 83,
      "dur": 25
    },
    {
      "t": 1607.4,
      "ch": 1,
      "note": 36,
      "vel": 120,
      "dur": 25
    },
    {
      "t": 1607.4,
      "ch": 7,
      "note": 48,
      "vel": 73,
      "dur": 80
    },
    {
      "t": 1607.4,
      "ch": 7,
      "note": 45,
      "vel": 63,
      "dur": 80
    },
    {
      "t": 1607.4,
      "ch": 7,
      "note": 36,
      "vel": 65,
      "dur": 80
    },
    {
      "t": 1607.4,
      "ch": 7,
      "note": 38,
      "vel": 89,
      "dur": 80
    },
    {
      "t": 1607.5,
      "ch": 1,
      "note": 38,
      "vel": 109,
      "dur": 25
    },
    {
      "t": 1607.5,
      "ch": 1,
      "note": 40,
      "vel": 92,
      "dur": 25
    },
    {
      "t": 1607.6,
      "ch": 5,
      "note": 58,
      "vel": 66,
      "dur": 818
    },
    {
      "t": 1607.6,
      "ch": 1,
      "note": 42,
      "vel": 90,
      "dur": 25
    },
    {
      "t": 1607.7,
      "ch": 1,
      "note": 36,
      "vel": 85,
      "dur": 25
    },
    {
      "t": 1607.7,
      "ch": 7,
      "note": 36,
      "vel": 60,
      "dur": 80
    },
    {
      "t": 1607.7,
      "ch": 6,
      "note": 54,
      "vel": 53,
      "dur": 546
    },
    {
      "t": 1607.8,
      "ch": 1,
      "note": 38,
      "vel": 98,
      "dur": 25
    },
    {
      "t": 1607.9,
      "ch": 1,
      "note": 40,
      "vel": 111,
      "dur": 25
    },
    {
      "t": 1607.9,
      "ch": 6,
      "note": 61,
      "vel": 35,
      "dur": 400
    },
    {
      "t": 1607.9,
      "ch": 1,
      "note": 42,
      "vel": 107,
      "dur": 25
    },
    {
      "t": 1608,
      "ch": 1,
      "note": 36,
      "vel": 112,
      "dur": 25
    },
    {
      "t": 1608,
      "ch": 7,
      "note": 48,
      "vel": 71,
      "dur": 80
    },
    {
      "t": 1608,
      "ch": 7,
      "note": 36,
      "vel": 66,
      "dur": 80
    },
    {
      "t": 1608.1,
      "ch": 1,
      "note": 38,
      "vel": 101,
      "dur": 25
    },
    {
      "t": 1608.2,
      "ch": 1,
      "note": 40,
      "vel": 72,
      "dur": 25
    },
    {
      "t": 1608.2,
      "ch": 7,
      "note": 38,
      "vel": 74,
      "dur": 80
    },
    {
      "t": 1608.2,
      "ch": 7,
      "note": 45,
      "vel": 61,
      "dur": 80
    },
    {
      "t": 1608.2,
      "ch": 6,
      "note": 59,
      "vel": 56,
      "dur": 547
    },
    {
      "t": 1608.2,
      "ch": 1,
      "note": 42,
      "vel": 71,
      "dur": 25
    },
    {
      "t": 1608.3,
      "ch": 1,
      "note": 36,
      "vel": 104,
      "dur": 25
    },
    {
      "t": 1608.4,
      "ch": 1,
      "note": 38,
      "vel": 77,
      "dur": 25
    },
    {
      "t": 1608.5,
      "ch": 1,
      "note": 40,
      "vel": 106,
      "dur": 25
    },
    {
      "t": 1608.5,
      "ch": 2,
      "note": 49,
      "vel": 61,
      "dur": 18000
    },
    {
      "t": 1608.5,
      "ch": 4,
      "note": 58,
      "vel": 85,
      "dur": 2350
    },
    {
      "t": 1608.5,
      "ch": 1,
      "note": 42,
      "vel": 92,
      "dur": 25
    },
    {
      "t": 1608.6,
      "ch": 1,
      "note": 36,
      "vel": 93,
      "dur": 25
    },
    {
      "t": 1608.6,
      "ch": 7,
      "note": 48,
      "vel": 64,
      "dur": 80
    },
    {
      "t": 1608.6,
      "ch": 7,
      "note": 36,
      "vel": 71,
      "dur": 80
    },
    {
      "t": 1608.6,
      "ch": 5,
      "note": 61,
      "vel": 69,
      "dur": 823
    },
    {
      "t": 1608.7,
      "ch": 1,
      "note": 38,
      "vel": 107,
      "dur": 25
    },
    {
      "t": 1608.7,
      "ch": 1,
      "note": 40,
      "vel": 72,
      "dur": 25
    },
    {
      "t": 1608.8,
      "ch": 5,
      "note": 52,
      "vel": 46,
      "dur": 823
    },
    {
      "t": 1608.8,
      "ch": 6,
      "note": 64,
      "vel": 57,
      "dur": 549
    },
    {
      "t": 1608.8,
      "ch": 1,
      "note": 42,
      "vel": 89,
      "dur": 25
    },
    {
      "t": 1608.9,
      "ch": 1,
      "note": 36,
      "vel": 93,
      "dur": 25
    },
    {
      "t": 1608.9,
      "ch": 7,
      "note": 38,
      "vel": 63,
      "dur": 80
    },
    {
      "t": 1608.9,
      "ch": 7,
      "note": 45,
      "vel": 57,
      "dur": 80
    },
    {
      "t": 1608.9,
      "ch": 7,
      "note": 36,
      "vel": 59,
      "dur": 80
    },
    {
      "t": 1608.9,
      "ch": 6,
      "note": 56,
      "vel": 59,
      "dur": 549
    },
    {
      "t": 1609,
      "ch": 1,
      "note": 38,
      "vel": 92,
      "dur": 25
    },
    {
      "t": 1609,
      "ch": 1,
      "note": 40,
      "vel": 105,
      "dur": 25
    },
    {
      "t": 1609.1,
      "ch": 6,
      "note": 54,
      "vel": 23,
      "dur": 400
    },
    {
      "t": 1609.1,
      "ch": 1,
      "note": 42,
      "vel": 70,
      "dur": 25
    },
    {
      "t": 1609.2,
      "ch": 1,
      "note": 36,
      "vel": 92,
      "dur": 25
    },
    {
      "t": 1609.2,
      "ch": 7,
      "note": 48,
      "vel": 60,
      "dur": 80
    },
    {
      "t": 1609.2,
      "ch": 7,
      "note": 36,
      "vel": 63,
      "dur": 80
    },
    {
      "t": 1609.3,
      "ch": 1,
      "note": 38,
      "vel": 110,
      "dur": 25
    },
    {
      "t": 1609.3,
      "ch": 1,
      "note": 40,
      "vel": 89,
      "dur": 25
    },
    {
      "t": 1609.4,
      "ch": 1,
      "note": 42,
      "vel": 85,
      "dur": 25
    },
    {
      "t": 1609.5,
      "ch": 1,
      "note": 36,
      "vel": 87,
      "dur": 25
    },
    {
      "t": 1609.6,
      "ch": 1,
      "note": 38,
      "vel": 80,
      "dur": 25
    },
    {
      "t": 1609.6,
      "ch": 1,
      "note": 40,
      "vel": 81,
      "dur": 25
    },
    {
      "t": 1609.7,
      "ch": 1,
      "note": 42,
      "vel": 85,
      "dur": 25
    },
    {
      "t": 1609.8,
      "ch": 0,
      "note": 36,
      "vel": 127,
      "dur": 55
    },
    {
      "t": 1609.8,
      "ch": 1,
      "note": 36,
      "vel": 108,
      "dur": 25
    },
    {
      "t": 1609.8,
      "ch": 7,
      "note": 48,
      "vel": 79,
      "dur": 80
    },
    {
      "t": 1609.8,
      "ch": 7,
      "note": 45,
      "vel": 71,
      "dur": 80
    },
    {
      "t": 1609.8,
      "ch": 7,
      "note": 36,
      "vel": 80,
      "dur": 80
    },
    {
      "t": 1609.8,
      "ch": 7,
      "note": 38,
      "vel": 78,
      "dur": 80
    },
    {
      "t": 1609.9,
      "ch": 1,
      "note": 38,
      "vel": 100,
      "dur": 25
    },
    {
      "t": 1609.9,
      "ch": 1,
      "note": 40,
      "vel": 86,
      "dur": 25
    },
    {
      "t": 1610,
      "ch": 5,
      "note": 66,
      "vel": 47,
      "dur": 828
    },
    {
      "t": 1610,
      "ch": 6,
      "note": 73,
      "vel": 56,
      "dur": 552
    },
    {
      "t": 1610,
      "ch": 1,
      "note": 42,
      "vel": 79,
      "dur": 25
    },
    {
      "t": 1610.1,
      "ch": 1,
      "note": 36,
      "vel": 86,
      "dur": 25
    },
    {
      "t": 1610.1,
      "ch": 7,
      "note": 36,
      "vel": 61,
      "dur": 80
    },
    {
      "t": 1610.2,
      "ch": 1,
      "note": 38,
      "vel": 109,
      "dur": 25
    },
    {
      "t": 1610.3,
      "ch": 1,
      "note": 40,
      "vel": 63,
      "dur": 25
    },
    {
      "t": 1610.3,
      "ch": 1,
      "note": 42,
      "vel": 82,
      "dur": 25
    },
    {
      "t": 1610.4,
      "ch": 0,
      "note": 36,
      "vel": 87,
      "dur": 55
    },
    {
      "t": 1610.4,
      "ch": 1,
      "note": 36,
      "vel": 106,
      "dur": 25
    },
    {
      "t": 1610.4,
      "ch": 7,
      "note": 48,
      "vel": 80,
      "dur": 80
    },
    {
      "t": 1610.4,
      "ch": 7,
      "note": 36,
      "vel": 74,
      "dur": 80
    },
    {
      "t": 1610.5,
      "ch": 1,
      "note": 38,
      "vel": 126,
      "dur": 25
    },
    {
      "t": 1610.6,
      "ch": 1,
      "note": 40,
      "vel": 111,
      "dur": 25
    },
    {
      "t": 1610.6,
      "ch": 7,
      "note": 38,
      "vel": 59,
      "dur": 80
    },
    {
      "t": 1610.6,
      "ch": 7,
      "note": 45,
      "vel": 67,
      "dur": 80
    },
    {
      "t": 1610.6,
      "ch": 5,
      "note": 70,
      "vel": 83,
      "dur": 829
    },
    {
      "t": 1610.6,
      "ch": 1,
      "note": 42,
      "vel": 82,
      "dur": 25
    },
    {
      "t": 1610.7,
      "ch": 1,
      "note": 36,
      "vel": 89,
      "dur": 25
    },
    {
      "t": 1610.8,
      "ch": 1,
      "note": 38,
      "vel": 97,
      "dur": 25
    },
    {
      "t": 1610.8,
      "ch": 1,
      "note": 40,
      "vel": 95,
      "dur": 25
    },
    {
      "t": 1610.9,
      "ch": 4,
      "note": 59,
      "vel": 71,
      "dur": 2350
    },
    {
      "t": 1610.9,
      "ch": 3,
      "note": 40,
      "vel": 71,
      "dur": 2400
    },
    {
      "t": 1610.9,
      "ch": 1,
      "note": 42,
      "vel": 96,
      "dur": 25
    },
    {
      "t": 1611,
      "ch": 0,
      "note": 36,
      "vel": 92,
      "dur": 55
    },
    {
      "t": 1611,
      "ch": 1,
      "note": 36,
      "vel": 99,
      "dur": 25
    },
    {
      "t": 1611,
      "ch": 7,
      "note": 48,
      "vel": 71,
      "dur": 80
    },
    {
      "t": 1611,
      "ch": 7,
      "note": 36,
      "vel": 71,
      "dur": 80
    },
    {
      "t": 1611,
      "ch": 6,
      "note": 73,
      "vel": 13,
      "dur": 400
    },
    {
      "t": 1611,
      "ch": 6,
      "note": 64,
      "vel": 30,
      "dur": 553
    },
    {
      "t": 1611.1,
      "ch": 1,
      "note": 38,
      "vel": 107,
      "dur": 25
    },
    {
      "t": 1611.1,
      "ch": 1,
      "note": 40,
      "vel": 114,
      "dur": 25
    },
    {
      "t": 1611.2,
      "ch": 1,
      "note": 42,
      "vel": 85,
      "dur": 25
    },
    {
      "t": 1611.3,
      "ch": 1,
      "note": 36,
      "vel": 89,
      "dur": 25
    },
    {
      "t": 1611.3,
      "ch": 7,
      "note": 36,
      "vel": 57,
      "dur": 80
    },
    {
      "t": 1611.3,
      "ch": 7,
      "note": 38,
      "vel": 59,
      "dur": 80
    },
    {
      "t": 1611.3,
      "ch": 7,
      "note": 45,
      "vel": 72,
      "dur": 80
    },
    {
      "t": 1611.4,
      "ch": 1,
      "note": 38,
      "vel": 104,
      "dur": 25
    },
    {
      "t": 1611.5,
      "ch": 1,
      "note": 40,
      "vel": 93,
      "dur": 25
    },
    {
      "t": 1611.5,
      "ch": 1,
      "note": 42,
      "vel": 87,
      "dur": 25
    },
    {
      "t": 1611.6,
      "ch": 0,
      "note": 36,
      "vel": 88,
      "dur": 55
    },
    {
      "t": 1611.6,
      "ch": 1,
      "note": 36,
      "vel": 103,
      "dur": 25
    },
    {
      "t": 1611.6,
      "ch": 7,
      "note": 48,
      "vel": 66,
      "dur": 80
    },
    {
      "t": 1611.6,
      "ch": 7,
      "note": 36,
      "vel": 79,
      "dur": 80
    },
    {
      "t": 1611.7,
      "ch": 1,
      "note": 38,
      "vel": 119,
      "dur": 25
    },
    {
      "t": 1611.7,
      "ch": 1,
      "note": 40,
      "vel": 91,
      "dur": 25
    },
    {
      "t": 1611.8,
      "ch": 6,
      "note": 70,
      "vel": 57,
      "dur": 553
    },
    {
      "t": 1611.8,
      "ch": 1,
      "note": 42,
      "vel": 97,
      "dur": 25
    },
    {
      "t": 1611.9,
      "ch": 1,
      "note": 36,
      "vel": 79,
      "dur": 25
    },
    {
      "t": 1612,
      "ch": 1,
      "note": 38,
      "vel": 82,
      "dur": 25
    },
    {
      "t": 1612,
      "ch": 1,
      "note": 40,
      "vel": 90,
      "dur": 25
    },
    {
      "t": 1612.1,
      "ch": 6,
      "note": 73,
      "vel": 43,
      "dur": 553
    },
    {
      "t": 1612.1,
      "ch": 1,
      "note": 42,
      "vel": 102,
      "dur": 25
    },
    {
      "t": 1612.2,
      "ch": 0,
      "note": 36,
      "vel": 109,
      "dur": 55
    },
    {
      "t": 1612.2,
      "ch": 1,
      "note": 36,
      "vel": 116,
      "dur": 25
    },
    {
      "t": 1612.2,
      "ch": 7,
      "note": 48,
      "vel": 68,
      "dur": 80
    },
    {
      "t": 1612.2,
      "ch": 7,
      "note": 45,
      "vel": 73,
      "dur": 80
    },
    {
      "t": 1612.2,
      "ch": 7,
      "note": 36,
      "vel": 68,
      "dur": 80
    },
    {
      "t": 1612.2,
      "ch": 7,
      "note": 38,
      "vel": 66,
      "dur": 80
    },
    {
      "t": 1612.2,
      "ch": 5,
      "note": 49,
      "vel": 56,
      "dur": 829
    },
    {
      "t": 1612.3,
      "ch": 1,
      "note": 38,
      "vel": 113,
      "dur": 25
    },
    {
      "t": 1612.3,
      "ch": 1,
      "note": 40,
      "vel": 84,
      "dur": 25
    },
    {
      "t": 1612.4,
      "ch": 1,
      "note": 42,
      "vel": 102,
      "dur": 25
    },
    {
      "t": 1612.5,
      "ch": 1,
      "note": 36,
      "vel": 90,
      "dur": 25
    },
    {
      "t": 1612.5,
      "ch": 7,
      "note": 36,
      "vel": 66,
      "dur": 80
    },
    {
      "t": 1612.6,
      "ch": 1,
      "note": 38,
      "vel": 97,
      "dur": 25
    },
    {
      "t": 1612.6,
      "ch": 1,
      "note": 40,
      "vel": 95,
      "dur": 25
    },
    {
      "t": 1612.7,
      "ch": 1,
      "note": 42,
      "vel": 79,
      "dur": 25
    },
    {
      "t": 1612.8,
      "ch": 0,
      "note": 36,
      "vel": 87,
      "dur": 55
    },
    {
      "t": 1612.8,
      "ch": 1,
      "note": 36,
      "vel": 88,
      "dur": 25
    },
    {
      "t": 1612.8,
      "ch": 7,
      "note": 48,
      "vel": 75,
      "dur": 80
    },
    {
      "t": 1612.8,
      "ch": 7,
      "note": 36,
      "vel": 60,
      "dur": 80
    },
    {
      "t": 1612.9,
      "ch": 1,
      "note": 38,
      "vel": 101,
      "dur": 25
    },
    {
      "t": 1612.9,
      "ch": 1,
      "note": 40,
      "vel": 113,
      "dur": 25
    },
    {
      "t": 1613,
      "ch": 7,
      "note": 45,
      "vel": 56,
      "dur": 80
    },
    {
      "t": 1613,
      "ch": 7,
      "note": 38,
      "vel": 62,
      "dur": 80
    },
    {
      "t": 1613,
      "ch": 5,
      "note": 54,
      "vel": 37,
      "dur": 828
    },
    {
      "t": 1613,
      "ch": 1,
      "note": 42,
      "vel": 90,
      "dur": 25
    },
    {
      "t": 1613.1,
      "ch": 1,
      "note": 36,
      "vel": 80,
      "dur": 25
    },
    {
      "t": 1613.1,
      "ch": 6,
      "note": 58,
      "vel": 49,
      "dur": 552
    },
    {
      "t": 1613.2,
      "ch": 1,
      "note": 38,
      "vel": 93,
      "dur": 25
    },
    {
      "t": 1613.2,
      "ch": 1,
      "note": 40,
      "vel": 82,
      "dur": 25
    },
    {
      "t": 1613.3,
      "ch": 5,
      "note": 61,
      "vel": 57,
      "dur": 827
    },
    {
      "t": 1613.3,
      "ch": 4,
      "note": 59,
      "vel": 68,
      "dur": 2350
    },
    {
      "t": 1613.3,
      "ch": 3,
      "note": 42,
      "vel": 71,
      "dur": 2400
    },
    {
      "t": 1613.3,
      "ch": 1,
      "note": 42,
      "vel": 96,
      "dur": 25
    },
    {
      "t": 1613.4,
      "ch": 0,
      "note": 36,
      "vel": 91,
      "dur": 55
    },
    {
      "t": 1613.4,
      "ch": 1,
      "note": 36,
      "vel": 91,
      "dur": 25
    },
    {
      "t": 1613.4,
      "ch": 7,
      "note": 48,
      "vel": 62,
      "dur": 80
    },
    {
      "t": 1613.4,
      "ch": 7,
      "note": 36,
      "vel": 71,
      "dur": 80
    },
    {
      "t": 1613.5,
      "ch": 1,
      "note": 38,
      "vel": 95,
      "dur": 25
    },
    {
      "t": 1613.5,
      "ch": 6,
      "note": 66,
      "vel": 32,
      "dur": 400
    },
    {
      "t": 1613.5,
      "ch": 1,
      "note": 40,
      "vel": 97,
      "dur": 25
    },
    {
      "t": 1613.6,
      "ch": 5,
      "note": 52,
      "vel": 38,
      "dur": 826
    },
    {
      "t": 1613.6,
      "ch": 1,
      "note": 42,
      "vel": 98,
      "dur": 25
    },
    {
      "t": 1613.7,
      "ch": 1,
      "note": 36,
      "vel": 84,
      "dur": 25
    },
    {
      "t": 1613.7,
      "ch": 7,
      "note": 45,
      "vel": 61,
      "dur": 80
    },
    {
      "t": 1613.7,
      "ch": 7,
      "note": 36,
      "vel": 71,
      "dur": 80
    },
    {
      "t": 1613.7,
      "ch": 7,
      "note": 38,
      "vel": 61,
      "dur": 80
    },
    {
      "t": 1613.8,
      "ch": 1,
      "note": 38,
      "vel": 91,
      "dur": 25
    },
    {
      "t": 1613.9,
      "ch": 1,
      "note": 40,
      "vel": 102,
      "dur": 25
    },
    {
      "t": 1613.9,
      "ch": 6,
      "note": 56,
      "vel": 22,
      "dur": 400
    },
    {
      "t": 1613.9,
      "ch": 1,
      "note": 42,
      "vel": 84,
      "dur": 25
    },
    {
      "t": 1614,
      "ch": 0,
      "note": 36,
      "vel": 95,
      "dur": 55
    },
    {
      "t": 1614,
      "ch": 1,
      "note": 36,
      "vel": 87,
      "dur": 25
    },
    {
      "t": 1614,
      "ch": 7,
      "note": 48,
      "vel": 81,
      "dur": 80
    },
    {
      "t": 1614,
      "ch": 7,
      "note": 36,
      "vel": 68,
      "dur": 80
    },
    {
      "t": 1614,
      "ch": 5,
      "note": 66,
      "vel": 68,
      "dur": 824
    },
    {
      "t": 1614,
      "ch": 6,
      "note": 52,
      "vel": 38,
      "dur": 550
    },
    {
      "t": 1614.1,
      "ch": 1,
      "note": 38,
      "vel": 101,
      "dur": 25
    },
    {
      "t": 1614.1,
      "ch": 1,
      "note": 40,
      "vel": 76,
      "dur": 25
    },
    {
      "t": 1614.2,
      "ch": 1,
      "note": 42,
      "vel": 84,
      "dur": 25
    },
    {
      "t": 1614.3,
      "ch": 1,
      "note": 36,
      "vel": 90,
      "dur": 25
    },
    {
      "t": 1614.4,
      "ch": 1,
      "note": 38,
      "vel": 66,
      "dur": 25
    },
    {
      "t": 1614.4,
      "ch": 1,
      "note": 40,
      "vel": 86,
      "dur": 25
    },
    {
      "t": 1614.5,
      "ch": 6,
      "note": 58,
      "vel": 60,
      "dur": 548
    },
    {
      "t": 1614.5,
      "ch": 1,
      "note": 42,
      "vel": 80,
      "dur": 25
    },
    {
      "t": 1614.6,
      "ch": 0,
      "note": 36,
      "vel": 112,
      "dur": 55
    },
    {
      "t": 1614.6,
      "ch": 1,
      "note": 36,
      "vel": 89,
      "dur": 25
    },
    {
      "t": 1614.6,
      "ch": 7,
      "note": 48,
      "vel": 63,
      "dur": 80
    },
    {
      "t": 1614.6,
      "ch": 7,
      "note": 45,
      "vel": 72,
      "dur": 80
    },
    {
      "t": 1614.6,
      "ch": 7,
      "note": 36,
      "vel": 69,
      "dur": 80
    },
    {
      "t": 1614.6,
      "ch": 7,
      "note": 38,
      "vel": 74,
      "dur": 80
    },
    {
      "t": 1614.7,
      "ch": 1,
      "note": 38,
      "vel": 108,
      "dur": 25
    },
    {
      "t": 1614.7,
      "ch": 1,
      "note": 40,
      "vel": 72,
      "dur": 25
    },
    {
      "t": 1614.8,
      "ch": 1,
      "note": 42,
      "vel": 84,
      "dur": 25
    },
    {
      "t": 1614.9,
      "ch": 1,
      "note": 36,
      "vel": 85,
      "dur": 25
    },
    {
      "t": 1614.9,
      "ch": 7,
      "note": 36,
      "vel": 56,
      "dur": 80
    },
    {
      "t": 1614.9,
      "ch": 5,
      "note": 70,
      "vel": 72,
      "dur": 820
    },
    {
      "t": 1615,
      "ch": 1,
      "note": 38,
      "vel": 83,
      "dur": 25
    },
    {
      "t": 1615,
      "ch": 1,
      "note": 40,
      "vel": 105,
      "dur": 25
    },
    {
      "t": 1615.1,
      "ch": 1,
      "note": 42,
      "vel": 97,
      "dur": 25
    },
    {
      "t": 1615.2,
      "ch": 0,
      "note": 36,
      "vel": 86,
      "dur": 55
    },
    {
      "t": 1615.2,
      "ch": 1,
      "note": 36,
      "vel": 126,
      "dur": 25
    },
    {
      "t": 1615.2,
      "ch": 7,
      "note": 48,
      "vel": 70,
      "dur": 80
    },
    {
      "t": 1615.2,
      "ch": 7,
      "note": 36,
      "vel": 73,
      "dur": 80
    },
    {
      "t": 1615.3,
      "ch": 1,
      "note": 38,
      "vel": 83,
      "dur": 25
    },
    {
      "t": 1615.3,
      "ch": 1,
      "note": 40,
      "vel": 92,
      "dur": 25
    },
    {
      "t": 1615.4,
      "ch": 7,
      "note": 45,
      "vel": 70,
      "dur": 80
    },
    {
      "t": 1615.4,
      "ch": 7,
      "note": 38,
      "vel": 59,
      "dur": 80
    },
    {
      "t": 1615.4,
      "ch": 1,
      "note": 42,
      "vel": 83,
      "dur": 25
    },
    {
      "t": 1615.5,
      "ch": 1,
      "note": 36,
      "vel": 82,
      "dur": 25
    },
    {
      "t": 1615.5,
      "ch": 5,
      "note": 49,
      "vel": 77,
      "dur": 817
    },
    {
      "t": 1615.6,
      "ch": 1,
      "note": 38,
      "vel": 85,
      "dur": 25
    },
    {
      "t": 1615.6,
      "ch": 1,
      "note": 40,
      "vel": 99,
      "dur": 25
    },
    {
      "t": 1615.7,
      "ch": 4,
      "note": 59,
      "vel": 74,
      "dur": 2350
    },
    {
      "t": 1615.7,
      "ch": 3,
      "note": 40,
      "vel": 74,
      "dur": 2400
    },
    {
      "t": 1615.7,
      "ch": 1,
      "note": 42,
      "vel": 97,
      "dur": 25
    },
    {
      "t": 1615.8,
      "ch": 0,
      "note": 36,
      "vel": 88,
      "dur": 55
    },
    {
      "t": 1615.8,
      "ch": 1,
      "note": 36,
      "vel": 108,
      "dur": 25
    },
    {
      "t": 1615.8,
      "ch": 7,
      "note": 48,
      "vel": 57,
      "dur": 80
    },
    {
      "t": 1615.8,
      "ch": 7,
      "note": 36,
      "vel": 74,
      "dur": 80
    },
    {
      "t": 1615.8,
      "ch": 5,
      "note": 54,
      "vel": 46,
      "dur": 815
    },
    {
      "t": 1615.9,
      "ch": 1,
      "note": 38,
      "vel": 116,
      "dur": 25
    },
    {
      "t": 1615.9,
      "ch": 1,
      "note": 40,
      "vel": 86,
      "dur": 25
    },
    {
      "t": 1616,
      "ch": 5,
      "note": 59,
      "vel": 38,
      "dur": 814
    },
    {
      "t": 1616,
      "ch": 6,
      "note": 63,
      "vel": 35,
      "dur": 543
    },
    {
      "t": 1616,
      "ch": 1,
      "note": 42,
      "vel": 90,
      "dur": 25
    },
    {
      "t": 1616.1,
      "ch": 1,
      "note": 36,
      "vel": 98,
      "dur": 25
    },
    {
      "t": 1616.1,
      "ch": 7,
      "note": 45,
      "vel": 64,
      "dur": 80
    },
    {
      "t": 1616.1,
      "ch": 7,
      "note": 36,
      "vel": 60,
      "dur": 80
    },
    {
      "t": 1616.1,
      "ch": 7,
      "note": 38,
      "vel": 56,
      "dur": 80
    },
    {
      "t": 1616.2,
      "ch": 1,
      "note": 38,
      "vel": 96,
      "dur": 25
    },
    {
      "t": 1616.3,
      "ch": 1,
      "note": 40,
      "vel": 97,
      "dur": 25
    },
    {
      "t": 1616.3,
      "ch": 5,
      "note": 70,
      "vel": 69,
      "dur": 813
    },
    {
      "t": 1616.3,
      "ch": 1,
      "note": 42,
      "vel": 69,
      "dur": 25
    },
    {
      "t": 1616.4,
      "ch": 0,
      "note": 36,
      "vel": 89,
      "dur": 55
    },
    {
      "t": 1616.4,
      "ch": 1,
      "note": 36,
      "vel": 111,
      "dur": 25
    },
    {
      "t": 1616.4,
      "ch": 7,
      "note": 48,
      "vel": 57,
      "dur": 80
    },
    {
      "t": 1616.4,
      "ch": 7,
      "note": 36,
      "vel": 77,
      "dur": 80
    },
    {
      "t": 1616.5,
      "ch": 1,
      "note": 38,
      "vel": 87,
      "dur": 25
    },
    {
      "t": 1616.5,
      "ch": 1,
      "note": 40,
      "vel": 87,
      "dur": 25
    },
    {
      "t": 1616.6,
      "ch": 1,
      "note": 42,
      "vel": 80,
      "dur": 25
    },
    {
      "t": 1616.7,
      "ch": 1,
      "note": 36,
      "vel": 101,
      "dur": 25
    },
    {
      "t": 1616.8,
      "ch": 1,
      "note": 38,
      "vel": 96,
      "dur": 25
    },
    {
      "t": 1616.8,
      "ch": 1,
      "note": 40,
      "vel": 84,
      "dur": 25
    },
    {
      "t": 1616.9,
      "ch": 5,
      "note": 52,
      "vel": 51,
      "dur": 809
    },
    {
      "t": 1616.9,
      "ch": 1,
      "note": 42,
      "vel": 90,
      "dur": 25
    },
    {
      "t": 1617,
      "ch": 0,
      "note": 36,
      "vel": 108,
      "dur": 55
    },
    {
      "t": 1617,
      "ch": 1,
      "note": 36,
      "vel": 95,
      "dur": 25
    },
    {
      "t": 1617,
      "ch": 7,
      "note": 48,
      "vel": 81,
      "dur": 80
    },
    {
      "t": 1617,
      "ch": 7,
      "note": 45,
      "vel": 58,
      "dur": 80
    },
    {
      "t": 1617,
      "ch": 7,
      "note": 36,
      "vel": 77,
      "dur": 80
    },
    {
      "t": 1617,
      "ch": 7,
      "note": 38,
      "vel": 74,
      "dur": 80
    },
    {
      "t": 1617.1,
      "ch": 1,
      "note": 38,
      "vel": 92,
      "dur": 25
    },
    {
      "t": 1617.1,
      "ch": 1,
      "note": 40,
      "vel": 95,
      "dur": 25
    },
    {
      "t": 1617.2,
      "ch": 5,
      "note": 54,
      "vel": 70,
      "dur": 807
    },
    {
      "t": 1617.2,
      "ch": 1,
      "note": 42,
      "vel": 101,
      "dur": 25
    },
    {
      "t": 1617.3,
      "ch": 1,
      "note": 36,
      "vel": 86,
      "dur": 25
    },
    {
      "t": 1617.3,
      "ch": 7,
      "note": 36,
      "vel": 61,
      "dur": 80
    },
    {
      "t": 1617.3,
      "ch": 6,
      "note": 73,
      "vel": 14,
      "dur": 537
    },
    {
      "t": 1617.3,
      "ch": 6,
      "note": 56,
      "vel": 29,
      "dur": 400
    },
    {
      "t": 1617.4,
      "ch": 1,
      "note": 38,
      "vel": 101,
      "dur": 25
    },
    {
      "t": 1617.5,
      "ch": 1,
      "note": 40,
      "vel": 89,
      "dur": 25
    },
    {
      "t": 1617.5,
      "ch": 1,
      "note": 42,
      "vel": 96,
      "dur": 25
    },
    {
      "t": 1617.6,
      "ch": 0,
      "note": 36,
      "vel": 94,
      "dur": 55
    },
    {
      "t": 1617.6,
      "ch": 1,
      "note": 36,
      "vel": 86,
      "dur": 25
    },
    {
      "t": 1617.6,
      "ch": 7,
      "note": 48,
      "vel": 69,
      "dur": 80
    },
    {
      "t": 1617.6,
      "ch": 7,
      "note": 36,
      "vel": 66,
      "dur": 80
    },
    {
      "t": 1617.7,
      "ch": 1,
      "note": 38,
      "vel": 94,
      "dur": 25
    },
    {
      "t": 1617.8,
      "ch": 1,
      "note": 40,
      "vel": 94,
      "dur": 25
    },
    {
      "t": 1617.8,
      "ch": 7,
      "note": 38,
      "vel": 59,
      "dur": 80
    },
    {
      "t": 1617.8,
      "ch": 7,
      "note": 45,
      "vel": 61,
      "dur": 80
    },
    {
      "t": 1617.8,
      "ch": 1,
      "note": 42,
      "vel": 87,
      "dur": 25
    },
    {
      "t": 1617.9,
      "ch": 1,
      "note": 36,
      "vel": 86,
      "dur": 25
    },
    {
      "t": 1617.9,
      "ch": 5,
      "note": 68,
      "vel": 45,
      "dur": 802
    },
    {
      "t": 1618,
      "ch": 1,
      "note": 38,
      "vel": 93,
      "dur": 25
    },
    {
      "t": 1618,
      "ch": 1,
      "note": 40,
      "vel": 101,
      "dur": 25
    },
    {
      "t": 1618.1,
      "ch": 2,
      "note": 49,
      "vel": 62,
      "dur": 18000
    },
    {
      "t": 1618.1,
      "ch": 2,
      "note": 61,
      "vel": 43,
      "dur": 18000
    },
    {
      "t": 1618.1,
      "ch": 4,
      "note": 58,
      "vel": 91,
      "dur": 2350
    },
    {
      "t": 1618.1,
      "ch": 3,
      "note": 35,
      "vel": 76,
      "dur": 2400
    },
    {
      "t": 1618.1,
      "ch": 1,
      "note": 42,
      "vel": 98,
      "dur": 25
    },
    {
      "t": 1618.2,
      "ch": 0,
      "note": 36,
      "vel": 90,
      "dur": 55
    },
    {
      "t": 1618.2,
      "ch": 1,
      "note": 36,
      "vel": 94,
      "dur": 25
    },
    {
      "t": 1618.2,
      "ch": 7,
      "note": 48,
      "vel": 62,
      "dur": 80
    },
    {
      "t": 1618.2,
      "ch": 7,
      "note": 36,
      "vel": 73,
      "dur": 80
    },
    {
      "t": 1618.2,
      "ch": 6,
      "note": 51,
      "vel": 53,
      "dur": 533
    },
    {
      "t": 1618.3,
      "ch": 1,
      "note": 38,
      "vel": 122,
      "dur": 25
    },
    {
      "t": 1618.3,
      "ch": 6,
      "note": 71,
      "vel": 30,
      "dur": 400
    },
    {
      "t": 1618.3,
      "ch": 1,
      "note": 40,
      "vel": 92,
      "dur": 25
    },
    {
      "t": 1618.4,
      "ch": 1,
      "note": 42,
      "vel": 74,
      "dur": 25
    },
    {
      "t": 1618.5,
      "ch": 1,
      "note": 36,
      "vel": 88,
      "dur": 25
    },
    {
      "t": 1618.5,
      "ch": 7,
      "note": 45,
      "vel": 62,
      "dur": 80
    },
    {
      "t": 1618.5,
      "ch": 7,
      "note": 38,
      "vel": 69,
      "dur": 80
    },
    {
      "t": 1618.5,
      "ch": 5,
      "note": 66,
      "vel": 51,
      "dur": 798
    },
    {
      "t": 1618.5,
      "ch": 7,
      "note": 36,
      "vel": 55,
      "dur": 80
    },
    {
      "t": 1618.6,
      "ch": 1,
      "note": 38,
      "vel": 89,
      "dur": 25
    },
    {
      "t": 1618.6,
      "ch": 1,
      "note": 40,
      "vel": 69,
      "dur": 25
    },
    {
      "t": 1618.7,
      "ch": 1,
      "note": 42,
      "vel": 96,
      "dur": 25
    },
    {
      "t": 1618.8,
      "ch": 0,
      "note": 36,
      "vel": 96,
      "dur": 55
    },
    {
      "t": 1618.8,
      "ch": 1,
      "note": 36,
      "vel": 112,
      "dur": 25
    },
    {
      "t": 1618.8,
      "ch": 7,
      "note": 48,
      "vel": 67,
      "dur": 80
    },
    {
      "t": 1618.8,
      "ch": 7,
      "note": 36,
      "vel": 74,
      "dur": 80
    },
    {
      "t": 1618.8,
      "ch": 5,
      "note": 59,
      "vel": 63,
      "dur": 796
    },
    {
      "t": 1618.9,
      "ch": 1,
      "note": 38,
      "vel": 102,
      "dur": 25
    },
    {
      "t": 1618.9,
      "ch": 1,
      "note": 40,
      "vel": 90,
      "dur": 25
    },
    {
      "t": 1619,
      "ch": 6,
      "note": 56,
      "vel": 38,
      "dur": 530
    },
    {
      "t": 1619,
      "ch": 1,
      "note": 42,
      "vel": 84,
      "dur": 25
    },
    {
      "t": 1619.1,
      "ch": 1,
      "note": 36,
      "vel": 77,
      "dur": 25
    },
    {
      "t": 1619.1,
      "ch": 5,
      "note": 70,
      "vel": 75,
      "dur": 795
    },
    {
      "t": 1619.1,
      "ch": 6,
      "note": 56,
      "vel": 34,
      "dur": 530
    },
    {
      "t": 1619.2,
      "ch": 1,
      "note": 38,
      "vel": 105,
      "dur": 25
    },
    {
      "t": 1619.2,
      "ch": 1,
      "note": 40,
      "vel": 83,
      "dur": 25
    },
    {
      "t": 1619.3,
      "ch": 6,
      "note": 61,
      "vel": 38,
      "dur": 400
    },
    {
      "t": 1619.3,
      "ch": 1,
      "note": 42,
      "vel": 90,
      "dur": 25
    },
    {
      "t": 1619.4,
      "ch": 0,
      "note": 36,
      "vel": 114,
      "dur": 55
    },
    {
      "t": 1619.4,
      "ch": 1,
      "note": 36,
      "vel": 92,
      "dur": 25
    },
    {
      "t": 1619.4,
      "ch": 7,
      "note": 48,
      "vel": 75,
      "dur": 80
    },
    {
      "t": 1619.4,
      "ch": 7,
      "note": 45,
      "vel": 71,
      "dur": 80
    },
    {
      "t": 1619.4,
      "ch": 7,
      "note": 36,
      "vel": 71,
      "dur": 80
    },
    {
      "t": 1619.4,
      "ch": 7,
      "note": 38,
      "vel": 73,
      "dur": 80
    },
    {
      "t": 1619.5,
      "ch": 1,
      "note": 38,
      "vel": 90,
      "dur": 25
    },
    {
      "t": 1619.5,
      "ch": 1,
      "note": 40,
      "vel": 113,
      "dur": 25
    },
    {
      "t": 1619.6,
      "ch": 5,
      "note": 52,
      "vel": 50,
      "dur": 792
    },
    {
      "t": 1619.6,
      "ch": 1,
      "note": 42,
      "vel": 83,
      "dur": 25
    },
    {
      "t": 1619.7,
      "ch": 1,
      "note": 36,
      "vel": 86,
      "dur": 25
    },
    {
      "t": 1619.7,
      "ch": 7,
      "note": 36,
      "vel": 60,
      "dur": 80
    },
    {
      "t": 1619.7,
      "ch": 5,
      "note": 54,
      "vel": 54,
      "dur": 791
    },
    {
      "t": 1619.7,
      "ch": 6,
      "note": 71,
      "vel": 33,
      "dur": 528
    },
    {
      "t": 1619.8,
      "ch": 1,
      "note": 38,
      "vel": 75,
      "dur": 25
    },
    {
      "t": 1619.9,
      "ch": 1,
      "note": 40,
      "vel": 83,
      "dur": 25
    },
    {
      "t": 1619.9,
      "ch": 5,
      "note": 68,
      "vel": 61,
      "dur": 790
    },
    {
      "t": 1619.9,
      "ch": 1,
      "note": 42,
      "vel": 87,
      "dur": 25
    },
    {
      "t": 1620,
      "ch": 6,
      "note": 59,
      "vel": 24,
      "dur": 400
    },
    {
      "t": 1620,
      "ch": 0,
      "note": 36,
      "vel": 91,
      "dur": 55
    },
    {
      "t": 1620,
      "ch": 1,
      "note": 36,
      "vel": 105,
      "dur": 25
    },
    {
      "t": 1620,
      "ch": 7,
      "note": 48,
      "vel": 56,
      "dur": 80
    },
    {
      "t": 1620,
      "ch": 7,
      "note": 36,
      "vel": 58,
      "dur": 80
    },
    {
      "t": 1620,
      "ch": 5,
      "note": 66,
      "vel": 45,
      "dur": 790
    },
    {
      "t": 1620.1,
      "ch": 1,
      "note": 38,
      "vel": 120,
      "dur": 25
    },
    {
      "t": 1620.2,
      "ch": 1,
      "note": 40,
      "vel": 85,
      "dur": 25
    },
    {
      "t": 1620.2,
      "ch": 7,
      "note": 45,
      "vel": 57,
      "dur": 80
    },
    {
      "t": 1620.2,
      "ch": 7,
      "note": 38,
      "vel": 69,
      "dur": 80
    },
    {
      "t": 1620.2,
      "ch": 5,
      "note": 56,
      "vel": 53,
      "dur": 789
    },
    {
      "t": 1620.2,
      "ch": 6,
      "note": 54,
      "vel": 48,
      "dur": 526
    },
    {
      "t": 1620.2,
      "ch": 1,
      "note": 42,
      "vel": 81,
      "dur": 25
    },
    {
      "t": 1620.3,
      "ch": 1,
      "note": 36,
      "vel": 91,
      "dur": 25
    },
    {
      "t": 1620.3,
      "ch": 6,
      "note": 71,
      "vel": 30,
      "dur": 400
    },
    {
      "t": 1620.4,
      "ch": 1,
      "note": 38,
      "vel": 88,
      "dur": 25
    },
    {
      "t": 1620.4,
      "ch": 1,
      "note": 40,
      "vel": 78,
      "dur": 25
    },
    {
      "t": 1620.5,
      "ch": 5,
      "note": 49,
      "vel": 53,
      "dur": 788
    },
    {
      "t": 1620.5,
      "ch": 6,
      "note": 59,
      "vel": 30,
      "dur": 525
    },
    {
      "t": 1620.5,
      "ch": 4,
      "note": 58,
      "vel": 92,
      "dur": 2350
    },
    {
      "t": 1620.5,
      "ch": 3,
      "note": 44,
      "vel": 78,
      "dur": 2400
    },
    {
      "t": 1620.5,
      "ch": 1,
      "note": 42,
      "vel": 85,
      "dur": 25
    },
    {
      "t": 1620.6,
      "ch": 0,
      "note": 36,
      "vel": 89,
      "dur": 55
    },
    {
      "t": 1620.6,
      "ch": 1,
      "note": 36,
      "vel": 122,
      "dur": 25
    },
    {
      "t": 1620.6,
      "ch": 7,
      "note": 48,
      "vel": 74,
      "dur": 80
    },
    {
      "t": 1620.6,
      "ch": 7,
      "note": 36,
      "vel": 72,
      "dur": 80
    },
    {
      "t": 1620.7,
      "ch": 1,
      "note": 38,
      "vel": 108,
      "dur": 25
    },
    {
      "t": 1620.7,
      "ch": 1,
      "note": 40,
      "vel": 111,
      "dur": 25
    },
    {
      "t": 1620.8,
      "ch": 6,
      "note": 52,
      "vel": 28,
      "dur": 524
    },
    {
      "t": 1620.8,
      "ch": 1,
      "note": 42,
      "vel": 106,
      "dur": 25
    },
    {
      "t": 1620.9,
      "ch": 1,
      "note": 36,
      "vel": 95,
      "dur": 25
    },
    {
      "t": 1620.9,
      "ch": 7,
      "note": 38,
      "vel": 56,
      "dur": 80
    },
    {
      "t": 1620.9,
      "ch": 7,
      "note": 36,
      "vel": 72,
      "dur": 80
    },
    {
      "t": 1620.9,
      "ch": 7,
      "note": 45,
      "vel": 59,
      "dur": 80
    },
    {
      "t": 1621,
      "ch": 1,
      "note": 38,
      "vel": 91,
      "dur": 25
    },
    {
      "t": 1621,
      "ch": 1,
      "note": 40,
      "vel": 87,
      "dur": 25
    },
    {
      "t": 1621.1,
      "ch": 6,
      "note": 64,
      "vel": 38,
      "dur": 523
    },
    {
      "t": 1621.1,
      "ch": 1,
      "note": 42,
      "vel": 92,
      "dur": 25
    },
    {
      "t": 1621.2,
      "ch": 0,
      "note": 36,
      "vel": 84,
      "dur": 55
    },
    {
      "t": 1621.2,
      "ch": 1,
      "note": 36,
      "vel": 102,
      "dur": 25
    },
    {
      "t": 1621.2,
      "ch": 7,
      "note": 48,
      "vel": 65,
      "dur": 80
    },
    {
      "t": 1621.2,
      "ch": 7,
      "note": 36,
      "vel": 68,
      "dur": 80
    },
    {
      "t": 1621.3,
      "ch": 1,
      "note": 38,
      "vel": 107,
      "dur": 25
    },
    {
      "t": 1621.3,
      "ch": 1,
      "note": 40,
      "vel": 105,
      "dur": 25
    },
    {
      "t": 1621.4,
      "ch": 5,
      "note": 52,
      "vel": 64,
      "dur": 784
    },
    {
      "t": 1621.4,
      "ch": 1,
      "note": 42,
      "vel": 81,
      "dur": 25
    },
    {
      "t": 1621.5,
      "ch": 1,
      "note": 36,
      "vel": 75,
      "dur": 25
    },
    {
      "t": 1621.6,
      "ch": 1,
      "note": 38,
      "vel": 96,
      "dur": 25
    },
    {
      "t": 1621.6,
      "ch": 1,
      "note": 40,
      "vel": 73,
      "dur": 25
    },
    {
      "t": 1621.7,
      "ch": 1,
      "note": 42,
      "vel": 75,
      "dur": 25
    },
    {
      "t": 1621.8,
      "ch": 0,
      "note": 36,
      "vel": 114,
      "dur": 55
    },
    {
      "t": 1621.8,
      "ch": 1,
      "note": 36,
      "vel": 127,
      "dur": 25
    },
    {
      "t": 1621.8,
      "ch": 7,
      "note": 48,
      "vel": 64,
      "dur": 80
    },
    {
      "t": 1621.8,
      "ch": 7,
      "note": 45,
      "vel": 76,
      "dur": 80
    },
    {
      "t": 1621.8,
      "ch": 7,
      "note": 36,
      "vel": 63,
      "dur": 80
    },
    {
      "t": 1621.8,
      "ch": 7,
      "note": 38,
      "vel": 78,
      "dur": 80
    },
    {
      "t": 1621.9,
      "ch": 1,
      "note": 38,
      "vel": 125,
      "dur": 25
    },
    {
      "t": 1621.9,
      "ch": 1,
      "note": 40,
      "vel": 96,
      "dur": 25
    },
    {
      "t": 1622,
      "ch": 1,
      "note": 42,
      "vel": 110,
      "dur": 25
    },
    {
      "t": 1622.1,
      "ch": 1,
      "note": 36,
      "vel": 79,
      "dur": 25
    },
    {
      "t": 1622.1,
      "ch": 7,
      "note": 36,
      "vel": 60,
      "dur": 80
    },
    {
      "t": 1622.2,
      "ch": 1,
      "note": 38,
      "vel": 85,
      "dur": 25
    },
    {
      "t": 1622.2,
      "ch": 1,
      "note": 40,
      "vel": 110,
      "dur": 25
    },
    {
      "t": 1622.3,
      "ch": 6,
      "note": 56,
      "vel": 21,
      "dur": 521
    },
    {
      "t": 1622.3,
      "ch": 1,
      "note": 42,
      "vel": 89,
      "dur": 25
    },
    {
      "t": 1622.4,
      "ch": 0,
      "note": 36,
      "vel": 91,
      "dur": 55
    },
    {
      "t": 1622.4,
      "ch": 1,
      "note": 36,
      "vel": 109,
      "dur": 25
    },
    {
      "t": 1622.4,
      "ch": 7,
      "note": 48,
      "vel": 65,
      "dur": 80
    },
    {
      "t": 1622.4,
      "ch": 7,
      "note": 36,
      "vel": 71,
      "dur": 80
    },
    {
      "t": 1622.5,
      "ch": 1,
      "note": 38,
      "vel": 109,
      "dur": 25
    },
    {
      "t": 1622.5,
      "ch": 1,
      "note": 40,
      "vel": 78,
      "dur": 25
    },
    {
      "t": 1622.6,
      "ch": 7,
      "note": 45,
      "vel": 61,
      "dur": 80
    },
    {
      "t": 1622.6,
      "ch": 7,
      "note": 38,
      "vel": 70,
      "dur": 80
    },
    {
      "t": 1622.6,
      "ch": 1,
      "note": 42,
      "vel": 85,
      "dur": 25
    },
    {
      "t": 1622.7,
      "ch": 1,
      "note": 36,
      "vel": 92,
      "dur": 25
    },
    {
      "t": 1622.8,
      "ch": 1,
      "note": 38,
      "vel": 86,
      "dur": 25
    },
    {
      "t": 1622.8,
      "ch": 1,
      "note": 40,
      "vel": 95,
      "dur": 25
    },
    {
      "t": 1622.9,
      "ch": 4,
      "note": 59,
      "vel": 79,
      "dur": 2350
    },
    {
      "t": 1622.9,
      "ch": 3,
      "note": 40,
      "vel": 80,
      "dur": 2400
    },
    {
      "t": 1622.9,
      "ch": 1,
      "note": 42,
      "vel": 83,
      "dur": 25
    },
    {
      "t": 1623,
      "ch": 0,
      "note": 36,
      "vel": 94,
      "dur": 55
    },
    {
      "t": 1623,
      "ch": 1,
      "note": 36,
      "vel": 70,
      "dur": 25
    },
    {
      "t": 1623,
      "ch": 7,
      "note": 48,
      "vel": 69,
      "dur": 80
    },
    {
      "t": 1623,
      "ch": 7,
      "note": 36,
      "vel": 74,
      "dur": 80
    },
    {
      "t": 1623.1,
      "ch": 1,
      "note": 38,
      "vel": 105,
      "dur": 25
    },
    {
      "t": 1623.1,
      "ch": 1,
      "note": 40,
      "vel": 97,
      "dur": 25
    },
    {
      "t": 1623.2,
      "ch": 1,
      "note": 42,
      "vel": 91,
      "dur": 25
    },
    {
      "t": 1623.3,
      "ch": 1,
      "note": 36,
      "vel": 84,
      "dur": 25
    },
    {
      "t": 1623.3,
      "ch": 7,
      "note": 45,
      "vel": 64,
      "dur": 80
    },
    {
      "t": 1623.3,
      "ch": 7,
      "note": 36,
      "vel": 67,
      "dur": 80
    },
    {
      "t": 1623.3,
      "ch": 7,
      "note": 38,
      "vel": 73,
      "dur": 80
    },
    {
      "t": 1623.4,
      "ch": 1,
      "note": 38,
      "vel": 117,
      "dur": 25
    },
    {
      "t": 1623.4,
      "ch": 1,
      "note": 40,
      "vel": 113,
      "dur": 25
    },
    {
      "t": 1623.5,
      "ch": 5,
      "note": 54,
      "vel": 48,
      "dur": 781
    },
    {
      "t": 1623.5,
      "ch": 1,
      "note": 42,
      "vel": 96,
      "dur": 25
    },
    {
      "t": 1623.6,
      "ch": 0,
      "note": 36,
      "vel": 95,
      "dur": 55
    },
    {
      "t": 1623.6,
      "ch": 1,
      "note": 36,
      "vel": 124,
      "dur": 25
    },
    {
      "t": 1623.6,
      "ch": 7,
      "note": 48,
      "vel": 73,
      "dur": 80
    },
    {
      "t": 1623.6,
      "ch": 7,
      "note": 36,
      "vel": 76,
      "dur": 80
    },
    {
      "t": 1623.7,
      "ch": 1,
      "note": 38,
      "vel": 104,
      "dur": 25
    },
    {
      "t": 1623.8,
      "ch": 1,
      "note": 40,
      "vel": 94,
      "dur": 25
    },
    {
      "t": 1623.8,
      "ch": 1,
      "note": 42,
      "vel": 100,
      "dur": 25
    },
    {
      "t": 1623.9,
      "ch": 1,
      "note": 36,
      "vel": 76,
      "dur": 25
    },
    {
      "t": 1624,
      "ch": 1,
      "note": 38,
      "vel": 84,
      "dur": 25
    },
    {
      "t": 1624,
      "ch": 1,
      "note": 40,
      "vel": 104,
      "dur": 25
    },
    {
      "t": 1624.1,
      "ch": 1,
      "note": 42,
      "vel": 81,
      "dur": 25
    },
    {
      "t": 1624.2,
      "ch": 0,
      "note": 36,
      "vel": 108,
      "dur": 55
    },
    {
      "t": 1624.2,
      "ch": 1,
      "note": 36,
      "vel": 75,
      "dur": 25
    },
    {
      "t": 1624.2,
      "ch": 7,
      "note": 48,
      "vel": 60,
      "dur": 80
    },
    {
      "t": 1624.2,
      "ch": 7,
      "note": 45,
      "vel": 67,
      "dur": 80
    },
    {
      "t": 1624.2,
      "ch": 7,
      "note": 36,
      "vel": 59,
      "dur": 80
    },
    {
      "t": 1624.2,
      "ch": 7,
      "note": 38,
      "vel": 66,
      "dur": 80
    },
    {
      "t": 1624.3,
      "ch": 1,
      "note": 38,
      "vel": 77,
      "dur": 25
    },
    {
      "t": 1624.3,
      "ch": 1,
      "note": 40,
      "vel": 85,
      "dur": 25
    },
    {
      "t": 1624.4,
      "ch": 1,
      "note": 42,
      "vel": 100,
      "dur": 25
    },
    {
      "t": 1624.5,
      "ch": 1,
      "note": 36,
      "vel": 96,
      "dur": 25
    },
    {
      "t": 1624.5,
      "ch": 7,
      "note": 36,
      "vel": 59,
      "dur": 80
    },
    {
      "t": 1624.5,
      "ch": 5,
      "note": 51,
      "vel": 59,
      "dur": 782
    },
    {
      "t": 1624.6,
      "ch": 1,
      "note": 38,
      "vel": 99,
      "dur": 25
    },
    {
      "t": 1624.6,
      "ch": 1,
      "note": 40,
      "vel": 103,
      "dur": 25
    },
    {
      "t": 1624.7,
      "ch": 1,
      "note": 42,
      "vel": 94,
      "dur": 25
    },
    {
      "t": 1624.8,
      "ch": 0,
      "note": 36,
      "vel": 89,
      "dur": 55
    },
    {
      "t": 1624.8,
      "ch": 1,
      "note": 36,
      "vel": 91,
      "dur": 25
    },
    {
      "t": 1624.8,
      "ch": 7,
      "note": 48,
      "vel": 77,
      "dur": 80
    },
    {
      "t": 1624.8,
      "ch": 7,
      "note": 36,
      "vel": 65,
      "dur": 80
    },
    {
      "t": 1624.8,
      "ch": 5,
      "note": 59,
      "vel": 51,
      "dur": 783
    },
    {
      "t": 1624.9,
      "ch": 1,
      "note": 38,
      "vel": 116,
      "dur": 25
    },
    {
      "t": 1624.9,
      "ch": 1,
      "note": 40,
      "vel": 78,
      "dur": 25
    },
    {
      "t": 1625,
      "ch": 7,
      "note": 45,
      "vel": 58,
      "dur": 80
    },
    {
      "t": 1625,
      "ch": 7,
      "note": 38,
      "vel": 53,
      "dur": 80
    },
    {
      "t": 1625,
      "ch": 6,
      "note": 59,
      "vel": 48,
      "dur": 522
    },
    {
      "t": 1625,
      "ch": 1,
      "note": 42,
      "vel": 102,
      "dur": 25
    },
    {
      "t": 1625.1,
      "ch": 1,
      "note": 36,
      "vel": 94,
      "dur": 25
    },
    {
      "t": 1625.1,
      "ch": 5,
      "note": 56,
      "vel": 72,
      "dur": 783
    },
    {
      "t": 1625.2,
      "ch": 1,
      "note": 38,
      "vel": 91,
      "dur": 25
    },
    {
      "t": 1625.2,
      "ch": 1,
      "note": 40,
      "vel": 84,
      "dur": 25
    },
    {
      "t": 1625.3,
      "ch": 4,
      "note": 58,
      "vel": 91,
      "dur": 2350
    },
    {
      "t": 1625.3,
      "ch": 3,
      "note": 44,
      "vel": 78,
      "dur": 2400
    },
    {
      "t": 1625.3,
      "ch": 1,
      "note": 42,
      "vel": 81,
      "dur": 25
    },
    {
      "t": 1625.4,
      "ch": 0,
      "note": 36,
      "vel": 90,
      "dur": 55
    },
    {
      "t": 1625.4,
      "ch": 1,
      "note": 36,
      "vel": 99,
      "dur": 25
    },
    {
      "t": 1625.4,
      "ch": 7,
      "note": 48,
      "vel": 75,
      "dur": 80
    },
    {
      "t": 1625.4,
      "ch": 7,
      "note": 36,
      "vel": 62,
      "dur": 80
    },
    {
      "t": 1625.4,
      "ch": 6,
      "note": 59,
      "vel": 44,
      "dur": 523
    },
    {
      "t": 1625.5,
      "ch": 1,
      "note": 38,
      "vel": 119,
      "dur": 25
    },
    {
      "t": 1625.5,
      "ch": 1,
      "note": 40,
      "vel": 101,
      "dur": 25
    },
    {
      "t": 1625.6,
      "ch": 6,
      "note": 54,
      "vel": 37,
      "dur": 523
    },
    {
      "t": 1625.6,
      "ch": 5,
      "note": 49,
      "vel": 40,
      "dur": 785
    },
    {
      "t": 1625.6,
      "ch": 1,
      "note": 42,
      "vel": 70,
      "dur": 25
    },
    {
      "t": 1625.7,
      "ch": 1,
      "note": 36,
      "vel": 99,
      "dur": 25
    },
    {
      "t": 1625.7,
      "ch": 7,
      "note": 36,
      "vel": 57,
      "dur": 80
    },
    {
      "t": 1625.7,
      "ch": 7,
      "note": 45,
      "vel": 56,
      "dur": 80
    },
    {
      "t": 1625.7,
      "ch": 7,
      "note": 38,
      "vel": 57,
      "dur": 80
    },
    {
      "t": 1625.7,
      "ch": 6,
      "note": 58,
      "vel": 66,
      "dur": 524
    },
    {
      "t": 1625.8,
      "ch": 1,
      "note": 38,
      "vel": 83,
      "dur": 25
    },
    {
      "t": 1625.8,
      "ch": 1,
      "note": 40,
      "vel": 104,
      "dur": 25
    },
    {
      "t": 1625.9,
      "ch": 6,
      "note": 52,
      "vel": 40,
      "dur": 524
    },
    {
      "t": 1625.9,
      "ch": 1,
      "note": 42,
      "vel": 71,
      "dur": 25
    },
    {
      "t": 1626,
      "ch": 0,
      "note": 36,
      "vel": 88,
      "dur": 55
    },
    {
      "t": 1626,
      "ch": 1,
      "note": 36,
      "vel": 97,
      "dur": 25
    },
    {
      "t": 1626,
      "ch": 7,
      "note": 48,
      "vel": 68,
      "dur": 80
    },
    {
      "t": 1626,
      "ch": 7,
      "note": 36,
      "vel": 84,
      "dur": 80
    },
    {
      "t": 1626.1,
      "ch": 1,
      "note": 38,
      "vel": 119,
      "dur": 25
    },
    {
      "t": 1626.2,
      "ch": 1,
      "note": 40,
      "vel": 93,
      "dur": 25
    },
    {
      "t": 1626.2,
      "ch": 1,
      "note": 42,
      "vel": 83,
      "dur": 25
    },
    {
      "t": 1626.3,
      "ch": 1,
      "note": 36,
      "vel": 75,
      "dur": 25
    },
    {
      "t": 1626.4,
      "ch": 1,
      "note": 38,
      "vel": 93,
      "dur": 25
    },
    {
      "t": 1626.4,
      "ch": 1,
      "note": 40,
      "vel": 93,
      "dur": 25
    },
    {
      "t": 1626.5,
      "ch": 1,
      "note": 42,
      "vel": 72,
      "dur": 25
    },
    {
      "t": 1626.6,
      "ch": 0,
      "note": 36,
      "vel": 117,
      "dur": 55
    },
    {
      "t": 1626.6,
      "ch": 1,
      "note": 36,
      "vel": 102,
      "dur": 25
    },
    {
      "t": 1626.6,
      "ch": 7,
      "note": 48,
      "vel": 65,
      "dur": 80
    },
    {
      "t": 1626.6,
      "ch": 7,
      "note": 45,
      "vel": 74,
      "dur": 80
    },
    {
      "t": 1626.6,
      "ch": 7,
      "note": 36,
      "vel": 82,
      "dur": 80
    },
    {
      "t": 1626.6,
      "ch": 7,
      "note": 38,
      "vel": 61,
      "dur": 80
    },
    {
      "t": 1626.6,
      "ch": 6,
      "note": 54,
      "vel": 39,
      "dur": 526
    },
    {
      "t": 1626.7,
      "ch": 1,
      "note": 38,
      "vel": 109,
      "dur": 25
    },
    {
      "t": 1626.8,
      "ch": 1,
      "note": 40,
      "vel": 91,
      "dur": 25
    },
    {
      "t": 1626.8,
      "ch": 5,
      "note": 52,
      "vel": 50,
      "dur": 790
    },
    {
      "t": 1626.8,
      "ch": 1,
      "note": 42,
      "vel": 80,
      "dur": 25
    },
    {
      "t": 1626.9,
      "ch": 1,
      "note": 36,
      "vel": 97,
      "dur": 25
    },
    {
      "t": 1626.9,
      "ch": 7,
      "note": 36,
      "vel": 64,
      "dur": 80
    },
    {
      "t": 1626.9,
      "ch": 6,
      "note": 61,
      "vel": 37,
      "dur": 527
    },
    {
      "t": 1627,
      "ch": 1,
      "note": 38,
      "vel": 106,
      "dur": 25
    },
    {
      "t": 1627.1,
      "ch": 1,
      "note": 40,
      "vel": 102,
      "dur": 25
    },
    {
      "t": 1627.1,
      "ch": 1,
      "note": 42,
      "vel": 105,
      "dur": 25
    },
    {
      "t": 1627.2,
      "ch": 0,
      "note": 36,
      "vel": 94,
      "dur": 55
    },
    {
      "t": 1627.2,
      "ch": 1,
      "note": 36,
      "vel": 90,
      "dur": 25
    },
    {
      "t": 1627.2,
      "ch": 7,
      "note": 48,
      "vel": 82,
      "dur": 80
    },
    {
      "t": 1627.2,
      "ch": 7,
      "note": 36,
      "vel": 82,
      "dur": 80
    },
    {
      "t": 1627.3,
      "ch": 1,
      "note": 38,
      "vel": 94,
      "dur": 25
    },
    {
      "t": 1627.3,
      "ch": 1,
      "note": 40,
      "vel": 83,
      "dur": 25
    },
    {
      "t": 1627.4,
      "ch": 7,
      "note": 38,
      "vel": 66,
      "dur": 80
    },
    {
      "t": 1627.4,
      "ch": 7,
      "note": 45,
      "vel": 54,
      "dur": 80
    },
    {
      "t": 1627.4,
      "ch": 5,
      "note": 54,
      "vel": 62,
      "dur": 793
    },
    {
      "t": 1627.4,
      "ch": 1,
      "note": 42,
      "vel": 81,
      "dur": 25
    },
    {
      "t": 1627.5,
      "ch": 1,
      "note": 36,
      "vel": 83,
      "dur": 25
    },
    {
      "t": 1627.5,
      "ch": 5,
      "note": 51,
      "vel": 48,
      "dur": 794
    },
    {
      "t": 1627.6,
      "ch": 1,
      "note": 38,
      "vel": 97,
      "dur": 25
    },
    {
      "t": 1627.6,
      "ch": 1,
      "note": 40,
      "vel": 87,
      "dur": 25
    },
    {
      "t": 1627.7,
      "ch": 2,
      "note": 49,
      "vel": 62,
      "dur": 18000
    },
    {
      "t": 1627.7,
      "ch": 4,
      "note": 58,
      "vel": 93,
      "dur": 2350
    },
    {
      "t": 1627.7,
      "ch": 3,
      "note": 35,
      "vel": 77,
      "dur": 2400
    },
    {
      "t": 1627.7,
      "ch": 1,
      "note": 42,
      "vel": 97,
      "dur": 25
    },
    {
      "t": 1627.7,
      "ch": 6,
      "note": 54,
      "vel": 32,
      "dur": 400
    },
    {
      "t": 1627.8,
      "ch": 0,
      "note": 36,
      "vel": 93,
      "dur": 55
    },
    {
      "t": 1627.8,
      "ch": 1,
      "note": 36,
      "vel": 100,
      "dur": 25
    },
    {
      "t": 1627.8,
      "ch": 7,
      "note": 48,
      "vel": 75,
      "dur": 80
    },
    {
      "t": 1627.8,
      "ch": 7,
      "note": 36,
      "vel": 72,
      "dur": 80
    },
    {
      "t": 1627.9,
      "ch": 1,
      "note": 38,
      "vel": 82,
      "dur": 25
    },
    {
      "t": 1627.9,
      "ch": 1,
      "note": 40,
      "vel": 97,
      "dur": 25
    },
    {
      "t": 1628,
      "ch": 1,
      "note": 42,
      "vel": 87,
      "dur": 25
    },
    {
      "t": 1628.1,
      "ch": 1,
      "note": 36,
      "vel": 122,
      "dur": 25
    },
    {
      "t": 1628.1,
      "ch": 7,
      "note": 36,
      "vel": 67,
      "dur": 80
    },
    {
      "t": 1628.1,
      "ch": 7,
      "note": 45,
      "vel": 60,
      "dur": 80
    },
    {
      "t": 1628.1,
      "ch": 5,
      "note": 59,
      "vel": 57,
      "dur": 797
    },
    {
      "t": 1628.1,
      "ch": 7,
      "note": 38,
      "vel": 66,
      "dur": 80
    },
    {
      "t": 1628.1,
      "ch": 6,
      "note": 59,
      "vel": 56,
      "dur": 531
    },
    {
      "t": 1628.2,
      "ch": 1,
      "note": 38,
      "vel": 92,
      "dur": 25
    },
    {
      "t": 1628.2,
      "ch": 1,
      "note": 40,
      "vel": 92,
      "dur": 25
    },
    {
      "t": 1628.3,
      "ch": 1,
      "note": 42,
      "vel": 74,
      "dur": 25
    },
    {
      "t": 1628.4,
      "ch": 0,
      "note": 36,
      "vel": 87,
      "dur": 55
    },
    {
      "t": 1628.4,
      "ch": 1,
      "note": 36,
      "vel": 84,
      "dur": 25
    },
    {
      "t": 1628.4,
      "ch": 7,
      "note": 48,
      "vel": 76,
      "dur": 80
    },
    {
      "t": 1628.4,
      "ch": 7,
      "note": 36,
      "vel": 64,
      "dur": 80
    },
    {
      "t": 1628.4,
      "ch": 5,
      "note": 37,
      "vel": 52,
      "dur": 799
    },
    {
      "t": 1628.5,
      "ch": 1,
      "note": 38,
      "vel": 109,
      "dur": 25
    },
    {
      "t": 1628.5,
      "ch": 1,
      "note": 40,
      "vel": 113,
      "dur": 25
    },
    {
      "t": 1628.6,
      "ch": 1,
      "note": 42,
      "vel": 86,
      "dur": 25
    },
    {
      "t": 1628.7,
      "ch": 1,
      "note": 36,
      "vel": 86,
      "dur": 25
    },
    {
      "t": 1628.8,
      "ch": 1,
      "note": 38,
      "vel": 87,
      "dur": 25
    },
    {
      "t": 1628.8,
      "ch": 1,
      "note": 40,
      "vel": 80,
      "dur": 25
    },
    {
      "t": 1628.9,
      "ch": 0,
      "note": 36,
      "vel": 62,
      "dur": 55
    },
    {
      "t": 1628.9,
      "ch": 5,
      "note": 37,
      "vel": 57,
      "dur": 801
    },
    {
      "t": 1628.9,
      "ch": 1,
      "note": 42,
      "vel": 68,
      "dur": 25
    },
    {
      "t": 1629,
      "ch": 0,
      "note": 36,
      "vel": 111,
      "dur": 55
    },
    {
      "t": 1629,
      "ch": 1,
      "note": 36,
      "vel": 118,
      "dur": 25
    },
    {
      "t": 1629,
      "ch": 7,
      "note": 48,
      "vel": 67,
      "dur": 80
    },
    {
      "t": 1629,
      "ch": 7,
      "note": 45,
      "vel": 75,
      "dur": 80
    },
    {
      "t": 1629,
      "ch": 7,
      "note": 36,
      "vel": 67,
      "dur": 80
    },
    {
      "t": 1629,
      "ch": 7,
      "note": 38,
      "vel": 81,
      "dur": 80
    },
    {
      "t": 1629,
      "ch": 5,
      "note": 58,
      "vel": 83,
      "dur": 802
    },
    {
      "t": 1629.1,
      "ch": 1,
      "note": 38,
      "vel": 91,
      "dur": 25
    },
    {
      "t": 1629.2,
      "ch": 1,
      "note": 40,
      "vel": 73,
      "dur": 25
    },
    {
      "t": 1629.2,
      "ch": 5,
      "note": 52,
      "vel": 51,
      "dur": 803
    },
    {
      "t": 1629.2,
      "ch": 1,
      "note": 42,
      "vel": 83,
      "dur": 25
    },
    {
      "t": 1629.3,
      "ch": 1,
      "note": 36,
      "vel": 92,
      "dur": 25
    },
    {
      "t": 1629.3,
      "ch": 7,
      "note": 36,
      "vel": 56,
      "dur": 80
    },
    {
      "t": 1629.3,
      "ch": 5,
      "note": 63,
      "vel": 48,
      "dur": 804
    },
    {
      "t": 1629.3,
      "ch": 6,
      "note": 48,
      "vel": 24,
      "dur": 536
    },
    {
      "t": 1629.3,
      "ch": 6,
      "note": 64,
      "vel": 31,
      "dur": 400
    },
    {
      "t": 1629.4,
      "ch": 1,
      "note": 38,
      "vel": 80,
      "dur": 25
    },
    {
      "t": 1629.4,
      "ch": 1,
      "note": 40,
      "vel": 83,
      "dur": 25
    },
    {
      "t": 1629.5,
      "ch": 5,
      "note": 68,
      "vel": 45,
      "dur": 805
    },
    {
      "t": 1629.5,
      "ch": 1,
      "note": 42,
      "vel": 70,
      "dur": 25
    },
    {
      "t": 1629.6,
      "ch": 0,
      "note": 36,
      "vel": 91,
      "dur": 55
    },
    {
      "t": 1629.6,
      "ch": 1,
      "note": 36,
      "vel": 109,
      "dur": 25
    },
    {
      "t": 1629.6,
      "ch": 7,
      "note": 48,
      "vel": 67,
      "dur": 80
    },
    {
      "t": 1629.6,
      "ch": 7,
      "note": 36,
      "vel": 75,
      "dur": 80
    },
    {
      "t": 1629.6,
      "ch": 6,
      "note": 71,
      "vel": 35,
      "dur": 537
    },
    {
      "t": 1629.7,
      "ch": 1,
      "note": 38,
      "vel": 106,
      "dur": 25
    },
    {
      "t": 1629.7,
      "ch": 1,
      "note": 40,
      "vel": 71,
      "dur": 25
    },
    {
      "t": 1629.8,
      "ch": 7,
      "note": 45,
      "vel": 68,
      "dur": 80
    },
    {
      "t": 1629.8,
      "ch": 7,
      "note": 38,
      "vel": 66,
      "dur": 80
    },
    {
      "t": 1629.8,
      "ch": 6,
      "note": 73,
      "vel": 35,
      "dur": 400
    },
    {
      "t": 1629.8,
      "ch": 1,
      "note": 42,
      "vel": 83,
      "dur": 25
    },
    {
      "t": 1629.9,
      "ch": 1,
      "note": 36,
      "vel": 87,
      "dur": 25
    },
    {
      "t": 1629.9,
      "ch": 5,
      "note": 37,
      "vel": 52,
      "dur": 808
    },
    {
      "t": 1630,
      "ch": 1,
      "note": 38,
      "vel": 97,
      "dur": 25
    },
    {
      "t": 1630,
      "ch": 1,
      "note": 40,
      "vel": 80,
      "dur": 25
    },
    {
      "t": 1630.1,
      "ch": 5,
      "note": 37,
      "vel": 65,
      "dur": 808
    },
    {
      "t": 1630.1,
      "ch": 4,
      "note": 59,
      "vel": 76,
      "dur": 2350
    },
    {
      "t": 1630.1,
      "ch": 3,
      "note": 40,
      "vel": 74,
      "dur": 2400
    },
    {
      "t": 1630.1,
      "ch": 1,
      "note": 42,
      "vel": 85,
      "dur": 25
    },
    {
      "t": 1630.2,
      "ch": 0,
      "note": 36,
      "vel": 83,
      "dur": 55
    },
    {
      "t": 1630.2,
      "ch": 1,
      "note": 36,
      "vel": 117,
      "dur": 25
    },
    {
      "t": 1630.2,
      "ch": 7,
      "note": 48,
      "vel": 69,
      "dur": 80
    },
    {
      "t": 1630.2,
      "ch": 7,
      "note": 36,
      "vel": 79,
      "dur": 80
    },
    {
      "t": 1630.2,
      "ch": 6,
      "note": 48,
      "vel": 57,
      "dur": 540
    },
    {
      "t": 1630.3,
      "ch": 1,
      "note": 38,
      "vel": 79,
      "dur": 25
    },
    {
      "t": 1630.3,
      "ch": 1,
      "note": 40,
      "vel": 101,
      "dur": 25
    },
    {
      "t": 1630.4,
      "ch": 1,
      "note": 42,
      "vel": 97,
      "dur": 25
    },
    {
      "t": 1630.5,
      "ch": 1,
      "note": 36,
      "vel": 92,
      "dur": 25
    },
    {
      "t": 1630.5,
      "ch": 7,
      "note": 36,
      "vel": 55,
      "dur": 80
    },
    {
      "t": 1630.5,
      "ch": 7,
      "note": 38,
      "vel": 62,
      "dur": 80
    },
    {
      "t": 1630.5,
      "ch": 6,
      "note": 61,
      "vel": 53,
      "dur": 541
    },
    {
      "t": 1630.5,
      "ch": 7,
      "note": 45,
      "vel": 73,
      "dur": 80
    },
    {
      "t": 1630.6,
      "ch": 1,
      "note": 38,
      "vel": 96,
      "dur": 25
    },
    {
      "t": 1630.6,
      "ch": 1,
      "note": 40,
      "vel": 86,
      "dur": 25
    },
    {
      "t": 1630.7,
      "ch": 1,
      "note": 42,
      "vel": 91,
      "dur": 25
    },
    {
      "t": 1630.8,
      "ch": 0,
      "note": 36,
      "vel": 91,
      "dur": 55
    },
    {
      "t": 1630.8,
      "ch": 1,
      "note": 36,
      "vel": 120,
      "dur": 25
    },
    {
      "t": 1630.8,
      "ch": 7,
      "note": 48,
      "vel": 70,
      "dur": 80
    },
    {
      "t": 1630.8,
      "ch": 7,
      "note": 36,
      "vel": 69,
      "dur": 80
    },
    {
      "t": 1630.8,
      "ch": 5,
      "note": 58,
      "vel": 81,
      "dur": 813
    },
    {
      "t": 1630.8,
      "ch": 6,
      "note": 54,
      "vel": 70,
      "dur": 542
    },
    {
      "t": 1630.9,
      "ch": 1,
      "note": 38,
      "vel": 98,
      "dur": 25
    },
    {
      "t": 1631,
      "ch": 1,
      "note": 40,
      "vel": 92,
      "dur": 25
    },
    {
      "t": 1631,
      "ch": 1,
      "note": 42,
      "vel": 94,
      "dur": 25
    },
    {
      "t": 1631.1,
      "ch": 1,
      "note": 36,
      "vel": 95,
      "dur": 25
    },
    {
      "t": 1631.2,
      "ch": 1,
      "note": 38,
      "vel": 76,
      "dur": 25
    },
    {
      "t": 1631.3,
      "ch": 1,
      "note": 40,
      "vel": 67,
      "dur": 25
    },
    {
      "t": 1631.3,
      "ch": 6,
      "note": 66,
      "vel": 63,
      "dur": 543
    },
    {
      "t": 1631.3,
      "ch": 1,
      "note": 42,
      "vel": 80,
      "dur": 25
    },
    {
      "t": 1631.4,
      "ch": 0,
      "note": 36,
      "vel": 111,
      "dur": 55
    },
    {
      "t": 1631.4,
      "ch": 1,
      "note": 36,
      "vel": 106,
      "dur": 25
    },
    {
      "t": 1631.4,
      "ch": 7,
      "note": 48,
      "vel": 78,
      "dur": 80
    },
    {
      "t": 1631.4,
      "ch": 7,
      "note": 45,
      "vel": 71,
      "dur": 80
    },
    {
      "t": 1631.4,
      "ch": 7,
      "note": 36,
      "vel": 75,
      "dur": 80
    },
    {
      "t": 1631.4,
      "ch": 7,
      "note": 38,
      "vel": 73,
      "dur": 80
    },
    {
      "t": 1631.4,
      "ch": 6,
      "note": 52,
      "vel": 52,
      "dur": 544
    },
    {
      "t": 1631.5,
      "ch": 1,
      "note": 38,
      "vel": 90,
      "dur": 25
    },
    {
      "t": 1631.5,
      "ch": 1,
      "note": 40,
      "vel": 86,
      "dur": 25
    },
    {
      "t": 1631.6,
      "ch": 1,
      "note": 42,
      "vel": 90,
      "dur": 25
    },
    {
      "t": 1631.7,
      "ch": 1,
      "note": 36,
      "vel": 68,
      "dur": 25
    },
    {
      "t": 1631.7,
      "ch": 7,
      "note": 36,
      "vel": 64,
      "dur": 80
    },
    {
      "t": 1631.7,
      "ch": 5,
      "note": 52,
      "vel": 54,
      "dur": 817
    },
    {
      "t": 1631.8,
      "ch": 1,
      "note": 38,
      "vel": 83,
      "dur": 25
    },
    {
      "t": 1631.9,
      "ch": 1,
      "note": 40,
      "vel": 94,
      "dur": 25
    },
    {
      "t": 1631.9,
      "ch": 1,
      "note": 42,
      "vel": 83,
      "dur": 25
    },
    {
      "t": 1632,
      "ch": 0,
      "note": 36,
      "vel": 84,
      "dur": 55
    },
    {
      "t": 1632,
      "ch": 1,
      "note": 36,
      "vel": 120,
      "dur": 25
    },
    {
      "t": 1632,
      "ch": 7,
      "note": 48,
      "vel": 60,
      "dur": 80
    },
    {
      "t": 1632,
      "ch": 7,
      "note": 36,
      "vel": 67,
      "dur": 80
    },
    {
      "t": 1632,
      "ch": 6,
      "note": 71,
      "vel": 59,
      "dur": 545
    },
    {
      "t": 1632.1,
      "ch": 1,
      "note": 38,
      "vel": 96,
      "dur": 25
    },
    {
      "t": 1632.1,
      "ch": 1,
      "note": 40,
      "vel": 99,
      "dur": 25
    },
    {
      "t": 1632.2,
      "ch": 7,
      "note": 45,
      "vel": 56,
      "dur": 80
    },
    {
      "t": 1632.2,
      "ch": 7,
      "note": 38,
      "vel": 63,
      "dur": 80
    },
    {
      "t": 1632.2,
      "ch": 1,
      "note": 42,
      "vel": 101,
      "dur": 25
    },
    {
      "t": 1632.3,
      "ch": 1,
      "note": 36,
      "vel": 84,
      "dur": 25
    },
    {
      "t": 1632.4,
      "ch": 1,
      "note": 38,
      "vel": 93,
      "dur": 25
    },
    {
      "t": 1632.4,
      "ch": 1,
      "note": 40,
      "vel": 90,
      "dur": 25
    },
    {
      "t": 1632.5,
      "ch": 5,
      "note": 63,
      "vel": 45,
      "dur": 820
    },
    {
      "t": 1632.5,
      "ch": 4,
      "note": 59,
      "vel": 70,
      "dur": 2350
    },
    {
      "t": 1632.5,
      "ch": 3,
      "note": 42,
      "vel": 72,
      "dur": 2400
    },
    {
      "t": 1632.5,
      "ch": 1,
      "note": 42,
      "vel": 97,
      "dur": 25
    },
    {
      "t": 1632.6,
      "ch": 0,
      "note": 36,
      "vel": 93,
      "dur": 55
    },
    {
      "t": 1632.6,
      "ch": 1,
      "note": 36,
      "vel": 109,
      "dur": 25
    },
    {
      "t": 1632.6,
      "ch": 7,
      "note": 48,
      "vel": 80,
      "dur": 80
    },
    {
      "t": 1632.6,
      "ch": 7,
      "note": 36,
      "vel": 65,
      "dur": 80
    },
    {
      "t": 1632.6,
      "ch": 5,
      "note": 68,
      "vel": 61,
      "dur": 820
    },
    {
      "t": 1632.7,
      "ch": 1,
      "note": 38,
      "vel": 97,
      "dur": 25
    },
    {
      "t": 1632.8,
      "ch": 1,
      "note": 40,
      "vel": 101,
      "dur": 25
    },
    {
      "t": 1632.8,
      "ch": 6,
      "note": 68,
      "vel": 59,
      "dur": 547
    },
    {
      "t": 1632.8,
      "ch": 1,
      "note": 42,
      "vel": 82,
      "dur": 25
    },
    {
      "t": 1632.9,
      "ch": 1,
      "note": 36,
      "vel": 105,
      "dur": 25
    },
    {
      "t": 1632.9,
      "ch": 7,
      "note": 38,
      "vel": 52,
      "dur": 80
    },
    {
      "t": 1632.9,
      "ch": 7,
      "note": 45,
      "vel": 62,
      "dur": 80
    },
    {
      "t": 1632.9,
      "ch": 7,
      "note": 36,
      "vel": 59,
      "dur": 80
    },
    {
      "t": 1633,
      "ch": 1,
      "note": 38,
      "vel": 84,
      "dur": 25
    },
    {
      "t": 1633,
      "ch": 1,
      "note": 40,
      "vel": 83,
      "dur": 25
    },
    {
      "t": 1633.1,
      "ch": 6,
      "note": 70,
      "vel": 72,
      "dur": 548
    },
    {
      "t": 1633.1,
      "ch": 1,
      "note": 42,
      "vel": 88,
      "dur": 25
    },
    {
      "t": 1633.2,
      "ch": 0,
      "note": 36,
      "vel": 91,
      "dur": 55
    },
    {
      "t": 1633.2,
      "ch": 1,
      "note": 36,
      "vel": 96,
      "dur": 25
    },
    {
      "t": 1633.2,
      "ch": 7,
      "note": 48,
      "vel": 76,
      "dur": 80
    },
    {
      "t": 1633.2,
      "ch": 7,
      "note": 36,
      "vel": 70,
      "dur": 80
    },
    {
      "t": 1633.2,
      "ch": 5,
      "note": 63,
      "vel": 53,
      "dur": 822
    },
    {
      "t": 1633.3,
      "ch": 1,
      "note": 38,
      "vel": 95,
      "dur": 25
    },
    {
      "t": 1633.3,
      "ch": 1,
      "note": 40,
      "vel": 83,
      "dur": 25
    },
    {
      "t": 1633.4,
      "ch": 5,
      "note": 64,
      "vel": 49,
      "dur": 822
    },
    {
      "t": 1633.4,
      "ch": 1,
      "note": 42,
      "vel": 102,
      "dur": 25
    },
    {
      "t": 1633.5,
      "ch": 1,
      "note": 36,
      "vel": 86,
      "dur": 25
    },
    {
      "t": 1633.6,
      "ch": 1,
      "note": 38,
      "vel": 106,
      "dur": 25
    },
    {
      "t": 1633.6,
      "ch": 1,
      "note": 40,
      "vel": 81,
      "dur": 25
    },
    {
      "t": 1633.7,
      "ch": 6,
      "note": 66,
      "vel": 35,
      "dur": 548
    },
    {
      "t": 1633.7,
      "ch": 1,
      "note": 42,
      "vel": 68,
      "dur": 25
    },
    {
      "t": 1633.8,
      "ch": 0,
      "note": 36,
      "vel": 116,
      "dur": 55
    },
    {
      "t": 1633.8,
      "ch": 1,
      "note": 36,
      "vel": 125,
      "dur": 25
    },
    {
      "t": 1633.8,
      "ch": 7,
      "note": 48,
      "vel": 67,
      "dur": 80
    },
    {
      "t": 1633.8,
      "ch": 7,
      "note": 45,
      "vel": 72,
      "dur": 80
    },
    {
      "t": 1633.8,
      "ch": 7,
      "note": 36,
      "vel": 71,
      "dur": 80
    },
    {
      "t": 1633.8,
      "ch": 7,
      "note": 38,
      "vel": 61,
      "dur": 80
    },
    {
      "t": 1633.9,
      "ch": 1,
      "note": 38,
      "vel": 118,
      "dur": 25
    },
    {
      "t": 1633.9,
      "ch": 1,
      "note": 40,
      "vel": 93,
      "dur": 25
    },
    {
      "t": 1634,
      "ch": 1,
      "note": 42,
      "vel": 94,
      "dur": 25
    },
    {
      "t": 1634.1,
      "ch": 1,
      "note": 36,
      "vel": 80,
      "dur": 25
    },
    {
      "t": 1634.1,
      "ch": 7,
      "note": 36,
      "vel": 67,
      "dur": 80
    },
    {
      "t": 1634.2,
      "ch": 1,
      "note": 38,
      "vel": 84,
      "dur": 25
    },
    {
      "t": 1634.2,
      "ch": 1,
      "note": 40,
      "vel": 103,
      "dur": 25
    },
    {
      "t": 1634.3,
      "ch": 5,
      "note": 59,
      "vel": 50,
      "dur": 823
    },
    {
      "t": 1634.3,
      "ch": 6,
      "note": 68,
      "vel": 47,
      "dur": 549
    },
    {
      "t": 1634.3,
      "ch": 1,
      "note": 42,
      "vel": 89,
      "dur": 25
    },
    {
      "t": 1634.4,
      "ch": 0,
      "note": 36,
      "vel": 88,
      "dur": 55
    },
    {
      "t": 1634.4,
      "ch": 1,
      "note": 36,
      "vel": 108,
      "dur": 25
    },
    {
      "t": 1634.4,
      "ch": 7,
      "note": 48,
      "vel": 68,
      "dur": 80
    },
    {
      "t": 1634.4,
      "ch": 7,
      "note": 36,
      "vel": 71,
      "dur": 80
    },
    {
      "t": 1634.5,
      "ch": 1,
      "note": 38,
      "vel": 86,
      "dur": 25
    },
    {
      "t": 1634.5,
      "ch": 6,
      "note": 63,
      "vel": 25,
      "dur": 400
    },
    {
      "t": 1634.5,
      "ch": 1,
      "note": 40,
      "vel": 85,
      "dur": 25
    },
    {
      "t": 1634.6,
      "ch": 7,
      "note": 45,
      "vel": 61,
      "dur": 80
    },
    {
      "t": 1634.6,
      "ch": 7,
      "note": 38,
      "vel": 66,
      "dur": 80
    },
    {
      "t": 1634.6,
      "ch": 1,
      "note": 42,
      "vel": 98,
      "dur": 25
    },
    {
      "t": 1634.7,
      "ch": 1,
      "note": 36,
      "vel": 78,
      "dur": 25
    },
    {
      "t": 1634.7,
      "ch": 5,
      "note": 37,
      "vel": 61,
      "dur": 823
    },
    {
      "t": 1634.8,
      "ch": 1,
      "note": 38,
      "vel": 98,
      "dur": 25
    },
    {
      "t": 1634.8,
      "ch": 1,
      "note": 40,
      "vel": 84,
      "dur": 25
    },
    {
      "t": 1634.9,
      "ch": 4,
      "note": 59,
      "vel": 71,
      "dur": 2350
    },
    {
      "t": 1634.9,
      "ch": 3,
      "note": 40,
      "vel": 72,
      "dur": 2400
    },
    {
      "t": 1634.9,
      "ch": 1,
      "note": 42,
      "vel": 105,
      "dur": 25
    },
    {
      "t": 1635,
      "ch": 0,
      "note": 36,
      "vel": 96,
      "dur": 55
    },
    {
      "t": 1635,
      "ch": 1,
      "note": 36,
      "vel": 88,
      "dur": 25
    },
    {
      "t": 1635,
      "ch": 7,
      "note": 48,
      "vel": 69,
      "dur": 80
    },
    {
      "t": 1635,
      "ch": 7,
      "note": 36,
      "vel": 68,
      "dur": 80
    },
    {
      "t": 1635,
      "ch": 6,
      "note": 61,
      "vel": 83,
      "dur": 549
    },
    {
      "t": 1635.1,
      "ch": 1,
      "note": 38,
      "vel": 107,
      "dur": 25
    },
    {
      "t": 1635.1,
      "ch": 1,
      "note": 40,
      "vel": 99,
      "dur": 25
    },
    {
      "t": 1635.2,
      "ch": 1,
      "note": 42,
      "vel": 97,
      "dur": 25
    },
    {
      "t": 1635.3,
      "ch": 1,
      "note": 36,
      "vel": 100,
      "dur": 25
    },
    {
      "t": 1635.3,
      "ch": 7,
      "note": 45,
      "vel": 63,
      "dur": 80
    },
    {
      "t": 1635.3,
      "ch": 7,
      "note": 38,
      "vel": 56,
      "dur": 80
    },
    {
      "t": 1635.3,
      "ch": 7,
      "note": 36,
      "vel": 61,
      "dur": 80
    },
    {
      "t": 1635.4,
      "ch": 1,
      "note": 38,
      "vel": 93,
      "dur": 25
    },
    {
      "t": 1635.4,
      "ch": 1,
      "note": 40,
      "vel": 83,
      "dur": 25
    },
    {
      "t": 1635.5,
      "ch": 1,
      "note": 42,
      "vel": 78,
      "dur": 25
    },
    {
      "t": 1635.6,
      "ch": 0,
      "note": 36,
      "vel": 94,
      "dur": 55
    },
    {
      "t": 1635.6,
      "ch": 1,
      "note": 36,
      "vel": 118,
      "dur": 25
    },
    {
      "t": 1635.6,
      "ch": 7,
      "note": 48,
      "vel": 56,
      "dur": 80
    },
    {
      "t": 1635.6,
      "ch": 7,
      "note": 36,
      "vel": 82,
      "dur": 80
    },
    {
      "t": 1635.6,
      "ch": 5,
      "note": 52,
      "vel": 70,
      "dur": 822
    },
    {
      "t": 1635.7,
      "ch": 1,
      "note": 38,
      "vel": 100,
      "dur": 25
    },
    {
      "t": 1635.7,
      "ch": 1,
      "note": 40,
      "vel": 111,
      "dur": 25
    },
    {
      "t": 1635.8,
      "ch": 1,
      "note": 42,
      "vel": 71,
      "dur": 25
    },
    {
      "t": 1635.9,
      "ch": 1,
      "note": 36,
      "vel": 73,
      "dur": 25
    },
    {
      "t": 1636,
      "ch": 1,
      "note": 38,
      "vel": 87,
      "dur": 25
    },
    {
      "t": 1636,
      "ch": 1,
      "note": 40,
      "vel": 95,
      "dur": 25
    },
    {
      "t": 1636.1,
      "ch": 1,
      "note": 42,
      "vel": 100,
      "dur": 25
    },
    {
      "t": 1636.2,
      "ch": 0,
      "note": 36,
      "vel": 115,
      "dur": 55
    },
    {
      "t": 1636.2,
      "ch": 1,
      "note": 36,
      "vel": 89,
      "dur": 25
    },
    {
      "t": 1636.2,
      "ch": 7,
      "note": 48,
      "vel": 76,
      "dur": 80
    },
    {
      "t": 1636.2,
      "ch": 7,
      "note": 45,
      "vel": 74,
      "dur": 80
    },
    {
      "t": 1636.2,
      "ch": 7,
      "note": 36,
      "vel": 65,
      "dur": 80
    },
    {
      "t": 1636.2,
      "ch": 7,
      "note": 38,
      "vel": 68,
      "dur": 80
    },
    {
      "t": 1636.3,
      "ch": 1,
      "note": 38,
      "vel": 118,
      "dur": 25
    },
    {
      "t": 1636.3,
      "ch": 1,
      "note": 40,
      "vel": 108,
      "dur": 25
    },
    {
      "t": 1636.4,
      "ch": 1,
      "note": 42,
      "vel": 93,
      "dur": 25
    },
    {
      "t": 1636.5,
      "ch": 1,
      "note": 36,
      "vel": 92,
      "dur": 25
    },
    {
      "t": 1636.5,
      "ch": 7,
      "note": 36,
      "vel": 59,
      "dur": 80
    },
    {
      "t": 1636.6,
      "ch": 1,
      "note": 38,
      "vel": 99,
      "dur": 25
    },
    {
      "t": 1636.6,
      "ch": 1,
      "note": 40,
      "vel": 97,
      "dur": 25
    },
    {
      "t": 1636.7,
      "ch": 6,
      "note": 48,
      "vel": 62,
      "dur": 546
    },
    {
      "t": 1636.7,
      "ch": 1,
      "note": 42,
      "vel": 97,
      "dur": 25
    },
    {
      "t": 1636.8,
      "ch": 0,
      "note": 36,
      "vel": 88,
      "dur": 55
    },
    {
      "t": 1636.8,
      "ch": 1,
      "note": 36,
      "vel": 119,
      "dur": 25
    },
    {
      "t": 1636.8,
      "ch": 7,
      "note": 48,
      "vel": 58,
      "dur": 80
    },
    {
      "t": 1636.8,
      "ch": 7,
      "note": 36,
      "vel": 64,
      "dur": 80
    },
    {
      "t": 1636.9,
      "ch": 1,
      "note": 38,
      "vel": 91,
      "dur": 25
    },
    {
      "t": 1636.9,
      "ch": 1,
      "note": 40,
      "vel": 64,
      "dur": 25
    },
    {
      "t": 1637,
      "ch": 7,
      "note": 38,
      "vel": 64,
      "dur": 80
    },
    {
      "t": 1637,
      "ch": 7,
      "note": 45,
      "vel": 62,
      "dur": 80
    },
    {
      "t": 1637,
      "ch": 1,
      "note": 42,
      "vel": 83,
      "dur": 25
    },
    {
      "t": 1637.1,
      "ch": 1,
      "note": 36,
      "vel": 72,
      "dur": 25
    },
    {
      "t": 1637.2,
      "ch": 1,
      "note": 38,
      "vel": 101,
      "dur": 25
    },
    {
      "t": 1637.3,
      "ch": 1,
      "note": 40,
      "vel": 100,
      "dur": 25
    },
    {
      "t": 1637.3,
      "ch": 2,
      "note": 49,
      "vel": 62,
      "dur": 18000
    },
    {
      "t": 1637.3,
      "ch": 4,
      "note": 58,
      "vel": 84,
      "dur": 2350
    },
    {
      "t": 1637.3,
      "ch": 3,
      "note": 37,
      "vel": 73,
      "dur": 2400
    },
    {
      "t": 1637.3,
      "ch": 1,
      "note": 42,
      "vel": 87,
      "dur": 25
    },
    {
      "t": 1637.4,
      "ch": 0,
      "note": 36,
      "vel": 89,
      "dur": 55
    },
    {
      "t": 1637.4,
      "ch": 1,
      "note": 36,
      "vel": 107,
      "dur": 25
    },
    {
      "t": 1637.4,
      "ch": 7,
      "note": 48,
      "vel": 72,
      "dur": 80
    },
    {
      "t": 1637.4,
      "ch": 7,
      "note": 36,
      "vel": 77,
      "dur": 80
    },
    {
      "t": 1637.4,
      "ch": 6,
      "note": 56,
      "vel": 57,
      "dur": 544
    },
    {
      "t": 1637.5,
      "ch": 1,
      "note": 38,
      "vel": 97,
      "dur": 25
    },
    {
      "t": 1637.5,
      "ch": 1,
      "note": 40,
      "vel": 112,
      "dur": 25
    },
    {
      "t": 1637.6,
      "ch": 1,
      "note": 42,
      "vel": 88,
      "dur": 25
    },
    {
      "t": 1637.7,
      "ch": 1,
      "note": 36,
      "vel": 104,
      "dur": 25
    },
    {
      "t": 1637.7,
      "ch": 7,
      "note": 45,
      "vel": 48,
      "dur": 80
    },
    {
      "t": 1637.7,
      "ch": 7,
      "note": 38,
      "vel": 59,
      "dur": 80
    },
    {
      "t": 1637.7,
      "ch": 7,
      "note": 36,
      "vel": 55,
      "dur": 80
    },
    {
      "t": 1637.7,
      "ch": 6,
      "note": 61,
      "vel": 34,
      "dur": 543
    },
    {
      "t": 1637.8,
      "ch": 1,
      "note": 38,
      "vel": 84,
      "dur": 25
    },
    {
      "t": 1637.9,
      "ch": 1,
      "note": 40,
      "vel": 89,
      "dur": 25
    },
    {
      "t": 1637.9,
      "ch": 1,
      "note": 42,
      "vel": 82,
      "dur": 25
    },
    {
      "t": 1638,
      "ch": 0,
      "note": 36,
      "vel": 92,
      "dur": 55
    },
    {
      "t": 1638,
      "ch": 1,
      "note": 36,
      "vel": 93,
      "dur": 25
    },
    {
      "t": 1638,
      "ch": 7,
      "note": 48,
      "vel": 81,
      "dur": 80
    },
    {
      "t": 1638,
      "ch": 7,
      "note": 36,
      "vel": 75,
      "dur": 80
    },
    {
      "t": 1638,
      "ch": 5,
      "note": 58,
      "vel": 66,
      "dur": 814
    },
    {
      "t": 1638.1,
      "ch": 1,
      "note": 38,
      "vel": 97,
      "dur": 25
    },
    {
      "t": 1638.1,
      "ch": 1,
      "note": 40,
      "vel": 92,
      "dur": 25
    },
    {
      "t": 1638.2,
      "ch": 1,
      "note": 42,
      "vel": 74,
      "dur": 25
    },
    {
      "t": 1638.3,
      "ch": 1,
      "note": 36,
      "vel": 99,
      "dur": 25
    },
    {
      "t": 1638.3,
      "ch": 5,
      "note": 63,
      "vel": 49,
      "dur": 812
    },
    {
      "t": 1638.4,
      "ch": 1,
      "note": 38,
      "vel": 79,
      "dur": 25
    },
    {
      "t": 1638.5,
      "ch": 1,
      "note": 40,
      "vel": 86,
      "dur": 25
    },
    {
      "t": 1638.5,
      "ch": 6,
      "note": 61,
      "vel": 38,
      "dur": 400
    },
    {
      "t": 1638.5,
      "ch": 1,
      "note": 42,
      "vel": 91,
      "dur": 25
    },
    {
      "t": 1638.6,
      "ch": 0,
      "note": 36,
      "vel": 110,
      "dur": 55
    },
    {
      "t": 1638.6,
      "ch": 1,
      "note": 36,
      "vel": 120,
      "dur": 25
    },
    {
      "t": 1638.6,
      "ch": 7,
      "note": 48,
      "vel": 78,
      "dur": 80
    },
    {
      "t": 1638.6,
      "ch": 7,
      "note": 45,
      "vel": 83,
      "dur": 80
    },
    {
      "t": 1638.6,
      "ch": 7,
      "note": 36,
      "vel": 73,
      "dur": 80
    },
    {
      "t": 1638.6,
      "ch": 7,
      "note": 38,
      "vel": 70,
      "dur": 80
    },
    {
      "t": 1638.6,
      "ch": 6,
      "note": 63,
      "vel": 46,
      "dur": 540
    },
    {
      "t": 1638.7,
      "ch": 1,
      "note": 38,
      "vel": 110,
      "dur": 25
    },
    {
      "t": 1638.8,
      "ch": 1,
      "note": 40,
      "vel": 80,
      "dur": 25
    },
    {
      "t": 1638.8,
      "ch": 1,
      "note": 42,
      "vel": 66,
      "dur": 25
    },
    {
      "t": 1638.9,
      "ch": 1,
      "note": 36,
      "vel": 74,
      "dur": 25
    },
    {
      "t": 1638.9,
      "ch": 7,
      "note": 36,
      "vel": 58,
      "dur": 80
    },
    {
      "t": 1638.9,
      "ch": 5,
      "note": 64,
      "vel": 54,
      "dur": 809
    },
    {
      "t": 1639,
      "ch": 1,
      "note": 38,
      "vel": 96,
      "dur": 25
    },
    {
      "t": 1639,
      "ch": 1,
      "note": 40,
      "vel": 107,
      "dur": 25
    },
    {
      "t": 1639.1,
      "ch": 6,
      "note": 66,
      "vel": 46,
      "dur": 538
    },
    {
      "t": 1639.1,
      "ch": 1,
      "note": 42,
      "vel": 88,
      "dur": 25
    },
    {
      "t": 1639.2,
      "ch": 0,
      "note": 36,
      "vel": 91,
      "dur": 55
    },
    {
      "t": 1639.2,
      "ch": 1,
      "note": 36,
      "vel": 90,
      "dur": 25
    },
    {
      "t": 1639.2,
      "ch": 7,
      "note": 48,
      "vel": 65,
      "dur": 80
    },
    {
      "t": 1639.2,
      "ch": 7,
      "note": 36,
      "vel": 56,
      "dur": 80
    },
    {
      "t": 1639.3,
      "ch": 1,
      "note": 38,
      "vel": 122,
      "dur": 25
    },
    {
      "t": 1639.3,
      "ch": 1,
      "note": 40,
      "vel": 98,
      "dur": 25
    },
    {
      "t": 1639.4,
      "ch": 7,
      "note": 38,
      "vel": 67,
      "dur": 80
    },
    {
      "t": 1639.4,
      "ch": 7,
      "note": 45,
      "vel": 57,
      "dur": 80
    },
    {
      "t": 1639.4,
      "ch": 5,
      "note": 59,
      "vel": 58,
      "dur": 806
    },
    {
      "t": 1639.4,
      "ch": 1,
      "note": 42,
      "vel": 79,
      "dur": 25
    },
    {
      "t": 1639.5,
      "ch": 1,
      "note": 36,
      "vel": 89,
      "dur": 25
    },
    {
      "t": 1639.6,
      "ch": 1,
      "note": 38,
      "vel": 88,
      "dur": 25
    },
    {
      "t": 1639.6,
      "ch": 1,
      "note": 40,
      "vel": 84,
      "dur": 25
    },
    {
      "t": 1639.7,
      "ch": 4,
      "note": 58,
      "vel": 91,
      "dur": 2350
    },
    {
      "t": 1639.7,
      "ch": 3,
      "note": 44,
      "vel": 75,
      "dur": 2400
    },
    {
      "t": 1639.7,
      "ch": 1,
      "note": 42,
      "vel": 83,
      "dur": 25
    },
    {
      "t": 1639.8,
      "ch": 0,
      "note": 36,
      "vel": 92,
      "dur": 55
    },
    {
      "t": 1639.8,
      "ch": 1,
      "note": 36,
      "vel": 106,
      "dur": 25
    },
    {
      "t": 1639.8,
      "ch": 7,
      "note": 48,
      "vel": 73,
      "dur": 80
    },
    {
      "t": 1639.8,
      "ch": 7,
      "note": 36,
      "vel": 66,
      "dur": 80
    },
    {
      "t": 1639.8,
      "ch": 5,
      "note": 37,
      "vel": 66,
      "dur": 803
    },
    {
      "t": 1639.9,
      "ch": 1,
      "note": 38,
      "vel": 105,
      "dur": 25
    },
    {
      "t": 1639.9,
      "ch": 1,
      "note": 40,
      "vel": 92,
      "dur": 25
    },
    {
      "t": 1640,
      "ch": 6,
      "note": 61,
      "vel": 65,
      "dur": 535
    },
    {
      "t": 1640,
      "ch": 1,
      "note": 42,
      "vel": 100,
      "dur": 25
    },
    {
      "t": 1640.1,
      "ch": 1,
      "note": 36,
      "vel": 70,
      "dur": 25
    },
    {
      "t": 1640.1,
      "ch": 7,
      "note": 38,
      "vel": 60,
      "dur": 80
    },
    {
      "t": 1640.1,
      "ch": 7,
      "note": 45,
      "vel": 71,
      "dur": 80
    },
    {
      "t": 1640.1,
      "ch": 7,
      "note": 36,
      "vel": 70,
      "dur": 80
    },
    {
      "t": 1640.2,
      "ch": 1,
      "note": 38,
      "vel": 83,
      "dur": 25
    },
    {
      "t": 1640.2,
      "ch": 1,
      "note": 40,
      "vel": 95,
      "dur": 25
    },
    {
      "t": 1640.3,
      "ch": 5,
      "note": 52,
      "vel": 49,
      "dur": 800
    },
    {
      "t": 1640.3,
      "ch": 1,
      "note": 42,
      "vel": 79,
      "dur": 25
    },
    {
      "t": 1640.4,
      "ch": 0,
      "note": 36,
      "vel": 101,
      "dur": 55
    },
    {
      "t": 1640.4,
      "ch": 1,
      "note": 36,
      "vel": 78,
      "dur": 25
    },
    {
      "t": 1640.4,
      "ch": 7,
      "note": 48,
      "vel": 73,
      "dur": 80
    },
    {
      "t": 1640.4,
      "ch": 7,
      "note": 36,
      "vel": 70,
      "dur": 80
    },
    {
      "t": 1640.5,
      "ch": 1,
      "note": 38,
      "vel": 80,
      "dur": 25
    },
    {
      "t": 1640.5,
      "ch": 1,
      "note": 40,
      "vel": 75,
      "dur": 25
    },
    {
      "t": 1640.6,
      "ch": 1,
      "note": 42,
      "vel": 76,
      "dur": 25
    },
    {
      "t": 1640.7,
      "ch": 1,
      "note": 36,
      "vel": 92,
      "dur": 25
    },
    {
      "t": 1640.8,
      "ch": 1,
      "note": 38,
      "vel": 94,
      "dur": 25
    },
    {
      "t": 1640.8,
      "ch": 1,
      "note": 40,
      "vel": 97,
      "dur": 25
    },
    {
      "t": 1640.9,
      "ch": 1,
      "note": 42,
      "vel": 82,
      "dur": 25
    },
    {
      "t": 1641,
      "ch": 0,
      "note": 36,
      "vel": 112,
      "dur": 55
    },
    {
      "t": 1641,
      "ch": 1,
      "note": 36,
      "vel": 80,
      "dur": 25
    },
    {
      "t": 1641,
      "ch": 7,
      "note": 48,
      "vel": 77,
      "dur": 80
    },
    {
      "t": 1641,
      "ch": 7,
      "note": 45,
      "vel": 75,
      "dur": 80
    },
    {
      "t": 1641,
      "ch": 7,
      "note": 36,
      "vel": 75,
      "dur": 80
    },
    {
      "t": 1641,
      "ch": 7,
      "note": 38,
      "vel": 71,
      "dur": 80
    },
    {
      "t": 1641,
      "ch": 5,
      "note": 58,
      "vel": 66,
      "dur": 795
    },
    {
      "t": 1641.1,
      "ch": 1,
      "note": 38,
      "vel": 85,
      "dur": 25
    },
    {
      "t": 1641.1,
      "ch": 1,
      "note": 40,
      "vel": 88,
      "dur": 25
    },
    {
      "t": 1641.2,
      "ch": 5,
      "note": 51,
      "vel": 74,
      "dur": 794
    },
    {
      "t": 1641.2,
      "ch": 1,
      "note": 42,
      "vel": 82,
      "dur": 25
    },
    {
      "t": 1641.3,
      "ch": 1,
      "note": 36,
      "vel": 75,
      "dur": 25
    },
    {
      "t": 1641.3,
      "ch": 7,
      "note": 36,
      "vel": 68,
      "dur": 80
    },
    {
      "t": 1641.3,
      "ch": 5,
      "note": 52,
      "vel": 65,
      "dur": 793
    },
    {
      "t": 1641.4,
      "ch": 1,
      "note": 38,
      "vel": 87,
      "dur": 25
    },
    {
      "t": 1641.5,
      "ch": 1,
      "note": 40,
      "vel": 87,
      "dur": 25
    },
    {
      "t": 1641.5,
      "ch": 1,
      "note": 42,
      "vel": 88,
      "dur": 25
    },
    {
      "t": 1641.6,
      "ch": 0,
      "note": 36,
      "vel": 91,
      "dur": 55
    },
    {
      "t": 1641.6,
      "ch": 1,
      "note": 36,
      "vel": 116,
      "dur": 25
    },
    {
      "t": 1641.6,
      "ch": 7,
      "note": 48,
      "vel": 77,
      "dur": 80
    },
    {
      "t": 1641.6,
      "ch": 7,
      "note": 36,
      "vel": 56,
      "dur": 80
    },
    {
      "t": 1641.7,
      "ch": 1,
      "note": 38,
      "vel": 127,
      "dur": 25
    },
    {
      "t": 1641.7,
      "ch": 1,
      "note": 40,
      "vel": 82,
      "dur": 25
    },
    {
      "t": 1641.8,
      "ch": 7,
      "note": 38,
      "vel": 66,
      "dur": 80
    },
    {
      "t": 1641.8,
      "ch": 7,
      "note": 45,
      "vel": 57,
      "dur": 80
    },
    {
      "t": 1641.8,
      "ch": 1,
      "note": 42,
      "vel": 101,
      "dur": 25
    },
    {
      "t": 1641.9,
      "ch": 1,
      "note": 36,
      "vel": 89,
      "dur": 25
    },
    {
      "t": 1641.9,
      "ch": 6,
      "note": 54,
      "vel": 61,
      "dur": 526
    },
    {
      "t": 1642,
      "ch": 1,
      "note": 38,
      "vel": 86,
      "dur": 25
    },
    {
      "t": 1642.1,
      "ch": 1,
      "note": 40,
      "vel": 83,
      "dur": 25
    },
    {
      "t": 1642.1,
      "ch": 5,
      "note": 59,
      "vel": 60,
      "dur": 789
    },
    {
      "t": 1642.1,
      "ch": 4,
      "note": 59,
      "vel": 79,
      "dur": 2350
    },
    {
      "t": 1642.1,
      "ch": 3,
      "note": 40,
      "vel": 78,
      "dur": 2400
    },
    {
      "t": 1642.1,
      "ch": 1,
      "note": 42,
      "vel": 115,
      "dur": 25
    },
    {
      "t": 1642.2,
      "ch": 0,
      "note": 36,
      "vel": 100,
      "dur": 55
    },
    {
      "t": 1642.2,
      "ch": 1,
      "note": 36,
      "vel": 102,
      "dur": 25
    },
    {
      "t": 1642.2,
      "ch": 7,
      "note": 48,
      "vel": 64,
      "dur": 80
    },
    {
      "t": 1642.2,
      "ch": 7,
      "note": 36,
      "vel": 73,
      "dur": 80
    },
    {
      "t": 1642.3,
      "ch": 1,
      "note": 38,
      "vel": 86,
      "dur": 25
    },
    {
      "t": 1642.3,
      "ch": 1,
      "note": 40,
      "vel": 91,
      "dur": 25
    },
    {
      "t": 1642.4,
      "ch": 1,
      "note": 42,
      "vel": 98,
      "dur": 25
    },
    {
      "t": 1642.5,
      "ch": 1,
      "note": 36,
      "vel": 89,
      "dur": 25
    },
    {
      "t": 1642.5,
      "ch": 7,
      "note": 38,
      "vel": 63,
      "dur": 80
    },
    {
      "t": 1642.5,
      "ch": 7,
      "note": 45,
      "vel": 67,
      "dur": 80
    },
    {
      "t": 1642.5,
      "ch": 7,
      "note": 36,
      "vel": 52,
      "dur": 80
    },
    {
      "t": 1642.6,
      "ch": 1,
      "note": 38,
      "vel": 107,
      "dur": 25
    },
    {
      "t": 1642.6,
      "ch": 1,
      "note": 40,
      "vel": 101,
      "dur": 25
    },
    {
      "t": 1642.7,
      "ch": 5,
      "note": 56,
      "vel": 49,
      "dur": 785
    },
    {
      "t": 1642.7,
      "ch": 1,
      "note": 42,
      "vel": 81,
      "dur": 25
    },
    {
      "t": 1642.8,
      "ch": 0,
      "note": 36,
      "vel": 86,
      "dur": 55
    },
    {
      "t": 1642.8,
      "ch": 1,
      "note": 36,
      "vel": 88,
      "dur": 25
    },
    {
      "t": 1642.8,
      "ch": 7,
      "note": 48,
      "vel": 75,
      "dur": 80
    },
    {
      "t": 1642.8,
      "ch": 7,
      "note": 36,
      "vel": 78,
      "dur": 80
    },
    {
      "t": 1642.9,
      "ch": 1,
      "note": 38,
      "vel": 92,
      "dur": 25
    },
    {
      "t": 1642.9,
      "ch": 1,
      "note": 40,
      "vel": 110,
      "dur": 25
    },
    {
      "t": 1643,
      "ch": 5,
      "note": 54,
      "vel": 74,
      "dur": 784
    },
    {
      "t": 1643,
      "ch": 1,
      "note": 42,
      "vel": 99,
      "dur": 25
    },
    {
      "t": 1643,
      "ch": 6,
      "note": 61,
      "vel": 23,
      "dur": 400
    },
    {
      "t": 1643.1,
      "ch": 1,
      "note": 36,
      "vel": 98,
      "dur": 25
    },
    {
      "t": 1643.2,
      "ch": 1,
      "note": 38,
      "vel": 111,
      "dur": 25
    },
    {
      "t": 1643.2,
      "ch": 1,
      "note": 40,
      "vel": 81,
      "dur": 25
    },
    {
      "t": 1643.3,
      "ch": 1,
      "note": 42,
      "vel": 92,
      "dur": 25
    },
    {
      "t": 1643.4,
      "ch": 0,
      "note": 36,
      "vel": 119,
      "dur": 55
    },
    {
      "t": 1643.4,
      "ch": 1,
      "note": 36,
      "vel": 108,
      "dur": 25
    },
    {
      "t": 1643.4,
      "ch": 7,
      "note": 48,
      "vel": 69,
      "dur": 80
    },
    {
      "t": 1643.4,
      "ch": 7,
      "note": 45,
      "vel": 79,
      "dur": 80
    },
    {
      "t": 1643.4,
      "ch": 7,
      "note": 36,
      "vel": 67,
      "dur": 80
    },
    {
      "t": 1643.4,
      "ch": 7,
      "note": 38,
      "vel": 78,
      "dur": 80
    },
    {
      "t": 1643.5,
      "ch": 1,
      "note": 38,
      "vel": 99,
      "dur": 25
    },
    {
      "t": 1643.6,
      "ch": 1,
      "note": 40,
      "vel": 77,
      "dur": 25
    },
    {
      "t": 1643.6,
      "ch": 1,
      "note": 42,
      "vel": 93,
      "dur": 25
    },
    {
      "t": 1643.7,
      "ch": 1,
      "note": 36,
      "vel": 103,
      "dur": 25
    },
    {
      "t": 1643.7,
      "ch": 7,
      "note": 36,
      "vel": 61,
      "dur": 80
    },
    {
      "t": 1643.8,
      "ch": 1,
      "note": 38,
      "vel": 89,
      "dur": 25
    },
    {
      "t": 1643.9,
      "ch": 1,
      "note": 40,
      "vel": 103,
      "dur": 25
    },
    {
      "t": 1643.9,
      "ch": 1,
      "note": 42,
      "vel": 73,
      "dur": 25
    },
    {
      "t": 1644,
      "ch": 0,
      "note": 36,
      "vel": 88,
      "dur": 55
    },
    {
      "t": 1644,
      "ch": 1,
      "note": 36,
      "vel": 113,
      "dur": 25
    },
    {
      "t": 1644,
      "ch": 7,
      "note": 48,
      "vel": 76,
      "dur": 80
    },
    {
      "t": 1644,
      "ch": 7,
      "note": 36,
      "vel": 77,
      "dur": 80
    },
    {
      "t": 1644.1,
      "ch": 1,
      "note": 38,
      "vel": 105,
      "dur": 25
    },
    {
      "t": 1644.1,
      "ch": 1,
      "note": 40,
      "vel": 110,
      "dur": 25
    },
    {
      "t": 1644.2,
      "ch": 7,
      "note": 38,
      "vel": 57,
      "dur": 80
    },
    {
      "t": 1644.2,
      "ch": 7,
      "note": 45,
      "vel": 59,
      "dur": 80
    },
    {
      "t": 1644.2,
      "ch": 1,
      "note": 42,
      "vel": 120,
      "dur": 25
    },
    {
      "t": 1644.3,
      "ch": 1,
      "note": 36,
      "vel": 81,
      "dur": 25
    },
    {
      "t": 1644.3,
      "ch": 6,
      "note": 56,
      "vel": 28,
      "dur": 519
    },
    {
      "t": 1644.4,
      "ch": 1,
      "note": 38,
      "vel": 94,
      "dur": 25
    },
    {
      "t": 1644.4,
      "ch": 1,
      "note": 40,
      "vel": 105,
      "dur": 25
    },
    {
      "t": 1644.5,
      "ch": 1,
      "note": 42,
      "vel": 79,
      "dur": 25
    },
    {
      "t": 1644.6,
      "ch": 0,
      "note": 36,
      "vel": 89,
      "dur": 55
    },
    {
      "t": 1644.6,
      "ch": 1,
      "note": 36,
      "vel": 105,
      "dur": 25
    },
    {
      "t": 1644.6,
      "ch": 7,
      "note": 48,
      "vel": 72,
      "dur": 80
    },
    {
      "t": 1644.6,
      "ch": 7,
      "note": 36,
      "vel": 62,
      "dur": 80
    },
    {
      "t": 1644.6,
      "ch": 5,
      "note": 56,
      "vel": 69,
      "dur": 777
    },
    {
      "t": 1644.7,
      "ch": 1,
      "note": 38,
      "vel": 93,
      "dur": 25
    },
    {
      "t": 1644.7,
      "ch": 1,
      "note": 40,
      "vel": 114,
      "dur": 25
    },
    {
      "t": 1644.8,
      "ch": 6,
      "note": 61,
      "vel": 44,
      "dur": 518
    },
    {
      "t": 1644.8,
      "ch": 1,
      "note": 42,
      "vel": 99,
      "dur": 25
    },
    {
      "t": 1644.9,
      "ch": 1,
      "note": 36,
      "vel": 94,
      "dur": 25
    },
    {
      "t": 1644.9,
      "ch": 7,
      "note": 38,
      "vel": 60,
      "dur": 80
    },
    {
      "t": 1644.9,
      "ch": 7,
      "note": 45,
      "vel": 64,
      "dur": 80
    },
    {
      "t": 1644.9,
      "ch": 7,
      "note": 36,
      "vel": 61,
      "dur": 80
    },
    {
      "t": 1645,
      "ch": 1,
      "note": 38,
      "vel": 104,
      "dur": 25
    },
    {
      "t": 1645,
      "ch": 1,
      "note": 40,
      "vel": 94,
      "dur": 25
    },
    {
      "t": 1645.1,
      "ch": 1,
      "note": 42,
      "vel": 103,
      "dur": 25
    },
    {
      "t": 1645.2,
      "ch": 0,
      "note": 36,
      "vel": 95,
      "dur": 55
    },
    {
      "t": 1645.2,
      "ch": 1,
      "note": 36,
      "vel": 103,
      "dur": 25
    },
    {
      "t": 1645.2,
      "ch": 7,
      "note": 48,
      "vel": 76,
      "dur": 80
    },
    {
      "t": 1645.2,
      "ch": 7,
      "note": 36,
      "vel": 71,
      "dur": 80
    },
    {
      "t": 1645.2,
      "ch": 5,
      "note": 51,
      "vel": 78,
      "dur": 776
    },
    {
      "t": 1645.3,
      "ch": 1,
      "note": 38,
      "vel": 115,
      "dur": 25
    },
    {
      "t": 1645.3,
      "ch": 1,
      "note": 40,
      "vel": 93,
      "dur": 25
    },
    {
      "t": 1645.4,
      "ch": 1,
      "note": 42,
      "vel": 87,
      "dur": 25
    },
    {
      "t": 1645.5,
      "ch": 1,
      "note": 36,
      "vel": 89,
      "dur": 25
    },
    {
      "t": 1645.6,
      "ch": 1,
      "note": 38,
      "vel": 87,
      "dur": 25
    },
    {
      "t": 1645.6,
      "ch": 1,
      "note": 40,
      "vel": 99,
      "dur": 25
    },
    {
      "t": 1645.7,
      "ch": 1,
      "note": 42,
      "vel": 94,
      "dur": 25
    },
    {
      "t": 1645.8,
      "ch": 0,
      "note": 36,
      "vel": 113,
      "dur": 55
    },
    {
      "t": 1645.8,
      "ch": 1,
      "note": 36,
      "vel": 126,
      "dur": 25
    },
    {
      "t": 1645.8,
      "ch": 7,
      "note": 48,
      "vel": 72,
      "dur": 80
    },
    {
      "t": 1645.8,
      "ch": 7,
      "note": 45,
      "vel": 69,
      "dur": 80
    },
    {
      "t": 1645.8,
      "ch": 7,
      "note": 36,
      "vel": 60,
      "dur": 80
    },
    {
      "t": 1645.8,
      "ch": 7,
      "note": 38,
      "vel": 54,
      "dur": 80
    },
    {
      "t": 1645.9,
      "ch": 1,
      "note": 38,
      "vel": 106,
      "dur": 25
    },
    {
      "t": 1645.9,
      "ch": 1,
      "note": 40,
      "vel": 92,
      "dur": 25
    },
    {
      "t": 1646,
      "ch": 1,
      "note": 42,
      "vel": 108,
      "dur": 25
    },
    {
      "t": 1646.1,
      "ch": 1,
      "note": 36,
      "vel": 123,
      "dur": 25
    },
    {
      "t": 1646.1,
      "ch": 7,
      "note": 36,
      "vel": 48,
      "dur": 80
    },
    {
      "t": 1646.1,
      "ch": 5,
      "note": 52,
      "vel": 49,
      "dur": 775
    },
    {
      "t": 1646.2,
      "ch": 1,
      "note": 38,
      "vel": 107,
      "dur": 25
    },
    {
      "t": 1646.2,
      "ch": 1,
      "note": 40,
      "vel": 101,
      "dur": 25
    },
    {
      "t": 1646.3,
      "ch": 6,
      "note": 59,
      "vel": 43,
      "dur": 517
    },
    {
      "t": 1646.3,
      "ch": 1,
      "note": 42,
      "vel": 100,
      "dur": 25
    },
    {
      "t": 1646.4,
      "ch": 0,
      "note": 36,
      "vel": 92,
      "dur": 55
    },
    {
      "t": 1646.4,
      "ch": 1,
      "note": 36,
      "vel": 109,
      "dur": 25
    },
    {
      "t": 1646.4,
      "ch": 7,
      "note": 48,
      "vel": 61,
      "dur": 80
    },
    {
      "t": 1646.4,
      "ch": 7,
      "note": 36,
      "vel": 80,
      "dur": 80
    },
    {
      "t": 1646.5,
      "ch": 1,
      "note": 38,
      "vel": 103,
      "dur": 25
    },
    {
      "t": 1646.6,
      "ch": 1,
      "note": 40,
      "vel": 85,
      "dur": 25
    },
    {
      "t": 1646.6,
      "ch": 7,
      "note": 45,
      "vel": 61,
      "dur": 80
    },
    {
      "t": 1646.6,
      "ch": 7,
      "note": 38,
      "vel": 50,
      "dur": 80
    },
    {
      "t": 1646.6,
      "ch": 1,
      "note": 42,
      "vel": 112,
      "dur": 25
    },
    {
      "t": 1646.7,
      "ch": 1,
      "note": 36,
      "vel": 103,
      "dur": 25
    },
    {
      "t": 1646.8,
      "ch": 1,
      "note": 38,
      "vel": 91,
      "dur": 25
    },
    {
      "t": 1646.8,
      "ch": 1,
      "note": 40,
      "vel": 87,
      "dur": 25
    },
    {
      "t": 1646.9,
      "ch": 2,
      "note": 49,
      "vel": 63,
      "dur": 18000
    },
    {
      "t": 1646.9,
      "ch": 2,
      "note": 61,
      "vel": 44,
      "dur": 18000
    },
    {
      "t": 1646.9,
      "ch": 1,
      "note": 42,
      "vel": 86,
      "dur": 25
    },
    {
      "t": 1647,
      "ch": 0,
      "note": 36,
      "vel": 100,
      "dur": 55
    },
    {
      "t": 1647,
      "ch": 1,
      "note": 36,
      "vel": 105,
      "dur": 25
    },
    {
      "t": 1647,
      "ch": 7,
      "note": 48,
      "vel": 64,
      "dur": 80
    },
    {
      "t": 1647,
      "ch": 7,
      "note": 36,
      "vel": 73,
      "dur": 80
    },
    {
      "t": 1647.1,
      "ch": 1,
      "note": 38,
      "vel": 83,
      "dur": 25
    },
    {
      "t": 1647.1,
      "ch": 1,
      "note": 40,
      "vel": 106,
      "dur": 25
    },
    {
      "t": 1647.2,
      "ch": 6,
      "note": 56,
      "vel": 47,
      "dur": 517
    },
    {
      "t": 1647.2,
      "ch": 1,
      "note": 42,
      "vel": 100,
      "dur": 25
    },
    {
      "t": 1647.3,
      "ch": 1,
      "note": 36,
      "vel": 116,
      "dur": 25
    },
    {
      "t": 1647.3,
      "ch": 7,
      "note": 45,
      "vel": 59,
      "dur": 80
    },
    {
      "t": 1647.3,
      "ch": 7,
      "note": 36,
      "vel": 62,
      "dur": 80
    },
    {
      "t": 1647.3,
      "ch": 7,
      "note": 38,
      "vel": 70,
      "dur": 80
    },
    {
      "t": 1647.4,
      "ch": 1,
      "note": 38,
      "vel": 97,
      "dur": 25
    },
    {
      "t": 1647.5,
      "ch": 1,
      "note": 40,
      "vel": 105,
      "dur": 25
    },
    {
      "t": 1647.5,
      "ch": 1,
      "note": 42,
      "vel": 74,
      "dur": 25
    },
    {
      "t": 1647.6,
      "ch": 0,
      "note": 36,
      "vel": 93,
      "dur": 55
    },
    {
      "t": 1647.6,
      "ch": 1,
      "note": 36,
      "vel": 102,
      "dur": 25
    },
    {
      "t": 1647.6,
      "ch": 7,
      "note": 48,
      "vel": 68,
      "dur": 80
    },
    {
      "t": 1647.6,
      "ch": 7,
      "note": 36,
      "vel": 74,
      "dur": 80
    },
    {
      "t": 1647.7,
      "ch": 1,
      "note": 38,
      "vel": 101,
      "dur": 25
    },
    {
      "t": 1647.7,
      "ch": 1,
      "note": 40,
      "vel": 85,
      "dur": 25
    },
    {
      "t": 1647.8,
      "ch": 5,
      "note": 59,
      "vel": 46,
      "dur": 777
    },
    {
      "t": 1647.8,
      "ch": 1,
      "note": 42,
      "vel": 98,
      "dur": 25
    },
    {
      "t": 1647.9,
      "ch": 1,
      "note": 36,
      "vel": 109,
      "dur": 25
    },
    {
      "t": 1647.9,
      "ch": 6,
      "note": 58,
      "vel": 61,
      "dur": 518
    },
    {
      "t": 1648,
      "ch": 1,
      "note": 38,
      "vel": 85,
      "dur": 25
    },
    {
      "t": 1648.1,
      "ch": 1,
      "note": 40,
      "vel": 84,
      "dur": 25
    },
    {
      "t": 1648.1,
      "ch": 0,
      "note": 36,
      "vel": 68,
      "dur": 55
    },
    {
      "t": 1648.1,
      "ch": 1,
      "note": 42,
      "vel": 103,
      "dur": 25
    },
    {
      "t": 1648.2,
      "ch": 0,
      "note": 36,
      "vel": 108,
      "dur": 55
    },
    {
      "t": 1648.2,
      "ch": 1,
      "note": 36,
      "vel": 111,
      "dur": 25
    },
    {
      "t": 1648.2,
      "ch": 7,
      "note": 48,
      "vel": 61,
      "dur": 80
    },
    {
      "t": 1648.2,
      "ch": 7,
      "note": 45,
      "vel": 77,
      "dur": 80
    },
    {
      "t": 1648.2,
      "ch": 7,
      "note": 36,
      "vel": 68,
      "dur": 80
    },
    {
      "t": 1648.2,
      "ch": 7,
      "note": 38,
      "vel": 73,
      "dur": 80
    },
    {
      "t": 1648.2,
      "ch": 5,
      "note": 56,
      "vel": 44,
      "dur": 778
    },
    {
      "t": 1648.3,
      "ch": 1,
      "note": 38,
      "vel": 121,
      "dur": 25
    },
    {
      "t": 1648.3,
      "ch": 1,
      "note": 40,
      "vel": 86,
      "dur": 25
    },
    {
      "t": 1648.4,
      "ch": 6,
      "note": 59,
      "vel": 36,
      "dur": 519
    },
    {
      "t": 1648.4,
      "ch": 1,
      "note": 42,
      "vel": 89,
      "dur": 25
    },
    {
      "t": 1648.5,
      "ch": 1,
      "note": 36,
      "vel": 91,
      "dur": 25
    },
    {
      "t": 1648.5,
      "ch": 7,
      "note": 36,
      "vel": 48,
      "dur": 80
    },
    {
      "t": 1648.6,
      "ch": 1,
      "note": 38,
      "vel": 82,
      "dur": 25
    },
    {
      "t": 1648.6,
      "ch": 1,
      "note": 40,
      "vel": 94,
      "dur": 25
    },
    {
      "t": 1648.7,
      "ch": 1,
      "note": 42,
      "vel": 113,
      "dur": 25
    },
    {
      "t": 1648.8,
      "ch": 0,
      "note": 36,
      "vel": 95,
      "dur": 55
    },
    {
      "t": 1648.8,
      "ch": 1,
      "note": 36,
      "vel": 127,
      "dur": 25
    },
    {
      "t": 1648.8,
      "ch": 7,
      "note": 48,
      "vel": 64,
      "dur": 80
    },
    {
      "t": 1648.8,
      "ch": 7,
      "note": 36,
      "vel": 74,
      "dur": 80
    },
    {
      "t": 1648.9,
      "ch": 1,
      "note": 38,
      "vel": 112,
      "dur": 25
    },
    {
      "t": 1648.9,
      "ch": 1,
      "note": 40,
      "vel": 98,
      "dur": 25
    },
    {
      "t": 1649,
      "ch": 7,
      "note": 45,
      "vel": 56,
      "dur": 80
    },
    {
      "t": 1649,
      "ch": 7,
      "note": 38,
      "vel": 59,
      "dur": 80
    },
    {
      "t": 1649,
      "ch": 1,
      "note": 42,
      "vel": 107,
      "dur": 25
    },
    {
      "t": 1649.1,
      "ch": 1,
      "note": 36,
      "vel": 104,
      "dur": 25
    },
    {
      "t": 1649.2,
      "ch": 1,
      "note": 38,
      "vel": 106,
      "dur": 25
    },
    {
      "t": 1649.2,
      "ch": 1,
      "note": 40,
      "vel": 96,
      "dur": 25
    },
    {
      "t": 1649.3,
      "ch": 1,
      "note": 42,
      "vel": 102,
      "dur": 25
    },
    {
      "t": 1649.4,
      "ch": 0,
      "note": 36,
      "vel": 98,
      "dur": 55
    },
    {
      "t": 1649.4,
      "ch": 1,
      "note": 36,
      "vel": 85,
      "dur": 25
    },
    {
      "t": 1649.4,
      "ch": 7,
      "note": 48,
      "vel": 79,
      "dur": 80
    },
    {
      "t": 1649.4,
      "ch": 7,
      "note": 36,
      "vel": 78,
      "dur": 80
    },
    {
      "t": 1649.4,
      "ch": 5,
      "note": 54,
      "vel": 52,
      "dur": 782
    },
    {
      "t": 1649.5,
      "ch": 1,
      "note": 38,
      "vel": 115,
      "dur": 25
    },
    {
      "t": 1649.5,
      "ch": 1,
      "note": 40,
      "vel": 89,
      "dur": 25
    },
    {
      "t": 1649.6,
      "ch": 1,
      "note": 42,
      "vel": 92,
      "dur": 25
    },
    {
      "t": 1649.7,
      "ch": 1,
      "note": 36,
      "vel": 82,
      "dur": 25
    },
    {
      "t": 1649.7,
      "ch": 7,
      "note": 36,
      "vel": 64,
      "dur": 80
    },
    {
      "t": 1649.7,
      "ch": 7,
      "note": 38,
      "vel": 71,
      "dur": 80
    },
    {
      "t": 1649.7,
      "ch": 7,
      "note": 45,
      "vel": 66,
      "dur": 80
    },
    {
      "t": 1649.8,
      "ch": 1,
      "note": 38,
      "vel": 99,
      "dur": 25
    },
    {
      "t": 1649.8,
      "ch": 1,
      "note": 40,
      "vel": 96,
      "dur": 25
    },
    {
      "t": 1649.9,
      "ch": 6,
      "note": 54,
      "vel": 46,
      "dur": 523
    },
    {
      "t": 1649.9,
      "ch": 1,
      "note": 42,
      "vel": 85,
      "dur": 25
    },
    {
      "t": 1650,
      "ch": 0,
      "note": 36,
      "vel": 99,
      "dur": 55
    },
    {
      "t": 1650,
      "ch": 1,
      "note": 36,
      "vel": 97,
      "dur": 25
    },
    {
      "t": 1650,
      "ch": 7,
      "note": 48,
      "vel": 49,
      "dur": 80
    },
    {
      "t": 1650,
      "ch": 7,
      "note": 36,
      "vel": 88,
      "dur": 80
    },
    {
      "t": 1650.1,
      "ch": 1,
      "note": 38,
      "vel": 104,
      "dur": 25
    },
    {
      "t": 1650.1,
      "ch": 1,
      "note": 40,
      "vel": 102,
      "dur": 25
    },
    {
      "t": 1650.2,
      "ch": 1,
      "note": 42,
      "vel": 93,
      "dur": 25
    },
    {
      "t": 1650.3,
      "ch": 1,
      "note": 36,
      "vel": 99,
      "dur": 25
    },
    {
      "t": 1650.4,
      "ch": 1,
      "note": 38,
      "vel": 118,
      "dur": 25
    },
    {
      "t": 1650.5,
      "ch": 1,
      "note": 40,
      "vel": 102,
      "dur": 25
    },
    {
      "t": 1650.5,
      "ch": 1,
      "note": 42,
      "vel": 94,
      "dur": 25
    },
    {
      "t": 1650.6,
      "ch": 0,
      "note": 36,
      "vel": 112,
      "dur": 55
    },
    {
      "t": 1650.6,
      "ch": 1,
      "note": 36,
      "vel": 96,
      "dur": 25
    },
    {
      "t": 1650.6,
      "ch": 7,
      "note": 48,
      "vel": 64,
      "dur": 80
    },
    {
      "t": 1650.6,
      "ch": 7,
      "note": 45,
      "vel": 58,
      "dur": 80
    },
    {
      "t": 1650.6,
      "ch": 7,
      "note": 36,
      "vel": 71,
      "dur": 80
    },
    {
      "t": 1650.6,
      "ch": 7,
      "note": 38,
      "vel": 79,
      "dur": 80
    },
    {
      "t": 1650.7,
      "ch": 1,
      "note": 38,
      "vel": 106,
      "dur": 25
    },
    {
      "t": 1650.7,
      "ch": 1,
      "note": 40,
      "vel": 106,
      "dur": 25
    },
    {
      "t": 1650.8,
      "ch": 1,
      "note": 42,
      "vel": 102,
      "dur": 25
    },
    {
      "t": 1650.9,
      "ch": 1,
      "note": 36,
      "vel": 120,
      "dur": 25
    },
    {
      "t": 1650.9,
      "ch": 7,
      "note": 36,
      "vel": 65,
      "dur": 80
    },
    {
      "t": 1651,
      "ch": 1,
      "note": 38,
      "vel": 111,
      "dur": 25
    },
    {
      "t": 1651,
      "ch": 1,
      "note": 40,
      "vel": 86,
      "dur": 25
    },
    {
      "t": 1651.1,
      "ch": 1,
      "note": 42,
      "vel": 83,
      "dur": 25
    },
    {
      "t": 1651.2,
      "ch": 0,
      "note": 36,
      "vel": 89,
      "dur": 55
    },
    {
      "t": 1651.2,
      "ch": 1,
      "note": 36,
      "vel": 126,
      "dur": 25
    },
    {
      "t": 1651.2,
      "ch": 7,
      "note": 48,
      "vel": 75,
      "dur": 80
    },
    {
      "t": 1651.2,
      "ch": 7,
      "note": 36,
      "vel": 59,
      "dur": 80
    },
    {
      "t": 1651.2,
      "ch": 5,
      "note": 56,
      "vel": 47,
      "dur": 792
    },
    {
      "t": 1651.3,
      "ch": 1,
      "note": 38,
      "vel": 106,
      "dur": 25
    },
    {
      "t": 1651.3,
      "ch": 1,
      "note": 40,
      "vel": 107,
      "dur": 25
    },
    {
      "t": 1651.4,
      "ch": 7,
      "note": 45,
      "vel": 63,
      "dur": 80
    },
    {
      "t": 1651.4,
      "ch": 7,
      "note": 38,
      "vel": 63,
      "dur": 80
    },
    {
      "t": 1651.4,
      "ch": 6,
      "note": 54,
      "vel": 37,
      "dur": 529
    },
    {
      "t": 1651.4,
      "ch": 1,
      "note": 42,
      "vel": 87,
      "dur": 25
    },
    {
      "t": 1651.5,
      "ch": 1,
      "note": 36,
      "vel": 111,
      "dur": 25
    },
    {
      "t": 1651.6,
      "ch": 1,
      "note": 38,
      "vel": 108,
      "dur": 25
    },
    {
      "t": 1651.7,
      "ch": 1,
      "note": 40,
      "vel": 86,
      "dur": 25
    },
    {
      "t": 1651.7,
      "ch": 5,
      "note": 59,
      "vel": 50,
      "dur": 795
    },
    {
      "t": 1651.7,
      "ch": 1,
      "note": 42,
      "vel": 101,
      "dur": 25
    },
    {
      "t": 1651.8,
      "ch": 0,
      "note": 36,
      "vel": 92,
      "dur": 55
    },
    {
      "t": 1651.8,
      "ch": 1,
      "note": 36,
      "vel": 101,
      "dur": 25
    },
    {
      "t": 1651.8,
      "ch": 7,
      "note": 48,
      "vel": 65,
      "dur": 80
    },
    {
      "t": 1651.8,
      "ch": 7,
      "note": 36,
      "vel": 66,
      "dur": 80
    },
    {
      "t": 1651.9,
      "ch": 1,
      "note": 38,
      "vel": 122,
      "dur": 25
    },
    {
      "t": 1651.9,
      "ch": 1,
      "note": 40,
      "vel": 111,
      "dur": 25
    },
    {
      "t": 1652,
      "ch": 1,
      "note": 42,
      "vel": 93,
      "dur": 25
    },
    {
      "t": 1652.1,
      "ch": 1,
      "note": 36,
      "vel": 115,
      "dur": 25
    },
    {
      "t": 1652.1,
      "ch": 7,
      "note": 36,
      "vel": 53,
      "dur": 80
    },
    {
      "t": 1652.1,
      "ch": 7,
      "note": 45,
      "vel": 55,
      "dur": 80
    },
    {
      "t": 1652.1,
      "ch": 7,
      "note": 38,
      "vel": 76,
      "dur": 80
    },
    {
      "t": 1652.2,
      "ch": 1,
      "note": 38,
      "vel": 114,
      "dur": 25
    },
    {
      "t": 1652.2,
      "ch": 1,
      "note": 40,
      "vel": 105,
      "dur": 25
    },
    {
      "t": 1652.3,
      "ch": 5,
      "note": 63,
      "vel": 69,
      "dur": 798
    },
    {
      "t": 1652.3,
      "ch": 1,
      "note": 42,
      "vel": 92,
      "dur": 25
    },
    {
      "t": 1652.4,
      "ch": 0,
      "note": 36,
      "vel": 95,
      "dur": 55
    },
    {
      "t": 1652.4,
      "ch": 1,
      "note": 36,
      "vel": 96,
      "dur": 25
    },
    {
      "t": 1652.4,
      "ch": 7,
      "note": 48,
      "vel": 73,
      "dur": 80
    },
    {
      "t": 1652.4,
      "ch": 7,
      "note": 36,
      "vel": 71,
      "dur": 80
    },
    {
      "t": 1652.4,
      "ch": 5,
      "note": 58,
      "vel": 61,
      "dur": 799
    },
    {
      "t": 1652.5,
      "ch": 1,
      "note": 38,
      "vel": 112,
      "dur": 25
    },
    {
      "t": 1652.5,
      "ch": 1,
      "note": 40,
      "vel": 100,
      "dur": 25
    },
    {
      "t": 1652.6,
      "ch": 1,
      "note": 42,
      "vel": 97,
      "dur": 25
    },
    {
      "t": 1652.7,
      "ch": 1,
      "note": 36,
      "vel": 118,
      "dur": 25
    },
    {
      "t": 1652.8,
      "ch": 1,
      "note": 38,
      "vel": 90,
      "dur": 25
    },
    {
      "t": 1652.8,
      "ch": 1,
      "note": 40,
      "vel": 93,
      "dur": 25
    },
    {
      "t": 1652.9,
      "ch": 1,
      "note": 42,
      "vel": 109,
      "dur": 25
    },
    {
      "t": 1653,
      "ch": 1,
      "note": 36,
      "vel": 102,
      "dur": 25
    },
    {
      "t": 1653,
      "ch": 7,
      "note": 48,
      "vel": 77,
      "dur": 80
    },
    {
      "t": 1653,
      "ch": 7,
      "note": 45,
      "vel": 65,
      "dur": 80
    },
    {
      "t": 1653,
      "ch": 7,
      "note": 36,
      "vel": 72,
      "dur": 80
    },
    {
      "t": 1653,
      "ch": 7,
      "note": 38,
      "vel": 70,
      "dur": 80
    },
    {
      "t": 1653.1,
      "ch": 1,
      "note": 38,
      "vel": 113,
      "dur": 25
    },
    {
      "t": 1653.1,
      "ch": 1,
      "note": 40,
      "vel": 115,
      "dur": 25
    },
    {
      "t": 1653.2,
      "ch": 6,
      "note": 61,
      "vel": 46,
      "dur": 536
    },
    {
      "t": 1653.2,
      "ch": 1,
      "note": 42,
      "vel": 79,
      "dur": 25
    },
    {
      "t": 1653.3,
      "ch": 1,
      "note": 36,
      "vel": 87,
      "dur": 25
    },
    {
      "t": 1653.3,
      "ch": 7,
      "note": 36,
      "vel": 58,
      "dur": 80
    },
    {
      "t": 1653.4,
      "ch": 1,
      "note": 38,
      "vel": 94,
      "dur": 25
    },
    {
      "t": 1653.5,
      "ch": 1,
      "note": 40,
      "vel": 97,
      "dur": 25
    },
    {
      "t": 1653.5,
      "ch": 1,
      "note": 42,
      "vel": 107,
      "dur": 25
    },
    {
      "t": 1653.6,
      "ch": 1,
      "note": 36,
      "vel": 112,
      "dur": 25
    },
    {
      "t": 1653.6,
      "ch": 7,
      "note": 48,
      "vel": 81,
      "dur": 80
    },
    {
      "t": 1653.6,
      "ch": 7,
      "note": 36,
      "vel": 81,
      "dur": 80
    },
    {
      "t": 1653.6,
      "ch": 5,
      "note": 56,
      "vel": 68,
      "dur": 806
    },
    {
      "t": 1653.7,
      "ch": 1,
      "note": 38,
      "vel": 100,
      "dur": 25
    },
    {
      "t": 1653.7,
      "ch": 1,
      "note": 40,
      "vel": 84,
      "dur": 25
    },
    {
      "t": 1653.8,
      "ch": 7,
      "note": 45,
      "vel": 57,
      "dur": 80
    },
    {
      "t": 1653.8,
      "ch": 7,
      "note": 38,
      "vel": 54,
      "dur": 80
    },
    {
      "t": 1653.8,
      "ch": 6,
      "note": 63,
      "vel": 32,
      "dur": 538
    },
    {
      "t": 1653.8,
      "ch": 1,
      "note": 42,
      "vel": 78,
      "dur": 25
    },
    {
      "t": 1653.9,
      "ch": 1,
      "note": 36,
      "vel": 112,
      "dur": 25
    },
    {
      "t": 1654,
      "ch": 1,
      "note": 38,
      "vel": 82,
      "dur": 25
    },
    {
      "t": 1654.1,
      "ch": 1,
      "note": 40,
      "vel": 96,
      "dur": 25
    },
    {
      "t": 1654.1,
      "ch": 6,
      "note": 66,
      "vel": 30,
      "dur": 539
    },
    {
      "t": 1654.1,
      "ch": 4,
      "note": 58,
      "vel": 88,
      "dur": 2350
    },
    {
      "t": 1654.1,
      "ch": 1,
      "note": 42,
      "vel": 108,
      "dur": 25
    },
    {
      "t": 1654.2,
      "ch": 1,
      "note": 36,
      "vel": 102,
      "dur": 25
    },
    {
      "t": 1654.2,
      "ch": 7,
      "note": 48,
      "vel": 70,
      "dur": 80
    },
    {
      "t": 1654.2,
      "ch": 7,
      "note": 36,
      "vel": 69,
      "dur": 80
    },
    {
      "t": 1654.2,
      "ch": 6,
      "note": 52,
      "vel": 43,
      "dur": 539
    },
    {
      "t": 1654.3,
      "ch": 1,
      "note": 38,
      "vel": 90,
      "dur": 25
    },
    {
      "t": 1654.4,
      "ch": 1,
      "note": 40,
      "vel": 77,
      "dur": 25
    },
    {
      "t": 1654.4,
      "ch": 1,
      "note": 42,
      "vel": 86,
      "dur": 25
    },
    {
      "t": 1654.5,
      "ch": 1,
      "note": 36,
      "vel": 111,
      "dur": 25
    },
    {
      "t": 1654.5,
      "ch": 7,
      "note": 36,
      "vel": 62,
      "dur": 80
    },
    {
      "t": 1654.5,
      "ch": 7,
      "note": 38,
      "vel": 62,
      "dur": 80
    },
    {
      "t": 1654.5,
      "ch": 7,
      "note": 45,
      "vel": 60,
      "dur": 80
    },
    {
      "t": 1654.6,
      "ch": 1,
      "note": 38,
      "vel": 76,
      "dur": 25
    },
    {
      "t": 1654.7,
      "ch": 1,
      "note": 40,
      "vel": 107,
      "dur": 25
    },
    {
      "t": 1654.7,
      "ch": 1,
      "note": 42,
      "vel": 98,
      "dur": 25
    },
    {
      "t": 1654.8,
      "ch": 1,
      "note": 36,
      "vel": 118,
      "dur": 25
    },
    {
      "t": 1654.8,
      "ch": 7,
      "note": 48,
      "vel": 78,
      "dur": 80
    },
    {
      "t": 1654.8,
      "ch": 7,
      "note": 36,
      "vel": 80,
      "dur": 80
    },
    {
      "t": 1654.9,
      "ch": 1,
      "note": 38,
      "vel": 103,
      "dur": 25
    },
    {
      "t": 1655,
      "ch": 1,
      "note": 40,
      "vel": 83,
      "dur": 25
    },
    {
      "t": 1655,
      "ch": 1,
      "note": 42,
      "vel": 79,
      "dur": 25
    },
    {
      "t": 1655.1,
      "ch": 1,
      "note": 36,
      "vel": 91,
      "dur": 25
    },
    {
      "t": 1655.2,
      "ch": 1,
      "note": 38,
      "vel": 101,
      "dur": 25
    },
    {
      "t": 1655.3,
      "ch": 1,
      "note": 40,
      "vel": 90,
      "dur": 25
    },
    {
      "t": 1655.3,
      "ch": 1,
      "note": 42,
      "vel": 103,
      "dur": 25
    },
    {
      "t": 1655.4,
      "ch": 1,
      "note": 36,
      "vel": 84,
      "dur": 25
    },
    {
      "t": 1655.4,
      "ch": 7,
      "note": 48,
      "vel": 78,
      "dur": 80
    },
    {
      "t": 1655.4,
      "ch": 7,
      "note": 45,
      "vel": 66,
      "dur": 80
    },
    {
      "t": 1655.4,
      "ch": 7,
      "note": 36,
      "vel": 74,
      "dur": 80
    },
    {
      "t": 1655.4,
      "ch": 7,
      "note": 38,
      "vel": 65,
      "dur": 80
    },
    {
      "t": 1655.5,
      "ch": 1,
      "note": 38,
      "vel": 86,
      "dur": 25
    },
    {
      "t": 1655.5,
      "ch": 1,
      "note": 40,
      "vel": 85,
      "dur": 25
    },
    {
      "t": 1655.6,
      "ch": 5,
      "note": 73,
      "vel": 39,
      "dur": 815
    },
    {
      "t": 1655.6,
      "ch": 1,
      "note": 42,
      "vel": 85,
      "dur": 25
    },
    {
      "t": 1655.7,
      "ch": 1,
      "note": 36,
      "vel": 83,
      "dur": 25
    },
    {
      "t": 1655.7,
      "ch": 7,
      "note": 36,
      "vel": 76,
      "dur": 80
    },
    {
      "t": 1655.8,
      "ch": 1,
      "note": 38,
      "vel": 81,
      "dur": 25
    },
    {
      "t": 1655.9,
      "ch": 1,
      "note": 40,
      "vel": 73,
      "dur": 25
    },
    {
      "t": 1655.9,
      "ch": 1,
      "note": 42,
      "vel": 111,
      "dur": 25
    },
    {
      "t": 1656,
      "ch": 6,
      "note": 73,
      "vel": 26,
      "dur": 400
    },
    {
      "t": 1656,
      "ch": 1,
      "note": 36,
      "vel": 98,
      "dur": 25
    },
    {
      "t": 1656,
      "ch": 7,
      "note": 48,
      "vel": 75,
      "dur": 80
    },
    {
      "t": 1656,
      "ch": 7,
      "note": 36,
      "vel": 77,
      "dur": 80
    },
    {
      "t": 1656.1,
      "ch": 1,
      "note": 38,
      "vel": 79,
      "dur": 25
    },
    {
      "t": 1656.1,
      "ch": 1,
      "note": 40,
      "vel": 89,
      "dur": 25
    },
    {
      "t": 1656.2,
      "ch": 7,
      "note": 45,
      "vel": 57,
      "dur": 80
    },
    {
      "t": 1656.2,
      "ch": 7,
      "note": 38,
      "vel": 51,
      "dur": 80
    },
    {
      "t": 1656.2,
      "ch": 1,
      "note": 42,
      "vel": 71,
      "dur": 25
    },
    {
      "t": 1656.3,
      "ch": 1,
      "note": 36,
      "vel": 69,
      "dur": 25
    },
    {
      "t": 1656.4,
      "ch": 1,
      "note": 38,
      "vel": 80,
      "dur": 25
    },
    {
      "t": 1656.5,
      "ch": 1,
      "note": 40,
      "vel": 104,
      "dur": 25
    },
    {
      "t": 1656.5,
      "ch": 2,
      "note": 49,
      "vel": 62,
      "dur": 18000
    },
    {
      "t": 1656.5,
      "ch": 2,
      "note": 61,
      "vel": 43,
      "dur": 18000
    },
    {
      "t": 1656.5,
      "ch": 4,
      "note": 58,
      "vel": 85,
      "dur": 2350
    },
    {
      "t": 1656.5,
      "ch": 1,
      "note": 42,
      "vel": 108,
      "dur": 25
    },
    {
      "t": 1656.6,
      "ch": 1,
      "note": 36,
      "vel": 80,
      "dur": 25
    },
    {
      "t": 1656.6,
      "ch": 7,
      "note": 48,
      "vel": 67,
      "dur": 80
    },
    {
      "t": 1656.6,
      "ch": 7,
      "note": 36,
      "vel": 69,
      "dur": 80
    },
    {
      "t": 1656.6,
      "ch": 5,
      "note": 59,
      "vel": 65,
      "dur": 817
    },
    {
      "t": 1656.7,
      "ch": 1,
      "note": 38,
      "vel": 104,
      "dur": 25
    },
    {
      "t": 1656.7,
      "ch": 1,
      "note": 40,
      "vel": 102,
      "dur": 25
    },
    {
      "t": 1656.8,
      "ch": 1,
      "note": 42,
      "vel": 90,
      "dur": 25
    },
    {
      "t": 1656.9,
      "ch": 6,
      "note": 61,
      "vel": 42,
      "dur": 400
    },
    {
      "t": 1656.9,
      "ch": 1,
      "note": 36,
      "vel": 78,
      "dur": 25
    },
    {
      "t": 1656.9,
      "ch": 7,
      "note": 36,
      "vel": 56,
      "dur": 80
    },
    {
      "t": 1656.9,
      "ch": 7,
      "note": 45,
      "vel": 70,
      "dur": 80
    },
    {
      "t": 1656.9,
      "ch": 7,
      "note": 38,
      "vel": 57,
      "dur": 80
    },
    {
      "t": 1657,
      "ch": 1,
      "note": 38,
      "vel": 118,
      "dur": 25
    },
    {
      "t": 1657,
      "ch": 1,
      "note": 40,
      "vel": 102,
      "dur": 25
    },
    {
      "t": 1657.1,
      "ch": 1,
      "note": 42,
      "vel": 104,
      "dur": 25
    },
    {
      "t": 1657.2,
      "ch": 1,
      "note": 36,
      "vel": 110,
      "dur": 25
    },
    {
      "t": 1657.2,
      "ch": 7,
      "note": 48,
      "vel": 76,
      "dur": 80
    },
    {
      "t": 1657.2,
      "ch": 7,
      "note": 36,
      "vel": 85,
      "dur": 80
    },
    {
      "t": 1657.3,
      "ch": 1,
      "note": 38,
      "vel": 102,
      "dur": 25
    },
    {
      "t": 1657.4,
      "ch": 1,
      "note": 40,
      "vel": 71,
      "dur": 25
    },
    {
      "t": 1657.4,
      "ch": 5,
      "note": 59,
      "vel": 42,
      "dur": 818
    },
    {
      "t": 1657.4,
      "ch": 6,
      "note": 61,
      "vel": 23,
      "dur": 545
    },
    {
      "t": 1657.4,
      "ch": 1,
      "note": 42,
      "vel": 91,
      "dur": 25
    },
    {
      "t": 1657.5,
      "ch": 1,
      "note": 36,
      "vel": 88,
      "dur": 25
    },
    {
      "t": 1657.6,
      "ch": 1,
      "note": 38,
      "vel": 86,
      "dur": 25
    },
    {
      "t": 1657.6,
      "ch": 1,
      "note": 40,
      "vel": 97,
      "dur": 25
    },
    {
      "t": 1657.7,
      "ch": 1,
      "note": 42,
      "vel": 92,
      "dur": 25
    },
    {
      "t": 1657.8,
      "ch": 1,
      "note": 36,
      "vel": 93,
      "dur": 25
    },
    {
      "t": 1657.8,
      "ch": 7,
      "note": 48,
      "vel": 68,
      "dur": 80
    },
    {
      "t": 1657.8,
      "ch": 7,
      "note": 45,
      "vel": 73,
      "dur": 80
    },
    {
      "t": 1657.8,
      "ch": 7,
      "note": 36,
      "vel": 71,
      "dur": 80
    },
    {
      "t": 1657.8,
      "ch": 7,
      "note": 38,
      "vel": 74,
      "dur": 80
    },
    {
      "t": 1657.9,
      "ch": 1,
      "note": 38,
      "vel": 111,
      "dur": 25
    },
    {
      "t": 1658,
      "ch": 1,
      "note": 40,
      "vel": 90,
      "dur": 25
    },
    {
      "t": 1658,
      "ch": 6,
      "note": 63,
      "vel": 24,
      "dur": 545
    },
    {
      "t": 1658,
      "ch": 1,
      "note": 42,
      "vel": 102,
      "dur": 25
    },
    {
      "t": 1658.1,
      "ch": 1,
      "note": 36,
      "vel": 93,
      "dur": 25
    },
    {
      "t": 1658.1,
      "ch": 7,
      "note": 36,
      "vel": 62,
      "dur": 80
    },
    {
      "t": 1658.2,
      "ch": 1,
      "note": 38,
      "vel": 86,
      "dur": 25
    },
    {
      "t": 1658.3,
      "ch": 1,
      "note": 40,
      "vel": 96,
      "dur": 25
    },
    {
      "t": 1658.3,
      "ch": 6,
      "note": 63,
      "vel": 21,
      "dur": 545
    },
    {
      "t": 1658.3,
      "ch": 1,
      "note": 42,
      "vel": 65,
      "dur": 25
    },
    {
      "t": 1658.4,
      "ch": 1,
      "note": 36,
      "vel": 92,
      "dur": 25
    },
    {
      "t": 1658.4,
      "ch": 7,
      "note": 48,
      "vel": 69,
      "dur": 80
    },
    {
      "t": 1658.4,
      "ch": 7,
      "note": 36,
      "vel": 69,
      "dur": 80
    },
    {
      "t": 1658.5,
      "ch": 1,
      "note": 38,
      "vel": 107,
      "dur": 25
    },
    {
      "t": 1658.6,
      "ch": 1,
      "note": 40,
      "vel": 99,
      "dur": 25
    },
    {
      "t": 1658.6,
      "ch": 7,
      "note": 45,
      "vel": 61,
      "dur": 80
    },
    {
      "t": 1658.6,
      "ch": 7,
      "note": 38,
      "vel": 54,
      "dur": 80
    },
    {
      "t": 1658.6,
      "ch": 1,
      "note": 42,
      "vel": 92,
      "dur": 25
    },
    {
      "t": 1658.7,
      "ch": 1,
      "note": 36,
      "vel": 77,
      "dur": 25
    },
    {
      "t": 1658.7,
      "ch": 5,
      "note": 63,
      "vel": 72,
      "dur": 817
    },
    {
      "t": 1658.8,
      "ch": 1,
      "note": 38,
      "vel": 89,
      "dur": 25
    },
    {
      "t": 1658.8,
      "ch": 1,
      "note": 40,
      "vel": 95,
      "dur": 25
    },
    {
      "t": 1658.9,
      "ch": 6,
      "note": 66,
      "vel": 32,
      "dur": 544
    },
    {
      "t": 1658.9,
      "ch": 4,
      "note": 59,
      "vel": 73,
      "dur": 2350
    },
    {
      "t": 1658.9,
      "ch": 1,
      "note": 42,
      "vel": 93,
      "dur": 25
    },
    {
      "t": 1659,
      "ch": 1,
      "note": 36,
      "vel": 91,
      "dur": 25
    },
    {
      "t": 1659,
      "ch": 7,
      "note": 48,
      "vel": 75,
      "dur": 80
    },
    {
      "t": 1659,
      "ch": 7,
      "note": 36,
      "vel": 63,
      "dur": 80
    },
    {
      "t": 1659,
      "ch": 6,
      "note": 59,
      "vel": 33,
      "dur": 544
    },
    {
      "t": 1659.1,
      "ch": 1,
      "note": 38,
      "vel": 121,
      "dur": 25
    },
    {
      "t": 1659.1,
      "ch": 1,
      "note": 40,
      "vel": 91,
      "dur": 25
    },
    {
      "t": 1659.2,
      "ch": 1,
      "note": 42,
      "vel": 82,
      "dur": 25
    },
    {
      "t": 1659.3,
      "ch": 1,
      "note": 36,
      "vel": 91,
      "dur": 25
    },
    {
      "t": 1659.3,
      "ch": 7,
      "note": 36,
      "vel": 64,
      "dur": 80
    },
    {
      "t": 1659.3,
      "ch": 7,
      "note": 45,
      "vel": 63,
      "dur": 80
    },
    {
      "t": 1659.3,
      "ch": 7,
      "note": 38,
      "vel": 66,
      "dur": 80
    },
    {
      "t": 1659.4,
      "ch": 1,
      "note": 38,
      "vel": 89,
      "dur": 25
    },
    {
      "t": 1659.4,
      "ch": 1,
      "note": 40,
      "vel": 99,
      "dur": 25
    },
    {
      "t": 1659.5,
      "ch": 1,
      "note": 42,
      "vel": 81,
      "dur": 25
    },
    {
      "t": 1659.6,
      "ch": 1,
      "note": 36,
      "vel": 91,
      "dur": 25
    },
    {
      "t": 1659.6,
      "ch": 7,
      "note": 48,
      "vel": 70,
      "dur": 80
    },
    {
      "t": 1659.6,
      "ch": 7,
      "note": 36,
      "vel": 71,
      "dur": 80
    },
    {
      "t": 1659.7,
      "ch": 1,
      "note": 38,
      "vel": 103,
      "dur": 25
    },
    {
      "t": 1659.7,
      "ch": 1,
      "note": 40,
      "vel": 76,
      "dur": 25
    },
    {
      "t": 1659.8,
      "ch": 1,
      "note": 42,
      "vel": 81,
      "dur": 25
    },
    {
      "t": 1659.9,
      "ch": 1,
      "note": 36,
      "vel": 101,
      "dur": 25
    },
    {
      "t": 1659.9,
      "ch": 5,
      "note": 58,
      "vel": 74,
      "dur": 814
    },
    {
      "t": 1660,
      "ch": 1,
      "note": 38,
      "vel": 104,
      "dur": 25
    },
    {
      "t": 1660,
      "ch": 1,
      "note": 40,
      "vel": 83,
      "dur": 25
    },
    {
      "t": 1660.1,
      "ch": 1,
      "note": 42,
      "vel": 83,
      "dur": 25
    },
    {
      "t": 1660.2,
      "ch": 0,
      "note": 36,
      "vel": 127,
      "dur": 55
    },
    {
      "t": 1660.2,
      "ch": 1,
      "note": 36,
      "vel": 89,
      "dur": 25
    },
    {
      "t": 1660.2,
      "ch": 7,
      "note": 48,
      "vel": 59,
      "dur": 80
    },
    {
      "t": 1660.2,
      "ch": 7,
      "note": 45,
      "vel": 77,
      "dur": 80
    },
    {
      "t": 1660.2,
      "ch": 7,
      "note": 36,
      "vel": 72,
      "dur": 80
    },
    {
      "t": 1660.2,
      "ch": 7,
      "note": 38,
      "vel": 73,
      "dur": 80
    },
    {
      "t": 1660.2,
      "ch": 5,
      "note": 56,
      "vel": 61,
      "dur": 812
    },
    {
      "t": 1660.3,
      "ch": 1,
      "note": 38,
      "vel": 88,
      "dur": 25
    },
    {
      "t": 1660.3,
      "ch": 1,
      "note": 40,
      "vel": 106,
      "dur": 25
    },
    {
      "t": 1660.4,
      "ch": 5,
      "note": 73,
      "vel": 53,
      "dur": 812
    },
    {
      "t": 1660.4,
      "ch": 1,
      "note": 42,
      "vel": 89,
      "dur": 25
    },
    {
      "t": 1660.5,
      "ch": 1,
      "note": 36,
      "vel": 102,
      "dur": 25
    },
    {
      "t": 1660.5,
      "ch": 7,
      "note": 36,
      "vel": 55,
      "dur": 80
    },
    {
      "t": 1660.5,
      "ch": 5,
      "note": 59,
      "vel": 51,
      "dur": 811
    },
    {
      "t": 1660.5,
      "ch": 6,
      "note": 59,
      "vel": 24,
      "dur": 400
    },
    {
      "t": 1660.6,
      "ch": 1,
      "note": 38,
      "vel": 77,
      "dur": 25
    },
    {
      "t": 1660.6,
      "ch": 1,
      "note": 40,
      "vel": 93,
      "dur": 25
    },
    {
      "t": 1660.7,
      "ch": 6,
      "note": 73,
      "vel": 26,
      "dur": 540
    },
    {
      "t": 1660.7,
      "ch": 1,
      "note": 42,
      "vel": 101,
      "dur": 25
    },
    {
      "t": 1660.8,
      "ch": 0,
      "note": 36,
      "vel": 99,
      "dur": 55
    },
    {
      "t": 1660.8,
      "ch": 1,
      "note": 36,
      "vel": 107,
      "dur": 25
    },
    {
      "t": 1660.8,
      "ch": 7,
      "note": 48,
      "vel": 67,
      "dur": 80
    },
    {
      "t": 1660.8,
      "ch": 7,
      "note": 36,
      "vel": 77,
      "dur": 80
    },
    {
      "t": 1660.9,
      "ch": 1,
      "note": 38,
      "vel": 105,
      "dur": 25
    },
    {
      "t": 1660.9,
      "ch": 1,
      "note": 40,
      "vel": 71,
      "dur": 25
    },
    {
      "t": 1661,
      "ch": 6,
      "note": 58,
      "vel": 44,
      "dur": 539
    },
    {
      "t": 1661,
      "ch": 7,
      "note": 38,
      "vel": 64,
      "dur": 80
    },
    {
      "t": 1661,
      "ch": 7,
      "note": 45,
      "vel": 56,
      "dur": 80
    },
    {
      "t": 1661,
      "ch": 5,
      "note": 54,
      "vel": 61,
      "dur": 809
    },
    {
      "t": 1661,
      "ch": 1,
      "note": 42,
      "vel": 87,
      "dur": 25
    },
    {
      "t": 1661.1,
      "ch": 1,
      "note": 36,
      "vel": 72,
      "dur": 25
    },
    {
      "t": 1661.2,
      "ch": 1,
      "note": 38,
      "vel": 104,
      "dur": 25
    },
    {
      "t": 1661.2,
      "ch": 1,
      "note": 40,
      "vel": 82,
      "dur": 25
    },
    {
      "t": 1661.3,
      "ch": 6,
      "note": 58,
      "vel": 64,
      "dur": 538
    },
    {
      "t": 1661.3,
      "ch": 4,
      "note": 59,
      "vel": 73,
      "dur": 2350
    },
    {
      "t": 1661.3,
      "ch": 3,
      "note": 42,
      "vel": 75,
      "dur": 2400
    },
    {
      "t": 1661.3,
      "ch": 1,
      "note": 42,
      "vel": 68,
      "dur": 25
    },
    {
      "t": 1661.4,
      "ch": 0,
      "note": 36,
      "vel": 85,
      "dur": 55
    },
    {
      "t": 1661.4,
      "ch": 1,
      "note": 36,
      "vel": 123,
      "dur": 25
    },
    {
      "t": 1661.4,
      "ch": 7,
      "note": 48,
      "vel": 59,
      "dur": 80
    },
    {
      "t": 1661.4,
      "ch": 7,
      "note": 36,
      "vel": 81,
      "dur": 80
    },
    {
      "t": 1661.5,
      "ch": 1,
      "note": 38,
      "vel": 110,
      "dur": 25
    },
    {
      "t": 1661.5,
      "ch": 1,
      "note": 40,
      "vel": 93,
      "dur": 25
    },
    {
      "t": 1661.6,
      "ch": 5,
      "note": 59,
      "vel": 60,
      "dur": 806
    },
    {
      "t": 1661.6,
      "ch": 1,
      "note": 42,
      "vel": 95,
      "dur": 25
    },
    {
      "t": 1661.7,
      "ch": 1,
      "note": 36,
      "vel": 102,
      "dur": 25
    },
    {
      "t": 1661.7,
      "ch": 7,
      "note": 45,
      "vel": 55,
      "dur": 80
    },
    {
      "t": 1661.7,
      "ch": 7,
      "note": 36,
      "vel": 67,
      "dur": 80
    },
    {
      "t": 1661.7,
      "ch": 7,
      "note": 38,
      "vel": 61,
      "dur": 80
    },
    {
      "t": 1661.8,
      "ch": 1,
      "note": 38,
      "vel": 102,
      "dur": 25
    },
    {
      "t": 1661.9,
      "ch": 1,
      "note": 40,
      "vel": 90,
      "dur": 25
    },
    {
      "t": 1661.9,
      "ch": 1,
      "note": 42,
      "vel": 70,
      "dur": 25
    },
    {
      "t": 1662,
      "ch": 0,
      "note": 36,
      "vel": 96,
      "dur": 55
    },
    {
      "t": 1662,
      "ch": 1,
      "note": 36,
      "vel": 127,
      "dur": 25
    },
    {
      "t": 1662,
      "ch": 7,
      "note": 48,
      "vel": 75,
      "dur": 80
    },
    {
      "t": 1662,
      "ch": 7,
      "note": 36,
      "vel": 70,
      "dur": 80
    },
    {
      "t": 1662,
      "ch": 5,
      "note": 49,
      "vel": 59,
      "dur": 803
    },
    {
      "t": 1662.1,
      "ch": 1,
      "note": 38,
      "vel": 108,
      "dur": 25
    },
    {
      "t": 1662.1,
      "ch": 1,
      "note": 40,
      "vel": 92,
      "dur": 25
    },
    {
      "t": 1662.2,
      "ch": 5,
      "note": 51,
      "vel": 51,
      "dur": 802
    },
    {
      "t": 1662.2,
      "ch": 1,
      "note": 42,
      "vel": 79,
      "dur": 25
    },
    {
      "t": 1662.3,
      "ch": 1,
      "note": 36,
      "vel": 79,
      "dur": 25
    },
    {
      "t": 1662.3,
      "ch": 5,
      "note": 49,
      "vel": 42,
      "dur": 801
    },
    {
      "t": 1662.3,
      "ch": 6,
      "note": 56,
      "vel": 20,
      "dur": 534
    },
    {
      "t": 1662.4,
      "ch": 1,
      "note": 38,
      "vel": 80,
      "dur": 25
    },
    {
      "t": 1662.4,
      "ch": 1,
      "note": 40,
      "vel": 82,
      "dur": 25
    },
    {
      "t": 1662.5,
      "ch": 1,
      "note": 42,
      "vel": 84,
      "dur": 25
    },
    {
      "t": 1662.6,
      "ch": 0,
      "note": 36,
      "vel": 119,
      "dur": 55
    },
    {
      "t": 1662.6,
      "ch": 1,
      "note": 36,
      "vel": 103,
      "dur": 25
    },
    {
      "t": 1662.6,
      "ch": 7,
      "note": 48,
      "vel": 66,
      "dur": 80
    },
    {
      "t": 1662.6,
      "ch": 7,
      "note": 45,
      "vel": 73,
      "dur": 80
    },
    {
      "t": 1662.6,
      "ch": 7,
      "note": 36,
      "vel": 70,
      "dur": 80
    },
    {
      "t": 1662.6,
      "ch": 7,
      "note": 38,
      "vel": 72,
      "dur": 80
    },
    {
      "t": 1662.7,
      "ch": 1,
      "note": 38,
      "vel": 92,
      "dur": 25
    },
    {
      "t": 1662.7,
      "ch": 6,
      "note": 54,
      "vel": 56,
      "dur": 400
    },
    {
      "t": 1662.8,
      "ch": 1,
      "note": 40,
      "vel": 89,
      "dur": 25
    },
    {
      "t": 1662.8,
      "ch": 1,
      "note": 42,
      "vel": 97,
      "dur": 25
    },
    {
      "t": 1662.9,
      "ch": 1,
      "note": 36,
      "vel": 86,
      "dur": 25
    },
    {
      "t": 1662.9,
      "ch": 7,
      "note": 36,
      "vel": 61,
      "dur": 80
    },
    {
      "t": 1663,
      "ch": 1,
      "note": 38,
      "vel": 97,
      "dur": 25
    },
    {
      "t": 1663,
      "ch": 1,
      "note": 40,
      "vel": 88,
      "dur": 25
    },
    {
      "t": 1663.1,
      "ch": 1,
      "note": 42,
      "vel": 103,
      "dur": 25
    },
    {
      "t": 1663.2,
      "ch": 0,
      "note": 36,
      "vel": 87,
      "dur": 55
    },
    {
      "t": 1663.2,
      "ch": 1,
      "note": 36,
      "vel": 83,
      "dur": 25
    },
    {
      "t": 1663.2,
      "ch": 7,
      "note": 48,
      "vel": 65,
      "dur": 80
    },
    {
      "t": 1663.2,
      "ch": 7,
      "note": 36,
      "vel": 68,
      "dur": 80
    },
    {
      "t": 1663.2,
      "ch": 5,
      "note": 54,
      "vel": 55,
      "dur": 796
    },
    {
      "t": 1663.3,
      "ch": 1,
      "note": 38,
      "vel": 117,
      "dur": 25
    },
    {
      "t": 1663.3,
      "ch": 1,
      "note": 40,
      "vel": 94,
      "dur": 25
    },
    {
      "t": 1663.4,
      "ch": 7,
      "note": 38,
      "vel": 64,
      "dur": 80
    },
    {
      "t": 1663.4,
      "ch": 7,
      "note": 45,
      "vel": 61,
      "dur": 80
    },
    {
      "t": 1663.4,
      "ch": 1,
      "note": 42,
      "vel": 85,
      "dur": 25
    },
    {
      "t": 1663.5,
      "ch": 1,
      "note": 36,
      "vel": 94,
      "dur": 25
    },
    {
      "t": 1663.5,
      "ch": 6,
      "note": 59,
      "vel": 26,
      "dur": 400
    },
    {
      "t": 1663.6,
      "ch": 1,
      "note": 38,
      "vel": 104,
      "dur": 25
    },
    {
      "t": 1663.6,
      "ch": 1,
      "note": 40,
      "vel": 94,
      "dur": 25
    },
    {
      "t": 1663.7,
      "ch": 5,
      "note": 54,
      "vel": 60,
      "dur": 793
    },
    {
      "t": 1663.7,
      "ch": 4,
      "note": 59,
      "vel": 76,
      "dur": 2350
    },
    {
      "t": 1663.7,
      "ch": 3,
      "note": 40,
      "vel": 77,
      "dur": 2400
    },
    {
      "t": 1663.7,
      "ch": 1,
      "note": 42,
      "vel": 91,
      "dur": 25
    },
    {
      "t": 1663.8,
      "ch": 0,
      "note": 36,
      "vel": 95,
      "dur": 55
    },
    {
      "t": 1663.8,
      "ch": 1,
      "note": 36,
      "vel": 109,
      "dur": 25
    },
    {
      "t": 1663.8,
      "ch": 7,
      "note": 48,
      "vel": 71,
      "dur": 80
    },
    {
      "t": 1663.8,
      "ch": 7,
      "note": 36,
      "vel": 74,
      "dur": 80
    },
    {
      "t": 1663.8,
      "ch": 5,
      "note": 59,
      "vel": 44,
      "dur": 792
    },
    {
      "t": 1663.9,
      "ch": 1,
      "note": 38,
      "vel": 99,
      "dur": 25
    },
    {
      "t": 1663.9,
      "ch": 1,
      "note": 40,
      "vel": 76,
      "dur": 25
    },
    {
      "t": 1664,
      "ch": 6,
      "note": 59,
      "vel": 26,
      "dur": 400
    },
    {
      "t": 1664,
      "ch": 1,
      "note": 42,
      "vel": 101,
      "dur": 25
    },
    {
      "t": 1664.1,
      "ch": 1,
      "note": 36,
      "vel": 75,
      "dur": 25
    },
    {
      "t": 1664.1,
      "ch": 7,
      "note": 45,
      "vel": 64,
      "dur": 80
    },
    {
      "t": 1664.1,
      "ch": 7,
      "note": 36,
      "vel": 62,
      "dur": 80
    },
    {
      "t": 1664.1,
      "ch": 7,
      "note": 38,
      "vel": 54,
      "dur": 80
    },
    {
      "t": 1664.2,
      "ch": 1,
      "note": 38,
      "vel": 109,
      "dur": 25
    },
    {
      "t": 1664.3,
      "ch": 1,
      "note": 40,
      "vel": 97,
      "dur": 25
    },
    {
      "t": 1664.3,
      "ch": 5,
      "note": 51,
      "vel": 52,
      "dur": 789
    },
    {
      "t": 1664.3,
      "ch": 6,
      "note": 61,
      "vel": 26,
      "dur": 526
    },
    {
      "t": 1664.3,
      "ch": 1,
      "note": 42,
      "vel": 86,
      "dur": 25
    },
    {
      "t": 1664.4,
      "ch": 0,
      "note": 36,
      "vel": 97,
      "dur": 55
    },
    {
      "t": 1664.4,
      "ch": 1,
      "note": 36,
      "vel": 112,
      "dur": 25
    },
    {
      "t": 1664.4,
      "ch": 7,
      "note": 48,
      "vel": 56,
      "dur": 80
    },
    {
      "t": 1664.4,
      "ch": 7,
      "note": 36,
      "vel": 71,
      "dur": 80
    },
    {
      "t": 1664.5,
      "ch": 1,
      "note": 38,
      "vel": 87,
      "dur": 25
    },
    {
      "t": 1664.5,
      "ch": 1,
      "note": 40,
      "vel": 89,
      "dur": 25
    },
    {
      "t": 1664.6,
      "ch": 6,
      "note": 52,
      "vel": 49,
      "dur": 525
    },
    {
      "t": 1664.6,
      "ch": 6,
      "note": 52,
      "vel": 26,
      "dur": 400
    },
    {
      "t": 1664.6,
      "ch": 1,
      "note": 42,
      "vel": 80,
      "dur": 25
    },
    {
      "t": 1664.7,
      "ch": 1,
      "note": 36,
      "vel": 97,
      "dur": 25
    },
    {
      "t": 1664.7,
      "ch": 6,
      "note": 52,
      "vel": 38,
      "dur": 524
    },
    {
      "t": 1664.8,
      "ch": 1,
      "note": 38,
      "vel": 102,
      "dur": 25
    },
    {
      "t": 1664.8,
      "ch": 1,
      "note": 40,
      "vel": 101,
      "dur": 25
    },
    {
      "t": 1664.9,
      "ch": 1,
      "note": 42,
      "vel": 89,
      "dur": 25
    },
    {
      "t": 1665,
      "ch": 0,
      "note": 36,
      "vel": 113,
      "dur": 55
    },
    {
      "t": 1665,
      "ch": 1,
      "note": 36,
      "vel": 109,
      "dur": 25
    },
    {
      "t": 1665,
      "ch": 7,
      "note": 48,
      "vel": 78,
      "dur": 80
    },
    {
      "t": 1665,
      "ch": 7,
      "note": 45,
      "vel": 71,
      "dur": 80
    },
    {
      "t": 1665,
      "ch": 7,
      "note": 36,
      "vel": 74,
      "dur": 80
    },
    {
      "t": 1665,
      "ch": 7,
      "note": 38,
      "vel": 77,
      "dur": 80
    },
    {
      "t": 1665.1,
      "ch": 1,
      "note": 38,
      "vel": 83,
      "dur": 25
    },
    {
      "t": 1665.1,
      "ch": 1,
      "note": 40,
      "vel": 90,
      "dur": 25
    },
    {
      "t": 1665.2,
      "ch": 1,
      "note": 42,
      "vel": 99,
      "dur": 25
    },
    {
      "t": 1665.3,
      "ch": 1,
      "note": 36,
      "vel": 91,
      "dur": 25
    },
    {
      "t": 1665.3,
      "ch": 7,
      "note": 36,
      "vel": 66,
      "dur": 80
    },
    {
      "t": 1665.3,
      "ch": 6,
      "note": 54,
      "vel": 40,
      "dur": 522
    },
    {
      "t": 1665.3,
      "ch": 5,
      "note": 51,
      "vel": 20,
      "dur": 783
    },
    {
      "t": 1665.4,
      "ch": 1,
      "note": 38,
      "vel": 90,
      "dur": 25
    },
    {
      "t": 1665.5,
      "ch": 1,
      "note": 40,
      "vel": 83,
      "dur": 25
    },
    {
      "t": 1665.5,
      "ch": 1,
      "note": 42,
      "vel": 81,
      "dur": 25
    },
    {
      "t": 1665.6,
      "ch": 0,
      "note": 36,
      "vel": 89,
      "dur": 55
    },
    {
      "t": 1665.6,
      "ch": 1,
      "note": 36,
      "vel": 102,
      "dur": 25
    },
    {
      "t": 1665.6,
      "ch": 7,
      "note": 48,
      "vel": 76,
      "dur": 80
    },
    {
      "t": 1665.6,
      "ch": 7,
      "note": 36,
      "vel": 74,
      "dur": 80
    },
    {
      "t": 1665.7,
      "ch": 1,
      "note": 38,
      "vel": 77,
      "dur": 25
    },
    {
      "t": 1665.7,
      "ch": 1,
      "note": 40,
      "vel": 101,
      "dur": 25
    },
    {
      "t": 1665.8,
      "ch": 7,
      "note": 45,
      "vel": 62,
      "dur": 80
    },
    {
      "t": 1665.8,
      "ch": 7,
      "note": 38,
      "vel": 46,
      "dur": 80
    },
    {
      "t": 1665.8,
      "ch": 1,
      "note": 42,
      "vel": 93,
      "dur": 25
    },
    {
      "t": 1665.9,
      "ch": 1,
      "note": 36,
      "vel": 96,
      "dur": 25
    },
    {
      "t": 1665.9,
      "ch": 5,
      "note": 49,
      "vel": 56,
      "dur": 780
    },
    {
      "t": 1665.9,
      "ch": 6,
      "note": 54,
      "vel": 53,
      "dur": 520
    },
    {
      "t": 1666,
      "ch": 1,
      "note": 38,
      "vel": 91,
      "dur": 25
    },
    {
      "t": 1666,
      "ch": 1,
      "note": 40,
      "vel": 101,
      "dur": 25
    },
    {
      "t": 1666.1,
      "ch": 2,
      "note": 49,
      "vel": 63,
      "dur": 18000
    },
    {
      "t": 1666.1,
      "ch": 2,
      "note": 61,
      "vel": 44,
      "dur": 18000
    },
    {
      "t": 1666.1,
      "ch": 4,
      "note": 58,
      "vel": 91,
      "dur": 2350
    },
    {
      "t": 1666.1,
      "ch": 3,
      "note": 35,
      "vel": 80,
      "dur": 2400
    },
    {
      "t": 1666.1,
      "ch": 1,
      "note": 42,
      "vel": 99,
      "dur": 25
    },
    {
      "t": 1666.2,
      "ch": 0,
      "note": 36,
      "vel": 99,
      "dur": 55
    },
    {
      "t": 1666.2,
      "ch": 1,
      "note": 36,
      "vel": 119,
      "dur": 25
    },
    {
      "t": 1666.2,
      "ch": 7,
      "note": 48,
      "vel": 71,
      "dur": 80
    },
    {
      "t": 1666.2,
      "ch": 7,
      "note": 36,
      "vel": 70,
      "dur": 80
    },
    {
      "t": 1666.2,
      "ch": 6,
      "note": 49,
      "vel": 46,
      "dur": 519
    },
    {
      "t": 1666.3,
      "ch": 1,
      "note": 38,
      "vel": 100,
      "dur": 25
    },
    {
      "t": 1666.3,
      "ch": 1,
      "note": 40,
      "vel": 89,
      "dur": 25
    },
    {
      "t": 1666.4,
      "ch": 6,
      "note": 52,
      "vel": 50,
      "dur": 518
    },
    {
      "t": 1666.4,
      "ch": 1,
      "note": 42,
      "vel": 90,
      "dur": 25
    },
    {
      "t": 1666.5,
      "ch": 1,
      "note": 36,
      "vel": 96,
      "dur": 25
    },
    {
      "t": 1666.5,
      "ch": 7,
      "note": 45,
      "vel": 62,
      "dur": 80
    },
    {
      "t": 1666.5,
      "ch": 7,
      "note": 36,
      "vel": 61,
      "dur": 80
    },
    {
      "t": 1666.5,
      "ch": 7,
      "note": 38,
      "vel": 55,
      "dur": 80
    },
    {
      "t": 1666.5,
      "ch": 6,
      "note": 52,
      "vel": 39,
      "dur": 518
    },
    {
      "t": 1666.6,
      "ch": 1,
      "note": 38,
      "vel": 94,
      "dur": 25
    },
    {
      "t": 1666.6,
      "ch": 1,
      "note": 40,
      "vel": 93,
      "dur": 25
    },
    {
      "t": 1666.7,
      "ch": 5,
      "note": 54,
      "vel": 56,
      "dur": 776
    },
    {
      "t": 1666.7,
      "ch": 1,
      "note": 42,
      "vel": 88,
      "dur": 25
    },
    {
      "t": 1666.8,
      "ch": 0,
      "note": 36,
      "vel": 87,
      "dur": 55
    },
    {
      "t": 1666.8,
      "ch": 1,
      "note": 36,
      "vel": 105,
      "dur": 25
    },
    {
      "t": 1666.8,
      "ch": 7,
      "note": 48,
      "vel": 66,
      "dur": 80
    },
    {
      "t": 1666.8,
      "ch": 7,
      "note": 36,
      "vel": 79,
      "dur": 80
    },
    {
      "t": 1666.9,
      "ch": 1,
      "note": 38,
      "vel": 81,
      "dur": 25
    },
    {
      "t": 1666.9,
      "ch": 1,
      "note": 40,
      "vel": 109,
      "dur": 25
    },
    {
      "t": 1667,
      "ch": 6,
      "note": 58,
      "vel": 63,
      "dur": 400
    },
    {
      "t": 1667,
      "ch": 1,
      "note": 42,
      "vel": 112,
      "dur": 25
    },
    {
      "t": 1667.1,
      "ch": 1,
      "note": 36,
      "vel": 67,
      "dur": 25
    },
    {
      "t": 1667.1,
      "ch": 5,
      "note": 56,
      "vel": 76,
      "dur": 775
    },
    {
      "t": 1667.2,
      "ch": 1,
      "note": 38,
      "vel": 74,
      "dur": 25
    },
    {
      "t": 1667.2,
      "ch": 1,
      "note": 40,
      "vel": 89,
      "dur": 25
    },
    {
      "t": 1667.3,
      "ch": 6,
      "note": 54,
      "vel": 32,
      "dur": 516
    },
    {
      "t": 1667.3,
      "ch": 1,
      "note": 42,
      "vel": 77,
      "dur": 25
    },
    {
      "t": 1667.3,
      "ch": 6,
      "note": 59,
      "vel": 45,
      "dur": 400
    },
    {
      "t": 1667.4,
      "ch": 0,
      "note": 36,
      "vel": 120,
      "dur": 55
    },
    {
      "t": 1667.4,
      "ch": 1,
      "note": 36,
      "vel": 91,
      "dur": 25
    },
    {
      "t": 1667.4,
      "ch": 7,
      "note": 48,
      "vel": 64,
      "dur": 80
    },
    {
      "t": 1667.4,
      "ch": 7,
      "note": 45,
      "vel": 71,
      "dur": 80
    },
    {
      "t": 1667.4,
      "ch": 7,
      "note": 36,
      "vel": 69,
      "dur": 80
    },
    {
      "t": 1667.4,
      "ch": 7,
      "note": 38,
      "vel": 75,
      "dur": 80
    },
    {
      "t": 1667.5,
      "ch": 1,
      "note": 38,
      "vel": 76,
      "dur": 25
    },
    {
      "t": 1667.6,
      "ch": 1,
      "note": 40,
      "vel": 102,
      "dur": 25
    },
    {
      "t": 1667.6,
      "ch": 1,
      "note": 42,
      "vel": 72,
      "dur": 25
    },
    {
      "t": 1667.7,
      "ch": 1,
      "note": 36,
      "vel": 85,
      "dur": 25
    },
    {
      "t": 1667.7,
      "ch": 7,
      "note": 36,
      "vel": 64,
      "dur": 80
    },
    {
      "t": 1667.8,
      "ch": 1,
      "note": 38,
      "vel": 89,
      "dur": 25
    },
    {
      "t": 1667.8,
      "ch": 1,
      "note": 40,
      "vel": 71,
      "dur": 25
    },
    {
      "t": 1667.9,
      "ch": 1,
      "note": 42,
      "vel": 85,
      "dur": 25
    },
    {
      "t": 1668,
      "ch": 0,
      "note": 36,
      "vel": 92,
      "dur": 55
    },
    {
      "t": 1668,
      "ch": 1,
      "note": 36,
      "vel": 102,
      "dur": 25
    },
    {
      "t": 1668,
      "ch": 7,
      "note": 48,
      "vel": 62,
      "dur": 80
    },
    {
      "t": 1668,
      "ch": 7,
      "note": 36,
      "vel": 69,
      "dur": 80
    },
    {
      "t": 1668.1,
      "ch": 1,
      "note": 38,
      "vel": 96,
      "dur": 25
    },
    {
      "t": 1668.1,
      "ch": 1,
      "note": 40,
      "vel": 74,
      "dur": 25
    },
    {
      "t": 1668.2,
      "ch": 7,
      "note": 45,
      "vel": 64,
      "dur": 80
    },
    {
      "t": 1668.2,
      "ch": 7,
      "note": 38,
      "vel": 66,
      "dur": 80
    },
    {
      "t": 1668.2,
      "ch": 1,
      "note": 42,
      "vel": 74,
      "dur": 25
    },
    {
      "t": 1668.3,
      "ch": 1,
      "note": 36,
      "vel": 99,
      "dur": 25
    },
    {
      "t": 1668.4,
      "ch": 1,
      "note": 38,
      "vel": 90,
      "dur": 25
    },
    {
      "t": 1668.4,
      "ch": 1,
      "note": 40,
      "vel": 72,
      "dur": 25
    },
    {
      "t": 1668.5,
      "ch": 4,
      "note": 58,
      "vel": 99,
      "dur": 2350
    },
    {
      "t": 1668.5,
      "ch": 3,
      "note": 44,
      "vel": 81,
      "dur": 2400
    },
    {
      "t": 1668.5,
      "ch": 1,
      "note": 42,
      "vel": 103,
      "dur": 25
    },
    {
      "t": 1668.6,
      "ch": 0,
      "note": 36,
      "vel": 88,
      "dur": 55
    },
    {
      "t": 1668.6,
      "ch": 1,
      "note": 36,
      "vel": 102,
      "dur": 25
    },
    {
      "t": 1668.6,
      "ch": 7,
      "note": 48,
      "vel": 65,
      "dur": 80
    },
    {
      "t": 1668.6,
      "ch": 7,
      "note": 36,
      "vel": 62,
      "dur": 80
    },
    {
      "t": 1668.6,
      "ch": 6,
      "note": 59,
      "vel": 63,
      "dur": 514
    },
    {
      "t": 1668.7,
      "ch": 1,
      "note": 38,
      "vel": 84,
      "dur": 25
    },
    {
      "t": 1668.7,
      "ch": 1,
      "note": 40,
      "vel": 96,
      "dur": 25
    },
    {
      "t": 1668.8,
      "ch": 1,
      "note": 42,
      "vel": 117,
      "dur": 25
    },
    {
      "t": 1668.9,
      "ch": 1,
      "note": 36,
      "vel": 76,
      "dur": 25
    },
    {
      "t": 1668.9,
      "ch": 7,
      "note": 38,
      "vel": 61,
      "dur": 80
    },
    {
      "t": 1668.9,
      "ch": 7,
      "note": 45,
      "vel": 74,
      "dur": 80
    },
    {
      "t": 1668.9,
      "ch": 7,
      "note": 36,
      "vel": 56,
      "dur": 80
    },
    {
      "t": 1668.9,
      "ch": 6,
      "note": 59,
      "vel": 61,
      "dur": 514
    },
    {
      "t": 1669,
      "ch": 1,
      "note": 38,
      "vel": 105,
      "dur": 25
    },
    {
      "t": 1669,
      "ch": 1,
      "note": 40,
      "vel": 74,
      "dur": 25
    },
    {
      "t": 1669.1,
      "ch": 6,
      "note": 61,
      "vel": 57,
      "dur": 514
    },
    {
      "t": 1669.1,
      "ch": 1,
      "note": 42,
      "vel": 77,
      "dur": 25
    },
    {
      "t": 1669.2,
      "ch": 0,
      "note": 36,
      "vel": 88,
      "dur": 55
    },
    {
      "t": 1669.2,
      "ch": 1,
      "note": 36,
      "vel": 95,
      "dur": 25
    },
    {
      "t": 1669.2,
      "ch": 7,
      "note": 48,
      "vel": 58,
      "dur": 80
    },
    {
      "t": 1669.2,
      "ch": 7,
      "note": 36,
      "vel": 67,
      "dur": 80
    },
    {
      "t": 1669.2,
      "ch": 5,
      "note": 58,
      "vel": 82,
      "dur": 771
    },
    {
      "t": 1669.3,
      "ch": 1,
      "note": 38,
      "vel": 117,
      "dur": 25
    },
    {
      "t": 1669.3,
      "ch": 1,
      "note": 40,
      "vel": 92,
      "dur": 25
    },
    {
      "t": 1669.4,
      "ch": 1,
      "note": 42,
      "vel": 90,
      "dur": 25
    },
    {
      "t": 1669.5,
      "ch": 1,
      "note": 36,
      "vel": 86,
      "dur": 25
    },
    {
      "t": 1669.6,
      "ch": 1,
      "note": 38,
      "vel": 87,
      "dur": 25
    },
    {
      "t": 1669.6,
      "ch": 1,
      "note": 40,
      "vel": 107,
      "dur": 25
    },
    {
      "t": 1669.7,
      "ch": 1,
      "note": 42,
      "vel": 88,
      "dur": 25
    },
    {
      "t": 1669.8,
      "ch": 0,
      "note": 36,
      "vel": 111,
      "dur": 55
    },
    {
      "t": 1669.8,
      "ch": 1,
      "note": 36,
      "vel": 93,
      "dur": 25
    },
    {
      "t": 1669.8,
      "ch": 7,
      "note": 48,
      "vel": 68,
      "dur": 80
    },
    {
      "t": 1669.8,
      "ch": 7,
      "note": 45,
      "vel": 69,
      "dur": 80
    },
    {
      "t": 1669.8,
      "ch": 7,
      "note": 36,
      "vel": 83,
      "dur": 80
    },
    {
      "t": 1669.8,
      "ch": 7,
      "note": 38,
      "vel": 68,
      "dur": 80
    },
    {
      "t": 1669.9,
      "ch": 1,
      "note": 38,
      "vel": 102,
      "dur": 25
    },
    {
      "t": 1669.9,
      "ch": 1,
      "note": 40,
      "vel": 99,
      "dur": 25
    },
    {
      "t": 1670,
      "ch": 1,
      "note": 42,
      "vel": 84,
      "dur": 25
    },
    {
      "t": 1670.1,
      "ch": 1,
      "note": 36,
      "vel": 92,
      "dur": 25
    },
    {
      "t": 1670.1,
      "ch": 7,
      "note": 36,
      "vel": 76,
      "dur": 80
    },
    {
      "t": 1670.2,
      "ch": 1,
      "note": 38,
      "vel": 90,
      "dur": 25
    },
    {
      "t": 1670.2,
      "ch": 1,
      "note": 40,
      "vel": 111,
      "dur": 25
    },
    {
      "t": 1670.3,
      "ch": 5,
      "note": 66,
      "vel": 51,
      "dur": 772
    },
    {
      "t": 1670.3,
      "ch": 1,
      "note": 42,
      "vel": 89,
      "dur": 25
    },
    {
      "t": 1670.4,
      "ch": 0,
      "note": 36,
      "vel": 96,
      "dur": 55
    },
    {
      "t": 1670.4,
      "ch": 1,
      "note": 36,
      "vel": 108,
      "dur": 25
    },
    {
      "t": 1670.4,
      "ch": 7,
      "note": 48,
      "vel": 65,
      "dur": 80
    },
    {
      "t": 1670.4,
      "ch": 7,
      "note": 36,
      "vel": 62,
      "dur": 80
    },
    {
      "t": 1670.5,
      "ch": 1,
      "note": 38,
      "vel": 110,
      "dur": 25
    },
    {
      "t": 1670.5,
      "ch": 1,
      "note": 40,
      "vel": 107,
      "dur": 25
    },
    {
      "t": 1670.6,
      "ch": 7,
      "note": 38,
      "vel": 68,
      "dur": 80
    },
    {
      "t": 1670.6,
      "ch": 7,
      "note": 45,
      "vel": 60,
      "dur": 80
    },
    {
      "t": 1670.6,
      "ch": 6,
      "note": 70,
      "vel": 46,
      "dur": 515
    },
    {
      "t": 1670.6,
      "ch": 1,
      "note": 42,
      "vel": 94,
      "dur": 25
    },
    {
      "t": 1670.7,
      "ch": 1,
      "note": 36,
      "vel": 99,
      "dur": 25
    },
    {
      "t": 1670.7,
      "ch": 5,
      "note": 71,
      "vel": 55,
      "dur": 773
    },
    {
      "t": 1670.8,
      "ch": 1,
      "note": 38,
      "vel": 64,
      "dur": 25
    },
    {
      "t": 1670.8,
      "ch": 1,
      "note": 40,
      "vel": 96,
      "dur": 25
    },
    {
      "t": 1670.9,
      "ch": 6,
      "note": 73,
      "vel": 45,
      "dur": 515
    },
    {
      "t": 1670.9,
      "ch": 4,
      "note": 59,
      "vel": 82,
      "dur": 2350
    },
    {
      "t": 1670.9,
      "ch": 3,
      "note": 40,
      "vel": 81,
      "dur": 2400
    },
    {
      "t": 1670.9,
      "ch": 1,
      "note": 42,
      "vel": 93,
      "dur": 25
    },
    {
      "t": 1671,
      "ch": 0,
      "note": 36,
      "vel": 98,
      "dur": 55
    },
    {
      "t": 1671,
      "ch": 1,
      "note": 36,
      "vel": 87,
      "dur": 25
    },
    {
      "t": 1671,
      "ch": 7,
      "note": 48,
      "vel": 88,
      "dur": 80
    },
    {
      "t": 1671,
      "ch": 7,
      "note": 36,
      "vel": 66,
      "dur": 80
    },
    {
      "t": 1671,
      "ch": 6,
      "note": 73,
      "vel": 54,
      "dur": 516
    },
    {
      "t": 1671.1,
      "ch": 1,
      "note": 38,
      "vel": 89,
      "dur": 25
    },
    {
      "t": 1671.1,
      "ch": 1,
      "note": 40,
      "vel": 97,
      "dur": 25
    },
    {
      "t": 1671.2,
      "ch": 1,
      "note": 42,
      "vel": 101,
      "dur": 25
    },
    {
      "t": 1671.3,
      "ch": 1,
      "note": 36,
      "vel": 78,
      "dur": 25
    },
    {
      "t": 1671.3,
      "ch": 7,
      "note": 45,
      "vel": 57,
      "dur": 80
    },
    {
      "t": 1671.3,
      "ch": 7,
      "note": 36,
      "vel": 62,
      "dur": 80
    },
    {
      "t": 1671.3,
      "ch": 7,
      "note": 38,
      "vel": 67,
      "dur": 80
    },
    {
      "t": 1671.3,
      "ch": 6,
      "note": 68,
      "vel": 51,
      "dur": 516
    },
    {
      "t": 1671.4,
      "ch": 1,
      "note": 38,
      "vel": 87,
      "dur": 25
    },
    {
      "t": 1671.4,
      "ch": 1,
      "note": 40,
      "vel": 84,
      "dur": 25
    },
    {
      "t": 1671.5,
      "ch": 1,
      "note": 42,
      "vel": 90,
      "dur": 25
    },
    {
      "t": 1671.6,
      "ch": 0,
      "note": 36,
      "vel": 92,
      "dur": 55
    },
    {
      "t": 1671.6,
      "ch": 1,
      "note": 36,
      "vel": 96,
      "dur": 25
    },
    {
      "t": 1671.6,
      "ch": 7,
      "note": 48,
      "vel": 70,
      "dur": 80
    },
    {
      "t": 1671.6,
      "ch": 7,
      "note": 36,
      "vel": 74,
      "dur": 80
    },
    {
      "t": 1671.6,
      "ch": 5,
      "note": 64,
      "vel": 50,
      "dur": 775
    },
    {
      "t": 1671.7,
      "ch": 1,
      "note": 38,
      "vel": 80,
      "dur": 25
    },
    {
      "t": 1671.7,
      "ch": 1,
      "note": 40,
      "vel": 75,
      "dur": 25
    },
    {
      "t": 1671.8,
      "ch": 1,
      "note": 42,
      "vel": 92,
      "dur": 25
    },
    {
      "t": 1671.9,
      "ch": 1,
      "note": 36,
      "vel": 96,
      "dur": 25
    },
    {
      "t": 1671.9,
      "ch": 6,
      "note": 71,
      "vel": 31,
      "dur": 400
    },
    {
      "t": 1672,
      "ch": 1,
      "note": 38,
      "vel": 76,
      "dur": 25
    },
    {
      "t": 1672,
      "ch": 1,
      "note": 40,
      "vel": 89,
      "dur": 25
    },
    {
      "t": 1672.1,
      "ch": 1,
      "note": 42,
      "vel": 64,
      "dur": 25
    },
    {
      "t": 1672.2,
      "ch": 0,
      "note": 36,
      "vel": 113,
      "dur": 55
    },
    {
      "t": 1672.2,
      "ch": 1,
      "note": 36,
      "vel": 102,
      "dur": 25
    },
    {
      "t": 1672.2,
      "ch": 7,
      "note": 48,
      "vel": 68,
      "dur": 80
    },
    {
      "t": 1672.2,
      "ch": 7,
      "note": 45,
      "vel": 64,
      "dur": 80
    },
    {
      "t": 1672.2,
      "ch": 7,
      "note": 36,
      "vel": 78,
      "dur": 80
    },
    {
      "t": 1672.2,
      "ch": 7,
      "note": 38,
      "vel": 74,
      "dur": 80
    },
    {
      "t": 1672.2,
      "ch": 5,
      "note": 59,
      "vel": 51,
      "dur": 778
    },
    {
      "t": 1672.3,
      "ch": 1,
      "note": 38,
      "vel": 111,
      "dur": 25
    },
    {
      "t": 1672.4,
      "ch": 1,
      "note": 40,
      "vel": 100,
      "dur": 25
    },
    {
      "t": 1672.4,
      "ch": 6,
      "note": 61,
      "vel": 45,
      "dur": 519
    },
    {
      "t": 1672.4,
      "ch": 1,
      "note": 42,
      "vel": 87,
      "dur": 25
    },
    {
      "t": 1672.5,
      "ch": 1,
      "note": 36,
      "vel": 108,
      "dur": 25
    },
    {
      "t": 1672.5,
      "ch": 7,
      "note": 36,
      "vel": 54,
      "dur": 80
    },
    {
      "t": 1672.6,
      "ch": 1,
      "note": 38,
      "vel": 69,
      "dur": 25
    },
    {
      "t": 1672.7,
      "ch": 1,
      "note": 40,
      "vel": 101,
      "dur": 25
    },
    {
      "t": 1672.7,
      "ch": 1,
      "note": 42,
      "vel": 81,
      "dur": 25
    },
    {
      "t": 1672.8,
      "ch": 0,
      "note": 36,
      "vel": 97,
      "dur": 55
    },
    {
      "t": 1672.8,
      "ch": 1,
      "note": 36,
      "vel": 125,
      "dur": 25
    },
    {
      "t": 1672.8,
      "ch": 7,
      "note": 48,
      "vel": 81,
      "dur": 80
    },
    {
      "t": 1672.8,
      "ch": 7,
      "note": 36,
      "vel": 70,
      "dur": 80
    },
    {
      "t": 1672.9,
      "ch": 1,
      "note": 38,
      "vel": 96,
      "dur": 25
    },
    {
      "t": 1672.9,
      "ch": 1,
      "note": 40,
      "vel": 75,
      "dur": 25
    },
    {
      "t": 1673,
      "ch": 7,
      "note": 45,
      "vel": 64,
      "dur": 80
    },
    {
      "t": 1673,
      "ch": 7,
      "note": 38,
      "vel": 68,
      "dur": 80
    },
    {
      "t": 1673,
      "ch": 1,
      "note": 42,
      "vel": 97,
      "dur": 25
    },
    {
      "t": 1673.1,
      "ch": 1,
      "note": 36,
      "vel": 108,
      "dur": 25
    },
    {
      "t": 1673.2,
      "ch": 1,
      "note": 38,
      "vel": 76,
      "dur": 25
    },
    {
      "t": 1673.2,
      "ch": 1,
      "note": 40,
      "vel": 67,
      "dur": 25
    },
    {
      "t": 1673.3,
      "ch": 6,
      "note": 63,
      "vel": 56,
      "dur": 522
    },
    {
      "t": 1673.3,
      "ch": 4,
      "note": 58,
      "vel": 96,
      "dur": 2350
    },
    {
      "t": 1673.3,
      "ch": 3,
      "note": 44,
      "vel": 79,
      "dur": 2400
    },
    {
      "t": 1673.3,
      "ch": 1,
      "note": 42,
      "vel": 103,
      "dur": 25
    },
    {
      "t": 1673.4,
      "ch": 0,
      "note": 36,
      "vel": 92,
      "dur": 55
    },
    {
      "t": 1673.4,
      "ch": 1,
      "note": 36,
      "vel": 107,
      "dur": 25
    },
    {
      "t": 1673.4,
      "ch": 7,
      "note": 48,
      "vel": 78,
      "dur": 80
    },
    {
      "t": 1673.4,
      "ch": 7,
      "note": 36,
      "vel": 81,
      "dur": 80
    },
    {
      "t": 1673.4,
      "ch": 6,
      "note": 59,
      "vel": 62,
      "dur": 523
    },
    {
      "t": 1673.4,
      "ch": 5,
      "note": 56,
      "vel": 48,
      "dur": 784
    },
    {
      "t": 1673.5,
      "ch": 1,
      "note": 38,
      "vel": 120,
      "dur": 25
    },
    {
      "t": 1673.5,
      "ch": 1,
      "note": 40,
      "vel": 95,
      "dur": 25
    },
    {
      "t": 1673.6,
      "ch": 1,
      "note": 42,
      "vel": 74,
      "dur": 25
    },
    {
      "t": 1673.7,
      "ch": 1,
      "note": 36,
      "vel": 94,
      "dur": 25
    },
    {
      "t": 1673.7,
      "ch": 7,
      "note": 38,
      "vel": 66,
      "dur": 80
    },
    {
      "t": 1673.7,
      "ch": 7,
      "note": 45,
      "vel": 64,
      "dur": 80
    },
    {
      "t": 1673.7,
      "ch": 7,
      "note": 36,
      "vel": 71,
      "dur": 80
    },
    {
      "t": 1673.8,
      "ch": 1,
      "note": 38,
      "vel": 83,
      "dur": 25
    },
    {
      "t": 1673.8,
      "ch": 1,
      "note": 40,
      "vel": 88,
      "dur": 25
    },
    {
      "t": 1673.9,
      "ch": 1,
      "note": 42,
      "vel": 102,
      "dur": 25
    },
    {
      "t": 1674,
      "ch": 0,
      "note": 36,
      "vel": 93,
      "dur": 55
    },
    {
      "t": 1674,
      "ch": 1,
      "note": 36,
      "vel": 126,
      "dur": 25
    },
    {
      "t": 1674,
      "ch": 7,
      "note": 48,
      "vel": 59,
      "dur": 80
    },
    {
      "t": 1674,
      "ch": 7,
      "note": 36,
      "vel": 76,
      "dur": 80
    },
    {
      "t": 1674,
      "ch": 5,
      "note": 58,
      "vel": 75,
      "dur": 787
    },
    {
      "t": 1674.1,
      "ch": 1,
      "note": 38,
      "vel": 70,
      "dur": 25
    },
    {
      "t": 1674.1,
      "ch": 1,
      "note": 40,
      "vel": 88,
      "dur": 25
    },
    {
      "t": 1674.2,
      "ch": 1,
      "note": 42,
      "vel": 115,
      "dur": 25
    },
    {
      "t": 1674.3,
      "ch": 1,
      "note": 36,
      "vel": 95,
      "dur": 25
    },
    {
      "t": 1674.3,
      "ch": 6,
      "note": 61,
      "vel": 36,
      "dur": 400
    },
    {
      "t": 1674.4,
      "ch": 1,
      "note": 38,
      "vel": 85,
      "dur": 25
    },
    {
      "t": 1674.5,
      "ch": 1,
      "note": 40,
      "vel": 81,
      "dur": 25
    },
    {
      "t": 1674.5,
      "ch": 6,
      "note": 61,
      "vel": 57,
      "dur": 527
    },
    {
      "t": 1674.5,
      "ch": 5,
      "note": 66,
      "vel": 45,
      "dur": 790
    },
    {
      "t": 1674.5,
      "ch": 1,
      "note": 42,
      "vel": 85,
      "dur": 25
    },
    {
      "t": 1674.6,
      "ch": 0,
      "note": 36,
      "vel": 111,
      "dur": 55
    },
    {
      "t": 1674.6,
      "ch": 1,
      "note": 36,
      "vel": 95,
      "dur": 25
    },
    {
      "t": 1674.6,
      "ch": 7,
      "note": 48,
      "vel": 71,
      "dur": 80
    },
    {
      "t": 1674.6,
      "ch": 7,
      "note": 45,
      "vel": 67,
      "dur": 80
    },
    {
      "t": 1674.6,
      "ch": 7,
      "note": 36,
      "vel": 69,
      "dur": 80
    },
    {
      "t": 1674.6,
      "ch": 7,
      "note": 38,
      "vel": 65,
      "dur": 80
    },
    {
      "t": 1674.7,
      "ch": 1,
      "note": 38,
      "vel": 111,
      "dur": 25
    },
    {
      "t": 1674.7,
      "ch": 1,
      "note": 40,
      "vel": 89,
      "dur": 25
    },
    {
      "t": 1674.8,
      "ch": 1,
      "note": 42,
      "vel": 75,
      "dur": 25
    },
    {
      "t": 1674.9,
      "ch": 1,
      "note": 36,
      "vel": 96,
      "dur": 25
    },
    {
      "t": 1674.9,
      "ch": 7,
      "note": 36,
      "vel": 53,
      "dur": 80
    },
    {
      "t": 1675,
      "ch": 1,
      "note": 38,
      "vel": 77,
      "dur": 25
    },
    {
      "t": 1675.1,
      "ch": 1,
      "note": 40,
      "vel": 107,
      "dur": 25
    },
    {
      "t": 1675.1,
      "ch": 1,
      "note": 42,
      "vel": 93,
      "dur": 25
    },
    {
      "t": 1675.2,
      "ch": 0,
      "note": 36,
      "vel": 95,
      "dur": 55
    },
    {
      "t": 1675.2,
      "ch": 1,
      "note": 36,
      "vel": 116,
      "dur": 25
    },
    {
      "t": 1675.2,
      "ch": 7,
      "note": 48,
      "vel": 75,
      "dur": 80
    },
    {
      "t": 1675.2,
      "ch": 7,
      "note": 36,
      "vel": 67,
      "dur": 80
    },
    {
      "t": 1675.3,
      "ch": 1,
      "note": 38,
      "vel": 99,
      "dur": 25
    },
    {
      "t": 1675.4,
      "ch": 1,
      "note": 40,
      "vel": 78,
      "dur": 25
    },
    {
      "t": 1675.4,
      "ch": 7,
      "note": 45,
      "vel": 61,
      "dur": 80
    },
    {
      "t": 1675.4,
      "ch": 7,
      "note": 38,
      "vel": 56,
      "dur": 80
    },
    {
      "t": 1675.4,
      "ch": 1,
      "note": 42,
      "vel": 108,
      "dur": 25
    },
    {
      "t": 1675.5,
      "ch": 1,
      "note": 36,
      "vel": 76,
      "dur": 25
    },
    {
      "t": 1675.5,
      "ch": 5,
      "note": 71,
      "vel": 49,
      "dur": 796
    },
    {
      "t": 1675.6,
      "ch": 1,
      "note": 38,
      "vel": 96,
      "dur": 25
    },
    {
      "t": 1675.6,
      "ch": 1,
      "note": 40,
      "vel": 104,
      "dur": 25
    },
    {
      "t": 1675.7,
      "ch": 2,
      "note": 49,
      "vel": 62,
      "dur": 18000
    },
    {
      "t": 1675.7,
      "ch": 2,
      "note": 61,
      "vel": 43,
      "dur": 18000
    },
    {
      "t": 1675.7,
      "ch": 4,
      "note": 58,
      "vel": 93,
      "dur": 2350
    },
    {
      "t": 1675.7,
      "ch": 3,
      "note": 37,
      "vel": 77,
      "dur": 2400
    },
    {
      "t": 1675.7,
      "ch": 1,
      "note": 42,
      "vel": 96,
      "dur": 25
    },
    {
      "t": 1675.7,
      "ch": 6,
      "note": 73,
      "vel": 53,
      "dur": 400
    },
    {
      "t": 1675.8,
      "ch": 0,
      "note": 36,
      "vel": 95,
      "dur": 55
    },
    {
      "t": 1675.8,
      "ch": 1,
      "note": 36,
      "vel": 120,
      "dur": 25
    },
    {
      "t": 1675.8,
      "ch": 7,
      "note": 48,
      "vel": 74,
      "dur": 80
    },
    {
      "t": 1675.8,
      "ch": 7,
      "note": 36,
      "vel": 76,
      "dur": 80
    },
    {
      "t": 1675.9,
      "ch": 1,
      "note": 38,
      "vel": 77,
      "dur": 25
    },
    {
      "t": 1675.9,
      "ch": 1,
      "note": 40,
      "vel": 99,
      "dur": 25
    },
    {
      "t": 1676,
      "ch": 5,
      "note": 64,
      "vel": 52,
      "dur": 799
    },
    {
      "t": 1676,
      "ch": 1,
      "note": 42,
      "vel": 88,
      "dur": 25
    },
    {
      "t": 1676.1,
      "ch": 1,
      "note": 36,
      "vel": 83,
      "dur": 25
    },
    {
      "t": 1676.1,
      "ch": 7,
      "note": 45,
      "vel": 65,
      "dur": 80
    },
    {
      "t": 1676.1,
      "ch": 7,
      "note": 36,
      "vel": 62,
      "dur": 80
    },
    {
      "t": 1676.1,
      "ch": 7,
      "note": 38,
      "vel": 62,
      "dur": 80
    },
    {
      "t": 1676.1,
      "ch": 5,
      "note": 59,
      "vel": 66,
      "dur": 800
    },
    {
      "t": 1676.2,
      "ch": 1,
      "note": 38,
      "vel": 84,
      "dur": 25
    },
    {
      "t": 1676.2,
      "ch": 1,
      "note": 40,
      "vel": 113,
      "dur": 25
    },
    {
      "t": 1676.3,
      "ch": 1,
      "note": 42,
      "vel": 88,
      "dur": 25
    },
    {
      "t": 1676.4,
      "ch": 6,
      "note": 66,
      "vel": 42,
      "dur": 400
    },
    {
      "t": 1676.4,
      "ch": 0,
      "note": 36,
      "vel": 89,
      "dur": 55
    },
    {
      "t": 1676.4,
      "ch": 1,
      "note": 36,
      "vel": 119,
      "dur": 25
    },
    {
      "t": 1676.4,
      "ch": 7,
      "note": 48,
      "vel": 69,
      "dur": 80
    },
    {
      "t": 1676.4,
      "ch": 7,
      "note": 36,
      "vel": 72,
      "dur": 80
    },
    {
      "t": 1676.5,
      "ch": 1,
      "note": 38,
      "vel": 94,
      "dur": 25
    },
    {
      "t": 1676.5,
      "ch": 1,
      "note": 40,
      "vel": 87,
      "dur": 25
    },
    {
      "t": 1676.6,
      "ch": 1,
      "note": 42,
      "vel": 88,
      "dur": 25
    },
    {
      "t": 1676.7,
      "ch": 1,
      "note": 36,
      "vel": 78,
      "dur": 25
    },
    {
      "t": 1676.8,
      "ch": 1,
      "note": 38,
      "vel": 91,
      "dur": 25
    },
    {
      "t": 1676.8,
      "ch": 1,
      "note": 40,
      "vel": 92,
      "dur": 25
    },
    {
      "t": 1676.9,
      "ch": 1,
      "note": 42,
      "vel": 104,
      "dur": 25
    },
    {
      "t": 1677,
      "ch": 0,
      "note": 36,
      "vel": 121,
      "dur": 55
    },
    {
      "t": 1677,
      "ch": 1,
      "note": 36,
      "vel": 80,
      "dur": 25
    },
    {
      "t": 1677,
      "ch": 7,
      "note": 48,
      "vel": 60,
      "dur": 80
    },
    {
      "t": 1677,
      "ch": 7,
      "note": 45,
      "vel": 69,
      "dur": 80
    },
    {
      "t": 1677,
      "ch": 7,
      "note": 36,
      "vel": 79,
      "dur": 80
    },
    {
      "t": 1677,
      "ch": 7,
      "note": 38,
      "vel": 60,
      "dur": 80
    },
    {
      "t": 1677.1,
      "ch": 1,
      "note": 38,
      "vel": 85,
      "dur": 25
    },
    {
      "t": 1677.2,
      "ch": 1,
      "note": 40,
      "vel": 107,
      "dur": 25
    },
    {
      "t": 1677.2,
      "ch": 1,
      "note": 42,
      "vel": 85,
      "dur": 25
    },
    {
      "t": 1677.3,
      "ch": 1,
      "note": 36,
      "vel": 66,
      "dur": 25
    },
    {
      "t": 1677.3,
      "ch": 7,
      "note": 36,
      "vel": 70,
      "dur": 80
    },
    {
      "t": 1677.4,
      "ch": 1,
      "note": 38,
      "vel": 93,
      "dur": 25
    },
    {
      "t": 1677.4,
      "ch": 1,
      "note": 40,
      "vel": 98,
      "dur": 25
    },
    {
      "t": 1677.5,
      "ch": 6,
      "note": 70,
      "vel": 73,
      "dur": 538
    },
    {
      "t": 1677.5,
      "ch": 1,
      "note": 42,
      "vel": 83,
      "dur": 25
    },
    {
      "t": 1677.6,
      "ch": 0,
      "note": 36,
      "vel": 91,
      "dur": 55
    },
    {
      "t": 1677.6,
      "ch": 1,
      "note": 36,
      "vel": 114,
      "dur": 25
    },
    {
      "t": 1677.6,
      "ch": 7,
      "note": 48,
      "vel": 74,
      "dur": 80
    },
    {
      "t": 1677.6,
      "ch": 7,
      "note": 36,
      "vel": 80,
      "dur": 80
    },
    {
      "t": 1677.6,
      "ch": 5,
      "note": 61,
      "vel": 56,
      "dur": 808
    },
    {
      "t": 1677.7,
      "ch": 1,
      "note": 38,
      "vel": 122,
      "dur": 25
    },
    {
      "t": 1677.7,
      "ch": 1,
      "note": 40,
      "vel": 87,
      "dur": 25
    },
    {
      "t": 1677.8,
      "ch": 7,
      "note": 45,
      "vel": 58,
      "dur": 80
    },
    {
      "t": 1677.8,
      "ch": 7,
      "note": 38,
      "vel": 58,
      "dur": 80
    },
    {
      "t": 1677.8,
      "ch": 1,
      "note": 42,
      "vel": 87,
      "dur": 25
    },
    {
      "t": 1677.9,
      "ch": 1,
      "note": 36,
      "vel": 78,
      "dur": 25
    },
    {
      "t": 1678,
      "ch": 1,
      "note": 38,
      "vel": 105,
      "dur": 25
    },
    {
      "t": 1678,
      "ch": 1,
      "note": 40,
      "vel": 78,
      "dur": 25
    },
    {
      "t": 1678.1,
      "ch": 4,
      "note": 59,
      "vel": 73,
      "dur": 2350
    },
    {
      "t": 1678.1,
      "ch": 3,
      "note": 40,
      "vel": 74,
      "dur": 2400
    },
    {
      "t": 1678.1,
      "ch": 1,
      "note": 42,
      "vel": 93,
      "dur": 25
    },
    {
      "t": 1678.2,
      "ch": 0,
      "note": 36,
      "vel": 87,
      "dur": 55
    },
    {
      "t": 1678.2,
      "ch": 1,
      "note": 36,
      "vel": 109,
      "dur": 25
    },
    {
      "t": 1678.2,
      "ch": 7,
      "note": 48,
      "vel": 74,
      "dur": 80
    },
    {
      "t": 1678.2,
      "ch": 7,
      "note": 36,
      "vel": 71,
      "dur": 80
    },
    {
      "t": 1678.3,
      "ch": 1,
      "note": 38,
      "vel": 98,
      "dur": 25
    },
    {
      "t": 1678.3,
      "ch": 1,
      "note": 40,
      "vel": 95,
      "dur": 25
    },
    {
      "t": 1678.4,
      "ch": 1,
      "note": 42,
      "vel": 95,
      "dur": 25
    },
    {
      "t": 1678.5,
      "ch": 1,
      "note": 36,
      "vel": 90,
      "dur": 25
    },
    {
      "t": 1678.5,
      "ch": 7,
      "note": 38,
      "vel": 69,
      "dur": 80
    },
    {
      "t": 1678.5,
      "ch": 7,
      "note": 45,
      "vel": 61,
      "dur": 80
    },
    {
      "t": 1678.5,
      "ch": 7,
      "note": 36,
      "vel": 69,
      "dur": 80
    },
    {
      "t": 1678.6,
      "ch": 1,
      "note": 38,
      "vel": 88,
      "dur": 25
    },
    {
      "t": 1678.6,
      "ch": 1,
      "note": 40,
      "vel": 105,
      "dur": 25
    },
    {
      "t": 1678.7,
      "ch": 5,
      "note": 59,
      "vel": 58,
      "dur": 812
    },
    {
      "t": 1678.7,
      "ch": 1,
      "note": 42,
      "vel": 99,
      "dur": 25
    },
    {
      "t": 1678.8,
      "ch": 0,
      "note": 36,
      "vel": 88,
      "dur": 55
    },
    {
      "t": 1678.8,
      "ch": 1,
      "note": 36,
      "vel": 102,
      "dur": 25
    },
    {
      "t": 1678.8,
      "ch": 7,
      "note": 48,
      "vel": 66,
      "dur": 80
    },
    {
      "t": 1678.8,
      "ch": 7,
      "note": 36,
      "vel": 70,
      "dur": 80
    },
    {
      "t": 1678.9,
      "ch": 1,
      "note": 38,
      "vel": 108,
      "dur": 25
    },
    {
      "t": 1678.9,
      "ch": 6,
      "note": 64,
      "vel": 41,
      "dur": 400
    },
    {
      "t": 1678.9,
      "ch": 1,
      "note": 40,
      "vel": 108,
      "dur": 25
    },
    {
      "t": 1679,
      "ch": 1,
      "note": 42,
      "vel": 93,
      "dur": 25
    },
    {
      "t": 1679.1,
      "ch": 1,
      "note": 36,
      "vel": 89,
      "dur": 25
    },
    {
      "t": 1679.1,
      "ch": 6,
      "note": 64,
      "vel": 50,
      "dur": 542
    },
    {
      "t": 1679.2,
      "ch": 1,
      "note": 38,
      "vel": 95,
      "dur": 25
    },
    {
      "t": 1679.2,
      "ch": 1,
      "note": 40,
      "vel": 93,
      "dur": 25
    },
    {
      "t": 1679.3,
      "ch": 6,
      "note": 61,
      "vel": 55,
      "dur": 542
    },
    {
      "t": 1679.3,
      "ch": 1,
      "note": 42,
      "vel": 96,
      "dur": 25
    },
    {
      "t": 1679.4,
      "ch": 0,
      "note": 36,
      "vel": 109,
      "dur": 55
    },
    {
      "t": 1679.4,
      "ch": 1,
      "note": 36,
      "vel": 85,
      "dur": 25
    },
    {
      "t": 1679.4,
      "ch": 7,
      "note": 48,
      "vel": 78,
      "dur": 80
    },
    {
      "t": 1679.4,
      "ch": 7,
      "note": 45,
      "vel": 62,
      "dur": 80
    },
    {
      "t": 1679.4,
      "ch": 7,
      "note": 36,
      "vel": 71,
      "dur": 80
    },
    {
      "t": 1679.4,
      "ch": 7,
      "note": 38,
      "vel": 66,
      "dur": 80
    },
    {
      "t": 1679.5,
      "ch": 1,
      "note": 38,
      "vel": 111,
      "dur": 25
    },
    {
      "t": 1679.5,
      "ch": 1,
      "note": 40,
      "vel": 121,
      "dur": 25
    },
    {
      "t": 1679.6,
      "ch": 1,
      "note": 42,
      "vel": 88,
      "dur": 25
    },
    {
      "t": 1679.7,
      "ch": 1,
      "note": 36,
      "vel": 93,
      "dur": 25
    },
    {
      "t": 1679.7,
      "ch": 7,
      "note": 36,
      "vel": 68,
      "dur": 80
    },
    {
      "t": 1679.8,
      "ch": 1,
      "note": 38,
      "vel": 98,
      "dur": 25
    },
    {
      "t": 1679.9,
      "ch": 1,
      "note": 40,
      "vel": 104,
      "dur": 25
    },
    {
      "t": 1679.9,
      "ch": 1,
      "note": 42,
      "vel": 77,
      "dur": 25
    },
    {
      "t": 1680,
      "ch": 0,
      "note": 36,
      "vel": 97,
      "dur": 55
    },
    {
      "t": 1680,
      "ch": 1,
      "note": 36,
      "vel": 80,
      "dur": 25
    },
    {
      "t": 1680,
      "ch": 7,
      "note": 48,
      "vel": 77,
      "dur": 80
    },
    {
      "t": 1680,
      "ch": 7,
      "note": 36,
      "vel": 58,
      "dur": 80
    },
    {
      "t": 1680.1,
      "ch": 1,
      "note": 38,
      "vel": 115,
      "dur": 25
    },
    {
      "t": 1680.2,
      "ch": 1,
      "note": 40,
      "vel": 104,
      "dur": 25
    },
    {
      "t": 1680.2,
      "ch": 7,
      "note": 38,
      "vel": 64,
      "dur": 80
    },
    {
      "t": 1680.2,
      "ch": 7,
      "note": 45,
      "vel": 65,
      "dur": 80
    },
    {
      "t": 1680.2,
      "ch": 1,
      "note": 42,
      "vel": 110,
      "dur": 25
    },
    {
      "t": 1680.3,
      "ch": 1,
      "note": 36,
      "vel": 86,
      "dur": 25
    },
    {
      "t": 1680.4,
      "ch": 1,
      "note": 38,
      "vel": 103,
      "dur": 25
    },
    {
      "t": 1680.5,
      "ch": 1,
      "note": 40,
      "vel": 92,
      "dur": 25
    },
    {
      "t": 1680.5,
      "ch": 6,
      "note": 63,
      "vel": 44,
      "dur": 543
    },
    {
      "t": 1680.5,
      "ch": 4,
      "note": 59,
      "vel": 74,
      "dur": 2350
    },
    {
      "t": 1680.5,
      "ch": 3,
      "note": 42,
      "vel": 74,
      "dur": 2400
    },
    {
      "t": 1680.5,
      "ch": 1,
      "note": 42,
      "vel": 73,
      "dur": 25
    },
    {
      "t": 1680.6,
      "ch": 0,
      "note": 36,
      "vel": 94,
      "dur": 55
    },
    {
      "t": 1680.6,
      "ch": 1,
      "note": 36,
      "vel": 98,
      "dur": 25
    },
    {
      "t": 1680.6,
      "ch": 7,
      "note": 48,
      "vel": 72,
      "dur": 80
    },
    {
      "t": 1680.6,
      "ch": 7,
      "note": 36,
      "vel": 69,
      "dur": 80
    },
    {
      "t": 1680.7,
      "ch": 1,
      "note": 38,
      "vel": 97,
      "dur": 25
    },
    {
      "t": 1680.7,
      "ch": 1,
      "note": 40,
      "vel": 96,
      "dur": 25
    },
    {
      "t": 1680.8,
      "ch": 1,
      "note": 42,
      "vel": 79,
      "dur": 25
    },
    {
      "t": 1680.9,
      "ch": 1,
      "note": 36,
      "vel": 86,
      "dur": 25
    },
    {
      "t": 1680.9,
      "ch": 7,
      "note": 38,
      "vel": 55,
      "dur": 80
    },
    {
      "t": 1680.9,
      "ch": 7,
      "note": 36,
      "vel": 70,
      "dur": 80
    },
    {
      "t": 1680.9,
      "ch": 7,
      "note": 45,
      "vel": 66,
      "dur": 80
    },
    {
      "t": 1681,
      "ch": 1,
      "note": 38,
      "vel": 85,
      "dur": 25
    },
    {
      "t": 1681,
      "ch": 1,
      "note": 40,
      "vel": 105,
      "dur": 25
    },
    {
      "t": 1681.1,
      "ch": 1,
      "note": 42,
      "vel": 102,
      "dur": 25
    },
    {
      "t": 1681.2,
      "ch": 0,
      "note": 36,
      "vel": 90,
      "dur": 55
    },
    {
      "t": 1681.2,
      "ch": 1,
      "note": 36,
      "vel": 111,
      "dur": 25
    },
    {
      "t": 1681.2,
      "ch": 7,
      "note": 48,
      "vel": 71,
      "dur": 80
    },
    {
      "t": 1681.2,
      "ch": 7,
      "note": 36,
      "vel": 72,
      "dur": 80
    },
    {
      "t": 1681.2,
      "ch": 5,
      "note": 71,
      "vel": 75,
      "dur": 815
    },
    {
      "t": 1681.3,
      "ch": 1,
      "note": 38,
      "vel": 127,
      "dur": 25
    },
    {
      "t": 1681.3,
      "ch": 1,
      "note": 40,
      "vel": 102,
      "dur": 25
    },
    {
      "t": 1681.4,
      "ch": 6,
      "note": 73,
      "vel": 54,
      "dur": 543
    },
    {
      "t": 1681.4,
      "ch": 1,
      "note": 42,
      "vel": 78,
      "dur": 25
    },
    {
      "t": 1681.5,
      "ch": 1,
      "note": 36,
      "vel": 94,
      "dur": 25
    },
    {
      "t": 1681.6,
      "ch": 1,
      "note": 38,
      "vel": 59,
      "dur": 25
    },
    {
      "t": 1681.6,
      "ch": 1,
      "note": 40,
      "vel": 101,
      "dur": 25
    },
    {
      "t": 1681.7,
      "ch": 1,
      "note": 42,
      "vel": 87,
      "dur": 25
    },
    {
      "t": 1681.8,
      "ch": 0,
      "note": 36,
      "vel": 117,
      "dur": 55
    },
    {
      "t": 1681.8,
      "ch": 1,
      "note": 36,
      "vel": 88,
      "dur": 25
    },
    {
      "t": 1681.8,
      "ch": 7,
      "note": 48,
      "vel": 74,
      "dur": 80
    },
    {
      "t": 1681.8,
      "ch": 7,
      "note": 45,
      "vel": 72,
      "dur": 80
    },
    {
      "t": 1681.8,
      "ch": 7,
      "note": 36,
      "vel": 66,
      "dur": 80
    },
    {
      "t": 1681.8,
      "ch": 7,
      "note": 38,
      "vel": 80,
      "dur": 80
    },
    {
      "t": 1681.9,
      "ch": 1,
      "note": 38,
      "vel": 106,
      "dur": 25
    },
    {
      "t": 1682,
      "ch": 1,
      "note": 40,
      "vel": 100,
      "dur": 25
    },
    {
      "t": 1682,
      "ch": 1,
      "note": 42,
      "vel": 86,
      "dur": 25
    },
    {
      "t": 1682.1,
      "ch": 1,
      "note": 36,
      "vel": 94,
      "dur": 25
    },
    {
      "t": 1682.1,
      "ch": 7,
      "note": 36,
      "vel": 61,
      "dur": 80
    },
    {
      "t": 1682.2,
      "ch": 1,
      "note": 38,
      "vel": 96,
      "dur": 25
    },
    {
      "t": 1682.2,
      "ch": 1,
      "note": 40,
      "vel": 90,
      "dur": 25
    },
    {
      "t": 1682.3,
      "ch": 1,
      "note": 42,
      "vel": 92,
      "dur": 25
    },
    {
      "t": 1682.4,
      "ch": 0,
      "note": 36,
      "vel": 91,
      "dur": 55
    },
    {
      "t": 1682.4,
      "ch": 1,
      "note": 36,
      "vel": 85,
      "dur": 25
    },
    {
      "t": 1682.4,
      "ch": 7,
      "note": 48,
      "vel": 73,
      "dur": 80
    },
    {
      "t": 1682.4,
      "ch": 7,
      "note": 36,
      "vel": 68,
      "dur": 80
    },
    {
      "t": 1682.5,
      "ch": 1,
      "note": 38,
      "vel": 87,
      "dur": 25
    },
    {
      "t": 1682.5,
      "ch": 1,
      "note": 40,
      "vel": 102,
      "dur": 25
    },
    {
      "t": 1682.6,
      "ch": 7,
      "note": 38,
      "vel": 65,
      "dur": 80
    },
    {
      "t": 1682.6,
      "ch": 7,
      "note": 45,
      "vel": 55,
      "dur": 80
    },
    {
      "t": 1682.6,
      "ch": 6,
      "note": 54,
      "vel": 56,
      "dur": 541
    },
    {
      "t": 1682.6,
      "ch": 1,
      "note": 42,
      "vel": 89,
      "dur": 25
    },
    {
      "t": 1682.7,
      "ch": 1,
      "note": 36,
      "vel": 78,
      "dur": 25
    },
    {
      "t": 1682.7,
      "ch": 5,
      "note": 51,
      "vel": 39,
      "dur": 812
    },
    {
      "t": 1682.7,
      "ch": 6,
      "note": 73,
      "vel": 40,
      "dur": 541
    },
    {
      "t": 1682.8,
      "ch": 1,
      "note": 38,
      "vel": 119,
      "dur": 25
    },
    {
      "t": 1682.8,
      "ch": 1,
      "note": 40,
      "vel": 88,
      "dur": 25
    },
    {
      "t": 1682.9,
      "ch": 6,
      "note": 72,
      "vel": 66,
      "dur": 541
    },
    {
      "t": 1682.9,
      "ch": 4,
      "note": 59,
      "vel": 72,
      "dur": 2350
    },
    {
      "t": 1682.9,
      "ch": 3,
      "note": 40,
      "vel": 74,
      "dur": 2400
    },
    {
      "t": 1682.9,
      "ch": 1,
      "note": 42,
      "vel": 91,
      "dur": 25
    },
    {
      "t": 1683,
      "ch": 0,
      "note": 36,
      "vel": 89,
      "dur": 55
    },
    {
      "t": 1683,
      "ch": 1,
      "note": 36,
      "vel": 91,
      "dur": 25
    },
    {
      "t": 1683,
      "ch": 7,
      "note": 48,
      "vel": 71,
      "dur": 80
    },
    {
      "t": 1683,
      "ch": 7,
      "note": 36,
      "vel": 71,
      "dur": 80
    },
    {
      "t": 1683.1,
      "ch": 6,
      "note": 54,
      "vel": 45,
      "dur": 400
    },
    {
      "t": 1683.1,
      "ch": 1,
      "note": 38,
      "vel": 68,
      "dur": 25
    },
    {
      "t": 1683.1,
      "ch": 1,
      "note": 40,
      "vel": 98,
      "dur": 25
    },
    {
      "t": 1683.2,
      "ch": 1,
      "note": 42,
      "vel": 97,
      "dur": 25
    },
    {
      "t": 1683.3,
      "ch": 1,
      "note": 36,
      "vel": 87,
      "dur": 25
    },
    {
      "t": 1683.3,
      "ch": 7,
      "note": 38,
      "vel": 63,
      "dur": 80
    },
    {
      "t": 1683.3,
      "ch": 7,
      "note": 45,
      "vel": 63,
      "dur": 80
    },
    {
      "t": 1683.3,
      "ch": 7,
      "note": 36,
      "vel": 66,
      "dur": 80
    },
    {
      "t": 1683.4,
      "ch": 1,
      "note": 38,
      "vel": 83,
      "dur": 25
    },
    {
      "t": 1683.4,
      "ch": 1,
      "note": 40,
      "vel": 87,
      "dur": 25
    },
    {
      "t": 1683.5,
      "ch": 5,
      "note": 71,
      "vel": 49,
      "dur": 809
    },
    {
      "t": 1683.5,
      "ch": 1,
      "note": 42,
      "vel": 81,
      "dur": 25
    },
    {
      "t": 1683.6,
      "ch": 0,
      "note": 36,
      "vel": 97,
      "dur": 55
    },
    {
      "t": 1683.6,
      "ch": 1,
      "note": 36,
      "vel": 127,
      "dur": 25
    },
    {
      "t": 1683.6,
      "ch": 7,
      "note": 48,
      "vel": 79,
      "dur": 80
    },
    {
      "t": 1683.6,
      "ch": 7,
      "note": 36,
      "vel": 58,
      "dur": 80
    },
    {
      "t": 1683.6,
      "ch": 6,
      "note": 52,
      "vel": 49,
      "dur": 539
    },
    {
      "t": 1683.7,
      "ch": 1,
      "note": 38,
      "vel": 101,
      "dur": 25
    },
    {
      "t": 1683.7,
      "ch": 1,
      "note": 40,
      "vel": 104,
      "dur": 25
    },
    {
      "t": 1683.8,
      "ch": 1,
      "note": 42,
      "vel": 91,
      "dur": 25
    },
    {
      "t": 1683.9,
      "ch": 1,
      "note": 36,
      "vel": 77,
      "dur": 25
    },
    {
      "t": 1684,
      "ch": 1,
      "note": 38,
      "vel": 94,
      "dur": 25
    },
    {
      "t": 1684,
      "ch": 1,
      "note": 40,
      "vel": 76,
      "dur": 25
    },
    {
      "t": 1684.1,
      "ch": 1,
      "note": 42,
      "vel": 86,
      "dur": 25
    },
    {
      "t": 1684.2,
      "ch": 0,
      "note": 36,
      "vel": 107,
      "dur": 55
    },
    {
      "t": 1684.2,
      "ch": 1,
      "note": 36,
      "vel": 120,
      "dur": 25
    },
    {
      "t": 1684.2,
      "ch": 7,
      "note": 48,
      "vel": 62,
      "dur": 80
    },
    {
      "t": 1684.2,
      "ch": 7,
      "note": 45,
      "vel": 69,
      "dur": 80
    },
    {
      "t": 1684.2,
      "ch": 7,
      "note": 36,
      "vel": 69,
      "dur": 80
    },
    {
      "t": 1684.2,
      "ch": 7,
      "note": 38,
      "vel": 72,
      "dur": 80
    },
    {
      "t": 1684.3,
      "ch": 1,
      "note": 38,
      "vel": 99,
      "dur": 25
    },
    {
      "t": 1684.3,
      "ch": 1,
      "note": 40,
      "vel": 99,
      "dur": 25
    },
    {
      "t": 1684.4,
      "ch": 1,
      "note": 42,
      "vel": 85,
      "dur": 25
    },
    {
      "t": 1684.5,
      "ch": 1,
      "note": 36,
      "vel": 91,
      "dur": 25
    },
    {
      "t": 1684.5,
      "ch": 7,
      "note": 36,
      "vel": 55,
      "dur": 80
    },
    {
      "t": 1684.6,
      "ch": 1,
      "note": 38,
      "vel": 88,
      "dur": 25
    },
    {
      "t": 1684.6,
      "ch": 1,
      "note": 40,
      "vel": 86,
      "dur": 25
    },
    {
      "t": 1684.7,
      "ch": 5,
      "note": 49,
      "vel": 40,
      "dur": 803
    },
    {
      "t": 1684.7,
      "ch": 1,
      "note": 42,
      "vel": 99,
      "dur": 25
    },
    {
      "t": 1684.8,
      "ch": 0,
      "note": 36,
      "vel": 93,
      "dur": 55
    },
    {
      "t": 1684.8,
      "ch": 1,
      "note": 36,
      "vel": 112,
      "dur": 25
    },
    {
      "t": 1684.8,
      "ch": 7,
      "note": 48,
      "vel": 79,
      "dur": 80
    },
    {
      "t": 1684.8,
      "ch": 7,
      "note": 36,
      "vel": 74,
      "dur": 80
    },
    {
      "t": 1684.9,
      "ch": 1,
      "note": 38,
      "vel": 107,
      "dur": 25
    },
    {
      "t": 1684.9,
      "ch": 1,
      "note": 40,
      "vel": 90,
      "dur": 25
    },
    {
      "t": 1685,
      "ch": 7,
      "note": 45,
      "vel": 70,
      "dur": 80
    },
    {
      "t": 1685,
      "ch": 7,
      "note": 38,
      "vel": 64,
      "dur": 80
    },
    {
      "t": 1685,
      "ch": 1,
      "note": 42,
      "vel": 91,
      "dur": 25
    },
    {
      "t": 1685.1,
      "ch": 1,
      "note": 36,
      "vel": 68,
      "dur": 25
    },
    {
      "t": 1685.2,
      "ch": 1,
      "note": 38,
      "vel": 89,
      "dur": 25
    },
    {
      "t": 1685.2,
      "ch": 1,
      "note": 40,
      "vel": 105,
      "dur": 25
    },
    {
      "t": 1685.3,
      "ch": 4,
      "note": 58,
      "vel": 92,
      "dur": 2350
    },
    {
      "t": 1685.3,
      "ch": 3,
      "note": 35,
      "vel": 77,
      "dur": 2400
    },
    {
      "t": 1685.3,
      "ch": 1,
      "note": 42,
      "vel": 103,
      "dur": 25
    },
    {
      "t": 1685.4,
      "ch": 0,
      "note": 36,
      "vel": 94,
      "dur": 55
    },
    {
      "t": 1685.4,
      "ch": 1,
      "note": 36,
      "vel": 127,
      "dur": 25
    },
    {
      "t": 1685.4,
      "ch": 7,
      "note": 48,
      "vel": 81,
      "dur": 80
    },
    {
      "t": 1685.4,
      "ch": 7,
      "note": 36,
      "vel": 69,
      "dur": 80
    },
    {
      "t": 1685.5,
      "ch": 1,
      "note": 38,
      "vel": 118,
      "dur": 25
    },
    {
      "t": 1685.5,
      "ch": 1,
      "note": 40,
      "vel": 76,
      "dur": 25
    },
    {
      "t": 1685.6,
      "ch": 5,
      "note": 61,
      "vel": 78,
      "dur": 798
    },
    {
      "t": 1685.6,
      "ch": 1,
      "note": 42,
      "vel": 72,
      "dur": 25
    },
    {
      "t": 1685.7,
      "ch": 1,
      "note": 36,
      "vel": 87,
      "dur": 25
    },
    {
      "t": 1685.7,
      "ch": 7,
      "note": 45,
      "vel": 52,
      "dur": 80
    },
    {
      "t": 1685.7,
      "ch": 7,
      "note": 36,
      "vel": 61,
      "dur": 80
    },
    {
      "t": 1685.7,
      "ch": 7,
      "note": 38,
      "vel": 64,
      "dur": 80
    },
    {
      "t": 1685.7,
      "ch": 5,
      "note": 59,
      "vel": 69,
      "dur": 797
    },
    {
      "t": 1685.7,
      "ch": 6,
      "note": 64,
      "vel": 26,
      "dur": 531
    },
    {
      "t": 1685.8,
      "ch": 1,
      "note": 38,
      "vel": 97,
      "dur": 25
    },
    {
      "t": 1685.8,
      "ch": 6,
      "note": 66,
      "vel": 29,
      "dur": 400
    },
    {
      "t": 1685.8,
      "ch": 1,
      "note": 40,
      "vel": 102,
      "dur": 25
    },
    {
      "t": 1685.9,
      "ch": 1,
      "note": 42,
      "vel": 85,
      "dur": 25
    },
    {
      "t": 1686,
      "ch": 0,
      "note": 36,
      "vel": 92,
      "dur": 55
    },
    {
      "t": 1686,
      "ch": 1,
      "note": 36,
      "vel": 100,
      "dur": 25
    },
    {
      "t": 1686,
      "ch": 7,
      "note": 48,
      "vel": 62,
      "dur": 80
    },
    {
      "t": 1686,
      "ch": 7,
      "note": 36,
      "vel": 76,
      "dur": 80
    },
    {
      "t": 1686,
      "ch": 6,
      "note": 61,
      "vel": 70,
      "dur": 530
    },
    {
      "t": 1686,
      "ch": 5,
      "note": 71,
      "vel": 64,
      "dur": 795
    },
    {
      "t": 1686.1,
      "ch": 1,
      "note": 38,
      "vel": 109,
      "dur": 25
    },
    {
      "t": 1686.1,
      "ch": 1,
      "note": 40,
      "vel": 103,
      "dur": 25
    },
    {
      "t": 1686.2,
      "ch": 1,
      "note": 42,
      "vel": 93,
      "dur": 25
    },
    {
      "t": 1686.3,
      "ch": 1,
      "note": 36,
      "vel": 101,
      "dur": 25
    },
    {
      "t": 1686.4,
      "ch": 1,
      "note": 38,
      "vel": 110,
      "dur": 25
    },
    {
      "t": 1686.4,
      "ch": 6,
      "note": 73,
      "vel": 20,
      "dur": 400
    },
    {
      "t": 1686.4,
      "ch": 1,
      "note": 40,
      "vel": 82,
      "dur": 25
    },
    {
      "t": 1686.5,
      "ch": 1,
      "note": 42,
      "vel": 78,
      "dur": 25
    },
    {
      "t": 1686.6,
      "ch": 0,
      "note": 36,
      "vel": 113,
      "dur": 55
    },
    {
      "t": 1686.6,
      "ch": 1,
      "note": 36,
      "vel": 96,
      "dur": 25
    },
    {
      "t": 1686.6,
      "ch": 7,
      "note": 48,
      "vel": 70,
      "dur": 80
    },
    {
      "t": 1686.6,
      "ch": 7,
      "note": 45,
      "vel": 75,
      "dur": 80
    },
    {
      "t": 1686.6,
      "ch": 7,
      "note": 36,
      "vel": 79,
      "dur": 80
    },
    {
      "t": 1686.6,
      "ch": 7,
      "note": 38,
      "vel": 70,
      "dur": 80
    },
    {
      "t": 1686.6,
      "ch": 6,
      "note": 73,
      "vel": 57,
      "dur": 527
    },
    {
      "t": 1686.6,
      "ch": 5,
      "note": 51,
      "vel": 67,
      "dur": 791
    },
    {
      "t": 1686.7,
      "ch": 1,
      "note": 38,
      "vel": 91,
      "dur": 25
    },
    {
      "t": 1686.8,
      "ch": 1,
      "note": 40,
      "vel": 88,
      "dur": 25
    },
    {
      "t": 1686.8,
      "ch": 1,
      "note": 42,
      "vel": 88,
      "dur": 25
    },
    {
      "t": 1686.9,
      "ch": 1,
      "note": 36,
      "vel": 83,
      "dur": 25
    },
    {
      "t": 1686.9,
      "ch": 7,
      "note": 36,
      "vel": 50,
      "dur": 80
    },
    {
      "t": 1686.9,
      "ch": 5,
      "note": 71,
      "vel": 60,
      "dur": 789
    },
    {
      "t": 1687,
      "ch": 1,
      "note": 38,
      "vel": 76,
      "dur": 25
    },
    {
      "t": 1687,
      "ch": 1,
      "note": 40,
      "vel": 99,
      "dur": 25
    },
    {
      "t": 1687.1,
      "ch": 1,
      "note": 42,
      "vel": 105,
      "dur": 25
    },
    {
      "t": 1687.2,
      "ch": 0,
      "note": 36,
      "vel": 96,
      "dur": 55
    },
    {
      "t": 1687.2,
      "ch": 1,
      "note": 36,
      "vel": 115,
      "dur": 25
    },
    {
      "t": 1687.2,
      "ch": 7,
      "note": 48,
      "vel": 71,
      "dur": 80
    },
    {
      "t": 1687.2,
      "ch": 7,
      "note": 36,
      "vel": 72,
      "dur": 80
    },
    {
      "t": 1687.3,
      "ch": 1,
      "note": 38,
      "vel": 102,
      "dur": 25
    },
    {
      "t": 1687.3,
      "ch": 1,
      "note": 40,
      "vel": 66,
      "dur": 25
    },
    {
      "t": 1687.4,
      "ch": 7,
      "note": 45,
      "vel": 64,
      "dur": 80
    },
    {
      "t": 1687.4,
      "ch": 5,
      "note": 49,
      "vel": 59,
      "dur": 786
    },
    {
      "t": 1687.4,
      "ch": 7,
      "note": 38,
      "vel": 61,
      "dur": 80
    },
    {
      "t": 1687.4,
      "ch": 1,
      "note": 42,
      "vel": 82,
      "dur": 25
    },
    {
      "t": 1687.5,
      "ch": 1,
      "note": 36,
      "vel": 99,
      "dur": 25
    },
    {
      "t": 1687.5,
      "ch": 6,
      "note": 73,
      "vel": 52,
      "dur": 524
    },
    {
      "t": 1687.5,
      "ch": 5,
      "note": 73,
      "vel": 68,
      "dur": 786
    },
    {
      "t": 1687.6,
      "ch": 1,
      "note": 38,
      "vel": 83,
      "dur": 25
    },
    {
      "t": 1687.6,
      "ch": 6,
      "note": 52,
      "vel": 28,
      "dur": 400
    },
    {
      "t": 1687.6,
      "ch": 1,
      "note": 40,
      "vel": 88,
      "dur": 25
    },
    {
      "t": 1687.7,
      "ch": 4,
      "note": 58,
      "vel": 92,
      "dur": 2350
    },
    {
      "t": 1687.7,
      "ch": 3,
      "note": 44,
      "vel": 78,
      "dur": 2400
    },
    {
      "t": 1687.7,
      "ch": 1,
      "note": 42,
      "vel": 80,
      "dur": 25
    },
    {
      "t": 1687.8,
      "ch": 0,
      "note": 36,
      "vel": 95,
      "dur": 55
    },
    {
      "t": 1687.8,
      "ch": 1,
      "note": 36,
      "vel": 118,
      "dur": 25
    },
    {
      "t": 1687.8,
      "ch": 7,
      "note": 48,
      "vel": 71,
      "dur": 80
    },
    {
      "t": 1687.8,
      "ch": 7,
      "note": 36,
      "vel": 63,
      "dur": 80
    },
    {
      "t": 1687.9,
      "ch": 1,
      "note": 38,
      "vel": 127,
      "dur": 25
    },
    {
      "t": 1688,
      "ch": 1,
      "note": 40,
      "vel": 86,
      "dur": 25
    },
    {
      "t": 1688,
      "ch": 1,
      "note": 42,
      "vel": 98,
      "dur": 25
    },
    {
      "t": 1688.1,
      "ch": 1,
      "note": 36,
      "vel": 79,
      "dur": 25
    },
    {
      "t": 1688.1,
      "ch": 7,
      "note": 38,
      "vel": 68,
      "dur": 80
    },
    {
      "t": 1688.1,
      "ch": 7,
      "note": 45,
      "vel": 67,
      "dur": 80
    },
    {
      "t": 1688.1,
      "ch": 7,
      "note": 36,
      "vel": 63,
      "dur": 80
    },
    {
      "t": 1688.2,
      "ch": 1,
      "note": 38,
      "vel": 79,
      "dur": 25
    },
    {
      "t": 1688.3,
      "ch": 1,
      "note": 40,
      "vel": 79,
      "dur": 25
    },
    {
      "t": 1688.3,
      "ch": 1,
      "note": 42,
      "vel": 104,
      "dur": 25
    },
    {
      "t": 1688.4,
      "ch": 0,
      "note": 36,
      "vel": 91,
      "dur": 55
    },
    {
      "t": 1688.4,
      "ch": 1,
      "note": 36,
      "vel": 72,
      "dur": 25
    },
    {
      "t": 1688.4,
      "ch": 7,
      "note": 48,
      "vel": 78,
      "dur": 80
    },
    {
      "t": 1688.4,
      "ch": 7,
      "note": 36,
      "vel": 69,
      "dur": 80
    },
    {
      "t": 1688.5,
      "ch": 1,
      "note": 38,
      "vel": 97,
      "dur": 25
    },
    {
      "t": 1688.5,
      "ch": 1,
      "note": 40,
      "vel": 84,
      "dur": 25
    },
    {
      "t": 1688.6,
      "ch": 1,
      "note": 42,
      "vel": 96,
      "dur": 25
    },
    {
      "t": 1688.7,
      "ch": 1,
      "note": 36,
      "vel": 99,
      "dur": 25
    },
    {
      "t": 1688.8,
      "ch": 1,
      "note": 38,
      "vel": 108,
      "dur": 25
    },
    {
      "t": 1688.8,
      "ch": 1,
      "note": 40,
      "vel": 99,
      "dur": 25
    },
    {
      "t": 1688.9,
      "ch": 5,
      "note": 49,
      "vel": 50,
      "dur": 778
    },
    {
      "t": 1688.9,
      "ch": 1,
      "note": 42,
      "vel": 84,
      "dur": 25
    },
    {
      "t": 1689,
      "ch": 0,
      "note": 36,
      "vel": 116,
      "dur": 55
    },
    {
      "t": 1689,
      "ch": 1,
      "note": 36,
      "vel": 107,
      "dur": 25
    },
    {
      "t": 1689,
      "ch": 7,
      "note": 48,
      "vel": 71,
      "dur": 80
    },
    {
      "t": 1689,
      "ch": 7,
      "note": 45,
      "vel": 58,
      "dur": 80
    },
    {
      "t": 1689,
      "ch": 7,
      "note": 36,
      "vel": 69,
      "dur": 80
    },
    {
      "t": 1689,
      "ch": 7,
      "note": 38,
      "vel": 74,
      "dur": 80
    },
    {
      "t": 1689,
      "ch": 5,
      "note": 56,
      "vel": 56,
      "dur": 777
    },
    {
      "t": 1689,
      "ch": 6,
      "note": 52,
      "vel": 45,
      "dur": 518
    },
    {
      "t": 1689.1,
      "ch": 1,
      "note": 38,
      "vel": 94,
      "dur": 25
    },
    {
      "t": 1689.2,
      "ch": 1,
      "note": 40,
      "vel": 105,
      "dur": 25
    },
    {
      "t": 1689.2,
      "ch": 6,
      "note": 59,
      "vel": 38,
      "dur": 518
    },
    {
      "t": 1689.2,
      "ch": 6,
      "note": 54,
      "vel": 36,
      "dur": 400
    },
    {
      "t": 1689.2,
      "ch": 1,
      "note": 42,
      "vel": 91,
      "dur": 25
    },
    {
      "t": 1689.3,
      "ch": 1,
      "note": 36,
      "vel": 94,
      "dur": 25
    },
    {
      "t": 1689.3,
      "ch": 7,
      "note": 36,
      "vel": 75,
      "dur": 80
    },
    {
      "t": 1689.4,
      "ch": 1,
      "note": 38,
      "vel": 96,
      "dur": 25
    },
    {
      "t": 1689.4,
      "ch": 1,
      "note": 40,
      "vel": 90,
      "dur": 25
    },
    {
      "t": 1689.5,
      "ch": 1,
      "note": 42,
      "vel": 92,
      "dur": 25
    },
    {
      "t": 1689.6,
      "ch": 0,
      "note": 36,
      "vel": 89,
      "dur": 55
    },
    {
      "t": 1689.6,
      "ch": 1,
      "note": 36,
      "vel": 109,
      "dur": 25
    },
    {
      "t": 1689.6,
      "ch": 7,
      "note": 48,
      "vel": 64,
      "dur": 80
    },
    {
      "t": 1689.6,
      "ch": 7,
      "note": 36,
      "vel": 68,
      "dur": 80
    },
    {
      "t": 1689.7,
      "ch": 1,
      "note": 38,
      "vel": 79,
      "dur": 25
    },
    {
      "t": 1689.7,
      "ch": 1,
      "note": 40,
      "vel": 106,
      "dur": 25
    },
    {
      "t": 1689.8,
      "ch": 6,
      "note": 61,
      "vel": 48,
      "dur": 516
    },
    {
      "t": 1689.8,
      "ch": 7,
      "note": 45,
      "vel": 63,
      "dur": 80
    },
    {
      "t": 1689.8,
      "ch": 7,
      "note": 38,
      "vel": 68,
      "dur": 80
    },
    {
      "t": 1689.8,
      "ch": 1,
      "note": 42,
      "vel": 75,
      "dur": 25
    },
    {
      "t": 1689.9,
      "ch": 1,
      "note": 36,
      "vel": 67,
      "dur": 25
    },
    {
      "t": 1689.9,
      "ch": 5,
      "note": 71,
      "vel": 59,
      "dur": 774
    },
    {
      "t": 1690,
      "ch": 1,
      "note": 38,
      "vel": 102,
      "dur": 25
    },
    {
      "t": 1690,
      "ch": 1,
      "note": 40,
      "vel": 88,
      "dur": 25
    },
    {
      "t": 1690.1,
      "ch": 4,
      "note": 59,
      "vel": 80,
      "dur": 2350
    },
    {
      "t": 1690.1,
      "ch": 3,
      "note": 40,
      "vel": 81,
      "dur": 2400
    },
    {
      "t": 1690.1,
      "ch": 1,
      "note": 42,
      "vel": 102,
      "dur": 25
    },
    {
      "t": 1690.2,
      "ch": 0,
      "note": 36,
      "vel": 91,
      "dur": 55
    },
    {
      "t": 1690.2,
      "ch": 1,
      "note": 36,
      "vel": 114,
      "dur": 25
    },
    {
      "t": 1690.2,
      "ch": 7,
      "note": 48,
      "vel": 77,
      "dur": 80
    },
    {
      "t": 1690.2,
      "ch": 7,
      "note": 36,
      "vel": 67,
      "dur": 80
    },
    {
      "t": 1690.2,
      "ch": 6,
      "note": 61,
      "vel": 44,
      "dur": 515
    },
    {
      "t": 1690.2,
      "ch": 5,
      "note": 58,
      "vel": 75,
      "dur": 773
    },
    {
      "t": 1690.3,
      "ch": 1,
      "note": 38,
      "vel": 117,
      "dur": 25
    },
    {
      "t": 1690.3,
      "ch": 1,
      "note": 40,
      "vel": 94,
      "dur": 25
    },
    {
      "t": 1690.4,
      "ch": 6,
      "note": 73,
      "vel": 16,
      "dur": 400
    },
    {
      "t": 1690.4,
      "ch": 1,
      "note": 42,
      "vel": 84,
      "dur": 25
    },
    {
      "t": 1690.5,
      "ch": 1,
      "note": 36,
      "vel": 90,
      "dur": 25
    },
    {
      "t": 1690.5,
      "ch": 7,
      "note": 38,
      "vel": 69,
      "dur": 80
    },
    {
      "t": 1690.5,
      "ch": 7,
      "note": 45,
      "vel": 63,
      "dur": 80
    },
    {
      "t": 1690.5,
      "ch": 7,
      "note": 36,
      "vel": 56,
      "dur": 80
    },
    {
      "t": 1690.6,
      "ch": 1,
      "note": 38,
      "vel": 102,
      "dur": 25
    },
    {
      "t": 1690.6,
      "ch": 1,
      "note": 40,
      "vel": 75,
      "dur": 25
    },
    {
      "t": 1690.7,
      "ch": 1,
      "note": 42,
      "vel": 87,
      "dur": 25
    },
    {
      "t": 1690.8,
      "ch": 0,
      "note": 36,
      "vel": 89,
      "dur": 55
    },
    {
      "t": 1690.8,
      "ch": 1,
      "note": 36,
      "vel": 105,
      "dur": 25
    },
    {
      "t": 1690.8,
      "ch": 7,
      "note": 48,
      "vel": 77,
      "dur": 80
    },
    {
      "t": 1690.8,
      "ch": 7,
      "note": 36,
      "vel": 73,
      "dur": 80
    },
    {
      "t": 1690.8,
      "ch": 6,
      "note": 73,
      "vel": 40,
      "dur": 514
    },
    {
      "t": 1690.9,
      "ch": 1,
      "note": 38,
      "vel": 87,
      "dur": 25
    },
    {
      "t": 1691,
      "ch": 1,
      "note": 40,
      "vel": 59,
      "dur": 25
    },
    {
      "t": 1691,
      "ch": 1,
      "note": 42,
      "vel": 104,
      "dur": 25
    },
    {
      "t": 1691.1,
      "ch": 1,
      "note": 36,
      "vel": 84,
      "dur": 25
    },
    {
      "t": 1691.1,
      "ch": 5,
      "note": 63,
      "vel": 61,
      "dur": 770
    },
    {
      "t": 1691.2,
      "ch": 1,
      "note": 38,
      "vel": 78,
      "dur": 25
    },
    {
      "t": 1691.3,
      "ch": 1,
      "note": 40,
      "vel": 95,
      "dur": 25
    },
    {
      "t": 1691.3,
      "ch": 1,
      "note": 42,
      "vel": 64,
      "dur": 25
    },
    {
      "t": 1691.4,
      "ch": 0,
      "note": 36,
      "vel": 111,
      "dur": 55
    },
    {
      "t": 1691.4,
      "ch": 1,
      "note": 36,
      "vel": 107,
      "dur": 25
    },
    {
      "t": 1691.4,
      "ch": 7,
      "note": 48,
      "vel": 62,
      "dur": 80
    },
    {
      "t": 1691.4,
      "ch": 7,
      "note": 45,
      "vel": 61,
      "dur": 80
    },
    {
      "t": 1691.4,
      "ch": 7,
      "note": 36,
      "vel": 72,
      "dur": 80
    },
    {
      "t": 1691.4,
      "ch": 7,
      "note": 38,
      "vel": 57,
      "dur": 80
    },
    {
      "t": 1691.5,
      "ch": 1,
      "note": 38,
      "vel": 119,
      "dur": 25
    },
    {
      "t": 1691.5,
      "ch": 1,
      "note": 40,
      "vel": 92,
      "dur": 25
    },
    {
      "t": 1691.6,
      "ch": 6,
      "note": 68,
      "vel": 41,
      "dur": 400
    },
    {
      "t": 1691.6,
      "ch": 1,
      "note": 42,
      "vel": 92,
      "dur": 25
    },
    {
      "t": 1691.7,
      "ch": 1,
      "note": 36,
      "vel": 79,
      "dur": 25
    },
    {
      "t": 1691.7,
      "ch": 7,
      "note": 36,
      "vel": 58,
      "dur": 80
    },
    {
      "t": 1691.8,
      "ch": 1,
      "note": 38,
      "vel": 102,
      "dur": 25
    },
    {
      "t": 1691.8,
      "ch": 1,
      "note": 40,
      "vel": 99,
      "dur": 25
    },
    {
      "t": 1691.9,
      "ch": 1,
      "note": 42,
      "vel": 82,
      "dur": 25
    },
    {
      "t": 1692,
      "ch": 0,
      "note": 36,
      "vel": 93,
      "dur": 55
    },
    {
      "t": 1692,
      "ch": 1,
      "note": 36,
      "vel": 99,
      "dur": 25
    },
    {
      "t": 1692,
      "ch": 7,
      "note": 48,
      "vel": 57,
      "dur": 80
    },
    {
      "t": 1692,
      "ch": 7,
      "note": 36,
      "vel": 64,
      "dur": 80
    },
    {
      "t": 1692.1,
      "ch": 1,
      "note": 38,
      "vel": 90,
      "dur": 25
    },
    {
      "t": 1692.1,
      "ch": 1,
      "note": 40,
      "vel": 88,
      "dur": 25
    },
    {
      "t": 1692.2,
      "ch": 7,
      "note": 38,
      "vel": 64,
      "dur": 80
    },
    {
      "t": 1692.2,
      "ch": 7,
      "note": 45,
      "vel": 75,
      "dur": 80
    },
    {
      "t": 1692.2,
      "ch": 5,
      "note": 73,
      "vel": 65,
      "dur": 770
    },
    {
      "t": 1692.2,
      "ch": 6,
      "note": 61,
      "vel": 45,
      "dur": 513
    },
    {
      "t": 1692.2,
      "ch": 1,
      "note": 42,
      "vel": 89,
      "dur": 25
    },
    {
      "t": 1692.3,
      "ch": 1,
      "note": 36,
      "vel": 62,
      "dur": 25
    },
    {
      "t": 1692.3,
      "ch": 6,
      "note": 66,
      "vel": 54,
      "dur": 513
    },
    {
      "t": 1692.4,
      "ch": 1,
      "note": 38,
      "vel": 101,
      "dur": 25
    },
    {
      "t": 1692.5,
      "ch": 1,
      "note": 40,
      "vel": 85,
      "dur": 25
    },
    {
      "t": 1692.5,
      "ch": 4,
      "note": 58,
      "vel": 93,
      "dur": 2350
    },
    {
      "t": 1692.5,
      "ch": 3,
      "note": 44,
      "vel": 81,
      "dur": 2400
    },
    {
      "t": 1692.5,
      "ch": 1,
      "note": 42,
      "vel": 102,
      "dur": 25
    },
    {
      "t": 1692.5,
      "ch": 6,
      "note": 73,
      "vel": 41,
      "dur": 400
    },
    {
      "t": 1692.6,
      "ch": 0,
      "note": 36,
      "vel": 93,
      "dur": 55
    },
    {
      "t": 1692.6,
      "ch": 1,
      "note": 36,
      "vel": 95,
      "dur": 25
    },
    {
      "t": 1692.6,
      "ch": 7,
      "note": 48,
      "vel": 68,
      "dur": 80
    },
    {
      "t": 1692.6,
      "ch": 7,
      "note": 36,
      "vel": 59,
      "dur": 80
    },
    {
      "t": 1692.6,
      "ch": 5,
      "note": 49,
      "vel": 79,
      "dur": 770
    },
    {
      "t": 1692.7,
      "ch": 1,
      "note": 38,
      "vel": 90,
      "dur": 25
    },
    {
      "t": 1692.7,
      "ch": 1,
      "note": 40,
      "vel": 78,
      "dur": 25
    },
    {
      "t": 1692.8,
      "ch": 6,
      "note": 73,
      "vel": 42,
      "dur": 513
    },
    {
      "t": 1692.8,
      "ch": 6,
      "note": 56,
      "vel": 49,
      "dur": 400
    },
    {
      "t": 1692.8,
      "ch": 1,
      "note": 42,
      "vel": 96,
      "dur": 25
    },
    {
      "t": 1692.9,
      "ch": 1,
      "note": 36,
      "vel": 73,
      "dur": 25
    },
    {
      "t": 1692.9,
      "ch": 7,
      "note": 45,
      "vel": 58,
      "dur": 80
    },
    {
      "t": 1692.9,
      "ch": 7,
      "note": 38,
      "vel": 65,
      "dur": 80
    },
    {
      "t": 1692.9,
      "ch": 7,
      "note": 36,
      "vel": 56,
      "dur": 80
    },
    {
      "t": 1693,
      "ch": 1,
      "note": 38,
      "vel": 108,
      "dur": 25
    },
    {
      "t": 1693,
      "ch": 1,
      "note": 40,
      "vel": 88,
      "dur": 25
    },
    {
      "t": 1693.1,
      "ch": 1,
      "note": 42,
      "vel": 86,
      "dur": 25
    },
    {
      "t": 1693.2,
      "ch": 0,
      "note": 36,
      "vel": 96,
      "dur": 55
    },
    {
      "t": 1693.2,
      "ch": 1,
      "note": 36,
      "vel": 117,
      "dur": 25
    },
    {
      "t": 1693.2,
      "ch": 7,
      "note": 48,
      "vel": 64,
      "dur": 80
    },
    {
      "t": 1693.2,
      "ch": 7,
      "note": 36,
      "vel": 67,
      "dur": 80
    },
    {
      "t": 1693.3,
      "ch": 1,
      "note": 38,
      "vel": 98,
      "dur": 25
    },
    {
      "t": 1693.3,
      "ch": 1,
      "note": 40,
      "vel": 106,
      "dur": 25
    },
    {
      "t": 1693.4,
      "ch": 6,
      "note": 52,
      "vel": 52,
      "dur": 514
    },
    {
      "t": 1693.4,
      "ch": 1,
      "note": 42,
      "vel": 94,
      "dur": 25
    },
    {
      "t": 1693.5,
      "ch": 1,
      "note": 36,
      "vel": 90,
      "dur": 25
    },
    {
      "t": 1693.5,
      "ch": 5,
      "note": 54,
      "vel": 70,
      "dur": 771
    },
    {
      "t": 1693.6,
      "ch": 1,
      "note": 38,
      "vel": 96,
      "dur": 25
    },
    {
      "t": 1693.7,
      "ch": 1,
      "note": 40,
      "vel": 103,
      "dur": 25
    },
    {
      "t": 1693.7,
      "ch": 1,
      "note": 42,
      "vel": 106,
      "dur": 25
    },
    {
      "t": 1693.8,
      "ch": 0,
      "note": 36,
      "vel": 117,
      "dur": 55
    },
    {
      "t": 1693.8,
      "ch": 1,
      "note": 36,
      "vel": 116,
      "dur": 25
    },
    {
      "t": 1693.8,
      "ch": 7,
      "note": 48,
      "vel": 82,
      "dur": 80
    },
    {
      "t": 1693.8,
      "ch": 7,
      "note": 45,
      "vel": 80,
      "dur": 80
    },
    {
      "t": 1693.8,
      "ch": 7,
      "note": 36,
      "vel": 68,
      "dur": 80
    },
    {
      "t": 1693.8,
      "ch": 7,
      "note": 38,
      "vel": 70,
      "dur": 80
    },
    {
      "t": 1693.8,
      "ch": 5,
      "note": 71,
      "vel": 66,
      "dur": 772
    },
    {
      "t": 1693.8,
      "ch": 6,
      "note": 73,
      "vel": 40,
      "dur": 515
    },
    {
      "t": 1693.9,
      "ch": 1,
      "note": 38,
      "vel": 101,
      "dur": 25
    },
    {
      "t": 1693.9,
      "ch": 1,
      "note": 40,
      "vel": 89,
      "dur": 25
    },
    {
      "t": 1694,
      "ch": 1,
      "note": 42,
      "vel": 68,
      "dur": 25
    },
    {
      "t": 1694.1,
      "ch": 1,
      "note": 36,
      "vel": 94,
      "dur": 25
    },
    {
      "t": 1694.1,
      "ch": 7,
      "note": 36,
      "vel": 59,
      "dur": 80
    },
    {
      "t": 1694.2,
      "ch": 6,
      "note": 73,
      "vel": 43,
      "dur": 400
    },
    {
      "t": 1694.2,
      "ch": 1,
      "note": 38,
      "vel": 102,
      "dur": 25
    },
    {
      "t": 1694.2,
      "ch": 1,
      "note": 40,
      "vel": 93,
      "dur": 25
    },
    {
      "t": 1694.3,
      "ch": 1,
      "note": 42,
      "vel": 110,
      "dur": 25
    },
    {
      "t": 1694.4,
      "ch": 0,
      "note": 36,
      "vel": 93,
      "dur": 55
    },
    {
      "t": 1694.4,
      "ch": 1,
      "note": 36,
      "vel": 108,
      "dur": 25
    },
    {
      "t": 1694.4,
      "ch": 7,
      "note": 48,
      "vel": 70,
      "dur": 80
    },
    {
      "t": 1694.4,
      "ch": 7,
      "note": 36,
      "vel": 56,
      "dur": 80
    },
    {
      "t": 1694.5,
      "ch": 1,
      "note": 38,
      "vel": 119,
      "dur": 25
    },
    {
      "t": 1694.5,
      "ch": 1,
      "note": 40,
      "vel": 110,
      "dur": 25
    },
    {
      "t": 1694.6,
      "ch": 7,
      "note": 45,
      "vel": 67,
      "dur": 80
    },
    {
      "t": 1694.6,
      "ch": 7,
      "note": 38,
      "vel": 59,
      "dur": 80
    },
    {
      "t": 1694.6,
      "ch": 1,
      "note": 42,
      "vel": 90,
      "dur": 25
    },
    {
      "t": 1694.7,
      "ch": 1,
      "note": 36,
      "vel": 96,
      "dur": 25
    },
    {
      "t": 1694.7,
      "ch": 5,
      "note": 58,
      "vel": 75,
      "dur": 776
    },
    {
      "t": 1694.7,
      "ch": 6,
      "note": 59,
      "vel": 42,
      "dur": 517
    },
    {
      "t": 1694.8,
      "ch": 1,
      "note": 38,
      "vel": 94,
      "dur": 25
    },
    {
      "t": 1694.8,
      "ch": 1,
      "note": 40,
      "vel": 84,
      "dur": 25
    },
    {
      "t": 1694.9,
      "ch": 5,
      "note": 63,
      "vel": 64,
      "dur": 776
    },
    {
      "t": 1694.9,
      "ch": 2,
      "note": 49,
      "vel": 63,
      "dur": 18000
    },
    {
      "t": 1694.9,
      "ch": 2,
      "note": 61,
      "vel": 44,
      "dur": 18000
    },
    {
      "t": 1694.9,
      "ch": 4,
      "note": 58,
      "vel": 97,
      "dur": 2350
    },
    {
      "t": 1694.9,
      "ch": 3,
      "note": 35,
      "vel": 80,
      "dur": 2400
    },
    {
      "t": 1694.9,
      "ch": 1,
      "note": 42,
      "vel": 98,
      "dur": 25
    },
    {
      "t": 1695,
      "ch": 0,
      "note": 36,
      "vel": 88,
      "dur": 55
    },
    {
      "t": 1695,
      "ch": 1,
      "note": 36,
      "vel": 92,
      "dur": 25
    },
    {
      "t": 1695,
      "ch": 7,
      "note": 48,
      "vel": 63,
      "dur": 80
    },
    {
      "t": 1695,
      "ch": 7,
      "note": 36,
      "vel": 66,
      "dur": 80
    },
    {
      "t": 1695,
      "ch": 5,
      "note": 51,
      "vel": 60,
      "dur": 777
    },
    {
      "t": 1695.1,
      "ch": 1,
      "note": 38,
      "vel": 99,
      "dur": 25
    },
    {
      "t": 1695.1,
      "ch": 6,
      "note": 64,
      "vel": 37,
      "dur": 400
    },
    {
      "t": 1695.1,
      "ch": 1,
      "note": 40,
      "vel": 82,
      "dur": 25
    },
    {
      "t": 1695.2,
      "ch": 1,
      "note": 42,
      "vel": 77,
      "dur": 25
    },
    {
      "t": 1695.3,
      "ch": 1,
      "note": 36,
      "vel": 91,
      "dur": 25
    },
    {
      "t": 1695.3,
      "ch": 7,
      "note": 36,
      "vel": 71,
      "dur": 80
    },
    {
      "t": 1695.3,
      "ch": 7,
      "note": 45,
      "vel": 49,
      "dur": 80
    },
    {
      "t": 1695.3,
      "ch": 7,
      "note": 38,
      "vel": 53,
      "dur": 80
    },
    {
      "t": 1695.4,
      "ch": 1,
      "note": 38,
      "vel": 83,
      "dur": 25
    },
    {
      "t": 1695.4,
      "ch": 1,
      "note": 40,
      "vel": 67,
      "dur": 25
    },
    {
      "t": 1695.5,
      "ch": 5,
      "note": 64,
      "vel": 40,
      "dur": 779
    },
    {
      "t": 1695.5,
      "ch": 1,
      "note": 42,
      "vel": 100,
      "dur": 25
    },
    {
      "t": 1695.6,
      "ch": 0,
      "note": 36,
      "vel": 89,
      "dur": 55
    },
    {
      "t": 1695.6,
      "ch": 1,
      "note": 36,
      "vel": 102,
      "dur": 25
    },
    {
      "t": 1695.6,
      "ch": 7,
      "note": 48,
      "vel": 78,
      "dur": 80
    },
    {
      "t": 1695.6,
      "ch": 7,
      "note": 36,
      "vel": 65,
      "dur": 80
    },
    {
      "t": 1695.7,
      "ch": 1,
      "note": 38,
      "vel": 124,
      "dur": 25
    },
    {
      "t": 1695.7,
      "ch": 1,
      "note": 40,
      "vel": 90,
      "dur": 25
    },
    {
      "t": 1695.8,
      "ch": 1,
      "note": 42,
      "vel": 82,
      "dur": 25
    },
    {
      "t": 1695.9,
      "ch": 1,
      "note": 36,
      "vel": 103,
      "dur": 25
    },
    {
      "t": 1695.9,
      "ch": 5,
      "note": 51,
      "vel": 49,
      "dur": 782
    },
    {
      "t": 1696,
      "ch": 1,
      "note": 38,
      "vel": 92,
      "dur": 25
    },
    {
      "t": 1696,
      "ch": 1,
      "note": 40,
      "vel": 93,
      "dur": 25
    },
    {
      "t": 1696.1,
      "ch": 1,
      "note": 42,
      "vel": 80,
      "dur": 25
    },
    {
      "t": 1696.2,
      "ch": 6,
      "note": 54,
      "vel": 44,
      "dur": 400
    },
    {
      "t": 1696.2,
      "ch": 0,
      "note": 36,
      "vel": 108,
      "dur": 55
    },
    {
      "t": 1696.2,
      "ch": 1,
      "note": 36,
      "vel": 90,
      "dur": 25
    },
    {
      "t": 1696.2,
      "ch": 7,
      "note": 48,
      "vel": 74,
      "dur": 80
    },
    {
      "t": 1696.2,
      "ch": 7,
      "note": 45,
      "vel": 66,
      "dur": 80
    },
    {
      "t": 1696.2,
      "ch": 7,
      "note": 36,
      "vel": 68,
      "dur": 80
    },
    {
      "t": 1696.2,
      "ch": 7,
      "note": 38,
      "vel": 60,
      "dur": 80
    },
    {
      "t": 1696.3,
      "ch": 1,
      "note": 38,
      "vel": 109,
      "dur": 25
    },
    {
      "t": 1696.3,
      "ch": 1,
      "note": 40,
      "vel": 105,
      "dur": 25
    },
    {
      "t": 1696.4,
      "ch": 6,
      "note": 54,
      "vel": 48,
      "dur": 523
    },
    {
      "t": 1696.4,
      "ch": 1,
      "note": 42,
      "vel": 83,
      "dur": 25
    },
    {
      "t": 1696.5,
      "ch": 1,
      "note": 36,
      "vel": 84,
      "dur": 25
    },
    {
      "t": 1696.5,
      "ch": 5,
      "note": 63,
      "vel": 66,
      "dur": 785
    },
    {
      "t": 1696.5,
      "ch": 7,
      "note": 36,
      "vel": 59,
      "dur": 80
    },
    {
      "t": 1696.6,
      "ch": 1,
      "note": 38,
      "vel": 101,
      "dur": 25
    },
    {
      "t": 1696.6,
      "ch": 1,
      "note": 40,
      "vel": 99,
      "dur": 25
    },
    {
      "t": 1696.7,
      "ch": 5,
      "note": 37,
      "vel": 49,
      "dur": 786
    },
    {
      "t": 1696.7,
      "ch": 1,
      "note": 42,
      "vel": 93,
      "dur": 25
    },
    {
      "t": 1696.8,
      "ch": 0,
      "note": 36,
      "vel": 98,
      "dur": 55
    },
    {
      "t": 1696.8,
      "ch": 1,
      "note": 36,
      "vel": 103,
      "dur": 25
    },
    {
      "t": 1696.8,
      "ch": 7,
      "note": 48,
      "vel": 71,
      "dur": 80
    },
    {
      "t": 1696.8,
      "ch": 7,
      "note": 36,
      "vel": 74,
      "dur": 80
    },
    {
      "t": 1696.8,
      "ch": 6,
      "note": 66,
      "vel": 40,
      "dur": 525
    },
    {
      "t": 1696.9,
      "ch": 1,
      "note": 38,
      "vel": 117,
      "dur": 25
    },
    {
      "t": 1696.9,
      "ch": 6,
      "note": 70,
      "vel": 40,
      "dur": 400
    },
    {
      "t": 1696.9,
      "ch": 1,
      "note": 40,
      "vel": 95,
      "dur": 25
    },
    {
      "t": 1697,
      "ch": 7,
      "note": 45,
      "vel": 68,
      "dur": 80
    },
    {
      "t": 1697,
      "ch": 7,
      "note": 38,
      "vel": 72,
      "dur": 80
    },
    {
      "t": 1697,
      "ch": 1,
      "note": 42,
      "vel": 109,
      "dur": 25
    },
    {
      "t": 1697.1,
      "ch": 1,
      "note": 36,
      "vel": 99,
      "dur": 25
    },
    {
      "t": 1697.2,
      "ch": 1,
      "note": 38,
      "vel": 107,
      "dur": 25
    },
    {
      "t": 1697.2,
      "ch": 1,
      "note": 40,
      "vel": 126,
      "dur": 25
    },
    {
      "t": 1697.3,
      "ch": 5,
      "note": 58,
      "vel": 52,
      "dur": 790
    },
    {
      "t": 1697.3,
      "ch": 1,
      "note": 42,
      "vel": 112,
      "dur": 25
    },
    {
      "t": 1697.4,
      "ch": 0,
      "note": 36,
      "vel": 90,
      "dur": 55
    },
    {
      "t": 1697.4,
      "ch": 1,
      "note": 36,
      "vel": 101,
      "dur": 25
    },
    {
      "t": 1697.4,
      "ch": 7,
      "note": 48,
      "vel": 65,
      "dur": 80
    },
    {
      "t": 1697.4,
      "ch": 7,
      "note": 36,
      "vel": 78,
      "dur": 80
    },
    {
      "t": 1697.4,
      "ch": 5,
      "note": 51,
      "vel": 47,
      "dur": 791
    },
    {
      "t": 1697.5,
      "ch": 1,
      "note": 38,
      "vel": 106,
      "dur": 25
    },
    {
      "t": 1697.5,
      "ch": 1,
      "note": 40,
      "vel": 101,
      "dur": 25
    },
    {
      "t": 1697.6,
      "ch": 6,
      "note": 54,
      "vel": 25,
      "dur": 528
    },
    {
      "t": 1697.6,
      "ch": 6,
      "note": 61,
      "vel": 27,
      "dur": 400
    },
    {
      "t": 1697.6,
      "ch": 1,
      "note": 42,
      "vel": 105,
      "dur": 25
    },
    {
      "t": 1697.7,
      "ch": 1,
      "note": 36,
      "vel": 108,
      "dur": 25
    },
    {
      "t": 1697.7,
      "ch": 7,
      "note": 36,
      "vel": 57,
      "dur": 80
    },
    {
      "t": 1697.7,
      "ch": 7,
      "note": 45,
      "vel": 62,
      "dur": 80
    },
    {
      "t": 1697.7,
      "ch": 7,
      "note": 38,
      "vel": 61,
      "dur": 80
    },
    {
      "t": 1697.8,
      "ch": 1,
      "note": 38,
      "vel": 105,
      "dur": 25
    },
    {
      "t": 1697.8,
      "ch": 1,
      "note": 40,
      "vel": 106,
      "dur": 25
    },
    {
      "t": 1697.9,
      "ch": 1,
      "note": 42,
      "vel": 101,
      "dur": 25
    },
    {
      "t": 1698,
      "ch": 0,
      "note": 36,
      "vel": 89,
      "dur": 55
    },
    {
      "t": 1698,
      "ch": 1,
      "note": 36,
      "vel": 117,
      "dur": 25
    },
    {
      "t": 1698,
      "ch": 7,
      "note": 48,
      "vel": 76,
      "dur": 80
    },
    {
      "t": 1698,
      "ch": 7,
      "note": 36,
      "vel": 69,
      "dur": 80
    },
    {
      "t": 1698,
      "ch": 6,
      "note": 66,
      "vel": 43,
      "dur": 530
    },
    {
      "t": 1698.1,
      "ch": 1,
      "note": 38,
      "vel": 106,
      "dur": 25
    },
    {
      "t": 1698.2,
      "ch": 1,
      "note": 40,
      "vel": 82,
      "dur": 25
    },
    {
      "t": 1698.2,
      "ch": 6,
      "note": 48,
      "vel": 41,
      "dur": 531
    },
    {
      "t": 1698.2,
      "ch": 1,
      "note": 42,
      "vel": 82,
      "dur": 25
    },
    {
      "t": 1698.3,
      "ch": 1,
      "note": 36,
      "vel": 117,
      "dur": 25
    },
    {
      "t": 1698.4,
      "ch": 1,
      "note": 38,
      "vel": 92,
      "dur": 25
    },
    {
      "t": 1698.4,
      "ch": 1,
      "note": 40,
      "vel": 84,
      "dur": 25
    },
    {
      "t": 1698.5,
      "ch": 1,
      "note": 42,
      "vel": 110,
      "dur": 25
    },
    {
      "t": 1698.6,
      "ch": 0,
      "note": 36,
      "vel": 109,
      "dur": 55
    },
    {
      "t": 1698.6,
      "ch": 1,
      "note": 36,
      "vel": 118,
      "dur": 25
    },
    {
      "t": 1698.6,
      "ch": 7,
      "note": 48,
      "vel": 73,
      "dur": 80
    },
    {
      "t": 1698.6,
      "ch": 7,
      "note": 45,
      "vel": 74,
      "dur": 80
    },
    {
      "t": 1698.6,
      "ch": 7,
      "note": 36,
      "vel": 74,
      "dur": 80
    },
    {
      "t": 1698.6,
      "ch": 7,
      "note": 38,
      "vel": 73,
      "dur": 80
    },
    {
      "t": 1698.6,
      "ch": 6,
      "note": 54,
      "vel": 37,
      "dur": 533
    },
    {
      "t": 1698.7,
      "ch": 1,
      "note": 38,
      "vel": 110,
      "dur": 25
    },
    {
      "t": 1698.8,
      "ch": 1,
      "note": 40,
      "vel": 87,
      "dur": 25
    },
    {
      "t": 1698.8,
      "ch": 1,
      "note": 42,
      "vel": 90,
      "dur": 25
    },
    {
      "t": 1698.9,
      "ch": 1,
      "note": 36,
      "vel": 98,
      "dur": 25
    },
    {
      "t": 1698.9,
      "ch": 7,
      "note": 36,
      "vel": 73,
      "dur": 80
    },
    {
      "t": 1699,
      "ch": 1,
      "note": 38,
      "vel": 100,
      "dur": 25
    },
    {
      "t": 1699,
      "ch": 1,
      "note": 40,
      "vel": 103,
      "dur": 25
    },
    {
      "t": 1699.1,
      "ch": 1,
      "note": 42,
      "vel": 101,
      "dur": 25
    },
    {
      "t": 1699.2,
      "ch": 0,
      "note": 36,
      "vel": 87,
      "dur": 55
    },
    {
      "t": 1699.2,
      "ch": 1,
      "note": 36,
      "vel": 80,
      "dur": 25
    },
    {
      "t": 1699.2,
      "ch": 7,
      "note": 48,
      "vel": 69,
      "dur": 80
    },
    {
      "t": 1699.2,
      "ch": 7,
      "note": 36,
      "vel": 62,
      "dur": 80
    },
    {
      "t": 1699.2,
      "ch": 5,
      "note": 64,
      "vel": 47,
      "dur": 803
    },
    {
      "t": 1699.3,
      "ch": 1,
      "note": 38,
      "vel": 101,
      "dur": 25
    },
    {
      "t": 1699.3,
      "ch": 1,
      "note": 40,
      "vel": 112,
      "dur": 25
    },
    {
      "t": 1699.4,
      "ch": 7,
      "note": 45,
      "vel": 59,
      "dur": 80
    },
    {
      "t": 1699.4,
      "ch": 7,
      "note": 38,
      "vel": 62,
      "dur": 80
    },
    {
      "t": 1699.4,
      "ch": 1,
      "note": 42,
      "vel": 98,
      "dur": 25
    },
    {
      "t": 1699.5,
      "ch": 1,
      "note": 36,
      "vel": 89,
      "dur": 25
    },
    {
      "t": 1699.6,
      "ch": 1,
      "note": 38,
      "vel": 100,
      "dur": 25
    },
    {
      "t": 1699.6,
      "ch": 1,
      "note": 40,
      "vel": 103,
      "dur": 25
    },
    {
      "t": 1699.7,
      "ch": 1,
      "note": 42,
      "vel": 94,
      "dur": 25
    },
    {
      "t": 1699.8,
      "ch": 0,
      "note": 36,
      "vel": 96,
      "dur": 55
    },
    {
      "t": 1699.8,
      "ch": 1,
      "note": 36,
      "vel": 104,
      "dur": 25
    },
    {
      "t": 1699.8,
      "ch": 7,
      "note": 48,
      "vel": 78,
      "dur": 80
    },
    {
      "t": 1699.8,
      "ch": 7,
      "note": 36,
      "vel": 84,
      "dur": 80
    },
    {
      "t": 1699.8,
      "ch": 5,
      "note": 51,
      "vel": 66,
      "dur": 807
    },
    {
      "t": 1699.9,
      "ch": 1,
      "note": 38,
      "vel": 105,
      "dur": 25
    },
    {
      "t": 1699.9,
      "ch": 1,
      "note": 40,
      "vel": 103,
      "dur": 25
    },
    {
      "t": 1700,
      "ch": 1,
      "note": 42,
      "vel": 81,
      "dur": 25
    },
    {
      "t": 1700.1,
      "ch": 1,
      "note": 36,
      "vel": 109,
      "dur": 25
    },
    {
      "t": 1700.1,
      "ch": 7,
      "note": 36,
      "vel": 66,
      "dur": 80
    },
    {
      "t": 1700.1,
      "ch": 7,
      "note": 38,
      "vel": 66,
      "dur": 80
    },
    {
      "t": 1700.1,
      "ch": 7,
      "note": 45,
      "vel": 66,
      "dur": 80
    },
    {
      "t": 1700.1,
      "ch": 6,
      "note": 61,
      "vel": 54,
      "dur": 539
    },
    {
      "t": 1700.2,
      "ch": 1,
      "note": 38,
      "vel": 109,
      "dur": 25
    },
    {
      "t": 1700.2,
      "ch": 1,
      "note": 40,
      "vel": 106,
      "dur": 25
    },
    {
      "t": 1700.2,
      "ch": 6,
      "note": 56,
      "vel": 35,
      "dur": 400
    },
    {
      "t": 1700.3,
      "ch": 6,
      "note": 54,
      "vel": 40,
      "dur": 540
    },
    {
      "t": 1700.3,
      "ch": 1,
      "note": 42,
      "vel": 123,
      "dur": 25
    },
    {
      "t": 1700.4,
      "ch": 0,
      "note": 36,
      "vel": 91,
      "dur": 55
    },
    {
      "t": 1700.4,
      "ch": 1,
      "note": 36,
      "vel": 122,
      "dur": 25
    },
    {
      "t": 1700.4,
      "ch": 7,
      "note": 48,
      "vel": 66,
      "dur": 80
    },
    {
      "t": 1700.4,
      "ch": 7,
      "note": 36,
      "vel": 71,
      "dur": 80
    },
    {
      "t": 1700.4,
      "ch": 6,
      "note": 66,
      "vel": 34,
      "dur": 540
    },
    {
      "t": 1700.5,
      "ch": 1,
      "note": 38,
      "vel": 111,
      "dur": 25
    },
    {
      "t": 1700.5,
      "ch": 1,
      "note": 40,
      "vel": 115,
      "dur": 25
    },
    {
      "t": 1700.6,
      "ch": 1,
      "note": 42,
      "vel": 111,
      "dur": 25
    },
    {
      "t": 1700.7,
      "ch": 1,
      "note": 36,
      "vel": 96,
      "dur": 25
    },
    {
      "t": 1700.7,
      "ch": 5,
      "note": 63,
      "vel": 78,
      "dur": 812
    },
    {
      "t": 1700.8,
      "ch": 1,
      "note": 38,
      "vel": 97,
      "dur": 25
    },
    {
      "t": 1700.8,
      "ch": 1,
      "note": 40,
      "vel": 81,
      "dur": 25
    },
    {
      "t": 1700.9,
      "ch": 1,
      "note": 42,
      "vel": 97,
      "dur": 25
    },
    {
      "t": 1701,
      "ch": 0,
      "note": 36,
      "vel": 109,
      "dur": 55
    },
    {
      "t": 1701,
      "ch": 1,
      "note": 36,
      "vel": 127,
      "dur": 25
    },
    {
      "t": 1701,
      "ch": 7,
      "note": 48,
      "vel": 72,
      "dur": 80
    },
    {
      "t": 1701,
      "ch": 7,
      "note": 45,
      "vel": 80,
      "dur": 80
    },
    {
      "t": 1701,
      "ch": 7,
      "note": 36,
      "vel": 68,
      "dur": 80
    },
    {
      "t": 1701,
      "ch": 7,
      "note": 38,
      "vel": 62,
      "dur": 80
    },
    {
      "t": 1701.1,
      "ch": 1,
      "note": 38,
      "vel": 108,
      "dur": 25
    },
    {
      "t": 1701.1,
      "ch": 1,
      "note": 40,
      "vel": 91,
      "dur": 25
    },
    {
      "t": 1701.2,
      "ch": 1,
      "note": 42,
      "vel": 88,
      "dur": 25
    },
    {
      "t": 1701.3,
      "ch": 1,
      "note": 36,
      "vel": 106,
      "dur": 25
    },
    {
      "t": 1701.3,
      "ch": 7,
      "note": 36,
      "vel": 57,
      "dur": 80
    },
    {
      "t": 1701.3,
      "ch": 6,
      "note": 54,
      "vel": 35,
      "dur": 543
    },
    {
      "t": 1701.4,
      "ch": 1,
      "note": 38,
      "vel": 86,
      "dur": 25
    },
    {
      "t": 1701.4,
      "ch": 1,
      "note": 40,
      "vel": 85,
      "dur": 25
    },
    {
      "t": 1701.5,
      "ch": 6,
      "note": 66,
      "vel": 25,
      "dur": 544
    },
    {
      "t": 1701.5,
      "ch": 1,
      "note": 42,
      "vel": 86,
      "dur": 25
    },
    {
      "t": 1701.6,
      "ch": 0,
      "note": 36,
      "vel": 87,
      "dur": 55
    },
    {
      "t": 1701.6,
      "ch": 1,
      "note": 36,
      "vel": 127,
      "dur": 25
    },
    {
      "t": 1701.6,
      "ch": 7,
      "note": 48,
      "vel": 78,
      "dur": 80
    },
    {
      "t": 1701.6,
      "ch": 7,
      "note": 36,
      "vel": 56,
      "dur": 80
    },
    {
      "t": 1701.6,
      "ch": 6,
      "note": 70,
      "vel": 56,
      "dur": 544
    },
    {
      "t": 1701.7,
      "ch": 1,
      "note": 38,
      "vel": 85,
      "dur": 25
    },
    {
      "t": 1701.7,
      "ch": 1,
      "note": 40,
      "vel": 103,
      "dur": 25
    },
    {
      "t": 1701.8,
      "ch": 7,
      "note": 38,
      "vel": 74,
      "dur": 80
    },
    {
      "t": 1701.8,
      "ch": 7,
      "note": 45,
      "vel": 64,
      "dur": 80
    },
    {
      "t": 1701.8,
      "ch": 6,
      "note": 66,
      "vel": 35,
      "dur": 545
    },
    {
      "t": 1701.8,
      "ch": 1,
      "note": 42,
      "vel": 93,
      "dur": 25
    },
    {
      "t": 1701.9,
      "ch": 1,
      "note": 36,
      "vel": 101,
      "dur": 25
    },
    {
      "t": 1702,
      "ch": 1,
      "note": 38,
      "vel": 104,
      "dur": 25
    },
    {
      "t": 1702,
      "ch": 1,
      "note": 40,
      "vel": 84,
      "dur": 25
    },
    {
      "t": 1702.1,
      "ch": 5,
      "note": 37,
      "vel": 31,
      "dur": 818
    },
    {
      "t": 1702.1,
      "ch": 1,
      "note": 42,
      "vel": 98,
      "dur": 25
    },
    {
      "t": 1702.2,
      "ch": 0,
      "note": 36,
      "vel": 89,
      "dur": 55
    },
    {
      "t": 1702.2,
      "ch": 1,
      "note": 36,
      "vel": 112,
      "dur": 25
    },
    {
      "t": 1702.2,
      "ch": 7,
      "note": 48,
      "vel": 84,
      "dur": 80
    },
    {
      "t": 1702.2,
      "ch": 7,
      "note": 36,
      "vel": 77,
      "dur": 80
    },
    {
      "t": 1702.3,
      "ch": 1,
      "note": 38,
      "vel": 126,
      "dur": 25
    },
    {
      "t": 1702.3,
      "ch": 1,
      "note": 40,
      "vel": 115,
      "dur": 25
    },
    {
      "t": 1702.4,
      "ch": 5,
      "note": 58,
      "vel": 70,
      "dur": 819
    },
    {
      "t": 1702.4,
      "ch": 1,
      "note": 42,
      "vel": 91,
      "dur": 25
    },
    {
      "t": 1702.5,
      "ch": 1,
      "note": 36,
      "vel": 95,
      "dur": 25
    },
    {
      "t": 1702.5,
      "ch": 7,
      "note": 36,
      "vel": 64,
      "dur": 80
    },
    {
      "t": 1702.5,
      "ch": 7,
      "note": 45,
      "vel": 65,
      "dur": 80
    },
    {
      "t": 1702.5,
      "ch": 7,
      "note": 38,
      "vel": 49,
      "dur": 80
    },
    {
      "t": 1702.6,
      "ch": 1,
      "note": 38,
      "vel": 121,
      "dur": 25
    },
    {
      "t": 1702.6,
      "ch": 1,
      "note": 40,
      "vel": 96,
      "dur": 25
    },
    {
      "t": 1702.7,
      "ch": 5,
      "note": 70,
      "vel": 83,
      "dur": 820
    },
    {
      "t": 1702.7,
      "ch": 1,
      "note": 42,
      "vel": 92,
      "dur": 25
    },
    {
      "t": 1702.8,
      "ch": 0,
      "note": 36,
      "vel": 86,
      "dur": 55
    },
    {
      "t": 1702.8,
      "ch": 1,
      "note": 36,
      "vel": 116,
      "dur": 25
    },
    {
      "t": 1702.8,
      "ch": 7,
      "note": 48,
      "vel": 77,
      "dur": 80
    },
    {
      "t": 1702.8,
      "ch": 7,
      "note": 36,
      "vel": 80,
      "dur": 80
    },
    {
      "t": 1702.9,
      "ch": 1,
      "note": 38,
      "vel": 98,
      "dur": 25
    },
    {
      "t": 1702.9,
      "ch": 1,
      "note": 40,
      "vel": 105,
      "dur": 25
    },
    {
      "t": 1703,
      "ch": 1,
      "note": 42,
      "vel": 94,
      "dur": 25
    },
    {
      "t": 1703.1,
      "ch": 1,
      "note": 36,
      "vel": 80,
      "dur": 25
    },
    {
      "t": 1703.2,
      "ch": 1,
      "note": 38,
      "vel": 103,
      "dur": 25
    },
    {
      "t": 1703.2,
      "ch": 1,
      "note": 40,
      "vel": 99,
      "dur": 25
    },
    {
      "t": 1703.3,
      "ch": 1,
      "note": 42,
      "vel": 97,
      "dur": 25
    },
    {
      "t": 1703.4,
      "ch": 0,
      "note": 36,
      "vel": 108,
      "dur": 55
    },
    {
      "t": 1703.4,
      "ch": 1,
      "note": 36,
      "vel": 117,
      "dur": 25
    },
    {
      "t": 1703.4,
      "ch": 7,
      "note": 48,
      "vel": 70,
      "dur": 80
    },
    {
      "t": 1703.4,
      "ch": 7,
      "note": 45,
      "vel": 75,
      "dur": 80
    },
    {
      "t": 1703.4,
      "ch": 7,
      "note": 36,
      "vel": 70,
      "dur": 80
    },
    {
      "t": 1703.4,
      "ch": 7,
      "note": 38,
      "vel": 61,
      "dur": 80
    },
    {
      "t": 1703.5,
      "ch": 1,
      "note": 38,
      "vel": 92,
      "dur": 25
    },
    {
      "t": 1703.5,
      "ch": 1,
      "note": 40,
      "vel": 77,
      "dur": 25
    },
    {
      "t": 1703.6,
      "ch": 6,
      "note": 56,
      "vel": 43,
      "dur": 548
    },
    {
      "t": 1703.6,
      "ch": 5,
      "note": 71,
      "vel": 65,
      "dur": 822
    },
    {
      "t": 1703.6,
      "ch": 1,
      "note": 42,
      "vel": 124,
      "dur": 25
    },
    {
      "t": 1703.7,
      "ch": 1,
      "note": 36,
      "vel": 86,
      "dur": 25
    },
    {
      "t": 1703.7,
      "ch": 7,
      "note": 36,
      "vel": 53,
      "dur": 80
    },
    {
      "t": 1703.7,
      "ch": 6,
      "note": 73,
      "vel": 43,
      "dur": 548
    },
    {
      "t": 1703.7,
      "ch": 5,
      "note": 68,
      "vel": 54,
      "dur": 822
    },
    {
      "t": 1703.8,
      "ch": 1,
      "note": 38,
      "vel": 95,
      "dur": 25
    },
    {
      "t": 1703.8,
      "ch": 1,
      "note": 40,
      "vel": 98,
      "dur": 25
    },
    {
      "t": 1703.9,
      "ch": 6,
      "note": 73,
      "vel": 33,
      "dur": 548
    },
    {
      "t": 1703.9,
      "ch": 1,
      "note": 42,
      "vel": 100,
      "dur": 25
    },
    {
      "t": 1704,
      "ch": 0,
      "note": 36,
      "vel": 94,
      "dur": 55
    },
    {
      "t": 1704,
      "ch": 1,
      "note": 36,
      "vel": 103,
      "dur": 25
    },
    {
      "t": 1704,
      "ch": 7,
      "note": 48,
      "vel": 73,
      "dur": 80
    },
    {
      "t": 1704,
      "ch": 7,
      "note": 36,
      "vel": 74,
      "dur": 80
    },
    {
      "t": 1704.1,
      "ch": 6,
      "note": 73,
      "vel": 43,
      "dur": 400
    },
    {
      "t": 1704.1,
      "ch": 1,
      "note": 38,
      "vel": 103,
      "dur": 25
    },
    {
      "t": 1704.2,
      "ch": 1,
      "note": 40,
      "vel": 79,
      "dur": 25
    },
    {
      "t": 1704.2,
      "ch": 7,
      "note": 38,
      "vel": 60,
      "dur": 80
    },
    {
      "t": 1704.2,
      "ch": 7,
      "note": 45,
      "vel": 62,
      "dur": 80
    },
    {
      "t": 1704.2,
      "ch": 6,
      "note": 71,
      "vel": 32,
      "dur": 548
    },
    {
      "t": 1704.2,
      "ch": 1,
      "note": 42,
      "vel": 89,
      "dur": 25
    },
    {
      "t": 1704.3,
      "ch": 1,
      "note": 36,
      "vel": 104,
      "dur": 25
    },
    {
      "t": 1704.3,
      "ch": 5,
      "note": 56,
      "vel": 47,
      "dur": 822
    },
    {
      "t": 1704.3,
      "ch": 6,
      "note": 59,
      "vel": 24,
      "dur": 548
    },
    {
      "t": 1704.4,
      "ch": 1,
      "note": 38,
      "vel": 100,
      "dur": 25
    },
    {
      "t": 1704.4,
      "ch": 1,
      "note": 40,
      "vel": 86,
      "dur": 25
    },
    {
      "t": 1704.5,
      "ch": 2,
      "note": 49,
      "vel": 0,
      "dur": 0
    },
    {
      "t": 1704.5,
      "ch": 2,
      "note": 61,
      "vel": 0,
      "dur": 0
    },
    {
      "t": 1704.5,
      "ch": 2,
      "note": 54,
      "vel": 61,
      "dur": 18000
    },
    {
      "t": 1704.5,
      "ch": 2,
      "note": 66,
      "vel": 43,
      "dur": 18000
    },
    {
      "t": 1704.5,
      "ch": 1,
      "note": 42,
      "vel": 102,
      "dur": 25
    },
    {
      "t": 1704.6,
      "ch": 0,
      "note": 36,
      "vel": 92,
      "dur": 55
    },
    {
      "t": 1704.6,
      "ch": 1,
      "note": 36,
      "vel": 104,
      "dur": 25
    },
    {
      "t": 1704.6,
      "ch": 7,
      "note": 48,
      "vel": 74,
      "dur": 80
    },
    {
      "t": 1704.6,
      "ch": 7,
      "note": 36,
      "vel": 70,
      "dur": 80
    },
    {
      "t": 1704.7,
      "ch": 1,
      "note": 38,
      "vel": 96,
      "dur": 25
    },
    {
      "t": 1704.7,
      "ch": 6,
      "note": 59,
      "vel": 26,
      "dur": 400
    },
    {
      "t": 1704.8,
      "ch": 1,
      "note": 40,
      "vel": 103,
      "dur": 25
    },
    {
      "t": 1704.8,
      "ch": 1,
      "note": 42,
      "vel": 110,
      "dur": 25
    },
    {
      "t": 1704.9,
      "ch": 1,
      "note": 36,
      "vel": 103,
      "dur": 25
    },
    {
      "t": 1704.9,
      "ch": 7,
      "note": 45,
      "vel": 65,
      "dur": 80
    },
    {
      "t": 1704.9,
      "ch": 7,
      "note": 36,
      "vel": 49,
      "dur": 80
    },
    {
      "t": 1704.9,
      "ch": 7,
      "note": 38,
      "vel": 71,
      "dur": 80
    },
    {
      "t": 1705,
      "ch": 1,
      "note": 38,
      "vel": 104,
      "dur": 25
    },
    {
      "t": 1705,
      "ch": 1,
      "note": 40,
      "vel": 87,
      "dur": 25
    },
    {
      "t": 1705.1,
      "ch": 1,
      "note": 42,
      "vel": 119,
      "dur": 25
    },
    {
      "t": 1705.2,
      "ch": 0,
      "note": 36,
      "vel": 89,
      "dur": 55
    },
    {
      "t": 1705.2,
      "ch": 1,
      "note": 36,
      "vel": 113,
      "dur": 25
    },
    {
      "t": 1705.2,
      "ch": 7,
      "note": 48,
      "vel": 64,
      "dur": 80
    },
    {
      "t": 1705.2,
      "ch": 7,
      "note": 36,
      "vel": 70,
      "dur": 80
    },
    {
      "t": 1705.2,
      "ch": 6,
      "note": 61,
      "vel": 48,
      "dur": 548
    },
    {
      "t": 1705.3,
      "ch": 1,
      "note": 38,
      "vel": 112,
      "dur": 25
    },
    {
      "t": 1705.3,
      "ch": 1,
      "note": 40,
      "vel": 81,
      "dur": 25
    },
    {
      "t": 1705.4,
      "ch": 5,
      "note": 58,
      "vel": 57,
      "dur": 822
    },
    {
      "t": 1705.4,
      "ch": 1,
      "note": 42,
      "vel": 100,
      "dur": 25
    },
    {
      "t": 1705.5,
      "ch": 1,
      "note": 36,
      "vel": 93,
      "dur": 25
    },
    {
      "t": 1705.6,
      "ch": 1,
      "note": 38,
      "vel": 108,
      "dur": 25
    },
    {
      "t": 1705.6,
      "ch": 1,
      "note": 40,
      "vel": 93,
      "dur": 25
    },
    {
      "t": 1705.7,
      "ch": 0,
      "note": 36,
      "vel": 63,
      "dur": 55
    },
    {
      "t": 1705.7,
      "ch": 1,
      "note": 42,
      "vel": 97,
      "dur": 25
    },
    {
      "t": 1705.8,
      "ch": 0,
      "note": 36,
      "vel": 116,
      "dur": 55
    },
    {
      "t": 1705.8,
      "ch": 1,
      "note": 36,
      "vel": 85,
      "dur": 25
    },
    {
      "t": 1705.8,
      "ch": 7,
      "note": 48,
      "vel": 77,
      "dur": 80
    },
    {
      "t": 1705.8,
      "ch": 7,
      "note": 45,
      "vel": 69,
      "dur": 80
    },
    {
      "t": 1705.8,
      "ch": 7,
      "note": 36,
      "vel": 70,
      "dur": 80
    },
    {
      "t": 1705.8,
      "ch": 7,
      "note": 38,
      "vel": 67,
      "dur": 80
    },
    {
      "t": 1705.9,
      "ch": 1,
      "note": 38,
      "vel": 92,
      "dur": 25
    },
    {
      "t": 1705.9,
      "ch": 1,
      "note": 40,
      "vel": 111,
      "dur": 25
    },
    {
      "t": 1706,
      "ch": 5,
      "note": 52,
      "vel": 61,
      "dur": 820
    },
    {
      "t": 1706,
      "ch": 1,
      "note": 42,
      "vel": 82,
      "dur": 25
    },
    {
      "t": 1706.1,
      "ch": 1,
      "note": 36,
      "vel": 102,
      "dur": 25
    },
    {
      "t": 1706.1,
      "ch": 7,
      "note": 36,
      "vel": 68,
      "dur": 80
    },
    {
      "t": 1706.1,
      "ch": 5,
      "note": 70,
      "vel": 70,
      "dur": 820
    },
    {
      "t": 1706.2,
      "ch": 1,
      "note": 38,
      "vel": 90,
      "dur": 25
    },
    {
      "t": 1706.2,
      "ch": 1,
      "note": 40,
      "vel": 101,
      "dur": 25
    },
    {
      "t": 1706.3,
      "ch": 1,
      "note": 42,
      "vel": 84,
      "dur": 25
    },
    {
      "t": 1706.4,
      "ch": 0,
      "note": 36,
      "vel": 94,
      "dur": 55
    },
    {
      "t": 1706.4,
      "ch": 1,
      "note": 36,
      "vel": 120,
      "dur": 25
    },
    {
      "t": 1706.4,
      "ch": 7,
      "note": 48,
      "vel": 74,
      "dur": 80
    },
    {
      "t": 1706.4,
      "ch": 7,
      "note": 36,
      "vel": 81,
      "dur": 80
    },
    {
      "t": 1706.5,
      "ch": 1,
      "note": 38,
      "vel": 90,
      "dur": 25
    },
    {
      "t": 1706.6,
      "ch": 1,
      "note": 40,
      "vel": 84,
      "dur": 25
    },
    {
      "t": 1706.6,
      "ch": 7,
      "note": 38,
      "vel": 63,
      "dur": 80
    },
    {
      "t": 1706.6,
      "ch": 7,
      "note": 45,
      "vel": 66,
      "dur": 80
    },
    {
      "t": 1706.6,
      "ch": 1,
      "note": 42,
      "vel": 63,
      "dur": 25
    },
    {
      "t": 1706.7,
      "ch": 1,
      "note": 36,
      "vel": 81,
      "dur": 25
    },
    {
      "t": 1706.7,
      "ch": 6,
      "note": 73,
      "vel": 34,
      "dur": 545
    },
    {
      "t": 1706.8,
      "ch": 1,
      "note": 38,
      "vel": 87,
      "dur": 25
    },
    {
      "t": 1706.8,
      "ch": 1,
      "note": 40,
      "vel": 86,
      "dur": 25
    },
    {
      "t": 1706.9,
      "ch": 4,
      "note": 59,
      "vel": 69,
      "dur": 2350
    },
    {
      "t": 1706.9,
      "ch": 3,
      "note": 40,
      "vel": 72,
      "dur": 2400
    },
    {
      "t": 1706.9,
      "ch": 1,
      "note": 42,
      "vel": 114,
      "dur": 25
    },
    {
      "t": 1707,
      "ch": 0,
      "note": 36,
      "vel": 91,
      "dur": 55
    },
    {
      "t": 1707,
      "ch": 1,
      "note": 36,
      "vel": 88,
      "dur": 25
    },
    {
      "t": 1707,
      "ch": 7,
      "note": 48,
      "vel": 67,
      "dur": 80
    },
    {
      "t": 1707,
      "ch": 7,
      "note": 36,
      "vel": 83,
      "dur": 80
    },
    {
      "t": 1707.1,
      "ch": 1,
      "note": 38,
      "vel": 97,
      "dur": 25
    },
    {
      "t": 1707.1,
      "ch": 1,
      "note": 40,
      "vel": 94,
      "dur": 25
    },
    {
      "t": 1707.2,
      "ch": 1,
      "note": 42,
      "vel": 103,
      "dur": 25
    },
    {
      "t": 1707.3,
      "ch": 1,
      "note": 36,
      "vel": 87,
      "dur": 25
    },
    {
      "t": 1707.3,
      "ch": 7,
      "note": 38,
      "vel": 69,
      "dur": 80
    },
    {
      "t": 1707.3,
      "ch": 7,
      "note": 45,
      "vel": 62,
      "dur": 80
    },
    {
      "t": 1707.3,
      "ch": 7,
      "note": 36,
      "vel": 65,
      "dur": 80
    },
    {
      "t": 1707.4,
      "ch": 1,
      "note": 38,
      "vel": 86,
      "dur": 25
    },
    {
      "t": 1707.4,
      "ch": 1,
      "note": 40,
      "vel": 78,
      "dur": 25
    },
    {
      "t": 1707.5,
      "ch": 1,
      "note": 42,
      "vel": 109,
      "dur": 25
    },
    {
      "t": 1707.6,
      "ch": 0,
      "note": 36,
      "vel": 88,
      "dur": 55
    },
    {
      "t": 1707.6,
      "ch": 1,
      "note": 36,
      "vel": 111,
      "dur": 25
    },
    {
      "t": 1707.6,
      "ch": 7,
      "note": 48,
      "vel": 79,
      "dur": 80
    },
    {
      "t": 1707.6,
      "ch": 7,
      "note": 36,
      "vel": 79,
      "dur": 80
    },
    {
      "t": 1707.6,
      "ch": 6,
      "note": 54,
      "vel": 37,
      "dur": 543
    },
    {
      "t": 1707.7,
      "ch": 1,
      "note": 38,
      "vel": 98,
      "dur": 25
    },
    {
      "t": 1707.7,
      "ch": 1,
      "note": 40,
      "vel": 83,
      "dur": 25
    },
    {
      "t": 1707.8,
      "ch": 1,
      "note": 42,
      "vel": 77,
      "dur": 25
    },
    {
      "t": 1707.9,
      "ch": 1,
      "note": 36,
      "vel": 64,
      "dur": 25
    },
    {
      "t": 1708,
      "ch": 1,
      "note": 38,
      "vel": 101,
      "dur": 25
    },
    {
      "t": 1708,
      "ch": 1,
      "note": 40,
      "vel": 88,
      "dur": 25
    },
    {
      "t": 1708.1,
      "ch": 1,
      "note": 42,
      "vel": 105,
      "dur": 25
    },
    {
      "t": 1708.2,
      "ch": 0,
      "note": 36,
      "vel": 119,
      "dur": 55
    },
    {
      "t": 1708.2,
      "ch": 1,
      "note": 36,
      "vel": 92,
      "dur": 25
    },
    {
      "t": 1708.2,
      "ch": 7,
      "note": 48,
      "vel": 71,
      "dur": 80
    },
    {
      "t": 1708.2,
      "ch": 7,
      "note": 45,
      "vel": 65,
      "dur": 80
    },
    {
      "t": 1708.2,
      "ch": 7,
      "note": 36,
      "vel": 78,
      "dur": 80
    },
    {
      "t": 1708.2,
      "ch": 7,
      "note": 38,
      "vel": 65,
      "dur": 80
    },
    {
      "t": 1708.2,
      "ch": 5,
      "note": 71,
      "vel": 67,
      "dur": 812
    },
    {
      "t": 1708.3,
      "ch": 1,
      "note": 38,
      "vel": 117,
      "dur": 25
    },
    {
      "t": 1708.3,
      "ch": 1,
      "note": 40,
      "vel": 76,
      "dur": 25
    },
    {
      "t": 1708.4,
      "ch": 5,
      "note": 68,
      "vel": 72,
      "dur": 812
    },
    {
      "t": 1708.4,
      "ch": 1,
      "note": 42,
      "vel": 79,
      "dur": 25
    },
    {
      "t": 1708.5,
      "ch": 1,
      "note": 36,
      "vel": 89,
      "dur": 25
    },
    {
      "t": 1708.5,
      "ch": 7,
      "note": 36,
      "vel": 65,
      "dur": 80
    },
    {
      "t": 1708.6,
      "ch": 1,
      "note": 38,
      "vel": 92,
      "dur": 25
    },
    {
      "t": 1708.6,
      "ch": 1,
      "note": 40,
      "vel": 93,
      "dur": 25
    },
    {
      "t": 1708.7,
      "ch": 6,
      "note": 73,
      "vel": 43,
      "dur": 400
    },
    {
      "t": 1708.7,
      "ch": 1,
      "note": 42,
      "vel": 89,
      "dur": 25
    },
    {
      "t": 1708.8,
      "ch": 0,
      "note": 36,
      "vel": 85,
      "dur": 55
    },
    {
      "t": 1708.8,
      "ch": 1,
      "note": 36,
      "vel": 127,
      "dur": 25
    },
    {
      "t": 1708.8,
      "ch": 7,
      "note": 48,
      "vel": 59,
      "dur": 80
    },
    {
      "t": 1708.8,
      "ch": 7,
      "note": 36,
      "vel": 83,
      "dur": 80
    },
    {
      "t": 1708.9,
      "ch": 1,
      "note": 38,
      "vel": 110,
      "dur": 25
    },
    {
      "t": 1708.9,
      "ch": 1,
      "note": 40,
      "vel": 89,
      "dur": 25
    },
    {
      "t": 1709,
      "ch": 7,
      "note": 45,
      "vel": 60,
      "dur": 80
    },
    {
      "t": 1709,
      "ch": 7,
      "note": 38,
      "vel": 67,
      "dur": 80
    },
    {
      "t": 1709,
      "ch": 5,
      "note": 56,
      "vel": 62,
      "dur": 809
    },
    {
      "t": 1709,
      "ch": 1,
      "note": 42,
      "vel": 87,
      "dur": 25
    },
    {
      "t": 1709.1,
      "ch": 1,
      "note": 36,
      "vel": 109,
      "dur": 25
    },
    {
      "t": 1709.2,
      "ch": 1,
      "note": 38,
      "vel": 70,
      "dur": 25
    },
    {
      "t": 1709.2,
      "ch": 6,
      "note": 63,
      "vel": 34,
      "dur": 400
    },
    {
      "t": 1709.2,
      "ch": 1,
      "note": 40,
      "vel": 98,
      "dur": 25
    },
    {
      "t": 1709.3,
      "ch": 6,
      "note": 59,
      "vel": 50,
      "dur": 538
    },
    {
      "t": 1709.3,
      "ch": 4,
      "note": 59,
      "vel": 70,
      "dur": 2350
    },
    {
      "t": 1709.3,
      "ch": 3,
      "note": 42,
      "vel": 74,
      "dur": 2400
    },
    {
      "t": 1709.3,
      "ch": 1,
      "note": 42,
      "vel": 82,
      "dur": 25
    },
    {
      "t": 1709.4,
      "ch": 0,
      "note": 36,
      "vel": 88,
      "dur": 55
    },
    {
      "t": 1709.4,
      "ch": 1,
      "note": 36,
      "vel": 127,
      "dur": 25
    },
    {
      "t": 1709.4,
      "ch": 7,
      "note": 48,
      "vel": 73,
      "dur": 80
    },
    {
      "t": 1709.4,
      "ch": 7,
      "note": 36,
      "vel": 68,
      "dur": 80
    },
    {
      "t": 1709.4,
      "ch": 5,
      "note": 59,
      "vel": 80,
      "dur": 807
    },
    {
      "t": 1709.5,
      "ch": 1,
      "note": 38,
      "vel": 110,
      "dur": 25
    },
    {
      "t": 1709.6,
      "ch": 1,
      "note": 40,
      "vel": 79,
      "dur": 25
    },
    {
      "t": 1709.6,
      "ch": 1,
      "note": 42,
      "vel": 83,
      "dur": 25
    },
    {
      "t": 1709.7,
      "ch": 1,
      "note": 36,
      "vel": 91,
      "dur": 25
    },
    {
      "t": 1709.7,
      "ch": 7,
      "note": 36,
      "vel": 45,
      "dur": 80
    },
    {
      "t": 1709.7,
      "ch": 7,
      "note": 38,
      "vel": 57,
      "dur": 80
    },
    {
      "t": 1709.7,
      "ch": 7,
      "note": 45,
      "vel": 63,
      "dur": 80
    },
    {
      "t": 1709.8,
      "ch": 1,
      "note": 38,
      "vel": 96,
      "dur": 25
    },
    {
      "t": 1709.8,
      "ch": 1,
      "note": 40,
      "vel": 90,
      "dur": 25
    },
    {
      "t": 1709.9,
      "ch": 6,
      "note": 73,
      "vel": 44,
      "dur": 536
    },
    {
      "t": 1709.9,
      "ch": 1,
      "note": 42,
      "vel": 78,
      "dur": 25
    },
    {
      "t": 1710,
      "ch": 0,
      "note": 36,
      "vel": 96,
      "dur": 55
    },
    {
      "t": 1710,
      "ch": 1,
      "note": 36,
      "vel": 85,
      "dur": 25
    },
    {
      "t": 1710,
      "ch": 7,
      "note": 48,
      "vel": 63,
      "dur": 80
    },
    {
      "t": 1710,
      "ch": 7,
      "note": 36,
      "vel": 90,
      "dur": 80
    },
    {
      "t": 1710,
      "ch": 5,
      "note": 51,
      "vel": 43,
      "dur": 804
    },
    {
      "t": 1710.1,
      "ch": 1,
      "note": 38,
      "vel": 102,
      "dur": 25
    },
    {
      "t": 1710.1,
      "ch": 1,
      "note": 40,
      "vel": 99,
      "dur": 25
    },
    {
      "t": 1710.2,
      "ch": 5,
      "note": 37,
      "vel": 52,
      "dur": 803
    },
    {
      "t": 1710.2,
      "ch": 1,
      "note": 42,
      "vel": 75,
      "dur": 25
    },
    {
      "t": 1710.3,
      "ch": 1,
      "note": 36,
      "vel": 85,
      "dur": 25
    },
    {
      "t": 1710.4,
      "ch": 1,
      "note": 38,
      "vel": 98,
      "dur": 25
    },
    {
      "t": 1710.5,
      "ch": 1,
      "note": 40,
      "vel": 77,
      "dur": 25
    },
    {
      "t": 1710.5,
      "ch": 1,
      "note": 42,
      "vel": 78,
      "dur": 25
    },
    {
      "t": 1710.6,
      "ch": 6,
      "note": 48,
      "vel": 26,
      "dur": 400
    },
    {
      "t": 1710.6,
      "ch": 0,
      "note": 36,
      "vel": 112,
      "dur": 55
    },
    {
      "t": 1710.6,
      "ch": 1,
      "note": 36,
      "vel": 105,
      "dur": 25
    },
    {
      "t": 1710.6,
      "ch": 7,
      "note": 48,
      "vel": 61,
      "dur": 80
    },
    {
      "t": 1710.6,
      "ch": 7,
      "note": 45,
      "vel": 71,
      "dur": 80
    },
    {
      "t": 1710.6,
      "ch": 7,
      "note": 36,
      "vel": 72,
      "dur": 80
    },
    {
      "t": 1710.6,
      "ch": 7,
      "note": 38,
      "vel": 75,
      "dur": 80
    },
    {
      "t": 1710.7,
      "ch": 1,
      "note": 38,
      "vel": 88,
      "dur": 25
    },
    {
      "t": 1710.7,
      "ch": 1,
      "note": 40,
      "vel": 91,
      "dur": 25
    },
    {
      "t": 1710.8,
      "ch": 6,
      "note": 64,
      "vel": 47,
      "dur": 534
    },
    {
      "t": 1710.8,
      "ch": 5,
      "note": 49,
      "vel": 71,
      "dur": 800
    },
    {
      "t": 1710.8,
      "ch": 1,
      "note": 42,
      "vel": 94,
      "dur": 25
    },
    {
      "t": 1710.9,
      "ch": 1,
      "note": 36,
      "vel": 75,
      "dur": 25
    },
    {
      "t": 1710.9,
      "ch": 7,
      "note": 36,
      "vel": 57,
      "dur": 80
    },
    {
      "t": 1711,
      "ch": 1,
      "note": 38,
      "vel": 84,
      "dur": 25
    },
    {
      "t": 1711,
      "ch": 1,
      "note": 40,
      "vel": 98,
      "dur": 25
    },
    {
      "t": 1711.1,
      "ch": 1,
      "note": 42,
      "vel": 99,
      "dur": 25
    },
    {
      "t": 1711.2,
      "ch": 0,
      "note": 36,
      "vel": 87,
      "dur": 55
    },
    {
      "t": 1711.2,
      "ch": 1,
      "note": 36,
      "vel": 104,
      "dur": 25
    },
    {
      "t": 1711.2,
      "ch": 7,
      "note": 48,
      "vel": 77,
      "dur": 80
    },
    {
      "t": 1711.2,
      "ch": 7,
      "note": 36,
      "vel": 65,
      "dur": 80
    },
    {
      "t": 1711.2,
      "ch": 5,
      "note": 68,
      "vel": 65,
      "dur": 798
    },
    {
      "t": 1711.3,
      "ch": 1,
      "note": 38,
      "vel": 108,
      "dur": 25
    },
    {
      "t": 1711.3,
      "ch": 1,
      "note": 40,
      "vel": 83,
      "dur": 25
    },
    {
      "t": 1711.4,
      "ch": 7,
      "note": 45,
      "vel": 68,
      "dur": 80
    },
    {
      "t": 1711.4,
      "ch": 7,
      "note": 38,
      "vel": 75,
      "dur": 80
    },
    {
      "t": 1711.4,
      "ch": 1,
      "note": 42,
      "vel": 86,
      "dur": 25
    },
    {
      "t": 1711.5,
      "ch": 1,
      "note": 36,
      "vel": 89,
      "dur": 25
    },
    {
      "t": 1711.5,
      "ch": 5,
      "note": 71,
      "vel": 61,
      "dur": 797
    },
    {
      "t": 1711.6,
      "ch": 1,
      "note": 38,
      "vel": 76,
      "dur": 25
    },
    {
      "t": 1711.7,
      "ch": 1,
      "note": 40,
      "vel": 113,
      "dur": 25
    },
    {
      "t": 1711.7,
      "ch": 4,
      "note": 59,
      "vel": 73,
      "dur": 2350
    },
    {
      "t": 1711.7,
      "ch": 3,
      "note": 40,
      "vel": 75,
      "dur": 2400
    },
    {
      "t": 1711.7,
      "ch": 1,
      "note": 42,
      "vel": 108,
      "dur": 25
    },
    {
      "t": 1711.8,
      "ch": 0,
      "note": 36,
      "vel": 94,
      "dur": 55
    },
    {
      "t": 1711.8,
      "ch": 1,
      "note": 36,
      "vel": 118,
      "dur": 25
    },
    {
      "t": 1711.8,
      "ch": 7,
      "note": 48,
      "vel": 75,
      "dur": 80
    },
    {
      "t": 1711.8,
      "ch": 7,
      "note": 36,
      "vel": 72,
      "dur": 80
    },
    {
      "t": 1711.9,
      "ch": 1,
      "note": 38,
      "vel": 127,
      "dur": 25
    },
    {
      "t": 1712,
      "ch": 1,
      "note": 40,
      "vel": 94,
      "dur": 25
    },
    {
      "t": 1712,
      "ch": 6,
      "note": 73,
      "vel": 54,
      "dur": 531
    },
    {
      "t": 1712,
      "ch": 1,
      "note": 42,
      "vel": 98,
      "dur": 25
    },
    {
      "t": 1712.1,
      "ch": 1,
      "note": 36,
      "vel": 97,
      "dur": 25
    },
    {
      "t": 1712.1,
      "ch": 7,
      "note": 36,
      "vel": 62,
      "dur": 80
    },
    {
      "t": 1712.1,
      "ch": 7,
      "note": 38,
      "vel": 63,
      "dur": 80
    },
    {
      "t": 1712.1,
      "ch": 7,
      "note": 45,
      "vel": 53,
      "dur": 80
    },
    {
      "t": 1712.2,
      "ch": 1,
      "note": 38,
      "vel": 102,
      "dur": 25
    },
    {
      "t": 1712.2,
      "ch": 1,
      "note": 40,
      "vel": 94,
      "dur": 25
    },
    {
      "t": 1712.3,
      "ch": 1,
      "note": 42,
      "vel": 85,
      "dur": 25
    },
    {
      "t": 1712.4,
      "ch": 0,
      "note": 36,
      "vel": 96,
      "dur": 55
    },
    {
      "t": 1712.4,
      "ch": 1,
      "note": 36,
      "vel": 93,
      "dur": 25
    },
    {
      "t": 1712.4,
      "ch": 7,
      "note": 48,
      "vel": 66,
      "dur": 80
    },
    {
      "t": 1712.4,
      "ch": 7,
      "note": 36,
      "vel": 85,
      "dur": 80
    },
    {
      "t": 1712.5,
      "ch": 1,
      "note": 38,
      "vel": 91,
      "dur": 25
    },
    {
      "t": 1712.5,
      "ch": 1,
      "note": 40,
      "vel": 91,
      "dur": 25
    },
    {
      "t": 1712.6,
      "ch": 5,
      "note": 68,
      "vel": 60,
      "dur": 794
    },
    {
      "t": 1712.6,
      "ch": 1,
      "note": 42,
      "vel": 82,
      "dur": 25
    },
    {
      "t": 1712.7,
      "ch": 1,
      "note": 36,
      "vel": 76,
      "dur": 25
    },
    {
      "t": 1712.8,
      "ch": 1,
      "note": 38,
      "vel": 110,
      "dur": 25
    },
    {
      "t": 1712.9,
      "ch": 1,
      "note": 40,
      "vel": 81,
      "dur": 25
    },
    {
      "t": 1712.9,
      "ch": 1,
      "note": 42,
      "vel": 82,
      "dur": 25
    },
    {
      "t": 1713,
      "ch": 0,
      "note": 36,
      "vel": 105,
      "dur": 55
    },
    {
      "t": 1713,
      "ch": 1,
      "note": 36,
      "vel": 106,
      "dur": 25
    },
    {
      "t": 1713,
      "ch": 7,
      "note": 48,
      "vel": 83,
      "dur": 80
    },
    {
      "t": 1713,
      "ch": 7,
      "note": 45,
      "vel": 70,
      "dur": 80
    },
    {
      "t": 1713,
      "ch": 7,
      "note": 36,
      "vel": 81,
      "dur": 80
    },
    {
      "t": 1713,
      "ch": 7,
      "note": 38,
      "vel": 76,
      "dur": 80
    },
    {
      "t": 1713.1,
      "ch": 1,
      "note": 38,
      "vel": 114,
      "dur": 25
    },
    {
      "t": 1713.2,
      "ch": 1,
      "note": 40,
      "vel": 88,
      "dur": 25
    },
    {
      "t": 1713.2,
      "ch": 1,
      "note": 42,
      "vel": 96,
      "dur": 25
    },
    {
      "t": 1713.3,
      "ch": 1,
      "note": 36,
      "vel": 81,
      "dur": 25
    },
    {
      "t": 1713.3,
      "ch": 7,
      "note": 36,
      "vel": 63,
      "dur": 80
    },
    {
      "t": 1713.4,
      "ch": 1,
      "note": 38,
      "vel": 97,
      "dur": 25
    },
    {
      "t": 1713.5,
      "ch": 1,
      "note": 40,
      "vel": 100,
      "dur": 25
    },
    {
      "t": 1713.5,
      "ch": 1,
      "note": 42,
      "vel": 81,
      "dur": 25
    },
    {
      "t": 1713.6,
      "ch": 0,
      "note": 36,
      "vel": 89,
      "dur": 55
    },
    {
      "t": 1713.6,
      "ch": 1,
      "note": 36,
      "vel": 78,
      "dur": 25
    },
    {
      "t": 1713.6,
      "ch": 7,
      "note": 48,
      "vel": 80,
      "dur": 80
    },
    {
      "t": 1713.6,
      "ch": 7,
      "note": 36,
      "vel": 67,
      "dur": 80
    },
    {
      "t": 1713.6,
      "ch": 5,
      "note": 37,
      "vel": 63,
      "dur": 792
    },
    {
      "t": 1713.7,
      "ch": 1,
      "note": 38,
      "vel": 89,
      "dur": 25
    },
    {
      "t": 1713.7,
      "ch": 1,
      "note": 40,
      "vel": 97,
      "dur": 25
    },
    {
      "t": 1713.8,
      "ch": 7,
      "note": 45,
      "vel": 49,
      "dur": 80
    },
    {
      "t": 1713.8,
      "ch": 7,
      "note": 38,
      "vel": 75,
      "dur": 80
    },
    {
      "t": 1713.8,
      "ch": 5,
      "note": 37,
      "vel": 76,
      "dur": 792
    },
    {
      "t": 1713.8,
      "ch": 1,
      "note": 42,
      "vel": 64,
      "dur": 25
    },
    {
      "t": 1713.9,
      "ch": 1,
      "note": 36,
      "vel": 105,
      "dur": 25
    },
    {
      "t": 1714,
      "ch": 1,
      "note": 38,
      "vel": 78,
      "dur": 25
    },
    {
      "t": 1714,
      "ch": 1,
      "note": 40,
      "vel": 89,
      "dur": 25
    },
    {
      "t": 1714.1,
      "ch": 6,
      "note": 48,
      "vel": 19,
      "dur": 400
    },
    {
      "t": 1714.1,
      "ch": 2,
      "note": 54,
      "vel": 0,
      "dur": 0
    },
    {
      "t": 1714.1,
      "ch": 2,
      "note": 66,
      "vel": 0,
      "dur": 0
    },
    {
      "t": 1714.1,
      "ch": 2,
      "note": 49,
      "vel": 62,
      "dur": 18000
    },
    {
      "t": 1714.1,
      "ch": 4,
      "note": 58,
      "vel": 87,
      "dur": 2350
    },
    {
      "t": 1714.1,
      "ch": 3,
      "note": 37,
      "vel": 75,
      "dur": 2400
    },
    {
      "t": 1714.1,
      "ch": 1,
      "note": 42,
      "vel": 92,
      "dur": 25
    },
    {
      "t": 1714.2,
      "ch": 0,
      "note": 36,
      "vel": 91,
      "dur": 55
    },
    {
      "t": 1714.2,
      "ch": 1,
      "note": 36,
      "vel": 110,
      "dur": 25
    },
    {
      "t": 1714.2,
      "ch": 7,
      "note": 48,
      "vel": 70,
      "dur": 80
    },
    {
      "t": 1714.2,
      "ch": 7,
      "note": 36,
      "vel": 65,
      "dur": 80
    },
    {
      "t": 1714.3,
      "ch": 1,
      "note": 38,
      "vel": 97,
      "dur": 25
    },
    {
      "t": 1714.4,
      "ch": 1,
      "note": 40,
      "vel": 87,
      "dur": 25
    },
    {
      "t": 1714.4,
      "ch": 1,
      "note": 42,
      "vel": 85,
      "dur": 25
    },
    {
      "t": 1714.5,
      "ch": 1,
      "note": 36,
      "vel": 111,
      "dur": 25
    },
    {
      "t": 1714.5,
      "ch": 7,
      "note": 36,
      "vel": 73,
      "dur": 80
    },
    {
      "t": 1714.5,
      "ch": 7,
      "note": 45,
      "vel": 65,
      "dur": 80
    },
    {
      "t": 1714.5,
      "ch": 7,
      "note": 38,
      "vel": 76,
      "dur": 80
    },
    {
      "t": 1714.6,
      "ch": 1,
      "note": 38,
      "vel": 82,
      "dur": 25
    },
    {
      "t": 1714.7,
      "ch": 1,
      "note": 40,
      "vel": 96,
      "dur": 25
    },
    {
      "t": 1714.7,
      "ch": 1,
      "note": 42,
      "vel": 86,
      "dur": 25
    },
    {
      "t": 1714.8,
      "ch": 0,
      "note": 36,
      "vel": 90,
      "dur": 55
    },
    {
      "t": 1714.8,
      "ch": 1,
      "note": 36,
      "vel": 81,
      "dur": 25
    },
    {
      "t": 1714.8,
      "ch": 7,
      "note": 48,
      "vel": 70,
      "dur": 80
    },
    {
      "t": 1714.8,
      "ch": 7,
      "note": 36,
      "vel": 74,
      "dur": 80
    },
    {
      "t": 1714.9,
      "ch": 1,
      "note": 38,
      "vel": 85,
      "dur": 25
    },
    {
      "t": 1714.9,
      "ch": 1,
      "note": 40,
      "vel": 90,
      "dur": 25
    },
    {
      "t": 1715,
      "ch": 6,
      "note": 48,
      "vel": 58,
      "dur": 528
    },
    {
      "t": 1715,
      "ch": 1,
      "note": 42,
      "vel": 84,
      "dur": 25
    },
    {
      "t": 1715.1,
      "ch": 1,
      "note": 36,
      "vel": 109,
      "dur": 25
    },
    {
      "t": 1715.2,
      "ch": 1,
      "note": 38,
      "vel": 83,
      "dur": 25
    },
    {
      "t": 1715.2,
      "ch": 1,
      "note": 40,
      "vel": 99,
      "dur": 25
    },
    {
      "t": 1715.3,
      "ch": 0,
      "note": 36,
      "vel": 66,
      "dur": 55
    },
    {
      "t": 1715.3,
      "ch": 5,
      "note": 49,
      "vel": 66,
      "dur": 793
    },
    {
      "t": 1715.3,
      "ch": 1,
      "note": 42,
      "vel": 84,
      "dur": 25
    },
    {
      "t": 1715.4,
      "ch": 0,
      "note": 36,
      "vel": 113,
      "dur": 55
    },
    {
      "t": 1715.4,
      "ch": 1,
      "note": 36,
      "vel": 110,
      "dur": 25
    },
    {
      "t": 1715.4,
      "ch": 7,
      "note": 48,
      "vel": 71,
      "dur": 80
    },
    {
      "t": 1715.4,
      "ch": 7,
      "note": 45,
      "vel": 62,
      "dur": 80
    },
    {
      "t": 1715.4,
      "ch": 7,
      "note": 36,
      "vel": 70,
      "dur": 80
    },
    {
      "t": 1715.4,
      "ch": 7,
      "note": 38,
      "vel": 79,
      "dur": 80
    },
    {
      "t": 1715.4,
      "ch": 6,
      "note": 52,
      "vel": 49,
      "dur": 529
    },
    {
      "t": 1715.5,
      "ch": 1,
      "note": 38,
      "vel": 101,
      "dur": 25
    },
    {
      "t": 1715.5,
      "ch": 1,
      "note": 40,
      "vel": 90,
      "dur": 25
    },
    {
      "t": 1715.6,
      "ch": 1,
      "note": 42,
      "vel": 95,
      "dur": 25
    },
    {
      "t": 1715.7,
      "ch": 1,
      "note": 36,
      "vel": 85,
      "dur": 25
    },
    {
      "t": 1715.7,
      "ch": 7,
      "note": 36,
      "vel": 66,
      "dur": 80
    },
    {
      "t": 1715.7,
      "ch": 5,
      "note": 68,
      "vel": 53,
      "dur": 794
    },
    {
      "t": 1715.8,
      "ch": 1,
      "note": 38,
      "vel": 110,
      "dur": 25
    },
    {
      "t": 1715.8,
      "ch": 1,
      "note": 40,
      "vel": 108,
      "dur": 25
    },
    {
      "t": 1715.9,
      "ch": 1,
      "note": 42,
      "vel": 99,
      "dur": 25
    },
    {
      "t": 1716,
      "ch": 0,
      "note": 36,
      "vel": 91,
      "dur": 55
    },
    {
      "t": 1716,
      "ch": 1,
      "note": 36,
      "vel": 111,
      "dur": 25
    },
    {
      "t": 1716,
      "ch": 7,
      "note": 48,
      "vel": 80,
      "dur": 80
    },
    {
      "t": 1716,
      "ch": 7,
      "note": 36,
      "vel": 69,
      "dur": 80
    },
    {
      "t": 1716.1,
      "ch": 1,
      "note": 38,
      "vel": 91,
      "dur": 25
    },
    {
      "t": 1716.1,
      "ch": 6,
      "note": 73,
      "vel": 22,
      "dur": 400
    },
    {
      "t": 1716.1,
      "ch": 1,
      "note": 40,
      "vel": 95,
      "dur": 25
    },
    {
      "t": 1716.2,
      "ch": 7,
      "note": 45,
      "vel": 66,
      "dur": 80
    },
    {
      "t": 1716.2,
      "ch": 7,
      "note": 38,
      "vel": 52,
      "dur": 80
    },
    {
      "t": 1716.2,
      "ch": 1,
      "note": 42,
      "vel": 83,
      "dur": 25
    },
    {
      "t": 1716.3,
      "ch": 1,
      "note": 36,
      "vel": 74,
      "dur": 25
    },
    {
      "t": 1716.4,
      "ch": 1,
      "note": 38,
      "vel": 104,
      "dur": 25
    },
    {
      "t": 1716.4,
      "ch": 1,
      "note": 40,
      "vel": 93,
      "dur": 25
    },
    {
      "t": 1716.5,
      "ch": 4,
      "note": 58,
      "vel": 90,
      "dur": 2350
    },
    {
      "t": 1716.5,
      "ch": 3,
      "note": 44,
      "vel": 74,
      "dur": 2400
    },
    {
      "t": 1716.5,
      "ch": 1,
      "note": 42,
      "vel": 96,
      "dur": 25
    },
    {
      "t": 1716.6,
      "ch": 0,
      "note": 36,
      "vel": 90,
      "dur": 55
    },
    {
      "t": 1716.6,
      "ch": 1,
      "note": 36,
      "vel": 105,
      "dur": 25
    },
    {
      "t": 1716.6,
      "ch": 7,
      "note": 48,
      "vel": 66,
      "dur": 80
    },
    {
      "t": 1716.6,
      "ch": 7,
      "note": 36,
      "vel": 78,
      "dur": 80
    },
    {
      "t": 1716.7,
      "ch": 1,
      "note": 38,
      "vel": 102,
      "dur": 25
    },
    {
      "t": 1716.7,
      "ch": 1,
      "note": 40,
      "vel": 116,
      "dur": 25
    },
    {
      "t": 1716.8,
      "ch": 1,
      "note": 42,
      "vel": 83,
      "dur": 25
    },
    {
      "t": 1716.9,
      "ch": 1,
      "note": 36,
      "vel": 100,
      "dur": 25
    },
    {
      "t": 1716.9,
      "ch": 7,
      "note": 36,
      "vel": 66,
      "dur": 80
    },
    {
      "t": 1716.9,
      "ch": 5,
      "note": 71,
      "vel": 51,
      "dur": 799
    },
    {
      "t": 1716.9,
      "ch": 7,
      "note": 38,
      "vel": 63,
      "dur": 80
    },
    {
      "t": 1716.9,
      "ch": 7,
      "note": 45,
      "vel": 69,
      "dur": 80
    },
    {
      "t": 1717,
      "ch": 1,
      "note": 38,
      "vel": 100,
      "dur": 25
    },
    {
      "t": 1717,
      "ch": 1,
      "note": 40,
      "vel": 86,
      "dur": 25
    },
    {
      "t": 1717.1,
      "ch": 1,
      "note": 42,
      "vel": 100,
      "dur": 25
    },
    {
      "t": 1717.2,
      "ch": 0,
      "note": 36,
      "vel": 92,
      "dur": 55
    },
    {
      "t": 1717.2,
      "ch": 1,
      "note": 36,
      "vel": 104,
      "dur": 25
    },
    {
      "t": 1717.2,
      "ch": 7,
      "note": 48,
      "vel": 77,
      "dur": 80
    },
    {
      "t": 1717.2,
      "ch": 7,
      "note": 36,
      "vel": 70,
      "dur": 80
    },
    {
      "t": 1717.3,
      "ch": 1,
      "note": 38,
      "vel": 127,
      "dur": 25
    },
    {
      "t": 1717.3,
      "ch": 1,
      "note": 40,
      "vel": 101,
      "dur": 25
    },
    {
      "t": 1717.4,
      "ch": 1,
      "note": 42,
      "vel": 114,
      "dur": 25
    },
    {
      "t": 1717.5,
      "ch": 1,
      "note": 36,
      "vel": 87,
      "dur": 25
    },
    {
      "t": 1717.5,
      "ch": 6,
      "note": 73,
      "vel": 43,
      "dur": 534
    },
    {
      "t": 1717.6,
      "ch": 1,
      "note": 38,
      "vel": 86,
      "dur": 25
    },
    {
      "t": 1717.7,
      "ch": 1,
      "note": 40,
      "vel": 75,
      "dur": 25
    },
    {
      "t": 1717.7,
      "ch": 1,
      "note": 42,
      "vel": 96,
      "dur": 25
    },
    {
      "t": 1717.8,
      "ch": 0,
      "note": 36,
      "vel": 113,
      "dur": 55
    },
    {
      "t": 1717.8,
      "ch": 1,
      "note": 36,
      "vel": 99,
      "dur": 25
    },
    {
      "t": 1717.8,
      "ch": 7,
      "note": 48,
      "vel": 82,
      "dur": 80
    },
    {
      "t": 1717.8,
      "ch": 7,
      "note": 45,
      "vel": 64,
      "dur": 80
    },
    {
      "t": 1717.8,
      "ch": 7,
      "note": 36,
      "vel": 68,
      "dur": 80
    },
    {
      "t": 1717.8,
      "ch": 7,
      "note": 38,
      "vel": 72,
      "dur": 80
    },
    {
      "t": 1717.9,
      "ch": 1,
      "note": 38,
      "vel": 92,
      "dur": 25
    },
    {
      "t": 1718,
      "ch": 1,
      "note": 40,
      "vel": 78,
      "dur": 25
    },
    {
      "t": 1718,
      "ch": 1,
      "note": 42,
      "vel": 83,
      "dur": 25
    },
    {
      "t": 1718.1,
      "ch": 1,
      "note": 36,
      "vel": 93,
      "dur": 25
    },
    {
      "t": 1718.1,
      "ch": 7,
      "note": 36,
      "vel": 60,
      "dur": 80
    },
    {
      "t": 1718.1,
      "ch": 6,
      "note": 71,
      "vel": 54,
      "dur": 537
    },
    {
      "t": 1718.1,
      "ch": 5,
      "note": 68,
      "vel": 36,
      "dur": 805
    },
    {
      "t": 1718.2,
      "ch": 1,
      "note": 38,
      "vel": 115,
      "dur": 25
    },
    {
      "t": 1718.2,
      "ch": 1,
      "note": 40,
      "vel": 99,
      "dur": 25
    },
    {
      "t": 1718.3,
      "ch": 1,
      "note": 42,
      "vel": 103,
      "dur": 25
    },
    {
      "t": 1718.4,
      "ch": 0,
      "note": 36,
      "vel": 96,
      "dur": 55
    },
    {
      "t": 1718.4,
      "ch": 1,
      "note": 36,
      "vel": 75,
      "dur": 25
    },
    {
      "t": 1718.4,
      "ch": 7,
      "note": 48,
      "vel": 70,
      "dur": 80
    },
    {
      "t": 1718.4,
      "ch": 7,
      "note": 36,
      "vel": 72,
      "dur": 80
    },
    {
      "t": 1718.4,
      "ch": 6,
      "note": 71,
      "vel": 26,
      "dur": 400
    },
    {
      "t": 1718.4,
      "ch": 6,
      "note": 52,
      "vel": 56,
      "dur": 538
    },
    {
      "t": 1718.5,
      "ch": 1,
      "note": 38,
      "vel": 97,
      "dur": 25
    },
    {
      "t": 1718.6,
      "ch": 1,
      "note": 40,
      "vel": 74,
      "dur": 25
    },
    {
      "t": 1718.6,
      "ch": 7,
      "note": 38,
      "vel": 65,
      "dur": 80
    },
    {
      "t": 1718.6,
      "ch": 7,
      "note": 45,
      "vel": 62,
      "dur": 80
    },
    {
      "t": 1718.6,
      "ch": 6,
      "note": 71,
      "vel": 43,
      "dur": 539
    },
    {
      "t": 1718.6,
      "ch": 1,
      "note": 42,
      "vel": 82,
      "dur": 25
    },
    {
      "t": 1718.7,
      "ch": 1,
      "note": 36,
      "vel": 104,
      "dur": 25
    },
    {
      "t": 1718.7,
      "ch": 6,
      "note": 73,
      "vel": 61,
      "dur": 540
    },
    {
      "t": 1718.8,
      "ch": 1,
      "note": 38,
      "vel": 99,
      "dur": 25
    },
    {
      "t": 1718.8,
      "ch": 1,
      "note": 40,
      "vel": 103,
      "dur": 25
    },
    {
      "t": 1718.9,
      "ch": 6,
      "note": 68,
      "vel": 48,
      "dur": 540
    },
    {
      "t": 1718.9,
      "ch": 5,
      "note": 37,
      "vel": 54,
      "dur": 810
    },
    {
      "t": 1718.9,
      "ch": 4,
      "note": 59,
      "vel": 71,
      "dur": 2350
    },
    {
      "t": 1718.9,
      "ch": 3,
      "note": 40,
      "vel": 71,
      "dur": 2400
    },
    {
      "t": 1718.9,
      "ch": 1,
      "note": 42,
      "vel": 79,
      "dur": 25
    },
    {
      "t": 1719,
      "ch": 0,
      "note": 36,
      "vel": 89,
      "dur": 55
    },
    {
      "t": 1719,
      "ch": 1,
      "note": 36,
      "vel": 114,
      "dur": 25
    },
    {
      "t": 1719,
      "ch": 7,
      "note": 48,
      "vel": 74,
      "dur": 80
    },
    {
      "t": 1719,
      "ch": 7,
      "note": 36,
      "vel": 68,
      "dur": 80
    },
    {
      "t": 1719,
      "ch": 5,
      "note": 49,
      "vel": 58,
      "dur": 811
    },
    {
      "t": 1719,
      "ch": 6,
      "note": 52,
      "vel": 50,
      "dur": 541
    },
    {
      "t": 1719.1,
      "ch": 1,
      "note": 38,
      "vel": 124,
      "dur": 25
    },
    {
      "t": 1719.1,
      "ch": 1,
      "note": 40,
      "vel": 91,
      "dur": 25
    },
    {
      "t": 1719.2,
      "ch": 1,
      "note": 42,
      "vel": 83,
      "dur": 25
    },
    {
      "t": 1719.3,
      "ch": 1,
      "note": 36,
      "vel": 95,
      "dur": 25
    },
    {
      "t": 1719.3,
      "ch": 7,
      "note": 45,
      "vel": 65,
      "dur": 80
    },
    {
      "t": 1719.3,
      "ch": 5,
      "note": 51,
      "vel": 44,
      "dur": 814
    },
    {
      "t": 1719.3,
      "ch": 7,
      "note": 38,
      "vel": 57,
      "dur": 80
    },
    {
      "t": 1719.3,
      "ch": 6,
      "note": 54,
      "vel": 52,
      "dur": 542
    },
    {
      "t": 1719.3,
      "ch": 7,
      "note": 36,
      "vel": 55,
      "dur": 80
    },
    {
      "t": 1719.4,
      "ch": 1,
      "note": 38,
      "vel": 86,
      "dur": 25
    },
    {
      "t": 1719.4,
      "ch": 6,
      "note": 52,
      "vel": 39,
      "dur": 400
    },
    {
      "t": 1719.5,
      "ch": 1,
      "note": 40,
      "vel": 85,
      "dur": 25
    },
    {
      "t": 1719.5,
      "ch": 1,
      "note": 42,
      "vel": 83,
      "dur": 25
    },
    {
      "t": 1719.6,
      "ch": 0,
      "note": 36,
      "vel": 87,
      "dur": 55
    },
    {
      "t": 1719.6,
      "ch": 1,
      "note": 36,
      "vel": 105,
      "dur": 25
    },
    {
      "t": 1719.6,
      "ch": 7,
      "note": 48,
      "vel": 80,
      "dur": 80
    },
    {
      "t": 1719.6,
      "ch": 7,
      "note": 36,
      "vel": 70,
      "dur": 80
    },
    {
      "t": 1719.7,
      "ch": 1,
      "note": 38,
      "vel": 102,
      "dur": 25
    },
    {
      "t": 1719.7,
      "ch": 1,
      "note": 40,
      "vel": 62,
      "dur": 25
    },
    {
      "t": 1719.8,
      "ch": 6,
      "note": 54,
      "vel": 43,
      "dur": 545
    },
    {
      "t": 1719.8,
      "ch": 1,
      "note": 42,
      "vel": 97,
      "dur": 25
    },
    {
      "t": 1719.9,
      "ch": 1,
      "note": 36,
      "vel": 92,
      "dur": 25
    },
    {
      "t": 1719.9,
      "ch": 5,
      "note": 63,
      "vel": 45,
      "dur": 818
    },
    {
      "t": 1720,
      "ch": 1,
      "note": 38,
      "vel": 79,
      "dur": 25
    },
    {
      "t": 1720.1,
      "ch": 1,
      "note": 40,
      "vel": 93,
      "dur": 25
    },
    {
      "t": 1720.1,
      "ch": 6,
      "note": 66,
      "vel": 56,
      "dur": 546
    },
    {
      "t": 1720.1,
      "ch": 1,
      "note": 42,
      "vel": 82,
      "dur": 25
    },
    {
      "t": 1720.2,
      "ch": 0,
      "note": 36,
      "vel": 117,
      "dur": 55
    },
    {
      "t": 1720.2,
      "ch": 1,
      "note": 36,
      "vel": 103,
      "dur": 25
    },
    {
      "t": 1720.2,
      "ch": 7,
      "note": 48,
      "vel": 72,
      "dur": 80
    },
    {
      "t": 1720.2,
      "ch": 7,
      "note": 45,
      "vel": 80,
      "dur": 80
    },
    {
      "t": 1720.2,
      "ch": 7,
      "note": 36,
      "vel": 62,
      "dur": 80
    },
    {
      "t": 1720.2,
      "ch": 7,
      "note": 38,
      "vel": 72,
      "dur": 80
    },
    {
      "t": 1720.2,
      "ch": 5,
      "note": 61,
      "vel": 56,
      "dur": 821
    },
    {
      "t": 1720.3,
      "ch": 1,
      "note": 38,
      "vel": 115,
      "dur": 25
    },
    {
      "t": 1720.3,
      "ch": 1,
      "note": 40,
      "vel": 95,
      "dur": 25
    },
    {
      "t": 1720.3,
      "ch": 6,
      "note": 70,
      "vel": 23,
      "dur": 400
    },
    {
      "t": 1720.4,
      "ch": 5,
      "note": 51,
      "vel": 46,
      "dur": 822
    },
    {
      "t": 1720.4,
      "ch": 1,
      "note": 42,
      "vel": 89,
      "dur": 25
    },
    {
      "t": 1720.5,
      "ch": 1,
      "note": 36,
      "vel": 104,
      "dur": 25
    },
    {
      "t": 1720.5,
      "ch": 7,
      "note": 36,
      "vel": 62,
      "dur": 80
    },
    {
      "t": 1720.6,
      "ch": 1,
      "note": 38,
      "vel": 104,
      "dur": 25
    },
    {
      "t": 1720.6,
      "ch": 1,
      "note": 40,
      "vel": 94,
      "dur": 25
    },
    {
      "t": 1720.7,
      "ch": 1,
      "note": 42,
      "vel": 99,
      "dur": 25
    },
    {
      "t": 1720.8,
      "ch": 0,
      "note": 36,
      "vel": 86,
      "dur": 55
    },
    {
      "t": 1720.8,
      "ch": 1,
      "note": 36,
      "vel": 111,
      "dur": 25
    },
    {
      "t": 1720.8,
      "ch": 7,
      "note": 48,
      "vel": 75,
      "dur": 80
    },
    {
      "t": 1720.8,
      "ch": 7,
      "note": 36,
      "vel": 70,
      "dur": 80
    },
    {
      "t": 1720.9,
      "ch": 1,
      "note": 38,
      "vel": 127,
      "dur": 25
    },
    {
      "t": 1720.9,
      "ch": 1,
      "note": 40,
      "vel": 105,
      "dur": 25
    },
    {
      "t": 1721,
      "ch": 7,
      "note": 38,
      "vel": 59,
      "dur": 80
    },
    {
      "t": 1721,
      "ch": 7,
      "note": 45,
      "vel": 62,
      "dur": 80
    },
    {
      "t": 1721,
      "ch": 1,
      "note": 42,
      "vel": 113,
      "dur": 25
    },
    {
      "t": 1721.1,
      "ch": 1,
      "note": 36,
      "vel": 115,
      "dur": 25
    },
    {
      "t": 1721.2,
      "ch": 1,
      "note": 38,
      "vel": 97,
      "dur": 25
    },
    {
      "t": 1721.2,
      "ch": 1,
      "note": 40,
      "vel": 97,
      "dur": 25
    },
    {
      "t": 1721.3,
      "ch": 5,
      "note": 54,
      "vel": 56,
      "dur": 829
    },
    {
      "t": 1721.3,
      "ch": 1,
      "note": 42,
      "vel": 104,
      "dur": 25
    },
    {
      "t": 1721.4,
      "ch": 0,
      "note": 36,
      "vel": 96,
      "dur": 55
    },
    {
      "t": 1721.4,
      "ch": 1,
      "note": 36,
      "vel": 110,
      "dur": 25
    },
    {
      "t": 1721.4,
      "ch": 7,
      "note": 48,
      "vel": 59,
      "dur": 80
    },
    {
      "t": 1721.4,
      "ch": 7,
      "note": 36,
      "vel": 64,
      "dur": 80
    },
    {
      "t": 1721.5,
      "ch": 1,
      "note": 38,
      "vel": 100,
      "dur": 25
    },
    {
      "t": 1721.5,
      "ch": 1,
      "note": 40,
      "vel": 94,
      "dur": 25
    },
    {
      "t": 1721.6,
      "ch": 6,
      "note": 64,
      "vel": 35,
      "dur": 555
    },
    {
      "t": 1721.6,
      "ch": 1,
      "note": 42,
      "vel": 87,
      "dur": 25
    },
    {
      "t": 1721.7,
      "ch": 1,
      "note": 36,
      "vel": 108,
      "dur": 25
    },
    {
      "t": 1721.7,
      "ch": 7,
      "note": 45,
      "vel": 54,
      "dur": 80
    },
    {
      "t": 1721.7,
      "ch": 7,
      "note": 36,
      "vel": 64,
      "dur": 80
    },
    {
      "t": 1721.7,
      "ch": 7,
      "note": 38,
      "vel": 65,
      "dur": 80
    },
    {
      "t": 1721.8,
      "ch": 1,
      "note": 38,
      "vel": 85,
      "dur": 25
    },
    {
      "t": 1721.8,
      "ch": 1,
      "note": 40,
      "vel": 105,
      "dur": 25
    },
    {
      "t": 1721.9,
      "ch": 1,
      "note": 42,
      "vel": 116,
      "dur": 25
    },
    {
      "t": 1722,
      "ch": 0,
      "note": 36,
      "vel": 96,
      "dur": 55
    },
    {
      "t": 1722,
      "ch": 1,
      "note": 36,
      "vel": 104,
      "dur": 25
    },
    {
      "t": 1722,
      "ch": 7,
      "note": 48,
      "vel": 66,
      "dur": 80
    },
    {
      "t": 1722,
      "ch": 7,
      "note": 36,
      "vel": 78,
      "dur": 80
    },
    {
      "t": 1722.1,
      "ch": 1,
      "note": 38,
      "vel": 114,
      "dur": 25
    },
    {
      "t": 1722.1,
      "ch": 1,
      "note": 40,
      "vel": 93,
      "dur": 25
    },
    {
      "t": 1722.2,
      "ch": 1,
      "note": 42,
      "vel": 99,
      "dur": 25
    },
    {
      "t": 1722.3,
      "ch": 1,
      "note": 36,
      "vel": 98,
      "dur": 25
    },
    {
      "t": 1722.4,
      "ch": 1,
      "note": 38,
      "vel": 111,
      "dur": 25
    },
    {
      "t": 1722.4,
      "ch": 1,
      "note": 40,
      "vel": 102,
      "dur": 25
    },
    {
      "t": 1722.5,
      "ch": 1,
      "note": 42,
      "vel": 117,
      "dur": 25
    },
    {
      "t": 1722.6,
      "ch": 0,
      "note": 36,
      "vel": 117,
      "dur": 55
    },
    {
      "t": 1722.6,
      "ch": 1,
      "note": 36,
      "vel": 111,
      "dur": 25
    },
    {
      "t": 1722.6,
      "ch": 7,
      "note": 48,
      "vel": 65,
      "dur": 80
    },
    {
      "t": 1722.6,
      "ch": 7,
      "note": 45,
      "vel": 69,
      "dur": 80
    },
    {
      "t": 1722.6,
      "ch": 7,
      "note": 36,
      "vel": 73,
      "dur": 80
    },
    {
      "t": 1722.6,
      "ch": 7,
      "note": 38,
      "vel": 62,
      "dur": 80
    },
    {
      "t": 1722.7,
      "ch": 1,
      "note": 38,
      "vel": 84,
      "dur": 25
    },
    {
      "t": 1722.7,
      "ch": 1,
      "note": 40,
      "vel": 69,
      "dur": 25
    },
    {
      "t": 1722.8,
      "ch": 1,
      "note": 42,
      "vel": 94,
      "dur": 25
    },
    {
      "t": 1722.9,
      "ch": 1,
      "note": 36,
      "vel": 102,
      "dur": 25
    },
    {
      "t": 1722.9,
      "ch": 7,
      "note": 36,
      "vel": 59,
      "dur": 80
    },
    {
      "t": 1722.9,
      "ch": 5,
      "note": 49,
      "vel": 46,
      "dur": 843
    },
    {
      "t": 1723,
      "ch": 1,
      "note": 38,
      "vel": 118,
      "dur": 25
    },
    {
      "t": 1723,
      "ch": 1,
      "note": 40,
      "vel": 70,
      "dur": 25
    },
    {
      "t": 1723.1,
      "ch": 1,
      "note": 42,
      "vel": 127,
      "dur": 25
    },
    {
      "t": 1723.2,
      "ch": 0,
      "note": 36,
      "vel": 95,
      "dur": 55
    },
    {
      "t": 1723.2,
      "ch": 1,
      "note": 36,
      "vel": 92,
      "dur": 25
    },
    {
      "t": 1723.2,
      "ch": 7,
      "note": 48,
      "vel": 78,
      "dur": 80
    },
    {
      "t": 1723.2,
      "ch": 7,
      "note": 36,
      "vel": 66,
      "dur": 80
    },
    {
      "t": 1723.3,
      "ch": 1,
      "note": 38,
      "vel": 99,
      "dur": 25
    },
    {
      "t": 1723.3,
      "ch": 1,
      "note": 40,
      "vel": 100,
      "dur": 25
    },
    {
      "t": 1723.4,
      "ch": 7,
      "note": 38,
      "vel": 60,
      "dur": 80
    },
    {
      "t": 1723.4,
      "ch": 7,
      "note": 45,
      "vel": 67,
      "dur": 80
    },
    {
      "t": 1723.4,
      "ch": 1,
      "note": 42,
      "vel": 112,
      "dur": 25
    },
    {
      "t": 1723.5,
      "ch": 1,
      "note": 36,
      "vel": 98,
      "dur": 25
    },
    {
      "t": 1723.6,
      "ch": 1,
      "note": 38,
      "vel": 113,
      "dur": 25
    },
    {
      "t": 1723.6,
      "ch": 1,
      "note": 40,
      "vel": 90,
      "dur": 25
    },
    {
      "t": 1723.7,
      "ch": 2,
      "note": 49,
      "vel": 60,
      "dur": 18000
    },
    {
      "t": 1723.7,
      "ch": 1,
      "note": 42,
      "vel": 92,
      "dur": 25
    },
    {
      "t": 1723.8,
      "ch": 0,
      "note": 36,
      "vel": 87,
      "dur": 55
    },
    {
      "t": 1723.8,
      "ch": 1,
      "note": 36,
      "vel": 102,
      "dur": 25
    },
    {
      "t": 1723.8,
      "ch": 7,
      "note": 48,
      "vel": 59,
      "dur": 80
    },
    {
      "t": 1723.8,
      "ch": 7,
      "note": 36,
      "vel": 73,
      "dur": 80
    },
    {
      "t": 1723.9,
      "ch": 1,
      "note": 38,
      "vel": 122,
      "dur": 25
    },
    {
      "t": 1723.9,
      "ch": 1,
      "note": 40,
      "vel": 98,
      "dur": 25
    },
    {
      "t": 1724,
      "ch": 1,
      "note": 42,
      "vel": 103,
      "dur": 25
    },
    {
      "t": 1724.1,
      "ch": 1,
      "note": 36,
      "vel": 96,
      "dur": 25
    },
    {
      "t": 1724.1,
      "ch": 7,
      "note": 36,
      "vel": 55,
      "dur": 80
    },
    {
      "t": 1724.1,
      "ch": 7,
      "note": 38,
      "vel": 70,
      "dur": 80
    },
    {
      "t": 1724.1,
      "ch": 7,
      "note": 45,
      "vel": 70,
      "dur": 80
    },
    {
      "t": 1724.2,
      "ch": 1,
      "note": 38,
      "vel": 97,
      "dur": 25
    },
    {
      "t": 1724.2,
      "ch": 1,
      "note": 40,
      "vel": 99,
      "dur": 25
    },
    {
      "t": 1724.3,
      "ch": 5,
      "note": 51,
      "vel": 20,
      "dur": 852
    },
    {
      "t": 1724.3,
      "ch": 1,
      "note": 42,
      "vel": 103,
      "dur": 25
    },
    {
      "t": 1724.4,
      "ch": 0,
      "note": 36,
      "vel": 91,
      "dur": 55
    },
    {
      "t": 1724.4,
      "ch": 1,
      "note": 36,
      "vel": 120,
      "dur": 25
    },
    {
      "t": 1724.4,
      "ch": 7,
      "note": 48,
      "vel": 66,
      "dur": 80
    },
    {
      "t": 1724.4,
      "ch": 7,
      "note": 36,
      "vel": 61,
      "dur": 80
    },
    {
      "t": 1724.5,
      "ch": 1,
      "note": 38,
      "vel": 101,
      "dur": 25
    },
    {
      "t": 1724.5,
      "ch": 1,
      "note": 40,
      "vel": 88,
      "dur": 25
    },
    {
      "t": 1724.6,
      "ch": 1,
      "note": 42,
      "vel": 105,
      "dur": 25
    },
    {
      "t": 1724.7,
      "ch": 1,
      "note": 36,
      "vel": 94,
      "dur": 25
    },
    {
      "t": 1724.7,
      "ch": 5,
      "note": 63,
      "vel": 38,
      "dur": 854
    },
    {
      "t": 1724.8,
      "ch": 1,
      "note": 38,
      "vel": 76,
      "dur": 25
    },
    {
      "t": 1724.8,
      "ch": 1,
      "note": 40,
      "vel": 74,
      "dur": 25
    },
    {
      "t": 1724.9,
      "ch": 1,
      "note": 42,
      "vel": 122,
      "dur": 25
    },
    {
      "t": 1725,
      "ch": 0,
      "note": 36,
      "vel": 115,
      "dur": 55
    },
    {
      "t": 1725,
      "ch": 1,
      "note": 36,
      "vel": 105,
      "dur": 25
    },
    {
      "t": 1725,
      "ch": 7,
      "note": 48,
      "vel": 73,
      "dur": 80
    },
    {
      "t": 1725,
      "ch": 7,
      "note": 45,
      "vel": 58,
      "dur": 80
    },
    {
      "t": 1725,
      "ch": 7,
      "note": 36,
      "vel": 57,
      "dur": 80
    },
    {
      "t": 1725,
      "ch": 7,
      "note": 38,
      "vel": 70,
      "dur": 80
    },
    {
      "t": 1725.1,
      "ch": 1,
      "note": 38,
      "vel": 127,
      "dur": 25
    },
    {
      "t": 1725.2,
      "ch": 1,
      "note": 40,
      "vel": 89,
      "dur": 25
    },
    {
      "t": 1725.2,
      "ch": 6,
      "note": 54,
      "vel": 39,
      "dur": 571
    },
    {
      "t": 1725.2,
      "ch": 1,
      "note": 42,
      "vel": 84,
      "dur": 25
    },
    {
      "t": 1725.3,
      "ch": 1,
      "note": 36,
      "vel": 116,
      "dur": 25
    },
    {
      "t": 1725.3,
      "ch": 7,
      "note": 36,
      "vel": 59,
      "dur": 80
    },
    {
      "t": 1725.3,
      "ch": 5,
      "note": 61,
      "vel": 45,
      "dur": 857
    },
    {
      "t": 1725.4,
      "ch": 1,
      "note": 38,
      "vel": 108,
      "dur": 25
    },
    {
      "t": 1725.4,
      "ch": 1,
      "note": 40,
      "vel": 91,
      "dur": 25
    },
    {
      "t": 1725.5,
      "ch": 5,
      "note": 51,
      "vel": 13,
      "dur": 858
    },
    {
      "t": 1725.5,
      "ch": 1,
      "note": 42,
      "vel": 95,
      "dur": 25
    },
    {
      "t": 1725.6,
      "ch": 0,
      "note": 36,
      "vel": 96,
      "dur": 55
    },
    {
      "t": 1725.6,
      "ch": 1,
      "note": 36,
      "vel": 94,
      "dur": 25
    },
    {
      "t": 1725.6,
      "ch": 7,
      "note": 48,
      "vel": 68,
      "dur": 80
    },
    {
      "t": 1725.6,
      "ch": 7,
      "note": 36,
      "vel": 56,
      "dur": 80
    },
    {
      "t": 1725.7,
      "ch": 1,
      "note": 38,
      "vel": 127,
      "dur": 25
    },
    {
      "t": 1725.7,
      "ch": 1,
      "note": 40,
      "vel": 90,
      "dur": 25
    },
    {
      "t": 1725.8,
      "ch": 7,
      "note": 38,
      "vel": 56,
      "dur": 80
    },
    {
      "t": 1725.8,
      "ch": 7,
      "note": 45,
      "vel": 66,
      "dur": 80
    },
    {
      "t": 1725.8,
      "ch": 1,
      "note": 42,
      "vel": 82,
      "dur": 25
    },
    {
      "t": 1725.9,
      "ch": 1,
      "note": 36,
      "vel": 84,
      "dur": 25
    },
    {
      "t": 1726,
      "ch": 1,
      "note": 38,
      "vel": 76,
      "dur": 25
    },
    {
      "t": 1726,
      "ch": 1,
      "note": 40,
      "vel": 96,
      "dur": 25
    },
    {
      "t": 1726.1,
      "ch": 1,
      "note": 42,
      "vel": 65,
      "dur": 25
    },
    {
      "t": 1726.2,
      "ch": 0,
      "note": 36,
      "vel": 95,
      "dur": 55
    },
    {
      "t": 1726.2,
      "ch": 1,
      "note": 36,
      "vel": 95,
      "dur": 25
    },
    {
      "t": 1726.2,
      "ch": 7,
      "note": 48,
      "vel": 66,
      "dur": 80
    },
    {
      "t": 1726.2,
      "ch": 7,
      "note": 36,
      "vel": 71,
      "dur": 80
    },
    {
      "t": 1726.2,
      "ch": 5,
      "note": 54,
      "vel": 21,
      "dur": 861
    },
    {
      "t": 1726.3,
      "ch": 1,
      "note": 38,
      "vel": 69,
      "dur": 25
    },
    {
      "t": 1726.3,
      "ch": 1,
      "note": 40,
      "vel": 74,
      "dur": 25
    },
    {
      "t": 1726.4,
      "ch": 1,
      "note": 42,
      "vel": 59,
      "dur": 25
    },
    {
      "t": 1726.4,
      "ch": 6,
      "note": 56,
      "vel": 14,
      "dur": 400
    },
    {
      "t": 1726.5,
      "ch": 1,
      "note": 36,
      "vel": 88,
      "dur": 25
    },
    {
      "t": 1726.5,
      "ch": 7,
      "note": 45,
      "vel": 59,
      "dur": 80
    },
    {
      "t": 1726.5,
      "ch": 7,
      "note": 36,
      "vel": 67,
      "dur": 80
    },
    {
      "t": 1726.5,
      "ch": 7,
      "note": 38,
      "vel": 52,
      "dur": 80
    },
    {
      "t": 1726.5,
      "ch": 6,
      "note": 58,
      "vel": 56,
      "dur": 574
    },
    {
      "t": 1726.6,
      "ch": 1,
      "note": 38,
      "vel": 77,
      "dur": 25
    },
    {
      "t": 1726.6,
      "ch": 1,
      "note": 40,
      "vel": 73,
      "dur": 25
    },
    {
      "t": 1726.7,
      "ch": 6,
      "note": 56,
      "vel": 30,
      "dur": 575
    },
    {
      "t": 1726.7,
      "ch": 1,
      "note": 42,
      "vel": 84,
      "dur": 25
    },
    {
      "t": 1726.8,
      "ch": 0,
      "note": 36,
      "vel": 87,
      "dur": 55
    },
    {
      "t": 1726.8,
      "ch": 1,
      "note": 36,
      "vel": 95,
      "dur": 25
    },
    {
      "t": 1726.8,
      "ch": 7,
      "note": 48,
      "vel": 70,
      "dur": 80
    },
    {
      "t": 1726.8,
      "ch": 7,
      "note": 36,
      "vel": 77,
      "dur": 80
    },
    {
      "t": 1726.9,
      "ch": 1,
      "note": 38,
      "vel": 72,
      "dur": 25
    },
    {
      "t": 1726.9,
      "ch": 1,
      "note": 40,
      "vel": 72,
      "dur": 25
    },
    {
      "t": 1727,
      "ch": 1,
      "note": 42,
      "vel": 62,
      "dur": 25
    },
    {
      "t": 1727.1,
      "ch": 1,
      "note": 36,
      "vel": 81,
      "dur": 25
    },
    {
      "t": 1727.2,
      "ch": 1,
      "note": 38,
      "vel": 61,
      "dur": 25
    },
    {
      "t": 1727.2,
      "ch": 1,
      "note": 40,
      "vel": 56,
      "dur": 25
    },
    {
      "t": 1727.3,
      "ch": 1,
      "note": 42,
      "vel": 69,
      "dur": 25
    },
    {
      "t": 1727.4,
      "ch": 0,
      "note": 36,
      "vel": 116,
      "dur": 55
    },
    {
      "t": 1727.4,
      "ch": 1,
      "note": 36,
      "vel": 95,
      "dur": 25
    },
    {
      "t": 1727.4,
      "ch": 7,
      "note": 48,
      "vel": 79,
      "dur": 80
    },
    {
      "t": 1727.4,
      "ch": 7,
      "note": 45,
      "vel": 75,
      "dur": 80
    },
    {
      "t": 1727.4,
      "ch": 7,
      "note": 36,
      "vel": 56,
      "dur": 80
    },
    {
      "t": 1727.4,
      "ch": 7,
      "note": 38,
      "vel": 73,
      "dur": 80
    },
    {
      "t": 1727.5,
      "ch": 1,
      "note": 38,
      "vel": 84,
      "dur": 25
    },
    {
      "t": 1727.5,
      "ch": 1,
      "note": 40,
      "vel": 95,
      "dur": 25
    },
    {
      "t": 1727.6,
      "ch": 5,
      "note": 37,
      "vel": 46,
      "dur": 864
    },
    {
      "t": 1727.6,
      "ch": 1,
      "note": 42,
      "vel": 81,
      "dur": 25
    },
    {
      "t": 1727.7,
      "ch": 1,
      "note": 36,
      "vel": 83,
      "dur": 25
    },
    {
      "t": 1727.7,
      "ch": 7,
      "note": 36,
      "vel": 60,
      "dur": 80
    },
    {
      "t": 1727.7,
      "ch": 6,
      "note": 54,
      "vel": 23,
      "dur": 576
    },
    {
      "t": 1727.8,
      "ch": 1,
      "note": 38,
      "vel": 63,
      "dur": 25
    },
    {
      "t": 1727.8,
      "ch": 6,
      "note": 48,
      "vel": 13,
      "dur": 400
    },
    {
      "t": 1727.8,
      "ch": 1,
      "note": 40,
      "vel": 70,
      "dur": 25
    },
    {
      "t": 1727.9,
      "ch": 5,
      "note": 49,
      "vel": 34,
      "dur": 864
    },
    {
      "t": 1727.9,
      "ch": 1,
      "note": 42,
      "vel": 83,
      "dur": 25
    },
    {
      "t": 1728,
      "ch": 0,
      "note": 36,
      "vel": 91,
      "dur": 55
    },
    {
      "t": 1728,
      "ch": 1,
      "note": 36,
      "vel": 93,
      "dur": 25
    },
    {
      "t": 1728,
      "ch": 7,
      "note": 48,
      "vel": 68,
      "dur": 80
    },
    {
      "t": 1728,
      "ch": 7,
      "note": 36,
      "vel": 74,
      "dur": 80
    },
    {
      "t": 1728.1,
      "ch": 1,
      "note": 38,
      "vel": 74,
      "dur": 25
    },
    {
      "t": 1728.1,
      "ch": 1,
      "note": 40,
      "vel": 69,
      "dur": 25
    },
    {
      "t": 1728.2,
      "ch": 7,
      "note": 45,
      "vel": 56,
      "dur": 80
    },
    {
      "t": 1728.2,
      "ch": 7,
      "note": 38,
      "vel": 62,
      "dur": 80
    },
    {
      "t": 1728.2,
      "ch": 1,
      "note": 42,
      "vel": 66,
      "dur": 25
    },
    {
      "t": 1728.3,
      "ch": 1,
      "note": 36,
      "vel": 91,
      "dur": 25
    },
    {
      "t": 1728.3,
      "ch": 5,
      "note": 54,
      "vel": 29,
      "dur": 864
    },
    {
      "t": 1728.4,
      "ch": 1,
      "note": 38,
      "vel": 92,
      "dur": 25
    },
    {
      "t": 1728.4,
      "ch": 1,
      "note": 40,
      "vel": 104,
      "dur": 25
    },
    {
      "t": 1728.5,
      "ch": 1,
      "note": 42,
      "vel": 61,
      "dur": 25
    },
    {
      "t": 1728.6,
      "ch": 0,
      "note": 36,
      "vel": 91,
      "dur": 55
    },
    {
      "t": 1728.6,
      "ch": 1,
      "note": 36,
      "vel": 97,
      "dur": 25
    },
    {
      "t": 1728.6,
      "ch": 7,
      "note": 48,
      "vel": 74,
      "dur": 80
    },
    {
      "t": 1728.6,
      "ch": 7,
      "note": 36,
      "vel": 59,
      "dur": 80
    },
    {
      "t": 1728.7,
      "ch": 1,
      "note": 38,
      "vel": 114,
      "dur": 25
    },
    {
      "t": 1728.7,
      "ch": 1,
      "note": 40,
      "vel": 76,
      "dur": 25
    },
    {
      "t": 1728.8,
      "ch": 1,
      "note": 42,
      "vel": 95,
      "dur": 25
    },
    {
      "t": 1728.9,
      "ch": 1,
      "note": 36,
      "vel": 98,
      "dur": 25
    },
    {
      "t": 1728.9,
      "ch": 7,
      "note": 45,
      "vel": 58,
      "dur": 80
    },
    {
      "t": 1728.9,
      "ch": 7,
      "note": 36,
      "vel": 49,
      "dur": 80
    },
    {
      "t": 1728.9,
      "ch": 7,
      "note": 38,
      "vel": 60,
      "dur": 80
    },
    {
      "t": 1729,
      "ch": 1,
      "note": 38,
      "vel": 77,
      "dur": 25
    },
    {
      "t": 1729,
      "ch": 1,
      "note": 40,
      "vel": 72,
      "dur": 25
    },
    {
      "t": 1729.1,
      "ch": 1,
      "note": 42,
      "vel": 77,
      "dur": 25
    },
    {
      "t": 1729.2,
      "ch": 0,
      "note": 36,
      "vel": 94,
      "dur": 55
    },
    {
      "t": 1729.2,
      "ch": 1,
      "note": 36,
      "vel": 68,
      "dur": 25
    },
    {
      "t": 1729.2,
      "ch": 7,
      "note": 48,
      "vel": 64,
      "dur": 80
    },
    {
      "t": 1729.2,
      "ch": 7,
      "note": 36,
      "vel": 61,
      "dur": 80
    },
    {
      "t": 1729.3,
      "ch": 1,
      "note": 38,
      "vel": 85,
      "dur": 25
    },
    {
      "t": 1729.3,
      "ch": 1,
      "note": 40,
      "vel": 81,
      "dur": 25
    },
    {
      "t": 1729.4,
      "ch": 5,
      "note": 59,
      "vel": 44,
      "dur": 863
    },
    {
      "t": 1729.4,
      "ch": 1,
      "note": 42,
      "vel": 64,
      "dur": 25
    },
    {
      "t": 1729.5,
      "ch": 1,
      "note": 36,
      "vel": 93,
      "dur": 25
    },
    {
      "t": 1729.6,
      "ch": 1,
      "note": 38,
      "vel": 66,
      "dur": 25
    },
    {
      "t": 1729.6,
      "ch": 1,
      "note": 40,
      "vel": 80,
      "dur": 25
    },
    {
      "t": 1729.7,
      "ch": 1,
      "note": 42,
      "vel": 70,
      "dur": 25
    },
    {
      "t": 1729.8,
      "ch": 0,
      "note": 36,
      "vel": 112,
      "dur": 55
    },
    {
      "t": 1729.8,
      "ch": 7,
      "note": 48,
      "vel": 77,
      "dur": 80
    },
    {
      "t": 1729.8,
      "ch": 7,
      "note": 45,
      "vel": 65,
      "dur": 80
    },
    {
      "t": 1729.8,
      "ch": 7,
      "note": 36,
      "vel": 59,
      "dur": 80
    },
    {
      "t": 1729.8,
      "ch": 7,
      "note": 38,
      "vel": 65,
      "dur": 80
    },
    {
      "t": 1730,
      "ch": 6,
      "note": 48,
      "vel": 21,
      "dur": 574
    },
    {
      "t": 1730.1,
      "ch": 7,
      "note": 36,
      "vel": 70,
      "dur": 80
    },
    {
      "t": 1730.3,
      "ch": 5,
      "note": 54,
      "vel": 18,
      "dur": 861
    },
    {
      "t": 1730.4,
      "ch": 0,
      "note": 36,
      "vel": 98,
      "dur": 55
    },
    {
      "t": 1730.4,
      "ch": 7,
      "note": 48,
      "vel": 57,
      "dur": 80
    },
    {
      "t": 1730.4,
      "ch": 7,
      "note": 36,
      "vel": 58,
      "dur": 80
    },
    {
      "t": 1730.6,
      "ch": 7,
      "note": 45,
      "vel": 55,
      "dur": 80
    },
    {
      "t": 1730.6,
      "ch": 7,
      "note": 38,
      "vel": 56,
      "dur": 80
    },
    {
      "t": 1730.6,
      "ch": 6,
      "note": 58,
      "vel": 24,
      "dur": 400
    },
    {
      "t": 1730.7,
      "ch": 6,
      "note": 58,
      "vel": 48,
      "dur": 573
    },
    {
      "t": 1730.9,
      "ch": 4,
      "note": 58,
      "vel": 73,
      "dur": 2350
    },
    {
      "t": 1730.9,
      "ch": 3,
      "note": 44,
      "vel": 61,
      "dur": 2400
    },
    {
      "t": 1731,
      "ch": 0,
      "note": 36,
      "vel": 98,
      "dur": 55
    },
    {
      "t": 1731,
      "ch": 7,
      "note": 48,
      "vel": 82,
      "dur": 80
    },
    {
      "t": 1731,
      "ch": 7,
      "note": 36,
      "vel": 69,
      "dur": 80
    },
    {
      "t": 1731.3,
      "ch": 7,
      "note": 45,
      "vel": 58,
      "dur": 80
    },
    {
      "t": 1731.3,
      "ch": 7,
      "note": 36,
      "vel": 64,
      "dur": 80
    },
    {
      "t": 1731.3,
      "ch": 7,
      "note": 38,
      "vel": 59,
      "dur": 80
    },
    {
      "t": 1731.6,
      "ch": 0,
      "note": 36,
      "vel": 86,
      "dur": 55
    },
    {
      "t": 1731.6,
      "ch": 7,
      "note": 48,
      "vel": 61,
      "dur": 80
    },
    {
      "t": 1731.6,
      "ch": 7,
      "note": 36,
      "vel": 66,
      "dur": 80
    },
    {
      "t": 1731.9,
      "ch": 5,
      "note": 59,
      "vel": 42,
      "dur": 855
    },
    {
      "t": 1732.1,
      "ch": 6,
      "note": 63,
      "vel": 18,
      "dur": 570
    },
    {
      "t": 1732.2,
      "ch": 0,
      "note": 36,
      "vel": 113,
      "dur": 55
    },
    {
      "t": 1732.2,
      "ch": 7,
      "note": 48,
      "vel": 70,
      "dur": 80
    },
    {
      "t": 1732.2,
      "ch": 7,
      "note": 45,
      "vel": 62,
      "dur": 80
    },
    {
      "t": 1732.2,
      "ch": 7,
      "note": 36,
      "vel": 74,
      "dur": 80
    },
    {
      "t": 1732.2,
      "ch": 7,
      "note": 38,
      "vel": 63,
      "dur": 80
    },
    {
      "t": 1732.4,
      "ch": 6,
      "note": 52,
      "vel": 29,
      "dur": 569
    },
    {
      "t": 1732.4,
      "ch": 5,
      "note": 37,
      "vel": 41,
      "dur": 854
    },
    {
      "t": 1732.5,
      "ch": 7,
      "note": 36,
      "vel": 62,
      "dur": 80
    },
    {
      "t": 1732.8,
      "ch": 0,
      "note": 36,
      "vel": 88,
      "dur": 55
    },
    {
      "t": 1732.8,
      "ch": 7,
      "note": 48,
      "vel": 65,
      "dur": 80
    },
    {
      "t": 1732.8,
      "ch": 7,
      "note": 36,
      "vel": 60,
      "dur": 80
    },
    {
      "t": 1733,
      "ch": 7,
      "note": 45,
      "vel": 66,
      "dur": 80
    },
    {
      "t": 1733,
      "ch": 7,
      "note": 38,
      "vel": 52,
      "dur": 80
    },
    {
      "t": 1733.3,
      "ch": 2,
      "note": 49,
      "vel": 59,
      "dur": 18000
    },
    {
      "t": 1733.3,
      "ch": 4,
      "note": 58,
      "vel": 73,
      "dur": 2350
    },
    {
      "t": 1733.3,
      "ch": 3,
      "note": 35,
      "vel": 62,
      "dur": 2400
    },
    {
      "t": 1733.4,
      "ch": 0,
      "note": 36,
      "vel": 93,
      "dur": 55
    },
    {
      "t": 1733.4,
      "ch": 7,
      "note": 48,
      "vel": 72,
      "dur": 80
    },
    {
      "t": 1733.4,
      "ch": 7,
      "note": 36,
      "vel": 65,
      "dur": 80
    },
    {
      "t": 1733.4,
      "ch": 6,
      "note": 58,
      "vel": 60,
      "dur": 567
    },
    {
      "t": 1733.6,
      "ch": 6,
      "note": 61,
      "vel": 20,
      "dur": 566
    },
    {
      "t": 1733.7,
      "ch": 7,
      "note": 45,
      "vel": 62,
      "dur": 80
    },
    {
      "t": 1733.7,
      "ch": 7,
      "note": 36,
      "vel": 67,
      "dur": 80
    },
    {
      "t": 1733.7,
      "ch": 7,
      "note": 38,
      "vel": 69,
      "dur": 80
    },
    {
      "t": 1733.9,
      "ch": 5,
      "note": 49,
      "vel": 50,
      "dur": 848
    },
    {
      "t": 1734,
      "ch": 0,
      "note": 36,
      "vel": 94,
      "dur": 55
    },
    {
      "t": 1734,
      "ch": 7,
      "note": 48,
      "vel": 61,
      "dur": 80
    },
    {
      "t": 1734,
      "ch": 7,
      "note": 36,
      "vel": 74,
      "dur": 80
    },
    {
      "t": 1734.3,
      "ch": 6,
      "note": 58,
      "vel": 38,
      "dur": 565
    },
    {
      "t": 1734.5,
      "ch": 6,
      "note": 61,
      "vel": 26,
      "dur": 564
    },
    {
      "t": 1734.6,
      "ch": 0,
      "note": 36,
      "vel": 114,
      "dur": 55
    },
    {
      "t": 1734.6,
      "ch": 7,
      "note": 48,
      "vel": 66,
      "dur": 80
    },
    {
      "t": 1734.6,
      "ch": 7,
      "note": 45,
      "vel": 80,
      "dur": 80
    },
    {
      "t": 1734.6,
      "ch": 7,
      "note": 36,
      "vel": 75,
      "dur": 80
    },
    {
      "t": 1734.6,
      "ch": 7,
      "note": 38,
      "vel": 76,
      "dur": 80
    },
    {
      "t": 1734.9,
      "ch": 7,
      "note": 36,
      "vel": 62,
      "dur": 80
    },
    {
      "t": 1734.9,
      "ch": 6,
      "note": 48,
      "vel": 27,
      "dur": 564
    },
    {
      "t": 1735.2,
      "ch": 0,
      "note": 36,
      "vel": 90,
      "dur": 55
    },
    {
      "t": 1735.2,
      "ch": 7,
      "note": 48,
      "vel": 64,
      "dur": 80
    },
    {
      "t": 1735.2,
      "ch": 7,
      "note": 36,
      "vel": 74,
      "dur": 80
    },
    {
      "t": 1735.2,
      "ch": 6,
      "note": 61,
      "vel": 21,
      "dur": 563
    },
    {
      "t": 1735.4,
      "ch": 7,
      "note": 45,
      "vel": 65,
      "dur": 80
    },
    {
      "t": 1735.4,
      "ch": 7,
      "note": 38,
      "vel": 45,
      "dur": 80
    },
    {
      "t": 1735.4,
      "ch": 5,
      "note": 54,
      "vel": 42,
      "dur": 845
    },
    {
      "t": 1735.7,
      "ch": 4,
      "note": 59,
      "vel": 63,
      "dur": 2350
    },
    {
      "t": 1735.7,
      "ch": 3,
      "note": 40,
      "vel": 63,
      "dur": 2400
    },
    {
      "t": 1735.8,
      "ch": 0,
      "note": 36,
      "vel": 97,
      "dur": 55
    },
    {
      "t": 1735.8,
      "ch": 7,
      "note": 48,
      "vel": 73,
      "dur": 80
    },
    {
      "t": 1735.8,
      "ch": 7,
      "note": 36,
      "vel": 66,
      "dur": 80
    },
    {
      "t": 1735.8,
      "ch": 5,
      "note": 59,
      "vel": 31,
      "dur": 844
    },
    {
      "t": 1736.1,
      "ch": 7,
      "note": 45,
      "vel": 53,
      "dur": 80
    },
    {
      "t": 1736.1,
      "ch": 7,
      "note": 36,
      "vel": 62,
      "dur": 80
    },
    {
      "t": 1736.1,
      "ch": 7,
      "note": 38,
      "vel": 55,
      "dur": 80
    },
    {
      "t": 1736.4,
      "ch": 0,
      "note": 36,
      "vel": 91,
      "dur": 55
    },
    {
      "t": 1736.4,
      "ch": 7,
      "note": 48,
      "vel": 78,
      "dur": 80
    },
    {
      "t": 1736.4,
      "ch": 7,
      "note": 36,
      "vel": 64,
      "dur": 80
    },
    {
      "t": 1737,
      "ch": 0,
      "note": 36,
      "vel": 114,
      "dur": 55
    },
    {
      "t": 1737,
      "ch": 7,
      "note": 48,
      "vel": 69,
      "dur": 80
    },
    {
      "t": 1737,
      "ch": 7,
      "note": 45,
      "vel": 63,
      "dur": 80
    },
    {
      "t": 1737,
      "ch": 7,
      "note": 36,
      "vel": 68,
      "dur": 80
    },
    {
      "t": 1737,
      "ch": 7,
      "note": 38,
      "vel": 64,
      "dur": 80
    },
    {
      "t": 1737.3,
      "ch": 7,
      "note": 36,
      "vel": 57,
      "dur": 80
    },
    {
      "t": 1737.3,
      "ch": 5,
      "note": 54,
      "vel": 27,
      "dur": 844
    },
    {
      "t": 1737.6,
      "ch": 0,
      "note": 36,
      "vel": 98,
      "dur": 55
    },
    {
      "t": 1737.6,
      "ch": 7,
      "note": 48,
      "vel": 62,
      "dur": 80
    },
    {
      "t": 1737.6,
      "ch": 7,
      "note": 36,
      "vel": 80,
      "dur": 80
    },
    {
      "t": 1737.8,
      "ch": 7,
      "note": 45,
      "vel": 61,
      "dur": 80
    },
    {
      "t": 1737.8,
      "ch": 7,
      "note": 38,
      "vel": 58,
      "dur": 80
    },
    {
      "t": 1737.8,
      "ch": 6,
      "note": 61,
      "vel": 18,
      "dur": 400
    },
    {
      "t": 1738.1,
      "ch": 4,
      "note": 59,
      "vel": 59,
      "dur": 2350
    },
    {
      "t": 1738.1,
      "ch": 3,
      "note": 42,
      "vel": 62,
      "dur": 2400
    },
    {
      "t": 1738.2,
      "ch": 0,
      "note": 36,
      "vel": 93,
      "dur": 55
    },
    {
      "t": 1738.2,
      "ch": 7,
      "note": 48,
      "vel": 66,
      "dur": 80
    },
    {
      "t": 1738.2,
      "ch": 7,
      "note": 36,
      "vel": 74,
      "dur": 80
    },
    {
      "t": 1738.4,
      "ch": 6,
      "note": 64,
      "vel": 14,
      "dur": 564
    },
    {
      "t": 1738.5,
      "ch": 7,
      "note": 45,
      "vel": 69,
      "dur": 80
    },
    {
      "t": 1738.5,
      "ch": 7,
      "note": 36,
      "vel": 56,
      "dur": 80
    },
    {
      "t": 1738.5,
      "ch": 7,
      "note": 38,
      "vel": 67,
      "dur": 80
    },
    {
      "t": 1738.8,
      "ch": 0,
      "note": 36,
      "vel": 90,
      "dur": 55
    },
    {
      "t": 1738.8,
      "ch": 7,
      "note": 48,
      "vel": 69,
      "dur": 80
    },
    {
      "t": 1738.8,
      "ch": 7,
      "note": 36,
      "vel": 67,
      "dur": 80
    },
    {
      "t": 1738.8,
      "ch": 6,
      "note": 52,
      "vel": 30,
      "dur": 565
    },
    {
      "t": 1738.8,
      "ch": 5,
      "note": 59,
      "vel": 25,
      "dur": 848
    },
    {
      "t": 1739.3,
      "ch": 5,
      "note": 63,
      "vel": 44,
      "dur": 849
    },
    {
      "t": 1739.4,
      "ch": 0,
      "note": 36,
      "vel": 111,
      "dur": 55
    },
    {
      "t": 1739.4,
      "ch": 7,
      "note": 48,
      "vel": 72,
      "dur": 80
    },
    {
      "t": 1739.4,
      "ch": 7,
      "note": 45,
      "vel": 76,
      "dur": 80
    },
    {
      "t": 1739.4,
      "ch": 7,
      "note": 36,
      "vel": 61,
      "dur": 80
    },
    {
      "t": 1739.4,
      "ch": 7,
      "note": 38,
      "vel": 73,
      "dur": 80
    },
    {
      "t": 1739.4,
      "ch": 5,
      "note": 56,
      "vel": 48,
      "dur": 850
    },
    {
      "t": 1739.6,
      "ch": 6,
      "note": 70,
      "vel": 25,
      "dur": 400
    },
    {
      "t": 1739.7,
      "ch": 7,
      "note": 36,
      "vel": 65,
      "dur": 80
    },
    {
      "t": 1740,
      "ch": 0,
      "note": 36,
      "vel": 90,
      "dur": 55
    },
    {
      "t": 1740,
      "ch": 7,
      "note": 48,
      "vel": 60,
      "dur": 80
    },
    {
      "t": 1740,
      "ch": 7,
      "note": 36,
      "vel": 80,
      "dur": 80
    },
    {
      "t": 1740.2,
      "ch": 7,
      "note": 45,
      "vel": 55,
      "dur": 80
    },
    {
      "t": 1740.2,
      "ch": 7,
      "note": 38,
      "vel": 63,
      "dur": 80
    },
    {
      "t": 1740.3,
      "ch": 6,
      "note": 66,
      "vel": 18,
      "dur": 570
    },
    {
      "t": 1740.5,
      "ch": 4,
      "note": 59,
      "vel": 57,
      "dur": 2350
    },
    {
      "t": 1740.5,
      "ch": 3,
      "note": 40,
      "vel": 60,
      "dur": 2400
    },
    {
      "t": 1740.6,
      "ch": 0,
      "note": 36,
      "vel": 96,
      "dur": 55
    },
    {
      "t": 1740.6,
      "ch": 7,
      "note": 48,
      "vel": 79,
      "dur": 80
    },
    {
      "t": 1740.6,
      "ch": 7,
      "note": 36,
      "vel": 75,
      "dur": 80
    },
    {
      "t": 1740.8,
      "ch": 5,
      "note": 73,
      "vel": 38,
      "dur": 858
    },
    {
      "t": 1740.9,
      "ch": 7,
      "note": 45,
      "vel": 62,
      "dur": 80
    },
    {
      "t": 1740.9,
      "ch": 7,
      "note": 36,
      "vel": 58,
      "dur": 80
    },
    {
      "t": 1740.9,
      "ch": 7,
      "note": 38,
      "vel": 61,
      "dur": 80
    },
    {
      "t": 1741.1,
      "ch": 5,
      "note": 66,
      "vel": 37,
      "dur": 860
    },
    {
      "t": 1741.2,
      "ch": 0,
      "note": 36,
      "vel": 86,
      "dur": 55
    },
    {
      "t": 1741.2,
      "ch": 7,
      "note": 48,
      "vel": 80,
      "dur": 80
    },
    {
      "t": 1741.2,
      "ch": 7,
      "note": 36,
      "vel": 60,
      "dur": 80
    },
    {
      "t": 1741.5,
      "ch": 6,
      "note": 70,
      "vel": 21,
      "dur": 576
    },
    {
      "t": 1741.8,
      "ch": 7,
      "note": 48,
      "vel": 62,
      "dur": 80
    },
    {
      "t": 1741.8,
      "ch": 7,
      "note": 45,
      "vel": 78,
      "dur": 80
    },
    {
      "t": 1741.8,
      "ch": 7,
      "note": 36,
      "vel": 71,
      "dur": 80
    },
    {
      "t": 1741.8,
      "ch": 7,
      "note": 38,
      "vel": 67,
      "dur": 80
    },
    {
      "t": 1741.8,
      "ch": 6,
      "note": 70,
      "vel": 38,
      "dur": 577
    },
    {
      "t": 1742.1,
      "ch": 7,
      "note": 36,
      "vel": 62,
      "dur": 80
    },
    {
      "t": 1742.1,
      "ch": 5,
      "note": 58,
      "vel": 39,
      "dur": 868
    },
    {
      "t": 1742.3,
      "ch": 6,
      "note": 59,
      "vel": 39,
      "dur": 580
    },
    {
      "t": 1742.4,
      "ch": 7,
      "note": 48,
      "vel": 55,
      "dur": 80
    },
    {
      "t": 1742.4,
      "ch": 7,
      "note": 36,
      "vel": 68,
      "dur": 80
    },
    {
      "t": 1742.6,
      "ch": 7,
      "note": 45,
      "vel": 63,
      "dur": 80
    },
    {
      "t": 1742.6,
      "ch": 7,
      "note": 38,
      "vel": 55,
      "dur": 80
    },
    {
      "t": 1742.9,
      "ch": 5,
      "note": 37,
      "vel": 30,
      "dur": 874
    },
    {
      "t": 1742.9,
      "ch": 2,
      "note": 49,
      "vel": 58,
      "dur": 18000
    },
    {
      "t": 1742.9,
      "ch": 2,
      "note": 61,
      "vel": 41,
      "dur": 18000
    },
    {
      "t": 1742.9,
      "ch": 4,
      "note": 58,
      "vel": 71,
      "dur": 2350
    },
    {
      "t": 1742.9,
      "ch": 3,
      "note": 35,
      "vel": 56,
      "dur": 2400
    },
    {
      "t": 1743,
      "ch": 7,
      "note": 48,
      "vel": 65,
      "dur": 80
    },
    {
      "t": 1743,
      "ch": 7,
      "note": 36,
      "vel": 69,
      "dur": 80
    },
    {
      "t": 1743.3,
      "ch": 7,
      "note": 45,
      "vel": 63,
      "dur": 80
    },
    {
      "t": 1743.3,
      "ch": 7,
      "note": 36,
      "vel": 69,
      "dur": 80
    },
    {
      "t": 1743.3,
      "ch": 7,
      "note": 38,
      "vel": 72,
      "dur": 80
    },
    {
      "t": 1743.6,
      "ch": 7,
      "note": 48,
      "vel": 74,
      "dur": 80
    },
    {
      "t": 1743.6,
      "ch": 7,
      "note": 36,
      "vel": 73,
      "dur": 80
    },
    {
      "t": 1743.9,
      "ch": 6,
      "note": 49,
      "vel": 32,
      "dur": 589
    },
    {
      "t": 1744.2,
      "ch": 0,
      "note": 36,
      "vel": 119,
      "dur": 55
    },
    {
      "t": 1744.2,
      "ch": 1,
      "note": 36,
      "vel": 94,
      "dur": 25
    },
    {
      "t": 1744.2,
      "ch": 1,
      "note": 38,
      "vel": 86,
      "dur": 25
    },
    {
      "t": 1744.2,
      "ch": 1,
      "note": 40,
      "vel": 64,
      "dur": 25
    },
    {
      "t": 1744.2,
      "ch": 1,
      "note": 42,
      "vel": 105,
      "dur": 25
    },
    {
      "t": 1744.2,
      "ch": 1,
      "note": 36,
      "vel": 97,
      "dur": 25
    },
    {
      "t": 1744.2,
      "ch": 1,
      "note": 38,
      "vel": 81,
      "dur": 25
    },
    {
      "t": 1744.2,
      "ch": 1,
      "note": 40,
      "vel": 84,
      "dur": 25
    },
    {
      "t": 1744.2,
      "ch": 1,
      "note": 42,
      "vel": 97,
      "dur": 25
    },
    {
      "t": 1744.2,
      "ch": 1,
      "note": 36,
      "vel": 87,
      "dur": 25
    },
    {
      "t": 1744.2,
      "ch": 1,
      "note": 38,
      "vel": 103,
      "dur": 25
    },
    {
      "t": 1744.2,
      "ch": 1,
      "note": 40,
      "vel": 87,
      "dur": 25
    },
    {
      "t": 1744.2,
      "ch": 1,
      "note": 42,
      "vel": 96,
      "dur": 25
    },
    {
      "t": 1744.2,
      "ch": 1,
      "note": 36,
      "vel": 91,
      "dur": 25
    },
    {
      "t": 1744.2,
      "ch": 1,
      "note": 38,
      "vel": 110,
      "dur": 25
    },
    {
      "t": 1744.2,
      "ch": 1,
      "note": 40,
      "vel": 81,
      "dur": 25
    },
    {
      "t": 1744.2,
      "ch": 1,
      "note": 42,
      "vel": 64,
      "dur": 25
    },
    {
      "t": 1744.2,
      "ch": 1,
      "note": 36,
      "vel": 90,
      "dur": 25
    },
    {
      "t": 1744.2,
      "ch": 1,
      "note": 38,
      "vel": 63,
      "dur": 25
    },
    {
      "t": 1744.2,
      "ch": 1,
      "note": 40,
      "vel": 56,
      "dur": 25
    },
    {
      "t": 1744.2,
      "ch": 1,
      "note": 42,
      "vel": 78,
      "dur": 25
    },
    {
      "t": 1744.2,
      "ch": 1,
      "note": 36,
      "vel": 77,
      "dur": 25
    },
    {
      "t": 1744.2,
      "ch": 1,
      "note": 38,
      "vel": 112,
      "dur": 25
    },
    {
      "t": 1744.2,
      "ch": 1,
      "note": 40,
      "vel": 82,
      "dur": 25
    },
    {
      "t": 1744.2,
      "ch": 1,
      "note": 42,
      "vel": 72,
      "dur": 25
    },
    {
      "t": 1744.2,
      "ch": 1,
      "note": 36,
      "vel": 83,
      "dur": 25
    },
    {
      "t": 1744.2,
      "ch": 1,
      "note": 38,
      "vel": 93,
      "dur": 25
    },
    {
      "t": 1744.2,
      "ch": 1,
      "note": 40,
      "vel": 65,
      "dur": 25
    },
    {
      "t": 1744.2,
      "ch": 1,
      "note": 42,
      "vel": 72,
      "dur": 25
    },
    {
      "t": 1744.2,
      "ch": 1,
      "note": 36,
      "vel": 90,
      "dur": 25
    },
    {
      "t": 1744.2,
      "ch": 1,
      "note": 38,
      "vel": 77,
      "dur": 25
    },
    {
      "t": 1744.2,
      "ch": 1,
      "note": 40,
      "vel": 81,
      "dur": 25
    },
    {
      "t": 1744.2,
      "ch": 1,
      "note": 42,
      "vel": 81,
      "dur": 25
    },
    {
      "t": 1744.2,
      "ch": 1,
      "note": 36,
      "vel": 73,
      "dur": 25
    },
    {
      "t": 1744.2,
      "ch": 1,
      "note": 38,
      "vel": 80,
      "dur": 25
    },
    {
      "t": 1744.2,
      "ch": 1,
      "note": 40,
      "vel": 92,
      "dur": 25
    },
    {
      "t": 1744.2,
      "ch": 1,
      "note": 42,
      "vel": 91,
      "dur": 25
    },
    {
      "t": 1744.2,
      "ch": 1,
      "note": 36,
      "vel": 77,
      "dur": 25
    },
    {
      "t": 1744.2,
      "ch": 1,
      "note": 38,
      "vel": 64,
      "dur": 25
    },
    {
      "t": 1744.2,
      "ch": 1,
      "note": 40,
      "vel": 60,
      "dur": 25
    },
    {
      "t": 1744.2,
      "ch": 1,
      "note": 42,
      "vel": 90,
      "dur": 25
    },
    {
      "t": 1744.2,
      "ch": 1,
      "note": 36,
      "vel": 90,
      "dur": 25
    },
    {
      "t": 1744.2,
      "ch": 1,
      "note": 38,
      "vel": 77,
      "dur": 25
    },
    {
      "t": 1744.2,
      "ch": 1,
      "note": 40,
      "vel": 78,
      "dur": 25
    },
    {
      "t": 1744.2,
      "ch": 1,
      "note": 42,
      "vel": 87,
      "dur": 25
    },
    {
      "t": 1744.2,
      "ch": 1,
      "note": 36,
      "vel": 82,
      "dur": 25
    },
    {
      "t": 1744.2,
      "ch": 1,
      "note": 38,
      "vel": 78,
      "dur": 25
    },
    {
      "t": 1744.2,
      "ch": 1,
      "note": 40,
      "vel": 108,
      "dur": 25
    },
    {
      "t": 1744.2,
      "ch": 1,
      "note": 42,
      "vel": 91,
      "dur": 25
    },
    {
      "t": 1744.2,
      "ch": 1,
      "note": 36,
      "vel": 88,
      "dur": 25
    },
    {
      "t": 1744.2,
      "ch": 1,
      "note": 38,
      "vel": 76,
      "dur": 25
    },
    {
      "t": 1744.2,
      "ch": 1,
      "note": 40,
      "vel": 84,
      "dur": 25
    },
    {
      "t": 1744.2,
      "ch": 1,
      "note": 42,
      "vel": 77,
      "dur": 25
    },
    {
      "t": 1744.2,
      "ch": 1,
      "note": 36,
      "vel": 99,
      "dur": 25
    },
    {
      "t": 1744.2,
      "ch": 1,
      "note": 38,
      "vel": 84,
      "dur": 25
    },
    {
      "t": 1744.2,
      "ch": 1,
      "note": 40,
      "vel": 59,
      "dur": 25
    },
    {
      "t": 1744.2,
      "ch": 1,
      "note": 42,
      "vel": 76,
      "dur": 25
    },
    {
      "t": 1744.2,
      "ch": 1,
      "note": 36,
      "vel": 78,
      "dur": 25
    },
    {
      "t": 1744.2,
      "ch": 1,
      "note": 38,
      "vel": 50,
      "dur": 25
    },
    {
      "t": 1744.2,
      "ch": 1,
      "note": 40,
      "vel": 112,
      "dur": 25
    },
    {
      "t": 1744.2,
      "ch": 1,
      "note": 42,
      "vel": 86,
      "dur": 25
    },
    {
      "t": 1744.2,
      "ch": 1,
      "note": 36,
      "vel": 86,
      "dur": 25
    },
    {
      "t": 1744.2,
      "ch": 1,
      "note": 38,
      "vel": 72,
      "dur": 25
    },
    {
      "t": 1744.2,
      "ch": 1,
      "note": 40,
      "vel": 85,
      "dur": 25
    },
    {
      "t": 1744.2,
      "ch": 1,
      "note": 42,
      "vel": 75,
      "dur": 25
    },
    {
      "t": 1744.2,
      "ch": 1,
      "note": 36,
      "vel": 88,
      "dur": 25
    },
    {
      "t": 1744.2,
      "ch": 1,
      "note": 38,
      "vel": 79,
      "dur": 25
    },
    {
      "t": 1744.2,
      "ch": 1,
      "note": 40,
      "vel": 87,
      "dur": 25
    },
    {
      "t": 1744.2,
      "ch": 1,
      "note": 42,
      "vel": 103,
      "dur": 25
    },
    {
      "t": 1744.2,
      "ch": 1,
      "note": 36,
      "vel": 100,
      "dur": 25
    },
    {
      "t": 1744.2,
      "ch": 1,
      "note": 38,
      "vel": 90,
      "dur": 25
    },
    {
      "t": 1744.2,
      "ch": 1,
      "note": 40,
      "vel": 102,
      "dur": 25
    },
    {
      "t": 1744.2,
      "ch": 1,
      "note": 42,
      "vel": 70,
      "dur": 25
    },
    {
      "t": 1744.2,
      "ch": 1,
      "note": 36,
      "vel": 81,
      "dur": 25
    },
    {
      "t": 1744.2,
      "ch": 1,
      "note": 38,
      "vel": 58,
      "dur": 25
    },
    {
      "t": 1744.2,
      "ch": 1,
      "note": 40,
      "vel": 85,
      "dur": 25
    },
    {
      "t": 1744.2,
      "ch": 1,
      "note": 42,
      "vel": 94,
      "dur": 25
    },
    {
      "t": 1744.2,
      "ch": 1,
      "note": 36,
      "vel": 100,
      "dur": 25
    },
    {
      "t": 1744.2,
      "ch": 1,
      "note": 38,
      "vel": 92,
      "dur": 25
    },
    {
      "t": 1744.2,
      "ch": 1,
      "note": 40,
      "vel": 100,
      "dur": 25
    },
    {
      "t": 1744.2,
      "ch": 1,
      "note": 42,
      "vel": 76,
      "dur": 25
    },
    {
      "t": 1744.2,
      "ch": 1,
      "note": 36,
      "vel": 100,
      "dur": 25
    },
    {
      "t": 1744.2,
      "ch": 1,
      "note": 38,
      "vel": 81,
      "dur": 25
    },
    {
      "t": 1744.2,
      "ch": 1,
      "note": 40,
      "vel": 79,
      "dur": 25
    },
    {
      "t": 1744.2,
      "ch": 1,
      "note": 42,
      "vel": 62,
      "dur": 25
    },
    {
      "t": 1744.2,
      "ch": 1,
      "note": 36,
      "vel": 101,
      "dur": 25
    },
    {
      "t": 1744.2,
      "ch": 1,
      "note": 38,
      "vel": 90,
      "dur": 25
    },
    {
      "t": 1744.2,
      "ch": 1,
      "note": 40,
      "vel": 75,
      "dur": 25
    },
    {
      "t": 1744.2,
      "ch": 1,
      "note": 42,
      "vel": 76,
      "dur": 25
    },
    {
      "t": 1744.2,
      "ch": 1,
      "note": 36,
      "vel": 100,
      "dur": 25
    },
    {
      "t": 1744.2,
      "ch": 1,
      "note": 38,
      "vel": 86,
      "dur": 25
    },
    {
      "t": 1744.2,
      "ch": 1,
      "note": 40,
      "vel": 94,
      "dur": 25
    },
    {
      "t": 1744.2,
      "ch": 1,
      "note": 42,
      "vel": 112,
      "dur": 25
    },
    {
      "t": 1744.2,
      "ch": 1,
      "note": 36,
      "vel": 90,
      "dur": 25
    },
    {
      "t": 1744.2,
      "ch": 1,
      "note": 38,
      "vel": 85,
      "dur": 25
    },
    {
      "t": 1744.2,
      "ch": 1,
      "note": 40,
      "vel": 92,
      "dur": 25
    },
    {
      "t": 1744.2,
      "ch": 1,
      "note": 42,
      "vel": 104,
      "dur": 25
    },
    {
      "t": 1744.2,
      "ch": 1,
      "note": 36,
      "vel": 82,
      "dur": 25
    },
    {
      "t": 1744.2,
      "ch": 1,
      "note": 38,
      "vel": 95,
      "dur": 25
    },
    {
      "t": 1744.2,
      "ch": 1,
      "note": 40,
      "vel": 81,
      "dur": 25
    },
    {
      "t": 1744.2,
      "ch": 1,
      "note": 42,
      "vel": 99,
      "dur": 25
    },
    {
      "t": 1744.2,
      "ch": 1,
      "note": 36,
      "vel": 60,
      "dur": 25
    },
    {
      "t": 1744.2,
      "ch": 1,
      "note": 38,
      "vel": 108,
      "dur": 25
    },
    {
      "t": 1744.2,
      "ch": 1,
      "note": 40,
      "vel": 67,
      "dur": 25
    },
    {
      "t": 1744.2,
      "ch": 1,
      "note": 42,
      "vel": 87,
      "dur": 25
    },
    {
      "t": 1744.2,
      "ch": 1,
      "note": 36,
      "vel": 90,
      "dur": 25
    },
    {
      "t": 1744.2,
      "ch": 1,
      "note": 38,
      "vel": 72,
      "dur": 25
    },
    {
      "t": 1744.2,
      "ch": 1,
      "note": 40,
      "vel": 107,
      "dur": 25
    },
    {
      "t": 1744.2,
      "ch": 1,
      "note": 42,
      "vel": 87,
      "dur": 25
    },
    {
      "t": 1744.2,
      "ch": 1,
      "note": 36,
      "vel": 85,
      "dur": 25
    },
    {
      "t": 1744.2,
      "ch": 1,
      "note": 38,
      "vel": 87,
      "dur": 25
    },
    {
      "t": 1744.2,
      "ch": 1,
      "note": 40,
      "vel": 78,
      "dur": 25
    },
    {
      "t": 1744.2,
      "ch": 1,
      "note": 42,
      "vel": 111,
      "dur": 25
    },
    {
      "t": 1744.2,
      "ch": 1,
      "note": 36,
      "vel": 82,
      "dur": 25
    },
    {
      "t": 1744.2,
      "ch": 1,
      "note": 38,
      "vel": 95,
      "dur": 25
    },
    {
      "t": 1744.2,
      "ch": 1,
      "note": 40,
      "vel": 68,
      "dur": 25
    },
    {
      "t": 1744.2,
      "ch": 1,
      "note": 42,
      "vel": 82,
      "dur": 25
    },
    {
      "t": 1744.2,
      "ch": 1,
      "note": 36,
      "vel": 64,
      "dur": 25
    },
    {
      "t": 1744.2,
      "ch": 1,
      "note": 38,
      "vel": 73,
      "dur": 25
    },
    {
      "t": 1744.2,
      "ch": 1,
      "note": 40,
      "vel": 69,
      "dur": 25
    },
    {
      "t": 1744.2,
      "ch": 1,
      "note": 42,
      "vel": 78,
      "dur": 25
    },
    {
      "t": 1744.2,
      "ch": 1,
      "note": 36,
      "vel": 114,
      "dur": 25
    },
    {
      "t": 1744.2,
      "ch": 1,
      "note": 38,
      "vel": 79,
      "dur": 25
    },
    {
      "t": 1744.2,
      "ch": 1,
      "note": 40,
      "vel": 96,
      "dur": 25
    },
    {
      "t": 1744.2,
      "ch": 1,
      "note": 42,
      "vel": 88,
      "dur": 25
    },
    {
      "t": 1744.2,
      "ch": 1,
      "note": 36,
      "vel": 84,
      "dur": 25
    },
    {
      "t": 1744.2,
      "ch": 1,
      "note": 38,
      "vel": 103,
      "dur": 25
    },
    {
      "t": 1744.2,
      "ch": 1,
      "note": 40,
      "vel": 76,
      "dur": 25
    },
    {
      "t": 1744.2,
      "ch": 1,
      "note": 42,
      "vel": 86,
      "dur": 25
    },
    {
      "t": 1744.2,
      "ch": 1,
      "note": 36,
      "vel": 93,
      "dur": 25
    },
    {
      "t": 1744.2,
      "ch": 1,
      "note": 38,
      "vel": 86,
      "dur": 25
    },
    {
      "t": 1744.2,
      "ch": 1,
      "note": 40,
      "vel": 99,
      "dur": 25
    },
    {
      "t": 1744.2,
      "ch": 1,
      "note": 42,
      "vel": 100,
      "dur": 25
    },
    {
      "t": 1744.2,
      "ch": 1,
      "note": 36,
      "vel": 98,
      "dur": 25
    },
    {
      "t": 1744.2,
      "ch": 1,
      "note": 38,
      "vel": 77,
      "dur": 25
    },
    {
      "t": 1744.2,
      "ch": 1,
      "note": 40,
      "vel": 97,
      "dur": 25
    },
    {
      "t": 1744.2,
      "ch": 1,
      "note": 42,
      "vel": 59,
      "dur": 25
    },
    {
      "t": 1744.2,
      "ch": 1,
      "note": 36,
      "vel": 95,
      "dur": 25
    },
    {
      "t": 1744.2,
      "ch": 1,
      "note": 38,
      "vel": 74,
      "dur": 25
    },
    {
      "t": 1744.2,
      "ch": 1,
      "note": 40,
      "vel": 71,
      "dur": 25
    },
    {
      "t": 1744.2,
      "ch": 1,
      "note": 42,
      "vel": 83,
      "dur": 25
    },
    {
      "t": 1744.2,
      "ch": 1,
      "note": 36,
      "vel": 114,
      "dur": 25
    },
    {
      "t": 1744.2,
      "ch": 1,
      "note": 38,
      "vel": 79,
      "dur": 25
    },
    {
      "t": 1744.2,
      "ch": 1,
      "note": 40,
      "vel": 86,
      "dur": 25
    },
    {
      "t": 1744.2,
      "ch": 1,
      "note": 42,
      "vel": 96,
      "dur": 25
    },
    {
      "t": 1744.2,
      "ch": 1,
      "note": 36,
      "vel": 72,
      "dur": 25
    },
    {
      "t": 1744.2,
      "ch": 1,
      "note": 38,
      "vel": 93,
      "dur": 25
    },
    {
      "t": 1744.2,
      "ch": 1,
      "note": 40,
      "vel": 69,
      "dur": 25
    },
    {
      "t": 1744.2,
      "ch": 1,
      "note": 42,
      "vel": 78,
      "dur": 25
    },
    {
      "t": 1744.2,
      "ch": 1,
      "note": 36,
      "vel": 88,
      "dur": 25
    },
    {
      "t": 1744.2,
      "ch": 1,
      "note": 38,
      "vel": 91,
      "dur": 25
    },
    {
      "t": 1744.2,
      "ch": 1,
      "note": 40,
      "vel": 101,
      "dur": 25
    },
    {
      "t": 1744.2,
      "ch": 1,
      "note": 42,
      "vel": 62,
      "dur": 25
    },
    {
      "t": 1744.2,
      "ch": 1,
      "note": 36,
      "vel": 69,
      "dur": 25
    },
    {
      "t": 1744.2,
      "ch": 1,
      "note": 38,
      "vel": 94,
      "dur": 25
    },
    {
      "t": 1744.2,
      "ch": 1,
      "note": 40,
      "vel": 101,
      "dur": 25
    },
    {
      "t": 1744.2,
      "ch": 1,
      "note": 42,
      "vel": 88,
      "dur": 25
    },
    {
      "t": 1744.2,
      "ch": 1,
      "note": 36,
      "vel": 82,
      "dur": 25
    },
    {
      "t": 1744.2,
      "ch": 1,
      "note": 38,
      "vel": 110,
      "dur": 25
    },
    {
      "t": 1744.2,
      "ch": 1,
      "note": 40,
      "vel": 90,
      "dur": 25
    },
    {
      "t": 1744.2,
      "ch": 1,
      "note": 42,
      "vel": 92,
      "dur": 25
    },
    {
      "t": 1744.2,
      "ch": 1,
      "note": 36,
      "vel": 75,
      "dur": 25
    },
    {
      "t": 1744.2,
      "ch": 1,
      "note": 38,
      "vel": 78,
      "dur": 25
    },
    {
      "t": 1744.2,
      "ch": 1,
      "note": 40,
      "vel": 77,
      "dur": 25
    },
    {
      "t": 1744.2,
      "ch": 1,
      "note": 42,
      "vel": 85,
      "dur": 25
    },
    {
      "t": 1744.2,
      "ch": 1,
      "note": 36,
      "vel": 113,
      "dur": 25
    },
    {
      "t": 1744.2,
      "ch": 1,
      "note": 38,
      "vel": 90,
      "dur": 25
    },
    {
      "t": 1744.2,
      "ch": 1,
      "note": 40,
      "vel": 75,
      "dur": 25
    },
    {
      "t": 1744.2,
      "ch": 1,
      "note": 42,
      "vel": 87,
      "dur": 25
    },
    {
      "t": 1744.2,
      "ch": 1,
      "note": 36,
      "vel": 90,
      "dur": 25
    },
    {
      "t": 1744.2,
      "ch": 1,
      "note": 38,
      "vel": 55,
      "dur": 25
    },
    {
      "t": 1744.2,
      "ch": 1,
      "note": 40,
      "vel": 59,
      "dur": 25
    },
    {
      "t": 1744.2,
      "ch": 1,
      "note": 42,
      "vel": 82,
      "dur": 25
    },
    {
      "t": 1744.2,
      "ch": 1,
      "note": 36,
      "vel": 82,
      "dur": 25
    },
    {
      "t": 1744.2,
      "ch": 1,
      "note": 38,
      "vel": 79,
      "dur": 25
    },
    {
      "t": 1744.2,
      "ch": 1,
      "note": 40,
      "vel": 75,
      "dur": 25
    },
    {
      "t": 1744.2,
      "ch": 1,
      "note": 42,
      "vel": 77,
      "dur": 25
    },
    {
      "t": 1744.2,
      "ch": 1,
      "note": 36,
      "vel": 82,
      "dur": 25
    },
    {
      "t": 1744.2,
      "ch": 1,
      "note": 38,
      "vel": 82,
      "dur": 25
    },
    {
      "t": 1744.2,
      "ch": 1,
      "note": 40,
      "vel": 67,
      "dur": 25
    },
    {
      "t": 1744.2,
      "ch": 1,
      "note": 42,
      "vel": 57,
      "dur": 25
    },
    {
      "t": 1744.2,
      "ch": 1,
      "note": 36,
      "vel": 82,
      "dur": 25
    },
    {
      "t": 1744.2,
      "ch": 1,
      "note": 38,
      "vel": 107,
      "dur": 25
    },
    {
      "t": 1744.2,
      "ch": 1,
      "note": 40,
      "vel": 79,
      "dur": 25
    },
    {
      "t": 1744.2,
      "ch": 1,
      "note": 42,
      "vel": 92,
      "dur": 25
    },
    {
      "t": 1744.2,
      "ch": 1,
      "note": 36,
      "vel": 78,
      "dur": 25
    },
    {
      "t": 1744.2,
      "ch": 1,
      "note": 38,
      "vel": 83,
      "dur": 25
    },
    {
      "t": 1744.2,
      "ch": 1,
      "note": 40,
      "vel": 87,
      "dur": 25
    },
    {
      "t": 1744.2,
      "ch": 1,
      "note": 42,
      "vel": 79,
      "dur": 25
    },
    {
      "t": 1744.2,
      "ch": 1,
      "note": 36,
      "vel": 84,
      "dur": 25
    },
    {
      "t": 1744.2,
      "ch": 1,
      "note": 38,
      "vel": 94,
      "dur": 25
    },
    {
      "t": 1744.2,
      "ch": 1,
      "note": 40,
      "vel": 69,
      "dur": 25
    },
    {
      "t": 1744.2,
      "ch": 1,
      "note": 42,
      "vel": 63,
      "dur": 25
    },
    {
      "t": 1744.2,
      "ch": 1,
      "note": 36,
      "vel": 87,
      "dur": 25
    },
    {
      "t": 1744.2,
      "ch": 7,
      "note": 48,
      "vel": 75,
      "dur": 80
    },
    {
      "t": 1744.2,
      "ch": 7,
      "note": 45,
      "vel": 74,
      "dur": 80
    },
    {
      "t": 1744.2,
      "ch": 7,
      "note": 36,
      "vel": 64,
      "dur": 80
    },
    {
      "t": 1744.2,
      "ch": 7,
      "note": 38,
      "vel": 77,
      "dur": 80
    },
    {
      "t": 1744.3,
      "ch": 1,
      "note": 38,
      "vel": 104,
      "dur": 25
    },
    {
      "t": 1744.3,
      "ch": 1,
      "note": 40,
      "vel": 89,
      "dur": 25
    },
    {
      "t": 1744.4,
      "ch": 1,
      "note": 42,
      "vel": 52,
      "dur": 25
    },
    {
      "t": 1744.5,
      "ch": 1,
      "note": 36,
      "vel": 73,
      "dur": 25
    },
    {
      "t": 1744.5,
      "ch": 7,
      "note": 36,
      "vel": 60,
      "dur": 80
    },
    {
      "t": 1744.6,
      "ch": 1,
      "note": 38,
      "vel": 68,
      "dur": 25
    },
    {
      "t": 1744.6,
      "ch": 1,
      "note": 40,
      "vel": 75,
      "dur": 25
    },
    {
      "t": 1744.7,
      "ch": 1,
      "note": 42,
      "vel": 69,
      "dur": 25
    },
    {
      "t": 1744.8,
      "ch": 0,
      "note": 36,
      "vel": 90,
      "dur": 55
    },
    {
      "t": 1744.8,
      "ch": 1,
      "note": 36,
      "vel": 76,
      "dur": 25
    },
    {
      "t": 1744.8,
      "ch": 7,
      "note": 48,
      "vel": 74,
      "dur": 80
    },
    {
      "t": 1744.8,
      "ch": 7,
      "note": 36,
      "vel": 64,
      "dur": 80
    },
    {
      "t": 1744.9,
      "ch": 1,
      "note": 38,
      "vel": 73,
      "dur": 25
    },
    {
      "t": 1745,
      "ch": 1,
      "note": 40,
      "vel": 63,
      "dur": 25
    },
    {
      "t": 1745,
      "ch": 7,
      "note": 45,
      "vel": 58,
      "dur": 80
    },
    {
      "t": 1745,
      "ch": 7,
      "note": 38,
      "vel": 70,
      "dur": 80
    },
    {
      "t": 1745,
      "ch": 1,
      "note": 42,
      "vel": 71,
      "dur": 25
    },
    {
      "t": 1745.1,
      "ch": 1,
      "note": 36,
      "vel": 92,
      "dur": 25
    },
    {
      "t": 1745.1,
      "ch": 6,
      "note": 59,
      "vel": 17,
      "dur": 596
    },
    {
      "t": 1745.2,
      "ch": 1,
      "note": 38,
      "vel": 65,
      "dur": 25
    },
    {
      "t": 1745.2,
      "ch": 1,
      "note": 40,
      "vel": 71,
      "dur": 25
    },
    {
      "t": 1745.3,
      "ch": 1,
      "note": 42,
      "vel": 74,
      "dur": 25
    },
    {
      "t": 1745.4,
      "ch": 0,
      "note": 36,
      "vel": 89,
      "dur": 55
    },
    {
      "t": 1745.4,
      "ch": 1,
      "note": 36,
      "vel": 76,
      "dur": 25
    },
    {
      "t": 1745.4,
      "ch": 7,
      "note": 48,
      "vel": 75,
      "dur": 80
    },
    {
      "t": 1745.4,
      "ch": 7,
      "note": 36,
      "vel": 61,
      "dur": 80
    },
    {
      "t": 1745.5,
      "ch": 1,
      "note": 38,
      "vel": 97,
      "dur": 25
    },
    {
      "t": 1745.6,
      "ch": 1,
      "note": 40,
      "vel": 72,
      "dur": 25
    },
    {
      "t": 1745.6,
      "ch": 1,
      "note": 42,
      "vel": 54,
      "dur": 25
    },
    {
      "t": 1745.7,
      "ch": 1,
      "note": 36,
      "vel": 73,
      "dur": 25
    },
    {
      "t": 1745.7,
      "ch": 7,
      "note": 45,
      "vel": 64,
      "dur": 80
    },
    {
      "t": 1745.7,
      "ch": 7,
      "note": 36,
      "vel": 64,
      "dur": 80
    },
    {
      "t": 1745.7,
      "ch": 7,
      "note": 38,
      "vel": 65,
      "dur": 80
    },
    {
      "t": 1745.8,
      "ch": 1,
      "note": 38,
      "vel": 74,
      "dur": 25
    },
    {
      "t": 1745.8,
      "ch": 1,
      "note": 40,
      "vel": 62,
      "dur": 25
    },
    {
      "t": 1745.9,
      "ch": 1,
      "note": 42,
      "vel": 64,
      "dur": 25
    },
    {
      "t": 1746,
      "ch": 0,
      "note": 36,
      "vel": 85,
      "dur": 55
    },
    {
      "t": 1746,
      "ch": 1,
      "note": 36,
      "vel": 96,
      "dur": 25
    },
    {
      "t": 1746,
      "ch": 7,
      "note": 48,
      "vel": 78,
      "dur": 80
    },
    {
      "t": 1746,
      "ch": 7,
      "note": 36,
      "vel": 59,
      "dur": 80
    },
    {
      "t": 1746.1,
      "ch": 1,
      "note": 38,
      "vel": 68,
      "dur": 25
    },
    {
      "t": 1746.1,
      "ch": 1,
      "note": 40,
      "vel": 66,
      "dur": 25
    },
    {
      "t": 1746.2,
      "ch": 1,
      "note": 42,
      "vel": 81,
      "dur": 25
    },
    {
      "t": 1746.3,
      "ch": 1,
      "note": 36,
      "vel": 100,
      "dur": 25
    },
    {
      "t": 1746.4,
      "ch": 1,
      "note": 38,
      "vel": 80,
      "dur": 25
    },
    {
      "t": 1746.4,
      "ch": 1,
      "note": 40,
      "vel": 57,
      "dur": 25
    },
    {
      "t": 1746.5,
      "ch": 1,
      "note": 42,
      "vel": 61,
      "dur": 25
    },
    {
      "t": 1746.6,
      "ch": 0,
      "note": 36,
      "vel": 111,
      "dur": 55
    },
    {
      "t": 1746.6,
      "ch": 1,
      "note": 36,
      "vel": 90,
      "dur": 25
    },
    {
      "t": 1746.6,
      "ch": 7,
      "note": 48,
      "vel": 70,
      "dur": 80
    },
    {
      "t": 1746.6,
      "ch": 7,
      "note": 45,
      "vel": 72,
      "dur": 80
    },
    {
      "t": 1746.6,
      "ch": 7,
      "note": 36,
      "vel": 78,
      "dur": 80
    },
    {
      "t": 1746.6,
      "ch": 7,
      "note": 38,
      "vel": 78,
      "dur": 80
    },
    {
      "t": 1746.7,
      "ch": 1,
      "note": 38,
      "vel": 82,
      "dur": 25
    },
    {
      "t": 1746.7,
      "ch": 1,
      "note": 40,
      "vel": 80,
      "dur": 25
    },
    {
      "t": 1746.8,
      "ch": 5,
      "note": 63,
      "vel": 19,
      "dur": 908
    },
    {
      "t": 1746.8,
      "ch": 1,
      "note": 42,
      "vel": 91,
      "dur": 25
    },
    {
      "t": 1746.9,
      "ch": 1,
      "note": 36,
      "vel": 86,
      "dur": 25
    },
    {
      "t": 1746.9,
      "ch": 7,
      "note": 36,
      "vel": 55,
      "dur": 80
    },
    {
      "t": 1746.9,
      "ch": 6,
      "note": 73,
      "vel": 11,
      "dur": 606
    },
    {
      "t": 1746.9,
      "ch": 5,
      "note": 56,
      "vel": 38,
      "dur": 909
    },
    {
      "t": 1747,
      "ch": 1,
      "note": 38,
      "vel": 68,
      "dur": 25
    },
    {
      "t": 1747,
      "ch": 1,
      "note": 40,
      "vel": 83,
      "dur": 25
    },
    {
      "t": 1747.1,
      "ch": 6,
      "note": 66,
      "vel": 9,
      "dur": 400
    },
    {
      "t": 1747.1,
      "ch": 5,
      "note": 73,
      "vel": 18,
      "dur": 910
    },
    {
      "t": 1747.1,
      "ch": 1,
      "note": 42,
      "vel": 74,
      "dur": 25
    },
    {
      "t": 1747.2,
      "ch": 0,
      "note": 36,
      "vel": 85,
      "dur": 55
    },
    {
      "t": 1747.2,
      "ch": 1,
      "note": 36,
      "vel": 102,
      "dur": 25
    },
    {
      "t": 1747.2,
      "ch": 7,
      "note": 48,
      "vel": 56,
      "dur": 80
    },
    {
      "t": 1747.2,
      "ch": 7,
      "note": 36,
      "vel": 67,
      "dur": 80
    },
    {
      "t": 1747.2,
      "ch": 6,
      "note": 68,
      "vel": 29,
      "dur": 607
    },
    {
      "t": 1747.3,
      "ch": 1,
      "note": 38,
      "vel": 114,
      "dur": 25
    },
    {
      "t": 1747.3,
      "ch": 1,
      "note": 40,
      "vel": 70,
      "dur": 25
    },
    {
      "t": 1747.4,
      "ch": 7,
      "note": 45,
      "vel": 57,
      "dur": 80
    },
    {
      "t": 1747.4,
      "ch": 7,
      "note": 38,
      "vel": 79,
      "dur": 80
    },
    {
      "t": 1747.4,
      "ch": 5,
      "note": 66,
      "vel": 36,
      "dur": 912
    },
    {
      "t": 1747.4,
      "ch": 1,
      "note": 42,
      "vel": 83,
      "dur": 25
    },
    {
      "t": 1747.5,
      "ch": 1,
      "note": 36,
      "vel": 61,
      "dur": 25
    },
    {
      "t": 1747.5,
      "ch": 5,
      "note": 58,
      "vel": 38,
      "dur": 913
    },
    {
      "t": 1747.6,
      "ch": 1,
      "note": 38,
      "vel": 68,
      "dur": 25
    },
    {
      "t": 1747.6,
      "ch": 1,
      "note": 40,
      "vel": 75,
      "dur": 25
    },
    {
      "t": 1747.7,
      "ch": 6,
      "note": 61,
      "vel": 31,
      "dur": 609
    },
    {
      "t": 1747.7,
      "ch": 1,
      "note": 42,
      "vel": 65,
      "dur": 25
    },
    {
      "t": 1747.8,
      "ch": 0,
      "note": 36,
      "vel": 94,
      "dur": 55
    },
    {
      "t": 1747.8,
      "ch": 1,
      "note": 36,
      "vel": 68,
      "dur": 25
    },
    {
      "t": 1747.8,
      "ch": 7,
      "note": 48,
      "vel": 77,
      "dur": 80
    },
    {
      "t": 1747.8,
      "ch": 7,
      "note": 36,
      "vel": 66,
      "dur": 80
    },
    {
      "t": 1747.9,
      "ch": 1,
      "note": 38,
      "vel": 70,
      "dur": 25
    },
    {
      "t": 1747.9,
      "ch": 1,
      "note": 40,
      "vel": 70,
      "dur": 25
    },
    {
      "t": 1748,
      "ch": 1,
      "note": 42,
      "vel": 96,
      "dur": 25
    },
    {
      "t": 1748.1,
      "ch": 1,
      "note": 36,
      "vel": 81,
      "dur": 25
    },
    {
      "t": 1748.1,
      "ch": 7,
      "note": 45,
      "vel": 74,
      "dur": 80
    },
    {
      "t": 1748.1,
      "ch": 7,
      "note": 36,
      "vel": 58,
      "dur": 80
    },
    {
      "t": 1748.1,
      "ch": 7,
      "note": 38,
      "vel": 65,
      "dur": 80
    },
    {
      "t": 1748.2,
      "ch": 1,
      "note": 38,
      "vel": 76,
      "dur": 25
    },
    {
      "t": 1748.2,
      "ch": 1,
      "note": 40,
      "vel": 59,
      "dur": 25
    },
    {
      "t": 1748.3,
      "ch": 1,
      "note": 42,
      "vel": 79,
      "dur": 25
    },
    {
      "t": 1748.4,
      "ch": 0,
      "note": 36,
      "vel": 93,
      "dur": 55
    },
    {
      "t": 1748.4,
      "ch": 1,
      "note": 36,
      "vel": 72,
      "dur": 25
    },
    {
      "t": 1748.4,
      "ch": 7,
      "note": 48,
      "vel": 65,
      "dur": 80
    },
    {
      "t": 1748.4,
      "ch": 7,
      "note": 36,
      "vel": 81,
      "dur": 80
    },
    {
      "t": 1748.5,
      "ch": 1,
      "note": 38,
      "vel": 101,
      "dur": 25
    },
    {
      "t": 1748.5,
      "ch": 1,
      "note": 40,
      "vel": 77,
      "dur": 25
    },
    {
      "t": 1748.6,
      "ch": 1,
      "note": 42,
      "vel": 56,
      "dur": 25
    },
    {
      "t": 1748.7,
      "ch": 1,
      "note": 36,
      "vel": 69,
      "dur": 25
    },
    {
      "t": 1748.8,
      "ch": 1,
      "note": 38,
      "vel": 76,
      "dur": 25
    },
    {
      "t": 1748.8,
      "ch": 1,
      "note": 40,
      "vel": 67,
      "dur": 25
    },
    {
      "t": 1748.9,
      "ch": 1,
      "note": 42,
      "vel": 73,
      "dur": 25
    },
    {
      "t": 1749,
      "ch": 0,
      "note": 36,
      "vel": 110,
      "dur": 55
    },
    {
      "t": 1749,
      "ch": 1,
      "note": 36,
      "vel": 86,
      "dur": 25
    },
    {
      "t": 1749,
      "ch": 7,
      "note": 48,
      "vel": 64,
      "dur": 80
    },
    {
      "t": 1749,
      "ch": 7,
      "note": 45,
      "vel": 69,
      "dur": 80
    },
    {
      "t": 1749,
      "ch": 7,
      "note": 36,
      "vel": 71,
      "dur": 80
    },
    {
      "t": 1749,
      "ch": 7,
      "note": 38,
      "vel": 62,
      "dur": 80
    },
    {
      "t": 1749,
      "ch": 5,
      "note": 37,
      "vel": 25,
      "dur": 920
    },
    {
      "t": 1749.1,
      "ch": 1,
      "note": 38,
      "vel": 102,
      "dur": 25
    },
    {
      "t": 1749.1,
      "ch": 1,
      "note": 40,
      "vel": 80,
      "dur": 25
    },
    {
      "t": 1749.2,
      "ch": 1,
      "note": 42,
      "vel": 67,
      "dur": 25
    },
    {
      "t": 1749.3,
      "ch": 1,
      "note": 36,
      "vel": 74,
      "dur": 25
    },
    {
      "t": 1749.3,
      "ch": 7,
      "note": 36,
      "vel": 64,
      "dur": 80
    },
    {
      "t": 1749.4,
      "ch": 1,
      "note": 38,
      "vel": 74,
      "dur": 25
    },
    {
      "t": 1749.4,
      "ch": 1,
      "note": 40,
      "vel": 55,
      "dur": 25
    },
    {
      "t": 1749.5,
      "ch": 1,
      "note": 42,
      "vel": 79,
      "dur": 25
    },
    {
      "t": 1749.6,
      "ch": 0,
      "note": 36,
      "vel": 91,
      "dur": 55
    },
    {
      "t": 1749.6,
      "ch": 1,
      "note": 36,
      "vel": 66,
      "dur": 25
    },
    {
      "t": 1749.6,
      "ch": 7,
      "note": 48,
      "vel": 72,
      "dur": 80
    },
    {
      "t": 1749.6,
      "ch": 7,
      "note": 36,
      "vel": 71,
      "dur": 80
    },
    {
      "t": 1749.7,
      "ch": 1,
      "note": 38,
      "vel": 69,
      "dur": 25
    },
    {
      "t": 1749.7,
      "ch": 1,
      "note": 40,
      "vel": 77,
      "dur": 25
    },
    {
      "t": 1749.8,
      "ch": 7,
      "note": 45,
      "vel": 70,
      "dur": 80
    },
    {
      "t": 1749.8,
      "ch": 7,
      "note": 38,
      "vel": 65,
      "dur": 80
    },
    {
      "t": 1749.8,
      "ch": 1,
      "note": 42,
      "vel": 82,
      "dur": 25
    },
    {
      "t": 1749.9,
      "ch": 1,
      "note": 36,
      "vel": 70,
      "dur": 25
    },
    {
      "t": 1749.9,
      "ch": 5,
      "note": 68,
      "vel": 18,
      "dur": 923
    },
    {
      "t": 1750,
      "ch": 1,
      "note": 38,
      "vel": 68,
      "dur": 25
    },
    {
      "t": 1750,
      "ch": 1,
      "note": 40,
      "vel": 97,
      "dur": 25
    },
    {
      "t": 1750.1,
      "ch": 1,
      "note": 42,
      "vel": 80,
      "dur": 25
    },
    {
      "t": 1750.2,
      "ch": 0,
      "note": 36,
      "vel": 96,
      "dur": 55
    },
    {
      "t": 1750.2,
      "ch": 1,
      "note": 36,
      "vel": 77,
      "dur": 25
    },
    {
      "t": 1750.2,
      "ch": 7,
      "note": 48,
      "vel": 71,
      "dur": 80
    },
    {
      "t": 1750.2,
      "ch": 7,
      "note": 36,
      "vel": 67,
      "dur": 80
    },
    {
      "t": 1750.3,
      "ch": 1,
      "note": 38,
      "vel": 92,
      "dur": 25
    },
    {
      "t": 1750.3,
      "ch": 6,
      "note": 71,
      "vel": 11,
      "dur": 400
    },
    {
      "t": 1750.3,
      "ch": 1,
      "note": 40,
      "vel": 68,
      "dur": 25
    },
    {
      "t": 1750.4,
      "ch": 1,
      "note": 42,
      "vel": 73,
      "dur": 25
    },
    {
      "t": 1750.5,
      "ch": 1,
      "note": 36,
      "vel": 71,
      "dur": 25
    },
    {
      "t": 1750.5,
      "ch": 7,
      "note": 45,
      "vel": 63,
      "dur": 80
    },
    {
      "t": 1750.5,
      "ch": 7,
      "note": 36,
      "vel": 64,
      "dur": 80
    },
    {
      "t": 1750.5,
      "ch": 7,
      "note": 38,
      "vel": 49,
      "dur": 80
    },
    {
      "t": 1750.5,
      "ch": 6,
      "note": 71,
      "vel": 8,
      "dur": 616
    },
    {
      "t": 1750.6,
      "ch": 1,
      "note": 38,
      "vel": 94,
      "dur": 25
    },
    {
      "t": 1750.7,
      "ch": 1,
      "note": 40,
      "vel": 47,
      "dur": 25
    },
    {
      "t": 1750.7,
      "ch": 6,
      "note": 71,
      "vel": 35,
      "dur": 616
    },
    {
      "t": 1750.7,
      "ch": 1,
      "note": 42,
      "vel": 66,
      "dur": 25
    },
    {
      "t": 1750.8,
      "ch": 0,
      "note": 36,
      "vel": 95,
      "dur": 55
    },
    {
      "t": 1750.8,
      "ch": 1,
      "note": 36,
      "vel": 105,
      "dur": 25
    },
    {
      "t": 1750.8,
      "ch": 7,
      "note": 48,
      "vel": 72,
      "dur": 80
    },
    {
      "t": 1750.8,
      "ch": 7,
      "note": 36,
      "vel": 69,
      "dur": 80
    },
    {
      "t": 1750.9,
      "ch": 1,
      "note": 38,
      "vel": 67,
      "dur": 25
    },
    {
      "t": 1750.9,
      "ch": 1,
      "note": 40,
      "vel": 72,
      "dur": 25
    },
    {
      "t": 1751,
      "ch": 1,
      "note": 42,
      "vel": 76,
      "dur": 25
    },
    {
      "t": 1751.1,
      "ch": 1,
      "note": 36,
      "vel": 88,
      "dur": 25
    },
    {
      "t": 1751.2,
      "ch": 1,
      "note": 38,
      "vel": 84,
      "dur": 25
    },
    {
      "t": 1751.2,
      "ch": 1,
      "note": 40,
      "vel": 75,
      "dur": 25
    },
    {
      "t": 1751.3,
      "ch": 6,
      "note": 61,
      "vel": 35,
      "dur": 617
    },
    {
      "t": 1751.3,
      "ch": 1,
      "note": 42,
      "vel": 75,
      "dur": 25
    },
    {
      "t": 1751.4,
      "ch": 0,
      "note": 36,
      "vel": 108,
      "dur": 55
    },
    {
      "t": 1751.4,
      "ch": 1,
      "note": 36,
      "vel": 110,
      "dur": 25
    },
    {
      "t": 1751.4,
      "ch": 7,
      "note": 48,
      "vel": 73,
      "dur": 80
    },
    {
      "t": 1751.4,
      "ch": 7,
      "note": 45,
      "vel": 69,
      "dur": 80
    },
    {
      "t": 1751.4,
      "ch": 7,
      "note": 36,
      "vel": 72,
      "dur": 80
    },
    {
      "t": 1751.4,
      "ch": 7,
      "note": 38,
      "vel": 70,
      "dur": 80
    },
    {
      "t": 1751.5,
      "ch": 1,
      "note": 38,
      "vel": 66,
      "dur": 25
    },
    {
      "t": 1751.5,
      "ch": 1,
      "note": 40,
      "vel": 75,
      "dur": 25
    },
    {
      "t": 1751.6,
      "ch": 6,
      "note": 71,
      "vel": 38,
      "dur": 617
    },
    {
      "t": 1751.6,
      "ch": 1,
      "note": 42,
      "vel": 67,
      "dur": 25
    },
    {
      "t": 1751.7,
      "ch": 1,
      "note": 36,
      "vel": 63,
      "dur": 25
    },
    {
      "t": 1751.7,
      "ch": 7,
      "note": 36,
      "vel": 58,
      "dur": 80
    },
    {
      "t": 1751.7,
      "ch": 5,
      "note": 58,
      "vel": 37,
      "dur": 925
    },
    {
      "t": 1751.8,
      "ch": 1,
      "note": 38,
      "vel": 85,
      "dur": 25
    },
    {
      "t": 1751.8,
      "ch": 1,
      "note": 40,
      "vel": 69,
      "dur": 25
    },
    {
      "t": 1751.9,
      "ch": 1,
      "note": 42,
      "vel": 61,
      "dur": 25
    },
    {
      "t": 1752,
      "ch": 0,
      "note": 36,
      "vel": 91,
      "dur": 55
    },
    {
      "t": 1752,
      "ch": 1,
      "note": 36,
      "vel": 86,
      "dur": 25
    },
    {
      "t": 1752,
      "ch": 7,
      "note": 48,
      "vel": 66,
      "dur": 80
    },
    {
      "t": 1752,
      "ch": 7,
      "note": 36,
      "vel": 73,
      "dur": 80
    },
    {
      "t": 1752,
      "ch": 6,
      "note": 61,
      "vel": 20,
      "dur": 400
    },
    {
      "t": 1752.1,
      "ch": 1,
      "note": 38,
      "vel": 98,
      "dur": 25
    },
    {
      "t": 1752.1,
      "ch": 1,
      "note": 40,
      "vel": 77,
      "dur": 25
    },
    {
      "t": 1752.2,
      "ch": 7,
      "note": 45,
      "vel": 62,
      "dur": 80
    },
    {
      "t": 1752.2,
      "ch": 7,
      "note": 38,
      "vel": 62,
      "dur": 80
    },
    {
      "t": 1752.2,
      "ch": 6,
      "note": 58,
      "vel": 37,
      "dur": 616
    },
    {
      "t": 1752.2,
      "ch": 1,
      "note": 42,
      "vel": 88,
      "dur": 25
    },
    {
      "t": 1752.3,
      "ch": 1,
      "note": 36,
      "vel": 72,
      "dur": 25
    },
    {
      "t": 1752.4,
      "ch": 1,
      "note": 38,
      "vel": 68,
      "dur": 25
    },
    {
      "t": 1752.4,
      "ch": 1,
      "note": 40,
      "vel": 86,
      "dur": 25
    },
    {
      "t": 1752.5,
      "ch": 2,
      "note": 49,
      "vel": 0,
      "dur": 0
    },
    {
      "t": 1752.5,
      "ch": 2,
      "note": 61,
      "vel": 0,
      "dur": 0
    },
    {
      "t": 1752.5,
      "ch": 2,
      "note": 54,
      "vel": 56,
      "dur": 18000
    },
    {
      "t": 1752.5,
      "ch": 2,
      "note": 66,
      "vel": 39,
      "dur": 18000
    },
    {
      "t": 1752.5,
      "ch": 1,
      "note": 42,
      "vel": 64,
      "dur": 25
    },
    {
      "t": 1752.6,
      "ch": 0,
      "note": 36,
      "vel": 96,
      "dur": 55
    },
    {
      "t": 1752.6,
      "ch": 1,
      "note": 36,
      "vel": 64,
      "dur": 25
    },
    {
      "t": 1752.6,
      "ch": 7,
      "note": 48,
      "vel": 76,
      "dur": 80
    },
    {
      "t": 1752.6,
      "ch": 7,
      "note": 36,
      "vel": 62,
      "dur": 80
    },
    {
      "t": 1752.7,
      "ch": 1,
      "note": 38,
      "vel": 80,
      "dur": 25
    },
    {
      "t": 1752.7,
      "ch": 1,
      "note": 40,
      "vel": 74,
      "dur": 25
    },
    {
      "t": 1752.8,
      "ch": 1,
      "note": 42,
      "vel": 76,
      "dur": 25
    },
    {
      "t": 1752.9,
      "ch": 1,
      "note": 36,
      "vel": 70,
      "dur": 25
    },
    {
      "t": 1752.9,
      "ch": 7,
      "note": 45,
      "vel": 61,
      "dur": 80
    },
    {
      "t": 1752.9,
      "ch": 7,
      "note": 36,
      "vel": 60,
      "dur": 80
    },
    {
      "t": 1752.9,
      "ch": 7,
      "note": 38,
      "vel": 64,
      "dur": 80
    },
    {
      "t": 1753,
      "ch": 1,
      "note": 38,
      "vel": 85,
      "dur": 25
    },
    {
      "t": 1753.1,
      "ch": 1,
      "note": 40,
      "vel": 67,
      "dur": 25
    },
    {
      "t": 1753.1,
      "ch": 1,
      "note": 42,
      "vel": 68,
      "dur": 25
    },
    {
      "t": 1753.2,
      "ch": 7,
      "note": 48,
      "vel": 58,
      "dur": 80
    },
    {
      "t": 1753.2,
      "ch": 7,
      "note": 36,
      "vel": 59,
      "dur": 80
    },
    {
      "t": 1753.8,
      "ch": 0,
      "note": 36,
      "vel": 111,
      "dur": 55
    },
    {
      "t": 1753.8,
      "ch": 7,
      "note": 48,
      "vel": 57,
      "dur": 80
    },
    {
      "t": 1753.8,
      "ch": 7,
      "note": 45,
      "vel": 68,
      "dur": 80
    },
    {
      "t": 1753.8,
      "ch": 7,
      "note": 36,
      "vel": 63,
      "dur": 80
    },
    {
      "t": 1753.8,
      "ch": 7,
      "note": 38,
      "vel": 63,
      "dur": 80
    },
    {
      "t": 1753.8,
      "ch": 6,
      "note": 63,
      "vel": 34,
      "dur": 614
    },
    {
      "t": 1754.1,
      "ch": 7,
      "note": 36,
      "vel": 65,
      "dur": 80
    },
    {
      "t": 1754.1,
      "ch": 5,
      "note": 54,
      "vel": 10,
      "dur": 920
    },
    {
      "t": 1754.4,
      "ch": 7,
      "note": 48,
      "vel": 77,
      "dur": 80
    },
    {
      "t": 1754.4,
      "ch": 7,
      "note": 36,
      "vel": 82,
      "dur": 80
    },
    {
      "t": 1754.6,
      "ch": 7,
      "note": 45,
      "vel": 69,
      "dur": 80
    },
    {
      "t": 1754.6,
      "ch": 7,
      "note": 38,
      "vel": 52,
      "dur": 80
    },
    {
      "t": 1754.6,
      "ch": 6,
      "note": 63,
      "vel": 13,
      "dur": 613
    },
    {
      "t": 1754.9,
      "ch": 4,
      "note": 59,
      "vel": 43,
      "dur": 4750
    },
    {
      "t": 1754.9,
      "ch": 3,
      "note": 42,
      "vel": 47,
      "dur": 4800
    },
    {
      "t": 1755,
      "ch": 0,
      "note": 36,
      "vel": 89,
      "dur": 55
    },
    {
      "t": 1755,
      "ch": 7,
      "note": 48,
      "vel": 66,
      "dur": 80
    },
    {
      "t": 1755,
      "ch": 7,
      "note": 36,
      "vel": 70,
      "dur": 80
    },
    {
      "t": 1755.3,
      "ch": 7,
      "note": 45,
      "vel": 68,
      "dur": 80
    },
    {
      "t": 1755.3,
      "ch": 7,
      "note": 36,
      "vel": 67,
      "dur": 80
    },
    {
      "t": 1755.3,
      "ch": 7,
      "note": 38,
      "vel": 69,
      "dur": 80
    },
    {
      "t": 1755.3,
      "ch": 6,
      "note": 54,
      "vel": 22,
      "dur": 611
    },
    {
      "t": 1755.6,
      "ch": 7,
      "note": 48,
      "vel": 69,
      "dur": 80
    },
    {
      "t": 1755.6,
      "ch": 7,
      "note": 36,
      "vel": 71,
      "dur": 80
    },
    {
      "t": 1755.6,
      "ch": 5,
      "note": 59,
      "vel": 24,
      "dur": 915
    },
    {
      "t": 1756,
      "ch": 6,
      "note": 63,
      "vel": 10,
      "dur": 400
    },
    {
      "t": 1756.2,
      "ch": 7,
      "note": 48,
      "vel": 76,
      "dur": 80
    },
    {
      "t": 1756.2,
      "ch": 7,
      "note": 45,
      "vel": 75,
      "dur": 80
    },
    {
      "t": 1756.2,
      "ch": 7,
      "note": 36,
      "vel": 56,
      "dur": 80
    },
    {
      "t": 1756.2,
      "ch": 7,
      "note": 38,
      "vel": 68,
      "dur": 80
    },
    {
      "t": 1756.5,
      "ch": 7,
      "note": 36,
      "vel": 56,
      "dur": 80
    },
    {
      "t": 1756.5,
      "ch": 5,
      "note": 59,
      "vel": 35,
      "dur": 913
    },
    {
      "t": 1756.8,
      "ch": 7,
      "note": 48,
      "vel": 80,
      "dur": 80
    },
    {
      "t": 1756.8,
      "ch": 7,
      "note": 36,
      "vel": 62,
      "dur": 80
    },
    {
      "t": 1757,
      "ch": 7,
      "note": 45,
      "vel": 58,
      "dur": 80
    },
    {
      "t": 1757,
      "ch": 7,
      "note": 38,
      "vel": 61,
      "dur": 80
    },
    {
      "t": 1757,
      "ch": 6,
      "note": 68,
      "vel": 21,
      "dur": 607
    },
    {
      "t": 1757.1,
      "ch": 5,
      "note": 52,
      "vel": 26,
      "dur": 911
    },
    {
      "t": 1757.1,
      "ch": 6,
      "note": 56,
      "vel": 37,
      "dur": 607
    },
    {
      "t": 1757.4,
      "ch": 7,
      "note": 48,
      "vel": 65,
      "dur": 80
    },
    {
      "t": 1757.4,
      "ch": 7,
      "note": 36,
      "vel": 62,
      "dur": 80
    },
    {
      "t": 1757.5,
      "ch": 6,
      "note": 54,
      "vel": 8,
      "dur": 400
    },
    {
      "t": 1757.7,
      "ch": 7,
      "note": 45,
      "vel": 61,
      "dur": 80
    },
    {
      "t": 1757.7,
      "ch": 7,
      "note": 36,
      "vel": 69,
      "dur": 80
    },
    {
      "t": 1757.9,
      "ch": 5,
      "note": 68,
      "vel": 20,
      "dur": 909
    },
    {
      "t": 1758,
      "ch": 7,
      "note": 48,
      "vel": 64,
      "dur": 80
    },
    {
      "t": 1758,
      "ch": 7,
      "note": 36,
      "vel": 60,
      "dur": 80
    },
    {
      "t": 1758.2,
      "ch": 5,
      "note": 58,
      "vel": 43,
      "dur": 908
    },
    {
      "t": 1758.3,
      "ch": 6,
      "note": 71,
      "vel": 18,
      "dur": 605
    },
    {
      "t": 1758.5,
      "ch": 6,
      "note": 64,
      "vel": 6,
      "dur": 400
    },
    {
      "t": 1758.6,
      "ch": 7,
      "note": 48,
      "vel": 74,
      "dur": 80
    },
    {
      "t": 1758.6,
      "ch": 7,
      "note": 45,
      "vel": 71,
      "dur": 80
    },
    {
      "t": 1758.6,
      "ch": 7,
      "note": 36,
      "vel": 66,
      "dur": 80
    },
    {
      "t": 1758.9,
      "ch": 7,
      "note": 36,
      "vel": 58,
      "dur": 80
    },
    {
      "t": 1759.2,
      "ch": 7,
      "note": 48,
      "vel": 65,
      "dur": 80
    },
    {
      "t": 1759.2,
      "ch": 7,
      "note": 36,
      "vel": 62,
      "dur": 80
    },
    {
      "t": 1759.4,
      "ch": 7,
      "note": 45,
      "vel": 68,
      "dur": 80
    },
    {
      "t": 1759.4,
      "ch": 6,
      "note": 61,
      "vel": 10,
      "dur": 605
    },
    {
      "t": 1759.5,
      "ch": 6,
      "note": 61,
      "vel": 15,
      "dur": 605
    },
    {
      "t": 1759.7,
      "ch": 4,
      "note": 59,
      "vel": 45,
      "dur": 4750
    },
    {
      "t": 1759.7,
      "ch": 3,
      "note": 44,
      "vel": 47,
      "dur": 4800
    },
    {
      "t": 1759.8,
      "ch": 7,
      "note": 48,
      "vel": 79,
      "dur": 80
    },
    {
      "t": 1759.8,
      "ch": 7,
      "note": 36,
      "vel": 72,
      "dur": 80
    },
    {
      "t": 1760.1,
      "ch": 7,
      "note": 45,
      "vel": 57,
      "dur": 80
    },
    {
      "t": 1760.1,
      "ch": 7,
      "note": 36,
      "vel": 55,
      "dur": 80
    },
    {
      "t": 1760.4,
      "ch": 7,
      "note": 48,
      "vel": 61,
      "dur": 80
    },
    {
      "t": 1760.4,
      "ch": 7,
      "note": 36,
      "vel": 69,
      "dur": 80
    },
    {
      "t": 1760.4,
      "ch": 6,
      "note": 58,
      "vel": 57,
      "dur": 605
    },
    {
      "t": 1760.6,
      "ch": 6,
      "note": 64,
      "vel": 24,
      "dur": 605
    },
    {
      "t": 1760.7,
      "ch": 6,
      "note": 63,
      "vel": 23,
      "dur": 605
    },
    {
      "t": 1761,
      "ch": 7,
      "note": 48,
      "vel": 65,
      "dur": 80
    },
    {
      "t": 1761,
      "ch": 7,
      "note": 45,
      "vel": 69,
      "dur": 80
    },
    {
      "t": 1761,
      "ch": 7,
      "note": 36,
      "vel": 69,
      "dur": 80
    },
    {
      "t": 1761.3,
      "ch": 7,
      "note": 36,
      "vel": 58,
      "dur": 80
    },
    {
      "t": 1761.5,
      "ch": 6,
      "note": 61,
      "vel": 21,
      "dur": 607
    },
    {
      "t": 1761.6,
      "ch": 7,
      "note": 48,
      "vel": 79,
      "dur": 80
    },
    {
      "t": 1761.6,
      "ch": 7,
      "note": 36,
      "vel": 66,
      "dur": 80
    },
    {
      "t": 1761.8,
      "ch": 7,
      "note": 45,
      "vel": 54,
      "dur": 80
    },
    {
      "t": 1762.1,
      "ch": 2,
      "note": 54,
      "vel": 0,
      "dur": 0
    },
    {
      "t": 1762.1,
      "ch": 2,
      "note": 66,
      "vel": 0,
      "dur": 0
    },
    {
      "t": 1762.1,
      "ch": 2,
      "note": 49,
      "vel": 55,
      "dur": 18000
    },
    {
      "t": 1762.1,
      "ch": 2,
      "note": 61,
      "vel": 39,
      "dur": 18000
    },
    {
      "t": 1762.2,
      "ch": 7,
      "note": 48,
      "vel": 65,
      "dur": 80
    },
    {
      "t": 1762.2,
      "ch": 7,
      "note": 36,
      "vel": 77,
      "dur": 80
    },
    {
      "t": 1762.5,
      "ch": 7,
      "note": 45,
      "vel": 66,
      "dur": 80
    },
    {
      "t": 1762.5,
      "ch": 7,
      "note": 36,
      "vel": 55,
      "dur": 80
    },
    {
      "t": 1762.7,
      "ch": 6,
      "note": 56,
      "vel": 26,
      "dur": 610
    },
    {
      "t": 1762.8,
      "ch": 7,
      "note": 48,
      "vel": 62,
      "dur": 80
    },
    {
      "t": 1762.8,
      "ch": 7,
      "note": 36,
      "vel": 68,
      "dur": 80
    },
    {
      "t": 1763.1,
      "ch": 6,
      "note": 61,
      "vel": 27,
      "dur": 612
    },
    {
      "t": 1763.4,
      "ch": 0,
      "note": 36,
      "vel": 119,
      "dur": 55
    },
    {
      "t": 1763.4,
      "ch": 7,
      "note": 48,
      "vel": 60,
      "dur": 80
    },
    {
      "t": 1763.4,
      "ch": 7,
      "note": 45,
      "vel": 67,
      "dur": 80
    },
    {
      "t": 1763.4,
      "ch": 7,
      "note": 36,
      "vel": 75,
      "dur": 80
    },
    {
      "t": 1763.7,
      "ch": 7,
      "note": 36,
      "vel": 55,
      "dur": 80
    },
    {
      "t": 1764,
      "ch": 7,
      "note": 48,
      "vel": 80,
      "dur": 80
    },
    {
      "t": 1764,
      "ch": 7,
      "note": 36,
      "vel": 71,
      "dur": 80
    },
    {
      "t": 1764.2,
      "ch": 7,
      "note": 45,
      "vel": 63,
      "dur": 80
    },
    {
      "t": 1764.2,
      "ch": 5,
      "note": 54,
      "vel": 28,
      "dur": 924
    },
    {
      "t": 1764.5,
      "ch": 4,
      "note": 58,
      "vel": 56,
      "dur": 4750
    },
    {
      "t": 1764.5,
      "ch": 3,
      "note": 35,
      "vel": 44,
      "dur": 4800
    },
    {
      "t": 1764.6,
      "ch": 0,
      "note": 36,
      "vel": 87,
      "dur": 55
    },
    {
      "t": 1764.6,
      "ch": 7,
      "note": 48,
      "vel": 74,
      "dur": 80
    },
    {
      "t": 1764.6,
      "ch": 7,
      "note": 36,
      "vel": 71,
      "dur": 80
    },
    {
      "t": 1764.9,
      "ch": 7,
      "note": 45,
      "vel": 57,
      "dur": 80
    },
    {
      "t": 1764.9,
      "ch": 7,
      "note": 36,
      "vel": 60,
      "dur": 80
    },
    {
      "t": 1765.1,
      "ch": 5,
      "note": 57,
      "vel": 27,
      "dur": 931
    },
    {
      "t": 1765.2,
      "ch": 7,
      "note": 48,
      "vel": 67,
      "dur": 80
    },
    {
      "t": 1765.2,
      "ch": 7,
      "note": 36,
      "vel": 60,
      "dur": 80
    },
    {
      "t": 1765.7,
      "ch": 6,
      "note": 73,
      "vel": 15,
      "dur": 624
    },
    {
      "t": 1765.8,
      "ch": 7,
      "note": 48,
      "vel": 71,
      "dur": 80
    },
    {
      "t": 1765.8,
      "ch": 7,
      "note": 45,
      "vel": 72,
      "dur": 80
    },
    {
      "t": 1765.8,
      "ch": 7,
      "note": 36,
      "vel": 77,
      "dur": 80
    },
    {
      "t": 1766.1,
      "ch": 7,
      "note": 36,
      "vel": 64,
      "dur": 80
    },
    {
      "t": 1766.1,
      "ch": 6,
      "note": 63,
      "vel": 14,
      "dur": 627
    },
    {
      "t": 1766.4,
      "ch": 7,
      "note": 48,
      "vel": 67,
      "dur": 80
    },
    {
      "t": 1766.4,
      "ch": 7,
      "note": 36,
      "vel": 72,
      "dur": 80
    },
    {
      "t": 1766.6,
      "ch": 7,
      "note": 45,
      "vel": 61,
      "dur": 80
    },
    {
      "t": 1767,
      "ch": 7,
      "note": 48,
      "vel": 64,
      "dur": 80
    },
    {
      "t": 1767,
      "ch": 7,
      "note": 36,
      "vel": 80,
      "dur": 80
    },
    {
      "t": 1767.3,
      "ch": 7,
      "note": 45,
      "vel": 50,
      "dur": 80
    },
    {
      "t": 1767.3,
      "ch": 7,
      "note": 36,
      "vel": 63,
      "dur": 80
    },
    {
      "t": 1767.3,
      "ch": 5,
      "note": 59,
      "vel": 18,
      "dur": 951
    },
    {
      "t": 1767.5,
      "ch": 6,
      "note": 61,
      "vel": 7,
      "dur": 635
    },
    {
      "t": 1767.5,
      "ch": 5,
      "note": 52,
      "vel": 36,
      "dur": 952
    },
    {
      "t": 1767.6,
      "ch": 7,
      "note": 48,
      "vel": 65,
      "dur": 80
    },
    {
      "t": 1767.6,
      "ch": 7,
      "note": 36,
      "vel": 80,
      "dur": 80
    },
    {
      "t": 1767.9,
      "ch": 6,
      "note": 56,
      "vel": 8,
      "dur": 637
    },
    {
      "t": 1768.2,
      "ch": 7,
      "note": 48,
      "vel": 80,
      "dur": 80
    },
    {
      "t": 1768.2,
      "ch": 7,
      "note": 45,
      "vel": 61,
      "dur": 80
    },
    {
      "t": 1768.2,
      "ch": 7,
      "note": 36,
      "vel": 60,
      "dur": 80
    },
    {
      "t": 1768.4,
      "ch": 6,
      "note": 68,
      "vel": 16,
      "dur": 640
    },
    {
      "t": 1768.5,
      "ch": 7,
      "note": 36,
      "vel": 63,
      "dur": 80
    },
    {
      "t": 1768.8,
      "ch": 7,
      "note": 48,
      "vel": 73,
      "dur": 80
    },
    {
      "t": 1768.8,
      "ch": 7,
      "note": 36,
      "vel": 74,
      "dur": 80
    },
    {
      "t": 1769,
      "ch": 7,
      "note": 45,
      "vel": 67,
      "dur": 80
    },
    {
      "t": 1769.4,
      "ch": 7,
      "note": 48,
      "vel": 70,
      "dur": 80
    },
    {
      "t": 1769.4,
      "ch": 7,
      "note": 36,
      "vel": 68,
      "dur": 80
    },
    {
      "t": 1769.7,
      "ch": 7,
      "note": 45,
      "vel": 56,
      "dur": 80
    },
    {
      "t": 1769.7,
      "ch": 7,
      "note": 36,
      "vel": 59,
      "dur": 80
    },
    {
      "t": 1770,
      "ch": 7,
      "note": 48,
      "vel": 70,
      "dur": 80
    },
    {
      "t": 1770,
      "ch": 7,
      "note": 36,
      "vel": 58,
      "dur": 80
    },
    {
      "t": 1770.6,
      "ch": 7,
      "note": 48,
      "vel": 69,
      "dur": 80
    },
    {
      "t": 1770.6,
      "ch": 7,
      "note": 45,
      "vel": 75,
      "dur": 80
    },
    {
      "t": 1770.6,
      "ch": 7,
      "note": 36,
      "vel": 80,
      "dur": 80
    },
    {
      "t": 1770.8,
      "ch": 5,
      "note": 54,
      "vel": 1,
      "dur": 977
    },
    {
      "t": 1770.9,
      "ch": 7,
      "note": 36,
      "vel": 68,
      "dur": 80
    },
    {
      "t": 1771.2,
      "ch": 7,
      "note": 48,
      "vel": 80,
      "dur": 80
    },
    {
      "t": 1771.2,
      "ch": 7,
      "note": 36,
      "vel": 62,
      "dur": 80
    },
    {
      "t": 1771.4,
      "ch": 7,
      "note": 45,
      "vel": 50,
      "dur": 80
    },
    {
      "t": 1771.7,
      "ch": 2,
      "note": 49,
      "vel": 0,
      "dur": 0
    },
    {
      "t": 1771.7,
      "ch": 2,
      "note": 61,
      "vel": 0,
      "dur": 0
    },
    {
      "t": 1771.7,
      "ch": 2,
      "note": 54,
      "vel": 52,
      "dur": 18000
    },
    {
      "t": 1771.7,
      "ch": 2,
      "note": 66,
      "vel": 36,
      "dur": 18000
    },
    {
      "t": 1771.8,
      "ch": 7,
      "note": 48,
      "vel": 75,
      "dur": 80
    },
    {
      "t": 1771.8,
      "ch": 7,
      "note": 36,
      "vel": 76,
      "dur": 80
    },
    {
      "t": 1772.1,
      "ch": 7,
      "note": 45,
      "vel": 64,
      "dur": 80
    },
    {
      "t": 1772.4,
      "ch": 7,
      "note": 48,
      "vel": 62,
      "dur": 80
    },
    {
      "t": 1772.6,
      "ch": 6,
      "note": 56,
      "vel": 30,
      "dur": 656
    },
    {
      "t": 1772.6,
      "ch": 5,
      "note": 52,
      "vel": 17,
      "dur": 985
    },
    {
      "t": 1772.9,
      "ch": 6,
      "note": 54,
      "vel": 14,
      "dur": 657
    },
    {
      "t": 1773,
      "ch": 0,
      "note": 36,
      "vel": 114,
      "dur": 55
    },
    {
      "t": 1773,
      "ch": 7,
      "note": 48,
      "vel": 74,
      "dur": 80
    },
    {
      "t": 1773,
      "ch": 7,
      "note": 45,
      "vel": 74,
      "dur": 80
    },
    {
      "t": 1773.3,
      "ch": 5,
      "note": 58,
      "vel": 33,
      "dur": 986
    },
    {
      "t": 1773.6,
      "ch": 7,
      "note": 48,
      "vel": 77,
      "dur": 80
    },
    {
      "t": 1773.8,
      "ch": 7,
      "note": 45,
      "vel": 55,
      "dur": 80
    },
    {
      "t": 1773.9,
      "ch": 6,
      "note": 61,
      "vel": 17,
      "dur": 658
    },
    {
      "t": 1774.2,
      "ch": 0,
      "note": 36,
      "vel": 95,
      "dur": 55
    },
    {
      "t": 1774.2,
      "ch": 7,
      "note": 48,
      "vel": 73,
      "dur": 80
    },
    {
      "t": 1774.5,
      "ch": 7,
      "note": 45,
      "vel": 60,
      "dur": 80
    },
    {
      "t": 1774.5,
      "ch": 5,
      "note": 49,
      "vel": 36,
      "dur": 987
    },
    {
      "t": 1774.8,
      "ch": 7,
      "note": 48,
      "vel": 77,
      "dur": 80
    },
    {
      "t": 1774.9,
      "ch": 6,
      "note": 52,
      "vel": 1,
      "dur": 400
    },
    {
      "t": 1775.3,
      "ch": 6,
      "note": 52,
      "vel": 13,
      "dur": 657
    },
    {
      "t": 1775.4,
      "ch": 7,
      "note": 48,
      "vel": 66,
      "dur": 80
    },
    {
      "t": 1775.4,
      "ch": 7,
      "note": 45,
      "vel": 65,
      "dur": 80
    },
    {
      "t": 1775.6,
      "ch": 5,
      "note": 61,
      "vel": 13,
      "dur": 985
    },
    {
      "t": 1775.8,
      "ch": 6,
      "note": 64,
      "vel": 10,
      "dur": 400
    },
    {
      "t": 1776,
      "ch": 7,
      "note": 48,
      "vel": 60,
      "dur": 80
    },
    {
      "t": 1776.2,
      "ch": 7,
      "note": 45,
      "vel": 55,
      "dur": 80
    },
    {
      "t": 1776.2,
      "ch": 6,
      "note": 64,
      "vel": 3,
      "dur": 656
    },
    {
      "t": 1776.3,
      "ch": 6,
      "note": 68,
      "vel": 5,
      "dur": 656
    },
    {
      "t": 1776.6,
      "ch": 7,
      "note": 48,
      "vel": 65,
      "dur": 80
    },
    {
      "t": 1776.9,
      "ch": 7,
      "note": 45,
      "vel": 61,
      "dur": 80
    },
    {
      "t": 1777.2,
      "ch": 7,
      "note": 48,
      "vel": 73,
      "dur": 80
    },
    {
      "t": 1777.8,
      "ch": 7,
      "note": 48,
      "vel": 65,
      "dur": 80
    },
    {
      "t": 1777.8,
      "ch": 7,
      "note": 45,
      "vel": 66,
      "dur": 80
    },
    {
      "t": 1778.4,
      "ch": 7,
      "note": 48,
      "vel": 60,
      "dur": 80
    },
    {
      "t": 1778.4,
      "ch": 6,
      "note": 56,
      "vel": 6,
      "dur": 651
    },
    {
      "t": 1778.5,
      "ch": 7,
      "note": 45,
      "vel": 62,
      "dur": 80
    },
    {
      "t": 1778.9,
      "ch": 4,
      "note": 58,
      "vel": 49,
      "dur": 4750
    },
    {
      "t": 1779,
      "ch": 7,
      "note": 48,
      "vel": 71,
      "dur": 80
    },
    {
      "t": 1779.3,
      "ch": 7,
      "note": 45,
      "vel": 56,
      "dur": 80
    },
    {
      "t": 1779.5,
      "ch": 6,
      "note": 64,
      "vel": 7,
      "dur": 648
    },
    {
      "t": 1779.6,
      "ch": 7,
      "note": 48,
      "vel": 71,
      "dur": 80
    },
    {
      "t": 1779.6,
      "ch": 5,
      "note": 64,
      "vel": 23,
      "dur": 971
    },
    {
      "t": 1779.8,
      "ch": 6,
      "note": 56,
      "vel": 29,
      "dur": 647
    },
    {
      "t": 1780.2,
      "ch": 7,
      "note": 48,
      "vel": 69,
      "dur": 80
    },
    {
      "t": 1780.2,
      "ch": 7,
      "note": 45,
      "vel": 83,
      "dur": 80
    },
    {
      "t": 1780.8,
      "ch": 7,
      "note": 48,
      "vel": 74,
      "dur": 80
    },
    {
      "t": 1780.8,
      "ch": 6,
      "note": 61,
      "vel": 18,
      "dur": 645
    },
    {
      "t": 1780.9,
      "ch": 7,
      "note": 45,
      "vel": 60,
      "dur": 80
    },
    {
      "t": 1781.1,
      "ch": 5,
      "note": 54,
      "vel": 16,
      "dur": 967
    },
    {
      "t": 1781.3,
      "ch": 2,
      "note": 54,
      "vel": 0,
      "dur": 0
    },
    {
      "t": 1781.3,
      "ch": 2,
      "note": 66,
      "vel": 0,
      "dur": 0
    },
    {
      "t": 1781.3,
      "ch": 2,
      "note": 49,
      "vel": 53,
      "dur": 18000
    },
    {
      "t": 1781.3,
      "ch": 2,
      "note": 61,
      "vel": 37,
      "dur": 18000
    },
    {
      "t": 1781.4,
      "ch": 7,
      "note": 48,
      "vel": 68,
      "dur": 80
    },
    {
      "t": 1781.5,
      "ch": 6,
      "note": 56,
      "vel": 4,
      "dur": 400
    },
    {
      "t": 1781.7,
      "ch": 7,
      "note": 45,
      "vel": 56,
      "dur": 80
    },
    {
      "t": 1782,
      "ch": 7,
      "note": 48,
      "vel": 59,
      "dur": 80
    },
    {
      "t": 1782.5,
      "ch": 5,
      "note": 52,
      "vel": 6,
      "dur": 964
    },
    {
      "t": 1782.6,
      "ch": 7,
      "note": 48,
      "vel": 81,
      "dur": 80
    },
    {
      "t": 1782.6,
      "ch": 7,
      "note": 45,
      "vel": 68,
      "dur": 80
    },
    {
      "t": 1782.8,
      "ch": 5,
      "note": 58,
      "vel": 30,
      "dur": 964
    },
    {
      "t": 1782.9,
      "ch": 6,
      "note": 56,
      "vel": 10,
      "dur": 400
    },
    {
      "t": 1783.2,
      "ch": 7,
      "note": 48,
      "vel": 74,
      "dur": 80
    },
    {
      "t": 1783.3,
      "ch": 7,
      "note": 45,
      "vel": 64,
      "dur": 80
    },
    {
      "t": 1783.7,
      "ch": 6,
      "note": 61,
      "vel": 7,
      "dur": 643
    },
    {
      "t": 1783.7,
      "ch": 4,
      "note": 59,
      "vel": 34,
      "dur": 4750
    },
    {
      "t": 1783.8,
      "ch": 7,
      "note": 48,
      "vel": 73,
      "dur": 80
    },
    {
      "t": 1783.8,
      "ch": 5,
      "note": 49,
      "vel": 5,
      "dur": 965
    },
    {
      "t": 1784.1,
      "ch": 6,
      "note": 52,
      "vel": 4,
      "dur": 644
    },
    {
      "t": 1784.4,
      "ch": 7,
      "note": 48,
      "vel": 80,
      "dur": 80
    },
    {
      "t": 1784.6,
      "ch": 5,
      "note": 61,
      "vel": 16,
      "dur": 966
    },
    {
      "t": 1784.6,
      "ch": 6,
      "note": 52,
      "vel": 5,
      "dur": 644
    },
    {
      "t": 1785,
      "ch": 7,
      "note": 48,
      "vel": 80,
      "dur": 80
    },
    {
      "t": 1785,
      "ch": 6,
      "note": 68,
      "vel": 18,
      "dur": 400
    },
    {
      "t": 1785,
      "ch": 5,
      "note": 64,
      "vel": 25,
      "dur": 968
    },
    {
      "t": 1785.2,
      "ch": 5,
      "note": 68,
      "vel": 4,
      "dur": 968
    },
    {
      "t": 1785.3,
      "ch": 6,
      "note": 68,
      "vel": 7,
      "dur": 400
    },
    {
      "t": 1785.3,
      "ch": 5,
      "note": 70,
      "vel": 44,
      "dur": 969
    },
    {
      "t": 1785.6,
      "ch": 7,
      "note": 48,
      "vel": 81,
      "dur": 80
    },
    {
      "t": 1785.8,
      "ch": 6,
      "note": 73,
      "vel": 1,
      "dur": 400
    },
    {
      "t": 1786.2,
      "ch": 7,
      "note": 48,
      "vel": 70,
      "dur": 80
    },
    {
      "t": 1786.8,
      "ch": 7,
      "note": 48,
      "vel": 65,
      "dur": 80
    },
    {
      "t": 1787.4,
      "ch": 7,
      "note": 48,
      "vel": 66,
      "dur": 80
    },
    {
      "t": 1788,
      "ch": 7,
      "note": 48,
      "vel": 65,
      "dur": 80
    },
    {
      "t": 1788.5,
      "ch": 4,
      "note": 59,
      "vel": 29,
      "dur": 4750
    },
    {
      "t": 1788.5,
      "ch": 3,
      "note": 49,
      "vel": 32,
      "dur": 4800
    },
    {
      "t": 1788.6,
      "ch": 7,
      "note": 48,
      "vel": 61,
      "dur": 80
    },
    {
      "t": 1789.2,
      "ch": 7,
      "note": 48,
      "vel": 85,
      "dur": 80
    },
    {
      "t": 1789.5,
      "ch": 6,
      "note": 71,
      "vel": 15,
      "dur": 664
    },
    {
      "t": 1789.8,
      "ch": 7,
      "note": 48,
      "vel": 64,
      "dur": 80
    },
    {
      "t": 1790.4,
      "ch": 7,
      "note": 48,
      "vel": 72,
      "dur": 80
    },
    {
      "t": 1790.9,
      "ch": 2,
      "note": 49,
      "vel": 51,
      "dur": 18000
    },
    {
      "t": 1790.9,
      "ch": 2,
      "note": 61,
      "vel": 36,
      "dur": 18000
    },
    {
      "t": 1791,
      "ch": 7,
      "note": 48,
      "vel": 81,
      "dur": 80
    },
    {
      "t": 1792.4,
      "ch": 5,
      "note": 59,
      "vel": 1,
      "dur": 1017
    },
    {
      "t": 1792.5,
      "ch": 5,
      "note": 61,
      "vel": 14,
      "dur": 1018
    },
    {
      "t": 1793.3,
      "ch": 4,
      "note": 58,
      "vel": 39,
      "dur": 4750
    },
    {
      "t": 1793.3,
      "ch": 3,
      "note": 35,
      "vel": 27,
      "dur": 4800
    },
    {
      "t": 1793.4,
      "ch": 6,
      "note": 73,
      "vel": 17,
      "dur": 682
    },
    {
      "t": 1796.4,
      "ch": 6,
      "note": 63,
      "vel": 23,
      "dur": 687
    },
    {
      "t": 1797.3,
      "ch": 6,
      "note": 64,
      "vel": 1,
      "dur": 687
    },
    {
      "t": 1798.1,
      "ch": 4,
      "note": 59,
      "vel": 25,
      "dur": 4750
    },
    {
      "t": 1798.1,
      "ch": 3,
      "note": 44,
      "vel": 26,
      "dur": 4800
    },
    {
      "t": 1798.5,
      "ch": 5,
      "note": 58,
      "vel": 22,
      "dur": 1027
    },
    {
      "t": 1800.5,
      "ch": 2,
      "note": 49,
      "vel": 50,
      "dur": 18000
    },
    {
      "t": 1800.5,
      "ch": 2,
      "note": 61,
      "vel": 35,
      "dur": 18000
    },
    {
      "t": 1801.8,
      "ch": 6,
      "note": 64,
      "vel": 4,
      "dur": 675
    },
    {
      "t": 1802.4,
      "ch": 6,
      "note": 61,
      "vel": 1,
      "dur": 673
    },
    {
      "t": 1802.9,
      "ch": 4,
      "note": 59,
      "vel": 27,
      "dur": 4750
    },
    {
      "t": 1802.9,
      "ch": 3,
      "note": 42,
      "vel": 28,
      "dur": 4800
    },
    {
      "t": 1803.8,
      "ch": 5,
      "note": 51,
      "vel": 1,
      "dur": 1003
    },
    {
      "t": 1805.9,
      "ch": 6,
      "note": 54,
      "vel": 7,
      "dur": 664
    },
    {
      "t": 1806,
      "ch": 5,
      "note": 68,
      "vel": 1,
      "dur": 996
    },
    {
      "t": 1806.5,
      "ch": 6,
      "note": 71,
      "vel": 14,
      "dur": 664
    },
    {
      "t": 1806.6,
      "ch": 6,
      "note": 73,
      "vel": 3,
      "dur": 664
    },
    {
      "t": 1807.1,
      "ch": 5,
      "note": 70,
      "vel": 21,
      "dur": 995
    },
    {
      "t": 1807.7,
      "ch": 4,
      "note": 59,
      "vel": 25,
      "dur": 2400
    },
    {
      "t": 1807.7,
      "ch": 4,
      "note": 58,
      "vel": 42,
      "dur": 2350
    },
    {
      "t": 1807.7,
      "ch": 3,
      "note": 37,
      "vel": 29,
      "dur": 4800
    },
    {
      "t": 1808.7,
      "ch": 5,
      "note": 59,
      "vel": 6,
      "dur": 998
    },
    {
      "t": 1809.2,
      "ch": 5,
      "note": 61,
      "vel": 13,
      "dur": 999
    },
    {
      "t": 1809.6,
      "ch": 6,
      "note": 61,
      "vel": 2,
      "dur": 667
    },
    {
      "t": 1810.1,
      "ch": 2,
      "note": 49,
      "vel": 51,
      "dur": 18000
    },
    {
      "t": 1810.5,
      "ch": 6,
      "note": 56,
      "vel": 14,
      "dur": 670
    },
    {
      "t": 1812.5,
      "ch": 4,
      "note": 59,
      "vel": 25,
      "dur": 4750
    },
    {
      "t": 1812.5,
      "ch": 3,
      "note": 40,
      "vel": 27,
      "dur": 4800
    },
    {
      "t": 1813.4,
      "ch": 5,
      "note": 58,
      "vel": 21,
      "dur": 1022
    },
    {
      "t": 1813.6,
      "ch": 6,
      "note": 49,
      "vel": 70,
      "dur": 800
    },
    {
      "t": 1814.5,
      "ch": 6,
      "note": 37,
      "vel": 70,
      "dur": 800
    },
    {
      "t": 1815.3,
      "ch": 6,
      "note": 64,
      "vel": 4,
      "dur": 689
    },
    {
      "t": 1815.4,
      "ch": 6,
      "note": 37,
      "vel": 70,
      "dur": 800
    },
    {
      "t": 1816.3,
      "ch": 6,
      "note": 37,
      "vel": 70,
      "dur": 800
    },
    {
      "t": 1817.2,
      "ch": 6,
      "note": 37,
      "vel": 70,
      "dur": 800
    },
    {
      "t": 1817.3,
      "ch": 4,
      "note": 60,
      "vel": 20,
      "dur": 2400
    },
    {
      "t": 1817.3,
      "ch": 4,
      "note": 59,
      "vel": 21,
      "dur": 2350
    },
    {
      "t": 1817.3,
      "ch": 3,
      "note": 49,
      "vel": 24,
      "dur": 4800
    },
    {
      "t": 1818.8,
      "ch": 6,
      "note": 61,
      "vel": 2,
      "dur": 695
    },
    {
      "t": 1819.7,
      "ch": 2,
      "note": 49,
      "vel": 49,
      "dur": 18000
    },
    {
      "t": 1819.7,
      "ch": 2,
      "note": 61,
      "vel": 34,
      "dur": 18000
    },
    {
      "t": 1822.1,
      "ch": 4,
      "note": 59,
      "vel": 20,
      "dur": 2400
    },
    {
      "t": 1822.1,
      "ch": 4,
      "note": 58,
      "vel": 37,
      "dur": 2350
    },
    {
      "t": 1822.1,
      "ch": 3,
      "note": 35,
      "vel": 25,
      "dur": 4800
    },
    {
      "t": 1822.7,
      "ch": 5,
      "note": 51,
      "vel": 16,
      "dur": 1031
    },
    {
      "t": 1823.7,
      "ch": 6,
      "note": 54,
      "vel": 1,
      "dur": 683
    },
    {
      "t": 1825.5,
      "ch": 6,
      "note": 71,
      "vel": 3,
      "dur": 676
    },
    {
      "t": 1825.8,
      "ch": 5,
      "note": 56,
      "vel": 23,
      "dur": 1012
    },
    {
      "t": 1829.3,
      "ch": 2,
      "note": 49,
      "vel": 0,
      "dur": 0
    },
    {
      "t": 1829.3,
      "ch": 2,
      "note": 61,
      "vel": 0,
      "dur": 0
    },
    {
      "t": 1829.3,
      "ch": 2,
      "note": 54,
      "vel": 51,
      "dur": 18000
    },
    {
      "t": 1829.3,
      "ch": 2,
      "note": 66,
      "vel": 36,
      "dur": 18000
    },
    {
      "t": 1829.7,
      "ch": 6,
      "note": 59,
      "vel": 1,
      "dur": 665
    },
    {
      "t": 1830,
      "ch": 5,
      "note": 63,
      "vel": 32,
      "dur": 997
    },
    {
      "t": 1830.6,
      "ch": 5,
      "note": 73,
      "vel": 6,
      "dur": 997
    },
    {
      "t": 1831.5,
      "ch": 6,
      "note": 66,
      "vel": 1,
      "dur": 666
    },
    {
      "t": 1831.8,
      "ch": 6,
      "note": 73,
      "vel": 7,
      "dur": 666
    },
    {
      "t": 1832.9,
      "ch": 5,
      "note": 56,
      "vel": 5,
      "dur": 1003
    },
    {
      "t": 1836.5,
      "ch": 4,
      "note": 59,
      "vel": 24,
      "dur": 4750
    },
    {
      "t": 1836.5,
      "ch": 3,
      "note": 44,
      "vel": 26,
      "dur": 4800
    },
    {
      "t": 1837.1,
      "ch": 5,
      "note": 61,
      "vel": 16,
      "dur": 1027
    },
    {
      "t": 1837.5,
      "ch": 5,
      "note": 66,
      "vel": 19,
      "dur": 1029
    },
    {
      "t": 1837.8,
      "ch": 5,
      "note": 56,
      "vel": 4,
      "dur": 1031
    },
    {
      "t": 1838.3,
      "ch": 5,
      "note": 63,
      "vel": 17,
      "dur": 1033
    },
    {
      "t": 1838.9,
      "ch": 2,
      "note": 54,
      "vel": 0,
      "dur": 0
    },
    {
      "t": 1838.9,
      "ch": 2,
      "note": 66,
      "vel": 0,
      "dur": 0
    },
    {
      "t": 1838.9,
      "ch": 2,
      "note": 49,
      "vel": 49,
      "dur": 18000
    },
    {
      "t": 1840.2,
      "ch": 6,
      "note": 59,
      "vel": 8,
      "dur": 694
    },
    {
      "t": 1841.3,
      "ch": 4,
      "note": 58,
      "vel": 36,
      "dur": 4750
    },
    {
      "t": 1841.3,
      "ch": 3,
      "note": 44,
      "vel": 24,
      "dur": 4800
    },
    {
      "t": 1842.8,
      "ch": 5,
      "note": 73,
      "vel": 15,
      "dur": 1032
    },
    {
      "t": 1843.1,
      "ch": 6,
      "note": 64,
      "vel": 6,
      "dur": 686
    },
    {
      "t": 1843.4,
      "ch": 6,
      "note": 68,
      "vel": 2,
      "dur": 683
    },
    {
      "t": 1844,
      "ch": 6,
      "note": 59,
      "vel": 1,
      "dur": 678
    },
    {
      "t": 1844.4,
      "ch": 7,
      "note": 48,
      "vel": 74,
      "dur": 80
    },
    {
      "t": 1845,
      "ch": 7,
      "note": 48,
      "vel": 71,
      "dur": 80
    },
    {
      "t": 1845,
      "ch": 5,
      "note": 56,
      "vel": 9,
      "dur": 997
    },
    {
      "t": 1845.2,
      "ch": 5,
      "note": 61,
      "vel": 8,
      "dur": 994
    },
    {
      "t": 1845.6,
      "ch": 7,
      "note": 48,
      "vel": 73,
      "dur": 80
    },
    {
      "t": 1845.8,
      "ch": 7,
      "note": 45,
      "vel": 66,
      "dur": 80
    },
    {
      "t": 1845.8,
      "ch": 6,
      "note": 66,
      "vel": 15,
      "dur": 654
    },
    {
      "t": 1845.8,
      "ch": 5,
      "note": 66,
      "vel": 4,
      "dur": 981
    },
    {
      "t": 1846.1,
      "ch": 4,
      "note": 59,
      "vel": 26,
      "dur": 2400
    },
    {
      "t": 1846.1,
      "ch": 4,
      "note": 58,
      "vel": 43,
      "dur": 2350
    },
    {
      "t": 1846.1,
      "ch": 3,
      "note": 44,
      "vel": 31,
      "dur": 4800
    },
    {
      "t": 1846.2,
      "ch": 0,
      "note": 36,
      "vel": 125,
      "dur": 55
    },
    {
      "t": 1846.2,
      "ch": 7,
      "note": 48,
      "vel": 80,
      "dur": 80
    },
    {
      "t": 1846.2,
      "ch": 5,
      "note": 56,
      "vel": 26,
      "dur": 970
    },
    {
      "t": 1846.5,
      "ch": 7,
      "note": 45,
      "vel": 59,
      "dur": 80
    },
    {
      "t": 1846.6,
      "ch": 7,
      "note": 36,
      "vel": 70,
      "dur": 80
    },
    {
      "t": 1846.7,
      "ch": 6,
      "note": 59,
      "vel": 11,
      "dur": 400
    },
    {
      "t": 1846.8,
      "ch": 7,
      "note": 48,
      "vel": 84,
      "dur": 80
    },
    {
      "t": 1846.8,
      "ch": 7,
      "note": 36,
      "vel": 69,
      "dur": 80
    },
    {
      "t": 1847.4,
      "ch": 7,
      "note": 48,
      "vel": 68,
      "dur": 80
    },
    {
      "t": 1847.4,
      "ch": 7,
      "note": 45,
      "vel": 69,
      "dur": 80
    },
    {
      "t": 1847.4,
      "ch": 7,
      "note": 36,
      "vel": 68,
      "dur": 80
    },
    {
      "t": 1847.4,
      "ch": 6,
      "note": 59,
      "vel": 9,
      "dur": 625
    },
    {
      "t": 1847.7,
      "ch": 7,
      "note": 36,
      "vel": 66,
      "dur": 80
    },
    {
      "t": 1848,
      "ch": 7,
      "note": 48,
      "vel": 60,
      "dur": 80
    },
    {
      "t": 1848,
      "ch": 7,
      "note": 36,
      "vel": 74,
      "dur": 80
    },
    {
      "t": 1848.2,
      "ch": 7,
      "note": 45,
      "vel": 53,
      "dur": 80
    },
    {
      "t": 1848.2,
      "ch": 1,
      "note": 36,
      "vel": 84,
      "dur": 25
    },
    {
      "t": 1848.2,
      "ch": 1,
      "note": 38,
      "vel": 63,
      "dur": 25
    },
    {
      "t": 1848.2,
      "ch": 1,
      "note": 40,
      "vel": 55,
      "dur": 25
    },
    {
      "t": 1848.2,
      "ch": 1,
      "note": 42,
      "vel": 67,
      "dur": 25
    },
    {
      "t": 1848.2,
      "ch": 1,
      "note": 36,
      "vel": 80,
      "dur": 25
    },
    {
      "t": 1848.2,
      "ch": 1,
      "note": 38,
      "vel": 93,
      "dur": 25
    },
    {
      "t": 1848.2,
      "ch": 1,
      "note": 40,
      "vel": 84,
      "dur": 25
    },
    {
      "t": 1848.2,
      "ch": 1,
      "note": 42,
      "vel": 99,
      "dur": 25
    },
    {
      "t": 1848.2,
      "ch": 1,
      "note": 36,
      "vel": 88,
      "dur": 25
    },
    {
      "t": 1848.2,
      "ch": 1,
      "note": 38,
      "vel": 73,
      "dur": 25
    },
    {
      "t": 1848.2,
      "ch": 1,
      "note": 40,
      "vel": 66,
      "dur": 25
    },
    {
      "t": 1848.2,
      "ch": 1,
      "note": 42,
      "vel": 71,
      "dur": 25
    },
    {
      "t": 1848.2,
      "ch": 1,
      "note": 36,
      "vel": 52,
      "dur": 25
    },
    {
      "t": 1848.2,
      "ch": 1,
      "note": 38,
      "vel": 54,
      "dur": 25
    },
    {
      "t": 1848.2,
      "ch": 1,
      "note": 40,
      "vel": 83,
      "dur": 25
    },
    {
      "t": 1848.2,
      "ch": 1,
      "note": 42,
      "vel": 83,
      "dur": 25
    },
    {
      "t": 1848.2,
      "ch": 1,
      "note": 36,
      "vel": 66,
      "dur": 25
    },
    {
      "t": 1848.2,
      "ch": 1,
      "note": 38,
      "vel": 86,
      "dur": 25
    },
    {
      "t": 1848.2,
      "ch": 1,
      "note": 40,
      "vel": 95,
      "dur": 25
    },
    {
      "t": 1848.2,
      "ch": 1,
      "note": 42,
      "vel": 85,
      "dur": 25
    },
    {
      "t": 1848.2,
      "ch": 1,
      "note": 36,
      "vel": 60,
      "dur": 25
    },
    {
      "t": 1848.2,
      "ch": 1,
      "note": 38,
      "vel": 81,
      "dur": 25
    },
    {
      "t": 1848.2,
      "ch": 1,
      "note": 40,
      "vel": 78,
      "dur": 25
    },
    {
      "t": 1848.2,
      "ch": 1,
      "note": 42,
      "vel": 91,
      "dur": 25
    },
    {
      "t": 1848.2,
      "ch": 1,
      "note": 36,
      "vel": 78,
      "dur": 25
    },
    {
      "t": 1848.2,
      "ch": 1,
      "note": 38,
      "vel": 100,
      "dur": 25
    },
    {
      "t": 1848.2,
      "ch": 1,
      "note": 40,
      "vel": 91,
      "dur": 25
    },
    {
      "t": 1848.2,
      "ch": 1,
      "note": 42,
      "vel": 73,
      "dur": 25
    },
    {
      "t": 1848.2,
      "ch": 1,
      "note": 36,
      "vel": 83,
      "dur": 25
    },
    {
      "t": 1848.2,
      "ch": 1,
      "note": 38,
      "vel": 59,
      "dur": 25
    },
    {
      "t": 1848.2,
      "ch": 1,
      "note": 40,
      "vel": 57,
      "dur": 25
    },
    {
      "t": 1848.2,
      "ch": 1,
      "note": 42,
      "vel": 65,
      "dur": 25
    },
    {
      "t": 1848.2,
      "ch": 1,
      "note": 36,
      "vel": 68,
      "dur": 25
    },
    {
      "t": 1848.2,
      "ch": 1,
      "note": 38,
      "vel": 85,
      "dur": 25
    },
    {
      "t": 1848.2,
      "ch": 1,
      "note": 40,
      "vel": 67,
      "dur": 25
    },
    {
      "t": 1848.2,
      "ch": 1,
      "note": 42,
      "vel": 72,
      "dur": 25
    },
    {
      "t": 1848.2,
      "ch": 1,
      "note": 36,
      "vel": 86,
      "dur": 25
    },
    {
      "t": 1848.2,
      "ch": 1,
      "note": 38,
      "vel": 46,
      "dur": 25
    },
    {
      "t": 1848.2,
      "ch": 1,
      "note": 40,
      "vel": 63,
      "dur": 25
    },
    {
      "t": 1848.2,
      "ch": 1,
      "note": 42,
      "vel": 64,
      "dur": 25
    },
    {
      "t": 1848.2,
      "ch": 1,
      "note": 36,
      "vel": 53,
      "dur": 25
    },
    {
      "t": 1848.2,
      "ch": 1,
      "note": 38,
      "vel": 79,
      "dur": 25
    },
    {
      "t": 1848.2,
      "ch": 1,
      "note": 40,
      "vel": 88,
      "dur": 25
    },
    {
      "t": 1848.2,
      "ch": 1,
      "note": 42,
      "vel": 94,
      "dur": 25
    },
    {
      "t": 1848.2,
      "ch": 1,
      "note": 36,
      "vel": 99,
      "dur": 25
    },
    {
      "t": 1848.2,
      "ch": 1,
      "note": 38,
      "vel": 66,
      "dur": 25
    },
    {
      "t": 1848.2,
      "ch": 1,
      "note": 40,
      "vel": 86,
      "dur": 25
    },
    {
      "t": 1848.2,
      "ch": 1,
      "note": 42,
      "vel": 89,
      "dur": 25
    },
    {
      "t": 1848.2,
      "ch": 1,
      "note": 36,
      "vel": 86,
      "dur": 25
    },
    {
      "t": 1848.2,
      "ch": 1,
      "note": 38,
      "vel": 83,
      "dur": 25
    },
    {
      "t": 1848.2,
      "ch": 1,
      "note": 40,
      "vel": 90,
      "dur": 25
    },
    {
      "t": 1848.2,
      "ch": 1,
      "note": 42,
      "vel": 80,
      "dur": 25
    },
    {
      "t": 1848.2,
      "ch": 1,
      "note": 36,
      "vel": 55,
      "dur": 25
    },
    {
      "t": 1848.2,
      "ch": 1,
      "note": 38,
      "vel": 83,
      "dur": 25
    },
    {
      "t": 1848.2,
      "ch": 1,
      "note": 40,
      "vel": 48,
      "dur": 25
    },
    {
      "t": 1848.2,
      "ch": 1,
      "note": 42,
      "vel": 69,
      "dur": 25
    },
    {
      "t": 1848.2,
      "ch": 1,
      "note": 36,
      "vel": 65,
      "dur": 25
    },
    {
      "t": 1848.2,
      "ch": 1,
      "note": 38,
      "vel": 72,
      "dur": 25
    },
    {
      "t": 1848.2,
      "ch": 1,
      "note": 40,
      "vel": 75,
      "dur": 25
    },
    {
      "t": 1848.2,
      "ch": 1,
      "note": 42,
      "vel": 65,
      "dur": 25
    },
    {
      "t": 1848.2,
      "ch": 1,
      "note": 36,
      "vel": 80,
      "dur": 25
    },
    {
      "t": 1848.2,
      "ch": 1,
      "note": 38,
      "vel": 53,
      "dur": 25
    },
    {
      "t": 1848.2,
      "ch": 1,
      "note": 40,
      "vel": 83,
      "dur": 25
    },
    {
      "t": 1848.2,
      "ch": 1,
      "note": 42,
      "vel": 74,
      "dur": 25
    },
    {
      "t": 1848.2,
      "ch": 1,
      "note": 36,
      "vel": 69,
      "dur": 25
    },
    {
      "t": 1848.2,
      "ch": 1,
      "note": 38,
      "vel": 87,
      "dur": 25
    },
    {
      "t": 1848.2,
      "ch": 1,
      "note": 40,
      "vel": 89,
      "dur": 25
    },
    {
      "t": 1848.2,
      "ch": 1,
      "note": 42,
      "vel": 71,
      "dur": 25
    },
    {
      "t": 1848.2,
      "ch": 1,
      "note": 36,
      "vel": 67,
      "dur": 25
    },
    {
      "t": 1848.2,
      "ch": 1,
      "note": 38,
      "vel": 61,
      "dur": 25
    },
    {
      "t": 1848.2,
      "ch": 1,
      "note": 40,
      "vel": 62,
      "dur": 25
    },
    {
      "t": 1848.2,
      "ch": 1,
      "note": 42,
      "vel": 77,
      "dur": 25
    },
    {
      "t": 1848.2,
      "ch": 1,
      "note": 36,
      "vel": 71,
      "dur": 25
    },
    {
      "t": 1848.2,
      "ch": 1,
      "note": 38,
      "vel": 75,
      "dur": 25
    },
    {
      "t": 1848.2,
      "ch": 1,
      "note": 40,
      "vel": 82,
      "dur": 25
    },
    {
      "t": 1848.2,
      "ch": 1,
      "note": 42,
      "vel": 78,
      "dur": 25
    },
    {
      "t": 1848.2,
      "ch": 1,
      "note": 36,
      "vel": 48,
      "dur": 25
    },
    {
      "t": 1848.2,
      "ch": 1,
      "note": 38,
      "vel": 84,
      "dur": 25
    },
    {
      "t": 1848.2,
      "ch": 1,
      "note": 40,
      "vel": 76,
      "dur": 25
    },
    {
      "t": 1848.2,
      "ch": 1,
      "note": 42,
      "vel": 89,
      "dur": 25
    },
    {
      "t": 1848.2,
      "ch": 1,
      "note": 36,
      "vel": 75,
      "dur": 25
    },
    {
      "t": 1848.2,
      "ch": 1,
      "note": 38,
      "vel": 72,
      "dur": 25
    },
    {
      "t": 1848.2,
      "ch": 1,
      "note": 40,
      "vel": 85,
      "dur": 25
    },
    {
      "t": 1848.2,
      "ch": 1,
      "note": 42,
      "vel": 68,
      "dur": 25
    },
    {
      "t": 1848.2,
      "ch": 1,
      "note": 36,
      "vel": 92,
      "dur": 25
    },
    {
      "t": 1848.2,
      "ch": 1,
      "note": 38,
      "vel": 93,
      "dur": 25
    },
    {
      "t": 1848.2,
      "ch": 1,
      "note": 40,
      "vel": 54,
      "dur": 25
    },
    {
      "t": 1848.2,
      "ch": 1,
      "note": 42,
      "vel": 68,
      "dur": 25
    },
    {
      "t": 1848.2,
      "ch": 1,
      "note": 36,
      "vel": 99,
      "dur": 25
    },
    {
      "t": 1848.2,
      "ch": 1,
      "note": 38,
      "vel": 48,
      "dur": 25
    },
    {
      "t": 1848.2,
      "ch": 1,
      "note": 40,
      "vel": 88,
      "dur": 25
    },
    {
      "t": 1848.2,
      "ch": 1,
      "note": 42,
      "vel": 73,
      "dur": 25
    },
    {
      "t": 1848.2,
      "ch": 1,
      "note": 36,
      "vel": 80,
      "dur": 25
    },
    {
      "t": 1848.2,
      "ch": 1,
      "note": 38,
      "vel": 70,
      "dur": 25
    },
    {
      "t": 1848.2,
      "ch": 1,
      "note": 40,
      "vel": 69,
      "dur": 25
    },
    {
      "t": 1848.2,
      "ch": 1,
      "note": 42,
      "vel": 84,
      "dur": 25
    },
    {
      "t": 1848.2,
      "ch": 1,
      "note": 36,
      "vel": 88,
      "dur": 25
    },
    {
      "t": 1848.2,
      "ch": 1,
      "note": 38,
      "vel": 84,
      "dur": 25
    },
    {
      "t": 1848.2,
      "ch": 1,
      "note": 40,
      "vel": 58,
      "dur": 25
    },
    {
      "t": 1848.2,
      "ch": 1,
      "note": 42,
      "vel": 79,
      "dur": 25
    },
    {
      "t": 1848.2,
      "ch": 1,
      "note": 36,
      "vel": 83,
      "dur": 25
    },
    {
      "t": 1848.2,
      "ch": 1,
      "note": 38,
      "vel": 93,
      "dur": 25
    },
    {
      "t": 1848.2,
      "ch": 1,
      "note": 40,
      "vel": 73,
      "dur": 25
    },
    {
      "t": 1848.2,
      "ch": 1,
      "note": 42,
      "vel": 58,
      "dur": 25
    },
    {
      "t": 1848.2,
      "ch": 1,
      "note": 36,
      "vel": 82,
      "dur": 25
    },
    {
      "t": 1848.2,
      "ch": 1,
      "note": 38,
      "vel": 79,
      "dur": 25
    },
    {
      "t": 1848.2,
      "ch": 1,
      "note": 40,
      "vel": 85,
      "dur": 25
    },
    {
      "t": 1848.2,
      "ch": 1,
      "note": 42,
      "vel": 54,
      "dur": 25
    },
    {
      "t": 1848.2,
      "ch": 1,
      "note": 36,
      "vel": 73,
      "dur": 25
    },
    {
      "t": 1848.2,
      "ch": 1,
      "note": 38,
      "vel": 81,
      "dur": 25
    },
    {
      "t": 1848.2,
      "ch": 1,
      "note": 40,
      "vel": 62,
      "dur": 25
    },
    {
      "t": 1848.2,
      "ch": 1,
      "note": 42,
      "vel": 85,
      "dur": 25
    },
    {
      "t": 1848.2,
      "ch": 1,
      "note": 36,
      "vel": 64,
      "dur": 25
    },
    {
      "t": 1848.2,
      "ch": 1,
      "note": 38,
      "vel": 87,
      "dur": 25
    },
    {
      "t": 1848.2,
      "ch": 1,
      "note": 40,
      "vel": 77,
      "dur": 25
    },
    {
      "t": 1848.2,
      "ch": 1,
      "note": 42,
      "vel": 95,
      "dur": 25
    },
    {
      "t": 1848.2,
      "ch": 1,
      "note": 36,
      "vel": 79,
      "dur": 25
    },
    {
      "t": 1848.2,
      "ch": 1,
      "note": 38,
      "vel": 91,
      "dur": 25
    },
    {
      "t": 1848.2,
      "ch": 1,
      "note": 40,
      "vel": 65,
      "dur": 25
    },
    {
      "t": 1848.2,
      "ch": 1,
      "note": 42,
      "vel": 87,
      "dur": 25
    },
    {
      "t": 1848.2,
      "ch": 1,
      "note": 36,
      "vel": 48,
      "dur": 25
    },
    {
      "t": 1848.2,
      "ch": 1,
      "note": 38,
      "vel": 77,
      "dur": 25
    },
    {
      "t": 1848.2,
      "ch": 1,
      "note": 40,
      "vel": 70,
      "dur": 25
    },
    {
      "t": 1848.2,
      "ch": 1,
      "note": 42,
      "vel": 76,
      "dur": 25
    },
    {
      "t": 1848.2,
      "ch": 1,
      "note": 36,
      "vel": 68,
      "dur": 25
    },
    {
      "t": 1848.2,
      "ch": 1,
      "note": 38,
      "vel": 64,
      "dur": 25
    },
    {
      "t": 1848.2,
      "ch": 1,
      "note": 40,
      "vel": 66,
      "dur": 25
    },
    {
      "t": 1848.2,
      "ch": 1,
      "note": 42,
      "vel": 79,
      "dur": 25
    },
    {
      "t": 1848.2,
      "ch": 1,
      "note": 36,
      "vel": 75,
      "dur": 25
    },
    {
      "t": 1848.2,
      "ch": 1,
      "note": 38,
      "vel": 78,
      "dur": 25
    },
    {
      "t": 1848.2,
      "ch": 1,
      "note": 40,
      "vel": 84,
      "dur": 25
    },
    {
      "t": 1848.2,
      "ch": 1,
      "note": 42,
      "vel": 85,
      "dur": 25
    },
    {
      "t": 1848.2,
      "ch": 1,
      "note": 36,
      "vel": 69,
      "dur": 25
    },
    {
      "t": 1848.2,
      "ch": 1,
      "note": 38,
      "vel": 83,
      "dur": 25
    },
    {
      "t": 1848.2,
      "ch": 1,
      "note": 40,
      "vel": 81,
      "dur": 25
    },
    {
      "t": 1848.2,
      "ch": 1,
      "note": 42,
      "vel": 84,
      "dur": 25
    },
    {
      "t": 1848.2,
      "ch": 1,
      "note": 36,
      "vel": 82,
      "dur": 25
    },
    {
      "t": 1848.2,
      "ch": 1,
      "note": 38,
      "vel": 75,
      "dur": 25
    },
    {
      "t": 1848.2,
      "ch": 1,
      "note": 40,
      "vel": 53,
      "dur": 25
    },
    {
      "t": 1848.2,
      "ch": 1,
      "note": 42,
      "vel": 87,
      "dur": 25
    },
    {
      "t": 1848.2,
      "ch": 1,
      "note": 36,
      "vel": 80,
      "dur": 25
    },
    {
      "t": 1848.2,
      "ch": 1,
      "note": 38,
      "vel": 92,
      "dur": 25
    },
    {
      "t": 1848.2,
      "ch": 1,
      "note": 40,
      "vel": 73,
      "dur": 25
    },
    {
      "t": 1848.2,
      "ch": 1,
      "note": 42,
      "vel": 97,
      "dur": 25
    },
    {
      "t": 1848.2,
      "ch": 1,
      "note": 36,
      "vel": 61,
      "dur": 25
    },
    {
      "t": 1848.2,
      "ch": 1,
      "note": 38,
      "vel": 63,
      "dur": 25
    },
    {
      "t": 1848.2,
      "ch": 1,
      "note": 40,
      "vel": 63,
      "dur": 25
    },
    {
      "t": 1848.2,
      "ch": 1,
      "note": 42,
      "vel": 61,
      "dur": 25
    },
    {
      "t": 1848.2,
      "ch": 1,
      "note": 36,
      "vel": 72,
      "dur": 25
    },
    {
      "t": 1848.2,
      "ch": 1,
      "note": 38,
      "vel": 85,
      "dur": 25
    },
    {
      "t": 1848.2,
      "ch": 1,
      "note": 40,
      "vel": 72,
      "dur": 25
    },
    {
      "t": 1848.2,
      "ch": 1,
      "note": 42,
      "vel": 73,
      "dur": 25
    },
    {
      "t": 1848.2,
      "ch": 1,
      "note": 36,
      "vel": 84,
      "dur": 25
    },
    {
      "t": 1848.2,
      "ch": 1,
      "note": 38,
      "vel": 55,
      "dur": 25
    },
    {
      "t": 1848.2,
      "ch": 1,
      "note": 40,
      "vel": 64,
      "dur": 25
    },
    {
      "t": 1848.2,
      "ch": 1,
      "note": 42,
      "vel": 89,
      "dur": 25
    },
    {
      "t": 1848.2,
      "ch": 1,
      "note": 36,
      "vel": 63,
      "dur": 25
    },
    {
      "t": 1848.2,
      "ch": 1,
      "note": 38,
      "vel": 89,
      "dur": 25
    },
    {
      "t": 1848.2,
      "ch": 1,
      "note": 40,
      "vel": 83,
      "dur": 25
    },
    {
      "t": 1848.2,
      "ch": 1,
      "note": 42,
      "vel": 69,
      "dur": 25
    },
    {
      "t": 1848.2,
      "ch": 1,
      "note": 36,
      "vel": 76,
      "dur": 25
    },
    {
      "t": 1848.2,
      "ch": 1,
      "note": 38,
      "vel": 63,
      "dur": 25
    },
    {
      "t": 1848.2,
      "ch": 1,
      "note": 40,
      "vel": 96,
      "dur": 25
    },
    {
      "t": 1848.2,
      "ch": 1,
      "note": 42,
      "vel": 79,
      "dur": 25
    },
    {
      "t": 1848.2,
      "ch": 1,
      "note": 36,
      "vel": 66,
      "dur": 25
    },
    {
      "t": 1848.2,
      "ch": 1,
      "note": 38,
      "vel": 75,
      "dur": 25
    },
    {
      "t": 1848.2,
      "ch": 1,
      "note": 40,
      "vel": 80,
      "dur": 25
    },
    {
      "t": 1848.2,
      "ch": 1,
      "note": 42,
      "vel": 62,
      "dur": 25
    },
    {
      "t": 1848.2,
      "ch": 1,
      "note": 36,
      "vel": 77,
      "dur": 25
    },
    {
      "t": 1848.2,
      "ch": 1,
      "note": 38,
      "vel": 85,
      "dur": 25
    },
    {
      "t": 1848.2,
      "ch": 1,
      "note": 40,
      "vel": 81,
      "dur": 25
    },
    {
      "t": 1848.2,
      "ch": 1,
      "note": 42,
      "vel": 77,
      "dur": 25
    },
    {
      "t": 1848.2,
      "ch": 1,
      "note": 36,
      "vel": 65,
      "dur": 25
    },
    {
      "t": 1848.2,
      "ch": 1,
      "note": 38,
      "vel": 60,
      "dur": 25
    },
    {
      "t": 1848.2,
      "ch": 1,
      "note": 40,
      "vel": 70,
      "dur": 25
    },
    {
      "t": 1848.2,
      "ch": 1,
      "note": 42,
      "vel": 90,
      "dur": 25
    },
    {
      "t": 1848.2,
      "ch": 1,
      "note": 36,
      "vel": 80,
      "dur": 25
    },
    {
      "t": 1848.2,
      "ch": 1,
      "note": 38,
      "vel": 62,
      "dur": 25
    },
    {
      "t": 1848.2,
      "ch": 1,
      "note": 40,
      "vel": 76,
      "dur": 25
    },
    {
      "t": 1848.2,
      "ch": 1,
      "note": 42,
      "vel": 76,
      "dur": 25
    },
    {
      "t": 1848.2,
      "ch": 1,
      "note": 36,
      "vel": 91,
      "dur": 25
    },
    {
      "t": 1848.2,
      "ch": 1,
      "note": 38,
      "vel": 90,
      "dur": 25
    },
    {
      "t": 1848.2,
      "ch": 1,
      "note": 40,
      "vel": 56,
      "dur": 25
    },
    {
      "t": 1848.2,
      "ch": 1,
      "note": 42,
      "vel": 74,
      "dur": 25
    },
    {
      "t": 1848.2,
      "ch": 1,
      "note": 36,
      "vel": 85,
      "dur": 25
    },
    {
      "t": 1848.2,
      "ch": 1,
      "note": 38,
      "vel": 71,
      "dur": 25
    },
    {
      "t": 1848.2,
      "ch": 1,
      "note": 40,
      "vel": 78,
      "dur": 25
    },
    {
      "t": 1848.2,
      "ch": 1,
      "note": 42,
      "vel": 75,
      "dur": 25
    },
    {
      "t": 1848.2,
      "ch": 1,
      "note": 36,
      "vel": 65,
      "dur": 25
    },
    {
      "t": 1848.2,
      "ch": 1,
      "note": 38,
      "vel": 79,
      "dur": 25
    },
    {
      "t": 1848.2,
      "ch": 1,
      "note": 40,
      "vel": 73,
      "dur": 25
    },
    {
      "t": 1848.2,
      "ch": 1,
      "note": 42,
      "vel": 68,
      "dur": 25
    },
    {
      "t": 1848.2,
      "ch": 1,
      "note": 36,
      "vel": 85,
      "dur": 25
    },
    {
      "t": 1848.2,
      "ch": 1,
      "note": 38,
      "vel": 62,
      "dur": 25
    },
    {
      "t": 1848.2,
      "ch": 1,
      "note": 40,
      "vel": 64,
      "dur": 25
    },
    {
      "t": 1848.2,
      "ch": 1,
      "note": 42,
      "vel": 78,
      "dur": 25
    },
    {
      "t": 1848.2,
      "ch": 1,
      "note": 36,
      "vel": 76,
      "dur": 25
    },
    {
      "t": 1848.2,
      "ch": 1,
      "note": 38,
      "vel": 79,
      "dur": 25
    },
    {
      "t": 1848.2,
      "ch": 1,
      "note": 40,
      "vel": 82,
      "dur": 25
    },
    {
      "t": 1848.2,
      "ch": 1,
      "note": 42,
      "vel": 98,
      "dur": 25
    },
    {
      "t": 1848.2,
      "ch": 1,
      "note": 36,
      "vel": 79,
      "dur": 25
    },
    {
      "t": 1848.2,
      "ch": 1,
      "note": 38,
      "vel": 73,
      "dur": 25
    },
    {
      "t": 1848.2,
      "ch": 1,
      "note": 40,
      "vel": 73,
      "dur": 25
    },
    {
      "t": 1848.2,
      "ch": 1,
      "note": 42,
      "vel": 72,
      "dur": 25
    },
    {
      "t": 1848.2,
      "ch": 1,
      "note": 36,
      "vel": 72,
      "dur": 25
    },
    {
      "t": 1848.2,
      "ch": 1,
      "note": 38,
      "vel": 78,
      "dur": 25
    },
    {
      "t": 1848.2,
      "ch": 1,
      "note": 40,
      "vel": 49,
      "dur": 25
    },
    {
      "t": 1848.2,
      "ch": 1,
      "note": 42,
      "vel": 87,
      "dur": 25
    },
    {
      "t": 1848.2,
      "ch": 1,
      "note": 36,
      "vel": 68,
      "dur": 25
    },
    {
      "t": 1848.2,
      "ch": 1,
      "note": 38,
      "vel": 80,
      "dur": 25
    },
    {
      "t": 1848.2,
      "ch": 1,
      "note": 40,
      "vel": 97,
      "dur": 25
    },
    {
      "t": 1848.2,
      "ch": 1,
      "note": 42,
      "vel": 61,
      "dur": 25
    },
    {
      "t": 1848.2,
      "ch": 1,
      "note": 36,
      "vel": 82,
      "dur": 25
    },
    {
      "t": 1848.2,
      "ch": 1,
      "note": 38,
      "vel": 64,
      "dur": 25
    },
    {
      "t": 1848.2,
      "ch": 1,
      "note": 40,
      "vel": 87,
      "dur": 25
    },
    {
      "t": 1848.2,
      "ch": 1,
      "note": 42,
      "vel": 70,
      "dur": 25
    },
    {
      "t": 1848.2,
      "ch": 1,
      "note": 36,
      "vel": 69,
      "dur": 25
    },
    {
      "t": 1848.2,
      "ch": 1,
      "note": 38,
      "vel": 81,
      "dur": 25
    },
    {
      "t": 1848.2,
      "ch": 1,
      "note": 40,
      "vel": 64,
      "dur": 25
    },
    {
      "t": 1848.2,
      "ch": 1,
      "note": 42,
      "vel": 62,
      "dur": 25
    },
    {
      "t": 1848.2,
      "ch": 1,
      "note": 36,
      "vel": 73,
      "dur": 25
    },
    {
      "t": 1848.2,
      "ch": 1,
      "note": 38,
      "vel": 86,
      "dur": 25
    },
    {
      "t": 1848.2,
      "ch": 1,
      "note": 40,
      "vel": 78,
      "dur": 25
    },
    {
      "t": 1848.2,
      "ch": 1,
      "note": 42,
      "vel": 65,
      "dur": 25
    },
    {
      "t": 1848.2,
      "ch": 1,
      "note": 36,
      "vel": 74,
      "dur": 25
    },
    {
      "t": 1848.2,
      "ch": 1,
      "note": 38,
      "vel": 78,
      "dur": 25
    },
    {
      "t": 1848.2,
      "ch": 1,
      "note": 40,
      "vel": 79,
      "dur": 25
    },
    {
      "t": 1848.2,
      "ch": 1,
      "note": 42,
      "vel": 77,
      "dur": 25
    },
    {
      "t": 1848.2,
      "ch": 1,
      "note": 36,
      "vel": 76,
      "dur": 25
    },
    {
      "t": 1848.2,
      "ch": 1,
      "note": 38,
      "vel": 69,
      "dur": 25
    },
    {
      "t": 1848.2,
      "ch": 1,
      "note": 40,
      "vel": 67,
      "dur": 25
    },
    {
      "t": 1848.2,
      "ch": 1,
      "note": 42,
      "vel": 90,
      "dur": 25
    },
    {
      "t": 1848.2,
      "ch": 1,
      "note": 36,
      "vel": 82,
      "dur": 25
    },
    {
      "t": 1848.2,
      "ch": 1,
      "note": 38,
      "vel": 85,
      "dur": 25
    },
    {
      "t": 1848.2,
      "ch": 1,
      "note": 40,
      "vel": 67,
      "dur": 25
    },
    {
      "t": 1848.2,
      "ch": 1,
      "note": 42,
      "vel": 67,
      "dur": 25
    },
    {
      "t": 1848.2,
      "ch": 1,
      "note": 36,
      "vel": 80,
      "dur": 25
    },
    {
      "t": 1848.2,
      "ch": 1,
      "note": 38,
      "vel": 86,
      "dur": 25
    },
    {
      "t": 1848.2,
      "ch": 1,
      "note": 40,
      "vel": 79,
      "dur": 25
    },
    {
      "t": 1848.2,
      "ch": 1,
      "note": 42,
      "vel": 65,
      "dur": 25
    },
    {
      "t": 1848.2,
      "ch": 1,
      "note": 36,
      "vel": 85,
      "dur": 25
    },
    {
      "t": 1848.2,
      "ch": 1,
      "note": 38,
      "vel": 50,
      "dur": 25
    },
    {
      "t": 1848.2,
      "ch": 1,
      "note": 40,
      "vel": 76,
      "dur": 25
    },
    {
      "t": 1848.2,
      "ch": 1,
      "note": 42,
      "vel": 69,
      "dur": 25
    },
    {
      "t": 1848.2,
      "ch": 1,
      "note": 36,
      "vel": 81,
      "dur": 25
    },
    {
      "t": 1848.2,
      "ch": 1,
      "note": 38,
      "vel": 68,
      "dur": 25
    },
    {
      "t": 1848.2,
      "ch": 1,
      "note": 40,
      "vel": 84,
      "dur": 25
    },
    {
      "t": 1848.2,
      "ch": 1,
      "note": 42,
      "vel": 86,
      "dur": 25
    },
    {
      "t": 1848.2,
      "ch": 1,
      "note": 36,
      "vel": 86,
      "dur": 25
    },
    {
      "t": 1848.2,
      "ch": 1,
      "note": 38,
      "vel": 63,
      "dur": 25
    },
    {
      "t": 1848.2,
      "ch": 1,
      "note": 40,
      "vel": 81,
      "dur": 25
    },
    {
      "t": 1848.2,
      "ch": 1,
      "note": 42,
      "vel": 58,
      "dur": 25
    },
    {
      "t": 1848.2,
      "ch": 1,
      "note": 36,
      "vel": 65,
      "dur": 25
    },
    {
      "t": 1848.2,
      "ch": 1,
      "note": 38,
      "vel": 74,
      "dur": 25
    },
    {
      "t": 1848.2,
      "ch": 1,
      "note": 40,
      "vel": 61,
      "dur": 25
    },
    {
      "t": 1848.2,
      "ch": 1,
      "note": 42,
      "vel": 69,
      "dur": 25
    },
    {
      "t": 1848.2,
      "ch": 1,
      "note": 36,
      "vel": 97,
      "dur": 25
    },
    {
      "t": 1848.2,
      "ch": 1,
      "note": 38,
      "vel": 92,
      "dur": 25
    },
    {
      "t": 1848.2,
      "ch": 1,
      "note": 40,
      "vel": 54,
      "dur": 25
    },
    {
      "t": 1848.2,
      "ch": 1,
      "note": 42,
      "vel": 53,
      "dur": 25
    },
    {
      "t": 1848.2,
      "ch": 1,
      "note": 36,
      "vel": 89,
      "dur": 25
    },
    {
      "t": 1848.2,
      "ch": 1,
      "note": 38,
      "vel": 85,
      "dur": 25
    },
    {
      "t": 1848.2,
      "ch": 1,
      "note": 40,
      "vel": 48,
      "dur": 25
    },
    {
      "t": 1848.2,
      "ch": 1,
      "note": 42,
      "vel": 64,
      "dur": 25
    },
    {
      "t": 1848.2,
      "ch": 1,
      "note": 36,
      "vel": 64,
      "dur": 25
    },
    {
      "t": 1848.2,
      "ch": 1,
      "note": 38,
      "vel": 58,
      "dur": 25
    },
    {
      "t": 1848.2,
      "ch": 1,
      "note": 40,
      "vel": 96,
      "dur": 25
    },
    {
      "t": 1848.2,
      "ch": 1,
      "note": 42,
      "vel": 93,
      "dur": 25
    },
    {
      "t": 1848.2,
      "ch": 1,
      "note": 36,
      "vel": 69,
      "dur": 25
    },
    {
      "t": 1848.2,
      "ch": 1,
      "note": 38,
      "vel": 80,
      "dur": 25
    },
    {
      "t": 1848.2,
      "ch": 1,
      "note": 40,
      "vel": 64,
      "dur": 25
    },
    {
      "t": 1848.2,
      "ch": 1,
      "note": 42,
      "vel": 61,
      "dur": 25
    },
    {
      "t": 1848.2,
      "ch": 1,
      "note": 36,
      "vel": 80,
      "dur": 25
    },
    {
      "t": 1848.2,
      "ch": 1,
      "note": 38,
      "vel": 81,
      "dur": 25
    },
    {
      "t": 1848.2,
      "ch": 1,
      "note": 40,
      "vel": 82,
      "dur": 25
    },
    {
      "t": 1848.2,
      "ch": 1,
      "note": 42,
      "vel": 53,
      "dur": 25
    },
    {
      "t": 1848.2,
      "ch": 1,
      "note": 36,
      "vel": 75,
      "dur": 25
    },
    {
      "t": 1848.2,
      "ch": 1,
      "note": 38,
      "vel": 69,
      "dur": 25
    },
    {
      "t": 1848.2,
      "ch": 1,
      "note": 40,
      "vel": 63,
      "dur": 25
    },
    {
      "t": 1848.2,
      "ch": 1,
      "note": 42,
      "vel": 70,
      "dur": 25
    },
    {
      "t": 1848.2,
      "ch": 1,
      "note": 36,
      "vel": 74,
      "dur": 25
    },
    {
      "t": 1848.2,
      "ch": 1,
      "note": 38,
      "vel": 71,
      "dur": 25
    },
    {
      "t": 1848.2,
      "ch": 1,
      "note": 40,
      "vel": 68,
      "dur": 25
    },
    {
      "t": 1848.2,
      "ch": 1,
      "note": 42,
      "vel": 57,
      "dur": 25
    },
    {
      "t": 1848.2,
      "ch": 1,
      "note": 36,
      "vel": 106,
      "dur": 25
    },
    {
      "t": 1848.2,
      "ch": 1,
      "note": 38,
      "vel": 71,
      "dur": 25
    },
    {
      "t": 1848.2,
      "ch": 1,
      "note": 40,
      "vel": 55,
      "dur": 25
    },
    {
      "t": 1848.2,
      "ch": 1,
      "note": 42,
      "vel": 97,
      "dur": 25
    },
    {
      "t": 1848.2,
      "ch": 1,
      "note": 36,
      "vel": 77,
      "dur": 25
    },
    {
      "t": 1848.2,
      "ch": 1,
      "note": 38,
      "vel": 82,
      "dur": 25
    },
    {
      "t": 1848.2,
      "ch": 1,
      "note": 40,
      "vel": 77,
      "dur": 25
    },
    {
      "t": 1848.2,
      "ch": 1,
      "note": 42,
      "vel": 58,
      "dur": 25
    },
    {
      "t": 1848.2,
      "ch": 1,
      "note": 36,
      "vel": 64,
      "dur": 25
    },
    {
      "t": 1848.2,
      "ch": 1,
      "note": 38,
      "vel": 81,
      "dur": 25
    },
    {
      "t": 1848.2,
      "ch": 1,
      "note": 40,
      "vel": 67,
      "dur": 25
    },
    {
      "t": 1848.2,
      "ch": 1,
      "note": 42,
      "vel": 59,
      "dur": 25
    },
    {
      "t": 1848.2,
      "ch": 1,
      "note": 36,
      "vel": 65,
      "dur": 25
    },
    {
      "t": 1848.2,
      "ch": 1,
      "note": 38,
      "vel": 83,
      "dur": 25
    },
    {
      "t": 1848.2,
      "ch": 1,
      "note": 40,
      "vel": 76,
      "dur": 25
    },
    {
      "t": 1848.2,
      "ch": 1,
      "note": 42,
      "vel": 76,
      "dur": 25
    },
    {
      "t": 1848.2,
      "ch": 1,
      "note": 36,
      "vel": 61,
      "dur": 25
    },
    {
      "t": 1848.2,
      "ch": 1,
      "note": 38,
      "vel": 100,
      "dur": 25
    },
    {
      "t": 1848.2,
      "ch": 1,
      "note": 40,
      "vel": 63,
      "dur": 25
    },
    {
      "t": 1848.2,
      "ch": 1,
      "note": 42,
      "vel": 67,
      "dur": 25
    },
    {
      "t": 1848.2,
      "ch": 1,
      "note": 36,
      "vel": 76,
      "dur": 25
    },
    {
      "t": 1848.2,
      "ch": 1,
      "note": 38,
      "vel": 69,
      "dur": 25
    },
    {
      "t": 1848.2,
      "ch": 1,
      "note": 40,
      "vel": 65,
      "dur": 25
    },
    {
      "t": 1848.2,
      "ch": 1,
      "note": 42,
      "vel": 91,
      "dur": 25
    },
    {
      "t": 1848.2,
      "ch": 1,
      "note": 36,
      "vel": 93,
      "dur": 25
    },
    {
      "t": 1848.2,
      "ch": 1,
      "note": 38,
      "vel": 58,
      "dur": 25
    },
    {
      "t": 1848.2,
      "ch": 1,
      "note": 40,
      "vel": 61,
      "dur": 25
    },
    {
      "t": 1848.2,
      "ch": 1,
      "note": 42,
      "vel": 72,
      "dur": 25
    },
    {
      "t": 1848.2,
      "ch": 1,
      "note": 36,
      "vel": 96,
      "dur": 25
    },
    {
      "t": 1848.2,
      "ch": 1,
      "note": 38,
      "vel": 87,
      "dur": 25
    },
    {
      "t": 1848.2,
      "ch": 1,
      "note": 40,
      "vel": 82,
      "dur": 25
    },
    {
      "t": 1848.2,
      "ch": 1,
      "note": 42,
      "vel": 64,
      "dur": 25
    },
    {
      "t": 1848.2,
      "ch": 1,
      "note": 36,
      "vel": 71,
      "dur": 25
    },
    {
      "t": 1848.2,
      "ch": 1,
      "note": 38,
      "vel": 75,
      "dur": 25
    },
    {
      "t": 1848.2,
      "ch": 1,
      "note": 40,
      "vel": 81,
      "dur": 25
    },
    {
      "t": 1848.2,
      "ch": 1,
      "note": 42,
      "vel": 79,
      "dur": 25
    },
    {
      "t": 1848.2,
      "ch": 1,
      "note": 36,
      "vel": 81,
      "dur": 25
    },
    {
      "t": 1848.2,
      "ch": 1,
      "note": 38,
      "vel": 60,
      "dur": 25
    },
    {
      "t": 1848.2,
      "ch": 1,
      "note": 40,
      "vel": 80,
      "dur": 25
    },
    {
      "t": 1848.2,
      "ch": 1,
      "note": 42,
      "vel": 78,
      "dur": 25
    },
    {
      "t": 1848.2,
      "ch": 1,
      "note": 36,
      "vel": 73,
      "dur": 25
    },
    {
      "t": 1848.2,
      "ch": 1,
      "note": 38,
      "vel": 60,
      "dur": 25
    },
    {
      "t": 1848.2,
      "ch": 1,
      "note": 40,
      "vel": 67,
      "dur": 25
    },
    {
      "t": 1848.2,
      "ch": 1,
      "note": 42,
      "vel": 65,
      "dur": 25
    },
    {
      "t": 1848.2,
      "ch": 1,
      "note": 36,
      "vel": 84,
      "dur": 25
    },
    {
      "t": 1848.2,
      "ch": 1,
      "note": 38,
      "vel": 56,
      "dur": 25
    },
    {
      "t": 1848.2,
      "ch": 1,
      "note": 40,
      "vel": 81,
      "dur": 25
    },
    {
      "t": 1848.2,
      "ch": 1,
      "note": 42,
      "vel": 82,
      "dur": 25
    },
    {
      "t": 1848.2,
      "ch": 1,
      "note": 36,
      "vel": 74,
      "dur": 25
    },
    {
      "t": 1848.2,
      "ch": 1,
      "note": 38,
      "vel": 97,
      "dur": 25
    },
    {
      "t": 1848.2,
      "ch": 1,
      "note": 40,
      "vel": 74,
      "dur": 25
    },
    {
      "t": 1848.2,
      "ch": 1,
      "note": 42,
      "vel": 57,
      "dur": 25
    },
    {
      "t": 1848.2,
      "ch": 1,
      "note": 36,
      "vel": 53,
      "dur": 25
    },
    {
      "t": 1848.2,
      "ch": 1,
      "note": 38,
      "vel": 68,
      "dur": 25
    },
    {
      "t": 1848.2,
      "ch": 1,
      "note": 40,
      "vel": 80,
      "dur": 25
    },
    {
      "t": 1848.2,
      "ch": 1,
      "note": 42,
      "vel": 94,
      "dur": 25
    },
    {
      "t": 1848.2,
      "ch": 1,
      "note": 36,
      "vel": 58,
      "dur": 25
    },
    {
      "t": 1848.2,
      "ch": 1,
      "note": 38,
      "vel": 58,
      "dur": 25
    },
    {
      "t": 1848.2,
      "ch": 1,
      "note": 40,
      "vel": 85,
      "dur": 25
    },
    {
      "t": 1848.2,
      "ch": 1,
      "note": 42,
      "vel": 59,
      "dur": 25
    },
    {
      "t": 1848.2,
      "ch": 1,
      "note": 36,
      "vel": 55,
      "dur": 25
    },
    {
      "t": 1848.2,
      "ch": 1,
      "note": 38,
      "vel": 75,
      "dur": 25
    },
    {
      "t": 1848.2,
      "ch": 1,
      "note": 40,
      "vel": 60,
      "dur": 25
    },
    {
      "t": 1848.2,
      "ch": 1,
      "note": 42,
      "vel": 63,
      "dur": 25
    },
    {
      "t": 1848.2,
      "ch": 1,
      "note": 36,
      "vel": 86,
      "dur": 25
    },
    {
      "t": 1848.2,
      "ch": 1,
      "note": 38,
      "vel": 60,
      "dur": 25
    },
    {
      "t": 1848.2,
      "ch": 1,
      "note": 40,
      "vel": 77,
      "dur": 25
    },
    {
      "t": 1848.2,
      "ch": 1,
      "note": 42,
      "vel": 53,
      "dur": 25
    },
    {
      "t": 1848.2,
      "ch": 1,
      "note": 36,
      "vel": 71,
      "dur": 25
    },
    {
      "t": 1848.2,
      "ch": 1,
      "note": 38,
      "vel": 76,
      "dur": 25
    },
    {
      "t": 1848.2,
      "ch": 1,
      "note": 40,
      "vel": 63,
      "dur": 25
    },
    {
      "t": 1848.2,
      "ch": 1,
      "note": 42,
      "vel": 64,
      "dur": 25
    },
    {
      "t": 1848.2,
      "ch": 1,
      "note": 36,
      "vel": 70,
      "dur": 25
    },
    {
      "t": 1848.2,
      "ch": 1,
      "note": 38,
      "vel": 82,
      "dur": 25
    },
    {
      "t": 1848.2,
      "ch": 1,
      "note": 40,
      "vel": 70,
      "dur": 25
    },
    {
      "t": 1848.2,
      "ch": 1,
      "note": 42,
      "vel": 56,
      "dur": 25
    },
    {
      "t": 1848.2,
      "ch": 1,
      "note": 36,
      "vel": 59,
      "dur": 25
    },
    {
      "t": 1848.2,
      "ch": 1,
      "note": 38,
      "vel": 69,
      "dur": 25
    },
    {
      "t": 1848.2,
      "ch": 1,
      "note": 40,
      "vel": 74,
      "dur": 25
    },
    {
      "t": 1848.2,
      "ch": 1,
      "note": 42,
      "vel": 80,
      "dur": 25
    },
    {
      "t": 1848.2,
      "ch": 1,
      "note": 36,
      "vel": 79,
      "dur": 25
    },
    {
      "t": 1848.2,
      "ch": 1,
      "note": 38,
      "vel": 52,
      "dur": 25
    },
    {
      "t": 1848.2,
      "ch": 1,
      "note": 40,
      "vel": 71,
      "dur": 25
    },
    {
      "t": 1848.2,
      "ch": 1,
      "note": 42,
      "vel": 83,
      "dur": 25
    },
    {
      "t": 1848.2,
      "ch": 1,
      "note": 36,
      "vel": 62,
      "dur": 25
    },
    {
      "t": 1848.2,
      "ch": 1,
      "note": 38,
      "vel": 101,
      "dur": 25
    },
    {
      "t": 1848.2,
      "ch": 1,
      "note": 40,
      "vel": 81,
      "dur": 25
    },
    {
      "t": 1848.2,
      "ch": 1,
      "note": 42,
      "vel": 87,
      "dur": 25
    },
    {
      "t": 1848.2,
      "ch": 1,
      "note": 36,
      "vel": 80,
      "dur": 25
    },
    {
      "t": 1848.2,
      "ch": 1,
      "note": 38,
      "vel": 67,
      "dur": 25
    },
    {
      "t": 1848.2,
      "ch": 1,
      "note": 40,
      "vel": 84,
      "dur": 25
    },
    {
      "t": 1848.2,
      "ch": 1,
      "note": 42,
      "vel": 85,
      "dur": 25
    },
    {
      "t": 1848.2,
      "ch": 1,
      "note": 36,
      "vel": 80,
      "dur": 25
    },
    {
      "t": 1848.2,
      "ch": 1,
      "note": 38,
      "vel": 88,
      "dur": 25
    },
    {
      "t": 1848.2,
      "ch": 1,
      "note": 40,
      "vel": 75,
      "dur": 25
    },
    {
      "t": 1848.2,
      "ch": 1,
      "note": 42,
      "vel": 95,
      "dur": 25
    },
    {
      "t": 1848.2,
      "ch": 1,
      "note": 36,
      "vel": 71,
      "dur": 25
    },
    {
      "t": 1848.2,
      "ch": 1,
      "note": 38,
      "vel": 60,
      "dur": 25
    },
    {
      "t": 1848.2,
      "ch": 1,
      "note": 40,
      "vel": 54,
      "dur": 25
    },
    {
      "t": 1848.2,
      "ch": 1,
      "note": 42,
      "vel": 58,
      "dur": 25
    },
    {
      "t": 1848.2,
      "ch": 1,
      "note": 36,
      "vel": 60,
      "dur": 25
    },
    {
      "t": 1848.2,
      "ch": 1,
      "note": 38,
      "vel": 54,
      "dur": 25
    },
    {
      "t": 1848.2,
      "ch": 1,
      "note": 40,
      "vel": 61,
      "dur": 25
    },
    {
      "t": 1848.2,
      "ch": 1,
      "note": 42,
      "vel": 85,
      "dur": 25
    },
    {
      "t": 1848.2,
      "ch": 1,
      "note": 36,
      "vel": 60,
      "dur": 25
    },
    {
      "t": 1848.2,
      "ch": 1,
      "note": 38,
      "vel": 93,
      "dur": 25
    },
    {
      "t": 1848.2,
      "ch": 1,
      "note": 40,
      "vel": 65,
      "dur": 25
    },
    {
      "t": 1848.2,
      "ch": 1,
      "note": 42,
      "vel": 66,
      "dur": 25
    },
    {
      "t": 1848.2,
      "ch": 1,
      "note": 36,
      "vel": 71,
      "dur": 25
    },
    {
      "t": 1848.2,
      "ch": 1,
      "note": 38,
      "vel": 65,
      "dur": 25
    },
    {
      "t": 1848.2,
      "ch": 1,
      "note": 40,
      "vel": 68,
      "dur": 25
    },
    {
      "t": 1848.2,
      "ch": 1,
      "note": 42,
      "vel": 76,
      "dur": 25
    },
    {
      "t": 1848.2,
      "ch": 1,
      "note": 36,
      "vel": 64,
      "dur": 25
    },
    {
      "t": 1848.2,
      "ch": 1,
      "note": 38,
      "vel": 77,
      "dur": 25
    },
    {
      "t": 1848.2,
      "ch": 1,
      "note": 40,
      "vel": 82,
      "dur": 25
    },
    {
      "t": 1848.2,
      "ch": 1,
      "note": 42,
      "vel": 87,
      "dur": 25
    },
    {
      "t": 1848.2,
      "ch": 1,
      "note": 36,
      "vel": 54,
      "dur": 25
    },
    {
      "t": 1848.2,
      "ch": 1,
      "note": 38,
      "vel": 88,
      "dur": 25
    },
    {
      "t": 1848.2,
      "ch": 1,
      "note": 40,
      "vel": 70,
      "dur": 25
    },
    {
      "t": 1848.2,
      "ch": 1,
      "note": 42,
      "vel": 91,
      "dur": 25
    },
    {
      "t": 1848.2,
      "ch": 1,
      "note": 36,
      "vel": 90,
      "dur": 25
    },
    {
      "t": 1848.2,
      "ch": 1,
      "note": 38,
      "vel": 85,
      "dur": 25
    },
    {
      "t": 1848.2,
      "ch": 1,
      "note": 40,
      "vel": 86,
      "dur": 25
    },
    {
      "t": 1848.2,
      "ch": 1,
      "note": 42,
      "vel": 72,
      "dur": 25
    },
    {
      "t": 1848.2,
      "ch": 1,
      "note": 36,
      "vel": 53,
      "dur": 25
    },
    {
      "t": 1848.2,
      "ch": 1,
      "note": 38,
      "vel": 96,
      "dur": 25
    },
    {
      "t": 1848.2,
      "ch": 1,
      "note": 40,
      "vel": 85,
      "dur": 25
    },
    {
      "t": 1848.2,
      "ch": 1,
      "note": 42,
      "vel": 69,
      "dur": 25
    },
    {
      "t": 1848.2,
      "ch": 1,
      "note": 36,
      "vel": 80,
      "dur": 25
    },
    {
      "t": 1848.2,
      "ch": 1,
      "note": 38,
      "vel": 63,
      "dur": 25
    },
    {
      "t": 1848.2,
      "ch": 1,
      "note": 40,
      "vel": 69,
      "dur": 25
    },
    {
      "t": 1848.2,
      "ch": 1,
      "note": 42,
      "vel": 75,
      "dur": 25
    },
    {
      "t": 1848.2,
      "ch": 1,
      "note": 36,
      "vel": 56,
      "dur": 25
    },
    {
      "t": 1848.2,
      "ch": 1,
      "note": 38,
      "vel": 67,
      "dur": 25
    },
    {
      "t": 1848.2,
      "ch": 1,
      "note": 40,
      "vel": 88,
      "dur": 25
    },
    {
      "t": 1848.2,
      "ch": 1,
      "note": 42,
      "vel": 55,
      "dur": 25
    },
    {
      "t": 1848.2,
      "ch": 1,
      "note": 36,
      "vel": 59,
      "dur": 25
    },
    {
      "t": 1848.2,
      "ch": 1,
      "note": 38,
      "vel": 53,
      "dur": 25
    },
    {
      "t": 1848.2,
      "ch": 1,
      "note": 40,
      "vel": 74,
      "dur": 25
    },
    {
      "t": 1848.2,
      "ch": 1,
      "note": 42,
      "vel": 59,
      "dur": 25
    },
    {
      "t": 1848.2,
      "ch": 1,
      "note": 36,
      "vel": 46,
      "dur": 25
    },
    {
      "t": 1848.2,
      "ch": 1,
      "note": 38,
      "vel": 79,
      "dur": 25
    },
    {
      "t": 1848.2,
      "ch": 1,
      "note": 40,
      "vel": 59,
      "dur": 25
    },
    {
      "t": 1848.2,
      "ch": 1,
      "note": 42,
      "vel": 71,
      "dur": 25
    },
    {
      "t": 1848.2,
      "ch": 1,
      "note": 36,
      "vel": 60,
      "dur": 25
    },
    {
      "t": 1848.2,
      "ch": 1,
      "note": 38,
      "vel": 78,
      "dur": 25
    },
    {
      "t": 1848.2,
      "ch": 1,
      "note": 40,
      "vel": 88,
      "dur": 25
    },
    {
      "t": 1848.2,
      "ch": 1,
      "note": 42,
      "vel": 74,
      "dur": 25
    },
    {
      "t": 1848.2,
      "ch": 1,
      "note": 36,
      "vel": 72,
      "dur": 25
    },
    {
      "t": 1848.2,
      "ch": 1,
      "note": 38,
      "vel": 48,
      "dur": 25
    },
    {
      "t": 1848.2,
      "ch": 1,
      "note": 40,
      "vel": 88,
      "dur": 25
    },
    {
      "t": 1848.2,
      "ch": 1,
      "note": 42,
      "vel": 71,
      "dur": 25
    },
    {
      "t": 1848.2,
      "ch": 1,
      "note": 36,
      "vel": 73,
      "dur": 25
    },
    {
      "t": 1848.2,
      "ch": 1,
      "note": 38,
      "vel": 70,
      "dur": 25
    },
    {
      "t": 1848.2,
      "ch": 1,
      "note": 40,
      "vel": 76,
      "dur": 25
    },
    {
      "t": 1848.2,
      "ch": 1,
      "note": 42,
      "vel": 67,
      "dur": 25
    },
    {
      "t": 1848.2,
      "ch": 1,
      "note": 36,
      "vel": 72,
      "dur": 25
    },
    {
      "t": 1848.2,
      "ch": 1,
      "note": 38,
      "vel": 80,
      "dur": 25
    },
    {
      "t": 1848.2,
      "ch": 1,
      "note": 40,
      "vel": 77,
      "dur": 25
    },
    {
      "t": 1848.2,
      "ch": 1,
      "note": 42,
      "vel": 80,
      "dur": 25
    },
    {
      "t": 1848.2,
      "ch": 1,
      "note": 36,
      "vel": 68,
      "dur": 25
    },
    {
      "t": 1848.2,
      "ch": 1,
      "note": 38,
      "vel": 88,
      "dur": 25
    },
    {
      "t": 1848.2,
      "ch": 1,
      "note": 40,
      "vel": 61,
      "dur": 25
    },
    {
      "t": 1848.2,
      "ch": 1,
      "note": 42,
      "vel": 79,
      "dur": 25
    },
    {
      "t": 1848.2,
      "ch": 1,
      "note": 36,
      "vel": 68,
      "dur": 25
    },
    {
      "t": 1848.2,
      "ch": 1,
      "note": 38,
      "vel": 75,
      "dur": 25
    },
    {
      "t": 1848.2,
      "ch": 1,
      "note": 40,
      "vel": 66,
      "dur": 25
    },
    {
      "t": 1848.2,
      "ch": 1,
      "note": 42,
      "vel": 63,
      "dur": 25
    },
    {
      "t": 1848.2,
      "ch": 1,
      "note": 36,
      "vel": 83,
      "dur": 25
    },
    {
      "t": 1848.2,
      "ch": 1,
      "note": 38,
      "vel": 79,
      "dur": 25
    },
    {
      "t": 1848.2,
      "ch": 1,
      "note": 40,
      "vel": 68,
      "dur": 25
    },
    {
      "t": 1848.2,
      "ch": 1,
      "note": 42,
      "vel": 62,
      "dur": 25
    },
    {
      "t": 1848.2,
      "ch": 1,
      "note": 36,
      "vel": 75,
      "dur": 25
    },
    {
      "t": 1848.2,
      "ch": 1,
      "note": 38,
      "vel": 83,
      "dur": 25
    },
    {
      "t": 1848.2,
      "ch": 1,
      "note": 40,
      "vel": 75,
      "dur": 25
    },
    {
      "t": 1848.2,
      "ch": 1,
      "note": 42,
      "vel": 67,
      "dur": 25
    },
    {
      "t": 1848.2,
      "ch": 1,
      "note": 36,
      "vel": 68,
      "dur": 25
    },
    {
      "t": 1848.2,
      "ch": 1,
      "note": 38,
      "vel": 66,
      "dur": 25
    },
    {
      "t": 1848.2,
      "ch": 1,
      "note": 40,
      "vel": 89,
      "dur": 25
    },
    {
      "t": 1848.2,
      "ch": 1,
      "note": 42,
      "vel": 65,
      "dur": 25
    },
    {
      "t": 1848.2,
      "ch": 1,
      "note": 36,
      "vel": 70,
      "dur": 25
    },
    {
      "t": 1848.2,
      "ch": 1,
      "note": 38,
      "vel": 71,
      "dur": 25
    },
    {
      "t": 1848.2,
      "ch": 1,
      "note": 40,
      "vel": 72,
      "dur": 25
    },
    {
      "t": 1848.2,
      "ch": 1,
      "note": 42,
      "vel": 58,
      "dur": 25
    },
    {
      "t": 1848.2,
      "ch": 1,
      "note": 36,
      "vel": 67,
      "dur": 25
    },
    {
      "t": 1848.2,
      "ch": 1,
      "note": 38,
      "vel": 75,
      "dur": 25
    },
    {
      "t": 1848.2,
      "ch": 1,
      "note": 40,
      "vel": 89,
      "dur": 25
    },
    {
      "t": 1848.2,
      "ch": 1,
      "note": 42,
      "vel": 78,
      "dur": 25
    },
    {
      "t": 1848.2,
      "ch": 1,
      "note": 36,
      "vel": 80,
      "dur": 25
    },
    {
      "t": 1848.2,
      "ch": 1,
      "note": 38,
      "vel": 57,
      "dur": 25
    },
    {
      "t": 1848.2,
      "ch": 1,
      "note": 40,
      "vel": 68,
      "dur": 25
    },
    {
      "t": 1848.2,
      "ch": 1,
      "note": 42,
      "vel": 82,
      "dur": 25
    },
    {
      "t": 1848.2,
      "ch": 1,
      "note": 36,
      "vel": 89,
      "dur": 25
    },
    {
      "t": 1848.2,
      "ch": 1,
      "note": 38,
      "vel": 71,
      "dur": 25
    },
    {
      "t": 1848.2,
      "ch": 1,
      "note": 40,
      "vel": 64,
      "dur": 25
    },
    {
      "t": 1848.2,
      "ch": 1,
      "note": 42,
      "vel": 69,
      "dur": 25
    },
    {
      "t": 1848.2,
      "ch": 1,
      "note": 36,
      "vel": 85,
      "dur": 25
    },
    {
      "t": 1848.2,
      "ch": 1,
      "note": 38,
      "vel": 82,
      "dur": 25
    },
    {
      "t": 1848.2,
      "ch": 1,
      "note": 40,
      "vel": 83,
      "dur": 25
    },
    {
      "t": 1848.2,
      "ch": 1,
      "note": 42,
      "vel": 76,
      "dur": 25
    },
    {
      "t": 1848.2,
      "ch": 1,
      "note": 36,
      "vel": 51,
      "dur": 25
    },
    {
      "t": 1848.2,
      "ch": 1,
      "note": 38,
      "vel": 72,
      "dur": 25
    },
    {
      "t": 1848.2,
      "ch": 1,
      "note": 40,
      "vel": 61,
      "dur": 25
    },
    {
      "t": 1848.2,
      "ch": 1,
      "note": 42,
      "vel": 91,
      "dur": 25
    },
    {
      "t": 1848.2,
      "ch": 1,
      "note": 36,
      "vel": 73,
      "dur": 25
    },
    {
      "t": 1848.2,
      "ch": 1,
      "note": 38,
      "vel": 66,
      "dur": 25
    },
    {
      "t": 1848.2,
      "ch": 1,
      "note": 40,
      "vel": 81,
      "dur": 25
    },
    {
      "t": 1848.2,
      "ch": 1,
      "note": 42,
      "vel": 76,
      "dur": 25
    },
    {
      "t": 1848.2,
      "ch": 1,
      "note": 36,
      "vel": 84,
      "dur": 25
    },
    {
      "t": 1848.2,
      "ch": 1,
      "note": 38,
      "vel": 62,
      "dur": 25
    },
    {
      "t": 1848.2,
      "ch": 1,
      "note": 40,
      "vel": 76,
      "dur": 25
    },
    {
      "t": 1848.2,
      "ch": 1,
      "note": 42,
      "vel": 81,
      "dur": 25
    },
    {
      "t": 1848.2,
      "ch": 1,
      "note": 36,
      "vel": 75,
      "dur": 25
    },
    {
      "t": 1848.2,
      "ch": 1,
      "note": 38,
      "vel": 73,
      "dur": 25
    },
    {
      "t": 1848.2,
      "ch": 1,
      "note": 40,
      "vel": 90,
      "dur": 25
    },
    {
      "t": 1848.2,
      "ch": 1,
      "note": 42,
      "vel": 64,
      "dur": 25
    },
    {
      "t": 1848.2,
      "ch": 1,
      "note": 36,
      "vel": 77,
      "dur": 25
    },
    {
      "t": 1848.2,
      "ch": 1,
      "note": 38,
      "vel": 79,
      "dur": 25
    },
    {
      "t": 1848.2,
      "ch": 1,
      "note": 40,
      "vel": 84,
      "dur": 25
    },
    {
      "t": 1848.2,
      "ch": 1,
      "note": 42,
      "vel": 60,
      "dur": 25
    },
    {
      "t": 1848.2,
      "ch": 1,
      "note": 36,
      "vel": 74,
      "dur": 25
    },
    {
      "t": 1848.2,
      "ch": 1,
      "note": 38,
      "vel": 71,
      "dur": 25
    },
    {
      "t": 1848.2,
      "ch": 1,
      "note": 40,
      "vel": 75,
      "dur": 25
    },
    {
      "t": 1848.2,
      "ch": 1,
      "note": 42,
      "vel": 81,
      "dur": 25
    },
    {
      "t": 1848.2,
      "ch": 1,
      "note": 36,
      "vel": 89,
      "dur": 25
    },
    {
      "t": 1848.2,
      "ch": 1,
      "note": 38,
      "vel": 73,
      "dur": 25
    },
    {
      "t": 1848.2,
      "ch": 1,
      "note": 40,
      "vel": 81,
      "dur": 25
    },
    {
      "t": 1848.2,
      "ch": 1,
      "note": 42,
      "vel": 77,
      "dur": 25
    },
    {
      "t": 1848.2,
      "ch": 1,
      "note": 36,
      "vel": 57,
      "dur": 25
    },
    {
      "t": 1848.2,
      "ch": 1,
      "note": 38,
      "vel": 73,
      "dur": 25
    },
    {
      "t": 1848.2,
      "ch": 1,
      "note": 40,
      "vel": 74,
      "dur": 25
    },
    {
      "t": 1848.2,
      "ch": 1,
      "note": 42,
      "vel": 71,
      "dur": 25
    },
    {
      "t": 1848.2,
      "ch": 1,
      "note": 36,
      "vel": 86,
      "dur": 25
    },
    {
      "t": 1848.2,
      "ch": 1,
      "note": 38,
      "vel": 72,
      "dur": 25
    },
    {
      "t": 1848.2,
      "ch": 1,
      "note": 40,
      "vel": 57,
      "dur": 25
    },
    {
      "t": 1848.2,
      "ch": 1,
      "note": 42,
      "vel": 73,
      "dur": 25
    },
    {
      "t": 1848.2,
      "ch": 1,
      "note": 36,
      "vel": 81,
      "dur": 25
    },
    {
      "t": 1848.2,
      "ch": 1,
      "note": 38,
      "vel": 77,
      "dur": 25
    },
    {
      "t": 1848.2,
      "ch": 1,
      "note": 40,
      "vel": 85,
      "dur": 25
    },
    {
      "t": 1848.2,
      "ch": 1,
      "note": 42,
      "vel": 93,
      "dur": 25
    },
    {
      "t": 1848.2,
      "ch": 1,
      "note": 36,
      "vel": 72,
      "dur": 25
    },
    {
      "t": 1848.2,
      "ch": 1,
      "note": 38,
      "vel": 77,
      "dur": 25
    },
    {
      "t": 1848.2,
      "ch": 1,
      "note": 40,
      "vel": 80,
      "dur": 25
    },
    {
      "t": 1848.2,
      "ch": 1,
      "note": 42,
      "vel": 91,
      "dur": 25
    },
    {
      "t": 1848.2,
      "ch": 1,
      "note": 36,
      "vel": 61,
      "dur": 25
    },
    {
      "t": 1848.2,
      "ch": 1,
      "note": 38,
      "vel": 91,
      "dur": 25
    },
    {
      "t": 1848.2,
      "ch": 1,
      "note": 40,
      "vel": 83,
      "dur": 25
    },
    {
      "t": 1848.2,
      "ch": 1,
      "note": 42,
      "vel": 68,
      "dur": 25
    },
    {
      "t": 1848.2,
      "ch": 1,
      "note": 36,
      "vel": 63,
      "dur": 25
    },
    {
      "t": 1848.2,
      "ch": 1,
      "note": 38,
      "vel": 77,
      "dur": 25
    },
    {
      "t": 1848.2,
      "ch": 1,
      "note": 40,
      "vel": 87,
      "dur": 25
    },
    {
      "t": 1848.2,
      "ch": 1,
      "note": 42,
      "vel": 67,
      "dur": 25
    },
    {
      "t": 1848.2,
      "ch": 1,
      "note": 36,
      "vel": 57,
      "dur": 25
    },
    {
      "t": 1848.2,
      "ch": 1,
      "note": 38,
      "vel": 59,
      "dur": 25
    },
    {
      "t": 1848.2,
      "ch": 1,
      "note": 40,
      "vel": 91,
      "dur": 25
    },
    {
      "t": 1848.2,
      "ch": 1,
      "note": 42,
      "vel": 73,
      "dur": 25
    },
    {
      "t": 1848.2,
      "ch": 1,
      "note": 36,
      "vel": 76,
      "dur": 25
    },
    {
      "t": 1848.2,
      "ch": 1,
      "note": 38,
      "vel": 95,
      "dur": 25
    },
    {
      "t": 1848.2,
      "ch": 1,
      "note": 40,
      "vel": 67,
      "dur": 25
    },
    {
      "t": 1848.2,
      "ch": 1,
      "note": 42,
      "vel": 95,
      "dur": 25
    },
    {
      "t": 1848.2,
      "ch": 1,
      "note": 36,
      "vel": 67,
      "dur": 25
    },
    {
      "t": 1848.2,
      "ch": 1,
      "note": 38,
      "vel": 61,
      "dur": 25
    },
    {
      "t": 1848.2,
      "ch": 1,
      "note": 40,
      "vel": 68,
      "dur": 25
    },
    {
      "t": 1848.2,
      "ch": 1,
      "note": 42,
      "vel": 64,
      "dur": 25
    },
    {
      "t": 1848.2,
      "ch": 1,
      "note": 36,
      "vel": 70,
      "dur": 25
    },
    {
      "t": 1848.2,
      "ch": 1,
      "note": 38,
      "vel": 75,
      "dur": 25
    },
    {
      "t": 1848.2,
      "ch": 1,
      "note": 40,
      "vel": 85,
      "dur": 25
    },
    {
      "t": 1848.2,
      "ch": 1,
      "note": 42,
      "vel": 81,
      "dur": 25
    },
    {
      "t": 1848.2,
      "ch": 1,
      "note": 36,
      "vel": 80,
      "dur": 25
    },
    {
      "t": 1848.2,
      "ch": 1,
      "note": 38,
      "vel": 50,
      "dur": 25
    },
    {
      "t": 1848.2,
      "ch": 1,
      "note": 40,
      "vel": 80,
      "dur": 25
    },
    {
      "t": 1848.2,
      "ch": 1,
      "note": 42,
      "vel": 78,
      "dur": 25
    },
    {
      "t": 1848.2,
      "ch": 1,
      "note": 36,
      "vel": 78,
      "dur": 25
    },
    {
      "t": 1848.2,
      "ch": 1,
      "note": 38,
      "vel": 55,
      "dur": 25
    },
    {
      "t": 1848.2,
      "ch": 1,
      "note": 40,
      "vel": 86,
      "dur": 25
    },
    {
      "t": 1848.2,
      "ch": 1,
      "note": 42,
      "vel": 90,
      "dur": 25
    },
    {
      "t": 1848.2,
      "ch": 1,
      "note": 36,
      "vel": 69,
      "dur": 25
    },
    {
      "t": 1848.2,
      "ch": 1,
      "note": 38,
      "vel": 91,
      "dur": 25
    },
    {
      "t": 1848.2,
      "ch": 1,
      "note": 40,
      "vel": 82,
      "dur": 25
    },
    {
      "t": 1848.2,
      "ch": 1,
      "note": 42,
      "vel": 88,
      "dur": 25
    },
    {
      "t": 1848.2,
      "ch": 1,
      "note": 36,
      "vel": 69,
      "dur": 25
    },
    {
      "t": 1848.2,
      "ch": 1,
      "note": 38,
      "vel": 83,
      "dur": 25
    },
    {
      "t": 1848.2,
      "ch": 1,
      "note": 40,
      "vel": 75,
      "dur": 25
    },
    {
      "t": 1848.2,
      "ch": 1,
      "note": 42,
      "vel": 88,
      "dur": 25
    },
    {
      "t": 1848.2,
      "ch": 1,
      "note": 36,
      "vel": 53,
      "dur": 25
    },
    {
      "t": 1848.2,
      "ch": 1,
      "note": 38,
      "vel": 71,
      "dur": 25
    },
    {
      "t": 1848.2,
      "ch": 1,
      "note": 40,
      "vel": 63,
      "dur": 25
    },
    {
      "t": 1848.2,
      "ch": 1,
      "note": 42,
      "vel": 87,
      "dur": 25
    },
    {
      "t": 1848.2,
      "ch": 1,
      "note": 36,
      "vel": 79,
      "dur": 25
    },
    {
      "t": 1848.2,
      "ch": 1,
      "note": 38,
      "vel": 98,
      "dur": 25
    },
    {
      "t": 1848.2,
      "ch": 1,
      "note": 40,
      "vel": 51,
      "dur": 25
    },
    {
      "t": 1848.2,
      "ch": 1,
      "note": 42,
      "vel": 69,
      "dur": 25
    },
    {
      "t": 1848.2,
      "ch": 1,
      "note": 36,
      "vel": 62,
      "dur": 25
    },
    {
      "t": 1848.2,
      "ch": 1,
      "note": 38,
      "vel": 99,
      "dur": 25
    },
    {
      "t": 1848.2,
      "ch": 1,
      "note": 40,
      "vel": 71,
      "dur": 25
    },
    {
      "t": 1848.2,
      "ch": 1,
      "note": 42,
      "vel": 64,
      "dur": 25
    },
    {
      "t": 1848.2,
      "ch": 1,
      "note": 36,
      "vel": 84,
      "dur": 25
    },
    {
      "t": 1848.2,
      "ch": 1,
      "note": 38,
      "vel": 85,
      "dur": 25
    },
    {
      "t": 1848.2,
      "ch": 1,
      "note": 40,
      "vel": 70,
      "dur": 25
    },
    {
      "t": 1848.2,
      "ch": 1,
      "note": 42,
      "vel": 82,
      "dur": 25
    },
    {
      "t": 1848.2,
      "ch": 1,
      "note": 36,
      "vel": 83,
      "dur": 25
    },
    {
      "t": 1848.2,
      "ch": 1,
      "note": 38,
      "vel": 72,
      "dur": 25
    },
    {
      "t": 1848.2,
      "ch": 1,
      "note": 40,
      "vel": 78,
      "dur": 25
    },
    {
      "t": 1848.2,
      "ch": 1,
      "note": 42,
      "vel": 68,
      "dur": 25
    },
    {
      "t": 1848.2,
      "ch": 1,
      "note": 36,
      "vel": 75,
      "dur": 25
    },
    {
      "t": 1848.2,
      "ch": 1,
      "note": 38,
      "vel": 79,
      "dur": 25
    },
    {
      "t": 1848.2,
      "ch": 1,
      "note": 40,
      "vel": 81,
      "dur": 25
    },
    {
      "t": 1848.2,
      "ch": 1,
      "note": 42,
      "vel": 59,
      "dur": 25
    },
    {
      "t": 1848.2,
      "ch": 1,
      "note": 36,
      "vel": 82,
      "dur": 25
    },
    {
      "t": 1848.2,
      "ch": 1,
      "note": 38,
      "vel": 72,
      "dur": 25
    },
    {
      "t": 1848.2,
      "ch": 1,
      "note": 40,
      "vel": 85,
      "dur": 25
    },
    {
      "t": 1848.2,
      "ch": 1,
      "note": 42,
      "vel": 88,
      "dur": 25
    },
    {
      "t": 1848.2,
      "ch": 1,
      "note": 36,
      "vel": 73,
      "dur": 25
    },
    {
      "t": 1848.2,
      "ch": 1,
      "note": 38,
      "vel": 56,
      "dur": 25
    },
    {
      "t": 1848.2,
      "ch": 1,
      "note": 40,
      "vel": 69,
      "dur": 25
    },
    {
      "t": 1848.2,
      "ch": 1,
      "note": 42,
      "vel": 65,
      "dur": 25
    },
    {
      "t": 1848.2,
      "ch": 1,
      "note": 36,
      "vel": 85,
      "dur": 25
    },
    {
      "t": 1848.2,
      "ch": 1,
      "note": 38,
      "vel": 64,
      "dur": 25
    },
    {
      "t": 1848.2,
      "ch": 1,
      "note": 40,
      "vel": 72,
      "dur": 25
    },
    {
      "t": 1848.2,
      "ch": 1,
      "note": 42,
      "vel": 56,
      "dur": 25
    },
    {
      "t": 1848.2,
      "ch": 1,
      "note": 36,
      "vel": 59,
      "dur": 25
    },
    {
      "t": 1848.2,
      "ch": 1,
      "note": 38,
      "vel": 67,
      "dur": 25
    },
    {
      "t": 1848.2,
      "ch": 1,
      "note": 40,
      "vel": 76,
      "dur": 25
    },
    {
      "t": 1848.2,
      "ch": 1,
      "note": 42,
      "vel": 58,
      "dur": 25
    },
    {
      "t": 1848.2,
      "ch": 1,
      "note": 36,
      "vel": 83,
      "dur": 25
    },
    {
      "t": 1848.2,
      "ch": 1,
      "note": 38,
      "vel": 79,
      "dur": 25
    },
    {
      "t": 1848.2,
      "ch": 1,
      "note": 40,
      "vel": 64,
      "dur": 25
    },
    {
      "t": 1848.2,
      "ch": 1,
      "note": 42,
      "vel": 93,
      "dur": 25
    },
    {
      "t": 1848.2,
      "ch": 1,
      "note": 36,
      "vel": 76,
      "dur": 25
    },
    {
      "t": 1848.2,
      "ch": 1,
      "note": 38,
      "vel": 90,
      "dur": 25
    },
    {
      "t": 1848.2,
      "ch": 1,
      "note": 40,
      "vel": 70,
      "dur": 25
    },
    {
      "t": 1848.2,
      "ch": 1,
      "note": 42,
      "vel": 73,
      "dur": 25
    },
    {
      "t": 1848.2,
      "ch": 1,
      "note": 36,
      "vel": 64,
      "dur": 25
    },
    {
      "t": 1848.2,
      "ch": 1,
      "note": 38,
      "vel": 101,
      "dur": 25
    },
    {
      "t": 1848.2,
      "ch": 1,
      "note": 40,
      "vel": 83,
      "dur": 25
    },
    {
      "t": 1848.2,
      "ch": 1,
      "note": 42,
      "vel": 73,
      "dur": 25
    },
    {
      "t": 1848.2,
      "ch": 1,
      "note": 36,
      "vel": 62,
      "dur": 25
    },
    {
      "t": 1848.2,
      "ch": 1,
      "note": 38,
      "vel": 50,
      "dur": 25
    },
    {
      "t": 1848.2,
      "ch": 1,
      "note": 40,
      "vel": 54,
      "dur": 25
    },
    {
      "t": 1848.2,
      "ch": 1,
      "note": 42,
      "vel": 78,
      "dur": 25
    },
    {
      "t": 1848.2,
      "ch": 1,
      "note": 36,
      "vel": 80,
      "dur": 25
    },
    {
      "t": 1848.3,
      "ch": 1,
      "note": 38,
      "vel": 54,
      "dur": 25
    },
    {
      "t": 1848.3,
      "ch": 1,
      "note": 40,
      "vel": 95,
      "dur": 25
    },
    {
      "t": 1848.3,
      "ch": 1,
      "note": 42,
      "vel": 98,
      "dur": 25
    },
    {
      "t": 1848.3,
      "ch": 1,
      "note": 36,
      "vel": 79,
      "dur": 25
    },
    {
      "t": 1848.3,
      "ch": 1,
      "note": 38,
      "vel": 83,
      "dur": 25
    },
    {
      "t": 1848.3,
      "ch": 1,
      "note": 40,
      "vel": 66,
      "dur": 25
    },
    {
      "t": 1848.3,
      "ch": 1,
      "note": 42,
      "vel": 75,
      "dur": 25
    },
    {
      "t": 1848.3,
      "ch": 1,
      "note": 36,
      "vel": 65,
      "dur": 25
    },
    {
      "t": 1848.3,
      "ch": 1,
      "note": 38,
      "vel": 73,
      "dur": 25
    },
    {
      "t": 1848.3,
      "ch": 1,
      "note": 40,
      "vel": 94,
      "dur": 25
    },
    {
      "t": 1848.3,
      "ch": 1,
      "note": 42,
      "vel": 72,
      "dur": 25
    },
    {
      "t": 1848.3,
      "ch": 1,
      "note": 36,
      "vel": 70,
      "dur": 25
    },
    {
      "t": 1848.3,
      "ch": 1,
      "note": 38,
      "vel": 71,
      "dur": 25
    },
    {
      "t": 1848.3,
      "ch": 1,
      "note": 40,
      "vel": 84,
      "dur": 25
    },
    {
      "t": 1848.3,
      "ch": 1,
      "note": 42,
      "vel": 77,
      "dur": 25
    },
    {
      "t": 1848.3,
      "ch": 1,
      "note": 36,
      "vel": 94,
      "dur": 25
    },
    {
      "t": 1848.3,
      "ch": 1,
      "note": 38,
      "vel": 64,
      "dur": 25
    },
    {
      "t": 1848.3,
      "ch": 1,
      "note": 40,
      "vel": 53,
      "dur": 25
    },
    {
      "t": 1848.3,
      "ch": 1,
      "note": 42,
      "vel": 73,
      "dur": 25
    },
    {
      "t": 1848.3,
      "ch": 1,
      "note": 36,
      "vel": 73,
      "dur": 25
    },
    {
      "t": 1848.3,
      "ch": 1,
      "note": 38,
      "vel": 70,
      "dur": 25
    },
    {
      "t": 1848.3,
      "ch": 1,
      "note": 40,
      "vel": 86,
      "dur": 25
    },
    {
      "t": 1848.3,
      "ch": 1,
      "note": 42,
      "vel": 74,
      "dur": 25
    },
    {
      "t": 1848.3,
      "ch": 1,
      "note": 36,
      "vel": 88,
      "dur": 25
    },
    {
      "t": 1848.3,
      "ch": 1,
      "note": 38,
      "vel": 89,
      "dur": 25
    },
    {
      "t": 1848.3,
      "ch": 1,
      "note": 40,
      "vel": 67,
      "dur": 25
    },
    {
      "t": 1848.3,
      "ch": 1,
      "note": 42,
      "vel": 95,
      "dur": 25
    },
    {
      "t": 1848.3,
      "ch": 1,
      "note": 36,
      "vel": 55,
      "dur": 25
    },
    {
      "t": 1848.3,
      "ch": 1,
      "note": 38,
      "vel": 76,
      "dur": 25
    },
    {
      "t": 1848.3,
      "ch": 1,
      "note": 40,
      "vel": 74,
      "dur": 25
    },
    {
      "t": 1848.3,
      "ch": 1,
      "note": 42,
      "vel": 88,
      "dur": 25
    },
    {
      "t": 1848.3,
      "ch": 1,
      "note": 36,
      "vel": 60,
      "dur": 25
    },
    {
      "t": 1848.3,
      "ch": 1,
      "note": 38,
      "vel": 73,
      "dur": 25
    },
    {
      "t": 1848.3,
      "ch": 1,
      "note": 40,
      "vel": 61,
      "dur": 25
    },
    {
      "t": 1848.3,
      "ch": 1,
      "note": 42,
      "vel": 81,
      "dur": 25
    },
    {
      "t": 1848.3,
      "ch": 1,
      "note": 36,
      "vel": 75,
      "dur": 25
    },
    {
      "t": 1848.3,
      "ch": 1,
      "note": 38,
      "vel": 66,
      "dur": 25
    },
    {
      "t": 1848.3,
      "ch": 1,
      "note": 40,
      "vel": 103,
      "dur": 25
    },
    {
      "t": 1848.3,
      "ch": 1,
      "note": 42,
      "vel": 89,
      "dur": 25
    },
    {
      "t": 1848.3,
      "ch": 1,
      "note": 36,
      "vel": 76,
      "dur": 25
    },
    {
      "t": 1848.3,
      "ch": 1,
      "note": 38,
      "vel": 65,
      "dur": 25
    },
    {
      "t": 1848.3,
      "ch": 1,
      "note": 40,
      "vel": 90,
      "dur": 25
    },
    {
      "t": 1848.3,
      "ch": 1,
      "note": 42,
      "vel": 81,
      "dur": 25
    },
    {
      "t": 1848.3,
      "ch": 1,
      "note": 36,
      "vel": 62,
      "dur": 25
    },
    {
      "t": 1848.3,
      "ch": 1,
      "note": 38,
      "vel": 77,
      "dur": 25
    },
    {
      "t": 1848.3,
      "ch": 1,
      "note": 40,
      "vel": 76,
      "dur": 25
    },
    {
      "t": 1848.3,
      "ch": 1,
      "note": 42,
      "vel": 69,
      "dur": 25
    },
    {
      "t": 1848.3,
      "ch": 1,
      "note": 36,
      "vel": 79,
      "dur": 25
    },
    {
      "t": 1848.3,
      "ch": 1,
      "note": 38,
      "vel": 54,
      "dur": 25
    },
    {
      "t": 1848.3,
      "ch": 1,
      "note": 40,
      "vel": 69,
      "dur": 25
    },
    {
      "t": 1848.3,
      "ch": 1,
      "note": 42,
      "vel": 61,
      "dur": 25
    },
    {
      "t": 1848.3,
      "ch": 1,
      "note": 36,
      "vel": 88,
      "dur": 25
    },
    {
      "t": 1848.3,
      "ch": 1,
      "note": 38,
      "vel": 54,
      "dur": 25
    },
    {
      "t": 1848.3,
      "ch": 1,
      "note": 40,
      "vel": 67,
      "dur": 25
    },
    {
      "t": 1848.3,
      "ch": 1,
      "note": 42,
      "vel": 63,
      "dur": 25
    },
    {
      "t": 1848.3,
      "ch": 1,
      "note": 36,
      "vel": 91,
      "dur": 25
    },
    {
      "t": 1848.3,
      "ch": 1,
      "note": 38,
      "vel": 81,
      "dur": 25
    },
    {
      "t": 1848.3,
      "ch": 1,
      "note": 40,
      "vel": 84,
      "dur": 25
    },
    {
      "t": 1848.3,
      "ch": 1,
      "note": 42,
      "vel": 69,
      "dur": 25
    },
    {
      "t": 1848.3,
      "ch": 1,
      "note": 36,
      "vel": 71,
      "dur": 25
    },
    {
      "t": 1848.3,
      "ch": 1,
      "note": 38,
      "vel": 66,
      "dur": 25
    },
    {
      "t": 1848.3,
      "ch": 1,
      "note": 40,
      "vel": 64,
      "dur": 25
    },
    {
      "t": 1848.3,
      "ch": 1,
      "note": 42,
      "vel": 77,
      "dur": 25
    },
    {
      "t": 1848.3,
      "ch": 1,
      "note": 36,
      "vel": 93,
      "dur": 25
    },
    {
      "t": 1848.3,
      "ch": 1,
      "note": 38,
      "vel": 79,
      "dur": 25
    },
    {
      "t": 1848.3,
      "ch": 1,
      "note": 40,
      "vel": 77,
      "dur": 25
    },
    {
      "t": 1848.3,
      "ch": 1,
      "note": 42,
      "vel": 52,
      "dur": 25
    },
    {
      "t": 1848.3,
      "ch": 1,
      "note": 36,
      "vel": 65,
      "dur": 25
    },
    {
      "t": 1848.3,
      "ch": 1,
      "note": 38,
      "vel": 89,
      "dur": 25
    },
    {
      "t": 1848.3,
      "ch": 1,
      "note": 40,
      "vel": 67,
      "dur": 25
    },
    {
      "t": 1848.3,
      "ch": 1,
      "note": 42,
      "vel": 84,
      "dur": 25
    },
    {
      "t": 1848.3,
      "ch": 1,
      "note": 36,
      "vel": 69,
      "dur": 25
    },
    {
      "t": 1848.3,
      "ch": 1,
      "note": 38,
      "vel": 77,
      "dur": 25
    },
    {
      "t": 1848.3,
      "ch": 1,
      "note": 40,
      "vel": 94,
      "dur": 25
    },
    {
      "t": 1848.3,
      "ch": 1,
      "note": 42,
      "vel": 71,
      "dur": 25
    },
    {
      "t": 1848.3,
      "ch": 1,
      "note": 36,
      "vel": 67,
      "dur": 25
    },
    {
      "t": 1848.3,
      "ch": 1,
      "note": 38,
      "vel": 80,
      "dur": 25
    },
    {
      "t": 1848.3,
      "ch": 1,
      "note": 40,
      "vel": 75,
      "dur": 25
    },
    {
      "t": 1848.3,
      "ch": 1,
      "note": 42,
      "vel": 73,
      "dur": 25
    },
    {
      "t": 1848.3,
      "ch": 1,
      "note": 36,
      "vel": 98,
      "dur": 25
    },
    {
      "t": 1848.3,
      "ch": 1,
      "note": 38,
      "vel": 62,
      "dur": 25
    },
    {
      "t": 1848.3,
      "ch": 1,
      "note": 40,
      "vel": 84,
      "dur": 25
    },
    {
      "t": 1848.3,
      "ch": 1,
      "note": 42,
      "vel": 73,
      "dur": 25
    },
    {
      "t": 1848.3,
      "ch": 1,
      "note": 36,
      "vel": 82,
      "dur": 25
    },
    {
      "t": 1848.3,
      "ch": 1,
      "note": 38,
      "vel": 62,
      "dur": 25
    },
    {
      "t": 1848.3,
      "ch": 1,
      "note": 40,
      "vel": 87,
      "dur": 25
    },
    {
      "t": 1848.3,
      "ch": 1,
      "note": 42,
      "vel": 84,
      "dur": 25
    },
    {
      "t": 1848.3,
      "ch": 1,
      "note": 36,
      "vel": 78,
      "dur": 25
    },
    {
      "t": 1848.3,
      "ch": 1,
      "note": 38,
      "vel": 84,
      "dur": 25
    },
    {
      "t": 1848.3,
      "ch": 1,
      "note": 40,
      "vel": 76,
      "dur": 25
    },
    {
      "t": 1848.3,
      "ch": 1,
      "note": 42,
      "vel": 58,
      "dur": 25
    },
    {
      "t": 1848.3,
      "ch": 1,
      "note": 36,
      "vel": 78,
      "dur": 25
    },
    {
      "t": 1848.3,
      "ch": 1,
      "note": 38,
      "vel": 73,
      "dur": 25
    },
    {
      "t": 1848.3,
      "ch": 1,
      "note": 40,
      "vel": 77,
      "dur": 25
    },
    {
      "t": 1848.3,
      "ch": 1,
      "note": 42,
      "vel": 75,
      "dur": 25
    },
    {
      "t": 1848.3,
      "ch": 1,
      "note": 36,
      "vel": 66,
      "dur": 25
    },
    {
      "t": 1848.3,
      "ch": 1,
      "note": 38,
      "vel": 82,
      "dur": 25
    },
    {
      "t": 1848.3,
      "ch": 1,
      "note": 40,
      "vel": 76,
      "dur": 25
    },
    {
      "t": 1848.3,
      "ch": 1,
      "note": 42,
      "vel": 59,
      "dur": 25
    },
    {
      "t": 1848.3,
      "ch": 1,
      "note": 36,
      "vel": 82,
      "dur": 25
    },
    {
      "t": 1848.3,
      "ch": 1,
      "note": 38,
      "vel": 58,
      "dur": 25
    },
    {
      "t": 1848.3,
      "ch": 1,
      "note": 40,
      "vel": 60,
      "dur": 25
    },
    {
      "t": 1848.3,
      "ch": 1,
      "note": 42,
      "vel": 57,
      "dur": 25
    },
    {
      "t": 1848.3,
      "ch": 1,
      "note": 36,
      "vel": 54,
      "dur": 25
    },
    {
      "t": 1848.3,
      "ch": 1,
      "note": 38,
      "vel": 74,
      "dur": 25
    },
    {
      "t": 1848.3,
      "ch": 1,
      "note": 40,
      "vel": 91,
      "dur": 25
    },
    {
      "t": 1848.3,
      "ch": 1,
      "note": 42,
      "vel": 66,
      "dur": 25
    },
    {
      "t": 1848.3,
      "ch": 1,
      "note": 36,
      "vel": 47,
      "dur": 25
    },
    {
      "t": 1848.3,
      "ch": 1,
      "note": 38,
      "vel": 76,
      "dur": 25
    },
    {
      "t": 1848.3,
      "ch": 1,
      "note": 40,
      "vel": 68,
      "dur": 25
    },
    {
      "t": 1848.3,
      "ch": 1,
      "note": 42,
      "vel": 65,
      "dur": 25
    },
    {
      "t": 1848.3,
      "ch": 1,
      "note": 36,
      "vel": 94,
      "dur": 25
    },
    {
      "t": 1848.3,
      "ch": 1,
      "note": 38,
      "vel": 72,
      "dur": 25
    },
    {
      "t": 1848.3,
      "ch": 1,
      "note": 40,
      "vel": 92,
      "dur": 25
    },
    {
      "t": 1848.3,
      "ch": 1,
      "note": 42,
      "vel": 94,
      "dur": 25
    },
    {
      "t": 1848.3,
      "ch": 1,
      "note": 36,
      "vel": 65,
      "dur": 25
    },
    {
      "t": 1848.3,
      "ch": 1,
      "note": 38,
      "vel": 84,
      "dur": 25
    },
    {
      "t": 1848.3,
      "ch": 1,
      "note": 40,
      "vel": 65,
      "dur": 25
    },
    {
      "t": 1848.3,
      "ch": 1,
      "note": 42,
      "vel": 71,
      "dur": 25
    },
    {
      "t": 1848.3,
      "ch": 1,
      "note": 36,
      "vel": 67,
      "dur": 25
    },
    {
      "t": 1848.3,
      "ch": 1,
      "note": 38,
      "vel": 63,
      "dur": 25
    },
    {
      "t": 1848.3,
      "ch": 1,
      "note": 40,
      "vel": 79,
      "dur": 25
    },
    {
      "t": 1848.3,
      "ch": 1,
      "note": 42,
      "vel": 52,
      "dur": 25
    },
    {
      "t": 1848.3,
      "ch": 1,
      "note": 36,
      "vel": 62,
      "dur": 25
    },
    {
      "t": 1848.3,
      "ch": 1,
      "note": 38,
      "vel": 79,
      "dur": 25
    },
    {
      "t": 1848.3,
      "ch": 1,
      "note": 40,
      "vel": 91,
      "dur": 25
    },
    {
      "t": 1848.3,
      "ch": 1,
      "note": 42,
      "vel": 66,
      "dur": 25
    },
    {
      "t": 1848.3,
      "ch": 1,
      "note": 36,
      "vel": 67,
      "dur": 25
    },
    {
      "t": 1848.3,
      "ch": 1,
      "note": 38,
      "vel": 84,
      "dur": 25
    },
    {
      "t": 1848.3,
      "ch": 1,
      "note": 40,
      "vel": 73,
      "dur": 25
    },
    {
      "t": 1848.3,
      "ch": 1,
      "note": 42,
      "vel": 85,
      "dur": 25
    },
    {
      "t": 1848.3,
      "ch": 1,
      "note": 36,
      "vel": 85,
      "dur": 25
    },
    {
      "t": 1848.3,
      "ch": 1,
      "note": 38,
      "vel": 74,
      "dur": 25
    },
    {
      "t": 1848.3,
      "ch": 1,
      "note": 40,
      "vel": 78,
      "dur": 25
    },
    {
      "t": 1848.3,
      "ch": 1,
      "note": 42,
      "vel": 84,
      "dur": 25
    },
    {
      "t": 1848.3,
      "ch": 1,
      "note": 36,
      "vel": 73,
      "dur": 25
    },
    {
      "t": 1848.3,
      "ch": 1,
      "note": 38,
      "vel": 72,
      "dur": 25
    },
    {
      "t": 1848.3,
      "ch": 1,
      "note": 40,
      "vel": 92,
      "dur": 25
    },
    {
      "t": 1848.3,
      "ch": 1,
      "note": 42,
      "vel": 54,
      "dur": 25
    },
    {
      "t": 1848.3,
      "ch": 1,
      "note": 36,
      "vel": 69,
      "dur": 25
    },
    {
      "t": 1848.3,
      "ch": 1,
      "note": 38,
      "vel": 59,
      "dur": 25
    },
    {
      "t": 1848.3,
      "ch": 1,
      "note": 40,
      "vel": 92,
      "dur": 25
    },
    {
      "t": 1848.3,
      "ch": 1,
      "note": 42,
      "vel": 75,
      "dur": 25
    },
    {
      "t": 1848.3,
      "ch": 1,
      "note": 36,
      "vel": 86,
      "dur": 25
    },
    {
      "t": 1848.3,
      "ch": 1,
      "note": 38,
      "vel": 64,
      "dur": 25
    },
    {
      "t": 1848.3,
      "ch": 1,
      "note": 40,
      "vel": 62,
      "dur": 25
    },
    {
      "t": 1848.3,
      "ch": 1,
      "note": 42,
      "vel": 76,
      "dur": 25
    },
    {
      "t": 1848.3,
      "ch": 1,
      "note": 36,
      "vel": 77,
      "dur": 25
    },
    {
      "t": 1848.3,
      "ch": 1,
      "note": 38,
      "vel": 49,
      "dur": 25
    },
    {
      "t": 1848.3,
      "ch": 1,
      "note": 40,
      "vel": 73,
      "dur": 25
    },
    {
      "t": 1848.3,
      "ch": 1,
      "note": 42,
      "vel": 85,
      "dur": 25
    },
    {
      "t": 1848.3,
      "ch": 1,
      "note": 36,
      "vel": 75,
      "dur": 25
    },
    {
      "t": 1848.3,
      "ch": 1,
      "note": 38,
      "vel": 62,
      "dur": 25
    },
    {
      "t": 1848.3,
      "ch": 1,
      "note": 40,
      "vel": 80,
      "dur": 25
    },
    {
      "t": 1848.3,
      "ch": 1,
      "note": 42,
      "vel": 52,
      "dur": 25
    },
    {
      "t": 1848.3,
      "ch": 1,
      "note": 36,
      "vel": 69,
      "dur": 25
    },
    {
      "t": 1848.3,
      "ch": 1,
      "note": 38,
      "vel": 62,
      "dur": 25
    },
    {
      "t": 1848.3,
      "ch": 1,
      "note": 40,
      "vel": 88,
      "dur": 25
    },
    {
      "t": 1848.3,
      "ch": 1,
      "note": 42,
      "vel": 66,
      "dur": 25
    },
    {
      "t": 1848.3,
      "ch": 1,
      "note": 36,
      "vel": 77,
      "dur": 25
    },
    {
      "t": 1848.3,
      "ch": 1,
      "note": 38,
      "vel": 94,
      "dur": 25
    },
    {
      "t": 1848.3,
      "ch": 1,
      "note": 40,
      "vel": 77,
      "dur": 25
    },
    {
      "t": 1848.3,
      "ch": 1,
      "note": 42,
      "vel": 70,
      "dur": 25
    },
    {
      "t": 1848.3,
      "ch": 1,
      "note": 36,
      "vel": 55,
      "dur": 25
    },
    {
      "t": 1848.3,
      "ch": 1,
      "note": 38,
      "vel": 78,
      "dur": 25
    },
    {
      "t": 1848.3,
      "ch": 1,
      "note": 40,
      "vel": 93,
      "dur": 25
    },
    {
      "t": 1848.3,
      "ch": 1,
      "note": 42,
      "vel": 76,
      "dur": 25
    },
    {
      "t": 1848.3,
      "ch": 1,
      "note": 36,
      "vel": 67,
      "dur": 25
    },
    {
      "t": 1848.3,
      "ch": 1,
      "note": 38,
      "vel": 75,
      "dur": 25
    },
    {
      "t": 1848.3,
      "ch": 1,
      "note": 40,
      "vel": 87,
      "dur": 25
    },
    {
      "t": 1848.3,
      "ch": 1,
      "note": 42,
      "vel": 70,
      "dur": 25
    },
    {
      "t": 1848.3,
      "ch": 1,
      "note": 36,
      "vel": 90,
      "dur": 25
    },
    {
      "t": 1848.3,
      "ch": 1,
      "note": 38,
      "vel": 74,
      "dur": 25
    },
    {
      "t": 1848.3,
      "ch": 1,
      "note": 40,
      "vel": 67,
      "dur": 25
    },
    {
      "t": 1848.3,
      "ch": 1,
      "note": 42,
      "vel": 74,
      "dur": 25
    },
    {
      "t": 1848.3,
      "ch": 1,
      "note": 36,
      "vel": 91,
      "dur": 25
    },
    {
      "t": 1848.3,
      "ch": 1,
      "note": 38,
      "vel": 73,
      "dur": 25
    },
    {
      "t": 1848.3,
      "ch": 1,
      "note": 40,
      "vel": 61,
      "dur": 25
    },
    {
      "t": 1848.3,
      "ch": 1,
      "note": 42,
      "vel": 95,
      "dur": 25
    },
    {
      "t": 1848.3,
      "ch": 1,
      "note": 36,
      "vel": 101,
      "dur": 25
    },
    {
      "t": 1848.3,
      "ch": 1,
      "note": 38,
      "vel": 74,
      "dur": 25
    },
    {
      "t": 1848.3,
      "ch": 1,
      "note": 40,
      "vel": 93,
      "dur": 25
    },
    {
      "t": 1848.3,
      "ch": 1,
      "note": 42,
      "vel": 64,
      "dur": 25
    },
    {
      "t": 1848.3,
      "ch": 1,
      "note": 36,
      "vel": 85,
      "dur": 25
    },
    {
      "t": 1848.3,
      "ch": 1,
      "note": 38,
      "vel": 54,
      "dur": 25
    },
    {
      "t": 1848.3,
      "ch": 1,
      "note": 40,
      "vel": 74,
      "dur": 25
    },
    {
      "t": 1848.3,
      "ch": 1,
      "note": 42,
      "vel": 58,
      "dur": 25
    },
    {
      "t": 1848.3,
      "ch": 1,
      "note": 36,
      "vel": 79,
      "dur": 25
    },
    {
      "t": 1848.3,
      "ch": 1,
      "note": 38,
      "vel": 84,
      "dur": 25
    },
    {
      "t": 1848.3,
      "ch": 1,
      "note": 40,
      "vel": 78,
      "dur": 25
    },
    {
      "t": 1848.3,
      "ch": 7,
      "note": 38,
      "vel": 57,
      "dur": 80
    },
    {
      "t": 1848.3,
      "ch": 1,
      "note": 42,
      "vel": 58,
      "dur": 25
    },
    {
      "t": 1848.4,
      "ch": 1,
      "note": 36,
      "vel": 75,
      "dur": 25
    },
    {
      "t": 1848.4,
      "ch": 1,
      "note": 38,
      "vel": 96,
      "dur": 25
    },
    {
      "t": 1848.5,
      "ch": 1,
      "note": 40,
      "vel": 77,
      "dur": 25
    },
    {
      "t": 1848.5,
      "ch": 2,
      "note": 49,
      "vel": 53,
      "dur": 18000
    },
    {
      "t": 1848.6,
      "ch": 1,
      "note": 42,
      "vel": 98,
      "dur": 25
    },
    {
      "t": 1848.6,
      "ch": 7,
      "note": 48,
      "vel": 66,
      "dur": 80
    },
    {
      "t": 1848.6,
      "ch": 7,
      "note": 36,
      "vel": 61,
      "dur": 80
    },
    {
      "t": 1848.6,
      "ch": 1,
      "note": 36,
      "vel": 69,
      "dur": 25
    },
    {
      "t": 1848.7,
      "ch": 1,
      "note": 38,
      "vel": 87,
      "dur": 25
    },
    {
      "t": 1848.8,
      "ch": 5,
      "note": 70,
      "vel": 34,
      "dur": 899
    },
    {
      "t": 1848.8,
      "ch": 1,
      "note": 40,
      "vel": 65,
      "dur": 25
    },
    {
      "t": 1848.9,
      "ch": 1,
      "note": 42,
      "vel": 78,
      "dur": 25
    },
    {
      "t": 1848.9,
      "ch": 7,
      "note": 45,
      "vel": 55,
      "dur": 80
    },
    {
      "t": 1848.9,
      "ch": 7,
      "note": 36,
      "vel": 55,
      "dur": 80
    },
    {
      "t": 1848.9,
      "ch": 7,
      "note": 38,
      "vel": 60,
      "dur": 80
    },
    {
      "t": 1848.9,
      "ch": 1,
      "note": 36,
      "vel": 65,
      "dur": 25
    },
    {
      "t": 1849,
      "ch": 1,
      "note": 38,
      "vel": 66,
      "dur": 25
    },
    {
      "t": 1849.1,
      "ch": 5,
      "note": 54,
      "vel": 31,
      "dur": 891
    },
    {
      "t": 1849.1,
      "ch": 1,
      "note": 40,
      "vel": 76,
      "dur": 25
    },
    {
      "t": 1849.2,
      "ch": 1,
      "note": 42,
      "vel": 71,
      "dur": 25
    },
    {
      "t": 1849.2,
      "ch": 7,
      "note": 48,
      "vel": 64,
      "dur": 80
    },
    {
      "t": 1849.2,
      "ch": 7,
      "note": 36,
      "vel": 75,
      "dur": 80
    },
    {
      "t": 1849.2,
      "ch": 6,
      "note": 73,
      "vel": 8,
      "dur": 400
    },
    {
      "t": 1849.3,
      "ch": 1,
      "note": 36,
      "vel": 80,
      "dur": 25
    },
    {
      "t": 1849.4,
      "ch": 1,
      "note": 38,
      "vel": 79,
      "dur": 25
    },
    {
      "t": 1849.4,
      "ch": 1,
      "note": 40,
      "vel": 64,
      "dur": 25
    },
    {
      "t": 1849.5,
      "ch": 1,
      "note": 42,
      "vel": 84,
      "dur": 25
    },
    {
      "t": 1849.6,
      "ch": 1,
      "note": 36,
      "vel": 59,
      "dur": 25
    },
    {
      "t": 1849.6,
      "ch": 1,
      "note": 38,
      "vel": 82,
      "dur": 25
    },
    {
      "t": 1849.7,
      "ch": 1,
      "note": 40,
      "vel": 66,
      "dur": 25
    },
    {
      "t": 1849.8,
      "ch": 0,
      "note": 36,
      "vel": 118,
      "dur": 55
    },
    {
      "t": 1849.8,
      "ch": 1,
      "note": 42,
      "vel": 91,
      "dur": 25
    },
    {
      "t": 1849.8,
      "ch": 7,
      "note": 48,
      "vel": 76,
      "dur": 80
    },
    {
      "t": 1849.8,
      "ch": 7,
      "note": 45,
      "vel": 78,
      "dur": 80
    },
    {
      "t": 1849.8,
      "ch": 7,
      "note": 36,
      "vel": 62,
      "dur": 80
    },
    {
      "t": 1849.8,
      "ch": 7,
      "note": 38,
      "vel": 74,
      "dur": 80
    },
    {
      "t": 1849.9,
      "ch": 1,
      "note": 36,
      "vel": 84,
      "dur": 25
    },
    {
      "t": 1850,
      "ch": 1,
      "note": 38,
      "vel": 96,
      "dur": 25
    },
    {
      "t": 1850,
      "ch": 1,
      "note": 40,
      "vel": 86,
      "dur": 25
    },
    {
      "t": 1850.1,
      "ch": 1,
      "note": 42,
      "vel": 58,
      "dur": 25
    },
    {
      "t": 1850.1,
      "ch": 7,
      "note": 36,
      "vel": 65,
      "dur": 80
    },
    {
      "t": 1850.1,
      "ch": 1,
      "note": 36,
      "vel": 92,
      "dur": 25
    },
    {
      "t": 1850.2,
      "ch": 1,
      "note": 38,
      "vel": 70,
      "dur": 25
    },
    {
      "t": 1850.3,
      "ch": 5,
      "note": 59,
      "vel": 26,
      "dur": 857
    },
    {
      "t": 1850.3,
      "ch": 1,
      "note": 40,
      "vel": 85,
      "dur": 25
    },
    {
      "t": 1850.4,
      "ch": 0,
      "note": 36,
      "vel": 90,
      "dur": 55
    },
    {
      "t": 1850.4,
      "ch": 1,
      "note": 42,
      "vel": 83,
      "dur": 25
    },
    {
      "t": 1850.4,
      "ch": 7,
      "note": 48,
      "vel": 83,
      "dur": 80
    },
    {
      "t": 1850.4,
      "ch": 7,
      "note": 36,
      "vel": 65,
      "dur": 80
    },
    {
      "t": 1850.4,
      "ch": 1,
      "note": 36,
      "vel": 94,
      "dur": 25
    },
    {
      "t": 1850.6,
      "ch": 1,
      "note": 38,
      "vel": 62,
      "dur": 25
    },
    {
      "t": 1850.6,
      "ch": 7,
      "note": 45,
      "vel": 63,
      "dur": 80
    },
    {
      "t": 1850.6,
      "ch": 7,
      "note": 38,
      "vel": 62,
      "dur": 80
    },
    {
      "t": 1850.6,
      "ch": 1,
      "note": 40,
      "vel": 79,
      "dur": 25
    },
    {
      "t": 1850.7,
      "ch": 6,
      "note": 63,
      "vel": 17,
      "dur": 400
    },
    {
      "t": 1850.7,
      "ch": 1,
      "note": 42,
      "vel": 91,
      "dur": 25
    },
    {
      "t": 1850.8,
      "ch": 1,
      "note": 36,
      "vel": 75,
      "dur": 25
    },
    {
      "t": 1850.9,
      "ch": 1,
      "note": 38,
      "vel": 62,
      "dur": 25
    },
    {
      "t": 1850.9,
      "ch": 1,
      "note": 40,
      "vel": 59,
      "dur": 25
    },
    {
      "t": 1851,
      "ch": 0,
      "note": 36,
      "vel": 96,
      "dur": 55
    },
    {
      "t": 1851,
      "ch": 1,
      "note": 42,
      "vel": 58,
      "dur": 25
    },
    {
      "t": 1851,
      "ch": 7,
      "note": 48,
      "vel": 76,
      "dur": 80
    },
    {
      "t": 1851,
      "ch": 7,
      "note": 36,
      "vel": 69,
      "dur": 80
    },
    {
      "t": 1851,
      "ch": 1,
      "note": 36,
      "vel": 77,
      "dur": 25
    },
    {
      "t": 1851.2,
      "ch": 1,
      "note": 38,
      "vel": 75,
      "dur": 25
    },
    {
      "t": 1851.2,
      "ch": 5,
      "note": 56,
      "vel": 38,
      "dur": 835
    },
    {
      "t": 1851.2,
      "ch": 1,
      "note": 40,
      "vel": 66,
      "dur": 25
    },
    {
      "t": 1851.3,
      "ch": 1,
      "note": 42,
      "vel": 75,
      "dur": 25
    },
    {
      "t": 1851.3,
      "ch": 7,
      "note": 45,
      "vel": 70,
      "dur": 80
    },
    {
      "t": 1851.3,
      "ch": 7,
      "note": 36,
      "vel": 55,
      "dur": 80
    },
    {
      "t": 1851.3,
      "ch": 7,
      "note": 38,
      "vel": 54,
      "dur": 80
    },
    {
      "t": 1851.3,
      "ch": 1,
      "note": 36,
      "vel": 92,
      "dur": 25
    },
    {
      "t": 1851.4,
      "ch": 1,
      "note": 38,
      "vel": 80,
      "dur": 25
    },
    {
      "t": 1851.5,
      "ch": 1,
      "note": 40,
      "vel": 76,
      "dur": 25
    },
    {
      "t": 1851.6,
      "ch": 0,
      "note": 36,
      "vel": 95,
      "dur": 55
    },
    {
      "t": 1851.6,
      "ch": 1,
      "note": 42,
      "vel": 99,
      "dur": 25
    },
    {
      "t": 1851.6,
      "ch": 7,
      "note": 48,
      "vel": 71,
      "dur": 80
    },
    {
      "t": 1851.6,
      "ch": 7,
      "note": 36,
      "vel": 78,
      "dur": 80
    },
    {
      "t": 1851.6,
      "ch": 6,
      "note": 73,
      "vel": 34,
      "dur": 550
    },
    {
      "t": 1851.6,
      "ch": 1,
      "note": 36,
      "vel": 106,
      "dur": 25
    },
    {
      "t": 1851.7,
      "ch": 1,
      "note": 38,
      "vel": 97,
      "dur": 25
    },
    {
      "t": 1851.8,
      "ch": 1,
      "note": 40,
      "vel": 81,
      "dur": 25
    },
    {
      "t": 1851.9,
      "ch": 1,
      "note": 42,
      "vel": 96,
      "dur": 25
    },
    {
      "t": 1851.9,
      "ch": 6,
      "note": 59,
      "vel": 35,
      "dur": 546
    },
    {
      "t": 1851.9,
      "ch": 1,
      "note": 36,
      "vel": 93,
      "dur": 25
    },
    {
      "t": 1852,
      "ch": 1,
      "note": 38,
      "vel": 107,
      "dur": 25
    },
    {
      "t": 1852.1,
      "ch": 1,
      "note": 40,
      "vel": 106,
      "dur": 25
    },
    {
      "t": 1852.2,
      "ch": 0,
      "note": 36,
      "vel": 116,
      "dur": 55
    },
    {
      "t": 1852.2,
      "ch": 1,
      "note": 42,
      "vel": 97,
      "dur": 25
    },
    {
      "t": 1852.2,
      "ch": 7,
      "note": 48,
      "vel": 64,
      "dur": 80
    },
    {
      "t": 1852.2,
      "ch": 7,
      "note": 45,
      "vel": 60,
      "dur": 80
    },
    {
      "t": 1852.2,
      "ch": 7,
      "note": 36,
      "vel": 73,
      "dur": 80
    },
    {
      "t": 1852.2,
      "ch": 7,
      "note": 38,
      "vel": 60,
      "dur": 80
    },
    {
      "t": 1852.3,
      "ch": 1,
      "note": 36,
      "vel": 103,
      "dur": 25
    },
    {
      "t": 1852.4,
      "ch": 1,
      "note": 38,
      "vel": 109,
      "dur": 25
    },
    {
      "t": 1852.4,
      "ch": 5,
      "note": 63,
      "vel": 32,
      "dur": 810
    },
    {
      "t": 1852.4,
      "ch": 1,
      "note": 40,
      "vel": 100,
      "dur": 25
    },
    {
      "t": 1852.5,
      "ch": 1,
      "note": 42,
      "vel": 104,
      "dur": 25
    },
    {
      "t": 1852.5,
      "ch": 7,
      "note": 36,
      "vel": 63,
      "dur": 80
    },
    {
      "t": 1852.5,
      "ch": 5,
      "note": 56,
      "vel": 47,
      "dur": 808
    },
    {
      "t": 1852.5,
      "ch": 6,
      "note": 63,
      "vel": 33,
      "dur": 538
    },
    {
      "t": 1852.5,
      "ch": 1,
      "note": 36,
      "vel": 104,
      "dur": 25
    },
    {
      "t": 1852.6,
      "ch": 1,
      "note": 38,
      "vel": 110,
      "dur": 25
    },
    {
      "t": 1852.7,
      "ch": 6,
      "note": 59,
      "vel": 20,
      "dur": 537
    },
    {
      "t": 1852.7,
      "ch": 1,
      "note": 40,
      "vel": 107,
      "dur": 25
    },
    {
      "t": 1852.8,
      "ch": 0,
      "note": 36,
      "vel": 102,
      "dur": 55
    },
    {
      "t": 1852.8,
      "ch": 1,
      "note": 42,
      "vel": 76,
      "dur": 25
    },
    {
      "t": 1852.8,
      "ch": 7,
      "note": 48,
      "vel": 74,
      "dur": 80
    },
    {
      "t": 1852.8,
      "ch": 7,
      "note": 36,
      "vel": 67,
      "dur": 80
    },
    {
      "t": 1852.8,
      "ch": 6,
      "note": 56,
      "vel": 47,
      "dur": 535
    },
    {
      "t": 1852.9,
      "ch": 1,
      "note": 36,
      "vel": 114,
      "dur": 25
    },
    {
      "t": 1852.9,
      "ch": 1,
      "note": 38,
      "vel": 91,
      "dur": 25
    },
    {
      "t": 1853,
      "ch": 7,
      "note": 38,
      "vel": 65,
      "dur": 80
    },
    {
      "t": 1853,
      "ch": 7,
      "note": 45,
      "vel": 64,
      "dur": 80
    },
    {
      "t": 1853,
      "ch": 1,
      "note": 40,
      "vel": 93,
      "dur": 25
    },
    {
      "t": 1853.1,
      "ch": 1,
      "note": 42,
      "vel": 105,
      "dur": 25
    },
    {
      "t": 1853.2,
      "ch": 1,
      "note": 36,
      "vel": 102,
      "dur": 25
    },
    {
      "t": 1853.2,
      "ch": 1,
      "note": 38,
      "vel": 94,
      "dur": 25
    },
    {
      "t": 1853.3,
      "ch": 1,
      "note": 40,
      "vel": 89,
      "dur": 25
    },
    {
      "t": 1853.4,
      "ch": 0,
      "note": 36,
      "vel": 88,
      "dur": 55
    },
    {
      "t": 1853.4,
      "ch": 1,
      "note": 42,
      "vel": 127,
      "dur": 25
    },
    {
      "t": 1853.4,
      "ch": 7,
      "note": 48,
      "vel": 74,
      "dur": 80
    },
    {
      "t": 1853.4,
      "ch": 7,
      "note": 36,
      "vel": 61,
      "dur": 80
    },
    {
      "t": 1853.5,
      "ch": 1,
      "note": 36,
      "vel": 112,
      "dur": 25
    },
    {
      "t": 1853.5,
      "ch": 1,
      "note": 38,
      "vel": 86,
      "dur": 25
    },
    {
      "t": 1853.6,
      "ch": 1,
      "note": 40,
      "vel": 99,
      "dur": 25
    },
    {
      "t": 1853.7,
      "ch": 1,
      "note": 42,
      "vel": 104,
      "dur": 25
    },
    {
      "t": 1853.7,
      "ch": 7,
      "note": 38,
      "vel": 61,
      "dur": 80
    },
    {
      "t": 1853.7,
      "ch": 7,
      "note": 45,
      "vel": 54,
      "dur": 80
    },
    {
      "t": 1853.7,
      "ch": 7,
      "note": 36,
      "vel": 50,
      "dur": 80
    },
    {
      "t": 1853.8,
      "ch": 1,
      "note": 36,
      "vel": 104,
      "dur": 25
    },
    {
      "t": 1853.9,
      "ch": 1,
      "note": 38,
      "vel": 103,
      "dur": 25
    },
    {
      "t": 1853.9,
      "ch": 1,
      "note": 40,
      "vel": 105,
      "dur": 25
    },
    {
      "t": 1854,
      "ch": 0,
      "note": 36,
      "vel": 91,
      "dur": 55
    },
    {
      "t": 1854,
      "ch": 1,
      "note": 42,
      "vel": 127,
      "dur": 25
    },
    {
      "t": 1854,
      "ch": 7,
      "note": 48,
      "vel": 71,
      "dur": 80
    },
    {
      "t": 1854,
      "ch": 7,
      "note": 36,
      "vel": 60,
      "dur": 80
    },
    {
      "t": 1854,
      "ch": 5,
      "note": 70,
      "vel": 79,
      "dur": 789
    },
    {
      "t": 1854.1,
      "ch": 1,
      "note": 36,
      "vel": 112,
      "dur": 25
    },
    {
      "t": 1854.2,
      "ch": 1,
      "note": 38,
      "vel": 106,
      "dur": 25
    },
    {
      "t": 1854.2,
      "ch": 1,
      "note": 40,
      "vel": 96,
      "dur": 25
    },
    {
      "t": 1854.3,
      "ch": 1,
      "note": 42,
      "vel": 106,
      "dur": 25
    },
    {
      "t": 1854.3,
      "ch": 6,
      "note": 73,
      "vel": 38,
      "dur": 524
    },
    {
      "t": 1854.3,
      "ch": 1,
      "note": 36,
      "vel": 117,
      "dur": 25
    },
    {
      "t": 1854.5,
      "ch": 1,
      "note": 38,
      "vel": 103,
      "dur": 25
    },
    {
      "t": 1854.5,
      "ch": 1,
      "note": 40,
      "vel": 85,
      "dur": 25
    },
    {
      "t": 1854.6,
      "ch": 0,
      "note": 36,
      "vel": 114,
      "dur": 55
    },
    {
      "t": 1854.6,
      "ch": 1,
      "note": 42,
      "vel": 102,
      "dur": 25
    },
    {
      "t": 1854.6,
      "ch": 7,
      "note": 48,
      "vel": 64,
      "dur": 80
    },
    {
      "t": 1854.6,
      "ch": 7,
      "note": 45,
      "vel": 80,
      "dur": 80
    },
    {
      "t": 1854.6,
      "ch": 7,
      "note": 36,
      "vel": 78,
      "dur": 80
    },
    {
      "t": 1854.6,
      "ch": 7,
      "note": 38,
      "vel": 77,
      "dur": 80
    },
    {
      "t": 1854.6,
      "ch": 1,
      "note": 36,
      "vel": 113,
      "dur": 25
    },
    {
      "t": 1854.8,
      "ch": 1,
      "note": 38,
      "vel": 93,
      "dur": 25
    },
    {
      "t": 1854.8,
      "ch": 6,
      "note": 61,
      "vel": 26,
      "dur": 522
    },
    {
      "t": 1854.8,
      "ch": 1,
      "note": 40,
      "vel": 100,
      "dur": 25
    },
    {
      "t": 1854.9,
      "ch": 1,
      "note": 42,
      "vel": 88,
      "dur": 25
    },
    {
      "t": 1854.9,
      "ch": 7,
      "note": 36,
      "vel": 51,
      "dur": 80
    },
    {
      "t": 1855,
      "ch": 1,
      "note": 36,
      "vel": 117,
      "dur": 25
    },
    {
      "t": 1855.1,
      "ch": 1,
      "note": 38,
      "vel": 114,
      "dur": 25
    },
    {
      "t": 1855.1,
      "ch": 1,
      "note": 40,
      "vel": 89,
      "dur": 25
    },
    {
      "t": 1855.2,
      "ch": 0,
      "note": 36,
      "vel": 98,
      "dur": 55
    },
    {
      "t": 1855.2,
      "ch": 1,
      "note": 42,
      "vel": 102,
      "dur": 25
    },
    {
      "t": 1855.2,
      "ch": 7,
      "note": 48,
      "vel": 75,
      "dur": 80
    },
    {
      "t": 1855.2,
      "ch": 7,
      "note": 36,
      "vel": 76,
      "dur": 80
    },
    {
      "t": 1855.3,
      "ch": 1,
      "note": 36,
      "vel": 109,
      "dur": 25
    },
    {
      "t": 1855.3,
      "ch": 1,
      "note": 38,
      "vel": 100,
      "dur": 25
    },
    {
      "t": 1855.4,
      "ch": 7,
      "note": 38,
      "vel": 65,
      "dur": 80
    },
    {
      "t": 1855.4,
      "ch": 7,
      "note": 45,
      "vel": 60,
      "dur": 80
    },
    {
      "t": 1855.4,
      "ch": 1,
      "note": 40,
      "vel": 102,
      "dur": 25
    },
    {
      "t": 1855.5,
      "ch": 1,
      "note": 42,
      "vel": 96,
      "dur": 25
    },
    {
      "t": 1855.6,
      "ch": 1,
      "note": 36,
      "vel": 103,
      "dur": 25
    },
    {
      "t": 1855.7,
      "ch": 1,
      "note": 38,
      "vel": 97,
      "dur": 25
    },
    {
      "t": 1855.7,
      "ch": 1,
      "note": 40,
      "vel": 92,
      "dur": 25
    },
    {
      "t": 1855.8,
      "ch": 0,
      "note": 36,
      "vel": 91,
      "dur": 55
    },
    {
      "t": 1855.8,
      "ch": 1,
      "note": 42,
      "vel": 95,
      "dur": 25
    },
    {
      "t": 1855.8,
      "ch": 7,
      "note": 48,
      "vel": 58,
      "dur": 80
    },
    {
      "t": 1855.8,
      "ch": 7,
      "note": 36,
      "vel": 63,
      "dur": 80
    },
    {
      "t": 1855.9,
      "ch": 1,
      "note": 36,
      "vel": 106,
      "dur": 25
    },
    {
      "t": 1855.9,
      "ch": 1,
      "note": 38,
      "vel": 109,
      "dur": 25
    },
    {
      "t": 1856,
      "ch": 5,
      "note": 54,
      "vel": 42,
      "dur": 778
    },
    {
      "t": 1856,
      "ch": 1,
      "note": 40,
      "vel": 96,
      "dur": 25
    },
    {
      "t": 1856.1,
      "ch": 1,
      "note": 42,
      "vel": 98,
      "dur": 25
    },
    {
      "t": 1856.1,
      "ch": 7,
      "note": 45,
      "vel": 63,
      "dur": 80
    },
    {
      "t": 1856.1,
      "ch": 7,
      "note": 36,
      "vel": 56,
      "dur": 80
    },
    {
      "t": 1856.1,
      "ch": 7,
      "note": 38,
      "vel": 62,
      "dur": 80
    },
    {
      "t": 1856.2,
      "ch": 5,
      "note": 59,
      "vel": 50,
      "dur": 777
    },
    {
      "t": 1856.2,
      "ch": 1,
      "note": 36,
      "vel": 102,
      "dur": 25
    },
    {
      "t": 1856.2,
      "ch": 1,
      "note": 38,
      "vel": 99,
      "dur": 25
    },
    {
      "t": 1856.3,
      "ch": 1,
      "note": 40,
      "vel": 98,
      "dur": 25
    },
    {
      "t": 1856.4,
      "ch": 0,
      "note": 36,
      "vel": 93,
      "dur": 55
    },
    {
      "t": 1856.4,
      "ch": 1,
      "note": 42,
      "vel": 106,
      "dur": 25
    },
    {
      "t": 1856.4,
      "ch": 7,
      "note": 48,
      "vel": 69,
      "dur": 80
    },
    {
      "t": 1856.4,
      "ch": 7,
      "note": 36,
      "vel": 54,
      "dur": 80
    },
    {
      "t": 1856.4,
      "ch": 1,
      "note": 36,
      "vel": 125,
      "dur": 25
    },
    {
      "t": 1856.5,
      "ch": 1,
      "note": 38,
      "vel": 79,
      "dur": 25
    },
    {
      "t": 1856.6,
      "ch": 1,
      "note": 40,
      "vel": 101,
      "dur": 25
    },
    {
      "t": 1856.7,
      "ch": 1,
      "note": 42,
      "vel": 91,
      "dur": 25
    },
    {
      "t": 1856.8,
      "ch": 1,
      "note": 36,
      "vel": 94,
      "dur": 25
    },
    {
      "t": 1856.9,
      "ch": 1,
      "note": 38,
      "vel": 91,
      "dur": 25
    },
    {
      "t": 1856.9,
      "ch": 1,
      "note": 40,
      "vel": 101,
      "dur": 25
    },
    {
      "t": 1856.9,
      "ch": 5,
      "note": 56,
      "vel": 62,
      "dur": 777
    },
    {
      "t": 1856.9,
      "ch": 6,
      "note": 59,
      "vel": 27,
      "dur": 518
    },
    {
      "t": 1857,
      "ch": 1,
      "note": 42,
      "vel": 93,
      "dur": 25
    },
    {
      "t": 1857,
      "ch": 7,
      "note": 48,
      "vel": 72,
      "dur": 80
    },
    {
      "t": 1857,
      "ch": 7,
      "note": 45,
      "vel": 65,
      "dur": 80
    },
    {
      "t": 1857,
      "ch": 7,
      "note": 36,
      "vel": 72,
      "dur": 80
    },
    {
      "t": 1857,
      "ch": 7,
      "note": 38,
      "vel": 62,
      "dur": 80
    },
    {
      "t": 1857.1,
      "ch": 1,
      "note": 36,
      "vel": 103,
      "dur": 25
    },
    {
      "t": 1857.2,
      "ch": 1,
      "note": 38,
      "vel": 81,
      "dur": 25
    },
    {
      "t": 1857.2,
      "ch": 1,
      "note": 40,
      "vel": 87,
      "dur": 25
    },
    {
      "t": 1857.3,
      "ch": 1,
      "note": 42,
      "vel": 97,
      "dur": 25
    },
    {
      "t": 1857.3,
      "ch": 1,
      "note": 36,
      "vel": 106,
      "dur": 25
    },
    {
      "t": 1857.3,
      "ch": 7,
      "note": 36,
      "vel": 65,
      "dur": 80
    },
    {
      "t": 1857.5,
      "ch": 1,
      "note": 38,
      "vel": 90,
      "dur": 25
    },
    {
      "t": 1857.5,
      "ch": 1,
      "note": 40,
      "vel": 92,
      "dur": 25
    },
    {
      "t": 1857.5,
      "ch": 6,
      "note": 66,
      "vel": 42,
      "dur": 518
    },
    {
      "t": 1857.6,
      "ch": 1,
      "note": 42,
      "vel": 95,
      "dur": 25
    },
    {
      "t": 1857.6,
      "ch": 7,
      "note": 48,
      "vel": 64,
      "dur": 80
    },
    {
      "t": 1857.6,
      "ch": 7,
      "note": 36,
      "vel": 70,
      "dur": 80
    },
    {
      "t": 1857.7,
      "ch": 1,
      "note": 36,
      "vel": 109,
      "dur": 25
    },
    {
      "t": 1857.8,
      "ch": 1,
      "note": 38,
      "vel": 91,
      "dur": 25
    },
    {
      "t": 1857.8,
      "ch": 1,
      "note": 40,
      "vel": 96,
      "dur": 25
    },
    {
      "t": 1857.8,
      "ch": 7,
      "note": 38,
      "vel": 53,
      "dur": 80
    },
    {
      "t": 1857.8,
      "ch": 7,
      "note": 45,
      "vel": 65,
      "dur": 80
    },
    {
      "t": 1857.9,
      "ch": 1,
      "note": 42,
      "vel": 92,
      "dur": 25
    },
    {
      "t": 1858,
      "ch": 1,
      "note": 36,
      "vel": 78,
      "dur": 25
    },
    {
      "t": 1858.1,
      "ch": 1,
      "note": 38,
      "vel": 81,
      "dur": 25
    },
    {
      "t": 1858.1,
      "ch": 1,
      "note": 40,
      "vel": 77,
      "dur": 25
    },
    {
      "t": 1858.1,
      "ch": 2,
      "note": 49,
      "vel": 57,
      "dur": 18000
    },
    {
      "t": 1858.1,
      "ch": 2,
      "note": 61,
      "vel": 40,
      "dur": 18000
    },
    {
      "t": 1858.1,
      "ch": 4,
      "note": 58,
      "vel": 67,
      "dur": 2350
    },
    {
      "t": 1858.2,
      "ch": 6,
      "note": 71,
      "vel": 48,
      "dur": 519
    },
    {
      "t": 1858.2,
      "ch": 1,
      "note": 42,
      "vel": 99,
      "dur": 25
    },
    {
      "t": 1858.2,
      "ch": 7,
      "note": 48,
      "vel": 67,
      "dur": 80
    },
    {
      "t": 1858.2,
      "ch": 7,
      "note": 36,
      "vel": 70,
      "dur": 80
    },
    {
      "t": 1858.2,
      "ch": 1,
      "note": 36,
      "vel": 108,
      "dur": 25
    },
    {
      "t": 1858.3,
      "ch": 5,
      "note": 63,
      "vel": 74,
      "dur": 778
    },
    {
      "t": 1858.4,
      "ch": 1,
      "note": 38,
      "vel": 90,
      "dur": 25
    },
    {
      "t": 1858.4,
      "ch": 1,
      "note": 40,
      "vel": 83,
      "dur": 25
    },
    {
      "t": 1858.6,
      "ch": 1,
      "note": 42,
      "vel": 96,
      "dur": 25
    },
    {
      "t": 1858.6,
      "ch": 1,
      "note": 36,
      "vel": 76,
      "dur": 25
    },
    {
      "t": 1858.7,
      "ch": 7,
      "note": 38,
      "vel": 53,
      "dur": 80
    },
    {
      "t": 1858.7,
      "ch": 7,
      "note": 45,
      "vel": 57,
      "dur": 80
    },
    {
      "t": 1858.7,
      "ch": 7,
      "note": 36,
      "vel": 65,
      "dur": 80
    },
    {
      "t": 1858.7,
      "ch": 6,
      "note": 70,
      "vel": 63,
      "dur": 400
    },
    {
      "t": 1858.7,
      "ch": 1,
      "note": 38,
      "vel": 94,
      "dur": 25
    },
    {
      "t": 1858.7,
      "ch": 1,
      "note": 40,
      "vel": 95,
      "dur": 25
    },
    {
      "t": 1858.8,
      "ch": 5,
      "note": 56,
      "vel": 60,
      "dur": 780
    },
    {
      "t": 1858.9,
      "ch": 1,
      "note": 42,
      "vel": 98,
      "dur": 25
    },
    {
      "t": 1858.9,
      "ch": 7,
      "note": 48,
      "vel": 75,
      "dur": 80
    },
    {
      "t": 1858.9,
      "ch": 7,
      "note": 36,
      "vel": 69,
      "dur": 80
    },
    {
      "t": 1858.9,
      "ch": 1,
      "note": 36,
      "vel": 97,
      "dur": 25
    },
    {
      "t": 1858.9,
      "ch": 1,
      "note": 38,
      "vel": 76,
      "dur": 25
    },
    {
      "t": 1859,
      "ch": 1,
      "note": 40,
      "vel": 82,
      "dur": 25
    },
    {
      "t": 1859.1,
      "ch": 1,
      "note": 42,
      "vel": 76,
      "dur": 25
    },
    {
      "t": 1859.2,
      "ch": 1,
      "note": 36,
      "vel": 83,
      "dur": 25
    },
    {
      "t": 1859.3,
      "ch": 1,
      "note": 38,
      "vel": 92,
      "dur": 25
    },
    {
      "t": 1859.3,
      "ch": 1,
      "note": 40,
      "vel": 101,
      "dur": 25
    },
    {
      "t": 1859.4,
      "ch": 1,
      "note": 42,
      "vel": 116,
      "dur": 25
    },
    {
      "t": 1859.4,
      "ch": 7,
      "note": 48,
      "vel": 70,
      "dur": 80
    },
    {
      "t": 1859.4,
      "ch": 7,
      "note": 45,
      "vel": 71,
      "dur": 80
    },
    {
      "t": 1859.4,
      "ch": 7,
      "note": 36,
      "vel": 57,
      "dur": 80
    },
    {
      "t": 1859.4,
      "ch": 7,
      "note": 38,
      "vel": 53,
      "dur": 80
    },
    {
      "t": 1859.5,
      "ch": 1,
      "note": 36,
      "vel": 93,
      "dur": 25
    },
    {
      "t": 1859.6,
      "ch": 1,
      "note": 38,
      "vel": 120,
      "dur": 25
    },
    {
      "t": 1859.6,
      "ch": 1,
      "note": 40,
      "vel": 91,
      "dur": 25
    },
    {
      "t": 1859.7,
      "ch": 1,
      "note": 42,
      "vel": 85,
      "dur": 25
    },
    {
      "t": 1859.8,
      "ch": 1,
      "note": 36,
      "vel": 79,
      "dur": 25
    },
    {
      "t": 1859.9,
      "ch": 7,
      "note": 36,
      "vel": 59,
      "dur": 80
    },
    {
      "t": 1859.9,
      "ch": 1,
      "note": 38,
      "vel": 103,
      "dur": 25
    },
    {
      "t": 1859.9,
      "ch": 1,
      "note": 40,
      "vel": 61,
      "dur": 25
    },
    {
      "t": 1860,
      "ch": 6,
      "note": 59,
      "vel": 39,
      "dur": 522
    },
    {
      "t": 1860,
      "ch": 1,
      "note": 42,
      "vel": 112,
      "dur": 25
    },
    {
      "t": 1860,
      "ch": 7,
      "note": 48,
      "vel": 76,
      "dur": 80
    },
    {
      "t": 1860,
      "ch": 7,
      "note": 36,
      "vel": 71,
      "dur": 80
    },
    {
      "t": 1860.1,
      "ch": 1,
      "note": 36,
      "vel": 104,
      "dur": 25
    },
    {
      "t": 1860.2,
      "ch": 1,
      "note": 38,
      "vel": 92,
      "dur": 25
    },
    {
      "t": 1860.3,
      "ch": 1,
      "note": 40,
      "vel": 93,
      "dur": 25
    },
    {
      "t": 1860.3,
      "ch": 7,
      "note": 45,
      "vel": 64,
      "dur": 80
    },
    {
      "t": 1860.3,
      "ch": 7,
      "note": 38,
      "vel": 57,
      "dur": 80
    },
    {
      "t": 1860.3,
      "ch": 5,
      "note": 63,
      "vel": 44,
      "dur": 785
    },
    {
      "t": 1860.3,
      "ch": 1,
      "note": 42,
      "vel": 86,
      "dur": 25
    },
    {
      "t": 1860.4,
      "ch": 1,
      "note": 36,
      "vel": 72,
      "dur": 25
    },
    {
      "t": 1860.5,
      "ch": 1,
      "note": 38,
      "vel": 102,
      "dur": 25
    },
    {
      "t": 1860.6,
      "ch": 1,
      "note": 40,
      "vel": 115,
      "dur": 25
    },
    {
      "t": 1860.6,
      "ch": 4,
      "note": 59,
      "vel": 49,
      "dur": 2350
    },
    {
      "t": 1860.6,
      "ch": 1,
      "note": 42,
      "vel": 106,
      "dur": 25
    },
    {
      "t": 1860.6,
      "ch": 7,
      "note": 48,
      "vel": 82,
      "dur": 80
    },
    {
      "t": 1860.6,
      "ch": 7,
      "note": 36,
      "vel": 74,
      "dur": 80
    },
    {
      "t": 1860.7,
      "ch": 1,
      "note": 36,
      "vel": 121,
      "dur": 25
    },
    {
      "t": 1860.8,
      "ch": 1,
      "note": 38,
      "vel": 84,
      "dur": 25
    },
    {
      "t": 1860.8,
      "ch": 1,
      "note": 40,
      "vel": 97,
      "dur": 25
    },
    {
      "t": 1861,
      "ch": 1,
      "note": 42,
      "vel": 97,
      "dur": 25
    },
    {
      "t": 1861,
      "ch": 1,
      "note": 36,
      "vel": 102,
      "dur": 25
    },
    {
      "t": 1861,
      "ch": 7,
      "note": 45,
      "vel": 58,
      "dur": 80
    },
    {
      "t": 1861,
      "ch": 7,
      "note": 36,
      "vel": 67,
      "dur": 80
    },
    {
      "t": 1861,
      "ch": 7,
      "note": 38,
      "vel": 55,
      "dur": 80
    },
    {
      "t": 1861.1,
      "ch": 1,
      "note": 38,
      "vel": 94,
      "dur": 25
    },
    {
      "t": 1861.1,
      "ch": 1,
      "note": 40,
      "vel": 98,
      "dur": 25
    },
    {
      "t": 1861.3,
      "ch": 1,
      "note": 42,
      "vel": 113,
      "dur": 25
    },
    {
      "t": 1861.3,
      "ch": 7,
      "note": 48,
      "vel": 74,
      "dur": 80
    },
    {
      "t": 1861.3,
      "ch": 7,
      "note": 36,
      "vel": 77,
      "dur": 80
    },
    {
      "t": 1861.3,
      "ch": 1,
      "note": 36,
      "vel": 115,
      "dur": 25
    },
    {
      "t": 1861.4,
      "ch": 6,
      "note": 59,
      "vel": 41,
      "dur": 525
    },
    {
      "t": 1861.4,
      "ch": 1,
      "note": 38,
      "vel": 94,
      "dur": 25
    },
    {
      "t": 1861.4,
      "ch": 1,
      "note": 40,
      "vel": 88,
      "dur": 25
    },
    {
      "t": 1861.6,
      "ch": 1,
      "note": 42,
      "vel": 96,
      "dur": 25
    },
    {
      "t": 1861.6,
      "ch": 1,
      "note": 36,
      "vel": 72,
      "dur": 25
    },
    {
      "t": 1861.6,
      "ch": 5,
      "note": 56,
      "vel": 54,
      "dur": 789
    },
    {
      "t": 1861.6,
      "ch": 6,
      "note": 51,
      "vel": 50,
      "dur": 526
    },
    {
      "t": 1861.7,
      "ch": 1,
      "note": 38,
      "vel": 91,
      "dur": 25
    },
    {
      "t": 1861.7,
      "ch": 1,
      "note": 40,
      "vel": 87,
      "dur": 25
    },
    {
      "t": 1861.9,
      "ch": 5,
      "note": 52,
      "vel": 57,
      "dur": 790
    },
    {
      "t": 1861.9,
      "ch": 1,
      "note": 42,
      "vel": 95,
      "dur": 25
    },
    {
      "t": 1861.9,
      "ch": 7,
      "note": 48,
      "vel": 73,
      "dur": 80
    },
    {
      "t": 1861.9,
      "ch": 7,
      "note": 45,
      "vel": 65,
      "dur": 80
    },
    {
      "t": 1861.9,
      "ch": 7,
      "note": 36,
      "vel": 75,
      "dur": 80
    },
    {
      "t": 1861.9,
      "ch": 7,
      "note": 38,
      "vel": 71,
      "dur": 80
    },
    {
      "t": 1861.9,
      "ch": 1,
      "note": 36,
      "vel": 109,
      "dur": 25
    },
    {
      "t": 1861.9,
      "ch": 6,
      "note": 59,
      "vel": 43,
      "dur": 400
    },
    {
      "t": 1862,
      "ch": 1,
      "note": 38,
      "vel": 99,
      "dur": 25
    },
    {
      "t": 1862,
      "ch": 1,
      "note": 40,
      "vel": 86,
      "dur": 25
    },
    {
      "t": 1862.2,
      "ch": 1,
      "note": 42,
      "vel": 70,
      "dur": 25
    },
    {
      "t": 1862.2,
      "ch": 1,
      "note": 36,
      "vel": 69,
      "dur": 25
    },
    {
      "t": 1862.2,
      "ch": 7,
      "note": 36,
      "vel": 51,
      "dur": 80
    },
    {
      "t": 1862.2,
      "ch": 1,
      "note": 38,
      "vel": 95,
      "dur": 25
    },
    {
      "t": 1862.2,
      "ch": 5,
      "note": 49,
      "vel": 57,
      "dur": 791
    },
    {
      "t": 1862.3,
      "ch": 1,
      "note": 40,
      "vel": 104,
      "dur": 25
    },
    {
      "t": 1862.4,
      "ch": 1,
      "note": 42,
      "vel": 93,
      "dur": 25
    },
    {
      "t": 1862.4,
      "ch": 7,
      "note": 48,
      "vel": 75,
      "dur": 80
    },
    {
      "t": 1862.4,
      "ch": 7,
      "note": 36,
      "vel": 69,
      "dur": 80
    },
    {
      "t": 1862.5,
      "ch": 1,
      "note": 36,
      "vel": 87,
      "dur": 25
    },
    {
      "t": 1862.6,
      "ch": 1,
      "note": 38,
      "vel": 100,
      "dur": 25
    },
    {
      "t": 1862.6,
      "ch": 1,
      "note": 40,
      "vel": 73,
      "dur": 25
    },
    {
      "t": 1862.6,
      "ch": 7,
      "note": 38,
      "vel": 50,
      "dur": 80
    },
    {
      "t": 1862.6,
      "ch": 7,
      "note": 45,
      "vel": 62,
      "dur": 80
    },
    {
      "t": 1862.6,
      "ch": 6,
      "note": 59,
      "vel": 70,
      "dur": 528
    },
    {
      "t": 1862.7,
      "ch": 1,
      "note": 42,
      "vel": 86,
      "dur": 25
    },
    {
      "t": 1862.8,
      "ch": 1,
      "note": 36,
      "vel": 86,
      "dur": 25
    },
    {
      "t": 1862.9,
      "ch": 6,
      "note": 66,
      "vel": 39,
      "dur": 528
    },
    {
      "t": 1862.9,
      "ch": 1,
      "note": 38,
      "vel": 82,
      "dur": 25
    },
    {
      "t": 1862.9,
      "ch": 1,
      "note": 40,
      "vel": 88,
      "dur": 25
    },
    {
      "t": 1862.9,
      "ch": 4,
      "note": 58,
      "vel": 63,
      "dur": 2350
    },
    {
      "t": 1863,
      "ch": 1,
      "note": 42,
      "vel": 94,
      "dur": 25
    },
    {
      "t": 1863,
      "ch": 7,
      "note": 48,
      "vel": 64,
      "dur": 80
    },
    {
      "t": 1863,
      "ch": 7,
      "note": 36,
      "vel": 72,
      "dur": 80
    },
    {
      "t": 1863.1,
      "ch": 1,
      "note": 36,
      "vel": 123,
      "dur": 25
    },
    {
      "t": 1863.1,
      "ch": 5,
      "note": 49,
      "vel": 71,
      "dur": 793
    },
    {
      "t": 1863.2,
      "ch": 1,
      "note": 38,
      "vel": 86,
      "dur": 25
    },
    {
      "t": 1863.3,
      "ch": 1,
      "note": 40,
      "vel": 88,
      "dur": 25
    },
    {
      "t": 1863.3,
      "ch": 1,
      "note": 42,
      "vel": 96,
      "dur": 25
    },
    {
      "t": 1863.4,
      "ch": 7,
      "note": 38,
      "vel": 64,
      "dur": 80
    },
    {
      "t": 1863.4,
      "ch": 1,
      "note": 36,
      "vel": 86,
      "dur": 25
    },
    {
      "t": 1863.5,
      "ch": 7,
      "note": 45,
      "vel": 66,
      "dur": 80
    },
    {
      "t": 1863.5,
      "ch": 7,
      "note": 36,
      "vel": 57,
      "dur": 80
    },
    {
      "t": 1863.5,
      "ch": 1,
      "note": 38,
      "vel": 101,
      "dur": 25
    },
    {
      "t": 1863.6,
      "ch": 6,
      "note": 54,
      "vel": 30,
      "dur": 400
    },
    {
      "t": 1863.6,
      "ch": 1,
      "note": 40,
      "vel": 87,
      "dur": 25
    },
    {
      "t": 1863.6,
      "ch": 5,
      "note": 56,
      "vel": 49,
      "dur": 793
    },
    {
      "t": 1863.6,
      "ch": 1,
      "note": 42,
      "vel": 96,
      "dur": 25
    },
    {
      "t": 1863.6,
      "ch": 7,
      "note": 48,
      "vel": 69,
      "dur": 80
    },
    {
      "t": 1863.6,
      "ch": 7,
      "note": 36,
      "vel": 56,
      "dur": 80
    },
    {
      "t": 1863.7,
      "ch": 1,
      "note": 36,
      "vel": 96,
      "dur": 25
    },
    {
      "t": 1863.8,
      "ch": 1,
      "note": 38,
      "vel": 96,
      "dur": 25
    },
    {
      "t": 1863.8,
      "ch": 1,
      "note": 40,
      "vel": 104,
      "dur": 25
    },
    {
      "t": 1864,
      "ch": 1,
      "note": 42,
      "vel": 106,
      "dur": 25
    },
    {
      "t": 1864,
      "ch": 1,
      "note": 36,
      "vel": 99,
      "dur": 25
    },
    {
      "t": 1864.1,
      "ch": 1,
      "note": 38,
      "vel": 84,
      "dur": 25
    },
    {
      "t": 1864.1,
      "ch": 1,
      "note": 40,
      "vel": 80,
      "dur": 25
    },
    {
      "t": 1864.3,
      "ch": 0,
      "note": 36,
      "vel": 127,
      "dur": 55
    },
    {
      "t": 1864.3,
      "ch": 1,
      "note": 42,
      "vel": 96,
      "dur": 25
    },
    {
      "t": 1864.3,
      "ch": 7,
      "note": 48,
      "vel": 72,
      "dur": 80
    },
    {
      "t": 1864.3,
      "ch": 7,
      "note": 45,
      "vel": 73,
      "dur": 80
    },
    {
      "t": 1864.3,
      "ch": 7,
      "note": 36,
      "vel": 76,
      "dur": 80
    },
    {
      "t": 1864.3,
      "ch": 7,
      "note": 38,
      "vel": 76,
      "dur": 80
    },
    {
      "t": 1864.3,
      "ch": 1,
      "note": 36,
      "vel": 108,
      "dur": 25
    },
    {
      "t": 1864.4,
      "ch": 1,
      "note": 38,
      "vel": 110,
      "dur": 25
    },
    {
      "t": 1864.4,
      "ch": 1,
      "note": 40,
      "vel": 118,
      "dur": 25
    },
    {
      "t": 1864.5,
      "ch": 6,
      "note": 59,
      "vel": 61,
      "dur": 529
    },
    {
      "t": 1864.5,
      "ch": 5,
      "note": 63,
      "vel": 58,
      "dur": 794
    },
    {
      "t": 1864.5,
      "ch": 1,
      "note": 42,
      "vel": 73,
      "dur": 25
    },
    {
      "t": 1864.6,
      "ch": 1,
      "note": 36,
      "vel": 79,
      "dur": 25
    },
    {
      "t": 1864.7,
      "ch": 7,
      "note": 36,
      "vel": 55,
      "dur": 80
    },
    {
      "t": 1864.7,
      "ch": 1,
      "note": 38,
      "vel": 80,
      "dur": 25
    },
    {
      "t": 1864.7,
      "ch": 1,
      "note": 40,
      "vel": 71,
      "dur": 25
    },
    {
      "t": 1864.8,
      "ch": 0,
      "note": 36,
      "vel": 87,
      "dur": 55
    },
    {
      "t": 1864.8,
      "ch": 1,
      "note": 42,
      "vel": 98,
      "dur": 25
    },
    {
      "t": 1864.8,
      "ch": 7,
      "note": 48,
      "vel": 76,
      "dur": 80
    },
    {
      "t": 1864.8,
      "ch": 7,
      "note": 36,
      "vel": 67,
      "dur": 80
    },
    {
      "t": 1864.9,
      "ch": 1,
      "note": 36,
      "vel": 112,
      "dur": 25
    },
    {
      "t": 1865,
      "ch": 1,
      "note": 38,
      "vel": 85,
      "dur": 25
    },
    {
      "t": 1865,
      "ch": 1,
      "note": 40,
      "vel": 86,
      "dur": 25
    },
    {
      "t": 1865,
      "ch": 7,
      "note": 45,
      "vel": 68,
      "dur": 80
    },
    {
      "t": 1865,
      "ch": 7,
      "note": 38,
      "vel": 59,
      "dur": 80
    },
    {
      "t": 1865.1,
      "ch": 1,
      "note": 42,
      "vel": 63,
      "dur": 25
    },
    {
      "t": 1865.1,
      "ch": 1,
      "note": 36,
      "vel": 98,
      "dur": 25
    },
    {
      "t": 1865.2,
      "ch": 1,
      "note": 38,
      "vel": 72,
      "dur": 25
    },
    {
      "t": 1865.3,
      "ch": 1,
      "note": 40,
      "vel": 95,
      "dur": 25
    },
    {
      "t": 1865.3,
      "ch": 4,
      "note": 58,
      "vel": 63,
      "dur": 2350
    },
    {
      "t": 1865.3,
      "ch": 3,
      "note": 35,
      "vel": 51,
      "dur": 2400
    },
    {
      "t": 1865.4,
      "ch": 0,
      "note": 36,
      "vel": 88,
      "dur": 55
    },
    {
      "t": 1865.4,
      "ch": 1,
      "note": 42,
      "vel": 83,
      "dur": 25
    },
    {
      "t": 1865.4,
      "ch": 7,
      "note": 48,
      "vel": 69,
      "dur": 80
    },
    {
      "t": 1865.4,
      "ch": 7,
      "note": 36,
      "vel": 61,
      "dur": 80
    },
    {
      "t": 1865.5,
      "ch": 1,
      "note": 36,
      "vel": 83,
      "dur": 25
    },
    {
      "t": 1865.5,
      "ch": 5,
      "note": 56,
      "vel": 57,
      "dur": 793
    },
    {
      "t": 1865.6,
      "ch": 1,
      "note": 38,
      "vel": 94,
      "dur": 25
    },
    {
      "t": 1865.6,
      "ch": 1,
      "note": 40,
      "vel": 93,
      "dur": 25
    },
    {
      "t": 1865.7,
      "ch": 6,
      "note": 61,
      "vel": 34,
      "dur": 400
    },
    {
      "t": 1865.7,
      "ch": 1,
      "note": 42,
      "vel": 70,
      "dur": 25
    },
    {
      "t": 1865.8,
      "ch": 7,
      "note": 36,
      "vel": 62,
      "dur": 80
    },
    {
      "t": 1865.8,
      "ch": 1,
      "note": 36,
      "vel": 87,
      "dur": 25
    },
    {
      "t": 1865.8,
      "ch": 7,
      "note": 38,
      "vel": 57,
      "dur": 80
    },
    {
      "t": 1865.8,
      "ch": 7,
      "note": 45,
      "vel": 58,
      "dur": 80
    },
    {
      "t": 1865.8,
      "ch": 6,
      "note": 56,
      "vel": 71,
      "dur": 528
    },
    {
      "t": 1865.9,
      "ch": 1,
      "note": 38,
      "vel": 86,
      "dur": 25
    },
    {
      "t": 1865.9,
      "ch": 1,
      "note": 40,
      "vel": 101,
      "dur": 25
    },
    {
      "t": 1866,
      "ch": 6,
      "note": 52,
      "vel": 57,
      "dur": 528
    },
    {
      "t": 1866,
      "ch": 5,
      "note": 52,
      "vel": 38,
      "dur": 792
    },
    {
      "t": 1866,
      "ch": 0,
      "note": 36,
      "vel": 97,
      "dur": 55
    },
    {
      "t": 1866,
      "ch": 1,
      "note": 42,
      "vel": 127,
      "dur": 25
    },
    {
      "t": 1866,
      "ch": 7,
      "note": 48,
      "vel": 82,
      "dur": 80
    },
    {
      "t": 1866,
      "ch": 7,
      "note": 36,
      "vel": 76,
      "dur": 80
    },
    {
      "t": 1866.1,
      "ch": 1,
      "note": 36,
      "vel": 90,
      "dur": 25
    },
    {
      "t": 1866.2,
      "ch": 1,
      "note": 38,
      "vel": 78,
      "dur": 25
    },
    {
      "t": 1866.2,
      "ch": 1,
      "note": 40,
      "vel": 96,
      "dur": 25
    },
    {
      "t": 1866.3,
      "ch": 1,
      "note": 42,
      "vel": 98,
      "dur": 25
    },
    {
      "t": 1866.4,
      "ch": 1,
      "note": 36,
      "vel": 75,
      "dur": 25
    },
    {
      "t": 1866.5,
      "ch": 1,
      "note": 38,
      "vel": 68,
      "dur": 25
    },
    {
      "t": 1866.5,
      "ch": 1,
      "note": 40,
      "vel": 76,
      "dur": 25
    },
    {
      "t": 1866.6,
      "ch": 0,
      "note": 36,
      "vel": 119,
      "dur": 55
    },
    {
      "t": 1866.6,
      "ch": 1,
      "note": 42,
      "vel": 119,
      "dur": 25
    },
    {
      "t": 1866.6,
      "ch": 7,
      "note": 48,
      "vel": 86,
      "dur": 80
    },
    {
      "t": 1866.6,
      "ch": 7,
      "note": 45,
      "vel": 76,
      "dur": 80
    },
    {
      "t": 1866.6,
      "ch": 7,
      "note": 36,
      "vel": 69,
      "dur": 80
    },
    {
      "t": 1866.6,
      "ch": 7,
      "note": 38,
      "vel": 70,
      "dur": 80
    },
    {
      "t": 1866.7,
      "ch": 1,
      "note": 36,
      "vel": 79,
      "dur": 25
    },
    {
      "t": 1866.8,
      "ch": 1,
      "note": 38,
      "vel": 99,
      "dur": 25
    },
    {
      "t": 1866.8,
      "ch": 6,
      "note": 52,
      "vel": 40,
      "dur": 526
    },
    {
      "t": 1866.8,
      "ch": 1,
      "note": 40,
      "vel": 88,
      "dur": 25
    },
    {
      "t": 1866.9,
      "ch": 1,
      "note": 42,
      "vel": 69,
      "dur": 25
    },
    {
      "t": 1866.9,
      "ch": 7,
      "note": 36,
      "vel": 59,
      "dur": 80
    },
    {
      "t": 1866.9,
      "ch": 5,
      "note": 49,
      "vel": 45,
      "dur": 788
    },
    {
      "t": 1867,
      "ch": 1,
      "note": 36,
      "vel": 68,
      "dur": 25
    },
    {
      "t": 1867,
      "ch": 1,
      "note": 38,
      "vel": 97,
      "dur": 25
    },
    {
      "t": 1867.1,
      "ch": 1,
      "note": 40,
      "vel": 90,
      "dur": 25
    },
    {
      "t": 1867.2,
      "ch": 0,
      "note": 36,
      "vel": 87,
      "dur": 55
    },
    {
      "t": 1867.2,
      "ch": 1,
      "note": 42,
      "vel": 115,
      "dur": 25
    },
    {
      "t": 1867.2,
      "ch": 7,
      "note": 48,
      "vel": 71,
      "dur": 80
    },
    {
      "t": 1867.2,
      "ch": 7,
      "note": 36,
      "vel": 70,
      "dur": 80
    },
    {
      "t": 1867.3,
      "ch": 1,
      "note": 36,
      "vel": 100,
      "dur": 25
    },
    {
      "t": 1867.3,
      "ch": 6,
      "note": 54,
      "vel": 37,
      "dur": 400
    },
    {
      "t": 1867.3,
      "ch": 1,
      "note": 38,
      "vel": 85,
      "dur": 25
    },
    {
      "t": 1867.4,
      "ch": 7,
      "note": 45,
      "vel": 51,
      "dur": 80
    },
    {
      "t": 1867.4,
      "ch": 7,
      "note": 38,
      "vel": 58,
      "dur": 80
    },
    {
      "t": 1867.4,
      "ch": 1,
      "note": 40,
      "vel": 96,
      "dur": 25
    },
    {
      "t": 1867.5,
      "ch": 1,
      "note": 42,
      "vel": 94,
      "dur": 25
    },
    {
      "t": 1867.6,
      "ch": 1,
      "note": 36,
      "vel": 86,
      "dur": 25
    },
    {
      "t": 1867.6,
      "ch": 1,
      "note": 38,
      "vel": 99,
      "dur": 25
    },
    {
      "t": 1867.7,
      "ch": 5,
      "note": 49,
      "vel": 58,
      "dur": 785
    },
    {
      "t": 1867.7,
      "ch": 1,
      "note": 40,
      "vel": 75,
      "dur": 25
    },
    {
      "t": 1867.7,
      "ch": 2,
      "note": 49,
      "vel": 0,
      "dur": 0
    },
    {
      "t": 1867.7,
      "ch": 2,
      "note": 61,
      "vel": 0,
      "dur": 0
    },
    {
      "t": 1867.7,
      "ch": 2,
      "note": 54,
      "vel": 57,
      "dur": 18000
    },
    {
      "t": 1867.7,
      "ch": 2,
      "note": 66,
      "vel": 40,
      "dur": 18000
    },
    {
      "t": 1867.7,
      "ch": 4,
      "note": 59,
      "vel": 49,
      "dur": 2350
    },
    {
      "t": 1867.7,
      "ch": 3,
      "note": 40,
      "vel": 52,
      "dur": 2400
    },
    {
      "t": 1867.8,
      "ch": 0,
      "note": 36,
      "vel": 94,
      "dur": 55
    },
    {
      "t": 1867.8,
      "ch": 1,
      "note": 42,
      "vel": 91,
      "dur": 25
    },
    {
      "t": 1867.8,
      "ch": 7,
      "note": 48,
      "vel": 59,
      "dur": 80
    },
    {
      "t": 1867.8,
      "ch": 7,
      "note": 36,
      "vel": 72,
      "dur": 80
    },
    {
      "t": 1867.9,
      "ch": 5,
      "note": 49,
      "vel": 67,
      "dur": 784
    },
    {
      "t": 1867.9,
      "ch": 6,
      "note": 68,
      "vel": 75,
      "dur": 523
    },
    {
      "t": 1867.9,
      "ch": 1,
      "note": 36,
      "vel": 81,
      "dur": 25
    },
    {
      "t": 1868,
      "ch": 1,
      "note": 38,
      "vel": 97,
      "dur": 25
    },
    {
      "t": 1868,
      "ch": 1,
      "note": 40,
      "vel": 95,
      "dur": 25
    },
    {
      "t": 1868.1,
      "ch": 1,
      "note": 42,
      "vel": 82,
      "dur": 25
    },
    {
      "t": 1868.1,
      "ch": 7,
      "note": 38,
      "vel": 57,
      "dur": 80
    },
    {
      "t": 1868.1,
      "ch": 7,
      "note": 36,
      "vel": 60,
      "dur": 80
    },
    {
      "t": 1868.1,
      "ch": 7,
      "note": 45,
      "vel": 66,
      "dur": 80
    },
    {
      "t": 1868.2,
      "ch": 1,
      "note": 36,
      "vel": 95,
      "dur": 25
    },
    {
      "t": 1868.3,
      "ch": 1,
      "note": 38,
      "vel": 107,
      "dur": 25
    },
    {
      "t": 1868.3,
      "ch": 1,
      "note": 40,
      "vel": 104,
      "dur": 25
    },
    {
      "t": 1868.4,
      "ch": 0,
      "note": 36,
      "vel": 90,
      "dur": 55
    },
    {
      "t": 1868.4,
      "ch": 1,
      "note": 42,
      "vel": 103,
      "dur": 25
    },
    {
      "t": 1868.4,
      "ch": 7,
      "note": 48,
      "vel": 71,
      "dur": 80
    },
    {
      "t": 1868.4,
      "ch": 7,
      "note": 36,
      "vel": 71,
      "dur": 80
    },
    {
      "t": 1868.4,
      "ch": 1,
      "note": 36,
      "vel": 86,
      "dur": 25
    },
    {
      "t": 1868.6,
      "ch": 1,
      "note": 38,
      "vel": 107,
      "dur": 25
    },
    {
      "t": 1868.6,
      "ch": 1,
      "note": 40,
      "vel": 82,
      "dur": 25
    },
    {
      "t": 1868.7,
      "ch": 1,
      "note": 42,
      "vel": 75,
      "dur": 25
    },
    {
      "t": 1868.7,
      "ch": 5,
      "note": 54,
      "vel": 68,
      "dur": 779
    },
    {
      "t": 1868.8,
      "ch": 1,
      "note": 36,
      "vel": 99,
      "dur": 25
    },
    {
      "t": 1868.8,
      "ch": 1,
      "note": 38,
      "vel": 93,
      "dur": 25
    },
    {
      "t": 1868.9,
      "ch": 1,
      "note": 40,
      "vel": 106,
      "dur": 25
    },
    {
      "t": 1869,
      "ch": 0,
      "note": 36,
      "vel": 116,
      "dur": 55
    },
    {
      "t": 1869,
      "ch": 1,
      "note": 42,
      "vel": 102,
      "dur": 25
    },
    {
      "t": 1869,
      "ch": 7,
      "note": 48,
      "vel": 71,
      "dur": 80
    },
    {
      "t": 1869,
      "ch": 7,
      "note": 45,
      "vel": 55,
      "dur": 80
    },
    {
      "t": 1869,
      "ch": 7,
      "note": 36,
      "vel": 60,
      "dur": 80
    },
    {
      "t": 1869,
      "ch": 7,
      "note": 38,
      "vel": 60,
      "dur": 80
    },
    {
      "t": 1869.1,
      "ch": 1,
      "note": 36,
      "vel": 82,
      "dur": 25
    },
    {
      "t": 1869.2,
      "ch": 1,
      "note": 38,
      "vel": 83,
      "dur": 25
    },
    {
      "t": 1869.2,
      "ch": 1,
      "note": 40,
      "vel": 88,
      "dur": 25
    },
    {
      "t": 1869.3,
      "ch": 1,
      "note": 42,
      "vel": 62,
      "dur": 25
    },
    {
      "t": 1869.3,
      "ch": 7,
      "note": 36,
      "vel": 70,
      "dur": 80
    },
    {
      "t": 1869.4,
      "ch": 1,
      "note": 36,
      "vel": 84,
      "dur": 25
    },
    {
      "t": 1869.5,
      "ch": 1,
      "note": 38,
      "vel": 99,
      "dur": 25
    },
    {
      "t": 1869.5,
      "ch": 1,
      "note": 40,
      "vel": 108,
      "dur": 25
    },
    {
      "t": 1869.6,
      "ch": 0,
      "note": 36,
      "vel": 90,
      "dur": 55
    },
    {
      "t": 1869.6,
      "ch": 1,
      "note": 42,
      "vel": 83,
      "dur": 25
    },
    {
      "t": 1869.6,
      "ch": 7,
      "note": 48,
      "vel": 63,
      "dur": 80
    },
    {
      "t": 1869.6,
      "ch": 7,
      "note": 36,
      "vel": 65,
      "dur": 80
    },
    {
      "t": 1869.6,
      "ch": 6,
      "note": 58,
      "vel": 68,
      "dur": 516
    },
    {
      "t": 1869.7,
      "ch": 1,
      "note": 36,
      "vel": 91,
      "dur": 25
    },
    {
      "t": 1869.8,
      "ch": 1,
      "note": 38,
      "vel": 101,
      "dur": 25
    },
    {
      "t": 1869.8,
      "ch": 1,
      "note": 40,
      "vel": 79,
      "dur": 25
    },
    {
      "t": 1869.8,
      "ch": 7,
      "note": 45,
      "vel": 59,
      "dur": 80
    },
    {
      "t": 1869.8,
      "ch": 7,
      "note": 38,
      "vel": 55,
      "dur": 80
    },
    {
      "t": 1869.9,
      "ch": 1,
      "note": 42,
      "vel": 96,
      "dur": 25
    },
    {
      "t": 1870,
      "ch": 1,
      "note": 36,
      "vel": 74,
      "dur": 25
    },
    {
      "t": 1870,
      "ch": 5,
      "note": 51,
      "vel": 58,
      "dur": 772
    },
    {
      "t": 1870.1,
      "ch": 1,
      "note": 38,
      "vel": 93,
      "dur": 25
    },
    {
      "t": 1870.1,
      "ch": 1,
      "note": 40,
      "vel": 78,
      "dur": 25
    },
    {
      "t": 1870.1,
      "ch": 6,
      "note": 52,
      "vel": 53,
      "dur": 514
    },
    {
      "t": 1870.1,
      "ch": 4,
      "note": 59,
      "vel": 53,
      "dur": 2350
    },
    {
      "t": 1870.1,
      "ch": 3,
      "note": 42,
      "vel": 54,
      "dur": 2400
    },
    {
      "t": 1870.2,
      "ch": 0,
      "note": 36,
      "vel": 97,
      "dur": 55
    },
    {
      "t": 1870.2,
      "ch": 1,
      "note": 42,
      "vel": 109,
      "dur": 25
    },
    {
      "t": 1870.2,
      "ch": 7,
      "note": 48,
      "vel": 72,
      "dur": 80
    },
    {
      "t": 1870.2,
      "ch": 7,
      "note": 36,
      "vel": 65,
      "dur": 80
    },
    {
      "t": 1870.2,
      "ch": 1,
      "note": 36,
      "vel": 94,
      "dur": 25
    },
    {
      "t": 1870.4,
      "ch": 1,
      "note": 38,
      "vel": 88,
      "dur": 25
    },
    {
      "t": 1870.4,
      "ch": 1,
      "note": 40,
      "vel": 109,
      "dur": 25
    },
    {
      "t": 1870.4,
      "ch": 5,
      "note": 51,
      "vel": 64,
      "dur": 769
    },
    {
      "t": 1870.5,
      "ch": 1,
      "note": 42,
      "vel": 99,
      "dur": 25
    },
    {
      "t": 1870.5,
      "ch": 1,
      "note": 36,
      "vel": 85,
      "dur": 25
    },
    {
      "t": 1870.6,
      "ch": 7,
      "note": 38,
      "vel": 54,
      "dur": 80
    },
    {
      "t": 1870.6,
      "ch": 7,
      "note": 45,
      "vel": 53,
      "dur": 80
    },
    {
      "t": 1870.6,
      "ch": 7,
      "note": 36,
      "vel": 64,
      "dur": 80
    },
    {
      "t": 1870.6,
      "ch": 5,
      "note": 68,
      "vel": 59,
      "dur": 768
    },
    {
      "t": 1870.7,
      "ch": 1,
      "note": 38,
      "vel": 95,
      "dur": 25
    },
    {
      "t": 1870.7,
      "ch": 1,
      "note": 40,
      "vel": 105,
      "dur": 25
    },
    {
      "t": 1870.7,
      "ch": 5,
      "note": 61,
      "vel": 79,
      "dur": 767
    },
    {
      "t": 1870.8,
      "ch": 0,
      "note": 36,
      "vel": 92,
      "dur": 55
    },
    {
      "t": 1870.8,
      "ch": 1,
      "note": 42,
      "vel": 100,
      "dur": 25
    },
    {
      "t": 1870.8,
      "ch": 7,
      "note": 48,
      "vel": 69,
      "dur": 80
    },
    {
      "t": 1870.8,
      "ch": 7,
      "note": 36,
      "vel": 76,
      "dur": 80
    },
    {
      "t": 1870.9,
      "ch": 1,
      "note": 36,
      "vel": 113,
      "dur": 25
    },
    {
      "t": 1870.9,
      "ch": 6,
      "note": 54,
      "vel": 44,
      "dur": 400
    },
    {
      "t": 1870.9,
      "ch": 1,
      "note": 38,
      "vel": 90,
      "dur": 25
    },
    {
      "t": 1871,
      "ch": 5,
      "note": 49,
      "vel": 75,
      "dur": 765
    },
    {
      "t": 1871,
      "ch": 6,
      "note": 63,
      "vel": 49,
      "dur": 510
    },
    {
      "t": 1871,
      "ch": 1,
      "note": 40,
      "vel": 108,
      "dur": 25
    },
    {
      "t": 1871.1,
      "ch": 1,
      "note": 42,
      "vel": 91,
      "dur": 25
    },
    {
      "t": 1871.1,
      "ch": 5,
      "note": 54,
      "vel": 77,
      "dur": 764
    },
    {
      "t": 1871.2,
      "ch": 1,
      "note": 36,
      "vel": 83,
      "dur": 25
    },
    {
      "t": 1871.2,
      "ch": 1,
      "note": 38,
      "vel": 90,
      "dur": 25
    },
    {
      "t": 1871.3,
      "ch": 1,
      "note": 40,
      "vel": 112,
      "dur": 25
    },
    {
      "t": 1871.4,
      "ch": 6,
      "note": 58,
      "vel": 61,
      "dur": 400
    },
    {
      "t": 1871.4,
      "ch": 0,
      "note": 36,
      "vel": 113,
      "dur": 55
    },
    {
      "t": 1871.4,
      "ch": 1,
      "note": 42,
      "vel": 93,
      "dur": 25
    },
    {
      "t": 1871.4,
      "ch": 7,
      "note": 48,
      "vel": 79,
      "dur": 80
    },
    {
      "t": 1871.4,
      "ch": 7,
      "note": 45,
      "vel": 69,
      "dur": 80
    },
    {
      "t": 1871.4,
      "ch": 7,
      "note": 36,
      "vel": 84,
      "dur": 80
    },
    {
      "t": 1871.4,
      "ch": 7,
      "note": 38,
      "vel": 67,
      "dur": 80
    },
    {
      "t": 1871.5,
      "ch": 1,
      "note": 36,
      "vel": 93,
      "dur": 25
    },
    {
      "t": 1871.6,
      "ch": 1,
      "note": 38,
      "vel": 74,
      "dur": 25
    },
    {
      "t": 1871.6,
      "ch": 6,
      "note": 58,
      "vel": 85,
      "dur": 508
    },
    {
      "t": 1871.6,
      "ch": 1,
      "note": 40,
      "vel": 61,
      "dur": 25
    },
    {
      "t": 1871.7,
      "ch": 1,
      "note": 42,
      "vel": 88,
      "dur": 25
    },
    {
      "t": 1871.7,
      "ch": 1,
      "note": 36,
      "vel": 107,
      "dur": 25
    },
    {
      "t": 1871.7,
      "ch": 7,
      "note": 36,
      "vel": 61,
      "dur": 80
    },
    {
      "t": 1871.9,
      "ch": 1,
      "note": 38,
      "vel": 104,
      "dur": 25
    },
    {
      "t": 1871.9,
      "ch": 1,
      "note": 40,
      "vel": 90,
      "dur": 25
    },
    {
      "t": 1871.9,
      "ch": 6,
      "note": 58,
      "vel": 77,
      "dur": 507
    },
    {
      "t": 1872,
      "ch": 0,
      "note": 36,
      "vel": 95,
      "dur": 55
    },
    {
      "t": 1872,
      "ch": 1,
      "note": 42,
      "vel": 127,
      "dur": 25
    },
    {
      "t": 1872,
      "ch": 7,
      "note": 48,
      "vel": 68,
      "dur": 80
    },
    {
      "t": 1872,
      "ch": 7,
      "note": 36,
      "vel": 56,
      "dur": 80
    },
    {
      "t": 1872,
      "ch": 1,
      "note": 36,
      "vel": 88,
      "dur": 25
    },
    {
      "t": 1872.2,
      "ch": 1,
      "note": 38,
      "vel": 93,
      "dur": 25
    },
    {
      "t": 1872.2,
      "ch": 1,
      "note": 40,
      "vel": 72,
      "dur": 25
    },
    {
      "t": 1872.2,
      "ch": 7,
      "note": 38,
      "vel": 60,
      "dur": 80
    },
    {
      "t": 1872.2,
      "ch": 7,
      "note": 45,
      "vel": 68,
      "dur": 80
    },
    {
      "t": 1872.2,
      "ch": 5,
      "note": 51,
      "vel": 64,
      "dur": 758
    },
    {
      "t": 1872.3,
      "ch": 1,
      "note": 42,
      "vel": 94,
      "dur": 25
    },
    {
      "t": 1872.3,
      "ch": 1,
      "note": 36,
      "vel": 102,
      "dur": 25
    },
    {
      "t": 1872.3,
      "ch": 5,
      "note": 51,
      "vel": 52,
      "dur": 757
    },
    {
      "t": 1872.5,
      "ch": 1,
      "note": 38,
      "vel": 106,
      "dur": 25
    },
    {
      "t": 1872.5,
      "ch": 1,
      "note": 40,
      "vel": 91,
      "dur": 25
    },
    {
      "t": 1872.5,
      "ch": 4,
      "note": 59,
      "vel": 55,
      "dur": 2350
    },
    {
      "t": 1872.5,
      "ch": 3,
      "note": 40,
      "vel": 56,
      "dur": 2400
    },
    {
      "t": 1872.6,
      "ch": 0,
      "note": 36,
      "vel": 87,
      "dur": 55
    },
    {
      "t": 1872.6,
      "ch": 1,
      "note": 42,
      "vel": 104,
      "dur": 25
    },
    {
      "t": 1872.6,
      "ch": 7,
      "note": 48,
      "vel": 63,
      "dur": 80
    },
    {
      "t": 1872.6,
      "ch": 7,
      "note": 36,
      "vel": 79,
      "dur": 80
    },
    {
      "t": 1872.7,
      "ch": 1,
      "note": 36,
      "vel": 95,
      "dur": 25
    },
    {
      "t": 1872.7,
      "ch": 6,
      "note": 54,
      "vel": 29,
      "dur": 400
    },
    {
      "t": 1872.8,
      "ch": 1,
      "note": 38,
      "vel": 101,
      "dur": 25
    },
    {
      "t": 1872.8,
      "ch": 1,
      "note": 40,
      "vel": 77,
      "dur": 25
    },
    {
      "t": 1872.9,
      "ch": 1,
      "note": 42,
      "vel": 111,
      "dur": 25
    },
    {
      "t": 1873,
      "ch": 1,
      "note": 36,
      "vel": 100,
      "dur": 25
    },
    {
      "t": 1873,
      "ch": 7,
      "note": 38,
      "vel": 59,
      "dur": 80
    },
    {
      "t": 1873,
      "ch": 7,
      "note": 45,
      "vel": 62,
      "dur": 80
    },
    {
      "t": 1873,
      "ch": 6,
      "note": 54,
      "vel": 56,
      "dur": 503
    },
    {
      "t": 1873,
      "ch": 7,
      "note": 36,
      "vel": 57,
      "dur": 80
    },
    {
      "t": 1873,
      "ch": 1,
      "note": 38,
      "vel": 92,
      "dur": 25
    },
    {
      "t": 1873.1,
      "ch": 6,
      "note": 54,
      "vel": 62,
      "dur": 502
    },
    {
      "t": 1873.1,
      "ch": 1,
      "note": 40,
      "vel": 97,
      "dur": 25
    },
    {
      "t": 1873.2,
      "ch": 0,
      "note": 36,
      "vel": 94,
      "dur": 55
    },
    {
      "t": 1873.2,
      "ch": 1,
      "note": 42,
      "vel": 119,
      "dur": 25
    },
    {
      "t": 1873.2,
      "ch": 7,
      "note": 48,
      "vel": 75,
      "dur": 80
    },
    {
      "t": 1873.2,
      "ch": 7,
      "note": 36,
      "vel": 71,
      "dur": 80
    },
    {
      "t": 1873.2,
      "ch": 6,
      "note": 71,
      "vel": 57,
      "dur": 502
    },
    {
      "t": 1873.3,
      "ch": 1,
      "note": 36,
      "vel": 117,
      "dur": 25
    },
    {
      "t": 1873.4,
      "ch": 1,
      "note": 38,
      "vel": 100,
      "dur": 25
    },
    {
      "t": 1873.4,
      "ch": 1,
      "note": 40,
      "vel": 88,
      "dur": 25
    },
    {
      "t": 1873.4,
      "ch": 5,
      "note": 68,
      "vel": 78,
      "dur": 752
    },
    {
      "t": 1873.5,
      "ch": 1,
      "note": 42,
      "vel": 91,
      "dur": 25
    },
    {
      "t": 1873.5,
      "ch": 1,
      "note": 36,
      "vel": 107,
      "dur": 25
    },
    {
      "t": 1873.5,
      "ch": 6,
      "note": 64,
      "vel": 55,
      "dur": 501
    },
    {
      "t": 1873.7,
      "ch": 1,
      "note": 38,
      "vel": 95,
      "dur": 25
    },
    {
      "t": 1873.7,
      "ch": 5,
      "note": 61,
      "vel": 45,
      "dur": 751
    },
    {
      "t": 1873.7,
      "ch": 1,
      "note": 40,
      "vel": 82,
      "dur": 25
    },
    {
      "t": 1873.8,
      "ch": 0,
      "note": 36,
      "vel": 112,
      "dur": 55
    },
    {
      "t": 1873.8,
      "ch": 1,
      "note": 42,
      "vel": 121,
      "dur": 25
    },
    {
      "t": 1873.8,
      "ch": 7,
      "note": 48,
      "vel": 71,
      "dur": 80
    },
    {
      "t": 1873.8,
      "ch": 7,
      "note": 45,
      "vel": 62,
      "dur": 80
    },
    {
      "t": 1873.8,
      "ch": 7,
      "note": 36,
      "vel": 57,
      "dur": 80
    },
    {
      "t": 1873.8,
      "ch": 7,
      "note": 38,
      "vel": 63,
      "dur": 80
    },
    {
      "t": 1873.9,
      "ch": 1,
      "note": 36,
      "vel": 78,
      "dur": 25
    },
    {
      "t": 1874,
      "ch": 1,
      "note": 38,
      "vel": 66,
      "dur": 25
    },
    {
      "t": 1874,
      "ch": 1,
      "note": 40,
      "vel": 119,
      "dur": 25
    },
    {
      "t": 1874,
      "ch": 6,
      "note": 64,
      "vel": 34,
      "dur": 400
    },
    {
      "t": 1874.1,
      "ch": 1,
      "note": 42,
      "vel": 97,
      "dur": 25
    },
    {
      "t": 1874.1,
      "ch": 1,
      "note": 36,
      "vel": 79,
      "dur": 25
    },
    {
      "t": 1874.1,
      "ch": 7,
      "note": 36,
      "vel": 57,
      "dur": 80
    },
    {
      "t": 1874.1,
      "ch": 6,
      "note": 52,
      "vel": 43,
      "dur": 499
    },
    {
      "t": 1874.3,
      "ch": 1,
      "note": 38,
      "vel": 73,
      "dur": 25
    },
    {
      "t": 1874.3,
      "ch": 1,
      "note": 40,
      "vel": 88,
      "dur": 25
    },
    {
      "t": 1874.4,
      "ch": 0,
      "note": 36,
      "vel": 100,
      "dur": 55
    },
    {
      "t": 1874.4,
      "ch": 1,
      "note": 42,
      "vel": 103,
      "dur": 25
    },
    {
      "t": 1874.4,
      "ch": 7,
      "note": 48,
      "vel": 70,
      "dur": 80
    },
    {
      "t": 1874.4,
      "ch": 7,
      "note": 36,
      "vel": 61,
      "dur": 80
    },
    {
      "t": 1874.5,
      "ch": 1,
      "note": 36,
      "vel": 99,
      "dur": 25
    },
    {
      "t": 1874.5,
      "ch": 5,
      "note": 58,
      "vel": 84,
      "dur": 748
    },
    {
      "t": 1874.6,
      "ch": 1,
      "note": 38,
      "vel": 102,
      "dur": 25
    },
    {
      "t": 1874.6,
      "ch": 7,
      "note": 45,
      "vel": 59,
      "dur": 80
    },
    {
      "t": 1874.6,
      "ch": 1,
      "note": 40,
      "vel": 87,
      "dur": 25
    },
    {
      "t": 1874.6,
      "ch": 7,
      "note": 38,
      "vel": 62,
      "dur": 80
    },
    {
      "t": 1874.7,
      "ch": 1,
      "note": 42,
      "vel": 81,
      "dur": 25
    },
    {
      "t": 1874.8,
      "ch": 1,
      "note": 36,
      "vel": 80,
      "dur": 25
    },
    {
      "t": 1874.8,
      "ch": 1,
      "note": 38,
      "vel": 90,
      "dur": 25
    },
    {
      "t": 1874.9,
      "ch": 1,
      "note": 40,
      "vel": 102,
      "dur": 25
    },
    {
      "t": 1875,
      "ch": 4,
      "note": 58,
      "vel": 70,
      "dur": 2350
    },
    {
      "t": 1875,
      "ch": 3,
      "note": 35,
      "vel": 57,
      "dur": 2400
    },
    {
      "t": 1875,
      "ch": 0,
      "note": 36,
      "vel": 87,
      "dur": 55
    },
    {
      "t": 1875,
      "ch": 1,
      "note": 42,
      "vel": 115,
      "dur": 25
    },
    {
      "t": 1875,
      "ch": 7,
      "note": 48,
      "vel": 69,
      "dur": 80
    },
    {
      "t": 1875,
      "ch": 7,
      "note": 36,
      "vel": 63,
      "dur": 80
    },
    {
      "t": 1875,
      "ch": 6,
      "note": 61,
      "vel": 67,
      "dur": 498
    },
    {
      "t": 1875.1,
      "ch": 1,
      "note": 36,
      "vel": 92,
      "dur": 25
    },
    {
      "t": 1875.1,
      "ch": 1,
      "note": 38,
      "vel": 101,
      "dur": 25
    },
    {
      "t": 1875.2,
      "ch": 1,
      "note": 40,
      "vel": 95,
      "dur": 25
    },
    {
      "t": 1875.3,
      "ch": 1,
      "note": 42,
      "vel": 101,
      "dur": 25
    },
    {
      "t": 1875.3,
      "ch": 7,
      "note": 38,
      "vel": 58,
      "dur": 80
    },
    {
      "t": 1875.3,
      "ch": 7,
      "note": 36,
      "vel": 74,
      "dur": 80
    },
    {
      "t": 1875.3,
      "ch": 7,
      "note": 45,
      "vel": 59,
      "dur": 80
    },
    {
      "t": 1875.4,
      "ch": 1,
      "note": 36,
      "vel": 89,
      "dur": 25
    },
    {
      "t": 1875.5,
      "ch": 1,
      "note": 38,
      "vel": 99,
      "dur": 25
    },
    {
      "t": 1875.5,
      "ch": 1,
      "note": 40,
      "vel": 99,
      "dur": 25
    },
    {
      "t": 1875.6,
      "ch": 0,
      "note": 36,
      "vel": 97,
      "dur": 55
    },
    {
      "t": 1875.6,
      "ch": 1,
      "note": 42,
      "vel": 103,
      "dur": 25
    },
    {
      "t": 1875.6,
      "ch": 7,
      "note": 48,
      "vel": 68,
      "dur": 80
    },
    {
      "t": 1875.6,
      "ch": 7,
      "note": 36,
      "vel": 67,
      "dur": 80
    },
    {
      "t": 1875.6,
      "ch": 1,
      "note": 36,
      "vel": 111,
      "dur": 25
    },
    {
      "t": 1875.8,
      "ch": 1,
      "note": 38,
      "vel": 98,
      "dur": 25
    },
    {
      "t": 1875.8,
      "ch": 1,
      "note": 40,
      "vel": 90,
      "dur": 25
    },
    {
      "t": 1875.9,
      "ch": 1,
      "note": 42,
      "vel": 80,
      "dur": 25
    },
    {
      "t": 1876,
      "ch": 1,
      "note": 36,
      "vel": 107,
      "dur": 25
    },
    {
      "t": 1876,
      "ch": 6,
      "note": 61,
      "vel": 47,
      "dur": 497
    },
    {
      "t": 1876.1,
      "ch": 1,
      "note": 38,
      "vel": 82,
      "dur": 25
    },
    {
      "t": 1876.1,
      "ch": 1,
      "note": 40,
      "vel": 86,
      "dur": 25
    },
    {
      "t": 1876.2,
      "ch": 0,
      "note": 36,
      "vel": 119,
      "dur": 55
    },
    {
      "t": 1876.2,
      "ch": 1,
      "note": 42,
      "vel": 123,
      "dur": 25
    },
    {
      "t": 1876.2,
      "ch": 7,
      "note": 48,
      "vel": 74,
      "dur": 80
    },
    {
      "t": 1876.2,
      "ch": 7,
      "note": 45,
      "vel": 67,
      "dur": 80
    },
    {
      "t": 1876.2,
      "ch": 7,
      "note": 36,
      "vel": 61,
      "dur": 80
    },
    {
      "t": 1876.2,
      "ch": 7,
      "note": 38,
      "vel": 72,
      "dur": 80
    },
    {
      "t": 1876.2,
      "ch": 1,
      "note": 36,
      "vel": 105,
      "dur": 25
    },
    {
      "t": 1876.4,
      "ch": 1,
      "note": 38,
      "vel": 94,
      "dur": 25
    },
    {
      "t": 1876.4,
      "ch": 1,
      "note": 40,
      "vel": 91,
      "dur": 25
    },
    {
      "t": 1876.5,
      "ch": 1,
      "note": 42,
      "vel": 99,
      "dur": 25
    },
    {
      "t": 1876.5,
      "ch": 1,
      "note": 36,
      "vel": 88,
      "dur": 25
    },
    {
      "t": 1876.5,
      "ch": 6,
      "note": 61,
      "vel": 58,
      "dur": 497
    },
    {
      "t": 1876.5,
      "ch": 7,
      "note": 36,
      "vel": 63,
      "dur": 80
    },
    {
      "t": 1876.5,
      "ch": 5,
      "note": 59,
      "vel": 75,
      "dur": 746
    },
    {
      "t": 1876.7,
      "ch": 1,
      "note": 38,
      "vel": 97,
      "dur": 25
    },
    {
      "t": 1876.7,
      "ch": 1,
      "note": 40,
      "vel": 77,
      "dur": 25
    },
    {
      "t": 1876.7,
      "ch": 6,
      "note": 71,
      "vel": 38,
      "dur": 497
    },
    {
      "t": 1876.8,
      "ch": 0,
      "note": 36,
      "vel": 90,
      "dur": 55
    },
    {
      "t": 1876.8,
      "ch": 1,
      "note": 42,
      "vel": 86,
      "dur": 25
    },
    {
      "t": 1876.8,
      "ch": 7,
      "note": 48,
      "vel": 69,
      "dur": 80
    },
    {
      "t": 1876.8,
      "ch": 7,
      "note": 36,
      "vel": 74,
      "dur": 80
    },
    {
      "t": 1876.8,
      "ch": 6,
      "note": 64,
      "vel": 40,
      "dur": 400
    },
    {
      "t": 1876.8,
      "ch": 1,
      "note": 36,
      "vel": 104,
      "dur": 25
    },
    {
      "t": 1876.9,
      "ch": 5,
      "note": 58,
      "vel": 79,
      "dur": 746
    },
    {
      "t": 1877,
      "ch": 1,
      "note": 38,
      "vel": 102,
      "dur": 25
    },
    {
      "t": 1877,
      "ch": 1,
      "note": 40,
      "vel": 110,
      "dur": 25
    },
    {
      "t": 1877,
      "ch": 7,
      "note": 38,
      "vel": 62,
      "dur": 80
    },
    {
      "t": 1877,
      "ch": 7,
      "note": 45,
      "vel": 60,
      "dur": 80
    },
    {
      "t": 1877.1,
      "ch": 1,
      "note": 42,
      "vel": 110,
      "dur": 25
    },
    {
      "t": 1877.1,
      "ch": 6,
      "note": 63,
      "vel": 28,
      "dur": 400
    },
    {
      "t": 1877.2,
      "ch": 1,
      "note": 36,
      "vel": 103,
      "dur": 25
    },
    {
      "t": 1877.3,
      "ch": 1,
      "note": 38,
      "vel": 75,
      "dur": 25
    },
    {
      "t": 1877.3,
      "ch": 1,
      "note": 40,
      "vel": 104,
      "dur": 25
    },
    {
      "t": 1877.4,
      "ch": 4,
      "note": 58,
      "vel": 72,
      "dur": 2350
    },
    {
      "t": 1877.4,
      "ch": 3,
      "note": 44,
      "vel": 57,
      "dur": 2400
    },
    {
      "t": 1877.4,
      "ch": 0,
      "note": 36,
      "vel": 86,
      "dur": 55
    },
    {
      "t": 1877.4,
      "ch": 1,
      "note": 42,
      "vel": 111,
      "dur": 25
    },
    {
      "t": 1877.4,
      "ch": 7,
      "note": 48,
      "vel": 64,
      "dur": 80
    },
    {
      "t": 1877.4,
      "ch": 7,
      "note": 36,
      "vel": 69,
      "dur": 80
    },
    {
      "t": 1877.4,
      "ch": 5,
      "note": 68,
      "vel": 70,
      "dur": 747
    },
    {
      "t": 1877.5,
      "ch": 1,
      "note": 36,
      "vel": 88,
      "dur": 25
    },
    {
      "t": 1877.5,
      "ch": 1,
      "note": 38,
      "vel": 97,
      "dur": 25
    },
    {
      "t": 1877.6,
      "ch": 1,
      "note": 40,
      "vel": 90,
      "dur": 25
    },
    {
      "t": 1877.7,
      "ch": 1,
      "note": 42,
      "vel": 94,
      "dur": 25
    },
    {
      "t": 1877.8,
      "ch": 1,
      "note": 36,
      "vel": 109,
      "dur": 25
    },
    {
      "t": 1877.8,
      "ch": 7,
      "note": 36,
      "vel": 69,
      "dur": 80
    },
    {
      "t": 1877.8,
      "ch": 7,
      "note": 45,
      "vel": 65,
      "dur": 80
    },
    {
      "t": 1877.8,
      "ch": 7,
      "note": 38,
      "vel": 74,
      "dur": 80
    },
    {
      "t": 1877.8,
      "ch": 1,
      "note": 38,
      "vel": 94,
      "dur": 25
    },
    {
      "t": 1877.9,
      "ch": 6,
      "note": 73,
      "vel": 42,
      "dur": 400
    },
    {
      "t": 1877.9,
      "ch": 1,
      "note": 40,
      "vel": 110,
      "dur": 25
    },
    {
      "t": 1878,
      "ch": 0,
      "note": 36,
      "vel": 97,
      "dur": 55
    },
    {
      "t": 1878,
      "ch": 1,
      "note": 42,
      "vel": 106,
      "dur": 25
    },
    {
      "t": 1878,
      "ch": 7,
      "note": 48,
      "vel": 62,
      "dur": 80
    },
    {
      "t": 1878,
      "ch": 7,
      "note": 36,
      "vel": 71,
      "dur": 80
    },
    {
      "t": 1878,
      "ch": 5,
      "note": 70,
      "vel": 85,
      "dur": 748
    },
    {
      "t": 1878,
      "ch": 6,
      "note": 73,
      "vel": 60,
      "dur": 499
    },
    {
      "t": 1878.1,
      "ch": 1,
      "note": 36,
      "vel": 104,
      "dur": 25
    },
    {
      "t": 1878.2,
      "ch": 1,
      "note": 38,
      "vel": 93,
      "dur": 25
    },
    {
      "t": 1878.2,
      "ch": 1,
      "note": 40,
      "vel": 91,
      "dur": 25
    },
    {
      "t": 1878.3,
      "ch": 1,
      "note": 42,
      "vel": 96,
      "dur": 25
    },
    {
      "t": 1878.3,
      "ch": 1,
      "note": 36,
      "vel": 95,
      "dur": 25
    },
    {
      "t": 1878.3,
      "ch": 5,
      "note": 68,
      "vel": 48,
      "dur": 749
    },
    {
      "t": 1878.5,
      "ch": 1,
      "note": 38,
      "vel": 91,
      "dur": 25
    },
    {
      "t": 1878.5,
      "ch": 1,
      "note": 40,
      "vel": 92,
      "dur": 25
    },
    {
      "t": 1878.5,
      "ch": 0,
      "note": 36,
      "vel": 66,
      "dur": 55
    },
    {
      "t": 1878.6,
      "ch": 0,
      "note": 36,
      "vel": 119,
      "dur": 55
    },
    {
      "t": 1878.6,
      "ch": 1,
      "note": 42,
      "vel": 106,
      "dur": 25
    },
    {
      "t": 1878.6,
      "ch": 7,
      "note": 48,
      "vel": 61,
      "dur": 80
    },
    {
      "t": 1878.6,
      "ch": 7,
      "note": 45,
      "vel": 71,
      "dur": 80
    },
    {
      "t": 1878.6,
      "ch": 7,
      "note": 36,
      "vel": 68,
      "dur": 80
    },
    {
      "t": 1878.6,
      "ch": 7,
      "note": 38,
      "vel": 67,
      "dur": 80
    },
    {
      "t": 1878.6,
      "ch": 6,
      "note": 61,
      "vel": 69,
      "dur": 500
    },
    {
      "t": 1878.6,
      "ch": 5,
      "note": 58,
      "vel": 87,
      "dur": 750
    },
    {
      "t": 1878.7,
      "ch": 1,
      "note": 36,
      "vel": 103,
      "dur": 25
    },
    {
      "t": 1878.8,
      "ch": 1,
      "note": 38,
      "vel": 81,
      "dur": 25
    },
    {
      "t": 1878.8,
      "ch": 1,
      "note": 40,
      "vel": 70,
      "dur": 25
    },
    {
      "t": 1878.9,
      "ch": 1,
      "note": 42,
      "vel": 97,
      "dur": 25
    },
    {
      "t": 1878.9,
      "ch": 7,
      "note": 36,
      "vel": 63,
      "dur": 80
    },
    {
      "t": 1879,
      "ch": 1,
      "note": 36,
      "vel": 99,
      "dur": 25
    },
    {
      "t": 1879,
      "ch": 1,
      "note": 38,
      "vel": 97,
      "dur": 25
    },
    {
      "t": 1879.1,
      "ch": 1,
      "note": 40,
      "vel": 87,
      "dur": 25
    },
    {
      "t": 1879.2,
      "ch": 0,
      "note": 36,
      "vel": 99,
      "dur": 55
    },
    {
      "t": 1879.2,
      "ch": 1,
      "note": 42,
      "vel": 92,
      "dur": 25
    },
    {
      "t": 1879.2,
      "ch": 7,
      "note": 48,
      "vel": 71,
      "dur": 80
    },
    {
      "t": 1879.2,
      "ch": 7,
      "note": 36,
      "vel": 77,
      "dur": 80
    },
    {
      "t": 1879.3,
      "ch": 1,
      "note": 36,
      "vel": 84,
      "dur": 25
    },
    {
      "t": 1879.3,
      "ch": 5,
      "note": 59,
      "vel": 66,
      "dur": 753
    },
    {
      "t": 1879.4,
      "ch": 1,
      "note": 38,
      "vel": 106,
      "dur": 25
    },
    {
      "t": 1879.4,
      "ch": 1,
      "note": 40,
      "vel": 92,
      "dur": 25
    },
    {
      "t": 1879.4,
      "ch": 7,
      "note": 45,
      "vel": 57,
      "dur": 80
    },
    {
      "t": 1879.4,
      "ch": 7,
      "note": 38,
      "vel": 66,
      "dur": 80
    },
    {
      "t": 1879.5,
      "ch": 1,
      "note": 42,
      "vel": 76,
      "dur": 25
    },
    {
      "t": 1879.6,
      "ch": 1,
      "note": 36,
      "vel": 105,
      "dur": 25
    },
    {
      "t": 1879.7,
      "ch": 1,
      "note": 38,
      "vel": 95,
      "dur": 25
    },
    {
      "t": 1879.7,
      "ch": 6,
      "note": 63,
      "vel": 34,
      "dur": 400
    },
    {
      "t": 1879.7,
      "ch": 1,
      "note": 40,
      "vel": 84,
      "dur": 25
    },
    {
      "t": 1879.7,
      "ch": 4,
      "note": 59,
      "vel": 56,
      "dur": 2350
    },
    {
      "t": 1879.7,
      "ch": 3,
      "note": 40,
      "vel": 56,
      "dur": 2400
    },
    {
      "t": 1879.8,
      "ch": 0,
      "note": 36,
      "vel": 90,
      "dur": 55
    },
    {
      "t": 1879.8,
      "ch": 1,
      "note": 42,
      "vel": 80,
      "dur": 25
    },
    {
      "t": 1879.8,
      "ch": 7,
      "note": 48,
      "vel": 71,
      "dur": 80
    },
    {
      "t": 1879.8,
      "ch": 7,
      "note": 36,
      "vel": 70,
      "dur": 80
    },
    {
      "t": 1879.9,
      "ch": 1,
      "note": 36,
      "vel": 103,
      "dur": 25
    },
    {
      "t": 1879.9,
      "ch": 1,
      "note": 38,
      "vel": 100,
      "dur": 25
    },
    {
      "t": 1880,
      "ch": 6,
      "note": 73,
      "vel": 53,
      "dur": 504
    },
    {
      "t": 1880,
      "ch": 1,
      "note": 40,
      "vel": 105,
      "dur": 25
    },
    {
      "t": 1880.1,
      "ch": 1,
      "note": 42,
      "vel": 82,
      "dur": 25
    },
    {
      "t": 1880.1,
      "ch": 7,
      "note": 36,
      "vel": 61,
      "dur": 80
    },
    {
      "t": 1880.1,
      "ch": 7,
      "note": 38,
      "vel": 66,
      "dur": 80
    },
    {
      "t": 1880.1,
      "ch": 7,
      "note": 45,
      "vel": 62,
      "dur": 80
    },
    {
      "t": 1880.2,
      "ch": 1,
      "note": 36,
      "vel": 75,
      "dur": 25
    },
    {
      "t": 1880.3,
      "ch": 1,
      "note": 38,
      "vel": 91,
      "dur": 25
    },
    {
      "t": 1880.3,
      "ch": 1,
      "note": 40,
      "vel": 94,
      "dur": 25
    },
    {
      "t": 1880.3,
      "ch": 6,
      "note": 63,
      "vel": 47,
      "dur": 505
    },
    {
      "t": 1880.4,
      "ch": 0,
      "note": 36,
      "vel": 91,
      "dur": 55
    },
    {
      "t": 1880.4,
      "ch": 1,
      "note": 42,
      "vel": 97,
      "dur": 25
    },
    {
      "t": 1880.4,
      "ch": 7,
      "note": 48,
      "vel": 70,
      "dur": 80
    },
    {
      "t": 1880.4,
      "ch": 7,
      "note": 36,
      "vel": 72,
      "dur": 80
    },
    {
      "t": 1880.5,
      "ch": 1,
      "note": 36,
      "vel": 104,
      "dur": 25
    },
    {
      "t": 1880.5,
      "ch": 6,
      "note": 71,
      "vel": 44,
      "dur": 506
    },
    {
      "t": 1880.6,
      "ch": 1,
      "note": 38,
      "vel": 78,
      "dur": 25
    },
    {
      "t": 1880.6,
      "ch": 1,
      "note": 40,
      "vel": 107,
      "dur": 25
    },
    {
      "t": 1880.7,
      "ch": 1,
      "note": 42,
      "vel": 87,
      "dur": 25
    },
    {
      "t": 1880.8,
      "ch": 1,
      "note": 36,
      "vel": 80,
      "dur": 25
    },
    {
      "t": 1880.8,
      "ch": 5,
      "note": 58,
      "vel": 85,
      "dur": 761
    },
    {
      "t": 1880.8,
      "ch": 6,
      "note": 68,
      "vel": 56,
      "dur": 507
    },
    {
      "t": 1880.9,
      "ch": 1,
      "note": 38,
      "vel": 91,
      "dur": 25
    },
    {
      "t": 1880.9,
      "ch": 1,
      "note": 40,
      "vel": 105,
      "dur": 25
    },
    {
      "t": 1881,
      "ch": 0,
      "note": 36,
      "vel": 108,
      "dur": 55
    },
    {
      "t": 1881,
      "ch": 1,
      "note": 42,
      "vel": 104,
      "dur": 25
    },
    {
      "t": 1881,
      "ch": 7,
      "note": 48,
      "vel": 64,
      "dur": 80
    },
    {
      "t": 1881,
      "ch": 7,
      "note": 45,
      "vel": 76,
      "dur": 80
    },
    {
      "t": 1881,
      "ch": 7,
      "note": 36,
      "vel": 77,
      "dur": 80
    },
    {
      "t": 1881,
      "ch": 7,
      "note": 38,
      "vel": 69,
      "dur": 80
    },
    {
      "t": 1881,
      "ch": 1,
      "note": 36,
      "vel": 107,
      "dur": 25
    },
    {
      "t": 1881.2,
      "ch": 1,
      "note": 38,
      "vel": 110,
      "dur": 25
    },
    {
      "t": 1881.2,
      "ch": 1,
      "note": 40,
      "vel": 80,
      "dur": 25
    },
    {
      "t": 1881.2,
      "ch": 6,
      "note": 60,
      "vel": 25,
      "dur": 509
    },
    {
      "t": 1881.3,
      "ch": 1,
      "note": 42,
      "vel": 79,
      "dur": 25
    },
    {
      "t": 1881.4,
      "ch": 1,
      "note": 36,
      "vel": 76,
      "dur": 25
    },
    {
      "t": 1881.4,
      "ch": 7,
      "note": 36,
      "vel": 61,
      "dur": 80
    },
    {
      "t": 1881.4,
      "ch": 1,
      "note": 38,
      "vel": 92,
      "dur": 25
    },
    {
      "t": 1881.5,
      "ch": 1,
      "note": 40,
      "vel": 90,
      "dur": 25
    },
    {
      "t": 1881.6,
      "ch": 0,
      "note": 36,
      "vel": 96,
      "dur": 55
    },
    {
      "t": 1881.6,
      "ch": 1,
      "note": 42,
      "vel": 113,
      "dur": 25
    },
    {
      "t": 1881.6,
      "ch": 7,
      "note": 48,
      "vel": 66,
      "dur": 80
    },
    {
      "t": 1881.6,
      "ch": 7,
      "note": 36,
      "vel": 69,
      "dur": 80
    },
    {
      "t": 1881.6,
      "ch": 5,
      "note": 68,
      "vel": 71,
      "dur": 766
    },
    {
      "t": 1881.7,
      "ch": 1,
      "note": 36,
      "vel": 92,
      "dur": 25
    },
    {
      "t": 1881.8,
      "ch": 1,
      "note": 38,
      "vel": 100,
      "dur": 25
    },
    {
      "t": 1881.8,
      "ch": 7,
      "note": 45,
      "vel": 60,
      "dur": 80
    },
    {
      "t": 1881.8,
      "ch": 7,
      "note": 38,
      "vel": 64,
      "dur": 80
    },
    {
      "t": 1881.8,
      "ch": 1,
      "note": 40,
      "vel": 102,
      "dur": 25
    },
    {
      "t": 1881.9,
      "ch": 1,
      "note": 42,
      "vel": 105,
      "dur": 25
    },
    {
      "t": 1881.9,
      "ch": 1,
      "note": 36,
      "vel": 83,
      "dur": 25
    },
    {
      "t": 1881.9,
      "ch": 6,
      "note": 71,
      "vel": 36,
      "dur": 512
    },
    {
      "t": 1882.1,
      "ch": 1,
      "note": 38,
      "vel": 98,
      "dur": 25
    },
    {
      "t": 1882.1,
      "ch": 6,
      "note": 71,
      "vel": 47,
      "dur": 400
    },
    {
      "t": 1882.1,
      "ch": 1,
      "note": 40,
      "vel": 114,
      "dur": 25
    },
    {
      "t": 1882.1,
      "ch": 4,
      "note": 58,
      "vel": 65,
      "dur": 2350
    },
    {
      "t": 1882.1,
      "ch": 3,
      "note": 44,
      "vel": 54,
      "dur": 2400
    },
    {
      "t": 1882.2,
      "ch": 0,
      "note": 36,
      "vel": 95,
      "dur": 55
    },
    {
      "t": 1882.2,
      "ch": 1,
      "note": 42,
      "vel": 105,
      "dur": 25
    },
    {
      "t": 1882.2,
      "ch": 7,
      "note": 48,
      "vel": 62,
      "dur": 80
    },
    {
      "t": 1882.2,
      "ch": 7,
      "note": 36,
      "vel": 50,
      "dur": 80
    },
    {
      "t": 1882.3,
      "ch": 1,
      "note": 36,
      "vel": 99,
      "dur": 25
    },
    {
      "t": 1882.3,
      "ch": 6,
      "note": 63,
      "vel": 39,
      "dur": 513
    },
    {
      "t": 1882.4,
      "ch": 1,
      "note": 38,
      "vel": 100,
      "dur": 25
    },
    {
      "t": 1882.4,
      "ch": 1,
      "note": 40,
      "vel": 120,
      "dur": 25
    },
    {
      "t": 1882.4,
      "ch": 5,
      "note": 70,
      "vel": 71,
      "dur": 771
    },
    {
      "t": 1882.5,
      "ch": 1,
      "note": 42,
      "vel": 84,
      "dur": 25
    },
    {
      "t": 1882.6,
      "ch": 1,
      "note": 36,
      "vel": 98,
      "dur": 25
    },
    {
      "t": 1882.6,
      "ch": 7,
      "note": 45,
      "vel": 70,
      "dur": 80
    },
    {
      "t": 1882.6,
      "ch": 7,
      "note": 36,
      "vel": 66,
      "dur": 80
    },
    {
      "t": 1882.6,
      "ch": 7,
      "note": 38,
      "vel": 68,
      "dur": 80
    },
    {
      "t": 1882.6,
      "ch": 5,
      "note": 68,
      "vel": 64,
      "dur": 772
    },
    {
      "t": 1882.6,
      "ch": 1,
      "note": 38,
      "vel": 61,
      "dur": 25
    },
    {
      "t": 1882.7,
      "ch": 1,
      "note": 40,
      "vel": 100,
      "dur": 25
    },
    {
      "t": 1882.8,
      "ch": 0,
      "note": 36,
      "vel": 95,
      "dur": 55
    },
    {
      "t": 1882.8,
      "ch": 1,
      "note": 42,
      "vel": 91,
      "dur": 25
    },
    {
      "t": 1882.8,
      "ch": 7,
      "note": 48,
      "vel": 79,
      "dur": 80
    },
    {
      "t": 1882.8,
      "ch": 7,
      "note": 36,
      "vel": 70,
      "dur": 80
    },
    {
      "t": 1882.8,
      "ch": 1,
      "note": 36,
      "vel": 87,
      "dur": 25
    },
    {
      "t": 1882.8,
      "ch": 5,
      "note": 73,
      "vel": 60,
      "dur": 773
    },
    {
      "t": 1883,
      "ch": 1,
      "note": 38,
      "vel": 77,
      "dur": 25
    },
    {
      "t": 1883,
      "ch": 1,
      "note": 40,
      "vel": 96,
      "dur": 25
    },
    {
      "t": 1883.1,
      "ch": 1,
      "note": 42,
      "vel": 77,
      "dur": 25
    },
    {
      "t": 1883.2,
      "ch": 1,
      "note": 36,
      "vel": 76,
      "dur": 25
    },
    {
      "t": 1883.3,
      "ch": 1,
      "note": 38,
      "vel": 92,
      "dur": 25
    },
    {
      "t": 1883.3,
      "ch": 1,
      "note": 40,
      "vel": 114,
      "dur": 25
    },
    {
      "t": 1883.3,
      "ch": 6,
      "note": 73,
      "vel": 44,
      "dur": 517
    },
    {
      "t": 1883.4,
      "ch": 0,
      "note": 36,
      "vel": 115,
      "dur": 55
    },
    {
      "t": 1883.4,
      "ch": 1,
      "note": 42,
      "vel": 77,
      "dur": 25
    },
    {
      "t": 1883.4,
      "ch": 7,
      "note": 48,
      "vel": 67,
      "dur": 80
    },
    {
      "t": 1883.4,
      "ch": 7,
      "note": 45,
      "vel": 68,
      "dur": 80
    },
    {
      "t": 1883.4,
      "ch": 7,
      "note": 36,
      "vel": 76,
      "dur": 80
    },
    {
      "t": 1883.4,
      "ch": 7,
      "note": 38,
      "vel": 59,
      "dur": 80
    },
    {
      "t": 1883.4,
      "ch": 1,
      "note": 36,
      "vel": 93,
      "dur": 25
    },
    {
      "t": 1883.4,
      "ch": 5,
      "note": 72,
      "vel": 75,
      "dur": 777
    },
    {
      "t": 1883.6,
      "ch": 1,
      "note": 38,
      "vel": 93,
      "dur": 25
    },
    {
      "t": 1883.6,
      "ch": 1,
      "note": 40,
      "vel": 96,
      "dur": 25
    },
    {
      "t": 1883.7,
      "ch": 1,
      "note": 42,
      "vel": 92,
      "dur": 25
    },
    {
      "t": 1883.8,
      "ch": 6,
      "note": 73,
      "vel": 41,
      "dur": 400
    },
    {
      "t": 1883.8,
      "ch": 1,
      "note": 36,
      "vel": 97,
      "dur": 25
    },
    {
      "t": 1883.8,
      "ch": 5,
      "note": 59,
      "vel": 49,
      "dur": 779
    },
    {
      "t": 1883.8,
      "ch": 7,
      "note": 36,
      "vel": 60,
      "dur": 80
    },
    {
      "t": 1883.9,
      "ch": 1,
      "note": 38,
      "vel": 84,
      "dur": 25
    },
    {
      "t": 1883.9,
      "ch": 1,
      "note": 40,
      "vel": 88,
      "dur": 25
    },
    {
      "t": 1884,
      "ch": 0,
      "note": 36,
      "vel": 91,
      "dur": 55
    },
    {
      "t": 1884,
      "ch": 1,
      "note": 42,
      "vel": 105,
      "dur": 25
    },
    {
      "t": 1884,
      "ch": 7,
      "note": 48,
      "vel": 74,
      "dur": 80
    },
    {
      "t": 1884,
      "ch": 7,
      "note": 36,
      "vel": 74,
      "dur": 80
    },
    {
      "t": 1884.1,
      "ch": 1,
      "note": 36,
      "vel": 97,
      "dur": 25
    },
    {
      "t": 1884.1,
      "ch": 1,
      "note": 38,
      "vel": 117,
      "dur": 25
    },
    {
      "t": 1884.2,
      "ch": 7,
      "note": 45,
      "vel": 76,
      "dur": 80
    },
    {
      "t": 1884.2,
      "ch": 7,
      "note": 38,
      "vel": 60,
      "dur": 80
    },
    {
      "t": 1884.2,
      "ch": 1,
      "note": 40,
      "vel": 90,
      "dur": 25
    },
    {
      "t": 1884.3,
      "ch": 1,
      "note": 42,
      "vel": 109,
      "dur": 25
    },
    {
      "t": 1884.3,
      "ch": 6,
      "note": 70,
      "vel": 57,
      "dur": 521
    },
    {
      "t": 1884.3,
      "ch": 5,
      "note": 61,
      "vel": 77,
      "dur": 782
    },
    {
      "t": 1884.4,
      "ch": 1,
      "note": 36,
      "vel": 78,
      "dur": 25
    },
    {
      "t": 1884.4,
      "ch": 1,
      "note": 38,
      "vel": 72,
      "dur": 25
    },
    {
      "t": 1884.5,
      "ch": 1,
      "note": 40,
      "vel": 84,
      "dur": 25
    },
    {
      "t": 1884.5,
      "ch": 4,
      "note": 58,
      "vel": 65,
      "dur": 2350
    },
    {
      "t": 1884.5,
      "ch": 3,
      "note": 37,
      "vel": 52,
      "dur": 2400
    },
    {
      "t": 1884.6,
      "ch": 0,
      "note": 36,
      "vel": 93,
      "dur": 55
    },
    {
      "t": 1884.6,
      "ch": 1,
      "note": 42,
      "vel": 102,
      "dur": 25
    },
    {
      "t": 1884.6,
      "ch": 7,
      "note": 48,
      "vel": 71,
      "dur": 80
    },
    {
      "t": 1884.6,
      "ch": 7,
      "note": 36,
      "vel": 68,
      "dur": 80
    },
    {
      "t": 1884.7,
      "ch": 1,
      "note": 36,
      "vel": 127,
      "dur": 25
    },
    {
      "t": 1884.8,
      "ch": 1,
      "note": 38,
      "vel": 101,
      "dur": 25
    },
    {
      "t": 1884.8,
      "ch": 1,
      "note": 40,
      "vel": 91,
      "dur": 25
    },
    {
      "t": 1884.9,
      "ch": 1,
      "note": 42,
      "vel": 98,
      "dur": 25
    },
    {
      "t": 1884.9,
      "ch": 1,
      "note": 36,
      "vel": 114,
      "dur": 25
    },
    {
      "t": 1885,
      "ch": 7,
      "note": 45,
      "vel": 56,
      "dur": 80
    },
    {
      "t": 1885,
      "ch": 7,
      "note": 36,
      "vel": 63,
      "dur": 80
    },
    {
      "t": 1885,
      "ch": 7,
      "note": 38,
      "vel": 64,
      "dur": 80
    },
    {
      "t": 1885.1,
      "ch": 1,
      "note": 38,
      "vel": 100,
      "dur": 25
    },
    {
      "t": 1885.1,
      "ch": 1,
      "note": 40,
      "vel": 100,
      "dur": 25
    },
    {
      "t": 1885.2,
      "ch": 0,
      "note": 36,
      "vel": 90,
      "dur": 55
    },
    {
      "t": 1885.2,
      "ch": 1,
      "note": 42,
      "vel": 89,
      "dur": 25
    },
    {
      "t": 1885.2,
      "ch": 7,
      "note": 48,
      "vel": 74,
      "dur": 80
    },
    {
      "t": 1885.2,
      "ch": 7,
      "note": 36,
      "vel": 79,
      "dur": 80
    },
    {
      "t": 1885.3,
      "ch": 1,
      "note": 36,
      "vel": 112,
      "dur": 25
    },
    {
      "t": 1885.4,
      "ch": 1,
      "note": 38,
      "vel": 88,
      "dur": 25
    },
    {
      "t": 1885.4,
      "ch": 1,
      "note": 40,
      "vel": 79,
      "dur": 25
    },
    {
      "t": 1885.5,
      "ch": 1,
      "note": 42,
      "vel": 113,
      "dur": 25
    },
    {
      "t": 1885.5,
      "ch": 1,
      "note": 36,
      "vel": 97,
      "dur": 25
    },
    {
      "t": 1885.7,
      "ch": 1,
      "note": 38,
      "vel": 73,
      "dur": 25
    },
    {
      "t": 1885.7,
      "ch": 1,
      "note": 40,
      "vel": 99,
      "dur": 25
    },
    {
      "t": 1885.8,
      "ch": 0,
      "note": 36,
      "vel": 114,
      "dur": 55
    },
    {
      "t": 1885.8,
      "ch": 1,
      "note": 42,
      "vel": 87,
      "dur": 25
    },
    {
      "t": 1885.8,
      "ch": 7,
      "note": 48,
      "vel": 67,
      "dur": 80
    },
    {
      "t": 1885.8,
      "ch": 7,
      "note": 45,
      "vel": 72,
      "dur": 80
    },
    {
      "t": 1885.8,
      "ch": 7,
      "note": 36,
      "vel": 75,
      "dur": 80
    },
    {
      "t": 1885.8,
      "ch": 7,
      "note": 38,
      "vel": 70,
      "dur": 80
    },
    {
      "t": 1885.8,
      "ch": 1,
      "note": 36,
      "vel": 96,
      "dur": 25
    },
    {
      "t": 1886,
      "ch": 1,
      "note": 38,
      "vel": 114,
      "dur": 25
    },
    {
      "t": 1886,
      "ch": 1,
      "note": 40,
      "vel": 90,
      "dur": 25
    },
    {
      "t": 1886,
      "ch": 5,
      "note": 70,
      "vel": 51,
      "dur": 788
    },
    {
      "t": 1886.1,
      "ch": 1,
      "note": 42,
      "vel": 97,
      "dur": 25
    },
    {
      "t": 1886.2,
      "ch": 7,
      "note": 36,
      "vel": 64,
      "dur": 80
    },
    {
      "t": 1886.2,
      "ch": 1,
      "note": 36,
      "vel": 94,
      "dur": 25
    },
    {
      "t": 1886.2,
      "ch": 6,
      "note": 73,
      "vel": 44,
      "dur": 400
    },
    {
      "t": 1886.2,
      "ch": 1,
      "note": 38,
      "vel": 92,
      "dur": 25
    },
    {
      "t": 1886.3,
      "ch": 1,
      "note": 40,
      "vel": 80,
      "dur": 25
    },
    {
      "t": 1886.4,
      "ch": 0,
      "note": 36,
      "vel": 93,
      "dur": 55
    },
    {
      "t": 1886.4,
      "ch": 1,
      "note": 42,
      "vel": 115,
      "dur": 25
    },
    {
      "t": 1886.4,
      "ch": 7,
      "note": 48,
      "vel": 64,
      "dur": 80
    },
    {
      "t": 1886.4,
      "ch": 7,
      "note": 36,
      "vel": 79,
      "dur": 80
    },
    {
      "t": 1886.4,
      "ch": 5,
      "note": 59,
      "vel": 80,
      "dur": 789
    },
    {
      "t": 1886.5,
      "ch": 1,
      "note": 36,
      "vel": 93,
      "dur": 25
    },
    {
      "t": 1886.5,
      "ch": 1,
      "note": 38,
      "vel": 91,
      "dur": 25
    },
    {
      "t": 1886.6,
      "ch": 7,
      "note": 45,
      "vel": 57,
      "dur": 80
    },
    {
      "t": 1886.6,
      "ch": 7,
      "note": 38,
      "vel": 56,
      "dur": 80
    },
    {
      "t": 1886.6,
      "ch": 1,
      "note": 40,
      "vel": 76,
      "dur": 25
    },
    {
      "t": 1886.7,
      "ch": 1,
      "note": 42,
      "vel": 102,
      "dur": 25
    },
    {
      "t": 1886.7,
      "ch": 6,
      "note": 73,
      "vel": 40,
      "dur": 527
    },
    {
      "t": 1886.7,
      "ch": 5,
      "note": 73,
      "vel": 75,
      "dur": 790
    },
    {
      "t": 1886.8,
      "ch": 1,
      "note": 36,
      "vel": 110,
      "dur": 25
    },
    {
      "t": 1886.8,
      "ch": 1,
      "note": 38,
      "vel": 90,
      "dur": 25
    },
    {
      "t": 1886.9,
      "ch": 1,
      "note": 40,
      "vel": 101,
      "dur": 25
    },
    {
      "t": 1887,
      "ch": 2,
      "note": 54,
      "vel": 0,
      "dur": 0
    },
    {
      "t": 1887,
      "ch": 2,
      "note": 66,
      "vel": 0,
      "dur": 0
    },
    {
      "t": 1887,
      "ch": 2,
      "note": 49,
      "vel": 56,
      "dur": 18000
    },
    {
      "t": 1887,
      "ch": 2,
      "note": 61,
      "vel": 39,
      "dur": 18000
    },
    {
      "t": 1887,
      "ch": 4,
      "note": 59,
      "vel": 47,
      "dur": 2350
    },
    {
      "t": 1887,
      "ch": 3,
      "note": 40,
      "vel": 50,
      "dur": 2400
    },
    {
      "t": 1887,
      "ch": 0,
      "note": 36,
      "vel": 97,
      "dur": 55
    },
    {
      "t": 1887,
      "ch": 1,
      "note": 42,
      "vel": 82,
      "dur": 25
    },
    {
      "t": 1887,
      "ch": 7,
      "note": 48,
      "vel": 76,
      "dur": 80
    },
    {
      "t": 1887,
      "ch": 7,
      "note": 36,
      "vel": 63,
      "dur": 80
    },
    {
      "t": 1887.1,
      "ch": 1,
      "note": 36,
      "vel": 101,
      "dur": 25
    },
    {
      "t": 1887.1,
      "ch": 1,
      "note": 38,
      "vel": 94,
      "dur": 25
    },
    {
      "t": 1887.2,
      "ch": 1,
      "note": 40,
      "vel": 77,
      "dur": 25
    },
    {
      "t": 1887.3,
      "ch": 1,
      "note": 42,
      "vel": 107,
      "dur": 25
    },
    {
      "t": 1887.4,
      "ch": 1,
      "note": 36,
      "vel": 96,
      "dur": 25
    },
    {
      "t": 1887.4,
      "ch": 7,
      "note": 38,
      "vel": 58,
      "dur": 80
    },
    {
      "t": 1887.4,
      "ch": 7,
      "note": 36,
      "vel": 73,
      "dur": 80
    },
    {
      "t": 1887.4,
      "ch": 7,
      "note": 45,
      "vel": 70,
      "dur": 80
    },
    {
      "t": 1887.4,
      "ch": 6,
      "note": 61,
      "vel": 43,
      "dur": 527
    },
    {
      "t": 1887.4,
      "ch": 1,
      "note": 38,
      "vel": 95,
      "dur": 25
    },
    {
      "t": 1887.5,
      "ch": 1,
      "note": 40,
      "vel": 92,
      "dur": 25
    },
    {
      "t": 1887.6,
      "ch": 0,
      "note": 36,
      "vel": 94,
      "dur": 55
    },
    {
      "t": 1887.6,
      "ch": 1,
      "note": 42,
      "vel": 93,
      "dur": 25
    },
    {
      "t": 1887.6,
      "ch": 7,
      "note": 48,
      "vel": 62,
      "dur": 80
    },
    {
      "t": 1887.6,
      "ch": 7,
      "note": 36,
      "vel": 72,
      "dur": 80
    },
    {
      "t": 1887.7,
      "ch": 5,
      "note": 70,
      "vel": 86,
      "dur": 791
    },
    {
      "t": 1887.7,
      "ch": 1,
      "note": 36,
      "vel": 93,
      "dur": 25
    },
    {
      "t": 1887.8,
      "ch": 1,
      "note": 38,
      "vel": 88,
      "dur": 25
    },
    {
      "t": 1887.8,
      "ch": 1,
      "note": 40,
      "vel": 71,
      "dur": 25
    },
    {
      "t": 1887.8,
      "ch": 6,
      "note": 64,
      "vel": 44,
      "dur": 527
    },
    {
      "t": 1887.8,
      "ch": 5,
      "note": 59,
      "vel": 46,
      "dur": 791
    },
    {
      "t": 1887.9,
      "ch": 1,
      "note": 42,
      "vel": 86,
      "dur": 25
    },
    {
      "t": 1888,
      "ch": 1,
      "note": 36,
      "vel": 93,
      "dur": 25
    },
    {
      "t": 1888.1,
      "ch": 1,
      "note": 38,
      "vel": 109,
      "dur": 25
    },
    {
      "t": 1888.1,
      "ch": 6,
      "note": 73,
      "vel": 43,
      "dur": 400
    },
    {
      "t": 1888.1,
      "ch": 1,
      "note": 40,
      "vel": 88,
      "dur": 25
    },
    {
      "t": 1888.2,
      "ch": 0,
      "note": 36,
      "vel": 117,
      "dur": 55
    },
    {
      "t": 1888.2,
      "ch": 1,
      "note": 42,
      "vel": 102,
      "dur": 25
    },
    {
      "t": 1888.2,
      "ch": 7,
      "note": 48,
      "vel": 75,
      "dur": 80
    },
    {
      "t": 1888.2,
      "ch": 7,
      "note": 45,
      "vel": 80,
      "dur": 80
    },
    {
      "t": 1888.2,
      "ch": 7,
      "note": 36,
      "vel": 62,
      "dur": 80
    },
    {
      "t": 1888.2,
      "ch": 7,
      "note": 38,
      "vel": 75,
      "dur": 80
    },
    {
      "t": 1888.3,
      "ch": 1,
      "note": 36,
      "vel": 96,
      "dur": 25
    },
    {
      "t": 1888.3,
      "ch": 1,
      "note": 38,
      "vel": 98,
      "dur": 25
    },
    {
      "t": 1888.4,
      "ch": 6,
      "note": 73,
      "vel": 31,
      "dur": 527
    },
    {
      "t": 1888.4,
      "ch": 1,
      "note": 40,
      "vel": 88,
      "dur": 25
    },
    {
      "t": 1888.5,
      "ch": 1,
      "note": 42,
      "vel": 99,
      "dur": 25
    },
    {
      "t": 1888.6,
      "ch": 1,
      "note": 36,
      "vel": 83,
      "dur": 25
    },
    {
      "t": 1888.6,
      "ch": 7,
      "note": 36,
      "vel": 56,
      "dur": 80
    },
    {
      "t": 1888.6,
      "ch": 1,
      "note": 38,
      "vel": 86,
      "dur": 25
    },
    {
      "t": 1888.7,
      "ch": 5,
      "note": 61,
      "vel": 54,
      "dur": 790
    },
    {
      "t": 1888.7,
      "ch": 1,
      "note": 40,
      "vel": 106,
      "dur": 25
    },
    {
      "t": 1888.8,
      "ch": 0,
      "note": 36,
      "vel": 95,
      "dur": 55
    },
    {
      "t": 1888.8,
      "ch": 1,
      "note": 42,
      "vel": 100,
      "dur": 25
    },
    {
      "t": 1888.8,
      "ch": 7,
      "note": 48,
      "vel": 55,
      "dur": 80
    },
    {
      "t": 1888.8,
      "ch": 7,
      "note": 36,
      "vel": 65,
      "dur": 80
    },
    {
      "t": 1888.9,
      "ch": 1,
      "note": 36,
      "vel": 120,
      "dur": 25
    },
    {
      "t": 1888.9,
      "ch": 1,
      "note": 38,
      "vel": 96,
      "dur": 25
    },
    {
      "t": 1889,
      "ch": 7,
      "note": 38,
      "vel": 54,
      "dur": 80
    },
    {
      "t": 1889,
      "ch": 7,
      "note": 45,
      "vel": 72,
      "dur": 80
    },
    {
      "t": 1889,
      "ch": 1,
      "note": 40,
      "vel": 115,
      "dur": 25
    },
    {
      "t": 1889.1,
      "ch": 1,
      "note": 42,
      "vel": 103,
      "dur": 25
    },
    {
      "t": 1889.2,
      "ch": 1,
      "note": 36,
      "vel": 79,
      "dur": 25
    },
    {
      "t": 1889.2,
      "ch": 1,
      "note": 38,
      "vel": 102,
      "dur": 25
    },
    {
      "t": 1889.3,
      "ch": 1,
      "note": 40,
      "vel": 88,
      "dur": 25
    },
    {
      "t": 1889.4,
      "ch": 0,
      "note": 36,
      "vel": 95,
      "dur": 55
    },
    {
      "t": 1889.4,
      "ch": 1,
      "note": 42,
      "vel": 100,
      "dur": 25
    },
    {
      "t": 1889.4,
      "ch": 7,
      "note": 48,
      "vel": 62,
      "dur": 80
    },
    {
      "t": 1889.4,
      "ch": 7,
      "note": 36,
      "vel": 74,
      "dur": 80
    },
    {
      "t": 1889.5,
      "ch": 1,
      "note": 36,
      "vel": 101,
      "dur": 25
    },
    {
      "t": 1889.6,
      "ch": 1,
      "note": 38,
      "vel": 122,
      "dur": 25
    },
    {
      "t": 1889.6,
      "ch": 1,
      "note": 40,
      "vel": 82,
      "dur": 25
    },
    {
      "t": 1889.7,
      "ch": 1,
      "note": 42,
      "vel": 110,
      "dur": 25
    },
    {
      "t": 1889.7,
      "ch": 1,
      "note": 36,
      "vel": 98,
      "dur": 25
    },
    {
      "t": 1889.7,
      "ch": 7,
      "note": 45,
      "vel": 69,
      "dur": 80
    },
    {
      "t": 1889.7,
      "ch": 7,
      "note": 36,
      "vel": 52,
      "dur": 80
    },
    {
      "t": 1889.7,
      "ch": 7,
      "note": 38,
      "vel": 60,
      "dur": 80
    },
    {
      "t": 1889.9,
      "ch": 1,
      "note": 38,
      "vel": 98,
      "dur": 25
    },
    {
      "t": 1889.9,
      "ch": 1,
      "note": 40,
      "vel": 87,
      "dur": 25
    },
    {
      "t": 1890,
      "ch": 0,
      "note": 36,
      "vel": 91,
      "dur": 55
    },
    {
      "t": 1890,
      "ch": 1,
      "note": 42,
      "vel": 105,
      "dur": 25
    },
    {
      "t": 1890,
      "ch": 7,
      "note": 48,
      "vel": 73,
      "dur": 80
    },
    {
      "t": 1890,
      "ch": 7,
      "note": 36,
      "vel": 64,
      "dur": 80
    },
    {
      "t": 1890,
      "ch": 1,
      "note": 36,
      "vel": 127,
      "dur": 25
    },
    {
      "t": 1890.2,
      "ch": 1,
      "note": 38,
      "vel": 91,
      "dur": 25
    },
    {
      "t": 1890.2,
      "ch": 1,
      "note": 40,
      "vel": 106,
      "dur": 25
    },
    {
      "t": 1890.3,
      "ch": 1,
      "note": 42,
      "vel": 106,
      "dur": 25
    },
    {
      "t": 1890.3,
      "ch": 5,
      "note": 70,
      "vel": 76,
      "dur": 785
    },
    {
      "t": 1890.4,
      "ch": 1,
      "note": 36,
      "vel": 95,
      "dur": 25
    },
    {
      "t": 1890.5,
      "ch": 1,
      "note": 38,
      "vel": 108,
      "dur": 25
    },
    {
      "t": 1890.5,
      "ch": 1,
      "note": 40,
      "vel": 100,
      "dur": 25
    },
    {
      "t": 1890.6,
      "ch": 0,
      "note": 36,
      "vel": 118,
      "dur": 55
    },
    {
      "t": 1890.6,
      "ch": 1,
      "note": 42,
      "vel": 118,
      "dur": 25
    },
    {
      "t": 1890.6,
      "ch": 7,
      "note": 48,
      "vel": 77,
      "dur": 80
    },
    {
      "t": 1890.6,
      "ch": 7,
      "note": 45,
      "vel": 69,
      "dur": 80
    },
    {
      "t": 1890.6,
      "ch": 7,
      "note": 36,
      "vel": 70,
      "dur": 80
    },
    {
      "t": 1890.6,
      "ch": 7,
      "note": 38,
      "vel": 69,
      "dur": 80
    },
    {
      "t": 1890.6,
      "ch": 5,
      "note": 59,
      "vel": 80,
      "dur": 784
    },
    {
      "t": 1890.7,
      "ch": 1,
      "note": 36,
      "vel": 103,
      "dur": 25
    },
    {
      "t": 1890.8,
      "ch": 1,
      "note": 38,
      "vel": 123,
      "dur": 25
    },
    {
      "t": 1890.8,
      "ch": 1,
      "note": 40,
      "vel": 113,
      "dur": 25
    },
    {
      "t": 1890.8,
      "ch": 5,
      "note": 64,
      "vel": 57,
      "dur": 783
    },
    {
      "t": 1890.9,
      "ch": 1,
      "note": 42,
      "vel": 108,
      "dur": 25
    },
    {
      "t": 1891,
      "ch": 1,
      "note": 36,
      "vel": 90,
      "dur": 25
    },
    {
      "t": 1891,
      "ch": 7,
      "note": 36,
      "vel": 61,
      "dur": 80
    },
    {
      "t": 1891.1,
      "ch": 1,
      "note": 38,
      "vel": 93,
      "dur": 25
    },
    {
      "t": 1891.1,
      "ch": 6,
      "note": 71,
      "vel": 35,
      "dur": 400
    },
    {
      "t": 1891.1,
      "ch": 1,
      "note": 40,
      "vel": 106,
      "dur": 25
    },
    {
      "t": 1891.2,
      "ch": 0,
      "note": 36,
      "vel": 92,
      "dur": 55
    },
    {
      "t": 1891.2,
      "ch": 1,
      "note": 42,
      "vel": 83,
      "dur": 25
    },
    {
      "t": 1891.2,
      "ch": 7,
      "note": 48,
      "vel": 68,
      "dur": 80
    },
    {
      "t": 1891.2,
      "ch": 7,
      "note": 36,
      "vel": 71,
      "dur": 80
    },
    {
      "t": 1891.2,
      "ch": 1,
      "note": 36,
      "vel": 127,
      "dur": 25
    },
    {
      "t": 1891.4,
      "ch": 1,
      "note": 38,
      "vel": 98,
      "dur": 25
    },
    {
      "t": 1891.4,
      "ch": 7,
      "note": 38,
      "vel": 64,
      "dur": 80
    },
    {
      "t": 1891.4,
      "ch": 7,
      "note": 45,
      "vel": 62,
      "dur": 80
    },
    {
      "t": 1891.4,
      "ch": 5,
      "note": 54,
      "vel": 81,
      "dur": 780
    },
    {
      "t": 1891.4,
      "ch": 1,
      "note": 40,
      "vel": 81,
      "dur": 25
    },
    {
      "t": 1891.5,
      "ch": 1,
      "note": 42,
      "vel": 82,
      "dur": 25
    },
    {
      "t": 1891.6,
      "ch": 1,
      "note": 36,
      "vel": 74,
      "dur": 25
    },
    {
      "t": 1891.6,
      "ch": 1,
      "note": 38,
      "vel": 106,
      "dur": 25
    },
    {
      "t": 1891.7,
      "ch": 1,
      "note": 40,
      "vel": 82,
      "dur": 25
    },
    {
      "t": 1891.8,
      "ch": 0,
      "note": 36,
      "vel": 93,
      "dur": 55
    },
    {
      "t": 1891.8,
      "ch": 1,
      "note": 42,
      "vel": 107,
      "dur": 25
    },
    {
      "t": 1891.8,
      "ch": 7,
      "note": 48,
      "vel": 69,
      "dur": 80
    },
    {
      "t": 1891.8,
      "ch": 7,
      "note": 36,
      "vel": 75,
      "dur": 80
    },
    {
      "t": 1891.9,
      "ch": 1,
      "note": 36,
      "vel": 113,
      "dur": 25
    },
    {
      "t": 1892,
      "ch": 1,
      "note": 38,
      "vel": 99,
      "dur": 25
    },
    {
      "t": 1892,
      "ch": 1,
      "note": 40,
      "vel": 106,
      "dur": 25
    },
    {
      "t": 1892.1,
      "ch": 1,
      "note": 42,
      "vel": 81,
      "dur": 25
    },
    {
      "t": 1892.1,
      "ch": 1,
      "note": 36,
      "vel": 90,
      "dur": 25
    },
    {
      "t": 1892.1,
      "ch": 7,
      "note": 45,
      "vel": 65,
      "dur": 80
    },
    {
      "t": 1892.1,
      "ch": 7,
      "note": 36,
      "vel": 69,
      "dur": 80
    },
    {
      "t": 1892.1,
      "ch": 7,
      "note": 38,
      "vel": 66,
      "dur": 80
    },
    {
      "t": 1892.2,
      "ch": 5,
      "note": 56,
      "vel": 49,
      "dur": 776
    },
    {
      "t": 1892.3,
      "ch": 1,
      "note": 38,
      "vel": 95,
      "dur": 25
    },
    {
      "t": 1892.3,
      "ch": 1,
      "note": 40,
      "vel": 96,
      "dur": 25
    },
    {
      "t": 1892.4,
      "ch": 0,
      "note": 36,
      "vel": 98,
      "dur": 55
    },
    {
      "t": 1892.4,
      "ch": 1,
      "note": 42,
      "vel": 106,
      "dur": 25
    },
    {
      "t": 1892.4,
      "ch": 7,
      "note": 48,
      "vel": 65,
      "dur": 80
    },
    {
      "t": 1892.4,
      "ch": 7,
      "note": 36,
      "vel": 67,
      "dur": 80
    },
    {
      "t": 1892.4,
      "ch": 1,
      "note": 36,
      "vel": 89,
      "dur": 25
    },
    {
      "t": 1892.6,
      "ch": 1,
      "note": 38,
      "vel": 97,
      "dur": 25
    },
    {
      "t": 1892.6,
      "ch": 1,
      "note": 40,
      "vel": 120,
      "dur": 25
    },
    {
      "t": 1892.7,
      "ch": 1,
      "note": 42,
      "vel": 94,
      "dur": 25
    },
    {
      "t": 1892.8,
      "ch": 1,
      "note": 36,
      "vel": 100,
      "dur": 25
    },
    {
      "t": 1892.8,
      "ch": 1,
      "note": 38,
      "vel": 95,
      "dur": 25
    },
    {
      "t": 1892.9,
      "ch": 1,
      "note": 40,
      "vel": 95,
      "dur": 25
    },
    {
      "t": 1893,
      "ch": 0,
      "note": 36,
      "vel": 107,
      "dur": 55
    },
    {
      "t": 1893,
      "ch": 1,
      "note": 42,
      "vel": 106,
      "dur": 25
    },
    {
      "t": 1893,
      "ch": 7,
      "note": 48,
      "vel": 73,
      "dur": 80
    },
    {
      "t": 1893,
      "ch": 7,
      "note": 45,
      "vel": 65,
      "dur": 80
    },
    {
      "t": 1893,
      "ch": 7,
      "note": 36,
      "vel": 74,
      "dur": 80
    },
    {
      "t": 1893,
      "ch": 7,
      "note": 38,
      "vel": 76,
      "dur": 80
    },
    {
      "t": 1893,
      "ch": 1,
      "note": 36,
      "vel": 123,
      "dur": 25
    },
    {
      "t": 1893.1,
      "ch": 5,
      "note": 61,
      "vel": 80,
      "dur": 771
    },
    {
      "t": 1893.2,
      "ch": 1,
      "note": 38,
      "vel": 91,
      "dur": 25
    },
    {
      "t": 1893.2,
      "ch": 1,
      "note": 40,
      "vel": 81,
      "dur": 25
    },
    {
      "t": 1893.3,
      "ch": 1,
      "note": 42,
      "vel": 92,
      "dur": 25
    },
    {
      "t": 1893.4,
      "ch": 1,
      "note": 36,
      "vel": 90,
      "dur": 25
    },
    {
      "t": 1893.4,
      "ch": 7,
      "note": 36,
      "vel": 60,
      "dur": 80
    },
    {
      "t": 1893.5,
      "ch": 1,
      "note": 38,
      "vel": 109,
      "dur": 25
    },
    {
      "t": 1893.5,
      "ch": 1,
      "note": 40,
      "vel": 103,
      "dur": 25
    },
    {
      "t": 1893.5,
      "ch": 6,
      "note": 66,
      "vel": 38,
      "dur": 400
    },
    {
      "t": 1893.6,
      "ch": 0,
      "note": 36,
      "vel": 97,
      "dur": 55
    },
    {
      "t": 1893.6,
      "ch": 1,
      "note": 42,
      "vel": 127,
      "dur": 25
    },
    {
      "t": 1893.6,
      "ch": 7,
      "note": 48,
      "vel": 74,
      "dur": 80
    },
    {
      "t": 1893.6,
      "ch": 7,
      "note": 36,
      "vel": 67,
      "dur": 80
    },
    {
      "t": 1893.6,
      "ch": 1,
      "note": 36,
      "vel": 94,
      "dur": 25
    },
    {
      "t": 1893.6,
      "ch": 5,
      "note": 49,
      "vel": 67,
      "dur": 767
    },
    {
      "t": 1893.8,
      "ch": 1,
      "note": 38,
      "vel": 92,
      "dur": 25
    },
    {
      "t": 1893.8,
      "ch": 1,
      "note": 40,
      "vel": 92,
      "dur": 25
    },
    {
      "t": 1893.8,
      "ch": 7,
      "note": 45,
      "vel": 65,
      "dur": 80
    },
    {
      "t": 1893.8,
      "ch": 7,
      "note": 38,
      "vel": 54,
      "dur": 80
    },
    {
      "t": 1893.9,
      "ch": 1,
      "note": 42,
      "vel": 101,
      "dur": 25
    },
    {
      "t": 1893.9,
      "ch": 1,
      "note": 36,
      "vel": 83,
      "dur": 25
    },
    {
      "t": 1894.1,
      "ch": 1,
      "note": 38,
      "vel": 105,
      "dur": 25
    },
    {
      "t": 1894.1,
      "ch": 1,
      "note": 40,
      "vel": 93,
      "dur": 25
    },
    {
      "t": 1894.1,
      "ch": 6,
      "note": 56,
      "vel": 40,
      "dur": 509
    },
    {
      "t": 1894.2,
      "ch": 0,
      "note": 36,
      "vel": 89,
      "dur": 55
    },
    {
      "t": 1894.2,
      "ch": 1,
      "note": 42,
      "vel": 104,
      "dur": 25
    },
    {
      "t": 1894.2,
      "ch": 7,
      "note": 48,
      "vel": 74,
      "dur": 80
    },
    {
      "t": 1894.2,
      "ch": 7,
      "note": 36,
      "vel": 74,
      "dur": 80
    },
    {
      "t": 1894.2,
      "ch": 1,
      "note": 36,
      "vel": 90,
      "dur": 25
    },
    {
      "t": 1894.4,
      "ch": 1,
      "note": 38,
      "vel": 88,
      "dur": 25
    },
    {
      "t": 1894.4,
      "ch": 1,
      "note": 40,
      "vel": 118,
      "dur": 25
    },
    {
      "t": 1894.5,
      "ch": 1,
      "note": 42,
      "vel": 98,
      "dur": 25
    },
    {
      "t": 1894.5,
      "ch": 1,
      "note": 36,
      "vel": 113,
      "dur": 25
    },
    {
      "t": 1894.5,
      "ch": 7,
      "note": 45,
      "vel": 56,
      "dur": 80
    },
    {
      "t": 1894.5,
      "ch": 7,
      "note": 38,
      "vel": 66,
      "dur": 80
    },
    {
      "t": 1894.5,
      "ch": 7,
      "note": 36,
      "vel": 60,
      "dur": 80
    },
    {
      "t": 1894.6,
      "ch": 5,
      "note": 61,
      "vel": 60,
      "dur": 761
    },
    {
      "t": 1894.7,
      "ch": 1,
      "note": 38,
      "vel": 93,
      "dur": 25
    },
    {
      "t": 1894.7,
      "ch": 1,
      "note": 40,
      "vel": 96,
      "dur": 25
    },
    {
      "t": 1894.8,
      "ch": 6,
      "note": 64,
      "vel": 34,
      "dur": 400
    },
    {
      "t": 1894.8,
      "ch": 0,
      "note": 36,
      "vel": 86,
      "dur": 55
    },
    {
      "t": 1894.8,
      "ch": 1,
      "note": 42,
      "vel": 127,
      "dur": 25
    },
    {
      "t": 1894.8,
      "ch": 7,
      "note": 48,
      "vel": 70,
      "dur": 80
    },
    {
      "t": 1894.8,
      "ch": 7,
      "note": 36,
      "vel": 60,
      "dur": 80
    },
    {
      "t": 1894.9,
      "ch": 1,
      "note": 36,
      "vel": 116,
      "dur": 25
    },
    {
      "t": 1894.9,
      "ch": 5,
      "note": 64,
      "vel": 62,
      "dur": 760
    },
    {
      "t": 1895,
      "ch": 1,
      "note": 38,
      "vel": 107,
      "dur": 25
    },
    {
      "t": 1895,
      "ch": 1,
      "note": 40,
      "vel": 98,
      "dur": 25
    },
    {
      "t": 1895.1,
      "ch": 1,
      "note": 42,
      "vel": 81,
      "dur": 25
    },
    {
      "t": 1895.2,
      "ch": 1,
      "note": 36,
      "vel": 96,
      "dur": 25
    },
    {
      "t": 1895.2,
      "ch": 1,
      "note": 38,
      "vel": 93,
      "dur": 25
    },
    {
      "t": 1895.3,
      "ch": 1,
      "note": 40,
      "vel": 77,
      "dur": 25
    },
    {
      "t": 1895.4,
      "ch": 0,
      "note": 36,
      "vel": 108,
      "dur": 55
    },
    {
      "t": 1895.4,
      "ch": 1,
      "note": 42,
      "vel": 83,
      "dur": 25
    },
    {
      "t": 1895.4,
      "ch": 7,
      "note": 48,
      "vel": 71,
      "dur": 80
    },
    {
      "t": 1895.4,
      "ch": 7,
      "note": 45,
      "vel": 64,
      "dur": 80
    },
    {
      "t": 1895.4,
      "ch": 7,
      "note": 36,
      "vel": 75,
      "dur": 80
    },
    {
      "t": 1895.4,
      "ch": 7,
      "note": 38,
      "vel": 71,
      "dur": 80
    },
    {
      "t": 1895.5,
      "ch": 1,
      "note": 36,
      "vel": 98,
      "dur": 25
    },
    {
      "t": 1895.6,
      "ch": 1,
      "note": 38,
      "vel": 95,
      "dur": 25
    },
    {
      "t": 1895.6,
      "ch": 1,
      "note": 40,
      "vel": 113,
      "dur": 25
    },
    {
      "t": 1895.6,
      "ch": 6,
      "note": 68,
      "vel": 35,
      "dur": 504
    },
    {
      "t": 1895.7,
      "ch": 1,
      "note": 42,
      "vel": 88,
      "dur": 25
    },
    {
      "t": 1895.8,
      "ch": 1,
      "note": 36,
      "vel": 97,
      "dur": 25
    },
    {
      "t": 1895.8,
      "ch": 7,
      "note": 36,
      "vel": 56,
      "dur": 80
    },
    {
      "t": 1895.8,
      "ch": 6,
      "note": 56,
      "vel": 40,
      "dur": 503
    },
    {
      "t": 1895.9,
      "ch": 1,
      "note": 38,
      "vel": 108,
      "dur": 25
    },
    {
      "t": 1895.9,
      "ch": 1,
      "note": 40,
      "vel": 99,
      "dur": 25
    },
    {
      "t": 1896,
      "ch": 0,
      "note": 36,
      "vel": 93,
      "dur": 55
    },
    {
      "t": 1896,
      "ch": 1,
      "note": 42,
      "vel": 109,
      "dur": 25
    },
    {
      "t": 1896,
      "ch": 7,
      "note": 48,
      "vel": 72,
      "dur": 80
    },
    {
      "t": 1896,
      "ch": 7,
      "note": 36,
      "vel": 70,
      "dur": 80
    },
    {
      "t": 1896.1,
      "ch": 1,
      "note": 36,
      "vel": 114,
      "dur": 25
    },
    {
      "t": 1896.1,
      "ch": 6,
      "note": 59,
      "vel": 62,
      "dur": 502
    },
    {
      "t": 1896.2,
      "ch": 1,
      "note": 38,
      "vel": 102,
      "dur": 25
    },
    {
      "t": 1896.2,
      "ch": 1,
      "note": 40,
      "vel": 78,
      "dur": 25
    },
    {
      "t": 1896.2,
      "ch": 7,
      "note": 38,
      "vel": 55,
      "dur": 80
    },
    {
      "t": 1896.2,
      "ch": 7,
      "note": 45,
      "vel": 68,
      "dur": 80
    },
    {
      "t": 1896.2,
      "ch": 5,
      "note": 54,
      "vel": 70,
      "dur": 753
    },
    {
      "t": 1896.3,
      "ch": 1,
      "note": 42,
      "vel": 91,
      "dur": 25
    },
    {
      "t": 1896.4,
      "ch": 1,
      "note": 36,
      "vel": 90,
      "dur": 25
    },
    {
      "t": 1896.5,
      "ch": 1,
      "note": 38,
      "vel": 97,
      "dur": 25
    },
    {
      "t": 1896.5,
      "ch": 1,
      "note": 40,
      "vel": 103,
      "dur": 25
    },
    {
      "t": 1896.5,
      "ch": 2,
      "note": 49,
      "vel": 58,
      "dur": 18000
    },
    {
      "t": 1896.5,
      "ch": 2,
      "note": 61,
      "vel": 41,
      "dur": 18000
    },
    {
      "t": 1896.6,
      "ch": 0,
      "note": 36,
      "vel": 92,
      "dur": 55
    },
    {
      "t": 1896.6,
      "ch": 1,
      "note": 42,
      "vel": 90,
      "dur": 25
    },
    {
      "t": 1896.6,
      "ch": 7,
      "note": 48,
      "vel": 69,
      "dur": 80
    },
    {
      "t": 1896.6,
      "ch": 7,
      "note": 36,
      "vel": 66,
      "dur": 80
    },
    {
      "t": 1896.6,
      "ch": 1,
      "note": 36,
      "vel": 106,
      "dur": 25
    },
    {
      "t": 1896.6,
      "ch": 6,
      "note": 52,
      "vel": 68,
      "dur": 500
    },
    {
      "t": 1896.8,
      "ch": 1,
      "note": 38,
      "vel": 91,
      "dur": 25
    },
    {
      "t": 1896.8,
      "ch": 1,
      "note": 40,
      "vel": 88,
      "dur": 25
    },
    {
      "t": 1896.9,
      "ch": 1,
      "note": 42,
      "vel": 107,
      "dur": 25
    },
    {
      "t": 1896.9,
      "ch": 1,
      "note": 36,
      "vel": 96,
      "dur": 25
    },
    {
      "t": 1896.9,
      "ch": 7,
      "note": 45,
      "vel": 71,
      "dur": 80
    },
    {
      "t": 1896.9,
      "ch": 7,
      "note": 36,
      "vel": 63,
      "dur": 80
    },
    {
      "t": 1896.9,
      "ch": 7,
      "note": 38,
      "vel": 60,
      "dur": 80
    },
    {
      "t": 1897.1,
      "ch": 1,
      "note": 38,
      "vel": 75,
      "dur": 25
    },
    {
      "t": 1897.1,
      "ch": 1,
      "note": 40,
      "vel": 97,
      "dur": 25
    },
    {
      "t": 1897.1,
      "ch": 6,
      "note": 64,
      "vel": 46,
      "dur": 499
    },
    {
      "t": 1897.2,
      "ch": 0,
      "note": 36,
      "vel": 90,
      "dur": 55
    },
    {
      "t": 1897.2,
      "ch": 1,
      "note": 42,
      "vel": 116,
      "dur": 25
    },
    {
      "t": 1897.2,
      "ch": 7,
      "note": 48,
      "vel": 71,
      "dur": 80
    },
    {
      "t": 1897.2,
      "ch": 7,
      "note": 36,
      "vel": 82,
      "dur": 80
    },
    {
      "t": 1897.2,
      "ch": 1,
      "note": 36,
      "vel": 111,
      "dur": 25
    },
    {
      "t": 1897.4,
      "ch": 1,
      "note": 38,
      "vel": 100,
      "dur": 25
    },
    {
      "t": 1897.4,
      "ch": 1,
      "note": 40,
      "vel": 100,
      "dur": 25
    },
    {
      "t": 1897.5,
      "ch": 1,
      "note": 42,
      "vel": 90,
      "dur": 25
    },
    {
      "t": 1897.6,
      "ch": 1,
      "note": 36,
      "vel": 83,
      "dur": 25
    },
    {
      "t": 1897.6,
      "ch": 1,
      "note": 38,
      "vel": 93,
      "dur": 25
    },
    {
      "t": 1897.7,
      "ch": 0,
      "note": 36,
      "vel": 74,
      "dur": 55
    },
    {
      "t": 1897.7,
      "ch": 6,
      "note": 52,
      "vel": 54,
      "dur": 498
    },
    {
      "t": 1897.7,
      "ch": 1,
      "note": 40,
      "vel": 91,
      "dur": 25
    },
    {
      "t": 1897.8,
      "ch": 1,
      "note": 42,
      "vel": 107,
      "dur": 25
    },
    {
      "t": 1897.8,
      "ch": 7,
      "note": 48,
      "vel": 72,
      "dur": 80
    },
    {
      "t": 1897.8,
      "ch": 7,
      "note": 45,
      "vel": 74,
      "dur": 80
    },
    {
      "t": 1897.8,
      "ch": 7,
      "note": 36,
      "vel": 85,
      "dur": 80
    },
    {
      "t": 1897.8,
      "ch": 7,
      "note": 38,
      "vel": 63,
      "dur": 80
    },
    {
      "t": 1897.8,
      "ch": 1,
      "note": 36,
      "vel": 119,
      "dur": 25
    },
    {
      "t": 1897.9,
      "ch": 5,
      "note": 56,
      "vel": 80,
      "dur": 747
    },
    {
      "t": 1897.9,
      "ch": 1,
      "note": 38,
      "vel": 100,
      "dur": 25
    },
    {
      "t": 1898,
      "ch": 1,
      "note": 40,
      "vel": 83,
      "dur": 25
    },
    {
      "t": 1898.1,
      "ch": 1,
      "note": 42,
      "vel": 84,
      "dur": 25
    },
    {
      "t": 1898.1,
      "ch": 7,
      "note": 36,
      "vel": 58,
      "dur": 80
    },
    {
      "t": 1898.2,
      "ch": 1,
      "note": 36,
      "vel": 81,
      "dur": 25
    },
    {
      "t": 1898.3,
      "ch": 1,
      "note": 38,
      "vel": 100,
      "dur": 25
    },
    {
      "t": 1898.3,
      "ch": 1,
      "note": 40,
      "vel": 86,
      "dur": 25
    },
    {
      "t": 1898.3,
      "ch": 5,
      "note": 61,
      "vel": 51,
      "dur": 746
    },
    {
      "t": 1898.4,
      "ch": 1,
      "note": 42,
      "vel": 110,
      "dur": 25
    },
    {
      "t": 1898.4,
      "ch": 7,
      "note": 48,
      "vel": 75,
      "dur": 80
    },
    {
      "t": 1898.4,
      "ch": 7,
      "note": 36,
      "vel": 75,
      "dur": 80
    },
    {
      "t": 1898.4,
      "ch": 1,
      "note": 36,
      "vel": 108,
      "dur": 25
    },
    {
      "t": 1898.5,
      "ch": 1,
      "note": 38,
      "vel": 80,
      "dur": 25
    },
    {
      "t": 1898.6,
      "ch": 7,
      "note": 45,
      "vel": 75,
      "dur": 80
    },
    {
      "t": 1898.6,
      "ch": 7,
      "note": 38,
      "vel": 66,
      "dur": 80
    },
    {
      "t": 1898.6,
      "ch": 5,
      "note": 49,
      "vel": 61,
      "dur": 746
    },
    {
      "t": 1898.6,
      "ch": 1,
      "note": 40,
      "vel": 84,
      "dur": 25
    },
    {
      "t": 1898.7,
      "ch": 1,
      "note": 42,
      "vel": 87,
      "dur": 25
    },
    {
      "t": 1898.7,
      "ch": 5,
      "note": 61,
      "vel": 71,
      "dur": 746
    },
    {
      "t": 1898.8,
      "ch": 1,
      "note": 36,
      "vel": 83,
      "dur": 25
    },
    {
      "t": 1898.9,
      "ch": 1,
      "note": 38,
      "vel": 103,
      "dur": 25
    },
    {
      "t": 1898.9,
      "ch": 1,
      "note": 40,
      "vel": 90,
      "dur": 25
    },
    {
      "t": 1899,
      "ch": 4,
      "note": 59,
      "vel": 53,
      "dur": 2350
    },
    {
      "t": 1899,
      "ch": 1,
      "note": 42,
      "vel": 101,
      "dur": 25
    },
    {
      "t": 1899,
      "ch": 7,
      "note": 48,
      "vel": 75,
      "dur": 80
    },
    {
      "t": 1899,
      "ch": 7,
      "note": 36,
      "vel": 67,
      "dur": 80
    },
    {
      "t": 1899,
      "ch": 1,
      "note": 36,
      "vel": 82,
      "dur": 25
    },
    {
      "t": 1899,
      "ch": 6,
      "note": 56,
      "vel": 56,
      "dur": 497
    },
    {
      "t": 1899.1,
      "ch": 1,
      "note": 38,
      "vel": 76,
      "dur": 25
    },
    {
      "t": 1899.2,
      "ch": 1,
      "note": 40,
      "vel": 76,
      "dur": 25
    },
    {
      "t": 1899.3,
      "ch": 1,
      "note": 42,
      "vel": 88,
      "dur": 25
    },
    {
      "t": 1899.4,
      "ch": 1,
      "note": 36,
      "vel": 109,
      "dur": 25
    },
    {
      "t": 1899.4,
      "ch": 7,
      "note": 45,
      "vel": 73,
      "dur": 80
    },
    {
      "t": 1899.4,
      "ch": 7,
      "note": 38,
      "vel": 66,
      "dur": 80
    },
    {
      "t": 1899.4,
      "ch": 7,
      "note": 36,
      "vel": 56,
      "dur": 80
    },
    {
      "t": 1899.4,
      "ch": 6,
      "note": 63,
      "vel": 44,
      "dur": 497
    },
    {
      "t": 1899.5,
      "ch": 1,
      "note": 38,
      "vel": 95,
      "dur": 25
    },
    {
      "t": 1899.5,
      "ch": 1,
      "note": 40,
      "vel": 95,
      "dur": 25
    },
    {
      "t": 1899.6,
      "ch": 5,
      "note": 58,
      "vel": 79,
      "dur": 745
    },
    {
      "t": 1899.6,
      "ch": 1,
      "note": 42,
      "vel": 101,
      "dur": 25
    },
    {
      "t": 1899.6,
      "ch": 7,
      "note": 48,
      "vel": 74,
      "dur": 80
    },
    {
      "t": 1899.6,
      "ch": 7,
      "note": 36,
      "vel": 70,
      "dur": 80
    },
    {
      "t": 1899.7,
      "ch": 1,
      "note": 36,
      "vel": 116,
      "dur": 25
    },
    {
      "t": 1899.7,
      "ch": 5,
      "note": 52,
      "vel": 89,
      "dur": 745
    },
    {
      "t": 1899.8,
      "ch": 1,
      "note": 38,
      "vel": 86,
      "dur": 25
    },
    {
      "t": 1899.8,
      "ch": 1,
      "note": 40,
      "vel": 82,
      "dur": 25
    },
    {
      "t": 1899.9,
      "ch": 6,
      "note": 64,
      "vel": 56,
      "dur": 400
    },
    {
      "t": 1900,
      "ch": 1,
      "note": 42,
      "vel": 91,
      "dur": 25
    },
    {
      "t": 1900,
      "ch": 1,
      "note": 36,
      "vel": 96,
      "dur": 25
    },
    {
      "t": 1900.1,
      "ch": 1,
      "note": 38,
      "vel": 95,
      "dur": 25
    },
    {
      "t": 1900.1,
      "ch": 1,
      "note": 40,
      "vel": 97,
      "dur": 25
    },
    {
      "t": 1900.3,
      "ch": 5,
      "note": 59,
      "vel": 70,
      "dur": 746
    },
    {
      "t": 1900.3,
      "ch": 1,
      "note": 42,
      "vel": 114,
      "dur": 25
    },
    {
      "t": 1900.3,
      "ch": 7,
      "note": 48,
      "vel": 75,
      "dur": 80
    },
    {
      "t": 1900.3,
      "ch": 7,
      "note": 45,
      "vel": 73,
      "dur": 80
    },
    {
      "t": 1900.3,
      "ch": 7,
      "note": 36,
      "vel": 69,
      "dur": 80
    },
    {
      "t": 1900.3,
      "ch": 7,
      "note": 38,
      "vel": 68,
      "dur": 80
    },
    {
      "t": 1900.3,
      "ch": 1,
      "note": 36,
      "vel": 120,
      "dur": 25
    },
    {
      "t": 1900.4,
      "ch": 6,
      "note": 61,
      "vel": 56,
      "dur": 497
    },
    {
      "t": 1900.4,
      "ch": 1,
      "note": 38,
      "vel": 92,
      "dur": 25
    },
    {
      "t": 1900.4,
      "ch": 1,
      "note": 40,
      "vel": 89,
      "dur": 25
    },
    {
      "t": 1900.6,
      "ch": 5,
      "note": 64,
      "vel": 59,
      "dur": 746
    },
    {
      "t": 1900.6,
      "ch": 6,
      "note": 56,
      "vel": 58,
      "dur": 498
    },
    {
      "t": 1900.6,
      "ch": 1,
      "note": 42,
      "vel": 94,
      "dur": 25
    },
    {
      "t": 1900.6,
      "ch": 1,
      "note": 36,
      "vel": 77,
      "dur": 25
    },
    {
      "t": 1900.6,
      "ch": 1,
      "note": 38,
      "vel": 96,
      "dur": 25
    },
    {
      "t": 1900.7,
      "ch": 7,
      "note": 36,
      "vel": 55,
      "dur": 80
    },
    {
      "t": 1900.7,
      "ch": 6,
      "note": 61,
      "vel": 53,
      "dur": 498
    },
    {
      "t": 1900.7,
      "ch": 1,
      "note": 40,
      "vel": 95,
      "dur": 25
    },
    {
      "t": 1900.8,
      "ch": 1,
      "note": 42,
      "vel": 109,
      "dur": 25
    },
    {
      "t": 1900.8,
      "ch": 7,
      "note": 48,
      "vel": 67,
      "dur": 80
    },
    {
      "t": 1900.8,
      "ch": 7,
      "note": 36,
      "vel": 76,
      "dur": 80
    },
    {
      "t": 1900.9,
      "ch": 1,
      "note": 36,
      "vel": 109,
      "dur": 25
    },
    {
      "t": 1901,
      "ch": 5,
      "note": 68,
      "vel": 54,
      "dur": 747
    },
    {
      "t": 1901,
      "ch": 1,
      "note": 38,
      "vel": 84,
      "dur": 25
    },
    {
      "t": 1901,
      "ch": 1,
      "note": 40,
      "vel": 105,
      "dur": 25
    },
    {
      "t": 1901.1,
      "ch": 7,
      "note": 38,
      "vel": 61,
      "dur": 80
    },
    {
      "t": 1901.1,
      "ch": 7,
      "note": 45,
      "vel": 58,
      "dur": 80
    },
    {
      "t": 1901.1,
      "ch": 1,
      "note": 42,
      "vel": 79,
      "dur": 25
    },
    {
      "t": 1901.2,
      "ch": 1,
      "note": 36,
      "vel": 85,
      "dur": 25
    },
    {
      "t": 1901.3,
      "ch": 5,
      "note": 66,
      "vel": 53,
      "dur": 748
    },
    {
      "t": 1901.3,
      "ch": 1,
      "note": 38,
      "vel": 84,
      "dur": 25
    },
    {
      "t": 1901.3,
      "ch": 1,
      "note": 40,
      "vel": 102,
      "dur": 25
    },
    {
      "t": 1901.3,
      "ch": 4,
      "note": 59,
      "vel": 55,
      "dur": 2350
    },
    {
      "t": 1901.4,
      "ch": 1,
      "note": 42,
      "vel": 90,
      "dur": 25
    },
    {
      "t": 1901.4,
      "ch": 7,
      "note": 48,
      "vel": 63,
      "dur": 80
    },
    {
      "t": 1901.4,
      "ch": 7,
      "note": 36,
      "vel": 72,
      "dur": 80
    },
    {
      "t": 1901.5,
      "ch": 1,
      "note": 36,
      "vel": 102,
      "dur": 25
    },
    {
      "t": 1901.6,
      "ch": 1,
      "note": 38,
      "vel": 78,
      "dur": 25
    },
    {
      "t": 1901.7,
      "ch": 1,
      "note": 40,
      "vel": 95,
      "dur": 25
    },
    {
      "t": 1901.7,
      "ch": 6,
      "note": 71,
      "vel": 49,
      "dur": 400
    },
    {
      "t": 1901.7,
      "ch": 6,
      "note": 59,
      "vel": 74,
      "dur": 500
    },
    {
      "t": 1901.7,
      "ch": 1,
      "note": 42,
      "vel": 72,
      "dur": 25
    },
    {
      "t": 1901.8,
      "ch": 1,
      "note": 36,
      "vel": 95,
      "dur": 25
    },
    {
      "t": 1901.8,
      "ch": 7,
      "note": 36,
      "vel": 61,
      "dur": 80
    },
    {
      "t": 1901.8,
      "ch": 7,
      "note": 38,
      "vel": 65,
      "dur": 80
    },
    {
      "t": 1901.8,
      "ch": 7,
      "note": 45,
      "vel": 59,
      "dur": 80
    },
    {
      "t": 1901.9,
      "ch": 6,
      "note": 68,
      "vel": 61,
      "dur": 500
    },
    {
      "t": 1901.9,
      "ch": 1,
      "note": 38,
      "vel": 79,
      "dur": 25
    },
    {
      "t": 1901.9,
      "ch": 1,
      "note": 40,
      "vel": 82,
      "dur": 25
    },
    {
      "t": 1902.1,
      "ch": 6,
      "note": 71,
      "vel": 47,
      "dur": 501
    },
    {
      "t": 1902.1,
      "ch": 5,
      "note": 58,
      "vel": 64,
      "dur": 751
    },
    {
      "t": 1902.1,
      "ch": 1,
      "note": 42,
      "vel": 96,
      "dur": 25
    },
    {
      "t": 1902.1,
      "ch": 7,
      "note": 48,
      "vel": 78,
      "dur": 80
    },
    {
      "t": 1902.1,
      "ch": 7,
      "note": 36,
      "vel": 69,
      "dur": 80
    },
    {
      "t": 1902.1,
      "ch": 1,
      "note": 36,
      "vel": 111,
      "dur": 25
    },
    {
      "t": 1902.2,
      "ch": 1,
      "note": 38,
      "vel": 105,
      "dur": 25
    },
    {
      "t": 1902.2,
      "ch": 1,
      "note": 40,
      "vel": 74,
      "dur": 25
    },
    {
      "t": 1902.3,
      "ch": 1,
      "note": 42,
      "vel": 91,
      "dur": 25
    },
    {
      "t": 1902.4,
      "ch": 1,
      "note": 36,
      "vel": 80,
      "dur": 25
    },
    {
      "t": 1902.5,
      "ch": 1,
      "note": 38,
      "vel": 69,
      "dur": 25
    },
    {
      "t": 1902.5,
      "ch": 1,
      "note": 40,
      "vel": 65,
      "dur": 25
    },
    {
      "t": 1902.6,
      "ch": 1,
      "note": 42,
      "vel": 82,
      "dur": 25
    },
    {
      "t": 1902.6,
      "ch": 7,
      "note": 48,
      "vel": 69,
      "dur": 80
    },
    {
      "t": 1902.6,
      "ch": 7,
      "note": 45,
      "vel": 71,
      "dur": 80
    },
    {
      "t": 1902.6,
      "ch": 7,
      "note": 36,
      "vel": 69,
      "dur": 80
    },
    {
      "t": 1902.6,
      "ch": 7,
      "note": 38,
      "vel": 74,
      "dur": 80
    },
    {
      "t": 1902.7,
      "ch": 1,
      "note": 36,
      "vel": 112,
      "dur": 25
    },
    {
      "t": 1902.8,
      "ch": 5,
      "note": 52,
      "vel": 58,
      "dur": 755
    },
    {
      "t": 1902.8,
      "ch": 1,
      "note": 38,
      "vel": 97,
      "dur": 25
    },
    {
      "t": 1902.9,
      "ch": 1,
      "note": 40,
      "vel": 87,
      "dur": 25
    },
    {
      "t": 1902.9,
      "ch": 1,
      "note": 42,
      "vel": 87,
      "dur": 25
    },
    {
      "t": 1902.9,
      "ch": 1,
      "note": 36,
      "vel": 86,
      "dur": 25
    },
    {
      "t": 1903.1,
      "ch": 7,
      "note": 36,
      "vel": 48,
      "dur": 80
    },
    {
      "t": 1903.1,
      "ch": 1,
      "note": 38,
      "vel": 76,
      "dur": 25
    },
    {
      "t": 1903.1,
      "ch": 1,
      "note": 40,
      "vel": 104,
      "dur": 25
    },
    {
      "t": 1903.2,
      "ch": 6,
      "note": 56,
      "vel": 38,
      "dur": 400
    },
    {
      "t": 1903.3,
      "ch": 1,
      "note": 42,
      "vel": 108,
      "dur": 25
    },
    {
      "t": 1903.3,
      "ch": 7,
      "note": 48,
      "vel": 75,
      "dur": 80
    },
    {
      "t": 1903.3,
      "ch": 7,
      "note": 36,
      "vel": 79,
      "dur": 80
    },
    {
      "t": 1903.3,
      "ch": 1,
      "note": 36,
      "vel": 99,
      "dur": 25
    },
    {
      "t": 1903.4,
      "ch": 1,
      "note": 38,
      "vel": 80,
      "dur": 25
    },
    {
      "t": 1903.4,
      "ch": 1,
      "note": 40,
      "vel": 73,
      "dur": 25
    },
    {
      "t": 1903.6,
      "ch": 7,
      "note": 45,
      "vel": 69,
      "dur": 80
    },
    {
      "t": 1903.6,
      "ch": 7,
      "note": 38,
      "vel": 63,
      "dur": 80
    },
    {
      "t": 1903.6,
      "ch": 1,
      "note": 42,
      "vel": 95,
      "dur": 25
    },
    {
      "t": 1903.6,
      "ch": 1,
      "note": 36,
      "vel": 103,
      "dur": 25
    },
    {
      "t": 1903.6,
      "ch": 1,
      "note": 38,
      "vel": 89,
      "dur": 25
    },
    {
      "t": 1903.7,
      "ch": 1,
      "note": 40,
      "vel": 89,
      "dur": 25
    },
    {
      "t": 1903.7,
      "ch": 4,
      "note": 58,
      "vel": 65,
      "dur": 2350
    },
    {
      "t": 1903.8,
      "ch": 1,
      "note": 42,
      "vel": 99,
      "dur": 25
    },
    {
      "t": 1903.8,
      "ch": 7,
      "note": 48,
      "vel": 70,
      "dur": 80
    },
    {
      "t": 1903.8,
      "ch": 7,
      "note": 36,
      "vel": 79,
      "dur": 80
    },
    {
      "t": 1903.9,
      "ch": 1,
      "note": 36,
      "vel": 110,
      "dur": 25
    },
    {
      "t": 1904,
      "ch": 1,
      "note": 38,
      "vel": 79,
      "dur": 25
    },
    {
      "t": 1904,
      "ch": 1,
      "note": 40,
      "vel": 86,
      "dur": 25
    },
    {
      "t": 1904.1,
      "ch": 1,
      "note": 42,
      "vel": 75,
      "dur": 25
    },
    {
      "t": 1904.2,
      "ch": 1,
      "note": 36,
      "vel": 65,
      "dur": 25
    },
    {
      "t": 1904.2,
      "ch": 7,
      "note": 45,
      "vel": 66,
      "dur": 80
    },
    {
      "t": 1904.2,
      "ch": 7,
      "note": 38,
      "vel": 70,
      "dur": 80
    },
    {
      "t": 1904.2,
      "ch": 7,
      "note": 36,
      "vel": 59,
      "dur": 80
    },
    {
      "t": 1904.3,
      "ch": 1,
      "note": 38,
      "vel": 86,
      "dur": 25
    },
    {
      "t": 1904.3,
      "ch": 1,
      "note": 40,
      "vel": 86,
      "dur": 25
    },
    {
      "t": 1904.4,
      "ch": 5,
      "note": 59,
      "vel": 56,
      "dur": 764
    },
    {
      "t": 1904.4,
      "ch": 1,
      "note": 42,
      "vel": 106,
      "dur": 25
    },
    {
      "t": 1904.4,
      "ch": 7,
      "note": 48,
      "vel": 57,
      "dur": 80
    },
    {
      "t": 1904.4,
      "ch": 7,
      "note": 36,
      "vel": 72,
      "dur": 80
    },
    {
      "t": 1904.5,
      "ch": 1,
      "note": 36,
      "vel": 117,
      "dur": 25
    },
    {
      "t": 1904.6,
      "ch": 1,
      "note": 38,
      "vel": 92,
      "dur": 25
    },
    {
      "t": 1904.7,
      "ch": 1,
      "note": 40,
      "vel": 83,
      "dur": 25
    },
    {
      "t": 1904.7,
      "ch": 1,
      "note": 42,
      "vel": 71,
      "dur": 25
    },
    {
      "t": 1904.8,
      "ch": 6,
      "note": 59,
      "vel": 37,
      "dur": 400
    },
    {
      "t": 1904.8,
      "ch": 1,
      "note": 36,
      "vel": 100,
      "dur": 25
    },
    {
      "t": 1904.9,
      "ch": 1,
      "note": 38,
      "vel": 86,
      "dur": 25
    },
    {
      "t": 1905,
      "ch": 1,
      "note": 40,
      "vel": 104,
      "dur": 25
    },
    {
      "t": 1905,
      "ch": 0,
      "note": 36,
      "vel": 127,
      "dur": 55
    },
    {
      "t": 1905,
      "ch": 1,
      "note": 42,
      "vel": 123,
      "dur": 25
    },
    {
      "t": 1905,
      "ch": 7,
      "note": 48,
      "vel": 76,
      "dur": 80
    },
    {
      "t": 1905,
      "ch": 7,
      "note": 45,
      "vel": 66,
      "dur": 80
    },
    {
      "t": 1905,
      "ch": 7,
      "note": 36,
      "vel": 68,
      "dur": 80
    },
    {
      "t": 1905,
      "ch": 7,
      "note": 38,
      "vel": 74,
      "dur": 80
    },
    {
      "t": 1905.1,
      "ch": 1,
      "note": 36,
      "vel": 111,
      "dur": 25
    },
    {
      "t": 1905.2,
      "ch": 1,
      "note": 38,
      "vel": 85,
      "dur": 25
    },
    {
      "t": 1905.2,
      "ch": 1,
      "note": 40,
      "vel": 103,
      "dur": 25
    },
    {
      "t": 1905.3,
      "ch": 1,
      "note": 42,
      "vel": 90,
      "dur": 25
    },
    {
      "t": 1905.4,
      "ch": 7,
      "note": 36,
      "vel": 55,
      "dur": 80
    },
    {
      "t": 1905.4,
      "ch": 1,
      "note": 36,
      "vel": 105,
      "dur": 25
    },
    {
      "t": 1905.4,
      "ch": 1,
      "note": 38,
      "vel": 90,
      "dur": 25
    },
    {
      "t": 1905.5,
      "ch": 1,
      "note": 40,
      "vel": 104,
      "dur": 25
    },
    {
      "t": 1905.6,
      "ch": 5,
      "note": 64,
      "vel": 62,
      "dur": 771
    },
    {
      "t": 1905.6,
      "ch": 0,
      "note": 36,
      "vel": 89,
      "dur": 55
    },
    {
      "t": 1905.6,
      "ch": 1,
      "note": 42,
      "vel": 106,
      "dur": 25
    },
    {
      "t": 1905.6,
      "ch": 7,
      "note": 48,
      "vel": 64,
      "dur": 80
    },
    {
      "t": 1905.6,
      "ch": 7,
      "note": 36,
      "vel": 71,
      "dur": 80
    },
    {
      "t": 1905.7,
      "ch": 1,
      "note": 36,
      "vel": 106,
      "dur": 25
    },
    {
      "t": 1905.8,
      "ch": 6,
      "note": 70,
      "vel": 91,
      "dur": 515
    },
    {
      "t": 1905.8,
      "ch": 1,
      "note": 38,
      "vel": 68,
      "dur": 25
    },
    {
      "t": 1905.8,
      "ch": 1,
      "note": 40,
      "vel": 91,
      "dur": 25
    },
    {
      "t": 1905.8,
      "ch": 7,
      "note": 38,
      "vel": 62,
      "dur": 80
    },
    {
      "t": 1905.8,
      "ch": 7,
      "note": 45,
      "vel": 67,
      "dur": 80
    },
    {
      "t": 1905.9,
      "ch": 1,
      "note": 42,
      "vel": 89,
      "dur": 25
    },
    {
      "t": 1906,
      "ch": 1,
      "note": 36,
      "vel": 106,
      "dur": 25
    },
    {
      "t": 1906,
      "ch": 5,
      "note": 68,
      "vel": 70,
      "dur": 774
    },
    {
      "t": 1906,
      "ch": 6,
      "note": 61,
      "vel": 64,
      "dur": 516
    },
    {
      "t": 1906.1,
      "ch": 1,
      "note": 38,
      "vel": 99,
      "dur": 25
    },
    {
      "t": 1906.1,
      "ch": 1,
      "note": 40,
      "vel": 81,
      "dur": 25
    },
    {
      "t": 1906.1,
      "ch": 6,
      "note": 54,
      "vel": 65,
      "dur": 517
    },
    {
      "t": 1906.1,
      "ch": 2,
      "note": 49,
      "vel": 0,
      "dur": 0
    },
    {
      "t": 1906.1,
      "ch": 2,
      "note": 61,
      "vel": 0,
      "dur": 0
    },
    {
      "t": 1906.1,
      "ch": 2,
      "note": 54,
      "vel": 57,
      "dur": 18000
    },
    {
      "t": 1906.1,
      "ch": 4,
      "note": 58,
      "vel": 65,
      "dur": 2350
    },
    {
      "t": 1906.1,
      "ch": 3,
      "note": 44,
      "vel": 51,
      "dur": 2400
    },
    {
      "t": 1906.2,
      "ch": 0,
      "note": 36,
      "vel": 96,
      "dur": 55
    },
    {
      "t": 1906.2,
      "ch": 1,
      "note": 42,
      "vel": 83,
      "dur": 25
    },
    {
      "t": 1906.2,
      "ch": 7,
      "note": 48,
      "vel": 73,
      "dur": 80
    },
    {
      "t": 1906.2,
      "ch": 7,
      "note": 36,
      "vel": 63,
      "dur": 80
    },
    {
      "t": 1906.2,
      "ch": 1,
      "note": 36,
      "vel": 105,
      "dur": 25
    },
    {
      "t": 1906.4,
      "ch": 1,
      "note": 38,
      "vel": 91,
      "dur": 25
    },
    {
      "t": 1906.4,
      "ch": 1,
      "note": 40,
      "vel": 121,
      "dur": 25
    },
    {
      "t": 1906.5,
      "ch": 1,
      "note": 42,
      "vel": 99,
      "dur": 25
    },
    {
      "t": 1906.6,
      "ch": 7,
      "note": 38,
      "vel": 68,
      "dur": 80
    },
    {
      "t": 1906.6,
      "ch": 7,
      "note": 45,
      "vel": 57,
      "dur": 80
    },
    {
      "t": 1906.6,
      "ch": 7,
      "note": 36,
      "vel": 54,
      "dur": 80
    },
    {
      "t": 1906.6,
      "ch": 1,
      "note": 36,
      "vel": 104,
      "dur": 25
    },
    {
      "t": 1906.7,
      "ch": 1,
      "note": 38,
      "vel": 92,
      "dur": 25
    },
    {
      "t": 1906.7,
      "ch": 1,
      "note": 40,
      "vel": 85,
      "dur": 25
    },
    {
      "t": 1906.7,
      "ch": 6,
      "note": 70,
      "vel": 71,
      "dur": 519
    },
    {
      "t": 1906.7,
      "ch": 5,
      "note": 66,
      "vel": 45,
      "dur": 778
    },
    {
      "t": 1906.8,
      "ch": 0,
      "note": 36,
      "vel": 85,
      "dur": 55
    },
    {
      "t": 1906.8,
      "ch": 1,
      "note": 42,
      "vel": 108,
      "dur": 25
    },
    {
      "t": 1906.8,
      "ch": 7,
      "note": 48,
      "vel": 66,
      "dur": 80
    },
    {
      "t": 1906.8,
      "ch": 7,
      "note": 36,
      "vel": 70,
      "dur": 80
    },
    {
      "t": 1906.9,
      "ch": 1,
      "note": 36,
      "vel": 102,
      "dur": 25
    },
    {
      "t": 1907,
      "ch": 1,
      "note": 38,
      "vel": 85,
      "dur": 25
    },
    {
      "t": 1907,
      "ch": 1,
      "note": 40,
      "vel": 98,
      "dur": 25
    },
    {
      "t": 1907,
      "ch": 6,
      "note": 63,
      "vel": 60,
      "dur": 520
    },
    {
      "t": 1907.1,
      "ch": 1,
      "note": 42,
      "vel": 93,
      "dur": 25
    },
    {
      "t": 1907.2,
      "ch": 1,
      "note": 36,
      "vel": 92,
      "dur": 25
    },
    {
      "t": 1907.3,
      "ch": 1,
      "note": 38,
      "vel": 106,
      "dur": 25
    },
    {
      "t": 1907.3,
      "ch": 1,
      "note": 40,
      "vel": 95,
      "dur": 25
    },
    {
      "t": 1907.3,
      "ch": 6,
      "note": 68,
      "vel": 60,
      "dur": 521
    },
    {
      "t": 1907.4,
      "ch": 0,
      "note": 36,
      "vel": 111,
      "dur": 55
    },
    {
      "t": 1907.4,
      "ch": 1,
      "note": 42,
      "vel": 115,
      "dur": 25
    },
    {
      "t": 1907.4,
      "ch": 7,
      "note": 48,
      "vel": 59,
      "dur": 80
    },
    {
      "t": 1907.4,
      "ch": 7,
      "note": 45,
      "vel": 66,
      "dur": 80
    },
    {
      "t": 1907.4,
      "ch": 7,
      "note": 36,
      "vel": 69,
      "dur": 80
    },
    {
      "t": 1907.4,
      "ch": 7,
      "note": 38,
      "vel": 72,
      "dur": 80
    },
    {
      "t": 1907.5,
      "ch": 1,
      "note": 36,
      "vel": 90,
      "dur": 25
    },
    {
      "t": 1907.5,
      "ch": 6,
      "note": 66,
      "vel": 42,
      "dur": 521
    },
    {
      "t": 1907.5,
      "ch": 5,
      "note": 63,
      "vel": 84,
      "dur": 782
    },
    {
      "t": 1907.5,
      "ch": 1,
      "note": 38,
      "vel": 65,
      "dur": 25
    },
    {
      "t": 1907.6,
      "ch": 5,
      "note": 64,
      "vel": 60,
      "dur": 783
    },
    {
      "t": 1907.6,
      "ch": 1,
      "note": 40,
      "vel": 104,
      "dur": 25
    },
    {
      "t": 1907.7,
      "ch": 1,
      "note": 42,
      "vel": 90,
      "dur": 25
    },
    {
      "t": 1907.8,
      "ch": 7,
      "note": 36,
      "vel": 53,
      "dur": 80
    },
    {
      "t": 1907.8,
      "ch": 1,
      "note": 36,
      "vel": 96,
      "dur": 25
    },
    {
      "t": 1907.8,
      "ch": 6,
      "note": 66,
      "vel": 25,
      "dur": 400
    },
    {
      "t": 1907.8,
      "ch": 1,
      "note": 38,
      "vel": 95,
      "dur": 25
    },
    {
      "t": 1907.9,
      "ch": 5,
      "note": 73,
      "vel": 58,
      "dur": 784
    },
    {
      "t": 1907.9,
      "ch": 6,
      "note": 73,
      "vel": 44,
      "dur": 523
    },
    {
      "t": 1907.9,
      "ch": 1,
      "note": 40,
      "vel": 88,
      "dur": 25
    },
    {
      "t": 1908,
      "ch": 0,
      "note": 36,
      "vel": 93,
      "dur": 55
    },
    {
      "t": 1908,
      "ch": 1,
      "note": 42,
      "vel": 103,
      "dur": 25
    },
    {
      "t": 1908,
      "ch": 7,
      "note": 48,
      "vel": 75,
      "dur": 80
    },
    {
      "t": 1908,
      "ch": 7,
      "note": 36,
      "vel": 56,
      "dur": 80
    },
    {
      "t": 1908.1,
      "ch": 1,
      "note": 36,
      "vel": 96,
      "dur": 25
    },
    {
      "t": 1908.1,
      "ch": 1,
      "note": 38,
      "vel": 89,
      "dur": 25
    },
    {
      "t": 1908.2,
      "ch": 7,
      "note": 45,
      "vel": 52,
      "dur": 80
    },
    {
      "t": 1908.2,
      "ch": 7,
      "note": 38,
      "vel": 66,
      "dur": 80
    },
    {
      "t": 1908.2,
      "ch": 6,
      "note": 73,
      "vel": 46,
      "dur": 524
    },
    {
      "t": 1908.2,
      "ch": 1,
      "note": 40,
      "vel": 91,
      "dur": 25
    },
    {
      "t": 1908.3,
      "ch": 1,
      "note": 42,
      "vel": 104,
      "dur": 25
    },
    {
      "t": 1908.3,
      "ch": 1,
      "note": 36,
      "vel": 102,
      "dur": 25
    },
    {
      "t": 1908.3,
      "ch": 6,
      "note": 66,
      "vel": 53,
      "dur": 524
    },
    {
      "t": 1908.5,
      "ch": 1,
      "note": 38,
      "vel": 78,
      "dur": 25
    },
    {
      "t": 1908.5,
      "ch": 1,
      "note": 40,
      "vel": 77,
      "dur": 25
    },
    {
      "t": 1908.6,
      "ch": 0,
      "note": 36,
      "vel": 89,
      "dur": 55
    },
    {
      "t": 1908.6,
      "ch": 1,
      "note": 42,
      "vel": 104,
      "dur": 25
    },
    {
      "t": 1908.6,
      "ch": 7,
      "note": 48,
      "vel": 61,
      "dur": 80
    },
    {
      "t": 1908.6,
      "ch": 7,
      "note": 36,
      "vel": 61,
      "dur": 80
    },
    {
      "t": 1908.6,
      "ch": 1,
      "note": 36,
      "vel": 103,
      "dur": 25
    },
    {
      "t": 1908.6,
      "ch": 6,
      "note": 73,
      "vel": 71,
      "dur": 525
    },
    {
      "t": 1908.8,
      "ch": 1,
      "note": 38,
      "vel": 90,
      "dur": 25
    },
    {
      "t": 1908.8,
      "ch": 1,
      "note": 40,
      "vel": 91,
      "dur": 25
    },
    {
      "t": 1908.9,
      "ch": 1,
      "note": 42,
      "vel": 100,
      "dur": 25
    },
    {
      "t": 1908.9,
      "ch": 7,
      "note": 45,
      "vel": 59,
      "dur": 80
    },
    {
      "t": 1908.9,
      "ch": 1,
      "note": 36,
      "vel": 83,
      "dur": 25
    },
    {
      "t": 1908.9,
      "ch": 7,
      "note": 38,
      "vel": 69,
      "dur": 80
    },
    {
      "t": 1908.9,
      "ch": 5,
      "note": 63,
      "vel": 63,
      "dur": 788
    },
    {
      "t": 1908.9,
      "ch": 7,
      "note": 36,
      "vel": 58,
      "dur": 80
    },
    {
      "t": 1909.1,
      "ch": 1,
      "note": 38,
      "vel": 81,
      "dur": 25
    },
    {
      "t": 1909.1,
      "ch": 1,
      "note": 40,
      "vel": 79,
      "dur": 25
    },
    {
      "t": 1909.2,
      "ch": 0,
      "note": 36,
      "vel": 93,
      "dur": 55
    },
    {
      "t": 1909.2,
      "ch": 1,
      "note": 42,
      "vel": 99,
      "dur": 25
    },
    {
      "t": 1909.2,
      "ch": 7,
      "note": 48,
      "vel": 60,
      "dur": 80
    },
    {
      "t": 1909.2,
      "ch": 7,
      "note": 36,
      "vel": 75,
      "dur": 80
    },
    {
      "t": 1909.3,
      "ch": 1,
      "note": 36,
      "vel": 89,
      "dur": 25
    },
    {
      "t": 1909.3,
      "ch": 5,
      "note": 64,
      "vel": 82,
      "dur": 789
    },
    {
      "t": 1909.4,
      "ch": 1,
      "note": 38,
      "vel": 96,
      "dur": 25
    },
    {
      "t": 1909.4,
      "ch": 1,
      "note": 40,
      "vel": 82,
      "dur": 25
    },
    {
      "t": 1909.4,
      "ch": 6,
      "note": 68,
      "vel": 43,
      "dur": 400
    },
    {
      "t": 1909.5,
      "ch": 1,
      "note": 42,
      "vel": 97,
      "dur": 25
    },
    {
      "t": 1909.6,
      "ch": 1,
      "note": 36,
      "vel": 100,
      "dur": 25
    },
    {
      "t": 1909.6,
      "ch": 5,
      "note": 56,
      "vel": 64,
      "dur": 790
    },
    {
      "t": 1909.7,
      "ch": 1,
      "note": 38,
      "vel": 106,
      "dur": 25
    },
    {
      "t": 1909.7,
      "ch": 1,
      "note": 40,
      "vel": 80,
      "dur": 25
    },
    {
      "t": 1909.7,
      "ch": 6,
      "note": 66,
      "vel": 53,
      "dur": 527
    },
    {
      "t": 1909.8,
      "ch": 0,
      "note": 36,
      "vel": 119,
      "dur": 55
    },
    {
      "t": 1909.8,
      "ch": 1,
      "note": 42,
      "vel": 108,
      "dur": 25
    },
    {
      "t": 1909.8,
      "ch": 7,
      "note": 48,
      "vel": 74,
      "dur": 80
    },
    {
      "t": 1909.8,
      "ch": 7,
      "note": 45,
      "vel": 71,
      "dur": 80
    },
    {
      "t": 1909.8,
      "ch": 7,
      "note": 36,
      "vel": 79,
      "dur": 80
    },
    {
      "t": 1909.8,
      "ch": 7,
      "note": 38,
      "vel": 72,
      "dur": 80
    },
    {
      "t": 1909.8,
      "ch": 1,
      "note": 36,
      "vel": 91,
      "dur": 25
    },
    {
      "t": 1910,
      "ch": 1,
      "note": 38,
      "vel": 98,
      "dur": 25
    },
    {
      "t": 1910,
      "ch": 1,
      "note": 40,
      "vel": 104,
      "dur": 25
    },
    {
      "t": 1910.1,
      "ch": 1,
      "note": 42,
      "vel": 112,
      "dur": 25
    },
    {
      "t": 1910.2,
      "ch": 1,
      "note": 36,
      "vel": 99,
      "dur": 25
    },
    {
      "t": 1910.2,
      "ch": 7,
      "note": 36,
      "vel": 56,
      "dur": 80
    },
    {
      "t": 1910.2,
      "ch": 5,
      "note": 63,
      "vel": 55,
      "dur": 790
    },
    {
      "t": 1910.3,
      "ch": 1,
      "note": 38,
      "vel": 112,
      "dur": 25
    },
    {
      "t": 1910.3,
      "ch": 1,
      "note": 40,
      "vel": 102,
      "dur": 25
    },
    {
      "t": 1910.4,
      "ch": 0,
      "note": 36,
      "vel": 82,
      "dur": 55
    },
    {
      "t": 1910.4,
      "ch": 1,
      "note": 42,
      "vel": 116,
      "dur": 25
    },
    {
      "t": 1910.4,
      "ch": 7,
      "note": 48,
      "vel": 64,
      "dur": 80
    },
    {
      "t": 1910.4,
      "ch": 7,
      "note": 36,
      "vel": 62,
      "dur": 80
    },
    {
      "t": 1910.4,
      "ch": 1,
      "note": 36,
      "vel": 125,
      "dur": 25
    },
    {
      "t": 1910.4,
      "ch": 6,
      "note": 68,
      "vel": 68,
      "dur": 527
    },
    {
      "t": 1910.5,
      "ch": 6,
      "note": 68,
      "vel": 25,
      "dur": 400
    },
    {
      "t": 1910.6,
      "ch": 1,
      "note": 38,
      "vel": 84,
      "dur": 25
    },
    {
      "t": 1910.6,
      "ch": 1,
      "note": 40,
      "vel": 89,
      "dur": 25
    },
    {
      "t": 1910.6,
      "ch": 7,
      "note": 45,
      "vel": 70,
      "dur": 80
    },
    {
      "t": 1910.6,
      "ch": 7,
      "note": 38,
      "vel": 65,
      "dur": 80
    },
    {
      "t": 1910.7,
      "ch": 1,
      "note": 42,
      "vel": 90,
      "dur": 25
    },
    {
      "t": 1910.7,
      "ch": 5,
      "note": 64,
      "vel": 61,
      "dur": 791
    },
    {
      "t": 1910.8,
      "ch": 1,
      "note": 36,
      "vel": 90,
      "dur": 25
    },
    {
      "t": 1910.9,
      "ch": 1,
      "note": 38,
      "vel": 107,
      "dur": 25
    },
    {
      "t": 1910.9,
      "ch": 1,
      "note": 40,
      "vel": 108,
      "dur": 25
    },
    {
      "t": 1910.9,
      "ch": 4,
      "note": 59,
      "vel": 45,
      "dur": 4750
    },
    {
      "t": 1910.9,
      "ch": 3,
      "note": 44,
      "vel": 49,
      "dur": 4800
    },
    {
      "t": 1911,
      "ch": 0,
      "note": 36,
      "vel": 97,
      "dur": 55
    },
    {
      "t": 1911,
      "ch": 1,
      "note": 42,
      "vel": 108,
      "dur": 25
    },
    {
      "t": 1911,
      "ch": 7,
      "note": 48,
      "vel": 73,
      "dur": 80
    },
    {
      "t": 1911,
      "ch": 7,
      "note": 36,
      "vel": 77,
      "dur": 80
    },
    {
      "t": 1911.1,
      "ch": 1,
      "note": 36,
      "vel": 68,
      "dur": 25
    },
    {
      "t": 1911.1,
      "ch": 1,
      "note": 38,
      "vel": 80,
      "dur": 25
    },
    {
      "t": 1911.2,
      "ch": 6,
      "note": 68,
      "vel": 47,
      "dur": 527
    },
    {
      "t": 1911.2,
      "ch": 1,
      "note": 40,
      "vel": 94,
      "dur": 25
    },
    {
      "t": 1911.3,
      "ch": 1,
      "note": 42,
      "vel": 94,
      "dur": 25
    },
    {
      "t": 1911.3,
      "ch": 7,
      "note": 45,
      "vel": 52,
      "dur": 80
    },
    {
      "t": 1911.3,
      "ch": 7,
      "note": 38,
      "vel": 73,
      "dur": 80
    },
    {
      "t": 1911.3,
      "ch": 7,
      "note": 36,
      "vel": 66,
      "dur": 80
    },
    {
      "t": 1911.4,
      "ch": 1,
      "note": 36,
      "vel": 108,
      "dur": 25
    },
    {
      "t": 1911.5,
      "ch": 1,
      "note": 38,
      "vel": 89,
      "dur": 25
    },
    {
      "t": 1911.5,
      "ch": 1,
      "note": 40,
      "vel": 91,
      "dur": 25
    },
    {
      "t": 1911.6,
      "ch": 0,
      "note": 36,
      "vel": 94,
      "dur": 55
    },
    {
      "t": 1911.6,
      "ch": 1,
      "note": 42,
      "vel": 87,
      "dur": 25
    },
    {
      "t": 1911.6,
      "ch": 7,
      "note": 48,
      "vel": 65,
      "dur": 80
    },
    {
      "t": 1911.6,
      "ch": 7,
      "note": 36,
      "vel": 83,
      "dur": 80
    },
    {
      "t": 1911.6,
      "ch": 1,
      "note": 36,
      "vel": 96,
      "dur": 25
    },
    {
      "t": 1911.8,
      "ch": 1,
      "note": 38,
      "vel": 94,
      "dur": 25
    },
    {
      "t": 1911.8,
      "ch": 1,
      "note": 40,
      "vel": 109,
      "dur": 25
    },
    {
      "t": 1911.9,
      "ch": 1,
      "note": 42,
      "vel": 110,
      "dur": 25
    },
    {
      "t": 1912,
      "ch": 1,
      "note": 36,
      "vel": 78,
      "dur": 25
    },
    {
      "t": 1912,
      "ch": 1,
      "note": 38,
      "vel": 103,
      "dur": 25
    },
    {
      "t": 1912.1,
      "ch": 1,
      "note": 40,
      "vel": 97,
      "dur": 25
    },
    {
      "t": 1912.2,
      "ch": 0,
      "note": 36,
      "vel": 120,
      "dur": 55
    },
    {
      "t": 1912.2,
      "ch": 1,
      "note": 42,
      "vel": 109,
      "dur": 25
    },
    {
      "t": 1912.2,
      "ch": 7,
      "note": 48,
      "vel": 73,
      "dur": 80
    },
    {
      "t": 1912.2,
      "ch": 7,
      "note": 45,
      "vel": 64,
      "dur": 80
    },
    {
      "t": 1912.2,
      "ch": 7,
      "note": 36,
      "vel": 81,
      "dur": 80
    },
    {
      "t": 1912.2,
      "ch": 7,
      "note": 38,
      "vel": 75,
      "dur": 80
    },
    {
      "t": 1912.3,
      "ch": 1,
      "note": 36,
      "vel": 122,
      "dur": 25
    },
    {
      "t": 1912.4,
      "ch": 1,
      "note": 38,
      "vel": 87,
      "dur": 25
    },
    {
      "t": 1912.4,
      "ch": 1,
      "note": 40,
      "vel": 81,
      "dur": 25
    },
    {
      "t": 1912.4,
      "ch": 5,
      "note": 73,
      "vel": 43,
      "dur": 788
    },
    {
      "t": 1912.5,
      "ch": 1,
      "note": 42,
      "vel": 76,
      "dur": 25
    },
    {
      "t": 1912.6,
      "ch": 1,
      "note": 36,
      "vel": 68,
      "dur": 25
    },
    {
      "t": 1912.6,
      "ch": 5,
      "note": 63,
      "vel": 78,
      "dur": 788
    },
    {
      "t": 1912.6,
      "ch": 7,
      "note": 36,
      "vel": 53,
      "dur": 80
    },
    {
      "t": 1912.7,
      "ch": 1,
      "note": 38,
      "vel": 81,
      "dur": 25
    },
    {
      "t": 1912.7,
      "ch": 1,
      "note": 40,
      "vel": 103,
      "dur": 25
    },
    {
      "t": 1912.8,
      "ch": 0,
      "note": 36,
      "vel": 87,
      "dur": 55
    },
    {
      "t": 1912.8,
      "ch": 1,
      "note": 42,
      "vel": 88,
      "dur": 25
    },
    {
      "t": 1912.8,
      "ch": 7,
      "note": 48,
      "vel": 81,
      "dur": 80
    },
    {
      "t": 1912.8,
      "ch": 7,
      "note": 36,
      "vel": 74,
      "dur": 80
    },
    {
      "t": 1912.8,
      "ch": 1,
      "note": 36,
      "vel": 103,
      "dur": 25
    },
    {
      "t": 1912.8,
      "ch": 6,
      "note": 59,
      "vel": 50,
      "dur": 525
    },
    {
      "t": 1912.8,
      "ch": 6,
      "note": 73,
      "vel": 33,
      "dur": 400
    },
    {
      "t": 1913,
      "ch": 1,
      "note": 38,
      "vel": 95,
      "dur": 25
    },
    {
      "t": 1913,
      "ch": 7,
      "note": 38,
      "vel": 62,
      "dur": 80
    },
    {
      "t": 1913,
      "ch": 7,
      "note": 45,
      "vel": 60,
      "dur": 80
    },
    {
      "t": 1913,
      "ch": 1,
      "note": 40,
      "vel": 100,
      "dur": 25
    },
    {
      "t": 1913.1,
      "ch": 1,
      "note": 42,
      "vel": 83,
      "dur": 25
    },
    {
      "t": 1913.2,
      "ch": 1,
      "note": 36,
      "vel": 96,
      "dur": 25
    },
    {
      "t": 1913.3,
      "ch": 1,
      "note": 38,
      "vel": 84,
      "dur": 25
    },
    {
      "t": 1913.3,
      "ch": 1,
      "note": 40,
      "vel": 93,
      "dur": 25
    },
    {
      "t": 1913.3,
      "ch": 5,
      "note": 64,
      "vel": 58,
      "dur": 785
    },
    {
      "t": 1913.4,
      "ch": 0,
      "note": 36,
      "vel": 92,
      "dur": 55
    },
    {
      "t": 1913.4,
      "ch": 1,
      "note": 42,
      "vel": 78,
      "dur": 25
    },
    {
      "t": 1913.4,
      "ch": 7,
      "note": 48,
      "vel": 71,
      "dur": 80
    },
    {
      "t": 1913.4,
      "ch": 7,
      "note": 36,
      "vel": 77,
      "dur": 80
    },
    {
      "t": 1913.4,
      "ch": 1,
      "note": 36,
      "vel": 85,
      "dur": 25
    },
    {
      "t": 1913.6,
      "ch": 1,
      "note": 38,
      "vel": 106,
      "dur": 25
    },
    {
      "t": 1913.6,
      "ch": 1,
      "note": 40,
      "vel": 99,
      "dur": 25
    },
    {
      "t": 1913.7,
      "ch": 1,
      "note": 42,
      "vel": 89,
      "dur": 25
    },
    {
      "t": 1913.7,
      "ch": 7,
      "note": 36,
      "vel": 62,
      "dur": 80
    },
    {
      "t": 1913.7,
      "ch": 7,
      "note": 38,
      "vel": 68,
      "dur": 80
    },
    {
      "t": 1913.7,
      "ch": 7,
      "note": 45,
      "vel": 57,
      "dur": 80
    },
    {
      "t": 1913.8,
      "ch": 6,
      "note": 66,
      "vel": 59,
      "dur": 522
    },
    {
      "t": 1913.8,
      "ch": 1,
      "note": 36,
      "vel": 83,
      "dur": 25
    },
    {
      "t": 1913.8,
      "ch": 4,
      "note": 58,
      "vel": 64,
      "dur": 2350
    },
    {
      "t": 1913.8,
      "ch": 3,
      "note": 44,
      "vel": 49,
      "dur": 2400
    },
    {
      "t": 1913.8,
      "ch": 1,
      "note": 38,
      "vel": 94,
      "dur": 25
    },
    {
      "t": 1913.9,
      "ch": 1,
      "note": 40,
      "vel": 98,
      "dur": 25
    },
    {
      "t": 1914,
      "ch": 0,
      "note": 36,
      "vel": 101,
      "dur": 55
    },
    {
      "t": 1914,
      "ch": 1,
      "note": 42,
      "vel": 77,
      "dur": 25
    },
    {
      "t": 1914,
      "ch": 7,
      "note": 48,
      "vel": 77,
      "dur": 80
    },
    {
      "t": 1914,
      "ch": 7,
      "note": 36,
      "vel": 79,
      "dur": 80
    },
    {
      "t": 1914.1,
      "ch": 1,
      "note": 36,
      "vel": 108,
      "dur": 25
    },
    {
      "t": 1914.1,
      "ch": 1,
      "note": 38,
      "vel": 86,
      "dur": 25
    },
    {
      "t": 1914.2,
      "ch": 6,
      "note": 66,
      "vel": 55,
      "dur": 521
    },
    {
      "t": 1914.2,
      "ch": 1,
      "note": 40,
      "vel": 80,
      "dur": 25
    },
    {
      "t": 1914.3,
      "ch": 1,
      "note": 42,
      "vel": 91,
      "dur": 25
    },
    {
      "t": 1914.3,
      "ch": 5,
      "note": 56,
      "vel": 70,
      "dur": 780
    },
    {
      "t": 1914.4,
      "ch": 1,
      "note": 36,
      "vel": 69,
      "dur": 25
    },
    {
      "t": 1914.4,
      "ch": 1,
      "note": 38,
      "vel": 76,
      "dur": 25
    },
    {
      "t": 1914.5,
      "ch": 6,
      "note": 64,
      "vel": 47,
      "dur": 520
    },
    {
      "t": 1914.5,
      "ch": 5,
      "note": 61,
      "vel": 74,
      "dur": 780
    },
    {
      "t": 1914.5,
      "ch": 1,
      "note": 40,
      "vel": 89,
      "dur": 25
    },
    {
      "t": 1914.6,
      "ch": 0,
      "note": 36,
      "vel": 111,
      "dur": 55
    },
    {
      "t": 1914.6,
      "ch": 1,
      "note": 42,
      "vel": 93,
      "dur": 25
    },
    {
      "t": 1914.6,
      "ch": 7,
      "note": 48,
      "vel": 63,
      "dur": 80
    },
    {
      "t": 1914.6,
      "ch": 7,
      "note": 45,
      "vel": 58,
      "dur": 80
    },
    {
      "t": 1914.6,
      "ch": 7,
      "note": 36,
      "vel": 56,
      "dur": 80
    },
    {
      "t": 1914.6,
      "ch": 7,
      "note": 38,
      "vel": 70,
      "dur": 80
    },
    {
      "t": 1914.6,
      "ch": 1,
      "note": 36,
      "vel": 113,
      "dur": 25
    },
    {
      "t": 1914.6,
      "ch": 5,
      "note": 54,
      "vel": 51,
      "dur": 779
    },
    {
      "t": 1914.8,
      "ch": 1,
      "note": 38,
      "vel": 96,
      "dur": 25
    },
    {
      "t": 1914.8,
      "ch": 1,
      "note": 40,
      "vel": 86,
      "dur": 25
    },
    {
      "t": 1914.9,
      "ch": 1,
      "note": 42,
      "vel": 106,
      "dur": 25
    },
    {
      "t": 1915,
      "ch": 1,
      "note": 36,
      "vel": 83,
      "dur": 25
    },
    {
      "t": 1915,
      "ch": 7,
      "note": 36,
      "vel": 69,
      "dur": 80
    },
    {
      "t": 1915,
      "ch": 5,
      "note": 59,
      "vel": 56,
      "dur": 777
    },
    {
      "t": 1915.1,
      "ch": 1,
      "note": 38,
      "vel": 98,
      "dur": 25
    },
    {
      "t": 1915.1,
      "ch": 1,
      "note": 40,
      "vel": 80,
      "dur": 25
    },
    {
      "t": 1915.1,
      "ch": 5,
      "note": 66,
      "vel": 71,
      "dur": 776
    },
    {
      "t": 1915.2,
      "ch": 0,
      "note": 36,
      "vel": 90,
      "dur": 55
    },
    {
      "t": 1915.2,
      "ch": 1,
      "note": 42,
      "vel": 98,
      "dur": 25
    },
    {
      "t": 1915.2,
      "ch": 7,
      "note": 48,
      "vel": 75,
      "dur": 80
    },
    {
      "t": 1915.2,
      "ch": 7,
      "note": 36,
      "vel": 65,
      "dur": 80
    },
    {
      "t": 1915.3,
      "ch": 1,
      "note": 36,
      "vel": 71,
      "dur": 25
    },
    {
      "t": 1915.3,
      "ch": 6,
      "note": 56,
      "vel": 42,
      "dur": 517
    },
    {
      "t": 1915.4,
      "ch": 1,
      "note": 38,
      "vel": 79,
      "dur": 25
    },
    {
      "t": 1915.4,
      "ch": 6,
      "note": 70,
      "vel": 56,
      "dur": 400
    },
    {
      "t": 1915.4,
      "ch": 1,
      "note": 40,
      "vel": 71,
      "dur": 25
    },
    {
      "t": 1915.4,
      "ch": 7,
      "note": 45,
      "vel": 64,
      "dur": 80
    },
    {
      "t": 1915.4,
      "ch": 7,
      "note": 38,
      "vel": 69,
      "dur": 80
    },
    {
      "t": 1915.5,
      "ch": 1,
      "note": 42,
      "vel": 89,
      "dur": 25
    },
    {
      "t": 1915.6,
      "ch": 1,
      "note": 36,
      "vel": 73,
      "dur": 25
    },
    {
      "t": 1915.6,
      "ch": 1,
      "note": 38,
      "vel": 84,
      "dur": 25
    },
    {
      "t": 1915.7,
      "ch": 5,
      "note": 73,
      "vel": 84,
      "dur": 773
    },
    {
      "t": 1915.7,
      "ch": 6,
      "note": 63,
      "vel": 57,
      "dur": 515
    },
    {
      "t": 1915.7,
      "ch": 1,
      "note": 40,
      "vel": 79,
      "dur": 25
    },
    {
      "t": 1915.7,
      "ch": 2,
      "note": 54,
      "vel": 0,
      "dur": 0
    },
    {
      "t": 1915.7,
      "ch": 4,
      "note": 58,
      "vel": 64,
      "dur": 2350
    },
    {
      "t": 1915.7,
      "ch": 3,
      "note": 35,
      "vel": 51,
      "dur": 2400
    },
    {
      "t": 1915.8,
      "ch": 0,
      "note": 36,
      "vel": 94,
      "dur": 55
    },
    {
      "t": 1915.8,
      "ch": 1,
      "note": 42,
      "vel": 127,
      "dur": 25
    },
    {
      "t": 1915.8,
      "ch": 7,
      "note": 48,
      "vel": 73,
      "dur": 80
    },
    {
      "t": 1915.8,
      "ch": 7,
      "note": 36,
      "vel": 72,
      "dur": 80
    },
    {
      "t": 1915.9,
      "ch": 1,
      "note": 36,
      "vel": 97,
      "dur": 25
    },
    {
      "t": 1916,
      "ch": 1,
      "note": 38,
      "vel": 99,
      "dur": 25
    },
    {
      "t": 1916,
      "ch": 1,
      "note": 40,
      "vel": 86,
      "dur": 25
    },
    {
      "t": 1916.1,
      "ch": 1,
      "note": 42,
      "vel": 89,
      "dur": 25
    },
    {
      "t": 1916.1,
      "ch": 7,
      "note": 36,
      "vel": 55,
      "dur": 80
    },
    {
      "t": 1916.1,
      "ch": 7,
      "note": 38,
      "vel": 70,
      "dur": 80
    },
    {
      "t": 1916.1,
      "ch": 7,
      "note": 45,
      "vel": 71,
      "dur": 80
    },
    {
      "t": 1916.2,
      "ch": 1,
      "note": 36,
      "vel": 92,
      "dur": 25
    },
    {
      "t": 1916.3,
      "ch": 1,
      "note": 38,
      "vel": 70,
      "dur": 25
    },
    {
      "t": 1916.3,
      "ch": 1,
      "note": 40,
      "vel": 87,
      "dur": 25
    },
    {
      "t": 1916.4,
      "ch": 0,
      "note": 36,
      "vel": 97,
      "dur": 55
    },
    {
      "t": 1916.4,
      "ch": 1,
      "note": 42,
      "vel": 113,
      "dur": 25
    },
    {
      "t": 1916.4,
      "ch": 7,
      "note": 48,
      "vel": 76,
      "dur": 80
    },
    {
      "t": 1916.4,
      "ch": 7,
      "note": 36,
      "vel": 62,
      "dur": 80
    },
    {
      "t": 1916.4,
      "ch": 1,
      "note": 36,
      "vel": 96,
      "dur": 25
    },
    {
      "t": 1916.4,
      "ch": 5,
      "note": 51,
      "vel": 67,
      "dur": 768
    },
    {
      "t": 1916.6,
      "ch": 1,
      "note": 38,
      "vel": 104,
      "dur": 25
    },
    {
      "t": 1916.6,
      "ch": 1,
      "note": 40,
      "vel": 98,
      "dur": 25
    },
    {
      "t": 1916.7,
      "ch": 1,
      "note": 42,
      "vel": 100,
      "dur": 25
    },
    {
      "t": 1916.8,
      "ch": 1,
      "note": 36,
      "vel": 83,
      "dur": 25
    },
    {
      "t": 1916.8,
      "ch": 6,
      "note": 70,
      "vel": 58,
      "dur": 511
    },
    {
      "t": 1916.9,
      "ch": 1,
      "note": 38,
      "vel": 87,
      "dur": 25
    },
    {
      "t": 1916.9,
      "ch": 1,
      "note": 40,
      "vel": 111,
      "dur": 25
    },
    {
      "t": 1917,
      "ch": 0,
      "note": 36,
      "vel": 116,
      "dur": 55
    },
    {
      "t": 1917,
      "ch": 1,
      "note": 42,
      "vel": 100,
      "dur": 25
    },
    {
      "t": 1917,
      "ch": 7,
      "note": 48,
      "vel": 84,
      "dur": 80
    },
    {
      "t": 1917,
      "ch": 7,
      "note": 45,
      "vel": 63,
      "dur": 80
    },
    {
      "t": 1917,
      "ch": 7,
      "note": 36,
      "vel": 81,
      "dur": 80
    },
    {
      "t": 1917,
      "ch": 7,
      "note": 38,
      "vel": 79,
      "dur": 80
    },
    {
      "t": 1917,
      "ch": 1,
      "note": 36,
      "vel": 94,
      "dur": 25
    },
    {
      "t": 1917.2,
      "ch": 1,
      "note": 38,
      "vel": 99,
      "dur": 25
    },
    {
      "t": 1917.2,
      "ch": 1,
      "note": 40,
      "vel": 73,
      "dur": 25
    },
    {
      "t": 1917.3,
      "ch": 1,
      "note": 42,
      "vel": 81,
      "dur": 25
    },
    {
      "t": 1917.3,
      "ch": 1,
      "note": 36,
      "vel": 100,
      "dur": 25
    },
    {
      "t": 1917.3,
      "ch": 7,
      "note": 36,
      "vel": 59,
      "dur": 80
    },
    {
      "t": 1917.5,
      "ch": 1,
      "note": 38,
      "vel": 84,
      "dur": 25
    },
    {
      "t": 1917.5,
      "ch": 1,
      "note": 40,
      "vel": 88,
      "dur": 25
    },
    {
      "t": 1917.5,
      "ch": 6,
      "note": 73,
      "vel": 39,
      "dur": 508
    },
    {
      "t": 1917.6,
      "ch": 0,
      "note": 36,
      "vel": 98,
      "dur": 55
    },
    {
      "t": 1917.6,
      "ch": 1,
      "note": 42,
      "vel": 110,
      "dur": 25
    },
    {
      "t": 1917.6,
      "ch": 7,
      "note": 48,
      "vel": 75,
      "dur": 80
    },
    {
      "t": 1917.6,
      "ch": 7,
      "note": 36,
      "vel": 72,
      "dur": 80
    },
    {
      "t": 1917.6,
      "ch": 1,
      "note": 36,
      "vel": 115,
      "dur": 25
    },
    {
      "t": 1917.8,
      "ch": 1,
      "note": 38,
      "vel": 96,
      "dur": 25
    },
    {
      "t": 1917.8,
      "ch": 1,
      "note": 40,
      "vel": 80,
      "dur": 25
    },
    {
      "t": 1917.8,
      "ch": 7,
      "note": 45,
      "vel": 63,
      "dur": 80
    },
    {
      "t": 1917.8,
      "ch": 7,
      "note": 38,
      "vel": 68,
      "dur": 80
    },
    {
      "t": 1917.9,
      "ch": 1,
      "note": 42,
      "vel": 83,
      "dur": 25
    },
    {
      "t": 1917.9,
      "ch": 1,
      "note": 36,
      "vel": 95,
      "dur": 25
    },
    {
      "t": 1918.1,
      "ch": 1,
      "note": 38,
      "vel": 108,
      "dur": 25
    },
    {
      "t": 1918.1,
      "ch": 5,
      "note": 61,
      "vel": 60,
      "dur": 758
    },
    {
      "t": 1918.1,
      "ch": 1,
      "note": 40,
      "vel": 96,
      "dur": 25
    },
    {
      "t": 1918.1,
      "ch": 4,
      "note": 59,
      "vel": 51,
      "dur": 2350
    },
    {
      "t": 1918.1,
      "ch": 3,
      "note": 40,
      "vel": 53,
      "dur": 2400
    },
    {
      "t": 1918.2,
      "ch": 0,
      "note": 36,
      "vel": 93,
      "dur": 55
    },
    {
      "t": 1918.2,
      "ch": 1,
      "note": 42,
      "vel": 108,
      "dur": 25
    },
    {
      "t": 1918.2,
      "ch": 7,
      "note": 48,
      "vel": 77,
      "dur": 80
    },
    {
      "t": 1918.2,
      "ch": 7,
      "note": 36,
      "vel": 74,
      "dur": 80
    },
    {
      "t": 1918.2,
      "ch": 5,
      "note": 54,
      "vel": 65,
      "dur": 757
    },
    {
      "t": 1918.3,
      "ch": 1,
      "note": 36,
      "vel": 110,
      "dur": 25
    },
    {
      "t": 1918.3,
      "ch": 6,
      "note": 64,
      "vel": 52,
      "dur": 400
    },
    {
      "t": 1918.4,
      "ch": 1,
      "note": 38,
      "vel": 96,
      "dur": 25
    },
    {
      "t": 1918.4,
      "ch": 1,
      "note": 40,
      "vel": 69,
      "dur": 25
    },
    {
      "t": 1918.5,
      "ch": 1,
      "note": 42,
      "vel": 97,
      "dur": 25
    },
    {
      "t": 1918.5,
      "ch": 7,
      "note": 45,
      "vel": 62,
      "dur": 80
    },
    {
      "t": 1918.5,
      "ch": 7,
      "note": 38,
      "vel": 50,
      "dur": 80
    },
    {
      "t": 1918.5,
      "ch": 7,
      "note": 36,
      "vel": 66,
      "dur": 80
    },
    {
      "t": 1918.6,
      "ch": 6,
      "note": 54,
      "vel": 32,
      "dur": 504
    },
    {
      "t": 1918.6,
      "ch": 1,
      "note": 36,
      "vel": 94,
      "dur": 25
    },
    {
      "t": 1918.7,
      "ch": 1,
      "note": 38,
      "vel": 117,
      "dur": 25
    },
    {
      "t": 1918.7,
      "ch": 6,
      "note": 64,
      "vel": 57,
      "dur": 503
    },
    {
      "t": 1918.7,
      "ch": 1,
      "note": 40,
      "vel": 66,
      "dur": 25
    },
    {
      "t": 1918.8,
      "ch": 0,
      "note": 36,
      "vel": 89,
      "dur": 55
    },
    {
      "t": 1918.8,
      "ch": 1,
      "note": 42,
      "vel": 113,
      "dur": 25
    },
    {
      "t": 1918.8,
      "ch": 7,
      "note": 48,
      "vel": 59,
      "dur": 80
    },
    {
      "t": 1918.8,
      "ch": 7,
      "note": 36,
      "vel": 74,
      "dur": 80
    },
    {
      "t": 1918.9,
      "ch": 1,
      "note": 36,
      "vel": 107,
      "dur": 25
    },
    {
      "t": 1918.9,
      "ch": 1,
      "note": 38,
      "vel": 93,
      "dur": 25
    },
    {
      "t": 1919,
      "ch": 1,
      "note": 40,
      "vel": 122,
      "dur": 25
    },
    {
      "t": 1919.1,
      "ch": 1,
      "note": 42,
      "vel": 82,
      "dur": 25
    },
    {
      "t": 1919.2,
      "ch": 1,
      "note": 36,
      "vel": 103,
      "dur": 25
    },
    {
      "t": 1919.3,
      "ch": 1,
      "note": 38,
      "vel": 99,
      "dur": 25
    },
    {
      "t": 1919.3,
      "ch": 1,
      "note": 40,
      "vel": 91,
      "dur": 25
    },
    {
      "t": 1919.4,
      "ch": 0,
      "note": 36,
      "vel": 115,
      "dur": 55
    },
    {
      "t": 1919.4,
      "ch": 1,
      "note": 42,
      "vel": 126,
      "dur": 25
    },
    {
      "t": 1919.4,
      "ch": 7,
      "note": 48,
      "vel": 68,
      "dur": 80
    },
    {
      "t": 1919.4,
      "ch": 7,
      "note": 45,
      "vel": 75,
      "dur": 80
    },
    {
      "t": 1919.4,
      "ch": 7,
      "note": 36,
      "vel": 68,
      "dur": 80
    },
    {
      "t": 1919.4,
      "ch": 7,
      "note": 38,
      "vel": 55,
      "dur": 80
    },
    {
      "t": 1919.5,
      "ch": 1,
      "note": 36,
      "vel": 115,
      "dur": 25
    },
    {
      "t": 1919.6,
      "ch": 1,
      "note": 38,
      "vel": 75,
      "dur": 25
    },
    {
      "t": 1919.6,
      "ch": 1,
      "note": 40,
      "vel": 114,
      "dur": 25
    },
    {
      "t": 1919.7,
      "ch": 1,
      "note": 42,
      "vel": 85,
      "dur": 25
    },
    {
      "t": 1919.7,
      "ch": 7,
      "note": 36,
      "vel": 61,
      "dur": 80
    },
    {
      "t": 1919.7,
      "ch": 5,
      "note": 59,
      "vel": 69,
      "dur": 750
    },
    {
      "t": 1919.8,
      "ch": 1,
      "note": 36,
      "vel": 102,
      "dur": 25
    },
    {
      "t": 1919.8,
      "ch": 1,
      "note": 38,
      "vel": 79,
      "dur": 25
    },
    {
      "t": 1919.9,
      "ch": 5,
      "note": 66,
      "vel": 69,
      "dur": 750
    },
    {
      "t": 1919.9,
      "ch": 6,
      "note": 58,
      "vel": 72,
      "dur": 500
    },
    {
      "t": 1919.9,
      "ch": 1,
      "note": 40,
      "vel": 106,
      "dur": 25
    },
    {
      "t": 1920,
      "ch": 0,
      "note": 36,
      "vel": 91,
      "dur": 55
    },
    {
      "t": 1920,
      "ch": 1,
      "note": 42,
      "vel": 91,
      "dur": 25
    },
    {
      "t": 1920,
      "ch": 7,
      "note": 48,
      "vel": 74,
      "dur": 80
    },
    {
      "t": 1920,
      "ch": 7,
      "note": 36,
      "vel": 68,
      "dur": 80
    },
    {
      "t": 1920.1,
      "ch": 6,
      "note": 61,
      "vel": 58,
      "dur": 499
    },
    {
      "t": 1920.1,
      "ch": 1,
      "note": 36,
      "vel": 94,
      "dur": 25
    },
    {
      "t": 1920.1,
      "ch": 6,
      "note": 61,
      "vel": 39,
      "dur": 400
    },
    {
      "t": 1920.1,
      "ch": 1,
      "note": 38,
      "vel": 84,
      "dur": 25
    },
    {
      "t": 1920.2,
      "ch": 7,
      "note": 38,
      "vel": 70,
      "dur": 80
    },
    {
      "t": 1920.2,
      "ch": 7,
      "note": 45,
      "vel": 60,
      "dur": 80
    },
    {
      "t": 1920.2,
      "ch": 1,
      "note": 40,
      "vel": 101,
      "dur": 25
    },
    {
      "t": 1920.3,
      "ch": 1,
      "note": 42,
      "vel": 100,
      "dur": 25
    },
    {
      "t": 1920.4,
      "ch": 1,
      "note": 36,
      "vel": 76,
      "dur": 25
    },
    {
      "t": 1920.5,
      "ch": 1,
      "note": 38,
      "vel": 73,
      "dur": 25
    },
    {
      "t": 1920.5,
      "ch": 1,
      "note": 40,
      "vel": 76,
      "dur": 25
    },
    {
      "t": 1920.5,
      "ch": 4,
      "note": 59,
      "vel": 51,
      "dur": 2350
    },
    {
      "t": 1920.5,
      "ch": 3,
      "note": 42,
      "vel": 54,
      "dur": 2400
    },
    {
      "t": 1920.6,
      "ch": 0,
      "note": 36,
      "vel": 93,
      "dur": 55
    },
    {
      "t": 1920.6,
      "ch": 1,
      "note": 42,
      "vel": 118,
      "dur": 25
    },
    {
      "t": 1920.6,
      "ch": 7,
      "note": 48,
      "vel": 76,
      "dur": 80
    },
    {
      "t": 1920.6,
      "ch": 7,
      "note": 36,
      "vel": 71,
      "dur": 80
    },
    {
      "t": 1920.6,
      "ch": 1,
      "note": 36,
      "vel": 115,
      "dur": 25
    },
    {
      "t": 1920.7,
      "ch": 5,
      "note": 73,
      "vel": 77,
      "dur": 747
    },
    {
      "t": 1920.8,
      "ch": 1,
      "note": 38,
      "vel": 97,
      "dur": 25
    },
    {
      "t": 1920.8,
      "ch": 1,
      "note": 40,
      "vel": 94,
      "dur": 25
    },
    {
      "t": 1920.9,
      "ch": 1,
      "note": 42,
      "vel": 110,
      "dur": 25
    },
    {
      "t": 1920.9,
      "ch": 1,
      "note": 36,
      "vel": 96,
      "dur": 25
    },
    {
      "t": 1920.9,
      "ch": 7,
      "note": 38,
      "vel": 66,
      "dur": 80
    },
    {
      "t": 1920.9,
      "ch": 7,
      "note": 36,
      "vel": 63,
      "dur": 80
    },
    {
      "t": 1920.9,
      "ch": 7,
      "note": 45,
      "vel": 65,
      "dur": 80
    },
    {
      "t": 1921.1,
      "ch": 1,
      "note": 38,
      "vel": 103,
      "dur": 25
    },
    {
      "t": 1921.1,
      "ch": 1,
      "note": 40,
      "vel": 111,
      "dur": 25
    },
    {
      "t": 1921.1,
      "ch": 5,
      "note": 51,
      "vel": 64,
      "dur": 746
    },
    {
      "t": 1921.1,
      "ch": 6,
      "note": 73,
      "vel": 42,
      "dur": 400
    },
    {
      "t": 1921.2,
      "ch": 0,
      "note": 36,
      "vel": 93,
      "dur": 55
    },
    {
      "t": 1921.2,
      "ch": 1,
      "note": 42,
      "vel": 106,
      "dur": 25
    },
    {
      "t": 1921.2,
      "ch": 7,
      "note": 48,
      "vel": 76,
      "dur": 80
    },
    {
      "t": 1921.2,
      "ch": 7,
      "note": 36,
      "vel": 69,
      "dur": 80
    },
    {
      "t": 1921.3,
      "ch": 1,
      "note": 36,
      "vel": 97,
      "dur": 25
    },
    {
      "t": 1921.4,
      "ch": 1,
      "note": 38,
      "vel": 117,
      "dur": 25
    },
    {
      "t": 1921.4,
      "ch": 1,
      "note": 40,
      "vel": 93,
      "dur": 25
    },
    {
      "t": 1921.5,
      "ch": 1,
      "note": 42,
      "vel": 107,
      "dur": 25
    },
    {
      "t": 1921.6,
      "ch": 1,
      "note": 36,
      "vel": 97,
      "dur": 25
    },
    {
      "t": 1921.7,
      "ch": 1,
      "note": 38,
      "vel": 92,
      "dur": 25
    },
    {
      "t": 1921.7,
      "ch": 1,
      "note": 40,
      "vel": 93,
      "dur": 25
    },
    {
      "t": 1921.8,
      "ch": 0,
      "note": 36,
      "vel": 113,
      "dur": 55
    },
    {
      "t": 1921.8,
      "ch": 1,
      "note": 42,
      "vel": 108,
      "dur": 25
    },
    {
      "t": 1921.8,
      "ch": 7,
      "note": 48,
      "vel": 64,
      "dur": 80
    },
    {
      "t": 1921.8,
      "ch": 7,
      "note": 45,
      "vel": 71,
      "dur": 80
    },
    {
      "t": 1921.8,
      "ch": 7,
      "note": 36,
      "vel": 68,
      "dur": 80
    },
    {
      "t": 1921.8,
      "ch": 7,
      "note": 38,
      "vel": 71,
      "dur": 80
    },
    {
      "t": 1921.8,
      "ch": 6,
      "note": 70,
      "vel": 70,
      "dur": 497
    },
    {
      "t": 1921.9,
      "ch": 1,
      "note": 36,
      "vel": 125,
      "dur": 25
    },
    {
      "t": 1922,
      "ch": 1,
      "note": 38,
      "vel": 105,
      "dur": 25
    },
    {
      "t": 1922,
      "ch": 1,
      "note": 40,
      "vel": 102,
      "dur": 25
    },
    {
      "t": 1922.1,
      "ch": 1,
      "note": 42,
      "vel": 68,
      "dur": 25
    },
    {
      "t": 1922.1,
      "ch": 7,
      "note": 36,
      "vel": 74,
      "dur": 80
    },
    {
      "t": 1922.2,
      "ch": 1,
      "note": 36,
      "vel": 100,
      "dur": 25
    },
    {
      "t": 1922.2,
      "ch": 1,
      "note": 38,
      "vel": 88,
      "dur": 25
    },
    {
      "t": 1922.3,
      "ch": 1,
      "note": 40,
      "vel": 106,
      "dur": 25
    },
    {
      "t": 1922.4,
      "ch": 0,
      "note": 36,
      "vel": 91,
      "dur": 55
    },
    {
      "t": 1922.4,
      "ch": 1,
      "note": 42,
      "vel": 103,
      "dur": 25
    },
    {
      "t": 1922.4,
      "ch": 7,
      "note": 48,
      "vel": 70,
      "dur": 80
    },
    {
      "t": 1922.4,
      "ch": 7,
      "note": 36,
      "vel": 61,
      "dur": 80
    },
    {
      "t": 1922.4,
      "ch": 6,
      "note": 73,
      "vel": 44,
      "dur": 497
    },
    {
      "t": 1922.5,
      "ch": 1,
      "note": 36,
      "vel": 95,
      "dur": 25
    },
    {
      "t": 1922.5,
      "ch": 1,
      "note": 38,
      "vel": 95,
      "dur": 25
    },
    {
      "t": 1922.6,
      "ch": 7,
      "note": 45,
      "vel": 67,
      "dur": 80
    },
    {
      "t": 1922.6,
      "ch": 7,
      "note": 38,
      "vel": 52,
      "dur": 80
    },
    {
      "t": 1922.6,
      "ch": 1,
      "note": 40,
      "vel": 83,
      "dur": 25
    },
    {
      "t": 1922.7,
      "ch": 1,
      "note": 42,
      "vel": 72,
      "dur": 25
    },
    {
      "t": 1922.8,
      "ch": 1,
      "note": 36,
      "vel": 91,
      "dur": 25
    },
    {
      "t": 1922.9,
      "ch": 1,
      "note": 38,
      "vel": 75,
      "dur": 25
    },
    {
      "t": 1922.9,
      "ch": 1,
      "note": 40,
      "vel": 93,
      "dur": 25
    },
    {
      "t": 1922.9,
      "ch": 4,
      "note": 59,
      "vel": 51,
      "dur": 2350
    },
    {
      "t": 1922.9,
      "ch": 3,
      "note": 40,
      "vel": 54,
      "dur": 2400
    },
    {
      "t": 1923,
      "ch": 0,
      "note": 36,
      "vel": 88,
      "dur": 55
    },
    {
      "t": 1923,
      "ch": 1,
      "note": 42,
      "vel": 91,
      "dur": 25
    },
    {
      "t": 1923,
      "ch": 7,
      "note": 48,
      "vel": 77,
      "dur": 80
    },
    {
      "t": 1923,
      "ch": 7,
      "note": 36,
      "vel": 63,
      "dur": 80
    },
    {
      "t": 1923,
      "ch": 1,
      "note": 36,
      "vel": 127,
      "dur": 25
    },
    {
      "t": 1923.2,
      "ch": 1,
      "note": 38,
      "vel": 85,
      "dur": 25
    },
    {
      "t": 1923.2,
      "ch": 1,
      "note": 40,
      "vel": 117,
      "dur": 25
    },
    {
      "t": 1923.3,
      "ch": 1,
      "note": 42,
      "vel": 90,
      "dur": 25
    },
    {
      "t": 1923.3,
      "ch": 7,
      "note": 45,
      "vel": 51,
      "dur": 80
    },
    {
      "t": 1923.3,
      "ch": 7,
      "note": 36,
      "vel": 68,
      "dur": 80
    },
    {
      "t": 1923.3,
      "ch": 7,
      "note": 38,
      "vel": 65,
      "dur": 80
    },
    {
      "t": 1923.4,
      "ch": 1,
      "note": 36,
      "vel": 82,
      "dur": 25
    },
    {
      "t": 1923.4,
      "ch": 1,
      "note": 38,
      "vel": 98,
      "dur": 25
    },
    {
      "t": 1923.5,
      "ch": 5,
      "note": 56,
      "vel": 65,
      "dur": 747
    },
    {
      "t": 1923.5,
      "ch": 6,
      "note": 59,
      "vel": 40,
      "dur": 498
    },
    {
      "t": 1923.5,
      "ch": 1,
      "note": 40,
      "vel": 79,
      "dur": 25
    },
    {
      "t": 1923.6,
      "ch": 0,
      "note": 36,
      "vel": 90,
      "dur": 55
    },
    {
      "t": 1923.6,
      "ch": 1,
      "note": 42,
      "vel": 126,
      "dur": 25
    },
    {
      "t": 1923.6,
      "ch": 7,
      "note": 48,
      "vel": 77,
      "dur": 80
    },
    {
      "t": 1923.6,
      "ch": 7,
      "note": 36,
      "vel": 61,
      "dur": 80
    },
    {
      "t": 1923.6,
      "ch": 5,
      "note": 54,
      "vel": 65,
      "dur": 747
    },
    {
      "t": 1923.7,
      "ch": 1,
      "note": 36,
      "vel": 118,
      "dur": 25
    },
    {
      "t": 1923.8,
      "ch": 1,
      "note": 38,
      "vel": 120,
      "dur": 25
    },
    {
      "t": 1923.8,
      "ch": 1,
      "note": 40,
      "vel": 84,
      "dur": 25
    },
    {
      "t": 1923.8,
      "ch": 6,
      "note": 58,
      "vel": 49,
      "dur": 498
    },
    {
      "t": 1923.9,
      "ch": 6,
      "note": 59,
      "vel": 32,
      "dur": 400
    },
    {
      "t": 1923.9,
      "ch": 1,
      "note": 42,
      "vel": 96,
      "dur": 25
    },
    {
      "t": 1923.9,
      "ch": 1,
      "note": 36,
      "vel": 105,
      "dur": 25
    },
    {
      "t": 1924.1,
      "ch": 1,
      "note": 38,
      "vel": 88,
      "dur": 25
    },
    {
      "t": 1924.1,
      "ch": 1,
      "note": 40,
      "vel": 81,
      "dur": 25
    },
    {
      "t": 1924.2,
      "ch": 0,
      "note": 36,
      "vel": 115,
      "dur": 55
    },
    {
      "t": 1924.2,
      "ch": 1,
      "note": 42,
      "vel": 127,
      "dur": 25
    },
    {
      "t": 1924.2,
      "ch": 7,
      "note": 48,
      "vel": 80,
      "dur": 80
    },
    {
      "t": 1924.2,
      "ch": 7,
      "note": 45,
      "vel": 69,
      "dur": 80
    },
    {
      "t": 1924.2,
      "ch": 7,
      "note": 36,
      "vel": 66,
      "dur": 80
    },
    {
      "t": 1924.2,
      "ch": 7,
      "note": 38,
      "vel": 63,
      "dur": 80
    },
    {
      "t": 1924.2,
      "ch": 5,
      "note": 37,
      "vel": 77,
      "dur": 749
    },
    {
      "t": 1924.2,
      "ch": 6,
      "note": 48,
      "vel": 24,
      "dur": 499
    },
    {
      "t": 1924.3,
      "ch": 1,
      "note": 36,
      "vel": 95,
      "dur": 25
    },
    {
      "t": 1924.4,
      "ch": 1,
      "note": 38,
      "vel": 85,
      "dur": 25
    },
    {
      "t": 1924.4,
      "ch": 1,
      "note": 40,
      "vel": 83,
      "dur": 25
    },
    {
      "t": 1924.5,
      "ch": 1,
      "note": 42,
      "vel": 85,
      "dur": 25
    },
    {
      "t": 1924.5,
      "ch": 1,
      "note": 36,
      "vel": 102,
      "dur": 25
    },
    {
      "t": 1924.5,
      "ch": 7,
      "note": 36,
      "vel": 54,
      "dur": 80
    },
    {
      "t": 1924.6,
      "ch": 6,
      "note": 49,
      "vel": 38,
      "dur": 400
    },
    {
      "t": 1924.7,
      "ch": 1,
      "note": 38,
      "vel": 101,
      "dur": 25
    },
    {
      "t": 1924.7,
      "ch": 1,
      "note": 40,
      "vel": 89,
      "dur": 25
    },
    {
      "t": 1924.7,
      "ch": 6,
      "note": 49,
      "vel": 58,
      "dur": 500
    },
    {
      "t": 1924.7,
      "ch": 5,
      "note": 49,
      "vel": 66,
      "dur": 750
    },
    {
      "t": 1924.8,
      "ch": 0,
      "note": 36,
      "vel": 95,
      "dur": 55
    },
    {
      "t": 1924.8,
      "ch": 1,
      "note": 42,
      "vel": 89,
      "dur": 25
    },
    {
      "t": 1924.8,
      "ch": 7,
      "note": 48,
      "vel": 61,
      "dur": 80
    },
    {
      "t": 1924.8,
      "ch": 7,
      "note": 36,
      "vel": 85,
      "dur": 80
    },
    {
      "t": 1924.8,
      "ch": 1,
      "note": 36,
      "vel": 127,
      "dur": 25
    },
    {
      "t": 1924.8,
      "ch": 5,
      "note": 49,
      "vel": 55,
      "dur": 751
    },
    {
      "t": 1924.9,
      "ch": 6,
      "note": 54,
      "vel": 43,
      "dur": 400
    },
    {
      "t": 1925,
      "ch": 1,
      "note": 38,
      "vel": 101,
      "dur": 25
    },
    {
      "t": 1925,
      "ch": 1,
      "note": 40,
      "vel": 106,
      "dur": 25
    },
    {
      "t": 1925,
      "ch": 7,
      "note": 38,
      "vel": 59,
      "dur": 80
    },
    {
      "t": 1925,
      "ch": 7,
      "note": 45,
      "vel": 65,
      "dur": 80
    },
    {
      "t": 1925.1,
      "ch": 1,
      "note": 42,
      "vel": 91,
      "dur": 25
    },
    {
      "t": 1925.2,
      "ch": 1,
      "note": 36,
      "vel": 79,
      "dur": 25
    },
    {
      "t": 1925.2,
      "ch": 5,
      "note": 73,
      "vel": 51,
      "dur": 752
    },
    {
      "t": 1925.3,
      "ch": 1,
      "note": 38,
      "vel": 84,
      "dur": 25
    },
    {
      "t": 1925.3,
      "ch": 1,
      "note": 40,
      "vel": 95,
      "dur": 25
    },
    {
      "t": 1925.3,
      "ch": 5,
      "note": 56,
      "vel": 68,
      "dur": 753
    },
    {
      "t": 1925.3,
      "ch": 2,
      "note": 54,
      "vel": 0,
      "dur": 0
    },
    {
      "t": 1925.3,
      "ch": 2,
      "note": 49,
      "vel": 57,
      "dur": 18000
    },
    {
      "t": 1925.3,
      "ch": 2,
      "note": 61,
      "vel": 40,
      "dur": 18000
    },
    {
      "t": 1925.3,
      "ch": 4,
      "note": 58,
      "vel": 68,
      "dur": 2350
    },
    {
      "t": 1925.3,
      "ch": 3,
      "note": 37,
      "vel": 53,
      "dur": 2400
    },
    {
      "t": 1925.4,
      "ch": 0,
      "note": 36,
      "vel": 93,
      "dur": 55
    },
    {
      "t": 1925.4,
      "ch": 1,
      "note": 42,
      "vel": 124,
      "dur": 25
    },
    {
      "t": 1925.4,
      "ch": 7,
      "note": 48,
      "vel": 68,
      "dur": 80
    },
    {
      "t": 1925.4,
      "ch": 7,
      "note": 36,
      "vel": 74,
      "dur": 80
    },
    {
      "t": 1925.5,
      "ch": 1,
      "note": 36,
      "vel": 127,
      "dur": 25
    },
    {
      "t": 1925.6,
      "ch": 1,
      "note": 38,
      "vel": 82,
      "dur": 25
    },
    {
      "t": 1925.6,
      "ch": 1,
      "note": 40,
      "vel": 90,
      "dur": 25
    },
    {
      "t": 1925.7,
      "ch": 1,
      "note": 42,
      "vel": 103,
      "dur": 25
    },
    {
      "t": 1925.7,
      "ch": 6,
      "note": 61,
      "vel": 48,
      "dur": 400
    },
    {
      "t": 1925.7,
      "ch": 7,
      "note": 45,
      "vel": 59,
      "dur": 80
    },
    {
      "t": 1925.7,
      "ch": 7,
      "note": 36,
      "vel": 59,
      "dur": 80
    },
    {
      "t": 1925.7,
      "ch": 7,
      "note": 38,
      "vel": 59,
      "dur": 80
    },
    {
      "t": 1925.8,
      "ch": 5,
      "note": 54,
      "vel": 70,
      "dur": 755
    },
    {
      "t": 1925.8,
      "ch": 1,
      "note": 36,
      "vel": 89,
      "dur": 25
    },
    {
      "t": 1925.9,
      "ch": 1,
      "note": 38,
      "vel": 87,
      "dur": 25
    },
    {
      "t": 1925.9,
      "ch": 1,
      "note": 40,
      "vel": 104,
      "dur": 25
    },
    {
      "t": 1926,
      "ch": 0,
      "note": 36,
      "vel": 91,
      "dur": 55
    },
    {
      "t": 1926,
      "ch": 1,
      "note": 42,
      "vel": 108,
      "dur": 25
    },
    {
      "t": 1926,
      "ch": 7,
      "note": 48,
      "vel": 68,
      "dur": 80
    },
    {
      "t": 1926,
      "ch": 7,
      "note": 36,
      "vel": 71,
      "dur": 80
    },
    {
      "t": 1926.1,
      "ch": 1,
      "note": 36,
      "vel": 110,
      "dur": 25
    },
    {
      "t": 1926.1,
      "ch": 5,
      "note": 37,
      "vel": 65,
      "dur": 757
    },
    {
      "t": 1926.2,
      "ch": 1,
      "note": 38,
      "vel": 100,
      "dur": 25
    },
    {
      "t": 1926.2,
      "ch": 1,
      "note": 40,
      "vel": 80,
      "dur": 25
    },
    {
      "t": 1926.2,
      "ch": 6,
      "note": 52,
      "vel": 41,
      "dur": 505
    },
    {
      "t": 1926.3,
      "ch": 1,
      "note": 42,
      "vel": 67,
      "dur": 25
    },
    {
      "t": 1926.4,
      "ch": 1,
      "note": 36,
      "vel": 84,
      "dur": 25
    },
    {
      "t": 1926.4,
      "ch": 6,
      "note": 52,
      "vel": 30,
      "dur": 505
    },
    {
      "t": 1926.5,
      "ch": 1,
      "note": 38,
      "vel": 83,
      "dur": 25
    },
    {
      "t": 1926.5,
      "ch": 0,
      "note": 36,
      "vel": 68,
      "dur": 55
    },
    {
      "t": 1926.5,
      "ch": 1,
      "note": 40,
      "vel": 73,
      "dur": 25
    },
    {
      "t": 1926.5,
      "ch": 5,
      "note": 49,
      "vel": 66,
      "dur": 759
    },
    {
      "t": 1926.6,
      "ch": 0,
      "note": 36,
      "vel": 109,
      "dur": 55
    },
    {
      "t": 1926.6,
      "ch": 1,
      "note": 42,
      "vel": 95,
      "dur": 25
    },
    {
      "t": 1926.6,
      "ch": 7,
      "note": 48,
      "vel": 63,
      "dur": 80
    },
    {
      "t": 1926.6,
      "ch": 7,
      "note": 45,
      "vel": 76,
      "dur": 80
    },
    {
      "t": 1926.6,
      "ch": 7,
      "note": 36,
      "vel": 72,
      "dur": 80
    },
    {
      "t": 1926.6,
      "ch": 7,
      "note": 38,
      "vel": 80,
      "dur": 80
    },
    {
      "t": 1926.6,
      "ch": 1,
      "note": 36,
      "vel": 76,
      "dur": 25
    },
    {
      "t": 1926.8,
      "ch": 1,
      "note": 38,
      "vel": 83,
      "dur": 25
    },
    {
      "t": 1926.8,
      "ch": 1,
      "note": 40,
      "vel": 93,
      "dur": 25
    },
    {
      "t": 1926.9,
      "ch": 1,
      "note": 42,
      "vel": 113,
      "dur": 25
    },
    {
      "t": 1926.9,
      "ch": 1,
      "note": 36,
      "vel": 89,
      "dur": 25
    },
    {
      "t": 1926.9,
      "ch": 7,
      "note": 36,
      "vel": 54,
      "dur": 80
    },
    {
      "t": 1927.1,
      "ch": 1,
      "note": 38,
      "vel": 100,
      "dur": 25
    },
    {
      "t": 1927.1,
      "ch": 5,
      "note": 49,
      "vel": 76,
      "dur": 763
    },
    {
      "t": 1927.1,
      "ch": 6,
      "note": 52,
      "vel": 42,
      "dur": 508
    },
    {
      "t": 1927.1,
      "ch": 1,
      "note": 40,
      "vel": 70,
      "dur": 25
    },
    {
      "t": 1927.2,
      "ch": 0,
      "note": 36,
      "vel": 95,
      "dur": 55
    },
    {
      "t": 1927.2,
      "ch": 1,
      "note": 42,
      "vel": 119,
      "dur": 25
    },
    {
      "t": 1927.2,
      "ch": 7,
      "note": 48,
      "vel": 81,
      "dur": 80
    },
    {
      "t": 1927.2,
      "ch": 7,
      "note": 36,
      "vel": 56,
      "dur": 80
    },
    {
      "t": 1927.3,
      "ch": 1,
      "note": 36,
      "vel": 92,
      "dur": 25
    },
    {
      "t": 1927.3,
      "ch": 1,
      "note": 38,
      "vel": 115,
      "dur": 25
    },
    {
      "t": 1927.4,
      "ch": 7,
      "note": 38,
      "vel": 68,
      "dur": 80
    },
    {
      "t": 1927.4,
      "ch": 7,
      "note": 45,
      "vel": 64,
      "dur": 80
    },
    {
      "t": 1927.4,
      "ch": 6,
      "note": 73,
      "vel": 43,
      "dur": 510
    },
    {
      "t": 1927.4,
      "ch": 1,
      "note": 40,
      "vel": 82,
      "dur": 25
    },
    {
      "t": 1927.5,
      "ch": 1,
      "note": 42,
      "vel": 92,
      "dur": 25
    },
    {
      "t": 1927.5,
      "ch": 6,
      "note": 63,
      "vel": 20,
      "dur": 510
    },
    {
      "t": 1927.6,
      "ch": 1,
      "note": 36,
      "vel": 92,
      "dur": 25
    },
    {
      "t": 1927.6,
      "ch": 6,
      "note": 52,
      "vel": 37,
      "dur": 400
    },
    {
      "t": 1927.6,
      "ch": 1,
      "note": 38,
      "vel": 88,
      "dur": 25
    },
    {
      "t": 1927.7,
      "ch": 1,
      "note": 40,
      "vel": 95,
      "dur": 25
    },
    {
      "t": 1927.8,
      "ch": 4,
      "note": 58,
      "vel": 63,
      "dur": 2350
    },
    {
      "t": 1927.8,
      "ch": 3,
      "note": 44,
      "vel": 51,
      "dur": 2400
    },
    {
      "t": 1927.8,
      "ch": 0,
      "note": 36,
      "vel": 95,
      "dur": 55
    },
    {
      "t": 1927.8,
      "ch": 1,
      "note": 42,
      "vel": 114,
      "dur": 25
    },
    {
      "t": 1927.8,
      "ch": 7,
      "note": 48,
      "vel": 66,
      "dur": 80
    },
    {
      "t": 1927.8,
      "ch": 7,
      "note": 36,
      "vel": 65,
      "dur": 80
    },
    {
      "t": 1927.9,
      "ch": 1,
      "note": 36,
      "vel": 116,
      "dur": 25
    },
    {
      "t": 1927.9,
      "ch": 6,
      "note": 71,
      "vel": 43,
      "dur": 511
    },
    {
      "t": 1928,
      "ch": 1,
      "note": 38,
      "vel": 108,
      "dur": 25
    },
    {
      "t": 1928,
      "ch": 1,
      "note": 40,
      "vel": 82,
      "dur": 25
    },
    {
      "t": 1928.1,
      "ch": 1,
      "note": 42,
      "vel": 78,
      "dur": 25
    },
    {
      "t": 1928.2,
      "ch": 1,
      "note": 36,
      "vel": 84,
      "dur": 25
    },
    {
      "t": 1928.2,
      "ch": 7,
      "note": 45,
      "vel": 58,
      "dur": 80
    },
    {
      "t": 1928.2,
      "ch": 7,
      "note": 36,
      "vel": 67,
      "dur": 80
    },
    {
      "t": 1928.2,
      "ch": 7,
      "note": 38,
      "vel": 57,
      "dur": 80
    },
    {
      "t": 1928.3,
      "ch": 1,
      "note": 38,
      "vel": 86,
      "dur": 25
    },
    {
      "t": 1928.3,
      "ch": 1,
      "note": 40,
      "vel": 66,
      "dur": 25
    },
    {
      "t": 1928.4,
      "ch": 0,
      "note": 36,
      "vel": 96,
      "dur": 55
    },
    {
      "t": 1928.4,
      "ch": 1,
      "note": 42,
      "vel": 112,
      "dur": 25
    },
    {
      "t": 1928.4,
      "ch": 7,
      "note": 48,
      "vel": 72,
      "dur": 80
    },
    {
      "t": 1928.4,
      "ch": 7,
      "note": 36,
      "vel": 75,
      "dur": 80
    },
    {
      "t": 1928.4,
      "ch": 1,
      "note": 36,
      "vel": 112,
      "dur": 25
    },
    {
      "t": 1928.5,
      "ch": 5,
      "note": 73,
      "vel": 88,
      "dur": 771
    },
    {
      "t": 1928.6,
      "ch": 1,
      "note": 38,
      "vel": 90,
      "dur": 25
    },
    {
      "t": 1928.6,
      "ch": 1,
      "note": 40,
      "vel": 120,
      "dur": 25
    },
    {
      "t": 1928.7,
      "ch": 1,
      "note": 42,
      "vel": 109,
      "dur": 25
    },
    {
      "t": 1928.8,
      "ch": 1,
      "note": 36,
      "vel": 102,
      "dur": 25
    },
    {
      "t": 1928.8,
      "ch": 6,
      "note": 59,
      "vel": 22,
      "dur": 515
    },
    {
      "t": 1928.9,
      "ch": 1,
      "note": 38,
      "vel": 76,
      "dur": 25
    },
    {
      "t": 1928.9,
      "ch": 1,
      "note": 40,
      "vel": 74,
      "dur": 25
    },
    {
      "t": 1929,
      "ch": 0,
      "note": 36,
      "vel": 113,
      "dur": 55
    },
    {
      "t": 1929,
      "ch": 1,
      "note": 42,
      "vel": 90,
      "dur": 25
    },
    {
      "t": 1929,
      "ch": 7,
      "note": 48,
      "vel": 79,
      "dur": 80
    },
    {
      "t": 1929,
      "ch": 7,
      "note": 45,
      "vel": 68,
      "dur": 80
    },
    {
      "t": 1929,
      "ch": 7,
      "note": 36,
      "vel": 73,
      "dur": 80
    },
    {
      "t": 1929,
      "ch": 7,
      "note": 38,
      "vel": 80,
      "dur": 80
    },
    {
      "t": 1929,
      "ch": 1,
      "note": 36,
      "vel": 127,
      "dur": 25
    },
    {
      "t": 1929.2,
      "ch": 1,
      "note": 38,
      "vel": 95,
      "dur": 25
    },
    {
      "t": 1929.2,
      "ch": 1,
      "note": 40,
      "vel": 109,
      "dur": 25
    },
    {
      "t": 1929.2,
      "ch": 6,
      "note": 56,
      "vel": 50,
      "dur": 517
    },
    {
      "t": 1929.3,
      "ch": 1,
      "note": 42,
      "vel": 98,
      "dur": 25
    },
    {
      "t": 1929.4,
      "ch": 1,
      "note": 36,
      "vel": 96,
      "dur": 25
    },
    {
      "t": 1929.4,
      "ch": 7,
      "note": 36,
      "vel": 61,
      "dur": 80
    },
    {
      "t": 1929.4,
      "ch": 5,
      "note": 61,
      "vel": 57,
      "dur": 776
    },
    {
      "t": 1929.4,
      "ch": 1,
      "note": 38,
      "vel": 80,
      "dur": 25
    },
    {
      "t": 1929.5,
      "ch": 1,
      "note": 40,
      "vel": 88,
      "dur": 25
    },
    {
      "t": 1929.6,
      "ch": 0,
      "note": 36,
      "vel": 90,
      "dur": 55
    },
    {
      "t": 1929.6,
      "ch": 1,
      "note": 42,
      "vel": 76,
      "dur": 25
    },
    {
      "t": 1929.6,
      "ch": 7,
      "note": 48,
      "vel": 75,
      "dur": 80
    },
    {
      "t": 1929.6,
      "ch": 7,
      "note": 36,
      "vel": 62,
      "dur": 80
    },
    {
      "t": 1929.6,
      "ch": 1,
      "note": 36,
      "vel": 103,
      "dur": 25
    },
    {
      "t": 1929.8,
      "ch": 1,
      "note": 38,
      "vel": 70,
      "dur": 25
    },
    {
      "t": 1929.8,
      "ch": 1,
      "note": 40,
      "vel": 85,
      "dur": 25
    },
    {
      "t": 1929.8,
      "ch": 7,
      "note": 45,
      "vel": 64,
      "dur": 80
    },
    {
      "t": 1929.8,
      "ch": 7,
      "note": 38,
      "vel": 64,
      "dur": 80
    },
    {
      "t": 1929.9,
      "ch": 1,
      "note": 42,
      "vel": 91,
      "dur": 25
    },
    {
      "t": 1930,
      "ch": 1,
      "note": 36,
      "vel": 99,
      "dur": 25
    },
    {
      "t": 1930,
      "ch": 1,
      "note": 38,
      "vel": 93,
      "dur": 25
    },
    {
      "t": 1930.1,
      "ch": 1,
      "note": 40,
      "vel": 84,
      "dur": 25
    },
    {
      "t": 1930.2,
      "ch": 0,
      "note": 36,
      "vel": 83,
      "dur": 55
    },
    {
      "t": 1930.2,
      "ch": 1,
      "note": 42,
      "vel": 117,
      "dur": 25
    },
    {
      "t": 1930.2,
      "ch": 7,
      "note": 48,
      "vel": 76,
      "dur": 80
    },
    {
      "t": 1930.2,
      "ch": 7,
      "note": 36,
      "vel": 73,
      "dur": 80
    },
    {
      "t": 1930.3,
      "ch": 1,
      "note": 36,
      "vel": 107,
      "dur": 25
    },
    {
      "t": 1930.3,
      "ch": 1,
      "note": 38,
      "vel": 76,
      "dur": 25
    },
    {
      "t": 1930.4,
      "ch": 1,
      "note": 40,
      "vel": 72,
      "dur": 25
    },
    {
      "t": 1930.5,
      "ch": 1,
      "note": 42,
      "vel": 91,
      "dur": 25
    },
    {
      "t": 1930.5,
      "ch": 7,
      "note": 38,
      "vel": 64,
      "dur": 80
    },
    {
      "t": 1930.5,
      "ch": 7,
      "note": 36,
      "vel": 71,
      "dur": 80
    },
    {
      "t": 1930.5,
      "ch": 5,
      "note": 64,
      "vel": 54,
      "dur": 783
    },
    {
      "t": 1930.6,
      "ch": 7,
      "note": 45,
      "vel": 56,
      "dur": 80
    },
    {
      "t": 1930.6,
      "ch": 6,
      "note": 64,
      "vel": 57,
      "dur": 522
    },
    {
      "t": 1930.6,
      "ch": 1,
      "note": 36,
      "vel": 69,
      "dur": 25
    },
    {
      "t": 1930.6,
      "ch": 1,
      "note": 38,
      "vel": 77,
      "dur": 25
    },
    {
      "t": 1930.7,
      "ch": 1,
      "note": 40,
      "vel": 90,
      "dur": 25
    },
    {
      "t": 1930.8,
      "ch": 0,
      "note": 36,
      "vel": 95,
      "dur": 55
    },
    {
      "t": 1930.8,
      "ch": 1,
      "note": 42,
      "vel": 92,
      "dur": 25
    },
    {
      "t": 1930.8,
      "ch": 7,
      "note": 48,
      "vel": 67,
      "dur": 80
    },
    {
      "t": 1930.8,
      "ch": 7,
      "note": 36,
      "vel": 68,
      "dur": 80
    },
    {
      "t": 1930.8,
      "ch": 5,
      "note": 56,
      "vel": 68,
      "dur": 784
    },
    {
      "t": 1930.8,
      "ch": 6,
      "note": 66,
      "vel": 56,
      "dur": 523
    },
    {
      "t": 1930.9,
      "ch": 1,
      "note": 36,
      "vel": 103,
      "dur": 25
    },
    {
      "t": 1930.9,
      "ch": 1,
      "note": 38,
      "vel": 86,
      "dur": 25
    },
    {
      "t": 1931,
      "ch": 1,
      "note": 40,
      "vel": 100,
      "dur": 25
    },
    {
      "t": 1931.1,
      "ch": 1,
      "note": 42,
      "vel": 95,
      "dur": 25
    },
    {
      "t": 1931.1,
      "ch": 6,
      "note": 59,
      "vel": 31,
      "dur": 400
    },
    {
      "t": 1931.1,
      "ch": 6,
      "note": 51,
      "vel": 51,
      "dur": 524
    },
    {
      "t": 1931.2,
      "ch": 1,
      "note": 36,
      "vel": 95,
      "dur": 25
    },
    {
      "t": 1931.2,
      "ch": 1,
      "note": 38,
      "vel": 81,
      "dur": 25
    },
    {
      "t": 1931.3,
      "ch": 1,
      "note": 40,
      "vel": 115,
      "dur": 25
    },
    {
      "t": 1931.4,
      "ch": 0,
      "note": 36,
      "vel": 116,
      "dur": 55
    },
    {
      "t": 1931.4,
      "ch": 1,
      "note": 42,
      "vel": 98,
      "dur": 25
    },
    {
      "t": 1931.4,
      "ch": 7,
      "note": 48,
      "vel": 60,
      "dur": 80
    },
    {
      "t": 1931.4,
      "ch": 7,
      "note": 45,
      "vel": 65,
      "dur": 80
    },
    {
      "t": 1931.4,
      "ch": 7,
      "note": 36,
      "vel": 74,
      "dur": 80
    },
    {
      "t": 1931.4,
      "ch": 7,
      "note": 38,
      "vel": 63,
      "dur": 80
    },
    {
      "t": 1931.5,
      "ch": 1,
      "note": 36,
      "vel": 112,
      "dur": 25
    },
    {
      "t": 1931.6,
      "ch": 1,
      "note": 38,
      "vel": 91,
      "dur": 25
    },
    {
      "t": 1931.6,
      "ch": 1,
      "note": 40,
      "vel": 74,
      "dur": 25
    },
    {
      "t": 1931.7,
      "ch": 1,
      "note": 42,
      "vel": 94,
      "dur": 25
    },
    {
      "t": 1931.8,
      "ch": 1,
      "note": 36,
      "vel": 92,
      "dur": 25
    },
    {
      "t": 1931.8,
      "ch": 7,
      "note": 36,
      "vel": 59,
      "dur": 80
    },
    {
      "t": 1931.8,
      "ch": 6,
      "note": 59,
      "vel": 41,
      "dur": 525
    },
    {
      "t": 1931.9,
      "ch": 1,
      "note": 38,
      "vel": 93,
      "dur": 25
    },
    {
      "t": 1931.9,
      "ch": 1,
      "note": 40,
      "vel": 66,
      "dur": 25
    },
    {
      "t": 1932,
      "ch": 0,
      "note": 36,
      "vel": 94,
      "dur": 55
    },
    {
      "t": 1932,
      "ch": 1,
      "note": 42,
      "vel": 108,
      "dur": 25
    },
    {
      "t": 1932,
      "ch": 7,
      "note": 48,
      "vel": 69,
      "dur": 80
    },
    {
      "t": 1932,
      "ch": 7,
      "note": 36,
      "vel": 76,
      "dur": 80
    },
    {
      "t": 1932.1,
      "ch": 1,
      "note": 36,
      "vel": 106,
      "dur": 25
    },
    {
      "t": 1932.1,
      "ch": 1,
      "note": 38,
      "vel": 105,
      "dur": 25
    },
    {
      "t": 1932.2,
      "ch": 7,
      "note": 38,
      "vel": 52,
      "dur": 80
    },
    {
      "t": 1932.2,
      "ch": 7,
      "note": 45,
      "vel": 72,
      "dur": 80
    },
    {
      "t": 1932.2,
      "ch": 5,
      "note": 52,
      "vel": 57,
      "dur": 789
    },
    {
      "t": 1932.2,
      "ch": 1,
      "note": 40,
      "vel": 94,
      "dur": 25
    },
    {
      "t": 1932.3,
      "ch": 1,
      "note": 42,
      "vel": 87,
      "dur": 25
    },
    {
      "t": 1932.4,
      "ch": 1,
      "note": 36,
      "vel": 84,
      "dur": 25
    },
    {
      "t": 1932.4,
      "ch": 6,
      "note": 56,
      "vel": 46,
      "dur": 526
    },
    {
      "t": 1932.5,
      "ch": 1,
      "note": 38,
      "vel": 77,
      "dur": 25
    },
    {
      "t": 1932.5,
      "ch": 1,
      "note": 40,
      "vel": 101,
      "dur": 25
    },
    {
      "t": 1932.5,
      "ch": 4,
      "note": 58,
      "vel": 60,
      "dur": 4750
    },
    {
      "t": 1932.5,
      "ch": 3,
      "note": 37,
      "vel": 47,
      "dur": 4800
    },
    {
      "t": 1932.6,
      "ch": 0,
      "note": 36,
      "vel": 94,
      "dur": 55
    },
    {
      "t": 1932.6,
      "ch": 1,
      "note": 42,
      "vel": 84,
      "dur": 25
    },
    {
      "t": 1932.6,
      "ch": 7,
      "note": 48,
      "vel": 74,
      "dur": 80
    },
    {
      "t": 1932.6,
      "ch": 7,
      "note": 36,
      "vel": 58,
      "dur": 80
    },
    {
      "t": 1932.7,
      "ch": 1,
      "note": 36,
      "vel": 85,
      "dur": 25
    },
    {
      "t": 1932.7,
      "ch": 6,
      "note": 56,
      "vel": 40,
      "dur": 400
    },
    {
      "t": 1932.8,
      "ch": 1,
      "note": 38,
      "vel": 79,
      "dur": 25
    },
    {
      "t": 1932.8,
      "ch": 1,
      "note": 40,
      "vel": 79,
      "dur": 25
    },
    {
      "t": 1932.9,
      "ch": 1,
      "note": 42,
      "vel": 83,
      "dur": 25
    },
    {
      "t": 1933,
      "ch": 1,
      "note": 36,
      "vel": 86,
      "dur": 25
    },
    {
      "t": 1933,
      "ch": 7,
      "note": 38,
      "vel": 65,
      "dur": 80
    },
    {
      "t": 1933,
      "ch": 7,
      "note": 45,
      "vel": 63,
      "dur": 80
    },
    {
      "t": 1933,
      "ch": 7,
      "note": 36,
      "vel": 60,
      "dur": 80
    },
    {
      "t": 1933,
      "ch": 6,
      "note": 52,
      "vel": 54,
      "dur": 527
    },
    {
      "t": 1933.1,
      "ch": 1,
      "note": 38,
      "vel": 93,
      "dur": 25
    },
    {
      "t": 1933.1,
      "ch": 1,
      "note": 40,
      "vel": 81,
      "dur": 25
    },
    {
      "t": 1933.1,
      "ch": 5,
      "note": 49,
      "vel": 62,
      "dur": 790
    },
    {
      "t": 1933.1,
      "ch": 6,
      "note": 56,
      "vel": 49,
      "dur": 527
    },
    {
      "t": 1933.2,
      "ch": 0,
      "note": 36,
      "vel": 94,
      "dur": 55
    },
    {
      "t": 1933.2,
      "ch": 1,
      "note": 42,
      "vel": 117,
      "dur": 25
    },
    {
      "t": 1933.2,
      "ch": 7,
      "note": 48,
      "vel": 74,
      "dur": 80
    },
    {
      "t": 1933.2,
      "ch": 7,
      "note": 36,
      "vel": 68,
      "dur": 80
    },
    {
      "t": 1933.3,
      "ch": 1,
      "note": 36,
      "vel": 91,
      "dur": 25
    },
    {
      "t": 1933.3,
      "ch": 1,
      "note": 38,
      "vel": 85,
      "dur": 25
    },
    {
      "t": 1933.4,
      "ch": 6,
      "note": 56,
      "vel": 60,
      "dur": 527
    },
    {
      "t": 1933.4,
      "ch": 1,
      "note": 40,
      "vel": 96,
      "dur": 25
    },
    {
      "t": 1933.5,
      "ch": 1,
      "note": 42,
      "vel": 100,
      "dur": 25
    },
    {
      "t": 1933.6,
      "ch": 1,
      "note": 36,
      "vel": 89,
      "dur": 25
    },
    {
      "t": 1933.6,
      "ch": 1,
      "note": 38,
      "vel": 84,
      "dur": 25
    },
    {
      "t": 1933.7,
      "ch": 1,
      "note": 40,
      "vel": 104,
      "dur": 25
    },
    {
      "t": 1933.8,
      "ch": 0,
      "note": 36,
      "vel": 110,
      "dur": 55
    },
    {
      "t": 1933.8,
      "ch": 1,
      "note": 42,
      "vel": 122,
      "dur": 25
    },
    {
      "t": 1933.8,
      "ch": 7,
      "note": 48,
      "vel": 68,
      "dur": 80
    },
    {
      "t": 1933.8,
      "ch": 7,
      "note": 45,
      "vel": 65,
      "dur": 80
    },
    {
      "t": 1933.8,
      "ch": 7,
      "note": 36,
      "vel": 77,
      "dur": 80
    },
    {
      "t": 1933.8,
      "ch": 7,
      "note": 38,
      "vel": 63,
      "dur": 80
    },
    {
      "t": 1933.9,
      "ch": 1,
      "note": 36,
      "vel": 107,
      "dur": 25
    },
    {
      "t": 1934,
      "ch": 1,
      "note": 38,
      "vel": 100,
      "dur": 25
    },
    {
      "t": 1934,
      "ch": 1,
      "note": 40,
      "vel": 91,
      "dur": 25
    },
    {
      "t": 1934,
      "ch": 5,
      "note": 54,
      "vel": 42,
      "dur": 791
    },
    {
      "t": 1934.1,
      "ch": 1,
      "note": 42,
      "vel": 75,
      "dur": 25
    },
    {
      "t": 1934.2,
      "ch": 1,
      "note": 36,
      "vel": 96,
      "dur": 25
    },
    {
      "t": 1934.2,
      "ch": 7,
      "note": 36,
      "vel": 63,
      "dur": 80
    },
    {
      "t": 1934.3,
      "ch": 1,
      "note": 38,
      "vel": 100,
      "dur": 25
    },
    {
      "t": 1934.3,
      "ch": 1,
      "note": 40,
      "vel": 67,
      "dur": 25
    },
    {
      "t": 1934.4,
      "ch": 0,
      "note": 36,
      "vel": 87,
      "dur": 55
    },
    {
      "t": 1934.4,
      "ch": 1,
      "note": 42,
      "vel": 98,
      "dur": 25
    },
    {
      "t": 1934.4,
      "ch": 7,
      "note": 48,
      "vel": 75,
      "dur": 80
    },
    {
      "t": 1934.4,
      "ch": 7,
      "note": 36,
      "vel": 65,
      "dur": 80
    },
    {
      "t": 1934.5,
      "ch": 1,
      "note": 36,
      "vel": 98,
      "dur": 25
    },
    {
      "t": 1934.5,
      "ch": 5,
      "note": 61,
      "vel": 71,
      "dur": 790
    },
    {
      "t": 1934.6,
      "ch": 1,
      "note": 38,
      "vel": 81,
      "dur": 25
    },
    {
      "t": 1934.6,
      "ch": 1,
      "note": 40,
      "vel": 86,
      "dur": 25
    },
    {
      "t": 1934.6,
      "ch": 7,
      "note": 38,
      "vel": 61,
      "dur": 80
    },
    {
      "t": 1934.6,
      "ch": 7,
      "note": 45,
      "vel": 63,
      "dur": 80
    },
    {
      "t": 1934.7,
      "ch": 1,
      "note": 42,
      "vel": 83,
      "dur": 25
    },
    {
      "t": 1934.8,
      "ch": 1,
      "note": 36,
      "vel": 79,
      "dur": 25
    },
    {
      "t": 1934.9,
      "ch": 1,
      "note": 38,
      "vel": 88,
      "dur": 25
    },
    {
      "t": 1934.9,
      "ch": 1,
      "note": 40,
      "vel": 97,
      "dur": 25
    },
    {
      "t": 1934.9,
      "ch": 5,
      "note": 64,
      "vel": 66,
      "dur": 790
    },
    {
      "t": 1934.9,
      "ch": 2,
      "note": 49,
      "vel": 56,
      "dur": 18000
    },
    {
      "t": 1935,
      "ch": 0,
      "note": 36,
      "vel": 94,
      "dur": 55
    },
    {
      "t": 1935,
      "ch": 1,
      "note": 42,
      "vel": 117,
      "dur": 25
    },
    {
      "t": 1935,
      "ch": 7,
      "note": 48,
      "vel": 67,
      "dur": 80
    },
    {
      "t": 1935,
      "ch": 7,
      "note": 36,
      "vel": 70,
      "dur": 80
    },
    {
      "t": 1935.1,
      "ch": 1,
      "note": 36,
      "vel": 85,
      "dur": 25
    },
    {
      "t": 1935.1,
      "ch": 5,
      "note": 56,
      "vel": 67,
      "dur": 789
    },
    {
      "t": 1935.2,
      "ch": 1,
      "note": 38,
      "vel": 88,
      "dur": 25
    },
    {
      "t": 1935.2,
      "ch": 1,
      "note": 40,
      "vel": 98,
      "dur": 25
    },
    {
      "t": 1935.3,
      "ch": 1,
      "note": 42,
      "vel": 100,
      "dur": 25
    },
    {
      "t": 1935.3,
      "ch": 1,
      "note": 36,
      "vel": 85,
      "dur": 25
    },
    {
      "t": 1935.4,
      "ch": 7,
      "note": 45,
      "vel": 59,
      "dur": 80
    },
    {
      "t": 1935.4,
      "ch": 7,
      "note": 38,
      "vel": 62,
      "dur": 80
    },
    {
      "t": 1935.4,
      "ch": 7,
      "note": 36,
      "vel": 62,
      "dur": 80
    },
    {
      "t": 1935.4,
      "ch": 6,
      "note": 64,
      "vel": 48,
      "dur": 526
    },
    {
      "t": 1935.5,
      "ch": 1,
      "note": 38,
      "vel": 113,
      "dur": 25
    },
    {
      "t": 1935.5,
      "ch": 1,
      "note": 40,
      "vel": 83,
      "dur": 25
    },
    {
      "t": 1935.5,
      "ch": 6,
      "note": 68,
      "vel": 53,
      "dur": 525
    },
    {
      "t": 1935.6,
      "ch": 0,
      "note": 36,
      "vel": 91,
      "dur": 55
    },
    {
      "t": 1935.6,
      "ch": 1,
      "note": 42,
      "vel": 93,
      "dur": 25
    },
    {
      "t": 1935.6,
      "ch": 7,
      "note": 48,
      "vel": 69,
      "dur": 80
    },
    {
      "t": 1935.6,
      "ch": 7,
      "note": 36,
      "vel": 76,
      "dur": 80
    },
    {
      "t": 1935.7,
      "ch": 1,
      "note": 36,
      "vel": 97,
      "dur": 25
    },
    {
      "t": 1935.8,
      "ch": 1,
      "note": 38,
      "vel": 84,
      "dur": 25
    },
    {
      "t": 1935.8,
      "ch": 1,
      "note": 40,
      "vel": 93,
      "dur": 25
    },
    {
      "t": 1935.9,
      "ch": 1,
      "note": 42,
      "vel": 73,
      "dur": 25
    },
    {
      "t": 1935.9,
      "ch": 1,
      "note": 36,
      "vel": 86,
      "dur": 25
    },
    {
      "t": 1936.1,
      "ch": 1,
      "note": 38,
      "vel": 77,
      "dur": 25
    },
    {
      "t": 1936.1,
      "ch": 5,
      "note": 52,
      "vel": 64,
      "dur": 786
    },
    {
      "t": 1936.1,
      "ch": 1,
      "note": 40,
      "vel": 88,
      "dur": 25
    },
    {
      "t": 1936.2,
      "ch": 0,
      "note": 36,
      "vel": 118,
      "dur": 55
    },
    {
      "t": 1936.2,
      "ch": 1,
      "note": 42,
      "vel": 118,
      "dur": 25
    },
    {
      "t": 1936.2,
      "ch": 7,
      "note": 48,
      "vel": 75,
      "dur": 80
    },
    {
      "t": 1936.2,
      "ch": 7,
      "note": 45,
      "vel": 60,
      "dur": 80
    },
    {
      "t": 1936.2,
      "ch": 7,
      "note": 36,
      "vel": 59,
      "dur": 80
    },
    {
      "t": 1936.2,
      "ch": 7,
      "note": 38,
      "vel": 71,
      "dur": 80
    },
    {
      "t": 1936.3,
      "ch": 1,
      "note": 36,
      "vel": 87,
      "dur": 25
    },
    {
      "t": 1936.4,
      "ch": 1,
      "note": 38,
      "vel": 76,
      "dur": 25
    },
    {
      "t": 1936.4,
      "ch": 1,
      "note": 40,
      "vel": 70,
      "dur": 25
    },
    {
      "t": 1936.5,
      "ch": 1,
      "note": 42,
      "vel": 85,
      "dur": 25
    },
    {
      "t": 1936.5,
      "ch": 6,
      "note": 54,
      "vel": 48,
      "dur": 400
    },
    {
      "t": 1936.5,
      "ch": 7,
      "note": 36,
      "vel": 63,
      "dur": 80
    },
    {
      "t": 1936.5,
      "ch": 5,
      "note": 49,
      "vel": 57,
      "dur": 784
    },
    {
      "t": 1936.6,
      "ch": 1,
      "note": 36,
      "vel": 116,
      "dur": 25
    },
    {
      "t": 1936.7,
      "ch": 1,
      "note": 38,
      "vel": 90,
      "dur": 25
    },
    {
      "t": 1936.7,
      "ch": 1,
      "note": 40,
      "vel": 90,
      "dur": 25
    },
    {
      "t": 1936.8,
      "ch": 0,
      "note": 36,
      "vel": 96,
      "dur": 55
    },
    {
      "t": 1936.8,
      "ch": 1,
      "note": 42,
      "vel": 86,
      "dur": 25
    },
    {
      "t": 1936.8,
      "ch": 7,
      "note": 48,
      "vel": 79,
      "dur": 80
    },
    {
      "t": 1936.8,
      "ch": 7,
      "note": 36,
      "vel": 69,
      "dur": 80
    },
    {
      "t": 1936.8,
      "ch": 1,
      "note": 36,
      "vel": 114,
      "dur": 25
    },
    {
      "t": 1936.8,
      "ch": 6,
      "note": 59,
      "vel": 54,
      "dur": 522
    },
    {
      "t": 1937,
      "ch": 1,
      "note": 38,
      "vel": 78,
      "dur": 25
    },
    {
      "t": 1937,
      "ch": 1,
      "note": 40,
      "vel": 99,
      "dur": 25
    },
    {
      "t": 1937,
      "ch": 7,
      "note": 45,
      "vel": 59,
      "dur": 80
    },
    {
      "t": 1937,
      "ch": 7,
      "note": 38,
      "vel": 52,
      "dur": 80
    },
    {
      "t": 1937.1,
      "ch": 1,
      "note": 42,
      "vel": 83,
      "dur": 25
    },
    {
      "t": 1937.2,
      "ch": 1,
      "note": 36,
      "vel": 70,
      "dur": 25
    },
    {
      "t": 1937.2,
      "ch": 1,
      "note": 38,
      "vel": 102,
      "dur": 25
    },
    {
      "t": 1937.3,
      "ch": 6,
      "note": 54,
      "vel": 59,
      "dur": 520
    },
    {
      "t": 1937.3,
      "ch": 1,
      "note": 40,
      "vel": 96,
      "dur": 25
    },
    {
      "t": 1937.4,
      "ch": 4,
      "note": 60,
      "vel": 43,
      "dur": 2400
    },
    {
      "t": 1937.4,
      "ch": 4,
      "note": 59,
      "vel": 44,
      "dur": 2350
    },
    {
      "t": 1937.4,
      "ch": 3,
      "note": 40,
      "vel": 49,
      "dur": 4800
    },
    {
      "t": 1937.4,
      "ch": 0,
      "note": 36,
      "vel": 94,
      "dur": 55
    },
    {
      "t": 1937.4,
      "ch": 1,
      "note": 42,
      "vel": 97,
      "dur": 25
    },
    {
      "t": 1937.4,
      "ch": 7,
      "note": 48,
      "vel": 72,
      "dur": 80
    },
    {
      "t": 1937.4,
      "ch": 7,
      "note": 36,
      "vel": 68,
      "dur": 80
    },
    {
      "t": 1937.4,
      "ch": 6,
      "note": 52,
      "vel": 54,
      "dur": 520
    },
    {
      "t": 1937.5,
      "ch": 1,
      "note": 36,
      "vel": 110,
      "dur": 25
    },
    {
      "t": 1937.5,
      "ch": 1,
      "note": 38,
      "vel": 75,
      "dur": 25
    },
    {
      "t": 1937.6,
      "ch": 5,
      "note": 54,
      "vel": 74,
      "dur": 779
    },
    {
      "t": 1937.6,
      "ch": 1,
      "note": 40,
      "vel": 85,
      "dur": 25
    },
    {
      "t": 1937.7,
      "ch": 1,
      "note": 42,
      "vel": 83,
      "dur": 25
    },
    {
      "t": 1937.8,
      "ch": 1,
      "note": 36,
      "vel": 98,
      "dur": 25
    },
    {
      "t": 1937.8,
      "ch": 7,
      "note": 36,
      "vel": 59,
      "dur": 80
    },
    {
      "t": 1937.8,
      "ch": 7,
      "note": 45,
      "vel": 65,
      "dur": 80
    },
    {
      "t": 1937.8,
      "ch": 7,
      "note": 38,
      "vel": 57,
      "dur": 80
    },
    {
      "t": 1937.9,
      "ch": 1,
      "note": 38,
      "vel": 90,
      "dur": 25
    },
    {
      "t": 1937.9,
      "ch": 1,
      "note": 40,
      "vel": 110,
      "dur": 25
    },
    {
      "t": 1938,
      "ch": 0,
      "note": 36,
      "vel": 95,
      "dur": 55
    },
    {
      "t": 1938,
      "ch": 1,
      "note": 42,
      "vel": 76,
      "dur": 25
    },
    {
      "t": 1938,
      "ch": 7,
      "note": 48,
      "vel": 59,
      "dur": 80
    },
    {
      "t": 1938,
      "ch": 7,
      "note": 36,
      "vel": 71,
      "dur": 80
    },
    {
      "t": 1938.1,
      "ch": 1,
      "note": 36,
      "vel": 88,
      "dur": 25
    },
    {
      "t": 1938.1,
      "ch": 5,
      "note": 52,
      "vel": 54,
      "dur": 777
    },
    {
      "t": 1938.1,
      "ch": 1,
      "note": 38,
      "vel": 83,
      "dur": 25
    },
    {
      "t": 1938.2,
      "ch": 1,
      "note": 40,
      "vel": 101,
      "dur": 25
    },
    {
      "t": 1938.3,
      "ch": 1,
      "note": 42,
      "vel": 99,
      "dur": 25
    },
    {
      "t": 1938.4,
      "ch": 1,
      "note": 36,
      "vel": 94,
      "dur": 25
    },
    {
      "t": 1938.5,
      "ch": 1,
      "note": 38,
      "vel": 89,
      "dur": 25
    },
    {
      "t": 1938.5,
      "ch": 1,
      "note": 40,
      "vel": 96,
      "dur": 25
    },
    {
      "t": 1938.5,
      "ch": 5,
      "note": 70,
      "vel": 76,
      "dur": 774
    },
    {
      "t": 1938.6,
      "ch": 0,
      "note": 36,
      "vel": 115,
      "dur": 55
    },
    {
      "t": 1938.6,
      "ch": 1,
      "note": 42,
      "vel": 87,
      "dur": 25
    },
    {
      "t": 1938.6,
      "ch": 7,
      "note": 48,
      "vel": 77,
      "dur": 80
    },
    {
      "t": 1938.6,
      "ch": 7,
      "note": 45,
      "vel": 67,
      "dur": 80
    },
    {
      "t": 1938.6,
      "ch": 7,
      "note": 36,
      "vel": 69,
      "dur": 80
    },
    {
      "t": 1938.6,
      "ch": 7,
      "note": 38,
      "vel": 59,
      "dur": 80
    },
    {
      "t": 1938.6,
      "ch": 1,
      "note": 36,
      "vel": 83,
      "dur": 25
    },
    {
      "t": 1938.8,
      "ch": 1,
      "note": 38,
      "vel": 84,
      "dur": 25
    },
    {
      "t": 1938.8,
      "ch": 1,
      "note": 40,
      "vel": 75,
      "dur": 25
    },
    {
      "t": 1938.8,
      "ch": 6,
      "note": 73,
      "vel": 36,
      "dur": 400
    },
    {
      "t": 1938.8,
      "ch": 5,
      "note": 71,
      "vel": 60,
      "dur": 772
    },
    {
      "t": 1938.9,
      "ch": 1,
      "note": 42,
      "vel": 107,
      "dur": 25
    },
    {
      "t": 1939,
      "ch": 1,
      "note": 36,
      "vel": 77,
      "dur": 25
    },
    {
      "t": 1939,
      "ch": 7,
      "note": 36,
      "vel": 54,
      "dur": 80
    },
    {
      "t": 1939.1,
      "ch": 1,
      "note": 38,
      "vel": 89,
      "dur": 25
    },
    {
      "t": 1939.1,
      "ch": 1,
      "note": 40,
      "vel": 102,
      "dur": 25
    },
    {
      "t": 1939.2,
      "ch": 0,
      "note": 36,
      "vel": 96,
      "dur": 55
    },
    {
      "t": 1939.2,
      "ch": 1,
      "note": 42,
      "vel": 103,
      "dur": 25
    },
    {
      "t": 1939.2,
      "ch": 7,
      "note": 48,
      "vel": 62,
      "dur": 80
    },
    {
      "t": 1939.2,
      "ch": 7,
      "note": 36,
      "vel": 78,
      "dur": 80
    },
    {
      "t": 1939.3,
      "ch": 1,
      "note": 36,
      "vel": 110,
      "dur": 25
    },
    {
      "t": 1939.4,
      "ch": 1,
      "note": 38,
      "vel": 99,
      "dur": 25
    },
    {
      "t": 1939.4,
      "ch": 7,
      "note": 38,
      "vel": 66,
      "dur": 80
    },
    {
      "t": 1939.4,
      "ch": 1,
      "note": 40,
      "vel": 107,
      "dur": 25
    },
    {
      "t": 1939.4,
      "ch": 7,
      "note": 45,
      "vel": 66,
      "dur": 80
    },
    {
      "t": 1939.5,
      "ch": 1,
      "note": 42,
      "vel": 84,
      "dur": 25
    },
    {
      "t": 1939.6,
      "ch": 1,
      "note": 36,
      "vel": 99,
      "dur": 25
    },
    {
      "t": 1939.6,
      "ch": 1,
      "note": 38,
      "vel": 86,
      "dur": 25
    },
    {
      "t": 1939.7,
      "ch": 1,
      "note": 40,
      "vel": 72,
      "dur": 25
    },
    {
      "t": 1939.7,
      "ch": 4,
      "note": 58,
      "vel": 62,
      "dur": 2350
    },
    {
      "t": 1939.7,
      "ch": 3,
      "note": 35,
      "vel": 50,
      "dur": 2400
    },
    {
      "t": 1939.8,
      "ch": 0,
      "note": 36,
      "vel": 89,
      "dur": 55
    },
    {
      "t": 1939.8,
      "ch": 1,
      "note": 42,
      "vel": 102,
      "dur": 25
    },
    {
      "t": 1939.8,
      "ch": 7,
      "note": 48,
      "vel": 71,
      "dur": 80
    },
    {
      "t": 1939.8,
      "ch": 7,
      "note": 36,
      "vel": 70,
      "dur": 80
    },
    {
      "t": 1939.9,
      "ch": 1,
      "note": 36,
      "vel": 110,
      "dur": 25
    },
    {
      "t": 1939.9,
      "ch": 1,
      "note": 38,
      "vel": 78,
      "dur": 25
    },
    {
      "t": 1940,
      "ch": 1,
      "note": 40,
      "vel": 114,
      "dur": 25
    },
    {
      "t": 1940.1,
      "ch": 1,
      "note": 42,
      "vel": 93,
      "dur": 25
    },
    {
      "t": 1940.2,
      "ch": 1,
      "note": 36,
      "vel": 83,
      "dur": 25
    },
    {
      "t": 1940.2,
      "ch": 7,
      "note": 36,
      "vel": 61,
      "dur": 80
    },
    {
      "t": 1940.2,
      "ch": 7,
      "note": 45,
      "vel": 74,
      "dur": 80
    },
    {
      "t": 1940.2,
      "ch": 7,
      "note": 38,
      "vel": 60,
      "dur": 80
    },
    {
      "t": 1940.3,
      "ch": 1,
      "note": 38,
      "vel": 110,
      "dur": 25
    },
    {
      "t": 1940.3,
      "ch": 1,
      "note": 40,
      "vel": 100,
      "dur": 25
    },
    {
      "t": 1940.4,
      "ch": 0,
      "note": 36,
      "vel": 95,
      "dur": 55
    },
    {
      "t": 1940.4,
      "ch": 1,
      "note": 42,
      "vel": 115,
      "dur": 25
    },
    {
      "t": 1940.4,
      "ch": 7,
      "note": 48,
      "vel": 71,
      "dur": 80
    },
    {
      "t": 1940.4,
      "ch": 7,
      "note": 36,
      "vel": 71,
      "dur": 80
    },
    {
      "t": 1940.5,
      "ch": 1,
      "note": 36,
      "vel": 97,
      "dur": 25
    },
    {
      "t": 1940.6,
      "ch": 1,
      "note": 38,
      "vel": 84,
      "dur": 25
    },
    {
      "t": 1940.6,
      "ch": 1,
      "note": 40,
      "vel": 102,
      "dur": 25
    },
    {
      "t": 1940.6,
      "ch": 6,
      "note": 61,
      "vel": 54,
      "dur": 507
    },
    {
      "t": 1940.6,
      "ch": 5,
      "note": 64,
      "vel": 75,
      "dur": 761
    },
    {
      "t": 1940.7,
      "ch": 1,
      "note": 42,
      "vel": 112,
      "dur": 25
    },
    {
      "t": 1940.8,
      "ch": 1,
      "note": 36,
      "vel": 106,
      "dur": 25
    },
    {
      "t": 1940.8,
      "ch": 6,
      "note": 68,
      "vel": 42,
      "dur": 507
    },
    {
      "t": 1940.9,
      "ch": 1,
      "note": 38,
      "vel": 94,
      "dur": 25
    },
    {
      "t": 1940.9,
      "ch": 1,
      "note": 40,
      "vel": 91,
      "dur": 25
    },
    {
      "t": 1940.9,
      "ch": 6,
      "note": 68,
      "vel": 38,
      "dur": 506
    },
    {
      "t": 1941,
      "ch": 0,
      "note": 36,
      "vel": 115,
      "dur": 55
    },
    {
      "t": 1941,
      "ch": 1,
      "note": 42,
      "vel": 127,
      "dur": 25
    },
    {
      "t": 1941,
      "ch": 7,
      "note": 48,
      "vel": 77,
      "dur": 80
    },
    {
      "t": 1941,
      "ch": 7,
      "note": 45,
      "vel": 76,
      "dur": 80
    },
    {
      "t": 1941,
      "ch": 7,
      "note": 36,
      "vel": 78,
      "dur": 80
    },
    {
      "t": 1941,
      "ch": 7,
      "note": 38,
      "vel": 73,
      "dur": 80
    },
    {
      "t": 1941,
      "ch": 1,
      "note": 36,
      "vel": 108,
      "dur": 25
    },
    {
      "t": 1941.2,
      "ch": 1,
      "note": 38,
      "vel": 99,
      "dur": 25
    },
    {
      "t": 1941.2,
      "ch": 1,
      "note": 40,
      "vel": 96,
      "dur": 25
    },
    {
      "t": 1941.3,
      "ch": 1,
      "note": 42,
      "vel": 104,
      "dur": 25
    },
    {
      "t": 1941.3,
      "ch": 1,
      "note": 36,
      "vel": 86,
      "dur": 25
    },
    {
      "t": 1941.3,
      "ch": 7,
      "note": 36,
      "vel": 68,
      "dur": 80
    },
    {
      "t": 1941.5,
      "ch": 1,
      "note": 38,
      "vel": 107,
      "dur": 25
    },
    {
      "t": 1941.5,
      "ch": 1,
      "note": 40,
      "vel": 112,
      "dur": 25
    },
    {
      "t": 1941.6,
      "ch": 0,
      "note": 36,
      "vel": 88,
      "dur": 55
    },
    {
      "t": 1941.6,
      "ch": 1,
      "note": 42,
      "vel": 114,
      "dur": 25
    },
    {
      "t": 1941.6,
      "ch": 7,
      "note": 48,
      "vel": 66,
      "dur": 80
    },
    {
      "t": 1941.6,
      "ch": 7,
      "note": 36,
      "vel": 82,
      "dur": 80
    },
    {
      "t": 1941.7,
      "ch": 1,
      "note": 36,
      "vel": 110,
      "dur": 25
    },
    {
      "t": 1941.7,
      "ch": 1,
      "note": 38,
      "vel": 93,
      "dur": 25
    },
    {
      "t": 1941.8,
      "ch": 7,
      "note": 45,
      "vel": 58,
      "dur": 80
    },
    {
      "t": 1941.8,
      "ch": 7,
      "note": 38,
      "vel": 58,
      "dur": 80
    },
    {
      "t": 1941.8,
      "ch": 1,
      "note": 40,
      "vel": 80,
      "dur": 25
    },
    {
      "t": 1941.9,
      "ch": 1,
      "note": 42,
      "vel": 120,
      "dur": 25
    },
    {
      "t": 1942,
      "ch": 1,
      "note": 36,
      "vel": 101,
      "dur": 25
    },
    {
      "t": 1942.1,
      "ch": 1,
      "note": 38,
      "vel": 116,
      "dur": 25
    },
    {
      "t": 1942.1,
      "ch": 1,
      "note": 40,
      "vel": 105,
      "dur": 25
    },
    {
      "t": 1942.1,
      "ch": 6,
      "note": 56,
      "vel": 63,
      "dur": 502
    },
    {
      "t": 1942.2,
      "ch": 0,
      "note": 36,
      "vel": 88,
      "dur": 55
    },
    {
      "t": 1942.2,
      "ch": 1,
      "note": 42,
      "vel": 111,
      "dur": 25
    },
    {
      "t": 1942.2,
      "ch": 7,
      "note": 48,
      "vel": 75,
      "dur": 80
    },
    {
      "t": 1942.2,
      "ch": 7,
      "note": 36,
      "vel": 75,
      "dur": 80
    },
    {
      "t": 1942.2,
      "ch": 1,
      "note": 36,
      "vel": 104,
      "dur": 25
    },
    {
      "t": 1942.4,
      "ch": 1,
      "note": 38,
      "vel": 102,
      "dur": 25
    },
    {
      "t": 1942.4,
      "ch": 1,
      "note": 40,
      "vel": 80,
      "dur": 25
    },
    {
      "t": 1942.4,
      "ch": 5,
      "note": 56,
      "vel": 78,
      "dur": 752
    },
    {
      "t": 1942.5,
      "ch": 1,
      "note": 42,
      "vel": 88,
      "dur": 25
    },
    {
      "t": 1942.5,
      "ch": 1,
      "note": 36,
      "vel": 82,
      "dur": 25
    },
    {
      "t": 1942.5,
      "ch": 7,
      "note": 45,
      "vel": 55,
      "dur": 80
    },
    {
      "t": 1942.5,
      "ch": 7,
      "note": 38,
      "vel": 59,
      "dur": 80
    },
    {
      "t": 1942.5,
      "ch": 7,
      "note": 36,
      "vel": 52,
      "dur": 80
    },
    {
      "t": 1942.6,
      "ch": 6,
      "note": 73,
      "vel": 66,
      "dur": 501
    },
    {
      "t": 1942.6,
      "ch": 5,
      "note": 58,
      "vel": 81,
      "dur": 751
    },
    {
      "t": 1942.7,
      "ch": 7,
      "note": 60,
      "vel": 110,
      "dur": 400
    },
    {
      "t": 1942.7,
      "ch": 1,
      "note": 38,
      "vel": 93,
      "dur": 25
    },
    {
      "t": 1942.7,
      "ch": 1,
      "note": 40,
      "vel": 92,
      "dur": 25
    },
    {
      "t": 1942.8,
      "ch": 0,
      "note": 36,
      "vel": 89,
      "dur": 55
    },
    {
      "t": 1942.8,
      "ch": 1,
      "note": 42,
      "vel": 115,
      "dur": 25
    },
    {
      "t": 1942.8,
      "ch": 7,
      "note": 48,
      "vel": 74,
      "dur": 80
    },
    {
      "t": 1942.8,
      "ch": 7,
      "note": 36,
      "vel": 67,
      "dur": 80
    },
    {
      "t": 1942.9,
      "ch": 1,
      "note": 36,
      "vel": 118,
      "dur": 25
    },
    {
      "t": 1942.9,
      "ch": 6,
      "note": 58,
      "vel": 81,
      "dur": 500
    },
    {
      "t": 1942.9,
      "ch": 1,
      "note": 38,
      "vel": 92,
      "dur": 25
    },
    {
      "t": 1943,
      "ch": 5,
      "note": 52,
      "vel": 68,
      "dur": 749
    },
    {
      "t": 1943,
      "ch": 1,
      "note": 40,
      "vel": 97,
      "dur": 25
    },
    {
      "t": 1943.1,
      "ch": 1,
      "note": 42,
      "vel": 110,
      "dur": 25
    },
    {
      "t": 1943.2,
      "ch": 1,
      "note": 36,
      "vel": 98,
      "dur": 25
    },
    {
      "t": 1943.2,
      "ch": 1,
      "note": 38,
      "vel": 109,
      "dur": 25
    },
    {
      "t": 1943.3,
      "ch": 6,
      "note": 73,
      "vel": 62,
      "dur": 499
    },
    {
      "t": 1943.3,
      "ch": 1,
      "note": 40,
      "vel": 108,
      "dur": 25
    },
    {
      "t": 1943.4,
      "ch": 0,
      "note": 36,
      "vel": 120,
      "dur": 55
    },
    {
      "t": 1943.4,
      "ch": 1,
      "note": 42,
      "vel": 113,
      "dur": 25
    },
    {
      "t": 1943.4,
      "ch": 7,
      "note": 48,
      "vel": 63,
      "dur": 80
    },
    {
      "t": 1943.4,
      "ch": 7,
      "note": 45,
      "vel": 77,
      "dur": 80
    },
    {
      "t": 1943.4,
      "ch": 7,
      "note": 36,
      "vel": 64,
      "dur": 80
    },
    {
      "t": 1943.4,
      "ch": 7,
      "note": 38,
      "vel": 70,
      "dur": 80
    },
    {
      "t": 1943.4,
      "ch": 5,
      "note": 70,
      "vel": 96,
      "dur": 748
    },
    {
      "t": 1943.5,
      "ch": 1,
      "note": 36,
      "vel": 127,
      "dur": 25
    },
    {
      "t": 1943.5,
      "ch": 1,
      "note": 38,
      "vel": 116,
      "dur": 25
    },
    {
      "t": 1943.6,
      "ch": 1,
      "note": 40,
      "vel": 103,
      "dur": 25
    },
    {
      "t": 1943.7,
      "ch": 1,
      "note": 42,
      "vel": 108,
      "dur": 25
    },
    {
      "t": 1943.8,
      "ch": 1,
      "note": 36,
      "vel": 110,
      "dur": 25
    },
    {
      "t": 1943.8,
      "ch": 7,
      "note": 36,
      "vel": 55,
      "dur": 80
    },
    {
      "t": 1943.8,
      "ch": 5,
      "note": 71,
      "vel": 78,
      "dur": 747
    },
    {
      "t": 1943.9,
      "ch": 1,
      "note": 38,
      "vel": 96,
      "dur": 25
    },
    {
      "t": 1943.9,
      "ch": 1,
      "note": 40,
      "vel": 116,
      "dur": 25
    },
    {
      "t": 1943.9,
      "ch": 5,
      "note": 64,
      "vel": 70,
      "dur": 747
    },
    {
      "t": 1944,
      "ch": 0,
      "note": 36,
      "vel": 98,
      "dur": 55
    },
    {
      "t": 1944,
      "ch": 1,
      "note": 42,
      "vel": 97,
      "dur": 25
    },
    {
      "t": 1944,
      "ch": 7,
      "note": 48,
      "vel": 70,
      "dur": 80
    },
    {
      "t": 1944,
      "ch": 7,
      "note": 36,
      "vel": 60,
      "dur": 80
    },
    {
      "t": 1944,
      "ch": 1,
      "note": 36,
      "vel": 111,
      "dur": 25
    },
    {
      "t": 1944.2,
      "ch": 1,
      "note": 38,
      "vel": 108,
      "dur": 25
    },
    {
      "t": 1944.2,
      "ch": 1,
      "note": 40,
      "vel": 81,
      "dur": 25
    },
    {
      "t": 1944.2,
      "ch": 7,
      "note": 45,
      "vel": 53,
      "dur": 80
    },
    {
      "t": 1944.2,
      "ch": 7,
      "note": 38,
      "vel": 53,
      "dur": 80
    },
    {
      "t": 1944.2,
      "ch": 5,
      "note": 56,
      "vel": 72,
      "dur": 746
    },
    {
      "t": 1944.2,
      "ch": 6,
      "note": 73,
      "vel": 39,
      "dur": 400
    },
    {
      "t": 1944.2,
      "ch": 6,
      "note": 66,
      "vel": 88,
      "dur": 497
    },
    {
      "t": 1944.3,
      "ch": 1,
      "note": 42,
      "vel": 100,
      "dur": 25
    },
    {
      "t": 1944.3,
      "ch": 1,
      "note": 36,
      "vel": 95,
      "dur": 25
    },
    {
      "t": 1944.3,
      "ch": 6,
      "note": 59,
      "vel": 55,
      "dur": 497
    },
    {
      "t": 1944.5,
      "ch": 1,
      "note": 38,
      "vel": 84,
      "dur": 25
    },
    {
      "t": 1944.5,
      "ch": 1,
      "note": 40,
      "vel": 93,
      "dur": 25
    },
    {
      "t": 1944.5,
      "ch": 2,
      "note": 49,
      "vel": 0,
      "dur": 0
    },
    {
      "t": 1944.5,
      "ch": 2,
      "note": 61,
      "vel": 0,
      "dur": 0
    },
    {
      "t": 1944.5,
      "ch": 2,
      "note": 54,
      "vel": 57,
      "dur": 18000
    },
    {
      "t": 1944.6,
      "ch": 0,
      "note": 36,
      "vel": 87,
      "dur": 55
    },
    {
      "t": 1944.6,
      "ch": 1,
      "note": 42,
      "vel": 114,
      "dur": 25
    },
    {
      "t": 1944.6,
      "ch": 7,
      "note": 48,
      "vel": 69,
      "dur": 80
    },
    {
      "t": 1944.6,
      "ch": 7,
      "note": 36,
      "vel": 73,
      "dur": 80
    },
    {
      "t": 1944.7,
      "ch": 1,
      "note": 36,
      "vel": 119,
      "dur": 25
    },
    {
      "t": 1944.7,
      "ch": 6,
      "note": 61,
      "vel": 64,
      "dur": 497
    },
    {
      "t": 1944.8,
      "ch": 1,
      "note": 38,
      "vel": 95,
      "dur": 25
    },
    {
      "t": 1944.8,
      "ch": 1,
      "note": 40,
      "vel": 88,
      "dur": 25
    },
    {
      "t": 1944.8,
      "ch": 5,
      "note": 58,
      "vel": 95,
      "dur": 745
    },
    {
      "t": 1944.9,
      "ch": 1,
      "note": 42,
      "vel": 100,
      "dur": 25
    },
    {
      "t": 1945,
      "ch": 7,
      "note": 38,
      "vel": 55,
      "dur": 80
    },
    {
      "t": 1945,
      "ch": 1,
      "note": 36,
      "vel": 99,
      "dur": 25
    },
    {
      "t": 1945,
      "ch": 7,
      "note": 36,
      "vel": 51,
      "dur": 80
    },
    {
      "t": 1945,
      "ch": 7,
      "note": 45,
      "vel": 65,
      "dur": 80
    },
    {
      "t": 1945,
      "ch": 5,
      "note": 52,
      "vel": 91,
      "dur": 745
    },
    {
      "t": 1945.1,
      "ch": 1,
      "note": 38,
      "vel": 96,
      "dur": 25
    },
    {
      "t": 1945.1,
      "ch": 1,
      "note": 40,
      "vel": 103,
      "dur": 25
    },
    {
      "t": 1945.2,
      "ch": 0,
      "note": 36,
      "vel": 90,
      "dur": 55
    },
    {
      "t": 1945.2,
      "ch": 1,
      "note": 42,
      "vel": 117,
      "dur": 25
    },
    {
      "t": 1945.2,
      "ch": 7,
      "note": 48,
      "vel": 54,
      "dur": 80
    },
    {
      "t": 1945.2,
      "ch": 7,
      "note": 36,
      "vel": 60,
      "dur": 80
    },
    {
      "t": 1945.3,
      "ch": 1,
      "note": 36,
      "vel": 111,
      "dur": 25
    },
    {
      "t": 1945.3,
      "ch": 6,
      "note": 59,
      "vel": 52,
      "dur": 400
    },
    {
      "t": 1945.4,
      "ch": 1,
      "note": 38,
      "vel": 85,
      "dur": 25
    },
    {
      "t": 1945.4,
      "ch": 1,
      "note": 40,
      "vel": 89,
      "dur": 25
    },
    {
      "t": 1945.4,
      "ch": 6,
      "note": 54,
      "vel": 59,
      "dur": 497
    },
    {
      "t": 1945.5,
      "ch": 1,
      "note": 42,
      "vel": 84,
      "dur": 25
    },
    {
      "t": 1945.6,
      "ch": 1,
      "note": 36,
      "vel": 110,
      "dur": 25
    },
    {
      "t": 1945.7,
      "ch": 1,
      "note": 38,
      "vel": 97,
      "dur": 25
    },
    {
      "t": 1945.7,
      "ch": 1,
      "note": 40,
      "vel": 86,
      "dur": 25
    },
    {
      "t": 1945.7,
      "ch": 5,
      "note": 49,
      "vel": 49,
      "dur": 745
    },
    {
      "t": 1945.8,
      "ch": 0,
      "note": 36,
      "vel": 110,
      "dur": 55
    },
    {
      "t": 1945.8,
      "ch": 1,
      "note": 42,
      "vel": 117,
      "dur": 25
    },
    {
      "t": 1945.8,
      "ch": 7,
      "note": 48,
      "vel": 72,
      "dur": 80
    },
    {
      "t": 1945.8,
      "ch": 7,
      "note": 45,
      "vel": 59,
      "dur": 80
    },
    {
      "t": 1945.8,
      "ch": 7,
      "note": 36,
      "vel": 75,
      "dur": 80
    },
    {
      "t": 1945.8,
      "ch": 7,
      "note": 38,
      "vel": 76,
      "dur": 80
    },
    {
      "t": 1945.8,
      "ch": 1,
      "note": 36,
      "vel": 107,
      "dur": 25
    },
    {
      "t": 1946,
      "ch": 1,
      "note": 38,
      "vel": 98,
      "dur": 25
    },
    {
      "t": 1946,
      "ch": 1,
      "note": 40,
      "vel": 99,
      "dur": 25
    },
    {
      "t": 1946.1,
      "ch": 1,
      "note": 42,
      "vel": 84,
      "dur": 25
    },
    {
      "t": 1946.2,
      "ch": 1,
      "note": 36,
      "vel": 96,
      "dur": 25
    },
    {
      "t": 1946.2,
      "ch": 7,
      "note": 36,
      "vel": 75,
      "dur": 80
    },
    {
      "t": 1946.3,
      "ch": 1,
      "note": 38,
      "vel": 108,
      "dur": 25
    },
    {
      "t": 1946.3,
      "ch": 1,
      "note": 40,
      "vel": 106,
      "dur": 25
    },
    {
      "t": 1946.4,
      "ch": 0,
      "note": 36,
      "vel": 92,
      "dur": 55
    },
    {
      "t": 1946.4,
      "ch": 1,
      "note": 42,
      "vel": 112,
      "dur": 25
    },
    {
      "t": 1946.4,
      "ch": 7,
      "note": 48,
      "vel": 76,
      "dur": 80
    },
    {
      "t": 1946.4,
      "ch": 7,
      "note": 36,
      "vel": 71,
      "dur": 80
    },
    {
      "t": 1946.5,
      "ch": 1,
      "note": 36,
      "vel": 112,
      "dur": 25
    },
    {
      "t": 1946.6,
      "ch": 1,
      "note": 38,
      "vel": 80,
      "dur": 25
    },
    {
      "t": 1946.6,
      "ch": 1,
      "note": 40,
      "vel": 83,
      "dur": 25
    },
    {
      "t": 1946.6,
      "ch": 7,
      "note": 45,
      "vel": 55,
      "dur": 80
    },
    {
      "t": 1946.6,
      "ch": 7,
      "note": 38,
      "vel": 54,
      "dur": 80
    },
    {
      "t": 1946.6,
      "ch": 5,
      "note": 59,
      "vel": 62,
      "dur": 747
    },
    {
      "t": 1946.7,
      "ch": 1,
      "note": 42,
      "vel": 89,
      "dur": 25
    },
    {
      "t": 1946.8,
      "ch": 1,
      "note": 36,
      "vel": 94,
      "dur": 25
    },
    {
      "t": 1946.8,
      "ch": 6,
      "note": 52,
      "vel": 49,
      "dur": 498
    },
    {
      "t": 1946.9,
      "ch": 1,
      "note": 38,
      "vel": 96,
      "dur": 25
    },
    {
      "t": 1946.9,
      "ch": 1,
      "note": 40,
      "vel": 91,
      "dur": 25
    },
    {
      "t": 1946.9,
      "ch": 6,
      "note": 64,
      "vel": 60,
      "dur": 498
    },
    {
      "t": 1947,
      "ch": 0,
      "note": 36,
      "vel": 96,
      "dur": 55
    },
    {
      "t": 1947,
      "ch": 1,
      "note": 42,
      "vel": 125,
      "dur": 25
    },
    {
      "t": 1947,
      "ch": 7,
      "note": 48,
      "vel": 72,
      "dur": 80
    },
    {
      "t": 1947,
      "ch": 7,
      "note": 36,
      "vel": 58,
      "dur": 80
    },
    {
      "t": 1947.1,
      "ch": 1,
      "note": 36,
      "vel": 120,
      "dur": 25
    },
    {
      "t": 1947.1,
      "ch": 5,
      "note": 49,
      "vel": 69,
      "dur": 748
    },
    {
      "t": 1947.1,
      "ch": 6,
      "note": 64,
      "vel": 53,
      "dur": 400
    },
    {
      "t": 1947.2,
      "ch": 1,
      "note": 38,
      "vel": 78,
      "dur": 25
    },
    {
      "t": 1947.2,
      "ch": 1,
      "note": 40,
      "vel": 96,
      "dur": 25
    },
    {
      "t": 1947.2,
      "ch": 5,
      "note": 60,
      "vel": 83,
      "dur": 749
    },
    {
      "t": 1947.2,
      "ch": 6,
      "note": 63,
      "vel": 49,
      "dur": 499
    },
    {
      "t": 1947.3,
      "ch": 1,
      "note": 42,
      "vel": 105,
      "dur": 25
    },
    {
      "t": 1947.4,
      "ch": 1,
      "note": 36,
      "vel": 86,
      "dur": 25
    },
    {
      "t": 1947.4,
      "ch": 7,
      "note": 45,
      "vel": 53,
      "dur": 80
    },
    {
      "t": 1947.4,
      "ch": 7,
      "note": 38,
      "vel": 66,
      "dur": 80
    },
    {
      "t": 1947.4,
      "ch": 7,
      "note": 36,
      "vel": 64,
      "dur": 80
    },
    {
      "t": 1947.4,
      "ch": 1,
      "note": 38,
      "vel": 106,
      "dur": 25
    },
    {
      "t": 1947.5,
      "ch": 1,
      "note": 40,
      "vel": 101,
      "dur": 25
    },
    {
      "t": 1947.6,
      "ch": 0,
      "note": 36,
      "vel": 92,
      "dur": 55
    },
    {
      "t": 1947.6,
      "ch": 1,
      "note": 42,
      "vel": 99,
      "dur": 25
    },
    {
      "t": 1947.6,
      "ch": 7,
      "note": 48,
      "vel": 75,
      "dur": 80
    },
    {
      "t": 1947.6,
      "ch": 7,
      "note": 36,
      "vel": 77,
      "dur": 80
    },
    {
      "t": 1947.7,
      "ch": 1,
      "note": 36,
      "vel": 95,
      "dur": 25
    },
    {
      "t": 1947.7,
      "ch": 1,
      "note": 38,
      "vel": 105,
      "dur": 25
    },
    {
      "t": 1947.8,
      "ch": 1,
      "note": 40,
      "vel": 94,
      "dur": 25
    },
    {
      "t": 1947.9,
      "ch": 1,
      "note": 42,
      "vel": 110,
      "dur": 25
    },
    {
      "t": 1947.9,
      "ch": 6,
      "note": 66,
      "vel": 57,
      "dur": 501
    },
    {
      "t": 1948,
      "ch": 1,
      "note": 36,
      "vel": 85,
      "dur": 25
    },
    {
      "t": 1948.1,
      "ch": 1,
      "note": 38,
      "vel": 112,
      "dur": 25
    },
    {
      "t": 1948.1,
      "ch": 1,
      "note": 40,
      "vel": 88,
      "dur": 25
    },
    {
      "t": 1948.2,
      "ch": 0,
      "note": 36,
      "vel": 115,
      "dur": 55
    },
    {
      "t": 1948.2,
      "ch": 1,
      "note": 42,
      "vel": 116,
      "dur": 25
    },
    {
      "t": 1948.2,
      "ch": 7,
      "note": 48,
      "vel": 69,
      "dur": 80
    },
    {
      "t": 1948.2,
      "ch": 7,
      "note": 45,
      "vel": 80,
      "dur": 80
    },
    {
      "t": 1948.2,
      "ch": 7,
      "note": 36,
      "vel": 64,
      "dur": 80
    },
    {
      "t": 1948.2,
      "ch": 7,
      "note": 38,
      "vel": 68,
      "dur": 80
    },
    {
      "t": 1948.2,
      "ch": 1,
      "note": 36,
      "vel": 112,
      "dur": 25
    },
    {
      "t": 1948.4,
      "ch": 1,
      "note": 38,
      "vel": 106,
      "dur": 25
    },
    {
      "t": 1948.4,
      "ch": 1,
      "note": 40,
      "vel": 88,
      "dur": 25
    },
    {
      "t": 1948.5,
      "ch": 1,
      "note": 42,
      "vel": 115,
      "dur": 25
    },
    {
      "t": 1948.5,
      "ch": 1,
      "note": 36,
      "vel": 118,
      "dur": 25
    },
    {
      "t": 1948.5,
      "ch": 7,
      "note": 36,
      "vel": 70,
      "dur": 80
    },
    {
      "t": 1948.5,
      "ch": 6,
      "note": 59,
      "vel": 64,
      "dur": 503
    },
    {
      "t": 1948.7,
      "ch": 1,
      "note": 38,
      "vel": 90,
      "dur": 25
    },
    {
      "t": 1948.7,
      "ch": 1,
      "note": 40,
      "vel": 89,
      "dur": 25
    },
    {
      "t": 1948.7,
      "ch": 5,
      "note": 61,
      "vel": 59,
      "dur": 755
    },
    {
      "t": 1948.8,
      "ch": 0,
      "note": 36,
      "vel": 89,
      "dur": 55
    },
    {
      "t": 1948.8,
      "ch": 1,
      "note": 42,
      "vel": 127,
      "dur": 25
    },
    {
      "t": 1948.8,
      "ch": 7,
      "note": 48,
      "vel": 61,
      "dur": 80
    },
    {
      "t": 1948.8,
      "ch": 7,
      "note": 36,
      "vel": 68,
      "dur": 80
    },
    {
      "t": 1948.8,
      "ch": 1,
      "note": 36,
      "vel": 93,
      "dur": 25
    },
    {
      "t": 1948.8,
      "ch": 5,
      "note": 52,
      "vel": 76,
      "dur": 756
    },
    {
      "t": 1949,
      "ch": 1,
      "note": 38,
      "vel": 100,
      "dur": 25
    },
    {
      "t": 1949,
      "ch": 7,
      "note": 45,
      "vel": 51,
      "dur": 80
    },
    {
      "t": 1949,
      "ch": 7,
      "note": 38,
      "vel": 59,
      "dur": 80
    },
    {
      "t": 1949,
      "ch": 1,
      "note": 40,
      "vel": 107,
      "dur": 25
    },
    {
      "t": 1949.1,
      "ch": 1,
      "note": 42,
      "vel": 71,
      "dur": 25
    },
    {
      "t": 1949.2,
      "ch": 6,
      "note": 54,
      "vel": 75,
      "dur": 505
    },
    {
      "t": 1949.2,
      "ch": 1,
      "note": 36,
      "vel": 96,
      "dur": 25
    },
    {
      "t": 1949.3,
      "ch": 1,
      "note": 38,
      "vel": 112,
      "dur": 25
    },
    {
      "t": 1949.3,
      "ch": 6,
      "note": 52,
      "vel": 60,
      "dur": 505
    },
    {
      "t": 1949.3,
      "ch": 1,
      "note": 40,
      "vel": 99,
      "dur": 25
    },
    {
      "t": 1949.4,
      "ch": 0,
      "note": 36,
      "vel": 90,
      "dur": 55
    },
    {
      "t": 1949.4,
      "ch": 1,
      "note": 42,
      "vel": 109,
      "dur": 25
    },
    {
      "t": 1949.4,
      "ch": 7,
      "note": 48,
      "vel": 70,
      "dur": 80
    },
    {
      "t": 1949.4,
      "ch": 7,
      "note": 36,
      "vel": 70,
      "dur": 80
    },
    {
      "t": 1949.5,
      "ch": 1,
      "note": 36,
      "vel": 108,
      "dur": 25
    },
    {
      "t": 1949.6,
      "ch": 1,
      "note": 38,
      "vel": 87,
      "dur": 25
    },
    {
      "t": 1949.6,
      "ch": 6,
      "note": 63,
      "vel": 61,
      "dur": 506
    },
    {
      "t": 1949.6,
      "ch": 1,
      "note": 40,
      "vel": 99,
      "dur": 25
    },
    {
      "t": 1949.7,
      "ch": 1,
      "note": 42,
      "vel": 96,
      "dur": 25
    },
    {
      "t": 1949.7,
      "ch": 7,
      "note": 45,
      "vel": 66,
      "dur": 80
    },
    {
      "t": 1949.7,
      "ch": 7,
      "note": 36,
      "vel": 65,
      "dur": 80
    },
    {
      "t": 1949.7,
      "ch": 7,
      "note": 38,
      "vel": 55,
      "dur": 80
    },
    {
      "t": 1949.8,
      "ch": 1,
      "note": 36,
      "vel": 108,
      "dur": 25
    },
    {
      "t": 1949.8,
      "ch": 1,
      "note": 38,
      "vel": 87,
      "dur": 25
    },
    {
      "t": 1949.9,
      "ch": 6,
      "note": 59,
      "vel": 55,
      "dur": 508
    },
    {
      "t": 1949.9,
      "ch": 1,
      "note": 40,
      "vel": 107,
      "dur": 25
    },
    {
      "t": 1950,
      "ch": 0,
      "note": 36,
      "vel": 91,
      "dur": 55
    },
    {
      "t": 1950,
      "ch": 1,
      "note": 42,
      "vel": 103,
      "dur": 25
    },
    {
      "t": 1950,
      "ch": 7,
      "note": 48,
      "vel": 69,
      "dur": 80
    },
    {
      "t": 1950,
      "ch": 7,
      "note": 36,
      "vel": 84,
      "dur": 80
    },
    {
      "t": 1950.1,
      "ch": 1,
      "note": 36,
      "vel": 96,
      "dur": 25
    },
    {
      "t": 1950.2,
      "ch": 1,
      "note": 38,
      "vel": 98,
      "dur": 25
    },
    {
      "t": 1950.2,
      "ch": 1,
      "note": 40,
      "vel": 84,
      "dur": 25
    },
    {
      "t": 1950.3,
      "ch": 1,
      "note": 42,
      "vel": 76,
      "dur": 25
    },
    {
      "t": 1950.3,
      "ch": 1,
      "note": 36,
      "vel": 94,
      "dur": 25
    },
    {
      "t": 1950.5,
      "ch": 1,
      "note": 38,
      "vel": 91,
      "dur": 25
    },
    {
      "t": 1950.5,
      "ch": 5,
      "note": 49,
      "vel": 61,
      "dur": 765
    },
    {
      "t": 1950.5,
      "ch": 1,
      "note": 40,
      "vel": 92,
      "dur": 25
    },
    {
      "t": 1950.6,
      "ch": 1,
      "note": 42,
      "vel": 108,
      "dur": 25
    },
    {
      "t": 1950.6,
      "ch": 7,
      "note": 48,
      "vel": 89,
      "dur": 80
    },
    {
      "t": 1950.6,
      "ch": 7,
      "note": 45,
      "vel": 76,
      "dur": 80
    },
    {
      "t": 1950.6,
      "ch": 7,
      "note": 36,
      "vel": 72,
      "dur": 80
    },
    {
      "t": 1950.6,
      "ch": 7,
      "note": 38,
      "vel": 69,
      "dur": 80
    },
    {
      "t": 1950.6,
      "ch": 5,
      "note": 59,
      "vel": 73,
      "dur": 766
    },
    {
      "t": 1950.7,
      "ch": 1,
      "note": 36,
      "vel": 110,
      "dur": 25
    },
    {
      "t": 1950.7,
      "ch": 1,
      "note": 38,
      "vel": 118,
      "dur": 25
    },
    {
      "t": 1950.8,
      "ch": 1,
      "note": 40,
      "vel": 105,
      "dur": 25
    },
    {
      "t": 1950.9,
      "ch": 1,
      "note": 42,
      "vel": 81,
      "dur": 25
    },
    {
      "t": 1951,
      "ch": 1,
      "note": 36,
      "vel": 94,
      "dur": 25
    },
    {
      "t": 1951,
      "ch": 7,
      "note": 36,
      "vel": 64,
      "dur": 80
    },
    {
      "t": 1951,
      "ch": 6,
      "note": 49,
      "vel": 58,
      "dur": 512
    },
    {
      "t": 1951,
      "ch": 1,
      "note": 38,
      "vel": 76,
      "dur": 25
    },
    {
      "t": 1951,
      "ch": 6,
      "note": 61,
      "vel": 47,
      "dur": 400
    },
    {
      "t": 1951.1,
      "ch": 1,
      "note": 40,
      "vel": 91,
      "dur": 25
    },
    {
      "t": 1951.1,
      "ch": 6,
      "note": 61,
      "vel": 51,
      "dur": 513
    },
    {
      "t": 1951.2,
      "ch": 1,
      "note": 42,
      "vel": 103,
      "dur": 25
    },
    {
      "t": 1951.2,
      "ch": 7,
      "note": 48,
      "vel": 84,
      "dur": 80
    },
    {
      "t": 1951.2,
      "ch": 7,
      "note": 36,
      "vel": 71,
      "dur": 80
    },
    {
      "t": 1951.2,
      "ch": 1,
      "note": 36,
      "vel": 106,
      "dur": 25
    },
    {
      "t": 1951.2,
      "ch": 5,
      "note": 49,
      "vel": 88,
      "dur": 770
    },
    {
      "t": 1951.4,
      "ch": 1,
      "note": 38,
      "vel": 105,
      "dur": 25
    },
    {
      "t": 1951.4,
      "ch": 7,
      "note": 38,
      "vel": 66,
      "dur": 80
    },
    {
      "t": 1951.4,
      "ch": 1,
      "note": 40,
      "vel": 80,
      "dur": 25
    },
    {
      "t": 1951.5,
      "ch": 7,
      "note": 45,
      "vel": 55,
      "dur": 80
    },
    {
      "t": 1951.5,
      "ch": 1,
      "note": 42,
      "vel": 90,
      "dur": 25
    },
    {
      "t": 1951.6,
      "ch": 1,
      "note": 36,
      "vel": 90,
      "dur": 25
    },
    {
      "t": 1951.7,
      "ch": 1,
      "note": 38,
      "vel": 83,
      "dur": 25
    },
    {
      "t": 1951.7,
      "ch": 1,
      "note": 40,
      "vel": 108,
      "dur": 25
    },
    {
      "t": 1951.8,
      "ch": 1,
      "note": 42,
      "vel": 76,
      "dur": 25
    },
    {
      "t": 1951.8,
      "ch": 7,
      "note": 48,
      "vel": 76,
      "dur": 80
    },
    {
      "t": 1951.8,
      "ch": 7,
      "note": 36,
      "vel": 71,
      "dur": 80
    },
    {
      "t": 1951.9,
      "ch": 1,
      "note": 36,
      "vel": 101,
      "dur": 25
    },
    {
      "t": 1952,
      "ch": 1,
      "note": 38,
      "vel": 98,
      "dur": 25
    },
    {
      "t": 1952,
      "ch": 1,
      "note": 40,
      "vel": 72,
      "dur": 25
    },
    {
      "t": 1952.2,
      "ch": 1,
      "note": 42,
      "vel": 93,
      "dur": 25
    },
    {
      "t": 1952.2,
      "ch": 1,
      "note": 36,
      "vel": 93,
      "dur": 25
    },
    {
      "t": 1952.2,
      "ch": 7,
      "note": 38,
      "vel": 63,
      "dur": 80
    },
    {
      "t": 1952.3,
      "ch": 1,
      "note": 38,
      "vel": 114,
      "dur": 25
    },
    {
      "t": 1952.3,
      "ch": 7,
      "note": 36,
      "vel": 71,
      "dur": 80
    },
    {
      "t": 1952.3,
      "ch": 7,
      "note": 45,
      "vel": 67,
      "dur": 80
    },
    {
      "t": 1952.3,
      "ch": 6,
      "note": 64,
      "vel": 66,
      "dur": 517
    },
    {
      "t": 1952.3,
      "ch": 1,
      "note": 40,
      "vel": 80,
      "dur": 25
    },
    {
      "t": 1952.4,
      "ch": 1,
      "note": 42,
      "vel": 91,
      "dur": 25
    },
    {
      "t": 1952.4,
      "ch": 7,
      "note": 48,
      "vel": 67,
      "dur": 80
    },
    {
      "t": 1952.4,
      "ch": 7,
      "note": 36,
      "vel": 76,
      "dur": 80
    },
    {
      "t": 1952.4,
      "ch": 5,
      "note": 58,
      "vel": 71,
      "dur": 776
    },
    {
      "t": 1952.5,
      "ch": 1,
      "note": 36,
      "vel": 87,
      "dur": 25
    },
    {
      "t": 1952.5,
      "ch": 1,
      "note": 38,
      "vel": 78,
      "dur": 25
    },
    {
      "t": 1952.6,
      "ch": 1,
      "note": 40,
      "vel": 83,
      "dur": 25
    },
    {
      "t": 1952.7,
      "ch": 1,
      "note": 42,
      "vel": 89,
      "dur": 25
    },
    {
      "t": 1952.8,
      "ch": 1,
      "note": 36,
      "vel": 104,
      "dur": 25
    },
    {
      "t": 1952.9,
      "ch": 5,
      "note": 61,
      "vel": 61,
      "dur": 779
    },
    {
      "t": 1952.9,
      "ch": 1,
      "note": 38,
      "vel": 98,
      "dur": 25
    },
    {
      "t": 1952.9,
      "ch": 6,
      "note": 63,
      "vel": 57,
      "dur": 400
    },
    {
      "t": 1952.9,
      "ch": 1,
      "note": 40,
      "vel": 99,
      "dur": 25
    },
    {
      "t": 1952.9,
      "ch": 5,
      "note": 68,
      "vel": 54,
      "dur": 779
    },
    {
      "t": 1953,
      "ch": 1,
      "note": 42,
      "vel": 95,
      "dur": 25
    },
    {
      "t": 1953,
      "ch": 7,
      "note": 48,
      "vel": 73,
      "dur": 80
    },
    {
      "t": 1953,
      "ch": 7,
      "note": 45,
      "vel": 75,
      "dur": 80
    },
    {
      "t": 1953,
      "ch": 7,
      "note": 36,
      "vel": 65,
      "dur": 80
    },
    {
      "t": 1953,
      "ch": 7,
      "note": 38,
      "vel": 69,
      "dur": 80
    },
    {
      "t": 1953.1,
      "ch": 1,
      "note": 36,
      "vel": 95,
      "dur": 25
    },
    {
      "t": 1953.2,
      "ch": 6,
      "note": 71,
      "vel": 64,
      "dur": 520
    },
    {
      "t": 1953.2,
      "ch": 5,
      "note": 66,
      "vel": 54,
      "dur": 780
    },
    {
      "t": 1953.2,
      "ch": 1,
      "note": 38,
      "vel": 114,
      "dur": 25
    },
    {
      "t": 1953.2,
      "ch": 1,
      "note": 40,
      "vel": 102,
      "dur": 25
    },
    {
      "t": 1953.3,
      "ch": 5,
      "note": 59,
      "vel": 46,
      "dur": 781
    },
    {
      "t": 1953.3,
      "ch": 1,
      "note": 42,
      "vel": 119,
      "dur": 25
    },
    {
      "t": 1953.4,
      "ch": 6,
      "note": 73,
      "vel": 41,
      "dur": 400
    },
    {
      "t": 1953.4,
      "ch": 1,
      "note": 36,
      "vel": 97,
      "dur": 25
    },
    {
      "t": 1953.4,
      "ch": 7,
      "note": 36,
      "vel": 65,
      "dur": 80
    },
    {
      "t": 1953.5,
      "ch": 1,
      "note": 38,
      "vel": 81,
      "dur": 25
    },
    {
      "t": 1953.5,
      "ch": 1,
      "note": 40,
      "vel": 82,
      "dur": 25
    },
    {
      "t": 1953.6,
      "ch": 1,
      "note": 42,
      "vel": 101,
      "dur": 25
    },
    {
      "t": 1953.6,
      "ch": 7,
      "note": 48,
      "vel": 74,
      "dur": 80
    },
    {
      "t": 1953.6,
      "ch": 7,
      "note": 36,
      "vel": 73,
      "dur": 80
    },
    {
      "t": 1953.7,
      "ch": 1,
      "note": 36,
      "vel": 108,
      "dur": 25
    },
    {
      "t": 1953.8,
      "ch": 6,
      "note": 68,
      "vel": 43,
      "dur": 522
    },
    {
      "t": 1953.8,
      "ch": 1,
      "note": 38,
      "vel": 83,
      "dur": 25
    },
    {
      "t": 1953.9,
      "ch": 1,
      "note": 40,
      "vel": 102,
      "dur": 25
    },
    {
      "t": 1953.9,
      "ch": 6,
      "note": 56,
      "vel": 38,
      "dur": 523
    },
    {
      "t": 1953.9,
      "ch": 7,
      "note": 45,
      "vel": 64,
      "dur": 80
    },
    {
      "t": 1953.9,
      "ch": 7,
      "note": 38,
      "vel": 61,
      "dur": 80
    },
    {
      "t": 1953.9,
      "ch": 1,
      "note": 42,
      "vel": 100,
      "dur": 25
    },
    {
      "t": 1953.9,
      "ch": 1,
      "note": 36,
      "vel": 100,
      "dur": 25
    },
    {
      "t": 1954.1,
      "ch": 1,
      "note": 38,
      "vel": 109,
      "dur": 25
    },
    {
      "t": 1954.1,
      "ch": 1,
      "note": 40,
      "vel": 82,
      "dur": 25
    },
    {
      "t": 1954.2,
      "ch": 2,
      "note": 54,
      "vel": 56,
      "dur": 18000
    },
    {
      "t": 1954.2,
      "ch": 4,
      "note": 58,
      "vel": 59,
      "dur": 4750
    },
    {
      "t": 1954.3,
      "ch": 6,
      "note": 58,
      "vel": 61,
      "dur": 523
    },
    {
      "t": 1954.3,
      "ch": 5,
      "note": 61,
      "vel": 61,
      "dur": 785
    },
    {
      "t": 1954.3,
      "ch": 1,
      "note": 42,
      "vel": 95,
      "dur": 25
    },
    {
      "t": 1954.3,
      "ch": 7,
      "note": 48,
      "vel": 73,
      "dur": 80
    },
    {
      "t": 1954.3,
      "ch": 7,
      "note": 36,
      "vel": 74,
      "dur": 80
    },
    {
      "t": 1954.3,
      "ch": 1,
      "note": 36,
      "vel": 101,
      "dur": 25
    },
    {
      "t": 1954.3,
      "ch": 1,
      "note": 38,
      "vel": 81,
      "dur": 25
    },
    {
      "t": 1954.4,
      "ch": 1,
      "note": 40,
      "vel": 86,
      "dur": 25
    },
    {
      "t": 1954.4,
      "ch": 5,
      "note": 68,
      "vel": 72,
      "dur": 786
    },
    {
      "t": 1954.5,
      "ch": 1,
      "note": 42,
      "vel": 81,
      "dur": 25
    },
    {
      "t": 1954.5,
      "ch": 6,
      "note": 68,
      "vel": 45,
      "dur": 400
    },
    {
      "t": 1954.6,
      "ch": 1,
      "note": 36,
      "vel": 90,
      "dur": 25
    },
    {
      "t": 1954.6,
      "ch": 7,
      "note": 38,
      "vel": 60,
      "dur": 80
    },
    {
      "t": 1954.6,
      "ch": 7,
      "note": 45,
      "vel": 67,
      "dur": 80
    },
    {
      "t": 1954.6,
      "ch": 7,
      "note": 36,
      "vel": 61,
      "dur": 80
    },
    {
      "t": 1954.7,
      "ch": 1,
      "note": 38,
      "vel": 73,
      "dur": 25
    },
    {
      "t": 1954.7,
      "ch": 1,
      "note": 40,
      "vel": 94,
      "dur": 25
    },
    {
      "t": 1954.8,
      "ch": 1,
      "note": 42,
      "vel": 107,
      "dur": 25
    },
    {
      "t": 1954.8,
      "ch": 7,
      "note": 48,
      "vel": 82,
      "dur": 80
    },
    {
      "t": 1954.8,
      "ch": 7,
      "note": 36,
      "vel": 71,
      "dur": 80
    },
    {
      "t": 1954.9,
      "ch": 1,
      "note": 36,
      "vel": 120,
      "dur": 25
    },
    {
      "t": 1955,
      "ch": 1,
      "note": 38,
      "vel": 72,
      "dur": 25
    },
    {
      "t": 1955.1,
      "ch": 1,
      "note": 40,
      "vel": 76,
      "dur": 25
    },
    {
      "t": 1955.1,
      "ch": 1,
      "note": 42,
      "vel": 102,
      "dur": 25
    },
    {
      "t": 1955.2,
      "ch": 1,
      "note": 36,
      "vel": 84,
      "dur": 25
    },
    {
      "t": 1955.3,
      "ch": 5,
      "note": 73,
      "vel": 59,
      "dur": 789
    },
    {
      "t": 1955.3,
      "ch": 1,
      "note": 38,
      "vel": 114,
      "dur": 25
    },
    {
      "t": 1955.4,
      "ch": 1,
      "note": 40,
      "vel": 88,
      "dur": 25
    },
    {
      "t": 1955.4,
      "ch": 5,
      "note": 68,
      "vel": 56,
      "dur": 789
    },
    {
      "t": 1955.4,
      "ch": 0,
      "note": 36,
      "vel": 127,
      "dur": 55
    },
    {
      "t": 1955.4,
      "ch": 1,
      "note": 42,
      "vel": 94,
      "dur": 25
    },
    {
      "t": 1955.4,
      "ch": 7,
      "note": 48,
      "vel": 62,
      "dur": 80
    },
    {
      "t": 1955.4,
      "ch": 7,
      "note": 45,
      "vel": 78,
      "dur": 80
    },
    {
      "t": 1955.4,
      "ch": 7,
      "note": 36,
      "vel": 71,
      "dur": 80
    },
    {
      "t": 1955.4,
      "ch": 7,
      "note": 38,
      "vel": 57,
      "dur": 80
    },
    {
      "t": 1955.5,
      "ch": 1,
      "note": 36,
      "vel": 98,
      "dur": 25
    },
    {
      "t": 1955.6,
      "ch": 1,
      "note": 38,
      "vel": 67,
      "dur": 25
    },
    {
      "t": 1955.6,
      "ch": 1,
      "note": 40,
      "vel": 77,
      "dur": 25
    },
    {
      "t": 1955.7,
      "ch": 6,
      "note": 71,
      "vel": 56,
      "dur": 400
    },
    {
      "t": 1955.7,
      "ch": 6,
      "note": 61,
      "vel": 46,
      "dur": 526
    },
    {
      "t": 1955.7,
      "ch": 1,
      "note": 42,
      "vel": 75,
      "dur": 25
    },
    {
      "t": 1955.8,
      "ch": 1,
      "note": 36,
      "vel": 88,
      "dur": 25
    },
    {
      "t": 1955.8,
      "ch": 7,
      "note": 36,
      "vel": 55,
      "dur": 80
    },
    {
      "t": 1955.8,
      "ch": 5,
      "note": 66,
      "vel": 66,
      "dur": 790
    },
    {
      "t": 1955.8,
      "ch": 1,
      "note": 38,
      "vel": 99,
      "dur": 25
    },
    {
      "t": 1955.9,
      "ch": 1,
      "note": 40,
      "vel": 82,
      "dur": 25
    },
    {
      "t": 1956,
      "ch": 0,
      "note": 36,
      "vel": 93,
      "dur": 55
    },
    {
      "t": 1956,
      "ch": 1,
      "note": 42,
      "vel": 89,
      "dur": 25
    },
    {
      "t": 1956,
      "ch": 7,
      "note": 48,
      "vel": 63,
      "dur": 80
    },
    {
      "t": 1956,
      "ch": 7,
      "note": 36,
      "vel": 75,
      "dur": 80
    },
    {
      "t": 1956.1,
      "ch": 1,
      "note": 36,
      "vel": 88,
      "dur": 25
    },
    {
      "t": 1956.2,
      "ch": 6,
      "note": 64,
      "vel": 63,
      "dur": 527
    },
    {
      "t": 1956.2,
      "ch": 1,
      "note": 38,
      "vel": 92,
      "dur": 25
    },
    {
      "t": 1956.2,
      "ch": 7,
      "note": 38,
      "vel": 60,
      "dur": 80
    },
    {
      "t": 1956.2,
      "ch": 1,
      "note": 40,
      "vel": 99,
      "dur": 25
    },
    {
      "t": 1956.2,
      "ch": 7,
      "note": 45,
      "vel": 67,
      "dur": 80
    },
    {
      "t": 1956.3,
      "ch": 1,
      "note": 42,
      "vel": 87,
      "dur": 25
    },
    {
      "t": 1956.4,
      "ch": 1,
      "note": 36,
      "vel": 87,
      "dur": 25
    },
    {
      "t": 1956.4,
      "ch": 5,
      "note": 59,
      "vel": 90,
      "dur": 791
    },
    {
      "t": 1956.5,
      "ch": 1,
      "note": 38,
      "vel": 82,
      "dur": 25
    },
    {
      "t": 1956.5,
      "ch": 1,
      "note": 40,
      "vel": 79,
      "dur": 25
    },
    {
      "t": 1956.6,
      "ch": 0,
      "note": 36,
      "vel": 89,
      "dur": 55
    },
    {
      "t": 1956.6,
      "ch": 1,
      "note": 42,
      "vel": 95,
      "dur": 25
    },
    {
      "t": 1956.6,
      "ch": 7,
      "note": 48,
      "vel": 69,
      "dur": 80
    },
    {
      "t": 1956.6,
      "ch": 7,
      "note": 36,
      "vel": 82,
      "dur": 80
    },
    {
      "t": 1956.7,
      "ch": 1,
      "note": 36,
      "vel": 113,
      "dur": 25
    },
    {
      "t": 1956.7,
      "ch": 1,
      "note": 38,
      "vel": 91,
      "dur": 25
    },
    {
      "t": 1956.8,
      "ch": 1,
      "note": 40,
      "vel": 114,
      "dur": 25
    },
    {
      "t": 1956.9,
      "ch": 1,
      "note": 42,
      "vel": 89,
      "dur": 25
    },
    {
      "t": 1956.9,
      "ch": 7,
      "note": 45,
      "vel": 55,
      "dur": 80
    },
    {
      "t": 1956.9,
      "ch": 7,
      "note": 36,
      "vel": 65,
      "dur": 80
    },
    {
      "t": 1956.9,
      "ch": 7,
      "note": 38,
      "vel": 58,
      "dur": 80
    },
    {
      "t": 1957,
      "ch": 1,
      "note": 36,
      "vel": 71,
      "dur": 25
    },
    {
      "t": 1957.1,
      "ch": 1,
      "note": 38,
      "vel": 97,
      "dur": 25
    },
    {
      "t": 1957.1,
      "ch": 1,
      "note": 40,
      "vel": 73,
      "dur": 25
    },
    {
      "t": 1957.2,
      "ch": 0,
      "note": 36,
      "vel": 95,
      "dur": 55
    },
    {
      "t": 1957.2,
      "ch": 1,
      "note": 42,
      "vel": 112,
      "dur": 25
    },
    {
      "t": 1957.2,
      "ch": 7,
      "note": 48,
      "vel": 65,
      "dur": 80
    },
    {
      "t": 1957.2,
      "ch": 7,
      "note": 36,
      "vel": 70,
      "dur": 80
    },
    {
      "t": 1957.3,
      "ch": 1,
      "note": 36,
      "vel": 103,
      "dur": 25
    },
    {
      "t": 1957.3,
      "ch": 5,
      "note": 61,
      "vel": 76,
      "dur": 790
    },
    {
      "t": 1957.4,
      "ch": 1,
      "note": 38,
      "vel": 74,
      "dur": 25
    },
    {
      "t": 1957.4,
      "ch": 1,
      "note": 40,
      "vel": 83,
      "dur": 25
    },
    {
      "t": 1957.5,
      "ch": 1,
      "note": 42,
      "vel": 93,
      "dur": 25
    },
    {
      "t": 1957.5,
      "ch": 1,
      "note": 36,
      "vel": 74,
      "dur": 25
    },
    {
      "t": 1957.6,
      "ch": 1,
      "note": 38,
      "vel": 92,
      "dur": 25
    },
    {
      "t": 1957.7,
      "ch": 1,
      "note": 40,
      "vel": 86,
      "dur": 25
    },
    {
      "t": 1957.8,
      "ch": 0,
      "note": 36,
      "vel": 105,
      "dur": 55
    },
    {
      "t": 1957.8,
      "ch": 1,
      "note": 42,
      "vel": 101,
      "dur": 25
    },
    {
      "t": 1957.8,
      "ch": 7,
      "note": 48,
      "vel": 75,
      "dur": 80
    },
    {
      "t": 1957.8,
      "ch": 7,
      "note": 45,
      "vel": 72,
      "dur": 80
    },
    {
      "t": 1957.8,
      "ch": 7,
      "note": 36,
      "vel": 70,
      "dur": 80
    },
    {
      "t": 1957.8,
      "ch": 7,
      "note": 38,
      "vel": 67,
      "dur": 80
    },
    {
      "t": 1957.9,
      "ch": 1,
      "note": 36,
      "vel": 113,
      "dur": 25
    },
    {
      "t": 1958,
      "ch": 1,
      "note": 38,
      "vel": 84,
      "dur": 25
    },
    {
      "t": 1958,
      "ch": 1,
      "note": 40,
      "vel": 87,
      "dur": 25
    },
    {
      "t": 1958.1,
      "ch": 1,
      "note": 42,
      "vel": 101,
      "dur": 25
    },
    {
      "t": 1958.2,
      "ch": 1,
      "note": 36,
      "vel": 93,
      "dur": 25
    },
    {
      "t": 1958.2,
      "ch": 7,
      "note": 36,
      "vel": 58,
      "dur": 80
    },
    {
      "t": 1958.3,
      "ch": 1,
      "note": 38,
      "vel": 98,
      "dur": 25
    },
    {
      "t": 1958.3,
      "ch": 1,
      "note": 40,
      "vel": 98,
      "dur": 25
    },
    {
      "t": 1958.4,
      "ch": 0,
      "note": 36,
      "vel": 93,
      "dur": 55
    },
    {
      "t": 1958.4,
      "ch": 1,
      "note": 42,
      "vel": 88,
      "dur": 25
    },
    {
      "t": 1958.4,
      "ch": 7,
      "note": 48,
      "vel": 65,
      "dur": 80
    },
    {
      "t": 1958.4,
      "ch": 7,
      "note": 36,
      "vel": 67,
      "dur": 80
    },
    {
      "t": 1958.4,
      "ch": 1,
      "note": 36,
      "vel": 104,
      "dur": 25
    },
    {
      "t": 1958.6,
      "ch": 1,
      "note": 38,
      "vel": 73,
      "dur": 25
    },
    {
      "t": 1958.6,
      "ch": 7,
      "note": 38,
      "vel": 62,
      "dur": 80
    },
    {
      "t": 1958.6,
      "ch": 7,
      "note": 45,
      "vel": 60,
      "dur": 80
    },
    {
      "t": 1958.6,
      "ch": 1,
      "note": 40,
      "vel": 99,
      "dur": 25
    },
    {
      "t": 1958.7,
      "ch": 1,
      "note": 42,
      "vel": 94,
      "dur": 25
    },
    {
      "t": 1958.8,
      "ch": 1,
      "note": 36,
      "vel": 78,
      "dur": 25
    },
    {
      "t": 1958.9,
      "ch": 1,
      "note": 38,
      "vel": 83,
      "dur": 25
    },
    {
      "t": 1958.9,
      "ch": 5,
      "note": 68,
      "vel": 43,
      "dur": 787
    },
    {
      "t": 1958.9,
      "ch": 1,
      "note": 40,
      "vel": 101,
      "dur": 25
    },
    {
      "t": 1959,
      "ch": 4,
      "note": 64,
      "vel": 41,
      "dur": 5264
    },
    {
      "t": 1959.1,
      "ch": 0,
      "note": 36,
      "vel": 83,
      "dur": 55
    },
    {
      "t": 1959.1,
      "ch": 1,
      "note": 42,
      "vel": 122,
      "dur": 25
    },
    {
      "t": 1959.1,
      "ch": 7,
      "note": 48,
      "vel": 73,
      "dur": 80
    },
    {
      "t": 1959.1,
      "ch": 7,
      "note": 36,
      "vel": 75,
      "dur": 80
    },
    {
      "t": 1959.1,
      "ch": 1,
      "note": 36,
      "vel": 115,
      "dur": 25
    },
    {
      "t": 1959.2,
      "ch": 1,
      "note": 38,
      "vel": 98,
      "dur": 25
    },
    {
      "t": 1959.3,
      "ch": 1,
      "note": 40,
      "vel": 103,
      "dur": 25
    },
    {
      "t": 1959.4,
      "ch": 1,
      "note": 42,
      "vel": 91,
      "dur": 25
    },
    {
      "t": 1959.4,
      "ch": 7,
      "note": 45,
      "vel": 67,
      "dur": 80
    },
    {
      "t": 1959.4,
      "ch": 7,
      "note": 36,
      "vel": 54,
      "dur": 80
    },
    {
      "t": 1959.4,
      "ch": 7,
      "note": 38,
      "vel": 69,
      "dur": 80
    },
    {
      "t": 1959.4,
      "ch": 1,
      "note": 36,
      "vel": 99,
      "dur": 25
    },
    {
      "t": 1959.5,
      "ch": 1,
      "note": 38,
      "vel": 80,
      "dur": 25
    },
    {
      "t": 1959.6,
      "ch": 1,
      "note": 40,
      "vel": 93,
      "dur": 25
    },
    {
      "t": 1959.7,
      "ch": 0,
      "note": 36,
      "vel": 90,
      "dur": 55
    },
    {
      "t": 1959.7,
      "ch": 1,
      "note": 42,
      "vel": 94,
      "dur": 25
    },
    {
      "t": 1959.7,
      "ch": 7,
      "note": 48,
      "vel": 76,
      "dur": 80
    },
    {
      "t": 1959.7,
      "ch": 7,
      "note": 36,
      "vel": 75,
      "dur": 80
    },
    {
      "t": 1959.8,
      "ch": 1,
      "note": 36,
      "vel": 89,
      "dur": 25
    },
    {
      "t": 1959.9,
      "ch": 1,
      "note": 38,
      "vel": 92,
      "dur": 25
    },
    {
      "t": 1960,
      "ch": 1,
      "note": 40,
      "vel": 85,
      "dur": 25
    },
    {
      "t": 1960.1,
      "ch": 1,
      "note": 42,
      "vel": 85,
      "dur": 25
    },
    {
      "t": 1960.1,
      "ch": 1,
      "note": 36,
      "vel": 96,
      "dur": 25
    },
    {
      "t": 1960.2,
      "ch": 1,
      "note": 38,
      "vel": 85,
      "dur": 25
    },
    {
      "t": 1960.3,
      "ch": 1,
      "note": 40,
      "vel": 86,
      "dur": 25
    },
    {
      "t": 1960.4,
      "ch": 0,
      "note": 36,
      "vel": 120,
      "dur": 55
    },
    {
      "t": 1960.4,
      "ch": 1,
      "note": 42,
      "vel": 104,
      "dur": 25
    },
    {
      "t": 1960.4,
      "ch": 7,
      "note": 48,
      "vel": 69,
      "dur": 80
    },
    {
      "t": 1960.4,
      "ch": 7,
      "note": 45,
      "vel": 64,
      "dur": 80
    },
    {
      "t": 1960.4,
      "ch": 7,
      "note": 36,
      "vel": 73,
      "dur": 80
    },
    {
      "t": 1960.4,
      "ch": 7,
      "note": 38,
      "vel": 60,
      "dur": 80
    },
    {
      "t": 1960.4,
      "ch": 5,
      "note": 73,
      "vel": 52,
      "dur": 780
    },
    {
      "t": 1960.5,
      "ch": 1,
      "note": 36,
      "vel": 94,
      "dur": 25
    },
    {
      "t": 1960.6,
      "ch": 1,
      "note": 38,
      "vel": 88,
      "dur": 25
    },
    {
      "t": 1960.7,
      "ch": 1,
      "note": 40,
      "vel": 102,
      "dur": 25
    },
    {
      "t": 1960.8,
      "ch": 1,
      "note": 42,
      "vel": 86,
      "dur": 25
    },
    {
      "t": 1960.8,
      "ch": 7,
      "note": 36,
      "vel": 60,
      "dur": 80
    },
    {
      "t": 1960.8,
      "ch": 1,
      "note": 36,
      "vel": 85,
      "dur": 25
    },
    {
      "t": 1960.9,
      "ch": 1,
      "note": 38,
      "vel": 90,
      "dur": 25
    },
    {
      "t": 1961,
      "ch": 1,
      "note": 40,
      "vel": 92,
      "dur": 25
    },
    {
      "t": 1961.1,
      "ch": 0,
      "note": 36,
      "vel": 93,
      "dur": 55
    },
    {
      "t": 1961.1,
      "ch": 1,
      "note": 42,
      "vel": 120,
      "dur": 25
    },
    {
      "t": 1961.1,
      "ch": 7,
      "note": 48,
      "vel": 79,
      "dur": 80
    },
    {
      "t": 1961.1,
      "ch": 7,
      "note": 36,
      "vel": 70,
      "dur": 80
    },
    {
      "t": 1961.2,
      "ch": 1,
      "note": 36,
      "vel": 84,
      "dur": 25
    },
    {
      "t": 1961.3,
      "ch": 1,
      "note": 38,
      "vel": 85,
      "dur": 25
    },
    {
      "t": 1961.3,
      "ch": 7,
      "note": 38,
      "vel": 69,
      "dur": 80
    },
    {
      "t": 1961.3,
      "ch": 7,
      "note": 45,
      "vel": 63,
      "dur": 80
    },
    {
      "t": 1961.3,
      "ch": 5,
      "note": 68,
      "vel": 44,
      "dur": 775
    },
    {
      "t": 1961.4,
      "ch": 1,
      "note": 40,
      "vel": 99,
      "dur": 25
    },
    {
      "t": 1961.5,
      "ch": 1,
      "note": 42,
      "vel": 88,
      "dur": 25
    },
    {
      "t": 1961.5,
      "ch": 1,
      "note": 36,
      "vel": 81,
      "dur": 25
    },
    {
      "t": 1961.7,
      "ch": 1,
      "note": 38,
      "vel": 81,
      "dur": 25
    },
    {
      "t": 1961.7,
      "ch": 1,
      "note": 40,
      "vel": 109,
      "dur": 25
    },
    {
      "t": 1961.8,
      "ch": 6,
      "note": 72,
      "vel": 55,
      "dur": 400
    },
    {
      "t": 1961.8,
      "ch": 0,
      "note": 36,
      "vel": 87,
      "dur": 55
    },
    {
      "t": 1961.8,
      "ch": 1,
      "note": 42,
      "vel": 89,
      "dur": 25
    },
    {
      "t": 1961.8,
      "ch": 7,
      "note": 48,
      "vel": 61,
      "dur": 80
    },
    {
      "t": 1961.8,
      "ch": 7,
      "note": 36,
      "vel": 71,
      "dur": 80
    },
    {
      "t": 1961.9,
      "ch": 1,
      "note": 36,
      "vel": 98,
      "dur": 25
    },
    {
      "t": 1962,
      "ch": 1,
      "note": 38,
      "vel": 93,
      "dur": 25
    },
    {
      "t": 1962.1,
      "ch": 1,
      "note": 40,
      "vel": 93,
      "dur": 25
    },
    {
      "t": 1962.2,
      "ch": 1,
      "note": 42,
      "vel": 98,
      "dur": 25
    },
    {
      "t": 1962.2,
      "ch": 7,
      "note": 45,
      "vel": 54,
      "dur": 80
    },
    {
      "t": 1962.2,
      "ch": 7,
      "note": 38,
      "vel": 59,
      "dur": 80
    },
    {
      "t": 1962.2,
      "ch": 7,
      "note": 36,
      "vel": 62,
      "dur": 80
    },
    {
      "t": 1962.3,
      "ch": 1,
      "note": 36,
      "vel": 90,
      "dur": 25
    },
    {
      "t": 1962.4,
      "ch": 1,
      "note": 38,
      "vel": 80,
      "dur": 25
    },
    {
      "t": 1962.4,
      "ch": 4,
      "note": 64,
      "vel": 46,
      "dur": 2849
    },
    {
      "t": 1962.4,
      "ch": 3,
      "note": 40,
      "vel": 49,
      "dur": 2899
    },
    {
      "t": 1962.4,
      "ch": 1,
      "note": 40,
      "vel": 111,
      "dur": 25
    },
    {
      "t": 1962.6,
      "ch": 0,
      "note": 36,
      "vel": 88,
      "dur": 55
    },
    {
      "t": 1962.6,
      "ch": 1,
      "note": 42,
      "vel": 87,
      "dur": 25
    },
    {
      "t": 1962.6,
      "ch": 7,
      "note": 48,
      "vel": 82,
      "dur": 80
    },
    {
      "t": 1962.6,
      "ch": 7,
      "note": 36,
      "vel": 86,
      "dur": 80
    },
    {
      "t": 1962.6,
      "ch": 1,
      "note": 36,
      "vel": 109,
      "dur": 25
    },
    {
      "t": 1962.8,
      "ch": 1,
      "note": 38,
      "vel": 105,
      "dur": 25
    },
    {
      "t": 1962.8,
      "ch": 1,
      "note": 40,
      "vel": 95,
      "dur": 25
    },
    {
      "t": 1962.9,
      "ch": 1,
      "note": 42,
      "vel": 106,
      "dur": 25
    },
    {
      "t": 1963,
      "ch": 1,
      "note": 36,
      "vel": 85,
      "dur": 25
    },
    {
      "t": 1963.1,
      "ch": 1,
      "note": 38,
      "vel": 83,
      "dur": 25
    },
    {
      "t": 1963.2,
      "ch": 1,
      "note": 40,
      "vel": 94,
      "dur": 25
    },
    {
      "t": 1963.3,
      "ch": 0,
      "note": 36,
      "vel": 117,
      "dur": 55
    },
    {
      "t": 1963.3,
      "ch": 1,
      "note": 42,
      "vel": 99,
      "dur": 25
    },
    {
      "t": 1963.3,
      "ch": 7,
      "note": 48,
      "vel": 66,
      "dur": 80
    },
    {
      "t": 1963.3,
      "ch": 7,
      "note": 45,
      "vel": 67,
      "dur": 80
    },
    {
      "t": 1963.3,
      "ch": 7,
      "note": 36,
      "vel": 70,
      "dur": 80
    },
    {
      "t": 1963.3,
      "ch": 7,
      "note": 38,
      "vel": 71,
      "dur": 80
    },
    {
      "t": 1963.4,
      "ch": 1,
      "note": 36,
      "vel": 93,
      "dur": 25
    },
    {
      "t": 1963.5,
      "ch": 1,
      "note": 38,
      "vel": 73,
      "dur": 25
    },
    {
      "t": 1963.5,
      "ch": 1,
      "note": 40,
      "vel": 89,
      "dur": 25
    },
    {
      "t": 1963.7,
      "ch": 1,
      "note": 42,
      "vel": 102,
      "dur": 25
    },
    {
      "t": 1963.7,
      "ch": 7,
      "note": 36,
      "vel": 65,
      "dur": 80
    },
    {
      "t": 1963.7,
      "ch": 1,
      "note": 36,
      "vel": 111,
      "dur": 25
    },
    {
      "t": 1963.8,
      "ch": 1,
      "note": 38,
      "vel": 101,
      "dur": 25
    },
    {
      "t": 1963.9,
      "ch": 1,
      "note": 40,
      "vel": 86,
      "dur": 25
    },
    {
      "t": 1964,
      "ch": 0,
      "note": 36,
      "vel": 91,
      "dur": 55
    },
    {
      "t": 1964,
      "ch": 1,
      "note": 42,
      "vel": 83,
      "dur": 25
    },
    {
      "t": 1964,
      "ch": 7,
      "note": 48,
      "vel": 68,
      "dur": 80
    },
    {
      "t": 1964,
      "ch": 7,
      "note": 36,
      "vel": 74,
      "dur": 80
    },
    {
      "t": 1964.1,
      "ch": 1,
      "note": 36,
      "vel": 122,
      "dur": 25
    },
    {
      "t": 1964.2,
      "ch": 1,
      "note": 38,
      "vel": 72,
      "dur": 25
    },
    {
      "t": 1964.2,
      "ch": 7,
      "note": 38,
      "vel": 68,
      "dur": 80
    },
    {
      "t": 1964.2,
      "ch": 7,
      "note": 45,
      "vel": 75,
      "dur": 80
    },
    {
      "t": 1964.3,
      "ch": 1,
      "note": 40,
      "vel": 78,
      "dur": 25
    },
    {
      "t": 1964.4,
      "ch": 1,
      "note": 42,
      "vel": 77,
      "dur": 25
    },
    {
      "t": 1964.4,
      "ch": 1,
      "note": 36,
      "vel": 70,
      "dur": 25
    },
    {
      "t": 1964.6,
      "ch": 1,
      "note": 38,
      "vel": 77,
      "dur": 25
    },
    {
      "t": 1964.6,
      "ch": 1,
      "note": 40,
      "vel": 81,
      "dur": 25
    },
    {
      "t": 1964.7,
      "ch": 2,
      "note": 54,
      "vel": 0,
      "dur": 0
    },
    {
      "t": 1964.7,
      "ch": 2,
      "note": 52,
      "vel": 57,
      "dur": 21906
    },
    {
      "t": 1964.7,
      "ch": 2,
      "note": 64,
      "vel": 40,
      "dur": 21906
    },
    {
      "t": 1964.7,
      "ch": 4,
      "note": 62,
      "vel": 50,
      "dur": 2870
    },
    {
      "t": 1964.7,
      "ch": 3,
      "note": 43,
      "vel": 51,
      "dur": 2920
    },
    {
      "t": 1964.8,
      "ch": 0,
      "note": 36,
      "vel": 96,
      "dur": 55
    },
    {
      "t": 1964.8,
      "ch": 1,
      "note": 42,
      "vel": 112,
      "dur": 25
    },
    {
      "t": 1964.8,
      "ch": 7,
      "note": 48,
      "vel": 57,
      "dur": 80
    },
    {
      "t": 1964.8,
      "ch": 7,
      "note": 36,
      "vel": 77,
      "dur": 80
    },
    {
      "t": 1964.8,
      "ch": 1,
      "note": 36,
      "vel": 119,
      "dur": 25
    },
    {
      "t": 1964.9,
      "ch": 1,
      "note": 38,
      "vel": 81,
      "dur": 25
    },
    {
      "t": 1965,
      "ch": 1,
      "note": 40,
      "vel": 110,
      "dur": 25
    },
    {
      "t": 1965.1,
      "ch": 1,
      "note": 42,
      "vel": 90,
      "dur": 25
    },
    {
      "t": 1965.1,
      "ch": 7,
      "note": 38,
      "vel": 71,
      "dur": 80
    },
    {
      "t": 1965.1,
      "ch": 7,
      "note": 45,
      "vel": 57,
      "dur": 80
    },
    {
      "t": 1965.1,
      "ch": 7,
      "note": 36,
      "vel": 58,
      "dur": 80
    },
    {
      "t": 1965.1,
      "ch": 6,
      "note": 64,
      "vel": 31,
      "dur": 502
    },
    {
      "t": 1965.2,
      "ch": 1,
      "note": 36,
      "vel": 106,
      "dur": 25
    },
    {
      "t": 1965.3,
      "ch": 1,
      "note": 38,
      "vel": 85,
      "dur": 25
    },
    {
      "t": 1965.4,
      "ch": 1,
      "note": 40,
      "vel": 84,
      "dur": 25
    },
    {
      "t": 1965.5,
      "ch": 0,
      "note": 36,
      "vel": 91,
      "dur": 55
    },
    {
      "t": 1965.5,
      "ch": 1,
      "note": 42,
      "vel": 91,
      "dur": 25
    },
    {
      "t": 1965.5,
      "ch": 7,
      "note": 48,
      "vel": 71,
      "dur": 80
    },
    {
      "t": 1965.5,
      "ch": 7,
      "note": 36,
      "vel": 68,
      "dur": 80
    },
    {
      "t": 1965.6,
      "ch": 1,
      "note": 36,
      "vel": 121,
      "dur": 25
    },
    {
      "t": 1965.7,
      "ch": 1,
      "note": 38,
      "vel": 104,
      "dur": 25
    },
    {
      "t": 1965.7,
      "ch": 5,
      "note": 66,
      "vel": 53,
      "dur": 751
    },
    {
      "t": 1965.7,
      "ch": 1,
      "note": 40,
      "vel": 61,
      "dur": 25
    },
    {
      "t": 1965.9,
      "ch": 1,
      "note": 42,
      "vel": 90,
      "dur": 25
    },
    {
      "t": 1965.9,
      "ch": 1,
      "note": 36,
      "vel": 95,
      "dur": 25
    },
    {
      "t": 1966,
      "ch": 1,
      "note": 38,
      "vel": 71,
      "dur": 25
    },
    {
      "t": 1966,
      "ch": 0,
      "note": 36,
      "vel": 71,
      "dur": 55
    },
    {
      "t": 1966.1,
      "ch": 1,
      "note": 40,
      "vel": 69,
      "dur": 25
    },
    {
      "t": 1966.2,
      "ch": 0,
      "note": 36,
      "vel": 108,
      "dur": 55
    },
    {
      "t": 1966.2,
      "ch": 1,
      "note": 42,
      "vel": 115,
      "dur": 25
    },
    {
      "t": 1966.2,
      "ch": 7,
      "note": 48,
      "vel": 79,
      "dur": 80
    },
    {
      "t": 1966.2,
      "ch": 7,
      "note": 45,
      "vel": 58,
      "dur": 80
    },
    {
      "t": 1966.2,
      "ch": 7,
      "note": 36,
      "vel": 69,
      "dur": 80
    },
    {
      "t": 1966.2,
      "ch": 7,
      "note": 38,
      "vel": 63,
      "dur": 80
    },
    {
      "t": 1966.2,
      "ch": 5,
      "note": 59,
      "vel": 38,
      "dur": 749
    },
    {
      "t": 1966.3,
      "ch": 1,
      "note": 36,
      "vel": 123,
      "dur": 25
    },
    {
      "t": 1966.4,
      "ch": 1,
      "note": 38,
      "vel": 74,
      "dur": 25
    },
    {
      "t": 1966.5,
      "ch": 1,
      "note": 40,
      "vel": 89,
      "dur": 25
    },
    {
      "t": 1966.6,
      "ch": 1,
      "note": 42,
      "vel": 90,
      "dur": 25
    },
    {
      "t": 1966.6,
      "ch": 7,
      "note": 36,
      "vel": 68,
      "dur": 80
    },
    {
      "t": 1966.6,
      "ch": 1,
      "note": 36,
      "vel": 91,
      "dur": 25
    },
    {
      "t": 1966.8,
      "ch": 1,
      "note": 38,
      "vel": 78,
      "dur": 25
    },
    {
      "t": 1966.8,
      "ch": 1,
      "note": 40,
      "vel": 85,
      "dur": 25
    },
    {
      "t": 1966.9,
      "ch": 0,
      "note": 36,
      "vel": 95,
      "dur": 55
    },
    {
      "t": 1966.9,
      "ch": 1,
      "note": 42,
      "vel": 100,
      "dur": 25
    },
    {
      "t": 1966.9,
      "ch": 7,
      "note": 48,
      "vel": 68,
      "dur": 80
    },
    {
      "t": 1966.9,
      "ch": 7,
      "note": 36,
      "vel": 88,
      "dur": 80
    },
    {
      "t": 1967,
      "ch": 1,
      "note": 36,
      "vel": 89,
      "dur": 25
    },
    {
      "t": 1967.1,
      "ch": 1,
      "note": 38,
      "vel": 96,
      "dur": 25
    },
    {
      "t": 1967.1,
      "ch": 7,
      "note": 45,
      "vel": 64,
      "dur": 80
    },
    {
      "t": 1967.1,
      "ch": 7,
      "note": 38,
      "vel": 68,
      "dur": 80
    },
    {
      "t": 1967.2,
      "ch": 1,
      "note": 40,
      "vel": 89,
      "dur": 25
    },
    {
      "t": 1967.3,
      "ch": 1,
      "note": 42,
      "vel": 87,
      "dur": 25
    },
    {
      "t": 1967.4,
      "ch": 1,
      "note": 36,
      "vel": 66,
      "dur": 25
    },
    {
      "t": 1967.5,
      "ch": 1,
      "note": 38,
      "vel": 82,
      "dur": 25
    },
    {
      "t": 1967.6,
      "ch": 1,
      "note": 40,
      "vel": 95,
      "dur": 25
    },
    {
      "t": 1967.6,
      "ch": 4,
      "note": 57,
      "vel": 48,
      "dur": 2876
    },
    {
      "t": 1967.6,
      "ch": 3,
      "note": 36,
      "vel": 52,
      "dur": 2926
    },
    {
      "t": 1967.7,
      "ch": 0,
      "note": 36,
      "vel": 93,
      "dur": 55
    },
    {
      "t": 1967.7,
      "ch": 1,
      "note": 42,
      "vel": 98,
      "dur": 25
    },
    {
      "t": 1967.7,
      "ch": 7,
      "note": 48,
      "vel": 71,
      "dur": 80
    },
    {
      "t": 1967.7,
      "ch": 7,
      "note": 36,
      "vel": 70,
      "dur": 80
    },
    {
      "t": 1967.7,
      "ch": 1,
      "note": 36,
      "vel": 113,
      "dur": 25
    },
    {
      "t": 1967.9,
      "ch": 1,
      "note": 38,
      "vel": 109,
      "dur": 25
    },
    {
      "t": 1967.9,
      "ch": 1,
      "note": 40,
      "vel": 86,
      "dur": 25
    },
    {
      "t": 1968,
      "ch": 1,
      "note": 42,
      "vel": 78,
      "dur": 25
    },
    {
      "t": 1968,
      "ch": 7,
      "note": 36,
      "vel": 64,
      "dur": 80
    },
    {
      "t": 1968,
      "ch": 7,
      "note": 38,
      "vel": 51,
      "dur": 80
    },
    {
      "t": 1968,
      "ch": 7,
      "note": 45,
      "vel": 72,
      "dur": 80
    },
    {
      "t": 1968.1,
      "ch": 1,
      "note": 36,
      "vel": 99,
      "dur": 25
    },
    {
      "t": 1968.2,
      "ch": 1,
      "note": 38,
      "vel": 62,
      "dur": 25
    },
    {
      "t": 1968.3,
      "ch": 1,
      "note": 40,
      "vel": 73,
      "dur": 25
    },
    {
      "t": 1968.4,
      "ch": 0,
      "note": 36,
      "vel": 86,
      "dur": 55
    },
    {
      "t": 1968.4,
      "ch": 1,
      "note": 42,
      "vel": 90,
      "dur": 25
    },
    {
      "t": 1968.4,
      "ch": 7,
      "note": 48,
      "vel": 63,
      "dur": 80
    },
    {
      "t": 1968.4,
      "ch": 7,
      "note": 36,
      "vel": 64,
      "dur": 80
    },
    {
      "t": 1968.5,
      "ch": 1,
      "note": 36,
      "vel": 108,
      "dur": 25
    },
    {
      "t": 1968.6,
      "ch": 1,
      "note": 38,
      "vel": 100,
      "dur": 25
    },
    {
      "t": 1968.6,
      "ch": 6,
      "note": 60,
      "vel": 49,
      "dur": 498
    },
    {
      "t": 1968.7,
      "ch": 1,
      "note": 40,
      "vel": 92,
      "dur": 25
    },
    {
      "t": 1968.8,
      "ch": 1,
      "note": 42,
      "vel": 78,
      "dur": 25
    },
    {
      "t": 1968.8,
      "ch": 1,
      "note": 36,
      "vel": 78,
      "dur": 25
    },
    {
      "t": 1969,
      "ch": 1,
      "note": 38,
      "vel": 89,
      "dur": 25
    },
    {
      "t": 1969,
      "ch": 1,
      "note": 40,
      "vel": 68,
      "dur": 25
    },
    {
      "t": 1969.1,
      "ch": 0,
      "note": 36,
      "vel": 108,
      "dur": 55
    },
    {
      "t": 1969.1,
      "ch": 1,
      "note": 42,
      "vel": 109,
      "dur": 25
    },
    {
      "t": 1969.1,
      "ch": 7,
      "note": 48,
      "vel": 69,
      "dur": 80
    },
    {
      "t": 1969.1,
      "ch": 7,
      "note": 45,
      "vel": 74,
      "dur": 80
    },
    {
      "t": 1969.1,
      "ch": 7,
      "note": 36,
      "vel": 76,
      "dur": 80
    },
    {
      "t": 1969.1,
      "ch": 7,
      "note": 38,
      "vel": 71,
      "dur": 80
    },
    {
      "t": 1969.2,
      "ch": 6,
      "note": 59,
      "vel": 49,
      "dur": 499
    },
    {
      "t": 1969.2,
      "ch": 1,
      "note": 36,
      "vel": 91,
      "dur": 25
    },
    {
      "t": 1969.3,
      "ch": 1,
      "note": 38,
      "vel": 103,
      "dur": 25
    },
    {
      "t": 1969.4,
      "ch": 1,
      "note": 40,
      "vel": 101,
      "dur": 25
    },
    {
      "t": 1969.5,
      "ch": 1,
      "note": 42,
      "vel": 83,
      "dur": 25
    },
    {
      "t": 1969.5,
      "ch": 7,
      "note": 36,
      "vel": 59,
      "dur": 80
    },
    {
      "t": 1969.6,
      "ch": 1,
      "note": 36,
      "vel": 90,
      "dur": 25
    },
    {
      "t": 1969.7,
      "ch": 1,
      "note": 38,
      "vel": 93,
      "dur": 25
    },
    {
      "t": 1969.8,
      "ch": 1,
      "note": 40,
      "vel": 87,
      "dur": 25
    },
    {
      "t": 1969.9,
      "ch": 0,
      "note": 36,
      "vel": 90,
      "dur": 55
    },
    {
      "t": 1969.9,
      "ch": 1,
      "note": 42,
      "vel": 81,
      "dur": 25
    },
    {
      "t": 1969.9,
      "ch": 7,
      "note": 48,
      "vel": 62,
      "dur": 80
    },
    {
      "t": 1969.9,
      "ch": 7,
      "note": 36,
      "vel": 55,
      "dur": 80
    },
    {
      "t": 1969.9,
      "ch": 5,
      "note": 61,
      "vel": 57,
      "dur": 750
    },
    {
      "t": 1969.9,
      "ch": 1,
      "note": 36,
      "vel": 82,
      "dur": 25
    },
    {
      "t": 1970.1,
      "ch": 1,
      "note": 38,
      "vel": 101,
      "dur": 25
    },
    {
      "t": 1970.1,
      "ch": 7,
      "note": 45,
      "vel": 70,
      "dur": 80
    },
    {
      "t": 1970.1,
      "ch": 7,
      "note": 38,
      "vel": 64,
      "dur": 80
    },
    {
      "t": 1970.1,
      "ch": 1,
      "note": 40,
      "vel": 91,
      "dur": 25
    },
    {
      "t": 1970.2,
      "ch": 6,
      "note": 64,
      "vel": 38,
      "dur": 400
    },
    {
      "t": 1970.2,
      "ch": 1,
      "note": 42,
      "vel": 99,
      "dur": 25
    },
    {
      "t": 1970.3,
      "ch": 1,
      "note": 36,
      "vel": 106,
      "dur": 25
    },
    {
      "t": 1970.4,
      "ch": 1,
      "note": 38,
      "vel": 76,
      "dur": 25
    },
    {
      "t": 1970.5,
      "ch": 1,
      "note": 40,
      "vel": 86,
      "dur": 25
    },
    {
      "t": 1970.5,
      "ch": 4,
      "note": 59,
      "vel": 50,
      "dur": 2876
    },
    {
      "t": 1970.5,
      "ch": 3,
      "note": 40,
      "vel": 52,
      "dur": 2926
    },
    {
      "t": 1970.6,
      "ch": 0,
      "note": 36,
      "vel": 93,
      "dur": 55
    },
    {
      "t": 1970.6,
      "ch": 1,
      "note": 42,
      "vel": 108,
      "dur": 25
    },
    {
      "t": 1970.6,
      "ch": 7,
      "note": 48,
      "vel": 74,
      "dur": 80
    },
    {
      "t": 1970.6,
      "ch": 7,
      "note": 36,
      "vel": 74,
      "dur": 80
    },
    {
      "t": 1970.7,
      "ch": 1,
      "note": 36,
      "vel": 109,
      "dur": 25
    },
    {
      "t": 1970.8,
      "ch": 1,
      "note": 38,
      "vel": 92,
      "dur": 25
    },
    {
      "t": 1970.9,
      "ch": 1,
      "note": 40,
      "vel": 80,
      "dur": 25
    },
    {
      "t": 1971,
      "ch": 1,
      "note": 42,
      "vel": 102,
      "dur": 25
    },
    {
      "t": 1971,
      "ch": 7,
      "note": 38,
      "vel": 65,
      "dur": 80
    },
    {
      "t": 1971,
      "ch": 7,
      "note": 45,
      "vel": 57,
      "dur": 80
    },
    {
      "t": 1971,
      "ch": 7,
      "note": 36,
      "vel": 55,
      "dur": 80
    },
    {
      "t": 1971,
      "ch": 1,
      "note": 36,
      "vel": 95,
      "dur": 25
    },
    {
      "t": 1971.2,
      "ch": 1,
      "note": 38,
      "vel": 72,
      "dur": 25
    },
    {
      "t": 1971.2,
      "ch": 1,
      "note": 40,
      "vel": 96,
      "dur": 25
    },
    {
      "t": 1971.3,
      "ch": 0,
      "note": 36,
      "vel": 88,
      "dur": 55
    },
    {
      "t": 1971.3,
      "ch": 1,
      "note": 42,
      "vel": 106,
      "dur": 25
    },
    {
      "t": 1971.3,
      "ch": 7,
      "note": 48,
      "vel": 66,
      "dur": 80
    },
    {
      "t": 1971.3,
      "ch": 7,
      "note": 36,
      "vel": 77,
      "dur": 80
    },
    {
      "t": 1971.4,
      "ch": 1,
      "note": 36,
      "vel": 116,
      "dur": 25
    },
    {
      "t": 1971.5,
      "ch": 1,
      "note": 38,
      "vel": 81,
      "dur": 25
    },
    {
      "t": 1971.6,
      "ch": 1,
      "note": 40,
      "vel": 97,
      "dur": 25
    },
    {
      "t": 1971.7,
      "ch": 1,
      "note": 42,
      "vel": 110,
      "dur": 25
    },
    {
      "t": 1971.8,
      "ch": 1,
      "note": 36,
      "vel": 83,
      "dur": 25
    },
    {
      "t": 1971.9,
      "ch": 1,
      "note": 38,
      "vel": 103,
      "dur": 25
    },
    {
      "t": 1971.9,
      "ch": 1,
      "note": 40,
      "vel": 94,
      "dur": 25
    },
    {
      "t": 1972.1,
      "ch": 0,
      "note": 36,
      "vel": 115,
      "dur": 55
    },
    {
      "t": 1972.1,
      "ch": 1,
      "note": 42,
      "vel": 120,
      "dur": 25
    },
    {
      "t": 1972.1,
      "ch": 7,
      "note": 48,
      "vel": 64,
      "dur": 80
    },
    {
      "t": 1972.1,
      "ch": 7,
      "note": 45,
      "vel": 70,
      "dur": 80
    },
    {
      "t": 1972.1,
      "ch": 7,
      "note": 36,
      "vel": 72,
      "dur": 80
    },
    {
      "t": 1972.1,
      "ch": 7,
      "note": 38,
      "vel": 67,
      "dur": 80
    },
    {
      "t": 1972.1,
      "ch": 1,
      "note": 36,
      "vel": 101,
      "dur": 25
    },
    {
      "t": 1972.3,
      "ch": 1,
      "note": 38,
      "vel": 101,
      "dur": 25
    },
    {
      "t": 1972.3,
      "ch": 1,
      "note": 40,
      "vel": 81,
      "dur": 25
    },
    {
      "t": 1972.4,
      "ch": 1,
      "note": 42,
      "vel": 78,
      "dur": 25
    },
    {
      "t": 1972.4,
      "ch": 7,
      "note": 36,
      "vel": 60,
      "dur": 80
    },
    {
      "t": 1972.5,
      "ch": 1,
      "note": 36,
      "vel": 107,
      "dur": 25
    },
    {
      "t": 1972.6,
      "ch": 1,
      "note": 38,
      "vel": 96,
      "dur": 25
    },
    {
      "t": 1972.7,
      "ch": 1,
      "note": 40,
      "vel": 92,
      "dur": 25
    },
    {
      "t": 1972.8,
      "ch": 0,
      "note": 36,
      "vel": 92,
      "dur": 55
    },
    {
      "t": 1972.8,
      "ch": 1,
      "note": 42,
      "vel": 115,
      "dur": 25
    },
    {
      "t": 1972.8,
      "ch": 7,
      "note": 48,
      "vel": 71,
      "dur": 80
    },
    {
      "t": 1972.8,
      "ch": 7,
      "note": 36,
      "vel": 73,
      "dur": 80
    },
    {
      "t": 1972.9,
      "ch": 1,
      "note": 36,
      "vel": 108,
      "dur": 25
    },
    {
      "t": 1973,
      "ch": 1,
      "note": 38,
      "vel": 113,
      "dur": 25
    },
    {
      "t": 1973,
      "ch": 7,
      "note": 38,
      "vel": 52,
      "dur": 80
    },
    {
      "t": 1973,
      "ch": 7,
      "note": 45,
      "vel": 64,
      "dur": 80
    },
    {
      "t": 1973,
      "ch": 1,
      "note": 40,
      "vel": 95,
      "dur": 25
    },
    {
      "t": 1973.2,
      "ch": 1,
      "note": 42,
      "vel": 85,
      "dur": 25
    },
    {
      "t": 1973.2,
      "ch": 1,
      "note": 36,
      "vel": 103,
      "dur": 25
    },
    {
      "t": 1973.3,
      "ch": 1,
      "note": 38,
      "vel": 83,
      "dur": 25
    },
    {
      "t": 1973.4,
      "ch": 1,
      "note": 40,
      "vel": 73,
      "dur": 25
    },
    {
      "t": 1973.5,
      "ch": 0,
      "note": 36,
      "vel": 92,
      "dur": 55
    },
    {
      "t": 1973.5,
      "ch": 1,
      "note": 42,
      "vel": 94,
      "dur": 25
    },
    {
      "t": 1973.5,
      "ch": 7,
      "note": 48,
      "vel": 64,
      "dur": 80
    },
    {
      "t": 1973.5,
      "ch": 7,
      "note": 36,
      "vel": 74,
      "dur": 80
    },
    {
      "t": 1973.6,
      "ch": 1,
      "note": 36,
      "vel": 122,
      "dur": 25
    },
    {
      "t": 1973.7,
      "ch": 1,
      "note": 38,
      "vel": 96,
      "dur": 25
    },
    {
      "t": 1973.8,
      "ch": 1,
      "note": 40,
      "vel": 87,
      "dur": 25
    },
    {
      "t": 1973.9,
      "ch": 1,
      "note": 42,
      "vel": 94,
      "dur": 25
    },
    {
      "t": 1973.9,
      "ch": 7,
      "note": 36,
      "vel": 73,
      "dur": 80
    },
    {
      "t": 1973.9,
      "ch": 7,
      "note": 38,
      "vel": 67,
      "dur": 80
    },
    {
      "t": 1973.9,
      "ch": 7,
      "note": 45,
      "vel": 63,
      "dur": 80
    },
    {
      "t": 1974,
      "ch": 1,
      "note": 36,
      "vel": 88,
      "dur": 25
    },
    {
      "t": 1974.1,
      "ch": 1,
      "note": 38,
      "vel": 84,
      "dur": 25
    },
    {
      "t": 1974.1,
      "ch": 1,
      "note": 40,
      "vel": 98,
      "dur": 25
    },
    {
      "t": 1974.3,
      "ch": 0,
      "note": 36,
      "vel": 83,
      "dur": 55
    },
    {
      "t": 1974.3,
      "ch": 1,
      "note": 42,
      "vel": 78,
      "dur": 25
    },
    {
      "t": 1974.3,
      "ch": 7,
      "note": 48,
      "vel": 68,
      "dur": 80
    },
    {
      "t": 1974.3,
      "ch": 7,
      "note": 36,
      "vel": 84,
      "dur": 80
    },
    {
      "t": 1974.3,
      "ch": 1,
      "note": 36,
      "vel": 115,
      "dur": 25
    },
    {
      "t": 1974.4,
      "ch": 1,
      "note": 38,
      "vel": 85,
      "dur": 25
    },
    {
      "t": 1974.5,
      "ch": 1,
      "note": 40,
      "vel": 98,
      "dur": 25
    },
    {
      "t": 1974.6,
      "ch": 1,
      "note": 42,
      "vel": 93,
      "dur": 25
    },
    {
      "t": 1974.6,
      "ch": 5,
      "note": 68,
      "vel": 29,
      "dur": 777
    },
    {
      "t": 1974.7,
      "ch": 1,
      "note": 36,
      "vel": 89,
      "dur": 25
    },
    {
      "t": 1974.8,
      "ch": 1,
      "note": 38,
      "vel": 103,
      "dur": 25
    },
    {
      "t": 1974.8,
      "ch": 5,
      "note": 73,
      "vel": 55,
      "dur": 778
    },
    {
      "t": 1974.9,
      "ch": 1,
      "note": 40,
      "vel": 100,
      "dur": 25
    },
    {
      "t": 1975,
      "ch": 0,
      "note": 36,
      "vel": 121,
      "dur": 55
    },
    {
      "t": 1975,
      "ch": 1,
      "note": 42,
      "vel": 78,
      "dur": 25
    },
    {
      "t": 1975,
      "ch": 7,
      "note": 48,
      "vel": 68,
      "dur": 80
    },
    {
      "t": 1975,
      "ch": 7,
      "note": 45,
      "vel": 66,
      "dur": 80
    },
    {
      "t": 1975,
      "ch": 7,
      "note": 36,
      "vel": 80,
      "dur": 80
    },
    {
      "t": 1975,
      "ch": 7,
      "note": 38,
      "vel": 71,
      "dur": 80
    },
    {
      "t": 1975.1,
      "ch": 1,
      "note": 36,
      "vel": 107,
      "dur": 25
    },
    {
      "t": 1975.2,
      "ch": 1,
      "note": 38,
      "vel": 85,
      "dur": 25
    },
    {
      "t": 1975.2,
      "ch": 1,
      "note": 40,
      "vel": 76,
      "dur": 25
    },
    {
      "t": 1975.4,
      "ch": 1,
      "note": 42,
      "vel": 94,
      "dur": 25
    },
    {
      "t": 1975.4,
      "ch": 7,
      "note": 36,
      "vel": 69,
      "dur": 80
    },
    {
      "t": 1975.4,
      "ch": 1,
      "note": 36,
      "vel": 89,
      "dur": 25
    },
    {
      "t": 1975.5,
      "ch": 1,
      "note": 38,
      "vel": 74,
      "dur": 25
    },
    {
      "t": 1975.6,
      "ch": 5,
      "note": 68,
      "vel": 62,
      "dur": 783
    },
    {
      "t": 1975.6,
      "ch": 1,
      "note": 40,
      "vel": 82,
      "dur": 25
    },
    {
      "t": 1975.7,
      "ch": 0,
      "note": 36,
      "vel": 92,
      "dur": 55
    },
    {
      "t": 1975.7,
      "ch": 1,
      "note": 42,
      "vel": 98,
      "dur": 25
    },
    {
      "t": 1975.7,
      "ch": 7,
      "note": 48,
      "vel": 60,
      "dur": 80
    },
    {
      "t": 1975.7,
      "ch": 7,
      "note": 36,
      "vel": 57,
      "dur": 80
    },
    {
      "t": 1975.8,
      "ch": 1,
      "note": 36,
      "vel": 96,
      "dur": 25
    },
    {
      "t": 1975.9,
      "ch": 1,
      "note": 38,
      "vel": 72,
      "dur": 25
    },
    {
      "t": 1975.9,
      "ch": 7,
      "note": 45,
      "vel": 57,
      "dur": 80
    },
    {
      "t": 1975.9,
      "ch": 7,
      "note": 38,
      "vel": 66,
      "dur": 80
    },
    {
      "t": 1976,
      "ch": 1,
      "note": 40,
      "vel": 78,
      "dur": 25
    },
    {
      "t": 1976.1,
      "ch": 1,
      "note": 42,
      "vel": 84,
      "dur": 25
    },
    {
      "t": 1976.2,
      "ch": 1,
      "note": 36,
      "vel": 87,
      "dur": 25
    },
    {
      "t": 1976.3,
      "ch": 1,
      "note": 38,
      "vel": 74,
      "dur": 25
    },
    {
      "t": 1976.3,
      "ch": 1,
      "note": 40,
      "vel": 98,
      "dur": 25
    },
    {
      "t": 1976.4,
      "ch": 2,
      "note": 52,
      "vel": 55,
      "dur": 21951
    },
    {
      "t": 1976.4,
      "ch": 4,
      "note": 60,
      "vel": 43,
      "dur": 5803
    },
    {
      "t": 1976.4,
      "ch": 3,
      "note": 40,
      "vel": 46,
      "dur": 5853
    },
    {
      "t": 1976.5,
      "ch": 0,
      "note": 36,
      "vel": 92,
      "dur": 55
    },
    {
      "t": 1976.5,
      "ch": 1,
      "note": 42,
      "vel": 102,
      "dur": 25
    },
    {
      "t": 1976.5,
      "ch": 7,
      "note": 48,
      "vel": 74,
      "dur": 80
    },
    {
      "t": 1976.5,
      "ch": 7,
      "note": 36,
      "vel": 65,
      "dur": 80
    },
    {
      "t": 1976.5,
      "ch": 1,
      "note": 36,
      "vel": 93,
      "dur": 25
    },
    {
      "t": 1976.6,
      "ch": 1,
      "note": 38,
      "vel": 83,
      "dur": 25
    },
    {
      "t": 1976.7,
      "ch": 1,
      "note": 40,
      "vel": 79,
      "dur": 25
    },
    {
      "t": 1976.8,
      "ch": 1,
      "note": 42,
      "vel": 87,
      "dur": 25
    },
    {
      "t": 1976.8,
      "ch": 7,
      "note": 36,
      "vel": 62,
      "dur": 80
    },
    {
      "t": 1976.8,
      "ch": 7,
      "note": 38,
      "vel": 61,
      "dur": 80
    },
    {
      "t": 1976.8,
      "ch": 7,
      "note": 45,
      "vel": 61,
      "dur": 80
    },
    {
      "t": 1976.9,
      "ch": 1,
      "note": 36,
      "vel": 111,
      "dur": 25
    },
    {
      "t": 1977,
      "ch": 1,
      "note": 38,
      "vel": 102,
      "dur": 25
    },
    {
      "t": 1977.1,
      "ch": 1,
      "note": 40,
      "vel": 83,
      "dur": 25
    },
    {
      "t": 1977.2,
      "ch": 0,
      "note": 36,
      "vel": 92,
      "dur": 55
    },
    {
      "t": 1977.2,
      "ch": 1,
      "note": 42,
      "vel": 99,
      "dur": 25
    },
    {
      "t": 1977.2,
      "ch": 7,
      "note": 48,
      "vel": 82,
      "dur": 80
    },
    {
      "t": 1977.2,
      "ch": 7,
      "note": 36,
      "vel": 76,
      "dur": 80
    },
    {
      "t": 1977.3,
      "ch": 1,
      "note": 36,
      "vel": 114,
      "dur": 25
    },
    {
      "t": 1977.4,
      "ch": 1,
      "note": 38,
      "vel": 97,
      "dur": 25
    },
    {
      "t": 1977.4,
      "ch": 1,
      "note": 40,
      "vel": 93,
      "dur": 25
    },
    {
      "t": 1977.6,
      "ch": 1,
      "note": 42,
      "vel": 104,
      "dur": 25
    },
    {
      "t": 1977.6,
      "ch": 1,
      "note": 36,
      "vel": 101,
      "dur": 25
    },
    {
      "t": 1977.7,
      "ch": 1,
      "note": 38,
      "vel": 82,
      "dur": 25
    },
    {
      "t": 1977.8,
      "ch": 1,
      "note": 40,
      "vel": 89,
      "dur": 25
    },
    {
      "t": 1977.9,
      "ch": 0,
      "note": 36,
      "vel": 114,
      "dur": 55
    },
    {
      "t": 1977.9,
      "ch": 1,
      "note": 42,
      "vel": 92,
      "dur": 25
    },
    {
      "t": 1977.9,
      "ch": 7,
      "note": 48,
      "vel": 65,
      "dur": 80
    },
    {
      "t": 1977.9,
      "ch": 7,
      "note": 45,
      "vel": 73,
      "dur": 80
    },
    {
      "t": 1977.9,
      "ch": 7,
      "note": 36,
      "vel": 69,
      "dur": 80
    },
    {
      "t": 1977.9,
      "ch": 7,
      "note": 38,
      "vel": 79,
      "dur": 80
    },
    {
      "t": 1978,
      "ch": 1,
      "note": 36,
      "vel": 105,
      "dur": 25
    },
    {
      "t": 1978.1,
      "ch": 1,
      "note": 38,
      "vel": 87,
      "dur": 25
    },
    {
      "t": 1978.2,
      "ch": 1,
      "note": 40,
      "vel": 84,
      "dur": 25
    },
    {
      "t": 1978.3,
      "ch": 1,
      "note": 42,
      "vel": 92,
      "dur": 25
    },
    {
      "t": 1978.3,
      "ch": 7,
      "note": 36,
      "vel": 57,
      "dur": 80
    },
    {
      "t": 1978.3,
      "ch": 1,
      "note": 36,
      "vel": 108,
      "dur": 25
    },
    {
      "t": 1978.5,
      "ch": 1,
      "note": 38,
      "vel": 110,
      "dur": 25
    },
    {
      "t": 1978.5,
      "ch": 5,
      "note": 66,
      "vel": 58,
      "dur": 797
    },
    {
      "t": 1978.5,
      "ch": 1,
      "note": 40,
      "vel": 91,
      "dur": 25
    },
    {
      "t": 1978.7,
      "ch": 0,
      "note": 36,
      "vel": 90,
      "dur": 55
    },
    {
      "t": 1978.7,
      "ch": 1,
      "note": 42,
      "vel": 109,
      "dur": 25
    },
    {
      "t": 1978.7,
      "ch": 7,
      "note": 48,
      "vel": 85,
      "dur": 80
    },
    {
      "t": 1978.7,
      "ch": 7,
      "note": 36,
      "vel": 63,
      "dur": 80
    },
    {
      "t": 1978.7,
      "ch": 1,
      "note": 36,
      "vel": 114,
      "dur": 25
    },
    {
      "t": 1978.8,
      "ch": 1,
      "note": 38,
      "vel": 94,
      "dur": 25
    },
    {
      "t": 1978.8,
      "ch": 7,
      "note": 38,
      "vel": 59,
      "dur": 80
    },
    {
      "t": 1978.8,
      "ch": 7,
      "note": 45,
      "vel": 61,
      "dur": 80
    },
    {
      "t": 1978.9,
      "ch": 1,
      "note": 40,
      "vel": 67,
      "dur": 25
    },
    {
      "t": 1979,
      "ch": 1,
      "note": 42,
      "vel": 88,
      "dur": 25
    },
    {
      "t": 1979.1,
      "ch": 1,
      "note": 36,
      "vel": 98,
      "dur": 25
    },
    {
      "t": 1979.2,
      "ch": 1,
      "note": 38,
      "vel": 86,
      "dur": 25
    },
    {
      "t": 1979.3,
      "ch": 1,
      "note": 40,
      "vel": 95,
      "dur": 25
    },
    {
      "t": 1979.4,
      "ch": 0,
      "note": 36,
      "vel": 91,
      "dur": 55
    },
    {
      "t": 1979.4,
      "ch": 1,
      "note": 42,
      "vel": 96,
      "dur": 25
    },
    {
      "t": 1979.4,
      "ch": 7,
      "note": 48,
      "vel": 76,
      "dur": 80
    },
    {
      "t": 1979.4,
      "ch": 7,
      "note": 36,
      "vel": 54,
      "dur": 80
    },
    {
      "t": 1979.4,
      "ch": 5,
      "note": 59,
      "vel": 52,
      "dur": 799
    },
    {
      "t": 1979.4,
      "ch": 1,
      "note": 36,
      "vel": 115,
      "dur": 25
    },
    {
      "t": 1979.6,
      "ch": 1,
      "note": 38,
      "vel": 92,
      "dur": 25
    },
    {
      "t": 1979.6,
      "ch": 1,
      "note": 40,
      "vel": 83,
      "dur": 25
    },
    {
      "t": 1979.7,
      "ch": 1,
      "note": 42,
      "vel": 94,
      "dur": 25
    },
    {
      "t": 1979.8,
      "ch": 7,
      "note": 45,
      "vel": 64,
      "dur": 80
    },
    {
      "t": 1979.8,
      "ch": 7,
      "note": 36,
      "vel": 72,
      "dur": 80
    },
    {
      "t": 1979.8,
      "ch": 7,
      "note": 38,
      "vel": 64,
      "dur": 80
    },
    {
      "t": 1979.8,
      "ch": 1,
      "note": 36,
      "vel": 84,
      "dur": 25
    },
    {
      "t": 1979.9,
      "ch": 1,
      "note": 38,
      "vel": 103,
      "dur": 25
    },
    {
      "t": 1979.9,
      "ch": 5,
      "note": 61,
      "vel": 50,
      "dur": 799
    },
    {
      "t": 1980,
      "ch": 1,
      "note": 40,
      "vel": 95,
      "dur": 25
    },
    {
      "t": 1980.1,
      "ch": 0,
      "note": 36,
      "vel": 96,
      "dur": 55
    },
    {
      "t": 1980.1,
      "ch": 1,
      "note": 42,
      "vel": 98,
      "dur": 25
    },
    {
      "t": 1980.1,
      "ch": 7,
      "note": 48,
      "vel": 69,
      "dur": 80
    },
    {
      "t": 1980.1,
      "ch": 7,
      "note": 36,
      "vel": 65,
      "dur": 80
    },
    {
      "t": 1980.2,
      "ch": 6,
      "note": 65,
      "vel": 39,
      "dur": 400
    },
    {
      "t": 1980.2,
      "ch": 1,
      "note": 36,
      "vel": 105,
      "dur": 25
    },
    {
      "t": 1980.3,
      "ch": 1,
      "note": 38,
      "vel": 99,
      "dur": 25
    },
    {
      "t": 1980.3,
      "ch": 5,
      "note": 68,
      "vel": 59,
      "dur": 800
    },
    {
      "t": 1980.4,
      "ch": 1,
      "note": 40,
      "vel": 76,
      "dur": 25
    },
    {
      "t": 1980.5,
      "ch": 1,
      "note": 42,
      "vel": 105,
      "dur": 25
    },
    {
      "t": 1980.5,
      "ch": 1,
      "note": 36,
      "vel": 80,
      "dur": 25
    },
    {
      "t": 1980.7,
      "ch": 1,
      "note": 38,
      "vel": 99,
      "dur": 25
    },
    {
      "t": 1980.7,
      "ch": 6,
      "note": 74,
      "vel": 39,
      "dur": 400
    },
    {
      "t": 1980.7,
      "ch": 1,
      "note": 40,
      "vel": 78,
      "dur": 25
    },
    {
      "t": 1980.9,
      "ch": 0,
      "note": 36,
      "vel": 106,
      "dur": 55
    },
    {
      "t": 1980.9,
      "ch": 1,
      "note": 42,
      "vel": 90,
      "dur": 25
    },
    {
      "t": 1980.9,
      "ch": 7,
      "note": 48,
      "vel": 70,
      "dur": 80
    },
    {
      "t": 1980.9,
      "ch": 7,
      "note": 45,
      "vel": 73,
      "dur": 80
    },
    {
      "t": 1980.9,
      "ch": 7,
      "note": 36,
      "vel": 69,
      "dur": 80
    },
    {
      "t": 1980.9,
      "ch": 7,
      "note": 38,
      "vel": 76,
      "dur": 80
    },
    {
      "t": 1980.9,
      "ch": 1,
      "note": 36,
      "vel": 118,
      "dur": 25
    },
    {
      "t": 1981,
      "ch": 1,
      "note": 38,
      "vel": 92,
      "dur": 25
    },
    {
      "t": 1981.1,
      "ch": 1,
      "note": 40,
      "vel": 98,
      "dur": 25
    },
    {
      "t": 1981.2,
      "ch": 1,
      "note": 42,
      "vel": 83,
      "dur": 25
    },
    {
      "t": 1981.2,
      "ch": 7,
      "note": 36,
      "vel": 63,
      "dur": 80
    },
    {
      "t": 1981.3,
      "ch": 1,
      "note": 36,
      "vel": 101,
      "dur": 25
    },
    {
      "t": 1981.4,
      "ch": 1,
      "note": 38,
      "vel": 83,
      "dur": 25
    },
    {
      "t": 1981.4,
      "ch": 5,
      "note": 73,
      "vel": 52,
      "dur": 798
    },
    {
      "t": 1981.5,
      "ch": 1,
      "note": 40,
      "vel": 89,
      "dur": 25
    },
    {
      "t": 1981.6,
      "ch": 0,
      "note": 36,
      "vel": 90,
      "dur": 55
    },
    {
      "t": 1981.6,
      "ch": 1,
      "note": 42,
      "vel": 97,
      "dur": 25
    },
    {
      "t": 1981.6,
      "ch": 7,
      "note": 48,
      "vel": 71,
      "dur": 80
    },
    {
      "t": 1981.6,
      "ch": 7,
      "note": 36,
      "vel": 60,
      "dur": 80
    },
    {
      "t": 1981.6,
      "ch": 1,
      "note": 36,
      "vel": 122,
      "dur": 25
    },
    {
      "t": 1981.8,
      "ch": 1,
      "note": 38,
      "vel": 89,
      "dur": 25
    },
    {
      "t": 1981.8,
      "ch": 7,
      "note": 45,
      "vel": 65,
      "dur": 80
    },
    {
      "t": 1981.8,
      "ch": 7,
      "note": 38,
      "vel": 60,
      "dur": 80
    },
    {
      "t": 1981.8,
      "ch": 1,
      "note": 40,
      "vel": 85,
      "dur": 25
    },
    {
      "t": 1981.9,
      "ch": 1,
      "note": 42,
      "vel": 73,
      "dur": 25
    },
    {
      "t": 1982,
      "ch": 1,
      "note": 36,
      "vel": 85,
      "dur": 25
    },
    {
      "t": 1982.1,
      "ch": 1,
      "note": 38,
      "vel": 90,
      "dur": 25
    },
    {
      "t": 1982.2,
      "ch": 1,
      "note": 40,
      "vel": 81,
      "dur": 25
    },
    {
      "t": 1982.2,
      "ch": 4,
      "note": 59,
      "vel": 41,
      "dur": 5803
    },
    {
      "t": 1982.2,
      "ch": 3,
      "note": 40,
      "vel": 45,
      "dur": 5853
    },
    {
      "t": 1982.3,
      "ch": 0,
      "note": 36,
      "vel": 91,
      "dur": 55
    },
    {
      "t": 1982.3,
      "ch": 1,
      "note": 42,
      "vel": 105,
      "dur": 25
    },
    {
      "t": 1982.3,
      "ch": 7,
      "note": 48,
      "vel": 77,
      "dur": 80
    },
    {
      "t": 1982.3,
      "ch": 7,
      "note": 36,
      "vel": 66,
      "dur": 80
    },
    {
      "t": 1982.4,
      "ch": 1,
      "note": 36,
      "vel": 91,
      "dur": 25
    },
    {
      "t": 1982.5,
      "ch": 1,
      "note": 38,
      "vel": 77,
      "dur": 25
    },
    {
      "t": 1982.6,
      "ch": 1,
      "note": 40,
      "vel": 81,
      "dur": 25
    },
    {
      "t": 1982.7,
      "ch": 1,
      "note": 42,
      "vel": 98,
      "dur": 25
    },
    {
      "t": 1982.7,
      "ch": 7,
      "note": 38,
      "vel": 58,
      "dur": 80
    },
    {
      "t": 1982.7,
      "ch": 7,
      "note": 36,
      "vel": 62,
      "dur": 80
    },
    {
      "t": 1982.7,
      "ch": 7,
      "note": 45,
      "vel": 69,
      "dur": 80
    },
    {
      "t": 1982.7,
      "ch": 1,
      "note": 36,
      "vel": 87,
      "dur": 25
    },
    {
      "t": 1982.9,
      "ch": 1,
      "note": 38,
      "vel": 71,
      "dur": 25
    },
    {
      "t": 1982.9,
      "ch": 1,
      "note": 40,
      "vel": 88,
      "dur": 25
    },
    {
      "t": 1983,
      "ch": 0,
      "note": 36,
      "vel": 91,
      "dur": 55
    },
    {
      "t": 1983,
      "ch": 1,
      "note": 42,
      "vel": 82,
      "dur": 25
    },
    {
      "t": 1983,
      "ch": 7,
      "note": 48,
      "vel": 67,
      "dur": 80
    },
    {
      "t": 1983,
      "ch": 7,
      "note": 36,
      "vel": 71,
      "dur": 80
    },
    {
      "t": 1983.1,
      "ch": 1,
      "note": 36,
      "vel": 114,
      "dur": 25
    },
    {
      "t": 1983.2,
      "ch": 1,
      "note": 38,
      "vel": 86,
      "dur": 25
    },
    {
      "t": 1983.3,
      "ch": 1,
      "note": 40,
      "vel": 97,
      "dur": 25
    },
    {
      "t": 1983.4,
      "ch": 1,
      "note": 42,
      "vel": 89,
      "dur": 25
    },
    {
      "t": 1983.5,
      "ch": 1,
      "note": 36,
      "vel": 79,
      "dur": 25
    },
    {
      "t": 1983.6,
      "ch": 1,
      "note": 38,
      "vel": 91,
      "dur": 25
    },
    {
      "t": 1983.7,
      "ch": 1,
      "note": 40,
      "vel": 87,
      "dur": 25
    },
    {
      "t": 1983.8,
      "ch": 0,
      "note": 36,
      "vel": 109,
      "dur": 55
    },
    {
      "t": 1983.8,
      "ch": 1,
      "note": 42,
      "vel": 101,
      "dur": 25
    },
    {
      "t": 1983.8,
      "ch": 7,
      "note": 48,
      "vel": 67,
      "dur": 80
    },
    {
      "t": 1983.8,
      "ch": 7,
      "note": 45,
      "vel": 59,
      "dur": 80
    },
    {
      "t": 1983.8,
      "ch": 7,
      "note": 36,
      "vel": 69,
      "dur": 80
    },
    {
      "t": 1983.8,
      "ch": 7,
      "note": 38,
      "vel": 70,
      "dur": 80
    },
    {
      "t": 1983.8,
      "ch": 1,
      "note": 36,
      "vel": 119,
      "dur": 25
    },
    {
      "t": 1984,
      "ch": 1,
      "note": 38,
      "vel": 92,
      "dur": 25
    },
    {
      "t": 1984,
      "ch": 1,
      "note": 40,
      "vel": 100,
      "dur": 25
    },
    {
      "t": 1984.1,
      "ch": 1,
      "note": 42,
      "vel": 92,
      "dur": 25
    },
    {
      "t": 1984.2,
      "ch": 7,
      "note": 36,
      "vel": 74,
      "dur": 80
    },
    {
      "t": 1984.2,
      "ch": 1,
      "note": 36,
      "vel": 82,
      "dur": 25
    },
    {
      "t": 1984.3,
      "ch": 1,
      "note": 38,
      "vel": 100,
      "dur": 25
    },
    {
      "t": 1984.4,
      "ch": 1,
      "note": 40,
      "vel": 108,
      "dur": 25
    },
    {
      "t": 1984.5,
      "ch": 0,
      "note": 36,
      "vel": 88,
      "dur": 55
    },
    {
      "t": 1984.5,
      "ch": 1,
      "note": 42,
      "vel": 111,
      "dur": 25
    },
    {
      "t": 1984.5,
      "ch": 7,
      "note": 48,
      "vel": 63,
      "dur": 80
    },
    {
      "t": 1984.5,
      "ch": 7,
      "note": 36,
      "vel": 73,
      "dur": 80
    },
    {
      "t": 1984.6,
      "ch": 1,
      "note": 36,
      "vel": 93,
      "dur": 25
    },
    {
      "t": 1984.7,
      "ch": 1,
      "note": 38,
      "vel": 99,
      "dur": 25
    },
    {
      "t": 1984.7,
      "ch": 7,
      "note": 45,
      "vel": 59,
      "dur": 80
    },
    {
      "t": 1984.7,
      "ch": 7,
      "note": 38,
      "vel": 56,
      "dur": 80
    },
    {
      "t": 1984.8,
      "ch": 1,
      "note": 40,
      "vel": 105,
      "dur": 25
    },
    {
      "t": 1984.9,
      "ch": 1,
      "note": 42,
      "vel": 83,
      "dur": 25
    },
    {
      "t": 1984.9,
      "ch": 1,
      "note": 36,
      "vel": 107,
      "dur": 25
    },
    {
      "t": 1985.1,
      "ch": 1,
      "note": 38,
      "vel": 82,
      "dur": 25
    },
    {
      "t": 1985.1,
      "ch": 1,
      "note": 40,
      "vel": 86,
      "dur": 25
    },
    {
      "t": 1985.2,
      "ch": 0,
      "note": 36,
      "vel": 96,
      "dur": 55
    },
    {
      "t": 1985.2,
      "ch": 1,
      "note": 42,
      "vel": 93,
      "dur": 25
    },
    {
      "t": 1985.2,
      "ch": 7,
      "note": 48,
      "vel": 65,
      "dur": 80
    },
    {
      "t": 1985.2,
      "ch": 7,
      "note": 36,
      "vel": 72,
      "dur": 80
    },
    {
      "t": 1985.3,
      "ch": 1,
      "note": 36,
      "vel": 112,
      "dur": 25
    },
    {
      "t": 1985.4,
      "ch": 1,
      "note": 38,
      "vel": 72,
      "dur": 25
    },
    {
      "t": 1985.5,
      "ch": 1,
      "note": 40,
      "vel": 90,
      "dur": 25
    },
    {
      "t": 1985.6,
      "ch": 1,
      "note": 42,
      "vel": 103,
      "dur": 25
    },
    {
      "t": 1985.6,
      "ch": 7,
      "note": 38,
      "vel": 61,
      "dur": 80
    },
    {
      "t": 1985.6,
      "ch": 7,
      "note": 45,
      "vel": 67,
      "dur": 80
    },
    {
      "t": 1985.6,
      "ch": 7,
      "note": 36,
      "vel": 65,
      "dur": 80
    },
    {
      "t": 1985.7,
      "ch": 1,
      "note": 36,
      "vel": 98,
      "dur": 25
    },
    {
      "t": 1985.8,
      "ch": 1,
      "note": 38,
      "vel": 103,
      "dur": 25
    },
    {
      "t": 1985.8,
      "ch": 1,
      "note": 40,
      "vel": 110,
      "dur": 25
    },
    {
      "t": 1986,
      "ch": 0,
      "note": 36,
      "vel": 93,
      "dur": 55
    },
    {
      "t": 1986,
      "ch": 1,
      "note": 42,
      "vel": 74,
      "dur": 25
    },
    {
      "t": 1986,
      "ch": 7,
      "note": 48,
      "vel": 72,
      "dur": 80
    },
    {
      "t": 1986,
      "ch": 7,
      "note": 36,
      "vel": 72,
      "dur": 80
    },
    {
      "t": 1986,
      "ch": 1,
      "note": 36,
      "vel": 107,
      "dur": 25
    },
    {
      "t": 1986.2,
      "ch": 1,
      "note": 38,
      "vel": 88,
      "dur": 25
    },
    {
      "t": 1986.2,
      "ch": 1,
      "note": 40,
      "vel": 101,
      "dur": 25
    },
    {
      "t": 1986.3,
      "ch": 1,
      "note": 42,
      "vel": 107,
      "dur": 25
    },
    {
      "t": 1986.4,
      "ch": 1,
      "note": 36,
      "vel": 85,
      "dur": 25
    },
    {
      "t": 1986.5,
      "ch": 1,
      "note": 38,
      "vel": 87,
      "dur": 25
    },
    {
      "t": 1986.6,
      "ch": 1,
      "note": 40,
      "vel": 106,
      "dur": 25
    },
    {
      "t": 1986.7,
      "ch": 0,
      "note": 36,
      "vel": 114,
      "dur": 55
    },
    {
      "t": 1986.7,
      "ch": 1,
      "note": 42,
      "vel": 111,
      "dur": 25
    },
    {
      "t": 1986.7,
      "ch": 7,
      "note": 48,
      "vel": 65,
      "dur": 80
    },
    {
      "t": 1986.7,
      "ch": 7,
      "note": 45,
      "vel": 77,
      "dur": 80
    },
    {
      "t": 1986.7,
      "ch": 7,
      "note": 36,
      "vel": 60,
      "dur": 80
    },
    {
      "t": 1986.7,
      "ch": 7,
      "note": 38,
      "vel": 56,
      "dur": 80
    },
    {
      "t": 1986.8,
      "ch": 1,
      "note": 36,
      "vel": 107,
      "dur": 25
    },
    {
      "t": 1986.9,
      "ch": 1,
      "note": 38,
      "vel": 104,
      "dur": 25
    },
    {
      "t": 1986.9,
      "ch": 1,
      "note": 40,
      "vel": 92,
      "dur": 25
    },
    {
      "t": 1987.1,
      "ch": 1,
      "note": 42,
      "vel": 71,
      "dur": 25
    },
    {
      "t": 1987.1,
      "ch": 7,
      "note": 36,
      "vel": 67,
      "dur": 80
    },
    {
      "t": 1987.1,
      "ch": 1,
      "note": 36,
      "vel": 95,
      "dur": 25
    },
    {
      "t": 1987.3,
      "ch": 1,
      "note": 38,
      "vel": 76,
      "dur": 25
    },
    {
      "t": 1987.3,
      "ch": 5,
      "note": 68,
      "vel": 38,
      "dur": 773
    },
    {
      "t": 1987.3,
      "ch": 1,
      "note": 40,
      "vel": 86,
      "dur": 25
    },
    {
      "t": 1987.4,
      "ch": 0,
      "note": 36,
      "vel": 98,
      "dur": 55
    },
    {
      "t": 1987.4,
      "ch": 1,
      "note": 42,
      "vel": 94,
      "dur": 25
    },
    {
      "t": 1987.4,
      "ch": 7,
      "note": 48,
      "vel": 76,
      "dur": 80
    },
    {
      "t": 1987.4,
      "ch": 7,
      "note": 36,
      "vel": 64,
      "dur": 80
    },
    {
      "t": 1987.5,
      "ch": 1,
      "note": 36,
      "vel": 97,
      "dur": 25
    },
    {
      "t": 1987.6,
      "ch": 1,
      "note": 38,
      "vel": 86,
      "dur": 25
    },
    {
      "t": 1987.6,
      "ch": 7,
      "note": 45,
      "vel": 62,
      "dur": 80
    },
    {
      "t": 1987.6,
      "ch": 7,
      "note": 38,
      "vel": 57,
      "dur": 80
    },
    {
      "t": 1987.6,
      "ch": 6,
      "note": 57,
      "vel": 21,
      "dur": 515
    },
    {
      "t": 1987.7,
      "ch": 6,
      "note": 72,
      "vel": 44,
      "dur": 400
    },
    {
      "t": 1987.7,
      "ch": 1,
      "note": 40,
      "vel": 91,
      "dur": 25
    },
    {
      "t": 1987.8,
      "ch": 1,
      "note": 42,
      "vel": 110,
      "dur": 25
    },
    {
      "t": 1987.9,
      "ch": 1,
      "note": 36,
      "vel": 83,
      "dur": 25
    },
    {
      "t": 1988,
      "ch": 1,
      "note": 38,
      "vel": 92,
      "dur": 25
    },
    {
      "t": 1988,
      "ch": 5,
      "note": 66,
      "vel": 22,
      "dur": 770
    },
    {
      "t": 1988,
      "ch": 1,
      "note": 40,
      "vel": 80,
      "dur": 25
    },
    {
      "t": 1988.1,
      "ch": 2,
      "note": 52,
      "vel": 56,
      "dur": 21951
    },
    {
      "t": 1988.1,
      "ch": 2,
      "note": 64,
      "vel": 39,
      "dur": 21951
    },
    {
      "t": 1988.1,
      "ch": 4,
      "note": 59,
      "vel": 46,
      "dur": 5803
    },
    {
      "t": 1988.1,
      "ch": 3,
      "note": 47,
      "vel": 49,
      "dur": 5853
    },
    {
      "t": 1988.2,
      "ch": 0,
      "note": 36,
      "vel": 96,
      "dur": 55
    },
    {
      "t": 1988.2,
      "ch": 1,
      "note": 42,
      "vel": 95,
      "dur": 25
    },
    {
      "t": 1988.2,
      "ch": 7,
      "note": 48,
      "vel": 65,
      "dur": 80
    },
    {
      "t": 1988.2,
      "ch": 7,
      "note": 36,
      "vel": 75,
      "dur": 80
    },
    {
      "t": 1988.2,
      "ch": 6,
      "note": 72,
      "vel": 12,
      "dur": 400
    },
    {
      "t": 1988.2,
      "ch": 1,
      "note": 36,
      "vel": 97,
      "dur": 25
    },
    {
      "t": 1988.3,
      "ch": 1,
      "note": 38,
      "vel": 95,
      "dur": 25
    },
    {
      "t": 1988.4,
      "ch": 1,
      "note": 40,
      "vel": 101,
      "dur": 25
    },
    {
      "t": 1988.5,
      "ch": 1,
      "note": 42,
      "vel": 94,
      "dur": 25
    },
    {
      "t": 1988.5,
      "ch": 7,
      "note": 38,
      "vel": 62,
      "dur": 80
    },
    {
      "t": 1988.5,
      "ch": 7,
      "note": 45,
      "vel": 61,
      "dur": 80
    },
    {
      "t": 1988.5,
      "ch": 7,
      "note": 36,
      "vel": 60,
      "dur": 80
    },
    {
      "t": 1988.6,
      "ch": 1,
      "note": 36,
      "vel": 104,
      "dur": 25
    },
    {
      "t": 1988.7,
      "ch": 1,
      "note": 38,
      "vel": 92,
      "dur": 25
    },
    {
      "t": 1988.8,
      "ch": 1,
      "note": 40,
      "vel": 98,
      "dur": 25
    },
    {
      "t": 1988.9,
      "ch": 0,
      "note": 36,
      "vel": 93,
      "dur": 55
    },
    {
      "t": 1988.9,
      "ch": 1,
      "note": 42,
      "vel": 87,
      "dur": 25
    },
    {
      "t": 1988.9,
      "ch": 7,
      "note": 48,
      "vel": 74,
      "dur": 80
    },
    {
      "t": 1988.9,
      "ch": 7,
      "note": 36,
      "vel": 70,
      "dur": 80
    },
    {
      "t": 1989,
      "ch": 1,
      "note": 36,
      "vel": 127,
      "dur": 25
    },
    {
      "t": 1989.1,
      "ch": 1,
      "note": 38,
      "vel": 80,
      "dur": 25
    },
    {
      "t": 1989.1,
      "ch": 1,
      "note": 40,
      "vel": 81,
      "dur": 25
    },
    {
      "t": 1989.3,
      "ch": 1,
      "note": 42,
      "vel": 108,
      "dur": 25
    },
    {
      "t": 1989.3,
      "ch": 6,
      "note": 60,
      "vel": 35,
      "dur": 511
    },
    {
      "t": 1989.3,
      "ch": 1,
      "note": 36,
      "vel": 102,
      "dur": 25
    },
    {
      "t": 1989.4,
      "ch": 1,
      "note": 38,
      "vel": 103,
      "dur": 25
    },
    {
      "t": 1989.5,
      "ch": 0,
      "note": 36,
      "vel": 71,
      "dur": 55
    },
    {
      "t": 1989.5,
      "ch": 1,
      "note": 40,
      "vel": 85,
      "dur": 25
    },
    {
      "t": 1989.6,
      "ch": 0,
      "note": 36,
      "vel": 115,
      "dur": 55
    },
    {
      "t": 1989.6,
      "ch": 1,
      "note": 42,
      "vel": 127,
      "dur": 25
    },
    {
      "t": 1989.6,
      "ch": 7,
      "note": 48,
      "vel": 78,
      "dur": 80
    },
    {
      "t": 1989.6,
      "ch": 7,
      "note": 45,
      "vel": 84,
      "dur": 80
    },
    {
      "t": 1989.6,
      "ch": 7,
      "note": 36,
      "vel": 64,
      "dur": 80
    },
    {
      "t": 1989.6,
      "ch": 7,
      "note": 38,
      "vel": 66,
      "dur": 80
    },
    {
      "t": 1989.7,
      "ch": 1,
      "note": 36,
      "vel": 105,
      "dur": 25
    },
    {
      "t": 1989.8,
      "ch": 1,
      "note": 38,
      "vel": 85,
      "dur": 25
    },
    {
      "t": 1989.9,
      "ch": 1,
      "note": 40,
      "vel": 91,
      "dur": 25
    },
    {
      "t": 1990,
      "ch": 1,
      "note": 42,
      "vel": 75,
      "dur": 25
    },
    {
      "t": 1990,
      "ch": 7,
      "note": 36,
      "vel": 62,
      "dur": 80
    },
    {
      "t": 1990.1,
      "ch": 1,
      "note": 36,
      "vel": 83,
      "dur": 25
    },
    {
      "t": 1990.2,
      "ch": 1,
      "note": 38,
      "vel": 93,
      "dur": 25
    },
    {
      "t": 1990.2,
      "ch": 1,
      "note": 40,
      "vel": 97,
      "dur": 25
    },
    {
      "t": 1990.4,
      "ch": 0,
      "note": 36,
      "vel": 93,
      "dur": 55
    },
    {
      "t": 1990.4,
      "ch": 1,
      "note": 42,
      "vel": 104,
      "dur": 25
    },
    {
      "t": 1990.4,
      "ch": 7,
      "note": 48,
      "vel": 82,
      "dur": 80
    },
    {
      "t": 1990.4,
      "ch": 7,
      "note": 36,
      "vel": 64,
      "dur": 80
    },
    {
      "t": 1990.4,
      "ch": 1,
      "note": 36,
      "vel": 91,
      "dur": 25
    },
    {
      "t": 1990.5,
      "ch": 1,
      "note": 38,
      "vel": 87,
      "dur": 25
    },
    {
      "t": 1990.6,
      "ch": 7,
      "note": 38,
      "vel": 68,
      "dur": 80
    },
    {
      "t": 1990.6,
      "ch": 7,
      "note": 45,
      "vel": 59,
      "dur": 80
    },
    {
      "t": 1990.6,
      "ch": 1,
      "note": 40,
      "vel": 74,
      "dur": 25
    },
    {
      "t": 1990.7,
      "ch": 1,
      "note": 42,
      "vel": 89,
      "dur": 25
    },
    {
      "t": 1990.8,
      "ch": 1,
      "note": 36,
      "vel": 97,
      "dur": 25
    },
    {
      "t": 1990.9,
      "ch": 1,
      "note": 38,
      "vel": 78,
      "dur": 25
    },
    {
      "t": 1991,
      "ch": 1,
      "note": 40,
      "vel": 103,
      "dur": 25
    },
    {
      "t": 1991.1,
      "ch": 0,
      "note": 36,
      "vel": 94,
      "dur": 55
    },
    {
      "t": 1991.1,
      "ch": 1,
      "note": 42,
      "vel": 127,
      "dur": 25
    },
    {
      "t": 1991.1,
      "ch": 7,
      "note": 48,
      "vel": 79,
      "dur": 80
    },
    {
      "t": 1991.1,
      "ch": 7,
      "note": 36,
      "vel": 62,
      "dur": 80
    },
    {
      "t": 1991.1,
      "ch": 1,
      "note": 36,
      "vel": 89,
      "dur": 25
    },
    {
      "t": 1991.3,
      "ch": 1,
      "note": 38,
      "vel": 91,
      "dur": 25
    },
    {
      "t": 1991.3,
      "ch": 1,
      "note": 40,
      "vel": 91,
      "dur": 25
    },
    {
      "t": 1991.5,
      "ch": 1,
      "note": 42,
      "vel": 103,
      "dur": 25
    },
    {
      "t": 1991.5,
      "ch": 7,
      "note": 36,
      "vel": 53,
      "dur": 80
    },
    {
      "t": 1991.5,
      "ch": 7,
      "note": 45,
      "vel": 66,
      "dur": 80
    },
    {
      "t": 1991.5,
      "ch": 7,
      "note": 38,
      "vel": 69,
      "dur": 80
    },
    {
      "t": 1991.5,
      "ch": 1,
      "note": 36,
      "vel": 83,
      "dur": 25
    },
    {
      "t": 1991.6,
      "ch": 1,
      "note": 38,
      "vel": 83,
      "dur": 25
    },
    {
      "t": 1991.7,
      "ch": 1,
      "note": 40,
      "vel": 91,
      "dur": 25
    },
    {
      "t": 1991.8,
      "ch": 0,
      "note": 36,
      "vel": 94,
      "dur": 55
    },
    {
      "t": 1991.8,
      "ch": 1,
      "note": 42,
      "vel": 94,
      "dur": 25
    },
    {
      "t": 1991.8,
      "ch": 7,
      "note": 48,
      "vel": 66,
      "dur": 80
    },
    {
      "t": 1991.8,
      "ch": 7,
      "note": 36,
      "vel": 76,
      "dur": 80
    },
    {
      "t": 1991.9,
      "ch": 1,
      "note": 36,
      "vel": 96,
      "dur": 25
    },
    {
      "t": 1992,
      "ch": 1,
      "note": 38,
      "vel": 83,
      "dur": 25
    },
    {
      "t": 1992.1,
      "ch": 1,
      "note": 40,
      "vel": 92,
      "dur": 25
    },
    {
      "t": 1992.2,
      "ch": 1,
      "note": 42,
      "vel": 78,
      "dur": 25
    },
    {
      "t": 1992.3,
      "ch": 1,
      "note": 36,
      "vel": 88,
      "dur": 25
    },
    {
      "t": 1992.4,
      "ch": 1,
      "note": 38,
      "vel": 94,
      "dur": 25
    },
    {
      "t": 1992.4,
      "ch": 1,
      "note": 40,
      "vel": 69,
      "dur": 25
    },
    {
      "t": 1992.6,
      "ch": 0,
      "note": 36,
      "vel": 120,
      "dur": 55
    },
    {
      "t": 1992.6,
      "ch": 1,
      "note": 42,
      "vel": 121,
      "dur": 25
    },
    {
      "t": 1992.6,
      "ch": 7,
      "note": 48,
      "vel": 63,
      "dur": 80
    },
    {
      "t": 1992.6,
      "ch": 7,
      "note": 45,
      "vel": 68,
      "dur": 80
    },
    {
      "t": 1992.6,
      "ch": 7,
      "note": 36,
      "vel": 63,
      "dur": 80
    },
    {
      "t": 1992.6,
      "ch": 7,
      "note": 38,
      "vel": 87,
      "dur": 80
    },
    {
      "t": 1992.6,
      "ch": 1,
      "note": 36,
      "vel": 127,
      "dur": 25
    },
    {
      "t": 1992.7,
      "ch": 1,
      "note": 38,
      "vel": 93,
      "dur": 25
    },
    {
      "t": 1992.8,
      "ch": 1,
      "note": 40,
      "vel": 82,
      "dur": 25
    },
    {
      "t": 1992.9,
      "ch": 1,
      "note": 42,
      "vel": 103,
      "dur": 25
    },
    {
      "t": 1992.9,
      "ch": 7,
      "note": 36,
      "vel": 56,
      "dur": 80
    },
    {
      "t": 1993,
      "ch": 1,
      "note": 36,
      "vel": 104,
      "dur": 25
    },
    {
      "t": 1993.1,
      "ch": 1,
      "note": 38,
      "vel": 98,
      "dur": 25
    },
    {
      "t": 1993.2,
      "ch": 1,
      "note": 40,
      "vel": 92,
      "dur": 25
    },
    {
      "t": 1993.3,
      "ch": 0,
      "note": 36,
      "vel": 85,
      "dur": 55
    },
    {
      "t": 1993.3,
      "ch": 1,
      "note": 42,
      "vel": 98,
      "dur": 25
    },
    {
      "t": 1993.3,
      "ch": 7,
      "note": 48,
      "vel": 69,
      "dur": 80
    },
    {
      "t": 1993.3,
      "ch": 7,
      "note": 36,
      "vel": 67,
      "dur": 80
    },
    {
      "t": 1993.3,
      "ch": 1,
      "note": 36,
      "vel": 116,
      "dur": 25
    },
    {
      "t": 1993.5,
      "ch": 1,
      "note": 38,
      "vel": 101,
      "dur": 25
    },
    {
      "t": 1993.5,
      "ch": 7,
      "note": 45,
      "vel": 65,
      "dur": 80
    },
    {
      "t": 1993.5,
      "ch": 7,
      "note": 38,
      "vel": 50,
      "dur": 80
    },
    {
      "t": 1993.5,
      "ch": 1,
      "note": 40,
      "vel": 106,
      "dur": 25
    },
    {
      "t": 1993.7,
      "ch": 1,
      "note": 42,
      "vel": 90,
      "dur": 25
    },
    {
      "t": 1993.7,
      "ch": 1,
      "note": 36,
      "vel": 87,
      "dur": 25
    },
    {
      "t": 1993.8,
      "ch": 1,
      "note": 38,
      "vel": 99,
      "dur": 25
    },
    {
      "t": 1993.9,
      "ch": 1,
      "note": 40,
      "vel": 77,
      "dur": 25
    },
    {
      "t": 1994,
      "ch": 0,
      "note": 36,
      "vel": 97,
      "dur": 55
    },
    {
      "t": 1994,
      "ch": 1,
      "note": 42,
      "vel": 127,
      "dur": 25
    },
    {
      "t": 1994,
      "ch": 7,
      "note": 48,
      "vel": 72,
      "dur": 80
    },
    {
      "t": 1994,
      "ch": 7,
      "note": 36,
      "vel": 70,
      "dur": 80
    },
    {
      "t": 1994.1,
      "ch": 1,
      "note": 36,
      "vel": 103,
      "dur": 25
    },
    {
      "t": 1994.2,
      "ch": 1,
      "note": 38,
      "vel": 93,
      "dur": 25
    },
    {
      "t": 1994.3,
      "ch": 1,
      "note": 40,
      "vel": 102,
      "dur": 25
    },
    {
      "t": 1994.4,
      "ch": 1,
      "note": 42,
      "vel": 85,
      "dur": 25
    },
    {
      "t": 1994.4,
      "ch": 7,
      "note": 45,
      "vel": 56,
      "dur": 80
    },
    {
      "t": 1994.4,
      "ch": 7,
      "note": 38,
      "vel": 58,
      "dur": 80
    },
    {
      "t": 1994.4,
      "ch": 7,
      "note": 36,
      "vel": 55,
      "dur": 80
    },
    {
      "t": 1994.4,
      "ch": 1,
      "note": 36,
      "vel": 94,
      "dur": 25
    },
    {
      "t": 1994.6,
      "ch": 1,
      "note": 38,
      "vel": 75,
      "dur": 25
    },
    {
      "t": 1994.6,
      "ch": 1,
      "note": 40,
      "vel": 103,
      "dur": 25
    },
    {
      "t": 1994.8,
      "ch": 0,
      "note": 36,
      "vel": 83,
      "dur": 55
    },
    {
      "t": 1994.8,
      "ch": 1,
      "note": 42,
      "vel": 118,
      "dur": 25
    },
    {
      "t": 1994.8,
      "ch": 7,
      "note": 48,
      "vel": 72,
      "dur": 80
    },
    {
      "t": 1994.8,
      "ch": 7,
      "note": 36,
      "vel": 61,
      "dur": 80
    },
    {
      "t": 1994.8,
      "ch": 1,
      "note": 36,
      "vel": 120,
      "dur": 25
    },
    {
      "t": 1994.9,
      "ch": 1,
      "note": 38,
      "vel": 107,
      "dur": 25
    },
    {
      "t": 1995,
      "ch": 5,
      "note": 59,
      "vel": 39,
      "dur": 782
    },
    {
      "t": 1995,
      "ch": 1,
      "note": 40,
      "vel": 74,
      "dur": 25
    },
    {
      "t": 1995.1,
      "ch": 1,
      "note": 42,
      "vel": 86,
      "dur": 25
    },
    {
      "t": 1995.2,
      "ch": 1,
      "note": 36,
      "vel": 85,
      "dur": 25
    },
    {
      "t": 1995.3,
      "ch": 1,
      "note": 38,
      "vel": 90,
      "dur": 25
    },
    {
      "t": 1995.4,
      "ch": 1,
      "note": 40,
      "vel": 106,
      "dur": 25
    },
    {
      "t": 1995.5,
      "ch": 0,
      "note": 36,
      "vel": 119,
      "dur": 55
    },
    {
      "t": 1995.5,
      "ch": 1,
      "note": 42,
      "vel": 90,
      "dur": 25
    },
    {
      "t": 1995.5,
      "ch": 7,
      "note": 48,
      "vel": 57,
      "dur": 80
    },
    {
      "t": 1995.5,
      "ch": 7,
      "note": 45,
      "vel": 70,
      "dur": 80
    },
    {
      "t": 1995.5,
      "ch": 7,
      "note": 36,
      "vel": 75,
      "dur": 80
    },
    {
      "t": 1995.5,
      "ch": 7,
      "note": 38,
      "vel": 77,
      "dur": 80
    },
    {
      "t": 1995.5,
      "ch": 1,
      "note": 36,
      "vel": 127,
      "dur": 25
    },
    {
      "t": 1995.7,
      "ch": 1,
      "note": 38,
      "vel": 110,
      "dur": 25
    },
    {
      "t": 1995.7,
      "ch": 1,
      "note": 40,
      "vel": 81,
      "dur": 25
    },
    {
      "t": 1995.8,
      "ch": 1,
      "note": 42,
      "vel": 76,
      "dur": 25
    },
    {
      "t": 1995.9,
      "ch": 7,
      "note": 36,
      "vel": 60,
      "dur": 80
    },
    {
      "t": 1995.9,
      "ch": 1,
      "note": 36,
      "vel": 118,
      "dur": 25
    },
    {
      "t": 1996,
      "ch": 1,
      "note": 38,
      "vel": 89,
      "dur": 25
    },
    {
      "t": 1996.1,
      "ch": 1,
      "note": 40,
      "vel": 126,
      "dur": 25
    },
    {
      "t": 1996.2,
      "ch": 0,
      "note": 36,
      "vel": 92,
      "dur": 55
    },
    {
      "t": 1996.2,
      "ch": 1,
      "note": 42,
      "vel": 95,
      "dur": 25
    },
    {
      "t": 1996.2,
      "ch": 7,
      "note": 48,
      "vel": 82,
      "dur": 80
    },
    {
      "t": 1996.2,
      "ch": 7,
      "note": 36,
      "vel": 71,
      "dur": 80
    },
    {
      "t": 1996.3,
      "ch": 1,
      "note": 36,
      "vel": 99,
      "dur": 25
    },
    {
      "t": 1996.4,
      "ch": 1,
      "note": 38,
      "vel": 97,
      "dur": 25
    },
    {
      "t": 1996.4,
      "ch": 7,
      "note": 45,
      "vel": 62,
      "dur": 80
    },
    {
      "t": 1996.4,
      "ch": 7,
      "note": 38,
      "vel": 62,
      "dur": 80
    },
    {
      "t": 1996.5,
      "ch": 1,
      "note": 40,
      "vel": 110,
      "dur": 25
    },
    {
      "t": 1996.6,
      "ch": 1,
      "note": 42,
      "vel": 90,
      "dur": 25
    },
    {
      "t": 1996.6,
      "ch": 1,
      "note": 36,
      "vel": 99,
      "dur": 25
    },
    {
      "t": 1996.8,
      "ch": 1,
      "note": 38,
      "vel": 112,
      "dur": 25
    },
    {
      "t": 1996.8,
      "ch": 1,
      "note": 40,
      "vel": 84,
      "dur": 25
    },
    {
      "t": 1996.9,
      "ch": 0,
      "note": 36,
      "vel": 92,
      "dur": 55
    },
    {
      "t": 1996.9,
      "ch": 1,
      "note": 42,
      "vel": 100,
      "dur": 25
    },
    {
      "t": 1996.9,
      "ch": 7,
      "note": 48,
      "vel": 76,
      "dur": 80
    },
    {
      "t": 1996.9,
      "ch": 7,
      "note": 36,
      "vel": 68,
      "dur": 80
    },
    {
      "t": 1997,
      "ch": 1,
      "note": 36,
      "vel": 95,
      "dur": 25
    },
    {
      "t": 1997.1,
      "ch": 1,
      "note": 38,
      "vel": 81,
      "dur": 25
    },
    {
      "t": 1997.2,
      "ch": 1,
      "note": 40,
      "vel": 99,
      "dur": 25
    },
    {
      "t": 1997.3,
      "ch": 1,
      "note": 42,
      "vel": 105,
      "dur": 25
    },
    {
      "t": 1997.3,
      "ch": 7,
      "note": 36,
      "vel": 58,
      "dur": 80
    },
    {
      "t": 1997.3,
      "ch": 7,
      "note": 45,
      "vel": 67,
      "dur": 80
    },
    {
      "t": 1997.3,
      "ch": 7,
      "note": 38,
      "vel": 67,
      "dur": 80
    },
    {
      "t": 1997.4,
      "ch": 1,
      "note": 36,
      "vel": 95,
      "dur": 25
    },
    {
      "t": 1997.5,
      "ch": 1,
      "note": 38,
      "vel": 92,
      "dur": 25
    },
    {
      "t": 1997.6,
      "ch": 1,
      "note": 40,
      "vel": 85,
      "dur": 25
    },
    {
      "t": 1997.7,
      "ch": 0,
      "note": 36,
      "vel": 91,
      "dur": 55
    },
    {
      "t": 1997.7,
      "ch": 1,
      "note": 42,
      "vel": 114,
      "dur": 25
    },
    {
      "t": 1997.7,
      "ch": 7,
      "note": 48,
      "vel": 74,
      "dur": 80
    },
    {
      "t": 1997.7,
      "ch": 7,
      "note": 36,
      "vel": 76,
      "dur": 80
    },
    {
      "t": 1997.7,
      "ch": 1,
      "note": 36,
      "vel": 97,
      "dur": 25
    },
    {
      "t": 1997.9,
      "ch": 1,
      "note": 38,
      "vel": 111,
      "dur": 25
    },
    {
      "t": 1997.9,
      "ch": 5,
      "note": 61,
      "vel": 45,
      "dur": 803
    },
    {
      "t": 1997.9,
      "ch": 1,
      "note": 40,
      "vel": 107,
      "dur": 25
    },
    {
      "t": 1998,
      "ch": 1,
      "note": 42,
      "vel": 118,
      "dur": 25
    },
    {
      "t": 1998.1,
      "ch": 1,
      "note": 36,
      "vel": 106,
      "dur": 25
    },
    {
      "t": 1998.2,
      "ch": 1,
      "note": 38,
      "vel": 98,
      "dur": 25
    },
    {
      "t": 1998.3,
      "ch": 1,
      "note": 40,
      "vel": 92,
      "dur": 25
    },
    {
      "t": 1998.4,
      "ch": 0,
      "note": 36,
      "vel": 120,
      "dur": 55
    },
    {
      "t": 1998.4,
      "ch": 1,
      "note": 42,
      "vel": 122,
      "dur": 25
    },
    {
      "t": 1998.4,
      "ch": 7,
      "note": 48,
      "vel": 77,
      "dur": 80
    },
    {
      "t": 1998.4,
      "ch": 7,
      "note": 45,
      "vel": 71,
      "dur": 80
    },
    {
      "t": 1998.4,
      "ch": 7,
      "note": 36,
      "vel": 76,
      "dur": 80
    },
    {
      "t": 1998.4,
      "ch": 7,
      "note": 38,
      "vel": 81,
      "dur": 80
    },
    {
      "t": 1998.5,
      "ch": 1,
      "note": 36,
      "vel": 119,
      "dur": 25
    },
    {
      "t": 1998.6,
      "ch": 1,
      "note": 38,
      "vel": 105,
      "dur": 25
    },
    {
      "t": 1998.6,
      "ch": 5,
      "note": 68,
      "vel": 34,
      "dur": 808
    },
    {
      "t": 1998.7,
      "ch": 1,
      "note": 40,
      "vel": 98,
      "dur": 25
    },
    {
      "t": 1998.8,
      "ch": 1,
      "note": 42,
      "vel": 81,
      "dur": 25
    },
    {
      "t": 1998.8,
      "ch": 7,
      "note": 36,
      "vel": 59,
      "dur": 80
    },
    {
      "t": 1998.8,
      "ch": 1,
      "note": 36,
      "vel": 90,
      "dur": 25
    },
    {
      "t": 1999,
      "ch": 1,
      "note": 38,
      "vel": 111,
      "dur": 25
    },
    {
      "t": 1999,
      "ch": 1,
      "note": 40,
      "vel": 87,
      "dur": 25
    },
    {
      "t": 1999.1,
      "ch": 0,
      "note": 36,
      "vel": 92,
      "dur": 55
    },
    {
      "t": 1999.1,
      "ch": 1,
      "note": 42,
      "vel": 109,
      "dur": 25
    },
    {
      "t": 1999.1,
      "ch": 7,
      "note": 48,
      "vel": 75,
      "dur": 80
    },
    {
      "t": 1999.1,
      "ch": 7,
      "note": 36,
      "vel": 82,
      "dur": 80
    },
    {
      "t": 1999.2,
      "ch": 1,
      "note": 36,
      "vel": 112,
      "dur": 25
    },
    {
      "t": 1999.3,
      "ch": 1,
      "note": 38,
      "vel": 111,
      "dur": 25
    },
    {
      "t": 1999.3,
      "ch": 7,
      "note": 45,
      "vel": 71,
      "dur": 80
    },
    {
      "t": 1999.3,
      "ch": 7,
      "note": 38,
      "vel": 53,
      "dur": 80
    },
    {
      "t": 1999.4,
      "ch": 1,
      "note": 40,
      "vel": 112,
      "dur": 25
    },
    {
      "t": 1999.5,
      "ch": 1,
      "note": 42,
      "vel": 83,
      "dur": 25
    },
    {
      "t": 1999.6,
      "ch": 1,
      "note": 36,
      "vel": 104,
      "dur": 25
    },
    {
      "t": 1999.7,
      "ch": 1,
      "note": 38,
      "vel": 90,
      "dur": 25
    },
    {
      "t": 1999.8,
      "ch": 1,
      "note": 40,
      "vel": 92,
      "dur": 25
    },
    {
      "t": 1999.8,
      "ch": 2,
      "note": 52,
      "vel": 54,
      "dur": 21951
    },
    {
      "t": 1999.8,
      "ch": 2,
      "note": 64,
      "vel": 38,
      "dur": 21951
    },
    {
      "t": 1999.9,
      "ch": 0,
      "note": 36,
      "vel": 93,
      "dur": 55
    },
    {
      "t": 1999.9,
      "ch": 1,
      "note": 42,
      "vel": 127,
      "dur": 25
    },
    {
      "t": 1999.9,
      "ch": 7,
      "note": 48,
      "vel": 69,
      "dur": 80
    },
    {
      "t": 1999.9,
      "ch": 7,
      "note": 36,
      "vel": 75,
      "dur": 80
    },
    {
      "t": 1999.9,
      "ch": 1,
      "note": 36,
      "vel": 90,
      "dur": 25
    },
    {
      "t": 2000.1,
      "ch": 1,
      "note": 38,
      "vel": 85,
      "dur": 25
    },
    {
      "t": 2000.1,
      "ch": 1,
      "note": 40,
      "vel": 98,
      "dur": 25
    },
    {
      "t": 2000.2,
      "ch": 1,
      "note": 42,
      "vel": 99,
      "dur": 25
    },
    {
      "t": 2000.2,
      "ch": 7,
      "note": 36,
      "vel": 58,
      "dur": 80
    },
    {
      "t": 2000.2,
      "ch": 7,
      "note": 45,
      "vel": 71,
      "dur": 80
    },
    {
      "t": 2000.2,
      "ch": 7,
      "note": 38,
      "vel": 65,
      "dur": 80
    },
    {
      "t": 2000.3,
      "ch": 1,
      "note": 36,
      "vel": 106,
      "dur": 25
    },
    {
      "t": 2000.4,
      "ch": 1,
      "note": 38,
      "vel": 103,
      "dur": 25
    },
    {
      "t": 2000.5,
      "ch": 1,
      "note": 40,
      "vel": 77,
      "dur": 25
    },
    {
      "t": 2000.6,
      "ch": 0,
      "note": 36,
      "vel": 84,
      "dur": 55
    },
    {
      "t": 2000.6,
      "ch": 1,
      "note": 42,
      "vel": 95,
      "dur": 25
    },
    {
      "t": 2000.6,
      "ch": 7,
      "note": 48,
      "vel": 72,
      "dur": 80
    },
    {
      "t": 2000.6,
      "ch": 7,
      "note": 36,
      "vel": 56,
      "dur": 80
    },
    {
      "t": 2000.7,
      "ch": 1,
      "note": 36,
      "vel": 109,
      "dur": 25
    },
    {
      "t": 2000.8,
      "ch": 1,
      "note": 38,
      "vel": 109,
      "dur": 25
    },
    {
      "t": 2000.8,
      "ch": 1,
      "note": 40,
      "vel": 108,
      "dur": 25
    },
    {
      "t": 2001,
      "ch": 1,
      "note": 42,
      "vel": 110,
      "dur": 25
    },
    {
      "t": 2001,
      "ch": 1,
      "note": 36,
      "vel": 86,
      "dur": 25
    },
    {
      "t": 2001.2,
      "ch": 1,
      "note": 38,
      "vel": 102,
      "dur": 25
    },
    {
      "t": 2001.2,
      "ch": 1,
      "note": 40,
      "vel": 92,
      "dur": 25
    },
    {
      "t": 2001.3,
      "ch": 0,
      "note": 36,
      "vel": 110,
      "dur": 55
    },
    {
      "t": 2001.3,
      "ch": 1,
      "note": 42,
      "vel": 124,
      "dur": 25
    },
    {
      "t": 2001.3,
      "ch": 7,
      "note": 48,
      "vel": 68,
      "dur": 80
    },
    {
      "t": 2001.3,
      "ch": 7,
      "note": 45,
      "vel": 76,
      "dur": 80
    },
    {
      "t": 2001.3,
      "ch": 7,
      "note": 36,
      "vel": 73,
      "dur": 80
    },
    {
      "t": 2001.3,
      "ch": 7,
      "note": 38,
      "vel": 73,
      "dur": 80
    },
    {
      "t": 2001.4,
      "ch": 1,
      "note": 36,
      "vel": 99,
      "dur": 25
    },
    {
      "t": 2001.5,
      "ch": 1,
      "note": 38,
      "vel": 126,
      "dur": 25
    },
    {
      "t": 2001.6,
      "ch": 1,
      "note": 40,
      "vel": 102,
      "dur": 25
    },
    {
      "t": 2001.7,
      "ch": 1,
      "note": 42,
      "vel": 88,
      "dur": 25
    },
    {
      "t": 2001.7,
      "ch": 7,
      "note": 36,
      "vel": 49,
      "dur": 80
    },
    {
      "t": 2001.8,
      "ch": 1,
      "note": 36,
      "vel": 105,
      "dur": 25
    },
    {
      "t": 2001.9,
      "ch": 1,
      "note": 38,
      "vel": 106,
      "dur": 25
    },
    {
      "t": 2001.9,
      "ch": 1,
      "note": 40,
      "vel": 104,
      "dur": 25
    },
    {
      "t": 2002.1,
      "ch": 0,
      "note": 36,
      "vel": 97,
      "dur": 55
    },
    {
      "t": 2002.1,
      "ch": 1,
      "note": 42,
      "vel": 117,
      "dur": 25
    },
    {
      "t": 2002.1,
      "ch": 7,
      "note": 48,
      "vel": 85,
      "dur": 80
    },
    {
      "t": 2002.1,
      "ch": 7,
      "note": 36,
      "vel": 64,
      "dur": 80
    },
    {
      "t": 2002.1,
      "ch": 1,
      "note": 36,
      "vel": 125,
      "dur": 25
    },
    {
      "t": 2002.2,
      "ch": 1,
      "note": 38,
      "vel": 92,
      "dur": 25
    },
    {
      "t": 2002.3,
      "ch": 7,
      "note": 38,
      "vel": 53,
      "dur": 80
    },
    {
      "t": 2002.3,
      "ch": 7,
      "note": 45,
      "vel": 65,
      "dur": 80
    },
    {
      "t": 2002.3,
      "ch": 1,
      "note": 40,
      "vel": 82,
      "dur": 25
    },
    {
      "t": 2002.4,
      "ch": 1,
      "note": 42,
      "vel": 96,
      "dur": 25
    },
    {
      "t": 2002.5,
      "ch": 1,
      "note": 36,
      "vel": 97,
      "dur": 25
    },
    {
      "t": 2002.6,
      "ch": 1,
      "note": 38,
      "vel": 108,
      "dur": 25
    },
    {
      "t": 2002.7,
      "ch": 1,
      "note": 40,
      "vel": 110,
      "dur": 25
    },
    {
      "t": 2002.8,
      "ch": 0,
      "note": 36,
      "vel": 93,
      "dur": 55
    },
    {
      "t": 2002.8,
      "ch": 1,
      "note": 42,
      "vel": 113,
      "dur": 25
    },
    {
      "t": 2002.8,
      "ch": 7,
      "note": 48,
      "vel": 60,
      "dur": 80
    },
    {
      "t": 2002.8,
      "ch": 7,
      "note": 36,
      "vel": 81,
      "dur": 80
    },
    {
      "t": 2002.9,
      "ch": 1,
      "note": 36,
      "vel": 118,
      "dur": 25
    },
    {
      "t": 2003,
      "ch": 1,
      "note": 38,
      "vel": 121,
      "dur": 25
    },
    {
      "t": 2003,
      "ch": 1,
      "note": 40,
      "vel": 107,
      "dur": 25
    },
    {
      "t": 2003.2,
      "ch": 1,
      "note": 42,
      "vel": 125,
      "dur": 25
    },
    {
      "t": 2003.2,
      "ch": 7,
      "note": 36,
      "vel": 65,
      "dur": 80
    },
    {
      "t": 2003.2,
      "ch": 7,
      "note": 45,
      "vel": 55,
      "dur": 80
    },
    {
      "t": 2003.2,
      "ch": 7,
      "note": 38,
      "vel": 71,
      "dur": 80
    },
    {
      "t": 2003.2,
      "ch": 1,
      "note": 36,
      "vel": 93,
      "dur": 25
    },
    {
      "t": 2003.3,
      "ch": 1,
      "note": 38,
      "vel": 100,
      "dur": 25
    },
    {
      "t": 2003.4,
      "ch": 1,
      "note": 40,
      "vel": 113,
      "dur": 25
    },
    {
      "t": 2003.5,
      "ch": 0,
      "note": 36,
      "vel": 90,
      "dur": 55
    },
    {
      "t": 2003.5,
      "ch": 1,
      "note": 42,
      "vel": 127,
      "dur": 25
    },
    {
      "t": 2003.5,
      "ch": 7,
      "note": 48,
      "vel": 60,
      "dur": 80
    },
    {
      "t": 2003.5,
      "ch": 7,
      "note": 36,
      "vel": 72,
      "dur": 80
    },
    {
      "t": 2003.6,
      "ch": 1,
      "note": 36,
      "vel": 122,
      "dur": 25
    },
    {
      "t": 2003.7,
      "ch": 1,
      "note": 38,
      "vel": 115,
      "dur": 25
    },
    {
      "t": 2003.7,
      "ch": 5,
      "note": 73,
      "vel": 37,
      "dur": 827
    },
    {
      "t": 2003.8,
      "ch": 1,
      "note": 40,
      "vel": 86,
      "dur": 25
    },
    {
      "t": 2003.9,
      "ch": 1,
      "note": 42,
      "vel": 107,
      "dur": 25
    },
    {
      "t": 2004,
      "ch": 1,
      "note": 36,
      "vel": 98,
      "dur": 25
    },
    {
      "t": 2004.1,
      "ch": 1,
      "note": 38,
      "vel": 84,
      "dur": 25
    },
    {
      "t": 2004.1,
      "ch": 1,
      "note": 40,
      "vel": 88,
      "dur": 25
    },
    {
      "t": 2004.3,
      "ch": 1,
      "note": 42,
      "vel": 95,
      "dur": 25
    },
    {
      "t": 2004.3,
      "ch": 7,
      "note": 48,
      "vel": 72,
      "dur": 80
    },
    {
      "t": 2004.3,
      "ch": 7,
      "note": 45,
      "vel": 64,
      "dur": 80
    },
    {
      "t": 2004.3,
      "ch": 7,
      "note": 36,
      "vel": 68,
      "dur": 80
    },
    {
      "t": 2004.3,
      "ch": 7,
      "note": 38,
      "vel": 80,
      "dur": 80
    },
    {
      "t": 2004.3,
      "ch": 1,
      "note": 36,
      "vel": 105,
      "dur": 25
    },
    {
      "t": 2004.4,
      "ch": 1,
      "note": 38,
      "vel": 109,
      "dur": 25
    },
    {
      "t": 2004.5,
      "ch": 1,
      "note": 40,
      "vel": 76,
      "dur": 25
    },
    {
      "t": 2004.6,
      "ch": 1,
      "note": 42,
      "vel": 92,
      "dur": 25
    },
    {
      "t": 2004.6,
      "ch": 7,
      "note": 36,
      "vel": 68,
      "dur": 80
    },
    {
      "t": 2004.7,
      "ch": 1,
      "note": 36,
      "vel": 88,
      "dur": 25
    },
    {
      "t": 2004.8,
      "ch": 1,
      "note": 38,
      "vel": 96,
      "dur": 25
    },
    {
      "t": 2004.9,
      "ch": 1,
      "note": 40,
      "vel": 83,
      "dur": 25
    },
    {
      "t": 2005,
      "ch": 1,
      "note": 42,
      "vel": 107,
      "dur": 25
    },
    {
      "t": 2005,
      "ch": 7,
      "note": 48,
      "vel": 65,
      "dur": 80
    },
    {
      "t": 2005,
      "ch": 7,
      "note": 36,
      "vel": 70,
      "dur": 80
    },
    {
      "t": 2005,
      "ch": 5,
      "note": 68,
      "vel": 31,
      "dur": 825
    },
    {
      "t": 2005,
      "ch": 6,
      "note": 55,
      "vel": 39,
      "dur": 550
    },
    {
      "t": 2005.1,
      "ch": 1,
      "note": 36,
      "vel": 105,
      "dur": 25
    },
    {
      "t": 2005.2,
      "ch": 1,
      "note": 38,
      "vel": 94,
      "dur": 25
    },
    {
      "t": 2005.2,
      "ch": 7,
      "note": 38,
      "vel": 62,
      "dur": 80
    },
    {
      "t": 2005.2,
      "ch": 7,
      "note": 45,
      "vel": 59,
      "dur": 80
    },
    {
      "t": 2005.2,
      "ch": 1,
      "note": 40,
      "vel": 92,
      "dur": 25
    },
    {
      "t": 2005.4,
      "ch": 1,
      "note": 42,
      "vel": 115,
      "dur": 25
    },
    {
      "t": 2005.4,
      "ch": 1,
      "note": 36,
      "vel": 100,
      "dur": 25
    },
    {
      "t": 2005.6,
      "ch": 1,
      "note": 38,
      "vel": 89,
      "dur": 25
    },
    {
      "t": 2005.6,
      "ch": 1,
      "note": 40,
      "vel": 93,
      "dur": 25
    },
    {
      "t": 2005.6,
      "ch": 4,
      "note": 59,
      "vel": 38,
      "dur": 5803
    },
    {
      "t": 2005.7,
      "ch": 1,
      "note": 42,
      "vel": 92,
      "dur": 25
    },
    {
      "t": 2005.7,
      "ch": 7,
      "note": 48,
      "vel": 72,
      "dur": 80
    },
    {
      "t": 2005.7,
      "ch": 7,
      "note": 36,
      "vel": 64,
      "dur": 80
    },
    {
      "t": 2005.8,
      "ch": 5,
      "note": 66,
      "vel": 33,
      "dur": 823
    },
    {
      "t": 2005.8,
      "ch": 1,
      "note": 36,
      "vel": 87,
      "dur": 25
    },
    {
      "t": 2005.9,
      "ch": 1,
      "note": 38,
      "vel": 88,
      "dur": 25
    },
    {
      "t": 2006,
      "ch": 1,
      "note": 40,
      "vel": 98,
      "dur": 25
    },
    {
      "t": 2006.1,
      "ch": 1,
      "note": 42,
      "vel": 107,
      "dur": 25
    },
    {
      "t": 2006.1,
      "ch": 7,
      "note": 36,
      "vel": 71,
      "dur": 80
    },
    {
      "t": 2006.1,
      "ch": 5,
      "note": 59,
      "vel": 36,
      "dur": 822
    },
    {
      "t": 2006.1,
      "ch": 7,
      "note": 38,
      "vel": 66,
      "dur": 80
    },
    {
      "t": 2006.1,
      "ch": 7,
      "note": 45,
      "vel": 76,
      "dur": 80
    },
    {
      "t": 2006.2,
      "ch": 1,
      "note": 36,
      "vel": 100,
      "dur": 25
    },
    {
      "t": 2006.3,
      "ch": 1,
      "note": 38,
      "vel": 79,
      "dur": 25
    },
    {
      "t": 2006.3,
      "ch": 1,
      "note": 40,
      "vel": 82,
      "dur": 25
    },
    {
      "t": 2006.5,
      "ch": 1,
      "note": 42,
      "vel": 127,
      "dur": 25
    },
    {
      "t": 2006.5,
      "ch": 7,
      "note": 48,
      "vel": 64,
      "dur": 80
    },
    {
      "t": 2006.5,
      "ch": 7,
      "note": 36,
      "vel": 72,
      "dur": 80
    },
    {
      "t": 2006.5,
      "ch": 1,
      "note": 36,
      "vel": 112,
      "dur": 25
    },
    {
      "t": 2006.6,
      "ch": 1,
      "note": 38,
      "vel": 101,
      "dur": 25
    },
    {
      "t": 2006.7,
      "ch": 1,
      "note": 40,
      "vel": 99,
      "dur": 25
    },
    {
      "t": 2006.8,
      "ch": 1,
      "note": 42,
      "vel": 89,
      "dur": 25
    },
    {
      "t": 2006.8,
      "ch": 5,
      "note": 61,
      "vel": 41,
      "dur": 819
    },
    {
      "t": 2006.9,
      "ch": 1,
      "note": 36,
      "vel": 96,
      "dur": 25
    },
    {
      "t": 2007,
      "ch": 1,
      "note": 38,
      "vel": 65,
      "dur": 25
    },
    {
      "t": 2007,
      "ch": 5,
      "note": 68,
      "vel": 40,
      "dur": 818
    },
    {
      "t": 2007.1,
      "ch": 1,
      "note": 40,
      "vel": 75,
      "dur": 25
    },
    {
      "t": 2007.2,
      "ch": 1,
      "note": 42,
      "vel": 83,
      "dur": 25
    },
    {
      "t": 2007.2,
      "ch": 7,
      "note": 48,
      "vel": 79,
      "dur": 80
    },
    {
      "t": 2007.2,
      "ch": 7,
      "note": 45,
      "vel": 75,
      "dur": 80
    },
    {
      "t": 2007.2,
      "ch": 7,
      "note": 36,
      "vel": 71,
      "dur": 80
    },
    {
      "t": 2007.2,
      "ch": 7,
      "note": 38,
      "vel": 60,
      "dur": 80
    },
    {
      "t": 2007.3,
      "ch": 1,
      "note": 36,
      "vel": 110,
      "dur": 25
    },
    {
      "t": 2007.3,
      "ch": 6,
      "note": 65,
      "vel": 41,
      "dur": 400
    },
    {
      "t": 2007.4,
      "ch": 1,
      "note": 38,
      "vel": 88,
      "dur": 25
    },
    {
      "t": 2007.4,
      "ch": 1,
      "note": 40,
      "vel": 79,
      "dur": 25
    },
    {
      "t": 2007.6,
      "ch": 1,
      "note": 42,
      "vel": 87,
      "dur": 25
    },
    {
      "t": 2007.6,
      "ch": 7,
      "note": 36,
      "vel": 53,
      "dur": 80
    },
    {
      "t": 2007.6,
      "ch": 1,
      "note": 36,
      "vel": 94,
      "dur": 25
    },
    {
      "t": 2007.7,
      "ch": 1,
      "note": 38,
      "vel": 93,
      "dur": 25
    },
    {
      "t": 2007.8,
      "ch": 1,
      "note": 40,
      "vel": 84,
      "dur": 25
    },
    {
      "t": 2007.9,
      "ch": 1,
      "note": 42,
      "vel": 97,
      "dur": 25
    },
    {
      "t": 2007.9,
      "ch": 7,
      "note": 48,
      "vel": 77,
      "dur": 80
    },
    {
      "t": 2007.9,
      "ch": 7,
      "note": 36,
      "vel": 78,
      "dur": 80
    },
    {
      "t": 2008,
      "ch": 1,
      "note": 36,
      "vel": 102,
      "dur": 25
    },
    {
      "t": 2008.1,
      "ch": 1,
      "note": 38,
      "vel": 84,
      "dur": 25
    },
    {
      "t": 2008.1,
      "ch": 7,
      "note": 38,
      "vel": 55,
      "dur": 80
    },
    {
      "t": 2008.1,
      "ch": 7,
      "note": 45,
      "vel": 67,
      "dur": 80
    },
    {
      "t": 2008.2,
      "ch": 1,
      "note": 40,
      "vel": 102,
      "dur": 25
    },
    {
      "t": 2008.3,
      "ch": 1,
      "note": 42,
      "vel": 66,
      "dur": 25
    },
    {
      "t": 2008.4,
      "ch": 1,
      "note": 36,
      "vel": 79,
      "dur": 25
    },
    {
      "t": 2008.5,
      "ch": 1,
      "note": 38,
      "vel": 79,
      "dur": 25
    },
    {
      "t": 2008.5,
      "ch": 1,
      "note": 40,
      "vel": 90,
      "dur": 25
    },
    {
      "t": 2008.7,
      "ch": 1,
      "note": 42,
      "vel": 111,
      "dur": 25
    },
    {
      "t": 2008.7,
      "ch": 7,
      "note": 48,
      "vel": 64,
      "dur": 80
    },
    {
      "t": 2008.7,
      "ch": 7,
      "note": 36,
      "vel": 54,
      "dur": 80
    },
    {
      "t": 2008.7,
      "ch": 5,
      "note": 73,
      "vel": 27,
      "dur": 811
    },
    {
      "t": 2008.7,
      "ch": 1,
      "note": 36,
      "vel": 105,
      "dur": 25
    },
    {
      "t": 2008.8,
      "ch": 1,
      "note": 38,
      "vel": 106,
      "dur": 25
    },
    {
      "t": 2008.9,
      "ch": 1,
      "note": 40,
      "vel": 81,
      "dur": 25
    },
    {
      "t": 2009,
      "ch": 1,
      "note": 42,
      "vel": 77,
      "dur": 25
    },
    {
      "t": 2009,
      "ch": 7,
      "note": 38,
      "vel": 75,
      "dur": 80
    },
    {
      "t": 2009,
      "ch": 7,
      "note": 36,
      "vel": 59,
      "dur": 80
    },
    {
      "t": 2009,
      "ch": 7,
      "note": 45,
      "vel": 55,
      "dur": 80
    },
    {
      "t": 2009.1,
      "ch": 5,
      "note": 68,
      "vel": 27,
      "dur": 809
    },
    {
      "t": 2009.1,
      "ch": 1,
      "note": 36,
      "vel": 91,
      "dur": 25
    },
    {
      "t": 2009.2,
      "ch": 1,
      "note": 38,
      "vel": 74,
      "dur": 25
    },
    {
      "t": 2009.2,
      "ch": 5,
      "note": 66,
      "vel": 35,
      "dur": 808
    },
    {
      "t": 2009.3,
      "ch": 1,
      "note": 40,
      "vel": 89,
      "dur": 25
    },
    {
      "t": 2009.4,
      "ch": 1,
      "note": 42,
      "vel": 114,
      "dur": 25
    },
    {
      "t": 2009.4,
      "ch": 7,
      "note": 48,
      "vel": 78,
      "dur": 80
    },
    {
      "t": 2009.4,
      "ch": 7,
      "note": 36,
      "vel": 75,
      "dur": 80
    },
    {
      "t": 2009.5,
      "ch": 1,
      "note": 36,
      "vel": 119,
      "dur": 25
    },
    {
      "t": 2009.6,
      "ch": 1,
      "note": 38,
      "vel": 81,
      "dur": 25
    },
    {
      "t": 2009.6,
      "ch": 6,
      "note": 62,
      "vel": 36,
      "dur": 537
    },
    {
      "t": 2009.6,
      "ch": 1,
      "note": 40,
      "vel": 107,
      "dur": 25
    },
    {
      "t": 2009.8,
      "ch": 1,
      "note": 42,
      "vel": 90,
      "dur": 25
    },
    {
      "t": 2009.8,
      "ch": 1,
      "note": 36,
      "vel": 78,
      "dur": 25
    },
    {
      "t": 2009.9,
      "ch": 1,
      "note": 38,
      "vel": 91,
      "dur": 25
    },
    {
      "t": 2010,
      "ch": 1,
      "note": 40,
      "vel": 91,
      "dur": 25
    },
    {
      "t": 2010.1,
      "ch": 0,
      "note": 36,
      "vel": 127,
      "dur": 55
    },
    {
      "t": 2010.1,
      "ch": 1,
      "note": 42,
      "vel": 125,
      "dur": 25
    },
    {
      "t": 2010.1,
      "ch": 7,
      "note": 48,
      "vel": 68,
      "dur": 80
    },
    {
      "t": 2010.1,
      "ch": 7,
      "note": 45,
      "vel": 75,
      "dur": 80
    },
    {
      "t": 2010.1,
      "ch": 7,
      "note": 36,
      "vel": 79,
      "dur": 80
    },
    {
      "t": 2010.1,
      "ch": 7,
      "note": 38,
      "vel": 65,
      "dur": 80
    },
    {
      "t": 2010.2,
      "ch": 1,
      "note": 36,
      "vel": 121,
      "dur": 25
    },
    {
      "t": 2010.3,
      "ch": 1,
      "note": 38,
      "vel": 98,
      "dur": 25
    },
    {
      "t": 2010.4,
      "ch": 1,
      "note": 40,
      "vel": 112,
      "dur": 25
    },
    {
      "t": 2010.5,
      "ch": 1,
      "note": 42,
      "vel": 69,
      "dur": 25
    },
    {
      "t": 2010.5,
      "ch": 5,
      "note": 59,
      "vel": 43,
      "dur": 802
    },
    {
      "t": 2010.5,
      "ch": 7,
      "note": 36,
      "vel": 58,
      "dur": 80
    },
    {
      "t": 2010.6,
      "ch": 1,
      "note": 36,
      "vel": 111,
      "dur": 25
    },
    {
      "t": 2010.7,
      "ch": 1,
      "note": 38,
      "vel": 79,
      "dur": 25
    },
    {
      "t": 2010.7,
      "ch": 1,
      "note": 40,
      "vel": 90,
      "dur": 25
    },
    {
      "t": 2010.8,
      "ch": 0,
      "note": 36,
      "vel": 89,
      "dur": 55
    },
    {
      "t": 2010.8,
      "ch": 1,
      "note": 42,
      "vel": 107,
      "dur": 25
    },
    {
      "t": 2010.8,
      "ch": 7,
      "note": 48,
      "vel": 69,
      "dur": 80
    },
    {
      "t": 2010.8,
      "ch": 7,
      "note": 36,
      "vel": 68,
      "dur": 80
    },
    {
      "t": 2010.9,
      "ch": 1,
      "note": 36,
      "vel": 118,
      "dur": 25
    },
    {
      "t": 2011,
      "ch": 1,
      "note": 38,
      "vel": 95,
      "dur": 25
    },
    {
      "t": 2011.1,
      "ch": 7,
      "note": 38,
      "vel": 50,
      "dur": 80
    },
    {
      "t": 2011.1,
      "ch": 7,
      "note": 45,
      "vel": 64,
      "dur": 80
    },
    {
      "t": 2011.1,
      "ch": 1,
      "note": 40,
      "vel": 82,
      "dur": 25
    },
    {
      "t": 2011.2,
      "ch": 1,
      "note": 42,
      "vel": 75,
      "dur": 25
    },
    {
      "t": 2011.3,
      "ch": 1,
      "note": 36,
      "vel": 83,
      "dur": 25
    },
    {
      "t": 2011.4,
      "ch": 1,
      "note": 38,
      "vel": 117,
      "dur": 25
    },
    {
      "t": 2011.5,
      "ch": 1,
      "note": 40,
      "vel": 98,
      "dur": 25
    },
    {
      "t": 2011.5,
      "ch": 2,
      "note": 52,
      "vel": 55,
      "dur": 21951
    },
    {
      "t": 2011.5,
      "ch": 2,
      "note": 64,
      "vel": 39,
      "dur": 21951
    },
    {
      "t": 2011.5,
      "ch": 4,
      "note": 59,
      "vel": 40,
      "dur": 5803
    },
    {
      "t": 2011.5,
      "ch": 3,
      "note": 47,
      "vel": 44,
      "dur": 5853
    },
    {
      "t": 2011.6,
      "ch": 0,
      "note": 36,
      "vel": 86,
      "dur": 55
    },
    {
      "t": 2011.6,
      "ch": 1,
      "note": 42,
      "vel": 79,
      "dur": 25
    },
    {
      "t": 2011.6,
      "ch": 7,
      "note": 48,
      "vel": 77,
      "dur": 80
    },
    {
      "t": 2011.6,
      "ch": 7,
      "note": 36,
      "vel": 67,
      "dur": 80
    },
    {
      "t": 2011.6,
      "ch": 1,
      "note": 36,
      "vel": 114,
      "dur": 25
    },
    {
      "t": 2011.8,
      "ch": 1,
      "note": 38,
      "vel": 99,
      "dur": 25
    },
    {
      "t": 2011.8,
      "ch": 1,
      "note": 40,
      "vel": 95,
      "dur": 25
    },
    {
      "t": 2011.9,
      "ch": 1,
      "note": 42,
      "vel": 81,
      "dur": 25
    },
    {
      "t": 2012,
      "ch": 7,
      "note": 38,
      "vel": 70,
      "dur": 80
    },
    {
      "t": 2012,
      "ch": 7,
      "note": 45,
      "vel": 57,
      "dur": 80
    },
    {
      "t": 2012,
      "ch": 7,
      "note": 36,
      "vel": 57,
      "dur": 80
    },
    {
      "t": 2012,
      "ch": 1,
      "note": 36,
      "vel": 97,
      "dur": 25
    },
    {
      "t": 2012.1,
      "ch": 1,
      "note": 38,
      "vel": 92,
      "dur": 25
    },
    {
      "t": 2012.2,
      "ch": 1,
      "note": 40,
      "vel": 95,
      "dur": 25
    },
    {
      "t": 2012.3,
      "ch": 0,
      "note": 36,
      "vel": 86,
      "dur": 55
    },
    {
      "t": 2012.3,
      "ch": 1,
      "note": 42,
      "vel": 101,
      "dur": 25
    },
    {
      "t": 2012.3,
      "ch": 7,
      "note": 48,
      "vel": 56,
      "dur": 80
    },
    {
      "t": 2012.3,
      "ch": 7,
      "note": 36,
      "vel": 64,
      "dur": 80
    },
    {
      "t": 2012.4,
      "ch": 1,
      "note": 36,
      "vel": 87,
      "dur": 25
    },
    {
      "t": 2012.5,
      "ch": 1,
      "note": 38,
      "vel": 98,
      "dur": 25
    },
    {
      "t": 2012.6,
      "ch": 1,
      "note": 40,
      "vel": 112,
      "dur": 25
    },
    {
      "t": 2012.7,
      "ch": 1,
      "note": 42,
      "vel": 80,
      "dur": 25
    },
    {
      "t": 2012.7,
      "ch": 5,
      "note": 61,
      "vel": 23,
      "dur": 797
    },
    {
      "t": 2012.7,
      "ch": 1,
      "note": 36,
      "vel": 80,
      "dur": 25
    },
    {
      "t": 2012.9,
      "ch": 1,
      "note": 38,
      "vel": 83,
      "dur": 25
    },
    {
      "t": 2012.9,
      "ch": 5,
      "note": 68,
      "vel": 38,
      "dur": 796
    },
    {
      "t": 2012.9,
      "ch": 1,
      "note": 40,
      "vel": 97,
      "dur": 25
    },
    {
      "t": 2012.9,
      "ch": 6,
      "note": 64,
      "vel": 39,
      "dur": 400
    },
    {
      "t": 2013,
      "ch": 0,
      "note": 36,
      "vel": 110,
      "dur": 55
    },
    {
      "t": 2013,
      "ch": 1,
      "note": 42,
      "vel": 99,
      "dur": 25
    },
    {
      "t": 2013,
      "ch": 7,
      "note": 48,
      "vel": 71,
      "dur": 80
    },
    {
      "t": 2013,
      "ch": 7,
      "note": 45,
      "vel": 70,
      "dur": 80
    },
    {
      "t": 2013,
      "ch": 7,
      "note": 36,
      "vel": 84,
      "dur": 80
    },
    {
      "t": 2013,
      "ch": 7,
      "note": 38,
      "vel": 68,
      "dur": 80
    },
    {
      "t": 2013.1,
      "ch": 1,
      "note": 36,
      "vel": 116,
      "dur": 25
    },
    {
      "t": 2013.2,
      "ch": 1,
      "note": 38,
      "vel": 109,
      "dur": 25
    },
    {
      "t": 2013.3,
      "ch": 6,
      "note": 67,
      "vel": 19,
      "dur": 531
    },
    {
      "t": 2013.3,
      "ch": 1,
      "note": 40,
      "vel": 78,
      "dur": 25
    },
    {
      "t": 2013.4,
      "ch": 1,
      "note": 42,
      "vel": 86,
      "dur": 25
    },
    {
      "t": 2013.4,
      "ch": 7,
      "note": 36,
      "vel": 57,
      "dur": 80
    },
    {
      "t": 2013.5,
      "ch": 1,
      "note": 36,
      "vel": 97,
      "dur": 25
    },
    {
      "t": 2013.6,
      "ch": 1,
      "note": 38,
      "vel": 101,
      "dur": 25
    },
    {
      "t": 2013.7,
      "ch": 1,
      "note": 40,
      "vel": 79,
      "dur": 25
    },
    {
      "t": 2013.8,
      "ch": 0,
      "note": 36,
      "vel": 84,
      "dur": 55
    },
    {
      "t": 2013.8,
      "ch": 1,
      "note": 42,
      "vel": 107,
      "dur": 25
    },
    {
      "t": 2013.8,
      "ch": 7,
      "note": 48,
      "vel": 71,
      "dur": 80
    },
    {
      "t": 2013.8,
      "ch": 7,
      "note": 36,
      "vel": 76,
      "dur": 80
    },
    {
      "t": 2013.8,
      "ch": 1,
      "note": 36,
      "vel": 97,
      "dur": 25
    },
    {
      "t": 2014,
      "ch": 1,
      "note": 38,
      "vel": 66,
      "dur": 25
    },
    {
      "t": 2014,
      "ch": 7,
      "note": 38,
      "vel": 58,
      "dur": 80
    },
    {
      "t": 2014,
      "ch": 7,
      "note": 45,
      "vel": 66,
      "dur": 80
    },
    {
      "t": 2014,
      "ch": 1,
      "note": 40,
      "vel": 85,
      "dur": 25
    },
    {
      "t": 2014.1,
      "ch": 1,
      "note": 42,
      "vel": 82,
      "dur": 25
    },
    {
      "t": 2014.2,
      "ch": 1,
      "note": 36,
      "vel": 76,
      "dur": 25
    },
    {
      "t": 2014.3,
      "ch": 1,
      "note": 38,
      "vel": 90,
      "dur": 25
    },
    {
      "t": 2014.4,
      "ch": 1,
      "note": 40,
      "vel": 100,
      "dur": 25
    },
    {
      "t": 2014.5,
      "ch": 0,
      "note": 36,
      "vel": 86,
      "dur": 55
    },
    {
      "t": 2014.5,
      "ch": 1,
      "note": 42,
      "vel": 123,
      "dur": 25
    },
    {
      "t": 2014.5,
      "ch": 7,
      "note": 48,
      "vel": 61,
      "dur": 80
    },
    {
      "t": 2014.5,
      "ch": 7,
      "note": 36,
      "vel": 57,
      "dur": 80
    },
    {
      "t": 2014.6,
      "ch": 1,
      "note": 36,
      "vel": 91,
      "dur": 25
    },
    {
      "t": 2014.7,
      "ch": 1,
      "note": 38,
      "vel": 107,
      "dur": 25
    },
    {
      "t": 2014.8,
      "ch": 1,
      "note": 40,
      "vel": 105,
      "dur": 25
    },
    {
      "t": 2014.9,
      "ch": 1,
      "note": 42,
      "vel": 87,
      "dur": 25
    },
    {
      "t": 2014.9,
      "ch": 7,
      "note": 36,
      "vel": 60,
      "dur": 80
    },
    {
      "t": 2014.9,
      "ch": 7,
      "note": 45,
      "vel": 64,
      "dur": 80
    },
    {
      "t": 2014.9,
      "ch": 7,
      "note": 38,
      "vel": 71,
      "dur": 80
    },
    {
      "t": 2014.9,
      "ch": 1,
      "note": 36,
      "vel": 101,
      "dur": 25
    },
    {
      "t": 2015.1,
      "ch": 1,
      "note": 38,
      "vel": 89,
      "dur": 25
    },
    {
      "t": 2015.1,
      "ch": 1,
      "note": 40,
      "vel": 94,
      "dur": 25
    },
    {
      "t": 2015.2,
      "ch": 0,
      "note": 36,
      "vel": 95,
      "dur": 55
    },
    {
      "t": 2015.2,
      "ch": 1,
      "note": 42,
      "vel": 123,
      "dur": 25
    },
    {
      "t": 2015.2,
      "ch": 7,
      "note": 48,
      "vel": 59,
      "dur": 80
    },
    {
      "t": 2015.2,
      "ch": 7,
      "note": 36,
      "vel": 68,
      "dur": 80
    },
    {
      "t": 2015.3,
      "ch": 1,
      "note": 36,
      "vel": 110,
      "dur": 25
    },
    {
      "t": 2015.4,
      "ch": 1,
      "note": 38,
      "vel": 94,
      "dur": 25
    },
    {
      "t": 2015.5,
      "ch": 1,
      "note": 40,
      "vel": 78,
      "dur": 25
    },
    {
      "t": 2015.6,
      "ch": 1,
      "note": 42,
      "vel": 95,
      "dur": 25
    },
    {
      "t": 2015.7,
      "ch": 1,
      "note": 36,
      "vel": 75,
      "dur": 25
    },
    {
      "t": 2015.8,
      "ch": 1,
      "note": 38,
      "vel": 77,
      "dur": 25
    },
    {
      "t": 2015.9,
      "ch": 1,
      "note": 40,
      "vel": 78,
      "dur": 25
    },
    {
      "t": 2016,
      "ch": 0,
      "note": 36,
      "vel": 112,
      "dur": 55
    },
    {
      "t": 2016,
      "ch": 1,
      "note": 42,
      "vel": 114,
      "dur": 25
    },
    {
      "t": 2016,
      "ch": 7,
      "note": 48,
      "vel": 64,
      "dur": 80
    },
    {
      "t": 2016,
      "ch": 7,
      "note": 45,
      "vel": 67,
      "dur": 80
    },
    {
      "t": 2016,
      "ch": 7,
      "note": 36,
      "vel": 61,
      "dur": 80
    },
    {
      "t": 2016,
      "ch": 7,
      "note": 38,
      "vel": 73,
      "dur": 80
    },
    {
      "t": 2016,
      "ch": 1,
      "note": 36,
      "vel": 107,
      "dur": 25
    },
    {
      "t": 2016.2,
      "ch": 1,
      "note": 38,
      "vel": 88,
      "dur": 25
    },
    {
      "t": 2016.2,
      "ch": 1,
      "note": 40,
      "vel": 80,
      "dur": 25
    },
    {
      "t": 2016.3,
      "ch": 1,
      "note": 42,
      "vel": 88,
      "dur": 25
    },
    {
      "t": 2016.3,
      "ch": 7,
      "note": 36,
      "vel": 62,
      "dur": 80
    },
    {
      "t": 2016.4,
      "ch": 1,
      "note": 36,
      "vel": 91,
      "dur": 25
    },
    {
      "t": 2016.5,
      "ch": 1,
      "note": 38,
      "vel": 99,
      "dur": 25
    },
    {
      "t": 2016.6,
      "ch": 1,
      "note": 40,
      "vel": 112,
      "dur": 25
    },
    {
      "t": 2016.7,
      "ch": 0,
      "note": 36,
      "vel": 86,
      "dur": 55
    },
    {
      "t": 2016.7,
      "ch": 1,
      "note": 42,
      "vel": 126,
      "dur": 25
    },
    {
      "t": 2016.7,
      "ch": 7,
      "note": 48,
      "vel": 69,
      "dur": 80
    },
    {
      "t": 2016.7,
      "ch": 7,
      "note": 36,
      "vel": 64,
      "dur": 80
    },
    {
      "t": 2016.7,
      "ch": 5,
      "note": 73,
      "vel": 55,
      "dur": 805
    },
    {
      "t": 2016.8,
      "ch": 1,
      "note": 36,
      "vel": 118,
      "dur": 25
    },
    {
      "t": 2016.9,
      "ch": 1,
      "note": 38,
      "vel": 90,
      "dur": 25
    },
    {
      "t": 2016.9,
      "ch": 7,
      "note": 45,
      "vel": 64,
      "dur": 80
    },
    {
      "t": 2016.9,
      "ch": 7,
      "note": 38,
      "vel": 69,
      "dur": 80
    },
    {
      "t": 2016.9,
      "ch": 1,
      "note": 40,
      "vel": 91,
      "dur": 25
    },
    {
      "t": 2017.1,
      "ch": 1,
      "note": 42,
      "vel": 76,
      "dur": 25
    },
    {
      "t": 2017.1,
      "ch": 1,
      "note": 36,
      "vel": 78,
      "dur": 25
    },
    {
      "t": 2017.3,
      "ch": 1,
      "note": 38,
      "vel": 74,
      "dur": 25
    },
    {
      "t": 2017.3,
      "ch": 1,
      "note": 40,
      "vel": 77,
      "dur": 25
    },
    {
      "t": 2017.3,
      "ch": 4,
      "note": 59,
      "vel": 39,
      "dur": 5803
    },
    {
      "t": 2017.3,
      "ch": 3,
      "note": 43,
      "vel": 42,
      "dur": 5853
    },
    {
      "t": 2017.4,
      "ch": 0,
      "note": 36,
      "vel": 87,
      "dur": 55
    },
    {
      "t": 2017.4,
      "ch": 1,
      "note": 42,
      "vel": 127,
      "dur": 25
    },
    {
      "t": 2017.4,
      "ch": 7,
      "note": 48,
      "vel": 63,
      "dur": 80
    },
    {
      "t": 2017.4,
      "ch": 7,
      "note": 36,
      "vel": 69,
      "dur": 80
    },
    {
      "t": 2017.5,
      "ch": 1,
      "note": 36,
      "vel": 73,
      "dur": 25
    },
    {
      "t": 2017.6,
      "ch": 1,
      "note": 38,
      "vel": 90,
      "dur": 25
    },
    {
      "t": 2017.7,
      "ch": 1,
      "note": 40,
      "vel": 77,
      "dur": 25
    },
    {
      "t": 2017.8,
      "ch": 1,
      "note": 42,
      "vel": 90,
      "dur": 25
    },
    {
      "t": 2017.8,
      "ch": 7,
      "note": 45,
      "vel": 64,
      "dur": 80
    },
    {
      "t": 2017.8,
      "ch": 7,
      "note": 38,
      "vel": 60,
      "dur": 80
    },
    {
      "t": 2017.8,
      "ch": 5,
      "note": 68,
      "vel": 36,
      "dur": 812
    },
    {
      "t": 2017.8,
      "ch": 7,
      "note": 36,
      "vel": 59,
      "dur": 80
    },
    {
      "t": 2017.9,
      "ch": 1,
      "note": 36,
      "vel": 87,
      "dur": 25
    },
    {
      "t": 2018,
      "ch": 1,
      "note": 38,
      "vel": 101,
      "dur": 25
    },
    {
      "t": 2018,
      "ch": 1,
      "note": 40,
      "vel": 91,
      "dur": 25
    },
    {
      "t": 2018.2,
      "ch": 6,
      "note": 71,
      "vel": 31,
      "dur": 400
    },
    {
      "t": 2018.2,
      "ch": 0,
      "note": 36,
      "vel": 92,
      "dur": 55
    },
    {
      "t": 2018.2,
      "ch": 1,
      "note": 42,
      "vel": 125,
      "dur": 25
    },
    {
      "t": 2018.2,
      "ch": 7,
      "note": 48,
      "vel": 74,
      "dur": 80
    },
    {
      "t": 2018.2,
      "ch": 7,
      "note": 36,
      "vel": 73,
      "dur": 80
    },
    {
      "t": 2018.2,
      "ch": 5,
      "note": 66,
      "vel": 34,
      "dur": 814
    },
    {
      "t": 2018.2,
      "ch": 1,
      "note": 36,
      "vel": 93,
      "dur": 25
    },
    {
      "t": 2018.3,
      "ch": 1,
      "note": 38,
      "vel": 79,
      "dur": 25
    },
    {
      "t": 2018.4,
      "ch": 1,
      "note": 40,
      "vel": 73,
      "dur": 25
    },
    {
      "t": 2018.5,
      "ch": 1,
      "note": 42,
      "vel": 92,
      "dur": 25
    },
    {
      "t": 2018.6,
      "ch": 6,
      "note": 72,
      "vel": 23,
      "dur": 400
    },
    {
      "t": 2018.6,
      "ch": 1,
      "note": 36,
      "vel": 97,
      "dur": 25
    },
    {
      "t": 2018.7,
      "ch": 1,
      "note": 38,
      "vel": 79,
      "dur": 25
    },
    {
      "t": 2018.8,
      "ch": 1,
      "note": 40,
      "vel": 111,
      "dur": 25
    },
    {
      "t": 2018.9,
      "ch": 0,
      "note": 36,
      "vel": 112,
      "dur": 55
    },
    {
      "t": 2018.9,
      "ch": 1,
      "note": 42,
      "vel": 112,
      "dur": 25
    },
    {
      "t": 2018.9,
      "ch": 7,
      "note": 48,
      "vel": 72,
      "dur": 80
    },
    {
      "t": 2018.9,
      "ch": 7,
      "note": 45,
      "vel": 70,
      "dur": 80
    },
    {
      "t": 2018.9,
      "ch": 7,
      "note": 36,
      "vel": 72,
      "dur": 80
    },
    {
      "t": 2018.9,
      "ch": 7,
      "note": 38,
      "vel": 76,
      "dur": 80
    },
    {
      "t": 2019,
      "ch": 1,
      "note": 36,
      "vel": 121,
      "dur": 25
    },
    {
      "t": 2019.1,
      "ch": 1,
      "note": 38,
      "vel": 80,
      "dur": 25
    },
    {
      "t": 2019.1,
      "ch": 1,
      "note": 40,
      "vel": 77,
      "dur": 25
    },
    {
      "t": 2019.3,
      "ch": 1,
      "note": 42,
      "vel": 78,
      "dur": 25
    },
    {
      "t": 2019.3,
      "ch": 7,
      "note": 36,
      "vel": 55,
      "dur": 80
    },
    {
      "t": 2019.3,
      "ch": 1,
      "note": 36,
      "vel": 100,
      "dur": 25
    },
    {
      "t": 2019.4,
      "ch": 1,
      "note": 38,
      "vel": 86,
      "dur": 25
    },
    {
      "t": 2019.5,
      "ch": 5,
      "note": 59,
      "vel": 26,
      "dur": 824
    },
    {
      "t": 2019.5,
      "ch": 1,
      "note": 40,
      "vel": 80,
      "dur": 25
    },
    {
      "t": 2019.6,
      "ch": 0,
      "note": 36,
      "vel": 92,
      "dur": 55
    },
    {
      "t": 2019.6,
      "ch": 1,
      "note": 42,
      "vel": 95,
      "dur": 25
    },
    {
      "t": 2019.6,
      "ch": 7,
      "note": 48,
      "vel": 84,
      "dur": 80
    },
    {
      "t": 2019.6,
      "ch": 7,
      "note": 36,
      "vel": 65,
      "dur": 80
    },
    {
      "t": 2019.7,
      "ch": 6,
      "note": 64,
      "vel": 29,
      "dur": 400
    },
    {
      "t": 2019.7,
      "ch": 1,
      "note": 36,
      "vel": 109,
      "dur": 25
    },
    {
      "t": 2019.8,
      "ch": 1,
      "note": 38,
      "vel": 91,
      "dur": 25
    },
    {
      "t": 2019.8,
      "ch": 7,
      "note": 45,
      "vel": 65,
      "dur": 80
    },
    {
      "t": 2019.8,
      "ch": 7,
      "note": 38,
      "vel": 64,
      "dur": 80
    },
    {
      "t": 2019.9,
      "ch": 5,
      "note": 61,
      "vel": 31,
      "dur": 826
    },
    {
      "t": 2019.9,
      "ch": 1,
      "note": 40,
      "vel": 69,
      "dur": 25
    },
    {
      "t": 2020,
      "ch": 1,
      "note": 42,
      "vel": 94,
      "dur": 25
    },
    {
      "t": 2020.1,
      "ch": 1,
      "note": 36,
      "vel": 101,
      "dur": 25
    },
    {
      "t": 2020.2,
      "ch": 1,
      "note": 38,
      "vel": 98,
      "dur": 25
    },
    {
      "t": 2020.2,
      "ch": 1,
      "note": 40,
      "vel": 94,
      "dur": 25
    },
    {
      "t": 2020.4,
      "ch": 0,
      "note": 36,
      "vel": 99,
      "dur": 55
    },
    {
      "t": 2020.4,
      "ch": 1,
      "note": 42,
      "vel": 115,
      "dur": 25
    },
    {
      "t": 2020.4,
      "ch": 7,
      "note": 48,
      "vel": 67,
      "dur": 80
    },
    {
      "t": 2020.4,
      "ch": 7,
      "note": 36,
      "vel": 73,
      "dur": 80
    },
    {
      "t": 2020.4,
      "ch": 1,
      "note": 36,
      "vel": 102,
      "dur": 25
    },
    {
      "t": 2020.5,
      "ch": 1,
      "note": 38,
      "vel": 81,
      "dur": 25
    },
    {
      "t": 2020.6,
      "ch": 1,
      "note": 40,
      "vel": 93,
      "dur": 25
    },
    {
      "t": 2020.7,
      "ch": 1,
      "note": 42,
      "vel": 81,
      "dur": 25
    },
    {
      "t": 2020.7,
      "ch": 7,
      "note": 45,
      "vel": 54,
      "dur": 80
    },
    {
      "t": 2020.7,
      "ch": 7,
      "note": 36,
      "vel": 67,
      "dur": 80
    },
    {
      "t": 2020.7,
      "ch": 7,
      "note": 38,
      "vel": 57,
      "dur": 80
    },
    {
      "t": 2020.8,
      "ch": 1,
      "note": 36,
      "vel": 89,
      "dur": 25
    },
    {
      "t": 2020.9,
      "ch": 1,
      "note": 38,
      "vel": 85,
      "dur": 25
    },
    {
      "t": 2021,
      "ch": 1,
      "note": 40,
      "vel": 95,
      "dur": 25
    },
    {
      "t": 2021.1,
      "ch": 0,
      "note": 36,
      "vel": 95,
      "dur": 55
    },
    {
      "t": 2021.1,
      "ch": 1,
      "note": 42,
      "vel": 90,
      "dur": 25
    },
    {
      "t": 2021.1,
      "ch": 7,
      "note": 48,
      "vel": 73,
      "dur": 80
    },
    {
      "t": 2021.1,
      "ch": 7,
      "note": 36,
      "vel": 69,
      "dur": 80
    },
    {
      "t": 2021.1,
      "ch": 6,
      "note": 67,
      "vel": 20,
      "dur": 557
    },
    {
      "t": 2021.1,
      "ch": 5,
      "note": 68,
      "vel": 49,
      "dur": 836
    },
    {
      "t": 2021.2,
      "ch": 1,
      "note": 36,
      "vel": 106,
      "dur": 25
    },
    {
      "t": 2021.3,
      "ch": 1,
      "note": 38,
      "vel": 100,
      "dur": 25
    },
    {
      "t": 2021.3,
      "ch": 1,
      "note": 40,
      "vel": 79,
      "dur": 25
    },
    {
      "t": 2021.5,
      "ch": 1,
      "note": 42,
      "vel": 76,
      "dur": 25
    },
    {
      "t": 2021.5,
      "ch": 1,
      "note": 36,
      "vel": 96,
      "dur": 25
    },
    {
      "t": 2021.6,
      "ch": 1,
      "note": 38,
      "vel": 99,
      "dur": 25
    },
    {
      "t": 2021.7,
      "ch": 1,
      "note": 40,
      "vel": 84,
      "dur": 25
    },
    {
      "t": 2021.8,
      "ch": 0,
      "note": 36,
      "vel": 120,
      "dur": 55
    },
    {
      "t": 2021.8,
      "ch": 1,
      "note": 42,
      "vel": 122,
      "dur": 25
    },
    {
      "t": 2021.8,
      "ch": 7,
      "note": 48,
      "vel": 66,
      "dur": 80
    },
    {
      "t": 2021.8,
      "ch": 7,
      "note": 45,
      "vel": 75,
      "dur": 80
    },
    {
      "t": 2021.8,
      "ch": 7,
      "note": 36,
      "vel": 61,
      "dur": 80
    },
    {
      "t": 2021.8,
      "ch": 7,
      "note": 38,
      "vel": 56,
      "dur": 80
    },
    {
      "t": 2021.9,
      "ch": 1,
      "note": 36,
      "vel": 107,
      "dur": 25
    },
    {
      "t": 2022,
      "ch": 1,
      "note": 38,
      "vel": 75,
      "dur": 25
    },
    {
      "t": 2022.1,
      "ch": 1,
      "note": 40,
      "vel": 93,
      "dur": 25
    },
    {
      "t": 2022.2,
      "ch": 1,
      "note": 42,
      "vel": 82,
      "dur": 25
    },
    {
      "t": 2022.2,
      "ch": 7,
      "note": 36,
      "vel": 61,
      "dur": 80
    },
    {
      "t": 2022.3,
      "ch": 1,
      "note": 36,
      "vel": 85,
      "dur": 25
    },
    {
      "t": 2022.4,
      "ch": 1,
      "note": 38,
      "vel": 100,
      "dur": 25
    },
    {
      "t": 2022.4,
      "ch": 1,
      "note": 40,
      "vel": 84,
      "dur": 25
    },
    {
      "t": 2022.6,
      "ch": 0,
      "note": 36,
      "vel": 91,
      "dur": 55
    },
    {
      "t": 2022.6,
      "ch": 1,
      "note": 42,
      "vel": 74,
      "dur": 25
    },
    {
      "t": 2022.6,
      "ch": 7,
      "note": 48,
      "vel": 67,
      "dur": 80
    },
    {
      "t": 2022.6,
      "ch": 7,
      "note": 36,
      "vel": 72,
      "dur": 80
    },
    {
      "t": 2022.6,
      "ch": 1,
      "note": 36,
      "vel": 88,
      "dur": 25
    },
    {
      "t": 2022.7,
      "ch": 1,
      "note": 38,
      "vel": 88,
      "dur": 25
    },
    {
      "t": 2022.7,
      "ch": 7,
      "note": 45,
      "vel": 61,
      "dur": 80
    },
    {
      "t": 2022.7,
      "ch": 7,
      "note": 38,
      "vel": 61,
      "dur": 80
    },
    {
      "t": 2022.8,
      "ch": 5,
      "note": 73,
      "vel": 24,
      "dur": 846
    },
    {
      "t": 2022.8,
      "ch": 1,
      "note": 40,
      "vel": 86,
      "dur": 25
    },
    {
      "t": 2022.9,
      "ch": 1,
      "note": 42,
      "vel": 80,
      "dur": 25
    },
    {
      "t": 2023,
      "ch": 1,
      "note": 36,
      "vel": 87,
      "dur": 25
    },
    {
      "t": 2023.1,
      "ch": 6,
      "note": 76,
      "vel": 11,
      "dur": 400
    },
    {
      "t": 2023.1,
      "ch": 1,
      "note": 38,
      "vel": 91,
      "dur": 25
    },
    {
      "t": 2023.2,
      "ch": 1,
      "note": 40,
      "vel": 96,
      "dur": 25
    },
    {
      "t": 2023.2,
      "ch": 2,
      "note": 52,
      "vel": 0,
      "dur": 0
    },
    {
      "t": 2023.2,
      "ch": 2,
      "note": 64,
      "vel": 0,
      "dur": 0
    },
    {
      "t": 2023.2,
      "ch": 2,
      "note": 55,
      "vel": 53,
      "dur": 21951
    },
    {
      "t": 2023.2,
      "ch": 2,
      "note": 67,
      "vel": 37,
      "dur": 21951
    },
    {
      "t": 2023.2,
      "ch": 4,
      "note": 59,
      "vel": 33,
      "dur": 5803
    },
    {
      "t": 2023.2,
      "ch": 3,
      "note": 47,
      "vel": 36,
      "dur": 5853
    },
    {
      "t": 2023.3,
      "ch": 0,
      "note": 36,
      "vel": 89,
      "dur": 55
    },
    {
      "t": 2023.3,
      "ch": 1,
      "note": 42,
      "vel": 104,
      "dur": 25
    },
    {
      "t": 2023.3,
      "ch": 7,
      "note": 48,
      "vel": 59,
      "dur": 80
    },
    {
      "t": 2023.3,
      "ch": 7,
      "note": 36,
      "vel": 75,
      "dur": 80
    },
    {
      "t": 2023.4,
      "ch": 1,
      "note": 36,
      "vel": 70,
      "dur": 25
    },
    {
      "t": 2023.5,
      "ch": 1,
      "note": 38,
      "vel": 85,
      "dur": 25
    },
    {
      "t": 2023.5,
      "ch": 1,
      "note": 40,
      "vel": 63,
      "dur": 25
    },
    {
      "t": 2023.7,
      "ch": 1,
      "note": 42,
      "vel": 86,
      "dur": 25
    },
    {
      "t": 2023.7,
      "ch": 7,
      "note": 38,
      "vel": 73,
      "dur": 80
    },
    {
      "t": 2023.7,
      "ch": 7,
      "note": 45,
      "vel": 57,
      "dur": 80
    },
    {
      "t": 2023.7,
      "ch": 7,
      "note": 36,
      "vel": 74,
      "dur": 80
    },
    {
      "t": 2023.7,
      "ch": 1,
      "note": 36,
      "vel": 85,
      "dur": 25
    },
    {
      "t": 2023.8,
      "ch": 1,
      "note": 38,
      "vel": 88,
      "dur": 25
    },
    {
      "t": 2023.9,
      "ch": 1,
      "note": 40,
      "vel": 103,
      "dur": 25
    },
    {
      "t": 2024,
      "ch": 0,
      "note": 36,
      "vel": 92,
      "dur": 55
    },
    {
      "t": 2024,
      "ch": 1,
      "note": 42,
      "vel": 100,
      "dur": 25
    },
    {
      "t": 2024,
      "ch": 7,
      "note": 48,
      "vel": 73,
      "dur": 80
    },
    {
      "t": 2024,
      "ch": 7,
      "note": 36,
      "vel": 63,
      "dur": 80
    },
    {
      "t": 2024,
      "ch": 5,
      "note": 74,
      "vel": 35,
      "dur": 853
    },
    {
      "t": 2024.1,
      "ch": 1,
      "note": 36,
      "vel": 78,
      "dur": 25
    },
    {
      "t": 2024.2,
      "ch": 1,
      "note": 38,
      "vel": 94,
      "dur": 25
    },
    {
      "t": 2024.3,
      "ch": 1,
      "note": 40,
      "vel": 96,
      "dur": 25
    },
    {
      "t": 2024.4,
      "ch": 1,
      "note": 42,
      "vel": 91,
      "dur": 25
    },
    {
      "t": 2024.4,
      "ch": 1,
      "note": 36,
      "vel": 71,
      "dur": 25
    },
    {
      "t": 2024.6,
      "ch": 1,
      "note": 38,
      "vel": 92,
      "dur": 25
    },
    {
      "t": 2024.6,
      "ch": 1,
      "note": 40,
      "vel": 82,
      "dur": 25
    },
    {
      "t": 2024.8,
      "ch": 0,
      "note": 36,
      "vel": 108,
      "dur": 55
    },
    {
      "t": 2024.8,
      "ch": 1,
      "note": 42,
      "vel": 81,
      "dur": 25
    },
    {
      "t": 2024.8,
      "ch": 7,
      "note": 48,
      "vel": 69,
      "dur": 80
    },
    {
      "t": 2024.8,
      "ch": 7,
      "note": 45,
      "vel": 63,
      "dur": 80
    },
    {
      "t": 2024.8,
      "ch": 7,
      "note": 36,
      "vel": 68,
      "dur": 80
    },
    {
      "t": 2024.8,
      "ch": 7,
      "note": 38,
      "vel": 78,
      "dur": 80
    },
    {
      "t": 2024.8,
      "ch": 1,
      "note": 36,
      "vel": 101,
      "dur": 25
    },
    {
      "t": 2024.9,
      "ch": 1,
      "note": 38,
      "vel": 81,
      "dur": 25
    },
    {
      "t": 2025,
      "ch": 5,
      "note": 76,
      "vel": 29,
      "dur": 855
    },
    {
      "t": 2025,
      "ch": 1,
      "note": 40,
      "vel": 92,
      "dur": 25
    },
    {
      "t": 2025.1,
      "ch": 1,
      "note": 42,
      "vel": 86,
      "dur": 25
    },
    {
      "t": 2025.1,
      "ch": 7,
      "note": 36,
      "vel": 62,
      "dur": 80
    },
    {
      "t": 2025.2,
      "ch": 1,
      "note": 36,
      "vel": 81,
      "dur": 25
    },
    {
      "t": 2025.3,
      "ch": 1,
      "note": 38,
      "vel": 86,
      "dur": 25
    },
    {
      "t": 2025.4,
      "ch": 1,
      "note": 40,
      "vel": 108,
      "dur": 25
    },
    {
      "t": 2025.4,
      "ch": 6,
      "note": 76,
      "vel": 17,
      "dur": 400
    },
    {
      "t": 2025.5,
      "ch": 0,
      "note": 36,
      "vel": 90,
      "dur": 55
    },
    {
      "t": 2025.5,
      "ch": 1,
      "note": 42,
      "vel": 111,
      "dur": 25
    },
    {
      "t": 2025.5,
      "ch": 7,
      "note": 48,
      "vel": 76,
      "dur": 80
    },
    {
      "t": 2025.5,
      "ch": 7,
      "note": 36,
      "vel": 61,
      "dur": 80
    },
    {
      "t": 2025.5,
      "ch": 1,
      "note": 36,
      "vel": 98,
      "dur": 25
    },
    {
      "t": 2025.7,
      "ch": 1,
      "note": 38,
      "vel": 80,
      "dur": 25
    },
    {
      "t": 2025.7,
      "ch": 7,
      "note": 38,
      "vel": 66,
      "dur": 80
    },
    {
      "t": 2025.7,
      "ch": 7,
      "note": 45,
      "vel": 58,
      "dur": 80
    },
    {
      "t": 2025.7,
      "ch": 1,
      "note": 40,
      "vel": 71,
      "dur": 25
    },
    {
      "t": 2025.8,
      "ch": 1,
      "note": 42,
      "vel": 71,
      "dur": 25
    },
    {
      "t": 2025.9,
      "ch": 1,
      "note": 36,
      "vel": 100,
      "dur": 25
    },
    {
      "t": 2026,
      "ch": 1,
      "note": 38,
      "vel": 73,
      "dur": 25
    },
    {
      "t": 2026.1,
      "ch": 1,
      "note": 40,
      "vel": 100,
      "dur": 25
    },
    {
      "t": 2026.2,
      "ch": 0,
      "note": 36,
      "vel": 88,
      "dur": 55
    },
    {
      "t": 2026.2,
      "ch": 1,
      "note": 42,
      "vel": 118,
      "dur": 25
    },
    {
      "t": 2026.2,
      "ch": 7,
      "note": 48,
      "vel": 75,
      "dur": 80
    },
    {
      "t": 2026.2,
      "ch": 7,
      "note": 36,
      "vel": 64,
      "dur": 80
    },
    {
      "t": 2026.3,
      "ch": 1,
      "note": 36,
      "vel": 114,
      "dur": 25
    },
    {
      "t": 2026.4,
      "ch": 1,
      "note": 38,
      "vel": 79,
      "dur": 25
    },
    {
      "t": 2026.4,
      "ch": 6,
      "note": 67,
      "vel": 24,
      "dur": 571
    },
    {
      "t": 2026.5,
      "ch": 1,
      "note": 40,
      "vel": 101,
      "dur": 25
    },
    {
      "t": 2026.6,
      "ch": 1,
      "note": 42,
      "vel": 91,
      "dur": 25
    },
    {
      "t": 2026.6,
      "ch": 7,
      "note": 45,
      "vel": 69,
      "dur": 80
    },
    {
      "t": 2026.6,
      "ch": 7,
      "note": 36,
      "vel": 54,
      "dur": 80
    },
    {
      "t": 2026.6,
      "ch": 7,
      "note": 38,
      "vel": 65,
      "dur": 80
    },
    {
      "t": 2026.6,
      "ch": 1,
      "note": 36,
      "vel": 71,
      "dur": 25
    },
    {
      "t": 2026.8,
      "ch": 1,
      "note": 38,
      "vel": 84,
      "dur": 25
    },
    {
      "t": 2026.8,
      "ch": 1,
      "note": 40,
      "vel": 88,
      "dur": 25
    },
    {
      "t": 2026.9,
      "ch": 0,
      "note": 36,
      "vel": 95,
      "dur": 55
    },
    {
      "t": 2026.9,
      "ch": 1,
      "note": 42,
      "vel": 106,
      "dur": 25
    },
    {
      "t": 2026.9,
      "ch": 7,
      "note": 48,
      "vel": 62,
      "dur": 80
    },
    {
      "t": 2026.9,
      "ch": 7,
      "note": 36,
      "vel": 75,
      "dur": 80
    },
    {
      "t": 2027,
      "ch": 1,
      "note": 36,
      "vel": 108,
      "dur": 25
    },
    {
      "t": 2027.1,
      "ch": 1,
      "note": 38,
      "vel": 74,
      "dur": 25
    },
    {
      "t": 2027.2,
      "ch": 1,
      "note": 40,
      "vel": 100,
      "dur": 25
    },
    {
      "t": 2027.3,
      "ch": 1,
      "note": 42,
      "vel": 99,
      "dur": 25
    },
    {
      "t": 2027.4,
      "ch": 1,
      "note": 36,
      "vel": 83,
      "dur": 25
    },
    {
      "t": 2027.5,
      "ch": 1,
      "note": 38,
      "vel": 84,
      "dur": 25
    },
    {
      "t": 2027.6,
      "ch": 1,
      "note": 40,
      "vel": 86,
      "dur": 25
    },
    {
      "t": 2027.7,
      "ch": 0,
      "note": 36,
      "vel": 118,
      "dur": 55
    },
    {
      "t": 2027.7,
      "ch": 1,
      "note": 42,
      "vel": 91,
      "dur": 25
    },
    {
      "t": 2027.7,
      "ch": 7,
      "note": 48,
      "vel": 67,
      "dur": 80
    },
    {
      "t": 2027.7,
      "ch": 7,
      "note": 45,
      "vel": 83,
      "dur": 80
    },
    {
      "t": 2027.7,
      "ch": 7,
      "note": 36,
      "vel": 75,
      "dur": 80
    },
    {
      "t": 2027.7,
      "ch": 7,
      "note": 38,
      "vel": 56,
      "dur": 80
    },
    {
      "t": 2027.7,
      "ch": 1,
      "note": 36,
      "vel": 106,
      "dur": 25
    },
    {
      "t": 2027.9,
      "ch": 1,
      "note": 38,
      "vel": 92,
      "dur": 25
    },
    {
      "t": 2027.9,
      "ch": 1,
      "note": 40,
      "vel": 81,
      "dur": 25
    },
    {
      "t": 2028,
      "ch": 1,
      "note": 42,
      "vel": 88,
      "dur": 25
    },
    {
      "t": 2028.1,
      "ch": 7,
      "note": 36,
      "vel": 59,
      "dur": 80
    },
    {
      "t": 2028.1,
      "ch": 1,
      "note": 36,
      "vel": 81,
      "dur": 25
    },
    {
      "t": 2028.2,
      "ch": 1,
      "note": 38,
      "vel": 93,
      "dur": 25
    },
    {
      "t": 2028.3,
      "ch": 1,
      "note": 40,
      "vel": 76,
      "dur": 25
    },
    {
      "t": 2028.4,
      "ch": 0,
      "note": 36,
      "vel": 90,
      "dur": 55
    },
    {
      "t": 2028.4,
      "ch": 1,
      "note": 42,
      "vel": 110,
      "dur": 25
    },
    {
      "t": 2028.4,
      "ch": 7,
      "note": 48,
      "vel": 77,
      "dur": 80
    },
    {
      "t": 2028.4,
      "ch": 7,
      "note": 36,
      "vel": 64,
      "dur": 80
    },
    {
      "t": 2028.5,
      "ch": 1,
      "note": 36,
      "vel": 93,
      "dur": 25
    },
    {
      "t": 2028.6,
      "ch": 1,
      "note": 38,
      "vel": 78,
      "dur": 25
    },
    {
      "t": 2028.6,
      "ch": 7,
      "note": 38,
      "vel": 53,
      "dur": 80
    },
    {
      "t": 2028.6,
      "ch": 7,
      "note": 45,
      "vel": 56,
      "dur": 80
    },
    {
      "t": 2028.7,
      "ch": 1,
      "note": 40,
      "vel": 91,
      "dur": 25
    },
    {
      "t": 2028.8,
      "ch": 1,
      "note": 42,
      "vel": 90,
      "dur": 25
    },
    {
      "t": 2028.8,
      "ch": 1,
      "note": 36,
      "vel": 65,
      "dur": 25
    },
    {
      "t": 2029,
      "ch": 1,
      "note": 38,
      "vel": 108,
      "dur": 25
    },
    {
      "t": 2029,
      "ch": 6,
      "note": 60,
      "vel": 5,
      "dur": 568
    },
    {
      "t": 2029,
      "ch": 1,
      "note": 40,
      "vel": 111,
      "dur": 25
    },
    {
      "t": 2029.1,
      "ch": 4,
      "note": 59,
      "vel": 34,
      "dur": 5803
    },
    {
      "t": 2029.1,
      "ch": 3,
      "note": 40,
      "vel": 35,
      "dur": 5853
    },
    {
      "t": 2029.1,
      "ch": 0,
      "note": 36,
      "vel": 91,
      "dur": 55
    },
    {
      "t": 2029.1,
      "ch": 1,
      "note": 42,
      "vel": 106,
      "dur": 25
    },
    {
      "t": 2029.1,
      "ch": 7,
      "note": 48,
      "vel": 60,
      "dur": 80
    },
    {
      "t": 2029.1,
      "ch": 7,
      "note": 36,
      "vel": 73,
      "dur": 80
    },
    {
      "t": 2029.2,
      "ch": 1,
      "note": 36,
      "vel": 93,
      "dur": 25
    },
    {
      "t": 2029.3,
      "ch": 1,
      "note": 38,
      "vel": 106,
      "dur": 25
    },
    {
      "t": 2029.4,
      "ch": 1,
      "note": 40,
      "vel": 90,
      "dur": 25
    },
    {
      "t": 2029.5,
      "ch": 1,
      "note": 42,
      "vel": 91,
      "dur": 25
    },
    {
      "t": 2029.5,
      "ch": 7,
      "note": 45,
      "vel": 65,
      "dur": 80
    },
    {
      "t": 2029.5,
      "ch": 7,
      "note": 38,
      "vel": 63,
      "dur": 80
    },
    {
      "t": 2029.5,
      "ch": 7,
      "note": 36,
      "vel": 72,
      "dur": 80
    },
    {
      "t": 2029.6,
      "ch": 1,
      "note": 36,
      "vel": 84,
      "dur": 25
    },
    {
      "t": 2029.7,
      "ch": 1,
      "note": 38,
      "vel": 104,
      "dur": 25
    },
    {
      "t": 2029.8,
      "ch": 1,
      "note": 40,
      "vel": 106,
      "dur": 25
    },
    {
      "t": 2029.9,
      "ch": 0,
      "note": 36,
      "vel": 91,
      "dur": 55
    },
    {
      "t": 2029.9,
      "ch": 1,
      "note": 42,
      "vel": 101,
      "dur": 25
    },
    {
      "t": 2029.9,
      "ch": 7,
      "note": 48,
      "vel": 70,
      "dur": 80
    },
    {
      "t": 2029.9,
      "ch": 7,
      "note": 36,
      "vel": 76,
      "dur": 80
    },
    {
      "t": 2029.9,
      "ch": 1,
      "note": 36,
      "vel": 94,
      "dur": 25
    },
    {
      "t": 2030.1,
      "ch": 1,
      "note": 38,
      "vel": 78,
      "dur": 25
    },
    {
      "t": 2030.1,
      "ch": 1,
      "note": 40,
      "vel": 92,
      "dur": 25
    },
    {
      "t": 2030.2,
      "ch": 1,
      "note": 42,
      "vel": 101,
      "dur": 25
    },
    {
      "t": 2030.3,
      "ch": 1,
      "note": 36,
      "vel": 111,
      "dur": 25
    },
    {
      "t": 2030.4,
      "ch": 1,
      "note": 38,
      "vel": 70,
      "dur": 25
    },
    {
      "t": 2030.5,
      "ch": 1,
      "note": 40,
      "vel": 76,
      "dur": 25
    },
    {
      "t": 2030.6,
      "ch": 0,
      "note": 36,
      "vel": 118,
      "dur": 55
    },
    {
      "t": 2030.6,
      "ch": 1,
      "note": 42,
      "vel": 100,
      "dur": 25
    },
    {
      "t": 2030.6,
      "ch": 7,
      "note": 48,
      "vel": 78,
      "dur": 80
    },
    {
      "t": 2030.6,
      "ch": 7,
      "note": 45,
      "vel": 66,
      "dur": 80
    },
    {
      "t": 2030.6,
      "ch": 7,
      "note": 36,
      "vel": 64,
      "dur": 80
    },
    {
      "t": 2030.6,
      "ch": 7,
      "note": 38,
      "vel": 74,
      "dur": 80
    },
    {
      "t": 2030.7,
      "ch": 1,
      "note": 36,
      "vel": 84,
      "dur": 25
    },
    {
      "t": 2030.8,
      "ch": 1,
      "note": 38,
      "vel": 93,
      "dur": 25
    },
    {
      "t": 2030.9,
      "ch": 1,
      "note": 40,
      "vel": 93,
      "dur": 25
    },
    {
      "t": 2031,
      "ch": 1,
      "note": 42,
      "vel": 91,
      "dur": 25
    },
    {
      "t": 2031,
      "ch": 7,
      "note": 36,
      "vel": 49,
      "dur": 80
    },
    {
      "t": 2031,
      "ch": 1,
      "note": 36,
      "vel": 103,
      "dur": 25
    },
    {
      "t": 2031.2,
      "ch": 1,
      "note": 38,
      "vel": 74,
      "dur": 25
    },
    {
      "t": 2031.2,
      "ch": 1,
      "note": 40,
      "vel": 103,
      "dur": 25
    },
    {
      "t": 2031.3,
      "ch": 0,
      "note": 36,
      "vel": 83,
      "dur": 55
    },
    {
      "t": 2031.3,
      "ch": 1,
      "note": 42,
      "vel": 113,
      "dur": 25
    },
    {
      "t": 2031.3,
      "ch": 7,
      "note": 48,
      "vel": 67,
      "dur": 80
    },
    {
      "t": 2031.3,
      "ch": 7,
      "note": 36,
      "vel": 66,
      "dur": 80
    },
    {
      "t": 2031.4,
      "ch": 1,
      "note": 36,
      "vel": 119,
      "dur": 25
    },
    {
      "t": 2031.5,
      "ch": 1,
      "note": 38,
      "vel": 108,
      "dur": 25
    },
    {
      "t": 2031.5,
      "ch": 7,
      "note": 38,
      "vel": 64,
      "dur": 80
    },
    {
      "t": 2031.5,
      "ch": 7,
      "note": 45,
      "vel": 60,
      "dur": 80
    },
    {
      "t": 2031.5,
      "ch": 5,
      "note": 74,
      "vel": 26,
      "dur": 840
    },
    {
      "t": 2031.6,
      "ch": 1,
      "note": 40,
      "vel": 71,
      "dur": 25
    },
    {
      "t": 2031.7,
      "ch": 1,
      "note": 42,
      "vel": 89,
      "dur": 25
    },
    {
      "t": 2031.8,
      "ch": 1,
      "note": 36,
      "vel": 84,
      "dur": 25
    },
    {
      "t": 2031.9,
      "ch": 1,
      "note": 38,
      "vel": 88,
      "dur": 25
    },
    {
      "t": 2031.9,
      "ch": 1,
      "note": 40,
      "vel": 96,
      "dur": 25
    },
    {
      "t": 2032.1,
      "ch": 0,
      "note": 36,
      "vel": 93,
      "dur": 55
    },
    {
      "t": 2032.1,
      "ch": 1,
      "note": 42,
      "vel": 111,
      "dur": 25
    },
    {
      "t": 2032.1,
      "ch": 7,
      "note": 48,
      "vel": 62,
      "dur": 80
    },
    {
      "t": 2032.1,
      "ch": 7,
      "note": 36,
      "vel": 69,
      "dur": 80
    },
    {
      "t": 2032.1,
      "ch": 1,
      "note": 36,
      "vel": 81,
      "dur": 25
    },
    {
      "t": 2032.2,
      "ch": 1,
      "note": 38,
      "vel": 96,
      "dur": 25
    },
    {
      "t": 2032.3,
      "ch": 1,
      "note": 40,
      "vel": 97,
      "dur": 25
    },
    {
      "t": 2032.4,
      "ch": 1,
      "note": 42,
      "vel": 95,
      "dur": 25
    },
    {
      "t": 2032.4,
      "ch": 7,
      "note": 36,
      "vel": 58,
      "dur": 80
    },
    {
      "t": 2032.4,
      "ch": 7,
      "note": 45,
      "vel": 59,
      "dur": 80
    },
    {
      "t": 2032.4,
      "ch": 7,
      "note": 38,
      "vel": 64,
      "dur": 80
    },
    {
      "t": 2032.5,
      "ch": 1,
      "note": 36,
      "vel": 71,
      "dur": 25
    },
    {
      "t": 2032.6,
      "ch": 1,
      "note": 38,
      "vel": 104,
      "dur": 25
    },
    {
      "t": 2032.7,
      "ch": 1,
      "note": 40,
      "vel": 86,
      "dur": 25
    },
    {
      "t": 2032.8,
      "ch": 0,
      "note": 36,
      "vel": 87,
      "dur": 55
    },
    {
      "t": 2032.8,
      "ch": 1,
      "note": 42,
      "vel": 87,
      "dur": 25
    },
    {
      "t": 2032.8,
      "ch": 7,
      "note": 48,
      "vel": 71,
      "dur": 80
    },
    {
      "t": 2032.8,
      "ch": 7,
      "note": 36,
      "vel": 77,
      "dur": 80
    },
    {
      "t": 2032.8,
      "ch": 6,
      "note": 67,
      "vel": 26,
      "dur": 556
    },
    {
      "t": 2032.9,
      "ch": 1,
      "note": 36,
      "vel": 100,
      "dur": 25
    },
    {
      "t": 2033,
      "ch": 1,
      "note": 38,
      "vel": 84,
      "dur": 25
    },
    {
      "t": 2033,
      "ch": 1,
      "note": 40,
      "vel": 74,
      "dur": 25
    },
    {
      "t": 2033.2,
      "ch": 1,
      "note": 42,
      "vel": 93,
      "dur": 25
    },
    {
      "t": 2033.2,
      "ch": 1,
      "note": 36,
      "vel": 83,
      "dur": 25
    },
    {
      "t": 2033.3,
      "ch": 1,
      "note": 38,
      "vel": 86,
      "dur": 25
    },
    {
      "t": 2033.4,
      "ch": 1,
      "note": 40,
      "vel": 89,
      "dur": 25
    },
    {
      "t": 2033.5,
      "ch": 0,
      "note": 36,
      "vel": 112,
      "dur": 55
    },
    {
      "t": 2033.5,
      "ch": 1,
      "note": 42,
      "vel": 121,
      "dur": 25
    },
    {
      "t": 2033.5,
      "ch": 7,
      "note": 48,
      "vel": 60,
      "dur": 80
    },
    {
      "t": 2033.5,
      "ch": 7,
      "note": 45,
      "vel": 67,
      "dur": 80
    },
    {
      "t": 2033.5,
      "ch": 7,
      "note": 36,
      "vel": 64,
      "dur": 80
    },
    {
      "t": 2033.5,
      "ch": 7,
      "note": 38,
      "vel": 71,
      "dur": 80
    },
    {
      "t": 2033.6,
      "ch": 1,
      "note": 36,
      "vel": 76,
      "dur": 25
    },
    {
      "t": 2033.7,
      "ch": 1,
      "note": 38,
      "vel": 74,
      "dur": 25
    },
    {
      "t": 2033.8,
      "ch": 1,
      "note": 40,
      "vel": 104,
      "dur": 25
    },
    {
      "t": 2033.9,
      "ch": 1,
      "note": 42,
      "vel": 95,
      "dur": 25
    },
    {
      "t": 2033.9,
      "ch": 7,
      "note": 36,
      "vel": 61,
      "dur": 80
    },
    {
      "t": 2034,
      "ch": 1,
      "note": 36,
      "vel": 114,
      "dur": 25
    },
    {
      "t": 2034.1,
      "ch": 1,
      "note": 38,
      "vel": 93,
      "dur": 25
    },
    {
      "t": 2034.1,
      "ch": 6,
      "note": 69,
      "vel": 33,
      "dur": 552
    },
    {
      "t": 2034.1,
      "ch": 1,
      "note": 40,
      "vel": 78,
      "dur": 25
    },
    {
      "t": 2034.3,
      "ch": 0,
      "note": 36,
      "vel": 88,
      "dur": 55
    },
    {
      "t": 2034.3,
      "ch": 1,
      "note": 42,
      "vel": 112,
      "dur": 25
    },
    {
      "t": 2034.3,
      "ch": 7,
      "note": 48,
      "vel": 55,
      "dur": 80
    },
    {
      "t": 2034.3,
      "ch": 7,
      "note": 36,
      "vel": 69,
      "dur": 80
    },
    {
      "t": 2034.3,
      "ch": 1,
      "note": 36,
      "vel": 88,
      "dur": 25
    },
    {
      "t": 2034.4,
      "ch": 1,
      "note": 38,
      "vel": 107,
      "dur": 25
    },
    {
      "t": 2034.5,
      "ch": 7,
      "note": 38,
      "vel": 56,
      "dur": 80
    },
    {
      "t": 2034.5,
      "ch": 7,
      "note": 45,
      "vel": 57,
      "dur": 80
    },
    {
      "t": 2034.5,
      "ch": 1,
      "note": 40,
      "vel": 86,
      "dur": 25
    },
    {
      "t": 2034.6,
      "ch": 1,
      "note": 42,
      "vel": 86,
      "dur": 25
    },
    {
      "t": 2034.6,
      "ch": 5,
      "note": 74,
      "vel": 24,
      "dur": 826
    },
    {
      "t": 2034.7,
      "ch": 1,
      "note": 36,
      "vel": 82,
      "dur": 25
    },
    {
      "t": 2034.8,
      "ch": 1,
      "note": 38,
      "vel": 71,
      "dur": 25
    },
    {
      "t": 2034.9,
      "ch": 1,
      "note": 40,
      "vel": 89,
      "dur": 25
    },
    {
      "t": 2034.9,
      "ch": 2,
      "note": 55,
      "vel": 0,
      "dur": 0
    },
    {
      "t": 2034.9,
      "ch": 2,
      "note": 67,
      "vel": 0,
      "dur": 0
    },
    {
      "t": 2034.9,
      "ch": 2,
      "note": 52,
      "vel": 54,
      "dur": 21951
    },
    {
      "t": 2034.9,
      "ch": 4,
      "note": 60,
      "vel": 36,
      "dur": 5803
    },
    {
      "t": 2034.9,
      "ch": 3,
      "note": 40,
      "vel": 39,
      "dur": 5853
    },
    {
      "t": 2035,
      "ch": 0,
      "note": 36,
      "vel": 97,
      "dur": 55
    },
    {
      "t": 2035,
      "ch": 1,
      "note": 42,
      "vel": 107,
      "dur": 25
    },
    {
      "t": 2035,
      "ch": 7,
      "note": 48,
      "vel": 64,
      "dur": 80
    },
    {
      "t": 2035,
      "ch": 7,
      "note": 36,
      "vel": 75,
      "dur": 80
    },
    {
      "t": 2035.1,
      "ch": 1,
      "note": 36,
      "vel": 100,
      "dur": 25
    },
    {
      "t": 2035.2,
      "ch": 1,
      "note": 38,
      "vel": 107,
      "dur": 25
    },
    {
      "t": 2035.2,
      "ch": 1,
      "note": 40,
      "vel": 113,
      "dur": 25
    },
    {
      "t": 2035.4,
      "ch": 1,
      "note": 42,
      "vel": 99,
      "dur": 25
    },
    {
      "t": 2035.4,
      "ch": 7,
      "note": 36,
      "vel": 70,
      "dur": 80
    },
    {
      "t": 2035.4,
      "ch": 7,
      "note": 45,
      "vel": 71,
      "dur": 80
    },
    {
      "t": 2035.4,
      "ch": 7,
      "note": 38,
      "vel": 55,
      "dur": 80
    },
    {
      "t": 2035.4,
      "ch": 1,
      "note": 36,
      "vel": 102,
      "dur": 25
    },
    {
      "t": 2035.5,
      "ch": 1,
      "note": 38,
      "vel": 101,
      "dur": 25
    },
    {
      "t": 2035.6,
      "ch": 1,
      "note": 40,
      "vel": 68,
      "dur": 25
    },
    {
      "t": 2035.7,
      "ch": 0,
      "note": 36,
      "vel": 87,
      "dur": 55
    },
    {
      "t": 2035.7,
      "ch": 1,
      "note": 42,
      "vel": 101,
      "dur": 25
    },
    {
      "t": 2035.7,
      "ch": 7,
      "note": 48,
      "vel": 71,
      "dur": 80
    },
    {
      "t": 2035.7,
      "ch": 7,
      "note": 36,
      "vel": 83,
      "dur": 80
    },
    {
      "t": 2035.8,
      "ch": 1,
      "note": 36,
      "vel": 121,
      "dur": 25
    },
    {
      "t": 2035.9,
      "ch": 1,
      "note": 38,
      "vel": 84,
      "dur": 25
    },
    {
      "t": 2036,
      "ch": 1,
      "note": 40,
      "vel": 78,
      "dur": 25
    },
    {
      "t": 2036.1,
      "ch": 1,
      "note": 42,
      "vel": 104,
      "dur": 25
    },
    {
      "t": 2036.2,
      "ch": 1,
      "note": 36,
      "vel": 85,
      "dur": 25
    },
    {
      "t": 2036.3,
      "ch": 1,
      "note": 38,
      "vel": 85,
      "dur": 25
    },
    {
      "t": 2036.3,
      "ch": 6,
      "note": 69,
      "vel": 20,
      "dur": 548
    },
    {
      "t": 2036.3,
      "ch": 1,
      "note": 40,
      "vel": 86,
      "dur": 25
    },
    {
      "t": 2036.5,
      "ch": 0,
      "note": 36,
      "vel": 115,
      "dur": 55
    },
    {
      "t": 2036.5,
      "ch": 1,
      "note": 42,
      "vel": 99,
      "dur": 25
    },
    {
      "t": 2036.5,
      "ch": 7,
      "note": 48,
      "vel": 73,
      "dur": 80
    },
    {
      "t": 2036.5,
      "ch": 7,
      "note": 45,
      "vel": 65,
      "dur": 80
    },
    {
      "t": 2036.5,
      "ch": 7,
      "note": 36,
      "vel": 70,
      "dur": 80
    },
    {
      "t": 2036.5,
      "ch": 7,
      "note": 38,
      "vel": 72,
      "dur": 80
    },
    {
      "t": 2036.5,
      "ch": 5,
      "note": 76,
      "vel": 22,
      "dur": 823
    },
    {
      "t": 2036.5,
      "ch": 6,
      "note": 65,
      "vel": 36,
      "dur": 548
    },
    {
      "t": 2036.5,
      "ch": 1,
      "note": 36,
      "vel": 91,
      "dur": 25
    },
    {
      "t": 2036.6,
      "ch": 1,
      "note": 38,
      "vel": 101,
      "dur": 25
    },
    {
      "t": 2036.7,
      "ch": 1,
      "note": 40,
      "vel": 112,
      "dur": 25
    },
    {
      "t": 2036.8,
      "ch": 1,
      "note": 42,
      "vel": 82,
      "dur": 25
    },
    {
      "t": 2036.8,
      "ch": 7,
      "note": 36,
      "vel": 58,
      "dur": 80
    },
    {
      "t": 2036.9,
      "ch": 1,
      "note": 36,
      "vel": 80,
      "dur": 25
    },
    {
      "t": 2037,
      "ch": 1,
      "note": 38,
      "vel": 85,
      "dur": 25
    },
    {
      "t": 2037.1,
      "ch": 1,
      "note": 40,
      "vel": 84,
      "dur": 25
    },
    {
      "t": 2037.2,
      "ch": 0,
      "note": 36,
      "vel": 89,
      "dur": 55
    },
    {
      "t": 2037.2,
      "ch": 1,
      "note": 42,
      "vel": 109,
      "dur": 25
    },
    {
      "t": 2037.2,
      "ch": 7,
      "note": 48,
      "vel": 80,
      "dur": 80
    },
    {
      "t": 2037.2,
      "ch": 7,
      "note": 36,
      "vel": 62,
      "dur": 80
    },
    {
      "t": 2037.3,
      "ch": 1,
      "note": 36,
      "vel": 80,
      "dur": 25
    },
    {
      "t": 2037.4,
      "ch": 1,
      "note": 38,
      "vel": 96,
      "dur": 25
    },
    {
      "t": 2037.4,
      "ch": 7,
      "note": 45,
      "vel": 55,
      "dur": 80
    },
    {
      "t": 2037.4,
      "ch": 7,
      "note": 38,
      "vel": 75,
      "dur": 80
    },
    {
      "t": 2037.4,
      "ch": 1,
      "note": 40,
      "vel": 103,
      "dur": 25
    },
    {
      "t": 2037.6,
      "ch": 1,
      "note": 42,
      "vel": 101,
      "dur": 25
    },
    {
      "t": 2037.6,
      "ch": 1,
      "note": 36,
      "vel": 95,
      "dur": 25
    },
    {
      "t": 2037.7,
      "ch": 1,
      "note": 38,
      "vel": 81,
      "dur": 25
    },
    {
      "t": 2037.8,
      "ch": 1,
      "note": 40,
      "vel": 95,
      "dur": 25
    },
    {
      "t": 2037.9,
      "ch": 0,
      "note": 36,
      "vel": 94,
      "dur": 55
    },
    {
      "t": 2037.9,
      "ch": 1,
      "note": 42,
      "vel": 90,
      "dur": 25
    },
    {
      "t": 2037.9,
      "ch": 7,
      "note": 48,
      "vel": 71,
      "dur": 80
    },
    {
      "t": 2037.9,
      "ch": 7,
      "note": 36,
      "vel": 62,
      "dur": 80
    },
    {
      "t": 2038,
      "ch": 1,
      "note": 36,
      "vel": 103,
      "dur": 25
    },
    {
      "t": 2038.1,
      "ch": 1,
      "note": 38,
      "vel": 100,
      "dur": 25
    },
    {
      "t": 2038.2,
      "ch": 1,
      "note": 40,
      "vel": 82,
      "dur": 25
    },
    {
      "t": 2038.3,
      "ch": 1,
      "note": 42,
      "vel": 87,
      "dur": 25
    },
    {
      "t": 2038.3,
      "ch": 7,
      "note": 36,
      "vel": 57,
      "dur": 80
    },
    {
      "t": 2038.3,
      "ch": 7,
      "note": 38,
      "vel": 68,
      "dur": 80
    },
    {
      "t": 2038.3,
      "ch": 7,
      "note": 45,
      "vel": 70,
      "dur": 80
    },
    {
      "t": 2038.3,
      "ch": 1,
      "note": 36,
      "vel": 79,
      "dur": 25
    },
    {
      "t": 2038.5,
      "ch": 1,
      "note": 38,
      "vel": 104,
      "dur": 25
    },
    {
      "t": 2038.5,
      "ch": 5,
      "note": 74,
      "vel": 33,
      "dur": 825
    },
    {
      "t": 2038.5,
      "ch": 1,
      "note": 40,
      "vel": 85,
      "dur": 25
    },
    {
      "t": 2038.6,
      "ch": 0,
      "note": 36,
      "vel": 92,
      "dur": 55
    },
    {
      "t": 2038.6,
      "ch": 1,
      "note": 42,
      "vel": 103,
      "dur": 25
    },
    {
      "t": 2038.6,
      "ch": 7,
      "note": 48,
      "vel": 75,
      "dur": 80
    },
    {
      "t": 2038.6,
      "ch": 7,
      "note": 36,
      "vel": 68,
      "dur": 80
    },
    {
      "t": 2038.7,
      "ch": 1,
      "note": 36,
      "vel": 96,
      "dur": 25
    },
    {
      "t": 2038.8,
      "ch": 1,
      "note": 38,
      "vel": 99,
      "dur": 25
    },
    {
      "t": 2038.9,
      "ch": 1,
      "note": 40,
      "vel": 85,
      "dur": 25
    },
    {
      "t": 2039,
      "ch": 1,
      "note": 42,
      "vel": 87,
      "dur": 25
    },
    {
      "t": 2039.1,
      "ch": 1,
      "note": 36,
      "vel": 94,
      "dur": 25
    },
    {
      "t": 2039.2,
      "ch": 1,
      "note": 38,
      "vel": 76,
      "dur": 25
    },
    {
      "t": 2039.3,
      "ch": 1,
      "note": 40,
      "vel": 97,
      "dur": 25
    },
    {
      "t": 2039.4,
      "ch": 0,
      "note": 36,
      "vel": 121,
      "dur": 55
    },
    {
      "t": 2039.4,
      "ch": 1,
      "note": 42,
      "vel": 100,
      "dur": 25
    },
    {
      "t": 2039.4,
      "ch": 7,
      "note": 48,
      "vel": 66,
      "dur": 80
    },
    {
      "t": 2039.4,
      "ch": 7,
      "note": 45,
      "vel": 86,
      "dur": 80
    },
    {
      "t": 2039.4,
      "ch": 7,
      "note": 36,
      "vel": 72,
      "dur": 80
    },
    {
      "t": 2039.4,
      "ch": 7,
      "note": 38,
      "vel": 69,
      "dur": 80
    },
    {
      "t": 2039.5,
      "ch": 1,
      "note": 36,
      "vel": 102,
      "dur": 25
    },
    {
      "t": 2039.6,
      "ch": 1,
      "note": 38,
      "vel": 72,
      "dur": 25
    },
    {
      "t": 2039.6,
      "ch": 1,
      "note": 40,
      "vel": 81,
      "dur": 25
    },
    {
      "t": 2039.8,
      "ch": 1,
      "note": 42,
      "vel": 101,
      "dur": 25
    },
    {
      "t": 2039.8,
      "ch": 7,
      "note": 36,
      "vel": 65,
      "dur": 80
    },
    {
      "t": 2039.8,
      "ch": 1,
      "note": 36,
      "vel": 103,
      "dur": 25
    },
    {
      "t": 2039.9,
      "ch": 1,
      "note": 38,
      "vel": 113,
      "dur": 25
    },
    {
      "t": 2040,
      "ch": 1,
      "note": 40,
      "vel": 93,
      "dur": 25
    },
    {
      "t": 2040.1,
      "ch": 0,
      "note": 36,
      "vel": 94,
      "dur": 55
    },
    {
      "t": 2040.1,
      "ch": 1,
      "note": 42,
      "vel": 109,
      "dur": 25
    },
    {
      "t": 2040.1,
      "ch": 7,
      "note": 48,
      "vel": 68,
      "dur": 80
    },
    {
      "t": 2040.1,
      "ch": 7,
      "note": 36,
      "vel": 74,
      "dur": 80
    },
    {
      "t": 2040.2,
      "ch": 1,
      "note": 36,
      "vel": 90,
      "dur": 25
    },
    {
      "t": 2040.3,
      "ch": 1,
      "note": 38,
      "vel": 81,
      "dur": 25
    },
    {
      "t": 2040.3,
      "ch": 7,
      "note": 45,
      "vel": 71,
      "dur": 80
    },
    {
      "t": 2040.3,
      "ch": 7,
      "note": 38,
      "vel": 67,
      "dur": 80
    },
    {
      "t": 2040.4,
      "ch": 1,
      "note": 40,
      "vel": 69,
      "dur": 25
    },
    {
      "t": 2040.5,
      "ch": 1,
      "note": 42,
      "vel": 98,
      "dur": 25
    },
    {
      "t": 2040.5,
      "ch": 1,
      "note": 36,
      "vel": 90,
      "dur": 25
    },
    {
      "t": 2040.7,
      "ch": 1,
      "note": 38,
      "vel": 115,
      "dur": 25
    },
    {
      "t": 2040.7,
      "ch": 1,
      "note": 40,
      "vel": 65,
      "dur": 25
    },
    {
      "t": 2040.8,
      "ch": 4,
      "note": 57,
      "vel": 35,
      "dur": 5803
    },
    {
      "t": 2040.8,
      "ch": 3,
      "note": 36,
      "vel": 37,
      "dur": 5853
    },
    {
      "t": 2040.9,
      "ch": 0,
      "note": 36,
      "vel": 89,
      "dur": 55
    },
    {
      "t": 2040.9,
      "ch": 1,
      "note": 42,
      "vel": 84,
      "dur": 25
    },
    {
      "t": 2040.9,
      "ch": 7,
      "note": 48,
      "vel": 76,
      "dur": 80
    },
    {
      "t": 2040.9,
      "ch": 7,
      "note": 36,
      "vel": 60,
      "dur": 80
    },
    {
      "t": 2040.9,
      "ch": 1,
      "note": 36,
      "vel": 102,
      "dur": 25
    },
    {
      "t": 2041,
      "ch": 1,
      "note": 38,
      "vel": 97,
      "dur": 25
    },
    {
      "t": 2041.1,
      "ch": 1,
      "note": 40,
      "vel": 96,
      "dur": 25
    },
    {
      "t": 2041.2,
      "ch": 1,
      "note": 42,
      "vel": 82,
      "dur": 25
    },
    {
      "t": 2041.2,
      "ch": 7,
      "note": 38,
      "vel": 47,
      "dur": 80
    },
    {
      "t": 2041.2,
      "ch": 7,
      "note": 45,
      "vel": 60,
      "dur": 80
    },
    {
      "t": 2041.2,
      "ch": 7,
      "note": 36,
      "vel": 66,
      "dur": 80
    },
    {
      "t": 2041.2,
      "ch": 5,
      "note": 74,
      "vel": 19,
      "dur": 838
    },
    {
      "t": 2041.3,
      "ch": 1,
      "note": 36,
      "vel": 84,
      "dur": 25
    },
    {
      "t": 2041.4,
      "ch": 1,
      "note": 38,
      "vel": 87,
      "dur": 25
    },
    {
      "t": 2041.5,
      "ch": 1,
      "note": 40,
      "vel": 81,
      "dur": 25
    },
    {
      "t": 2041.5,
      "ch": 6,
      "note": 76,
      "vel": 23,
      "dur": 400
    },
    {
      "t": 2041.6,
      "ch": 0,
      "note": 36,
      "vel": 95,
      "dur": 55
    },
    {
      "t": 2041.6,
      "ch": 1,
      "note": 42,
      "vel": 92,
      "dur": 25
    },
    {
      "t": 2041.6,
      "ch": 7,
      "note": 48,
      "vel": 70,
      "dur": 80
    },
    {
      "t": 2041.6,
      "ch": 7,
      "note": 36,
      "vel": 71,
      "dur": 80
    },
    {
      "t": 2041.6,
      "ch": 1,
      "note": 36,
      "vel": 92,
      "dur": 25
    },
    {
      "t": 2041.8,
      "ch": 1,
      "note": 38,
      "vel": 99,
      "dur": 25
    },
    {
      "t": 2041.8,
      "ch": 1,
      "note": 40,
      "vel": 102,
      "dur": 25
    },
    {
      "t": 2041.9,
      "ch": 1,
      "note": 42,
      "vel": 81,
      "dur": 25
    },
    {
      "t": 2042,
      "ch": 1,
      "note": 36,
      "vel": 112,
      "dur": 25
    },
    {
      "t": 2042.1,
      "ch": 1,
      "note": 38,
      "vel": 92,
      "dur": 25
    },
    {
      "t": 2042.2,
      "ch": 1,
      "note": 40,
      "vel": 87,
      "dur": 25
    },
    {
      "t": 2042.3,
      "ch": 0,
      "note": 36,
      "vel": 108,
      "dur": 55
    },
    {
      "t": 2042.3,
      "ch": 1,
      "note": 42,
      "vel": 115,
      "dur": 25
    },
    {
      "t": 2042.3,
      "ch": 7,
      "note": 48,
      "vel": 61,
      "dur": 80
    },
    {
      "t": 2042.3,
      "ch": 7,
      "note": 45,
      "vel": 77,
      "dur": 80
    },
    {
      "t": 2042.3,
      "ch": 7,
      "note": 36,
      "vel": 71,
      "dur": 80
    },
    {
      "t": 2042.3,
      "ch": 7,
      "note": 38,
      "vel": 68,
      "dur": 80
    },
    {
      "t": 2042.4,
      "ch": 1,
      "note": 36,
      "vel": 96,
      "dur": 25
    },
    {
      "t": 2042.5,
      "ch": 1,
      "note": 38,
      "vel": 102,
      "dur": 25
    },
    {
      "t": 2042.6,
      "ch": 1,
      "note": 40,
      "vel": 117,
      "dur": 25
    },
    {
      "t": 2042.7,
      "ch": 1,
      "note": 42,
      "vel": 111,
      "dur": 25
    },
    {
      "t": 2042.7,
      "ch": 7,
      "note": 36,
      "vel": 64,
      "dur": 80
    },
    {
      "t": 2042.7,
      "ch": 1,
      "note": 36,
      "vel": 86,
      "dur": 25
    },
    {
      "t": 2042.9,
      "ch": 1,
      "note": 38,
      "vel": 100,
      "dur": 25
    },
    {
      "t": 2042.9,
      "ch": 1,
      "note": 40,
      "vel": 93,
      "dur": 25
    },
    {
      "t": 2043,
      "ch": 0,
      "note": 36,
      "vel": 95,
      "dur": 55
    },
    {
      "t": 2043,
      "ch": 1,
      "note": 42,
      "vel": 116,
      "dur": 25
    },
    {
      "t": 2043,
      "ch": 7,
      "note": 48,
      "vel": 69,
      "dur": 80
    },
    {
      "t": 2043,
      "ch": 7,
      "note": 36,
      "vel": 71,
      "dur": 80
    },
    {
      "t": 2043.1,
      "ch": 1,
      "note": 36,
      "vel": 115,
      "dur": 25
    },
    {
      "t": 2043.2,
      "ch": 1,
      "note": 38,
      "vel": 84,
      "dur": 25
    },
    {
      "t": 2043.2,
      "ch": 7,
      "note": 45,
      "vel": 68,
      "dur": 80
    },
    {
      "t": 2043.2,
      "ch": 7,
      "note": 38,
      "vel": 68,
      "dur": 80
    },
    {
      "t": 2043.3,
      "ch": 1,
      "note": 40,
      "vel": 95,
      "dur": 25
    },
    {
      "t": 2043.4,
      "ch": 1,
      "note": 42,
      "vel": 120,
      "dur": 25
    },
    {
      "t": 2043.4,
      "ch": 5,
      "note": 76,
      "vel": 20,
      "dur": 852
    },
    {
      "t": 2043.5,
      "ch": 1,
      "note": 36,
      "vel": 85,
      "dur": 25
    },
    {
      "t": 2043.6,
      "ch": 1,
      "note": 38,
      "vel": 107,
      "dur": 25
    },
    {
      "t": 2043.7,
      "ch": 1,
      "note": 40,
      "vel": 51,
      "dur": 25
    },
    {
      "t": 2043.8,
      "ch": 0,
      "note": 36,
      "vel": 88,
      "dur": 55
    },
    {
      "t": 2043.8,
      "ch": 1,
      "note": 42,
      "vel": 73,
      "dur": 25
    },
    {
      "t": 2043.8,
      "ch": 7,
      "note": 48,
      "vel": 62,
      "dur": 80
    },
    {
      "t": 2043.8,
      "ch": 7,
      "note": 36,
      "vel": 78,
      "dur": 80
    },
    {
      "t": 2043.8,
      "ch": 1,
      "note": 36,
      "vel": 74,
      "dur": 25
    },
    {
      "t": 2044,
      "ch": 1,
      "note": 38,
      "vel": 54,
      "dur": 25
    },
    {
      "t": 2044,
      "ch": 1,
      "note": 40,
      "vel": 57,
      "dur": 25
    },
    {
      "t": 2044.1,
      "ch": 1,
      "note": 42,
      "vel": 70,
      "dur": 25
    },
    {
      "t": 2044.1,
      "ch": 7,
      "note": 45,
      "vel": 67,
      "dur": 80
    },
    {
      "t": 2044.1,
      "ch": 7,
      "note": 36,
      "vel": 52,
      "dur": 80
    },
    {
      "t": 2044.1,
      "ch": 7,
      "note": 38,
      "vel": 57,
      "dur": 80
    },
    {
      "t": 2044.2,
      "ch": 1,
      "note": 36,
      "vel": 74,
      "dur": 25
    },
    {
      "t": 2044.3,
      "ch": 1,
      "note": 38,
      "vel": 66,
      "dur": 25
    },
    {
      "t": 2044.3,
      "ch": 5,
      "note": 74,
      "vel": 37,
      "dur": 858
    },
    {
      "t": 2044.4,
      "ch": 1,
      "note": 40,
      "vel": 74,
      "dur": 25
    },
    {
      "t": 2044.5,
      "ch": 1,
      "note": 42,
      "vel": 90,
      "dur": 25
    },
    {
      "t": 2044.5,
      "ch": 7,
      "note": 48,
      "vel": 62,
      "dur": 80
    },
    {
      "t": 2044.5,
      "ch": 7,
      "note": 36,
      "vel": 71,
      "dur": 80
    },
    {
      "t": 2044.6,
      "ch": 1,
      "note": 36,
      "vel": 85,
      "dur": 25
    },
    {
      "t": 2044.6,
      "ch": 6,
      "note": 76,
      "vel": 19,
      "dur": 400
    },
    {
      "t": 2044.7,
      "ch": 1,
      "note": 38,
      "vel": 74,
      "dur": 25
    },
    {
      "t": 2044.7,
      "ch": 6,
      "note": 74,
      "vel": 21,
      "dur": 574
    },
    {
      "t": 2044.8,
      "ch": 1,
      "note": 40,
      "vel": 67,
      "dur": 25
    },
    {
      "t": 2044.9,
      "ch": 1,
      "note": 42,
      "vel": 67,
      "dur": 25
    },
    {
      "t": 2044.9,
      "ch": 0,
      "note": 36,
      "vel": 79,
      "dur": 55
    },
    {
      "t": 2044.9,
      "ch": 5,
      "note": 74,
      "vel": 32,
      "dur": 861
    },
    {
      "t": 2044.9,
      "ch": 1,
      "note": 36,
      "vel": 85,
      "dur": 25
    },
    {
      "t": 2045.1,
      "ch": 1,
      "note": 38,
      "vel": 65,
      "dur": 25
    },
    {
      "t": 2045.1,
      "ch": 1,
      "note": 40,
      "vel": 78,
      "dur": 25
    },
    {
      "t": 2045.2,
      "ch": 0,
      "note": 36,
      "vel": 115,
      "dur": 55
    },
    {
      "t": 2045.2,
      "ch": 1,
      "note": 42,
      "vel": 112,
      "dur": 25
    },
    {
      "t": 2045.2,
      "ch": 7,
      "note": 48,
      "vel": 76,
      "dur": 80
    },
    {
      "t": 2045.2,
      "ch": 7,
      "note": 45,
      "vel": 71,
      "dur": 80
    },
    {
      "t": 2045.2,
      "ch": 7,
      "note": 36,
      "vel": 70,
      "dur": 80
    },
    {
      "t": 2045.2,
      "ch": 7,
      "note": 38,
      "vel": 72,
      "dur": 80
    },
    {
      "t": 2045.2,
      "ch": 5,
      "note": 76,
      "vel": 14,
      "dur": 864
    },
    {
      "t": 2045.3,
      "ch": 1,
      "note": 36,
      "vel": 84,
      "dur": 25
    },
    {
      "t": 2045.4,
      "ch": 1,
      "note": 38,
      "vel": 61,
      "dur": 25
    },
    {
      "t": 2045.5,
      "ch": 1,
      "note": 40,
      "vel": 71,
      "dur": 25
    },
    {
      "t": 2045.6,
      "ch": 1,
      "note": 42,
      "vel": 68,
      "dur": 25
    },
    {
      "t": 2045.6,
      "ch": 7,
      "note": 36,
      "vel": 59,
      "dur": 80
    },
    {
      "t": 2045.7,
      "ch": 1,
      "note": 36,
      "vel": 79,
      "dur": 25
    },
    {
      "t": 2045.7,
      "ch": 6,
      "note": 76,
      "vel": 11,
      "dur": 400
    },
    {
      "t": 2045.8,
      "ch": 1,
      "note": 38,
      "vel": 61,
      "dur": 25
    },
    {
      "t": 2045.9,
      "ch": 1,
      "note": 40,
      "vel": 60,
      "dur": 25
    },
    {
      "t": 2046,
      "ch": 1,
      "note": 42,
      "vel": 88,
      "dur": 25
    },
    {
      "t": 2046,
      "ch": 7,
      "note": 48,
      "vel": 74,
      "dur": 80
    },
    {
      "t": 2046,
      "ch": 7,
      "note": 36,
      "vel": 70,
      "dur": 80
    },
    {
      "t": 2046,
      "ch": 1,
      "note": 36,
      "vel": 70,
      "dur": 25
    },
    {
      "t": 2046.1,
      "ch": 1,
      "note": 38,
      "vel": 83,
      "dur": 25
    },
    {
      "t": 2046.2,
      "ch": 7,
      "note": 45,
      "vel": 74,
      "dur": 80
    },
    {
      "t": 2046.2,
      "ch": 7,
      "note": 38,
      "vel": 63,
      "dur": 80
    },
    {
      "t": 2046.2,
      "ch": 1,
      "note": 40,
      "vel": 59,
      "dur": 25
    },
    {
      "t": 2046.3,
      "ch": 1,
      "note": 42,
      "vel": 62,
      "dur": 25
    },
    {
      "t": 2046.4,
      "ch": 1,
      "note": 36,
      "vel": 64,
      "dur": 25
    },
    {
      "t": 2046.5,
      "ch": 1,
      "note": 38,
      "vel": 66,
      "dur": 25
    },
    {
      "t": 2046.6,
      "ch": 5,
      "note": 74,
      "vel": 35,
      "dur": 869
    },
    {
      "t": 2046.6,
      "ch": 1,
      "note": 40,
      "vel": 65,
      "dur": 25
    },
    {
      "t": 2046.6,
      "ch": 2,
      "note": 52,
      "vel": 52,
      "dur": 21951
    },
    {
      "t": 2046.6,
      "ch": 2,
      "note": 64,
      "vel": 36,
      "dur": 21951
    },
    {
      "t": 2046.7,
      "ch": 0,
      "note": 36,
      "vel": 93,
      "dur": 55
    },
    {
      "t": 2046.7,
      "ch": 1,
      "note": 42,
      "vel": 102,
      "dur": 25
    },
    {
      "t": 2046.7,
      "ch": 7,
      "note": 48,
      "vel": 72,
      "dur": 80
    },
    {
      "t": 2046.7,
      "ch": 7,
      "note": 36,
      "vel": 75,
      "dur": 80
    },
    {
      "t": 2046.8,
      "ch": 1,
      "note": 36,
      "vel": 78,
      "dur": 25
    },
    {
      "t": 2046.9,
      "ch": 1,
      "note": 38,
      "vel": 58,
      "dur": 25
    },
    {
      "t": 2047,
      "ch": 1,
      "note": 40,
      "vel": 73,
      "dur": 25
    },
    {
      "t": 2047.1,
      "ch": 1,
      "note": 42,
      "vel": 67,
      "dur": 25
    },
    {
      "t": 2047.1,
      "ch": 7,
      "note": 45,
      "vel": 56,
      "dur": 80
    },
    {
      "t": 2047.1,
      "ch": 7,
      "note": 36,
      "vel": 60,
      "dur": 80
    },
    {
      "t": 2047.1,
      "ch": 7,
      "note": 38,
      "vel": 55,
      "dur": 80
    },
    {
      "t": 2047.1,
      "ch": 1,
      "note": 36,
      "vel": 87,
      "dur": 25
    },
    {
      "t": 2047.2,
      "ch": 1,
      "note": 38,
      "vel": 84,
      "dur": 25
    },
    {
      "t": 2047.3,
      "ch": 1,
      "note": 40,
      "vel": 57,
      "dur": 25
    },
    {
      "t": 2047.4,
      "ch": 1,
      "note": 42,
      "vel": 98,
      "dur": 25
    },
    {
      "t": 2047.4,
      "ch": 7,
      "note": 48,
      "vel": 80,
      "dur": 80
    },
    {
      "t": 2047.4,
      "ch": 7,
      "note": 36,
      "vel": 76,
      "dur": 80
    },
    {
      "t": 2047.5,
      "ch": 5,
      "note": 74,
      "vel": 30,
      "dur": 872
    },
    {
      "t": 2047.5,
      "ch": 1,
      "note": 36,
      "vel": 81,
      "dur": 25
    },
    {
      "t": 2047.6,
      "ch": 1,
      "note": 38,
      "vel": 81,
      "dur": 25
    },
    {
      "t": 2047.7,
      "ch": 1,
      "note": 40,
      "vel": 64,
      "dur": 25
    },
    {
      "t": 2047.8,
      "ch": 1,
      "note": 42,
      "vel": 67,
      "dur": 25
    },
    {
      "t": 2047.8,
      "ch": 0,
      "note": 36,
      "vel": 76,
      "dur": 55
    },
    {
      "t": 2047.9,
      "ch": 1,
      "note": 36,
      "vel": 72,
      "dur": 25
    },
    {
      "t": 2048,
      "ch": 1,
      "note": 38,
      "vel": 80,
      "dur": 25
    },
    {
      "t": 2048,
      "ch": 1,
      "note": 40,
      "vel": 91,
      "dur": 25
    },
    {
      "t": 2048.2,
      "ch": 0,
      "note": 36,
      "vel": 104,
      "dur": 55
    },
    {
      "t": 2048.2,
      "ch": 1,
      "note": 42,
      "vel": 69,
      "dur": 25
    },
    {
      "t": 2048.2,
      "ch": 7,
      "note": 48,
      "vel": 76,
      "dur": 80
    },
    {
      "t": 2048.2,
      "ch": 7,
      "note": 45,
      "vel": 78,
      "dur": 80
    },
    {
      "t": 2048.2,
      "ch": 7,
      "note": 36,
      "vel": 79,
      "dur": 80
    },
    {
      "t": 2048.2,
      "ch": 7,
      "note": 38,
      "vel": 86,
      "dur": 80
    },
    {
      "t": 2048.2,
      "ch": 1,
      "note": 36,
      "vel": 81,
      "dur": 25
    },
    {
      "t": 2048.3,
      "ch": 1,
      "note": 38,
      "vel": 96,
      "dur": 25
    },
    {
      "t": 2048.4,
      "ch": 1,
      "note": 40,
      "vel": 83,
      "dur": 25
    },
    {
      "t": 2048.5,
      "ch": 1,
      "note": 42,
      "vel": 65,
      "dur": 25
    },
    {
      "t": 2048.5,
      "ch": 7,
      "note": 36,
      "vel": 62,
      "dur": 80
    },
    {
      "t": 2048.6,
      "ch": 1,
      "note": 36,
      "vel": 71,
      "dur": 25
    },
    {
      "t": 2048.7,
      "ch": 1,
      "note": 38,
      "vel": 84,
      "dur": 25
    },
    {
      "t": 2048.8,
      "ch": 1,
      "note": 40,
      "vel": 77,
      "dur": 25
    },
    {
      "t": 2048.9,
      "ch": 1,
      "note": 42,
      "vel": 85,
      "dur": 25
    },
    {
      "t": 2048.9,
      "ch": 7,
      "note": 48,
      "vel": 72,
      "dur": 80
    },
    {
      "t": 2048.9,
      "ch": 7,
      "note": 36,
      "vel": 68,
      "dur": 80
    },
    {
      "t": 2049,
      "ch": 1,
      "note": 36,
      "vel": 86,
      "dur": 25
    },
    {
      "t": 2049.1,
      "ch": 1,
      "note": 38,
      "vel": 81,
      "dur": 25
    },
    {
      "t": 2049.1,
      "ch": 7,
      "note": 45,
      "vel": 60,
      "dur": 80
    },
    {
      "t": 2049.1,
      "ch": 7,
      "note": 38,
      "vel": 73,
      "dur": 80
    },
    {
      "t": 2049.1,
      "ch": 1,
      "note": 40,
      "vel": 72,
      "dur": 25
    },
    {
      "t": 2049.3,
      "ch": 1,
      "note": 42,
      "vel": 69,
      "dur": 25
    },
    {
      "t": 2049.3,
      "ch": 1,
      "note": 36,
      "vel": 81,
      "dur": 25
    },
    {
      "t": 2049.4,
      "ch": 1,
      "note": 38,
      "vel": 84,
      "dur": 25
    },
    {
      "t": 2049.5,
      "ch": 1,
      "note": 40,
      "vel": 84,
      "dur": 25
    },
    {
      "t": 2049.6,
      "ch": 0,
      "note": 36,
      "vel": 90,
      "dur": 55
    },
    {
      "t": 2049.6,
      "ch": 1,
      "note": 42,
      "vel": 88,
      "dur": 25
    },
    {
      "t": 2049.6,
      "ch": 7,
      "note": 48,
      "vel": 75,
      "dur": 80
    },
    {
      "t": 2049.6,
      "ch": 7,
      "note": 36,
      "vel": 68,
      "dur": 80
    },
    {
      "t": 2049.7,
      "ch": 1,
      "note": 36,
      "vel": 99,
      "dur": 25
    },
    {
      "t": 2049.8,
      "ch": 1,
      "note": 38,
      "vel": 62,
      "dur": 25
    },
    {
      "t": 2049.9,
      "ch": 1,
      "note": 40,
      "vel": 77,
      "dur": 25
    },
    {
      "t": 2050,
      "ch": 1,
      "note": 42,
      "vel": 62,
      "dur": 25
    },
    {
      "t": 2050,
      "ch": 7,
      "note": 45,
      "vel": 58,
      "dur": 80
    },
    {
      "t": 2050,
      "ch": 7,
      "note": 36,
      "vel": 55,
      "dur": 80
    },
    {
      "t": 2050,
      "ch": 7,
      "note": 38,
      "vel": 53,
      "dur": 80
    },
    {
      "t": 2050.1,
      "ch": 1,
      "note": 36,
      "vel": 64,
      "dur": 25
    },
    {
      "t": 2050.2,
      "ch": 1,
      "note": 38,
      "vel": 68,
      "dur": 25
    },
    {
      "t": 2050.2,
      "ch": 1,
      "note": 40,
      "vel": 77,
      "dur": 25
    },
    {
      "t": 2050.4,
      "ch": 1,
      "note": 42,
      "vel": 98,
      "dur": 25
    },
    {
      "t": 2050.4,
      "ch": 7,
      "note": 48,
      "vel": 79,
      "dur": 80
    },
    {
      "t": 2050.4,
      "ch": 7,
      "note": 36,
      "vel": 75,
      "dur": 80
    },
    {
      "t": 2050.4,
      "ch": 1,
      "note": 36,
      "vel": 93,
      "dur": 25
    },
    {
      "t": 2050.5,
      "ch": 1,
      "note": 38,
      "vel": 83,
      "dur": 25
    },
    {
      "t": 2050.6,
      "ch": 1,
      "note": 40,
      "vel": 79,
      "dur": 25
    },
    {
      "t": 2050.7,
      "ch": 1,
      "note": 42,
      "vel": 74,
      "dur": 25
    },
    {
      "t": 2050.8,
      "ch": 1,
      "note": 36,
      "vel": 77,
      "dur": 25
    },
    {
      "t": 2050.9,
      "ch": 1,
      "note": 38,
      "vel": 74,
      "dur": 25
    },
    {
      "t": 2051,
      "ch": 1,
      "note": 40,
      "vel": 83,
      "dur": 25
    },
    {
      "t": 2051.1,
      "ch": 0,
      "note": 36,
      "vel": 116,
      "dur": 55
    },
    {
      "t": 2051.1,
      "ch": 1,
      "note": 42,
      "vel": 66,
      "dur": 25
    },
    {
      "t": 2051.1,
      "ch": 7,
      "note": 48,
      "vel": 72,
      "dur": 80
    },
    {
      "t": 2051.1,
      "ch": 7,
      "note": 45,
      "vel": 77,
      "dur": 80
    },
    {
      "t": 2051.1,
      "ch": 7,
      "note": 36,
      "vel": 66,
      "dur": 80
    },
    {
      "t": 2051.1,
      "ch": 7,
      "note": 38,
      "vel": 65,
      "dur": 80
    },
    {
      "t": 2051.2,
      "ch": 1,
      "note": 36,
      "vel": 64,
      "dur": 25
    },
    {
      "t": 2051.3,
      "ch": 1,
      "note": 38,
      "vel": 95,
      "dur": 25
    },
    {
      "t": 2051.3,
      "ch": 1,
      "note": 40,
      "vel": 55,
      "dur": 25
    },
    {
      "t": 2051.5,
      "ch": 1,
      "note": 42,
      "vel": 74,
      "dur": 25
    },
    {
      "t": 2051.5,
      "ch": 7,
      "note": 36,
      "vel": 61,
      "dur": 80
    },
    {
      "t": 2051.5,
      "ch": 1,
      "note": 36,
      "vel": 75,
      "dur": 25
    },
    {
      "t": 2051.6,
      "ch": 1,
      "note": 38,
      "vel": 80,
      "dur": 25
    },
    {
      "t": 2051.7,
      "ch": 1,
      "note": 40,
      "vel": 60,
      "dur": 25
    },
    {
      "t": 2051.8,
      "ch": 1,
      "note": 42,
      "vel": 92,
      "dur": 25
    },
    {
      "t": 2051.8,
      "ch": 7,
      "note": 48,
      "vel": 76,
      "dur": 80
    },
    {
      "t": 2051.8,
      "ch": 7,
      "note": 36,
      "vel": 71,
      "dur": 80
    },
    {
      "t": 2051.9,
      "ch": 1,
      "note": 36,
      "vel": 90,
      "dur": 25
    },
    {
      "t": 2052,
      "ch": 1,
      "note": 38,
      "vel": 70,
      "dur": 25
    },
    {
      "t": 2052,
      "ch": 7,
      "note": 45,
      "vel": 67,
      "dur": 80
    },
    {
      "t": 2052,
      "ch": 7,
      "note": 38,
      "vel": 63,
      "dur": 80
    },
    {
      "t": 2052.1,
      "ch": 1,
      "note": 40,
      "vel": 58,
      "dur": 25
    },
    {
      "t": 2052.2,
      "ch": 1,
      "note": 42,
      "vel": 83,
      "dur": 25
    },
    {
      "t": 2052.3,
      "ch": 1,
      "note": 36,
      "vel": 71,
      "dur": 25
    },
    {
      "t": 2052.4,
      "ch": 1,
      "note": 38,
      "vel": 67,
      "dur": 25
    },
    {
      "t": 2052.4,
      "ch": 1,
      "note": 40,
      "vel": 60,
      "dur": 25
    },
    {
      "t": 2052.6,
      "ch": 0,
      "note": 36,
      "vel": 89,
      "dur": 55
    },
    {
      "t": 2052.6,
      "ch": 1,
      "note": 42,
      "vel": 67,
      "dur": 25
    },
    {
      "t": 2052.6,
      "ch": 7,
      "note": 48,
      "vel": 71,
      "dur": 80
    },
    {
      "t": 2052.6,
      "ch": 7,
      "note": 36,
      "vel": 66,
      "dur": 80
    },
    {
      "t": 2052.6,
      "ch": 1,
      "note": 36,
      "vel": 73,
      "dur": 25
    },
    {
      "t": 2052.7,
      "ch": 1,
      "note": 38,
      "vel": 102,
      "dur": 25
    },
    {
      "t": 2052.8,
      "ch": 1,
      "note": 40,
      "vel": 57,
      "dur": 25
    },
    {
      "t": 2052.9,
      "ch": 1,
      "note": 42,
      "vel": 71,
      "dur": 25
    },
    {
      "t": 2052.9,
      "ch": 7,
      "note": 45,
      "vel": 60,
      "dur": 80
    },
    {
      "t": 2052.9,
      "ch": 7,
      "note": 36,
      "vel": 69,
      "dur": 80
    },
    {
      "t": 2052.9,
      "ch": 7,
      "note": 38,
      "vel": 59,
      "dur": 80
    },
    {
      "t": 2053,
      "ch": 1,
      "note": 36,
      "vel": 53,
      "dur": 25
    },
    {
      "t": 2053.1,
      "ch": 1,
      "note": 38,
      "vel": 60,
      "dur": 25
    },
    {
      "t": 2053.2,
      "ch": 1,
      "note": 40,
      "vel": 56,
      "dur": 25
    },
    {
      "t": 2053.3,
      "ch": 1,
      "note": 42,
      "vel": 95,
      "dur": 25
    },
    {
      "t": 2053.3,
      "ch": 7,
      "note": 48,
      "vel": 62,
      "dur": 80
    },
    {
      "t": 2053.3,
      "ch": 7,
      "note": 36,
      "vel": 73,
      "dur": 80
    },
    {
      "t": 2053.4,
      "ch": 1,
      "note": 36,
      "vel": 97,
      "dur": 25
    },
    {
      "t": 2053.5,
      "ch": 1,
      "note": 38,
      "vel": 80,
      "dur": 25
    },
    {
      "t": 2053.5,
      "ch": 1,
      "note": 40,
      "vel": 65,
      "dur": 25
    },
    {
      "t": 2053.7,
      "ch": 1,
      "note": 42,
      "vel": 65,
      "dur": 25
    },
    {
      "t": 2053.7,
      "ch": 1,
      "note": 36,
      "vel": 72,
      "dur": 25
    },
    {
      "t": 2053.8,
      "ch": 1,
      "note": 38,
      "vel": 93,
      "dur": 25
    },
    {
      "t": 2053.9,
      "ch": 6,
      "note": 60,
      "vel": 8,
      "dur": 570
    },
    {
      "t": 2053.9,
      "ch": 1,
      "note": 40,
      "vel": 85,
      "dur": 25
    },
    {
      "t": 2054,
      "ch": 7,
      "note": 48,
      "vel": 78,
      "dur": 80
    },
    {
      "t": 2054,
      "ch": 7,
      "note": 45,
      "vel": 70,
      "dur": 80
    },
    {
      "t": 2054,
      "ch": 7,
      "note": 36,
      "vel": 67,
      "dur": 80
    },
    {
      "t": 2054,
      "ch": 7,
      "note": 38,
      "vel": 66,
      "dur": 80
    },
    {
      "t": 2054.4,
      "ch": 7,
      "note": 36,
      "vel": 57,
      "dur": 80
    },
    {
      "t": 2054.7,
      "ch": 1,
      "note": 42,
      "vel": 75,
      "dur": 25
    },
    {
      "t": 2054.7,
      "ch": 1,
      "note": 36,
      "vel": 79,
      "dur": 25
    },
    {
      "t": 2054.7,
      "ch": 1,
      "note": 38,
      "vel": 90,
      "dur": 25
    },
    {
      "t": 2054.7,
      "ch": 1,
      "note": 40,
      "vel": 101,
      "dur": 25
    },
    {
      "t": 2054.7,
      "ch": 1,
      "note": 42,
      "vel": 107,
      "dur": 25
    },
    {
      "t": 2054.7,
      "ch": 1,
      "note": 36,
      "vel": 78,
      "dur": 25
    },
    {
      "t": 2054.7,
      "ch": 1,
      "note": 38,
      "vel": 71,
      "dur": 25
    },
    {
      "t": 2054.7,
      "ch": 1,
      "note": 40,
      "vel": 82,
      "dur": 25
    },
    {
      "t": 2054.8,
      "ch": 1,
      "note": 42,
      "vel": 101,
      "dur": 25
    },
    {
      "t": 2054.8,
      "ch": 7,
      "note": 48,
      "vel": 70,
      "dur": 80
    },
    {
      "t": 2054.8,
      "ch": 7,
      "note": 36,
      "vel": 57,
      "dur": 80
    },
    {
      "t": 2054.8,
      "ch": 1,
      "note": 36,
      "vel": 81,
      "dur": 25
    },
    {
      "t": 2054.9,
      "ch": 1,
      "note": 38,
      "vel": 67,
      "dur": 25
    },
    {
      "t": 2054.9,
      "ch": 7,
      "note": 38,
      "vel": 71,
      "dur": 80
    },
    {
      "t": 2054.9,
      "ch": 7,
      "note": 45,
      "vel": 63,
      "dur": 80
    },
    {
      "t": 2055,
      "ch": 1,
      "note": 40,
      "vel": 81,
      "dur": 25
    },
    {
      "t": 2055.1,
      "ch": 1,
      "note": 42,
      "vel": 95,
      "dur": 25
    },
    {
      "t": 2055.2,
      "ch": 1,
      "note": 36,
      "vel": 85,
      "dur": 25
    },
    {
      "t": 2055.3,
      "ch": 1,
      "note": 38,
      "vel": 76,
      "dur": 25
    },
    {
      "t": 2055.4,
      "ch": 1,
      "note": 40,
      "vel": 92,
      "dur": 25
    },
    {
      "t": 2055.5,
      "ch": 1,
      "note": 42,
      "vel": 79,
      "dur": 25
    },
    {
      "t": 2055.5,
      "ch": 7,
      "note": 48,
      "vel": 62,
      "dur": 80
    },
    {
      "t": 2055.5,
      "ch": 7,
      "note": 36,
      "vel": 62,
      "dur": 80
    },
    {
      "t": 2055.5,
      "ch": 1,
      "note": 36,
      "vel": 97,
      "dur": 25
    },
    {
      "t": 2055.7,
      "ch": 1,
      "note": 38,
      "vel": 101,
      "dur": 25
    },
    {
      "t": 2055.7,
      "ch": 1,
      "note": 40,
      "vel": 85,
      "dur": 25
    },
    {
      "t": 2055.8,
      "ch": 1,
      "note": 42,
      "vel": 80,
      "dur": 25
    },
    {
      "t": 2055.9,
      "ch": 7,
      "note": 45,
      "vel": 54,
      "dur": 80
    },
    {
      "t": 2055.9,
      "ch": 7,
      "note": 38,
      "vel": 61,
      "dur": 80
    },
    {
      "t": 2055.9,
      "ch": 7,
      "note": 36,
      "vel": 60,
      "dur": 80
    },
    {
      "t": 2055.9,
      "ch": 5,
      "note": 76,
      "vel": 19,
      "dur": 844
    },
    {
      "t": 2055.9,
      "ch": 1,
      "note": 36,
      "vel": 89,
      "dur": 25
    },
    {
      "t": 2056,
      "ch": 1,
      "note": 38,
      "vel": 100,
      "dur": 25
    },
    {
      "t": 2056.1,
      "ch": 1,
      "note": 40,
      "vel": 91,
      "dur": 25
    },
    {
      "t": 2056.2,
      "ch": 1,
      "note": 42,
      "vel": 102,
      "dur": 25
    },
    {
      "t": 2056.2,
      "ch": 7,
      "note": 48,
      "vel": 64,
      "dur": 80
    },
    {
      "t": 2056.2,
      "ch": 7,
      "note": 36,
      "vel": 64,
      "dur": 80
    },
    {
      "t": 2056.3,
      "ch": 1,
      "note": 36,
      "vel": 120,
      "dur": 25
    },
    {
      "t": 2056.3,
      "ch": 6,
      "note": 76,
      "vel": 21,
      "dur": 400
    },
    {
      "t": 2056.4,
      "ch": 1,
      "note": 38,
      "vel": 89,
      "dur": 25
    },
    {
      "t": 2056.5,
      "ch": 1,
      "note": 40,
      "vel": 100,
      "dur": 25
    },
    {
      "t": 2056.6,
      "ch": 1,
      "note": 42,
      "vel": 100,
      "dur": 25
    },
    {
      "t": 2056.7,
      "ch": 1,
      "note": 36,
      "vel": 90,
      "dur": 25
    },
    {
      "t": 2056.8,
      "ch": 1,
      "note": 38,
      "vel": 77,
      "dur": 25
    },
    {
      "t": 2056.8,
      "ch": 5,
      "note": 74,
      "vel": 36,
      "dur": 839
    },
    {
      "t": 2056.8,
      "ch": 1,
      "note": 40,
      "vel": 91,
      "dur": 25
    },
    {
      "t": 2056.9,
      "ch": 1,
      "note": 42,
      "vel": 104,
      "dur": 25
    },
    {
      "t": 2056.9,
      "ch": 7,
      "note": 48,
      "vel": 65,
      "dur": 80
    },
    {
      "t": 2056.9,
      "ch": 7,
      "note": 45,
      "vel": 64,
      "dur": 80
    },
    {
      "t": 2056.9,
      "ch": 7,
      "note": 36,
      "vel": 60,
      "dur": 80
    },
    {
      "t": 2056.9,
      "ch": 7,
      "note": 38,
      "vel": 75,
      "dur": 80
    },
    {
      "t": 2057,
      "ch": 1,
      "note": 36,
      "vel": 93,
      "dur": 25
    },
    {
      "t": 2057.1,
      "ch": 1,
      "note": 38,
      "vel": 115,
      "dur": 25
    },
    {
      "t": 2057.2,
      "ch": 1,
      "note": 40,
      "vel": 100,
      "dur": 25
    },
    {
      "t": 2057.3,
      "ch": 1,
      "note": 42,
      "vel": 111,
      "dur": 25
    },
    {
      "t": 2057.3,
      "ch": 7,
      "note": 36,
      "vel": 58,
      "dur": 80
    },
    {
      "t": 2057.3,
      "ch": 6,
      "note": 65,
      "vel": 26,
      "dur": 558
    },
    {
      "t": 2057.4,
      "ch": 1,
      "note": 36,
      "vel": 87,
      "dur": 25
    },
    {
      "t": 2057.5,
      "ch": 1,
      "note": 38,
      "vel": 84,
      "dur": 25
    },
    {
      "t": 2057.6,
      "ch": 1,
      "note": 40,
      "vel": 82,
      "dur": 25
    },
    {
      "t": 2057.7,
      "ch": 1,
      "note": 42,
      "vel": 80,
      "dur": 25
    },
    {
      "t": 2057.7,
      "ch": 7,
      "note": 48,
      "vel": 63,
      "dur": 80
    },
    {
      "t": 2057.7,
      "ch": 7,
      "note": 36,
      "vel": 77,
      "dur": 80
    },
    {
      "t": 2057.8,
      "ch": 1,
      "note": 36,
      "vel": 111,
      "dur": 25
    },
    {
      "t": 2057.9,
      "ch": 1,
      "note": 38,
      "vel": 111,
      "dur": 25
    },
    {
      "t": 2057.9,
      "ch": 7,
      "note": 45,
      "vel": 54,
      "dur": 80
    },
    {
      "t": 2057.9,
      "ch": 7,
      "note": 38,
      "vel": 69,
      "dur": 80
    },
    {
      "t": 2057.9,
      "ch": 1,
      "note": 40,
      "vel": 95,
      "dur": 25
    },
    {
      "t": 2058.1,
      "ch": 1,
      "note": 42,
      "vel": 81,
      "dur": 25
    },
    {
      "t": 2058.1,
      "ch": 5,
      "note": 74,
      "vel": 32,
      "dur": 834
    },
    {
      "t": 2058.1,
      "ch": 1,
      "note": 36,
      "vel": 80,
      "dur": 25
    },
    {
      "t": 2058.2,
      "ch": 1,
      "note": 38,
      "vel": 84,
      "dur": 25
    },
    {
      "t": 2058.3,
      "ch": 1,
      "note": 40,
      "vel": 111,
      "dur": 25
    },
    {
      "t": 2058.3,
      "ch": 2,
      "note": 52,
      "vel": 53,
      "dur": 21951
    },
    {
      "t": 2058.3,
      "ch": 2,
      "note": 64,
      "vel": 37,
      "dur": 21951
    },
    {
      "t": 2058.3,
      "ch": 4,
      "note": 59,
      "vel": 35,
      "dur": 5803
    },
    {
      "t": 2058.4,
      "ch": 1,
      "note": 42,
      "vel": 97,
      "dur": 25
    },
    {
      "t": 2058.4,
      "ch": 7,
      "note": 48,
      "vel": 73,
      "dur": 80
    },
    {
      "t": 2058.4,
      "ch": 7,
      "note": 36,
      "vel": 64,
      "dur": 80
    },
    {
      "t": 2058.4,
      "ch": 5,
      "note": 76,
      "vel": 29,
      "dur": 833
    },
    {
      "t": 2058.5,
      "ch": 1,
      "note": 36,
      "vel": 120,
      "dur": 25
    },
    {
      "t": 2058.6,
      "ch": 1,
      "note": 38,
      "vel": 94,
      "dur": 25
    },
    {
      "t": 2058.7,
      "ch": 1,
      "note": 40,
      "vel": 69,
      "dur": 25
    },
    {
      "t": 2058.8,
      "ch": 1,
      "note": 42,
      "vel": 99,
      "dur": 25
    },
    {
      "t": 2058.8,
      "ch": 7,
      "note": 45,
      "vel": 62,
      "dur": 80
    },
    {
      "t": 2058.8,
      "ch": 7,
      "note": 36,
      "vel": 63,
      "dur": 80
    },
    {
      "t": 2058.8,
      "ch": 7,
      "note": 38,
      "vel": 56,
      "dur": 80
    },
    {
      "t": 2058.8,
      "ch": 1,
      "note": 36,
      "vel": 79,
      "dur": 25
    },
    {
      "t": 2059,
      "ch": 1,
      "note": 38,
      "vel": 91,
      "dur": 25
    },
    {
      "t": 2059,
      "ch": 1,
      "note": 40,
      "vel": 76,
      "dur": 25
    },
    {
      "t": 2059.1,
      "ch": 1,
      "note": 42,
      "vel": 94,
      "dur": 25
    },
    {
      "t": 2059.1,
      "ch": 7,
      "note": 48,
      "vel": 70,
      "dur": 80
    },
    {
      "t": 2059.1,
      "ch": 7,
      "note": 36,
      "vel": 70,
      "dur": 80
    },
    {
      "t": 2059.2,
      "ch": 1,
      "note": 36,
      "vel": 95,
      "dur": 25
    },
    {
      "t": 2059.3,
      "ch": 1,
      "note": 38,
      "vel": 87,
      "dur": 25
    },
    {
      "t": 2059.4,
      "ch": 1,
      "note": 40,
      "vel": 69,
      "dur": 25
    },
    {
      "t": 2059.5,
      "ch": 1,
      "note": 42,
      "vel": 93,
      "dur": 25
    },
    {
      "t": 2059.6,
      "ch": 1,
      "note": 36,
      "vel": 113,
      "dur": 25
    },
    {
      "t": 2059.7,
      "ch": 1,
      "note": 38,
      "vel": 90,
      "dur": 25
    },
    {
      "t": 2059.8,
      "ch": 1,
      "note": 40,
      "vel": 77,
      "dur": 25
    },
    {
      "t": 2059.9,
      "ch": 1,
      "note": 42,
      "vel": 127,
      "dur": 25
    },
    {
      "t": 2059.9,
      "ch": 7,
      "note": 48,
      "vel": 83,
      "dur": 80
    },
    {
      "t": 2059.9,
      "ch": 7,
      "note": 45,
      "vel": 85,
      "dur": 80
    },
    {
      "t": 2059.9,
      "ch": 7,
      "note": 36,
      "vel": 73,
      "dur": 80
    },
    {
      "t": 2059.9,
      "ch": 7,
      "note": 38,
      "vel": 52,
      "dur": 80
    },
    {
      "t": 2059.9,
      "ch": 1,
      "note": 36,
      "vel": 106,
      "dur": 25
    },
    {
      "t": 2060.1,
      "ch": 1,
      "note": 38,
      "vel": 101,
      "dur": 25
    },
    {
      "t": 2060.1,
      "ch": 1,
      "note": 40,
      "vel": 71,
      "dur": 25
    },
    {
      "t": 2060.3,
      "ch": 1,
      "note": 42,
      "vel": 93,
      "dur": 25
    },
    {
      "t": 2060.3,
      "ch": 7,
      "note": 36,
      "vel": 56,
      "dur": 80
    },
    {
      "t": 2060.3,
      "ch": 1,
      "note": 36,
      "vel": 76,
      "dur": 25
    },
    {
      "t": 2060.4,
      "ch": 1,
      "note": 38,
      "vel": 93,
      "dur": 25
    },
    {
      "t": 2060.4,
      "ch": 5,
      "note": 74,
      "vel": 24,
      "dur": 830
    },
    {
      "t": 2060.5,
      "ch": 1,
      "note": 40,
      "vel": 111,
      "dur": 25
    },
    {
      "t": 2060.6,
      "ch": 1,
      "note": 42,
      "vel": 101,
      "dur": 25
    },
    {
      "t": 2060.6,
      "ch": 7,
      "note": 48,
      "vel": 73,
      "dur": 80
    },
    {
      "t": 2060.6,
      "ch": 7,
      "note": 36,
      "vel": 59,
      "dur": 80
    },
    {
      "t": 2060.6,
      "ch": 6,
      "note": 67,
      "vel": 22,
      "dur": 554
    },
    {
      "t": 2060.7,
      "ch": 1,
      "note": 36,
      "vel": 101,
      "dur": 25
    },
    {
      "t": 2060.8,
      "ch": 1,
      "note": 38,
      "vel": 80,
      "dur": 25
    },
    {
      "t": 2060.8,
      "ch": 7,
      "note": 38,
      "vel": 63,
      "dur": 80
    },
    {
      "t": 2060.8,
      "ch": 7,
      "note": 45,
      "vel": 55,
      "dur": 80
    },
    {
      "t": 2060.9,
      "ch": 1,
      "note": 40,
      "vel": 100,
      "dur": 25
    },
    {
      "t": 2061,
      "ch": 1,
      "note": 42,
      "vel": 105,
      "dur": 25
    },
    {
      "t": 2061,
      "ch": 1,
      "note": 36,
      "vel": 90,
      "dur": 25
    },
    {
      "t": 2061.2,
      "ch": 1,
      "note": 38,
      "vel": 100,
      "dur": 25
    },
    {
      "t": 2061.2,
      "ch": 1,
      "note": 40,
      "vel": 92,
      "dur": 25
    },
    {
      "t": 2061.3,
      "ch": 1,
      "note": 42,
      "vel": 114,
      "dur": 25
    },
    {
      "t": 2061.3,
      "ch": 7,
      "note": 48,
      "vel": 73,
      "dur": 80
    },
    {
      "t": 2061.3,
      "ch": 7,
      "note": 36,
      "vel": 70,
      "dur": 80
    },
    {
      "t": 2061.4,
      "ch": 1,
      "note": 36,
      "vel": 119,
      "dur": 25
    },
    {
      "t": 2061.5,
      "ch": 1,
      "note": 38,
      "vel": 120,
      "dur": 25
    },
    {
      "t": 2061.6,
      "ch": 1,
      "note": 40,
      "vel": 101,
      "dur": 25
    },
    {
      "t": 2061.7,
      "ch": 1,
      "note": 42,
      "vel": 100,
      "dur": 25
    },
    {
      "t": 2061.7,
      "ch": 7,
      "note": 45,
      "vel": 70,
      "dur": 80
    },
    {
      "t": 2061.7,
      "ch": 7,
      "note": 36,
      "vel": 70,
      "dur": 80
    },
    {
      "t": 2061.7,
      "ch": 7,
      "note": 38,
      "vel": 68,
      "dur": 80
    },
    {
      "t": 2061.8,
      "ch": 1,
      "note": 36,
      "vel": 81,
      "dur": 25
    },
    {
      "t": 2061.9,
      "ch": 1,
      "note": 38,
      "vel": 109,
      "dur": 25
    },
    {
      "t": 2061.9,
      "ch": 5,
      "note": 74,
      "vel": 5,
      "dur": 833
    },
    {
      "t": 2061.9,
      "ch": 1,
      "note": 40,
      "vel": 86,
      "dur": 25
    },
    {
      "t": 2062.1,
      "ch": 1,
      "note": 42,
      "vel": 93,
      "dur": 25
    },
    {
      "t": 2062.1,
      "ch": 7,
      "note": 48,
      "vel": 61,
      "dur": 80
    },
    {
      "t": 2062.1,
      "ch": 7,
      "note": 36,
      "vel": 67,
      "dur": 80
    },
    {
      "t": 2062.1,
      "ch": 1,
      "note": 36,
      "vel": 103,
      "dur": 25
    },
    {
      "t": 2062.1,
      "ch": 6,
      "note": 76,
      "vel": 24,
      "dur": 400
    },
    {
      "t": 2062.3,
      "ch": 1,
      "note": 38,
      "vel": 101,
      "dur": 25
    },
    {
      "t": 2062.3,
      "ch": 1,
      "note": 40,
      "vel": 94,
      "dur": 25
    },
    {
      "t": 2062.4,
      "ch": 1,
      "note": 42,
      "vel": 82,
      "dur": 25
    },
    {
      "t": 2062.5,
      "ch": 1,
      "note": 36,
      "vel": 86,
      "dur": 25
    },
    {
      "t": 2062.6,
      "ch": 1,
      "note": 38,
      "vel": 82,
      "dur": 25
    },
    {
      "t": 2062.7,
      "ch": 1,
      "note": 40,
      "vel": 86,
      "dur": 25
    },
    {
      "t": 2062.8,
      "ch": 7,
      "note": 48,
      "vel": 78,
      "dur": 80
    },
    {
      "t": 2062.8,
      "ch": 7,
      "note": 45,
      "vel": 59,
      "dur": 80
    },
    {
      "t": 2062.8,
      "ch": 7,
      "note": 36,
      "vel": 84,
      "dur": 80
    },
    {
      "t": 2062.8,
      "ch": 7,
      "note": 38,
      "vel": 76,
      "dur": 80
    },
    {
      "t": 2063.2,
      "ch": 7,
      "note": 36,
      "vel": 65,
      "dur": 80
    },
    {
      "t": 2063.5,
      "ch": 7,
      "note": 48,
      "vel": 76,
      "dur": 80
    },
    {
      "t": 2063.5,
      "ch": 7,
      "note": 36,
      "vel": 77,
      "dur": 80
    },
    {
      "t": 2063.6,
      "ch": 5,
      "note": 76,
      "vel": 37,
      "dur": 840
    },
    {
      "t": 2063.7,
      "ch": 7,
      "note": 45,
      "vel": 64,
      "dur": 80
    },
    {
      "t": 2063.7,
      "ch": 7,
      "note": 38,
      "vel": 58,
      "dur": 80
    },
    {
      "t": 2063.7,
      "ch": 5,
      "note": 74,
      "vel": 21,
      "dur": 841
    },
    {
      "t": 2063.9,
      "ch": 6,
      "note": 76,
      "vel": 23,
      "dur": 400
    },
    {
      "t": 2064.2,
      "ch": 4,
      "note": 59,
      "vel": 32,
      "dur": 5803
    },
    {
      "t": 2064.3,
      "ch": 7,
      "note": 48,
      "vel": 56,
      "dur": 80
    },
    {
      "t": 2064.3,
      "ch": 7,
      "note": 36,
      "vel": 65,
      "dur": 80
    },
    {
      "t": 2064.7,
      "ch": 7,
      "note": 45,
      "vel": 61,
      "dur": 80
    },
    {
      "t": 2064.7,
      "ch": 7,
      "note": 36,
      "vel": 58,
      "dur": 80
    },
    {
      "t": 2064.7,
      "ch": 7,
      "note": 38,
      "vel": 62,
      "dur": 80
    },
    {
      "t": 2064.7,
      "ch": 5,
      "note": 74,
      "vel": 23,
      "dur": 846
    },
    {
      "t": 2065,
      "ch": 7,
      "note": 48,
      "vel": 69,
      "dur": 80
    },
    {
      "t": 2065,
      "ch": 7,
      "note": 36,
      "vel": 77,
      "dur": 80
    },
    {
      "t": 2065.7,
      "ch": 0,
      "note": 36,
      "vel": 127,
      "dur": 55
    },
    {
      "t": 2065.7,
      "ch": 7,
      "note": 48,
      "vel": 69,
      "dur": 80
    },
    {
      "t": 2065.7,
      "ch": 7,
      "note": 45,
      "vel": 69,
      "dur": 80
    },
    {
      "t": 2065.7,
      "ch": 7,
      "note": 36,
      "vel": 69,
      "dur": 80
    },
    {
      "t": 2065.7,
      "ch": 7,
      "note": 38,
      "vel": 64,
      "dur": 80
    },
    {
      "t": 2066.1,
      "ch": 7,
      "note": 36,
      "vel": 60,
      "dur": 80
    },
    {
      "t": 2066.5,
      "ch": 7,
      "note": 48,
      "vel": 69,
      "dur": 80
    },
    {
      "t": 2066.5,
      "ch": 7,
      "note": 36,
      "vel": 64,
      "dur": 80
    },
    {
      "t": 2066.7,
      "ch": 7,
      "note": 45,
      "vel": 62,
      "dur": 80
    },
    {
      "t": 2066.7,
      "ch": 7,
      "note": 38,
      "vel": 69,
      "dur": 80
    },
    {
      "t": 2067.2,
      "ch": 0,
      "note": 36,
      "vel": 84,
      "dur": 55
    },
    {
      "t": 2067.2,
      "ch": 7,
      "note": 48,
      "vel": 65,
      "dur": 80
    },
    {
      "t": 2067.2,
      "ch": 7,
      "note": 36,
      "vel": 75,
      "dur": 80
    },
    {
      "t": 2067.6,
      "ch": 7,
      "note": 45,
      "vel": 49,
      "dur": 80
    },
    {
      "t": 2067.6,
      "ch": 7,
      "note": 36,
      "vel": 62,
      "dur": 80
    },
    {
      "t": 2067.6,
      "ch": 7,
      "note": 38,
      "vel": 54,
      "dur": 80
    },
    {
      "t": 2067.9,
      "ch": 7,
      "note": 48,
      "vel": 76,
      "dur": 80
    },
    {
      "t": 2067.9,
      "ch": 7,
      "note": 36,
      "vel": 70,
      "dur": 80
    },
    {
      "t": 2068.7,
      "ch": 7,
      "note": 48,
      "vel": 77,
      "dur": 80
    },
    {
      "t": 2068.7,
      "ch": 7,
      "note": 45,
      "vel": 66,
      "dur": 80
    },
    {
      "t": 2068.7,
      "ch": 7,
      "note": 36,
      "vel": 71,
      "dur": 80
    },
    {
      "t": 2068.7,
      "ch": 7,
      "note": 38,
      "vel": 68,
      "dur": 80
    },
    {
      "t": 2069,
      "ch": 7,
      "note": 36,
      "vel": 73,
      "dur": 80
    },
    {
      "t": 2069.4,
      "ch": 7,
      "note": 48,
      "vel": 63,
      "dur": 80
    },
    {
      "t": 2069.4,
      "ch": 7,
      "note": 36,
      "vel": 67,
      "dur": 80
    },
    {
      "t": 2069.4,
      "ch": 5,
      "note": 76,
      "vel": 15,
      "dur": 874
    },
    {
      "t": 2069.6,
      "ch": 7,
      "note": 45,
      "vel": 62,
      "dur": 80
    },
    {
      "t": 2069.6,
      "ch": 7,
      "note": 38,
      "vel": 55,
      "dur": 80
    },
    {
      "t": 2070,
      "ch": 2,
      "note": 52,
      "vel": 51,
      "dur": 21951
    },
    {
      "t": 2070,
      "ch": 4,
      "note": 60,
      "vel": 25,
      "dur": 2926
    },
    {
      "t": 2070,
      "ch": 4,
      "note": 59,
      "vel": 27,
      "dur": 2876
    },
    {
      "t": 2070,
      "ch": 3,
      "note": 47,
      "vel": 29,
      "dur": 5853
    },
    {
      "t": 2070.1,
      "ch": 7,
      "note": 48,
      "vel": 73,
      "dur": 80
    },
    {
      "t": 2070.1,
      "ch": 7,
      "note": 36,
      "vel": 68,
      "dur": 80
    },
    {
      "t": 2070.5,
      "ch": 7,
      "note": 45,
      "vel": 53,
      "dur": 80
    },
    {
      "t": 2070.5,
      "ch": 7,
      "note": 36,
      "vel": 64,
      "dur": 80
    },
    {
      "t": 2070.5,
      "ch": 7,
      "note": 38,
      "vel": 60,
      "dur": 80
    },
    {
      "t": 2070.9,
      "ch": 7,
      "note": 48,
      "vel": 58,
      "dur": 80
    },
    {
      "t": 2070.9,
      "ch": 7,
      "note": 36,
      "vel": 83,
      "dur": 80
    },
    {
      "t": 2070.9,
      "ch": 6,
      "note": 62,
      "vel": 24,
      "dur": 586
    },
    {
      "t": 2071.2,
      "ch": 5,
      "note": 74,
      "vel": 30,
      "dur": 879
    },
    {
      "t": 2071.5,
      "ch": 6,
      "note": 76,
      "vel": 19,
      "dur": 400
    },
    {
      "t": 2071.6,
      "ch": 0,
      "note": 36,
      "vel": 121,
      "dur": 55
    },
    {
      "t": 2071.6,
      "ch": 7,
      "note": 48,
      "vel": 68,
      "dur": 80
    },
    {
      "t": 2071.6,
      "ch": 7,
      "note": 45,
      "vel": 68,
      "dur": 80
    },
    {
      "t": 2071.6,
      "ch": 7,
      "note": 36,
      "vel": 61,
      "dur": 80
    },
    {
      "t": 2071.6,
      "ch": 7,
      "note": 38,
      "vel": 66,
      "dur": 80
    },
    {
      "t": 2072,
      "ch": 7,
      "note": 36,
      "vel": 55,
      "dur": 80
    },
    {
      "t": 2072.3,
      "ch": 7,
      "note": 48,
      "vel": 68,
      "dur": 80
    },
    {
      "t": 2072.3,
      "ch": 7,
      "note": 36,
      "vel": 72,
      "dur": 80
    },
    {
      "t": 2072.5,
      "ch": 7,
      "note": 45,
      "vel": 74,
      "dur": 80
    },
    {
      "t": 2072.5,
      "ch": 7,
      "note": 38,
      "vel": 67,
      "dur": 80
    },
    {
      "t": 2072.7,
      "ch": 0,
      "note": 36,
      "vel": 85,
      "dur": 55
    },
    {
      "t": 2073,
      "ch": 7,
      "note": 48,
      "vel": 71,
      "dur": 80
    },
    {
      "t": 2073,
      "ch": 7,
      "note": 36,
      "vel": 65,
      "dur": 80
    },
    {
      "t": 2073.4,
      "ch": 7,
      "note": 45,
      "vel": 48,
      "dur": 80
    },
    {
      "t": 2073.4,
      "ch": 7,
      "note": 36,
      "vel": 65,
      "dur": 80
    },
    {
      "t": 2073.4,
      "ch": 7,
      "note": 38,
      "vel": 62,
      "dur": 80
    },
    {
      "t": 2073.8,
      "ch": 7,
      "note": 48,
      "vel": 75,
      "dur": 80
    },
    {
      "t": 2073.8,
      "ch": 7,
      "note": 36,
      "vel": 76,
      "dur": 80
    },
    {
      "t": 2074.2,
      "ch": 0,
      "note": 36,
      "vel": 84,
      "dur": 55
    },
    {
      "t": 2074.5,
      "ch": 0,
      "note": 36,
      "vel": 112,
      "dur": 55
    },
    {
      "t": 2074.5,
      "ch": 7,
      "note": 48,
      "vel": 69,
      "dur": 80
    },
    {
      "t": 2074.5,
      "ch": 7,
      "note": 45,
      "vel": 65,
      "dur": 80
    },
    {
      "t": 2074.5,
      "ch": 7,
      "note": 36,
      "vel": 63,
      "dur": 80
    },
    {
      "t": 2074.5,
      "ch": 7,
      "note": 38,
      "vel": 71,
      "dur": 80
    },
    {
      "t": 2074.9,
      "ch": 7,
      "note": 36,
      "vel": 73,
      "dur": 80
    },
    {
      "t": 2075.2,
      "ch": 7,
      "note": 48,
      "vel": 60,
      "dur": 80
    },
    {
      "t": 2075.2,
      "ch": 7,
      "note": 36,
      "vel": 55,
      "dur": 80
    },
    {
      "t": 2075.4,
      "ch": 7,
      "note": 45,
      "vel": 58,
      "dur": 80
    },
    {
      "t": 2075.4,
      "ch": 7,
      "note": 38,
      "vel": 74,
      "dur": 80
    },
    {
      "t": 2075.6,
      "ch": 0,
      "note": 36,
      "vel": 84,
      "dur": 55
    },
    {
      "t": 2075.9,
      "ch": 4,
      "note": 59,
      "vel": 26,
      "dur": 5803
    },
    {
      "t": 2075.9,
      "ch": 3,
      "note": 40,
      "vel": 29,
      "dur": 5853
    },
    {
      "t": 2076,
      "ch": 7,
      "note": 48,
      "vel": 66,
      "dur": 80
    },
    {
      "t": 2076,
      "ch": 7,
      "note": 36,
      "vel": 65,
      "dur": 80
    },
    {
      "t": 2076.3,
      "ch": 7,
      "note": 45,
      "vel": 63,
      "dur": 80
    },
    {
      "t": 2076.3,
      "ch": 7,
      "note": 36,
      "vel": 60,
      "dur": 80
    },
    {
      "t": 2076.3,
      "ch": 7,
      "note": 38,
      "vel": 57,
      "dur": 80
    },
    {
      "t": 2076.7,
      "ch": 7,
      "note": 48,
      "vel": 74,
      "dur": 80
    },
    {
      "t": 2076.7,
      "ch": 7,
      "note": 36,
      "vel": 70,
      "dur": 80
    },
    {
      "t": 2077.1,
      "ch": 0,
      "note": 36,
      "vel": 87,
      "dur": 55
    },
    {
      "t": 2077.4,
      "ch": 0,
      "note": 36,
      "vel": 115,
      "dur": 55
    },
    {
      "t": 2077.4,
      "ch": 7,
      "note": 48,
      "vel": 72,
      "dur": 80
    },
    {
      "t": 2077.4,
      "ch": 7,
      "note": 45,
      "vel": 78,
      "dur": 80
    },
    {
      "t": 2077.4,
      "ch": 7,
      "note": 36,
      "vel": 78,
      "dur": 80
    },
    {
      "t": 2077.4,
      "ch": 7,
      "note": 38,
      "vel": 69,
      "dur": 80
    },
    {
      "t": 2077.8,
      "ch": 7,
      "note": 36,
      "vel": 70,
      "dur": 80
    },
    {
      "t": 2078.2,
      "ch": 7,
      "note": 48,
      "vel": 72,
      "dur": 80
    },
    {
      "t": 2078.2,
      "ch": 7,
      "note": 36,
      "vel": 72,
      "dur": 80
    },
    {
      "t": 2078.3,
      "ch": 7,
      "note": 45,
      "vel": 67,
      "dur": 80
    },
    {
      "t": 2078.3,
      "ch": 7,
      "note": 38,
      "vel": 62,
      "dur": 80
    },
    {
      "t": 2078.5,
      "ch": 0,
      "note": 36,
      "vel": 77,
      "dur": 55
    },
    {
      "t": 2078.9,
      "ch": 7,
      "note": 48,
      "vel": 74,
      "dur": 80
    },
    {
      "t": 2078.9,
      "ch": 7,
      "note": 36,
      "vel": 70,
      "dur": 80
    },
    {
      "t": 2079.3,
      "ch": 7,
      "note": 45,
      "vel": 61,
      "dur": 80
    },
    {
      "t": 2079.3,
      "ch": 7,
      "note": 36,
      "vel": 69,
      "dur": 80
    },
    {
      "t": 2079.3,
      "ch": 7,
      "note": 38,
      "vel": 57,
      "dur": 80
    },
    {
      "t": 2079.6,
      "ch": 7,
      "note": 48,
      "vel": 65,
      "dur": 80
    },
    {
      "t": 2079.6,
      "ch": 7,
      "note": 36,
      "vel": 63,
      "dur": 80
    },
    {
      "t": 2080,
      "ch": 0,
      "note": 36,
      "vel": 84,
      "dur": 55
    },
    {
      "t": 2080.4,
      "ch": 0,
      "note": 36,
      "vel": 117,
      "dur": 55
    },
    {
      "t": 2080.4,
      "ch": 7,
      "note": 48,
      "vel": 79,
      "dur": 80
    },
    {
      "t": 2080.4,
      "ch": 7,
      "note": 45,
      "vel": 72,
      "dur": 80
    },
    {
      "t": 2080.4,
      "ch": 7,
      "note": 36,
      "vel": 87,
      "dur": 80
    },
    {
      "t": 2080.4,
      "ch": 7,
      "note": 38,
      "vel": 67,
      "dur": 80
    },
    {
      "t": 2080.6,
      "ch": 5,
      "note": 57,
      "vel": 16,
      "dur": 843
    },
    {
      "t": 2080.7,
      "ch": 7,
      "note": 36,
      "vel": 69,
      "dur": 80
    },
    {
      "t": 2081.1,
      "ch": 7,
      "note": 48,
      "vel": 79,
      "dur": 80
    },
    {
      "t": 2081.1,
      "ch": 7,
      "note": 36,
      "vel": 70,
      "dur": 80
    },
    {
      "t": 2081.3,
      "ch": 7,
      "note": 45,
      "vel": 63,
      "dur": 80
    },
    {
      "t": 2081.3,
      "ch": 7,
      "note": 38,
      "vel": 49,
      "dur": 80
    },
    {
      "t": 2081.5,
      "ch": 0,
      "note": 36,
      "vel": 77,
      "dur": 55
    },
    {
      "t": 2081.5,
      "ch": 6,
      "note": 65,
      "vel": 31,
      "dur": 560
    },
    {
      "t": 2081.7,
      "ch": 2,
      "note": 52,
      "vel": 51,
      "dur": 21951
    },
    {
      "t": 2081.7,
      "ch": 4,
      "note": 59,
      "vel": 29,
      "dur": 5803
    },
    {
      "t": 2081.7,
      "ch": 3,
      "note": 47,
      "vel": 31,
      "dur": 5853
    },
    {
      "t": 2081.8,
      "ch": 7,
      "note": 48,
      "vel": 70,
      "dur": 80
    },
    {
      "t": 2081.8,
      "ch": 7,
      "note": 36,
      "vel": 62,
      "dur": 80
    },
    {
      "t": 2081.8,
      "ch": 5,
      "note": 60,
      "vel": 32,
      "dur": 840
    },
    {
      "t": 2082.2,
      "ch": 7,
      "note": 45,
      "vel": 70,
      "dur": 80
    },
    {
      "t": 2082.2,
      "ch": 7,
      "note": 36,
      "vel": 54,
      "dur": 80
    },
    {
      "t": 2082.2,
      "ch": 7,
      "note": 38,
      "vel": 63,
      "dur": 80
    },
    {
      "t": 2082.6,
      "ch": 7,
      "note": 48,
      "vel": 79,
      "dur": 80
    },
    {
      "t": 2082.6,
      "ch": 7,
      "note": 36,
      "vel": 73,
      "dur": 80
    },
    {
      "t": 2082.9,
      "ch": 0,
      "note": 36,
      "vel": 87,
      "dur": 55
    },
    {
      "t": 2083.3,
      "ch": 0,
      "note": 36,
      "vel": 112,
      "dur": 55
    },
    {
      "t": 2083.3,
      "ch": 7,
      "note": 48,
      "vel": 74,
      "dur": 80
    },
    {
      "t": 2083.3,
      "ch": 7,
      "note": 45,
      "vel": 69,
      "dur": 80
    },
    {
      "t": 2083.3,
      "ch": 7,
      "note": 36,
      "vel": 55,
      "dur": 80
    },
    {
      "t": 2083.3,
      "ch": 7,
      "note": 38,
      "vel": 71,
      "dur": 80
    },
    {
      "t": 2083.7,
      "ch": 7,
      "note": 36,
      "vel": 56,
      "dur": 80
    },
    {
      "t": 2084,
      "ch": 7,
      "note": 48,
      "vel": 86,
      "dur": 80
    },
    {
      "t": 2084,
      "ch": 7,
      "note": 36,
      "vel": 79,
      "dur": 80
    },
    {
      "t": 2084.2,
      "ch": 7,
      "note": 45,
      "vel": 68,
      "dur": 80
    },
    {
      "t": 2084.2,
      "ch": 7,
      "note": 38,
      "vel": 62,
      "dur": 80
    },
    {
      "t": 2084.4,
      "ch": 0,
      "note": 36,
      "vel": 77,
      "dur": 55
    },
    {
      "t": 2084.7,
      "ch": 7,
      "note": 48,
      "vel": 71,
      "dur": 80
    },
    {
      "t": 2084.7,
      "ch": 7,
      "note": 36,
      "vel": 80,
      "dur": 80
    },
    {
      "t": 2085.1,
      "ch": 7,
      "note": 45,
      "vel": 66,
      "dur": 80
    },
    {
      "t": 2085.1,
      "ch": 7,
      "note": 36,
      "vel": 66,
      "dur": 80
    },
    {
      "t": 2085.1,
      "ch": 7,
      "note": 38,
      "vel": 74,
      "dur": 80
    },
    {
      "t": 2085.3,
      "ch": 5,
      "note": 64,
      "vel": 17,
      "dur": 843
    },
    {
      "t": 2085.5,
      "ch": 7,
      "note": 48,
      "vel": 65,
      "dur": 80
    },
    {
      "t": 2085.5,
      "ch": 7,
      "note": 36,
      "vel": 80,
      "dur": 80
    },
    {
      "t": 2085.9,
      "ch": 0,
      "note": 36,
      "vel": 84,
      "dur": 55
    },
    {
      "t": 2086.2,
      "ch": 0,
      "note": 36,
      "vel": 114,
      "dur": 55
    },
    {
      "t": 2086.2,
      "ch": 7,
      "note": 48,
      "vel": 67,
      "dur": 80
    },
    {
      "t": 2086.2,
      "ch": 7,
      "note": 45,
      "vel": 66,
      "dur": 80
    },
    {
      "t": 2086.2,
      "ch": 7,
      "note": 36,
      "vel": 76,
      "dur": 80
    },
    {
      "t": 2086.2,
      "ch": 7,
      "note": 38,
      "vel": 80,
      "dur": 80
    },
    {
      "t": 2086.6,
      "ch": 7,
      "note": 36,
      "vel": 66,
      "dur": 80
    },
    {
      "t": 2086.9,
      "ch": 7,
      "note": 48,
      "vel": 70,
      "dur": 80
    },
    {
      "t": 2086.9,
      "ch": 7,
      "note": 36,
      "vel": 77,
      "dur": 80
    },
    {
      "t": 2087.1,
      "ch": 7,
      "note": 45,
      "vel": 62,
      "dur": 80
    },
    {
      "t": 2087.1,
      "ch": 7,
      "note": 38,
      "vel": 47,
      "dur": 80
    },
    {
      "t": 2087.3,
      "ch": 0,
      "note": 36,
      "vel": 79,
      "dur": 55
    },
    {
      "t": 2087.6,
      "ch": 4,
      "note": 60,
      "vel": 24,
      "dur": 2926
    },
    {
      "t": 2087.6,
      "ch": 4,
      "note": 59,
      "vel": 27,
      "dur": 2876
    },
    {
      "t": 2087.6,
      "ch": 3,
      "note": 40,
      "vel": 28,
      "dur": 5853
    },
    {
      "t": 2087.7,
      "ch": 7,
      "note": 48,
      "vel": 54,
      "dur": 80
    },
    {
      "t": 2087.7,
      "ch": 7,
      "note": 36,
      "vel": 74,
      "dur": 80
    },
    {
      "t": 2088,
      "ch": 7,
      "note": 45,
      "vel": 71,
      "dur": 80
    },
    {
      "t": 2088,
      "ch": 7,
      "note": 36,
      "vel": 68,
      "dur": 80
    },
    {
      "t": 2088,
      "ch": 7,
      "note": 38,
      "vel": 53,
      "dur": 80
    },
    {
      "t": 2088.4,
      "ch": 7,
      "note": 48,
      "vel": 92,
      "dur": 80
    },
    {
      "t": 2088.4,
      "ch": 7,
      "note": 36,
      "vel": 65,
      "dur": 80
    },
    {
      "t": 2088.4,
      "ch": 5,
      "note": 57,
      "vel": 26,
      "dur": 861
    },
    {
      "t": 2088.8,
      "ch": 0,
      "note": 36,
      "vel": 78,
      "dur": 55
    },
    {
      "t": 2089.1,
      "ch": 0,
      "note": 36,
      "vel": 113,
      "dur": 55
    },
    {
      "t": 2089.1,
      "ch": 7,
      "note": 48,
      "vel": 74,
      "dur": 80
    },
    {
      "t": 2089.1,
      "ch": 7,
      "note": 45,
      "vel": 62,
      "dur": 80
    },
    {
      "t": 2089.1,
      "ch": 7,
      "note": 36,
      "vel": 67,
      "dur": 80
    },
    {
      "t": 2089.1,
      "ch": 7,
      "note": 38,
      "vel": 57,
      "dur": 80
    },
    {
      "t": 2089.5,
      "ch": 7,
      "note": 36,
      "vel": 60,
      "dur": 80
    },
    {
      "t": 2089.9,
      "ch": 7,
      "note": 48,
      "vel": 81,
      "dur": 80
    },
    {
      "t": 2089.9,
      "ch": 7,
      "note": 36,
      "vel": 73,
      "dur": 80
    },
    {
      "t": 2090.1,
      "ch": 7,
      "note": 45,
      "vel": 65,
      "dur": 80
    },
    {
      "t": 2090.1,
      "ch": 7,
      "note": 38,
      "vel": 60,
      "dur": 80
    },
    {
      "t": 2090.2,
      "ch": 0,
      "note": 36,
      "vel": 84,
      "dur": 55
    },
    {
      "t": 2090.6,
      "ch": 0,
      "note": 36,
      "vel": 97,
      "dur": 55
    },
    {
      "t": 2090.6,
      "ch": 7,
      "note": 48,
      "vel": 60,
      "dur": 80
    },
    {
      "t": 2090.6,
      "ch": 7,
      "note": 36,
      "vel": 69,
      "dur": 80
    },
    {
      "t": 2090.6,
      "ch": 5,
      "note": 60,
      "vel": 14,
      "dur": 875
    },
    {
      "t": 2091,
      "ch": 7,
      "note": 45,
      "vel": 61,
      "dur": 80
    },
    {
      "t": 2091,
      "ch": 7,
      "note": 36,
      "vel": 59,
      "dur": 80
    },
    {
      "t": 2091,
      "ch": 7,
      "note": 38,
      "vel": 58,
      "dur": 80
    },
    {
      "t": 2091.3,
      "ch": 7,
      "note": 48,
      "vel": 65,
      "dur": 80
    },
    {
      "t": 2091.3,
      "ch": 7,
      "note": 36,
      "vel": 68,
      "dur": 80
    },
    {
      "t": 2092.1,
      "ch": 7,
      "note": 48,
      "vel": 64,
      "dur": 80
    },
    {
      "t": 2092.1,
      "ch": 7,
      "note": 45,
      "vel": 73,
      "dur": 80
    },
    {
      "t": 2092.1,
      "ch": 7,
      "note": 36,
      "vel": 78,
      "dur": 80
    },
    {
      "t": 2092.1,
      "ch": 7,
      "note": 38,
      "vel": 62,
      "dur": 80
    },
    {
      "t": 2092.4,
      "ch": 7,
      "note": 36,
      "vel": 62,
      "dur": 80
    },
    {
      "t": 2092.8,
      "ch": 7,
      "note": 48,
      "vel": 69,
      "dur": 80
    },
    {
      "t": 2092.8,
      "ch": 7,
      "note": 36,
      "vel": 84,
      "dur": 80
    },
    {
      "t": 2093,
      "ch": 7,
      "note": 45,
      "vel": 47,
      "dur": 80
    },
    {
      "t": 2093,
      "ch": 7,
      "note": 38,
      "vel": 63,
      "dur": 80
    },
    {
      "t": 2093.4,
      "ch": 2,
      "note": 52,
      "vel": 49,
      "dur": 21951
    },
    {
      "t": 2093.4,
      "ch": 4,
      "note": 60,
      "vel": 21,
      "dur": 5803
    },
    {
      "t": 2093.4,
      "ch": 3,
      "note": 40,
      "vel": 23,
      "dur": 5853
    },
    {
      "t": 2093.5,
      "ch": 7,
      "note": 48,
      "vel": 73,
      "dur": 80
    },
    {
      "t": 2093.5,
      "ch": 7,
      "note": 36,
      "vel": 73,
      "dur": 80
    },
    {
      "t": 2093.9,
      "ch": 7,
      "note": 45,
      "vel": 63,
      "dur": 80
    },
    {
      "t": 2093.9,
      "ch": 7,
      "note": 36,
      "vel": 46,
      "dur": 80
    },
    {
      "t": 2094.3,
      "ch": 7,
      "note": 48,
      "vel": 80,
      "dur": 80
    },
    {
      "t": 2094.3,
      "ch": 7,
      "note": 36,
      "vel": 83,
      "dur": 80
    },
    {
      "t": 2095,
      "ch": 0,
      "note": 36,
      "vel": 109,
      "dur": 55
    },
    {
      "t": 2095,
      "ch": 7,
      "note": 48,
      "vel": 72,
      "dur": 80
    },
    {
      "t": 2095,
      "ch": 7,
      "note": 45,
      "vel": 66,
      "dur": 80
    },
    {
      "t": 2095,
      "ch": 7,
      "note": 36,
      "vel": 71,
      "dur": 80
    },
    {
      "t": 2095.4,
      "ch": 7,
      "note": 36,
      "vel": 57,
      "dur": 80
    },
    {
      "t": 2095.7,
      "ch": 7,
      "note": 48,
      "vel": 65,
      "dur": 80
    },
    {
      "t": 2095.7,
      "ch": 7,
      "note": 36,
      "vel": 81,
      "dur": 80
    },
    {
      "t": 2095.9,
      "ch": 7,
      "note": 45,
      "vel": 58,
      "dur": 80
    },
    {
      "t": 2096.5,
      "ch": 0,
      "note": 36,
      "vel": 97,
      "dur": 55
    },
    {
      "t": 2096.5,
      "ch": 7,
      "note": 48,
      "vel": 61,
      "dur": 80
    },
    {
      "t": 2096.5,
      "ch": 7,
      "note": 36,
      "vel": 84,
      "dur": 80
    },
    {
      "t": 2096.5,
      "ch": 6,
      "note": 65,
      "vel": 25,
      "dur": 591
    },
    {
      "t": 2096.8,
      "ch": 7,
      "note": 45,
      "vel": 53,
      "dur": 80
    },
    {
      "t": 2096.8,
      "ch": 7,
      "note": 36,
      "vel": 62,
      "dur": 80
    },
    {
      "t": 2097.2,
      "ch": 7,
      "note": 48,
      "vel": 80,
      "dur": 80
    },
    {
      "t": 2097.2,
      "ch": 7,
      "note": 36,
      "vel": 65,
      "dur": 80
    },
    {
      "t": 2097.9,
      "ch": 7,
      "note": 48,
      "vel": 62,
      "dur": 80
    },
    {
      "t": 2097.9,
      "ch": 7,
      "note": 45,
      "vel": 75,
      "dur": 80
    },
    {
      "t": 2097.9,
      "ch": 7,
      "note": 36,
      "vel": 64,
      "dur": 80
    },
    {
      "t": 2098.3,
      "ch": 7,
      "note": 36,
      "vel": 60,
      "dur": 80
    },
    {
      "t": 2098.7,
      "ch": 7,
      "note": 48,
      "vel": 70,
      "dur": 80
    },
    {
      "t": 2098.7,
      "ch": 7,
      "note": 36,
      "vel": 71,
      "dur": 80
    },
    {
      "t": 2098.8,
      "ch": 7,
      "note": 45,
      "vel": 64,
      "dur": 80
    },
    {
      "t": 2099.3,
      "ch": 4,
      "note": 59,
      "vel": 21,
      "dur": 5803
    },
    {
      "t": 2099.3,
      "ch": 3,
      "note": 40,
      "vel": 23,
      "dur": 5853
    },
    {
      "t": 2099.4,
      "ch": 7,
      "note": 48,
      "vel": 71,
      "dur": 80
    },
    {
      "t": 2099.4,
      "ch": 7,
      "note": 36,
      "vel": 66,
      "dur": 80
    },
    {
      "t": 2099.8,
      "ch": 7,
      "note": 45,
      "vel": 68,
      "dur": 80
    },
    {
      "t": 2099.8,
      "ch": 7,
      "note": 36,
      "vel": 54,
      "dur": 80
    },
    {
      "t": 2100.1,
      "ch": 7,
      "note": 48,
      "vel": 77,
      "dur": 80
    },
    {
      "t": 2100.1,
      "ch": 7,
      "note": 36,
      "vel": 65,
      "dur": 80
    },
    {
      "t": 2100.1,
      "ch": 6,
      "note": 57,
      "vel": 36,
      "dur": 580
    },
    {
      "t": 2100.8,
      "ch": 7,
      "note": 48,
      "vel": 68,
      "dur": 80
    },
    {
      "t": 2100.8,
      "ch": 7,
      "note": 45,
      "vel": 59,
      "dur": 80
    },
    {
      "t": 2100.8,
      "ch": 7,
      "note": 36,
      "vel": 78,
      "dur": 80
    },
    {
      "t": 2101.2,
      "ch": 7,
      "note": 36,
      "vel": 63,
      "dur": 80
    },
    {
      "t": 2101.6,
      "ch": 7,
      "note": 48,
      "vel": 69,
      "dur": 80
    },
    {
      "t": 2101.6,
      "ch": 7,
      "note": 36,
      "vel": 66,
      "dur": 80
    },
    {
      "t": 2101.8,
      "ch": 7,
      "note": 45,
      "vel": 48,
      "dur": 80
    },
    {
      "t": 2101.8,
      "ch": 5,
      "note": 64,
      "vel": 23,
      "dur": 860
    },
    {
      "t": 2102,
      "ch": 5,
      "note": 57,
      "vel": 24,
      "dur": 859
    },
    {
      "t": 2102.3,
      "ch": 7,
      "note": 48,
      "vel": 65,
      "dur": 80
    },
    {
      "t": 2102.3,
      "ch": 7,
      "note": 36,
      "vel": 74,
      "dur": 80
    },
    {
      "t": 2102.7,
      "ch": 7,
      "note": 45,
      "vel": 67,
      "dur": 80
    },
    {
      "t": 2102.7,
      "ch": 7,
      "note": 36,
      "vel": 59,
      "dur": 80
    },
    {
      "t": 2103,
      "ch": 7,
      "note": 48,
      "vel": 73,
      "dur": 80
    },
    {
      "t": 2103,
      "ch": 7,
      "note": 36,
      "vel": 68,
      "dur": 80
    },
    {
      "t": 2103.8,
      "ch": 7,
      "note": 48,
      "vel": 53,
      "dur": 80
    },
    {
      "t": 2103.8,
      "ch": 7,
      "note": 45,
      "vel": 69,
      "dur": 80
    },
    {
      "t": 2103.8,
      "ch": 7,
      "note": 36,
      "vel": 62,
      "dur": 80
    },
    {
      "t": 2104,
      "ch": 6,
      "note": 64,
      "vel": 42,
      "dur": 567
    },
    {
      "t": 2104.2,
      "ch": 7,
      "note": 36,
      "vel": 67,
      "dur": 80
    },
    {
      "t": 2104.5,
      "ch": 7,
      "note": 48,
      "vel": 71,
      "dur": 80
    },
    {
      "t": 2104.5,
      "ch": 7,
      "note": 36,
      "vel": 72,
      "dur": 80
    },
    {
      "t": 2104.5,
      "ch": 6,
      "note": 64,
      "vel": 30,
      "dur": 566
    },
    {
      "t": 2104.7,
      "ch": 7,
      "note": 45,
      "vel": 55,
      "dur": 80
    },
    {
      "t": 2105.2,
      "ch": 7,
      "note": 48,
      "vel": 68,
      "dur": 80
    },
    {
      "t": 2105.2,
      "ch": 7,
      "note": 36,
      "vel": 71,
      "dur": 80
    },
    {
      "t": 2105.6,
      "ch": 7,
      "note": 45,
      "vel": 57,
      "dur": 80
    },
    {
      "t": 2105.6,
      "ch": 7,
      "note": 36,
      "vel": 51,
      "dur": 80
    },
    {
      "t": 2105.6,
      "ch": 5,
      "note": 60,
      "vel": 4,
      "dur": 847
    },
    {
      "t": 2106,
      "ch": 7,
      "note": 48,
      "vel": 75,
      "dur": 80
    },
    {
      "t": 2106,
      "ch": 7,
      "note": 36,
      "vel": 80,
      "dur": 80
    },
    {
      "t": 2106.7,
      "ch": 0,
      "note": 36,
      "vel": 113,
      "dur": 55
    },
    {
      "t": 2106.7,
      "ch": 7,
      "note": 48,
      "vel": 64,
      "dur": 80
    },
    {
      "t": 2106.7,
      "ch": 7,
      "note": 45,
      "vel": 61,
      "dur": 80
    },
    {
      "t": 2106.7,
      "ch": 7,
      "note": 36,
      "vel": 67,
      "dur": 80
    },
    {
      "t": 2107.1,
      "ch": 7,
      "note": 36,
      "vel": 66,
      "dur": 80
    },
    {
      "t": 2107.1,
      "ch": 6,
      "note": 60,
      "vel": 5,
      "dur": 565
    },
    {
      "t": 2107.4,
      "ch": 7,
      "note": 48,
      "vel": 62,
      "dur": 80
    },
    {
      "t": 2107.4,
      "ch": 7,
      "note": 36,
      "vel": 66,
      "dur": 80
    },
    {
      "t": 2107.6,
      "ch": 7,
      "note": 45,
      "vel": 59,
      "dur": 80
    },
    {
      "t": 2108.2,
      "ch": 0,
      "note": 36,
      "vel": 92,
      "dur": 55
    },
    {
      "t": 2108.2,
      "ch": 7,
      "note": 48,
      "vel": 63,
      "dur": 80
    },
    {
      "t": 2108.2,
      "ch": 7,
      "note": 36,
      "vel": 64,
      "dur": 80
    },
    {
      "t": 2108.5,
      "ch": 7,
      "note": 45,
      "vel": 74,
      "dur": 80
    },
    {
      "t": 2108.5,
      "ch": 7,
      "note": 36,
      "vel": 75,
      "dur": 80
    },
    {
      "t": 2108.9,
      "ch": 7,
      "note": 48,
      "vel": 72,
      "dur": 80
    },
    {
      "t": 2108.9,
      "ch": 7,
      "note": 36,
      "vel": 74,
      "dur": 80
    },
    {
      "t": 2109.6,
      "ch": 7,
      "note": 48,
      "vel": 77,
      "dur": 80
    },
    {
      "t": 2109.6,
      "ch": 7,
      "note": 45,
      "vel": 72,
      "dur": 80
    },
    {
      "t": 2109.6,
      "ch": 7,
      "note": 36,
      "vel": 71,
      "dur": 80
    },
    {
      "t": 2110,
      "ch": 7,
      "note": 36,
      "vel": 69,
      "dur": 80
    },
    {
      "t": 2110.4,
      "ch": 7,
      "note": 48,
      "vel": 69,
      "dur": 80
    },
    {
      "t": 2110.4,
      "ch": 7,
      "note": 36,
      "vel": 66,
      "dur": 80
    },
    {
      "t": 2110.6,
      "ch": 7,
      "note": 45,
      "vel": 73,
      "dur": 80
    },
    {
      "t": 2110.7,
      "ch": 5,
      "note": 64,
      "vel": 19,
      "dur": 863
    },
    {
      "t": 2111.1,
      "ch": 7,
      "note": 48,
      "vel": 71,
      "dur": 80
    },
    {
      "t": 2111.1,
      "ch": 7,
      "note": 36,
      "vel": 80,
      "dur": 80
    },
    {
      "t": 2111.5,
      "ch": 7,
      "note": 45,
      "vel": 56,
      "dur": 80
    },
    {
      "t": 2111.5,
      "ch": 7,
      "note": 36,
      "vel": 67,
      "dur": 80
    },
    {
      "t": 2111.8,
      "ch": 7,
      "note": 48,
      "vel": 75,
      "dur": 80
    },
    {
      "t": 2111.8,
      "ch": 7,
      "note": 36,
      "vel": 79,
      "dur": 80
    },
    {
      "t": 2112.2,
      "ch": 5,
      "note": 57,
      "vel": 27,
      "dur": 872
    },
    {
      "t": 2112.6,
      "ch": 7,
      "note": 48,
      "vel": 76,
      "dur": 80
    },
    {
      "t": 2112.6,
      "ch": 7,
      "note": 45,
      "vel": 74,
      "dur": 80
    },
    {
      "t": 2112.6,
      "ch": 7,
      "note": 36,
      "vel": 80,
      "dur": 80
    },
    {
      "t": 2112.9,
      "ch": 7,
      "note": 36,
      "vel": 64,
      "dur": 80
    },
    {
      "t": 2113.3,
      "ch": 7,
      "note": 48,
      "vel": 76,
      "dur": 80
    },
    {
      "t": 2113.3,
      "ch": 7,
      "note": 36,
      "vel": 76,
      "dur": 80
    },
    {
      "t": 2113.5,
      "ch": 7,
      "note": 45,
      "vel": 54,
      "dur": 80
    },
    {
      "t": 2114,
      "ch": 7,
      "note": 48,
      "vel": 75,
      "dur": 80
    },
    {
      "t": 2114,
      "ch": 7,
      "note": 36,
      "vel": 74,
      "dur": 80
    },
    {
      "t": 2114.2,
      "ch": 6,
      "note": 53,
      "vel": 1,
      "dur": 589
    },
    {
      "t": 2114.4,
      "ch": 7,
      "note": 45,
      "vel": 61,
      "dur": 80
    },
    {
      "t": 2114.4,
      "ch": 7,
      "note": 36,
      "vel": 61,
      "dur": 80
    },
    {
      "t": 2114.7,
      "ch": 7,
      "note": 48,
      "vel": 70,
      "dur": 80
    },
    {
      "t": 2114.7,
      "ch": 7,
      "note": 36,
      "vel": 89,
      "dur": 80
    },
    {
      "t": 2115.5,
      "ch": 7,
      "note": 48,
      "vel": 68,
      "dur": 80
    },
    {
      "t": 2115.5,
      "ch": 7,
      "note": 45,
      "vel": 65,
      "dur": 80
    },
    {
      "t": 2115.5,
      "ch": 7,
      "note": 36,
      "vel": 71,
      "dur": 80
    },
    {
      "t": 2115.8,
      "ch": 7,
      "note": 36,
      "vel": 68,
      "dur": 80
    },
    {
      "t": 2116.2,
      "ch": 7,
      "note": 48,
      "vel": 73,
      "dur": 80
    },
    {
      "t": 2116.2,
      "ch": 7,
      "note": 36,
      "vel": 60,
      "dur": 80
    },
    {
      "t": 2116.4,
      "ch": 7,
      "note": 45,
      "vel": 56,
      "dur": 80
    },
    {
      "t": 2116.9,
      "ch": 2,
      "note": 52,
      "vel": 48,
      "dur": 21951
    },
    {
      "t": 2116.9,
      "ch": 2,
      "note": 64,
      "vel": 34,
      "dur": 21951
    },
    {
      "t": 2116.9,
      "ch": 4,
      "note": 57,
      "vel": 18,
      "dur": 5803
    },
    {
      "t": 2116.9,
      "ch": 7,
      "note": 48,
      "vel": 79,
      "dur": 80
    },
    {
      "t": 2116.9,
      "ch": 7,
      "note": 36,
      "vel": 85,
      "dur": 80
    },
    {
      "t": 2117.3,
      "ch": 7,
      "note": 45,
      "vel": 70,
      "dur": 80
    },
    {
      "t": 2117.3,
      "ch": 7,
      "note": 36,
      "vel": 53,
      "dur": 80
    },
    {
      "t": 2117.3,
      "ch": 5,
      "note": 60,
      "vel": 40,
      "dur": 893
    },
    {
      "t": 2117.5,
      "ch": 5,
      "note": 64,
      "vel": 18,
      "dur": 893
    },
    {
      "t": 2117.7,
      "ch": 7,
      "note": 48,
      "vel": 73,
      "dur": 80
    },
    {
      "t": 2117.7,
      "ch": 7,
      "note": 36,
      "vel": 78,
      "dur": 80
    },
    {
      "t": 2118.4,
      "ch": 7,
      "note": 48,
      "vel": 65,
      "dur": 80
    },
    {
      "t": 2118.4,
      "ch": 7,
      "note": 45,
      "vel": 62,
      "dur": 80
    },
    {
      "t": 2118.4,
      "ch": 7,
      "note": 36,
      "vel": 76,
      "dur": 80
    },
    {
      "t": 2118.8,
      "ch": 7,
      "note": 36,
      "vel": 58,
      "dur": 80
    },
    {
      "t": 2119.1,
      "ch": 7,
      "note": 48,
      "vel": 82,
      "dur": 80
    },
    {
      "t": 2119.1,
      "ch": 7,
      "note": 36,
      "vel": 61,
      "dur": 80
    },
    {
      "t": 2119.3,
      "ch": 7,
      "note": 45,
      "vel": 74,
      "dur": 80
    },
    {
      "t": 2119.3,
      "ch": 5,
      "note": 57,
      "vel": 21,
      "dur": 891
    },
    {
      "t": 2119.9,
      "ch": 7,
      "note": 48,
      "vel": 87,
      "dur": 80
    },
    {
      "t": 2119.9,
      "ch": 7,
      "note": 36,
      "vel": 57,
      "dur": 80
    },
    {
      "t": 2120.2,
      "ch": 7,
      "note": 45,
      "vel": 59,
      "dur": 80
    },
    {
      "t": 2120.2,
      "ch": 7,
      "note": 36,
      "vel": 64,
      "dur": 80
    },
    {
      "t": 2120.6,
      "ch": 7,
      "note": 48,
      "vel": 69,
      "dur": 80
    },
    {
      "t": 2120.6,
      "ch": 7,
      "note": 36,
      "vel": 65,
      "dur": 80
    },
    {
      "t": 2121.3,
      "ch": 7,
      "note": 48,
      "vel": 69,
      "dur": 80
    },
    {
      "t": 2121.3,
      "ch": 7,
      "note": 45,
      "vel": 64,
      "dur": 80
    },
    {
      "t": 2121.3,
      "ch": 7,
      "note": 36,
      "vel": 73,
      "dur": 80
    },
    {
      "t": 2121.7,
      "ch": 7,
      "note": 36,
      "vel": 67,
      "dur": 80
    },
    {
      "t": 2122.1,
      "ch": 7,
      "note": 48,
      "vel": 76,
      "dur": 80
    },
    {
      "t": 2122.1,
      "ch": 7,
      "note": 36,
      "vel": 73,
      "dur": 80
    },
    {
      "t": 2122.3,
      "ch": 7,
      "note": 45,
      "vel": 63,
      "dur": 80
    },
    {
      "t": 2122.7,
      "ch": 4,
      "note": 59,
      "vel": 19,
      "dur": 5803
    },
    {
      "t": 2122.8,
      "ch": 7,
      "note": 48,
      "vel": 75,
      "dur": 80
    },
    {
      "t": 2122.8,
      "ch": 7,
      "note": 36,
      "vel": 61,
      "dur": 80
    },
    {
      "t": 2123.2,
      "ch": 7,
      "note": 45,
      "vel": 59,
      "dur": 80
    },
    {
      "t": 2123.2,
      "ch": 7,
      "note": 36,
      "vel": 62,
      "dur": 80
    },
    {
      "t": 2123.5,
      "ch": 7,
      "note": 48,
      "vel": 72,
      "dur": 80
    },
    {
      "t": 2123.5,
      "ch": 7,
      "note": 36,
      "vel": 75,
      "dur": 80
    },
    {
      "t": 2124.3,
      "ch": 7,
      "note": 48,
      "vel": 67,
      "dur": 80
    },
    {
      "t": 2124.3,
      "ch": 7,
      "note": 45,
      "vel": 69,
      "dur": 80
    },
    {
      "t": 2124.3,
      "ch": 7,
      "note": 36,
      "vel": 78,
      "dur": 80
    },
    {
      "t": 2124.6,
      "ch": 7,
      "note": 36,
      "vel": 65,
      "dur": 80
    },
    {
      "t": 2125,
      "ch": 7,
      "note": 48,
      "vel": 78,
      "dur": 80
    },
    {
      "t": 2125,
      "ch": 7,
      "note": 36,
      "vel": 64,
      "dur": 80
    },
    {
      "t": 2125.2,
      "ch": 7,
      "note": 45,
      "vel": 62,
      "dur": 80
    },
    {
      "t": 2125.7,
      "ch": 7,
      "note": 48,
      "vel": 79,
      "dur": 80
    },
    {
      "t": 2125.7,
      "ch": 7,
      "note": 36,
      "vel": 71,
      "dur": 80
    },
    {
      "t": 2126.1,
      "ch": 7,
      "note": 45,
      "vel": 60,
      "dur": 80
    },
    {
      "t": 2126.1,
      "ch": 7,
      "note": 36,
      "vel": 58,
      "dur": 80
    },
    {
      "t": 2126.5,
      "ch": 7,
      "note": 48,
      "vel": 61,
      "dur": 80
    },
    {
      "t": 2126.5,
      "ch": 7,
      "note": 36,
      "vel": 68,
      "dur": 80
    },
    {
      "t": 2127.2,
      "ch": 7,
      "note": 48,
      "vel": 72,
      "dur": 80
    },
    {
      "t": 2127.2,
      "ch": 7,
      "note": 45,
      "vel": 71,
      "dur": 80
    },
    {
      "t": 2127.2,
      "ch": 7,
      "note": 36,
      "vel": 76,
      "dur": 80
    },
    {
      "t": 2127.6,
      "ch": 7,
      "note": 36,
      "vel": 71,
      "dur": 80
    },
    {
      "t": 2127.9,
      "ch": 7,
      "note": 48,
      "vel": 71,
      "dur": 80
    },
    {
      "t": 2127.9,
      "ch": 7,
      "note": 36,
      "vel": 65,
      "dur": 80
    },
    {
      "t": 2128.1,
      "ch": 7,
      "note": 45,
      "vel": 62,
      "dur": 80
    },
    {
      "t": 2128.6,
      "ch": 2,
      "note": 52,
      "vel": 49,
      "dur": 21951
    },
    {
      "t": 2128.6,
      "ch": 2,
      "note": 64,
      "vel": 34,
      "dur": 21951
    },
    {
      "t": 2128.6,
      "ch": 4,
      "note": 59,
      "vel": 22,
      "dur": 5803
    },
    {
      "t": 2128.6,
      "ch": 3,
      "note": 47,
      "vel": 24,
      "dur": 5853
    },
    {
      "t": 2128.7,
      "ch": 7,
      "note": 48,
      "vel": 67,
      "dur": 80
    },
    {
      "t": 2128.7,
      "ch": 7,
      "note": 36,
      "vel": 78,
      "dur": 80
    },
    {
      "t": 2129,
      "ch": 7,
      "note": 45,
      "vel": 65,
      "dur": 80
    },
    {
      "t": 2129,
      "ch": 7,
      "note": 36,
      "vel": 72,
      "dur": 80
    },
    {
      "t": 2129.4,
      "ch": 7,
      "note": 48,
      "vel": 69,
      "dur": 80
    },
    {
      "t": 2129.4,
      "ch": 7,
      "note": 36,
      "vel": 64,
      "dur": 80
    },
    {
      "t": 2130.1,
      "ch": 0,
      "note": 36,
      "vel": 127,
      "dur": 55
    },
    {
      "t": 2130.1,
      "ch": 7,
      "note": 48,
      "vel": 56,
      "dur": 80
    },
    {
      "t": 2130.1,
      "ch": 7,
      "note": 45,
      "vel": 74,
      "dur": 80
    },
    {
      "t": 2130.1,
      "ch": 7,
      "note": 36,
      "vel": 60,
      "dur": 80
    },
    {
      "t": 2130.5,
      "ch": 7,
      "note": 36,
      "vel": 65,
      "dur": 80
    },
    {
      "t": 2130.8,
      "ch": 7,
      "note": 48,
      "vel": 78,
      "dur": 80
    },
    {
      "t": 2130.8,
      "ch": 7,
      "note": 36,
      "vel": 63,
      "dur": 80
    },
    {
      "t": 2131,
      "ch": 7,
      "note": 45,
      "vel": 74,
      "dur": 80
    },
    {
      "t": 2131.2,
      "ch": 5,
      "note": 60,
      "vel": 39,
      "dur": 856
    },
    {
      "t": 2131.6,
      "ch": 0,
      "note": 36,
      "vel": 95,
      "dur": 55
    },
    {
      "t": 2131.6,
      "ch": 7,
      "note": 48,
      "vel": 64,
      "dur": 80
    },
    {
      "t": 2131.6,
      "ch": 7,
      "note": 36,
      "vel": 71,
      "dur": 80
    },
    {
      "t": 2131.8,
      "ch": 5,
      "note": 64,
      "vel": 16,
      "dur": 859
    },
    {
      "t": 2131.9,
      "ch": 7,
      "note": 45,
      "vel": 70,
      "dur": 80
    },
    {
      "t": 2131.9,
      "ch": 7,
      "note": 36,
      "vel": 67,
      "dur": 80
    },
    {
      "t": 2132.3,
      "ch": 7,
      "note": 48,
      "vel": 75,
      "dur": 80
    },
    {
      "t": 2132.3,
      "ch": 7,
      "note": 36,
      "vel": 72,
      "dur": 80
    },
    {
      "t": 2133,
      "ch": 7,
      "note": 48,
      "vel": 59,
      "dur": 80
    },
    {
      "t": 2133,
      "ch": 7,
      "note": 45,
      "vel": 78,
      "dur": 80
    },
    {
      "t": 2133,
      "ch": 7,
      "note": 36,
      "vel": 73,
      "dur": 80
    },
    {
      "t": 2133.4,
      "ch": 7,
      "note": 36,
      "vel": 63,
      "dur": 80
    },
    {
      "t": 2133.8,
      "ch": 7,
      "note": 48,
      "vel": 65,
      "dur": 80
    },
    {
      "t": 2133.8,
      "ch": 7,
      "note": 36,
      "vel": 68,
      "dur": 80
    },
    {
      "t": 2134,
      "ch": 7,
      "note": 45,
      "vel": 56,
      "dur": 80
    },
    {
      "t": 2134.4,
      "ch": 4,
      "note": 59,
      "vel": 19,
      "dur": 5803
    },
    {
      "t": 2134.4,
      "ch": 3,
      "note": 43,
      "vel": 22,
      "dur": 5853
    },
    {
      "t": 2134.5,
      "ch": 7,
      "note": 48,
      "vel": 79,
      "dur": 80
    },
    {
      "t": 2134.5,
      "ch": 7,
      "note": 36,
      "vel": 55,
      "dur": 80
    },
    {
      "t": 2134.9,
      "ch": 7,
      "note": 45,
      "vel": 59,
      "dur": 80
    },
    {
      "t": 2134.9,
      "ch": 7,
      "note": 36,
      "vel": 72,
      "dur": 80
    },
    {
      "t": 2135.2,
      "ch": 7,
      "note": 48,
      "vel": 65,
      "dur": 80
    },
    {
      "t": 2135.2,
      "ch": 7,
      "note": 36,
      "vel": 73,
      "dur": 80
    },
    {
      "t": 2136,
      "ch": 7,
      "note": 48,
      "vel": 69,
      "dur": 80
    },
    {
      "t": 2136,
      "ch": 7,
      "note": 45,
      "vel": 82,
      "dur": 80
    },
    {
      "t": 2136,
      "ch": 7,
      "note": 36,
      "vel": 64,
      "dur": 80
    },
    {
      "t": 2136.3,
      "ch": 7,
      "note": 36,
      "vel": 65,
      "dur": 80
    },
    {
      "t": 2136.7,
      "ch": 7,
      "note": 48,
      "vel": 75,
      "dur": 80
    },
    {
      "t": 2136.7,
      "ch": 7,
      "note": 36,
      "vel": 71,
      "dur": 80
    },
    {
      "t": 2136.9,
      "ch": 7,
      "note": 45,
      "vel": 60,
      "dur": 80
    },
    {
      "t": 2137.4,
      "ch": 7,
      "note": 48,
      "vel": 82,
      "dur": 80
    },
    {
      "t": 2137.4,
      "ch": 7,
      "note": 36,
      "vel": 78,
      "dur": 80
    },
    {
      "t": 2137.8,
      "ch": 7,
      "note": 45,
      "vel": 50,
      "dur": 80
    },
    {
      "t": 2137.8,
      "ch": 7,
      "note": 36,
      "vel": 62,
      "dur": 80
    },
    {
      "t": 2138.2,
      "ch": 7,
      "note": 48,
      "vel": 64,
      "dur": 80
    },
    {
      "t": 2138.2,
      "ch": 7,
      "note": 36,
      "vel": 72,
      "dur": 80
    },
    {
      "t": 2138.9,
      "ch": 7,
      "note": 48,
      "vel": 70,
      "dur": 80
    },
    {
      "t": 2138.9,
      "ch": 7,
      "note": 45,
      "vel": 59,
      "dur": 80
    },
    {
      "t": 2138.9,
      "ch": 7,
      "note": 36,
      "vel": 64,
      "dur": 80
    },
    {
      "t": 2139.3,
      "ch": 7,
      "note": 36,
      "vel": 60,
      "dur": 80
    },
    {
      "t": 2139.6,
      "ch": 7,
      "note": 48,
      "vel": 64,
      "dur": 80
    },
    {
      "t": 2139.6,
      "ch": 7,
      "note": 36,
      "vel": 68,
      "dur": 80
    },
    {
      "t": 2139.8,
      "ch": 7,
      "note": 45,
      "vel": 65,
      "dur": 80
    },
    {
      "t": 2140.3,
      "ch": 2,
      "note": 52,
      "vel": 0,
      "dur": 0
    },
    {
      "t": 2140.3,
      "ch": 2,
      "note": 64,
      "vel": 0,
      "dur": 0
    },
    {
      "t": 2140.3,
      "ch": 2,
      "note": 55,
      "vel": 47,
      "dur": 21951
    },
    {
      "t": 2140.3,
      "ch": 4,
      "note": 59,
      "vel": 17,
      "dur": 5803
    },
    {
      "t": 2140.3,
      "ch": 3,
      "note": 47,
      "vel": 18,
      "dur": 5853
    },
    {
      "t": 2140.4,
      "ch": 7,
      "note": 48,
      "vel": 62,
      "dur": 80
    },
    {
      "t": 2140.4,
      "ch": 7,
      "note": 36,
      "vel": 65,
      "dur": 80
    },
    {
      "t": 2140.7,
      "ch": 7,
      "note": 45,
      "vel": 58,
      "dur": 80
    },
    {
      "t": 2140.7,
      "ch": 7,
      "note": 36,
      "vel": 61,
      "dur": 80
    },
    {
      "t": 2141.1,
      "ch": 7,
      "note": 48,
      "vel": 57,
      "dur": 80
    },
    {
      "t": 2141.1,
      "ch": 7,
      "note": 36,
      "vel": 65,
      "dur": 80
    },
    {
      "t": 2141.8,
      "ch": 0,
      "note": 36,
      "vel": 113,
      "dur": 55
    },
    {
      "t": 2141.8,
      "ch": 7,
      "note": 48,
      "vel": 73,
      "dur": 80
    },
    {
      "t": 2141.8,
      "ch": 7,
      "note": 45,
      "vel": 60,
      "dur": 80
    },
    {
      "t": 2141.8,
      "ch": 7,
      "note": 36,
      "vel": 76,
      "dur": 80
    },
    {
      "t": 2142,
      "ch": 5,
      "note": 57,
      "vel": 14,
      "dur": 904
    },
    {
      "t": 2142.2,
      "ch": 7,
      "note": 36,
      "vel": 59,
      "dur": 80
    },
    {
      "t": 2142.6,
      "ch": 7,
      "note": 48,
      "vel": 67,
      "dur": 80
    },
    {
      "t": 2142.6,
      "ch": 7,
      "note": 36,
      "vel": 71,
      "dur": 80
    },
    {
      "t": 2142.7,
      "ch": 7,
      "note": 45,
      "vel": 73,
      "dur": 80
    },
    {
      "t": 2143.3,
      "ch": 0,
      "note": 36,
      "vel": 90,
      "dur": 55
    },
    {
      "t": 2143.3,
      "ch": 7,
      "note": 48,
      "vel": 70,
      "dur": 80
    },
    {
      "t": 2143.3,
      "ch": 7,
      "note": 36,
      "vel": 69,
      "dur": 80
    },
    {
      "t": 2143.7,
      "ch": 7,
      "note": 45,
      "vel": 60,
      "dur": 80
    },
    {
      "t": 2143.7,
      "ch": 7,
      "note": 36,
      "vel": 70,
      "dur": 80
    },
    {
      "t": 2144,
      "ch": 7,
      "note": 48,
      "vel": 64,
      "dur": 80
    },
    {
      "t": 2144,
      "ch": 7,
      "note": 36,
      "vel": 63,
      "dur": 80
    },
    {
      "t": 2144.6,
      "ch": 5,
      "note": 60,
      "vel": 21,
      "dur": 896
    },
    {
      "t": 2144.7,
      "ch": 7,
      "note": 48,
      "vel": 61,
      "dur": 80
    },
    {
      "t": 2144.7,
      "ch": 7,
      "note": 45,
      "vel": 79,
      "dur": 80
    },
    {
      "t": 2144.7,
      "ch": 7,
      "note": 36,
      "vel": 61,
      "dur": 80
    },
    {
      "t": 2145.1,
      "ch": 7,
      "note": 36,
      "vel": 59,
      "dur": 80
    },
    {
      "t": 2145.5,
      "ch": 7,
      "note": 48,
      "vel": 59,
      "dur": 80
    },
    {
      "t": 2145.5,
      "ch": 7,
      "note": 36,
      "vel": 67,
      "dur": 80
    },
    {
      "t": 2145.7,
      "ch": 7,
      "note": 45,
      "vel": 56,
      "dur": 80
    },
    {
      "t": 2146.2,
      "ch": 7,
      "note": 48,
      "vel": 78,
      "dur": 80
    },
    {
      "t": 2146.2,
      "ch": 7,
      "note": 36,
      "vel": 67,
      "dur": 80
    },
    {
      "t": 2146.6,
      "ch": 7,
      "note": 45,
      "vel": 56,
      "dur": 80
    },
    {
      "t": 2146.6,
      "ch": 7,
      "note": 36,
      "vel": 67,
      "dur": 80
    },
    {
      "t": 2146.9,
      "ch": 7,
      "note": 48,
      "vel": 78,
      "dur": 80
    },
    {
      "t": 2146.9,
      "ch": 7,
      "note": 36,
      "vel": 67,
      "dur": 80
    },
    {
      "t": 2147.5,
      "ch": 6,
      "note": 57,
      "vel": 30,
      "dur": 587
    },
    {
      "t": 2147.7,
      "ch": 7,
      "note": 48,
      "vel": 62,
      "dur": 80
    },
    {
      "t": 2147.7,
      "ch": 7,
      "note": 45,
      "vel": 61,
      "dur": 80
    },
    {
      "t": 2147.7,
      "ch": 7,
      "note": 36,
      "vel": 72,
      "dur": 80
    },
    {
      "t": 2148.1,
      "ch": 7,
      "note": 36,
      "vel": 53,
      "dur": 80
    },
    {
      "t": 2148.4,
      "ch": 7,
      "note": 48,
      "vel": 73,
      "dur": 80
    },
    {
      "t": 2148.4,
      "ch": 7,
      "note": 36,
      "vel": 70,
      "dur": 80
    },
    {
      "t": 2148.6,
      "ch": 7,
      "note": 45,
      "vel": 52,
      "dur": 80
    },
    {
      "t": 2149.1,
      "ch": 7,
      "note": 48,
      "vel": 67,
      "dur": 80
    },
    {
      "t": 2149.1,
      "ch": 7,
      "note": 36,
      "vel": 68,
      "dur": 80
    },
    {
      "t": 2149.5,
      "ch": 7,
      "note": 45,
      "vel": 56,
      "dur": 80
    },
    {
      "t": 2149.5,
      "ch": 7,
      "note": 36,
      "vel": 71,
      "dur": 80
    },
    {
      "t": 2149.9,
      "ch": 7,
      "note": 48,
      "vel": 77,
      "dur": 80
    },
    {
      "t": 2149.9,
      "ch": 7,
      "note": 36,
      "vel": 64,
      "dur": 80
    },
    {
      "t": 2150.6,
      "ch": 7,
      "note": 48,
      "vel": 63,
      "dur": 80
    },
    {
      "t": 2150.6,
      "ch": 7,
      "note": 45,
      "vel": 72,
      "dur": 80
    },
    {
      "t": 2150.6,
      "ch": 7,
      "note": 36,
      "vel": 78,
      "dur": 80
    },
    {
      "t": 2150.8,
      "ch": 5,
      "note": 64,
      "vel": 29,
      "dur": 869
    },
    {
      "t": 2151,
      "ch": 7,
      "note": 36,
      "vel": 54,
      "dur": 80
    },
    {
      "t": 2151,
      "ch": 5,
      "note": 57,
      "vel": 29,
      "dur": 869
    },
    {
      "t": 2151.3,
      "ch": 7,
      "note": 48,
      "vel": 75,
      "dur": 80
    },
    {
      "t": 2151.3,
      "ch": 7,
      "note": 36,
      "vel": 63,
      "dur": 80
    },
    {
      "t": 2151.5,
      "ch": 7,
      "note": 45,
      "vel": 67,
      "dur": 80
    },
    {
      "t": 2152,
      "ch": 2,
      "note": 55,
      "vel": 0,
      "dur": 0
    },
    {
      "t": 2152,
      "ch": 2,
      "note": 52,
      "vel": 49,
      "dur": 21951
    },
    {
      "t": 2152,
      "ch": 2,
      "note": 64,
      "vel": 34,
      "dur": 21951
    },
    {
      "t": 2152.1,
      "ch": 7,
      "note": 48,
      "vel": 76,
      "dur": 80
    },
    {
      "t": 2152.1,
      "ch": 7,
      "note": 36,
      "vel": 79,
      "dur": 80
    },
    {
      "t": 2152.4,
      "ch": 7,
      "note": 45,
      "vel": 62,
      "dur": 80
    },
    {
      "t": 2152.4,
      "ch": 7,
      "note": 36,
      "vel": 68,
      "dur": 80
    },
    {
      "t": 2152.8,
      "ch": 7,
      "note": 48,
      "vel": 67,
      "dur": 80
    },
    {
      "t": 2152.8,
      "ch": 7,
      "note": 36,
      "vel": 71,
      "dur": 80
    },
    {
      "t": 2153.5,
      "ch": 0,
      "note": 36,
      "vel": 115,
      "dur": 55
    },
    {
      "t": 2153.5,
      "ch": 7,
      "note": 48,
      "vel": 75,
      "dur": 80
    },
    {
      "t": 2153.5,
      "ch": 7,
      "note": 45,
      "vel": 73,
      "dur": 80
    },
    {
      "t": 2153.5,
      "ch": 7,
      "note": 36,
      "vel": 65,
      "dur": 80
    },
    {
      "t": 2153.9,
      "ch": 7,
      "note": 36,
      "vel": 60,
      "dur": 80
    },
    {
      "t": 2154.3,
      "ch": 7,
      "note": 48,
      "vel": 82,
      "dur": 80
    },
    {
      "t": 2154.3,
      "ch": 7,
      "note": 36,
      "vel": 65,
      "dur": 80
    },
    {
      "t": 2154.4,
      "ch": 7,
      "note": 45,
      "vel": 60,
      "dur": 80
    },
    {
      "t": 2155,
      "ch": 0,
      "note": 36,
      "vel": 94,
      "dur": 55
    },
    {
      "t": 2155,
      "ch": 7,
      "note": 48,
      "vel": 75,
      "dur": 80
    },
    {
      "t": 2155,
      "ch": 7,
      "note": 36,
      "vel": 69,
      "dur": 80
    },
    {
      "t": 2155.4,
      "ch": 7,
      "note": 45,
      "vel": 58,
      "dur": 80
    },
    {
      "t": 2155.4,
      "ch": 7,
      "note": 36,
      "vel": 61,
      "dur": 80
    },
    {
      "t": 2155.6,
      "ch": 5,
      "note": 60,
      "vel": 14,
      "dur": 881
    },
    {
      "t": 2155.7,
      "ch": 7,
      "note": 48,
      "vel": 72,
      "dur": 80
    },
    {
      "t": 2155.7,
      "ch": 7,
      "note": 36,
      "vel": 70,
      "dur": 80
    },
    {
      "t": 2156.5,
      "ch": 7,
      "note": 48,
      "vel": 80,
      "dur": 80
    },
    {
      "t": 2156.5,
      "ch": 7,
      "note": 45,
      "vel": 74,
      "dur": 80
    },
    {
      "t": 2156.5,
      "ch": 7,
      "note": 36,
      "vel": 66,
      "dur": 80
    },
    {
      "t": 2156.8,
      "ch": 7,
      "note": 36,
      "vel": 69,
      "dur": 80
    },
    {
      "t": 2157.2,
      "ch": 7,
      "note": 48,
      "vel": 70,
      "dur": 80
    },
    {
      "t": 2157.2,
      "ch": 7,
      "note": 36,
      "vel": 69,
      "dur": 80
    },
    {
      "t": 2157.4,
      "ch": 7,
      "note": 45,
      "vel": 61,
      "dur": 80
    },
    {
      "t": 2157.6,
      "ch": 5,
      "note": 64,
      "vel": 19,
      "dur": 895
    },
    {
      "t": 2157.8,
      "ch": 4,
      "note": 59,
      "vel": 17,
      "dur": 5803
    },
    {
      "t": 2157.8,
      "ch": 3,
      "note": 40,
      "vel": 19,
      "dur": 5853
    },
    {
      "t": 2157.9,
      "ch": 7,
      "note": 48,
      "vel": 74,
      "dur": 80
    },
    {
      "t": 2157.9,
      "ch": 7,
      "note": 36,
      "vel": 78,
      "dur": 80
    },
    {
      "t": 2158.3,
      "ch": 7,
      "note": 45,
      "vel": 58,
      "dur": 80
    },
    {
      "t": 2158.3,
      "ch": 7,
      "note": 36,
      "vel": 59,
      "dur": 80
    },
    {
      "t": 2158.7,
      "ch": 7,
      "note": 48,
      "vel": 78,
      "dur": 80
    },
    {
      "t": 2158.7,
      "ch": 7,
      "note": 36,
      "vel": 59,
      "dur": 80
    },
    {
      "t": 2159.4,
      "ch": 7,
      "note": 48,
      "vel": 67,
      "dur": 80
    },
    {
      "t": 2159.4,
      "ch": 7,
      "note": 45,
      "vel": 70,
      "dur": 80
    },
    {
      "t": 2159.4,
      "ch": 7,
      "note": 36,
      "vel": 67,
      "dur": 80
    },
    {
      "t": 2159.7,
      "ch": 7,
      "note": 36,
      "vel": 66,
      "dur": 80
    },
    {
      "t": 2160.1,
      "ch": 7,
      "note": 48,
      "vel": 76,
      "dur": 80
    },
    {
      "t": 2160.1,
      "ch": 7,
      "note": 36,
      "vel": 72,
      "dur": 80
    },
    {
      "t": 2160.3,
      "ch": 7,
      "note": 45,
      "vel": 61,
      "dur": 80
    },
    {
      "t": 2160.9,
      "ch": 7,
      "note": 48,
      "vel": 68,
      "dur": 80
    },
    {
      "t": 2160.9,
      "ch": 7,
      "note": 36,
      "vel": 69,
      "dur": 80
    },
    {
      "t": 2161.2,
      "ch": 7,
      "note": 45,
      "vel": 64,
      "dur": 80
    },
    {
      "t": 2161.2,
      "ch": 7,
      "note": 36,
      "vel": 56,
      "dur": 80
    },
    {
      "t": 2161.6,
      "ch": 7,
      "note": 48,
      "vel": 71,
      "dur": 80
    },
    {
      "t": 2161.6,
      "ch": 7,
      "note": 36,
      "vel": 61,
      "dur": 80
    },
    {
      "t": 2162.3,
      "ch": 7,
      "note": 48,
      "vel": 69,
      "dur": 80
    },
    {
      "t": 2162.3,
      "ch": 7,
      "note": 45,
      "vel": 71,
      "dur": 80
    },
    {
      "t": 2162.3,
      "ch": 7,
      "note": 36,
      "vel": 73,
      "dur": 80
    },
    {
      "t": 2162.7,
      "ch": 7,
      "note": 36,
      "vel": 62,
      "dur": 80
    },
    {
      "t": 2163,
      "ch": 7,
      "note": 48,
      "vel": 74,
      "dur": 80
    },
    {
      "t": 2163.2,
      "ch": 7,
      "note": 45,
      "vel": 64,
      "dur": 80
    },
    {
      "t": 2163.4,
      "ch": 5,
      "note": 57,
      "vel": 12,
      "dur": 926
    },
    {
      "t": 2163.7,
      "ch": 2,
      "note": 52,
      "vel": 47,
      "dur": 21951
    },
    {
      "t": 2163.7,
      "ch": 2,
      "note": 64,
      "vel": 33,
      "dur": 21951
    },
    {
      "t": 2163.7,
      "ch": 4,
      "note": 60,
      "vel": 13,
      "dur": 5803
    },
    {
      "t": 2163.7,
      "ch": 3,
      "note": 40,
      "vel": 16,
      "dur": 5853
    },
    {
      "t": 2163.8,
      "ch": 7,
      "note": 48,
      "vel": 64,
      "dur": 80
    },
    {
      "t": 2164.1,
      "ch": 7,
      "note": 45,
      "vel": 51,
      "dur": 80
    },
    {
      "t": 2164.5,
      "ch": 7,
      "note": 48,
      "vel": 75,
      "dur": 80
    },
    {
      "t": 2165.2,
      "ch": 0,
      "note": 36,
      "vel": 121,
      "dur": 55
    },
    {
      "t": 2165.2,
      "ch": 7,
      "note": 48,
      "vel": 78,
      "dur": 80
    },
    {
      "t": 2165.2,
      "ch": 7,
      "note": 45,
      "vel": 70,
      "dur": 80
    },
    {
      "t": 2166,
      "ch": 7,
      "note": 48,
      "vel": 75,
      "dur": 80
    },
    {
      "t": 2166.2,
      "ch": 7,
      "note": 45,
      "vel": 64,
      "dur": 80
    },
    {
      "t": 2166.7,
      "ch": 0,
      "note": 36,
      "vel": 100,
      "dur": 55
    },
    {
      "t": 2166.7,
      "ch": 7,
      "note": 48,
      "vel": 74,
      "dur": 80
    },
    {
      "t": 2167.1,
      "ch": 7,
      "note": 45,
      "vel": 69,
      "dur": 80
    },
    {
      "t": 2167.4,
      "ch": 7,
      "note": 48,
      "vel": 61,
      "dur": 80
    },
    {
      "t": 2168.2,
      "ch": 7,
      "note": 48,
      "vel": 74,
      "dur": 80
    },
    {
      "t": 2168.2,
      "ch": 7,
      "note": 45,
      "vel": 68,
      "dur": 80
    },
    {
      "t": 2168.9,
      "ch": 7,
      "note": 48,
      "vel": 81,
      "dur": 80
    },
    {
      "t": 2169.1,
      "ch": 7,
      "note": 45,
      "vel": 55,
      "dur": 80
    },
    {
      "t": 2169.5,
      "ch": 4,
      "note": 57,
      "vel": 15,
      "dur": 5803
    },
    {
      "t": 2169.5,
      "ch": 3,
      "note": 36,
      "vel": 17,
      "dur": 5853
    },
    {
      "t": 2169.6,
      "ch": 7,
      "note": 48,
      "vel": 68,
      "dur": 80
    },
    {
      "t": 2170,
      "ch": 7,
      "note": 45,
      "vel": 64,
      "dur": 80
    },
    {
      "t": 2170.4,
      "ch": 7,
      "note": 48,
      "vel": 62,
      "dur": 80
    },
    {
      "t": 2170.4,
      "ch": 5,
      "note": 60,
      "vel": 15,
      "dur": 905
    },
    {
      "t": 2171.1,
      "ch": 7,
      "note": 48,
      "vel": 71,
      "dur": 80
    },
    {
      "t": 2171.1,
      "ch": 7,
      "note": 45,
      "vel": 62,
      "dur": 80
    },
    {
      "t": 2171.1,
      "ch": 7,
      "note": 36,
      "vel": 77,
      "dur": 80
    },
    {
      "t": 2171.5,
      "ch": 7,
      "note": 36,
      "vel": 64,
      "dur": 80
    },
    {
      "t": 2171.8,
      "ch": 7,
      "note": 48,
      "vel": 58,
      "dur": 80
    },
    {
      "t": 2171.8,
      "ch": 7,
      "note": 36,
      "vel": 64,
      "dur": 80
    },
    {
      "t": 2172,
      "ch": 7,
      "note": 45,
      "vel": 61,
      "dur": 80
    },
    {
      "t": 2172.6,
      "ch": 7,
      "note": 48,
      "vel": 81,
      "dur": 80
    },
    {
      "t": 2172.6,
      "ch": 7,
      "note": 36,
      "vel": 71,
      "dur": 80
    },
    {
      "t": 2172.9,
      "ch": 7,
      "note": 45,
      "vel": 76,
      "dur": 80
    },
    {
      "t": 2172.9,
      "ch": 7,
      "note": 36,
      "vel": 50,
      "dur": 80
    },
    {
      "t": 2173.1,
      "ch": 6,
      "note": 62,
      "vel": 29,
      "dur": 597
    },
    {
      "t": 2173.3,
      "ch": 7,
      "note": 48,
      "vel": 69,
      "dur": 80
    },
    {
      "t": 2173.3,
      "ch": 7,
      "note": 36,
      "vel": 74,
      "dur": 80
    },
    {
      "t": 2173.7,
      "ch": 5,
      "note": 64,
      "vel": 30,
      "dur": 894
    },
    {
      "t": 2174,
      "ch": 7,
      "note": 48,
      "vel": 71,
      "dur": 80
    },
    {
      "t": 2174,
      "ch": 7,
      "note": 45,
      "vel": 75,
      "dur": 80
    },
    {
      "t": 2174,
      "ch": 7,
      "note": 36,
      "vel": 70,
      "dur": 80
    },
    {
      "t": 2174.4,
      "ch": 7,
      "note": 36,
      "vel": 72,
      "dur": 80
    },
    {
      "t": 2174.8,
      "ch": 7,
      "note": 48,
      "vel": 79,
      "dur": 80
    },
    {
      "t": 2174.8,
      "ch": 7,
      "note": 36,
      "vel": 59,
      "dur": 80
    },
    {
      "t": 2174.8,
      "ch": 7,
      "note": 62,
      "vel": 110,
      "dur": 400
    },
    {
      "t": 2174.9,
      "ch": 7,
      "note": 45,
      "vel": 51,
      "dur": 80
    },
    {
      "t": 2175.4,
      "ch": 2,
      "note": 52,
      "vel": 48,
      "dur": 21951
    },
    {
      "t": 2175.4,
      "ch": 2,
      "note": 64,
      "vel": 34,
      "dur": 21951
    },
    {
      "t": 2175.5,
      "ch": 7,
      "note": 48,
      "vel": 72,
      "dur": 80
    },
    {
      "t": 2175.5,
      "ch": 7,
      "note": 36,
      "vel": 74,
      "dur": 80
    },
    {
      "t": 2175.5,
      "ch": 6,
      "note": 69,
      "vel": 17,
      "dur": 596
    },
    {
      "t": 2175.9,
      "ch": 7,
      "note": 45,
      "vel": 73,
      "dur": 80
    },
    {
      "t": 2175.9,
      "ch": 7,
      "note": 36,
      "vel": 75,
      "dur": 80
    },
    {
      "t": 2176,
      "ch": 5,
      "note": 60,
      "vel": 15,
      "dur": 895
    },
    {
      "t": 2176.2,
      "ch": 7,
      "note": 48,
      "vel": 82,
      "dur": 80
    },
    {
      "t": 2176.2,
      "ch": 7,
      "note": 36,
      "vel": 64,
      "dur": 80
    },
    {
      "t": 2176.9,
      "ch": 0,
      "note": 36,
      "vel": 113,
      "dur": 55
    },
    {
      "t": 2176.9,
      "ch": 7,
      "note": 48,
      "vel": 74,
      "dur": 80
    },
    {
      "t": 2176.9,
      "ch": 7,
      "note": 45,
      "vel": 66,
      "dur": 80
    },
    {
      "t": 2176.9,
      "ch": 7,
      "note": 36,
      "vel": 57,
      "dur": 80
    },
    {
      "t": 2177.1,
      "ch": 6,
      "note": 76,
      "vel": 15,
      "dur": 599
    },
    {
      "t": 2177.3,
      "ch": 7,
      "note": 36,
      "vel": 62,
      "dur": 80
    },
    {
      "t": 2177.7,
      "ch": 7,
      "note": 48,
      "vel": 70,
      "dur": 80
    },
    {
      "t": 2177.7,
      "ch": 7,
      "note": 36,
      "vel": 74,
      "dur": 80
    },
    {
      "t": 2177.9,
      "ch": 7,
      "note": 45,
      "vel": 67,
      "dur": 80
    },
    {
      "t": 2178.4,
      "ch": 0,
      "note": 36,
      "vel": 85,
      "dur": 55
    },
    {
      "t": 2178.4,
      "ch": 7,
      "note": 48,
      "vel": 71,
      "dur": 80
    },
    {
      "t": 2178.4,
      "ch": 7,
      "note": 36,
      "vel": 64,
      "dur": 80
    },
    {
      "t": 2178.8,
      "ch": 7,
      "note": 45,
      "vel": 57,
      "dur": 80
    },
    {
      "t": 2178.8,
      "ch": 7,
      "note": 36,
      "vel": 69,
      "dur": 80
    },
    {
      "t": 2179.1,
      "ch": 7,
      "note": 48,
      "vel": 71,
      "dur": 80
    },
    {
      "t": 2179.1,
      "ch": 7,
      "note": 36,
      "vel": 74,
      "dur": 80
    },
    {
      "t": 2179.9,
      "ch": 7,
      "note": 48,
      "vel": 64,
      "dur": 80
    },
    {
      "t": 2179.9,
      "ch": 7,
      "note": 45,
      "vel": 72,
      "dur": 80
    },
    {
      "t": 2179.9,
      "ch": 7,
      "note": 36,
      "vel": 63,
      "dur": 80
    },
    {
      "t": 2180.2,
      "ch": 7,
      "note": 36,
      "vel": 61,
      "dur": 80
    },
    {
      "t": 2180.3,
      "ch": 5,
      "note": 60,
      "vel": 33,
      "dur": 918
    },
    {
      "t": 2180.6,
      "ch": 7,
      "note": 48,
      "vel": 67,
      "dur": 80
    },
    {
      "t": 2180.6,
      "ch": 7,
      "note": 36,
      "vel": 77,
      "dur": 80
    },
    {
      "t": 2180.8,
      "ch": 7,
      "note": 45,
      "vel": 57,
      "dur": 80
    },
    {
      "t": 2181.3,
      "ch": 7,
      "note": 48,
      "vel": 77,
      "dur": 80
    },
    {
      "t": 2181.3,
      "ch": 7,
      "note": 36,
      "vel": 71,
      "dur": 80
    },
    {
      "t": 2181.7,
      "ch": 7,
      "note": 45,
      "vel": 65,
      "dur": 80
    },
    {
      "t": 2182.1,
      "ch": 7,
      "note": 48,
      "vel": 73,
      "dur": 80
    },
    {
      "t": 2182.8,
      "ch": 7,
      "note": 48,
      "vel": 78,
      "dur": 80
    },
    {
      "t": 2182.8,
      "ch": 7,
      "note": 45,
      "vel": 59,
      "dur": 80
    },
    {
      "t": 2183.5,
      "ch": 7,
      "note": 48,
      "vel": 68,
      "dur": 80
    },
    {
      "t": 2183.7,
      "ch": 7,
      "note": 45,
      "vel": 61,
      "dur": 80
    },
    {
      "t": 2184.3,
      "ch": 7,
      "note": 48,
      "vel": 68,
      "dur": 80
    },
    {
      "t": 2184.6,
      "ch": 7,
      "note": 45,
      "vel": 57,
      "dur": 80
    },
    {
      "t": 2184.6,
      "ch": 5,
      "note": 60,
      "vel": 16,
      "dur": 947
    },
    {
      "t": 2185,
      "ch": 7,
      "note": 48,
      "vel": 69,
      "dur": 80
    },
    {
      "t": 2185.2,
      "ch": 5,
      "note": 60,
      "vel": 16,
      "dur": 949
    },
    {
      "t": 2185.7,
      "ch": 7,
      "note": 48,
      "vel": 65,
      "dur": 80
    },
    {
      "t": 2185.7,
      "ch": 7,
      "note": 45,
      "vel": 78,
      "dur": 80
    },
    {
      "t": 2185.7,
      "ch": 5,
      "note": 60,
      "vel": 11,
      "dur": 951
    },
    {
      "t": 2186.3,
      "ch": 5,
      "note": 60,
      "vel": 26,
      "dur": 952
    },
    {
      "t": 2186.5,
      "ch": 7,
      "note": 48,
      "vel": 64,
      "dur": 80
    },
    {
      "t": 2186.7,
      "ch": 7,
      "note": 45,
      "vel": 61,
      "dur": 80
    },
    {
      "t": 2186.8,
      "ch": 5,
      "note": 60,
      "vel": 26,
      "dur": 953
    },
    {
      "t": 2187.1,
      "ch": 2,
      "note": 52,
      "vel": 45,
      "dur": 21951
    },
    {
      "t": 2187.1,
      "ch": 2,
      "note": 64,
      "vel": 31,
      "dur": 21951
    },
    {
      "t": 2187.2,
      "ch": 7,
      "note": 48,
      "vel": 77,
      "dur": 80
    },
    {
      "t": 2187.6,
      "ch": 7,
      "note": 45,
      "vel": 63,
      "dur": 80
    },
    {
      "t": 2187.9,
      "ch": 7,
      "note": 48,
      "vel": 84,
      "dur": 80
    },
    {
      "t": 2188.7,
      "ch": 7,
      "note": 48,
      "vel": 61,
      "dur": 80
    },
    {
      "t": 2188.7,
      "ch": 7,
      "note": 45,
      "vel": 62,
      "dur": 80
    },
    {
      "t": 2189.4,
      "ch": 7,
      "note": 48,
      "vel": 76,
      "dur": 80
    },
    {
      "t": 2189.6,
      "ch": 7,
      "note": 45,
      "vel": 52,
      "dur": 80
    },
    {
      "t": 2190.1,
      "ch": 7,
      "note": 48,
      "vel": 70,
      "dur": 80
    },
    {
      "t": 2190.5,
      "ch": 7,
      "note": 45,
      "vel": 66,
      "dur": 80
    },
    {
      "t": 2190.9,
      "ch": 7,
      "note": 48,
      "vel": 63,
      "dur": 80
    },
    {
      "t": 2191.6,
      "ch": 7,
      "note": 48,
      "vel": 70,
      "dur": 80
    },
    {
      "t": 2191.6,
      "ch": 7,
      "note": 45,
      "vel": 66,
      "dur": 80
    },
    {
      "t": 2192.3,
      "ch": 7,
      "note": 48,
      "vel": 64,
      "dur": 80
    },
    {
      "t": 2192.5,
      "ch": 7,
      "note": 45,
      "vel": 59,
      "dur": 80
    },
    {
      "t": 2193,
      "ch": 4,
      "note": 60,
      "vel": 12,
      "dur": 2926
    },
    {
      "t": 2193,
      "ch": 4,
      "note": 59,
      "vel": 13,
      "dur": 8730
    },
    {
      "t": 2193,
      "ch": 7,
      "note": 48,
      "vel": 67,
      "dur": 80
    },
    {
      "t": 2193.4,
      "ch": 7,
      "note": 45,
      "vel": 72,
      "dur": 80
    },
    {
      "t": 2193.8,
      "ch": 7,
      "note": 48,
      "vel": 61,
      "dur": 80
    },
    {
      "t": 2194,
      "ch": 5,
      "note": 60,
      "vel": 8,
      "dur": 930
    },
    {
      "t": 2194.5,
      "ch": 7,
      "note": 48,
      "vel": 78,
      "dur": 80
    },
    {
      "t": 2194.5,
      "ch": 7,
      "note": 45,
      "vel": 74,
      "dur": 80
    },
    {
      "t": 2195.2,
      "ch": 7,
      "note": 48,
      "vel": 78,
      "dur": 80
    },
    {
      "t": 2195.4,
      "ch": 7,
      "note": 45,
      "vel": 69,
      "dur": 80
    },
    {
      "t": 2196,
      "ch": 7,
      "note": 48,
      "vel": 66,
      "dur": 80
    },
    {
      "t": 2196.2,
      "ch": 6,
      "note": 72,
      "vel": 8,
      "dur": 615
    },
    {
      "t": 2196.3,
      "ch": 7,
      "note": 45,
      "vel": 65,
      "dur": 80
    },
    {
      "t": 2196.7,
      "ch": 7,
      "note": 48,
      "vel": 73,
      "dur": 80
    },
    {
      "t": 2197.4,
      "ch": 7,
      "note": 48,
      "vel": 61,
      "dur": 80
    },
    {
      "t": 2197.4,
      "ch": 7,
      "note": 45,
      "vel": 70,
      "dur": 80
    },
    {
      "t": 2198.2,
      "ch": 7,
      "note": 48,
      "vel": 62,
      "dur": 80
    },
    {
      "t": 2198.3,
      "ch": 7,
      "note": 45,
      "vel": 63,
      "dur": 80
    },
    {
      "t": 2198.8,
      "ch": 2,
      "note": 52,
      "vel": 46,
      "dur": 21951
    },
    {
      "t": 2198.8,
      "ch": 4,
      "note": 59,
      "vel": 13,
      "dur": 5803
    },
    {
      "t": 2198.8,
      "ch": 3,
      "note": 40,
      "vel": 16,
      "dur": 5853
    },
    {
      "t": 2198.9,
      "ch": 7,
      "note": 48,
      "vel": 57,
      "dur": 80
    },
    {
      "t": 2199.3,
      "ch": 7,
      "note": 45,
      "vel": 71,
      "dur": 80
    },
    {
      "t": 2199.6,
      "ch": 7,
      "note": 48,
      "vel": 70,
      "dur": 80
    },
    {
      "t": 2200.4,
      "ch": 0,
      "note": 36,
      "vel": 127,
      "dur": 55
    },
    {
      "t": 2200.4,
      "ch": 7,
      "note": 48,
      "vel": 77,
      "dur": 80
    },
    {
      "t": 2200.4,
      "ch": 7,
      "note": 45,
      "vel": 77,
      "dur": 80
    },
    {
      "t": 2200.6,
      "ch": 5,
      "note": 52,
      "vel": 60,
      "dur": 1600
    },
    {
      "t": 2201.1,
      "ch": 7,
      "note": 48,
      "vel": 77,
      "dur": 80
    },
    {
      "t": 2201.3,
      "ch": 7,
      "note": 45,
      "vel": 67,
      "dur": 80
    },
    {
      "t": 2201.8,
      "ch": 0,
      "note": 36,
      "vel": 100,
      "dur": 55
    },
    {
      "t": 2201.8,
      "ch": 7,
      "note": 48,
      "vel": 70,
      "dur": 80
    },
    {
      "t": 2202.2,
      "ch": 7,
      "note": 45,
      "vel": 62,
      "dur": 80
    },
    {
      "t": 2202.6,
      "ch": 7,
      "note": 48,
      "vel": 61,
      "dur": 80
    },
    {
      "t": 2203.3,
      "ch": 7,
      "note": 48,
      "vel": 63,
      "dur": 80
    },
    {
      "t": 2203.3,
      "ch": 7,
      "note": 45,
      "vel": 73,
      "dur": 80
    },
    {
      "t": 2203.6,
      "ch": 5,
      "note": 53,
      "vel": 60,
      "dur": 1600
    },
    {
      "t": 2204,
      "ch": 7,
      "note": 48,
      "vel": 79,
      "dur": 80
    },
    {
      "t": 2204.2,
      "ch": 7,
      "note": 45,
      "vel": 66,
      "dur": 80
    },
    {
      "t": 2204.8,
      "ch": 7,
      "note": 48,
      "vel": 77,
      "dur": 80
    },
    {
      "t": 2205.1,
      "ch": 7,
      "note": 45,
      "vel": 56,
      "dur": 80
    },
    {
      "t": 2205.5,
      "ch": 7,
      "note": 48,
      "vel": 73,
      "dur": 80
    },
    {
      "t": 2205.5,
      "ch": 5,
      "note": 60,
      "vel": 9,
      "dur": 962
    },
    {
      "t": 2206.2,
      "ch": 7,
      "note": 48,
      "vel": 74,
      "dur": 80
    },
    {
      "t": 2206.2,
      "ch": 7,
      "note": 45,
      "vel": 75,
      "dur": 80
    },
    {
      "t": 2206.5,
      "ch": 5,
      "note": 52,
      "vel": 60,
      "dur": 1600
    },
    {
      "t": 2206.9,
      "ch": 7,
      "note": 48,
      "vel": 77,
      "dur": 80
    },
    {
      "t": 2207.1,
      "ch": 7,
      "note": 45,
      "vel": 63,
      "dur": 80
    },
    {
      "t": 2207.7,
      "ch": 7,
      "note": 48,
      "vel": 73,
      "dur": 80
    },
    {
      "t": 2208.1,
      "ch": 7,
      "note": 45,
      "vel": 60,
      "dur": 80
    },
    {
      "t": 2208.4,
      "ch": 7,
      "note": 48,
      "vel": 65,
      "dur": 80
    },
    {
      "t": 2209.1,
      "ch": 7,
      "note": 48,
      "vel": 60,
      "dur": 80
    },
    {
      "t": 2209.1,
      "ch": 7,
      "note": 45,
      "vel": 71,
      "dur": 80
    },
    {
      "t": 2209.4,
      "ch": 5,
      "note": 57,
      "vel": 60,
      "dur": 1600
    },
    {
      "t": 2209.9,
      "ch": 7,
      "note": 48,
      "vel": 66,
      "dur": 80
    },
    {
      "t": 2210.1,
      "ch": 7,
      "note": 45,
      "vel": 60,
      "dur": 80
    },
    {
      "t": 2210.5,
      "ch": 2,
      "note": 52,
      "vel": 44,
      "dur": 21951
    },
    {
      "t": 2210.5,
      "ch": 2,
      "note": 64,
      "vel": 31,
      "dur": 21951
    },
    {
      "t": 2210.5,
      "ch": 4,
      "note": 60,
      "vel": 8,
      "dur": 2926
    },
    {
      "t": 2210.5,
      "ch": 4,
      "note": 59,
      "vel": 8,
      "dur": 8730
    },
    {
      "t": 2210.5,
      "ch": 3,
      "note": 47,
      "vel": 10,
      "dur": 11707
    },
    {
      "t": 2210.6,
      "ch": 7,
      "note": 48,
      "vel": 66,
      "dur": 80
    },
    {
      "t": 2211,
      "ch": 7,
      "note": 45,
      "vel": 55,
      "dur": 80
    },
    {
      "t": 2211.3,
      "ch": 7,
      "note": 48,
      "vel": 76,
      "dur": 80
    },
    {
      "t": 2212.1,
      "ch": 7,
      "note": 48,
      "vel": 71,
      "dur": 80
    },
    {
      "t": 2212.1,
      "ch": 7,
      "note": 45,
      "vel": 78,
      "dur": 80
    },
    {
      "t": 2212.4,
      "ch": 5,
      "note": 52,
      "vel": 60,
      "dur": 1600
    },
    {
      "t": 2212.8,
      "ch": 7,
      "note": 48,
      "vel": 63,
      "dur": 80
    },
    {
      "t": 2213,
      "ch": 7,
      "note": 45,
      "vel": 63,
      "dur": 80
    },
    {
      "t": 2213.5,
      "ch": 7,
      "note": 48,
      "vel": 82,
      "dur": 80
    },
    {
      "t": 2213.5,
      "ch": 6,
      "note": 76,
      "vel": 9,
      "dur": 648
    },
    {
      "t": 2213.9,
      "ch": 7,
      "note": 45,
      "vel": 69,
      "dur": 80
    },
    {
      "t": 2214.3,
      "ch": 7,
      "note": 48,
      "vel": 55,
      "dur": 80
    },
    {
      "t": 2215,
      "ch": 7,
      "note": 48,
      "vel": 70,
      "dur": 80
    },
    {
      "t": 2215,
      "ch": 7,
      "note": 45,
      "vel": 79,
      "dur": 80
    },
    {
      "t": 2215.7,
      "ch": 7,
      "note": 48,
      "vel": 68,
      "dur": 80
    },
    {
      "t": 2215.9,
      "ch": 7,
      "note": 45,
      "vel": 58,
      "dur": 80
    },
    {
      "t": 2216.5,
      "ch": 7,
      "note": 48,
      "vel": 72,
      "dur": 80
    },
    {
      "t": 2216.8,
      "ch": 7,
      "note": 45,
      "vel": 68,
      "dur": 80
    },
    {
      "t": 2217.2,
      "ch": 7,
      "note": 48,
      "vel": 67,
      "dur": 80
    },
    {
      "t": 2217.9,
      "ch": 7,
      "note": 48,
      "vel": 68,
      "dur": 80
    },
    {
      "t": 2217.9,
      "ch": 7,
      "note": 45,
      "vel": 81,
      "dur": 80
    },
    {
      "t": 2218.7,
      "ch": 7,
      "note": 48,
      "vel": 66,
      "dur": 80
    },
    {
      "t": 2218.7,
      "ch": 5,
      "note": 60,
      "vel": 15,
      "dur": 949
    },
    {
      "t": 2218.8,
      "ch": 7,
      "note": 45,
      "vel": 71,
      "dur": 80
    },
    {
      "t": 2218.8,
      "ch": 5,
      "note": 60,
      "vel": 6,
      "dur": 948
    },
    {
      "t": 2219.4,
      "ch": 7,
      "note": 48,
      "vel": 73,
      "dur": 80
    },
    {
      "t": 2219.8,
      "ch": 7,
      "note": 45,
      "vel": 61,
      "dur": 80
    },
    {
      "t": 2220.1,
      "ch": 7,
      "note": 48,
      "vel": 77,
      "dur": 80
    },
    {
      "t": 2220.8,
      "ch": 7,
      "note": 48,
      "vel": 67,
      "dur": 80
    },
    {
      "t": 2220.8,
      "ch": 7,
      "note": 45,
      "vel": 74,
      "dur": 80
    },
    {
      "t": 2221.4,
      "ch": 5,
      "note": 60,
      "vel": 18,
      "dur": 946
    },
    {
      "t": 2221.6,
      "ch": 7,
      "note": 48,
      "vel": 70,
      "dur": 80
    },
    {
      "t": 2221.8,
      "ch": 7,
      "note": 45,
      "vel": 66,
      "dur": 80
    },
    {
      "t": 2222.2,
      "ch": 2,
      "note": 52,
      "vel": 45,
      "dur": 21951
    },
    {
      "t": 2222.3,
      "ch": 7,
      "note": 48,
      "vel": 68,
      "dur": 80
    },
    {
      "t": 2222.7,
      "ch": 7,
      "note": 45,
      "vel": 69,
      "dur": 80
    },
    {
      "t": 2223,
      "ch": 7,
      "note": 48,
      "vel": 78,
      "dur": 80
    },
    {
      "t": 2223.2,
      "ch": 5,
      "note": 60,
      "vel": 10,
      "dur": 951
    },
    {
      "t": 2223.8,
      "ch": 7,
      "note": 48,
      "vel": 65,
      "dur": 80
    },
    {
      "t": 2223.8,
      "ch": 7,
      "note": 45,
      "vel": 73,
      "dur": 80
    },
    {
      "t": 2224.5,
      "ch": 7,
      "note": 48,
      "vel": 70,
      "dur": 80
    },
    {
      "t": 2224.7,
      "ch": 7,
      "note": 45,
      "vel": 61,
      "dur": 80
    },
    {
      "t": 2225.2,
      "ch": 7,
      "note": 48,
      "vel": 59,
      "dur": 80
    },
    {
      "t": 2225.6,
      "ch": 7,
      "note": 45,
      "vel": 53,
      "dur": 80
    },
    {
      "t": 2226,
      "ch": 7,
      "note": 48,
      "vel": 66,
      "dur": 80
    },
    {
      "t": 2226.7,
      "ch": 7,
      "note": 48,
      "vel": 64,
      "dur": 80
    },
    {
      "t": 2226.7,
      "ch": 7,
      "note": 45,
      "vel": 68,
      "dur": 80
    },
    {
      "t": 2227.4,
      "ch": 7,
      "note": 48,
      "vel": 69,
      "dur": 80
    },
    {
      "t": 2227.6,
      "ch": 7,
      "note": 45,
      "vel": 58,
      "dur": 80
    },
    {
      "t": 2228.2,
      "ch": 7,
      "note": 48,
      "vel": 63,
      "dur": 80
    },
    {
      "t": 2228.2,
      "ch": 5,
      "note": 60,
      "vel": 4,
      "dur": 982
    },
    {
      "t": 2228.4,
      "ch": 5,
      "note": 60,
      "vel": 24,
      "dur": 984
    },
    {
      "t": 2228.5,
      "ch": 7,
      "note": 45,
      "vel": 58,
      "dur": 80
    },
    {
      "t": 2228.9,
      "ch": 7,
      "note": 48,
      "vel": 66,
      "dur": 80
    },
    {
      "t": 2229.1,
      "ch": 5,
      "note": 60,
      "vel": 19,
      "dur": 988
    },
    {
      "t": 2229.6,
      "ch": 7,
      "note": 48,
      "vel": 67,
      "dur": 80
    },
    {
      "t": 2230.4,
      "ch": 7,
      "note": 48,
      "vel": 68,
      "dur": 80
    },
    {
      "t": 2231.1,
      "ch": 7,
      "note": 48,
      "vel": 74,
      "dur": 80
    },
    {
      "t": 2231.8,
      "ch": 7,
      "note": 48,
      "vel": 82,
      "dur": 80
    },
    {
      "t": 2232.6,
      "ch": 0,
      "note": 36,
      "vel": 127,
      "dur": 55
    },
    {
      "t": 2232.6,
      "ch": 7,
      "note": 48,
      "vel": 62,
      "dur": 80
    },
    {
      "t": 2233.1,
      "ch": 5,
      "note": 60,
      "vel": 7,
      "dur": 1001
    },
    {
      "t": 2233.3,
      "ch": 7,
      "note": 48,
      "vel": 79,
      "dur": 80
    },
    {
      "t": 2233.8,
      "ch": 6,
      "note": 65,
      "vel": 4,
      "dur": 667
    },
    {
      "t": 2233.9,
      "ch": 2,
      "note": 52,
      "vel": 43,
      "dur": 21951
    },
    {
      "t": 2233.9,
      "ch": 2,
      "note": 64,
      "vel": 30,
      "dur": 21951
    },
    {
      "t": 2233.9,
      "ch": 4,
      "note": 59,
      "vel": 7,
      "dur": 11657
    },
    {
      "t": 2233.9,
      "ch": 3,
      "note": 40,
      "vel": 8,
      "dur": 11707
    },
    {
      "t": 2234,
      "ch": 7,
      "note": 48,
      "vel": 77,
      "dur": 80
    },
    {
      "t": 2234.7,
      "ch": 7,
      "note": 48,
      "vel": 64,
      "dur": 80
    },
    {
      "t": 2235.1,
      "ch": 5,
      "note": 60,
      "vel": 40,
      "dur": 998
    },
    {
      "t": 2235.5,
      "ch": 7,
      "note": 48,
      "vel": 67,
      "dur": 80
    },
    {
      "t": 2236.2,
      "ch": 7,
      "note": 48,
      "vel": 81,
      "dur": 80
    },
    {
      "t": 2236.9,
      "ch": 7,
      "note": 48,
      "vel": 75,
      "dur": 80
    },
    {
      "t": 2237.7,
      "ch": 7,
      "note": 48,
      "vel": 79,
      "dur": 80
    },
    {
      "t": 2238.4,
      "ch": 7,
      "note": 48,
      "vel": 59,
      "dur": 80
    },
    {
      "t": 2239.1,
      "ch": 7,
      "note": 48,
      "vel": 60,
      "dur": 80
    },
    {
      "t": 2239.9,
      "ch": 7,
      "note": 48,
      "vel": 75,
      "dur": 80
    },
    {
      "t": 2240.6,
      "ch": 7,
      "note": 48,
      "vel": 67,
      "dur": 80
    },
    {
      "t": 2241,
      "ch": 6,
      "note": 62,
      "vel": 4,
      "dur": 646
    },
    {
      "t": 2241.3,
      "ch": 7,
      "note": 48,
      "vel": 63,
      "dur": 80
    },
    {
      "t": 2242.1,
      "ch": 7,
      "note": 48,
      "vel": 67,
      "dur": 80
    },
    {
      "t": 2242.2,
      "ch": 7,
      "note": 45,
      "vel": 67,
      "dur": 80
    },
    {
      "t": 2242.8,
      "ch": 0,
      "note": 36,
      "vel": 88,
      "dur": 55
    },
    {
      "t": 2242.8,
      "ch": 7,
      "note": 48,
      "vel": 78,
      "dur": 80
    },
    {
      "t": 2243.2,
      "ch": 7,
      "note": 45,
      "vel": 61,
      "dur": 80
    },
    {
      "t": 2243.5,
      "ch": 7,
      "note": 48,
      "vel": 77,
      "dur": 80
    },
    {
      "t": 2244.3,
      "ch": 7,
      "note": 48,
      "vel": 78,
      "dur": 80
    },
    {
      "t": 2244.3,
      "ch": 7,
      "note": 45,
      "vel": 64,
      "dur": 80
    },
    {
      "t": 2245,
      "ch": 7,
      "note": 48,
      "vel": 58,
      "dur": 80
    },
    {
      "t": 2245.2,
      "ch": 7,
      "note": 45,
      "vel": 74,
      "dur": 80
    },
    {
      "t": 2245.6,
      "ch": 4,
      "note": 59,
      "vel": 9,
      "dur": 11657
    },
    {
      "t": 2245.6,
      "ch": 3,
      "note": 40,
      "vel": 11,
      "dur": 11707
    },
    {
      "t": 2245.7,
      "ch": 7,
      "note": 48,
      "vel": 75,
      "dur": 80
    },
    {
      "t": 2245.7,
      "ch": 5,
      "note": 60,
      "vel": 21,
      "dur": 965
    },
    {
      "t": 2246.1,
      "ch": 7,
      "note": 45,
      "vel": 63,
      "dur": 80
    },
    {
      "t": 2246.5,
      "ch": 7,
      "note": 48,
      "vel": 62,
      "dur": 80
    },
    {
      "t": 2247.2,
      "ch": 7,
      "note": 48,
      "vel": 72,
      "dur": 80
    },
    {
      "t": 2247.2,
      "ch": 7,
      "note": 45,
      "vel": 62,
      "dur": 80
    },
    {
      "t": 2247.9,
      "ch": 7,
      "note": 48,
      "vel": 73,
      "dur": 80
    },
    {
      "t": 2248.1,
      "ch": 7,
      "note": 45,
      "vel": 51,
      "dur": 80
    },
    {
      "t": 2248.7,
      "ch": 7,
      "note": 48,
      "vel": 70,
      "dur": 80
    },
    {
      "t": 2249,
      "ch": 7,
      "note": 45,
      "vel": 70,
      "dur": 80
    },
    {
      "t": 2249.4,
      "ch": 7,
      "note": 48,
      "vel": 81,
      "dur": 80
    },
    {
      "t": 2250.1,
      "ch": 0,
      "note": 36,
      "vel": 115,
      "dur": 55
    },
    {
      "t": 2250.1,
      "ch": 7,
      "note": 48,
      "vel": 60,
      "dur": 80
    },
    {
      "t": 2250.1,
      "ch": 7,
      "note": 45,
      "vel": 70,
      "dur": 80
    },
    {
      "t": 2250.1,
      "ch": 5,
      "note": 60,
      "vel": 4,
      "dur": 989
    },
    {
      "t": 2250.8,
      "ch": 7,
      "note": 48,
      "vel": 81,
      "dur": 80
    },
    {
      "t": 2251.6,
      "ch": 0,
      "note": 36,
      "vel": 93,
      "dur": 55
    },
    {
      "t": 2251.6,
      "ch": 7,
      "note": 48,
      "vel": 70,
      "dur": 80
    },
    {
      "t": 2252.3,
      "ch": 7,
      "note": 48,
      "vel": 78,
      "dur": 80
    },
    {
      "t": 2253,
      "ch": 7,
      "note": 48,
      "vel": 66,
      "dur": 80
    },
    {
      "t": 2253.8,
      "ch": 7,
      "note": 48,
      "vel": 66,
      "dur": 80
    },
    {
      "t": 2254.5,
      "ch": 7,
      "note": 48,
      "vel": 70,
      "dur": 80
    },
    {
      "t": 2255.2,
      "ch": 7,
      "note": 48,
      "vel": 70,
      "dur": 80
    },
    {
      "t": 2255.4,
      "ch": 5,
      "note": 60,
      "vel": 6,
      "dur": 1012
    },
    {
      "t": 2256,
      "ch": 7,
      "note": 48,
      "vel": 65,
      "dur": 80
    },
    {
      "t": 2256.7,
      "ch": 7,
      "note": 48,
      "vel": 83,
      "dur": 80
    },
    {
      "t": 2257.3,
      "ch": 2,
      "note": 52,
      "vel": 0,
      "dur": 0
    },
    {
      "t": 2257.3,
      "ch": 2,
      "note": 64,
      "vel": 0,
      "dur": 0
    },
    {
      "t": 2257.3,
      "ch": 2,
      "note": 55,
      "vel": 43,
      "dur": 21951
    },
    {
      "t": 2257.3,
      "ch": 4,
      "note": 59,
      "vel": 5,
      "dur": 11657
    },
    {
      "t": 2257.3,
      "ch": 3,
      "note": 40,
      "vel": 7,
      "dur": 11707
    },
    {
      "t": 2257.4,
      "ch": 7,
      "note": 48,
      "vel": 67,
      "dur": 80
    },
    {
      "t": 2258.2,
      "ch": 7,
      "note": 48,
      "vel": 84,
      "dur": 80
    },
    {
      "t": 2258.9,
      "ch": 7,
      "note": 48,
      "vel": 63,
      "dur": 80
    },
    {
      "t": 2259.5,
      "ch": 6,
      "note": 63,
      "vel": 10,
      "dur": 667
    },
    {
      "t": 2259.7,
      "ch": 7,
      "note": 48,
      "vel": 71,
      "dur": 80
    },
    {
      "t": 2260.4,
      "ch": 7,
      "note": 48,
      "vel": 82,
      "dur": 80
    },
    {
      "t": 2261.2,
      "ch": 7,
      "note": 48,
      "vel": 71,
      "dur": 80
    },
    {
      "t": 2261.6,
      "ch": 6,
      "note": 69,
      "vel": 13,
      "dur": 659
    },
    {
      "t": 2262,
      "ch": 7,
      "note": 48,
      "vel": 60,
      "dur": 80
    },
    {
      "t": 2262.7,
      "ch": 7,
      "note": 48,
      "vel": 73,
      "dur": 80
    },
    {
      "t": 2263.5,
      "ch": 7,
      "note": 48,
      "vel": 69,
      "dur": 80
    },
    {
      "t": 2264.3,
      "ch": 7,
      "note": 48,
      "vel": 78,
      "dur": 80
    },
    {
      "t": 2265,
      "ch": 7,
      "note": 48,
      "vel": 69,
      "dur": 80
    },
    {
      "t": 2265.5,
      "ch": 5,
      "note": 59,
      "vel": 17,
      "dur": 970
    },
    {
      "t": 2265.8,
      "ch": 7,
      "note": 48,
      "vel": 78,
      "dur": 80
    },
    {
      "t": 2266.6,
      "ch": 7,
      "note": 48,
      "vel": 78,
      "dur": 80
    },
    {
      "t": 2267.4,
      "ch": 7,
      "note": 48,
      "vel": 73,
      "dur": 80
    },
    {
      "t": 2268.1,
      "ch": 0,
      "note": 36,
      "vel": 111,
      "dur": 55
    },
    {
      "t": 2268.1,
      "ch": 7,
      "note": 48,
      "vel": 74,
      "dur": 80
    },
    {
      "t": 2268.9,
      "ch": 7,
      "note": 48,
      "vel": 65,
      "dur": 80
    },
    {
      "t": 2269.6,
      "ch": 2,
      "note": 55,
      "vel": 0,
      "dur": 0
    },
    {
      "t": 2269.7,
      "ch": 0,
      "note": 36,
      "vel": 90,
      "dur": 55
    },
    {
      "t": 2269.7,
      "ch": 7,
      "note": 48,
      "vel": 80,
      "dur": 80
    },
    {
      "t": 2270.1,
      "ch": 5,
      "note": 63,
      "vel": 10,
      "dur": 976
    },
    {
      "t": 2270.3,
      "ch": 5,
      "note": 63,
      "vel": 33,
      "dur": 976
    },
    {
      "t": 2270.4,
      "ch": 7,
      "note": 48,
      "vel": 65,
      "dur": 80
    },
    {
      "t": 2271,
      "ch": 0,
      "note": 36,
      "vel": 69,
      "dur": 55
    },
    {
      "t": 2271.2,
      "ch": 0,
      "note": 36,
      "vel": 113,
      "dur": 55
    },
    {
      "t": 2271.2,
      "ch": 7,
      "note": 48,
      "vel": 59,
      "dur": 80
    },
    {
      "t": 2272,
      "ch": 7,
      "note": 48,
      "vel": 71,
      "dur": 80
    },
    {
      "t": 2272.4,
      "ch": 6,
      "note": 73,
      "vel": 13,
      "dur": 659
    },
    {
      "t": 2272.7,
      "ch": 0,
      "note": 36,
      "vel": 93,
      "dur": 55
    },
    {
      "t": 2272.7,
      "ch": 7,
      "note": 48,
      "vel": 70,
      "dur": 80
    },
    {
      "t": 2273.5,
      "ch": 7,
      "note": 48,
      "vel": 68,
      "dur": 80
    },
    {
      "t": 2273.7,
      "ch": 5,
      "note": 59,
      "vel": 6,
      "dur": 998
    },
    {
      "t": 2274.3,
      "ch": 7,
      "note": 48,
      "vel": 69,
      "dur": 80
    },
    {
      "t": 2275,
      "ch": 7,
      "note": 48,
      "vel": 78,
      "dur": 80
    },
    {
      "t": 2275.2,
      "ch": 5,
      "note": 63,
      "vel": 21,
      "dur": 1007
    },
    {
      "t": 2275.4,
      "ch": 5,
      "note": 63,
      "vel": 17,
      "dur": 1008
    },
    {
      "t": 2275.8,
      "ch": 7,
      "note": 48,
      "vel": 77,
      "dur": 80
    },
    {
      "t": 2276.6,
      "ch": 7,
      "note": 48,
      "vel": 72,
      "dur": 80
    },
    {
      "t": 2277.4,
      "ch": 7,
      "note": 48,
      "vel": 72,
      "dur": 80
    },
    {
      "t": 2279.7,
      "ch": 7,
      "note": 48,
      "vel": 74,
      "dur": 80
    },
    {
      "t": 2280.4,
      "ch": 7,
      "note": 48,
      "vel": 77,
      "dur": 80
    },
    {
      "t": 2281.2,
      "ch": 7,
      "note": 48,
      "vel": 70,
      "dur": 80
    },
    {
      "t": 2281.9,
      "ch": 2,
      "note": 55,
      "vel": 0,
      "dur": 0
    },
    {
      "t": 2281.9,
      "ch": 2,
      "note": 52,
      "vel": 43,
      "dur": 23076
    },
    {
      "t": 2281.9,
      "ch": 2,
      "note": 64,
      "vel": 30,
      "dur": 23076
    },
    {
      "t": 2281.9,
      "ch": 4,
      "note": 64,
      "vel": 6,
      "dur": 12257
    },
    {
      "t": 2281.9,
      "ch": 3,
      "note": 52,
      "vel": 7,
      "dur": 12307
    },
    {
      "t": 2282,
      "ch": 7,
      "note": 48,
      "vel": 64,
      "dur": 80
    },
    {
      "t": 2282,
      "ch": 5,
      "note": 59,
      "vel": 19,
      "dur": 1011
    },
    {
      "t": 2282.7,
      "ch": 7,
      "note": 48,
      "vel": 76,
      "dur": 80
    },
    {
      "t": 2283.1,
      "ch": 6,
      "note": 76,
      "vel": 6,
      "dur": 671
    },
    {
      "t": 2283.3,
      "ch": 6,
      "note": 75,
      "vel": 5,
      "dur": 670
    },
    {
      "t": 2283.5,
      "ch": 7,
      "note": 48,
      "vel": 72,
      "dur": 80
    },
    {
      "t": 2284.3,
      "ch": 7,
      "note": 48,
      "vel": 76,
      "dur": 80
    },
    {
      "t": 2285,
      "ch": 7,
      "note": 48,
      "vel": 77,
      "dur": 80
    },
    {
      "t": 2285.8,
      "ch": 7,
      "note": 48,
      "vel": 59,
      "dur": 80
    },
    {
      "t": 2286.6,
      "ch": 7,
      "note": 48,
      "vel": 69,
      "dur": 80
    },
    {
      "t": 2287.4,
      "ch": 7,
      "note": 48,
      "vel": 77,
      "dur": 80
    },
    {
      "t": 2288.1,
      "ch": 7,
      "note": 48,
      "vel": 69,
      "dur": 80
    },
    {
      "t": 2288.1,
      "ch": 5,
      "note": 63,
      "vel": 23,
      "dur": 983
    },
    {
      "t": 2288.5,
      "ch": 6,
      "note": 80,
      "vel": 3,
      "dur": 655
    },
    {
      "t": 2288.9,
      "ch": 7,
      "note": 48,
      "vel": 72,
      "dur": 80
    },
    {
      "t": 2289.7,
      "ch": 7,
      "note": 48,
      "vel": 64,
      "dur": 80
    },
    {
      "t": 2289.9,
      "ch": 6,
      "note": 78,
      "vel": 2,
      "dur": 654
    },
    {
      "t": 2290.4,
      "ch": 7,
      "note": 48,
      "vel": 74,
      "dur": 80
    },
    {
      "t": 2291.2,
      "ch": 7,
      "note": 48,
      "vel": 71,
      "dur": 80
    },
    {
      "t": 2292,
      "ch": 7,
      "note": 48,
      "vel": 64,
      "dur": 80
    },
    {
      "t": 2292.4,
      "ch": 5,
      "note": 59,
      "vel": 27,
      "dur": 987
    },
    {
      "t": 2292.6,
      "ch": 6,
      "note": 73,
      "vel": 20,
      "dur": 658
    },
    {
      "t": 2292.7,
      "ch": 7,
      "note": 48,
      "vel": 81,
      "dur": 80
    },
    {
      "t": 2292.8,
      "ch": 5,
      "note": 63,
      "vel": 23,
      "dur": 988
    },
    {
      "t": 2293.5,
      "ch": 7,
      "note": 48,
      "vel": 69,
      "dur": 80
    },
    {
      "t": 2294.2,
      "ch": 2,
      "note": 52,
      "vel": 0,
      "dur": 0
    },
    {
      "t": 2294.2,
      "ch": 2,
      "note": 64,
      "vel": 0,
      "dur": 0
    },
    {
      "t": 2294.2,
      "ch": 2,
      "note": 57,
      "vel": 44,
      "dur": 23076
    },
    {
      "t": 2294.2,
      "ch": 2,
      "note": 69,
      "vel": 31,
      "dur": 23076
    },
    {
      "t": 2294.3,
      "ch": 7,
      "note": 48,
      "vel": 79,
      "dur": 80
    },
    {
      "t": 2295,
      "ch": 7,
      "note": 48,
      "vel": 64,
      "dur": 80
    },
    {
      "t": 2295.8,
      "ch": 7,
      "note": 48,
      "vel": 66,
      "dur": 80
    },
    {
      "t": 2296.6,
      "ch": 7,
      "note": 48,
      "vel": 85,
      "dur": 80
    },
    {
      "t": 2296.8,
      "ch": 5,
      "note": 63,
      "vel": 18,
      "dur": 1015
    },
    {
      "t": 2297.4,
      "ch": 7,
      "note": 48,
      "vel": 66,
      "dur": 80
    },
    {
      "t": 2298.1,
      "ch": 7,
      "note": 48,
      "vel": 70,
      "dur": 80
    },
    {
      "t": 2305,
      "ch": 7,
      "note": 48,
      "vel": 73,
      "dur": 80
    },
    {
      "t": 2305.1,
      "ch": 6,
      "note": 75,
      "vel": 5,
      "dur": 688
    },
    {
      "t": 2305.8,
      "ch": 7,
      "note": 48,
      "vel": 81,
      "dur": 80
    },
    {
      "t": 2306.4,
      "ch": 6,
      "note": 71,
      "vel": 7,
      "dur": 684
    },
    {
      "t": 2306.5,
      "ch": 2,
      "note": 57,
      "vel": 43,
      "dur": 23076
    },
    {
      "t": 2306.5,
      "ch": 2,
      "note": 69,
      "vel": 30,
      "dur": 23076
    },
    {
      "t": 2306.5,
      "ch": 4,
      "note": 64,
      "vel": 5,
      "dur": 12257
    },
    {
      "t": 2306.5,
      "ch": 3,
      "note": 45,
      "vel": 7,
      "dur": 12307
    },
    {
      "t": 2306.6,
      "ch": 7,
      "note": 48,
      "vel": 56,
      "dur": 80
    },
    {
      "t": 2306.6,
      "ch": 5,
      "note": 59,
      "vel": 1,
      "dur": 1025
    },
    {
      "t": 2307.4,
      "ch": 7,
      "note": 48,
      "vel": 74,
      "dur": 80
    },
    {
      "t": 2308.1,
      "ch": 7,
      "note": 48,
      "vel": 76,
      "dur": 80
    },
    {
      "t": 2308.9,
      "ch": 7,
      "note": 48,
      "vel": 74,
      "dur": 80
    },
    {
      "t": 2309.3,
      "ch": 5,
      "note": 63,
      "vel": 1,
      "dur": 1012
    },
    {
      "t": 2309.7,
      "ch": 7,
      "note": 48,
      "vel": 58,
      "dur": 80
    },
    {
      "t": 2310.4,
      "ch": 7,
      "note": 48,
      "vel": 71,
      "dur": 80
    },
    {
      "t": 2311.2,
      "ch": 7,
      "note": 48,
      "vel": 84,
      "dur": 80
    },
    {
      "t": 2312,
      "ch": 7,
      "note": 48,
      "vel": 72,
      "dur": 80
    },
    {
      "t": 2312.7,
      "ch": 7,
      "note": 48,
      "vel": 63,
      "dur": 80
    },
    {
      "t": 2313.5,
      "ch": 7,
      "note": 48,
      "vel": 60,
      "dur": 80
    },
    {
      "t": 2314.3,
      "ch": 7,
      "note": 48,
      "vel": 67,
      "dur": 80
    },
    {
      "t": 2314.3,
      "ch": 6,
      "note": 69,
      "vel": 15,
      "dur": 672
    },
    {
      "t": 2315,
      "ch": 7,
      "note": 48,
      "vel": 80,
      "dur": 80
    },
    {
      "t": 2315.8,
      "ch": 7,
      "note": 48,
      "vel": 70,
      "dur": 80
    },
    {
      "t": 2316.6,
      "ch": 7,
      "note": 48,
      "vel": 78,
      "dur": 80
    },
    {
      "t": 2316.6,
      "ch": 5,
      "note": 63,
      "vel": 25,
      "dur": 1019
    },
    {
      "t": 2317.4,
      "ch": 7,
      "note": 48,
      "vel": 61,
      "dur": 80
    },
    {
      "t": 2318.1,
      "ch": 7,
      "note": 48,
      "vel": 64,
      "dur": 80
    },
    {
      "t": 2318.8,
      "ch": 2,
      "note": 57,
      "vel": 43,
      "dur": 23076
    },
    {
      "t": 2318.8,
      "ch": 2,
      "note": 69,
      "vel": 30,
      "dur": 23076
    },
    {
      "t": 2318.8,
      "ch": 4,
      "note": 64,
      "vel": 6,
      "dur": 12257
    },
    {
      "t": 2318.8,
      "ch": 3,
      "note": 45,
      "vel": 7,
      "dur": 12307
    },
    {
      "t": 2318.9,
      "ch": 7,
      "note": 48,
      "vel": 73,
      "dur": 80
    },
    {
      "t": 2319.7,
      "ch": 7,
      "note": 48,
      "vel": 72,
      "dur": 80
    },
    {
      "t": 2319.7,
      "ch": 6,
      "note": 64,
      "vel": 13,
      "dur": 694
    },
    {
      "t": 2320.4,
      "ch": 5,
      "note": 59,
      "vel": 13,
      "dur": 1047
    },
    {
      "t": 2321.6,
      "ch": 6,
      "note": 66,
      "vel": 1,
      "dur": 703
    },
    {
      "t": 2326,
      "ch": 6,
      "note": 71,
      "vel": 1,
      "dur": 711
    },
    {
      "t": 2329.1,
      "ch": 6,
      "note": 78,
      "vel": 1,
      "dur": 705
    },
    {
      "t": 2329.3,
      "ch": 5,
      "note": 63,
      "vel": 16,
      "dur": 1056
    },
    {
      "t": 2330.1,
      "ch": 5,
      "note": 63,
      "vel": 1,
      "dur": 1053
    },
    {
      "t": 2331.1,
      "ch": 2,
      "note": 69,
      "vel": 0,
      "dur": 0
    },
    {
      "t": 2331.1,
      "ch": 2,
      "note": 57,
      "vel": 43,
      "dur": 23076
    },
    {
      "t": 2331.1,
      "ch": 4,
      "note": 64,
      "vel": 6,
      "dur": 12257
    },
    {
      "t": 2331.1,
      "ch": 3,
      "note": 45,
      "vel": 7,
      "dur": 12307
    },
    {
      "t": 2332.7,
      "ch": 7,
      "note": 48,
      "vel": 83,
      "dur": 80
    },
    {
      "t": 2333.5,
      "ch": 7,
      "note": 48,
      "vel": 73,
      "dur": 80
    },
    {
      "t": 2334.3,
      "ch": 7,
      "note": 48,
      "vel": 77,
      "dur": 80
    },
    {
      "t": 2334.7,
      "ch": 5,
      "note": 57,
      "vel": 16,
      "dur": 1036
    },
    {
      "t": 2335,
      "ch": 7,
      "note": 48,
      "vel": 65,
      "dur": 80
    },
    {
      "t": 2335.1,
      "ch": 5,
      "note": 59,
      "vel": 10,
      "dur": 1036
    },
    {
      "t": 2335.8,
      "ch": 7,
      "note": 48,
      "vel": 70,
      "dur": 80
    },
    {
      "t": 2336.6,
      "ch": 7,
      "note": 48,
      "vel": 79,
      "dur": 80
    },
    {
      "t": 2337.4,
      "ch": 7,
      "note": 48,
      "vel": 69,
      "dur": 80
    },
    {
      "t": 2338.1,
      "ch": 7,
      "note": 48,
      "vel": 75,
      "dur": 80
    },
    {
      "t": 2338.9,
      "ch": 7,
      "note": 48,
      "vel": 67,
      "dur": 80
    },
    {
      "t": 2339.7,
      "ch": 7,
      "note": 48,
      "vel": 66,
      "dur": 80
    },
    {
      "t": 2340.4,
      "ch": 7,
      "note": 48,
      "vel": 68,
      "dur": 80
    },
    {
      "t": 2341.2,
      "ch": 7,
      "note": 48,
      "vel": 86,
      "dur": 80
    },
    {
      "t": 2341.6,
      "ch": 5,
      "note": 57,
      "vel": 1,
      "dur": 1064
    },
    {
      "t": 2342.2,
      "ch": 5,
      "note": 57,
      "vel": 14,
      "dur": 1069
    },
    {
      "t": 2343.3,
      "ch": 6,
      "note": 81,
      "vel": 16,
      "dur": 718
    },
    {
      "t": 2343.4,
      "ch": 2,
      "note": 57,
      "vel": 42,
      "dur": 23076
    },
    {
      "t": 2343.4,
      "ch": 2,
      "note": 69,
      "vel": 29,
      "dur": 23076
    },
    {
      "t": 2343.4,
      "ch": 4,
      "note": 64,
      "vel": 4,
      "dur": 12257
    },
    {
      "t": 2343.4,
      "ch": 3,
      "note": 52,
      "vel": 5,
      "dur": 12307
    },
    {
      "t": 2347.9,
      "ch": 5,
      "note": 59,
      "vel": 1,
      "dur": 1098
    },
    {
      "t": 2353.7,
      "ch": 6,
      "note": 80,
      "vel": 1,
      "dur": 721
    },
    {
      "t": 2355.7,
      "ch": 2,
      "note": 57,
      "vel": 43,
      "dur": 23076
    },
    {
      "t": 2355.7,
      "ch": 2,
      "note": 69,
      "vel": 30,
      "dur": 23076
    },
    {
      "t": 2355.7,
      "ch": 4,
      "note": 64,
      "vel": 5,
      "dur": 12257
    },
    {
      "t": 2355.7,
      "ch": 3,
      "note": 45,
      "vel": 7,
      "dur": 12307
    },
    {
      "t": 2357.2,
      "ch": 5,
      "note": 57,
      "vel": 1,
      "dur": 1068
    },
    {
      "t": 2360.4,
      "ch": 0,
      "note": 36,
      "vel": 114,
      "dur": 55
    },
    {
      "t": 2362,
      "ch": 0,
      "note": 36,
      "vel": 81,
      "dur": 55
    },
    {
      "t": 2363.7,
      "ch": 5,
      "note": 57,
      "vel": 11,
      "dur": 1088
    },
    {
      "t": 2366.4,
      "ch": 5,
      "note": 59,
      "vel": 14,
      "dur": 1107
    },
    {
      "t": 2368,
      "ch": 2,
      "note": 57,
      "vel": 42,
      "dur": 23076
    },
    {
      "t": 2368,
      "ch": 4,
      "note": 64,
      "vel": 3,
      "dur": 12257
    },
    {
      "t": 2368,
      "ch": 3,
      "note": 52,
      "vel": 4,
      "dur": 12307
    },
    {
      "t": 2369.1,
      "ch": 6,
      "note": 78,
      "vel": 1,
      "dur": 748
    },
    {
      "t": 2379.5,
      "ch": 5,
      "note": 57,
      "vel": 16,
      "dur": 1095
    },
    {
      "t": 2380.3,
      "ch": 2,
      "note": 57,
      "vel": 43,
      "dur": 23076
    },
    {
      "t": 2380.3,
      "ch": 2,
      "note": 69,
      "vel": 30,
      "dur": 23076
    },
    {
      "t": 2380.3,
      "ch": 4,
      "note": 64,
      "vel": 5,
      "dur": 12257
    },
    {
      "t": 2380.3,
      "ch": 3,
      "note": 45,
      "vel": 6,
      "dur": 12307
    },
    {
      "t": 2381,
      "ch": 5,
      "note": 57,
      "vel": 1,
      "dur": 1092
    },
    {
      "t": 2382,
      "ch": 0,
      "note": 36,
      "vel": 112,
      "dur": 55
    },
    {
      "t": 2383.5,
      "ch": 0,
      "note": 36,
      "vel": 86,
      "dur": 55
    },
    {
      "t": 2384.3,
      "ch": 5,
      "note": 59,
      "vel": 5,
      "dur": 1097
    },
    {
      "t": 2388,
      "ch": 5,
      "note": 57,
      "vel": 5,
      "dur": 1119
    },
    {
      "t": 2390,
      "ch": 5,
      "note": 57,
      "vel": 2,
      "dur": 1133
    },
    {
      "t": 2392.7,
      "ch": 4,
      "note": 64,
      "vel": 2,
      "dur": 12257
    },
    {
      "t": 2392.7,
      "ch": 3,
      "note": 52,
      "vel": 3,
      "dur": 12307
    },
    {
      "t": 2401,
      "ch": 6,
      "note": 78,
      "vel": 1,
      "dur": 744
    },
    {
      "t": 2404.5,
      "ch": 5,
      "note": 57,
      "vel": 12,
      "dur": 1105
    },
    {
      "t": 2405,
      "ch": 2,
      "note": 57,
      "vel": 43,
      "dur": 23076
    },
    {
      "t": 2405,
      "ch": 4,
      "note": 64,
      "vel": 5,
      "dur": 12257
    },
    {
      "t": 2405,
      "ch": 3,
      "note": 45,
      "vel": 6,
      "dur": 12307
    },
    {
      "t": 2407.9,
      "ch": 6,
      "note": 80,
      "vel": 1,
      "dur": 741
    },
    {
      "t": 2408.9,
      "ch": 5,
      "note": 59,
      "vel": 1,
      "dur": 1116
    },
    {
      "t": 2412.9,
      "ch": 6,
      "note": 78,
      "vel": 1,
      "dur": 760
    },
    {
      "t": 2417.3,
      "ch": 2,
      "note": 57,
      "vel": 41,
      "dur": 23076
    },
    {
      "t": 2428.1,
      "ch": 0,
      "note": 36,
      "vel": 113,
      "dur": 55
    },
    {
      "t": 2429.5,
      "ch": 5,
      "note": 57,
      "vel": 13,
      "dur": 1111
    },
    {
      "t": 2429.6,
      "ch": 2,
      "note": 69,
      "vel": 0,
      "dur": 0
    },
    {
      "t": 2429.6,
      "ch": 2,
      "note": 57,
      "vel": 43,
      "dur": 23076
    },
    {
      "t": 2429.6,
      "ch": 4,
      "note": 64,
      "vel": 5,
      "dur": 12257
    },
    {
      "t": 2429.6,
      "ch": 3,
      "note": 45,
      "vel": 6,
      "dur": 12307
    },
    {
      "t": 2441.9,
      "ch": 2,
      "note": 57,
      "vel": 41,
      "dur": 23076
    },
    {
      "t": 2446.8,
      "ch": 6,
      "note": 81,
      "vel": 12,
      "dur": 756
    },
    {
      "t": 2448.3,
      "ch": 6,
      "note": 73,
      "vel": 3,
      "dur": 752
    },
    {
      "t": 2450.4,
      "ch": 5,
      "note": 61,
      "vel": 1,
      "dur": 1123
    },
    {
      "t": 2451.2,
      "ch": 0,
      "note": 36,
      "vel": 83,
      "dur": 55
    },
    {
      "t": 2452.5,
      "ch": 6,
      "note": 69,
      "vel": 4,
      "dur": 750
    },
    {
      "t": 2454.2,
      "ch": 4,
      "note": 64,
      "vel": 4,
      "dur": 12257
    },
    {
      "t": 2454.2,
      "ch": 3,
      "note": 45,
      "vel": 5,
      "dur": 12307
    },
    {
      "t": 2458.6,
      "ch": 7,
      "note": 60,
      "vel": 110,
      "dur": 400
    },
    {
      "t": 2464.7,
      "ch": 5,
      "note": 61,
      "vel": 2,
      "dur": 1174
    },
    {
      "t": 2466.5,
      "ch": 2,
      "note": 57,
      "vel": 41,
      "dur": 23076
    },
    {
      "t": 2476.4,
      "ch": 5,
      "note": 63,
      "vel": 1,
      "dur": 1143
    },
    {
      "t": 2477.6,
      "ch": 5,
      "note": 61,
      "vel": 18,
      "dur": 1149
    },
    {
      "t": 2478.5,
      "ch": 5,
      "note": 61,
      "vel": 12,
      "dur": 1155
    },
    {
      "t": 2478.8,
      "ch": 2,
      "note": 57,
      "vel": 42,
      "dur": 23076
    },
    {
      "t": 2478.8,
      "ch": 2,
      "note": 68,
      "vel": 29,
      "dur": 23076
    },
    {
      "t": 2478.8,
      "ch": 4,
      "note": 64,
      "vel": 3,
      "dur": 12257
    },
    {
      "t": 2478.8,
      "ch": 3,
      "note": 45,
      "vel": 3,
      "dur": 12307
    },
    {
      "t": 2491.1,
      "ch": 2,
      "note": 68,
      "vel": 0,
      "dur": 0
    },
    {
      "t": 2491.1,
      "ch": 2,
      "note": 57,
      "vel": 41,
      "dur": 23076
    },
    {
      "t": 2503.7,
      "ch": 6,
      "note": 78,
      "vel": 1,
      "dur": 783
    },
    {
      "t": 2515.7,
      "ch": 2,
      "note": 57,
      "vel": 41,
      "dur": 23076
    },
    {
      "t": 2515.7,
      "ch": 4,
      "note": 64,
      "vel": 3,
      "dur": 12257
    },
    {
      "t": 2515.7,
      "ch": 3,
      "note": 52,
      "vel": 3,
      "dur": 12307
    },
    {
      "t": 2520.4,
      "ch": 0,
      "note": 36,
      "vel": 114,
      "dur": 55
    },
    {
      "t": 2528,
      "ch": 2,
      "note": 57,
      "vel": 41,
      "dur": 23076
    },
    {
      "t": 2528,
      "ch": 2,
      "note": 69,
      "vel": 29,
      "dur": 23076
    },
    {
      "t": 2540.3,
      "ch": 2,
      "note": 57,
      "vel": 41,
      "dur": 23076
    },
    {
      "t": 2540.3,
      "ch": 4,
      "note": 64,
      "vel": 2,
      "dur": 12257
    },
    {
      "t": 2540.3,
      "ch": 3,
      "note": 52,
      "vel": 3,
      "dur": 12307
    },
    {
      "t": 2543.3,
      "ch": 5,
      "note": 63,
      "vel": 13,
      "dur": 1161
    },
    {
      "t": 2552.7,
      "ch": 2,
      "note": 57,
      "vel": 40,
      "dur": 23076
    },
    {
      "t": 2565,
      "ch": 2,
      "note": 57,
      "vel": 41,
      "dur": 23076
    },
    {
      "t": 2566.6,
      "ch": 0,
      "note": 36,
      "vel": 110,
      "dur": 55
    },
    {
      "t": 2577.3,
      "ch": 2,
      "note": 69,
      "vel": 0,
      "dur": 0
    },
    {
      "t": 2577.3,
      "ch": 2,
      "note": 57,
      "vel": 40,
      "dur": 23076
    },
    {
      "t": 2577.3,
      "ch": 2,
      "note": 68,
      "vel": 28,
      "dur": 23076
    },
    {
      "t": 2589.6,
      "ch": 2,
      "note": 68,
      "vel": 0,
      "dur": 0
    },
    {
      "t": 2589.6,
      "ch": 2,
      "note": 57,
      "vel": 41,
      "dur": 23076
    },
    {
      "t": 2589.7,
      "ch": 0,
      "note": 36,
      "vel": 90,
      "dur": 55
    },
    {
      "t": 2601.9,
      "ch": 2,
      "note": 57,
      "vel": 40,
      "dur": 23076
    },
    {
      "t": 2601.9,
      "ch": 2,
      "note": 69,
      "vel": 28,
      "dur": 23076
    },
    {
      "t": 2614.2,
      "ch": 2,
      "note": 57,
      "vel": 41,
      "dur": 23076
    },
    {
      "t": 2614.2,
      "ch": 2,
      "note": 69,
      "vel": 29,
      "dur": 23076
    },
    {
      "t": 2626.5,
      "ch": 2,
      "note": 69,
      "vel": 0,
      "dur": 0
    },
    {
      "t": 2626.5,
      "ch": 2,
      "note": 57,
      "vel": 40,
      "dur": 23076
    },
    {
      "t": 2638.8,
      "ch": 2,
      "note": 57,
      "vel": 40,
      "dur": 23076
    },
    {
      "t": 2663.4,
      "ch": 2,
      "note": 57,
      "vel": 40,
      "dur": 23076
    },
    {
      "t": 2663.4,
      "ch": 2,
      "note": 69,
      "vel": 28,
      "dur": 23076
    },
    {
      "t": 2675.7,
      "ch": 2,
      "note": 57,
      "vel": 40,
      "dur": 23076
    },
    {
      "t": 2675.7,
      "ch": 2,
      "note": 69,
      "vel": 28,
      "dur": 23076
    },
    {
      "t": 2688,
      "ch": 2,
      "note": 57,
      "vel": 40,
      "dur": 23076
    },
    {
      "t": 2688,
      "ch": 2,
      "note": 69,
      "vel": 28,
      "dur": 23076
    },
    {
      "t": 2700.3,
      "ch": 2,
      "note": 57,
      "vel": 41,
      "dur": 23076
    },
    {
      "t": 2700.3,
      "ch": 2,
      "note": 69,
      "vel": 29,
      "dur": 23076
    },
    {
      "t": 2712.6,
      "ch": 2,
      "note": 57,
      "vel": 40,
      "dur": 23076
    }
  ],
  "snapshots": [
    {
      "t": 0,
      "rD": 0,
      "hC": 0.05,
      "mA": 0,
      "tD": 0.02,
      "mode": "A_lydian",
      "bpm": 78,
      "arc": 0,
      "ent": 0,
      "brk": 0,
      "frameMs": 8.3
    },
    {
      "t": 1,
      "rD": 0,
      "hC": 0.05,
      "mA": 0,
      "tD": 0.01,
      "mode": "A_lydian",
      "bpm": 78,
      "arc": 0,
      "ent": 0,
      "brk": 0,
      "frameMs": 8.3
    },
    {
      "t": 2,
      "rD": 0,
      "hC": 0.05,
      "mA": 0,
      "tD": 0.01,
      "mode": "A_lydian",
      "bpm": 78,
      "arc": 0,
      "ent": 0,
      "brk": 0,
      "frameMs": 8.4
    },
    {
      "t": 3,
      "rD": 0,
      "hC": 0.05,
      "mA": 0,
      "tD": 0.01,
      "mode": "A_lydian",
      "bpm": 78,
      "arc": 0,
      "ent": 0,
      "brk": 0,
      "frameMs": 8.1
    },
    {
      "t": 4,
      "rD": 0,
      "hC": 0.05,
      "mA": 0,
      "tD": 0.02,
      "mode": "A_lydian",
      "bpm": 78,
      "arc": 0,
      "ent": 0,
      "brk": 0,
      "frameMs": 9.1
    },
    {
      "t": 5,
      "rD": 0,
      "hC": 0.06,
      "mA": 0,
      "tD": 0.03,
      "mode": "A_lydian",
      "bpm": 78,
      "arc": 0,
      "ent": 0,
      "brk": 0,
      "frameMs": 8.3
    },
    {
      "t": 6,
      "rD": 0.01,
      "hC": 0.07,
      "mA": 0,
      "tD": 0.04,
      "mode": "A_lydian",
      "bpm": 78,
      "arc": 0,
      "ent": 0,
      "brk": 0,
      "frameMs": 9.3
    },
    {
      "t": 7,
      "rD": 0.01,
      "hC": 0.08,
      "mA": 0.01,
      "tD": 0.05,
      "mode": "A_lydian",
      "bpm": 78,
      "arc": 0,
      "ent": 0,
      "brk": 0,
      "frameMs": 9
    },
    {
      "t": 8,
      "rD": 0.02,
      "hC": 0.09,
      "mA": 0.01,
      "tD": 0.06,
      "mode": "A_lydian",
      "bpm": 78,
      "arc": 0,
      "ent": 17,
      "brk": 0,
      "frameMs": 8.3
    },
    {
      "t": 9.1,
      "rD": 0.03,
      "hC": 0.09,
      "mA": 0.02,
      "tD": 0.07,
      "mode": "A_lydian",
      "bpm": 78,
      "arc": 0.001,
      "ent": 18,
      "brk": 0,
      "frameMs": 8.2
    },
    {
      "t": 10.1,
      "rD": 0.04,
      "hC": 0.1,
      "mA": 0.02,
      "tD": 0.07,
      "mode": "A_lydian",
      "bpm": 78,
      "arc": 0.001,
      "ent": 17,
      "brk": 0,
      "frameMs": 8.3
    },
    {
      "t": 11.1,
      "rD": 0.05,
      "hC": 0.11,
      "mA": 0.02,
      "tD": 0.08,
      "mode": "A_lydian",
      "bpm": 78,
      "arc": 0.001,
      "ent": 15,
      "brk": 0,
      "frameMs": 7.8
    },
    {
      "t": 12.1,
      "rD": 0.05,
      "hC": 0.11,
      "mA": 0.03,
      "tD": 0.09,
      "mode": "A_lydian",
      "bpm": 78,
      "arc": 0.002,
      "ent": 12,
      "brk": 0,
      "frameMs": 9.3
    },
    {
      "t": 13.1,
      "rD": 0.05,
      "hC": 0.11,
      "mA": 0.03,
      "tD": 0.09,
      "mode": "A_lydian",
      "bpm": 78,
      "arc": 0.002,
      "ent": 5,
      "brk": 0,
      "frameMs": 8.4
    },
    {
      "t": 14.1,
      "rD": 0.05,
      "hC": 0.11,
      "mA": 0.02,
      "tD": 0.09,
      "mode": "A_lydian",
      "bpm": 78,
      "arc": 0.003,
      "ent": 11,
      "brk": 0,
      "frameMs": 8.1
    },
    {
      "t": 15.1,
      "rD": 0.04,
      "hC": 0.11,
      "mA": 0.02,
      "tD": 0.08,
      "mode": "A_lydian",
      "bpm": 78,
      "arc": 0.003,
      "ent": 9,
      "brk": 0,
      "frameMs": 8.3
    },
    {
      "t": 16.1,
      "rD": 0.03,
      "hC": 0.1,
      "mA": 0.02,
      "tD": 0.08,
      "mode": "A_lydian",
      "bpm": 78,
      "arc": 0.003,
      "ent": 7,
      "brk": 0,
      "frameMs": 8.3
    },
    {
      "t": 17.1,
      "rD": 0.02,
      "hC": 0.1,
      "mA": 0.01,
      "tD": 0.07,
      "mode": "A_lydian",
      "bpm": 78,
      "arc": 0.004,
      "ent": 5,
      "brk": 0,
      "frameMs": 8.3
    },
    {
      "t": 18.1,
      "rD": 0.01,
      "hC": 0.09,
      "mA": 0.01,
      "tD": 0.06,
      "mode": "A_lydian",
      "bpm": 78,
      "arc": 0.004,
      "ent": 5,
      "brk": 0,
      "frameMs": 8.6
    },
    {
      "t": 19.1,
      "rD": 0,
      "hC": 0.08,
      "mA": 0,
      "tD": 0.05,
      "mode": "A_lydian",
      "bpm": 78,
      "arc": 0.004,
      "ent": 23,
      "brk": 0,
      "frameMs": 8
    },
    {
      "t": 20.1,
      "rD": 0,
      "hC": 0.07,
      "mA": 0,
      "tD": 0.04,
      "mode": "A_lydian",
      "bpm": 78,
      "arc": 0.005,
      "ent": 34,
      "brk": 0,
      "frameMs": 8.3
    },
    {
      "t": 21.1,
      "rD": 0,
      "hC": 0.06,
      "mA": 0,
      "tD": 0.03,
      "mode": "A_lydian",
      "bpm": 78,
      "arc": 0.005,
      "ent": 32,
      "brk": 0,
      "frameMs": 9.2
    },
    {
      "t": 22.1,
      "rD": 0,
      "hC": 0.06,
      "mA": 0,
      "tD": 0.02,
      "mode": "A_lydian",
      "bpm": 78,
      "arc": 0.006,
      "ent": 30,
      "brk": 0,
      "frameMs": 8.3
    },
    {
      "t": 23.1,
      "rD": 0,
      "hC": 0.05,
      "mA": 0,
      "tD": 0.02,
      "mode": "A_lydian",
      "bpm": 78,
      "arc": 0.006,
      "ent": 26,
      "brk": 0,
      "frameMs": 9
    },
    {
      "t": 24.1,
      "rD": 0,
      "hC": 0.05,
      "mA": 0,
      "tD": 0.02,
      "mode": "A_lydian",
      "bpm": 78,
      "arc": 0.006,
      "ent": 20,
      "brk": 0,
      "frameMs": 9.3
    },
    {
      "t": 25.1,
      "rD": 0,
      "hC": 0.05,
      "mA": 0,
      "tD": 0.02,
      "mode": "A_lydian",
      "bpm": 78,
      "arc": 0.007,
      "ent": 11,
      "brk": 0,
      "frameMs": 7.9
    },
    {
      "t": 26.1,
      "rD": 0,
      "hC": 0.05,
      "mA": 0,
      "tD": 0.02,
      "mode": "A_lydian",
      "bpm": 78,
      "arc": 0.007,
      "ent": 13,
      "brk": 0,
      "frameMs": 8
    },
    {
      "t": 27.1,
      "rD": 0,
      "hC": 0.06,
      "mA": 0,
      "tD": 0.03,
      "mode": "A_lydian",
      "bpm": 78,
      "arc": 0.008,
      "ent": 8,
      "brk": 0,
      "frameMs": 8.3
    },
    {
      "t": 28.1,
      "rD": 0,
      "hC": 0.06,
      "mA": 0,
      "tD": 0.03,
      "mode": "A_lydian",
      "bpm": 78,
      "arc": 0.008,
      "ent": 9,
      "brk": 0,
      "frameMs": 8.4
    },
    {
      "t": 29.1,
      "rD": 0.01,
      "hC": 0.07,
      "mA": 0.01,
      "tD": 0.04,
      "mode": "A_lydian",
      "bpm": 78,
      "arc": 0.008,
      "ent": 6,
      "brk": 0,
      "frameMs": 9.2
    },
    {
      "t": 30.2,
      "rD": 0.01,
      "hC": 0.08,
      "mA": 0.01,
      "tD": 0.05,
      "mode": "A_lydian",
      "bpm": 78,
      "arc": 0.009,
      "ent": 4,
      "brk": 0,
      "frameMs": 8.3
    },
    {
      "t": 31.2,
      "rD": 0.02,
      "hC": 0.09,
      "mA": 0.02,
      "tD": 0.07,
      "mode": "A_lydian",
      "bpm": 78,
      "arc": 0.009,
      "ent": 23,
      "brk": 0,
      "frameMs": 8.3
    },
    {
      "t": 32.2,
      "rD": 0.03,
      "hC": 0.1,
      "mA": 0.03,
      "tD": 0.08,
      "mode": "A_lydian",
      "bpm": 78,
      "arc": 0.01,
      "ent": 24,
      "brk": 0,
      "frameMs": 9.3
    },
    {
      "t": 33.2,
      "rD": 0.04,
      "hC": 0.11,
      "mA": 0.03,
      "tD": 0.08,
      "mode": "A_lydian",
      "bpm": 78,
      "arc": 0.01,
      "ent": 31,
      "brk": 0,
      "frameMs": 8.3
    },
    {
      "t": 34.2,
      "rD": 0.05,
      "hC": 0.11,
      "mA": 0.04,
      "tD": 0.09,
      "mode": "A_lydian",
      "bpm": 78,
      "arc": 0.01,
      "ent": 26,
      "brk": 0,
      "frameMs": 9.3
    },
    {
      "t": 35.2,
      "rD": 0.05,
      "hC": 0.12,
      "mA": 0.04,
      "tD": 0.1,
      "mode": "A_lydian",
      "bpm": 78,
      "arc": 0.011,
      "ent": 22,
      "brk": 0,
      "frameMs": 8.5
    },
    {
      "t": 36.2,
      "rD": 0.05,
      "hC": 0.12,
      "mA": 0.04,
      "tD": 0.1,
      "mode": "A_lydian",
      "bpm": 78,
      "arc": 0.011,
      "ent": 18,
      "brk": 0,
      "frameMs": 8.3
    },
    {
      "t": 37.2,
      "rD": 0.05,
      "hC": 0.12,
      "mA": 0.04,
      "tD": 0.1,
      "mode": "A_lydian",
      "bpm": 78,
      "arc": 0.011,
      "ent": 14,
      "brk": 0,
      "frameMs": 8.3
    },
    {
      "t": 38.2,
      "rD": 0.04,
      "hC": 0.12,
      "mA": 0.04,
      "tD": 0.09,
      "mode": "A_lydian",
      "bpm": 78,
      "arc": 0.012,
      "ent": 12,
      "brk": 0,
      "frameMs": 9.3
    },
    {
      "t": 39.2,
      "rD": 0.03,
      "hC": 0.11,
      "mA": 0.03,
      "tD": 0.09,
      "mode": "A_lydian",
      "bpm": 78,
      "arc": 0.012,
      "ent": 16,
      "brk": 0,
      "frameMs": 8.3
    },
    {
      "t": 40.2,
      "rD": 0.02,
      "hC": 0.1,
      "mA": 0.03,
      "tD": 0.08,
      "mode": "A_lydian",
      "bpm": 78,
      "arc": 0.013,
      "ent": 13,
      "brk": 0,
      "frameMs": 9.3
    },
    {
      "t": 41.2,
      "rD": 0.01,
      "hC": 0.1,
      "mA": 0.02,
      "tD": 0.07,
      "mode": "A_lydian",
      "bpm": 78,
      "arc": 0.013,
      "ent": 14,
      "brk": 0,
      "frameMs": 9.2
    },
    {
      "t": 42.2,
      "rD": 0,
      "hC": 0.09,
      "mA": 0.02,
      "tD": 0.06,
      "mode": "A_lydian",
      "bpm": 78,
      "arc": 0.013,
      "ent": 14,
      "brk": 0,
      "frameMs": 7.4
    },
    {
      "t": 43.2,
      "rD": 0,
      "hC": 0.08,
      "mA": 0.01,
      "tD": 0.05,
      "mode": "A_lydian",
      "bpm": 78,
      "arc": 0.014,
      "ent": 25,
      "brk": 0,
      "frameMs": 8.3
    },
    {
      "t": 44.2,
      "rD": 0,
      "hC": 0.07,
      "mA": 0.01,
      "tD": 0.05,
      "mode": "A_lydian",
      "bpm": 78,
      "arc": 0.014,
      "ent": 20,
      "brk": 0,
      "frameMs": 8.3
    },
    {
      "t": 45.2,
      "rD": 0,
      "hC": 0.07,
      "mA": 0.01,
      "tD": 0.04,
      "mode": "A_lydian",
      "bpm": 78,
      "arc": 0.015,
      "ent": 24,
      "brk": 0,
      "frameMs": 8.2
    },
    {
      "t": 46.2,
      "rD": 0,
      "hC": 0.06,
      "mA": 0,
      "tD": 0.03,
      "mode": "A_lydian",
      "bpm": 78,
      "arc": 0.015,
      "ent": 23,
      "brk": 0,
      "frameMs": 8.2
    },
    {
      "t": 47.2,
      "rD": 0,
      "hC": 0.06,
      "mA": 0,
      "tD": 0.03,
      "mode": "A_lydian",
      "bpm": 78,
      "arc": 0.015,
      "ent": 18,
      "brk": 0,
      "frameMs": 8.4
    },
    {
      "t": 48.2,
      "rD": 0,
      "hC": 0.06,
      "mA": 0,
      "tD": 0.03,
      "mode": "A_lydian",
      "bpm": 78,
      "arc": 0.016,
      "ent": 14,
      "brk": 0,
      "frameMs": 8.8
    },
    {
      "t": 49.2,
      "rD": 0,
      "hC": 0.06,
      "mA": 0.01,
      "tD": 0.04,
      "mode": "A_lydian",
      "bpm": 78,
      "arc": 0.016,
      "ent": 9,
      "brk": 0,
      "frameMs": 9
    },
    {
      "t": 50.2,
      "rD": 0,
      "hC": 0.07,
      "mA": 0.01,
      "tD": 0.04,
      "mode": "A_lydian",
      "bpm": 78,
      "arc": 0.017,
      "ent": 6,
      "brk": 0,
      "frameMs": 8.4
    },
    {
      "t": 51.2,
      "rD": 0,
      "hC": 0.08,
      "mA": 0.02,
      "tD": 0.05,
      "mode": "A_lydian",
      "bpm": 78,
      "arc": 0.017,
      "ent": 14,
      "brk": 0,
      "frameMs": 8.4
    },
    {
      "t": 52.2,
      "rD": 0.01,
      "hC": 0.08,
      "mA": 0.02,
      "tD": 0.06,
      "mode": "A_lydian",
      "bpm": 78,
      "arc": 0.017,
      "ent": 15,
      "brk": 0,
      "frameMs": 7.7
    },
    {
      "t": 53.2,
      "rD": 0.01,
      "hC": 0.09,
      "mA": 0.03,
      "tD": 0.07,
      "mode": "A_lydian",
      "bpm": 78,
      "arc": 0.018,
      "ent": 11,
      "brk": 0,
      "frameMs": 7.9
    },
    {
      "t": 54.2,
      "rD": 0.02,
      "hC": 0.1,
      "mA": 0.04,
      "tD": 0.08,
      "mode": "A_lydian",
      "bpm": 78,
      "arc": 0.018,
      "ent": 10,
      "brk": 0,
      "frameMs": 8.8
    },
    {
      "t": 55.2,
      "rD": 0.03,
      "hC": 0.11,
      "mA": 0.04,
      "tD": 0.09,
      "mode": "A_lydian",
      "bpm": 78,
      "arc": 0.018,
      "ent": 28,
      "brk": 0,
      "frameMs": 8.3
    },
    {
      "t": 56.2,
      "rD": 0.04,
      "hC": 0.12,
      "mA": 0.05,
      "tD": 0.1,
      "mode": "A_lydian",
      "bpm": 78,
      "arc": 0.019,
      "ent": 30,
      "brk": 0,
      "frameMs": 8.1
    },
    {
      "t": 57.3,
      "rD": 0.05,
      "hC": 0.13,
      "mA": 0.05,
      "tD": 0.11,
      "mode": "A_lydian",
      "bpm": 78,
      "arc": 0.019,
      "ent": 39,
      "brk": 0,
      "frameMs": 8.3
    },
    {
      "t": 58.3,
      "rD": 0.05,
      "hC": 0.13,
      "mA": 0.06,
      "tD": 0.11,
      "mode": "A_lydian",
      "bpm": 78,
      "arc": 0.02,
      "ent": 37,
      "brk": 0,
      "frameMs": 9.2
    },
    {
      "t": 59.3,
      "rD": 0.05,
      "hC": 0.13,
      "mA": 0.06,
      "tD": 0.11,
      "mode": "A_lydian",
      "bpm": 78,
      "arc": 0.02,
      "ent": 33,
      "brk": 0,
      "frameMs": 8.3
    },
    {
      "t": 60.3,
      "rD": 0.05,
      "hC": 0.13,
      "mA": 0.06,
      "tD": 0.11,
      "mode": "A_lydian",
      "bpm": 78,
      "arc": 0.02,
      "ent": 26,
      "brk": 0,
      "frameMs": 8.3
    },
    {
      "t": 61.3,
      "rD": 0.04,
      "hC": 0.13,
      "mA": 0.06,
      "tD": 0.11,
      "mode": "A_lydian",
      "bpm": 78,
      "arc": 0.021,
      "ent": 20,
      "brk": 0,
      "frameMs": 8.4
    },
    {
      "t": 62.3,
      "rD": 0.03,
      "hC": 0.12,
      "mA": 0.05,
      "tD": 0.1,
      "mode": "A_lydian",
      "bpm": 78,
      "arc": 0.021,
      "ent": 16,
      "brk": 0,
      "frameMs": 8.4
    },
    {
      "t": 63.3,
      "rD": 0.02,
      "hC": 0.11,
      "mA": 0.05,
      "tD": 0.09,
      "mode": "A_lydian",
      "bpm": 78,
      "arc": 0.022,
      "ent": 22,
      "brk": 0,
      "frameMs": 8.3
    },
    {
      "t": 64.3,
      "rD": 0.01,
      "hC": 0.11,
      "mA": 0.04,
      "tD": 0.09,
      "mode": "A_lydian",
      "bpm": 78,
      "arc": 0.022,
      "ent": 19,
      "brk": 0,
      "frameMs": 8.4
    },
    {
      "t": 65.3,
      "rD": 0,
      "hC": 0.1,
      "mA": 0.04,
      "tD": 0.08,
      "mode": "A_lydian",
      "bpm": 78,
      "arc": 0.022,
      "ent": 19,
      "brk": 0,
      "frameMs": 8.4
    },
    {
      "t": 66.3,
      "rD": 0,
      "hC": 0.09,
      "mA": 0.03,
      "tD": 0.07,
      "mode": "A_lydian",
      "bpm": 78,
      "arc": 0.023,
      "ent": 18,
      "brk": 0,
      "frameMs": 8.3
    },
    {
      "t": 67.3,
      "rD": 0,
      "hC": 0.08,
      "mA": 0.02,
      "tD": 0.06,
      "mode": "A_lydian",
      "bpm": 78,
      "arc": 0.023,
      "ent": 16,
      "brk": 0,
      "frameMs": 8.3
    },
    {
      "t": 68.3,
      "rD": 0,
      "hC": 0.07,
      "mA": 0.02,
      "tD": 0.05,
      "mode": "A_lydian",
      "bpm": 78,
      "arc": 0.024,
      "ent": 22,
      "brk": 0,
      "frameMs": 8.4
    },
    {
      "t": 69.3,
      "rD": 0,
      "hC": 0.07,
      "mA": 0.02,
      "tD": 0.04,
      "mode": "A_lydian",
      "bpm": 78,
      "arc": 0.024,
      "ent": 29,
      "brk": 0,
      "frameMs": 9.2
    },
    {
      "t": 70.3,
      "rD": 0,
      "hC": 0.07,
      "mA": 0.02,
      "tD": 0.04,
      "mode": "A_lydian",
      "bpm": 78,
      "arc": 0.024,
      "ent": 26,
      "brk": 0,
      "frameMs": 8.2
    },
    {
      "t": 71.3,
      "rD": 0,
      "hC": 0.07,
      "mA": 0.02,
      "tD": 0.04,
      "mode": "A_lydian",
      "bpm": 78,
      "arc": 0.025,
      "ent": 20,
      "brk": 0,
      "frameMs": 8.3
    },
    {
      "t": 72.3,
      "rD": 0,
      "hC": 0.07,
      "mA": 0.02,
      "tD": 0.05,
      "mode": "A_lydian",
      "bpm": 78,
      "arc": 0.025,
      "ent": 16,
      "brk": 0,
      "frameMs": 8.3
    },
    {
      "t": 73.3,
      "rD": 0,
      "hC": 0.08,
      "mA": 0.02,
      "tD": 0.05,
      "mode": "A_lydian",
      "bpm": 78,
      "arc": 0.025,
      "ent": 12,
      "brk": 0,
      "frameMs": 8.3
    },
    {
      "t": 74.3,
      "rD": 0,
      "hC": 0.08,
      "mA": 0.03,
      "tD": 0.06,
      "mode": "A_lydian",
      "bpm": 78,
      "arc": 0.026,
      "ent": 10,
      "brk": 0,
      "frameMs": 8.3
    },
    {
      "t": 75.3,
      "rD": 0.01,
      "hC": 0.09,
      "mA": 0.03,
      "tD": 0.07,
      "mode": "A_lydian",
      "bpm": 78,
      "arc": 0.026,
      "ent": 7,
      "brk": 0,
      "frameMs": 8.3
    },
    {
      "t": 76.3,
      "rD": 0.02,
      "hC": 0.1,
      "mA": 0.04,
      "tD": 0.08,
      "mode": "A_lydian",
      "bpm": 78,
      "arc": 0.027,
      "ent": 17,
      "brk": 0,
      "frameMs": 8.3
    },
    {
      "t": 77.3,
      "rD": 0.02,
      "hC": 0.11,
      "mA": 0.05,
      "tD": 0.09,
      "mode": "A_lydian",
      "bpm": 78,
      "arc": 0.027,
      "ent": 16,
      "brk": 0,
      "frameMs": 8.4
    },
    {
      "t": 78.3,
      "rD": 0.03,
      "hC": 0.12,
      "mA": 0.05,
      "tD": 0.1,
      "mode": "A_lydian",
      "bpm": 78,
      "arc": 0.027,
      "ent": 13,
      "brk": 0,
      "frameMs": 8.4
    },
    {
      "t": 79.3,
      "rD": 0.04,
      "hC": 0.13,
      "mA": 0.06,
      "tD": 0.11,
      "mode": "A_lydian",
      "bpm": 78,
      "arc": 0.028,
      "ent": 14,
      "brk": 0,
      "frameMs": 8.3
    },
    {
      "t": 80.3,
      "rD": 0.05,
      "hC": 0.13,
      "mA": 0.06,
      "tD": 0.12,
      "mode": "A_lydian",
      "bpm": 78,
      "arc": 0.028,
      "ent": 26,
      "brk": 0,
      "frameMs": 8.5
    },
    {
      "t": 81.3,
      "rD": 0.05,
      "hC": 0.13,
      "mA": 0.07,
      "tD": 0.12,
      "mode": "A_lydian",
      "bpm": 78,
      "arc": 0.029,
      "ent": 22,
      "brk": 0,
      "frameMs": 8.2
    },
    {
      "t": 82.3,
      "rD": 0.05,
      "hC": 0.14,
      "mA": 0.07,
      "tD": 0.12,
      "mode": "A_lydian",
      "bpm": 78,
      "arc": 0.029,
      "ent": 34,
      "brk": 0,
      "frameMs": 8.2
    },
    {
      "t": 83.3,
      "rD": 0.05,
      "hC": 0.13,
      "mA": 0.07,
      "tD": 0.12,
      "mode": "A_lydian",
      "bpm": 78,
      "arc": 0.029,
      "ent": 31,
      "brk": 0,
      "frameMs": 8.2
    },
    {
      "t": 84.4,
      "rD": 0.04,
      "hC": 0.13,
      "mA": 0.06,
      "tD": 0.12,
      "mode": "A_lydian",
      "bpm": 78,
      "arc": 0.03,
      "ent": 31,
      "brk": 0,
      "frameMs": 8.3
    },
    {
      "t": 85.4,
      "rD": 0.03,
      "hC": 0.13,
      "mA": 0.06,
      "tD": 0.11,
      "mode": "A_lydian",
      "bpm": 78,
      "arc": 0.03,
      "ent": 30,
      "brk": 0,
      "frameMs": 8.3
    },
    {
      "t": 86.4,
      "rD": 0.02,
      "hC": 0.12,
      "mA": 0.06,
      "tD": 0.1,
      "mode": "A_lydian",
      "bpm": 78,
      "arc": 0.031,
      "ent": 23,
      "brk": 0,
      "frameMs": 8.2
    },
    {
      "t": 87.4,
      "rD": 0.01,
      "hC": 0.11,
      "mA": 0.05,
      "tD": 0.09,
      "mode": "A_lydian",
      "bpm": 78,
      "arc": 0.031,
      "ent": 23,
      "brk": 0,
      "frameMs": 8.4
    },
    {
      "t": 88.4,
      "rD": 0,
      "hC": 0.1,
      "mA": 0.05,
      "tD": 0.08,
      "mode": "A_lydian",
      "bpm": 78,
      "arc": 0.031,
      "ent": 23,
      "brk": 0,
      "frameMs": 8.3
    },
    {
      "t": 89.4,
      "rD": 0,
      "hC": 0.09,
      "mA": 0.04,
      "tD": 0.07,
      "mode": "A_lydian",
      "bpm": 78,
      "arc": 0.032,
      "ent": 23,
      "brk": 0,
      "frameMs": 8.4
    },
    {
      "t": 90.4,
      "rD": 0,
      "hC": 0.09,
      "mA": 0.03,
      "tD": 0.07,
      "mode": "A_lydian",
      "bpm": 78,
      "arc": 0.032,
      "ent": 22,
      "brk": 0,
      "frameMs": 8.3
    },
    {
      "t": 91.4,
      "rD": 0,
      "hC": 0.08,
      "mA": 0.03,
      "tD": 0.06,
      "mode": "A_lydian",
      "bpm": 78,
      "arc": 0.032,
      "ent": 22,
      "brk": 0,
      "frameMs": 8.7
    },
    {
      "t": 92.4,
      "rD": 0,
      "hC": 0.08,
      "mA": 0.03,
      "tD": 0.06,
      "mode": "A_lydian",
      "bpm": 78,
      "arc": 0.033,
      "ent": 43,
      "brk": 0,
      "frameMs": 8.9
    },
    {
      "t": 93.4,
      "rD": 0,
      "hC": 0.08,
      "mA": 0.03,
      "tD": 0.05,
      "mode": "A_lydian",
      "bpm": 78,
      "arc": 0.033,
      "ent": 37,
      "brk": 0,
      "frameMs": 9.3
    },
    {
      "t": 94.4,
      "rD": 0,
      "hC": 0.08,
      "mA": 0.03,
      "tD": 0.06,
      "mode": "A_lydian",
      "bpm": 78,
      "arc": 0.034,
      "ent": 35,
      "brk": 0,
      "frameMs": 8.3
    },
    {
      "t": 95.4,
      "rD": 0,
      "hC": 0.08,
      "mA": 0.03,
      "tD": 0.06,
      "mode": "A_lydian",
      "bpm": 78,
      "arc": 0.034,
      "ent": 28,
      "brk": 0,
      "frameMs": 9.3
    },
    {
      "t": 96.4,
      "rD": 0,
      "hC": 0.09,
      "mA": 0.04,
      "tD": 0.07,
      "mode": "A_lydian",
      "bpm": 78,
      "arc": 0.034,
      "ent": 23,
      "brk": 0,
      "frameMs": 9
    },
    {
      "t": 97.4,
      "rD": 0,
      "hC": 0.09,
      "mA": 0.04,
      "tD": 0.08,
      "mode": "A_lydian",
      "bpm": 78,
      "arc": 0.035,
      "ent": 19,
      "brk": 0,
      "frameMs": 8.3
    },
    {
      "t": 98.4,
      "rD": 0.01,
      "hC": 0.1,
      "mA": 0.05,
      "tD": 0.09,
      "mode": "A_lydian",
      "bpm": 78,
      "arc": 0.035,
      "ent": 11,
      "brk": 0,
      "frameMs": 8.2
    },
    {
      "t": 99.4,
      "rD": 0.02,
      "hC": 0.11,
      "mA": 0.06,
      "tD": 0.1,
      "mode": "A_lydian",
      "bpm": 78,
      "arc": 0.036,
      "ent": 13,
      "brk": 0,
      "frameMs": 8.4
    },
    {
      "t": 100.4,
      "rD": 0.03,
      "hC": 0.12,
      "mA": 0.06,
      "tD": 0.11,
      "mode": "A_lydian",
      "bpm": 78,
      "arc": 0.036,
      "ent": 18,
      "brk": 0,
      "frameMs": 7.3
    },
    {
      "t": 101.4,
      "rD": 0.03,
      "hC": 0.13,
      "mA": 0.07,
      "tD": 0.12,
      "mode": "A_lydian",
      "bpm": 78,
      "arc": 0.036,
      "ent": 17,
      "brk": 0,
      "frameMs": 8.3
    },
    {
      "t": 102.4,
      "rD": 0.04,
      "hC": 0.14,
      "mA": 0.08,
      "tD": 0.13,
      "mode": "A_lydian",
      "bpm": 78,
      "arc": 0.037,
      "ent": 17,
      "brk": 0,
      "frameMs": 8.3
    },
    {
      "t": 103.4,
      "rD": 0.05,
      "hC": 0.15,
      "mA": 0.08,
      "tD": 0.14,
      "mode": "A_lydian",
      "bpm": 78,
      "arc": 0.037,
      "ent": 16,
      "brk": 0,
      "frameMs": 8.4
    },
    {
      "t": 104.4,
      "rD": 0.05,
      "hC": 0.15,
      "mA": 0.09,
      "tD": 0.14,
      "mode": "A_lydian",
      "bpm": 78,
      "arc": 0.038,
      "ent": 13,
      "brk": 0,
      "frameMs": 8
    },
    {
      "t": 105.4,
      "rD": 0.05,
      "hC": 0.15,
      "mA": 0.09,
      "tD": 0.14,
      "mode": "A_lydian",
      "bpm": 78,
      "arc": 0.038,
      "ent": 26,
      "brk": 0,
      "frameMs": 8.3
    },
    {
      "t": 106.4,
      "rD": 0.05,
      "hC": 0.15,
      "mA": 0.09,
      "tD": 0.14,
      "mode": "A_lydian",
      "bpm": 78,
      "arc": 0.038,
      "ent": 36,
      "brk": 0,
      "frameMs": 8.1
    },
    {
      "t": 107.4,
      "rD": 0.04,
      "hC": 0.15,
      "mA": 0.08,
      "tD": 0.14,
      "mode": "A_lydian",
      "bpm": 78,
      "arc": 0.039,
      "ent": 34,
      "brk": 0,
      "frameMs": 9.4
    },
    {
      "t": 108.4,
      "rD": 0.03,
      "hC": 0.14,
      "mA": 0.08,
      "tD": 0.13,
      "mode": "A_lydian",
      "bpm": 78,
      "arc": 0.039,
      "ent": 28,
      "brk": 0,
      "frameMs": 7.8
    },
    {
      "t": 109.4,
      "rD": 0.02,
      "hC": 0.13,
      "mA": 0.08,
      "tD": 0.12,
      "mode": "A_lydian",
      "bpm": 78,
      "arc": 0.039,
      "ent": 23,
      "brk": 0,
      "frameMs": 8.7
    },
    {
      "t": 110.4,
      "rD": 0.01,
      "hC": 0.13,
      "mA": 0.07,
      "tD": 0.11,
      "mode": "A_lydian",
      "bpm": 78,
      "arc": 0.04,
      "ent": 17,
      "brk": 0,
      "frameMs": 7.3
    },
    {
      "t": 111.5,
      "rD": 0,
      "hC": 0.12,
      "mA": 0.07,
      "tD": 0.1,
      "mode": "A_lydian",
      "bpm": 78,
      "arc": 0.04,
      "ent": 13,
      "brk": 0,
      "frameMs": 8.3
    },
    {
      "t": 112.5,
      "rD": 0,
      "hC": 0.11,
      "mA": 0.06,
      "tD": 0.09,
      "mode": "A_lydian",
      "bpm": 78,
      "arc": 0.041,
      "ent": 19,
      "brk": 0,
      "frameMs": 8.3
    },
    {
      "t": 113.5,
      "rD": 0,
      "hC": 0.1,
      "mA": 0.06,
      "tD": 0.09,
      "mode": "A_lydian",
      "bpm": 78,
      "arc": 0.041,
      "ent": 20,
      "brk": 0,
      "frameMs": 8.9
    },
    {
      "t": 114.5,
      "rD": 0,
      "hC": 0.1,
      "mA": 0.05,
      "tD": 0.08,
      "mode": "A_lydian",
      "bpm": 78,
      "arc": 0.041,
      "ent": 18,
      "brk": 0,
      "frameMs": 9.3
    },
    {
      "t": 115.5,
      "rD": 0,
      "hC": 0.09,
      "mA": 0.05,
      "tD": 0.08,
      "mode": "A_lydian",
      "bpm": 78,
      "arc": 0.042,
      "ent": 18,
      "brk": 0,
      "frameMs": 8.3
    },
    {
      "t": 116.5,
      "rD": 0,
      "hC": 0.09,
      "mA": 0.05,
      "tD": 0.08,
      "mode": "A_lydian",
      "bpm": 78,
      "arc": 0.042,
      "ent": 17,
      "brk": 0,
      "frameMs": 8.3
    },
    {
      "t": 117.5,
      "rD": 0,
      "hC": 0.09,
      "mA": 0.05,
      "tD": 0.08,
      "mode": "A_lydian",
      "bpm": 78,
      "arc": 0.043,
      "ent": 30,
      "brk": 0,
      "frameMs": 8.3
    },
    {
      "t": 118.5,
      "rD": 0,
      "hC": 0.1,
      "mA": 0.05,
      "tD": 0.08,
      "mode": "A_lydian",
      "bpm": 78,
      "arc": 0.043,
      "ent": 35,
      "brk": 0,
      "frameMs": 8.2
    },
    {
      "t": 119.5,
      "rD": 0,
      "hC": 0.1,
      "mA": 0.06,
      "tD": 0.09,
      "mode": "A_lydian",
      "bpm": 78,
      "arc": 0.043,
      "ent": 35,
      "brk": 0,
      "frameMs": 8.4
    },
    {
      "t": 120.5,
      "rD": 0,
      "hC": 0.11,
      "mA": 0.06,
      "tD": 0.1,
      "mode": "A_lydian",
      "bpm": 78,
      "arc": 0.044,
      "ent": 28,
      "brk": 0,
      "frameMs": 9.4
    },
    {
      "t": 121.5,
      "rD": 0.01,
      "hC": 0.12,
      "mA": 0.07,
      "tD": 0.11,
      "mode": "A_lydian",
      "bpm": 78,
      "arc": 0.044,
      "ent": 23,
      "brk": 0,
      "frameMs": 8.1
    },
    {
      "t": 122.5,
      "rD": 0.02,
      "hC": 0.13,
      "mA": 0.08,
      "tD": 0.12,
      "mode": "A_lydian",
      "bpm": 78,
      "arc": 0.045,
      "ent": 18,
      "brk": 0,
      "frameMs": 8.4
    },
    {
      "t": 123.5,
      "rD": 0.03,
      "hC": 0.14,
      "mA": 0.08,
      "tD": 0.13,
      "mode": "A_lydian",
      "bpm": 78,
      "arc": 0.045,
      "ent": 14,
      "brk": 0,
      "frameMs": 9.1
    },
    {
      "t": 124.5,
      "rD": 0.04,
      "hC": 0.15,
      "mA": 0.09,
      "tD": 0.14,
      "mode": "A_lydian",
      "bpm": 78,
      "arc": 0.045,
      "ent": 10,
      "brk": 0,
      "frameMs": 8.3
    },
    {
      "t": 125.5,
      "rD": 0.04,
      "hC": 0.15,
      "mA": 0.1,
      "tD": 0.15,
      "mode": "A_lydian",
      "bpm": 78,
      "arc": 0.046,
      "ent": 13,
      "brk": 0,
      "frameMs": 8.5
    },
    {
      "t": 126.5,
      "rD": 0.05,
      "hC": 0.16,
      "mA": 0.1,
      "tD": 0.15,
      "mode": "A_lydian",
      "bpm": 78,
      "arc": 0.046,
      "ent": 17,
      "brk": 0,
      "frameMs": 7.9
    },
    {
      "t": 127.5,
      "rD": 0.05,
      "hC": 0.16,
      "mA": 0.1,
      "tD": 0.16,
      "mode": "A_lydian",
      "bpm": 78,
      "arc": 0.046,
      "ent": 17,
      "brk": 0,
      "frameMs": 8.1
    },
    {
      "t": 128.5,
      "rD": 0.05,
      "hC": 0.16,
      "mA": 0.1,
      "tD": 0.16,
      "mode": "A_lydian",
      "bpm": 78,
      "arc": 0.047,
      "ent": 15,
      "brk": 0,
      "frameMs": 8.3
    },
    {
      "t": 129.5,
      "rD": 0.05,
      "hC": 0.16,
      "mA": 0.1,
      "tD": 0.15,
      "mode": "A_lydian",
      "bpm": 78,
      "arc": 0.047,
      "ent": 41,
      "brk": 0,
      "frameMs": 8.3
    },
    {
      "t": 130.5,
      "rD": 0.04,
      "hC": 0.16,
      "mA": 0.1,
      "tD": 0.15,
      "mode": "A_lydian",
      "bpm": 78,
      "arc": 0.048,
      "ent": 37,
      "brk": 0,
      "frameMs": 7.4
    },
    {
      "t": 131.5,
      "rD": 0.03,
      "hC": 0.15,
      "mA": 0.09,
      "tD": 0.14,
      "mode": "A_lydian",
      "bpm": 78,
      "arc": 0.048,
      "ent": 39,
      "brk": 0,
      "frameMs": 8.3
    },
    {
      "t": 132.5,
      "rD": 0.02,
      "hC": 0.14,
      "mA": 0.09,
      "tD": 0.13,
      "mode": "A_lydian",
      "bpm": 78,
      "arc": 0.048,
      "ent": 36,
      "brk": 0,
      "frameMs": 9.3
    },
    {
      "t": 133.6,
      "rD": 0.01,
      "hC": 0.13,
      "mA": 0.08,
      "tD": 0.12,
      "mode": "A_lydian",
      "bpm": 78,
      "arc": 0.049,
      "ent": 33,
      "brk": 0,
      "frameMs": 8.3
    },
    {
      "t": 134.6,
      "rD": 0,
      "hC": 0.12,
      "mA": 0.08,
      "tD": 0.11,
      "mode": "A_lydian",
      "bpm": 78,
      "arc": 0.049,
      "ent": 26,
      "brk": 0,
      "frameMs": 9.3
    },
    {
      "t": 135.6,
      "rD": 0,
      "hC": 0.12,
      "mA": 0.07,
      "tD": 0.1,
      "mode": "A_lydian",
      "bpm": 78,
      "arc": 0.05,
      "ent": 18,
      "brk": 0,
      "frameMs": 8.3
    },
    {
      "t": 136.6,
      "rD": 0,
      "hC": 0.11,
      "mA": 0.06,
      "tD": 0.1,
      "mode": "A_lydian",
      "bpm": 78,
      "arc": 0.05,
      "ent": 12,
      "brk": 0,
      "frameMs": 8.2
    },
    {
      "t": 137.6,
      "rD": 0,
      "hC": 0.1,
      "mA": 0.06,
      "tD": 0.09,
      "mode": "A_lydian",
      "bpm": 78,
      "arc": 0.05,
      "ent": 22,
      "brk": 0,
      "frameMs": 8.5
    },
    {
      "t": 138.6,
      "rD": 0,
      "hC": 0.1,
      "mA": 0.06,
      "tD": 0.08,
      "mode": "A_lydian",
      "bpm": 78,
      "arc": 0.051,
      "ent": 23,
      "brk": 0,
      "frameMs": 9
    },
    {
      "t": 139.6,
      "rD": 0,
      "hC": 0.1,
      "mA": 0.06,
      "tD": 0.08,
      "mode": "A_lydian",
      "bpm": 78,
      "arc": 0.051,
      "ent": 22,
      "brk": 0,
      "frameMs": 8.3
    },
    {
      "t": 140.6,
      "rD": 0,
      "hC": 0.1,
      "mA": 0.06,
      "tD": 0.09,
      "mode": "A_lydian",
      "bpm": 78,
      "arc": 0.052,
      "ent": 18,
      "brk": 0,
      "frameMs": 8.3
    },
    {
      "t": 141.6,
      "rD": 0,
      "hC": 0.1,
      "mA": 0.06,
      "tD": 0.09,
      "mode": "A_lydian",
      "bpm": 78,
      "arc": 0.052,
      "ent": 28,
      "brk": 0,
      "frameMs": 8.8
    },
    {
      "t": 142.6,
      "rD": 0,
      "hC": 0.11,
      "mA": 0.07,
      "tD": 0.1,
      "mode": "A_lydian",
      "bpm": 78,
      "arc": 0.052,
      "ent": 28,
      "brk": 0,
      "frameMs": 9.4
    },
    {
      "t": 143.6,
      "rD": 0,
      "hC": 0.12,
      "mA": 0.07,
      "tD": 0.1,
      "mode": "A_lydian",
      "bpm": 78,
      "arc": 0.053,
      "ent": 40,
      "brk": 0,
      "frameMs": 9.1
    },
    {
      "t": 144.6,
      "rD": 0.01,
      "hC": 0.13,
      "mA": 0.08,
      "tD": 0.12,
      "mode": "A_lydian",
      "bpm": 78,
      "arc": 0.053,
      "ent": 36,
      "brk": 0,
      "frameMs": 8.3
    },
    {
      "t": 145.6,
      "rD": 0.02,
      "hC": 0.14,
      "mA": 0.09,
      "tD": 0.13,
      "mode": "A_lydian",
      "bpm": 78,
      "arc": 0.053,
      "ent": 32,
      "brk": 0,
      "frameMs": 8.3
    },
    {
      "t": 146.6,
      "rD": 0.03,
      "hC": 0.15,
      "mA": 0.09,
      "tD": 0.14,
      "mode": "A_lydian",
      "bpm": 78,
      "arc": 0.054,
      "ent": 25,
      "brk": 0,
      "frameMs": 8.5
    },
    {
      "t": 147.6,
      "rD": 0.04,
      "hC": 0.16,
      "mA": 0.1,
      "tD": 0.15,
      "mode": "A_lydian",
      "bpm": 78,
      "arc": 0.054,
      "ent": 17,
      "brk": 0,
      "frameMs": 8.3
    },
    {
      "t": 148.6,
      "rD": 0.04,
      "hC": 0.16,
      "mA": 0.11,
      "tD": 0.15,
      "mode": "A_lydian",
      "bpm": 78,
      "arc": 0.055,
      "ent": 14,
      "brk": 0,
      "frameMs": 8.8
    },
    {
      "t": 149.6,
      "rD": 0.05,
      "hC": 0.17,
      "mA": 0.11,
      "tD": 0.16,
      "mode": "A_lydian",
      "bpm": 78,
      "arc": 0.055,
      "ent": 14,
      "brk": 0,
      "frameMs": 8.3
    },
    {
      "t": 150.7,
      "rD": 0.05,
      "hC": 0.17,
      "mA": 0.11,
      "tD": 0.16,
      "mode": "A_lydian",
      "bpm": 78,
      "arc": 0.055,
      "ent": 13,
      "brk": 0,
      "frameMs": 8.4
    },
    {
      "t": 151.7,
      "rD": 0.05,
      "hC": 0.17,
      "mA": 0.11,
      "tD": 0.16,
      "mode": "A_lydian",
      "bpm": 78,
      "arc": 0.056,
      "ent": 11,
      "brk": 0,
      "frameMs": 7.6
    },
    {
      "t": 152.7,
      "rD": 0.05,
      "hC": 0.17,
      "mA": 0.11,
      "tD": 0.16,
      "mode": "A_lydian",
      "bpm": 78,
      "arc": 0.056,
      "ent": 10,
      "brk": 0,
      "frameMs": 8.3
    },
    {
      "t": 153.7,
      "rD": 0.04,
      "hC": 0.17,
      "mA": 0.11,
      "tD": 0.16,
      "mode": "A_lydian",
      "bpm": 78,
      "arc": 0.057,
      "ent": 10,
      "brk": 0,
      "frameMs": 9.2
    },
    {
      "t": 154.7,
      "rD": 0.03,
      "hC": 0.16,
      "mA": 0.11,
      "tD": 0.15,
      "mode": "A_lydian",
      "bpm": 78,
      "arc": 0.057,
      "ent": 34,
      "brk": 0,
      "frameMs": 8.4
    },
    {
      "t": 155.7,
      "rD": 0.02,
      "hC": 0.16,
      "mA": 0.1,
      "tD": 0.14,
      "mode": "A_lydian",
      "bpm": 78,
      "arc": 0.057,
      "ent": 36,
      "brk": 0,
      "frameMs": 9.3
    },
    {
      "t": 156.7,
      "rD": 0,
      "hC": 0.15,
      "mA": 0.1,
      "tD": 0.13,
      "mode": "A_lydian",
      "bpm": 78,
      "arc": 0.058,
      "ent": 30,
      "brk": 0,
      "frameMs": 8.3
    },
    {
      "t": 157.7,
      "rD": 0,
      "hC": 0.14,
      "mA": 0.09,
      "tD": 0.12,
      "mode": "A_lydian",
      "bpm": 78,
      "arc": 0.058,
      "ent": 26,
      "brk": 0,
      "frameMs": 8.3
    },
    {
      "t": 158.7,
      "rD": 0,
      "hC": 0.13,
      "mA": 0.09,
      "tD": 0.11,
      "mode": "A_lydian",
      "bpm": 78,
      "arc": 0.059,
      "ent": 22,
      "brk": 0,
      "frameMs": 7.4
    },
    {
      "t": 159.7,
      "rD": 0,
      "hC": 0.13,
      "mA": 0.08,
      "tD": 0.11,
      "mode": "A_lydian",
      "bpm": 78,
      "arc": 0.059,
      "ent": 19,
      "brk": 0,
      "frameMs": 7.5
    },
    {
      "t": 160.7,
      "rD": 0,
      "hC": 0.12,
      "mA": 0.08,
      "tD": 0.1,
      "mode": "A_lydian",
      "bpm": 78,
      "arc": 0.059,
      "ent": 9,
      "brk": 0,
      "frameMs": 7.4
    },
    {
      "t": 161.7,
      "rD": 0,
      "hC": 0.12,
      "mA": 0.08,
      "tD": 0.1,
      "mode": "A_lydian",
      "bpm": 78,
      "arc": 0.06,
      "ent": 12,
      "brk": 0,
      "frameMs": 8.3
    },
    {
      "t": 162.7,
      "rD": 0,
      "hC": 0.12,
      "mA": 0.08,
      "tD": 0.1,
      "mode": "A_lydian",
      "bpm": 78,
      "arc": 0.06,
      "ent": 14,
      "brk": 0,
      "frameMs": 8.3
    },
    {
      "t": 163.7,
      "rD": 0,
      "hC": 0.12,
      "mA": 0.08,
      "tD": 0.1,
      "mode": "A_lydian",
      "bpm": 78,
      "arc": 0.06,
      "ent": 12,
      "brk": 0,
      "frameMs": 9.2
    },
    {
      "t": 164.7,
      "rD": 0,
      "hC": 0.13,
      "mA": 0.08,
      "tD": 0.1,
      "mode": "A_lydian",
      "bpm": 78,
      "arc": 0.061,
      "ent": 10,
      "brk": 0,
      "frameMs": 8.5
    },
    {
      "t": 165.7,
      "rD": 0,
      "hC": 0.14,
      "mA": 0.09,
      "tD": 0.11,
      "mode": "A_lydian",
      "bpm": 78,
      "arc": 0.061,
      "ent": 10,
      "brk": 0,
      "frameMs": 8.3
    },
    {
      "t": 166.7,
      "rD": 0,
      "hC": 0.15,
      "mA": 0.09,
      "tD": 0.12,
      "mode": "A_lydian",
      "bpm": 78,
      "arc": 0.062,
      "ent": 33,
      "brk": 0,
      "frameMs": 9.1
    },
    {
      "t": 167.7,
      "rD": 0.01,
      "hC": 0.15,
      "mA": 0.1,
      "tD": 0.13,
      "mode": "A_lydian",
      "bpm": 78,
      "arc": 0.062,
      "ent": 57,
      "brk": 0,
      "frameMs": 8.2
    },
    {
      "t": 168.7,
      "rD": 0.02,
      "hC": 0.17,
      "mA": 0.11,
      "tD": 0.14,
      "mode": "A_lydian",
      "bpm": 78,
      "arc": 0.062,
      "ent": 55,
      "brk": 0,
      "frameMs": 8.4
    },
    {
      "t": 169.7,
      "rD": 0.03,
      "hC": 0.18,
      "mA": 0.12,
      "tD": 0.15,
      "mode": "A_lydian",
      "bpm": 78,
      "arc": 0.063,
      "ent": 52,
      "brk": 0,
      "frameMs": 9
    },
    {
      "t": 170.7,
      "rD": 0.04,
      "hC": 0.18,
      "mA": 0.12,
      "tD": 0.16,
      "mode": "A_lydian",
      "bpm": 78,
      "arc": 0.063,
      "ent": 47,
      "brk": 0,
      "frameMs": 8.1
    },
    {
      "t": 171.7,
      "rD": 0.04,
      "hC": 0.19,
      "mA": 0.13,
      "tD": 0.17,
      "mode": "A_lydian",
      "bpm": 78,
      "arc": 0.064,
      "ent": 38,
      "brk": 0,
      "frameMs": 9.2
    },
    {
      "t": 172.7,
      "rD": 0.05,
      "hC": 0.2,
      "mA": 0.13,
      "tD": 0.18,
      "mode": "A_lydian",
      "bpm": 78,
      "arc": 0.064,
      "ent": 29,
      "brk": 0,
      "frameMs": 8.4
    },
    {
      "t": 173.7,
      "rD": 0.05,
      "hC": 0.2,
      "mA": 0.13,
      "tD": 0.18,
      "mode": "A_lydian",
      "bpm": 78,
      "arc": 0.064,
      "ent": 25,
      "brk": 0,
      "frameMs": 9
    },
    {
      "t": 174.7,
      "rD": 0.05,
      "hC": 0.2,
      "mA": 0.13,
      "tD": 0.18,
      "mode": "A_lydian",
      "bpm": 78,
      "arc": 0.065,
      "ent": 25,
      "brk": 0,
      "frameMs": 9.2
    },
    {
      "t": 175.7,
      "rD": 0.05,
      "hC": 0.2,
      "mA": 0.13,
      "tD": 0.18,
      "mode": "A_lydian",
      "bpm": 78,
      "arc": 0.065,
      "ent": 18,
      "brk": 0,
      "frameMs": 7.4
    },
    {
      "t": 176.8,
      "rD": 0.04,
      "hC": 0.2,
      "mA": 0.13,
      "tD": 0.17,
      "mode": "A_lydian",
      "bpm": 78,
      "arc": 0.066,
      "ent": 16,
      "brk": 0,
      "frameMs": 9
    },
    {
      "t": 177.8,
      "rD": 0.03,
      "hC": 0.19,
      "mA": 0.13,
      "tD": 0.17,
      "mode": "A_lydian",
      "bpm": 78,
      "arc": 0.066,
      "ent": 16,
      "brk": 0,
      "frameMs": 8.3
    },
    {
      "t": 178.8,
      "rD": 0.02,
      "hC": 0.18,
      "mA": 0.12,
      "tD": 0.16,
      "mode": "A_lydian",
      "bpm": 78,
      "arc": 0.066,
      "ent": 31,
      "brk": 0,
      "frameMs": 8.6
    },
    {
      "t": 179.8,
      "rD": 0,
      "hC": 0.18,
      "mA": 0.12,
      "tD": 0.15,
      "mode": "A_lydian",
      "bpm": 78,
      "arc": 0.067,
      "ent": 29,
      "brk": 0,
      "frameMs": 8.3
    },
    {
      "t": 180.8,
      "rD": 0,
      "hC": 0.17,
      "mA": 0.11,
      "tD": 0.14,
      "mode": "A_lydian",
      "bpm": 78,
      "arc": 0.067,
      "ent": 32,
      "brk": 0,
      "frameMs": 8.4
    },
    {
      "t": 181.8,
      "rD": 0,
      "hC": 0.16,
      "mA": 0.1,
      "tD": 0.13,
      "mode": "A_lydian",
      "bpm": 78,
      "arc": 0.067,
      "ent": 30,
      "brk": 0,
      "frameMs": 8.3
    },
    {
      "t": 182.8,
      "rD": 0,
      "hC": 0.15,
      "mA": 0.1,
      "tD": 0.12,
      "mode": "A_lydian",
      "bpm": 78,
      "arc": 0.068,
      "ent": 22,
      "brk": 0,
      "frameMs": 8.3
    },
    {
      "t": 183.8,
      "rD": 0,
      "hC": 0.15,
      "mA": 0.1,
      "tD": 0.12,
      "mode": "A_lydian",
      "bpm": 78,
      "arc": 0.068,
      "ent": 18,
      "brk": 0,
      "frameMs": 8.5
    },
    {
      "t": 184.8,
      "rD": 0,
      "hC": 0.15,
      "mA": 0.09,
      "tD": 0.11,
      "mode": "A_lydian",
      "bpm": 78,
      "arc": 0.069,
      "ent": 15,
      "brk": 0,
      "frameMs": 8.8
    },
    {
      "t": 185.8,
      "rD": 0,
      "hC": 0.14,
      "mA": 0.09,
      "tD": 0.11,
      "mode": "A_lydian",
      "bpm": 78,
      "arc": 0.069,
      "ent": 10,
      "brk": 0,
      "frameMs": 8.4
    },
    {
      "t": 186.8,
      "rD": 0,
      "hC": 0.15,
      "mA": 0.1,
      "tD": 0.11,
      "mode": "A_lydian",
      "bpm": 78,
      "arc": 0.069,
      "ent": 18,
      "brk": 0,
      "frameMs": 8.3
    },
    {
      "t": 187.8,
      "rD": 0,
      "hC": 0.15,
      "mA": 0.1,
      "tD": 0.12,
      "mode": "A_lydian",
      "bpm": 78,
      "arc": 0.07,
      "ent": 17,
      "brk": 0,
      "frameMs": 8.3
    },
    {
      "t": 188.8,
      "rD": 0,
      "hC": 0.16,
      "mA": 0.1,
      "tD": 0.12,
      "mode": "A_lydian",
      "bpm": 78,
      "arc": 0.07,
      "ent": 17,
      "brk": 0,
      "frameMs": 8.3
    },
    {
      "t": 189.8,
      "rD": 0,
      "hC": 0.16,
      "mA": 0.11,
      "tD": 0.13,
      "mode": "A_lydian",
      "bpm": 78,
      "arc": 0.071,
      "ent": 20,
      "brk": 0,
      "frameMs": 8.1
    },
    {
      "t": 190.8,
      "rD": 0.01,
      "hC": 0.17,
      "mA": 0.12,
      "tD": 0.14,
      "mode": "A_lydian",
      "bpm": 78,
      "arc": 0.071,
      "ent": 52,
      "brk": 0,
      "frameMs": 8.4
    },
    {
      "t": 191.8,
      "rD": 0.02,
      "hC": 0.18,
      "mA": 0.12,
      "tD": 0.15,
      "mode": "A_lydian",
      "bpm": 78,
      "arc": 0.071,
      "ent": 49,
      "brk": 0,
      "frameMs": 9.1
    },
    {
      "t": 192.8,
      "rD": 0.03,
      "hC": 0.19,
      "mA": 0.13,
      "tD": 0.16,
      "mode": "A_lydian",
      "bpm": 78,
      "arc": 0.072,
      "ent": 51,
      "brk": 0,
      "frameMs": 8.8
    },
    {
      "t": 193.8,
      "rD": 0.04,
      "hC": 0.2,
      "mA": 0.13,
      "tD": 0.17,
      "mode": "A_lydian",
      "bpm": 78,
      "arc": 0.072,
      "ent": 49,
      "brk": 0,
      "frameMs": 8.3
    },
    {
      "t": 194.8,
      "rD": 0.05,
      "hC": 0.21,
      "mA": 0.14,
      "tD": 0.18,
      "mode": "A_lydian",
      "bpm": 78,
      "arc": 0.073,
      "ent": 41,
      "brk": 0,
      "frameMs": 8.7
    },
    {
      "t": 195.8,
      "rD": 0.05,
      "hC": 0.21,
      "mA": 0.14,
      "tD": 0.19,
      "mode": "A_lydian",
      "bpm": 78,
      "arc": 0.073,
      "ent": 36,
      "brk": 0,
      "frameMs": 8.3
    },
    {
      "t": 196.8,
      "rD": 0.05,
      "hC": 0.21,
      "mA": 0.14,
      "tD": 0.19,
      "mode": "A_lydian",
      "bpm": 78,
      "arc": 0.073,
      "ent": 31,
      "brk": 0,
      "frameMs": 8.4
    },
    {
      "t": 197.8,
      "rD": 0.05,
      "hC": 0.21,
      "mA": 0.14,
      "tD": 0.19,
      "mode": "A_lydian",
      "bpm": 78,
      "arc": 0.074,
      "ent": 18,
      "brk": 0,
      "frameMs": 8.3
    },
    {
      "t": 198.8,
      "rD": 0.05,
      "hC": 0.21,
      "mA": 0.14,
      "tD": 0.18,
      "mode": "A_lydian",
      "bpm": 78,
      "arc": 0.074,
      "ent": 18,
      "brk": 0,
      "frameMs": 9.3
    },
    {
      "t": 199.8,
      "rD": 0.04,
      "hC": 0.21,
      "mA": 0.14,
      "tD": 0.18,
      "mode": "A_lydian",
      "bpm": 78,
      "arc": 0.074,
      "ent": 17,
      "brk": 0,
      "frameMs": 8.3
    },
    {
      "t": 200.8,
      "rD": 0.03,
      "hC": 0.2,
      "mA": 0.13,
      "tD": 0.17,
      "mode": "A_lydian",
      "bpm": 78,
      "arc": 0.075,
      "ent": 14,
      "brk": 0,
      "frameMs": 8.9
    },
    {
      "t": 201.8,
      "rD": 0.02,
      "hC": 0.19,
      "mA": 0.13,
      "tD": 0.16,
      "mode": "A_lydian",
      "bpm": 78,
      "arc": 0.075,
      "ent": 13,
      "brk": 0,
      "frameMs": 8.4
    },
    {
      "t": 202.9,
      "rD": 0.01,
      "hC": 0.18,
      "mA": 0.12,
      "tD": 0.15,
      "mode": "A_lydian",
      "bpm": 78,
      "arc": 0.076,
      "ent": 14,
      "brk": 0,
      "frameMs": 9.4
    },
    {
      "t": 203.9,
      "rD": 0,
      "hC": 0.17,
      "mA": 0.12,
      "tD": 0.14,
      "mode": "A_lydian",
      "bpm": 78,
      "arc": 0.076,
      "ent": 41,
      "brk": 0,
      "frameMs": 8.5
    },
    {
      "t": 204.9,
      "rD": 0,
      "hC": 0.17,
      "mA": 0.11,
      "tD": 0.13,
      "mode": "A_lydian",
      "bpm": 78,
      "arc": 0.076,
      "ent": 52,
      "brk": 0,
      "frameMs": 9.4
    },
    {
      "t": 205.9,
      "rD": 0,
      "hC": 0.16,
      "mA": 0.11,
      "tD": 0.13,
      "mode": "A_lydian",
      "bpm": 78,
      "arc": 0.077,
      "ent": 47,
      "brk": 0,
      "frameMs": 8.2
    },
    {
      "t": 206.9,
      "rD": 0,
      "hC": 0.16,
      "mA": 0.1,
      "tD": 0.12,
      "mode": "A_lydian",
      "bpm": 78,
      "arc": 0.077,
      "ent": 41,
      "brk": 0,
      "frameMs": 7.4
    },
    {
      "t": 207.9,
      "rD": 0,
      "hC": 0.15,
      "mA": 0.1,
      "tD": 0.12,
      "mode": "A_lydian",
      "bpm": 78,
      "arc": 0.078,
      "ent": 34,
      "brk": 0,
      "frameMs": 8.3
    },
    {
      "t": 208.9,
      "rD": 0,
      "hC": 0.15,
      "mA": 0.1,
      "tD": 0.12,
      "mode": "A_lydian",
      "bpm": 78,
      "arc": 0.078,
      "ent": 24,
      "brk": 0,
      "frameMs": 8.3
    },
    {
      "t": 209.9,
      "rD": 0,
      "hC": 0.15,
      "mA": 0.1,
      "tD": 0.12,
      "mode": "A_lydian",
      "bpm": 78,
      "arc": 0.078,
      "ent": 19,
      "brk": 0,
      "frameMs": 8.3
    },
    {
      "t": 210.9,
      "rD": 0,
      "hC": 0.16,
      "mA": 0.1,
      "tD": 0.12,
      "mode": "A_lydian",
      "bpm": 78,
      "arc": 0.079,
      "ent": 17,
      "brk": 0,
      "frameMs": 8.3
    },
    {
      "t": 211.9,
      "rD": 0,
      "hC": 0.17,
      "mA": 0.11,
      "tD": 0.13,
      "mode": "A_lydian",
      "bpm": 78,
      "arc": 0.079,
      "ent": 15,
      "brk": 0,
      "frameMs": 9.2
    },
    {
      "t": 212.9,
      "rD": 0.01,
      "hC": 0.17,
      "mA": 0.12,
      "tD": 0.14,
      "mode": "A_lydian",
      "bpm": 78,
      "arc": 0.08,
      "ent": 13,
      "brk": 0,
      "frameMs": 8.3
    },
    {
      "t": 213.9,
      "rD": 0.02,
      "hC": 0.18,
      "mA": 0.12,
      "tD": 0.15,
      "mode": "A_lydian",
      "bpm": 78,
      "arc": 0.08,
      "ent": 8,
      "brk": 0,
      "frameMs": 8.3
    },
    {
      "t": 214.9,
      "rD": 0.03,
      "hC": 0.19,
      "mA": 0.13,
      "tD": 0.16,
      "mode": "A_lydian",
      "bpm": 78,
      "arc": 0.08,
      "ent": 5,
      "brk": 0,
      "frameMs": 8.3
    },
    {
      "t": 215.9,
      "rD": 0.04,
      "hC": 0.2,
      "mA": 0.14,
      "tD": 0.17,
      "mode": "A_lydian",
      "bpm": 78,
      "arc": 0.081,
      "ent": 31,
      "brk": 0,
      "frameMs": 8.4
    },
    {
      "t": 216.9,
      "rD": 0.05,
      "hC": 0.21,
      "mA": 0.14,
      "tD": 0.18,
      "mode": "A_lydian",
      "bpm": 78,
      "arc": 0.081,
      "ent": 41,
      "brk": 0,
      "frameMs": 8
    },
    {
      "t": 217.9,
      "rD": 0.06,
      "hC": 0.22,
      "mA": 0.15,
      "tD": 0.19,
      "mode": "A_lydian",
      "bpm": 78,
      "arc": 0.082,
      "ent": 37,
      "brk": 0,
      "frameMs": 9.3
    },
    {
      "t": 218.9,
      "rD": 0.07,
      "hC": 0.22,
      "mA": 0.15,
      "tD": 0.19,
      "mode": "A_lydian",
      "bpm": 78,
      "arc": 0.082,
      "ent": 32,
      "brk": 0,
      "frameMs": 8.4
    },
    {
      "t": 219.9,
      "rD": 0.07,
      "hC": 0.23,
      "mA": 0.15,
      "tD": 0.2,
      "mode": "A_lydian",
      "bpm": 78,
      "arc": 0.082,
      "ent": 33,
      "brk": 0,
      "frameMs": 8.8
    },
    {
      "t": 220.9,
      "rD": 0.07,
      "hC": 0.23,
      "mA": 0.15,
      "tD": 0.2,
      "mode": "A_lydian",
      "bpm": 78,
      "arc": 0.083,
      "ent": 31,
      "brk": 0,
      "frameMs": 8.3
    },
    {
      "t": 222,
      "rD": 0.07,
      "hC": 0.23,
      "mA": 0.15,
      "tD": 0.19,
      "mode": "A_lydian",
      "bpm": 78,
      "arc": 0.083,
      "ent": 26,
      "brk": 0,
      "frameMs": 8.7
    },
    {
      "t": 223,
      "rD": 0.06,
      "hC": 0.22,
      "mA": 0.15,
      "tD": 0.19,
      "mode": "A_lydian",
      "bpm": 78,
      "arc": 0.083,
      "ent": 23,
      "brk": 0,
      "frameMs": 8.8
    },
    {
      "t": 224,
      "rD": 0.05,
      "hC": 0.21,
      "mA": 0.14,
      "tD": 0.18,
      "mode": "A_lydian",
      "bpm": 78,
      "arc": 0.084,
      "ent": 20,
      "brk": 0,
      "frameMs": 9.3
    },
    {
      "t": 225,
      "rD": 0.04,
      "hC": 0.21,
      "mA": 0.14,
      "tD": 0.17,
      "mode": "A_lydian",
      "bpm": 78,
      "arc": 0.084,
      "ent": 14,
      "brk": 0,
      "frameMs": 9.2
    },
    {
      "t": 226,
      "rD": 0.03,
      "hC": 0.2,
      "mA": 0.13,
      "tD": 0.16,
      "mode": "A_lydian",
      "bpm": 78,
      "arc": 0.085,
      "ent": 13,
      "brk": 0,
      "frameMs": 8.2
    },
    {
      "t": 227,
      "rD": 0.02,
      "hC": 0.19,
      "mA": 0.13,
      "tD": 0.15,
      "mode": "A_lydian",
      "bpm": 78,
      "arc": 0.085,
      "ent": 11,
      "brk": 0,
      "frameMs": 8.4
    },
    {
      "t": 228,
      "rD": 0.01,
      "hC": 0.18,
      "mA": 0.12,
      "tD": 0.15,
      "mode": "A_lydian",
      "bpm": 78,
      "arc": 0.085,
      "ent": 38,
      "brk": 0,
      "frameMs": 8.5
    },
    {
      "t": 229,
      "rD": 0,
      "hC": 0.18,
      "mA": 0.12,
      "tD": 0.14,
      "mode": "A_lydian",
      "bpm": 78,
      "arc": 0.086,
      "ent": 37,
      "brk": 0,
      "frameMs": 9.4
    },
    {
      "t": 230,
      "rD": 0,
      "hC": 0.17,
      "mA": 0.11,
      "tD": 0.13,
      "mode": "A_lydian",
      "bpm": 78,
      "arc": 0.086,
      "ent": 47,
      "brk": 0,
      "frameMs": 7.3
    },
    {
      "t": 231,
      "rD": 0,
      "hC": 0.17,
      "mA": 0.11,
      "tD": 0.13,
      "mode": "A_lydian",
      "bpm": 78,
      "arc": 0.087,
      "ent": 41,
      "brk": 0,
      "frameMs": 8.7
    },
    {
      "t": 232,
      "rD": 0,
      "hC": 0.17,
      "mA": 0.11,
      "tD": 0.13,
      "mode": "A_lydian",
      "bpm": 78,
      "arc": 0.087,
      "ent": 36,
      "brk": 0,
      "frameMs": 9.2
    },
    {
      "t": 233,
      "rD": 0,
      "hC": 0.18,
      "mA": 0.11,
      "tD": 0.13,
      "mode": "A_lydian",
      "bpm": 78,
      "arc": 0.087,
      "ent": 29,
      "brk": 0,
      "frameMs": 8.4
    },
    {
      "t": 234,
      "rD": 0.01,
      "hC": 0.18,
      "mA": 0.12,
      "tD": 0.14,
      "mode": "A_lydian",
      "bpm": 78,
      "arc": 0.088,
      "ent": 18,
      "brk": 0,
      "frameMs": 7.8
    },
    {
      "t": 235,
      "rD": 0.02,
      "hC": 0.19,
      "mA": 0.12,
      "tD": 0.15,
      "mode": "A_lydian",
      "bpm": 78,
      "arc": 0.088,
      "ent": 17,
      "brk": 0,
      "frameMs": 8.3
    },
    {
      "t": 236,
      "rD": 0.03,
      "hC": 0.2,
      "mA": 0.13,
      "tD": 0.16,
      "mode": "A_lydian",
      "bpm": 78,
      "arc": 0.089,
      "ent": 19,
      "brk": 0,
      "frameMs": 8.3
    },
    {
      "t": 237,
      "rD": 0.05,
      "hC": 0.21,
      "mA": 0.14,
      "tD": 0.17,
      "mode": "A_lydian",
      "bpm": 78,
      "arc": 0.089,
      "ent": 15,
      "brk": 0,
      "frameMs": 8.4
    },
    {
      "t": 238,
      "rD": 0.06,
      "hC": 0.22,
      "mA": 0.14,
      "tD": 0.18,
      "mode": "A_lydian",
      "bpm": 78,
      "arc": 0.089,
      "ent": 16,
      "brk": 0,
      "frameMs": 8.3
    },
    {
      "t": 239,
      "rD": 0.07,
      "hC": 0.23,
      "mA": 0.15,
      "tD": 0.19,
      "mode": "A_lydian",
      "bpm": 78,
      "arc": 0.09,
      "ent": 19,
      "brk": 0,
      "frameMs": 8.3
    },
    {
      "t": 240,
      "rD": 0.09,
      "hC": 0.24,
      "mA": 0.16,
      "tD": 0.2,
      "mode": "A_lydian",
      "bpm": 78,
      "arc": 0.09,
      "ent": 64,
      "brk": 0,
      "frameMs": 8.3
    },
    {
      "t": 241,
      "rD": 0.1,
      "hC": 0.24,
      "mA": 0.16,
      "tD": 0.21,
      "mode": "A_lydian",
      "bpm": 78,
      "arc": 0.09,
      "ent": 86,
      "brk": 0,
      "frameMs": 8
    },
    {
      "t": 242,
      "rD": 0.1,
      "hC": 0.25,
      "mA": 0.17,
      "tD": 0.21,
      "mode": "A_lydian",
      "bpm": 78,
      "arc": 0.091,
      "ent": 109,
      "brk": 0,
      "frameMs": 8.4
    },
    {
      "t": 243,
      "rD": 0.11,
      "hC": 0.25,
      "mA": 0.17,
      "tD": 0.22,
      "mode": "A_lydian",
      "bpm": 78,
      "arc": 0.091,
      "ent": 131,
      "brk": 0,
      "frameMs": 8.3
    },
    {
      "t": 244,
      "rD": 0.11,
      "hC": 0.25,
      "mA": 0.17,
      "tD": 0.22,
      "mode": "A_lydian",
      "bpm": 78,
      "arc": 0.092,
      "ent": 154,
      "brk": 0,
      "frameMs": 8.6
    },
    {
      "t": 245,
      "rD": 0.1,
      "hC": 0.25,
      "mA": 0.17,
      "tD": 0.21,
      "mode": "A_lydian",
      "bpm": 78,
      "arc": 0.092,
      "ent": 151,
      "brk": 0,
      "frameMs": 8.3
    },
    {
      "t": 246,
      "rD": 0.1,
      "hC": 0.25,
      "mA": 0.16,
      "tD": 0.21,
      "mode": "A_lydian",
      "bpm": 78,
      "arc": 0.092,
      "ent": 163,
      "brk": 0,
      "frameMs": 8.3
    },
    {
      "t": 247,
      "rD": 0.09,
      "hC": 0.24,
      "mA": 0.16,
      "tD": 0.2,
      "mode": "A_lydian",
      "bpm": 78,
      "arc": 0.093,
      "ent": 179,
      "brk": 0,
      "frameMs": 7.7
    },
    {
      "t": 248,
      "rD": 0.08,
      "hC": 0.23,
      "mA": 0.15,
      "tD": 0.19,
      "mode": "A_lydian",
      "bpm": 78,
      "arc": 0.093,
      "ent": 176,
      "brk": 0,
      "frameMs": 8.6
    },
    {
      "t": 249.1,
      "rD": 0.07,
      "hC": 0.23,
      "mA": 0.15,
      "tD": 0.18,
      "mode": "A_lydian",
      "bpm": 78,
      "arc": 0.094,
      "ent": 155,
      "brk": 0,
      "frameMs": 8.3
    },
    {
      "t": 250.1,
      "rD": 0.06,
      "hC": 0.22,
      "mA": 0.14,
      "tD": 0.17,
      "mode": "A_lydian",
      "bpm": 78,
      "arc": 0.094,
      "ent": 167,
      "brk": 0,
      "frameMs": 8.9
    },
    {
      "t": 251.1,
      "rD": 0.05,
      "hC": 0.21,
      "mA": 0.14,
      "tD": 0.16,
      "mode": "A_lydian",
      "bpm": 78,
      "arc": 0.094,
      "ent": 158,
      "brk": 0,
      "frameMs": 9.2
    },
    {
      "t": 252.1,
      "rD": 0.04,
      "hC": 0.21,
      "mA": 0.13,
      "tD": 0.16,
      "mode": "A_lydian",
      "bpm": 78,
      "arc": 0.095,
      "ent": 131,
      "brk": 0,
      "frameMs": 8.3
    },
    {
      "t": 253.1,
      "rD": 0.04,
      "hC": 0.2,
      "mA": 0.13,
      "tD": 0.15,
      "mode": "A_lydian",
      "bpm": 78,
      "arc": 0.095,
      "ent": 125,
      "brk": 0,
      "frameMs": 8.3
    },
    {
      "t": 254.1,
      "rD": 0.03,
      "hC": 0.2,
      "mA": 0.13,
      "tD": 0.15,
      "mode": "A_lydian",
      "bpm": 78,
      "arc": 0.096,
      "ent": 118,
      "brk": 0,
      "frameMs": 8.3
    },
    {
      "t": 255.1,
      "rD": 0.03,
      "hC": 0.2,
      "mA": 0.13,
      "tD": 0.15,
      "mode": "A_lydian",
      "bpm": 78,
      "arc": 0.096,
      "ent": 92,
      "brk": 0,
      "frameMs": 9.2
    },
    {
      "t": 256.1,
      "rD": 0.04,
      "hC": 0.21,
      "mA": 0.13,
      "tD": 0.15,
      "mode": "A_lydian",
      "bpm": 78,
      "arc": 0.096,
      "ent": 70,
      "brk": 0,
      "frameMs": 8.4
    },
    {
      "t": 257.1,
      "rD": 0.05,
      "hC": 0.21,
      "mA": 0.14,
      "tD": 0.16,
      "mode": "A_lydian",
      "bpm": 78,
      "arc": 0.097,
      "ent": 43,
      "brk": 0,
      "frameMs": 8.9
    },
    {
      "t": 258.1,
      "rD": 0.06,
      "hC": 0.22,
      "mA": 0.14,
      "tD": 0.17,
      "mode": "A_lydian",
      "bpm": 78,
      "arc": 0.097,
      "ent": 39,
      "brk": 0,
      "frameMs": 7.4
    },
    {
      "t": 259.1,
      "rD": 0.07,
      "hC": 0.23,
      "mA": 0.15,
      "tD": 0.18,
      "mode": "A_lydian",
      "bpm": 78,
      "arc": 0.097,
      "ent": 45,
      "brk": 0,
      "frameMs": 8.3
    },
    {
      "t": 260.1,
      "rD": 0.09,
      "hC": 0.24,
      "mA": 0.15,
      "tD": 0.19,
      "mode": "A_lydian",
      "bpm": 78,
      "arc": 0.098,
      "ent": 80,
      "brk": 0,
      "frameMs": 8.2
    },
    {
      "t": 261.1,
      "rD": 0.1,
      "hC": 0.25,
      "mA": 0.16,
      "tD": 0.2,
      "mode": "A_lydian",
      "bpm": 78,
      "arc": 0.098,
      "ent": 94,
      "brk": 0,
      "frameMs": 8.2
    },
    {
      "t": 262.1,
      "rD": 0.12,
      "hC": 0.26,
      "mA": 0.17,
      "tD": 0.21,
      "mode": "A_lydian",
      "bpm": 78,
      "arc": 0.099,
      "ent": 132,
      "brk": 0,
      "frameMs": 9.3
    },
    {
      "t": 263.1,
      "rD": 0.13,
      "hC": 0.27,
      "mA": 0.17,
      "tD": 0.22,
      "mode": "A_lydian",
      "bpm": 78,
      "arc": 0.099,
      "ent": 167,
      "brk": 0,
      "frameMs": 8
    },
    {
      "t": 264.1,
      "rD": 0.14,
      "hC": 0.27,
      "mA": 0.18,
      "tD": 0.23,
      "mode": "A_lydian",
      "bpm": 78,
      "arc": 0.099,
      "ent": 175,
      "brk": 0,
      "frameMs": 9.1
    },
    {
      "t": 265.1,
      "rD": 0.15,
      "hC": 0.28,
      "mA": 0.18,
      "tD": 0.23,
      "mode": "A_lydian",
      "bpm": 78,
      "arc": 0.1,
      "ent": 204,
      "brk": 0,
      "frameMs": 8.4
    },
    {
      "t": 266.1,
      "rD": 0.15,
      "hC": 0.28,
      "mA": 0.18,
      "tD": 0.24,
      "mode": "A_lydian",
      "bpm": 78,
      "arc": 0.1,
      "ent": 203,
      "brk": 0,
      "frameMs": 8.3
    },
    {
      "t": 267.2,
      "rD": 0.15,
      "hC": 0.28,
      "mA": 0.18,
      "tD": 0.23,
      "mode": "A_lydian",
      "bpm": 78,
      "arc": 0.101,
      "ent": 214,
      "brk": 0,
      "frameMs": 8.3
    },
    {
      "t": 268.2,
      "rD": 0.15,
      "hC": 0.28,
      "mA": 0.18,
      "tD": 0.23,
      "mode": "A_lydian",
      "bpm": 78,
      "arc": 0.101,
      "ent": 188,
      "brk": 0,
      "frameMs": 7.9
    },
    {
      "t": 269.2,
      "rD": 0.14,
      "hC": 0.27,
      "mA": 0.18,
      "tD": 0.23,
      "mode": "A_lydian",
      "bpm": 78,
      "arc": 0.101,
      "ent": 175,
      "brk": 0,
      "frameMs": 8
    },
    {
      "t": 270.2,
      "rD": 0.13,
      "hC": 0.27,
      "mA": 0.17,
      "tD": 0.22,
      "mode": "A_lydian",
      "bpm": 78,
      "arc": 0.102,
      "ent": 182,
      "brk": 0,
      "frameMs": 8.6
    },
    {
      "t": 271.2,
      "rD": 0.12,
      "hC": 0.26,
      "mA": 0.17,
      "tD": 0.21,
      "mode": "A_lydian",
      "bpm": 78,
      "arc": 0.102,
      "ent": 203,
      "brk": 0,
      "frameMs": 8.4
    },
    {
      "t": 272.2,
      "rD": 0.11,
      "hC": 0.25,
      "mA": 0.16,
      "tD": 0.2,
      "mode": "A_lydian",
      "bpm": 78,
      "arc": 0.103,
      "ent": 200,
      "brk": 0,
      "frameMs": 8.4
    },
    {
      "t": 273.2,
      "rD": 0.1,
      "hC": 0.24,
      "mA": 0.16,
      "tD": 0.19,
      "mode": "A_lydian",
      "bpm": 78,
      "arc": 0.103,
      "ent": 217,
      "brk": 0,
      "frameMs": 8.5
    },
    {
      "t": 274.2,
      "rD": 0.09,
      "hC": 0.24,
      "mA": 0.15,
      "tD": 0.18,
      "mode": "A_lydian",
      "bpm": 78,
      "arc": 0.103,
      "ent": 189,
      "brk": 0,
      "frameMs": 8
    },
    {
      "t": 275.2,
      "rD": 0.08,
      "hC": 0.23,
      "mA": 0.15,
      "tD": 0.18,
      "mode": "A_lydian",
      "bpm": 78,
      "arc": 0.104,
      "ent": 186,
      "brk": 0,
      "frameMs": 8.8
    },
    {
      "t": 276.2,
      "rD": 0.08,
      "hC": 0.23,
      "mA": 0.15,
      "tD": 0.17,
      "mode": "A_lydian",
      "bpm": 78,
      "arc": 0.104,
      "ent": 187,
      "brk": 0,
      "frameMs": 8.4
    },
    {
      "t": 277.2,
      "rD": 0.07,
      "hC": 0.23,
      "mA": 0.14,
      "tD": 0.17,
      "mode": "A_lydian",
      "bpm": 78,
      "arc": 0.104,
      "ent": 201,
      "brk": 0,
      "frameMs": 9.1
    },
    {
      "t": 278.2,
      "rD": 0.08,
      "hC": 0.23,
      "mA": 0.15,
      "tD": 0.17,
      "mode": "A_lydian",
      "bpm": 78,
      "arc": 0.105,
      "ent": 184,
      "brk": 0,
      "frameMs": 8.4
    },
    {
      "t": 279.2,
      "rD": 0.08,
      "hC": 0.23,
      "mA": 0.15,
      "tD": 0.17,
      "mode": "A_lydian",
      "bpm": 78,
      "arc": 0.105,
      "ent": 175,
      "brk": 0,
      "frameMs": 8.3
    },
    {
      "t": 280.2,
      "rD": 0.09,
      "hC": 0.24,
      "mA": 0.15,
      "tD": 0.18,
      "mode": "A_lydian",
      "bpm": 78,
      "arc": 0.106,
      "ent": 166,
      "brk": 0,
      "frameMs": 8.3
    },
    {
      "t": 281.2,
      "rD": 0.1,
      "hC": 0.25,
      "mA": 0.16,
      "tD": 0.19,
      "mode": "A_lydian",
      "bpm": 78,
      "arc": 0.106,
      "ent": 153,
      "brk": 0,
      "frameMs": 8.4
    },
    {
      "t": 282.2,
      "rD": 0.11,
      "hC": 0.25,
      "mA": 0.16,
      "tD": 0.2,
      "mode": "A_lydian",
      "bpm": 78,
      "arc": 0.106,
      "ent": 184,
      "brk": 0,
      "frameMs": 8.3
    },
    {
      "t": 283.2,
      "rD": 0.13,
      "hC": 0.26,
      "mA": 0.17,
      "tD": 0.21,
      "mode": "A_lydian",
      "bpm": 78,
      "arc": 0.107,
      "ent": 207,
      "brk": 0,
      "frameMs": 8.3
    },
    {
      "t": 284.2,
      "rD": 0.14,
      "hC": 0.27,
      "mA": 0.18,
      "tD": 0.22,
      "mode": "A_lydian",
      "bpm": 78,
      "arc": 0.107,
      "ent": 205,
      "brk": 0,
      "frameMs": 8.4
    },
    {
      "t": 285.2,
      "rD": 0.15,
      "hC": 0.28,
      "mA": 0.18,
      "tD": 0.23,
      "mode": "A_lydian",
      "bpm": 78,
      "arc": 0.108,
      "ent": 542,
      "brk": 0,
      "frameMs": 8.4
    },
    {
      "t": 286.2,
      "rD": 0.17,
      "hC": 0.29,
      "mA": 0.19,
      "tD": 0.24,
      "mode": "A_lydian",
      "bpm": 78,
      "arc": 0.108,
      "ent": 700,
      "brk": 0,
      "frameMs": 9.3
    },
    {
      "t": 287.2,
      "rD": 0.17,
      "hC": 0.3,
      "mA": 0.19,
      "tD": 0.25,
      "mode": "A_lydian",
      "bpm": 78,
      "arc": 0.108,
      "ent": 800,
      "brk": 0,
      "frameMs": 9.1
    },
    {
      "t": 288.2,
      "rD": 0.18,
      "hC": 0.3,
      "mA": 0.2,
      "tD": 0.25,
      "mode": "A_lydian",
      "bpm": 78,
      "arc": 0.109,
      "ent": 861,
      "brk": 0,
      "frameMs": 8.3
    },
    {
      "t": 289.2,
      "rD": 0.18,
      "hC": 0.3,
      "mA": 0.2,
      "tD": 0.25,
      "mode": "A_lydian",
      "bpm": 78,
      "arc": 0.109,
      "ent": 932,
      "brk": 0,
      "frameMs": 9.3
    },
    {
      "t": 290.3,
      "rD": 0.18,
      "hC": 0.3,
      "mA": 0.2,
      "tD": 0.25,
      "mode": "A_lydian",
      "bpm": 78,
      "arc": 0.11,
      "ent": 931,
      "brk": 0,
      "frameMs": 7.7
    },
    {
      "t": 291.3,
      "rD": 0.18,
      "hC": 0.3,
      "mA": 0.2,
      "tD": 0.25,
      "mode": "A_lydian",
      "bpm": 78,
      "arc": 0.11,
      "ent": 951,
      "brk": 0,
      "frameMs": 8.3
    },
    {
      "t": 292.3,
      "rD": 0.17,
      "hC": 0.3,
      "mA": 0.19,
      "tD": 0.24,
      "mode": "A_lydian",
      "bpm": 78,
      "arc": 0.11,
      "ent": 969,
      "brk": 0,
      "frameMs": 9
    },
    {
      "t": 293.3,
      "rD": 0.16,
      "hC": 0.29,
      "mA": 0.19,
      "tD": 0.23,
      "mode": "A_lydian",
      "bpm": 78,
      "arc": 0.111,
      "ent": 933,
      "brk": 0,
      "frameMs": 8.3
    },
    {
      "t": 294.3,
      "rD": 0.15,
      "hC": 0.28,
      "mA": 0.18,
      "tD": 0.22,
      "mode": "A_lydian",
      "bpm": 78,
      "arc": 0.111,
      "ent": 954,
      "brk": 0,
      "frameMs": 9
    },
    {
      "t": 295.3,
      "rD": 0.14,
      "hC": 0.27,
      "mA": 0.17,
      "tD": 0.21,
      "mode": "A_lydian",
      "bpm": 78,
      "arc": 0.111,
      "ent": 834,
      "brk": 0,
      "frameMs": 8.3
    },
    {
      "t": 296.3,
      "rD": 0.13,
      "hC": 0.26,
      "mA": 0.17,
      "tD": 0.2,
      "mode": "A_lydian",
      "bpm": 78,
      "arc": 0.112,
      "ent": 726,
      "brk": 0,
      "frameMs": 9.3
    },
    {
      "t": 297.3,
      "rD": 0.12,
      "hC": 0.26,
      "mA": 0.16,
      "tD": 0.19,
      "mode": "A_lydian",
      "bpm": 78,
      "arc": 0.112,
      "ent": 573,
      "brk": 0,
      "frameMs": 8.2
    },
    {
      "t": 298.3,
      "rD": 0.11,
      "hC": 0.25,
      "mA": 0.16,
      "tD": 0.19,
      "mode": "A_lydian",
      "bpm": 78,
      "arc": 0.113,
      "ent": 449,
      "brk": 0,
      "frameMs": 8.2
    },
    {
      "t": 299.3,
      "rD": 0.1,
      "hC": 0.25,
      "mA": 0.16,
      "tD": 0.18,
      "mode": "A_lydian",
      "bpm": 78,
      "arc": 0.113,
      "ent": 409,
      "brk": 0,
      "frameMs": 9.4
    },
    {
      "t": 300.3,
      "rD": 0.1,
      "hC": 0.24,
      "mA": 0.15,
      "tD": 0.18,
      "mode": "A_lydian",
      "bpm": 78,
      "arc": 0.113,
      "ent": 324,
      "brk": 0,
      "frameMs": 9.3
    },
    {
      "t": 301.3,
      "rD": 0.1,
      "hC": 0.25,
      "mA": 0.16,
      "tD": 0.18,
      "mode": "A_lydian",
      "bpm": 78,
      "arc": 0.114,
      "ent": 250,
      "brk": 0,
      "frameMs": 8.6
    },
    {
      "t": 302.3,
      "rD": 0.1,
      "hC": 0.25,
      "mA": 0.16,
      "tD": 0.18,
      "mode": "A_lydian",
      "bpm": 78,
      "arc": 0.114,
      "ent": 218,
      "brk": 0,
      "frameMs": 9.3
    },
    {
      "t": 303.3,
      "rD": 0.11,
      "hC": 0.25,
      "mA": 0.16,
      "tD": 0.19,
      "mode": "A_lydian",
      "bpm": 78,
      "arc": 0.115,
      "ent": 181,
      "brk": 0,
      "frameMs": 8.3
    },
    {
      "t": 304.3,
      "rD": 0.12,
      "hC": 0.26,
      "mA": 0.17,
      "tD": 0.2,
      "mode": "A_lydian",
      "bpm": 78,
      "arc": 0.115,
      "ent": 170,
      "brk": 0,
      "frameMs": 8.2
    },
    {
      "t": 305.3,
      "rD": 0.13,
      "hC": 0.27,
      "mA": 0.17,
      "tD": 0.21,
      "mode": "A_lydian",
      "bpm": 78,
      "arc": 0.115,
      "ent": 192,
      "brk": 0,
      "frameMs": 9.3
    },
    {
      "t": 306.3,
      "rD": 0.15,
      "hC": 0.28,
      "mA": 0.18,
      "tD": 0.22,
      "mode": "A_lydian",
      "bpm": 78,
      "arc": 0.116,
      "ent": 197,
      "brk": 0,
      "frameMs": 8.3
    },
    {
      "t": 307.3,
      "rD": 0.16,
      "hC": 0.29,
      "mA": 0.19,
      "tD": 0.23,
      "mode": "Bb_phrygian",
      "bpm": 80,
      "arc": 0.116,
      "ent": 443,
      "brk": 0,
      "frameMs": 8.4
    },
    {
      "t": 308.3,
      "rD": 0.17,
      "hC": 0.3,
      "mA": 0.19,
      "tD": 0.24,
      "mode": "Bb_phrygian",
      "bpm": 83,
      "arc": 0.117,
      "ent": 587,
      "brk": 0,
      "frameMs": 16.3
    },
    {
      "t": 309.3,
      "rD": 0.18,
      "hC": 0.3,
      "mA": 0.2,
      "tD": 0.25,
      "mode": "Bb_phrygian",
      "bpm": 84,
      "arc": 0.117,
      "ent": 683,
      "brk": 0,
      "frameMs": 16.6
    },
    {
      "t": 310.4,
      "rD": 0.19,
      "hC": 0.31,
      "mA": 0.2,
      "tD": 0.25,
      "mode": "Bb_phrygian",
      "bpm": 85,
      "arc": 0.117,
      "ent": 771,
      "brk": 0,
      "frameMs": 16.7
    },
    {
      "t": 311.4,
      "rD": 0.2,
      "hC": 0.31,
      "mA": 0.2,
      "tD": 0.26,
      "mode": "Bb_phrygian",
      "bpm": 86,
      "arc": 0.118,
      "ent": 864,
      "brk": 0,
      "frameMs": 16.8
    },
    {
      "t": 312.4,
      "rD": 0.2,
      "hC": 0.31,
      "mA": 0.2,
      "tD": 0.26,
      "mode": "Bb_phrygian",
      "bpm": 86,
      "arc": 0.118,
      "ent": 881,
      "brk": 0,
      "frameMs": 16.6
    },
    {
      "t": 313.4,
      "rD": 0.19,
      "hC": 0.31,
      "mA": 0.2,
      "tD": 0.26,
      "mode": "Bb_phrygian",
      "bpm": 86,
      "arc": 0.119,
      "ent": 918,
      "brk": 0,
      "frameMs": 8.4
    },
    {
      "t": 314.4,
      "rD": 0.19,
      "hC": 0.31,
      "mA": 0.2,
      "tD": 0.25,
      "mode": "Bb_phrygian",
      "bpm": 86,
      "arc": 0.119,
      "ent": 896,
      "brk": 0,
      "frameMs": 16.7
    },
    {
      "t": 315.4,
      "rD": 0.18,
      "hC": 0.3,
      "mA": 0.2,
      "tD": 0.24,
      "mode": "Bb_phrygian",
      "bpm": 86,
      "arc": 0.119,
      "ent": 865,
      "brk": 0,
      "frameMs": 8.1
    },
    {
      "t": 316.4,
      "rD": 0.17,
      "hC": 0.29,
      "mA": 0.19,
      "tD": 0.24,
      "mode": "Bb_phrygian",
      "bpm": 86,
      "arc": 0.12,
      "ent": 904,
      "brk": 0,
      "frameMs": 9
    },
    {
      "t": 317.4,
      "rD": 0.16,
      "hC": 0.29,
      "mA": 0.18,
      "tD": 0.23,
      "mode": "Bb_phrygian",
      "bpm": 86,
      "arc": 0.12,
      "ent": 909,
      "brk": 0,
      "frameMs": 8.4
    },
    {
      "t": 318.4,
      "rD": 0.14,
      "hC": 0.28,
      "mA": 0.18,
      "tD": 0.22,
      "mode": "Bb_phrygian",
      "bpm": 86,
      "arc": 0.12,
      "ent": 886,
      "brk": 0,
      "frameMs": 16.3
    },
    {
      "t": 319.4,
      "rD": 0.13,
      "hC": 0.27,
      "mA": 0.17,
      "tD": 0.21,
      "mode": "Bb_phrygian",
      "bpm": 86,
      "arc": 0.121,
      "ent": 770,
      "brk": 0,
      "frameMs": 15.9
    },
    {
      "t": 320.4,
      "rD": 0.12,
      "hC": 0.26,
      "mA": 0.17,
      "tD": 0.2,
      "mode": "Bb_phrygian",
      "bpm": 86,
      "arc": 0.121,
      "ent": 691,
      "brk": 0,
      "frameMs": 16.6
    },
    {
      "t": 321.4,
      "rD": 0.11,
      "hC": 0.26,
      "mA": 0.16,
      "tD": 0.19,
      "mode": "Bb_phrygian",
      "bpm": 86,
      "arc": 0.122,
      "ent": 564,
      "brk": 0,
      "frameMs": 16.7
    },
    {
      "t": 322.5,
      "rD": 0.11,
      "hC": 0.25,
      "mA": 0.16,
      "tD": 0.19,
      "mode": "Bb_phrygian",
      "bpm": 86,
      "arc": 0.122,
      "ent": 499,
      "brk": 0,
      "frameMs": 17
    },
    {
      "t": 323.5,
      "rD": 0.11,
      "hC": 0.25,
      "mA": 0.16,
      "tD": 0.18,
      "mode": "Bb_phrygian",
      "bpm": 86,
      "arc": 0.122,
      "ent": 417,
      "brk": 0,
      "frameMs": 16.5
    },
    {
      "t": 324.5,
      "rD": 0.11,
      "hC": 0.25,
      "mA": 0.16,
      "tD": 0.19,
      "mode": "Bb_phrygian",
      "bpm": 86,
      "arc": 0.123,
      "ent": 335,
      "brk": 0,
      "frameMs": 16
    },
    {
      "t": 325.5,
      "rD": 0.11,
      "hC": 0.26,
      "mA": 0.16,
      "tD": 0.19,
      "mode": "Bb_phrygian",
      "bpm": 86,
      "arc": 0.123,
      "ent": 265,
      "brk": 0,
      "frameMs": 17.4
    },
    {
      "t": 326.5,
      "rD": 0.12,
      "hC": 0.26,
      "mA": 0.16,
      "tD": 0.2,
      "mode": "Bb_phrygian",
      "bpm": 86,
      "arc": 0.124,
      "ent": 236,
      "brk": 0,
      "frameMs": 8.3
    },
    {
      "t": 327.5,
      "rD": 0.13,
      "hC": 0.27,
      "mA": 0.17,
      "tD": 0.2,
      "mode": "Bb_phrygian",
      "bpm": 86,
      "arc": 0.124,
      "ent": 237,
      "brk": 0,
      "frameMs": 8.2
    },
    {
      "t": 328.5,
      "rD": 0.14,
      "hC": 0.28,
      "mA": 0.18,
      "tD": 0.21,
      "mode": "Bb_phrygian",
      "bpm": 86,
      "arc": 0.124,
      "ent": 217,
      "brk": 0,
      "frameMs": 16.2
    },
    {
      "t": 329.5,
      "rD": 0.16,
      "hC": 0.29,
      "mA": 0.18,
      "tD": 0.22,
      "mode": "Bb_phrygian",
      "bpm": 86,
      "arc": 0.125,
      "ent": 399,
      "brk": 0,
      "frameMs": 17.3
    },
    {
      "t": 330.5,
      "rD": 0.17,
      "hC": 0.3,
      "mA": 0.19,
      "tD": 0.24,
      "mode": "Bb_phrygian",
      "bpm": 86,
      "arc": 0.125,
      "ent": 554,
      "brk": 0,
      "frameMs": 17.5
    },
    {
      "t": 331.5,
      "rD": 0.18,
      "hC": 0.31,
      "mA": 0.2,
      "tD": 0.25,
      "mode": "Bb_phrygian",
      "bpm": 86,
      "arc": 0.126,
      "ent": 710,
      "brk": 0,
      "frameMs": 15.7
    },
    {
      "t": 332.5,
      "rD": 0.19,
      "hC": 0.31,
      "mA": 0.2,
      "tD": 0.25,
      "mode": "Bb_phrygian",
      "bpm": 86,
      "arc": 0.126,
      "ent": 795,
      "brk": 0,
      "frameMs": 17.1
    },
    {
      "t": 333.5,
      "rD": 0.2,
      "hC": 0.32,
      "mA": 0.21,
      "tD": 0.26,
      "mode": "Bb_phrygian",
      "bpm": 86,
      "arc": 0.126,
      "ent": 867,
      "brk": 0,
      "frameMs": 16.7
    },
    {
      "t": 334.5,
      "rD": 0.2,
      "hC": 0.32,
      "mA": 0.21,
      "tD": 0.26,
      "mode": "Bb_phrygian",
      "bpm": 86,
      "arc": 0.127,
      "ent": 914,
      "brk": 0,
      "frameMs": 16.6
    },
    {
      "t": 335.6,
      "rD": 0.2,
      "hC": 0.32,
      "mA": 0.21,
      "tD": 0.26,
      "mode": "Bb_phrygian",
      "bpm": 86,
      "arc": 0.127,
      "ent": 930,
      "brk": 0,
      "frameMs": 16.6
    },
    {
      "t": 336.6,
      "rD": 0.2,
      "hC": 0.32,
      "mA": 0.21,
      "tD": 0.26,
      "mode": "Bb_phrygian",
      "bpm": 86,
      "arc": 0.127,
      "ent": 937,
      "brk": 0,
      "frameMs": 16.7
    },
    {
      "t": 337.6,
      "rD": 0.2,
      "hC": 0.32,
      "mA": 0.2,
      "tD": 0.26,
      "mode": "Bb_phrygian",
      "bpm": 86,
      "arc": 0.128,
      "ent": 931,
      "brk": 0,
      "frameMs": 8.3
    },
    {
      "t": 338.6,
      "rD": 0.19,
      "hC": 0.31,
      "mA": 0.2,
      "tD": 0.25,
      "mode": "Bb_phrygian",
      "bpm": 86,
      "arc": 0.128,
      "ent": 975,
      "brk": 0,
      "frameMs": 8.4
    },
    {
      "t": 339.6,
      "rD": 0.18,
      "hC": 0.31,
      "mA": 0.19,
      "tD": 0.24,
      "mode": "Bb_phrygian",
      "bpm": 86,
      "arc": 0.129,
      "ent": 987,
      "brk": 0,
      "frameMs": 8.8
    },
    {
      "t": 340.6,
      "rD": 0.17,
      "hC": 0.3,
      "mA": 0.19,
      "tD": 0.23,
      "mode": "Bb_phrygian",
      "bpm": 86,
      "arc": 0.129,
      "ent": 985,
      "brk": 0,
      "frameMs": 16.7
    },
    {
      "t": 341.6,
      "rD": 0.15,
      "hC": 0.29,
      "mA": 0.18,
      "tD": 0.22,
      "mode": "Bb_phrygian",
      "bpm": 86,
      "arc": 0.129,
      "ent": 936,
      "brk": 0,
      "frameMs": 15.8
    },
    {
      "t": 342.6,
      "rD": 0.14,
      "hC": 0.28,
      "mA": 0.18,
      "tD": 0.21,
      "mode": "Bb_phrygian",
      "bpm": 86,
      "arc": 0.13,
      "ent": 832,
      "brk": 0,
      "frameMs": 16.8
    },
    {
      "t": 343.6,
      "rD": 0.13,
      "hC": 0.28,
      "mA": 0.17,
      "tD": 0.21,
      "mode": "Bb_phrygian",
      "bpm": 86,
      "arc": 0.13,
      "ent": 717,
      "brk": 0,
      "frameMs": 17.2
    },
    {
      "t": 344.6,
      "rD": 0.12,
      "hC": 0.27,
      "mA": 0.17,
      "tD": 0.2,
      "mode": "Bb_phrygian",
      "bpm": 86,
      "arc": 0.131,
      "ent": 589,
      "brk": 0,
      "frameMs": 16.5
    },
    {
      "t": 345.6,
      "rD": 0.12,
      "hC": 0.27,
      "mA": 0.17,
      "tD": 0.2,
      "mode": "Bb_phrygian",
      "bpm": 86,
      "arc": 0.131,
      "ent": 512,
      "brk": 0,
      "frameMs": 16.6
    },
    {
      "t": 346.6,
      "rD": 0.12,
      "hC": 0.27,
      "mA": 0.16,
      "tD": 0.19,
      "mode": "Bb_phrygian",
      "bpm": 86,
      "arc": 0.131,
      "ent": 392,
      "brk": 0,
      "frameMs": 8.4
    },
    {
      "t": 347.6,
      "rD": 0.12,
      "hC": 0.27,
      "mA": 0.17,
      "tD": 0.2,
      "mode": "Bb_phrygian",
      "bpm": 86,
      "arc": 0.132,
      "ent": 335,
      "brk": 0,
      "frameMs": 16.4
    },
    {
      "t": 348.7,
      "rD": 0.13,
      "hC": 0.27,
      "mA": 0.17,
      "tD": 0.2,
      "mode": "Bb_phrygian",
      "bpm": 86,
      "arc": 0.132,
      "ent": 292,
      "brk": 0,
      "frameMs": 8.2
    },
    {
      "t": 349.7,
      "rD": 0.13,
      "hC": 0.28,
      "mA": 0.17,
      "tD": 0.21,
      "mode": "Bb_phrygian",
      "bpm": 86,
      "arc": 0.133,
      "ent": 277,
      "brk": 0,
      "frameMs": 7.6
    },
    {
      "t": 350.7,
      "rD": 0.15,
      "hC": 0.29,
      "mA": 0.18,
      "tD": 0.22,
      "mode": "Bb_phrygian",
      "bpm": 86,
      "arc": 0.133,
      "ent": 243,
      "brk": 0,
      "frameMs": 16.7
    },
    {
      "t": 351.7,
      "rD": 0.16,
      "hC": 0.3,
      "mA": 0.19,
      "tD": 0.23,
      "mode": "Bb_phrygian",
      "bpm": 86,
      "arc": 0.133,
      "ent": 459,
      "brk": 0,
      "frameMs": 16.3
    },
    {
      "t": 352.7,
      "rD": 0.17,
      "hC": 0.31,
      "mA": 0.19,
      "tD": 0.24,
      "mode": "Bb_phrygian",
      "bpm": 86,
      "arc": 0.134,
      "ent": 568,
      "brk": 0,
      "frameMs": 17.2
    },
    {
      "t": 353.7,
      "rD": 0.19,
      "hC": 0.32,
      "mA": 0.2,
      "tD": 0.25,
      "mode": "Bb_phrygian",
      "bpm": 86,
      "arc": 0.134,
      "ent": 637,
      "brk": 0,
      "frameMs": 16.7
    },
    {
      "t": 354.7,
      "rD": 0.2,
      "hC": 0.33,
      "mA": 0.21,
      "tD": 0.26,
      "mode": "Bb_phrygian",
      "bpm": 86,
      "arc": 0.135,
      "ent": 743,
      "brk": 0,
      "frameMs": 16.7
    },
    {
      "t": 355.7,
      "rD": 0.21,
      "hC": 0.34,
      "mA": 0.21,
      "tD": 0.27,
      "mode": "Bb_phrygian",
      "bpm": 86,
      "arc": 0.135,
      "ent": 812,
      "brk": 0,
      "frameMs": 16
    },
    {
      "t": 356.7,
      "rD": 0.22,
      "hC": 0.34,
      "mA": 0.21,
      "tD": 0.27,
      "mode": "Bb_phrygian",
      "bpm": 86,
      "arc": 0.135,
      "ent": 896,
      "brk": 0,
      "frameMs": 16.7
    },
    {
      "t": 357.7,
      "rD": 0.22,
      "hC": 0.35,
      "mA": 0.22,
      "tD": 0.28,
      "mode": "Bb_phrygian",
      "bpm": 86,
      "arc": 0.136,
      "ent": 882,
      "brk": 0,
      "frameMs": 16.7
    },
    {
      "t": 358.7,
      "rD": 0.22,
      "hC": 0.35,
      "mA": 0.22,
      "tD": 0.28,
      "mode": "Bb_phrygian",
      "bpm": 86,
      "arc": 0.136,
      "ent": 918,
      "brk": 0,
      "frameMs": 16.6
    },
    {
      "t": 359.7,
      "rD": 0.22,
      "hC": 0.35,
      "mA": 0.22,
      "tD": 0.28,
      "mode": "Bb_phrygian",
      "bpm": 86,
      "arc": 0.136,
      "ent": 901,
      "brk": 0,
      "frameMs": 16.6
    },
    {
      "t": 360.7,
      "rD": 0.21,
      "hC": 0.34,
      "mA": 0.21,
      "tD": 0.27,
      "mode": "Bb_phrygian",
      "bpm": 86,
      "arc": 0.137,
      "ent": 935,
      "brk": 0,
      "frameMs": 16.6
    },
    {
      "t": 361.8,
      "rD": 0.2,
      "hC": 0.34,
      "mA": 0.21,
      "tD": 0.26,
      "mode": "Bb_phrygian",
      "bpm": 86,
      "arc": 0.137,
      "ent": 963,
      "brk": 0,
      "frameMs": 16.6
    },
    {
      "t": 362.8,
      "rD": 0.19,
      "hC": 0.33,
      "mA": 0.2,
      "tD": 0.26,
      "mode": "Bb_phrygian",
      "bpm": 86,
      "arc": 0.138,
      "ent": 955,
      "brk": 0,
      "frameMs": 16.6
    },
    {
      "t": 363.8,
      "rD": 0.18,
      "hC": 0.32,
      "mA": 0.2,
      "tD": 0.25,
      "mode": "Bb_phrygian",
      "bpm": 86,
      "arc": 0.138,
      "ent": 942,
      "brk": 0,
      "frameMs": 9.1
    },
    {
      "t": 364.8,
      "rD": 0.17,
      "hC": 0.31,
      "mA": 0.19,
      "tD": 0.24,
      "mode": "Bb_phrygian",
      "bpm": 86,
      "arc": 0.138,
      "ent": 948,
      "brk": 0,
      "frameMs": 17.1
    },
    {
      "t": 365.8,
      "rD": 0.16,
      "hC": 0.31,
      "mA": 0.19,
      "tD": 0.23,
      "mode": "Bb_phrygian",
      "bpm": 86,
      "arc": 0.139,
      "ent": 956,
      "brk": 0,
      "frameMs": 16.2
    },
    {
      "t": 366.8,
      "rD": 0.15,
      "hC": 0.3,
      "mA": 0.18,
      "tD": 0.22,
      "mode": "Bb_phrygian",
      "bpm": 86,
      "arc": 0.139,
      "ent": 928,
      "brk": 0,
      "frameMs": 15.9
    },
    {
      "t": 367.8,
      "rD": 0.14,
      "hC": 0.3,
      "mA": 0.18,
      "tD": 0.21,
      "mode": "Bb_phrygian",
      "bpm": 86,
      "arc": 0.14,
      "ent": 822,
      "brk": 0,
      "frameMs": 16.2
    },
    {
      "t": 368.8,
      "rD": 0.14,
      "hC": 0.29,
      "mA": 0.18,
      "tD": 0.21,
      "mode": "Bb_phrygian",
      "bpm": 86,
      "arc": 0.14,
      "ent": 652,
      "brk": 0,
      "frameMs": 8.4
    },
    {
      "t": 369.8,
      "rD": 0.14,
      "hC": 0.29,
      "mA": 0.18,
      "tD": 0.21,
      "mode": "Bb_phrygian",
      "bpm": 86,
      "arc": 0.14,
      "ent": 528,
      "brk": 0,
      "frameMs": 15.9
    },
    {
      "t": 370.8,
      "rD": 0.14,
      "hC": 0.3,
      "mA": 0.18,
      "tD": 0.21,
      "mode": "Bb_phrygian",
      "bpm": 86,
      "arc": 0.141,
      "ent": 436,
      "brk": 0,
      "frameMs": 17
    },
    {
      "t": 371.8,
      "rD": 0.15,
      "hC": 0.3,
      "mA": 0.18,
      "tD": 0.22,
      "mode": "Bb_phrygian",
      "bpm": 86,
      "arc": 0.141,
      "ent": 340,
      "brk": 0,
      "frameMs": 9.4
    },
    {
      "t": 372.8,
      "rD": 0.16,
      "hC": 0.31,
      "mA": 0.19,
      "tD": 0.23,
      "mode": "Bb_phrygian",
      "bpm": 86,
      "arc": 0.142,
      "ent": 443,
      "brk": 0,
      "frameMs": 16.6
    },
    {
      "t": 373.8,
      "rD": 0.17,
      "hC": 0.32,
      "mA": 0.19,
      "tD": 0.24,
      "mode": "Bb_phrygian",
      "bpm": 86,
      "arc": 0.142,
      "ent": 516,
      "brk": 0,
      "frameMs": 17.1
    },
    {
      "t": 374.8,
      "rD": 0.18,
      "hC": 0.33,
      "mA": 0.2,
      "tD": 0.25,
      "mode": "Bb_phrygian",
      "bpm": 86,
      "arc": 0.142,
      "ent": 592,
      "brk": 0,
      "frameMs": 16.7
    },
    {
      "t": 375.8,
      "rD": 0.19,
      "hC": 0.34,
      "mA": 0.2,
      "tD": 0.26,
      "mode": "Bb_phrygian",
      "bpm": 86,
      "arc": 0.143,
      "ent": 669,
      "brk": 0,
      "frameMs": 8.5
    },
    {
      "t": 376.8,
      "rD": 0.21,
      "hC": 0.35,
      "mA": 0.21,
      "tD": 0.27,
      "mode": "Bb_phrygian",
      "bpm": 86,
      "arc": 0.143,
      "ent": 756,
      "brk": 0,
      "frameMs": 16.6
    },
    {
      "t": 377.9,
      "rD": 0.22,
      "hC": 0.36,
      "mA": 0.22,
      "tD": 0.28,
      "mode": "Bb_phrygian",
      "bpm": 86,
      "arc": 0.143,
      "ent": 818,
      "brk": 0,
      "frameMs": 7.8
    },
    {
      "t": 378.9,
      "rD": 0.23,
      "hC": 0.37,
      "mA": 0.22,
      "tD": 0.29,
      "mode": "Bb_phrygian",
      "bpm": 86,
      "arc": 0.144,
      "ent": 870,
      "brk": 0,
      "frameMs": 16.8
    },
    {
      "t": 379.9,
      "rD": 0.24,
      "hC": 0.37,
      "mA": 0.23,
      "tD": 0.29,
      "mode": "Bb_phrygian",
      "bpm": 86,
      "arc": 0.144,
      "ent": 884,
      "brk": 0,
      "frameMs": 16.8
    },
    {
      "t": 380.9,
      "rD": 0.24,
      "hC": 0.37,
      "mA": 0.23,
      "tD": 0.29,
      "mode": "Bb_phrygian",
      "bpm": 86,
      "arc": 0.145,
      "ent": 892,
      "brk": 0,
      "frameMs": 17.6
    },
    {
      "t": 381.9,
      "rD": 0.24,
      "hC": 0.38,
      "mA": 0.23,
      "tD": 0.29,
      "mode": "Bb_phrygian",
      "bpm": 86,
      "arc": 0.145,
      "ent": 934,
      "brk": 0,
      "frameMs": 17.6
    },
    {
      "t": 382.9,
      "rD": 0.24,
      "hC": 0.37,
      "mA": 0.23,
      "tD": 0.29,
      "mode": "Bb_phrygian",
      "bpm": 86,
      "arc": 0.145,
      "ent": 922,
      "brk": 0,
      "frameMs": 8.3
    },
    {
      "t": 383.9,
      "rD": 0.23,
      "hC": 0.37,
      "mA": 0.22,
      "tD": 0.29,
      "mode": "Bb_phrygian",
      "bpm": 86,
      "arc": 0.146,
      "ent": 958,
      "brk": 0,
      "frameMs": 8.4
    },
    {
      "t": 384.9,
      "rD": 0.22,
      "hC": 0.36,
      "mA": 0.22,
      "tD": 0.28,
      "mode": "Bb_phrygian",
      "bpm": 86,
      "arc": 0.146,
      "ent": 962,
      "brk": 0,
      "frameMs": 16.6
    },
    {
      "t": 385.9,
      "rD": 0.21,
      "hC": 0.36,
      "mA": 0.21,
      "tD": 0.27,
      "mode": "Bb_phrygian",
      "bpm": 86,
      "arc": 0.147,
      "ent": 964,
      "brk": 0,
      "frameMs": 16.3
    },
    {
      "t": 386.9,
      "rD": 0.2,
      "hC": 0.35,
      "mA": 0.21,
      "tD": 0.26,
      "mode": "Bb_phrygian",
      "bpm": 86,
      "arc": 0.147,
      "ent": 963,
      "brk": 0,
      "frameMs": 15.1
    },
    {
      "t": 387.9,
      "rD": 0.19,
      "hC": 0.34,
      "mA": 0.2,
      "tD": 0.25,
      "mode": "Bb_phrygian",
      "bpm": 86,
      "arc": 0.147,
      "ent": 935,
      "brk": 0,
      "frameMs": 7.8
    },
    {
      "t": 388.9,
      "rD": 0.18,
      "hC": 0.33,
      "mA": 0.2,
      "tD": 0.24,
      "mode": "Bb_phrygian",
      "bpm": 86,
      "arc": 0.148,
      "ent": 943,
      "brk": 0,
      "frameMs": 17.2
    },
    {
      "t": 389.9,
      "rD": 0.17,
      "hC": 0.33,
      "mA": 0.19,
      "tD": 0.24,
      "mode": "Bb_phrygian",
      "bpm": 86,
      "arc": 0.148,
      "ent": 913,
      "brk": 0,
      "frameMs": 16.7
    },
    {
      "t": 391,
      "rD": 0.16,
      "hC": 0.32,
      "mA": 0.19,
      "tD": 0.23,
      "mode": "Bb_phrygian",
      "bpm": 86,
      "arc": 0.149,
      "ent": 909,
      "brk": 0,
      "frameMs": 15.2
    },
    {
      "t": 392,
      "rD": 0.16,
      "hC": 0.32,
      "mA": 0.19,
      "tD": 0.23,
      "mode": "Bb_phrygian",
      "bpm": 86,
      "arc": 0.149,
      "ent": 891,
      "brk": 0,
      "frameMs": 18
    },
    {
      "t": 393,
      "rD": 0.16,
      "hC": 0.32,
      "mA": 0.19,
      "tD": 0.23,
      "mode": "Bb_phrygian",
      "bpm": 86,
      "arc": 0.149,
      "ent": 904,
      "brk": 0,
      "frameMs": 8.4
    },
    {
      "t": 394,
      "rD": 0.16,
      "hC": 0.33,
      "mA": 0.19,
      "tD": 0.23,
      "mode": "Bb_phrygian",
      "bpm": 86,
      "arc": 0.15,
      "ent": 891,
      "brk": 0,
      "frameMs": 16.6
    },
    {
      "t": 395,
      "rD": 0.17,
      "hC": 0.33,
      "mA": 0.19,
      "tD": 0.24,
      "mode": "Bb_phrygian",
      "bpm": 86,
      "arc": 0.15,
      "ent": 977,
      "brk": 0,
      "frameMs": 16.7
    },
    {
      "t": 396,
      "rD": 0.18,
      "hC": 0.34,
      "mA": 0.2,
      "tD": 0.24,
      "mode": "Bb_phrygian",
      "bpm": 86,
      "arc": 0.151,
      "ent": 969,
      "brk": 0,
      "frameMs": 9
    },
    {
      "t": 397,
      "rD": 0.19,
      "hC": 0.35,
      "mA": 0.2,
      "tD": 0.25,
      "mode": "Bb_phrygian",
      "bpm": 86,
      "arc": 0.151,
      "ent": 962,
      "brk": 0,
      "frameMs": 16.7
    },
    {
      "t": 398,
      "rD": 0.2,
      "hC": 0.36,
      "mA": 0.21,
      "tD": 0.26,
      "mode": "Bb_phrygian",
      "bpm": 86,
      "arc": 0.151,
      "ent": 941,
      "brk": 0,
      "frameMs": 16.6
    },
    {
      "t": 399,
      "rD": 0.21,
      "hC": 0.37,
      "mA": 0.22,
      "tD": 0.27,
      "mode": "Bb_phrygian",
      "bpm": 86,
      "arc": 0.152,
      "ent": 910,
      "brk": 0,
      "frameMs": 8.3
    },
    {
      "t": 400,
      "rD": 0.23,
      "hC": 0.38,
      "mA": 0.22,
      "tD": 0.29,
      "mode": "Bb_phrygian",
      "bpm": 86,
      "arc": 0.152,
      "ent": 904,
      "brk": 0,
      "frameMs": 18.2
    },
    {
      "t": 401,
      "rD": 0.24,
      "hC": 0.38,
      "mA": 0.23,
      "tD": 0.29,
      "mode": "Bb_phrygian",
      "bpm": 86,
      "arc": 0.152,
      "ent": 899,
      "brk": 0,
      "frameMs": 16.7
    },
    {
      "t": 402,
      "rD": 0.25,
      "hC": 0.39,
      "mA": 0.23,
      "tD": 0.3,
      "mode": "Bb_phrygian",
      "bpm": 86,
      "arc": 0.153,
      "ent": 933,
      "brk": 0,
      "frameMs": 16.4
    },
    {
      "t": 403,
      "rD": 0.25,
      "hC": 0.4,
      "mA": 0.24,
      "tD": 0.31,
      "mode": "Bb_phrygian",
      "bpm": 86,
      "arc": 0.153,
      "ent": 968,
      "brk": 0,
      "frameMs": 17.3
    },
    {
      "t": 404,
      "rD": 0.26,
      "hC": 0.4,
      "mA": 0.24,
      "tD": 0.31,
      "mode": "Bb_phrygian",
      "bpm": 86,
      "arc": 0.154,
      "ent": 982,
      "brk": 0,
      "frameMs": 17.6
    },
    {
      "t": 405,
      "rD": 0.26,
      "hC": 0.4,
      "mA": 0.24,
      "tD": 0.31,
      "mode": "Bb_phrygian",
      "bpm": 86,
      "arc": 0.154,
      "ent": 1051,
      "brk": 0,
      "frameMs": 16.4
    },
    {
      "t": 406,
      "rD": 0.25,
      "hC": 0.4,
      "mA": 0.24,
      "tD": 0.31,
      "mode": "Bb_phrygian",
      "bpm": 86,
      "arc": 0.154,
      "ent": 1110,
      "brk": 0,
      "frameMs": 16.6
    },
    {
      "t": 407,
      "rD": 0.25,
      "hC": 0.39,
      "mA": 0.23,
      "tD": 0.3,
      "mode": "Bb_phrygian",
      "bpm": 86,
      "arc": 0.155,
      "ent": 1106,
      "brk": 0,
      "frameMs": 17.8
    },
    {
      "t": 408,
      "rD": 0.24,
      "hC": 0.39,
      "mA": 0.23,
      "tD": 0.29,
      "mode": "Bb_phrygian",
      "bpm": 86,
      "arc": 0.155,
      "ent": 1051,
      "brk": 0,
      "frameMs": 15.1
    },
    {
      "t": 409.1,
      "rD": 0.22,
      "hC": 0.38,
      "mA": 0.22,
      "tD": 0.28,
      "mode": "Bb_phrygian",
      "bpm": 86,
      "arc": 0.156,
      "ent": 1090,
      "brk": 0,
      "frameMs": 15.9
    },
    {
      "t": 410.1,
      "rD": 0.21,
      "hC": 0.37,
      "mA": 0.22,
      "tD": 0.27,
      "mode": "Bb_phrygian",
      "bpm": 86,
      "arc": 0.156,
      "ent": 1094,
      "brk": 0,
      "frameMs": 18.2
    },
    {
      "t": 411.1,
      "rD": 0.2,
      "hC": 0.36,
      "mA": 0.21,
      "tD": 0.26,
      "mode": "Bb_phrygian",
      "bpm": 86,
      "arc": 0.156,
      "ent": 1110,
      "brk": 0,
      "frameMs": 16.9
    },
    {
      "t": 412.1,
      "rD": 0.19,
      "hC": 0.35,
      "mA": 0.2,
      "tD": 0.25,
      "mode": "Bb_phrygian",
      "bpm": 86,
      "arc": 0.157,
      "ent": 1050,
      "brk": 0,
      "frameMs": 9.6
    },
    {
      "t": 413.1,
      "rD": 0.18,
      "hC": 0.35,
      "mA": 0.2,
      "tD": 0.25,
      "mode": "Bb_phrygian",
      "bpm": 86,
      "arc": 0.157,
      "ent": 1054,
      "brk": 0,
      "frameMs": 16.4
    },
    {
      "t": 414.1,
      "rD": 0.17,
      "hC": 0.34,
      "mA": 0.2,
      "tD": 0.24,
      "mode": "Bb_phrygian",
      "bpm": 86,
      "arc": 0.158,
      "ent": 1059,
      "brk": 0,
      "frameMs": 15.8
    },
    {
      "t": 415.1,
      "rD": 0.17,
      "hC": 0.34,
      "mA": 0.19,
      "tD": 0.24,
      "mode": "Bb_phrygian",
      "bpm": 86,
      "arc": 0.158,
      "ent": 1005,
      "brk": 0,
      "frameMs": 16.6
    },
    {
      "t": 416.1,
      "rD": 0.17,
      "hC": 0.34,
      "mA": 0.19,
      "tD": 0.24,
      "mode": "Bb_phrygian",
      "bpm": 86,
      "arc": 0.158,
      "ent": 1017,
      "brk": 0,
      "frameMs": 16.1
    },
    {
      "t": 417.1,
      "rD": 0.17,
      "hC": 0.34,
      "mA": 0.2,
      "tD": 0.24,
      "mode": "Bb_phrygian",
      "bpm": 86,
      "arc": 0.159,
      "ent": 998,
      "brk": 0,
      "frameMs": 15.1
    },
    {
      "t": 418.1,
      "rD": 0.18,
      "hC": 0.35,
      "mA": 0.2,
      "tD": 0.25,
      "mode": "Bb_phrygian",
      "bpm": 86,
      "arc": 0.159,
      "ent": 977,
      "brk": 0,
      "frameMs": 17.6
    },
    {
      "t": 419.1,
      "rD": 0.19,
      "hC": 0.36,
      "mA": 0.2,
      "tD": 0.26,
      "mode": "Bb_phrygian",
      "bpm": 86,
      "arc": 0.159,
      "ent": 979,
      "brk": 0,
      "frameMs": 18.2
    },
    {
      "t": 420.1,
      "rD": 0.2,
      "hC": 0.37,
      "mA": 0.21,
      "tD": 0.26,
      "mode": "Bb_phrygian",
      "bpm": 86,
      "arc": 0.16,
      "ent": 970,
      "brk": 0,
      "frameMs": 16.7
    },
    {
      "t": 421.1,
      "rD": 0.21,
      "hC": 0.37,
      "mA": 0.22,
      "tD": 0.28,
      "mode": "Bb_phrygian",
      "bpm": 86,
      "arc": 0.16,
      "ent": 931,
      "brk": 0,
      "frameMs": 8.3
    },
    {
      "t": 422.1,
      "rD": 0.23,
      "hC": 0.38,
      "mA": 0.22,
      "tD": 0.29,
      "mode": "Bb_phrygian",
      "bpm": 86,
      "arc": 0.161,
      "ent": 940,
      "brk": 0,
      "frameMs": 16.9
    },
    {
      "t": 423.1,
      "rD": 0.24,
      "hC": 0.39,
      "mA": 0.23,
      "tD": 0.3,
      "mode": "Bb_phrygian",
      "bpm": 86,
      "arc": 0.161,
      "ent": 964,
      "brk": 0,
      "frameMs": 9.8
    },
    {
      "t": 424.1,
      "rD": 0.25,
      "hC": 0.4,
      "mA": 0.24,
      "tD": 0.3,
      "mode": "Bb_phrygian",
      "bpm": 86,
      "arc": 0.161,
      "ent": 946,
      "brk": 1,
      "frameMs": 16.6
    },
    {
      "t": 425.2,
      "rD": 0.26,
      "hC": 0.41,
      "mA": 0.24,
      "tD": 0.31,
      "mode": "Bb_phrygian",
      "bpm": 86,
      "arc": 0.162,
      "ent": 999,
      "brk": 1,
      "frameMs": 17.6
    },
    {
      "t": 426.2,
      "rD": 0.26,
      "hC": 0.41,
      "mA": 0.24,
      "tD": 0.32,
      "mode": "Bb_phrygian",
      "bpm": 86,
      "arc": 0.162,
      "ent": 957,
      "brk": 1,
      "frameMs": 16.6
    },
    {
      "t": 427.2,
      "rD": 0.27,
      "hC": 0.41,
      "mA": 0.24,
      "tD": 0.32,
      "mode": "Bb_phrygian",
      "bpm": 86,
      "arc": 0.163,
      "ent": 936,
      "brk": 1,
      "frameMs": 16.7
    },
    {
      "t": 428.2,
      "rD": 0.27,
      "hC": 0.41,
      "mA": 0.24,
      "tD": 0.32,
      "mode": "Bb_phrygian",
      "bpm": 86,
      "arc": 0.163,
      "ent": 1002,
      "brk": 1,
      "frameMs": 16.7
    },
    {
      "t": 429.2,
      "rD": 0.26,
      "hC": 0.41,
      "mA": 0.24,
      "tD": 0.31,
      "mode": "Bb_phrygian",
      "bpm": 86,
      "arc": 0.163,
      "ent": 993,
      "brk": 1,
      "frameMs": 25.7
    },
    {
      "t": 430.2,
      "rD": 0.25,
      "hC": 0.4,
      "mA": 0.24,
      "tD": 0.31,
      "mode": "Bb_phrygian",
      "bpm": 86,
      "arc": 0.164,
      "ent": 999,
      "brk": 1,
      "frameMs": 16.4
    },
    {
      "t": 431.2,
      "rD": 0.24,
      "hC": 0.39,
      "mA": 0.23,
      "tD": 0.3,
      "mode": "Bb_phrygian",
      "bpm": 86,
      "arc": 0.164,
      "ent": 977,
      "brk": 1,
      "frameMs": 25.5
    },
    {
      "t": 432.2,
      "rD": 0.23,
      "hC": 0.39,
      "mA": 0.22,
      "tD": 0.29,
      "mode": "Bb_phrygian",
      "bpm": 86,
      "arc": 0.165,
      "ent": 910,
      "brk": 0,
      "frameMs": 16.6
    },
    {
      "t": 433.2,
      "rD": 0.22,
      "hC": 0.38,
      "mA": 0.22,
      "tD": 0.28,
      "mode": "Bb_phrygian",
      "bpm": 86,
      "arc": 0.165,
      "ent": 845,
      "brk": 0,
      "frameMs": 17.4
    },
    {
      "t": 434.3,
      "rD": 0.2,
      "hC": 0.37,
      "mA": 0.21,
      "tD": 0.27,
      "mode": "Bb_phrygian",
      "bpm": 86,
      "arc": 0.165,
      "ent": 875,
      "brk": 0,
      "frameMs": 17.3
    },
    {
      "t": 435.3,
      "rD": 0.19,
      "hC": 0.36,
      "mA": 0.21,
      "tD": 0.26,
      "mode": "Bb_phrygian",
      "bpm": 86,
      "arc": 0.166,
      "ent": 856,
      "brk": 0,
      "frameMs": 15.2
    },
    {
      "t": 436.3,
      "rD": 0.18,
      "hC": 0.36,
      "mA": 0.2,
      "tD": 0.25,
      "mode": "Bb_phrygian",
      "bpm": 86,
      "arc": 0.166,
      "ent": 856,
      "brk": 0,
      "frameMs": 16.4
    },
    {
      "t": 437.3,
      "rD": 0.18,
      "hC": 0.35,
      "mA": 0.2,
      "tD": 0.25,
      "mode": "Bb_phrygian",
      "bpm": 86,
      "arc": 0.167,
      "ent": 870,
      "brk": 0,
      "frameMs": 17
    },
    {
      "t": 438.3,
      "rD": 0.18,
      "hC": 0.35,
      "mA": 0.2,
      "tD": 0.24,
      "mode": "Bb_phrygian",
      "bpm": 86,
      "arc": 0.167,
      "ent": 907,
      "brk": 0,
      "frameMs": 7.2
    },
    {
      "t": 439.3,
      "rD": 0.18,
      "hC": 0.35,
      "mA": 0.2,
      "tD": 0.24,
      "mode": "Bb_phrygian",
      "bpm": 86,
      "arc": 0.167,
      "ent": 947,
      "brk": 0,
      "frameMs": 8
    },
    {
      "t": 440.3,
      "rD": 0.18,
      "hC": 0.36,
      "mA": 0.2,
      "tD": 0.25,
      "mode": "Bb_phrygian",
      "bpm": 86,
      "arc": 0.168,
      "ent": 950,
      "brk": 0,
      "frameMs": 16.4
    },
    {
      "t": 441.3,
      "rD": 0.19,
      "hC": 0.36,
      "mA": 0.21,
      "tD": 0.25,
      "mode": "Bb_phrygian",
      "bpm": 86,
      "arc": 0.168,
      "ent": 953,
      "brk": 0,
      "frameMs": 17
    },
    {
      "t": 442.3,
      "rD": 0.2,
      "hC": 0.37,
      "mA": 0.21,
      "tD": 0.26,
      "mode": "Bb_phrygian",
      "bpm": 86,
      "arc": 0.168,
      "ent": 967,
      "brk": 0,
      "frameMs": 16.5
    },
    {
      "t": 443.3,
      "rD": 0.22,
      "hC": 0.38,
      "mA": 0.22,
      "tD": 0.27,
      "mode": "Bb_phrygian",
      "bpm": 86,
      "arc": 0.169,
      "ent": 938,
      "brk": 0,
      "frameMs": 24.2
    },
    {
      "t": 444.3,
      "rD": 0.23,
      "hC": 0.39,
      "mA": 0.23,
      "tD": 0.28,
      "mode": "Bb_phrygian",
      "bpm": 86,
      "arc": 0.169,
      "ent": 915,
      "brk": 0,
      "frameMs": 8.3
    },
    {
      "t": 445.3,
      "rD": 0.24,
      "hC": 0.4,
      "mA": 0.24,
      "tD": 0.29,
      "mode": "Bb_phrygian",
      "bpm": 86,
      "arc": 0.17,
      "ent": 914,
      "brk": 0,
      "frameMs": 16.8
    },
    {
      "t": 446.3,
      "rD": 0.26,
      "hC": 0.41,
      "mA": 0.24,
      "tD": 0.3,
      "mode": "Bb_phrygian",
      "bpm": 86,
      "arc": 0.17,
      "ent": 931,
      "brk": 0,
      "frameMs": 16.9
    },
    {
      "t": 447.4,
      "rD": 0.27,
      "hC": 0.42,
      "mA": 0.25,
      "tD": 0.31,
      "mode": "Bb_phrygian",
      "bpm": 86,
      "arc": 0.17,
      "ent": 961,
      "brk": 0,
      "frameMs": 16.8
    },
    {
      "t": 448.4,
      "rD": 0.28,
      "hC": 0.43,
      "mA": 0.26,
      "tD": 0.32,
      "mode": "Bb_phrygian",
      "bpm": 86,
      "arc": 0.171,
      "ent": 914,
      "brk": 0,
      "frameMs": 17.9
    },
    {
      "t": 449.4,
      "rD": 0.29,
      "hC": 0.43,
      "mA": 0.26,
      "tD": 0.33,
      "mode": "Bb_phrygian",
      "bpm": 86,
      "arc": 0.171,
      "ent": 935,
      "brk": 0,
      "frameMs": 8.2
    },
    {
      "t": 450.4,
      "rD": 0.29,
      "hC": 0.44,
      "mA": 0.26,
      "tD": 0.33,
      "mode": "Bb_phrygian",
      "bpm": 86,
      "arc": 0.172,
      "ent": 993,
      "brk": 0,
      "frameMs": 7.1
    },
    {
      "t": 451.4,
      "rD": 0.29,
      "hC": 0.44,
      "mA": 0.26,
      "tD": 0.33,
      "mode": "Bb_phrygian",
      "bpm": 86,
      "arc": 0.172,
      "ent": 1041,
      "brk": 0,
      "frameMs": 16.6
    },
    {
      "t": 452.4,
      "rD": 0.29,
      "hC": 0.43,
      "mA": 0.26,
      "tD": 0.32,
      "mode": "Bb_phrygian",
      "bpm": 86,
      "arc": 0.172,
      "ent": 1069,
      "brk": 0,
      "frameMs": 16.9
    },
    {
      "t": 453.4,
      "rD": 0.28,
      "hC": 0.43,
      "mA": 0.26,
      "tD": 0.32,
      "mode": "Bb_phrygian",
      "bpm": 86,
      "arc": 0.173,
      "ent": 1042,
      "brk": 0,
      "frameMs": 16.8
    },
    {
      "t": 454.4,
      "rD": 0.27,
      "hC": 0.43,
      "mA": 0.26,
      "tD": 0.31,
      "mode": "Bb_phrygian",
      "bpm": 86,
      "arc": 0.173,
      "ent": 1017,
      "brk": 0,
      "frameMs": 16.6
    },
    {
      "t": 455.4,
      "rD": 0.26,
      "hC": 0.42,
      "mA": 0.25,
      "tD": 0.3,
      "mode": "Bb_phrygian",
      "bpm": 86,
      "arc": 0.174,
      "ent": 1056,
      "brk": 0,
      "frameMs": 16.7
    },
    {
      "t": 456.4,
      "rD": 0.25,
      "hC": 0.41,
      "mA": 0.25,
      "tD": 0.29,
      "mode": "Bb_phrygian",
      "bpm": 86,
      "arc": 0.174,
      "ent": 1092,
      "brk": 0,
      "frameMs": 17
    },
    {
      "t": 457.4,
      "rD": 0.24,
      "hC": 0.41,
      "mA": 0.24,
      "tD": 0.28,
      "mode": "Bb_phrygian",
      "bpm": 86,
      "arc": 0.174,
      "ent": 1080,
      "brk": 0,
      "frameMs": 17.7
    },
    {
      "t": 458.4,
      "rD": 0.23,
      "hC": 0.4,
      "mA": 0.24,
      "tD": 0.27,
      "mode": "Bb_phrygian",
      "bpm": 86,
      "arc": 0.175,
      "ent": 1048,
      "brk": 0,
      "frameMs": 16.7
    },
    {
      "t": 459.5,
      "rD": 0.23,
      "hC": 0.4,
      "mA": 0.24,
      "tD": 0.27,
      "mode": "Bb_phrygian",
      "bpm": 86,
      "arc": 0.175,
      "ent": 1042,
      "brk": 0,
      "frameMs": 14.6
    },
    {
      "t": 460.5,
      "rD": 0.22,
      "hC": 0.4,
      "mA": 0.23,
      "tD": 0.26,
      "mode": "Bb_phrygian",
      "bpm": 86,
      "arc": 0.176,
      "ent": 1073,
      "brk": 0,
      "frameMs": 15.8
    },
    {
      "t": 461.5,
      "rD": 0.22,
      "hC": 0.4,
      "mA": 0.24,
      "tD": 0.26,
      "mode": "Bb_phrygian",
      "bpm": 86,
      "arc": 0.176,
      "ent": 1112,
      "brk": 0,
      "frameMs": 7.5
    },
    {
      "t": 462.5,
      "rD": 0.23,
      "hC": 0.4,
      "mA": 0.24,
      "tD": 0.26,
      "mode": "Bb_phrygian",
      "bpm": 86,
      "arc": 0.176,
      "ent": 1120,
      "brk": 0,
      "frameMs": 8.3
    },
    {
      "t": 463.5,
      "rD": 0.23,
      "hC": 0.4,
      "mA": 0.24,
      "tD": 0.27,
      "mode": "Bb_phrygian",
      "bpm": 86,
      "arc": 0.177,
      "ent": 1089,
      "brk": 0,
      "frameMs": 16.7
    },
    {
      "t": 464.5,
      "rD": 0.24,
      "hC": 0.41,
      "mA": 0.25,
      "tD": 0.28,
      "mode": "Bb_phrygian",
      "bpm": 86,
      "arc": 0.177,
      "ent": 1083,
      "brk": 0,
      "frameMs": 15.9
    },
    {
      "t": 465.5,
      "rD": 0.25,
      "hC": 0.42,
      "mA": 0.26,
      "tD": 0.28,
      "mode": "Bb_phrygian",
      "bpm": 86,
      "arc": 0.177,
      "ent": 1082,
      "brk": 0,
      "frameMs": 15.3
    },
    {
      "t": 466.5,
      "rD": 0.27,
      "hC": 0.43,
      "mA": 0.26,
      "tD": 0.29,
      "mode": "Bb_phrygian",
      "bpm": 86,
      "arc": 0.178,
      "ent": 1060,
      "brk": 0,
      "frameMs": 17
    },
    {
      "t": 467.5,
      "rD": 0.28,
      "hC": 0.44,
      "mA": 0.27,
      "tD": 0.31,
      "mode": "Bb_phrygian",
      "bpm": 86,
      "arc": 0.178,
      "ent": 1035,
      "brk": 0,
      "frameMs": 17.8
    },
    {
      "t": 468.5,
      "rD": 0.3,
      "hC": 0.46,
      "mA": 0.28,
      "tD": 0.32,
      "mode": "Bb_phrygian",
      "bpm": 86,
      "arc": 0.179,
      "ent": 1046,
      "brk": 0,
      "frameMs": 16.8
    },
    {
      "t": 469.5,
      "rD": 0.31,
      "hC": 0.47,
      "mA": 0.29,
      "tD": 0.33,
      "mode": "Bb_phrygian",
      "bpm": 86,
      "arc": 0.179,
      "ent": 1051,
      "brk": 0,
      "frameMs": 8.3
    },
    {
      "t": 470.5,
      "rD": 0.33,
      "hC": 0.48,
      "mA": 0.29,
      "tD": 0.34,
      "mode": "Bb_phrygian",
      "bpm": 86,
      "arc": 0.179,
      "ent": 1075,
      "brk": 0,
      "frameMs": 16.4
    },
    {
      "t": 471.5,
      "rD": 0.34,
      "hC": 0.48,
      "mA": 0.3,
      "tD": 0.34,
      "mode": "Bb_phrygian",
      "bpm": 86,
      "arc": 0.18,
      "ent": 1093,
      "brk": 0,
      "frameMs": 15.7
    },
    {
      "t": 472.5,
      "rD": 0.34,
      "hC": 0.49,
      "mA": 0.3,
      "tD": 0.35,
      "mode": "Bb_phrygian",
      "bpm": 86,
      "arc": 0.18,
      "ent": 1111,
      "brk": 0,
      "frameMs": 9.1
    },
    {
      "t": 473.5,
      "rD": 0.34,
      "hC": 0.49,
      "mA": 0.31,
      "tD": 0.35,
      "mode": "Bb_phrygian",
      "bpm": 86,
      "arc": 0.181,
      "ent": 1127,
      "brk": 0,
      "frameMs": 8
    },
    {
      "t": 474.6,
      "rD": 0.34,
      "hC": 0.49,
      "mA": 0.31,
      "tD": 0.35,
      "mode": "Bb_phrygian",
      "bpm": 86,
      "arc": 0.181,
      "ent": 1114,
      "brk": 1,
      "frameMs": 16.5
    },
    {
      "t": 475.6,
      "rD": 0.34,
      "hC": 0.49,
      "mA": 0.3,
      "tD": 0.34,
      "mode": "Bb_phrygian",
      "bpm": 86,
      "arc": 0.181,
      "ent": 1079,
      "brk": 1,
      "frameMs": 16.9
    },
    {
      "t": 476.6,
      "rD": 0.33,
      "hC": 0.48,
      "mA": 0.3,
      "tD": 0.34,
      "mode": "Bb_phrygian",
      "bpm": 86,
      "arc": 0.182,
      "ent": 1059,
      "brk": 1,
      "frameMs": 16.6
    },
    {
      "t": 477.6,
      "rD": 0.32,
      "hC": 0.48,
      "mA": 0.3,
      "tD": 0.33,
      "mode": "Bb_phrygian",
      "bpm": 86,
      "arc": 0.182,
      "ent": 1067,
      "brk": 1,
      "frameMs": 16.6
    },
    {
      "t": 478.6,
      "rD": 0.31,
      "hC": 0.47,
      "mA": 0.29,
      "tD": 0.32,
      "mode": "Bb_phrygian",
      "bpm": 86,
      "arc": 0.183,
      "ent": 1092,
      "brk": 1,
      "frameMs": 16.3
    },
    {
      "t": 479.6,
      "rD": 0.3,
      "hC": 0.46,
      "mA": 0.29,
      "tD": 0.31,
      "mode": "Bb_phrygian",
      "bpm": 86,
      "arc": 0.183,
      "ent": 1013,
      "brk": 1,
      "frameMs": 17.2
    },
    {
      "t": 480.6,
      "rD": 0.29,
      "hC": 0.46,
      "mA": 0.28,
      "tD": 0.3,
      "mode": "Bb_phrygian",
      "bpm": 86,
      "arc": 0.183,
      "ent": 1015,
      "brk": 1,
      "frameMs": 15.3
    },
    {
      "t": 481.6,
      "rD": 0.28,
      "hC": 0.45,
      "mA": 0.28,
      "tD": 0.29,
      "mode": "Bb_phrygian",
      "bpm": 86,
      "arc": 0.184,
      "ent": 995,
      "brk": 1,
      "frameMs": 24.8
    },
    {
      "t": 482.6,
      "rD": 0.27,
      "hC": 0.45,
      "mA": 0.27,
      "tD": 0.29,
      "mode": "Bb_phrygian",
      "bpm": 86,
      "arc": 0.184,
      "ent": 976,
      "brk": 1,
      "frameMs": 17.3
    },
    {
      "t": 483.6,
      "rD": 0.27,
      "hC": 0.44,
      "mA": 0.27,
      "tD": 0.28,
      "mode": "Bb_phrygian",
      "bpm": 86,
      "arc": 0.184,
      "ent": 953,
      "brk": 1,
      "frameMs": 16.8
    },
    {
      "t": 484.7,
      "rD": 0.27,
      "hC": 0.44,
      "mA": 0.27,
      "tD": 0.28,
      "mode": "Bb_phrygian",
      "bpm": 86,
      "arc": 0.185,
      "ent": 939,
      "brk": 1,
      "frameMs": 16.6
    },
    {
      "t": 485.7,
      "rD": 0.27,
      "hC": 0.44,
      "mA": 0.27,
      "tD": 0.28,
      "mode": "Bb_phrygian",
      "bpm": 86,
      "arc": 0.185,
      "ent": 966,
      "brk": 0,
      "frameMs": 16.7
    },
    {
      "t": 486.7,
      "rD": 0.28,
      "hC": 0.45,
      "mA": 0.28,
      "tD": 0.29,
      "mode": "Bb_phrygian",
      "bpm": 86,
      "arc": 0.186,
      "ent": 976,
      "brk": 0,
      "frameMs": 17.6
    },
    {
      "t": 487.7,
      "rD": 0.29,
      "hC": 0.46,
      "mA": 0.28,
      "tD": 0.29,
      "mode": "Bb_phrygian",
      "bpm": 86,
      "arc": 0.186,
      "ent": 955,
      "brk": 0,
      "frameMs": 17
    },
    {
      "t": 488.7,
      "rD": 0.3,
      "hC": 0.46,
      "mA": 0.29,
      "tD": 0.3,
      "mode": "Bb_phrygian",
      "bpm": 86,
      "arc": 0.186,
      "ent": 1011,
      "brk": 0,
      "frameMs": 16.7
    },
    {
      "t": 489.7,
      "rD": 0.31,
      "hC": 0.47,
      "mA": 0.29,
      "tD": 0.31,
      "mode": "Bb_phrygian",
      "bpm": 86,
      "arc": 0.187,
      "ent": 1051,
      "brk": 0,
      "frameMs": 16.6
    },
    {
      "t": 490.7,
      "rD": 0.32,
      "hC": 0.48,
      "mA": 0.3,
      "tD": 0.32,
      "mode": "Bb_phrygian",
      "bpm": 86,
      "arc": 0.187,
      "ent": 1067,
      "brk": 0,
      "frameMs": 16.7
    },
    {
      "t": 491.7,
      "rD": 0.34,
      "hC": 0.49,
      "mA": 0.31,
      "tD": 0.33,
      "mode": "Bb_phrygian",
      "bpm": 86,
      "arc": 0.188,
      "ent": 1054,
      "brk": 0,
      "frameMs": 16.1
    },
    {
      "t": 492.7,
      "rD": 0.35,
      "hC": 0.5,
      "mA": 0.31,
      "tD": 0.34,
      "mode": "Bb_phrygian",
      "bpm": 86,
      "arc": 0.188,
      "ent": 1091,
      "brk": 0,
      "frameMs": 16.3
    },
    {
      "t": 493.7,
      "rD": 0.36,
      "hC": 0.51,
      "mA": 0.32,
      "tD": 0.35,
      "mode": "Bb_phrygian",
      "bpm": 86,
      "arc": 0.188,
      "ent": 1093,
      "brk": 0,
      "frameMs": 16.6
    },
    {
      "t": 494.7,
      "rD": 0.36,
      "hC": 0.51,
      "mA": 0.32,
      "tD": 0.35,
      "mode": "Bb_phrygian",
      "bpm": 86,
      "arc": 0.189,
      "ent": 1094,
      "brk": 0,
      "frameMs": 16.3
    },
    {
      "t": 495.7,
      "rD": 0.37,
      "hC": 0.51,
      "mA": 0.32,
      "tD": 0.36,
      "mode": "Bb_phrygian",
      "bpm": 86,
      "arc": 0.189,
      "ent": 1097,
      "brk": 0,
      "frameMs": 16.6
    },
    {
      "t": 496.8,
      "rD": 0.37,
      "hC": 0.51,
      "mA": 0.32,
      "tD": 0.36,
      "mode": "Bb_phrygian",
      "bpm": 86,
      "arc": 0.19,
      "ent": 1142,
      "brk": 0,
      "frameMs": 15.6
    },
    {
      "t": 497.8,
      "rD": 0.36,
      "hC": 0.51,
      "mA": 0.32,
      "tD": 0.35,
      "mode": "Bb_phrygian",
      "bpm": 86,
      "arc": 0.19,
      "ent": 1127,
      "brk": 0,
      "frameMs": 16.6
    },
    {
      "t": 498.8,
      "rD": 0.36,
      "hC": 0.51,
      "mA": 0.32,
      "tD": 0.35,
      "mode": "Bb_phrygian",
      "bpm": 86,
      "arc": 0.19,
      "ent": 1130,
      "brk": 0,
      "frameMs": 25.5
    },
    {
      "t": 499.8,
      "rD": 0.35,
      "hC": 0.5,
      "mA": 0.31,
      "tD": 0.34,
      "mode": "Bb_phrygian",
      "bpm": 86,
      "arc": 0.191,
      "ent": 1131,
      "brk": 0,
      "frameMs": 16.5
    },
    {
      "t": 500.8,
      "rD": 0.34,
      "hC": 0.49,
      "mA": 0.31,
      "tD": 0.33,
      "mode": "Bb_phrygian",
      "bpm": 86,
      "arc": 0.191,
      "ent": 1087,
      "brk": 0,
      "frameMs": 16.5
    },
    {
      "t": 501.8,
      "rD": 0.32,
      "hC": 0.48,
      "mA": 0.3,
      "tD": 0.32,
      "mode": "Bb_phrygian",
      "bpm": 86,
      "arc": 0.192,
      "ent": 1080,
      "brk": 0,
      "frameMs": 24
    },
    {
      "t": 502.8,
      "rD": 0.31,
      "hC": 0.47,
      "mA": 0.29,
      "tD": 0.31,
      "mode": "Bb_phrygian",
      "bpm": 86,
      "arc": 0.192,
      "ent": 1052,
      "brk": 0,
      "frameMs": 25.4
    },
    {
      "t": 503.8,
      "rD": 0.3,
      "hC": 0.46,
      "mA": 0.29,
      "tD": 0.3,
      "mode": "Bb_phrygian",
      "bpm": 86,
      "arc": 0.192,
      "ent": 1088,
      "brk": 0,
      "frameMs": 25.3
    },
    {
      "t": 504.9,
      "rD": 0.29,
      "hC": 0.46,
      "mA": 0.28,
      "tD": 0.29,
      "mode": "Bb_phrygian",
      "bpm": 86,
      "arc": 0.193,
      "ent": 1048,
      "brk": 0,
      "frameMs": 9.4
    },
    {
      "t": 505.9,
      "rD": 0.28,
      "hC": 0.45,
      "mA": 0.28,
      "tD": 0.29,
      "mode": "Bb_phrygian",
      "bpm": 86,
      "arc": 0.193,
      "ent": 1010,
      "brk": 0,
      "frameMs": 10.3
    },
    {
      "t": 506.9,
      "rD": 0.28,
      "hC": 0.45,
      "mA": 0.28,
      "tD": 0.28,
      "mode": "Bb_phrygian",
      "bpm": 86,
      "arc": 0.194,
      "ent": 1051,
      "brk": 0,
      "frameMs": 16.7
    },
    {
      "t": 507.9,
      "rD": 0.28,
      "hC": 0.45,
      "mA": 0.28,
      "tD": 0.28,
      "mode": "Bb_phrygian",
      "bpm": 86,
      "arc": 0.194,
      "ent": 1049,
      "brk": 0,
      "frameMs": 16.4
    },
    {
      "t": 508.9,
      "rD": 0.28,
      "hC": 0.45,
      "mA": 0.28,
      "tD": 0.29,
      "mode": "Bb_phrygian",
      "bpm": 86,
      "arc": 0.194,
      "ent": 1069,
      "brk": 0,
      "frameMs": 17
    },
    {
      "t": 509.9,
      "rD": 0.28,
      "hC": 0.45,
      "mA": 0.28,
      "tD": 0.29,
      "mode": "Bb_phrygian",
      "bpm": 86,
      "arc": 0.195,
      "ent": 1068,
      "brk": 0,
      "frameMs": 16.6
    },
    {
      "t": 510.9,
      "rD": 0.29,
      "hC": 0.46,
      "mA": 0.29,
      "tD": 0.3,
      "mode": "Bb_phrygian",
      "bpm": 86,
      "arc": 0.195,
      "ent": 1038,
      "brk": 0,
      "frameMs": 16.7
    },
    {
      "t": 511.9,
      "rD": 0.3,
      "hC": 0.47,
      "mA": 0.29,
      "tD": 0.31,
      "mode": "Bb_phrygian",
      "bpm": 86,
      "arc": 0.195,
      "ent": 1072,
      "brk": 0,
      "frameMs": 16.1
    },
    {
      "t": 512.9,
      "rD": 0.32,
      "hC": 0.48,
      "mA": 0.3,
      "tD": 0.32,
      "mode": "Bb_phrygian",
      "bpm": 86,
      "arc": 0.196,
      "ent": 1115,
      "brk": 0,
      "frameMs": 16.6
    },
    {
      "t": 513.9,
      "rD": 0.33,
      "hC": 0.49,
      "mA": 0.31,
      "tD": 0.33,
      "mode": "Bb_phrygian",
      "bpm": 86,
      "arc": 0.196,
      "ent": 1104,
      "brk": 0,
      "frameMs": 18.1
    },
    {
      "t": 515,
      "rD": 0.34,
      "hC": 0.5,
      "mA": 0.31,
      "tD": 0.34,
      "mode": "Bb_phrygian",
      "bpm": 86,
      "arc": 0.197,
      "ent": 1069,
      "brk": 0,
      "frameMs": 16.7
    },
    {
      "t": 516,
      "rD": 0.36,
      "hC": 0.5,
      "mA": 0.32,
      "tD": 0.35,
      "mode": "Bb_phrygian",
      "bpm": 86,
      "arc": 0.197,
      "ent": 1071,
      "brk": 0,
      "frameMs": 16.3
    },
    {
      "t": 517,
      "rD": 0.36,
      "hC": 0.51,
      "mA": 0.32,
      "tD": 0.35,
      "mode": "Bb_phrygian",
      "bpm": 86,
      "arc": 0.197,
      "ent": 1073,
      "brk": 0,
      "frameMs": 9.8
    },
    {
      "t": 518,
      "rD": 0.37,
      "hC": 0.52,
      "mA": 0.33,
      "tD": 0.36,
      "mode": "Bb_phrygian",
      "bpm": 86,
      "arc": 0.198,
      "ent": 1065,
      "brk": 0,
      "frameMs": 23.4
    },
    {
      "t": 519,
      "rD": 0.37,
      "hC": 0.52,
      "mA": 0.33,
      "tD": 0.36,
      "mode": "Bb_phrygian",
      "bpm": 86,
      "arc": 0.198,
      "ent": 1081,
      "brk": 0,
      "frameMs": 16.7
    },
    {
      "t": 520,
      "rD": 0.37,
      "hC": 0.52,
      "mA": 0.33,
      "tD": 0.36,
      "mode": "Bb_phrygian",
      "bpm": 86,
      "arc": 0.199,
      "ent": 1060,
      "brk": 0,
      "frameMs": 16.8
    },
    {
      "t": 521,
      "rD": 0.37,
      "hC": 0.51,
      "mA": 0.33,
      "tD": 0.36,
      "mode": "Bb_phrygian",
      "bpm": 86,
      "arc": 0.199,
      "ent": 1040,
      "brk": 0,
      "frameMs": 16.7
    },
    {
      "t": 522,
      "rD": 0.36,
      "hC": 0.51,
      "mA": 0.32,
      "tD": 0.35,
      "mode": "Bb_phrygian",
      "bpm": 86,
      "arc": 0.199,
      "ent": 1070,
      "brk": 0,
      "frameMs": 16.7
    },
    {
      "t": 523,
      "rD": 0.35,
      "hC": 0.5,
      "mA": 0.32,
      "tD": 0.34,
      "mode": "Bb_phrygian",
      "bpm": 86,
      "arc": 0.2,
      "ent": 1003,
      "brk": 0,
      "frameMs": 24.8
    },
    {
      "t": 524,
      "rD": 0.34,
      "hC": 0.49,
      "mA": 0.31,
      "tD": 0.33,
      "mode": "Bb_phrygian",
      "bpm": 86,
      "arc": 0.2,
      "ent": 949,
      "brk": 0,
      "frameMs": 23.7
    },
    {
      "t": 525,
      "rD": 0.33,
      "hC": 0.49,
      "mA": 0.3,
      "tD": 0.32,
      "mode": "Bb_phrygian",
      "bpm": 86,
      "arc": 0.201,
      "ent": 954,
      "brk": 0,
      "frameMs": 24
    },
    {
      "t": 526,
      "rD": 0.32,
      "hC": 0.48,
      "mA": 0.3,
      "tD": 0.31,
      "mode": "Bb_phrygian",
      "bpm": 86,
      "arc": 0.201,
      "ent": 961,
      "brk": 0,
      "frameMs": 25
    },
    {
      "t": 527,
      "rD": 0.31,
      "hC": 0.47,
      "mA": 0.29,
      "tD": 0.3,
      "mode": "Bb_phrygian",
      "bpm": 86,
      "arc": 0.201,
      "ent": 1010,
      "brk": 0,
      "frameMs": 16.7
    },
    {
      "t": 528,
      "rD": 0.3,
      "hC": 0.46,
      "mA": 0.29,
      "tD": 0.3,
      "mode": "Bb_phrygian",
      "bpm": 86,
      "arc": 0.202,
      "ent": 1029,
      "brk": 0,
      "frameMs": 17.1
    },
    {
      "t": 529,
      "rD": 0.29,
      "hC": 0.46,
      "mA": 0.29,
      "tD": 0.29,
      "mode": "Bb_phrygian",
      "bpm": 86,
      "arc": 0.202,
      "ent": 1058,
      "brk": 0,
      "frameMs": 16.6
    },
    {
      "t": 530.1,
      "rD": 0.29,
      "hC": 0.46,
      "mA": 0.28,
      "tD": 0.29,
      "mode": "Bb_phrygian",
      "bpm": 86,
      "arc": 0.202,
      "ent": 1096,
      "brk": 0,
      "frameMs": 16.5
    },
    {
      "t": 531.1,
      "rD": 0.29,
      "hC": 0.46,
      "mA": 0.28,
      "tD": 0.29,
      "mode": "Bb_phrygian",
      "bpm": 86,
      "arc": 0.203,
      "ent": 1120,
      "brk": 0,
      "frameMs": 26
    },
    {
      "t": 532.1,
      "rD": 0.29,
      "hC": 0.46,
      "mA": 0.29,
      "tD": 0.29,
      "mode": "Bb_phrygian",
      "bpm": 86,
      "arc": 0.203,
      "ent": 1094,
      "brk": 0,
      "frameMs": 24.8
    },
    {
      "t": 533.1,
      "rD": 0.3,
      "hC": 0.46,
      "mA": 0.29,
      "tD": 0.3,
      "mode": "Bb_phrygian",
      "bpm": 86,
      "arc": 0.204,
      "ent": 1088,
      "brk": 0,
      "frameMs": 16.4
    },
    {
      "t": 534.1,
      "rD": 0.31,
      "hC": 0.47,
      "mA": 0.29,
      "tD": 0.3,
      "mode": "Bb_phrygian",
      "bpm": 86,
      "arc": 0.204,
      "ent": 1067,
      "brk": 0,
      "frameMs": 23.4
    },
    {
      "t": 535.1,
      "rD": 0.32,
      "hC": 0.48,
      "mA": 0.3,
      "tD": 0.31,
      "mode": "Bb_phrygian",
      "bpm": 86,
      "arc": 0.204,
      "ent": 1088,
      "brk": 0,
      "frameMs": 16.7
    },
    {
      "t": 536.1,
      "rD": 0.33,
      "hC": 0.49,
      "mA": 0.31,
      "tD": 0.32,
      "mode": "Bb_phrygian",
      "bpm": 86,
      "arc": 0.205,
      "ent": 1126,
      "brk": 0,
      "frameMs": 24.8
    },
    {
      "t": 537.1,
      "rD": 0.35,
      "hC": 0.5,
      "mA": 0.31,
      "tD": 0.33,
      "mode": "Bb_phrygian",
      "bpm": 86,
      "arc": 0.205,
      "ent": 1072,
      "brk": 0,
      "frameMs": 18.6
    },
    {
      "t": 538.1,
      "rD": 0.36,
      "hC": 0.51,
      "mA": 0.32,
      "tD": 0.34,
      "mode": "Bb_phrygian",
      "bpm": 86,
      "arc": 0.206,
      "ent": 1073,
      "brk": 0,
      "frameMs": 17.7
    },
    {
      "t": 539.1,
      "rD": 0.37,
      "hC": 0.51,
      "mA": 0.33,
      "tD": 0.35,
      "mode": "Bb_phrygian",
      "bpm": 86,
      "arc": 0.206,
      "ent": 1072,
      "brk": 0,
      "frameMs": 7.4
    },
    {
      "t": 540.1,
      "rD": 0.38,
      "hC": 0.52,
      "mA": 0.33,
      "tD": 0.36,
      "mode": "Bb_phrygian",
      "bpm": 86,
      "arc": 0.206,
      "ent": 1078,
      "brk": 0,
      "frameMs": 17.2
    },
    {
      "t": 541.1,
      "rD": 0.39,
      "hC": 0.53,
      "mA": 0.33,
      "tD": 0.37,
      "mode": "Bb_phrygian",
      "bpm": 86,
      "arc": 0.207,
      "ent": 1088,
      "brk": 1,
      "frameMs": 15.4
    },
    {
      "t": 542.2,
      "rD": 0.39,
      "hC": 0.53,
      "mA": 0.34,
      "tD": 0.37,
      "mode": "Bb_phrygian",
      "bpm": 86,
      "arc": 0.207,
      "ent": 1054,
      "brk": 1,
      "frameMs": 15.6
    },
    {
      "t": 543.2,
      "rD": 0.39,
      "hC": 0.53,
      "mA": 0.33,
      "tD": 0.37,
      "mode": "Bb_phrygian",
      "bpm": 86,
      "arc": 0.208,
      "ent": 1105,
      "brk": 1,
      "frameMs": 16.8
    },
    {
      "t": 544.2,
      "rD": 0.38,
      "hC": 0.52,
      "mA": 0.33,
      "tD": 0.36,
      "mode": "Bb_phrygian",
      "bpm": 86,
      "arc": 0.208,
      "ent": 1097,
      "brk": 1,
      "frameMs": 18.2
    },
    {
      "t": 545.2,
      "rD": 0.38,
      "hC": 0.52,
      "mA": 0.33,
      "tD": 0.36,
      "mode": "Bb_phrygian",
      "bpm": 86,
      "arc": 0.208,
      "ent": 1085,
      "brk": 1,
      "frameMs": 16.4
    },
    {
      "t": 546.2,
      "rD": 0.37,
      "hC": 0.51,
      "mA": 0.32,
      "tD": 0.35,
      "mode": "Bb_phrygian",
      "bpm": 86,
      "arc": 0.209,
      "ent": 1051,
      "brk": 1,
      "frameMs": 16.7
    },
    {
      "t": 547.2,
      "rD": 0.35,
      "hC": 0.5,
      "mA": 0.32,
      "tD": 0.34,
      "mode": "Bb_phrygian",
      "bpm": 86,
      "arc": 0.209,
      "ent": 1040,
      "brk": 1,
      "frameMs": 26.4
    },
    {
      "t": 548.2,
      "rD": 0.34,
      "hC": 0.49,
      "mA": 0.31,
      "tD": 0.33,
      "mode": "Bb_phrygian",
      "bpm": 86,
      "arc": 0.21,
      "ent": 1065,
      "brk": 1,
      "frameMs": 25.3
    },
    {
      "t": 549.2,
      "rD": 0.33,
      "hC": 0.49,
      "mA": 0.31,
      "tD": 0.32,
      "mode": "Bb_phrygian",
      "bpm": 86,
      "arc": 0.21,
      "ent": 1067,
      "brk": 1,
      "frameMs": 25.1
    },
    {
      "t": 550.2,
      "rD": 0.32,
      "hC": 0.48,
      "mA": 0.3,
      "tD": 0.31,
      "mode": "Bb_phrygian",
      "bpm": 86,
      "arc": 0.21,
      "ent": 1038,
      "brk": 1,
      "frameMs": 16.7
    },
    {
      "t": 551.2,
      "rD": 0.31,
      "hC": 0.47,
      "mA": 0.3,
      "tD": 0.3,
      "mode": "Bb_phrygian",
      "bpm": 86,
      "arc": 0.211,
      "ent": 1012,
      "brk": 1,
      "frameMs": 15.6
    },
    {
      "t": 552.2,
      "rD": 0.31,
      "hC": 0.47,
      "mA": 0.29,
      "tD": 0.3,
      "mode": "Bb_phrygian",
      "bpm": 86,
      "arc": 0.211,
      "ent": 1037,
      "brk": 0,
      "frameMs": 16.6
    },
    {
      "t": 553.2,
      "rD": 0.3,
      "hC": 0.47,
      "mA": 0.29,
      "tD": 0.3,
      "mode": "Bb_phrygian",
      "bpm": 86,
      "arc": 0.211,
      "ent": 1029,
      "brk": 0,
      "frameMs": 16.7
    },
    {
      "t": 554.2,
      "rD": 0.3,
      "hC": 0.47,
      "mA": 0.29,
      "tD": 0.3,
      "mode": "Bb_phrygian",
      "bpm": 86,
      "arc": 0.212,
      "ent": 1051,
      "brk": 0,
      "frameMs": 16
    },
    {
      "t": 555.2,
      "rD": 0.31,
      "hC": 0.47,
      "mA": 0.3,
      "tD": 0.3,
      "mode": "Bb_phrygian",
      "bpm": 86,
      "arc": 0.212,
      "ent": 1021,
      "brk": 0,
      "frameMs": 24.9
    },
    {
      "t": 556.2,
      "rD": 0.32,
      "hC": 0.48,
      "mA": 0.3,
      "tD": 0.31,
      "mode": "Bb_phrygian",
      "bpm": 86,
      "arc": 0.213,
      "ent": 1047,
      "brk": 0,
      "frameMs": 23.6
    },
    {
      "t": 557.2,
      "rD": 0.33,
      "hC": 0.48,
      "mA": 0.31,
      "tD": 0.31,
      "mode": "Bb_phrygian",
      "bpm": 86,
      "arc": 0.213,
      "ent": 1027,
      "brk": 0,
      "frameMs": 16
    },
    {
      "t": 558.3,
      "rD": 0.34,
      "hC": 0.49,
      "mA": 0.31,
      "tD": 0.32,
      "mode": "Bb_phrygian",
      "bpm": 86,
      "arc": 0.213,
      "ent": 1023,
      "brk": 0,
      "frameMs": 18
    },
    {
      "t": 559.3,
      "rD": 0.35,
      "hC": 0.5,
      "mA": 0.32,
      "tD": 0.33,
      "mode": "Bb_phrygian",
      "bpm": 86,
      "arc": 0.214,
      "ent": 983,
      "brk": 0,
      "frameMs": 15.9
    },
    {
      "t": 560.3,
      "rD": 0.37,
      "hC": 0.51,
      "mA": 0.33,
      "tD": 0.34,
      "mode": "Bb_phrygian",
      "bpm": 86,
      "arc": 0.214,
      "ent": 982,
      "brk": 0,
      "frameMs": 16.7
    },
    {
      "t": 561.3,
      "rD": 0.38,
      "hC": 0.52,
      "mA": 0.33,
      "tD": 0.35,
      "mode": "Bb_phrygian",
      "bpm": 86,
      "arc": 0.215,
      "ent": 1037,
      "brk": 0,
      "frameMs": 6.5
    },
    {
      "t": 562.3,
      "rD": 0.39,
      "hC": 0.53,
      "mA": 0.34,
      "tD": 0.36,
      "mode": "Bb_phrygian",
      "bpm": 86,
      "arc": 0.215,
      "ent": 1086,
      "brk": 0,
      "frameMs": 7.9
    },
    {
      "t": 563.3,
      "rD": 0.4,
      "hC": 0.53,
      "mA": 0.34,
      "tD": 0.37,
      "mode": "Bb_phrygian",
      "bpm": 86,
      "arc": 0.215,
      "ent": 1096,
      "brk": 0,
      "frameMs": 16.5
    },
    {
      "t": 564.3,
      "rD": 0.41,
      "hC": 0.54,
      "mA": 0.34,
      "tD": 0.37,
      "mode": "Bb_phrygian",
      "bpm": 86,
      "arc": 0.216,
      "ent": 1098,
      "brk": 0,
      "frameMs": 16.8
    },
    {
      "t": 565.3,
      "rD": 0.41,
      "hC": 0.54,
      "mA": 0.35,
      "tD": 0.38,
      "mode": "Bb_phrygian",
      "bpm": 86,
      "arc": 0.216,
      "ent": 1113,
      "brk": 0,
      "frameMs": 16.4
    },
    {
      "t": 566.3,
      "rD": 0.41,
      "hC": 0.54,
      "mA": 0.35,
      "tD": 0.37,
      "mode": "Bb_phrygian",
      "bpm": 86,
      "arc": 0.217,
      "ent": 1141,
      "brk": 0,
      "frameMs": 16
    },
    {
      "t": 567.3,
      "rD": 0.4,
      "hC": 0.54,
      "mA": 0.34,
      "tD": 0.37,
      "mode": "Bb_phrygian",
      "bpm": 86,
      "arc": 0.217,
      "ent": 1227,
      "brk": 0,
      "frameMs": 10
    },
    {
      "t": 568.3,
      "rD": 0.39,
      "hC": 0.53,
      "mA": 0.34,
      "tD": 0.36,
      "mode": "Bb_phrygian",
      "bpm": 86,
      "arc": 0.217,
      "ent": 1211,
      "brk": 0,
      "frameMs": 15.8
    },
    {
      "t": 569.3,
      "rD": 0.38,
      "hC": 0.52,
      "mA": 0.33,
      "tD": 0.36,
      "mode": "Bb_phrygian",
      "bpm": 86,
      "arc": 0.218,
      "ent": 1190,
      "brk": 0,
      "frameMs": 24.9
    },
    {
      "t": 570.3,
      "rD": 0.37,
      "hC": 0.52,
      "mA": 0.33,
      "tD": 0.35,
      "mode": "Bb_phrygian",
      "bpm": 86,
      "arc": 0.218,
      "ent": 1209,
      "brk": 0,
      "frameMs": 25.4
    },
    {
      "t": 571.4,
      "rD": 0.36,
      "hC": 0.51,
      "mA": 0.32,
      "tD": 0.34,
      "mode": "Bb_phrygian",
      "bpm": 86,
      "arc": 0.218,
      "ent": 1176,
      "brk": 0,
      "frameMs": 16.7
    },
    {
      "t": 572.4,
      "rD": 0.35,
      "hC": 0.5,
      "mA": 0.32,
      "tD": 0.33,
      "mode": "Bb_phrygian",
      "bpm": 86,
      "arc": 0.219,
      "ent": 1156,
      "brk": 0,
      "frameMs": 16.4
    },
    {
      "t": 573.4,
      "rD": 0.34,
      "hC": 0.49,
      "mA": 0.31,
      "tD": 0.32,
      "mode": "Bb_phrygian",
      "bpm": 86,
      "arc": 0.219,
      "ent": 1148,
      "brk": 0,
      "frameMs": 8.1
    },
    {
      "t": 574.4,
      "rD": 0.33,
      "hC": 0.49,
      "mA": 0.31,
      "tD": 0.31,
      "mode": "Bb_phrygian",
      "bpm": 86,
      "arc": 0.22,
      "ent": 1142,
      "brk": 0,
      "frameMs": 14.8
    },
    {
      "t": 575.4,
      "rD": 0.33,
      "hC": 0.48,
      "mA": 0.31,
      "tD": 0.31,
      "mode": "Bb_phrygian",
      "bpm": 86,
      "arc": 0.22,
      "ent": 1110,
      "brk": 0,
      "frameMs": 16.8
    },
    {
      "t": 576.4,
      "rD": 0.32,
      "hC": 0.48,
      "mA": 0.31,
      "tD": 0.31,
      "mode": "Bb_phrygian",
      "bpm": 86,
      "arc": 0.22,
      "ent": 1105,
      "brk": 0,
      "frameMs": 17.6
    },
    {
      "t": 577.4,
      "rD": 0.33,
      "hC": 0.48,
      "mA": 0.31,
      "tD": 0.31,
      "mode": "Bb_phrygian",
      "bpm": 86,
      "arc": 0.221,
      "ent": 1061,
      "brk": 0,
      "frameMs": 16.7
    },
    {
      "t": 578.4,
      "rD": 0.33,
      "hC": 0.49,
      "mA": 0.31,
      "tD": 0.31,
      "mode": "Bb_phrygian",
      "bpm": 86,
      "arc": 0.221,
      "ent": 1080,
      "brk": 0,
      "frameMs": 16.2
    },
    {
      "t": 579.4,
      "rD": 0.34,
      "hC": 0.49,
      "mA": 0.31,
      "tD": 0.32,
      "mode": "Bb_phrygian",
      "bpm": 86,
      "arc": 0.222,
      "ent": 1097,
      "brk": 0,
      "frameMs": 16.6
    },
    {
      "t": 580.4,
      "rD": 0.35,
      "hC": 0.5,
      "mA": 0.32,
      "tD": 0.33,
      "mode": "Bb_phrygian",
      "bpm": 86,
      "arc": 0.222,
      "ent": 1090,
      "brk": 0,
      "frameMs": 18.2
    },
    {
      "t": 581.5,
      "rD": 0.36,
      "hC": 0.51,
      "mA": 0.33,
      "tD": 0.34,
      "mode": "Bb_phrygian",
      "bpm": 86,
      "arc": 0.222,
      "ent": 1096,
      "brk": 0,
      "frameMs": 17.9
    },
    {
      "t": 582.5,
      "rD": 0.38,
      "hC": 0.52,
      "mA": 0.33,
      "tD": 0.35,
      "mode": "Bb_phrygian",
      "bpm": 86,
      "arc": 0.223,
      "ent": 1113,
      "brk": 0,
      "frameMs": 15.3
    },
    {
      "t": 583.5,
      "rD": 0.39,
      "hC": 0.53,
      "mA": 0.34,
      "tD": 0.36,
      "mode": "Bb_phrygian",
      "bpm": 86,
      "arc": 0.223,
      "ent": 1079,
      "brk": 0,
      "frameMs": 16.6
    },
    {
      "t": 584.5,
      "rD": 0.41,
      "hC": 0.54,
      "mA": 0.35,
      "tD": 0.37,
      "mode": "Bb_phrygian",
      "bpm": 86,
      "arc": 0.224,
      "ent": 1368,
      "brk": 0,
      "frameMs": 8.3
    },
    {
      "t": 585.5,
      "rD": 0.42,
      "hC": 0.55,
      "mA": 0.35,
      "tD": 0.38,
      "mode": "Bb_phrygian",
      "bpm": 86,
      "arc": 0.224,
      "ent": 1500,
      "brk": 0,
      "frameMs": 17.4
    },
    {
      "t": 586.5,
      "rD": 0.42,
      "hC": 0.55,
      "mA": 0.36,
      "tD": 0.38,
      "mode": "Bb_phrygian",
      "bpm": 86,
      "arc": 0.224,
      "ent": 1579,
      "brk": 0,
      "frameMs": 16.1
    },
    {
      "t": 587.5,
      "rD": 0.43,
      "hC": 0.55,
      "mA": 0.36,
      "tD": 0.39,
      "mode": "Bb_phrygian",
      "bpm": 86,
      "arc": 0.225,
      "ent": 1604,
      "brk": 0,
      "frameMs": 16.9
    },
    {
      "t": 588.5,
      "rD": 0.43,
      "hC": 0.56,
      "mA": 0.36,
      "tD": 0.39,
      "mode": "Bb_phrygian",
      "bpm": 86,
      "arc": 0.225,
      "ent": 1634,
      "brk": 0,
      "frameMs": 15.8
    },
    {
      "t": 589.5,
      "rD": 0.43,
      "hC": 0.55,
      "mA": 0.36,
      "tD": 0.38,
      "mode": "Bb_phrygian",
      "bpm": 86,
      "arc": 0.226,
      "ent": 1716,
      "brk": 0,
      "frameMs": 6.8
    },
    {
      "t": 590.5,
      "rD": 0.42,
      "hC": 0.55,
      "mA": 0.36,
      "tD": 0.38,
      "mode": "Bb_phrygian",
      "bpm": 86,
      "arc": 0.226,
      "ent": 1785,
      "brk": 0,
      "frameMs": 16
    },
    {
      "t": 591.5,
      "rD": 0.42,
      "hC": 0.55,
      "mA": 0.35,
      "tD": 0.37,
      "mode": "Bb_phrygian",
      "bpm": 86,
      "arc": 0.226,
      "ent": 1629,
      "brk": 0,
      "frameMs": 16.4
    },
    {
      "t": 592.5,
      "rD": 0.41,
      "hC": 0.54,
      "mA": 0.35,
      "tD": 0.36,
      "mode": "Bb_phrygian",
      "bpm": 86,
      "arc": 0.227,
      "ent": 1406,
      "brk": 0,
      "frameMs": 17
    },
    {
      "t": 593.5,
      "rD": 0.4,
      "hC": 0.53,
      "mA": 0.34,
      "tD": 0.36,
      "mode": "Bb_phrygian",
      "bpm": 86,
      "arc": 0.227,
      "ent": 1178,
      "brk": 0,
      "frameMs": 16.6
    },
    {
      "t": 594.5,
      "rD": 0.38,
      "hC": 0.52,
      "mA": 0.34,
      "tD": 0.35,
      "mode": "Bb_phrygian",
      "bpm": 86,
      "arc": 0.227,
      "ent": 978,
      "brk": 0,
      "frameMs": 16.7
    },
    {
      "t": 595.5,
      "rD": 0.37,
      "hC": 0.51,
      "mA": 0.33,
      "tD": 0.34,
      "mode": "Bb_phrygian",
      "bpm": 86,
      "arc": 0.228,
      "ent": 894,
      "brk": 0,
      "frameMs": 8.4
    },
    {
      "t": 596.5,
      "rD": 0.36,
      "hC": 0.51,
      "mA": 0.33,
      "tD": 0.33,
      "mode": "Bb_phrygian",
      "bpm": 86,
      "arc": 0.228,
      "ent": 725,
      "brk": 0,
      "frameMs": 8.6
    },
    {
      "t": 597.6,
      "rD": 0.35,
      "hC": 0.5,
      "mA": 0.32,
      "tD": 0.32,
      "mode": "Bb_phrygian",
      "bpm": 86,
      "arc": 0.229,
      "ent": 658,
      "brk": 0,
      "frameMs": 8.4
    },
    {
      "t": 598.6,
      "rD": 0.35,
      "hC": 0.5,
      "mA": 0.32,
      "tD": 0.32,
      "mode": "Bb_phrygian",
      "bpm": 86,
      "arc": 0.229,
      "ent": 570,
      "brk": 0,
      "frameMs": 16.7
    },
    {
      "t": 599.6,
      "rD": 0.35,
      "hC": 0.5,
      "mA": 0.32,
      "tD": 0.32,
      "mode": "Bb_phrygian",
      "bpm": 86,
      "arc": 0.229,
      "ent": 499,
      "brk": 0,
      "frameMs": 15.9
    },
    {
      "t": 600.6,
      "rD": 0.35,
      "hC": 0.5,
      "mA": 0.32,
      "tD": 0.32,
      "mode": "Bb_phrygian",
      "bpm": 86,
      "arc": 0.23,
      "ent": 435,
      "brk": 0,
      "frameMs": 16.4
    },
    {
      "t": 601.6,
      "rD": 0.36,
      "hC": 0.5,
      "mA": 0.32,
      "tD": 0.32,
      "mode": "Bb_phrygian",
      "bpm": 86,
      "arc": 0.23,
      "ent": 447,
      "brk": 0,
      "frameMs": 10.1
    },
    {
      "t": 602.6,
      "rD": 0.37,
      "hC": 0.51,
      "mA": 0.33,
      "tD": 0.33,
      "mode": "Bb_phrygian",
      "bpm": 86,
      "arc": 0.231,
      "ent": 401,
      "brk": 0,
      "frameMs": 16.6
    },
    {
      "t": 603.6,
      "rD": 0.38,
      "hC": 0.52,
      "mA": 0.33,
      "tD": 0.34,
      "mode": "Bb_phrygian",
      "bpm": 86,
      "arc": 0.231,
      "ent": 394,
      "brk": 0,
      "frameMs": 16.6
    },
    {
      "t": 604.6,
      "rD": 0.39,
      "hC": 0.53,
      "mA": 0.34,
      "tD": 0.35,
      "mode": "Bb_phrygian",
      "bpm": 86,
      "arc": 0.231,
      "ent": 375,
      "brk": 0,
      "frameMs": 8.7
    },
    {
      "t": 605.6,
      "rD": 0.41,
      "hC": 0.54,
      "mA": 0.35,
      "tD": 0.36,
      "mode": "Bb_phrygian",
      "bpm": 86,
      "arc": 0.232,
      "ent": 367,
      "brk": 0,
      "frameMs": 8.1
    },
    {
      "t": 606.6,
      "rD": 0.42,
      "hC": 0.55,
      "mA": 0.35,
      "tD": 0.37,
      "mode": "Bb_phrygian",
      "bpm": 86,
      "arc": 0.232,
      "ent": 413,
      "brk": 0,
      "frameMs": 16.7
    },
    {
      "t": 607.6,
      "rD": 0.43,
      "hC": 0.56,
      "mA": 0.36,
      "tD": 0.38,
      "mode": "Bb_phrygian",
      "bpm": 86,
      "arc": 0.233,
      "ent": 430,
      "brk": 0,
      "frameMs": 8.4
    },
    {
      "t": 608.6,
      "rD": 0.44,
      "hC": 0.56,
      "mA": 0.37,
      "tD": 0.39,
      "mode": "Bb_phrygian",
      "bpm": 86,
      "arc": 0.233,
      "ent": 907,
      "brk": 0,
      "frameMs": 17.8
    },
    {
      "t": 609.6,
      "rD": 0.45,
      "hC": 0.57,
      "mA": 0.37,
      "tD": 0.39,
      "mode": "Bb_phrygian",
      "bpm": 86,
      "arc": 0.233,
      "ent": 1085,
      "brk": 0,
      "frameMs": 8.2
    },
    {
      "t": 610.6,
      "rD": 0.46,
      "hC": 0.57,
      "mA": 0.37,
      "tD": 0.4,
      "mode": "Bb_phrygian",
      "bpm": 86,
      "arc": 0.234,
      "ent": 1294,
      "brk": 0,
      "frameMs": 15.3
    },
    {
      "t": 611.7,
      "rD": 0.46,
      "hC": 0.57,
      "mA": 0.37,
      "tD": 0.4,
      "mode": "Bb_phrygian",
      "bpm": 86,
      "arc": 0.234,
      "ent": 1460,
      "brk": 0,
      "frameMs": 9.5
    },
    {
      "t": 612.7,
      "rD": 0.45,
      "hC": 0.57,
      "mA": 0.37,
      "tD": 0.4,
      "mode": "Bb_phrygian",
      "bpm": 86,
      "arc": 0.235,
      "ent": 1579,
      "brk": 0,
      "frameMs": 17
    },
    {
      "t": 613.7,
      "rD": 0.45,
      "hC": 0.57,
      "mA": 0.37,
      "tD": 0.39,
      "mode": "Bb_phrygian",
      "bpm": 86,
      "arc": 0.235,
      "ent": 1616,
      "brk": 0,
      "frameMs": 16.2
    },
    {
      "t": 614.7,
      "rD": 0.44,
      "hC": 0.56,
      "mA": 0.37,
      "tD": 0.38,
      "mode": "Bb_phrygian",
      "bpm": 86,
      "arc": 0.235,
      "ent": 1659,
      "brk": 0,
      "frameMs": 8.4
    },
    {
      "t": 615.7,
      "rD": 0.43,
      "hC": 0.55,
      "mA": 0.36,
      "tD": 0.37,
      "mode": "Bb_phrygian",
      "bpm": 86,
      "arc": 0.236,
      "ent": 1668,
      "brk": 0,
      "frameMs": 16.3
    },
    {
      "t": 616.7,
      "rD": 0.42,
      "hC": 0.55,
      "mA": 0.35,
      "tD": 0.37,
      "mode": "Bb_phrygian",
      "bpm": 86,
      "arc": 0.236,
      "ent": 1669,
      "brk": 0,
      "frameMs": 7.4
    },
    {
      "t": 617.7,
      "rD": 0.41,
      "hC": 0.54,
      "mA": 0.35,
      "tD": 0.36,
      "mode": "Bb_phrygian",
      "bpm": 86,
      "arc": 0.236,
      "ent": 1623,
      "brk": 0,
      "frameMs": 15.7
    },
    {
      "t": 618.7,
      "rD": 0.4,
      "hC": 0.53,
      "mA": 0.34,
      "tD": 0.35,
      "mode": "Bb_phrygian",
      "bpm": 86,
      "arc": 0.237,
      "ent": 1529,
      "brk": 0,
      "frameMs": 16.6
    },
    {
      "t": 619.7,
      "rD": 0.39,
      "hC": 0.52,
      "mA": 0.34,
      "tD": 0.34,
      "mode": "Bb_phrygian",
      "bpm": 86,
      "arc": 0.237,
      "ent": 1324,
      "brk": 0,
      "frameMs": 16.8
    },
    {
      "t": 620.7,
      "rD": 0.38,
      "hC": 0.52,
      "mA": 0.34,
      "tD": 0.33,
      "mode": "Bb_phrygian",
      "bpm": 86,
      "arc": 0.238,
      "ent": 1147,
      "brk": 0,
      "frameMs": 16.9
    },
    {
      "t": 621.7,
      "rD": 0.38,
      "hC": 0.52,
      "mA": 0.33,
      "tD": 0.33,
      "mode": "Bb_phrygian",
      "bpm": 86,
      "arc": 0.238,
      "ent": 953,
      "brk": 0,
      "frameMs": 16.5
    },
    {
      "t": 622.7,
      "rD": 0.38,
      "hC": 0.52,
      "mA": 0.33,
      "tD": 0.33,
      "mode": "Bb_phrygian",
      "bpm": 86,
      "arc": 0.238,
      "ent": 784,
      "brk": 0,
      "frameMs": 16.6
    },
    {
      "t": 623.7,
      "rD": 0.38,
      "hC": 0.52,
      "mA": 0.33,
      "tD": 0.33,
      "mode": "Bb_phrygian",
      "bpm": 86,
      "arc": 0.239,
      "ent": 687,
      "brk": 0,
      "frameMs": 17.1
    },
    {
      "t": 624.7,
      "rD": 0.38,
      "hC": 0.52,
      "mA": 0.34,
      "tD": 0.33,
      "mode": "Bb_phrygian",
      "bpm": 86,
      "arc": 0.239,
      "ent": 591,
      "brk": 0,
      "frameMs": 17.5
    },
    {
      "t": 625.7,
      "rD": 0.39,
      "hC": 0.53,
      "mA": 0.34,
      "tD": 0.34,
      "mode": "Bb_phrygian",
      "bpm": 86,
      "arc": 0.24,
      "ent": 538,
      "brk": 0,
      "frameMs": 15.8
    },
    {
      "t": 626.7,
      "rD": 0.41,
      "hC": 0.54,
      "mA": 0.35,
      "tD": 0.35,
      "mode": "Bb_phrygian",
      "bpm": 86,
      "arc": 0.24,
      "ent": 539,
      "brk": 0,
      "frameMs": 17.9
    },
    {
      "t": 627.8,
      "rD": 0.42,
      "hC": 0.55,
      "mA": 0.36,
      "tD": 0.36,
      "mode": "Bb_phrygian",
      "bpm": 86,
      "arc": 0.24,
      "ent": 526,
      "brk": 0,
      "frameMs": 16.7
    },
    {
      "t": 628.8,
      "rD": 0.43,
      "hC": 0.56,
      "mA": 0.36,
      "tD": 0.37,
      "mode": "Bb_phrygian",
      "bpm": 86,
      "arc": 0.241,
      "ent": 575,
      "brk": 0,
      "frameMs": 7.6
    },
    {
      "t": 629.8,
      "rD": 0.45,
      "hC": 0.57,
      "mA": 0.37,
      "tD": 0.38,
      "mode": "Bb_phrygian",
      "bpm": 86,
      "arc": 0.241,
      "ent": 579,
      "brk": 0,
      "frameMs": 9.5
    },
    {
      "t": 630.8,
      "rD": 0.46,
      "hC": 0.57,
      "mA": 0.38,
      "tD": 0.39,
      "mode": "Bb_phrygian",
      "bpm": 86,
      "arc": 0.242,
      "ent": 576,
      "brk": 0,
      "frameMs": 8.4
    },
    {
      "t": 631.8,
      "rD": 0.47,
      "hC": 0.58,
      "mA": 0.38,
      "tD": 0.4,
      "mode": "Bb_phrygian",
      "bpm": 86,
      "arc": 0.242,
      "ent": 567,
      "brk": 0,
      "frameMs": 8.6
    },
    {
      "t": 632.8,
      "rD": 0.48,
      "hC": 0.59,
      "mA": 0.39,
      "tD": 0.41,
      "mode": "Bb_phrygian",
      "bpm": 86,
      "arc": 0.242,
      "ent": 558,
      "brk": 0,
      "frameMs": 10.3
    },
    {
      "t": 633.8,
      "rD": 0.48,
      "hC": 0.59,
      "mA": 0.39,
      "tD": 0.41,
      "mode": "Bb_phrygian",
      "bpm": 86,
      "arc": 0.243,
      "ent": 601,
      "brk": 0,
      "frameMs": 8.3
    },
    {
      "t": 634.8,
      "rD": 0.48,
      "hC": 0.59,
      "mA": 0.39,
      "tD": 0.41,
      "mode": "Bb_phrygian",
      "bpm": 86,
      "arc": 0.243,
      "ent": 600,
      "brk": 0,
      "frameMs": 8.4
    },
    {
      "t": 635.8,
      "rD": 0.48,
      "hC": 0.59,
      "mA": 0.39,
      "tD": 0.41,
      "mode": "Bb_phrygian",
      "bpm": 86,
      "arc": 0.243,
      "ent": 803,
      "brk": 0,
      "frameMs": 8.8
    },
    {
      "t": 636.8,
      "rD": 0.47,
      "hC": 0.58,
      "mA": 0.38,
      "tD": 0.4,
      "mode": "Bb_phrygian",
      "bpm": 86,
      "arc": 0.244,
      "ent": 993,
      "brk": 0,
      "frameMs": 7.9
    },
    {
      "t": 637.8,
      "rD": 0.47,
      "hC": 0.58,
      "mA": 0.38,
      "tD": 0.39,
      "mode": "Bb_phrygian",
      "bpm": 86,
      "arc": 0.244,
      "ent": 1212,
      "brk": 0,
      "frameMs": 16
    },
    {
      "t": 638.8,
      "rD": 0.45,
      "hC": 0.57,
      "mA": 0.37,
      "tD": 0.39,
      "mode": "Bb_phrygian",
      "bpm": 86,
      "arc": 0.245,
      "ent": 1325,
      "brk": 0,
      "frameMs": 17.2
    },
    {
      "t": 639.8,
      "rD": 0.44,
      "hC": 0.56,
      "mA": 0.37,
      "tD": 0.38,
      "mode": "Bb_phrygian",
      "bpm": 86,
      "arc": 0.245,
      "ent": 1441,
      "brk": 0,
      "frameMs": 7.2
    },
    {
      "t": 640.8,
      "rD": 0.43,
      "hC": 0.55,
      "mA": 0.36,
      "tD": 0.37,
      "mode": "Bb_phrygian",
      "bpm": 86,
      "arc": 0.245,
      "ent": 1522,
      "brk": 0,
      "frameMs": 8.4
    },
    {
      "t": 641.8,
      "rD": 0.42,
      "hC": 0.55,
      "mA": 0.36,
      "tD": 0.36,
      "mode": "Bb_phrygian",
      "bpm": 86,
      "arc": 0.246,
      "ent": 1622,
      "brk": 0,
      "frameMs": 8.7
    },
    {
      "t": 642.8,
      "rD": 0.41,
      "hC": 0.54,
      "mA": 0.35,
      "tD": 0.35,
      "mode": "Bb_phrygian",
      "bpm": 86,
      "arc": 0.246,
      "ent": 1677,
      "brk": 0,
      "frameMs": 10.2
    },
    {
      "t": 643.8,
      "rD": 0.4,
      "hC": 0.53,
      "mA": 0.35,
      "tD": 0.34,
      "mode": "Bb_phrygian",
      "bpm": 86,
      "arc": 0.247,
      "ent": 1650,
      "brk": 0,
      "frameMs": 10.3
    },
    {
      "t": 644.8,
      "rD": 0.4,
      "hC": 0.53,
      "mA": 0.35,
      "tD": 0.34,
      "mode": "Bb_phrygian",
      "bpm": 86,
      "arc": 0.247,
      "ent": 1657,
      "brk": 0,
      "frameMs": 10.4
    },
    {
      "t": 645.8,
      "rD": 0.4,
      "hC": 0.53,
      "mA": 0.35,
      "tD": 0.34,
      "mode": "Bb_phrygian",
      "bpm": 86,
      "arc": 0.247,
      "ent": 1703,
      "brk": 0,
      "frameMs": 7.6
    },
    {
      "t": 646.8,
      "rD": 0.4,
      "hC": 0.53,
      "mA": 0.35,
      "tD": 0.34,
      "mode": "Bb_phrygian",
      "bpm": 86,
      "arc": 0.248,
      "ent": 1704,
      "brk": 1,
      "frameMs": 7.9
    },
    {
      "t": 647.8,
      "rD": 0.41,
      "hC": 0.54,
      "mA": 0.35,
      "tD": 0.35,
      "mode": "Bb_phrygian",
      "bpm": 86,
      "arc": 0.248,
      "ent": 1494,
      "brk": 1,
      "frameMs": 8.3
    },
    {
      "t": 648.8,
      "rD": 0.42,
      "hC": 0.55,
      "mA": 0.36,
      "tD": 0.35,
      "mode": "Bb_phrygian",
      "bpm": 86,
      "arc": 0.249,
      "ent": 1303,
      "brk": 1,
      "frameMs": 18.1
    },
    {
      "t": 649.8,
      "rD": 0.43,
      "hC": 0.55,
      "mA": 0.36,
      "tD": 0.36,
      "mode": "Bb_phrygian",
      "bpm": 86,
      "arc": 0.249,
      "ent": 1072,
      "brk": 1,
      "frameMs": 16.9
    },
    {
      "t": 650.9,
      "rD": 0.45,
      "hC": 0.56,
      "mA": 0.37,
      "tD": 0.37,
      "mode": "Bb_phrygian",
      "bpm": 86,
      "arc": 0.249,
      "ent": 905,
      "brk": 1,
      "frameMs": 17.2
    },
    {
      "t": 651.9,
      "rD": 0.46,
      "hC": 0.57,
      "mA": 0.38,
      "tD": 0.38,
      "mode": "Bb_phrygian",
      "bpm": 86,
      "arc": 0.25,
      "ent": 780,
      "brk": 1,
      "frameMs": 9.1
    },
    {
      "t": 652.9,
      "rD": 0.47,
      "hC": 0.58,
      "mA": 0.38,
      "tD": 0.39,
      "mode": "Bb_phrygian",
      "bpm": 86,
      "arc": 0.25,
      "ent": 644,
      "brk": 1,
      "frameMs": 17.5
    },
    {
      "t": 653.9,
      "rD": 0.48,
      "hC": 0.59,
      "mA": 0.39,
      "tD": 0.4,
      "mode": "Bb_phrygian",
      "bpm": 86,
      "arc": 0.25,
      "ent": 577,
      "brk": 1,
      "frameMs": 17
    },
    {
      "t": 654.9,
      "rD": 0.49,
      "hC": 0.6,
      "mA": 0.4,
      "tD": 0.41,
      "mode": "Bb_phrygian",
      "bpm": 86,
      "arc": 0.251,
      "ent": 518,
      "brk": 1,
      "frameMs": 16.2
    },
    {
      "t": 655.9,
      "rD": 0.5,
      "hC": 0.6,
      "mA": 0.4,
      "tD": 0.42,
      "mode": "Bb_phrygian",
      "bpm": 86,
      "arc": 0.251,
      "ent": 515,
      "brk": 0,
      "frameMs": 18
    },
    {
      "t": 656.9,
      "rD": 0.51,
      "hC": 0.61,
      "mA": 0.4,
      "tD": 0.42,
      "mode": "Bb_phrygian",
      "bpm": 86,
      "arc": 0.252,
      "ent": 525,
      "brk": 0,
      "frameMs": 8.4
    },
    {
      "t": 657.9,
      "rD": 0.51,
      "hC": 0.61,
      "mA": 0.4,
      "tD": 0.42,
      "mode": "Bb_phrygian",
      "bpm": 86,
      "arc": 0.252,
      "ent": 544,
      "brk": 0,
      "frameMs": 8.4
    },
    {
      "t": 658.9,
      "rD": 0.5,
      "hC": 0.6,
      "mA": 0.4,
      "tD": 0.42,
      "mode": "Bb_phrygian",
      "bpm": 86,
      "arc": 0.252,
      "ent": 568,
      "brk": 0,
      "frameMs": 8.3
    },
    {
      "t": 659.9,
      "rD": 0.5,
      "hC": 0.6,
      "mA": 0.4,
      "tD": 0.41,
      "mode": "Bb_phrygian",
      "bpm": 86,
      "arc": 0.253,
      "ent": 552,
      "brk": 0,
      "frameMs": 15.2
    },
    {
      "t": 660.9,
      "rD": 0.49,
      "hC": 0.59,
      "mA": 0.39,
      "tD": 0.4,
      "mode": "Bb_phrygian",
      "bpm": 86,
      "arc": 0.253,
      "ent": 557,
      "brk": 0,
      "frameMs": 10
    },
    {
      "t": 661.9,
      "rD": 0.48,
      "hC": 0.58,
      "mA": 0.39,
      "tD": 0.39,
      "mode": "Bb_phrygian",
      "bpm": 86,
      "arc": 0.254,
      "ent": 549,
      "brk": 0,
      "frameMs": 8.3
    },
    {
      "t": 662.9,
      "rD": 0.46,
      "hC": 0.58,
      "mA": 0.38,
      "tD": 0.38,
      "mode": "Bb_phrygian",
      "bpm": 86,
      "arc": 0.254,
      "ent": 576,
      "brk": 0,
      "frameMs": 16.6
    },
    {
      "t": 663.9,
      "rD": 0.45,
      "hC": 0.57,
      "mA": 0.37,
      "tD": 0.37,
      "mode": "Bb_phrygian",
      "bpm": 86,
      "arc": 0.254,
      "ent": 558,
      "brk": 0,
      "frameMs": 8.3
    },
    {
      "t": 664.9,
      "rD": 0.44,
      "hC": 0.56,
      "mA": 0.37,
      "tD": 0.37,
      "mode": "Bb_phrygian",
      "bpm": 86,
      "arc": 0.255,
      "ent": 552,
      "brk": 0,
      "frameMs": 9.9
    },
    {
      "t": 665.9,
      "rD": 0.43,
      "hC": 0.55,
      "mA": 0.36,
      "tD": 0.36,
      "mode": "Bb_phrygian",
      "bpm": 86,
      "arc": 0.255,
      "ent": 558,
      "brk": 0,
      "frameMs": 8.3
    },
    {
      "t": 666.9,
      "rD": 0.43,
      "hC": 0.55,
      "mA": 0.36,
      "tD": 0.35,
      "mode": "Bb_phrygian",
      "bpm": 86,
      "arc": 0.256,
      "ent": 550,
      "brk": 0,
      "frameMs": 8.3
    },
    {
      "t": 667.9,
      "rD": 0.42,
      "hC": 0.55,
      "mA": 0.36,
      "tD": 0.35,
      "mode": "Bb_phrygian",
      "bpm": 86,
      "arc": 0.256,
      "ent": 609,
      "brk": 0,
      "frameMs": 7.5
    },
    {
      "t": 668.9,
      "rD": 0.42,
      "hC": 0.55,
      "mA": 0.36,
      "tD": 0.35,
      "mode": "Bb_phrygian",
      "bpm": 86,
      "arc": 0.256,
      "ent": 627,
      "brk": 0,
      "frameMs": 8.4
    },
    {
      "t": 669.9,
      "rD": 0.43,
      "hC": 0.55,
      "mA": 0.36,
      "tD": 0.35,
      "mode": "Bb_phrygian",
      "bpm": 86,
      "arc": 0.257,
      "ent": 643,
      "brk": 0,
      "frameMs": 7
    },
    {
      "t": 670.9,
      "rD": 0.43,
      "hC": 0.55,
      "mA": 0.36,
      "tD": 0.36,
      "mode": "Bb_phrygian",
      "bpm": 86,
      "arc": 0.257,
      "ent": 648,
      "brk": 0,
      "frameMs": 8.3
    },
    {
      "t": 671.9,
      "rD": 0.44,
      "hC": 0.56,
      "mA": 0.37,
      "tD": 0.36,
      "mode": "Bb_phrygian",
      "bpm": 86,
      "arc": 0.257,
      "ent": 653,
      "brk": 0,
      "frameMs": 10.2
    },
    {
      "t": 673,
      "rD": 0.45,
      "hC": 0.57,
      "mA": 0.38,
      "tD": 0.37,
      "mode": "Bb_phrygian",
      "bpm": 86,
      "arc": 0.258,
      "ent": 635,
      "brk": 0,
      "frameMs": 8.3
    },
    {
      "t": 674,
      "rD": 0.47,
      "hC": 0.58,
      "mA": 0.38,
      "tD": 0.38,
      "mode": "Bb_phrygian",
      "bpm": 86,
      "arc": 0.258,
      "ent": 679,
      "brk": 0,
      "frameMs": 16.7
    },
    {
      "t": 675,
      "rD": 0.48,
      "hC": 0.59,
      "mA": 0.39,
      "tD": 0.39,
      "mode": "Bb_phrygian",
      "bpm": 86,
      "arc": 0.259,
      "ent": 677,
      "brk": 0,
      "frameMs": 8.3
    },
    {
      "t": 676,
      "rD": 0.49,
      "hC": 0.6,
      "mA": 0.4,
      "tD": 0.4,
      "mode": "Bb_phrygian",
      "bpm": 86,
      "arc": 0.259,
      "ent": 665,
      "brk": 0,
      "frameMs": 8
    },
    {
      "t": 677,
      "rD": 0.51,
      "hC": 0.61,
      "mA": 0.4,
      "tD": 0.41,
      "mode": "Bb_phrygian",
      "bpm": 86,
      "arc": 0.259,
      "ent": 655,
      "brk": 0,
      "frameMs": 16.4
    },
    {
      "t": 678,
      "rD": 0.52,
      "hC": 0.61,
      "mA": 0.41,
      "tD": 0.42,
      "mode": "Bb_phrygian",
      "bpm": 86,
      "arc": 0.26,
      "ent": 629,
      "brk": 0,
      "frameMs": 17.9
    },
    {
      "t": 679,
      "rD": 0.52,
      "hC": 0.62,
      "mA": 0.41,
      "tD": 0.43,
      "mode": "Bb_phrygian",
      "bpm": 86,
      "arc": 0.26,
      "ent": 654,
      "brk": 0,
      "frameMs": 8.4
    },
    {
      "t": 680,
      "rD": 0.53,
      "hC": 0.62,
      "mA": 0.41,
      "tD": 0.43,
      "mode": "Bb_phrygian",
      "bpm": 86,
      "arc": 0.261,
      "ent": 627,
      "brk": 0,
      "frameMs": 7.6
    },
    {
      "t": 681,
      "rD": 0.53,
      "hC": 0.62,
      "mA": 0.41,
      "tD": 0.43,
      "mode": "Bb_phrygian",
      "bpm": 86,
      "arc": 0.261,
      "ent": 583,
      "brk": 0,
      "frameMs": 15.6
    },
    {
      "t": 682,
      "rD": 0.52,
      "hC": 0.62,
      "mA": 0.41,
      "tD": 0.42,
      "mode": "Bb_phrygian",
      "bpm": 86,
      "arc": 0.261,
      "ent": 558,
      "brk": 0,
      "frameMs": 15.8
    },
    {
      "t": 683,
      "rD": 0.51,
      "hC": 0.61,
      "mA": 0.41,
      "tD": 0.42,
      "mode": "Bb_phrygian",
      "bpm": 86,
      "arc": 0.262,
      "ent": 530,
      "brk": 0,
      "frameMs": 16.6
    },
    {
      "t": 684,
      "rD": 0.51,
      "hC": 0.6,
      "mA": 0.4,
      "tD": 0.41,
      "mode": "Bb_phrygian",
      "bpm": 86,
      "arc": 0.262,
      "ent": 557,
      "brk": 0,
      "frameMs": 16
    },
    {
      "t": 685,
      "rD": 0.49,
      "hC": 0.6,
      "mA": 0.4,
      "tD": 0.4,
      "mode": "Bb_phrygian",
      "bpm": 86,
      "arc": 0.263,
      "ent": 570,
      "brk": 0,
      "frameMs": 16.3
    },
    {
      "t": 686,
      "rD": 0.48,
      "hC": 0.59,
      "mA": 0.39,
      "tD": 0.39,
      "mode": "Bb_phrygian",
      "bpm": 86,
      "arc": 0.263,
      "ent": 589,
      "brk": 0,
      "frameMs": 8.3
    },
    {
      "t": 687,
      "rD": 0.47,
      "hC": 0.58,
      "mA": 0.38,
      "tD": 0.38,
      "mode": "Bb_phrygian",
      "bpm": 86,
      "arc": 0.263,
      "ent": 583,
      "brk": 0,
      "frameMs": 8.3
    },
    {
      "t": 688,
      "rD": 0.46,
      "hC": 0.57,
      "mA": 0.38,
      "tD": 0.37,
      "mode": "Bb_phrygian",
      "bpm": 86,
      "arc": 0.264,
      "ent": 596,
      "brk": 0,
      "frameMs": 8.3
    },
    {
      "t": 689,
      "rD": 0.45,
      "hC": 0.57,
      "mA": 0.37,
      "tD": 0.36,
      "mode": "Bb_phrygian",
      "bpm": 86,
      "arc": 0.264,
      "ent": 578,
      "brk": 0,
      "frameMs": 7.2
    },
    {
      "t": 690.1,
      "rD": 0.44,
      "hC": 0.56,
      "mA": 0.37,
      "tD": 0.36,
      "mode": "Bb_phrygian",
      "bpm": 86,
      "arc": 0.264,
      "ent": 599,
      "brk": 0,
      "frameMs": 8.3
    },
    {
      "t": 691.1,
      "rD": 0.44,
      "hC": 0.56,
      "mA": 0.37,
      "tD": 0.36,
      "mode": "Bb_phrygian",
      "bpm": 86,
      "arc": 0.265,
      "ent": 596,
      "brk": 0,
      "frameMs": 8.3
    },
    {
      "t": 692.1,
      "rD": 0.44,
      "hC": 0.56,
      "mA": 0.37,
      "tD": 0.36,
      "mode": "Bb_phrygian",
      "bpm": 86,
      "arc": 0.265,
      "ent": 952,
      "brk": 0,
      "frameMs": 16.7
    },
    {
      "t": 693.1,
      "rD": 0.44,
      "hC": 0.56,
      "mA": 0.37,
      "tD": 0.36,
      "mode": "Bb_phrygian",
      "bpm": 86,
      "arc": 0.266,
      "ent": 1175,
      "brk": 0,
      "frameMs": 7.7
    },
    {
      "t": 694.1,
      "rD": 0.45,
      "hC": 0.57,
      "mA": 0.37,
      "tD": 0.36,
      "mode": "Bb_phrygian",
      "bpm": 86,
      "arc": 0.266,
      "ent": 1326,
      "brk": 0,
      "frameMs": 8.7
    },
    {
      "t": 695.1,
      "rD": 0.46,
      "hC": 0.57,
      "mA": 0.38,
      "tD": 0.37,
      "mode": "Bb_phrygian",
      "bpm": 86,
      "arc": 0.266,
      "ent": 1490,
      "brk": 0,
      "frameMs": 16.9
    },
    {
      "t": 696.1,
      "rD": 0.47,
      "hC": 0.58,
      "mA": 0.39,
      "tD": 0.38,
      "mode": "Bb_phrygian",
      "bpm": 86,
      "arc": 0.267,
      "ent": 1642,
      "brk": 0,
      "frameMs": 18.7
    },
    {
      "t": 697.1,
      "rD": 0.49,
      "hC": 0.59,
      "mA": 0.39,
      "tD": 0.39,
      "mode": "Bb_phrygian",
      "bpm": 86,
      "arc": 0.267,
      "ent": 1688,
      "brk": 0,
      "frameMs": 8.5
    },
    {
      "t": 698.1,
      "rD": 0.5,
      "hC": 0.6,
      "mA": 0.4,
      "tD": 0.4,
      "mode": "Bb_phrygian",
      "bpm": 86,
      "arc": 0.268,
      "ent": 1695,
      "brk": 0,
      "frameMs": 15
    },
    {
      "t": 699.1,
      "rD": 0.51,
      "hC": 0.61,
      "mA": 0.41,
      "tD": 0.41,
      "mode": "Bb_phrygian",
      "bpm": 86,
      "arc": 0.268,
      "ent": 1702,
      "brk": 0,
      "frameMs": 8.2
    },
    {
      "t": 700.1,
      "rD": 0.52,
      "hC": 0.62,
      "mA": 0.41,
      "tD": 0.42,
      "mode": "Bb_phrygian",
      "bpm": 86,
      "arc": 0.268,
      "ent": 1711,
      "brk": 0,
      "frameMs": 9.4
    },
    {
      "t": 701.1,
      "rD": 0.53,
      "hC": 0.62,
      "mA": 0.42,
      "tD": 0.43,
      "mode": "Bb_phrygian",
      "bpm": 86,
      "arc": 0.269,
      "ent": 1681,
      "brk": 0,
      "frameMs": 8
    },
    {
      "t": 702.1,
      "rD": 0.54,
      "hC": 0.63,
      "mA": 0.42,
      "tD": 0.43,
      "mode": "Bb_phrygian",
      "bpm": 86,
      "arc": 0.269,
      "ent": 1661,
      "brk": 0,
      "frameMs": 16.7
    },
    {
      "t": 703.1,
      "rD": 0.54,
      "hC": 0.63,
      "mA": 0.42,
      "tD": 0.43,
      "mode": "Bb_phrygian",
      "bpm": 86,
      "arc": 0.27,
      "ent": 1517,
      "brk": 1,
      "frameMs": 8.3
    },
    {
      "t": 704.1,
      "rD": 0.54,
      "hC": 0.63,
      "mA": 0.42,
      "tD": 0.43,
      "mode": "Bb_phrygian",
      "bpm": 86,
      "arc": 0.27,
      "ent": 1347,
      "brk": 1,
      "frameMs": 8.2
    },
    {
      "t": 705.1,
      "rD": 0.53,
      "hC": 0.62,
      "mA": 0.42,
      "tD": 0.43,
      "mode": "Bb_phrygian",
      "bpm": 86,
      "arc": 0.27,
      "ent": 1132,
      "brk": 1,
      "frameMs": 16.6
    },
    {
      "t": 706.1,
      "rD": 0.53,
      "hC": 0.62,
      "mA": 0.41,
      "tD": 0.42,
      "mode": "Bb_phrygian",
      "bpm": 86,
      "arc": 0.271,
      "ent": 945,
      "brk": 1,
      "frameMs": 17.1
    },
    {
      "t": 707.2,
      "rD": 0.52,
      "hC": 0.61,
      "mA": 0.41,
      "tD": 0.42,
      "mode": "Bb_phrygian",
      "bpm": 86,
      "arc": 0.271,
      "ent": 755,
      "brk": 1,
      "frameMs": 15.1
    },
    {
      "t": 708.2,
      "rD": 0.51,
      "hC": 0.6,
      "mA": 0.4,
      "tD": 0.41,
      "mode": "Bb_phrygian",
      "bpm": 86,
      "arc": 0.272,
      "ent": 636,
      "brk": 1,
      "frameMs": 16.7
    },
    {
      "t": 709.2,
      "rD": 0.49,
      "hC": 0.59,
      "mA": 0.4,
      "tD": 0.4,
      "mode": "Bb_phrygian",
      "bpm": 86,
      "arc": 0.272,
      "ent": 611,
      "brk": 0,
      "frameMs": 8.2
    },
    {
      "t": 710.2,
      "rD": 0.48,
      "hC": 0.59,
      "mA": 0.39,
      "tD": 0.39,
      "mode": "Bb_phrygian",
      "bpm": 86,
      "arc": 0.272,
      "ent": 544,
      "brk": 0,
      "frameMs": 17
    },
    {
      "t": 711.2,
      "rD": 0.47,
      "hC": 0.58,
      "mA": 0.38,
      "tD": 0.38,
      "mode": "Bb_phrygian",
      "bpm": 86,
      "arc": 0.273,
      "ent": 537,
      "brk": 0,
      "frameMs": 8.3
    },
    {
      "t": 712.2,
      "rD": 0.46,
      "hC": 0.57,
      "mA": 0.38,
      "tD": 0.37,
      "mode": "Bb_phrygian",
      "bpm": 86,
      "arc": 0.273,
      "ent": 556,
      "brk": 0,
      "frameMs": 9.7
    },
    {
      "t": 713.2,
      "rD": 0.45,
      "hC": 0.57,
      "mA": 0.38,
      "tD": 0.36,
      "mode": "Bb_phrygian",
      "bpm": 86,
      "arc": 0.273,
      "ent": 610,
      "brk": 0,
      "frameMs": 8.7
    },
    {
      "t": 714.2,
      "rD": 0.45,
      "hC": 0.57,
      "mA": 0.38,
      "tD": 0.36,
      "mode": "Bb_phrygian",
      "bpm": 86,
      "arc": 0.274,
      "ent": 618,
      "brk": 0,
      "frameMs": 7.9
    },
    {
      "t": 715.2,
      "rD": 0.45,
      "hC": 0.57,
      "mA": 0.38,
      "tD": 0.36,
      "mode": "Bb_phrygian",
      "bpm": 86,
      "arc": 0.274,
      "ent": 618,
      "brk": 0,
      "frameMs": 7.5
    },
    {
      "t": 716.2,
      "rD": 0.45,
      "hC": 0.57,
      "mA": 0.38,
      "tD": 0.36,
      "mode": "Bb_phrygian",
      "bpm": 86,
      "arc": 0.275,
      "ent": 616,
      "brk": 0,
      "frameMs": 16.8
    },
    {
      "t": 717.2,
      "rD": 0.46,
      "hC": 0.57,
      "mA": 0.38,
      "tD": 0.37,
      "mode": "Bb_phrygian",
      "bpm": 86,
      "arc": 0.275,
      "ent": 589,
      "brk": 0,
      "frameMs": 9.1
    },
    {
      "t": 718.2,
      "rD": 0.47,
      "hC": 0.58,
      "mA": 0.39,
      "tD": 0.38,
      "mode": "Bb_phrygian",
      "bpm": 86,
      "arc": 0.275,
      "ent": 632,
      "brk": 0,
      "frameMs": 10.3
    },
    {
      "t": 719.2,
      "rD": 0.48,
      "hC": 0.59,
      "mA": 0.39,
      "tD": 0.39,
      "mode": "Bb_phrygian",
      "bpm": 86,
      "arc": 0.276,
      "ent": 624,
      "brk": 0,
      "frameMs": 8.6
    },
    {
      "t": 720.2,
      "rD": 0.5,
      "hC": 0.6,
      "mA": 0.4,
      "tD": 0.4,
      "mode": "Bb_phrygian",
      "bpm": 86,
      "arc": 0.276,
      "ent": 628,
      "brk": 0,
      "frameMs": 8.4
    },
    {
      "t": 721.2,
      "rD": 0.51,
      "hC": 0.61,
      "mA": 0.4,
      "tD": 0.41,
      "mode": "Bb_phrygian",
      "bpm": 86,
      "arc": 0.277,
      "ent": 616,
      "brk": 0,
      "frameMs": 16.4
    },
    {
      "t": 722.2,
      "rD": 0.52,
      "hC": 0.62,
      "mA": 0.41,
      "tD": 0.42,
      "mode": "Bb_phrygian",
      "bpm": 86,
      "arc": 0.277,
      "ent": 631,
      "brk": 0,
      "frameMs": 7.9
    },
    {
      "t": 723.2,
      "rD": 0.53,
      "hC": 0.62,
      "mA": 0.42,
      "tD": 0.43,
      "mode": "Bb_phrygian",
      "bpm": 86,
      "arc": 0.277,
      "ent": 608,
      "brk": 0,
      "frameMs": 9
    },
    {
      "t": 724.2,
      "rD": 0.54,
      "hC": 0.63,
      "mA": 0.42,
      "tD": 0.43,
      "mode": "Bb_phrygian",
      "bpm": 86,
      "arc": 0.278,
      "ent": 607,
      "brk": 0,
      "frameMs": 17.2
    },
    {
      "t": 725.2,
      "rD": 0.55,
      "hC": 0.63,
      "mA": 0.42,
      "tD": 0.44,
      "mode": "Bb_phrygian",
      "bpm": 86,
      "arc": 0.278,
      "ent": 601,
      "brk": 0,
      "frameMs": 16.4
    },
    {
      "t": 726.2,
      "rD": 0.55,
      "hC": 0.63,
      "mA": 0.42,
      "tD": 0.44,
      "mode": "Bb_phrygian",
      "bpm": 86,
      "arc": 0.279,
      "ent": 560,
      "brk": 0,
      "frameMs": 16.8
    },
    {
      "t": 727.3,
      "rD": 0.54,
      "hC": 0.63,
      "mA": 0.42,
      "tD": 0.44,
      "mode": "Bb_phrygian",
      "bpm": 86,
      "arc": 0.279,
      "ent": 579,
      "brk": 0,
      "frameMs": 8.2
    },
    {
      "t": 728.3,
      "rD": 0.54,
      "hC": 0.63,
      "mA": 0.42,
      "tD": 0.43,
      "mode": "Bb_phrygian",
      "bpm": 86,
      "arc": 0.279,
      "ent": 617,
      "brk": 0,
      "frameMs": 16.7
    },
    {
      "t": 729.3,
      "rD": 0.53,
      "hC": 0.62,
      "mA": 0.42,
      "tD": 0.43,
      "mode": "Bb_phrygian",
      "bpm": 86,
      "arc": 0.28,
      "ent": 745,
      "brk": 0,
      "frameMs": 7.5
    },
    {
      "t": 730.3,
      "rD": 0.52,
      "hC": 0.61,
      "mA": 0.41,
      "tD": 0.42,
      "mode": "Bb_phrygian",
      "bpm": 86,
      "arc": 0.28,
      "ent": 828,
      "brk": 0,
      "frameMs": 8.3
    },
    {
      "t": 731.3,
      "rD": 0.51,
      "hC": 0.61,
      "mA": 0.4,
      "tD": 0.41,
      "mode": "Bb_phrygian",
      "bpm": 86,
      "arc": 0.28,
      "ent": 934,
      "brk": 0,
      "frameMs": 8.6
    },
    {
      "t": 732.3,
      "rD": 0.5,
      "hC": 0.6,
      "mA": 0.4,
      "tD": 0.4,
      "mode": "Bb_phrygian",
      "bpm": 86,
      "arc": 0.281,
      "ent": 1040,
      "brk": 0,
      "frameMs": 8.3
    },
    {
      "t": 733.3,
      "rD": 0.48,
      "hC": 0.59,
      "mA": 0.39,
      "tD": 0.39,
      "mode": "Bb_phrygian",
      "bpm": 86,
      "arc": 0.281,
      "ent": 1104,
      "brk": 0,
      "frameMs": 7.3
    },
    {
      "t": 734.3,
      "rD": 0.47,
      "hC": 0.58,
      "mA": 0.39,
      "tD": 0.38,
      "mode": "Bb_phrygian",
      "bpm": 86,
      "arc": 0.282,
      "ent": 1237,
      "brk": 0,
      "frameMs": 9.2
    },
    {
      "t": 735.3,
      "rD": 0.46,
      "hC": 0.57,
      "mA": 0.38,
      "tD": 0.37,
      "mode": "Bb_phrygian",
      "bpm": 86,
      "arc": 0.282,
      "ent": 1346,
      "brk": 0,
      "frameMs": 16.7
    },
    {
      "t": 736.3,
      "rD": 0.46,
      "hC": 0.57,
      "mA": 0.38,
      "tD": 0.37,
      "mode": "Bb_phrygian",
      "bpm": 86,
      "arc": 0.282,
      "ent": 1404,
      "brk": 0,
      "frameMs": 10.1
    },
    {
      "t": 737.3,
      "rD": 0.45,
      "hC": 0.57,
      "mA": 0.38,
      "tD": 0.36,
      "mode": "Bb_phrygian",
      "bpm": 86,
      "arc": 0.283,
      "ent": 1385,
      "brk": 0,
      "frameMs": 8.3
    },
    {
      "t": 738.3,
      "rD": 0.45,
      "hC": 0.57,
      "mA": 0.38,
      "tD": 0.36,
      "mode": "Bb_phrygian",
      "bpm": 86,
      "arc": 0.283,
      "ent": 1307,
      "brk": 0,
      "frameMs": 16.6
    },
    {
      "t": 739.3,
      "rD": 0.46,
      "hC": 0.57,
      "mA": 0.38,
      "tD": 0.37,
      "mode": "Bb_phrygian",
      "bpm": 86,
      "arc": 0.284,
      "ent": 1164,
      "brk": 0,
      "frameMs": 8.3
    },
    {
      "t": 740.3,
      "rD": 0.47,
      "hC": 0.58,
      "mA": 0.38,
      "tD": 0.37,
      "mode": "Bb_phrygian",
      "bpm": 86,
      "arc": 0.284,
      "ent": 1076,
      "brk": 0,
      "frameMs": 8.5
    },
    {
      "t": 741.3,
      "rD": 0.48,
      "hC": 0.58,
      "mA": 0.39,
      "tD": 0.38,
      "mode": "Bb_phrygian",
      "bpm": 86,
      "arc": 0.284,
      "ent": 970,
      "brk": 0,
      "frameMs": 10.3
    },
    {
      "t": 742.3,
      "rD": 0.49,
      "hC": 0.59,
      "mA": 0.39,
      "tD": 0.39,
      "mode": "Bb_phrygian",
      "bpm": 86,
      "arc": 0.285,
      "ent": 851,
      "brk": 0,
      "frameMs": 8.2
    },
    {
      "t": 743.3,
      "rD": 0.5,
      "hC": 0.6,
      "mA": 0.4,
      "tD": 0.4,
      "mode": "Bb_phrygian",
      "bpm": 86,
      "arc": 0.285,
      "ent": 746,
      "brk": 0,
      "frameMs": 8.5
    },
    {
      "t": 744.3,
      "rD": 0.51,
      "hC": 0.61,
      "mA": 0.41,
      "tD": 0.41,
      "mode": "Bb_phrygian",
      "bpm": 86,
      "arc": 0.286,
      "ent": 618,
      "brk": 0,
      "frameMs": 9.2
    },
    {
      "t": 745.3,
      "rD": 0.53,
      "hC": 0.62,
      "mA": 0.41,
      "tD": 0.42,
      "mode": "Bb_phrygian",
      "bpm": 86,
      "arc": 0.286,
      "ent": 604,
      "brk": 0,
      "frameMs": 8.5
    },
    {
      "t": 746.3,
      "rD": 0.54,
      "hC": 0.63,
      "mA": 0.42,
      "tD": 0.43,
      "mode": "Bb_phrygian",
      "bpm": 86,
      "arc": 0.286,
      "ent": 632,
      "brk": 0,
      "frameMs": 8.3
    },
    {
      "t": 747.4,
      "rD": 0.54,
      "hC": 0.63,
      "mA": 0.42,
      "tD": 0.43,
      "mode": "Bb_phrygian",
      "bpm": 86,
      "arc": 0.287,
      "ent": 835,
      "brk": 0,
      "frameMs": 16.8
    },
    {
      "t": 748.4,
      "rD": 0.55,
      "hC": 0.64,
      "mA": 0.43,
      "tD": 0.44,
      "mode": "Bb_phrygian",
      "bpm": 86,
      "arc": 0.287,
      "ent": 1037,
      "brk": 0,
      "frameMs": 16.7
    },
    {
      "t": 749.4,
      "rD": 0.55,
      "hC": 0.64,
      "mA": 0.43,
      "tD": 0.44,
      "mode": "Bb_phrygian",
      "bpm": 86,
      "arc": 0.287,
      "ent": 1206,
      "brk": 0,
      "frameMs": 15
    },
    {
      "t": 750.4,
      "rD": 0.55,
      "hC": 0.64,
      "mA": 0.42,
      "tD": 0.44,
      "mode": "Bb_phrygian",
      "bpm": 86,
      "arc": 0.288,
      "ent": 1342,
      "brk": 0,
      "frameMs": 8.4
    },
    {
      "t": 751.4,
      "rD": 0.54,
      "hC": 0.63,
      "mA": 0.42,
      "tD": 0.43,
      "mode": "Bb_phrygian",
      "bpm": 86,
      "arc": 0.288,
      "ent": 1437,
      "brk": 0,
      "frameMs": 8.3
    },
    {
      "t": 752.4,
      "rD": 0.53,
      "hC": 0.63,
      "mA": 0.42,
      "tD": 0.43,
      "mode": "Bb_phrygian",
      "bpm": 86,
      "arc": 0.289,
      "ent": 1553,
      "brk": 0,
      "frameMs": 8.2
    },
    {
      "t": 753.4,
      "rD": 0.52,
      "hC": 0.62,
      "mA": 0.41,
      "tD": 0.42,
      "mode": "Bb_phrygian",
      "bpm": 86,
      "arc": 0.289,
      "ent": 1601,
      "brk": 0,
      "frameMs": 8.1
    },
    {
      "t": 754.4,
      "rD": 0.51,
      "hC": 0.61,
      "mA": 0.41,
      "tD": 0.41,
      "mode": "Bb_phrygian",
      "bpm": 86,
      "arc": 0.289,
      "ent": 1682,
      "brk": 0,
      "frameMs": 8.7
    },
    {
      "t": 755.4,
      "rD": 0.5,
      "hC": 0.6,
      "mA": 0.4,
      "tD": 0.4,
      "mode": "Bb_phrygian",
      "bpm": 86,
      "arc": 0.29,
      "ent": 1657,
      "brk": 0,
      "frameMs": 16.7
    },
    {
      "t": 756.4,
      "rD": 0.49,
      "hC": 0.59,
      "mA": 0.4,
      "tD": 0.39,
      "mode": "Bb_phrygian",
      "bpm": 86,
      "arc": 0.29,
      "ent": 1672,
      "brk": 0,
      "frameMs": 16.9
    },
    {
      "t": 757.4,
      "rD": 0.48,
      "hC": 0.59,
      "mA": 0.39,
      "tD": 0.38,
      "mode": "Bb_phrygian",
      "bpm": 86,
      "arc": 0.291,
      "ent": 1625,
      "brk": 0,
      "frameMs": 18.2
    },
    {
      "t": 758.4,
      "rD": 0.47,
      "hC": 0.58,
      "mA": 0.39,
      "tD": 0.37,
      "mode": "Bb_phrygian",
      "bpm": 86,
      "arc": 0.291,
      "ent": 1585,
      "brk": 0,
      "frameMs": 8.2
    },
    {
      "t": 759.4,
      "rD": 0.46,
      "hC": 0.58,
      "mA": 0.38,
      "tD": 0.37,
      "mode": "Bb_phrygian",
      "bpm": 86,
      "arc": 0.291,
      "ent": 1435,
      "brk": 1,
      "frameMs": 16
    },
    {
      "t": 760.4,
      "rD": 0.46,
      "hC": 0.58,
      "mA": 0.38,
      "tD": 0.37,
      "mode": "Bb_phrygian",
      "bpm": 86,
      "arc": 0.292,
      "ent": 1226,
      "brk": 1,
      "frameMs": 17.4
    },
    {
      "t": 761.4,
      "rD": 0.46,
      "hC": 0.58,
      "mA": 0.38,
      "tD": 0.37,
      "mode": "Bb_phrygian",
      "bpm": 86,
      "arc": 0.292,
      "ent": 1044,
      "brk": 1,
      "frameMs": 16.7
    },
    {
      "t": 762.4,
      "rD": 0.47,
      "hC": 0.58,
      "mA": 0.39,
      "tD": 0.37,
      "mode": "Bb_phrygian",
      "bpm": 86,
      "arc": 0.293,
      "ent": 822,
      "brk": 1,
      "frameMs": 8.3
    },
    {
      "t": 763.4,
      "rD": 0.47,
      "hC": 0.59,
      "mA": 0.39,
      "tD": 0.38,
      "mode": "Bb_phrygian",
      "bpm": 86,
      "arc": 0.293,
      "ent": 732,
      "brk": 1,
      "frameMs": 16.7
    },
    {
      "t": 764.4,
      "rD": 0.48,
      "hC": 0.59,
      "mA": 0.39,
      "tD": 0.38,
      "mode": "Bb_phrygian",
      "bpm": 86,
      "arc": 0.293,
      "ent": 596,
      "brk": 1,
      "frameMs": 16.6
    },
    {
      "t": 765.5,
      "rD": 0.5,
      "hC": 0.6,
      "mA": 0.4,
      "tD": 0.39,
      "mode": "Bb_phrygian",
      "bpm": 86,
      "arc": 0.294,
      "ent": 535,
      "brk": 1,
      "frameMs": 16.7
    },
    {
      "t": 766.5,
      "rD": 0.51,
      "hC": 0.61,
      "mA": 0.41,
      "tD": 0.41,
      "mode": "Bb_phrygian",
      "bpm": 86,
      "arc": 0.294,
      "ent": 508,
      "brk": 1,
      "frameMs": 24.9
    },
    {
      "t": 767.5,
      "rD": 0.52,
      "hC": 0.62,
      "mA": 0.41,
      "tD": 0.42,
      "mode": "Bb_phrygian",
      "bpm": 86,
      "arc": 0.295,
      "ent": 459,
      "brk": 1,
      "frameMs": 16.3
    },
    {
      "t": 768.5,
      "rD": 0.54,
      "hC": 0.63,
      "mA": 0.42,
      "tD": 0.43,
      "mode": "Bb_phrygian",
      "bpm": 86,
      "arc": 0.295,
      "ent": 481,
      "brk": 1,
      "frameMs": 16.7
    },
    {
      "t": 769.5,
      "rD": 0.55,
      "hC": 0.64,
      "mA": 0.43,
      "tD": 0.43,
      "mode": "Bb_phrygian",
      "bpm": 86,
      "arc": 0.295,
      "ent": 455,
      "brk": 1,
      "frameMs": 16.6
    },
    {
      "t": 770.5,
      "rD": 0.55,
      "hC": 0.64,
      "mA": 0.43,
      "tD": 0.44,
      "mode": "Bb_phrygian",
      "bpm": 86,
      "arc": 0.296,
      "ent": 504,
      "brk": 0,
      "frameMs": 16.9
    },
    {
      "t": 771.5,
      "rD": 0.56,
      "hC": 0.65,
      "mA": 0.43,
      "tD": 0.44,
      "mode": "Bb_phrygian",
      "bpm": 86,
      "arc": 0.296,
      "ent": 522,
      "brk": 0,
      "frameMs": 7.4
    },
    {
      "t": 772.5,
      "rD": 0.56,
      "hC": 0.65,
      "mA": 0.43,
      "tD": 0.44,
      "mode": "Bb_phrygian",
      "bpm": 86,
      "arc": 0.296,
      "ent": 556,
      "brk": 0,
      "frameMs": 9.1
    },
    {
      "t": 773.5,
      "rD": 0.56,
      "hC": 0.65,
      "mA": 0.43,
      "tD": 0.44,
      "mode": "Bb_phrygian",
      "bpm": 86,
      "arc": 0.297,
      "ent": 557,
      "brk": 0,
      "frameMs": 8.5
    },
    {
      "t": 774.5,
      "rD": 0.55,
      "hC": 0.64,
      "mA": 0.43,
      "tD": 0.44,
      "mode": "Bb_phrygian",
      "bpm": 86,
      "arc": 0.297,
      "ent": 607,
      "brk": 0,
      "frameMs": 14.6
    },
    {
      "t": 775.5,
      "rD": 0.54,
      "hC": 0.64,
      "mA": 0.43,
      "tD": 0.43,
      "mode": "Bb_phrygian",
      "bpm": 86,
      "arc": 0.298,
      "ent": 600,
      "brk": 0,
      "frameMs": 7.9
    },
    {
      "t": 776.5,
      "rD": 0.53,
      "hC": 0.63,
      "mA": 0.42,
      "tD": 0.42,
      "mode": "Bb_phrygian",
      "bpm": 86,
      "arc": 0.298,
      "ent": 599,
      "brk": 0,
      "frameMs": 10.1
    },
    {
      "t": 777.5,
      "rD": 0.52,
      "hC": 0.62,
      "mA": 0.42,
      "tD": 0.41,
      "mode": "Bb_phrygian",
      "bpm": 86,
      "arc": 0.298,
      "ent": 604,
      "brk": 0,
      "frameMs": 8.4
    },
    {
      "t": 778.5,
      "rD": 0.51,
      "hC": 0.61,
      "mA": 0.41,
      "tD": 0.4,
      "mode": "Bb_phrygian",
      "bpm": 86,
      "arc": 0.299,
      "ent": 602,
      "brk": 0,
      "frameMs": 8.7
    },
    {
      "t": 779.5,
      "rD": 0.5,
      "hC": 0.61,
      "mA": 0.4,
      "tD": 0.39,
      "mode": "Bb_phrygian",
      "bpm": 86,
      "arc": 0.299,
      "ent": 634,
      "brk": 0,
      "frameMs": 7.7
    },
    {
      "t": 780.5,
      "rD": 0.49,
      "hC": 0.6,
      "mA": 0.4,
      "tD": 0.38,
      "mode": "Bb_phrygian",
      "bpm": 86,
      "arc": 0.3,
      "ent": 655,
      "brk": 0,
      "frameMs": 17.2
    },
    {
      "t": 781.5,
      "rD": 0.48,
      "hC": 0.6,
      "mA": 0.4,
      "tD": 0.38,
      "mode": "Bb_phrygian",
      "bpm": 86,
      "arc": 0.3,
      "ent": 656,
      "brk": 0,
      "frameMs": 15.6
    },
    {
      "t": 782.5,
      "rD": 0.47,
      "hC": 0.59,
      "mA": 0.39,
      "tD": 0.37,
      "mode": "Bb_phrygian",
      "bpm": 86,
      "arc": 0.3,
      "ent": 688,
      "brk": 0,
      "frameMs": 16.7
    },
    {
      "t": 783.5,
      "rD": 0.47,
      "hC": 0.59,
      "mA": 0.39,
      "tD": 0.37,
      "mode": "Bb_phrygian",
      "bpm": 86,
      "arc": 0.301,
      "ent": 686,
      "brk": 0,
      "frameMs": 7.8
    },
    {
      "t": 784.6,
      "rD": 0.47,
      "hC": 0.59,
      "mA": 0.39,
      "tD": 0.37,
      "mode": "Bb_phrygian",
      "bpm": 86,
      "arc": 0.301,
      "ent": 690,
      "brk": 0,
      "frameMs": 8.9
    },
    {
      "t": 785.6,
      "rD": 0.48,
      "hC": 0.6,
      "mA": 0.4,
      "tD": 0.38,
      "mode": "Bb_phrygian",
      "bpm": 86,
      "arc": 0.302,
      "ent": 669,
      "brk": 0,
      "frameMs": 9.9
    },
    {
      "t": 786.6,
      "rD": 0.49,
      "hC": 0.6,
      "mA": 0.4,
      "tD": 0.38,
      "mode": "Bb_phrygian",
      "bpm": 86,
      "arc": 0.302,
      "ent": 679,
      "brk": 0,
      "frameMs": 7.1
    },
    {
      "t": 787.6,
      "rD": 0.5,
      "hC": 0.61,
      "mA": 0.41,
      "tD": 0.39,
      "mode": "Bb_phrygian",
      "bpm": 86,
      "arc": 0.302,
      "ent": 665,
      "brk": 0,
      "frameMs": 8.8
    },
    {
      "t": 788.6,
      "rD": 0.51,
      "hC": 0.62,
      "mA": 0.41,
      "tD": 0.4,
      "mode": "Bb_phrygian",
      "bpm": 86,
      "arc": 0.303,
      "ent": 659,
      "brk": 0,
      "frameMs": 17.9
    },
    {
      "t": 789.6,
      "rD": 0.53,
      "hC": 0.63,
      "mA": 0.42,
      "tD": 0.41,
      "mode": "Bb_phrygian",
      "bpm": 86,
      "arc": 0.303,
      "ent": 619,
      "brk": 0,
      "frameMs": 8.4
    },
    {
      "t": 790.6,
      "rD": 0.54,
      "hC": 0.64,
      "mA": 0.43,
      "tD": 0.42,
      "mode": "Bb_phrygian",
      "bpm": 86,
      "arc": 0.303,
      "ent": 633,
      "brk": 0,
      "frameMs": 7.8
    },
    {
      "t": 791.6,
      "rD": 0.55,
      "hC": 0.65,
      "mA": 0.43,
      "tD": 0.43,
      "mode": "Bb_phrygian",
      "bpm": 86,
      "arc": 0.304,
      "ent": 632,
      "brk": 0,
      "frameMs": 8.3
    },
    {
      "t": 792.6,
      "rD": 0.56,
      "hC": 0.66,
      "mA": 0.44,
      "tD": 0.44,
      "mode": "Bb_phrygian",
      "bpm": 86,
      "arc": 0.304,
      "ent": 578,
      "brk": 0,
      "frameMs": 8.4
    },
    {
      "t": 793.6,
      "rD": 0.57,
      "hC": 0.66,
      "mA": 0.44,
      "tD": 0.45,
      "mode": "Bb_phrygian",
      "bpm": 86,
      "arc": 0.305,
      "ent": 634,
      "brk": 0,
      "frameMs": 7.5
    },
    {
      "t": 794.6,
      "rD": 0.57,
      "hC": 0.67,
      "mA": 0.45,
      "tD": 0.45,
      "mode": "Bb_phrygian",
      "bpm": 86,
      "arc": 0.305,
      "ent": 620,
      "brk": 0,
      "frameMs": 8.4
    },
    {
      "t": 795.6,
      "rD": 0.58,
      "hC": 0.67,
      "mA": 0.45,
      "tD": 0.45,
      "mode": "Bb_phrygian",
      "bpm": 86,
      "arc": 0.305,
      "ent": 631,
      "brk": 0,
      "frameMs": 8.2
    },
    {
      "t": 796.6,
      "rD": 0.57,
      "hC": 0.67,
      "mA": 0.45,
      "tD": 0.45,
      "mode": "Bb_phrygian",
      "bpm": 86,
      "arc": 0.306,
      "ent": 661,
      "brk": 0,
      "frameMs": 7.4
    },
    {
      "t": 797.6,
      "rD": 0.57,
      "hC": 0.66,
      "mA": 0.44,
      "tD": 0.45,
      "mode": "Bb_phrygian",
      "bpm": 86,
      "arc": 0.306,
      "ent": 678,
      "brk": 0,
      "frameMs": 6.9
    },
    {
      "t": 798.6,
      "rD": 0.56,
      "hC": 0.66,
      "mA": 0.44,
      "tD": 0.44,
      "mode": "Bb_phrygian",
      "bpm": 86,
      "arc": 0.307,
      "ent": 641,
      "brk": 0,
      "frameMs": 8.3
    },
    {
      "t": 799.6,
      "rD": 0.55,
      "hC": 0.65,
      "mA": 0.43,
      "tD": 0.43,
      "mode": "Bb_phrygian",
      "bpm": 86,
      "arc": 0.307,
      "ent": 668,
      "brk": 0,
      "frameMs": 15.5
    },
    {
      "t": 800.6,
      "rD": 0.54,
      "hC": 0.64,
      "mA": 0.43,
      "tD": 0.42,
      "mode": "Bb_phrygian",
      "bpm": 86,
      "arc": 0.307,
      "ent": 630,
      "brk": 0,
      "frameMs": 8.8
    },
    {
      "t": 801.6,
      "rD": 0.52,
      "hC": 0.63,
      "mA": 0.42,
      "tD": 0.41,
      "mode": "Bb_phrygian",
      "bpm": 86,
      "arc": 0.308,
      "ent": 606,
      "brk": 0,
      "frameMs": 7.8
    },
    {
      "t": 802.6,
      "rD": 0.51,
      "hC": 0.63,
      "mA": 0.42,
      "tD": 0.4,
      "mode": "Bb_phrygian",
      "bpm": 86,
      "arc": 0.308,
      "ent": 622,
      "brk": 0,
      "frameMs": 7.8
    },
    {
      "t": 803.6,
      "rD": 0.5,
      "hC": 0.62,
      "mA": 0.41,
      "tD": 0.39,
      "mode": "Bb_phrygian",
      "bpm": 86,
      "arc": 0.309,
      "ent": 597,
      "brk": 0,
      "frameMs": 8.1
    },
    {
      "t": 804.6,
      "rD": 0.5,
      "hC": 0.62,
      "mA": 0.41,
      "tD": 0.39,
      "mode": "Bb_phrygian",
      "bpm": 86,
      "arc": 0.309,
      "ent": 618,
      "brk": 0,
      "frameMs": 8.1
    },
    {
      "t": 805.7,
      "rD": 0.49,
      "hC": 0.61,
      "mA": 0.41,
      "tD": 0.38,
      "mode": "Bb_phrygian",
      "bpm": 86,
      "arc": 0.309,
      "ent": 590,
      "brk": 0,
      "frameMs": 8.1
    },
    {
      "t": 806.7,
      "rD": 0.49,
      "hC": 0.61,
      "mA": 0.41,
      "tD": 0.38,
      "mode": "Bb_phrygian",
      "bpm": 86,
      "arc": 0.31,
      "ent": 611,
      "brk": 0,
      "frameMs": 8.4
    },
    {
      "t": 807.7,
      "rD": 0.49,
      "hC": 0.61,
      "mA": 0.41,
      "tD": 0.38,
      "mode": "Bb_phrygian",
      "bpm": 86,
      "arc": 0.31,
      "ent": 610,
      "brk": 0,
      "frameMs": 8.3
    },
    {
      "t": 808.7,
      "rD": 0.5,
      "hC": 0.62,
      "mA": 0.41,
      "tD": 0.39,
      "mode": "Bb_phrygian",
      "bpm": 86,
      "arc": 0.31,
      "ent": 617,
      "brk": 0,
      "frameMs": 9.3
    },
    {
      "t": 809.7,
      "rD": 0.51,
      "hC": 0.63,
      "mA": 0.42,
      "tD": 0.39,
      "mode": "Bb_phrygian",
      "bpm": 86,
      "arc": 0.311,
      "ent": 611,
      "brk": 0,
      "frameMs": 8.2
    },
    {
      "t": 810.7,
      "rD": 0.52,
      "hC": 0.63,
      "mA": 0.42,
      "tD": 0.4,
      "mode": "Bb_phrygian",
      "bpm": 86,
      "arc": 0.311,
      "ent": 630,
      "brk": 0,
      "frameMs": 8.4
    },
    {
      "t": 811.7,
      "rD": 0.53,
      "hC": 0.64,
      "mA": 0.43,
      "tD": 0.41,
      "mode": "Bb_phrygian",
      "bpm": 86,
      "arc": 0.312,
      "ent": 856,
      "brk": 0,
      "frameMs": 9.5
    },
    {
      "t": 812.7,
      "rD": 0.55,
      "hC": 0.65,
      "mA": 0.44,
      "tD": 0.42,
      "mode": "Bb_phrygian",
      "bpm": 86,
      "arc": 0.312,
      "ent": 1086,
      "brk": 0,
      "frameMs": 10.2
    },
    {
      "t": 813.7,
      "rD": 0.56,
      "hC": 0.66,
      "mA": 0.44,
      "tD": 0.43,
      "mode": "Bb_phrygian",
      "bpm": 86,
      "arc": 0.312,
      "ent": 1227,
      "brk": 0,
      "frameMs": 8.1
    },
    {
      "t": 814.7,
      "rD": 0.57,
      "hC": 0.67,
      "mA": 0.45,
      "tD": 0.44,
      "mode": "Bb_phrygian",
      "bpm": 86,
      "arc": 0.313,
      "ent": 1377,
      "brk": 0,
      "frameMs": 17.6
    },
    {
      "t": 815.7,
      "rD": 0.58,
      "hC": 0.68,
      "mA": 0.45,
      "tD": 0.45,
      "mode": "Bb_phrygian",
      "bpm": 86,
      "arc": 0.313,
      "ent": 1486,
      "brk": 0,
      "frameMs": 16.5
    },
    {
      "t": 816.7,
      "rD": 0.59,
      "hC": 0.69,
      "mA": 0.46,
      "tD": 0.46,
      "mode": "Bb_phrygian",
      "bpm": 86,
      "arc": 0.314,
      "ent": 1569,
      "brk": 0,
      "frameMs": 18.2
    },
    {
      "t": 817.7,
      "rD": 0.59,
      "hC": 0.69,
      "mA": 0.46,
      "tD": 0.46,
      "mode": "Bb_phrygian",
      "bpm": 86,
      "arc": 0.314,
      "ent": 1578,
      "brk": 0,
      "frameMs": 16.6
    },
    {
      "t": 818.7,
      "rD": 0.59,
      "hC": 0.69,
      "mA": 0.46,
      "tD": 0.46,
      "mode": "Bb_phrygian",
      "bpm": 86,
      "arc": 0.314,
      "ent": 1635,
      "brk": 0,
      "frameMs": 16.6
    },
    {
      "t": 819.7,
      "rD": 0.59,
      "hC": 0.69,
      "mA": 0.46,
      "tD": 0.46,
      "mode": "Bb_phrygian",
      "bpm": 86,
      "arc": 0.315,
      "ent": 1646,
      "brk": 0,
      "frameMs": 8.3
    },
    {
      "t": 820.7,
      "rD": 0.59,
      "hC": 0.68,
      "mA": 0.46,
      "tD": 0.45,
      "mode": "Bb_phrygian",
      "bpm": 86,
      "arc": 0.315,
      "ent": 1674,
      "brk": 0,
      "frameMs": 16.6
    },
    {
      "t": 821.7,
      "rD": 0.58,
      "hC": 0.68,
      "mA": 0.45,
      "tD": 0.45,
      "mode": "Bb_phrygian",
      "bpm": 86,
      "arc": 0.316,
      "ent": 1694,
      "brk": 0,
      "frameMs": 9.6
    },
    {
      "t": 822.7,
      "rD": 0.57,
      "hC": 0.67,
      "mA": 0.45,
      "tD": 0.44,
      "mode": "Bb_phrygian",
      "bpm": 86,
      "arc": 0.316,
      "ent": 1639,
      "brk": 1,
      "frameMs": 8.2
    },
    {
      "t": 823.7,
      "rD": 0.55,
      "hC": 0.66,
      "mA": 0.44,
      "tD": 0.43,
      "mode": "Bb_phrygian",
      "bpm": 86,
      "arc": 0.316,
      "ent": 1433,
      "brk": 1,
      "frameMs": 7.3
    },
    {
      "t": 824.7,
      "rD": 0.54,
      "hC": 0.66,
      "mA": 0.44,
      "tD": 0.42,
      "mode": "Bb_phrygian",
      "bpm": 86,
      "arc": 0.317,
      "ent": 1240,
      "brk": 1,
      "frameMs": 16.7
    },
    {
      "t": 825.7,
      "rD": 0.53,
      "hC": 0.65,
      "mA": 0.43,
      "tD": 0.41,
      "mode": "Bb_phrygian",
      "bpm": 86,
      "arc": 0.317,
      "ent": 1020,
      "brk": 1,
      "frameMs": 25
    },
    {
      "t": 826.8,
      "rD": 0.52,
      "hC": 0.64,
      "mA": 0.43,
      "tD": 0.4,
      "mode": "Bb_phrygian",
      "bpm": 86,
      "arc": 0.317,
      "ent": 819,
      "brk": 1,
      "frameMs": 9.3
    },
    {
      "t": 827.8,
      "rD": 0.51,
      "hC": 0.64,
      "mA": 0.42,
      "tD": 0.39,
      "mode": "Bb_phrygian",
      "bpm": 86,
      "arc": 0.318,
      "ent": 708,
      "brk": 1,
      "frameMs": 16.5
    },
    {
      "t": 828.8,
      "rD": 0.51,
      "hC": 0.63,
      "mA": 0.42,
      "tD": 0.39,
      "mode": "Bb_phrygian",
      "bpm": 86,
      "arc": 0.318,
      "ent": 581,
      "brk": 1,
      "frameMs": 8.3
    },
    {
      "t": 829.8,
      "rD": 0.51,
      "hC": 0.63,
      "mA": 0.42,
      "tD": 0.39,
      "mode": "Bb_phrygian",
      "bpm": 86,
      "arc": 0.319,
      "ent": 554,
      "brk": 1,
      "frameMs": 16.2
    },
    {
      "t": 830.8,
      "rD": 0.51,
      "hC": 0.64,
      "mA": 0.42,
      "tD": 0.39,
      "mode": "Bb_phrygian",
      "bpm": 86,
      "arc": 0.319,
      "ent": 504,
      "brk": 1,
      "frameMs": 16.4
    },
    {
      "t": 831.8,
      "rD": 0.52,
      "hC": 0.64,
      "mA": 0.43,
      "tD": 0.4,
      "mode": "Bb_phrygian",
      "bpm": 86,
      "arc": 0.319,
      "ent": 479,
      "brk": 1,
      "frameMs": 8.4
    },
    {
      "t": 832.8,
      "rD": 0.53,
      "hC": 0.65,
      "mA": 0.43,
      "tD": 0.4,
      "mode": "Bb_phrygian",
      "bpm": 86,
      "arc": 0.32,
      "ent": 485,
      "brk": 1,
      "frameMs": 14.8
    },
    {
      "t": 833.8,
      "rD": 0.54,
      "hC": 0.66,
      "mA": 0.44,
      "tD": 0.41,
      "mode": "Bb_phrygian",
      "bpm": 86,
      "arc": 0.32,
      "ent": 495,
      "brk": 0,
      "frameMs": 8.3
    },
    {
      "t": 834.8,
      "rD": 0.55,
      "hC": 0.67,
      "mA": 0.44,
      "tD": 0.42,
      "mode": "Bb_phrygian",
      "bpm": 86,
      "arc": 0.321,
      "ent": 501,
      "brk": 0,
      "frameMs": 8.4
    },
    {
      "t": 835.8,
      "rD": 0.57,
      "hC": 0.68,
      "mA": 0.45,
      "tD": 0.43,
      "mode": "Bb_phrygian",
      "bpm": 86,
      "arc": 0.321,
      "ent": 529,
      "brk": 0,
      "frameMs": 9
    },
    {
      "t": 836.8,
      "rD": 0.58,
      "hC": 0.69,
      "mA": 0.46,
      "tD": 0.45,
      "mode": "Bb_phrygian",
      "bpm": 86,
      "arc": 0.321,
      "ent": 566,
      "brk": 0,
      "frameMs": 7.7
    },
    {
      "t": 837.8,
      "rD": 0.59,
      "hC": 0.7,
      "mA": 0.46,
      "tD": 0.45,
      "mode": "Bb_phrygian",
      "bpm": 86,
      "arc": 0.322,
      "ent": 560,
      "brk": 0,
      "frameMs": 18.1
    },
    {
      "t": 838.8,
      "rD": 0.6,
      "hC": 0.7,
      "mA": 0.47,
      "tD": 0.46,
      "mode": "Bb_phrygian",
      "bpm": 86,
      "arc": 0.322,
      "ent": 624,
      "brk": 0,
      "frameMs": 24.7
    },
    {
      "t": 839.8,
      "rD": 0.61,
      "hC": 0.71,
      "mA": 0.47,
      "tD": 0.47,
      "mode": "Bb_phrygian",
      "bpm": 86,
      "arc": 0.323,
      "ent": 623,
      "brk": 0,
      "frameMs": 17
    },
    {
      "t": 840.9,
      "rD": 0.61,
      "hC": 0.71,
      "mA": 0.48,
      "tD": 0.47,
      "mode": "Bb_phrygian",
      "bpm": 86,
      "arc": 0.323,
      "ent": 638,
      "brk": 0,
      "frameMs": 16.7
    },
    {
      "t": 841.9,
      "rD": 0.61,
      "hC": 0.71,
      "mA": 0.48,
      "tD": 0.47,
      "mode": "Bb_phrygian",
      "bpm": 86,
      "arc": 0.323,
      "ent": 613,
      "brk": 0,
      "frameMs": 8.1
    },
    {
      "t": 842.9,
      "rD": 0.61,
      "hC": 0.71,
      "mA": 0.47,
      "tD": 0.47,
      "mode": "Bb_phrygian",
      "bpm": 86,
      "arc": 0.324,
      "ent": 567,
      "brk": 0,
      "frameMs": 17.1
    },
    {
      "t": 843.9,
      "rD": 0.6,
      "hC": 0.71,
      "mA": 0.47,
      "tD": 0.46,
      "mode": "Bb_phrygian",
      "bpm": 86,
      "arc": 0.324,
      "ent": 579,
      "brk": 0,
      "frameMs": 8.6
    },
    {
      "t": 844.9,
      "rD": 0.59,
      "hC": 0.7,
      "mA": 0.47,
      "tD": 0.45,
      "mode": "Bb_phrygian",
      "bpm": 86,
      "arc": 0.325,
      "ent": 575,
      "brk": 0,
      "frameMs": 8.3
    },
    {
      "t": 845.9,
      "rD": 0.58,
      "hC": 0.69,
      "mA": 0.46,
      "tD": 0.45,
      "mode": "Bb_phrygian",
      "bpm": 86,
      "arc": 0.325,
      "ent": 626,
      "brk": 0,
      "frameMs": 8.4
    },
    {
      "t": 846.9,
      "rD": 0.57,
      "hC": 0.68,
      "mA": 0.46,
      "tD": 0.44,
      "mode": "Bb_phrygian",
      "bpm": 86,
      "arc": 0.325,
      "ent": 638,
      "brk": 0,
      "frameMs": 8.5
    },
    {
      "t": 847.9,
      "rD": 0.56,
      "hC": 0.68,
      "mA": 0.45,
      "tD": 0.43,
      "mode": "Bb_phrygian",
      "bpm": 86,
      "arc": 0.326,
      "ent": 648,
      "brk": 0,
      "frameMs": 8.9
    },
    {
      "t": 848.9,
      "rD": 0.55,
      "hC": 0.67,
      "mA": 0.45,
      "tD": 0.42,
      "mode": "Bb_phrygian",
      "bpm": 86,
      "arc": 0.326,
      "ent": 634,
      "brk": 0,
      "frameMs": 7.3
    },
    {
      "t": 849.9,
      "rD": 0.54,
      "hC": 0.66,
      "mA": 0.44,
      "tD": 0.41,
      "mode": "Bb_phrygian",
      "bpm": 86,
      "arc": 0.326,
      "ent": 688,
      "brk": 0,
      "frameMs": 17.4
    },
    {
      "t": 850.9,
      "rD": 0.53,
      "hC": 0.66,
      "mA": 0.44,
      "tD": 0.4,
      "mode": "Bb_phrygian",
      "bpm": 86,
      "arc": 0.327,
      "ent": 663,
      "brk": 0,
      "frameMs": 8.3
    },
    {
      "t": 851.9,
      "rD": 0.53,
      "hC": 0.66,
      "mA": 0.44,
      "tD": 0.4,
      "mode": "Bb_phrygian",
      "bpm": 86,
      "arc": 0.327,
      "ent": 657,
      "brk": 0,
      "frameMs": 6.7
    },
    {
      "t": 852.9,
      "rD": 0.53,
      "hC": 0.66,
      "mA": 0.44,
      "tD": 0.4,
      "mode": "Bb_phrygian",
      "bpm": 86,
      "arc": 0.328,
      "ent": 646,
      "brk": 0,
      "frameMs": 8.3
    },
    {
      "t": 853.9,
      "rD": 0.53,
      "hC": 0.66,
      "mA": 0.44,
      "tD": 0.4,
      "mode": "Bb_phrygian",
      "bpm": 86,
      "arc": 0.328,
      "ent": 603,
      "brk": 0,
      "frameMs": 8.4
    },
    {
      "t": 854.9,
      "rD": 0.54,
      "hC": 0.66,
      "mA": 0.44,
      "tD": 0.41,
      "mode": "Bb_phrygian",
      "bpm": 86,
      "arc": 0.328,
      "ent": 641,
      "brk": 0,
      "frameMs": 8
    },
    {
      "t": 855.9,
      "rD": 0.55,
      "hC": 0.67,
      "mA": 0.45,
      "tD": 0.41,
      "mode": "Bb_phrygian",
      "bpm": 86,
      "arc": 0.329,
      "ent": 622,
      "brk": 0,
      "frameMs": 8.5
    },
    {
      "t": 856.9,
      "rD": 0.56,
      "hC": 0.68,
      "mA": 0.45,
      "tD": 0.42,
      "mode": "Bb_phrygian",
      "bpm": 86,
      "arc": 0.329,
      "ent": 627,
      "brk": 0,
      "frameMs": 6.4
    },
    {
      "t": 857.9,
      "rD": 0.57,
      "hC": 0.69,
      "mA": 0.46,
      "tD": 0.43,
      "mode": "Bb_phrygian",
      "bpm": 86,
      "arc": 0.33,
      "ent": 649,
      "brk": 0,
      "frameMs": 18.3
    },
    {
      "t": 858.9,
      "rD": 0.59,
      "hC": 0.7,
      "mA": 0.47,
      "tD": 0.44,
      "mode": "Bb_phrygian",
      "bpm": 86,
      "arc": 0.33,
      "ent": 875,
      "brk": 0,
      "frameMs": 16.6
    },
    {
      "t": 859.9,
      "rD": 0.6,
      "hC": 0.71,
      "mA": 0.47,
      "tD": 0.46,
      "mode": "Bb_phrygian",
      "bpm": 86,
      "arc": 0.33,
      "ent": 1022,
      "brk": 0,
      "frameMs": 16.3
    },
    {
      "t": 861,
      "rD": 0.61,
      "hC": 0.72,
      "mA": 0.48,
      "tD": 0.46,
      "mode": "Bb_phrygian",
      "bpm": 86,
      "arc": 0.331,
      "ent": 1215,
      "brk": 0,
      "frameMs": 25.3
    },
    {
      "t": 862,
      "rD": 0.62,
      "hC": 0.72,
      "mA": 0.48,
      "tD": 0.47,
      "mode": "Bb_phrygian",
      "bpm": 86,
      "arc": 0.331,
      "ent": 1342,
      "brk": 0,
      "frameMs": 16.7
    },
    {
      "t": 863,
      "rD": 0.63,
      "hC": 0.73,
      "mA": 0.49,
      "tD": 0.48,
      "mode": "Bb_phrygian",
      "bpm": 86,
      "arc": 0.332,
      "ent": 1467,
      "brk": 0,
      "frameMs": 10
    },
    {
      "t": 864,
      "rD": 0.63,
      "hC": 0.73,
      "mA": 0.49,
      "tD": 0.48,
      "mode": "Bb_phrygian",
      "bpm": 86,
      "arc": 0.332,
      "ent": 1542,
      "brk": 0,
      "frameMs": 16.6
    },
    {
      "t": 865,
      "rD": 0.63,
      "hC": 0.73,
      "mA": 0.49,
      "tD": 0.48,
      "mode": "Bb_phrygian",
      "bpm": 86,
      "arc": 0.332,
      "ent": 1607,
      "brk": 0,
      "frameMs": 16.5
    },
    {
      "t": 866,
      "rD": 0.63,
      "hC": 0.73,
      "mA": 0.49,
      "tD": 0.48,
      "mode": "Bb_phrygian",
      "bpm": 86,
      "arc": 0.333,
      "ent": 1622,
      "brk": 0,
      "frameMs": 7.2
    },
    {
      "t": 867,
      "rD": 0.62,
      "hC": 0.73,
      "mA": 0.48,
      "tD": 0.47,
      "mode": "Bb_phrygian",
      "bpm": 86,
      "arc": 0.333,
      "ent": 1629,
      "brk": 0,
      "frameMs": 16.9
    },
    {
      "t": 868,
      "rD": 0.61,
      "hC": 0.72,
      "mA": 0.48,
      "tD": 0.46,
      "mode": "Bb_phrygian",
      "bpm": 86,
      "arc": 0.333,
      "ent": 1662,
      "brk": 0,
      "frameMs": 16.6
    },
    {
      "t": 869,
      "rD": 0.6,
      "hC": 0.71,
      "mA": 0.47,
      "tD": 0.45,
      "mode": "Bb_phrygian",
      "bpm": 86,
      "arc": 0.334,
      "ent": 1603,
      "brk": 0,
      "frameMs": 9.6
    },
    {
      "t": 870,
      "rD": 0.59,
      "hC": 0.7,
      "mA": 0.47,
      "tD": 0.44,
      "mode": "Bb_phrygian",
      "bpm": 86,
      "arc": 0.334,
      "ent": 1608,
      "brk": 0,
      "frameMs": 8.3
    },
    {
      "t": 871,
      "rD": 0.57,
      "hC": 0.69,
      "mA": 0.46,
      "tD": 0.43,
      "mode": "Bb_phrygian",
      "bpm": 86,
      "arc": 0.335,
      "ent": 1463,
      "brk": 1,
      "frameMs": 16.4
    },
    {
      "t": 872,
      "rD": 0.56,
      "hC": 0.69,
      "mA": 0.46,
      "tD": 0.42,
      "mode": "Bb_phrygian",
      "bpm": 86,
      "arc": 0.335,
      "ent": 1274,
      "brk": 1,
      "frameMs": 17.2
    },
    {
      "t": 873,
      "rD": 0.55,
      "hC": 0.68,
      "mA": 0.45,
      "tD": 0.42,
      "mode": "Bb_phrygian",
      "bpm": 86,
      "arc": 0.335,
      "ent": 1080,
      "brk": 1,
      "frameMs": 15.7
    },
    {
      "t": 874,
      "rD": 0.55,
      "hC": 0.68,
      "mA": 0.45,
      "tD": 0.41,
      "mode": "Bb_phrygian",
      "bpm": 86,
      "arc": 0.336,
      "ent": 891,
      "brk": 1,
      "frameMs": 16.5
    },
    {
      "t": 875,
      "rD": 0.54,
      "hC": 0.67,
      "mA": 0.45,
      "tD": 0.41,
      "mode": "Bb_phrygian",
      "bpm": 86,
      "arc": 0.336,
      "ent": 772,
      "brk": 1,
      "frameMs": 18
    },
    {
      "t": 876,
      "rD": 0.54,
      "hC": 0.67,
      "mA": 0.45,
      "tD": 0.41,
      "mode": "Bb_phrygian",
      "bpm": 86,
      "arc": 0.337,
      "ent": 660,
      "brk": 0,
      "frameMs": 8.4
    },
    {
      "t": 877,
      "rD": 0.55,
      "hC": 0.68,
      "mA": 0.45,
      "tD": 0.41,
      "mode": "Bb_phrygian",
      "bpm": 86,
      "arc": 0.337,
      "ent": 596,
      "brk": 0,
      "frameMs": 8.3
    },
    {
      "t": 878,
      "rD": 0.55,
      "hC": 0.68,
      "mA": 0.45,
      "tD": 0.42,
      "mode": "Bb_phrygian",
      "bpm": 86,
      "arc": 0.337,
      "ent": 549,
      "brk": 0,
      "frameMs": 8.4
    },
    {
      "t": 879,
      "rD": 0.56,
      "hC": 0.69,
      "mA": 0.46,
      "tD": 0.42,
      "mode": "Bb_phrygian",
      "bpm": 86,
      "arc": 0.338,
      "ent": 566,
      "brk": 0,
      "frameMs": 8.3
    },
    {
      "t": 880,
      "rD": 0.57,
      "hC": 0.7,
      "mA": 0.46,
      "tD": 0.43,
      "mode": "Bb_phrygian",
      "bpm": 86,
      "arc": 0.338,
      "ent": 598,
      "brk": 0,
      "frameMs": 8.1
    },
    {
      "t": 881.1,
      "rD": 0.59,
      "hC": 0.71,
      "mA": 0.47,
      "tD": 0.44,
      "mode": "Bb_phrygian",
      "bpm": 86,
      "arc": 0.339,
      "ent": 594,
      "brk": 0,
      "frameMs": 9.8
    },
    {
      "t": 882.1,
      "rD": 0.6,
      "hC": 0.72,
      "mA": 0.48,
      "tD": 0.45,
      "mode": "Bb_phrygian",
      "bpm": 86,
      "arc": 0.339,
      "ent": 583,
      "brk": 0,
      "frameMs": 17.9
    },
    {
      "t": 883.1,
      "rD": 0.61,
      "hC": 0.73,
      "mA": 0.48,
      "tD": 0.46,
      "mode": "Bb_phrygian",
      "bpm": 86,
      "arc": 0.339,
      "ent": 628,
      "brk": 0,
      "frameMs": 16.9
    },
    {
      "t": 884.1,
      "rD": 0.62,
      "hC": 0.73,
      "mA": 0.49,
      "tD": 0.47,
      "mode": "Bb_phrygian",
      "bpm": 86,
      "arc": 0.34,
      "ent": 619,
      "brk": 0,
      "frameMs": 16.5
    },
    {
      "t": 885.1,
      "rD": 0.63,
      "hC": 0.74,
      "mA": 0.49,
      "tD": 0.48,
      "mode": "Bb_phrygian",
      "bpm": 86,
      "arc": 0.34,
      "ent": 619,
      "brk": 0,
      "frameMs": 17
    },
    {
      "t": 886.1,
      "rD": 0.64,
      "hC": 0.74,
      "mA": 0.5,
      "tD": 0.48,
      "mode": "Bb_phrygian",
      "bpm": 86,
      "arc": 0.34,
      "ent": 604,
      "brk": 0,
      "frameMs": 16.9
    },
    {
      "t": 887.1,
      "rD": 0.64,
      "hC": 0.75,
      "mA": 0.5,
      "tD": 0.49,
      "mode": "Bb_phrygian",
      "bpm": 86,
      "arc": 0.341,
      "ent": 586,
      "brk": 0,
      "frameMs": 8.3
    },
    {
      "t": 888.1,
      "rD": 0.64,
      "hC": 0.75,
      "mA": 0.5,
      "tD": 0.48,
      "mode": "Bb_phrygian",
      "bpm": 86,
      "arc": 0.341,
      "ent": 591,
      "brk": 0,
      "frameMs": 8.3
    },
    {
      "t": 889.1,
      "rD": 0.64,
      "hC": 0.74,
      "mA": 0.5,
      "tD": 0.48,
      "mode": "Bb_phrygian",
      "bpm": 86,
      "arc": 0.342,
      "ent": 598,
      "brk": 0,
      "frameMs": 8.4
    },
    {
      "t": 890.1,
      "rD": 0.63,
      "hC": 0.74,
      "mA": 0.49,
      "tD": 0.47,
      "mode": "Bb_phrygian",
      "bpm": 86,
      "arc": 0.342,
      "ent": 603,
      "brk": 0,
      "frameMs": 8
    },
    {
      "t": 891.1,
      "rD": 0.62,
      "hC": 0.73,
      "mA": 0.49,
      "tD": 0.47,
      "mode": "Bb_phrygian",
      "bpm": 86,
      "arc": 0.342,
      "ent": 636,
      "brk": 0,
      "frameMs": 9.3
    },
    {
      "t": 892.1,
      "rD": 0.61,
      "hC": 0.72,
      "mA": 0.48,
      "tD": 0.46,
      "mode": "Bb_phrygian",
      "bpm": 86,
      "arc": 0.343,
      "ent": 613,
      "brk": 0,
      "frameMs": 7.2
    },
    {
      "t": 893.1,
      "rD": 0.59,
      "hC": 0.71,
      "mA": 0.48,
      "tD": 0.45,
      "mode": "Bb_phrygian",
      "bpm": 86,
      "arc": 0.343,
      "ent": 626,
      "brk": 0,
      "frameMs": 8.4
    },
    {
      "t": 894.1,
      "rD": 0.58,
      "hC": 0.71,
      "mA": 0.47,
      "tD": 0.44,
      "mode": "Bb_phrygian",
      "bpm": 86,
      "arc": 0.344,
      "ent": 652,
      "brk": 0,
      "frameMs": 16.9
    },
    {
      "t": 895.1,
      "rD": 0.57,
      "hC": 0.7,
      "mA": 0.46,
      "tD": 0.43,
      "mode": "Bb_phrygian",
      "bpm": 86,
      "arc": 0.344,
      "ent": 637,
      "brk": 0,
      "frameMs": 7.4
    },
    {
      "t": 896.2,
      "rD": 0.56,
      "hC": 0.69,
      "mA": 0.46,
      "tD": 0.42,
      "mode": "Bb_phrygian",
      "bpm": 86,
      "arc": 0.344,
      "ent": 655,
      "brk": 0,
      "frameMs": 17.2
    },
    {
      "t": 897.2,
      "rD": 0.55,
      "hC": 0.69,
      "mA": 0.46,
      "tD": 0.41,
      "mode": "Bb_phrygian",
      "bpm": 86,
      "arc": 0.345,
      "ent": 687,
      "brk": 0,
      "frameMs": 15
    },
    {
      "t": 898.2,
      "rD": 0.55,
      "hC": 0.69,
      "mA": 0.46,
      "tD": 0.41,
      "mode": "Bb_phrygian",
      "bpm": 86,
      "arc": 0.345,
      "ent": 673,
      "brk": 0,
      "frameMs": 16.9
    },
    {
      "t": 899.2,
      "rD": 0.55,
      "hC": 0.69,
      "mA": 0.46,
      "tD": 0.41,
      "mode": "Bb_phrygian",
      "bpm": 86,
      "arc": 0.346,
      "ent": 664,
      "brk": 0,
      "frameMs": 8
    },
    {
      "t": 900.2,
      "rD": 0.56,
      "hC": 0.69,
      "mA": 0.46,
      "tD": 0.41,
      "mode": "Bb_phrygian",
      "bpm": 86,
      "arc": 0.346,
      "ent": 690,
      "brk": 0,
      "frameMs": 17.8
    },
    {
      "t": 901.2,
      "rD": 0.56,
      "hC": 0.69,
      "mA": 0.46,
      "tD": 0.42,
      "mode": "Bb_phrygian",
      "bpm": 86,
      "arc": 0.346,
      "ent": 658,
      "brk": 0,
      "frameMs": 16.7
    },
    {
      "t": 902.2,
      "rD": 0.57,
      "hC": 0.7,
      "mA": 0.47,
      "tD": 0.43,
      "mode": "Bb_phrygian",
      "bpm": 86,
      "arc": 0.347,
      "ent": 686,
      "brk": 0,
      "frameMs": 7.9
    },
    {
      "t": 903.2,
      "rD": 0.58,
      "hC": 0.71,
      "mA": 0.47,
      "tD": 0.44,
      "mode": "Bb_phrygian",
      "bpm": 86,
      "arc": 0.347,
      "ent": 643,
      "brk": 0,
      "frameMs": 8.6
    },
    {
      "t": 904.2,
      "rD": 0.6,
      "hC": 0.72,
      "mA": 0.48,
      "tD": 0.45,
      "mode": "Bb_phrygian",
      "bpm": 86,
      "arc": 0.347,
      "ent": 627,
      "brk": 0,
      "frameMs": 8.4
    },
    {
      "t": 905.2,
      "rD": 0.61,
      "hC": 0.73,
      "mA": 0.48,
      "tD": 0.46,
      "mode": "Bb_phrygian",
      "bpm": 86,
      "arc": 0.348,
      "ent": 626,
      "brk": 0,
      "frameMs": 16.7
    },
    {
      "t": 906.2,
      "rD": 0.62,
      "hC": 0.73,
      "mA": 0.49,
      "tD": 0.47,
      "mode": "Bb_phrygian",
      "bpm": 86,
      "arc": 0.348,
      "ent": 606,
      "brk": 0,
      "frameMs": 16.7
    },
    {
      "t": 907.2,
      "rD": 0.63,
      "hC": 0.74,
      "mA": 0.5,
      "tD": 0.48,
      "mode": "Bb_phrygian",
      "bpm": 86,
      "arc": 0.349,
      "ent": 583,
      "brk": 0,
      "frameMs": 8.3
    },
    {
      "t": 908.2,
      "rD": 0.6,
      "hC": 0.75,
      "mA": 0.5,
      "tD": 0.48,
      "mode": "Bb_phrygian",
      "bpm": 86,
      "arc": 0.349,
      "ent": 625,
      "brk": 0,
      "frameMs": 7.5
    },
    {
      "t": 909.2,
      "rD": 0.6,
      "hC": 0.75,
      "mA": 0.5,
      "tD": 0.49,
      "mode": "Bb_phrygian",
      "bpm": 86,
      "arc": 0.349,
      "ent": 649,
      "brk": 0,
      "frameMs": 8.5
    },
    {
      "t": 910.2,
      "rD": 0.6,
      "hC": 0.75,
      "mA": 0.5,
      "tD": 0.49,
      "mode": "Bb_phrygian",
      "bpm": 86,
      "arc": 0.35,
      "ent": 609,
      "brk": 0,
      "frameMs": 7.2
    },
    {
      "t": 911.2,
      "rD": 0.6,
      "hC": 0.75,
      "mA": 0.5,
      "tD": 0.49,
      "mode": "Bb_phrygian",
      "bpm": 86,
      "arc": 0.35,
      "ent": 648,
      "brk": 0,
      "frameMs": 8.1
    },
    {
      "t": 912.2,
      "rD": 0.59,
      "hC": 0.75,
      "mA": 0.5,
      "tD": 0.48,
      "mode": "Bb_phrygian",
      "bpm": 86,
      "arc": 0.351,
      "ent": 638,
      "brk": 0,
      "frameMs": 6.7
    },
    {
      "t": 913.2,
      "rD": 0.59,
      "hC": 0.74,
      "mA": 0.49,
      "tD": 0.47,
      "mode": "Bb_phrygian",
      "bpm": 86,
      "arc": 0.351,
      "ent": 635,
      "brk": 0,
      "frameMs": 8.2
    },
    {
      "t": 914.2,
      "rD": 0.58,
      "hC": 0.73,
      "mA": 0.49,
      "tD": 0.46,
      "mode": "Bb_phrygian",
      "bpm": 86,
      "arc": 0.351,
      "ent": 657,
      "brk": 0,
      "frameMs": 8.8
    },
    {
      "t": 915.2,
      "rD": 0.58,
      "hC": 0.72,
      "mA": 0.48,
      "tD": 0.45,
      "mode": "Bb_phrygian",
      "bpm": 86,
      "arc": 0.352,
      "ent": 653,
      "brk": 0,
      "frameMs": 8.5
    },
    {
      "t": 916.3,
      "rD": 0.57,
      "hC": 0.7,
      "mA": 0.47,
      "tD": 0.44,
      "mode": "Bb_phrygian",
      "bpm": 86,
      "arc": 0.352,
      "ent": 686,
      "brk": 0,
      "frameMs": 9.7
    },
    {
      "t": 917.3,
      "rD": 0.56,
      "hC": 0.69,
      "mA": 0.46,
      "tD": 0.43,
      "mode": "Bb_phrygian",
      "bpm": 86,
      "arc": 0.353,
      "ent": 691,
      "brk": 0,
      "frameMs": 16.5
    },
    {
      "t": 918.3,
      "rD": 0.55,
      "hC": 0.68,
      "mA": 0.45,
      "tD": 0.41,
      "mode": "Bb_phrygian",
      "bpm": 86,
      "arc": 0.353,
      "ent": 667,
      "brk": 0,
      "frameMs": 8.2
    },
    {
      "t": 919.3,
      "rD": 0.54,
      "hC": 0.67,
      "mA": 0.44,
      "tD": 0.4,
      "mode": "Bb_phrygian",
      "bpm": 86,
      "arc": 0.353,
      "ent": 695,
      "brk": 0,
      "frameMs": 16.6
    },
    {
      "t": 920.3,
      "rD": 0.53,
      "hC": 0.66,
      "mA": 0.43,
      "tD": 0.39,
      "mode": "Bb_phrygian",
      "bpm": 86,
      "arc": 0.354,
      "ent": 652,
      "brk": 0,
      "frameMs": 15.3
    },
    {
      "t": 921.3,
      "rD": 0.52,
      "hC": 0.65,
      "mA": 0.43,
      "tD": 0.39,
      "mode": "Bb_phrygian",
      "bpm": 86,
      "arc": 0.354,
      "ent": 1268,
      "brk": 0,
      "frameMs": 8.2
    },
    {
      "t": 922.3,
      "rD": 0.51,
      "hC": 0.64,
      "mA": 0.42,
      "tD": 0.38,
      "mode": "Bb_phrygian",
      "bpm": 86,
      "arc": 0.355,
      "ent": 1464,
      "brk": 0,
      "frameMs": 17.8
    },
    {
      "t": 923.3,
      "rD": 0.5,
      "hC": 0.63,
      "mA": 0.42,
      "tD": 0.38,
      "mode": "Bb_phrygian",
      "bpm": 86,
      "arc": 0.355,
      "ent": 1572,
      "brk": 0,
      "frameMs": 8
    },
    {
      "t": 924.3,
      "rD": 0.49,
      "hC": 0.63,
      "mA": 0.41,
      "tD": 0.38,
      "mode": "Bb_phrygian",
      "bpm": 86,
      "arc": 0.355,
      "ent": 1663,
      "brk": 0,
      "frameMs": 8.5
    },
    {
      "t": 925.3,
      "rD": 0.48,
      "hC": 0.63,
      "mA": 0.41,
      "tD": 0.38,
      "mode": "Bb_phrygian",
      "bpm": 86,
      "arc": 0.356,
      "ent": 1687,
      "brk": 0,
      "frameMs": 16.5
    },
    {
      "t": 926.3,
      "rD": 0.46,
      "hC": 0.63,
      "mA": 0.41,
      "tD": 0.39,
      "mode": "Bb_phrygian",
      "bpm": 86,
      "arc": 0.356,
      "ent": 1738,
      "brk": 0,
      "frameMs": 8.2
    },
    {
      "t": 927.3,
      "rD": 0.45,
      "hC": 0.63,
      "mA": 0.41,
      "tD": 0.39,
      "mode": "Bb_phrygian",
      "bpm": 86,
      "arc": 0.356,
      "ent": 1706,
      "brk": 0,
      "frameMs": 16.5
    },
    {
      "t": 928.3,
      "rD": 0.44,
      "hC": 0.62,
      "mA": 0.41,
      "tD": 0.4,
      "mode": "Bb_phrygian",
      "bpm": 86,
      "arc": 0.357,
      "ent": 1660,
      "brk": 0,
      "frameMs": 23.4
    },
    {
      "t": 929.4,
      "rD": 0.42,
      "hC": 0.62,
      "mA": 0.41,
      "tD": 0.4,
      "mode": "Bb_phrygian",
      "bpm": 86,
      "arc": 0.357,
      "ent": 1591,
      "brk": 0,
      "frameMs": 9
    },
    {
      "t": 930.4,
      "rD": 0.41,
      "hC": 0.62,
      "mA": 0.4,
      "tD": 0.4,
      "mode": "Bb_phrygian",
      "bpm": 86,
      "arc": 0.358,
      "ent": 1575,
      "brk": 0,
      "frameMs": 17.3
    },
    {
      "t": 931.4,
      "rD": 0.4,
      "hC": 0.61,
      "mA": 0.4,
      "tD": 0.4,
      "mode": "Bb_phrygian",
      "bpm": 86,
      "arc": 0.358,
      "ent": 1509,
      "brk": 0,
      "frameMs": 16.8
    },
    {
      "t": 932.4,
      "rD": 0.38,
      "hC": 0.6,
      "mA": 0.39,
      "tD": 0.4,
      "mode": "Bb_phrygian",
      "bpm": 86,
      "arc": 0.358,
      "ent": 1325,
      "brk": 0,
      "frameMs": 25.3
    },
    {
      "t": 933.4,
      "rD": 0.37,
      "hC": 0.59,
      "mA": 0.38,
      "tD": 0.39,
      "mode": "Bb_phrygian",
      "bpm": 86,
      "arc": 0.359,
      "ent": 1117,
      "brk": 0,
      "frameMs": 24.3
    },
    {
      "t": 934.4,
      "rD": 0.35,
      "hC": 0.58,
      "mA": 0.37,
      "tD": 0.38,
      "mode": "Bb_phrygian",
      "bpm": 86,
      "arc": 0.359,
      "ent": 932,
      "brk": 0,
      "frameMs": 17
    },
    {
      "t": 935.4,
      "rD": 0.34,
      "hC": 0.56,
      "mA": 0.36,
      "tD": 0.37,
      "mode": "Bb_phrygian",
      "bpm": 86,
      "arc": 0.36,
      "ent": 741,
      "brk": 0,
      "frameMs": 16.7
    },
    {
      "t": 936.4,
      "rD": 0.32,
      "hC": 0.54,
      "mA": 0.35,
      "tD": 0.35,
      "mode": "Bb_phrygian",
      "bpm": 86,
      "arc": 0.36,
      "ent": 633,
      "brk": 0,
      "frameMs": 8.3
    },
    {
      "t": 937.4,
      "rD": 0.3,
      "hC": 0.52,
      "mA": 0.33,
      "tD": 0.33,
      "mode": "Bb_phrygian",
      "bpm": 86,
      "arc": 0.36,
      "ent": 510,
      "brk": 0,
      "frameMs": 16.6
    },
    {
      "t": 938.5,
      "rD": 0.29,
      "hC": 0.5,
      "mA": 0.32,
      "tD": 0.32,
      "mode": "Bb_phrygian",
      "bpm": 86,
      "arc": 0.361,
      "ent": 443,
      "brk": 0,
      "frameMs": 7.9
    },
    {
      "t": 939.5,
      "rD": 0.27,
      "hC": 0.48,
      "mA": 0.3,
      "tD": 0.3,
      "mode": "Bb_phrygian",
      "bpm": 86,
      "arc": 0.361,
      "ent": 408,
      "brk": 0,
      "frameMs": 17.2
    },
    {
      "t": 940.5,
      "rD": 0.26,
      "hC": 0.45,
      "mA": 0.28,
      "tD": 0.28,
      "mode": "Bb_phrygian",
      "bpm": 86,
      "arc": 0.362,
      "ent": 384,
      "brk": 0,
      "frameMs": 8.5
    },
    {
      "t": 941.5,
      "rD": 0.24,
      "hC": 0.43,
      "mA": 0.27,
      "tD": 0.26,
      "mode": "Bb_phrygian",
      "bpm": 86,
      "arc": 0.362,
      "ent": 396,
      "brk": 0,
      "frameMs": 9.1
    },
    {
      "t": 942.5,
      "rD": 0.23,
      "hC": 0.41,
      "mA": 0.25,
      "tD": 0.25,
      "mode": "Bb_phrygian",
      "bpm": 86,
      "arc": 0.362,
      "ent": 383,
      "brk": 0,
      "frameMs": 8.4
    },
    {
      "t": 943.5,
      "rD": 0.21,
      "hC": 0.39,
      "mA": 0.24,
      "tD": 0.23,
      "mode": "Bb_phrygian",
      "bpm": 86,
      "arc": 0.363,
      "ent": 391,
      "brk": 0,
      "frameMs": 8.3
    },
    {
      "t": 944.5,
      "rD": 0.2,
      "hC": 0.38,
      "mA": 0.23,
      "tD": 0.22,
      "mode": "Bb_phrygian",
      "bpm": 86,
      "arc": 0.363,
      "ent": 381,
      "brk": 0,
      "frameMs": 9.1
    },
    {
      "t": 945.5,
      "rD": 0.19,
      "hC": 0.37,
      "mA": 0.22,
      "tD": 0.22,
      "mode": "Bb_phrygian",
      "bpm": 86,
      "arc": 0.364,
      "ent": 360,
      "brk": 0,
      "frameMs": 16.8
    },
    {
      "t": 946.5,
      "rD": 0.17,
      "hC": 0.36,
      "mA": 0.21,
      "tD": 0.21,
      "mode": "Bb_phrygian",
      "bpm": 86,
      "arc": 0.364,
      "ent": 329,
      "brk": 0,
      "frameMs": 8.6
    },
    {
      "t": 947.5,
      "rD": 0.16,
      "hC": 0.35,
      "mA": 0.21,
      "tD": 0.21,
      "mode": "Bb_phrygian",
      "bpm": 86,
      "arc": 0.364,
      "ent": 333,
      "brk": 0,
      "frameMs": 8.7
    },
    {
      "t": 948.5,
      "rD": 0.14,
      "hC": 0.34,
      "mA": 0.2,
      "tD": 0.21,
      "mode": "Bb_phrygian",
      "bpm": 86,
      "arc": 0.365,
      "ent": 314,
      "brk": 0,
      "frameMs": 7.9
    },
    {
      "t": 949.5,
      "rD": 0.13,
      "hC": 0.34,
      "mA": 0.2,
      "tD": 0.21,
      "mode": "Bb_phrygian",
      "bpm": 86,
      "arc": 0.365,
      "ent": 308,
      "brk": 0,
      "frameMs": 16.8
    },
    {
      "t": 950.5,
      "rD": 0.12,
      "hC": 0.34,
      "mA": 0.2,
      "tD": 0.22,
      "mode": "Bb_phrygian",
      "bpm": 86,
      "arc": 0.365,
      "ent": 298,
      "brk": 0,
      "frameMs": 8.3
    },
    {
      "t": 951.5,
      "rD": 0.11,
      "hC": 0.33,
      "mA": 0.19,
      "tD": 0.22,
      "mode": "Bb_phrygian",
      "bpm": 86,
      "arc": 0.366,
      "ent": 275,
      "brk": 0,
      "frameMs": 16.5
    },
    {
      "t": 952.5,
      "rD": 0.09,
      "hC": 0.33,
      "mA": 0.19,
      "tD": 0.22,
      "mode": "Bb_phrygian",
      "bpm": 86,
      "arc": 0.366,
      "ent": 268,
      "brk": 0,
      "frameMs": 8.4
    },
    {
      "t": 953.5,
      "rD": 0.08,
      "hC": 0.32,
      "mA": 0.19,
      "tD": 0.22,
      "mode": "Bb_phrygian",
      "bpm": 86,
      "arc": 0.367,
      "ent": 246,
      "brk": 0,
      "frameMs": 16.7
    },
    {
      "t": 954.5,
      "rD": 0.07,
      "hC": 0.32,
      "mA": 0.18,
      "tD": 0.22,
      "mode": "Bb_phrygian",
      "bpm": 86,
      "arc": 0.367,
      "ent": 229,
      "brk": 0,
      "frameMs": 8.3
    },
    {
      "t": 955.5,
      "rD": 0.06,
      "hC": 0.31,
      "mA": 0.18,
      "tD": 0.22,
      "mode": "Bb_phrygian",
      "bpm": 86,
      "arc": 0.367,
      "ent": 214,
      "brk": 0,
      "frameMs": 16.8
    },
    {
      "t": 956.6,
      "rD": 0.05,
      "hC": 0.3,
      "mA": 0.17,
      "tD": 0.21,
      "mode": "Bb_phrygian",
      "bpm": 86,
      "arc": 0.368,
      "ent": 186,
      "brk": 0,
      "frameMs": 8.1
    },
    {
      "t": 957.6,
      "rD": 0.04,
      "hC": 0.29,
      "mA": 0.16,
      "tD": 0.2,
      "mode": "Bb_phrygian",
      "bpm": 86,
      "arc": 0.368,
      "ent": 161,
      "brk": 0,
      "frameMs": 8
    },
    {
      "t": 958.6,
      "rD": 0.04,
      "hC": 0.27,
      "mA": 0.15,
      "tD": 0.19,
      "mode": "Bb_phrygian",
      "bpm": 86,
      "arc": 0.369,
      "ent": 122,
      "brk": 0,
      "frameMs": 8.2
    },
    {
      "t": 959.6,
      "rD": 0.03,
      "hC": 0.26,
      "mA": 0.14,
      "tD": 0.18,
      "mode": "Bb_phrygian",
      "bpm": 86,
      "arc": 0.369,
      "ent": 93,
      "brk": 1,
      "frameMs": 8.4
    },
    {
      "t": 960.6,
      "rD": 0.02,
      "hC": 0.24,
      "mA": 0.13,
      "tD": 0.17,
      "mode": "Bb_phrygian",
      "bpm": 86,
      "arc": 0.369,
      "ent": 63,
      "brk": 1,
      "frameMs": 8.1
    },
    {
      "t": 961.6,
      "rD": 0.02,
      "hC": 0.23,
      "mA": 0.11,
      "tD": 0.15,
      "mode": "Bb_phrygian",
      "bpm": 86,
      "arc": 0.37,
      "ent": 43,
      "brk": 1,
      "frameMs": 16.1
    },
    {
      "t": 962.6,
      "rD": 0.01,
      "hC": 0.21,
      "mA": 0.1,
      "tD": 0.14,
      "mode": "Bb_phrygian",
      "bpm": 86,
      "arc": 0.37,
      "ent": 29,
      "brk": 1,
      "frameMs": 8.8
    },
    {
      "t": 963.6,
      "rD": 0.01,
      "hC": 0.2,
      "mA": 0.09,
      "tD": 0.12,
      "mode": "Bb_phrygian",
      "bpm": 86,
      "arc": 0.371,
      "ent": 17,
      "brk": 1,
      "frameMs": 16.1
    },
    {
      "t": 964.6,
      "rD": 0,
      "hC": 0.18,
      "mA": 0.08,
      "tD": 0.11,
      "mode": "Bb_phrygian",
      "bpm": 86,
      "arc": 0.371,
      "ent": 7,
      "brk": 1,
      "frameMs": 8.4
    },
    {
      "t": 965.6,
      "rD": 0,
      "hC": 0.17,
      "mA": 0.07,
      "tD": 0.1,
      "mode": "Bb_phrygian",
      "bpm": 86,
      "arc": 0.371,
      "ent": 2,
      "brk": 1,
      "frameMs": 7.6
    },
    {
      "t": 966.6,
      "rD": 0,
      "hC": 0.16,
      "mA": 0.07,
      "tD": 0.09,
      "mode": "Bb_phrygian",
      "bpm": 86,
      "arc": 0.372,
      "ent": 2,
      "brk": 1,
      "frameMs": 9.9
    },
    {
      "t": 967.6,
      "rD": 0,
      "hC": 0.16,
      "mA": 0.07,
      "tD": 0.09,
      "mode": "Bb_phrygian",
      "bpm": 86,
      "arc": 0.372,
      "ent": 1,
      "brk": 1,
      "frameMs": 7.8
    },
    {
      "t": 968.6,
      "rD": 0,
      "hC": 0.16,
      "mA": 0.06,
      "tD": 0.09,
      "mode": "Bb_phrygian",
      "bpm": 86,
      "arc": 0.372,
      "ent": 0,
      "brk": 0,
      "frameMs": 8.3
    },
    {
      "t": 969.6,
      "rD": 0,
      "hC": 0.16,
      "mA": 0.06,
      "tD": 0.09,
      "mode": "Bb_phrygian",
      "bpm": 86,
      "arc": 0.373,
      "ent": 11,
      "brk": 0,
      "frameMs": 8.7
    },
    {
      "t": 970.6,
      "rD": 0,
      "hC": 0.16,
      "mA": 0.07,
      "tD": 0.1,
      "mode": "Bb_phrygian",
      "bpm": 86,
      "arc": 0.373,
      "ent": 11,
      "brk": 0,
      "frameMs": 8.3
    },
    {
      "t": 971.6,
      "rD": 0,
      "hC": 0.17,
      "mA": 0.07,
      "tD": 0.1,
      "mode": "Bb_phrygian",
      "bpm": 86,
      "arc": 0.374,
      "ent": 10,
      "brk": 0,
      "frameMs": 8
    },
    {
      "t": 972.6,
      "rD": 0,
      "hC": 0.18,
      "mA": 0.08,
      "tD": 0.11,
      "mode": "Bb_phrygian",
      "bpm": 86,
      "arc": 0.374,
      "ent": 15,
      "brk": 0,
      "frameMs": 7.4
    },
    {
      "t": 973.6,
      "rD": 0,
      "hC": 0.18,
      "mA": 0.08,
      "tD": 0.12,
      "mode": "Bb_phrygian",
      "bpm": 86,
      "arc": 0.374,
      "ent": 14,
      "brk": 0,
      "frameMs": 7.3
    },
    {
      "t": 974.6,
      "rD": 0,
      "hC": 0.19,
      "mA": 0.09,
      "tD": 0.13,
      "mode": "Bb_phrygian",
      "bpm": 86,
      "arc": 0.375,
      "ent": 14,
      "brk": 0,
      "frameMs": 9.5
    },
    {
      "t": 975.6,
      "rD": 0,
      "hC": 0.2,
      "mA": 0.09,
      "tD": 0.14,
      "mode": "Bb_phrygian",
      "bpm": 86,
      "arc": 0.375,
      "ent": 11,
      "brk": 0,
      "frameMs": 8.9
    },
    {
      "t": 976.6,
      "rD": 0,
      "hC": 0.21,
      "mA": 0.1,
      "tD": 0.15,
      "mode": "Bb_phrygian",
      "bpm": 86,
      "arc": 0.376,
      "ent": 10,
      "brk": 0,
      "frameMs": 10.3
    },
    {
      "t": 977.6,
      "rD": 0,
      "hC": 0.21,
      "mA": 0.1,
      "tD": 0.15,
      "mode": "Bb_phrygian",
      "bpm": 86,
      "arc": 0.376,
      "ent": 8,
      "brk": 0,
      "frameMs": 7.9
    },
    {
      "t": 978.6,
      "rD": 0,
      "hC": 0.21,
      "mA": 0.1,
      "tD": 0.16,
      "mode": "Bb_phrygian",
      "bpm": 86,
      "arc": 0.376,
      "ent": 6,
      "brk": 0,
      "frameMs": 8.3
    },
    {
      "t": 979.7,
      "rD": 0,
      "hC": 0.21,
      "mA": 0.1,
      "tD": 0.16,
      "mode": "Bb_phrygian",
      "bpm": 86,
      "arc": 0.377,
      "ent": 5,
      "brk": 0,
      "frameMs": 8.3
    },
    {
      "t": 980.7,
      "rD": 0,
      "hC": 0.21,
      "mA": 0.1,
      "tD": 0.15,
      "mode": "Bb_phrygian",
      "bpm": 86,
      "arc": 0.377,
      "ent": 13,
      "brk": 0,
      "frameMs": 9.5
    },
    {
      "t": 981.7,
      "rD": 0,
      "hC": 0.2,
      "mA": 0.1,
      "tD": 0.15,
      "mode": "Bb_phrygian",
      "bpm": 86,
      "arc": 0.378,
      "ent": 13,
      "brk": 0,
      "frameMs": 16.7
    },
    {
      "t": 982.7,
      "rD": 0,
      "hC": 0.2,
      "mA": 0.09,
      "tD": 0.14,
      "mode": "Bb_phrygian",
      "bpm": 86,
      "arc": 0.378,
      "ent": 14,
      "brk": 0,
      "frameMs": 8.4
    },
    {
      "t": 983.7,
      "rD": 0,
      "hC": 0.19,
      "mA": 0.09,
      "tD": 0.13,
      "mode": "Bb_phrygian",
      "bpm": 86,
      "arc": 0.378,
      "ent": 11,
      "brk": 0,
      "frameMs": 8.3
    },
    {
      "t": 984.7,
      "rD": 0,
      "hC": 0.18,
      "mA": 0.08,
      "tD": 0.12,
      "mode": "Bb_phrygian",
      "bpm": 86,
      "arc": 0.379,
      "ent": 10,
      "brk": 0,
      "frameMs": 9.6
    },
    {
      "t": 985.7,
      "rD": 0,
      "hC": 0.17,
      "mA": 0.07,
      "tD": 0.11,
      "mode": "Bb_phrygian",
      "bpm": 86,
      "arc": 0.379,
      "ent": 7,
      "brk": 0,
      "frameMs": 17.7
    },
    {
      "t": 986.7,
      "rD": 0,
      "hC": 0.16,
      "mA": 0.07,
      "tD": 0.1,
      "mode": "Bb_phrygian",
      "bpm": 86,
      "arc": 0.379,
      "ent": 5,
      "brk": 0,
      "frameMs": 16.9
    },
    {
      "t": 987.7,
      "rD": 0,
      "hC": 0.15,
      "mA": 0.06,
      "tD": 0.09,
      "mode": "Bb_phrygian",
      "bpm": 86,
      "arc": 0.38,
      "ent": 4,
      "brk": 0,
      "frameMs": 8.5
    },
    {
      "t": 988.7,
      "rD": 0,
      "hC": 0.15,
      "mA": 0.06,
      "tD": 0.08,
      "mode": "Bb_phrygian",
      "bpm": 86,
      "arc": 0.38,
      "ent": 3,
      "brk": 0,
      "frameMs": 8
    },
    {
      "t": 989.7,
      "rD": 0,
      "hC": 0.14,
      "mA": 0.05,
      "tD": 0.08,
      "mode": "Bb_phrygian",
      "bpm": 86,
      "arc": 0.381,
      "ent": 3,
      "brk": 0,
      "frameMs": 8.1
    },
    {
      "t": 990.7,
      "rD": 0,
      "hC": 0.14,
      "mA": 0.05,
      "tD": 0.08,
      "mode": "Bb_phrygian",
      "bpm": 86,
      "arc": 0.381,
      "ent": 2,
      "brk": 0,
      "frameMs": 9
    },
    {
      "t": 991.7,
      "rD": 0,
      "hC": 0.14,
      "mA": 0.05,
      "tD": 0.08,
      "mode": "Bb_phrygian",
      "bpm": 86,
      "arc": 0.381,
      "ent": 15,
      "brk": 0,
      "frameMs": 7.5
    },
    {
      "t": 992.7,
      "rD": 0,
      "hC": 0.14,
      "mA": 0.05,
      "tD": 0.08,
      "mode": "Bb_phrygian",
      "bpm": 86,
      "arc": 0.382,
      "ent": 16,
      "brk": 0,
      "frameMs": 6.6
    },
    {
      "t": 993.7,
      "rD": 0,
      "hC": 0.15,
      "mA": 0.06,
      "tD": 0.09,
      "mode": "Bb_phrygian",
      "bpm": 86,
      "arc": 0.382,
      "ent": 16,
      "brk": 0,
      "frameMs": 8
    },
    {
      "t": 994.7,
      "rD": 0,
      "hC": 0.15,
      "mA": 0.06,
      "tD": 0.1,
      "mode": "Bb_phrygian",
      "bpm": 86,
      "arc": 0.383,
      "ent": 23,
      "brk": 0,
      "frameMs": 17.1
    },
    {
      "t": 995.7,
      "rD": 0,
      "hC": 0.16,
      "mA": 0.07,
      "tD": 0.11,
      "mode": "Bb_phrygian",
      "bpm": 86,
      "arc": 0.383,
      "ent": 24,
      "brk": 0,
      "frameMs": 8
    },
    {
      "t": 996.7,
      "rD": 0,
      "hC": 0.17,
      "mA": 0.07,
      "tD": 0.12,
      "mode": "Bb_phrygian",
      "bpm": 86,
      "arc": 0.383,
      "ent": 19,
      "brk": 0,
      "frameMs": 7.9
    },
    {
      "t": 997.7,
      "rD": 0,
      "hC": 0.18,
      "mA": 0.08,
      "tD": 0.12,
      "mode": "Bb_phrygian",
      "bpm": 86,
      "arc": 0.384,
      "ent": 16,
      "brk": 0,
      "frameMs": 7.9
    },
    {
      "t": 998.7,
      "rD": 0,
      "hC": 0.19,
      "mA": 0.09,
      "tD": 0.13,
      "mode": "Bb_phrygian",
      "bpm": 86,
      "arc": 0.384,
      "ent": 12,
      "brk": 0,
      "frameMs": 8.3
    },
    {
      "t": 999.7,
      "rD": 0,
      "hC": 0.19,
      "mA": 0.09,
      "tD": 0.14,
      "mode": "Bb_phrygian",
      "bpm": 86,
      "arc": 0.385,
      "ent": 12,
      "brk": 0,
      "frameMs": 16.8
    },
    {
      "t": 1000.7,
      "rD": 0,
      "hC": 0.2,
      "mA": 0.09,
      "tD": 0.15,
      "mode": "Bb_phrygian",
      "bpm": 86,
      "arc": 0.385,
      "ent": 10,
      "brk": 0,
      "frameMs": 8.4
    },
    {
      "t": 1001.7,
      "rD": 0,
      "hC": 0.2,
      "mA": 0.09,
      "tD": 0.15,
      "mode": "Bb_phrygian",
      "bpm": 86,
      "arc": 0.385,
      "ent": 7,
      "brk": 0,
      "frameMs": 9.1
    },
    {
      "t": 1002.7,
      "rD": 0,
      "hC": 0.2,
      "mA": 0.09,
      "tD": 0.15,
      "mode": "Bb_phrygian",
      "bpm": 86,
      "arc": 0.386,
      "ent": 7,
      "brk": 0,
      "frameMs": 8.3
    },
    {
      "t": 1003.7,
      "rD": 0,
      "hC": 0.19,
      "mA": 0.09,
      "tD": 0.14,
      "mode": "Bb_phrygian",
      "bpm": 86,
      "arc": 0.386,
      "ent": 6,
      "brk": 0,
      "frameMs": 8.3
    },
    {
      "t": 1004.8,
      "rD": 0,
      "hC": 0.19,
      "mA": 0.09,
      "tD": 0.14,
      "mode": "Bb_phrygian",
      "bpm": 86,
      "arc": 0.386,
      "ent": 6,
      "brk": 0,
      "frameMs": 8.2
    },
    {
      "t": 1005.8,
      "rD": 0,
      "hC": 0.18,
      "mA": 0.08,
      "tD": 0.13,
      "mode": "Bb_phrygian",
      "bpm": 86,
      "arc": 0.387,
      "ent": 16,
      "brk": 0,
      "frameMs": 16.4
    },
    {
      "t": 1006.8,
      "rD": 0,
      "hC": 0.17,
      "mA": 0.07,
      "tD": 0.12,
      "mode": "Bb_phrygian",
      "bpm": 86,
      "arc": 0.387,
      "ent": 16,
      "brk": 0,
      "frameMs": 8
    },
    {
      "t": 1007.8,
      "rD": 0,
      "hC": 0.16,
      "mA": 0.07,
      "tD": 0.11,
      "mode": "Bb_phrygian",
      "bpm": 86,
      "arc": 0.388,
      "ent": 16,
      "brk": 1,
      "frameMs": 17.8
    },
    {
      "t": 1008.8,
      "rD": 0,
      "hC": 0.15,
      "mA": 0.06,
      "tD": 0.1,
      "mode": "Bb_phrygian",
      "bpm": 86,
      "arc": 0.388,
      "ent": 15,
      "brk": 1,
      "frameMs": 18.3
    },
    {
      "t": 1009.8,
      "rD": 0,
      "hC": 0.14,
      "mA": 0.05,
      "tD": 0.09,
      "mode": "Bb_phrygian",
      "bpm": 86,
      "arc": 0.388,
      "ent": 14,
      "brk": 1,
      "frameMs": 7.9
    },
    {
      "t": 1010.8,
      "rD": 0,
      "hC": 0.13,
      "mA": 0.05,
      "tD": 0.08,
      "mode": "Bb_phrygian",
      "bpm": 86,
      "arc": 0.389,
      "ent": 10,
      "brk": 1,
      "frameMs": 8
    },
    {
      "t": 1011.8,
      "rD": 0,
      "hC": 0.13,
      "mA": 0.04,
      "tD": 0.07,
      "mode": "Bb_phrygian",
      "bpm": 86,
      "arc": 0.389,
      "ent": 7,
      "brk": 1,
      "frameMs": 8.3
    },
    {
      "t": 1012.8,
      "rD": 0,
      "hC": 0.12,
      "mA": 0.04,
      "tD": 0.07,
      "mode": "Bb_phrygian",
      "bpm": 86,
      "arc": 0.39,
      "ent": 6,
      "brk": 0,
      "frameMs": 8.3
    },
    {
      "t": 1013.8,
      "rD": 0,
      "hC": 0.12,
      "mA": 0.04,
      "tD": 0.07,
      "mode": "Bb_phrygian",
      "bpm": 86,
      "arc": 0.39,
      "ent": 11,
      "brk": 0,
      "frameMs": 8.4
    },
    {
      "t": 1014.8,
      "rD": 0,
      "hC": 0.12,
      "mA": 0.04,
      "tD": 0.07,
      "mode": "Bb_phrygian",
      "bpm": 86,
      "arc": 0.39,
      "ent": 12,
      "brk": 0,
      "frameMs": 6.8
    },
    {
      "t": 1015.8,
      "rD": 0,
      "hC": 0.13,
      "mA": 0.04,
      "tD": 0.07,
      "mode": "Bb_phrygian",
      "bpm": 86,
      "arc": 0.391,
      "ent": 12,
      "brk": 0,
      "frameMs": 8.4
    },
    {
      "t": 1016.8,
      "rD": 0,
      "hC": 0.13,
      "mA": 0.05,
      "tD": 0.08,
      "mode": "Bb_phrygian",
      "bpm": 86,
      "arc": 0.391,
      "ent": 23,
      "brk": 0,
      "frameMs": 9.5
    },
    {
      "t": 1017.8,
      "rD": 0,
      "hC": 0.14,
      "mA": 0.05,
      "tD": 0.09,
      "mode": "Bb_phrygian",
      "bpm": 86,
      "arc": 0.392,
      "ent": 24,
      "brk": 0,
      "frameMs": 8.5
    },
    {
      "t": 1018.8,
      "rD": 0,
      "hC": 0.15,
      "mA": 0.06,
      "tD": 0.1,
      "mode": "Bb_phrygian",
      "bpm": 86,
      "arc": 0.392,
      "ent": 25,
      "brk": 0,
      "frameMs": 9.6
    },
    {
      "t": 1019.8,
      "rD": 0,
      "hC": 0.16,
      "mA": 0.06,
      "tD": 0.11,
      "mode": "Bb_phrygian",
      "bpm": 86,
      "arc": 0.392,
      "ent": 23,
      "brk": 0,
      "frameMs": 8.7
    },
    {
      "t": 1020.8,
      "rD": 0,
      "hC": 0.16,
      "mA": 0.07,
      "tD": 0.12,
      "mode": "Bb_phrygian",
      "bpm": 86,
      "arc": 0.393,
      "ent": 19,
      "brk": 0,
      "frameMs": 8.3
    },
    {
      "t": 1021.8,
      "rD": 0,
      "hC": 0.17,
      "mA": 0.08,
      "tD": 0.12,
      "mode": "Bb_phrygian",
      "bpm": 86,
      "arc": 0.393,
      "ent": 16,
      "brk": 0,
      "frameMs": 7.4
    },
    {
      "t": 1022.9,
      "rD": 0,
      "hC": 0.18,
      "mA": 0.08,
      "tD": 0.13,
      "mode": "Bb_phrygian",
      "bpm": 86,
      "arc": 0.393,
      "ent": 13,
      "brk": 0,
      "frameMs": 8.1
    },
    {
      "t": 1023.9,
      "rD": 0,
      "hC": 0.18,
      "mA": 0.08,
      "tD": 0.14,
      "mode": "Bb_phrygian",
      "bpm": 86,
      "arc": 0.394,
      "ent": 10,
      "brk": 0,
      "frameMs": 8.3
    },
    {
      "t": 1024.9,
      "rD": 0,
      "hC": 0.18,
      "mA": 0.08,
      "tD": 0.14,
      "mode": "Bb_phrygian",
      "bpm": 86,
      "arc": 0.394,
      "ent": 22,
      "brk": 0,
      "frameMs": 8
    },
    {
      "t": 1025.9,
      "rD": 0,
      "hC": 0.18,
      "mA": 0.08,
      "tD": 0.14,
      "mode": "Bb_phrygian",
      "bpm": 86,
      "arc": 0.395,
      "ent": 23,
      "brk": 0,
      "frameMs": 16.5
    },
    {
      "t": 1026.9,
      "rD": 0,
      "hC": 0.18,
      "mA": 0.08,
      "tD": 0.13,
      "mode": "D_dorian",
      "bpm": 87,
      "arc": 0.395,
      "ent": 24,
      "brk": 0,
      "frameMs": 17.5
    },
    {
      "t": 1027.9,
      "rD": 0,
      "hC": 0.18,
      "mA": 0.08,
      "tD": 0.13,
      "mode": "D_dorian",
      "bpm": 89,
      "arc": 0.395,
      "ent": 33,
      "brk": 0,
      "frameMs": 8.4
    },
    {
      "t": 1028.9,
      "rD": 0,
      "hC": 0.17,
      "mA": 0.07,
      "tD": 0.12,
      "mode": "D_dorian",
      "bpm": 91,
      "arc": 0.396,
      "ent": 27,
      "brk": 0,
      "frameMs": 8.3
    },
    {
      "t": 1029.9,
      "rD": 0,
      "hC": 0.16,
      "mA": 0.07,
      "tD": 0.11,
      "mode": "D_dorian",
      "bpm": 91,
      "arc": 0.396,
      "ent": 19,
      "brk": 0,
      "frameMs": 9.3
    },
    {
      "t": 1030.9,
      "rD": 0,
      "hC": 0.15,
      "mA": 0.06,
      "tD": 0.1,
      "mode": "D_dorian",
      "bpm": 92,
      "arc": 0.397,
      "ent": 14,
      "brk": 0,
      "frameMs": 7.9
    },
    {
      "t": 1031.9,
      "rD": 0,
      "hC": 0.14,
      "mA": 0.06,
      "tD": 0.09,
      "mode": "D_dorian",
      "bpm": 92,
      "arc": 0.397,
      "ent": 17,
      "brk": 0,
      "frameMs": 8.3
    },
    {
      "t": 1032.9,
      "rD": 0,
      "hC": 0.14,
      "mA": 0.05,
      "tD": 0.08,
      "mode": "D_dorian",
      "bpm": 92,
      "arc": 0.397,
      "ent": 13,
      "brk": 0,
      "frameMs": 8.8
    },
    {
      "t": 1033.9,
      "rD": 0,
      "hC": 0.13,
      "mA": 0.05,
      "tD": 0.08,
      "mode": "D_dorian",
      "bpm": 92,
      "arc": 0.398,
      "ent": 9,
      "brk": 0,
      "frameMs": 8.3
    },
    {
      "t": 1034.9,
      "rD": 0,
      "hC": 0.13,
      "mA": 0.04,
      "tD": 0.07,
      "mode": "D_dorian",
      "bpm": 92,
      "arc": 0.398,
      "ent": 8,
      "brk": 0,
      "frameMs": 8.4
    },
    {
      "t": 1035.9,
      "rD": 0,
      "hC": 0.13,
      "mA": 0.04,
      "tD": 0.07,
      "mode": "D_dorian",
      "bpm": 92,
      "arc": 0.399,
      "ent": 18,
      "brk": 0,
      "frameMs": 8.3
    },
    {
      "t": 1036.9,
      "rD": 0,
      "hC": 0.13,
      "mA": 0.05,
      "tD": 0.07,
      "mode": "D_dorian",
      "bpm": 92,
      "arc": 0.399,
      "ent": 17,
      "brk": 0,
      "frameMs": 8
    },
    {
      "t": 1037.9,
      "rD": 0,
      "hC": 0.14,
      "mA": 0.05,
      "tD": 0.08,
      "mode": "D_dorian",
      "bpm": 92,
      "arc": 0.399,
      "ent": 16,
      "brk": 0,
      "frameMs": 7.9
    },
    {
      "t": 1038.9,
      "rD": 0,
      "hC": 0.14,
      "mA": 0.05,
      "tD": 0.08,
      "mode": "D_dorian",
      "bpm": 92,
      "arc": 0.4,
      "ent": 27,
      "brk": 0,
      "frameMs": 10
    },
    {
      "t": 1039.9,
      "rD": 0.01,
      "hC": 0.15,
      "mA": 0.06,
      "tD": 0.09,
      "mode": "D_dorian",
      "bpm": 92,
      "arc": 0.4,
      "ent": 26,
      "brk": 0,
      "frameMs": 10.4
    },
    {
      "t": 1040.9,
      "rD": 0.02,
      "hC": 0.17,
      "mA": 0.07,
      "tD": 0.11,
      "mode": "D_dorian",
      "bpm": 92,
      "arc": 0.401,
      "ent": 23,
      "brk": 0,
      "frameMs": 8
    },
    {
      "t": 1041.9,
      "rD": 0.04,
      "hC": 0.18,
      "mA": 0.08,
      "tD": 0.12,
      "mode": "D_dorian",
      "bpm": 92,
      "arc": 0.401,
      "ent": 25,
      "brk": 0,
      "frameMs": 8.3
    },
    {
      "t": 1042.9,
      "rD": 0.05,
      "hC": 0.19,
      "mA": 0.09,
      "tD": 0.13,
      "mode": "D_dorian",
      "bpm": 92,
      "arc": 0.401,
      "ent": 21,
      "brk": 0,
      "frameMs": 8.7
    },
    {
      "t": 1044,
      "rD": 0.07,
      "hC": 0.21,
      "mA": 0.1,
      "tD": 0.15,
      "mode": "D_dorian",
      "bpm": 92,
      "arc": 0.402,
      "ent": 15,
      "brk": 0,
      "frameMs": 6.9
    },
    {
      "t": 1045,
      "rD": 0.08,
      "hC": 0.22,
      "mA": 0.11,
      "tD": 0.16,
      "mode": "D_dorian",
      "bpm": 92,
      "arc": 0.402,
      "ent": 23,
      "brk": 0,
      "frameMs": 10.3
    },
    {
      "t": 1046,
      "rD": 0.1,
      "hC": 0.23,
      "mA": 0.12,
      "tD": 0.17,
      "mode": "D_dorian",
      "bpm": 92,
      "arc": 0.402,
      "ent": 48,
      "brk": 0,
      "frameMs": 8.3
    },
    {
      "t": 1047,
      "rD": 0.11,
      "hC": 0.24,
      "mA": 0.12,
      "tD": 0.18,
      "mode": "D_dorian",
      "bpm": 92,
      "arc": 0.403,
      "ent": 89,
      "brk": 0,
      "frameMs": 8.3
    },
    {
      "t": 1048,
      "rD": 0.12,
      "hC": 0.25,
      "mA": 0.13,
      "tD": 0.19,
      "mode": "D_dorian",
      "bpm": 92,
      "arc": 0.403,
      "ent": 121,
      "brk": 0,
      "frameMs": 9.9
    },
    {
      "t": 1049,
      "rD": 0.12,
      "hC": 0.26,
      "mA": 0.13,
      "tD": 0.19,
      "mode": "D_dorian",
      "bpm": 92,
      "arc": 0.404,
      "ent": 152,
      "brk": 0,
      "frameMs": 8.4
    },
    {
      "t": 1050,
      "rD": 0.13,
      "hC": 0.26,
      "mA": 0.14,
      "tD": 0.19,
      "mode": "D_dorian",
      "bpm": 92,
      "arc": 0.404,
      "ent": 174,
      "brk": 0,
      "frameMs": 7.1
    },
    {
      "t": 1051,
      "rD": 0.12,
      "hC": 0.26,
      "mA": 0.14,
      "tD": 0.19,
      "mode": "D_dorian",
      "bpm": 92,
      "arc": 0.404,
      "ent": 182,
      "brk": 0,
      "frameMs": 8.3
    },
    {
      "t": 1052,
      "rD": 0.12,
      "hC": 0.26,
      "mA": 0.14,
      "tD": 0.19,
      "mode": "D_dorian",
      "bpm": 92,
      "arc": 0.405,
      "ent": 222,
      "brk": 0,
      "frameMs": 8.4
    },
    {
      "t": 1053,
      "rD": 0.12,
      "hC": 0.26,
      "mA": 0.14,
      "tD": 0.18,
      "mode": "D_dorian",
      "bpm": 92,
      "arc": 0.405,
      "ent": 217,
      "brk": 0,
      "frameMs": 8.2
    },
    {
      "t": 1054,
      "rD": 0.11,
      "hC": 0.26,
      "mA": 0.14,
      "tD": 0.18,
      "mode": "D_dorian",
      "bpm": 92,
      "arc": 0.406,
      "ent": 207,
      "brk": 0,
      "frameMs": 8.5
    },
    {
      "t": 1055,
      "rD": 0.11,
      "hC": 0.26,
      "mA": 0.14,
      "tD": 0.18,
      "mode": "D_dorian",
      "bpm": 92,
      "arc": 0.406,
      "ent": 198,
      "brk": 0,
      "frameMs": 7.9
    },
    {
      "t": 1056,
      "rD": 0.1,
      "hC": 0.26,
      "mA": 0.14,
      "tD": 0.17,
      "mode": "D_dorian",
      "bpm": 92,
      "arc": 0.406,
      "ent": 205,
      "brk": 0,
      "frameMs": 9.2
    },
    {
      "t": 1057,
      "rD": 0.1,
      "hC": 0.26,
      "mA": 0.14,
      "tD": 0.17,
      "mode": "D_dorian",
      "bpm": 92,
      "arc": 0.407,
      "ent": 195,
      "brk": 0,
      "frameMs": 8.3
    },
    {
      "t": 1058,
      "rD": 0.1,
      "hC": 0.27,
      "mA": 0.14,
      "tD": 0.17,
      "mode": "D_dorian",
      "bpm": 92,
      "arc": 0.407,
      "ent": 204,
      "brk": 0,
      "frameMs": 8.9
    },
    {
      "t": 1059,
      "rD": 0.11,
      "hC": 0.27,
      "mA": 0.14,
      "tD": 0.17,
      "mode": "D_dorian",
      "bpm": 92,
      "arc": 0.408,
      "ent": 227,
      "brk": 0,
      "frameMs": 8.1
    },
    {
      "t": 1060,
      "rD": 0.11,
      "hC": 0.28,
      "mA": 0.15,
      "tD": 0.18,
      "mode": "D_dorian",
      "bpm": 92,
      "arc": 0.408,
      "ent": 245,
      "brk": 0,
      "frameMs": 8.2
    },
    {
      "t": 1061,
      "rD": 0.13,
      "hC": 0.29,
      "mA": 0.15,
      "tD": 0.19,
      "mode": "D_dorian",
      "bpm": 92,
      "arc": 0.408,
      "ent": 254,
      "brk": 0,
      "frameMs": 8.1
    },
    {
      "t": 1062,
      "rD": 0.14,
      "hC": 0.3,
      "mA": 0.16,
      "tD": 0.2,
      "mode": "D_dorian",
      "bpm": 92,
      "arc": 0.409,
      "ent": 251,
      "brk": 0,
      "frameMs": 8.3
    },
    {
      "t": 1063,
      "rD": 0.16,
      "hC": 0.32,
      "mA": 0.17,
      "tD": 0.21,
      "mode": "D_dorian",
      "bpm": 92,
      "arc": 0.409,
      "ent": 258,
      "brk": 0,
      "frameMs": 9.2
    },
    {
      "t": 1064,
      "rD": 0.18,
      "hC": 0.33,
      "mA": 0.18,
      "tD": 0.23,
      "mode": "D_dorian",
      "bpm": 92,
      "arc": 0.409,
      "ent": 248,
      "brk": 0,
      "frameMs": 10.3
    },
    {
      "t": 1065,
      "rD": 0.2,
      "hC": 0.35,
      "mA": 0.2,
      "tD": 0.24,
      "mode": "D_dorian",
      "bpm": 92,
      "arc": 0.41,
      "ent": 270,
      "brk": 0,
      "frameMs": 8.4
    },
    {
      "t": 1066,
      "rD": 0.22,
      "hC": 0.37,
      "mA": 0.21,
      "tD": 0.26,
      "mode": "D_dorian",
      "bpm": 92,
      "arc": 0.41,
      "ent": 275,
      "brk": 1,
      "frameMs": 8
    },
    {
      "t": 1067,
      "rD": 0.24,
      "hC": 0.38,
      "mA": 0.22,
      "tD": 0.27,
      "mode": "D_dorian",
      "bpm": 92,
      "arc": 0.411,
      "ent": 290,
      "brk": 1,
      "frameMs": 9.8
    },
    {
      "t": 1068,
      "rD": 0.26,
      "hC": 0.4,
      "mA": 0.23,
      "tD": 0.29,
      "mode": "D_dorian",
      "bpm": 92,
      "arc": 0.411,
      "ent": 286,
      "brk": 1,
      "frameMs": 8.4
    },
    {
      "t": 1069,
      "rD": 0.27,
      "hC": 0.41,
      "mA": 0.24,
      "tD": 0.3,
      "mode": "D_dorian",
      "bpm": 92,
      "arc": 0.411,
      "ent": 350,
      "brk": 1,
      "frameMs": 8.5
    },
    {
      "t": 1070.1,
      "rD": 0.29,
      "hC": 0.42,
      "mA": 0.25,
      "tD": 0.31,
      "mode": "D_dorian",
      "bpm": 92,
      "arc": 0.412,
      "ent": 361,
      "brk": 1,
      "frameMs": 8.5
    },
    {
      "t": 1071.1,
      "rD": 0.3,
      "hC": 0.43,
      "mA": 0.26,
      "tD": 0.32,
      "mode": "D_dorian",
      "bpm": 92,
      "arc": 0.412,
      "ent": 371,
      "brk": 1,
      "frameMs": 8.4
    },
    {
      "t": 1072.1,
      "rD": 0.3,
      "hC": 0.44,
      "mA": 0.26,
      "tD": 0.32,
      "mode": "D_dorian",
      "bpm": 92,
      "arc": 0.413,
      "ent": 376,
      "brk": 1,
      "frameMs": 8.3
    },
    {
      "t": 1073.1,
      "rD": 0.31,
      "hC": 0.44,
      "mA": 0.26,
      "tD": 0.32,
      "mode": "D_dorian",
      "bpm": 92,
      "arc": 0.413,
      "ent": 393,
      "brk": 1,
      "frameMs": 8.8
    },
    {
      "t": 1074.1,
      "rD": 0.31,
      "hC": 0.45,
      "mA": 0.26,
      "tD": 0.32,
      "mode": "D_dorian",
      "bpm": 92,
      "arc": 0.413,
      "ent": 389,
      "brk": 1,
      "frameMs": 9.4
    },
    {
      "t": 1075.1,
      "rD": 0.3,
      "hC": 0.45,
      "mA": 0.26,
      "tD": 0.32,
      "mode": "D_dorian",
      "bpm": 92,
      "arc": 0.414,
      "ent": 419,
      "brk": 1,
      "frameMs": 7.9
    },
    {
      "t": 1076.1,
      "rD": 0.3,
      "hC": 0.44,
      "mA": 0.26,
      "tD": 0.31,
      "mode": "D_dorian",
      "bpm": 92,
      "arc": 0.414,
      "ent": 439,
      "brk": 0,
      "frameMs": 8.3
    },
    {
      "t": 1077.1,
      "rD": 0.29,
      "hC": 0.44,
      "mA": 0.26,
      "tD": 0.31,
      "mode": "D_dorian",
      "bpm": 92,
      "arc": 0.415,
      "ent": 412,
      "brk": 0,
      "frameMs": 8.2
    },
    {
      "t": 1078.1,
      "rD": 0.28,
      "hC": 0.44,
      "mA": 0.26,
      "tD": 0.3,
      "mode": "D_dorian",
      "bpm": 92,
      "arc": 0.415,
      "ent": 442,
      "brk": 0,
      "frameMs": 8.6
    },
    {
      "t": 1079.1,
      "rD": 0.28,
      "hC": 0.44,
      "mA": 0.26,
      "tD": 0.3,
      "mode": "D_dorian",
      "bpm": 92,
      "arc": 0.415,
      "ent": 427,
      "brk": 0,
      "frameMs": 17.2
    },
    {
      "t": 1080.1,
      "rD": 0.27,
      "hC": 0.44,
      "mA": 0.25,
      "tD": 0.29,
      "mode": "D_dorian",
      "bpm": 92,
      "arc": 0.416,
      "ent": 437,
      "brk": 0,
      "frameMs": 9.1
    },
    {
      "t": 1081.1,
      "rD": 0.27,
      "hC": 0.44,
      "mA": 0.25,
      "tD": 0.29,
      "mode": "D_dorian",
      "bpm": 92,
      "arc": 0.416,
      "ent": 402,
      "brk": 0,
      "frameMs": 8.1
    },
    {
      "t": 1082.1,
      "rD": 0.27,
      "hC": 0.44,
      "mA": 0.26,
      "tD": 0.29,
      "mode": "D_dorian",
      "bpm": 92,
      "arc": 0.416,
      "ent": 420,
      "brk": 0,
      "frameMs": 7.9
    },
    {
      "t": 1083.1,
      "rD": 0.28,
      "hC": 0.44,
      "mA": 0.26,
      "tD": 0.29,
      "mode": "D_dorian",
      "bpm": 92,
      "arc": 0.417,
      "ent": 433,
      "brk": 0,
      "frameMs": 8.2
    },
    {
      "t": 1084.1,
      "rD": 0.29,
      "hC": 0.45,
      "mA": 0.26,
      "tD": 0.3,
      "mode": "D_dorian",
      "bpm": 92,
      "arc": 0.417,
      "ent": 440,
      "brk": 0,
      "frameMs": 8.4
    },
    {
      "t": 1085.1,
      "rD": 0.3,
      "hC": 0.46,
      "mA": 0.27,
      "tD": 0.31,
      "mode": "D_dorian",
      "bpm": 92,
      "arc": 0.418,
      "ent": 433,
      "brk": 0,
      "frameMs": 8.3
    },
    {
      "t": 1086.1,
      "rD": 0.31,
      "hC": 0.47,
      "mA": 0.28,
      "tD": 0.32,
      "mode": "D_dorian",
      "bpm": 92,
      "arc": 0.418,
      "ent": 450,
      "brk": 0,
      "frameMs": 7.1
    },
    {
      "t": 1087.1,
      "rD": 0.32,
      "hC": 0.48,
      "mA": 0.28,
      "tD": 0.33,
      "mode": "D_dorian",
      "bpm": 92,
      "arc": 0.418,
      "ent": 430,
      "brk": 0,
      "frameMs": 8.2
    },
    {
      "t": 1088.1,
      "rD": 0.34,
      "hC": 0.49,
      "mA": 0.29,
      "tD": 0.34,
      "mode": "D_dorian",
      "bpm": 92,
      "arc": 0.419,
      "ent": 442,
      "brk": 0,
      "frameMs": 15.1
    },
    {
      "t": 1089.1,
      "rD": 0.35,
      "hC": 0.5,
      "mA": 0.3,
      "tD": 0.35,
      "mode": "D_dorian",
      "bpm": 92,
      "arc": 0.419,
      "ent": 432,
      "brk": 0,
      "frameMs": 8.3
    },
    {
      "t": 1090.1,
      "rD": 0.37,
      "hC": 0.51,
      "mA": 0.31,
      "tD": 0.36,
      "mode": "D_dorian",
      "bpm": 92,
      "arc": 0.42,
      "ent": 417,
      "brk": 0,
      "frameMs": 8.4
    },
    {
      "t": 1091.1,
      "rD": 0.38,
      "hC": 0.52,
      "mA": 0.31,
      "tD": 0.37,
      "mode": "D_dorian",
      "bpm": 92,
      "arc": 0.42,
      "ent": 451,
      "brk": 0,
      "frameMs": 8.3
    },
    {
      "t": 1092.2,
      "rD": 0.39,
      "hC": 0.53,
      "mA": 0.32,
      "tD": 0.38,
      "mode": "D_dorian",
      "bpm": 92,
      "arc": 0.42,
      "ent": 455,
      "brk": 0,
      "frameMs": 7.1
    },
    {
      "t": 1093.2,
      "rD": 0.39,
      "hC": 0.53,
      "mA": 0.32,
      "tD": 0.38,
      "mode": "D_dorian",
      "bpm": 92,
      "arc": 0.421,
      "ent": 458,
      "brk": 0,
      "frameMs": 8.5
    },
    {
      "t": 1094.2,
      "rD": 0.4,
      "hC": 0.53,
      "mA": 0.32,
      "tD": 0.39,
      "mode": "D_dorian",
      "bpm": 92,
      "arc": 0.421,
      "ent": 442,
      "brk": 0,
      "frameMs": 9.9
    },
    {
      "t": 1095.2,
      "rD": 0.39,
      "hC": 0.53,
      "mA": 0.32,
      "tD": 0.39,
      "mode": "D_dorian",
      "bpm": 92,
      "arc": 0.422,
      "ent": 466,
      "brk": 0,
      "frameMs": 7.8
    },
    {
      "t": 1096.2,
      "rD": 0.39,
      "hC": 0.53,
      "mA": 0.32,
      "tD": 0.38,
      "mode": "D_dorian",
      "bpm": 92,
      "arc": 0.422,
      "ent": 441,
      "brk": 0,
      "frameMs": 8.4
    },
    {
      "t": 1097.2,
      "rD": 0.38,
      "hC": 0.52,
      "mA": 0.32,
      "tD": 0.38,
      "mode": "D_dorian",
      "bpm": 92,
      "arc": 0.422,
      "ent": 436,
      "brk": 0,
      "frameMs": 8.1
    },
    {
      "t": 1098.2,
      "rD": 0.37,
      "hC": 0.51,
      "mA": 0.31,
      "tD": 0.37,
      "mode": "D_dorian",
      "bpm": 92,
      "arc": 0.423,
      "ent": 450,
      "brk": 0,
      "frameMs": 8.2
    },
    {
      "t": 1099.2,
      "rD": 0.36,
      "hC": 0.51,
      "mA": 0.3,
      "tD": 0.36,
      "mode": "D_dorian",
      "bpm": 92,
      "arc": 0.423,
      "ent": 431,
      "brk": 0,
      "frameMs": 8.3
    },
    {
      "t": 1100.2,
      "rD": 0.35,
      "hC": 0.5,
      "mA": 0.3,
      "tD": 0.35,
      "mode": "D_dorian",
      "bpm": 92,
      "arc": 0.423,
      "ent": 432,
      "brk": 0,
      "frameMs": 8.5
    },
    {
      "t": 1101.2,
      "rD": 0.33,
      "hC": 0.49,
      "mA": 0.29,
      "tD": 0.34,
      "mode": "D_dorian",
      "bpm": 92,
      "arc": 0.424,
      "ent": 428,
      "brk": 0,
      "frameMs": 16.7
    },
    {
      "t": 1102.2,
      "rD": 0.32,
      "hC": 0.48,
      "mA": 0.29,
      "tD": 0.33,
      "mode": "D_dorian",
      "bpm": 92,
      "arc": 0.424,
      "ent": 431,
      "brk": 0,
      "frameMs": 8.4
    },
    {
      "t": 1103.2,
      "rD": 0.31,
      "hC": 0.48,
      "mA": 0.28,
      "tD": 0.32,
      "mode": "D_dorian",
      "bpm": 92,
      "arc": 0.425,
      "ent": 399,
      "brk": 0,
      "frameMs": 10
    },
    {
      "t": 1104.2,
      "rD": 0.31,
      "hC": 0.47,
      "mA": 0.28,
      "tD": 0.32,
      "mode": "D_dorian",
      "bpm": 92,
      "arc": 0.425,
      "ent": 435,
      "brk": 0,
      "frameMs": 8.4
    },
    {
      "t": 1105.2,
      "rD": 0.31,
      "hC": 0.47,
      "mA": 0.28,
      "tD": 0.31,
      "mode": "D_dorian",
      "bpm": 92,
      "arc": 0.425,
      "ent": 424,
      "brk": 0,
      "frameMs": 8.2
    },
    {
      "t": 1106.2,
      "rD": 0.31,
      "hC": 0.47,
      "mA": 0.28,
      "tD": 0.31,
      "mode": "D_dorian",
      "bpm": 92,
      "arc": 0.426,
      "ent": 446,
      "brk": 0,
      "frameMs": 8
    },
    {
      "t": 1107.2,
      "rD": 0.31,
      "hC": 0.47,
      "mA": 0.28,
      "tD": 0.32,
      "mode": "D_dorian",
      "bpm": 92,
      "arc": 0.426,
      "ent": 399,
      "brk": 0,
      "frameMs": 8.7
    },
    {
      "t": 1108.2,
      "rD": 0.32,
      "hC": 0.48,
      "mA": 0.28,
      "tD": 0.32,
      "mode": "D_dorian",
      "bpm": 92,
      "arc": 0.427,
      "ent": 420,
      "brk": 0,
      "frameMs": 8.4
    },
    {
      "t": 1109.2,
      "rD": 0.33,
      "hC": 0.48,
      "mA": 0.29,
      "tD": 0.33,
      "mode": "D_dorian",
      "bpm": 92,
      "arc": 0.427,
      "ent": 417,
      "brk": 0,
      "frameMs": 6.9
    },
    {
      "t": 1110.3,
      "rD": 0.34,
      "hC": 0.49,
      "mA": 0.3,
      "tD": 0.34,
      "mode": "D_dorian",
      "bpm": 92,
      "arc": 0.427,
      "ent": 413,
      "brk": 0,
      "frameMs": 8.2
    },
    {
      "t": 1111.3,
      "rD": 0.35,
      "hC": 0.5,
      "mA": 0.3,
      "tD": 0.35,
      "mode": "D_dorian",
      "bpm": 92,
      "arc": 0.428,
      "ent": 415,
      "brk": 0,
      "frameMs": 8.8
    },
    {
      "t": 1112.3,
      "rD": 0.37,
      "hC": 0.51,
      "mA": 0.31,
      "tD": 0.36,
      "mode": "D_dorian",
      "bpm": 92,
      "arc": 0.428,
      "ent": 398,
      "brk": 0,
      "frameMs": 8
    },
    {
      "t": 1113.3,
      "rD": 0.38,
      "hC": 0.52,
      "mA": 0.32,
      "tD": 0.37,
      "mode": "D_dorian",
      "bpm": 92,
      "arc": 0.429,
      "ent": 429,
      "brk": 0,
      "frameMs": 8.4
    },
    {
      "t": 1114.3,
      "rD": 0.39,
      "hC": 0.53,
      "mA": 0.32,
      "tD": 0.38,
      "mode": "D_dorian",
      "bpm": 92,
      "arc": 0.429,
      "ent": 463,
      "brk": 0,
      "frameMs": 8.1
    },
    {
      "t": 1115.3,
      "rD": 0.4,
      "hC": 0.53,
      "mA": 0.33,
      "tD": 0.39,
      "mode": "D_dorian",
      "bpm": 92,
      "arc": 0.429,
      "ent": 487,
      "brk": 0,
      "frameMs": 8.4
    },
    {
      "t": 1116.3,
      "rD": 0.4,
      "hC": 0.54,
      "mA": 0.33,
      "tD": 0.39,
      "mode": "D_dorian",
      "bpm": 92,
      "arc": 0.43,
      "ent": 1155,
      "brk": 0,
      "frameMs": 9.6
    },
    {
      "t": 1117.3,
      "rD": 0.41,
      "hC": 0.54,
      "mA": 0.33,
      "tD": 0.39,
      "mode": "D_dorian",
      "bpm": 92,
      "arc": 0.43,
      "ent": 1506,
      "brk": 0,
      "frameMs": 7.6
    },
    {
      "t": 1118.3,
      "rD": 0.4,
      "hC": 0.54,
      "mA": 0.33,
      "tD": 0.39,
      "mode": "D_dorian",
      "bpm": 92,
      "arc": 0.43,
      "ent": 1741,
      "brk": 0,
      "frameMs": 8.5
    },
    {
      "t": 1119.3,
      "rD": 0.4,
      "hC": 0.54,
      "mA": 0.33,
      "tD": 0.39,
      "mode": "D_dorian",
      "bpm": 92,
      "arc": 0.431,
      "ent": 1889,
      "brk": 0,
      "frameMs": 8.3
    },
    {
      "t": 1120.3,
      "rD": 0.39,
      "hC": 0.53,
      "mA": 0.32,
      "tD": 0.38,
      "mode": "D_dorian",
      "bpm": 92,
      "arc": 0.431,
      "ent": 1731,
      "brk": 0,
      "frameMs": 8.1
    },
    {
      "t": 1121.3,
      "rD": 0.38,
      "hC": 0.52,
      "mA": 0.32,
      "tD": 0.37,
      "mode": "D_dorian",
      "bpm": 92,
      "arc": 0.432,
      "ent": 1553,
      "brk": 0,
      "frameMs": 7.9
    },
    {
      "t": 1122.3,
      "rD": 0.37,
      "hC": 0.52,
      "mA": 0.31,
      "tD": 0.36,
      "mode": "D_dorian",
      "bpm": 92,
      "arc": 0.432,
      "ent": 1323,
      "brk": 0,
      "frameMs": 7.6
    },
    {
      "t": 1123.3,
      "rD": 0.36,
      "hC": 0.51,
      "mA": 0.31,
      "tD": 0.35,
      "mode": "D_dorian",
      "bpm": 92,
      "arc": 0.432,
      "ent": 1094,
      "brk": 0,
      "frameMs": 8.3
    },
    {
      "t": 1124.3,
      "rD": 0.34,
      "hC": 0.5,
      "mA": 0.3,
      "tD": 0.34,
      "mode": "D_dorian",
      "bpm": 92,
      "arc": 0.433,
      "ent": 899,
      "brk": 0,
      "frameMs": 7.7
    },
    {
      "t": 1125.3,
      "rD": 0.33,
      "hC": 0.49,
      "mA": 0.3,
      "tD": 0.34,
      "mode": "D_dorian",
      "bpm": 92,
      "arc": 0.433,
      "ent": 732,
      "brk": 0,
      "frameMs": 9.2
    },
    {
      "t": 1126.4,
      "rD": 0.33,
      "hC": 0.49,
      "mA": 0.29,
      "tD": 0.33,
      "mode": "D_dorian",
      "bpm": 92,
      "arc": 0.434,
      "ent": 615,
      "brk": 1,
      "frameMs": 8
    },
    {
      "t": 1127.4,
      "rD": 0.32,
      "hC": 0.48,
      "mA": 0.29,
      "tD": 0.32,
      "mode": "D_dorian",
      "bpm": 92,
      "arc": 0.434,
      "ent": 513,
      "brk": 1,
      "frameMs": 8.6
    },
    {
      "t": 1128.4,
      "rD": 0.32,
      "hC": 0.48,
      "mA": 0.29,
      "tD": 0.32,
      "mode": "D_dorian",
      "bpm": 92,
      "arc": 0.434,
      "ent": 471,
      "brk": 1,
      "frameMs": 7.5
    },
    {
      "t": 1129.4,
      "rD": 0.32,
      "hC": 0.48,
      "mA": 0.29,
      "tD": 0.32,
      "mode": "D_dorian",
      "bpm": 92,
      "arc": 0.435,
      "ent": 416,
      "brk": 1,
      "frameMs": 8.2
    },
    {
      "t": 1130.4,
      "rD": 0.33,
      "hC": 0.49,
      "mA": 0.29,
      "tD": 0.33,
      "mode": "D_dorian",
      "bpm": 92,
      "arc": 0.435,
      "ent": 408,
      "brk": 1,
      "frameMs": 6.7
    },
    {
      "t": 1131.4,
      "rD": 0.33,
      "hC": 0.49,
      "mA": 0.3,
      "tD": 0.33,
      "mode": "D_dorian",
      "bpm": 92,
      "arc": 0.436,
      "ent": 385,
      "brk": 1,
      "frameMs": 8.5
    },
    {
      "t": 1132.4,
      "rD": 0.34,
      "hC": 0.5,
      "mA": 0.3,
      "tD": 0.34,
      "mode": "D_dorian",
      "bpm": 92,
      "arc": 0.436,
      "ent": 394,
      "brk": 1,
      "frameMs": 8.1
    },
    {
      "t": 1133.4,
      "rD": 0.36,
      "hC": 0.51,
      "mA": 0.31,
      "tD": 0.35,
      "mode": "D_dorian",
      "bpm": 92,
      "arc": 0.436,
      "ent": 408,
      "brk": 1,
      "frameMs": 8.5
    },
    {
      "t": 1134.4,
      "rD": 0.37,
      "hC": 0.52,
      "mA": 0.32,
      "tD": 0.36,
      "mode": "D_dorian",
      "bpm": 92,
      "arc": 0.437,
      "ent": 479,
      "brk": 0,
      "frameMs": 8.2
    },
    {
      "t": 1135.4,
      "rD": 0.38,
      "hC": 0.53,
      "mA": 0.32,
      "tD": 0.37,
      "mode": "D_dorian",
      "bpm": 92,
      "arc": 0.437,
      "ent": 521,
      "brk": 0,
      "frameMs": 9.5
    },
    {
      "t": 1136.4,
      "rD": 0.4,
      "hC": 0.54,
      "mA": 0.33,
      "tD": 0.38,
      "mode": "D_dorian",
      "bpm": 92,
      "arc": 0.437,
      "ent": 509,
      "brk": 0,
      "frameMs": 8.3
    },
    {
      "t": 1137.4,
      "rD": 0.41,
      "hC": 0.55,
      "mA": 0.33,
      "tD": 0.39,
      "mode": "D_dorian",
      "bpm": 92,
      "arc": 0.438,
      "ent": 544,
      "brk": 0,
      "frameMs": 16.7
    },
    {
      "t": 1138.4,
      "rD": 0.42,
      "hC": 0.55,
      "mA": 0.34,
      "tD": 0.4,
      "mode": "D_dorian",
      "bpm": 92,
      "arc": 0.438,
      "ent": 531,
      "brk": 0,
      "frameMs": 8.5
    },
    {
      "t": 1139.4,
      "rD": 0.42,
      "hC": 0.56,
      "mA": 0.34,
      "tD": 0.4,
      "mode": "D_dorian",
      "bpm": 92,
      "arc": 0.439,
      "ent": 564,
      "brk": 0,
      "frameMs": 7.1
    },
    {
      "t": 1140.4,
      "rD": 0.42,
      "hC": 0.56,
      "mA": 0.34,
      "tD": 0.41,
      "mode": "D_dorian",
      "bpm": 92,
      "arc": 0.439,
      "ent": 601,
      "brk": 0,
      "frameMs": 8.2
    },
    {
      "t": 1141.4,
      "rD": 0.42,
      "hC": 0.56,
      "mA": 0.34,
      "tD": 0.4,
      "mode": "D_dorian",
      "bpm": 92,
      "arc": 0.439,
      "ent": 618,
      "brk": 0,
      "frameMs": 8.8
    },
    {
      "t": 1142.4,
      "rD": 0.42,
      "hC": 0.55,
      "mA": 0.34,
      "tD": 0.4,
      "mode": "D_dorian",
      "bpm": 92,
      "arc": 0.44,
      "ent": 613,
      "brk": 0,
      "frameMs": 9.3
    },
    {
      "t": 1143.4,
      "rD": 0.41,
      "hC": 0.55,
      "mA": 0.34,
      "tD": 0.39,
      "mode": "D_dorian",
      "bpm": 92,
      "arc": 0.44,
      "ent": 623,
      "brk": 0,
      "frameMs": 8.4
    },
    {
      "t": 1144.4,
      "rD": 0.4,
      "hC": 0.54,
      "mA": 0.33,
      "tD": 0.39,
      "mode": "D_dorian",
      "bpm": 92,
      "arc": 0.441,
      "ent": 609,
      "brk": 0,
      "frameMs": 8.4
    },
    {
      "t": 1145.4,
      "rD": 0.39,
      "hC": 0.53,
      "mA": 0.33,
      "tD": 0.38,
      "mode": "D_dorian",
      "bpm": 92,
      "arc": 0.441,
      "ent": 621,
      "brk": 0,
      "frameMs": 9.3
    },
    {
      "t": 1146.4,
      "rD": 0.38,
      "hC": 0.53,
      "mA": 0.32,
      "tD": 0.37,
      "mode": "D_dorian",
      "bpm": 92,
      "arc": 0.441,
      "ent": 645,
      "brk": 0,
      "frameMs": 8.3
    },
    {
      "t": 1147.4,
      "rD": 0.37,
      "hC": 0.52,
      "mA": 0.32,
      "tD": 0.36,
      "mode": "D_dorian",
      "bpm": 92,
      "arc": 0.442,
      "ent": 645,
      "brk": 0,
      "frameMs": 8.4
    },
    {
      "t": 1148.4,
      "rD": 0.36,
      "hC": 0.51,
      "mA": 0.31,
      "tD": 0.35,
      "mode": "D_dorian",
      "bpm": 92,
      "arc": 0.442,
      "ent": 664,
      "brk": 0,
      "frameMs": 7
    },
    {
      "t": 1149.4,
      "rD": 0.35,
      "hC": 0.51,
      "mA": 0.31,
      "tD": 0.34,
      "mode": "D_dorian",
      "bpm": 92,
      "arc": 0.443,
      "ent": 601,
      "brk": 0,
      "frameMs": 9.3
    },
    {
      "t": 1150.4,
      "rD": 0.34,
      "hC": 0.5,
      "mA": 0.31,
      "tD": 0.34,
      "mode": "D_dorian",
      "bpm": 92,
      "arc": 0.443,
      "ent": 604,
      "brk": 0,
      "frameMs": 9.5
    },
    {
      "t": 1151.5,
      "rD": 0.34,
      "hC": 0.5,
      "mA": 0.31,
      "tD": 0.34,
      "mode": "D_dorian",
      "bpm": 92,
      "arc": 0.443,
      "ent": 550,
      "brk": 0,
      "frameMs": 7
    },
    {
      "t": 1152.5,
      "rD": 0.34,
      "hC": 0.5,
      "mA": 0.31,
      "tD": 0.34,
      "mode": "D_dorian",
      "bpm": 92,
      "arc": 0.444,
      "ent": 533,
      "brk": 0,
      "frameMs": 16
    },
    {
      "t": 1153.5,
      "rD": 0.35,
      "hC": 0.51,
      "mA": 0.31,
      "tD": 0.34,
      "mode": "D_dorian",
      "bpm": 92,
      "arc": 0.444,
      "ent": 468,
      "brk": 0,
      "frameMs": 8.5
    },
    {
      "t": 1154.5,
      "rD": 0.36,
      "hC": 0.51,
      "mA": 0.31,
      "tD": 0.35,
      "mode": "D_dorian",
      "bpm": 92,
      "arc": 0.445,
      "ent": 473,
      "brk": 0,
      "frameMs": 8.1
    },
    {
      "t": 1155.5,
      "rD": 0.37,
      "hC": 0.52,
      "mA": 0.32,
      "tD": 0.36,
      "mode": "D_dorian",
      "bpm": 92,
      "arc": 0.445,
      "ent": 439,
      "brk": 0,
      "frameMs": 8.2
    },
    {
      "t": 1156.5,
      "rD": 0.38,
      "hC": 0.53,
      "mA": 0.33,
      "tD": 0.37,
      "mode": "D_dorian",
      "bpm": 92,
      "arc": 0.445,
      "ent": 438,
      "brk": 0,
      "frameMs": 10.3
    },
    {
      "t": 1157.5,
      "rD": 0.4,
      "hC": 0.54,
      "mA": 0.33,
      "tD": 0.38,
      "mode": "D_dorian",
      "bpm": 92,
      "arc": 0.446,
      "ent": 393,
      "brk": 0,
      "frameMs": 8.3
    },
    {
      "t": 1158.5,
      "rD": 0.41,
      "hC": 0.55,
      "mA": 0.34,
      "tD": 0.39,
      "mode": "D_dorian",
      "bpm": 92,
      "arc": 0.446,
      "ent": 1079,
      "brk": 0,
      "frameMs": 7.5
    },
    {
      "t": 1159.5,
      "rD": 0.42,
      "hC": 0.56,
      "mA": 0.35,
      "tD": 0.4,
      "mode": "D_dorian",
      "bpm": 92,
      "arc": 0.446,
      "ent": 1481,
      "brk": 0,
      "frameMs": 16.7
    },
    {
      "t": 1160.5,
      "rD": 0.43,
      "hC": 0.57,
      "mA": 0.35,
      "tD": 0.41,
      "mode": "D_dorian",
      "bpm": 92,
      "arc": 0.447,
      "ent": 1740,
      "brk": 0,
      "frameMs": 7.1
    },
    {
      "t": 1161.5,
      "rD": 0.44,
      "hC": 0.58,
      "mA": 0.36,
      "tD": 0.42,
      "mode": "D_dorian",
      "bpm": 92,
      "arc": 0.447,
      "ent": 1953,
      "brk": 0,
      "frameMs": 7.7
    },
    {
      "t": 1162.5,
      "rD": 0.45,
      "hC": 0.58,
      "mA": 0.36,
      "tD": 0.42,
      "mode": "D_dorian",
      "bpm": 92,
      "arc": 0.448,
      "ent": 1977,
      "brk": 1,
      "frameMs": 8
    },
    {
      "t": 1163.5,
      "rD": 0.45,
      "hC": 0.58,
      "mA": 0.36,
      "tD": 0.42,
      "mode": "D_dorian",
      "bpm": 92,
      "arc": 0.448,
      "ent": 1826,
      "brk": 1,
      "frameMs": 8.3
    },
    {
      "t": 1164.5,
      "rD": 0.45,
      "hC": 0.58,
      "mA": 0.36,
      "tD": 0.42,
      "mode": "D_dorian",
      "bpm": 92,
      "arc": 0.448,
      "ent": 1555,
      "brk": 1,
      "frameMs": 10.2
    },
    {
      "t": 1165.5,
      "rD": 0.44,
      "hC": 0.58,
      "mA": 0.36,
      "tD": 0.42,
      "mode": "D_dorian",
      "bpm": 92,
      "arc": 0.449,
      "ent": 1317,
      "brk": 1,
      "frameMs": 8.2
    },
    {
      "t": 1166.5,
      "rD": 0.44,
      "hC": 0.57,
      "mA": 0.36,
      "tD": 0.41,
      "mode": "D_dorian",
      "bpm": 92,
      "arc": 0.449,
      "ent": 1043,
      "brk": 1,
      "frameMs": 16.5
    },
    {
      "t": 1167.5,
      "rD": 0.43,
      "hC": 0.57,
      "mA": 0.35,
      "tD": 0.4,
      "mode": "D_dorian",
      "bpm": 92,
      "arc": 0.45,
      "ent": 859,
      "brk": 1,
      "frameMs": 16.2
    },
    {
      "t": 1168.5,
      "rD": 0.41,
      "hC": 0.56,
      "mA": 0.35,
      "tD": 0.39,
      "mode": "D_dorian",
      "bpm": 92,
      "arc": 0.45,
      "ent": 686,
      "brk": 1,
      "frameMs": 9
    },
    {
      "t": 1169.6,
      "rD": 0.4,
      "hC": 0.55,
      "mA": 0.34,
      "tD": 0.38,
      "mode": "D_dorian",
      "bpm": 92,
      "arc": 0.45,
      "ent": 611,
      "brk": 1,
      "frameMs": 8.3
    },
    {
      "t": 1170.6,
      "rD": 0.39,
      "hC": 0.54,
      "mA": 0.34,
      "tD": 0.37,
      "mode": "D_dorian",
      "bpm": 92,
      "arc": 0.451,
      "ent": 564,
      "brk": 0,
      "frameMs": 16.7
    },
    {
      "t": 1171.6,
      "rD": 0.38,
      "hC": 0.54,
      "mA": 0.33,
      "tD": 0.37,
      "mode": "D_dorian",
      "bpm": 92,
      "arc": 0.451,
      "ent": 610,
      "brk": 0,
      "frameMs": 15.4
    },
    {
      "t": 1172.6,
      "rD": 0.38,
      "hC": 0.53,
      "mA": 0.33,
      "tD": 0.36,
      "mode": "D_dorian",
      "bpm": 92,
      "arc": 0.452,
      "ent": 640,
      "brk": 0,
      "frameMs": 16.7
    },
    {
      "t": 1173.6,
      "rD": 0.37,
      "hC": 0.53,
      "mA": 0.33,
      "tD": 0.36,
      "mode": "D_dorian",
      "bpm": 92,
      "arc": 0.452,
      "ent": 614,
      "brk": 0,
      "frameMs": 8.2
    },
    {
      "t": 1174.6,
      "rD": 0.37,
      "hC": 0.53,
      "mA": 0.33,
      "tD": 0.36,
      "mode": "D_dorian",
      "bpm": 92,
      "arc": 0.452,
      "ent": 616,
      "brk": 0,
      "frameMs": 17.2
    },
    {
      "t": 1175.6,
      "rD": 0.37,
      "hC": 0.53,
      "mA": 0.33,
      "tD": 0.36,
      "mode": "D_dorian",
      "bpm": 92,
      "arc": 0.453,
      "ent": 583,
      "brk": 0,
      "frameMs": 9.4
    },
    {
      "t": 1176.6,
      "rD": 0.38,
      "hC": 0.54,
      "mA": 0.33,
      "tD": 0.36,
      "mode": "D_dorian",
      "bpm": 92,
      "arc": 0.453,
      "ent": 618,
      "brk": 0,
      "frameMs": 8
    },
    {
      "t": 1177.6,
      "rD": 0.39,
      "hC": 0.54,
      "mA": 0.34,
      "tD": 0.37,
      "mode": "D_dorian",
      "bpm": 92,
      "arc": 0.453,
      "ent": 622,
      "brk": 0,
      "frameMs": 9.8
    },
    {
      "t": 1178.6,
      "rD": 0.4,
      "hC": 0.55,
      "mA": 0.34,
      "tD": 0.38,
      "mode": "D_dorian",
      "bpm": 92,
      "arc": 0.454,
      "ent": 656,
      "brk": 0,
      "frameMs": 9.7
    },
    {
      "t": 1179.6,
      "rD": 0.41,
      "hC": 0.56,
      "mA": 0.35,
      "tD": 0.39,
      "mode": "D_dorian",
      "bpm": 92,
      "arc": 0.454,
      "ent": 639,
      "brk": 0,
      "frameMs": 8.3
    },
    {
      "t": 1180.6,
      "rD": 0.43,
      "hC": 0.57,
      "mA": 0.36,
      "tD": 0.4,
      "mode": "D_dorian",
      "bpm": 92,
      "arc": 0.455,
      "ent": 639,
      "brk": 0,
      "frameMs": 7.8
    },
    {
      "t": 1181.6,
      "rD": 0.44,
      "hC": 0.58,
      "mA": 0.37,
      "tD": 0.41,
      "mode": "D_dorian",
      "bpm": 92,
      "arc": 0.455,
      "ent": 661,
      "brk": 0,
      "frameMs": 10
    },
    {
      "t": 1182.6,
      "rD": 0.46,
      "hC": 0.59,
      "mA": 0.37,
      "tD": 0.42,
      "mode": "D_dorian",
      "bpm": 92,
      "arc": 0.455,
      "ent": 683,
      "brk": 0,
      "frameMs": 7.9
    },
    {
      "t": 1183.6,
      "rD": 0.47,
      "hC": 0.6,
      "mA": 0.38,
      "tD": 0.43,
      "mode": "D_dorian",
      "bpm": 92,
      "arc": 0.456,
      "ent": 637,
      "brk": 0,
      "frameMs": 8.5
    },
    {
      "t": 1184.6,
      "rD": 0.48,
      "hC": 0.6,
      "mA": 0.38,
      "tD": 0.44,
      "mode": "D_dorian",
      "bpm": 92,
      "arc": 0.456,
      "ent": 643,
      "brk": 0,
      "frameMs": 7.2
    },
    {
      "t": 1185.6,
      "rD": 0.48,
      "hC": 0.61,
      "mA": 0.39,
      "tD": 0.44,
      "mode": "D_dorian",
      "bpm": 92,
      "arc": 0.457,
      "ent": 667,
      "brk": 0,
      "frameMs": 8.7
    },
    {
      "t": 1186.6,
      "rD": 0.48,
      "hC": 0.61,
      "mA": 0.39,
      "tD": 0.44,
      "mode": "D_dorian",
      "bpm": 92,
      "arc": 0.457,
      "ent": 642,
      "brk": 0,
      "frameMs": 8.5
    },
    {
      "t": 1187.6,
      "rD": 0.48,
      "hC": 0.61,
      "mA": 0.39,
      "tD": 0.44,
      "mode": "D_dorian",
      "bpm": 92,
      "arc": 0.457,
      "ent": 680,
      "brk": 0,
      "frameMs": 8.3
    },
    {
      "t": 1188.7,
      "rD": 0.47,
      "hC": 0.6,
      "mA": 0.38,
      "tD": 0.44,
      "mode": "D_dorian",
      "bpm": 92,
      "arc": 0.458,
      "ent": 662,
      "brk": 0,
      "frameMs": 9.3
    },
    {
      "t": 1189.7,
      "rD": 0.47,
      "hC": 0.6,
      "mA": 0.38,
      "tD": 0.43,
      "mode": "D_dorian",
      "bpm": 92,
      "arc": 0.458,
      "ent": 666,
      "brk": 0,
      "frameMs": 8
    },
    {
      "t": 1190.7,
      "rD": 0.46,
      "hC": 0.59,
      "mA": 0.38,
      "tD": 0.42,
      "mode": "D_dorian",
      "bpm": 92,
      "arc": 0.459,
      "ent": 671,
      "brk": 0,
      "frameMs": 8
    },
    {
      "t": 1191.7,
      "rD": 0.45,
      "hC": 0.59,
      "mA": 0.37,
      "tD": 0.41,
      "mode": "D_dorian",
      "bpm": 92,
      "arc": 0.459,
      "ent": 715,
      "brk": 0,
      "frameMs": 7.2
    },
    {
      "t": 1192.7,
      "rD": 0.43,
      "hC": 0.58,
      "mA": 0.37,
      "tD": 0.4,
      "mode": "D_dorian",
      "bpm": 92,
      "arc": 0.459,
      "ent": 715,
      "brk": 0,
      "frameMs": 6.7
    },
    {
      "t": 1193.7,
      "rD": 0.42,
      "hC": 0.57,
      "mA": 0.36,
      "tD": 0.39,
      "mode": "D_dorian",
      "bpm": 92,
      "arc": 0.46,
      "ent": 727,
      "brk": 0,
      "frameMs": 10
    },
    {
      "t": 1194.7,
      "rD": 0.41,
      "hC": 0.56,
      "mA": 0.36,
      "tD": 0.39,
      "mode": "D_dorian",
      "bpm": 92,
      "arc": 0.46,
      "ent": 715,
      "brk": 0,
      "frameMs": 8.4
    },
    {
      "t": 1195.7,
      "rD": 0.41,
      "hC": 0.56,
      "mA": 0.35,
      "tD": 0.38,
      "mode": "D_dorian",
      "bpm": 92,
      "arc": 0.46,
      "ent": 722,
      "brk": 0,
      "frameMs": 7.1
    },
    {
      "t": 1196.7,
      "rD": 0.4,
      "hC": 0.56,
      "mA": 0.35,
      "tD": 0.38,
      "mode": "D_dorian",
      "bpm": 92,
      "arc": 0.461,
      "ent": 691,
      "brk": 0,
      "frameMs": 9.2
    },
    {
      "t": 1197.7,
      "rD": 0.4,
      "hC": 0.56,
      "mA": 0.35,
      "tD": 0.38,
      "mode": "D_dorian",
      "bpm": 92,
      "arc": 0.461,
      "ent": 712,
      "brk": 0,
      "frameMs": 10.2
    },
    {
      "t": 1198.7,
      "rD": 0.41,
      "hC": 0.56,
      "mA": 0.35,
      "tD": 0.38,
      "mode": "D_dorian",
      "bpm": 92,
      "arc": 0.462,
      "ent": 728,
      "brk": 0,
      "frameMs": 8.4
    },
    {
      "t": 1199.7,
      "rD": 0.41,
      "hC": 0.57,
      "mA": 0.36,
      "tD": 0.39,
      "mode": "D_dorian",
      "bpm": 92,
      "arc": 0.462,
      "ent": 715,
      "brk": 0,
      "frameMs": 9.7
    },
    {
      "t": 1200.7,
      "rD": 0.42,
      "hC": 0.57,
      "mA": 0.36,
      "tD": 0.39,
      "mode": "D_dorian",
      "bpm": 92,
      "arc": 0.462,
      "ent": 734,
      "brk": 0,
      "frameMs": 8.2
    },
    {
      "t": 1201.7,
      "rD": 0.43,
      "hC": 0.58,
      "mA": 0.37,
      "tD": 0.4,
      "mode": "D_dorian",
      "bpm": 92,
      "arc": 0.463,
      "ent": 694,
      "brk": 0,
      "frameMs": 8.6
    },
    {
      "t": 1202.7,
      "rD": 0.45,
      "hC": 0.59,
      "mA": 0.38,
      "tD": 0.41,
      "mode": "D_dorian",
      "bpm": 92,
      "arc": 0.463,
      "ent": 739,
      "brk": 0,
      "frameMs": 9.8
    },
    {
      "t": 1203.7,
      "rD": 0.46,
      "hC": 0.6,
      "mA": 0.38,
      "tD": 0.42,
      "mode": "D_dorian",
      "bpm": 92,
      "arc": 0.464,
      "ent": 729,
      "brk": 0,
      "frameMs": 8.9
    },
    {
      "t": 1204.7,
      "rD": 0.48,
      "hC": 0.61,
      "mA": 0.39,
      "tD": 0.43,
      "mode": "D_dorian",
      "bpm": 92,
      "arc": 0.464,
      "ent": 1373,
      "brk": 0,
      "frameMs": 8.4
    },
    {
      "t": 1205.7,
      "rD": 0.49,
      "hC": 0.62,
      "mA": 0.4,
      "tD": 0.44,
      "mode": "D_dorian",
      "bpm": 92,
      "arc": 0.464,
      "ent": 1657,
      "brk": 0,
      "frameMs": 17
    },
    {
      "t": 1206.7,
      "rD": 0.5,
      "hC": 0.63,
      "mA": 0.4,
      "tD": 0.45,
      "mode": "D_dorian",
      "bpm": 92,
      "arc": 0.465,
      "ent": 1849,
      "brk": 0,
      "frameMs": 9.9
    },
    {
      "t": 1207.7,
      "rD": 0.51,
      "hC": 0.63,
      "mA": 0.41,
      "tD": 0.46,
      "mode": "D_dorian",
      "bpm": 92,
      "arc": 0.465,
      "ent": 2027,
      "brk": 0,
      "frameMs": 8.4
    },
    {
      "t": 1208.7,
      "rD": 0.51,
      "hC": 0.64,
      "mA": 0.41,
      "tD": 0.46,
      "mode": "D_dorian",
      "bpm": 92,
      "arc": 0.466,
      "ent": 2179,
      "brk": 0,
      "frameMs": 9.6
    },
    {
      "t": 1209.7,
      "rD": 0.51,
      "hC": 0.64,
      "mA": 0.41,
      "tD": 0.46,
      "mode": "D_dorian",
      "bpm": 92,
      "arc": 0.466,
      "ent": 2283,
      "brk": 0,
      "frameMs": 8.4
    },
    {
      "t": 1210.7,
      "rD": 0.51,
      "hC": 0.64,
      "mA": 0.41,
      "tD": 0.46,
      "mode": "D_dorian",
      "bpm": 92,
      "arc": 0.466,
      "ent": 2277,
      "brk": 0,
      "frameMs": 9.4
    },
    {
      "t": 1211.7,
      "rD": 0.51,
      "hC": 0.63,
      "mA": 0.41,
      "tD": 0.46,
      "mode": "D_dorian",
      "bpm": 92,
      "arc": 0.467,
      "ent": 2305,
      "brk": 0,
      "frameMs": 8.4
    },
    {
      "t": 1212.7,
      "rD": 0.5,
      "hC": 0.63,
      "mA": 0.4,
      "tD": 0.45,
      "mode": "D_dorian",
      "bpm": 92,
      "arc": 0.467,
      "ent": 2213,
      "brk": 0,
      "frameMs": 6.5
    },
    {
      "t": 1213.7,
      "rD": 0.49,
      "hC": 0.62,
      "mA": 0.4,
      "tD": 0.44,
      "mode": "D_dorian",
      "bpm": 92,
      "arc": 0.467,
      "ent": 2220,
      "brk": 0,
      "frameMs": 8.3
    },
    {
      "t": 1214.7,
      "rD": 0.48,
      "hC": 0.61,
      "mA": 0.39,
      "tD": 0.43,
      "mode": "D_dorian",
      "bpm": 92,
      "arc": 0.468,
      "ent": 2102,
      "brk": 1,
      "frameMs": 8.3
    },
    {
      "t": 1215.7,
      "rD": 0.47,
      "hC": 0.61,
      "mA": 0.39,
      "tD": 0.42,
      "mode": "D_dorian",
      "bpm": 92,
      "arc": 0.468,
      "ent": 1805,
      "brk": 1,
      "frameMs": 9
    },
    {
      "t": 1216.7,
      "rD": 0.46,
      "hC": 0.6,
      "mA": 0.38,
      "tD": 0.42,
      "mode": "D_dorian",
      "bpm": 92,
      "arc": 0.469,
      "ent": 1480,
      "brk": 1,
      "frameMs": 8.4
    },
    {
      "t": 1217.8,
      "rD": 0.45,
      "hC": 0.59,
      "mA": 0.38,
      "tD": 0.41,
      "mode": "D_dorian",
      "bpm": 92,
      "arc": 0.469,
      "ent": 1253,
      "brk": 1,
      "frameMs": 8.3
    },
    {
      "t": 1218.8,
      "rD": 0.44,
      "hC": 0.59,
      "mA": 0.38,
      "tD": 0.4,
      "mode": "D_dorian",
      "bpm": 92,
      "arc": 0.469,
      "ent": 1012,
      "brk": 1,
      "frameMs": 16.9
    },
    {
      "t": 1219.8,
      "rD": 0.44,
      "hC": 0.59,
      "mA": 0.38,
      "tD": 0.4,
      "mode": "D_dorian",
      "bpm": 92,
      "arc": 0.47,
      "ent": 819,
      "brk": 1,
      "frameMs": 16.3
    },
    {
      "t": 1220.8,
      "rD": 0.44,
      "hC": 0.59,
      "mA": 0.38,
      "tD": 0.4,
      "mode": "D_dorian",
      "bpm": 92,
      "arc": 0.47,
      "ent": 699,
      "brk": 1,
      "frameMs": 8.4
    },
    {
      "t": 1221.8,
      "rD": 0.44,
      "hC": 0.59,
      "mA": 0.38,
      "tD": 0.4,
      "mode": "D_dorian",
      "bpm": 92,
      "arc": 0.471,
      "ent": 622,
      "brk": 1,
      "frameMs": 7.6
    },
    {
      "t": 1222.8,
      "rD": 0.45,
      "hC": 0.59,
      "mA": 0.38,
      "tD": 0.41,
      "mode": "D_dorian",
      "bpm": 92,
      "arc": 0.471,
      "ent": 572,
      "brk": 1,
      "frameMs": 8.1
    },
    {
      "t": 1223.8,
      "rD": 0.46,
      "hC": 0.6,
      "mA": 0.39,
      "tD": 0.41,
      "mode": "D_dorian",
      "bpm": 92,
      "arc": 0.471,
      "ent": 610,
      "brk": 1,
      "frameMs": 16.6
    },
    {
      "t": 1224.8,
      "rD": 0.47,
      "hC": 0.61,
      "mA": 0.39,
      "tD": 0.42,
      "mode": "D_dorian",
      "bpm": 92,
      "arc": 0.472,
      "ent": 617,
      "brk": 0,
      "frameMs": 9.4
    },
    {
      "t": 1225.8,
      "rD": 0.48,
      "hC": 0.62,
      "mA": 0.4,
      "tD": 0.43,
      "mode": "D_dorian",
      "bpm": 92,
      "arc": 0.472,
      "ent": 578,
      "brk": 0,
      "frameMs": 8.2
    },
    {
      "t": 1226.8,
      "rD": 0.5,
      "hC": 0.63,
      "mA": 0.41,
      "tD": 0.45,
      "mode": "D_dorian",
      "bpm": 92,
      "arc": 0.473,
      "ent": 615,
      "brk": 0,
      "frameMs": 8.8
    },
    {
      "t": 1227.8,
      "rD": 0.51,
      "hC": 0.64,
      "mA": 0.42,
      "tD": 0.46,
      "mode": "D_dorian",
      "bpm": 92,
      "arc": 0.473,
      "ent": 613,
      "brk": 0,
      "frameMs": 8.3
    },
    {
      "t": 1228.8,
      "rD": 0.52,
      "hC": 0.65,
      "mA": 0.42,
      "tD": 0.47,
      "mode": "D_dorian",
      "bpm": 92,
      "arc": 0.473,
      "ent": 647,
      "brk": 0,
      "frameMs": 8.4
    },
    {
      "t": 1229.8,
      "rD": 0.53,
      "hC": 0.66,
      "mA": 0.43,
      "tD": 0.47,
      "mode": "D_dorian",
      "bpm": 92,
      "arc": 0.474,
      "ent": 687,
      "brk": 0,
      "frameMs": 9.8
    },
    {
      "t": 1230.8,
      "rD": 0.54,
      "hC": 0.66,
      "mA": 0.43,
      "tD": 0.48,
      "mode": "D_dorian",
      "bpm": 92,
      "arc": 0.474,
      "ent": 748,
      "brk": 0,
      "frameMs": 6.8
    },
    {
      "t": 1231.8,
      "rD": 0.54,
      "hC": 0.67,
      "mA": 0.43,
      "tD": 0.48,
      "mode": "D_dorian",
      "bpm": 92,
      "arc": 0.474,
      "ent": 755,
      "brk": 0,
      "frameMs": 8.2
    },
    {
      "t": 1232.8,
      "rD": 0.55,
      "hC": 0.67,
      "mA": 0.44,
      "tD": 0.48,
      "mode": "D_dorian",
      "bpm": 92,
      "arc": 0.475,
      "ent": 756,
      "brk": 0,
      "frameMs": 8.4
    },
    {
      "t": 1233.8,
      "rD": 0.54,
      "hC": 0.67,
      "mA": 0.43,
      "tD": 0.48,
      "mode": "D_dorian",
      "bpm": 92,
      "arc": 0.475,
      "ent": 748,
      "brk": 0,
      "frameMs": 9.3
    },
    {
      "t": 1234.8,
      "rD": 0.54,
      "hC": 0.66,
      "mA": 0.43,
      "tD": 0.48,
      "mode": "D_dorian",
      "bpm": 92,
      "arc": 0.476,
      "ent": 756,
      "brk": 0,
      "frameMs": 8.7
    },
    {
      "t": 1235.8,
      "rD": 0.53,
      "hC": 0.66,
      "mA": 0.43,
      "tD": 0.47,
      "mode": "D_dorian",
      "bpm": 92,
      "arc": 0.476,
      "ent": 758,
      "brk": 0,
      "frameMs": 9.1
    },
    {
      "t": 1236.8,
      "rD": 0.52,
      "hC": 0.65,
      "mA": 0.42,
      "tD": 0.46,
      "mode": "D_dorian",
      "bpm": 92,
      "arc": 0.476,
      "ent": 799,
      "brk": 0,
      "frameMs": 9.7
    },
    {
      "t": 1237.8,
      "rD": 0.51,
      "hC": 0.64,
      "mA": 0.42,
      "tD": 0.45,
      "mode": "D_dorian",
      "bpm": 92,
      "arc": 0.477,
      "ent": 782,
      "brk": 0,
      "frameMs": 8.4
    },
    {
      "t": 1238.9,
      "rD": 0.49,
      "hC": 0.63,
      "mA": 0.41,
      "tD": 0.44,
      "mode": "D_dorian",
      "bpm": 92,
      "arc": 0.477,
      "ent": 755,
      "brk": 0,
      "frameMs": 10
    },
    {
      "t": 1239.9,
      "rD": 0.48,
      "hC": 0.63,
      "mA": 0.41,
      "tD": 0.43,
      "mode": "D_dorian",
      "bpm": 92,
      "arc": 0.478,
      "ent": 758,
      "brk": 0,
      "frameMs": 7.5
    },
    {
      "t": 1240.9,
      "rD": 0.47,
      "hC": 0.62,
      "mA": 0.4,
      "tD": 0.43,
      "mode": "D_dorian",
      "bpm": 92,
      "arc": 0.478,
      "ent": 717,
      "brk": 0,
      "frameMs": 7.7
    },
    {
      "t": 1241.9,
      "rD": 0.47,
      "hC": 0.62,
      "mA": 0.4,
      "tD": 0.42,
      "mode": "D_dorian",
      "bpm": 92,
      "arc": 0.478,
      "ent": 709,
      "brk": 0,
      "frameMs": 8.5
    },
    {
      "t": 1242.9,
      "rD": 0.47,
      "hC": 0.61,
      "mA": 0.4,
      "tD": 0.42,
      "mode": "D_dorian",
      "bpm": 92,
      "arc": 0.479,
      "ent": 679,
      "brk": 0,
      "frameMs": 8.1
    },
    {
      "t": 1243.9,
      "rD": 0.47,
      "hC": 0.61,
      "mA": 0.4,
      "tD": 0.42,
      "mode": "D_dorian",
      "bpm": 92,
      "arc": 0.479,
      "ent": 712,
      "brk": 0,
      "frameMs": 10.3
    },
    {
      "t": 1244.9,
      "rD": 0.47,
      "hC": 0.62,
      "mA": 0.4,
      "tD": 0.42,
      "mode": "D_dorian",
      "bpm": 92,
      "arc": 0.48,
      "ent": 687,
      "brk": 0,
      "frameMs": 8.3
    },
    {
      "t": 1245.9,
      "rD": 0.48,
      "hC": 0.62,
      "mA": 0.4,
      "tD": 0.43,
      "mode": "D_dorian",
      "bpm": 92,
      "arc": 0.48,
      "ent": 679,
      "brk": 0,
      "frameMs": 8.7
    },
    {
      "t": 1246.9,
      "rD": 0.49,
      "hC": 0.63,
      "mA": 0.41,
      "tD": 0.43,
      "mode": "D_dorian",
      "bpm": 92,
      "arc": 0.48,
      "ent": 671,
      "brk": 0,
      "frameMs": 16
    },
    {
      "t": 1247.9,
      "rD": 0.5,
      "hC": 0.64,
      "mA": 0.42,
      "tD": 0.44,
      "mode": "D_dorian",
      "bpm": 92,
      "arc": 0.481,
      "ent": 673,
      "brk": 0,
      "frameMs": 8.8
    },
    {
      "t": 1248.9,
      "rD": 0.51,
      "hC": 0.65,
      "mA": 0.42,
      "tD": 0.45,
      "mode": "D_dorian",
      "bpm": 92,
      "arc": 0.481,
      "ent": 689,
      "brk": 0,
      "frameMs": 9.2
    },
    {
      "t": 1249.9,
      "rD": 0.53,
      "hC": 0.66,
      "mA": 0.43,
      "tD": 0.47,
      "mode": "D_dorian",
      "bpm": 92,
      "arc": 0.482,
      "ent": 717,
      "brk": 0,
      "frameMs": 8.5
    },
    {
      "t": 1250.9,
      "rD": 0.54,
      "hC": 0.67,
      "mA": 0.44,
      "tD": 0.48,
      "mode": "D_dorian",
      "bpm": 92,
      "arc": 0.482,
      "ent": 710,
      "brk": 0,
      "frameMs": 8.3
    },
    {
      "t": 1251.9,
      "rD": 0.55,
      "hC": 0.68,
      "mA": 0.44,
      "tD": 0.49,
      "mode": "D_dorian",
      "bpm": 92,
      "arc": 0.482,
      "ent": 711,
      "brk": 0,
      "frameMs": 8.4
    },
    {
      "t": 1252.9,
      "rD": 0.56,
      "hC": 0.68,
      "mA": 0.45,
      "tD": 0.49,
      "mode": "D_dorian",
      "bpm": 92,
      "arc": 0.483,
      "ent": 744,
      "brk": 0,
      "frameMs": 8.2
    },
    {
      "t": 1253.9,
      "rD": 0.57,
      "hC": 0.69,
      "mA": 0.45,
      "tD": 0.5,
      "mode": "D_dorian",
      "bpm": 92,
      "arc": 0.483,
      "ent": 704,
      "brk": 0,
      "frameMs": 9.9
    },
    {
      "t": 1255,
      "rD": 0.57,
      "hC": 0.69,
      "mA": 0.45,
      "tD": 0.5,
      "mode": "D_dorian",
      "bpm": 92,
      "arc": 0.483,
      "ent": 710,
      "brk": 0,
      "frameMs": 8.3
    },
    {
      "t": 1256,
      "rD": 0.57,
      "hC": 0.69,
      "mA": 0.45,
      "tD": 0.5,
      "mode": "D_dorian",
      "bpm": 92,
      "arc": 0.484,
      "ent": 698,
      "brk": 0,
      "frameMs": 7.9
    },
    {
      "t": 1257,
      "rD": 0.57,
      "hC": 0.69,
      "mA": 0.45,
      "tD": 0.5,
      "mode": "D_dorian",
      "bpm": 92,
      "arc": 0.484,
      "ent": 727,
      "brk": 0,
      "frameMs": 8.3
    },
    {
      "t": 1258,
      "rD": 0.56,
      "hC": 0.68,
      "mA": 0.45,
      "tD": 0.49,
      "mode": "D_dorian",
      "bpm": 92,
      "arc": 0.485,
      "ent": 768,
      "brk": 0,
      "frameMs": 10
    },
    {
      "t": 1259,
      "rD": 0.55,
      "hC": 0.68,
      "mA": 0.45,
      "tD": 0.49,
      "mode": "D_dorian",
      "bpm": 92,
      "arc": 0.485,
      "ent": 1297,
      "brk": 0,
      "frameMs": 8.4
    },
    {
      "t": 1260,
      "rD": 0.54,
      "hC": 0.67,
      "mA": 0.44,
      "tD": 0.48,
      "mode": "D_dorian",
      "bpm": 92,
      "arc": 0.485,
      "ent": 1583,
      "brk": 0,
      "frameMs": 8.4
    },
    {
      "t": 1261,
      "rD": 0.53,
      "hC": 0.66,
      "mA": 0.43,
      "tD": 0.47,
      "mode": "D_dorian",
      "bpm": 92,
      "arc": 0.486,
      "ent": 1813,
      "brk": 0,
      "frameMs": 7.4
    },
    {
      "t": 1262,
      "rD": 0.52,
      "hC": 0.65,
      "mA": 0.43,
      "tD": 0.46,
      "mode": "D_dorian",
      "bpm": 92,
      "arc": 0.486,
      "ent": 2018,
      "brk": 0,
      "frameMs": 10.3
    },
    {
      "t": 1263,
      "rD": 0.51,
      "hC": 0.65,
      "mA": 0.42,
      "tD": 0.45,
      "mode": "D_dorian",
      "bpm": 92,
      "arc": 0.487,
      "ent": 2164,
      "brk": 0,
      "frameMs": 8.6
    },
    {
      "t": 1264,
      "rD": 0.5,
      "hC": 0.64,
      "mA": 0.42,
      "tD": 0.44,
      "mode": "D_dorian",
      "bpm": 92,
      "arc": 0.487,
      "ent": 2294,
      "brk": 0,
      "frameMs": 7.6
    },
    {
      "t": 1265,
      "rD": 0.49,
      "hC": 0.64,
      "mA": 0.42,
      "tD": 0.44,
      "mode": "D_dorian",
      "bpm": 92,
      "arc": 0.487,
      "ent": 2329,
      "brk": 0,
      "frameMs": 9
    },
    {
      "t": 1266,
      "rD": 0.49,
      "hC": 0.63,
      "mA": 0.42,
      "tD": 0.43,
      "mode": "D_dorian",
      "bpm": 92,
      "arc": 0.488,
      "ent": 2343,
      "brk": 0,
      "frameMs": 8
    },
    {
      "t": 1267,
      "rD": 0.49,
      "hC": 0.63,
      "mA": 0.42,
      "tD": 0.43,
      "mode": "D_dorian",
      "bpm": 92,
      "arc": 0.488,
      "ent": 2260,
      "brk": 0,
      "frameMs": 7.9
    },
    {
      "t": 1268,
      "rD": 0.49,
      "hC": 0.64,
      "mA": 0.42,
      "tD": 0.44,
      "mode": "D_dorian",
      "bpm": 92,
      "arc": 0.489,
      "ent": 2288,
      "brk": 0,
      "frameMs": 17.3
    },
    {
      "t": 1269,
      "rD": 0.5,
      "hC": 0.64,
      "mA": 0.42,
      "tD": 0.44,
      "mode": "D_dorian",
      "bpm": 92,
      "arc": 0.489,
      "ent": 2244,
      "brk": 0,
      "frameMs": 15
    },
    {
      "t": 1270,
      "rD": 0.51,
      "hC": 0.65,
      "mA": 0.43,
      "tD": 0.45,
      "mode": "D_dorian",
      "bpm": 92,
      "arc": 0.489,
      "ent": 1961,
      "brk": 0,
      "frameMs": 8.6
    },
    {
      "t": 1271,
      "rD": 0.52,
      "hC": 0.66,
      "mA": 0.43,
      "tD": 0.46,
      "mode": "D_dorian",
      "bpm": 92,
      "arc": 0.49,
      "ent": 1719,
      "brk": 0,
      "frameMs": 8.3
    },
    {
      "t": 1272,
      "rD": 0.53,
      "hC": 0.67,
      "mA": 0.44,
      "tD": 0.47,
      "mode": "D_dorian",
      "bpm": 92,
      "arc": 0.49,
      "ent": 1435,
      "brk": 0,
      "frameMs": 9.8
    },
    {
      "t": 1273,
      "rD": 0.55,
      "hC": 0.68,
      "mA": 0.45,
      "tD": 0.48,
      "mode": "D_dorian",
      "bpm": 92,
      "arc": 0.49,
      "ent": 1242,
      "brk": 0,
      "frameMs": 8.1
    },
    {
      "t": 1274,
      "rD": 0.56,
      "hC": 0.69,
      "mA": 0.45,
      "tD": 0.49,
      "mode": "D_dorian",
      "bpm": 92,
      "arc": 0.491,
      "ent": 1057,
      "brk": 0,
      "frameMs": 8.4
    },
    {
      "t": 1275.1,
      "rD": 0.57,
      "hC": 0.69,
      "mA": 0.46,
      "tD": 0.5,
      "mode": "D_dorian",
      "bpm": 92,
      "arc": 0.491,
      "ent": 887,
      "brk": 0,
      "frameMs": 9.4
    },
    {
      "t": 1276.1,
      "rD": 0.58,
      "hC": 0.7,
      "mA": 0.46,
      "tD": 0.51,
      "mode": "D_dorian",
      "bpm": 92,
      "arc": 0.492,
      "ent": 833,
      "brk": 0,
      "frameMs": 8.3
    },
    {
      "t": 1277.1,
      "rD": 0.59,
      "hC": 0.7,
      "mA": 0.47,
      "tD": 0.51,
      "mode": "D_dorian",
      "bpm": 92,
      "arc": 0.492,
      "ent": 778,
      "brk": 0,
      "frameMs": 8.6
    },
    {
      "t": 1278.1,
      "rD": 0.59,
      "hC": 0.71,
      "mA": 0.47,
      "tD": 0.51,
      "mode": "D_dorian",
      "bpm": 92,
      "arc": 0.492,
      "ent": 736,
      "brk": 0,
      "frameMs": 10
    },
    {
      "t": 1279.1,
      "rD": 0.59,
      "hC": 0.71,
      "mA": 0.47,
      "tD": 0.51,
      "mode": "D_dorian",
      "bpm": 92,
      "arc": 0.493,
      "ent": 772,
      "brk": 0,
      "frameMs": 7.4
    },
    {
      "t": 1280.1,
      "rD": 0.58,
      "hC": 0.7,
      "mA": 0.47,
      "tD": 0.51,
      "mode": "D_dorian",
      "bpm": 92,
      "arc": 0.493,
      "ent": 727,
      "brk": 0,
      "frameMs": 8.3
    },
    {
      "t": 1281.1,
      "rD": 0.58,
      "hC": 0.7,
      "mA": 0.46,
      "tD": 0.5,
      "mode": "D_dorian",
      "bpm": 92,
      "arc": 0.494,
      "ent": 735,
      "brk": 0,
      "frameMs": 8.4
    },
    {
      "t": 1282.1,
      "rD": 0.57,
      "hC": 0.69,
      "mA": 0.46,
      "tD": 0.49,
      "mode": "D_dorian",
      "bpm": 92,
      "arc": 0.494,
      "ent": 767,
      "brk": 0,
      "frameMs": 9.6
    },
    {
      "t": 1283.1,
      "rD": 0.56,
      "hC": 0.68,
      "mA": 0.45,
      "tD": 0.49,
      "mode": "D_dorian",
      "bpm": 92,
      "arc": 0.494,
      "ent": 735,
      "brk": 0,
      "frameMs": 8.2
    },
    {
      "t": 1284.1,
      "rD": 0.54,
      "hC": 0.67,
      "mA": 0.45,
      "tD": 0.48,
      "mode": "D_dorian",
      "bpm": 92,
      "arc": 0.495,
      "ent": 753,
      "brk": 0,
      "frameMs": 8.3
    },
    {
      "t": 1285.1,
      "rD": 0.53,
      "hC": 0.67,
      "mA": 0.44,
      "tD": 0.47,
      "mode": "D_dorian",
      "bpm": 92,
      "arc": 0.495,
      "ent": 1071,
      "brk": 0,
      "frameMs": 9.6
    },
    {
      "t": 1286.1,
      "rD": 0.52,
      "hC": 0.66,
      "mA": 0.43,
      "tD": 0.46,
      "mode": "D_dorian",
      "bpm": 92,
      "arc": 0.496,
      "ent": 1382,
      "brk": 0,
      "frameMs": 8.8
    },
    {
      "t": 1287.1,
      "rD": 0.51,
      "hC": 0.65,
      "mA": 0.43,
      "tD": 0.45,
      "mode": "D_dorian",
      "bpm": 92,
      "arc": 0.496,
      "ent": 1615,
      "brk": 0,
      "frameMs": 8.8
    },
    {
      "t": 1288.1,
      "rD": 0.5,
      "hC": 0.65,
      "mA": 0.43,
      "tD": 0.44,
      "mode": "D_dorian",
      "bpm": 92,
      "arc": 0.496,
      "ent": 1867,
      "brk": 0,
      "frameMs": 7.5
    },
    {
      "t": 1289.1,
      "rD": 0.5,
      "hC": 0.65,
      "mA": 0.42,
      "tD": 0.44,
      "mode": "D_dorian",
      "bpm": 92,
      "arc": 0.497,
      "ent": 2021,
      "brk": 0,
      "frameMs": 10.3
    },
    {
      "t": 1290.1,
      "rD": 0.5,
      "hC": 0.65,
      "mA": 0.43,
      "tD": 0.44,
      "mode": "D_dorian",
      "bpm": 92,
      "arc": 0.497,
      "ent": 2096,
      "brk": 0,
      "frameMs": 8.3
    },
    {
      "t": 1291.1,
      "rD": 0.5,
      "hC": 0.65,
      "mA": 0.43,
      "tD": 0.44,
      "mode": "D_dorian",
      "bpm": 92,
      "arc": 0.497,
      "ent": 2185,
      "brk": 0,
      "frameMs": 8.4
    },
    {
      "t": 1292.1,
      "rD": 0.51,
      "hC": 0.65,
      "mA": 0.43,
      "tD": 0.45,
      "mode": "D_dorian",
      "bpm": 92,
      "arc": 0.498,
      "ent": 2264,
      "brk": 0,
      "frameMs": 8.4
    },
    {
      "t": 1293.1,
      "rD": 0.52,
      "hC": 0.66,
      "mA": 0.44,
      "tD": 0.46,
      "mode": "D_dorian",
      "bpm": 92,
      "arc": 0.498,
      "ent": 2258,
      "brk": 0,
      "frameMs": 8.8
    },
    {
      "t": 1294.1,
      "rD": 0.53,
      "hC": 0.67,
      "mA": 0.44,
      "tD": 0.47,
      "mode": "D_dorian",
      "bpm": 92,
      "arc": 0.499,
      "ent": 2236,
      "brk": 0,
      "frameMs": 8.3
    },
    {
      "t": 1295.1,
      "rD": 0.55,
      "hC": 0.68,
      "mA": 0.45,
      "tD": 0.48,
      "mode": "D_dorian",
      "bpm": 92,
      "arc": 0.499,
      "ent": 2266,
      "brk": 1,
      "frameMs": 8.3
    },
    {
      "t": 1296.1,
      "rD": 0.56,
      "hC": 0.69,
      "mA": 0.45,
      "tD": 0.49,
      "mode": "D_dorian",
      "bpm": 92,
      "arc": 0.499,
      "ent": 1975,
      "brk": 1,
      "frameMs": 6.5
    },
    {
      "t": 1297.2,
      "rD": 0.57,
      "hC": 0.69,
      "mA": 0.46,
      "tD": 0.5,
      "mode": "D_dorian",
      "bpm": 92,
      "arc": 0.5,
      "ent": 1658,
      "brk": 1,
      "frameMs": 16.4
    },
    {
      "t": 1298.2,
      "rD": 0.58,
      "hC": 0.7,
      "mA": 0.47,
      "tD": 0.51,
      "mode": "D_dorian",
      "bpm": 92,
      "arc": 0.5,
      "ent": 1388,
      "brk": 1,
      "frameMs": 7.3
    },
    {
      "t": 1299.2,
      "rD": 0.59,
      "hC": 0.71,
      "mA": 0.47,
      "tD": 0.51,
      "mode": "D_dorian",
      "bpm": 92,
      "arc": 0.501,
      "ent": 1185,
      "brk": 1,
      "frameMs": 16.5
    },
    {
      "t": 1300.2,
      "rD": 0.6,
      "hC": 0.71,
      "mA": 0.47,
      "tD": 0.52,
      "mode": "D_dorian",
      "bpm": 92,
      "arc": 0.501,
      "ent": 968,
      "brk": 1,
      "frameMs": 16.9
    },
    {
      "t": 1301.2,
      "rD": 0.6,
      "hC": 0.71,
      "mA": 0.47,
      "tD": 0.52,
      "mode": "D_dorian",
      "bpm": 92,
      "arc": 0.501,
      "ent": 811,
      "brk": 1,
      "frameMs": 16.6
    },
    {
      "t": 1302.2,
      "rD": 0.6,
      "hC": 0.71,
      "mA": 0.47,
      "tD": 0.52,
      "mode": "D_dorian",
      "bpm": 92,
      "arc": 0.502,
      "ent": 707,
      "brk": 1,
      "frameMs": 6.9
    },
    {
      "t": 1303.2,
      "rD": 0.59,
      "hC": 0.71,
      "mA": 0.47,
      "tD": 0.51,
      "mode": "D_dorian",
      "bpm": 92,
      "arc": 0.502,
      "ent": 663,
      "brk": 0,
      "frameMs": 10
    },
    {
      "t": 1304.2,
      "rD": 0.58,
      "hC": 0.7,
      "mA": 0.47,
      "tD": 0.51,
      "mode": "D_dorian",
      "bpm": 92,
      "arc": 0.503,
      "ent": 658,
      "brk": 0,
      "frameMs": 7.5
    },
    {
      "t": 1305.2,
      "rD": 0.57,
      "hC": 0.7,
      "mA": 0.46,
      "tD": 0.5,
      "mode": "D_dorian",
      "bpm": 92,
      "arc": 0.503,
      "ent": 688,
      "brk": 0,
      "frameMs": 8
    },
    {
      "t": 1306.2,
      "rD": 0.56,
      "hC": 0.69,
      "mA": 0.45,
      "tD": 0.49,
      "mode": "D_dorian",
      "bpm": 92,
      "arc": 0.503,
      "ent": 682,
      "brk": 0,
      "frameMs": 8.8
    },
    {
      "t": 1307.2,
      "rD": 0.55,
      "hC": 0.68,
      "mA": 0.45,
      "tD": 0.48,
      "mode": "D_dorian",
      "bpm": 92,
      "arc": 0.504,
      "ent": 724,
      "brk": 0,
      "frameMs": 8.4
    },
    {
      "t": 1308.2,
      "rD": 0.53,
      "hC": 0.67,
      "mA": 0.44,
      "tD": 0.47,
      "mode": "D_dorian",
      "bpm": 92,
      "arc": 0.504,
      "ent": 741,
      "brk": 0,
      "frameMs": 8.3
    },
    {
      "t": 1309.2,
      "rD": 0.52,
      "hC": 0.66,
      "mA": 0.44,
      "tD": 0.46,
      "mode": "D_dorian",
      "bpm": 92,
      "arc": 0.504,
      "ent": 726,
      "brk": 0,
      "frameMs": 8.3
    },
    {
      "t": 1310.2,
      "rD": 0.51,
      "hC": 0.66,
      "mA": 0.43,
      "tD": 0.45,
      "mode": "D_dorian",
      "bpm": 92,
      "arc": 0.505,
      "ent": 739,
      "brk": 0,
      "frameMs": 8.3
    },
    {
      "t": 1311.2,
      "rD": 0.51,
      "hC": 0.65,
      "mA": 0.43,
      "tD": 0.45,
      "mode": "D_dorian",
      "bpm": 92,
      "arc": 0.505,
      "ent": 713,
      "brk": 0,
      "frameMs": 7.9
    },
    {
      "t": 1312.2,
      "rD": 0.5,
      "hC": 0.65,
      "mA": 0.43,
      "tD": 0.44,
      "mode": "D_dorian",
      "bpm": 92,
      "arc": 0.506,
      "ent": 709,
      "brk": 0,
      "frameMs": 8.2
    },
    {
      "t": 1313.2,
      "rD": 0.51,
      "hC": 0.65,
      "mA": 0.43,
      "tD": 0.44,
      "mode": "D_dorian",
      "bpm": 92,
      "arc": 0.506,
      "ent": 644,
      "brk": 0,
      "frameMs": 9.4
    },
    {
      "t": 1314.2,
      "rD": 0.51,
      "hC": 0.65,
      "mA": 0.43,
      "tD": 0.45,
      "mode": "D_dorian",
      "bpm": 92,
      "arc": 0.506,
      "ent": 693,
      "brk": 0,
      "frameMs": 7.9
    },
    {
      "t": 1315.2,
      "rD": 0.52,
      "hC": 0.66,
      "mA": 0.43,
      "tD": 0.45,
      "mode": "D_dorian",
      "bpm": 92,
      "arc": 0.507,
      "ent": 711,
      "brk": 0,
      "frameMs": 8.9
    },
    {
      "t": 1316.2,
      "rD": 0.53,
      "hC": 0.66,
      "mA": 0.44,
      "tD": 0.46,
      "mode": "D_dorian",
      "bpm": 92,
      "arc": 0.507,
      "ent": 708,
      "brk": 0,
      "frameMs": 6.8
    },
    {
      "t": 1317.2,
      "rD": 0.54,
      "hC": 0.67,
      "mA": 0.45,
      "tD": 0.47,
      "mode": "D_dorian",
      "bpm": 92,
      "arc": 0.508,
      "ent": 711,
      "brk": 0,
      "frameMs": 9.2
    },
    {
      "t": 1318.3,
      "rD": 0.55,
      "hC": 0.68,
      "mA": 0.45,
      "tD": 0.48,
      "mode": "D_dorian",
      "bpm": 92,
      "arc": 0.508,
      "ent": 729,
      "brk": 0,
      "frameMs": 8.3
    },
    {
      "t": 1319.3,
      "rD": 0.56,
      "hC": 0.69,
      "mA": 0.46,
      "tD": 0.49,
      "mode": "D_dorian",
      "bpm": 92,
      "arc": 0.508,
      "ent": 717,
      "brk": 0,
      "frameMs": 10.2
    },
    {
      "t": 1320.3,
      "rD": 0.58,
      "hC": 0.7,
      "mA": 0.47,
      "tD": 0.5,
      "mode": "D_dorian",
      "bpm": 92,
      "arc": 0.509,
      "ent": 774,
      "brk": 0,
      "frameMs": 10.1
    },
    {
      "t": 1321.3,
      "rD": 0.59,
      "hC": 0.71,
      "mA": 0.47,
      "tD": 0.51,
      "mode": "D_dorian",
      "bpm": 92,
      "arc": 0.509,
      "ent": 788,
      "brk": 0,
      "frameMs": 8.5
    },
    {
      "t": 1322.3,
      "rD": 0.6,
      "hC": 0.71,
      "mA": 0.48,
      "tD": 0.52,
      "mode": "D_dorian",
      "bpm": 92,
      "arc": 0.51,
      "ent": 757,
      "brk": 0,
      "frameMs": 8.5
    },
    {
      "t": 1323.3,
      "rD": 0.6,
      "hC": 0.72,
      "mA": 0.48,
      "tD": 0.52,
      "mode": "D_dorian",
      "bpm": 92,
      "arc": 0.51,
      "ent": 790,
      "brk": 0,
      "frameMs": 8.3
    },
    {
      "t": 1324.3,
      "rD": 0.6,
      "hC": 0.72,
      "mA": 0.48,
      "tD": 0.52,
      "mode": "D_dorian",
      "bpm": 92,
      "arc": 0.51,
      "ent": 768,
      "brk": 0,
      "frameMs": 9.9
    },
    {
      "t": 1325.3,
      "rD": 0.6,
      "hC": 0.72,
      "mA": 0.48,
      "tD": 0.52,
      "mode": "D_dorian",
      "bpm": 92,
      "arc": 0.511,
      "ent": 785,
      "brk": 0,
      "frameMs": 8.4
    },
    {
      "t": 1326.3,
      "rD": 0.6,
      "hC": 0.72,
      "mA": 0.48,
      "tD": 0.52,
      "mode": "D_dorian",
      "bpm": 92,
      "arc": 0.511,
      "ent": 755,
      "brk": 0,
      "frameMs": 8.6
    },
    {
      "t": 1327.3,
      "rD": 0.59,
      "hC": 0.71,
      "mA": 0.47,
      "tD": 0.51,
      "mode": "D_dorian",
      "bpm": 92,
      "arc": 0.511,
      "ent": 776,
      "brk": 0,
      "frameMs": 8.3
    },
    {
      "t": 1328.3,
      "rD": 0.58,
      "hC": 0.7,
      "mA": 0.47,
      "tD": 0.5,
      "mode": "D_dorian",
      "bpm": 92,
      "arc": 0.512,
      "ent": 876,
      "brk": 0,
      "frameMs": 8.2
    },
    {
      "t": 1329.3,
      "rD": 0.57,
      "hC": 0.69,
      "mA": 0.46,
      "tD": 0.49,
      "mode": "D_dorian",
      "bpm": 92,
      "arc": 0.512,
      "ent": 996,
      "brk": 0,
      "frameMs": 8
    },
    {
      "t": 1330.3,
      "rD": 0.55,
      "hC": 0.69,
      "mA": 0.46,
      "tD": 0.48,
      "mode": "D_dorian",
      "bpm": 92,
      "arc": 0.513,
      "ent": 1117,
      "brk": 0,
      "frameMs": 8.1
    },
    {
      "t": 1331.3,
      "rD": 0.54,
      "hC": 0.68,
      "mA": 0.45,
      "tD": 0.47,
      "mode": "D_dorian",
      "bpm": 92,
      "arc": 0.513,
      "ent": 1241,
      "brk": 0,
      "frameMs": 8.3
    },
    {
      "t": 1332.3,
      "rD": 0.53,
      "hC": 0.67,
      "mA": 0.45,
      "tD": 0.46,
      "mode": "D_dorian",
      "bpm": 92,
      "arc": 0.513,
      "ent": 1342,
      "brk": 0,
      "frameMs": 8.8
    },
    {
      "t": 1333.3,
      "rD": 0.52,
      "hC": 0.67,
      "mA": 0.44,
      "tD": 0.46,
      "mode": "D_dorian",
      "bpm": 92,
      "arc": 0.514,
      "ent": 1515,
      "brk": 0,
      "frameMs": 8.4
    },
    {
      "t": 1334.3,
      "rD": 0.52,
      "hC": 0.66,
      "mA": 0.44,
      "tD": 0.45,
      "mode": "D_dorian",
      "bpm": 92,
      "arc": 0.514,
      "ent": 1627,
      "brk": 0,
      "frameMs": 8.3
    },
    {
      "t": 1335.3,
      "rD": 0.52,
      "hC": 0.66,
      "mA": 0.44,
      "tD": 0.45,
      "mode": "D_dorian",
      "bpm": 92,
      "arc": 0.515,
      "ent": 1716,
      "brk": 0,
      "frameMs": 8.3
    },
    {
      "t": 1336.3,
      "rD": 0.52,
      "hC": 0.66,
      "mA": 0.44,
      "tD": 0.45,
      "mode": "D_dorian",
      "bpm": 92,
      "arc": 0.515,
      "ent": 1795,
      "brk": 0,
      "frameMs": 8.4
    },
    {
      "t": 1337.3,
      "rD": 0.52,
      "hC": 0.66,
      "mA": 0.44,
      "tD": 0.46,
      "mode": "D_dorian",
      "bpm": 92,
      "arc": 0.515,
      "ent": 1746,
      "brk": 0,
      "frameMs": 6.8
    },
    {
      "t": 1338.3,
      "rD": 0.53,
      "hC": 0.67,
      "mA": 0.45,
      "tD": 0.46,
      "mode": "D_dorian",
      "bpm": 92,
      "arc": 0.516,
      "ent": 1613,
      "brk": 0,
      "frameMs": 8.3
    },
    {
      "t": 1339.3,
      "rD": 0.54,
      "hC": 0.68,
      "mA": 0.45,
      "tD": 0.47,
      "mode": "D_dorian",
      "bpm": 92,
      "arc": 0.516,
      "ent": 1437,
      "brk": 0,
      "frameMs": 9
    },
    {
      "t": 1340.3,
      "rD": 0.55,
      "hC": 0.69,
      "mA": 0.46,
      "tD": 0.48,
      "mode": "D_dorian",
      "bpm": 92,
      "arc": 0.517,
      "ent": 1291,
      "brk": 0,
      "frameMs": 8.3
    },
    {
      "t": 1341.4,
      "rD": 0.57,
      "hC": 0.7,
      "mA": 0.47,
      "tD": 0.49,
      "mode": "D_dorian",
      "bpm": 92,
      "arc": 0.517,
      "ent": 1187,
      "brk": 0,
      "frameMs": 8.2
    },
    {
      "t": 1342.4,
      "rD": 0.58,
      "hC": 0.71,
      "mA": 0.47,
      "tD": 0.5,
      "mode": "D_dorian",
      "bpm": 92,
      "arc": 0.517,
      "ent": 1504,
      "brk": 0,
      "frameMs": 9.9
    },
    {
      "t": 1343.4,
      "rD": 0.59,
      "hC": 0.72,
      "mA": 0.48,
      "tD": 0.51,
      "mode": "D_dorian",
      "bpm": 92,
      "arc": 0.518,
      "ent": 1640,
      "brk": 0,
      "frameMs": 7.6
    },
    {
      "t": 1344.4,
      "rD": 0.6,
      "hC": 0.72,
      "mA": 0.49,
      "tD": 0.52,
      "mode": "D_dorian",
      "bpm": 92,
      "arc": 0.518,
      "ent": 1814,
      "brk": 0,
      "frameMs": 7.6
    },
    {
      "t": 1345.4,
      "rD": 0.61,
      "hC": 0.73,
      "mA": 0.49,
      "tD": 0.53,
      "mode": "D_dorian",
      "bpm": 92,
      "arc": 0.518,
      "ent": 1995,
      "brk": 0,
      "frameMs": 8.3
    },
    {
      "t": 1346.4,
      "rD": 0.62,
      "hC": 0.73,
      "mA": 0.49,
      "tD": 0.53,
      "mode": "D_dorian",
      "bpm": 92,
      "arc": 0.519,
      "ent": 2201,
      "brk": 0,
      "frameMs": 16.8
    },
    {
      "t": 1347.4,
      "rD": 0.62,
      "hC": 0.74,
      "mA": 0.5,
      "tD": 0.53,
      "mode": "D_dorian",
      "bpm": 92,
      "arc": 0.519,
      "ent": 2307,
      "brk": 0,
      "frameMs": 8.3
    },
    {
      "t": 1348.4,
      "rD": 0.62,
      "hC": 0.73,
      "mA": 0.5,
      "tD": 0.53,
      "mode": "D_dorian",
      "bpm": 92,
      "arc": 0.52,
      "ent": 2335,
      "brk": 0,
      "frameMs": 8.4
    },
    {
      "t": 1349.4,
      "rD": 0.61,
      "hC": 0.73,
      "mA": 0.49,
      "tD": 0.53,
      "mode": "D_dorian",
      "bpm": 92,
      "arc": 0.52,
      "ent": 2385,
      "brk": 0,
      "frameMs": 8.1
    },
    {
      "t": 1350.4,
      "rD": 0.61,
      "hC": 0.73,
      "mA": 0.49,
      "tD": 0.52,
      "mode": "D_dorian",
      "bpm": 92,
      "arc": 0.52,
      "ent": 2322,
      "brk": 0,
      "frameMs": 9.1
    },
    {
      "t": 1351.4,
      "rD": 0.6,
      "hC": 0.72,
      "mA": 0.49,
      "tD": 0.51,
      "mode": "D_dorian",
      "bpm": 92,
      "arc": 0.521,
      "ent": 2298,
      "brk": 0,
      "frameMs": 16.7
    },
    {
      "t": 1352.4,
      "rD": 0.58,
      "hC": 0.71,
      "mA": 0.48,
      "tD": 0.5,
      "mode": "D_dorian",
      "bpm": 92,
      "arc": 0.521,
      "ent": 2262,
      "brk": 0,
      "frameMs": 8.3
    },
    {
      "t": 1353.4,
      "rD": 0.57,
      "hC": 0.7,
      "mA": 0.47,
      "tD": 0.49,
      "mode": "D_dorian",
      "bpm": 92,
      "arc": 0.522,
      "ent": 2015,
      "brk": 1,
      "frameMs": 17.5
    },
    {
      "t": 1354.4,
      "rD": 0.56,
      "hC": 0.7,
      "mA": 0.47,
      "tD": 0.49,
      "mode": "D_dorian",
      "bpm": 92,
      "arc": 0.522,
      "ent": 1731,
      "brk": 1,
      "frameMs": 9.9
    },
    {
      "t": 1355.4,
      "rD": 0.55,
      "hC": 0.69,
      "mA": 0.46,
      "tD": 0.48,
      "mode": "D_dorian",
      "bpm": 92,
      "arc": 0.522,
      "ent": 1417,
      "brk": 1,
      "frameMs": 15.6
    },
    {
      "t": 1356.4,
      "rD": 0.54,
      "hC": 0.68,
      "mA": 0.46,
      "tD": 0.47,
      "mode": "D_dorian",
      "bpm": 92,
      "arc": 0.523,
      "ent": 1158,
      "brk": 1,
      "frameMs": 9.8
    },
    {
      "t": 1357.4,
      "rD": 0.54,
      "hC": 0.68,
      "mA": 0.46,
      "tD": 0.47,
      "mode": "D_dorian",
      "bpm": 92,
      "arc": 0.523,
      "ent": 948,
      "brk": 1,
      "frameMs": 16.1
    },
    {
      "t": 1358.4,
      "rD": 0.54,
      "hC": 0.68,
      "mA": 0.46,
      "tD": 0.46,
      "mode": "D_dorian",
      "bpm": 92,
      "arc": 0.524,
      "ent": 760,
      "brk": 1,
      "frameMs": 8.4
    },
    {
      "t": 1359.4,
      "rD": 0.54,
      "hC": 0.68,
      "mA": 0.46,
      "tD": 0.47,
      "mode": "D_dorian",
      "bpm": 92,
      "arc": 0.524,
      "ent": 694,
      "brk": 1,
      "frameMs": 8.3
    },
    {
      "t": 1360.5,
      "rD": 0.54,
      "hC": 0.68,
      "mA": 0.46,
      "tD": 0.47,
      "mode": "D_dorian",
      "bpm": 92,
      "arc": 0.524,
      "ent": 663,
      "brk": 1,
      "frameMs": 8.4
    },
    {
      "t": 1361.5,
      "rD": 0.55,
      "hC": 0.69,
      "mA": 0.47,
      "tD": 0.48,
      "mode": "D_dorian",
      "bpm": 92,
      "arc": 0.525,
      "ent": 601,
      "brk": 1,
      "frameMs": 9.4
    },
    {
      "t": 1362.5,
      "rD": 0.56,
      "hC": 0.7,
      "mA": 0.47,
      "tD": 0.49,
      "mode": "D_dorian",
      "bpm": 92,
      "arc": 0.525,
      "ent": 631,
      "brk": 1,
      "frameMs": 18.4
    },
    {
      "t": 1363.5,
      "rD": 0.58,
      "hC": 0.71,
      "mA": 0.48,
      "tD": 0.5,
      "mode": "D_dorian",
      "bpm": 92,
      "arc": 0.526,
      "ent": 625,
      "brk": 0,
      "frameMs": 8.4
    },
    {
      "t": 1364.5,
      "rD": 0.59,
      "hC": 0.72,
      "mA": 0.49,
      "tD": 0.51,
      "mode": "D_dorian",
      "bpm": 92,
      "arc": 0.526,
      "ent": 648,
      "brk": 0,
      "frameMs": 8
    },
    {
      "t": 1365.5,
      "rD": 0.6,
      "hC": 0.73,
      "mA": 0.5,
      "tD": 0.52,
      "mode": "D_dorian",
      "bpm": 92,
      "arc": 0.526,
      "ent": 631,
      "brk": 0,
      "frameMs": 6.8
    },
    {
      "t": 1366.5,
      "rD": 0.62,
      "hC": 0.74,
      "mA": 0.5,
      "tD": 0.53,
      "mode": "D_dorian",
      "bpm": 92,
      "arc": 0.527,
      "ent": 692,
      "brk": 0,
      "frameMs": 7.2
    },
    {
      "t": 1367.5,
      "rD": 0.63,
      "hC": 0.75,
      "mA": 0.51,
      "tD": 0.54,
      "mode": "D_dorian",
      "bpm": 92,
      "arc": 0.527,
      "ent": 716,
      "brk": 0,
      "frameMs": 10
    },
    {
      "t": 1368.5,
      "rD": 0.63,
      "hC": 0.75,
      "mA": 0.51,
      "tD": 0.54,
      "mode": "D_dorian",
      "bpm": 92,
      "arc": 0.527,
      "ent": 725,
      "brk": 0,
      "frameMs": 8.4
    },
    {
      "t": 1369.5,
      "rD": 0.64,
      "hC": 0.76,
      "mA": 0.52,
      "tD": 0.55,
      "mode": "D_dorian",
      "bpm": 92,
      "arc": 0.528,
      "ent": 735,
      "brk": 0,
      "frameMs": 8.2
    },
    {
      "t": 1370.5,
      "rD": 0.64,
      "hC": 0.76,
      "mA": 0.52,
      "tD": 0.55,
      "mode": "D_dorian",
      "bpm": 92,
      "arc": 0.528,
      "ent": 720,
      "brk": 0,
      "frameMs": 8.3
    },
    {
      "t": 1371.5,
      "rD": 0.64,
      "hC": 0.76,
      "mA": 0.52,
      "tD": 0.55,
      "mode": "D_dorian",
      "bpm": 92,
      "arc": 0.529,
      "ent": 719,
      "brk": 0,
      "frameMs": 8.1
    },
    {
      "t": 1372.5,
      "rD": 0.63,
      "hC": 0.75,
      "mA": 0.52,
      "tD": 0.54,
      "mode": "D_dorian",
      "bpm": 92,
      "arc": 0.529,
      "ent": 771,
      "brk": 0,
      "frameMs": 8.2
    },
    {
      "t": 1373.5,
      "rD": 0.63,
      "hC": 0.75,
      "mA": 0.51,
      "tD": 0.54,
      "mode": "D_dorian",
      "bpm": 92,
      "arc": 0.529,
      "ent": 810,
      "brk": 0,
      "frameMs": 8.1
    },
    {
      "t": 1374.5,
      "rD": 0.62,
      "hC": 0.74,
      "mA": 0.51,
      "tD": 0.53,
      "mode": "D_dorian",
      "bpm": 92,
      "arc": 0.53,
      "ent": 775,
      "brk": 0,
      "frameMs": 6.9
    },
    {
      "t": 1375.5,
      "rD": 0.6,
      "hC": 0.73,
      "mA": 0.5,
      "tD": 0.52,
      "mode": "D_dorian",
      "bpm": 92,
      "arc": 0.53,
      "ent": 805,
      "brk": 0,
      "frameMs": 17.9
    },
    {
      "t": 1376.5,
      "rD": 0.59,
      "hC": 0.72,
      "mA": 0.5,
      "tD": 0.51,
      "mode": "D_dorian",
      "bpm": 92,
      "arc": 0.531,
      "ent": 762,
      "brk": 0,
      "frameMs": 9
    },
    {
      "t": 1377.5,
      "rD": 0.58,
      "hC": 0.72,
      "mA": 0.49,
      "tD": 0.5,
      "mode": "D_dorian",
      "bpm": 92,
      "arc": 0.531,
      "ent": 787,
      "brk": 0,
      "frameMs": 8.6
    },
    {
      "t": 1378.5,
      "rD": 0.57,
      "hC": 0.71,
      "mA": 0.49,
      "tD": 0.49,
      "mode": "D_dorian",
      "bpm": 92,
      "arc": 0.531,
      "ent": 760,
      "brk": 0,
      "frameMs": 8.3
    },
    {
      "t": 1379.5,
      "rD": 0.56,
      "hC": 0.71,
      "mA": 0.48,
      "tD": 0.49,
      "mode": "D_dorian",
      "bpm": 92,
      "arc": 0.532,
      "ent": 1202,
      "brk": 0,
      "frameMs": 8.5
    },
    {
      "t": 1380.5,
      "rD": 0.56,
      "hC": 0.7,
      "mA": 0.48,
      "tD": 0.48,
      "mode": "D_dorian",
      "bpm": 92,
      "arc": 0.532,
      "ent": 1519,
      "brk": 0,
      "frameMs": 8.1
    },
    {
      "t": 1381.5,
      "rD": 0.56,
      "hC": 0.7,
      "mA": 0.48,
      "tD": 0.48,
      "mode": "D_dorian",
      "bpm": 92,
      "arc": 0.533,
      "ent": 1760,
      "brk": 0,
      "frameMs": 8.3
    },
    {
      "t": 1382.5,
      "rD": 0.56,
      "hC": 0.7,
      "mA": 0.48,
      "tD": 0.48,
      "mode": "D_dorian",
      "bpm": 92,
      "arc": 0.533,
      "ent": 1963,
      "brk": 0,
      "frameMs": 10.1
    },
    {
      "t": 1383.5,
      "rD": 0.57,
      "hC": 0.71,
      "mA": 0.49,
      "tD": 0.49,
      "mode": "D_dorian",
      "bpm": 92,
      "arc": 0.533,
      "ent": 2042,
      "brk": 0,
      "frameMs": 8.3
    },
    {
      "t": 1384.5,
      "rD": 0.57,
      "hC": 0.71,
      "mA": 0.49,
      "tD": 0.49,
      "mode": "D_dorian",
      "bpm": 92,
      "arc": 0.534,
      "ent": 2201,
      "brk": 0,
      "frameMs": 10.1
    },
    {
      "t": 1385.6,
      "rD": 0.59,
      "hC": 0.72,
      "mA": 0.5,
      "tD": 0.5,
      "mode": "D_dorian",
      "bpm": 92,
      "arc": 0.534,
      "ent": 2313,
      "brk": 0,
      "frameMs": 8.3
    },
    {
      "t": 1386.6,
      "rD": 0.6,
      "hC": 0.73,
      "mA": 0.5,
      "tD": 0.51,
      "mode": "D_dorian",
      "bpm": 92,
      "arc": 0.534,
      "ent": 2347,
      "brk": 0,
      "frameMs": 10.1
    },
    {
      "t": 1387.6,
      "rD": 0.61,
      "hC": 0.74,
      "mA": 0.51,
      "tD": 0.52,
      "mode": "D_dorian",
      "bpm": 92,
      "arc": 0.535,
      "ent": 2289,
      "brk": 0,
      "frameMs": 8.3
    },
    {
      "t": 1388.6,
      "rD": 0.63,
      "hC": 0.75,
      "mA": 0.52,
      "tD": 0.54,
      "mode": "D_dorian",
      "bpm": 92,
      "arc": 0.535,
      "ent": 2251,
      "brk": 0,
      "frameMs": 8.3
    },
    {
      "t": 1389.6,
      "rD": 0.64,
      "hC": 0.76,
      "mA": 0.53,
      "tD": 0.54,
      "mode": "D_dorian",
      "bpm": 92,
      "arc": 0.536,
      "ent": 2111,
      "brk": 0,
      "frameMs": 8.7
    },
    {
      "t": 1390.6,
      "rD": 0.65,
      "hC": 0.77,
      "mA": 0.53,
      "tD": 0.55,
      "mode": "D_dorian",
      "bpm": 92,
      "arc": 0.536,
      "ent": 1864,
      "brk": 0,
      "frameMs": 8.4
    },
    {
      "t": 1391.6,
      "rD": 0.66,
      "hC": 0.77,
      "mA": 0.54,
      "tD": 0.56,
      "mode": "D_dorian",
      "bpm": 92,
      "arc": 0.536,
      "ent": 1588,
      "brk": 0,
      "frameMs": 8.8
    },
    {
      "t": 1392.6,
      "rD": 0.66,
      "hC": 0.78,
      "mA": 0.54,
      "tD": 0.56,
      "mode": "D_dorian",
      "bpm": 92,
      "arc": 0.537,
      "ent": 1357,
      "brk": 0,
      "frameMs": 8.3
    },
    {
      "t": 1393.6,
      "rD": 0.66,
      "hC": 0.78,
      "mA": 0.54,
      "tD": 0.56,
      "mode": "D_dorian",
      "bpm": 92,
      "arc": 0.537,
      "ent": 1137,
      "brk": 0,
      "frameMs": 8.2
    },
    {
      "t": 1394.6,
      "rD": 0.66,
      "hC": 0.78,
      "mA": 0.54,
      "tD": 0.56,
      "mode": "D_dorian",
      "bpm": 92,
      "arc": 0.538,
      "ent": 977,
      "brk": 0,
      "frameMs": 7.6
    },
    {
      "t": 1395.6,
      "rD": 0.66,
      "hC": 0.77,
      "mA": 0.54,
      "tD": 0.56,
      "mode": "D_dorian",
      "bpm": 92,
      "arc": 0.538,
      "ent": 838,
      "brk": 0,
      "frameMs": 7.9
    },
    {
      "t": 1396.6,
      "rD": 0.65,
      "hC": 0.77,
      "mA": 0.53,
      "tD": 0.55,
      "mode": "D_dorian",
      "bpm": 92,
      "arc": 0.538,
      "ent": 749,
      "brk": 0,
      "frameMs": 8.7
    },
    {
      "t": 1397.6,
      "rD": 0.64,
      "hC": 0.76,
      "mA": 0.53,
      "tD": 0.54,
      "mode": "D_dorian",
      "bpm": 92,
      "arc": 0.539,
      "ent": 735,
      "brk": 0,
      "frameMs": 8.3
    },
    {
      "t": 1398.6,
      "rD": 0.63,
      "hC": 0.75,
      "mA": 0.52,
      "tD": 0.53,
      "mode": "D_dorian",
      "bpm": 92,
      "arc": 0.539,
      "ent": 791,
      "brk": 0,
      "frameMs": 8
    },
    {
      "t": 1399.6,
      "rD": 0.61,
      "hC": 0.75,
      "mA": 0.52,
      "tD": 0.52,
      "mode": "D_dorian",
      "bpm": 92,
      "arc": 0.54,
      "ent": 781,
      "brk": 0,
      "frameMs": 8
    },
    {
      "t": 1400.6,
      "rD": 0.6,
      "hC": 0.74,
      "mA": 0.51,
      "tD": 0.51,
      "mode": "D_dorian",
      "bpm": 92,
      "arc": 0.54,
      "ent": 730,
      "brk": 0,
      "frameMs": 7.8
    },
    {
      "t": 1401.6,
      "rD": 0.59,
      "hC": 0.73,
      "mA": 0.51,
      "tD": 0.51,
      "mode": "D_dorian",
      "bpm": 92,
      "arc": 0.54,
      "ent": 771,
      "brk": 0,
      "frameMs": 8.5
    },
    {
      "t": 1402.6,
      "rD": 0.59,
      "hC": 0.73,
      "mA": 0.51,
      "tD": 0.5,
      "mode": "D_dorian",
      "bpm": 92,
      "arc": 0.541,
      "ent": 733,
      "brk": 0,
      "frameMs": 8.1
    },
    {
      "t": 1403.6,
      "rD": 0.58,
      "hC": 0.72,
      "mA": 0.5,
      "tD": 0.5,
      "mode": "D_dorian",
      "bpm": 92,
      "arc": 0.541,
      "ent": 766,
      "brk": 0,
      "frameMs": 8.4
    },
    {
      "t": 1404.6,
      "rD": 0.58,
      "hC": 0.72,
      "mA": 0.5,
      "tD": 0.5,
      "mode": "D_dorian",
      "bpm": 92,
      "arc": 0.541,
      "ent": 714,
      "brk": 0,
      "frameMs": 8.3
    },
    {
      "t": 1405.6,
      "rD": 0.58,
      "hC": 0.73,
      "mA": 0.5,
      "tD": 0.5,
      "mode": "D_dorian",
      "bpm": 92,
      "arc": 0.542,
      "ent": 1214,
      "brk": 0,
      "frameMs": 10
    },
    {
      "t": 1406.6,
      "rD": 0.59,
      "hC": 0.73,
      "mA": 0.51,
      "tD": 0.5,
      "mode": "D_dorian",
      "bpm": 92,
      "arc": 0.542,
      "ent": 1489,
      "brk": 0,
      "frameMs": 9.2
    },
    {
      "t": 1407.6,
      "rD": 0.6,
      "hC": 0.74,
      "mA": 0.51,
      "tD": 0.51,
      "mode": "D_dorian",
      "bpm": 92,
      "arc": 0.543,
      "ent": 1728,
      "brk": 0,
      "frameMs": 8.8
    },
    {
      "t": 1408.6,
      "rD": 0.61,
      "hC": 0.74,
      "mA": 0.52,
      "tD": 0.52,
      "mode": "D_dorian",
      "bpm": 92,
      "arc": 0.543,
      "ent": 1932,
      "brk": 0,
      "frameMs": 6.8
    },
    {
      "t": 1409.6,
      "rD": 0.62,
      "hC": 0.75,
      "mA": 0.53,
      "tD": 0.53,
      "mode": "D_dorian",
      "bpm": 92,
      "arc": 0.543,
      "ent": 2107,
      "brk": 0,
      "frameMs": 8.4
    },
    {
      "t": 1410.7,
      "rD": 0.63,
      "hC": 0.76,
      "mA": 0.53,
      "tD": 0.54,
      "mode": "D_dorian",
      "bpm": 92,
      "arc": 0.544,
      "ent": 2210,
      "brk": 0,
      "frameMs": 8.8
    },
    {
      "t": 1411.7,
      "rD": 0.65,
      "hC": 0.77,
      "mA": 0.54,
      "tD": 0.55,
      "mode": "D_dorian",
      "bpm": 92,
      "arc": 0.544,
      "ent": 2268,
      "brk": 0,
      "frameMs": 6.6
    },
    {
      "t": 1412.7,
      "rD": 0.66,
      "hC": 0.78,
      "mA": 0.55,
      "tD": 0.56,
      "mode": "D_dorian",
      "bpm": 92,
      "arc": 0.545,
      "ent": 2289,
      "brk": 0,
      "frameMs": 8.5
    },
    {
      "t": 1413.7,
      "rD": 0.67,
      "hC": 0.79,
      "mA": 0.55,
      "tD": 0.57,
      "mode": "D_dorian",
      "bpm": 92,
      "arc": 0.545,
      "ent": 2293,
      "brk": 0,
      "frameMs": 17.4
    },
    {
      "t": 1414.7,
      "rD": 0.68,
      "hC": 0.8,
      "mA": 0.56,
      "tD": 0.57,
      "mode": "D_dorian",
      "bpm": 92,
      "arc": 0.545,
      "ent": 2310,
      "brk": 0,
      "frameMs": 8.3
    },
    {
      "t": 1415.7,
      "rD": 0.68,
      "hC": 0.8,
      "mA": 0.56,
      "tD": 0.58,
      "mode": "D_dorian",
      "bpm": 92,
      "arc": 0.546,
      "ent": 2102,
      "brk": 1,
      "frameMs": 8.4
    },
    {
      "t": 1416.7,
      "rD": 0.68,
      "hC": 0.8,
      "mA": 0.56,
      "tD": 0.58,
      "mode": "D_dorian",
      "bpm": 92,
      "arc": 0.546,
      "ent": 1863,
      "brk": 1,
      "frameMs": 16.6
    },
    {
      "t": 1417.7,
      "rD": 0.68,
      "hC": 0.8,
      "mA": 0.56,
      "tD": 0.58,
      "mode": "D_dorian",
      "bpm": 92,
      "arc": 0.547,
      "ent": 1518,
      "brk": 1,
      "frameMs": 8.3
    },
    {
      "t": 1418.7,
      "rD": 0.67,
      "hC": 0.79,
      "mA": 0.56,
      "tD": 0.57,
      "mode": "D_dorian",
      "bpm": 92,
      "arc": 0.547,
      "ent": 1296,
      "brk": 1,
      "frameMs": 8.3
    },
    {
      "t": 1419.7,
      "rD": 0.67,
      "hC": 0.79,
      "mA": 0.55,
      "tD": 0.56,
      "mode": "D_dorian",
      "bpm": 92,
      "arc": 0.547,
      "ent": 1048,
      "brk": 1,
      "frameMs": 16.7
    },
    {
      "t": 1420.7,
      "rD": 0.65,
      "hC": 0.78,
      "mA": 0.55,
      "tD": 0.55,
      "mode": "D_dorian",
      "bpm": 92,
      "arc": 0.548,
      "ent": 827,
      "brk": 1,
      "frameMs": 18.1
    },
    {
      "t": 1421.7,
      "rD": 0.64,
      "hC": 0.77,
      "mA": 0.54,
      "tD": 0.55,
      "mode": "D_dorian",
      "bpm": 92,
      "arc": 0.548,
      "ent": 724,
      "brk": 1,
      "frameMs": 8.5
    },
    {
      "t": 1422.7,
      "rD": 0.63,
      "hC": 0.76,
      "mA": 0.54,
      "tD": 0.54,
      "mode": "D_dorian",
      "bpm": 92,
      "arc": 0.548,
      "ent": 611,
      "brk": 1,
      "frameMs": 8.4
    },
    {
      "t": 1423.7,
      "rD": 0.62,
      "hC": 0.76,
      "mA": 0.53,
      "tD": 0.53,
      "mode": "D_dorian",
      "bpm": 92,
      "arc": 0.549,
      "ent": 587,
      "brk": 1,
      "frameMs": 17.1
    },
    {
      "t": 1424.7,
      "rD": 0.61,
      "hC": 0.75,
      "mA": 0.53,
      "tD": 0.52,
      "mode": "D_dorian",
      "bpm": 92,
      "arc": 0.549,
      "ent": 634,
      "brk": 1,
      "frameMs": 7.7
    },
    {
      "t": 1425.7,
      "rD": 0.6,
      "hC": 0.74,
      "mA": 0.52,
      "tD": 0.51,
      "mode": "D_dorian",
      "bpm": 92,
      "arc": 0.55,
      "ent": 631,
      "brk": 0,
      "frameMs": 7.9
    },
    {
      "t": 1426.7,
      "rD": 0.6,
      "hC": 0.74,
      "mA": 0.52,
      "tD": 0.51,
      "mode": "D_dorian",
      "bpm": 92,
      "arc": 0.55,
      "ent": 649,
      "brk": 0,
      "frameMs": 8.3
    },
    {
      "t": 1427.7,
      "rD": 0.6,
      "hC": 0.74,
      "mA": 0.52,
      "tD": 0.51,
      "mode": "D_dorian",
      "bpm": 92,
      "arc": 0.55,
      "ent": 716,
      "brk": 0,
      "frameMs": 8.4
    },
    {
      "t": 1428.8,
      "rD": 0.6,
      "hC": 0.74,
      "mA": 0.52,
      "tD": 0.51,
      "mode": "D_dorian",
      "bpm": 92,
      "arc": 0.551,
      "ent": 687,
      "brk": 0,
      "frameMs": 8.4
    },
    {
      "t": 1429.8,
      "rD": 0.6,
      "hC": 0.75,
      "mA": 0.52,
      "tD": 0.51,
      "mode": "D_dorian",
      "bpm": 92,
      "arc": 0.551,
      "ent": 724,
      "brk": 0,
      "frameMs": 8.2
    },
    {
      "t": 1430.8,
      "rD": 0.61,
      "hC": 0.75,
      "mA": 0.53,
      "tD": 0.52,
      "mode": "D_dorian",
      "bpm": 92,
      "arc": 0.552,
      "ent": 711,
      "brk": 0,
      "frameMs": 8.7
    },
    {
      "t": 1431.8,
      "rD": 0.62,
      "hC": 0.76,
      "mA": 0.53,
      "tD": 0.53,
      "mode": "D_dorian",
      "bpm": 92,
      "arc": 0.552,
      "ent": 751,
      "brk": 0,
      "frameMs": 9.1
    },
    {
      "t": 1432.8,
      "rD": 0.64,
      "hC": 0.77,
      "mA": 0.54,
      "tD": 0.54,
      "mode": "D_dorian",
      "bpm": 92,
      "arc": 0.552,
      "ent": 782,
      "brk": 0,
      "frameMs": 8.3
    },
    {
      "t": 1433.8,
      "rD": 0.65,
      "hC": 0.78,
      "mA": 0.55,
      "tD": 0.55,
      "mode": "D_dorian",
      "bpm": 92,
      "arc": 0.553,
      "ent": 762,
      "brk": 0,
      "frameMs": 8.4
    },
    {
      "t": 1434.8,
      "rD": 0.66,
      "hC": 0.79,
      "mA": 0.56,
      "tD": 0.56,
      "mode": "D_dorian",
      "bpm": 92,
      "arc": 0.553,
      "ent": 790,
      "brk": 0,
      "frameMs": 16.9
    },
    {
      "t": 1435.8,
      "rD": 0.68,
      "hC": 0.8,
      "mA": 0.56,
      "tD": 0.57,
      "mode": "D_dorian",
      "bpm": 92,
      "arc": 0.554,
      "ent": 742,
      "brk": 0,
      "frameMs": 8.3
    },
    {
      "t": 1436.8,
      "rD": 0.68,
      "hC": 0.8,
      "mA": 0.57,
      "tD": 0.58,
      "mode": "D_dorian",
      "bpm": 92,
      "arc": 0.554,
      "ent": 722,
      "brk": 0,
      "frameMs": 16.5
    },
    {
      "t": 1437.8,
      "rD": 0.69,
      "hC": 0.81,
      "mA": 0.57,
      "tD": 0.58,
      "mode": "D_dorian",
      "bpm": 92,
      "arc": 0.554,
      "ent": 756,
      "brk": 0,
      "frameMs": 8.3
    },
    {
      "t": 1438.8,
      "rD": 0.69,
      "hC": 0.81,
      "mA": 0.57,
      "tD": 0.59,
      "mode": "D_dorian",
      "bpm": 92,
      "arc": 0.555,
      "ent": 756,
      "brk": 0,
      "frameMs": 8.4
    },
    {
      "t": 1439.8,
      "rD": 0.69,
      "hC": 0.81,
      "mA": 0.57,
      "tD": 0.59,
      "mode": "D_dorian",
      "bpm": 92,
      "arc": 0.555,
      "ent": 728,
      "brk": 0,
      "frameMs": 8.6
    },
    {
      "t": 1440.8,
      "rD": 0.69,
      "hC": 0.81,
      "mA": 0.57,
      "tD": 0.58,
      "mode": "D_dorian",
      "bpm": 92,
      "arc": 0.555,
      "ent": 719,
      "brk": 0,
      "frameMs": 8.4
    },
    {
      "t": 1441.8,
      "rD": 0.68,
      "hC": 0.8,
      "mA": 0.57,
      "tD": 0.58,
      "mode": "D_dorian",
      "bpm": 92,
      "arc": 0.556,
      "ent": 684,
      "brk": 0,
      "frameMs": 9.5
    },
    {
      "t": 1442.8,
      "rD": 0.67,
      "hC": 0.8,
      "mA": 0.56,
      "tD": 0.57,
      "mode": "D_dorian",
      "bpm": 92,
      "arc": 0.556,
      "ent": 710,
      "brk": 0,
      "frameMs": 8.1
    },
    {
      "t": 1443.8,
      "rD": 0.66,
      "hC": 0.79,
      "mA": 0.56,
      "tD": 0.56,
      "mode": "D_dorian",
      "bpm": 92,
      "arc": 0.557,
      "ent": 726,
      "brk": 0,
      "frameMs": 8
    },
    {
      "t": 1444.8,
      "rD": 0.65,
      "hC": 0.78,
      "mA": 0.55,
      "tD": 0.55,
      "mode": "D_dorian",
      "bpm": 92,
      "arc": 0.557,
      "ent": 725,
      "brk": 0,
      "frameMs": 8.1
    },
    {
      "t": 1445.8,
      "rD": 0.64,
      "hC": 0.77,
      "mA": 0.54,
      "tD": 0.54,
      "mode": "D_dorian",
      "bpm": 92,
      "arc": 0.557,
      "ent": 740,
      "brk": 0,
      "frameMs": 8.8
    },
    {
      "t": 1446.9,
      "rD": 0.63,
      "hC": 0.76,
      "mA": 0.54,
      "tD": 0.53,
      "mode": "D_dorian",
      "bpm": 92,
      "arc": 0.558,
      "ent": 726,
      "brk": 0,
      "frameMs": 8.4
    },
    {
      "t": 1447.9,
      "rD": 0.62,
      "hC": 0.76,
      "mA": 0.53,
      "tD": 0.52,
      "mode": "C#_dorian",
      "bpm": 95,
      "arc": 0.558,
      "ent": 733,
      "brk": 0,
      "frameMs": 8.4
    },
    {
      "t": 1448.9,
      "rD": 0.61,
      "hC": 0.75,
      "mA": 0.53,
      "tD": 0.52,
      "mode": "C#_dorian",
      "bpm": 98,
      "arc": 0.559,
      "ent": 741,
      "brk": 0,
      "frameMs": 7.9
    },
    {
      "t": 1449.9,
      "rD": 0.6,
      "hC": 0.75,
      "mA": 0.53,
      "tD": 0.51,
      "mode": "C#_dorian",
      "bpm": 99,
      "arc": 0.559,
      "ent": 760,
      "brk": 0,
      "frameMs": 18.7
    },
    {
      "t": 1450.9,
      "rD": 0.6,
      "hC": 0.75,
      "mA": 0.53,
      "tD": 0.51,
      "mode": "C#_dorian",
      "bpm": 100,
      "arc": 0.559,
      "ent": 791,
      "brk": 0,
      "frameMs": 9.6
    },
    {
      "t": 1451.9,
      "rD": 0.61,
      "hC": 0.75,
      "mA": 0.53,
      "tD": 0.51,
      "mode": "C#_dorian",
      "bpm": 100,
      "arc": 0.56,
      "ent": 740,
      "brk": 0,
      "frameMs": 6.4
    },
    {
      "t": 1452.9,
      "rD": 0.61,
      "hC": 0.75,
      "mA": 0.53,
      "tD": 0.52,
      "mode": "C#_dorian",
      "bpm": 100,
      "arc": 0.56,
      "ent": 750,
      "brk": 0,
      "frameMs": 8.4
    },
    {
      "t": 1453.9,
      "rD": 0.62,
      "hC": 0.76,
      "mA": 0.54,
      "tD": 0.53,
      "mode": "C#_dorian",
      "bpm": 100,
      "arc": 0.561,
      "ent": 760,
      "brk": 0,
      "frameMs": 7.5
    },
    {
      "t": 1454.9,
      "rD": 0.63,
      "hC": 0.77,
      "mA": 0.54,
      "tD": 0.54,
      "mode": "C#_dorian",
      "bpm": 100,
      "arc": 0.561,
      "ent": 711,
      "brk": 0,
      "frameMs": 16.8
    },
    {
      "t": 1455.9,
      "rD": 0.65,
      "hC": 0.78,
      "mA": 0.55,
      "tD": 0.55,
      "mode": "C#_dorian",
      "bpm": 100,
      "arc": 0.561,
      "ent": 741,
      "brk": 0,
      "frameMs": 25.9
    },
    {
      "t": 1456.9,
      "rD": 0.66,
      "hC": 0.79,
      "mA": 0.56,
      "tD": 0.56,
      "mode": "C#_dorian",
      "bpm": 100,
      "arc": 0.562,
      "ent": 1122,
      "brk": 0,
      "frameMs": 16.8
    },
    {
      "t": 1457.9,
      "rD": 0.67,
      "hC": 0.8,
      "mA": 0.56,
      "tD": 0.57,
      "mode": "C#_dorian",
      "bpm": 100,
      "arc": 0.562,
      "ent": 1433,
      "brk": 0,
      "frameMs": 16.2
    },
    {
      "t": 1458.9,
      "rD": 0.69,
      "hC": 0.8,
      "mA": 0.57,
      "tD": 0.58,
      "mode": "C#_dorian",
      "bpm": 100,
      "arc": 0.563,
      "ent": 1718,
      "brk": 0,
      "frameMs": 10.1
    },
    {
      "t": 1460,
      "rD": 0.7,
      "hC": 0.81,
      "mA": 0.57,
      "tD": 0.59,
      "mode": "C#_dorian",
      "bpm": 100,
      "arc": 0.563,
      "ent": 1997,
      "brk": 0,
      "frameMs": 17
    },
    {
      "t": 1461,
      "rD": 0.71,
      "hC": 0.82,
      "mA": 0.58,
      "tD": 0.59,
      "mode": "C#_dorian",
      "bpm": 100,
      "arc": 0.563,
      "ent": 2232,
      "brk": 0,
      "frameMs": 16.8
    },
    {
      "t": 1462,
      "rD": 0.71,
      "hC": 0.82,
      "mA": 0.58,
      "tD": 0.59,
      "mode": "C#_dorian",
      "bpm": 100,
      "arc": 0.564,
      "ent": 2446,
      "brk": 0,
      "frameMs": 8.7
    },
    {
      "t": 1463,
      "rD": 0.71,
      "hC": 0.82,
      "mA": 0.58,
      "tD": 0.59,
      "mode": "C#_dorian",
      "bpm": 100,
      "arc": 0.564,
      "ent": 2626,
      "brk": 0,
      "frameMs": 16.7
    },
    {
      "t": 1464,
      "rD": 0.71,
      "hC": 0.82,
      "mA": 0.58,
      "tD": 0.59,
      "mode": "C#_dorian",
      "bpm": 100,
      "arc": 0.564,
      "ent": 2686,
      "brk": 0,
      "frameMs": 8.4
    },
    {
      "t": 1465,
      "rD": 0.7,
      "hC": 0.81,
      "mA": 0.58,
      "tD": 0.59,
      "mode": "C#_dorian",
      "bpm": 100,
      "arc": 0.565,
      "ent": 2740,
      "brk": 0,
      "frameMs": 16.7
    },
    {
      "t": 1466,
      "rD": 0.69,
      "hC": 0.81,
      "mA": 0.57,
      "tD": 0.58,
      "mode": "C#_dorian",
      "bpm": 100,
      "arc": 0.565,
      "ent": 2708,
      "brk": 0,
      "frameMs": 16.7
    },
    {
      "t": 1467,
      "rD": 0.69,
      "hC": 0.8,
      "mA": 0.57,
      "tD": 0.57,
      "mode": "C#_dorian",
      "bpm": 100,
      "arc": 0.566,
      "ent": 2323,
      "brk": 0,
      "frameMs": 16
    },
    {
      "t": 1468,
      "rD": 0.68,
      "hC": 0.79,
      "mA": 0.56,
      "tD": 0.56,
      "mode": "C#_dorian",
      "bpm": 100,
      "arc": 0.566,
      "ent": 1957,
      "brk": 0,
      "frameMs": 18.5
    },
    {
      "t": 1469,
      "rD": 0.67,
      "hC": 0.79,
      "mA": 0.56,
      "tD": 0.55,
      "mode": "C#_dorian",
      "bpm": 100,
      "arc": 0.566,
      "ent": 1613,
      "brk": 0,
      "frameMs": 7.9
    },
    {
      "t": 1470,
      "rD": 0.66,
      "hC": 0.78,
      "mA": 0.55,
      "tD": 0.55,
      "mode": "C#_dorian",
      "bpm": 100,
      "arc": 0.567,
      "ent": 1338,
      "brk": 0,
      "frameMs": 8.9
    },
    {
      "t": 1471,
      "rD": 0.65,
      "hC": 0.77,
      "mA": 0.55,
      "tD": 0.54,
      "mode": "C#_dorian",
      "bpm": 100,
      "arc": 0.567,
      "ent": 1103,
      "brk": 0,
      "frameMs": 10.4
    },
    {
      "t": 1472,
      "rD": 0.64,
      "hC": 0.77,
      "mA": 0.55,
      "tD": 0.54,
      "mode": "C#_dorian",
      "bpm": 100,
      "arc": 0.568,
      "ent": 965,
      "brk": 0,
      "frameMs": 8.4
    },
    {
      "t": 1473,
      "rD": 0.64,
      "hC": 0.77,
      "mA": 0.55,
      "tD": 0.53,
      "mode": "C#_dorian",
      "bpm": 100,
      "arc": 0.568,
      "ent": 852,
      "brk": 0,
      "frameMs": 7.9
    },
    {
      "t": 1474,
      "rD": 0.65,
      "hC": 0.77,
      "mA": 0.55,
      "tD": 0.54,
      "mode": "C#_dorian",
      "bpm": 100,
      "arc": 0.568,
      "ent": 781,
      "brk": 0,
      "frameMs": 16.6
    },
    {
      "t": 1475,
      "rD": 0.65,
      "hC": 0.77,
      "mA": 0.55,
      "tD": 0.54,
      "mode": "C#_dorian",
      "bpm": 100,
      "arc": 0.569,
      "ent": 809,
      "brk": 0,
      "frameMs": 17.2
    },
    {
      "t": 1476,
      "rD": 0.66,
      "hC": 0.78,
      "mA": 0.56,
      "tD": 0.55,
      "mode": "C#_dorian",
      "bpm": 100,
      "arc": 0.569,
      "ent": 790,
      "brk": 0,
      "frameMs": 16.4
    },
    {
      "t": 1477.1,
      "rD": 0.67,
      "hC": 0.79,
      "mA": 0.56,
      "tD": 0.56,
      "mode": "C#_dorian",
      "bpm": 100,
      "arc": 0.57,
      "ent": 819,
      "brk": 0,
      "frameMs": 8.4
    },
    {
      "t": 1478.1,
      "rD": 0.69,
      "hC": 0.8,
      "mA": 0.57,
      "tD": 0.57,
      "mode": "C#_dorian",
      "bpm": 100,
      "arc": 0.57,
      "ent": 814,
      "brk": 0,
      "frameMs": 7.7
    },
    {
      "t": 1479.1,
      "rD": 0.7,
      "hC": 0.81,
      "mA": 0.58,
      "tD": 0.58,
      "mode": "C#_dorian",
      "bpm": 100,
      "arc": 0.57,
      "ent": 1142,
      "brk": 0,
      "frameMs": 9.9
    },
    {
      "t": 1480.1,
      "rD": 0.72,
      "hC": 0.82,
      "mA": 0.59,
      "tD": 0.59,
      "mode": "C#_dorian",
      "bpm": 100,
      "arc": 0.571,
      "ent": 1500,
      "brk": 0,
      "frameMs": 16.8
    },
    {
      "t": 1481.1,
      "rD": 0.74,
      "hC": 0.83,
      "mA": 0.6,
      "tD": 0.6,
      "mode": "C#_dorian",
      "bpm": 100,
      "arc": 0.571,
      "ent": 1850,
      "brk": 0,
      "frameMs": 16.6
    },
    {
      "t": 1482.1,
      "rD": 0.75,
      "hC": 0.84,
      "mA": 0.6,
      "tD": 0.61,
      "mode": "C#_dorian",
      "bpm": 100,
      "arc": 0.571,
      "ent": 2148,
      "brk": 0,
      "frameMs": 6.7
    },
    {
      "t": 1483.1,
      "rD": 0.76,
      "hC": 0.85,
      "mA": 0.61,
      "tD": 0.62,
      "mode": "C#_dorian",
      "bpm": 100,
      "arc": 0.572,
      "ent": 2368,
      "brk": 0,
      "frameMs": 16.8
    },
    {
      "t": 1484.1,
      "rD": 0.77,
      "hC": 0.85,
      "mA": 0.61,
      "tD": 0.63,
      "mode": "C#_dorian",
      "bpm": 100,
      "arc": 0.572,
      "ent": 2532,
      "brk": 0,
      "frameMs": 8.5
    },
    {
      "t": 1485.1,
      "rD": 0.78,
      "hC": 0.86,
      "mA": 0.62,
      "tD": 0.63,
      "mode": "C#_dorian",
      "bpm": 100,
      "arc": 0.573,
      "ent": 2709,
      "brk": 0,
      "frameMs": 8.3
    },
    {
      "t": 1486.1,
      "rD": 0.78,
      "hC": 0.86,
      "mA": 0.62,
      "tD": 0.63,
      "mode": "C#_dorian",
      "bpm": 100,
      "arc": 0.573,
      "ent": 2748,
      "brk": 0,
      "frameMs": 8
    },
    {
      "t": 1487.1,
      "rD": 0.78,
      "hC": 0.85,
      "mA": 0.62,
      "tD": 0.63,
      "mode": "C#_dorian",
      "bpm": 100,
      "arc": 0.573,
      "ent": 2779,
      "brk": 0,
      "frameMs": 15.4
    },
    {
      "t": 1488.1,
      "rD": 0.77,
      "hC": 0.85,
      "mA": 0.61,
      "tD": 0.62,
      "mode": "C#_dorian",
      "bpm": 100,
      "arc": 0.574,
      "ent": 2773,
      "brk": 0,
      "frameMs": 8.4
    },
    {
      "t": 1489.1,
      "rD": 0.76,
      "hC": 0.84,
      "mA": 0.61,
      "tD": 0.62,
      "mode": "C#_dorian",
      "bpm": 100,
      "arc": 0.574,
      "ent": 2800,
      "brk": 0,
      "frameMs": 7
    },
    {
      "t": 1490.1,
      "rD": 0.75,
      "hC": 0.84,
      "mA": 0.61,
      "tD": 0.61,
      "mode": "C#_dorian",
      "bpm": 100,
      "arc": 0.575,
      "ent": 2759,
      "brk": 1,
      "frameMs": 8.1
    },
    {
      "t": 1491.1,
      "rD": 0.74,
      "hC": 0.83,
      "mA": 0.6,
      "tD": 0.6,
      "mode": "C#_dorian",
      "bpm": 100,
      "arc": 0.575,
      "ent": 2719,
      "brk": 1,
      "frameMs": 25
    },
    {
      "t": 1492.2,
      "rD": 0.73,
      "hC": 0.82,
      "mA": 0.6,
      "tD": 0.59,
      "mode": "C#_dorian",
      "bpm": 100,
      "arc": 0.575,
      "ent": 2620,
      "brk": 1,
      "frameMs": 16.3
    },
    {
      "t": 1493.2,
      "rD": 0.73,
      "hC": 0.82,
      "mA": 0.59,
      "tD": 0.58,
      "mode": "C#_dorian",
      "bpm": 100,
      "arc": 0.576,
      "ent": 2592,
      "brk": 1,
      "frameMs": 34.1
    },
    {
      "t": 1494.2,
      "rD": 0.72,
      "hC": 0.81,
      "mA": 0.59,
      "tD": 0.58,
      "mode": "C#_dorian",
      "bpm": 100,
      "arc": 0.576,
      "ent": 2447,
      "brk": 1,
      "frameMs": 16.5
    },
    {
      "t": 1495.2,
      "rD": 0.71,
      "hC": 0.81,
      "mA": 0.59,
      "tD": 0.57,
      "mode": "C#_dorian",
      "bpm": 100,
      "arc": 0.577,
      "ent": 2212,
      "brk": 0,
      "frameMs": 25.1
    },
    {
      "t": 1496.2,
      "rD": 0.71,
      "hC": 0.81,
      "mA": 0.59,
      "tD": 0.57,
      "mode": "C#_dorian",
      "bpm": 100,
      "arc": 0.577,
      "ent": 2314,
      "brk": 0,
      "frameMs": 7.9
    },
    {
      "t": 1497.2,
      "rD": 0.72,
      "hC": 0.81,
      "mA": 0.59,
      "tD": 0.57,
      "mode": "C#_dorian",
      "bpm": 100,
      "arc": 0.577,
      "ent": 2392,
      "brk": 0,
      "frameMs": 16.4
    },
    {
      "t": 1498.2,
      "rD": 0.72,
      "hC": 0.81,
      "mA": 0.59,
      "tD": 0.58,
      "mode": "C#_dorian",
      "bpm": 100,
      "arc": 0.578,
      "ent": 2467,
      "brk": 0,
      "frameMs": 10.2
    },
    {
      "t": 1499.2,
      "rD": 0.73,
      "hC": 0.82,
      "mA": 0.59,
      "tD": 0.58,
      "mode": "C#_dorian",
      "bpm": 100,
      "arc": 0.578,
      "ent": 2538,
      "brk": 0,
      "frameMs": 16.8
    },
    {
      "t": 1500.2,
      "rD": 0.74,
      "hC": 0.83,
      "mA": 0.6,
      "tD": 0.59,
      "mode": "C#_dorian",
      "bpm": 100,
      "arc": 0.579,
      "ent": 2662,
      "brk": 0,
      "frameMs": 18
    },
    {
      "t": 1501.2,
      "rD": 0.75,
      "hC": 0.83,
      "mA": 0.61,
      "tD": 0.6,
      "mode": "C#_dorian",
      "bpm": 100,
      "arc": 0.579,
      "ent": 2741,
      "brk": 0,
      "frameMs": 16.5
    },
    {
      "t": 1502.2,
      "rD": 0.77,
      "hC": 0.84,
      "mA": 0.61,
      "tD": 0.61,
      "mode": "C#_dorian",
      "bpm": 100,
      "arc": 0.579,
      "ent": 2786,
      "brk": 0,
      "frameMs": 16.8
    },
    {
      "t": 1503.3,
      "rD": 0.78,
      "hC": 0.85,
      "mA": 0.62,
      "tD": 0.62,
      "mode": "C#_dorian",
      "bpm": 100,
      "arc": 0.58,
      "ent": 2795,
      "brk": 0,
      "frameMs": 16.3
    },
    {
      "t": 1504.3,
      "rD": 0.8,
      "hC": 0.86,
      "mA": 0.63,
      "tD": 0.64,
      "mode": "C#_dorian",
      "bpm": 100,
      "arc": 0.58,
      "ent": 2799,
      "brk": 0,
      "frameMs": 8.2
    },
    {
      "t": 1505.3,
      "rD": 0.81,
      "hC": 0.87,
      "mA": 0.63,
      "tD": 0.64,
      "mode": "C#_dorian",
      "bpm": 100,
      "arc": 0.58,
      "ent": 2730,
      "brk": 0,
      "frameMs": 17.2
    },
    {
      "t": 1506.3,
      "rD": 0.82,
      "hC": 0.88,
      "mA": 0.64,
      "tD": 0.65,
      "mode": "C#_dorian",
      "bpm": 100,
      "arc": 0.581,
      "ent": 2713,
      "brk": 0,
      "frameMs": 9.3
    },
    {
      "t": 1507.3,
      "rD": 0.82,
      "hC": 0.88,
      "mA": 0.64,
      "tD": 0.66,
      "mode": "C#_dorian",
      "bpm": 100,
      "arc": 0.581,
      "ent": 2673,
      "brk": 0,
      "frameMs": 17.4
    },
    {
      "t": 1508.3,
      "rD": 0.83,
      "hC": 0.88,
      "mA": 0.64,
      "tD": 0.66,
      "mode": "C#_dorian",
      "bpm": 100,
      "arc": 0.582,
      "ent": 2651,
      "brk": 0,
      "frameMs": 17
    },
    {
      "t": 1509.3,
      "rD": 0.82,
      "hC": 0.88,
      "mA": 0.64,
      "tD": 0.66,
      "mode": "C#_dorian",
      "bpm": 100,
      "arc": 0.582,
      "ent": 2602,
      "brk": 0,
      "frameMs": 16.8
    },
    {
      "t": 1510.3,
      "rD": 0.82,
      "hC": 0.88,
      "mA": 0.64,
      "tD": 0.65,
      "mode": "C#_dorian",
      "bpm": 100,
      "arc": 0.582,
      "ent": 2676,
      "brk": 0,
      "frameMs": 10.4
    },
    {
      "t": 1511.3,
      "rD": 0.81,
      "hC": 0.87,
      "mA": 0.64,
      "tD": 0.64,
      "mode": "C#_dorian",
      "bpm": 100,
      "arc": 0.583,
      "ent": 2632,
      "brk": 0,
      "frameMs": 15.1
    },
    {
      "t": 1512.3,
      "rD": 0.8,
      "hC": 0.86,
      "mA": 0.63,
      "tD": 0.64,
      "mode": "C#_dorian",
      "bpm": 100,
      "arc": 0.583,
      "ent": 2671,
      "brk": 0,
      "frameMs": 16.6
    },
    {
      "t": 1513.3,
      "rD": 0.79,
      "hC": 0.86,
      "mA": 0.62,
      "tD": 0.63,
      "mode": "C#_dorian",
      "bpm": 100,
      "arc": 0.584,
      "ent": 2762,
      "brk": 0,
      "frameMs": 8.3
    },
    {
      "t": 1514.3,
      "rD": 0.77,
      "hC": 0.85,
      "mA": 0.62,
      "tD": 0.62,
      "mode": "C#_dorian",
      "bpm": 100,
      "arc": 0.584,
      "ent": 2738,
      "brk": 0,
      "frameMs": 17.1
    },
    {
      "t": 1515.3,
      "rD": 0.76,
      "hC": 0.84,
      "mA": 0.61,
      "tD": 0.61,
      "mode": "C#_dorian",
      "bpm": 100,
      "arc": 0.584,
      "ent": 2708,
      "brk": 0,
      "frameMs": 8.3
    },
    {
      "t": 1516.3,
      "rD": 0.75,
      "hC": 0.83,
      "mA": 0.61,
      "tD": 0.6,
      "mode": "C#_dorian",
      "bpm": 100,
      "arc": 0.585,
      "ent": 2684,
      "brk": 0,
      "frameMs": 16.7
    },
    {
      "t": 1517.3,
      "rD": 0.74,
      "hC": 0.82,
      "mA": 0.6,
      "tD": 0.59,
      "mode": "C#_dorian",
      "bpm": 100,
      "arc": 0.585,
      "ent": 2697,
      "brk": 0,
      "frameMs": 8.3
    },
    {
      "t": 1518.4,
      "rD": 0.74,
      "hC": 0.82,
      "mA": 0.6,
      "tD": 0.58,
      "mode": "C#_dorian",
      "bpm": 100,
      "arc": 0.586,
      "ent": 2717,
      "brk": 0,
      "frameMs": 18
    },
    {
      "t": 1519.4,
      "rD": 0.73,
      "hC": 0.82,
      "mA": 0.6,
      "tD": 0.58,
      "mode": "C#_dorian",
      "bpm": 100,
      "arc": 0.586,
      "ent": 2725,
      "brk": 0,
      "frameMs": 15.6
    },
    {
      "t": 1520.4,
      "rD": 0.73,
      "hC": 0.82,
      "mA": 0.6,
      "tD": 0.58,
      "mode": "C#_dorian",
      "bpm": 100,
      "arc": 0.586,
      "ent": 2728,
      "brk": 0,
      "frameMs": 16.4
    },
    {
      "t": 1521.4,
      "rD": 0.74,
      "hC": 0.82,
      "mA": 0.6,
      "tD": 0.59,
      "mode": "C#_dorian",
      "bpm": 100,
      "arc": 0.587,
      "ent": 2805,
      "brk": 0,
      "frameMs": 17.1
    },
    {
      "t": 1522.4,
      "rD": 0.75,
      "hC": 0.83,
      "mA": 0.6,
      "tD": 0.59,
      "mode": "C#_dorian",
      "bpm": 100,
      "arc": 0.587,
      "ent": 2821,
      "brk": 0,
      "frameMs": 16.7
    },
    {
      "t": 1523.4,
      "rD": 0.76,
      "hC": 0.83,
      "mA": 0.61,
      "tD": 0.6,
      "mode": "C#_dorian",
      "bpm": 100,
      "arc": 0.587,
      "ent": 2788,
      "brk": 0,
      "frameMs": 16.7
    },
    {
      "t": 1524.4,
      "rD": 0.77,
      "hC": 0.84,
      "mA": 0.62,
      "tD": 0.61,
      "mode": "C#_dorian",
      "bpm": 100,
      "arc": 0.588,
      "ent": 2769,
      "brk": 0,
      "frameMs": 7.4
    },
    {
      "t": 1525.4,
      "rD": 0.78,
      "hC": 0.85,
      "mA": 0.62,
      "tD": 0.62,
      "mode": "C#_dorian",
      "bpm": 100,
      "arc": 0.588,
      "ent": 2854,
      "brk": 0,
      "frameMs": 17
    },
    {
      "t": 1526.4,
      "rD": 0.8,
      "hC": 0.86,
      "mA": 0.63,
      "tD": 0.63,
      "mode": "C#_dorian",
      "bpm": 100,
      "arc": 0.589,
      "ent": 2839,
      "brk": 0,
      "frameMs": 8.3
    },
    {
      "t": 1527.4,
      "rD": 0.81,
      "hC": 0.87,
      "mA": 0.63,
      "tD": 0.64,
      "mode": "C#_dorian",
      "bpm": 100,
      "arc": 0.589,
      "ent": 2781,
      "brk": 0,
      "frameMs": 17.6
    },
    {
      "t": 1528.4,
      "rD": 0.82,
      "hC": 0.88,
      "mA": 0.64,
      "tD": 0.65,
      "mode": "C#_dorian",
      "bpm": 100,
      "arc": 0.589,
      "ent": 2809,
      "brk": 0,
      "frameMs": 16.4
    },
    {
      "t": 1529.4,
      "rD": 0.83,
      "hC": 0.88,
      "mA": 0.64,
      "tD": 0.66,
      "mode": "C#_dorian",
      "bpm": 100,
      "arc": 0.59,
      "ent": 2832,
      "brk": 0,
      "frameMs": 8.4
    },
    {
      "t": 1530.4,
      "rD": 0.83,
      "hC": 0.88,
      "mA": 0.65,
      "tD": 0.66,
      "mode": "C#_dorian",
      "bpm": 100,
      "arc": 0.59,
      "ent": 2791,
      "brk": 0,
      "frameMs": 8.3
    },
    {
      "t": 1531.4,
      "rD": 0.83,
      "hC": 0.88,
      "mA": 0.65,
      "tD": 0.66,
      "mode": "C#_dorian",
      "bpm": 100,
      "arc": 0.591,
      "ent": 2764,
      "brk": 0,
      "frameMs": 16.7
    },
    {
      "t": 1532.5,
      "rD": 0.83,
      "hC": 0.88,
      "mA": 0.65,
      "tD": 0.66,
      "mode": "C#_dorian",
      "bpm": 100,
      "arc": 0.591,
      "ent": 2791,
      "brk": 0,
      "frameMs": 16.4
    },
    {
      "t": 1533.5,
      "rD": 0.82,
      "hC": 0.88,
      "mA": 0.64,
      "tD": 0.65,
      "mode": "C#_dorian",
      "bpm": 100,
      "arc": 0.591,
      "ent": 2758,
      "brk": 0,
      "frameMs": 7.9
    },
    {
      "t": 1534.5,
      "rD": 0.82,
      "hC": 0.87,
      "mA": 0.64,
      "tD": 0.65,
      "mode": "C#_dorian",
      "bpm": 100,
      "arc": 0.592,
      "ent": 2705,
      "brk": 0,
      "frameMs": 8.4
    },
    {
      "t": 1535.5,
      "rD": 0.81,
      "hC": 0.87,
      "mA": 0.63,
      "tD": 0.64,
      "mode": "C#_dorian",
      "bpm": 100,
      "arc": 0.592,
      "ent": 2751,
      "brk": 0,
      "frameMs": 9.7
    },
    {
      "t": 1536.5,
      "rD": 0.79,
      "hC": 0.86,
      "mA": 0.63,
      "tD": 0.63,
      "mode": "C#_dorian",
      "bpm": 100,
      "arc": 0.593,
      "ent": 2694,
      "brk": 0,
      "frameMs": 15.4
    },
    {
      "t": 1537.5,
      "rD": 0.78,
      "hC": 0.85,
      "mA": 0.62,
      "tD": 0.62,
      "mode": "C#_dorian",
      "bpm": 100,
      "arc": 0.593,
      "ent": 2684,
      "brk": 0,
      "frameMs": 8.1
    },
    {
      "t": 1538.5,
      "rD": 0.77,
      "hC": 0.84,
      "mA": 0.62,
      "tD": 0.61,
      "mode": "C#_dorian",
      "bpm": 100,
      "arc": 0.593,
      "ent": 2668,
      "brk": 0,
      "frameMs": 16.3
    },
    {
      "t": 1539.5,
      "rD": 0.76,
      "hC": 0.83,
      "mA": 0.61,
      "tD": 0.6,
      "mode": "C#_dorian",
      "bpm": 100,
      "arc": 0.594,
      "ent": 2658,
      "brk": 0,
      "frameMs": 17
    },
    {
      "t": 1540.5,
      "rD": 0.75,
      "hC": 0.83,
      "mA": 0.61,
      "tD": 0.59,
      "mode": "C#_dorian",
      "bpm": 100,
      "arc": 0.594,
      "ent": 2632,
      "brk": 0,
      "frameMs": 8.3
    },
    {
      "t": 1541.5,
      "rD": 0.75,
      "hC": 0.82,
      "mA": 0.61,
      "tD": 0.59,
      "mode": "C#_dorian",
      "bpm": 100,
      "arc": 0.595,
      "ent": 2663,
      "brk": 0,
      "frameMs": 15
    },
    {
      "t": 1542.5,
      "rD": 0.74,
      "hC": 0.82,
      "mA": 0.6,
      "tD": 0.59,
      "mode": "C#_dorian",
      "bpm": 100,
      "arc": 0.595,
      "ent": 2689,
      "brk": 0,
      "frameMs": 7.9
    },
    {
      "t": 1543.5,
      "rD": 0.75,
      "hC": 0.82,
      "mA": 0.61,
      "tD": 0.59,
      "mode": "C#_dorian",
      "bpm": 100,
      "arc": 0.595,
      "ent": 2726,
      "brk": 0,
      "frameMs": 16.6
    },
    {
      "t": 1544.5,
      "rD": 0.75,
      "hC": 0.83,
      "mA": 0.61,
      "tD": 0.59,
      "mode": "C#_dorian",
      "bpm": 100,
      "arc": 0.596,
      "ent": 2776,
      "brk": 0,
      "frameMs": 8.2
    },
    {
      "t": 1545.5,
      "rD": 0.76,
      "hC": 0.83,
      "mA": 0.61,
      "tD": 0.6,
      "mode": "C#_dorian",
      "bpm": 100,
      "arc": 0.596,
      "ent": 2741,
      "brk": 0,
      "frameMs": 7.7
    },
    {
      "t": 1546.5,
      "rD": 0.77,
      "hC": 0.84,
      "mA": 0.62,
      "tD": 0.61,
      "mode": "C#_dorian",
      "bpm": 100,
      "arc": 0.596,
      "ent": 2748,
      "brk": 0,
      "frameMs": 8.6
    },
    {
      "t": 1547.5,
      "rD": 0.78,
      "hC": 0.85,
      "mA": 0.63,
      "tD": 0.62,
      "mode": "C#_dorian",
      "bpm": 100,
      "arc": 0.597,
      "ent": 2703,
      "brk": 0,
      "frameMs": 7.3
    },
    {
      "t": 1548.5,
      "rD": 0.8,
      "hC": 0.86,
      "mA": 0.63,
      "tD": 0.63,
      "mode": "C#_dorian",
      "bpm": 100,
      "arc": 0.597,
      "ent": 2665,
      "brk": 0,
      "frameMs": 8.2
    },
    {
      "t": 1549.6,
      "rD": 0.81,
      "hC": 0.87,
      "mA": 0.64,
      "tD": 0.64,
      "mode": "C#_dorian",
      "bpm": 100,
      "arc": 0.598,
      "ent": 2658,
      "brk": 0,
      "frameMs": 8.1
    },
    {
      "t": 1550.6,
      "rD": 0.82,
      "hC": 0.87,
      "mA": 0.65,
      "tD": 0.65,
      "mode": "C#_dorian",
      "bpm": 100,
      "arc": 0.598,
      "ent": 2629,
      "brk": 0,
      "frameMs": 8.2
    },
    {
      "t": 1551.6,
      "rD": 0.83,
      "hC": 0.88,
      "mA": 0.65,
      "tD": 0.66,
      "mode": "C#_dorian",
      "bpm": 100,
      "arc": 0.598,
      "ent": 2651,
      "brk": 0,
      "frameMs": 7.4
    },
    {
      "t": 1552.6,
      "rD": 0.84,
      "hC": 0.89,
      "mA": 0.66,
      "tD": 0.66,
      "mode": "C#_dorian",
      "bpm": 100,
      "arc": 0.599,
      "ent": 2740,
      "brk": 0,
      "frameMs": 15.2
    },
    {
      "t": 1553.6,
      "rD": 0.85,
      "hC": 0.89,
      "mA": 0.66,
      "tD": 0.67,
      "mode": "C#_dorian",
      "bpm": 100,
      "arc": 0.599,
      "ent": 2792,
      "brk": 0,
      "frameMs": 7.1
    },
    {
      "t": 1554.6,
      "rD": 0.85,
      "hC": 0.89,
      "mA": 0.66,
      "tD": 0.67,
      "mode": "C#_dorian",
      "bpm": 100,
      "arc": 0.6,
      "ent": 2815,
      "brk": 0,
      "frameMs": 16.5
    },
    {
      "t": 1555.6,
      "rD": 0.85,
      "hC": 0.89,
      "mA": 0.66,
      "tD": 0.66,
      "mode": "C#_dorian",
      "bpm": 100,
      "arc": 0.6,
      "ent": 2784,
      "brk": 0,
      "frameMs": 8
    },
    {
      "t": 1556.6,
      "rD": 0.84,
      "hC": 0.88,
      "mA": 0.65,
      "tD": 0.66,
      "mode": "C#_dorian",
      "bpm": 100,
      "arc": 0.6,
      "ent": 2804,
      "brk": 0,
      "frameMs": 8.3
    },
    {
      "t": 1557.6,
      "rD": 0.83,
      "hC": 0.88,
      "mA": 0.65,
      "tD": 0.65,
      "mode": "C#_dorian",
      "bpm": 100,
      "arc": 0.601,
      "ent": 2791,
      "brk": 0,
      "frameMs": 7.6
    },
    {
      "t": 1558.6,
      "rD": 0.82,
      "hC": 0.87,
      "mA": 0.65,
      "tD": 0.64,
      "mode": "C#_dorian",
      "bpm": 100,
      "arc": 0.601,
      "ent": 2821,
      "brk": 0,
      "frameMs": 15.2
    },
    {
      "t": 1559.6,
      "rD": 0.81,
      "hC": 0.86,
      "mA": 0.64,
      "tD": 0.63,
      "mode": "C#_dorian",
      "bpm": 100,
      "arc": 0.602,
      "ent": 2787,
      "brk": 0,
      "frameMs": 25.3
    },
    {
      "t": 1560.6,
      "rD": 0.8,
      "hC": 0.85,
      "mA": 0.63,
      "tD": 0.62,
      "mode": "C#_dorian",
      "bpm": 100,
      "arc": 0.602,
      "ent": 2754,
      "brk": 0,
      "frameMs": 10
    },
    {
      "t": 1561.6,
      "rD": 0.79,
      "hC": 0.84,
      "mA": 0.63,
      "tD": 0.61,
      "mode": "C#_dorian",
      "bpm": 100,
      "arc": 0.602,
      "ent": 2759,
      "brk": 0,
      "frameMs": 18.1
    },
    {
      "t": 1562.6,
      "rD": 0.78,
      "hC": 0.84,
      "mA": 0.62,
      "tD": 0.61,
      "mode": "C#_dorian",
      "bpm": 100,
      "arc": 0.603,
      "ent": 2773,
      "brk": 0,
      "frameMs": 6.8
    },
    {
      "t": 1563.6,
      "rD": 0.77,
      "hC": 0.83,
      "mA": 0.62,
      "tD": 0.6,
      "mode": "C#_dorian",
      "bpm": 100,
      "arc": 0.603,
      "ent": 2781,
      "brk": 0,
      "frameMs": 10.1
    },
    {
      "t": 1564.6,
      "rD": 0.76,
      "hC": 0.83,
      "mA": 0.62,
      "tD": 0.6,
      "mode": "C#_dorian",
      "bpm": 100,
      "arc": 0.603,
      "ent": 2757,
      "brk": 0,
      "frameMs": 16.6
    },
    {
      "t": 1565.6,
      "rD": 0.76,
      "hC": 0.83,
      "mA": 0.62,
      "tD": 0.6,
      "mode": "C#_dorian",
      "bpm": 100,
      "arc": 0.604,
      "ent": 2710,
      "brk": 0,
      "frameMs": 7.5
    },
    {
      "t": 1566.6,
      "rD": 0.77,
      "hC": 0.83,
      "mA": 0.62,
      "tD": 0.6,
      "mode": "C#_dorian",
      "bpm": 100,
      "arc": 0.604,
      "ent": 2718,
      "brk": 0,
      "frameMs": 8.9
    },
    {
      "t": 1567.7,
      "rD": 0.77,
      "hC": 0.83,
      "mA": 0.62,
      "tD": 0.6,
      "mode": "C#_dorian",
      "bpm": 100,
      "arc": 0.605,
      "ent": 2645,
      "brk": 0,
      "frameMs": 6.7
    },
    {
      "t": 1568.7,
      "rD": 0.78,
      "hC": 0.84,
      "mA": 0.63,
      "tD": 0.61,
      "mode": "C#_dorian",
      "bpm": 100,
      "arc": 0.605,
      "ent": 2706,
      "brk": 0,
      "frameMs": 16.6
    },
    {
      "t": 1569.7,
      "rD": 0.79,
      "hC": 0.85,
      "mA": 0.63,
      "tD": 0.62,
      "mode": "C#_dorian",
      "bpm": 100,
      "arc": 0.605,
      "ent": 2766,
      "brk": 0,
      "frameMs": 7.9
    },
    {
      "t": 1570.7,
      "rD": 0.81,
      "hC": 0.86,
      "mA": 0.64,
      "tD": 0.63,
      "mode": "C#_dorian",
      "bpm": 100,
      "arc": 0.606,
      "ent": 2806,
      "brk": 0,
      "frameMs": 16.5
    },
    {
      "t": 1571.7,
      "rD": 0.82,
      "hC": 0.87,
      "mA": 0.65,
      "tD": 0.64,
      "mode": "C#_dorian",
      "bpm": 100,
      "arc": 0.606,
      "ent": 2841,
      "brk": 0,
      "frameMs": 16.7
    },
    {
      "t": 1572.7,
      "rD": 0.83,
      "hC": 0.87,
      "mA": 0.66,
      "tD": 0.65,
      "mode": "C#_dorian",
      "bpm": 100,
      "arc": 0.607,
      "ent": 2809,
      "brk": 0,
      "frameMs": 7.4
    },
    {
      "t": 1573.7,
      "rD": 0.85,
      "hC": 0.88,
      "mA": 0.66,
      "tD": 0.66,
      "mode": "C#_dorian",
      "bpm": 100,
      "arc": 0.607,
      "ent": 2777,
      "brk": 0,
      "frameMs": 16.8
    },
    {
      "t": 1574.7,
      "rD": 0.86,
      "hC": 0.89,
      "mA": 0.67,
      "tD": 0.67,
      "mode": "C#_dorian",
      "bpm": 100,
      "arc": 0.607,
      "ent": 2810,
      "brk": 0,
      "frameMs": 8.4
    },
    {
      "t": 1575.7,
      "rD": 0.87,
      "hC": 0.9,
      "mA": 0.67,
      "tD": 0.67,
      "mode": "C#_dorian",
      "bpm": 100,
      "arc": 0.608,
      "ent": 2823,
      "brk": 0,
      "frameMs": 15.7
    },
    {
      "t": 1576.7,
      "rD": 0.87,
      "hC": 0.9,
      "mA": 0.67,
      "tD": 0.68,
      "mode": "C#_dorian",
      "bpm": 100,
      "arc": 0.608,
      "ent": 2794,
      "brk": 0,
      "frameMs": 8.4
    },
    {
      "t": 1577.7,
      "rD": 0.87,
      "hC": 0.9,
      "mA": 0.67,
      "tD": 0.68,
      "mode": "C#_dorian",
      "bpm": 100,
      "arc": 0.609,
      "ent": 2767,
      "brk": 0,
      "frameMs": 16.5
    },
    {
      "t": 1578.7,
      "rD": 0.87,
      "hC": 0.9,
      "mA": 0.67,
      "tD": 0.67,
      "mode": "C#_dorian",
      "bpm": 100,
      "arc": 0.609,
      "ent": 2790,
      "brk": 0,
      "frameMs": 15.1
    },
    {
      "t": 1579.7,
      "rD": 0.86,
      "hC": 0.89,
      "mA": 0.67,
      "tD": 0.67,
      "mode": "C#_dorian",
      "bpm": 100,
      "arc": 0.609,
      "ent": 2739,
      "brk": 0,
      "frameMs": 15.4
    },
    {
      "t": 1580.7,
      "rD": 0.85,
      "hC": 0.89,
      "mA": 0.67,
      "tD": 0.66,
      "mode": "C#_dorian",
      "bpm": 100,
      "arc": 0.61,
      "ent": 2780,
      "brk": 0,
      "frameMs": 8
    },
    {
      "t": 1581.7,
      "rD": 0.84,
      "hC": 0.88,
      "mA": 0.66,
      "tD": 0.65,
      "mode": "C#_dorian",
      "bpm": 100,
      "arc": 0.61,
      "ent": 2804,
      "brk": 0,
      "frameMs": 8.4
    },
    {
      "t": 1582.7,
      "rD": 0.83,
      "hC": 0.87,
      "mA": 0.66,
      "tD": 0.64,
      "mode": "C#_dorian",
      "bpm": 100,
      "arc": 0.611,
      "ent": 2846,
      "brk": 0,
      "frameMs": 16.7
    },
    {
      "t": 1583.8,
      "rD": 0.82,
      "hC": 0.86,
      "mA": 0.65,
      "tD": 0.63,
      "mode": "C#_dorian",
      "bpm": 100,
      "arc": 0.611,
      "ent": 2801,
      "brk": 0,
      "frameMs": 8.1
    },
    {
      "t": 1584.8,
      "rD": 0.81,
      "hC": 0.85,
      "mA": 0.65,
      "tD": 0.62,
      "mode": "C#_dorian",
      "bpm": 100,
      "arc": 0.611,
      "ent": 2801,
      "brk": 0,
      "frameMs": 16.1
    },
    {
      "t": 1585.8,
      "rD": 0.8,
      "hC": 0.85,
      "mA": 0.64,
      "tD": 0.62,
      "mode": "C#_dorian",
      "bpm": 100,
      "arc": 0.612,
      "ent": 2753,
      "brk": 0,
      "frameMs": 8.2
    },
    {
      "t": 1586.8,
      "rD": 0.79,
      "hC": 0.84,
      "mA": 0.64,
      "tD": 0.61,
      "mode": "C#_dorian",
      "bpm": 100,
      "arc": 0.612,
      "ent": 2713,
      "brk": 0,
      "frameMs": 16.6
    },
    {
      "t": 1587.8,
      "rD": 0.79,
      "hC": 0.84,
      "mA": 0.64,
      "tD": 0.61,
      "mode": "C#_dorian",
      "bpm": 100,
      "arc": 0.612,
      "ent": 2745,
      "brk": 0,
      "frameMs": 16.9
    },
    {
      "t": 1588.8,
      "rD": 0.79,
      "hC": 0.84,
      "mA": 0.64,
      "tD": 0.61,
      "mode": "C#_dorian",
      "bpm": 100,
      "arc": 0.613,
      "ent": 2709,
      "brk": 0,
      "frameMs": 7.9
    },
    {
      "t": 1589.8,
      "rD": 0.79,
      "hC": 0.84,
      "mA": 0.64,
      "tD": 0.61,
      "mode": "C#_dorian",
      "bpm": 100,
      "arc": 0.613,
      "ent": 2753,
      "brk": 0,
      "frameMs": 17.3
    },
    {
      "t": 1590.8,
      "rD": 0.8,
      "hC": 0.84,
      "mA": 0.64,
      "tD": 0.61,
      "mode": "C#_dorian",
      "bpm": 100,
      "arc": 0.614,
      "ent": 2756,
      "brk": 0,
      "frameMs": 15.4
    },
    {
      "t": 1591.8,
      "rD": 0.81,
      "hC": 0.85,
      "mA": 0.65,
      "tD": 0.62,
      "mode": "C#_dorian",
      "bpm": 100,
      "arc": 0.614,
      "ent": 2743,
      "brk": 0,
      "frameMs": 16.7
    },
    {
      "t": 1592.8,
      "rD": 0.82,
      "hC": 0.86,
      "mA": 0.65,
      "tD": 0.63,
      "mode": "C#_dorian",
      "bpm": 100,
      "arc": 0.614,
      "ent": 2708,
      "brk": 0,
      "frameMs": 8.4
    },
    {
      "t": 1593.8,
      "rD": 0.83,
      "hC": 0.87,
      "mA": 0.66,
      "tD": 0.64,
      "mode": "C#_dorian",
      "bpm": 100,
      "arc": 0.615,
      "ent": 2693,
      "brk": 0,
      "frameMs": 8.3
    },
    {
      "t": 1594.8,
      "rD": 0.85,
      "hC": 0.88,
      "mA": 0.67,
      "tD": 0.65,
      "mode": "C#_dorian",
      "bpm": 100,
      "arc": 0.615,
      "ent": 2706,
      "brk": 0,
      "frameMs": 8.7
    },
    {
      "t": 1595.8,
      "rD": 0.86,
      "hC": 0.89,
      "mA": 0.67,
      "tD": 0.66,
      "mode": "C#_dorian",
      "bpm": 100,
      "arc": 0.616,
      "ent": 2665,
      "brk": 0,
      "frameMs": 16.7
    },
    {
      "t": 1596.8,
      "rD": 0.87,
      "hC": 0.89,
      "mA": 0.68,
      "tD": 0.67,
      "mode": "C#_dorian",
      "bpm": 100,
      "arc": 0.616,
      "ent": 2628,
      "brk": 0,
      "frameMs": 8.3
    },
    {
      "t": 1597.9,
      "rD": 0.88,
      "hC": 0.9,
      "mA": 0.69,
      "tD": 0.68,
      "mode": "C#_dorian",
      "bpm": 100,
      "arc": 0.616,
      "ent": 2676,
      "brk": 0,
      "frameMs": 18.4
    },
    {
      "t": 1598.9,
      "rD": 0.89,
      "hC": 0.91,
      "mA": 0.69,
      "tD": 0.68,
      "mode": "C#_dorian",
      "bpm": 100,
      "arc": 0.617,
      "ent": 2734,
      "brk": 0,
      "frameMs": 9.6
    },
    {
      "t": 1599.9,
      "rD": 0.9,
      "hC": 0.91,
      "mA": 0.69,
      "tD": 0.69,
      "mode": "C#_dorian",
      "bpm": 100,
      "arc": 0.617,
      "ent": 2753,
      "brk": 0,
      "frameMs": 16.2
    },
    {
      "t": 1600.9,
      "rD": 0.9,
      "hC": 0.91,
      "mA": 0.69,
      "tD": 0.69,
      "mode": "C#_dorian",
      "bpm": 100,
      "arc": 0.618,
      "ent": 2740,
      "brk": 0,
      "frameMs": 16.9
    },
    {
      "t": 1601.9,
      "rD": 0.89,
      "hC": 0.91,
      "mA": 0.69,
      "tD": 0.68,
      "mode": "C#_dorian",
      "bpm": 100,
      "arc": 0.618,
      "ent": 2773,
      "brk": 0,
      "frameMs": 16.9
    },
    {
      "t": 1602.9,
      "rD": 0.89,
      "hC": 0.9,
      "mA": 0.69,
      "tD": 0.68,
      "mode": "C#_dorian",
      "bpm": 100,
      "arc": 0.618,
      "ent": 2798,
      "brk": 0,
      "frameMs": 9.1
    },
    {
      "t": 1603.9,
      "rD": 0.88,
      "hC": 0.89,
      "mA": 0.68,
      "tD": 0.67,
      "mode": "C#_dorian",
      "bpm": 100,
      "arc": 0.619,
      "ent": 2835,
      "brk": 0,
      "frameMs": 15.8
    },
    {
      "t": 1604.9,
      "rD": 0.87,
      "hC": 0.89,
      "mA": 0.68,
      "tD": 0.66,
      "mode": "C#_dorian",
      "bpm": 100,
      "arc": 0.619,
      "ent": 2900,
      "brk": 0,
      "frameMs": 8.4
    },
    {
      "t": 1605.9,
      "rD": 0.86,
      "hC": 0.88,
      "mA": 0.67,
      "tD": 0.65,
      "mode": "C#_dorian",
      "bpm": 100,
      "arc": 0.619,
      "ent": 2867,
      "brk": 1,
      "frameMs": 16.9
    },
    {
      "t": 1606.9,
      "rD": 0.84,
      "hC": 0.87,
      "mA": 0.67,
      "tD": 0.64,
      "mode": "C#_dorian",
      "bpm": 100,
      "arc": 0.62,
      "ent": 2765,
      "brk": 1,
      "frameMs": 16.5
    },
    {
      "t": 1607.9,
      "rD": 0.83,
      "hC": 0.86,
      "mA": 0.66,
      "tD": 0.63,
      "mode": "C#_dorian",
      "bpm": 100,
      "arc": 0.62,
      "ent": 2625,
      "brk": 1,
      "frameMs": 25
    },
    {
      "t": 1608.9,
      "rD": 0.82,
      "hC": 0.85,
      "mA": 0.66,
      "tD": 0.63,
      "mode": "C#_dorian",
      "bpm": 100,
      "arc": 0.621,
      "ent": 2466,
      "brk": 1,
      "frameMs": 23.9
    },
    {
      "t": 1609.9,
      "rD": 0.82,
      "hC": 0.85,
      "mA": 0.66,
      "tD": 0.62,
      "mode": "C#_dorian",
      "bpm": 100,
      "arc": 0.621,
      "ent": 2434,
      "brk": 0,
      "frameMs": 25.1
    },
    {
      "t": 1611,
      "rD": 0.82,
      "hC": 0.85,
      "mA": 0.66,
      "tD": 0.62,
      "mode": "C#_dorian",
      "bpm": 100,
      "arc": 0.621,
      "ent": 2395,
      "brk": 0,
      "frameMs": 16.7
    },
    {
      "t": 1612,
      "rD": 0.82,
      "hC": 0.85,
      "mA": 0.66,
      "tD": 0.62,
      "mode": "C#_dorian",
      "bpm": 100,
      "arc": 0.622,
      "ent": 2466,
      "brk": 0,
      "frameMs": 14.9
    },
    {
      "t": 1613,
      "rD": 0.82,
      "hC": 0.85,
      "mA": 0.66,
      "tD": 0.62,
      "mode": "C#_dorian",
      "bpm": 100,
      "arc": 0.622,
      "ent": 2510,
      "brk": 0,
      "frameMs": 16.6
    },
    {
      "t": 1614,
      "rD": 0.83,
      "hC": 0.85,
      "mA": 0.66,
      "tD": 0.63,
      "mode": "C#_dorian",
      "bpm": 100,
      "arc": 0.623,
      "ent": 2594,
      "brk": 0,
      "frameMs": 15.5
    },
    {
      "t": 1615,
      "rD": 0.84,
      "hC": 0.86,
      "mA": 0.67,
      "tD": 0.63,
      "mode": "C#_dorian",
      "bpm": 100,
      "arc": 0.623,
      "ent": 2700,
      "brk": 0,
      "frameMs": 17.7
    },
    {
      "t": 1616,
      "rD": 0.85,
      "hC": 0.87,
      "mA": 0.67,
      "tD": 0.64,
      "mode": "C#_dorian",
      "bpm": 100,
      "arc": 0.623,
      "ent": 2741,
      "brk": 0,
      "frameMs": 8.4
    },
    {
      "t": 1617,
      "rD": 0.86,
      "hC": 0.88,
      "mA": 0.68,
      "tD": 0.65,
      "mode": "C#_dorian",
      "bpm": 100,
      "arc": 0.624,
      "ent": 2805,
      "brk": 0,
      "frameMs": 8.3
    },
    {
      "t": 1618,
      "rD": 0.88,
      "hC": 0.89,
      "mA": 0.69,
      "tD": 0.66,
      "mode": "C#_dorian",
      "bpm": 100,
      "arc": 0.624,
      "ent": 2817,
      "brk": 0,
      "frameMs": 16.8
    },
    {
      "t": 1619,
      "rD": 0.89,
      "hC": 0.9,
      "mA": 0.69,
      "tD": 0.67,
      "mode": "C#_dorian",
      "bpm": 100,
      "arc": 0.625,
      "ent": 2877,
      "brk": 0,
      "frameMs": 7.8
    },
    {
      "t": 1620,
      "rD": 0.9,
      "hC": 0.9,
      "mA": 0.7,
      "tD": 0.68,
      "mode": "C#_dorian",
      "bpm": 100,
      "arc": 0.625,
      "ent": 2826,
      "brk": 0,
      "frameMs": 17
    },
    {
      "t": 1621,
      "rD": 0.91,
      "hC": 0.91,
      "mA": 0.71,
      "tD": 0.69,
      "mode": "C#_dorian",
      "bpm": 100,
      "arc": 0.625,
      "ent": 2828,
      "brk": 0,
      "frameMs": 25.5
    },
    {
      "t": 1622,
      "rD": 0.92,
      "hC": 0.92,
      "mA": 0.71,
      "tD": 0.7,
      "mode": "C#_dorian",
      "bpm": 100,
      "arc": 0.626,
      "ent": 2827,
      "brk": 0,
      "frameMs": 17.4
    },
    {
      "t": 1623,
      "rD": 0.92,
      "hC": 0.92,
      "mA": 0.71,
      "tD": 0.7,
      "mode": "C#_dorian",
      "bpm": 100,
      "arc": 0.626,
      "ent": 2776,
      "brk": 0,
      "frameMs": 8
    },
    {
      "t": 1624,
      "rD": 0.92,
      "hC": 0.92,
      "mA": 0.71,
      "tD": 0.7,
      "mode": "C#_dorian",
      "bpm": 100,
      "arc": 0.627,
      "ent": 2744,
      "brk": 0,
      "frameMs": 15.9
    },
    {
      "t": 1625.1,
      "rD": 0.92,
      "hC": 0.91,
      "mA": 0.71,
      "tD": 0.69,
      "mode": "C#_dorian",
      "bpm": 100,
      "arc": 0.627,
      "ent": 2738,
      "brk": 0,
      "frameMs": 16.7
    },
    {
      "t": 1626.1,
      "rD": 0.91,
      "hC": 0.91,
      "mA": 0.71,
      "tD": 0.69,
      "mode": "C#_dorian",
      "bpm": 100,
      "arc": 0.627,
      "ent": 2767,
      "brk": 0,
      "frameMs": 16.7
    },
    {
      "t": 1627.1,
      "rD": 0.9,
      "hC": 0.9,
      "mA": 0.7,
      "tD": 0.68,
      "mode": "C#_dorian",
      "bpm": 100,
      "arc": 0.628,
      "ent": 2733,
      "brk": 0,
      "frameMs": 16.3
    },
    {
      "t": 1628.1,
      "rD": 0.89,
      "hC": 0.89,
      "mA": 0.7,
      "tD": 0.67,
      "mode": "C#_dorian",
      "bpm": 100,
      "arc": 0.628,
      "ent": 2711,
      "brk": 0,
      "frameMs": 16.9
    },
    {
      "t": 1629.1,
      "rD": 0.88,
      "hC": 0.88,
      "mA": 0.69,
      "tD": 0.66,
      "mode": "C#_dorian",
      "bpm": 100,
      "arc": 0.628,
      "ent": 2812,
      "brk": 0,
      "frameMs": 9.2
    },
    {
      "t": 1630.1,
      "rD": 0.87,
      "hC": 0.88,
      "mA": 0.69,
      "tD": 0.65,
      "mode": "C#_dorian",
      "bpm": 100,
      "arc": 0.629,
      "ent": 2793,
      "brk": 0,
      "frameMs": 15.9
    },
    {
      "t": 1631.1,
      "rD": 0.86,
      "hC": 0.87,
      "mA": 0.68,
      "tD": 0.64,
      "mode": "C#_dorian",
      "bpm": 100,
      "arc": 0.629,
      "ent": 2828,
      "brk": 0,
      "frameMs": 16.6
    },
    {
      "t": 1632.1,
      "rD": 0.85,
      "hC": 0.86,
      "mA": 0.68,
      "tD": 0.64,
      "mode": "C#_dorian",
      "bpm": 100,
      "arc": 0.63,
      "ent": 2805,
      "brk": 0,
      "frameMs": 15
    },
    {
      "t": 1633.1,
      "rD": 0.84,
      "hC": 0.86,
      "mA": 0.67,
      "tD": 0.63,
      "mode": "C#_dorian",
      "bpm": 100,
      "arc": 0.63,
      "ent": 2844,
      "brk": 0,
      "frameMs": 17.1
    },
    {
      "t": 1634.1,
      "rD": 0.84,
      "hC": 0.86,
      "mA": 0.67,
      "tD": 0.63,
      "mode": "C#_dorian",
      "bpm": 100,
      "arc": 0.63,
      "ent": 2817,
      "brk": 0,
      "frameMs": 8.4
    },
    {
      "t": 1635.1,
      "rD": 0.84,
      "hC": 0.86,
      "mA": 0.67,
      "tD": 0.63,
      "mode": "C#_dorian",
      "bpm": 100,
      "arc": 0.631,
      "ent": 2871,
      "brk": 0,
      "frameMs": 16.7
    },
    {
      "t": 1636.2,
      "rD": 0.85,
      "hC": 0.86,
      "mA": 0.68,
      "tD": 0.63,
      "mode": "C#_dorian",
      "bpm": 100,
      "arc": 0.631,
      "ent": 2809,
      "brk": 0,
      "frameMs": 8.2
    },
    {
      "t": 1637.2,
      "rD": 0.85,
      "hC": 0.86,
      "mA": 0.68,
      "tD": 0.64,
      "mode": "C#_dorian",
      "bpm": 100,
      "arc": 0.632,
      "ent": 2811,
      "brk": 0,
      "frameMs": 6.7
    },
    {
      "t": 1638.2,
      "rD": 0.86,
      "hC": 0.87,
      "mA": 0.69,
      "tD": 0.65,
      "mode": "C#_dorian",
      "bpm": 100,
      "arc": 0.632,
      "ent": 2754,
      "brk": 0,
      "frameMs": 16.7
    },
    {
      "t": 1639.2,
      "rD": 0.88,
      "hC": 0.88,
      "mA": 0.69,
      "tD": 0.66,
      "mode": "C#_dorian",
      "bpm": 100,
      "arc": 0.632,
      "ent": 2705,
      "brk": 0,
      "frameMs": 16.7
    },
    {
      "t": 1640.2,
      "rD": 0.89,
      "hC": 0.89,
      "mA": 0.7,
      "tD": 0.67,
      "mode": "C#_dorian",
      "bpm": 100,
      "arc": 0.633,
      "ent": 2728,
      "brk": 0,
      "frameMs": 16.6
    },
    {
      "t": 1641.2,
      "rD": 0.9,
      "hC": 0.9,
      "mA": 0.71,
      "tD": 0.68,
      "mode": "C#_dorian",
      "bpm": 100,
      "arc": 0.633,
      "ent": 2717,
      "brk": 0,
      "frameMs": 17.5
    },
    {
      "t": 1642.2,
      "rD": 0.92,
      "hC": 0.91,
      "mA": 0.71,
      "tD": 0.69,
      "mode": "C#_dorian",
      "bpm": 100,
      "arc": 0.634,
      "ent": 2646,
      "brk": 0,
      "frameMs": 16.8
    },
    {
      "t": 1643.2,
      "rD": 0.93,
      "hC": 0.91,
      "mA": 0.72,
      "tD": 0.7,
      "mode": "C#_dorian",
      "bpm": 100,
      "arc": 0.634,
      "ent": 2654,
      "brk": 0,
      "frameMs": 16.1
    },
    {
      "t": 1644.2,
      "rD": 0.94,
      "hC": 0.92,
      "mA": 0.72,
      "tD": 0.7,
      "mode": "C#_dorian",
      "bpm": 100,
      "arc": 0.634,
      "ent": 2688,
      "brk": 0,
      "frameMs": 8.6
    },
    {
      "t": 1645.2,
      "rD": 0.94,
      "hC": 0.92,
      "mA": 0.73,
      "tD": 0.71,
      "mode": "C#_dorian",
      "bpm": 100,
      "arc": 0.635,
      "ent": 2782,
      "brk": 0,
      "frameMs": 16.6
    },
    {
      "t": 1646.2,
      "rD": 0.95,
      "hC": 0.93,
      "mA": 0.73,
      "tD": 0.71,
      "mode": "C#_dorian",
      "bpm": 100,
      "arc": 0.635,
      "ent": 2796,
      "brk": 0,
      "frameMs": 8.9
    },
    {
      "t": 1647.2,
      "rD": 0.94,
      "hC": 0.92,
      "mA": 0.73,
      "tD": 0.71,
      "mode": "C#_dorian",
      "bpm": 100,
      "arc": 0.635,
      "ent": 2795,
      "brk": 0,
      "frameMs": 8.3
    },
    {
      "t": 1648.2,
      "rD": 0.94,
      "hC": 0.92,
      "mA": 0.73,
      "tD": 0.7,
      "mode": "C#_dorian",
      "bpm": 100,
      "arc": 0.636,
      "ent": 2806,
      "brk": 0,
      "frameMs": 17.4
    },
    {
      "t": 1649.2,
      "rD": 0.93,
      "hC": 0.92,
      "mA": 0.72,
      "tD": 0.7,
      "mode": "C#_dorian",
      "bpm": 100,
      "arc": 0.636,
      "ent": 2764,
      "brk": 0,
      "frameMs": 8.3
    },
    {
      "t": 1650.3,
      "rD": 0.92,
      "hC": 0.91,
      "mA": 0.72,
      "tD": 0.69,
      "mode": "C#_dorian",
      "bpm": 100,
      "arc": 0.637,
      "ent": 2768,
      "brk": 0,
      "frameMs": 8.3
    },
    {
      "t": 1651.3,
      "rD": 0.91,
      "hC": 0.9,
      "mA": 0.71,
      "tD": 0.68,
      "mode": "C#_dorian",
      "bpm": 100,
      "arc": 0.637,
      "ent": 2765,
      "brk": 0,
      "frameMs": 8.3
    },
    {
      "t": 1652.3,
      "rD": 0.9,
      "hC": 0.89,
      "mA": 0.71,
      "tD": 0.67,
      "mode": "C#_dorian",
      "bpm": 100,
      "arc": 0.637,
      "ent": 2678,
      "brk": 0,
      "frameMs": 16.7
    },
    {
      "t": 1653.3,
      "rD": 0.89,
      "hC": 0.88,
      "mA": 0.7,
      "tD": 0.66,
      "mode": "C#_dorian",
      "bpm": 100,
      "arc": 0.638,
      "ent": 2691,
      "brk": 1,
      "frameMs": 16.8
    },
    {
      "t": 1654.3,
      "rD": 0.88,
      "hC": 0.87,
      "mA": 0.7,
      "tD": 0.65,
      "mode": "C#_dorian",
      "bpm": 100,
      "arc": 0.638,
      "ent": 2680,
      "brk": 1,
      "frameMs": 23.8
    },
    {
      "t": 1655.3,
      "rD": 0.87,
      "hC": 0.87,
      "mA": 0.69,
      "tD": 0.64,
      "mode": "C#_dorian",
      "bpm": 100,
      "arc": 0.639,
      "ent": 2626,
      "brk": 1,
      "frameMs": 16.7
    },
    {
      "t": 1656.3,
      "rD": 0.86,
      "hC": 0.86,
      "mA": 0.69,
      "tD": 0.64,
      "mode": "C#_dorian",
      "bpm": 100,
      "arc": 0.639,
      "ent": 2596,
      "brk": 1,
      "frameMs": 25.1
    },
    {
      "t": 1657.3,
      "rD": 0.86,
      "hC": 0.86,
      "mA": 0.69,
      "tD": 0.64,
      "mode": "C#_dorian",
      "bpm": 100,
      "arc": 0.639,
      "ent": 2640,
      "brk": 1,
      "frameMs": 24.2
    },
    {
      "t": 1658.3,
      "rD": 0.86,
      "hC": 0.86,
      "mA": 0.69,
      "tD": 0.64,
      "mode": "C#_dorian",
      "bpm": 100,
      "arc": 0.64,
      "ent": 2589,
      "brk": 1,
      "frameMs": 15.4
    },
    {
      "t": 1659.3,
      "rD": 0.87,
      "hC": 0.87,
      "mA": 0.69,
      "tD": 0.64,
      "mode": "C#_dorian",
      "bpm": 100,
      "arc": 0.64,
      "ent": 2519,
      "brk": 1,
      "frameMs": 17.1
    },
    {
      "t": 1660.3,
      "rD": 0.87,
      "hC": 0.87,
      "mA": 0.69,
      "tD": 0.65,
      "mode": "C#_dorian",
      "bpm": 100,
      "arc": 0.641,
      "ent": 2525,
      "brk": 0,
      "frameMs": 24.9
    },
    {
      "t": 1661.3,
      "rD": 0.88,
      "hC": 0.88,
      "mA": 0.7,
      "tD": 0.65,
      "mode": "C#_dorian",
      "bpm": 100,
      "arc": 0.641,
      "ent": 2503,
      "brk": 0,
      "frameMs": 16.6
    },
    {
      "t": 1662.3,
      "rD": 0.9,
      "hC": 0.89,
      "mA": 0.71,
      "tD": 0.66,
      "mode": "C#_dorian",
      "bpm": 100,
      "arc": 0.641,
      "ent": 2574,
      "brk": 0,
      "frameMs": 16.6
    },
    {
      "t": 1663.3,
      "rD": 0.91,
      "hC": 0.9,
      "mA": 0.71,
      "tD": 0.68,
      "mode": "C#_dorian",
      "bpm": 100,
      "arc": 0.642,
      "ent": 2626,
      "brk": 0,
      "frameMs": 10
    },
    {
      "t": 1664.4,
      "rD": 0.92,
      "hC": 0.91,
      "mA": 0.72,
      "tD": 0.69,
      "mode": "C#_dorian",
      "bpm": 100,
      "arc": 0.642,
      "ent": 2710,
      "brk": 0,
      "frameMs": 17
    },
    {
      "t": 1665.4,
      "rD": 0.94,
      "hC": 0.91,
      "mA": 0.73,
      "tD": 0.7,
      "mode": "C#_dorian",
      "bpm": 100,
      "arc": 0.643,
      "ent": 2737,
      "brk": 0,
      "frameMs": 16.5
    },
    {
      "t": 1666.4,
      "rD": 0.95,
      "hC": 0.92,
      "mA": 0.73,
      "tD": 0.7,
      "mode": "C#_dorian",
      "bpm": 100,
      "arc": 0.643,
      "ent": 2805,
      "brk": 0,
      "frameMs": 16.4
    },
    {
      "t": 1667.4,
      "rD": 0.95,
      "hC": 0.93,
      "mA": 0.74,
      "tD": 0.71,
      "mode": "C#_dorian",
      "bpm": 100,
      "arc": 0.643,
      "ent": 2787,
      "brk": 0,
      "frameMs": 15.4
    },
    {
      "t": 1668.4,
      "rD": 0.96,
      "hC": 0.93,
      "mA": 0.74,
      "tD": 0.71,
      "mode": "C#_dorian",
      "bpm": 100,
      "arc": 0.644,
      "ent": 2797,
      "brk": 0,
      "frameMs": 10
    },
    {
      "t": 1669.4,
      "rD": 0.96,
      "hC": 0.93,
      "mA": 0.74,
      "tD": 0.72,
      "mode": "C#_dorian",
      "bpm": 100,
      "arc": 0.644,
      "ent": 2771,
      "brk": 0,
      "frameMs": 16.2
    },
    {
      "t": 1670.4,
      "rD": 0.96,
      "hC": 0.93,
      "mA": 0.74,
      "tD": 0.71,
      "mode": "C#_dorian",
      "bpm": 100,
      "arc": 0.644,
      "ent": 2737,
      "brk": 0,
      "frameMs": 7.5
    },
    {
      "t": 1671.4,
      "rD": 0.95,
      "hC": 0.93,
      "mA": 0.74,
      "tD": 0.71,
      "mode": "C#_dorian",
      "bpm": 100,
      "arc": 0.645,
      "ent": 2733,
      "brk": 0,
      "frameMs": 16.7
    },
    {
      "t": 1672.4,
      "rD": 0.95,
      "hC": 0.92,
      "mA": 0.73,
      "tD": 0.7,
      "mode": "C#_dorian",
      "bpm": 100,
      "arc": 0.645,
      "ent": 2740,
      "brk": 0,
      "frameMs": 16.7
    },
    {
      "t": 1673.4,
      "rD": 0.93,
      "hC": 0.91,
      "mA": 0.73,
      "tD": 0.69,
      "mode": "C#_dorian",
      "bpm": 100,
      "arc": 0.646,
      "ent": 2755,
      "brk": 0,
      "frameMs": 17
    },
    {
      "t": 1674.4,
      "rD": 0.92,
      "hC": 0.9,
      "mA": 0.72,
      "tD": 0.68,
      "mode": "C#_dorian",
      "bpm": 100,
      "arc": 0.646,
      "ent": 2760,
      "brk": 0,
      "frameMs": 8
    },
    {
      "t": 1675.4,
      "rD": 0.91,
      "hC": 0.89,
      "mA": 0.71,
      "tD": 0.67,
      "mode": "C#_dorian",
      "bpm": 100,
      "arc": 0.646,
      "ent": 2735,
      "brk": 0,
      "frameMs": 10.2
    },
    {
      "t": 1676.4,
      "rD": 0.9,
      "hC": 0.89,
      "mA": 0.71,
      "tD": 0.66,
      "mode": "C#_dorian",
      "bpm": 100,
      "arc": 0.647,
      "ent": 2753,
      "brk": 0,
      "frameMs": 18.5
    },
    {
      "t": 1677.4,
      "rD": 0.89,
      "hC": 0.88,
      "mA": 0.7,
      "tD": 0.65,
      "mode": "C#_dorian",
      "bpm": 100,
      "arc": 0.647,
      "ent": 2677,
      "brk": 0,
      "frameMs": 7.9
    },
    {
      "t": 1678.5,
      "rD": 0.88,
      "hC": 0.87,
      "mA": 0.7,
      "tD": 0.65,
      "mode": "C#_dorian",
      "bpm": 100,
      "arc": 0.648,
      "ent": 2673,
      "brk": 0,
      "frameMs": 8
    },
    {
      "t": 1679.5,
      "rD": 0.87,
      "hC": 0.87,
      "mA": 0.7,
      "tD": 0.64,
      "mode": "C#_dorian",
      "bpm": 100,
      "arc": 0.648,
      "ent": 2709,
      "brk": 0,
      "frameMs": 16.6
    },
    {
      "t": 1680.5,
      "rD": 0.87,
      "hC": 0.87,
      "mA": 0.7,
      "tD": 0.64,
      "mode": "C#_dorian",
      "bpm": 100,
      "arc": 0.648,
      "ent": 2752,
      "brk": 0,
      "frameMs": 8.5
    },
    {
      "t": 1681.5,
      "rD": 0.87,
      "hC": 0.87,
      "mA": 0.7,
      "tD": 0.64,
      "mode": "C#_dorian",
      "bpm": 100,
      "arc": 0.649,
      "ent": 2760,
      "brk": 0,
      "frameMs": 8.4
    },
    {
      "t": 1682.5,
      "rD": 0.88,
      "hC": 0.87,
      "mA": 0.7,
      "tD": 0.65,
      "mode": "C#_dorian",
      "bpm": 100,
      "arc": 0.649,
      "ent": 2769,
      "brk": 0,
      "frameMs": 8.4
    },
    {
      "t": 1683.5,
      "rD": 0.88,
      "hC": 0.88,
      "mA": 0.7,
      "tD": 0.65,
      "mode": "C#_dorian",
      "bpm": 100,
      "arc": 0.65,
      "ent": 2737,
      "brk": 0,
      "frameMs": 16.3
    },
    {
      "t": 1684.5,
      "rD": 0.9,
      "hC": 0.88,
      "mA": 0.71,
      "tD": 0.66,
      "mode": "C#_dorian",
      "bpm": 100,
      "arc": 0.65,
      "ent": 2715,
      "brk": 0,
      "frameMs": 8.1
    },
    {
      "t": 1685.5,
      "rD": 0.91,
      "hC": 0.89,
      "mA": 0.71,
      "tD": 0.67,
      "mode": "C#_dorian",
      "bpm": 100,
      "arc": 0.65,
      "ent": 2765,
      "brk": 0,
      "frameMs": 15.1
    },
    {
      "t": 1686.5,
      "rD": 0.92,
      "hC": 0.9,
      "mA": 0.72,
      "tD": 0.68,
      "mode": "C#_dorian",
      "bpm": 100,
      "arc": 0.651,
      "ent": 2765,
      "brk": 0,
      "frameMs": 16.5
    },
    {
      "t": 1687.5,
      "rD": 0.92,
      "hC": 0.91,
      "mA": 0.73,
      "tD": 0.69,
      "mode": "C#_dorian",
      "bpm": 100,
      "arc": 0.651,
      "ent": 2812,
      "brk": 0,
      "frameMs": 8.3
    },
    {
      "t": 1688.5,
      "rD": 0.92,
      "hC": 0.92,
      "mA": 0.73,
      "tD": 0.7,
      "mode": "C#_dorian",
      "bpm": 100,
      "arc": 0.651,
      "ent": 2812,
      "brk": 0,
      "frameMs": 16.5
    },
    {
      "t": 1689.5,
      "rD": 0.92,
      "hC": 0.92,
      "mA": 0.74,
      "tD": 0.71,
      "mode": "C#_dorian",
      "bpm": 100,
      "arc": 0.652,
      "ent": 2782,
      "brk": 0,
      "frameMs": 8.3
    },
    {
      "t": 1690.5,
      "rD": 0.92,
      "hC": 0.93,
      "mA": 0.74,
      "tD": 0.71,
      "mode": "C#_dorian",
      "bpm": 100,
      "arc": 0.652,
      "ent": 2778,
      "brk": 0,
      "frameMs": 16.7
    },
    {
      "t": 1691.5,
      "rD": 0.92,
      "hC": 0.93,
      "mA": 0.74,
      "tD": 0.72,
      "mode": "C#_dorian",
      "bpm": 100,
      "arc": 0.653,
      "ent": 2734,
      "brk": 0,
      "frameMs": 16.1
    },
    {
      "t": 1692.5,
      "rD": 0.91,
      "hC": 0.93,
      "mA": 0.74,
      "tD": 0.72,
      "mode": "C#_dorian",
      "bpm": 100,
      "arc": 0.653,
      "ent": 2745,
      "brk": 0,
      "frameMs": 8.3
    },
    {
      "t": 1693.5,
      "rD": 0.91,
      "hC": 0.93,
      "mA": 0.74,
      "tD": 0.71,
      "mode": "C#_dorian",
      "bpm": 100,
      "arc": 0.653,
      "ent": 2780,
      "brk": 0,
      "frameMs": 16.7
    },
    {
      "t": 1694.5,
      "rD": 0.91,
      "hC": 0.92,
      "mA": 0.74,
      "tD": 0.71,
      "mode": "C#_dorian",
      "bpm": 100,
      "arc": 0.654,
      "ent": 2775,
      "brk": 0,
      "frameMs": 8.2
    },
    {
      "t": 1695.5,
      "rD": 0.91,
      "hC": 0.92,
      "mA": 0.73,
      "tD": 0.7,
      "mode": "C#_dorian",
      "bpm": 100,
      "arc": 0.654,
      "ent": 2818,
      "brk": 0,
      "frameMs": 16.7
    },
    {
      "t": 1696.5,
      "rD": 0.9,
      "hC": 0.91,
      "mA": 0.72,
      "tD": 0.69,
      "mode": "C#_dorian",
      "bpm": 100,
      "arc": 0.655,
      "ent": 2880,
      "brk": 0,
      "frameMs": 16.7
    },
    {
      "t": 1697.6,
      "rD": 0.9,
      "hC": 0.9,
      "mA": 0.72,
      "tD": 0.68,
      "mode": "C#_dorian",
      "bpm": 100,
      "arc": 0.655,
      "ent": 2919,
      "brk": 0,
      "frameMs": 17.3
    },
    {
      "t": 1698.6,
      "rD": 0.9,
      "hC": 0.89,
      "mA": 0.71,
      "tD": 0.67,
      "mode": "C#_dorian",
      "bpm": 100,
      "arc": 0.655,
      "ent": 2891,
      "brk": 0,
      "frameMs": 16.6
    },
    {
      "t": 1699.6,
      "rD": 0.89,
      "hC": 0.88,
      "mA": 0.7,
      "tD": 0.66,
      "mode": "C#_dorian",
      "bpm": 100,
      "arc": 0.656,
      "ent": 2923,
      "brk": 0,
      "frameMs": 15
    },
    {
      "t": 1700.6,
      "rD": 0.89,
      "hC": 0.87,
      "mA": 0.69,
      "tD": 0.65,
      "mode": "C#_dorian",
      "bpm": 100,
      "arc": 0.656,
      "ent": 2874,
      "brk": 0,
      "frameMs": 16.5
    },
    {
      "t": 1701.6,
      "rD": 0.88,
      "hC": 0.86,
      "mA": 0.69,
      "tD": 0.64,
      "mode": "C#_dorian",
      "bpm": 100,
      "arc": 0.657,
      "ent": 2887,
      "brk": 0,
      "frameMs": 9.9
    },
    {
      "t": 1702.6,
      "rD": 0.88,
      "hC": 0.85,
      "mA": 0.68,
      "tD": 0.63,
      "mode": "C#_dorian",
      "bpm": 100,
      "arc": 0.657,
      "ent": 2888,
      "brk": 0,
      "frameMs": 16.9
    },
    {
      "t": 1703.6,
      "rD": 0.87,
      "hC": 0.85,
      "mA": 0.68,
      "tD": 0.63,
      "mode": "C#_dorian",
      "bpm": 100,
      "arc": 0.657,
      "ent": 2838,
      "brk": 0,
      "frameMs": 7.9
    },
    {
      "t": 1704.6,
      "rD": 0.87,
      "hC": 0.85,
      "mA": 0.68,
      "tD": 0.63,
      "mode": "C#_dorian",
      "bpm": 100,
      "arc": 0.658,
      "ent": 2830,
      "brk": 0,
      "frameMs": 16.9
    },
    {
      "t": 1705.6,
      "rD": 0.86,
      "hC": 0.85,
      "mA": 0.68,
      "tD": 0.63,
      "mode": "C#_dorian",
      "bpm": 100,
      "arc": 0.658,
      "ent": 2836,
      "brk": 0,
      "frameMs": 8.6
    },
    {
      "t": 1706.6,
      "rD": 0.86,
      "hC": 0.85,
      "mA": 0.68,
      "tD": 0.64,
      "mode": "C#_dorian",
      "bpm": 100,
      "arc": 0.659,
      "ent": 2811,
      "brk": 0,
      "frameMs": 8.4
    },
    {
      "t": 1707.6,
      "rD": 0.85,
      "hC": 0.86,
      "mA": 0.68,
      "tD": 0.64,
      "mode": "C#_dorian",
      "bpm": 100,
      "arc": 0.659,
      "ent": 2797,
      "brk": 0,
      "frameMs": 17
    },
    {
      "t": 1708.6,
      "rD": 0.84,
      "hC": 0.86,
      "mA": 0.68,
      "tD": 0.65,
      "mode": "C#_dorian",
      "bpm": 100,
      "arc": 0.659,
      "ent": 2802,
      "brk": 0,
      "frameMs": 7.5
    },
    {
      "t": 1709.6,
      "rD": 0.84,
      "hC": 0.87,
      "mA": 0.69,
      "tD": 0.66,
      "mode": "C#_dorian",
      "bpm": 100,
      "arc": 0.66,
      "ent": 2832,
      "brk": 0,
      "frameMs": 7.3
    },
    {
      "t": 1710.6,
      "rD": 0.83,
      "hC": 0.88,
      "mA": 0.69,
      "tD": 0.67,
      "mode": "C#_dorian",
      "bpm": 100,
      "arc": 0.66,
      "ent": 2852,
      "brk": 0,
      "frameMs": 16.6
    },
    {
      "t": 1711.6,
      "rD": 0.82,
      "hC": 0.88,
      "mA": 0.69,
      "tD": 0.67,
      "mode": "C#_dorian",
      "bpm": 100,
      "arc": 0.66,
      "ent": 2736,
      "brk": 0,
      "frameMs": 7.3
    },
    {
      "t": 1712.6,
      "rD": 0.82,
      "hC": 0.88,
      "mA": 0.69,
      "tD": 0.68,
      "mode": "C#_dorian",
      "bpm": 100,
      "arc": 0.661,
      "ent": 2783,
      "brk": 0,
      "frameMs": 8.4
    },
    {
      "t": 1713.7,
      "rD": 0.81,
      "hC": 0.88,
      "mA": 0.69,
      "tD": 0.68,
      "mode": "C#_dorian",
      "bpm": 100,
      "arc": 0.661,
      "ent": 2751,
      "brk": 0,
      "frameMs": 16.6
    },
    {
      "t": 1714.7,
      "rD": 0.8,
      "hC": 0.88,
      "mA": 0.69,
      "tD": 0.68,
      "mode": "C#_dorian",
      "bpm": 100,
      "arc": 0.662,
      "ent": 2762,
      "brk": 0,
      "frameMs": 15.2
    },
    {
      "t": 1715.7,
      "rD": 0.79,
      "hC": 0.88,
      "mA": 0.69,
      "tD": 0.68,
      "mode": "C#_dorian",
      "bpm": 100,
      "arc": 0.662,
      "ent": 2769,
      "brk": 0,
      "frameMs": 16.1
    },
    {
      "t": 1716.7,
      "rD": 0.78,
      "hC": 0.87,
      "mA": 0.68,
      "tD": 0.67,
      "mode": "C#_dorian",
      "bpm": 100,
      "arc": 0.662,
      "ent": 2767,
      "brk": 0,
      "frameMs": 8.3
    },
    {
      "t": 1717.7,
      "rD": 0.78,
      "hC": 0.86,
      "mA": 0.67,
      "tD": 0.66,
      "mode": "C#_dorian",
      "bpm": 100,
      "arc": 0.663,
      "ent": 2753,
      "brk": 0,
      "frameMs": 8.4
    },
    {
      "t": 1718.7,
      "rD": 0.77,
      "hC": 0.85,
      "mA": 0.66,
      "tD": 0.65,
      "mode": "C#_dorian",
      "bpm": 100,
      "arc": 0.663,
      "ent": 2770,
      "brk": 0,
      "frameMs": 8.3
    },
    {
      "t": 1719.7,
      "rD": 0.76,
      "hC": 0.84,
      "mA": 0.65,
      "tD": 0.64,
      "mode": "C#_dorian",
      "bpm": 100,
      "arc": 0.664,
      "ent": 2878,
      "brk": 0,
      "frameMs": 8.3
    },
    {
      "t": 1720.7,
      "rD": 0.75,
      "hC": 0.83,
      "mA": 0.64,
      "tD": 0.63,
      "mode": "C#_dorian",
      "bpm": 100,
      "arc": 0.664,
      "ent": 2833,
      "brk": 0,
      "frameMs": 16.5
    },
    {
      "t": 1721.7,
      "rD": 0.74,
      "hC": 0.81,
      "mA": 0.63,
      "tD": 0.61,
      "mode": "C#_dorian",
      "bpm": 100,
      "arc": 0.664,
      "ent": 2817,
      "brk": 0,
      "frameMs": 16.4
    },
    {
      "t": 1722.7,
      "rD": 0.73,
      "hC": 0.8,
      "mA": 0.62,
      "tD": 0.6,
      "mode": "C#_dorian",
      "bpm": 100,
      "arc": 0.665,
      "ent": 2801,
      "brk": 0,
      "frameMs": 10.3
    },
    {
      "t": 1723.7,
      "rD": 0.72,
      "hC": 0.79,
      "mA": 0.61,
      "tD": 0.59,
      "mode": "C#_dorian",
      "bpm": 100,
      "arc": 0.665,
      "ent": 2755,
      "brk": 0,
      "frameMs": 7.9
    },
    {
      "t": 1724.7,
      "rD": 0.71,
      "hC": 0.78,
      "mA": 0.6,
      "tD": 0.58,
      "mode": "C#_dorian",
      "bpm": 100,
      "arc": 0.666,
      "ent": 2722,
      "brk": 0,
      "frameMs": 8.2
    },
    {
      "t": 1725.7,
      "rD": 0.7,
      "hC": 0.77,
      "mA": 0.59,
      "tD": 0.57,
      "mode": "C#_dorian",
      "bpm": 100,
      "arc": 0.666,
      "ent": 2706,
      "brk": 0,
      "frameMs": 18.2
    },
    {
      "t": 1726.7,
      "rD": 0.69,
      "hC": 0.76,
      "mA": 0.59,
      "tD": 0.56,
      "mode": "C#_dorian",
      "bpm": 100,
      "arc": 0.666,
      "ent": 2699,
      "brk": 0,
      "frameMs": 8.4
    },
    {
      "t": 1727.7,
      "rD": 0.68,
      "hC": 0.76,
      "mA": 0.58,
      "tD": 0.56,
      "mode": "C#_dorian",
      "bpm": 100,
      "arc": 0.667,
      "ent": 2624,
      "brk": 0,
      "frameMs": 8.5
    },
    {
      "t": 1728.7,
      "rD": 0.67,
      "hC": 0.76,
      "mA": 0.58,
      "tD": 0.56,
      "mode": "C#_dorian",
      "bpm": 100,
      "arc": 0.667,
      "ent": 2615,
      "brk": 0,
      "frameMs": 16.4
    },
    {
      "t": 1729.7,
      "rD": 0.66,
      "hC": 0.76,
      "mA": 0.58,
      "tD": 0.56,
      "mode": "C#_dorian",
      "bpm": 100,
      "arc": 0.667,
      "ent": 2577,
      "brk": 0,
      "frameMs": 8.1
    },
    {
      "t": 1730.7,
      "rD": 0.65,
      "hC": 0.76,
      "mA": 0.58,
      "tD": 0.57,
      "mode": "C#_dorian",
      "bpm": 100,
      "arc": 0.668,
      "ent": 2292,
      "brk": 0,
      "frameMs": 8.5
    },
    {
      "t": 1731.8,
      "rD": 0.64,
      "hC": 0.76,
      "mA": 0.58,
      "tD": 0.57,
      "mode": "C#_dorian",
      "bpm": 100,
      "arc": 0.668,
      "ent": 1941,
      "brk": 0,
      "frameMs": 8.2
    },
    {
      "t": 1732.8,
      "rD": 0.63,
      "hC": 0.77,
      "mA": 0.58,
      "tD": 0.58,
      "mode": "C#_dorian",
      "bpm": 100,
      "arc": 0.669,
      "ent": 1630,
      "brk": 0,
      "frameMs": 8.4
    },
    {
      "t": 1733.8,
      "rD": 0.62,
      "hC": 0.77,
      "mA": 0.58,
      "tD": 0.59,
      "mode": "C#_dorian",
      "bpm": 100,
      "arc": 0.669,
      "ent": 1390,
      "brk": 0,
      "frameMs": 15
    },
    {
      "t": 1734.8,
      "rD": 0.61,
      "hC": 0.77,
      "mA": 0.58,
      "tD": 0.59,
      "mode": "C#_dorian",
      "bpm": 100,
      "arc": 0.669,
      "ent": 1169,
      "brk": 0,
      "frameMs": 17.6
    },
    {
      "t": 1735.8,
      "rD": 0.6,
      "hC": 0.77,
      "mA": 0.58,
      "tD": 0.59,
      "mode": "C#_dorian",
      "bpm": 100,
      "arc": 0.67,
      "ent": 1007,
      "brk": 0,
      "frameMs": 8.3
    },
    {
      "t": 1736.8,
      "rD": 0.58,
      "hC": 0.77,
      "mA": 0.58,
      "tD": 0.59,
      "mode": "C#_dorian",
      "bpm": 100,
      "arc": 0.67,
      "ent": 877,
      "brk": 0,
      "frameMs": 7.1
    },
    {
      "t": 1737.8,
      "rD": 0.57,
      "hC": 0.77,
      "mA": 0.57,
      "tD": 0.59,
      "mode": "C#_dorian",
      "bpm": 100,
      "arc": 0.671,
      "ent": 830,
      "brk": 0,
      "frameMs": 6.7
    },
    {
      "t": 1738.8,
      "rD": 0.56,
      "hC": 0.76,
      "mA": 0.57,
      "tD": 0.59,
      "mode": "C#_dorian",
      "bpm": 100,
      "arc": 0.671,
      "ent": 799,
      "brk": 0,
      "frameMs": 8.4
    },
    {
      "t": 1739.8,
      "rD": 0.55,
      "hC": 0.75,
      "mA": 0.56,
      "tD": 0.58,
      "mode": "C#_dorian",
      "bpm": 100,
      "arc": 0.671,
      "ent": 817,
      "brk": 0,
      "frameMs": 17.5
    },
    {
      "t": 1740.8,
      "rD": 0.54,
      "hC": 0.74,
      "mA": 0.55,
      "tD": 0.57,
      "mode": "C#_dorian",
      "bpm": 100,
      "arc": 0.672,
      "ent": 829,
      "brk": 0,
      "frameMs": 10.3
    },
    {
      "t": 1741.8,
      "rD": 0.53,
      "hC": 0.73,
      "mA": 0.54,
      "tD": 0.56,
      "mode": "C#_dorian",
      "bpm": 100,
      "arc": 0.672,
      "ent": 827,
      "brk": 0,
      "frameMs": 8.7
    },
    {
      "t": 1742.8,
      "rD": 0.52,
      "hC": 0.72,
      "mA": 0.52,
      "tD": 0.54,
      "mode": "C#_dorian",
      "bpm": 100,
      "arc": 0.673,
      "ent": 805,
      "brk": 0,
      "frameMs": 16.9
    },
    {
      "t": 1743.8,
      "rD": 0.51,
      "hC": 0.7,
      "mA": 0.51,
      "tD": 0.53,
      "mode": "C#_dorian",
      "bpm": 100,
      "arc": 0.673,
      "ent": 832,
      "brk": 0,
      "frameMs": 17.2
    },
    {
      "t": 1744.8,
      "rD": 0.49,
      "hC": 0.68,
      "mA": 0.5,
      "tD": 0.51,
      "mode": "C#_dorian",
      "bpm": 100,
      "arc": 0.673,
      "ent": 1124,
      "brk": 0,
      "frameMs": 16.8
    },
    {
      "t": 1745.8,
      "rD": 0.48,
      "hC": 0.67,
      "mA": 0.49,
      "tD": 0.5,
      "mode": "C#_dorian",
      "bpm": 100,
      "arc": 0.674,
      "ent": 1508,
      "brk": 0,
      "frameMs": 16.7
    },
    {
      "t": 1746.8,
      "rD": 0.47,
      "hC": 0.66,
      "mA": 0.48,
      "tD": 0.49,
      "mode": "C#_dorian",
      "bpm": 100,
      "arc": 0.674,
      "ent": 1758,
      "brk": 0,
      "frameMs": 8.4
    },
    {
      "t": 1747.8,
      "rD": 0.46,
      "hC": 0.65,
      "mA": 0.46,
      "tD": 0.48,
      "mode": "C#_dorian",
      "bpm": 100,
      "arc": 0.674,
      "ent": 2038,
      "brk": 0,
      "frameMs": 16.2
    },
    {
      "t": 1748.8,
      "rD": 0.45,
      "hC": 0.64,
      "mA": 0.46,
      "tD": 0.47,
      "mode": "C#_dorian",
      "bpm": 100,
      "arc": 0.675,
      "ent": 2175,
      "brk": 0,
      "frameMs": 16.8
    },
    {
      "t": 1749.8,
      "rD": 0.44,
      "hC": 0.63,
      "mA": 0.45,
      "tD": 0.46,
      "mode": "C#_dorian",
      "bpm": 100,
      "arc": 0.675,
      "ent": 2347,
      "brk": 0,
      "frameMs": 16.5
    },
    {
      "t": 1750.9,
      "rD": 0.43,
      "hC": 0.62,
      "mA": 0.44,
      "tD": 0.46,
      "mode": "C#_dorian",
      "bpm": 100,
      "arc": 0.676,
      "ent": 2472,
      "brk": 0,
      "frameMs": 8.4
    },
    {
      "t": 1751.9,
      "rD": 0.41,
      "hC": 0.62,
      "mA": 0.44,
      "tD": 0.46,
      "mode": "C#_dorian",
      "bpm": 100,
      "arc": 0.676,
      "ent": 2521,
      "brk": 0,
      "frameMs": 9.9
    },
    {
      "t": 1752.9,
      "rD": 0.4,
      "hC": 0.62,
      "mA": 0.44,
      "tD": 0.46,
      "mode": "C#_dorian",
      "bpm": 100,
      "arc": 0.676,
      "ent": 2511,
      "brk": 0,
      "frameMs": 8.3
    },
    {
      "t": 1753.9,
      "rD": 0.39,
      "hC": 0.62,
      "mA": 0.44,
      "tD": 0.46,
      "mode": "C#_dorian",
      "bpm": 100,
      "arc": 0.677,
      "ent": 2315,
      "brk": 0,
      "frameMs": 16.9
    },
    {
      "t": 1754.9,
      "rD": 0.38,
      "hC": 0.63,
      "mA": 0.44,
      "tD": 0.47,
      "mode": "C#_dorian",
      "bpm": 100,
      "arc": 0.677,
      "ent": 1904,
      "brk": 0,
      "frameMs": 7.9
    },
    {
      "t": 1755.9,
      "rD": 0.37,
      "hC": 0.63,
      "mA": 0.44,
      "tD": 0.48,
      "mode": "C#_dorian",
      "bpm": 100,
      "arc": 0.678,
      "ent": 1626,
      "brk": 0,
      "frameMs": 16.9
    },
    {
      "t": 1756.9,
      "rD": 0.36,
      "hC": 0.63,
      "mA": 0.44,
      "tD": 0.48,
      "mode": "C#_dorian",
      "bpm": 100,
      "arc": 0.678,
      "ent": 1327,
      "brk": 0,
      "frameMs": 18.3
    },
    {
      "t": 1757.9,
      "rD": 0.35,
      "hC": 0.63,
      "mA": 0.44,
      "tD": 0.49,
      "mode": "C#_dorian",
      "bpm": 100,
      "arc": 0.678,
      "ent": 1087,
      "brk": 0,
      "frameMs": 25.3
    },
    {
      "t": 1758.9,
      "rD": 0.34,
      "hC": 0.63,
      "mA": 0.43,
      "tD": 0.49,
      "mode": "C#_dorian",
      "bpm": 100,
      "arc": 0.679,
      "ent": 878,
      "brk": 0,
      "frameMs": 24.9
    },
    {
      "t": 1759.9,
      "rD": 0.32,
      "hC": 0.63,
      "mA": 0.43,
      "tD": 0.49,
      "mode": "C#_dorian",
      "bpm": 100,
      "arc": 0.679,
      "ent": 713,
      "brk": 0,
      "frameMs": 23.8
    },
    {
      "t": 1760.9,
      "rD": 0.31,
      "hC": 0.63,
      "mA": 0.43,
      "tD": 0.49,
      "mode": "C#_dorian",
      "bpm": 100,
      "arc": 0.68,
      "ent": 580,
      "brk": 0,
      "frameMs": 15.2
    },
    {
      "t": 1761.9,
      "rD": 0.3,
      "hC": 0.62,
      "mA": 0.42,
      "tD": 0.48,
      "mode": "C#_dorian",
      "bpm": 100,
      "arc": 0.68,
      "ent": 542,
      "brk": 0,
      "frameMs": 16.6
    },
    {
      "t": 1762.9,
      "rD": 0.29,
      "hC": 0.61,
      "mA": 0.41,
      "tD": 0.47,
      "mode": "C#_dorian",
      "bpm": 100,
      "arc": 0.68,
      "ent": 539,
      "brk": 0,
      "frameMs": 9.1
    },
    {
      "t": 1763.9,
      "rD": 0.28,
      "hC": 0.6,
      "mA": 0.4,
      "tD": 0.46,
      "mode": "C#_dorian",
      "bpm": 100,
      "arc": 0.681,
      "ent": 478,
      "brk": 0,
      "frameMs": 16.6
    },
    {
      "t": 1764.9,
      "rD": 0.27,
      "hC": 0.59,
      "mA": 0.39,
      "tD": 0.45,
      "mode": "C#_dorian",
      "bpm": 100,
      "arc": 0.681,
      "ent": 513,
      "brk": 0,
      "frameMs": 16.8
    },
    {
      "t": 1766,
      "rD": 0.26,
      "hC": 0.57,
      "mA": 0.38,
      "tD": 0.44,
      "mode": "C#_dorian",
      "bpm": 100,
      "arc": 0.682,
      "ent": 488,
      "brk": 0,
      "frameMs": 15.8
    },
    {
      "t": 1767,
      "rD": 0.25,
      "hC": 0.56,
      "mA": 0.36,
      "tD": 0.42,
      "mode": "C#_dorian",
      "bpm": 100,
      "arc": 0.682,
      "ent": 464,
      "brk": 0,
      "frameMs": 15.1
    },
    {
      "t": 1768,
      "rD": 0.24,
      "hC": 0.54,
      "mA": 0.35,
      "tD": 0.41,
      "mode": "C#_dorian",
      "bpm": 100,
      "arc": 0.682,
      "ent": 486,
      "brk": 0,
      "frameMs": 17.8
    },
    {
      "t": 1769,
      "rD": 0.23,
      "hC": 0.53,
      "mA": 0.34,
      "tD": 0.39,
      "mode": "C#_dorian",
      "bpm": 100,
      "arc": 0.683,
      "ent": 472,
      "brk": 0,
      "frameMs": 18.2
    },
    {
      "t": 1770,
      "rD": 0.22,
      "hC": 0.52,
      "mA": 0.33,
      "tD": 0.38,
      "mode": "C#_dorian",
      "bpm": 100,
      "arc": 0.683,
      "ent": 450,
      "brk": 0,
      "frameMs": 9.6
    },
    {
      "t": 1771,
      "rD": 0.21,
      "hC": 0.51,
      "mA": 0.32,
      "tD": 0.37,
      "mode": "C#_dorian",
      "bpm": 100,
      "arc": 0.683,
      "ent": 441,
      "brk": 0,
      "frameMs": 7.9
    },
    {
      "t": 1772,
      "rD": 0.2,
      "hC": 0.5,
      "mA": 0.31,
      "tD": 0.36,
      "mode": "C#_dorian",
      "bpm": 100,
      "arc": 0.684,
      "ent": 432,
      "brk": 0,
      "frameMs": 17
    },
    {
      "t": 1773,
      "rD": 0.19,
      "hC": 0.49,
      "mA": 0.31,
      "tD": 0.36,
      "mode": "C#_dorian",
      "bpm": 100,
      "arc": 0.684,
      "ent": 390,
      "brk": 0,
      "frameMs": 17.4
    },
    {
      "t": 1774,
      "rD": 0.18,
      "hC": 0.49,
      "mA": 0.3,
      "tD": 0.36,
      "mode": "C#_dorian",
      "bpm": 100,
      "arc": 0.685,
      "ent": 395,
      "brk": 0,
      "frameMs": 16.9
    },
    {
      "t": 1775,
      "rD": 0.17,
      "hC": 0.49,
      "mA": 0.3,
      "tD": 0.36,
      "mode": "C#_dorian",
      "bpm": 100,
      "arc": 0.685,
      "ent": 407,
      "brk": 0,
      "frameMs": 8.3
    },
    {
      "t": 1776,
      "rD": 0.16,
      "hC": 0.49,
      "mA": 0.3,
      "tD": 0.36,
      "mode": "C#_dorian",
      "bpm": 100,
      "arc": 0.685,
      "ent": 374,
      "brk": 0,
      "frameMs": 15.8
    },
    {
      "t": 1777,
      "rD": 0.15,
      "hC": 0.49,
      "mA": 0.3,
      "tD": 0.36,
      "mode": "C#_dorian",
      "bpm": 100,
      "arc": 0.686,
      "ent": 352,
      "brk": 0,
      "frameMs": 17.9
    },
    {
      "t": 1778,
      "rD": 0.14,
      "hC": 0.5,
      "mA": 0.3,
      "tD": 0.37,
      "mode": "C#_dorian",
      "bpm": 100,
      "arc": 0.686,
      "ent": 339,
      "brk": 1,
      "frameMs": 16.7
    },
    {
      "t": 1779,
      "rD": 0.14,
      "hC": 0.5,
      "mA": 0.3,
      "tD": 0.38,
      "mode": "C#_dorian",
      "bpm": 100,
      "arc": 0.687,
      "ent": 322,
      "brk": 1,
      "frameMs": 16.2
    },
    {
      "t": 1780.1,
      "rD": 0.13,
      "hC": 0.5,
      "mA": 0.3,
      "tD": 0.38,
      "mode": "C#_dorian",
      "bpm": 100,
      "arc": 0.687,
      "ent": 318,
      "brk": 1,
      "frameMs": 16.6
    },
    {
      "t": 1781.1,
      "rD": 0.12,
      "hC": 0.51,
      "mA": 0.3,
      "tD": 0.39,
      "mode": "C#_dorian",
      "bpm": 100,
      "arc": 0.687,
      "ent": 334,
      "brk": 1,
      "frameMs": 8.9
    },
    {
      "t": 1782.1,
      "rD": 0.11,
      "hC": 0.51,
      "mA": 0.3,
      "tD": 0.39,
      "mode": "C#_dorian",
      "bpm": 100,
      "arc": 0.688,
      "ent": 349,
      "brk": 1,
      "frameMs": 16.5
    },
    {
      "t": 1783.1,
      "rD": 0.1,
      "hC": 0.51,
      "mA": 0.3,
      "tD": 0.39,
      "mode": "C#_dorian",
      "bpm": 100,
      "arc": 0.688,
      "ent": 321,
      "brk": 1,
      "frameMs": 16.4
    },
    {
      "t": 1784.1,
      "rD": 0.1,
      "hC": 0.5,
      "mA": 0.3,
      "tD": 0.39,
      "mode": "C#_dorian",
      "bpm": 100,
      "arc": 0.689,
      "ent": 337,
      "brk": 1,
      "frameMs": 16.3
    },
    {
      "t": 1785.1,
      "rD": 0.09,
      "hC": 0.5,
      "mA": 0.29,
      "tD": 0.39,
      "mode": "C#_dorian",
      "bpm": 100,
      "arc": 0.689,
      "ent": 349,
      "brk": 0,
      "frameMs": 16.9
    },
    {
      "t": 1786.1,
      "rD": 0.08,
      "hC": 0.49,
      "mA": 0.28,
      "tD": 0.38,
      "mode": "C#_dorian",
      "bpm": 100,
      "arc": 0.689,
      "ent": 337,
      "brk": 0,
      "frameMs": 15.2
    },
    {
      "t": 1787.1,
      "rD": 0.08,
      "hC": 0.48,
      "mA": 0.28,
      "tD": 0.37,
      "mode": "C#_dorian",
      "bpm": 100,
      "arc": 0.69,
      "ent": 323,
      "brk": 0,
      "frameMs": 16.9
    },
    {
      "t": 1788.1,
      "rD": 0.07,
      "hC": 0.47,
      "mA": 0.27,
      "tD": 0.36,
      "mode": "C#_dorian",
      "bpm": 100,
      "arc": 0.69,
      "ent": 293,
      "brk": 0,
      "frameMs": 8.4
    },
    {
      "t": 1789.1,
      "rD": 0.06,
      "hC": 0.46,
      "mA": 0.26,
      "tD": 0.35,
      "mode": "C#_dorian",
      "bpm": 100,
      "arc": 0.69,
      "ent": 264,
      "brk": 0,
      "frameMs": 8.9
    },
    {
      "t": 1790.1,
      "rD": 0.06,
      "hC": 0.44,
      "mA": 0.25,
      "tD": 0.33,
      "mode": "C#_dorian",
      "bpm": 100,
      "arc": 0.691,
      "ent": 256,
      "brk": 0,
      "frameMs": 8.3
    },
    {
      "t": 1791.1,
      "rD": 0.05,
      "hC": 0.43,
      "mA": 0.24,
      "tD": 0.32,
      "mode": "C#_dorian",
      "bpm": 100,
      "arc": 0.691,
      "ent": 259,
      "brk": 0,
      "frameMs": 8.5
    },
    {
      "t": 1792.1,
      "rD": 0.05,
      "hC": 0.42,
      "mA": 0.23,
      "tD": 0.31,
      "mode": "C#_dorian",
      "bpm": 100,
      "arc": 0.692,
      "ent": 211,
      "brk": 0,
      "frameMs": 17
    },
    {
      "t": 1793.1,
      "rD": 0.04,
      "hC": 0.41,
      "mA": 0.22,
      "tD": 0.3,
      "mode": "C#_dorian",
      "bpm": 100,
      "arc": 0.692,
      "ent": 170,
      "brk": 0,
      "frameMs": 16.6
    },
    {
      "t": 1794.1,
      "rD": 0.04,
      "hC": 0.4,
      "mA": 0.21,
      "tD": 0.29,
      "mode": "C#_dorian",
      "bpm": 100,
      "arc": 0.692,
      "ent": 146,
      "brk": 0,
      "frameMs": 16.6
    },
    {
      "t": 1795.1,
      "rD": 0.03,
      "hC": 0.4,
      "mA": 0.21,
      "tD": 0.28,
      "mode": "C#_dorian",
      "bpm": 100,
      "arc": 0.693,
      "ent": 114,
      "brk": 0,
      "frameMs": 7.8
    },
    {
      "t": 1796.2,
      "rD": 0.03,
      "hC": 0.39,
      "mA": 0.2,
      "tD": 0.28,
      "mode": "C#_dorian",
      "bpm": 100,
      "arc": 0.693,
      "ent": 84,
      "brk": 0,
      "frameMs": 15.3
    },
    {
      "t": 1797.2,
      "rD": 0.02,
      "hC": 0.39,
      "mA": 0.2,
      "tD": 0.28,
      "mode": "C#_dorian",
      "bpm": 100,
      "arc": 0.694,
      "ent": 58,
      "brk": 0,
      "frameMs": 8.3
    },
    {
      "t": 1798.2,
      "rD": 0.02,
      "hC": 0.39,
      "mA": 0.2,
      "tD": 0.29,
      "mode": "C#_dorian",
      "bpm": 100,
      "arc": 0.694,
      "ent": 54,
      "brk": 0,
      "frameMs": 8.7
    },
    {
      "t": 1799.2,
      "rD": 0.02,
      "hC": 0.4,
      "mA": 0.2,
      "tD": 0.29,
      "mode": "C#_dorian",
      "bpm": 100,
      "arc": 0.694,
      "ent": 43,
      "brk": 0,
      "frameMs": 16.1
    },
    {
      "t": 1800.2,
      "rD": 0.01,
      "hC": 0.4,
      "mA": 0.21,
      "tD": 0.3,
      "mode": "C#_dorian",
      "bpm": 100,
      "arc": 0.695,
      "ent": 33,
      "brk": 0,
      "frameMs": 16.7
    },
    {
      "t": 1801.2,
      "rD": 0.01,
      "hC": 0.41,
      "mA": 0.21,
      "tD": 0.31,
      "mode": "C#_dorian",
      "bpm": 100,
      "arc": 0.695,
      "ent": 39,
      "brk": 0,
      "frameMs": 6.9
    },
    {
      "t": 1802.2,
      "rD": 0.01,
      "hC": 0.42,
      "mA": 0.22,
      "tD": 0.32,
      "mode": "C#_dorian",
      "bpm": 100,
      "arc": 0.696,
      "ent": 36,
      "brk": 0,
      "frameMs": 7.9
    },
    {
      "t": 1803.2,
      "rD": 0.01,
      "hC": 0.42,
      "mA": 0.22,
      "tD": 0.32,
      "mode": "C#_dorian",
      "bpm": 100,
      "arc": 0.696,
      "ent": 44,
      "brk": 0,
      "frameMs": 8.1
    },
    {
      "t": 1804.2,
      "rD": 0,
      "hC": 0.43,
      "mA": 0.22,
      "tD": 0.33,
      "mode": "C#_dorian",
      "bpm": 100,
      "arc": 0.696,
      "ent": 45,
      "brk": 0,
      "frameMs": 8.3
    },
    {
      "t": 1805.2,
      "rD": 0,
      "hC": 0.43,
      "mA": 0.23,
      "tD": 0.34,
      "mode": "C#_dorian",
      "bpm": 100,
      "arc": 0.697,
      "ent": 39,
      "brk": 0,
      "frameMs": 16.4
    },
    {
      "t": 1806.2,
      "rD": 0,
      "hC": 0.44,
      "mA": 0.23,
      "tD": 0.34,
      "mode": "C#_dorian",
      "bpm": 100,
      "arc": 0.697,
      "ent": 32,
      "brk": 0,
      "frameMs": 16.3
    },
    {
      "t": 1807.2,
      "rD": 0,
      "hC": 0.44,
      "mA": 0.23,
      "tD": 0.34,
      "mode": "C#_dorian",
      "bpm": 100,
      "arc": 0.698,
      "ent": 40,
      "brk": 0,
      "frameMs": 16.6
    },
    {
      "t": 1808.2,
      "rD": 0,
      "hC": 0.43,
      "mA": 0.23,
      "tD": 0.34,
      "mode": "C#_dorian",
      "bpm": 100,
      "arc": 0.698,
      "ent": 46,
      "brk": 0,
      "frameMs": 10.2
    },
    {
      "t": 1809.2,
      "rD": 0,
      "hC": 0.43,
      "mA": 0.22,
      "tD": 0.33,
      "mode": "C#_dorian",
      "bpm": 100,
      "arc": 0.698,
      "ent": 47,
      "brk": 0,
      "frameMs": 10.2
    },
    {
      "t": 1810.2,
      "rD": 0,
      "hC": 0.42,
      "mA": 0.22,
      "tD": 0.33,
      "mode": "C#_dorian",
      "bpm": 100,
      "arc": 0.699,
      "ent": 53,
      "brk": 0,
      "frameMs": 8.3
    },
    {
      "t": 1811.2,
      "rD": 0,
      "hC": 0.42,
      "mA": 0.21,
      "tD": 0.32,
      "mode": "C#_dorian",
      "bpm": 100,
      "arc": 0.699,
      "ent": 46,
      "brk": 0,
      "frameMs": 8.3
    },
    {
      "t": 1812.2,
      "rD": 0,
      "hC": 0.41,
      "mA": 0.21,
      "tD": 0.31,
      "mode": "C#_dorian",
      "bpm": 100,
      "arc": 0.699,
      "ent": 44,
      "brk": 0,
      "frameMs": 8.3
    },
    {
      "t": 1813.2,
      "rD": 0,
      "hC": 0.4,
      "mA": 0.2,
      "tD": 0.3,
      "mode": "C#_dorian",
      "bpm": 100,
      "arc": 0.7,
      "ent": 47,
      "brk": 0,
      "frameMs": 8.5
    },
    {
      "t": 1814.2,
      "rD": 0,
      "hC": 0.39,
      "mA": 0.19,
      "tD": 0.29,
      "mode": "C#_dorian",
      "bpm": 100,
      "arc": 0.7,
      "ent": 53,
      "brk": 0,
      "frameMs": 8.3
    },
    {
      "t": 1815.2,
      "rD": 0,
      "hC": 0.38,
      "mA": 0.19,
      "tD": 0.28,
      "mode": "C#_dorian",
      "bpm": 100,
      "arc": 0.701,
      "ent": 47,
      "brk": 0,
      "frameMs": 8.2
    },
    {
      "t": 1816.2,
      "rD": 0,
      "hC": 0.37,
      "mA": 0.18,
      "tD": 0.27,
      "mode": "C#_dorian",
      "bpm": 100,
      "arc": 0.701,
      "ent": 48,
      "brk": 0,
      "frameMs": 8.4
    },
    {
      "t": 1817.3,
      "rD": 0,
      "hC": 0.37,
      "mA": 0.18,
      "tD": 0.27,
      "mode": "C#_dorian",
      "bpm": 100,
      "arc": 0.701,
      "ent": 60,
      "brk": 0,
      "frameMs": 8.4
    },
    {
      "t": 1818.3,
      "rD": 0,
      "hC": 0.37,
      "mA": 0.18,
      "tD": 0.26,
      "mode": "C#_dorian",
      "bpm": 100,
      "arc": 0.702,
      "ent": 67,
      "brk": 0,
      "frameMs": 8.3
    },
    {
      "t": 1819.3,
      "rD": 0,
      "hC": 0.37,
      "mA": 0.18,
      "tD": 0.26,
      "mode": "C#_dorian",
      "bpm": 100,
      "arc": 0.702,
      "ent": 65,
      "brk": 0,
      "frameMs": 9.4
    },
    {
      "t": 1820.3,
      "rD": 0,
      "hC": 0.37,
      "mA": 0.18,
      "tD": 0.27,
      "mode": "C#_dorian",
      "bpm": 100,
      "arc": 0.703,
      "ent": 71,
      "brk": 0,
      "frameMs": 9
    },
    {
      "t": 1821.3,
      "rD": 0,
      "hC": 0.38,
      "mA": 0.18,
      "tD": 0.27,
      "mode": "C#_dorian",
      "bpm": 100,
      "arc": 0.703,
      "ent": 58,
      "brk": 0,
      "frameMs": 8.3
    },
    {
      "t": 1822.3,
      "rD": 0,
      "hC": 0.38,
      "mA": 0.19,
      "tD": 0.28,
      "mode": "C#_dorian",
      "bpm": 100,
      "arc": 0.703,
      "ent": 55,
      "brk": 0,
      "frameMs": 7.4
    },
    {
      "t": 1823.3,
      "rD": 0,
      "hC": 0.39,
      "mA": 0.19,
      "tD": 0.29,
      "mode": "C#_dorian",
      "bpm": 100,
      "arc": 0.704,
      "ent": 50,
      "brk": 0,
      "frameMs": 8.5
    },
    {
      "t": 1824.3,
      "rD": 0,
      "hC": 0.4,
      "mA": 0.2,
      "tD": 0.3,
      "mode": "C#_dorian",
      "bpm": 100,
      "arc": 0.704,
      "ent": 44,
      "brk": 0,
      "frameMs": 7.5
    },
    {
      "t": 1825.3,
      "rD": 0,
      "hC": 0.41,
      "mA": 0.21,
      "tD": 0.31,
      "mode": "C#_dorian",
      "bpm": 100,
      "arc": 0.705,
      "ent": 35,
      "brk": 0,
      "frameMs": 8.4
    },
    {
      "t": 1826.3,
      "rD": 0,
      "hC": 0.42,
      "mA": 0.21,
      "tD": 0.32,
      "mode": "C#_dorian",
      "bpm": 100,
      "arc": 0.705,
      "ent": 33,
      "brk": 0,
      "frameMs": 8.3
    },
    {
      "t": 1827.3,
      "rD": 0,
      "hC": 0.42,
      "mA": 0.22,
      "tD": 0.33,
      "mode": "C#_dorian",
      "bpm": 100,
      "arc": 0.705,
      "ent": 28,
      "brk": 0,
      "frameMs": 9.2
    },
    {
      "t": 1828.3,
      "rD": 0,
      "hC": 0.43,
      "mA": 0.22,
      "tD": 0.33,
      "mode": "C#_dorian",
      "bpm": 100,
      "arc": 0.706,
      "ent": 20,
      "brk": 0,
      "frameMs": 8.5
    },
    {
      "t": 1829.3,
      "rD": 0,
      "hC": 0.43,
      "mA": 0.22,
      "tD": 0.34,
      "mode": "C#_dorian",
      "bpm": 100,
      "arc": 0.706,
      "ent": 17,
      "brk": 0,
      "frameMs": 7.8
    },
    {
      "t": 1830.3,
      "rD": 0,
      "hC": 0.43,
      "mA": 0.22,
      "tD": 0.34,
      "mode": "C#_dorian",
      "bpm": 100,
      "arc": 0.706,
      "ent": 27,
      "brk": 0,
      "frameMs": 16.7
    },
    {
      "t": 1831.3,
      "rD": 0,
      "hC": 0.43,
      "mA": 0.22,
      "tD": 0.34,
      "mode": "C#_dorian",
      "bpm": 100,
      "arc": 0.707,
      "ent": 29,
      "brk": 0,
      "frameMs": 17.6
    },
    {
      "t": 1832.3,
      "rD": 0,
      "hC": 0.43,
      "mA": 0.22,
      "tD": 0.33,
      "mode": "C#_dorian",
      "bpm": 100,
      "arc": 0.707,
      "ent": 32,
      "brk": 0,
      "frameMs": 16.6
    },
    {
      "t": 1833.3,
      "rD": 0,
      "hC": 0.42,
      "mA": 0.22,
      "tD": 0.32,
      "mode": "C#_dorian",
      "bpm": 100,
      "arc": 0.708,
      "ent": 32,
      "brk": 0,
      "frameMs": 8.2
    },
    {
      "t": 1834.3,
      "rD": 0,
      "hC": 0.41,
      "mA": 0.21,
      "tD": 0.32,
      "mode": "C#_dorian",
      "bpm": 100,
      "arc": 0.708,
      "ent": 27,
      "brk": 0,
      "frameMs": 8.3
    },
    {
      "t": 1835.3,
      "rD": 0,
      "hC": 0.41,
      "mA": 0.2,
      "tD": 0.31,
      "mode": "C#_dorian",
      "bpm": 100,
      "arc": 0.708,
      "ent": 25,
      "brk": 0,
      "frameMs": 16.6
    },
    {
      "t": 1836.3,
      "rD": 0,
      "hC": 0.4,
      "mA": 0.2,
      "tD": 0.3,
      "mode": "C#_dorian",
      "bpm": 100,
      "arc": 0.709,
      "ent": 18,
      "brk": 0,
      "frameMs": 15.8
    },
    {
      "t": 1837.4,
      "rD": 0,
      "hC": 0.39,
      "mA": 0.19,
      "tD": 0.29,
      "mode": "C#_dorian",
      "bpm": 100,
      "arc": 0.709,
      "ent": 28,
      "brk": 0,
      "frameMs": 8.4
    },
    {
      "t": 1838.4,
      "rD": 0,
      "hC": 0.38,
      "mA": 0.19,
      "tD": 0.28,
      "mode": "C#_dorian",
      "bpm": 100,
      "arc": 0.71,
      "ent": 38,
      "brk": 0,
      "frameMs": 17.4
    },
    {
      "t": 1839.4,
      "rD": 0,
      "hC": 0.37,
      "mA": 0.18,
      "tD": 0.27,
      "mode": "C#_dorian",
      "bpm": 100,
      "arc": 0.71,
      "ent": 42,
      "brk": 0,
      "frameMs": 8.3
    },
    {
      "t": 1840.4,
      "rD": 0,
      "hC": 0.37,
      "mA": 0.18,
      "tD": 0.27,
      "mode": "C#_dorian",
      "bpm": 100,
      "arc": 0.71,
      "ent": 36,
      "brk": 0,
      "frameMs": 8.3
    },
    {
      "t": 1841.4,
      "rD": 0,
      "hC": 0.37,
      "mA": 0.18,
      "tD": 0.27,
      "mode": "C#_dorian",
      "bpm": 100,
      "arc": 0.711,
      "ent": 37,
      "brk": 0,
      "frameMs": 16.6
    },
    {
      "t": 1842.4,
      "rD": 0.01,
      "hC": 0.38,
      "mA": 0.19,
      "tD": 0.27,
      "mode": "C#_dorian",
      "bpm": 100,
      "arc": 0.711,
      "ent": 34,
      "brk": 0,
      "frameMs": 8.9
    },
    {
      "t": 1843.4,
      "rD": 0.04,
      "hC": 0.39,
      "mA": 0.21,
      "tD": 0.29,
      "mode": "C#_dorian",
      "bpm": 100,
      "arc": 0.712,
      "ent": 44,
      "brk": 0,
      "frameMs": 16.8
    },
    {
      "t": 1844.4,
      "rD": 0.09,
      "hC": 0.41,
      "mA": 0.24,
      "tD": 0.32,
      "mode": "C#_dorian",
      "bpm": 100,
      "arc": 0.712,
      "ent": 42,
      "brk": 0,
      "frameMs": 8.1
    },
    {
      "t": 1845.4,
      "rD": 0.15,
      "hC": 0.43,
      "mA": 0.28,
      "tD": 0.35,
      "mode": "C#_dorian",
      "bpm": 100,
      "arc": 0.712,
      "ent": 74,
      "brk": 0,
      "frameMs": 16.7
    },
    {
      "t": 1846.4,
      "rD": 0.23,
      "hC": 0.47,
      "mA": 0.33,
      "tD": 0.39,
      "mode": "C#_dorian",
      "bpm": 100,
      "arc": 0.713,
      "ent": 156,
      "brk": 0,
      "frameMs": 8.4
    },
    {
      "t": 1847.4,
      "rD": 0.32,
      "hC": 0.5,
      "mA": 0.38,
      "tD": 0.44,
      "mode": "C#_dorian",
      "bpm": 100,
      "arc": 0.713,
      "ent": 235,
      "brk": 0,
      "frameMs": 16.7
    },
    {
      "t": 1848.4,
      "rD": 0.42,
      "hC": 0.53,
      "mA": 0.44,
      "tD": 0.49,
      "mode": "C#_dorian",
      "bpm": 100,
      "arc": 0.713,
      "ent": 548,
      "brk": 0,
      "frameMs": 16.6
    },
    {
      "t": 1849.4,
      "rD": 0.51,
      "hC": 0.57,
      "mA": 0.49,
      "tD": 0.53,
      "mode": "C#_dorian",
      "bpm": 100,
      "arc": 0.714,
      "ent": 927,
      "brk": 0,
      "frameMs": 16.2
    },
    {
      "t": 1850.5,
      "rD": 0.61,
      "hC": 0.6,
      "mA": 0.55,
      "tD": 0.58,
      "mode": "C#_dorian",
      "bpm": 100,
      "arc": 0.714,
      "ent": 1280,
      "brk": 0,
      "frameMs": 17.1
    },
    {
      "t": 1851.5,
      "rD": 0.69,
      "hC": 0.63,
      "mA": 0.6,
      "tD": 0.62,
      "mode": "C#_dorian",
      "bpm": 100,
      "arc": 0.715,
      "ent": 1577,
      "brk": 0,
      "frameMs": 17.2
    },
    {
      "t": 1852.5,
      "rD": 0.76,
      "hC": 0.66,
      "mA": 0.64,
      "tD": 0.65,
      "mode": "C#_dorian",
      "bpm": 100,
      "arc": 0.715,
      "ent": 1868,
      "brk": 0,
      "frameMs": 16.4
    },
    {
      "t": 1853.5,
      "rD": 0.82,
      "hC": 0.67,
      "mA": 0.67,
      "tD": 0.68,
      "mode": "C#_dorian",
      "bpm": 100,
      "arc": 0.715,
      "ent": 2093,
      "brk": 0,
      "frameMs": 24.9
    },
    {
      "t": 1854.5,
      "rD": 0.85,
      "hC": 0.69,
      "mA": 0.69,
      "tD": 0.69,
      "mode": "C#_dorian",
      "bpm": 100,
      "arc": 0.716,
      "ent": 2226,
      "brk": 0,
      "frameMs": 25
    },
    {
      "t": 1855.5,
      "rD": 0.88,
      "hC": 0.69,
      "mA": 0.71,
      "tD": 0.7,
      "mode": "C#_dorian",
      "bpm": 100,
      "arc": 0.716,
      "ent": 2348,
      "brk": 0,
      "frameMs": 24.9
    },
    {
      "t": 1856.5,
      "rD": 0.89,
      "hC": 0.69,
      "mA": 0.72,
      "tD": 0.71,
      "mode": "C#_dorian",
      "bpm": 100,
      "arc": 0.717,
      "ent": 2390,
      "brk": 0,
      "frameMs": 33.4
    },
    {
      "t": 1857.6,
      "rD": 0.9,
      "hC": 0.69,
      "mA": 0.72,
      "tD": 0.7,
      "mode": "C#_dorian",
      "bpm": 100,
      "arc": 0.717,
      "ent": 2222,
      "brk": 1,
      "frameMs": 33.4
    },
    {
      "t": 1858.6,
      "rD": 0.9,
      "hC": 0.69,
      "mA": 0.72,
      "tD": 0.7,
      "mode": "C#_dorian",
      "bpm": 100,
      "arc": 0.717,
      "ent": 2123,
      "brk": 1,
      "frameMs": 50
    },
    {
      "t": 1859.6,
      "rD": 0.9,
      "hC": 0.68,
      "mA": 0.72,
      "tD": 0.7,
      "mode": "C#_dorian",
      "bpm": 100,
      "arc": 0.718,
      "ent": 2051,
      "brk": 1,
      "frameMs": 50
    },
    {
      "t": 1860.6,
      "rD": 0.9,
      "hC": 0.68,
      "mA": 0.72,
      "tD": 0.69,
      "mode": "C#_dorian",
      "bpm": 100,
      "arc": 0.718,
      "ent": 2019,
      "brk": 1,
      "frameMs": 50
    },
    {
      "t": 1861.7,
      "rD": 0.9,
      "hC": 0.67,
      "mA": 0.72,
      "tD": 0.68,
      "mode": "C#_dorian",
      "bpm": 100,
      "arc": 0.719,
      "ent": 1970,
      "brk": 1,
      "frameMs": 50
    },
    {
      "t": 1862.7,
      "rD": 0.89,
      "hC": 0.67,
      "mA": 0.72,
      "tD": 0.68,
      "mode": "C#_dorian",
      "bpm": 100,
      "arc": 0.719,
      "ent": 1964,
      "brk": 1,
      "frameMs": 50
    },
    {
      "t": 1863.7,
      "rD": 0.89,
      "hC": 0.66,
      "mA": 0.72,
      "tD": 0.68,
      "mode": "C#_dorian",
      "bpm": 100,
      "arc": 0.719,
      "ent": 1947,
      "brk": 1,
      "frameMs": 50
    },
    {
      "t": 1864.8,
      "rD": 0.89,
      "hC": 0.66,
      "mA": 0.72,
      "tD": 0.68,
      "mode": "C#_dorian",
      "bpm": 100,
      "arc": 0.72,
      "ent": 1930,
      "brk": 0,
      "frameMs": 50
    },
    {
      "t": 1865.8,
      "rD": 0.9,
      "hC": 0.66,
      "mA": 0.72,
      "tD": 0.68,
      "mode": "C#_dorian",
      "bpm": 100,
      "arc": 0.72,
      "ent": 1801,
      "brk": 0,
      "frameMs": 41.7
    },
    {
      "t": 1866.8,
      "rD": 0.91,
      "hC": 0.67,
      "mA": 0.73,
      "tD": 0.69,
      "mode": "C#_dorian",
      "bpm": 100,
      "arc": 0.721,
      "ent": 1746,
      "brk": 0,
      "frameMs": 41.8
    },
    {
      "t": 1867.8,
      "rD": 0.92,
      "hC": 0.67,
      "mA": 0.73,
      "tD": 0.69,
      "mode": "C#_dorian",
      "bpm": 100,
      "arc": 0.721,
      "ent": 1716,
      "brk": 0,
      "frameMs": 33.1
    },
    {
      "t": 1868.8,
      "rD": 0.93,
      "hC": 0.68,
      "mA": 0.74,
      "tD": 0.7,
      "mode": "C#_dorian",
      "bpm": 100,
      "arc": 0.721,
      "ent": 1665,
      "brk": 0,
      "frameMs": 32.9
    },
    {
      "t": 1869.9,
      "rD": 0.94,
      "hC": 0.69,
      "mA": 0.75,
      "tD": 0.71,
      "mode": "C#_dorian",
      "bpm": 100,
      "arc": 0.722,
      "ent": 1596,
      "brk": 0,
      "frameMs": 33.4
    },
    {
      "t": 1870.9,
      "rD": 0.96,
      "hC": 0.7,
      "mA": 0.76,
      "tD": 0.72,
      "mode": "C#_dorian",
      "bpm": 100,
      "arc": 0.722,
      "ent": 1544,
      "brk": 0,
      "frameMs": 41.6
    },
    {
      "t": 1871.9,
      "rD": 0.97,
      "hC": 0.71,
      "mA": 0.76,
      "tD": 0.73,
      "mode": "C#_dorian",
      "bpm": 100,
      "arc": 0.723,
      "ent": 1534,
      "brk": 0,
      "frameMs": 41.6
    },
    {
      "t": 1872.9,
      "rD": 0.98,
      "hC": 0.72,
      "mA": 0.77,
      "tD": 0.74,
      "mode": "C#_dorian",
      "bpm": 100,
      "arc": 0.723,
      "ent": 1578,
      "brk": 0,
      "frameMs": 34.1
    },
    {
      "t": 1873.9,
      "rD": 0.99,
      "hC": 0.72,
      "mA": 0.77,
      "tD": 0.75,
      "mode": "C#_dorian",
      "bpm": 100,
      "arc": 0.723,
      "ent": 1599,
      "brk": 0,
      "frameMs": 33.6
    },
    {
      "t": 1875,
      "rD": 1,
      "hC": 0.73,
      "mA": 0.78,
      "tD": 0.76,
      "mode": "C#_dorian",
      "bpm": 100,
      "arc": 0.724,
      "ent": 1530,
      "brk": 0,
      "frameMs": 33.3
    },
    {
      "t": 1876,
      "rD": 1,
      "hC": 0.73,
      "mA": 0.78,
      "tD": 0.76,
      "mode": "C#_dorian",
      "bpm": 100,
      "arc": 0.724,
      "ent": 1548,
      "brk": 0,
      "frameMs": 33.3
    },
    {
      "t": 1877,
      "rD": 1,
      "hC": 0.73,
      "mA": 0.78,
      "tD": 0.76,
      "mode": "C#_dorian",
      "bpm": 100,
      "arc": 0.725,
      "ent": 1528,
      "brk": 0,
      "frameMs": 41.6
    },
    {
      "t": 1878,
      "rD": 1,
      "hC": 0.72,
      "mA": 0.78,
      "tD": 0.75,
      "mode": "C#_dorian",
      "bpm": 100,
      "arc": 0.725,
      "ent": 1537,
      "brk": 0,
      "frameMs": 41.6
    },
    {
      "t": 1879,
      "rD": 0.99,
      "hC": 0.72,
      "mA": 0.78,
      "tD": 0.75,
      "mode": "C#_dorian",
      "bpm": 100,
      "arc": 0.725,
      "ent": 1547,
      "brk": 0,
      "frameMs": 41.8
    },
    {
      "t": 1880.1,
      "rD": 0.98,
      "hC": 0.71,
      "mA": 0.77,
      "tD": 0.74,
      "mode": "C#_dorian",
      "bpm": 100,
      "arc": 0.726,
      "ent": 1619,
      "brk": 0,
      "frameMs": 33.4
    },
    {
      "t": 1881.1,
      "rD": 0.97,
      "hC": 0.7,
      "mA": 0.77,
      "tD": 0.73,
      "mode": "C#_dorian",
      "bpm": 100,
      "arc": 0.726,
      "ent": 1633,
      "brk": 0,
      "frameMs": 41.6
    },
    {
      "t": 1882.1,
      "rD": 0.96,
      "hC": 0.69,
      "mA": 0.76,
      "tD": 0.72,
      "mode": "C#_dorian",
      "bpm": 100,
      "arc": 0.727,
      "ent": 1642,
      "brk": 0,
      "frameMs": 33.7
    },
    {
      "t": 1883.1,
      "rD": 0.94,
      "hC": 0.68,
      "mA": 0.75,
      "tD": 0.71,
      "mode": "C#_dorian",
      "bpm": 100,
      "arc": 0.727,
      "ent": 1621,
      "brk": 0,
      "frameMs": 33.3
    },
    {
      "t": 1884.1,
      "rD": 0.93,
      "hC": 0.67,
      "mA": 0.75,
      "tD": 0.7,
      "mode": "C#_dorian",
      "bpm": 100,
      "arc": 0.727,
      "ent": 1582,
      "brk": 0,
      "frameMs": 41.6
    },
    {
      "t": 1885.1,
      "rD": 0.92,
      "hC": 0.67,
      "mA": 0.74,
      "tD": 0.69,
      "mode": "C#_dorian",
      "bpm": 100,
      "arc": 0.728,
      "ent": 1562,
      "brk": 0,
      "frameMs": 41.7
    },
    {
      "t": 1886.2,
      "rD": 0.92,
      "hC": 0.66,
      "mA": 0.74,
      "tD": 0.69,
      "mode": "C#_dorian",
      "bpm": 100,
      "arc": 0.728,
      "ent": 1593,
      "brk": 0,
      "frameMs": 33.9
    },
    {
      "t": 1887.2,
      "rD": 0.91,
      "hC": 0.66,
      "mA": 0.74,
      "tD": 0.68,
      "mode": "C#_dorian",
      "bpm": 100,
      "arc": 0.728,
      "ent": 1638,
      "brk": 0,
      "frameMs": 33.3
    },
    {
      "t": 1888.2,
      "rD": 0.91,
      "hC": 0.66,
      "mA": 0.74,
      "tD": 0.68,
      "mode": "C#_dorian",
      "bpm": 100,
      "arc": 0.729,
      "ent": 1612,
      "brk": 0,
      "frameMs": 41.6
    },
    {
      "t": 1889.2,
      "rD": 0.92,
      "hC": 0.66,
      "mA": 0.74,
      "tD": 0.69,
      "mode": "C#_dorian",
      "bpm": 100,
      "arc": 0.729,
      "ent": 1618,
      "brk": 0,
      "frameMs": 40.9
    },
    {
      "t": 1890.2,
      "rD": 0.93,
      "hC": 0.66,
      "mA": 0.75,
      "tD": 0.69,
      "mode": "C#_dorian",
      "bpm": 100,
      "arc": 0.73,
      "ent": 1579,
      "brk": 0,
      "frameMs": 33
    },
    {
      "t": 1891.2,
      "rD": 0.94,
      "hC": 0.67,
      "mA": 0.75,
      "tD": 0.7,
      "mode": "C#_dorian",
      "bpm": 100,
      "arc": 0.73,
      "ent": 1601,
      "brk": 0,
      "frameMs": 34
    },
    {
      "t": 1892.3,
      "rD": 0.95,
      "hC": 0.68,
      "mA": 0.76,
      "tD": 0.71,
      "mode": "C#_dorian",
      "bpm": 100,
      "arc": 0.73,
      "ent": 1666,
      "brk": 0,
      "frameMs": 41.7
    },
    {
      "t": 1893.3,
      "rD": 0.96,
      "hC": 0.68,
      "mA": 0.77,
      "tD": 0.72,
      "mode": "C#_dorian",
      "bpm": 100,
      "arc": 0.731,
      "ent": 1643,
      "brk": 0,
      "frameMs": 33.4
    },
    {
      "t": 1894.3,
      "rD": 0.98,
      "hC": 0.69,
      "mA": 0.78,
      "tD": 0.73,
      "mode": "C#_dorian",
      "bpm": 100,
      "arc": 0.731,
      "ent": 1565,
      "brk": 0,
      "frameMs": 41.7
    },
    {
      "t": 1895.3,
      "rD": 0.99,
      "hC": 0.7,
      "mA": 0.78,
      "tD": 0.74,
      "mode": "C#_dorian",
      "bpm": 100,
      "arc": 0.732,
      "ent": 1603,
      "brk": 0,
      "frameMs": 33.4
    },
    {
      "t": 1896.3,
      "rD": 1,
      "hC": 0.71,
      "mA": 0.79,
      "tD": 0.75,
      "mode": "C#_dorian",
      "bpm": 100,
      "arc": 0.732,
      "ent": 1598,
      "brk": 0,
      "frameMs": 33.3
    },
    {
      "t": 1897.3,
      "rD": 1,
      "hC": 0.71,
      "mA": 0.79,
      "tD": 0.75,
      "mode": "C#_dorian",
      "bpm": 100,
      "arc": 0.732,
      "ent": 1675,
      "brk": 0,
      "frameMs": 41.7
    },
    {
      "t": 1898.3,
      "rD": 1,
      "hC": 0.71,
      "mA": 0.8,
      "tD": 0.76,
      "mode": "C#_dorian",
      "bpm": 100,
      "arc": 0.733,
      "ent": 1592,
      "brk": 1,
      "frameMs": 33.4
    },
    {
      "t": 1899.4,
      "rD": 1,
      "hC": 0.71,
      "mA": 0.8,
      "tD": 0.76,
      "mode": "C#_dorian",
      "bpm": 100,
      "arc": 0.733,
      "ent": 1604,
      "brk": 1,
      "frameMs": 41.4
    },
    {
      "t": 1900.4,
      "rD": 1,
      "hC": 0.71,
      "mA": 0.8,
      "tD": 0.76,
      "mode": "C#_dorian",
      "bpm": 100,
      "arc": 0.734,
      "ent": 1663,
      "brk": 1,
      "frameMs": 50
    },
    {
      "t": 1901.4,
      "rD": 1,
      "hC": 0.71,
      "mA": 0.8,
      "tD": 0.75,
      "mode": "C#_dorian",
      "bpm": 100,
      "arc": 0.734,
      "ent": 1753,
      "brk": 1,
      "frameMs": 50
    },
    {
      "t": 1902.5,
      "rD": 0.99,
      "hC": 0.7,
      "mA": 0.79,
      "tD": 0.74,
      "mode": "C#_dorian",
      "bpm": 100,
      "arc": 0.734,
      "ent": 1814,
      "brk": 1,
      "frameMs": 50
    },
    {
      "t": 1903.5,
      "rD": 0.98,
      "hC": 0.69,
      "mA": 0.79,
      "tD": 0.74,
      "mode": "C#_dorian",
      "bpm": 100,
      "arc": 0.735,
      "ent": 1816,
      "brk": 1,
      "frameMs": 50
    },
    {
      "t": 1904.5,
      "rD": 0.97,
      "hC": 0.68,
      "mA": 0.78,
      "tD": 0.73,
      "mode": "C#_dorian",
      "bpm": 100,
      "arc": 0.735,
      "ent": 1796,
      "brk": 1,
      "frameMs": 50
    },
    {
      "t": 1905.5,
      "rD": 0.96,
      "hC": 0.67,
      "mA": 0.78,
      "tD": 0.71,
      "mode": "C#_dorian",
      "bpm": 100,
      "arc": 0.736,
      "ent": 1867,
      "brk": 0,
      "frameMs": 50
    },
    {
      "t": 1906.5,
      "rD": 0.95,
      "hC": 0.66,
      "mA": 0.77,
      "tD": 0.7,
      "mode": "C#_dorian",
      "bpm": 100,
      "arc": 0.736,
      "ent": 1877,
      "brk": 0,
      "frameMs": 42
    },
    {
      "t": 1907.5,
      "rD": 0.94,
      "hC": 0.65,
      "mA": 0.77,
      "tD": 0.7,
      "mode": "C#_dorian",
      "bpm": 100,
      "arc": 0.736,
      "ent": 1850,
      "brk": 0,
      "frameMs": 41.6
    },
    {
      "t": 1908.6,
      "rD": 0.93,
      "hC": 0.65,
      "mA": 0.76,
      "tD": 0.69,
      "mode": "C#_dorian",
      "bpm": 100,
      "arc": 0.737,
      "ent": 1743,
      "brk": 0,
      "frameMs": 33.2
    },
    {
      "t": 1909.6,
      "rD": 0.93,
      "hC": 0.64,
      "mA": 0.76,
      "tD": 0.68,
      "mode": "C#_dorian",
      "bpm": 100,
      "arc": 0.737,
      "ent": 1685,
      "brk": 0,
      "frameMs": 32.8
    },
    {
      "t": 1910.6,
      "rD": 0.93,
      "hC": 0.64,
      "mA": 0.76,
      "tD": 0.68,
      "mode": "C#_dorian",
      "bpm": 100,
      "arc": 0.738,
      "ent": 1682,
      "brk": 0,
      "frameMs": 41.7
    },
    {
      "t": 1911.6,
      "rD": 0.93,
      "hC": 0.64,
      "mA": 0.76,
      "tD": 0.68,
      "mode": "C#_dorian",
      "bpm": 100,
      "arc": 0.738,
      "ent": 1610,
      "brk": 0,
      "frameMs": 33.5
    },
    {
      "t": 1912.7,
      "rD": 0.94,
      "hC": 0.64,
      "mA": 0.77,
      "tD": 0.69,
      "mode": "C#_dorian",
      "bpm": 100,
      "arc": 0.738,
      "ent": 1617,
      "brk": 0,
      "frameMs": 33.3
    },
    {
      "t": 1913.7,
      "rD": 0.95,
      "hC": 0.65,
      "mA": 0.77,
      "tD": 0.69,
      "mode": "C#_dorian",
      "bpm": 100,
      "arc": 0.739,
      "ent": 1559,
      "brk": 0,
      "frameMs": 34.2
    },
    {
      "t": 1914.7,
      "rD": 0.96,
      "hC": 0.66,
      "mA": 0.78,
      "tD": 0.7,
      "mode": "C#_dorian",
      "bpm": 100,
      "arc": 0.739,
      "ent": 1626,
      "brk": 0,
      "frameMs": 33.2
    },
    {
      "t": 1915.8,
      "rD": 0.97,
      "hC": 0.66,
      "mA": 0.79,
      "tD": 0.71,
      "mode": "C#_dorian",
      "bpm": 100,
      "arc": 0.74,
      "ent": 1574,
      "brk": 0,
      "frameMs": 33.4
    },
    {
      "t": 1916.8,
      "rD": 0.98,
      "hC": 0.67,
      "mA": 0.79,
      "tD": 0.72,
      "mode": "C#_dorian",
      "bpm": 100,
      "arc": 0.74,
      "ent": 1583,
      "brk": 0,
      "frameMs": 41.6
    },
    {
      "t": 1917.8,
      "rD": 1,
      "hC": 0.68,
      "mA": 0.8,
      "tD": 0.73,
      "mode": "C#_dorian",
      "bpm": 100,
      "arc": 0.74,
      "ent": 1559,
      "brk": 0,
      "frameMs": 42.1
    },
    {
      "t": 1918.8,
      "rD": 1,
      "hC": 0.69,
      "mA": 0.81,
      "tD": 0.74,
      "mode": "C#_dorian",
      "bpm": 100,
      "arc": 0.741,
      "ent": 1531,
      "brk": 0,
      "frameMs": 41.1
    },
    {
      "t": 1919.8,
      "rD": 1,
      "hC": 0.69,
      "mA": 0.81,
      "tD": 0.75,
      "mode": "C#_dorian",
      "bpm": 100,
      "arc": 0.741,
      "ent": 1523,
      "brk": 0,
      "frameMs": 41.7
    },
    {
      "t": 1920.8,
      "rD": 1,
      "hC": 0.7,
      "mA": 0.82,
      "tD": 0.76,
      "mode": "C#_dorian",
      "bpm": 100,
      "arc": 0.742,
      "ent": 1571,
      "brk": 0,
      "frameMs": 41.6
    },
    {
      "t": 1921.8,
      "rD": 1,
      "hC": 0.7,
      "mA": 0.82,
      "tD": 0.76,
      "mode": "C#_dorian",
      "bpm": 100,
      "arc": 0.742,
      "ent": 1565,
      "brk": 0,
      "frameMs": 33.4
    },
    {
      "t": 1922.9,
      "rD": 1,
      "hC": 0.7,
      "mA": 0.82,
      "tD": 0.76,
      "mode": "C#_dorian",
      "bpm": 100,
      "arc": 0.742,
      "ent": 1586,
      "brk": 0,
      "frameMs": 41.4
    },
    {
      "t": 1923.9,
      "rD": 1,
      "hC": 0.69,
      "mA": 0.82,
      "tD": 0.75,
      "mode": "C#_dorian",
      "bpm": 100,
      "arc": 0.743,
      "ent": 1618,
      "brk": 0,
      "frameMs": 41.8
    },
    {
      "t": 1924.9,
      "rD": 1,
      "hC": 0.69,
      "mA": 0.82,
      "tD": 0.75,
      "mode": "C#_dorian",
      "bpm": 100,
      "arc": 0.743,
      "ent": 1556,
      "brk": 0,
      "frameMs": 32.5
    },
    {
      "t": 1925.9,
      "rD": 0.99,
      "hC": 0.68,
      "mA": 0.81,
      "tD": 0.74,
      "mode": "C#_dorian",
      "bpm": 100,
      "arc": 0.743,
      "ent": 1624,
      "brk": 0,
      "frameMs": 41.6
    },
    {
      "t": 1926.9,
      "rD": 0.99,
      "hC": 0.67,
      "mA": 0.81,
      "tD": 0.73,
      "mode": "C#_dorian",
      "bpm": 100,
      "arc": 0.744,
      "ent": 1606,
      "brk": 0,
      "frameMs": 41.8
    },
    {
      "t": 1927.9,
      "rD": 0.98,
      "hC": 0.66,
      "mA": 0.8,
      "tD": 0.72,
      "mode": "C#_dorian",
      "bpm": 100,
      "arc": 0.744,
      "ent": 1655,
      "brk": 0,
      "frameMs": 41.7
    },
    {
      "t": 1928.9,
      "rD": 0.97,
      "hC": 0.65,
      "mA": 0.8,
      "tD": 0.71,
      "mode": "C#_dorian",
      "bpm": 100,
      "arc": 0.745,
      "ent": 1602,
      "brk": 0,
      "frameMs": 32.4
    },
    {
      "t": 1930,
      "rD": 0.96,
      "hC": 0.64,
      "mA": 0.79,
      "tD": 0.7,
      "mode": "C#_dorian",
      "bpm": 100,
      "arc": 0.745,
      "ent": 1623,
      "brk": 0,
      "frameMs": 41.8
    },
    {
      "t": 1931,
      "rD": 0.95,
      "hC": 0.64,
      "mA": 0.79,
      "tD": 0.69,
      "mode": "C#_dorian",
      "bpm": 100,
      "arc": 0.745,
      "ent": 1607,
      "brk": 0,
      "frameMs": 34.2
    },
    {
      "t": 1932,
      "rD": 0.94,
      "hC": 0.63,
      "mA": 0.78,
      "tD": 0.69,
      "mode": "C#_dorian",
      "bpm": 100,
      "arc": 0.746,
      "ent": 1544,
      "brk": 0,
      "frameMs": 33.4
    },
    {
      "t": 1933,
      "rD": 0.94,
      "hC": 0.63,
      "mA": 0.78,
      "tD": 0.68,
      "mode": "C#_dorian",
      "bpm": 100,
      "arc": 0.746,
      "ent": 1552,
      "brk": 0,
      "frameMs": 33.6
    },
    {
      "t": 1934,
      "rD": 0.94,
      "hC": 0.63,
      "mA": 0.78,
      "tD": 0.68,
      "mode": "C#_dorian",
      "bpm": 100,
      "arc": 0.747,
      "ent": 1579,
      "brk": 0,
      "frameMs": 34.2
    },
    {
      "t": 1935.1,
      "rD": 0.95,
      "hC": 0.63,
      "mA": 0.79,
      "tD": 0.68,
      "mode": "C#_dorian",
      "bpm": 100,
      "arc": 0.747,
      "ent": 1512,
      "brk": 0,
      "frameMs": 41.6
    },
    {
      "t": 1936.1,
      "rD": 0.95,
      "hC": 0.63,
      "mA": 0.79,
      "tD": 0.69,
      "mode": "C#_dorian",
      "bpm": 100,
      "arc": 0.747,
      "ent": 1518,
      "brk": 0,
      "frameMs": 33.4
    },
    {
      "t": 1937.1,
      "rD": 0.96,
      "hC": 0.64,
      "mA": 0.8,
      "tD": 0.7,
      "mode": "C#_dorian",
      "bpm": 100,
      "arc": 0.748,
      "ent": 1560,
      "brk": 0,
      "frameMs": 33.2
    },
    {
      "t": 1938.1,
      "rD": 0.98,
      "hC": 0.64,
      "mA": 0.8,
      "tD": 0.71,
      "mode": "C#_dorian",
      "bpm": 100,
      "arc": 0.748,
      "ent": 1535,
      "brk": 0,
      "frameMs": 41.5
    },
    {
      "t": 1939.1,
      "rD": 0.99,
      "hC": 0.65,
      "mA": 0.81,
      "tD": 0.72,
      "mode": "C#_dorian",
      "bpm": 100,
      "arc": 0.749,
      "ent": 1549,
      "brk": 0,
      "frameMs": 41.8
    },
    {
      "t": 1940.1,
      "rD": 1,
      "hC": 0.66,
      "mA": 0.82,
      "tD": 0.73,
      "mode": "C#_dorian",
      "bpm": 100,
      "arc": 0.749,
      "ent": 1552,
      "brk": 0,
      "frameMs": 33.4
    },
    {
      "t": 1941.2,
      "rD": 1,
      "hC": 0.67,
      "mA": 0.82,
      "tD": 0.74,
      "mode": "C#_dorian",
      "bpm": 100,
      "arc": 0.749,
      "ent": 1622,
      "brk": 0,
      "frameMs": 41.6
    },
    {
      "t": 1942.2,
      "rD": 1,
      "hC": 0.68,
      "mA": 0.83,
      "tD": 0.75,
      "mode": "C#_dorian",
      "bpm": 100,
      "arc": 0.75,
      "ent": 1552,
      "brk": 0,
      "frameMs": 33.5
    },
    {
      "t": 1943.2,
      "rD": 1,
      "hC": 0.68,
      "mA": 0.83,
      "tD": 0.75,
      "mode": "C#_dorian",
      "bpm": 100,
      "arc": 0.75,
      "ent": 1589,
      "brk": 0,
      "frameMs": 50
    },
    {
      "t": 1944.2,
      "rD": 1,
      "hC": 0.69,
      "mA": 0.84,
      "tD": 0.76,
      "mode": "C#_dorian",
      "bpm": 100,
      "arc": 0.751,
      "ent": 1615,
      "brk": 0,
      "frameMs": 41.8
    },
    {
      "t": 1945.3,
      "rD": 1,
      "hC": 0.69,
      "mA": 0.84,
      "tD": 0.76,
      "mode": "C#_dorian",
      "bpm": 100,
      "arc": 0.751,
      "ent": 1604,
      "brk": 0,
      "frameMs": 33.4
    },
    {
      "t": 1946.3,
      "rD": 1,
      "hC": 0.68,
      "mA": 0.84,
      "tD": 0.76,
      "mode": "C#_dorian",
      "bpm": 100,
      "arc": 0.751,
      "ent": 1574,
      "brk": 0,
      "frameMs": 42.5
    },
    {
      "t": 1947.3,
      "rD": 1,
      "hC": 0.68,
      "mA": 0.84,
      "tD": 0.75,
      "mode": "C#_dorian",
      "bpm": 100,
      "arc": 0.752,
      "ent": 1572,
      "brk": 0,
      "frameMs": 41.4
    },
    {
      "t": 1948.3,
      "rD": 1,
      "hC": 0.67,
      "mA": 0.83,
      "tD": 0.74,
      "mode": "C#_dorian",
      "bpm": 100,
      "arc": 0.752,
      "ent": 1629,
      "brk": 0,
      "frameMs": 41.7
    },
    {
      "t": 1949.3,
      "rD": 1,
      "hC": 0.67,
      "mA": 0.83,
      "tD": 0.74,
      "mode": "C#_dorian",
      "bpm": 100,
      "arc": 0.753,
      "ent": 1578,
      "brk": 0,
      "frameMs": 41.5
    },
    {
      "t": 1950.3,
      "rD": 0.99,
      "hC": 0.66,
      "mA": 0.82,
      "tD": 0.73,
      "mode": "C#_dorian",
      "bpm": 100,
      "arc": 0.753,
      "ent": 1575,
      "brk": 0,
      "frameMs": 32.8
    },
    {
      "t": 1951.4,
      "rD": 0.98,
      "hC": 0.65,
      "mA": 0.82,
      "tD": 0.72,
      "mode": "C#_dorian",
      "bpm": 100,
      "arc": 0.753,
      "ent": 1586,
      "brk": 1,
      "frameMs": 49.8
    },
    {
      "t": 1952.4,
      "rD": 0.97,
      "hC": 0.64,
      "mA": 0.81,
      "tD": 0.71,
      "mode": "C#_dorian",
      "bpm": 100,
      "arc": 0.754,
      "ent": 1558,
      "brk": 1,
      "frameMs": 50
    },
    {
      "t": 1953.4,
      "rD": 0.96,
      "hC": 0.63,
      "mA": 0.8,
      "tD": 0.7,
      "mode": "C#_dorian",
      "bpm": 100,
      "arc": 0.754,
      "ent": 1663,
      "brk": 1,
      "frameMs": 50
    },
    {
      "t": 1954.4,
      "rD": 0.95,
      "hC": 0.62,
      "mA": 0.8,
      "tD": 0.69,
      "mode": "C#_dorian",
      "bpm": 100,
      "arc": 0.755,
      "ent": 1721,
      "brk": 1,
      "frameMs": 50
    },
    {
      "t": 1955.4,
      "rD": 0.95,
      "hC": 0.62,
      "mA": 0.8,
      "tD": 0.68,
      "mode": "C#_dorian",
      "bpm": 100,
      "arc": 0.755,
      "ent": 1766,
      "brk": 1,
      "frameMs": 50
    },
    {
      "t": 1956.5,
      "rD": 0.95,
      "hC": 0.62,
      "mA": 0.8,
      "tD": 0.68,
      "mode": "C#_dorian",
      "bpm": 100,
      "arc": 0.755,
      "ent": 1837,
      "brk": 0,
      "frameMs": 50
    },
    {
      "t": 1957.5,
      "rD": 0.95,
      "hC": 0.62,
      "mA": 0.8,
      "tD": 0.68,
      "mode": "C#_dorian",
      "bpm": 100,
      "arc": 0.756,
      "ent": 1792,
      "brk": 0,
      "frameMs": 41.6
    },
    {
      "t": 1958.5,
      "rD": 0.96,
      "hC": 0.62,
      "mA": 0.8,
      "tD": 0.69,
      "mode": "E_phrygian",
      "bpm": 96,
      "arc": 0.756,
      "ent": 1789,
      "brk": 0,
      "frameMs": 32.9
    },
    {
      "t": 1959.5,
      "rD": 0.96,
      "hC": 0.63,
      "mA": 0.8,
      "tD": 0.69,
      "mode": "E_phrygian",
      "bpm": 88,
      "arc": 0.757,
      "ent": 1853,
      "brk": 0,
      "frameMs": 17
    },
    {
      "t": 1960.5,
      "rD": 0.97,
      "hC": 0.63,
      "mA": 0.81,
      "tD": 0.7,
      "mode": "E_phrygian",
      "bpm": 85,
      "arc": 0.757,
      "ent": 1954,
      "brk": 0,
      "frameMs": 8.1
    },
    {
      "t": 1961.5,
      "rD": 0.99,
      "hC": 0.64,
      "mA": 0.81,
      "tD": 0.71,
      "mode": "E_phrygian",
      "bpm": 83,
      "arc": 0.757,
      "ent": 1997,
      "brk": 0,
      "frameMs": 8.3
    },
    {
      "t": 1962.5,
      "rD": 1,
      "hC": 0.65,
      "mA": 0.82,
      "tD": 0.72,
      "mode": "E_phrygian",
      "bpm": 83,
      "arc": 0.758,
      "ent": 2019,
      "brk": 0,
      "frameMs": 8.4
    },
    {
      "t": 1963.5,
      "rD": 1,
      "hC": 0.66,
      "mA": 0.83,
      "tD": 0.73,
      "mode": "E_phrygian",
      "bpm": 82,
      "arc": 0.758,
      "ent": 2067,
      "brk": 0,
      "frameMs": 8.3
    },
    {
      "t": 1964.5,
      "rD": 1,
      "hC": 0.67,
      "mA": 0.83,
      "tD": 0.74,
      "mode": "E_phrygian",
      "bpm": 82,
      "arc": 0.758,
      "ent": 2105,
      "brk": 0,
      "frameMs": 8.4
    },
    {
      "t": 1965.5,
      "rD": 1,
      "hC": 0.67,
      "mA": 0.84,
      "tD": 0.75,
      "mode": "E_phrygian",
      "bpm": 82,
      "arc": 0.759,
      "ent": 2156,
      "brk": 0,
      "frameMs": 8.3
    },
    {
      "t": 1966.5,
      "rD": 1,
      "hC": 0.68,
      "mA": 0.84,
      "tD": 0.75,
      "mode": "E_phrygian",
      "bpm": 82,
      "arc": 0.759,
      "ent": 2200,
      "brk": 0,
      "frameMs": 9.1
    },
    {
      "t": 1967.5,
      "rD": 1,
      "hC": 0.68,
      "mA": 0.84,
      "tD": 0.76,
      "mode": "E_phrygian",
      "bpm": 82,
      "arc": 0.76,
      "ent": 2135,
      "brk": 0,
      "frameMs": 8.3
    },
    {
      "t": 1968.5,
      "rD": 1,
      "hC": 0.68,
      "mA": 0.84,
      "tD": 0.76,
      "mode": "E_phrygian",
      "bpm": 82,
      "arc": 0.76,
      "ent": 2108,
      "brk": 0,
      "frameMs": 8.2
    },
    {
      "t": 1969.5,
      "rD": 1,
      "hC": 0.68,
      "mA": 0.84,
      "tD": 0.75,
      "mode": "E_phrygian",
      "bpm": 82,
      "arc": 0.76,
      "ent": 2110,
      "brk": 0,
      "frameMs": 8.3
    },
    {
      "t": 1970.5,
      "rD": 1,
      "hC": 0.67,
      "mA": 0.83,
      "tD": 0.75,
      "mode": "E_phrygian",
      "bpm": 82,
      "arc": 0.761,
      "ent": 2109,
      "brk": 0,
      "frameMs": 16.8
    },
    {
      "t": 1971.5,
      "rD": 1,
      "hC": 0.66,
      "mA": 0.83,
      "tD": 0.74,
      "mode": "E_phrygian",
      "bpm": 82,
      "arc": 0.761,
      "ent": 2145,
      "brk": 0,
      "frameMs": 8.3
    },
    {
      "t": 1972.5,
      "rD": 0.99,
      "hC": 0.66,
      "mA": 0.82,
      "tD": 0.73,
      "mode": "E_phrygian",
      "bpm": 82,
      "arc": 0.762,
      "ent": 2101,
      "brk": 0,
      "frameMs": 8.3
    },
    {
      "t": 1973.5,
      "rD": 0.98,
      "hC": 0.65,
      "mA": 0.81,
      "tD": 0.72,
      "mode": "E_phrygian",
      "bpm": 82,
      "arc": 0.762,
      "ent": 2091,
      "brk": 0,
      "frameMs": 8.3
    },
    {
      "t": 1974.5,
      "rD": 0.96,
      "hC": 0.64,
      "mA": 0.8,
      "tD": 0.71,
      "mode": "E_phrygian",
      "bpm": 82,
      "arc": 0.762,
      "ent": 2094,
      "brk": 0,
      "frameMs": 7.7
    },
    {
      "t": 1975.6,
      "rD": 0.95,
      "hC": 0.63,
      "mA": 0.8,
      "tD": 0.69,
      "mode": "E_phrygian",
      "bpm": 82,
      "arc": 0.763,
      "ent": 2099,
      "brk": 0,
      "frameMs": 8.4
    },
    {
      "t": 1976.6,
      "rD": 0.94,
      "hC": 0.62,
      "mA": 0.79,
      "tD": 0.68,
      "mode": "E_phrygian",
      "bpm": 82,
      "arc": 0.763,
      "ent": 2109,
      "brk": 0,
      "frameMs": 8.3
    },
    {
      "t": 1977.6,
      "rD": 0.93,
      "hC": 0.61,
      "mA": 0.78,
      "tD": 0.68,
      "mode": "E_phrygian",
      "bpm": 82,
      "arc": 0.764,
      "ent": 2039,
      "brk": 0,
      "frameMs": 8.3
    },
    {
      "t": 1978.6,
      "rD": 0.92,
      "hC": 0.6,
      "mA": 0.78,
      "tD": 0.67,
      "mode": "E_phrygian",
      "bpm": 82,
      "arc": 0.764,
      "ent": 2059,
      "brk": 0,
      "frameMs": 15.9
    },
    {
      "t": 1979.6,
      "rD": 0.92,
      "hC": 0.6,
      "mA": 0.77,
      "tD": 0.67,
      "mode": "E_phrygian",
      "bpm": 82,
      "arc": 0.764,
      "ent": 2040,
      "brk": 0,
      "frameMs": 8.3
    },
    {
      "t": 1980.6,
      "rD": 0.92,
      "hC": 0.6,
      "mA": 0.77,
      "tD": 0.67,
      "mode": "E_phrygian",
      "bpm": 82,
      "arc": 0.765,
      "ent": 2112,
      "brk": 0,
      "frameMs": 8.4
    },
    {
      "t": 1981.6,
      "rD": 0.92,
      "hC": 0.6,
      "mA": 0.77,
      "tD": 0.67,
      "mode": "E_phrygian",
      "bpm": 82,
      "arc": 0.765,
      "ent": 2079,
      "brk": 0,
      "frameMs": 16.7
    },
    {
      "t": 1982.6,
      "rD": 0.93,
      "hC": 0.61,
      "mA": 0.77,
      "tD": 0.67,
      "mode": "E_phrygian",
      "bpm": 82,
      "arc": 0.765,
      "ent": 2096,
      "brk": 0,
      "frameMs": 8.3
    },
    {
      "t": 1983.6,
      "rD": 0.93,
      "hC": 0.61,
      "mA": 0.78,
      "tD": 0.68,
      "mode": "E_phrygian",
      "bpm": 82,
      "arc": 0.766,
      "ent": 2102,
      "brk": 0,
      "frameMs": 9.3
    },
    {
      "t": 1984.6,
      "rD": 0.94,
      "hC": 0.62,
      "mA": 0.78,
      "tD": 0.69,
      "mode": "E_phrygian",
      "bpm": 82,
      "arc": 0.766,
      "ent": 2124,
      "brk": 0,
      "frameMs": 8.4
    },
    {
      "t": 1985.6,
      "rD": 0.95,
      "hC": 0.63,
      "mA": 0.78,
      "tD": 0.7,
      "mode": "E_phrygian",
      "bpm": 82,
      "arc": 0.767,
      "ent": 2044,
      "brk": 0,
      "frameMs": 8.2
    },
    {
      "t": 1986.6,
      "rD": 0.96,
      "hC": 0.63,
      "mA": 0.79,
      "tD": 0.71,
      "mode": "E_phrygian",
      "bpm": 82,
      "arc": 0.767,
      "ent": 2029,
      "brk": 0,
      "frameMs": 17.3
    },
    {
      "t": 1987.6,
      "rD": 0.97,
      "hC": 0.64,
      "mA": 0.79,
      "tD": 0.71,
      "mode": "E_phrygian",
      "bpm": 82,
      "arc": 0.767,
      "ent": 2052,
      "brk": 0,
      "frameMs": 7.4
    },
    {
      "t": 1988.6,
      "rD": 0.97,
      "hC": 0.64,
      "mA": 0.79,
      "tD": 0.72,
      "mode": "E_phrygian",
      "bpm": 82,
      "arc": 0.768,
      "ent": 2153,
      "brk": 0,
      "frameMs": 16.9
    },
    {
      "t": 1989.6,
      "rD": 0.98,
      "hC": 0.65,
      "mA": 0.79,
      "tD": 0.72,
      "mode": "E_phrygian",
      "bpm": 82,
      "arc": 0.768,
      "ent": 2115,
      "brk": 0,
      "frameMs": 8.4
    },
    {
      "t": 1990.6,
      "rD": 0.97,
      "hC": 0.65,
      "mA": 0.79,
      "tD": 0.72,
      "mode": "E_phrygian",
      "bpm": 82,
      "arc": 0.769,
      "ent": 2129,
      "brk": 0,
      "frameMs": 8.4
    },
    {
      "t": 1991.6,
      "rD": 0.97,
      "hC": 0.64,
      "mA": 0.79,
      "tD": 0.72,
      "mode": "E_phrygian",
      "bpm": 82,
      "arc": 0.769,
      "ent": 2083,
      "brk": 0,
      "frameMs": 8.3
    },
    {
      "t": 1992.6,
      "rD": 0.96,
      "hC": 0.64,
      "mA": 0.78,
      "tD": 0.72,
      "mode": "E_phrygian",
      "bpm": 82,
      "arc": 0.769,
      "ent": 2111,
      "brk": 0,
      "frameMs": 8.7
    },
    {
      "t": 1993.7,
      "rD": 0.95,
      "hC": 0.63,
      "mA": 0.78,
      "tD": 0.71,
      "mode": "E_phrygian",
      "bpm": 82,
      "arc": 0.77,
      "ent": 2104,
      "brk": 0,
      "frameMs": 7.4
    },
    {
      "t": 1994.7,
      "rD": 0.94,
      "hC": 0.62,
      "mA": 0.77,
      "tD": 0.7,
      "mode": "E_phrygian",
      "bpm": 82,
      "arc": 0.77,
      "ent": 2095,
      "brk": 0,
      "frameMs": 8.4
    },
    {
      "t": 1995.7,
      "rD": 0.92,
      "hC": 0.61,
      "mA": 0.76,
      "tD": 0.69,
      "mode": "E_phrygian",
      "bpm": 82,
      "arc": 0.771,
      "ent": 2086,
      "brk": 0,
      "frameMs": 8.4
    },
    {
      "t": 1996.7,
      "rD": 0.9,
      "hC": 0.6,
      "mA": 0.75,
      "tD": 0.68,
      "mode": "E_phrygian",
      "bpm": 82,
      "arc": 0.771,
      "ent": 2102,
      "brk": 0,
      "frameMs": 8
    },
    {
      "t": 1997.7,
      "rD": 0.89,
      "hC": 0.59,
      "mA": 0.74,
      "tD": 0.66,
      "mode": "E_phrygian",
      "bpm": 82,
      "arc": 0.771,
      "ent": 2065,
      "brk": 0,
      "frameMs": 8.3
    },
    {
      "t": 1998.7,
      "rD": 0.87,
      "hC": 0.58,
      "mA": 0.73,
      "tD": 0.65,
      "mode": "E_phrygian",
      "bpm": 82,
      "arc": 0.772,
      "ent": 2109,
      "brk": 0,
      "frameMs": 8.2
    },
    {
      "t": 1999.7,
      "rD": 0.85,
      "hC": 0.57,
      "mA": 0.72,
      "tD": 0.64,
      "mode": "E_phrygian",
      "bpm": 82,
      "arc": 0.772,
      "ent": 2111,
      "brk": 0,
      "frameMs": 9.2
    },
    {
      "t": 2000.7,
      "rD": 0.84,
      "hC": 0.56,
      "mA": 0.71,
      "tD": 0.63,
      "mode": "E_phrygian",
      "bpm": 82,
      "arc": 0.773,
      "ent": 2171,
      "brk": 0,
      "frameMs": 9.1
    },
    {
      "t": 2001.7,
      "rD": 0.83,
      "hC": 0.56,
      "mA": 0.71,
      "tD": 0.63,
      "mode": "E_phrygian",
      "bpm": 82,
      "arc": 0.773,
      "ent": 2138,
      "brk": 0,
      "frameMs": 8.3
    },
    {
      "t": 2002.7,
      "rD": 0.83,
      "hC": 0.55,
      "mA": 0.7,
      "tD": 0.62,
      "mode": "E_phrygian",
      "bpm": 82,
      "arc": 0.773,
      "ent": 2153,
      "brk": 0,
      "frameMs": 8.4
    },
    {
      "t": 2003.7,
      "rD": 0.82,
      "hC": 0.55,
      "mA": 0.7,
      "tD": 0.62,
      "mode": "E_phrygian",
      "bpm": 82,
      "arc": 0.774,
      "ent": 2179,
      "brk": 0,
      "frameMs": 8.3
    },
    {
      "t": 2004.7,
      "rD": 0.82,
      "hC": 0.55,
      "mA": 0.7,
      "tD": 0.62,
      "mode": "E_phrygian",
      "bpm": 82,
      "arc": 0.774,
      "ent": 2157,
      "brk": 1,
      "frameMs": 9
    },
    {
      "t": 2005.7,
      "rD": 0.83,
      "hC": 0.56,
      "mA": 0.7,
      "tD": 0.63,
      "mode": "E_phrygian",
      "bpm": 82,
      "arc": 0.774,
      "ent": 2142,
      "brk": 1,
      "frameMs": 16.6
    },
    {
      "t": 2006.7,
      "rD": 0.83,
      "hC": 0.56,
      "mA": 0.7,
      "tD": 0.63,
      "mode": "E_phrygian",
      "bpm": 82,
      "arc": 0.775,
      "ent": 2136,
      "brk": 1,
      "frameMs": 16.7
    },
    {
      "t": 2007.7,
      "rD": 0.84,
      "hC": 0.57,
      "mA": 0.7,
      "tD": 0.64,
      "mode": "E_phrygian",
      "bpm": 82,
      "arc": 0.775,
      "ent": 2122,
      "brk": 1,
      "frameMs": 25.1
    },
    {
      "t": 2008.7,
      "rD": 0.85,
      "hC": 0.57,
      "mA": 0.71,
      "tD": 0.65,
      "mode": "E_phrygian",
      "bpm": 82,
      "arc": 0.776,
      "ent": 2107,
      "brk": 1,
      "frameMs": 25
    },
    {
      "t": 2009.7,
      "rD": 0.85,
      "hC": 0.58,
      "mA": 0.71,
      "tD": 0.66,
      "mode": "E_phrygian",
      "bpm": 82,
      "arc": 0.776,
      "ent": 2079,
      "brk": 1,
      "frameMs": 16.2
    },
    {
      "t": 2010.8,
      "rD": 0.86,
      "hC": 0.59,
      "mA": 0.71,
      "tD": 0.66,
      "mode": "E_phrygian",
      "bpm": 82,
      "arc": 0.776,
      "ent": 2108,
      "brk": 0,
      "frameMs": 9.1
    },
    {
      "t": 2011.8,
      "rD": 0.87,
      "hC": 0.59,
      "mA": 0.71,
      "tD": 0.67,
      "mode": "E_phrygian",
      "bpm": 82,
      "arc": 0.777,
      "ent": 2099,
      "brk": 0,
      "frameMs": 8.2
    },
    {
      "t": 2012.8,
      "rD": 0.87,
      "hC": 0.59,
      "mA": 0.71,
      "tD": 0.67,
      "mode": "E_phrygian",
      "bpm": 82,
      "arc": 0.777,
      "ent": 2132,
      "brk": 0,
      "frameMs": 8.3
    },
    {
      "t": 2013.8,
      "rD": 0.87,
      "hC": 0.59,
      "mA": 0.71,
      "tD": 0.67,
      "mode": "E_phrygian",
      "bpm": 82,
      "arc": 0.778,
      "ent": 2145,
      "brk": 0,
      "frameMs": 16.6
    },
    {
      "t": 2014.8,
      "rD": 0.86,
      "hC": 0.59,
      "mA": 0.71,
      "tD": 0.67,
      "mode": "E_phrygian",
      "bpm": 82,
      "arc": 0.778,
      "ent": 2123,
      "brk": 0,
      "frameMs": 8.4
    },
    {
      "t": 2015.8,
      "rD": 0.85,
      "hC": 0.58,
      "mA": 0.7,
      "tD": 0.66,
      "mode": "E_phrygian",
      "bpm": 82,
      "arc": 0.778,
      "ent": 2120,
      "brk": 0,
      "frameMs": 8.4
    },
    {
      "t": 2016.8,
      "rD": 0.84,
      "hC": 0.58,
      "mA": 0.69,
      "tD": 0.66,
      "mode": "E_phrygian",
      "bpm": 82,
      "arc": 0.779,
      "ent": 2162,
      "brk": 0,
      "frameMs": 8.4
    },
    {
      "t": 2017.8,
      "rD": 0.83,
      "hC": 0.57,
      "mA": 0.69,
      "tD": 0.65,
      "mode": "E_phrygian",
      "bpm": 82,
      "arc": 0.779,
      "ent": 2134,
      "brk": 0,
      "frameMs": 8.2
    },
    {
      "t": 2018.8,
      "rD": 0.81,
      "hC": 0.56,
      "mA": 0.68,
      "tD": 0.64,
      "mode": "E_phrygian",
      "bpm": 82,
      "arc": 0.78,
      "ent": 2124,
      "brk": 0,
      "frameMs": 8.4
    },
    {
      "t": 2019.8,
      "rD": 0.79,
      "hC": 0.55,
      "mA": 0.67,
      "tD": 0.62,
      "mode": "E_phrygian",
      "bpm": 82,
      "arc": 0.78,
      "ent": 2133,
      "brk": 0,
      "frameMs": 16.8
    },
    {
      "t": 2020.8,
      "rD": 0.77,
      "hC": 0.53,
      "mA": 0.66,
      "tD": 0.61,
      "mode": "E_phrygian",
      "bpm": 82,
      "arc": 0.78,
      "ent": 2144,
      "brk": 0,
      "frameMs": 8.3
    },
    {
      "t": 2021.8,
      "rD": 0.76,
      "hC": 0.52,
      "mA": 0.65,
      "tD": 0.6,
      "mode": "E_phrygian",
      "bpm": 82,
      "arc": 0.781,
      "ent": 2105,
      "brk": 0,
      "frameMs": 16.6
    },
    {
      "t": 2022.8,
      "rD": 0.74,
      "hC": 0.51,
      "mA": 0.64,
      "tD": 0.59,
      "mode": "E_phrygian",
      "bpm": 82,
      "arc": 0.781,
      "ent": 2085,
      "brk": 0,
      "frameMs": 8.4
    },
    {
      "t": 2023.8,
      "rD": 0.73,
      "hC": 0.51,
      "mA": 0.63,
      "tD": 0.58,
      "mode": "E_phrygian",
      "bpm": 82,
      "arc": 0.781,
      "ent": 2044,
      "brk": 0,
      "frameMs": 16.7
    },
    {
      "t": 2024.8,
      "rD": 0.72,
      "hC": 0.5,
      "mA": 0.63,
      "tD": 0.57,
      "mode": "E_phrygian",
      "bpm": 82,
      "arc": 0.782,
      "ent": 2006,
      "brk": 0,
      "frameMs": 8.2
    },
    {
      "t": 2025.8,
      "rD": 0.72,
      "hC": 0.5,
      "mA": 0.62,
      "tD": 0.57,
      "mode": "E_phrygian",
      "bpm": 82,
      "arc": 0.782,
      "ent": 2021,
      "brk": 0,
      "frameMs": 8.3
    },
    {
      "t": 2026.8,
      "rD": 0.71,
      "hC": 0.5,
      "mA": 0.62,
      "tD": 0.57,
      "mode": "E_phrygian",
      "bpm": 82,
      "arc": 0.783,
      "ent": 2023,
      "brk": 0,
      "frameMs": 8.4
    },
    {
      "t": 2027.8,
      "rD": 0.72,
      "hC": 0.5,
      "mA": 0.62,
      "tD": 0.57,
      "mode": "E_phrygian",
      "bpm": 82,
      "arc": 0.783,
      "ent": 2019,
      "brk": 0,
      "frameMs": 16.6
    },
    {
      "t": 2028.8,
      "rD": 0.72,
      "hC": 0.5,
      "mA": 0.62,
      "tD": 0.58,
      "mode": "E_phrygian",
      "bpm": 82,
      "arc": 0.783,
      "ent": 2029,
      "brk": 0,
      "frameMs": 16.5
    },
    {
      "t": 2029.8,
      "rD": 0.73,
      "hC": 0.51,
      "mA": 0.63,
      "tD": 0.59,
      "mode": "E_phrygian",
      "bpm": 82,
      "arc": 0.784,
      "ent": 2090,
      "brk": 0,
      "frameMs": 8.2
    },
    {
      "t": 2030.9,
      "rD": 0.74,
      "hC": 0.52,
      "mA": 0.63,
      "tD": 0.59,
      "mode": "E_phrygian",
      "bpm": 82,
      "arc": 0.784,
      "ent": 2067,
      "brk": 0,
      "frameMs": 8.5
    },
    {
      "t": 2031.9,
      "rD": 0.75,
      "hC": 0.52,
      "mA": 0.63,
      "tD": 0.6,
      "mode": "E_phrygian",
      "bpm": 82,
      "arc": 0.785,
      "ent": 2054,
      "brk": 0,
      "frameMs": 16.7
    },
    {
      "t": 2032.9,
      "rD": 0.75,
      "hC": 0.53,
      "mA": 0.64,
      "tD": 0.61,
      "mode": "E_phrygian",
      "bpm": 82,
      "arc": 0.785,
      "ent": 2076,
      "brk": 0,
      "frameMs": 8.4
    },
    {
      "t": 2033.9,
      "rD": 0.76,
      "hC": 0.54,
      "mA": 0.64,
      "tD": 0.62,
      "mode": "E_phrygian",
      "bpm": 82,
      "arc": 0.785,
      "ent": 2038,
      "brk": 0,
      "frameMs": 7.6
    },
    {
      "t": 2034.9,
      "rD": 0.77,
      "hC": 0.54,
      "mA": 0.64,
      "tD": 0.62,
      "mode": "E_phrygian",
      "bpm": 82,
      "arc": 0.786,
      "ent": 2027,
      "brk": 0,
      "frameMs": 9
    },
    {
      "t": 2035.9,
      "rD": 0.77,
      "hC": 0.54,
      "mA": 0.64,
      "tD": 0.63,
      "mode": "E_phrygian",
      "bpm": 82,
      "arc": 0.786,
      "ent": 2084,
      "brk": 0,
      "frameMs": 7.9
    },
    {
      "t": 2036.9,
      "rD": 0.77,
      "hC": 0.55,
      "mA": 0.64,
      "tD": 0.63,
      "mode": "E_phrygian",
      "bpm": 82,
      "arc": 0.787,
      "ent": 2100,
      "brk": 0,
      "frameMs": 8.3
    },
    {
      "t": 2037.9,
      "rD": 0.77,
      "hC": 0.54,
      "mA": 0.64,
      "tD": 0.63,
      "mode": "E_phrygian",
      "bpm": 82,
      "arc": 0.787,
      "ent": 2127,
      "brk": 0,
      "frameMs": 8.1
    },
    {
      "t": 2038.9,
      "rD": 0.76,
      "hC": 0.54,
      "mA": 0.64,
      "tD": 0.62,
      "mode": "E_phrygian",
      "bpm": 82,
      "arc": 0.787,
      "ent": 2059,
      "brk": 0,
      "frameMs": 8.3
    },
    {
      "t": 2039.9,
      "rD": 0.75,
      "hC": 0.53,
      "mA": 0.63,
      "tD": 0.62,
      "mode": "E_phrygian",
      "bpm": 82,
      "arc": 0.788,
      "ent": 2060,
      "brk": 0,
      "frameMs": 8.4
    },
    {
      "t": 2040.9,
      "rD": 0.74,
      "hC": 0.52,
      "mA": 0.62,
      "tD": 0.61,
      "mode": "E_phrygian",
      "bpm": 82,
      "arc": 0.788,
      "ent": 2027,
      "brk": 0,
      "frameMs": 8.4
    },
    {
      "t": 2041.9,
      "rD": 0.73,
      "hC": 0.52,
      "mA": 0.62,
      "tD": 0.6,
      "mode": "E_phrygian",
      "bpm": 82,
      "arc": 0.788,
      "ent": 2011,
      "brk": 0,
      "frameMs": 8.2
    },
    {
      "t": 2042.9,
      "rD": 0.71,
      "hC": 0.51,
      "mA": 0.61,
      "tD": 0.59,
      "mode": "E_phrygian",
      "bpm": 82,
      "arc": 0.789,
      "ent": 1959,
      "brk": 0,
      "frameMs": 8.9
    },
    {
      "t": 2043.9,
      "rD": 0.7,
      "hC": 0.5,
      "mA": 0.6,
      "tD": 0.57,
      "mode": "E_phrygian",
      "bpm": 82,
      "arc": 0.789,
      "ent": 1985,
      "brk": 0,
      "frameMs": 8.5
    },
    {
      "t": 2044.9,
      "rD": 0.68,
      "hC": 0.49,
      "mA": 0.59,
      "tD": 0.56,
      "mode": "E_phrygian",
      "bpm": 82,
      "arc": 0.79,
      "ent": 1993,
      "brk": 0,
      "frameMs": 15.8
    },
    {
      "t": 2045.9,
      "rD": 0.67,
      "hC": 0.48,
      "mA": 0.59,
      "tD": 0.56,
      "mode": "E_phrygian",
      "bpm": 82,
      "arc": 0.79,
      "ent": 2046,
      "brk": 0,
      "frameMs": 7.9
    },
    {
      "t": 2046.9,
      "rD": 0.66,
      "hC": 0.47,
      "mA": 0.58,
      "tD": 0.55,
      "mode": "E_phrygian",
      "bpm": 82,
      "arc": 0.79,
      "ent": 2007,
      "brk": 0,
      "frameMs": 8.3
    },
    {
      "t": 2047.9,
      "rD": 0.66,
      "hC": 0.47,
      "mA": 0.58,
      "tD": 0.54,
      "mode": "E_phrygian",
      "bpm": 82,
      "arc": 0.791,
      "ent": 1994,
      "brk": 0,
      "frameMs": 9.3
    },
    {
      "t": 2048.9,
      "rD": 0.66,
      "hC": 0.47,
      "mA": 0.58,
      "tD": 0.54,
      "mode": "E_phrygian",
      "bpm": 82,
      "arc": 0.791,
      "ent": 1989,
      "brk": 0,
      "frameMs": 16.7
    },
    {
      "t": 2049.9,
      "rD": 0.66,
      "hC": 0.47,
      "mA": 0.58,
      "tD": 0.55,
      "mode": "E_phrygian",
      "bpm": 82,
      "arc": 0.792,
      "ent": 1949,
      "brk": 0,
      "frameMs": 16.8
    },
    {
      "t": 2050.9,
      "rD": 0.66,
      "hC": 0.47,
      "mA": 0.58,
      "tD": 0.55,
      "mode": "E_phrygian",
      "bpm": 82,
      "arc": 0.792,
      "ent": 1952,
      "brk": 0,
      "frameMs": 16.6
    },
    {
      "t": 2051.9,
      "rD": 0.67,
      "hC": 0.48,
      "mA": 0.59,
      "tD": 0.56,
      "mode": "E_phrygian",
      "bpm": 82,
      "arc": 0.792,
      "ent": 1944,
      "brk": 0,
      "frameMs": 17.5
    },
    {
      "t": 2052.9,
      "rD": 0.68,
      "hC": 0.49,
      "mA": 0.59,
      "tD": 0.57,
      "mode": "E_phrygian",
      "bpm": 82,
      "arc": 0.793,
      "ent": 1901,
      "brk": 0,
      "frameMs": 8.3
    },
    {
      "t": 2054,
      "rD": 0.69,
      "hC": 0.49,
      "mA": 0.6,
      "tD": 0.58,
      "mode": "E_phrygian",
      "bpm": 82,
      "arc": 0.793,
      "ent": 1926,
      "brk": 0,
      "frameMs": 8.3
    },
    {
      "t": 2055,
      "rD": 0.7,
      "hC": 0.5,
      "mA": 0.6,
      "tD": 0.59,
      "mode": "E_phrygian",
      "bpm": 82,
      "arc": 0.794,
      "ent": 1747,
      "brk": 1,
      "frameMs": 8.6
    },
    {
      "t": 2056,
      "rD": 0.71,
      "hC": 0.51,
      "mA": 0.61,
      "tD": 0.6,
      "mode": "E_phrygian",
      "bpm": 82,
      "arc": 0.794,
      "ent": 1805,
      "brk": 1,
      "frameMs": 16.7
    },
    {
      "t": 2057,
      "rD": 0.72,
      "hC": 0.52,
      "mA": 0.61,
      "tD": 0.6,
      "mode": "E_phrygian",
      "bpm": 82,
      "arc": 0.794,
      "ent": 1872,
      "brk": 1,
      "frameMs": 16.7
    },
    {
      "t": 2058,
      "rD": 0.73,
      "hC": 0.52,
      "mA": 0.62,
      "tD": 0.61,
      "mode": "E_phrygian",
      "bpm": 82,
      "arc": 0.795,
      "ent": 1919,
      "brk": 1,
      "frameMs": 17
    },
    {
      "t": 2059,
      "rD": 0.73,
      "hC": 0.52,
      "mA": 0.62,
      "tD": 0.61,
      "mode": "E_phrygian",
      "bpm": 82,
      "arc": 0.795,
      "ent": 1973,
      "brk": 1,
      "frameMs": 16.7
    },
    {
      "t": 2060,
      "rD": 0.73,
      "hC": 0.52,
      "mA": 0.62,
      "tD": 0.62,
      "mode": "E_phrygian",
      "bpm": 82,
      "arc": 0.795,
      "ent": 2006,
      "brk": 1,
      "frameMs": 17.1
    },
    {
      "t": 2061,
      "rD": 0.72,
      "hC": 0.52,
      "mA": 0.62,
      "tD": 0.61,
      "mode": "E_phrygian",
      "bpm": 82,
      "arc": 0.796,
      "ent": 1995,
      "brk": 1,
      "frameMs": 16.7
    },
    {
      "t": 2062,
      "rD": 0.71,
      "hC": 0.52,
      "mA": 0.62,
      "tD": 0.61,
      "mode": "E_phrygian",
      "bpm": 82,
      "arc": 0.796,
      "ent": 2023,
      "brk": 1,
      "frameMs": 16.4
    },
    {
      "t": 2063.1,
      "rD": 0.7,
      "hC": 0.51,
      "mA": 0.61,
      "tD": 0.6,
      "mode": "E_phrygian",
      "bpm": 82,
      "arc": 0.797,
      "ent": 1976,
      "brk": 1,
      "frameMs": 16.6
    },
    {
      "t": 2064.1,
      "rD": 0.68,
      "hC": 0.5,
      "mA": 0.61,
      "tD": 0.6,
      "mode": "E_phrygian",
      "bpm": 82,
      "arc": 0.797,
      "ent": 1682,
      "brk": 1,
      "frameMs": 16.2
    },
    {
      "t": 2065.1,
      "rD": 0.66,
      "hC": 0.49,
      "mA": 0.6,
      "tD": 0.59,
      "mode": "E_phrygian",
      "bpm": 82,
      "arc": 0.797,
      "ent": 1416,
      "brk": 1,
      "frameMs": 16.7
    },
    {
      "t": 2066.1,
      "rD": 0.64,
      "hC": 0.48,
      "mA": 0.59,
      "tD": 0.57,
      "mode": "E_phrygian",
      "bpm": 82,
      "arc": 0.798,
      "ent": 1164,
      "brk": 0,
      "frameMs": 8.3
    },
    {
      "t": 2067.1,
      "rD": 0.62,
      "hC": 0.47,
      "mA": 0.58,
      "tD": 0.56,
      "mode": "E_phrygian",
      "bpm": 82,
      "arc": 0.798,
      "ent": 923,
      "brk": 0,
      "frameMs": 17.1
    },
    {
      "t": 2068.1,
      "rD": 0.6,
      "hC": 0.45,
      "mA": 0.58,
      "tD": 0.55,
      "mode": "E_phrygian",
      "bpm": 82,
      "arc": 0.799,
      "ent": 792,
      "brk": 0,
      "frameMs": 16.6
    },
    {
      "t": 2069.1,
      "rD": 0.58,
      "hC": 0.44,
      "mA": 0.57,
      "tD": 0.55,
      "mode": "E_phrygian",
      "bpm": 82,
      "arc": 0.799,
      "ent": 638,
      "brk": 0,
      "frameMs": 8.3
    },
    {
      "t": 2070.1,
      "rD": 0.57,
      "hC": 0.44,
      "mA": 0.57,
      "tD": 0.54,
      "mode": "E_phrygian",
      "bpm": 82,
      "arc": 0.799,
      "ent": 553,
      "brk": 0,
      "frameMs": 16.6
    },
    {
      "t": 2071.1,
      "rD": 0.56,
      "hC": 0.43,
      "mA": 0.56,
      "tD": 0.54,
      "mode": "E_phrygian",
      "bpm": 82,
      "arc": 0.8,
      "ent": 536,
      "brk": 0,
      "frameMs": 16.6
    },
    {
      "t": 2072.1,
      "rD": 0.55,
      "hC": 0.43,
      "mA": 0.56,
      "tD": 0.53,
      "mode": "E_phrygian",
      "bpm": 82,
      "arc": 0.8,
      "ent": 502,
      "brk": 0,
      "frameMs": 16.4
    },
    {
      "t": 2073.1,
      "rD": 0.54,
      "hC": 0.43,
      "mA": 0.56,
      "tD": 0.54,
      "mode": "E_phrygian",
      "bpm": 82,
      "arc": 0.801,
      "ent": 549,
      "brk": 0,
      "frameMs": 8.3
    },
    {
      "t": 2074.1,
      "rD": 0.54,
      "hC": 0.43,
      "mA": 0.57,
      "tD": 0.54,
      "mode": "E_phrygian",
      "bpm": 82,
      "arc": 0.801,
      "ent": 537,
      "brk": 0,
      "frameMs": 7.7
    },
    {
      "t": 2075.1,
      "rD": 0.54,
      "hC": 0.43,
      "mA": 0.57,
      "tD": 0.55,
      "mode": "E_phrygian",
      "bpm": 82,
      "arc": 0.801,
      "ent": 532,
      "brk": 0,
      "frameMs": 7.9
    },
    {
      "t": 2076.1,
      "rD": 0.54,
      "hC": 0.44,
      "mA": 0.57,
      "tD": 0.56,
      "mode": "E_phrygian",
      "bpm": 82,
      "arc": 0.802,
      "ent": 556,
      "brk": 0,
      "frameMs": 9.3
    },
    {
      "t": 2077.1,
      "rD": 0.54,
      "hC": 0.44,
      "mA": 0.58,
      "tD": 0.57,
      "mode": "E_phrygian",
      "bpm": 82,
      "arc": 0.802,
      "ent": 559,
      "brk": 0,
      "frameMs": 7.5
    },
    {
      "t": 2078.2,
      "rD": 0.55,
      "hC": 0.45,
      "mA": 0.58,
      "tD": 0.58,
      "mode": "E_phrygian",
      "bpm": 82,
      "arc": 0.803,
      "ent": 554,
      "brk": 0,
      "frameMs": 9
    },
    {
      "t": 2079.2,
      "rD": 0.55,
      "hC": 0.45,
      "mA": 0.59,
      "tD": 0.58,
      "mode": "E_phrygian",
      "bpm": 82,
      "arc": 0.803,
      "ent": 569,
      "brk": 0,
      "frameMs": 9.3
    },
    {
      "t": 2080.2,
      "rD": 0.55,
      "hC": 0.45,
      "mA": 0.59,
      "tD": 0.59,
      "mode": "E_phrygian",
      "bpm": 82,
      "arc": 0.803,
      "ent": 553,
      "brk": 0,
      "frameMs": 8.3
    },
    {
      "t": 2081.2,
      "rD": 0.55,
      "hC": 0.46,
      "mA": 0.6,
      "tD": 0.6,
      "mode": "E_phrygian",
      "bpm": 82,
      "arc": 0.804,
      "ent": 566,
      "brk": 0,
      "frameMs": 7.9
    },
    {
      "t": 2082.2,
      "rD": 0.54,
      "hC": 0.46,
      "mA": 0.6,
      "tD": 0.6,
      "mode": "E_phrygian",
      "bpm": 82,
      "arc": 0.804,
      "ent": 585,
      "brk": 0,
      "frameMs": 9.4
    },
    {
      "t": 2083.2,
      "rD": 0.54,
      "hC": 0.45,
      "mA": 0.6,
      "tD": 0.6,
      "mode": "E_phrygian",
      "bpm": 82,
      "arc": 0.804,
      "ent": 587,
      "brk": 0,
      "frameMs": 8.4
    },
    {
      "t": 2084.2,
      "rD": 0.52,
      "hC": 0.45,
      "mA": 0.6,
      "tD": 0.6,
      "mode": "E_phrygian",
      "bpm": 82,
      "arc": 0.805,
      "ent": 603,
      "brk": 0,
      "frameMs": 8.3
    },
    {
      "t": 2085.2,
      "rD": 0.51,
      "hC": 0.44,
      "mA": 0.59,
      "tD": 0.59,
      "mode": "E_phrygian",
      "bpm": 82,
      "arc": 0.805,
      "ent": 612,
      "brk": 0,
      "frameMs": 8.3
    },
    {
      "t": 2086.2,
      "rD": 0.49,
      "hC": 0.43,
      "mA": 0.59,
      "tD": 0.59,
      "mode": "E_phrygian",
      "bpm": 82,
      "arc": 0.806,
      "ent": 544,
      "brk": 0,
      "frameMs": 8.8
    },
    {
      "t": 2087.2,
      "rD": 0.47,
      "hC": 0.42,
      "mA": 0.58,
      "tD": 0.58,
      "mode": "E_phrygian",
      "bpm": 82,
      "arc": 0.806,
      "ent": 575,
      "brk": 0,
      "frameMs": 8.4
    },
    {
      "t": 2088.2,
      "rD": 0.45,
      "hC": 0.41,
      "mA": 0.57,
      "tD": 0.57,
      "mode": "E_phrygian",
      "bpm": 82,
      "arc": 0.806,
      "ent": 589,
      "brk": 0,
      "frameMs": 8.6
    },
    {
      "t": 2089.2,
      "rD": 0.43,
      "hC": 0.4,
      "mA": 0.56,
      "tD": 0.56,
      "mode": "E_phrygian",
      "bpm": 82,
      "arc": 0.807,
      "ent": 598,
      "brk": 0,
      "frameMs": 7.4
    },
    {
      "t": 2090.2,
      "rD": 0.4,
      "hC": 0.38,
      "mA": 0.56,
      "tD": 0.55,
      "mode": "E_phrygian",
      "bpm": 82,
      "arc": 0.807,
      "ent": 575,
      "brk": 0,
      "frameMs": 8.4
    },
    {
      "t": 2091.2,
      "rD": 0.38,
      "hC": 0.37,
      "mA": 0.55,
      "tD": 0.54,
      "mode": "E_phrygian",
      "bpm": 82,
      "arc": 0.808,
      "ent": 615,
      "brk": 0,
      "frameMs": 9.3
    },
    {
      "t": 2092.2,
      "rD": 0.37,
      "hC": 0.36,
      "mA": 0.54,
      "tD": 0.53,
      "mode": "E_phrygian",
      "bpm": 82,
      "arc": 0.808,
      "ent": 595,
      "brk": 0,
      "frameMs": 8.3
    },
    {
      "t": 2093.2,
      "rD": 0.35,
      "hC": 0.35,
      "mA": 0.54,
      "tD": 0.52,
      "mode": "E_phrygian",
      "bpm": 82,
      "arc": 0.808,
      "ent": 556,
      "brk": 0,
      "frameMs": 8.4
    },
    {
      "t": 2094.2,
      "rD": 0.34,
      "hC": 0.35,
      "mA": 0.54,
      "tD": 0.52,
      "mode": "E_phrygian",
      "bpm": 82,
      "arc": 0.809,
      "ent": 519,
      "brk": 0,
      "frameMs": 8.4
    },
    {
      "t": 2095.2,
      "rD": 0.33,
      "hC": 0.35,
      "mA": 0.54,
      "tD": 0.52,
      "mode": "E_phrygian",
      "bpm": 82,
      "arc": 0.809,
      "ent": 531,
      "brk": 0,
      "frameMs": 8.4
    },
    {
      "t": 2096.2,
      "rD": 0.33,
      "hC": 0.35,
      "mA": 0.54,
      "tD": 0.52,
      "mode": "E_phrygian",
      "bpm": 82,
      "arc": 0.81,
      "ent": 464,
      "brk": 0,
      "frameMs": 7.3
    },
    {
      "t": 2097.2,
      "rD": 0.33,
      "hC": 0.35,
      "mA": 0.54,
      "tD": 0.53,
      "mode": "E_phrygian",
      "bpm": 82,
      "arc": 0.81,
      "ent": 476,
      "brk": 0,
      "frameMs": 8.4
    },
    {
      "t": 2098.3,
      "rD": 0.33,
      "hC": 0.35,
      "mA": 0.54,
      "tD": 0.53,
      "mode": "E_phrygian",
      "bpm": 82,
      "arc": 0.81,
      "ent": 426,
      "brk": 0,
      "frameMs": 8.3
    },
    {
      "t": 2099.3,
      "rD": 0.33,
      "hC": 0.36,
      "mA": 0.55,
      "tD": 0.54,
      "mode": "E_phrygian",
      "bpm": 82,
      "arc": 0.811,
      "ent": 383,
      "brk": 0,
      "frameMs": 8.5
    },
    {
      "t": 2100.3,
      "rD": 0.34,
      "hC": 0.36,
      "mA": 0.55,
      "tD": 0.55,
      "mode": "E_phrygian",
      "bpm": 82,
      "arc": 0.811,
      "ent": 400,
      "brk": 0,
      "frameMs": 8.3
    },
    {
      "t": 2101.3,
      "rD": 0.35,
      "hC": 0.37,
      "mA": 0.56,
      "tD": 0.56,
      "mode": "E_phrygian",
      "bpm": 82,
      "arc": 0.811,
      "ent": 395,
      "brk": 0,
      "frameMs": 8.3
    },
    {
      "t": 2102.3,
      "rD": 0.35,
      "hC": 0.38,
      "mA": 0.57,
      "tD": 0.57,
      "mode": "E_phrygian",
      "bpm": 82,
      "arc": 0.812,
      "ent": 367,
      "brk": 0,
      "frameMs": 8.3
    },
    {
      "t": 2103.3,
      "rD": 0.36,
      "hC": 0.38,
      "mA": 0.57,
      "tD": 0.58,
      "mode": "E_phrygian",
      "bpm": 82,
      "arc": 0.812,
      "ent": 378,
      "brk": 0,
      "frameMs": 8.4
    },
    {
      "t": 2104.3,
      "rD": 0.36,
      "hC": 0.39,
      "mA": 0.57,
      "tD": 0.58,
      "mode": "E_phrygian",
      "bpm": 82,
      "arc": 0.813,
      "ent": 371,
      "brk": 0,
      "frameMs": 8.4
    },
    {
      "t": 2105.3,
      "rD": 0.36,
      "hC": 0.39,
      "mA": 0.58,
      "tD": 0.59,
      "mode": "E_phrygian",
      "bpm": 82,
      "arc": 0.813,
      "ent": 374,
      "brk": 0,
      "frameMs": 8.6
    },
    {
      "t": 2106.3,
      "rD": 0.36,
      "hC": 0.39,
      "mA": 0.58,
      "tD": 0.59,
      "mode": "E_phrygian",
      "bpm": 82,
      "arc": 0.813,
      "ent": 371,
      "brk": 0,
      "frameMs": 9.3
    },
    {
      "t": 2107.3,
      "rD": 0.36,
      "hC": 0.39,
      "mA": 0.57,
      "tD": 0.59,
      "mode": "E_phrygian",
      "bpm": 82,
      "arc": 0.814,
      "ent": 363,
      "brk": 0,
      "frameMs": 7.4
    },
    {
      "t": 2108.3,
      "rD": 0.35,
      "hC": 0.38,
      "mA": 0.57,
      "tD": 0.58,
      "mode": "E_phrygian",
      "bpm": 82,
      "arc": 0.814,
      "ent": 378,
      "brk": 0,
      "frameMs": 9.1
    },
    {
      "t": 2109.3,
      "rD": 0.34,
      "hC": 0.37,
      "mA": 0.57,
      "tD": 0.58,
      "mode": "E_phrygian",
      "bpm": 82,
      "arc": 0.815,
      "ent": 368,
      "brk": 0,
      "frameMs": 8.4
    },
    {
      "t": 2110.3,
      "rD": 0.33,
      "hC": 0.37,
      "mA": 0.56,
      "tD": 0.57,
      "mode": "E_phrygian",
      "bpm": 82,
      "arc": 0.815,
      "ent": 347,
      "brk": 0,
      "frameMs": 8.4
    },
    {
      "t": 2111.3,
      "rD": 0.31,
      "hC": 0.36,
      "mA": 0.55,
      "tD": 0.56,
      "mode": "E_phrygian",
      "bpm": 82,
      "arc": 0.815,
      "ent": 359,
      "brk": 0,
      "frameMs": 8.3
    },
    {
      "t": 2112.3,
      "rD": 0.3,
      "hC": 0.35,
      "mA": 0.55,
      "tD": 0.55,
      "mode": "E_phrygian",
      "bpm": 82,
      "arc": 0.816,
      "ent": 371,
      "brk": 0,
      "frameMs": 8.7
    },
    {
      "t": 2113.3,
      "rD": 0.28,
      "hC": 0.34,
      "mA": 0.54,
      "tD": 0.54,
      "mode": "E_phrygian",
      "bpm": 82,
      "arc": 0.816,
      "ent": 375,
      "brk": 0,
      "frameMs": 8.7
    },
    {
      "t": 2114.3,
      "rD": 0.27,
      "hC": 0.33,
      "mA": 0.54,
      "tD": 0.53,
      "mode": "E_phrygian",
      "bpm": 82,
      "arc": 0.817,
      "ent": 372,
      "brk": 0,
      "frameMs": 8.7
    },
    {
      "t": 2115.3,
      "rD": 0.26,
      "hC": 0.32,
      "mA": 0.53,
      "tD": 0.52,
      "mode": "E_phrygian",
      "bpm": 82,
      "arc": 0.817,
      "ent": 358,
      "brk": 0,
      "frameMs": 8.3
    },
    {
      "t": 2116.3,
      "rD": 0.26,
      "hC": 0.32,
      "mA": 0.53,
      "tD": 0.51,
      "mode": "E_phrygian",
      "bpm": 82,
      "arc": 0.817,
      "ent": 373,
      "brk": 1,
      "frameMs": 8.3
    },
    {
      "t": 2117.3,
      "rD": 0.25,
      "hC": 0.32,
      "mA": 0.53,
      "tD": 0.51,
      "mode": "E_phrygian",
      "bpm": 82,
      "arc": 0.818,
      "ent": 354,
      "brk": 1,
      "frameMs": 8
    },
    {
      "t": 2118.3,
      "rD": 0.25,
      "hC": 0.32,
      "mA": 0.53,
      "tD": 0.51,
      "mode": "E_phrygian",
      "bpm": 82,
      "arc": 0.818,
      "ent": 372,
      "brk": 1,
      "frameMs": 8.4
    },
    {
      "t": 2119.3,
      "rD": 0.26,
      "hC": 0.32,
      "mA": 0.53,
      "tD": 0.51,
      "mode": "E_phrygian",
      "bpm": 82,
      "arc": 0.818,
      "ent": 405,
      "brk": 1,
      "frameMs": 16.4
    },
    {
      "t": 2120.3,
      "rD": 0.26,
      "hC": 0.32,
      "mA": 0.53,
      "tD": 0.52,
      "mode": "E_phrygian",
      "bpm": 82,
      "arc": 0.819,
      "ent": 404,
      "brk": 1,
      "frameMs": 6.5
    },
    {
      "t": 2121.3,
      "rD": 0.27,
      "hC": 0.33,
      "mA": 0.53,
      "tD": 0.53,
      "mode": "E_phrygian",
      "bpm": 82,
      "arc": 0.819,
      "ent": 367,
      "brk": 1,
      "frameMs": 8.4
    },
    {
      "t": 2122.3,
      "rD": 0.28,
      "hC": 0.34,
      "mA": 0.54,
      "tD": 0.54,
      "mode": "E_phrygian",
      "bpm": 82,
      "arc": 0.82,
      "ent": 391,
      "brk": 1,
      "frameMs": 8.3
    },
    {
      "t": 2123.3,
      "rD": 0.3,
      "hC": 0.35,
      "mA": 0.55,
      "tD": 0.55,
      "mode": "E_phrygian",
      "bpm": 82,
      "arc": 0.82,
      "ent": 368,
      "brk": 1,
      "frameMs": 6.3
    },
    {
      "t": 2124.4,
      "rD": 0.31,
      "hC": 0.35,
      "mA": 0.55,
      "tD": 0.56,
      "mode": "E_phrygian",
      "bpm": 82,
      "arc": 0.82,
      "ent": 374,
      "brk": 0,
      "frameMs": 9.7
    },
    {
      "t": 2125.4,
      "rD": 0.32,
      "hC": 0.36,
      "mA": 0.56,
      "tD": 0.56,
      "mode": "E_phrygian",
      "bpm": 82,
      "arc": 0.821,
      "ent": 355,
      "brk": 0,
      "frameMs": 8.3
    },
    {
      "t": 2126.4,
      "rD": 0.33,
      "hC": 0.37,
      "mA": 0.56,
      "tD": 0.57,
      "mode": "E_phrygian",
      "bpm": 82,
      "arc": 0.821,
      "ent": 332,
      "brk": 0,
      "frameMs": 8.3
    },
    {
      "t": 2127.4,
      "rD": 0.34,
      "hC": 0.37,
      "mA": 0.56,
      "tD": 0.58,
      "mode": "E_phrygian",
      "bpm": 82,
      "arc": 0.822,
      "ent": 328,
      "brk": 0,
      "frameMs": 8.3
    },
    {
      "t": 2128.4,
      "rD": 0.34,
      "hC": 0.38,
      "mA": 0.57,
      "tD": 0.58,
      "mode": "E_phrygian",
      "bpm": 82,
      "arc": 0.822,
      "ent": 324,
      "brk": 0,
      "frameMs": 9.4
    },
    {
      "t": 2129.4,
      "rD": 0.34,
      "hC": 0.38,
      "mA": 0.57,
      "tD": 0.58,
      "mode": "E_phrygian",
      "bpm": 82,
      "arc": 0.822,
      "ent": 336,
      "brk": 0,
      "frameMs": 8.4
    },
    {
      "t": 2130.4,
      "rD": 0.34,
      "hC": 0.37,
      "mA": 0.56,
      "tD": 0.58,
      "mode": "E_phrygian",
      "bpm": 82,
      "arc": 0.823,
      "ent": 359,
      "brk": 0,
      "frameMs": 9.3
    },
    {
      "t": 2131.4,
      "rD": 0.33,
      "hC": 0.37,
      "mA": 0.56,
      "tD": 0.57,
      "mode": "E_phrygian",
      "bpm": 82,
      "arc": 0.823,
      "ent": 357,
      "brk": 0,
      "frameMs": 7.6
    },
    {
      "t": 2132.4,
      "rD": 0.32,
      "hC": 0.36,
      "mA": 0.55,
      "tD": 0.56,
      "mode": "E_phrygian",
      "bpm": 82,
      "arc": 0.824,
      "ent": 401,
      "brk": 0,
      "frameMs": 6.8
    },
    {
      "t": 2133.4,
      "rD": 0.31,
      "hC": 0.35,
      "mA": 0.55,
      "tD": 0.55,
      "mode": "E_phrygian",
      "bpm": 82,
      "arc": 0.824,
      "ent": 380,
      "brk": 0,
      "frameMs": 8.7
    },
    {
      "t": 2134.4,
      "rD": 0.29,
      "hC": 0.34,
      "mA": 0.54,
      "tD": 0.54,
      "mode": "E_phrygian",
      "bpm": 82,
      "arc": 0.824,
      "ent": 374,
      "brk": 0,
      "frameMs": 8.1
    },
    {
      "t": 2135.4,
      "rD": 0.28,
      "hC": 0.33,
      "mA": 0.53,
      "tD": 0.53,
      "mode": "E_phrygian",
      "bpm": 82,
      "arc": 0.825,
      "ent": 395,
      "brk": 0,
      "frameMs": 8.3
    },
    {
      "t": 2136.4,
      "rD": 0.27,
      "hC": 0.32,
      "mA": 0.53,
      "tD": 0.52,
      "mode": "E_phrygian",
      "bpm": 82,
      "arc": 0.825,
      "ent": 386,
      "brk": 0,
      "frameMs": 8.9
    },
    {
      "t": 2137.4,
      "rD": 0.25,
      "hC": 0.31,
      "mA": 0.52,
      "tD": 0.51,
      "mode": "E_phrygian",
      "bpm": 82,
      "arc": 0.825,
      "ent": 353,
      "brk": 0,
      "frameMs": 9.1
    },
    {
      "t": 2138.4,
      "rD": 0.24,
      "hC": 0.31,
      "mA": 0.51,
      "tD": 0.5,
      "mode": "E_phrygian",
      "bpm": 82,
      "arc": 0.826,
      "ent": 361,
      "brk": 0,
      "frameMs": 9.4
    },
    {
      "t": 2139.4,
      "rD": 0.24,
      "hC": 0.3,
      "mA": 0.51,
      "tD": 0.5,
      "mode": "E_phrygian",
      "bpm": 82,
      "arc": 0.826,
      "ent": 353,
      "brk": 0,
      "frameMs": 7.8
    },
    {
      "t": 2140.4,
      "rD": 0.23,
      "hC": 0.3,
      "mA": 0.51,
      "tD": 0.49,
      "mode": "E_phrygian",
      "bpm": 82,
      "arc": 0.827,
      "ent": 384,
      "brk": 0,
      "frameMs": 8.6
    },
    {
      "t": 2141.4,
      "rD": 0.23,
      "hC": 0.3,
      "mA": 0.51,
      "tD": 0.49,
      "mode": "E_phrygian",
      "bpm": 82,
      "arc": 0.827,
      "ent": 363,
      "brk": 0,
      "frameMs": 7.9
    },
    {
      "t": 2142.4,
      "rD": 0.24,
      "hC": 0.3,
      "mA": 0.51,
      "tD": 0.49,
      "mode": "E_phrygian",
      "bpm": 82,
      "arc": 0.827,
      "ent": 362,
      "brk": 0,
      "frameMs": 8.3
    },
    {
      "t": 2143.4,
      "rD": 0.24,
      "hC": 0.3,
      "mA": 0.51,
      "tD": 0.5,
      "mode": "E_phrygian",
      "bpm": 82,
      "arc": 0.828,
      "ent": 399,
      "brk": 0,
      "frameMs": 8
    },
    {
      "t": 2144.5,
      "rD": 0.25,
      "hC": 0.31,
      "mA": 0.51,
      "tD": 0.51,
      "mode": "E_phrygian",
      "bpm": 82,
      "arc": 0.828,
      "ent": 406,
      "brk": 0,
      "frameMs": 8.3
    },
    {
      "t": 2145.5,
      "rD": 0.26,
      "hC": 0.32,
      "mA": 0.52,
      "tD": 0.51,
      "mode": "E_phrygian",
      "bpm": 82,
      "arc": 0.829,
      "ent": 405,
      "brk": 0,
      "frameMs": 8.5
    },
    {
      "t": 2146.5,
      "rD": 0.27,
      "hC": 0.32,
      "mA": 0.52,
      "tD": 0.52,
      "mode": "E_phrygian",
      "bpm": 82,
      "arc": 0.829,
      "ent": 396,
      "brk": 0,
      "frameMs": 6.7
    },
    {
      "t": 2147.5,
      "rD": 0.28,
      "hC": 0.33,
      "mA": 0.53,
      "tD": 0.53,
      "mode": "E_phrygian",
      "bpm": 82,
      "arc": 0.829,
      "ent": 366,
      "brk": 0,
      "frameMs": 7.6
    },
    {
      "t": 2148.5,
      "rD": 0.29,
      "hC": 0.34,
      "mA": 0.53,
      "tD": 0.54,
      "mode": "E_phrygian",
      "bpm": 82,
      "arc": 0.83,
      "ent": 367,
      "brk": 0,
      "frameMs": 8.7
    },
    {
      "t": 2149.5,
      "rD": 0.3,
      "hC": 0.34,
      "mA": 0.54,
      "tD": 0.55,
      "mode": "E_phrygian",
      "bpm": 82,
      "arc": 0.83,
      "ent": 348,
      "brk": 0,
      "frameMs": 10.1
    },
    {
      "t": 2150.5,
      "rD": 0.31,
      "hC": 0.35,
      "mA": 0.54,
      "tD": 0.55,
      "mode": "E_phrygian",
      "bpm": 82,
      "arc": 0.831,
      "ent": 333,
      "brk": 0,
      "frameMs": 8.4
    },
    {
      "t": 2151.5,
      "rD": 0.31,
      "hC": 0.35,
      "mA": 0.54,
      "tD": 0.55,
      "mode": "E_phrygian",
      "bpm": 82,
      "arc": 0.831,
      "ent": 352,
      "brk": 0,
      "frameMs": 6.7
    },
    {
      "t": 2152.5,
      "rD": 0.31,
      "hC": 0.35,
      "mA": 0.54,
      "tD": 0.55,
      "mode": "E_phrygian",
      "bpm": 82,
      "arc": 0.831,
      "ent": 367,
      "brk": 0,
      "frameMs": 8.3
    },
    {
      "t": 2153.5,
      "rD": 0.31,
      "hC": 0.34,
      "mA": 0.53,
      "tD": 0.55,
      "mode": "E_phrygian",
      "bpm": 82,
      "arc": 0.832,
      "ent": 353,
      "brk": 0,
      "frameMs": 8.5
    },
    {
      "t": 2154.5,
      "rD": 0.3,
      "hC": 0.34,
      "mA": 0.53,
      "tD": 0.54,
      "mode": "E_phrygian",
      "bpm": 82,
      "arc": 0.832,
      "ent": 403,
      "brk": 0,
      "frameMs": 6.6
    },
    {
      "t": 2155.5,
      "rD": 0.29,
      "hC": 0.33,
      "mA": 0.52,
      "tD": 0.53,
      "mode": "E_phrygian",
      "bpm": 82,
      "arc": 0.833,
      "ent": 398,
      "brk": 0,
      "frameMs": 8.7
    },
    {
      "t": 2156.5,
      "rD": 0.27,
      "hC": 0.32,
      "mA": 0.52,
      "tD": 0.52,
      "mode": "E_phrygian",
      "bpm": 82,
      "arc": 0.833,
      "ent": 419,
      "brk": 0,
      "frameMs": 8.3
    },
    {
      "t": 2157.5,
      "rD": 0.26,
      "hC": 0.31,
      "mA": 0.51,
      "tD": 0.51,
      "mode": "E_phrygian",
      "bpm": 82,
      "arc": 0.833,
      "ent": 402,
      "brk": 0,
      "frameMs": 8.3
    },
    {
      "t": 2158.5,
      "rD": 0.25,
      "hC": 0.3,
      "mA": 0.5,
      "tD": 0.5,
      "mode": "E_phrygian",
      "bpm": 82,
      "arc": 0.834,
      "ent": 417,
      "brk": 0,
      "frameMs": 7.6
    },
    {
      "t": 2159.5,
      "rD": 0.23,
      "hC": 0.29,
      "mA": 0.49,
      "tD": 0.49,
      "mode": "E_phrygian",
      "bpm": 82,
      "arc": 0.834,
      "ent": 422,
      "brk": 0,
      "frameMs": 8.8
    },
    {
      "t": 2160.5,
      "rD": 0.22,
      "hC": 0.28,
      "mA": 0.48,
      "tD": 0.48,
      "mode": "E_phrygian",
      "bpm": 82,
      "arc": 0.834,
      "ent": 402,
      "brk": 0,
      "frameMs": 7.9
    },
    {
      "t": 2161.5,
      "rD": 0.21,
      "hC": 0.27,
      "mA": 0.48,
      "tD": 0.47,
      "mode": "E_phrygian",
      "bpm": 82,
      "arc": 0.835,
      "ent": 387,
      "brk": 0,
      "frameMs": 8.3
    },
    {
      "t": 2162.5,
      "rD": 0.2,
      "hC": 0.26,
      "mA": 0.47,
      "tD": 0.46,
      "mode": "E_phrygian",
      "bpm": 82,
      "arc": 0.835,
      "ent": 379,
      "brk": 0,
      "frameMs": 7.3
    },
    {
      "t": 2163.5,
      "rD": 0.2,
      "hC": 0.26,
      "mA": 0.47,
      "tD": 0.46,
      "mode": "E_phrygian",
      "bpm": 82,
      "arc": 0.836,
      "ent": 355,
      "brk": 0,
      "frameMs": 8.2
    },
    {
      "t": 2164.5,
      "rD": 0.2,
      "hC": 0.26,
      "mA": 0.47,
      "tD": 0.46,
      "mode": "E_phrygian",
      "bpm": 82,
      "arc": 0.836,
      "ent": 360,
      "brk": 0,
      "frameMs": 7
    },
    {
      "t": 2165.5,
      "rD": 0.2,
      "hC": 0.26,
      "mA": 0.47,
      "tD": 0.46,
      "mode": "E_phrygian",
      "bpm": 82,
      "arc": 0.836,
      "ent": 362,
      "brk": 0,
      "frameMs": 8.4
    },
    {
      "t": 2166.5,
      "rD": 0.21,
      "hC": 0.27,
      "mA": 0.47,
      "tD": 0.46,
      "mode": "E_phrygian",
      "bpm": 82,
      "arc": 0.837,
      "ent": 340,
      "brk": 0,
      "frameMs": 8
    },
    {
      "t": 2167.6,
      "rD": 0.21,
      "hC": 0.27,
      "mA": 0.48,
      "tD": 0.47,
      "mode": "E_phrygian",
      "bpm": 82,
      "arc": 0.837,
      "ent": 324,
      "brk": 0,
      "frameMs": 8.4
    },
    {
      "t": 2168.6,
      "rD": 0.22,
      "hC": 0.28,
      "mA": 0.48,
      "tD": 0.48,
      "mode": "E_phrygian",
      "bpm": 82,
      "arc": 0.838,
      "ent": 276,
      "brk": 0,
      "frameMs": 9.1
    },
    {
      "t": 2169.6,
      "rD": 0.24,
      "hC": 0.28,
      "mA": 0.48,
      "tD": 0.48,
      "mode": "E_phrygian",
      "bpm": 82,
      "arc": 0.838,
      "ent": 265,
      "brk": 0,
      "frameMs": 9.5
    },
    {
      "t": 2170.6,
      "rD": 0.25,
      "hC": 0.29,
      "mA": 0.49,
      "tD": 0.49,
      "mode": "E_phrygian",
      "bpm": 82,
      "arc": 0.838,
      "ent": 285,
      "brk": 0,
      "frameMs": 8.2
    },
    {
      "t": 2171.6,
      "rD": 0.26,
      "hC": 0.3,
      "mA": 0.49,
      "tD": 0.5,
      "mode": "E_phrygian",
      "bpm": 82,
      "arc": 0.839,
      "ent": 296,
      "brk": 0,
      "frameMs": 9
    },
    {
      "t": 2172.6,
      "rD": 0.26,
      "hC": 0.3,
      "mA": 0.5,
      "tD": 0.51,
      "mode": "E_phrygian",
      "bpm": 82,
      "arc": 0.839,
      "ent": 309,
      "brk": 0,
      "frameMs": 10.3
    },
    {
      "t": 2173.6,
      "rD": 0.27,
      "hC": 0.31,
      "mA": 0.5,
      "tD": 0.51,
      "mode": "E_phrygian",
      "bpm": 82,
      "arc": 0.84,
      "ent": 347,
      "brk": 0,
      "frameMs": 7.9
    },
    {
      "t": 2174.6,
      "rD": 0.27,
      "hC": 0.31,
      "mA": 0.5,
      "tD": 0.51,
      "mode": "E_phrygian",
      "bpm": 82,
      "arc": 0.84,
      "ent": 351,
      "brk": 0,
      "frameMs": 8.4
    },
    {
      "t": 2175.6,
      "rD": 0.27,
      "hC": 0.3,
      "mA": 0.5,
      "tD": 0.51,
      "mode": "E_phrygian",
      "bpm": 82,
      "arc": 0.84,
      "ent": 402,
      "brk": 0,
      "frameMs": 8.3
    },
    {
      "t": 2176.6,
      "rD": 0.26,
      "hC": 0.3,
      "mA": 0.49,
      "tD": 0.5,
      "mode": "E_phrygian",
      "bpm": 82,
      "arc": 0.841,
      "ent": 409,
      "brk": 0,
      "frameMs": 8.5
    },
    {
      "t": 2177.6,
      "rD": 0.26,
      "hC": 0.29,
      "mA": 0.49,
      "tD": 0.5,
      "mode": "E_phrygian",
      "bpm": 82,
      "arc": 0.841,
      "ent": 396,
      "brk": 0,
      "frameMs": 10
    },
    {
      "t": 2178.6,
      "rD": 0.24,
      "hC": 0.29,
      "mA": 0.48,
      "tD": 0.49,
      "mode": "E_phrygian",
      "bpm": 82,
      "arc": 0.841,
      "ent": 426,
      "brk": 0,
      "frameMs": 8.2
    },
    {
      "t": 2179.6,
      "rD": 0.23,
      "hC": 0.28,
      "mA": 0.47,
      "tD": 0.48,
      "mode": "E_phrygian",
      "bpm": 82,
      "arc": 0.842,
      "ent": 392,
      "brk": 0,
      "frameMs": 8.5
    },
    {
      "t": 2180.6,
      "rD": 0.22,
      "hC": 0.26,
      "mA": 0.46,
      "tD": 0.47,
      "mode": "E_phrygian",
      "bpm": 82,
      "arc": 0.842,
      "ent": 377,
      "brk": 0,
      "frameMs": 8
    },
    {
      "t": 2181.6,
      "rD": 0.2,
      "hC": 0.25,
      "mA": 0.46,
      "tD": 0.45,
      "mode": "E_phrygian",
      "bpm": 82,
      "arc": 0.843,
      "ent": 356,
      "brk": 0,
      "frameMs": 8.4
    },
    {
      "t": 2182.6,
      "rD": 0.19,
      "hC": 0.24,
      "mA": 0.45,
      "tD": 0.44,
      "mode": "E_phrygian",
      "bpm": 82,
      "arc": 0.843,
      "ent": 320,
      "brk": 0,
      "frameMs": 9.2
    },
    {
      "t": 2183.6,
      "rD": 0.17,
      "hC": 0.23,
      "mA": 0.44,
      "tD": 0.43,
      "mode": "E_phrygian",
      "bpm": 82,
      "arc": 0.843,
      "ent": 300,
      "brk": 1,
      "frameMs": 8.4
    },
    {
      "t": 2184.6,
      "rD": 0.16,
      "hC": 0.23,
      "mA": 0.43,
      "tD": 0.42,
      "mode": "E_phrygian",
      "bpm": 82,
      "arc": 0.844,
      "ent": 264,
      "brk": 1,
      "frameMs": 7.8
    },
    {
      "t": 2185.6,
      "rD": 0.16,
      "hC": 0.22,
      "mA": 0.43,
      "tD": 0.42,
      "mode": "E_phrygian",
      "bpm": 82,
      "arc": 0.844,
      "ent": 251,
      "brk": 1,
      "frameMs": 8.4
    },
    {
      "t": 2186.6,
      "rD": 0.15,
      "hC": 0.22,
      "mA": 0.43,
      "tD": 0.41,
      "mode": "E_phrygian",
      "bpm": 82,
      "arc": 0.845,
      "ent": 268,
      "brk": 1,
      "frameMs": 8.3
    },
    {
      "t": 2187.6,
      "rD": 0.15,
      "hC": 0.22,
      "mA": 0.43,
      "tD": 0.41,
      "mode": "E_phrygian",
      "bpm": 82,
      "arc": 0.845,
      "ent": 306,
      "brk": 1,
      "frameMs": 7.9
    },
    {
      "t": 2188.6,
      "rD": 0.16,
      "hC": 0.22,
      "mA": 0.43,
      "tD": 0.41,
      "mode": "E_phrygian",
      "bpm": 82,
      "arc": 0.845,
      "ent": 296,
      "brk": 1,
      "frameMs": 8.2
    },
    {
      "t": 2189.6,
      "rD": 0.16,
      "hC": 0.22,
      "mA": 0.43,
      "tD": 0.42,
      "mode": "E_phrygian",
      "bpm": 82,
      "arc": 0.846,
      "ent": 318,
      "brk": 1,
      "frameMs": 8.3
    },
    {
      "t": 2190.6,
      "rD": 0.17,
      "hC": 0.23,
      "mA": 0.43,
      "tD": 0.42,
      "mode": "E_phrygian",
      "bpm": 82,
      "arc": 0.846,
      "ent": 310,
      "brk": 1,
      "frameMs": 7.7
    },
    {
      "t": 2191.6,
      "rD": 0.18,
      "hC": 0.23,
      "mA": 0.43,
      "tD": 0.43,
      "mode": "E_phrygian",
      "bpm": 82,
      "arc": 0.847,
      "ent": 298,
      "brk": 1,
      "frameMs": 6.7
    },
    {
      "t": 2192.7,
      "rD": 0.19,
      "hC": 0.24,
      "mA": 0.44,
      "tD": 0.44,
      "mode": "E_phrygian",
      "bpm": 82,
      "arc": 0.847,
      "ent": 281,
      "brk": 1,
      "frameMs": 7.8
    },
    {
      "t": 2193.7,
      "rD": 0.2,
      "hC": 0.25,
      "mA": 0.44,
      "tD": 0.45,
      "mode": "E_phrygian",
      "bpm": 82,
      "arc": 0.847,
      "ent": 280,
      "brk": 1,
      "frameMs": 9.2
    },
    {
      "t": 2194.7,
      "rD": 0.21,
      "hC": 0.25,
      "mA": 0.45,
      "tD": 0.46,
      "mode": "E_phrygian",
      "bpm": 82,
      "arc": 0.848,
      "ent": 294,
      "brk": 0,
      "frameMs": 8.2
    },
    {
      "t": 2195.7,
      "rD": 0.22,
      "hC": 0.26,
      "mA": 0.45,
      "tD": 0.46,
      "mode": "E_phrygian",
      "bpm": 82,
      "arc": 0.848,
      "ent": 271,
      "brk": 0,
      "frameMs": 8.2
    },
    {
      "t": 2196.7,
      "rD": 0.22,
      "hC": 0.26,
      "mA": 0.45,
      "tD": 0.46,
      "mode": "E_phrygian",
      "bpm": 82,
      "arc": 0.848,
      "ent": 259,
      "brk": 0,
      "frameMs": 8.4
    },
    {
      "t": 2197.7,
      "rD": 0.22,
      "hC": 0.26,
      "mA": 0.45,
      "tD": 0.47,
      "mode": "E_phrygian",
      "bpm": 82,
      "arc": 0.849,
      "ent": 268,
      "brk": 0,
      "frameMs": 9.1
    },
    {
      "t": 2198.7,
      "rD": 0.22,
      "hC": 0.26,
      "mA": 0.45,
      "tD": 0.46,
      "mode": "E_phrygian",
      "bpm": 82,
      "arc": 0.849,
      "ent": 242,
      "brk": 0,
      "frameMs": 6.7
    },
    {
      "t": 2199.7,
      "rD": 0.22,
      "hC": 0.25,
      "mA": 0.45,
      "tD": 0.46,
      "mode": "E_phrygian",
      "bpm": 82,
      "arc": 0.85,
      "ent": 279,
      "brk": 0,
      "frameMs": 8.4
    },
    {
      "t": 2200.7,
      "rD": 0.21,
      "hC": 0.25,
      "mA": 0.44,
      "tD": 0.45,
      "mode": "E_phrygian",
      "bpm": 82,
      "arc": 0.85,
      "ent": 284,
      "brk": 0,
      "frameMs": 8.4
    },
    {
      "t": 2201.7,
      "rD": 0.2,
      "hC": 0.24,
      "mA": 0.43,
      "tD": 0.44,
      "mode": "E_phrygian",
      "bpm": 82,
      "arc": 0.85,
      "ent": 275,
      "brk": 0,
      "frameMs": 8.4
    },
    {
      "t": 2202.7,
      "rD": 0.18,
      "hC": 0.23,
      "mA": 0.43,
      "tD": 0.43,
      "mode": "E_phrygian",
      "bpm": 82,
      "arc": 0.851,
      "ent": 280,
      "brk": 0,
      "frameMs": 8.3
    },
    {
      "t": 2203.7,
      "rD": 0.17,
      "hC": 0.22,
      "mA": 0.42,
      "tD": 0.42,
      "mode": "E_phrygian",
      "bpm": 82,
      "arc": 0.851,
      "ent": 276,
      "brk": 0,
      "frameMs": 8.3
    },
    {
      "t": 2204.7,
      "rD": 0.15,
      "hC": 0.21,
      "mA": 0.41,
      "tD": 0.41,
      "mode": "E_phrygian",
      "bpm": 82,
      "arc": 0.852,
      "ent": 269,
      "brk": 0,
      "frameMs": 7.7
    },
    {
      "t": 2205.7,
      "rD": 0.14,
      "hC": 0.2,
      "mA": 0.4,
      "tD": 0.39,
      "mode": "E_phrygian",
      "bpm": 82,
      "arc": 0.852,
      "ent": 274,
      "brk": 0,
      "frameMs": 7.7
    },
    {
      "t": 2206.7,
      "rD": 0.13,
      "hC": 0.19,
      "mA": 0.39,
      "tD": 0.38,
      "mode": "E_phrygian",
      "bpm": 82,
      "arc": 0.852,
      "ent": 261,
      "brk": 0,
      "frameMs": 7.3
    },
    {
      "t": 2207.7,
      "rD": 0.12,
      "hC": 0.18,
      "mA": 0.39,
      "tD": 0.38,
      "mode": "E_phrygian",
      "bpm": 82,
      "arc": 0.853,
      "ent": 247,
      "brk": 0,
      "frameMs": 9.4
    },
    {
      "t": 2208.7,
      "rD": 0.11,
      "hC": 0.17,
      "mA": 0.38,
      "tD": 0.37,
      "mode": "E_phrygian",
      "bpm": 82,
      "arc": 0.853,
      "ent": 246,
      "brk": 0,
      "frameMs": 8.4
    },
    {
      "t": 2209.7,
      "rD": 0.11,
      "hC": 0.17,
      "mA": 0.38,
      "tD": 0.37,
      "mode": "E_phrygian",
      "bpm": 82,
      "arc": 0.854,
      "ent": 246,
      "brk": 0,
      "frameMs": 8.3
    },
    {
      "t": 2210.7,
      "rD": 0.11,
      "hC": 0.17,
      "mA": 0.38,
      "tD": 0.37,
      "mode": "E_phrygian",
      "bpm": 82,
      "arc": 0.854,
      "ent": 286,
      "brk": 0,
      "frameMs": 8.3
    },
    {
      "t": 2211.7,
      "rD": 0.11,
      "hC": 0.17,
      "mA": 0.38,
      "tD": 0.37,
      "mode": "E_phrygian",
      "bpm": 82,
      "arc": 0.854,
      "ent": 282,
      "brk": 0,
      "frameMs": 8
    },
    {
      "t": 2212.7,
      "rD": 0.12,
      "hC": 0.18,
      "mA": 0.38,
      "tD": 0.37,
      "mode": "E_phrygian",
      "bpm": 82,
      "arc": 0.855,
      "ent": 277,
      "brk": 0,
      "frameMs": 10.2
    },
    {
      "t": 2213.8,
      "rD": 0.13,
      "hC": 0.18,
      "mA": 0.39,
      "tD": 0.38,
      "mode": "E_phrygian",
      "bpm": 82,
      "arc": 0.855,
      "ent": 295,
      "brk": 0,
      "frameMs": 8.3
    },
    {
      "t": 2214.8,
      "rD": 0.14,
      "hC": 0.19,
      "mA": 0.39,
      "tD": 0.39,
      "mode": "E_phrygian",
      "bpm": 82,
      "arc": 0.855,
      "ent": 266,
      "brk": 0,
      "frameMs": 10.2
    },
    {
      "t": 2215.8,
      "rD": 0.15,
      "hC": 0.2,
      "mA": 0.4,
      "tD": 0.4,
      "mode": "E_phrygian",
      "bpm": 82,
      "arc": 0.856,
      "ent": 248,
      "brk": 0,
      "frameMs": 8.4
    },
    {
      "t": 2216.8,
      "rD": 0.16,
      "hC": 0.2,
      "mA": 0.4,
      "tD": 0.41,
      "mode": "E_phrygian",
      "bpm": 82,
      "arc": 0.856,
      "ent": 245,
      "brk": 0,
      "frameMs": 8.3
    },
    {
      "t": 2217.8,
      "rD": 0.17,
      "hC": 0.21,
      "mA": 0.41,
      "tD": 0.41,
      "mode": "E_phrygian",
      "bpm": 82,
      "arc": 0.857,
      "ent": 222,
      "brk": 0,
      "frameMs": 8.2
    },
    {
      "t": 2218.8,
      "rD": 0.18,
      "hC": 0.22,
      "mA": 0.41,
      "tD": 0.42,
      "mode": "E_phrygian",
      "bpm": 82,
      "arc": 0.857,
      "ent": 238,
      "brk": 0,
      "frameMs": 7.9
    },
    {
      "t": 2219.8,
      "rD": 0.18,
      "hC": 0.22,
      "mA": 0.41,
      "tD": 0.42,
      "mode": "E_phrygian",
      "bpm": 82,
      "arc": 0.857,
      "ent": 252,
      "brk": 0,
      "frameMs": 8
    },
    {
      "t": 2220.8,
      "rD": 0.18,
      "hC": 0.22,
      "mA": 0.41,
      "tD": 0.42,
      "mode": "E_phrygian",
      "bpm": 82,
      "arc": 0.858,
      "ent": 232,
      "brk": 0,
      "frameMs": 9
    },
    {
      "t": 2221.8,
      "rD": 0.18,
      "hC": 0.22,
      "mA": 0.41,
      "tD": 0.42,
      "mode": "E_phrygian",
      "bpm": 82,
      "arc": 0.858,
      "ent": 257,
      "brk": 0,
      "frameMs": 7.9
    },
    {
      "t": 2222.8,
      "rD": 0.18,
      "hC": 0.21,
      "mA": 0.4,
      "tD": 0.42,
      "mode": "E_phrygian",
      "bpm": 82,
      "arc": 0.859,
      "ent": 270,
      "brk": 0,
      "frameMs": 7.6
    },
    {
      "t": 2223.8,
      "rD": 0.17,
      "hC": 0.21,
      "mA": 0.4,
      "tD": 0.41,
      "mode": "E_phrygian",
      "bpm": 82,
      "arc": 0.859,
      "ent": 281,
      "brk": 1,
      "frameMs": 8.3
    },
    {
      "t": 2224.8,
      "rD": 0.16,
      "hC": 0.2,
      "mA": 0.39,
      "tD": 0.4,
      "mode": "E_phrygian",
      "bpm": 82,
      "arc": 0.859,
      "ent": 270,
      "brk": 1,
      "frameMs": 8.3
    },
    {
      "t": 2225.8,
      "rD": 0.14,
      "hC": 0.19,
      "mA": 0.39,
      "tD": 0.39,
      "mode": "E_phrygian",
      "bpm": 82,
      "arc": 0.86,
      "ent": 250,
      "brk": 1,
      "frameMs": 9.7
    },
    {
      "t": 2226.8,
      "rD": 0.13,
      "hC": 0.18,
      "mA": 0.38,
      "tD": 0.38,
      "mode": "E_phrygian",
      "bpm": 82,
      "arc": 0.86,
      "ent": 248,
      "brk": 1,
      "frameMs": 8.4
    },
    {
      "t": 2227.8,
      "rD": 0.11,
      "hC": 0.17,
      "mA": 0.37,
      "tD": 0.37,
      "mode": "E_phrygian",
      "bpm": 82,
      "arc": 0.861,
      "ent": 232,
      "brk": 1,
      "frameMs": 10.3
    },
    {
      "t": 2228.8,
      "rD": 0.1,
      "hC": 0.16,
      "mA": 0.36,
      "tD": 0.36,
      "mode": "E_phrygian",
      "bpm": 82,
      "arc": 0.861,
      "ent": 234,
      "brk": 1,
      "frameMs": 8.3
    },
    {
      "t": 2229.8,
      "rD": 0.09,
      "hC": 0.15,
      "mA": 0.36,
      "tD": 0.35,
      "mode": "E_phrygian",
      "bpm": 82,
      "arc": 0.861,
      "ent": 228,
      "brk": 0,
      "frameMs": 8.3
    },
    {
      "t": 2230.8,
      "rD": 0.08,
      "hC": 0.14,
      "mA": 0.35,
      "tD": 0.34,
      "mode": "E_phrygian",
      "bpm": 82,
      "arc": 0.862,
      "ent": 223,
      "brk": 0,
      "frameMs": 8.3
    },
    {
      "t": 2231.8,
      "rD": 0.07,
      "hC": 0.14,
      "mA": 0.35,
      "tD": 0.33,
      "mode": "E_phrygian",
      "bpm": 82,
      "arc": 0.862,
      "ent": 219,
      "brk": 0,
      "frameMs": 9.5
    },
    {
      "t": 2232.9,
      "rD": 0.07,
      "hC": 0.14,
      "mA": 0.35,
      "tD": 0.33,
      "mode": "E_phrygian",
      "bpm": 82,
      "arc": 0.862,
      "ent": 217,
      "brk": 0,
      "frameMs": 8.4
    },
    {
      "t": 2233.9,
      "rD": 0.07,
      "hC": 0.14,
      "mA": 0.35,
      "tD": 0.33,
      "mode": "E_phrygian",
      "bpm": 82,
      "arc": 0.863,
      "ent": 206,
      "brk": 0,
      "frameMs": 8.3
    },
    {
      "t": 2234.9,
      "rD": 0.08,
      "hC": 0.14,
      "mA": 0.35,
      "tD": 0.34,
      "mode": "E_phrygian",
      "bpm": 82,
      "arc": 0.863,
      "ent": 252,
      "brk": 0,
      "frameMs": 8.3
    },
    {
      "t": 2235.9,
      "rD": 0.09,
      "hC": 0.14,
      "mA": 0.35,
      "tD": 0.34,
      "mode": "E_phrygian",
      "bpm": 82,
      "arc": 0.864,
      "ent": 252,
      "brk": 0,
      "frameMs": 8.2
    },
    {
      "t": 2236.9,
      "rD": 0.1,
      "hC": 0.15,
      "mA": 0.35,
      "tD": 0.35,
      "mode": "E_phrygian",
      "bpm": 82,
      "arc": 0.864,
      "ent": 228,
      "brk": 0,
      "frameMs": 8.3
    },
    {
      "t": 2237.9,
      "rD": 0.11,
      "hC": 0.16,
      "mA": 0.36,
      "tD": 0.36,
      "mode": "E_phrygian",
      "bpm": 82,
      "arc": 0.864,
      "ent": 222,
      "brk": 0,
      "frameMs": 8.3
    },
    {
      "t": 2238.9,
      "rD": 0.12,
      "hC": 0.17,
      "mA": 0.37,
      "tD": 0.37,
      "mode": "E_phrygian",
      "bpm": 82,
      "arc": 0.865,
      "ent": 200,
      "brk": 0,
      "frameMs": 8.3
    },
    {
      "t": 2239.9,
      "rD": 0.13,
      "hC": 0.17,
      "mA": 0.37,
      "tD": 0.38,
      "mode": "E_phrygian",
      "bpm": 82,
      "arc": 0.865,
      "ent": 199,
      "brk": 0,
      "frameMs": 7.8
    },
    {
      "t": 2240.9,
      "rD": 0.14,
      "hC": 0.18,
      "mA": 0.38,
      "tD": 0.38,
      "mode": "E_phrygian",
      "bpm": 82,
      "arc": 0.866,
      "ent": 189,
      "brk": 0,
      "frameMs": 10.3
    },
    {
      "t": 2241.9,
      "rD": 0.15,
      "hC": 0.19,
      "mA": 0.38,
      "tD": 0.39,
      "mode": "E_phrygian",
      "bpm": 82,
      "arc": 0.866,
      "ent": 176,
      "brk": 0,
      "frameMs": 6.8
    },
    {
      "t": 2242.9,
      "rD": 0.15,
      "hC": 0.19,
      "mA": 0.38,
      "tD": 0.39,
      "mode": "E_phrygian",
      "bpm": 82,
      "arc": 0.866,
      "ent": 205,
      "brk": 0,
      "frameMs": 8.3
    },
    {
      "t": 2243.9,
      "rD": 0.16,
      "hC": 0.19,
      "mA": 0.38,
      "tD": 0.4,
      "mode": "E_phrygian",
      "bpm": 82,
      "arc": 0.867,
      "ent": 201,
      "brk": 0,
      "frameMs": 10.1
    },
    {
      "t": 2244.9,
      "rD": 0.15,
      "hC": 0.19,
      "mA": 0.38,
      "tD": 0.39,
      "mode": "E_phrygian",
      "bpm": 82,
      "arc": 0.867,
      "ent": 205,
      "brk": 0,
      "frameMs": 8.2
    },
    {
      "t": 2245.9,
      "rD": 0.15,
      "hC": 0.19,
      "mA": 0.38,
      "tD": 0.39,
      "mode": "E_phrygian",
      "bpm": 82,
      "arc": 0.868,
      "ent": 240,
      "brk": 0,
      "frameMs": 7.8
    },
    {
      "t": 2246.9,
      "rD": 0.14,
      "hC": 0.18,
      "mA": 0.37,
      "tD": 0.38,
      "mode": "E_phrygian",
      "bpm": 82,
      "arc": 0.868,
      "ent": 249,
      "brk": 0,
      "frameMs": 8.5
    },
    {
      "t": 2247.9,
      "rD": 0.13,
      "hC": 0.17,
      "mA": 0.37,
      "tD": 0.37,
      "mode": "E_phrygian",
      "bpm": 82,
      "arc": 0.868,
      "ent": 239,
      "brk": 0,
      "frameMs": 7.5
    },
    {
      "t": 2248.9,
      "rD": 0.12,
      "hC": 0.16,
      "mA": 0.36,
      "tD": 0.36,
      "mode": "E_phrygian",
      "bpm": 82,
      "arc": 0.869,
      "ent": 246,
      "brk": 0,
      "frameMs": 8.1
    },
    {
      "t": 2249.9,
      "rD": 0.1,
      "hC": 0.15,
      "mA": 0.35,
      "tD": 0.35,
      "mode": "E_phrygian",
      "bpm": 82,
      "arc": 0.869,
      "ent": 243,
      "brk": 0,
      "frameMs": 10
    },
    {
      "t": 2250.9,
      "rD": 0.09,
      "hC": 0.14,
      "mA": 0.35,
      "tD": 0.34,
      "mode": "E_phrygian",
      "bpm": 82,
      "arc": 0.869,
      "ent": 269,
      "brk": 0,
      "frameMs": 8.5
    },
    {
      "t": 2251.9,
      "rD": 0.08,
      "hC": 0.14,
      "mA": 0.34,
      "tD": 0.33,
      "mode": "E_phrygian",
      "bpm": 82,
      "arc": 0.87,
      "ent": 263,
      "brk": 0,
      "frameMs": 8.7
    },
    {
      "t": 2252.9,
      "rD": 0.07,
      "hC": 0.13,
      "mA": 0.33,
      "tD": 0.32,
      "mode": "E_phrygian",
      "bpm": 82,
      "arc": 0.87,
      "ent": 246,
      "brk": 0,
      "frameMs": 7.5
    },
    {
      "t": 2253.9,
      "rD": 0.06,
      "hC": 0.12,
      "mA": 0.33,
      "tD": 0.32,
      "mode": "E_phrygian",
      "bpm": 82,
      "arc": 0.871,
      "ent": 252,
      "brk": 0,
      "frameMs": 6.5
    },
    {
      "t": 2254.9,
      "rD": 0.06,
      "hC": 0.12,
      "mA": 0.33,
      "tD": 0.31,
      "mode": "E_phrygian",
      "bpm": 82,
      "arc": 0.871,
      "ent": 236,
      "brk": 0,
      "frameMs": 9.3
    },
    {
      "t": 2255.9,
      "rD": 0.05,
      "hC": 0.12,
      "mA": 0.33,
      "tD": 0.31,
      "mode": "E_phrygian",
      "bpm": 82,
      "arc": 0.871,
      "ent": 211,
      "brk": 0,
      "frameMs": 8
    },
    {
      "t": 2256.9,
      "rD": 0.06,
      "hC": 0.12,
      "mA": 0.33,
      "tD": 0.32,
      "mode": "E_phrygian",
      "bpm": 82,
      "arc": 0.872,
      "ent": 194,
      "brk": 0,
      "frameMs": 8.4
    },
    {
      "t": 2257.9,
      "rD": 0.06,
      "hC": 0.12,
      "mA": 0.33,
      "tD": 0.32,
      "mode": "A_lydian",
      "bpm": 81,
      "arc": 0.872,
      "ent": 191,
      "brk": 0,
      "frameMs": 10.2
    },
    {
      "t": 2259,
      "rD": 0.07,
      "hC": 0.13,
      "mA": 0.34,
      "tD": 0.33,
      "mode": "A_lydian",
      "bpm": 79,
      "arc": 0.873,
      "ent": 192,
      "brk": 0,
      "frameMs": 8.7
    },
    {
      "t": 2260,
      "rD": 0.08,
      "hC": 0.14,
      "mA": 0.34,
      "tD": 0.34,
      "mode": "A_lydian",
      "bpm": 79,
      "arc": 0.873,
      "ent": 189,
      "brk": 0,
      "frameMs": 7.5
    },
    {
      "t": 2261,
      "rD": 0.09,
      "hC": 0.15,
      "mA": 0.35,
      "tD": 0.35,
      "mode": "A_lydian",
      "bpm": 78,
      "arc": 0.873,
      "ent": 198,
      "brk": 0,
      "frameMs": 10.1
    },
    {
      "t": 2262,
      "rD": 0.11,
      "hC": 0.16,
      "mA": 0.35,
      "tD": 0.36,
      "mode": "A_lydian",
      "bpm": 78,
      "arc": 0.874,
      "ent": 177,
      "brk": 0,
      "frameMs": 9.5
    },
    {
      "t": 2263,
      "rD": 0.12,
      "hC": 0.16,
      "mA": 0.36,
      "tD": 0.37,
      "mode": "A_lydian",
      "bpm": 78,
      "arc": 0.874,
      "ent": 189,
      "brk": 0,
      "frameMs": 8.7
    },
    {
      "t": 2264,
      "rD": 0.13,
      "hC": 0.17,
      "mA": 0.36,
      "tD": 0.37,
      "mode": "A_lydian",
      "bpm": 78,
      "arc": 0.875,
      "ent": 183,
      "brk": 0,
      "frameMs": 9.3
    },
    {
      "t": 2265,
      "rD": 0.14,
      "hC": 0.18,
      "mA": 0.37,
      "tD": 0.38,
      "mode": "A_lydian",
      "bpm": 78,
      "arc": 0.875,
      "ent": 160,
      "brk": 0,
      "frameMs": 7
    },
    {
      "t": 2266,
      "rD": 0.14,
      "hC": 0.18,
      "mA": 0.37,
      "tD": 0.38,
      "mode": "A_lydian",
      "bpm": 78,
      "arc": 0.875,
      "ent": 184,
      "brk": 0,
      "frameMs": 7
    },
    {
      "t": 2267,
      "rD": 0.15,
      "hC": 0.18,
      "mA": 0.37,
      "tD": 0.39,
      "mode": "A_lydian",
      "bpm": 78,
      "arc": 0.876,
      "ent": 181,
      "brk": 0,
      "frameMs": 8.3
    },
    {
      "t": 2268,
      "rD": 0.15,
      "hC": 0.18,
      "mA": 0.37,
      "tD": 0.39,
      "mode": "A_lydian",
      "bpm": 78,
      "arc": 0.876,
      "ent": 172,
      "brk": 0,
      "frameMs": 8.5
    },
    {
      "t": 2269,
      "rD": 0.14,
      "hC": 0.18,
      "mA": 0.37,
      "tD": 0.38,
      "mode": "A_lydian",
      "bpm": 78,
      "arc": 0.876,
      "ent": 192,
      "brk": 0,
      "frameMs": 8.3
    },
    {
      "t": 2270,
      "rD": 0.13,
      "hC": 0.17,
      "mA": 0.36,
      "tD": 0.37,
      "mode": "A_lydian",
      "bpm": 78,
      "arc": 0.877,
      "ent": 197,
      "brk": 0,
      "frameMs": 8.3
    },
    {
      "t": 2271,
      "rD": 0.12,
      "hC": 0.17,
      "mA": 0.36,
      "tD": 0.37,
      "mode": "A_lydian",
      "bpm": 78,
      "arc": 0.877,
      "ent": 197,
      "brk": 0,
      "frameMs": 8.4
    },
    {
      "t": 2272,
      "rD": 0.11,
      "hC": 0.16,
      "mA": 0.35,
      "tD": 0.36,
      "mode": "A_lydian",
      "bpm": 78,
      "arc": 0.878,
      "ent": 232,
      "brk": 0,
      "frameMs": 7.9
    },
    {
      "t": 2273,
      "rD": 0.1,
      "hC": 0.15,
      "mA": 0.35,
      "tD": 0.34,
      "mode": "A_lydian",
      "bpm": 78,
      "arc": 0.878,
      "ent": 267,
      "brk": 0,
      "frameMs": 8.4
    },
    {
      "t": 2274,
      "rD": 0.08,
      "hC": 0.14,
      "mA": 0.34,
      "tD": 0.33,
      "mode": "A_lydian",
      "bpm": 78,
      "arc": 0.878,
      "ent": 252,
      "brk": 0,
      "frameMs": 9.6
    },
    {
      "t": 2275,
      "rD": 0.07,
      "hC": 0.13,
      "mA": 0.33,
      "tD": 0.32,
      "mode": "A_lydian",
      "bpm": 78,
      "arc": 0.879,
      "ent": 232,
      "brk": 0,
      "frameMs": 9.9
    },
    {
      "t": 2276,
      "rD": 0.06,
      "hC": 0.12,
      "mA": 0.33,
      "tD": 0.32,
      "mode": "A_lydian",
      "bpm": 78,
      "arc": 0.879,
      "ent": 233,
      "brk": 0,
      "frameMs": 9.7
    },
    {
      "t": 2277,
      "rD": 0.05,
      "hC": 0.12,
      "mA": 0.32,
      "tD": 0.31,
      "mode": "A_lydian",
      "bpm": 78,
      "arc": 0.88,
      "ent": 212,
      "brk": 0,
      "frameMs": 7.8
    },
    {
      "t": 2278,
      "rD": 0.05,
      "hC": 0.11,
      "mA": 0.32,
      "tD": 0.3,
      "mode": "A_lydian",
      "bpm": 78,
      "arc": 0.88,
      "ent": 198,
      "brk": 0,
      "frameMs": 9.5
    },
    {
      "t": 2279,
      "rD": 0.05,
      "hC": 0.11,
      "mA": 0.32,
      "tD": 0.3,
      "mode": "A_lydian",
      "bpm": 78,
      "arc": 0.88,
      "ent": 164,
      "brk": 0,
      "frameMs": 6.7
    },
    {
      "t": 2280,
      "rD": 0.05,
      "hC": 0.12,
      "mA": 0.32,
      "tD": 0.3,
      "mode": "A_lydian",
      "bpm": 78,
      "arc": 0.881,
      "ent": 135,
      "brk": 0,
      "frameMs": 10.3
    },
    {
      "t": 2281.1,
      "rD": 0.06,
      "hC": 0.12,
      "mA": 0.32,
      "tD": 0.31,
      "mode": "A_lydian",
      "bpm": 78,
      "arc": 0.881,
      "ent": 111,
      "brk": 0,
      "frameMs": 8.3
    },
    {
      "t": 2282.1,
      "rD": 0.07,
      "hC": 0.13,
      "mA": 0.33,
      "tD": 0.31,
      "mode": "A_lydian",
      "bpm": 78,
      "arc": 0.882,
      "ent": 134,
      "brk": 0,
      "frameMs": 8.3
    },
    {
      "t": 2283.1,
      "rD": 0.08,
      "hC": 0.13,
      "mA": 0.33,
      "tD": 0.32,
      "mode": "A_lydian",
      "bpm": 78,
      "arc": 0.882,
      "ent": 145,
      "brk": 0,
      "frameMs": 9.2
    },
    {
      "t": 2284.1,
      "rD": 0.09,
      "hC": 0.14,
      "mA": 0.33,
      "tD": 0.33,
      "mode": "A_lydian",
      "bpm": 78,
      "arc": 0.882,
      "ent": 183,
      "brk": 0,
      "frameMs": 8.7
    },
    {
      "t": 2285.1,
      "rD": 0.1,
      "hC": 0.15,
      "mA": 0.34,
      "tD": 0.34,
      "mode": "A_lydian",
      "bpm": 78,
      "arc": 0.883,
      "ent": 197,
      "brk": 0,
      "frameMs": 9.6
    },
    {
      "t": 2286.1,
      "rD": 0.11,
      "hC": 0.16,
      "mA": 0.35,
      "tD": 0.35,
      "mode": "A_lydian",
      "bpm": 78,
      "arc": 0.883,
      "ent": 205,
      "brk": 0,
      "frameMs": 6.8
    },
    {
      "t": 2287.1,
      "rD": 0.12,
      "hC": 0.17,
      "mA": 0.35,
      "tD": 0.36,
      "mode": "A_lydian",
      "bpm": 78,
      "arc": 0.884,
      "ent": 206,
      "brk": 0,
      "frameMs": 8.6
    },
    {
      "t": 2288.1,
      "rD": 0.13,
      "hC": 0.17,
      "mA": 0.35,
      "tD": 0.36,
      "mode": "A_lydian",
      "bpm": 78,
      "arc": 0.884,
      "ent": 200,
      "brk": 0,
      "frameMs": 10.3
    },
    {
      "t": 2289.1,
      "rD": 0.14,
      "hC": 0.18,
      "mA": 0.35,
      "tD": 0.37,
      "mode": "A_lydian",
      "bpm": 78,
      "arc": 0.884,
      "ent": 214,
      "brk": 0,
      "frameMs": 8.3
    },
    {
      "t": 2290.1,
      "rD": 0.14,
      "hC": 0.18,
      "mA": 0.35,
      "tD": 0.37,
      "mode": "A_lydian",
      "bpm": 78,
      "arc": 0.885,
      "ent": 204,
      "brk": 0,
      "frameMs": 10.2
    },
    {
      "t": 2291.1,
      "rD": 0.14,
      "hC": 0.17,
      "mA": 0.35,
      "tD": 0.36,
      "mode": "A_lydian",
      "bpm": 78,
      "arc": 0.885,
      "ent": 185,
      "brk": 0,
      "frameMs": 8.5
    },
    {
      "t": 2292.1,
      "rD": 0.13,
      "hC": 0.17,
      "mA": 0.35,
      "tD": 0.36,
      "mode": "A_lydian",
      "bpm": 78,
      "arc": 0.885,
      "ent": 176,
      "brk": 0,
      "frameMs": 8.2
    },
    {
      "t": 2293.1,
      "rD": 0.12,
      "hC": 0.16,
      "mA": 0.34,
      "tD": 0.35,
      "mode": "A_lydian",
      "bpm": 78,
      "arc": 0.886,
      "ent": 185,
      "brk": 0,
      "frameMs": 8.4
    },
    {
      "t": 2294.1,
      "rD": 0.11,
      "hC": 0.16,
      "mA": 0.34,
      "tD": 0.34,
      "mode": "A_lydian",
      "bpm": 78,
      "arc": 0.886,
      "ent": 182,
      "brk": 0,
      "frameMs": 9.7
    },
    {
      "t": 2295.1,
      "rD": 0.1,
      "hC": 0.15,
      "mA": 0.33,
      "tD": 0.33,
      "mode": "A_lydian",
      "bpm": 78,
      "arc": 0.887,
      "ent": 199,
      "brk": 0,
      "frameMs": 8.5
    },
    {
      "t": 2296.1,
      "rD": 0.08,
      "hC": 0.14,
      "mA": 0.32,
      "tD": 0.32,
      "mode": "A_lydian",
      "bpm": 78,
      "arc": 0.887,
      "ent": 185,
      "brk": 0,
      "frameMs": 8.3
    },
    {
      "t": 2297.1,
      "rD": 0.07,
      "hC": 0.13,
      "mA": 0.31,
      "tD": 0.3,
      "mode": "A_lydian",
      "bpm": 78,
      "arc": 0.887,
      "ent": 178,
      "brk": 0,
      "frameMs": 9.1
    },
    {
      "t": 2298.1,
      "rD": 0.06,
      "hC": 0.12,
      "mA": 0.31,
      "tD": 0.29,
      "mode": "A_lydian",
      "bpm": 78,
      "arc": 0.888,
      "ent": 167,
      "brk": 0,
      "frameMs": 8.5
    },
    {
      "t": 2299.1,
      "rD": 0.05,
      "hC": 0.11,
      "mA": 0.3,
      "tD": 0.28,
      "mode": "A_lydian",
      "bpm": 78,
      "arc": 0.888,
      "ent": 150,
      "brk": 0,
      "frameMs": 8.3
    },
    {
      "t": 2300.1,
      "rD": 0.04,
      "hC": 0.11,
      "mA": 0.29,
      "tD": 0.28,
      "mode": "A_lydian",
      "bpm": 78,
      "arc": 0.889,
      "ent": 116,
      "brk": 0,
      "frameMs": 9.8
    },
    {
      "t": 2301.1,
      "rD": 0.04,
      "hC": 0.1,
      "mA": 0.29,
      "tD": 0.27,
      "mode": "A_lydian",
      "bpm": 78,
      "arc": 0.889,
      "ent": 92,
      "brk": 0,
      "frameMs": 7.9
    },
    {
      "t": 2302.1,
      "rD": 0.03,
      "hC": 0.1,
      "mA": 0.29,
      "tD": 0.27,
      "mode": "A_lydian",
      "bpm": 78,
      "arc": 0.889,
      "ent": 71,
      "brk": 0,
      "frameMs": 7.7
    },
    {
      "t": 2303.1,
      "rD": 0.04,
      "hC": 0.11,
      "mA": 0.29,
      "tD": 0.27,
      "mode": "A_lydian",
      "bpm": 78,
      "arc": 0.89,
      "ent": 45,
      "brk": 0,
      "frameMs": 8
    },
    {
      "t": 2304.2,
      "rD": 0.04,
      "hC": 0.11,
      "mA": 0.29,
      "tD": 0.27,
      "mode": "A_lydian",
      "bpm": 78,
      "arc": 0.89,
      "ent": 33,
      "brk": 0,
      "frameMs": 9.1
    },
    {
      "t": 2305.2,
      "rD": 0.05,
      "hC": 0.12,
      "mA": 0.29,
      "tD": 0.28,
      "mode": "A_lydian",
      "bpm": 78,
      "arc": 0.891,
      "ent": 32,
      "brk": 0,
      "frameMs": 7.9
    },
    {
      "t": 2306.2,
      "rD": 0.06,
      "hC": 0.12,
      "mA": 0.3,
      "tD": 0.29,
      "mode": "A_lydian",
      "bpm": 78,
      "arc": 0.891,
      "ent": 42,
      "brk": 0,
      "frameMs": 9.3
    },
    {
      "t": 2307.2,
      "rD": 0.07,
      "hC": 0.13,
      "mA": 0.3,
      "tD": 0.3,
      "mode": "A_lydian",
      "bpm": 78,
      "arc": 0.891,
      "ent": 88,
      "brk": 0,
      "frameMs": 10.4
    },
    {
      "t": 2308.2,
      "rD": 0.09,
      "hC": 0.14,
      "mA": 0.31,
      "tD": 0.3,
      "mode": "A_lydian",
      "bpm": 78,
      "arc": 0.892,
      "ent": 118,
      "brk": 0,
      "frameMs": 9.5
    },
    {
      "t": 2309.2,
      "rD": 0.1,
      "hC": 0.15,
      "mA": 0.31,
      "tD": 0.31,
      "mode": "A_lydian",
      "bpm": 78,
      "arc": 0.892,
      "ent": 146,
      "brk": 0,
      "frameMs": 8.3
    },
    {
      "t": 2310.2,
      "rD": 0.11,
      "hC": 0.16,
      "mA": 0.32,
      "tD": 0.32,
      "mode": "A_lydian",
      "bpm": 78,
      "arc": 0.892,
      "ent": 156,
      "brk": 0,
      "frameMs": 8.5
    },
    {
      "t": 2311.2,
      "rD": 0.11,
      "hC": 0.16,
      "mA": 0.32,
      "tD": 0.32,
      "mode": "A_lydian",
      "bpm": 78,
      "arc": 0.893,
      "ent": 162,
      "brk": 0,
      "frameMs": 8.2
    },
    {
      "t": 2312.2,
      "rD": 0.12,
      "hC": 0.16,
      "mA": 0.32,
      "tD": 0.32,
      "mode": "A_lydian",
      "bpm": 78,
      "arc": 0.893,
      "ent": 183,
      "brk": 0,
      "frameMs": 8
    },
    {
      "t": 2313.2,
      "rD": 0.12,
      "hC": 0.16,
      "mA": 0.32,
      "tD": 0.32,
      "mode": "A_lydian",
      "bpm": 78,
      "arc": 0.894,
      "ent": 176,
      "brk": 0,
      "frameMs": 8.9
    },
    {
      "t": 2314.2,
      "rD": 0.12,
      "hC": 0.16,
      "mA": 0.32,
      "tD": 0.32,
      "mode": "A_lydian",
      "bpm": 78,
      "arc": 0.894,
      "ent": 170,
      "brk": 0,
      "frameMs": 8.9
    },
    {
      "t": 2315.2,
      "rD": 0.11,
      "hC": 0.16,
      "mA": 0.31,
      "tD": 0.31,
      "mode": "A_lydian",
      "bpm": 78,
      "arc": 0.894,
      "ent": 180,
      "brk": 0,
      "frameMs": 10
    },
    {
      "t": 2316.2,
      "rD": 0.1,
      "hC": 0.15,
      "mA": 0.31,
      "tD": 0.31,
      "mode": "A_lydian",
      "bpm": 78,
      "arc": 0.895,
      "ent": 168,
      "brk": 0,
      "frameMs": 9.4
    },
    {
      "t": 2317.2,
      "rD": 0.09,
      "hC": 0.14,
      "mA": 0.3,
      "tD": 0.29,
      "mode": "A_lydian",
      "bpm": 78,
      "arc": 0.895,
      "ent": 167,
      "brk": 0,
      "frameMs": 9.7
    },
    {
      "t": 2318.2,
      "rD": 0.08,
      "hC": 0.13,
      "mA": 0.29,
      "tD": 0.28,
      "mode": "A_lydian",
      "bpm": 78,
      "arc": 0.896,
      "ent": 175,
      "brk": 0,
      "frameMs": 10.2
    },
    {
      "t": 2319.2,
      "rD": 0.06,
      "hC": 0.12,
      "mA": 0.28,
      "tD": 0.27,
      "mode": "A_lydian",
      "bpm": 78,
      "arc": 0.896,
      "ent": 184,
      "brk": 0,
      "frameMs": 10.1
    },
    {
      "t": 2320.2,
      "rD": 0.05,
      "hC": 0.11,
      "mA": 0.27,
      "tD": 0.26,
      "mode": "A_lydian",
      "bpm": 78,
      "arc": 0.896,
      "ent": 190,
      "brk": 0,
      "frameMs": 8.3
    },
    {
      "t": 2321.2,
      "rD": 0.04,
      "hC": 0.11,
      "mA": 0.27,
      "tD": 0.25,
      "mode": "A_lydian",
      "bpm": 78,
      "arc": 0.897,
      "ent": 166,
      "brk": 0,
      "frameMs": 8.3
    },
    {
      "t": 2322.2,
      "rD": 0.03,
      "hC": 0.1,
      "mA": 0.26,
      "tD": 0.24,
      "mode": "A_lydian",
      "bpm": 78,
      "arc": 0.897,
      "ent": 131,
      "brk": 0,
      "frameMs": 10.1
    },
    {
      "t": 2323.2,
      "rD": 0.02,
      "hC": 0.09,
      "mA": 0.25,
      "tD": 0.23,
      "mode": "A_lydian",
      "bpm": 78,
      "arc": 0.898,
      "ent": 97,
      "brk": 0,
      "frameMs": 8.4
    },
    {
      "t": 2324.2,
      "rD": 0.01,
      "hC": 0.09,
      "mA": 0.25,
      "tD": 0.22,
      "mode": "A_lydian",
      "bpm": 78,
      "arc": 0.898,
      "ent": 73,
      "brk": 0,
      "frameMs": 8.3
    },
    {
      "t": 2325.2,
      "rD": 0.01,
      "hC": 0.09,
      "mA": 0.25,
      "tD": 0.22,
      "mode": "A_lydian",
      "bpm": 78,
      "arc": 0.898,
      "ent": 46,
      "brk": 0,
      "frameMs": 8.1
    },
    {
      "t": 2326.2,
      "rD": 0.02,
      "hC": 0.09,
      "mA": 0.25,
      "tD": 0.22,
      "mode": "A_lydian",
      "bpm": 78,
      "arc": 0.899,
      "ent": 30,
      "brk": 0,
      "frameMs": 8
    },
    {
      "t": 2327.3,
      "rD": 0.02,
      "hC": 0.1,
      "mA": 0.25,
      "tD": 0.23,
      "mode": "A_lydian",
      "bpm": 78,
      "arc": 0.899,
      "ent": 19,
      "brk": 0,
      "frameMs": 9.9
    },
    {
      "t": 2328.3,
      "rD": 0.03,
      "hC": 0.1,
      "mA": 0.25,
      "tD": 0.23,
      "mode": "A_lydian",
      "bpm": 78,
      "arc": 0.899,
      "ent": 11,
      "brk": 0,
      "frameMs": 8.4
    },
    {
      "t": 2329.3,
      "rD": 0.04,
      "hC": 0.11,
      "mA": 0.26,
      "tD": 0.24,
      "mode": "A_lydian",
      "bpm": 78,
      "arc": 0.9,
      "ent": 11,
      "brk": 0,
      "frameMs": 8.2
    },
    {
      "t": 2330.3,
      "rD": 0.05,
      "hC": 0.12,
      "mA": 0.26,
      "tD": 0.25,
      "mode": "A_lydian",
      "bpm": 78,
      "arc": 0.9,
      "ent": 16,
      "brk": 0,
      "frameMs": 8.5
    },
    {
      "t": 2331.3,
      "rD": 0.07,
      "hC": 0.13,
      "mA": 0.27,
      "tD": 0.26,
      "mode": "A_lydian",
      "bpm": 78,
      "arc": 0.901,
      "ent": 30,
      "brk": 0,
      "frameMs": 7.9
    },
    {
      "t": 2332.3,
      "rD": 0.08,
      "hC": 0.13,
      "mA": 0.27,
      "tD": 0.26,
      "mode": "A_lydian",
      "bpm": 78,
      "arc": 0.901,
      "ent": 25,
      "brk": 0,
      "frameMs": 8.5
    },
    {
      "t": 2333.3,
      "rD": 0.09,
      "hC": 0.14,
      "mA": 0.27,
      "tD": 0.27,
      "mode": "A_lydian",
      "bpm": 78,
      "arc": 0.901,
      "ent": 41,
      "brk": 0,
      "frameMs": 8.4
    },
    {
      "t": 2334.3,
      "rD": 0.09,
      "hC": 0.15,
      "mA": 0.27,
      "tD": 0.27,
      "mode": "A_lydian",
      "bpm": 78,
      "arc": 0.902,
      "ent": 62,
      "brk": 0,
      "frameMs": 8.3
    },
    {
      "t": 2335.3,
      "rD": 0.1,
      "hC": 0.15,
      "mA": 0.27,
      "tD": 0.27,
      "mode": "A_lydian",
      "bpm": 78,
      "arc": 0.902,
      "ent": 98,
      "brk": 0,
      "frameMs": 8.7
    },
    {
      "t": 2336.3,
      "rD": 0.1,
      "hC": 0.15,
      "mA": 0.27,
      "tD": 0.27,
      "mode": "A_lydian",
      "bpm": 78,
      "arc": 0.903,
      "ent": 117,
      "brk": 0,
      "frameMs": 8.4
    },
    {
      "t": 2337.3,
      "rD": 0.09,
      "hC": 0.15,
      "mA": 0.27,
      "tD": 0.27,
      "mode": "A_lydian",
      "bpm": 78,
      "arc": 0.903,
      "ent": 129,
      "brk": 0,
      "frameMs": 7.8
    },
    {
      "t": 2338.3,
      "rD": 0.09,
      "hC": 0.14,
      "mA": 0.27,
      "tD": 0.26,
      "mode": "A_lydian",
      "bpm": 78,
      "arc": 0.903,
      "ent": 149,
      "brk": 0,
      "frameMs": 8.3
    },
    {
      "t": 2339.3,
      "rD": 0.08,
      "hC": 0.13,
      "mA": 0.26,
      "tD": 0.25,
      "mode": "A_lydian",
      "bpm": 78,
      "arc": 0.904,
      "ent": 154,
      "brk": 0,
      "frameMs": 8.4
    },
    {
      "t": 2340.3,
      "rD": 0.07,
      "hC": 0.13,
      "mA": 0.25,
      "tD": 0.24,
      "mode": "A_lydian",
      "bpm": 78,
      "arc": 0.904,
      "ent": 155,
      "brk": 0,
      "frameMs": 6.7
    },
    {
      "t": 2341.3,
      "rD": 0.05,
      "hC": 0.12,
      "mA": 0.24,
      "tD": 0.23,
      "mode": "A_lydian",
      "bpm": 78,
      "arc": 0.905,
      "ent": 159,
      "brk": 0,
      "frameMs": 8.4
    },
    {
      "t": 2342.3,
      "rD": 0.04,
      "hC": 0.11,
      "mA": 0.24,
      "tD": 0.22,
      "mode": "A_lydian",
      "bpm": 78,
      "arc": 0.905,
      "ent": 138,
      "brk": 0,
      "frameMs": 8.8
    },
    {
      "t": 2343.3,
      "rD": 0.03,
      "hC": 0.1,
      "mA": 0.23,
      "tD": 0.2,
      "mode": "A_lydian",
      "bpm": 78,
      "arc": 0.905,
      "ent": 111,
      "brk": 0,
      "frameMs": 8.4
    },
    {
      "t": 2344.3,
      "rD": 0.01,
      "hC": 0.09,
      "mA": 0.22,
      "tD": 0.19,
      "mode": "A_lydian",
      "bpm": 78,
      "arc": 0.906,
      "ent": 102,
      "brk": 0,
      "frameMs": 8.3
    },
    {
      "t": 2345.3,
      "rD": 0,
      "hC": 0.08,
      "mA": 0.21,
      "tD": 0.18,
      "mode": "A_lydian",
      "bpm": 78,
      "arc": 0.906,
      "ent": 86,
      "brk": 0,
      "frameMs": 8.9
    },
    {
      "t": 2346.3,
      "rD": 0,
      "hC": 0.08,
      "mA": 0.21,
      "tD": 0.18,
      "mode": "A_lydian",
      "bpm": 78,
      "arc": 0.906,
      "ent": 70,
      "brk": 0,
      "frameMs": 9.5
    },
    {
      "t": 2347.3,
      "rD": 0,
      "hC": 0.07,
      "mA": 0.2,
      "tD": 0.17,
      "mode": "A_lydian",
      "bpm": 78,
      "arc": 0.907,
      "ent": 50,
      "brk": 0,
      "frameMs": 8.4
    },
    {
      "t": 2348.4,
      "rD": 0,
      "hC": 0.07,
      "mA": 0.2,
      "tD": 0.17,
      "mode": "A_lydian",
      "bpm": 78,
      "arc": 0.907,
      "ent": 32,
      "brk": 0,
      "frameMs": 10.2
    },
    {
      "t": 2349.4,
      "rD": 0,
      "hC": 0.08,
      "mA": 0.2,
      "tD": 0.17,
      "mode": "A_lydian",
      "bpm": 78,
      "arc": 0.908,
      "ent": 17,
      "brk": 0,
      "frameMs": 6.9
    },
    {
      "t": 2350.4,
      "rD": 0.01,
      "hC": 0.08,
      "mA": 0.2,
      "tD": 0.17,
      "mode": "A_lydian",
      "bpm": 78,
      "arc": 0.908,
      "ent": 13,
      "brk": 0,
      "frameMs": 8.1
    },
    {
      "t": 2351.4,
      "rD": 0.01,
      "hC": 0.09,
      "mA": 0.21,
      "tD": 0.18,
      "mode": "A_lydian",
      "bpm": 78,
      "arc": 0.908,
      "ent": 10,
      "brk": 0,
      "frameMs": 10
    },
    {
      "t": 2352.4,
      "rD": 0.02,
      "hC": 0.09,
      "mA": 0.21,
      "tD": 0.19,
      "mode": "A_lydian",
      "bpm": 78,
      "arc": 0.909,
      "ent": 5,
      "brk": 0,
      "frameMs": 8
    },
    {
      "t": 2353.4,
      "rD": 0.04,
      "hC": 0.1,
      "mA": 0.22,
      "tD": 0.2,
      "mode": "A_lydian",
      "bpm": 78,
      "arc": 0.909,
      "ent": 5,
      "brk": 0,
      "frameMs": 7.8
    },
    {
      "t": 2354.4,
      "rD": 0.05,
      "hC": 0.11,
      "mA": 0.22,
      "tD": 0.2,
      "mode": "A_lydian",
      "bpm": 78,
      "arc": 0.91,
      "ent": 7,
      "brk": 0,
      "frameMs": 8.1
    },
    {
      "t": 2355.4,
      "rD": 0.06,
      "hC": 0.12,
      "mA": 0.22,
      "tD": 0.21,
      "mode": "A_lydian",
      "bpm": 78,
      "arc": 0.91,
      "ent": 7,
      "brk": 0,
      "frameMs": 8.3
    },
    {
      "t": 2356.4,
      "rD": 0.07,
      "hC": 0.13,
      "mA": 0.23,
      "tD": 0.22,
      "mode": "A_lydian",
      "bpm": 78,
      "arc": 0.91,
      "ent": 25,
      "brk": 0,
      "frameMs": 8.3
    },
    {
      "t": 2357.4,
      "rD": 0.07,
      "hC": 0.13,
      "mA": 0.23,
      "tD": 0.22,
      "mode": "A_lydian",
      "bpm": 78,
      "arc": 0.911,
      "ent": 30,
      "brk": 0,
      "frameMs": 10.3
    },
    {
      "t": 2358.4,
      "rD": 0.08,
      "hC": 0.13,
      "mA": 0.23,
      "tD": 0.22,
      "mode": "A_lydian",
      "bpm": 78,
      "arc": 0.911,
      "ent": 27,
      "brk": 0,
      "frameMs": 8.5
    },
    {
      "t": 2359.4,
      "rD": 0.08,
      "hC": 0.13,
      "mA": 0.23,
      "tD": 0.22,
      "mode": "A_lydian",
      "bpm": 78,
      "arc": 0.912,
      "ent": 24,
      "brk": 0,
      "frameMs": 8.4
    },
    {
      "t": 2360.4,
      "rD": 0.07,
      "hC": 0.13,
      "mA": 0.23,
      "tD": 0.22,
      "mode": "A_lydian",
      "bpm": 78,
      "arc": 0.912,
      "ent": 17,
      "brk": 0,
      "frameMs": 8.6
    },
    {
      "t": 2361.4,
      "rD": 0.06,
      "hC": 0.13,
      "mA": 0.22,
      "tD": 0.21,
      "mode": "A_lydian",
      "bpm": 78,
      "arc": 0.912,
      "ent": 31,
      "brk": 0,
      "frameMs": 8
    },
    {
      "t": 2362.4,
      "rD": 0.05,
      "hC": 0.12,
      "mA": 0.21,
      "tD": 0.2,
      "mode": "A_lydian",
      "bpm": 78,
      "arc": 0.913,
      "ent": 42,
      "brk": 0,
      "frameMs": 8.3
    },
    {
      "t": 2363.4,
      "rD": 0.04,
      "hC": 0.11,
      "mA": 0.21,
      "tD": 0.19,
      "mode": "A_lydian",
      "bpm": 78,
      "arc": 0.913,
      "ent": 39,
      "brk": 0,
      "frameMs": 10.3
    },
    {
      "t": 2364.4,
      "rD": 0.03,
      "hC": 0.1,
      "mA": 0.2,
      "tD": 0.18,
      "mode": "A_lydian",
      "bpm": 78,
      "arc": 0.913,
      "ent": 37,
      "brk": 0,
      "frameMs": 9.9
    },
    {
      "t": 2365.4,
      "rD": 0.02,
      "hC": 0.09,
      "mA": 0.19,
      "tD": 0.17,
      "mode": "A_lydian",
      "bpm": 78,
      "arc": 0.914,
      "ent": 31,
      "brk": 0,
      "frameMs": 8.5
    },
    {
      "t": 2366.4,
      "rD": 0,
      "hC": 0.08,
      "mA": 0.18,
      "tD": 0.15,
      "mode": "A_lydian",
      "bpm": 78,
      "arc": 0.914,
      "ent": 26,
      "brk": 0,
      "frameMs": 7.9
    },
    {
      "t": 2367.4,
      "rD": 0,
      "hC": 0.07,
      "mA": 0.18,
      "tD": 0.14,
      "mode": "A_lydian",
      "bpm": 78,
      "arc": 0.915,
      "ent": 23,
      "brk": 0,
      "frameMs": 8
    },
    {
      "t": 2368.4,
      "rD": 0,
      "hC": 0.07,
      "mA": 0.17,
      "tD": 0.13,
      "mode": "A_lydian",
      "bpm": 78,
      "arc": 0.915,
      "ent": 30,
      "brk": 0,
      "frameMs": 8.4
    },
    {
      "t": 2369.4,
      "rD": 0,
      "hC": 0.06,
      "mA": 0.17,
      "tD": 0.13,
      "mode": "A_lydian",
      "bpm": 78,
      "arc": 0.915,
      "ent": 28,
      "brk": 0,
      "frameMs": 8.5
    },
    {
      "t": 2370.4,
      "rD": 0,
      "hC": 0.06,
      "mA": 0.16,
      "tD": 0.12,
      "mode": "A_lydian",
      "bpm": 78,
      "arc": 0.916,
      "ent": 22,
      "brk": 0,
      "frameMs": 8.4
    },
    {
      "t": 2371.4,
      "rD": 0,
      "hC": 0.06,
      "mA": 0.16,
      "tD": 0.12,
      "mode": "A_lydian",
      "bpm": 78,
      "arc": 0.916,
      "ent": 19,
      "brk": 0,
      "frameMs": 8.6
    },
    {
      "t": 2372.5,
      "rD": 0,
      "hC": 0.06,
      "mA": 0.16,
      "tD": 0.12,
      "mode": "A_lydian",
      "bpm": 78,
      "arc": 0.917,
      "ent": 14,
      "brk": 0,
      "frameMs": 8.7
    },
    {
      "t": 2373.5,
      "rD": 0,
      "hC": 0.07,
      "mA": 0.16,
      "tD": 0.13,
      "mode": "A_lydian",
      "bpm": 78,
      "arc": 0.917,
      "ent": 11,
      "brk": 0,
      "frameMs": 7.2
    },
    {
      "t": 2374.5,
      "rD": 0.01,
      "hC": 0.07,
      "mA": 0.17,
      "tD": 0.14,
      "mode": "A_lydian",
      "bpm": 78,
      "arc": 0.917,
      "ent": 10,
      "brk": 0,
      "frameMs": 8.3
    },
    {
      "t": 2375.5,
      "rD": 0.01,
      "hC": 0.08,
      "mA": 0.17,
      "tD": 0.14,
      "mode": "A_lydian",
      "bpm": 78,
      "arc": 0.918,
      "ent": 5,
      "brk": 0,
      "frameMs": 9.6
    },
    {
      "t": 2376.5,
      "rD": 0.02,
      "hC": 0.09,
      "mA": 0.18,
      "tD": 0.15,
      "mode": "A_lydian",
      "bpm": 78,
      "arc": 0.918,
      "ent": 2,
      "brk": 0,
      "frameMs": 8.3
    },
    {
      "t": 2377.5,
      "rD": 0.03,
      "hC": 0.1,
      "mA": 0.18,
      "tD": 0.16,
      "mode": "A_lydian",
      "bpm": 78,
      "arc": 0.919,
      "ent": 3,
      "brk": 0,
      "frameMs": 8.3
    },
    {
      "t": 2378.5,
      "rD": 0.04,
      "hC": 0.11,
      "mA": 0.19,
      "tD": 0.17,
      "mode": "A_lydian",
      "bpm": 78,
      "arc": 0.919,
      "ent": 3,
      "brk": 0,
      "frameMs": 9.8
    },
    {
      "t": 2379.5,
      "rD": 0.05,
      "hC": 0.11,
      "mA": 0.19,
      "tD": 0.17,
      "mode": "A_lydian",
      "bpm": 78,
      "arc": 0.919,
      "ent": 6,
      "brk": 0,
      "frameMs": 8.8
    },
    {
      "t": 2380.5,
      "rD": 0.06,
      "hC": 0.12,
      "mA": 0.19,
      "tD": 0.18,
      "mode": "A_lydian",
      "bpm": 78,
      "arc": 0.92,
      "ent": 22,
      "brk": 0,
      "frameMs": 9
    },
    {
      "t": 2381.5,
      "rD": 0.06,
      "hC": 0.12,
      "mA": 0.19,
      "tD": 0.18,
      "mode": "A_lydian",
      "bpm": 78,
      "arc": 0.92,
      "ent": 26,
      "brk": 0,
      "frameMs": 8.4
    },
    {
      "t": 2382.5,
      "rD": 0.06,
      "hC": 0.12,
      "mA": 0.19,
      "tD": 0.18,
      "mode": "A_lydian",
      "bpm": 78,
      "arc": 0.92,
      "ent": 45,
      "brk": 0,
      "frameMs": 8
    },
    {
      "t": 2383.5,
      "rD": 0.05,
      "hC": 0.12,
      "mA": 0.19,
      "tD": 0.18,
      "mode": "A_lydian",
      "bpm": 78,
      "arc": 0.921,
      "ent": 41,
      "brk": 0,
      "frameMs": 7.9
    },
    {
      "t": 2384.5,
      "rD": 0.05,
      "hC": 0.11,
      "mA": 0.19,
      "tD": 0.17,
      "mode": "A_lydian",
      "bpm": 78,
      "arc": 0.921,
      "ent": 54,
      "brk": 0,
      "frameMs": 8.9
    },
    {
      "t": 2385.5,
      "rD": 0.04,
      "hC": 0.11,
      "mA": 0.18,
      "tD": 0.16,
      "mode": "A_lydian",
      "bpm": 78,
      "arc": 0.922,
      "ent": 49,
      "brk": 0,
      "frameMs": 10.2
    },
    {
      "t": 2386.5,
      "rD": 0.03,
      "hC": 0.1,
      "mA": 0.17,
      "tD": 0.15,
      "mode": "A_lydian",
      "bpm": 78,
      "arc": 0.922,
      "ent": 39,
      "brk": 0,
      "frameMs": 8.3
    },
    {
      "t": 2387.5,
      "rD": 0.01,
      "hC": 0.09,
      "mA": 0.17,
      "tD": 0.14,
      "mode": "A_lydian",
      "bpm": 78,
      "arc": 0.922,
      "ent": 30,
      "brk": 0,
      "frameMs": 8.4
    },
    {
      "t": 2388.5,
      "rD": 0,
      "hC": 0.08,
      "mA": 0.16,
      "tD": 0.13,
      "mode": "A_lydian",
      "bpm": 78,
      "arc": 0.923,
      "ent": 18,
      "brk": 0,
      "frameMs": 8.3
    },
    {
      "t": 2389.5,
      "rD": 0,
      "hC": 0.07,
      "mA": 0.15,
      "tD": 0.12,
      "mode": "A_lydian",
      "bpm": 78,
      "arc": 0.923,
      "ent": 11,
      "brk": 0,
      "frameMs": 8.3
    },
    {
      "t": 2390.5,
      "rD": 0,
      "hC": 0.06,
      "mA": 0.15,
      "tD": 0.11,
      "mode": "A_lydian",
      "bpm": 78,
      "arc": 0.924,
      "ent": 10,
      "brk": 0,
      "frameMs": 8.3
    },
    {
      "t": 2391.5,
      "rD": 0,
      "hC": 0.06,
      "mA": 0.14,
      "tD": 0.1,
      "mode": "A_lydian",
      "bpm": 78,
      "arc": 0.924,
      "ent": 10,
      "brk": 0,
      "frameMs": 8.2
    },
    {
      "t": 2392.5,
      "rD": 0,
      "hC": 0.05,
      "mA": 0.14,
      "tD": 0.09,
      "mode": "A_lydian",
      "bpm": 78,
      "arc": 0.924,
      "ent": 9,
      "brk": 0,
      "frameMs": 9.3
    },
    {
      "t": 2393.5,
      "rD": 0,
      "hC": 0.05,
      "mA": 0.13,
      "tD": 0.09,
      "mode": "A_lydian",
      "bpm": 78,
      "arc": 0.925,
      "ent": 12,
      "brk": 0,
      "frameMs": 8.4
    },
    {
      "t": 2394.5,
      "rD": 0,
      "hC": 0.05,
      "mA": 0.13,
      "tD": 0.09,
      "mode": "A_lydian",
      "bpm": 78,
      "arc": 0.925,
      "ent": 13,
      "brk": 0,
      "frameMs": 8.4
    },
    {
      "t": 2395.5,
      "rD": 0,
      "hC": 0.05,
      "mA": 0.14,
      "tD": 0.09,
      "mode": "A_lydian",
      "bpm": 78,
      "arc": 0.926,
      "ent": 11,
      "brk": 0,
      "frameMs": 8.3
    },
    {
      "t": 2396.6,
      "rD": 0,
      "hC": 0.06,
      "mA": 0.14,
      "tD": 0.1,
      "mode": "A_lydian",
      "bpm": 78,
      "arc": 0.926,
      "ent": 8,
      "brk": 0,
      "frameMs": 8.4
    },
    {
      "t": 2397.6,
      "rD": 0,
      "hC": 0.07,
      "mA": 0.14,
      "tD": 0.11,
      "mode": "A_lydian",
      "bpm": 78,
      "arc": 0.926,
      "ent": 8,
      "brk": 0,
      "frameMs": 8.4
    },
    {
      "t": 2398.6,
      "rD": 0.01,
      "hC": 0.07,
      "mA": 0.15,
      "tD": 0.12,
      "mode": "A_lydian",
      "bpm": 78,
      "arc": 0.927,
      "ent": 8,
      "brk": 0,
      "frameMs": 9.9
    },
    {
      "t": 2399.6,
      "rD": 0.02,
      "hC": 0.08,
      "mA": 0.15,
      "tD": 0.13,
      "mode": "A_lydian",
      "bpm": 78,
      "arc": 0.927,
      "ent": 5,
      "brk": 0,
      "frameMs": 10.1
    },
    {
      "t": 2400.6,
      "rD": 0.03,
      "hC": 0.09,
      "mA": 0.16,
      "tD": 0.14,
      "mode": "A_lydian",
      "bpm": 78,
      "arc": 0.927,
      "ent": 4,
      "brk": 0,
      "frameMs": 8.3
    },
    {
      "t": 2401.6,
      "rD": 0.04,
      "hC": 0.1,
      "mA": 0.17,
      "tD": 0.14,
      "mode": "A_lydian",
      "bpm": 78,
      "arc": 0.928,
      "ent": 8,
      "brk": 0,
      "frameMs": 8.4
    },
    {
      "t": 2402.6,
      "rD": 0.04,
      "hC": 0.11,
      "mA": 0.17,
      "tD": 0.15,
      "mode": "A_lydian",
      "bpm": 78,
      "arc": 0.928,
      "ent": 9,
      "brk": 0,
      "frameMs": 8.8
    },
    {
      "t": 2403.6,
      "rD": 0.05,
      "hC": 0.11,
      "mA": 0.17,
      "tD": 0.16,
      "mode": "A_lydian",
      "bpm": 78,
      "arc": 0.929,
      "ent": 8,
      "brk": 0,
      "frameMs": 8.4
    },
    {
      "t": 2404.6,
      "rD": 0.05,
      "hC": 0.11,
      "mA": 0.17,
      "tD": 0.16,
      "mode": "A_lydian",
      "bpm": 78,
      "arc": 0.929,
      "ent": 11,
      "brk": 0,
      "frameMs": 8
    },
    {
      "t": 2405.6,
      "rD": 0.05,
      "hC": 0.11,
      "mA": 0.17,
      "tD": 0.16,
      "mode": "A_lydian",
      "bpm": 78,
      "arc": 0.929,
      "ent": 26,
      "brk": 0,
      "frameMs": 8.9
    },
    {
      "t": 2406.6,
      "rD": 0.05,
      "hC": 0.11,
      "mA": 0.17,
      "tD": 0.16,
      "mode": "A_lydian",
      "bpm": 78,
      "arc": 0.93,
      "ent": 25,
      "brk": 0,
      "frameMs": 9.5
    },
    {
      "t": 2407.6,
      "rD": 0.04,
      "hC": 0.11,
      "mA": 0.17,
      "tD": 0.15,
      "mode": "A_lydian",
      "bpm": 78,
      "arc": 0.93,
      "ent": 24,
      "brk": 0,
      "frameMs": 8.3
    },
    {
      "t": 2408.6,
      "rD": 0.03,
      "hC": 0.1,
      "mA": 0.16,
      "tD": 0.14,
      "mode": "A_lydian",
      "bpm": 78,
      "arc": 0.931,
      "ent": 24,
      "brk": 0,
      "frameMs": 8.4
    },
    {
      "t": 2409.6,
      "rD": 0.02,
      "hC": 0.09,
      "mA": 0.16,
      "tD": 0.13,
      "mode": "A_lydian",
      "bpm": 78,
      "arc": 0.931,
      "ent": 20,
      "brk": 0,
      "frameMs": 9.6
    },
    {
      "t": 2410.6,
      "rD": 0,
      "hC": 0.08,
      "mA": 0.15,
      "tD": 0.12,
      "mode": "A_lydian",
      "bpm": 78,
      "arc": 0.931,
      "ent": 16,
      "brk": 0,
      "frameMs": 8.8
    },
    {
      "t": 2411.6,
      "rD": 0,
      "hC": 0.07,
      "mA": 0.15,
      "tD": 0.11,
      "mode": "A_lydian",
      "bpm": 78,
      "arc": 0.932,
      "ent": 13,
      "brk": 0,
      "frameMs": 6.8
    },
    {
      "t": 2412.6,
      "rD": 0,
      "hC": 0.07,
      "mA": 0.14,
      "tD": 0.1,
      "mode": "A_lydian",
      "bpm": 78,
      "arc": 0.932,
      "ent": 8,
      "brk": 0,
      "frameMs": 7.9
    },
    {
      "t": 2413.6,
      "rD": 0,
      "hC": 0.06,
      "mA": 0.13,
      "tD": 0.09,
      "mode": "A_lydian",
      "bpm": 78,
      "arc": 0.933,
      "ent": 6,
      "brk": 0,
      "frameMs": 8.3
    },
    {
      "t": 2414.6,
      "rD": 0,
      "hC": 0.05,
      "mA": 0.13,
      "tD": 0.09,
      "mode": "A_lydian",
      "bpm": 78,
      "arc": 0.933,
      "ent": 7,
      "brk": 0,
      "frameMs": 10
    },
    {
      "t": 2415.6,
      "rD": 0,
      "hC": 0.05,
      "mA": 0.13,
      "tD": 0.08,
      "mode": "A_lydian",
      "bpm": 78,
      "arc": 0.933,
      "ent": 5,
      "brk": 0,
      "frameMs": 8.5
    },
    {
      "t": 2416.6,
      "rD": 0,
      "hC": 0.05,
      "mA": 0.13,
      "tD": 0.08,
      "mode": "A_lydian",
      "bpm": 78,
      "arc": 0.934,
      "ent": 5,
      "brk": 0,
      "frameMs": 7.9
    },
    {
      "t": 2417.6,
      "rD": 0,
      "hC": 0.05,
      "mA": 0.13,
      "tD": 0.08,
      "mode": "A_lydian",
      "bpm": 78,
      "arc": 0.934,
      "ent": 9,
      "brk": 0,
      "frameMs": 8.2
    },
    {
      "t": 2418.6,
      "rD": 0,
      "hC": 0.05,
      "mA": 0.13,
      "tD": 0.09,
      "mode": "A_lydian",
      "bpm": 78,
      "arc": 0.935,
      "ent": 9,
      "brk": 0,
      "frameMs": 8.3
    },
    {
      "t": 2419.7,
      "rD": 0,
      "hC": 0.06,
      "mA": 0.13,
      "tD": 0.09,
      "mode": "A_lydian",
      "bpm": 78,
      "arc": 0.935,
      "ent": 9,
      "brk": 0,
      "frameMs": 8
    },
    {
      "t": 2420.7,
      "rD": 0,
      "hC": 0.06,
      "mA": 0.14,
      "tD": 0.1,
      "mode": "A_lydian",
      "bpm": 78,
      "arc": 0.935,
      "ent": 8,
      "brk": 0,
      "frameMs": 9.6
    },
    {
      "t": 2421.7,
      "rD": 0.01,
      "hC": 0.07,
      "mA": 0.14,
      "tD": 0.11,
      "mode": "A_lydian",
      "bpm": 78,
      "arc": 0.936,
      "ent": 7,
      "brk": 0,
      "frameMs": 8.4
    },
    {
      "t": 2422.7,
      "rD": 0.02,
      "hC": 0.08,
      "mA": 0.15,
      "tD": 0.12,
      "mode": "A_lydian",
      "bpm": 78,
      "arc": 0.936,
      "ent": 3,
      "brk": 0,
      "frameMs": 8.8
    },
    {
      "t": 2423.7,
      "rD": 0.03,
      "hC": 0.09,
      "mA": 0.15,
      "tD": 0.13,
      "mode": "A_lydian",
      "bpm": 78,
      "arc": 0.936,
      "ent": 1,
      "brk": 0,
      "frameMs": 9
    },
    {
      "t": 2424.7,
      "rD": 0.04,
      "hC": 0.1,
      "mA": 0.16,
      "tD": 0.14,
      "mode": "A_lydian",
      "bpm": 78,
      "arc": 0.937,
      "ent": 1,
      "brk": 0,
      "frameMs": 7.3
    },
    {
      "t": 2425.7,
      "rD": 0.04,
      "hC": 0.1,
      "mA": 0.16,
      "tD": 0.14,
      "mode": "A_lydian",
      "bpm": 78,
      "arc": 0.937,
      "ent": 0,
      "brk": 0,
      "frameMs": 8.7
    },
    {
      "t": 2426.7,
      "rD": 0.05,
      "hC": 0.11,
      "mA": 0.16,
      "tD": 0.15,
      "mode": "A_lydian",
      "bpm": 78,
      "arc": 0.938,
      "ent": 0,
      "brk": 0,
      "frameMs": 9
    },
    {
      "t": 2427.7,
      "rD": 0.05,
      "hC": 0.11,
      "mA": 0.17,
      "tD": 0.15,
      "mode": "A_lydian",
      "bpm": 78,
      "arc": 0.938,
      "ent": 0,
      "brk": 0,
      "frameMs": 9.2
    },
    {
      "t": 2428.7,
      "rD": 0.05,
      "hC": 0.11,
      "mA": 0.16,
      "tD": 0.15,
      "mode": "A_lydian",
      "bpm": 78,
      "arc": 0.938,
      "ent": 15,
      "brk": 0,
      "frameMs": 8.9
    },
    {
      "t": 2429.7,
      "rD": 0.05,
      "hC": 0.11,
      "mA": 0.16,
      "tD": 0.15,
      "mode": "A_lydian",
      "bpm": 78,
      "arc": 0.939,
      "ent": 30,
      "brk": 0,
      "frameMs": 7.3
    },
    {
      "t": 2430.7,
      "rD": 0.04,
      "hC": 0.1,
      "mA": 0.16,
      "tD": 0.14,
      "mode": "A_lydian",
      "bpm": 78,
      "arc": 0.939,
      "ent": 31,
      "brk": 0,
      "frameMs": 9.6
    },
    {
      "t": 2431.7,
      "rD": 0.03,
      "hC": 0.09,
      "mA": 0.15,
      "tD": 0.13,
      "mode": "A_lydian",
      "bpm": 78,
      "arc": 0.94,
      "ent": 30,
      "brk": 0,
      "frameMs": 9.7
    },
    {
      "t": 2432.7,
      "rD": 0.02,
      "hC": 0.09,
      "mA": 0.14,
      "tD": 0.12,
      "mode": "A_lydian",
      "bpm": 78,
      "arc": 0.94,
      "ent": 25,
      "brk": 0,
      "frameMs": 8.3
    },
    {
      "t": 2433.7,
      "rD": 0,
      "hC": 0.08,
      "mA": 0.14,
      "tD": 0.11,
      "mode": "A_lydian",
      "bpm": 78,
      "arc": 0.94,
      "ent": 23,
      "brk": 0,
      "frameMs": 8.4
    },
    {
      "t": 2434.7,
      "rD": 0,
      "hC": 0.07,
      "mA": 0.13,
      "tD": 0.1,
      "mode": "A_lydian",
      "bpm": 78,
      "arc": 0.941,
      "ent": 13,
      "brk": 0,
      "frameMs": 9
    },
    {
      "t": 2435.7,
      "rD": 0,
      "hC": 0.06,
      "mA": 0.12,
      "tD": 0.09,
      "mode": "A_lydian",
      "bpm": 78,
      "arc": 0.941,
      "ent": 11,
      "brk": 0,
      "frameMs": 9.9
    },
    {
      "t": 2436.7,
      "rD": 0,
      "hC": 0.05,
      "mA": 0.12,
      "tD": 0.08,
      "mode": "A_lydian",
      "bpm": 78,
      "arc": 0.941,
      "ent": 7,
      "brk": 0,
      "frameMs": 8.6
    },
    {
      "t": 2437.7,
      "rD": 0,
      "hC": 0.05,
      "mA": 0.11,
      "tD": 0.07,
      "mode": "A_lydian",
      "bpm": 78,
      "arc": 0.942,
      "ent": 3,
      "brk": 0,
      "frameMs": 10.4
    },
    {
      "t": 2438.7,
      "rD": 0,
      "hC": 0.04,
      "mA": 0.11,
      "tD": 0.07,
      "mode": "A_lydian",
      "bpm": 78,
      "arc": 0.942,
      "ent": 1,
      "brk": 0,
      "frameMs": 10
    },
    {
      "t": 2439.7,
      "rD": 0,
      "hC": 0.04,
      "mA": 0.1,
      "tD": 0.07,
      "mode": "A_lydian",
      "bpm": 78,
      "arc": 0.943,
      "ent": 2,
      "brk": 0,
      "frameMs": 7.7
    },
    {
      "t": 2440.7,
      "rD": 0,
      "hC": 0.04,
      "mA": 0.1,
      "tD": 0.07,
      "mode": "A_lydian",
      "bpm": 78,
      "arc": 0.943,
      "ent": 1,
      "brk": 0,
      "frameMs": 8.3
    },
    {
      "t": 2441.7,
      "rD": 0,
      "hC": 0.04,
      "mA": 0.11,
      "tD": 0.07,
      "mode": "A_lydian",
      "bpm": 78,
      "arc": 0.943,
      "ent": 1,
      "brk": 0,
      "frameMs": 8.9
    },
    {
      "t": 2442.7,
      "rD": 0,
      "hC": 0.05,
      "mA": 0.11,
      "tD": 0.07,
      "mode": "A_lydian",
      "bpm": 78,
      "arc": 0.944,
      "ent": 6,
      "brk": 0,
      "frameMs": 8.3
    },
    {
      "t": 2443.7,
      "rD": 0,
      "hC": 0.06,
      "mA": 0.11,
      "tD": 0.08,
      "mode": "A_lydian",
      "bpm": 78,
      "arc": 0.944,
      "ent": 6,
      "brk": 0,
      "frameMs": 8.3
    },
    {
      "t": 2444.7,
      "rD": 0.01,
      "hC": 0.06,
      "mA": 0.12,
      "tD": 0.09,
      "mode": "A_lydian",
      "bpm": 78,
      "arc": 0.945,
      "ent": 6,
      "brk": 0,
      "frameMs": 8.3
    },
    {
      "t": 2445.7,
      "rD": 0.02,
      "hC": 0.07,
      "mA": 0.12,
      "tD": 0.1,
      "mode": "A_lydian",
      "bpm": 78,
      "arc": 0.945,
      "ent": 4,
      "brk": 0,
      "frameMs": 8.3
    },
    {
      "t": 2446.7,
      "rD": 0.03,
      "hC": 0.08,
      "mA": 0.13,
      "tD": 0.11,
      "mode": "A_lydian",
      "bpm": 78,
      "arc": 0.945,
      "ent": 3,
      "brk": 0,
      "frameMs": 8.3
    },
    {
      "t": 2447.7,
      "rD": 0.04,
      "hC": 0.09,
      "mA": 0.13,
      "tD": 0.12,
      "mode": "A_lydian",
      "bpm": 78,
      "arc": 0.946,
      "ent": 11,
      "brk": 0,
      "frameMs": 9.2
    },
    {
      "t": 2448.8,
      "rD": 0.04,
      "hC": 0.09,
      "mA": 0.13,
      "tD": 0.12,
      "mode": "A_lydian",
      "bpm": 78,
      "arc": 0.946,
      "ent": 13,
      "brk": 0,
      "frameMs": 9
    },
    {
      "t": 2449.8,
      "rD": 0.05,
      "hC": 0.1,
      "mA": 0.14,
      "tD": 0.13,
      "mode": "A_lydian",
      "bpm": 78,
      "arc": 0.947,
      "ent": 14,
      "brk": 0,
      "frameMs": 9.4
    },
    {
      "t": 2450.8,
      "rD": 0.05,
      "hC": 0.1,
      "mA": 0.14,
      "tD": 0.13,
      "mode": "A_lydian",
      "bpm": 78,
      "arc": 0.947,
      "ent": 16,
      "brk": 0,
      "frameMs": 8.2
    },
    {
      "t": 2451.8,
      "rD": 0.05,
      "hC": 0.1,
      "mA": 0.13,
      "tD": 0.13,
      "mode": "A_lydian",
      "bpm": 78,
      "arc": 0.947,
      "ent": 29,
      "brk": 0,
      "frameMs": 7.9
    },
    {
      "t": 2452.8,
      "rD": 0.05,
      "hC": 0.1,
      "mA": 0.13,
      "tD": 0.12,
      "mode": "A_lydian",
      "bpm": 78,
      "arc": 0.948,
      "ent": 31,
      "brk": 0,
      "frameMs": 8.4
    },
    {
      "t": 2453.8,
      "rD": 0.04,
      "hC": 0.09,
      "mA": 0.13,
      "tD": 0.12,
      "mode": "A_lydian",
      "bpm": 78,
      "arc": 0.948,
      "ent": 31,
      "brk": 0,
      "frameMs": 8.2
    },
    {
      "t": 2454.8,
      "rD": 0.03,
      "hC": 0.08,
      "mA": 0.12,
      "tD": 0.11,
      "mode": "A_lydian",
      "bpm": 78,
      "arc": 0.949,
      "ent": 28,
      "brk": 0,
      "frameMs": 9.8
    },
    {
      "t": 2455.8,
      "rD": 0.02,
      "hC": 0.08,
      "mA": 0.11,
      "tD": 0.1,
      "mode": "A_lydian",
      "bpm": 78,
      "arc": 0.949,
      "ent": 28,
      "brk": 0,
      "frameMs": 8.7
    },
    {
      "t": 2456.8,
      "rD": 0,
      "hC": 0.07,
      "mA": 0.1,
      "tD": 0.09,
      "mode": "A_lydian",
      "bpm": 78,
      "arc": 0.949,
      "ent": 23,
      "brk": 0,
      "frameMs": 9.1
    },
    {
      "t": 2457.8,
      "rD": 0,
      "hC": 0.06,
      "mA": 0.1,
      "tD": 0.07,
      "mode": "A_lydian",
      "bpm": 78,
      "arc": 0.95,
      "ent": 16,
      "brk": 0,
      "frameMs": 9.1
    },
    {
      "t": 2458.8,
      "rD": 0,
      "hC": 0.05,
      "mA": 0.09,
      "tD": 0.06,
      "mode": "A_lydian",
      "bpm": 78,
      "arc": 0.95,
      "ent": 22,
      "brk": 0,
      "frameMs": 8.1
    },
    {
      "t": 2459.8,
      "rD": 0,
      "hC": 0.04,
      "mA": 0.08,
      "tD": 0.05,
      "mode": "A_lydian",
      "bpm": 78,
      "arc": 0.95,
      "ent": 15,
      "brk": 0,
      "frameMs": 8.7
    },
    {
      "t": 2460.8,
      "rD": 0,
      "hC": 0.03,
      "mA": 0.08,
      "tD": 0.05,
      "mode": "A_lydian",
      "bpm": 78,
      "arc": 0.951,
      "ent": 15,
      "brk": 0,
      "frameMs": 8.5
    },
    {
      "t": 2461.8,
      "rD": 0,
      "hC": 0.03,
      "mA": 0.07,
      "tD": 0.04,
      "mode": "A_lydian",
      "bpm": 78,
      "arc": 0.951,
      "ent": 14,
      "brk": 0,
      "frameMs": 9.5
    },
    {
      "t": 2462.8,
      "rD": 0,
      "hC": 0.03,
      "mA": 0.07,
      "tD": 0.04,
      "mode": "A_lydian",
      "bpm": 78,
      "arc": 0.952,
      "ent": 11,
      "brk": 0,
      "frameMs": 7.1
    },
    {
      "t": 2463.8,
      "rD": 0,
      "hC": 0.03,
      "mA": 0.07,
      "tD": 0.04,
      "mode": "A_lydian",
      "bpm": 78,
      "arc": 0.952,
      "ent": 10,
      "brk": 0,
      "frameMs": 8.3
    },
    {
      "t": 2464.8,
      "rD": 0,
      "hC": 0.03,
      "mA": 0.07,
      "tD": 0.04,
      "mode": "A_lydian",
      "bpm": 78,
      "arc": 0.952,
      "ent": 10,
      "brk": 0,
      "frameMs": 9.3
    },
    {
      "t": 2465.8,
      "rD": 0,
      "hC": 0.04,
      "mA": 0.08,
      "tD": 0.05,
      "mode": "A_lydian",
      "bpm": 78,
      "arc": 0.953,
      "ent": 10,
      "brk": 0,
      "frameMs": 6.9
    },
    {
      "t": 2466.8,
      "rD": 0,
      "hC": 0.05,
      "mA": 0.08,
      "tD": 0.06,
      "mode": "A_lydian",
      "bpm": 78,
      "arc": 0.953,
      "ent": 12,
      "brk": 0,
      "frameMs": 8.1
    },
    {
      "t": 2467.8,
      "rD": 0.01,
      "hC": 0.05,
      "mA": 0.08,
      "tD": 0.07,
      "mode": "A_lydian",
      "bpm": 78,
      "arc": 0.954,
      "ent": 10,
      "brk": 0,
      "frameMs": 8.5
    },
    {
      "t": 2468.9,
      "rD": 0.02,
      "hC": 0.06,
      "mA": 0.09,
      "tD": 0.08,
      "mode": "A_lydian",
      "bpm": 78,
      "arc": 0.954,
      "ent": 10,
      "brk": 0,
      "frameMs": 8.2
    },
    {
      "t": 2469.9,
      "rD": 0.03,
      "hC": 0.07,
      "mA": 0.09,
      "tD": 0.08,
      "mode": "A_lydian",
      "bpm": 78,
      "arc": 0.954,
      "ent": 8,
      "brk": 0,
      "frameMs": 9.4
    },
    {
      "t": 2470.9,
      "rD": 0.04,
      "hC": 0.08,
      "mA": 0.1,
      "tD": 0.09,
      "mode": "A_lydian",
      "bpm": 78,
      "arc": 0.955,
      "ent": 5,
      "brk": 0,
      "frameMs": 9.8
    },
    {
      "t": 2471.9,
      "rD": 0.05,
      "hC": 0.08,
      "mA": 0.1,
      "tD": 0.1,
      "mode": "A_lydian",
      "bpm": 78,
      "arc": 0.955,
      "ent": 5,
      "brk": 0,
      "frameMs": 7.5
    },
    {
      "t": 2472.9,
      "rD": 0.05,
      "hC": 0.09,
      "mA": 0.1,
      "tD": 0.1,
      "mode": "A_lydian",
      "bpm": 78,
      "arc": 0.956,
      "ent": 4,
      "brk": 0,
      "frameMs": 7.5
    },
    {
      "t": 2473.9,
      "rD": 0.05,
      "hC": 0.09,
      "mA": 0.1,
      "tD": 0.1,
      "mode": "A_lydian",
      "bpm": 78,
      "arc": 0.956,
      "ent": 3,
      "brk": 0,
      "frameMs": 8.3
    },
    {
      "t": 2474.9,
      "rD": 0.05,
      "hC": 0.09,
      "mA": 0.1,
      "tD": 0.1,
      "mode": "A_lydian",
      "bpm": 78,
      "arc": 0.956,
      "ent": 1,
      "brk": 0,
      "frameMs": 8.8
    },
    {
      "t": 2475.9,
      "rD": 0.04,
      "hC": 0.09,
      "mA": 0.1,
      "tD": 0.1,
      "mode": "A_lydian",
      "bpm": 78,
      "arc": 0.957,
      "ent": 0,
      "brk": 0,
      "frameMs": 8.4
    },
    {
      "t": 2476.9,
      "rD": 0.04,
      "hC": 0.08,
      "mA": 0.09,
      "tD": 0.09,
      "mode": "A_lydian",
      "bpm": 78,
      "arc": 0.957,
      "ent": 4,
      "brk": 0,
      "frameMs": 9.8
    },
    {
      "t": 2477.9,
      "rD": 0.03,
      "hC": 0.07,
      "mA": 0.09,
      "tD": 0.08,
      "mode": "A_lydian",
      "bpm": 78,
      "arc": 0.957,
      "ent": 6,
      "brk": 0,
      "frameMs": 7.8
    },
    {
      "t": 2478.9,
      "rD": 0.01,
      "hC": 0.06,
      "mA": 0.08,
      "tD": 0.07,
      "mode": "A_lydian",
      "bpm": 78,
      "arc": 0.958,
      "ent": 28,
      "brk": 0,
      "frameMs": 7.9
    },
    {
      "t": 2479.9,
      "rD": 0,
      "hC": 0.05,
      "mA": 0.07,
      "tD": 0.06,
      "mode": "A_lydian",
      "bpm": 78,
      "arc": 0.958,
      "ent": 30,
      "brk": 0,
      "frameMs": 8.3
    },
    {
      "t": 2480.9,
      "rD": 0,
      "hC": 0.05,
      "mA": 0.07,
      "tD": 0.05,
      "mode": "A_lydian",
      "bpm": 78,
      "arc": 0.959,
      "ent": 28,
      "brk": 0,
      "frameMs": 8.3
    },
    {
      "t": 2481.9,
      "rD": 0,
      "hC": 0.04,
      "mA": 0.06,
      "tD": 0.04,
      "mode": "A_lydian",
      "bpm": 78,
      "arc": 0.959,
      "ent": 26,
      "brk": 0,
      "frameMs": 8.2
    },
    {
      "t": 2482.9,
      "rD": 0,
      "hC": 0.03,
      "mA": 0.05,
      "tD": 0.03,
      "mode": "A_lydian",
      "bpm": 78,
      "arc": 0.959,
      "ent": 20,
      "brk": 0,
      "frameMs": 8.4
    },
    {
      "t": 2483.9,
      "rD": 0,
      "hC": 0.02,
      "mA": 0.05,
      "tD": 0.02,
      "mode": "A_lydian",
      "bpm": 78,
      "arc": 0.96,
      "ent": 18,
      "brk": 0,
      "frameMs": 6.8
    },
    {
      "t": 2484.9,
      "rD": 0,
      "hC": 0.02,
      "mA": 0.05,
      "tD": 0.02,
      "mode": "A_lydian",
      "bpm": 78,
      "arc": 0.96,
      "ent": 15,
      "brk": 0,
      "frameMs": 8.3
    },
    {
      "t": 2485.9,
      "rD": 0,
      "hC": 0.02,
      "mA": 0.04,
      "tD": 0.02,
      "mode": "A_lydian",
      "bpm": 78,
      "arc": 0.961,
      "ent": 10,
      "brk": 0,
      "frameMs": 7.9
    },
    {
      "t": 2486.9,
      "rD": 0,
      "hC": 0.02,
      "mA": 0.04,
      "tD": 0.02,
      "mode": "A_lydian",
      "bpm": 78,
      "arc": 0.961,
      "ent": 6,
      "brk": 0,
      "frameMs": 8.8
    },
    {
      "t": 2487.9,
      "rD": 0,
      "hC": 0.02,
      "mA": 0.05,
      "tD": 0.02,
      "mode": "A_lydian",
      "bpm": 78,
      "arc": 0.961,
      "ent": 3,
      "brk": 0,
      "frameMs": 10.2
    },
    {
      "t": 2488.9,
      "rD": 0,
      "hC": 0.03,
      "mA": 0.05,
      "tD": 0.03,
      "mode": "A_lydian",
      "bpm": 78,
      "arc": 0.962,
      "ent": 4,
      "brk": 0,
      "frameMs": 8.5
    },
    {
      "t": 2490,
      "rD": 0.01,
      "hC": 0.04,
      "mA": 0.06,
      "tD": 0.04,
      "mode": "A_lydian",
      "bpm": 78,
      "arc": 0.962,
      "ent": 4,
      "brk": 0,
      "frameMs": 7
    },
    {
      "t": 2491,
      "rD": 0.01,
      "hC": 0.05,
      "mA": 0.06,
      "tD": 0.05,
      "mode": "A_lydian",
      "bpm": 78,
      "arc": 0.963,
      "ent": 5,
      "brk": 0,
      "frameMs": 9.3
    },
    {
      "t": 2492,
      "rD": 0.02,
      "hC": 0.06,
      "mA": 0.07,
      "tD": 0.06,
      "mode": "A_lydian",
      "bpm": 78,
      "arc": 0.963,
      "ent": 13,
      "brk": 0,
      "frameMs": 8.4
    },
    {
      "t": 2493,
      "rD": 0.03,
      "hC": 0.06,
      "mA": 0.07,
      "tD": 0.07,
      "mode": "A_lydian",
      "bpm": 78,
      "arc": 0.963,
      "ent": 12,
      "brk": 0,
      "frameMs": 7.9
    },
    {
      "t": 2494,
      "rD": 0.04,
      "hC": 0.07,
      "mA": 0.08,
      "tD": 0.08,
      "mode": "A_lydian",
      "bpm": 78,
      "arc": 0.964,
      "ent": 9,
      "brk": 0,
      "frameMs": 9.1
    },
    {
      "t": 2495,
      "rD": 0.05,
      "hC": 0.08,
      "mA": 0.08,
      "tD": 0.08,
      "mode": "A_lydian",
      "bpm": 78,
      "arc": 0.964,
      "ent": 6,
      "brk": 0,
      "frameMs": 10.3
    },
    {
      "t": 2496,
      "rD": 0.05,
      "hC": 0.08,
      "mA": 0.08,
      "tD": 0.09,
      "mode": "A_lydian",
      "bpm": 78,
      "arc": 0.964,
      "ent": 5,
      "brk": 0,
      "frameMs": 7.9
    },
    {
      "t": 2497,
      "rD": 0.05,
      "hC": 0.08,
      "mA": 0.08,
      "tD": 0.09,
      "mode": "A_lydian",
      "bpm": 78,
      "arc": 0.965,
      "ent": 2,
      "brk": 0,
      "frameMs": 9.1
    },
    {
      "t": 2498,
      "rD": 0.05,
      "hC": 0.08,
      "mA": 0.08,
      "tD": 0.09,
      "mode": "A_lydian",
      "bpm": 78,
      "arc": 0.965,
      "ent": 1,
      "brk": 0,
      "frameMs": 8.2
    },
    {
      "t": 2499,
      "rD": 0.04,
      "hC": 0.08,
      "mA": 0.08,
      "tD": 0.08,
      "mode": "A_lydian",
      "bpm": 78,
      "arc": 0.966,
      "ent": 0,
      "brk": 0,
      "frameMs": 8.4
    },
    {
      "t": 2500,
      "rD": 0.04,
      "hC": 0.07,
      "mA": 0.08,
      "tD": 0.08,
      "mode": "A_lydian",
      "bpm": 78,
      "arc": 0.966,
      "ent": 0,
      "brk": 0,
      "frameMs": 8.7
    },
    {
      "t": 2501,
      "rD": 0.03,
      "hC": 0.07,
      "mA": 0.07,
      "tD": 0.07,
      "mode": "A_lydian",
      "bpm": 78,
      "arc": 0.966,
      "ent": 0,
      "brk": 0,
      "frameMs": 8.3
    },
    {
      "t": 2502,
      "rD": 0.01,
      "hC": 0.06,
      "mA": 0.07,
      "tD": 0.06,
      "mode": "A_lydian",
      "bpm": 78,
      "arc": 0.967,
      "ent": 0,
      "brk": 0,
      "frameMs": 8.4
    },
    {
      "t": 2503,
      "rD": 0,
      "hC": 0.05,
      "mA": 0.06,
      "tD": 0.05,
      "mode": "A_lydian",
      "bpm": 78,
      "arc": 0.967,
      "ent": 0,
      "brk": 0,
      "frameMs": 7.6
    },
    {
      "t": 2504,
      "rD": 0,
      "hC": 0.04,
      "mA": 0.05,
      "tD": 0.04,
      "mode": "A_lydian",
      "bpm": 78,
      "arc": 0.968,
      "ent": 2,
      "brk": 0,
      "frameMs": 8
    },
    {
      "t": 2505,
      "rD": 0,
      "hC": 0.03,
      "mA": 0.05,
      "tD": 0.03,
      "mode": "A_lydian",
      "bpm": 78,
      "arc": 0.968,
      "ent": 3,
      "brk": 0,
      "frameMs": 9.8
    },
    {
      "t": 2506,
      "rD": 0,
      "hC": 0.02,
      "mA": 0.04,
      "tD": 0.02,
      "mode": "A_lydian",
      "bpm": 78,
      "arc": 0.968,
      "ent": 4,
      "brk": 0,
      "frameMs": 9.7
    },
    {
      "t": 2507,
      "rD": 0,
      "hC": 0.02,
      "mA": 0.04,
      "tD": 0.02,
      "mode": "A_lydian",
      "bpm": 78,
      "arc": 0.969,
      "ent": 4,
      "brk": 0,
      "frameMs": 8.1
    },
    {
      "t": 2508,
      "rD": 0,
      "hC": 0.02,
      "mA": 0.04,
      "tD": 0.01,
      "mode": "A_lydian",
      "bpm": 78,
      "arc": 0.969,
      "ent": 2,
      "brk": 0,
      "frameMs": 9.5
    },
    {
      "t": 2509,
      "rD": 0,
      "hC": 0.02,
      "mA": 0.04,
      "tD": 0.01,
      "mode": "A_lydian",
      "bpm": 78,
      "arc": 0.97,
      "ent": 0,
      "brk": 0,
      "frameMs": 8.3
    },
    {
      "t": 2510.1,
      "rD": 0,
      "hC": 0.02,
      "mA": 0.04,
      "tD": 0.01,
      "mode": "A_lydian",
      "bpm": 78,
      "arc": 0.97,
      "ent": 0,
      "brk": 0,
      "frameMs": 8.4
    },
    {
      "t": 2511.1,
      "rD": 0,
      "hC": 0.02,
      "mA": 0.04,
      "tD": 0.02,
      "mode": "A_lydian",
      "bpm": 78,
      "arc": 0.97,
      "ent": 0,
      "brk": 0,
      "frameMs": 8.2
    },
    {
      "t": 2512.1,
      "rD": 0,
      "hC": 0.03,
      "mA": 0.04,
      "tD": 0.03,
      "mode": "A_lydian",
      "bpm": 78,
      "arc": 0.971,
      "ent": 0,
      "brk": 0,
      "frameMs": 8.2
    },
    {
      "t": 2513.1,
      "rD": 0.01,
      "hC": 0.04,
      "mA": 0.05,
      "tD": 0.03,
      "mode": "A_lydian",
      "bpm": 78,
      "arc": 0.971,
      "ent": 0,
      "brk": 0,
      "frameMs": 6.8
    },
    {
      "t": 2514.1,
      "rD": 0.01,
      "hC": 0.04,
      "mA": 0.05,
      "tD": 0.04,
      "mode": "A_lydian",
      "bpm": 78,
      "arc": 0.971,
      "ent": 0,
      "brk": 0,
      "frameMs": 8.3
    },
    {
      "t": 2515.1,
      "rD": 0.02,
      "hC": 0.05,
      "mA": 0.06,
      "tD": 0.05,
      "mode": "A_lydian",
      "bpm": 78,
      "arc": 0.972,
      "ent": 0,
      "brk": 0,
      "frameMs": 8.4
    },
    {
      "t": 2516.1,
      "rD": 0.03,
      "hC": 0.06,
      "mA": 0.07,
      "tD": 0.06,
      "mode": "A_lydian",
      "bpm": 78,
      "arc": 0.972,
      "ent": 14,
      "brk": 0,
      "frameMs": 10.3
    },
    {
      "t": 2517.1,
      "rD": 0.04,
      "hC": 0.07,
      "mA": 0.07,
      "tD": 0.07,
      "mode": "A_lydian",
      "bpm": 78,
      "arc": 0.973,
      "ent": 16,
      "brk": 0,
      "frameMs": 9.6
    },
    {
      "t": 2518.1,
      "rD": 0.05,
      "hC": 0.07,
      "mA": 0.07,
      "tD": 0.08,
      "mode": "A_lydian",
      "bpm": 78,
      "arc": 0.973,
      "ent": 17,
      "brk": 0,
      "frameMs": 7.2
    },
    {
      "t": 2519.1,
      "rD": 0.05,
      "hC": 0.08,
      "mA": 0.08,
      "tD": 0.08,
      "mode": "A_lydian",
      "bpm": 78,
      "arc": 0.973,
      "ent": 14,
      "brk": 0,
      "frameMs": 8.3
    },
    {
      "t": 2520.1,
      "rD": 0.05,
      "hC": 0.08,
      "mA": 0.08,
      "tD": 0.08,
      "mode": "A_lydian",
      "bpm": 78,
      "arc": 0.974,
      "ent": 11,
      "brk": 0,
      "frameMs": 10.1
    },
    {
      "t": 2521.1,
      "rD": 0.05,
      "hC": 0.08,
      "mA": 0.08,
      "tD": 0.08,
      "mode": "A_lydian",
      "bpm": 78,
      "arc": 0.974,
      "ent": 24,
      "brk": 0,
      "frameMs": 10.2
    },
    {
      "t": 2522.1,
      "rD": 0.04,
      "hC": 0.07,
      "mA": 0.07,
      "tD": 0.08,
      "mode": "A_lydian",
      "bpm": 78,
      "arc": 0.975,
      "ent": 24,
      "brk": 0,
      "frameMs": 8.3
    },
    {
      "t": 2523.1,
      "rD": 0.03,
      "hC": 0.07,
      "mA": 0.07,
      "tD": 0.07,
      "mode": "A_lydian",
      "bpm": 78,
      "arc": 0.975,
      "ent": 19,
      "brk": 0,
      "frameMs": 8.3
    },
    {
      "t": 2524.1,
      "rD": 0.02,
      "hC": 0.06,
      "mA": 0.06,
      "tD": 0.06,
      "mode": "A_lydian",
      "bpm": 78,
      "arc": 0.975,
      "ent": 19,
      "brk": 0,
      "frameMs": 8.4
    },
    {
      "t": 2525.1,
      "rD": 0.01,
      "hC": 0.05,
      "mA": 0.05,
      "tD": 0.05,
      "mode": "A_lydian",
      "bpm": 78,
      "arc": 0.976,
      "ent": 15,
      "brk": 0,
      "frameMs": 8.3
    },
    {
      "t": 2526.1,
      "rD": 0,
      "hC": 0.04,
      "mA": 0.05,
      "tD": 0.04,
      "mode": "A_lydian",
      "bpm": 78,
      "arc": 0.976,
      "ent": 10,
      "brk": 0,
      "frameMs": 8.4
    },
    {
      "t": 2527.1,
      "rD": 0,
      "hC": 0.03,
      "mA": 0.04,
      "tD": 0.03,
      "mode": "A_lydian",
      "bpm": 78,
      "arc": 0.977,
      "ent": 8,
      "brk": 0,
      "frameMs": 10.1
    },
    {
      "t": 2528.1,
      "rD": 0,
      "hC": 0.02,
      "mA": 0.03,
      "tD": 0.02,
      "mode": "A_lydian",
      "bpm": 78,
      "arc": 0.977,
      "ent": 14,
      "brk": 0,
      "frameMs": 8.2
    },
    {
      "t": 2529.1,
      "rD": 0,
      "hC": 0.01,
      "mA": 0.03,
      "tD": 0.01,
      "mode": "A_lydian",
      "bpm": 78,
      "arc": 0.977,
      "ent": 12,
      "brk": 0,
      "frameMs": 8
    },
    {
      "t": 2530.2,
      "rD": 0,
      "hC": 0.01,
      "mA": 0.02,
      "tD": 0,
      "mode": "A_lydian",
      "bpm": 78,
      "arc": 0.978,
      "ent": 11,
      "brk": 0,
      "frameMs": 9.3
    },
    {
      "t": 2531.2,
      "rD": 0,
      "hC": 0,
      "mA": 0.02,
      "tD": 0,
      "mode": "A_lydian",
      "bpm": 78,
      "arc": 0.978,
      "ent": 11,
      "brk": 0,
      "frameMs": 8.3
    },
    {
      "t": 2532.2,
      "rD": 0,
      "hC": 0,
      "mA": 0.02,
      "tD": 0,
      "mode": "A_lydian",
      "bpm": 78,
      "arc": 0.978,
      "ent": 11,
      "brk": 0,
      "frameMs": 9.9
    },
    {
      "t": 2533.2,
      "rD": 0,
      "hC": 0.01,
      "mA": 0.02,
      "tD": 0,
      "mode": "A_lydian",
      "bpm": 78,
      "arc": 0.979,
      "ent": 8,
      "brk": 0,
      "frameMs": 9.6
    },
    {
      "t": 2534.2,
      "rD": 0,
      "hC": 0.01,
      "mA": 0.02,
      "tD": 0.01,
      "mode": "A_lydian",
      "bpm": 78,
      "arc": 0.979,
      "ent": 6,
      "brk": 0,
      "frameMs": 8.4
    },
    {
      "t": 2535.2,
      "rD": 0,
      "hC": 0.02,
      "mA": 0.03,
      "tD": 0.01,
      "mode": "A_lydian",
      "bpm": 78,
      "arc": 0.98,
      "ent": 3,
      "brk": 0,
      "frameMs": 8.2
    },
    {
      "t": 2536.2,
      "rD": 0.01,
      "hC": 0.02,
      "mA": 0.03,
      "tD": 0.02,
      "mode": "A_lydian",
      "bpm": 78,
      "arc": 0.98,
      "ent": 1,
      "brk": 0,
      "frameMs": 7.9
    },
    {
      "t": 2537.2,
      "rD": 0.01,
      "hC": 0.03,
      "mA": 0.04,
      "tD": 0.03,
      "mode": "A_lydian",
      "bpm": 78,
      "arc": 0.98,
      "ent": 0,
      "brk": 0,
      "frameMs": 9.4
    },
    {
      "t": 2538.2,
      "rD": 0.02,
      "hC": 0.04,
      "mA": 0.04,
      "tD": 0.04,
      "mode": "A_lydian",
      "bpm": 78,
      "arc": 0.981,
      "ent": 0,
      "brk": 0,
      "frameMs": 8.9
    },
    {
      "t": 2539.2,
      "rD": 0.03,
      "hC": 0.05,
      "mA": 0.05,
      "tD": 0.05,
      "mode": "A_lydian",
      "bpm": 78,
      "arc": 0.981,
      "ent": 0,
      "brk": 0,
      "frameMs": 8.7
    },
    {
      "t": 2540.2,
      "rD": 0.04,
      "hC": 0.05,
      "mA": 0.05,
      "tD": 0.06,
      "mode": "A_lydian",
      "bpm": 78,
      "arc": 0.982,
      "ent": 0,
      "brk": 0,
      "frameMs": 8
    },
    {
      "t": 2541.2,
      "rD": 0.05,
      "hC": 0.06,
      "mA": 0.06,
      "tD": 0.06,
      "mode": "A_lydian",
      "bpm": 78,
      "arc": 0.982,
      "ent": 12,
      "brk": 0,
      "frameMs": 8.3
    },
    {
      "t": 2542.2,
      "rD": 0.05,
      "hC": 0.06,
      "mA": 0.06,
      "tD": 0.07,
      "mode": "A_lydian",
      "bpm": 78,
      "arc": 0.982,
      "ent": 14,
      "brk": 0,
      "frameMs": 8.3
    },
    {
      "t": 2543.2,
      "rD": 0.05,
      "hC": 0.06,
      "mA": 0.06,
      "tD": 0.07,
      "mode": "A_lydian",
      "bpm": 78,
      "arc": 0.983,
      "ent": 12,
      "brk": 0,
      "frameMs": 8.7
    },
    {
      "t": 2544.2,
      "rD": 0.05,
      "hC": 0.06,
      "mA": 0.05,
      "tD": 0.06,
      "mode": "A_lydian",
      "bpm": 78,
      "arc": 0.983,
      "ent": 15,
      "brk": 0,
      "frameMs": 10.3
    },
    {
      "t": 2545.2,
      "rD": 0.04,
      "hC": 0.05,
      "mA": 0.05,
      "tD": 0.06,
      "mode": "A_lydian",
      "bpm": 78,
      "arc": 0.984,
      "ent": 13,
      "brk": 0,
      "frameMs": 9.8
    },
    {
      "t": 2546.2,
      "rD": 0.03,
      "hC": 0.05,
      "mA": 0.05,
      "tD": 0.05,
      "mode": "A_lydian",
      "bpm": 78,
      "arc": 0.984,
      "ent": 10,
      "brk": 0,
      "frameMs": 8.1
    },
    {
      "t": 2547.2,
      "rD": 0.02,
      "hC": 0.04,
      "mA": 0.04,
      "tD": 0.04,
      "mode": "A_lydian",
      "bpm": 78,
      "arc": 0.984,
      "ent": 8,
      "brk": 0,
      "frameMs": 8.8
    },
    {
      "t": 2548.2,
      "rD": 0.01,
      "hC": 0.03,
      "mA": 0.03,
      "tD": 0.03,
      "mode": "A_lydian",
      "bpm": 78,
      "arc": 0.985,
      "ent": 6,
      "brk": 0,
      "frameMs": 8.4
    },
    {
      "t": 2549.2,
      "rD": 0,
      "hC": 0.02,
      "mA": 0.03,
      "tD": 0.02,
      "mode": "A_lydian",
      "bpm": 78,
      "arc": 0.985,
      "ent": 7,
      "brk": 0,
      "frameMs": 8.4
    },
    {
      "t": 2550.2,
      "rD": 0,
      "hC": 0.01,
      "mA": 0.02,
      "tD": 0.01,
      "mode": "A_lydian",
      "bpm": 78,
      "arc": 0.985,
      "ent": 6,
      "brk": 0,
      "frameMs": 9.9
    },
    {
      "t": 2551.2,
      "rD": 0,
      "hC": 0,
      "mA": 0.01,
      "tD": 0,
      "mode": "A_lydian",
      "bpm": 78,
      "arc": 0.986,
      "ent": 6,
      "brk": 0,
      "frameMs": 10.3
    },
    {
      "t": 2552.2,
      "rD": 0,
      "hC": 0,
      "mA": 0.01,
      "tD": 0,
      "mode": "A_lydian",
      "bpm": 78,
      "arc": 0.986,
      "ent": 4,
      "brk": 0,
      "frameMs": 7.1
    },
    {
      "t": 2553.2,
      "rD": 0,
      "hC": 0,
      "mA": 0,
      "tD": 0,
      "mode": "A_lydian",
      "bpm": 78,
      "arc": 0.987,
      "ent": 8,
      "brk": 0,
      "frameMs": 8.5
    },
    {
      "t": 2554.2,
      "rD": 0,
      "hC": 0,
      "mA": 0,
      "tD": 0,
      "mode": "A_lydian",
      "bpm": 78,
      "arc": 0.987,
      "ent": 8,
      "brk": 0,
      "frameMs": 8.4
    },
    {
      "t": 2555.3,
      "rD": 0,
      "hC": 0,
      "mA": 0,
      "tD": 0,
      "mode": "A_lydian",
      "bpm": 78,
      "arc": 0.987,
      "ent": 6,
      "brk": 0,
      "frameMs": 6.8
    },
    {
      "t": 2556.3,
      "rD": 0,
      "hC": 0,
      "mA": 0,
      "tD": 0,
      "mode": "A_lydian",
      "bpm": 78,
      "arc": 0.988,
      "ent": 6,
      "brk": 0,
      "frameMs": 8.2
    },
    {
      "t": 2557.3,
      "rD": 0,
      "hC": 0,
      "mA": 0,
      "tD": 0,
      "mode": "A_lydian",
      "bpm": 78,
      "arc": 0.988,
      "ent": 4,
      "brk": 0,
      "frameMs": 9.6
    },
    {
      "t": 2558.3,
      "rD": 0,
      "hC": 0,
      "mA": 0.01,
      "tD": 0,
      "mode": "A_lydian",
      "bpm": 78,
      "arc": 0.989,
      "ent": 4,
      "brk": 0,
      "frameMs": 8.3
    },
    {
      "t": 2559.3,
      "rD": 0.01,
      "hC": 0.01,
      "mA": 0.01,
      "tD": 0.01,
      "mode": "A_lydian",
      "bpm": 78,
      "arc": 0.989,
      "ent": 2,
      "brk": 0,
      "frameMs": 7.3
    },
    {
      "t": 2560.3,
      "rD": 0.02,
      "hC": 0.02,
      "mA": 0.02,
      "tD": 0.02,
      "mode": "A_lydian",
      "bpm": 78,
      "arc": 0.989,
      "ent": 2,
      "brk": 0,
      "frameMs": 10.4
    },
    {
      "t": 2561.3,
      "rD": 0.02,
      "hC": 0.02,
      "mA": 0.02,
      "tD": 0.03,
      "mode": "A_lydian",
      "bpm": 78,
      "arc": 0.99,
      "ent": 0,
      "brk": 0,
      "frameMs": 7.5
    },
    {
      "t": 2562.3,
      "rD": 0.03,
      "hC": 0.03,
      "mA": 0.03,
      "tD": 0.03,
      "mode": "A_lydian",
      "bpm": 78,
      "arc": 0.99,
      "ent": 0,
      "brk": 0,
      "frameMs": 8.6
    },
    {
      "t": 2563.3,
      "rD": 0.04,
      "hC": 0.04,
      "mA": 0.03,
      "tD": 0.04,
      "mode": "A_lydian",
      "bpm": 78,
      "arc": 0.991,
      "ent": 0,
      "brk": 0,
      "frameMs": 10
    },
    {
      "t": 2564.3,
      "rD": 0.05,
      "hC": 0.04,
      "mA": 0.03,
      "tD": 0.05,
      "mode": "A_lydian",
      "bpm": 78,
      "arc": 0.991,
      "ent": 0,
      "brk": 0,
      "frameMs": 8.3
    },
    {
      "t": 2565.3,
      "rD": 0.05,
      "hC": 0.04,
      "mA": 0.04,
      "tD": 0.05,
      "mode": "A_lydian",
      "bpm": 78,
      "arc": 0.991,
      "ent": 5,
      "brk": 0,
      "frameMs": 9.9
    },
    {
      "t": 2566.3,
      "rD": 0.05,
      "hC": 0.04,
      "mA": 0.04,
      "tD": 0.05,
      "mode": "A_lydian",
      "bpm": 78,
      "arc": 0.992,
      "ent": 5,
      "brk": 0,
      "frameMs": 8.4
    },
    {
      "t": 2567.3,
      "rD": 0.05,
      "hC": 0.04,
      "mA": 0.03,
      "tD": 0.05,
      "mode": "A_lydian",
      "bpm": 78,
      "arc": 0.992,
      "ent": 19,
      "brk": 0,
      "frameMs": 9.6
    },
    {
      "t": 2568.3,
      "rD": 0.04,
      "hC": 0.04,
      "mA": 0.03,
      "tD": 0.04,
      "mode": "A_lydian",
      "bpm": 78,
      "arc": 0.993,
      "ent": 18,
      "brk": 0,
      "frameMs": 9.6
    },
    {
      "t": 2569.3,
      "rD": 0.03,
      "hC": 0.03,
      "mA": 0.02,
      "tD": 0.03,
      "mode": "A_lydian",
      "bpm": 78,
      "arc": 0.993,
      "ent": 16,
      "brk": 0,
      "frameMs": 8.3
    },
    {
      "t": 2570.3,
      "rD": 0.02,
      "hC": 0.02,
      "mA": 0.02,
      "tD": 0.02,
      "mode": "A_lydian",
      "bpm": 78,
      "arc": 0.993,
      "ent": 16,
      "brk": 0,
      "frameMs": 9.7
    },
    {
      "t": 2571.3,
      "rD": 0.01,
      "hC": 0.01,
      "mA": 0.01,
      "tD": 0.01,
      "mode": "A_lydian",
      "bpm": 78,
      "arc": 0.994,
      "ent": 12,
      "brk": 0,
      "frameMs": 10.3
    },
    {
      "t": 2572.3,
      "rD": 0,
      "hC": 0,
      "mA": 0,
      "tD": 0,
      "mode": "A_lydian",
      "bpm": 78,
      "arc": 0.994,
      "ent": 7,
      "brk": 0,
      "frameMs": 8.4
    },
    {
      "t": 2573.3,
      "rD": 0,
      "hC": 0,
      "mA": 0,
      "tD": 0,
      "mode": "A_lydian",
      "bpm": 78,
      "arc": 0.994,
      "ent": 3,
      "brk": 0,
      "frameMs": 8.2
    },
    {
      "t": 2574.3,
      "rD": 0,
      "hC": 0,
      "mA": 0,
      "tD": 0,
      "mode": "A_lydian",
      "bpm": 78,
      "arc": 0.995,
      "ent": 1,
      "brk": 0,
      "frameMs": 8.3
    },
    {
      "t": 2575.3,
      "rD": 0,
      "hC": 0,
      "mA": 0,
      "tD": 0,
      "mode": "A_lydian",
      "bpm": 78,
      "arc": 0.995,
      "ent": 1,
      "brk": 0,
      "frameMs": 8.3
    },
    {
      "t": 2576.4,
      "rD": 0,
      "hC": 0,
      "mA": 0,
      "tD": 0,
      "mode": "A_lydian",
      "bpm": 78,
      "arc": 0.996,
      "ent": 1,
      "brk": 0,
      "frameMs": 6.5
    },
    {
      "t": 2577.4,
      "rD": 0,
      "hC": 0,
      "mA": 0,
      "tD": 0,
      "mode": "A_lydian",
      "bpm": 78,
      "arc": 0.996,
      "ent": 12,
      "brk": 0,
      "frameMs": 8.4
    },
    {
      "t": 2578.4,
      "rD": 0,
      "hC": 0,
      "mA": 0,
      "tD": 0,
      "mode": "A_lydian",
      "bpm": 78,
      "arc": 0.996,
      "ent": 12,
      "brk": 0,
      "frameMs": 8.3
    },
    {
      "t": 2579.4,
      "rD": 0,
      "hC": 0,
      "mA": 0,
      "tD": 0,
      "mode": "A_lydian",
      "bpm": 78,
      "arc": 0.997,
      "ent": 11,
      "brk": 0,
      "frameMs": 9.6
    },
    {
      "t": 2580.4,
      "rD": 0,
      "hC": 0,
      "mA": 0,
      "tD": 0,
      "mode": "A_lydian",
      "bpm": 78,
      "arc": 0.997,
      "ent": 8,
      "brk": 0,
      "frameMs": 9.5
    },
    {
      "t": 2581.4,
      "rD": 0,
      "hC": 0,
      "mA": 0,
      "tD": 0,
      "mode": "A_lydian",
      "bpm": 78,
      "arc": 0.998,
      "ent": 7,
      "brk": 0,
      "frameMs": 7.9
    },
    {
      "t": 2582.4,
      "rD": 0.01,
      "hC": 0.01,
      "mA": 0,
      "tD": 0.01,
      "mode": "A_lydian",
      "bpm": 78,
      "arc": 0.998,
      "ent": 5,
      "brk": 0,
      "frameMs": 9.4
    },
    {
      "t": 2583.4,
      "rD": 0.02,
      "hC": 0.01,
      "mA": 0.01,
      "tD": 0.01,
      "mode": "A_lydian",
      "bpm": 78,
      "arc": 0.998,
      "ent": 1,
      "brk": 0,
      "frameMs": 8.3
    },
    {
      "t": 2584.4,
      "rD": 0.03,
      "hC": 0.02,
      "mA": 0.01,
      "tD": 0.02,
      "mode": "A_lydian",
      "bpm": 78,
      "arc": 0.999,
      "ent": 1,
      "brk": 0,
      "frameMs": 8.4
    },
    {
      "t": 2585.4,
      "rD": 0.03,
      "hC": 0.02,
      "mA": 0.02,
      "tD": 0.03,
      "mode": "A_lydian",
      "bpm": 78,
      "arc": 0.999,
      "ent": 0,
      "brk": 0,
      "frameMs": 8.2
    },
    {
      "t": 2586.4,
      "rD": 0.04,
      "hC": 0.03,
      "mA": 0.02,
      "tD": 0.03,
      "mode": "A_lydian",
      "bpm": 78,
      "arc": 1,
      "ent": 0,
      "brk": 0,
      "frameMs": 8.3
    },
    {
      "t": 2587.4,
      "rD": 0.05,
      "hC": 0.03,
      "mA": 0.02,
      "tD": 0.04,
      "mode": "A_lydian",
      "bpm": 78,
      "arc": 1,
      "ent": 0,
      "brk": 0,
      "frameMs": 8.4
    },
    {
      "t": 2588.4,
      "rD": 0.05,
      "hC": 0.04,
      "mA": 0.03,
      "tD": 0.04,
      "mode": "A_lydian",
      "bpm": 78,
      "arc": 1,
      "ent": 0,
      "brk": 0,
      "frameMs": 9.4
    },
    {
      "t": 2589.4,
      "rD": 0.05,
      "hC": 0.04,
      "mA": 0.03,
      "tD": 0.04,
      "mode": "A_lydian",
      "bpm": 78,
      "arc": 1,
      "ent": 0,
      "brk": 0,
      "frameMs": 10
    },
    {
      "t": 2590.4,
      "rD": 0.05,
      "hC": 0.03,
      "mA": 0.02,
      "tD": 0.04,
      "mode": "A_lydian",
      "bpm": 78,
      "arc": 1,
      "ent": 22,
      "brk": 0,
      "frameMs": 9.8
    },
    {
      "t": 2591.4,
      "rD": 0.04,
      "hC": 0.03,
      "mA": 0.02,
      "tD": 0.03,
      "mode": "A_lydian",
      "bpm": 78,
      "arc": 1,
      "ent": 23,
      "brk": 0,
      "frameMs": 8.3
    },
    {
      "t": 2592.4,
      "rD": 0.03,
      "hC": 0.02,
      "mA": 0.02,
      "tD": 0.03,
      "mode": "A_lydian",
      "bpm": 78,
      "arc": 1,
      "ent": 21,
      "brk": 0,
      "frameMs": 8.2
    },
    {
      "t": 2593.4,
      "rD": 0.02,
      "hC": 0.01,
      "mA": 0.01,
      "tD": 0.02,
      "mode": "A_lydian",
      "bpm": 78,
      "arc": 1,
      "ent": 19,
      "brk": 0,
      "frameMs": 8.2
    },
    {
      "t": 2594.4,
      "rD": 0.01,
      "hC": 0.01,
      "mA": 0,
      "tD": 0.01,
      "mode": "A_lydian",
      "bpm": 78,
      "arc": 1,
      "ent": 11,
      "brk": 0,
      "frameMs": 8.4
    },
    {
      "t": 2595.4,
      "rD": 0,
      "hC": 0,
      "mA": 0,
      "tD": 0,
      "mode": "A_lydian",
      "bpm": 78,
      "arc": 1,
      "ent": 8,
      "brk": 0,
      "frameMs": 8.4
    },
    {
      "t": 2596.4,
      "rD": 0,
      "hC": 0,
      "mA": 0,
      "tD": 0,
      "mode": "A_lydian",
      "bpm": 78,
      "arc": 1,
      "ent": 5,
      "brk": 0,
      "frameMs": 8.4
    },
    {
      "t": 2597.4,
      "rD": 0,
      "hC": 0,
      "mA": 0,
      "tD": 0,
      "mode": "A_lydian",
      "bpm": 78,
      "arc": 1,
      "ent": 4,
      "brk": 0,
      "frameMs": 9.8
    },
    {
      "t": 2598.4,
      "rD": 0,
      "hC": 0,
      "mA": 0,
      "tD": 0,
      "mode": "A_lydian",
      "bpm": 78,
      "arc": 1,
      "ent": 2,
      "brk": 0,
      "frameMs": 9.2
    },
    {
      "t": 2599.4,
      "rD": 0,
      "hC": 0,
      "mA": 0,
      "tD": 0,
      "mode": "A_lydian",
      "bpm": 78,
      "arc": 1,
      "ent": 1,
      "brk": 0,
      "frameMs": 9.5
    },
    {
      "t": 2600.4,
      "rD": 0,
      "hC": 0,
      "mA": 0,
      "tD": 0,
      "mode": "A_lydian",
      "bpm": 78,
      "arc": 1,
      "ent": 0,
      "brk": 0,
      "frameMs": 8.3
    },
    {
      "t": 2601.5,
      "rD": 0,
      "hC": 0,
      "mA": 0,
      "tD": 0,
      "mode": "A_lydian",
      "bpm": 78,
      "arc": 1,
      "ent": 0,
      "brk": 0,
      "frameMs": 10.2
    },
    {
      "t": 2602.5,
      "rD": 0,
      "hC": 0,
      "mA": 0,
      "tD": 0,
      "mode": "A_lydian",
      "bpm": 78,
      "arc": 1,
      "ent": 12,
      "brk": 0,
      "frameMs": 8.1
    },
    {
      "t": 2603.5,
      "rD": 0,
      "hC": 0,
      "mA": 0,
      "tD": 0,
      "mode": "A_lydian",
      "bpm": 78,
      "arc": 1,
      "ent": 12,
      "brk": 0,
      "frameMs": 8.4
    },
    {
      "t": 2604.5,
      "rD": 0,
      "hC": 0,
      "mA": 0,
      "tD": 0,
      "mode": "A_lydian",
      "bpm": 78,
      "arc": 1,
      "ent": 12,
      "brk": 0,
      "frameMs": 8.1
    },
    {
      "t": 2605.5,
      "rD": 0.01,
      "hC": 0.01,
      "mA": 0,
      "tD": 0.01,
      "mode": "A_lydian",
      "bpm": 78,
      "arc": 1,
      "ent": 11,
      "brk": 0,
      "frameMs": 10.2
    },
    {
      "t": 2606.5,
      "rD": 0.02,
      "hC": 0.01,
      "mA": 0.01,
      "tD": 0.01,
      "mode": "A_lydian",
      "bpm": 78,
      "arc": 1,
      "ent": 10,
      "brk": 0,
      "frameMs": 8
    },
    {
      "t": 2607.5,
      "rD": 0.03,
      "hC": 0.02,
      "mA": 0.01,
      "tD": 0.02,
      "mode": "A_lydian",
      "bpm": 78,
      "arc": 1,
      "ent": 7,
      "brk": 0,
      "frameMs": 8.5
    },
    {
      "t": 2608.5,
      "rD": 0.03,
      "hC": 0.02,
      "mA": 0.02,
      "tD": 0.03,
      "mode": "A_lydian",
      "bpm": 78,
      "arc": 1,
      "ent": 5,
      "brk": 0,
      "frameMs": 8.3
    },
    {
      "t": 2609.5,
      "rD": 0.04,
      "hC": 0.03,
      "mA": 0.02,
      "tD": 0.03,
      "mode": "A_lydian",
      "bpm": 78,
      "arc": 1,
      "ent": 4,
      "brk": 0,
      "frameMs": 10.3
    },
    {
      "t": 2610.5,
      "rD": 0.05,
      "hC": 0.03,
      "mA": 0.02,
      "tD": 0.04,
      "mode": "A_lydian",
      "bpm": 78,
      "arc": 1,
      "ent": 0,
      "brk": 0,
      "frameMs": 8.1
    },
    {
      "t": 2611.5,
      "rD": 0.05,
      "hC": 0.04,
      "mA": 0.03,
      "tD": 0.04,
      "mode": "A_lydian",
      "bpm": 78,
      "arc": 1,
      "ent": 0,
      "brk": 0,
      "frameMs": 9.4
    },
    {
      "t": 2612.5,
      "rD": 0.05,
      "hC": 0.04,
      "mA": 0.03,
      "tD": 0.04,
      "mode": "A_lydian",
      "bpm": 78,
      "arc": 1,
      "ent": 0,
      "brk": 0,
      "frameMs": 8.3
    },
    {
      "t": 2613.5,
      "rD": 0.05,
      "hC": 0.03,
      "mA": 0.02,
      "tD": 0.04,
      "mode": "A_lydian",
      "bpm": 78,
      "arc": 1,
      "ent": 0,
      "brk": 0,
      "frameMs": 8.4
    },
    {
      "t": 2614.5,
      "rD": 0.04,
      "hC": 0.03,
      "mA": 0.02,
      "tD": 0.03,
      "mode": "A_lydian",
      "bpm": 78,
      "arc": 1,
      "ent": 12,
      "brk": 0,
      "frameMs": 10.1
    },
    {
      "t": 2615.5,
      "rD": 0.03,
      "hC": 0.02,
      "mA": 0.02,
      "tD": 0.02,
      "mode": "A_lydian",
      "bpm": 78,
      "arc": 1,
      "ent": 13,
      "brk": 0,
      "frameMs": 8.1
    },
    {
      "t": 2616.5,
      "rD": 0.02,
      "hC": 0.01,
      "mA": 0.01,
      "tD": 0.02,
      "mode": "A_lydian",
      "bpm": 78,
      "arc": 1,
      "ent": 13,
      "brk": 0,
      "frameMs": 8.3
    },
    {
      "t": 2617.5,
      "rD": 0.01,
      "hC": 0,
      "mA": 0,
      "tD": 0.01,
      "mode": "A_lydian",
      "bpm": 78,
      "arc": 1,
      "ent": 11,
      "brk": 0,
      "frameMs": 8.3
    },
    {
      "t": 2618.5,
      "rD": 0,
      "hC": 0,
      "mA": 0,
      "tD": 0,
      "mode": "A_lydian",
      "bpm": 78,
      "arc": 1,
      "ent": 9,
      "brk": 0,
      "frameMs": 8.3
    },
    {
      "t": 2619.5,
      "rD": 0,
      "hC": 0,
      "mA": 0,
      "tD": 0,
      "mode": "A_lydian",
      "bpm": 78,
      "arc": 1,
      "ent": 9,
      "brk": 0,
      "frameMs": 8.6
    },
    {
      "t": 2620.5,
      "rD": 0,
      "hC": 0,
      "mA": 0,
      "tD": 0,
      "mode": "A_lydian",
      "bpm": 78,
      "arc": 1,
      "ent": 6,
      "brk": 0,
      "frameMs": 8.6
    },
    {
      "t": 2621.5,
      "rD": 0,
      "hC": 0,
      "mA": 0,
      "tD": 0,
      "mode": "A_lydian",
      "bpm": 78,
      "arc": 1,
      "ent": 1,
      "brk": 0,
      "frameMs": 9.4
    },
    {
      "t": 2622.5,
      "rD": 0,
      "hC": 0,
      "mA": 0,
      "tD": 0,
      "mode": "A_lydian",
      "bpm": 78,
      "arc": 1,
      "ent": 0,
      "brk": 0,
      "frameMs": 10
    },
    {
      "t": 2623.6,
      "rD": 0,
      "hC": 0,
      "mA": 0,
      "tD": 0,
      "mode": "A_lydian",
      "bpm": 78,
      "arc": 1,
      "ent": 0,
      "brk": 0,
      "frameMs": 9.2
    },
    {
      "t": 2624.6,
      "rD": 0,
      "hC": 0,
      "mA": 0,
      "tD": 0,
      "mode": "A_lydian",
      "bpm": 78,
      "arc": 1,
      "ent": 0,
      "brk": 0,
      "frameMs": 7.7
    },
    {
      "t": 2625.6,
      "rD": 0,
      "hC": 0,
      "mA": 0,
      "tD": 0,
      "mode": "A_lydian",
      "bpm": 78,
      "arc": 1,
      "ent": 0,
      "brk": 0,
      "frameMs": 8.2
    },
    {
      "t": 2626.6,
      "rD": 0,
      "hC": 0,
      "mA": 0,
      "tD": 0,
      "mode": "A_lydian",
      "bpm": 78,
      "arc": 1,
      "ent": 7,
      "brk": 0,
      "frameMs": 9.4
    },
    {
      "t": 2627.6,
      "rD": 0,
      "hC": 0,
      "mA": 0,
      "tD": 0,
      "mode": "A_lydian",
      "bpm": 78,
      "arc": 1,
      "ent": 7,
      "brk": 0,
      "frameMs": 8.3
    },
    {
      "t": 2628.6,
      "rD": 0.01,
      "hC": 0.01,
      "mA": 0,
      "tD": 0.01,
      "mode": "A_lydian",
      "bpm": 78,
      "arc": 1,
      "ent": 7,
      "brk": 0,
      "frameMs": 10.2
    },
    {
      "t": 2629.6,
      "rD": 0.02,
      "hC": 0.01,
      "mA": 0.01,
      "tD": 0.01,
      "mode": "A_lydian",
      "bpm": 78,
      "arc": 1,
      "ent": 4,
      "brk": 0,
      "frameMs": 8.3
    },
    {
      "t": 2630.6,
      "rD": 0.03,
      "hC": 0.02,
      "mA": 0.01,
      "tD": 0.02,
      "mode": "A_lydian",
      "bpm": 78,
      "arc": 1,
      "ent": 2,
      "brk": 0,
      "frameMs": 10.3
    },
    {
      "t": 2631.6,
      "rD": 0.04,
      "hC": 0.03,
      "mA": 0.02,
      "tD": 0.03,
      "mode": "A_lydian",
      "bpm": 78,
      "arc": 1,
      "ent": 2,
      "brk": 0,
      "frameMs": 9.1
    },
    {
      "t": 2632.6,
      "rD": 0.04,
      "hC": 0.03,
      "mA": 0.02,
      "tD": 0.03,
      "mode": "A_lydian",
      "bpm": 78,
      "arc": 1,
      "ent": 2,
      "brk": 0,
      "frameMs": 9.7
    },
    {
      "t": 2633.6,
      "rD": 0.05,
      "hC": 0.03,
      "mA": 0.02,
      "tD": 0.04,
      "mode": "A_lydian",
      "bpm": 78,
      "arc": 1,
      "ent": 1,
      "brk": 0,
      "frameMs": 8
    },
    {
      "t": 2634.6,
      "rD": 0.05,
      "hC": 0.04,
      "mA": 0.03,
      "tD": 0.04,
      "mode": "A_lydian",
      "bpm": 78,
      "arc": 1,
      "ent": 0,
      "brk": 0,
      "frameMs": 9.3
    },
    {
      "t": 2635.6,
      "rD": 0.05,
      "hC": 0.04,
      "mA": 0.03,
      "tD": 0.04,
      "mode": "A_lydian",
      "bpm": 78,
      "arc": 1,
      "ent": 0,
      "brk": 0,
      "frameMs": 6.8
    },
    {
      "t": 2636.6,
      "rD": 0.05,
      "hC": 0.03,
      "mA": 0.02,
      "tD": 0.04,
      "mode": "A_lydian",
      "bpm": 78,
      "arc": 1,
      "ent": 0,
      "brk": 0,
      "frameMs": 10.3
    },
    {
      "t": 2637.6,
      "rD": 0.04,
      "hC": 0.03,
      "mA": 0.02,
      "tD": 0.03,
      "mode": "A_lydian",
      "bpm": 78,
      "arc": 1,
      "ent": 0,
      "brk": 0,
      "frameMs": 8.3
    },
    {
      "t": 2638.6,
      "rD": 0.03,
      "hC": 0.02,
      "mA": 0.01,
      "tD": 0.02,
      "mode": "A_lydian",
      "bpm": 78,
      "arc": 1,
      "ent": 0,
      "brk": 0,
      "frameMs": 9.2
    },
    {
      "t": 2639.6,
      "rD": 0.02,
      "hC": 0.01,
      "mA": 0.01,
      "tD": 0.01,
      "mode": "A_lydian",
      "bpm": 78,
      "arc": 1,
      "ent": 7,
      "brk": 0,
      "frameMs": 9.6
    },
    {
      "t": 2640.6,
      "rD": 0,
      "hC": 0,
      "mA": 0,
      "tD": 0,
      "mode": "A_lydian",
      "bpm": 78,
      "arc": 1,
      "ent": 6,
      "brk": 0,
      "frameMs": 8.3
    },
    {
      "t": 2641.6,
      "rD": 0,
      "hC": 0,
      "mA": 0,
      "tD": 0,
      "mode": "A_lydian",
      "bpm": 78,
      "arc": 1,
      "ent": 6,
      "brk": 0,
      "frameMs": 8.7
    },
    {
      "t": 2642.6,
      "rD": 0,
      "hC": 0,
      "mA": 0,
      "tD": 0,
      "mode": "A_lydian",
      "bpm": 78,
      "arc": 1,
      "ent": 6,
      "brk": 0,
      "frameMs": 8.1
    },
    {
      "t": 2643.7,
      "rD": 0,
      "hC": 0,
      "mA": 0,
      "tD": 0,
      "mode": "A_lydian",
      "bpm": 78,
      "arc": 1,
      "ent": 4,
      "brk": 0,
      "frameMs": 8.4
    },
    {
      "t": 2644.7,
      "rD": 0,
      "hC": 0,
      "mA": 0,
      "tD": 0,
      "mode": "A_lydian",
      "bpm": 78,
      "arc": 1,
      "ent": 3,
      "brk": 0,
      "frameMs": 8.3
    },
    {
      "t": 2645.7,
      "rD": 0,
      "hC": 0,
      "mA": 0,
      "tD": 0,
      "mode": "A_lydian",
      "bpm": 78,
      "arc": 1,
      "ent": 2,
      "brk": 0,
      "frameMs": 8.4
    },
    {
      "t": 2646.7,
      "rD": 0,
      "hC": 0,
      "mA": 0,
      "tD": 0,
      "mode": "A_lydian",
      "bpm": 78,
      "arc": 1,
      "ent": 1,
      "brk": 0,
      "frameMs": 6.6
    },
    {
      "t": 2647.7,
      "rD": 0,
      "hC": 0,
      "mA": 0,
      "tD": 0,
      "mode": "A_lydian",
      "bpm": 78,
      "arc": 1,
      "ent": 0,
      "brk": 0,
      "frameMs": 8.1
    },
    {
      "t": 2648.7,
      "rD": 0,
      "hC": 0,
      "mA": 0,
      "tD": 0,
      "mode": "A_lydian",
      "bpm": 78,
      "arc": 1,
      "ent": 0,
      "brk": 0,
      "frameMs": 9
    },
    {
      "t": 2649.7,
      "rD": 0,
      "hC": 0,
      "mA": 0,
      "tD": 0,
      "mode": "A_lydian",
      "bpm": 78,
      "arc": 1,
      "ent": 0,
      "brk": 0,
      "frameMs": 10.2
    },
    {
      "t": 2650.7,
      "rD": 0,
      "hC": 0,
      "mA": 0,
      "tD": 0,
      "mode": "A_lydian",
      "bpm": 78,
      "arc": 1,
      "ent": 0,
      "brk": 0,
      "frameMs": 8
    },
    {
      "t": 2651.7,
      "rD": 0.01,
      "hC": 0.01,
      "mA": 0.01,
      "tD": 0.01,
      "mode": "A_lydian",
      "bpm": 78,
      "arc": 1,
      "ent": 0,
      "brk": 0,
      "frameMs": 6.8
    },
    {
      "t": 2652.7,
      "rD": 0.02,
      "hC": 0.01,
      "mA": 0.01,
      "tD": 0.01,
      "mode": "A_lydian",
      "bpm": 78,
      "arc": 1,
      "ent": 0,
      "brk": 0,
      "frameMs": 8.6
    },
    {
      "t": 2653.7,
      "rD": 0.03,
      "hC": 0.02,
      "mA": 0.01,
      "tD": 0.02,
      "mode": "A_lydian",
      "bpm": 78,
      "arc": 1,
      "ent": 0,
      "brk": 0,
      "frameMs": 8.4
    },
    {
      "t": 2654.7,
      "rD": 0.04,
      "hC": 0.03,
      "mA": 0.02,
      "tD": 0.03,
      "mode": "A_lydian",
      "bpm": 78,
      "arc": 1,
      "ent": 0,
      "brk": 0,
      "frameMs": 8.3
    },
    {
      "t": 2655.7,
      "rD": 0.04,
      "hC": 0.03,
      "mA": 0.02,
      "tD": 0.04,
      "mode": "A_lydian",
      "bpm": 78,
      "arc": 1,
      "ent": 0,
      "brk": 0,
      "frameMs": 10
    },
    {
      "t": 2656.7,
      "rD": 0.05,
      "hC": 0.03,
      "mA": 0.02,
      "tD": 0.04,
      "mode": "A_lydian",
      "bpm": 78,
      "arc": 1,
      "ent": 0,
      "brk": 0,
      "frameMs": 9.5
    },
    {
      "t": 2657.7,
      "rD": 0.05,
      "hC": 0.04,
      "mA": 0.03,
      "tD": 0.04,
      "mode": "A_lydian",
      "bpm": 78,
      "arc": 1,
      "ent": 0,
      "brk": 0,
      "frameMs": 9
    },
    {
      "t": 2658.7,
      "rD": 0.05,
      "hC": 0.04,
      "mA": 0.03,
      "tD": 0.04,
      "mode": "A_lydian",
      "bpm": 78,
      "arc": 1,
      "ent": 0,
      "brk": 0,
      "frameMs": 9.4
    },
    {
      "t": 2659.7,
      "rD": 0.05,
      "hC": 0.03,
      "mA": 0.02,
      "tD": 0.04,
      "mode": "A_lydian",
      "bpm": 78,
      "arc": 1,
      "ent": 0,
      "brk": 0,
      "frameMs": 8.3
    },
    {
      "t": 2660.7,
      "rD": 0.04,
      "hC": 0.03,
      "mA": 0.02,
      "tD": 0.03,
      "mode": "A_lydian",
      "bpm": 78,
      "arc": 1,
      "ent": 0,
      "brk": 0,
      "frameMs": 8.7
    },
    {
      "t": 2661.8,
      "rD": 0.03,
      "hC": 0.02,
      "mA": 0.01,
      "tD": 0.02,
      "mode": "A_lydian",
      "bpm": 78,
      "arc": 1,
      "ent": 0,
      "brk": 0,
      "frameMs": 9
    },
    {
      "t": 2662.8,
      "rD": 0.02,
      "hC": 0.01,
      "mA": 0.01,
      "tD": 0.01,
      "mode": "A_lydian",
      "bpm": 78,
      "arc": 1,
      "ent": 0,
      "brk": 0,
      "frameMs": 8.3
    },
    {
      "t": 2663.8,
      "rD": 0,
      "hC": 0,
      "mA": 0,
      "tD": 0,
      "mode": "A_lydian",
      "bpm": 78,
      "arc": 1,
      "ent": 13,
      "brk": 0,
      "frameMs": 8.4
    },
    {
      "t": 2664.8,
      "rD": 0,
      "hC": 0,
      "mA": 0,
      "tD": 0,
      "mode": "A_lydian",
      "bpm": 78,
      "arc": 1,
      "ent": 13,
      "brk": 0,
      "frameMs": 7.1
    },
    {
      "t": 2665.8,
      "rD": 0,
      "hC": 0,
      "mA": 0,
      "tD": 0,
      "mode": "A_lydian",
      "bpm": 78,
      "arc": 1,
      "ent": 12,
      "brk": 0,
      "frameMs": 8.9
    },
    {
      "t": 2666.8,
      "rD": 0,
      "hC": 0,
      "mA": 0,
      "tD": 0,
      "mode": "A_lydian",
      "bpm": 78,
      "arc": 1,
      "ent": 11,
      "brk": 0,
      "frameMs": 7.9
    },
    {
      "t": 2667.8,
      "rD": 0,
      "hC": 0,
      "mA": 0,
      "tD": 0,
      "mode": "A_lydian",
      "bpm": 78,
      "arc": 1,
      "ent": 10,
      "brk": 0,
      "frameMs": 9.4
    },
    {
      "t": 2668.8,
      "rD": 0,
      "hC": 0,
      "mA": 0,
      "tD": 0,
      "mode": "A_lydian",
      "bpm": 78,
      "arc": 1,
      "ent": 6,
      "brk": 0,
      "frameMs": 10.3
    },
    {
      "t": 2669.8,
      "rD": 0,
      "hC": 0,
      "mA": 0,
      "tD": 0,
      "mode": "A_lydian",
      "bpm": 78,
      "arc": 1,
      "ent": 6,
      "brk": 0,
      "frameMs": 8.2
    },
    {
      "t": 2670.8,
      "rD": 0,
      "hC": 0,
      "mA": 0,
      "tD": 0,
      "mode": "A_lydian",
      "bpm": 78,
      "arc": 1,
      "ent": 5,
      "brk": 0,
      "frameMs": 9.3
    },
    {
      "t": 2671.8,
      "rD": 0,
      "hC": 0,
      "mA": 0,
      "tD": 0,
      "mode": "A_lydian",
      "bpm": 78,
      "arc": 1,
      "ent": 1,
      "brk": 0,
      "frameMs": 8.2
    },
    {
      "t": 2672.8,
      "rD": 0,
      "hC": 0,
      "mA": 0,
      "tD": 0,
      "mode": "A_lydian",
      "bpm": 78,
      "arc": 1,
      "ent": 0,
      "brk": 0,
      "frameMs": 8.6
    },
    {
      "t": 2673.8,
      "rD": 0,
      "hC": 0,
      "mA": 0,
      "tD": 0,
      "mode": "A_lydian",
      "bpm": 78,
      "arc": 1,
      "ent": 0,
      "brk": 0,
      "frameMs": 9
    },
    {
      "t": 2674.8,
      "rD": 0.01,
      "hC": 0.01,
      "mA": 0.01,
      "tD": 0.01,
      "mode": "A_lydian",
      "bpm": 78,
      "arc": 1,
      "ent": 0,
      "brk": 0,
      "frameMs": 7.1
    },
    {
      "t": 2675.8,
      "rD": 0.02,
      "hC": 0.01,
      "mA": 0.01,
      "tD": 0.02,
      "mode": "A_lydian",
      "bpm": 78,
      "arc": 1,
      "ent": 11,
      "brk": 0,
      "frameMs": 8
    },
    {
      "t": 2676.8,
      "rD": 0.03,
      "hC": 0.02,
      "mA": 0.01,
      "tD": 0.02,
      "mode": "A_lydian",
      "bpm": 78,
      "arc": 1,
      "ent": 12,
      "brk": 0,
      "frameMs": 7.7
    },
    {
      "t": 2677.8,
      "rD": 0.04,
      "hC": 0.03,
      "mA": 0.02,
      "tD": 0.03,
      "mode": "A_lydian",
      "bpm": 78,
      "arc": 1,
      "ent": 12,
      "brk": 0,
      "frameMs": 9.8
    },
    {
      "t": 2678.8,
      "rD": 0.04,
      "hC": 0.03,
      "mA": 0.02,
      "tD": 0.04,
      "mode": "A_lydian",
      "bpm": 78,
      "arc": 1,
      "ent": 9,
      "brk": 0,
      "frameMs": 7.8
    },
    {
      "t": 2679.8,
      "rD": 0.05,
      "hC": 0.03,
      "mA": 0.02,
      "tD": 0.04,
      "mode": "A_lydian",
      "bpm": 78,
      "arc": 1,
      "ent": 7,
      "brk": 0,
      "frameMs": 9
    },
    {
      "t": 2680.9,
      "rD": 0.05,
      "hC": 0.04,
      "mA": 0.03,
      "tD": 0.04,
      "mode": "A_lydian",
      "bpm": 78,
      "arc": 1,
      "ent": 6,
      "brk": 0,
      "frameMs": 10.4
    },
    {
      "t": 2681.9,
      "rD": 0.05,
      "hC": 0.03,
      "mA": 0.02,
      "tD": 0.04,
      "mode": "A_lydian",
      "bpm": 78,
      "arc": 1,
      "ent": 5,
      "brk": 0,
      "frameMs": 10.1
    },
    {
      "t": 2682.9,
      "rD": 0.04,
      "hC": 0.03,
      "mA": 0.02,
      "tD": 0.04,
      "mode": "A_lydian",
      "bpm": 78,
      "arc": 1,
      "ent": 4,
      "brk": 0,
      "frameMs": 10
    },
    {
      "t": 2683.9,
      "rD": 0.04,
      "hC": 0.03,
      "mA": 0.02,
      "tD": 0.03,
      "mode": "A_lydian",
      "bpm": 78,
      "arc": 1,
      "ent": 1,
      "brk": 0,
      "frameMs": 10.1
    },
    {
      "t": 2684.9,
      "rD": 0.03,
      "hC": 0.02,
      "mA": 0.01,
      "tD": 0.02,
      "mode": "A_lydian",
      "bpm": 78,
      "arc": 1,
      "ent": 0,
      "brk": 0,
      "frameMs": 8.5
    },
    {
      "t": 2685.9,
      "rD": 0.01,
      "hC": 0.01,
      "mA": 0.01,
      "tD": 0.01,
      "mode": "A_lydian",
      "bpm": 78,
      "arc": 1,
      "ent": 0,
      "brk": 0,
      "frameMs": 8.4
    },
    {
      "t": 2686.9,
      "rD": 0,
      "hC": 0,
      "mA": 0,
      "tD": 0,
      "mode": "A_lydian",
      "bpm": 78,
      "arc": 1,
      "ent": 0,
      "brk": 0,
      "frameMs": 9.3
    },
    {
      "t": 2687.9,
      "rD": 0,
      "hC": 0,
      "mA": 0,
      "tD": 0,
      "mode": "A_lydian",
      "bpm": 78,
      "arc": 1,
      "ent": 0,
      "brk": 0,
      "frameMs": 8.3
    },
    {
      "t": 2688.9,
      "rD": 0,
      "hC": 0,
      "mA": 0,
      "tD": 0,
      "mode": "A_lydian",
      "bpm": 78,
      "arc": 1,
      "ent": 13,
      "brk": 0,
      "frameMs": 8.5
    },
    {
      "t": 2689.9,
      "rD": 0,
      "hC": 0,
      "mA": 0,
      "tD": 0,
      "mode": "A_lydian",
      "bpm": 78,
      "arc": 1,
      "ent": 14,
      "brk": 0,
      "frameMs": 9
    },
    {
      "t": 2690.9,
      "rD": 0,
      "hC": 0,
      "mA": 0,
      "tD": 0,
      "mode": "A_lydian",
      "bpm": 78,
      "arc": 1,
      "ent": 14,
      "brk": 0,
      "frameMs": 8.4
    },
    {
      "t": 2691.9,
      "rD": 0,
      "hC": 0,
      "mA": 0,
      "tD": 0,
      "mode": "A_lydian",
      "bpm": 78,
      "arc": 1,
      "ent": 13,
      "brk": 0,
      "frameMs": 8.5
    },
    {
      "t": 2692.9,
      "rD": 0,
      "hC": 0,
      "mA": 0,
      "tD": 0,
      "mode": "A_lydian",
      "bpm": 78,
      "arc": 1,
      "ent": 11,
      "brk": 0,
      "frameMs": 10.1
    },
    {
      "t": 2693.9,
      "rD": 0,
      "hC": 0,
      "mA": 0,
      "tD": 0,
      "mode": "A_lydian",
      "bpm": 78,
      "arc": 1,
      "ent": 9,
      "brk": 0,
      "frameMs": 9.1
    },
    {
      "t": 2694.9,
      "rD": 0,
      "hC": 0,
      "mA": 0,
      "tD": 0,
      "mode": "A_lydian",
      "bpm": 78,
      "arc": 1,
      "ent": 3,
      "brk": 0,
      "frameMs": 9.1
    },
    {
      "t": 2696,
      "rD": 0,
      "hC": 0,
      "mA": 0,
      "tD": 0,
      "mode": "A_lydian",
      "bpm": 78,
      "arc": 1,
      "ent": 1,
      "brk": 0,
      "frameMs": 8.4
    },
    {
      "t": 2697,
      "rD": 0.01,
      "hC": 0,
      "mA": 0,
      "tD": 0,
      "mode": "A_lydian",
      "bpm": 78,
      "arc": 1,
      "ent": 0,
      "brk": 0,
      "frameMs": 9.1
    },
    {
      "t": 2698,
      "rD": 0.01,
      "hC": 0.01,
      "mA": 0.01,
      "tD": 0.01,
      "mode": "A_lydian",
      "bpm": 78,
      "arc": 1,
      "ent": 0,
      "brk": 0,
      "frameMs": 8.4
    },
    {
      "t": 2699,
      "rD": 0.02,
      "hC": 0.01,
      "mA": 0.01,
      "tD": 0.02,
      "mode": "A_lydian",
      "bpm": 78,
      "arc": 1,
      "ent": 0,
      "brk": 0,
      "frameMs": 8.3
    },
    {
      "t": 2700,
      "rD": 0.03,
      "hC": 0.02,
      "mA": 0.02,
      "tD": 0.02,
      "mode": "A_lydian",
      "bpm": 78,
      "arc": 1,
      "ent": 0,
      "brk": 0,
      "frameMs": 8.5
    },
    {
      "t": 2701,
      "rD": 0.04,
      "hC": 0.03,
      "mA": 0.02,
      "tD": 0.03,
      "mode": "A_lydian",
      "bpm": 78,
      "arc": 1,
      "ent": 9,
      "brk": 0,
      "frameMs": 8.2
    },
    {
      "t": 2702,
      "rD": 0.05,
      "hC": 0.03,
      "mA": 0.02,
      "tD": 0.04,
      "mode": "A_lydian",
      "bpm": 78,
      "arc": 1,
      "ent": 9,
      "brk": 0,
      "frameMs": 8.4
    },
    {
      "t": 2703,
      "rD": 0.05,
      "hC": 0.04,
      "mA": 0.03,
      "tD": 0.04,
      "mode": "A_lydian",
      "bpm": 78,
      "arc": 1,
      "ent": 8,
      "brk": 0,
      "frameMs": 8.3
    },
    {
      "t": 2704,
      "rD": 0.05,
      "hC": 0.04,
      "mA": 0.03,
      "tD": 0.04,
      "mode": "A_lydian",
      "bpm": 78,
      "arc": 1,
      "ent": 6,
      "brk": 0,
      "frameMs": 8.3
    },
    {
      "t": 2705,
      "rD": 0.05,
      "hC": 0.03,
      "mA": 0.02,
      "tD": 0.04,
      "mode": "A_lydian",
      "bpm": 78,
      "arc": 1,
      "ent": 5,
      "brk": 0,
      "frameMs": 8.4
    },
    {
      "t": 2706,
      "rD": 0.04,
      "hC": 0.03,
      "mA": 0.02,
      "tD": 0.04,
      "mode": "A_lydian",
      "bpm": 78,
      "arc": 1,
      "ent": 4,
      "brk": 0,
      "frameMs": 8.3
    },
    {
      "t": 2707,
      "rD": 0.04,
      "hC": 0.03,
      "mA": 0.02,
      "tD": 0.03,
      "mode": "A_lydian",
      "bpm": 78,
      "arc": 1,
      "ent": 4,
      "brk": 0,
      "frameMs": 7.8
    },
    {
      "t": 2708,
      "rD": 0.03,
      "hC": 0.02,
      "mA": 0.01,
      "tD": 0.02,
      "mode": "A_lydian",
      "bpm": 78,
      "arc": 1,
      "ent": 2,
      "brk": 0,
      "frameMs": 7.8
    },
    {
      "t": 2709,
      "rD": 0.01,
      "hC": 0.01,
      "mA": 0.01,
      "tD": 0.01,
      "mode": "A_lydian",
      "bpm": 78,
      "arc": 1,
      "ent": 0,
      "brk": 0,
      "frameMs": 8.2
    },
    {
      "t": 2710,
      "rD": 0,
      "hC": 0,
      "mA": 0,
      "tD": 0,
      "mode": "A_lydian",
      "bpm": 78,
      "arc": 1,
      "ent": 0,
      "brk": 0,
      "frameMs": 8.4
    },
    {
      "t": 2711,
      "rD": 0,
      "hC": 0,
      "mA": 0,
      "tD": 0,
      "mode": "A_lydian",
      "bpm": 78,
      "arc": 1,
      "ent": 0,
      "brk": 0,
      "frameMs": 8.3
    },
    {
      "t": 2712,
      "rD": 0,
      "hC": 0,
      "mA": 0,
      "tD": 0,
      "mode": "A_lydian",
      "bpm": 78,
      "arc": 1,
      "ent": 0,
      "brk": 0,
      "frameMs": 7.9
    },
    {
      "t": 2713,
      "rD": 0,
      "hC": 0,
      "mA": 0,
      "tD": 0,
      "mode": "A_lydian",
      "bpm": 78,
      "arc": 1,
      "ent": 6,
      "brk": 0,
      "frameMs": 8.3
    },
    {
      "t": 2714,
      "rD": 0,
      "hC": 0,
      "mA": 0,
      "tD": 0,
      "mode": "A_lydian",
      "bpm": 78,
      "arc": 1,
      "ent": 6,
      "brk": 0,
      "frameMs": 8.2
    },
    {
      "t": 2715,
      "rD": 0,
      "hC": 0,
      "mA": 0,
      "tD": 0,
      "mode": "A_lydian",
      "bpm": 78,
      "arc": 1,
      "ent": 6,
      "brk": 0,
      "frameMs": 7.7
    },
    {
      "t": 2716,
      "rD": 0,
      "hC": 0,
      "mA": 0,
      "tD": 0,
      "mode": "A_lydian",
      "bpm": 78,
      "arc": 1,
      "ent": 3,
      "brk": 0,
      "frameMs": 8.3
    },
    {
      "t": 2717,
      "rD": 0,
      "hC": 0,
      "mA": 0,
      "tD": 0,
      "mode": "A_lydian",
      "bpm": 78,
      "arc": 1,
      "ent": 2,
      "brk": 0,
      "frameMs": 8.2
    },
    {
      "t": 2718.1,
      "rD": 0,
      "hC": 0,
      "mA": 0,
      "tD": 0,
      "mode": "A_lydian",
      "bpm": 78,
      "arc": 1,
      "ent": 2,
      "brk": 0,
      "frameMs": 9.3
    },
    {
      "t": 2719.1,
      "rD": 0,
      "hC": 0,
      "mA": 0,
      "tD": 0,
      "mode": "A_lydian",
      "bpm": 78,
      "arc": 1,
      "ent": 1,
      "brk": 0,
      "frameMs": 9.4
    },
    {
      "t": 2720.1,
      "rD": 0.01,
      "hC": 0,
      "mA": 0,
      "tD": 0,
      "mode": "A_lydian",
      "bpm": 78,
      "arc": 1,
      "ent": 1,
      "brk": 0,
      "frameMs": 8.3
    }
  ],
  "phases": [
    {
      "t": 0,
      "from": "(start)",
      "to": "A_lydian",
      "bpm": 78,
      "arc": 0
    },
    {
      "t": 306.9,
      "from": "A_lydian",
      "to": "Bb_phrygian",
      "bpm": 78,
      "arc": 0.116
    },
    {
      "t": 1026.8,
      "from": "Bb_phrygian",
      "to": "D_dorian",
      "bpm": 86,
      "arc": 0.395
    },
    {
      "t": 1447.3,
      "from": "D_dorian",
      "to": "C#_dorian",
      "bpm": 92,
      "arc": 0.558
    },
    {
      "t": 1958.2,
      "from": "C#_dorian",
      "to": "E_phrygian",
      "bpm": 99,
      "arc": 0.756
    },
    {
      "t": 2257.4,
      "from": "E_phrygian",
      "to": "A_lydian",
      "bpm": 82,
      "arc": 0.872
    }
  ],
  "decisions": [
    {
      "t": 7.6,
      "type": "cue",
      "detail": "silence @0s"
    },
    {
      "t": 12.6,
      "type": "cue",
      "detail": "activate deriva @5s"
    },
    {
      "t": 12.6,
      "type": "cue",
      "detail": "camera @5s"
    },
    {
      "t": 187.6,
      "type": "cue",
      "detail": "layer cristallo @180s"
    },
    {
      "t": 247.6,
      "type": "cue",
      "detail": "fade_to cristallo @240s"
    },
    {
      "t": 304,
      "type": "oblique",
      "detail": "pitch_shift:2 ch:6"
    },
    {
      "t": 306.9,
      "type": "mode_change",
      "detail": "Bb_phrygian"
    },
    {
      "t": 307.6,
      "type": "cue",
      "detail": "camera @300s"
    },
    {
      "t": 316.1,
      "type": "seed_capture",
      "detail": "intervals:[2,-3,5,-9]"
    },
    {
      "t": 317.2,
      "type": "seed_return",
      "detail": "#1 original CH5 arc:0.12"
    },
    {
      "t": 318,
      "type": "oblique",
      "detail": "vel_spike ch:5"
    },
    {
      "t": 409.2,
      "type": "oblique",
      "detail": "pitch_shift:-1 ch:5"
    },
    {
      "t": 423.5,
      "type": "break_start",
      "detail": "bar:139 dur:3"
    },
    {
      "t": 427.6,
      "type": "cue",
      "detail": "fade_to cristallo @420s"
    },
    {
      "t": 427.6,
      "type": "cue",
      "detail": "layer abisso @420s"
    },
    {
      "t": 431.9,
      "type": "break_end",
      "detail": "bar:142 cooldown:15"
    },
    {
      "t": 473.8,
      "type": "break_start",
      "detail": "bar:157 dur:4"
    },
    {
      "t": 484.9,
      "type": "break_end",
      "detail": "bar:161 cooldown:20"
    },
    {
      "t": 487.6,
      "type": "cue",
      "detail": "fade_to abisso @480s"
    },
    {
      "t": 487.6,
      "type": "cue",
      "detail": "camera @480s"
    },
    {
      "t": 540.7,
      "type": "break_start",
      "detail": "bar:181 dur:4"
    },
    {
      "t": 551.9,
      "type": "break_end",
      "detail": "bar:185 cooldown:14"
    },
    {
      "t": 627.2,
      "type": "oblique",
      "detail": "ghost ch:6"
    },
    {
      "t": 646.8,
      "type": "break_start",
      "detail": "bar:219 dur:3"
    },
    {
      "t": 655.2,
      "type": "break_end",
      "detail": "bar:222 cooldown:17"
    },
    {
      "t": 702.6,
      "type": "break_start",
      "detail": "bar:239 dur:2"
    },
    {
      "t": 708.2,
      "type": "break_end",
      "detail": "bar:241 cooldown:18"
    },
    {
      "t": 727.6,
      "type": "cue",
      "detail": "firma gelo @720s"
    },
    {
      "t": 735.6,
      "type": "cue",
      "detail": "firma gelo @728s"
    },
    {
      "t": 758.4,
      "type": "break_start",
      "detail": "bar:259 dur:4"
    },
    {
      "t": 769.6,
      "type": "break_end",
      "detail": "bar:263 cooldown:19"
    },
    {
      "t": 781.6,
      "type": "seed_return",
      "detail": "#2 transpose CH6 arc:0.30"
    },
    {
      "t": 783.3,
      "type": "oblique",
      "detail": "pitch_shift:2 ch:5"
    },
    {
      "t": 822.6,
      "type": "break_start",
      "detail": "bar:282 dur:4"
    },
    {
      "t": 833.8,
      "type": "break_end",
      "detail": "bar:286 cooldown:13"
    },
    {
      "t": 870,
      "type": "break_start",
      "detail": "bar:299 dur:2"
    },
    {
      "t": 875.6,
      "type": "break_end",
      "detail": "bar:301 cooldown:20"
    },
    {
      "t": 889.2,
      "type": "oblique",
      "detail": "pitch_shift:-2 ch:6"
    },
    {
      "t": 897.6,
      "type": "oblique",
      "detail": "vel_spike ch:5"
    },
    {
      "t": 929.2,
      "type": "oblique",
      "detail": "ghost ch:5"
    },
    {
      "t": 959.3,
      "type": "break_start",
      "detail": "bar:331 dur:3"
    },
    {
      "t": 967.6,
      "type": "cue",
      "detail": "fade_to abisso @960s"
    },
    {
      "t": 967.6,
      "type": "cue",
      "detail": "camera @960s"
    },
    {
      "t": 967.7,
      "type": "break_end",
      "detail": "bar:334 cooldown:14"
    },
    {
      "t": 997.6,
      "type": "cue",
      "detail": "layer deriva @990s"
    },
    {
      "t": 1006.8,
      "type": "break_start",
      "detail": "bar:348 dur:2"
    },
    {
      "t": 1012.4,
      "type": "break_end",
      "detail": "bar:350 cooldown:20"
    },
    {
      "t": 1026.7,
      "type": "mode_change",
      "detail": "D_dorian"
    },
    {
      "t": 1057.6,
      "type": "cue",
      "detail": "fade_to deriva @1050s"
    },
    {
      "t": 1057.6,
      "type": "cue",
      "detail": "fade_to abisso @1050s"
    },
    {
      "t": 1065.6,
      "type": "break_start",
      "detail": "bar:370 dur:4"
    },
    {
      "t": 1068.5,
      "type": "oblique",
      "detail": "pitch_shift:-1 ch:6"
    },
    {
      "t": 1076,
      "type": "break_end",
      "detail": "bar:374 cooldown:19"
    },
    {
      "t": 1087.6,
      "type": "cue",
      "detail": "layer terreno @1080s"
    },
    {
      "t": 1087.6,
      "type": "cue",
      "detail": "camera @1080s"
    },
    {
      "t": 1117.6,
      "type": "cue",
      "detail": "fade_to terreno @1110s"
    },
    {
      "t": 1125.6,
      "type": "break_start",
      "detail": "bar:393 dur:3"
    },
    {
      "t": 1133.4,
      "type": "break_end",
      "detail": "bar:396 cooldown:11"
    },
    {
      "t": 1162.1,
      "type": "break_start",
      "detail": "bar:407 dur:3"
    },
    {
      "t": 1169.2,
      "type": "oblique",
      "detail": "pitch_shift:1 ch:5"
    },
    {
      "t": 1169.9,
      "type": "break_end",
      "detail": "bar:410 cooldown:17"
    },
    {
      "t": 1214.2,
      "type": "break_start",
      "detail": "bar:427 dur:4"
    },
    {
      "t": 1219.9,
      "type": "oblique",
      "detail": "pitch_shift:1 ch:6"
    },
    {
      "t": 1224.7,
      "type": "break_end",
      "detail": "bar:431 cooldown:17"
    },
    {
      "t": 1244.4,
      "type": "oblique",
      "detail": "ghost ch:5"
    },
    {
      "t": 1257.3,
      "type": "oblique",
      "detail": "pitch_shift:-2 ch:5"
    },
    {
      "t": 1273.1,
      "type": "oblique",
      "detail": "vel_spike ch:5"
    },
    {
      "t": 1295.1,
      "type": "break_start",
      "detail": "bar:458 dur:3"
    },
    {
      "t": 1297.6,
      "type": "seed_return",
      "detail": "#3 invert CH5 arc:0.50"
    },
    {
      "t": 1302.9,
      "type": "break_end",
      "detail": "bar:461 cooldown:19"
    },
    {
      "t": 1327.6,
      "type": "cue",
      "detail": "firma gelo @1320s"
    },
    {
      "t": 1335.6,
      "type": "cue",
      "detail": "firma gelo @1328s"
    },
    {
      "t": 1352.5,
      "type": "break_start",
      "detail": "bar:480 dur:4"
    },
    {
      "t": 1362.9,
      "type": "break_end",
      "detail": "bar:484 cooldown:10"
    },
    {
      "t": 1392.3,
      "type": "oblique",
      "detail": "pitch_shift:1 ch:5"
    },
    {
      "t": 1415.1,
      "type": "break_start",
      "detail": "bar:504 dur:4"
    },
    {
      "t": 1417.1,
      "type": "oblique",
      "detail": "vel_spike ch:5"
    },
    {
      "t": 1425.6,
      "type": "break_end",
      "detail": "bar:508 cooldown:16"
    },
    {
      "t": 1426.9,
      "type": "oblique",
      "detail": "ghost ch:5"
    },
    {
      "t": 1447.3,
      "type": "mode_change",
      "detail": "C#_dorian"
    },
    {
      "t": 1447.6,
      "type": "cue",
      "detail": "fade_to terreno @1440s"
    },
    {
      "t": 1455.2,
      "type": "oblique",
      "detail": "pitch_shift:-1 ch:6"
    },
    {
      "t": 1471.3,
      "type": "oblique",
      "detail": "vel_spike ch:6"
    },
    {
      "t": 1475.7,
      "type": "oblique",
      "detail": "vel_spike ch:5"
    },
    {
      "t": 1489.8,
      "type": "break_start",
      "detail": "bar:534 dur:2"
    },
    {
      "t": 1491,
      "type": "oblique",
      "detail": "pitch_shift:2 ch:6"
    },
    {
      "t": 1494.6,
      "type": "break_end",
      "detail": "bar:536 cooldown:16"
    },
    {
      "t": 1507.6,
      "type": "cue",
      "detail": "layer solco @1500s"
    },
    {
      "t": 1507.6,
      "type": "cue",
      "detail": "camera @1500s"
    },
    {
      "t": 1514.1,
      "type": "oblique",
      "detail": "pitch_shift:2 ch:6"
    },
    {
      "t": 1520.6,
      "type": "oblique",
      "detail": "pitch_shift:-2 ch:5"
    },
    {
      "t": 1522.6,
      "type": "cue",
      "detail": "fade_to terreno @1515s"
    },
    {
      "t": 1522.6,
      "type": "cue",
      "detail": "fade_to solco @1515s"
    },
    {
      "t": 1530.9,
      "type": "oblique",
      "detail": "ghost ch:5"
    },
    {
      "t": 1539,
      "type": "oblique",
      "detail": "pitch_shift:-1 ch:6"
    },
    {
      "t": 1550.5,
      "type": "oblique",
      "detail": "pitch_shift:2 ch:5"
    },
    {
      "t": 1558.6,
      "type": "oblique",
      "detail": "pitch_shift:2 ch:5"
    },
    {
      "t": 1569,
      "type": "oblique",
      "detail": "vel_spike ch:5"
    },
    {
      "t": 1571.3,
      "type": "oblique",
      "detail": "ghost ch:6"
    },
    {
      "t": 1577.4,
      "type": "oblique",
      "detail": "pitch_shift:-1 ch:6"
    },
    {
      "t": 1597,
      "type": "oblique",
      "detail": "pitch_shift:-1 ch:6"
    },
    {
      "t": 1603.6,
      "type": "oblique",
      "detail": "pitch_shift:2 ch:6"
    },
    {
      "t": 1605,
      "type": "break_start",
      "detail": "bar:582 dur:2"
    },
    {
      "t": 1609.8,
      "type": "break_end",
      "detail": "bar:584 cooldown:18"
    },
    {
      "t": 1653,
      "type": "break_start",
      "detail": "bar:602 dur:3"
    },
    {
      "t": 1660.2,
      "type": "break_end",
      "detail": "bar:605 cooldown:19"
    },
    {
      "t": 1664.3,
      "type": "oblique",
      "detail": "pitch_shift:2 ch:5"
    },
    {
      "t": 1665.3,
      "type": "oblique",
      "detail": "ghost ch:5"
    },
    {
      "t": 1682.8,
      "type": "oblique",
      "detail": "pitch_shift:1 ch:6"
    },
    {
      "t": 1687.6,
      "type": "cue",
      "detail": "firma convergenza @1680s"
    },
    {
      "t": 1689.7,
      "type": "oblique",
      "detail": "pitch_shift:2 ch:6"
    },
    {
      "t": 1693.5,
      "type": "oblique",
      "detail": "pitch_shift:-2 ch:5"
    },
    {
      "t": 1705.3,
      "type": "oblique",
      "detail": "pitch_shift:-1 ch:5"
    },
    {
      "t": 1705.9,
      "type": "oblique",
      "detail": "pitch_shift:1 ch:5"
    },
    {
      "t": 1717.6,
      "type": "cue",
      "detail": "firma convergenza @1710s"
    },
    {
      "t": 1725.4,
      "type": "oblique",
      "detail": "ghost ch:5"
    },
    {
      "t": 1733.4,
      "type": "oblique",
      "detail": "vel_spike ch:6"
    },
    {
      "t": 1765,
      "type": "oblique",
      "detail": "pitch_shift:-2 ch:5"
    },
    {
      "t": 1765.6,
      "type": "oblique",
      "detail": "pitch_shift:2 ch:6"
    },
    {
      "t": 1777.8,
      "type": "break_start",
      "detail": "bar:654 dur:3"
    },
    {
      "t": 1785,
      "type": "break_end",
      "detail": "bar:657 cooldown:20"
    },
    {
      "t": 1797.3,
      "type": "oblique",
      "detail": "ghost ch:6"
    },
    {
      "t": 1807.6,
      "type": "cue",
      "detail": "firma vuotoTotale @1800s"
    },
    {
      "t": 1813.6,
      "type": "seed_return",
      "detail": "#4 retrograde CH6 arc:0.70"
    },
    {
      "t": 1829.6,
      "type": "cue",
      "detail": "firma vuotoTotale @1822s"
    },
    {
      "t": 1845.8,
      "type": "oblique",
      "detail": "ghost ch:5"
    },
    {
      "t": 1852.6,
      "type": "cue",
      "detail": "layer vortice @1845s"
    },
    {
      "t": 1852.6,
      "type": "cue",
      "detail": "camera @1845s"
    },
    {
      "t": 1857,
      "type": "break_start",
      "detail": "bar:687 dur:3"
    },
    {
      "t": 1862.6,
      "type": "cue",
      "detail": "fade_to solco @1855s"
    },
    {
      "t": 1862.6,
      "type": "cue",
      "detail": "fade_to vortice @1855s"
    },
    {
      "t": 1864.3,
      "type": "break_end",
      "detail": "bar:690 cooldown:14"
    },
    {
      "t": 1881.2,
      "type": "oblique",
      "detail": "pitch_shift:-1 ch:6"
    },
    {
      "t": 1883.4,
      "type": "oblique",
      "detail": "pitch_shift:2 ch:5"
    },
    {
      "t": 1897.8,
      "type": "break_start",
      "detail": "bar:704 dur:3"
    },
    {
      "t": 1904.7,
      "type": "oblique",
      "detail": "pitch_shift:-2 ch:6"
    },
    {
      "t": 1905,
      "type": "break_end",
      "detail": "bar:707 cooldown:19"
    },
    {
      "t": 1913.7,
      "type": "oblique",
      "detail": "pitch_shift:-2 ch:6"
    },
    {
      "t": 1942.1,
      "type": "oblique",
      "detail": "vel_spike ch:6"
    },
    {
      "t": 1947.2,
      "type": "oblique",
      "detail": "pitch_shift:2 ch:5"
    },
    {
      "t": 1950.6,
      "type": "break_start",
      "detail": "bar:726 dur:2"
    },
    {
      "t": 1955.4,
      "type": "break_end",
      "detail": "bar:728 cooldown:17"
    },
    {
      "t": 1958.2,
      "type": "mode_change",
      "detail": "E_phrygian"
    },
    {
      "t": 1987.6,
      "type": "cue",
      "detail": "fade_to vortice @1980s"
    },
    {
      "t": 1988.2,
      "type": "oblique",
      "detail": "ghost ch:6"
    },
    {
      "t": 2004.3,
      "type": "break_start",
      "detail": "bar:745 dur:2"
    },
    {
      "t": 2010.1,
      "type": "break_end",
      "detail": "bar:747 cooldown:15"
    },
    {
      "t": 2047.6,
      "type": "cue",
      "detail": "fade_to vortice @2040s"
    },
    {
      "t": 2047.6,
      "type": "cue",
      "detail": "fade_to solco @2040s"
    },
    {
      "t": 2053.8,
      "type": "oblique",
      "detail": "ghost ch:6"
    },
    {
      "t": 2054,
      "type": "break_start",
      "detail": "bar:762 dur:4"
    },
    {
      "t": 2065.7,
      "type": "break_end",
      "detail": "bar:766 cooldown:17"
    },
    {
      "t": 2105.6,
      "type": "oblique",
      "detail": "ghost ch:5"
    },
    {
      "t": 2107.6,
      "type": "cue",
      "detail": "camera @2100s"
    },
    {
      "t": 2107.6,
      "type": "cue",
      "detail": "layer cristallo @2100s"
    },
    {
      "t": 2115.5,
      "type": "break_start",
      "detail": "bar:783 dur:3"
    },
    {
      "t": 2124.3,
      "type": "break_end",
      "detail": "bar:786 cooldown:10"
    },
    {
      "t": 2182.8,
      "type": "break_start",
      "detail": "bar:806 dur:4"
    },
    {
      "t": 2194.5,
      "type": "break_end",
      "detail": "bar:810 cooldown:10"
    },
    {
      "t": 2200.6,
      "type": "seed_return",
      "detail": "#5 augment CH5 arc:0.85"
    },
    {
      "t": 2223.8,
      "type": "break_start",
      "detail": "bar:820 dur:2"
    },
    {
      "t": 2229.6,
      "type": "break_end",
      "detail": "bar:822 cooldown:14"
    },
    {
      "t": 2257.4,
      "type": "mode_change",
      "detail": "A_lydian"
    },
    {
      "t": 2287.6,
      "type": "cue",
      "detail": "fade_to cristallo @2280s"
    },
    {
      "t": 2287.6,
      "type": "cue",
      "detail": "layer deriva @2280s"
    },
    {
      "t": 2407.6,
      "type": "cue",
      "detail": "fade_to deriva @2400s"
    },
    {
      "t": 2497.6,
      "type": "cue",
      "detail": "fade_to deriva @2490s"
    },
    {
      "t": 2587.6,
      "type": "cue",
      "detail": "end @2580s"
    }
  ],
  "frameTiming": {
    "avg": 8.3,
    "p50": 8.3,
    "p95": 9.3,
    "p99": 9.4,
    "max": 9.4,
    "drops": 0,
    "totalFrames": 265500
  },
  "screenshots": [
    {
      "t": 0,
      "trigger": "auto"
    },
    {
      "t": 0,
      "trigger": "mode:A_lydian"
    },
    {
      "t": 60.3,
      "trigger": "auto"
    },
    {
      "t": 120.5,
      "trigger": "auto"
    },
    {
      "t": 180.8,
      "trigger": "auto"
    },
    {
      "t": 241,
      "trigger": "auto"
    },
    {
      "t": 301.3,
      "trigger": "auto"
    },
    {
      "t": 306.9,
      "trigger": "mode:Bb_phrygian"
    },
    {
      "t": 367.8,
      "trigger": "auto"
    },
    {
      "t": 428.2,
      "trigger": "auto"
    },
    {
      "t": 488.7,
      "trigger": "auto"
    },
    {
      "t": 549.2,
      "trigger": "auto"
    },
    {
      "t": 609.6,
      "trigger": "auto"
    },
    {
      "t": 669.9,
      "trigger": "auto"
    },
    {
      "t": 730.3,
      "trigger": "auto"
    },
    {
      "t": 790.6,
      "trigger": "auto"
    },
    {
      "t": 850.9,
      "trigger": "auto"
    },
    {
      "t": 911.2,
      "trigger": "auto"
    },
    {
      "t": 971.6,
      "trigger": "auto"
    },
    {
      "t": 1026.8,
      "trigger": "mode:D_dorian"
    },
    {
      "t": 1087.1,
      "trigger": "auto"
    },
    {
      "t": 1147.4,
      "trigger": "auto"
    },
    {
      "t": 1207.7,
      "trigger": "auto"
    },
    {
      "t": 1268,
      "trigger": "auto"
    },
    {
      "t": 1328.3,
      "trigger": "auto"
    },
    {
      "t": 1388.6,
      "trigger": "auto"
    },
    {
      "t": 1447.3,
      "trigger": "mode:C#_dorian"
    },
    {
      "t": 1508.3,
      "trigger": "auto"
    },
    {
      "t": 1568.7,
      "trigger": "auto"
    },
    {
      "t": 1629.1,
      "trigger": "auto"
    },
    {
      "t": 1689.5,
      "trigger": "auto"
    },
    {
      "t": 1749.8,
      "trigger": "auto"
    },
    {
      "t": 1810.2,
      "trigger": "auto"
    },
    {
      "t": 1870.9,
      "trigger": "auto"
    },
    {
      "t": 1931,
      "trigger": "auto"
    },
    {
      "t": 1958.2,
      "trigger": "mode:E_phrygian"
    },
    {
      "t": 2018.8,
      "trigger": "auto"
    },
    {
      "t": 2079.2,
      "trigger": "auto"
    },
    {
      "t": 2139.4,
      "trigger": "auto"
    },
    {
      "t": 2199.7,
      "trigger": "auto"
    },
    {
      "t": 2257.4,
      "trigger": "mode:A_lydian"
    },
    {
      "t": 2318.2,
      "trigger": "auto"
    },
    {
      "t": 2378.5,
      "trigger": "auto"
    },
    {
      "t": 2438.7,
      "trigger": "auto"
    },
    {
      "t": 2499,
      "trigger": "auto"
    },
    {
      "t": 2559.3,
      "trigger": "auto"
    },
    {
      "t": 2619.5,
      "trigger": "auto"
    },
    {
      "t": 2679.8,
      "trigger": "auto"
    }
  ]
}